<svg xmlns="http://www.w3.org/2000/svg" xmlns:xlink="http://www.w3.org/1999/xlink" width="72.00000000000001" height="106.56000000000002"><path fill="red" stroke="red" d="M45.94 45.72L45.94 59.26C45.94 65.02 47.30 67.32 53.57 67.32L62.14 67.32C64.15 67.32 66.24 67.18 67.39 66.82C67.18 65.38 67.03 63.22 66.89 61.49C65.74 61.78 63.36 61.92 61.92 61.92L54.07 61.92C52.63 61.92 52.34 61.27 52.34 59.26L52.34 55.51L65.38 55.51L65.38 50.26L52.34 50.26L52.34 45.72ZM6.41 70.49C12.89 68.62 21.31 66.17 29.30 63.72L28.58 58.90L25.78 59.69L25.78 45.72L19.73 45.72L19.73 50.26L7.06 50.26L7.06 55.51L19.73 55.51L19.73 61.27C14.11 62.78 8.78 64.08 4.82 65.02ZM39.46 43.85L67.03 43.85L67.03 37.80L39.46 37.80L39.46 31.82C47.59 31.18 55.30 30.24 61.49 29.09L58.54 23.33C46.51 25.70 26.50 27.07 9.86 27.58C10.51 29.02 11.16 31.61 11.30 33.26C18.00 33.12 25.27 32.83 32.47 32.33L32.47 37.80L4.97 37.80L4.97 43.85L32.47 43.85L32.47 60.91C26.42 70.20 15.05 78.26 2.59 81.65C4.03 83.02 5.98 85.61 6.98 87.26C16.85 84.02 25.85 77.76 32.47 69.91L32.47 89.21L39.46 89.21L39.46 69.62C46.08 77.54 55.01 83.88 64.94 87.19C65.88 85.46 67.82 82.87 69.26 81.58C56.88 78.19 45.50 70.13 39.46 60.91Z"/></svg>
