<svg xmlns="http://www.w3.org/2000/svg" xmlns:xlink="http://www.w3.org/1999/xlink" width="72.00000000000001" height="106.56000000000002"><path fill="red" stroke="red" d="M19.44 23.26C15.41 33.84 8.64 44.21 1.58 50.83C2.74 52.49 4.61 56.09 5.26 57.67C7.63 55.22 10.08 52.42 12.31 49.25L12.31 89.14L18.65 89.14L18.65 39.60C21.31 35.06 23.69 30.17 25.70 25.34ZM57.53 60.98L44.71 60.98C45.00 58.46 45.07 56.09 45.07 53.64L45.07 50.54L57.53 50.54ZM45.07 34.06L57.53 34.06L57.53 44.35L45.07 44.35ZM68.98 44.35L64.08 44.35L64.08 27.86L26.42 27.86L26.42 34.06L38.45 34.06L38.45 44.35L21.74 44.35L21.74 50.54L38.45 50.54L38.45 53.64C38.45 56.02 38.38 58.46 38.09 60.98L25.63 60.98L25.63 67.25L36.94 67.25C35.06 73.87 30.74 80.14 21.31 84.31C22.82 85.61 24.91 88.06 25.85 89.50C36.94 83.88 41.76 75.74 43.70 67.25L57.53 67.25L57.53 70.78L64.08 70.78L64.08 50.54L68.98 50.54Z"/></svg>
