<svg xmlns="http://www.w3.org/2000/svg" xmlns:xlink="http://www.w3.org/1999/xlink" width="72.00000000000001" height="106.56000000000002"><path fill="red" stroke="red" d="M18.65 23.40C14.76 33.91 8.35 44.42 1.58 51.12C2.66 52.70 4.61 56.30 5.26 57.89C7.27 55.80 9.29 53.35 11.23 50.69L11.23 89.06L17.57 89.06L17.57 40.90C20.38 35.93 22.97 30.60 24.91 25.34ZM58.03 79.78L33.98 79.78L33.98 64.73L58.03 64.73ZM69.05 44.78L69.05 38.30L49.32 38.30L49.32 23.04L42.41 23.04L42.41 38.30L23.62 38.30L23.62 44.78L42.41 44.78L42.41 58.39L27.36 58.39L27.36 89.14L33.98 89.14L33.98 86.11L58.03 86.11L58.03 88.85L64.87 88.85L64.87 58.39L49.32 58.39L49.32 44.78Z"/></svg>
