<svg xmlns="http://www.w3.org/2000/svg" xmlns:xlink="http://www.w3.org/1999/xlink" width="72.00000000000001" height="106.56000000000002"><path fill="red" stroke="red" d="M18.43 23.47C14.54 33.98 8.14 44.50 1.37 51.19C2.45 52.70 4.39 56.30 5.04 57.96C7.13 55.73 9.22 53.21 11.23 50.40L11.23 89.06L17.57 89.06L17.57 40.46C20.30 35.57 22.75 30.46 24.70 25.34ZM40.46 61.63C40.54 60.12 40.54 58.68 40.54 57.17L40.54 53.42L47.38 53.42L47.38 61.63ZM27.72 61.63C28.15 59.11 28.51 56.23 28.94 53.42L34.70 53.42L34.70 57.17C34.70 58.68 34.70 60.12 34.56 61.63ZM40.54 39.46L47.38 39.46L47.38 47.74L40.54 47.74ZM59.98 39.46L59.98 47.74L53.28 47.74L53.28 39.46ZM53.28 61.63L53.28 53.42L65.88 53.42L65.88 33.70L53.28 33.70L53.28 24.05L47.38 24.05L47.38 33.70L40.54 33.70L40.54 23.98L34.70 23.98L34.70 33.70L22.75 33.70L22.75 39.46L34.70 39.46L34.70 47.74L23.90 47.74C23.11 54.07 21.82 62.21 20.59 67.32L33.91 67.32C32.54 74.45 29.02 80.71 20.16 85.03C21.46 86.04 23.47 88.27 24.26 89.50C34.70 84.31 38.66 76.46 39.89 67.32L47.38 67.32L47.38 89.14L53.28 89.14L53.28 67.32L62.06 67.32C61.85 73.87 61.56 76.39 60.91 77.26C60.48 77.76 60.05 77.90 59.18 77.83C58.39 77.83 56.59 77.83 54.50 77.62C55.30 79.13 55.87 81.43 56.02 83.16C58.54 83.30 60.98 83.23 62.35 83.02C63.94 82.80 65.02 82.30 66.02 81.14C67.32 79.49 67.68 74.88 67.97 63.86C68.04 63.07 68.04 61.63 68.04 61.63Z"/></svg>
