<svg xmlns="http://www.w3.org/2000/svg" xmlns:xlink="http://www.w3.org/1999/xlink" width="72.00000000000001" height="106.56000000000002"><path fill="red" stroke="red" d="M61.20 24.98C59.62 29.23 56.52 34.92 54.14 38.59L59.98 40.90C62.35 37.44 65.23 32.26 67.61 27.43ZM38.09 38.38C36.94 34.78 33.84 29.38 30.89 25.42L25.13 27.94C28.15 32.04 31.03 37.73 32.04 41.33ZM18.43 23.47C14.83 33.91 8.86 44.42 2.52 51.19C3.67 52.70 5.62 56.30 6.19 57.96C8.06 55.94 9.79 53.71 11.52 51.19L11.52 89.14L17.86 89.14L17.86 40.90C20.52 35.86 22.90 30.60 24.77 25.34ZM65.09 43.34L49.61 43.34L49.61 23.11L42.84 23.11L42.84 43.34L27.07 43.34L27.07 64.01C27.07 70.99 26.78 79.63 23.33 85.82C24.77 86.54 27.50 88.49 28.58 89.64C32.62 82.73 33.26 72.07 33.26 64.08L33.26 49.39L58.54 49.39L58.54 64.01C49.39 66.17 40.10 68.33 33.84 69.55L35.93 75.17C42.26 73.66 50.54 71.57 58.54 69.48L58.54 81.36C58.54 82.37 58.18 82.73 57.10 82.80C56.02 82.80 52.13 82.80 48.46 82.66C49.32 84.38 50.26 87.19 50.54 88.92C56.02 88.92 59.69 88.92 61.99 87.84C64.37 86.83 65.09 84.89 65.09 81.50ZM34.92 57.38C40.90 58.75 48.38 61.56 52.27 63.72L55.15 59.04C51.12 56.95 43.56 54.43 37.66 53.21Z"/></svg>
