<svg xmlns="http://www.w3.org/2000/svg" xmlns:xlink="http://www.w3.org/1999/xlink" width="72.00000000000001" height="106.56000000000002"><path fill="red" stroke="red" d="M55.80 29.16L50.11 29.16L50.11 71.42L55.80 71.42ZM15.26 23.33C12.31 33.98 7.27 44.71 1.58 51.77C2.74 53.57 4.39 57.31 4.90 58.97C6.62 56.88 8.21 54.50 9.79 51.77L9.79 89.21L15.91 89.21L15.91 39.74C18.00 34.99 19.87 29.95 21.31 25.06ZM36.07 66.02L46.66 66.02L46.66 60.48L36.07 60.48L36.07 53.06L29.81 53.06L29.81 60.48L20.16 60.48L20.16 66.02L29.81 66.02L29.81 76.10C25.42 76.82 21.38 77.47 18.14 77.98L19.22 83.95C27.14 82.44 37.80 80.28 48.10 78.26L47.66 72.72C43.78 73.44 39.89 74.23 36.07 74.95ZM36.29 38.52C37.37 40.10 38.45 41.90 39.53 43.70L28.08 45.43C30.31 41.90 32.47 37.66 34.20 33.62L47.23 33.62L47.23 27.94L21.24 27.94L21.24 33.62L27.58 33.62C25.92 38.30 23.69 42.48 22.90 43.78C21.89 45.43 20.95 46.66 19.87 46.87C20.66 48.38 21.53 51.26 21.89 52.56C23.47 51.70 25.85 51.19 42.05 48.53C42.91 50.40 43.63 51.98 44.06 53.35L49.10 50.90C47.74 47.09 44.28 40.97 41.11 36.43ZM60.41 25.20L60.41 80.57C60.41 81.79 59.98 82.15 58.68 82.22C57.53 82.30 53.71 82.30 49.39 82.15C50.33 83.74 51.34 86.40 51.62 88.06C57.24 88.06 60.84 87.91 63.22 86.83C65.52 85.90 66.38 84.24 66.38 80.57L66.38 25.20Z"/></svg>
