<svg xmlns="http://www.w3.org/2000/svg" xmlns:xlink="http://www.w3.org/1999/xlink" width="72.00000000000001" height="106.56000000000002"><path fill="red" stroke="red" d="M55.73 36.72L33.26 36.72L33.26 31.10L55.73 31.10ZM55.73 47.38L33.26 47.38L33.26 41.69L55.73 41.69ZM62.57 25.85L26.71 25.85L26.71 52.63L62.57 52.63ZM17.86 23.40C14.26 33.91 8.28 44.35 1.87 51.12C3.02 52.85 4.97 56.59 5.54 58.25C7.34 56.38 9.07 54.22 10.80 51.77L10.80 89.06L17.35 89.06L17.35 41.18C20.09 36.07 22.54 30.67 24.41 25.34ZM30.31 80.71L30.31 74.38L58.97 74.38L58.97 80.71ZM58.97 62.86L58.97 68.83L30.31 68.83L30.31 62.86ZM23.62 57.17L23.62 89.06L30.31 89.06L30.31 86.40L58.97 86.40L58.97 88.78L65.88 88.78L65.88 57.17Z"/></svg>
