<svg xmlns="http://www.w3.org/2000/svg" xmlns:xlink="http://www.w3.org/1999/xlink" width="72.00000000000001" height="106.56000000000002"><path fill="red" stroke="red" d="M35.93 31.39C41.04 37.80 47.95 44.21 55.37 49.18L16.27 49.18C23.54 44.06 30.74 37.66 35.93 31.39ZM39.31 70.70L58.90 70.70L58.90 64.87L39.31 64.87L39.31 55.08L55.80 55.08L55.80 49.46C58.82 51.48 61.99 53.28 65.09 54.72C66.10 52.85 68.26 50.04 69.62 48.67C57.96 44.06 45.94 34.70 39.53 25.13L16.56 25.13L16.56 31.39L28.01 31.39C21.02 38.66 11.16 45.79 2.59 49.54C4.10 50.98 5.83 53.28 6.77 55.01C9.79 53.42 12.96 51.48 16.13 49.25L16.13 55.08L32.26 55.08L32.26 64.87L12.89 64.87L12.89 70.70L32.26 70.70L32.26 81.29L5.83 81.29L5.83 87.34L66.60 87.34L66.60 81.29L39.31 81.29Z"/></svg>
