<svg xmlns="http://www.w3.org/2000/svg" xmlns:xlink="http://www.w3.org/1999/xlink" width="72.00000000000001" height="106.56000000000002"><path fill="red" stroke="red" d="M42.62 52.42L42.62 56.95L46.87 56.95C45.79 64.58 43.49 71.21 39.31 75.60C40.46 76.18 42.19 77.62 42.98 78.26C45.58 75.38 47.59 71.57 49.03 67.18C50.04 71.21 51.62 75.10 54.36 78.41C55.22 77.62 57.10 76.25 58.18 75.74C52.13 68.90 51.70 60.19 51.70 52.42ZM67.18 33.84L67.18 27.29L5.18 27.29L5.18 33.84L32.40 33.84L32.40 41.62L7.56 41.62L7.56 88.99L13.97 88.99L13.97 47.88L32.40 47.88L32.40 75.02C27.22 68.26 26.78 59.90 26.78 52.42L18.00 52.42L18.00 56.95L22.18 56.95C21.10 64.94 18.86 71.71 14.33 76.18C15.41 76.75 17.14 78.12 17.93 78.84C20.74 75.89 22.82 72.07 24.34 67.54C25.27 71.57 26.86 75.38 29.52 78.70C30.17 77.90 31.39 76.90 32.40 76.25L32.40 88.85L38.81 88.85L38.81 47.88L58.25 47.88L58.25 81.86C58.25 82.87 57.89 83.23 56.81 83.23C55.73 83.30 51.98 83.30 48.46 83.16C49.39 84.74 50.33 87.26 50.69 88.99C55.73 88.99 59.40 88.92 61.78 87.91C64.08 86.90 64.80 85.25 64.80 81.86L64.80 41.62L38.81 41.62L38.81 33.84Z"/></svg>
