<svg xmlns="http://www.w3.org/2000/svg" xmlns:xlink="http://www.w3.org/1999/xlink" width="72.00000000000001" height="106.56000000000002"><path fill="red" stroke="red" d="M4.18 41.62L4.18 48.53L68.04 48.53L68.04 41.62ZM21.74 55.87C17.21 66.10 9.94 77.18 3.17 84.10C5.04 85.25 8.42 87.41 9.94 88.78C16.34 81.07 23.98 69.19 29.23 58.25ZM42.41 58.39C48.82 67.90 57.31 80.71 61.13 88.27L68.18 84.46C63.94 76.90 55.22 64.44 48.82 55.30ZM28.73 25.70C31.03 30.46 33.98 36.86 35.21 40.68L42.62 37.94C41.11 34.13 38.02 28.01 35.64 23.33Z"/></svg>
