<svg xmlns="http://www.w3.org/2000/svg" xmlns:xlink="http://www.w3.org/1999/xlink" width="72.00000000000001" height="106.56000000000002"><path fill="red" stroke="red" d="M51.91 58.75L51.91 63.07L20.02 63.07L20.02 58.75ZM20.02 72.07L20.02 67.75L51.91 67.75L51.91 72.07ZM20.02 81.22L20.02 76.68L51.91 76.68L51.91 81.22ZM13.54 89.06L20.02 89.06L20.02 86.26L51.91 86.26L51.91 88.70L58.61 88.70L58.61 53.78L13.54 53.78ZM52.78 35.50L19.08 35.50L19.08 40.18L52.78 40.18ZM52.78 49.10L52.78 44.42L19.15 44.42L19.15 49.10ZM8.50 26.42L8.50 51.19L14.98 51.19L14.98 31.39L56.45 31.39L56.45 51.12L63.22 51.12L63.22 26.42Z"/></svg>
