<svg xmlns="http://www.w3.org/2000/svg" xmlns:xlink="http://www.w3.org/1999/xlink" width="72.00000000000001" height="106.56000000000002"><path fill="red" stroke="red" d="M6.48 30.53L6.48 37.30L27.14 37.30C26.50 54.00 24.34 73.80 2.95 83.74C4.82 85.25 7.06 87.70 8.06 89.57C30.74 78.19 33.77 56.16 34.70 37.30L57.96 37.30C57.02 65.95 55.94 77.83 53.42 80.35C52.56 81.29 51.70 81.58 50.18 81.50C48.24 81.50 43.56 81.58 38.38 81.14C39.82 83.16 40.68 86.40 40.82 88.34C45.36 88.63 50.26 88.78 52.99 88.42C56.02 87.98 57.96 87.19 59.90 84.60C63.14 80.64 64.01 68.54 65.09 34.20C65.16 33.19 65.16 30.53 65.16 30.53Z"/></svg>
