<svg xmlns="http://www.w3.org/2000/svg" xmlns:xlink="http://www.w3.org/1999/xlink" width="72.00000000000001" height="106.56000000000002"><path fill="red" stroke="red" d="M33.05 50.18L33.05 54.00L15.05 54.00L15.05 50.18ZM14.76 62.21C14.83 60.84 14.90 59.47 14.98 58.18L33.05 58.18L33.05 62.21ZM34.92 74.59L34.92 81.07L19.44 81.07L19.44 74.59ZM39.10 67.03L39.10 45.36L8.78 45.36L8.78 54.43C8.78 62.57 8.14 74.81 2.52 83.66C4.18 84.24 7.06 85.54 8.28 86.47C11.09 81.86 12.74 76.25 13.75 70.70L13.75 88.78L19.44 88.78L19.44 86.18L34.92 86.18L34.92 88.63L40.82 88.63L40.82 69.84L13.82 69.84C13.97 68.90 14.11 67.97 14.26 67.03ZM23.26 23.40C18.79 30.38 10.66 36.36 2.59 40.10C3.74 41.54 5.54 44.86 6.19 46.37C9.94 44.35 13.68 41.90 17.21 39.10L17.21 42.26L32.11 42.26L32.11 38.09L18.36 38.09C20.52 36.29 22.54 34.34 24.41 32.33C29.95 35.86 36.43 40.10 39.89 42.91L43.34 37.30C39.96 34.70 33.62 30.82 28.15 27.58C28.58 26.93 29.02 26.35 29.38 25.70ZM52.49 30.82L46.22 30.82L46.22 70.42L52.49 70.42ZM59.40 23.40L59.40 80.71C59.40 82.01 58.97 82.37 57.74 82.37C56.59 82.44 52.85 82.44 48.74 82.30C49.68 84.17 50.62 87.19 50.90 88.99C56.74 88.99 60.48 88.78 62.71 87.62C65.02 86.62 65.88 84.67 65.88 80.78L65.88 23.40Z"/></svg>
