<svg xmlns="http://www.w3.org/2000/svg" xmlns:xlink="http://www.w3.org/1999/xlink" width="72.00000000000001" height="106.56000000000002"><path fill="red" stroke="red" d="M41.47 32.76C40.18 30.38 37.30 27.07 34.56 24.62L29.95 27.36C32.54 29.81 35.35 33.41 36.65 35.86ZM48.46 63.72C48.74 61.49 48.96 59.04 49.10 56.52L42.91 56.52C42.77 59.04 42.62 61.49 42.26 63.72L33.84 63.72C38.02 60.70 41.33 57.10 43.85 52.70L51.48 52.70C54.14 56.88 58.10 60.91 62.28 63.72ZM12.60 56.95C12.67 55.22 12.67 53.57 12.67 51.98L12.67 47.88L20.02 47.88L20.02 56.95ZM20.02 32.62L20.02 41.98L12.67 41.98L12.67 32.62ZM68.54 52.70L68.54 47.16L46.58 47.16C47.23 45.36 47.88 43.49 48.46 41.47L65.66 41.47L65.66 36.00L58.54 36.00C60.91 33.34 63.22 29.88 65.02 26.28L59.69 24.62C58.10 27.50 55.58 31.18 52.99 33.70C53.78 34.20 55.08 35.14 56.16 36.00L49.75 36.00C50.47 32.18 51.05 28.08 51.41 23.62L45.22 23.26C44.93 27.94 44.42 32.11 43.70 36.00L30.02 36.00L30.02 41.47L42.26 41.47C41.62 43.49 40.97 45.36 40.10 47.16L27.50 47.16L27.50 52.70L36.72 52.70C33.98 56.30 30.46 59.11 25.92 61.34L25.92 26.50L6.98 26.50L6.98 52.06C6.98 62.35 6.70 76.54 2.81 86.62C4.25 87.12 6.91 88.49 7.99 89.50C10.94 82.08 12.02 71.93 12.46 62.78L20.02 62.78L20.02 81.65C20.02 82.51 19.73 82.80 18.94 82.80C18.22 82.80 15.84 82.80 13.39 82.73C14.18 84.38 14.98 87.26 15.12 88.92C19.22 88.92 21.74 88.78 23.62 87.70C25.49 86.62 25.92 84.74 25.92 81.72L25.92 63.43C27.07 64.58 28.22 65.95 28.80 66.82C30.17 66.10 31.32 65.38 32.54 64.58L32.54 69.26L41.26 69.26C39.46 75.96 35.64 81.00 27.29 84.17C28.58 85.25 30.31 87.62 31.03 89.21C41.26 84.96 45.58 78.26 47.59 69.26L56.45 69.26C55.87 77.98 55.22 81.50 54.22 82.58C53.78 83.23 53.14 83.30 52.06 83.30C50.98 83.30 48.31 83.23 45.50 82.94C46.44 84.53 47.09 86.83 47.16 88.56C50.40 88.70 53.42 88.70 55.08 88.49C57.02 88.27 58.32 87.77 59.54 86.47C61.27 84.53 62.06 79.27 62.78 66.24C62.86 65.66 62.86 64.73 62.93 64.15C63.94 64.80 64.87 65.30 65.88 65.81C66.82 64.51 68.62 62.28 69.98 61.20C65.66 59.47 61.27 56.23 58.18 52.70Z"/></svg>
