<svg xmlns="http://www.w3.org/2000/svg" xmlns:xlink="http://www.w3.org/1999/xlink" width="72.00000000000001" height="106.56000000000002"><path fill="red" stroke="red" d="M44.50 35.71L51.12 35.71L51.12 32.76L67.61 32.76L67.61 27.65L51.12 27.65L51.12 23.11L44.50 23.11L44.50 27.65L37.37 27.65L37.37 32.76L44.50 32.76ZM20.74 35.71L27.22 35.71L27.22 32.76L35.06 32.76L35.06 27.65L27.22 27.65L27.22 23.11L20.74 23.11L20.74 27.65L4.68 27.65L4.68 32.76L20.74 32.76ZM36.36 71.35C36.79 69.91 37.08 68.40 37.30 66.82L31.10 66.82C30.89 68.40 30.53 69.91 30.10 71.35L18.94 71.35C21.60 69.62 23.90 67.61 25.92 65.59L45.86 65.59C47.66 67.61 49.82 69.62 52.20 71.35ZM18.79 48.74L53.35 48.74L53.35 52.63L18.79 52.63ZM18.79 40.90L53.35 40.90L53.35 44.78L18.79 44.78ZM67.82 65.59L67.82 60.34L30.31 60.34C31.03 59.18 31.75 58.03 32.33 56.81L60.05 56.81L60.05 36.72L12.38 36.72L12.38 56.81L25.20 56.81C24.55 58.03 23.83 59.18 22.90 60.34L4.25 60.34L4.25 65.59L17.21 65.59C13.46 68.40 8.50 70.85 2.45 72.79C3.67 73.80 5.54 76.03 6.26 77.54C9.36 76.39 12.24 75.17 14.76 73.80L14.76 76.32L27.72 76.32C24.84 80.14 19.73 82.73 10.08 84.38C11.23 85.54 12.67 87.84 13.25 89.35C25.63 86.83 31.61 82.66 34.63 76.32L49.46 76.32C48.96 80.86 48.31 82.94 47.59 83.66C47.09 84.17 46.44 84.24 45.22 84.24C44.14 84.24 40.97 84.17 37.87 83.95C38.74 85.39 39.46 87.55 39.53 89.14C42.98 89.35 46.22 89.35 47.95 89.14C49.97 89.06 51.34 88.63 52.56 87.34C54.22 85.82 55.01 82.08 55.80 73.80C58.90 75.67 62.28 77.26 65.59 78.34C66.60 76.68 68.47 74.16 69.91 73.01C64.15 71.50 58.10 68.83 53.78 65.59Z"/></svg>
