<svg xmlns="http://www.w3.org/2000/svg" xmlns:xlink="http://www.w3.org/1999/xlink" width="72.00000000000001" height="106.56000000000002"><path fill="red" stroke="red" d="M22.68 34.13C23.90 31.10 25.06 27.94 26.06 24.77L19.08 23.11C15.62 35.28 9.65 46.87 2.23 54.07C3.96 55.08 6.91 57.31 8.21 58.39C12.38 53.78 16.42 47.59 19.80 40.68L28.30 40.68C23.62 55.73 16.06 68.54 5.54 76.61C7.13 77.62 9.94 79.99 11.16 81.22C21.89 72.00 30.10 57.74 35.42 40.68L44.57 40.68C40.97 59.54 34.49 75.10 22.97 84.38C24.62 85.39 27.65 87.70 28.80 88.78C40.46 78.19 47.38 61.49 51.48 40.68L59.69 40.68C58.61 67.90 57.24 78.55 54.86 81.00C54.14 82.08 53.28 82.30 51.91 82.30C50.26 82.30 46.58 82.30 42.41 81.86C43.56 83.81 44.35 86.69 44.50 88.56C48.46 88.78 52.49 88.85 54.86 88.56C57.53 88.20 59.26 87.48 61.06 85.10C64.01 81.50 65.23 69.98 66.60 37.51C66.67 36.58 66.74 34.13 66.74 34.13Z"/></svg>
