<svg xmlns="http://www.w3.org/2000/svg" xmlns:xlink="http://www.w3.org/1999/xlink" width="72.00000000000001" height="106.56000000000002"><path fill="red" stroke="red" d="M13.75 80.06L13.75 32.18L66.74 32.18L66.74 26.14L7.06 26.14L7.06 86.11L68.62 86.11L68.62 80.06ZM43.06 34.49L43.06 77.83L49.32 77.83L49.32 66.67L65.16 66.67L65.16 61.34L49.32 61.34L49.32 56.09L61.85 56.09L61.85 50.76L49.32 50.76L49.32 45.72L64.01 45.72L64.01 40.46L49.32 40.46L49.32 34.49ZM36.65 34.42L30.60 34.42L30.60 40.46L16.56 40.46L16.56 45.72L30.60 45.72L30.60 50.76L18.36 50.76L18.36 56.09L30.60 56.09C30.60 57.53 30.46 58.90 30.31 60.34C24.62 61.49 19.22 62.64 15.26 63.22L17.21 68.90L28.87 65.66C27.43 69.05 24.77 72.14 20.09 74.52C21.46 75.38 23.47 77.47 24.34 78.62C35.06 73.51 36.65 64.58 36.65 55.30Z"/></svg>
