<svg xmlns="http://www.w3.org/2000/svg" xmlns:xlink="http://www.w3.org/1999/xlink" width="72.00000000000001" height="106.56000000000002"><path fill="red" stroke="red" d="M14.04 54.29L32.98 54.29L32.98 47.81L14.04 47.81L14.04 35.86C20.74 34.27 27.79 32.40 33.48 30.02L28.22 24.70C23.26 27.14 14.83 29.74 7.42 31.54L7.42 73.94C6.26 74.23 5.18 74.52 4.18 74.81L5.62 81.43C13.54 78.91 24.26 75.53 34.34 72.14L33.34 66.24C26.78 68.26 19.94 70.34 14.04 72.07ZM66.31 28.08L37.37 28.08L37.37 88.99L44.14 88.99L44.14 34.70L59.62 34.70L59.62 70.20C59.62 71.28 59.26 71.64 58.10 71.64C57.02 71.71 53.28 71.71 49.39 71.57C50.47 73.44 51.70 76.75 51.98 78.70C57.10 78.70 60.77 78.55 63.22 77.26C65.66 76.18 66.31 73.87 66.31 70.34Z"/></svg>
