<svg xmlns="http://www.w3.org/2000/svg" xmlns:xlink="http://www.w3.org/1999/xlink" width="72.00000000000001" height="106.56000000000002"><path fill="red" stroke="red" d="M21.89 59.69C24.19 57.67 26.28 55.44 28.22 53.14L43.42 53.14C45.07 55.51 47.09 57.74 49.25 59.69ZM67.61 53.14L67.61 47.23L32.47 47.23C33.77 45.00 34.99 42.77 36.07 40.39L62.78 40.39L62.78 34.56L52.78 34.56C54.58 32.18 56.52 29.38 58.18 26.64L51.98 24.70C50.69 27.65 48.24 31.61 46.15 34.56L38.38 34.56C39.60 30.96 40.39 27.29 41.04 23.54L34.06 22.82C33.55 26.71 32.69 30.67 31.25 34.56L23.33 34.56L26.21 32.90C25.06 30.53 22.39 27.00 20.02 24.41L14.90 27.22C16.70 29.38 18.79 32.33 19.94 34.56L9.00 34.56L9.00 40.39L28.73 40.39C27.50 42.77 26.14 45.00 24.41 47.23L4.61 47.23L4.61 53.14L19.22 53.14C14.76 57.38 9.29 61.06 2.52 63.86C4.03 65.09 5.98 67.61 6.70 69.34C10.87 67.39 14.54 65.23 17.86 62.86L17.86 79.20C17.86 86.54 20.81 88.27 30.74 88.27L49.82 88.27C58.32 88.27 60.55 85.82 61.49 76.10C59.69 75.67 56.95 74.66 55.37 73.66C54.79 81.14 54.14 82.37 49.46 82.37L31.03 82.37C25.42 82.37 24.41 81.86 24.41 79.13L24.41 65.45L44.14 65.45C43.78 69.19 43.34 70.92 42.70 71.57C42.12 72.00 41.54 72.14 40.32 72.14C39.17 72.14 35.93 72.07 32.62 71.78C33.48 73.22 34.13 75.38 34.20 76.97C38.02 77.18 41.54 77.18 43.49 77.04C45.43 76.90 47.02 76.46 48.24 75.17C49.75 73.66 50.47 70.06 50.98 62.06C51.05 61.85 51.05 61.56 51.05 61.27C55.37 64.73 60.34 67.46 65.66 69.34C66.67 67.61 68.54 65.09 70.06 63.86C62.71 61.85 55.87 58.03 51.05 53.14Z"/></svg>
