<svg xmlns="http://www.w3.org/2000/svg" xmlns:xlink="http://www.w3.org/1999/xlink" width="72.00000000000001" height="106.56000000000002"><path fill="red" stroke="red" d="M66.89 32.47L66.89 26.06L10.22 26.06L10.22 47.16C10.22 58.54 9.58 74.66 2.59 85.75C4.32 86.40 7.34 88.13 8.64 89.28C15.98 77.47 17.14 59.40 17.14 47.16L17.14 32.47ZM37.51 81.14C31.90 81.14 30.89 80.35 30.89 76.39L30.89 46.30L53.35 46.30L53.35 60.62C53.35 61.78 52.92 62.06 51.41 62.14C49.82 62.21 44.14 62.28 38.66 61.99C39.67 63.79 40.82 66.53 41.18 68.33C48.17 68.33 52.99 68.33 56.02 67.32C59.04 66.38 59.98 64.44 59.98 60.77L59.98 39.89L24.05 39.89L24.05 76.39C24.05 85.32 27.14 87.48 37.22 87.48L56.52 87.48C65.74 87.48 68.04 84.17 69.12 73.30C67.25 72.86 64.37 71.71 62.71 70.56C61.99 79.27 61.20 81.14 56.16 81.14Z"/></svg>
