<svg xmlns="http://www.w3.org/2000/svg" xmlns:xlink="http://www.w3.org/1999/xlink" width="72.00000000000001" height="106.56000000000002"><path fill="red" stroke="red" d="M53.42 65.30L53.42 80.21L19.51 80.21L19.51 65.30ZM12.74 89.28L19.51 89.28L19.51 86.33L53.42 86.33L53.42 89.14L60.55 89.14L60.55 59.18L12.74 59.18ZM7.56 27.50L7.56 33.70L27.86 33.70C25.34 42.26 20.09 50.76 2.88 55.15C4.32 56.59 6.05 59.26 6.77 60.91C25.99 55.44 32.33 44.93 35.28 33.70L55.51 33.70C54.65 43.78 53.71 48.10 52.27 49.46C51.48 50.11 50.69 50.18 49.32 50.18C47.66 50.18 43.56 50.18 39.31 49.75C40.46 51.55 41.18 54.14 41.33 55.94C45.72 56.16 49.97 56.16 52.20 56.02C54.65 55.80 56.45 55.22 58.03 53.64C60.34 51.34 61.42 45.14 62.57 30.31C62.64 29.38 62.71 27.50 62.71 27.50Z"/></svg>
