<svg xmlns="http://www.w3.org/2000/svg" xmlns:xlink="http://www.w3.org/1999/xlink" width="72.00000000000001" height="106.56000000000002"><path fill="red" stroke="red" d="M50.40 69.26L50.40 80.42L21.46 80.42L21.46 69.26ZM14.69 89.35L21.46 89.35L21.46 86.33L50.40 86.33L50.40 89.14L57.53 89.14L57.53 63.22L14.69 63.22ZM24.34 36.14L49.10 36.14C45.72 39.96 41.33 43.34 36.43 46.37C31.61 43.42 27.43 40.03 24.12 36.43ZM55.30 29.95L54.14 30.31L29.30 30.31C30.67 28.51 31.97 26.57 33.12 24.70L26.78 22.46C21.74 31.18 13.03 39.10 4.03 43.99C5.54 45.14 7.99 47.66 9.07 48.96C12.74 46.66 16.34 43.85 19.80 40.68C22.97 43.99 26.42 47.09 30.31 49.82C21.46 54.22 11.59 57.46 2.30 59.33C3.53 60.77 4.97 63.58 5.62 65.30C15.98 63.00 26.86 59.18 36.43 53.86C45.07 58.97 55.08 62.78 65.52 64.94C66.38 63.14 68.33 60.34 69.84 58.75C60.19 57.10 50.90 54.00 42.84 49.97C49.90 45.29 55.87 39.60 59.98 33.05Z"/></svg>
