<svg xmlns="http://www.w3.org/2000/svg" xmlns:xlink="http://www.w3.org/1999/xlink" width="72.00000000000001" height="106.56000000000002"><path fill="red" stroke="red" d="M15.98 57.02L15.98 47.66L32.69 47.66L32.69 55.87L32.69 57.02ZM56.66 47.66L56.66 57.02L39.38 57.02L39.38 55.94L39.38 47.66ZM63.36 62.86L63.36 41.90L39.38 41.90L39.38 35.78L67.10 35.78L67.10 29.59L39.38 29.59L39.38 23.11L32.69 23.11L32.69 29.59L5.33 29.59L5.33 35.78L32.69 35.78L32.69 41.90L9.65 41.90L9.65 62.86L32.33 62.86C31.75 66.89 30.46 70.56 27.43 73.73C23.90 71.14 20.88 67.82 18.43 63.43L12.53 65.66C15.12 70.70 18.29 74.66 22.10 77.83C17.78 80.28 11.81 82.22 3.38 83.59C4.68 85.03 6.55 87.91 7.27 89.42C16.42 87.55 23.04 84.89 27.79 81.65C37.44 86.90 50.33 88.70 66.74 89.50C67.10 87.19 68.47 84.31 69.70 82.66C53.93 82.30 41.98 81.14 33.05 76.97C36.65 72.79 38.30 68.04 38.95 62.86Z"/></svg>
