<svg xmlns="http://www.w3.org/2000/svg" xmlns:xlink="http://www.w3.org/1999/xlink" width="72.00000000000001" height="106.56000000000002"><path fill="red" stroke="red" d="M22.25 60.26C25.49 56.95 28.22 53.35 30.53 49.39L41.26 49.39C43.56 53.28 46.58 57.02 50.11 60.26ZM21.46 79.85L21.46 66.46L50.54 66.46L50.54 79.85ZM68.18 49.39L68.18 43.20L33.91 43.20C35.35 39.96 36.65 36.50 37.80 33.05L64.15 33.05L64.15 26.93L8.21 26.93L8.21 33.05L30.31 33.05C29.23 36.50 27.86 39.96 26.21 43.20L3.89 43.20L3.89 49.39L22.46 49.39C17.64 56.23 11.09 61.92 2.45 65.66C3.60 67.18 5.33 69.91 6.05 71.50C9.14 70.13 11.95 68.47 14.54 66.74L14.54 89.14L21.46 89.14L21.46 86.04L50.54 86.04L50.54 88.92L57.74 88.92L57.74 66.02C60.62 67.90 63.72 69.48 66.96 70.78C67.46 68.76 68.62 65.66 69.77 63.94C61.13 61.27 53.50 55.87 48.67 49.39Z"/></svg>
