<svg xmlns="http://www.w3.org/2000/svg" xmlns:xlink="http://www.w3.org/1999/xlink" width="72.00000000000001" height="106.56000000000002"><path fill="red" stroke="red" d="M20.66 36.86L20.66 64.30L11.52 64.30L11.52 36.86ZM26.86 30.60L5.33 30.60L5.33 76.82L11.52 76.82L11.52 70.49L26.86 70.49ZM59.18 79.13L39.60 79.13L39.60 64.58L59.18 64.58ZM68.98 44.42L68.98 38.02L51.98 38.02L51.98 23.47L45.29 23.47L45.29 38.02L30.31 38.02L30.31 44.42L45.29 44.42L45.29 58.39L32.98 58.39L32.98 89.14L39.60 89.14L39.60 85.25L59.18 85.25L59.18 88.49L66.02 88.49L66.02 58.39L51.98 58.39L51.98 44.42Z"/></svg>
