<svg xmlns="http://www.w3.org/2000/svg" xmlns:xlink="http://www.w3.org/1999/xlink" width="72.00000000000001" height="106.56000000000002"><path fill="red" stroke="red" d="M15.84 35.86L15.84 64.30L10.44 64.30L10.44 35.86ZM21.10 70.42L21.10 29.74L5.33 29.74L5.33 77.33L10.44 77.33L10.44 70.42ZM33.84 60.19C34.27 56.16 34.42 52.34 34.42 48.89L39.53 48.89C39.46 53.14 39.46 56.88 39.38 60.19ZM34.42 32.18L39.60 32.18L39.53 43.20L34.42 43.20ZM23.47 26.50L23.47 32.18L29.02 32.18L29.02 43.20L23.47 43.20L23.47 48.89L29.02 48.89C29.02 52.42 28.87 56.23 28.44 60.19L23.40 60.19L23.40 65.88L27.65 65.88C26.35 72.79 23.76 79.63 18.94 85.32C20.09 86.04 22.18 88.20 22.97 89.42C28.73 82.87 31.61 74.30 33.05 65.88L39.31 65.88C39.10 76.10 38.66 80.50 38.02 81.86C37.44 83.09 37.01 83.30 36.07 83.30C34.92 83.30 32.98 83.30 30.67 83.09C31.54 84.74 32.11 87.34 32.26 88.99C34.70 89.14 37.01 89.14 38.81 88.78C40.68 88.49 41.83 87.84 43.06 85.68C44.86 82.51 44.86 69.55 45.00 29.66C45.07 28.87 45.07 26.50 45.07 26.50ZM64.37 26.28L63.50 26.50L48.96 26.50L48.96 89.28L54.58 89.28L54.58 31.97L61.70 31.97C60.48 37.66 58.68 45.79 56.95 51.62C61.20 57.82 61.99 63.07 61.99 67.32C61.99 69.84 61.78 71.93 60.84 72.79C60.34 73.30 59.69 73.44 58.97 73.51C58.18 73.51 57.10 73.51 56.02 73.44C56.88 75.10 57.24 77.54 57.24 79.06C58.75 79.13 60.12 79.13 61.20 78.98C62.71 78.77 63.86 78.34 64.80 77.54C66.74 76.03 67.54 72.72 67.54 68.18C67.54 63.22 66.60 57.60 62.28 51.05C64.30 44.71 66.67 35.57 68.47 28.66Z"/></svg>
