<svg xmlns="http://www.w3.org/2000/svg" xmlns:xlink="http://www.w3.org/1999/xlink" width="72.00000000000001" height="106.56000000000002"><path fill="red" stroke="red" d="M25.49 42.26L13.90 42.26L13.90 32.18L25.49 32.18ZM31.90 26.42L7.78 26.42L7.78 48.02L31.90 48.02ZM57.67 42.26L44.86 42.26L44.86 32.33L57.67 32.33ZM64.22 26.57L38.66 26.57L38.66 48.02L64.22 48.02ZM68.69 65.30L68.69 59.04L58.97 59.04L62.21 55.73C59.47 53.35 54.22 50.04 50.11 48.02L45.79 52.27C49.25 54.07 53.35 56.81 56.09 59.04L38.02 59.04C38.59 55.87 38.95 52.42 39.24 48.89L31.97 48.89C31.68 52.49 31.39 55.87 30.82 59.04L3.10 59.04L3.10 65.30L29.16 65.30C25.99 73.73 19.08 79.85 2.59 83.30C4.03 84.74 5.83 87.62 6.41 89.42C24.77 85.03 32.54 77.33 36.14 66.82C41.54 78.84 50.47 85.82 65.59 88.85C66.46 86.83 68.47 83.81 69.91 82.30C56.02 80.21 47.23 74.59 42.34 65.30Z"/></svg>
