<svg xmlns="http://www.w3.org/2000/svg" xmlns:xlink="http://www.w3.org/1999/xlink" width="72.00000000000001" height="106.56000000000002"><path fill="red" stroke="red" d="M17.71 35.86L17.71 64.22L11.23 64.22L11.23 35.86ZM23.18 70.42L23.18 29.66L5.62 29.66L5.62 77.04L11.23 77.04L11.23 70.42ZM34.99 66.74L34.99 58.25C36.36 59.04 38.02 60.34 38.88 61.13C41.54 59.04 44.28 56.45 46.51 53.42C50.11 55.73 54.07 58.61 56.16 60.70L58.82 57.60L58.82 66.74L49.39 66.74C49.75 64.80 49.97 62.71 50.18 60.55L43.70 60.55C43.49 62.78 43.27 64.87 42.91 66.74ZM49.46 33.98C48.38 36.22 47.02 38.45 45.65 40.25L34.92 40.25C36.58 38.16 38.02 36.14 39.38 33.98ZM45.43 45.65C43.20 50.33 39.31 54.58 34.99 57.67L34.99 45.65ZM58.82 56.59C56.52 54.50 52.49 51.84 48.96 49.75C49.68 48.60 50.33 47.38 50.90 46.15L48.96 45.65L58.82 45.65ZM69.05 72.14L69.05 66.74L64.66 66.74L64.66 40.25L52.27 40.25C54.29 37.30 56.38 33.98 57.74 31.10L53.64 28.44L52.70 28.73L42.34 28.73C43.13 27.22 43.85 25.70 44.50 24.19L38.09 23.26C35.64 29.52 30.82 37.15 23.69 42.91C24.98 43.85 26.86 46.01 27.72 47.38C28.30 47.02 28.87 46.51 29.38 46.01L29.38 66.74L23.90 66.74L23.90 72.14L41.33 72.14C38.74 77.90 33.41 81.65 21.74 83.95C23.04 85.10 24.55 87.55 25.06 89.14C39.38 86.04 45.36 80.57 48.17 72.14ZM48.74 76.25C54.14 80.28 61.56 85.97 65.09 89.35L69.41 85.10C65.59 81.79 58.10 76.39 52.78 72.65Z"/></svg>
