<svg xmlns="http://www.w3.org/2000/svg" xmlns:xlink="http://www.w3.org/1999/xlink" width="72.00000000000001" height="106.56000000000002"><path fill="red" stroke="red" d="M52.70 71.93L52.70 75.46L19.73 75.46L19.73 71.93ZM19.73 83.09L19.73 79.34L52.70 79.34L52.70 83.09ZM13.39 89.28L19.73 89.28L19.73 87.48L52.70 87.48L52.70 89.21L59.33 89.21L59.33 67.54L13.39 67.54ZM22.90 42.55L48.82 42.55L48.82 46.44L22.90 46.44ZM21.74 60.12C17.64 60.12 16.78 59.33 16.70 57.24L60.12 57.24L60.12 52.92L16.70 52.92L16.70 50.18L55.44 50.18L55.44 38.81L16.70 38.81L16.70 49.32L10.80 49.32L10.80 56.95C10.80 62.35 13.10 64.58 21.67 64.58L51.48 64.58C56.38 64.58 61.85 64.51 64.01 64.01C63.79 62.93 63.50 61.34 63.22 59.47C60.91 59.90 54.14 60.12 50.26 60.12ZM54.65 30.96C56.23 29.30 58.18 27.29 59.98 25.06L53.14 23.26C51.98 25.34 49.82 28.22 48.10 30.17L50.69 30.96L39.31 30.96L39.31 23.11L32.54 23.11L32.54 30.96L20.95 30.96L23.69 29.95C22.61 28.15 20.52 25.49 18.58 23.47L12.46 25.27C13.97 26.93 15.55 29.16 16.63 30.96L5.90 30.96L5.90 43.92L12.17 43.92L12.17 35.64L59.76 35.64L59.76 43.92L66.24 43.92L66.24 30.96Z"/></svg>
