<svg xmlns="http://www.w3.org/2000/svg" xmlns:xlink="http://www.w3.org/1999/xlink" width="72.00000000000001" height="106.56000000000002"><path fill="red" stroke="red" d="M43.70 38.02L49.90 38.02L49.90 32.98L65.95 32.98L65.95 28.30L49.90 28.30L49.90 23.18L43.70 23.18L43.70 28.30L27.79 28.30L27.79 32.98L43.70 32.98ZM33.12 48.02L38.81 48.02L38.81 44.35L54.58 44.35L54.58 48.02L60.34 48.02L60.34 44.35L69.12 44.35L69.12 39.67L60.34 39.67L60.34 34.85L54.58 34.85L54.58 39.67L38.81 39.67L38.81 34.85L33.12 34.85L33.12 39.67L24.77 39.67L24.77 44.35L33.12 44.35ZM18.00 36.50L18.00 63.58L11.02 63.58L11.02 36.50ZM23.76 69.48L23.76 30.46L5.47 30.46L5.47 75.31L11.02 75.31L11.02 69.48ZM35.21 69.55L58.03 69.55L58.03 73.80L35.21 73.80ZM35.21 61.49L58.03 61.49L58.03 65.66L35.21 65.66ZM35.21 53.42L58.03 53.42L58.03 57.60L35.21 57.60ZM64.37 77.83L64.37 49.39L29.16 49.39L29.16 77.83L36.58 77.83C32.69 80.57 26.06 83.02 20.09 84.60C21.46 85.68 23.76 88.13 24.84 89.42C30.96 87.26 38.38 83.81 43.06 79.92L37.44 77.83L53.35 77.83L49.82 80.64C55.15 83.16 60.84 86.69 64.01 89.21L69.62 85.68C66.24 83.38 60.62 80.28 55.51 77.83Z"/></svg>
