<svg xmlns="http://www.w3.org/2000/svg" xmlns:xlink="http://www.w3.org/1999/xlink" width="72.00000000000001" height="106.56000000000002"><path fill="red" stroke="red" d="M55.66 73.08C51.98 67.32 44.64 58.54 37.87 51.77C39.31 46.01 39.96 40.10 40.46 34.78L33.98 34.78C32.90 47.02 31.18 64.30 15.34 72.65C16.85 73.80 18.58 75.89 19.44 77.40C27.94 72.65 32.83 65.66 35.78 58.10C41.47 64.44 47.16 71.64 50.18 76.61ZM12.74 79.63L12.74 32.90L59.18 32.90L59.18 79.63ZM6.12 26.50L6.12 89.21L12.74 89.21L12.74 86.04L59.18 86.04L59.18 89.21L66.17 89.21L66.17 26.50Z"/></svg>
