<svg xmlns="http://www.w3.org/2000/svg" xmlns:xlink="http://www.w3.org/1999/xlink" width="72.00000000000001" height="106.56000000000002"><path fill="red" stroke="red" d="M48.17 56.45L38.59 56.45L38.59 52.49L48.17 52.49ZM38.59 64.44L38.59 60.70L48.17 60.70L48.17 64.44ZM23.98 64.44L23.98 60.70L33.41 60.70L33.41 64.44ZM33.41 52.49L33.41 56.45L23.98 56.45L23.98 52.49ZM56.59 44.21L56.59 39.53L51.34 39.53L52.92 37.80C51.12 36.58 47.66 34.63 45.07 33.48L42.41 35.93C44.42 36.94 46.80 38.30 48.67 39.53L39.02 39.53L39.02 33.84L32.98 33.84L32.98 39.53L15.98 39.53L15.98 44.21L32.98 44.21L32.98 48.10L18.58 48.10L18.58 78.05L23.98 78.05L23.98 68.69L33.41 68.69L33.41 77.62L38.59 77.62L38.59 68.69L48.17 68.69L48.17 73.15C48.17 73.80 47.95 74.02 47.23 74.02C46.58 74.09 44.35 74.09 42.12 74.02C42.77 75.17 43.42 76.82 43.70 78.12C47.38 78.12 49.90 78.12 51.62 77.40C53.21 76.68 53.71 75.60 53.71 73.15L53.71 48.10L39.02 48.10L39.02 44.21ZM12.24 80.93L12.24 31.61L59.76 31.61L59.76 80.93ZM5.98 25.85L5.98 89.14L12.24 89.14L12.24 86.47L59.76 86.47L59.76 89.14L66.24 89.14L66.24 25.85Z"/></svg>
