<svg xmlns="http://www.w3.org/2000/svg" xmlns:xlink="http://www.w3.org/1999/xlink" width="72.00000000000001" height="106.56000000000002"><path fill="red" stroke="red" d="M17.35 66.82L17.35 46.37L23.90 46.37L23.90 40.03L17.35 40.03L17.35 23.98L11.23 23.98L11.23 40.03L3.82 40.03L3.82 46.37L11.23 46.37L11.23 68.98C7.99 70.06 4.97 71.06 2.52 71.86L4.97 78.62C10.94 76.32 18.43 73.37 25.56 70.27L24.48 64.30ZM69.05 58.25L50.11 58.25L50.11 32.98L67.18 32.98L67.18 26.57L26.57 26.57L26.57 32.98L43.42 32.98L43.42 58.25L24.55 58.25L24.55 64.58L43.42 64.58L43.42 89.14L50.11 89.14L50.11 64.58L69.05 64.58ZM28.73 37.87C30.53 43.42 32.11 50.54 32.54 55.15L38.16 53.71C37.66 49.03 36.07 41.98 34.06 36.50ZM59.83 55.01C61.63 50.62 63.72 43.56 65.52 37.44L59.18 36.07C58.32 41.47 56.38 48.96 54.72 53.71Z"/></svg>
