<svg xmlns="http://www.w3.org/2000/svg" xmlns:xlink="http://www.w3.org/1999/xlink" width="72.00000000000001" height="106.56000000000002"><path fill="red" stroke="red" d="M25.13 70.20L50.11 70.20C46.73 73.22 42.34 75.74 37.37 77.69C32.18 75.96 27.72 73.80 23.98 71.14ZM18.79 54.43L53.14 54.43L53.14 58.03L18.79 58.03ZM18.79 46.80L53.14 46.80L53.14 50.40L18.79 50.40ZM18.79 39.24L53.14 39.24L53.14 42.77L18.79 42.77ZM55.94 65.16L54.79 65.45L29.74 65.45C30.67 64.30 31.46 63.22 32.33 62.06L59.83 62.06L59.83 35.21L37.73 35.21C38.16 34.13 38.59 32.98 39.10 31.68L66.38 31.68L66.38 26.21L5.69 26.21L5.69 31.68L31.75 31.68C31.46 32.83 31.25 34.06 30.96 35.21L12.31 35.21L12.31 62.06L24.77 62.06C23.47 63.79 21.67 65.66 19.58 67.39C18.43 66.24 17.42 65.09 16.63 63.79L11.74 65.81C12.89 67.46 14.11 68.90 15.48 70.34C12.74 72.07 9.65 73.66 6.19 75.10C7.56 76.03 9.50 78.19 10.37 79.63C13.90 77.98 17.06 76.25 19.87 74.30C22.75 76.61 25.92 78.55 29.45 80.28C22.03 82.22 13.90 83.38 5.83 83.95C6.77 85.32 7.78 87.55 8.21 89.14C18.22 88.13 28.30 86.40 37.30 83.30C45.43 85.97 54.86 87.55 65.45 88.27C66.17 86.69 67.54 84.31 68.69 82.94C60.19 82.51 52.27 81.50 45.29 79.92C51.41 76.82 56.45 72.79 59.90 67.75Z"/></svg>
