<svg xmlns="http://www.w3.org/2000/svg" xmlns:xlink="http://www.w3.org/1999/xlink" width="72.00000000000001" height="106.56000000000002"><path fill="red" stroke="red" d="M67.90 48.46L67.90 41.62L38.74 41.62C39.38 35.06 39.46 28.73 39.53 23.11L32.26 23.11C32.18 28.66 32.26 34.99 31.61 41.62L4.61 41.62L4.61 48.46L30.60 48.46C27.94 62.14 21.10 75.82 2.74 83.59C4.61 85.03 6.70 87.41 7.70 89.21C15.62 85.61 21.53 81.00 25.99 75.60C30.46 79.70 35.64 85.18 38.02 88.70L43.99 84.31C41.11 80.50 35.21 74.88 30.53 70.92L28.51 72.29C32.54 66.53 35.06 60.19 36.72 53.71C42.12 69.98 50.98 82.51 64.73 89.28C65.81 87.34 68.11 84.53 69.70 83.09C55.80 77.11 46.80 64.15 41.90 48.46Z"/></svg>
