<svg xmlns="http://www.w3.org/2000/svg" xmlns:xlink="http://www.w3.org/1999/xlink" width="72.00000000000001" height="106.56000000000002"><path fill="red" stroke="red" d="M38.02 69.62C46.30 75.38 57.38 83.88 62.71 89.06L67.54 83.59C61.99 78.55 50.54 70.42 42.48 64.94ZM40.18 39.31L54.14 39.31L54.14 56.30L39.53 56.30C40.03 52.99 40.18 49.61 40.18 46.22ZM18.65 56.30L18.65 39.31L33.41 39.31L33.41 46.15C33.41 49.54 33.19 52.92 32.54 56.30ZM61.20 56.30L61.20 32.76L40.18 32.76L40.18 23.18L33.41 23.18L33.41 32.76L11.95 32.76L11.95 56.30L4.18 56.30L4.18 62.86L30.67 62.86C27.29 71.14 19.80 78.62 3.74 83.38C4.97 84.74 6.77 87.55 7.42 89.21C26.71 83.23 34.85 73.58 38.16 62.86L68.04 62.86L68.04 56.30Z"/></svg>
