<svg xmlns="http://www.w3.org/2000/svg" xmlns:xlink="http://www.w3.org/1999/xlink" width="72.00000000000001" height="106.56000000000002"><path fill="red" stroke="red" d="M34.70 49.54L21.60 49.54L21.60 47.74C22.03 47.30 22.46 46.80 22.90 46.30L34.70 46.30ZM34.70 56.45L21.60 56.45L21.60 53.06L34.70 53.06ZM34.70 63.72L21.60 63.72L21.60 59.98L34.70 59.98ZM44.42 34.42C47.16 37.37 50.62 40.10 54.58 42.26L37.73 42.26L40.75 40.75C40.03 39.02 38.59 36.43 36.94 34.70L32.40 36.79C33.62 38.45 34.85 40.54 35.50 42.26L25.99 42.26C26.86 40.97 27.72 39.74 28.37 38.38L25.06 37.30C26.35 36.36 27.58 35.42 28.66 34.42ZM57.60 46.30L57.60 43.85C60.34 45.07 63.14 46.15 65.95 46.94C66.82 45.43 68.47 43.20 69.77 41.98C63.14 40.61 56.30 37.87 51.48 34.42L67.10 34.42L67.10 29.02L33.84 29.02C35.06 27.50 36.14 26.06 37.01 24.41L32.04 22.61C30.67 24.91 28.94 27.07 27.00 29.02L5.11 29.02L5.11 34.42L20.16 34.42C14.83 37.87 8.57 40.54 2.16 42.41C3.02 43.63 4.18 46.37 4.46 47.66C10.44 45.65 16.13 43.13 21.17 39.96C16.85 46.15 10.15 51.26 3.31 54.72C4.25 55.80 5.98 58.32 6.70 59.47C9.79 57.82 12.89 55.66 15.84 53.21L15.84 70.20L21.60 70.20L21.60 67.82L45.43 67.82L45.43 71.86L4.03 71.86L4.03 77.04L20.66 77.04L16.63 80.50C19.87 82.51 23.69 85.61 25.49 87.77L30.24 83.52C28.37 81.65 24.77 78.91 21.67 77.04L45.43 77.04L45.43 82.58C45.43 83.45 45.14 83.66 44.06 83.74C42.98 83.81 39.10 83.81 35.28 83.66C36.14 85.18 37.08 87.48 37.37 89.14C42.62 89.14 46.30 89.14 48.74 88.27C51.19 87.48 51.91 85.90 51.91 82.80L51.91 77.04L67.90 77.04L67.90 71.86L51.91 71.86L51.91 67.82L60.98 67.82L60.98 63.72L40.75 63.72L40.75 59.98L58.03 59.98L58.03 56.45L40.75 56.45L40.75 53.06L58.03 53.06L58.03 49.54L40.75 49.54L40.75 46.30Z"/></svg>
