<svg xmlns="http://www.w3.org/2000/svg" xmlns:xlink="http://www.w3.org/1999/xlink" width="72.00000000000001" height="106.56000000000002"><path fill="red" stroke="red" d="M44.93 72.29C42.91 74.52 40.39 76.39 37.37 77.83C32.98 76.97 28.44 76.18 23.83 75.38C24.77 74.38 25.70 73.44 26.71 72.29ZM38.74 50.11L53.78 50.11L53.78 54.00L38.74 54.00ZM38.74 41.40L53.78 41.40L53.78 45.07L38.74 45.07ZM38.74 58.68L60.41 58.68L60.41 50.11L68.18 50.11L68.18 45.07L60.41 45.07L60.41 36.72L38.74 36.72L38.74 32.90L66.02 32.90L66.02 27.79L38.74 27.79L38.74 23.11L32.11 23.11L32.11 27.79L5.54 27.79L5.54 32.90L32.11 32.90L32.11 36.72L11.23 36.72L11.23 41.40L32.11 41.40L32.11 45.07L3.82 45.07L3.82 50.11L32.11 50.11L32.11 54.00L10.80 54.00L10.80 58.68L32.11 58.68L32.11 61.85L27.43 60.62C26.21 62.64 24.70 64.87 23.04 67.03L4.68 67.03L4.68 72.29L18.79 72.29C16.78 74.52 14.76 76.61 12.89 78.41C18.07 79.27 23.11 80.06 27.86 81.00C21.67 82.37 14.11 83.16 5.04 83.45C5.90 84.89 6.91 87.12 7.34 89.06C20.81 88.27 31.25 86.69 39.17 83.30C48.02 85.18 55.66 87.19 61.34 88.99L66.60 84.60C61.06 82.94 53.93 81.29 45.94 79.56C48.67 77.54 51.05 75.17 52.92 72.29L67.61 72.29L67.61 67.03L55.66 67.03C55.94 66.31 56.23 65.52 56.52 64.80L50.11 63.43C49.68 64.73 49.10 65.88 48.53 67.03L30.82 67.03C31.97 65.45 33.12 63.86 33.98 62.35L32.98 62.06L38.74 62.06Z"/></svg>
