<svg xmlns="http://www.w3.org/2000/svg" xmlns:xlink="http://www.w3.org/1999/xlink" width="72.00000000000001" height="106.56000000000002"><path fill="red" stroke="red" d="M18.58 43.99C18.50 50.33 17.93 57.82 15.48 65.38C13.68 63.79 11.95 62.21 10.22 60.77C11.38 55.94 12.60 50.18 13.61 44.28ZM27.94 77.98C26.06 75.67 23.26 72.79 20.09 69.62C23.40 60.62 24.12 51.34 24.19 43.56L27.29 43.34L27.29 37.58L24.19 37.73L24.19 33.19L18.58 33.19L18.58 38.09L14.62 38.30C15.34 33.19 15.98 28.22 16.42 23.69L10.58 23.47C10.22 28.15 9.58 33.26 8.78 38.59C6.55 38.66 4.61 38.74 2.74 38.81L3.46 44.93L7.78 44.64C6.62 51.41 5.26 57.82 3.96 62.50C6.84 65.09 10.08 68.11 13.10 71.06C10.80 76.03 7.42 80.78 2.59 84.96C4.03 85.90 6.12 87.77 7.06 89.14C11.66 84.89 15.05 80.35 17.50 75.53C20.16 78.26 22.54 80.86 24.12 83.09ZM38.23 46.66C37.01 42.77 34.56 37.44 31.97 33.34L26.86 35.50C29.52 40.03 32.26 46.30 33.19 50.33L38.23 48.10L38.23 55.51L38.23 55.73C33.26 58.97 28.30 62.14 24.98 64.01L28.15 69.91C31.18 67.61 34.56 65.02 38.02 62.21C37.22 71.64 34.20 79.34 23.90 84.74C25.42 85.82 27.79 87.98 28.94 89.35C42.55 81.65 44.28 69.70 44.28 55.58L44.28 23.33L38.23 23.33ZM57.74 82.73C56.23 82.73 56.02 82.30 56.02 79.20L56.02 59.18C59.47 62.64 63.00 66.74 64.80 69.62L69.26 65.59C67.03 62.14 62.14 57.17 58.03 53.64L56.02 55.37L56.02 47.66L59.76 49.90C62.50 46.15 65.95 40.54 68.83 35.64L63.22 32.76C61.63 36.94 58.54 42.48 56.02 46.37L56.02 23.26L49.75 23.26L49.75 79.06C49.75 86.69 51.26 88.56 56.59 88.56L62.71 88.56C67.39 88.56 68.98 85.46 69.62 76.75C67.90 76.32 65.52 75.24 64.15 74.09C63.94 80.86 63.72 82.73 62.28 82.73Z"/></svg>
