<svg xmlns="http://www.w3.org/2000/svg" xmlns:xlink="http://www.w3.org/1999/xlink" width="72.00000000000001" height="106.56000000000002"><path fill="red" stroke="red" d="M19.94 44.14C19.80 50.40 19.08 57.74 16.34 65.09C14.62 63.36 12.74 61.63 11.09 60.12C12.17 55.51 13.18 50.11 14.11 44.50ZM25.85 33.26L20.02 33.26L20.02 38.38L15.05 38.66C15.77 33.55 16.42 28.44 16.85 23.83L10.66 23.47C10.37 28.22 9.72 33.62 8.93 38.95C6.70 39.02 4.61 39.10 2.66 39.17L3.31 45.22L8.06 44.93C6.98 51.34 5.62 57.46 4.46 62.06C7.34 64.80 10.58 67.97 13.61 71.06C11.09 75.89 7.49 80.57 2.45 84.67C3.82 85.61 5.90 87.55 6.91 88.99C11.74 84.89 15.26 80.42 18.00 75.82C20.38 78.34 22.32 80.71 23.76 82.73L28.15 77.69C26.50 75.46 23.98 72.65 21.10 69.62C24.70 60.70 25.63 51.48 25.85 43.78L28.73 43.56L28.73 37.87L25.85 38.02ZM36.07 79.13L36.07 73.73C37.37 74.66 39.02 76.25 39.82 77.26C44.57 72.43 47.38 66.82 48.89 61.20C51.91 66.53 54.65 72.07 56.02 75.82L60.55 73.15C58.61 68.26 54.22 60.48 50.33 54.07C50.47 53.21 50.54 52.20 50.62 51.26L59.54 51.26L59.54 45.79L50.90 45.79L50.90 43.92L50.90 34.49L45.65 34.49L45.65 43.78L45.65 45.79L37.44 45.79L37.44 51.26L45.36 51.26C44.64 58.61 42.55 66.46 36.07 73.15L36.07 32.40L60.91 32.40L60.91 79.13ZM30.17 26.35L30.17 89.35L36.07 89.35L36.07 85.10L60.91 85.10L60.91 88.78L67.03 88.78L67.03 26.35Z"/></svg>
