<svg xmlns="http://www.w3.org/2000/svg" xmlns:xlink="http://www.w3.org/1999/xlink" width="72.00000000000001" height="106.56000000000002"><path fill="red" stroke="red" d="M18.86 42.91C18.72 49.61 18.00 57.67 14.98 65.66C13.32 63.86 11.59 62.21 10.01 60.62C11.09 55.58 12.24 49.68 13.25 43.56ZM26.35 42.05L26.35 37.30L24.19 37.44L24.19 33.19L18.94 33.19L18.94 37.66L14.11 37.87C14.83 32.90 15.48 27.94 15.84 23.47L10.22 23.26C9.94 27.86 9.36 32.90 8.57 38.16L2.66 38.38L3.31 44.64L7.63 44.14C6.55 51.05 5.18 57.60 3.96 62.50C6.55 65.16 9.58 68.18 12.38 71.28C9.94 75.96 6.55 80.50 1.87 84.67C3.17 85.46 5.11 87.26 5.98 88.49C10.44 84.53 13.82 80.14 16.42 75.60C18.86 78.41 21.02 81.14 22.54 83.23L26.71 78.41C24.91 76.10 22.18 73.08 19.15 69.91C23.11 60.34 24.05 50.47 24.19 42.34ZM50.33 66.10L50.33 56.88C54.58 59.90 58.75 63.22 61.99 66.10ZM50.18 82.73L50.18 78.84L58.18 78.84L58.18 82.73ZM36.86 78.84L44.50 78.84L44.50 82.73L36.86 82.73ZM44.50 70.78L44.50 74.66L36.86 74.66L36.86 70.78ZM58.18 74.66L50.18 74.66L50.18 70.78L58.18 70.78ZM44.42 66.10L34.13 66.10C37.94 63.79 41.54 60.84 44.42 57.74ZM44.42 50.33L41.11 50.33L41.62 50.04C40.61 48.17 38.45 45.58 36.29 43.56C38.88 43.56 41.69 43.42 44.42 43.13ZM68.98 55.58L68.98 50.33L59.11 50.33C60.48 48.53 61.99 46.37 63.43 44.35L58.18 42.34C57.10 44.64 55.15 47.95 53.50 50.33L50.33 50.33L50.33 42.55C54.36 42.12 58.18 41.40 61.13 40.61L58.25 36.22C52.27 37.94 41.54 38.95 32.76 39.46L32.76 34.85L62.21 34.85L62.21 41.04L68.18 41.04L68.18 29.59L49.18 29.59L50.90 28.73C49.97 26.86 47.95 23.98 45.94 21.89L40.54 24.26C41.90 25.78 43.20 27.79 44.21 29.59L27.07 29.59L27.07 41.11L32.76 41.11L32.76 40.68C33.19 41.69 33.55 42.84 33.70 43.70L34.70 43.70L31.32 45.43C32.83 46.87 34.49 48.67 35.64 50.33L26.35 50.33L26.35 55.58L39.82 55.58C35.50 59.54 29.38 63.07 23.83 64.94C25.13 66.02 26.78 68.18 27.65 69.48C28.73 69.05 29.81 68.47 30.89 67.97L30.89 89.21L36.86 89.21L36.86 87.41L58.18 87.41L58.18 89.06L64.37 89.06L64.37 68.40L65.09 69.05L69.84 66.24C66.53 63.14 61.63 59.18 56.38 55.58Z"/></svg>
