<svg xmlns="http://www.w3.org/2000/svg" xmlns:xlink="http://www.w3.org/1999/xlink" width="72.00000000000001" height="106.56000000000002"><path fill="red" stroke="red" d="M12.46 35.35L59.33 35.35L59.33 44.14L66.17 44.14L66.17 29.45L40.32 29.45C39.38 27.29 38.09 24.70 36.86 22.75L30.38 24.55C31.18 26.06 32.04 27.79 32.76 29.45L5.90 29.45L5.90 44.14L12.46 44.14ZM56.23 40.75L15.55 40.75L15.55 46.08L56.23 46.08ZM22.25 66.17L49.18 66.17L49.18 71.78L22.25 71.78ZM22.25 55.80L49.18 55.80L49.18 61.34L22.25 61.34ZM55.94 76.97L55.94 50.62L15.77 50.62L15.77 76.97ZM4.61 81.22L4.61 87.26L67.25 87.26L67.25 81.22Z"/></svg>
