<svg xmlns="http://www.w3.org/2000/svg" xmlns:xlink="http://www.w3.org/1999/xlink" width="72.00000000000001" height="106.56000000000002"><path fill="red" stroke="red" d="M49.82 53.21L46.44 55.22C47.81 56.23 49.25 57.38 50.69 58.54L30.24 59.62C32.76 57.60 35.21 55.44 37.44 53.21ZM57.17 32.11L57.17 38.02L16.85 38.02L16.85 32.11ZM44.35 81.94L44.35 75.31L62.57 75.31L62.57 69.98L44.35 69.98L44.35 64.15L56.23 63.36C57.96 65.02 59.33 66.53 60.41 67.75L65.74 64.44C62.86 61.20 57.46 56.59 52.63 53.21L65.95 53.21L65.95 47.81L16.85 47.81L16.85 46.87L16.85 43.49L63.86 43.49L63.86 26.64L10.08 26.64L10.08 46.87C10.08 58.25 9.50 74.45 2.52 85.82C4.25 86.40 7.27 88.13 8.50 89.14C14.62 79.20 16.34 64.80 16.70 53.21L29.02 53.21C26.57 55.66 24.19 57.60 23.11 58.32C21.67 59.54 20.38 60.26 19.08 60.48C19.80 62.14 20.81 65.09 21.10 66.38C22.82 65.74 25.13 65.45 37.80 64.58L37.80 69.98L19.94 69.98L19.94 75.31L37.80 75.31L37.80 81.94L14.83 81.94L14.83 87.34L67.90 87.34L67.90 81.94Z"/></svg>
