<svg xmlns="http://www.w3.org/2000/svg" xmlns:xlink="http://www.w3.org/1999/xlink" width="72.00000000000001" height="106.56000000000002"><path fill="red" stroke="red" d="M61.06 31.54L61.06 36.58L15.84 36.58L15.84 31.54ZM57.60 59.40L57.60 70.99L51.77 70.99L51.77 59.40ZM41.04 81.14L41.04 59.40L46.51 59.40L46.51 76.46L63.00 76.46L63.00 59.40L67.61 59.40L67.61 54.00L63.00 54.00L63.00 44.21L57.60 44.21L57.60 54.00L51.77 54.00L51.77 43.85L46.51 43.85L46.51 54.00L41.04 54.00L41.04 44.42L35.42 44.42L35.42 54.00L31.46 54.00L31.46 54.86L26.86 53.28C23.98 58.25 19.44 63.07 14.76 66.46C15.34 62.21 15.62 58.03 15.70 54.07C16.70 55.01 17.64 56.02 18.29 56.81C22.82 53.78 27.72 48.89 30.96 44.35L25.56 42.55C23.47 45.79 19.58 49.54 15.77 52.13C15.84 50.47 15.84 48.74 15.84 47.23L15.84 41.83L67.61 41.83L67.61 26.28L9.07 26.28L9.07 47.30C9.07 58.46 8.57 74.52 2.52 85.54C4.25 86.18 7.27 87.84 8.57 88.85C11.81 82.87 13.68 75.31 14.62 67.75C15.70 69.05 17.06 70.92 17.50 71.86C18.86 70.78 20.23 69.62 21.60 68.33L21.60 89.06L27.14 89.06L27.14 62.21C28.80 60.26 30.24 58.10 31.46 56.02L31.46 59.40L35.42 59.40L35.42 86.47L68.11 86.47L68.11 81.14Z"/></svg>
