<svg xmlns="http://www.w3.org/2000/svg" xmlns:xlink="http://www.w3.org/1999/xlink" width="72.00000000000001" height="106.56000000000002"><path fill="red" stroke="red" d="M14.26 67.82C14.47 65.59 14.54 63.50 14.62 61.49L26.42 61.49L26.42 67.82ZM26.42 50.26L26.42 56.16L14.62 56.16L14.62 50.26ZM32.62 44.78L8.57 44.78L8.57 59.98C8.57 67.68 7.99 77.83 2.45 85.18C3.74 85.97 6.34 88.20 7.20 89.42C10.73 84.89 12.67 78.98 13.61 73.08L26.42 73.08L26.42 81.58C26.42 82.51 26.14 82.73 25.20 82.80C24.41 82.87 21.46 82.87 18.43 82.73C19.37 84.24 20.30 86.90 20.52 88.56C25.06 88.56 27.94 88.49 30.02 87.48C32.04 86.47 32.62 84.74 32.62 81.72ZM45.22 67.90C45.36 65.74 45.43 63.79 45.43 61.85L45.43 61.49L58.10 61.49L58.10 67.90ZM58.10 50.26L58.10 56.16L45.43 56.16L45.43 50.26ZM64.44 44.78L39.31 44.78L39.31 61.78C39.31 69.26 38.81 78.62 33.34 85.32C34.56 86.11 37.08 88.42 38.02 89.64C41.76 85.18 43.70 79.20 44.64 73.22L58.10 73.22L58.10 81.58C58.10 82.44 57.74 82.73 56.81 82.73C56.02 82.80 52.85 82.80 49.75 82.73C50.69 84.24 51.70 86.98 51.91 88.70C56.59 88.70 59.69 88.56 61.78 87.55C63.86 86.54 64.44 84.74 64.44 81.65ZM57.74 25.63L57.74 34.63L39.17 34.63L39.17 23.11L32.47 23.11L32.47 34.63L14.54 34.63L14.54 25.63L7.92 25.63L7.92 40.61L64.73 40.61L64.73 25.63Z"/></svg>
