<svg xmlns="http://www.w3.org/2000/svg" xmlns:xlink="http://www.w3.org/1999/xlink" width="72.00000000000001" height="106.56000000000002"><path fill="red" stroke="red" d="M59.18 49.97L39.82 49.97L39.82 44.57L59.18 44.57ZM59.18 60.12L39.82 60.12L39.82 54.65L59.18 54.65ZM59.18 70.42L39.82 70.42L39.82 64.87L59.18 64.87ZM65.45 39.02L51.62 39.02L51.62 34.27L68.18 34.27L68.18 28.66L51.62 28.66L51.62 23.04L45.36 23.04L45.36 39.02L33.84 39.02L33.84 75.89L65.45 75.89ZM29.23 36.36L19.73 36.36L19.73 23.04L13.97 23.04L13.97 36.36L4.68 36.36L4.68 74.30L9.65 74.30L9.65 42.34L13.97 42.34L13.97 89.06L19.73 89.06L19.73 42.34L24.26 42.34L24.26 67.18C24.26 67.82 24.12 67.97 23.69 67.97L20.45 67.97C21.24 69.48 22.03 72.00 22.10 73.66C24.55 73.66 26.21 73.51 27.58 72.43C28.94 71.42 29.23 69.62 29.23 67.32ZM40.39 76.25C37.58 79.13 31.75 82.58 26.86 84.60C28.15 85.75 29.95 87.84 30.82 89.06C36.00 87.05 42.05 83.30 45.86 79.78ZM52.34 79.56C56.09 82.51 60.55 86.54 62.93 89.14L68.76 85.82C65.95 83.23 61.20 79.27 57.02 76.32Z"/></svg>
