<svg xmlns="http://www.w3.org/2000/svg" xmlns:xlink="http://www.w3.org/1999/xlink" width="72.00000000000001" height="106.56000000000002"><path fill="red" stroke="red" d="M68.26 57.96L39.38 57.96L39.38 34.34L64.15 34.34L64.15 27.79L7.70 27.79L7.70 34.34L32.47 34.34L32.47 57.96L3.96 57.96L3.96 64.73L32.47 64.73L32.47 89.21L39.38 89.21L39.38 64.73L68.26 64.73ZM12.38 39.17C14.98 44.21 17.42 50.90 18.36 55.01L24.77 52.85C23.83 48.67 21.10 42.26 18.43 37.30ZM52.06 55.08C54.72 51.05 57.89 44.57 60.48 38.95L53.35 37.01C51.77 42.05 48.74 48.89 46.30 53.21Z"/></svg>
