<svg xmlns="http://www.w3.org/2000/svg" xmlns:xlink="http://www.w3.org/1999/xlink" width="72.00000000000001" height="106.56000000000002"><path fill="red" stroke="red" d="M23.62 58.54L27.65 57.24C27.07 55.15 25.42 51.84 23.76 49.25L48.53 49.25C47.52 51.98 45.72 55.66 44.14 58.54ZM68.33 43.34L39.24 43.34L39.24 36.22L61.06 36.22L61.06 30.38L39.24 30.38L39.24 23.33L32.33 23.33L32.33 30.38L11.23 30.38L11.23 36.22L32.33 36.22L32.33 43.34L3.82 43.34L3.82 49.25L21.82 49.25L17.06 50.69C18.43 53.14 20.02 56.23 20.74 58.54L9.58 58.54L9.58 64.37L32.33 64.37L32.33 71.78L5.69 71.78L5.69 77.69L32.33 77.69L32.33 89.28L39.24 89.28L39.24 77.69L66.38 77.69L66.38 71.78L39.24 71.78L39.24 64.37L63.00 64.37L63.00 58.54L50.90 58.54C52.49 56.16 54.29 53.42 55.87 50.76L49.82 49.25L68.33 49.25Z"/></svg>
