<svg xmlns="http://www.w3.org/2000/svg" xmlns:xlink="http://www.w3.org/1999/xlink" width="72.00000000000001" height="106.56000000000002"><path fill="red" stroke="red" d="M51.26 39.38C51.41 34.20 51.41 28.87 51.41 23.18L44.93 23.18C44.93 28.94 44.93 34.27 44.86 39.38L35.50 39.38L35.50 45.65L44.78 45.65C44.28 59.62 42.70 70.63 36.86 78.70C35.86 73.87 32.90 67.03 30.10 61.70L24.84 64.01C26.14 66.67 27.50 69.77 28.66 72.79L15.05 75.02C21.96 65.95 29.02 54.72 34.63 43.27L28.08 40.39C26.93 43.13 25.56 45.86 24.26 48.53L12.89 49.32C16.99 42.48 21.02 33.91 23.83 25.85L16.99 23.18C14.47 32.62 9.50 42.91 7.92 45.43C6.41 48.17 5.18 49.97 3.82 50.33C4.61 52.20 5.69 55.51 6.12 56.81L6.12 56.74C7.49 56.16 9.65 55.73 20.95 54.72C16.63 62.42 12.31 68.83 10.51 71.06C7.78 74.66 5.90 76.90 4.03 77.47C4.82 79.27 6.05 82.51 6.41 83.81C8.28 82.87 11.23 82.15 30.46 78.70C30.82 79.92 31.10 81.14 31.32 82.22L35.78 80.21C34.42 81.86 32.90 83.38 31.18 84.67C32.62 85.61 34.92 87.98 35.93 89.57C47.45 80.28 50.33 65.45 51.12 45.65L59.90 45.65C59.62 70.06 59.33 78.91 58.03 80.71C57.38 81.65 56.74 81.86 55.66 81.86C54.43 81.86 51.55 81.86 48.38 81.58C49.46 83.38 50.11 86.04 50.26 87.91C53.50 88.06 56.81 88.06 58.82 87.77C60.98 87.41 62.42 86.76 63.72 84.74C65.66 81.79 65.95 71.93 66.31 42.55C66.31 41.69 66.38 39.38 66.38 39.38Z"/></svg>
