<svg xmlns="http://www.w3.org/2000/svg" xmlns:xlink="http://www.w3.org/1999/xlink" width="72.00000000000001" height="106.56000000000002"><path fill="red" stroke="red" d="M14.62 36.43L68.18 36.43L68.18 30.24L44.86 30.24C43.70 27.79 42.05 24.84 40.25 22.46L33.91 24.55C35.06 26.21 36.29 28.30 37.22 30.24L8.06 30.24L8.06 49.82C8.06 60.26 7.56 74.81 2.09 85.10C3.60 85.82 6.48 87.70 7.70 88.92C13.68 77.90 14.62 61.06 14.62 49.82ZM25.06 40.18C23.76 48.74 20.59 55.80 14.90 60.19C16.27 60.98 18.86 62.93 19.87 63.94C22.75 61.42 25.13 58.32 26.93 54.65C29.66 57.31 32.33 60.26 33.84 62.28L37.73 57.82C35.93 55.58 32.33 52.06 29.16 49.25C30.02 46.58 30.67 43.85 31.18 40.82ZM44.64 72.50L64.30 72.50L64.30 66.67L44.64 66.67L44.64 59.90C46.01 60.91 47.74 62.35 48.53 63.22C51.26 60.98 53.57 58.10 55.44 54.79C58.97 57.89 62.64 61.34 64.66 63.72L68.54 59.33C66.17 56.81 61.70 52.99 57.82 49.68C58.82 47.02 59.62 44.14 60.19 40.97L54.14 40.18C52.92 47.95 49.82 54.43 44.64 58.68L44.64 39.02L38.23 39.02L38.23 66.67L19.15 66.67L19.15 72.50L38.23 72.50L38.23 81.65L14.54 81.65L14.54 87.41L68.54 87.41L68.54 81.65L44.64 81.65Z"/></svg>
