<svg xmlns="http://www.w3.org/2000/svg" xmlns:xlink="http://www.w3.org/1999/xlink" width="72.00000000000001" height="106.56000000000002"><path fill="red" stroke="red" d="M35.71 46.87L35.71 51.77L24.12 51.77L24.12 46.87ZM24.12 61.49L24.12 56.30L35.71 56.30L35.71 61.49ZM30.67 69.98C31.75 71.86 32.90 73.94 33.91 76.10L24.12 79.13L24.12 66.38L41.62 66.38L41.62 41.98L34.27 41.98C33.62 40.03 32.69 37.66 31.68 35.71L26.06 37.01C26.64 38.52 27.36 40.25 27.94 41.98L18.07 41.98L18.07 76.61C18.07 79.92 16.06 82.08 14.76 82.94C15.77 84.02 17.35 86.33 17.93 87.62C19.37 86.54 21.60 85.68 36.29 80.86C37.22 82.87 37.94 84.60 38.45 86.11L43.85 83.59C42.26 79.63 38.74 72.94 35.78 68.04ZM63.43 38.66L62.57 38.95L46.01 38.95L46.01 89.35L51.91 89.35L51.91 44.35L60.12 44.35C58.75 48.53 56.81 53.78 54.86 58.03C59.90 63.07 61.27 67.32 61.27 70.70C61.27 72.79 60.91 74.38 59.83 75.10C59.18 75.46 58.54 75.67 57.60 75.67C56.52 75.74 55.08 75.67 53.57 75.60C54.36 77.04 55.01 79.49 55.01 81.07C56.88 81.14 58.75 81.14 60.19 81.00C61.63 80.78 62.93 80.28 64.01 79.56C66.17 78.05 67.10 75.17 67.10 71.28C67.03 67.25 65.74 62.64 60.62 57.38C63.07 52.34 65.66 46.22 67.75 40.97ZM43.49 28.94C42.70 27.00 41.62 24.55 40.68 22.61L34.42 24.12C35.06 25.56 35.71 27.29 36.36 28.94L7.78 28.94L7.78 50.76C7.78 61.06 7.42 75.53 2.45 85.61C3.82 86.33 6.55 88.34 7.70 89.57C13.25 78.70 14.11 61.92 14.11 50.76L14.11 34.78L68.40 34.78L68.40 28.94Z"/></svg>
