<svg xmlns="http://www.w3.org/2000/svg" xmlns:xlink="http://www.w3.org/1999/xlink" width="72.00000000000001" height="106.56000000000002"><path fill="red" stroke="red" d="M30.96 61.20C31.25 58.61 31.32 55.80 31.32 53.06L40.68 53.06L40.68 61.20ZM14.11 61.20C14.54 58.68 14.90 55.80 15.26 53.06L24.19 53.06C24.19 55.87 24.05 58.61 23.69 61.20ZM31.32 38.38L40.68 38.38L40.68 46.44L31.32 46.44ZM56.74 38.38L56.74 46.44L47.74 46.44L47.74 38.38ZM47.74 61.20L47.74 53.06L63.50 53.06L63.50 31.82L47.74 31.82L47.74 23.11L40.68 23.11L40.68 31.82L31.32 31.82L31.32 23.04L24.19 23.04L24.19 31.82L6.26 31.82L6.26 38.38L24.19 38.38L24.19 46.44L9.86 46.44C9.14 53.35 7.85 62.14 6.70 67.75L22.18 67.75C19.73 74.30 14.54 79.85 3.67 84.02C5.33 85.10 7.99 87.77 9.07 89.35C22.03 84.17 27.58 76.61 29.81 67.75L40.68 67.75L40.68 89.14L47.74 89.14L47.74 67.75L60.55 67.75C60.26 73.15 59.90 75.46 59.26 76.25C58.75 76.75 58.18 76.90 57.10 76.90C55.94 76.90 53.28 76.82 50.40 76.54C51.34 78.19 52.13 80.71 52.27 82.44C55.51 82.58 58.61 82.58 60.26 82.44C62.28 82.22 63.65 81.72 64.87 80.35C66.38 78.55 66.89 74.16 67.25 63.58C67.32 62.78 67.32 61.20 67.32 61.20Z"/></svg>
