<svg xmlns="http://www.w3.org/2000/svg" xmlns:xlink="http://www.w3.org/1999/xlink" width="72.00000000000001" height="106.56000000000002"><path fill="red" stroke="red" d="M10.73 58.18C10.87 55.01 11.02 51.48 11.09 48.02L25.13 48.02L25.13 26.42L4.25 26.42L4.25 32.40L18.72 32.40L18.72 41.98L5.40 41.98C5.40 49.10 5.11 58.25 4.54 64.01L18.72 64.01C18.07 75.60 17.28 80.28 16.20 81.50C15.48 82.15 14.83 82.37 13.61 82.37C12.31 82.37 9.07 82.30 5.76 81.94C6.84 83.81 7.63 86.47 7.78 88.49C11.23 88.63 14.62 88.56 16.49 88.42C18.65 88.13 20.02 87.62 21.38 86.04C23.40 83.74 24.19 77.18 24.98 60.84C25.06 59.98 25.13 58.18 25.13 58.18ZM36.43 33.70C46.73 32.69 58.32 30.96 66.60 28.58L62.14 23.26C54.43 25.56 41.54 27.58 30.46 28.58L30.46 42.12C30.46 54.22 29.81 72.22 22.46 84.89C23.76 85.54 26.42 87.41 27.43 88.63C35.14 75.17 36.43 54.94 36.43 42.12ZM48.74 67.46C49.90 70.42 50.90 73.73 51.91 77.11L44.64 78.98C48.89 69.34 49.18 58.18 49.18 49.97L49.18 37.44L43.42 37.44L43.42 49.90C43.42 59.76 43.20 73.01 35.78 82.22C36.94 83.16 39.10 85.68 39.89 86.98C41.11 86.04 42.98 85.32 53.35 82.30C53.86 84.24 54.22 86.11 54.43 87.70L59.33 86.18C58.32 80.64 55.80 72.50 53.28 66.02ZM56.16 36.22C57.17 57.53 58.90 77.62 64.73 89.14C65.88 87.41 68.04 85.18 69.62 84.10C64.30 74.38 62.50 54.94 61.63 35.71Z"/></svg>
