<svg xmlns="http://www.w3.org/2000/svg" xmlns:xlink="http://www.w3.org/1999/xlink" width="72.00000000000001" height="106.56000000000002"><path fill="red" stroke="red" d="M13.75 53.06C13.90 50.62 14.04 47.88 14.18 45.22L32.83 45.22L32.83 25.49L6.12 25.49L6.12 31.46L26.14 31.46L26.14 39.24L7.92 39.24C7.85 45.58 7.34 53.64 6.84 58.82L26.78 58.82C26.57 62.93 26.28 66.38 26.06 69.19L21.24 70.78L23.62 66.02C20.30 64.22 13.82 61.70 9.07 60.41L6.55 65.02C11.23 66.53 17.28 68.98 20.66 70.99C14.26 73.01 8.06 74.95 3.67 76.25L6.05 82.01C11.52 80.14 18.58 77.54 25.42 75.10C24.84 79.06 24.26 81.07 23.54 81.94C22.90 82.73 22.18 82.87 21.10 82.87C19.87 82.87 17.14 82.80 14.26 82.51C15.19 84.24 15.84 86.76 15.98 88.42C19.37 88.63 22.54 88.63 24.41 88.42C26.42 88.13 27.86 87.55 29.23 85.90C31.39 83.38 32.47 75.82 33.55 55.87C33.62 55.01 33.70 53.06 33.70 53.06ZM45.50 53.06C45.65 50.62 45.79 47.88 45.94 45.22L65.45 45.22L65.45 25.56L38.09 25.56L38.09 31.54L58.75 31.54L58.75 39.24L39.60 39.24C39.53 45.58 39.02 53.64 38.45 58.82L59.54 58.82C59.40 62.71 59.26 66.02 59.04 68.83L53.28 70.78L55.51 66.10C52.20 64.22 45.79 61.78 41.11 60.55L38.52 65.09C43.20 66.60 49.18 69.05 52.49 70.99C46.44 72.94 40.75 74.81 36.65 76.03L38.95 81.79C44.57 79.70 51.62 77.11 58.61 74.45C58.10 79.27 57.53 81.72 56.66 82.58C55.94 83.30 55.15 83.52 53.86 83.52C52.34 83.52 48.74 83.45 44.86 83.09C45.86 84.74 46.66 87.19 46.80 88.92C50.83 89.14 54.65 89.21 56.88 88.92C59.26 88.70 60.91 88.13 62.35 86.33C64.58 83.74 65.45 76.18 66.24 55.94C66.31 55.01 66.38 53.06 66.38 53.06Z"/></svg>
