<svg xmlns="http://www.w3.org/2000/svg" xmlns:xlink="http://www.w3.org/1999/xlink" width="72.00000000000001" height="106.56000000000002"><path fill="red" stroke="red" d="M17.93 23.26C14.90 28.22 8.64 34.06 3.10 37.66C4.18 39.02 5.76 41.69 6.48 43.27C12.89 38.95 19.87 32.18 24.26 25.85ZM19.44 38.95C15.34 46.15 8.50 53.35 2.16 57.89C3.24 59.54 4.97 63.14 5.47 64.58C7.92 62.64 10.58 60.26 13.03 57.60L13.03 89.21L19.44 89.21L19.44 50.11C21.60 47.23 23.62 44.21 25.27 41.33ZM27.94 69.55C31.03 73.37 34.92 78.70 36.65 81.94L42.48 78.62C40.61 75.38 36.58 70.27 33.48 66.60ZM59.11 53.71L52.34 53.71L52.34 58.90L22.90 58.90L22.90 65.02L52.34 65.02L52.34 81.72C52.34 82.73 51.98 83.02 50.76 83.02C49.61 83.09 45.50 83.09 41.47 82.94C42.34 84.67 43.34 87.41 43.63 89.21C49.32 89.21 53.21 89.14 55.80 88.13C58.39 87.19 59.11 85.39 59.11 81.86L59.11 65.02L68.54 65.02L68.54 58.90L59.11 58.90ZM48.96 31.97L48.96 23.40L42.12 23.40L42.12 31.97L22.61 31.97L22.61 38.09L42.12 38.09L42.12 45.72L25.34 45.72L25.34 51.77L65.38 51.77L65.38 45.72L48.96 45.72L48.96 38.09L68.62 38.09L68.62 31.97Z"/></svg>
