<svg xmlns="http://www.w3.org/2000/svg" xmlns:xlink="http://www.w3.org/1999/xlink" width="72.00000000000001" height="106.56000000000002"><path fill="red" stroke="red" d="M7.42 57.24C9.14 51.91 10.30 43.56 10.58 37.66L5.69 37.01C5.26 42.77 4.10 50.76 2.38 55.58ZM18.36 36.29L18.36 23.18L12.02 23.18L12.02 89.21L18.36 89.21L18.36 37.58C19.94 41.98 21.60 47.30 22.32 50.62L27.00 48.60C26.06 45.29 24.12 39.38 22.32 34.92ZM51.34 54.72L51.34 68.33L43.27 68.33L43.27 54.72ZM55.94 73.01L55.94 50.04L38.59 50.04L38.59 76.68L43.27 76.68L43.27 73.01ZM57.17 38.38L37.37 38.38L37.37 43.85L57.17 43.85ZM67.03 26.28L27.07 26.28L27.07 89.21L33.19 89.21L33.19 32.47L60.84 32.47L60.84 81.36C60.84 82.37 60.48 82.73 59.62 82.73C58.61 82.73 55.44 82.80 52.34 82.58C53.21 84.38 54.00 87.48 54.22 89.21C58.97 89.21 62.28 89.06 64.37 87.98C66.38 86.90 67.03 84.82 67.03 81.43Z"/></svg>
