<svg xmlns="http://www.w3.org/2000/svg" xmlns:xlink="http://www.w3.org/1999/xlink" width="72.00000000000001" height="106.56000000000002"><path fill="red" stroke="red" d="M4.46 67.54C12.82 66.74 24.55 65.59 35.78 64.44L35.78 63.00C37.22 64.08 39.38 66.31 40.32 67.39C42.91 65.81 45.36 63.79 47.74 61.63C51.19 65.81 55.22 68.18 59.69 68.18C65.09 68.18 67.32 65.88 68.40 56.52C66.67 55.94 64.51 54.65 63.07 53.35C62.64 59.62 61.92 61.78 60.05 61.85C57.53 61.85 54.79 60.05 52.34 56.81C56.09 52.34 59.26 47.09 61.56 41.33L55.22 39.74C53.71 43.92 51.48 47.81 48.89 51.26C46.94 47.38 45.29 42.70 44.06 37.44L67.25 37.44L67.25 31.61L59.26 31.61L61.56 29.16C59.18 27.07 54.72 24.55 51.05 23.11L47.23 27.07C49.82 28.22 52.92 29.95 55.15 31.61L43.06 31.61C42.62 28.87 42.34 26.06 42.26 23.11L35.64 23.11C35.78 26.06 36.00 28.87 36.43 31.61L4.82 31.61L4.82 37.44L37.37 37.44C38.88 44.71 41.18 51.26 44.14 56.45C41.62 58.90 38.81 60.98 35.78 62.71L35.78 58.97C24.19 60.05 12.02 61.20 3.96 61.78ZM26.28 51.48L15.12 51.48L15.12 45.79L26.28 45.79ZM9.14 41.18L9.14 56.09L32.54 56.09L32.54 41.18ZM29.23 69.62C33.70 72.00 38.88 75.82 41.18 78.62L45.58 74.38C43.06 71.57 37.73 68.04 33.34 65.88ZM9.86 87.55C12.74 83.52 14.90 77.33 16.49 72.36L10.51 69.98C9.14 74.81 6.77 80.57 3.82 84.24ZM30.96 82.58C26.78 82.58 26.06 82.22 26.06 80.35L26.06 71.06L19.44 71.06L19.44 80.42C19.44 86.54 21.60 88.27 30.46 88.27L45.22 88.27C51.91 88.27 53.93 86.40 54.72 78.34C52.99 77.98 50.26 77.11 48.82 76.10C48.46 81.72 47.88 82.58 44.64 82.58ZM54.07 72.00C57.24 76.75 60.55 83.23 61.78 87.19L68.40 84.96C67.03 80.86 63.50 74.59 60.19 70.06Z"/></svg>
