<svg xmlns="http://www.w3.org/2000/svg" xmlns:xlink="http://www.w3.org/1999/xlink" width="72.00000000000001" height="106.56000000000002"><path fill="red" stroke="red" d="M43.63 55.37L49.90 55.37L49.90 40.97L67.97 40.97L67.97 35.57L58.39 35.57C60.55 33.19 63.29 29.66 65.66 26.50L59.98 23.83C58.46 26.86 55.66 31.25 53.50 33.91L56.74 35.57L49.90 35.57L49.90 23.18L43.63 23.18L43.63 35.57L35.93 35.57L39.74 33.48C38.52 30.89 35.86 27.07 33.55 24.34L28.58 26.86C30.67 29.52 32.98 33.05 34.20 35.57L26.71 35.57L26.71 40.97L43.63 40.97ZM52.27 45.00C56.81 47.45 62.42 51.12 65.23 53.57L68.47 49.82C65.66 47.38 59.98 43.85 55.44 41.62ZM37.73 41.83C34.78 45.14 29.30 48.46 24.48 50.11C25.70 51.12 27.43 53.14 28.30 54.43C33.34 52.27 39.10 47.88 42.19 43.70ZM7.13 57.10C8.64 51.70 9.58 43.27 9.72 37.58L4.97 37.01C4.61 42.70 3.60 50.62 2.16 55.51ZM25.78 46.73C25.06 43.63 23.11 38.59 21.53 34.63L17.42 36.22L17.42 23.11L11.30 23.11L11.30 89.35L17.42 89.35L17.42 37.22C18.94 41.11 20.38 45.86 21.02 48.82ZM38.81 64.22C38.02 67.03 36.94 69.55 35.64 71.93C34.06 70.34 31.90 68.54 29.95 67.10C30.60 66.10 31.32 65.23 31.97 64.22ZM40.90 59.18L34.70 59.18C35.42 57.67 36.07 56.16 36.65 54.58L31.39 53.21C29.16 59.83 24.84 65.88 19.66 69.62C20.81 70.70 22.61 73.08 23.11 74.23C24.41 73.15 25.70 72.00 26.93 70.70C29.09 72.50 31.32 74.59 32.76 76.25C29.45 80.28 25.13 83.30 20.16 85.32C21.53 86.18 23.54 88.20 24.41 89.35C34.63 84.74 42.19 75.96 45.36 60.34L41.90 59.04ZM51.48 72.94C52.06 69.98 52.63 66.67 53.14 63.72L56.23 63.72L56.23 72.94ZM68.83 72.94L61.63 72.94L61.63 63.72L68.04 63.72L68.04 58.61L61.63 58.61L61.63 53.50L56.23 53.50L56.23 58.61L46.37 58.61L46.37 63.72L48.10 63.72C47.45 68.54 46.44 74.38 45.50 78.19L56.23 78.19L56.23 89.21L61.63 89.21L61.63 78.19L68.83 78.19Z"/></svg>
