<svg xmlns="http://www.w3.org/2000/svg" xmlns:xlink="http://www.w3.org/1999/xlink" width="72.00000000000001" height="106.56000000000002"><path fill="red" stroke="red" d="M43.85 26.28L38.74 26.28L38.74 33.55L34.63 33.55L34.63 23.11L29.81 23.11L29.81 33.55L25.85 33.55L25.85 26.28L20.95 26.28L20.95 37.94L43.85 37.94ZM13.32 23.26C11.23 27.00 6.98 31.54 3.24 34.42C4.39 35.35 6.19 37.15 7.13 38.30C11.30 34.99 15.91 29.81 18.86 25.20ZM9.14 86.26C11.38 82.58 13.82 77.18 15.55 73.22L9.94 70.63C8.35 74.59 5.69 79.92 3.17 83.30ZM14.33 34.85C12.17 40.25 7.49 46.87 2.66 50.90C3.67 52.13 5.11 54.43 5.76 55.73C7.13 54.58 8.42 53.28 9.79 51.84L9.79 69.12L15.84 69.12L15.84 44.06C17.42 41.69 18.94 39.17 20.02 36.65ZM30.60 82.37C26.14 82.37 25.34 82.01 25.34 80.14L25.34 71.28L18.72 71.28L18.72 80.21C18.72 86.26 21.10 87.91 30.02 87.91L45.58 87.91C52.85 87.91 54.79 85.75 55.66 76.68C53.93 76.25 51.26 75.31 49.75 74.30C49.39 81.29 48.74 82.37 45.07 82.37ZM54.58 72.22C57.24 76.32 60.34 81.72 61.70 85.10L67.46 82.37C66.10 79.06 62.71 73.73 60.05 69.84ZM59.90 37.51C59.18 42.48 58.03 46.94 56.38 50.76C54.50 46.73 53.21 42.26 52.20 37.51ZM68.26 37.51L68.26 31.97L53.93 31.97C54.50 29.45 55.08 26.78 55.58 24.19L50.11 23.11C48.82 31.03 46.66 38.52 43.13 43.78L43.13 40.03L21.10 40.03L21.10 44.42L42.70 44.42L42.41 44.78C43.56 45.86 45.36 48.31 46.08 49.46C47.16 48.02 48.17 46.37 49.10 44.64C50.26 48.82 51.62 52.70 53.35 56.16C50.98 59.62 47.95 62.35 44.14 64.58L44.06 61.99L34.78 62.86L34.78 59.04L43.56 59.04L43.56 54.86L34.78 54.86L34.78 50.76C37.94 50.47 40.97 50.11 43.34 49.54L40.39 45.72C35.64 46.73 27.22 47.38 20.45 47.52C21.02 48.67 21.60 50.33 21.74 51.34C23.98 51.34 26.50 51.34 29.02 51.19L29.02 54.86L20.45 54.86L20.45 59.04L29.02 59.04L29.02 63.36C25.49 63.72 22.18 63.94 19.51 64.15L20.09 68.76C24.26 68.33 29.45 67.75 34.78 67.10L30.10 70.27C33.19 73.44 37.01 77.83 38.66 80.64L43.85 77.04C41.98 74.23 38.09 70.06 34.92 67.10L43.06 66.10C43.99 67.39 45.07 69.26 45.43 70.27C49.90 67.90 53.50 64.87 56.38 61.20C58.82 64.80 61.85 67.75 65.38 69.84C66.17 68.47 67.82 66.38 69.05 65.30C65.23 63.36 62.06 60.34 59.54 56.59C62.42 51.34 64.37 45.07 65.45 37.51Z"/></svg>
