<svg xmlns="http://www.w3.org/2000/svg" xmlns:xlink="http://www.w3.org/1999/xlink" width="72.00000000000001" height="106.56000000000002"><path fill="red" stroke="red" d="M24.26 53.86L17.64 55.87L17.64 43.34L24.91 43.34L24.91 37.15L17.64 37.15L17.64 23.18L11.52 23.18L11.52 37.15L3.24 37.15L3.24 43.34L11.52 43.34L11.52 57.67C7.99 58.68 4.82 59.62 2.23 60.26L3.74 66.74L11.52 64.37L11.52 81.14C11.52 82.15 11.16 82.44 10.22 82.44C9.43 82.44 6.77 82.44 3.89 82.37C4.75 84.10 5.54 86.98 5.76 88.56C10.22 88.56 13.10 88.34 15.05 87.26C16.99 86.26 17.64 84.46 17.64 81.14L17.64 62.42C20.09 61.63 22.68 60.77 25.13 60.05ZM40.68 37.22C43.56 40.32 47.23 44.64 49.03 47.16L53.50 44.06C51.62 41.62 47.81 37.44 45.00 34.42ZM52.56 65.81C50.54 63.36 46.51 59.18 43.49 56.23L39.38 59.26C42.41 62.35 46.37 66.74 48.31 69.34ZM34.63 70.92C35.06 66.02 35.57 60.41 36.00 54.50L57.60 54.50C57.38 61.49 57.10 66.89 56.81 70.92ZM58.10 32.62C58.03 38.66 57.89 44.06 57.74 48.82L36.43 48.82C36.79 43.34 37.15 37.80 37.51 32.62ZM69.12 54.50L69.12 48.82L64.30 48.82C64.37 43.42 64.51 37.37 64.66 30.46L64.66 26.93L31.46 26.93C31.18 33.55 30.74 41.26 30.17 48.82L24.77 48.82L24.77 54.50L29.74 54.50C29.02 62.86 28.22 70.78 27.50 76.68L56.16 76.68C55.80 79.20 55.37 80.64 54.79 81.36C54.14 82.51 53.50 82.80 52.34 82.80C50.90 82.80 48.02 82.80 44.71 82.44C45.79 84.24 46.44 86.90 46.58 88.56C49.90 88.70 53.28 88.78 55.44 88.42C57.82 88.06 59.26 87.26 60.84 84.89C61.70 83.59 62.35 81.07 62.86 76.68L67.90 76.68L67.90 70.92L63.36 70.92C63.65 66.67 63.86 61.27 64.08 54.50Z"/></svg>
