<svg xmlns="http://www.w3.org/2000/svg" xmlns:xlink="http://www.w3.org/1999/xlink" width="72.00000000000001" height="106.56000000000002"><path fill="red" stroke="red" d="M68.69 70.34L68.69 64.30L48.60 64.30C48.67 63.00 48.74 61.78 48.74 60.55L48.74 56.09L65.23 56.09L65.23 50.26L36.72 50.26C37.37 48.53 38.09 46.80 38.66 45.07L32.69 43.56C36.43 43.13 43.56 42.62 58.39 41.69C59.54 43.27 60.55 44.86 61.20 46.08L66.96 42.62C64.51 38.45 59.18 31.90 55.01 27.29L49.68 30.24C51.19 32.04 52.85 34.13 54.43 36.14L36.94 37.15C40.68 33.77 44.50 29.59 47.81 25.42L40.97 23.18C37.44 28.80 32.04 34.20 30.31 35.57C28.73 37.08 27.36 38.09 25.99 38.30C26.78 39.96 27.79 43.13 28.15 44.50C29.02 44.14 29.95 43.92 32.26 43.63C30.53 49.03 27.79 54.65 24.48 58.61L23.33 53.35L17.42 55.58L17.42 43.34L23.98 43.34L23.98 37.15L17.42 37.15L17.42 23.26L11.16 23.26L11.16 37.15L3.38 37.15L3.38 43.34L11.16 43.34L11.16 57.89C7.92 59.04 4.97 60.05 2.52 60.84L4.39 67.25L11.16 64.66L11.16 81.22C11.16 82.15 10.80 82.44 10.01 82.44C9.22 82.44 6.70 82.44 4.18 82.37C4.97 84.10 5.83 87.05 5.98 88.70C10.22 88.78 12.96 88.49 14.98 87.41C16.85 86.40 17.42 84.53 17.42 81.22L17.42 62.21C19.51 61.34 21.60 60.48 23.69 59.62C25.20 60.55 27.94 62.28 29.16 63.22C30.74 61.27 32.40 58.75 33.84 56.09L42.19 56.09L42.19 60.41C42.19 61.70 42.12 62.93 41.98 64.30L23.04 64.30L23.04 70.34L40.25 70.34C37.73 75.38 32.54 80.35 21.46 83.95C22.68 85.18 24.34 87.77 25.06 89.42C39.31 84.60 45.07 77.47 47.38 70.34ZM46.94 74.88C52.92 78.98 60.70 85.03 64.37 88.85L69.12 84.38C65.23 80.57 57.38 74.88 51.41 70.99Z"/></svg>
