<svg xmlns="http://www.w3.org/2000/svg" xmlns:xlink="http://www.w3.org/1999/xlink" width="72.00000000000001" height="106.56000000000002"><path fill="red" stroke="red" d="M52.49 46.87L44.57 46.87L44.57 52.63L52.49 52.63L52.49 68.40L42.55 68.40L42.55 74.09L68.18 74.09L68.18 68.40L58.68 68.40L58.68 52.63L66.31 52.63L66.31 46.87L58.68 46.87L58.68 31.97C62.14 31.03 65.38 30.17 68.11 29.02L63.43 24.26C58.32 26.50 49.46 28.58 41.76 29.95C42.48 31.25 43.42 33.48 43.63 34.78C46.51 34.42 49.54 33.91 52.49 33.34ZM23.47 59.69L22.39 53.64L16.63 55.66L16.63 43.34L23.11 43.34L23.11 37.15L16.63 37.15L16.63 23.18L10.87 23.18L10.87 37.15L3.46 37.15L3.46 43.34L10.87 43.34L10.87 57.74C7.85 58.75 5.11 59.69 2.81 60.41L4.54 66.82C6.48 66.17 8.64 65.38 10.87 64.51L10.87 81.65C10.87 82.58 10.51 82.80 9.65 82.80C8.93 82.87 6.41 82.87 3.74 82.73C4.54 84.38 5.26 87.05 5.54 88.63C9.65 88.63 12.38 88.42 14.26 87.41C15.98 86.40 16.63 84.74 16.63 81.58L16.63 62.35ZM37.73 47.66L36.79 47.81L32.26 47.81C34.85 41.33 37.94 33.05 40.25 26.21L23.40 26.21L23.40 31.82L32.04 31.82C29.52 39.24 26.35 47.59 23.83 53.14L35.21 53.14C34.63 58.75 33.70 63.65 32.40 67.90C31.10 65.23 30.02 62.06 29.16 58.32L24.41 59.90C25.85 65.95 27.65 70.63 29.81 74.38C27.58 78.98 24.62 82.37 21.02 84.53C22.25 85.75 23.83 87.91 24.70 89.42C28.37 86.98 31.32 83.81 33.70 79.78C39.74 86.18 47.52 87.77 56.59 87.77L67.61 87.77C67.90 86.04 68.83 83.16 69.77 81.65C67.10 81.72 59.04 81.72 56.95 81.72C49.10 81.72 41.90 80.28 36.50 74.16C39.17 67.46 40.68 58.97 41.40 48.17Z"/></svg>
