<svg xmlns="http://www.w3.org/2000/svg" xmlns:xlink="http://www.w3.org/1999/xlink" width="72.00000000000001" height="106.56000000000002"><path fill="red" stroke="red" d="M33.77 58.61L33.77 47.66L43.56 47.66C43.34 51.55 43.13 55.30 42.62 58.61ZM49.82 34.92C48.60 37.30 47.09 39.96 45.58 42.05L33.62 42.05C35.57 39.82 37.37 37.37 38.81 34.92ZM59.54 58.61L49.03 58.61C49.46 55.22 49.75 51.48 49.97 47.66L59.54 47.66ZM55.01 82.51C52.92 82.51 52.56 82.22 52.56 80.28L52.56 64.30L66.02 64.30L66.02 42.05L52.34 42.05C54.58 38.81 56.81 34.99 58.32 31.75L54.22 29.09L53.21 29.38L41.98 29.38C42.91 27.58 43.78 25.85 44.50 24.12L38.16 23.11C35.71 29.38 31.18 37.01 24.34 42.91L24.34 37.15L17.71 37.15L17.71 23.26L11.52 23.26L11.52 37.15L3.53 37.15L3.53 43.34L11.52 43.34L11.52 57.82C8.14 58.82 5.04 59.69 2.52 60.26L4.10 66.74L11.52 64.51L11.52 81.14C11.52 82.15 11.16 82.44 10.30 82.44C9.50 82.44 6.77 82.44 3.96 82.37C4.75 84.10 5.54 86.98 5.76 88.56C10.30 88.56 13.10 88.42 15.12 87.26C16.99 86.26 17.71 84.46 17.71 81.14L17.71 62.57C20.02 61.85 22.39 61.06 24.77 60.26L23.90 54.22L17.71 56.09L17.71 43.34L23.83 43.34L22.97 44.06C24.48 44.86 26.57 46.58 27.65 47.95L27.65 64.30L41.54 64.30C39.10 73.44 33.77 80.21 20.88 84.17C22.25 85.39 23.90 87.77 24.62 89.35C36.94 85.18 43.13 78.70 46.37 69.98L46.37 80.28C46.37 86.18 47.88 87.91 54.14 87.91L62.35 87.91C67.54 87.91 69.12 85.54 69.70 76.39C68.11 75.96 65.59 74.95 64.30 73.94C64.01 81.36 63.72 82.51 61.78 82.51Z"/></svg>
