<svg xmlns="http://www.w3.org/2000/svg" xmlns:xlink="http://www.w3.org/1999/xlink" width="72.00000000000001" height="106.56000000000002"><path fill="red" stroke="red" d="M62.06 23.47C53.57 25.78 38.66 27.29 26.21 28.01C26.86 29.38 27.50 31.61 27.72 33.12C40.46 32.47 56.02 31.03 66.17 28.44ZM50.69 42.55C50.26 40.03 48.96 35.93 47.66 32.90L42.34 34.13C43.56 37.30 44.78 41.40 45.07 43.99ZM37.94 43.13C37.30 40.61 35.42 36.86 33.62 33.98L28.58 35.64C30.31 38.59 31.97 42.55 32.62 45.07ZM31.54 50.69L61.92 50.69L61.92 56.74L68.11 56.74L68.11 45.14L59.90 45.14C61.99 41.90 64.37 37.66 66.46 33.91L60.19 31.97C58.75 36.00 55.94 41.47 53.64 45.14L25.56 45.14L25.56 56.74L31.54 56.74ZM25.13 59.62L24.26 53.57C22.03 54.29 19.73 54.94 17.57 55.51L17.57 43.34L24.62 43.34L24.62 37.15L17.57 37.15L17.57 23.26L11.38 23.26L11.38 37.15L2.95 37.15L2.95 43.34L11.38 43.34L11.38 57.38C7.92 58.39 4.75 59.18 2.23 59.90L3.74 66.31C6.05 65.59 8.71 64.87 11.38 64.01L11.38 81.79C11.38 82.80 11.02 83.02 10.15 83.02C9.36 83.09 6.62 83.09 3.74 83.02C4.61 84.74 5.40 87.62 5.62 89.21C10.15 89.21 13.03 88.99 14.98 87.91C16.85 86.90 17.57 85.10 17.57 81.79L17.57 61.99ZM55.51 63.65C53.28 67.90 50.11 71.35 46.15 74.16C42.48 71.28 39.53 67.75 37.44 63.65ZM59.90 57.89L58.82 58.18L29.23 58.18L29.23 63.65L35.06 63.65L31.46 64.73C33.77 69.70 36.86 74.02 40.68 77.54C35.35 80.28 29.23 82.15 22.75 83.16C23.90 84.60 25.27 87.41 25.70 89.06C33.05 87.48 39.96 85.18 45.86 81.65C51.12 85.25 57.53 87.70 65.02 89.28C65.81 87.48 67.61 84.89 68.98 83.45C62.28 82.37 56.38 80.42 51.41 77.69C57.02 73.15 61.34 67.18 63.86 59.54Z"/></svg>
