<svg xmlns="http://www.w3.org/2000/svg" xmlns:xlink="http://www.w3.org/1999/xlink" width="72.00000000000001" height="106.56000000000002"><path fill="red" stroke="red" d="M23.47 54.36L17.42 56.16L17.42 43.34L23.54 43.34L23.54 37.15L17.42 37.15L17.42 23.26L11.30 23.26L11.30 37.15L3.60 37.15L3.60 43.34L11.30 43.34L11.30 57.96C8.06 58.82 5.04 59.69 2.52 60.26L4.18 66.74L11.30 64.58L11.30 81.22C11.30 82.15 11.02 82.44 10.15 82.44C9.36 82.44 6.91 82.44 4.25 82.37C5.11 84.10 5.90 86.98 6.05 88.56C10.30 88.56 13.10 88.34 14.98 87.26C16.85 86.26 17.42 84.46 17.42 81.22L17.42 62.64C19.73 61.92 22.10 61.20 24.34 60.41ZM50.76 79.92L50.76 43.92L68.76 43.92L68.76 38.02L50.76 38.02L50.76 31.61L65.59 31.61L65.59 25.70L29.30 25.70L29.30 31.61L44.50 31.61L44.50 38.02L26.06 38.02L26.06 43.92L44.50 43.92L44.50 79.92L34.13 79.92L34.13 70.56L41.90 70.56L41.90 65.02L34.13 65.02L34.13 56.09C37.44 55.15 40.97 54.07 43.70 52.63L38.81 48.31C36.29 49.97 31.75 51.62 27.72 52.63L27.72 89.28L34.13 89.28L34.13 85.75L61.20 85.75L61.20 89.14L67.39 89.14L67.39 50.83L52.85 50.83L52.85 56.52L61.20 56.52L61.20 64.94L53.21 64.94L53.21 70.49L61.20 70.49L61.20 79.92Z"/></svg>
