<svg xmlns="http://www.w3.org/2000/svg" xmlns:xlink="http://www.w3.org/1999/xlink" width="72.00000000000001" height="106.56000000000002"><path fill="red" stroke="red" d="M35.06 67.10L35.06 45.72L45.36 45.72C43.20 50.47 39.38 54.86 35.14 57.74C36.36 58.39 38.52 59.98 39.46 60.84C41.90 58.90 44.50 56.30 46.66 53.42C50.18 55.66 54.07 58.46 56.16 60.55L58.82 57.38L58.82 67.10L49.32 67.10C49.68 65.09 49.97 62.86 50.18 60.55L43.70 60.55C43.49 62.93 43.27 65.16 42.84 67.10ZM49.25 33.98C48.17 36.22 46.80 38.45 45.50 40.32L34.99 40.32C36.65 38.23 38.09 36.14 39.38 33.98ZM58.82 56.45C56.52 54.43 52.56 51.77 49.03 49.75C49.75 48.53 50.40 47.38 50.90 46.15L49.25 45.72L58.82 45.72ZM68.98 72.50L68.98 67.10L64.51 67.10L64.51 40.32L51.91 40.32C53.86 37.37 56.02 33.91 57.38 30.96L53.42 28.44L52.42 28.66L42.34 28.66C43.06 27.14 43.78 25.63 44.35 24.12L38.09 23.18C35.78 29.38 31.32 37.08 24.34 42.70L24.34 37.15L17.64 37.15L17.64 23.11L11.23 23.11L11.23 37.15L3.24 37.15L3.24 43.34L11.23 43.34L11.23 57.60C7.92 58.61 4.90 59.47 2.38 60.19L4.03 66.60C6.19 65.88 8.71 65.09 11.23 64.22L11.23 81.14C11.23 82.08 10.94 82.37 10.08 82.37C9.29 82.37 6.77 82.37 4.10 82.30C4.97 84.17 5.76 87.12 5.90 88.85C10.30 88.85 13.10 88.56 15.12 87.48C16.99 86.40 17.64 84.46 17.64 81.07L17.64 61.99L25.06 59.47L23.98 53.50L17.64 55.51L17.64 43.34L24.34 43.34L24.34 42.91C25.70 43.92 27.43 46.01 28.22 47.30C28.66 46.94 29.09 46.51 29.52 46.15L29.52 67.10L23.90 67.10L23.90 72.50L41.18 72.50C38.52 78.26 33.26 81.94 21.74 84.02C22.97 85.32 24.48 87.70 25.06 89.28C39.17 86.26 45.29 80.86 48.02 72.50ZM49.03 76.18C54.43 80.28 61.70 86.04 65.23 89.50L69.55 85.25C65.81 81.94 58.39 76.39 53.06 72.58Z"/></svg>
