<svg xmlns="http://www.w3.org/2000/svg" xmlns:xlink="http://www.w3.org/1999/xlink" width="72.00000000000001" height="106.56000000000002"><path fill="red" stroke="red" d="M17.71 42.62C17.21 41.11 16.34 39.31 15.41 37.87L26.57 37.87C26.06 39.31 25.27 41.11 24.55 42.62ZM10.44 39.02C11.09 40.10 11.81 41.33 12.31 42.62L6.98 42.62L6.98 46.80L17.78 46.80L17.78 49.82L4.61 49.82L4.61 54.00L17.78 54.00L17.78 58.03L23.90 58.03L23.90 54.00L35.21 54.00C36.14 55.08 37.22 56.45 37.66 57.46C42.41 55.30 45.50 52.27 47.52 48.38C49.32 49.68 50.76 50.98 51.91 52.06L55.22 47.81C53.78 46.44 51.84 44.93 49.54 43.49C50.26 40.90 50.69 38.09 51.05 34.99L56.59 34.99C56.59 51.55 57.46 57.89 64.30 57.89C68.11 57.89 69.26 55.66 69.91 49.25C68.69 48.60 67.25 47.16 66.17 45.94C66.02 50.04 65.74 52.63 64.73 52.63C62.06 52.63 62.28 46.37 62.35 29.81L51.41 29.81C51.48 27.72 51.55 25.42 51.62 23.11L46.08 23.11C46.01 25.49 46.01 27.72 45.86 29.81L38.02 29.81L38.09 34.99L45.58 34.99C45.36 37.01 45.00 38.88 44.57 40.54C43.20 39.74 41.69 39.02 40.25 38.38L37.15 42.19C38.95 43.13 40.97 44.21 42.91 45.36C41.40 48.24 39.24 50.54 36.07 52.27L36.07 49.82L23.90 49.82L23.90 46.80L34.99 46.80L34.99 42.62L30.02 42.62C30.74 41.40 31.46 40.10 32.18 38.66L28.94 37.87L37.44 37.87L37.44 33.70L23.90 33.70L23.90 30.96L34.42 30.96L34.42 26.78L23.90 26.78L23.90 23.26L17.78 23.26L17.78 26.78L7.06 26.78L7.06 30.96L17.78 30.96L17.78 33.70L4.03 33.70L4.03 37.87L14.47 37.87ZM39.31 71.06L63.65 71.06L63.65 66.46L39.31 66.46L39.31 62.57C47.09 62.06 54.29 61.49 60.19 60.77L56.59 56.74C45.58 58.18 25.92 59.11 9.50 59.26C9.94 60.34 10.51 62.21 10.66 63.36C17.64 63.36 25.27 63.22 32.69 62.86L32.69 66.46L8.93 66.46L8.93 71.06L32.69 71.06L32.69 74.38L3.96 74.38L3.96 79.06L32.69 79.06L32.69 82.87C32.69 83.88 32.33 84.17 31.18 84.17C30.10 84.24 25.92 84.31 22.03 84.17C22.75 85.61 23.76 87.62 24.12 89.21C29.88 89.28 33.55 89.28 36.07 88.42C38.52 87.62 39.31 86.33 39.31 83.02L39.31 79.06L68.04 79.06L68.04 74.38L39.31 74.38Z"/></svg>
