<svg xmlns="http://www.w3.org/2000/svg" xmlns:xlink="http://www.w3.org/1999/xlink" width="72.00000000000001" height="106.56000000000002"><path fill="red" stroke="red" d="M37.51 38.59L37.51 44.35L30.38 44.35L30.38 38.59ZM30.38 66.02L30.38 59.98L37.51 59.98L37.51 66.02ZM37.51 55.08L30.38 55.08L30.38 49.25L37.51 49.25ZM25.20 66.02L20.59 66.02L20.59 71.50L46.15 71.50L46.15 66.02L42.70 66.02L42.70 38.59L46.08 38.59L46.08 33.05L42.70 33.05L42.70 23.83L37.51 23.83L37.51 33.05L30.38 33.05L30.38 23.83L25.20 23.83L25.20 33.05L21.53 33.05L21.53 38.59L25.20 38.59ZM22.18 59.76L21.02 53.71L16.20 55.58L16.20 43.27L21.02 43.27L21.02 37.08L16.20 37.08L16.20 23.11L10.51 23.11L10.51 37.08L3.53 37.08L3.53 43.27L10.51 43.27L10.51 57.67C7.63 58.68 4.97 59.69 2.74 60.41L4.39 66.82L10.51 64.44L10.51 81.65C10.51 82.58 10.22 82.80 9.43 82.80C8.71 82.87 6.34 82.87 3.82 82.73C4.61 84.46 5.26 87.26 5.47 88.85C9.50 88.85 12.10 88.56 13.90 87.55C15.62 86.54 16.20 84.82 16.20 81.58L16.20 62.14ZM26.35 72.72C24.77 77.69 22.18 82.66 19.01 86.04C20.38 86.76 22.75 88.27 23.76 89.28C26.86 85.54 29.95 79.78 31.75 74.16ZM34.42 74.59C36.36 77.33 38.45 81.00 39.24 83.38L44.14 80.93C43.27 78.55 41.04 74.95 39.02 72.43ZM69.12 45.86L53.35 45.86L53.35 33.55C58.39 31.97 63.72 29.88 67.82 27.50L62.50 23.04C59.18 25.49 53.21 28.01 47.81 29.81L47.81 52.63C47.81 62.57 47.45 76.03 42.55 85.46C43.70 86.11 46.08 88.20 46.94 89.28C52.49 79.06 53.35 63.36 53.35 52.63L53.35 51.55L58.54 51.55L58.54 89.14L64.01 89.14L64.01 51.55L69.12 51.55Z"/></svg>
