<svg xmlns="http://www.w3.org/2000/svg" xmlns:xlink="http://www.w3.org/1999/xlink" width="72.00000000000001" height="106.56000000000002"><path fill="red" stroke="red" d="M67.46 41.62L67.46 35.06L37.87 35.06L42.70 32.98C41.69 30.10 39.46 25.78 37.58 22.54L31.03 24.98C32.69 28.08 34.63 32.18 35.57 35.06L4.75 35.06L4.75 41.62L23.62 41.62C22.90 57.46 21.24 74.95 3.38 84.02C5.18 85.39 7.27 87.70 8.28 89.50C21.60 82.30 26.86 70.70 29.16 58.32L53.42 58.32C52.27 73.01 50.98 79.70 48.96 81.36C48.02 82.08 47.09 82.22 45.50 82.22C43.49 82.22 38.59 82.15 33.48 81.72C34.85 83.59 35.78 86.33 35.86 88.27C40.68 88.56 45.36 88.63 48.02 88.42C51.05 88.13 52.92 87.55 54.86 85.61C57.74 82.66 59.11 74.74 60.48 54.86C60.70 53.93 60.77 51.84 60.77 51.84L30.17 51.84C30.60 48.46 30.82 45.00 31.03 41.62Z"/></svg>
