<svg xmlns="http://www.w3.org/2000/svg" xmlns:xlink="http://www.w3.org/1999/xlink" width="72.00000000000001" height="106.56000000000002"><path fill="red" stroke="red" d="M52.27 64.58L52.27 70.49L19.80 70.49L19.80 64.58ZM19.80 81.58L19.80 75.60L52.27 75.60L52.27 81.58ZM13.25 89.14L19.80 89.14L19.80 86.83L52.27 86.83L52.27 88.85L59.11 88.85L59.11 59.40L13.25 59.40ZM31.90 37.01L39.67 37.01L39.67 50.04L31.90 50.04ZM46.01 50.04L46.01 37.01L64.73 37.01L64.73 31.54L51.12 31.54C52.56 29.59 54.00 27.29 55.30 24.98L48.67 22.90C47.59 25.49 45.50 29.02 43.85 31.54L24.48 31.54L27.43 30.24C26.64 28.08 24.55 25.13 22.46 22.90L16.63 25.13C18.22 27.00 19.80 29.52 20.81 31.54L7.85 31.54L7.85 37.01L25.70 37.01L25.70 50.04L3.89 50.04L3.89 55.58L68.26 55.58L68.26 50.04ZM10.73 39.38C12.96 42.62 14.98 47.02 15.77 49.90L21.53 47.59C20.74 44.64 18.58 40.39 16.20 37.30ZM54.94 49.82C56.88 47.09 59.11 42.98 61.06 39.02L54.94 37.15C53.78 40.46 51.48 45.14 49.75 48.10Z"/></svg>
