<svg xmlns="http://www.w3.org/2000/svg" xmlns:xlink="http://www.w3.org/1999/xlink" width="72.00000000000001" height="106.56000000000002"><path fill="red" stroke="red" d="M13.46 58.97C13.61 56.30 13.61 53.71 13.61 51.41L13.61 48.38L22.82 48.38L22.82 58.97ZM22.82 31.90L22.82 42.12L13.61 42.12L13.61 31.90ZM29.02 25.70L7.56 25.70L7.56 51.41C7.56 61.92 7.20 76.32 2.45 86.26C4.03 86.83 6.77 88.34 7.92 89.35C11.09 82.73 12.46 73.80 13.10 65.30L22.82 65.30L22.82 81.50C22.82 82.51 22.46 82.80 21.60 82.87C20.66 82.87 17.78 82.94 14.83 82.80C15.70 84.46 16.49 87.55 16.63 89.21C21.46 89.28 24.41 89.14 26.42 87.98C28.44 86.90 29.02 84.89 29.02 81.65ZM40.68 56.45L41.98 56.45C44.14 63.50 47.09 69.98 50.90 75.46C47.88 79.06 44.42 82.01 40.68 83.95ZM60.55 56.45C59.11 61.63 57.02 66.24 54.50 70.34C51.62 66.17 49.32 61.49 47.66 56.45ZM63.86 50.11L62.78 50.33L40.68 50.33L40.68 32.11L59.26 32.11L59.26 39.60C59.26 40.46 58.90 40.68 57.74 40.68C56.74 40.75 52.70 40.75 48.74 40.61C49.54 42.19 50.54 44.57 50.83 46.30C56.16 46.30 59.98 46.30 62.50 45.36C65.02 44.50 65.66 42.77 65.66 39.67L65.66 25.85L34.34 25.85L34.34 89.21L40.68 89.21L40.68 84.10C42.05 85.25 43.70 87.41 44.57 88.92C48.31 86.69 51.62 83.88 54.65 80.42C57.82 84.02 61.49 87.05 65.59 89.28C66.60 87.62 68.40 85.32 69.91 84.10C65.59 82.08 61.78 79.06 58.46 75.46C62.78 69.05 66.02 61.13 67.75 51.48Z"/></svg>
