<svg xmlns="http://www.w3.org/2000/svg" xmlns:xlink="http://www.w3.org/1999/xlink" width="72.00000000000001" height="106.56000000000002"><path fill="red" stroke="red" d="M24.19 70.78C19.58 75.53 10.73 79.70 2.52 81.50C4.03 82.87 5.98 85.39 6.98 87.12C15.48 84.53 24.62 79.20 29.74 73.01ZM23.62 46.22L48.38 46.22L48.38 51.62L23.62 51.62ZM48.38 35.86L48.38 40.97L23.62 40.97L23.62 35.86ZM67.75 68.62L67.75 62.71L39.31 62.71L39.31 57.17L55.22 57.17L55.22 35.86L67.61 35.86L67.61 30.17L55.22 30.17L55.22 23.18L48.38 23.18L48.38 30.17L23.62 30.17L23.62 23.18L17.06 23.18L17.06 30.17L4.54 30.17L4.54 35.86L17.06 35.86L17.06 57.17L32.54 57.17L32.54 62.71L4.39 62.71L4.39 68.62L32.54 68.62L32.54 89.14L39.31 89.14L39.31 68.62ZM43.92 74.74C50.83 78.41 59.83 84.10 64.08 87.91L68.33 82.94C63.79 79.27 54.72 73.94 47.88 70.42Z"/></svg>
