<svg xmlns="http://www.w3.org/2000/svg" xmlns:xlink="http://www.w3.org/1999/xlink" width="72.00000000000001" height="106.56000000000002"><path fill="red" stroke="red" d="M18.79 23.18L12.60 23.18L12.60 36.72L3.74 36.72L3.74 42.91L12.02 42.91C10.08 51.55 6.05 61.63 1.73 67.03C2.81 68.76 4.32 71.78 4.97 73.66C7.78 69.77 10.51 63.50 12.60 56.95L12.60 89.21L18.79 89.21L18.79 53.93C20.38 56.81 21.82 59.83 22.61 61.63L26.57 57.02C25.49 55.22 20.88 48.46 18.79 45.79L18.79 42.91L26.64 42.91L26.64 36.72L18.79 36.72ZM49.32 68.83L49.32 62.14L59.54 62.14L59.54 68.83ZM33.41 68.83L33.41 62.14L43.20 62.14L43.20 68.83ZM43.20 50.11L43.20 56.38L33.41 56.38L33.41 50.11ZM59.54 56.38L49.32 56.38L49.32 50.11L59.54 50.11ZM65.81 44.21L56.02 44.21L56.95 42.62C55.58 41.76 53.86 40.82 51.91 39.82C56.88 36.65 61.63 32.47 65.02 28.37L60.91 25.34L59.62 25.63L28.01 25.63L28.01 31.32L53.86 31.32C51.48 33.41 48.67 35.42 45.94 37.08C42.84 35.71 39.60 34.49 36.79 33.62L33.84 38.16C38.30 39.67 43.49 41.98 47.81 44.21L27.36 44.21L27.36 89.14L33.41 89.14L33.41 74.66L43.20 74.66L43.20 88.70L49.32 88.70L49.32 74.66L59.54 74.66L59.54 82.15C59.54 82.94 59.26 83.23 58.46 83.23C57.82 83.30 55.30 83.30 52.85 83.23C53.64 84.74 54.43 87.48 54.72 89.14C58.75 89.14 61.42 89.06 63.36 88.06C65.23 87.05 65.81 85.25 65.81 82.30Z"/></svg>
