<svg xmlns="http://www.w3.org/2000/svg" xmlns:xlink="http://www.w3.org/1999/xlink" width="72.00000000000001" height="106.56000000000002"><path fill="red" stroke="red" d="M59.33 36.43L37.51 36.43L37.51 31.10L59.33 31.10ZM59.33 46.73L37.51 46.73L37.51 41.26L59.33 41.26ZM65.88 25.92L31.25 25.92L31.25 51.84L65.88 51.84ZM29.16 62.21C27.86 60.19 22.03 51.55 20.02 48.96L20.02 44.35L28.30 44.35L28.30 38.16L20.02 38.16L20.02 23.11L13.75 23.11L13.75 38.16L3.89 38.16L3.89 44.35L13.18 44.35C11.02 53.57 6.77 64.22 2.38 70.20C3.46 71.71 4.97 74.30 5.62 76.18C8.64 71.93 11.45 65.45 13.75 58.46L13.75 89.14L20.02 89.14L20.02 57.17C22.10 60.70 24.34 64.80 25.42 67.18ZM69.05 69.26L51.70 69.26L51.70 62.42L67.39 62.42L67.39 56.38L29.45 56.38L29.45 62.42L45.00 62.42L45.00 69.26L26.86 69.26L26.86 75.31L45.00 75.31L45.00 89.28L51.70 89.28L51.70 75.31L69.05 75.31Z"/></svg>
