<svg xmlns="http://www.w3.org/2000/svg" xmlns:xlink="http://www.w3.org/1999/xlink" width="72.00000000000001" height="106.56000000000002"><path fill="red" stroke="red" d="M68.83 53.42C66.17 49.61 60.84 42.91 56.95 38.16L52.27 41.11C53.64 42.84 55.15 44.71 56.52 46.58L36.79 47.74C39.53 44.71 42.19 41.26 44.86 37.66L67.39 37.66L67.39 31.90L48.74 31.90C50.11 29.88 51.48 27.79 52.63 25.63L46.01 23.11C44.50 26.06 42.84 29.09 41.04 31.90L26.93 31.90L26.93 37.66L37.22 37.66C35.06 40.75 33.12 43.13 32.18 44.21C29.95 46.73 28.51 48.31 26.86 48.74C27.58 50.40 28.66 53.57 29.02 54.94C31.18 54.07 34.56 53.71 60.48 51.98C61.85 53.86 63.00 55.58 63.86 56.95ZM27.36 58.68C26.21 56.66 21.02 48.60 19.08 45.94L19.08 42.84L25.78 42.84L25.78 36.65L19.08 36.65L19.08 23.11L12.96 23.11L12.96 36.65L3.67 36.65L3.67 42.84L12.46 42.84C10.44 52.20 6.34 63.00 1.94 68.69C3.10 70.49 4.61 73.44 5.26 75.31C8.06 71.14 10.80 64.66 12.96 57.74L12.96 89.21L19.08 89.21L19.08 54.14C20.74 57.46 22.54 61.06 23.47 63.29ZM31.46 65.30C31.46 71.57 30.53 79.06 22.68 84.74C23.98 85.68 26.06 87.84 26.86 89.21C36.07 82.58 37.30 73.37 37.30 65.38L37.30 57.02L31.46 57.02ZM42.91 85.90L48.82 85.90L48.82 57.82L42.91 57.82ZM61.42 82.87C60.48 82.87 60.34 82.30 60.34 80.21L60.34 57.17L54.79 57.17L54.79 80.14C54.79 85.82 55.94 87.91 61.27 87.91L65.45 87.91C66.82 87.91 68.18 87.84 69.12 87.48C68.90 86.18 68.69 83.95 68.62 82.51C67.75 82.73 66.31 82.87 65.45 82.87Z"/></svg>
