<svg xmlns="http://www.w3.org/2000/svg" xmlns:xlink="http://www.w3.org/1999/xlink" width="72.00000000000001" height="106.56000000000002"><path fill="red" stroke="red" d="M36.14 42.91L44.57 42.91L44.57 49.10L36.14 49.10ZM36.14 31.54L44.57 31.54L44.57 37.66L36.14 37.66ZM58.75 37.66L50.62 37.66L50.62 31.54L58.75 31.54ZM58.75 49.10L50.62 49.10L50.62 42.91L58.75 42.91ZM68.62 65.95L68.62 59.83L50.90 59.83L50.90 54.50L65.09 54.50L65.09 26.14L30.10 26.14L30.10 54.50L44.28 54.50L44.28 59.83L27.00 59.83L28.15 58.54C26.93 56.52 21.67 48.31 19.73 45.65L19.73 42.91L26.78 42.91L26.78 36.72L19.73 36.72L19.73 23.18L13.54 23.18L13.54 36.72L3.60 36.72L3.60 42.91L12.96 42.91C10.87 52.20 6.62 63.00 2.09 68.69C3.24 70.49 4.75 73.44 5.47 75.31C8.42 71.06 11.30 64.37 13.54 57.17L13.54 89.14L19.73 89.14L19.73 54.00C21.46 57.31 23.18 60.98 24.05 63.22L27.00 59.83L27.00 65.95L41.11 65.95C37.08 72.29 30.67 78.34 24.41 81.58C25.78 82.66 27.79 85.03 28.80 86.54C34.56 83.09 40.10 77.26 44.28 70.78L44.28 89.14L50.90 89.14L50.90 69.91C54.86 76.25 60.26 82.30 65.09 85.90C66.24 84.24 68.26 81.94 69.77 80.78C64.37 77.62 58.46 71.78 54.43 65.95Z"/></svg>
