<svg xmlns="http://www.w3.org/2000/svg" xmlns:xlink="http://www.w3.org/1999/xlink" width="72.00000000000001" height="106.56000000000002"><path fill="red" stroke="red" d="M18.58 42.91L26.78 42.91L26.78 36.72L18.58 36.72L18.58 23.18L12.31 23.18L12.31 36.72L3.53 36.72L3.53 42.91L12.24 42.91C10.22 52.20 6.19 63.00 1.87 68.69C3.02 70.49 4.54 73.44 5.18 75.38C7.78 71.50 10.30 65.52 12.31 59.11L12.31 89.21L18.58 89.21L18.58 54.36C20.23 57.67 21.89 61.06 22.68 63.22L26.78 58.32C25.63 56.38 20.59 48.53 18.58 45.79ZM38.09 69.70L49.32 69.70L49.32 78.12L38.09 78.12ZM49.32 49.82L38.09 49.82L38.09 42.05L49.32 42.05ZM49.32 63.72L38.09 63.72L38.09 55.87L49.32 55.87ZM68.47 78.12L55.58 78.12L55.58 69.70L65.74 69.70L65.74 63.72L55.58 63.72L55.58 55.87L65.74 55.87L65.74 49.82L55.58 49.82L55.58 42.05L67.97 42.05L67.97 36.00L53.50 36.00L57.96 33.98C57.10 31.10 54.86 26.93 52.92 23.62L47.30 26.06C49.03 29.09 50.90 33.19 51.84 36.00L39.67 36.00C41.33 32.40 42.84 28.66 44.06 25.20L37.51 23.47C35.06 31.90 29.88 42.77 23.69 49.39C24.98 50.69 26.78 53.06 27.72 54.50C29.16 52.99 30.46 51.34 31.82 49.46L31.82 89.35L38.09 89.35L38.09 84.31L68.47 84.31Z"/></svg>
