<svg xmlns="http://www.w3.org/2000/svg" xmlns:xlink="http://www.w3.org/1999/xlink" width="72.00000000000001" height="106.56000000000002"><path fill="red" stroke="red" d="M25.70 58.61C24.55 56.45 19.66 47.74 18.00 45.29L18.00 42.91L25.20 42.91L25.20 36.72L18.00 36.72L18.00 23.18L12.38 23.18L12.38 36.72L3.53 36.72L3.53 42.91L11.74 42.91C9.94 52.13 6.12 63.00 2.02 68.76C3.17 70.49 4.54 73.51 5.18 75.46C7.85 71.14 10.44 64.51 12.38 57.46L12.38 89.14L18.00 89.14L18.00 53.86C19.58 57.24 21.10 60.98 21.89 63.14ZM43.13 51.12C43.78 52.99 44.42 55.37 44.78 57.31L27.79 57.31L27.79 62.93L38.02 62.93C37.15 73.15 34.70 80.28 24.34 84.38C25.63 85.46 27.43 87.77 28.08 89.28C36.14 85.90 40.25 80.93 42.41 74.30L56.95 74.30C56.45 79.70 55.80 82.15 55.08 82.94C54.50 83.52 53.86 83.59 52.70 83.59C51.62 83.59 48.82 83.59 45.86 83.30C46.73 84.82 47.38 87.19 47.52 88.92C50.83 89.06 54.07 89.06 55.73 88.85C57.74 88.70 59.11 88.27 60.41 86.98C62.14 85.18 62.93 80.93 63.72 71.28C63.79 70.42 63.86 68.83 63.86 68.83L43.70 68.83C43.99 66.96 44.28 65.02 44.42 62.93L66.82 62.93L66.82 57.31L51.48 57.31C51.12 55.22 50.33 52.34 49.39 50.11ZM58.25 43.27C59.26 41.11 60.26 38.52 61.27 36.00L55.58 35.06L66.74 35.06L66.74 29.66L51.19 29.66C50.83 27.50 50.18 24.84 49.32 22.75L43.20 23.54C43.78 25.42 44.21 27.65 44.57 29.66L27.72 29.66L27.72 35.06L54.65 35.06C54.00 37.44 53.06 40.68 51.98 43.27L42.77 43.27C42.34 41.18 41.26 37.73 40.25 35.21L34.34 36.29C35.14 38.38 35.93 41.18 36.36 43.27L26.71 43.27L26.71 55.15L32.76 55.15L32.76 48.60L61.70 48.60L61.70 55.08L68.11 55.08L68.11 43.27Z"/></svg>
