<svg xmlns="http://www.w3.org/2000/svg" xmlns:xlink="http://www.w3.org/1999/xlink" width="72.00000000000001" height="106.56000000000002"><path fill="red" stroke="red" d="M49.90 35.64L44.64 35.64L44.64 31.61L49.90 31.61ZM60.62 40.61L60.62 47.74L54.86 47.74L54.86 40.61ZM44.64 40.61L49.90 40.61L49.90 47.74L44.64 47.74ZM34.42 40.61L39.67 40.61L39.67 47.74L34.42 47.74ZM39.67 35.64L28.87 35.64L28.87 52.70L66.38 52.70L66.38 35.64L54.86 35.64L54.86 31.61L67.68 31.61L67.68 26.21L27.36 26.21L27.36 31.61L39.67 31.61ZM63.29 61.13L63.29 55.87L31.97 55.87L31.97 61.13ZM28.22 59.26C27.00 57.24 21.74 48.96 19.80 46.44L19.80 42.91L27.29 42.91L27.29 36.72L19.80 36.72L19.80 23.18L13.68 23.18L13.68 36.72L4.10 36.72L4.10 42.91L12.82 42.91C10.66 51.77 6.55 62.57 2.30 68.26C3.38 69.98 4.90 72.94 5.54 74.95C8.57 70.34 11.45 63.22 13.68 55.73L13.68 89.21L19.80 89.21L19.80 54.65C21.60 58.03 23.33 61.70 24.26 63.86ZM34.13 72.58C32.04 76.75 28.44 81.00 24.70 83.88C26.14 84.74 28.58 86.47 29.74 87.48C33.48 84.24 37.51 79.20 40.03 74.23ZM67.97 70.56L67.97 65.23L27.50 65.23L27.50 70.56L44.28 70.56L44.28 89.21L50.33 89.21L50.33 70.56ZM54.29 75.24C57.74 78.77 61.63 83.81 63.36 87.12L68.54 84.02C66.67 80.78 62.78 76.03 59.18 72.50Z"/></svg>
