<svg xmlns="http://www.w3.org/2000/svg" xmlns:xlink="http://www.w3.org/1999/xlink" width="72.00000000000001" height="106.56000000000002"><path fill="red" stroke="red" d="M53.42 38.66L59.40 38.66L59.40 34.06L68.54 34.06L68.54 28.58L59.40 28.58L59.40 23.18L53.42 23.18L53.42 28.58L47.88 28.58L47.88 34.06L53.42 34.06ZM34.34 38.66L40.32 38.66L40.32 34.13L45.79 34.13L45.79 28.66L40.32 28.66L40.32 23.18L34.34 23.18L34.34 28.66L26.21 28.66L26.21 34.13L34.34 34.13ZM27.36 59.04C26.21 56.88 20.88 47.81 19.01 45.00L19.01 42.84L26.78 42.84L26.78 36.72L19.01 36.72L19.01 23.11L12.96 23.11L12.96 36.72L4.18 36.72L4.18 42.91L12.53 42.91C10.58 51.77 6.55 62.50 2.52 68.26C3.60 69.98 5.11 72.94 5.76 74.95C8.42 70.78 10.94 64.44 12.96 57.67L12.96 89.21L19.01 89.21L19.01 54.00C20.74 57.46 22.39 61.34 23.26 63.72ZM35.50 53.93L58.10 53.93L58.10 58.18L35.50 58.18ZM35.50 45.14L58.10 45.14L58.10 49.32L35.50 49.32ZM67.82 73.80L67.82 68.18L49.25 68.18C49.61 66.53 49.82 64.87 50.04 63.00L64.58 63.00L64.58 40.25L29.23 40.25L29.23 63.00L43.42 63.00C43.20 64.87 42.98 66.53 42.55 68.18L25.06 68.18L25.06 73.80L40.54 73.80C37.87 78.55 32.98 81.86 23.04 83.88C24.26 85.18 25.92 87.70 26.57 89.28C39.17 86.18 44.93 81.14 47.74 73.80L50.69 73.80L46.73 77.98C52.78 81.22 61.06 86.04 65.23 88.92L69.41 84.17C65.09 81.29 56.81 76.82 50.90 73.80Z"/></svg>
