<svg xmlns="http://www.w3.org/2000/svg" xmlns:xlink="http://www.w3.org/1999/xlink" width="72.00000000000001" height="106.56000000000002"><path fill="red" stroke="red" d="M53.21 37.15L59.47 37.15L59.47 32.98L68.62 32.98L68.62 28.01L59.47 28.01L59.47 23.04L53.21 23.04L53.21 28.01L47.88 28.01L47.88 32.98L53.21 32.98ZM67.54 49.39L67.54 38.45L26.14 38.45L26.14 49.39L31.61 49.39L31.61 43.06L61.78 43.06L61.78 49.39ZM58.75 50.40L58.75 46.44L34.99 46.44L34.99 50.40ZM33.84 37.15L39.96 37.15L39.96 33.05L44.93 33.05L44.93 28.08L39.96 28.08L39.96 23.04L33.84 23.04L33.84 28.08L24.70 28.08L24.70 33.05L33.84 33.05ZM26.21 60.77C25.06 58.97 20.38 51.77 18.50 49.18L18.50 44.50L24.34 44.50L24.34 38.30L18.50 38.30L18.50 23.11L12.46 23.11L12.46 38.30L3.89 38.30L3.89 44.50L11.88 44.50C10.15 53.64 6.41 64.30 2.52 70.20C3.60 71.71 4.97 74.30 5.69 76.03C8.21 72.07 10.58 66.17 12.46 59.76L12.46 89.21L18.50 89.21L18.50 56.81C20.23 59.90 21.96 63.43 22.82 65.59ZM63.36 59.47C59.76 61.78 54.14 64.87 49.46 67.03C48.38 64.87 46.94 62.78 45.00 60.91C46.66 60.05 48.10 59.18 49.46 58.25L67.82 58.25L67.82 53.64L26.21 53.64L26.21 58.25L41.76 58.25C36.86 60.62 30.53 62.64 24.77 63.86C25.70 64.80 27.07 66.82 27.58 67.75C31.75 66.60 36.29 65.09 40.54 63.14C41.11 63.79 41.69 64.44 42.19 65.16C37.73 68.11 30.17 71.06 24.05 72.36C25.06 73.37 26.28 75.38 26.78 76.54C32.47 74.81 39.38 71.64 44.35 68.54C44.71 69.41 45.00 70.13 45.29 70.99C39.89 75.38 29.95 79.78 21.89 81.65C22.90 82.66 24.12 84.60 24.77 85.97C31.90 83.74 40.32 79.70 46.30 75.60C46.66 79.06 45.94 81.86 44.64 82.87C43.78 84.02 42.70 84.10 41.26 84.10C40.03 84.10 38.23 84.10 36.22 83.81C37.22 85.32 37.73 87.62 37.80 89.06C39.53 89.21 41.11 89.21 42.48 89.21C45.22 89.14 47.02 88.63 48.89 86.76C51.77 84.31 52.99 77.98 51.12 71.50C52.34 71.06 53.57 70.56 54.79 69.98C56.74 77.18 60.12 83.30 65.52 86.62C66.38 85.03 68.26 82.87 69.62 81.79C64.58 79.27 61.34 73.80 59.69 67.75C62.28 66.46 64.94 65.09 67.25 63.72Z"/></svg>
