<svg xmlns="http://www.w3.org/2000/svg" xmlns:xlink="http://www.w3.org/1999/xlink" width="72.00000000000001" height="106.56000000000002"><path fill="red" stroke="red" d="M12.02 51.12L24.26 51.12L24.26 56.02L12.02 56.02ZM23.98 33.84L23.98 38.45L12.02 38.45L12.02 33.84ZM21.10 78.05L21.10 71.57L30.31 71.57L30.31 66.31L21.10 66.31L21.10 60.84L29.88 60.84L29.88 46.22L12.02 46.22L12.02 43.20L29.59 43.20L29.59 29.02L18.58 29.02C19.30 27.50 19.94 25.78 20.66 23.98L13.82 23.04C13.61 24.70 13.10 27.07 12.60 29.02L6.34 29.02L6.34 60.84L15.55 60.84L15.55 78.91L11.23 79.56L11.23 64.30L6.05 64.30L6.05 80.28L2.74 80.71L3.67 86.83C11.30 85.61 21.82 83.88 31.75 82.15L31.46 76.39ZM32.62 60.26L38.09 60.26L38.09 55.15L46.80 55.15L46.80 61.49L34.92 61.49L34.92 83.59L40.68 83.59L40.68 66.74L46.80 66.74L46.80 88.92L52.92 88.92L52.92 66.74L59.40 66.74L59.40 77.47C59.40 78.05 59.18 78.26 58.68 78.26C58.03 78.26 56.38 78.26 54.43 78.19C55.15 79.63 55.73 81.65 55.94 83.23C59.26 83.23 61.63 83.16 63.22 82.37C64.94 81.43 65.30 80.06 65.30 77.54L65.30 61.49L52.92 61.49L52.92 55.15L61.99 55.15L61.99 60.26L67.68 60.26L67.68 50.11L32.62 50.11ZM63.07 33.84L63.07 25.42L36.36 25.42L36.36 30.24L57.02 30.24L57.02 33.84L31.39 33.84L31.39 38.59L57.02 38.59L57.02 42.34L36.14 42.34L36.14 47.02L63.07 47.02L63.07 38.59L69.12 38.59L69.12 33.84Z"/></svg>
