<svg xmlns="http://www.w3.org/2000/svg" xmlns:xlink="http://www.w3.org/1999/xlink" width="72.00000000000001" height="106.56000000000002"><path fill="red" stroke="red" d="M44.35 31.61L53.14 31.61L53.14 43.27C53.14 48.82 54.22 51.12 59.83 51.12L64.58 51.12C66.10 51.12 67.61 51.12 68.47 50.76C68.26 49.32 68.11 47.09 68.04 45.50C67.10 45.79 65.52 45.94 64.58 45.94L60.41 45.94C59.47 45.94 59.26 45.29 59.26 43.34L59.26 25.85L38.16 25.85L38.16 34.49C38.16 39.67 37.30 45.79 30.31 50.40C31.54 51.26 34.06 53.50 34.99 54.72C42.77 49.46 44.35 41.26 44.35 34.63ZM31.25 67.39C25.63 68.26 20.02 69.05 14.83 69.70L14.83 60.70L30.10 60.70L30.10 54.79L14.83 54.79L14.83 46.08L30.17 46.08L30.17 40.25L14.83 40.25L14.83 33.77C20.95 32.04 27.58 29.95 32.69 27.58L27.43 22.54C22.82 24.98 15.26 27.86 8.57 29.81L8.35 29.74L8.35 70.56L2.52 71.35L3.53 77.69L8.35 76.90L8.35 87.91L14.83 87.91L14.83 75.89C20.16 75.02 25.92 74.09 31.54 73.15ZM56.45 60.98C54.72 65.59 52.27 69.48 49.18 72.72C45.86 69.34 43.20 65.38 41.40 60.98ZM60.34 55.08L59.11 55.30L33.41 55.30L33.41 60.98L39.31 60.98L35.78 61.92C37.94 67.54 40.90 72.50 44.57 76.68C39.96 79.99 34.49 82.30 28.37 83.74C29.66 85.10 31.25 87.70 31.82 89.50C38.38 87.55 44.28 84.89 49.32 81.07C53.71 84.60 58.90 87.41 64.94 89.06C65.88 87.34 67.75 84.67 69.12 83.38C63.36 82.08 58.25 79.85 54.07 76.82C58.82 71.71 62.35 65.09 64.44 56.52Z"/></svg>
