<svg xmlns="http://www.w3.org/2000/svg" xmlns:xlink="http://www.w3.org/1999/xlink" width="72.00000000000001" height="106.56000000000002"><path fill="red" stroke="red" d="M31.61 77.98L46.87 77.98L46.87 73.58L10.58 73.58L10.58 77.98L25.20 77.98L25.20 83.16L6.98 83.16L6.98 87.70L50.47 87.70L50.47 83.16L31.61 83.16ZM40.03 57.53C38.95 59.62 37.15 62.42 35.21 65.02C37.73 67.82 39.89 70.56 41.04 72.79L46.01 70.99C44.93 69.26 43.13 66.96 41.18 64.94C42.55 63.07 43.99 60.98 45.36 58.61ZM47.16 52.13L9.94 52.13L9.94 56.66L47.16 56.66ZM27.29 57.53C26.28 59.54 24.48 62.42 22.61 65.02C25.06 67.82 27.07 70.56 28.22 72.79L33.12 71.06C32.11 69.26 30.24 66.96 28.37 64.94C29.74 63.07 31.10 60.98 32.54 58.61ZM20.38 71.06C19.37 69.26 17.64 66.96 15.77 64.94C17.14 63.07 18.43 60.98 19.80 58.61L14.40 57.53C13.46 59.62 11.74 62.35 9.94 65.02C12.38 67.82 14.26 70.56 15.26 72.79ZM12.89 44.06C15.55 41.04 18.00 37.44 20.30 33.70L66.89 33.70L66.89 29.16L22.68 29.16C23.33 27.72 23.98 26.28 24.55 24.77L17.86 23.11C14.76 31.39 9.22 39.38 2.88 44.42C4.46 45.29 7.34 47.23 8.71 48.38C9.72 47.45 10.73 46.44 11.74 45.36L11.74 48.89L50.69 48.89C51.26 71.78 53.06 89.28 63.36 89.28C67.97 89.28 69.34 85.54 69.84 75.96C68.47 75.17 66.82 73.51 65.52 72.07C65.38 78.55 64.94 82.87 63.72 82.87C58.54 82.87 57.24 64.30 57.02 44.06ZM61.56 40.82L61.56 36.72L19.80 36.72L19.80 40.82Z"/></svg>
