<svg xmlns="http://www.w3.org/2000/svg" xmlns:xlink="http://www.w3.org/1999/xlink" width="72.00000000000001" height="106.56000000000002"><path fill="red" stroke="red" d="M66.24 31.75L66.24 27.14L23.47 27.14C23.83 26.50 24.26 25.85 24.62 25.27L17.93 23.04C14.54 29.09 8.78 34.99 2.95 38.74C4.68 39.67 7.56 41.62 8.93 42.91C12.60 40.10 16.63 36.07 20.09 31.75ZM60.98 39.46L60.98 34.92L18.72 34.92L18.72 39.46ZM19.94 74.38C18.36 72.94 15.41 70.85 12.96 69.19L25.63 69.19L25.63 74.66C22.75 75.67 19.73 76.75 16.99 77.76ZM16.63 57.89C16.99 56.88 17.42 55.87 17.78 54.79L39.38 54.79L38.59 57.89ZM44.35 69.62C42.48 71.28 39.38 73.58 36.79 75.24C34.99 74.38 33.26 73.44 31.61 72.65L31.61 69.19L50.62 69.19L50.62 64.51L42.55 64.51C43.85 60.26 45.14 55.66 46.01 51.48L41.83 50.62L40.90 50.90L19.08 50.90L19.73 48.67L13.75 48.02C12.53 52.34 10.87 57.89 9.36 61.56L37.58 61.56L36.72 64.51L4.03 64.51L4.03 69.19L12.24 69.19L9.36 72.29C11.74 74.02 14.76 76.32 16.42 77.90C12.17 79.42 8.14 80.78 4.97 81.72L7.34 86.47C12.60 84.38 19.15 81.79 25.63 79.13L25.63 83.52C25.63 84.31 25.34 84.53 24.48 84.53C23.69 84.60 21.02 84.60 18.22 84.46C18.94 85.75 19.73 87.62 20.09 88.99C24.26 88.99 27.14 88.99 29.09 88.27C31.03 87.55 31.61 86.47 31.61 83.74L31.61 77.76C37.73 81.07 44.86 85.10 48.74 87.70L51.41 83.38C48.89 81.86 45.07 79.63 41.04 77.54C43.63 76.03 46.58 74.23 49.25 72.14ZM10.73 42.77L10.73 47.38L51.48 47.38C51.91 70.27 53.35 87.91 63.29 87.91C67.82 87.91 69.19 84.24 69.70 75.02C68.40 74.16 66.67 72.58 65.38 71.14C65.30 77.47 64.87 81.65 63.72 81.65C59.11 81.65 58.10 62.93 57.96 42.77Z"/></svg>
