<svg xmlns="http://www.w3.org/2000/svg" xmlns:xlink="http://www.w3.org/1999/xlink" width="72.00000000000001" height="106.56000000000002"><path fill="red" stroke="red" d="M25.13 40.75L23.90 41.04L5.04 41.04L5.04 47.81L21.46 47.81C18.14 61.20 11.38 71.57 2.66 77.33C4.32 78.41 6.91 81.00 8.06 82.58C18.14 75.24 26.21 61.42 29.59 42.48ZM58.10 36.07C54.72 40.82 49.39 46.73 44.78 51.12C42.77 47.66 41.11 44.06 39.74 40.39L39.74 23.18L32.69 23.18L32.69 80.42C32.69 81.65 32.18 82.01 31.03 82.01C29.81 82.08 26.06 82.08 22.03 81.86C23.11 83.88 24.19 87.34 24.55 89.35C30.17 89.35 33.98 89.06 36.43 87.84C38.88 86.69 39.74 84.53 39.74 80.42L39.74 54.14C45.86 66.31 54.36 76.46 65.09 82.15C66.17 80.14 68.47 77.40 70.06 76.03C61.34 72.00 53.71 64.87 47.95 56.30C52.99 52.06 59.26 45.86 64.22 40.46Z"/></svg>
