<svg xmlns="http://www.w3.org/2000/svg" xmlns:xlink="http://www.w3.org/1999/xlink" width="72.00000000000001" height="106.56000000000002"><path fill="red" stroke="red" d="M21.46 31.03C18.79 28.87 13.46 25.78 9.65 23.83L5.76 28.66C9.65 30.89 14.83 34.20 17.28 36.43ZM18.72 49.61C15.91 47.66 10.44 44.71 6.55 42.84L2.74 47.74C6.77 49.82 12.17 52.99 14.76 55.08ZM10.15 88.27C13.18 81.58 16.63 73.08 19.22 65.52L13.75 61.99C10.87 70.20 6.98 79.27 4.10 84.82ZM35.28 46.15L35.28 24.84L28.94 24.84L28.94 49.25C28.94 52.34 28.87 55.37 28.73 58.46C27.72 54.14 25.99 48.74 24.19 44.42L19.37 46.15C21.38 51.41 23.47 58.46 23.98 63.07L28.44 61.42C27.65 69.98 25.42 78.19 19.80 85.25C21.53 86.04 24.12 87.91 25.42 89.14C34.27 77.76 35.28 63.29 35.28 49.25L35.28 47.59C37.15 52.42 38.88 58.32 39.53 62.21L44.35 60.34C43.49 56.16 41.47 49.61 39.31 44.64ZM59.69 24.77L59.69 56.45C58.18 52.42 55.80 47.52 53.50 43.56L50.62 44.86L50.62 25.92L44.42 25.92L44.42 87.41L50.62 87.41L50.62 48.82C52.92 53.42 55.15 58.75 56.09 62.42L59.69 60.70L59.69 89.14L66.10 89.14L66.10 24.77Z"/></svg>
