<svg xmlns="http://www.w3.org/2000/svg" xmlns:xlink="http://www.w3.org/1999/xlink" width="72.00000000000001" height="106.56000000000002"><path fill="red" stroke="red" d="M21.89 33.84C19.51 31.25 14.69 27.58 10.94 25.13L6.41 29.16C10.30 31.90 14.98 35.71 17.21 38.45ZM19.15 51.34C16.34 48.96 10.94 45.79 6.84 43.70L2.88 48.24C7.06 50.54 12.38 54.07 14.98 56.52ZM10.51 87.41C13.97 80.71 17.86 72.36 20.88 64.94L15.48 60.98C12.17 69.05 7.63 77.98 4.39 83.38ZM31.32 48.89L56.23 48.89L56.23 55.66L31.32 55.66ZM56.23 36.58L56.23 43.27L31.32 43.27L31.32 36.58ZM61.56 62.78C59.04 65.02 55.01 67.90 51.62 70.06C49.90 67.46 48.38 64.58 47.30 61.49L62.78 61.49L62.78 30.82L48.53 30.82C47.66 28.30 46.22 24.98 44.78 22.46L38.59 24.05C39.67 26.06 40.68 28.66 41.47 30.82L24.62 30.82L24.62 77.90C24.62 81.36 23.04 83.52 21.82 84.53C22.82 85.61 24.70 88.13 25.34 89.64C26.86 88.42 29.45 87.41 44.93 82.30C44.57 80.86 44.14 78.19 43.99 76.39L31.32 80.28L31.32 61.49L40.90 61.49C45.14 74.66 52.56 84.17 64.80 88.56C65.74 86.76 67.61 84.17 69.05 82.80C63.50 81.07 58.90 78.19 55.15 74.45C58.68 72.43 62.78 69.77 65.88 67.18Z"/></svg>
