<svg xmlns="http://www.w3.org/2000/svg" xmlns:xlink="http://www.w3.org/1999/xlink" width="72.00000000000001" height="106.56000000000002"><path fill="red" stroke="red" d="M57.17 38.30L30.74 38.30L30.74 32.11L57.17 32.11ZM57.17 49.90L30.74 49.90L30.74 43.56L57.17 43.56ZM63.79 26.57L24.41 26.57L24.41 55.51L63.79 55.51ZM21.38 32.69C18.86 30.24 13.54 26.71 9.65 24.55L6.12 29.30C10.01 31.68 15.26 35.42 17.64 38.02ZM18.00 50.76C15.41 48.24 10.08 44.78 6.12 42.55L2.66 47.45C6.62 49.90 11.88 53.64 14.40 56.16ZM15.62 60.98C12.10 69.05 7.56 78.05 4.39 83.38L9.58 87.91C13.18 81.14 17.06 72.79 20.16 65.45ZM47.59 80.50L47.59 70.49L65.52 70.49L65.52 64.66L47.59 64.66L47.59 57.60L40.82 57.60L40.82 64.66L23.11 64.66L23.11 70.49L40.82 70.49L40.82 80.50L19.37 80.50L19.37 86.40L68.76 86.40L68.76 80.50Z"/></svg>
