<svg xmlns="http://www.w3.org/2000/svg" xmlns:xlink="http://www.w3.org/1999/xlink" width="72.00000000000001" height="106.56000000000002"><path fill="red" stroke="red" d="M52.70 69.62L48.38 69.62L48.38 40.32L42.98 40.32L42.98 69.62L38.95 69.62L38.95 75.74L67.97 75.74L67.97 69.62L58.68 69.62L58.68 52.99L67.10 52.99L67.10 46.87L58.68 46.87L58.68 32.18C61.99 31.46 65.09 30.60 67.75 29.59L63.22 24.41C57.46 26.78 47.81 28.58 39.24 29.66C40.03 31.10 40.90 33.48 41.11 34.92C44.78 34.56 48.74 34.13 52.70 33.41ZM20.38 31.39C18.07 29.38 13.32 26.35 9.86 24.48L5.98 29.16C9.50 31.25 14.18 34.56 16.42 36.72ZM17.71 49.97C15.19 48.02 10.08 45.14 6.41 43.49L2.74 48.38C6.48 50.33 11.52 53.35 13.90 55.37ZM15.84 61.92C12.24 69.62 7.63 78.26 4.39 83.38L10.30 87.70C13.90 81.29 17.78 73.22 20.95 66.10ZM35.50 47.30L34.56 47.45L30.10 47.45C32.54 41.11 35.35 33.05 37.51 26.50L21.38 26.50L21.38 32.47L29.38 32.47C27.00 39.67 24.05 47.59 21.67 52.92L33.05 52.92C32.33 58.61 31.25 63.65 29.66 67.97C28.58 65.59 27.72 62.78 27.00 59.47L21.82 61.13C23.11 66.60 24.70 70.99 26.71 74.45C24.26 78.77 21.24 82.08 17.71 84.24C19.01 85.46 20.66 87.62 21.38 89.14C24.91 86.69 27.94 83.66 30.46 79.78C35.93 85.97 43.42 87.70 52.99 87.70L67.61 87.70C67.90 85.97 68.83 83.16 69.77 81.65C66.82 81.72 55.66 81.72 53.35 81.72C45.00 81.72 38.16 80.14 33.41 74.23C36.36 67.46 38.16 58.82 39.02 48.02Z"/></svg>
