<svg xmlns="http://www.w3.org/2000/svg" xmlns:xlink="http://www.w3.org/1999/xlink" width="72.00000000000001" height="106.56000000000002"><path fill="red" stroke="red" d="M21.10 30.89C18.72 28.51 13.75 25.56 9.79 23.83L5.98 28.58C9.94 30.60 14.83 33.84 17.06 36.14ZM18.22 49.32C15.70 47.09 10.58 44.42 6.48 42.84L2.74 47.81C6.91 49.54 11.95 52.56 14.33 54.72ZM12.10 61.78C9.72 70.13 6.41 79.42 4.03 85.18L10.30 88.27C12.89 81.43 15.70 72.72 17.71 65.02ZM34.85 45.07L42.26 45.07L42.26 38.66L34.85 38.66L34.85 23.11L28.73 23.11L28.73 38.66L19.51 38.66L19.51 45.07L28.08 45.07C25.56 55.87 21.46 66.82 16.56 72.58C17.86 73.73 20.09 76.03 21.10 77.54C24.12 73.37 26.64 67.25 28.73 60.41L28.73 89.14L34.85 89.14L34.85 58.97C36.86 61.78 39.02 64.73 40.10 66.60L43.56 60.41C42.41 59.11 37.51 54.22 34.85 51.55ZM50.11 78.70L50.11 66.96L60.26 66.96L60.26 78.70ZM60.26 32.04L60.26 43.42L50.11 43.42L50.11 32.04ZM60.26 60.91L50.11 60.91L50.11 49.39L60.26 49.39ZM44.06 25.99L44.06 88.92L50.11 88.92L50.11 84.74L60.26 84.74L60.26 88.34L66.53 88.34L66.53 25.99Z"/></svg>
