<svg xmlns="http://www.w3.org/2000/svg" xmlns:xlink="http://www.w3.org/1999/xlink" width="72.00000000000001" height="106.56000000000002"><path fill="red" stroke="red" d="M47.38 35.42C46.37 37.44 45.14 39.60 43.99 41.33L32.33 41.33C33.77 39.46 35.14 37.44 36.43 35.42ZM58.75 53.06L48.31 53.06L48.31 46.66L58.75 46.66ZM58.75 64.66L48.31 64.66L48.31 58.18L58.75 58.18ZM32.11 58.18L42.19 58.18L42.19 64.66L32.11 64.66ZM32.11 46.66L42.19 46.66L42.19 53.06L32.11 53.06ZM26.14 70.06L65.09 70.06L65.09 41.33L51.19 41.33C53.21 38.45 55.08 35.28 56.59 32.40L52.27 29.30L50.90 29.74L39.74 29.74C40.46 28.22 41.26 26.71 41.90 25.20L35.35 23.18C31.54 31.90 25.20 40.46 18.43 45.86C19.94 47.09 22.46 49.75 23.47 51.05C24.34 50.26 25.27 49.46 26.14 48.53ZM22.61 30.96C20.02 28.44 14.54 25.42 10.30 23.62L6.55 28.58C10.87 30.60 16.20 33.98 18.65 36.43ZM19.01 49.46C16.27 47.09 10.87 44.21 6.55 42.55L2.88 47.59C7.27 49.46 12.60 52.63 15.12 55.01ZM16.34 61.27C12.82 69.55 8.06 78.77 4.75 84.31L10.73 88.27C14.33 81.50 18.43 72.94 21.60 65.30ZM23.62 89.21C28.01 85.61 30.38 79.78 31.82 74.30L26.42 72.43C25.13 77.47 22.54 82.51 18.65 85.54ZM35.06 74.09C36.22 78.55 36.86 84.53 36.72 88.27L42.48 87.34C42.48 83.52 41.76 77.69 40.54 73.15ZM44.78 74.16C46.94 78.62 49.03 84.60 49.68 88.34L55.22 86.69C54.50 82.80 52.34 77.11 49.97 72.72ZM55.44 74.38C58.90 78.91 62.50 85.03 64.01 89.14L69.48 86.04C67.97 82.01 64.30 76.18 60.62 71.71Z"/></svg>
