<svg xmlns="http://www.w3.org/2000/svg" xmlns:xlink="http://www.w3.org/1999/xlink" width="72.00000000000001" height="106.56000000000002"><path fill="red" stroke="red" d="M26.86 48.89C29.30 46.80 31.39 43.49 32.90 40.90L28.44 38.59L28.30 38.81L28.30 33.84L41.83 33.84L39.17 36.36C41.54 38.30 44.93 41.33 46.73 43.20L49.90 39.96C48.10 38.30 45.00 35.78 42.48 33.84L61.42 33.84L61.42 39.53L67.68 39.53L67.68 28.73L49.46 28.73C48.74 26.93 47.66 24.70 46.66 22.82L40.39 24.26C41.11 25.63 41.83 27.22 42.48 28.73L22.32 28.73L22.32 39.53L27.86 39.53C26.50 41.76 24.41 44.35 22.39 46.01ZM33.48 38.45L33.48 43.06C33.48 47.66 34.85 48.96 40.75 48.96L49.97 48.96C53.93 48.96 55.44 47.66 56.02 42.84C54.58 42.62 52.63 41.90 51.55 41.18C51.41 44.21 51.05 44.64 49.39 44.64L41.26 44.64C38.81 44.64 38.45 44.42 38.45 42.98L38.45 38.45ZM65.45 45.79C63.86 43.49 60.98 39.82 58.68 37.22L54.00 39.02C56.38 41.83 59.18 45.65 60.62 47.95ZM20.52 30.96C18.00 28.73 13.10 25.85 9.58 24.05L6.34 29.02C10.01 31.03 14.76 34.20 17.06 36.43ZM16.56 49.75C14.04 47.59 9.22 44.86 5.62 43.20L2.59 48.24C6.26 50.11 11.02 53.21 13.39 55.30ZM9.29 87.62C12.46 80.93 16.06 72.43 18.86 65.02L14.33 60.91C11.23 68.90 7.13 78.05 4.18 83.45ZM21.82 74.74L43.27 74.74L43.27 82.30C43.27 83.09 42.98 83.30 42.05 83.30C41.11 83.38 37.66 83.38 34.42 83.23C35.14 84.82 36.00 87.12 36.29 88.78C41.11 88.78 44.35 88.78 46.58 87.84C48.89 87.05 49.46 85.46 49.46 82.51L49.46 74.74L67.25 74.74L67.25 69.70L21.82 69.70ZM31.75 55.66L37.37 55.66L37.37 61.49L31.75 61.49ZM47.81 55.66L47.81 61.49L42.12 61.49L42.12 55.66ZM58.25 55.66L58.25 61.49L52.49 61.49L52.49 55.66ZM64.01 61.49L64.01 51.26L26.28 51.26L26.28 61.49L20.38 61.49L20.38 66.53L69.12 66.53L69.12 61.49Z"/></svg>
