<svg xmlns="http://www.w3.org/2000/svg" xmlns:xlink="http://www.w3.org/1999/xlink" width="72.00000000000001" height="106.56000000000002"><path fill="red" stroke="red" d="M35.71 36.79C36.94 38.59 38.16 41.04 38.66 42.70L42.48 40.90C41.98 39.31 40.68 37.08 39.31 35.35L47.88 35.35C46.15 37.80 43.27 41.26 40.82 43.49L40.75 43.56L40.82 43.56L40.82 58.39L45.79 58.39L45.79 43.49L45.72 43.49C47.95 41.54 50.47 39.10 52.70 36.72L48.60 35.35L67.97 35.35L67.97 29.95L46.80 29.95C46.44 27.94 45.72 24.91 44.86 22.68L38.66 23.47C39.31 25.42 39.82 27.94 40.18 29.95L20.30 29.95L20.30 35.35L39.17 35.35ZM32.18 44.78C31.97 50.33 31.82 52.49 31.39 53.06C31.03 53.50 30.67 53.64 30.17 53.64C29.59 53.64 28.51 53.64 27.07 53.42C27.72 54.58 28.08 56.38 28.22 57.74C29.74 57.74 31.25 57.74 32.18 57.60C33.62 57.46 34.49 57.02 35.21 56.09C36.29 54.79 36.50 51.19 36.79 42.34L36.79 40.39L20.66 40.39L20.66 44.78L24.34 44.78C23.54 49.54 21.60 53.06 17.93 55.44C18.86 56.16 20.23 58.03 20.66 58.97C25.34 55.87 27.86 51.12 28.87 44.78ZM18.58 33.05C16.34 30.38 11.74 26.50 7.99 23.90L4.46 27.72C8.14 30.46 12.74 34.49 14.83 37.22ZM16.78 51.41C14.33 49.10 9.50 45.79 5.76 43.70L2.52 47.66C6.26 50.04 11.09 53.42 13.32 55.87ZM8.35 88.13C11.16 81.58 14.40 73.08 16.85 65.74L12.53 62.50C9.72 70.34 5.98 79.49 3.38 84.89ZM31.46 73.37C31.68 71.64 31.75 69.91 31.75 68.40L55.08 68.40L55.08 73.37ZM55.08 63.14L31.75 63.14L31.75 58.82L25.49 58.82L25.49 68.18C25.49 73.37 24.48 80.86 17.42 85.82C18.94 86.62 21.24 88.27 22.39 89.35C26.57 86.47 28.94 82.66 30.17 78.70L55.08 78.70L55.08 89.28L61.34 89.28L61.34 58.82L55.08 58.82ZM61.92 37.73C59.40 39.38 54.72 41.11 50.54 42.19L50.62 42.26L50.54 42.26L50.54 50.18C50.54 52.99 49.61 54.22 48.82 54.72C49.54 55.66 50.47 57.74 50.83 58.82L50.83 58.90C51.70 58.25 53.21 57.60 60.05 55.22C59.90 54.43 59.54 52.78 59.40 51.70L54.65 53.06L54.65 45.07C55.80 44.78 56.95 44.42 58.10 44.14C59.54 49.82 61.99 55.15 65.59 58.10C66.31 56.95 67.54 55.44 68.54 54.72C65.23 52.42 62.93 47.81 61.49 42.98C63.07 42.34 64.51 41.69 65.88 40.97Z"/></svg>
