<svg xmlns="http://www.w3.org/2000/svg" xmlns:xlink="http://www.w3.org/1999/xlink" width="72.00000000000001" height="106.56000000000002"><path fill="red" stroke="red" d="M62.64 33.91C61.85 31.32 59.83 27.36 57.89 24.41L52.70 26.35C54.50 29.38 56.45 33.48 57.24 36.14ZM39.67 64.87C39.02 61.49 37.15 55.66 35.42 51.41L31.39 52.56C32.04 54.29 32.69 56.16 33.19 58.10L24.91 59.47C29.88 52.56 34.78 43.92 38.59 35.42L33.41 33.12C32.11 36.50 30.46 40.03 28.87 43.34L23.47 43.78C26.57 38.38 29.66 31.61 31.90 25.13L26.50 23.33C24.62 30.89 20.74 38.95 19.51 41.04C18.36 43.13 17.35 44.71 16.20 44.93C16.85 46.37 17.71 49.03 18.00 50.18C18.86 49.75 20.30 49.32 26.06 48.60C24.05 52.27 22.25 55.15 21.38 56.38C19.44 59.11 18.14 61.06 16.63 61.42C17.35 62.78 18.22 65.45 18.43 66.53C19.66 65.81 21.82 65.23 34.42 62.71C34.78 64.08 35.06 65.38 35.28 66.38ZM18.65 31.68C16.49 29.38 11.88 26.14 8.21 24.12L4.46 28.44C8.06 30.74 12.60 34.20 14.69 36.65ZM16.99 49.82C14.69 47.59 10.01 44.64 6.26 42.84L2.59 47.45C6.34 49.46 11.02 52.63 13.18 54.86ZM11.66 62.71C9.36 70.63 6.05 79.70 3.60 85.18L9.29 88.13C11.81 81.50 14.69 72.94 16.70 65.59ZM19.08 69.26C18.43 75.10 17.14 81.36 15.19 85.68C16.34 86.04 18.50 86.69 19.51 87.19C21.24 82.94 22.68 76.32 23.54 70.06ZM25.63 70.06C26.42 74.81 27.14 81.07 27.29 85.18L31.68 84.17C31.46 80.06 30.67 73.87 29.74 69.05ZM32.18 68.90C33.70 73.22 35.42 78.98 36.07 82.80L40.32 81.29C39.53 77.62 37.80 72.00 36.14 67.61ZM47.52 70.42L54.65 70.42L54.65 78.98L47.52 78.98ZM54.65 50.76L47.52 50.76L47.52 42.41L54.65 42.41ZM54.65 64.80L47.52 64.80L47.52 56.45L54.65 56.45ZM68.76 78.98L60.26 78.98L60.26 70.42L67.54 70.42L67.54 64.80L60.26 64.80L60.26 56.45L67.46 56.45L67.46 50.76L60.26 50.76L60.26 42.41L67.97 42.41L67.97 36.65L47.88 36.65C49.68 32.69 51.26 28.58 52.49 24.70L46.51 23.11C44.64 30.67 40.68 40.39 35.93 46.51C36.79 47.95 38.23 50.47 38.88 51.98C39.89 50.69 40.82 49.39 41.76 47.95L41.76 89.14L47.52 89.14L47.52 84.82L68.76 84.82Z"/></svg>
