<svg xmlns="http://www.w3.org/2000/svg" xmlns:xlink="http://www.w3.org/1999/xlink" width="72.00000000000001" height="106.56000000000002"><path fill="red" stroke="red" d="M68.62 46.08C68.04 44.06 66.53 40.97 65.02 38.52L62.06 39.60C62.42 40.25 62.86 41.04 63.22 41.69L57.96 42.34C61.06 39.10 63.94 35.21 66.24 31.32L62.42 29.66C61.92 30.74 61.27 31.82 60.70 32.90L56.59 33.12C58.32 30.74 60.05 27.79 61.20 24.98L57.31 23.62C56.23 27.43 53.71 31.54 52.99 32.54C52.20 33.62 51.48 34.34 50.69 34.42C51.19 35.21 51.84 36.79 52.06 37.51C52.85 37.15 54.07 36.94 58.25 36.50C56.59 38.88 54.94 40.75 54.29 41.47C52.99 42.91 51.91 43.78 50.90 43.92C51.34 44.78 52.06 46.44 52.27 47.02C53.35 46.58 55.15 46.22 64.58 44.93C64.94 45.86 65.23 46.73 65.45 47.38ZM61.92 58.10C61.85 55.80 61.13 52.06 60.26 49.10L57.10 49.90C57.96 52.92 58.61 56.88 58.61 59.18ZM52.49 48.96C51.98 51.91 51.26 55.01 49.90 57.38C50.83 57.89 52.27 58.90 52.99 59.54C54.29 57.10 55.37 53.28 56.02 49.82ZM51.05 30.24L42.62 30.24L45.94 29.38C45.43 27.94 44.21 25.42 43.06 23.76L38.66 24.77C39.53 26.42 40.68 28.66 41.18 30.24L33.91 30.24L33.91 33.98L51.05 33.98ZM36.00 45.00L49.39 45.00L49.39 41.62L36.00 41.62ZM49.39 36.29L36.00 36.29L36.00 39.67L49.39 39.67ZM40.03 50.69L45.14 50.69L45.14 54.65L40.03 54.65ZM35.86 57.96L49.46 57.96L49.46 47.38L35.86 47.38ZM34.99 45.86C34.49 43.99 33.05 40.82 31.68 38.59L28.66 39.67C29.02 40.32 29.45 41.04 29.81 41.76L24.55 42.41C27.58 39.17 30.53 35.28 32.83 31.39L29.02 29.81C28.51 30.89 27.86 31.97 27.22 33.05L23.04 33.26C24.84 30.89 26.57 27.86 27.79 25.06L23.83 23.69C22.82 27.50 20.23 31.61 19.58 32.69C18.79 33.70 18.07 34.42 17.21 34.56C17.78 35.28 18.43 36.86 18.65 37.58C19.37 37.30 20.59 37.08 24.84 36.65C23.18 39.02 21.53 40.97 20.81 41.69C19.58 42.98 18.58 43.92 17.42 44.06C17.93 44.93 18.65 46.51 18.86 47.16C19.87 46.66 21.67 46.30 31.10 45.07C31.39 45.79 31.68 46.58 31.82 47.23ZM34.49 55.44C34.20 53.50 33.26 50.33 32.11 47.95L29.23 48.96C30.31 51.55 31.18 54.79 31.46 56.81ZM28.58 57.46C28.51 55.30 27.79 51.84 26.93 49.18L23.76 49.97C24.55 52.70 25.20 56.30 25.20 58.61ZM18.22 31.46C16.06 29.16 11.59 26.06 7.99 24.12L4.10 28.51C7.70 30.74 12.17 34.06 14.11 36.50ZM16.78 49.82C14.62 47.59 9.94 44.71 6.26 42.91L2.59 47.52C6.19 49.46 10.80 52.70 12.89 55.01ZM10.01 88.34C12.89 81.65 15.98 73.01 18.29 65.59L12.96 62.14C10.30 70.20 6.62 79.42 4.03 84.96ZM19.01 49.25C18.58 52.20 17.78 55.30 16.42 57.74C17.35 58.25 18.86 59.18 19.51 59.83C20.81 57.38 21.96 53.57 22.54 50.11ZM29.23 74.45L30.10 71.42L62.64 71.42L62.64 60.26L22.46 60.26L22.46 64.30L56.38 64.30L56.38 67.39L24.84 67.39C23.98 71.14 22.82 75.53 21.67 78.77L58.75 78.77C57.96 81.58 57.17 83.16 56.16 83.88C55.37 84.38 54.65 84.38 53.06 84.38C51.26 84.38 46.58 84.31 42.19 83.88C43.13 85.32 43.92 87.41 43.99 88.99C48.46 89.21 52.85 89.21 55.01 89.21C57.67 89.14 59.33 88.78 60.98 87.55C62.86 86.11 64.30 82.94 65.52 76.97C65.81 76.18 65.95 74.45 65.95 74.45ZM62.57 48.89C63.86 51.84 65.02 55.66 65.30 58.10L68.40 56.74C68.11 54.43 66.89 50.69 65.52 47.81Z"/></svg>
