<svg xmlns="http://www.w3.org/2000/svg" xmlns:xlink="http://www.w3.org/1999/xlink" width="72.00000000000001" height="106.56000000000002"><path fill="red" stroke="red" d="M67.82 38.23L67.82 32.18L39.74 32.18C39.82 29.38 39.82 26.50 39.82 23.40L32.76 23.40L32.76 32.18L4.32 32.18L4.32 38.23L32.69 38.23C32.18 61.85 28.94 76.25 3.02 83.30C4.54 84.82 6.41 87.48 7.20 89.35C24.48 84.24 32.62 75.74 36.36 63.94C41.33 77.04 49.61 85.32 64.87 89.35C65.81 87.41 67.61 84.67 69.05 83.23C50.62 79.13 42.55 67.90 39.02 49.82C39.38 46.22 39.60 42.34 39.67 38.23ZM27.07 50.83C25.70 49.54 23.90 48.02 21.74 46.58C23.76 44.71 25.56 42.84 27.14 40.90L21.89 38.95C20.59 40.46 19.08 42.12 17.35 43.63C15.34 42.41 13.32 41.18 11.38 40.18L7.70 43.56C9.58 44.57 11.45 45.79 13.39 47.02C10.87 48.89 8.35 50.54 5.90 51.98C7.13 52.85 9.36 54.79 10.30 55.80C12.67 54.22 15.26 52.27 17.78 50.18C20.02 51.77 21.82 53.42 23.18 54.72ZM24.91 68.47C23.90 67.25 22.32 65.81 20.52 64.37C22.75 62.14 24.70 59.90 26.42 57.60L20.88 55.58C19.58 57.46 17.93 59.26 16.20 60.98C14.54 59.83 12.96 58.68 11.38 57.67L7.56 60.91C9.14 61.92 10.80 63.14 12.38 64.37C10.08 66.24 7.63 68.04 5.33 69.41C6.62 70.34 8.93 72.36 9.86 73.44C12.10 71.86 14.40 70.06 16.78 68.04C18.43 69.48 19.87 70.92 20.81 72.07ZM63.79 51.26C62.50 49.97 60.48 48.31 58.32 46.80C60.26 44.86 62.06 42.91 63.58 40.97L58.32 38.95C57.02 40.54 55.58 42.19 53.86 43.70C51.98 42.48 49.97 41.33 48.17 40.32L44.50 43.70C46.22 44.71 48.17 45.94 49.97 47.16C47.74 49.10 45.29 50.76 42.98 52.20C44.35 53.14 46.44 55.01 47.45 56.02C49.61 54.43 52.13 52.56 54.43 50.47C56.59 52.06 58.54 53.78 59.83 55.15ZM65.66 68.98C64.15 67.46 61.99 65.52 59.54 63.65C61.56 61.56 63.43 59.47 65.02 57.38L59.47 55.37C58.32 57.10 56.81 58.75 55.15 60.48C53.28 59.18 51.48 57.96 49.75 57.02L45.94 60.34C47.74 61.34 49.54 62.64 51.34 63.94C49.54 65.38 47.66 66.82 45.79 67.97C47.23 68.76 49.46 70.63 50.62 71.71C52.20 70.42 54.00 68.90 55.73 67.32C58.18 69.19 60.19 71.14 61.56 72.65Z"/></svg>
