<svg xmlns="http://www.w3.org/2000/svg" xmlns:xlink="http://www.w3.org/1999/xlink" width="72.00000000000001" height="106.56000000000002"><path fill="red" stroke="red" d="M57.67 40.46L37.51 40.46L37.51 32.98L57.67 32.98ZM57.67 53.71L37.51 53.71L37.51 46.15L57.67 46.15ZM57.67 67.03L37.51 67.03L37.51 59.47L57.67 59.47ZM64.51 26.93L30.89 26.93L30.89 73.15L64.51 73.15ZM21.02 23.54C19.66 26.14 17.86 28.80 15.84 31.39C13.82 28.73 11.30 26.06 8.21 23.54L3.53 27.14C7.06 30.10 9.79 33.12 11.81 36.22C8.86 39.38 5.62 42.26 2.38 44.64C3.82 45.72 5.98 47.66 6.98 49.03C9.65 47.02 12.31 44.64 14.83 42.12C15.91 44.93 16.63 47.74 17.06 50.69C13.54 56.88 7.56 63.43 2.23 66.82C3.74 68.04 5.69 70.27 6.62 71.78C10.37 68.98 14.33 64.73 17.71 60.26L17.71 61.70C17.71 70.92 17.06 79.06 15.26 81.29C14.69 82.15 13.97 82.51 12.96 82.66C11.23 82.87 8.42 82.87 4.75 82.58C5.98 84.53 6.62 86.98 6.62 89.06C9.94 89.21 13.03 89.21 15.77 88.56C17.57 88.27 19.08 87.41 20.09 85.97C23.33 81.65 24.05 72.22 24.05 61.85C24.05 53.21 23.40 44.93 19.44 37.15C22.32 33.77 24.91 30.17 27.00 26.57ZM37.94 73.51C34.92 77.47 28.87 82.37 23.33 85.10C25.06 86.11 27.65 88.13 29.02 89.28C34.27 86.47 40.61 81.36 44.35 76.97ZM50.47 77.33C55.15 81.00 60.41 85.90 63.14 89.28L69.41 85.75C66.24 82.30 60.62 77.47 55.37 73.80Z"/></svg>
