<svg xmlns="http://www.w3.org/2000/svg" xmlns:xlink="http://www.w3.org/1999/xlink" width="72.00000000000001" height="106.56000000000002"><path fill="red" stroke="red" d="M26.42 68.33C23.62 69.19 20.88 69.98 18.22 70.85L18.22 54.36L24.91 54.36L24.91 48.17L18.22 48.17L18.22 33.84L26.28 33.84L26.28 27.65L3.46 27.65L3.46 33.84L12.02 33.84L12.02 48.17L4.25 48.17L4.25 54.36L12.02 54.36L12.02 72.65C8.42 73.73 5.18 74.59 2.52 75.31L3.74 81.94C10.30 79.92 19.08 77.26 27.14 74.52ZM69.05 76.46C68.18 73.73 66.17 69.26 64.44 65.88L61.27 67.10C62.06 68.76 62.86 70.63 63.65 72.50L57.31 73.08C58.97 70.20 60.77 66.46 61.99 62.78L57.74 61.42C56.88 65.81 54.65 70.34 53.93 71.50C53.35 72.65 52.63 73.51 51.84 73.66C52.42 74.66 53.06 76.82 53.35 77.69C54.29 77.26 55.87 77.04 65.02 75.89C65.30 76.68 65.52 77.40 65.74 78.05ZM34.06 47.66L43.92 47.66L43.92 54.58L34.06 54.58ZM34.06 35.71L43.92 35.71L43.92 42.48L34.06 42.48ZM59.90 42.48L49.82 42.48L49.82 35.71L59.90 35.71ZM59.90 54.58L49.82 54.58L49.82 47.66L59.90 47.66ZM54.65 82.94C52.27 82.94 51.84 82.66 51.84 80.57L51.84 59.98L66.02 59.98L66.02 30.31L42.55 30.31C43.49 28.44 44.42 26.14 45.36 23.98L38.30 22.97C37.80 25.13 36.94 27.94 36.07 30.31L28.15 30.31L28.15 59.98L36.07 59.98C35.21 70.85 33.12 79.63 23.18 84.31C24.48 85.46 26.35 87.77 27.07 89.35C38.45 83.45 41.11 73.08 42.12 59.98L46.15 59.98L46.15 80.64C46.15 86.69 47.66 88.34 54.00 88.34L63.29 88.34C67.97 88.34 69.70 86.54 70.27 79.99C68.69 79.63 66.38 78.70 65.16 77.76C64.94 82.15 64.51 82.94 62.78 82.94Z"/></svg>
