<svg xmlns="http://www.w3.org/2000/svg" xmlns:xlink="http://www.w3.org/1999/xlink" width="72.00000000000001" height="106.56000000000002"><path fill="red" stroke="red" d="M33.05 64.15L33.05 70.13L18.86 70.13L18.86 64.15ZM53.71 70.13L39.38 70.13L39.38 64.15L53.71 64.15ZM39.38 81.29L39.38 75.10L53.71 75.10L53.71 81.29ZM18.86 81.29L18.86 75.10L33.05 75.10L33.05 81.29ZM12.10 89.14L18.86 89.14L18.86 86.69L53.71 86.69L53.71 88.85L60.77 88.85L60.77 58.75L12.10 58.75ZM36.00 26.78L36.00 32.62L43.70 32.62C42.91 40.25 40.97 46.44 34.63 50.54C33.26 46.30 30.02 40.10 26.93 35.50L21.46 37.66C22.75 39.67 24.12 42.12 25.20 44.50L14.90 47.02L14.90 32.98C21.17 31.61 27.79 29.88 32.90 27.94L28.51 22.97C23.54 25.13 15.48 27.50 8.35 29.02L8.35 44.06C8.35 47.52 6.70 49.68 5.54 50.76C6.55 51.70 8.35 54.22 9.00 55.66L9.00 55.73C10.44 54.72 12.89 53.86 27.65 49.90C28.22 51.26 28.73 52.56 29.02 53.71L31.68 52.56C33.05 53.71 34.49 55.66 35.14 57.02C45.65 52.06 48.74 43.56 49.97 32.62L59.54 32.62C59.04 43.49 58.39 47.81 57.46 49.03C56.88 49.68 56.23 49.82 55.15 49.75C54.07 49.82 51.34 49.75 48.46 49.54C49.39 51.05 50.11 53.57 50.26 55.30C53.42 55.44 56.59 55.44 58.25 55.30C60.34 55.01 61.63 54.50 62.93 52.99C64.66 50.90 65.38 44.93 66.10 29.45C66.10 28.51 66.17 26.78 66.17 26.78Z"/></svg>
