<svg xmlns="http://www.w3.org/2000/svg" xmlns:xlink="http://www.w3.org/1999/xlink" width="72.00000000000001" height="106.56000000000002"><path fill="red" stroke="red" d="M12.24 49.32C11.74 45.72 9.86 40.03 7.70 35.57L2.81 37.51C4.82 42.05 6.55 47.95 6.98 51.70ZM42.91 34.92L39.24 35.93C39.74 37.01 40.32 38.16 40.90 39.38L24.41 39.38L24.41 43.99L36.00 43.99L31.54 45.07C32.18 46.08 32.76 47.52 33.19 48.74L21.24 48.74L21.24 53.57L68.33 53.57L68.33 48.74L56.45 48.74C57.24 47.52 58.03 46.30 58.75 45.00L52.56 43.99C52.20 45.29 51.34 47.09 50.47 48.74L39.17 48.74C38.74 47.30 37.94 45.43 37.08 43.99L65.45 43.99L65.45 39.38L48.53 39.38C47.88 37.94 47.02 36.36 46.22 34.92L68.54 34.92L68.54 29.23L45.58 29.23C44.64 27.22 43.34 24.70 42.41 22.82L35.71 24.62C36.50 25.99 37.30 27.65 37.94 29.23L12.89 29.23L12.89 52.20C12.89 54.00 12.89 55.73 12.82 57.67C8.64 59.76 4.75 61.70 1.94 63.00L4.03 68.98C6.70 67.54 9.50 65.81 12.24 64.15C11.30 71.50 9.14 78.98 4.03 84.82C5.26 85.61 7.70 87.98 8.64 89.28C17.57 79.34 19.01 63.43 19.01 52.27L19.01 34.92ZM31.82 66.46L56.81 66.46L56.81 69.77L31.82 69.77ZM31.82 59.83L56.81 59.83L56.81 63.07L31.82 63.07ZM68.62 76.90L47.88 76.90L47.88 73.37L63.07 73.37L63.07 56.30L25.85 56.30L25.85 73.37L41.26 73.37L41.26 76.90L20.02 76.90L20.02 81.86L41.26 81.86L41.26 89.14L47.88 89.14L47.88 81.86L68.62 81.86Z"/></svg>
