<svg xmlns="http://www.w3.org/2000/svg" xmlns:xlink="http://www.w3.org/1999/xlink" width="72.00000000000001" height="106.56000000000002"><path fill="red" stroke="red" d="M68.54 68.18C66.46 65.09 62.35 60.55 58.54 57.31L53.42 59.47C57.10 62.86 61.34 67.68 63.29 70.85ZM38.81 31.75L53.78 31.75L53.78 35.42L38.81 35.42ZM53.78 44.06L38.81 44.06L38.81 40.32L53.78 40.32ZM32.18 44.06L11.09 44.06L11.09 48.74L32.18 48.74L32.18 52.49L4.82 52.49L4.82 57.31L67.39 57.31L67.39 52.49L38.81 52.49L38.81 48.74L60.41 48.74L60.41 40.32L68.18 40.32L68.18 35.42L60.41 35.42L60.41 27.07L38.81 27.07L38.81 23.04L32.18 23.04L32.18 27.07L11.52 27.07L11.52 31.75L32.18 31.75L32.18 35.42L3.89 35.42L3.89 40.32L32.18 40.32ZM47.74 65.45C47.09 63.36 45.36 60.05 43.70 57.74L38.16 59.26C39.74 61.70 41.26 65.02 41.90 67.18ZM31.18 65.74C31.03 63.65 30.31 60.41 29.30 58.10L23.62 59.04C24.41 61.49 25.13 64.73 25.20 66.89ZM18.36 72.50L25.92 72.50L25.92 81.72L18.36 81.72ZM39.67 72.50L39.67 81.72L32.04 81.72L32.04 72.50ZM53.42 72.50L53.42 81.72L45.79 81.72L45.79 72.50ZM59.98 67.25L13.10 67.25C14.76 65.02 15.91 62.42 16.78 59.90L11.66 57.82C10.15 61.78 7.42 65.81 3.53 67.97L8.06 72.00C9.65 70.99 11.02 69.77 12.17 68.40L12.17 81.72L3.53 81.72L3.53 87.12L68.54 87.12L68.54 81.72L59.98 81.72Z"/></svg>
