<svg xmlns="http://www.w3.org/2000/svg" xmlns:xlink="http://www.w3.org/1999/xlink" width="72.00000000000001" height="106.56000000000002"><path fill="red" stroke="red" d="M20.66 65.95L51.34 65.95L51.34 70.20L20.66 70.20ZM51.34 42.70L51.34 46.66L20.66 46.66L20.66 42.70ZM51.34 58.25L51.34 61.85L20.66 61.85L20.66 58.25ZM51.34 54.22L20.66 54.22L20.66 50.76L51.34 50.76ZM67.75 70.20L58.03 70.20L58.03 38.23L37.94 38.23C38.09 37.01 38.38 35.71 38.66 34.34L65.95 34.34L65.95 28.66L39.67 28.66C39.96 27.00 40.25 25.34 40.54 23.69L33.48 23.04C33.34 24.70 33.19 26.71 32.90 28.66L6.26 28.66L6.26 34.34L32.11 34.34C31.82 35.71 31.61 37.01 31.39 38.23L14.26 38.23L14.26 70.20L4.39 70.20L4.39 75.74L67.75 75.74ZM24.62 76.46C20.16 79.34 11.38 82.80 4.18 84.60C5.62 85.82 7.70 87.98 8.78 89.21C15.84 87.34 24.77 83.81 30.31 80.28ZM41.90 80.50C49.82 83.02 57.89 86.40 62.78 89.06L68.18 84.53C63.00 81.94 54.07 78.48 46.08 76.10Z"/></svg>
