<svg xmlns="http://www.w3.org/2000/svg" xmlns:xlink="http://www.w3.org/1999/xlink" width="72.00000000000001" height="106.56000000000002"><path fill="red" stroke="red" d="M20.23 33.41L20.23 42.19L11.09 42.19L11.09 33.41ZM11.09 71.86L11.09 62.57L20.23 62.57L20.23 71.86ZM11.09 47.88L20.23 47.88L20.23 56.88L11.09 56.88ZM25.70 27.50L5.33 27.50L5.33 83.74L11.09 83.74L11.09 77.76L25.70 77.76ZM37.87 44.78L58.10 44.78L58.10 52.27L37.87 52.27ZM58.10 32.04L58.10 39.31L37.87 39.31L37.87 32.04ZM64.22 59.76C61.70 62.21 57.67 65.23 54.14 67.54C52.63 64.66 51.48 61.49 50.54 58.10L64.58 58.10L64.58 26.21L31.32 26.21L31.32 78.34C31.32 81.43 29.66 83.16 28.44 83.88C29.45 85.10 30.82 87.77 31.32 89.28C32.83 88.20 35.28 87.41 49.68 83.59C49.46 82.08 49.32 79.42 49.39 77.47L37.87 80.14L37.87 58.10L44.64 58.10C48.10 72.14 54.29 83.16 65.02 88.70C66.02 86.90 68.04 84.31 69.55 83.02C64.37 80.78 60.19 77.11 56.95 72.43C60.70 70.20 65.16 67.18 68.69 64.37Z"/></svg>
