<svg xmlns="http://www.w3.org/2000/svg" xmlns:xlink="http://www.w3.org/1999/xlink" width="72.00000000000001" height="106.56000000000002"><path fill="red" stroke="red" d="M17.86 55.94L24.05 55.94L24.05 41.62L37.51 41.62L37.51 36.36L23.47 36.36L23.47 31.75L35.21 31.75L35.21 27.00L23.47 27.00L23.47 23.04L17.06 23.04L17.06 36.36L4.03 36.36L4.03 41.62L17.86 41.62ZM10.08 42.48C8.78 46.22 6.48 49.90 3.89 52.63C5.26 53.35 7.42 54.72 8.50 55.58C11.09 52.63 13.68 48.10 15.34 43.78ZM52.56 62.14L52.56 66.02L19.30 66.02L19.30 62.14ZM19.30 74.02L19.30 70.06L52.56 70.06L52.56 74.02ZM19.30 82.01L19.30 78.05L52.56 78.05L52.56 82.01ZM13.03 89.06L19.30 89.06L19.30 86.98L52.56 86.98L52.56 88.92L59.18 88.92L59.18 57.17L13.03 57.17ZM57.53 31.61C55.87 35.28 53.71 38.59 51.05 41.47C48.24 38.52 45.94 35.21 44.28 31.61ZM61.27 26.06L60.19 26.28L37.08 26.28L37.08 31.61L39.74 31.61L38.52 31.97C40.61 36.94 43.42 41.47 46.87 45.36C43.85 47.74 40.54 49.61 37.01 50.98C35.86 48.53 33.26 44.93 30.96 42.41L26.21 44.42C28.44 47.09 30.96 50.83 31.97 53.28L35.35 51.77C36.50 52.85 37.87 55.08 38.66 56.38C43.13 54.72 47.38 52.34 50.98 49.39C54.79 52.56 59.18 55.15 64.08 56.81C64.87 55.30 66.74 52.78 68.04 51.62C63.43 50.26 59.11 48.10 55.44 45.36C59.83 40.68 63.22 34.78 65.16 27.58Z"/></svg>
