<svg xmlns="http://www.w3.org/2000/svg" xmlns:xlink="http://www.w3.org/1999/xlink" width="72.00000000000001" height="106.56000000000002"><path fill="red" stroke="red" d="M61.20 41.04C60.19 46.01 58.97 51.05 57.82 54.43L63.50 56.23C65.38 51.05 67.46 42.91 69.05 36.00L64.30 34.63L63.29 34.85L42.26 34.85C42.84 31.32 43.42 27.72 43.85 23.98L37.30 23.26C36.07 35.14 33.55 46.30 28.37 53.14C29.95 53.93 32.90 56.02 33.98 56.95C36.86 52.78 39.10 47.30 40.75 41.04ZM22.10 74.45L14.69 74.45L14.69 54.58L22.10 54.58ZM29.02 32.76L29.02 26.71L3.96 26.71L3.96 32.76L12.89 32.76C10.94 42.98 7.85 52.56 3.10 58.97C4.03 60.70 5.33 64.73 5.69 66.38C6.84 64.87 7.92 63.36 8.93 61.63L8.93 85.90L14.69 85.90L14.69 80.35L27.86 80.35L27.86 48.67L14.76 48.67C16.56 43.63 17.93 38.23 19.01 32.76ZM51.34 47.09L44.93 47.09L44.93 50.40C44.93 59.83 43.70 74.09 28.01 84.67C29.66 85.68 31.90 87.91 32.98 89.28C41.90 83.09 46.51 75.74 48.89 68.47C52.42 77.83 57.67 85.18 65.52 89.21C66.46 87.48 68.47 84.96 69.91 83.66C59.98 79.20 53.93 68.76 51.12 56.52C51.26 54.36 51.34 52.42 51.34 50.54Z"/></svg>
