<svg xmlns="http://www.w3.org/2000/svg" xmlns:xlink="http://www.w3.org/1999/xlink" width="72.00000000000001" height="106.56000000000002"><path fill="red" stroke="red" d="M40.61 74.23L50.04 74.23L50.04 80.71L40.61 80.71ZM50.04 57.60L40.61 57.60L40.61 51.41L50.04 51.41ZM50.04 69.12L40.61 69.12L40.61 62.64L50.04 62.64ZM20.88 74.45L14.47 74.45L14.47 54.86L20.88 54.86ZM68.47 80.71L56.23 80.71L56.23 74.23L65.74 74.23L65.74 69.12L56.23 69.12L56.23 62.64L65.74 62.64L65.74 57.60L56.23 57.60L56.23 51.41L66.53 51.41L66.53 45.79L57.67 45.79C56.81 43.49 55.30 40.39 53.93 37.87L48.24 40.10C49.18 41.76 50.11 43.92 50.98 45.79L43.13 45.79C45.14 42.70 47.02 39.38 48.60 35.86L61.34 35.86L61.34 42.48L67.39 42.48L67.39 30.17L50.90 30.17C51.62 28.30 52.20 26.28 52.78 24.34L46.51 22.97C45.86 25.42 45.00 27.86 44.21 30.17L28.87 30.17L28.87 42.70L34.56 42.70L34.56 35.86L41.62 35.86C37.94 43.13 32.98 49.10 26.71 53.42L26.71 49.03L15.05 49.03C16.34 44.28 17.42 39.31 18.36 34.13L27.43 34.13L27.43 28.08L3.89 28.08L3.89 34.13L11.95 34.13C10.15 45.50 7.06 56.09 2.02 62.93C3.24 64.44 5.04 67.68 5.69 69.12C6.84 67.68 7.78 66.10 8.78 64.44L8.78 85.68L14.47 85.68L14.47 80.28L26.71 80.28L26.71 54.79C27.94 56.30 29.30 58.54 29.88 59.69C31.39 58.61 32.83 57.38 34.27 56.16L34.27 89.21L40.61 89.21L40.61 86.26L68.47 86.26Z"/></svg>
