<svg xmlns="http://www.w3.org/2000/svg" xmlns:xlink="http://www.w3.org/1999/xlink" width="72.00000000000001" height="106.56000000000002"><path fill="red" stroke="red" d="M31.10 62.06C29.66 60.55 24.34 55.22 21.46 52.63C24.91 47.95 27.94 42.84 30.02 37.51L26.42 34.99L25.27 35.28L17.86 35.28L23.04 32.11C21.82 29.52 18.94 25.70 16.27 22.90L11.09 25.85C13.54 28.58 16.27 32.62 17.57 35.28L3.96 35.28L3.96 41.33L21.74 41.33C17.14 49.68 9.50 57.53 1.94 61.92C2.81 63.22 4.25 66.74 4.75 68.54C7.78 66.60 10.94 64.08 13.90 61.20L13.90 89.14L20.38 89.14L20.38 59.54C22.82 62.35 25.56 65.59 26.93 67.61ZM52.85 80.06L52.85 51.48L67.39 51.48L67.39 45.07L52.85 45.07L52.85 23.18L46.01 23.18L46.01 45.07L31.10 45.07L31.10 51.48L46.01 51.48L46.01 80.06L27.86 80.06L27.86 86.62L68.98 86.62L68.98 80.06Z"/></svg>
