<svg xmlns="http://www.w3.org/2000/svg" xmlns:xlink="http://www.w3.org/1999/xlink" width="72.00000000000001" height="106.56000000000002"><path fill="red" stroke="red" d="M31.10 62.14C29.66 60.62 24.26 55.30 21.38 52.70C24.91 48.02 27.94 42.84 30.10 37.51L26.50 34.99L25.27 35.28L18.58 35.28L23.26 32.33C21.96 29.74 19.08 25.92 16.42 23.11L11.23 25.99C13.61 28.73 16.20 32.54 17.57 35.28L3.96 35.28L3.96 41.33L21.74 41.33C17.14 49.61 9.50 57.53 1.94 61.92C2.81 63.22 4.25 66.74 4.75 68.54C7.78 66.60 10.94 64.08 13.90 61.20L13.90 89.14L20.38 89.14L20.38 59.62C22.82 62.42 25.56 65.66 26.86 67.68ZM39.60 68.40L56.38 68.40L56.38 80.71L39.60 80.71ZM56.38 33.12L56.38 44.42L39.60 44.42L39.60 33.12ZM56.38 62.35L39.60 62.35L39.60 50.47L56.38 50.47ZM63.14 80.71L63.14 26.93L33.19 26.93L33.19 80.71L25.20 80.71L25.20 86.90L69.12 86.90L69.12 80.71Z"/></svg>
