<svg xmlns="http://www.w3.org/2000/svg" xmlns:xlink="http://www.w3.org/1999/xlink" width="72.00000000000001" height="106.56000000000002"><path fill="red" stroke="red" d="M22.54 61.63C21.82 74.09 19.94 80.14 4.32 83.52C5.83 84.89 7.49 87.55 8.14 89.28C25.85 84.89 28.80 76.75 29.66 61.63ZM69.91 58.32C63.14 54.22 52.20 49.10 41.54 45.00L67.75 45.00L67.75 38.95L39.17 38.95L39.17 31.75C47.02 31.18 54.43 30.24 60.34 29.09L57.38 23.40C45.58 25.70 25.99 27.07 9.65 27.58C10.22 29.02 11.02 31.54 11.16 33.19C17.86 33.05 25.27 32.76 32.54 32.26L32.54 38.95L4.32 38.95L4.32 45.00L25.70 45.00C19.94 50.98 11.23 56.02 2.38 58.54C3.82 59.83 5.76 62.35 6.70 64.01C16.70 60.62 26.21 54.22 32.54 46.22L32.54 60.26L39.17 60.26L39.17 50.18C49.25 54.22 58.97 59.18 64.94 63.14ZM49.82 81.94C47.30 81.94 46.87 81.65 46.87 79.56L46.87 61.63L40.10 61.63L40.10 79.56C40.10 86.04 41.83 87.98 48.96 87.98L58.46 87.98C64.37 87.98 66.17 85.46 66.82 75.53C65.02 75.02 62.21 74.02 60.84 72.86C60.55 80.71 60.12 81.94 57.89 81.94Z"/></svg>
