<svg xmlns="http://www.w3.org/2000/svg" xmlns:xlink="http://www.w3.org/1999/xlink" width="72.00000000000001" height="106.56000000000002"><path fill="red" stroke="red" d="M33.91 61.70C32.33 59.76 25.20 52.13 22.97 50.04L22.97 49.46L34.20 49.46L34.20 43.20L22.97 43.20L22.97 32.54C27.00 31.68 30.74 30.67 33.91 29.52L30.17 23.98C23.76 26.57 13.32 28.80 4.10 30.17C4.90 31.61 5.76 33.91 5.98 35.35C9.36 34.92 12.89 34.42 16.49 33.84L16.49 43.20L4.32 43.20L4.32 49.46L15.41 49.46C12.17 57.17 6.98 65.66 2.09 70.56C3.17 72.29 4.75 75.02 5.47 76.97C9.36 72.65 13.32 66.02 16.49 59.11L16.49 89.14L22.97 89.14L22.97 56.95C25.56 60.48 28.58 64.80 29.95 67.18ZM69.19 84.67C67.25 76.39 62.06 62.93 57.38 52.63L51.19 54.86C53.64 60.70 56.30 67.39 58.39 73.66L39.31 76.32C44.50 61.92 49.39 43.70 52.49 26.42L45.29 25.13C42.41 43.20 36.43 63.43 34.49 68.83C32.47 74.38 31.03 77.90 29.09 78.62C29.95 80.50 31.10 83.81 31.46 85.18C33.70 84.10 36.94 83.38 60.26 79.70C61.20 82.58 61.92 85.18 62.42 87.41Z"/></svg>
