<svg xmlns="http://www.w3.org/2000/svg" xmlns:xlink="http://www.w3.org/1999/xlink" width="72.00000000000001" height="106.56000000000002"><path fill="red" stroke="red" d="M26.57 61.70C25.49 60.12 20.81 54.22 18.79 51.84L18.79 49.68L26.21 49.68L26.21 43.49L18.79 43.49L18.79 31.61C21.53 30.82 24.12 29.95 26.42 29.02L22.32 23.54C17.86 25.78 10.58 27.94 4.18 29.16C4.90 30.67 5.76 32.98 6.12 34.34C8.21 33.98 10.44 33.55 12.67 33.19L12.67 43.49L3.96 43.49L3.96 49.68L11.66 49.68C9.58 57.24 5.90 65.81 2.45 70.78C3.53 72.36 4.97 75.17 5.62 76.97C8.14 73.15 10.66 67.61 12.67 61.56L12.67 89.21L18.79 89.21L18.79 59.26C20.38 61.99 22.03 64.94 22.82 66.82ZM61.42 36.14L61.42 41.54L33.62 41.54L33.62 36.14ZM63.00 49.61C59.98 52.20 55.08 55.51 51.12 57.96C49.90 55.22 48.46 52.70 46.51 50.54C48.02 49.39 49.39 48.24 50.54 47.09L62.64 47.09L62.64 42.91L67.97 42.91L67.97 30.89L51.98 30.89C51.26 28.58 50.04 25.49 48.96 23.04L42.55 24.26C43.49 26.21 44.42 28.73 45.07 30.89L27.36 30.89L27.36 42.91L31.75 42.91L31.75 47.09L43.13 47.09C38.23 50.69 31.54 53.64 25.27 55.51C26.28 56.59 27.94 58.97 28.58 60.12C33.05 58.39 37.87 56.16 42.19 53.50C42.98 54.50 43.63 55.51 44.28 56.66C39.38 60.84 31.46 65.16 25.27 67.32C26.50 68.47 27.79 70.63 28.58 72.07C34.20 69.48 41.11 65.30 46.22 61.20C46.73 62.50 47.16 63.86 47.45 65.16C41.98 70.85 32.54 76.46 24.48 79.06C25.70 80.35 27.00 82.44 27.72 83.95C34.63 81.22 42.48 76.39 48.31 71.28C48.60 76.39 47.81 80.64 46.44 82.08C45.58 83.52 44.57 83.66 43.13 83.66C41.76 83.66 39.96 83.59 37.94 83.38C38.95 85.10 39.38 87.55 39.46 89.14C41.18 89.21 42.98 89.28 44.35 89.28C47.30 89.21 49.39 88.49 51.19 86.26C54.43 82.87 55.66 72.29 52.78 62.35C53.57 61.85 54.50 61.49 55.51 60.91C57.46 69.48 60.91 77.83 65.45 82.51C66.46 81.00 68.33 78.98 69.77 77.90C65.23 73.87 61.63 66.17 59.76 58.39C62.35 56.95 64.87 55.22 67.18 53.71Z"/></svg>
