<svg xmlns="http://www.w3.org/2000/svg" xmlns:xlink="http://www.w3.org/1999/xlink" width="72.00000000000001" height="106.56000000000002"><path fill="red" stroke="red" d="M40.61 35.06L40.61 41.98C40.61 47.74 42.19 49.90 48.82 49.90L59.54 49.90C61.78 49.90 64.37 49.82 65.59 49.39C65.38 47.88 65.23 45.58 65.09 43.85C63.79 44.21 60.91 44.35 59.18 44.35L49.25 44.35C47.52 44.35 47.23 43.70 47.23 42.05L47.23 35.06L59.90 35.06L59.90 41.40L66.96 41.40L66.96 29.02L40.61 29.02C39.89 26.93 38.95 24.41 38.16 22.46L30.96 24.12C31.46 25.63 31.97 27.29 32.54 29.02L5.76 29.02L5.76 41.98L12.46 41.98L12.46 35.06L23.98 35.06C23.18 43.63 20.16 47.16 4.61 48.96C5.83 50.33 7.42 52.85 7.85 54.58C25.92 51.98 29.88 46.51 30.96 35.06ZM67.68 66.53L67.68 60.26L52.27 60.26L55.87 58.32C54.22 56.09 50.76 52.92 47.95 50.83L43.06 53.35C45.58 55.37 48.38 58.18 50.11 60.26L38.81 60.26C39.31 57.10 39.67 53.78 39.96 50.26L32.62 50.26C32.33 53.86 32.04 57.17 31.39 60.26L4.32 60.26L4.32 66.53L29.66 66.53C26.50 74.38 19.73 79.99 3.74 83.16C5.04 84.67 6.84 87.48 7.42 89.35C24.05 85.75 31.90 79.20 35.86 70.42C41.40 80.71 50.04 86.54 64.08 89.06C65.02 86.98 66.89 84.02 68.47 82.44C54.50 80.71 45.58 75.53 40.97 66.53Z"/></svg>
