<svg xmlns="http://www.w3.org/2000/svg" xmlns:xlink="http://www.w3.org/1999/xlink" width="72.00000000000001" height="106.56000000000002"><path fill="red" stroke="red" d="M65.95 28.30L54.22 28.30C53.64 26.57 52.85 24.62 52.06 22.97L46.15 24.12C46.73 25.42 47.30 26.86 47.81 28.30L36.86 28.30L36.86 33.55L65.95 33.55ZM67.46 41.98L59.33 41.98C60.12 40.10 61.06 37.87 61.99 35.78L56.09 34.63C55.66 36.72 54.65 39.60 53.78 41.98L48.31 41.98C47.66 39.82 46.58 37.08 45.65 34.92L40.32 36.00C41.04 37.80 41.83 40.03 42.41 41.98L36.07 41.98L36.07 47.23L67.46 47.23ZM34.27 28.30L23.26 28.30C22.61 26.50 21.74 24.48 20.88 22.82L15.05 24.05C15.55 25.34 16.13 26.86 16.63 28.30L5.47 28.30L5.47 33.48L34.27 33.48ZM34.56 42.12L28.37 42.12C29.16 40.25 30.10 38.02 30.89 35.86L24.91 34.63C24.48 36.79 23.62 39.74 22.75 42.12L17.14 42.12C16.34 39.96 15.19 37.08 14.11 34.85L8.78 36.07C9.58 37.87 10.51 40.18 11.16 42.12L4.25 42.12L4.25 47.45L34.56 47.45ZM13.03 55.01L26.42 55.01L26.42 61.56L13.03 61.56ZM28.08 76.46L28.08 66.10L32.33 66.10L32.33 50.47L7.42 50.47L7.42 66.10L12.17 66.10C11.52 73.94 9.94 80.50 3.17 84.38C4.46 85.39 6.26 87.62 6.91 88.99C15.12 84.10 17.21 75.96 18.07 66.10L22.32 66.10L22.32 75.96C22.32 78.55 21.31 79.63 20.23 80.14C21.24 81.72 22.25 84.82 22.61 86.40C23.62 85.39 25.34 84.17 36.07 78.05C35.57 76.82 35.06 74.59 34.78 72.94ZM43.56 55.08L58.61 55.08L58.61 61.49L43.56 61.49ZM60.05 83.23C59.47 83.23 59.04 83.09 58.75 82.87C58.46 82.58 58.39 81.86 58.39 80.78L58.39 66.02L64.51 66.02L64.51 50.54L37.94 50.54L37.94 66.02L42.70 66.02C41.90 74.59 39.67 81.07 30.60 84.89C31.90 85.82 33.55 88.13 34.27 89.50C44.71 84.82 47.59 76.68 48.67 66.02L52.42 66.02L52.42 80.35C52.42 84.60 52.85 85.82 54.00 86.83C55.08 87.84 57.02 88.27 58.61 88.27L62.57 88.27C63.72 88.27 65.45 88.06 66.38 87.62C67.46 87.12 68.33 86.33 68.76 85.10C69.26 83.95 69.55 80.93 69.62 78.05C68.04 77.62 66.02 76.61 64.87 75.60C64.80 78.34 64.80 80.50 64.58 81.50C64.37 82.30 64.08 82.73 63.72 82.94C63.43 83.16 62.78 83.23 62.21 83.23Z"/></svg>
