<svg xmlns="http://www.w3.org/2000/svg" xmlns:xlink="http://www.w3.org/1999/xlink" width="72.00000000000001" height="106.56000000000002"><path fill="red" stroke="red" d="M69.05 37.30L45.22 37.30C46.66 33.12 47.88 28.80 48.96 24.48L42.19 23.11C40.68 30.02 38.59 36.86 35.86 42.70L35.86 37.30L17.86 37.30C19.30 33.19 20.59 28.87 21.67 24.55L14.62 23.11C12.10 34.49 7.70 45.86 1.94 52.99C3.60 53.86 6.70 55.94 8.06 57.10C10.66 53.50 13.03 48.96 15.26 43.92L17.42 43.92L17.42 89.21L24.19 89.21L24.19 43.92L35.28 43.92C33.62 47.30 31.82 50.26 29.74 52.78C31.39 53.71 34.34 55.73 35.50 56.88C38.09 53.35 40.54 48.89 42.62 43.92L52.06 43.92L52.06 80.71C52.06 81.79 51.70 82.15 50.47 82.22C49.25 82.22 45.07 82.22 40.90 82.08C41.90 84.10 42.91 87.12 43.20 89.14C48.82 89.14 52.99 88.99 55.51 87.84C58.10 86.76 58.90 84.74 58.90 80.78L58.90 43.92L69.05 43.92Z"/></svg>
