<svg xmlns="http://www.w3.org/2000/svg" xmlns:xlink="http://www.w3.org/1999/xlink" width="72.00000000000001" height="106.56000000000002"><path fill="red" stroke="red" d="M51.26 34.49L47.02 37.87C49.54 40.18 52.49 43.56 53.93 45.79L58.75 41.76C57.31 39.67 54.43 36.65 51.98 34.49L68.26 34.49L68.26 28.58L47.52 28.58C48.10 27.22 48.60 25.85 49.03 24.48L42.26 22.75C40.68 28.01 37.58 33.12 33.91 36.50C35.35 37.66 37.94 40.10 39.10 41.47C40.97 39.60 42.77 37.15 44.42 34.49ZM35.71 34.49L35.71 28.58L18.65 28.58C19.30 27.22 19.94 25.99 20.38 24.62L13.82 22.68C11.52 28.80 7.42 34.78 2.95 38.66C4.32 39.96 6.48 43.06 7.42 44.35C10.15 41.76 12.96 38.30 15.34 34.49ZM16.42 38.23C18.86 40.61 21.82 43.99 23.11 46.22L28.01 42.12C26.57 39.89 23.62 36.79 21.10 34.56ZM50.47 72.14L50.47 80.78L21.60 80.78L21.60 72.14ZM15.19 89.21L21.60 89.21L21.60 86.62L50.47 86.62L50.47 88.92L57.10 88.92L57.10 66.38L15.19 66.38ZM26.35 55.87C29.81 53.64 32.98 51.05 35.78 48.38C38.81 50.76 42.77 53.42 47.16 55.87ZM34.85 39.82C28.73 48.24 16.49 55.44 2.88 59.83C4.25 60.98 6.26 63.72 7.13 65.23C12.24 63.43 17.06 61.20 21.60 58.68L21.60 61.42L50.76 61.42L50.76 57.82C55.44 60.34 60.48 62.64 65.30 64.22C66.31 62.50 68.47 59.76 69.91 58.39C59.04 55.30 46.44 49.32 39.46 44.28C40.03 43.70 40.46 43.13 40.97 42.48Z"/></svg>
