<svg xmlns="http://www.w3.org/2000/svg" xmlns:xlink="http://www.w3.org/1999/xlink" width="72.00000000000001" height="106.56000000000002"><path fill="red" stroke="red" d="M21.38 34.34L18.14 37.08C20.74 39.38 23.90 42.77 25.27 45.00L29.66 41.04C28.30 39.10 25.49 36.43 23.04 34.34L35.42 34.34L35.42 28.66L18.14 28.66C18.72 27.29 19.37 25.92 19.94 24.55L13.68 22.82C11.30 28.87 7.13 34.92 2.52 38.88C4.03 39.89 6.48 42.19 7.56 43.34C10.01 40.97 12.53 37.80 14.83 34.34ZM23.11 57.31L33.77 57.31L33.77 51.19L23.11 51.19L23.11 43.56L16.70 43.56L16.70 51.19L4.61 51.19L4.61 57.31L15.41 57.31C12.31 64.44 7.13 72.29 2.38 76.46C3.89 77.76 5.62 80.06 6.62 81.65C10.08 78.12 13.68 72.94 16.70 67.46L16.70 89.28L23.11 89.28L23.11 66.46C25.78 69.55 28.66 73.01 30.10 75.10L34.42 69.77C32.76 68.18 26.21 62.06 23.11 59.40ZM59.04 52.06L59.04 58.03L42.19 58.03L42.19 52.06ZM42.19 69.26L42.19 63.14L59.04 63.14L59.04 69.26ZM42.19 80.64L42.19 74.38L59.04 74.38L59.04 80.64ZM35.78 89.06L42.19 89.06L42.19 86.11L59.04 86.11L59.04 88.63L65.81 88.63L65.81 46.15L35.78 46.15ZM48.24 28.80C48.89 27.29 49.46 25.85 49.97 24.34L43.42 22.82C41.33 29.23 37.44 35.42 32.98 39.46C34.56 40.32 37.37 42.19 38.59 43.27C40.90 40.90 43.27 37.80 45.29 34.42L52.70 34.42L49.90 36.86C52.70 39.38 56.23 42.91 57.82 45.14L62.06 41.11C60.62 39.31 57.82 36.58 55.37 34.42L68.33 34.42L68.33 28.80Z"/></svg>
