<svg xmlns="http://www.w3.org/2000/svg" xmlns:xlink="http://www.w3.org/1999/xlink" width="72.00000000000001" height="106.56000000000002"><path fill="red" stroke="red" d="M20.66 33.26L17.78 36.58C21.02 38.45 25.27 41.47 27.36 43.49L30.89 39.10C28.94 37.51 25.27 34.99 22.18 33.26L35.35 33.26L35.35 28.15L17.42 28.15C18.00 26.86 18.58 25.70 19.08 24.41L13.10 22.82C10.80 28.66 6.84 34.63 2.59 38.45C3.89 39.53 6.26 41.62 7.27 42.77C9.79 40.25 12.46 36.94 14.62 33.26ZM17.21 59.04C17.35 57.10 17.50 55.08 17.57 53.06L30.96 53.06C30.46 53.64 30.02 54.22 29.45 54.72C30.74 55.58 33.26 57.38 34.27 58.39C36.22 56.30 38.09 53.57 39.89 50.62L67.90 50.62L67.90 45.22L42.77 45.22C43.49 43.78 44.06 42.34 44.64 40.90L40.39 39.74C41.90 37.87 43.49 35.71 44.93 33.41L52.27 33.41L49.32 36.58C52.63 38.38 56.88 41.18 59.04 42.98L62.50 38.81C60.48 37.30 56.66 35.06 53.64 33.41L68.33 33.41L68.33 28.22L47.59 28.22C48.17 26.86 48.67 25.56 49.10 24.19L42.91 22.82C41.11 28.58 37.51 34.27 33.34 37.80C34.70 38.59 36.86 39.96 38.16 41.04C36.50 45.29 34.06 49.39 31.32 52.63L31.32 47.45L20.23 47.45L22.46 46.80C21.89 44.35 20.30 40.68 18.65 37.94L13.03 39.38C14.33 41.90 15.62 45.07 16.20 47.45L3.46 47.45L3.46 53.06L11.52 53.06C11.02 66.10 9.72 77.98 2.38 84.89C3.89 85.90 5.90 87.98 6.77 89.50C12.96 83.59 15.55 74.81 16.70 64.58L23.26 64.58C22.97 77.04 22.46 81.65 21.60 82.73C21.10 83.45 20.52 83.59 19.73 83.59C18.72 83.59 16.78 83.52 14.62 83.38C15.48 84.89 16.06 87.34 16.13 89.06C18.86 89.14 21.38 89.14 22.97 88.92C24.77 88.70 25.92 88.13 27.07 86.69C28.66 84.60 29.16 78.34 29.66 61.56C29.66 60.70 29.74 59.04 29.74 59.04ZM67.82 73.30L67.82 67.97L53.42 67.97L53.42 67.75L53.42 61.92L66.17 61.92L66.17 56.52L45.58 56.52C46.22 55.15 46.73 53.78 47.23 52.49L41.69 51.12C40.03 56.16 37.15 61.06 33.70 64.51C35.06 65.23 37.44 66.82 38.52 67.82C40.03 66.17 41.47 64.22 42.77 61.92L47.09 61.92L47.09 67.61L47.09 67.97L32.69 67.97L32.69 73.30L46.22 73.30C44.78 77.47 40.97 81.72 31.32 84.74C32.62 85.82 34.49 88.06 35.21 89.35C46.73 85.03 51.26 79.06 52.70 73.30ZM52.20 77.11C56.52 80.78 62.06 85.97 64.73 89.14L69.12 85.03C66.31 82.01 60.62 77.11 56.45 73.58Z"/></svg>
