<svg xmlns="http://www.w3.org/2000/svg" xmlns:xlink="http://www.w3.org/1999/xlink" width="72.00000000000001" height="106.56000000000002"><path fill="red" stroke="red" d="M22.39 27.65C21.60 32.18 19.80 38.88 18.50 42.91L22.32 44.06C23.90 40.25 25.78 34.13 27.29 28.94ZM11.09 42.91C10.51 38.74 9.14 32.47 7.63 27.58L3.46 28.51C4.82 33.41 6.19 39.74 6.62 43.92ZM8.28 57.10C7.20 63.00 4.68 70.85 2.23 75.02C3.17 76.61 4.39 79.20 4.97 81.00C8.21 75.82 10.87 65.88 12.17 58.39ZM27.14 68.54C26.28 66.60 22.10 58.68 20.95 57.02L17.71 59.18L17.71 53.28L25.78 53.28L25.78 47.02L17.71 47.02L17.71 23.18L12.38 23.18L12.38 47.02L3.38 47.02L3.38 53.28L12.38 53.28L12.38 89.21L17.71 89.21L17.71 59.54C19.22 62.50 21.96 69.55 23.04 72.79ZM68.90 35.93L68.90 30.17L53.42 30.17C52.78 27.94 51.84 25.13 50.90 22.97L44.21 24.19C44.86 25.92 45.58 28.22 46.08 30.17L29.09 30.17L29.09 51.70C29.09 62.06 28.44 75.89 21.60 85.61C23.11 86.26 25.63 87.91 26.71 88.99C33.84 78.55 34.92 62.86 34.92 51.70L34.92 35.93ZM53.57 54.65L59.98 54.65L59.98 58.82L53.57 58.82ZM53.57 45.65L59.98 45.65L59.98 49.90L53.57 49.90ZM60.34 81.36L42.91 81.36L42.91 73.37L60.34 73.37ZM65.52 63.65L65.52 55.01L68.98 55.01L68.98 49.46L65.52 49.46L65.52 40.82L53.57 40.82L53.57 36.72L47.74 36.72L47.74 40.82L37.22 40.82L37.22 45.65L47.74 45.65L47.74 49.90L35.06 49.90L35.06 54.65L47.74 54.65L47.74 58.82L37.01 58.82L37.01 63.65L47.74 63.65L47.74 67.97L37.30 67.97L37.30 89.14L42.91 89.14L42.91 86.40L60.34 86.40L60.34 88.99L66.17 88.99L66.17 67.97L53.57 67.97L53.57 63.65Z"/></svg>
