<svg xmlns="http://www.w3.org/2000/svg" xmlns:xlink="http://www.w3.org/1999/xlink" width="72.00000000000001" height="106.56000000000002"><path fill="red" stroke="red" d="M22.39 27.65C21.60 32.18 19.80 38.88 18.50 42.91L22.32 44.14C23.90 40.32 25.78 34.06 27.29 28.94ZM11.09 42.91C10.51 38.74 9.14 32.54 7.63 27.58L3.46 28.58C4.82 33.48 6.19 39.82 6.62 43.99ZM8.28 57.10C7.20 63.07 4.68 70.85 2.23 75.02C3.17 76.68 4.39 79.27 4.97 81.07C8.21 75.89 10.87 65.95 12.17 58.46ZM27.14 68.62C26.28 66.60 22.10 58.68 20.95 57.02L17.71 59.18L17.71 53.28L25.78 53.28L25.78 47.02L17.71 47.02L17.71 23.18L12.38 23.18L12.38 47.02L3.38 47.02L3.38 53.28L12.38 53.28L12.38 89.21L17.71 89.21L17.71 59.54C19.22 62.50 21.96 69.55 22.97 72.79ZM52.56 52.78L59.62 52.78L59.62 56.95L52.56 56.95ZM52.56 44.21L59.62 44.21L59.62 48.17L52.56 48.17ZM69.41 80.93C66.74 78.91 62.42 76.25 58.10 73.73C60.77 71.64 63.94 68.90 66.74 66.24L62.35 63.00C60.34 65.52 56.88 69.12 54.22 71.42L53.06 70.78L53.06 61.56L64.87 61.56L64.87 52.78L68.90 52.78L68.90 48.17L64.87 48.17L64.87 39.60L53.06 39.60L53.06 34.92L68.54 34.92L68.54 29.52L52.85 29.52C52.20 27.36 51.41 24.70 50.62 22.68L44.28 23.83C44.86 25.49 45.50 27.65 46.01 29.52L29.09 29.52L29.09 53.57C29.09 63.58 28.58 76.90 22.18 86.04C23.69 86.62 26.21 88.20 27.29 89.14C33.91 79.42 34.92 64.37 34.92 53.57L34.92 34.92L47.38 34.92L47.38 39.60L37.80 39.60L37.80 44.21L47.81 44.21L47.81 48.17L36.58 48.17L36.58 52.78L47.81 52.78L47.81 56.95L37.58 56.95L37.58 61.56L47.66 61.56L47.66 70.56C42.12 74.09 36.58 77.54 32.76 79.56L35.57 84.31C39.24 81.94 43.49 78.98 47.66 76.03L47.66 83.45C47.66 84.10 47.45 84.31 46.66 84.31C45.79 84.38 43.49 84.38 40.75 84.31C41.47 85.75 42.34 87.77 42.55 89.21C46.37 89.21 49.03 89.14 50.83 88.34C52.56 87.48 53.06 86.18 53.06 83.45L53.06 76.25C57.96 79.27 63.14 82.66 66.02 85.03ZM45.79 69.41C44.42 67.61 41.54 64.94 39.10 62.93L35.93 66.10C38.23 68.18 41.11 71.21 42.48 73.01Z"/></svg>
