<svg xmlns="http://www.w3.org/2000/svg" xmlns:xlink="http://www.w3.org/1999/xlink" width="72.00000000000001" height="106.56000000000002"><path fill="red" stroke="red" d="M33.26 64.22C32.54 60.48 30.53 54.36 28.51 49.68L23.04 51.05C23.76 52.99 24.55 55.15 25.20 57.31L14.54 58.75C20.59 52.63 26.57 45.07 31.54 37.44L25.56 33.70C23.76 36.94 21.74 40.03 19.66 42.98L12.46 43.56C16.70 38.38 21.10 31.97 24.55 25.70L18.14 22.97C14.76 30.53 9.29 38.38 7.49 40.46C5.76 42.55 4.39 43.92 2.95 44.28C3.74 46.01 4.82 49.10 5.18 50.47C6.19 49.97 7.92 49.54 15.41 48.67C12.74 52.06 10.44 54.58 9.29 55.73C6.77 58.32 5.04 59.98 3.24 60.34C4.03 62.14 5.11 65.45 5.47 66.74C7.06 65.88 9.65 65.38 26.78 62.50C27.07 63.79 27.29 65.02 27.43 65.95ZM7.56 69.41C6.55 75.10 4.97 81.50 2.95 85.75C4.61 86.26 7.42 87.19 8.86 87.84C10.58 83.52 12.53 76.75 13.54 70.63ZM16.13 70.27C17.06 74.95 18.00 81.14 18.14 85.25L23.90 83.74C23.54 79.70 22.54 73.58 21.53 68.90ZM24.19 68.40C25.56 71.71 27.14 76.10 27.72 78.91L33.12 76.90C32.40 74.09 30.89 69.84 29.38 66.53ZM53.86 78.91L53.86 34.99L67.90 34.99L67.90 28.44L33.26 28.44L33.26 34.99L46.94 34.99L46.94 78.91L30.53 78.91L30.53 85.46L69.12 85.46L69.12 78.91Z"/></svg>
