<svg xmlns="http://www.w3.org/2000/svg" xmlns:xlink="http://www.w3.org/1999/xlink" width="72.00000000000001" height="106.56000000000002"><path fill="red" stroke="red" d="M30.67 65.09C29.95 61.27 27.94 55.01 25.99 50.18L20.95 51.70C21.67 53.64 22.39 55.87 23.04 57.96L13.03 59.33C18.72 52.92 24.34 45.07 28.80 37.30L23.04 33.77C21.46 36.94 19.66 40.10 17.78 43.13L11.30 43.63C15.26 38.30 19.22 31.82 22.32 25.34L16.20 22.75C13.32 30.53 8.28 38.59 6.70 40.68C5.18 42.77 3.89 44.28 2.59 44.57C3.31 46.15 4.25 49.18 4.61 50.47C5.69 49.97 7.34 49.61 13.90 48.82C11.59 52.20 9.58 54.72 8.50 55.87C6.34 58.46 4.61 60.19 3.02 60.55C3.82 62.21 4.75 65.38 5.11 66.74C6.62 65.95 9.07 65.38 24.41 63.14C24.77 64.58 25.06 65.81 25.27 66.96ZM5.98 69.41C5.40 75.38 4.32 82.01 2.66 86.33C4.18 86.76 6.91 87.70 8.21 88.42C9.72 83.88 11.02 76.82 11.66 70.42ZM14.26 70.20C15.05 75.24 15.91 81.86 16.06 86.11L21.38 85.03C21.17 80.71 20.30 74.23 19.37 69.19ZM21.89 68.76C23.33 73.08 24.98 78.77 25.63 82.30L30.67 80.64C30.02 77.04 28.30 71.57 26.64 67.32ZM48.82 51.26L48.82 57.74L39.31 57.74L39.31 51.26ZM39.31 69.48L39.31 63.00L48.82 63.00L48.82 69.48ZM41.98 33.62C43.20 30.82 44.28 27.86 45.22 24.84L38.74 23.40C36.43 31.82 32.26 40.18 27.07 45.36C28.66 46.30 31.32 48.24 32.47 49.32C32.98 48.74 33.48 48.17 33.98 47.52L33.98 78.12L39.31 78.12L39.31 74.81L54.22 74.81L54.22 45.94L35.21 45.94C36.58 44.06 37.87 41.90 39.10 39.67L60.77 39.67C60.05 68.11 59.11 78.98 57.10 81.43C56.30 82.37 55.66 82.66 54.29 82.66C52.78 82.66 49.25 82.66 45.29 82.30C46.44 84.17 47.23 87.05 47.30 88.92C51.05 89.14 54.79 89.14 57.17 88.85C59.62 88.49 61.27 87.77 62.78 85.46C65.59 81.94 66.31 70.34 67.18 36.86C67.25 36.00 67.25 33.62 67.25 33.62Z"/></svg>
