<svg xmlns="http://www.w3.org/2000/svg" xmlns:xlink="http://www.w3.org/1999/xlink" width="72.00000000000001" height="106.56000000000002"><path fill="red" stroke="red" d="M5.90 69.41C5.33 75.24 4.39 81.58 2.81 85.90C4.10 86.18 6.55 87.05 7.78 87.70C9.22 83.23 10.51 76.54 11.16 70.34ZM13.75 70.13C14.54 74.95 15.34 81.22 15.48 85.39L20.52 84.10C20.23 79.99 19.44 73.87 18.50 69.05ZM21.67 68.54C23.18 72.94 24.98 78.70 25.70 82.51L30.31 80.78C29.52 77.11 27.79 71.57 26.06 67.18ZM20.74 51.62C21.74 53.71 22.61 56.02 23.40 58.25L12.67 59.69C18.29 52.99 23.90 44.78 28.30 36.65L23.04 33.48C21.53 36.79 19.58 40.25 17.71 43.49L11.09 43.99C14.90 38.66 18.65 31.90 21.60 25.49L15.91 23.18C13.25 30.89 8.42 38.88 6.91 41.04C5.54 43.13 4.25 44.57 3.02 44.93C3.67 46.44 4.61 49.25 4.97 50.47C5.98 49.97 7.49 49.61 14.26 48.82C11.95 52.34 9.94 55.08 8.86 56.30C6.62 58.97 5.11 60.77 3.46 61.20C4.18 62.64 5.11 65.52 5.47 66.74C6.84 65.95 9.22 65.38 24.84 62.93C25.20 64.15 25.42 65.23 25.63 66.17L30.46 64.30C29.74 60.55 27.58 54.58 25.34 50.04ZM40.39 69.70L49.90 69.70L49.90 78.12L40.39 78.12ZM49.90 49.82L40.39 49.82L40.39 42.05L49.90 42.05ZM49.90 63.72L40.39 63.72L40.39 55.87L49.90 55.87ZM68.69 78.12L55.94 78.12L55.94 69.70L66.38 69.70L66.38 63.72L55.94 63.72L55.94 55.87L66.24 55.87L66.24 49.82L55.94 49.82L55.94 42.05L67.68 42.05L67.68 36.00L52.56 36.00L58.10 33.41C57.17 30.67 55.08 26.64 53.28 23.47L47.66 25.85C49.32 29.02 51.34 33.26 52.20 36.00L41.98 36.00C43.63 32.40 45.07 28.80 46.22 25.34L39.89 23.47C37.58 31.68 32.83 42.26 27.36 48.74C28.44 50.33 29.81 53.28 30.46 54.94C31.82 53.42 33.05 51.62 34.34 49.90L34.34 89.35L40.39 89.35L40.39 84.31L68.69 84.31Z"/></svg>
