<svg xmlns="http://www.w3.org/2000/svg" xmlns:xlink="http://www.w3.org/1999/xlink" width="72.00000000000001" height="106.56000000000002"><path fill="red" stroke="red" d="M5.98 69.41C5.33 75.60 4.32 82.44 2.66 86.98C4.03 87.34 6.55 88.20 7.70 88.85C9.29 84.17 10.51 76.97 11.23 70.34ZM13.18 70.06C13.97 75.38 14.69 82.30 14.69 86.90L19.73 86.04C19.58 81.43 18.79 74.66 17.93 69.26ZM19.66 68.76C21.10 73.15 22.54 79.06 23.18 82.87L27.72 81.43C27.14 77.69 25.49 71.93 24.12 67.46ZM19.44 51.91C20.09 53.86 20.74 56.09 21.24 58.32L12.31 59.47C17.64 52.78 22.90 44.57 27.00 36.50L21.74 33.48C20.38 36.79 18.65 40.18 16.92 43.20L10.66 43.78C14.11 38.30 17.50 31.61 20.09 25.20L14.47 22.97C12.10 30.74 7.70 38.95 6.34 41.11C5.04 43.27 3.96 44.78 2.66 45.07C3.38 46.51 4.32 49.32 4.61 50.47C5.62 50.04 7.20 49.61 13.46 48.89C11.23 52.42 9.36 55.08 8.35 56.30C6.26 59.04 4.75 60.84 3.17 61.20C3.89 62.71 4.82 65.52 5.11 66.74C6.48 65.95 8.78 65.45 22.39 63.36C22.68 64.80 22.90 66.10 23.04 67.25L27.94 65.74C27.43 61.92 25.63 55.58 23.98 50.62ZM39.60 37.58L34.42 37.58L34.42 30.60L39.60 30.60ZM44.71 30.60L50.04 30.60L50.04 37.58L44.71 37.58ZM55.15 30.60L60.62 30.60L60.62 37.58L55.15 37.58ZM68.33 55.15L51.05 55.15L51.05 51.26L65.45 51.26L65.45 46.30L51.05 46.30L51.05 42.55L66.53 42.55L66.53 25.63L28.80 25.63L28.80 42.55L44.64 42.55L44.64 46.30L30.17 46.30L30.17 51.26L44.64 51.26L44.64 55.15L28.37 55.15L28.37 60.41L68.33 60.41ZM68.54 75.89L51.05 75.89L51.05 71.71L66.10 71.71L66.10 66.60L58.32 66.60C59.26 65.16 60.26 63.65 61.34 61.99L55.30 60.48C54.65 62.21 53.35 64.66 52.27 66.60L42.48 66.60L43.20 66.38C42.70 64.80 41.62 62.28 40.39 60.48L35.21 61.99C36.00 63.36 36.79 65.09 37.22 66.60L30.53 66.60L30.53 71.71L44.64 71.71L44.64 75.89L28.73 75.89L28.73 80.93L44.64 80.93L44.64 89.21L51.05 89.21L51.05 80.93L68.54 80.93Z"/></svg>
