<svg xmlns="http://www.w3.org/2000/svg" xmlns:xlink="http://www.w3.org/1999/xlink" width="72.00000000000001" height="106.56000000000002"><path fill="red" stroke="red" d="M57.46 35.78L47.02 35.78L47.02 30.67L57.46 30.67ZM40.90 35.78L30.67 35.78L30.67 30.67L40.90 30.67ZM24.48 35.78L14.54 35.78L14.54 30.67L24.48 30.67ZM64.15 25.70L8.14 25.70L8.14 40.75L64.15 40.75ZM7.70 88.63C12.31 85.75 14.62 81.07 16.13 76.18L10.80 74.16C9.50 78.48 6.98 82.51 2.95 84.67ZM19.94 75.60C21.17 79.42 22.10 84.38 22.18 87.41L28.15 86.11C27.94 83.09 26.86 78.26 25.49 74.52ZM30.82 75.67C32.83 79.06 34.85 83.52 35.57 86.40L40.97 84.31C40.10 81.50 37.94 77.18 35.86 73.94ZM53.14 80.71C51.91 78.41 49.03 75.17 46.44 72.94L41.90 75.24C44.50 77.62 47.23 81.00 48.38 83.30ZM19.30 63.79L33.62 63.79L33.62 67.39L19.30 67.39ZM33.62 48.96L33.62 52.56L19.30 52.56L19.30 48.96ZM33.62 59.98L19.30 59.98L19.30 56.38L33.62 56.38ZM65.52 67.39L40.10 67.39L40.10 63.79L59.18 63.79L59.18 59.98L40.10 59.98L40.10 56.38L59.18 56.38L59.18 52.56L40.10 52.56L40.10 48.96L62.50 48.96L62.50 43.99L12.60 43.99L12.60 72.36L58.61 72.36C57.82 79.42 56.88 82.58 55.87 83.59C55.37 84.17 54.79 84.24 53.71 84.24C52.63 84.24 50.11 84.17 47.30 83.88C48.17 85.32 48.67 87.48 48.82 88.99C51.98 89.14 55.01 89.14 56.59 89.06C58.54 88.85 59.98 88.42 61.20 87.19C62.93 85.32 64.22 80.86 65.30 69.91Z"/></svg>
