<svg xmlns="http://www.w3.org/2000/svg" xmlns:xlink="http://www.w3.org/1999/xlink" width="72.00000000000001" height="106.56000000000002"><path fill="red" stroke="red" d="M50.90 81.94C48.24 81.94 47.66 81.58 47.66 79.42L47.66 62.78L68.26 62.78L68.26 56.59L39.31 56.59L39.31 50.98L60.98 50.98L60.98 45.14L39.31 45.14L39.31 39.67L64.66 39.67L64.66 33.62L49.82 33.62C51.91 31.18 54.36 27.94 56.45 24.84L49.10 22.97C47.81 25.99 45.14 30.31 43.06 33.05L44.78 33.62L26.28 33.62L28.44 32.69C27.29 29.88 24.77 25.92 22.18 23.11L16.49 25.34C18.50 27.72 20.45 30.96 21.67 33.62L7.42 33.62L7.42 39.67L32.40 39.67L32.40 45.14L11.23 45.14L11.23 50.98L32.40 50.98L32.40 56.59L3.96 56.59L3.96 62.78L21.74 62.78C20.45 72.36 17.57 79.49 3.17 83.30C4.68 84.67 6.48 87.55 7.27 89.21C23.47 84.24 27.36 75.10 28.94 62.78L40.90 62.78L40.90 79.49C40.90 86.04 42.70 88.13 50.04 88.13L60.26 88.13C66.53 88.13 68.40 85.39 69.12 74.81C67.25 74.30 64.37 73.30 63.00 72.22C62.71 80.71 62.28 81.94 59.62 81.94Z"/></svg>
