<svg xmlns="http://www.w3.org/2000/svg" xmlns:xlink="http://www.w3.org/1999/xlink" width="72.00000000000001" height="106.56000000000002"><path fill="red" stroke="red" d="M37.87 44.64C43.27 42.70 50.11 40.18 56.81 37.58L56.16 33.91L50.98 35.42L52.56 32.40C50.04 31.46 45.65 30.24 41.98 29.45L58.68 29.45L58.68 39.74C58.68 40.54 58.39 40.75 57.53 40.75C56.88 40.75 53.86 40.82 51.12 40.68C51.77 41.83 52.56 43.20 52.92 44.50C57.24 44.50 60.26 44.50 62.21 43.92C64.15 43.27 64.73 42.34 64.73 39.67L64.73 24.84L35.93 24.84L35.93 29.45L40.82 29.45L39.10 32.26C42.70 33.19 47.52 34.56 50.26 35.64C44.71 37.30 39.31 38.95 35.50 39.89ZM6.91 44.86C12.31 42.77 19.01 40.10 25.56 37.51L24.84 33.77L19.66 35.50L21.31 32.40C18.79 31.46 14.54 30.31 10.94 29.45L27.36 29.45L27.36 39.74C27.36 40.54 27.07 40.75 26.21 40.82C25.49 40.82 22.54 40.90 19.73 40.75C20.38 41.83 21.24 43.27 21.53 44.57C25.92 44.57 28.87 44.57 30.89 43.99C32.76 43.27 33.41 42.34 33.41 39.74L33.41 24.84L4.75 24.84L4.75 29.45L9.50 29.45L7.85 32.18C11.52 33.12 16.27 34.56 19.08 35.71C13.61 37.44 8.35 39.17 4.54 40.18ZM27.72 71.42L43.99 71.42L43.99 74.88L27.72 74.88ZM27.72 63.94L43.99 63.94L43.99 67.18L27.72 67.18ZM17.57 56.66L32.54 56.66L32.54 59.90L17.57 59.90ZM17.57 49.68L32.54 49.68L32.54 52.85L17.57 52.85ZM53.78 52.85L38.81 52.85L38.81 49.68L53.78 49.68ZM53.78 59.90L38.81 59.90L38.81 56.66L53.78 56.66ZM68.54 74.88L50.47 74.88L50.47 71.42L65.30 71.42L65.30 67.18L50.47 67.18L50.47 63.94L60.26 63.94L60.26 45.58L11.38 45.58L11.38 63.94L21.31 63.94L21.31 67.18L6.77 67.18L6.77 71.42L21.31 71.42L21.31 74.88L3.67 74.88L3.67 79.42L22.97 79.42C17.93 81.65 10.30 83.66 3.38 84.82C4.90 85.90 7.20 88.27 8.28 89.42C15.70 87.70 24.84 84.74 30.60 81.07L26.57 79.42L44.35 79.42L41.26 82.08C49.18 84.24 57.17 87.05 61.78 89.28L67.18 85.39C62.71 83.59 55.66 81.22 48.89 79.42L68.54 79.42Z"/></svg>
