<svg xmlns="http://www.w3.org/2000/svg" xmlns:xlink="http://www.w3.org/1999/xlink" width="72.00000000000001" height="106.56000000000002"><path fill="red" stroke="red" d="M62.21 45.86C62.21 46.58 61.99 46.73 61.27 46.80C60.48 46.87 58.25 46.87 55.66 46.73C56.16 48.02 56.59 49.54 56.81 50.76C60.55 50.76 63.43 50.76 65.09 50.11C66.82 49.39 67.25 48.38 67.25 45.94L67.25 25.78L49.03 25.78L49.03 30.46L62.21 30.46ZM59.83 34.99C57.96 33.77 54.50 31.97 51.98 30.74L49.46 33.91C52.13 35.21 55.51 37.22 57.31 38.52ZM60.48 37.58C55.94 40.03 51.62 42.34 48.53 43.70L51.26 47.74C54.50 45.72 58.03 43.42 61.56 41.11ZM42.77 45.86C42.77 46.51 42.55 46.73 41.76 46.73C41.04 46.80 38.74 46.80 36.22 46.73C36.72 47.88 37.22 49.18 37.37 50.33C41.18 50.40 44.06 50.33 45.65 49.75C47.38 49.10 47.81 48.17 47.81 45.86L47.81 25.70L29.74 25.70L29.74 30.46L42.77 30.46ZM31.82 47.30C35.06 45.43 38.52 43.34 41.98 41.18L40.97 37.58C36.43 39.82 32.26 41.90 29.16 43.20ZM30.24 33.84C32.69 35.28 35.78 37.37 37.51 38.74L40.25 35.50C38.52 34.20 35.28 32.33 32.90 30.96ZM24.12 28.22C23.26 33.26 21.31 40.61 19.80 45.00L23.76 46.08C25.42 41.83 27.50 34.99 29.16 29.38ZM11.66 44.93C11.09 40.54 9.58 33.91 8.14 28.66L3.60 29.66C4.97 34.85 6.41 41.69 6.91 46.08ZM22.90 74.23L22.90 54.22L28.94 54.22L28.94 48.02L18.72 48.02L18.72 24.41L13.10 24.41L13.10 48.02L2.88 48.02L2.88 54.22L8.64 54.22C8.42 67.46 7.56 77.62 2.66 83.88C4.10 84.82 5.98 86.90 6.77 88.42C12.67 80.93 13.75 69.26 14.04 54.22L17.50 54.22L17.50 74.88C17.50 77.69 16.34 78.91 15.34 79.56C16.20 80.57 17.35 82.94 17.71 84.24C18.86 83.02 20.66 81.72 31.25 75.89C30.74 74.74 30.17 72.36 29.81 70.78ZM38.45 77.33L49.54 77.33L49.54 81.79L38.45 81.79ZM49.54 63.86L38.45 63.86L38.45 59.62L49.54 59.62ZM49.54 72.72L38.45 72.72L38.45 68.40L49.54 68.40ZM69.12 81.79L55.22 81.79L55.22 77.33L66.53 77.33L66.53 72.72L55.22 72.72L55.22 68.40L66.53 68.40L66.53 63.86L55.22 63.86L55.22 59.62L68.04 59.62L68.04 54.86L54.86 54.86C54.14 53.14 53.14 50.76 52.13 49.03L47.09 50.62C47.66 51.91 48.31 53.42 48.96 54.86L39.60 54.86C40.18 53.71 40.61 52.56 41.11 51.41L35.71 49.82C33.55 55.30 29.81 60.70 25.63 64.22C26.78 65.38 28.73 67.68 29.52 68.76C30.60 67.75 31.61 66.67 32.62 65.52L32.62 89.21L38.45 89.21L38.45 86.69L69.12 86.69Z"/></svg>
