<svg xmlns="http://www.w3.org/2000/svg" xmlns:xlink="http://www.w3.org/1999/xlink" width="72.00000000000001" height="106.56000000000002"><path fill="red" stroke="red" d="M17.28 32.76L6.70 32.76L6.70 36.36L33.91 36.36L33.91 32.76L23.33 32.76L23.33 30.02L35.86 30.02L35.86 26.42L23.33 26.42L23.33 23.11L17.28 23.11L17.28 26.42L4.46 26.42L4.46 30.02L17.28 30.02ZM21.31 78.62L21.31 75.53L50.69 75.53L50.69 78.62ZM50.69 60.62L50.69 63.72L21.31 63.72L21.31 60.62ZM18.00 42.12L18.00 46.58L12.60 46.58C12.74 45.22 12.82 43.99 12.82 42.84L12.82 42.12ZM28.66 46.58L22.82 46.58L22.82 42.12L28.66 42.12ZM21.31 67.90L50.69 67.90L50.69 71.35L21.31 71.35ZM57.31 60.62L65.88 60.62L65.88 55.80L8.93 55.80C10.37 54.07 11.23 52.06 11.81 50.11L33.91 50.11L33.91 38.59L7.56 38.59L7.56 42.77C7.56 46.01 6.98 50.40 3.31 53.93C4.25 54.22 5.47 55.08 6.62 55.80L6.62 60.62L14.76 60.62L14.76 78.62L4.39 78.62L4.39 83.45L50.69 83.45L50.69 89.35L57.31 89.35L57.31 83.45L67.39 83.45L67.39 78.62L57.31 78.62ZM56.52 41.69C55.08 43.42 53.06 45.00 50.90 46.22C48.46 44.93 46.58 43.42 45.07 41.69ZM60.77 37.66L59.69 37.80L41.18 37.80C44.78 35.42 46.01 32.47 46.22 29.59L54.22 29.59L54.22 31.32C54.22 35.35 55.01 37.37 59.33 37.37L64.08 37.37C65.30 37.37 66.89 37.30 67.75 37.01C67.54 35.64 67.46 34.20 67.39 32.83C66.53 33.12 64.80 33.19 63.94 33.19L60.77 33.19C59.76 33.19 59.62 32.69 59.62 31.39L59.62 24.98L41.04 24.98L41.04 28.58C41.04 31.03 40.10 33.26 34.85 35.28C35.57 35.78 36.79 37.01 37.66 38.09L37.66 41.69L40.03 41.69L39.53 41.83C41.18 44.35 43.20 46.66 45.79 48.53C42.34 49.68 38.52 50.47 34.56 50.98C35.57 52.13 36.79 54.22 37.30 55.58C42.26 54.79 47.02 53.57 51.12 51.62C55.01 53.50 59.40 54.72 64.44 55.51C65.16 54.00 66.60 52.06 67.75 50.90C63.58 50.47 59.76 49.75 56.38 48.60C59.76 46.15 62.57 42.98 64.22 38.95Z"/></svg>
