<svg xmlns="http://www.w3.org/2000/svg" xmlns:xlink="http://www.w3.org/1999/xlink" width="72.00000000000001" height="106.56000000000002"><path fill="red" stroke="red" d="M23.69 47.74L23.69 44.64L48.67 44.64L48.67 47.74ZM48.67 31.61L48.67 34.20L23.69 34.20L23.69 31.61ZM23.69 38.09L48.67 38.09L48.67 40.75L23.69 40.75ZM48.67 54.50L55.08 54.50L55.08 52.49L65.16 52.49L65.16 47.74L55.08 47.74L55.08 31.61L64.15 31.61L64.15 26.64L8.78 26.64L8.78 31.61L17.50 31.61L17.50 47.74L6.77 47.74L6.77 52.49L48.67 52.49ZM25.42 63.86L14.04 63.86L14.04 60.62L25.42 60.62ZM14.04 74.88L25.42 74.88L25.42 78.12C21.46 78.34 17.64 78.55 14.04 78.70ZM25.42 71.06L14.04 71.06L14.04 67.68L25.42 67.68ZM35.21 60.62L35.21 55.80L3.89 55.80L3.89 60.62L8.35 60.62L8.35 78.98C6.41 79.06 4.61 79.13 3.02 79.20L3.31 84.31C9.43 83.95 17.35 83.45 25.42 82.94L25.42 89.14L31.39 89.14L31.39 60.62ZM58.03 64.30L44.78 64.30L44.78 60.84L58.03 60.84ZM44.78 78.70L44.78 75.31L58.03 75.31L58.03 78.70ZM58.03 71.50L44.78 71.50L44.78 68.11L58.03 68.11ZM68.40 60.84L68.40 56.02L36.29 56.02L36.29 60.84L38.88 60.84L38.88 78.70L34.34 78.70L34.34 83.52L58.03 83.52L58.03 89.14L64.15 89.14L64.15 83.52L68.26 83.52L68.26 78.70L64.15 78.70L64.15 60.84Z"/></svg>
