<svg xmlns="http://www.w3.org/2000/svg" xmlns:xlink="http://www.w3.org/1999/xlink" width="72.00000000000001" height="106.56000000000002"><path fill="red" stroke="red" d="M21.10 68.76C22.03 70.78 23.04 73.15 23.98 75.46L13.25 77.40C15.62 73.30 18.00 68.40 19.87 63.65L32.26 63.65L32.26 58.03L15.34 58.03L15.34 52.63L29.59 52.63L29.59 47.38L15.34 47.38L15.34 42.26L29.45 42.26L29.45 37.01L15.34 37.01L15.34 31.68L31.90 31.68L31.90 26.21L9.00 26.21L9.00 58.03L3.10 58.03L3.10 63.65L12.74 63.65C10.87 69.26 8.28 74.45 7.34 76.03C6.26 77.98 5.18 79.27 3.96 79.56C4.75 81.22 5.83 84.31 6.19 85.61C7.78 84.74 10.30 83.88 26.14 80.64C26.86 82.66 27.43 84.38 27.86 85.82L33.70 83.45C32.18 79.34 29.02 72.29 26.50 66.82ZM51.84 45.36L59.18 45.36L59.18 50.76L51.84 50.76ZM51.84 34.63L59.18 34.63L59.18 39.89L51.84 39.89ZM64.94 56.16L64.94 45.36L69.19 45.36L69.19 39.89L64.94 39.89L64.94 29.30L51.84 29.30L51.84 23.47L45.72 23.47L45.72 29.30L34.34 29.30L34.34 34.63L45.72 34.63L45.72 39.89L31.75 39.89L31.75 45.36L45.72 45.36L45.72 50.76L34.13 50.76L34.13 56.16L45.72 56.16L45.72 60.98L34.06 60.98L34.06 66.60L45.72 66.60L45.72 71.86L32.04 71.86L32.04 77.54L45.72 77.54L45.72 89.06L51.84 89.06L51.84 77.54L68.04 77.54L68.04 71.86L51.84 71.86L51.84 66.60L65.66 66.60L65.66 60.98L51.84 60.98L51.84 56.16Z"/></svg>
