<svg xmlns="http://www.w3.org/2000/svg" xmlns:xlink="http://www.w3.org/1999/xlink" width="72.00000000000001" height="106.56000000000002"><path fill="red" stroke="red" d="M44.28 32.04L54.58 32.04L54.58 41.90C54.58 47.81 55.80 50.11 61.34 50.11L65.52 50.11C66.74 50.11 68.18 50.04 69.12 49.68L68.62 44.28C67.75 44.57 66.24 44.71 65.38 44.71L61.92 44.71C60.98 44.71 60.91 43.99 60.91 41.98L60.91 25.85L38.16 25.85L38.16 33.62C38.16 38.45 36.94 44.06 28.94 48.24C30.17 49.10 32.47 51.62 33.26 52.92C42.34 47.95 44.28 40.25 44.28 33.70ZM13.25 44.86C15.62 47.38 18.14 50.33 19.51 52.27L22.25 49.97L22.25 58.18C18.79 59.62 15.55 60.98 13.03 61.99C13.18 58.25 13.25 54.58 13.25 51.34ZM22.25 31.82L22.25 47.09C20.38 44.93 17.78 42.34 15.48 40.32L13.25 41.90L13.25 31.82ZM28.30 25.70L7.27 25.70L7.27 51.48C7.27 61.99 6.98 76.25 2.59 86.26C4.10 86.76 6.84 88.20 8.06 89.28C11.09 82.22 12.38 72.65 12.89 63.72L14.98 68.40L22.25 63.94L22.25 81.14C22.25 82.08 21.96 82.44 21.10 82.44C20.30 82.44 17.78 82.44 15.05 82.37C15.84 84.02 16.56 86.98 16.78 88.63C21.24 88.63 23.98 88.49 25.85 87.41C27.72 86.33 28.30 84.38 28.30 81.29ZM58.03 60.62C55.80 65.45 52.63 69.55 48.82 72.94C45.00 69.41 41.98 65.30 39.89 60.62ZM62.35 54.14L61.20 54.36L31.39 54.36L31.39 60.62L35.93 60.62L33.55 61.34C36.14 67.25 39.53 72.50 43.78 76.90C39.24 79.78 34.06 81.86 28.73 83.23C30.02 84.60 31.54 87.19 32.33 88.99C38.23 87.19 43.85 84.67 48.74 81.29C53.28 84.74 58.61 87.41 64.73 89.14C65.59 87.34 67.54 84.74 69.05 83.38C63.43 82.01 58.39 79.85 54.07 76.97C59.76 71.64 64.15 64.73 66.67 55.80Z"/></svg>
