<svg xmlns="http://www.w3.org/2000/svg" xmlns:xlink="http://www.w3.org/1999/xlink" width="72.00000000000001" height="106.56000000000002"><path fill="red" stroke="red" d="M62.71 52.63L20.30 52.63L20.30 64.22C20.30 70.49 19.66 78.70 14.11 84.60C15.48 85.46 18.29 87.91 19.30 89.21C25.63 82.37 26.86 71.93 26.86 64.37L26.86 58.18L56.16 58.18L56.16 69.62C45.50 71.50 34.78 73.30 27.43 74.45L29.45 80.35C36.94 78.98 46.66 77.11 56.16 75.24L56.16 81.72C56.16 82.66 55.80 82.94 54.65 82.94C53.64 83.02 49.75 83.09 46.01 82.87C46.87 84.46 47.81 86.69 48.02 88.34C53.42 88.34 57.17 88.34 59.54 87.41C61.99 86.62 62.71 84.96 62.71 81.72ZM28.51 64.73C36.07 65.74 45.86 68.18 51.12 70.34L53.28 65.23C47.95 63.14 38.09 60.91 30.60 60.26ZM57.31 43.13L16.56 43.13L16.56 38.74L57.31 38.74ZM16.56 33.98L16.56 31.18C32.04 30.74 49.18 29.59 61.06 27.58L56.88 23.26C45.94 25.13 26.42 26.35 9.94 26.78L9.94 43.27C9.94 55.22 9.43 73.08 2.88 85.61C4.46 86.26 7.49 88.13 8.64 89.21C14.83 77.47 16.27 60.34 16.49 47.88L63.94 47.88L63.94 33.98Z"/></svg>
