<svg xmlns="http://www.w3.org/2000/svg" xmlns:xlink="http://www.w3.org/1999/xlink" width="72.00000000000001" height="106.56000000000002"><path fill="red" stroke="red" d="M21.24 42.91C24.12 40.75 27.00 38.30 29.88 35.64L45.72 35.64L42.84 37.37C44.78 38.81 46.73 40.39 48.74 41.98ZM67.46 29.74L35.93 29.74C37.51 28.15 38.95 26.57 40.39 24.91L33.62 22.25C31.61 24.77 29.30 27.43 27.14 29.74L4.54 29.74L4.54 35.64L21.02 35.64C18.86 37.58 17.06 39.10 16.06 39.82C13.54 41.76 11.66 43.13 9.86 43.42C10.66 45.14 11.52 48.31 11.88 49.68C14.62 48.67 18.58 48.60 54.43 47.02C56.16 48.67 57.74 50.33 58.82 51.70L12.96 51.70L12.96 63.72C12.96 70.56 12.31 79.49 6.05 85.82C7.63 86.54 10.44 88.63 11.45 89.93C18.29 82.73 19.51 71.93 19.51 63.86L19.51 57.24L53.50 57.24L53.50 69.34C41.26 71.42 28.51 73.44 20.66 74.52L22.68 80.57C31.32 78.91 42.55 76.68 53.50 74.30L53.50 81.72C53.50 82.80 53.06 83.23 51.77 83.23C50.62 83.30 45.29 83.30 41.11 83.09C41.83 84.74 42.62 87.12 42.84 88.85C49.39 88.85 54.00 88.85 56.88 88.06C59.69 87.19 60.77 85.61 60.77 81.79L60.77 51.70L59.11 51.70L64.80 48.10C61.63 44.50 55.66 39.46 50.33 35.64L67.46 35.64ZM21.53 63.58C30.17 64.80 41.18 67.82 46.87 70.34L48.96 65.59C43.13 63.14 32.04 60.41 23.62 59.40Z"/></svg>
