<svg xmlns="http://www.w3.org/2000/svg" xmlns:xlink="http://www.w3.org/1999/xlink" width="72.00000000000001" height="106.56000000000002"><path fill="red" stroke="red" d="M33.55 41.40L29.30 42.05L29.30 23.04L22.61 23.04L22.61 28.94L6.05 28.94L6.05 34.20L22.61 34.20L22.61 43.13C15.55 44.28 9.07 45.22 4.32 45.79L5.26 51.41C13.03 50.11 23.69 48.17 33.77 46.37ZM58.68 52.13L13.75 52.13L13.75 63.86C13.75 70.56 12.89 79.06 5.76 85.18C7.13 86.04 9.79 88.49 10.80 89.86C18.72 82.87 20.23 72.07 20.23 64.01L20.23 57.67L51.84 57.67L51.84 69.41C40.32 71.50 28.30 73.51 20.30 74.66L22.39 80.57C30.60 79.13 41.40 77.04 51.84 74.95L51.84 82.08C51.84 83.09 51.48 83.38 50.26 83.45C49.10 83.52 44.71 83.52 40.82 83.30C41.76 84.96 42.70 87.41 43.06 89.21C48.82 89.21 52.78 89.14 55.30 88.20C57.82 87.26 58.68 85.54 58.68 82.15ZM21.38 63.86C28.94 65.30 38.59 68.26 43.63 70.63L46.15 65.52C41.04 63.14 31.32 60.48 23.90 59.33ZM49.32 43.85C46.37 43.85 45.86 43.49 45.86 41.40L45.86 34.20L63.22 34.20L63.22 28.94L45.86 28.94L45.86 23.04L39.10 23.04L39.10 41.40C39.10 47.74 40.90 49.54 48.53 49.54L59.69 49.54C65.45 49.54 67.32 47.59 68.11 40.32C66.24 39.96 63.58 39.02 62.06 38.02C61.85 42.98 61.34 43.85 59.11 43.85Z"/></svg>
