<svg xmlns="http://www.w3.org/2000/svg" xmlns:xlink="http://www.w3.org/1999/xlink" width="72.00000000000001" height="106.56000000000002"><path fill="red" stroke="red" d="M12.89 43.63C14.98 46.30 17.21 49.46 18.36 51.48L21.38 49.54L21.38 56.52C18.07 58.68 14.98 60.77 12.60 62.06C12.82 58.18 12.89 54.43 12.89 51.12ZM21.38 31.82L21.38 47.02C19.87 44.86 17.93 42.34 16.06 40.46L12.89 42.34L12.89 31.82ZM50.54 47.02C55.15 52.56 60.84 59.90 63.50 64.44L69.05 60.62C66.10 56.09 59.83 48.60 55.22 43.27L50.54 46.15L50.54 43.27C52.20 40.25 53.57 37.15 54.86 33.98L68.04 33.98L68.04 27.72L30.24 27.72L30.24 33.98L47.74 33.98C43.20 45.00 35.93 54.86 27.36 61.13L27.36 25.70L6.98 25.70L6.98 51.19C6.98 61.56 6.62 75.67 2.38 85.61C3.67 86.33 6.26 88.49 7.27 89.78C10.51 82.44 11.88 72.65 12.53 63.50L14.62 68.26C16.78 66.38 19.15 64.44 21.38 62.50L21.38 81.79C21.38 82.80 21.02 83.09 20.09 83.16C19.22 83.16 16.27 83.23 13.25 83.09C14.04 84.60 14.90 87.26 15.05 88.85C19.80 88.85 22.75 88.78 24.77 87.70C26.71 86.76 27.36 84.96 27.36 81.86L27.36 62.21C28.80 63.50 30.74 65.66 31.61 66.74C36.07 63.22 40.25 58.82 43.99 53.71L43.99 80.71L28.80 80.71L28.80 86.98L68.83 86.98L68.83 80.71L50.54 80.71Z"/></svg>
