<svg xmlns="http://www.w3.org/2000/svg" xmlns:xlink="http://www.w3.org/1999/xlink" width="72.00000000000001" height="106.56000000000002"><path fill="red" stroke="red" d="M66.96 33.91L54.07 33.91C52.92 30.67 50.98 26.42 49.10 23.18L43.06 24.84C44.64 27.65 46.08 31.03 47.09 33.91L33.41 33.91L33.41 39.82L66.96 39.82ZM14.62 41.26C16.06 44.42 17.78 48.60 18.58 51.34L22.82 49.54C22.10 46.94 20.30 42.84 18.79 39.60ZM13.61 37.15L24.48 37.15L24.48 52.85C20.74 53.35 17.06 53.86 13.61 54.29ZM34.34 56.66L33.98 51.55L30.31 52.06L30.31 31.82L20.23 31.82C21.10 29.52 22.10 26.71 22.97 24.12L16.20 22.97C15.77 25.56 15.05 29.02 14.26 31.82L7.78 31.82L7.78 55.01C5.90 55.22 4.10 55.44 2.52 55.58L3.38 61.20L7.78 60.55C7.70 69.12 6.98 79.20 2.45 86.33C3.96 86.98 6.48 88.63 7.63 89.71C12.60 81.72 13.54 69.26 13.61 59.69L24.48 58.18L24.48 81.79C24.48 82.66 24.19 82.87 23.33 82.94C22.61 82.94 19.94 83.02 17.21 82.87C18.07 84.38 18.94 87.05 19.01 88.56C23.33 88.56 25.99 88.49 27.94 87.41C29.74 86.47 30.31 84.74 30.31 81.79L30.31 57.24ZM23.54 72.07C22.54 69.26 20.38 64.87 18.50 61.49L14.47 63.14C16.20 66.53 18.36 71.14 19.15 74.02ZM61.56 82.15C61.13 82.15 60.84 82.01 60.62 81.79C60.41 81.43 60.41 80.50 60.41 78.84L60.41 46.73L37.87 46.73L37.87 62.71C37.87 69.91 37.15 78.98 30.74 85.46C32.26 86.18 34.92 88.13 36.07 89.28C42.91 82.22 44.14 71.21 44.14 62.86L44.14 52.56L54.07 52.56L54.07 78.70C54.07 83.74 54.43 85.18 55.51 86.26C56.59 87.26 58.18 87.77 59.62 87.77L62.93 87.77C64.30 87.77 65.74 87.48 66.60 86.76C67.54 86.18 68.18 85.10 68.54 83.59C68.90 82.01 69.19 77.83 69.19 74.45C67.68 74.02 65.81 73.01 64.66 72.00C64.58 75.60 64.51 78.41 64.37 79.70C64.30 80.93 64.08 81.50 63.79 81.79C63.65 82.01 63.14 82.15 62.71 82.15Z"/></svg>
