<svg xmlns="http://www.w3.org/2000/svg" xmlns:xlink="http://www.w3.org/1999/xlink" width="72.00000000000001" height="106.56000000000002"><path fill="red" stroke="red" d="M13.25 41.26C14.54 44.42 16.06 48.60 16.63 51.41L20.59 49.75C19.87 47.16 18.36 43.06 16.92 39.89ZM12.53 37.15L21.38 37.15L21.38 53.21C18.29 53.64 15.34 54.07 12.53 54.43ZM30.67 57.10L30.24 51.98L26.78 52.49L26.78 31.82L18.50 31.82C19.37 29.52 20.23 26.71 21.10 24.12L14.98 22.97C14.62 25.56 13.90 29.02 13.18 31.82L7.27 31.82L7.27 55.01C5.54 55.15 3.96 55.37 2.52 55.51L3.38 61.13L7.27 60.55C7.20 69.05 6.55 79.13 2.09 86.26C3.46 86.83 5.76 88.34 6.70 89.35C11.59 81.36 12.46 69.19 12.53 59.76L21.38 58.46L21.38 81.94C21.38 82.87 21.10 83.09 20.23 83.16C19.44 83.16 16.85 83.23 13.97 83.09C14.76 84.53 15.62 86.90 15.77 88.42C19.94 88.42 22.61 88.34 24.41 87.41C26.21 86.40 26.78 84.89 26.78 82.01L26.78 57.67ZM20.81 72.50C20.02 69.70 18.29 65.23 16.70 61.85L13.03 63.14C14.47 66.60 16.13 71.14 16.85 74.02ZM58.46 50.54L58.46 54.00L40.32 54.00L40.32 50.54ZM40.25 61.92C40.32 60.62 40.32 59.47 40.32 58.25L58.46 58.25L58.46 61.92ZM60.19 75.10L60.19 81.94L43.78 81.94L43.78 75.10ZM64.44 66.82L64.44 45.72L34.20 45.72L34.20 57.74C34.20 65.81 33.48 77.11 27.14 85.25C28.66 85.82 31.32 87.70 32.47 88.78C35.14 85.25 36.86 81.07 38.09 76.75L38.09 89.14L43.78 89.14L43.78 86.98L60.19 86.98L60.19 88.99L66.10 88.99L66.10 70.13L39.46 70.13C39.60 68.98 39.74 67.90 39.89 66.82ZM43.06 37.30C45.29 35.35 47.45 33.19 49.32 30.96C51.41 33.05 53.86 35.28 56.38 37.30ZM48.24 22.54C44.06 29.52 36.22 35.64 28.44 39.46C29.45 40.75 31.25 43.85 31.82 45.14C35.06 43.42 38.38 41.11 41.47 38.66L41.47 41.98L57.67 41.98L57.67 38.30C60.70 40.61 63.94 42.70 66.96 44.28C67.46 42.70 68.76 39.89 69.77 38.45C63.79 35.86 56.88 31.18 52.63 26.71C53.06 25.99 53.57 25.27 54.00 24.62Z"/></svg>
