<svg xmlns="http://www.w3.org/2000/svg" xmlns:xlink="http://www.w3.org/1999/xlink" width="72.00000000000001" height="106.56000000000002"><path fill="red" stroke="red" d="M47.81 42.12L54.58 42.12L54.58 35.57L66.96 35.57L66.96 29.88L54.58 29.88L54.58 23.18L47.81 23.18L47.81 29.88L37.58 29.88L37.58 35.57L47.81 35.57ZM18.07 42.26L24.77 42.26L24.77 35.64L34.20 35.64L34.20 29.95L24.77 29.95L24.77 23.18L18.07 23.18L18.07 29.95L5.33 29.95L5.33 35.64L18.07 35.64ZM17.78 62.50L17.78 51.05L32.18 51.05L32.18 58.90C32.18 60.12 32.11 61.27 31.97 62.50ZM54.36 51.05L54.36 62.50L38.88 62.50C38.95 61.27 39.02 60.19 39.02 58.97L39.02 51.05ZM68.26 68.69L68.26 62.50L61.13 62.50L61.13 45.22L39.02 45.22L39.02 38.66L32.18 38.66L32.18 45.22L11.38 45.22L11.38 62.50L3.74 62.50L3.74 68.69L30.31 68.69C27.29 74.74 20.09 80.14 2.74 83.74C4.25 85.10 6.05 87.84 6.77 89.21C26.86 84.53 34.78 77.18 37.58 68.69ZM37.08 74.52C46.51 78.48 59.04 84.89 65.16 89.21L68.54 83.74C62.28 79.42 49.54 73.44 40.25 69.77Z"/></svg>
