<svg xmlns="http://www.w3.org/2000/svg" xmlns:xlink="http://www.w3.org/1999/xlink" width="72.00000000000001" height="106.56000000000002"><path fill="red" stroke="red" d="M44.86 38.59L51.41 38.59L51.41 33.70L67.46 33.70L67.46 27.79L51.41 27.79L51.41 23.11L44.86 23.11L44.86 27.79L37.22 27.79L37.22 33.70L44.86 33.70ZM20.23 38.59L26.78 38.59L26.78 33.70L34.63 33.70L34.63 27.79L26.78 27.79L26.78 23.11L20.23 23.11L20.23 27.79L4.39 27.79L4.39 33.70L20.23 33.70ZM15.34 47.59L15.34 51.84L5.69 51.84L5.69 57.53L15.34 57.53L15.34 62.14L21.60 62.14L21.60 57.53L29.30 57.53L29.30 51.84L21.60 51.84L21.60 47.59ZM68.33 69.55L68.33 63.72L39.02 63.72L39.02 46.01L66.46 46.01L66.46 40.39L5.69 40.39L5.69 46.01L32.47 46.01L32.47 63.72L3.89 63.72L3.89 69.55L32.47 69.55L32.47 74.52L7.70 74.52L7.70 80.14L32.47 80.14L32.47 89.21L39.02 89.21L39.02 80.14L64.01 80.14L64.01 74.52L39.02 74.52L39.02 69.55ZM56.66 62.14L56.66 57.24L66.02 57.24L66.02 51.55L56.66 51.55L56.66 47.59L50.47 47.59L50.47 51.55L42.41 51.55L42.41 57.24L50.47 57.24L50.47 62.14Z"/></svg>
