<svg xmlns="http://www.w3.org/2000/svg" xmlns:xlink="http://www.w3.org/1999/xlink" width="72.00000000000001" height="106.56000000000002"><path fill="red" stroke="red" d="M48.02 39.38L54.65 39.38L54.65 34.13L67.75 34.13L67.75 28.22L54.65 28.22L54.65 23.04L48.02 23.04L48.02 28.22L37.37 28.22L37.37 34.13L48.02 34.13ZM17.35 39.31L23.98 39.31L23.98 34.13L34.56 34.13L34.56 28.22L23.98 28.22L23.98 23.04L17.35 23.04L17.35 28.22L4.46 28.22L4.46 34.13L17.35 34.13ZM15.84 49.90C14.11 56.95 10.30 63.07 4.97 66.96C6.34 67.75 8.93 69.62 10.01 70.63C12.96 68.18 15.55 65.02 17.78 61.27C19.87 63.58 22.03 65.95 23.11 67.75L28.01 64.44C26.35 62.14 23.04 58.75 20.23 56.16C20.95 54.50 21.53 52.78 22.03 50.90ZM39.17 48.74L67.18 48.74L67.18 42.84L39.17 42.84L39.17 36.94L32.54 36.94L32.54 42.84L4.97 42.84L4.97 48.74L32.54 48.74L32.54 58.90C26.64 69.41 15.48 78.34 2.59 82.22C4.10 83.66 6.12 86.26 7.13 88.06C17.06 84.31 25.99 77.76 32.54 69.26L32.54 89.21L39.17 89.21L39.17 69.55C45.72 77.90 54.72 84.24 65.09 87.62C66.02 85.75 67.97 83.16 69.48 81.79C56.38 78.34 45.14 70.06 39.17 59.90ZM51.19 49.90C49.90 55.94 47.16 61.49 43.06 65.09C44.64 65.74 47.59 67.03 48.96 67.97C50.62 66.17 52.27 64.01 53.57 61.42C56.74 64.37 60.05 67.61 61.92 69.84L66.74 65.88C64.37 63.22 59.76 59.11 56.02 56.02C56.52 54.36 57.02 52.63 57.38 50.83Z"/></svg>
