<svg xmlns="http://www.w3.org/2000/svg" xmlns:xlink="http://www.w3.org/1999/xlink" width="72.00000000000001" height="106.56000000000002"><path fill="red" stroke="red" d="M33.19 80.50L33.19 76.97L42.98 76.97L42.98 80.50ZM18.14 76.97L27.58 76.97L27.58 80.50L18.14 80.50ZM27.58 69.77L27.58 73.08L18.14 73.08L18.14 69.77ZM42.98 73.08L33.19 73.08L33.19 69.77L42.98 69.77ZM64.08 39.74L20.88 39.74C21.38 38.59 21.89 37.58 22.39 36.43L21.53 36.29L24.77 36.29L24.77 33.12L34.56 33.12L34.56 27.43L24.77 27.43L24.77 23.04L18.22 23.04L18.22 27.43L4.46 27.43L4.46 33.12L18.22 33.12L18.22 35.71L15.84 35.35C13.54 41.33 9.29 48.53 2.74 53.78C4.25 54.65 6.34 56.74 7.42 58.18C10.01 55.87 12.31 53.42 14.18 50.83L49.75 50.83L49.75 47.16L16.78 47.16C17.35 46.30 17.86 45.36 18.43 44.50L57.67 44.50C57.17 70.99 56.45 80.28 55.15 82.30C54.50 83.30 53.93 83.52 52.92 83.45C52.06 83.45 50.76 83.45 49.03 83.38L49.03 65.88L12.17 65.88L12.17 86.90L18.14 86.90L18.14 84.38L47.38 84.38C48.02 85.90 48.38 87.77 48.46 89.14C51.48 89.28 54.29 89.28 56.09 88.99C58.18 88.63 59.54 87.98 60.84 85.97C62.86 83.02 63.50 73.15 64.08 42.91ZM40.25 60.05L21.24 60.05L21.24 56.38L40.25 56.38ZM46.51 53.14L15.41 53.14L15.41 63.22L46.51 63.22ZM54.14 27.43L54.14 23.04L47.52 23.04L47.52 27.43L37.37 27.43L37.37 33.12L47.52 33.12L47.52 37.87L54.14 37.87L54.14 33.12L67.75 33.12L67.75 27.43Z"/></svg>
