<svg xmlns="http://www.w3.org/2000/svg" xmlns:xlink="http://www.w3.org/1999/xlink" width="72.00000000000001" height="106.56000000000002"><path fill="red" stroke="red" d="M44.50 36.22L51.12 36.22L51.12 33.19L67.61 33.19L67.61 27.79L51.12 27.79L51.12 23.11L44.50 23.11L44.50 27.79L37.37 27.79L37.37 33.19L44.50 33.19ZM20.66 36.22L27.22 36.22L27.22 33.19L35.06 33.19L35.06 27.79L27.22 27.79L27.22 23.11L20.66 23.11L20.66 27.79L4.68 27.79L4.68 33.19L20.66 33.19ZM7.70 75.96C7.13 79.92 6.12 84.17 4.39 87.12C5.69 87.34 8.14 87.84 9.22 88.20C10.80 85.32 11.95 80.78 12.67 76.54ZM15.26 76.54C16.06 79.92 16.85 84.31 16.92 87.19L21.89 86.40C21.67 83.52 20.88 79.20 19.94 75.82ZM23.18 75.60C24.62 78.62 26.35 82.58 26.93 85.18L31.68 84.10C30.89 81.50 29.16 77.54 27.58 74.59ZM41.11 77.69L50.26 77.69L50.26 81.79L41.11 81.79ZM40.82 50.90L52.92 50.90L48.10 52.27C48.82 53.71 49.61 55.51 50.18 57.10L41.62 57.10C42.55 55.37 43.42 53.57 44.14 51.84ZM23.33 64.44C23.90 65.52 24.48 66.67 24.98 67.90L15.70 68.83C20.52 65.30 25.20 61.20 29.09 57.17L24.41 54.50C23.40 55.73 22.25 57.02 20.95 58.25L13.61 58.68C15.77 56.66 17.86 54.43 19.51 52.20L16.49 50.90L38.38 50.90C36.14 56.16 32.62 61.56 28.87 65.30C28.44 64.44 27.94 63.72 27.50 62.93ZM14.47 41.54L25.06 41.54L25.06 46.73L14.47 46.73ZM30.46 41.54L41.47 41.54L41.47 46.73L30.46 46.73ZM46.87 41.54L58.10 41.54L58.10 46.73L46.87 46.73ZM50.26 65.45L41.11 65.45L41.11 61.70L50.26 61.70ZM50.26 73.58L41.11 73.58L41.11 69.55L50.26 69.55ZM68.18 81.79L56.02 81.79L56.02 77.69L64.87 77.69L64.87 73.58L56.02 73.58L56.02 69.55L64.87 69.55L64.87 65.45L56.02 65.45L56.02 61.70L66.67 61.70L66.67 57.10L56.23 57.10C55.58 55.22 54.50 52.78 53.50 50.90L64.30 50.90L64.30 37.30L8.50 37.30L8.50 50.90L13.54 50.90C11.52 54.22 8.57 57.24 7.56 58.10C6.55 59.11 5.62 59.69 4.46 59.83C5.18 60.91 6.19 63.07 6.48 64.01C7.56 63.65 9.22 63.29 16.34 62.64C13.61 65.09 11.16 67.03 10.01 67.82C7.92 69.26 6.41 70.20 4.75 70.42C5.47 71.57 6.41 73.66 6.70 74.52C8.28 73.94 10.66 73.51 26.50 71.86C26.78 72.79 27.00 73.66 27.14 74.45L31.68 72.65C31.25 70.92 30.31 68.54 29.30 66.24C30.60 67.10 32.40 68.40 33.26 69.12C33.84 68.40 34.56 67.68 35.21 66.82L35.21 89.35L41.11 89.35L41.11 86.54L68.18 86.54Z"/></svg>
