<svg xmlns="http://www.w3.org/2000/svg" xmlns:xlink="http://www.w3.org/1999/xlink" width="72.00000000000001" height="106.56000000000002"><path fill="red" stroke="red" d="M10.44 41.54L15.48 41.54L15.48 57.02L10.44 57.02ZM25.56 57.02L20.45 57.02L20.45 41.54L25.56 41.54ZM23.98 67.39C24.98 69.62 25.92 72.29 26.71 74.88L20.95 75.67L20.95 62.57L30.89 62.57L30.89 36.07L20.95 36.07L20.95 23.40L14.98 23.40L14.98 36.07L5.18 36.07L5.18 65.66L10.44 65.66L10.44 62.57L14.98 62.57L14.98 76.46C10.44 77.11 6.26 77.62 2.95 78.05L3.89 84.46C10.73 83.52 19.66 82.08 28.30 80.64C28.73 82.51 29.02 84.17 29.23 85.68L34.42 83.88C33.70 78.91 31.46 71.50 28.87 65.74ZM61.99 46.94L68.33 46.94L68.33 33.55L51.41 33.55L55.37 32.11C54.36 29.59 52.34 25.63 50.54 22.61L44.50 24.55C46.08 27.29 47.74 30.89 48.74 33.55L32.90 33.55L32.90 46.94L38.95 46.94L38.95 39.24L61.99 39.24ZM49.39 82.22C46.08 82.22 45.50 81.72 45.50 78.77L45.50 67.10C51.98 64.22 60.12 60.05 66.24 56.02L61.78 51.55C57.60 54.65 51.12 58.32 45.50 61.13L45.50 45.94L39.24 45.94L39.24 78.77C39.24 85.97 41.26 87.98 48.67 87.98L60.41 87.98C66.96 87.98 68.69 84.89 69.41 74.09C67.82 73.66 65.16 72.65 63.79 71.57C63.43 80.50 62.93 82.22 59.90 82.22Z"/></svg>
