<svg xmlns="http://www.w3.org/2000/svg" xmlns:xlink="http://www.w3.org/1999/xlink" width="72.00000000000001" height="106.56000000000002"><path fill="red" stroke="red" d="M56.88 65.45L56.88 79.70L40.46 79.70L40.46 65.45ZM34.27 89.35L40.46 89.35L40.46 85.68L56.88 85.68L56.88 89.21L63.36 89.21L63.36 59.54L34.27 59.54ZM39.96 46.37C43.42 42.70 46.44 38.38 48.82 33.77C51.41 38.38 54.50 42.77 57.96 46.37ZM24.62 56.38L19.73 56.38L19.73 41.62L24.62 41.62ZM10.37 41.62L14.98 41.62L14.98 56.38L10.37 56.38ZM46.15 23.18C43.27 32.11 37.51 40.68 29.81 46.44L29.81 36.14L20.30 36.14L20.30 23.40L14.47 23.40L14.47 36.14L5.26 36.14L5.26 65.23L10.37 65.23L10.37 61.78L14.40 61.78L14.40 76.18C9.94 76.82 5.83 77.40 2.59 77.76L3.60 84.17C10.22 83.09 18.72 81.65 27.07 80.21C27.43 81.72 27.72 83.16 27.94 84.38L33.19 82.66C32.40 77.90 30.24 70.78 28.37 65.16L23.26 66.67C24.05 69.05 24.91 71.78 25.63 74.45L20.23 75.31L20.23 61.78L29.81 61.78L29.81 49.54C30.89 50.62 31.97 51.84 32.62 52.70C34.42 51.48 36.00 50.18 37.58 48.67L37.58 52.20L59.90 52.20L59.90 48.31C61.42 49.75 62.93 50.90 64.51 51.98C65.52 50.33 67.75 47.81 69.19 46.58C62.35 42.62 55.66 34.99 51.77 27.22C52.06 26.50 52.34 25.70 52.63 24.91Z"/></svg>
