<svg xmlns="http://www.w3.org/2000/svg" xmlns:xlink="http://www.w3.org/1999/xlink" width="72.00000000000001" height="106.56000000000002"><path fill="red" stroke="red" d="M58.18 46.80L38.66 46.80L38.66 34.20L58.18 34.20ZM58.18 65.74L38.66 65.74L38.66 52.99L58.18 52.99ZM64.66 28.01L32.40 28.01L32.40 72.00L64.66 72.00ZM30.02 65.74C29.23 64.80 27.22 62.64 24.98 60.34C26.93 58.39 28.94 56.02 30.89 53.86L27.14 50.33C25.92 52.27 23.90 55.01 22.10 57.31C20.95 56.16 20.09 55.15 19.37 54.50C22.75 49.18 25.70 43.42 27.72 37.51L24.34 35.35L23.26 35.57L16.85 35.57L21.38 32.83C20.30 30.31 17.71 26.71 15.26 24.05L10.22 26.86C12.38 29.52 14.69 32.90 15.77 35.57L3.53 35.57L3.53 41.54L20.16 41.54C16.06 50.69 9.07 59.76 2.38 64.94C3.46 66.02 5.04 69.05 5.62 70.56C8.06 68.47 10.66 65.88 13.10 63.00L13.10 89.14L19.15 89.14L19.15 61.20C21.82 64.51 24.98 68.54 26.50 70.85ZM27.50 80.28L27.50 86.47L68.98 86.47L68.98 80.28Z"/></svg>
