<svg xmlns="http://www.w3.org/2000/svg" xmlns:xlink="http://www.w3.org/1999/xlink" width="72.00000000000001" height="106.56000000000002"><path fill="red" stroke="red" d="M47.59 52.27L67.75 52.27L67.75 47.16L47.59 47.16L47.59 42.55L64.58 42.55L64.58 37.87L47.59 37.87L47.59 33.70L66.31 33.70L66.31 28.87L47.59 28.87L47.59 23.18L41.04 23.18L41.04 57.82L47.59 57.82ZM59.98 65.95C57.02 68.18 52.34 70.99 48.31 73.15C45.94 70.99 43.92 68.40 42.34 65.66L68.18 65.66L68.18 60.55L39.82 60.55C38.95 58.54 37.58 55.87 36.29 53.93L30.02 55.73C30.82 57.17 31.75 58.90 32.47 60.55L12.53 60.55C28.30 55.80 31.25 48.46 31.25 39.02L31.25 23.11L25.06 23.11L25.06 28.87L6.41 28.87L6.41 33.55L25.06 33.55L25.06 37.87L8.14 37.87L8.14 42.34L24.84 42.34C24.70 43.56 24.41 44.71 23.98 45.94C16.34 46.51 9.07 47.02 3.89 47.30L4.39 52.27C9.07 51.84 14.76 51.34 20.66 50.69C18.22 53.06 14.40 55.08 8.57 56.81C9.58 57.89 10.94 59.33 11.66 60.55L3.89 60.55L3.89 65.66L26.57 65.66C19.94 69.55 10.80 72.65 2.30 74.23C3.67 75.46 5.40 77.83 6.19 79.27C10.30 78.34 14.54 77.11 18.58 75.53L18.58 80.78C18.58 83.38 16.85 84.24 15.70 84.67C16.49 85.82 17.35 88.42 17.64 89.78C19.22 88.85 21.82 88.27 40.75 83.66C40.75 82.37 40.90 79.92 41.18 78.26L24.84 81.79L24.84 72.72C29.02 70.70 32.83 68.26 35.86 65.74C41.54 77.40 51.41 85.03 65.45 88.56C66.31 86.90 67.97 84.46 69.41 83.23C62.86 81.86 57.17 79.63 52.56 76.46C56.52 74.59 61.20 72.07 64.87 69.48Z"/></svg>
