<svg xmlns="http://www.w3.org/2000/svg" xmlns:xlink="http://www.w3.org/1999/xlink" width="72.00000000000001" height="106.56000000000002"><path fill="red" stroke="red" d="M54.36 52.99L59.76 52.99L59.76 41.40C62.14 44.71 64.44 48.17 65.59 50.69L69.41 48.10C67.82 44.86 64.30 40.03 61.13 36.14L67.54 36.14L67.54 30.89L59.76 30.89L59.76 23.83L54.36 23.83L54.36 30.89L47.30 30.89L47.30 36.14L52.78 36.14C50.62 40.61 47.30 45.22 43.99 47.59C45.14 48.46 46.66 50.18 47.52 51.41C49.97 49.25 52.34 45.79 54.36 42.05ZM29.66 60.34L64.66 60.34L64.66 55.08L29.66 55.08ZM33.77 52.99L39.17 52.99L39.17 41.11C40.90 42.77 42.62 44.57 43.56 45.72L46.44 41.90C45.29 40.97 41.04 37.44 39.24 36.14L45.43 36.14L45.43 30.89L39.17 30.89L39.17 23.83L33.77 23.83L33.77 30.89L26.35 30.89L26.35 36.14L32.54 36.14C30.38 40.46 26.86 44.93 23.54 47.38C24.77 48.17 26.42 49.90 27.22 51.12C29.45 49.03 31.75 45.94 33.77 42.55ZM19.87 32.33C18.79 29.81 16.49 25.92 14.40 22.97L9.07 25.06C11.02 28.01 13.32 32.18 14.33 34.85ZM25.99 64.01C25.27 63.14 23.33 60.98 21.38 58.82C23.04 57.31 24.91 55.58 26.93 53.86L22.61 50.26C21.60 51.77 19.94 53.86 18.50 55.58C17.93 55.01 17.42 54.50 17.06 54.07C20.16 48.89 22.90 43.20 24.84 37.51L21.67 35.28L20.59 35.57L4.61 35.57L4.61 41.47L17.71 41.47C14.11 49.90 8.21 58.54 2.52 63.50C3.46 64.58 4.97 67.46 5.54 68.98C7.27 67.25 9.07 65.30 10.87 63.00L10.87 89.21L16.99 89.21L16.99 61.13C18.94 63.79 20.95 66.74 21.96 68.54ZM34.13 72.14C31.75 76.18 28.01 80.42 24.34 83.30C25.70 84.17 28.08 85.97 29.23 86.90C32.90 83.66 37.15 78.70 39.82 73.94ZM68.04 70.27L68.04 64.87L25.92 64.87L25.92 70.27L43.78 70.27L43.78 88.99L50.33 88.99L50.33 70.27ZM53.64 74.81C57.46 78.34 61.99 83.30 64.01 86.54L69.05 83.30C66.82 80.21 62.21 75.38 58.46 72.00Z"/></svg>
