<svg xmlns="http://www.w3.org/2000/svg" xmlns:xlink="http://www.w3.org/1999/xlink" width="72.00000000000001" height="106.56000000000002"><path fill="red" stroke="red" d="M31.03 35.14L16.20 35.14L21.46 32.18C20.38 29.59 18.07 25.78 16.13 22.75L10.87 25.42C12.82 28.37 14.98 32.47 16.06 35.14L3.02 35.14L3.02 40.46L31.03 40.46ZM6.05 59.40L27.94 59.40L27.94 54.22L6.05 54.22ZM6.05 44.71L6.05 49.97L27.79 49.97L27.79 44.71ZM22.18 69.34L22.18 79.63L11.81 79.63L11.81 69.34ZM28.01 63.94L6.05 63.94L6.05 88.27L11.81 88.27L11.81 85.03L28.01 85.03ZM68.26 39.96L68.26 34.06L43.99 34.06C45.29 31.03 46.37 27.79 47.30 24.62L40.82 23.11C38.52 32.11 34.34 40.97 29.45 46.73C30.96 47.59 33.70 49.61 34.92 50.62C37.22 47.66 39.38 44.06 41.47 39.96ZM45.00 81.86C42.41 81.86 40.75 81.22 40.75 79.56C40.75 77.11 42.34 73.66 63.72 52.13C64.01 51.77 64.37 51.26 64.51 50.76L60.05 48.82L58.46 48.96L36.94 48.96L36.94 54.72L51.84 54.72C34.70 73.08 33.84 76.97 33.84 80.50C33.84 85.39 37.22 88.42 45.07 88.42L59.33 88.42C65.66 88.42 68.18 86.26 68.90 74.23C67.03 73.80 64.73 73.01 63.00 72.00C62.71 80.64 61.99 81.86 59.54 81.86Z"/></svg>
