<svg xmlns="http://www.w3.org/2000/svg" xmlns:xlink="http://www.w3.org/1999/xlink" width="72.00000000000001" height="106.56000000000002"><path fill="red" stroke="red" d="M27.65 34.99L16.70 34.99L19.87 33.55C19.30 30.82 17.28 26.64 15.12 23.62L10.51 25.49C12.31 28.37 14.04 32.18 14.69 34.99L2.95 34.99L2.95 40.32L27.65 40.32ZM25.49 44.78L6.05 44.78L6.05 50.04L25.49 50.04ZM6.05 59.62L25.49 59.62L25.49 54.36L6.05 54.36ZM20.02 69.48L20.02 79.92L11.38 79.92L11.38 69.48ZM25.56 64.15L5.90 64.15L5.90 88.34L11.38 88.34L11.38 85.18L25.56 85.18ZM50.69 81.14L50.69 71.71C51.62 72.43 52.42 73.30 52.92 73.87C55.51 70.06 57.53 65.30 59.11 59.98C61.34 64.73 63.43 69.77 64.58 73.37L69.05 69.19C67.54 64.51 64.30 57.46 61.13 51.55C61.85 47.74 62.42 43.70 62.86 39.53L57.10 38.74C56.16 49.32 54.36 59.04 50.69 66.17L50.69 33.19L68.18 33.19L68.18 27.29L28.94 27.29L28.94 33.19L44.35 33.19L44.35 63.29C42.70 59.83 40.32 55.51 38.16 51.84C38.81 47.95 39.46 43.85 39.89 39.67L34.20 38.88C33.12 51.34 30.82 62.86 25.70 70.06C27.00 70.99 29.23 73.01 30.17 74.02C32.76 70.06 34.85 65.09 36.36 59.47C38.38 63.07 40.18 66.82 41.26 69.55L44.35 66.74L44.35 81.14L27.07 81.14L27.07 87.19L69.34 87.19L69.34 81.14Z"/></svg>
