<svg xmlns="http://www.w3.org/2000/svg" xmlns:xlink="http://www.w3.org/1999/xlink" width="72.00000000000001" height="106.56000000000002"><path fill="red" stroke="red" d="M20.88 32.76C20.16 30.24 18.50 26.28 17.06 23.33L11.45 24.98C12.74 28.08 14.33 32.18 14.90 34.78ZM28.22 34.99L3.38 34.99L3.38 40.32L28.22 40.32ZM26.21 44.35L5.11 44.35L5.11 49.54L26.21 49.54ZM20.38 69.34L20.38 79.78L11.02 79.78L11.02 69.34ZM26.14 64.01L5.33 64.01L5.33 88.20L11.02 88.20L11.02 85.18L26.14 85.18ZM5.18 59.26L26.28 59.26L26.28 54.07L5.18 54.07ZM38.52 73.37C38.66 71.86 38.74 70.27 38.74 68.90L58.97 68.90L58.97 73.37ZM58.97 59.90L58.97 64.30L38.74 64.30L38.74 59.90ZM65.23 54.79L32.69 54.79L32.69 67.75C32.69 73.37 32.26 80.42 28.01 85.61C29.30 86.33 31.75 88.70 32.69 89.93C35.57 86.62 37.15 82.30 37.87 77.90L58.97 77.90L58.97 82.66C58.97 83.45 58.68 83.74 57.74 83.74C56.88 83.81 53.93 83.81 50.90 83.66C51.70 85.18 52.49 87.48 52.78 89.06C57.24 89.14 60.48 89.06 62.50 88.13C64.58 87.26 65.23 85.68 65.23 82.73ZM51.77 46.08L51.77 42.05L66.89 42.05L66.89 37.30L51.77 37.30L51.77 33.62L68.26 33.62L68.26 28.73L51.77 28.73L51.77 23.18L45.29 23.18L45.29 28.73L29.81 28.73L29.81 33.62L45.29 33.62L45.29 37.30L31.54 37.30L31.54 42.05L45.29 42.05L45.29 46.08L28.87 46.08L28.87 51.12L69.05 51.12L69.05 46.08Z"/></svg>
