<svg xmlns="http://www.w3.org/2000/svg" xmlns:xlink="http://www.w3.org/1999/xlink" width="72.00000000000001" height="106.56000000000002"><path fill="red" stroke="red" d="M54.58 39.96L60.41 39.96L60.41 34.78L68.90 34.78L68.90 29.23L60.41 29.23L60.41 23.18L54.58 23.18L54.58 29.23L49.39 29.23L49.39 34.78L54.58 34.78ZM37.15 40.03L42.98 40.03L42.98 34.70L47.52 34.70L47.52 29.23L42.98 29.23L42.98 23.18L37.15 23.18L37.15 29.23L28.01 29.23L28.01 34.70L37.15 34.70ZM20.30 69.34L20.30 79.63L10.51 79.63L10.51 69.34ZM25.42 63.94L5.40 63.94L5.40 88.27L10.51 88.27L10.51 85.03L25.42 85.03ZM5.62 59.40L24.98 59.40L24.98 54.22L5.62 54.22ZM24.98 44.71L5.62 44.71L5.62 49.97L24.98 49.97ZM19.73 32.62C18.79 30.02 16.85 26.21 15.12 23.26L9.86 25.42C11.52 28.37 13.46 32.47 14.33 35.14L3.10 35.14L3.10 40.46L26.50 40.46L26.50 35.14L14.47 35.14ZM33.26 68.18C33.26 73.58 32.62 80.21 26.71 85.39C28.15 86.18 30.38 88.06 31.39 89.35C38.09 83.30 38.88 75.17 38.88 68.40L38.88 62.93L33.26 62.93ZM41.98 54.94C39.53 54.94 39.02 54.29 39.02 52.42L39.02 48.17L67.82 48.17L67.82 42.84L52.85 42.84C52.27 41.04 51.48 39.10 50.83 37.51L45.22 38.95C45.65 40.18 46.08 41.47 46.51 42.84L28.94 42.84L28.94 48.17L33.05 48.17L33.05 52.34C33.05 57.74 34.70 59.98 41.47 59.98L57.53 59.98C60.48 59.98 63.86 59.83 65.30 59.47C65.09 58.03 64.87 56.16 64.73 54.43C63.07 54.86 59.33 54.94 57.02 54.94ZM44.21 87.48L49.82 87.48L49.82 63.14L44.21 63.14ZM62.35 83.38C61.42 83.38 61.27 82.66 61.27 80.64L61.27 62.86L55.30 62.86L55.30 80.57C55.30 85.97 56.38 88.34 61.49 88.34L65.66 88.34C66.89 88.34 68.33 88.27 69.26 87.91C69.05 86.47 68.83 84.53 68.76 83.02C67.90 83.23 66.46 83.38 65.52 83.38Z"/></svg>
