<svg xmlns="http://www.w3.org/2000/svg" xmlns:xlink="http://www.w3.org/1999/xlink" width="72.00000000000001" height="106.56000000000002"><path fill="red" stroke="red" d="M43.27 56.45C42.62 53.71 41.11 48.89 39.82 45.29L36.14 46.15C36.65 47.59 37.15 49.25 37.58 50.90L31.54 51.55C35.21 46.87 38.95 40.82 42.05 34.85L37.58 33.19C36.72 35.14 35.71 37.08 34.78 39.02L30.46 39.38C32.90 35.50 35.35 30.38 37.30 25.49L32.69 24.05C31.10 29.81 28.01 35.78 27.07 37.22C26.14 38.88 25.27 39.89 24.41 40.10C24.91 41.40 25.63 43.70 25.85 44.78C26.64 44.35 27.86 43.99 32.26 43.34C30.74 46.08 29.30 48.02 28.73 48.89C27.29 50.83 26.06 52.06 24.98 52.27C25.56 53.50 26.28 55.94 26.57 56.95C27.50 56.45 29.09 56.09 38.59 54.79C38.88 55.87 39.10 56.88 39.24 57.67ZM18.65 32.98C18.00 30.38 16.13 26.42 14.40 23.47L9.00 25.27C10.73 28.30 12.38 32.47 12.96 34.99ZM24.34 35.14L3.02 35.14L3.02 40.54L24.34 40.54ZM22.68 44.78L5.69 44.78L5.69 50.04L22.68 50.04ZM5.69 59.62L22.68 59.62L22.68 54.36L5.69 54.36ZM17.42 69.41L17.42 79.92L10.87 79.92L10.87 69.41ZM22.90 64.08L5.40 64.08L5.40 88.34L10.87 88.34L10.87 85.18L22.90 85.18ZM59.40 65.38C58.03 68.33 56.23 71.21 54.00 73.66C53.06 71.28 52.20 68.40 51.48 65.16L68.54 65.16L68.54 59.90L61.56 59.90L63.22 58.32C61.92 57.02 59.62 54.94 57.67 53.35C59.26 53.14 61.20 52.85 63.72 52.49C64.08 53.57 64.30 54.58 64.51 55.30L68.54 54.00C67.82 51.41 66.31 46.80 64.94 43.42L61.13 44.42C61.63 45.72 62.06 47.09 62.57 48.53L56.59 49.18C60.05 44.78 63.58 39.17 66.38 33.55L61.92 31.75C61.34 33.26 60.62 34.70 59.90 36.22L55.51 36.65C57.60 33.34 59.83 29.09 61.49 24.98L56.95 23.62C55.58 28.51 52.78 33.70 51.91 34.92C51.12 36.29 50.26 37.22 49.54 37.44C49.97 38.59 50.69 41.04 50.90 42.05C51.70 41.62 52.92 41.26 57.53 40.61C55.87 43.56 54.29 45.86 53.57 46.73C52.42 48.53 51.26 49.75 50.18 49.97C50.76 51.19 51.48 53.64 51.62 54.65C52.34 54.36 53.21 54.00 56.66 53.50L53.86 55.87C55.22 57.10 56.81 58.54 58.10 59.90L50.47 59.90C48.89 50.18 48.10 37.73 47.81 23.62L42.19 23.62C42.55 37.51 43.27 49.82 44.78 59.90L24.84 59.90L24.84 65.16L30.67 65.16C30.60 70.92 29.38 78.84 23.76 84.96C24.91 85.68 27.50 87.62 28.44 88.85C32.40 84.31 34.56 78.77 35.50 73.37C38.16 75.46 40.75 77.54 42.34 79.13L45.94 74.66C43.70 72.65 39.53 69.62 36.22 67.39C36.29 66.60 36.29 65.88 36.29 65.16L45.72 65.16C46.66 70.13 47.95 74.45 49.54 77.98C46.15 80.71 42.19 82.94 37.80 84.60C38.95 85.75 40.54 87.70 41.18 88.92C45.14 87.34 48.89 85.18 52.13 82.80C54.79 86.62 58.18 88.85 62.50 89.21C65.23 89.35 67.61 87.12 69.26 79.63C68.11 78.98 66.02 77.26 65.02 75.89C64.44 80.28 63.65 82.58 62.35 82.51C60.19 82.30 58.32 81.00 56.66 78.84C60.12 75.53 62.86 71.78 64.80 67.54Z"/></svg>
