<svg xmlns="http://www.w3.org/2000/svg" xmlns:xlink="http://www.w3.org/1999/xlink" width="72.00000000000001" height="106.56000000000002"><path fill="red" stroke="red" d="M63.79 24.91L57.82 24.91L57.82 46.80L50.40 46.80L50.40 43.63L56.09 43.63L56.09 40.25L50.40 40.25L50.40 37.44L55.30 37.44L55.30 34.06L50.40 34.06L50.40 31.25L55.73 31.25L55.73 27.86L50.40 27.86L50.40 24.19L46.22 24.19L46.22 27.86L40.90 27.86L40.90 31.25L46.22 31.25L46.22 34.06L41.33 34.06L41.33 37.44L46.22 37.44L46.22 40.25L40.61 40.25L40.61 43.63L46.22 43.63L46.22 46.80L38.81 46.80L38.81 23.04L32.98 23.04L32.98 46.80L25.49 46.80L25.49 43.63L31.18 43.63L31.18 40.25L25.49 40.25L25.49 37.44L30.46 37.44L30.46 34.06L25.49 34.06L25.49 31.25L30.82 31.25L30.82 27.86L25.49 27.86L25.49 24.19L21.31 24.19L21.31 27.86L16.13 27.86L16.13 31.25L21.31 31.25L21.31 34.06L16.56 34.06L16.56 37.44L21.31 37.44L21.31 40.25L15.84 40.25L15.84 43.63L21.31 43.63L21.31 46.80L14.04 46.80L14.04 24.91L8.28 24.91L8.28 51.48L63.79 51.48ZM66.82 54.50L5.47 54.50L5.47 59.26L66.82 59.26ZM46.80 75.82C45.79 78.05 44.28 80.64 43.13 82.44L43.85 82.66L28.15 82.66L29.30 82.30C28.73 80.50 27.58 77.98 26.21 75.82ZM19.51 66.38L53.14 66.38L53.14 71.64L19.51 71.64ZM49.54 82.66C50.83 80.78 52.20 78.48 53.57 76.18L52.34 75.82L59.76 75.82L59.76 62.21L13.25 62.21L13.25 75.82L20.81 75.82L19.51 76.18C20.74 78.05 21.96 80.57 22.75 82.66L4.39 82.66L4.39 87.70L67.61 87.70L67.61 82.66Z"/></svg>
