<svg xmlns="http://www.w3.org/2000/svg" xmlns:xlink="http://www.w3.org/1999/xlink" width="72.00000000000001" height="106.56000000000002"><path fill="red" stroke="red" d="M23.83 52.70C25.63 51.12 27.29 49.54 28.87 47.81L43.42 47.81C44.78 49.54 46.37 51.19 47.95 52.70ZM67.61 47.81L67.61 42.26L33.12 42.26C34.06 40.90 34.92 39.60 35.64 38.23L62.50 38.23L62.50 32.69L53.50 32.69C54.79 30.82 56.23 28.51 57.46 26.42L51.34 24.41C50.40 26.93 48.67 30.24 47.09 32.69L38.30 32.69C39.46 29.81 40.32 26.86 41.04 23.83L34.20 22.97C33.55 26.21 32.62 29.52 31.18 32.69L22.03 32.69L24.98 31.32C24.19 29.30 22.25 26.14 20.38 23.83L14.98 26.14C16.34 28.08 17.86 30.67 18.72 32.69L9.22 32.69L9.22 38.23L28.22 38.23C27.29 39.60 26.28 40.90 25.27 42.26L4.61 42.26L4.61 47.81L19.80 47.81C15.12 51.84 9.07 55.37 1.66 58.03C3.02 59.18 4.82 61.70 5.40 63.36C11.16 61.20 15.98 58.61 20.23 55.51L20.23 57.82L32.11 57.82C25.92 60.98 16.92 63.00 8.64 64.15C9.58 65.16 11.09 67.25 11.66 68.40C18.22 67.10 25.42 65.30 31.46 62.64C32.11 63.22 32.76 63.86 33.26 64.44C27.29 68.40 16.20 71.86 7.06 72.86C8.14 73.94 9.29 75.67 9.94 76.90C18.72 75.38 29.16 71.78 35.71 67.68C36.29 68.54 36.65 69.41 37.08 70.27C30.24 75.67 17.35 80.35 6.05 81.86C7.13 83.02 8.35 84.89 8.86 86.26C19.15 84.38 30.74 79.99 38.30 74.81C38.81 78.41 37.87 81.43 36.14 82.51C35.06 83.52 33.41 83.52 31.68 83.52C29.88 83.52 27.58 83.45 24.91 83.16C26.14 84.89 26.93 87.26 27.07 89.06C29.09 89.21 30.96 89.28 32.69 89.28C36.07 89.21 37.58 88.99 40.03 87.48C44.35 84.96 46.01 77.98 43.70 70.99C44.35 70.70 45.07 70.34 45.79 69.98C51.34 74.88 57.89 81.14 61.06 85.18L65.74 81.58C62.50 77.69 56.23 71.93 50.69 67.39C53.35 65.88 56.02 64.30 58.39 62.71L53.50 59.26C50.69 61.63 46.15 64.87 42.19 67.18C40.82 64.66 38.95 62.28 36.58 60.12C37.73 59.40 38.88 58.68 39.89 57.82L50.33 57.82L50.33 54.72C54.86 58.32 60.26 61.06 65.95 62.71C66.89 61.20 68.69 58.75 70.13 57.46C62.86 55.73 56.02 52.20 51.05 47.81Z"/></svg>
