<svg xmlns="http://www.w3.org/2000/svg" xmlns:xlink="http://www.w3.org/1999/xlink" width="72.00000000000001" height="106.56000000000002"><path fill="red" stroke="red" d="M12.60 33.77L59.33 33.77L59.33 40.97L65.66 40.97L65.66 28.30L39.60 28.30C38.59 26.35 37.30 24.05 36.07 22.32L29.88 24.55C30.53 25.70 31.18 27.00 31.82 28.30L6.55 28.30L6.55 40.97L12.60 40.97ZM20.66 71.35L52.27 71.35L52.27 75.24L20.66 75.24ZM20.66 56.45L52.27 56.45L52.27 60.12L20.66 60.12L20.66 56.45ZM52.27 67.68L20.66 67.68L20.66 63.86L52.27 63.86ZM59.04 79.13L59.04 52.49L40.03 52.49C46.94 50.54 53.21 48.10 57.89 44.93L52.27 41.90C48.89 44.06 44.14 45.94 38.81 47.38L38.81 41.83L55.22 41.83L55.22 37.01L16.85 37.01L16.85 41.83L32.90 41.83L32.90 48.82C27.43 50.04 21.60 50.83 15.70 51.55C19.73 49.46 23.90 46.66 26.64 43.63L21.02 41.98C18.29 44.64 13.32 46.94 8.71 48.60C9.58 49.39 11.02 50.76 12.02 51.91C8.78 52.27 5.54 52.49 2.45 52.70C3.60 54.00 5.26 56.74 5.83 58.25C8.57 57.96 11.38 57.67 14.18 57.31L14.18 79.13L24.34 79.13C19.30 81.36 10.94 83.59 3.96 84.67C5.26 85.90 7.13 87.98 8.14 89.28C15.98 87.98 25.78 85.18 31.61 82.01L27.29 79.13L44.21 79.13L40.75 82.08C48.74 84.38 56.88 87.26 61.49 89.35L67.46 85.39C62.71 83.59 55.37 81.14 48.24 79.13Z"/></svg>
