<svg xmlns="http://www.w3.org/2000/svg" xmlns:xlink="http://www.w3.org/1999/xlink" width="72.00000000000001" height="106.56000000000002"><path fill="red" stroke="red" d="M13.18 57.60C11.38 63.14 7.34 69.91 2.66 74.16C4.25 75.02 6.70 76.75 8.06 77.90C12.89 73.30 17.35 65.88 19.94 59.33ZM67.46 53.06L67.46 46.58L39.74 46.58L39.74 37.66L60.77 37.66L60.77 31.25L39.74 31.25L39.74 23.18L32.54 23.18L32.54 31.25L11.88 31.25L11.88 37.66L32.54 37.66L32.54 46.58L5.11 46.58L5.11 53.06L25.06 53.06L25.06 57.46C25.06 65.59 23.83 76.39 11.09 84.17C12.74 85.32 15.19 87.70 16.20 89.28C30.31 80.28 31.90 67.46 31.90 57.67L31.90 53.06L41.76 53.06L41.76 81.29C41.76 82.22 41.40 82.44 40.32 82.51C39.31 82.58 35.64 82.58 31.97 82.44C32.98 84.31 33.98 87.26 34.27 89.21C39.53 89.21 43.20 89.06 45.65 87.98C48.10 86.90 48.82 85.03 48.82 81.36L48.82 53.06ZM52.27 59.76C56.30 65.74 60.77 73.66 62.57 78.70L68.90 75.96C67.03 70.85 62.28 63.14 58.18 57.38Z"/></svg>
