<svg xmlns="http://www.w3.org/2000/svg" xmlns:xlink="http://www.w3.org/1999/xlink" width="72.00000000000001" height="106.56000000000002"><path fill="red" stroke="red" d="M10.87 55.94L16.92 55.94L16.92 61.42L10.87 61.42ZM10.87 45.86L16.92 45.86L16.92 51.34L10.87 51.34ZM28.30 51.34L21.96 51.34L21.96 45.86L28.30 45.86ZM28.30 61.42L21.96 61.42L21.96 55.94L28.30 55.94ZM35.42 77.26L35.42 71.28L22.61 71.28L22.61 66.31L33.77 66.31L33.77 41.04L22.68 41.04L22.68 36.22L34.70 36.22L34.70 30.38L22.68 30.38L22.68 23.11L16.34 23.11L16.34 30.38L4.03 30.38L4.03 36.22L16.34 36.22L16.34 41.04L5.69 41.04L5.69 66.31L16.34 66.31L16.34 71.28L2.95 71.28L2.95 77.26L16.34 77.26L16.34 89.14L22.61 89.14L22.61 77.26ZM62.28 82.15C61.85 82.15 61.42 81.94 61.20 81.72C60.98 81.43 60.84 81.00 60.84 80.50L60.84 38.45L48.31 38.45L48.31 23.26L42.19 23.26L42.19 38.45L35.42 38.45L35.42 44.35L42.19 44.35L42.19 46.87C42.19 60.34 41.18 74.52 29.66 85.39C31.25 86.33 33.70 88.27 34.78 89.57C47.16 77.69 48.31 61.78 48.31 46.87L48.31 44.35L54.72 44.35L54.72 80.42C54.72 84.67 55.01 85.90 56.02 87.05C57.17 88.20 58.82 88.63 60.41 88.63L63.79 88.63C65.16 88.63 66.53 88.27 67.54 87.62C68.54 86.83 69.19 85.61 69.55 83.74C69.91 82.01 70.13 77.40 70.27 73.58C68.69 73.01 66.74 72.00 65.59 70.92C65.66 74.88 65.52 78.26 65.38 79.70C65.30 80.64 65.02 81.36 64.80 81.72C64.51 82.08 64.01 82.15 63.58 82.15Z"/></svg>
