<svg xmlns="http://www.w3.org/2000/svg" xmlns:xlink="http://www.w3.org/1999/xlink" width="72.00000000000001" height="106.56000000000002"><path fill="red" stroke="red" d="M6.70 39.60C8.50 43.27 10.58 48.24 11.38 51.41L16.49 49.18C15.55 46.01 13.54 41.40 11.66 37.73L31.18 37.73L31.18 32.11L20.23 32.11L23.11 30.67C22.10 28.51 19.87 25.13 18.00 22.61L12.67 24.91C14.11 27.00 15.91 29.88 16.92 32.11L4.39 32.11L4.39 37.73L11.45 37.73ZM30.53 69.70L30.53 64.08L21.10 64.08L21.10 57.24L31.90 57.24L31.90 51.62L24.48 51.62C26.35 48.10 28.30 43.56 30.10 39.53L24.05 38.16C22.97 42.12 20.81 47.66 18.94 51.62L3.38 51.62L3.38 57.24L14.76 57.24L14.76 64.08L5.18 64.08L5.18 69.70L14.62 69.70C14.11 75.02 12.17 81.00 5.47 84.89C6.84 85.90 8.86 88.06 9.65 89.42C17.64 84.24 20.30 76.54 20.95 69.70ZM39.53 48.24L46.51 48.24L46.51 57.82L39.53 57.82ZM60.26 48.24L60.26 57.82L52.92 57.82L52.92 48.24ZM66.46 63.07L66.46 42.98L52.92 42.98L52.92 37.01L68.33 37.01L68.33 31.18L52.92 31.18L52.92 23.04L46.51 23.04L46.51 31.18L32.40 31.18L32.40 37.01L46.51 37.01L46.51 42.98L33.62 42.98L33.62 63.07L44.57 63.07C40.39 70.49 33.26 77.69 26.28 81.36C27.65 82.51 29.66 84.89 30.67 86.33C36.43 82.80 42.12 77.04 46.51 70.56L46.51 89.21L52.92 89.21L52.92 69.48C56.59 75.82 61.34 81.94 65.81 85.54C66.89 84.02 68.90 81.79 70.34 80.57C64.94 76.82 58.82 69.91 55.15 63.07Z"/></svg>
