<svg xmlns="http://www.w3.org/2000/svg" xmlns:xlink="http://www.w3.org/1999/xlink" width="72.00000000000001" height="106.56000000000002"><path fill="red" stroke="red" d="M31.46 57.89L31.46 53.14L40.90 53.14L40.90 57.89ZM31.46 43.92L40.90 43.92L40.90 48.60L31.46 48.60ZM57.10 43.92L57.10 48.60L47.38 48.60L47.38 43.92ZM57.10 57.89L47.38 57.89L47.38 53.14L57.10 53.14ZM40.90 80.28L47.38 80.28L47.38 72.58L67.90 72.58L67.90 67.10L47.38 67.10L47.38 62.71L63.50 62.71L63.50 39.10L47.38 39.10L47.38 34.49L66.96 34.49L66.96 29.02L47.38 29.02L47.38 23.18L40.90 23.18L40.90 29.02L22.18 29.02L22.18 34.49L40.90 34.49L40.90 39.10L25.27 39.10L25.27 62.71L40.90 62.71L40.90 67.10L22.18 67.10L22.18 72.58L40.90 72.58ZM16.99 34.99C16.13 31.90 14.40 27.14 13.03 23.40L7.20 25.13C8.35 28.94 10.08 33.98 10.94 37.15ZM18.65 55.87L17.64 56.16L13.61 56.16C15.41 51.19 17.42 45.29 19.01 40.18L3.46 40.18L3.46 46.22L10.73 46.22C8.93 51.84 6.77 57.67 5.04 61.92L14.26 61.92C13.10 66.82 11.45 72.00 9.50 75.89C7.27 77.33 4.75 80.14 2.30 83.38L6.77 89.57C8.78 85.18 11.23 80.50 12.89 80.50C14.40 80.50 16.99 83.02 19.94 84.67C25.13 87.70 31.32 88.49 40.75 88.49C49.18 88.49 62.35 88.06 67.97 87.70C68.11 85.90 69.12 82.58 69.91 80.78C61.92 81.79 49.82 82.44 41.04 82.44C32.62 82.44 26.06 82.01 21.02 78.98C18.72 77.54 17.14 76.32 15.84 75.60C18.36 70.20 20.30 63.43 21.67 57.02Z"/></svg>
