<svg xmlns="http://www.w3.org/2000/svg" xmlns:xlink="http://www.w3.org/1999/xlink" width="72.00000000000001" height="106.56000000000002"><path fill="red" stroke="red" d="M53.78 60.62L53.78 71.50C53.78 75.02 54.14 76.10 55.22 77.04C56.16 77.98 57.82 78.26 59.18 78.26L62.78 78.26C63.72 78.26 65.16 78.12 65.95 77.83C66.89 77.47 67.61 76.90 68.04 76.03C68.54 75.17 68.76 73.01 68.90 71.06C67.46 70.63 65.59 69.70 64.58 68.76C64.51 70.63 64.44 72.07 64.30 72.72C64.08 73.30 63.86 73.66 63.50 73.80C63.29 73.87 62.78 73.94 62.21 73.94L60.34 73.94C59.90 73.94 59.54 73.87 59.26 73.66C59.04 73.44 58.97 72.86 58.97 71.93L58.97 60.62ZM29.74 32.33C35.14 31.97 40.61 31.54 45.94 30.82L45.94 40.03L33.91 40.03L33.91 51.05C33.91 58.39 33.12 68.26 26.78 75.53C27.94 76.25 30.02 78.41 30.82 79.56C37.87 71.57 39.24 59.54 39.24 51.12L39.24 44.06L46.22 44.06L46.22 48.02L40.39 48.46L40.75 52.20L46.22 51.77L46.22 51.84C46.22 56.66 47.38 58.46 52.42 58.46L60.41 58.46C62.21 58.46 64.08 58.46 65.09 58.10C64.87 56.95 64.73 55.08 64.66 53.78C63.50 54.14 61.49 54.14 60.34 54.14L52.70 54.14C51.41 54.14 51.19 53.64 51.19 51.91L51.19 51.34L60.62 50.54L60.34 47.02L51.19 47.66L51.19 44.06L61.92 44.06C61.63 45.36 61.27 46.44 60.98 47.45L65.66 49.03C66.53 46.87 67.46 43.70 68.18 40.90L64.37 39.74L63.43 40.03L51.55 40.03L51.55 37.22L64.66 37.22L64.66 33.34L51.55 33.34L51.55 30.02C56.66 29.30 61.49 28.37 65.59 27.36L60.41 23.04C52.13 25.27 37.22 27.00 24.41 27.94L24.34 27.94L24.34 43.85C24.34 52.49 23.69 64.22 18.22 72.65C19.22 73.37 21.38 75.89 22.10 77.11C28.51 67.68 29.74 53.42 29.74 43.92ZM43.56 60.62C43.49 69.84 42.77 73.44 36.29 75.60C37.30 76.46 38.59 78.41 39.10 79.70C47.45 76.90 48.74 71.71 48.82 60.62ZM15.77 35.28C14.98 32.11 13.39 27.36 12.17 23.62L6.98 25.06C8.06 28.87 9.58 33.98 10.37 37.15ZM16.92 55.94L15.91 56.16L12.53 56.16C14.11 51.12 15.84 45.22 17.28 40.10L3.53 40.10L3.53 46.15L10.01 46.15C8.50 51.84 6.62 57.67 5.04 61.92L13.03 61.92C12.10 66.82 10.73 71.93 9.00 75.89C6.91 77.18 4.46 80.06 2.02 83.66L6.41 89.64C7.92 85.46 9.94 80.71 11.30 80.71C12.82 80.71 15.48 83.16 18.50 84.82C23.83 87.98 30.17 88.70 39.67 88.70C48.24 88.70 61.85 88.20 67.39 87.84C67.46 86.11 68.54 82.94 69.26 81.22C61.20 82.22 49.03 82.87 39.89 82.87C31.39 82.87 24.62 82.44 19.58 79.42C17.28 77.98 15.70 76.75 14.40 76.03C16.56 70.56 18.43 63.36 19.58 56.95Z"/></svg>
