<svg xmlns="http://www.w3.org/2000/svg" xmlns:xlink="http://www.w3.org/1999/xlink" width="72.00000000000001" height="106.56000000000002"><path fill="red" stroke="red" d="M60.41 30.10L60.41 34.20L51.70 34.20L51.70 30.10ZM62.14 47.52C64.08 47.52 66.10 47.45 67.10 47.09C66.89 45.86 66.74 43.85 66.60 42.41C65.52 42.70 63.29 42.84 61.92 42.84L53.57 42.84C51.91 42.84 51.70 42.12 51.70 40.18L51.70 38.59L66.17 38.59L66.17 25.78L46.30 25.78L46.30 40.10C46.30 45.43 47.66 47.52 53.21 47.52ZM37.66 30.02L37.66 34.13L29.02 34.13L29.02 30.02ZM29.02 43.06L29.02 38.52L43.27 38.52L43.27 25.70L23.69 25.70L23.69 40.03C23.69 42.70 22.61 43.85 21.67 44.35C22.46 45.50 23.54 48.02 23.90 49.39C25.13 48.74 27.36 48.24 41.47 45.86C41.69 44.71 42.12 42.55 42.62 41.04ZM39.53 58.25L49.54 58.25L49.54 63.94L39.53 63.94ZM36.50 69.05L51.41 69.05L47.66 71.71C52.42 74.16 57.53 77.47 60.48 79.92L66.31 77.04C63.14 74.59 57.67 71.42 52.63 69.05L68.11 69.05L68.11 63.94L55.73 63.94L55.73 58.25L65.16 58.25L65.16 53.21L55.73 53.21L55.73 48.67L49.54 48.67L49.54 53.21L39.53 53.21L39.53 48.67L33.41 48.67L33.41 53.21L24.19 53.21L24.19 58.25L33.41 58.25L33.41 63.94L21.46 63.94L21.46 69.05L35.93 69.05C32.69 71.71 27.58 74.30 22.61 76.10C24.12 77.04 26.42 78.98 27.58 80.21C32.40 77.90 38.23 74.45 41.98 70.92ZM18.00 35.35C16.99 32.26 14.98 27.29 13.54 23.47L7.49 25.13C8.86 28.94 10.80 34.13 11.81 37.37ZM17.21 55.94L16.20 56.16L13.68 56.16C15.48 51.19 17.50 45.29 19.08 40.18L3.53 40.18L3.53 46.22L10.73 46.22C8.93 51.84 6.84 57.67 5.04 61.92L14.11 61.92C12.82 67.39 10.58 73.08 7.78 77.04L7.85 77.11C6.05 78.70 4.18 80.86 2.23 83.38L6.84 89.57C8.71 85.18 11.23 80.50 12.82 80.50C14.40 80.50 16.99 83.02 19.94 84.67C25.13 87.70 31.25 88.49 40.75 88.49C49.18 88.49 62.42 88.06 67.97 87.70C68.04 85.90 69.12 82.58 69.91 80.78C61.99 81.79 49.82 82.44 41.04 82.44C32.62 82.44 25.99 82.01 21.10 78.98C18.43 77.40 16.92 76.18 15.48 75.38C18.07 70.13 19.94 63.79 21.10 57.60Z"/></svg>
