<svg xmlns="http://www.w3.org/2000/svg" xmlns:xlink="http://www.w3.org/1999/xlink" width="72.00000000000001" height="106.56000000000002"><path fill="red" stroke="red" d="M17.35 28.30C18.00 27.07 18.58 25.78 19.08 24.48L13.46 22.97C11.23 28.66 7.20 34.06 2.45 37.51C3.74 38.45 5.90 40.39 6.84 41.40C7.49 40.82 8.21 40.25 8.86 39.67L8.86 47.23L16.27 47.23C14.54 49.68 10.87 51.91 3.53 53.42C4.46 54.36 5.83 56.16 6.34 57.17C9.00 56.52 11.30 55.80 13.18 55.01C10.73 60.41 6.77 65.38 2.23 68.69C3.53 69.55 5.90 71.50 6.91 72.50C7.49 72.07 7.99 71.57 8.57 71.06L8.57 79.49L16.13 79.49C14.40 82.01 10.73 84.10 3.02 85.54C3.96 86.47 5.33 88.20 5.83 89.28C15.98 87.12 19.94 83.66 21.38 79.49L31.46 79.49L31.46 67.39L27.07 67.39L27.07 75.53L22.10 75.53C22.18 75.02 22.18 74.52 22.18 74.02L22.18 65.81L17.57 65.81L17.57 73.94C17.57 74.45 17.57 75.02 17.50 75.53L12.89 75.53L12.89 67.39L12.02 67.39C12.82 66.38 13.68 65.38 14.40 64.30L36.00 64.30C35.35 76.90 34.56 81.79 33.48 83.16C32.90 83.81 32.26 83.95 31.18 83.88C30.10 83.88 27.36 83.88 24.41 83.59C25.27 85.03 25.92 87.34 25.99 88.85C29.09 89.06 32.11 89.06 33.84 88.85C35.78 88.63 37.15 88.20 38.38 86.69C40.32 84.53 41.11 78.19 41.83 61.56C41.90 60.77 41.98 59.11 41.98 59.11L17.71 59.11C18.43 57.74 19.15 56.30 19.73 54.86L15.62 53.78C18.94 51.84 20.66 49.61 21.60 47.23L31.46 47.23L31.46 36.65L27.14 36.65L27.14 43.34L22.39 43.34C22.46 42.77 22.46 42.12 22.46 41.54L22.46 34.63L17.86 34.63L17.86 41.40C17.86 42.05 17.86 42.70 17.71 43.34L13.10 43.34L13.10 36.65L11.74 36.65C12.53 35.64 13.32 34.63 14.11 33.55L36.29 33.55C35.50 44.64 34.56 49.10 33.55 50.33C32.90 50.98 32.40 51.12 31.39 51.12C30.38 51.12 28.08 51.12 25.56 50.83C26.35 52.20 26.93 54.36 27.00 55.94C29.81 56.09 32.54 56.09 34.13 55.87C35.86 55.66 37.22 55.22 38.30 53.78C40.25 51.70 41.26 45.94 42.12 30.74C42.26 29.95 42.34 28.30 42.34 28.30ZM64.51 26.93L63.50 27.22L44.93 27.22L44.93 89.14L51.19 89.14L51.19 33.34L61.06 33.34C59.26 38.88 56.81 46.37 54.58 51.98C60.26 58.03 61.85 63.36 61.85 67.54C61.85 70.06 61.42 72.00 60.19 72.86C59.40 73.37 58.54 73.58 57.53 73.58C56.30 73.66 54.72 73.66 52.85 73.51C53.93 75.24 54.43 77.90 54.50 79.70C56.45 79.85 58.61 79.78 60.19 79.56C61.92 79.34 63.43 78.84 64.66 77.98C67.03 76.32 68.04 72.94 68.04 68.26C68.04 63.43 66.67 57.82 60.77 51.26C63.58 44.86 66.67 36.50 69.12 29.81Z"/></svg>
