<svg xmlns="http://www.w3.org/2000/svg" xmlns:xlink="http://www.w3.org/1999/xlink" width="72.00000000000001" height="106.56000000000002"><path fill="red" stroke="red" d="M68.26 77.47C67.68 74.88 66.10 70.42 64.73 66.96L61.70 67.82C62.42 69.48 63.07 71.35 63.65 73.30L59.40 73.87C60.70 70.78 62.06 66.82 62.78 63.00L58.82 61.78C58.46 66.24 56.81 71.14 56.38 72.36C55.87 73.66 55.37 74.38 54.65 74.52C55.15 75.53 55.73 77.47 55.94 78.34C56.74 77.83 58.18 77.40 64.58 76.25C64.80 77.11 65.02 77.90 65.16 78.62ZM11.45 67.39L11.45 72.29L24.70 72.29L24.70 67.39ZM39.74 47.66L47.09 47.66L47.09 54.58L39.74 54.58ZM39.74 35.71L47.09 35.71L47.09 42.55L39.74 42.55ZM59.98 42.55L52.63 42.55L52.63 35.71L59.98 35.71ZM59.98 54.58L52.63 54.58L52.63 47.66L59.98 47.66ZM9.86 78.70L9.86 62.78C10.66 63.36 11.52 64.22 12.02 64.80C15.84 60.98 16.70 55.44 16.70 51.19L16.70 45.00L19.66 45.00L19.66 56.09C19.66 59.98 20.59 60.84 23.69 60.84L26.35 60.84L26.35 78.70ZM13.03 45.00L13.03 51.12C13.03 54.50 12.60 58.32 9.86 61.56L9.86 45.00ZM16.63 31.54L19.66 31.54L19.66 39.46L16.63 39.46ZM26.35 57.02L25.92 57.02L24.12 57.02C23.40 57.02 23.26 56.95 23.26 55.94L23.26 45.00L26.35 45.00ZM57.17 83.38C56.38 83.38 55.73 83.23 55.30 83.02C54.79 82.73 54.65 82.08 54.65 80.93L54.65 59.98L66.31 59.98L66.31 30.31L46.58 30.31C47.52 28.37 48.38 26.06 49.32 23.90L42.12 22.97C41.76 25.13 40.97 27.94 40.18 30.31L33.70 30.31L33.70 59.98L40.54 59.98C40.10 72.00 38.81 79.92 31.32 84.53L31.32 39.46L24.26 39.46L24.26 31.54L31.46 31.54L31.46 26.21L3.67 26.21L3.67 31.54L12.10 31.54L12.10 39.46L5.11 39.46L5.11 89.06L9.86 89.06L9.86 84.02L26.35 84.02L26.35 87.98L31.32 87.98L31.32 85.10C32.47 86.26 33.91 88.06 34.49 89.28C43.78 83.74 45.50 74.09 46.01 59.98L49.18 59.98L49.18 80.50C49.18 84.74 49.75 85.90 50.98 86.90C52.20 87.77 54.22 88.20 56.02 88.20L61.34 88.20C62.64 88.20 64.66 87.98 65.66 87.70C66.89 87.26 67.82 86.69 68.40 85.75C68.90 84.82 69.19 82.66 69.41 80.64C67.82 80.14 65.88 79.20 64.80 78.19C64.66 80.14 64.58 81.58 64.30 82.22C64.08 82.80 63.58 83.09 63.14 83.23C62.64 83.30 61.78 83.38 60.84 83.38Z"/></svg>
