<svg xmlns="http://www.w3.org/2000/svg" xmlns:xlink="http://www.w3.org/1999/xlink" width="72.00000000000001" height="106.56000000000002"><path fill="red" stroke="red" d="M58.25 29.09C56.16 30.82 53.57 32.40 50.54 33.62C49.10 32.26 47.30 30.60 45.43 29.09ZM27.50 41.83L27.50 45.94L34.56 45.94L31.82 48.31C34.70 50.11 38.23 52.78 39.89 54.72L43.92 51.12C42.48 49.61 39.74 47.45 37.22 45.94L53.35 45.94L53.35 50.76C53.35 51.55 53.06 51.70 52.13 51.77C51.34 51.84 48.10 51.84 44.93 51.70C45.65 53.06 46.51 54.86 46.87 56.30C51.48 56.30 54.65 56.30 56.74 55.58C58.90 54.86 59.47 53.71 59.47 50.90L59.47 45.94L68.11 45.94L68.11 41.83L59.47 41.83L59.47 37.87L53.35 37.87L53.35 41.83L33.05 41.83C46.80 40.10 59.76 36.36 65.81 27.50L62.57 25.63L61.56 25.92L48.60 25.92C49.54 25.34 50.40 24.70 51.26 24.12L46.15 22.97C42.34 25.42 35.64 27.43 27.07 28.66C27.94 29.52 29.30 31.25 29.88 32.40C33.84 31.54 37.37 30.67 40.46 29.59C42.55 31.25 44.78 33.34 46.58 34.99C40.97 36.72 34.56 37.66 28.22 38.16C29.09 39.17 30.02 40.61 30.53 41.83ZM41.98 32.33C37.15 32.69 32.90 33.05 29.38 33.26L29.95 36.86C33.70 36.29 37.51 35.78 41.98 35.06ZM13.46 44.64L19.44 44.64L19.44 56.30L25.42 56.30L25.42 23.18L19.44 23.18L19.44 32.33L12.24 32.33L12.24 24.05L6.84 24.05L6.84 36.72L19.44 36.72L19.44 40.10L3.82 40.10L3.82 44.64L8.14 44.64L8.14 44.86C8.14 46.87 7.49 51.12 3.67 53.86C4.97 54.43 7.20 55.66 8.28 56.52C12.53 53.28 13.46 47.74 13.46 45.07ZM21.89 81.43L51.05 81.43L51.05 77.83L21.89 77.83ZM38.95 65.38L31.61 65.38L31.61 62.50L38.95 62.50ZM57.10 69.12L57.10 71.71C56.95 72.07 56.52 72.07 55.22 72.07L46.87 72.07C44.64 72.07 44.21 71.86 44.21 70.34L44.21 69.12ZM14.47 83.81L14.47 69.12L25.92 69.12C25.06 71.06 22.39 72.86 15.41 73.80C16.34 74.66 17.78 76.46 18.43 77.54C27.65 75.82 30.67 72.72 31.39 69.12L38.95 69.12L38.95 70.27C38.95 74.52 40.39 75.46 46.22 75.46L55.94 75.46C56.38 75.46 56.74 75.46 57.10 75.46L57.10 83.81ZM68.47 62.50L68.47 58.03L3.60 58.03L3.60 62.50L26.35 62.50L26.35 65.38L8.21 65.38L8.21 89.14L14.47 89.14L14.47 87.48L57.10 87.48L57.10 89.06L63.65 89.06L63.65 65.38L44.21 65.38L44.21 62.50Z"/></svg>
