<svg xmlns="http://www.w3.org/2000/svg" xmlns:xlink="http://www.w3.org/1999/xlink" width="72.00000000000001" height="106.56000000000002"><path fill="red" stroke="red" d="M30.96 36.79C28.51 34.20 24.34 30.82 20.02 28.01C20.66 26.93 21.24 25.92 21.74 24.84L16.27 22.90C13.10 29.52 7.63 36.00 2.16 40.03C3.17 41.62 4.68 44.93 5.11 46.22C6.12 45.36 7.27 44.42 8.35 43.34L8.35 46.80L14.33 46.80L14.33 53.64L4.39 53.64L4.39 59.33L14.33 59.33L14.33 78.91C10.22 79.70 6.48 80.42 3.53 80.93L4.97 86.90C11.88 85.46 20.95 83.38 29.59 81.43L29.16 76.10L20.16 77.83L20.16 59.33L28.37 59.33L28.37 53.64L20.16 53.64L20.16 46.80L26.35 46.80L26.35 41.18L10.44 41.18C12.82 38.66 15.12 35.78 17.14 32.69C21.02 35.64 25.13 39.10 27.58 41.83ZM25.06 75.74C26.21 72.50 27.65 67.46 29.02 63.22L24.05 61.85C23.47 65.59 22.10 71.06 21.10 74.52ZM5.40 63.72C6.55 67.82 7.70 73.15 7.92 76.68L12.60 75.38C12.24 71.93 11.09 66.74 9.79 62.64ZM61.13 44.71L61.13 67.03C56.81 61.99 54.29 54.22 52.92 44.71ZM37.44 44.71L46.01 44.71C44.64 54.72 41.98 63.14 37.44 67.82ZM67.18 38.59L52.13 38.59C51.70 34.34 51.48 29.74 51.34 25.06L37.94 25.06L37.94 30.96L46.15 30.96C46.22 33.55 46.44 36.14 46.66 38.59L31.46 38.59L31.46 89.21L37.44 89.21L37.44 70.85C38.38 71.93 39.31 73.30 39.82 74.30C44.21 70.27 47.30 63.58 49.25 55.58C51.12 63.00 53.86 69.19 57.89 73.66C58.68 72.43 59.90 70.78 61.13 69.48L61.13 81.86C61.13 82.87 60.84 83.16 59.83 83.16C58.82 83.23 55.51 83.23 52.20 83.09C52.99 84.67 53.86 87.48 54.07 89.14C59.04 89.14 62.28 89.06 64.44 87.98C66.60 87.05 67.18 85.18 67.18 81.94Z"/></svg>
