<svg xmlns="http://www.w3.org/2000/svg" xmlns:xlink="http://www.w3.org/1999/xlink" width="72.00000000000001" height="106.56000000000002"><path fill="red" stroke="red" d="M21.60 77.76L21.60 59.33L31.25 59.33L31.25 53.64L21.60 53.64L21.60 46.80L28.80 46.80L28.80 41.18L11.23 41.18C13.90 38.59 16.34 35.64 18.50 32.47C23.26 35.50 28.08 39.17 31.10 42.05L34.13 36.58C31.25 33.91 26.50 30.60 21.67 27.79C22.25 26.86 22.75 25.85 23.26 24.98L18.00 22.68C14.47 29.45 8.21 35.86 2.38 39.96C3.24 41.54 4.68 45.22 5.11 46.58C6.48 45.58 7.78 44.42 9.14 43.20L9.14 46.80L15.77 46.80L15.77 53.64L5.04 53.64L5.04 59.33L15.77 59.33L15.77 78.77C11.09 79.63 6.91 80.35 3.60 80.93L5.11 86.90C12.67 85.39 22.90 83.23 32.54 81.14L32.11 75.82ZM5.76 63.72C6.98 67.90 8.14 73.15 8.42 76.68L13.25 75.31C12.82 71.93 11.66 66.67 10.30 62.57ZM27.29 75.74C28.58 72.58 30.10 67.61 31.46 63.22L26.35 61.85C25.70 65.59 24.26 71.06 23.18 74.52ZM45.22 24.77L39.46 24.77L39.46 32.90C39.46 38.74 38.45 45.79 31.18 51.05C32.40 52.13 34.49 55.01 35.28 56.45C43.49 50.26 45.22 40.61 45.22 33.05ZM58.68 64.01L58.68 79.34L42.12 79.34L42.12 64.01ZM36.22 89.35L42.12 89.35L42.12 85.18L58.68 85.18L58.68 89.06L64.87 89.06L64.87 58.10L36.22 58.10ZM61.34 48.17C60.34 48.17 60.19 47.30 60.19 45.07L60.19 24.77L54.29 24.77L54.29 45.00C54.29 51.19 55.37 53.78 60.55 53.78L65.23 53.78C66.46 53.78 67.97 53.71 68.90 53.35C68.62 51.77 68.47 49.54 68.33 47.81C67.54 48.10 65.95 48.17 65.09 48.17Z"/></svg>
