<svg xmlns="http://www.w3.org/2000/svg" xmlns:xlink="http://www.w3.org/1999/xlink" width="72.00000000000001" height="106.56000000000002"><path fill="red" stroke="red" d="M26.86 30.96L26.86 35.78L13.03 35.78L13.03 30.96ZM13.03 45.65L13.03 40.39L26.86 40.39L26.86 45.65ZM33.12 50.54L33.12 25.99L6.41 25.99L6.41 89.21L13.03 89.21L13.03 50.54ZM31.39 66.89L31.39 60.05L39.96 60.05L39.96 66.89ZM54.86 72.43L54.86 66.89L45.94 66.89L45.94 60.05L53.42 60.05L53.42 54.72L18.50 54.72L18.50 60.05L25.63 60.05L25.63 66.89L17.21 66.89L17.21 72.43L25.42 72.43C24.84 76.39 22.82 81.79 17.50 85.03C18.86 85.97 20.88 87.77 21.82 88.99C28.37 84.60 30.67 77.26 31.25 72.43L39.96 72.43L39.96 87.91L45.94 87.91L45.94 72.43ZM45.07 45.79L45.07 40.39L59.33 40.39L59.33 45.79ZM59.33 30.96L59.33 35.78L45.07 35.78L45.07 30.96ZM65.95 25.99L38.66 25.99L38.66 50.69L59.33 50.69L59.33 80.93C59.33 82.01 58.97 82.37 57.89 82.44C56.74 82.44 53.06 82.44 49.39 82.37C50.40 84.17 51.34 87.19 51.55 88.99C56.95 89.06 60.55 88.85 62.86 87.77C65.23 86.62 65.95 84.67 65.95 81.00Z"/></svg>
