<svg xmlns="http://www.w3.org/2000/svg" xmlns:xlink="http://www.w3.org/1999/xlink" width="72.00000000000001" height="106.56000000000002"><path fill="red" stroke="red" d="M22.75 25.92L21.74 26.14L5.90 26.14L5.90 89.21L11.81 89.21L11.81 32.18L19.51 32.18C18.14 37.08 16.27 43.49 14.47 48.31C19.15 53.50 20.30 58.18 20.30 61.78C20.30 63.86 20.02 65.59 19.01 66.31C18.36 66.74 17.64 66.96 16.78 66.96C15.84 67.03 14.62 67.03 13.10 66.89C14.11 68.47 14.62 70.99 14.69 72.65C16.34 72.72 18.07 72.72 19.44 72.58C20.88 72.36 22.25 71.86 23.33 71.14C25.42 69.70 26.28 66.67 26.28 62.57C26.28 58.25 25.20 53.28 20.30 47.59C22.61 41.98 25.13 34.49 27.14 28.44ZM35.28 55.87L43.78 55.87L43.78 61.13L35.28 61.13ZM35.28 46.01L43.78 46.01L43.78 51.26L35.28 51.26ZM58.90 46.01L58.90 51.26L50.26 51.26L50.26 46.01ZM58.90 61.13L50.26 61.13L50.26 55.87L58.90 55.87ZM65.16 66.02L65.16 41.18L50.26 41.18L50.26 35.86L67.90 35.86L67.90 30.17L50.26 30.17L50.26 23.11L43.78 23.11L43.78 30.17L26.64 30.17L26.64 35.86L43.78 35.86L43.78 41.18L29.38 41.18L29.38 66.02L39.10 66.02C34.85 72.14 28.37 77.76 21.96 80.71C23.47 81.94 25.42 84.38 26.42 85.97C32.98 82.37 39.31 76.10 43.78 69.05L43.78 89.14L50.26 89.14L50.26 68.83C54.14 75.74 59.54 82.01 65.38 85.54C66.31 83.88 68.40 81.43 69.77 80.28C63.94 77.40 58.25 71.93 54.50 66.02Z"/></svg>
