<svg xmlns="http://www.w3.org/2000/svg" xmlns:xlink="http://www.w3.org/1999/xlink" width="72.00000000000001" height="106.56000000000002"><path fill="red" stroke="red" d="M43.85 70.92L52.27 70.92L52.27 79.56L43.85 79.56ZM52.27 50.98L43.85 50.98L43.85 42.62L52.27 42.62ZM52.27 65.23L43.85 65.23L43.85 56.66L52.27 56.66ZM26.93 63.58L21.10 63.58L21.10 54.94L26.93 54.94ZM10.30 54.94L15.84 54.94L15.84 63.58L10.30 63.58ZM12.10 31.03L25.06 31.03L25.06 38.81L12.10 38.81ZM68.90 79.56L58.39 79.56L58.39 70.92L67.32 70.92L67.32 65.23L58.39 65.23L58.39 56.66L67.32 56.66L67.32 50.98L58.39 50.98L58.39 42.62L68.26 42.62L68.26 36.65L56.38 36.65L60.62 34.13C59.33 31.54 56.59 27.94 53.86 25.34L48.67 28.15C50.98 30.67 53.50 34.13 54.72 36.65L44.42 36.65C46.15 32.76 47.59 28.73 48.82 24.70L42.70 23.18C39.96 32.83 35.42 42.48 30.17 48.67C30.53 48.96 31.03 49.32 31.39 49.68L21.53 49.68L21.53 44.06L31.25 44.06L31.25 25.78L6.26 25.78L6.26 44.06L15.41 44.06L15.41 49.68L5.11 49.68L5.11 68.76L15.41 68.76L15.41 78.70C10.66 79.20 6.26 79.63 2.74 79.92L3.53 86.11L28.58 83.09C29.09 85.03 29.52 86.83 29.81 88.27L35.50 86.18C34.85 82.22 32.62 75.67 30.60 70.70L25.13 72.50C25.78 74.02 26.35 75.74 26.93 77.47L21.53 78.12L21.53 68.76L32.33 68.76L32.33 50.47C33.41 51.41 34.49 52.42 35.06 53.06C35.93 51.98 36.86 50.69 37.73 49.39L37.73 89.28L43.85 89.28L43.85 85.61L68.90 85.61Z"/></svg>
