<svg xmlns="http://www.w3.org/2000/svg" xmlns:xlink="http://www.w3.org/1999/xlink" width="72.00000000000001" height="106.56000000000002"><path fill="red" stroke="red" d="M46.80 74.23L47.95 70.85C41.54 69.12 29.88 67.25 21.17 66.53L19.80 70.06C28.01 70.92 38.66 72.79 45.07 74.45C34.70 75.82 24.62 77.04 17.64 77.90C18.07 74.95 18.22 72.07 18.22 69.55L18.22 64.66L53.28 64.66L53.28 73.37ZM59.90 59.90L50.33 59.90C53.35 58.39 56.81 56.38 59.18 54.36L54.50 51.19C52.13 52.85 48.10 55.15 44.71 56.59C45.86 57.46 47.30 58.68 48.24 59.90L39.17 59.90L39.17 51.26L32.69 51.26L32.69 59.90L23.18 59.90L26.86 57.46C24.91 55.73 21.24 53.35 18.29 51.91L13.75 54.79C16.34 56.23 19.30 58.18 21.17 59.90L11.95 59.90L11.95 69.48C11.95 74.52 11.52 81.36 7.70 86.54C9.22 87.19 11.95 89.35 13.10 90.50C15.62 87.05 16.85 82.73 17.57 78.55L19.08 82.87C28.51 81.50 41.04 79.49 53.28 77.47L53.28 83.09C53.28 83.95 52.99 84.17 52.06 84.24C51.19 84.31 48.02 84.31 44.86 84.17C45.65 85.61 46.58 87.62 46.87 89.21C51.48 89.21 54.94 89.21 57.02 88.34C59.18 87.48 59.90 86.18 59.90 83.09ZM14.33 51.62C19.01 50.83 24.34 49.68 29.95 48.53L29.66 44.86L27.43 45.22L29.16 41.62C26.21 40.25 20.74 38.81 16.63 38.02L14.83 41.18C19.08 42.19 24.48 43.92 27.43 45.22C21.89 46.01 16.63 46.80 12.67 47.23ZM41.54 47.95C47.16 48.82 54.36 50.47 58.25 51.84L59.47 47.95C56.16 46.80 50.47 45.58 45.50 44.86C49.32 44.06 54.36 42.77 57.89 41.18L55.37 37.94C52.13 39.24 46.37 41.18 42.55 42.12L44.21 44.64L42.84 44.50ZM39.02 33.48L39.02 30.10L63.72 30.10L63.72 25.78L8.50 25.78L8.50 30.10L32.54 30.10L32.54 33.48L5.33 33.48L5.33 47.45L11.88 47.45L11.88 37.66L32.54 37.66L32.54 49.68L39.02 49.68L39.02 37.66L60.19 37.66L60.19 47.45L66.96 47.45L66.96 33.48Z"/></svg>
