<svg xmlns="http://www.w3.org/2000/svg" xmlns:xlink="http://www.w3.org/1999/xlink" width="72.00000000000001" height="106.56000000000002"><path fill="red" stroke="red" d="M11.88 37.66L32.54 37.66L32.54 50.54L39.02 50.54L39.02 37.66L60.19 37.66L60.19 47.38L66.96 47.38L66.96 33.48L39.02 33.48L39.02 30.10L63.72 30.10L63.72 25.78L8.50 25.78L8.50 30.10L32.54 30.10L32.54 33.48L5.33 33.48L5.33 47.38L11.88 47.38ZM41.54 47.88C47.16 48.74 54.29 50.47 58.25 51.84L59.47 47.88C56.16 46.80 50.40 45.58 45.50 44.78C49.32 43.99 54.29 42.77 57.89 41.18L55.37 37.94C52.13 39.24 46.37 41.18 42.55 42.12L44.14 44.57L42.84 44.42ZM14.33 51.62C18.94 50.76 24.34 49.68 29.95 48.46L29.66 44.78L27.43 45.14L29.16 41.62C26.14 40.25 20.74 38.81 16.56 38.02L14.83 41.18C19.01 42.19 24.48 43.85 27.43 45.14C21.82 46.01 16.63 46.80 12.67 47.16ZM30.82 64.58L30.02 64.80L21.96 64.80C25.99 62.06 30.17 58.32 33.12 54.79L29.74 52.27L28.58 52.56L6.62 52.56L6.62 56.74L24.77 56.74C23.26 58.32 21.60 59.98 19.80 61.34C17.86 60.12 15.41 58.75 13.39 57.82L10.87 60.55C13.18 61.63 15.84 63.36 17.93 64.80L4.03 64.80L4.03 69.19L13.82 69.19C10.94 73.51 6.62 77.69 2.52 79.85C3.74 80.93 5.18 82.73 5.98 84.02C10.08 81.36 14.33 76.82 17.42 72.29L17.42 83.02C17.42 83.66 17.21 83.81 16.49 83.88C15.77 83.88 13.61 83.88 11.23 83.81C11.88 85.18 12.67 87.05 12.96 88.56C16.56 88.56 19.01 88.49 20.88 87.70C22.61 86.90 23.04 85.75 23.04 83.09L23.04 69.19L28.01 69.19C27.22 71.50 26.21 73.80 25.42 75.46L29.59 76.97C31.25 74.16 33.05 69.62 34.34 65.66ZM65.16 72.94L50.76 72.94C50.98 71.78 51.12 70.63 51.26 69.34L45.79 69.34C45.65 70.63 45.50 71.78 45.29 72.94L34.92 72.94L34.92 77.33L43.85 77.33C41.83 81.07 38.02 83.45 30.46 85.03C31.54 86.04 32.98 87.98 33.48 89.35C43.20 87.05 47.52 83.23 49.68 77.33L58.90 77.33C58.46 81.14 57.82 82.87 57.10 83.52C56.59 84.02 56.02 84.10 55.01 84.10C54.07 84.10 51.48 84.10 48.82 83.81C49.54 85.10 50.11 86.98 50.18 88.34C53.21 88.56 56.09 88.49 57.60 88.42C59.33 88.34 60.62 87.91 61.85 86.83C63.29 85.46 64.15 82.22 64.94 75.17ZM44.42 57.38L58.10 57.38C56.30 59.47 53.86 61.20 50.90 62.57C48.02 61.27 45.72 59.69 43.92 57.96ZM67.75 57.38L67.75 53.42L47.81 53.42C48.38 52.63 48.89 51.77 49.39 50.98L44.35 50.11C42.26 53.57 38.45 57.24 32.90 59.98C34.06 60.62 35.71 62.14 36.50 63.29C37.94 62.42 39.38 61.56 40.68 60.62C42.05 62.06 43.70 63.36 45.43 64.58C41.90 65.59 38.09 66.31 34.13 66.82C34.78 67.97 35.64 70.27 35.78 71.42C41.18 70.56 46.37 69.26 50.83 67.39C55.22 69.34 60.48 70.70 66.17 71.35C66.82 70.06 68.18 68.04 69.26 66.89C64.66 66.46 60.19 65.66 56.30 64.58C59.40 62.64 61.92 60.26 63.72 57.38Z"/></svg>
