<svg xmlns="http://www.w3.org/2000/svg" xmlns:xlink="http://www.w3.org/1999/xlink" width="72.00000000000001" height="106.56000000000002"><path fill="red" stroke="red" d="M59.33 48.96L37.94 48.96L37.94 43.06L59.33 43.06ZM59.33 59.62L37.94 59.62L37.94 53.71L59.33 53.71ZM59.33 70.34L37.94 70.34L37.94 64.37L59.33 64.37ZM31.68 38.02L31.68 75.38L65.88 75.38L65.88 38.02L50.04 38.02C50.69 36.14 51.48 33.98 52.20 31.97L67.97 31.97L67.97 26.28L28.30 26.28L28.30 31.97L44.57 31.97C44.21 33.91 43.78 36.07 43.27 38.02ZM15.70 68.47L15.70 47.81L29.16 47.81L29.16 42.12L15.70 42.12L15.70 25.42L9.22 25.42L9.22 67.90C9.22 70.70 7.06 72.36 5.47 73.08C6.62 74.45 8.06 77.40 8.64 78.77L8.64 78.91C10.22 77.54 12.74 76.18 29.81 68.83C29.52 67.46 29.09 64.87 29.02 63.14ZM39.31 75.96C35.71 78.91 28.44 82.51 22.39 84.46C23.76 85.61 25.63 87.77 26.57 89.06C32.83 87.05 40.25 83.30 44.93 79.70ZM50.69 79.85C55.51 82.51 61.78 86.54 64.73 89.21L70.06 85.18C66.74 82.44 60.34 78.62 55.73 76.25Z"/></svg>
