<svg xmlns="http://www.w3.org/2000/svg" xmlns:xlink="http://www.w3.org/1999/xlink" width="72.00000000000001" height="106.56000000000002"><path fill="red" stroke="red" d="M59.98 49.10L43.20 49.10L43.20 43.27L59.98 43.27ZM59.98 59.69L43.20 59.69L43.20 53.86L59.98 53.86ZM59.98 70.42L43.20 70.42L43.20 64.51L59.98 64.51ZM37.15 38.16L37.15 75.53L66.31 75.53L66.31 38.16L52.92 38.16C53.57 36.22 54.22 34.13 54.86 31.97L69.19 31.97L69.19 26.21L34.56 26.21L34.56 31.97L47.74 31.97C47.45 33.98 47.02 36.22 46.58 38.16ZM8.14 42.05C7.63 50.62 6.34 57.96 2.30 62.78C3.31 63.50 5.18 65.16 5.83 65.95C8.06 63.29 9.58 59.98 10.66 56.16C11.88 58.03 12.96 59.90 13.54 61.34L16.34 56.88C15.41 55.15 13.75 52.56 11.95 50.18C12.38 47.74 12.67 45.14 12.82 42.41ZM33.98 76.18C31.25 73.01 25.99 68.04 21.67 63.94C21.89 62.71 22.10 61.42 22.25 60.12C23.26 60.91 24.41 62.14 24.91 62.86C26.57 60.91 27.94 58.54 28.94 55.80C30.82 58.46 32.62 61.34 33.62 63.36L36.22 58.90C34.99 56.66 32.69 53.50 30.46 50.62C31.10 48.10 31.46 45.29 31.75 42.41L27.14 41.98C26.64 48.53 25.34 54.36 22.39 58.54C22.68 55.44 22.75 52.34 22.75 49.25L22.75 39.24L35.21 39.24L35.21 33.41L22.75 33.41L22.75 23.40L16.70 23.40L16.70 33.41L3.60 33.41L3.60 39.24L16.70 39.24L16.70 49.18C16.70 61.92 15.26 74.52 2.52 83.45C3.89 84.53 5.90 86.76 6.70 88.20C13.75 83.23 17.78 77.18 20.02 70.56C23.83 74.45 27.94 78.70 30.17 81.58ZM43.13 76.25C40.32 79.27 34.42 82.87 29.30 84.74C30.67 85.90 32.69 87.91 33.70 89.06C38.88 87.05 44.93 83.23 48.60 79.70ZM53.35 79.85C57.46 82.58 62.57 86.76 65.02 89.42L70.27 85.90C67.61 83.23 62.35 79.27 58.39 76.75Z"/></svg>
