<svg xmlns="http://www.w3.org/2000/svg" xmlns:xlink="http://www.w3.org/1999/xlink" width="72.00000000000001" height="106.56000000000002"><path fill="red" stroke="red" d="M60.34 48.74L44.93 48.74L44.93 42.91L60.34 42.91ZM60.34 59.47L44.93 59.47L44.93 53.57L60.34 53.57ZM60.34 70.27L44.93 70.27L44.93 64.30L60.34 64.30ZM38.74 37.80L38.74 75.38L66.89 75.38L66.89 37.80L53.28 37.80C53.93 36.00 54.58 33.98 55.22 32.04L68.47 32.04L68.47 26.28L36.72 26.28L36.72 32.04L48.67 32.04C48.31 33.91 47.88 36.00 47.38 37.80ZM34.85 28.94L21.82 28.94L22.90 28.44C22.25 26.78 20.88 24.26 19.51 22.46L14.33 24.62C15.19 25.92 16.06 27.43 16.63 28.94L3.38 28.94L3.38 34.20L34.85 34.20ZM21.53 48.82L16.63 48.82L16.63 46.01L21.53 46.01ZM25.27 43.27L12.96 43.27L12.96 51.55L25.27 51.55ZM28.08 53.57L10.22 53.57L10.22 41.18L28.08 41.18ZM33.26 37.15L5.18 37.15L5.18 57.67L33.26 57.67ZM12.60 70.56L25.70 70.56L25.70 74.09L12.60 74.09ZM12.60 63.72L25.70 63.72L25.70 67.18L12.60 67.18ZM31.03 77.62L31.03 60.19L7.34 60.19L7.34 77.62ZM3.02 87.48C11.09 86.83 22.61 85.90 33.48 84.82L33.55 79.56C22.32 80.50 10.51 81.50 2.74 82.01ZM45.14 76.10C42.70 79.13 37.94 83.16 34.06 85.46C35.42 86.47 37.15 88.27 38.09 89.35C42.12 86.83 47.02 82.87 50.47 79.27ZM54.94 79.42C58.32 82.30 62.57 86.40 64.58 88.99L69.48 85.97C67.32 83.45 62.93 79.49 59.54 76.68Z"/></svg>
