<svg xmlns="http://www.w3.org/2000/svg" xmlns:xlink="http://www.w3.org/1999/xlink" width="72.00000000000001" height="106.56000000000002"><path fill="red" stroke="red" d="M12.53 41.11L24.77 41.11L24.77 36.50L13.10 36.50C14.76 34.78 16.42 32.98 17.86 31.10C21.53 33.26 25.78 35.86 28.01 37.58L30.96 32.40C28.66 30.89 24.48 28.51 20.95 26.64C21.46 25.85 21.89 25.06 22.32 24.26L17.06 22.39C13.82 28.22 7.99 33.70 2.45 37.08C3.38 38.52 4.82 41.76 5.18 43.13C7.63 41.40 10.22 39.31 12.53 37.08ZM46.87 47.59L34.78 47.59C36.50 44.86 38.16 41.76 39.53 38.30L46.87 38.30ZM12.74 64.44L12.74 59.33L22.25 59.33L22.25 64.44ZM22.25 49.68L22.25 54.50L12.74 54.50L12.74 49.68ZM68.11 38.30L68.11 32.26L41.76 32.26C42.55 29.66 43.27 26.93 43.92 24.19L37.73 23.04C36.00 31.75 32.69 40.25 28.15 45.65L28.15 44.71L6.98 44.71L6.98 79.27C6.98 81.94 5.47 82.94 4.32 83.45C5.18 84.89 6.19 87.55 6.48 89.06C7.85 88.06 10.01 87.05 23.47 81.72C24.34 83.74 25.20 85.54 25.78 87.05L30.67 84.67C29.16 81.14 26.06 75.02 23.47 70.49L18.86 72.43C19.66 73.87 20.38 75.53 21.24 77.11L12.74 80.14L12.74 69.41L28.15 69.41L28.15 45.79C29.59 46.73 32.11 48.67 33.26 49.68L33.84 48.96L33.84 80.50L39.82 80.50L39.82 53.50L46.87 53.50L46.87 89.21L53.28 89.21L53.28 53.50L60.12 53.50L60.12 73.66C60.12 74.30 59.90 74.52 59.26 74.52L55.01 74.52C55.87 75.96 56.74 78.48 56.95 80.14C60.19 80.14 62.42 79.99 64.15 79.06C65.81 78.12 66.24 76.46 66.24 73.80L66.24 47.59L53.28 47.59L53.28 38.30Z"/></svg>
