<svg xmlns="http://www.w3.org/2000/svg" xmlns:xlink="http://www.w3.org/1999/xlink" width="72.00000000000001" height="106.56000000000002"><path fill="red" stroke="red" d="M57.24 37.08C55.44 40.68 53.06 44.64 50.76 47.38C52.20 48.10 54.22 49.46 55.44 50.47C58.97 46.08 63.29 39.17 65.74 33.62L61.63 30.82L60.70 31.10L46.15 31.10C47.09 29.02 48.10 26.86 48.96 24.77L43.13 22.97C40.03 31.25 34.85 39.38 29.09 44.57C30.53 45.50 32.98 47.45 34.13 48.60C37.08 45.58 40.03 41.54 42.84 37.08ZM12.53 41.11L24.77 41.11L24.77 36.50L13.46 36.50C15.12 34.85 16.70 33.05 18.07 31.18C22.10 33.48 26.71 36.36 29.23 38.23L32.18 32.76C29.74 31.10 25.20 28.51 21.31 26.57C21.82 25.85 22.18 25.06 22.61 24.34L17.06 22.39C13.82 28.22 7.99 33.70 2.38 37.08C3.38 38.59 4.82 42.05 5.33 43.34C7.78 41.69 10.22 39.67 12.53 37.44ZM22.18 49.68L22.18 54.50L13.18 54.50L13.18 49.68ZM13.18 64.44L13.18 59.33L22.18 59.33L22.18 64.44ZM19.37 72.58C20.02 73.94 20.81 75.31 21.60 76.90L13.18 79.92L13.18 69.41L28.22 69.41L28.22 44.71L6.98 44.71L6.98 78.84C6.98 81.58 5.26 82.51 3.96 83.02C4.90 84.60 5.90 87.48 6.26 89.06C7.56 87.98 9.72 86.98 23.76 81.43C24.77 83.59 25.70 85.61 26.28 87.19L31.25 84.74C29.81 81.22 26.64 75.02 24.05 70.56ZM51.05 52.49L51.05 58.03L60.19 58.03L60.19 66.17L50.40 66.17L50.40 71.57L60.19 71.57L60.19 80.42L37.87 80.42L37.87 71.50L47.59 71.50L47.59 66.10L37.87 66.10L37.87 57.24C41.40 55.80 45.00 54.00 48.10 52.27L43.56 47.74C40.75 49.97 36.07 52.63 31.82 54.43L31.82 89.14L37.87 89.14L37.87 86.04L60.19 86.04L60.19 88.63L66.31 88.63L66.31 52.49Z"/></svg>
