<svg xmlns="http://www.w3.org/2000/svg" xmlns:xlink="http://www.w3.org/1999/xlink" width="72.00000000000001" height="106.56000000000002"><path fill="red" stroke="red" d="M53.21 56.52L18.43 56.52L18.43 50.54L53.21 50.54ZM18.43 79.63L18.43 73.15L53.21 73.15L53.21 79.63ZM53.21 67.90L18.43 67.90L18.43 61.78L53.21 61.78ZM68.11 39.10L68.11 32.90L50.98 32.90C52.92 30.53 55.08 27.65 57.02 24.77L49.46 23.04C48.02 25.92 45.58 30.02 43.42 32.90L25.56 32.90L28.73 31.25C27.29 28.80 24.48 25.27 21.89 22.82L15.98 25.42C17.93 27.58 20.16 30.60 21.60 32.90L4.03 32.90L4.03 39.10L32.04 39.10C31.68 40.90 31.10 42.91 30.60 44.71L11.74 44.71L11.74 89.21L18.43 89.21L18.43 85.46L53.21 85.46L53.21 89.21L60.19 89.21L60.19 44.71L37.80 44.71C38.59 42.98 39.38 41.04 40.18 39.10Z"/></svg>
