<svg xmlns="http://www.w3.org/2000/svg" xmlns:xlink="http://www.w3.org/1999/xlink" width="72.00000000000001" height="106.56000000000002"><path fill="red" stroke="red" d="M15.91 55.87L21.74 55.87L21.74 48.60C24.91 51.12 28.08 53.78 29.95 55.58L33.26 51.91C31.03 49.68 26.57 46.22 22.82 43.63L32.40 43.63L32.40 38.30L21.74 38.30L21.74 31.18C25.42 30.53 28.87 29.74 31.82 28.87L27.94 24.05C22.25 25.99 12.38 27.58 4.03 28.44C4.68 29.74 5.47 31.90 5.69 33.19C8.93 32.98 12.46 32.62 15.91 32.11L15.91 38.30L3.60 38.30L3.60 43.63L13.54 43.63C10.58 47.66 6.34 51.48 2.23 53.28C3.38 54.43 4.61 56.52 5.26 57.82C9.07 55.58 12.96 51.98 15.91 48.10ZM24.26 66.02C23.69 68.90 22.46 72.07 19.44 75.10C17.06 74.02 14.62 72.86 12.31 71.93C13.18 70.27 14.18 68.47 15.19 66.60ZM32.18 82.44C30.24 80.93 27.43 79.27 24.34 77.62C27.86 73.80 29.23 69.62 29.74 65.74L33.12 65.52L33.19 60.70L29.95 60.91L29.95 57.74L24.70 57.74L24.70 61.13L17.64 61.49C18.22 60.19 18.79 58.82 19.30 57.60L14.04 56.59C13.39 58.25 12.67 60.05 11.88 61.85C8.64 62.06 5.62 62.21 3.10 62.28L3.67 67.32L9.22 66.96C7.85 69.62 6.34 72.14 4.97 74.09C8.21 75.38 11.81 76.97 15.26 78.70C12.10 80.71 7.92 82.73 2.30 84.38C3.38 85.39 4.82 87.26 5.40 88.56C12.02 86.47 16.78 84.02 20.30 81.36C23.54 83.09 26.42 84.96 28.37 86.47ZM40.18 47.66L47.23 47.66L47.23 54.07L40.18 54.07ZM40.18 36.22L47.23 36.22L47.23 42.55L40.18 42.55ZM60.19 42.55L52.49 42.55L52.49 36.22L60.19 36.22ZM60.19 54.07L52.49 54.07L52.49 47.66L60.19 47.66ZM57.10 82.80C55.22 82.80 54.94 82.51 54.94 80.78L54.94 74.88L55.44 76.46C56.23 75.96 57.67 75.60 64.94 74.45C65.23 75.60 65.52 76.68 65.66 77.62L68.83 76.46C68.26 73.80 66.82 69.70 65.23 66.60L62.28 67.61C62.93 68.83 63.50 70.27 64.01 71.64L58.61 72.29C60.12 69.77 61.63 66.53 62.71 63.22L58.82 62.06C58.18 65.95 56.45 69.91 55.87 70.99C55.58 71.50 55.30 72.00 54.94 72.29L54.94 59.47L65.88 59.47L65.88 30.82L50.18 30.82C50.98 28.80 51.84 26.42 52.78 24.12L45.72 23.11C45.29 25.34 44.57 28.30 43.70 30.82L34.70 30.82L34.70 59.47L41.33 59.47L41.33 61.20C41.33 67.82 40.03 78.26 30.96 85.90C32.33 86.69 34.34 88.34 35.35 89.50C45.14 80.93 46.73 68.83 46.73 61.34L46.73 59.47L49.39 59.47L49.39 80.78C49.39 86.33 50.76 87.91 56.30 87.91L63.50 87.91C67.75 87.91 69.34 86.11 69.91 79.56C68.33 79.13 66.17 78.26 65.02 77.47C64.80 82.08 64.51 82.80 62.93 82.80Z"/></svg>
