<svg xmlns="http://www.w3.org/2000/svg" xmlns:xlink="http://www.w3.org/1999/xlink" width="72.00000000000001" height="106.56000000000002"><path fill="red" stroke="red" d="M68.40 34.20L68.40 28.66L42.55 28.66C41.98 26.86 41.11 24.62 40.32 22.97L33.41 24.48C33.91 25.78 34.42 27.22 34.92 28.66L8.14 28.66L8.14 51.12C8.14 61.42 7.63 75.53 2.38 85.39C3.74 86.11 6.48 88.20 7.49 89.50C13.39 78.70 14.33 62.21 14.33 51.12L14.33 34.20ZM54.86 53.93L54.86 42.19L65.38 42.19L65.38 38.09L54.86 38.09L54.86 35.14L49.82 35.14L49.82 38.09L41.47 38.09L41.47 42.19L49.82 42.19L49.82 53.93ZM34.13 44.14L34.13 47.95C34.13 50.90 34.70 52.34 37.58 52.34L37.94 52.34L38.09 52.34C38.88 52.34 39.74 52.34 40.32 52.13C40.18 51.12 40.10 50.04 40.10 49.18C39.67 49.25 39.02 49.32 38.52 49.39C38.16 49.32 38.09 48.89 38.09 48.02L38.09 44.14ZM47.02 43.99L42.91 43.99L42.91 46.44C42.91 47.38 42.70 49.97 40.32 51.41C41.40 52.13 42.77 53.28 43.49 54.14C46.58 52.06 47.02 48.46 47.02 46.66ZM64.80 52.92C65.88 52.92 67.10 52.92 67.68 52.70L67.46 49.75C66.82 49.97 65.38 50.04 64.66 50.04L62.78 50.04C61.92 50.04 61.85 49.68 61.85 48.53L61.85 43.92L57.89 43.92L57.89 48.53C57.89 51.55 58.46 52.92 61.70 52.92ZM25.27 66.60L38.59 66.60L38.59 70.20L25.27 70.20ZM25.27 59.76L38.59 59.76L38.59 63.29L25.27 63.29ZM57.24 63.29L44.28 63.29L44.28 59.76L57.24 59.76ZM57.24 70.20L44.28 70.20L44.28 66.60L57.24 66.60ZM52.42 84.38C49.68 84.38 49.18 84.17 49.18 82.51L49.18 74.02L54.72 74.02C54.00 76.25 52.42 78.41 51.98 78.98C51.48 79.42 51.05 79.63 50.47 79.70C50.90 80.64 51.34 82.37 51.55 83.09C52.42 82.66 54.00 82.15 61.27 80.78C61.49 81.36 61.70 81.94 61.85 82.37L64.73 81.29C64.08 79.70 62.64 77.04 61.56 75.17L58.82 75.89C59.18 76.61 59.62 77.33 59.98 78.12L55.80 78.77C56.66 77.69 57.53 76.32 58.18 74.88L55.73 74.02L63.29 74.02L63.29 55.94L35.78 55.94C36.58 54.94 37.44 53.93 38.23 52.78L31.82 51.77C31.68 52.13 31.46 52.56 31.25 52.99L31.25 42.19L39.89 42.19L39.89 38.09L31.25 38.09L31.25 35.14L26.42 35.14L26.42 38.09L17.50 38.09L17.50 42.19L26.42 42.19L26.42 52.99L31.25 52.99C30.74 53.93 30.10 54.94 29.52 55.94L19.51 55.94L19.51 74.02L31.61 74.02C29.88 79.42 25.78 82.73 14.47 84.60C15.55 85.68 17.14 87.98 17.71 89.50C30.96 86.69 36.00 82.01 38.09 74.02L43.42 74.02L43.42 82.58C43.42 87.41 45.07 88.63 51.77 88.63L62.93 88.63C67.61 88.63 69.19 87.19 69.77 82.22C68.18 81.94 66.10 81.22 64.87 80.50C64.66 83.81 64.15 84.38 62.21 84.38ZM23.47 43.99L19.44 43.99L19.44 46.44C19.44 47.52 19.08 50.40 15.26 51.84C16.27 52.56 17.71 53.78 18.29 54.58C22.90 52.49 23.47 48.67 23.47 46.66Z"/></svg>
