<svg xmlns="http://www.w3.org/2000/svg" xmlns:xlink="http://www.w3.org/1999/xlink" width="72.00000000000001" height="106.56000000000002"><path fill="red" stroke="red" d="M62.28 26.50L39.02 26.50L39.02 31.82L55.73 31.82L55.73 36.86L38.09 36.86L38.09 42.05L55.73 42.05L55.73 47.45L16.85 47.45L16.85 42.05L34.63 42.05L34.63 36.86L16.85 36.86L16.85 31.46C22.46 30.82 28.44 29.81 33.12 28.51L29.81 23.47C24.77 24.98 16.92 26.42 10.22 27.29L10.22 52.70L62.28 52.70ZM17.06 80.50L17.06 74.09L29.66 74.09L29.66 69.12L17.06 69.12L17.06 64.15L29.66 64.15L29.66 59.26L17.06 59.26L17.06 54.79L10.73 54.79L10.73 78.19C10.73 81.07 9.29 82.44 8.14 83.09C9.07 84.24 10.30 86.76 10.66 88.27C12.10 87.41 14.40 86.83 28.80 84.02C28.73 82.73 28.66 80.21 28.80 78.62ZM38.09 81.00L38.09 74.45L50.54 74.45L50.54 69.48L38.09 69.48L38.09 64.51L50.33 64.51L50.33 59.54L38.09 59.54L38.09 54.86L31.97 54.86L31.97 78.34C31.97 81.29 30.46 82.80 29.30 83.38C30.17 84.60 31.46 87.05 31.82 88.49C33.34 87.62 35.78 87.05 51.55 83.88C51.41 82.58 51.34 80.21 51.55 78.62ZM52.13 54.58C52.34 76.61 54.43 88.92 62.42 88.92C66.53 88.92 68.47 86.90 69.12 79.06C67.61 78.55 65.81 77.47 64.58 76.32C64.37 81.14 63.94 82.58 62.86 82.58C60.12 82.58 58.32 73.66 58.68 54.58Z"/></svg>
