<svg xmlns="http://www.w3.org/2000/svg" xmlns:xlink="http://www.w3.org/1999/xlink" width="72.00000000000001" height="106.56000000000002"><path fill="red" stroke="red" d="M67.46 29.09L40.39 29.09C39.89 27.22 39.02 24.77 38.02 22.90L31.32 24.19C31.97 25.70 32.62 27.43 33.05 29.09L4.46 29.09L4.46 34.34L67.46 34.34ZM38.95 45.07C41.18 42.62 43.63 39.60 45.72 36.50L40.61 34.56C38.88 37.73 35.57 42.19 32.98 44.93L32.98 58.25L38.95 58.25ZM26.14 36.43C27.86 38.52 29.66 41.40 30.46 43.34L34.99 41.26C34.13 39.38 32.26 36.65 30.46 34.63ZM22.03 43.13C21.74 49.03 21.24 51.48 20.66 52.20C20.23 52.78 19.73 52.85 18.94 52.85C18.14 52.85 16.34 52.85 14.33 52.56C15.05 53.93 15.55 56.02 15.70 57.53C17.93 57.60 20.23 57.60 21.38 57.46C23.04 57.31 24.05 56.88 24.98 55.73C26.28 54.22 26.78 50.26 27.36 40.61C27.43 39.89 27.43 38.45 27.43 38.45L5.40 38.45L5.40 43.13L11.09 43.13C10.15 48.38 8.06 52.70 2.66 55.30C3.82 56.16 5.33 58.10 6.05 59.33C12.82 55.80 15.41 50.26 16.56 43.13ZM20.52 72.65C20.81 71.06 20.88 69.34 20.95 67.82L52.13 67.82L52.13 72.65ZM52.13 62.64L20.95 62.64L20.95 58.54L14.26 58.54L14.26 66.31C14.26 72.22 13.18 79.56 4.54 84.67C6.05 85.90 8.21 88.34 9.07 90.00C14.69 86.62 17.71 82.37 19.30 77.90L52.13 77.90L52.13 89.42L58.90 89.42L58.90 58.54L52.13 58.54ZM61.13 35.86C57.53 37.58 51.05 39.24 45.36 40.25L45.36 47.52C45.36 50.40 43.85 51.98 42.77 52.70C43.63 53.86 45.00 56.59 45.58 57.89L45.58 57.96C46.73 57.46 48.60 57.02 58.75 55.73C58.46 54.50 58.32 52.49 58.25 51.05L50.76 51.84L50.76 43.63C52.20 43.42 53.57 43.13 54.94 42.84C56.95 49.90 60.48 55.73 66.02 58.90C66.82 57.38 68.40 55.44 69.70 54.43C64.73 52.13 61.42 47.38 59.62 41.69C61.63 41.04 63.65 40.39 65.45 39.60Z"/></svg>
