<svg xmlns="http://www.w3.org/2000/svg" xmlns:xlink="http://www.w3.org/1999/xlink" width="72.00000000000001" height="106.56000000000002"><path fill="red" stroke="red" d="M51.12 47.09L51.12 63.00L39.10 63.00L39.10 47.09ZM58.10 69.19L58.10 47.09L68.26 47.09L68.26 40.68L58.10 40.68L58.10 24.34L51.12 24.34L51.12 40.68L39.10 40.68L39.10 23.54L32.40 23.54L32.40 40.68L20.88 40.68L20.88 25.06L13.90 25.06L13.90 40.68L3.82 40.68L3.82 47.09L13.90 47.09L13.90 84.89L66.31 84.89L66.31 78.41L20.88 78.41L20.88 47.09L32.40 47.09L32.40 69.19Z"/></svg>
