<svg xmlns="http://www.w3.org/2000/svg" xmlns:xlink="http://www.w3.org/1999/xlink" width="72.00000000000001" height="106.56000000000002"><path fill="red" stroke="red" d="M20.88 23.26C16.56 34.20 9.43 44.93 1.87 51.70C3.17 53.35 5.18 56.88 5.83 58.39C8.28 56.02 10.80 53.28 13.10 50.18L13.10 88.99L19.73 88.99L19.73 40.39C22.61 35.64 25.13 30.46 27.29 25.34ZM69.26 51.77L69.26 45.29L49.75 45.29L49.75 24.34L42.91 24.34L42.91 45.29L23.18 45.29L23.18 51.77L42.91 51.77L42.91 79.85L24.98 79.85L24.98 86.33L68.11 86.33L68.11 79.85L49.75 79.85L49.75 51.77Z"/></svg>
