<svg xmlns="http://www.w3.org/2000/svg" xmlns:xlink="http://www.w3.org/1999/xlink" width="72.00000000000001" height="106.56000000000002"><path fill="red" stroke="red" d="M18.50 23.40C14.62 33.91 8.21 44.35 1.44 51.12C2.52 52.63 4.39 56.23 5.04 57.74C6.98 55.73 9.00 53.35 10.87 50.69L10.87 89.14L17.28 89.14L17.28 40.82C20.09 35.86 22.68 30.53 24.70 25.34ZM48.67 78.41L48.67 58.97L59.33 58.97L59.33 78.41ZM31.97 58.97L42.12 58.97L42.12 78.41L31.97 78.41ZM42.12 33.77L42.12 52.56L31.97 52.56L31.97 33.77ZM59.33 52.56L48.67 52.56L48.67 33.77L59.33 33.77ZM25.56 27.29L25.56 89.21L31.97 89.21L31.97 84.89L59.33 84.89L59.33 88.63L65.95 88.63L65.95 27.29Z"/></svg>
