<svg xmlns="http://www.w3.org/2000/svg" xmlns:xlink="http://www.w3.org/1999/xlink" width="72.00000000000001" height="106.56000000000002"><path fill="red" stroke="red" d="M16.27 23.33C12.96 34.06 7.49 44.78 1.51 51.70C2.52 53.50 4.25 57.24 4.82 58.82C6.77 56.52 8.78 53.78 10.58 50.83L10.58 89.21L17.14 89.21L17.14 38.66C19.22 34.20 21.02 29.66 22.54 25.13ZM33.84 32.26L57.38 32.26L57.38 45.36L33.84 45.36ZM49.18 67.54L65.30 67.54L65.30 61.27L49.18 61.27L49.18 51.26L64.08 51.26L64.08 26.35L27.50 26.35L27.50 51.26L42.48 51.26L42.48 78.91C38.59 76.97 35.50 73.58 33.41 67.82C33.98 64.87 34.49 61.63 34.85 58.32L28.44 57.67C27.36 69.41 24.55 79.34 18.29 85.39C19.73 86.26 22.54 88.27 23.54 89.35C26.86 85.82 29.38 81.36 31.18 76.18C36.65 85.46 44.86 87.62 55.51 87.62L67.39 87.62C67.68 85.82 68.62 82.87 69.48 81.36C66.60 81.36 58.25 81.43 56.02 81.36C53.64 81.36 51.34 81.22 49.18 80.93Z"/></svg>
