<svg xmlns="http://www.w3.org/2000/svg" xmlns:xlink="http://www.w3.org/1999/xlink" width="72.00000000000001" height="106.56000000000002"><path fill="red" stroke="red" d="M16.27 23.47C12.96 34.20 7.49 44.78 1.51 51.70C2.52 53.42 4.25 57.10 4.90 58.75C6.84 56.45 8.78 53.78 10.58 50.83L10.58 89.21L16.70 89.21L16.70 39.67C18.94 34.92 20.88 30.10 22.54 25.20ZM59.90 42.41C59.04 50.69 57.74 57.96 55.44 64.15C53.21 57.67 51.91 50.62 51.19 44.14C51.41 43.56 51.55 42.98 51.70 42.41ZM37.15 75.60L27.43 75.60L27.43 61.20L37.15 61.20ZM68.98 42.41L68.98 36.72L53.28 36.72C54.36 32.69 55.08 28.44 55.80 24.26L49.75 23.18C48.17 34.70 45.36 45.94 40.54 53.21C41.04 53.78 41.69 54.58 42.34 55.44L35.57 55.44L35.57 42.70L44.14 42.70L44.14 36.65L35.57 36.65L35.57 24.05L29.23 24.05L29.23 36.65L20.02 36.65L20.02 42.70L29.23 42.70L29.23 55.44L21.60 55.44L21.60 86.18L27.43 86.18L27.43 81.36L43.06 81.36L43.06 56.52C43.63 57.24 44.14 58.03 44.42 58.61C45.50 57.02 46.51 55.30 47.45 53.42C48.46 59.40 49.97 65.52 52.27 71.21C49.18 76.82 44.86 81.22 39.10 84.60C40.39 85.68 42.48 88.06 43.27 89.21C48.24 85.97 52.13 82.08 55.30 77.40C57.96 81.94 61.27 86.04 65.52 89.14C66.38 87.48 68.33 85.03 69.55 83.81C64.80 80.78 61.27 76.54 58.61 71.50C62.35 63.58 64.44 54.00 65.74 42.41Z"/></svg>
