<svg xmlns="http://www.w3.org/2000/svg" xmlns:xlink="http://www.w3.org/1999/xlink" width="72.00000000000001" height="106.56000000000002"><path fill="red" stroke="red" d="M37.37 34.13C36.50 31.32 34.27 26.86 32.18 23.62L26.86 25.42C28.87 28.87 30.89 33.41 31.61 36.29ZM25.06 87.48C28.66 83.88 30.60 77.90 31.75 72.72L26.64 70.99C25.56 75.89 23.40 81.22 20.16 84.53ZM34.56 73.01C35.64 77.04 36.36 82.22 36.36 85.39L41.54 84.53C41.54 81.36 40.75 76.32 39.53 72.36ZM42.91 72.29C44.57 75.46 46.08 79.78 46.58 82.44L51.34 80.86C50.76 78.19 49.03 74.09 47.38 70.92ZM59.54 76.75C58.82 74.45 56.59 71.21 54.58 68.83L50.69 70.63C52.63 73.15 54.72 76.54 55.44 78.77ZM57.82 54.50C57.38 57.02 56.95 59.62 56.45 61.78L34.63 61.78C36.43 59.47 38.09 57.02 39.74 54.50ZM54.00 42.12C53.64 44.64 53.14 47.09 52.70 49.18L42.91 49.18C44.14 46.87 45.29 44.57 46.44 42.12ZM62.78 61.78C63.43 58.10 64.08 53.28 64.66 49.18L58.90 49.18C59.62 45.50 60.34 40.75 60.91 36.65L48.82 36.65C50.40 32.76 51.77 28.66 53.06 24.41L46.80 23.04C45.43 27.79 43.85 32.33 42.05 36.65L22.82 36.65L22.82 42.12L39.53 42.12C33.91 53.57 26.42 63.14 16.92 69.98L16.92 40.68C19.66 35.71 22.10 30.46 24.05 25.27L17.71 23.40C13.97 33.84 7.78 44.14 1.15 50.76C2.30 52.42 4.25 56.02 4.82 57.53C6.77 55.44 8.71 53.14 10.58 50.62L10.58 89.06L16.92 89.06L16.92 72.72C18.14 73.80 19.51 75.10 20.16 75.89C23.69 73.30 27.00 70.34 30.02 67.10L62.35 67.10C61.56 77.62 60.62 81.86 59.33 83.23C58.75 83.88 58.10 83.95 56.95 83.95C55.66 83.95 52.78 83.95 49.61 83.59C50.54 85.10 51.19 87.55 51.26 89.14C54.72 89.35 57.96 89.35 59.69 89.14C61.78 88.92 63.14 88.49 64.51 87.05C66.53 84.82 67.61 78.91 68.69 64.22C68.83 63.50 68.90 61.78 68.90 61.78Z"/></svg>
