<svg xmlns="http://www.w3.org/2000/svg" xmlns:xlink="http://www.w3.org/1999/xlink" width="72.00000000000001" height="106.56000000000002"><path fill="red" stroke="red" d="M17.86 23.11C14.26 33.91 8.42 44.71 2.02 51.62C3.24 53.21 5.26 56.52 5.98 58.03C7.78 55.94 9.58 53.64 11.30 51.12L11.30 89.14L17.71 89.14L17.71 40.03C20.16 35.21 22.46 30.10 24.19 24.98ZM54.86 64.15C53.71 66.17 51.77 68.76 49.97 70.99C48.89 70.42 47.81 69.84 46.73 69.34L46.73 58.03L40.54 58.03L40.54 71.64C33.12 74.66 25.78 77.62 20.66 79.34L23.69 84.67C28.51 82.51 34.63 79.85 40.54 77.18L40.54 82.87C40.54 83.66 40.25 83.88 39.38 83.95C38.59 83.95 35.86 83.95 33.05 83.81C33.84 85.32 34.70 87.41 34.85 88.99C39.24 88.99 42.12 88.92 44.14 88.13C46.15 87.26 46.73 85.90 46.73 83.02L46.73 75.31C52.63 78.62 58.90 82.66 62.57 85.61L66.31 81.00C63.43 78.84 59.11 76.10 54.65 73.51C56.38 71.57 58.39 69.34 60.05 67.10ZM37.66 70.56C36.22 68.69 33.48 66.17 31.03 64.51L26.93 67.90C29.30 69.77 32.04 72.43 33.34 74.38ZM68.47 55.08L68.47 49.75L40.54 49.75C41.40 48.10 42.12 46.44 42.77 44.64L64.80 44.64L64.80 39.46L44.57 39.46C45.00 38.09 45.36 36.58 45.79 35.14L66.38 35.21L66.46 29.95L46.94 29.88C47.38 27.94 47.74 25.92 48.02 23.83L41.62 23.11C41.33 25.42 40.97 27.72 40.54 29.88L23.98 29.81L23.90 35.06L39.31 35.14C38.88 36.58 38.52 38.09 38.02 39.46L25.27 39.46L25.27 44.64L36.07 44.64C35.21 46.44 34.42 48.10 33.48 49.75L20.45 49.75L20.45 55.08L29.66 55.08C26.57 58.75 22.82 61.78 18.29 64.15C19.73 65.23 22.25 67.75 23.11 68.98C29.02 65.30 33.77 60.70 37.51 55.08L49.03 55.08C52.99 60.98 59.04 65.95 65.88 68.47C66.74 66.89 68.62 64.51 69.91 63.36C64.66 61.78 59.76 58.75 56.16 55.08Z"/></svg>
