<svg xmlns="http://www.w3.org/2000/svg" xmlns:xlink="http://www.w3.org/1999/xlink" width="72.00000000000001" height="106.56000000000002"><path fill="red" stroke="red" d="M33.19 39.24C36.79 36.79 40.10 34.06 42.98 31.10C46.22 33.91 50.04 36.79 54.22 39.24ZM32.47 44.71L54.29 44.71L54.29 39.31C58.32 41.76 62.64 43.92 66.60 45.58C66.96 43.85 68.18 40.97 69.26 39.46C61.49 36.79 52.34 31.90 46.73 26.93C47.16 26.28 47.66 25.63 48.17 24.91L41.76 22.54C37.08 29.45 28.01 36.29 18.14 40.68C19.51 41.76 21.53 44.06 22.54 45.36C25.99 43.70 29.30 41.83 32.47 39.74ZM51.34 53.50L59.04 53.50L59.04 61.34L51.34 61.34ZM45.79 66.10L64.87 66.10L64.87 48.82L45.79 48.82ZM28.22 53.50L35.86 53.50L35.86 61.34L28.22 61.34ZM22.68 66.10L41.69 66.10L41.69 48.82L22.68 48.82ZM16.27 23.40C12.96 34.20 7.49 44.86 1.51 51.84C2.52 53.57 4.25 57.31 4.82 58.90C6.77 56.59 8.78 53.93 10.58 51.05L10.58 89.14L16.92 89.14L16.92 39.24C19.08 34.63 20.95 29.95 22.54 25.20ZM30.60 67.97C28.44 75.02 23.62 80.86 17.21 84.38C18.72 85.46 21.02 87.91 22.03 89.14C25.85 86.69 29.23 83.38 31.97 79.49C34.78 81.65 37.73 84.10 39.38 85.82L43.20 81.43C41.33 79.49 37.87 76.90 34.78 74.81C35.64 73.01 36.43 71.21 37.08 69.26ZM52.34 67.90C50.90 75.46 47.16 81.58 41.18 85.32C42.62 86.18 45.22 88.42 46.30 89.57C49.46 87.26 52.27 84.24 54.43 80.57C58.32 83.59 62.50 87.05 64.66 89.35L69.05 84.96C66.31 82.30 61.20 78.41 56.95 75.31C57.74 73.30 58.39 71.14 58.90 68.76Z"/></svg>
