<svg xmlns="http://www.w3.org/2000/svg" xmlns:xlink="http://www.w3.org/1999/xlink" width="72.00000000000001" height="106.56000000000002"><path fill="red" stroke="red" d="M24.41 71.28C19.94 75.60 11.16 81.14 3.96 84.17C5.54 85.54 7.63 87.84 8.71 89.21C15.91 85.82 24.70 80.35 30.53 75.38ZM41.69 75.82C48.60 79.56 57.82 85.32 62.28 88.92L67.61 83.81C62.78 80.21 53.28 74.88 46.66 71.42ZM22.75 48.60L45.36 48.60L45.36 63.58L22.75 63.58ZM52.20 63.58L52.20 48.60L64.44 48.60L64.44 42.34L22.75 42.34L22.75 33.26C35.93 32.69 50.47 31.39 61.06 29.38L57.53 23.26C47.09 25.42 30.31 26.86 15.91 27.58L15.91 63.58L3.67 63.58L3.67 69.84L68.33 69.84L68.33 63.58Z"/></svg>
