<svg xmlns="http://www.w3.org/2000/svg" xmlns:xlink="http://www.w3.org/1999/xlink" width="72.00000000000001" height="106.56000000000002"><path fill="red" stroke="red" d="M16.20 30.31L55.66 30.31L55.66 46.08L62.14 46.08L62.14 25.70L10.01 25.70L10.01 46.15L16.20 46.15ZM52.06 33.48L19.94 33.48L19.94 37.30L52.06 37.30ZM19.94 44.50L52.06 44.50L52.06 40.61L19.94 40.61ZM54.94 61.70L54.94 67.75L38.59 67.75C39.02 65.88 39.38 63.86 39.60 61.70ZM18.86 67.75L18.86 61.70L32.90 61.70C32.69 63.94 32.33 65.95 31.75 67.75ZM43.13 52.63C41.90 54.07 40.54 55.51 39.17 56.81L20.02 56.81C21.74 55.44 23.47 54.07 24.91 52.63ZM48.96 82.73C45.65 82.73 45.07 82.37 45.07 80.50L45.07 72.72L61.63 72.72L61.63 56.81L47.09 56.81C48.96 54.86 50.83 52.70 52.13 50.69L47.74 48.10L46.80 48.38L28.94 48.38C29.59 47.59 30.24 46.73 30.82 46.01L24.05 44.57C20.30 49.82 13.32 55.44 3.31 59.47C4.61 60.48 6.55 62.71 7.34 64.22C9.22 63.36 10.87 62.57 12.53 61.63L12.53 72.72L29.66 72.72C26.06 78.48 18.79 81.79 3.24 83.66C4.32 85.03 5.76 87.62 6.26 89.28C25.27 86.62 33.34 81.43 37.01 72.72L38.81 72.72L38.81 80.57C38.81 86.47 40.68 88.13 48.31 88.13L60.41 88.13C66.38 88.13 68.18 86.18 68.90 77.76C67.25 77.40 64.66 76.54 63.29 75.53C63.00 81.79 62.50 82.73 59.76 82.73Z"/></svg>
