<svg xmlns="http://www.w3.org/2000/svg" xmlns:xlink="http://www.w3.org/1999/xlink" width="72.00000000000001" height="106.56000000000002"><path fill="red" stroke="red" d="M20.74 39.67C18.29 35.78 13.03 29.81 8.78 25.56L3.67 29.16C7.85 33.62 13.03 39.89 15.26 43.92ZM8.42 86.26C12.67 79.27 17.42 70.56 21.17 62.78L16.27 58.39C12.02 66.89 6.55 76.25 2.74 81.86ZM68.40 52.78C65.52 46.94 59.33 38.38 53.50 31.97L47.74 34.85C50.62 38.02 53.57 41.90 56.16 45.65L32.33 47.09C37.08 40.75 41.90 32.98 45.86 25.06L38.88 23.04C35.06 32.18 28.87 41.54 26.93 44.06C24.98 46.58 23.54 48.17 22.03 48.53C22.75 50.40 23.90 53.57 24.26 54.86C26.78 53.93 30.38 53.64 59.98 51.55C60.91 53.28 61.70 54.79 62.35 56.16ZM55.87 66.24L55.87 79.99L32.98 79.99L32.98 66.24ZM26.50 89.21L32.98 89.21L32.98 86.18L55.87 86.18L55.87 88.99L62.64 88.99L62.64 60.05L26.50 60.05Z"/></svg>
