<svg xmlns="http://www.w3.org/2000/svg" xmlns:xlink="http://www.w3.org/1999/xlink" width="72.00000000000001" height="106.56000000000002"><path fill="red" stroke="red" d="M17.57 68.40L17.57 48.46L31.39 45.65L30.31 39.60L17.57 42.19L17.57 25.99L11.09 25.99L11.09 43.49L2.16 45.29L3.24 51.41L11.09 49.82L11.09 67.75C11.09 70.78 9.14 72.58 7.70 73.30C8.86 74.74 10.30 77.62 10.80 79.27C12.38 77.83 14.90 76.46 31.75 68.83C31.32 67.39 30.89 64.73 30.67 62.86ZM30.10 29.02L30.10 35.35L40.90 35.35C40.54 55.80 39.46 74.30 22.46 83.95C24.12 85.18 26.28 87.55 27.29 89.28C45.50 78.19 47.09 57.82 47.59 35.35L60.62 35.35C59.90 66.17 58.90 77.98 56.74 80.50C55.94 81.58 55.30 81.86 53.93 81.86C52.34 81.86 48.82 81.79 44.78 81.50C45.94 83.45 46.80 86.40 46.87 88.27C50.69 88.49 54.58 88.56 57.02 88.20C59.54 87.84 61.27 87.05 62.93 84.60C65.81 80.78 66.60 68.62 67.54 32.54C67.61 31.61 67.61 29.02 67.61 29.02Z"/></svg>
