<svg xmlns="http://www.w3.org/2000/svg" xmlns:xlink="http://www.w3.org/1999/xlink" width="72.00000000000001" height="106.56000000000002"><path fill="red" stroke="red" d="M16.13 38.81C14.90 35.86 12.46 30.82 10.44 27.00L5.33 28.73C7.27 32.62 9.58 37.87 10.66 40.97ZM39.10 43.20L26.57 43.20L26.57 23.33L20.09 23.33L20.09 43.20L7.13 43.20L7.13 64.01C7.13 71.06 6.84 79.78 3.17 85.97C4.61 86.62 7.20 88.56 8.28 89.64C12.38 82.66 13.10 72.00 13.10 64.15L13.10 48.74L33.05 48.74L33.05 64.94C25.70 66.67 18.36 68.33 13.18 69.26L15.34 74.95C20.59 73.73 26.86 72.00 33.05 70.42L33.05 82.08C33.05 83.09 32.62 83.38 31.54 83.38C30.53 83.45 26.86 83.45 23.26 83.30C24.12 84.82 25.13 87.41 25.49 88.99C30.60 88.99 33.91 88.92 36.07 87.91C38.30 86.98 39.10 85.25 39.10 82.08ZM14.47 57.17C19.22 58.39 25.13 60.70 28.22 62.50L31.10 57.89C27.94 56.09 21.82 54.00 17.14 52.99ZM35.06 41.04C37.22 37.87 39.82 33.19 41.83 28.87L36.58 26.64C35.14 30.38 32.40 35.64 30.38 38.88ZM52.13 31.54L46.01 31.54L46.01 71.21L52.13 71.21ZM58.75 24.12L58.75 80.57C58.75 81.94 58.25 82.30 56.95 82.37C55.66 82.44 51.26 82.44 46.73 82.22C47.66 84.17 48.38 87.19 48.67 88.99C55.22 88.99 59.40 88.85 61.85 87.70C64.30 86.69 65.23 84.82 65.23 80.64L65.23 24.05Z"/></svg>
