<svg xmlns="http://www.w3.org/2000/svg" xmlns:xlink="http://www.w3.org/1999/xlink" width="72.00000000000001" height="106.56000000000002"><path fill="red" stroke="red" d="M38.74 64.08L24.55 65.59L24.55 63.43C28.44 61.06 32.47 58.03 35.50 55.01L31.46 51.84L30.24 52.20L10.08 52.20L10.08 46.66L32.69 46.66L32.69 52.49L38.52 52.49L38.52 41.18L24.84 41.18L24.84 35.42L37.80 35.42L37.80 29.88L24.84 29.88L24.84 23.54L18.50 23.54L18.50 29.88L4.90 29.88L4.90 35.42L18.50 35.42L18.50 41.18L4.39 41.18L4.39 52.49L9.29 52.49L9.29 57.38L24.26 57.38C22.39 58.90 20.16 60.41 18.22 61.49L18.22 66.17C12.60 66.74 7.49 67.18 3.46 67.54L4.03 73.58C8.06 73.08 12.96 72.58 18.22 72.00L18.22 81.00C18.22 81.79 17.93 82.01 16.92 82.01C15.98 82.08 12.60 82.15 9.14 82.01C10.15 83.66 11.16 86.33 11.45 88.13C16.13 88.13 19.37 88.06 21.67 87.05C23.98 86.04 24.55 84.31 24.55 81.14L24.55 71.28C29.23 70.70 34.06 70.27 38.74 69.70ZM53.28 39.38C53.35 34.42 53.42 29.23 53.42 23.90L47.16 23.90C47.16 29.30 47.16 34.42 47.09 39.38L40.25 39.38L40.25 45.65L46.87 45.65C46.15 62.71 43.42 76.18 33.05 84.38C34.63 85.46 36.79 87.70 37.73 89.28C49.10 79.78 52.13 64.51 53.06 45.65L60.62 45.65C60.05 70.13 59.26 79.27 57.67 81.22C57.02 82.22 56.30 82.44 55.15 82.44C53.78 82.44 50.69 82.37 47.30 82.08C48.38 83.88 49.03 86.47 49.10 88.27C52.56 88.42 55.94 88.49 58.10 88.20C60.34 87.91 61.85 87.19 63.22 85.18C65.52 82.15 66.17 72.00 66.89 42.48C66.96 41.62 66.96 39.38 66.96 39.38Z"/></svg>
