<svg xmlns="http://www.w3.org/2000/svg" xmlns:xlink="http://www.w3.org/1999/xlink" width="72.00000000000001" height="106.56000000000002"><path fill="red" stroke="red" d="M50.47 63.07C50.83 60.84 51.12 58.61 51.34 56.23L44.71 56.23C44.50 58.61 44.21 60.84 43.85 63.07L32.33 63.07L32.33 68.69L42.41 68.69C40.18 75.24 35.78 80.64 26.42 84.02C27.79 85.18 29.59 87.62 30.38 89.21C41.76 84.74 46.80 77.54 49.25 68.69L59.69 68.69C58.75 77.11 57.74 80.78 56.52 81.86C55.87 82.51 55.30 82.66 54.22 82.66C52.99 82.66 50.33 82.58 47.52 82.30C48.46 84.02 49.18 86.62 49.32 88.49C52.56 88.63 55.51 88.63 57.31 88.49C59.26 88.20 60.70 87.77 62.14 86.33C64.15 84.17 65.45 78.62 66.67 65.74C66.82 64.80 66.89 63.07 66.89 63.07ZM55.87 36.07C54.36 39.10 52.34 41.76 49.82 43.99C46.87 41.62 44.42 39.02 42.55 36.07ZM68.18 36.07L68.18 30.46L45.50 30.46C46.58 28.58 47.59 26.71 48.46 24.77L42.19 23.04C39.31 29.81 34.20 36.29 28.51 40.39C30.17 41.26 32.76 43.13 34.06 44.21C35.50 42.98 36.94 41.62 38.38 40.03C40.18 42.77 42.34 45.29 44.78 47.59C41.54 49.46 37.87 50.98 33.77 52.13C33.98 51.12 34.20 50.18 34.42 49.25L30.38 47.81L29.38 48.17L24.91 48.17L28.01 44.78C26.50 43.63 24.55 42.26 22.25 40.97C26.50 37.66 30.82 33.19 33.48 28.94L29.16 26.28L28.08 26.50L4.39 26.50L4.39 32.18L23.33 32.18C21.53 34.34 19.37 36.50 17.14 38.23C14.98 37.15 12.67 36.14 10.66 35.35L6.48 39.67C11.66 41.90 17.93 45.29 21.89 48.17L3.53 48.17L3.53 54.00L13.54 54.00C10.94 60.62 6.84 67.46 2.52 71.28C3.67 73.01 5.26 75.74 5.90 77.69C9.58 74.09 12.96 68.26 15.62 62.06L15.62 81.58C15.62 82.44 15.34 82.58 14.47 82.66C13.61 82.73 10.73 82.73 7.85 82.58C8.71 84.38 9.58 87.12 9.79 88.92C14.26 88.92 17.21 88.78 19.30 87.84C21.46 86.69 21.96 84.89 21.96 81.65L21.96 54.00L27.50 54.00C26.57 57.96 25.49 61.99 24.34 64.80L28.94 67.10C30.31 64.01 31.68 59.76 32.90 55.51C33.70 56.59 34.42 57.67 34.78 58.46C40.39 56.74 45.58 54.58 49.97 51.70C54.58 54.79 59.83 57.10 65.59 58.61C66.46 56.88 68.40 54.29 69.77 52.99C64.44 51.84 59.47 50.04 55.22 47.59C58.54 44.42 61.27 40.61 63.22 36.07Z"/></svg>
