<svg xmlns="http://www.w3.org/2000/svg" xmlns:xlink="http://www.w3.org/1999/xlink" width="72.00000000000001" height="106.56000000000002"><path fill="red" stroke="red" d="M68.40 59.18L68.40 52.49L39.53 52.49L39.53 40.39L63.14 40.39L63.14 33.70L39.53 33.70L39.53 23.04L32.47 23.04L32.47 33.70L9.50 33.70L9.50 40.39L32.47 40.39L32.47 52.49L3.89 52.49L3.89 59.18L25.49 59.18C21.10 66.82 15.55 74.02 13.61 75.96C11.52 78.41 9.94 79.99 8.28 80.42C9.14 82.22 10.22 85.61 10.58 87.05C13.68 85.82 18.07 85.61 55.66 82.58C57.02 84.82 58.18 86.90 58.97 88.70L65.59 85.25C62.35 78.84 55.51 69.41 49.10 62.35L43.06 65.09C46.01 68.47 49.03 72.58 51.84 76.61L19.37 78.70C24.34 73.15 29.59 66.31 33.98 59.18Z"/></svg>
