<svg xmlns="http://www.w3.org/2000/svg" xmlns:xlink="http://www.w3.org/1999/xlink" width="72.00000000000001" height="106.56000000000002"><path fill="red" stroke="red" d="M56.81 52.99C54.22 60.05 50.18 65.81 45.14 70.56C40.03 65.66 36.07 59.76 33.34 52.99ZM25.63 32.83L42.77 32.83C41.69 37.58 40.54 42.55 39.31 46.66L25.42 46.66C25.56 43.99 25.63 41.40 25.63 38.95ZM60.98 46.30L59.69 46.66L46.73 46.66C48.24 40.75 49.90 32.90 51.26 26.35L6.62 26.35L6.62 32.83L18.72 32.83L18.72 38.88C18.72 51.12 17.42 68.98 2.66 82.37C4.10 83.59 6.48 86.33 7.49 88.06C19.01 77.54 23.33 64.66 24.84 52.99L26.86 52.99C29.95 61.63 34.27 68.90 39.89 74.88C33.84 79.06 26.78 82.01 19.22 83.74C20.52 85.18 22.32 88.06 23.11 90.00C31.25 87.62 38.74 84.38 45.14 79.70C50.62 83.95 57.10 87.19 64.73 89.35C65.74 87.41 67.75 84.46 69.34 82.94C62.21 81.36 56.02 78.62 50.76 75.10C57.67 68.47 62.86 59.76 65.81 48.31Z"/></svg>
