<svg xmlns="http://www.w3.org/2000/svg" xmlns:xlink="http://www.w3.org/1999/xlink" width="72.00000000000001" height="106.56000000000002"><path fill="red" stroke="red" d="M17.78 35.86L17.78 64.22L10.94 64.22L10.94 35.86ZM23.33 29.66L5.40 29.66L5.40 77.04L10.94 77.04L10.94 70.42L23.33 70.42ZM57.67 59.47L29.95 59.47L29.95 65.88L54.58 65.88C51.84 72.43 48.17 81.07 45.00 87.84L51.84 89.42C55.94 80.35 60.91 68.83 64.01 60.55L58.82 59.18ZM35.28 45.65C39.24 42.26 42.84 38.23 46.01 33.91C49.39 38.02 53.71 42.12 58.18 45.65ZM46.01 22.54C41.40 31.82 32.98 39.74 24.48 44.35C25.34 46.08 26.71 49.90 27.22 51.62C29.59 50.18 31.97 48.46 34.20 46.58L34.20 51.70L58.61 51.70L58.61 46.01C61.06 47.74 63.43 49.39 65.88 50.76C66.46 48.82 67.82 45.65 68.90 43.85C61.78 40.61 54.29 34.42 49.61 28.37C50.26 27.29 50.90 26.14 51.41 24.91Z"/></svg>
