<svg xmlns="http://www.w3.org/2000/svg" xmlns:xlink="http://www.w3.org/1999/xlink" width="72.00000000000001" height="106.56000000000002"><path fill="red" stroke="red" d="M18.29 64.22L11.52 64.22L11.52 35.86L18.29 35.86ZM49.25 46.87C54.43 51.70 60.62 58.39 63.50 62.50L68.62 58.25C65.45 54.00 58.75 47.45 53.64 42.70L49.25 46.08L49.25 42.41C50.98 39.67 52.42 36.86 53.78 33.98L67.32 33.98L67.32 27.72L27.29 27.72L27.29 33.98L46.44 33.98C41.62 43.99 33.62 52.70 24.48 58.18L24.48 29.59L5.40 29.59L5.40 77.04L11.52 77.04L11.52 70.42L24.48 70.42L24.48 58.54C25.99 59.76 28.22 62.28 29.09 63.58C33.91 60.26 38.59 56.09 42.77 51.19L42.77 80.71L25.34 80.71L25.34 86.98L68.54 86.98L68.54 80.71L49.25 80.71Z"/></svg>
