<svg xmlns="http://www.w3.org/2000/svg" xmlns:xlink="http://www.w3.org/1999/xlink" width="72.00000000000001" height="106.56000000000002"><path fill="red" stroke="red" d="M18.36 35.86L18.36 64.08L11.66 64.08L11.66 35.86ZM24.41 29.66L5.54 29.66L5.54 77.04L11.66 77.04L11.66 70.27L24.41 70.27ZM51.05 63.14L51.05 53.86L60.55 53.86L60.55 63.14ZM35.28 63.14L35.28 53.86L44.57 53.86L44.57 63.14ZM44.57 38.81L44.57 47.88L35.28 47.88L35.28 38.81ZM60.55 38.81L60.55 47.88L51.05 47.88L51.05 38.81ZM51.05 32.69L51.05 23.18L44.57 23.18L44.57 32.69L29.23 32.69L29.23 73.01L35.28 73.01L35.28 69.34L44.57 69.34L44.57 89.14L51.05 89.14L51.05 69.34L60.55 69.34L60.55 72.58L66.89 72.58L66.89 32.69Z"/></svg>
