<svg xmlns="http://www.w3.org/2000/svg" xmlns:xlink="http://www.w3.org/1999/xlink" width="72.00000000000001" height="106.56000000000002"><path fill="red" stroke="red" d="M19.51 36.00L19.51 65.09L11.52 65.09L11.52 36.00ZM25.56 71.57L25.56 29.52L5.54 29.52L5.54 77.18L11.52 77.18L11.52 71.57ZM38.30 68.40L55.87 68.40L55.87 80.71L38.30 80.71ZM55.87 33.12L55.87 44.42L38.30 44.42L38.30 33.12ZM55.87 62.35L38.30 62.35L38.30 50.47L55.87 50.47ZM62.64 80.71L62.64 26.93L31.82 26.93L31.82 80.71L24.12 80.71L24.12 86.90L69.05 86.90L69.05 80.71Z"/></svg>
