<svg xmlns="http://www.w3.org/2000/svg" xmlns:xlink="http://www.w3.org/1999/xlink" width="72.00000000000001" height="106.56000000000002"><path fill="red" stroke="red" d="M17.21 64.22L10.44 64.22L10.44 35.86L17.21 35.86ZM46.08 36.58L55.15 36.58C53.42 39.17 51.48 41.54 49.54 43.85L46.08 43.85ZM68.47 68.83L51.41 68.83L51.41 66.24C55.73 63.72 60.26 60.62 63.58 57.46L59.69 54.29L58.39 54.65L47.66 54.65C49.39 53.06 50.98 51.41 52.56 49.68L68.18 49.68L68.18 43.85L57.60 43.85C61.42 38.95 64.80 33.55 67.75 27.79L61.56 25.63C59.90 29.16 57.96 32.47 55.80 35.64L55.80 30.89L46.08 30.89L46.08 23.11L39.60 23.11L39.60 30.89L28.80 30.89L28.80 36.58L39.60 36.58L39.60 43.85L25.49 43.85L25.49 49.68L43.78 49.68C37.66 55.22 30.74 59.83 23.18 63.36L23.18 29.66L4.54 29.66L4.54 77.04L10.44 77.04L10.44 70.42L23.18 70.42L23.18 64.66C24.48 66.02 26.06 68.04 26.86 69.12C31.82 66.60 36.65 63.58 41.11 60.12L51.91 60.12C49.75 61.78 47.16 63.29 44.93 64.44L44.93 68.83L28.37 68.83L28.37 74.59L44.93 74.59L44.93 82.08C44.93 82.94 44.64 83.16 43.63 83.16C42.62 83.23 39.02 83.23 35.50 83.16C36.36 84.82 37.37 87.41 37.66 89.21C42.55 89.21 46.01 89.14 48.38 88.13C50.76 87.26 51.41 85.54 51.41 82.30L51.41 74.59L68.47 74.59Z"/></svg>
