<svg xmlns="http://www.w3.org/2000/svg" xmlns:xlink="http://www.w3.org/1999/xlink" width="72.00000000000001" height="106.56000000000002"><path fill="red" stroke="red" d="M44.57 61.85C43.42 66.74 39.89 71.64 34.78 74.30C35.78 75.17 37.22 76.90 37.94 77.90C40.97 76.25 43.63 73.73 45.65 70.92C48.46 73.30 51.55 76.03 53.21 77.83L56.59 74.45C54.65 72.50 51.05 69.55 47.88 67.10C48.60 65.74 49.18 64.22 49.61 62.71ZM36.43 78.84C34.42 78.84 34.06 78.12 34.06 76.10L34.06 64.22L32.62 64.22C33.34 63.29 34.06 62.28 34.85 61.27L60.91 61.27C60.19 75.38 59.26 80.93 58.03 82.37C57.53 83.02 56.95 83.16 56.02 83.23C55.80 81.86 55.66 79.78 55.51 78.41C54.14 78.77 51.34 78.84 49.68 78.84ZM17.86 65.09L11.23 65.09L11.23 36.00L17.86 36.00ZM35.06 41.11L57.02 41.11L57.02 46.22L35.06 46.22ZM35.06 31.39L57.02 31.39L57.02 36.29L35.06 36.29ZM38.52 55.66C39.38 54.22 40.18 52.78 40.82 51.34L63.22 51.34L63.22 26.35L29.16 26.35L29.16 51.34L33.77 51.34C31.10 56.16 27.43 60.84 23.62 64.30L23.62 29.52L5.26 29.52L5.26 77.18L11.23 77.18L11.23 71.57L23.62 71.57L23.62 68.11C24.55 69.41 25.49 70.70 25.92 71.50C26.71 70.70 27.58 69.98 28.44 69.05L28.44 75.96C28.44 82.15 30.17 84.17 36.58 84.17L49.39 84.17C50.04 85.68 50.40 87.55 50.47 88.99C53.78 89.14 56.88 89.14 58.68 88.92C60.70 88.70 62.06 88.06 63.29 86.47C65.38 84.10 66.24 76.97 67.10 58.32C67.25 57.46 67.25 55.66 67.25 55.66Z"/></svg>
