<svg xmlns="http://www.w3.org/2000/svg" xmlns:xlink="http://www.w3.org/1999/xlink" width="72.00000000000001" height="106.56000000000002"><path fill="red" stroke="red" d="M43.20 37.22L27.86 37.22L27.86 42.05L65.59 42.05L65.59 37.22L49.90 37.22L49.90 33.41L67.82 33.41L67.82 28.58L49.90 28.58L49.90 23.11L43.20 23.11L43.20 28.58L25.63 28.58L25.63 33.41L43.20 33.41ZM17.57 35.86L17.57 64.22L11.30 64.22L11.30 35.86ZM23.26 29.66L5.40 29.66L5.40 77.04L11.30 77.04L11.30 70.42L23.26 70.42ZM58.03 76.75L58.03 82.58L35.64 82.58L35.64 76.75ZM29.30 89.28L35.64 89.28L35.64 87.26L58.03 87.26L58.03 89.06L64.66 89.06L64.66 72.14L29.30 72.14ZM53.93 58.10C53.21 59.98 52.13 62.28 51.19 64.01L52.78 64.37L39.46 64.37L41.26 63.86C40.75 62.28 39.60 59.98 38.38 58.10ZM36.07 49.25L57.10 49.25L57.10 53.71L36.07 53.71ZM56.88 64.37C57.96 62.78 59.11 60.77 60.34 58.54L58.18 58.10L63.58 58.10L63.58 44.86L29.88 44.86L29.88 58.10L35.50 58.10L32.76 58.82C33.77 60.55 34.78 62.64 35.35 64.37L24.91 64.37L24.91 69.34L68.98 69.34L68.98 64.37Z"/></svg>
