<svg xmlns="http://www.w3.org/2000/svg" xmlns:xlink="http://www.w3.org/1999/xlink" width="72.00000000000001" height="106.56000000000002"><path fill="red" stroke="red" d="M61.70 48.38L51.48 48.38L51.48 42.84L61.70 42.84ZM61.70 58.82L51.48 58.82L51.48 53.21L61.70 53.21ZM61.70 69.26L51.48 69.26L51.48 63.58L61.70 63.58ZM46.44 37.80L46.44 74.30L66.89 74.30L66.89 37.80L58.18 37.80C58.61 36.14 59.11 34.42 59.62 32.62L68.54 32.62L68.54 27.22L44.57 27.22L44.57 32.62L53.42 32.62C53.21 34.34 52.99 36.07 52.78 37.80ZM14.98 35.93L14.98 67.39L9.79 67.39L9.79 35.93ZM20.02 30.10L5.04 30.10L5.04 78.70L9.79 78.70L9.79 73.22L20.02 73.22ZM35.35 76.61L35.35 65.02L43.49 65.02L43.49 42.84L39.31 42.84L39.31 59.62L35.35 59.62L35.35 37.80L43.78 37.80L43.78 32.54L35.35 32.54L35.35 23.11L30.17 23.11L30.17 32.54L21.60 32.54L21.60 37.80L30.17 37.80L30.17 59.62L26.78 59.62L26.78 42.84L22.68 42.84L22.68 65.02L30.17 65.02L30.17 75.96C30.17 78.84 28.44 80.50 27.29 81.14C28.22 82.22 29.52 84.53 29.95 85.82C31.18 84.60 33.19 83.52 45.14 78.26C44.71 77.04 44.21 74.66 44.06 73.08ZM50.04 75.17C48.24 78.70 44.42 83.38 40.82 85.90C42.12 86.76 44.14 88.20 45.22 89.21C48.60 86.47 52.63 81.65 55.22 77.62ZM57.96 77.33C60.48 80.86 63.14 85.68 64.15 88.78L69.26 86.33C68.18 83.23 65.38 78.55 62.78 75.10Z"/></svg>
