<svg xmlns="http://www.w3.org/2000/svg" xmlns:xlink="http://www.w3.org/1999/xlink" width="72.00000000000001" height="106.56000000000002"><path fill="red" stroke="red" d="M60.55 41.54C59.47 46.08 58.18 50.62 56.88 53.86L62.64 55.80C64.94 50.76 67.18 43.13 68.90 36.29L63.86 34.85L62.71 35.14L40.32 35.14C41.33 31.68 42.19 28.01 42.98 24.34L36.36 23.18C34.27 34.78 30.31 46.01 24.55 52.99C26.14 53.78 29.09 55.58 30.38 56.59C33.34 52.56 35.93 47.38 38.09 41.54ZM26.06 61.70L18.22 64.94L18.22 46.37L26.14 46.37L26.14 40.03L18.22 40.03L18.22 24.05L11.95 24.05L11.95 40.03L3.53 40.03L3.53 46.37L11.95 46.37L11.95 67.61C8.42 69.05 5.18 70.34 2.59 71.28L5.26 77.98C11.66 75.10 19.94 71.35 27.50 67.68ZM49.82 47.16L43.34 47.16L43.34 54.14C43.34 63.22 41.62 75.67 23.54 84.24C24.98 85.39 27.22 87.70 28.08 89.28C39.53 83.59 45.00 76.32 47.59 69.19C51.12 78.41 56.59 85.32 65.23 88.92C66.10 87.05 68.04 84.53 69.48 83.23C58.32 79.34 52.42 69.26 49.82 56.45C49.82 55.66 49.82 55.01 49.82 54.29Z"/></svg>
