<svg xmlns="http://www.w3.org/2000/svg" xmlns:xlink="http://www.w3.org/1999/xlink" width="72.00000000000001" height="106.56000000000002"><path fill="red" stroke="red" d="M22.46 63.94C20.45 64.94 18.50 65.88 16.49 66.89L16.49 46.73L22.61 46.73L22.61 40.39L16.49 40.39L16.49 24.05L10.22 24.05L10.22 40.39L3.17 40.39L3.17 46.73L10.22 46.73L10.22 69.91C7.42 71.28 4.82 72.43 2.66 73.37L5.11 80.06C10.87 77.18 17.78 73.44 24.26 69.84ZM46.44 69.05C37.30 71.42 27.79 73.73 21.46 75.10L23.11 81.43C29.88 79.49 38.81 77.11 47.09 74.74ZM38.59 61.27L30.96 61.27L30.96 50.62L38.59 50.62ZM25.85 45.36L25.85 66.53L43.85 66.53L43.85 45.36ZM61.06 45.36C59.62 51.34 57.82 56.81 55.44 61.85C54.65 55.37 54.00 47.74 53.71 39.46L68.26 39.46L68.26 33.41L64.73 33.41L67.90 30.46C66.10 28.30 62.42 25.27 59.47 23.26L55.66 26.57C58.32 28.51 61.42 31.32 63.22 33.41L53.50 33.41C53.50 30.10 53.42 26.71 53.50 23.26L47.09 23.26C47.09 26.64 47.16 30.02 47.23 33.41L23.69 33.41L23.69 39.46L47.45 39.46C47.88 51.12 48.82 61.99 50.47 70.56C46.58 76.18 41.98 80.86 36.36 84.38C37.73 85.32 40.18 87.55 41.18 88.63C45.36 85.68 49.03 82.15 52.27 78.05C54.58 84.96 57.60 89.21 61.78 89.21C66.67 89.21 68.47 86.33 69.48 76.75C68.04 76.10 66.02 74.66 64.73 73.15C64.51 80.14 63.86 82.87 62.64 82.87C60.48 82.87 58.46 78.55 57.02 71.35C61.34 64.30 64.66 55.94 67.03 46.51Z"/></svg>
