<svg xmlns="http://www.w3.org/2000/svg" xmlns:xlink="http://www.w3.org/1999/xlink" width="72.00000000000001" height="106.56000000000002"><path fill="red" stroke="red" d="M39.24 70.92L39.24 65.59L32.90 65.59L32.90 70.92L20.88 70.92C23.83 68.69 26.42 66.17 28.37 63.58L43.92 63.58C45.94 66.17 48.60 68.76 51.48 70.92ZM29.09 53.64L43.13 53.64L43.13 57.96L29.09 57.96ZM29.09 44.64L43.13 44.64L43.13 48.82L29.09 48.82ZM11.81 39.74L11.81 33.84L59.98 33.84L59.98 39.74L49.54 39.74L49.54 35.78L43.13 35.78L43.13 39.74L29.09 39.74L29.09 35.78L22.75 35.78L22.75 39.74ZM67.61 63.58L67.61 57.96L49.54 57.96L49.54 53.64L59.40 53.64L59.40 48.82L49.54 48.82L49.54 44.64L60.26 44.64L60.26 40.90L66.82 40.90L66.82 28.08L41.33 28.08C40.39 26.21 39.10 24.05 38.02 22.46L30.96 23.83C31.61 25.13 32.47 26.57 33.19 28.08L5.26 28.08L5.26 40.90L11.66 40.90L11.66 44.64L22.75 44.64L22.75 48.82L12.60 48.82L12.60 53.64L22.75 53.64L22.75 57.96L4.61 57.96L4.61 63.58L20.66 63.58C16.13 67.75 9.50 71.35 3.02 73.30C4.39 74.52 6.34 76.97 7.27 78.41C11.52 76.97 15.77 74.66 19.58 71.86L19.58 76.18L32.90 76.18L32.90 82.08L8.42 82.08L8.42 87.62L63.94 87.62L63.94 82.08L39.24 82.08L39.24 76.18L52.78 76.18L52.78 71.86C56.52 74.45 60.77 76.68 64.94 78.05C65.88 76.39 67.82 73.94 69.26 72.65C62.78 70.92 56.09 67.61 51.48 63.58Z"/></svg>
