<svg xmlns="http://www.w3.org/2000/svg" xmlns:xlink="http://www.w3.org/1999/xlink" width="72.00000000000001" height="106.56000000000002"><path fill="red" stroke="red" d="M24.98 33.98L24.98 38.45L14.69 38.45L14.69 33.98ZM41.76 38.45L31.10 38.45L31.10 33.98L41.76 33.98ZM58.75 43.06L58.75 48.10L48.02 48.10L48.02 43.06ZM31.10 43.06L41.76 43.06L41.76 48.10L31.10 48.10ZM14.69 43.06L24.98 43.06L24.98 48.10L14.69 48.10ZM19.80 52.63L19.80 61.92C19.80 64.37 18.50 64.94 17.42 65.16C18.07 66.10 18.94 68.47 19.15 69.77C20.59 69.12 22.82 68.69 40.10 66.82C40.03 65.81 40.03 64.08 40.10 62.86L25.85 64.15L25.85 59.90L40.32 59.90L40.32 55.87L25.85 55.87L25.85 52.63L42.84 52.63L42.84 63.00C42.84 68.18 44.42 69.55 51.19 69.55L61.56 69.55C66.17 69.55 67.75 68.33 68.40 63.79C66.82 63.58 64.37 62.78 63.29 62.06C63.00 64.51 62.57 64.94 60.84 64.94L51.98 64.94C49.39 64.94 48.96 64.66 48.96 63.00L48.96 60.19L65.38 60.19L65.38 56.23L48.96 56.23L48.96 52.63L65.02 52.63L65.02 38.45L48.02 38.45L48.02 33.98L68.18 33.98L68.18 28.44L42.19 28.44C41.69 26.64 40.97 24.41 40.25 22.68L33.48 23.98C33.98 25.34 34.49 26.86 34.85 28.44L8.50 28.44L8.50 49.75C8.50 60.34 7.99 75.24 2.38 85.54C3.74 86.11 6.48 88.20 7.49 89.35C13.18 79.13 14.47 63.94 14.69 52.63ZM42.77 77.69L63.14 77.69L63.14 72.94L42.77 72.94L42.77 68.26L36.36 68.26L36.36 72.94L17.71 72.94L17.71 77.69L36.36 77.69L36.36 82.66L12.46 82.66L12.46 87.77L68.47 87.77L68.47 82.66L42.77 82.66Z"/></svg>
