<svg xmlns="http://www.w3.org/2000/svg" xmlns:xlink="http://www.w3.org/1999/xlink" width="72.00000000000001" height="106.56000000000002"><path fill="red" stroke="red" d="M25.42 40.97C24.84 42.62 23.90 44.78 23.04 46.51L16.34 46.51C15.91 44.86 14.90 42.77 13.90 40.97ZM39.10 75.38L61.13 75.38L61.13 69.84L39.10 69.84L39.10 65.02L38.09 65.02C42.26 61.63 45.14 57.60 46.87 53.42C48.89 54.94 50.76 56.45 51.98 57.82L55.73 53.28C54.07 51.62 51.55 49.68 48.74 47.88C49.61 44.14 49.97 40.54 50.11 37.15L56.02 37.15C56.16 56.02 56.66 66.53 64.08 66.53C68.18 66.53 69.26 63.58 69.84 56.02C68.62 55.15 67.10 53.57 65.95 52.20C65.88 57.10 65.52 60.77 64.58 60.77C61.70 60.77 61.92 50.26 62.06 31.61L50.11 31.61L50.11 23.40L44.42 23.40L44.42 31.61L36.50 31.61L36.50 37.15L44.35 37.15C44.28 39.53 44.06 42.05 43.49 44.64C41.76 43.70 39.89 42.70 38.16 41.90L34.78 46.01C37.15 47.16 39.53 48.53 41.98 49.97C40.61 53.28 38.52 56.52 35.42 59.47L35.42 55.58L22.61 55.58L22.61 51.12L33.62 51.12L33.62 46.51L28.15 46.51C28.94 45.14 29.81 43.63 30.60 41.98L27.14 40.97L35.57 40.97L35.57 36.29L22.61 36.29L22.61 32.40L32.98 32.40L32.98 27.79L22.61 27.79L22.61 23.11L16.49 23.11L16.49 27.79L6.19 27.79L6.19 32.40L16.49 32.40L16.49 36.29L3.17 36.29L3.17 40.97L12.67 40.97L9.07 42.05C9.86 43.34 10.58 45.00 11.16 46.51L5.69 46.51L5.69 51.12L16.49 51.12L16.49 55.58L3.67 55.58L3.67 60.19L16.49 60.19L16.49 66.82L22.61 66.82L22.61 60.19L34.63 60.19C33.91 60.91 33.05 61.56 32.11 62.14C33.05 62.78 34.13 64.01 34.99 65.02L32.54 65.02L32.54 69.84L10.66 69.84L10.66 75.38L32.54 75.38L32.54 81.86L4.10 81.86L4.10 87.55L68.18 87.55L68.18 81.86L39.10 81.86Z"/></svg>
