<svg xmlns="http://www.w3.org/2000/svg" xmlns:xlink="http://www.w3.org/1999/xlink" width="72.00000000000001" height="106.56000000000002"><path fill="red" stroke="red" d="M61.27 62.93C59.69 66.67 57.38 69.91 54.72 72.65C52.78 70.42 49.90 67.82 47.16 65.66C48.17 64.73 49.10 63.86 50.04 62.93ZM58.75 33.84C57.24 36.86 55.30 39.67 53.06 42.05C51.19 40.25 48.74 38.23 46.44 36.43C47.23 35.57 48.02 34.78 48.74 33.84ZM28.51 37.37L22.68 37.37L22.68 31.68L28.51 31.68ZM28.51 48.31L22.68 48.31L22.68 42.55L28.51 42.55ZM11.59 42.55L17.64 42.55L17.64 48.31L11.59 48.31ZM11.59 31.68L17.64 31.68L17.64 37.37L11.59 37.37ZM65.38 57.17L64.15 57.38L54.43 57.38C55.58 55.66 56.59 53.93 57.46 52.27L51.48 51.19C58.61 46.37 64.15 39.53 67.25 29.95L62.93 28.22L61.70 28.44L52.56 28.44C53.42 27.00 54.14 25.63 54.86 24.19L48.60 23.11C46.22 28.37 41.40 34.49 34.20 38.95L34.20 26.28L6.05 26.28L6.05 53.71L16.85 53.71L16.85 59.04L4.32 59.04L4.32 64.94L14.98 64.94C11.88 70.56 7.06 76.68 2.59 80.06C3.60 81.79 5.04 84.67 5.69 86.54C9.72 83.30 13.61 77.83 16.85 72.22L16.85 89.21L23.40 89.21L23.40 70.63C26.42 74.16 29.95 78.34 31.54 80.71L35.50 75.24C33.91 73.66 28.22 68.11 24.62 64.94L35.57 64.94L35.57 59.04L23.40 59.04L23.40 53.71L34.20 53.71L34.20 39.24C35.64 40.10 37.51 41.98 38.45 43.20C39.82 42.34 41.18 41.33 42.41 40.25C44.64 42.05 46.94 44.14 48.60 46.01C44.57 48.96 39.82 51.19 34.99 52.49C36.14 53.71 37.73 55.87 38.59 57.38C42.98 55.87 47.09 54.00 50.90 51.55C48.02 57.24 42.48 63.43 34.13 67.82C35.50 68.69 37.37 70.85 38.23 72.22C39.89 71.35 41.33 70.27 42.84 69.26C45.50 71.64 48.24 74.45 50.11 76.68C45.29 80.06 39.53 82.44 33.19 83.88C34.42 85.25 36.00 87.84 36.79 89.50C52.42 85.25 64.80 76.39 69.62 58.75Z"/></svg>
