<svg xmlns="http://www.w3.org/2000/svg" xmlns:xlink="http://www.w3.org/1999/xlink" width="72.00000000000001" height="106.56000000000002"><path fill="red" stroke="red" d="M57.02 42.12L45.72 42.12L45.72 31.46L57.02 31.46ZM62.93 26.42L40.10 26.42L40.10 47.16L62.93 47.16ZM19.58 43.92C19.51 50.47 18.86 58.25 15.98 65.88C14.11 64.08 12.10 62.28 10.22 60.62C11.30 55.87 12.53 50.18 13.54 44.28ZM28.08 78.62C26.35 76.25 23.62 73.30 20.45 70.27C24.34 60.98 25.13 51.48 25.20 43.49L28.15 43.27L28.15 37.51L25.20 37.66L25.20 33.19L19.58 33.19L19.58 38.02L14.47 38.30C15.19 33.19 15.84 28.22 16.27 23.69L10.58 23.47C10.22 28.15 9.58 33.34 8.78 38.59C6.55 38.66 4.54 38.74 2.66 38.81L3.31 44.93L7.78 44.64C6.62 51.48 5.26 57.82 3.96 62.57C6.91 65.23 10.22 68.40 13.39 71.57C10.87 76.25 7.27 80.64 2.30 84.67C3.67 85.54 5.69 87.48 6.62 88.78C11.38 84.82 14.90 80.42 17.57 75.96C20.30 78.84 22.61 81.58 24.19 83.81ZM47.16 77.47C52.99 81.00 61.06 86.26 65.02 89.35L68.98 84.46C64.80 81.43 56.74 76.54 50.98 73.15ZM59.47 56.88L59.47 65.30L49.39 65.30C49.82 62.71 50.11 59.83 50.26 56.88ZM65.02 65.30L65.02 51.05L36.22 51.05L36.22 30.02L30.31 30.02L30.31 56.88L43.78 56.88C43.63 59.90 43.34 62.78 42.91 65.30L27.58 65.30L27.58 71.14L41.33 71.14C38.88 76.97 34.42 81.14 25.20 83.88C26.57 85.18 28.30 87.70 29.02 89.35C40.46 85.54 45.65 79.63 48.17 71.14L68.98 71.14L68.98 65.30Z"/></svg>
