<svg xmlns="http://www.w3.org/2000/svg" xmlns:xlink="http://www.w3.org/1999/xlink" width="72.00000000000001" height="106.56000000000002"><path fill="red" stroke="red" d="M19.58 43.92C19.51 50.47 18.86 58.25 15.98 65.88C14.11 64.08 12.10 62.28 10.22 60.62C11.30 55.87 12.53 50.18 13.54 44.28ZM28.08 78.62C26.35 76.25 23.62 73.30 20.45 70.27C24.34 60.98 25.13 51.48 25.20 43.56L28.44 43.27L28.44 37.51L25.20 37.73L25.20 33.19L19.58 33.19L19.58 38.02L14.47 38.30C15.19 33.19 15.84 28.22 16.27 23.69L10.58 23.47C10.22 28.15 9.58 33.34 8.78 38.59C6.55 38.66 4.54 38.74 2.66 38.81L3.31 44.93L7.78 44.64C6.62 51.41 5.26 57.74 3.96 62.50C6.91 65.16 10.22 68.33 13.39 71.57C10.87 76.18 7.27 80.64 2.30 84.67C3.67 85.46 5.69 87.48 6.62 88.70C11.38 84.82 14.90 80.42 17.57 75.89C20.30 78.77 22.61 81.58 24.19 83.81ZM38.38 65.09C43.49 66.31 50.33 68.40 53.86 69.98L56.16 65.66C52.49 64.22 45.72 62.28 40.68 61.34ZM37.37 59.62L57.89 59.62L57.89 70.20C50.11 72.00 42.34 73.80 36.79 74.81C37.22 71.64 37.37 68.54 37.37 65.88ZM64.22 54.58L31.32 54.58L31.32 65.81C31.32 71.78 30.82 79.99 26.42 86.04C27.79 86.69 30.46 88.56 31.54 89.71C34.49 85.61 36.00 80.42 36.72 75.24L38.59 80.21C44.06 78.77 51.05 77.11 57.89 75.31L57.89 82.37C57.89 83.09 57.60 83.38 56.74 83.45C55.80 83.45 52.92 83.45 49.97 83.38C50.76 84.89 51.62 87.34 51.84 88.99C56.38 88.99 59.47 88.92 61.63 87.91C63.65 87.05 64.22 85.39 64.22 82.37ZM50.83 41.11L64.37 41.11L64.37 36.22L50.83 36.22L50.83 30.74L61.20 30.74C60.77 32.26 60.34 33.70 59.90 34.85L65.02 36.07C66.17 33.62 67.39 29.74 68.33 26.35L64.08 25.34L63.14 25.56L28.15 25.56L28.15 30.74L44.78 30.74L44.78 45.14C42.19 44.06 40.10 42.34 38.59 39.46C39.10 37.44 39.46 35.14 39.67 32.83L33.77 32.40C33.05 40.46 30.89 46.73 25.70 50.69C27.07 51.55 29.38 53.64 30.31 54.65C33.19 52.20 35.28 49.10 36.86 45.29C41.04 50.62 47.16 51.91 55.73 51.91L67.68 51.91C67.90 50.40 68.69 47.88 69.48 46.58C66.82 46.66 57.89 46.66 56.09 46.66C54.22 46.66 52.49 46.58 50.83 46.44Z"/></svg>
