<svg xmlns="http://www.w3.org/2000/svg" xmlns:xlink="http://www.w3.org/1999/xlink" width="72.00000000000001" height="106.56000000000002"><path fill="red" stroke="red" d="M66.10 28.37L52.34 28.37L52.34 33.62L60.62 33.62L60.62 39.60L53.21 39.60L53.21 44.86L60.62 44.86L60.62 51.41L52.34 51.41L52.34 56.66L66.10 56.66ZM29.23 56.66L42.34 56.66L42.34 51.34L34.92 51.34L34.92 44.86L41.69 44.86L41.69 39.60L34.92 39.60L34.92 33.34C37.87 32.40 41.33 31.10 44.28 29.74L40.32 25.13C37.44 26.71 32.47 29.30 29.23 30.53ZM57.60 67.03C55.15 70.49 51.77 73.37 47.81 75.82C43.99 73.30 40.75 70.34 38.38 67.03ZM19.22 43.92C19.15 50.40 18.50 58.18 15.77 65.66C13.90 64.01 12.02 62.35 10.22 60.70C11.30 55.87 12.53 50.18 13.54 44.28ZM62.64 61.27L61.56 61.49L50.62 61.49L50.62 23.18L44.42 23.18L44.42 61.49L27.86 61.49L27.86 67.03L34.99 67.03L32.18 68.04C34.70 72.14 37.94 75.74 41.90 78.84C36.58 81.07 30.60 82.66 24.41 83.59L28.08 78.70C26.28 76.25 23.40 73.15 20.23 69.98C23.98 60.84 24.70 51.41 24.77 43.49L27.79 43.27L27.79 37.58L24.77 37.73L24.77 33.26L19.22 33.26L19.22 38.02L14.47 38.30C15.19 33.26 15.84 28.22 16.27 23.69L10.58 23.47C10.22 28.15 9.58 33.34 8.78 38.59C6.55 38.66 4.54 38.74 2.66 38.81L3.31 44.93L7.78 44.64C6.62 51.41 5.26 57.82 3.96 62.57C6.84 65.16 10.08 68.26 13.18 71.35C10.66 76.03 7.13 80.57 2.16 84.67C3.60 85.54 5.62 87.41 6.48 88.78C11.23 84.74 14.83 80.28 17.42 75.74C20.23 78.70 22.61 81.50 24.19 83.81L24.26 83.66C25.42 85.18 26.78 87.77 27.29 89.35C34.56 87.91 41.54 85.82 47.66 82.73C52.78 85.68 58.75 87.84 65.09 89.28C66.02 87.55 67.82 85.03 69.26 83.66C63.65 82.73 58.39 81.14 53.71 78.98C59.33 75.02 63.86 69.77 66.74 63.14Z"/></svg>
