<svg xmlns="http://www.w3.org/2000/svg" xmlns:xlink="http://www.w3.org/1999/xlink" width="72.00000000000001" height="106.56000000000002"><path fill="red" stroke="red" d="M11.74 34.27L60.12 34.27L60.12 42.55L66.82 42.55L66.82 28.80L40.39 28.80C39.60 27.00 38.45 24.70 37.30 23.04L30.67 24.34C31.46 25.63 32.26 27.22 32.90 28.80L5.33 28.80L5.33 42.55L11.74 42.55ZM49.18 47.09L22.46 47.09L22.46 42.91L49.18 42.91ZM49.18 55.58L22.46 55.58L22.46 51.26L49.18 51.26ZM55.73 38.45L16.13 38.45L16.13 59.98L55.73 59.98ZM43.92 71.71C41.69 73.94 39.02 75.82 35.93 77.33C31.97 76.54 27.86 75.74 23.83 75.02C24.70 73.94 25.70 72.86 26.71 71.71ZM67.39 71.71L67.39 66.46L55.08 66.46C55.30 65.95 55.58 65.38 55.80 64.87L49.61 63.07C49.10 64.30 48.53 65.38 47.88 66.46L30.89 66.46C32.04 64.87 33.19 63.36 34.13 61.78L27.72 59.98C26.50 61.99 24.98 64.30 23.33 66.46L4.18 66.46L4.18 71.71L19.01 71.71C17.14 73.94 15.12 76.03 13.32 77.76C18.14 78.62 22.97 79.56 27.58 80.50C21.24 82.22 13.68 83.30 4.61 83.88C5.69 85.25 6.77 87.55 7.20 89.28C19.94 88.13 30.02 86.26 37.87 82.73C47.23 84.82 55.22 87.12 61.06 89.21L66.67 85.03C60.77 83.16 52.92 81.07 44.28 79.13C47.30 77.04 49.82 74.59 51.91 71.71Z"/></svg>
