<svg xmlns="http://www.w3.org/2000/svg" xmlns:xlink="http://www.w3.org/1999/xlink" width="72.00000000000001" height="106.56000000000002"><path fill="red" stroke="red" d="M52.56 41.76L11.45 41.76L11.45 46.37L59.11 46.37L59.11 38.16L64.58 38.16L64.58 33.84L59.11 33.84L59.11 25.70L11.81 25.70L11.81 30.24L52.56 30.24L52.56 33.84L7.13 33.84L7.13 38.16L52.56 38.16ZM5.47 66.10C13.10 65.66 23.76 64.94 34.06 64.15L34.06 59.18L22.46 59.98L22.46 54.22L32.76 54.22L32.76 49.39L6.26 49.39L6.26 54.22L16.20 54.22L16.20 60.34C11.95 60.55 8.14 60.77 4.97 60.91ZM43.42 53.93L57.89 53.93L57.89 59.98L43.42 59.98ZM68.47 68.54L54.00 68.54L54.00 64.51L64.51 64.51L64.51 49.39L37.15 49.39L37.15 64.51L47.38 64.51L47.38 68.54L3.67 68.54L3.67 74.09L18.43 74.09L15.55 76.54C19.44 78.98 24.12 82.66 26.21 85.32L31.03 81.14C29.09 78.98 25.56 76.25 22.25 74.09L47.38 74.09L47.38 82.08C47.38 83.09 47.09 83.30 45.86 83.38C44.71 83.38 40.54 83.45 36.29 83.30C37.22 84.89 38.23 87.41 38.52 89.21C44.35 89.21 48.17 89.14 50.76 88.20C53.28 87.34 54.00 85.61 54.00 82.30L54.00 74.09L68.47 74.09Z"/></svg>
