<svg xmlns="http://www.w3.org/2000/svg" xmlns:xlink="http://www.w3.org/1999/xlink" width="72.00000000000001" height="106.56000000000002"><path fill="red" stroke="red" d="M22.75 73.15L19.01 73.15L19.01 24.26L13.46 24.26L13.46 73.15L9.72 73.15L9.72 35.06L4.97 35.06L4.97 78.98L22.75 78.98L22.75 81.86L27.36 81.86L27.36 35.06L22.75 35.06ZM33.91 68.04C36.72 71.78 40.39 76.97 41.98 80.06L47.45 76.75C45.65 73.73 41.90 68.76 38.95 65.23ZM59.76 52.49L53.28 52.49L53.28 58.10L30.31 58.10L30.31 64.08L53.28 64.08L53.28 81.79C53.28 82.80 52.92 83.02 51.84 83.02C50.76 83.09 47.02 83.16 43.20 83.02C44.06 84.67 45.07 87.34 45.29 89.14C50.76 89.14 54.36 88.99 56.66 88.06C59.04 87.05 59.76 85.32 59.76 81.94L59.76 64.08L68.83 64.08L68.83 58.10L59.76 58.10ZM51.91 30.89L51.91 23.11L45.36 23.11L45.36 30.89L29.88 30.89L29.88 36.94L45.36 36.94L45.36 44.42L32.33 44.42L32.33 50.33L65.09 50.33L65.09 44.42L51.91 44.42L51.91 36.94L68.83 36.94L68.83 30.89Z"/></svg>
