<svg xmlns="http://www.w3.org/2000/svg" xmlns:xlink="http://www.w3.org/1999/xlink" width="72.00000000000001" height="106.56000000000002"><path fill="red" stroke="red" d="M64.44 24.91L57.38 24.91L57.38 31.61L39.31 31.61L39.31 23.04L32.47 23.04L32.47 31.61L13.97 31.61L13.97 24.91L7.20 24.91L7.20 36.50L64.44 36.50ZM11.95 60.41L24.70 60.41L24.70 63.72L11.95 63.72ZM23.98 46.01L23.98 49.46L11.95 49.46L11.95 46.01ZM21.17 75.89L30.24 75.89L30.24 71.71L21.17 71.71L21.17 68.11L30.38 68.11L30.38 56.09L11.95 56.09L11.95 53.57L29.52 53.57L29.52 41.90L19.08 41.90C19.51 40.68 20.09 39.31 20.66 37.80L13.68 37.15C13.46 38.52 12.96 40.32 12.53 41.90L6.34 41.90L6.34 68.11L15.62 68.11L15.62 81.00L11.38 81.50L11.38 70.63L6.19 70.63L6.19 82.08L3.24 82.44L3.89 87.77C11.52 86.76 22.03 85.25 32.04 83.95L31.90 78.98C28.30 79.42 24.70 79.92 21.17 80.35ZM46.80 65.09L46.80 69.19L38.09 69.19L38.09 65.09ZM61.99 69.19L52.92 69.19L52.92 65.09L61.99 65.09ZM32.62 69.98L34.92 69.98L34.92 85.46L40.61 85.46L40.61 73.87L46.80 73.87L46.80 89.14L52.92 89.14L52.92 73.87L59.40 73.87L59.40 80.42C59.40 81.00 59.26 81.14 58.82 81.14C58.25 81.14 56.88 81.14 55.37 81.07C55.94 82.37 56.66 84.17 56.81 85.54C59.76 85.54 61.85 85.54 63.36 84.74C64.94 84.02 65.30 82.80 65.30 80.50L65.30 69.98L67.68 69.98L67.68 60.55L32.62 60.55ZM63.72 46.73L63.72 39.53L35.71 39.53L35.71 43.85L57.60 43.85L57.60 46.73L31.39 46.73L31.39 50.90L57.60 50.90L57.60 53.78L35.50 53.78L35.50 58.10L63.72 58.10L63.72 50.90L69.12 50.90L69.12 46.73Z"/></svg>
