<svg xmlns="http://www.w3.org/2000/svg" xmlns:xlink="http://www.w3.org/1999/xlink" width="72.00000000000001" height="106.56000000000002"><path fill="red" stroke="red" d="M67.68 40.10L67.68 33.70L31.82 33.70C32.98 30.67 34.06 27.65 34.92 24.62L28.01 22.97C27.14 26.50 25.92 30.10 24.48 33.70L4.46 33.70L4.46 40.10L21.60 40.10C17.06 49.32 10.58 57.67 2.23 63.36C3.53 64.80 5.26 67.46 6.12 69.19C9.72 66.60 12.96 63.72 15.91 60.48L15.91 82.73L22.61 82.73L22.61 58.54L36.14 58.54L36.14 89.28L42.91 89.28L42.91 58.54L57.17 58.54L57.17 74.81C57.17 75.82 56.81 76.10 55.66 76.10C54.58 76.18 50.54 76.18 46.51 76.03C47.45 77.69 48.38 80.28 48.67 82.08C54.50 82.15 58.32 82.01 60.77 81.07C63.22 80.06 63.94 78.26 63.94 74.95L63.94 52.27L42.91 52.27L42.91 43.20L36.14 43.20L36.14 52.27L22.25 52.27C24.84 48.46 27.14 44.35 29.09 40.10Z"/></svg>
