<svg xmlns="http://www.w3.org/2000/svg" xmlns:xlink="http://www.w3.org/1999/xlink" width="72.00000000000001" height="106.56000000000002"><path fill="red" stroke="red" d="M29.09 36.50L19.58 36.50L19.58 23.18L13.90 23.18L13.90 36.50L4.61 36.50L4.61 74.45L9.65 74.45L9.65 42.41L13.90 42.41L13.90 89.21L19.58 89.21L19.58 42.41L24.19 42.41L24.19 67.32C24.19 67.97 24.05 68.11 23.54 68.11L20.30 68.11C21.17 69.62 21.89 72.14 21.96 73.73C24.48 73.73 26.14 73.58 27.43 72.50C28.80 71.57 29.09 69.70 29.09 67.46ZM46.22 63.72L46.22 69.98L37.51 69.98L37.51 63.72ZM61.42 69.98L51.91 69.98L51.91 63.72L61.42 63.72ZM51.91 81.58L51.91 75.24L61.42 75.24L61.42 81.58ZM37.51 81.58L37.51 75.24L46.22 75.24L46.22 81.58ZM31.54 89.14L37.51 89.14L37.51 86.83L61.42 86.83L61.42 88.99L67.61 88.99L67.61 58.39L31.54 58.39ZM58.90 48.60L40.46 48.60L40.46 41.62L58.90 41.62ZM34.70 36.50L34.70 53.64L64.87 53.64L64.87 36.50ZM31.32 26.57L31.32 32.04L68.26 32.04L68.26 26.57Z"/></svg>
