<svg xmlns="http://www.w3.org/2000/svg" xmlns:xlink="http://www.w3.org/1999/xlink" width="72.00000000000001" height="106.56000000000002"><path fill="red" stroke="red" d="M55.73 79.56L27.72 79.56L27.72 68.47L55.73 68.47ZM43.34 40.18L36.43 40.18L36.43 62.28L21.17 62.28L21.17 88.34L27.72 88.34L27.72 85.54L55.73 85.54L55.73 88.20L62.57 88.20L62.57 62.28L43.34 62.28L43.34 54.00L65.95 54.00L65.95 47.88L43.34 47.88ZM43.99 31.54C43.06 28.94 41.54 25.70 39.82 23.18L33.19 24.70C34.42 26.71 35.57 29.23 36.43 31.54L8.93 31.54L8.93 49.82C8.93 60.26 8.42 75.10 2.30 85.39C3.89 86.04 6.98 88.13 8.21 89.28C14.76 78.26 15.84 61.20 15.84 49.90L15.84 37.87L67.97 37.87L67.97 31.54Z"/></svg>
