<svg xmlns="http://www.w3.org/2000/svg" xmlns:xlink="http://www.w3.org/1999/xlink" width="72.00000000000001" height="106.56000000000002"><path fill="red" stroke="red" d="M23.69 76.32C21.53 79.63 17.14 83.74 12.96 85.90C14.26 86.90 16.34 88.56 17.35 89.71C21.53 87.41 26.35 82.94 29.16 79.13ZM35.64 50.47L24.55 50.47L24.55 44.86L35.64 44.86ZM35.64 60.84L24.55 60.84L24.55 55.08L35.64 55.08ZM35.64 71.21L24.55 71.21L24.55 65.45L35.64 65.45ZM41.33 39.96L19.15 39.96L19.15 76.10L41.33 76.10ZM31.25 79.42C33.91 82.30 37.22 86.26 38.66 88.85L43.63 85.46C42.05 82.94 38.66 79.13 35.93 76.39ZM59.62 82.30C59.62 83.30 59.26 83.59 58.03 83.66C56.95 83.66 53.06 83.74 49.03 83.59C49.90 85.25 50.76 87.98 51.05 89.71C56.59 89.71 60.34 89.57 62.64 88.49C64.94 87.55 65.81 85.82 65.81 82.30L65.81 39.02L59.62 39.02ZM53.28 44.78L47.38 44.78L47.38 74.02L53.28 74.02ZM44.35 29.81C42.91 27.36 40.82 24.34 38.95 21.96L33.26 24.41C34.42 25.99 35.78 27.94 36.94 29.81L8.14 29.81L8.14 50.62C8.14 61.13 7.70 75.74 2.45 85.97C3.96 86.62 6.77 88.42 7.92 89.64C13.61 78.70 14.54 61.92 14.54 50.62L14.54 35.71L68.18 35.71L68.18 29.81Z"/></svg>
