<svg xmlns="http://www.w3.org/2000/svg" xmlns:xlink="http://www.w3.org/1999/xlink" width="72.00000000000001" height="106.56000000000002"><path fill="red" stroke="red" d="M14.54 35.06L68.18 35.06L68.18 29.16L43.63 29.16C42.91 27.22 41.83 24.77 40.97 22.90L34.27 24.26C34.92 25.78 35.64 27.43 36.22 29.16L8.14 29.16L8.14 51.48C8.14 61.63 7.70 75.82 2.30 85.68C3.74 86.40 6.55 88.34 7.70 89.50C13.61 78.84 14.54 62.50 14.54 51.48ZM49.54 67.97L49.54 63.43L56.81 63.43L56.81 67.97ZM36.65 67.97L36.65 63.43L43.56 63.43L43.56 67.97ZM36.65 54.86L43.56 54.86L43.56 58.97L36.65 58.97ZM36.65 46.30L43.56 46.30L43.56 50.33L36.65 50.33ZM56.81 54.86L56.81 58.97L49.54 58.97L49.54 54.86ZM62.71 63.50L68.98 63.50L68.98 58.54L62.71 58.54L62.71 50.33L49.54 50.33L49.54 46.30L67.03 46.30L67.03 41.33L53.35 41.33C54.29 39.89 55.30 38.38 56.23 36.65L49.75 35.42C49.03 37.08 47.81 39.38 46.58 41.33L36.00 41.33C35.06 39.53 33.70 37.22 32.40 35.50L26.57 36.72C27.50 38.16 28.44 39.74 29.16 41.33L17.57 41.33L17.57 46.30L30.82 46.30L30.82 50.33L19.87 50.33L19.87 54.86L30.82 54.86L30.82 58.97L16.49 58.97L16.49 63.43L30.82 63.43L30.82 67.97L19.37 67.97L19.37 72.50L28.73 72.50C24.84 76.90 18.94 81.07 13.68 83.16C14.98 84.31 16.78 86.40 17.71 87.84C22.18 85.46 27.00 81.50 30.82 77.11L30.82 88.49L36.65 88.49L36.65 72.50L43.56 72.50L43.56 88.49L49.54 88.49L49.54 76.54C53.35 81.22 58.39 85.46 63.07 87.98C64.08 86.33 65.95 84.10 67.39 82.87C61.92 80.86 56.09 76.82 52.20 72.50L62.71 72.50Z"/></svg>
