<svg xmlns="http://www.w3.org/2000/svg" xmlns:xlink="http://www.w3.org/1999/xlink" width="72.00000000000001" height="106.56000000000002"><path fill="red" stroke="red" d="M17.64 59.90C18.22 56.81 18.79 53.42 19.37 50.11L60.41 50.11L60.41 27.58L10.08 27.58L10.08 34.20L53.64 34.20L53.64 43.56L13.18 43.56C12.31 50.90 10.66 60.19 9.22 66.17L56.23 66.17C54.94 75.17 53.35 79.92 51.34 81.36C50.33 82.01 49.18 82.08 47.30 82.08C44.93 82.08 38.52 81.94 32.76 81.43C34.27 83.45 35.35 86.40 35.50 88.49C41.04 88.78 46.37 88.92 49.25 88.70C52.85 88.56 55.08 88.06 57.24 86.04C60.26 83.38 62.21 76.90 64.08 63.07C64.30 62.06 64.44 59.90 64.44 59.90Z"/></svg>
