<svg xmlns="http://www.w3.org/2000/svg" xmlns:xlink="http://www.w3.org/1999/xlink" width="72.00000000000001" height="106.56000000000002"><path fill="red" stroke="red" d="M59.40 33.41C57.67 38.59 55.15 42.91 51.91 46.51C48.82 42.77 46.37 38.38 44.78 33.41ZM38.88 34.13C40.90 40.54 43.70 46.15 47.38 50.69C43.78 53.57 39.67 55.66 35.35 57.02C36.65 58.32 38.23 60.77 38.95 62.28C43.56 60.62 47.88 58.25 51.70 55.22C55.37 58.61 59.83 61.20 65.02 63.07C65.88 61.34 67.68 58.90 69.12 57.60C64.15 56.23 59.90 53.86 56.30 50.90C61.27 45.43 65.02 38.23 67.03 28.87L63.07 27.50L61.92 27.72L37.73 27.72L37.73 33.41L41.90 33.41ZM31.82 64.51C34.42 67.54 37.51 71.86 38.95 74.52L44.28 71.14C42.77 68.47 39.46 64.44 36.86 61.49ZM27.43 36.00C26.78 39.74 25.20 43.99 21.46 48.02C19.15 46.73 16.78 45.43 14.40 44.28C15.41 41.90 16.42 39.31 17.42 36.65C20.66 36.43 24.05 36.22 27.43 36.00ZM35.06 56.59C32.76 54.94 29.88 52.92 26.64 50.98C31.10 45.86 32.76 40.46 33.41 35.64L36.00 35.42L36.07 29.88L33.70 30.02L33.70 27.22L27.94 27.22L27.94 30.17L27.94 30.38L19.44 30.82C20.23 28.37 20.95 25.78 21.60 23.47L15.34 22.68C14.76 25.42 13.90 28.30 12.89 31.18C9.29 31.32 6.05 31.46 3.24 31.61L3.89 37.44L10.80 37.01C9.36 40.54 7.99 43.78 6.62 46.37C10.08 48.10 13.68 49.97 16.99 51.98C13.61 54.50 9.22 56.81 3.53 58.82C4.75 59.98 6.48 61.99 7.20 63.36C13.61 60.98 18.50 58.25 22.25 55.30C25.20 57.17 27.86 59.18 29.88 60.84ZM9.65 85.39C13.03 81.14 15.62 74.52 17.42 69.19L11.45 66.89C9.86 72.00 7.06 78.12 3.67 82.01ZM31.46 81.43C27.58 81.43 26.86 81.07 26.86 79.06L26.86 65.81L20.23 65.81L20.23 79.13C20.23 85.61 22.32 87.48 30.89 87.48L44.06 87.48C51.12 87.48 52.99 85.25 53.86 75.38C52.13 74.95 49.32 73.94 47.81 72.86C47.45 80.35 46.87 81.43 43.56 81.43ZM53.57 67.90C56.95 72.58 61.06 78.91 62.71 82.80L68.90 79.56C66.89 75.67 62.64 69.48 59.26 65.09Z"/></svg>
