<svg xmlns="http://www.w3.org/2000/svg" xmlns:xlink="http://www.w3.org/1999/xlink" width="72.00000000000001" height="106.56000000000002"><path fill="red" stroke="red" d="M41.18 33.77C39.89 35.86 38.30 38.09 36.86 39.89L16.56 39.89C18.79 37.94 20.88 35.93 22.75 33.77ZM13.82 45.29L53.35 45.29L53.35 50.11L6.34 50.11L6.34 55.30L53.35 55.30L53.35 60.41L12.53 60.41L12.53 65.81L33.55 65.81L29.59 68.47C33.26 71.57 37.44 75.89 39.24 78.84L44.42 75.10C42.48 72.29 38.74 68.54 35.21 65.81L59.98 65.81L59.98 55.30L67.46 55.30L67.46 50.11L59.98 50.11L59.98 39.89L44.57 39.89C46.80 36.94 48.96 33.77 50.47 31.03L45.86 28.08L44.78 28.37L27.00 28.37C27.94 27.00 28.80 25.63 29.66 24.19L22.32 22.90C19.01 28.94 12.82 35.86 3.67 40.82C5.18 41.83 7.34 44.14 8.42 45.72C10.30 44.50 12.17 43.34 13.82 42.05ZM9.00 86.76C11.38 82.94 13.97 77.04 15.77 72.72L9.94 70.13C8.28 74.45 5.54 80.14 2.81 83.74ZM30.74 82.22C26.35 82.22 25.49 81.86 25.49 79.99L25.49 70.27L18.79 70.27L18.79 79.99C18.79 86.40 21.10 88.13 30.17 88.13L45.43 88.13C52.63 88.13 54.65 86.11 55.51 77.18C53.71 76.82 50.90 75.89 49.46 74.88C49.03 81.29 48.46 82.22 44.93 82.22ZM55.01 70.56C58.18 75.46 61.42 82.01 62.64 86.11L68.90 83.52C67.61 79.34 64.15 73.01 60.84 68.26Z"/></svg>
