<svg xmlns="http://www.w3.org/2000/svg" xmlns:xlink="http://www.w3.org/1999/xlink" width="72.00000000000001" height="106.56000000000002"><path fill="red" stroke="red" d="M7.42 57.31C9.14 52.06 10.51 43.63 10.80 37.73L5.69 37.08C5.18 42.91 3.89 50.76 2.16 55.51ZM28.44 48.24C27.65 44.71 25.42 39.10 23.26 34.78L18.79 36.58L18.79 23.18L12.31 23.18L12.31 89.14L18.79 89.14L18.79 37.51C20.66 41.83 22.68 47.23 23.40 50.54ZM35.64 44.78L56.16 44.78L56.16 52.27L35.64 52.27ZM56.16 32.04L56.16 39.31L35.64 39.31L35.64 32.04ZM62.28 59.76C59.69 62.35 55.37 65.66 51.84 68.04C50.11 65.02 48.67 61.70 47.59 58.10L62.71 58.10L62.71 26.21L29.09 26.21L29.09 78.34C29.09 81.43 27.43 83.16 26.21 83.88C27.22 85.10 28.66 87.77 29.16 89.28C30.74 88.20 33.26 87.34 48.10 83.45C47.81 81.94 47.66 79.06 47.74 77.18L35.64 79.99L35.64 58.10L41.69 58.10C45.58 72.50 52.63 83.38 64.58 88.78C65.59 86.98 67.68 84.31 69.12 83.02C63.36 80.86 58.68 77.26 55.01 72.65C58.68 70.42 63.22 67.32 66.74 64.37Z"/></svg>
