<svg xmlns="http://www.w3.org/2000/svg" xmlns:xlink="http://www.w3.org/1999/xlink" width="72.00000000000001" height="106.56000000000002"><path fill="red" stroke="red" d="M30.10 32.62C31.46 34.78 32.98 37.58 33.48 39.67L21.53 39.67L24.41 38.45C23.83 36.58 22.18 33.91 20.45 31.90C24.98 31.68 29.66 31.46 34.20 31.10ZM12.17 44.93L31.18 44.93L29.23 46.94C32.98 48.60 37.37 51.34 39.67 53.21L43.13 49.32C41.40 47.95 38.59 46.30 35.78 44.93L59.62 44.93L59.62 53.14L66.24 53.14L66.24 39.67L53.93 39.67C55.80 37.30 57.89 34.42 59.76 31.68L53.28 29.38C51.84 32.47 49.25 36.72 47.23 39.67L34.92 39.67L39.31 38.09C38.81 36.00 37.30 33.19 35.71 31.03C45.65 30.24 55.15 29.16 62.64 27.65L58.18 23.04C46.66 25.42 25.49 26.78 7.92 27.22C8.50 28.58 9.14 30.82 9.29 32.26C12.24 32.18 15.26 32.11 18.29 31.97L14.54 33.48C15.98 35.35 17.57 37.80 18.29 39.67L5.83 39.67L5.83 52.42L12.17 52.42ZM48.46 50.90C52.56 54.14 57.38 58.97 59.47 62.28L64.30 58.68C61.99 55.30 57.17 50.83 52.99 47.59ZM13.39 62.06C17.50 59.26 19.80 54.79 21.31 50.40L16.20 48.24C14.83 52.13 12.24 56.16 8.64 58.46ZM24.70 70.34L47.95 70.34C45.00 73.01 41.18 75.31 36.86 77.11C31.97 75.46 27.72 73.30 23.98 70.85ZM54.00 65.09L52.85 65.30L30.74 65.30C31.97 64.15 33.19 62.86 34.20 61.56L33.48 61.27L42.70 61.27C47.59 61.27 49.32 59.83 49.90 54.22C48.24 53.86 45.94 53.14 44.71 52.34C44.42 55.94 43.99 56.45 41.98 56.45L32.76 56.45C30.02 56.45 29.52 56.23 29.52 54.72L29.52 48.67L23.33 48.67L23.33 54.79C23.33 58.46 24.26 60.12 27.22 60.84C25.06 63.22 22.39 65.38 19.37 67.32C17.71 65.81 16.20 64.22 14.83 62.42L9.58 64.66C10.94 66.67 12.60 68.47 14.33 70.27C11.45 71.78 8.35 73.08 5.33 74.16C6.70 75.24 8.93 77.40 9.94 78.62C12.89 77.33 15.84 75.89 18.79 74.16C21.60 76.39 24.84 78.34 28.15 80.06C20.88 82.01 12.53 83.23 4.03 83.88C5.26 85.18 6.91 87.91 7.42 89.50C17.64 88.34 27.50 86.54 36.14 83.45C44.50 86.40 54.14 88.27 64.73 89.21C65.52 87.34 67.10 84.60 68.47 83.02C59.98 82.44 51.98 81.29 44.78 79.56C50.33 76.54 54.86 72.72 58.18 67.90Z"/></svg>
