<svg xmlns="http://www.w3.org/2000/svg" xmlns:xlink="http://www.w3.org/1999/xlink" width="72.00000000000001" height="106.56000000000002"><path fill="red" stroke="red" d="M57.82 37.30C56.81 41.11 55.51 44.57 53.71 47.52C51.41 45.65 49.10 43.78 47.02 42.19L42.84 45.94C45.22 47.88 47.81 50.04 50.33 52.27C46.58 56.59 41.69 59.83 35.71 62.06C36.86 63.29 38.59 66.10 39.10 67.54C45.43 64.80 50.69 61.13 54.79 56.38C58.68 60.12 62.14 63.79 64.30 66.67L68.90 62.35C66.46 59.33 62.57 55.37 58.39 51.55C60.91 47.52 62.78 42.77 64.22 37.30L68.76 37.30L68.76 31.68L48.60 31.68C49.39 29.38 50.18 26.93 50.76 24.48L44.71 23.26C42.91 31.18 39.53 38.52 34.63 43.20C36.07 44.21 38.38 46.37 39.38 47.45C41.98 44.71 44.28 41.26 46.22 37.30ZM30.74 69.26C33.62 72.58 37.22 76.97 38.81 79.92L43.99 76.54C42.19 73.80 38.45 69.48 35.57 66.38ZM14.11 55.30L26.50 55.30L26.50 58.61C22.25 58.90 18.00 59.18 14.11 59.40ZM26.50 39.89L26.50 43.34L14.11 43.34L14.11 39.89ZM14.11 47.52L26.50 47.52L26.50 51.05L14.11 51.05ZM3.67 65.30C9.94 64.87 18.22 64.30 26.50 63.58L26.50 67.61L32.62 67.61L32.62 39.89L37.08 39.89L37.08 34.99L23.26 34.99L23.26 30.38L32.83 30.38L32.83 25.56L6.77 25.56L6.77 30.38L16.85 30.38L16.85 34.99L3.24 34.99L3.24 39.89L7.99 39.89L7.99 59.69C6.26 59.76 4.68 59.83 3.17 59.90ZM9.43 86.47C11.81 82.01 14.11 75.10 15.77 70.27L10.22 67.90C8.78 72.86 6.19 79.56 3.60 83.81ZM30.46 82.01C26.21 82.01 25.42 81.65 25.42 79.70L25.42 69.05L18.72 69.05L18.72 79.78C18.72 86.47 20.95 88.34 29.95 88.34L44.71 88.34C52.20 88.34 54.22 86.04 55.15 76.03C53.28 75.67 50.40 74.59 48.89 73.44C48.46 81.00 47.88 82.01 44.28 82.01ZM53.57 69.70C56.66 74.30 60.26 80.64 61.78 84.53L67.46 81.50C65.74 77.69 61.92 71.57 58.90 67.10Z"/></svg>
