<svg xmlns="http://www.w3.org/2000/svg" xmlns:xlink="http://www.w3.org/1999/xlink" width="72.00000000000001" height="106.56000000000002"><path fill="red" stroke="red" d="M18.07 87.70C22.18 84.38 24.55 78.91 26.14 73.87L20.74 72.00C19.30 76.54 16.63 81.50 12.96 84.53ZM25.56 34.06C22.90 39.67 18.58 45.36 13.97 49.46L13.97 33.98L37.08 33.98C34.70 39.53 30.89 45.22 26.78 49.18L26.78 43.13C28.44 40.75 29.95 38.23 31.10 35.64ZM40.25 40.39C41.18 38.81 41.98 37.08 42.70 35.42L37.58 33.98L50.54 33.98L46.51 35.57C47.66 37.01 48.89 38.81 49.75 40.39ZM48.96 47.81L38.88 47.81L38.88 44.57L48.96 44.57ZM48.96 54.79L38.88 54.79L38.88 51.41L48.96 51.41ZM48.96 61.92L38.88 61.92L38.88 58.39L48.96 58.39ZM33.34 68.40L38.09 68.40L35.93 70.42C40.03 72.43 44.93 75.60 47.38 77.83L51.41 73.80C48.89 71.57 43.85 68.62 39.82 66.82L38.88 67.68L38.88 66.24L67.25 66.24L67.25 61.92L54.50 61.92L54.50 58.39L64.44 58.39L64.44 54.79L54.50 54.79L54.50 51.41L64.30 51.41L64.30 47.81L54.50 47.81L54.50 44.57L66.24 44.57L66.24 40.39L53.71 40.39L55.44 39.60C54.65 38.02 53.06 35.71 51.55 33.98L68.40 33.98L68.40 28.44L42.98 28.44C41.90 26.35 40.46 23.83 38.95 21.89L33.12 23.62C34.13 25.06 35.06 26.71 35.93 28.44L7.85 28.44L7.85 49.61C7.85 60.19 7.42 75.02 2.23 85.39C3.60 86.04 6.26 88.13 7.34 89.28C12.60 78.84 13.82 63.36 13.97 52.13C14.98 53.06 16.06 54.29 16.63 55.01C18.14 53.64 19.58 52.20 21.10 50.54L21.10 68.33L26.78 68.33L26.78 50.54C28.08 51.55 29.74 52.92 30.46 53.64C31.39 52.78 32.40 51.70 33.34 50.54ZM39.02 83.38C36.29 83.38 35.78 83.16 35.78 81.50L35.78 72.50L29.66 72.50L29.66 81.58C29.66 87.19 31.32 88.78 38.23 88.78L48.82 88.78C54.00 88.78 55.80 87.05 56.45 79.78C54.86 79.42 52.34 78.55 51.05 77.62C50.83 82.73 50.40 83.38 48.17 83.38ZM53.78 73.66C57.67 77.90 61.78 83.74 63.36 87.48L68.69 84.82C66.96 80.93 62.64 75.24 58.68 71.21Z"/></svg>
