<svg xmlns="http://www.w3.org/2000/svg" xmlns:xlink="http://www.w3.org/1999/xlink" width="72.00000000000001" height="106.56000000000002"><path fill="red" stroke="red" d="M62.28 30.24C62.14 35.14 61.85 37.08 61.34 37.80C60.98 38.23 60.55 38.38 59.83 38.38C59.18 38.38 57.96 38.38 56.30 38.16C57.02 39.53 57.60 41.90 57.67 43.56C59.76 43.63 61.85 43.56 62.93 43.34C64.51 43.20 65.52 42.70 66.38 41.62C67.68 40.03 67.97 36.22 68.26 27.43C68.33 26.64 68.33 25.20 68.33 25.20L45.14 25.20L45.14 30.24L50.83 30.24C49.97 34.92 47.88 38.74 42.84 41.11C44.06 42.05 45.65 44.06 46.22 45.43C52.92 42.12 55.51 36.86 56.59 30.24ZM51.84 66.96L61.70 66.96L61.70 71.14L51.84 71.14ZM51.84 58.68L61.70 58.68L61.70 62.78L51.84 62.78ZM51.84 50.40L61.70 50.40L61.70 54.50L51.84 54.50ZM46.51 75.82L67.25 75.82L67.25 45.79L46.51 45.79ZM5.04 36.00C5.11 42.26 4.18 50.04 2.02 54.43L6.05 56.23C8.42 51.19 9.36 42.98 9.22 36.58ZM10.80 89.14L16.78 89.14L16.78 23.11L10.80 23.11ZM26.71 47.88L30.89 47.88L30.89 57.89L26.71 57.89ZM39.31 57.89L35.21 57.89L35.21 47.88L39.31 47.88ZM45.43 73.30C44.06 71.71 38.59 65.88 36.00 63.50L36.00 63.14L44.14 63.14L44.14 42.62L36.00 42.62L36.00 36.07L44.28 36.07L44.28 30.67L36.00 30.67L36.00 23.11L30.10 23.11L30.10 30.67L21.82 30.67L21.82 36.07L30.10 36.07L30.10 42.62L23.47 42.62C23.11 40.10 22.10 36.50 20.88 33.62L16.99 34.85C18.29 38.16 19.30 42.41 19.51 45.14L22.10 44.14L22.10 63.14L28.15 63.14C25.92 68.90 22.46 74.88 19.01 78.26C20.02 79.85 21.31 82.44 21.89 84.17C24.98 80.86 27.86 75.53 30.10 69.98L30.10 89.14L36.00 89.14L36.00 69.84C38.38 72.72 41.11 76.03 42.34 77.98ZM49.39 76.54C47.45 79.85 43.92 83.16 40.39 85.39C41.69 86.33 43.99 88.42 44.93 89.50C48.60 86.83 52.70 82.44 55.30 78.34ZM57.74 78.62C60.41 81.86 63.50 86.40 64.87 89.21L70.20 86.47C68.76 83.74 65.59 79.34 62.78 76.32Z"/></svg>
