<svg xmlns="http://www.w3.org/2000/svg" xmlns:xlink="http://www.w3.org/1999/xlink" width="72.00000000000001" height="106.56000000000002"><path fill="red" stroke="red" d="M58.54 46.58C56.23 53.14 53.14 59.11 49.32 64.37C47.88 58.03 46.80 50.40 46.08 41.90L67.90 41.90L67.90 35.50L60.84 35.50L64.80 31.32C62.21 28.87 57.02 25.63 52.85 23.47L48.82 27.50C52.85 29.74 57.82 32.98 60.26 35.50L45.65 35.50C45.43 31.54 45.22 27.36 45.14 23.18L38.38 23.18C38.59 27.43 38.81 31.54 39.02 35.50L9.94 35.50L9.94 54.50C9.94 63.79 9.29 76.25 2.81 85.03C4.39 85.90 7.20 88.20 8.28 89.57C13.61 82.44 15.62 72.29 16.34 63.36L36.72 63.36L36.72 56.88L16.70 56.88L16.70 54.50L16.70 41.90L39.53 41.90C40.46 53.06 41.83 62.86 44.14 70.63C38.95 76.18 32.90 80.57 25.92 83.95C27.29 85.25 29.74 87.98 30.60 89.42C36.58 86.26 41.90 82.22 46.66 77.47C49.54 83.81 53.42 87.77 58.68 88.78C64.87 90.58 68.26 86.26 69.34 73.73C67.68 72.94 65.30 71.42 63.94 70.06C63.36 77.90 62.42 82.44 60.70 82.08C56.88 81.58 53.93 77.98 51.62 72.07C57.17 65.30 61.78 57.38 65.09 48.31Z"/></svg>
