<svg xmlns="http://www.w3.org/2000/svg" xmlns:xlink="http://www.w3.org/1999/xlink" width="72.00000000000001" height="106.56000000000002"><path fill="red" stroke="red" d="M67.32 37.44L49.54 37.44L49.54 23.11L42.19 23.11L42.19 37.44L5.04 37.44L5.04 44.28L35.35 44.28C27.58 56.59 15.19 68.76 2.74 75.02C4.68 76.61 6.84 79.20 7.99 81.07C20.88 73.58 34.06 59.90 42.19 46.37L42.19 79.63C42.19 81.00 41.62 81.43 40.18 81.50C38.74 81.50 33.70 81.58 28.94 81.36C29.88 83.30 30.96 86.47 31.25 88.42C38.38 88.42 42.84 88.27 45.65 87.12C48.38 86.04 49.54 84.10 49.54 79.63L49.54 44.28L67.32 44.28Z"/></svg>
