<svg xmlns="http://www.w3.org/2000/svg" xmlns:xlink="http://www.w3.org/1999/xlink" width="72.00000000000001" height="106.56000000000002"><path fill="red" stroke="red" d="M29.66 53.28L20.52 55.73L20.52 43.49L29.66 43.49L29.66 37.15L20.52 37.15L20.52 23.18L13.75 23.18L13.75 37.15L3.67 37.15L3.67 43.49L13.75 43.49L13.75 57.46C9.72 58.54 6.05 59.47 3.02 60.19L4.90 66.82L13.75 64.37L13.75 80.93C13.75 81.94 13.39 82.30 12.38 82.30C11.52 82.37 8.42 82.37 5.26 82.22C6.12 84.02 7.06 86.83 7.27 88.56C12.31 88.56 15.41 88.42 17.64 87.26C19.73 86.26 20.52 84.46 20.52 81.00L20.52 62.42L30.46 59.62ZM69.12 28.87L30.31 28.87L30.31 35.57L49.68 35.57L49.68 79.92C49.68 81.22 49.18 81.65 47.81 81.72C46.22 81.72 40.97 81.79 36.14 81.50C37.15 83.52 38.45 86.83 38.81 88.85C45.50 88.85 50.11 88.70 52.99 87.48C55.87 86.33 56.88 84.17 56.88 79.92L56.88 35.57L69.12 35.57Z"/></svg>
