<svg xmlns="http://www.w3.org/2000/svg" xmlns:xlink="http://www.w3.org/1999/xlink" width="72.00000000000001" height="106.56000000000002"><path fill="red" stroke="red" d="M68.90 53.50C67.61 48.17 64.44 40.18 61.06 34.13L55.30 36.00C58.46 42.12 61.56 50.33 62.71 55.73ZM50.98 23.18L44.64 23.18L44.64 67.25L50.98 67.25ZM33.98 35.42C32.98 42.98 31.25 51.19 28.73 56.45C30.31 57.10 33.12 58.39 34.42 59.26C36.79 53.57 38.95 44.78 40.10 36.50ZM27.79 53.71L19.58 55.94L19.58 43.42L27.94 43.42L27.94 37.22L19.58 37.22L19.58 23.18L13.03 23.18L13.03 37.22L3.53 37.22L3.53 43.42L13.03 43.42L13.03 57.60C9.00 58.61 5.33 59.54 2.38 60.19L4.18 66.67L13.03 64.22L13.03 81.50C13.03 82.51 12.67 82.87 11.66 82.87C10.80 82.94 7.70 82.94 4.61 82.87C5.40 84.53 6.34 87.26 6.55 88.85C11.45 88.92 14.69 88.78 16.70 87.70C18.79 86.69 19.58 84.96 19.58 81.50L19.58 62.42C22.61 61.56 25.63 60.62 28.58 59.76ZM59.83 58.10C54.50 72.36 43.27 79.63 25.42 83.02C26.86 84.46 28.37 87.12 29.02 88.99C48.17 84.60 60.12 76.18 66.10 59.98Z"/></svg>
