<svg xmlns="http://www.w3.org/2000/svg" xmlns:xlink="http://www.w3.org/1999/xlink" width="72.00000000000001" height="106.56000000000002"><path fill="red" stroke="red" d="M51.70 33.48C50.98 30.38 49.46 25.92 48.10 22.39L41.76 23.98C43.06 27.58 44.57 32.33 45.14 35.35ZM67.68 35.71L28.80 35.71L28.80 41.98L67.68 41.98ZM44.57 75.24C43.78 67.97 41.69 55.37 39.46 45.65L33.48 47.02C35.64 56.81 37.51 69.70 38.09 77.11ZM25.99 54.29L19.08 56.16L19.08 43.42L26.21 43.42L26.21 37.22L19.08 37.22L19.08 23.18L12.53 23.18L12.53 37.22L4.03 37.22L4.03 43.42L12.53 43.42L12.53 57.89C9.07 58.82 5.83 59.62 3.17 60.19L4.97 66.67L12.53 64.51L12.53 81.79C12.53 82.80 12.24 83.09 11.30 83.09C10.58 83.16 7.92 83.16 5.26 83.02C6.05 84.74 6.91 87.48 7.20 89.06C11.59 89.14 14.40 88.92 16.42 87.84C18.36 86.83 19.08 85.18 19.08 81.86L19.08 62.64C21.60 61.92 24.19 61.13 26.78 60.41ZM55.80 79.85C58.39 70.63 61.13 57.31 63.00 46.37L55.94 45.22C54.79 55.80 52.20 70.34 49.68 79.85L25.49 79.85L25.49 86.18L69.41 86.18L69.41 79.85Z"/></svg>
