<svg xmlns="http://www.w3.org/2000/svg" xmlns:xlink="http://www.w3.org/1999/xlink" width="72.00000000000001" height="106.56000000000002"><path fill="red" stroke="red" d="M24.77 53.78L17.71 55.94L17.71 42.98L25.13 42.98L25.13 36.79L17.71 36.79L17.71 23.26L11.38 23.26L11.38 36.79L3.24 36.79L3.24 42.98L11.38 42.98L11.38 57.74C7.92 58.75 4.75 59.62 2.23 60.26L3.74 66.74C6.05 66.02 8.71 65.23 11.38 64.44L11.38 81.14C11.38 82.15 11.02 82.44 10.15 82.44C9.36 82.44 6.62 82.44 3.74 82.37C4.61 84.17 5.47 87.12 5.69 88.78C10.22 88.85 13.10 88.56 15.12 87.48C17.06 86.40 17.71 84.60 17.71 81.14L17.71 62.35L25.63 59.90ZM46.01 54.14L46.01 66.74L36.07 66.74L36.07 54.14ZM62.50 34.70L62.50 34.63L38.38 34.63C39.74 31.39 41.04 28.01 41.98 24.62L35.57 23.11C32.90 32.69 28.22 42.12 22.61 48.17C24.12 49.10 26.93 51.19 28.01 52.34C28.73 51.48 29.38 50.62 30.10 49.68L30.10 77.26L36.07 77.26L36.07 72.43L52.06 72.43L52.06 48.46L30.96 48.46C32.54 46.15 34.06 43.49 35.50 40.75L60.12 40.75C59.40 68.33 58.32 78.98 56.38 81.36C55.58 82.30 54.79 82.51 53.57 82.51C51.84 82.51 48.10 82.51 44.14 82.15C45.29 84.02 46.08 87.05 46.22 88.92C50.18 89.06 54.07 89.21 56.45 88.85C59.04 88.49 60.70 87.77 62.28 85.46C65.09 81.94 65.88 70.56 66.82 38.02L66.82 34.70Z"/></svg>
