<svg xmlns="http://www.w3.org/2000/svg" xmlns:xlink="http://www.w3.org/1999/xlink" width="72.00000000000001" height="106.56000000000002"><path fill="red" stroke="red" d="M24.55 35.64C28.73 33.77 32.54 31.54 35.86 29.09C39.17 31.46 43.20 33.70 47.52 35.64ZM19.94 39.82L52.49 39.82L52.49 37.73C56.88 39.46 61.42 40.97 65.59 41.90C66.46 40.39 68.18 38.02 69.48 36.79C59.26 34.78 47.09 30.46 40.03 25.63C40.54 25.20 41.04 24.77 41.40 24.26L35.86 21.74C29.38 28.51 16.27 33.91 2.66 37.30C3.89 38.38 5.62 40.82 6.41 42.12C11.09 40.90 15.62 39.31 19.94 37.66ZM20.09 47.02L51.48 47.02L51.48 50.98L20.09 50.98ZM13.82 55.15L58.03 55.15L58.03 42.84L13.82 42.84ZM39.31 70.63L63.65 70.63L63.65 65.95L39.31 65.95L39.31 62.28C47.16 61.78 54.43 61.06 60.26 60.05L55.87 56.23C45.50 57.96 26.21 58.82 10.15 58.90C10.66 60.05 11.23 61.92 11.38 63.14C18.14 63.14 25.49 63.00 32.69 62.64L32.69 65.95L8.64 65.95L8.64 70.63L32.69 70.63L32.69 74.23L4.68 74.23L4.68 78.98L32.69 78.98L32.69 82.80C32.69 83.74 32.33 84.02 31.18 84.10C30.10 84.10 25.92 84.17 22.03 84.02C22.75 85.54 23.76 87.62 24.19 89.28C29.88 89.28 33.55 89.28 36.07 88.42C38.52 87.55 39.31 86.26 39.31 82.87L39.31 78.98L67.46 78.98L67.46 74.23L39.31 74.23Z"/></svg>
