<svg xmlns="http://www.w3.org/2000/svg" xmlns:xlink="http://www.w3.org/1999/xlink" width="72.00000000000001" height="106.56000000000002"><path fill="red" stroke="red" d="M65.59 24.19L59.26 24.19L59.26 50.54C59.26 51.41 58.90 51.62 58.03 51.62C57.17 51.62 54.29 51.70 51.34 51.55C52.06 52.92 52.99 54.86 53.35 56.38C58.03 56.38 60.91 56.30 62.93 55.44C64.94 54.72 65.59 53.57 65.59 50.62ZM52.34 27.29L46.66 27.29L46.66 47.81L52.34 47.81ZM10.37 35.50C11.09 34.49 11.81 33.48 12.38 32.26L20.74 32.26L20.74 35.50ZM20.74 43.13L7.63 43.13L7.63 55.87L13.32 55.87L13.32 47.45L20.74 47.45L20.74 56.95L26.64 56.95L26.64 47.45L34.78 47.45L34.78 51.34C34.78 51.84 34.63 52.06 33.98 52.06C33.41 52.13 31.61 52.13 29.66 51.98C30.24 53.14 30.96 54.58 31.18 55.87C34.42 55.87 36.72 55.87 38.23 55.15C39.82 54.50 40.18 53.57 40.18 51.26L40.18 43.13L26.64 43.13L26.64 39.89L41.83 39.89L41.83 35.50L26.64 35.50L26.64 32.26L39.17 32.26L39.17 27.94L26.64 27.94L26.64 23.11L20.74 23.11L20.74 27.94L14.62 27.94C15.12 26.86 15.55 25.85 15.91 24.77L10.66 23.54C9.43 27.14 7.49 31.03 5.04 33.84C5.98 34.13 7.42 34.85 8.64 35.50L3.53 35.50L3.53 39.89L20.74 39.89ZM67.39 74.09L39.67 74.09L39.67 70.63L62.86 70.63L62.86 65.88L39.67 65.88L39.67 62.06C46.44 61.63 52.70 60.91 57.74 59.98L53.14 56.30C44.28 58.03 26.57 58.68 12.31 58.54C12.89 59.62 13.46 61.49 13.54 62.64C19.73 62.78 26.42 62.71 33.05 62.42L33.05 65.88L9.07 65.88L9.07 70.63L33.05 70.63L33.05 74.09L4.75 74.09L4.75 78.91L33.05 78.91L33.05 82.87C33.05 83.88 32.62 84.17 31.46 84.24C30.31 84.31 25.70 84.31 21.60 84.17C22.39 85.61 23.40 87.62 23.83 89.14C29.81 89.21 33.62 89.21 36.22 88.42C38.81 87.62 39.67 86.33 39.67 83.02L39.67 78.91L67.39 78.91Z"/></svg>
