<svg xmlns="http://www.w3.org/2000/svg" xmlns:xlink="http://www.w3.org/1999/xlink" width="72.00000000000001" height="106.56000000000002"><path fill="red" stroke="red" d="M57.53 35.06L35.64 35.06L35.64 30.31L57.53 30.31ZM57.53 44.35L35.64 44.35L35.64 39.60L57.53 39.60ZM63.94 25.42L29.52 25.42L29.52 49.32L63.94 49.32ZM25.34 60.05L24.41 54.00L17.50 56.02L17.50 43.34L25.13 43.34L25.13 37.15L17.50 37.15L17.50 23.26L11.38 23.26L11.38 37.15L3.02 37.15L3.02 43.34L11.38 43.34L11.38 57.82C7.99 58.75 4.82 59.62 2.30 60.26L3.82 66.74L11.38 64.44L11.38 81.14C11.38 82.15 11.02 82.44 10.15 82.44C9.36 82.44 6.70 82.44 3.82 82.37C4.68 84.10 5.47 86.98 5.62 88.56C10.15 88.56 13.03 88.34 14.98 87.26C16.85 86.26 17.50 84.46 17.50 81.14L17.50 62.50ZM49.68 72.00L64.08 72.00L64.08 66.67L49.68 66.67L49.68 59.18L67.68 59.18L67.68 53.71L26.14 53.71L26.14 59.18L43.42 59.18L43.42 80.21C39.96 78.55 37.22 75.46 35.35 70.27C35.93 67.90 36.36 65.38 36.72 62.71L30.67 61.99C29.52 72.14 26.42 80.21 20.16 85.18C21.67 86.04 24.19 88.13 25.20 89.21C28.73 86.04 31.39 81.94 33.34 76.90C38.02 86.40 45.50 88.20 55.51 88.20L67.90 88.20C68.11 86.54 68.98 83.74 69.77 82.30C67.10 82.37 57.74 82.37 55.66 82.37C53.57 82.37 51.62 82.30 49.68 82.01Z"/></svg>
