<svg xmlns="http://www.w3.org/2000/svg" xmlns:xlink="http://www.w3.org/1999/xlink" width="72.00000000000001" height="106.56000000000002"><path fill="red" stroke="red" d="M65.16 28.30L50.40 28.30L50.40 33.84L59.33 33.84L59.33 39.89L50.76 39.89L50.76 45.36L59.33 45.36L59.33 51.41L50.40 51.41L50.40 57.02L65.16 57.02ZM39.46 51.34L31.03 51.34L31.03 45.36L39.02 45.36L39.02 39.89L31.03 39.89L31.03 33.26C33.98 32.40 37.30 31.18 40.32 29.88L36.22 25.13C33.41 26.71 28.44 29.16 25.13 30.31L25.13 56.88L39.46 56.88ZM22.75 53.57C20.88 54.22 19.15 54.94 17.28 55.58L17.28 43.34L22.97 43.34L22.97 37.15L17.28 37.15L17.28 23.18L11.09 23.18L11.09 37.15L3.60 37.15L3.60 43.34L11.09 43.34L11.09 57.67C7.92 58.75 5.04 59.69 2.66 60.41L4.46 66.82C6.48 66.02 8.78 65.23 11.09 64.37L11.09 81.14C11.09 82.08 10.80 82.30 9.94 82.37C9.14 82.37 6.55 82.37 3.89 82.30C4.68 84.10 5.47 86.83 5.69 88.56C10.01 88.56 12.82 88.34 14.76 87.19C16.56 86.26 17.28 84.38 17.28 81.14L17.28 62.14C19.44 61.27 21.67 60.48 23.83 59.62ZM55.08 67.18C52.56 70.42 49.39 73.15 45.58 75.53C41.62 73.08 38.38 70.34 36.00 67.18ZM60.34 61.27L59.11 61.56L47.95 61.56L47.95 23.18L41.62 23.18L41.62 61.56L24.34 61.56L24.34 67.18L31.97 67.18L29.38 68.11C31.97 72.14 35.35 75.67 39.31 78.62C33.55 80.93 27.07 82.58 20.30 83.45C21.46 84.89 22.82 87.55 23.26 89.35C31.25 87.98 38.81 85.82 45.36 82.51C51.19 85.68 57.96 87.84 65.38 89.21C66.31 87.41 68.11 84.74 69.55 83.30C63.14 82.37 57.10 80.78 51.84 78.62C57.31 74.74 61.70 69.62 64.44 63.14Z"/></svg>
