<svg xmlns="http://www.w3.org/2000/svg" xmlns:xlink="http://www.w3.org/1999/xlink" width="72.00000000000001" height="106.56000000000002"><path fill="red" stroke="red" d="M68.11 37.80L49.54 37.80L49.54 33.12L64.15 33.12L64.15 28.15L49.54 28.15L49.54 23.18L43.27 23.18L43.27 28.15L29.81 28.15L29.81 33.12L43.27 33.12L43.27 37.80L25.92 37.80L25.92 43.13L68.11 43.13ZM46.44 58.39L46.44 63.14L68.11 63.14L68.11 58.39L59.76 58.39L59.76 53.42L67.18 53.42L67.18 48.74L59.76 48.74L59.76 44.57L53.93 44.57L53.93 48.74L47.52 48.74L47.52 53.42L53.93 53.42L53.93 58.39ZM45.22 57.74L38.74 58.46L38.74 53.42L44.78 53.42L44.78 48.74L38.74 48.74L38.74 44.57L33.05 44.57L33.05 48.74L26.64 48.74L26.64 53.42L33.05 53.42L33.05 59.11C30.17 59.40 27.43 59.69 25.20 59.90L25.92 64.94C31.46 64.22 38.45 63.43 45.29 62.50ZM24.26 53.21L17.71 55.15L17.71 43.27L24.91 43.27L24.91 37.08L17.71 37.08L17.71 23.18L11.59 23.18L11.59 37.08L3.24 37.08L3.24 43.27L11.59 43.27L11.59 56.95C8.06 57.96 4.82 58.90 2.23 59.54L3.74 66.02C6.12 65.23 8.78 64.44 11.59 63.58L11.59 81.79C11.59 82.80 11.23 83.02 10.30 83.02C9.50 83.09 6.84 83.09 3.96 83.02C4.82 84.74 5.62 87.62 5.76 89.21C10.37 89.21 13.18 88.99 15.12 87.98C17.06 86.90 17.71 85.10 17.71 81.79L17.71 61.70C20.16 60.91 22.68 60.12 25.13 59.33ZM57.38 83.52C55.66 83.52 55.44 83.30 55.44 81.65L55.44 72.29L68.40 72.29L68.40 66.89L24.41 66.89L24.41 72.29L35.86 72.29C34.85 78.41 31.90 81.86 21.60 83.88C22.97 85.03 24.55 87.70 25.20 89.28C37.30 86.18 40.90 81.00 42.19 72.29L49.25 72.29L49.25 81.72C49.25 87.26 50.62 88.85 56.38 88.85L63.07 88.85C67.61 88.85 69.19 86.98 69.77 79.63C68.11 79.20 65.59 78.34 64.37 77.47C64.15 82.73 63.86 83.52 62.42 83.52Z"/></svg>
