<svg xmlns="http://www.w3.org/2000/svg" xmlns:xlink="http://www.w3.org/1999/xlink" width="72.00000000000001" height="106.56000000000002"><path fill="red" stroke="red" d="M24.55 60.34L23.76 54.22L17.42 56.09L17.42 43.34L24.12 43.34L24.12 37.15L17.42 37.15L17.42 23.26L11.30 23.26L11.30 37.15L3.60 37.15L3.60 43.34L11.30 43.34L11.30 57.89C7.99 58.82 4.97 59.62 2.45 60.26L4.10 66.74L11.30 64.44L11.30 81.14C11.30 82.15 10.94 82.44 10.01 82.44C9.22 82.44 6.55 82.44 3.67 82.37C4.54 84.10 5.33 86.98 5.54 88.56C10.01 88.56 12.89 88.34 14.83 87.26C16.78 86.26 17.42 84.46 17.42 81.14L17.42 62.57ZM32.18 72.00C29.59 76.32 25.27 80.78 21.10 83.81C22.54 84.60 24.98 86.47 26.14 87.41C30.31 84.10 35.06 78.77 38.09 73.73ZM36.72 60.34L54.94 60.34L54.94 64.73L36.72 64.73ZM47.59 35.71C49.39 39.82 51.91 43.63 54.72 46.94L37.94 46.94C40.75 43.70 43.06 39.96 44.93 35.71ZM54.94 55.94L36.72 55.94L36.72 51.55L54.94 51.55ZM60.98 69.34L60.98 52.85C62.42 53.78 63.86 54.72 65.38 55.51C66.31 53.86 68.18 51.62 69.55 50.47C66.74 49.25 64.15 47.66 61.78 45.58C63.65 44.06 65.81 42.12 67.82 40.25L63.00 37.22C61.92 38.74 60.19 40.75 58.46 42.48C56.59 40.39 54.94 38.09 53.64 35.71L67.82 35.71L67.82 30.31L46.94 30.31C47.59 28.30 48.02 26.14 48.53 23.98L42.19 23.18C41.69 25.70 41.18 28.08 40.39 30.31L26.06 30.31L26.06 35.71L38.16 35.71C37.15 37.73 35.93 39.60 34.70 41.26C33.12 39.82 31.39 38.30 29.74 37.08L25.85 40.46C27.58 41.83 29.52 43.49 31.10 45.14C28.73 47.30 25.92 49.25 22.82 50.69C24.05 51.98 26.14 54.50 26.86 55.87C28.30 55.08 29.59 54.22 30.89 53.35L30.89 69.34L42.91 69.34L42.91 82.37C42.91 83.09 42.70 83.23 41.83 83.30C41.11 83.38 38.52 83.38 35.78 83.23C36.65 84.89 37.58 87.41 37.80 89.21C41.76 89.21 44.57 89.14 46.66 88.13C48.67 87.19 49.18 85.46 49.18 82.51L49.18 69.34ZM53.28 74.38C57.10 78.19 61.70 83.59 63.65 87.05L68.98 83.88C66.82 80.50 62.14 75.24 58.32 71.57Z"/></svg>
