<svg xmlns="http://www.w3.org/2000/svg" xmlns:xlink="http://www.w3.org/1999/xlink" width="72.00000000000001" height="106.56000000000002"><path fill="red" stroke="red" d="M37.58 45.86C39.38 45.86 41.26 45.79 42.34 45.43C42.05 44.14 41.90 41.90 41.76 40.46C40.68 40.68 38.66 40.82 37.44 40.82L30.02 40.82C28.66 40.82 28.37 40.18 28.37 38.09L28.37 34.42L40.39 34.42L40.39 29.45L28.37 29.45L28.37 23.18L22.82 23.18L22.82 38.02C22.82 43.70 24.19 45.86 29.88 45.86ZM42.48 70.42L42.48 65.09L35.50 65.09C35.57 64.30 35.57 63.58 35.57 62.93L35.57 57.67L41.69 57.67L41.69 52.49L29.38 52.49C29.88 50.83 30.24 49.10 30.60 47.45L25.49 46.37C24.77 50.26 23.83 54.07 22.32 57.38L21.31 52.34L16.06 54.29L16.06 43.34L21.24 43.34L21.24 37.15L16.06 37.15L16.06 23.11L10.15 23.11L10.15 37.15L3.24 37.15L3.24 43.34L10.15 43.34L10.15 56.30C7.20 57.38 4.46 58.32 2.16 59.04L3.89 65.45L10.15 63.14L10.15 82.01C10.15 82.87 9.86 83.16 9.00 83.16C8.28 83.23 5.76 83.23 3.10 83.16C3.96 84.89 4.68 87.55 4.82 89.06C9.07 89.14 11.81 88.85 13.68 87.84C15.41 86.90 16.06 85.18 16.06 81.94L16.06 60.84L21.67 58.68C21.17 59.69 20.59 60.62 20.02 61.49C21.24 62.14 23.40 63.58 24.34 64.37C25.56 62.57 26.78 60.19 27.72 57.67L30.17 57.67L30.17 62.86C30.17 63.50 30.17 64.30 30.10 65.09L20.30 65.09L20.30 70.42L29.45 70.42C28.30 75.46 25.56 81.07 18.58 85.39C19.87 86.33 21.60 87.98 22.46 89.21C27.29 85.82 30.46 81.94 32.40 78.12C34.42 80.06 36.50 82.22 37.58 83.81L41.11 79.42C39.74 77.62 36.86 74.95 34.34 72.79C34.56 72.00 34.78 71.21 34.92 70.42ZM58.10 70.20L67.10 70.20L67.10 64.80L58.10 64.80L58.10 54.22L62.93 54.22C62.57 56.74 62.06 59.26 61.63 61.06L65.66 62.14C66.67 58.90 67.68 53.78 68.47 49.39L65.23 48.53L64.44 48.74L59.90 48.74L63.72 44.71C62.42 43.49 60.55 42.05 58.54 40.54C61.92 36.86 65.52 32.11 67.90 27.58L64.08 24.98L63.07 25.34L43.56 25.34L43.56 30.60L59.47 30.60C57.96 32.98 56.02 35.57 54.22 37.58C52.34 36.36 50.62 35.28 48.96 34.27L45.14 37.94C50.04 41.04 56.38 45.65 59.62 48.74L42.55 48.74L42.55 54.22L52.85 54.22L52.85 79.85C51.19 78.19 49.75 75.82 48.67 72.22C49.25 68.40 49.61 64.22 49.75 59.62L44.64 59.40C44.35 70.92 43.06 80.28 37.66 86.26C38.88 86.83 41.04 88.49 41.90 89.35C44.14 86.62 45.79 83.45 46.94 79.78C50.47 86.54 55.44 88.13 61.70 88.13L68.18 88.13C68.40 86.69 69.12 84.17 69.84 82.80C68.04 82.87 63.36 82.87 62.14 82.87C60.70 82.87 59.40 82.80 58.10 82.51Z"/></svg>
