<svg xmlns="http://www.w3.org/2000/svg" xmlns:xlink="http://www.w3.org/1999/xlink" width="72.00000000000001" height="106.56000000000002"><path fill="red" stroke="red" d="M24.05 55.37L17.71 57.31L17.71 43.34L24.12 43.34L24.12 37.15L17.71 37.15L17.71 23.26L11.59 23.26L11.59 37.15L3.02 37.15L3.02 43.34L11.59 43.34L11.59 59.04C8.14 60.05 4.97 60.84 2.45 61.49L3.24 68.11L11.59 65.59L11.59 81.00C11.59 81.94 11.23 82.22 10.22 82.30C9.43 82.30 6.55 82.30 3.60 82.22C4.39 83.95 5.18 86.76 5.40 88.42C10.08 88.42 13.10 88.20 15.05 87.19C16.99 86.11 17.71 84.31 17.71 80.93L17.71 63.72C20.09 62.93 22.54 62.21 24.84 61.42ZM38.95 75.60C41.11 74.02 42.70 72.14 43.49 69.62L47.95 69.62L47.95 70.56C47.95 73.22 48.31 74.81 49.68 75.60ZM50.47 82.08L42.12 82.08L42.12 78.77L50.47 78.77ZM31.82 69.62L38.74 69.62C37.51 72.00 35.14 73.51 31.82 74.66ZM67.03 65.30L26.14 65.30L26.14 88.85L31.82 88.85L31.82 75.82C32.69 76.61 33.48 77.54 33.91 78.12C35.06 77.69 36.14 77.18 37.15 76.68L37.15 87.26L42.12 87.26L42.12 85.32L55.51 85.32L55.51 76.10L57.02 76.10C58.10 76.10 59.40 76.03 60.19 75.82C60.05 74.74 59.90 73.22 59.83 72.14C59.04 72.36 57.60 72.43 56.81 72.43L53.21 72.43C52.34 72.43 52.20 72.00 52.20 70.63L52.20 69.62L61.20 69.62L61.20 83.52C61.20 84.17 60.98 84.38 60.26 84.38C59.69 84.46 57.74 84.46 55.58 84.38C56.23 85.75 56.74 87.48 56.95 88.92C60.55 88.92 63.14 88.92 64.80 88.13C66.60 87.34 67.03 86.18 67.03 83.59ZM34.13 56.02L45.22 56.02L45.22 59.04L34.13 59.04ZM36.72 36.14L48.38 36.14L43.92 37.22C44.35 38.16 44.86 39.31 45.29 40.39L35.64 40.39C36.43 39.10 37.01 37.73 37.66 36.43ZM45.22 46.80L34.13 46.80L34.13 44.21L45.22 44.21ZM45.22 52.85L34.13 52.85L34.13 50.04L45.22 50.04ZM51.34 59.04L51.34 56.02L64.58 56.02L64.58 52.85L51.34 52.85L51.34 50.04L64.58 50.04L64.58 46.80L51.34 46.80L51.34 44.21L66.10 44.21L66.10 40.39L51.34 40.39C50.76 39.10 49.97 37.37 49.39 36.14L59.83 36.14L59.83 38.38L65.88 38.38L65.88 24.98L59.83 24.98L59.83 31.54L49.61 31.54L49.61 23.04L43.27 23.04L43.27 31.54L32.83 31.54L32.83 24.98L27.22 24.98L27.22 36.14L31.97 36.14C29.59 41.04 25.78 45.58 21.74 48.67C22.82 49.75 24.55 52.06 25.20 53.14C26.21 52.27 27.22 51.34 28.22 50.33L28.22 64.01L34.13 64.01L34.13 62.57L68.18 62.57L68.18 59.04Z"/></svg>
