<svg xmlns="http://www.w3.org/2000/svg" xmlns:xlink="http://www.w3.org/1999/xlink" width="72.00000000000001" height="106.56000000000002"><path fill="red" stroke="red" d="M38.66 46.51L38.66 43.34L52.99 43.34L52.99 46.51ZM52.99 30.24L52.99 33.12L38.66 33.12L38.66 30.24ZM38.66 36.72L52.99 36.72L52.99 39.74L38.66 39.74ZM52.99 54.29L59.26 54.29L59.26 51.41L68.62 51.41L68.62 46.51L59.26 46.51L59.26 30.24L66.89 30.24L66.89 25.49L25.99 25.49L25.99 30.24L32.47 30.24L32.47 46.51L24.05 46.51L24.05 51.41L52.99 51.41ZM22.82 56.23L21.02 50.40L17.14 52.56L17.14 43.34L22.82 43.34L22.82 37.15L17.14 37.15L17.14 23.18L10.94 23.18L10.94 37.15L3.60 37.15L3.60 43.34L10.94 43.34L10.94 56.02C7.85 57.74 5.04 59.26 2.74 60.41L4.82 66.67C6.70 65.59 8.86 64.44 10.94 63.22L10.94 81.29C10.94 82.22 10.66 82.44 9.79 82.44C9.00 82.51 6.55 82.51 3.82 82.37C4.68 84.17 5.47 86.98 5.62 88.63C9.94 88.63 12.67 88.42 14.62 87.34C16.49 86.33 17.14 84.53 17.14 81.29L17.14 59.54ZM37.80 63.43L31.25 63.43L31.25 60.26L37.80 60.26ZM31.25 77.76L31.25 74.30L37.80 74.30L37.80 77.33ZM37.80 70.56L31.25 70.56L31.25 67.18L37.80 67.18ZM23.40 60.26L26.21 60.26L26.21 78.05L22.25 78.26L22.97 83.23C27.36 82.80 32.47 82.22 37.80 81.65L37.80 89.21L42.91 89.21L42.91 60.26L45.14 60.26L45.14 55.58L23.40 55.58ZM54.07 77.40L54.07 74.02L60.70 74.02L60.70 77.40ZM60.70 60.26L60.70 63.36L54.07 63.36L54.07 60.26ZM54.07 67.10L60.70 67.10L60.70 70.34L54.07 70.34ZM69.12 77.40L65.88 77.40L65.88 60.26L68.83 60.26L68.83 55.58L46.30 55.58L46.30 60.26L48.89 60.26L48.89 77.40L45.50 77.40L45.50 82.15L60.70 82.15L60.70 89.21L65.88 89.21L65.88 82.15L69.12 82.15Z"/></svg>
