<svg xmlns="http://www.w3.org/2000/svg" xmlns:xlink="http://www.w3.org/1999/xlink" width="72.00000000000001" height="106.56000000000002"><path fill="red" stroke="red" d="M23.76 59.54L22.68 53.57L17.21 55.44L17.21 43.34L22.10 43.34L22.10 37.15L17.21 37.15L17.21 23.18L11.38 23.18L11.38 37.15L3.60 37.15L3.60 43.34L11.38 43.34L11.38 57.60C8.14 58.68 5.18 59.69 2.74 60.41L4.54 66.82L11.38 64.30L11.38 81.65C11.38 82.58 11.09 82.80 10.22 82.80C9.50 82.87 6.98 82.87 4.32 82.73C5.11 84.38 5.83 87.05 6.05 88.63C10.22 88.63 12.96 88.42 14.83 87.41C16.56 86.40 17.21 84.74 17.21 81.58L17.21 62.06ZM55.80 60.55L34.85 60.55L34.85 57.53L55.80 57.53ZM55.80 67.32L34.85 67.32L34.85 64.30L55.80 64.30ZM55.80 74.23L34.85 74.23L34.85 71.06L55.80 71.06ZM63.79 52.13C64.66 52.13 65.74 51.98 66.31 51.70C66.89 51.41 67.46 50.90 67.90 50.18C68.18 49.54 68.47 47.74 68.54 46.15C67.54 45.79 66.31 45.14 65.59 44.50C65.52 45.86 65.45 46.94 65.23 47.38C65.09 47.88 64.94 48.10 64.73 48.17C64.51 48.24 64.08 48.31 63.65 48.31L62.42 48.31C62.14 48.31 61.78 48.24 61.63 48.02C61.49 47.81 61.49 47.38 61.49 46.51L61.49 41.18L67.32 41.18L67.32 36.79L58.82 36.79L58.82 33.05L65.74 33.05L65.74 28.66L58.82 28.66L58.82 23.40L53.93 23.40L53.93 28.66L51.19 28.66C51.48 27.58 51.70 26.57 51.91 25.49L47.66 24.55C47.09 28.01 46.22 31.46 44.64 34.13C45.58 34.63 47.38 35.78 48.24 36.36C48.82 35.42 49.32 34.27 49.82 33.05L53.93 33.05L53.93 36.79L45.65 36.79L45.65 41.18L49.68 41.18C49.10 45.14 47.88 47.95 44.21 49.75C45.00 50.47 46.15 51.84 46.87 52.92L36.00 52.92C36.94 52.13 38.81 51.12 44.57 48.31C44.28 47.52 43.78 46.01 43.63 44.86L40.10 46.37L40.10 41.11L43.78 41.11L43.78 36.72L37.30 36.72L37.30 33.05L43.06 33.05L43.06 28.66L37.30 28.66L37.30 23.40L32.40 23.40L32.40 28.66L29.88 28.66C30.17 27.50 30.46 26.42 30.67 25.27L26.35 24.41C25.70 27.72 24.77 31.18 23.11 33.84C24.12 34.27 25.92 35.50 26.78 36.07C27.36 35.21 27.86 34.13 28.30 33.05L32.40 33.05L32.40 36.72L23.90 36.72L23.90 41.11L28.15 41.11C27.65 45.58 26.14 48.82 21.89 50.98C22.82 51.62 24.34 53.42 24.91 54.58C30.31 51.62 32.04 47.16 32.76 41.11L35.64 41.11L35.64 44.35C35.64 47.30 34.42 48.82 33.48 49.46C34.13 50.33 35.06 51.84 35.50 52.92L28.87 52.92L28.87 78.77L36.94 78.77C33.70 81.22 27.65 83.95 22.46 85.32C23.76 86.33 25.70 88.13 26.71 89.28C32.18 87.70 38.88 84.46 42.91 81.36L38.45 78.77L52.06 78.77L48.53 81.50C53.50 83.95 58.97 87.12 62.06 89.21L67.82 85.82C64.51 83.88 59.18 81.00 54.22 78.77L61.92 78.77L61.92 52.92L47.95 52.92C52.13 50.33 53.71 46.37 54.36 41.18L56.88 41.18L56.88 46.22C56.88 49.25 57.17 50.18 57.89 51.05C58.68 51.77 60.05 52.13 61.20 52.13Z"/></svg>
