<svg xmlns="http://www.w3.org/2000/svg" xmlns:xlink="http://www.w3.org/1999/xlink" width="72.00000000000001" height="106.56000000000002"><path fill="red" stroke="red" d="M44.06 42.34L57.38 42.34C56.02 50.83 54.00 58.03 50.90 64.08C47.66 57.89 45.43 50.69 43.85 42.91ZM68.33 42.34L68.33 36.14L46.22 36.14C47.30 32.33 48.31 28.30 49.18 24.26L42.55 23.04C40.39 34.56 36.65 45.65 31.25 52.99L31.25 27.86L5.47 27.86L5.47 34.49L24.62 34.49L24.62 48.24L6.34 48.24L6.34 75.17C6.34 77.76 5.11 78.84 3.96 79.42C4.97 81.14 6.12 84.46 6.48 86.33C8.28 84.82 11.38 83.45 32.04 75.53C31.61 74.09 31.25 71.21 31.18 69.26L13.03 75.60L13.03 54.86L31.25 54.86L31.25 54.79C32.69 56.16 34.56 58.03 35.42 59.11C36.94 56.95 38.45 54.58 39.89 51.98C41.69 58.82 43.99 65.02 47.02 70.49C42.91 75.96 37.44 80.21 30.31 83.30C31.61 84.82 33.55 87.91 34.27 89.42C41.11 86.04 46.58 81.79 50.83 76.61C54.65 81.65 59.40 85.82 65.09 88.78C66.10 87.05 68.18 84.46 69.70 83.16C63.72 80.42 58.82 76.18 54.94 70.78C59.54 63.22 62.42 53.78 64.37 42.34Z"/></svg>
