<svg xmlns="http://www.w3.org/2000/svg" xmlns:xlink="http://www.w3.org/1999/xlink" width="72.00000000000001" height="106.56000000000002"><path fill="red" stroke="red" d="M30.17 34.92L39.24 34.92L39.24 29.30L30.17 29.30L30.17 23.26L24.41 23.26L24.41 40.61L30.17 40.61ZM13.90 39.31L19.51 39.31L19.51 23.26L13.90 23.26L13.90 29.30L4.68 29.30L4.68 34.92L13.90 34.92ZM35.35 82.51C36.58 79.56 36.72 71.64 36.86 50.62C38.02 51.98 39.10 53.35 39.67 54.29C40.61 53.28 41.47 52.20 42.19 51.05C43.78 58.18 45.72 64.73 48.46 70.42C45.22 75.38 40.97 79.42 35.35 82.51ZM57.38 40.18C56.38 49.18 54.79 56.88 52.13 63.36C49.54 57.53 47.74 50.76 46.51 43.49C47.02 42.48 47.45 41.33 47.95 40.18ZM22.03 60.05L22.03 68.83L13.68 68.83L13.68 60.05ZM68.54 40.18L68.54 33.98L49.97 33.98C50.98 30.74 51.77 27.36 52.42 23.90L45.65 22.82C44.14 32.04 41.40 40.61 36.86 46.58L36.86 45.07L15.84 45.07C16.27 43.85 16.70 42.70 17.06 41.54L11.23 39.96C9.50 46.15 6.41 52.13 2.52 56.09C3.60 57.53 5.33 60.77 5.90 62.14C6.91 61.13 7.78 59.98 8.71 58.68L8.71 79.78L13.68 79.78L13.68 74.30L22.03 74.30L22.03 77.33L27.07 77.33L27.07 54.94L11.16 54.94C11.95 53.57 12.74 52.20 13.46 50.69L30.60 50.69C30.60 70.78 30.38 77.76 29.52 79.20C29.02 80.06 28.58 80.21 27.72 80.21C26.64 80.21 24.62 80.21 22.46 79.99C23.40 81.65 24.12 84.24 24.26 85.97C26.71 85.97 29.16 86.04 30.82 85.75C32.33 85.54 33.55 85.03 34.56 83.81C35.78 85.32 37.44 87.84 38.02 89.14C43.78 85.82 48.46 81.72 52.06 76.82C55.37 81.79 59.47 85.82 64.58 88.78C65.59 86.98 67.75 84.31 69.26 83.02C63.65 80.28 59.33 76.03 55.94 70.63C60.12 62.50 62.71 52.42 64.15 40.18Z"/></svg>
