<svg xmlns="http://www.w3.org/2000/svg" xmlns:xlink="http://www.w3.org/1999/xlink" width="72.00000000000001" height="106.56000000000002"><path fill="red" stroke="red" d="M38.38 52.20L38.38 59.18L22.46 59.18L22.46 52.20ZM22.46 72.14L22.46 64.58L38.38 64.58L38.38 72.14ZM67.46 32.69L24.05 32.69C25.13 30.10 26.14 27.43 27.00 24.77L19.94 23.11C16.34 34.99 9.94 46.22 2.38 53.21C4.10 54.22 7.13 56.52 8.50 57.74C11.16 54.94 13.75 51.62 16.13 47.95L16.13 82.08L22.46 82.08L22.46 77.98L44.78 77.98L44.78 46.30L17.14 46.30C18.58 43.99 19.87 41.62 21.17 39.10L60.48 39.10C59.76 67.46 58.75 79.06 56.30 81.43C55.44 82.44 54.58 82.66 53.06 82.66C51.12 82.66 46.37 82.66 41.18 82.22C42.41 84.17 43.27 87.12 43.42 88.99C48.10 89.28 52.99 89.35 55.80 88.99C58.82 88.70 60.70 87.98 62.57 85.46C65.66 81.65 66.46 69.84 67.46 36.22Z"/></svg>
