<svg xmlns="http://www.w3.org/2000/svg" xmlns:xlink="http://www.w3.org/1999/xlink" width="72.00000000000001" height="106.56000000000002"><path fill="red" stroke="red" d="M17.57 60.84L17.57 54.72L33.05 54.72L33.05 57.31C33.05 58.54 33.05 59.69 32.90 60.84ZM17.57 43.42L33.05 43.42L33.05 49.54L17.57 49.54ZM56.02 43.42L56.02 49.54L40.03 49.54L40.03 43.42ZM56.02 60.84L39.89 60.84C40.03 59.69 40.03 58.61 40.03 57.38L40.03 54.72L56.02 54.72ZM62.64 66.31L62.64 37.94L40.03 37.94L40.03 32.76L67.18 32.76L67.18 26.71L4.90 26.71L4.90 32.76L33.05 32.76L33.05 37.94L11.23 37.94L11.23 66.31L31.97 66.31C31.10 69.26 29.59 72.00 26.86 74.45C23.69 72.36 21.02 69.77 18.79 66.53L12.96 68.83C15.34 72.58 18.07 75.67 21.31 78.12C16.99 80.21 11.30 82.01 3.46 83.38C4.97 84.89 6.77 87.77 7.56 89.28C16.34 87.41 22.90 84.96 27.58 82.01C37.66 86.98 50.76 88.20 66.89 88.78C67.25 86.54 68.47 83.74 69.70 82.15C54.43 82.01 42.34 81.22 33.12 77.62C36.43 74.23 38.23 70.42 39.10 66.31Z"/></svg>
