<svg xmlns="http://www.w3.org/2000/svg" xmlns:xlink="http://www.w3.org/1999/xlink" width="72.00000000000001" height="106.56000000000002"><path fill="red" stroke="red" d="M15.70 59.90L26.93 59.90L26.93 66.10L15.70 66.10ZM26.93 38.02L26.93 43.42L15.70 43.42L15.70 38.02ZM15.70 48.67L26.93 48.67L26.93 54.65L15.70 54.65ZM38.02 66.10L33.12 66.10L33.12 38.02L38.30 38.02L38.30 32.18L33.12 32.18L33.12 23.90L26.93 23.90L26.93 32.18L15.70 32.18L15.70 23.90L9.65 23.90L9.65 32.18L3.82 32.18L3.82 38.02L9.65 38.02L9.65 66.10L2.95 66.10L2.95 71.93L38.02 71.93ZM12.38 73.08C10.30 77.62 6.62 82.22 2.74 85.32C4.32 86.26 6.91 88.13 8.06 89.28C11.95 85.75 16.13 80.21 18.72 74.81ZM22.75 75.67C25.49 79.06 28.80 83.74 30.24 86.62L35.64 83.38C34.13 80.50 30.67 76.10 27.86 72.86ZM47.45 59.18C47.59 56.88 47.59 54.58 47.59 52.49L47.59 48.67L60.26 48.67L60.26 59.18ZM60.26 32.62L60.26 42.77L47.59 42.77L47.59 32.62ZM66.74 26.57L41.26 26.57L41.26 52.49C41.26 62.78 40.75 76.25 35.06 85.68C36.50 86.33 39.31 88.27 40.39 89.50C44.50 82.94 46.22 73.80 47.02 65.23L60.26 65.23L60.26 81.22C60.26 82.37 59.83 82.66 58.75 82.73C57.82 82.73 54.22 82.80 50.83 82.66C51.70 84.31 52.56 87.26 52.78 88.99C58.10 89.06 61.56 88.92 63.72 87.77C65.95 86.76 66.74 84.82 66.74 81.29Z"/></svg>
