<svg xmlns="http://www.w3.org/2000/svg" xmlns:xlink="http://www.w3.org/1999/xlink" width="72.00000000000001" height="106.56000000000002"><path fill="red" stroke="red" d="M31.39 59.90C29.88 57.60 22.97 47.81 20.74 45.07L20.74 42.91L29.23 42.91L29.23 36.72L20.74 36.72L20.74 23.18L14.18 23.18L14.18 36.72L3.60 36.72L3.60 42.91L13.54 42.91C11.23 52.27 6.62 63.07 1.87 68.76C3.02 70.49 4.68 73.44 5.33 75.38C8.64 70.92 11.81 63.86 14.18 56.38L14.18 89.21L20.74 89.21L20.74 52.99C23.18 57.10 25.99 62.06 27.22 64.87ZM68.04 42.98L68.04 36.65L57.60 36.65C57.67 32.33 57.74 27.79 57.74 23.33L51.12 23.33C51.12 27.86 51.12 32.33 51.05 36.65L31.25 36.65L31.25 42.98L50.83 42.98C50.33 51.26 49.18 58.82 46.37 65.38C43.06 60.12 40.54 54.14 38.74 47.66L32.90 48.89C35.21 57.60 38.45 65.30 42.84 71.71C39.24 76.75 34.06 80.93 26.71 84.10C28.30 85.32 30.24 87.70 31.03 89.28C38.09 86.11 43.27 82.01 47.09 77.11C51.84 82.44 57.60 86.54 64.73 89.21C65.66 87.34 67.68 84.60 69.19 83.30C61.78 80.86 55.73 76.68 50.90 71.28C55.15 63.14 56.66 53.50 57.31 42.98Z"/></svg>
