<svg xmlns="http://www.w3.org/2000/svg" xmlns:xlink="http://www.w3.org/1999/xlink" width="72.00000000000001" height="106.56000000000002"><path fill="red" stroke="red" d="M32.47 65.38C30.82 63.07 23.69 53.93 20.81 50.62L20.81 44.50L30.02 44.50L30.02 38.16L20.81 38.16L20.81 23.11L14.40 23.11L14.40 38.16L3.89 38.16L3.89 44.50L13.54 44.50C11.30 54.07 6.77 65.09 2.02 71.21C3.17 72.86 4.75 75.46 5.47 77.40C8.78 72.79 11.95 65.74 14.40 58.18L14.40 89.14L20.81 89.14L20.81 58.46C23.69 62.64 26.93 67.75 28.51 70.78ZM41.40 43.06L56.52 43.06C55.01 51.19 52.78 58.68 48.96 65.09C45.07 58.54 42.62 51.12 40.97 43.85ZM68.47 43.06L68.47 36.72L43.99 36.72C45.43 32.83 46.66 28.66 47.59 24.41L40.61 23.04C38.23 34.56 33.77 45.07 27.22 51.77C28.66 53.21 30.89 56.38 31.68 57.96C33.55 55.94 35.35 53.71 36.94 51.26C38.66 57.96 41.18 64.80 44.86 70.92C40.39 76.39 34.49 80.78 26.50 83.88C27.86 85.32 29.74 87.91 30.67 89.42C38.30 86.26 44.21 81.86 48.89 76.68C52.99 81.86 58.25 86.33 64.94 89.50C65.95 87.55 68.18 84.60 69.55 83.23C62.64 80.35 57.31 76.18 53.14 71.14C58.46 63.07 61.63 53.50 63.79 43.06Z"/></svg>
