<svg xmlns="http://www.w3.org/2000/svg" xmlns:xlink="http://www.w3.org/1999/xlink" width="72.00000000000001" height="106.56000000000002"><path fill="red" stroke="red" d="M56.74 34.70C54.72 37.87 52.13 40.68 48.96 43.06C45.79 40.46 43.42 37.58 41.69 34.70ZM67.82 34.70L67.82 29.52L44.86 29.52C45.79 27.94 46.58 26.28 47.23 24.62L41.33 23.04C38.59 29.52 33.77 35.50 28.37 39.38C29.52 40.46 31.68 43.06 32.62 44.28C34.49 42.77 36.36 40.97 38.16 39.02C39.74 41.47 41.69 43.92 44.14 46.22C39.60 48.74 34.34 50.76 28.73 52.13C29.88 53.50 31.75 56.23 32.47 57.60C38.45 55.80 44.06 53.35 49.03 50.18C53.50 53.35 58.97 55.94 65.45 57.53C66.31 55.94 67.97 53.35 69.26 52.13C63.36 50.98 58.32 48.96 54.07 46.58C58.10 43.27 61.49 39.38 64.01 34.70ZM16.27 23.18C13.18 33.91 7.99 44.64 2.23 51.70C3.31 53.42 5.04 57.10 5.54 58.75C7.27 56.59 8.93 54.29 10.58 51.70L10.58 89.21L16.92 89.21L16.92 39.60C19.08 34.85 20.95 29.81 22.54 24.91ZM27.65 32.98L21.89 32.98L21.89 77.11L27.65 77.11ZM36.29 70.06C34.06 74.59 30.53 79.20 26.64 82.30C28.15 83.02 30.67 84.60 31.82 85.61C35.50 82.15 39.53 76.82 42.05 71.78ZM67.10 67.54L67.10 61.78L51.70 61.78L51.70 55.01L45.43 55.01L45.43 61.78L30.96 61.78L30.96 67.54L45.43 67.54L45.43 89.06L51.70 89.06L51.70 67.54ZM55.01 72.36C58.46 76.03 62.14 81.29 63.72 84.82L68.90 81.94C67.25 78.48 63.58 73.51 59.98 69.84Z"/></svg>
