<svg xmlns="http://www.w3.org/2000/svg" xmlns:xlink="http://www.w3.org/1999/xlink" width="72.00000000000001" height="106.56000000000002"><path fill="red" stroke="red" d="M29.30 59.40C27.94 57.60 22.25 50.04 20.09 47.52L20.09 44.35L28.73 44.35L28.73 38.16L20.09 38.16L20.09 23.11L13.75 23.11L13.75 38.16L3.89 38.16L3.89 44.35L13.18 44.35C11.16 53.57 7.06 64.22 2.74 70.20C3.82 71.78 5.40 74.52 6.05 76.32C8.93 72.22 11.59 65.95 13.75 59.26L13.75 89.14L20.09 89.14L20.09 55.51C22.18 58.75 24.34 62.35 25.34 64.58ZM37.30 44.71L59.11 44.71L59.11 49.90L37.30 49.90ZM37.30 34.92L59.11 34.92L59.11 39.89L37.30 39.89ZM66.96 60.34L50.98 60.34L50.98 54.94L65.59 54.94L65.59 29.88L49.68 29.88C50.40 28.01 51.19 25.78 51.91 23.62L44.28 22.97C44.06 24.91 43.56 27.58 43.06 29.88L31.10 29.88L31.10 54.94L44.57 54.94L44.57 60.34L29.30 60.34L29.30 83.38L35.50 83.38L35.50 66.17L44.57 66.17L44.57 89.06L50.98 89.06L50.98 66.17L60.62 66.17L60.62 76.90C60.62 77.62 60.41 77.76 59.69 77.76C59.04 77.83 56.81 77.83 54.36 77.76C55.15 79.34 55.87 81.72 56.09 83.38C59.90 83.38 62.64 83.38 64.58 82.44C66.53 81.50 66.96 79.85 66.96 77.04Z"/></svg>
