<svg xmlns="http://www.w3.org/2000/svg" xmlns:xlink="http://www.w3.org/1999/xlink" width="72.00000000000001" height="106.56000000000002"><path fill="red" stroke="red" d="M19.01 42.91L26.35 42.91L26.35 36.72L19.01 36.72L19.01 23.18L12.89 23.18L12.89 36.72L3.60 36.72L3.60 42.91L12.17 42.91C10.30 52.13 6.48 62.93 2.38 68.69C3.46 70.49 4.97 73.51 5.69 75.38C8.35 71.14 10.87 64.73 12.89 57.67L12.89 89.14L19.01 89.14L19.01 54.72C20.66 57.89 22.18 61.27 22.97 63.36L27.14 58.54C25.99 56.59 21.10 48.89 19.01 45.94ZM45.72 64.30L45.72 71.71L36.94 71.71L36.94 64.30ZM51.48 76.54L51.48 59.47L31.32 59.47L31.32 80.50L36.94 80.50L36.94 76.54ZM33.19 49.10C40.32 47.38 44.71 44.64 47.45 41.04C52.78 43.63 58.82 46.94 62.28 49.10ZM68.90 49.10L63.14 49.10L67.18 44.86C63.14 42.41 55.80 38.74 50.04 36.07C50.18 35.50 50.33 34.99 50.47 34.42L66.38 34.42L66.38 29.02L51.48 29.02C51.77 27.22 51.91 25.27 51.98 23.18L45.50 23.18C45.43 25.27 45.29 27.22 45.07 29.02L29.88 29.02L29.88 34.42L43.85 34.42C41.83 39.67 37.66 42.84 28.15 44.71C29.23 45.79 30.60 47.59 31.25 49.10L26.93 49.10L26.93 54.72L57.38 54.72L57.38 81.86C57.38 82.94 57.02 83.23 55.80 83.23C54.65 83.30 50.47 83.30 46.22 83.16C47.16 84.82 48.31 87.48 48.67 89.21C54.36 89.21 58.18 89.06 60.70 88.06C63.22 87.19 63.94 85.39 63.94 82.01L63.94 54.72L68.90 54.72Z"/></svg>
