<svg xmlns="http://www.w3.org/2000/svg" xmlns:xlink="http://www.w3.org/1999/xlink" width="72.00000000000001" height="106.56000000000002"><path fill="red" stroke="red" d="M31.75 69.77C31.90 68.18 31.90 66.60 31.90 65.23L31.90 64.87L40.61 64.87L40.61 69.77ZM40.61 55.22L40.61 59.98L31.90 59.98L31.90 55.22ZM45.86 49.97L26.50 49.97L26.50 65.16C26.50 71.57 26.14 79.85 22.18 85.97C23.54 86.54 25.85 88.20 26.78 89.28C29.45 85.10 30.67 79.85 31.32 74.74L40.61 74.74L40.61 82.73C40.61 83.45 40.46 83.59 39.74 83.66C39.10 83.66 37.15 83.66 34.92 83.59C35.64 85.03 36.29 87.41 36.50 88.85C39.82 88.85 42.12 88.78 43.85 87.84C45.43 86.98 45.86 85.39 45.86 82.87ZM59.83 82.44C59.83 83.30 59.62 83.52 58.68 83.52C57.82 83.59 55.01 83.59 51.91 83.45C52.56 85.03 53.28 87.41 53.50 88.85C57.74 88.85 60.70 88.78 62.57 87.84C64.51 87.05 65.02 85.39 65.02 82.44L65.02 48.82L59.83 48.82ZM54.86 51.55L49.82 51.55L49.82 77.40L54.86 77.40ZM34.06 40.75C38.23 38.09 42.19 34.85 45.58 31.32C49.03 34.78 53.42 38.09 57.82 40.75ZM45.29 22.75C40.61 29.23 31.97 35.71 23.54 39.10L23.54 36.65L17.42 36.65L17.42 23.18L11.66 23.18L11.66 36.65L3.82 36.65L3.82 42.55L11.45 42.55C9.79 51.77 6.19 62.86 2.23 68.76C3.24 70.49 4.82 73.44 5.47 75.46C7.70 71.64 9.86 66.02 11.66 59.90L11.66 89.21L17.42 89.21L17.42 54.86C19.08 57.96 20.74 61.34 21.53 63.36L25.56 58.68C24.41 56.74 19.51 49.39 17.42 46.37L17.42 42.55L23.54 42.55L23.54 41.33C24.62 42.55 25.70 43.92 26.35 44.86C27.86 44.21 29.52 43.42 31.18 42.48L31.18 46.01L58.32 46.01L58.32 41.04C60.70 42.48 63.14 43.70 65.45 44.71C66.46 43.20 68.26 40.97 69.70 39.74C62.57 37.15 54.14 32.11 49.25 27.14C49.75 26.42 50.26 25.78 50.76 25.06Z"/></svg>
