<svg xmlns="http://www.w3.org/2000/svg" xmlns:xlink="http://www.w3.org/1999/xlink" width="72.00000000000001" height="106.56000000000002"><path fill="red" stroke="red" d="M17.35 44.42L23.40 44.42L23.40 38.30L17.35 38.30L17.35 23.18L11.52 23.18L11.52 38.30L3.82 38.30L3.82 44.42L11.23 44.42C9.58 53.71 6.12 64.58 2.38 70.42C3.31 71.86 4.75 74.30 5.33 75.96C7.63 72.07 9.72 66.17 11.52 59.90L11.52 89.21L17.35 89.21L17.35 55.51C18.94 58.90 20.59 62.64 21.38 64.80L24.55 60.05C23.54 58.18 19.30 50.83 17.35 47.81ZM38.74 25.20L37.94 25.49L24.84 25.49L24.84 89.14L30.02 89.14L30.02 30.89L36.36 30.89C35.35 36.22 33.98 43.20 32.54 48.82C36.07 55.01 36.79 60.26 36.79 64.51C36.79 66.82 36.50 69.19 35.71 69.98C35.28 70.42 34.70 70.56 34.06 70.56C33.26 70.63 32.26 70.63 31.18 70.49C31.90 71.86 32.33 73.80 32.33 75.10C33.62 75.17 34.92 75.17 35.93 75.02C37.15 74.88 38.30 74.45 39.10 73.73C40.68 72.36 41.33 69.05 41.33 65.02C41.33 60.34 40.54 54.79 36.86 48.38C38.74 41.76 40.61 33.34 42.05 27.14ZM50.40 66.17C52.99 67.46 56.23 69.48 57.96 70.78L60.77 67.03C59.11 65.81 55.94 64.22 53.14 62.93ZM50.26 61.27L61.42 61.27L61.42 71.93C57.10 73.08 53.14 74.30 50.04 75.02C50.18 72.94 50.26 71.06 50.26 69.19ZM66.74 56.45L45.00 56.45L45.00 69.12C45.00 74.59 44.57 81.58 40.54 86.76C41.76 87.26 44.14 88.92 45.14 89.93C48.17 85.97 49.39 80.64 49.97 75.60L51.77 80.14C54.79 78.98 58.03 77.62 61.42 76.25L61.42 83.38C61.42 84.10 61.20 84.24 60.48 84.24C59.83 84.31 57.82 84.31 55.58 84.24C56.23 85.68 56.95 87.77 57.10 89.21C60.62 89.21 63.00 89.21 64.73 88.34C66.38 87.41 66.74 86.04 66.74 83.45ZM68.83 33.26L68.83 28.08L55.51 28.08C56.02 26.57 56.45 25.13 56.81 23.62L51.41 22.68C51.05 24.41 50.54 26.28 49.90 28.08L43.42 28.08L43.42 33.26L47.88 33.26C45.86 37.51 43.13 41.54 39.74 44.42C40.90 45.22 42.70 46.73 43.70 47.81C45.58 46.15 47.38 44.06 48.89 41.83L48.89 42.26L53.93 42.26L53.93 47.66L45.07 47.66L45.07 52.13L68.76 52.13L68.76 47.66L59.18 47.66L59.18 42.26L66.67 42.26L66.67 37.58L51.48 37.58C52.20 36.22 52.92 34.70 53.57 33.26Z"/></svg>
