<svg xmlns="http://www.w3.org/2000/svg" xmlns:xlink="http://www.w3.org/1999/xlink" width="72.00000000000001" height="106.56000000000002"><path fill="red" stroke="red" d="M47.59 31.32L55.51 31.32L55.51 42.26C55.51 48.17 56.59 50.47 61.85 50.47L65.45 50.47C66.74 50.47 68.11 50.40 68.98 50.04C68.76 48.60 68.62 46.30 68.47 44.64C67.61 44.93 66.31 45.07 65.45 45.07L62.42 45.07C61.56 45.07 61.42 44.35 61.42 42.34L61.42 25.92L41.76 25.92L41.76 35.93C41.76 40.61 41.04 45.94 35.57 50.04C36.79 50.83 39.10 53.14 40.03 54.29C46.37 49.46 47.59 42.05 47.59 36.00ZM16.49 37.73L6.26 37.73L6.26 42.98L32.54 42.98L32.54 37.73L22.68 37.73L22.68 33.77L34.70 33.77L34.70 28.51L22.68 28.51L22.68 23.18L16.49 23.18L16.49 28.51L3.96 28.51L3.96 33.77L16.49 33.77ZM34.63 57.02L34.63 46.22L4.03 46.22L4.03 57.02L9.36 57.02L9.36 51.41L29.16 51.41L29.16 57.02ZM29.09 59.62L29.09 54.65L9.58 54.65L9.58 59.62ZM28.44 75.82L28.44 62.78L9.43 62.78L9.43 71.21C9.43 75.60 8.71 80.64 3.02 84.53C4.18 85.25 6.55 87.26 7.42 88.27C13.68 83.88 14.98 76.97 14.98 71.35L14.98 68.04L22.82 68.04L22.82 75.82C22.82 78.70 21.89 80.28 20.88 81.07C21.82 82.30 23.26 85.18 23.83 86.69L25.06 85.18C26.50 83.81 29.45 81.50 36.50 76.82C36.00 75.60 35.35 73.37 35.06 71.86ZM58.82 60.05C57.17 64.08 55.01 67.75 52.27 70.99C49.75 67.75 47.88 64.08 46.44 60.05ZM62.50 54.29L61.42 54.58L38.09 54.58L38.09 60.05L44.71 60.05L41.11 60.98C42.84 66.31 45.29 70.99 48.38 75.02C43.85 79.13 38.59 82.15 32.98 84.02C34.20 85.32 35.71 87.62 36.50 89.14C42.19 86.90 47.59 83.74 52.20 79.56C56.02 83.38 60.77 86.33 66.24 88.34C66.96 86.83 68.62 84.53 69.98 83.45C64.58 81.72 59.98 78.98 56.16 75.38C60.62 70.13 64.15 63.72 66.31 55.94Z"/></svg>
