<svg xmlns="http://www.w3.org/2000/svg" xmlns:xlink="http://www.w3.org/1999/xlink" width="72.00000000000001" height="106.56000000000002"><path fill="red" stroke="red" d="M47.66 31.75L56.02 31.75L56.02 41.98C56.02 47.66 57.02 49.90 62.14 49.90L65.74 49.90C66.96 49.90 68.26 49.82 69.12 49.46C68.90 48.10 68.69 45.86 68.62 44.28C67.82 44.57 66.53 44.64 65.66 44.64L62.78 44.64C61.92 44.64 61.85 43.99 61.85 42.12L61.85 25.92L41.90 25.92L41.90 35.93C41.90 40.03 41.33 44.06 36.07 47.16C37.08 48.17 38.95 51.05 39.53 52.49C46.22 48.53 47.66 41.90 47.66 36.14ZM30.89 30.82L30.89 37.51L12.67 37.51L12.67 30.82ZM17.57 57.17L17.57 65.30L12.10 65.30C12.31 62.57 12.46 59.76 12.60 57.17ZM27.65 57.17L27.65 65.30L22.39 65.30L22.39 57.17ZM11.52 70.63L38.09 70.63L38.09 65.30L32.54 65.30L32.54 57.17L36.36 57.17L36.36 51.91L32.54 51.91L32.54 44.28L27.65 44.28L27.65 51.91L22.39 51.91L22.39 44.28L17.57 44.28L17.57 51.91L12.67 51.91L12.67 50.40L12.67 42.70L36.94 42.70L36.94 25.63L6.84 25.63L6.84 50.54C6.84 60.62 6.48 74.38 1.73 83.88C3.17 84.53 5.69 86.26 6.77 87.26C9.22 82.37 10.73 76.25 11.52 69.98ZM17.64 72.86C16.27 77.40 14.11 82.08 11.45 85.32C12.89 86.11 15.19 87.62 16.27 88.56C18.94 84.96 21.67 79.49 23.33 74.30ZM59.11 59.40C57.46 64.22 55.15 68.40 52.20 71.93C49.32 68.33 47.09 64.08 45.58 59.40ZM62.71 53.21L61.56 53.42L37.80 53.42L37.80 59.40L41.69 59.40L39.82 59.90C41.76 66.17 44.50 71.71 48.02 76.18C44.86 78.84 41.40 81.00 37.73 82.58C36.50 79.70 33.98 75.46 31.54 72.29L26.50 74.38C28.94 77.69 31.54 82.30 32.54 85.32L35.42 83.95C36.50 85.32 37.80 87.62 38.45 89.14C43.49 87.12 48.10 84.38 52.06 80.86C55.80 84.46 60.26 87.19 65.52 89.14C66.31 87.48 68.11 84.96 69.48 83.59C64.44 82.08 60.05 79.56 56.45 76.32C61.06 70.78 64.51 63.65 66.46 54.65Z"/></svg>
