<svg xmlns="http://www.w3.org/2000/svg" xmlns:xlink="http://www.w3.org/1999/xlink" width="72.00000000000001" height="106.56000000000002"><path fill="red" stroke="red" d="M68.04 28.44L40.46 28.44C39.38 26.57 38.02 24.19 36.72 22.46L30.53 24.26C31.32 25.56 32.11 27.00 32.98 28.44L4.03 28.44L4.03 33.62L68.04 33.62ZM20.66 40.75L51.55 40.75L51.55 45.50L20.66 45.50ZM58.61 49.54L58.61 36.79L13.97 36.79L13.97 49.54ZM10.87 57.46L61.06 57.46L61.06 64.58L67.18 64.58L67.18 52.85L4.97 52.85L4.97 65.02L10.87 65.02ZM42.62 83.38C37.94 83.38 37.01 82.87 37.01 80.50L37.01 79.27L65.38 77.40L64.94 73.08L37.01 74.88L37.01 71.57L60.98 69.98L60.55 65.95L37.01 67.54L37.01 64.15C43.56 63.50 49.75 62.64 54.50 61.56L51.84 57.82C43.06 59.76 27.36 61.20 14.54 61.85C15.05 62.93 15.62 64.51 15.62 65.66C20.30 65.45 25.34 65.16 30.38 64.73L30.38 67.90L9.07 69.26L9.43 73.37L30.38 72.00L30.38 75.24L5.69 76.90L6.12 81.36L30.38 79.70L30.38 80.50C30.38 86.62 33.05 88.20 42.26 88.20L59.62 88.20C66.38 88.20 68.40 86.54 69.19 80.06C67.39 79.78 64.94 78.98 63.50 78.12C63.07 82.58 62.35 83.38 58.97 83.38Z"/></svg>
