<svg xmlns="http://www.w3.org/2000/svg" xmlns:xlink="http://www.w3.org/1999/xlink" width="72.00000000000001" height="106.56000000000002"><path fill="red" stroke="red" d="M19.01 50.76L19.01 36.29C24.98 35.86 31.25 35.28 37.37 34.56C37.51 40.18 37.87 45.58 38.45 50.76ZM67.90 57.38L67.90 50.76L45.22 50.76C44.57 45.50 44.21 39.67 44.14 33.62C50.83 32.69 57.02 31.46 62.28 30.10L58.82 24.05C47.38 27.29 28.44 29.59 12.17 30.74L12.17 77.04C12.17 80.06 10.66 81.58 9.36 82.30C10.37 83.52 11.74 86.33 12.17 87.91C14.04 86.69 17.14 85.68 38.45 79.56C38.16 78.12 37.87 75.31 37.94 73.44L19.01 78.48L19.01 57.38L39.31 57.38C42.41 75.53 48.74 88.42 59.62 88.42C65.52 88.42 67.82 85.61 68.90 74.66C67.18 74.09 64.73 72.72 63.36 71.28C62.86 78.98 62.06 81.79 59.98 81.79C53.71 81.79 48.82 72.00 46.15 57.38Z"/></svg>
