<svg xmlns="http://www.w3.org/2000/svg" xmlns:xlink="http://www.w3.org/1999/xlink" width="72.00000000000001" height="106.56000000000002"><path fill="red" stroke="red" d="M24.98 31.39C21.67 29.16 15.19 25.78 10.66 23.69L6.91 28.51C11.59 30.96 18.00 34.70 21.10 36.94ZM20.74 49.75C17.42 47.74 10.80 44.78 6.34 42.91L2.74 47.95C7.42 50.04 13.90 53.35 17.06 55.51ZM11.30 88.34C15.55 81.58 20.30 73.01 24.05 65.52L19.15 61.06C14.98 69.26 9.43 78.41 5.62 83.88ZM69.19 47.16L49.90 47.16L49.90 23.40L42.77 23.40L42.77 47.16L23.47 47.16L23.47 54.07L42.77 54.07L42.77 89.21L49.90 89.21L49.90 54.07L69.19 54.07Z"/></svg>
