<svg xmlns="http://www.w3.org/2000/svg" xmlns:xlink="http://www.w3.org/1999/xlink" width="72.00000000000001" height="106.56000000000002"><path fill="red" stroke="red" d="M23.47 30.96C20.52 29.02 14.76 25.99 10.73 24.05L6.91 28.87C11.09 31.10 16.78 34.34 19.66 36.36ZM18.86 50.11C16.06 48.38 10.37 45.43 6.55 43.56L2.95 48.53C6.84 50.62 12.46 53.78 15.12 55.66ZM11.23 88.06C15.19 81.29 19.73 72.79 23.18 65.30L18.07 61.06C14.11 69.26 9.00 78.34 5.40 83.88ZM40.68 82.58C35.71 82.58 34.85 81.72 34.85 77.54L34.85 53.06L44.06 49.39L44.06 72.94L50.04 72.94L50.04 47.09L60.19 43.13C59.98 52.34 59.54 62.78 58.68 69.19L64.30 70.70C65.66 62.14 66.38 48.53 66.67 38.23L66.96 37.15L61.99 35.50L61.92 35.50L61.85 35.57L50.04 40.18L50.04 23.40L44.06 23.40L44.06 42.55L34.85 46.15L34.85 30.74L28.58 30.74L28.58 48.60L19.66 52.13L22.25 58.03L28.58 55.58L28.58 77.47C28.58 86.33 31.18 88.56 40.39 88.56L58.10 88.56C66.31 88.56 68.33 85.18 69.41 74.95C67.54 74.59 64.94 73.51 63.36 72.43C62.71 80.71 61.99 82.58 57.74 82.58Z"/></svg>
