<svg xmlns="http://www.w3.org/2000/svg" xmlns:xlink="http://www.w3.org/1999/xlink" width="72.00000000000001" height="106.56000000000002"><path fill="red" stroke="red" d="M50.18 42.91L50.18 79.06C50.18 86.26 51.84 88.13 56.95 88.13L62.35 88.13C67.46 88.13 68.90 84.46 69.41 72.72C67.68 72.22 64.94 71.06 63.50 69.84C63.29 79.92 63.07 81.94 61.70 81.94L58.18 81.94C56.95 81.94 56.74 81.58 56.74 79.06L56.74 42.91ZM34.49 42.91L34.49 52.99C34.49 62.42 33.05 75.24 21.60 84.10C22.97 85.10 25.42 87.70 26.35 89.06C38.66 79.27 41.04 63.94 41.04 53.06L41.04 42.91ZM24.84 27.58L24.84 42.48L31.18 42.48L31.18 33.91L60.91 33.91L60.91 42.48L67.54 42.48L67.54 27.58ZM10.73 88.27C14.98 81.36 19.94 72.50 23.83 64.73L18.79 60.34C14.54 68.69 8.93 78.12 5.04 83.81ZM2.81 47.74C7.34 49.68 12.96 52.85 15.70 55.15L19.58 49.75C16.78 47.45 10.94 44.57 6.48 42.91ZM6.98 28.51C11.38 30.67 16.70 34.20 19.15 36.86L23.47 31.75C20.81 29.16 15.41 25.85 11.02 23.90Z"/></svg>
