<svg xmlns="http://www.w3.org/2000/svg" xmlns:xlink="http://www.w3.org/1999/xlink" width="72.00000000000001" height="106.56000000000002"><path fill="red" stroke="red" d="M53.71 39.60L18.22 39.60L18.22 34.63L53.71 34.63ZM53.71 49.68L18.22 49.68L18.22 44.57L53.71 44.57ZM60.70 29.38L36.94 29.38C37.94 27.79 39.02 26.14 40.10 24.41L32.18 23.18C31.54 24.98 30.46 27.36 29.30 29.38L11.59 29.38L11.59 54.86L60.70 54.86ZM24.91 61.63L23.69 61.85L5.18 61.85L5.18 67.68L20.23 67.68C16.42 74.02 9.65 78.91 2.45 81.43C3.67 82.66 5.47 85.25 6.26 86.90C16.49 82.73 25.20 75.02 29.09 63.29ZM59.33 57.46C55.87 60.84 50.33 65.09 45.50 68.18C42.98 65.74 40.82 63.00 39.17 59.98L39.17 56.16L32.47 56.16L32.47 82.01C32.47 83.02 32.18 83.30 30.96 83.30C29.88 83.38 25.70 83.38 21.74 83.23C22.61 84.82 23.54 87.26 23.83 88.92C29.45 88.92 33.34 88.85 35.86 87.98C38.38 87.12 39.17 85.54 39.17 82.15L39.17 69.84C45.50 77.76 54.43 83.45 65.23 86.33C66.17 84.53 68.11 81.72 69.55 80.42C62.14 78.77 55.44 75.82 49.97 71.93C54.86 69.05 60.41 65.30 65.09 61.70Z"/></svg>
