<svg xmlns="http://www.w3.org/2000/svg" xmlns:xlink="http://www.w3.org/1999/xlink" width="72.00000000000001" height="106.56000000000002"><path fill="red" stroke="red" d="M20.45 32.18C18.14 29.81 13.39 26.21 9.86 23.62L5.54 27.72C9.14 30.38 13.68 34.34 15.91 36.79ZM16.99 51.19C14.69 48.89 9.86 45.65 6.34 43.56L2.59 47.95C6.19 50.33 10.80 53.86 13.10 56.23ZM12.38 62.64C9.72 70.56 6.05 79.56 3.38 84.89L8.57 88.27C11.38 81.79 14.54 73.37 16.92 66.02ZM21.38 57.17C20.52 63.43 19.08 70.13 16.78 74.59C18.14 75.24 20.59 76.68 21.74 77.47C24.12 72.72 26.06 65.30 27.14 58.18ZM45.72 52.20L45.72 46.08L34.20 46.08L34.20 38.23L43.27 38.23L43.27 32.18L34.20 32.18L34.20 23.62L28.08 23.62L28.08 46.08L17.78 46.08L17.78 52.20L29.23 52.20L29.23 81.50C29.23 82.30 29.02 82.51 28.15 82.51C27.36 82.51 24.62 82.51 21.82 82.44C22.68 84.17 23.47 86.83 23.69 88.49C27.79 88.49 30.74 88.42 32.76 87.41C34.78 86.47 35.28 84.67 35.28 81.58L35.28 52.20ZM47.09 71.28C46.08 67.54 43.78 61.42 41.69 56.66L36.65 58.61C38.59 63.43 40.75 69.84 41.62 73.66ZM61.20 34.70C60.12 44.35 58.18 52.92 55.58 60.12C53.42 52.49 52.06 43.85 51.12 34.70ZM63.65 28.30L62.57 28.51L44.14 28.51L44.14 34.70L48.67 34.70L45.65 35.06C46.94 47.45 48.82 58.82 51.98 68.26C48.24 75.38 43.49 80.78 37.87 84.17C39.31 85.32 40.97 87.62 41.98 89.14C47.02 85.75 51.26 81.22 54.86 75.46C57.53 81.14 60.84 85.82 65.09 89.42C66.02 87.77 68.11 85.46 69.55 84.24C64.87 80.64 61.34 75.24 58.54 68.69C63.22 58.61 66.17 45.58 67.32 29.09Z"/></svg>
