<svg xmlns="http://www.w3.org/2000/svg" xmlns:xlink="http://www.w3.org/1999/xlink" width="72.00000000000001" height="106.56000000000002"><path fill="red" stroke="red" d="M20.88 30.82C18.43 28.44 13.46 25.56 9.50 23.83L5.76 28.58C9.65 30.60 14.62 33.84 16.85 36.14ZM18.14 49.32C15.70 47.09 10.58 44.42 6.48 42.84L2.74 47.74C6.84 49.54 11.88 52.56 14.26 54.72ZM13.03 61.99C10.15 70.13 6.19 79.27 3.38 84.82L9.29 88.20C12.31 81.50 15.70 72.94 18.29 65.38ZM59.76 24.12L59.76 41.11L52.56 41.11L52.56 25.49L47.02 25.49L47.02 47.02L59.76 47.02L59.76 52.06L29.02 52.06L29.02 49.46L29.02 47.02L41.47 47.02L41.47 25.49L36.00 25.49L36.00 41.11L29.02 41.11L29.02 24.26L23.11 24.26L23.11 49.46C23.11 62.21 22.32 75.17 15.77 85.61C17.42 86.40 20.02 88.20 21.17 89.35C24.98 83.23 26.93 76.32 27.94 69.05L35.71 69.05L35.71 87.62L41.26 87.62L41.26 63.22L28.58 63.22C28.73 61.49 28.80 59.69 28.87 57.96L59.76 57.96L59.76 63.22L47.02 63.22L47.02 87.62L52.63 87.62L52.63 69.05L59.76 69.05L59.76 89.14L65.95 89.14L65.95 24.12Z"/></svg>
