<svg xmlns="http://www.w3.org/2000/svg" xmlns:xlink="http://www.w3.org/1999/xlink" width="72.00000000000001" height="106.56000000000002"><path fill="red" stroke="red" d="M21.17 31.54C18.65 29.30 13.39 26.21 9.65 24.34L6.41 29.23C10.30 31.32 15.41 34.70 17.86 37.08ZM17.50 50.33C14.83 48.10 9.50 45.29 5.69 43.70L2.59 48.74C6.55 50.69 11.88 53.78 14.40 55.94ZM9.58 87.98C13.18 81.43 17.14 73.15 20.38 65.88L16.13 61.42C12.60 69.34 7.92 78.19 4.75 83.45ZM31.18 70.06L31.18 64.37L40.90 64.37L40.90 70.06ZM49.10 38.66C51.12 42.41 53.78 46.01 56.95 49.18L46.80 49.18L46.80 43.70L40.90 43.70L40.90 49.18L31.39 49.18C34.49 46.08 37.30 42.62 39.53 38.66ZM46.80 54.43L56.74 54.43L56.74 59.69L46.80 59.69ZM31.18 54.43L40.90 54.43L40.90 59.69L31.18 59.69ZM46.80 70.06L46.80 64.37L56.74 64.37L56.74 70.06ZM49.97 82.08C47.45 82.08 46.80 81.07 46.80 77.83L46.80 75.31L62.64 75.31L62.64 54.00C64.15 55.08 65.66 55.94 67.25 56.81C67.75 54.94 68.83 51.84 69.91 50.26C64.44 47.81 59.40 43.56 55.94 38.66L66.60 38.66L66.60 32.76L42.48 32.76C43.70 30.10 44.71 27.29 45.50 24.26L39.24 23.04C38.38 26.57 37.15 29.81 35.57 32.76L21.89 32.76L21.89 38.66L31.97 38.66C28.44 43.56 23.90 47.45 18.58 50.33C19.58 51.84 21.02 55.08 21.53 56.59C22.90 55.80 24.12 55.08 25.34 54.22L25.34 78.26L31.18 78.26L31.18 75.31L40.90 75.31L40.90 77.62C40.90 85.18 42.98 87.70 50.18 87.70L61.27 87.70C63.86 87.70 66.46 87.62 67.68 87.19C67.39 85.90 67.10 83.23 67.03 81.65C65.59 81.94 63.22 82.08 61.42 82.08Z"/></svg>
