<svg xmlns="http://www.w3.org/2000/svg" xmlns:xlink="http://www.w3.org/1999/xlink" width="72.00000000000001" height="106.56000000000002"><path fill="red" stroke="red" d="M20.88 30.89C18.43 28.66 13.46 25.70 9.50 23.90L5.76 28.66C9.79 30.60 14.69 33.77 16.92 36.14ZM18.22 49.46C15.62 47.16 10.58 44.50 6.48 42.91L2.88 47.74C6.98 49.54 12.02 52.56 14.40 54.72ZM10.15 88.42C13.18 81.72 16.56 73.15 19.15 65.59L13.75 62.06C10.87 70.20 6.91 79.34 4.10 84.96ZM36.22 61.56L36.22 73.73L26.71 73.73L26.71 61.56ZM42.05 79.49L42.05 55.73L34.78 55.73L34.78 43.63L43.70 43.63L43.70 37.58L34.78 37.58L34.78 25.20L28.73 25.20L28.73 37.58L18.65 37.58L18.65 43.63L28.73 43.63L28.73 55.73L20.95 55.73L20.95 84.89L26.71 84.89L26.71 79.49ZM52.20 45.22C54.58 47.74 57.24 50.90 58.54 52.99L60.98 50.98L60.98 57.17C57.60 59.76 54.29 62.21 51.84 63.72C52.13 60.48 52.20 57.38 52.20 54.50ZM60.98 31.68L60.98 48.46C59.33 46.37 56.88 43.70 54.72 41.69L52.20 43.49L52.20 31.68ZM66.96 25.70L46.37 25.70L46.37 54.50C46.37 64.66 45.65 77.33 37.94 85.97C39.31 86.69 41.83 88.34 42.91 89.42C48.89 82.73 51.05 73.01 51.84 63.94L54.29 69.19C56.45 67.18 58.75 65.02 60.98 62.93L60.98 81.65C60.98 82.66 60.62 82.94 59.69 83.02C58.82 83.02 55.87 83.02 52.85 82.94C53.71 84.38 54.58 87.05 54.86 88.49C59.47 88.56 62.42 88.42 64.37 87.41C66.31 86.40 66.96 84.67 66.96 81.72Z"/></svg>
