<svg xmlns="http://www.w3.org/2000/svg" xmlns:xlink="http://www.w3.org/1999/xlink" width="72.00000000000001" height="106.56000000000002"><path fill="red" stroke="red" d="M22.10 31.10C19.30 29.09 13.82 25.92 10.15 23.83L6.19 28.51C10.01 30.96 15.34 34.34 18.00 36.43ZM18.65 49.90C15.77 47.95 10.37 44.93 6.62 42.91L2.74 47.74C6.62 49.97 11.95 53.28 14.62 55.30ZM14.54 61.56C11.38 69.77 7.06 78.98 4.03 84.60L10.08 88.20C13.39 81.43 17.06 72.79 19.87 65.30ZM30.74 32.76L68.26 32.76L68.26 26.71L24.19 26.71L24.19 46.37C24.19 58.03 23.47 74.23 15.41 85.46C16.99 86.18 19.87 87.91 21.02 88.99C29.45 77.11 30.74 58.90 30.74 46.37ZM36.14 68.76C34.27 73.37 31.18 78.41 28.08 81.79C29.59 82.58 32.18 84.17 33.41 85.03C36.36 81.43 39.82 75.60 42.12 70.42ZM40.18 55.01L59.62 55.01L59.62 60.26L40.18 60.26ZM40.18 45.07L59.62 45.07L59.62 50.26L40.18 50.26ZM65.88 65.23L65.88 40.03L51.12 40.03C51.98 38.30 52.99 36.50 53.93 34.56L46.44 33.19C46.01 35.14 45.22 37.80 44.50 40.03L34.20 40.03L34.20 65.23L46.37 65.23L46.37 82.37C46.37 83.16 46.08 83.45 45.22 83.45C44.35 83.45 41.40 83.52 38.38 83.38C39.02 85.03 39.89 87.48 40.10 89.14C44.78 89.21 47.95 89.14 50.04 88.13C52.20 87.26 52.70 85.61 52.70 82.58L52.70 65.23ZM56.30 70.27C58.90 74.81 62.06 80.86 63.58 84.46L69.70 81.79C68.11 78.26 64.73 72.43 62.06 68.11Z"/></svg>
