<svg xmlns="http://www.w3.org/2000/svg" xmlns:xlink="http://www.w3.org/1999/xlink" width="72.00000000000001" height="106.56000000000002"><path fill="red" stroke="red" d="M22.97 28.80C20.38 27.00 15.48 24.70 11.59 23.33L8.14 27.94C12.02 29.45 16.92 32.04 19.37 33.91ZM43.85 40.32L32.11 40.32L32.11 35.78L43.85 35.78ZM43.85 48.96L32.11 48.96L32.11 44.71L43.85 44.71ZM43.85 58.10L32.11 58.10L32.11 53.35L43.85 53.35ZM17.35 40.90C18.94 41.98 21.24 43.85 22.39 44.93C23.47 43.99 24.48 42.98 25.56 41.98L25.56 66.31L32.11 66.31L32.11 63.43L66.53 63.43L66.53 58.10L50.18 58.10L50.18 53.35L63.00 53.35L63.00 48.96L50.18 48.96L50.18 44.71L62.86 44.71L62.86 40.32L50.18 40.32L50.18 35.78L65.38 35.78L65.38 30.67L51.55 30.67C50.69 28.58 49.25 25.70 48.10 23.69L41.76 25.34C42.48 26.93 43.42 28.87 44.06 30.67L34.49 30.67C35.78 28.73 36.94 26.64 37.94 24.62L31.54 22.68C28.44 29.38 23.26 36.00 17.57 40.25C14.98 38.66 9.94 36.65 6.26 35.42L2.88 39.96C6.70 41.40 11.74 43.78 14.26 45.50ZM9.43 66.74C13.82 62.06 18.50 56.59 22.61 51.55L18.94 47.02C14.18 52.56 8.64 58.32 4.75 61.70ZM68.40 69.91L39.24 69.91L39.24 64.94L32.40 64.94L32.40 69.91L3.89 69.91L3.89 75.89L32.40 75.89L32.40 89.28L39.24 89.28L39.24 75.89L68.40 75.89Z"/></svg>
