<svg xmlns="http://www.w3.org/2000/svg" xmlns:xlink="http://www.w3.org/1999/xlink" width="72.00000000000001" height="106.56000000000002"><path fill="red" stroke="red" d="M10.15 88.27C13.18 81.58 16.56 73.08 19.22 65.52L13.75 61.99C10.87 70.20 6.98 79.27 4.10 84.82ZM18.14 49.32C15.70 47.09 10.58 44.42 6.48 42.84L2.74 47.74C6.84 49.54 11.88 52.56 14.26 54.72ZM37.30 35.06L51.34 35.06L51.34 40.25L37.30 40.25ZM60.84 55.94L60.84 75.96C57.96 72.79 56.45 66.74 56.16 59.33L49.25 59.33L49.25 63.58L52.92 63.58C52.99 64.37 53.06 65.16 53.14 65.88L51.84 65.88C51.48 69.77 50.04 74.02 47.02 76.61L47.02 55.94ZM30.10 59.33L30.10 63.58L33.84 63.58C33.91 64.37 33.98 65.16 34.06 65.95L32.69 65.95C32.26 70.13 30.82 74.66 27.72 77.40L27.72 55.94L41.18 55.94L41.18 75.89C38.59 72.58 37.30 66.53 37.08 59.33ZM57.89 45.94L57.89 35.06L68.69 35.06L68.69 29.09L57.89 29.09L57.89 23.04L51.34 23.04L51.34 29.09L37.30 29.09L37.30 23.04L30.89 23.04L30.89 29.09L20.66 29.09L20.66 30.60C18.14 28.30 13.32 25.49 9.50 23.83L5.76 28.58C9.65 30.60 14.62 33.84 16.85 36.14L20.66 31.10L20.66 35.06L30.89 35.06L30.89 45.94L41.18 45.94L41.18 50.26L22.03 50.26L22.03 89.06L27.72 89.06L27.72 77.76C28.58 78.34 29.74 79.49 30.24 80.35C32.69 78.19 34.27 75.31 35.21 72.14C36.14 75.31 37.37 77.83 39.02 79.63C39.53 78.98 40.39 78.12 41.18 77.47L41.18 88.49L47.02 88.49L47.02 77.26C47.88 77.90 48.82 78.98 49.32 79.70C51.84 77.69 53.42 74.95 54.43 71.86C55.44 75.02 56.81 77.62 58.54 79.49C58.97 78.77 59.98 77.83 60.84 77.18L60.84 83.09C60.84 83.81 60.62 84.10 59.76 84.10C58.97 84.10 56.38 84.10 53.71 84.02C54.43 85.39 55.08 87.55 55.37 88.99C59.54 88.99 62.42 88.99 64.37 88.20C66.24 87.26 66.82 85.82 66.82 83.09L66.82 50.26L47.02 50.26L47.02 45.94Z"/></svg>
