<svg xmlns="http://www.w3.org/2000/svg" xmlns:xlink="http://www.w3.org/1999/xlink" width="72.00000000000001" height="106.56000000000002"><path fill="red" stroke="red" d="M18.29 31.46C16.20 29.16 11.66 26.06 8.06 24.12L4.25 28.58C7.85 30.74 12.24 34.06 14.18 36.50ZM16.78 49.82C14.54 47.59 9.94 44.71 6.26 42.91L2.59 47.52C6.19 49.46 10.73 52.70 12.89 54.94ZM11.52 62.28C9.14 70.27 5.83 79.42 3.38 84.96L9.22 87.98C11.74 81.50 14.62 72.86 16.78 65.38ZM47.95 62.57C50.33 60.84 52.56 58.75 54.65 56.45C56.52 58.68 58.61 60.77 61.06 62.57ZM49.54 80.21L49.54 68.26L59.69 68.26L59.69 80.21ZM39.31 58.46L33.55 58.46L33.55 49.68L39.46 49.68L39.46 45.86C40.90 46.87 42.77 48.67 43.63 49.54C44.78 48.02 45.94 46.22 47.09 44.35C48.17 46.73 49.46 49.18 51.05 51.62C47.59 55.58 43.56 58.75 39.31 60.84ZM24.77 32.90L33.70 32.90L33.70 43.92L24.77 43.92ZM59.62 36.36C58.32 40.25 56.52 43.78 54.50 47.02C52.56 44.21 51.12 41.26 49.97 38.38C50.33 37.80 50.62 37.08 50.90 36.36ZM62.93 30.74L61.92 30.96L52.85 30.96C53.57 28.80 54.22 26.57 54.79 24.41L48.89 23.11C47.02 31.39 43.78 39.38 39.46 44.86L39.46 27.14L19.30 27.14L19.30 49.68L28.15 49.68L28.15 78.48L24.12 79.27L24.12 55.66L19.37 55.66L19.37 80.35L15.12 81.22L16.78 87.26C23.54 85.61 32.47 83.52 41.04 81.43L40.46 75.67L33.55 77.26L33.55 64.15L39.38 64.15L39.38 62.64C40.39 63.79 41.33 65.30 41.90 66.31C42.55 65.95 43.27 65.66 43.92 65.30L43.92 89.21L49.54 89.21L49.54 85.97L59.69 85.97L59.69 88.99L65.45 88.99L65.45 65.59L66.02 65.81C66.89 64.30 68.62 61.92 69.98 60.77C65.30 58.68 61.34 55.58 58.18 51.98C62.06 46.58 65.02 39.96 66.82 32.18Z"/></svg>
