<svg xmlns="http://www.w3.org/2000/svg" xmlns:xlink="http://www.w3.org/1999/xlink" width="72.00000000000001" height="106.56000000000002"><path fill="red" stroke="red" d="M9.86 88.27C12.96 81.58 16.34 73.08 18.86 65.52L13.46 61.99C10.58 70.20 6.62 79.27 3.82 84.82ZM18.14 49.32C15.70 47.09 10.58 44.42 6.48 42.84L2.74 47.74C6.84 49.54 11.88 52.56 14.26 54.72ZM5.47 28.58C9.43 30.60 14.33 33.84 16.56 36.14L20.59 30.82C18.14 28.44 13.18 25.56 9.29 23.83ZM35.86 31.03L35.86 35.78L27.43 35.78L27.43 31.03ZM27.43 45.58L27.43 40.46L35.86 40.46L35.86 45.58ZM41.33 50.62L41.33 25.92L21.46 25.92L21.46 89.14L27.43 89.14L27.43 50.62ZM57.17 76.10L46.37 76.10L46.37 70.13L54.43 70.13L54.43 65.09L46.37 65.09L46.37 60.19L55.87 60.19L55.87 55.22L31.82 55.22L31.82 60.19L40.82 60.19L40.82 65.09L33.05 65.09L33.05 70.13L40.82 70.13L40.82 76.10L30.67 76.10L30.67 81.22L57.17 81.22ZM51.41 45.58L51.41 40.46L60.26 40.46L60.26 45.58ZM60.26 31.03L60.26 35.78L51.41 35.78L51.41 31.03ZM66.31 25.92L45.65 25.92L45.65 50.62L60.26 50.62L60.26 81.79C60.26 82.87 59.90 83.16 58.90 83.16C58.03 83.23 55.08 83.30 51.84 83.16C52.70 84.74 53.50 87.62 53.71 89.21C58.54 89.21 61.63 89.06 63.65 88.06C65.74 86.98 66.31 85.10 66.31 81.86Z"/></svg>
