<svg xmlns="http://www.w3.org/2000/svg" xmlns:xlink="http://www.w3.org/1999/xlink" width="72.00000000000001" height="106.56000000000002"><path fill="red" stroke="red" d="M29.81 34.20L60.62 34.20L60.62 39.96L67.25 39.96L67.25 29.45L49.25 29.45C48.67 27.43 47.74 24.91 46.87 22.97L40.46 24.12C41.11 25.70 41.76 27.65 42.26 29.45L23.47 29.45L23.47 39.96L29.81 39.96ZM33.41 42.26C31.03 44.42 26.93 46.51 23.04 47.95C24.19 48.82 25.99 50.69 26.78 51.70C30.89 49.82 35.50 46.80 38.30 43.78ZM22.39 31.97C19.73 29.66 14.33 26.35 10.30 24.19L6.41 28.94C10.51 31.32 15.77 34.92 18.36 37.37ZM18.72 50.69C15.91 48.46 10.37 45.29 6.26 43.34L2.66 48.24C6.84 50.47 12.31 53.93 14.90 56.23ZM10.30 87.70C14.18 81.07 18.36 72.50 21.82 65.09L16.70 60.91C12.89 68.90 7.85 78.05 4.39 83.38ZM34.34 71.28L56.81 71.28L56.81 74.38L34.34 74.38ZM56.81 60.48L34.34 60.48L34.34 57.53L56.81 57.53ZM56.81 67.39L34.34 67.39L34.34 64.37L56.81 64.37ZM62.93 78.48L62.93 53.50L47.81 53.50C54.86 51.26 61.13 48.31 65.52 44.57L60.05 42.12C57.31 44.28 53.42 46.22 48.96 47.74L48.96 41.69L58.25 41.69L58.25 37.22L32.26 37.22L32.26 41.69L42.77 41.69L42.77 49.68C35.86 51.48 28.15 52.78 20.88 53.57C21.89 54.79 23.54 57.46 24.12 58.82C25.56 58.61 27.00 58.39 28.51 58.18L28.51 78.48L39.31 78.48C34.78 80.64 27.29 83.38 22.10 84.96C23.11 86.33 24.19 88.34 24.91 89.71C30.67 87.77 38.66 84.96 44.64 82.30L40.39 78.48L50.83 78.48L48.96 82.30C55.22 84.53 62.06 87.41 66.38 89.57L68.90 84.67C64.80 82.94 58.54 80.50 52.63 78.48Z"/></svg>
