<svg xmlns="http://www.w3.org/2000/svg" xmlns:xlink="http://www.w3.org/1999/xlink" width="72.00000000000001" height="106.56000000000002"><path fill="red" stroke="red" d="M61.13 48.89L51.05 48.89L51.05 43.34L61.13 43.34ZM61.13 59.18L51.05 59.18L51.05 53.50L61.13 53.50ZM61.13 69.48L51.05 69.48L51.05 63.79L61.13 63.79ZM45.94 38.38L45.94 74.38L66.38 74.38L66.38 38.38L56.02 38.38C56.59 36.50 57.31 34.42 57.96 32.40L67.68 32.40L67.68 26.93L43.78 26.93L43.78 32.40L52.42 32.40C52.06 34.34 51.62 36.58 51.19 38.38ZM17.57 34.06C15.84 31.54 12.02 27.94 9.07 25.34L5.76 29.09C8.71 31.75 12.38 35.71 14.04 38.30ZM22.03 54.36C21.38 59.26 20.02 65.59 17.57 69.70C18.65 70.27 20.38 71.57 21.31 72.29C24.19 67.90 25.92 60.91 26.86 55.30ZM15.26 52.34C13.10 50.04 8.78 46.80 5.47 44.71L2.45 48.74C5.83 51.12 10.15 54.65 12.17 57.02ZM12.53 61.42C9.94 69.19 6.41 78.12 3.96 83.38L8.86 87.12C11.52 80.57 14.47 72.29 16.78 65.09ZM38.38 54.94C37.37 60.62 35.78 65.52 33.62 69.77L33.62 51.05L43.06 51.05L43.06 45.58L34.70 45.58L34.70 38.09L41.69 38.09L41.69 32.69L34.70 32.69L34.70 23.11L29.59 23.11L29.59 45.58L26.57 45.58L26.57 29.95L21.67 29.95L21.67 45.58L18.07 45.58L18.07 51.05L28.66 51.05L28.66 71.50L32.62 71.50C28.94 77.62 23.62 82.15 16.27 85.03C17.50 86.26 18.86 88.13 19.51 89.64C33.34 83.45 40.18 72.65 43.20 56.09ZM49.97 74.66C47.95 78.26 43.92 82.87 40.18 85.61C41.47 86.62 43.20 88.20 44.14 89.35C47.88 86.40 52.20 81.58 54.94 77.47ZM57.24 77.40C60.05 80.78 63.22 85.46 64.51 88.49L68.98 85.68C67.54 82.73 64.30 78.26 61.49 75.02Z"/></svg>
