<svg xmlns="http://www.w3.org/2000/svg" xmlns:xlink="http://www.w3.org/1999/xlink" width="72.00000000000001" height="106.56000000000002"><path fill="red" stroke="red" d="M63.94 25.56L56.81 25.56L56.81 34.92L39.74 34.92L39.74 23.04L32.90 23.04L32.90 34.92L15.70 34.92L15.70 25.56L8.93 25.56L8.93 40.90L63.94 40.90ZM15.70 51.84L67.61 51.84L67.61 45.79L9.07 45.79L9.07 58.61C9.07 66.31 8.35 76.90 2.30 84.38C3.74 85.25 6.55 87.55 7.56 88.85C14.40 80.57 15.70 67.61 15.70 58.68ZM56.81 72.29C58.97 69.12 61.56 64.37 63.79 60.05L57.74 57.82C56.23 61.63 53.50 66.96 51.34 70.27ZM32.76 69.26C31.10 66.24 27.58 61.06 24.84 57.17L20.23 60.12C22.82 64.08 26.28 69.48 27.79 72.72ZM38.30 54.43C37.30 69.98 35.06 78.98 14.26 83.30C15.62 84.74 17.28 87.34 17.86 88.99C31.68 85.75 38.30 80.42 41.69 72.65C45.00 79.42 51.41 85.61 65.02 88.78C65.74 86.83 67.39 84.17 68.90 82.66C49.68 78.77 45.94 69.41 44.57 60.84C44.78 58.82 45.00 56.74 45.14 54.43Z"/></svg>
