<svg xmlns="http://www.w3.org/2000/svg" xmlns:xlink="http://www.w3.org/1999/xlink" width="72.00000000000001" height="106.56000000000002"><path fill="red" stroke="red" d="M23.69 34.99C23.04 40.10 21.38 47.52 20.09 52.06L24.12 53.86C25.70 49.54 27.50 42.77 29.23 37.15ZM11.45 54.43C10.87 49.75 9.07 41.69 7.42 35.35L2.52 36.50C4.18 42.84 5.69 51.26 6.34 56.09ZM19.15 23.76L13.03 23.76L13.03 48.17C13.03 60.91 12.02 74.30 2.95 84.60C4.39 85.61 6.62 87.77 7.63 89.28C12.53 83.88 15.34 77.54 16.99 70.92C19.66 74.52 22.61 78.77 24.26 81.36L28.87 76.54C27.36 74.52 21.10 66.67 18.36 63.58C19.01 58.46 19.15 53.28 19.15 48.17ZM48.10 50.11L48.10 60.91L38.95 60.91L38.95 50.11ZM44.06 82.58C39.74 82.58 38.95 81.94 38.95 78.77L38.95 66.53L53.93 66.53L53.93 44.57L37.37 44.57C38.45 42.62 39.53 40.46 40.54 38.30L60.55 38.30C60.12 58.18 59.69 65.16 58.61 66.67C58.03 67.54 57.46 67.82 56.52 67.75C55.51 67.75 53.28 67.75 50.90 67.54C51.84 69.19 52.49 71.78 52.49 73.51C55.44 73.66 58.10 73.66 59.76 73.37C61.70 73.08 62.86 72.43 64.08 70.70C65.81 68.18 66.31 59.62 66.74 35.14C66.82 34.27 66.82 32.26 66.82 32.26L42.98 32.26C43.92 29.74 44.71 27.07 45.43 24.48L38.95 23.11C36.58 33.12 32.11 42.62 26.28 48.60C27.72 49.54 30.38 51.77 31.46 52.85C31.90 52.42 32.33 51.91 32.76 51.41L32.76 78.84C32.76 86.54 35.28 88.42 43.56 88.42L58.97 88.42C66.31 88.42 68.26 85.54 69.12 75.74C67.39 75.31 64.80 74.23 63.36 73.22C62.86 81.00 62.21 82.58 58.61 82.58Z"/></svg>
