<svg xmlns="http://www.w3.org/2000/svg" xmlns:xlink="http://www.w3.org/1999/xlink" width="72.00000000000001" height="106.56000000000002"><path fill="red" stroke="red" d="M8.28 88.56C12.67 84.74 14.83 78.55 16.27 72.65L10.58 70.70C9.43 76.25 6.84 81.79 2.88 85.10ZM20.38 73.22C21.53 77.47 22.18 82.94 21.96 86.54L27.65 85.68C27.72 82.08 27.07 76.61 25.85 72.36ZM32.04 73.08C33.70 76.97 35.14 82.08 35.50 85.25L40.90 83.81C40.46 80.64 38.81 75.60 37.08 71.86ZM51.34 34.99L51.34 43.27L19.51 43.27L19.51 34.99ZM68.18 58.46L68.18 52.99L19.51 52.99L19.51 48.53L57.96 48.53L57.96 29.81L37.37 29.81C38.45 27.94 39.53 25.85 40.54 23.69L32.69 22.90C32.26 24.84 31.39 27.50 30.53 29.81L12.96 29.81L12.96 68.90L58.97 68.90C58.39 78.19 57.74 81.94 56.66 83.09C56.16 83.66 55.51 83.81 54.43 83.81C53.21 83.81 50.40 83.81 47.38 83.45C48.24 84.96 48.89 87.41 49.03 89.14C52.42 89.28 55.73 89.28 57.53 89.06C59.47 88.85 60.98 88.34 62.21 86.90C64.01 84.82 64.80 79.49 65.52 65.88C65.59 65.02 65.66 63.29 65.66 63.29L19.51 63.29L19.51 58.46ZM52.99 79.56C52.13 77.04 49.97 73.15 47.95 70.34L43.34 72.00C45.29 74.95 47.38 78.91 48.24 81.50Z"/></svg>
