<svg xmlns="http://www.w3.org/2000/svg" xmlns:xlink="http://www.w3.org/1999/xlink" width="72.00000000000001" height="106.56000000000002"><path fill="red" stroke="red" d="M57.60 40.25L36.22 40.25L36.22 35.64L57.60 35.64ZM57.60 49.75L36.22 49.75L36.22 45.07L57.60 45.07ZM57.60 59.26L36.22 59.26L36.22 54.50L57.60 54.50ZM64.15 30.60L46.15 30.60C47.09 28.51 48.10 25.92 48.89 23.47L41.40 22.90C41.11 25.13 40.46 28.15 39.74 30.60L29.95 30.60L29.95 64.30L64.15 64.30ZM53.42 73.51C51.98 71.06 48.96 67.46 46.44 64.87L41.83 66.74C44.42 69.48 47.30 73.30 48.67 75.74ZM11.52 55.08C10.94 50.26 9.14 41.83 7.42 35.35L2.52 36.58C4.18 43.06 5.83 51.77 6.41 56.66ZM27.36 75.89C25.92 74.09 20.66 67.10 18.07 64.15C18.79 59.33 19.01 54.43 19.01 49.46L22.97 51.34C24.91 47.45 27.29 41.62 29.30 36.65L23.69 34.49C22.68 38.81 20.66 45.07 19.01 49.03L19.01 48.38L19.01 23.54L12.96 23.54L12.96 48.38C12.96 61.13 11.88 74.45 2.66 84.46C4.03 85.54 6.19 87.77 7.13 89.21C11.95 84.02 14.90 78.05 16.63 71.64C18.86 74.88 21.31 78.77 22.68 81.14ZM28.87 87.34C31.25 83.38 32.83 76.90 33.84 72.00L28.73 70.27C27.86 74.95 26.06 81.00 23.83 84.74ZM43.99 82.94C41.54 82.94 41.11 82.73 41.11 80.86L41.11 69.26L35.28 69.26L35.28 80.93C35.28 86.69 36.72 88.34 43.27 88.34L52.56 88.34C57.74 88.34 59.33 86.18 59.98 76.97C58.39 76.61 55.94 75.67 54.72 74.74C54.50 82.08 54.07 82.94 51.98 82.94ZM57.38 70.63C60.12 75.02 63.22 81.14 64.58 84.89L69.70 82.37C68.33 78.77 65.02 72.79 62.21 68.40Z"/></svg>
