<svg xmlns="http://www.w3.org/2000/svg" xmlns:xlink="http://www.w3.org/1999/xlink" width="72.00000000000001" height="106.56000000000002"><path fill="red" stroke="red" d="M61.34 26.50C60.26 28.94 57.96 32.47 56.16 34.78L60.26 36.58C62.28 34.56 64.80 31.46 67.18 28.58ZM44.71 34.78C43.92 32.54 42.26 28.87 40.82 25.99L36.07 27.43C37.44 30.24 39.02 34.20 39.74 36.50ZM29.66 26.78C28.51 29.16 26.35 32.69 24.62 34.99L28.73 36.65C30.60 34.70 32.98 31.68 35.21 28.80ZM14.47 34.70C13.68 32.54 11.74 28.94 10.30 26.28L5.69 27.79C7.20 30.53 8.86 34.27 9.72 36.58ZM38.02 48.31C44.14 46.37 47.95 43.63 50.33 40.03C54.94 42.70 59.98 45.94 62.93 48.31ZM5.98 48.31L5.98 61.99L12.38 61.99L12.38 60.84C14.69 64.87 17.64 70.13 19.01 73.30L24.70 70.34C23.11 67.25 19.94 61.92 17.57 57.96L12.38 60.41L12.38 54.14L59.47 54.14L59.47 60.41L54.14 58.32C52.20 62.14 48.67 67.25 45.86 70.56L51.05 72.72C53.64 69.98 56.81 65.95 59.62 61.99L66.17 61.99L66.17 48.31L63.86 48.31L67.75 44.21C64.30 41.62 57.74 37.73 52.78 35.06C53.78 31.68 54.29 27.79 54.50 23.11L48.46 23.11C47.81 34.42 46.01 40.32 33.91 43.63C35.06 44.64 36.58 46.80 37.30 48.31L9.07 48.31C14.47 46.44 18.00 43.85 20.23 40.46C23.11 42.41 26.28 44.64 28.01 46.22L32.26 41.98C30.10 40.18 25.85 37.44 22.61 35.57C23.62 32.11 24.12 28.01 24.34 23.11L18.43 23.11C17.86 35.14 15.98 40.97 3.38 44.21C4.25 45.14 5.62 46.87 6.26 48.31ZM31.97 55.44C30.60 70.13 27.94 79.20 4.46 83.30C5.83 84.74 7.49 87.48 8.06 89.28C24.98 85.90 32.47 79.85 36.07 71.06C41.18 81.07 49.39 86.69 63.58 88.99C64.37 87.12 65.95 84.38 67.39 83.02C50.76 81.00 42.34 74.02 38.59 61.20C38.88 59.33 39.10 57.38 39.31 55.44Z"/></svg>
