<svg xmlns="http://www.w3.org/2000/svg" xmlns:xlink="http://www.w3.org/1999/xlink" width="72.00000000000001" height="106.56000000000002"><path fill="red" stroke="red" d="M45.58 57.24C44.50 55.73 39.82 49.03 38.02 46.58L38.02 44.21L43.99 44.21L43.99 38.16L38.02 38.16L38.02 23.47L32.04 23.47L32.04 38.16L23.83 38.16L23.83 44.21L31.25 44.21C29.38 55.15 26.21 66.31 21.96 72.86L21.53 69.70L15.70 71.42L15.70 54.22L21.53 54.22L21.53 48.38L15.70 48.38L15.70 33.62L22.03 33.62L22.03 27.65L3.10 27.65L3.10 33.62L9.86 33.62L9.86 48.38L3.67 48.38L3.67 54.22L9.86 54.22L9.86 73.22C7.06 74.02 4.46 74.74 2.23 75.31L3.53 81.43C9.07 79.78 15.84 77.54 22.32 75.38L22.32 75.24C23.47 76.32 24.70 77.69 25.42 78.70C28.08 74.45 30.31 68.33 32.04 61.34L32.04 89.14L38.02 89.14L38.02 54.14C39.74 57.17 41.62 60.62 42.48 62.64ZM67.68 44.21L67.68 38.16L58.61 38.16L58.61 23.47L52.56 23.47L52.56 38.16L46.08 38.16L46.08 44.21L51.84 44.21C49.39 55.87 45.22 67.68 40.32 74.02C41.76 75.02 43.70 77.11 44.78 78.55C47.88 73.87 50.54 66.96 52.56 59.26L52.56 89.14L58.61 89.14L58.61 55.44C60.55 64.01 63.00 72.43 65.23 77.83C66.38 76.39 68.47 74.52 69.91 73.58C66.67 66.74 62.71 54.79 60.26 44.21Z"/></svg>
