<svg xmlns="http://www.w3.org/2000/svg" xmlns:xlink="http://www.w3.org/1999/xlink" width="72.00000000000001" height="106.56000000000002"><path fill="red" stroke="red" d="M56.81 23.90C46.22 26.35 28.15 28.73 12.60 29.95L12.60 44.35C12.60 56.09 11.74 73.08 2.74 84.89C4.18 85.68 7.06 87.91 8.14 89.21C17.71 76.54 19.30 57.02 19.30 44.35L19.30 35.06C33.98 33.84 50.33 31.82 62.28 29.16ZM39.31 63.07C40.82 66.89 42.62 71.21 44.21 75.46L32.40 77.98C37.30 68.62 37.66 57.67 37.66 49.39L37.66 37.58L31.10 37.58L31.10 49.10C31.10 58.97 30.89 71.35 22.25 80.28C23.47 81.43 25.85 84.60 26.57 86.18C28.01 85.18 30.46 84.38 46.01 80.71C47.09 83.59 47.95 86.18 48.53 88.27L54.29 86.18C52.34 79.99 48.10 69.41 44.57 61.34ZM50.76 36.22C52.20 59.40 55.15 78.62 64.94 88.78C65.95 86.98 68.18 84.31 69.70 83.09C60.98 74.74 58.25 56.09 56.95 35.78Z"/></svg>
