<svg xmlns="http://www.w3.org/2000/svg" xmlns:xlink="http://www.w3.org/1999/xlink" width="72.00000000000001" height="106.56000000000002"><path fill="red" stroke="red" d="M39.60 80.50L39.60 63.94L61.99 63.94L61.99 57.53L39.60 57.53L39.60 43.13L64.66 43.13L64.66 36.58L39.60 36.58L39.60 23.18L32.69 23.18L32.69 36.58L19.66 36.58C21.02 33.12 22.32 29.45 23.40 25.78L16.49 24.19C13.82 34.27 9.29 44.14 3.46 50.26C5.26 51.19 8.21 53.14 9.58 54.29C12.10 51.26 14.47 47.45 16.70 43.13L32.69 43.13L32.69 57.53L12.17 57.53L12.17 63.94L32.69 63.94L32.69 80.50L4.18 80.50L4.18 86.98L68.11 86.98L68.11 80.50Z"/></svg>
