<svg xmlns="http://www.w3.org/2000/svg" xmlns:xlink="http://www.w3.org/1999/xlink" width="72.00000000000001" height="106.56000000000002"><path fill="red" stroke="red" d="M32.47 46.66L39.17 46.66L39.17 32.18L39.89 31.61L66.82 31.61L66.82 25.99L5.18 25.99L5.18 31.61L30.60 31.61C23.11 36.36 13.25 40.10 3.82 42.55C5.04 43.63 7.13 46.22 7.99 47.45C16.06 44.93 24.98 41.33 32.47 36.72ZM38.95 70.63L38.95 64.73L56.23 64.73L56.23 70.63ZM16.27 70.63C16.34 68.83 16.42 67.03 16.42 65.38L16.42 64.73L32.47 64.73L32.47 70.63ZM32.47 53.78L32.47 59.54L16.42 59.54L16.42 53.78ZM56.23 59.54L38.95 59.54L38.95 53.78L56.23 53.78ZM62.78 48.31L9.86 48.31L9.86 65.30C9.86 71.64 9.43 79.56 4.61 85.10C6.12 85.90 8.93 87.98 10.08 89.21C13.18 85.54 14.76 80.71 15.62 75.89L32.47 75.89L32.47 86.90L38.95 86.90L38.95 75.89L56.23 75.89L56.23 82.08C56.23 83.02 55.80 83.38 54.72 83.38C53.64 83.45 49.68 83.45 46.01 83.23C46.87 84.89 47.74 87.41 48.02 89.06C53.50 89.06 57.31 88.99 59.69 88.06C62.06 87.12 62.78 85.46 62.78 82.15ZM40.61 36.00C48.53 38.88 58.54 43.70 63.94 47.16L68.47 42.98C63.00 39.67 53.14 34.99 45.14 32.26Z"/></svg>
