<svg xmlns="http://www.w3.org/2000/svg" xmlns:xlink="http://www.w3.org/1999/xlink" width="72.00000000000001" height="106.56000000000002"><path fill="red" stroke="red" d="M13.18 49.54C12.10 46.30 9.65 40.75 7.70 36.50L2.66 38.88C4.61 43.20 6.84 48.96 7.92 52.42ZM68.40 36.22L68.40 30.24L46.44 30.24C45.65 27.86 44.71 25.06 43.78 22.75L36.36 24.34C37.01 26.14 37.66 28.30 38.30 30.24L13.61 30.24L13.61 51.62C13.61 53.78 13.54 56.09 13.39 58.46C9.00 60.77 4.82 62.78 1.73 64.15L3.89 70.34C6.70 68.76 9.65 67.03 12.60 65.30C11.52 72.07 8.93 78.84 3.53 84.17C4.97 85.03 7.63 87.62 8.64 88.99C18.72 79.06 20.38 63.07 20.38 51.70L20.38 36.22ZM61.56 66.10C58.61 68.62 54.43 71.64 50.90 73.87C48.96 71.57 47.30 68.98 46.08 66.10ZM31.68 55.66L55.51 55.66L55.51 60.84L31.68 60.84ZM55.51 45.94L55.51 50.83L31.68 50.83L31.68 45.94ZM62.57 65.16L61.92 65.74L61.92 40.68L25.20 40.68L25.20 78.48C25.20 81.65 23.54 83.23 22.32 84.02C23.33 85.25 24.77 87.84 25.20 89.28C26.64 88.27 29.02 87.34 44.28 82.94C43.92 81.65 43.49 79.13 43.34 77.47L31.68 80.42L31.68 66.10L39.82 66.10C44.14 78.34 52.06 85.90 65.66 89.14C66.46 87.41 68.18 84.89 69.55 83.59C63.43 82.44 58.46 80.35 54.50 77.33C58.54 75.02 63.29 71.93 67.10 69.05Z"/></svg>
