<svg xmlns="http://www.w3.org/2000/svg" xmlns:xlink="http://www.w3.org/1999/xlink" width="72.00000000000001" height="106.56000000000002"><path fill="red" stroke="red" d="M12.82 49.46C12.10 46.01 9.94 40.46 7.63 36.29L2.74 38.59C4.90 42.91 7.06 48.53 7.63 52.13ZM68.33 35.86L68.33 30.02L44.28 30.02C43.20 27.72 41.40 24.84 39.60 22.68L33.84 24.98C34.99 26.50 36.07 28.22 37.01 30.02L13.39 30.02L13.39 52.27C13.39 54.14 13.39 56.09 13.25 58.18C9.00 60.41 4.82 62.50 1.87 63.86L3.96 69.98C6.77 68.40 9.72 66.60 12.67 64.80C11.66 71.78 9.43 78.98 4.25 84.46C5.47 85.32 8.06 87.70 8.86 89.06C18.22 79.20 19.66 63.50 19.66 52.27L19.66 35.86ZM58.18 47.52C56.59 49.97 53.71 53.64 51.05 56.74C54.72 60.12 58.10 63.86 59.90 66.53L65.23 64.58C63.72 62.35 60.62 59.11 57.74 56.66C59.83 54.29 62.06 51.62 64.08 48.89ZM66.89 40.68L23.62 40.68L23.62 46.37L66.89 46.37ZM43.99 47.52C42.55 50.04 39.89 53.57 37.30 56.74C40.61 60.19 43.56 63.86 45.14 66.53L50.62 64.66C49.18 62.42 46.58 59.26 43.92 56.66C45.86 54.36 47.95 51.62 49.90 48.89ZM30.38 47.52C28.94 50.04 26.42 53.57 24.05 56.74C27.22 60.19 30.02 63.86 31.46 66.53L36.94 64.66C35.57 62.42 33.05 59.26 30.53 56.66C32.33 54.29 34.34 51.62 36.14 48.82ZM48.31 81.72L48.31 72.94L66.10 72.94L66.10 67.39L24.41 67.39L24.41 72.94L41.54 72.94L41.54 81.72L19.94 81.72L19.94 87.41L68.90 87.41L68.90 81.72Z"/></svg>
