<svg xmlns="http://www.w3.org/2000/svg" xmlns:xlink="http://www.w3.org/1999/xlink" width="72.00000000000001" height="106.56000000000002"><path fill="red" stroke="red" d="M12.96 49.03C12.24 45.50 10.01 40.03 7.70 35.86L2.66 38.23C4.82 42.55 6.98 48.24 7.63 51.77ZM47.45 72.65L47.45 67.61L59.04 67.61L59.04 72.65ZM29.95 72.65L29.95 67.61L41.26 67.61L41.26 72.65ZM41.26 57.89L41.26 62.78L29.95 62.78L29.95 57.89ZM59.04 62.78L47.45 62.78L47.45 57.89L59.04 57.89ZM65.30 52.85L54.14 52.85C52.99 52.20 51.48 51.48 49.90 50.83C55.01 48.24 60.12 45.07 63.94 41.90L60.05 38.52L58.61 38.88L25.70 38.88L25.70 43.70L52.49 43.70C49.97 45.36 47.16 47.09 44.50 48.38C41.18 47.02 37.73 45.72 34.63 44.86L30.89 48.46C34.49 49.61 38.59 51.19 42.34 52.85L23.83 52.85L23.83 89.21L29.95 89.21L29.95 77.47L41.26 77.47L41.26 88.42L47.45 88.42L47.45 77.47L59.04 77.47L59.04 83.02C59.04 83.88 58.75 84.17 57.82 84.17C57.10 84.17 54.14 84.17 51.26 84.10C51.98 85.54 52.78 87.55 53.06 89.06C57.53 89.06 60.62 89.06 62.64 88.20C64.66 87.34 65.30 86.04 65.30 83.09ZM45.43 29.66C44.35 27.58 42.70 24.70 41.04 22.61L34.70 24.34C35.71 25.99 36.86 27.86 37.80 29.66L13.39 29.66L13.39 52.06C13.39 53.93 13.39 55.87 13.25 57.89C8.93 60.12 4.90 62.14 1.94 63.50L4.10 69.62C6.84 68.11 9.72 66.31 12.67 64.58C11.59 71.64 9.36 78.91 4.18 84.53C5.47 85.32 7.99 87.70 8.86 89.06C18.22 79.13 19.66 63.29 19.66 52.06L19.66 35.50L68.33 35.50L68.33 29.66Z"/></svg>
