<svg xmlns="http://www.w3.org/2000/svg" xmlns:xlink="http://www.w3.org/1999/xlink" width="72.00000000000001" height="106.56000000000002"><path fill="red" stroke="red" d="M21.60 72.94L32.83 72.94C31.46 78.48 28.08 82.01 18.29 84.17C19.44 85.25 21.10 87.62 21.67 89.06C33.41 86.04 37.58 80.93 39.17 72.94L51.12 72.94L51.12 88.85L57.24 88.85L57.24 72.94L68.04 72.94L68.04 67.39L21.60 67.39ZM57.96 49.75L47.74 49.75L47.74 44.86L57.96 44.86ZM57.96 58.90L47.74 58.90L47.74 54.00L57.96 54.00ZM31.82 54.00L41.69 54.00L41.69 58.90L31.82 58.90ZM31.82 44.86L41.69 44.86L41.69 49.75L31.82 49.75ZM25.85 40.32L25.85 63.43L64.22 63.43L64.22 40.32ZM45.94 30.46C45.07 28.08 43.92 25.13 42.84 22.75L36.07 24.05C36.94 25.99 37.80 28.37 38.52 30.46L13.97 30.46L13.97 47.09C12.46 43.85 10.01 39.46 7.92 36.29L2.59 38.45C4.97 42.55 7.78 47.81 8.93 51.19L13.97 48.82L13.97 52.06C13.97 54.00 13.97 55.94 13.82 58.03C9.58 60.48 5.40 62.64 2.45 64.15L4.61 70.20C7.34 68.54 10.30 66.67 13.25 64.87C12.24 72.14 10.01 79.49 4.90 85.39C6.48 86.18 9.22 88.13 10.44 89.35C19.15 79.27 20.45 63.43 20.45 52.13L20.45 36.65L68.83 36.65L68.83 30.46Z"/></svg>
