<svg xmlns="http://www.w3.org/2000/svg" xmlns:xlink="http://www.w3.org/1999/xlink" width="72.00000000000001" height="106.56000000000002"><path fill="red" stroke="red" d="M12.60 49.18C12.10 45.50 10.22 39.74 8.06 35.35L3.17 37.30C5.11 41.83 6.91 47.74 7.42 51.48ZM18.79 34.42L68.90 34.42L68.90 29.02L45.86 29.02C45.22 27.00 44.06 24.62 42.91 22.82L36.58 24.55C37.30 25.92 38.02 27.43 38.52 29.02L12.74 29.02L12.74 51.91C12.74 53.78 12.74 55.73 12.60 57.82C8.64 59.83 5.04 61.78 2.23 63.07L4.32 68.98C6.84 67.54 9.50 66.02 12.10 64.44C11.16 71.50 9.00 78.70 4.10 84.24C5.47 85.10 7.85 87.41 8.86 88.63C17.42 78.77 18.79 63.07 18.79 51.91ZM58.82 49.25L58.82 44.93L67.10 44.93L67.10 39.82L58.82 39.82L58.82 35.86L52.78 35.86L52.78 39.82L44.42 39.82L44.42 44.93L52.78 44.93L52.78 49.25ZM34.63 49.25L34.63 45.00L42.77 45.00L42.77 39.89L34.63 39.89L34.63 35.86L28.66 35.86L28.66 39.89L20.81 39.89L20.81 45.00L28.66 45.00L28.66 49.25ZM55.08 74.59L55.08 81.36L32.40 81.36L32.40 74.59ZM26.28 89.35L32.40 89.35L32.40 86.62L55.08 86.62L55.08 89.35L61.56 89.35L61.56 69.41L26.28 69.41ZM33.77 60.55C37.44 58.68 40.75 56.38 43.56 53.86C46.87 56.16 50.90 58.61 55.01 60.55ZM42.98 45.72C38.59 51.98 29.16 57.17 18.72 60.12C20.02 61.27 21.89 63.72 22.75 65.16C25.56 64.22 28.30 63.14 30.89 61.99L30.89 65.59L57.38 65.59L57.38 61.70C60.12 62.93 62.78 63.94 65.30 64.73C66.24 63.14 68.11 60.84 69.48 59.62C61.99 57.74 52.63 53.93 47.30 49.97C47.88 49.25 48.46 48.53 48.96 47.81Z"/></svg>
