<svg xmlns="http://www.w3.org/2000/svg" xmlns:xlink="http://www.w3.org/1999/xlink" width="72.00000000000001" height="106.56000000000002"><path fill="red" stroke="red" d="M11.59 48.82C10.80 45.58 8.86 39.89 7.20 35.57L2.66 37.51C4.18 41.98 5.98 47.74 6.77 51.26ZM41.04 80.42L41.33 80.50L33.48 82.37L33.48 77.40L43.20 77.40ZM35.35 60.84L51.41 60.84L51.41 57.96L35.42 57.96C36.14 57.17 36.79 56.38 37.30 55.58L49.61 55.58C51.55 58.32 54.14 60.84 57.10 63.00L29.88 63.00C31.82 61.49 33.70 59.76 35.35 58.03ZM52.63 68.62L33.48 68.62L33.48 66.24L52.63 66.24ZM33.48 74.16L33.48 71.64L52.63 71.64L52.63 74.16ZM58.25 77.40L58.25 63.86C60.62 65.45 63.29 66.89 65.81 67.90C66.60 66.53 68.26 64.58 69.48 63.50C64.37 61.92 59.40 59.04 55.80 55.58L68.18 55.58L68.18 51.55L46.30 51.55L46.30 48.96L63.22 48.96L63.22 45.58L46.30 45.58L46.30 43.06L65.59 43.06L65.59 39.31L54.50 39.31C55.37 38.23 56.38 37.08 57.17 35.86L51.55 34.85C50.98 36.07 49.90 37.80 48.96 39.31L37.66 39.31C36.86 37.94 35.71 36.14 34.70 34.78L29.59 36.29C30.24 37.15 30.89 38.23 31.54 39.31L22.18 39.31L22.18 43.06L40.18 43.06L40.18 45.58L24.26 45.58L24.26 48.96L40.18 48.96L40.18 51.55L19.15 51.55L19.15 55.58L30.89 55.58C27.22 59.11 22.10 62.28 17.28 64.08C17.86 59.62 18.00 55.30 18.00 51.55L18.00 34.27L68.47 34.27L68.47 28.73L45.14 28.73C44.57 26.86 43.63 24.55 42.77 22.68L36.07 24.05C36.65 25.49 37.22 27.14 37.73 28.73L12.02 28.73L12.02 51.55C12.02 53.50 12.02 55.44 11.88 57.46C8.14 59.54 4.54 61.42 1.87 62.64L3.89 68.54C6.41 67.03 8.86 65.52 11.38 63.94C10.44 71.28 8.28 78.77 3.17 84.60C4.46 85.39 6.84 87.62 7.78 88.92C13.61 82.22 16.27 73.01 17.28 64.30C18.50 65.30 19.94 67.18 20.74 68.47C23.11 67.39 25.70 65.95 28.08 64.30L28.08 80.14C28.08 83.09 26.57 84.24 25.49 84.89C26.35 85.90 27.36 87.98 27.72 89.28C28.87 88.42 30.74 87.77 43.27 84.53C43.13 83.66 42.91 82.30 42.84 81.07C50.11 83.52 59.04 86.98 63.65 89.21L66.17 85.39C64.15 84.46 61.63 83.45 58.82 82.44C61.27 81.07 63.86 79.42 66.10 77.69L62.06 75.10C60.05 76.68 56.66 78.98 53.86 80.57C50.62 79.42 47.30 78.34 44.35 77.40Z"/></svg>
