<svg xmlns="http://www.w3.org/2000/svg" xmlns:xlink="http://www.w3.org/1999/xlink" width="72.00000000000001" height="106.56000000000002"><path fill="red" stroke="red" d="M53.57 40.68L18.22 40.68L18.22 34.85L53.57 34.85ZM53.57 51.77L18.22 51.77L18.22 45.79L53.57 45.79ZM60.41 29.52L38.45 29.52C39.31 27.72 40.18 25.78 41.04 23.83L32.62 23.04C32.26 24.91 31.61 27.36 30.89 29.52L11.66 29.52L11.66 57.10L60.41 57.10ZM65.52 70.27L65.52 64.44L32.33 64.44L32.33 58.54L25.49 58.54L25.49 64.44L5.18 64.44L5.18 70.27L25.49 70.27L25.49 77.90C25.49 85.25 28.08 87.77 36.43 87.77L54.43 87.77C57.96 87.77 61.85 87.70 63.43 87.26C63.14 85.75 62.93 83.16 62.71 81.29C60.84 81.72 56.74 81.86 54.07 81.86L36.36 81.86C33.12 81.86 32.33 80.86 32.33 78.05L32.33 70.27Z"/></svg>
