<svg xmlns="http://www.w3.org/2000/svg" xmlns:xlink="http://www.w3.org/1999/xlink" width="72.00000000000001" height="106.56000000000002"><path fill="red" stroke="red" d="M23.90 54.43C25.78 52.70 27.43 51.05 29.02 49.18L43.78 49.18C45.07 51.05 46.73 52.78 48.46 54.43ZM22.03 81.36L22.03 77.18L49.39 77.18L49.39 81.36ZM22.03 68.47L49.39 68.47L49.39 72.50L22.03 72.50ZM49.39 63.79L22.03 63.79L22.03 59.76L49.39 59.76ZM67.61 49.18L67.61 43.70L33.05 43.70C33.98 42.19 34.78 40.75 35.57 39.24L62.78 39.24L62.78 33.70L52.27 33.70C54.07 31.46 55.87 28.80 57.60 26.35L51.34 24.41C50.04 27.07 47.66 30.89 45.58 33.70L38.09 33.70C39.31 30.46 40.32 27.14 40.90 23.76L34.06 22.97C33.55 26.57 32.47 30.17 30.96 33.70L22.82 33.70L25.85 32.04C24.77 29.88 22.32 26.57 20.23 24.12L14.90 26.71C16.70 28.80 18.50 31.54 19.73 33.70L9.00 33.70L9.00 39.24L28.15 39.24C27.29 40.75 26.28 42.26 25.13 43.70L4.61 43.70L4.61 49.18L20.16 49.18C15.55 53.42 9.79 57.10 2.52 59.83C3.96 61.06 5.76 63.50 6.48 65.23C9.79 63.79 12.82 62.21 15.62 60.55L15.62 89.21L22.03 89.21L22.03 86.62L49.39 86.62L49.39 89.06L56.09 89.06L56.09 60.05C59.18 61.85 62.50 63.43 65.95 64.51C66.89 62.86 68.69 60.41 70.20 59.11C62.93 57.31 56.09 53.71 51.26 49.18Z"/></svg>
