<svg xmlns="http://www.w3.org/2000/svg" xmlns:xlink="http://www.w3.org/1999/xlink" width="72.00000000000001" height="106.56000000000002"><path fill="red" stroke="red" d="M57.82 69.12L40.82 69.12L40.82 63.07L57.82 63.07ZM40.82 80.78L40.82 74.38L57.82 74.38L57.82 80.78ZM10.94 71.64L10.94 62.42L19.73 62.42L19.73 71.64ZM10.94 47.74L19.73 47.74L19.73 56.74L10.94 56.74ZM19.73 33.19L19.73 42.05L10.94 42.05L10.94 33.19ZM47.59 37.08L55.44 37.08C53.50 39.89 51.41 42.62 49.03 45.07L47.59 45.07ZM68.83 51.05L68.83 45.07L56.88 45.07C60.91 40.10 64.44 34.56 67.25 28.58L61.34 26.71C59.98 29.66 58.46 32.54 56.66 35.28L56.66 31.25L47.59 31.25L47.59 23.11L41.26 23.11L41.26 31.25L29.95 31.25L29.95 37.08L41.26 37.08L41.26 45.07L27.07 45.07L27.07 51.05L42.84 51.05C37.58 55.51 31.75 59.18 25.42 62.06L25.42 27.36L5.26 27.36L5.26 83.59L10.94 83.59L10.94 77.62L25.42 77.62L25.42 63.72C26.64 65.02 27.94 66.74 28.51 67.75C30.60 66.67 32.62 65.59 34.63 64.44L34.63 89.06L40.82 89.06L40.82 86.33L57.82 86.33L57.82 88.78L64.22 88.78L64.22 57.53L44.57 57.53C46.94 55.51 49.32 53.35 51.62 51.05Z"/></svg>
