<svg xmlns="http://www.w3.org/2000/svg" xmlns:xlink="http://www.w3.org/1999/xlink" width="72.00000000000001" height="106.56000000000002"><path fill="red" stroke="red" d="M20.74 74.45L13.82 74.45L13.82 54.58L20.74 54.58ZM3.74 32.76L12.10 32.76C10.15 42.98 6.98 52.56 2.23 58.97C3.17 60.77 4.61 64.80 4.90 66.53C6.12 65.02 7.20 63.43 8.28 61.63L8.28 85.90L13.82 85.90L13.82 80.35L26.28 80.35L26.28 48.67L14.11 48.67C15.91 43.63 17.28 38.23 18.36 32.76L27.65 32.76L27.65 26.71L3.74 26.71ZM37.01 77.83L37.01 52.13L46.01 52.13L46.01 45.94L37.01 45.94L37.01 24.62L30.74 24.62L30.74 75.96C30.74 78.91 29.66 80.57 28.58 81.50C29.66 82.87 31.25 86.18 31.82 87.84C33.05 86.62 35.21 85.46 46.94 80.28C46.58 78.91 46.22 76.10 46.15 74.23ZM56.59 81.29C55.08 81.29 54.79 80.86 54.79 77.90L54.79 52.13L66.38 52.13L66.38 45.94L54.79 45.94L54.79 24.55L48.67 24.55L48.67 77.83C48.67 85.32 50.18 87.26 55.58 87.26L62.35 87.26C67.18 87.26 68.54 84.10 69.19 75.38C67.46 74.95 65.09 73.80 63.72 72.65C63.50 79.42 63.22 81.29 61.92 81.29Z"/></svg>
