<svg xmlns="http://www.w3.org/2000/svg" xmlns:xlink="http://www.w3.org/1999/xlink" width="72.00000000000001" height="106.56000000000002"><path fill="red" stroke="red" d="M23.62 54.58L23.62 74.45L14.90 74.45L14.90 54.58ZM4.10 32.76L12.89 32.76C10.66 43.06 7.20 52.56 1.87 58.97C2.88 60.77 4.18 64.87 4.46 66.53C6.12 64.66 7.63 62.42 9.07 60.12L9.07 85.90L14.90 85.90L14.90 80.35L29.52 80.35L29.52 48.67L14.40 48.67C16.34 43.63 17.86 38.23 19.08 32.76L30.96 32.76L30.96 26.71L4.10 26.71ZM59.33 80.06L40.32 80.06L40.32 62.93L59.33 62.93ZM68.98 44.28L68.98 38.16L51.77 38.16L51.77 23.26L45.29 23.26L45.29 56.88L33.98 56.88L33.98 89.14L40.32 89.14L40.32 86.18L59.33 86.18L59.33 88.85L65.88 88.85L65.88 56.88L51.77 56.88L51.77 44.28Z"/></svg>
