<svg xmlns="http://www.w3.org/2000/svg" xmlns:xlink="http://www.w3.org/1999/xlink" width="72.00000000000001" height="106.56000000000002"><path fill="red" stroke="red" d="M58.46 44.35L38.02 44.35L38.02 32.26L58.46 32.26ZM64.94 26.57L31.75 26.57L31.75 50.04L64.94 50.04ZM28.80 62.71C27.58 60.91 21.96 53.50 20.02 51.19L20.02 49.68L28.73 49.68L28.73 43.49L20.02 43.49L20.02 31.68C22.90 30.89 25.70 30.10 28.08 29.09L24.34 23.62C19.37 25.99 11.23 28.01 4.03 29.38C4.82 30.82 5.54 33.12 5.83 34.56C8.35 34.20 11.02 33.77 13.68 33.26L13.68 43.49L3.17 43.49L3.17 49.68L12.10 49.68C9.79 57.31 5.83 65.88 2.09 70.78C3.10 72.50 4.68 75.46 5.18 77.33C8.35 73.01 11.30 66.31 13.68 59.40L13.68 89.28L20.02 89.28L20.02 58.54C21.96 61.99 24.12 65.95 25.06 68.18ZM51.91 81.65L51.91 73.37L65.74 73.37L65.74 67.61L51.91 67.61L51.91 59.40C56.66 58.75 61.20 57.96 64.87 56.95L60.62 51.91C53.78 53.93 41.90 55.22 31.82 55.87C32.47 57.31 33.34 59.62 33.41 61.06C37.15 60.91 41.26 60.62 45.29 60.19L45.29 67.61L31.25 67.61L31.25 73.37L45.29 73.37L45.29 81.65L27.43 81.65L27.43 87.62L68.62 87.62L68.62 81.65Z"/></svg>
