<svg xmlns="http://www.w3.org/2000/svg" xmlns:xlink="http://www.w3.org/1999/xlink" width="72.00000000000001" height="106.56000000000002"><path fill="red" stroke="red" d="M11.38 33.05L24.77 33.05C22.54 37.01 17.93 39.60 7.92 41.18C9.07 42.19 10.37 44.06 10.94 45.36C22.97 43.13 28.66 39.46 31.54 33.05L40.54 33.05L40.54 36.50C40.54 40.75 41.54 42.98 47.09 42.98L57.89 42.98C60.05 42.98 62.57 42.91 63.79 42.55C63.50 41.11 63.43 39.74 63.29 38.09C62.06 38.45 59.04 38.59 57.46 38.59L48.60 38.59C46.87 38.59 46.66 38.02 46.66 36.58L46.66 33.05L60.34 33.05L60.34 37.73L67.03 37.73L67.03 28.44L40.39 28.44C39.89 26.78 39.02 24.62 38.23 22.97L31.61 23.98C32.18 25.34 32.76 26.93 33.19 28.44L4.90 28.44L4.90 38.45L11.38 38.45ZM6.34 53.35C7.63 55.87 9.00 59.26 9.43 61.49L14.04 60.05C13.61 57.82 12.24 54.50 10.73 52.13ZM32.69 66.38L32.69 61.49L21.96 61.49L21.96 49.75C26.06 49.25 29.88 48.60 33.05 47.74L29.30 43.63C23.54 45.14 13.25 46.37 4.61 46.94C5.18 48.17 5.83 49.97 6.05 51.19C9.22 51.05 12.60 50.83 15.98 50.47L15.98 61.49L4.10 61.49L4.10 66.38L13.39 66.38C10.80 71.71 6.77 76.82 2.81 79.56C3.96 80.86 5.40 83.38 6.05 84.96C9.65 82.01 13.25 77.40 15.98 72.50L15.98 89.14L21.96 89.14L21.96 72.43C24.12 74.88 26.50 77.62 27.65 79.20L31.46 74.38C30.17 73.08 25.20 68.62 22.46 66.38ZM27.50 61.42C28.87 59.26 30.53 56.02 31.97 52.92L27.07 51.62C26.28 54.07 24.48 57.74 23.26 60.19ZM48.53 57.38C47.81 60.34 45.94 62.35 42.62 63.86C43.49 64.51 44.86 65.88 45.36 66.60C47.16 65.66 48.74 64.51 49.97 63.00C51.62 64.15 53.42 65.45 54.36 66.46L56.88 63.86C55.73 62.78 53.57 61.34 51.55 60.26C51.98 59.47 52.20 58.61 52.42 57.67ZM41.11 57.17L59.04 57.17L59.04 67.03L41.11 67.03ZM64.44 67.03L64.44 52.99L51.48 52.99L51.48 50.26L65.66 50.26L65.66 46.22L51.48 46.22L51.48 43.78L45.72 43.78L45.72 52.99L35.86 52.99L35.86 67.03L32.47 67.03L32.47 89.21L37.94 89.21L37.94 71.64L45.86 71.64C45.14 74.09 44.21 76.82 43.34 79.06C42.34 79.20 41.33 79.34 40.39 79.49L41.69 83.66C45.79 82.87 50.62 81.86 55.51 80.86C55.80 81.65 56.09 82.37 56.30 82.94L60.05 81.36C59.18 79.20 57.17 75.53 55.44 72.94L51.77 74.16C52.42 75.17 53.06 76.25 53.71 77.33L48.38 78.26C49.10 76.25 49.90 73.87 50.62 71.64L61.42 71.64L61.42 84.02C61.42 84.74 61.13 84.89 60.41 84.96C59.69 84.96 57.10 84.96 54.58 84.89C55.30 86.11 56.16 87.84 56.38 89.21C60.41 89.28 63.00 89.21 64.80 88.49C66.60 87.70 67.10 86.54 67.10 83.95L67.10 67.03Z"/></svg>
