<svg xmlns="http://www.w3.org/2000/svg" xmlns:xlink="http://www.w3.org/1999/xlink" width="72.00000000000001" height="106.56000000000002"><path fill="red" stroke="red" d="M35.71 34.49L35.71 28.58L18.65 28.58C19.30 27.22 19.94 25.99 20.38 24.62L13.90 22.68C11.59 28.80 7.42 34.78 2.95 38.66C4.32 39.96 6.55 43.06 7.42 44.35C10.22 41.76 12.96 38.30 15.34 34.49ZM33.19 51.34L33.19 62.28L18.14 62.28L18.14 51.34ZM55.22 62.28L39.67 62.28L39.67 51.34L55.22 51.34ZM27.29 81.86C19.58 81.86 18.14 81.00 18.14 76.82L18.14 68.26L55.22 68.26L55.22 70.92L61.92 70.92L61.92 45.36L54.43 45.36L58.75 41.76C57.38 39.67 54.43 36.65 51.98 34.49L68.33 34.49L68.33 28.58L47.74 28.58C48.24 27.22 48.67 25.85 49.10 24.41L42.26 22.75C40.54 29.52 37.30 36.07 33.19 40.18C34.70 41.33 37.37 43.85 38.38 45.07C40.90 42.34 43.27 38.59 45.29 34.49L51.26 34.49L47.09 37.87C49.46 40.03 52.27 43.20 53.64 45.36L24.05 45.36L28.01 42.12C26.64 39.89 23.62 36.79 21.10 34.56L16.42 38.23C18.58 40.32 21.10 43.27 22.54 45.36L11.30 45.36L11.30 76.82C11.30 85.75 15.12 87.77 27.58 87.77L53.78 87.77C64.58 87.77 67.18 85.10 68.40 75.24C66.46 74.95 63.65 74.02 61.92 72.94C61.06 80.42 59.90 81.86 53.35 81.86Z"/></svg>
