<svg xmlns="http://www.w3.org/2000/svg" xmlns:xlink="http://www.w3.org/1999/xlink" width="72.00000000000001" height="106.56000000000002"><path fill="red" stroke="red" d="M35.71 34.49L35.71 28.58L18.65 28.58C19.30 27.22 19.94 25.99 20.38 24.62L13.90 22.68C11.59 28.80 7.42 34.78 2.95 38.66C4.32 39.96 6.55 43.06 7.42 44.35C10.22 41.76 12.96 38.30 15.34 34.49ZM16.85 38.23C19.37 40.61 22.25 43.99 23.62 46.22L28.44 42.12C27.07 39.89 23.98 36.79 21.53 34.56ZM18.43 73.58C23.83 68.26 28.87 61.78 32.54 55.08L32.54 73.58ZM67.54 54.94L67.54 48.96L39.24 48.96L39.24 42.98L38.30 42.98C40.61 40.68 42.70 37.73 44.50 34.49L52.13 34.49L47.95 37.87C50.47 40.18 53.50 43.56 54.86 45.79L59.62 41.76C58.25 39.67 55.30 36.65 52.85 34.49L68.54 34.49L68.54 28.58L47.52 28.58C48.02 27.22 48.60 25.85 49.03 24.41L42.26 22.75C40.46 28.80 37.01 34.70 32.76 38.45C34.20 39.53 36.43 41.69 37.58 42.98L32.54 42.98L32.54 48.96L4.54 48.96L4.54 54.94L25.70 54.94C20.23 63.72 11.38 72.22 3.02 76.75C4.61 77.98 6.70 80.50 7.78 82.01C11.23 79.85 14.76 77.11 18.07 73.94L18.07 79.42L32.54 79.42L32.54 89.06L39.24 89.06L39.24 79.42L53.78 79.42L53.78 73.58L39.24 73.58L39.24 54.94L39.46 54.94C45.65 65.45 55.44 75.96 64.66 81.72C65.74 79.99 67.97 77.54 69.48 76.25C61.20 71.71 52.13 63.43 46.37 54.94Z"/></svg>
