<svg xmlns="http://www.w3.org/2000/svg" xmlns:xlink="http://www.w3.org/1999/xlink" width="72.00000000000001" height="106.56000000000002"><path fill="red" stroke="red" d="M22.90 48.24C23.33 47.09 23.76 45.86 24.26 44.64L47.81 44.64C47.52 45.79 47.16 46.94 46.87 48.24ZM58.25 60.98C54.14 63.43 47.88 66.38 42.34 68.69C40.90 66.10 38.88 63.72 36.22 61.70C37.01 61.34 37.73 60.91 38.45 60.48L67.61 60.48L67.61 55.66L51.05 55.66C52.56 51.12 54.14 45.86 55.30 41.18L50.54 40.18L49.61 40.46L25.78 40.46L26.35 38.74L30.60 36.22C29.52 34.99 27.50 33.26 25.70 31.82L36.14 31.82L36.14 27.22L18.22 27.22C18.79 26.21 19.30 25.34 19.80 24.34L13.82 22.46C11.52 27.43 7.49 32.26 3.17 35.42C4.54 36.43 6.77 38.81 7.70 39.96C10.22 37.80 12.89 34.99 15.19 31.82L22.90 31.82L19.73 33.55C21.17 34.70 22.97 36.29 24.34 37.66L20.38 37.08C18.72 42.05 16.27 48.24 14.40 52.42L45.58 52.42C45.22 53.57 44.86 54.58 44.50 55.66L4.46 55.66L4.46 60.48L29.30 60.48C22.82 62.71 14.47 64.30 6.98 65.23C7.92 66.10 9.22 68.33 9.65 69.26C16.56 68.11 24.41 66.38 31.03 63.94C31.90 64.51 32.69 65.16 33.41 65.81C27.43 68.98 17.06 72.00 9.07 73.08C9.94 74.09 11.09 75.89 11.59 77.04C19.51 75.46 29.52 72.07 35.86 68.62C36.43 69.34 36.94 70.13 37.37 70.92C30.17 75.89 16.63 80.42 5.40 81.86C6.48 83.09 7.63 84.96 8.28 86.40C18.65 84.53 30.96 80.14 38.88 75.17C39.67 78.55 38.95 81.43 37.44 82.51C36.50 83.38 35.21 83.52 33.77 83.52C32.33 83.52 30.31 83.45 27.94 83.23C29.02 84.82 29.66 87.19 29.81 88.78C31.54 88.92 33.34 88.92 34.78 88.92C37.66 88.85 39.46 88.42 41.54 86.83C44.78 84.53 46.08 78.84 44.21 73.01C45.43 72.58 46.73 72.07 47.95 71.71C51.55 78.48 57.24 83.74 64.44 86.40C65.30 84.82 67.18 82.44 68.54 81.29C61.70 79.27 56.23 75.10 52.92 69.70C56.59 68.18 60.34 66.38 63.58 64.66ZM48.17 27.29C48.67 26.21 49.18 25.20 49.61 24.12L43.49 22.54C41.54 27.43 38.09 32.11 34.13 35.21C35.64 36.14 38.09 38.16 39.24 39.17C41.47 37.22 43.63 34.70 45.58 31.82L54.29 31.82L50.76 33.70C52.99 35.57 55.51 38.09 56.81 39.82L61.56 37.01C60.48 35.57 58.18 33.41 56.23 31.82L68.76 31.82L68.76 27.29Z"/></svg>
