<svg xmlns="http://www.w3.org/2000/svg" xmlns:xlink="http://www.w3.org/1999/xlink" width="72.00000000000001" height="106.56000000000002"><path fill="red" stroke="red" d="M17.14 46.94C18.79 45.65 20.45 44.28 21.96 42.84C24.41 44.14 26.86 45.50 29.16 46.94ZM14.18 50.83L32.11 50.83L32.11 48.89C33.70 49.90 35.06 50.90 36.07 51.84L40.46 47.81C37.30 45.22 31.32 41.83 25.56 39.17C26.14 38.52 26.64 37.87 27.14 37.30L23.83 36.58L25.92 35.93C25.49 34.85 24.70 33.48 23.90 32.11L34.49 32.11C33.41 33.05 32.33 33.91 31.10 34.63C32.76 35.35 35.50 36.94 36.86 37.94C38.88 36.43 40.90 34.34 42.84 32.11L48.17 32.11C49.90 33.98 51.55 36.43 52.34 37.94L58.32 36.07C57.74 34.92 56.74 33.55 55.51 32.11L68.04 32.11L68.04 27.58L46.08 27.58C46.66 26.50 47.30 25.42 47.81 24.26L41.54 22.68C40.10 25.85 37.80 29.02 35.06 31.61L35.06 27.58L17.28 27.58C17.93 26.50 18.58 25.49 19.08 24.41L12.89 22.68C10.58 27.43 6.77 32.11 2.52 35.21C4.03 36.07 6.70 37.80 7.92 38.88C10.08 37.08 12.24 34.70 14.18 32.11L17.14 32.11C18.14 33.70 19.15 35.42 19.80 36.94C15.70 41.83 9.29 46.51 2.74 49.54C4.10 50.40 6.55 52.13 7.49 53.06C9.79 51.91 12.02 50.54 14.18 49.03ZM60.26 55.44L48.17 55.44L48.17 51.34L60.26 51.34ZM60.26 63.72L48.17 63.72L48.17 59.47L60.26 59.47ZM60.26 72.07L48.17 72.07L48.17 67.82L60.26 67.82ZM67.90 42.55L67.90 38.02L39.46 38.02L39.46 42.55L50.76 42.55C50.47 44.06 50.18 45.58 49.90 47.02L42.19 47.02L42.19 76.32L66.46 76.32L66.46 47.02L55.66 47.02C56.23 45.65 56.88 44.14 57.53 42.55ZM32.98 56.66L35.93 56.66L35.93 60.48L32.98 60.48ZM29.59 63.79L39.46 63.79L39.46 53.28L29.59 53.28ZM21.02 56.66L23.83 56.66L23.83 60.48L21.02 60.48ZM27.29 63.79L27.29 53.28L17.64 53.28L17.64 63.79ZM12.10 60.48L9.29 60.48L9.29 56.66L12.10 56.66ZM15.55 53.28L5.98 53.28L5.98 63.79L15.55 63.79ZM28.66 74.59L28.66 70.56L32.98 70.56L32.98 74.59ZM20.38 74.59L20.38 70.56L24.48 70.56L24.48 74.59ZM12.17 74.59L12.17 70.56L16.20 70.56L16.20 74.59ZM38.16 66.38L7.06 66.38L7.06 89.21L12.17 89.21L12.17 78.70L16.20 78.70L16.20 88.27L20.38 88.27L20.38 78.70L24.48 78.70L24.48 88.27L28.66 88.27L28.66 78.70L32.98 78.70L32.98 84.24C32.98 84.74 32.83 84.89 32.33 84.89C31.82 84.96 30.82 84.89 29.38 84.89C29.95 86.04 30.74 87.62 30.89 88.92C33.26 88.92 35.21 88.92 36.43 88.20C37.87 87.41 38.16 86.40 38.16 84.17ZM47.59 76.90C45.50 80.14 41.83 83.30 38.30 85.46C39.60 86.33 41.69 88.27 42.70 89.28C46.37 86.62 50.47 82.51 53.14 78.55ZM55.87 79.27C59.11 82.30 63.22 86.47 65.02 89.14L70.06 86.47C67.97 83.81 63.86 79.85 60.62 76.97Z"/></svg>
