<svg xmlns="http://www.w3.org/2000/svg" xmlns:xlink="http://www.w3.org/1999/xlink" width="72.00000000000001" height="106.56000000000002"><path fill="red" stroke="red" d="M28.01 27.58C26.86 32.18 24.41 38.74 22.46 42.84L27.22 44.42C29.38 40.68 32.04 34.49 34.27 29.23ZM14.11 42.98C13.32 38.74 11.30 32.40 9.50 27.50L4.25 28.87C5.98 33.84 7.85 40.32 8.64 44.64ZM9.72 57.10C8.57 63.14 5.76 70.92 2.88 74.95C3.89 76.90 5.33 79.92 5.98 82.08C9.94 76.90 12.89 66.60 14.26 58.61ZM31.68 53.28L31.68 47.02L21.67 47.02L21.67 23.18L15.34 23.18L15.34 47.02L4.10 47.02L4.10 53.28L15.34 53.28L15.34 89.14L21.67 89.14L21.67 53.28ZM21.74 59.54C23.40 63.07 26.93 71.86 28.08 76.18L32.90 71.50C31.82 69.12 26.71 59.11 25.42 56.95ZM60.12 79.56L39.46 79.56L39.46 63.36L60.12 63.36ZM68.90 43.42L68.90 37.08L51.41 37.08L51.41 23.18L44.57 23.18L44.57 57.02L32.90 57.02L32.90 89.21L39.46 89.21L39.46 85.90L60.12 85.90L60.12 88.85L66.89 88.85L66.89 57.02L51.41 57.02L51.41 43.42Z"/></svg>
