<svg xmlns="http://www.w3.org/2000/svg" xmlns:xlink="http://www.w3.org/1999/xlink" width="72.00000000000001" height="106.56000000000002"><path fill="red" stroke="red" d="M33.26 63.94C32.47 60.34 30.24 54.29 28.08 49.75L23.33 51.19C24.12 53.14 24.98 55.37 25.78 57.60L13.25 59.33C19.51 52.78 25.78 44.64 30.96 36.29L25.63 32.98C23.83 36.36 21.60 39.82 19.44 42.98L11.30 43.63C15.41 38.30 19.58 31.75 22.97 25.20L17.35 22.75C14.04 30.67 8.57 38.88 6.91 40.97C5.18 43.20 3.89 44.57 2.52 44.93C3.24 46.44 4.18 49.25 4.46 50.47C5.47 49.97 7.27 49.54 15.19 48.60C12.53 52.20 10.15 55.01 8.93 56.16C6.48 58.90 4.68 60.62 2.95 60.98C3.67 62.64 4.61 65.59 4.90 66.74C6.62 65.95 9.14 65.38 27.43 62.50C27.72 63.65 27.94 64.73 28.15 65.66ZM6.84 69.48C5.90 75.17 4.32 81.58 2.30 85.90C3.74 86.26 6.19 86.98 7.42 87.55C9.07 83.30 10.94 76.61 12.02 70.49ZM15.12 70.13C15.91 74.88 16.78 81.22 16.92 85.32L22.18 84.02C21.89 79.92 21.02 73.80 20.02 68.98ZM23.47 68.69C25.13 72.79 27.00 78.19 27.79 81.72L32.69 79.92C31.82 76.46 29.88 71.06 28.08 67.03ZM39.82 65.30C38.59 71.21 36.36 77.26 33.26 81.29C34.85 81.79 37.44 83.02 38.74 83.95C41.62 79.63 44.14 73.08 45.72 66.53ZM61.99 60.34C62.50 61.78 62.93 63.07 63.22 64.22L68.47 61.70C67.25 57.46 64.01 50.98 60.77 46.01L55.94 48.17C57.31 50.47 58.75 52.99 59.98 55.51L45.07 56.88C51.41 50.62 57.74 42.84 62.93 34.85L57.74 31.46C56.02 34.56 53.86 37.66 51.84 40.54L43.63 41.26C47.09 36.79 50.54 31.39 53.21 26.06L47.66 23.69C45.00 30.24 40.39 37.15 38.95 38.95C37.58 40.75 36.36 42.05 35.21 42.26C35.78 43.78 36.79 46.58 37.08 47.81C38.16 47.30 39.82 46.87 47.66 46.01C44.93 49.46 42.48 52.13 41.26 53.28C38.81 55.80 37.08 57.46 35.35 57.82C35.93 59.40 36.94 62.42 37.30 63.58C38.52 63.00 40.25 62.71 48.53 61.78L48.53 82.37C48.53 83.09 48.31 83.30 47.52 83.38C46.80 83.38 44.42 83.38 41.98 83.23C42.70 84.89 43.42 87.26 43.63 88.92C47.52 88.92 50.26 88.85 52.27 87.98C54.22 87.05 54.65 85.46 54.65 82.44L54.65 61.06ZM57.46 66.82C59.98 71.86 62.71 78.62 63.72 83.02L69.48 80.93C68.33 76.61 65.59 70.06 62.93 65.09Z"/></svg>
