<svg xmlns="http://www.w3.org/2000/svg" xmlns:xlink="http://www.w3.org/1999/xlink" width="72.00000000000001" height="106.56000000000002"><path fill="red" stroke="red" d="M53.06 31.25L57.67 31.25L57.67 44.21C57.67 49.18 58.61 51.19 63.29 51.19L66.17 51.19C67.32 51.19 68.47 51.12 69.26 50.83C69.12 49.61 68.98 47.66 68.83 46.30C68.18 46.51 66.89 46.58 66.10 46.58L63.94 46.58C63.14 46.58 63.00 46.08 63.00 44.28L63.00 25.85L47.81 25.85L47.81 34.56C47.81 39.67 47.09 45.94 42.19 50.76C43.27 51.48 45.36 53.35 46.30 54.36C51.84 48.89 53.06 40.82 53.06 34.70ZM26.35 65.16C25.92 61.63 24.41 55.73 22.90 51.19L18.14 52.27C18.72 54.00 19.30 56.09 19.80 58.03L12.10 59.40C17.28 52.85 22.39 44.71 26.35 36.79L20.74 33.77C19.37 37.01 17.64 40.39 15.91 43.49L10.37 43.92C13.75 38.45 17.06 31.54 19.58 24.98L13.68 22.75C11.45 30.46 7.34 38.66 6.05 40.75C4.75 42.98 3.67 44.50 2.45 44.78C3.17 46.30 4.03 49.25 4.39 50.47C5.40 49.97 6.91 49.61 12.82 48.89C10.73 52.34 8.86 55.08 7.99 56.23C5.90 58.90 4.39 60.55 2.88 60.98C3.67 62.57 4.61 65.59 4.90 66.74C6.19 66.02 8.28 65.38 20.74 62.86C21.02 64.30 21.17 65.52 21.31 66.53ZM5.76 69.41C5.18 75.24 4.25 81.58 2.59 85.90C3.82 86.26 6.12 86.90 7.20 87.48C8.64 83.16 9.86 76.46 10.51 70.20ZM11.95 70.56C12.74 75.53 13.32 81.86 13.46 86.11L18.07 85.03C17.93 80.78 17.21 74.52 16.34 69.55ZM17.93 69.12C19.30 73.15 20.66 78.55 21.24 82.08L25.34 80.78C24.70 77.33 23.26 72.07 21.82 67.97ZM45.36 73.58L44.86 68.11C41.33 68.83 37.80 69.48 34.56 70.06L34.56 60.48L43.27 60.48L43.27 55.01L34.56 55.01L34.56 45.94L43.13 45.94L43.13 40.39L34.56 40.39L34.56 32.62C38.38 30.96 42.41 29.09 45.65 27.14L40.61 22.54C37.73 24.91 32.83 27.79 28.44 29.74L28.44 71.14L24.77 71.78L25.92 77.76L28.44 77.18L28.44 88.78L34.56 88.78L34.56 75.89ZM60.62 60.98C59.47 65.23 57.89 68.90 55.80 72.07C53.93 68.76 52.42 65.02 51.48 60.98ZM63.79 55.08L62.71 55.30L45.14 55.30L45.14 60.98L49.18 60.98L46.44 61.56C47.81 67.18 49.68 72.29 52.20 76.68C49.03 80.14 45.14 82.58 40.75 84.10C41.90 85.32 43.42 87.62 44.06 89.21C48.46 87.41 52.34 84.82 55.66 81.58C58.32 84.74 61.49 87.34 65.16 89.06C65.95 87.48 67.75 85.18 69.12 84.02C65.38 82.51 62.14 80.14 59.47 77.11C63.29 71.78 65.95 64.80 67.39 56.02Z"/></svg>
