<svg xmlns="http://www.w3.org/2000/svg" xmlns:xlink="http://www.w3.org/1999/xlink" width="72.00000000000001" height="106.56000000000002"><path fill="red" stroke="red" d="M31.18 84.17L31.18 59.26L25.63 59.26L25.63 75.96L21.02 75.96L21.02 55.08L32.47 55.08L32.47 48.89L21.02 48.89L21.02 37.30L30.96 37.30L30.96 31.18L13.39 31.18C14.04 28.94 14.62 26.57 15.12 24.26L9.14 23.04C7.70 30.53 5.26 38.30 1.94 43.34C3.46 43.99 6.05 45.58 7.20 46.51C8.78 43.92 10.15 40.75 11.45 37.30L15.12 37.30L15.12 48.89L3.17 48.89L3.17 55.08L15.12 55.08L15.12 75.96L10.66 75.96L10.66 59.26L5.33 59.26L5.33 81.86L25.63 81.86L25.63 84.17ZM51.70 41.26L58.68 41.26L58.68 55.58L51.55 55.58C51.62 53.28 51.70 50.83 51.70 48.53ZM69.19 61.78L69.19 55.58L64.80 55.58L64.80 34.99L51.70 34.99L51.70 23.11L45.50 23.11L45.50 34.99L35.28 34.99L35.28 41.26L45.50 41.26L45.50 48.53C45.50 50.83 45.43 53.28 45.29 55.58L34.13 55.58L34.13 61.78L44.57 61.78C43.20 70.42 39.67 78.48 30.96 84.82C32.47 85.75 34.78 87.91 35.78 89.35C45.86 81.86 49.61 72.14 50.98 61.78ZM52.70 66.24C56.52 73.51 61.13 83.23 63.29 88.78L69.26 86.33C66.89 80.71 62.06 71.28 58.25 64.15Z"/></svg>
