<svg xmlns="http://www.w3.org/2000/svg" xmlns:xlink="http://www.w3.org/1999/xlink" width="72.00000000000001" height="106.56000000000002"><path fill="red" stroke="red" d="M67.82 47.52L39.31 47.52L39.31 43.85L60.91 43.85L60.91 39.02L39.31 39.02L39.31 35.35L64.73 35.35L64.73 30.31L50.98 30.31C52.27 28.66 53.64 26.64 55.08 24.55L47.81 22.97C46.94 25.06 45.29 28.15 43.99 30.31L28.01 30.31L28.37 30.17C27.50 28.15 25.63 25.13 23.62 23.11L17.78 25.06C19.08 26.64 20.38 28.58 21.24 30.31L7.42 30.31L7.42 35.35L32.47 35.35L32.47 39.02L11.23 39.02L11.23 43.85L32.47 43.85L32.47 47.52L4.25 47.52L4.25 52.78L67.82 52.78ZM57.24 69.19C55.51 71.42 53.21 73.44 50.47 75.24C49.32 73.37 48.31 71.21 47.52 68.83L68.11 68.83L68.11 63.72L60.55 63.72L64.37 59.54C61.78 57.31 56.66 54.72 52.56 53.21L48.82 57.10C52.92 58.82 57.96 61.63 60.41 63.72L46.01 63.72C45.29 60.62 44.86 57.31 44.71 53.78L38.23 53.78C38.45 57.24 38.88 60.62 39.53 63.72L25.34 63.72L25.34 59.04C29.30 58.46 33.05 57.89 36.22 57.10L32.26 53.06C25.92 54.65 14.69 55.87 5.18 56.38C5.83 57.53 6.41 59.40 6.62 60.55C10.51 60.41 14.69 60.12 18.86 59.69L18.86 63.72L4.18 63.72L4.18 68.83L18.86 68.83L18.86 73.15C13.18 73.58 7.99 73.87 3.89 74.09L4.46 79.27L18.86 78.12L18.86 82.80C18.86 83.81 18.58 84.10 17.42 84.10C16.49 84.17 12.67 84.17 9.07 83.95C9.79 85.46 10.66 87.62 11.02 89.21C16.42 89.21 19.94 89.14 22.25 88.34C24.62 87.62 25.34 86.18 25.34 82.94L25.34 77.54C29.23 77.26 33.26 76.90 37.22 76.54L37.22 71.86C33.26 72.14 29.23 72.43 25.34 72.72L25.34 68.83L40.82 68.83C41.90 72.36 43.27 75.60 44.93 78.34C40.18 80.71 34.78 82.51 29.45 83.74C30.60 84.96 32.26 87.77 32.90 89.06C38.09 87.48 43.42 85.39 48.24 82.87C51.77 86.83 56.16 89.14 61.06 89.14C66.10 89.14 68.18 87.26 69.19 79.49C67.54 79.06 65.45 77.98 64.15 76.90C63.79 81.50 63.29 83.02 61.42 83.02C58.75 83.09 56.16 81.79 53.78 79.49C57.38 77.04 60.55 74.30 62.93 71.14Z"/></svg>
