<svg xmlns="http://www.w3.org/2000/svg" xmlns:xlink="http://www.w3.org/1999/xlink" width="72.00000000000001" height="106.56000000000002"><path fill="red" stroke="red" d="M19.37 41.04L12.31 41.04L12.31 32.11L19.37 32.11ZM12.31 71.64L12.31 61.20L19.37 61.20L19.37 70.63ZM19.37 55.66L12.31 55.66L12.31 46.58L19.37 46.58ZM27.50 32.11L27.50 26.06L3.67 26.06L3.67 32.11L6.84 32.11L6.84 72.50L2.81 73.08L4.10 79.06C8.50 78.26 13.90 77.26 19.37 76.32L19.37 89.21L24.98 89.21L24.98 32.11ZM40.10 58.61L40.10 69.41L35.14 69.41L35.14 58.61L29.66 58.61L29.66 75.02L39.38 75.02C38.23 78.70 35.57 82.22 29.30 85.03C30.38 85.97 32.26 88.34 32.90 89.64C43.49 84.67 45.65 76.61 45.65 69.48L45.65 58.61ZM40.32 46.22C40.75 47.59 41.26 48.96 41.62 50.47L33.55 51.26C37.73 46.66 42.12 40.54 45.79 34.34L41.26 31.97C40.18 34.06 38.88 36.29 37.58 38.23L33.05 38.45C35.71 34.99 38.66 30.31 40.97 25.70L36.00 23.54C34.06 28.80 30.53 33.91 29.59 35.28C28.58 36.58 27.58 37.51 26.71 37.73C27.22 39.46 28.01 42.48 28.22 43.85C28.94 43.49 30.17 43.13 34.49 42.70C32.76 45.22 31.18 47.16 30.46 47.95C28.80 49.90 27.43 51.12 26.28 51.41C26.78 52.99 27.43 55.94 27.72 57.31C28.87 56.74 30.67 56.30 42.84 54.79C43.20 56.09 43.49 57.38 43.70 58.39L47.88 57.02C47.23 54.07 45.65 49.03 44.35 45.22ZM69.62 56.30C68.76 53.28 66.82 48.17 65.16 44.42L61.34 45.65C61.85 47.02 62.42 48.46 62.93 49.97L55.22 50.98C58.90 46.30 62.57 40.32 65.74 34.27L61.27 31.97C60.41 33.91 59.33 35.93 58.32 37.73L53.50 38.02C55.94 34.78 58.54 30.53 60.70 26.21L56.23 23.98C54.29 29.02 50.98 34.13 49.90 35.42C48.89 36.72 48.02 37.58 47.09 37.73C47.59 39.31 48.31 42.19 48.60 43.49C49.32 43.06 50.62 42.70 55.66 42.19C54.00 44.93 52.42 47.09 51.62 47.95C50.26 49.90 48.96 51.12 47.88 51.34C48.31 52.92 49.10 55.80 49.32 57.17C50.47 56.52 52.34 56.02 64.44 54.14C64.80 55.58 65.23 56.95 65.52 57.96ZM60.48 69.26L55.51 69.26L55.51 58.54L49.75 58.54L49.75 89.28L55.51 89.28L55.51 75.02L60.48 75.02L60.48 77.54L65.95 77.54L65.95 59.11L60.48 59.11Z"/></svg>
