<svg xmlns="http://www.w3.org/2000/svg" xmlns:xlink="http://www.w3.org/1999/xlink" width="72.00000000000001" height="106.56000000000002"><path fill="red" stroke="red" d="M56.30 24.84C54.00 29.74 49.90 36.07 46.66 40.03L52.63 42.55C55.80 38.74 59.90 32.90 63.00 27.43ZM20.59 56.74C30.02 57.89 42.26 60.84 48.60 63.43L51.12 57.96C44.57 55.37 32.26 52.70 22.97 51.77ZM19.37 48.53L52.63 48.53L52.63 64.01C40.39 66.24 27.65 68.54 19.22 69.77C19.37 67.75 19.37 65.74 19.37 63.94ZM59.47 42.62L39.31 42.62L39.31 23.11L32.62 23.11L32.62 42.62L18.79 42.62L24.84 39.60C23.26 35.50 19.51 29.66 15.62 25.34L9.79 28.01C13.46 32.40 17.14 38.52 18.65 42.62L12.82 42.62L12.82 63.86C12.82 70.92 12.53 79.78 9.07 85.97C10.58 86.76 13.54 88.85 14.62 90.07C17.78 84.60 18.86 76.90 19.22 69.77L21.46 76.10C30.17 74.52 41.54 72.29 52.63 70.06L52.63 81.14C52.63 82.37 52.20 82.73 50.83 82.80C49.46 82.80 44.50 82.87 40.03 82.66C40.97 84.38 41.98 87.26 42.34 89.06C48.82 89.14 53.06 89.06 55.80 87.98C58.54 86.98 59.47 85.03 59.47 81.29Z"/></svg>
