<svg xmlns="http://www.w3.org/2000/svg" xmlns:xlink="http://www.w3.org/1999/xlink" width="72.00000000000001" height="106.56000000000002"><path fill="red" stroke="red" d="M13.61 43.92C16.13 46.58 19.01 49.82 20.45 51.91L23.62 49.32L23.62 55.30C19.80 57.89 16.13 60.34 13.32 61.92C13.54 58.03 13.61 54.29 13.61 50.98ZM23.62 31.90L23.62 47.09C21.67 44.93 18.94 42.12 16.42 39.96L13.61 41.98L13.61 31.90ZM29.81 25.70L7.56 25.70L7.56 51.05C7.56 61.34 7.20 75.31 2.45 85.18C3.89 85.90 6.48 87.98 7.56 89.14C11.09 81.94 12.60 72.22 13.18 63.22L15.84 67.68C18.29 65.59 20.95 63.36 23.62 61.06L23.62 80.86C23.62 81.86 23.33 82.22 22.32 82.30C21.38 82.30 18.43 82.30 15.34 82.15C16.13 83.88 16.99 86.90 17.14 88.63C22.10 88.63 25.13 88.49 27.14 87.34C29.23 86.26 29.81 84.31 29.81 81.00ZM54.14 79.63L54.14 51.62L67.39 51.62L67.39 45.07L54.14 45.07L54.14 23.90L47.38 23.90L47.38 45.07L33.62 45.07L33.62 51.62L47.38 51.62L47.38 79.63L31.82 79.63L31.82 86.18L68.90 86.18L68.90 79.63Z"/></svg>
