<svg xmlns="http://www.w3.org/2000/svg" xmlns:xlink="http://www.w3.org/1999/xlink" width="72.00000000000001" height="106.56000000000002"><path fill="red" stroke="red" d="M20.88 61.99C28.51 64.22 39.02 67.75 44.35 69.91L47.38 64.94C41.83 62.86 31.25 59.62 23.76 57.67ZM19.94 56.66L51.91 56.66L51.91 68.33C39.60 71.50 27.00 74.59 19.01 76.32C19.73 72.79 19.94 69.19 19.94 66.10ZM58.82 51.26L13.25 51.26L13.25 65.95C13.25 71.86 12.82 78.98 7.70 84.17C9.00 85.03 11.59 87.77 12.53 89.21C15.62 86.18 17.50 82.30 18.58 78.26L19.94 83.16C28.73 80.64 40.54 77.04 51.91 73.44L51.91 81.79C51.91 82.80 51.48 83.16 50.26 83.23C49.10 83.23 44.57 83.30 40.46 83.09C41.40 84.74 42.34 87.48 42.70 89.21C48.74 89.21 52.70 89.21 55.30 88.13C57.96 87.26 58.82 85.46 58.82 81.86ZM39.89 41.11L39.89 34.92L60.26 34.92L60.26 29.52L39.89 29.52L39.89 23.11L32.98 23.11L32.98 41.11L21.96 41.11L21.96 27.43L15.41 27.43L15.41 41.11L4.97 41.11L4.97 46.73L67.03 46.73L67.03 41.11Z"/></svg>
