<svg xmlns="http://www.w3.org/2000/svg" xmlns:xlink="http://www.w3.org/1999/xlink" width="72.00000000000001" height="106.56000000000002"><path fill="red" stroke="red" d="M12.53 44.14C14.54 46.44 16.63 49.18 17.78 51.12L20.45 49.18L20.45 56.95C17.35 58.97 14.54 60.84 12.24 62.14C12.46 58.25 12.53 54.43 12.53 51.12ZM20.45 31.82L20.45 46.44C18.94 44.50 16.85 42.19 15.12 40.32L12.53 41.98L12.53 31.82ZM26.14 25.70L6.98 25.70L6.98 51.12C6.98 61.56 6.62 75.67 2.38 85.61C3.60 86.26 5.98 88.27 6.98 89.50C10.15 82.15 11.52 72.50 12.17 63.50L14.11 67.90L20.45 62.64L20.45 81.86C20.45 82.80 20.16 83.09 19.30 83.16C18.43 83.16 15.84 83.23 12.96 83.09C13.75 84.60 14.47 87.41 14.69 88.99C19.15 88.99 21.89 88.85 23.76 87.77C25.56 86.83 26.14 84.96 26.14 81.94ZM50.11 36.79L50.11 47.66C50.11 53.28 51.48 55.30 57.02 55.30L63.79 55.30C65.52 55.30 67.32 55.30 68.26 54.86C68.11 53.57 67.90 51.26 67.75 49.75C66.74 50.04 64.87 50.11 63.72 50.11L57.24 50.11C55.94 50.11 55.80 49.54 55.80 47.74L55.80 36.79L61.06 36.79L61.06 42.91L67.32 42.91L67.32 31.32L52.34 31.32C51.26 28.73 49.61 25.42 48.10 22.61L41.98 24.55C43.06 26.57 44.28 29.09 45.14 31.32L28.80 31.32L28.80 43.34L34.85 43.34L34.85 36.79L40.10 36.79C39.60 45.79 37.73 50.11 27.43 52.70C28.73 53.86 30.31 56.38 30.89 57.96C42.77 54.36 45.36 48.17 45.86 36.79ZM52.20 67.46L65.38 67.46L65.38 61.63L32.04 61.63L32.04 67.46L45.58 67.46L45.58 81.22L27.72 81.22L27.72 87.05L68.26 87.05L68.26 81.22L52.20 81.22Z"/></svg>
