<svg xmlns="http://www.w3.org/2000/svg" xmlns:xlink="http://www.w3.org/1999/xlink" width="72.00000000000001" height="106.56000000000002"><path fill="red" stroke="red" d="M45.36 32.04L55.30 32.04L55.30 40.90C55.30 46.58 56.38 48.82 61.78 48.82L65.81 48.82C67.10 48.82 68.54 48.82 69.48 48.38C69.19 46.94 69.12 44.71 68.98 43.06C68.04 43.42 66.67 43.49 65.74 43.49L62.42 43.49C61.56 43.49 61.42 42.84 61.42 40.97L61.42 26.35L39.17 26.35L39.17 35.35C39.17 39.38 38.66 43.78 34.13 47.23C35.42 47.95 37.94 50.33 38.95 51.41C44.35 47.38 45.36 40.97 45.36 35.50ZM15.41 41.11C17.21 44.06 19.51 48.17 20.45 50.76L24.84 48.38C23.76 45.86 21.60 41.98 19.51 39.02ZM14.11 51.70L14.11 35.71L26.78 35.71L26.78 53.06C22.39 53.42 18.07 53.78 14.11 54.07ZM34.56 57.74L34.49 52.42L32.83 52.56L32.83 30.31L21.82 30.31C22.68 28.44 23.62 26.14 24.55 23.83L17.71 22.97C17.35 25.06 16.42 28.01 15.70 30.31L8.21 30.31L8.21 51.77L8.21 54.58L3.02 54.94L3.60 61.06L8.06 60.62C7.63 69.19 6.48 78.70 3.02 85.97C4.46 86.62 7.06 88.34 8.21 89.42C12.17 81.14 13.54 69.70 13.97 59.98C18.00 59.54 22.39 59.04 26.78 58.54L26.78 81.36C26.78 82.44 26.42 82.73 25.42 82.80C24.48 82.80 20.95 82.80 17.71 82.66C18.58 84.24 19.44 86.98 19.66 88.56C24.48 88.56 27.86 88.49 29.95 87.41C32.11 86.47 32.83 84.74 32.83 81.43L32.83 57.89ZM25.20 72.43C24.19 69.70 21.89 65.45 19.87 62.21L15.55 64.30C17.50 67.54 19.73 72.00 20.74 74.95ZM59.47 59.26C57.82 64.58 55.22 69.05 52.06 72.58C48.38 68.83 45.58 64.37 43.70 59.26ZM63.07 53.14L61.92 53.35L36.65 53.35L36.65 59.26L40.32 59.26L37.51 60.12C39.89 66.60 43.13 72.22 47.38 76.90C43.49 79.85 38.88 82.01 33.84 83.45C34.99 84.60 36.94 87.26 37.66 88.85C42.91 87.05 47.74 84.60 51.84 81.22C55.66 84.31 60.05 86.69 65.09 88.42C65.95 86.69 67.97 84.17 69.34 82.80C64.58 81.43 60.26 79.27 56.66 76.61C61.42 71.14 65.02 63.94 66.96 54.65Z"/></svg>
