<svg xmlns="http://www.w3.org/2000/svg" xmlns:xlink="http://www.w3.org/1999/xlink" width="72.00000000000001" height="106.56000000000002"><path fill="red" stroke="red" d="M41.98 35.06C40.03 37.80 37.58 40.68 35.21 42.91L17.50 42.91C20.02 40.46 22.32 37.80 24.41 35.06ZM55.37 59.83L40.03 59.83L40.03 49.10L55.37 49.10ZM18.36 49.10L33.48 49.10L33.48 59.83L18.36 59.83ZM27.58 81.86C19.73 81.86 18.36 80.93 18.36 76.61L18.36 66.24L55.37 66.24L55.37 69.05L61.99 69.05L61.99 42.91L43.27 42.91C46.58 39.46 49.75 35.50 52.27 31.82L47.88 28.73L46.51 29.09L28.66 29.09C29.52 27.72 30.38 26.42 31.10 25.06L24.98 22.82C20.09 32.11 11.45 40.61 2.88 45.79C3.96 47.30 5.83 50.69 6.48 52.13C8.28 50.90 10.08 49.54 11.88 48.02L11.88 76.61C11.88 85.75 15.62 87.98 27.79 87.98L54.00 87.98C65.30 87.98 67.75 84.67 69.12 73.22C67.32 72.86 64.44 71.93 62.78 70.85C61.92 79.99 60.77 81.86 53.86 81.86Z"/></svg>
