<svg xmlns="http://www.w3.org/2000/svg" xmlns:xlink="http://www.w3.org/1999/xlink" width="72.00000000000001" height="106.56000000000002"><path fill="red" stroke="red" d="M27.22 44.42L30.17 44.42L30.17 41.26L32.76 41.26L32.76 38.52L30.17 38.52L30.17 36.29L32.40 36.29L32.40 33.55L30.17 33.55L30.17 31.10L32.76 31.10L32.76 28.44L30.17 28.44L30.17 25.20L27.22 25.20L27.22 28.44L24.98 28.44L24.98 31.10L27.22 31.10L27.22 33.55L25.13 33.55L25.13 36.29L27.22 36.29L27.22 38.52L24.98 38.52L24.98 41.26L27.22 41.26ZM12.89 44.42L15.77 44.42L15.77 41.26L18.07 41.26L18.07 38.52L15.77 38.52L15.77 36.29L17.78 36.29L17.78 33.55L15.77 33.55L15.77 31.10L17.93 31.10L17.93 28.44L15.77 28.44L15.77 25.20L12.89 25.20L12.89 28.44L10.66 28.44L10.66 31.10L12.89 31.10L12.89 33.55L10.80 33.55L10.80 36.29L12.89 36.29L12.89 38.52L10.66 38.52L10.66 41.26L12.89 41.26ZM38.95 52.99L3.24 52.99L3.24 58.03L38.95 58.03ZM12.67 65.09L30.17 65.09L30.17 69.98L12.67 69.98ZM28.15 74.09L35.78 74.09L35.78 60.98L6.98 60.98L6.98 74.09L26.28 74.09C25.70 76.18 24.77 79.13 23.98 81.29C15.91 81.86 8.42 82.37 2.81 82.66L3.46 88.13C12.82 87.41 26.42 86.54 39.31 85.46L39.31 80.21L29.74 80.93C30.53 79.13 31.32 77.11 32.11 75.02ZM10.51 75.02C11.45 77.18 12.24 80.14 12.53 82.01L17.86 81.07C17.57 79.20 16.56 76.32 15.48 74.23ZM56.38 36.50C55.51 39.10 54.36 41.76 53.35 43.99L45.58 43.99C46.87 41.69 48.10 39.17 49.25 36.50ZM61.06 62.14L56.30 62.14L56.30 49.46L61.06 49.46ZM46.94 49.46L51.55 49.46L51.55 62.14L46.94 62.14ZM50.54 83.02C47.45 83.02 46.94 82.58 46.94 79.85L46.94 67.68L66.67 67.68L66.67 43.99L59.04 43.99C60.77 40.46 62.50 36.36 63.79 32.90L59.98 30.53L59.18 30.82L51.70 30.82C52.34 28.80 53.06 26.71 53.71 24.70L47.66 23.11C45.58 30.60 42.34 38.23 38.38 43.70L38.38 25.92L33.98 25.92L33.98 45.65L23.69 45.65L23.69 23.40L19.37 23.40L19.37 45.65L9.29 45.65L9.29 25.78L5.04 25.78L5.04 50.04L38.38 50.04L38.38 47.02C39.46 47.81 40.61 48.74 41.40 49.39L41.40 79.85C41.40 87.19 43.34 88.92 49.97 88.92L61.20 88.92C66.96 88.92 68.62 86.18 69.41 76.90C67.75 76.46 65.38 75.46 64.08 74.45C63.79 81.65 63.29 83.02 60.77 83.02Z"/></svg>
