<svg xmlns="http://www.w3.org/2000/svg" xmlns:xlink="http://www.w3.org/1999/xlink" width="72.00000000000001" height="106.56000000000002"><path fill="red" stroke="red" d="M47.52 39.60L54.07 39.60L54.07 34.78L67.68 34.78L67.68 29.02L54.07 29.02L54.07 23.18L47.52 23.18L47.52 29.02L37.58 29.02L37.58 34.78L47.52 34.78ZM18.36 39.60L24.98 39.60L24.98 34.85L33.91 34.85L33.91 29.02L24.98 29.02L24.98 23.18L18.36 23.18L18.36 29.02L4.03 29.02L4.03 34.85L18.36 34.85ZM21.17 63.72C21.17 70.06 19.73 78.26 6.84 83.88C8.35 85.10 10.58 87.62 11.52 89.28C26.21 82.51 28.01 72.22 28.01 63.86L28.01 57.31L21.17 57.31ZM43.70 89.14L50.69 89.14L50.69 57.24L43.70 57.24ZM35.57 36.50C29.02 44.64 15.48 52.27 2.74 55.15C4.18 56.88 5.69 59.54 6.48 61.34C16.34 58.39 26.86 52.78 34.56 46.22C42.19 52.99 53.71 58.46 64.73 60.98C65.74 59.18 67.68 56.38 69.34 54.86C57.74 52.85 45.43 48.02 38.74 42.34C39.46 41.54 40.10 40.82 40.75 40.03Z"/></svg>
