<svg xmlns="http://www.w3.org/2000/svg" xmlns:xlink="http://www.w3.org/1999/xlink" width="72.00000000000001" height="106.56000000000002"><path fill="red" stroke="red" d="M47.52 39.53L54.14 39.53L54.14 33.98L67.75 33.98L67.75 27.86L54.14 27.86L54.14 23.04L47.52 23.04L47.52 27.86L37.30 27.86L37.30 33.98L47.52 33.98ZM18.22 39.31L24.77 39.31L24.77 33.98L34.42 33.98L34.42 27.86L24.77 27.86L24.77 23.04L18.22 23.04L18.22 27.86L4.46 27.86L4.46 33.98L18.22 33.98ZM31.10 40.97L31.10 47.02L46.73 47.02C49.18 51.19 52.42 55.22 56.09 58.61L16.78 58.61C21.02 54.72 24.84 49.97 27.43 44.86L20.74 42.84C17.14 50.18 10.01 56.59 2.38 60.26C3.96 61.42 6.48 63.94 7.70 65.30C10.22 63.79 12.82 61.99 15.19 59.98L15.19 64.73L26.86 64.73C24.98 73.08 20.81 79.99 5.69 83.66C7.13 84.96 8.93 87.62 9.58 89.42C26.78 84.53 31.97 75.96 34.20 64.73L49.75 64.73C49.18 76.10 48.31 80.71 47.02 82.01C46.30 82.73 45.50 82.87 44.35 82.87C42.84 82.87 39.24 82.87 35.57 82.51C36.65 84.24 37.37 86.83 37.58 88.70C41.40 88.85 45.29 88.92 47.23 88.63C49.61 88.49 51.19 87.91 52.63 86.26C54.79 83.95 55.66 77.54 56.59 61.34C56.66 60.77 56.66 59.76 56.66 59.11C59.18 61.34 61.99 63.29 64.94 64.87C65.95 63.22 68.26 60.62 69.77 59.40C61.78 55.87 54.43 48.74 51.12 40.97Z"/></svg>
