<svg xmlns="http://www.w3.org/2000/svg" xmlns:xlink="http://www.w3.org/1999/xlink" width="72.00000000000001" height="106.56000000000002"><path fill="red" stroke="red" d="M21.02 42.70C16.92 51.48 9.86 60.05 2.45 65.38C4.03 66.53 6.70 68.83 7.99 70.13C10.44 68.04 13.03 65.59 15.41 62.86L15.41 89.21L22.03 89.21L22.03 54.29C24.12 51.26 26.06 48.02 27.72 44.71ZM27.65 23.18L21.10 23.18L21.10 29.95L4.39 29.95L4.39 36.29L21.10 36.29L21.10 42.70L27.65 42.70L27.65 36.29L34.70 36.29L34.70 29.95L27.65 29.95ZM44.57 42.98L51.26 42.98L51.26 36.22L67.46 36.22L67.46 29.95L51.26 29.95L51.26 23.18L44.57 23.18L44.57 29.95L37.22 29.95L37.22 36.22L44.57 36.22ZM47.88 82.08C44.50 82.08 43.92 81.50 43.92 78.48L43.92 61.27L67.39 61.27L67.39 54.94L43.92 54.94L43.92 43.70L37.30 43.70L37.30 78.48C37.30 86.18 39.38 88.27 47.09 88.27L59.40 88.27C66.38 88.27 68.18 84.96 68.98 73.94C67.18 73.44 64.44 72.36 62.93 71.21C62.50 80.21 61.99 82.08 58.82 82.08Z"/></svg>
