<svg xmlns="http://www.w3.org/2000/svg" xmlns:xlink="http://www.w3.org/1999/xlink" width="72.00000000000001" height="106.56000000000002"><path fill="red" stroke="red" d="M47.02 41.62L53.64 41.62L53.64 35.28L67.68 35.28L67.68 29.23L53.64 29.23L53.64 23.18L47.02 23.18L47.02 29.23L37.58 29.23L37.58 35.28L47.02 35.28ZM18.50 41.62L25.06 41.62L25.06 35.28L33.91 35.28L33.91 29.30L25.06 29.30L25.06 23.18L18.50 23.18L18.50 29.30L4.03 29.30L4.03 35.28L18.50 35.28ZM33.84 61.92L33.84 71.71L18.65 71.71L18.65 61.92ZM40.46 77.33L40.46 56.30L11.95 56.30L11.95 82.44L18.65 82.44L18.65 77.33ZM67.82 44.71L4.25 44.71L4.25 51.12L51.05 51.12L51.05 81.50C51.05 82.66 50.54 82.94 49.18 83.02C47.74 83.09 42.62 83.09 37.94 82.87C38.81 84.67 39.96 87.48 40.25 89.35C46.80 89.35 51.26 89.21 54.14 88.27C56.95 87.34 57.96 85.54 57.96 81.58L57.96 51.12L67.82 51.12Z"/></svg>
