<svg xmlns="http://www.w3.org/2000/svg" xmlns:xlink="http://www.w3.org/1999/xlink" width="72.00000000000001" height="106.56000000000002"><path fill="red" stroke="red" d="M21.17 70.85C18.29 75.38 12.67 79.85 7.20 82.01C8.64 83.30 10.73 85.75 11.74 87.34C17.57 84.38 23.40 78.62 26.71 72.79ZM53.42 69.12L53.42 63.36L35.64 63.36L35.64 51.34L29.16 51.34L29.16 63.36L10.15 63.36L10.15 69.12L29.16 69.12L29.16 89.28L35.64 89.28L35.64 69.12ZM44.93 51.84C43.49 54.65 40.82 58.68 38.81 61.34L44.06 62.86C46.15 60.48 48.82 56.95 51.05 53.57ZM21.89 43.34C22.61 41.98 23.26 40.75 23.83 39.38L18.72 38.52L24.98 38.52L24.98 34.06L33.91 34.06L33.91 28.15L24.98 28.15L24.98 23.11L18.36 23.11L18.36 28.15L4.03 28.15L4.03 34.06L18.36 34.06L18.36 38.45L16.92 38.23C14.54 44.14 9.94 51.12 2.81 56.30C4.39 57.24 6.62 59.33 7.78 60.84C10.37 58.68 12.67 56.52 14.62 54.14C16.85 56.95 19.08 60.70 19.87 63.14L25.56 61.20C24.55 58.46 22.18 54.72 19.73 52.06L15.19 53.50C16.27 52.13 17.28 50.83 18.29 49.39L58.10 49.39C57.31 72.36 56.45 80.78 54.86 82.73C54.22 83.66 53.57 83.88 52.42 83.88C51.48 83.88 49.61 83.88 47.52 83.74L52.78 80.71C50.83 77.90 46.73 73.73 43.34 70.78L38.30 73.51C41.62 76.68 45.58 81.00 47.38 83.74C46.73 83.74 46.08 83.66 45.43 83.59C46.22 85.10 46.87 87.41 47.02 89.06C50.40 89.21 53.64 89.28 55.73 88.99C57.89 88.70 59.47 88.06 60.84 86.04C63.07 83.09 64.01 74.02 64.87 46.44C64.94 45.58 64.94 43.34 64.94 43.34ZM54.07 28.15L54.07 23.11L47.52 23.11L47.52 28.15L37.58 28.15L37.58 33.98L47.52 33.98L47.52 39.02L54.07 39.02L54.07 33.98L67.68 33.98L67.68 28.15Z"/></svg>
