<svg xmlns="http://www.w3.org/2000/svg" xmlns:xlink="http://www.w3.org/1999/xlink" width="72.00000000000001" height="106.56000000000002"><path fill="red" stroke="red" d="M47.45 37.66L53.86 37.66L53.86 33.48L67.68 33.48L67.68 27.86L53.86 27.86L53.86 23.11L47.45 23.11L47.45 27.86L37.58 27.86L37.58 33.48L47.45 33.48ZM57.96 37.30C46.15 40.03 24.55 41.47 6.48 41.90C7.13 43.27 7.92 45.94 7.99 47.52C26.50 47.23 48.67 45.86 63.22 42.55ZM21.67 58.82C20.66 55.87 17.93 51.62 15.34 48.46L9.72 50.69C12.31 53.93 14.83 58.39 15.77 61.42ZM57.02 45.72C55.30 49.82 52.06 55.66 49.39 59.33L54.65 61.63C57.38 58.18 60.91 52.92 63.86 48.17ZM18.58 38.38L24.98 38.38L24.98 33.55L33.91 33.55L33.91 27.86L24.98 27.86L24.98 23.11L18.58 23.11L18.58 27.86L4.03 27.86L4.03 33.55L18.58 33.55ZM67.82 69.98L67.82 64.15L39.31 64.15L39.31 58.90L34.42 58.90L39.82 57.10C39.24 54.22 37.44 50.11 35.28 47.02L29.45 48.96C31.32 52.06 33.05 56.16 33.55 58.90L32.33 58.90L32.33 64.15L4.46 64.15L4.46 69.98L26.86 69.98C20.66 75.38 11.23 80.21 2.59 82.51C3.96 83.95 6.05 86.47 6.91 88.20C15.98 85.18 25.63 79.34 32.33 72.58L32.33 89.21L39.31 89.21L39.31 72.14C45.79 79.06 55.51 84.74 64.80 87.62C65.81 85.82 67.75 83.30 69.26 81.94C60.26 79.78 50.90 75.31 44.78 69.98Z"/></svg>
