<svg xmlns="http://www.w3.org/2000/svg" xmlns:xlink="http://www.w3.org/1999/xlink" width="72.00000000000001" height="106.56000000000002"><path fill="red" stroke="red" d="M47.52 36.07L54.14 36.07L54.14 32.83L67.75 32.83L67.75 27.29L54.14 27.29L54.14 23.04L47.52 23.04L47.52 27.29L37.37 27.29L37.37 32.83L47.52 32.83ZM31.46 64.01L31.46 60.19L41.11 60.19L41.11 64.01ZM31.46 52.42L41.11 52.42L41.11 56.16L31.46 56.16ZM57.10 52.42L57.10 56.16L47.30 56.16L47.30 52.42ZM57.10 64.01L47.30 64.01L47.30 60.19L57.10 60.19ZM47.30 81.07L47.30 76.54L67.25 76.54L67.25 71.64L47.30 71.64L47.30 68.18L63.50 68.18L63.50 48.24L47.30 48.24L47.30 44.93L66.02 44.93L66.02 40.18L47.30 40.18L47.30 36.43L41.11 36.43L41.11 40.18L23.04 40.18L23.04 44.93L41.11 44.93L41.11 48.24L25.42 48.24L25.42 68.18L41.11 68.18L41.11 71.64L21.82 71.64L21.82 76.54L41.11 76.54L41.11 81.07ZM18.22 36.94L24.77 36.94L24.77 32.83L34.42 32.83L34.42 27.29L24.77 27.29L24.77 23.04L18.22 23.04L18.22 27.29L4.46 27.29L4.46 32.83L18.22 32.83ZM8.14 38.30C9.58 40.97 11.81 44.64 12.89 46.80L18.36 44.21C17.21 42.12 15.12 38.74 13.46 36.07ZM18.72 60.34L17.71 60.62L14.40 60.62C16.49 56.74 18.86 52.34 20.81 48.31L4.25 48.31L4.25 53.71L11.95 53.71C9.79 58.03 7.42 62.57 5.40 65.88L14.62 65.88C13.10 69.84 11.02 73.87 8.78 76.82C6.55 78.41 4.18 81.00 1.94 84.10L6.19 89.93C8.35 85.54 10.80 81.00 12.46 81.00C13.97 81.00 16.49 83.38 19.51 85.10C24.70 88.13 30.89 88.92 40.39 88.92C48.74 88.92 61.99 88.49 67.68 88.06C67.75 86.33 68.83 83.23 69.48 81.50C61.63 82.44 49.46 83.16 40.61 83.16C32.11 83.16 25.56 82.66 20.59 79.70C18.29 78.26 16.78 77.04 15.48 76.32C18.22 72.07 20.52 66.82 22.10 61.70Z"/></svg>
