<svg xmlns="http://www.w3.org/2000/svg" xmlns:xlink="http://www.w3.org/1999/xlink" width="72.00000000000001" height="106.56000000000002"><path fill="red" stroke="red" d="M48.02 35.86L54.58 35.86L54.58 32.76L67.68 32.76L67.68 27.50L54.58 27.50L54.58 23.11L48.02 23.11L48.02 27.50L37.58 27.50L37.58 32.76L48.02 32.76ZM18.50 35.86L25.13 35.86L25.13 32.83L33.91 32.83L33.91 27.58L25.13 27.58L25.13 23.11L18.50 23.11L18.50 27.58L4.03 27.58L4.03 32.83L18.50 32.83ZM8.86 89.14C13.97 86.33 16.92 81.58 18.79 76.90L13.25 74.66C11.59 78.98 8.42 83.16 3.82 85.46ZM24.12 76.61C25.27 80.50 26.35 85.46 26.42 88.63L32.76 87.48C32.54 84.38 31.32 79.42 30.02 75.67ZM14.26 65.95L27.65 65.95L27.65 61.70L14.26 61.70ZM11.52 69.05L11.52 58.25C12.60 58.97 13.90 60.19 14.54 61.06C17.93 58.32 19.01 54.58 19.30 50.62L22.32 50.62L22.32 53.93C22.32 58.03 23.26 59.04 26.86 59.04L30.17 59.04L30.24 59.04L30.24 69.05ZM15.12 50.62C14.76 53.21 13.82 55.80 11.52 57.74L11.52 50.62ZM19.37 42.55L22.32 42.55L22.32 46.01L19.37 46.01ZM30.24 50.62L30.24 55.01C30.10 55.08 29.88 55.08 29.52 55.08L27.36 55.08C26.57 55.08 26.50 54.94 26.50 53.93L26.50 50.62ZM52.27 47.81L52.27 51.70L45.43 51.70L45.43 47.81ZM52.27 59.90L45.43 59.90L45.43 56.09L52.27 56.09ZM52.27 68.76L45.43 68.76L45.43 64.30L52.27 64.30ZM39.82 74.59L45.43 74.59L45.43 73.22L67.97 73.22L67.97 68.76L57.67 68.76L57.67 64.30L66.10 64.30L66.10 59.90L57.67 59.90L57.67 56.09L66.10 56.09L66.10 51.70L57.67 51.70L57.67 47.81L67.90 47.81L67.90 42.84L58.54 42.84C57.82 40.90 56.30 38.16 55.15 36.22L49.82 37.94C50.69 39.38 51.55 41.18 52.27 42.84L44.86 42.84C45.65 41.04 46.37 39.10 46.94 37.22L42.05 35.86C40.75 40.68 38.38 45.43 35.50 48.82L35.50 46.01L26.50 46.01L26.50 42.55L36.50 42.55L36.50 37.73L4.97 37.73L4.97 42.55L15.26 42.55L15.26 46.01L6.55 46.01L6.55 74.95L11.52 74.95L11.52 73.58L30.24 73.58L30.24 74.95L35.50 74.95L35.50 50.62C36.36 51.98 37.30 53.71 37.66 54.58C38.38 53.78 39.10 52.85 39.82 51.98ZM37.87 76.82C40.10 80.50 42.41 85.39 43.27 88.42L49.18 86.18C48.24 83.16 45.79 78.48 43.49 75.02ZM51.84 76.97C55.73 80.64 60.34 85.90 62.28 89.28L68.33 86.18C66.10 82.80 61.34 77.83 57.53 74.30Z"/></svg>
