<svg xmlns="http://www.w3.org/2000/svg" xmlns:xlink="http://www.w3.org/1999/xlink" width="72.00000000000001" height="106.56000000000002"><path fill="red" stroke="red" d="M58.75 46.94L38.66 46.94L38.66 42.41L58.75 42.41ZM58.75 56.09L38.66 56.09L38.66 51.41L58.75 51.41ZM61.63 32.04L61.63 37.66L35.28 37.66L35.28 32.04ZM64.66 39.10L67.97 39.10L67.97 26.50L29.16 26.50L29.16 39.31L32.98 39.31L32.98 60.84L64.66 60.84ZM69.05 67.10L52.70 67.10C51.84 65.16 50.54 62.64 49.39 60.84L43.49 62.71C44.21 64.01 45.00 65.59 45.58 67.10L28.80 67.10L28.80 72.79L69.05 72.79ZM9.86 40.75L13.61 40.75L13.61 56.02L9.86 56.02ZM21.96 56.02L18.14 56.02L18.14 40.75L21.96 40.75ZM29.23 79.70C28.58 75.46 26.93 69.05 25.13 64.01L20.52 65.30C21.24 67.32 21.89 69.70 22.54 72.00L18.65 73.01L18.65 61.49L26.86 61.49L26.86 35.28L18.65 35.28L18.65 23.69L13.18 23.69L13.18 35.28L4.97 35.28L4.97 64.51L9.86 64.51L9.86 61.49L13.18 61.49L13.18 74.38C9.22 75.38 5.54 76.25 2.66 76.90L3.89 83.02C9.58 81.50 16.70 79.56 23.83 77.54C24.05 78.84 24.26 80.14 24.41 81.22ZM40.97 74.09C37.58 78.05 32.40 82.22 27.79 85.10C29.16 85.97 31.54 87.98 32.69 89.06C37.22 85.82 42.84 80.78 46.73 76.25ZM51.55 77.62C56.02 81.07 61.99 86.04 64.80 89.06L69.26 84.82C66.24 81.79 60.19 77.11 55.80 73.80Z"/></svg>
