<svg xmlns="http://www.w3.org/2000/svg" xmlns:xlink="http://www.w3.org/1999/xlink" width="72.00000000000001" height="106.56000000000002"><path fill="red" stroke="red" d="M59.18 51.62C56.95 50.54 53.14 49.03 49.82 47.88C50.47 47.02 51.05 46.15 51.48 45.36L46.87 44.28C44.64 47.95 40.03 50.76 35.14 52.63C36.36 53.35 38.16 54.79 39.02 55.66C41.69 54.43 44.42 52.78 46.80 50.83C50.26 52.13 54.43 53.93 56.66 55.08ZM59.69 56.16L34.49 56.16L34.49 43.99L59.69 43.99ZM29.02 39.89L29.02 60.34L65.38 60.34L65.38 39.89L62.42 39.89L66.10 38.38C64.22 36.43 60.98 33.70 57.89 31.54C60.34 29.52 62.86 27.22 65.30 24.84L59.69 23.26C57.67 25.49 54.22 28.80 50.83 31.61C54.72 34.56 58.39 37.58 60.55 39.89L49.03 39.89L53.50 38.16C51.77 36.29 48.82 33.62 45.86 31.46C48.10 29.52 50.54 27.29 52.78 24.91L47.09 23.40C45.36 25.63 42.19 28.80 39.10 31.61C42.84 34.49 46.15 37.58 48.10 39.89L37.80 39.89L41.11 38.59C39.53 36.65 36.65 33.98 33.84 31.68C36.00 29.66 38.38 27.36 40.46 24.91L34.70 23.40C32.98 25.70 30.02 28.94 27.07 31.75C30.38 34.56 33.26 37.58 35.21 39.89ZM13.54 41.47L13.54 56.95L9.65 56.95L9.65 41.47ZM21.67 56.95L17.50 56.95L17.50 41.47L21.67 41.47ZM35.35 82.01L35.35 77.54L42.41 77.54L42.41 73.01L35.35 73.01L35.35 69.48L42.41 69.48L42.41 64.94L35.35 64.94L35.35 61.78L30.17 61.78L30.17 81.22C30.17 83.16 29.45 83.81 28.66 84.10C28.01 79.20 26.35 71.86 24.70 66.10L20.30 67.32C20.95 69.70 21.60 72.36 22.18 75.02L18.29 75.67L18.29 62.42L26.57 62.42L26.57 35.93L18.29 35.93L18.29 23.33L12.96 23.33L12.96 35.93L4.90 35.93L4.90 66.24L9.07 66.24L9.07 62.42L12.82 62.42L12.82 76.54C9.07 77.11 5.62 77.62 2.81 77.98L3.82 84.38C9.43 83.45 16.49 82.22 23.40 80.93C23.62 82.66 23.90 84.17 24.05 85.54L28.01 84.38C28.73 85.68 29.45 87.98 29.74 89.42C30.74 88.63 32.54 87.91 42.05 85.18C41.69 84.02 41.33 82.08 41.26 80.57ZM49.46 81.86L49.46 77.69L56.52 77.69L56.52 73.15L49.46 73.15L49.46 69.62L56.52 69.62L56.52 65.16L49.46 65.16L49.46 61.70L44.35 61.70L44.35 81.29C44.35 83.59 43.27 84.02 42.26 84.38C42.91 85.46 43.63 87.84 43.85 89.28C45.00 88.42 46.94 87.70 58.03 84.60C57.74 83.45 57.38 81.50 57.24 79.99ZM57.89 61.92C57.89 76.82 59.76 89.06 65.09 89.06C66.89 89.06 68.69 87.05 69.62 80.57C68.69 80.14 67.10 79.06 66.17 78.05C65.95 81.50 65.45 83.23 64.94 83.23C63.72 83.23 62.86 74.23 63.07 61.92Z"/></svg>
