<svg xmlns="http://www.w3.org/2000/svg" xmlns:xlink="http://www.w3.org/1999/xlink" width="72.00000000000001" height="106.56000000000002"><path fill="red" stroke="red" d="M61.13 50.18C62.50 52.92 63.65 56.59 64.01 58.90L67.82 57.67C67.46 55.44 66.02 51.91 64.66 49.25L68.26 47.88C67.68 45.50 65.74 41.76 63.94 39.02L60.34 40.25C60.91 41.11 61.49 42.19 61.99 43.27L54.50 43.92C58.54 40.32 62.42 35.93 65.52 31.61L61.06 29.74C60.19 31.10 59.33 32.40 58.32 33.77L52.70 34.20C55.01 31.61 57.17 28.58 58.90 25.49L54.14 23.98C52.63 28.15 49.25 32.54 48.24 33.62C47.30 34.78 46.44 35.50 45.43 35.64C46.01 36.43 46.80 38.16 47.02 38.88C48.02 38.52 49.54 38.23 55.22 37.66C53.06 40.25 50.98 42.34 50.04 43.06C48.38 44.64 47.09 45.65 45.72 45.79C46.30 46.66 47.16 48.38 47.38 49.10C48.82 48.53 50.98 48.10 63.58 46.66C64.01 47.59 64.30 48.53 64.51 49.32ZM59.83 58.97C59.76 56.74 58.97 53.06 57.89 50.11L54.07 50.83C55.08 53.71 55.80 57.46 55.87 59.83ZM48.24 50.18C47.81 53.28 47.09 56.38 45.72 58.68C46.66 59.18 48.53 60.12 49.32 60.62C50.83 58.18 51.91 54.43 52.56 50.98ZM46.08 29.30L39.31 29.30C38.74 27.50 37.51 25.13 36.36 23.33L32.18 24.55C32.90 26.06 33.77 27.72 34.34 29.30L25.13 29.30L25.13 33.26L46.08 33.26ZM27.22 45.58L43.92 45.58L43.92 42.26L27.22 42.26ZM43.92 36.07L27.22 36.07L27.22 39.38L43.92 39.38ZM31.25 51.98L39.89 51.98L39.89 55.80L31.25 55.80ZM27.00 59.33L44.28 59.33L44.28 48.46L27.00 48.46ZM5.76 38.66L5.83 38.66C6.84 38.38 8.35 38.09 13.68 37.58C11.52 40.10 9.58 42.12 8.64 42.91C7.06 44.35 5.76 45.43 4.39 45.58C5.04 46.44 5.83 48.02 6.12 48.82L6.12 48.89C7.49 48.31 9.58 47.95 21.82 46.58C22.18 47.45 22.46 48.31 22.68 49.03L26.50 47.59C25.85 45.29 23.98 41.54 22.10 38.74L18.50 39.89C19.08 40.90 19.73 42.05 20.30 43.06L12.96 43.85C16.99 40.32 20.74 36.00 23.83 31.75L19.30 29.88C18.58 31.18 17.71 32.47 16.70 33.77L11.52 34.06C13.82 31.46 15.98 28.44 17.71 25.42L12.96 23.90C11.38 28.08 8.06 32.40 7.06 33.48C6.12 34.56 5.26 35.28 4.25 35.50C4.68 36.14 5.47 37.58 5.76 38.45ZM19.08 49.97C20.30 52.49 21.53 55.73 21.82 57.74L25.56 56.59C25.20 54.58 23.90 51.41 22.61 49.03ZM18.29 59.11C18.14 56.81 17.35 53.06 16.20 50.18L12.38 50.83C13.39 53.78 14.18 57.60 14.18 59.98ZM6.70 50.18C6.34 53.35 5.62 56.59 4.32 59.04C5.33 59.54 7.20 60.41 7.99 60.98C9.36 58.39 10.44 54.50 11.02 50.83ZM39.10 76.75L54.86 76.75L51.55 78.26C52.70 79.20 53.93 80.28 55.15 81.43L39.10 81.58ZM17.35 72.07L17.35 67.10L32.54 67.10L32.54 72.07ZM54.86 67.10L54.86 72.07L39.10 72.07L39.10 67.10ZM68.69 87.26C66.46 84.38 61.92 79.99 57.82 76.75L61.34 76.75L61.34 62.50L39.10 62.50L39.10 60.05L32.54 60.05L32.54 62.50L11.23 62.50L11.23 76.75L32.54 76.75L32.54 81.58C22.46 81.65 13.18 81.72 5.98 81.65L6.34 87.41C20.30 87.26 40.75 86.83 60.05 86.40C61.34 87.77 62.50 88.99 63.29 90.14Z"/></svg>
