<svg xmlns="http://www.w3.org/2000/svg" xmlns:xlink="http://www.w3.org/1999/xlink" width="72.00000000000001" height="106.56000000000002"><path fill="red" stroke="red" d="M66.89 27.58L40.03 27.58C39.38 26.06 38.52 24.26 37.66 22.82L31.46 24.05C31.97 25.13 32.62 26.35 33.12 27.58L5.11 27.58L5.11 32.47L66.89 32.47ZM66.74 65.59C61.70 63.29 52.13 60.48 45.00 59.04L42.48 62.14C49.82 63.86 59.26 66.89 64.15 69.19ZM18.50 48.24L18.50 45.07L32.62 45.07L32.62 48.24ZM18.50 38.52L32.62 38.52L32.62 41.69L18.50 41.69ZM53.28 41.69L39.31 41.69L39.31 38.52L53.28 38.52ZM53.28 48.24L39.31 48.24L39.31 45.07L53.28 45.07ZM55.80 67.90C53.50 69.70 49.97 72.00 46.66 73.80C43.92 71.78 41.54 69.41 39.74 66.89C40.18 66.53 40.61 66.17 41.04 65.81L36.50 63.65L39.31 63.65L39.31 59.04L67.25 59.04L67.25 54.36L39.31 54.36L39.31 51.77L59.98 51.77L59.98 34.99L12.17 34.99L12.17 51.77L32.62 51.77L32.62 54.36L4.90 54.36L4.90 59.04L32.62 59.04L32.62 63.65L34.56 63.65C27.79 68.90 15.41 73.15 2.81 75.96C3.89 77.11 5.69 79.42 6.41 80.78C10.80 79.70 15.19 78.41 19.44 77.04L19.44 79.06C19.44 82.15 18.00 83.74 16.92 84.46C17.71 85.46 19.08 87.84 19.51 89.14C20.88 88.27 23.11 87.62 37.37 83.95C37.15 82.66 37.01 80.42 37.08 78.77L25.92 81.43L25.92 74.59C29.38 73.15 32.62 71.50 35.42 69.84C41.83 78.91 52.56 85.03 65.59 87.70C66.46 86.04 68.04 83.74 69.34 82.44C62.64 81.43 56.52 79.49 51.41 76.75C54.50 75.17 57.74 73.37 60.48 71.42ZM24.55 59.40C20.38 61.85 12.38 63.72 5.54 64.80C6.55 65.74 7.99 67.82 8.57 68.83C15.55 67.32 24.19 64.44 28.94 61.13Z"/></svg>
