<svg xmlns="http://www.w3.org/2000/svg" xmlns:xlink="http://www.w3.org/1999/xlink" width="72.00000000000001" height="106.56000000000002"><path fill="red" stroke="red" d="M34.20 30.17L23.90 30.17C22.97 28.01 21.67 25.34 20.52 23.40L14.26 25.06C15.05 26.57 15.84 28.37 16.56 30.17L4.39 30.17L4.39 35.78L34.20 35.78ZM16.42 45.00C16.06 42.70 14.98 39.24 13.75 36.58L8.50 37.66C9.58 40.39 10.66 44.06 10.94 46.44ZM9.50 66.60C8.14 71.50 5.76 76.68 3.24 80.28C4.61 81.00 6.91 82.66 7.99 83.52C10.51 79.70 13.32 73.58 15.05 68.11ZM34.70 64.37L34.70 58.68L23.40 58.68L23.40 52.63L35.50 52.63L35.50 46.94L28.22 46.94C29.38 44.14 30.46 40.68 31.68 37.51L25.63 36.29C24.98 39.31 23.69 43.70 22.61 46.94L3.02 46.94L3.02 52.63L17.35 52.63L17.35 58.68L3.82 58.68L3.82 64.37L17.35 64.37L17.35 88.63L23.40 88.63L23.40 64.37ZM35.50 76.61C34.42 73.87 31.97 69.62 29.95 66.38L25.56 68.62C27.50 71.93 29.95 76.39 30.96 79.27ZM43.56 54.86L59.26 54.86L59.26 61.06L43.56 61.06ZM43.56 43.34L59.26 43.34L59.26 49.54L43.56 49.54ZM43.56 31.97L59.26 31.97L59.26 38.02L43.56 38.02ZM59.83 82.44C58.68 82.44 58.54 82.15 58.54 80.50L58.54 66.96L65.52 66.96L65.52 26.14L37.51 26.14L37.51 66.96L41.69 66.96C40.97 75.46 38.81 81.07 29.45 84.38C30.82 85.54 32.54 87.84 33.19 89.35C44.14 85.10 46.94 77.69 47.95 66.96L52.42 66.96L52.42 80.50C52.42 86.33 53.57 88.20 58.75 88.20L63.58 88.20C67.90 88.20 69.41 85.75 69.91 75.82C68.33 75.38 65.66 74.38 64.51 73.30C64.37 81.43 64.08 82.44 62.78 82.44Z"/></svg>
