<svg xmlns="http://www.w3.org/2000/svg" xmlns:xlink="http://www.w3.org/1999/xlink" width="72.00000000000001" height="106.56000000000002"><path fill="red" stroke="red" d="M28.87 32.11L37.73 32.11L37.73 27.22L28.87 27.22L28.87 23.11L23.54 23.11L23.54 36.22L28.87 36.22ZM31.68 46.80L26.21 46.80L26.21 41.18L31.68 41.18ZM35.78 37.44L22.32 37.44L22.32 50.54L35.78 50.54ZM12.60 36.14L17.86 36.14L17.86 23.11L12.60 23.11L12.60 27.22L2.81 27.22L2.81 32.18L12.60 32.18ZM44.64 54.07L59.90 54.07L59.90 59.98L44.64 59.98ZM44.64 42.77L59.90 42.77L59.90 48.67L44.64 48.67ZM44.64 31.68L59.90 31.68L59.90 37.37L44.64 37.37ZM13.68 76.82L21.46 76.82L21.46 81.07L13.68 81.07ZM21.46 64.22L13.68 64.22L13.68 60.62L21.46 60.62ZM21.46 72.43L13.68 72.43L13.68 68.69L21.46 68.69ZM9.43 41.11L14.83 41.11L14.83 46.87L9.43 46.87ZM60.55 83.09C59.62 83.09 59.47 82.87 59.47 81.22L59.47 65.95L65.81 65.95L65.81 25.70L39.02 25.70L39.02 65.95L44.64 65.95C43.92 73.22 42.12 79.20 36.07 83.16L36.07 81.07L26.71 81.07L26.71 76.82L35.35 76.82L35.35 72.43L26.71 72.43L26.71 68.69L34.92 68.69L34.92 64.22L26.71 64.22L26.71 60.62L36.29 60.62L36.29 55.94L27.14 55.94C26.57 54.36 25.42 52.27 24.34 50.69L20.16 52.42C20.81 53.50 21.46 54.72 22.03 55.94L14.47 55.94C15.12 54.58 15.70 53.28 16.20 51.91L12.02 50.54L18.94 50.54L18.94 37.44L5.54 37.44L5.54 50.54L11.81 50.54C9.72 56.16 6.19 61.63 2.52 65.45C3.31 66.53 4.82 68.98 5.40 70.06C6.48 68.83 7.56 67.54 8.64 65.95L8.64 89.21L13.68 89.21L13.68 85.82L35.42 85.82C36.36 86.98 37.30 88.27 37.80 89.35C46.80 84.38 49.39 76.18 50.40 65.95L54.22 65.95L54.22 81.29C54.22 86.83 55.15 88.49 59.69 88.49L63.36 88.49C67.25 88.49 68.62 86.11 69.05 75.96C67.61 75.53 65.23 74.59 64.15 73.66C64.01 82.15 63.79 83.09 62.71 83.09Z"/></svg>
