<svg xmlns="http://www.w3.org/2000/svg" xmlns:xlink="http://www.w3.org/1999/xlink" width="72.00000000000001" height="106.56000000000002"><path fill="red" stroke="red" d="M28.44 35.14L15.77 35.14L20.74 32.18C19.66 29.59 17.57 25.78 15.55 22.75L10.66 25.42C12.53 28.37 14.54 32.47 15.62 35.14L3.24 35.14L3.24 40.46L28.44 40.46ZM26.28 44.71L6.19 44.71L6.19 49.97L26.28 49.97ZM6.19 59.40L26.28 59.40L26.28 54.22L6.19 54.22ZM21.24 69.34L21.24 79.63L11.38 79.63L11.38 69.34ZM26.64 63.94L6.05 63.94L6.05 88.27L11.38 88.27L11.38 85.03L26.64 85.03ZM60.12 63.14C54.72 73.58 43.78 80.50 30.17 83.74C31.54 85.18 32.98 87.55 33.70 89.21C48.10 84.96 59.47 77.40 65.66 65.45ZM47.88 42.55C44.42 47.88 37.94 53.21 32.18 56.23C33.55 57.38 35.28 59.18 36.07 60.62C42.41 56.88 48.96 51.12 53.06 44.71ZM54.36 52.49C49.97 59.47 41.83 65.66 33.70 69.12C35.21 70.42 36.72 72.36 37.51 73.87C46.15 69.62 54.50 62.86 59.62 54.79ZM46.94 22.97C43.34 31.68 36.00 40.03 27.14 45.14C28.44 46.30 30.46 48.60 31.32 49.97C38.16 45.72 43.99 39.89 48.38 32.98C53.21 39.67 59.83 45.94 65.66 49.68C66.67 48.02 68.69 45.50 70.13 44.28C63.50 40.82 55.94 34.20 51.34 27.72C51.84 26.78 52.27 25.78 52.70 24.77Z"/></svg>
