<svg xmlns="http://www.w3.org/2000/svg" xmlns:xlink="http://www.w3.org/1999/xlink" width="72.00000000000001" height="106.56000000000002"><path fill="red" stroke="red" d="M30.10 35.14L16.63 35.14L21.89 32.18C20.74 29.59 18.50 25.78 16.49 22.75L11.30 25.42C13.25 28.37 15.41 32.47 16.49 35.14L3.46 35.14L3.46 40.46L30.10 40.46ZM27.72 44.71L6.41 44.71L6.41 49.97L27.72 49.97ZM6.41 59.40L27.72 59.40L27.72 54.22L6.41 54.22ZM22.32 69.34L22.32 79.63L12.10 79.63L12.10 69.34ZM28.15 63.94L6.34 63.94L6.34 88.27L12.10 88.27L12.10 85.03L28.15 85.03ZM69.19 40.75L69.19 34.56L44.28 34.56C45.65 31.32 46.87 27.94 47.88 24.55L40.82 22.90C38.16 32.54 33.55 42.05 27.86 47.95C29.59 48.96 32.54 51.19 33.91 52.27C36.58 49.18 39.10 45.22 41.40 40.75L43.78 40.75L43.78 89.28L50.47 89.28L50.47 71.50L68.33 71.50L68.33 65.45L50.47 65.45L50.47 55.73L67.75 55.73L67.75 49.68L50.47 49.68L50.47 40.75Z"/></svg>
