<svg xmlns="http://www.w3.org/2000/svg" xmlns:xlink="http://www.w3.org/1999/xlink" width="72.00000000000001" height="106.56000000000002"><path fill="red" stroke="red" d="M21.38 69.34L21.38 79.63L12.46 79.63L12.46 69.34ZM27.22 63.94L6.62 63.94L6.62 88.27L12.46 88.27L12.46 85.03L27.22 85.03ZM6.62 59.40L27.07 59.40L27.07 54.22L6.62 54.22ZM6.62 44.71L6.62 49.97L27.00 49.97L27.00 44.71ZM21.10 32.18C20.02 29.52 18.00 25.78 15.98 22.75L11.16 25.42C12.96 28.37 15.05 32.47 15.98 35.14L3.82 35.14L3.82 40.46L29.45 40.46L29.45 35.14L16.13 35.14ZM48.31 54.94L48.31 66.67L39.02 66.67L39.02 54.94ZM54.00 72.36L54.00 49.25L33.41 49.25L33.41 76.90L39.02 76.90L39.02 72.36ZM56.74 38.23L31.18 38.23L31.18 43.85L56.74 43.85ZM66.53 26.57L29.59 26.57L29.59 32.76L60.41 32.76L60.41 81.00C60.41 82.22 59.98 82.66 58.82 82.66C57.60 82.73 53.42 82.80 49.39 82.58C50.18 84.31 51.19 87.48 51.41 89.21C57.17 89.21 61.06 89.14 63.36 87.98C65.74 86.90 66.53 84.96 66.53 81.07Z"/></svg>
