<svg xmlns="http://www.w3.org/2000/svg" xmlns:xlink="http://www.w3.org/1999/xlink" width="72.00000000000001" height="106.56000000000002"><path fill="red" stroke="red" d="M68.40 31.97C67.03 29.52 63.94 25.99 61.34 23.54L56.95 25.99C59.54 28.58 62.50 32.33 63.79 34.70ZM25.56 34.99L14.54 34.99L19.58 32.33C18.43 29.74 15.91 25.92 13.39 23.18L8.06 25.78C10.30 28.51 12.60 32.40 13.75 34.99L2.30 34.99L2.30 40.32L25.56 40.32ZM23.69 44.78L5.11 44.78L5.11 50.04L23.69 50.04ZM5.11 59.62L23.69 59.62L23.69 54.36L5.11 54.36ZM18.22 79.92L10.37 79.92L10.37 69.48L18.22 69.48ZM61.70 47.16C60.55 52.85 58.82 58.25 56.81 63.14C56.09 57.17 55.66 49.97 55.37 41.98L68.11 41.98L68.11 36.00L55.22 36.00C55.08 31.90 55.08 27.58 55.08 23.18L49.18 23.18C49.25 27.65 49.32 31.90 49.46 36.00L28.30 36.00L28.30 54.79C28.30 63.50 27.86 75.53 23.62 84.38L23.62 64.15L5.04 64.15L5.04 88.34L10.37 88.34L10.37 85.18L23.26 85.18L23.11 85.39C24.48 86.11 27.07 88.20 28.08 89.42C33.19 80.21 34.27 66.31 34.42 56.38L41.26 56.38C40.97 68.47 40.68 72.79 39.96 73.87C39.53 74.59 38.95 74.74 38.09 74.74C37.37 74.74 35.57 74.74 33.48 74.52C34.34 76.18 34.92 78.70 34.99 80.57C37.51 80.71 39.74 80.57 41.18 80.42C42.77 80.14 43.78 79.56 44.86 78.19C46.30 76.25 46.58 69.84 46.87 53.35L46.87 50.90L34.42 50.90L34.42 41.98L49.61 41.98C50.04 54.00 50.83 64.30 52.20 72.14C48.96 77.54 45.29 82.08 41.11 85.54C42.62 86.26 44.42 87.98 45.36 88.99C48.38 86.33 51.26 83.09 53.93 79.42C55.87 85.61 58.61 89.14 62.50 89.28C65.09 89.35 68.04 86.47 69.62 74.52C68.54 73.94 66.10 72.36 65.02 71.14C64.58 77.76 63.86 81.72 62.64 81.65C60.77 81.50 59.33 78.34 58.18 72.86C61.99 66.02 65.16 58.10 67.32 49.39Z"/></svg>
