<svg xmlns="http://www.w3.org/2000/svg" xmlns:xlink="http://www.w3.org/1999/xlink" width="72.00000000000001" height="106.56000000000002"><path fill="red" stroke="red" d="M67.54 36.00L67.54 30.10L41.83 30.10C42.48 28.30 43.20 26.57 43.85 24.77L37.73 23.11C35.28 30.74 31.03 38.52 26.35 43.56C27.94 44.42 30.53 46.37 31.68 47.45C34.20 44.42 36.72 40.39 38.95 36.00ZM28.44 35.14L15.55 35.14L20.52 32.18C19.51 29.59 17.35 25.78 15.34 22.75L10.58 25.42C12.31 28.37 14.33 32.47 15.41 35.14L3.10 35.14L3.10 40.46L28.44 40.46ZM26.06 44.71L5.90 44.71L5.90 49.97L26.06 49.97ZM5.90 59.40L26.06 59.40L26.06 54.22L5.90 54.22ZM20.95 69.34L20.95 79.63L11.16 79.63L11.16 69.34ZM26.50 63.94L5.76 63.94L5.76 88.27L11.16 88.27L11.16 85.03L26.50 85.03ZM54.00 70.85C52.27 68.83 48.82 65.66 46.22 63.36L42.48 66.24C45.07 68.62 48.46 72.00 50.11 74.09ZM38.59 74.16C39.02 70.70 39.53 66.82 40.03 62.71L58.32 62.71C58.10 67.54 57.82 71.28 57.53 74.16ZM58.90 46.80C58.75 50.69 58.68 54.22 58.54 57.38L51.19 57.38L54.94 54.29C53.28 52.49 50.04 49.61 47.59 47.66L43.85 50.40C46.30 52.63 49.39 55.51 51.05 57.38L40.61 57.38C41.04 53.86 41.40 50.18 41.76 46.80ZM69.41 62.71L69.41 57.38L64.66 57.38C64.80 53.57 64.94 49.32 65.09 44.50C65.09 43.63 65.16 41.47 65.16 41.47L36.29 41.47C35.93 46.22 35.35 51.84 34.70 57.38L28.15 57.38L28.15 62.71L34.13 62.71C33.34 69.05 32.40 75.10 31.61 79.56L37.80 79.56L37.80 79.49L56.74 79.49C56.52 80.93 56.16 81.86 55.73 82.37C55.08 83.30 54.36 83.52 53.14 83.45C51.70 83.45 48.38 83.45 44.78 83.09C45.65 84.67 46.37 87.05 46.44 88.56C49.97 88.78 53.64 88.85 55.87 88.56C58.10 88.34 59.76 87.70 61.13 85.68C61.99 84.67 62.64 82.73 63.07 79.49L67.97 79.49L67.97 74.16L63.72 74.16C64.01 71.14 64.22 67.39 64.44 62.71Z"/></svg>
