<svg xmlns="http://www.w3.org/2000/svg" xmlns:xlink="http://www.w3.org/1999/xlink" width="72.00000000000001" height="106.56000000000002"><path fill="red" stroke="red" d="M28.01 35.14L14.40 35.14L19.87 32.98C18.86 30.31 16.85 26.35 14.98 23.33L9.29 25.42C10.94 28.37 12.96 32.47 13.75 35.14L3.31 35.14L3.31 40.46L28.01 40.46ZM25.70 49.82L25.70 44.64L5.47 44.64L5.47 49.82ZM25.70 54.14L5.47 54.14L5.47 59.33L25.70 59.33ZM19.80 69.34L19.80 79.63L11.23 79.63L11.23 69.34ZM25.78 63.94L5.54 63.94L5.54 88.27L11.23 88.27L11.23 85.03L25.78 85.03ZM36.65 71.35C34.42 75.74 31.03 80.64 27.79 83.81C29.23 84.82 31.61 87.05 32.69 88.20C36.07 84.38 40.10 78.48 42.84 73.22ZM57.10 37.80L57.10 43.49L50.54 43.49L50.54 37.80ZM68.33 69.19L68.33 63.58L52.13 63.58L52.13 57.53L67.82 57.53L67.82 52.34L38.95 52.34L38.95 37.80L45.14 37.80L45.14 48.17L62.71 48.17L62.71 37.80L69.05 37.80L69.05 32.40L62.71 32.40L62.71 23.76L57.10 23.76L57.10 32.40L50.54 32.40L50.54 23.62L45.14 23.62L45.14 32.40L38.95 32.40L38.95 25.13L33.12 25.13L33.12 32.40L28.66 32.40L28.66 37.80L33.12 37.80L33.12 57.53L45.79 57.53L45.79 63.58L29.09 63.58L29.09 69.19L45.79 69.19L45.79 89.14L52.13 89.14L52.13 69.19ZM54.43 74.38C58.10 78.41 62.35 84.10 64.22 87.70L69.41 84.31C67.54 80.71 63.07 75.31 59.40 71.35Z"/></svg>
