<svg xmlns="http://www.w3.org/2000/svg" xmlns:xlink="http://www.w3.org/1999/xlink" width="72.00000000000001" height="106.56000000000002"><path fill="red" stroke="red" d="M16.85 32.98C16.27 30.38 14.62 26.50 13.03 23.54L8.14 25.27C9.72 28.30 11.23 32.47 11.81 34.99ZM23.11 35.14L2.95 35.14L2.95 40.54L23.11 40.54ZM16.13 69.41L16.13 79.92L10.08 79.92L10.08 69.41ZM21.17 64.15L5.18 64.15L5.18 88.34L10.08 88.34L10.08 85.18L21.17 85.18ZM5.33 59.62L21.24 59.62L21.24 54.36L5.33 54.36ZM5.33 50.04L21.24 50.04L21.24 44.78L5.33 44.78ZM38.38 52.27L42.98 52.27L42.98 62.64L38.38 62.64ZM51.41 62.64L46.58 62.64L46.58 52.27L51.41 52.27ZM50.40 72.14C50.98 73.58 51.55 75.24 52.13 76.90L47.16 77.54L47.16 67.68L55.08 67.68L55.08 47.23L47.38 47.23L47.38 40.97L55.15 40.97L55.15 35.78L34.49 35.78L34.49 40.97L42.34 40.97L42.34 47.23L34.85 47.23L34.85 67.68L42.48 67.68L42.48 78.12C38.30 78.62 34.42 79.06 31.39 79.34L32.69 84.74L53.57 81.86C54.07 84.02 54.58 85.90 54.79 87.55L58.90 86.33C58.18 82.22 56.23 75.89 54.29 71.06ZM26.64 25.78L26.64 52.42C26.64 62.57 26.35 76.46 22.68 86.18C24.12 86.76 26.64 88.20 27.72 89.21C31.68 78.84 32.26 63.22 32.26 52.34L32.26 31.54L57.67 31.54C57.60 60.84 57.24 86.11 63.43 88.78C67.10 90.43 69.91 88.20 70.70 76.54C69.77 75.67 68.18 73.44 67.18 72.00C67.03 77.54 66.53 82.80 66.10 82.66C63.07 81.65 63.22 54.14 63.72 25.78Z"/></svg>
