<svg xmlns="http://www.w3.org/2000/svg" xmlns:xlink="http://www.w3.org/1999/xlink" width="72.00000000000001" height="106.56000000000002"><path fill="red" stroke="red" d="M27.43 35.14L15.05 35.14L19.87 32.18C18.86 29.59 16.78 25.78 14.98 22.75L10.15 25.42C12.02 28.37 13.97 32.47 14.90 35.14L3.10 35.14L3.10 40.46L27.43 40.46ZM25.13 44.71L5.83 44.71L5.83 49.97L25.13 49.97ZM5.83 59.40L25.13 59.40L25.13 54.22L5.83 54.22ZM20.30 69.34L20.30 79.63L11.02 79.63L11.02 69.34ZM25.56 63.94L5.76 63.94L5.76 88.27L11.02 88.27L11.02 85.03L25.56 85.03ZM44.71 51.48C45.22 53.21 45.72 55.51 46.08 57.31L30.38 57.31L30.38 62.93L40.18 62.93C39.38 73.30 37.22 80.50 27.36 84.67C28.58 85.75 30.24 88.13 30.82 89.57C38.52 86.18 42.34 81.07 44.35 74.30L57.67 74.30C57.17 80.21 56.52 82.80 55.80 83.74C55.30 84.24 54.65 84.31 53.64 84.31C52.56 84.31 49.90 84.31 47.16 84.02C48.02 85.54 48.60 87.91 48.74 89.64C51.91 89.78 54.94 89.71 56.45 89.57C58.39 89.42 59.69 88.99 60.84 87.70C62.50 85.82 63.22 81.50 64.01 71.28C64.08 70.42 64.15 68.83 64.15 68.83L45.50 68.83C45.79 66.96 46.01 65.02 46.22 62.93L66.89 62.93L66.89 57.31L52.20 57.31C51.84 55.30 51.12 52.63 50.33 50.62ZM55.30 35.06C54.58 37.66 53.50 40.90 52.56 43.27L41.33 43.27L44.42 42.55C44.06 40.68 43.20 37.51 42.26 35.06ZM58.46 43.27C59.54 40.97 60.55 37.87 61.70 35.06L66.82 35.06L66.82 29.66L52.42 29.66C52.06 27.50 51.34 24.70 50.62 22.54L44.71 23.33C45.29 25.27 45.86 27.65 46.22 29.66L30.31 29.66L30.31 35.06L38.30 35.06L36.50 35.42C37.30 37.80 38.16 41.11 38.52 43.27L29.30 43.27L29.30 55.15L34.99 55.15L34.99 48.60L62.14 48.60L62.14 55.01L68.11 55.01L68.11 43.27Z"/></svg>
