<svg xmlns="http://www.w3.org/2000/svg" xmlns:xlink="http://www.w3.org/1999/xlink" width="72.00000000000001" height="106.56000000000002"><path fill="red" stroke="red" d="M22.25 39.24L12.31 39.24L12.31 31.32L22.25 31.32ZM22.25 52.49L12.31 52.49L12.31 44.42L22.25 44.42ZM22.25 65.74L12.31 65.74L12.31 57.53L22.25 57.53ZM28.51 25.85L6.26 25.85L6.26 71.14L28.51 71.14ZM9.94 72.22C8.50 77.33 5.76 82.37 2.30 85.68C3.82 86.54 6.34 88.34 7.56 89.35C11.02 85.54 14.26 79.63 16.13 73.73ZM59.33 50.62C57.96 57.67 55.73 63.72 52.70 68.76C49.46 63.58 47.09 57.38 45.43 50.62ZM62.42 44.57L61.34 44.71L40.18 44.71L40.18 32.83L67.25 32.83L67.25 26.71L33.98 26.71L33.98 53.06C33.98 61.78 33.62 72.58 29.66 81.29C28.58 78.77 26.28 75.02 24.12 72.14L18.86 74.38C20.88 77.40 23.18 81.36 24.12 84.02L29.66 81.29C28.87 82.87 28.08 84.38 27.07 85.82C28.51 86.54 31.18 88.27 32.40 89.42C39.24 79.56 40.18 64.15 40.18 53.06L40.18 52.70C42.19 60.91 45.00 68.11 48.89 74.16C45.29 78.41 41.04 81.58 36.29 83.66C37.66 84.82 39.31 87.48 40.18 89.06C44.93 86.69 49.18 83.52 52.78 79.49C56.30 83.52 60.41 86.90 65.38 89.35C66.31 87.70 68.33 85.18 69.70 84.02C64.58 81.79 60.26 78.48 56.74 74.38C61.49 67.10 64.80 57.60 66.38 45.50Z"/></svg>
