<svg xmlns="http://www.w3.org/2000/svg" xmlns:xlink="http://www.w3.org/1999/xlink" width="72.00000000000001" height="106.56000000000002"><path fill="red" stroke="red" d="M22.82 27.07L5.18 27.07L5.18 32.11L22.82 32.11ZM47.95 32.76L57.96 32.76C56.95 34.56 55.87 36.43 54.94 37.73L60.19 39.60C62.21 36.94 64.66 32.76 66.46 28.94L61.85 27.43L60.91 27.72L38.45 27.72C38.95 26.50 39.38 25.34 39.82 24.12L33.84 22.82C32.26 27.86 29.30 32.83 25.56 36.07C27.07 36.79 29.52 38.52 30.60 39.46C32.47 37.66 34.27 35.35 35.86 32.76L41.83 32.76L41.83 33.70C41.83 36.79 40.18 40.82 24.55 42.84L24.55 38.09L3.67 38.09L3.67 43.34L21.96 43.34C23.18 44.57 24.70 46.80 25.34 48.31C37.73 46.58 43.42 43.49 46.01 40.18C50.54 44.35 57.10 46.94 65.30 48.10C65.95 46.37 67.61 43.99 68.90 42.62C59.40 42.05 51.70 39.60 47.81 35.64C47.95 34.99 47.95 34.42 47.95 33.91ZM19.51 69.12L53.28 69.12L53.28 73.30L19.51 73.30ZM19.51 60.98L53.28 60.98L53.28 65.02L19.51 65.02ZM19.51 52.85L53.28 52.85L53.28 56.95L19.51 56.95ZM59.98 77.54L59.98 48.60L13.03 48.60L13.03 77.54L24.62 77.54C19.66 80.35 11.23 82.80 3.89 84.24C5.33 85.46 7.70 87.91 8.86 89.28C16.06 87.26 25.06 83.81 30.89 80.28L24.91 77.54L46.44 77.54L42.26 80.93C49.68 83.45 57.24 86.69 61.63 89.06L67.68 85.39C62.78 83.02 54.79 79.99 47.38 77.54Z"/></svg>
