<svg xmlns="http://www.w3.org/2000/svg" xmlns:xlink="http://www.w3.org/1999/xlink" width="72.00000000000001" height="106.56000000000002"><path fill="red" stroke="red" d="M61.06 32.04C60.62 37.08 60.12 39.31 59.33 40.10C58.90 40.68 58.32 40.75 57.46 40.75C56.45 40.75 54.22 40.68 51.84 40.46C52.63 41.98 53.28 44.28 53.42 45.94C56.16 46.08 58.90 46.08 60.26 45.94C62.14 45.79 63.29 45.36 64.44 44.06C65.95 42.41 66.67 38.23 67.32 28.66C67.46 27.94 67.46 26.35 67.46 26.35L36.79 26.35L36.79 32.04L45.07 32.04C43.56 37.51 39.89 41.18 34.13 43.42C35.35 44.50 37.51 46.87 38.30 48.10C45.14 44.86 49.61 39.82 51.48 32.04ZM10.44 47.88L16.56 47.88L16.56 56.23L10.44 56.23ZM28.01 56.23L21.67 56.23L21.67 47.88L28.01 47.88ZM22.10 61.63L33.55 61.63L33.55 42.41L22.10 42.41L22.10 36.72L34.78 36.72L34.78 30.82L22.10 30.82L22.10 23.54L16.13 23.54L16.13 30.82L3.74 30.82L3.74 36.72L16.13 36.72L16.13 42.41L5.18 42.41L5.18 61.63L14.40 61.63C11.45 67.75 6.55 74.45 2.16 78.19C3.10 79.78 4.54 82.44 5.18 84.31C9.07 80.71 12.96 74.95 16.13 69.05L16.13 89.06L22.10 89.06L22.10 69.34C25.20 72.29 28.87 75.96 30.60 78.05L34.27 72.43C32.62 70.92 25.13 65.38 22.10 63.36ZM43.42 68.40L59.76 68.40L59.76 72.43L43.42 72.43ZM43.42 60.34L59.76 60.34L59.76 64.30L43.42 64.30ZM43.42 52.49L59.76 52.49L59.76 56.38L43.42 56.38ZM66.02 76.68L66.02 48.17L37.44 48.17L37.44 76.68L43.42 76.68C40.68 79.56 35.50 83.02 30.89 84.89C32.26 86.04 34.20 87.98 35.28 89.21C40.10 87.12 45.72 83.30 49.25 79.70L44.21 76.68L58.32 76.68L53.78 79.85C57.67 82.58 62.42 86.62 64.80 89.14L69.77 85.39C67.39 82.94 62.57 79.20 58.75 76.68Z"/></svg>
