<svg xmlns="http://www.w3.org/2000/svg" xmlns:xlink="http://www.w3.org/1999/xlink" width="72.00000000000001" height="106.56000000000002"><path fill="red" stroke="red" d="M68.04 29.02C67.10 27.14 64.87 24.70 62.86 22.97L59.33 25.42C61.27 27.22 63.43 29.95 64.30 31.68ZM16.27 39.31L9.86 39.31L9.86 31.25L16.27 31.25ZM16.27 52.49L9.86 52.49L9.86 44.42L16.27 44.42ZM16.27 65.81L9.86 65.81L9.86 57.60L16.27 57.60ZM20.81 25.85L5.47 25.85L5.47 71.21L20.81 71.21ZM7.78 72.29C6.84 76.61 4.75 82.73 2.45 86.26C3.67 86.98 5.47 88.20 6.41 88.99C8.57 85.32 10.94 79.20 12.31 74.23ZM14.69 74.23C16.27 77.98 18.00 82.94 18.65 86.11L22.90 83.81C22.25 80.71 20.38 75.96 18.58 72.29ZM41.76 67.61L45.14 67.61L45.14 73.73L41.76 73.73ZM45.14 47.16L45.14 53.06L41.76 53.06L41.76 47.16ZM47.88 57.38L47.88 63.29L41.76 63.29L41.76 57.38ZM63.50 44.71C62.64 52.06 61.27 58.68 59.33 64.51C58.68 57.24 58.32 48.17 58.18 38.09L68.90 38.09L68.90 32.40L58.10 32.40C58.10 29.38 58.10 26.28 58.10 23.11L52.70 23.11C52.70 26.28 52.78 29.38 52.85 32.40L30.74 32.40L30.74 45.58L27.65 45.58L27.65 30.10L23.69 30.10L23.69 50.69L30.74 50.69L30.74 56.81L30.74 57.10L22.25 57.10L22.25 62.28L24.12 62.28C23.98 67.46 23.33 72.79 21.89 76.10C22.90 76.75 24.41 78.05 25.06 79.06C26.93 74.95 27.72 68.47 28.01 62.28L30.67 62.28C30.38 70.27 29.38 79.34 25.42 86.04C26.50 86.62 28.51 88.20 29.38 89.14C34.70 80.28 35.57 66.67 35.57 56.81L35.57 38.09L52.92 38.09C53.21 52.42 53.78 64.73 55.15 73.73C54.29 75.31 53.35 76.68 52.27 78.12L52.27 73.73L48.38 73.73L48.38 67.61L51.48 67.61L51.48 53.06L48.38 53.06L48.38 47.16L51.84 47.16L51.84 42.70L37.87 42.70L37.87 78.19L52.20 78.19C50.33 80.57 48.17 82.80 45.79 84.60C46.80 85.54 48.53 87.48 49.18 88.42C51.98 86.11 54.43 83.45 56.59 80.35C58.10 86.04 60.26 89.28 63.36 89.35C65.59 89.35 68.26 86.69 69.70 75.67C68.76 75.17 66.60 73.66 65.66 72.36C65.30 78.55 64.51 82.30 63.58 82.30C62.28 82.22 61.20 79.20 60.41 73.94C64.30 66.02 66.82 56.45 68.26 45.22Z"/></svg>
