<svg xmlns="http://www.w3.org/2000/svg" xmlns:xlink="http://www.w3.org/1999/xlink" width="72.00000000000001" height="106.56000000000002"><path fill="red" stroke="red" d="M66.96 33.12C64.37 30.38 59.04 26.35 54.94 23.76L50.62 27.50C54.79 30.31 59.90 34.56 62.42 37.37ZM11.95 31.75L22.46 31.75L22.46 42.91L11.95 42.91ZM58.39 49.18C57.24 55.73 55.44 61.63 53.06 66.74C49.54 60.41 47.09 52.99 45.43 45.14L45.43 45.00L68.76 45.00L68.76 38.81L45.79 38.81C46.01 33.48 46.08 28.22 46.15 23.18L39.67 23.18C39.67 28.15 39.60 33.48 39.46 38.81L30.10 38.81L30.10 45.00L39.10 45.00C38.23 56.81 36.14 68.47 30.53 77.54L29.95 72.79L21.17 75.10L21.17 64.01L29.95 64.01L29.95 58.18L21.17 58.18L21.17 48.67L28.44 48.67L28.44 26.06L6.19 26.06L6.19 48.67L15.34 48.67L15.34 76.54L11.38 77.54L11.38 54.65L5.98 54.65L5.98 78.84L2.74 79.56L4.10 85.82C11.23 83.88 20.74 81.36 29.81 78.77C28.30 81.00 26.57 83.02 24.55 84.89C26.35 85.90 28.44 87.84 29.66 89.28C37.58 81.58 41.69 70.63 43.78 58.75C45.36 63.86 47.38 68.54 49.68 72.72C46.51 77.62 42.41 81.65 37.30 84.74C38.74 85.82 41.33 88.20 42.26 89.42C46.66 86.47 50.33 82.80 53.50 78.48C56.88 83.02 60.91 86.69 65.81 89.28C66.74 87.55 68.76 85.03 70.20 83.88C64.94 81.43 60.62 77.69 57.02 72.94C60.55 66.46 63.14 58.82 64.87 49.90Z"/></svg>
