<svg xmlns="http://www.w3.org/2000/svg" xmlns:xlink="http://www.w3.org/1999/xlink" width="72.00000000000001" height="106.56000000000002"><path fill="red" stroke="red" d="M64.08 24.48C55.30 26.93 40.82 28.58 28.73 29.45C29.38 30.89 30.24 33.34 30.38 34.92C42.62 34.34 57.46 32.90 67.32 30.31ZM61.06 33.91C59.33 38.88 56.88 44.35 54.36 48.24C55.87 48.82 58.46 50.04 59.69 50.83C61.92 47.02 64.73 40.75 66.74 35.64ZM52.27 46.73C51.48 43.49 49.90 38.66 48.24 34.92L42.84 36.65C44.28 40.32 45.94 45.36 46.58 48.60ZM40.61 49.18C39.53 45.79 37.15 40.75 34.99 36.79L29.88 38.74C31.90 42.77 34.20 48.02 35.21 51.41ZM10.37 31.54L20.81 31.54L20.81 42.55L10.37 42.55ZM19.44 63.79L26.78 63.79L26.78 58.18L19.44 58.18L19.44 48.02L26.21 48.02L26.21 26.06L5.18 26.06L5.18 48.02L13.75 48.02L13.75 77.18L9.94 78.34L9.94 54.65L4.75 54.65L4.75 79.85L2.66 80.50L4.03 86.76C10.87 84.53 19.51 81.58 27.72 78.70L26.64 72.94C24.26 73.73 21.82 74.59 19.44 75.31ZM66.82 62.50L66.82 56.30L51.98 56.30L51.98 49.75L45.50 49.75L45.50 56.30L30.31 56.30L30.31 62.50L42.41 62.50C38.74 69.41 33.12 76.32 27.94 80.21C29.38 81.43 31.61 83.81 32.69 85.39C37.30 81.43 41.98 74.95 45.50 68.18L45.50 88.99L51.98 88.99L51.98 68.11C55.51 74.74 60.05 80.93 64.44 84.74C65.59 83.02 67.82 80.64 69.41 79.34C64.22 75.67 58.61 69.05 54.94 62.50Z"/></svg>
