<svg xmlns="http://www.w3.org/2000/svg" xmlns:xlink="http://www.w3.org/1999/xlink" width="72.00000000000001" height="106.56000000000002"><path fill="red" stroke="red" d="M17.71 62.64L17.71 56.52L32.33 56.52L32.33 62.64ZM17.71 45.43L32.33 45.43L32.33 51.41L17.71 51.41ZM54.14 45.43L54.14 51.41L39.24 51.41L39.24 45.43ZM54.14 62.64L39.24 62.64L39.24 56.52L54.14 56.52ZM68.40 73.08L39.24 73.08L39.24 68.11L60.84 68.11L60.84 39.89L39.24 39.89L39.24 35.42L66.02 35.42L66.02 29.30L39.24 29.30L39.24 23.11L32.33 23.11L32.33 29.30L5.98 29.30L5.98 35.42L32.33 35.42L32.33 39.89L11.23 39.89L11.23 68.11L32.33 68.11L32.33 73.08L3.89 73.08L3.89 79.13L32.33 79.13L32.33 89.35L39.24 89.35L39.24 79.13L68.40 79.13Z"/></svg>
