<svg xmlns="http://www.w3.org/2000/svg" xmlns:xlink="http://www.w3.org/1999/xlink" width="72.00000000000001" height="106.56000000000002"><path fill="red" stroke="red" d="M11.30 55.87L18.58 55.87L18.58 61.34L11.30 61.34ZM11.30 45.86L18.58 45.86L18.58 51.26L11.30 51.26ZM31.46 51.26L23.90 51.26L23.90 45.86L31.46 45.86ZM31.46 61.34L23.90 61.34L23.90 55.87L31.46 55.87ZM24.41 66.24L37.15 66.24L37.15 40.97L24.48 40.97L24.48 36.29L38.30 36.29L38.30 30.38L24.48 30.38L24.48 23.04L18.07 23.04L18.07 30.38L3.89 30.38L3.89 36.29L18.07 36.29L18.07 40.97L5.83 40.97L5.83 66.24L18.00 66.24L18.00 71.28L3.24 71.28L3.24 77.33L18.00 77.33L18.00 89.14L24.41 89.14L24.41 77.33L38.74 77.33L38.74 71.28L24.41 71.28ZM52.56 81.94C50.26 81.94 49.82 81.22 49.82 77.54L49.82 24.05L42.98 24.05L42.98 77.40C42.98 85.75 44.86 88.20 51.62 88.20L60.34 88.20C67.10 88.20 68.69 83.30 69.34 69.91C67.46 69.41 64.73 68.04 63.07 66.82C62.71 78.77 62.35 81.94 59.76 81.94Z"/></svg>
