<svg xmlns="http://www.w3.org/2000/svg" xmlns:xlink="http://www.w3.org/1999/xlink" width="72.00000000000001" height="106.56000000000002"><path fill="red" stroke="red" d="M67.97 33.05L50.18 33.05L54.50 30.96C53.50 28.66 51.55 25.27 49.68 22.68L44.06 25.13C45.58 27.58 47.30 30.74 48.31 33.05L32.18 33.05L32.18 39.17L67.97 39.17ZM53.78 43.20C57.31 47.88 61.85 54.36 63.94 58.18L69.48 54.50C67.10 50.76 62.42 44.57 58.97 40.10ZM10.44 56.16L15.05 56.16L15.05 61.99L10.44 61.99ZM10.44 45.79L15.05 45.79L15.05 51.48L10.44 51.48ZM24.70 51.48L20.02 51.48L20.02 45.79L24.70 45.79ZM24.70 61.99L20.02 61.99L20.02 56.16L24.70 56.16ZM31.32 77.62L31.32 71.93L20.52 71.93L20.52 66.82L30.10 66.82L30.10 40.90L20.52 40.90L20.52 36.14L31.25 36.14L31.25 30.38L20.52 30.38L20.52 23.11L14.40 23.11L14.40 30.38L3.74 30.38L3.74 36.07L14.40 36.07L14.40 40.90L5.18 40.90L5.18 66.82L14.47 66.82L14.47 71.93L3.10 71.93L3.10 77.62L14.47 77.62L14.47 89.14L20.52 89.14L20.52 77.62ZM55.22 53.57C54.07 58.10 52.34 62.35 50.18 66.17C47.74 62.42 45.94 58.25 44.50 53.93L38.88 55.30C41.62 51.34 44.57 46.51 46.80 42.19L40.46 40.10C38.09 45.29 34.34 50.98 30.82 54.72C32.40 55.73 34.99 57.67 36.22 58.82C36.94 57.82 37.80 56.74 38.74 55.51C40.61 61.42 43.20 66.96 46.30 71.86C42.05 76.97 36.50 81.22 29.88 84.24C31.25 85.46 33.26 87.84 34.13 89.35C40.46 86.18 45.86 82.15 50.18 77.11C54.36 82.30 59.54 86.40 65.59 89.14C66.60 87.34 68.54 84.74 70.06 83.45C63.86 81.00 58.46 76.90 54.14 71.78C57.38 66.89 59.76 61.27 61.42 55.08Z"/></svg>
