<svg xmlns="http://www.w3.org/2000/svg" xmlns:xlink="http://www.w3.org/1999/xlink" width="72.00000000000001" height="106.56000000000002"><path fill="red" stroke="red" d="M10.15 55.87L15.70 55.87L15.70 61.34L10.15 61.34ZM10.15 45.79L15.70 45.79L15.70 51.19L10.15 51.19ZM25.92 51.19L20.23 51.19L20.23 45.79L25.92 45.79ZM25.92 61.34L20.23 61.34L20.23 55.87L25.92 55.87ZM20.95 66.24L30.96 66.24L30.96 40.97L20.95 40.97L20.95 36.29L31.68 36.29L31.68 30.46L20.95 30.46L20.95 23.11L14.98 23.11L14.98 30.46L3.82 30.46L3.82 36.29L14.98 36.29L14.98 40.97L5.33 40.97L5.33 66.24L14.98 66.24L14.98 71.28L2.81 71.28L2.81 77.26L14.98 77.26L14.98 89.21L20.95 89.21L20.95 77.26L32.62 77.26L32.62 71.28L20.95 71.28ZM61.06 49.82L61.06 55.94L53.57 55.94L53.57 49.82ZM53.57 67.75L53.57 61.42L61.06 61.42L61.06 67.75ZM40.32 67.75L40.32 61.42L47.66 61.42L47.66 67.75ZM47.66 49.82L47.66 55.94L40.32 55.94L40.32 49.82ZM68.83 38.52L68.83 32.62L64.66 32.62L67.90 29.74C66.10 27.79 62.42 24.84 59.40 22.97L55.73 26.06C58.54 27.94 61.70 30.60 63.50 32.62L53.57 32.62L53.57 23.11L47.66 23.11L47.66 32.62L33.12 32.62L33.12 38.52L47.66 38.52L47.66 44.06L34.27 44.06L34.27 89.14L40.32 89.14L40.32 73.44L47.66 73.44L47.66 88.63L53.57 88.63L53.57 73.44L61.06 73.44L61.06 82.22C61.06 82.94 60.84 83.16 60.19 83.16C59.54 83.16 57.74 83.16 55.66 83.09C56.45 84.74 57.10 87.41 57.31 89.14C60.84 89.14 63.29 88.99 65.09 88.06C66.82 86.98 67.25 85.18 67.25 82.30L67.25 44.06L53.57 44.06L53.57 38.52Z"/></svg>
