<svg xmlns="http://www.w3.org/2000/svg" xmlns:xlink="http://www.w3.org/1999/xlink" width="72.00000000000001" height="106.56000000000002"><path fill="red" stroke="red" d="M9.79 55.87L15.62 55.87L15.62 61.42L9.79 61.42ZM9.79 45.86L15.62 45.86L15.62 51.26L9.79 51.26ZM26.14 51.26L20.16 51.26L20.16 45.86L26.14 45.86ZM26.14 61.42L20.16 61.42L20.16 55.87L26.14 55.87ZM20.88 66.24L31.10 66.24L31.10 40.97L20.95 40.97L20.95 36.22L31.61 36.22L31.61 30.38L20.95 30.38L20.95 23.04L14.98 23.04L14.98 30.38L3.74 30.38L3.74 36.22L14.98 36.22L14.98 40.97L5.04 40.97L5.04 66.24L14.90 66.24L14.90 71.35L2.88 71.35L2.88 77.33L14.90 77.33L14.90 89.28L20.88 89.28L20.88 77.33L32.54 77.33L32.54 71.35L20.88 71.35ZM47.88 63.22L47.88 69.55L39.89 69.55L39.89 63.22ZM61.63 69.55L53.28 69.55L53.28 63.22L61.63 63.22ZM53.28 81.07L53.28 74.59L61.63 74.59L61.63 81.07ZM39.89 81.07L39.89 74.59L47.88 74.59L47.88 81.07ZM33.91 89.14L39.89 89.14L39.89 86.62L61.63 86.62L61.63 88.85L67.90 88.85L67.90 57.60L33.91 57.60ZM59.11 48.38L42.48 48.38L42.48 41.76L59.11 41.76ZM36.36 36.65L36.36 53.42L65.59 53.42L65.59 36.65ZM33.70 26.78L33.70 32.54L68.11 32.54L68.11 26.78Z"/></svg>
