<svg xmlns="http://www.w3.org/2000/svg" xmlns:xlink="http://www.w3.org/1999/xlink" width="72.00000000000001" height="106.56000000000002"><path fill="red" stroke="red" d="M58.18 38.45L58.18 49.68L34.34 49.68L34.34 38.45ZM34.34 67.54L34.34 55.58L58.18 55.58L58.18 67.54ZM34.34 73.73L58.18 73.73L58.18 78.19L65.38 78.19L65.38 32.26L47.02 32.26C47.95 29.66 48.89 26.71 49.75 23.69L42.05 22.90C41.69 25.63 40.82 29.23 39.96 32.26L27.43 32.26L27.43 78.19L34.34 78.19ZM17.64 35.42C16.63 32.40 14.98 27.72 13.61 24.05L7.56 25.78C8.71 29.52 10.51 34.42 11.38 37.51ZM18.86 55.58L17.93 55.80L14.62 55.80C16.49 50.90 18.65 45.14 20.30 40.18L3.24 40.18L3.24 46.22L12.10 46.22C10.22 51.70 8.06 57.46 6.19 61.63L15.77 61.63C14.90 66.17 13.46 71.14 11.66 74.95C8.93 75.82 5.62 79.06 2.38 83.30L6.98 89.57C8.86 85.18 11.38 80.50 12.96 80.50C14.54 80.50 17.14 83.02 20.02 84.67C25.27 87.70 31.32 88.49 40.75 88.49C49.18 88.49 62.28 88.06 67.82 87.70C67.97 85.90 69.05 82.66 69.84 80.78C61.92 81.79 49.75 82.44 40.97 82.44C32.62 82.44 26.06 82.01 21.17 78.98C19.51 77.98 18.36 77.11 17.28 76.39C19.80 70.99 21.74 63.94 22.82 57.46Z"/></svg>
