<svg xmlns="http://www.w3.org/2000/svg" xmlns:xlink="http://www.w3.org/1999/xlink" width="72.00000000000001" height="106.56000000000002"><path fill="red" stroke="red" d="M61.85 35.86C60.05 38.09 57.89 40.32 55.87 42.34L48.38 42.70C51.84 40.32 55.37 37.22 58.61 33.84L53.64 32.26C50.11 36.50 44.93 40.46 43.42 41.40C41.90 42.48 40.68 43.13 39.46 43.27C40.03 44.57 40.82 46.94 41.04 47.95C41.90 47.52 43.56 47.23 51.12 46.73C48.10 49.46 45.50 51.48 44.28 52.34C41.69 54.22 39.82 55.44 38.16 55.66C38.74 56.95 39.53 59.47 39.74 60.55C40.82 60.19 42.26 59.90 49.54 59.33L49.54 79.13L55.37 79.13L55.37 58.97L62.78 58.54C63.22 59.62 63.65 60.55 63.94 61.34L68.76 59.62C67.54 56.45 64.87 51.05 62.78 47.09L58.10 48.46C59.04 50.33 60.12 52.49 60.98 54.50L47.16 55.22C53.71 50.69 60.41 44.78 66.31 38.52ZM58.39 63.65C60.34 67.90 62.50 73.44 63.50 76.75L68.76 75.10C67.75 71.93 65.38 66.38 63.36 62.28ZM41.54 62.57C40.03 66.89 37.44 71.64 34.78 74.88C36.07 75.46 38.38 76.61 39.53 77.40C42.05 74.02 44.93 68.69 46.87 64.01ZM57.96 22.46C53.93 25.99 46.37 29.95 39.60 32.83C40.32 33.77 41.18 35.57 41.47 36.65C48.82 33.70 57.24 29.88 63.00 25.78ZM27.29 50.33C24.12 51.41 21.17 52.34 18.72 53.06L20.59 58.54C22.61 57.82 24.91 56.95 27.29 56.16L27.29 73.01C27.29 73.80 27.00 74.02 26.28 74.02C25.49 74.09 23.26 74.09 20.81 74.02C21.53 75.38 22.32 77.54 22.54 79.06C26.35 79.06 28.73 78.91 30.53 78.05C32.26 77.18 32.76 75.82 32.76 73.08L32.76 54.14L40.10 51.41L39.10 46.30L32.76 48.46L32.76 40.46C36.00 37.01 39.38 32.54 41.83 28.51L38.09 25.85L37.01 26.21L20.52 26.21L20.52 31.68L33.12 31.68C31.39 34.34 29.23 37.15 27.29 39.10ZM16.34 35.42C15.12 32.40 12.96 27.58 11.30 23.90L5.98 25.85C7.56 29.74 9.79 34.70 10.94 37.87ZM16.92 55.94L15.91 56.16L12.17 56.16C13.75 51.19 15.41 45.22 16.78 40.18L3.53 40.18L3.53 46.22L9.72 46.22C8.14 51.84 6.41 57.74 4.90 61.92L13.03 61.92C12.10 66.82 10.73 72.00 9.00 75.89C6.91 77.18 4.39 80.06 2.02 83.66L6.41 89.64C7.92 85.46 9.94 80.78 11.30 80.78C12.82 80.78 15.48 83.16 18.50 84.82C23.83 87.98 30.17 88.70 39.67 88.70C48.31 88.70 61.85 88.20 67.39 87.84C67.46 86.11 68.54 82.94 69.26 81.22C61.20 82.22 49.03 82.87 39.89 82.87C31.39 82.87 24.62 82.44 19.58 79.42C17.28 77.98 15.70 76.75 14.40 76.03C16.56 70.56 18.43 63.36 19.58 56.95Z"/></svg>
