<svg xmlns="http://www.w3.org/2000/svg" xmlns:xlink="http://www.w3.org/1999/xlink" width="72.00000000000001" height="106.56000000000002"><path fill="red" stroke="red" d="M46.73 32.83L46.73 36.07L40.82 36.07L40.82 32.83ZM58.68 39.82L58.68 43.49L52.42 43.49L52.42 39.82ZM58.68 50.76L52.42 50.76L52.42 47.02L58.68 47.02ZM29.23 47.02L35.14 47.02L35.14 50.76L29.23 50.76ZM46.73 47.02L46.73 50.76L40.82 50.76L40.82 47.02ZM40.82 43.49L40.82 39.82L46.73 39.82L46.73 43.49ZM29.23 39.82L35.14 39.82L35.14 43.49L29.23 43.49ZM35.14 36.07L23.54 36.07L23.54 54.50L64.58 54.50L64.58 36.07L52.42 36.07L52.42 32.83L67.39 32.83L67.39 27.94L52.42 27.94L52.42 23.11L46.73 23.11L46.73 27.94L40.82 27.94L40.82 23.11L35.14 23.11L35.14 27.94L20.38 27.94L20.38 32.83L35.14 32.83ZM33.34 69.77L54.43 69.77L54.43 73.66L33.34 73.66ZM33.34 61.85L54.43 61.85L54.43 65.66L33.34 65.66ZM60.98 78.05L60.98 57.46L27.07 57.46L27.07 78.05ZM17.06 34.92C16.13 31.82 14.47 27.07 13.10 23.33L7.27 25.06C8.35 28.87 10.15 33.98 11.02 37.15ZM18.50 55.87L17.50 56.16L13.75 56.16C15.62 51.19 17.71 45.29 19.37 40.18L3.53 40.18L3.53 46.22L11.02 46.22C9.14 51.84 6.98 57.67 5.04 61.92L14.04 61.92C12.74 67.10 10.94 72.50 8.78 76.46C6.70 78.05 4.46 80.42 2.30 83.38L6.84 89.57C8.78 85.18 11.23 80.50 12.89 80.50C14.47 80.50 17.06 83.02 19.94 84.67C25.13 87.70 31.32 88.49 40.82 88.49C49.18 88.49 62.42 88.06 67.97 87.70C68.11 85.90 69.19 82.58 69.91 80.78C61.99 81.79 49.82 82.44 41.11 82.44C32.62 82.44 26.06 82.01 21.10 78.98C18.50 77.40 16.92 76.18 15.55 75.38C18.07 70.06 20.16 63.36 21.53 57.02Z"/></svg>
