<svg xmlns="http://www.w3.org/2000/svg" xmlns:xlink="http://www.w3.org/1999/xlink" width="72.00000000000001" height="106.56000000000002"><path fill="red" stroke="red" d="M33.19 54.72L55.30 54.72L55.30 51.19L33.19 51.19ZM46.58 37.58L42.05 37.58L42.05 33.91L46.58 33.91ZM59.26 41.40L59.26 44.42C59.11 44.71 58.82 44.78 57.89 44.78L53.28 44.78C51.91 44.78 51.70 44.57 51.70 43.27L51.70 41.40ZM29.95 57.60L29.95 41.40L36.65 41.40C36.00 43.70 34.34 46.15 30.02 47.66C31.10 48.31 32.83 49.68 33.62 50.62C39.46 48.46 41.33 44.93 41.83 41.40L46.58 41.40L46.58 43.27C46.58 47.52 47.66 48.60 52.56 48.60L58.61 48.60L59.26 48.60L59.26 57.60ZM37.01 37.58L24.34 37.58L24.34 61.42L50.40 61.42L50.40 64.80L21.67 64.80L21.67 69.55L31.03 69.55L28.66 71.50C31.61 73.44 35.21 76.25 36.94 78.34L41.04 74.74C39.67 73.15 37.15 71.14 34.70 69.55L50.40 69.55L50.40 74.38C50.40 75.10 50.11 75.38 49.25 75.38C48.53 75.46 45.58 75.46 42.77 75.31C43.42 76.68 44.21 78.41 44.57 79.92C48.96 79.92 51.91 79.92 54.00 79.20C56.02 78.48 56.52 77.40 56.52 74.59L56.52 69.55L68.40 69.55L68.40 64.80L56.52 64.80L56.52 61.42L65.16 61.42L65.16 37.58L51.70 37.58L51.70 33.91L67.46 33.91L67.46 29.23L55.94 29.23C57.02 27.79 58.18 26.14 59.33 24.34L53.06 23.04C52.20 24.84 50.62 27.36 49.32 29.23L39.60 29.23C38.74 27.43 36.94 24.84 35.28 22.90L29.95 24.48C31.10 25.92 32.18 27.65 33.05 29.23L21.74 29.23L21.74 33.91L37.01 33.91ZM17.71 35.42C16.85 32.33 15.05 27.65 13.82 23.98L7.63 25.70C8.86 29.45 10.58 34.42 11.45 37.51ZM19.15 55.51L18.14 55.80L14.26 55.80C16.27 50.90 18.43 45.14 20.09 40.18L3.31 40.18L3.31 46.22L11.95 46.22C10.01 51.70 7.85 57.46 6.05 61.63L14.76 61.63C13.68 66.46 12.02 71.57 10.30 75.46C7.85 76.68 4.97 79.63 2.23 83.30L6.77 89.57C8.64 85.18 11.16 80.50 12.74 80.50C14.26 80.50 16.85 83.02 19.73 84.67C24.98 87.70 31.10 88.49 40.46 88.49C48.96 88.49 61.99 88.06 67.54 87.70C67.61 85.90 68.76 82.66 69.55 80.78C61.56 81.79 49.46 82.44 40.75 82.44C32.33 82.44 25.78 82.01 20.88 78.98C18.86 77.69 17.42 76.61 16.20 75.89C18.72 70.42 20.81 63.36 22.18 56.74Z"/></svg>
