<svg xmlns="http://www.w3.org/2000/svg" xmlns:xlink="http://www.w3.org/1999/xlink" width="72.00000000000001" height="106.56000000000002"><path fill="red" stroke="red" d="M25.42 74.45L19.51 74.45L19.51 68.40L25.42 68.40ZM29.59 65.09L15.48 65.09L15.48 77.83L29.59 77.83ZM33.12 61.85L33.12 81.14L12.02 81.14L12.02 61.85ZM6.34 89.21L12.02 89.21L12.02 86.04L33.12 86.04L33.12 88.56L39.10 88.56L39.10 56.88L6.34 56.88ZM13.39 31.54L31.61 31.54L31.61 38.59L13.39 38.59ZM37.80 43.56L37.80 26.57L7.49 26.57L7.49 43.56L22.18 43.56L17.42 45.07C18.00 46.08 18.65 47.16 19.15 48.31L2.95 48.31L2.95 53.42L42.05 53.42L42.05 48.31L25.99 48.31C25.13 46.87 24.05 45.07 23.11 43.56ZM64.30 26.50L63.29 26.78L43.99 26.78L43.99 88.78L49.75 88.78L49.75 32.69L60.70 32.69C58.75 38.23 55.87 45.72 53.28 51.41C59.83 57.67 61.78 62.86 61.78 67.18C61.78 69.62 61.34 71.64 59.90 72.43C59.11 72.94 58.10 73.15 56.95 73.22C55.73 73.22 53.78 73.22 51.77 73.08C52.85 74.81 53.42 77.47 53.50 79.20C55.58 79.20 57.82 79.27 59.62 79.06C61.34 78.84 63.00 78.34 64.22 77.47C66.74 75.74 67.82 72.36 67.82 67.82C67.82 62.93 66.31 57.31 59.76 50.69C62.78 44.35 66.24 36.14 68.83 29.45Z"/></svg>
