<svg xmlns="http://www.w3.org/2000/svg" xmlns:xlink="http://www.w3.org/1999/xlink" width="72.00000000000001" height="106.56000000000002"><path fill="red" stroke="red" d="M15.19 58.97L31.82 58.97L31.82 55.37L15.19 55.37ZM25.56 37.58L21.60 37.58L21.60 33.70L25.56 33.70ZM35.06 41.76L35.06 48.96L34.99 48.96C34.85 49.03 34.42 49.03 34.20 49.03L32.90 49.03L31.03 49.03C30.53 49.03 30.24 48.96 30.02 48.82C29.74 48.67 29.74 47.95 29.74 46.94L29.74 41.76ZM11.81 62.42L11.81 51.26C12.67 51.98 13.90 53.57 14.47 54.36C19.87 50.90 21.38 46.15 21.60 41.76L25.56 41.76L25.56 46.44C25.56 49.82 25.78 50.83 26.71 51.62C27.50 52.34 28.80 52.63 30.17 52.63L33.12 52.63C33.70 52.63 34.49 52.63 35.06 52.56L35.06 62.42ZM17.42 41.76C17.28 45.00 16.13 48.38 11.81 51.12L11.81 41.76ZM31.03 23.04C30.10 24.70 28.73 27.07 27.36 29.02L20.02 29.02C19.01 27.22 17.64 24.91 16.34 23.18L11.66 24.70C12.53 25.99 13.39 27.50 14.18 29.02L4.25 29.02L4.25 33.70L17.50 33.70L17.50 37.58L6.70 37.58L6.70 66.60L19.94 66.60C19.80 68.04 19.58 69.34 19.37 70.63L3.53 70.63L3.53 75.31L17.71 75.31C15.48 79.63 11.23 82.58 2.88 84.53C4.10 85.61 5.54 87.84 6.19 89.35C16.85 86.54 21.82 81.94 24.26 75.31L27.58 75.31L24.26 78.84C28.80 81.58 34.85 85.82 38.02 88.49L41.47 84.31C38.30 82.01 32.47 78.05 27.86 75.31L42.55 75.31L42.55 70.63L25.56 70.63C25.78 69.34 25.99 68.04 26.14 66.60L40.39 66.60L40.39 37.58L29.74 37.58L29.74 33.70L42.70 33.70L42.70 29.02L33.19 29.02C34.20 27.65 35.21 26.28 36.22 24.84ZM64.30 26.42L63.29 26.71L44.93 26.71L44.93 89.14L51.26 89.14L51.26 32.98L60.62 32.98C58.82 38.52 56.23 45.79 53.78 51.41C60.05 57.60 61.78 62.78 61.78 67.10C61.78 69.55 61.27 71.57 59.98 72.43C59.18 72.94 58.18 73.08 57.10 73.15C55.80 73.15 54.00 73.15 52.06 73.01C53.06 74.74 53.64 77.47 53.78 79.20C55.87 79.27 58.03 79.27 59.83 79.06C61.49 78.84 63.14 78.34 64.30 77.47C66.82 75.74 67.82 72.29 67.82 67.75C67.82 62.93 66.38 57.24 60.12 50.62C63.14 44.21 66.31 36.00 68.90 29.38Z"/></svg>
