<svg xmlns="http://www.w3.org/2000/svg" xmlns:xlink="http://www.w3.org/1999/xlink" width="72.00000000000001" height="106.56000000000002"><path fill="red" stroke="red" d="M67.97 30.74L54.58 30.74C54.07 28.51 52.85 25.27 51.70 22.75L45.43 24.26C46.37 26.21 47.23 28.66 47.74 30.74L33.48 30.74L33.48 36.65L67.97 36.65ZM11.23 67.68L11.23 72.58L22.68 72.58L22.68 67.68ZM18.14 39.74L15.34 39.74L15.34 31.54L18.14 31.54ZM24.55 57.02L24.05 57.02L22.32 57.02C21.67 57.02 21.53 56.95 21.53 56.02L21.53 45.22L24.55 45.22ZM9.14 78.84L9.14 62.78C9.86 63.29 10.58 64.08 11.02 64.51C14.62 60.77 15.34 55.30 15.34 51.19L15.34 45.22L18.14 45.22L18.14 56.09C18.14 59.83 19.01 60.62 21.96 60.62L24.55 60.62L24.55 78.84ZM12.10 45.22L12.10 51.12C12.10 54.43 11.66 58.32 9.14 61.49L9.14 45.22ZM3.24 31.54L11.09 31.54L11.09 39.74L4.39 39.74L4.39 88.78L9.14 88.78L9.14 84.10L24.55 84.10L24.55 87.77L29.52 87.77L29.52 39.74L22.54 39.74L22.54 31.54L30.46 31.54L30.46 26.21L3.24 26.21ZM50.11 51.48C48.74 50.04 46.37 47.88 44.21 46.15C44.93 43.85 45.50 41.40 46.01 38.95L40.46 37.80C39.02 45.65 36.22 52.85 31.90 57.53C33.12 58.46 35.14 60.62 36.00 61.70C38.38 58.97 40.46 55.58 42.12 51.70C43.99 53.42 45.79 55.22 46.87 56.59ZM68.69 66.02L53.28 66.02L53.28 59.76L52.99 59.76C54.79 57.60 56.38 55.08 57.74 52.13C60.34 55.08 62.93 58.25 64.30 60.41L68.26 56.16C66.53 53.64 63.07 49.90 59.98 46.73C60.91 44.21 61.63 41.62 62.14 38.95L56.59 37.80C55.15 45.14 52.34 51.91 48.31 56.30C49.25 57.10 50.76 58.68 51.77 59.76L46.94 59.76L46.94 66.02L32.33 66.02L32.33 72.00L46.94 72.00L46.94 89.28L53.28 89.28L53.28 72.00L68.69 72.00Z"/></svg>
