<svg xmlns="http://www.w3.org/2000/svg" xmlns:xlink="http://www.w3.org/1999/xlink" width="72.00000000000001" height="106.56000000000002"><path fill="red" stroke="red" d="M53.42 32.98C52.63 30.38 50.83 26.35 49.25 23.33L43.63 24.98C45.14 28.08 46.80 32.33 47.45 34.85ZM19.58 59.33L28.44 59.33L28.44 53.64L19.58 53.64L19.58 46.80L26.14 46.80L26.14 41.18L10.37 41.18C12.67 38.59 14.90 35.71 16.78 32.62C21.02 35.64 25.27 39.24 27.94 42.05L30.74 36.50C28.08 33.91 23.83 30.60 19.58 27.86C20.09 26.86 20.59 25.99 21.02 24.98L16.13 22.68C13.03 29.45 7.56 35.86 2.23 39.96C3.10 41.62 4.46 45.29 4.82 46.73C5.90 45.79 6.98 44.78 8.14 43.63L8.14 46.80L14.18 46.80L14.18 53.64L4.32 53.64L4.32 59.33L14.18 59.33L14.18 78.84C10.08 79.63 6.41 80.35 3.53 80.93L4.90 86.90C11.52 85.39 20.38 83.30 28.80 81.29L28.51 75.89C25.56 76.54 22.46 77.18 19.58 77.76ZM5.33 63.72C6.41 67.90 7.42 73.15 7.70 76.68L12.10 75.31C11.74 71.86 10.66 66.67 9.43 62.57ZM24.55 75.82C25.70 72.58 27.00 67.61 28.30 63.29L23.54 61.85C22.97 65.59 21.74 71.06 20.74 74.52ZM64.37 47.81C62.21 50.76 58.82 54.50 55.80 57.53C53.93 52.99 52.49 48.10 51.26 43.13C51.70 42.48 51.98 41.69 52.34 40.97L68.11 40.97L68.11 34.99L31.61 34.99L31.61 40.97L45.72 40.97C43.78 45.00 41.26 48.74 38.45 52.06L38.38 52.06L38.38 52.13C35.42 55.58 32.04 58.54 28.58 60.91C29.74 62.21 31.54 65.09 32.26 66.53C34.34 64.94 36.36 63.22 38.38 61.27L38.38 78.70C38.38 81.22 36.50 82.22 35.21 82.73C36.14 84.38 37.08 87.62 37.44 89.28L38.23 88.78C39.82 87.70 43.13 86.40 54.58 82.30C54.14 81.00 53.42 78.55 53.21 76.75L44.14 79.70L44.14 54.79C45.43 53.14 46.51 51.48 47.66 49.68C51.55 63.86 57.46 76.39 65.66 83.66C66.60 82.01 68.54 79.70 70.06 78.62C65.30 74.95 61.20 69.12 57.89 62.35C61.49 59.47 65.74 55.44 69.26 51.91Z"/></svg>
