<svg xmlns="http://www.w3.org/2000/svg" xmlns:xlink="http://www.w3.org/1999/xlink" width="72.00000000000001" height="106.56000000000002"><path fill="red" stroke="red" d="M39.02 52.20C39.17 49.46 39.24 46.80 39.24 44.42L49.54 44.42L49.54 52.20ZM60.98 31.75L60.98 38.52L39.24 38.52L39.24 31.75ZM61.20 80.78L44.57 80.78L44.57 72.00L61.20 72.00ZM68.98 58.10L68.98 52.20L55.51 52.20L55.51 44.42L67.25 44.42L67.25 25.85L33.12 25.85L33.12 42.70C33.12 53.21 32.62 67.90 28.15 79.70L27.86 75.46L19.44 77.47L19.44 59.33L28.37 59.33L28.37 53.64L19.44 53.64L19.44 46.80L25.99 46.80L25.99 41.18L10.37 41.18C12.60 38.59 14.76 35.71 16.70 32.62C20.88 35.57 25.13 39.17 27.86 42.05L30.60 36.50C28.01 33.91 23.76 30.60 19.51 27.79C20.02 26.86 20.52 25.85 20.95 24.98L16.13 22.68C12.96 29.45 7.56 35.86 2.23 39.96C3.10 41.62 4.39 45.29 4.82 46.73C5.83 45.79 6.98 44.78 8.06 43.70L8.06 46.80L14.18 46.80L14.18 53.64L4.39 53.64L4.39 59.33L14.18 59.33L14.18 78.70C10.08 79.49 6.41 80.35 3.53 80.93L4.90 86.83C11.23 85.25 19.66 83.09 27.72 80.93C27.07 82.37 26.42 83.88 25.63 85.25C27.07 85.90 29.74 87.98 30.82 89.21C35.57 80.42 37.73 68.69 38.59 58.10L49.54 58.10L49.54 66.31L38.74 66.31L38.74 89.14L44.57 89.14L44.57 86.47L61.20 86.47L61.20 88.92L67.18 88.92L67.18 66.31L55.51 66.31L55.51 58.10ZM5.33 63.72C6.41 67.82 7.49 73.15 7.70 76.68L12.02 75.31C11.66 71.93 10.58 66.67 9.43 62.57ZM24.41 75.46C25.49 72.29 26.78 67.46 28.08 63.22L23.40 61.85C22.82 65.45 21.67 70.78 20.66 74.16Z"/></svg>
