<svg xmlns="http://www.w3.org/2000/svg" xmlns:xlink="http://www.w3.org/1999/xlink" width="72.00000000000001" height="106.56000000000002"><path fill="red" stroke="red" d="M20.81 59.33L30.89 59.33L30.89 53.64L20.81 53.64L20.81 46.80L27.94 46.80L27.94 41.18L11.52 41.18C13.90 38.59 16.13 35.71 18.07 32.62C22.46 35.64 26.86 39.38 29.66 42.26L32.54 36.65C29.74 34.06 25.42 30.67 20.95 27.86C21.53 26.86 22.03 25.92 22.46 24.98L17.50 22.68C14.33 29.45 8.64 35.86 3.31 39.96C4.10 41.62 5.47 45.29 5.83 46.73C6.98 45.72 8.14 44.71 9.29 43.56L9.29 46.80L15.48 46.80L15.48 53.64L5.40 53.64L5.40 59.33L15.48 59.33L15.48 78.77C11.23 79.63 7.42 80.35 4.39 80.93L5.76 86.90C12.53 85.39 21.67 83.30 30.24 81.29L29.88 75.89C26.86 76.54 23.76 77.18 20.81 77.76ZM6.41 63.72C7.49 67.90 8.57 73.15 8.86 76.68L13.25 75.31C12.89 71.93 11.74 66.67 10.51 62.57ZM25.99 75.74C27.14 72.58 28.51 67.61 29.74 63.22L25.06 61.85C24.48 65.59 23.18 71.06 22.18 74.52ZM40.61 41.76L59.26 41.76L59.26 47.23L40.61 47.23ZM40.61 31.39L59.26 31.39L59.26 36.72L40.61 36.72ZM43.42 57.82C44.42 56.09 45.29 54.36 46.08 52.56L65.38 52.56L65.38 26.14L34.70 26.14L34.70 52.56L39.96 52.56C37.51 58.10 33.55 63.14 29.23 66.60C30.46 67.46 32.69 69.26 33.55 70.27C35.78 68.40 37.94 65.88 39.96 63.22L44.06 63.22C41.11 70.13 36.43 76.25 30.96 80.35C32.11 81.22 33.98 82.94 34.78 83.88C40.68 78.98 46.08 71.57 49.46 63.22L53.50 63.22C50.90 72.43 46.44 80.64 40.39 85.82C41.62 86.54 43.56 88.34 44.50 89.28C50.90 83.16 56.02 74.02 58.90 63.22L62.06 63.22C61.42 76.54 60.62 81.65 59.62 82.94C59.04 83.59 58.54 83.74 57.60 83.74C56.66 83.74 54.58 83.74 52.34 83.52C53.21 85.03 53.71 87.34 53.86 88.99C56.45 89.14 58.90 89.06 60.34 88.92C62.14 88.63 63.43 88.13 64.51 86.69C66.38 84.53 67.18 77.98 67.90 60.34C67.97 59.54 68.04 57.82 68.04 57.82Z"/></svg>
