<svg xmlns="http://www.w3.org/2000/svg" xmlns:xlink="http://www.w3.org/1999/xlink" width="72.00000000000001" height="106.56000000000002"><path fill="red" stroke="red" d="M58.61 50.33L39.60 50.33L39.60 45.65L58.61 45.65ZM58.61 60.05L39.60 60.05L39.60 55.22L58.61 55.22ZM58.61 69.70L39.60 69.70L39.60 64.87L58.61 64.87ZM33.62 40.46L33.62 74.88L64.87 74.88L64.87 40.46L59.90 40.46C62.06 37.01 64.51 31.75 66.17 27.14L60.41 25.56C59.04 29.81 56.81 34.56 54.50 37.73C55.80 38.38 58.10 39.53 59.47 40.46L51.84 40.46L51.84 23.11L45.94 23.11L45.94 40.46ZM42.84 38.09C41.98 34.78 39.53 29.52 37.22 25.56L31.82 27.29C34.13 31.32 36.43 36.72 37.22 40.03ZM30.74 75.67C27.58 76.32 24.41 76.90 21.31 77.54L21.31 59.33L30.82 59.33L30.82 53.64L21.31 53.64L21.31 46.80L28.51 46.80L28.51 41.18L11.09 41.18C13.68 38.59 16.13 35.71 18.29 32.54C22.82 35.57 27.58 39.31 30.46 42.19L33.48 36.86C30.60 34.13 25.99 30.74 21.24 27.94C21.89 26.93 22.46 25.85 22.97 24.91L17.78 22.68C14.33 29.45 8.14 35.86 2.38 39.96C3.24 41.54 4.61 45.14 5.04 46.58C6.48 45.50 7.78 44.35 9.22 42.98L9.22 46.80L15.62 46.80L15.62 53.64L4.97 53.64L4.97 59.33L15.62 59.33L15.62 78.70C11.23 79.56 7.20 80.28 4.10 80.86L5.62 86.83C12.74 85.25 22.25 83.02 31.25 80.86ZM5.76 63.72C6.91 67.90 8.06 73.15 8.42 76.68L13.10 75.31C12.67 71.93 11.45 66.67 10.15 62.57ZM26.78 75.60C28.01 72.43 29.52 67.46 30.89 63.14L25.78 61.70C25.20 65.45 23.76 70.99 22.68 74.38ZM42.05 75.74C38.95 79.49 33.41 82.94 28.08 85.18C29.45 86.11 31.75 88.34 32.76 89.42C38.09 86.76 44.06 82.44 47.74 77.83ZM51.41 78.48C55.94 81.72 60.77 85.97 63.50 88.92L69.70 86.47C66.46 83.45 60.91 79.06 56.02 75.74Z"/></svg>
