<svg xmlns="http://www.w3.org/2000/svg" xmlns:xlink="http://www.w3.org/1999/xlink" width="72.00000000000001" height="106.56000000000002"><path fill="red" stroke="red" d="M22.10 75.82C23.11 72.65 24.26 67.68 25.42 63.36L21.10 61.85C20.59 65.59 19.44 71.06 18.65 74.52ZM33.84 66.02L33.84 64.66L33.84 63.22L41.69 63.22L41.69 50.47L37.94 50.47L37.94 59.04L33.84 59.04L33.84 50.33L29.16 50.33L29.16 64.58C29.16 69.70 28.66 75.96 25.78 81.29L25.49 75.96L17.71 77.76L17.71 59.33L25.92 59.33L25.92 53.64L17.71 53.64L17.71 46.80L23.69 46.80L23.69 41.18L9.50 41.18C11.52 38.59 13.46 35.71 15.19 32.62C18.94 35.64 22.68 39.24 25.06 42.05L27.22 37.15L27.22 40.18L44.42 40.18L44.42 43.78L29.52 43.78L29.52 48.10L44.78 48.10L44.78 66.02ZM50.11 32.69L60.05 32.69L60.05 36.07L50.11 36.07ZM50.11 43.78L50.11 40.18L60.05 40.18L60.05 43.78ZM49.61 66.02L49.61 48.10L65.38 48.10L65.38 40.39L69.05 40.39L69.05 35.57L65.38 35.57L65.38 28.37L50.11 28.37L50.11 23.04L44.42 23.04L44.42 28.37L29.81 28.37L29.81 32.69L44.42 32.69L44.42 36.07L27.22 36.07L27.22 36.14C24.98 33.62 21.38 30.53 17.71 27.79C18.07 26.78 18.50 25.92 18.86 24.98L14.62 22.75C11.74 29.52 6.98 35.93 2.30 39.96C3.02 41.62 4.18 45.36 4.46 46.73C5.54 45.72 6.55 44.71 7.56 43.49L7.56 46.80L12.82 46.80L12.82 53.64L4.10 53.64L4.10 59.33L12.82 59.33L12.82 78.91C9.22 79.63 5.98 80.35 3.38 80.93L4.54 86.90C10.44 85.46 18.29 83.30 25.70 81.36C24.77 83.09 23.54 84.74 22.03 86.26C23.18 86.90 24.91 88.34 25.85 89.28C29.23 86.04 31.25 82.01 32.33 77.76L37.94 77.76L37.94 88.70L41.69 88.70L41.69 73.58L33.26 73.58C33.41 72.58 33.48 71.71 33.55 70.70L44.78 70.70L44.78 89.21L49.61 89.21L49.61 70.70L61.27 70.70L61.27 73.58L52.85 73.58L52.85 88.70L56.59 88.70L56.59 77.76L61.27 77.76L61.27 89.06L66.17 89.06L66.17 50.26L61.27 50.26L61.27 59.04L56.59 59.04L56.59 50.47L52.85 50.47L52.85 63.22L61.27 63.22L61.27 66.02ZM5.11 63.72C5.98 67.82 6.98 73.15 7.20 76.68L11.16 75.31C10.87 71.93 9.86 66.60 8.86 62.57Z"/></svg>
