<svg xmlns="http://www.w3.org/2000/svg" xmlns:xlink="http://www.w3.org/1999/xlink" width="72.00000000000001" height="106.56000000000002"><path fill="red" stroke="red" d="M27.43 75.96C24.62 76.54 21.74 77.18 19.01 77.76L19.01 59.33L27.65 59.33L27.65 53.64L19.01 53.64L19.01 46.80L25.34 46.80L25.34 41.18L10.15 41.18C12.31 38.59 14.47 35.71 16.34 32.62C20.30 35.57 24.41 39.17 26.93 42.05L29.59 36.50C27.14 33.91 23.04 30.60 19.01 27.86C19.51 26.86 19.94 25.92 20.38 24.98L15.77 22.68C12.67 29.45 7.42 35.86 2.38 39.96C3.17 41.62 4.46 45.29 4.82 46.73C5.83 45.79 6.98 44.71 8.06 43.56L8.06 46.80L13.82 46.80L13.82 53.64L4.39 53.64L4.39 59.33L13.82 59.33L13.82 78.84C9.94 79.63 6.34 80.35 3.60 80.93L4.90 86.90C11.16 85.39 19.73 83.30 27.79 81.29ZM5.40 63.72C6.41 67.82 7.49 73.22 7.78 76.68L11.88 75.38C11.52 71.93 10.44 66.74 9.36 62.57ZM23.62 75.89C24.77 72.65 25.99 67.61 27.29 63.22L22.82 61.92C22.18 65.66 21.02 71.06 20.02 74.52ZM35.64 71.71C33.91 75.96 30.96 80.06 27.65 82.94C29.09 83.74 31.54 85.32 32.62 86.33C36.00 83.09 39.46 78.05 41.40 73.15ZM55.01 73.87C57.96 77.69 61.20 82.87 62.71 86.11L68.18 83.23C66.67 79.99 63.14 75.02 60.19 71.35ZM56.66 55.44L39.96 55.44L39.96 51.19L56.66 51.19ZM56.66 64.37L39.96 64.37L39.96 59.90L56.66 59.90ZM50.04 36.00C51.55 39.67 53.57 43.27 55.80 46.44L41.47 46.44C43.78 43.34 45.58 39.89 47.09 36.00ZM63.36 37.01C62.35 38.30 60.84 40.03 59.26 41.54C58.03 39.82 56.88 37.87 55.87 36.00L67.68 36.00L67.68 30.46L48.96 30.46C49.61 28.44 50.04 26.21 50.47 23.98L44.50 23.18C44.14 25.70 43.56 28.22 42.84 30.46L29.88 30.46L29.88 36.00L40.82 36.00C40.03 37.73 39.10 39.46 38.09 41.11C36.79 39.67 35.14 38.23 33.62 37.15L29.95 40.82C31.61 42.12 33.34 43.92 34.70 45.43C32.54 47.81 30.02 49.82 27.14 51.48C28.44 52.56 30.53 54.86 31.25 56.09C32.40 55.37 33.41 54.58 34.49 53.78L34.49 69.12L45.50 69.12L45.50 82.58C45.50 83.30 45.36 83.45 44.57 83.52C43.85 83.52 41.40 83.52 38.74 83.45C39.53 85.03 40.39 87.41 40.61 89.06C44.35 89.06 47.09 88.99 49.10 88.06C51.05 87.19 51.55 85.61 51.55 82.80L51.55 69.12L62.35 69.12L62.35 53.50C63.36 54.36 64.37 55.01 65.45 55.66C66.38 54.14 68.18 52.06 69.55 50.83C67.03 49.54 64.58 47.66 62.50 45.36C64.15 43.99 66.10 42.19 67.82 40.39Z"/></svg>
