<svg xmlns="http://www.w3.org/2000/svg" xmlns:xlink="http://www.w3.org/1999/xlink" width="72.00000000000001" height="106.56000000000002"><path fill="red" stroke="red" d="M23.04 75.89C24.12 72.72 25.42 67.68 26.64 63.36L22.10 61.85C21.53 65.59 20.38 71.06 19.44 74.52ZM47.66 67.39L47.66 63.65L51.98 63.65L51.98 67.39ZM47.66 55.08L51.98 55.08L51.98 59.18L47.66 59.18ZM47.66 46.73L51.98 46.73L51.98 50.76L47.66 50.76ZM61.06 55.08L61.06 59.18L57.17 59.18L57.17 55.08ZM61.06 67.39L57.17 67.39L57.17 63.65L61.06 63.65ZM26.50 76.03L18.43 77.76L18.43 59.33L26.71 59.33L26.71 53.64L18.43 53.64L18.43 46.80L24.62 46.80L24.62 41.18L9.79 41.18C11.88 38.59 13.97 35.71 15.84 32.62C19.66 35.57 23.62 39.24 26.14 42.05L28.58 36.72L28.58 59.54C28.58 65.95 28.44 73.51 26.78 80.06ZM65.95 71.71L65.95 63.65L68.90 63.65L68.90 59.18L65.95 59.18L65.95 50.76L57.17 50.76L57.17 46.73L68.26 46.73L68.26 41.98L58.90 41.98C59.98 40.25 61.20 38.38 62.35 36.50L57.31 35.06C56.38 37.08 54.79 39.82 53.42 41.98L47.81 41.98C46.73 39.89 45.07 37.08 43.70 34.99L39.17 36.43C40.18 38.09 41.26 40.10 42.19 41.98L35.21 41.98L35.21 46.73L42.55 46.73L42.55 50.76L36.36 50.76L36.36 55.08L42.55 55.08L42.55 59.18L34.56 59.18L34.56 63.65L42.55 63.65L42.55 67.39L36.36 67.39L36.36 71.71L41.54 71.71C39.02 75.67 35.06 79.92 31.82 82.15C33.55 74.88 33.91 66.31 33.91 59.47L33.91 34.56L68.40 34.56L68.40 29.38L53.35 29.38C52.63 27.43 51.55 24.77 50.62 22.75L45.00 24.05C45.65 25.63 46.44 27.58 47.02 29.38L28.58 29.38L28.58 36.36C26.21 33.77 22.32 30.53 18.43 27.72C18.86 26.86 19.30 25.85 19.73 24.91L15.19 22.68C12.17 29.45 7.13 35.93 2.16 39.96C2.95 41.62 4.18 45.36 4.54 46.73C5.54 45.72 6.70 44.71 7.78 43.49L7.78 46.80L13.39 46.80L13.39 53.64L4.18 53.64L4.18 59.33L13.39 59.33L13.39 78.84C9.58 79.70 6.12 80.42 3.38 80.93L4.61 86.98C10.58 85.46 18.65 83.52 26.35 81.50C25.78 83.30 25.13 84.96 24.26 86.47C25.63 87.12 28.01 88.70 29.02 89.71C30.24 87.55 31.03 84.96 31.75 82.30C32.83 83.23 34.27 84.89 35.14 86.11C37.51 84.10 40.25 80.86 42.55 77.54L42.55 89.42L47.66 89.42L47.66 71.71L51.98 71.71L51.98 89.42L57.17 89.42L57.17 77.11C59.76 80.71 63.00 84.17 66.02 86.26C66.89 84.82 68.54 83.02 69.62 82.01C65.66 79.99 61.13 75.82 58.32 71.71ZM5.11 63.72C6.12 67.82 7.06 73.15 7.34 76.68L11.52 75.31C11.16 71.93 10.15 66.60 9.07 62.57Z"/></svg>
