<svg xmlns="http://www.w3.org/2000/svg" xmlns:xlink="http://www.w3.org/1999/xlink" width="72.00000000000001" height="106.56000000000002"><path fill="red" stroke="red" d="M26.57 31.25L26.57 35.86L13.46 35.86L13.46 31.25ZM13.46 45.00L13.46 40.32L26.57 40.32L26.57 45.00ZM32.83 49.82L32.83 26.35L6.84 26.35L6.84 89.06L13.46 89.06L13.46 49.82ZM44.78 45.00L44.78 40.32L58.39 40.32L58.39 45.00ZM58.39 31.25L58.39 35.86L44.78 35.86L44.78 31.25ZM25.20 66.82L25.20 60.34L32.98 60.34L32.98 66.82ZM46.37 60.34L46.37 66.82L38.45 66.82L38.45 60.34ZM65.16 26.35L38.38 26.35L38.38 49.82L58.39 49.82L58.39 81.14C58.39 82.01 58.18 82.30 57.31 82.30C56.81 82.37 55.58 82.37 54.14 82.30C52.63 79.20 50.04 75.02 47.45 71.86L42.84 74.02C43.63 75.10 44.50 76.25 45.29 77.47L38.45 77.83L38.45 71.28L51.84 71.28L51.84 55.87L38.45 55.87L38.45 50.76L32.98 50.76L32.98 55.87L20.09 55.87L20.09 71.28L32.98 71.28L32.98 78.05C27.29 78.34 22.10 78.55 18.00 78.70L18.43 84.24C26.35 83.81 37.37 83.23 48.24 82.51C48.82 83.66 49.32 84.82 49.68 85.75L52.34 84.38C52.85 86.04 53.35 87.84 53.42 89.06C57.67 89.06 60.55 88.92 62.50 87.77C64.58 86.54 65.16 84.60 65.16 81.22Z"/></svg>
