<svg xmlns="http://www.w3.org/2000/svg" xmlns:xlink="http://www.w3.org/1999/xlink" width="72.00000000000001" height="106.56000000000002"><path fill="red" stroke="red" d="M56.81 37.30L38.02 37.30L38.02 30.67L56.81 30.67ZM63.43 25.99L31.75 25.99L31.75 41.98L63.43 41.98ZM22.10 25.92L21.10 26.14L5.90 26.14L5.90 89.21L11.81 89.21L11.81 32.18L19.01 32.18C17.71 37.08 15.98 43.49 14.33 48.31C18.72 53.50 19.73 58.18 19.80 61.78C19.80 63.86 19.44 65.66 18.50 66.38C17.93 66.82 17.21 66.96 16.49 66.96C15.55 67.03 14.40 67.03 13.03 66.89C13.97 68.47 14.47 70.99 14.54 72.72C16.13 72.72 17.78 72.72 19.08 72.58C20.45 72.36 21.74 71.93 22.82 71.14C24.84 69.70 25.70 66.67 25.70 62.57C25.70 58.25 24.70 53.28 20.09 47.59C22.25 41.98 24.62 34.42 26.50 28.44ZM35.93 68.04L59.18 68.04L59.18 72.58L35.93 72.58ZM35.93 59.11L59.18 59.11L59.18 63.58L35.93 63.58ZM35.93 50.11L59.18 50.11L59.18 54.58L35.93 54.58ZM65.74 77.33L65.74 45.43L29.74 45.43L29.74 77.33L38.16 77.33C34.92 79.99 28.44 83.09 23.04 84.67C24.34 85.90 26.35 87.98 27.29 89.21C33.12 87.48 40.03 84.10 44.14 80.71L38.74 77.33L55.44 77.33L50.90 80.71C55.51 83.23 60.48 86.69 63.22 89.21L69.55 85.82C66.46 83.38 60.91 79.92 55.94 77.33Z"/></svg>
