<svg xmlns="http://www.w3.org/2000/svg" xmlns:xlink="http://www.w3.org/1999/xlink" width="72.00000000000001" height="106.56000000000002"><path fill="red" stroke="red" d="M68.26 37.15C66.24 33.84 61.78 29.23 57.89 25.99L53.21 28.94C56.95 32.33 61.34 37.15 63.22 40.39ZM34.78 26.93C32.98 30.74 29.95 34.70 26.71 37.44C28.22 38.23 30.74 39.60 31.97 40.61C34.99 37.58 38.52 32.90 40.68 28.58ZM23.18 25.99L22.25 26.21L5.90 26.21L5.90 89.21L11.81 89.21L11.81 32.26L19.94 32.26C18.65 36.94 16.78 42.98 15.05 47.74C19.66 53.21 20.81 58.03 20.81 61.70C20.81 63.79 20.38 65.59 19.44 66.31C18.86 66.74 18.14 66.89 17.35 66.96C16.27 67.03 15.12 66.96 13.61 66.89C14.62 68.47 15.19 71.06 15.19 72.65C16.78 72.72 18.58 72.72 19.87 72.58C21.38 72.36 22.68 71.86 23.76 71.14C25.85 69.55 26.71 66.53 26.71 62.42C26.71 58.03 25.63 52.85 20.88 47.09C23.11 41.47 25.56 34.34 27.58 28.51ZM33.05 71.14C31.03 75.96 27.36 80.86 23.40 84.02C24.84 84.89 27.29 86.62 28.44 87.70C32.40 84.02 36.50 78.26 38.88 72.58ZM36.14 58.39L58.54 58.39L58.54 63.58L36.14 63.58ZM58.54 53.86L36.14 53.86L36.14 48.74L58.54 48.74ZM64.87 68.26L64.87 43.99L42.91 43.99C43.85 42.77 44.86 41.47 45.72 40.10L44.78 39.82L50.26 39.82L50.26 23.11L44.14 23.11L44.14 39.60L39.24 38.23C38.30 39.96 36.94 42.05 35.50 43.99L30.02 43.99L30.02 68.26L44.14 68.26L44.14 82.66C44.14 83.30 43.85 83.59 42.98 83.59C42.19 83.59 39.46 83.59 36.72 83.52C37.44 85.03 38.16 87.34 38.45 88.92C42.70 88.92 45.65 88.92 47.81 88.06C49.82 87.19 50.33 85.68 50.33 82.73L50.33 68.26ZM54.72 73.15C58.32 77.47 62.21 83.30 63.72 87.12L69.34 84.53C67.68 80.57 63.65 74.95 59.98 70.78Z"/></svg>
