<svg xmlns="http://www.w3.org/2000/svg" xmlns:xlink="http://www.w3.org/1999/xlink" width="72.00000000000001" height="106.56000000000002"><path fill="red" stroke="red" d="M41.33 70.63L51.62 70.63L51.62 79.27L41.33 79.27ZM51.62 50.62L41.33 50.62L41.33 42.05L51.62 42.05ZM51.62 64.94L41.33 64.94L41.33 56.30L51.62 56.30ZM19.44 32.76L19.44 50.40L10.58 50.40C11.59 44.93 12.67 38.38 13.54 32.76ZM68.69 79.27L57.82 79.27L57.82 70.63L66.74 70.63L66.74 64.94L57.82 64.94L57.82 56.30L66.74 56.30L66.74 50.62L57.82 50.62L57.82 42.05L68.40 42.05L68.40 36.07L55.30 36.07L59.40 34.70C58.75 31.68 57.17 27.29 55.44 23.98L49.54 25.70C51.05 28.87 52.56 33.05 53.06 36.07L41.76 36.07C43.34 32.26 44.71 28.37 45.86 24.62L39.96 23.04C37.37 32.40 33.12 41.83 28.01 47.95C28.58 48.46 29.38 49.46 30.10 50.40L25.42 50.40L25.42 32.76L30.24 32.76L30.24 26.64L3.60 26.64L3.60 32.76L7.85 32.76C6.77 40.68 4.97 50.47 3.60 56.59L15.05 56.59C11.81 64.66 6.77 73.01 1.87 77.54C3.31 78.62 5.26 80.78 6.34 82.15C11.16 76.97 16.06 68.40 19.44 59.62L19.44 81.50C19.44 82.58 19.08 82.87 18.00 82.94C16.92 82.94 13.46 82.94 9.79 82.87C10.58 84.60 11.38 87.41 11.59 89.14C16.92 89.14 20.38 88.92 22.54 87.91C24.70 86.90 25.42 85.03 25.42 81.50L25.42 56.59L30.17 56.59L30.17 50.54C30.89 51.55 31.61 52.56 32.04 53.21C33.19 51.84 34.20 50.26 35.28 48.60L35.28 89.06L41.33 89.06L41.33 85.39L68.69 85.39Z"/></svg>
