<svg xmlns="http://www.w3.org/2000/svg" xmlns:xlink="http://www.w3.org/1999/xlink" width="72.00000000000001" height="106.56000000000002"><path fill="red" stroke="red" d="M11.38 38.02L32.54 38.02L32.54 51.41L39.02 51.41L39.02 38.02L60.41 38.02L60.41 46.08L66.60 46.08L66.60 33.62L39.02 33.62L39.02 30.60L62.14 30.60L62.14 25.78L9.94 25.78L9.94 30.60L32.54 30.60L32.54 33.62L5.40 33.62L5.40 46.08L11.38 46.08ZM37.80 61.78L37.80 65.95L63.79 65.95L63.79 53.50L38.02 53.50L38.02 57.67L57.60 57.67L57.60 61.78ZM59.69 48.31C55.73 46.94 48.31 45.29 42.77 44.64L41.26 48.38C46.87 49.39 54.36 51.26 58.32 52.70ZM55.22 38.23C51.91 39.17 46.08 40.75 42.26 41.26L44.50 44.57C48.38 44.14 54.00 43.34 57.96 41.98ZM14.18 42.05C18.65 42.70 24.41 44.06 27.65 45.07C21.82 46.01 16.27 47.02 12.10 47.52L13.90 52.34C18.58 51.34 23.98 50.11 29.45 48.82L29.23 44.86L27.72 45.07L29.45 41.18C26.14 40.10 20.30 38.88 15.84 38.45ZM28.08 57.82L28.08 62.06L14.33 62.06L14.33 57.82ZM33.70 83.23L33.70 78.48L14.33 78.48L14.33 74.66L33.19 74.66L33.19 70.20L14.33 70.20L14.33 66.31L34.27 66.31L34.27 53.57L7.99 53.57L7.99 89.14L14.33 89.14L14.33 83.23ZM57.10 73.58C55.37 75.53 53.28 77.26 50.83 78.62C48.10 77.26 45.86 75.53 44.21 73.58ZM61.70 68.98L60.62 69.19L37.08 69.19L37.08 73.58L42.34 73.58L38.52 74.81C40.25 77.26 42.62 79.49 45.29 81.29C41.26 82.87 36.79 83.95 32.18 84.60C33.26 85.68 34.56 87.77 35.14 89.14C40.68 88.20 46.01 86.69 50.76 84.53C55.15 86.47 60.12 87.98 65.59 88.78C66.31 87.26 67.82 85.03 69.12 83.88C64.58 83.30 60.34 82.37 56.59 81.07C60.34 78.34 63.43 74.95 65.45 70.63Z"/></svg>
