<svg xmlns="http://www.w3.org/2000/svg" xmlns:xlink="http://www.w3.org/1999/xlink" width="72.00000000000001" height="106.56000000000002"><path fill="red" stroke="red" d="M20.52 73.22C20.66 71.78 20.74 70.27 20.74 68.90L51.55 68.90L51.55 73.22ZM51.55 60.05L51.55 64.30L20.74 64.30L20.74 60.05ZM58.39 55.01L14.18 55.01L14.18 67.82C14.18 73.30 13.75 80.21 9.72 85.18C11.16 86.11 13.90 88.70 14.83 90.07C17.64 86.69 19.15 82.22 19.94 77.76L51.55 77.76L51.55 82.30C51.55 83.38 51.19 83.66 49.97 83.74C48.89 83.74 44.42 83.74 40.46 83.59C41.26 85.10 42.19 87.41 42.48 88.99C48.38 88.99 52.42 88.99 55.01 88.13C57.53 87.26 58.39 85.68 58.39 82.37ZM39.17 46.01L39.17 41.54L60.70 41.54L60.70 36.65L39.17 36.65L39.17 32.62L63.72 32.62L63.72 27.43L39.17 27.43L39.17 23.11L32.40 23.11L32.40 27.43L8.93 27.43L8.93 32.62L32.40 32.62L32.40 36.65L11.52 36.65L11.52 41.54L32.40 41.54L32.40 46.01L4.54 46.01L4.54 51.19L67.46 51.19L67.46 46.01Z"/></svg>
