<svg xmlns="http://www.w3.org/2000/svg" xmlns:xlink="http://www.w3.org/1999/xlink" width="72.00000000000001" height="106.56000000000002"><path fill="red" stroke="red" d="M24.34 33.41L5.62 33.41L5.62 39.67L24.34 39.67L24.34 49.61L6.62 49.61L6.62 55.73L24.34 55.73L24.34 56.88C24.34 58.90 24.12 61.49 23.47 64.22C15.91 65.30 8.57 66.46 3.46 67.10L4.75 73.73C9.50 72.86 15.34 71.78 21.31 70.70C18.72 76.32 14.04 81.72 5.83 84.96C7.42 86.33 9.50 88.42 10.66 90.07C27.86 81.94 30.96 67.54 30.96 56.81L30.96 23.54L24.34 23.54ZM68.90 65.95L47.59 65.95L47.59 55.73L66.10 55.73L66.10 49.68L47.59 49.68L47.59 39.74L67.61 39.74L67.61 33.48L47.59 33.48L47.59 23.54L40.90 23.54L40.90 89.14L47.59 89.14L47.59 72.22L68.90 72.22Z"/></svg>
