<svg xmlns="http://www.w3.org/2000/svg" xmlns:xlink="http://www.w3.org/1999/xlink" width="72.00000000000001" height="106.56000000000002"><path fill="red" stroke="red" d="M10.22 53.42L14.98 53.42L14.98 61.78L10.22 61.78ZM25.06 61.78L19.94 61.78L19.94 53.42L25.06 53.42ZM13.75 35.06L21.24 35.06L21.24 39.46L13.75 39.46ZM32.33 76.68L32.33 71.21L20.38 71.21L20.38 66.74L30.31 66.74L30.31 48.46L20.38 48.46L20.38 44.50L27.07 44.50L27.07 35.06L31.97 35.06L31.97 29.52L27.07 29.52L27.07 23.26L21.24 23.26L21.24 29.52L13.75 29.52L13.75 23.26L8.14 23.26L8.14 29.52L3.24 29.52L3.24 35.06L8.14 35.06L8.14 44.50L14.40 44.50L14.40 48.46L4.97 48.46L4.97 66.74L14.47 66.74L14.47 71.21L2.95 71.21L2.95 76.68L14.47 76.68L14.47 89.21L20.38 89.21L20.38 76.68ZM37.87 65.59C36.86 70.13 34.42 75.60 32.18 78.48C32.98 79.92 34.06 82.22 34.56 83.88C37.87 80.21 40.39 72.86 41.69 66.96ZM58.61 63.94L58.61 58.54L48.67 58.54L48.67 42.70L43.13 42.70L43.13 58.54L33.05 58.54L33.05 63.94L43.13 63.94L43.13 87.19L48.67 87.19L48.67 63.94ZM34.70 47.09C36.07 50.18 37.30 54.36 37.58 57.10L41.83 55.73C41.40 53.14 40.10 48.96 38.66 45.94ZM52.92 45.07C52.20 48.17 50.76 52.78 49.61 55.66L53.42 57.02C54.72 54.36 56.23 50.18 57.60 46.58ZM58.39 78.12C57.67 75.02 55.80 69.77 53.86 65.81L49.82 67.03C51.55 71.06 53.35 76.46 54.00 79.70ZM67.25 33.26L41.90 33.26C42.98 30.46 43.85 27.43 44.64 24.41L38.81 23.18C36.79 31.46 33.34 39.38 28.66 44.57C30.02 45.50 32.33 47.52 33.41 48.46C35.57 45.86 37.58 42.70 39.38 39.10L61.20 39.10C60.98 69.26 60.55 79.56 59.26 81.72C58.68 82.80 58.10 83.02 57.02 83.02C55.87 83.02 53.50 83.02 50.83 82.80C51.84 84.46 52.49 87.12 52.63 88.78C55.37 88.92 58.18 88.92 60.05 88.63C62.06 88.27 63.36 87.55 64.73 85.46C66.67 82.37 66.82 71.21 67.25 36.36Z"/></svg>
