<svg xmlns="http://www.w3.org/2000/svg" xmlns:xlink="http://www.w3.org/1999/xlink" width="72.00000000000001" height="106.56000000000002"><path fill="red" stroke="red" d="M27.29 33.70L27.29 38.59L18.58 38.59C19.01 37.15 19.37 35.42 19.80 33.70ZM37.80 38.59L33.12 38.59L33.12 28.51L20.88 28.51C21.24 26.78 21.60 25.13 21.89 23.54L15.62 23.11C15.41 24.77 15.05 26.64 14.62 28.51L6.34 28.51L6.34 33.70L13.54 33.70C13.10 35.42 12.74 37.15 12.31 38.59L3.24 38.59L3.24 43.85L37.80 43.85ZM12.31 75.46C12.60 73.58 12.89 71.57 13.18 69.77L20.16 69.77L20.16 75.46ZM13.03 51.48L27.65 51.48L27.65 57.10L13.03 57.10ZM36.65 80.71L36.65 75.46L26.42 75.46L26.42 69.77L36.29 69.77L36.29 64.87L26.42 64.87L26.42 61.63L34.13 61.63L34.13 47.02L6.84 47.02L6.84 61.63L20.16 61.63L20.16 64.87L3.82 64.87L3.82 69.77L7.42 69.77C6.91 73.44 6.19 77.76 5.47 80.71L20.16 80.71L20.16 88.99L26.42 88.99L26.42 80.71ZM66.82 27.36L38.23 27.36L38.23 33.05L48.60 33.05C48.53 39.38 48.31 46.15 47.52 52.63C45.43 49.75 43.06 46.58 41.04 43.92L36.58 46.58C39.82 50.98 43.92 56.81 46.30 60.70C44.35 70.13 40.75 78.62 34.06 84.60C35.64 85.61 37.58 87.34 38.66 88.78C52.42 75.89 54.07 53.06 54.58 33.05L60.77 33.05C60.12 66.67 59.33 78.48 57.60 81.00C56.95 82.08 56.30 82.37 55.30 82.37C53.93 82.37 51.34 82.37 48.31 82.08C49.25 83.81 49.97 86.40 50.04 88.13C53.06 88.27 56.02 88.34 58.10 87.98C60.26 87.62 61.70 86.90 63.07 84.67C65.45 81.14 66.02 68.76 66.82 30.60Z"/></svg>
