<svg xmlns="http://www.w3.org/2000/svg" xmlns:xlink="http://www.w3.org/1999/xlink" width="72.00000000000001" height="106.56000000000002"><path fill="red" stroke="red" d="M52.20 62.93L52.20 69.19L20.23 69.19L20.23 62.93ZM20.23 81.07L20.23 74.45L52.20 74.45L52.20 81.07ZM13.54 89.28L20.23 89.28L20.23 86.69L52.20 86.69L52.20 89.14L59.18 89.14L59.18 57.38L13.54 57.38ZM51.05 45.86C52.56 43.20 54.07 39.89 55.58 36.79L48.82 35.28L64.51 35.28L64.51 29.30L40.75 29.30C40.03 27.14 38.88 24.48 37.51 22.54L30.67 23.69C31.68 25.34 32.62 27.43 33.19 29.30L8.21 29.30L8.21 35.28L48.10 35.28C47.16 38.45 45.36 42.84 43.78 45.86L27.36 45.86L28.30 45.65C27.72 42.84 25.99 38.52 23.98 35.42L17.42 36.79C19.01 39.53 20.45 43.13 21.10 45.86L4.18 45.86L4.18 51.84L67.90 51.84L67.90 45.86Z"/></svg>
