<svg xmlns="http://www.w3.org/2000/svg" xmlns:xlink="http://www.w3.org/1999/xlink" width="72.00000000000001" height="106.56000000000002"><path fill="red" stroke="red" d="M32.54 30.53L22.68 30.53C22.03 28.15 20.88 25.20 19.73 22.82L13.82 24.41C14.62 26.21 15.48 28.51 16.06 30.53L4.18 30.53L4.18 36.07L32.54 36.07ZM24.34 62.57L24.34 68.76L12.53 68.76L12.53 62.57ZM12.53 80.50L12.53 73.80L24.34 73.80L24.34 80.50ZM30.38 57.17L6.55 57.17L6.55 89.06L12.53 89.06L12.53 85.90L30.38 85.90ZM59.18 65.45L59.18 79.85L42.98 79.85L42.98 65.45ZM36.86 89.21L42.98 89.21L42.98 85.97L59.18 85.97L59.18 88.92L65.59 88.92L65.59 59.26L36.86 59.26ZM35.14 26.64L35.14 32.83L44.57 32.83C43.42 40.46 40.90 47.59 33.26 51.77L33.26 46.66L25.42 46.66C26.64 43.99 27.94 40.68 29.09 37.66L23.04 36.50C22.46 39.38 21.17 43.63 20.16 46.66L11.66 46.66L15.98 45.14C15.41 42.77 14.04 39.10 12.60 36.36L7.27 38.02C8.57 40.75 9.86 44.28 10.37 46.66L2.95 46.66L2.95 52.42L33.26 52.42L33.26 52.06C34.70 53.28 36.36 55.44 37.08 56.95C46.44 51.48 49.54 42.62 50.90 32.83L60.62 32.83C60.19 43.63 59.76 47.81 58.82 48.89C58.25 49.54 57.60 49.68 56.52 49.68C55.37 49.68 52.56 49.68 49.46 49.39C50.47 50.98 51.12 53.42 51.26 55.22C54.58 55.37 57.74 55.37 59.54 55.15C61.63 54.94 63.00 54.36 64.22 52.85C65.88 50.83 66.46 44.78 66.89 29.23C66.89 28.30 66.96 26.64 66.96 26.64Z"/></svg>
