<svg xmlns="http://www.w3.org/2000/svg" xmlns:xlink="http://www.w3.org/1999/xlink" width="72.00000000000001" height="106.56000000000002"><path fill="red" stroke="red" d="M59.76 48.82L41.04 48.82L41.04 42.84L59.76 42.84ZM59.76 59.54L41.04 59.54L41.04 53.50L59.76 53.50ZM59.76 70.27L41.04 70.27L41.04 64.22L59.76 64.22ZM34.85 37.87L34.85 75.31L66.17 75.31L66.17 37.87L52.13 37.87C52.70 36.00 53.35 33.98 54.00 31.90L68.47 31.90L68.47 26.21L32.18 26.21L32.18 31.90L46.58 31.90C46.30 33.84 45.86 35.93 45.50 37.87ZM28.37 66.10C30.17 62.06 32.18 55.58 33.98 49.90L29.81 48.89L28.87 49.10L24.55 49.10L26.28 46.73C24.98 45.43 23.26 44.06 21.24 42.62C25.13 38.74 29.16 33.62 32.04 28.87L27.94 25.99L26.71 26.35L4.32 26.35L4.32 32.18L22.46 32.18C20.74 34.70 18.50 37.37 16.42 39.46C14.11 38.09 11.74 36.72 9.50 35.64L5.98 40.03C10.66 42.41 16.06 45.94 19.80 49.10L2.74 49.10L2.74 55.08L13.97 55.08L13.97 81.58C13.97 82.37 13.68 82.66 12.74 82.66C11.74 82.73 8.42 82.73 5.04 82.66C5.90 84.46 6.77 87.19 7.06 88.99C11.95 88.99 15.26 88.92 17.50 87.91C19.87 86.83 20.45 84.96 20.45 81.65L20.45 55.08L26.57 55.08C25.56 58.75 24.34 62.35 23.33 64.87ZM41.83 76.10C38.74 79.20 32.40 82.94 26.78 84.96C28.15 86.11 30.24 88.20 31.25 89.42C36.94 87.26 43.63 83.38 47.59 79.63ZM52.56 79.85C56.88 82.66 62.28 86.76 64.80 89.35L70.06 85.54C67.25 82.87 61.78 78.98 57.60 76.46Z"/></svg>
