<svg xmlns="http://www.w3.org/2000/svg" xmlns:xlink="http://www.w3.org/1999/xlink" width="72.00000000000001" height="106.56000000000002"><path fill="red" stroke="red" d="M60.84 49.03L43.92 49.03L43.92 43.27L60.84 43.27ZM60.84 59.76L43.92 59.76L43.92 53.93L60.84 53.93ZM60.84 70.49L43.92 70.49L43.92 64.66L60.84 64.66ZM38.09 38.16L38.09 75.60L66.89 75.60L66.89 38.16L53.86 38.16C54.50 36.29 55.08 34.13 55.73 32.04L69.05 32.04L69.05 26.35L36.07 26.35L36.07 32.04L48.89 32.04C48.60 33.98 48.24 36.22 47.81 38.16ZM26.50 54.14C23.33 56.95 17.50 59.62 12.46 61.20C13.82 62.14 15.34 63.72 16.27 64.94C21.67 63.00 27.72 59.90 31.54 56.16ZM11.88 54.07L35.93 54.07L35.93 48.74L10.66 48.74C13.82 47.38 17.21 45.86 20.52 44.06C23.83 45.65 26.86 47.23 29.02 48.60L33.26 45.00C31.18 43.78 28.37 42.48 25.42 41.04C27.72 39.46 29.95 37.66 31.75 35.86L28.73 34.70L35.28 34.70L35.28 29.45L24.48 29.45C23.83 27.36 22.75 24.70 21.60 22.75L15.62 24.12C16.42 25.70 17.14 27.65 17.78 29.45L4.25 29.45L4.25 34.70L25.85 34.70C24.19 36.14 22.32 37.44 20.30 38.66C17.14 37.30 13.90 36.00 11.02 34.92L6.91 38.16C9.43 39.17 12.24 40.25 14.98 41.47C11.74 43.06 8.28 44.35 4.90 45.43C5.98 46.22 7.42 47.66 8.50 48.74L5.90 48.74L5.90 63.22C5.90 69.77 5.54 78.26 1.94 84.53C3.24 85.25 5.76 87.55 6.70 88.63C11.02 81.65 11.88 70.85 11.88 63.29ZM28.44 62.86C24.98 66.53 18.50 69.91 12.96 71.93C14.26 72.94 15.77 74.52 16.70 75.74C22.82 73.37 29.38 69.55 33.55 64.94ZM30.38 72.86C26.64 78.41 18.94 82.73 10.80 85.03C12.17 86.18 13.61 88.06 14.47 89.50C23.54 86.47 31.39 81.50 35.86 74.74ZM44.42 76.18C41.62 79.27 35.86 83.09 30.89 85.10C32.33 86.26 34.34 88.13 35.35 89.42C40.39 87.26 46.37 83.23 49.97 79.56ZM54.14 79.78C57.96 82.58 62.71 86.69 65.02 89.35L70.13 85.68C67.75 83.09 62.93 79.13 59.18 76.54Z"/></svg>
