<svg xmlns="http://www.w3.org/2000/svg" xmlns:xlink="http://www.w3.org/1999/xlink" width="72.00000000000001" height="106.56000000000002"><path fill="red" stroke="red" d="M59.83 65.74C56.59 68.47 51.48 71.86 46.94 74.38C43.27 72.43 39.60 70.49 36.36 68.98L31.97 72.79C41.11 77.47 52.92 84.53 58.68 88.99L63.43 84.46C60.62 82.44 56.66 79.92 52.34 77.47C56.52 75.24 61.06 72.50 64.80 69.70ZM28.08 37.22C30.74 35.35 33.34 33.34 35.64 31.18C38.02 33.26 40.75 35.35 43.70 37.22ZM49.75 49.39L49.75 53.64L21.82 53.64L21.82 49.39ZM21.82 62.28L21.82 58.10L49.75 58.10L49.75 62.28ZM34.92 22.46C28.37 31.39 15.55 38.45 3.17 42.19C4.75 43.63 6.41 46.01 7.34 47.59C10.01 46.73 12.67 45.65 15.26 44.50L15.26 78.34C15.26 81.36 13.54 83.09 12.31 83.88C13.32 84.96 14.76 87.41 15.26 88.78C17.06 87.91 19.87 87.26 38.88 84.17C38.74 82.80 38.74 80.21 38.95 78.48L21.82 81.00L21.82 67.25L56.52 67.25L56.52 44.42L15.34 44.42C19.15 42.70 22.90 40.68 26.35 38.45L26.35 41.90L45.94 41.90L45.94 38.66C52.13 42.55 59.04 45.72 65.38 47.66C66.31 46.08 68.26 43.34 69.77 42.05C59.11 39.24 46.73 33.34 39.53 27.07C40.03 26.50 40.54 25.92 40.97 25.34Z"/></svg>
