<svg xmlns="http://www.w3.org/2000/svg" xmlns:xlink="http://www.w3.org/1999/xlink" width="72.00000000000001" height="106.56000000000002"><path fill="red" stroke="red" d="M61.06 42.19C60.26 47.02 59.18 52.06 58.32 55.37L63.72 56.74C65.30 51.84 67.03 43.85 68.33 37.08L63.86 35.93L62.78 36.14L46.44 36.14C47.38 32.26 48.17 28.15 48.67 23.98L42.12 23.11C40.90 34.27 38.09 44.78 33.34 51.41C34.85 52.34 37.73 54.22 38.88 55.22C41.26 51.70 43.20 47.23 44.78 42.19ZM13.54 41.18L26.28 41.18L26.28 36.72L14.40 36.72C16.20 34.99 17.86 33.19 19.44 31.32C24.12 33.77 29.66 36.94 32.54 39.02L35.57 33.55C32.69 31.68 27.36 28.80 22.90 26.64C23.33 25.99 23.76 25.27 24.12 24.62L18.50 22.54C14.83 28.73 8.21 34.42 1.94 38.02C2.95 39.46 4.46 42.91 4.82 44.28C7.85 42.41 10.80 40.10 13.54 37.51ZM26.21 49.68L26.21 54.22L14.11 54.22L14.11 49.68ZM14.11 64.44L14.11 59.04L26.21 59.04L26.21 64.44ZM53.64 47.16L47.02 47.16L47.02 50.47C47.02 59.26 45.94 72.50 33.62 82.73C32.18 79.20 29.81 74.16 27.79 70.20L22.75 72.22C23.40 73.51 24.05 74.95 24.70 76.46L14.11 79.99L14.11 69.41L32.26 69.41L32.26 44.71L7.85 44.71L7.85 79.13C7.85 81.79 6.05 82.87 4.82 83.45C5.76 84.82 6.77 87.55 7.13 89.14C8.64 88.06 10.94 86.90 26.78 81.29C27.58 83.23 28.22 85.18 28.66 86.54L32.62 84.74C34.13 85.90 36.00 87.70 37.01 88.92C44.50 83.16 48.60 76.39 50.90 69.70C53.78 78.26 58.18 85.18 64.58 89.06C65.59 87.34 67.61 84.82 69.12 83.45C60.62 78.98 55.80 68.62 53.42 56.88C53.57 54.65 53.64 52.56 53.64 50.69Z"/></svg>
