<svg xmlns="http://www.w3.org/2000/svg" xmlns:xlink="http://www.w3.org/1999/xlink" width="72.00000000000001" height="106.56000000000002"><path fill="red" stroke="red" d="M67.46 33.05L49.90 33.05L54.14 30.96C53.14 28.66 51.19 25.27 49.39 22.68L43.78 25.13C45.22 27.58 47.02 30.74 47.95 33.05L32.04 33.05L32.04 39.17L67.46 39.17ZM53.42 43.20C56.88 47.88 61.42 54.36 63.50 58.18L68.90 54.50C66.60 50.83 61.92 44.57 58.46 40.10ZM40.18 40.18C37.80 45.00 34.06 50.40 30.67 53.93C32.04 55.08 34.42 57.53 35.50 58.75C39.02 54.58 43.42 47.95 46.30 42.34ZM12.53 41.11L25.13 41.11L25.13 36.50L13.10 36.50C14.76 34.78 16.42 32.98 17.86 31.10C21.53 33.26 25.78 35.86 28.01 37.58L30.89 32.40C28.66 30.89 24.48 28.51 20.95 26.64C21.46 25.85 21.89 25.06 22.32 24.26L17.06 22.39C13.82 28.22 7.99 33.70 2.45 37.08C3.38 38.52 4.82 41.76 5.18 43.06C7.63 41.40 10.22 39.31 12.53 37.08ZM22.46 49.68L22.46 54.50L12.67 54.50L12.67 49.68ZM12.67 64.37L12.67 59.33L22.46 59.33L22.46 64.37ZM29.95 84.02C28.58 80.50 25.63 74.52 23.26 69.98L18.29 72.07C19.08 73.66 20.02 75.46 20.81 77.26L12.67 80.14L12.67 69.41L28.37 69.41L28.37 44.64L6.84 44.64L6.84 79.20C6.84 81.86 5.40 82.94 4.32 83.45C5.11 84.82 6.19 87.55 6.48 89.06C7.85 88.06 9.86 86.98 22.90 81.86C23.69 83.66 24.26 85.25 24.70 86.54ZM54.79 53.50C53.64 58.18 51.91 62.42 49.68 66.31C47.30 62.50 45.36 58.25 43.99 53.86L38.16 55.37C40.18 61.42 42.62 66.96 45.79 71.86C41.62 77.04 36.22 81.22 29.66 84.24C31.03 85.39 32.98 87.84 33.77 89.28C40.18 86.11 45.36 82.08 49.68 77.18C53.86 82.15 58.90 86.26 64.87 88.92C65.81 87.12 67.82 84.60 69.19 83.23C63.14 80.86 57.89 76.90 53.64 71.78C56.81 66.89 59.18 61.34 60.91 55.08Z"/></svg>
