<svg xmlns="http://www.w3.org/2000/svg" xmlns:xlink="http://www.w3.org/1999/xlink" width="72.00000000000001" height="106.56000000000002"><path fill="red" stroke="red" d="M24.41 49.75L24.41 54.29L13.18 54.29L13.18 49.75ZM13.18 64.51L13.18 59.11L24.41 59.11L24.41 64.51ZM21.02 72.29C21.60 73.73 22.18 75.17 22.75 76.75L13.18 80.14L13.18 69.48L29.88 69.48L29.88 44.78L7.34 44.78L7.34 79.27C7.34 81.94 5.62 83.09 4.39 83.59C5.33 84.96 6.26 87.62 6.62 89.14C7.99 87.98 10.22 86.98 24.55 81.58C25.34 83.88 25.99 85.97 26.42 87.62L31.61 85.54C30.53 81.79 28.01 75.46 25.85 70.70ZM17.86 22.61C14.54 28.58 8.50 34.20 2.74 37.73C3.67 39.17 5.18 42.62 5.62 43.99C8.06 42.34 10.66 40.32 12.96 38.09L12.96 41.33L25.34 41.33L25.34 36.86L14.18 36.86C15.84 35.14 17.35 33.41 18.86 31.54C22.82 34.06 27.22 37.22 29.66 39.31L32.90 34.42C30.38 32.40 25.85 29.45 21.96 27.14C22.46 26.28 22.97 25.42 23.40 24.55ZM52.99 52.63L52.99 67.18L47.09 67.18L47.09 52.63ZM57.31 72.00L57.31 47.81L42.91 47.81L42.91 76.10L47.09 76.10L47.09 72.00ZM67.18 35.06L49.97 35.06C51.34 31.90 52.78 28.08 54.22 24.55L47.09 22.90C46.30 26.50 44.93 31.32 43.63 35.06L33.34 35.06L33.34 89.21L39.10 89.21L39.10 40.75L61.27 40.75L61.27 82.15C61.27 83.09 60.98 83.38 59.98 83.45C59.04 83.52 55.87 83.52 52.70 83.38C53.57 84.89 54.36 87.41 54.58 88.99C59.33 88.99 62.50 88.92 64.51 87.91C66.53 86.98 67.18 85.32 67.18 82.22Z"/></svg>
