<svg xmlns="http://www.w3.org/2000/svg" xmlns:xlink="http://www.w3.org/1999/xlink" width="72.00000000000001" height="106.56000000000002"><path fill="red" stroke="red" d="M6.70 84.96C7.99 80.64 9.00 73.58 9.65 68.76L5.83 67.54C5.26 72.29 4.10 79.20 2.74 83.38ZM11.16 68.76C11.81 72.94 12.17 78.34 12.02 81.94L15.34 81.50C15.48 77.98 15.12 72.58 14.33 68.40ZM11.81 53.06L18.14 53.06L18.14 58.75L11.81 58.75ZM18.14 31.32L18.14 36.86L11.81 36.86L11.81 31.32ZM18.14 47.81L11.81 47.81L11.81 42.12L18.14 42.12ZM23.54 58.75L23.54 53.06L31.03 53.06L31.03 47.81L23.54 47.81L23.54 42.12L31.03 42.12L31.03 36.86L23.54 36.86L23.54 31.32L32.47 31.32L32.47 25.99L6.41 25.99L6.41 64.08L27.65 64.08C27.43 67.82 27.22 70.85 27.00 73.37C26.21 71.06 24.98 68.26 23.69 66.02L20.81 67.03C22.32 69.98 23.90 73.87 24.48 76.39L26.78 75.53C26.28 80.06 25.70 82.15 25.06 82.94C24.48 83.66 23.90 83.81 22.90 83.81C21.96 83.81 19.73 83.81 17.28 83.52C18.07 84.96 18.65 87.26 18.79 88.85C21.46 88.99 24.05 88.99 25.56 88.78C27.43 88.63 28.73 88.06 29.81 86.62C31.68 84.46 32.47 78.12 33.34 61.20C33.41 60.41 33.48 58.75 33.48 58.75ZM21.82 79.06C21.53 76.03 20.45 71.28 19.15 67.61L16.13 68.18C17.28 71.86 18.36 76.68 18.50 79.78ZM47.81 83.02C44.21 83.02 43.63 82.37 43.63 78.77L43.63 51.62L49.82 49.25L49.82 72.86L55.37 72.86L55.37 47.09L60.55 45.14C60.55 53.42 60.41 62.71 59.90 68.62L65.02 69.91C66.10 62.06 66.53 49.46 66.53 39.96L66.74 38.95L62.06 37.44L60.05 39.10L55.37 40.82L55.37 23.18L49.82 23.18L49.82 42.98L43.63 45.36L43.63 29.59L37.94 29.59L37.94 47.52L31.90 49.90L33.91 55.37L37.94 53.86L37.94 78.77C37.94 86.47 39.96 88.42 47.23 88.42L60.41 88.42C66.82 88.42 68.47 85.39 69.26 76.39C67.68 76.03 65.30 75.10 64.01 74.16C63.58 81.29 63.00 83.02 59.98 83.02Z"/></svg>
