<svg xmlns="http://www.w3.org/2000/svg" xmlns:xlink="http://www.w3.org/1999/xlink" width="72.00000000000001" height="106.56000000000002"><path fill="red" stroke="red" d="M22.54 34.78C21.60 37.01 20.45 39.24 19.37 41.11L12.46 41.11C13.54 39.02 14.62 36.94 15.48 34.78ZM28.51 52.63L22.97 52.63L22.97 46.51L28.51 46.51ZM28.51 63.79L22.97 63.79L22.97 57.67L28.51 57.67ZM12.74 52.63L12.74 46.51L18.14 46.51L18.14 52.63ZM18.14 57.67L18.14 63.79L12.74 63.79L12.74 57.67ZM7.20 69.26L34.20 69.26L34.20 41.11L25.49 41.11C27.29 38.16 29.02 34.85 30.46 31.82L26.57 29.16L25.42 29.52L17.50 29.52C18.14 27.58 18.72 25.70 19.22 23.90L13.03 23.04C11.45 29.81 8.14 38.45 2.59 44.93C4.10 45.72 6.12 47.45 7.20 48.82ZM7.06 89.21C10.51 85.46 11.81 79.27 12.53 73.15L7.78 72.00C7.13 77.69 5.83 83.30 2.59 86.69ZM14.47 72.58C15.12 76.97 15.48 82.58 15.19 86.26L19.94 85.68C20.09 82.01 19.73 76.39 18.86 72.00ZM21.24 72.79C22.75 76.90 24.05 82.22 24.26 85.75L28.80 84.67C28.44 81.22 27.14 75.89 25.49 71.86ZM28.30 72.22C30.53 76.39 32.76 81.86 33.62 85.46L38.02 83.81C37.15 80.28 34.78 74.81 32.47 70.70ZM69.26 65.38L54.94 65.38L54.94 56.88L66.31 56.88L66.31 51.05L54.94 51.05L54.94 43.13L67.61 43.13L67.61 37.22L60.19 37.22C62.14 33.98 64.30 29.09 66.31 24.70L59.54 23.04C58.46 27.00 56.23 32.54 54.43 36.07L58.39 37.22L44.86 37.22L48.31 35.86C47.52 32.40 45.29 27.14 43.06 23.18L37.58 25.13C39.53 28.80 41.40 33.70 42.26 37.22L36.00 37.22L36.00 43.13L48.38 43.13L48.38 51.05L37.51 51.05L37.51 56.88L48.38 56.88L48.38 65.38L35.35 65.38L35.35 71.28L48.38 71.28L48.38 89.06L54.94 89.06L54.94 71.28L69.26 71.28Z"/></svg>
