<svg xmlns="http://www.w3.org/2000/svg" xmlns:xlink="http://www.w3.org/1999/xlink" width="72.00000000000001" height="106.56000000000002"><path fill="red" stroke="red" d="M68.62 31.03L55.66 31.03C54.72 28.66 53.35 25.42 52.27 22.90L46.22 24.55C47.09 26.50 48.02 28.94 48.82 31.03L33.05 31.03L33.05 36.86L68.62 36.86ZM20.74 34.34C19.80 36.79 18.65 39.24 17.57 41.18L11.23 41.18C12.46 38.95 13.39 36.65 14.33 34.34ZM25.42 52.70L20.66 52.70L20.66 46.51L25.42 46.51ZM25.42 64.08L20.66 64.08L20.66 57.82L25.42 57.82ZM11.52 52.70L11.52 46.51L16.06 46.51L16.06 52.70ZM16.06 57.82L16.06 64.08L11.52 64.08L11.52 57.82ZM6.34 69.41L30.74 69.41L30.74 41.18L23.18 41.18C24.98 38.02 26.71 34.42 28.15 31.18L24.55 28.73L23.40 29.09L16.20 29.09C16.78 27.29 17.28 25.56 17.71 23.83L12.24 23.11C10.66 29.81 7.49 38.52 2.16 45.07C3.46 45.72 5.33 47.30 6.34 48.38ZM7.13 88.99C9.07 85.03 10.66 78.48 11.66 73.73L7.06 72.07C6.12 76.82 4.39 83.09 2.30 86.98ZM13.46 73.51C13.97 77.90 14.26 83.59 14.18 87.34L18.79 86.76C18.72 82.94 18.36 77.40 17.86 73.01ZM19.94 73.30C21.02 77.33 22.25 82.58 22.61 85.90L26.93 84.74C26.50 81.43 25.27 76.39 23.98 72.43ZM40.25 66.46C38.66 71.35 36.29 76.97 33.91 80.93C33.26 78.12 31.75 74.09 30.24 71.06L26.28 72.65C27.79 75.82 29.23 80.14 29.74 82.94L33.62 81.29L33.55 81.43C34.92 82.15 37.44 83.74 38.52 84.53C40.90 80.35 43.92 73.73 45.86 68.11ZM41.83 48.17L60.05 48.17L60.05 57.24L41.83 57.24ZM66.24 63.07L66.24 42.26L36.00 42.26L36.00 63.07L48.67 63.07L48.67 81.79C48.67 82.58 48.46 82.80 47.52 82.87C46.58 82.87 43.42 82.87 40.32 82.80C41.04 84.38 41.98 86.90 42.26 88.70C46.94 88.70 50.11 88.56 52.20 87.62C54.36 86.69 54.94 85.03 54.94 81.86L54.94 63.07ZM57.67 68.26C59.90 73.22 62.57 80.06 63.79 84.31L69.34 82.22C68.04 77.98 65.38 71.50 62.93 66.38Z"/></svg>
