<svg xmlns="http://www.w3.org/2000/svg" xmlns:xlink="http://www.w3.org/1999/xlink" width="72.00000000000001" height="106.56000000000002"><path fill="red" stroke="red" d="M18.14 53.42C22.68 56.30 27.72 59.76 32.54 63.22C27.50 67.39 21.89 71.14 16.49 74.02C17.71 75.02 19.58 77.04 20.52 78.26C26.14 75.10 31.82 71.06 37.08 66.60C42.41 70.70 47.23 74.59 50.40 77.69L54.86 73.66C51.55 70.56 46.73 66.74 41.33 62.86C45.72 58.82 49.61 54.58 52.78 50.40L47.09 47.95C44.50 51.77 40.90 55.73 36.72 59.54C31.82 56.16 26.71 52.78 22.18 49.97ZM58.32 63.50C56.52 61.56 53.57 59.26 51.12 57.60L47.45 60.62C50.33 62.78 53.71 65.74 55.37 67.75L58.32 65.09L58.32 80.06L41.40 80.06L43.20 78.62C41.40 76.68 37.87 73.87 34.99 71.78L31.32 74.59C33.48 76.18 35.93 78.26 37.73 80.06L14.26 80.06L14.26 61.70C16.78 63.58 19.37 65.95 20.59 67.68L24.62 64.51C23.11 62.64 19.87 59.98 17.21 58.18L14.26 60.34L14.26 46.30L31.82 46.30L29.45 48.60C32.18 50.40 35.71 53.14 37.37 55.08L40.82 51.48C39.38 49.90 36.72 47.88 34.20 46.30L58.32 46.30ZM67.39 35.14L67.39 28.80L38.30 28.80L38.30 23.11L31.54 23.11L31.54 40.54L7.92 40.54L7.92 89.21L14.26 89.21L14.26 85.90L58.32 85.90L58.32 88.99L64.94 88.99L64.94 40.54L38.30 40.54L38.30 35.14Z"/></svg>
