<svg xmlns="http://www.w3.org/2000/svg" xmlns:xlink="http://www.w3.org/1999/xlink" width="72.00000000000001" height="106.56000000000002"><path fill="red" stroke="red" d="M44.93 33.48L26.42 33.48L26.42 29.81L44.93 29.81ZM44.93 41.54L26.42 41.54L26.42 37.73L44.93 37.73ZM44.93 49.68L26.42 49.68L26.42 45.79L44.93 45.79ZM51.62 25.34L20.02 25.34L20.02 54.14L51.62 54.14ZM14.26 29.16L7.78 29.16L7.78 62.64L24.98 62.64L24.98 67.46L3.53 67.46L3.53 73.15L10.94 73.15C10.37 78.70 8.71 82.58 3.46 85.03C4.82 86.11 6.48 88.49 7.13 90.00C14.11 86.62 16.34 81.00 17.06 73.15L24.98 73.15L24.98 89.14L31.46 89.14L31.46 57.24L14.26 57.24ZM46.30 67.61L46.30 62.64L63.86 62.64L63.86 29.16L57.31 29.16L57.31 57.24L39.82 57.24L39.82 89.21L46.30 89.21L46.30 73.37L59.11 73.37L59.11 89.28L65.59 89.28L65.59 67.61Z"/></svg>
