<svg xmlns="http://www.w3.org/2000/svg" xmlns:xlink="http://www.w3.org/1999/xlink" width="72.00000000000001" height="106.56000000000002"><path fill="red" stroke="red" d="M32.83 57.02L38.88 57.02L38.88 44.42C41.04 41.98 43.49 38.88 45.50 35.93L40.54 34.06C38.74 37.15 35.35 41.54 32.83 44.28ZM4.46 34.06L67.46 34.06L67.46 28.80L40.54 28.80C40.03 27.00 39.02 24.48 37.94 22.61L31.10 23.98C31.82 25.49 32.47 27.14 32.90 28.80L4.46 28.80ZM35.35 41.18C34.42 39.24 32.33 36.22 30.46 34.06L26.14 35.86C28.01 38.09 30.02 41.26 30.82 43.34ZM23.47 64.73L48.74 64.73L48.74 59.98L23.47 59.98ZM22.03 42.62C21.74 48.17 21.46 50.47 20.81 51.19C20.52 51.70 20.02 51.77 19.15 51.77C18.36 51.77 16.63 51.77 14.62 51.55C15.34 52.92 15.84 54.94 15.91 56.45C18.22 56.59 20.45 56.52 21.67 56.45C23.33 56.23 24.26 55.80 25.20 54.65C26.50 53.21 26.93 49.32 27.36 40.10C27.43 39.31 27.43 37.94 27.43 37.94L5.40 37.94L5.40 42.62L11.16 42.62C10.30 47.66 8.14 51.55 2.74 53.93C3.89 54.72 5.33 56.74 5.98 57.96C12.89 54.72 15.48 49.54 16.56 42.62ZM19.37 57.38L13.10 57.38L13.10 64.87C13.10 71.06 12.10 78.91 4.25 84.82C5.62 85.82 7.78 88.20 8.71 89.64C18.14 82.66 19.37 72.94 19.37 65.09ZM24.19 74.74C22.75 78.26 20.38 81.94 17.78 84.67C19.08 85.25 21.38 86.69 22.46 87.55C24.98 84.74 27.79 80.28 29.59 76.32ZM50.54 72.65L50.54 67.90L21.53 67.90L21.53 72.65L32.83 72.65L32.83 88.49L38.59 88.49L38.59 72.65ZM41.26 76.68C43.99 79.85 47.16 84.24 48.46 86.98L52.92 84.17C51.55 81.43 48.24 77.26 45.43 74.23ZM53.50 89.14L59.90 89.14L59.90 57.46L53.50 57.46ZM60.91 35.35C57.31 37.08 50.90 38.66 45.36 39.60L45.29 39.60L45.29 49.03C45.29 51.62 44.06 52.49 43.13 52.92C43.85 53.93 44.71 56.09 45.00 57.24C46.01 56.66 47.81 56.16 57.74 54.29C57.46 53.28 57.24 51.41 57.17 50.11L50.62 51.12L50.62 43.06C51.98 42.84 53.28 42.62 54.65 42.34C56.59 49.39 60.05 55.30 65.52 58.46C66.31 56.95 67.97 55.01 69.19 53.93C64.22 51.70 60.98 46.87 59.11 41.18C61.34 40.61 63.36 39.96 65.16 39.31Z"/></svg>
