<svg xmlns="http://www.w3.org/2000/svg" xmlns:xlink="http://www.w3.org/1999/xlink" width="72.00000000000001" height="106.56000000000002"><path fill="red" stroke="red" d="M26.93 59.62C27.14 56.74 27.22 53.78 27.22 50.83L27.22 44.06L45.29 44.06L45.29 59.62ZM67.75 59.62L52.34 59.62L52.34 44.06L65.95 44.06L65.95 37.37L52.34 37.37L52.34 23.26L45.29 23.26L45.29 37.37L27.22 37.37L27.22 23.40L20.16 23.40L20.16 37.37L6.55 37.37L6.55 44.06L20.16 44.06L20.16 50.83C20.16 53.78 20.09 56.81 19.80 59.62L4.32 59.62L4.32 66.38L18.65 66.38C16.92 73.44 13.10 79.78 5.11 84.96C6.98 85.97 9.79 88.42 11.09 89.86C20.38 83.59 24.41 75.31 26.06 66.38L45.29 66.38L45.29 89.21L52.34 89.21L52.34 66.38L67.75 66.38Z"/></svg>
