<svg xmlns="http://www.w3.org/2000/svg" xmlns:xlink="http://www.w3.org/1999/xlink" width="72.00000000000001" height="106.56000000000002"><path fill="red" stroke="red" d="M56.88 53.78L55.80 54.14L12.67 54.14L12.67 60.55L49.10 60.55C45.14 64.66 40.25 69.41 35.64 73.73C32.18 71.35 28.58 69.05 25.56 67.10L20.88 72.07C28.44 76.97 38.45 84.24 43.13 89.06L48.17 83.38C46.44 81.72 44.14 79.92 41.54 77.90C48.53 70.92 56.23 62.86 61.92 56.66ZM40.97 25.92L34.70 22.54C27.65 31.82 14.69 40.68 2.95 45.79C4.82 47.52 6.84 49.90 7.99 51.70C12.53 49.39 17.06 46.73 21.53 43.63L21.53 49.25L49.10 49.25L49.10 43.06L22.39 43.06C27.07 39.74 31.54 35.93 35.50 31.97C43.42 39.60 54.65 47.09 63.79 51.12C65.02 49.25 67.32 46.37 68.98 44.86C58.97 41.26 46.87 34.20 39.74 27.36Z"/></svg>
