<svg xmlns="http://www.w3.org/2000/svg" xmlns:xlink="http://www.w3.org/1999/xlink" width="72.00000000000001" height="106.56000000000002"><path fill="red" stroke="red" d="M34.85 26.50C32.40 35.50 27.79 43.70 21.82 48.82C23.11 50.18 25.27 53.35 26.06 54.79C32.90 48.53 38.38 38.81 41.47 28.15ZM18.50 23.47C14.62 33.91 8.21 44.42 1.44 51.12C2.52 52.70 4.46 56.30 5.11 57.89C7.13 55.80 9.14 53.35 11.09 50.69L11.09 89.14L17.64 89.14L17.64 40.39C20.38 35.57 22.82 30.38 24.77 25.34ZM29.38 52.20L29.38 58.39L36.86 58.39C35.42 70.85 31.25 79.20 21.67 84.02C23.11 85.10 25.42 87.62 26.28 88.99C36.72 82.94 41.62 73.22 43.49 58.39L54.43 58.39C53.71 74.16 52.78 80.21 51.55 81.72C50.90 82.58 50.26 82.73 49.18 82.73C48.02 82.73 45.50 82.66 42.62 82.37C43.70 84.10 44.35 86.69 44.50 88.49C47.66 88.63 50.69 88.63 52.56 88.34C54.50 88.13 55.94 87.55 57.24 85.82C59.40 83.30 60.19 75.67 61.13 55.01C61.20 54.14 61.20 52.20 61.20 52.20ZM43.63 25.49L43.63 31.90L51.12 31.90C53.86 40.75 58.82 49.54 64.94 55.01C65.88 52.92 67.82 49.68 69.19 48.10C63.00 43.56 58.25 34.70 56.16 25.49Z"/></svg>
