<svg xmlns="http://www.w3.org/2000/svg" xmlns:xlink="http://www.w3.org/1999/xlink" width="72.00000000000001" height="106.56000000000002"><path fill="red" stroke="red" d="M18.50 23.40C14.83 33.91 8.71 44.35 2.23 51.19C3.31 52.70 5.26 56.30 5.90 57.96C7.78 55.87 9.65 53.50 11.45 50.98L11.45 89.14L17.86 89.14L17.86 40.54C20.52 35.57 22.90 30.46 24.77 25.27ZM57.24 56.30C54.36 62.21 50.40 67.18 45.36 71.28C40.54 67.10 36.79 61.99 34.06 56.30ZM61.78 49.97L60.62 50.26L48.96 50.26L48.96 39.96L68.54 39.96L68.54 33.77L48.96 33.77L48.96 23.40L42.19 23.40L42.19 33.77L22.82 33.77L22.82 39.96L42.19 39.96L42.19 50.26L24.12 50.26L24.12 56.30L28.15 56.30L27.43 56.52C30.53 63.79 34.70 70.06 39.96 75.24C33.98 78.98 27.22 81.72 20.02 83.52C21.46 84.89 23.47 87.70 24.19 89.42C31.68 87.19 38.74 83.95 45.07 79.63C50.76 83.88 57.38 87.05 64.94 89.21C65.95 87.34 67.90 84.60 69.41 83.16C62.28 81.58 56.02 78.91 50.62 75.31C57.38 69.34 62.78 61.70 66.10 52.20Z"/></svg>
