<svg xmlns="http://www.w3.org/2000/svg" xmlns:xlink="http://www.w3.org/1999/xlink" width="72.00000000000001" height="106.56000000000002"><path fill="red" stroke="red" d="M18.36 23.40C14.62 33.91 8.21 44.42 1.58 51.19C2.66 52.70 4.54 56.30 5.11 57.96C7.13 55.73 9.14 53.35 11.09 50.62L11.09 89.14L17.50 89.14L17.50 40.46C20.16 35.57 22.61 30.38 24.48 25.27ZM55.22 39.17L24.26 39.17L24.26 45.00L55.22 45.00ZM45.29 56.88L45.29 69.12L32.76 69.12L32.76 56.88ZM51.48 74.81L51.48 51.19L26.57 51.19L26.57 79.78L32.76 79.78L32.76 74.81ZM66.60 26.86L25.13 26.86L25.13 32.90L59.90 32.90L59.90 80.71C59.90 82.08 59.40 82.51 58.03 82.58C56.74 82.58 52.06 82.66 47.52 82.37C48.46 84.24 49.54 87.41 49.82 89.21C56.30 89.21 60.48 89.14 63.07 87.98C65.66 86.90 66.60 84.74 66.60 80.78Z"/></svg>
