<svg xmlns="http://www.w3.org/2000/svg" xmlns:xlink="http://www.w3.org/1999/xlink" width="72.00000000000001" height="106.56000000000002"><path fill="red" stroke="red" d="M19.44 23.26C15.41 33.77 8.64 44.14 1.58 50.76C2.74 52.34 4.61 55.94 5.26 57.53C7.63 55.08 10.08 52.27 12.31 49.18L12.31 89.06L18.65 89.06L18.65 39.53C21.31 34.99 23.76 30.10 25.70 25.20ZM59.47 62.71L59.47 78.41L39.60 78.41L39.60 62.71ZM69.26 43.49L69.26 37.01L45.29 37.01C46.37 32.83 47.23 28.58 47.95 24.48L41.04 23.40C40.39 27.86 39.53 32.47 38.30 37.01L22.32 37.01L22.32 43.49L36.50 43.49C33.12 54.00 27.79 63.72 19.73 70.20C20.95 71.50 23.04 73.94 24.05 75.46C27.58 72.58 30.53 69.19 33.12 65.52L33.12 88.92L39.60 88.92L39.60 84.67L59.47 84.67L59.47 88.27L66.24 88.27L66.24 56.52L38.38 56.52C40.46 52.34 42.05 48.02 43.49 43.49Z"/></svg>
