<svg xmlns="http://www.w3.org/2000/svg" xmlns:xlink="http://www.w3.org/1999/xlink" width="72.00000000000001" height="106.56000000000002"><path fill="red" stroke="red" d="M18.43 23.47C14.54 33.98 8.14 44.50 1.37 51.19C2.45 52.70 4.39 56.30 5.04 57.96C7.13 55.73 9.22 53.21 11.23 50.40L11.23 89.14L17.57 89.14L17.57 40.46C20.30 35.57 22.75 30.46 24.70 25.34ZM31.54 54.29C29.74 62.57 26.50 70.85 22.25 76.18C23.76 76.97 26.71 78.70 27.94 79.78C32.18 73.87 35.93 64.80 38.09 55.51ZM61.63 42.70C61.20 46.15 60.70 49.54 60.19 51.98L65.88 53.06C66.82 49.03 68.11 42.70 69.05 37.22L64.37 36.29L63.29 36.50L36.07 36.50C37.51 32.76 38.74 28.87 39.74 24.91L33.12 23.47C30.67 33.62 26.57 43.78 21.17 50.11C22.75 51.12 25.42 53.28 26.64 54.50C29.09 51.26 31.39 47.23 33.55 42.70L43.27 42.70L43.27 81.43C43.27 82.37 42.91 82.58 41.98 82.58C41.04 82.66 37.94 82.66 34.70 82.58C35.71 84.38 36.79 87.41 37.08 89.28C41.62 89.28 44.86 89.06 47.02 87.98C49.18 86.83 49.90 84.89 49.90 81.43L49.90 42.70ZM53.93 55.58C57.67 63.07 60.98 73.08 61.99 79.56L68.40 77.26C67.25 70.78 63.86 61.13 59.90 53.64Z"/></svg>
