<svg xmlns="http://www.w3.org/2000/svg" xmlns:xlink="http://www.w3.org/1999/xlink" width="72.00000000000001" height="106.56000000000002"><path fill="red" stroke="red" d="M59.69 25.13C57.67 29.59 53.93 35.86 50.90 39.67L55.80 41.76C58.97 38.02 62.78 32.26 65.88 27.22ZM16.27 23.40C13.18 34.13 8.21 44.78 2.38 51.84C3.53 53.50 5.33 57.31 5.83 58.90C7.49 56.88 9.07 54.50 10.66 52.06L10.66 89.21L16.99 89.21L16.99 39.82C19.15 35.06 21.02 30.02 22.54 25.13ZM37.80 38.88C36.07 35.06 32.18 29.30 28.44 25.20L23.47 27.72C27.07 31.97 30.96 37.94 32.54 41.90ZM48.53 61.27L48.53 70.70L40.39 70.70L40.39 61.27ZM53.86 75.96L53.86 56.09L35.14 56.09L35.14 79.56L40.39 79.56L40.39 75.96ZM65.38 44.71L47.74 44.71L47.74 23.11L41.04 23.11L41.04 44.71L23.76 44.71L23.76 89.21L30.02 89.21L30.02 50.76L59.04 50.76L59.04 81.72C59.04 82.73 58.68 83.02 57.53 83.09C56.45 83.09 52.78 83.09 48.96 83.02C49.82 84.60 50.69 87.34 50.98 89.06C56.45 89.06 60.05 88.99 62.42 87.98C64.66 86.98 65.38 85.18 65.38 81.79Z"/></svg>
