<svg xmlns="http://www.w3.org/2000/svg" xmlns:xlink="http://www.w3.org/1999/xlink" width="72.00000000000001" height="106.56000000000002"><path fill="red" stroke="red" d="M18.36 23.18C14.69 33.77 8.64 44.21 2.16 50.90C3.31 52.56 5.18 56.16 5.90 57.82C7.70 55.80 9.43 53.57 11.23 51.05L11.23 89.14L17.57 89.14L17.57 40.75C20.23 35.78 22.75 30.46 24.62 25.20ZM56.02 82.30C54.36 82.30 54.00 82.01 54.00 79.99L54.00 62.71L65.66 62.71L65.66 27.79L46.87 27.79L46.87 33.70L59.26 33.70L59.26 42.19L47.38 42.19L47.38 47.88L59.26 47.88L59.26 56.81L32.33 56.81L32.33 47.66L43.49 47.66L43.49 41.98L32.33 41.98L32.33 33.98C36.94 32.47 41.69 30.67 45.58 28.66L40.68 23.90C37.22 26.21 31.25 28.87 26.06 30.60L26.14 30.74L26.14 62.71L34.20 62.71C33.12 72.50 30.67 80.14 19.37 84.24C20.74 85.46 22.54 87.91 23.33 89.50C36.36 84.24 39.67 74.88 40.97 62.71L47.52 62.71L47.52 79.99C47.52 86.40 49.03 88.42 55.08 88.42L62.06 88.42C67.25 88.42 68.90 85.61 69.48 74.81C67.82 74.38 65.02 73.22 63.72 72.14C63.50 81.00 63.14 82.30 61.42 82.30Z"/></svg>
