<svg xmlns="http://www.w3.org/2000/svg" xmlns:xlink="http://www.w3.org/1999/xlink" width="72.00000000000001" height="106.56000000000002"><path fill="red" stroke="red" d="M38.38 40.46L29.23 40.46L29.23 32.76L38.38 32.76ZM38.38 53.35L29.23 53.35L29.23 45.65L38.38 45.65ZM38.38 66.31L29.23 66.31L29.23 58.46L38.38 58.46ZM44.28 27.36L23.62 27.36L23.62 71.71L44.28 71.71ZM16.34 23.40C13.03 34.20 7.49 44.86 1.51 51.84C2.52 53.50 4.25 57.24 4.82 58.90C6.84 56.59 8.71 53.93 10.58 50.98L10.58 89.14L16.92 89.14L16.92 39.31C19.08 34.70 20.95 29.88 22.54 25.13ZM27.43 72.65C25.70 76.68 22.18 82.08 18.79 85.10C20.23 86.04 22.46 87.77 23.62 88.85C26.86 85.61 30.67 80.06 33.05 75.53ZM35.57 75.24C37.87 79.06 40.61 84.24 41.62 87.41L46.73 84.31C45.58 81.22 42.84 76.32 40.39 72.65ZM55.01 30.67L49.10 30.67L49.10 72.94L55.01 72.94ZM60.91 24.12L60.91 81.50C60.91 82.58 60.55 82.87 59.54 82.94C58.54 82.94 55.37 82.94 51.84 82.80C52.78 84.67 53.57 87.48 53.78 89.21C58.90 89.21 62.21 88.99 64.22 87.91C66.24 86.90 67.03 85.03 67.03 81.43L67.03 24.12Z"/></svg>
