<svg xmlns="http://www.w3.org/2000/svg" xmlns:xlink="http://www.w3.org/1999/xlink" width="72.00000000000001" height="106.56000000000002"><path fill="red" stroke="red" d="M49.03 37.22L42.05 37.22L42.05 31.97L49.03 31.97ZM61.63 51.34L54.07 51.34L54.07 42.41L61.63 42.41ZM29.95 42.41L37.01 42.41L37.01 51.34L29.95 51.34ZM49.03 42.41L49.03 51.34L42.05 51.34L42.05 42.41ZM36.43 37.22L24.19 37.22L24.19 56.52L67.61 56.52L67.61 37.22L54.65 37.22L54.65 31.97L68.26 31.97L68.26 26.57L23.47 26.57L23.47 31.97L36.43 31.97ZM58.97 66.89C60.55 64.94 62.64 62.21 64.51 59.26L58.25 57.53C57.10 59.76 54.94 63.07 53.28 65.23ZM16.20 23.47C13.18 34.20 8.06 44.93 2.30 51.91C3.38 53.64 5.18 57.38 5.69 58.97C7.42 56.95 9.00 54.50 10.58 52.06L10.58 89.06L16.92 89.06L16.92 39.82C19.08 35.14 20.95 30.17 22.46 25.27ZM34.06 73.87C31.25 77.83 25.63 81.79 20.30 83.66C21.60 84.82 23.47 87.05 24.48 88.42C30.02 85.97 35.86 80.93 39.17 75.74ZM68.76 72.43L68.76 66.96L48.46 66.96L48.46 57.74L42.26 57.74L42.26 66.96L32.18 66.96L37.01 65.09C36.36 62.86 34.56 59.54 32.90 57.17L27.36 59.18C28.87 61.56 30.46 64.73 31.18 66.96L22.46 66.96L22.46 72.43L42.26 72.43L42.26 89.21L48.46 89.21L48.46 72.43ZM51.19 77.18C55.94 80.64 61.85 85.54 64.66 88.78L68.98 84.60C66.02 81.43 59.98 76.75 55.30 73.58Z"/></svg>
