<svg xmlns="http://www.w3.org/2000/svg" xmlns:xlink="http://www.w3.org/1999/xlink" width="72.00000000000001" height="106.56000000000002"><path fill="red" stroke="red" d="M55.80 37.22L47.09 37.22L47.09 31.46L55.80 31.46ZM55.80 47.59L47.09 47.59L47.09 41.76L55.80 41.76ZM32.18 41.76L40.97 41.76L40.97 47.59L32.18 47.59ZM32.18 31.46L40.97 31.46L40.97 37.22L32.18 37.22ZM62.28 26.64L26.06 26.64L26.06 52.42L62.28 52.42ZM16.34 23.40C13.03 34.13 7.49 44.78 1.51 51.70C2.52 53.35 4.25 57.10 4.90 58.75C6.84 56.45 8.78 53.78 10.58 50.90L10.58 89.14L16.70 89.14L16.70 39.67C18.94 34.99 20.95 30.02 22.54 25.13ZM29.09 61.27L29.09 68.47L24.70 68.47L24.70 61.27ZM37.73 68.47L33.19 68.47L33.19 61.27L37.73 61.27ZM33.19 80.42L33.19 73.08L37.73 73.08L37.73 80.42ZM24.70 80.42L24.70 73.08L29.09 73.08L29.09 80.42ZM20.16 88.34L24.70 88.34L24.70 85.10L37.73 85.10L37.73 87.84L42.41 87.84L42.41 56.52L20.16 56.52ZM58.54 80.42L58.54 73.08L63.07 73.08L63.07 80.42ZM49.90 73.08L54.36 73.08L54.36 80.42L49.90 80.42ZM54.36 61.27L54.36 68.47L49.90 68.47L49.90 61.27ZM63.07 68.47L58.54 68.47L58.54 61.27L63.07 61.27ZM45.36 56.52L45.36 88.34L49.90 88.34L49.90 85.10L63.07 85.10L63.07 87.84L67.82 87.84L67.82 56.52Z"/></svg>
