<svg xmlns="http://www.w3.org/2000/svg" xmlns:xlink="http://www.w3.org/1999/xlink" width="72.00000000000001" height="106.56000000000002"><path fill="red" stroke="red" d="M24.12 72.94C19.73 76.90 10.87 81.65 3.38 84.38C4.97 85.61 7.34 87.84 8.50 89.21C15.84 86.33 24.84 81.43 30.38 76.97ZM41.90 77.26C49.18 80.86 56.95 85.61 61.49 88.92L67.61 84.46C62.64 81.07 54.22 76.46 46.58 72.86ZM16.56 54.65L25.20 54.65L25.20 66.24L16.56 66.24ZM25.20 37.73L25.20 48.46L16.56 48.46L16.56 37.73ZM40.39 37.73L40.39 48.46L31.39 48.46L31.39 37.73ZM55.73 37.73L55.73 48.46L46.80 48.46L46.80 37.73ZM40.39 66.24L31.39 66.24L31.39 54.65L40.39 54.65ZM46.80 54.65L55.73 54.65L55.73 66.24L46.80 66.24ZM62.50 66.24L62.50 31.54L46.80 31.54L46.80 22.90L40.39 22.90L40.39 31.54L31.39 31.54L31.39 22.90L25.20 22.90L25.20 31.54L10.08 31.54L10.08 66.24L2.95 66.24L2.95 72.58L68.98 72.58L68.98 66.24Z"/></svg>
