<svg xmlns="http://www.w3.org/2000/svg" xmlns:xlink="http://www.w3.org/1999/xlink" width="72.00000000000001" height="106.56000000000002"><path fill="red" stroke="red" d="M18.43 44.42C16.78 39.82 12.82 32.26 9.65 26.78L3.60 28.87C6.70 34.63 10.37 42.34 11.88 47.02ZM12.82 58.68C10.15 67.32 6.41 76.97 3.67 82.94L10.08 85.32C12.82 78.48 16.06 69.41 18.50 61.27ZM50.47 64.15L50.47 72.14L38.45 72.14L38.45 64.15ZM55.94 77.04L55.94 59.26L33.19 59.26L33.19 79.99L38.45 79.99L38.45 77.04ZM47.81 49.25L47.81 43.34L60.05 43.34L60.05 49.25ZM29.38 43.34L41.83 43.34L41.83 49.25L29.38 49.25ZM41.83 31.97L41.83 38.09L29.38 38.09L29.38 31.97ZM60.05 38.09L47.81 38.09L47.81 31.97L60.05 31.97ZM66.17 26.35L23.18 26.35L23.18 53.71C23.18 63.94 22.54 76.90 15.77 85.82C17.35 86.54 20.02 88.34 21.10 89.42C28.15 79.99 29.30 65.52 29.38 54.50L60.05 54.50L60.05 81.22C60.05 82.44 59.62 82.87 58.39 82.87C57.24 82.94 53.14 83.02 49.03 82.80C49.90 84.46 50.90 87.26 51.12 88.92C56.88 88.92 60.70 88.85 63.00 87.77C65.38 86.76 66.17 84.89 66.17 81.29Z"/></svg>
