<svg xmlns="http://www.w3.org/2000/svg" xmlns:xlink="http://www.w3.org/1999/xlink" width="72.00000000000001" height="106.56000000000002"><path fill="red" stroke="red" d="M35.71 31.90L35.71 39.60L13.46 39.60L13.46 31.90ZM41.98 45.58L41.98 25.92L7.49 25.92L7.49 49.82C7.49 59.90 7.13 73.73 2.23 83.23C3.67 83.88 6.19 85.90 7.27 86.98C12.60 76.68 13.46 60.70 13.46 49.82L13.46 45.58ZM42.19 53.78L30.74 53.78L30.74 47.02L25.13 47.02L25.13 53.78L14.54 53.78L14.54 81.86L19.58 81.86L19.58 59.33L25.13 59.33L25.13 89.28L30.74 89.28L30.74 59.33L36.79 59.33L36.79 75.24C36.79 75.82 36.65 76.03 36.07 76.03C35.50 76.10 34.06 76.10 32.18 75.96C32.90 77.47 33.70 79.78 33.77 81.36C36.79 81.36 38.81 81.22 40.39 80.28C41.90 79.34 42.19 77.76 42.19 75.31ZM53.71 30.38L47.81 30.38L47.81 71.06L53.71 71.06ZM59.98 24.41L59.98 80.50C59.98 81.72 59.62 82.01 58.46 82.08C57.31 82.08 53.57 82.08 49.75 81.94C50.62 83.81 51.55 86.90 51.77 88.63C57.02 88.63 60.91 88.42 63.14 87.26C65.38 86.26 66.17 84.31 66.17 80.50L66.17 24.41Z"/></svg>
