<svg xmlns="http://www.w3.org/2000/svg" xmlns:xlink="http://www.w3.org/1999/xlink" width="72.00000000000001" height="106.56000000000002"><path fill="red" stroke="red" d="M24.19 74.30L37.73 74.30L37.73 69.41L24.19 69.41L24.19 65.74L37.58 65.74L37.58 44.06L24.19 44.06L24.19 40.32L38.45 40.32L38.45 45.72L46.08 45.72C45.50 58.82 43.70 69.70 37.80 77.83C33.26 78.34 28.66 78.77 24.19 79.20ZM10.66 61.34L10.66 56.95L18.07 56.95L18.07 61.34ZM31.90 56.95L31.90 61.34L24.19 61.34L24.19 56.95ZM24.19 52.85L24.19 48.46L31.90 48.46L31.90 52.85ZM10.66 48.46L18.07 48.46L18.07 52.85L10.66 52.85ZM52.63 39.53C52.70 34.63 52.78 29.45 52.78 24.12L46.37 24.12C46.37 29.52 46.37 34.63 46.30 39.53L38.74 39.53L38.74 35.35L24.19 35.35L24.19 30.74C29.16 30.24 33.91 29.52 37.73 28.73L34.56 23.69C27.07 25.34 14.33 26.64 3.67 27.22C4.32 28.51 5.04 30.67 5.26 32.04C9.29 31.90 13.68 31.68 18.07 31.32L18.07 35.35L3.24 35.35L3.24 40.32L18.07 40.32L18.07 44.06L5.18 44.06L5.18 65.74L18.07 65.74L18.07 69.41L4.97 69.41L4.97 74.30L18.07 74.30L18.07 79.78C12.38 80.28 7.20 80.71 3.02 81.00L3.89 86.69C11.59 85.97 21.96 84.89 32.33 83.66C31.90 84.02 31.46 84.38 31.03 84.67C32.62 85.75 34.85 88.13 35.86 89.64C48.24 80.14 51.48 64.87 52.42 45.72L60.91 45.72C60.34 70.49 59.62 79.63 58.03 81.65C57.31 82.58 56.66 82.80 55.44 82.80C54.14 82.80 51.19 82.80 47.88 82.51C48.89 84.31 49.61 87.05 49.75 88.85C53.14 89.06 56.45 89.06 58.61 88.78C60.84 88.42 62.35 87.84 63.72 85.68C66.02 82.58 66.67 72.36 67.46 42.62C67.46 41.83 67.54 39.53 67.54 39.53Z"/></svg>
