<svg xmlns="http://www.w3.org/2000/svg" xmlns:xlink="http://www.w3.org/1999/xlink" width="72.00000000000001" height="106.56000000000002"><path fill="red" stroke="red" d="M15.05 35.78C21.24 33.98 28.80 31.32 34.85 28.37L29.02 24.05C23.76 27.00 14.90 30.60 8.50 32.54L8.50 63.79C8.50 66.82 6.84 68.47 5.69 69.12C6.70 70.34 7.99 72.86 8.50 74.38C9.94 73.30 12.10 72.36 24.84 68.18C22.68 74.30 17.71 79.99 7.06 84.17C8.42 85.32 10.37 87.84 11.23 89.28C30.60 81.43 33.05 68.54 33.05 55.66L33.05 36.86L26.64 36.86L26.64 55.66C26.64 57.67 26.57 59.69 26.35 61.70L15.05 65.09ZM65.59 30.10L40.03 30.10L40.03 89.21L46.51 89.21L46.51 36.22L59.11 36.22L59.11 68.90C59.11 69.84 58.82 70.13 57.82 70.20C56.81 70.20 53.50 70.20 50.04 70.06C50.98 71.86 52.20 75.02 52.42 76.90C57.10 76.90 60.48 76.68 62.71 75.53C64.94 74.45 65.59 72.29 65.59 69.05Z"/></svg>
