<svg xmlns="http://www.w3.org/2000/svg" xmlns:xlink="http://www.w3.org/1999/xlink" width="72.00000000000001" height="106.56000000000002"><path fill="red" stroke="red" d="M43.78 56.09L43.78 68.18L28.15 68.18L28.15 56.09ZM49.97 74.16L49.97 50.18L22.03 50.18L22.03 79.20L28.15 79.20L28.15 74.16ZM65.30 35.28L34.13 35.28C35.93 31.97 37.80 28.01 39.38 24.34L30.89 22.97C30.02 26.64 28.30 31.39 26.71 35.28L7.06 35.28L7.06 89.14L13.68 89.14L13.68 41.83L58.61 41.83L58.61 80.86C58.61 82.08 58.18 82.44 56.74 82.51C55.37 82.58 50.40 82.58 45.65 82.37C46.66 84.24 47.66 87.34 47.95 89.21C54.43 89.21 58.90 89.06 61.70 88.06C64.37 86.90 65.30 84.82 65.30 80.93Z"/></svg>
