<svg xmlns="http://www.w3.org/2000/svg" xmlns:xlink="http://www.w3.org/1999/xlink" width="72.00000000000001" height="106.56000000000002"><path fill="red" stroke="red" d="M52.78 70.42L52.78 80.35L19.37 80.35L19.37 70.42ZM12.74 89.35L19.37 89.35L19.37 86.18L52.78 86.18L52.78 89.28L59.62 89.28L59.62 64.66L12.74 64.66ZM48.82 44.21C48.67 46.80 48.46 49.82 48.17 52.56L28.58 52.56C29.23 50.11 29.95 47.23 30.67 44.21ZM54.79 52.56C55.08 48.17 55.51 43.13 55.66 38.66L50.83 38.30L49.75 38.66L31.90 38.66C32.47 36.22 32.98 33.70 33.48 31.39L63.50 31.39L63.50 25.63L9.00 25.63L9.00 31.39L26.64 31.39C26.14 33.70 25.56 36.22 25.06 38.66L12.24 38.66L12.24 44.21L23.76 44.21C23.04 47.16 22.25 50.11 21.53 52.56L3.74 52.56L3.74 58.39L68.47 58.39L68.47 52.56Z"/></svg>
