<svg xmlns="http://www.w3.org/2000/svg" xmlns:xlink="http://www.w3.org/1999/xlink" width="72.00000000000001" height="106.56000000000002"><path fill="red" stroke="red" d="M19.08 36.00L19.08 65.09L11.38 65.09L11.38 36.00ZM25.20 71.57L25.20 29.52L5.26 29.52L5.26 77.18L11.38 77.18L11.38 71.57ZM68.54 57.89L68.54 51.48L50.69 51.48L50.69 40.82L65.95 40.82L65.95 34.42L50.69 34.42L50.69 23.62L43.92 23.62L43.92 34.42L30.02 34.42L30.02 40.82L43.92 40.82L43.92 51.48L27.43 51.48L27.43 57.89L41.83 57.89C37.58 66.89 30.38 75.46 22.54 79.78C24.05 81.00 26.06 83.38 27.07 84.96C33.62 80.78 39.46 74.02 43.92 66.17L43.92 89.14L50.69 89.14L50.69 66.31C54.50 73.73 59.40 80.57 64.44 84.96C65.66 83.23 67.82 80.71 69.48 79.49C63.00 74.88 56.74 66.53 52.85 57.89Z"/></svg>
