<svg xmlns="http://www.w3.org/2000/svg" xmlns:xlink="http://www.w3.org/1999/xlink" width="72.00000000000001" height="106.56000000000002"><path fill="red" stroke="red" d="M18.50 37.37L18.50 65.74L11.30 65.74L11.30 37.37ZM24.41 71.86L24.41 31.18L5.40 31.18L5.40 78.48L11.30 78.48L11.30 71.86ZM61.06 56.16C54.36 67.82 40.03 78.34 23.26 83.74C24.48 85.10 26.35 87.70 27.29 89.42C35.86 86.40 43.70 82.22 50.47 77.18C55.15 81.00 60.26 85.46 62.93 88.42L68.18 84.17C65.23 81.14 59.98 76.97 55.30 73.37C60.34 68.98 64.58 64.08 67.97 58.82ZM52.63 31.75C51.98 29.16 50.40 25.56 48.67 22.75L42.12 24.34C43.34 26.57 44.50 29.45 45.22 31.75L26.78 31.75L26.78 37.87L40.97 37.87C38.45 41.69 34.78 46.94 33.41 48.31C32.11 49.68 29.59 50.33 27.94 50.69C28.58 52.13 29.66 55.44 29.95 57.02C31.46 56.52 33.70 56.09 46.73 55.15C40.97 60.41 33.84 64.94 26.21 68.04C27.43 69.34 29.23 71.78 30.02 73.30C43.85 67.25 55.73 56.95 62.71 45.50L56.23 43.27C55.15 45.22 53.86 47.23 52.27 49.18L40.39 49.82C43.06 46.22 46.15 41.54 48.60 37.87L68.26 37.87L68.26 31.75Z"/></svg>
