<svg xmlns="http://www.w3.org/2000/svg" xmlns:xlink="http://www.w3.org/1999/xlink" width="72.00000000000001" height="106.56000000000002"><path fill="red" stroke="red" d="M17.42 35.86L17.42 64.22L11.09 64.22L11.09 35.86ZM22.82 29.66L5.69 29.66L5.69 77.04L11.09 77.04L11.09 70.42L22.82 70.42ZM37.01 62.57C42.26 64.58 49.18 67.61 52.70 69.41L55.73 65.16C52.06 63.29 45.14 60.55 39.96 58.75ZM36.58 57.10L57.10 57.10L57.10 69.19C49.18 71.86 41.26 74.45 35.71 75.96C36.36 72.72 36.58 69.41 36.58 66.46ZM63.50 51.70L30.38 51.70L30.38 66.31C30.38 72.22 29.88 79.42 24.70 84.60C25.99 85.54 28.37 88.06 29.23 89.35C32.54 86.04 34.49 81.79 35.42 77.40L36.94 82.22C42.77 79.99 49.97 77.11 57.10 74.23L57.10 82.22C57.10 83.09 56.81 83.38 55.87 83.45C55.15 83.45 52.27 83.45 49.46 83.30C50.18 84.82 50.98 86.98 51.26 88.56C55.73 88.56 58.82 88.56 60.84 87.70C62.93 86.69 63.50 85.32 63.50 82.30ZM51.26 41.40L51.26 35.42L63.79 35.42L63.79 30.02L51.26 30.02L51.26 23.11L45.07 23.11L45.07 41.40L38.09 41.40L38.09 27.43L32.04 27.43L32.04 41.40L25.27 41.40L25.27 47.09L68.90 47.09L68.90 41.40Z"/></svg>
