<svg xmlns="http://www.w3.org/2000/svg" xmlns:xlink="http://www.w3.org/1999/xlink" width="72.00000000000001" height="106.56000000000002"><path fill="red" stroke="red" d="M17.35 65.09L10.58 65.09L10.58 36.00L17.35 36.00ZM8.93 29.52L4.90 29.59L4.90 77.18L10.58 77.18L10.58 71.50L22.97 71.50L22.97 29.52L8.93 29.52ZM58.68 74.88L58.68 69.91L50.18 69.91L50.18 64.73L57.74 64.73L57.74 59.83L52.85 59.83C54.43 57.24 56.09 54.07 57.67 51.19L52.27 49.61C51.41 52.63 49.46 56.74 47.88 59.83L41.26 59.83L45.79 58.03C45.07 55.80 43.42 52.42 42.05 49.82L37.51 51.34C38.81 54.07 40.39 57.53 41.04 59.83L36.43 59.83L36.43 64.73L44.35 64.73L44.35 69.91L35.57 69.91L35.57 74.88L44.35 74.88L44.35 85.82L50.18 85.82L50.18 74.88ZM69.05 36.58L69.05 30.67L50.69 30.67C50.98 28.37 51.26 25.92 51.55 23.76L44.78 23.04C44.71 25.34 44.50 28.01 44.28 30.67L25.85 30.67L25.85 36.58L43.70 36.58C43.42 39.10 43.13 41.47 42.77 43.56L27.58 43.56L27.58 89.06L33.70 89.06L33.70 49.25L61.20 49.25L61.20 82.22C61.20 83.09 60.91 83.30 60.12 83.30C59.47 83.30 57.02 83.30 54.50 83.23C55.30 84.82 56.16 87.48 56.38 89.14C60.34 89.14 63.07 88.99 65.02 87.98C66.89 87.05 67.46 85.25 67.46 82.30L67.46 43.56L48.74 43.56C49.10 41.47 49.46 39.10 49.82 36.58Z"/></svg>
