<svg xmlns="http://www.w3.org/2000/svg" xmlns:xlink="http://www.w3.org/1999/xlink" width="72.00000000000001" height="106.56000000000002"><path fill="red" stroke="red" d="M61.27 36.43L61.27 41.26L32.54 41.26L32.54 36.43ZM32.04 46.73L61.34 46.73L61.34 43.34L67.68 43.34L67.68 30.74L50.18 30.74C49.68 28.37 48.46 25.20 47.16 22.68L41.47 24.34C42.34 26.28 43.13 28.73 43.70 30.74L26.42 30.74L26.42 43.34L32.04 43.34ZM36.50 66.38L55.87 66.38L55.87 72.00L36.50 72.00ZM36.50 56.09L55.87 56.09L55.87 61.63L36.50 61.63ZM30.38 77.04L62.35 77.04L62.35 51.05L30.38 51.05ZM17.78 35.86L17.78 64.22L11.16 64.22L11.16 35.86ZM23.90 29.66L5.04 29.66L5.04 77.04L11.16 77.04L11.16 70.42L23.90 70.42ZM24.26 81.58L24.26 87.70L68.76 87.70L68.76 81.58Z"/></svg>
