<svg xmlns="http://www.w3.org/2000/svg" xmlns:xlink="http://www.w3.org/1999/xlink" width="72.00000000000001" height="106.56000000000002"><path fill="red" stroke="red" d="M56.95 35.71L44.71 35.71L44.71 30.17L56.95 30.17ZM63.29 25.85L38.66 25.85L38.66 39.96L63.29 39.96ZM27.22 35.71L15.19 35.71L15.19 30.17L27.22 30.17ZM33.62 25.85L9.22 25.85L9.22 39.96L33.62 39.96ZM17.93 63.72L17.93 58.54L32.33 58.54L32.33 63.72ZM17.93 48.53L32.33 48.53L32.33 53.57L17.93 53.57ZM54.50 53.57L39.17 53.57L39.17 48.53L54.50 48.53ZM54.50 63.72L39.17 63.72L39.17 58.54L54.50 58.54ZM67.82 73.73L39.17 73.73L39.17 69.05L61.34 69.05L61.34 43.20L11.38 43.20L11.38 69.05L32.33 69.05L32.33 73.73L4.39 73.73L4.39 79.56L32.33 79.56L32.33 89.14L39.17 89.14L39.17 79.56L67.82 79.56Z"/></svg>
