<svg xmlns="http://www.w3.org/2000/svg" xmlns:xlink="http://www.w3.org/1999/xlink" width="72.00000000000001" height="106.56000000000002"><path fill="red" stroke="red" d="M14.98 34.99L14.98 65.09L10.30 65.09L10.30 34.99ZM19.94 70.34L19.94 29.66L5.33 29.66L5.33 77.04L10.30 77.04L10.30 70.34ZM59.18 84.24C58.68 82.51 57.17 79.78 55.73 77.69L57.38 77.69L57.38 68.62L48.02 68.62L48.02 66.38L61.78 66.38C61.34 78.84 60.91 83.23 60.12 84.38C59.69 85.03 59.33 85.18 58.68 85.10C58.25 85.18 57.60 85.10 56.81 85.10ZM48.02 80.42L48.02 77.69L54.58 77.69L51.70 78.55C51.98 79.13 52.34 79.63 52.70 80.21ZM48.02 71.50L52.99 71.50L52.99 74.74L48.02 74.74ZM38.52 74.74L38.52 71.50L43.20 71.50L43.20 74.74ZM43.20 66.38L43.20 68.62L36.50 68.62C37.22 67.90 37.94 67.18 38.59 66.38ZM59.90 29.30L59.90 32.90L29.95 32.90L29.95 29.30ZM38.38 53.28L42.98 53.28L42.98 56.81L38.38 56.81ZM47.30 53.28L52.27 53.28L52.27 56.81L47.30 56.81ZM56.59 53.28L61.70 53.28L61.70 56.81L56.59 56.81ZM41.76 62.35C42.26 61.56 42.70 60.84 43.20 60.05L66.89 60.05L66.89 50.04L33.34 50.04L33.34 60.05L37.37 60.05C35.14 63.43 31.82 66.60 28.51 68.98C29.66 62.93 29.95 56.74 29.95 51.48L29.95 37.22L66.31 37.22L66.31 24.91L23.90 24.91L23.90 51.41C23.90 62.21 23.11 76.10 14.62 85.61C16.06 86.18 18.58 87.84 19.66 88.85C24.19 83.81 26.71 77.40 28.22 70.78C29.16 71.71 30.31 72.86 30.82 73.58C31.90 72.79 33.12 71.86 34.20 70.85L34.20 77.69L43.20 77.69L43.20 80.64C38.45 80.86 34.13 81.00 30.74 81.14L31.54 85.25C37.80 84.89 46.15 84.38 54.50 83.81C54.79 84.53 55.01 85.10 55.15 85.68L55.66 85.54C56.16 86.62 56.59 88.06 56.66 89.06C58.46 89.14 60.26 89.14 61.42 88.92C63.00 88.85 64.08 88.34 65.09 87.12C66.38 85.39 66.89 80.06 67.32 64.44C67.39 63.79 67.39 62.35 67.39 62.35ZM66.31 46.30C63.43 45.29 58.54 44.21 54.14 43.78L52.99 46.80C57.17 47.38 62.06 48.53 64.94 49.61ZM64.22 37.44C61.49 38.45 56.59 40.32 53.50 40.97L55.08 43.56C58.25 43.13 62.93 42.05 66.24 40.68ZM52.06 49.10L52.06 38.02L47.16 38.02L47.16 49.10ZM33.91 49.90C37.30 49.03 41.54 47.88 45.65 46.80L45.50 43.56L43.99 43.85L45.50 40.68C42.84 39.74 38.16 38.52 34.78 37.94L33.19 40.82C36.65 41.62 41.26 42.98 43.78 43.92C39.60 44.78 35.50 45.65 32.62 46.15Z"/></svg>
