<svg xmlns="http://www.w3.org/2000/svg" xmlns:xlink="http://www.w3.org/1999/xlink" width="72.00000000000001" height="106.56000000000002"><path fill="red" stroke="red" d="M32.26 64.51L39.24 64.51L39.24 67.90L32.26 67.90ZM28.37 71.06L43.27 71.06L43.27 61.34L28.37 61.34ZM24.55 58.75L47.09 58.75L47.09 73.73L24.55 73.73ZM19.37 77.69L52.56 77.69L52.56 54.86L19.37 54.86ZM27.14 37.94L44.50 37.94L44.50 41.83L27.14 41.83ZM38.59 48.31L38.59 45.50L50.18 45.50L50.18 34.27L21.67 34.27L21.67 45.50L32.90 45.50L32.90 48.31L15.12 48.31L15.12 52.20L57.02 52.20L57.02 48.31ZM12.24 80.93L12.24 31.39L59.76 31.39L59.76 80.93ZM5.98 25.78L5.98 89.14L12.24 89.14L12.24 86.47L59.76 86.47L59.76 89.14L66.24 89.14L66.24 25.78Z"/></svg>
