<svg xmlns="http://www.w3.org/2000/svg" xmlns:xlink="http://www.w3.org/1999/xlink" width="72.00000000000001" height="106.56000000000002"><path fill="red" stroke="red" d="M49.03 42.19L43.20 42.19L43.20 37.58L49.03 37.58ZM38.74 42.19L32.98 42.19L32.98 37.58L38.74 37.58ZM28.51 42.19L22.97 42.19L22.97 37.58L28.51 37.58ZM53.64 34.27L18.58 34.27L18.58 45.50L53.64 45.50ZM15.48 51.91L56.23 51.91L56.23 47.88L15.48 47.88ZM25.85 61.27L25.85 57.60L46.22 57.60L46.22 61.27ZM24.77 81.07C26.06 80.35 28.80 79.49 39.74 76.46C39.53 75.60 39.24 73.94 39.17 72.79L29.95 75.17L29.95 69.84C33.12 68.26 36.00 66.46 38.23 64.58L51.41 64.58C49.61 65.95 47.16 67.61 44.93 69.05C42.98 67.90 41.18 66.74 39.46 65.88L36.58 68.98C42.26 72.22 49.61 76.97 53.42 79.78L56.38 76.25C54.43 74.88 51.55 73.08 48.53 71.14C50.98 69.91 53.71 68.18 55.87 66.38L52.06 64.08L51.91 64.22L51.91 54.29L20.52 54.29L20.52 64.58L32.18 64.58C27.58 67.25 20.81 69.41 14.62 70.34C15.48 71.28 16.78 72.94 17.42 74.09C20.02 73.51 22.75 72.72 25.34 71.78L25.34 73.22C25.34 75.96 23.62 77.04 22.46 77.54C23.11 78.34 23.90 79.99 24.19 81.07L12.24 81.07L12.24 31.39L59.54 31.39L59.54 81.07ZM5.83 25.85L5.83 89.14L12.24 89.14L12.24 86.69L59.54 86.69L59.54 89.14L66.24 89.14L66.24 25.85Z"/></svg>
