<svg xmlns="http://www.w3.org/2000/svg" xmlns:xlink="http://www.w3.org/1999/xlink" width="72.00000000000001" height="106.56000000000002"><path fill="red" stroke="red" d="M31.18 50.62C28.94 47.45 24.26 42.70 20.30 38.95C21.67 35.35 22.75 31.46 23.62 27.36L16.78 26.28C14.69 38.02 10.08 47.95 2.74 54.00C4.25 55.08 6.91 57.38 8.06 58.68C11.95 55.08 15.19 50.47 17.78 45.07C21.24 48.67 24.77 52.78 26.64 55.51ZM39.31 68.11L63.14 68.11L63.14 61.78L39.31 61.78L39.31 53.50C40.75 54.72 42.48 56.30 43.27 57.17C46.73 54.07 49.68 50.18 52.13 45.72C56.59 50.04 61.20 55.08 63.58 58.46L68.33 53.57C65.45 49.90 59.76 44.28 55.01 39.82C56.45 36.07 57.74 31.97 58.68 27.72L51.91 26.57C49.90 36.94 45.79 45.79 39.31 51.48L39.31 24.05L32.40 24.05L32.40 61.78L9.14 61.78L9.14 68.11L32.40 68.11L32.40 80.14L3.96 80.14L3.96 86.54L68.26 86.54L68.26 80.14L39.31 80.14Z"/></svg>
