<svg xmlns="http://www.w3.org/2000/svg" xmlns:xlink="http://www.w3.org/1999/xlink" width="72.00000000000001" height="106.56000000000002"><path fill="red" stroke="red" d="M25.85 65.23L17.93 68.11L17.93 46.73L25.56 46.73L25.56 40.39L17.93 40.39L17.93 24.05L11.66 24.05L11.66 40.39L3.46 40.39L3.46 46.73L11.66 46.73L11.66 70.42C8.28 71.57 5.18 72.65 2.74 73.44L4.90 80.28C11.30 77.69 19.51 74.45 27.07 71.35ZM34.13 60.05L34.13 54.22L43.78 54.22L43.78 57.82C43.78 58.61 43.78 59.26 43.78 60.05ZM34.13 43.56L43.78 43.56L43.78 49.25L34.13 49.25ZM60.26 43.56L60.26 49.25L50.11 49.25L50.11 43.56ZM60.26 60.05L50.11 60.05C50.11 59.33 50.11 58.61 50.11 57.89L50.11 54.22L60.26 54.22ZM66.53 65.30L66.53 38.30L50.11 38.30L50.11 33.19L68.33 33.19L68.33 27.50L26.42 27.50L26.42 33.19L43.78 33.19L43.78 38.30L28.08 38.30L28.08 65.30L43.20 65.30C42.70 68.26 41.62 71.06 39.74 73.66C37.37 71.57 35.57 69.19 34.13 66.46L28.22 68.04C30.10 71.86 32.54 75.10 35.42 77.83C31.90 80.50 26.78 82.58 19.66 84.17C21.02 85.46 22.75 88.06 23.47 89.42C31.10 87.55 36.58 84.89 40.54 81.79C47.02 85.90 55.30 88.27 65.74 89.42C66.60 87.62 68.33 84.82 69.70 83.38C59.54 82.58 51.26 80.71 45.00 77.26C47.66 73.66 48.96 69.55 49.61 65.30Z"/></svg>
