<svg xmlns="http://www.w3.org/2000/svg" xmlns:xlink="http://www.w3.org/1999/xlink" width="72.00000000000001" height="106.56000000000002"><path fill="red" stroke="red" d="M35.06 30.53L57.60 30.53L57.60 49.39L63.94 49.39L63.94 25.49L29.02 25.49L29.02 49.39L35.06 49.39ZM55.22 34.34L37.58 34.34L37.58 38.66L55.22 38.66ZM37.58 46.80L55.22 46.80L55.22 42.48L37.58 42.48ZM25.42 65.38L18.00 68.04L18.00 46.73L25.49 46.73L25.49 40.39L18.00 40.39L18.00 24.05L11.81 24.05L11.81 40.39L3.89 40.39L3.89 46.73L11.81 46.73L11.81 70.27C8.35 71.50 5.26 72.58 2.74 73.37L4.90 80.21C11.23 77.76 19.22 74.59 26.71 71.42ZM35.93 69.34C35.06 66.82 32.83 63.00 30.60 60.12L26.06 61.78C28.08 64.73 30.31 68.69 31.03 71.21ZM45.07 52.99L25.92 52.99L25.92 58.32L39.60 58.32L39.60 69.77C33.48 72.79 27.43 75.82 23.26 77.62L25.70 82.37C29.81 80.28 34.78 77.76 39.60 75.10L39.60 82.73C39.60 83.52 39.38 83.81 38.52 83.81C37.66 83.88 34.99 83.88 32.04 83.74C32.76 85.25 33.41 87.41 33.55 88.92C37.87 88.92 40.82 88.85 42.70 87.91C44.50 87.05 45.07 85.61 45.07 82.80ZM67.03 52.99L47.38 52.99L47.38 58.32L61.34 58.32L61.34 69.34C55.58 72.22 49.82 75.02 45.86 76.82L48.53 81.65C52.34 79.63 56.88 77.18 61.34 74.74L61.34 82.80C61.34 83.66 61.06 83.88 60.12 83.95C59.40 84.02 56.59 84.02 53.50 83.88C54.22 85.32 55.08 87.48 55.30 89.06C59.69 89.06 62.64 88.99 64.51 88.06C66.46 87.19 67.03 85.75 67.03 82.87ZM47.88 61.63C50.04 64.51 52.42 68.47 53.28 70.99L58.10 69.05C57.10 66.53 54.72 62.71 52.42 59.98Z"/></svg>
