<svg xmlns="http://www.w3.org/2000/svg" xmlns:xlink="http://www.w3.org/1999/xlink" width="72.00000000000001" height="106.56000000000002"><path fill="red" stroke="red" d="M21.17 30.46C19.01 28.37 14.54 25.49 11.09 23.69L7.27 27.86C10.73 29.88 15.12 32.98 17.21 35.14ZM17.28 42.55C15.05 40.46 10.51 37.66 6.98 35.86L3.31 40.10C6.91 42.12 11.38 45.14 13.46 47.38ZM9.72 69.26C13.25 64.66 17.14 59.04 20.38 53.86L16.42 49.75C12.67 55.30 8.14 61.34 5.04 64.87ZM29.88 53.21C27.58 56.30 23.54 59.90 19.58 62.14C20.81 63.14 22.68 64.87 23.62 66.10C27.79 63.50 32.26 59.62 35.14 55.66ZM40.03 76.39L61.99 76.39L61.99 71.14L40.03 71.14L40.03 67.54L33.41 67.54L33.41 71.14L11.09 71.14L11.09 76.39L33.41 76.39L33.41 82.15L3.60 82.15L3.60 87.48L68.40 87.48L68.40 82.15L40.03 82.15ZM65.95 62.14C63.29 59.62 58.25 55.58 54.43 52.85L50.11 56.09C54.00 58.97 59.04 63.14 61.49 65.81ZM32.54 37.15C36.00 35.06 39.24 32.69 42.05 30.02C45.00 32.62 48.67 35.14 52.56 37.15ZM41.47 22.39C36.43 29.09 26.71 34.63 17.57 37.51C19.01 38.88 20.59 40.97 21.46 42.55C24.12 41.54 26.78 40.32 29.30 39.02L29.30 41.98L39.38 41.98L39.38 46.44L22.18 46.44L22.18 51.55L39.38 51.55L39.38 66.10L45.65 66.10L45.65 51.55L63.36 51.55L63.36 46.44L45.65 46.44L45.65 41.98L55.87 41.98L55.87 38.81C58.82 40.10 61.92 41.26 65.02 42.05C65.88 40.39 67.82 37.87 69.26 36.50C60.41 34.85 50.76 30.82 45.50 26.28C45.94 25.78 46.37 25.27 46.80 24.77Z"/></svg>
