<svg xmlns="http://www.w3.org/2000/svg" xmlns:xlink="http://www.w3.org/1999/xlink" width="72.00000000000001" height="106.56000000000002"><path fill="red" stroke="red" d="M17.35 64.80L17.35 46.08L23.90 46.08L23.90 40.03L17.35 40.03L17.35 24.05L11.23 24.05L11.23 40.03L3.74 40.03L3.74 46.08L11.23 46.08L11.23 67.39C7.92 68.76 4.90 69.91 2.45 70.85L4.90 77.11C10.80 74.45 18.36 70.92 25.34 67.46L23.98 61.85ZM50.33 67.18L50.33 74.81L41.98 74.81L41.98 67.18ZM55.08 78.91L55.08 63.07L37.22 63.07L37.22 81.79L41.98 81.79L41.98 78.91ZM32.04 51.12L39.38 51.12C38.88 55.66 37.15 58.25 32.04 59.76ZM38.16 45.79L42.19 44.64C41.62 42.26 39.82 38.59 38.09 35.86L32.62 37.30C34.06 39.96 35.64 43.42 36.29 45.79L26.21 45.79L26.21 89.21L32.04 89.21L32.04 60.62C32.90 61.63 33.84 62.93 34.20 63.86C41.40 61.63 43.70 57.74 44.42 51.12L48.10 51.12L48.10 55.51C48.10 59.47 48.82 61.27 52.63 61.27L55.94 61.27C57.02 61.27 58.32 61.20 58.97 60.91C58.75 59.76 58.75 58.46 58.68 57.24C57.96 57.46 56.59 57.53 55.87 57.53L53.86 57.53C52.92 57.53 52.85 57.02 52.85 55.58L52.85 51.12L60.34 51.12L60.34 82.37C60.34 83.16 60.05 83.45 59.26 83.45C58.46 83.52 55.94 83.52 53.35 83.38C54.07 84.82 54.79 87.26 55.01 88.78C59.18 88.78 61.92 88.70 63.86 87.77C65.74 86.90 66.24 85.32 66.24 82.44L66.24 45.79L55.15 45.79C56.66 43.20 58.32 39.96 59.69 36.86L52.92 35.64C52.13 38.59 50.47 42.77 49.03 45.79ZM68.11 30.24L50.04 30.24C49.03 28.15 47.38 25.34 45.94 23.26L40.03 25.34C40.97 26.78 41.90 28.51 42.77 30.24L24.70 30.24L24.70 35.64L68.11 35.64Z"/></svg>
