<svg xmlns="http://www.w3.org/2000/svg" xmlns:xlink="http://www.w3.org/1999/xlink" width="72.00000000000001" height="106.56000000000002"><path fill="red" stroke="red" d="M18.14 70.49C15.19 75.46 10.15 80.35 5.18 83.52C6.70 84.53 9.22 86.62 10.51 87.77C15.48 84.10 21.02 78.26 24.48 72.43ZM61.70 67.10L61.70 61.27L10.37 61.27L10.37 67.10L32.69 67.10L32.69 89.28L39.60 89.28L39.60 67.10ZM46.94 73.58C51.77 77.76 57.67 83.66 60.34 87.48L66.17 83.95C63.14 80.14 57.10 74.52 52.34 70.49ZM22.61 48.24C25.85 45.07 28.58 41.62 30.96 38.02L41.26 38.02C43.56 41.69 46.37 45.14 49.61 48.24ZM67.10 38.02L67.10 31.97L34.34 31.97C35.57 29.38 36.65 26.71 37.51 24.05L30.17 23.11C29.38 26.06 28.15 29.02 26.71 31.97L4.97 31.97L4.97 38.02L22.90 38.02C18.22 44.21 11.59 49.82 2.38 54.00C3.96 55.08 6.05 57.53 6.98 59.18C12.53 56.38 17.28 53.06 21.31 49.46L21.31 54.00L50.69 54.00L50.69 49.25C55.08 53.28 60.05 56.66 65.16 58.90C66.17 57.24 68.18 54.65 69.70 53.35C61.56 50.33 53.50 44.57 48.38 38.02Z"/></svg>
