<svg xmlns="http://www.w3.org/2000/svg" xmlns:xlink="http://www.w3.org/1999/xlink" width="72.00000000000001" height="106.56000000000002"><path fill="red" stroke="red" d="M26.06 37.30C26.06 43.34 24.62 51.48 10.73 57.02C12.24 58.18 14.33 60.55 15.26 62.14C30.74 55.37 32.54 45.22 32.54 37.44L32.54 35.64L41.76 35.64L41.76 60.70L48.17 60.70L48.17 35.64L67.75 35.64L67.75 29.95L40.97 29.95C40.03 27.86 38.38 24.84 37.01 22.75L30.53 24.34C31.46 25.99 32.62 28.15 33.48 29.95L4.25 29.95L4.25 35.64L26.06 35.64ZM50.11 40.68C54.14 44.71 58.75 50.47 60.70 54.07L66.46 51.26C64.30 47.45 59.62 42.05 55.51 38.16ZM14.40 37.87C12.02 41.90 8.06 46.01 4.03 48.74C5.47 49.61 7.85 51.55 9.00 52.63C12.96 49.46 17.42 44.35 20.38 39.67ZM67.97 71.35L67.97 65.45L38.38 65.45C38.81 63.43 39.17 61.34 39.46 59.04L32.62 59.04C32.33 61.34 31.97 63.43 31.54 65.45L4.25 65.45L4.25 71.35L29.30 71.35C25.85 77.54 18.86 81.58 3.38 83.74C4.54 85.10 6.05 87.62 6.55 89.28C25.13 86.26 32.98 80.35 36.65 71.35ZM36.94 76.25C45.94 80.06 58.61 85.82 64.87 89.21L68.40 83.66C61.85 80.35 49.03 74.95 40.25 71.50Z"/></svg>
