<svg xmlns="http://www.w3.org/2000/svg" xmlns:xlink="http://www.w3.org/1999/xlink" width="72.00000000000001" height="106.56000000000002"><path fill="red" stroke="red" d="M68.83 54.07C66.60 49.54 61.99 42.41 58.10 36.94L52.63 39.53C54.07 41.62 55.73 44.06 57.17 46.51L40.25 47.52C43.06 43.34 46.87 37.15 49.54 32.90L68.11 32.90L68.11 26.78L29.23 26.78L29.23 32.90L41.98 32.90C39.24 37.37 34.49 44.93 33.05 46.44C31.75 47.74 30.17 48.17 28.94 48.46C29.38 49.97 30.24 53.35 30.53 55.01C32.76 54.22 35.93 53.86 60.48 51.98C61.56 53.86 62.50 55.58 63.14 57.10ZM20.74 44.71C20.52 50.98 19.73 58.25 16.92 65.52C15.05 63.65 13.03 61.78 11.23 60.12C12.17 55.73 13.10 50.54 14.04 45.14ZM28.44 77.83C26.78 75.60 24.41 73.01 21.67 70.20C25.49 61.27 26.50 52.06 26.71 44.35L30.17 44.06L30.24 38.38L26.78 38.59L26.78 33.19L20.81 33.19L20.81 38.88L14.90 39.24C15.62 33.84 16.27 28.44 16.63 23.69L10.37 23.40C10.08 28.30 9.43 33.98 8.64 39.53L2.74 39.82L3.46 45.79L7.78 45.50C6.77 51.77 5.54 57.67 4.46 62.06C7.49 64.94 10.87 68.26 14.11 71.57C11.52 76.10 7.85 80.64 2.81 84.67C4.25 85.54 6.41 87.70 7.42 88.99C12.17 85.10 15.77 80.78 18.58 76.25C20.66 78.70 22.54 81.00 23.90 82.87ZM51.26 81.00L51.26 69.77L66.46 69.77L66.46 63.65L51.26 63.65L51.26 55.15L44.78 55.15L44.78 63.65L30.24 63.65L30.24 69.77L44.78 69.77L44.78 81.00L26.78 81.00L26.78 87.05L69.19 87.05L69.19 81.00Z"/></svg>
