<svg xmlns="http://www.w3.org/2000/svg" xmlns:xlink="http://www.w3.org/1999/xlink" width="72.00000000000001" height="106.56000000000002"><path fill="red" stroke="red" d="M21.10 44.06C21.10 50.47 20.52 58.18 17.57 65.74C15.48 63.79 13.25 61.85 11.16 60.05C12.38 55.44 13.54 50.04 14.62 44.50ZM27.14 33.26L21.10 33.26L21.10 38.30L15.70 38.59C16.49 33.48 17.28 28.37 17.78 23.83L11.59 23.47C11.16 28.22 10.44 33.55 9.65 38.88L2.74 39.17L3.31 45.22L8.50 44.86C7.27 51.34 5.83 57.46 4.46 62.06C7.70 64.87 11.38 68.26 14.76 71.57C11.95 76.18 7.99 80.71 2.38 84.60C3.74 85.61 5.90 87.70 6.84 89.14C12.38 85.18 16.34 80.78 19.37 76.18C21.53 78.48 23.40 80.71 24.84 82.51L29.16 77.47C27.50 75.38 25.13 72.94 22.46 70.27C26.50 61.06 27.14 51.55 27.14 43.63L30.31 43.42L30.31 37.80L27.14 37.94ZM38.02 32.47L50.04 32.47L50.04 44.06L41.98 44.06L41.98 67.25L50.47 67.25L50.47 79.92L38.02 79.92ZM58.90 62.14L47.59 62.14L47.59 49.18L58.90 49.18ZM56.52 79.92L56.52 67.25L64.73 67.25L64.73 44.06L56.09 44.06L56.09 32.47L67.46 32.47L67.46 26.64L31.68 26.64L31.68 85.75L68.62 85.75L68.62 79.92Z"/></svg>
