<svg xmlns="http://www.w3.org/2000/svg" xmlns:xlink="http://www.w3.org/1999/xlink" width="72.00000000000001" height="106.56000000000002"><path fill="red" stroke="red" d="M44.21 48.10L28.37 48.10L28.37 54.36L67.75 54.36L67.75 48.10L50.90 48.10L50.90 38.59L65.09 38.59L65.09 32.33L50.90 32.33L50.90 23.47L44.21 23.47L44.21 32.33L30.74 32.33L30.74 38.59L44.21 38.59ZM20.09 44.14C20.02 50.33 19.37 57.53 16.85 64.87C14.90 63.14 13.03 61.42 11.16 59.98C12.10 55.37 13.18 50.04 14.11 44.57ZM50.90 80.21L50.90 69.70L66.31 69.70L66.31 63.43L50.90 63.43L50.90 56.38L44.21 56.38L44.21 63.43L29.59 63.43L29.59 69.70L44.21 69.70L44.21 80.21L24.91 80.21L28.30 75.96C26.71 74.09 24.48 71.64 21.82 69.26C25.27 60.41 25.99 51.34 26.06 43.78L29.88 43.49L29.88 37.80L26.06 38.02L26.06 33.19L20.09 33.19L20.09 38.38L14.98 38.59C15.62 33.48 16.27 28.37 16.70 23.76L10.51 23.40C10.22 28.15 9.65 33.55 8.86 38.88L2.66 39.17L3.31 45.22L7.99 44.93C6.91 51.41 5.62 57.46 4.46 62.06C7.56 64.66 11.02 67.68 14.26 70.78C11.66 75.60 7.99 80.42 2.59 84.67C4.10 85.54 6.26 87.70 7.27 89.06C12.46 84.89 16.27 80.21 18.94 75.24C21.10 77.40 22.82 79.42 24.19 81.14L24.62 80.50L24.62 86.62L68.98 86.62L68.98 80.21Z"/></svg>
