<svg xmlns="http://www.w3.org/2000/svg" xmlns:xlink="http://www.w3.org/1999/xlink" width="72.00000000000001" height="106.56000000000002"><path fill="red" stroke="red" d="M18.86 43.85C18.65 50.47 17.86 58.18 14.90 65.88C13.25 64.15 11.52 62.57 9.94 60.91C11.02 56.09 12.17 50.26 13.18 44.28ZM26.71 43.34L26.64 37.58L24.41 37.73L24.41 33.19L18.94 33.19L18.94 38.02L14.11 38.30C14.83 33.12 15.41 28.08 15.84 23.47L10.22 23.26C9.94 28.01 9.29 33.34 8.50 38.59L2.74 38.81L3.38 45.00L7.63 44.71C6.55 51.41 5.18 57.74 4.03 62.50C6.62 65.16 9.65 68.26 12.46 71.28C10.01 75.96 6.62 80.57 1.94 84.67C3.31 85.54 5.26 87.41 6.19 88.70C10.66 84.67 14.04 80.35 16.56 75.82C18.79 78.41 20.74 80.86 22.18 82.80L26.21 78.34C24.55 76.10 22.03 73.30 19.22 70.34C23.11 61.06 24.12 51.55 24.34 43.56ZM51.48 71.93L51.48 76.82L43.49 76.82L43.49 71.93ZM56.16 80.78L56.16 67.97L38.95 67.97L38.95 83.52L43.49 83.52L43.49 80.78ZM66.31 59.83L28.94 59.83L28.94 89.21L34.85 89.21L34.85 64.94L60.34 64.94L60.34 83.59C60.34 84.24 60.12 84.46 59.40 84.46C58.75 84.46 56.59 84.53 54.36 84.46C55.08 85.75 55.94 87.77 56.30 89.28C59.90 89.28 62.35 89.21 64.15 88.42C65.88 87.55 66.31 86.26 66.31 83.59ZM53.42 52.63L40.97 52.63L40.97 48.46L53.42 48.46ZM51.05 39.96C51.84 41.33 52.85 42.77 54.00 44.06L41.47 44.06C42.62 42.77 43.56 41.40 44.50 39.96ZM67.90 39.96L67.90 34.92L47.23 34.92C47.88 33.34 48.46 31.75 48.96 30.10C54.86 29.38 60.41 28.51 64.66 27.22L59.98 23.18C53.14 25.13 40.03 26.35 29.23 26.78C29.88 28.01 30.53 30.02 30.67 31.39C34.49 31.25 38.52 31.03 42.55 30.74C42.12 32.18 41.47 33.55 40.82 34.92L27.86 34.92L27.86 39.96L37.66 39.96C34.34 44.14 29.88 47.66 24.19 50.04C25.42 50.90 27.14 52.99 28.01 54.22C30.82 52.99 33.41 51.41 35.71 49.68L35.71 57.02L59.04 57.02L59.04 49.32C61.13 51.05 63.50 52.63 65.81 53.78C66.74 52.34 68.54 50.18 69.84 49.03C65.02 47.23 60.19 43.70 56.88 39.96Z"/></svg>
