<svg xmlns="http://www.w3.org/2000/svg" xmlns:xlink="http://www.w3.org/1999/xlink" width="72.00000000000001" height="106.56000000000002"><path fill="red" stroke="red" d="M33.41 53.86C33.41 54.86 33.12 55.15 31.75 55.22C30.53 55.30 26.14 55.30 21.74 55.15C22.82 56.66 24.19 59.18 24.84 60.98C30.24 60.98 34.13 60.98 36.86 59.98C39.60 59.04 40.46 57.53 40.46 54.07L40.46 47.45L64.94 47.45L64.94 41.76L40.46 41.76L40.46 39.82C47.16 36.79 54.22 32.76 59.26 28.58L54.94 25.20L53.64 25.56L15.55 25.56L15.55 31.39L45.65 31.39C41.90 33.55 37.44 35.71 33.41 37.08L33.41 41.76L6.41 41.76L6.41 47.45L33.41 47.45ZM16.99 69.05L25.63 69.05L25.63 81.36L16.99 81.36ZM40.46 69.05L40.46 81.36L31.75 81.36L31.75 69.05ZM55.44 69.05L55.44 81.36L46.58 81.36L46.58 69.05ZM61.92 81.36L61.92 63.36L10.73 63.36L10.73 81.36L3.53 81.36L3.53 87.41L68.40 87.41L68.40 81.36Z"/></svg>
