<svg xmlns="http://www.w3.org/2000/svg" xmlns:xlink="http://www.w3.org/1999/xlink" width="72.00000000000001" height="106.56000000000002"><path fill="red" stroke="red" d="M9.43 47.88L32.76 47.88L32.76 41.98L11.74 41.98L11.74 35.28L59.69 35.28L59.69 41.54L66.46 41.54L66.46 29.23L41.26 29.23C40.39 27.22 39.02 24.48 37.87 22.54L30.67 23.98C31.39 25.56 32.26 27.50 32.98 29.23L5.26 29.23L5.26 42.19L9.43 42.19ZM59.76 53.57L58.61 53.78L49.39 53.78L49.39 49.03L63.14 49.03L63.14 43.78L49.39 43.78L49.39 38.74L43.20 38.74L43.20 53.78L36.94 53.78L36.94 59.33L55.44 59.33C54.00 62.14 51.98 64.58 49.75 66.67C46.44 64.58 42.91 62.42 39.89 60.77L36.50 65.02C39.24 66.53 42.26 68.47 45.14 70.42C41.69 72.79 37.73 74.59 33.55 75.89C34.70 76.90 36.58 79.34 37.30 80.64C41.83 79.06 46.30 76.75 50.18 73.87C53.06 75.96 55.58 77.98 57.38 79.70L61.06 74.88C59.40 73.37 57.17 71.71 54.58 69.91C58.32 66.02 61.42 61.20 63.36 55.44ZM36.43 81.79C30.17 81.79 29.02 81.22 29.02 78.41L29.02 60.48L34.99 60.48L34.99 54.50L3.60 54.50L3.60 60.48L11.45 60.48C11.02 71.71 9.72 79.27 2.52 83.88C4.03 85.03 6.05 87.62 6.77 89.28C15.26 83.38 16.92 73.87 17.42 60.48L22.75 60.48L22.75 78.48C22.75 85.75 25.63 87.62 36.36 87.62L57.38 87.62C66.17 87.62 68.33 85.25 69.41 76.10C67.61 75.74 64.87 74.81 63.36 73.73C62.86 80.57 61.99 81.79 57.10 81.79Z"/></svg>
