<svg xmlns="http://www.w3.org/2000/svg" xmlns:xlink="http://www.w3.org/1999/xlink" width="72.00000000000001" height="106.56000000000002"><path fill="red" stroke="red" d="M36.07 46.58L23.47 46.58L23.47 37.94L34.56 37.94L34.56 31.97L23.47 31.97L23.47 23.11L16.92 23.11L16.92 31.97L5.69 31.97L5.69 37.94L16.92 37.94L16.92 46.58L3.60 46.58L3.60 52.70L36.07 52.70ZM23.47 67.82L35.28 67.82L35.28 61.78L23.47 61.78L23.47 54.36L16.92 54.36L16.92 61.78L5.11 61.78L5.11 67.82L16.92 67.82L16.92 77.83C11.59 78.62 6.70 79.27 2.74 79.78L3.67 86.40C12.67 84.96 25.42 83.09 37.37 81.14L37.08 74.95C32.62 75.60 27.94 76.32 23.47 76.97ZM68.83 39.46L62.14 39.46L62.14 23.83L55.51 23.83L55.51 39.46L37.22 39.46L37.22 45.94L55.51 45.94L55.51 81.00C55.51 82.22 55.08 82.58 53.71 82.66C52.56 82.66 48.67 82.73 44.35 82.58C45.36 84.31 46.51 87.34 46.87 89.14C52.78 89.14 56.52 88.85 58.82 87.77C61.20 86.69 62.14 84.82 62.14 81.00L62.14 45.94L68.83 45.94ZM51.84 67.75C50.40 63.72 47.23 56.81 44.78 51.70L39.10 53.78C41.47 59.11 44.42 66.17 45.65 70.27Z"/></svg>
