<svg xmlns="http://www.w3.org/2000/svg" xmlns:xlink="http://www.w3.org/1999/xlink" width="72.00000000000001" height="106.56000000000002"><path fill="red" stroke="red" d="M22.97 73.15L19.15 73.15L19.15 23.98L13.68 23.98L13.68 73.15L9.65 73.15L9.65 35.06L4.97 35.06L4.97 78.98L22.97 78.98L22.97 81.72L27.58 81.72L27.58 34.99L22.97 34.99ZM47.59 64.30L47.59 71.71L39.46 71.71L39.46 64.30ZM52.92 76.54L52.92 59.47L34.13 59.47L34.13 80.50L39.46 80.50L39.46 76.54ZM34.06 49.10C41.54 47.38 46.01 44.78 48.74 40.97C53.71 43.56 59.40 46.94 62.78 49.10ZM69.19 49.10L63.50 49.10L67.32 44.86C63.50 42.41 56.59 38.81 51.19 36.07C51.34 35.57 51.48 34.99 51.62 34.42L67.10 34.42L67.10 29.02L52.56 29.02C52.70 27.22 52.85 25.27 52.92 23.18L46.94 23.18C46.87 25.27 46.73 27.22 46.51 29.02L31.82 29.02L31.82 34.42L45.36 34.42C43.56 39.60 39.60 42.55 30.67 44.28C31.82 45.43 33.19 47.59 33.77 49.10L29.74 49.10L29.74 54.72L58.54 54.72L58.54 81.86C58.54 82.94 58.18 83.23 57.02 83.23C55.87 83.30 52.06 83.30 48.10 83.16C48.96 84.82 49.97 87.48 50.33 89.21C55.66 89.21 59.26 89.06 61.63 88.06C63.94 87.19 64.66 85.39 64.66 82.01L64.66 54.72L69.19 54.72Z"/></svg>
