<svg xmlns="http://www.w3.org/2000/svg" xmlns:xlink="http://www.w3.org/1999/xlink" width="72.00000000000001" height="106.56000000000002"><path fill="red" stroke="red" d="M26.42 80.57C18.65 80.57 17.21 79.63 17.21 75.17L17.21 57.82L52.49 57.82L52.49 61.27L59.40 61.27L59.40 27.43L6.98 27.43L6.98 33.98L52.49 33.98L52.49 51.26L17.21 51.26L17.21 40.39L10.30 40.39L10.30 75.10C10.30 84.89 14.18 87.19 26.64 87.19L52.13 87.19C64.51 87.19 67.18 83.30 68.62 69.98C66.67 69.62 63.65 68.47 61.78 67.32C60.84 78.41 59.69 80.57 52.06 80.57Z"/></svg>
