<svg xmlns="http://www.w3.org/2000/svg" xmlns:xlink="http://www.w3.org/1999/xlink" width="72.00000000000001" height="106.56000000000002"><path fill="red" stroke="red" d="M54.43 54.50L63.43 54.50L63.43 48.38L38.09 48.38L38.09 54.50L47.88 54.50L47.88 65.02L34.99 65.02L34.99 71.14L47.88 71.14L47.88 89.21L54.43 89.21L54.43 71.14L67.03 71.14L67.03 65.02L54.43 65.02ZM26.21 51.12L12.02 51.12L12.02 46.66L26.21 46.66ZM26.21 60.70L12.02 60.70L12.02 56.09L26.21 56.09ZM49.68 21.96C46.22 30.82 39.67 39.46 32.33 44.28L32.33 41.40L22.39 41.40L22.39 36.50L34.34 36.50L34.34 30.60L22.39 30.60L22.39 23.11L15.91 23.11L15.91 30.60L3.89 30.60L3.89 36.50L15.91 36.50L15.91 41.40L6.12 41.40L6.12 65.88L15.91 65.88L15.91 70.85L3.10 70.85L3.10 76.82L15.91 76.82L15.91 89.21L22.39 89.21L22.39 76.82L34.85 76.82L34.85 70.85L22.39 70.85L22.39 65.88L32.33 65.88L32.33 46.66C33.41 47.74 34.56 49.18 35.21 50.18C41.11 46.37 46.51 40.32 50.69 33.19C54.86 39.74 60.55 46.37 65.74 50.04C66.74 48.60 68.62 46.44 69.98 45.50C64.01 41.83 57.24 34.70 53.35 28.15C54.07 26.71 54.79 25.20 55.37 23.69Z"/></svg>
