<svg xmlns="http://www.w3.org/2000/svg" xmlns:xlink="http://www.w3.org/1999/xlink" width="72.00000000000001" height="106.56000000000002"><path fill="red" stroke="red" d="M55.73 73.01C54.65 74.66 53.42 76.10 51.98 77.47C49.03 75.82 46.01 74.38 43.27 73.01ZM59.47 68.33L58.61 68.54L38.09 68.54L38.09 73.01L40.54 73.01L38.02 75.67C40.97 77.11 44.28 78.84 47.52 80.64C43.99 82.66 39.82 84.10 35.35 84.96C36.36 86.11 37.58 88.13 38.09 89.42C43.42 88.13 48.24 86.26 52.34 83.38C55.66 85.39 58.68 87.34 60.70 88.99L64.37 84.96C62.35 83.45 59.54 81.72 56.52 79.92C59.26 77.18 61.42 73.73 62.78 69.48ZM63.07 42.34C61.34 43.70 58.61 45.65 56.16 47.09C54.94 46.15 53.86 45.14 52.78 44.06C55.22 42.70 58.25 40.82 60.62 38.88L56.38 36.22C54.79 37.58 52.42 39.46 50.18 40.82C48.96 39.17 47.88 37.30 47.16 35.42L42.12 36.65C44.57 42.77 48.24 47.88 53.14 51.77L40.82 51.77L40.82 56.81C40.82 59.47 40.25 62.06 36.36 64.37L36.36 51.84L29.74 51.84C33.98 48.38 37.51 43.92 39.60 38.59L36.00 37.01L34.99 37.22L18.86 37.22L18.86 41.90L31.90 41.90C30.67 43.78 29.09 45.58 27.29 47.16C25.42 45.79 22.90 44.21 20.81 43.20L17.28 46.22C19.22 47.30 21.46 48.89 23.26 50.18C20.38 52.13 17.14 53.64 13.90 54.65C13.97 52.92 13.97 51.19 13.97 49.68L13.97 33.98L68.40 33.98L68.40 28.44L41.26 28.44C40.18 26.57 38.59 24.34 37.08 22.75L31.54 25.56C32.33 26.42 33.05 27.36 33.70 28.44L7.85 28.44L7.85 49.68C7.85 60.19 7.42 75.02 2.23 85.39C3.60 86.11 6.26 88.13 7.34 89.35C12.17 79.92 13.54 66.38 13.90 55.58C14.83 56.74 15.91 58.25 16.42 59.26C18.72 58.39 20.95 57.46 23.11 56.30L31.10 56.30L31.10 61.27L19.44 61.27C18.50 65.66 17.14 71.06 15.98 74.81L30.10 74.81C29.59 80.35 28.94 82.80 28.08 83.66C27.58 84.17 26.93 84.24 25.85 84.24C24.70 84.24 21.89 84.24 18.94 83.88C19.80 85.32 20.38 87.41 20.45 88.99C23.69 89.14 26.71 89.06 28.22 88.99C30.24 88.85 31.54 88.42 32.76 87.19C34.34 85.61 35.14 81.58 36.00 72.50L36.22 70.20L22.75 70.20C23.11 68.76 23.47 67.32 23.83 65.81L36.36 65.81L36.36 64.51C37.44 65.23 39.24 67.18 39.96 68.11C44.93 65.16 45.94 60.77 45.94 56.95L45.94 56.45L52.06 56.45L52.06 60.19C52.06 64.73 52.92 66.60 57.60 66.60L61.56 66.60C62.78 66.60 64.22 66.53 65.02 66.24C64.80 65.02 64.73 63.22 64.58 61.85C63.79 62.14 62.35 62.21 61.49 62.21L58.25 62.21C57.38 62.21 57.24 61.70 57.24 60.26L57.24 54.58C59.98 56.23 62.93 57.53 66.24 58.46C67.03 57.02 68.69 54.72 69.91 53.64C66.31 52.78 63.00 51.41 60.05 49.75C62.57 48.46 65.23 46.87 67.46 45.14Z"/></svg>
