<svg xmlns="http://www.w3.org/2000/svg" xmlns:xlink="http://www.w3.org/1999/xlink" width="72.00000000000001" height="106.56000000000002"><path fill="red" stroke="red" d="M14.47 58.32C15.05 55.30 15.62 51.84 16.20 48.53L39.38 48.53L39.38 26.06L8.06 26.06L8.06 32.26L32.76 32.26L32.76 42.26L10.22 42.26C9.36 49.46 7.70 58.68 6.34 64.58L13.25 64.51L32.62 64.51C31.68 75.24 30.67 79.99 29.09 81.36C28.22 82.01 27.36 82.15 25.85 82.15C24.05 82.15 19.44 82.08 14.83 81.65C16.20 83.66 17.14 86.47 17.28 88.56C21.82 88.85 26.21 88.85 28.51 88.63C31.32 88.42 33.12 87.91 34.85 86.04C37.30 83.52 38.52 76.90 39.74 61.27C39.89 60.34 39.96 58.32 39.96 58.32ZM55.22 24.05L55.22 89.21L61.92 89.21L61.92 24.05Z"/></svg>
