<svg xmlns="http://www.w3.org/2000/svg" xmlns:xlink="http://www.w3.org/1999/xlink" width="72.00000000000001" height="106.56000000000002"><path fill="red" stroke="red" d="M57.31 34.99L35.86 34.99L35.86 30.17L57.31 30.17ZM57.31 44.42L35.86 44.42L35.86 39.60L57.31 39.60ZM64.08 25.27L29.38 25.27L29.38 49.39L64.08 49.39ZM17.64 23.33C14.62 28.22 8.28 34.06 2.66 37.66C3.74 39.02 5.40 41.69 6.12 43.20C12.60 38.95 19.66 32.18 24.12 25.85ZM19.22 38.95C14.98 46.15 8.06 53.35 1.66 57.89C2.74 59.54 4.46 63.14 5.04 64.66C7.49 62.64 10.15 60.34 12.60 57.67L12.60 89.14L19.08 89.14L19.08 50.26C21.31 47.30 23.47 44.28 25.13 41.33ZM29.16 73.66C32.33 76.75 36.07 81.07 37.73 83.81L42.77 80.21C40.97 77.47 37.08 73.37 33.91 70.49ZM68.33 64.30L58.03 64.30L58.03 59.04L66.96 59.04L66.96 53.50L25.34 53.50L25.34 59.04L51.34 59.04L51.34 64.30L23.62 64.30L23.62 70.06L51.34 70.06L51.34 82.08C51.34 82.94 51.05 83.16 49.97 83.23C48.96 83.30 45.50 83.30 41.90 83.16C42.77 84.89 43.70 87.41 44.06 89.21C49.18 89.21 52.63 89.14 55.01 88.13C57.38 87.19 58.03 85.54 58.03 82.22L58.03 70.06L68.33 70.06Z"/></svg>
