<svg xmlns="http://www.w3.org/2000/svg" xmlns:xlink="http://www.w3.org/1999/xlink" width="72.00000000000001" height="106.56000000000002"><path fill="red" stroke="red" d="M14.62 23.11C12.10 27.72 7.13 33.48 2.59 37.08C3.67 38.23 5.33 40.82 6.05 42.12C11.30 37.94 16.99 31.32 20.66 25.34ZM16.34 38.66C12.82 45.14 7.27 51.70 2.02 56.02C3.02 57.67 4.82 61.06 5.33 62.50C7.13 60.84 9.07 58.90 10.94 56.74L10.94 89.21L16.99 89.21L16.99 49.10C18.94 46.44 20.66 43.63 22.10 40.97ZM58.46 62.14L40.97 62.14L40.97 57.38L58.46 57.38ZM40.97 80.86L40.97 75.96L58.46 75.96L58.46 80.86ZM58.46 71.35L40.97 71.35L40.97 66.74L58.46 66.74ZM68.47 45.29L68.47 39.89L52.92 39.89L52.92 33.12L46.44 33.12L46.44 39.89L32.40 39.89L32.40 33.41C43.78 32.47 56.59 30.89 65.81 28.73L60.70 23.98C52.49 25.99 38.52 27.79 26.57 28.87L26.57 52.13C26.57 62.71 25.85 76.46 19.94 86.26C21.53 86.90 23.83 88.27 24.98 89.21C31.54 78.62 32.40 64.08 32.40 52.13L32.40 45.29L46.44 45.29L46.44 52.13L34.70 52.13L34.70 89.06L40.97 89.06L40.97 85.97L58.46 85.97L58.46 89.06L64.94 89.06L64.94 52.13L52.92 52.13L52.92 45.29Z"/></svg>
