<svg xmlns="http://www.w3.org/2000/svg" xmlns:xlink="http://www.w3.org/1999/xlink" width="72.00000000000001" height="106.56000000000002"><path fill="red" stroke="red" d="M10.01 86.54C12.46 81.50 14.90 73.73 16.56 68.04L10.66 65.81C9.14 71.50 6.48 78.91 3.67 83.74ZM53.14 48.82L52.06 49.03L12.67 49.03L12.67 54.72L48.10 54.72C45.79 58.03 42.98 61.56 40.32 64.08C41.83 64.80 44.14 66.24 45.43 67.18C49.54 63.22 54.72 56.74 57.60 51.55ZM27.43 63.07C31.18 67.39 35.93 73.51 38.30 77.11L44.06 73.73C41.62 70.20 36.58 64.30 32.90 60.19ZM31.39 81.94C27.00 81.94 26.21 81.58 26.21 79.42L26.21 66.24L19.51 66.24L19.51 79.49C19.51 86.18 21.82 88.06 30.96 88.06L46.30 88.06C53.71 88.06 55.73 85.68 56.59 76.10C54.79 75.67 51.91 74.66 50.47 73.58C50.04 80.86 49.46 81.94 45.79 81.94ZM52.70 65.66C55.73 72.00 59.76 80.57 61.56 85.46L68.18 83.02C66.10 78.12 61.92 69.84 58.82 63.65ZM25.20 39.10C29.09 36.58 32.47 33.77 35.35 30.46C38.74 33.55 42.77 36.50 47.02 39.10ZM33.98 22.03C28.37 31.18 16.56 38.23 2.66 42.48C3.96 43.63 5.90 46.30 6.70 47.88C12.31 46.01 17.50 43.63 22.25 40.90L22.25 44.57L49.03 44.57L49.03 40.39C54.22 43.34 59.54 45.94 64.51 47.66C65.52 45.94 67.61 43.27 69.05 41.98C58.46 38.81 46.08 32.47 38.95 25.99C39.31 25.42 39.67 24.91 40.03 24.34Z"/></svg>
