<svg xmlns="http://www.w3.org/2000/svg" xmlns:xlink="http://www.w3.org/1999/xlink" width="72.00000000000001" height="106.56000000000002"><path fill="red" stroke="red" d="M54.36 39.89L39.02 39.89L39.02 32.11L54.36 32.11ZM54.36 53.28L39.02 53.28L39.02 45.36L54.36 45.36ZM16.78 45.36L32.54 45.36L32.54 53.28L16.78 53.28ZM16.78 32.11L32.54 32.11L32.54 39.89L16.78 39.89ZM60.98 26.28L10.44 26.28L10.44 59.11L60.98 59.11ZM46.73 69.55C43.49 66.38 37.15 62.21 31.90 59.62L27.50 63.79C32.76 66.60 39.02 70.99 41.98 74.16ZM9.43 85.39C12.89 80.64 15.41 73.30 17.14 67.46L11.16 65.23C9.58 70.99 6.91 77.76 3.46 82.08ZM31.90 81.72C28.15 81.72 27.43 81.36 27.43 79.34L27.43 66.24L20.66 66.24L20.66 79.34C20.66 85.90 22.82 87.77 31.25 87.77L44.64 87.77C51.62 87.77 53.64 85.39 54.50 75.46C52.70 75.02 49.82 74.02 48.38 72.94C47.95 80.57 47.45 81.72 44.14 81.72ZM52.85 67.10C56.81 72.65 60.77 79.99 62.14 84.82L68.62 82.08C67.10 77.11 62.86 69.98 58.82 64.58Z"/></svg>
