<svg xmlns="http://www.w3.org/2000/svg" xmlns:xlink="http://www.w3.org/1999/xlink" width="72.00000000000001" height="106.56000000000002"><path fill="red" stroke="red" d="M7.13 57.02C8.86 51.70 10.15 43.34 10.51 37.44L5.69 36.72C5.18 42.55 3.82 50.47 2.09 55.30ZM50.98 80.42L50.98 64.08L64.94 64.08L64.94 57.82L50.98 57.82L50.98 44.28L66.53 44.28L66.53 37.94L50.98 37.94L50.98 23.40L44.28 23.40L44.28 37.94L36.72 37.94C37.58 34.56 38.38 31.03 38.88 27.43L32.33 26.35C31.39 33.12 29.81 39.89 27.58 45.50C26.71 42.48 24.70 38.09 22.90 34.70L18.65 36.43L18.65 23.11L11.95 23.11L11.95 89.14L18.65 89.14L18.65 37.51C20.45 41.33 22.32 45.94 22.97 48.82L27.00 46.87C26.21 48.74 25.27 50.40 24.34 51.84C25.99 52.49 28.94 54.00 30.31 54.94C31.97 51.98 33.55 48.31 34.92 44.28L44.28 44.28L44.28 57.82L29.66 57.82L29.66 64.08L44.28 64.08L44.28 80.42L24.26 80.42L24.26 86.76L68.40 86.76L68.40 80.42Z"/></svg>
