<svg xmlns="http://www.w3.org/2000/svg" xmlns:xlink="http://www.w3.org/1999/xlink" width="72.00000000000001" height="106.56000000000002"><path fill="red" stroke="red" d="M62.06 24.98C60.55 29.16 57.60 34.92 55.37 38.59L60.91 40.82C63.22 37.30 66.02 32.11 68.33 27.36ZM40.75 38.38C39.67 34.78 36.72 29.38 33.84 25.34L28.37 27.94C31.18 32.04 34.06 37.73 34.99 41.33ZM7.63 57.31C9.43 51.98 10.73 43.70 11.02 37.80L6.05 37.08C5.54 42.84 4.25 50.76 2.52 55.51ZM28.51 48.17C27.72 44.78 25.42 39.17 23.33 34.85L19.01 36.65L19.01 23.18L12.60 23.18L12.60 89.21L19.01 89.21L19.01 37.15C21.02 41.47 22.97 47.02 23.76 50.40ZM65.74 43.34L51.34 43.34L51.34 23.11L44.93 23.11L44.93 43.34L29.59 43.34L29.59 64.01C29.59 70.99 29.30 79.63 25.85 85.82C27.29 86.54 29.95 88.49 31.10 89.64C35.14 82.73 35.78 72.07 35.78 64.08L35.78 49.18L59.40 49.18L59.40 64.44C50.90 66.46 42.26 68.33 36.29 69.55L38.38 75.17C44.42 73.73 52.06 71.86 59.40 69.91L59.40 81.36C59.40 82.37 59.04 82.73 58.03 82.73C56.88 82.80 53.28 82.80 49.68 82.66C50.40 84.31 51.34 87.19 51.55 88.85C56.88 88.85 60.48 88.85 62.71 87.77C65.02 86.76 65.74 84.82 65.74 81.50ZM37.51 57.38C43.42 58.75 50.98 61.56 54.86 63.72L57.67 59.04C53.64 56.95 46.08 54.43 40.18 53.21Z"/></svg>
