<svg xmlns="http://www.w3.org/2000/svg" xmlns:xlink="http://www.w3.org/1999/xlink" width="72.00000000000001" height="106.56000000000002"><path fill="red" stroke="red" d="M7.20 57.24C8.78 51.84 9.86 43.49 10.08 37.73L5.18 37.08C4.75 42.70 3.67 50.69 2.09 55.58ZM11.52 89.14L17.71 89.14L17.71 23.11L11.52 23.11ZM18.00 35.93C19.51 40.61 21.10 46.73 21.74 50.33L26.57 48.46C25.92 45.00 24.19 39.10 22.61 34.56ZM43.42 55.73L49.82 55.73L49.82 44.21C55.22 48.60 61.34 54.36 64.44 58.10L69.12 54.29C66.24 50.98 61.13 46.37 56.16 42.41L68.11 42.41L68.11 36.79L49.82 36.79L49.82 31.10C55.37 30.46 60.70 29.59 65.02 28.44L60.34 23.62C52.78 25.56 39.10 26.86 27.58 27.36C28.22 28.80 29.02 31.10 29.23 32.54C33.77 32.40 38.59 32.18 43.42 31.75L43.42 36.79L25.85 36.79L25.85 42.41L38.30 42.41C34.20 46.87 28.22 50.90 22.75 52.99C23.98 54.14 25.85 56.30 26.78 57.82C32.76 55.01 38.95 49.97 43.42 44.35ZM49.82 69.19C54.29 66.74 59.04 63.50 62.50 60.26L58.54 57.17L57.24 57.53L30.89 57.53L30.89 62.93L50.33 62.93C48.17 64.44 45.65 65.74 43.49 66.82L43.49 69.84L24.26 69.84L24.26 75.38L43.49 75.38L43.49 82.58C43.49 83.38 43.20 83.59 42.19 83.59C41.26 83.66 37.94 83.66 34.49 83.52C35.28 85.10 36.14 87.48 36.43 89.14C41.26 89.14 44.64 89.14 46.87 88.27C49.25 87.41 49.82 85.82 49.82 82.66L49.82 75.38L68.33 75.38L68.33 69.84L49.82 69.84Z"/></svg>
