<svg xmlns="http://www.w3.org/2000/svg" xmlns:xlink="http://www.w3.org/1999/xlink" width="72.00000000000001" height="106.56000000000002"><path fill="red" stroke="red" d="M7.13 52.63L7.20 52.63C8.35 52.06 10.22 51.77 19.01 50.90C15.77 53.93 12.96 56.16 11.59 57.17C9.07 59.18 7.27 60.41 5.47 60.62C6.19 62.28 7.06 65.09 7.34 66.31C8.93 65.59 11.52 65.30 30.46 63.86C30.96 65.09 31.39 66.24 31.75 67.10L36.72 65.02C35.50 61.85 32.69 56.66 30.31 52.92L25.63 54.72C26.50 56.16 27.36 57.60 28.22 59.26L16.34 59.83C22.46 55.30 28.51 49.61 33.91 43.70L29.09 40.10C27.58 42.12 25.78 43.99 24.12 45.86L14.62 46.51C17.57 43.85 20.52 40.54 23.11 37.22L22.68 37.01L44.57 37.01C42.12 40.82 38.95 44.21 37.87 45.22C36.72 46.44 35.50 47.30 34.42 47.52C35.14 48.96 35.93 51.77 36.29 52.92C37.37 52.42 39.10 52.13 47.95 51.26C45.36 53.93 43.06 56.09 41.98 56.88C39.67 58.90 37.94 60.12 36.29 60.41C36.94 61.99 37.87 64.80 38.16 66.02C39.74 65.30 42.34 65.02 60.62 63.43C61.34 64.94 62.06 66.24 62.50 67.32L67.75 65.09C66.31 61.70 62.86 56.38 60.05 52.49L55.08 54.36C56.09 55.80 57.10 57.38 58.10 59.04L46.37 59.83C52.13 55.01 57.96 49.03 63.22 42.62L57.53 39.96C56.02 42.12 54.29 44.21 52.56 46.22L43.13 46.94C46.08 44.14 49.03 40.61 51.41 37.15L51.05 37.01L68.11 37.01L68.11 31.39L49.82 31.39C51.48 29.45 53.14 27.22 54.79 24.98L47.09 22.90C46.01 25.42 44.14 28.80 42.41 31.39L29.23 31.39C27.94 28.94 25.34 25.42 23.40 22.75L17.35 25.34C18.58 27.07 20.09 29.38 21.31 31.39L4.18 31.39L4.18 37.01L16.34 37.01C13.61 40.82 10.30 44.21 9.00 45.22C7.70 46.44 6.55 47.23 5.40 47.45C5.98 48.67 6.77 51.05 7.13 52.34ZM31.18 69.98C33.48 72.50 36.43 76.10 37.87 78.26L43.06 75.31C41.62 73.22 38.52 69.84 36.07 67.39ZM9.72 85.61C12.17 81.65 14.47 75.67 15.98 71.21L10.30 68.69C8.86 73.15 6.26 78.91 3.74 82.58ZM31.32 82.22C27.29 82.22 26.57 81.94 26.57 80.06L26.57 69.84L19.94 69.84L19.94 80.14C19.94 86.40 22.18 88.13 30.67 88.13L44.42 88.13C51.41 88.13 53.35 85.82 54.22 76.18C52.42 75.74 49.61 74.74 48.17 73.66C47.81 81.22 47.30 82.22 43.92 82.22ZM53.57 69.98C56.74 74.52 60.91 80.71 62.86 84.38L68.40 80.78C66.38 77.18 62.06 71.28 58.90 66.89Z"/></svg>
