<svg xmlns="http://www.w3.org/2000/svg" xmlns:xlink="http://www.w3.org/1999/xlink" width="72.00000000000001" height="106.56000000000002"><path fill="red" stroke="red" d="M51.26 33.05C50.40 30.17 48.31 25.85 46.58 22.46L40.25 24.26C41.98 27.65 43.92 32.26 44.78 35.21ZM69.19 35.28L28.58 35.28L28.58 41.62L69.19 41.62ZM27.36 53.93L19.44 56.09L19.44 43.42L27.36 43.42L27.36 37.15L19.44 37.15L19.44 23.11L12.89 23.11L12.89 37.22L3.67 37.22L3.67 43.42L12.89 43.42L12.89 57.74C8.93 58.75 5.33 59.69 2.38 60.34L3.89 66.89L12.89 64.44L12.89 81.36C12.89 82.44 12.46 82.73 11.45 82.80C10.58 82.80 7.56 82.80 4.39 82.73C5.26 84.38 6.12 87.12 6.34 88.85C11.23 88.85 14.47 88.63 16.63 87.55C18.65 86.62 19.44 84.89 19.44 81.36L19.44 62.50C22.32 61.70 25.20 60.84 28.15 60.05ZM60.77 82.80C60.26 82.80 59.90 82.73 59.62 82.44C59.33 82.15 59.26 81.14 59.26 79.42L59.26 48.17L34.27 48.17L34.27 61.13C34.27 68.76 32.98 78.12 22.75 84.60C24.05 85.61 26.35 88.34 27.22 89.78C38.74 82.44 40.90 70.49 40.90 61.27L40.90 54.43L52.63 54.43L52.63 79.42C52.63 84.53 53.14 85.97 54.29 87.12C55.44 88.20 57.31 88.70 58.82 88.70L62.64 88.70C64.15 88.70 65.74 88.42 66.82 87.62C67.82 86.98 68.54 85.90 68.98 84.10C69.41 82.37 69.62 77.76 69.70 73.94C68.04 73.44 65.95 72.36 64.66 71.28C64.66 75.38 64.58 78.62 64.44 80.06C64.30 81.43 64.08 82.15 63.79 82.44C63.50 82.73 62.93 82.80 62.42 82.80Z"/></svg>
