<svg xmlns="http://www.w3.org/2000/svg" xmlns:xlink="http://www.w3.org/1999/xlink" width="72.00000000000001" height="106.56000000000002"><path fill="red" stroke="red" d="M25.49 54.29L18.50 56.23L18.50 43.42L25.99 43.42L25.99 37.22L18.50 37.22L18.50 23.18L12.10 23.18L12.10 37.22L3.67 37.22L3.67 43.42L12.10 43.42L12.10 57.89C8.64 58.75 5.47 59.54 2.88 60.12L4.68 66.60C6.91 65.95 9.50 65.23 12.10 64.51L12.10 81.50C12.10 82.44 11.81 82.73 10.80 82.80C10.01 82.80 7.27 82.80 4.46 82.73C5.26 84.38 6.12 87.05 6.34 88.70C10.87 88.70 13.82 88.56 15.91 87.48C17.86 86.54 18.50 84.82 18.50 81.50L18.50 62.71L26.35 60.41ZM50.90 58.61L50.90 48.96L60.12 48.96L60.12 58.61ZM35.28 58.61L35.28 48.96L44.57 48.96L44.57 58.61ZM44.57 33.48L44.57 42.91L35.28 42.91L35.28 33.48ZM60.12 42.91L50.90 42.91L50.90 33.48L60.12 33.48ZM28.80 27.36L28.80 68.40L35.28 68.40L35.28 64.66L44.57 64.66L44.57 89.14L50.90 89.14L50.90 64.66L60.12 64.66L60.12 68.26L66.89 68.26L66.89 27.36Z"/></svg>
