<svg xmlns="http://www.w3.org/2000/svg" xmlns:xlink="http://www.w3.org/1999/xlink" width="72.00000000000001" height="106.56000000000002"><path fill="red" stroke="red" d="M26.50 53.93L19.01 56.02L19.01 43.34L26.50 43.34L26.50 37.15L19.01 37.15L19.01 23.18L12.60 23.18L12.60 37.15L3.24 37.15L3.24 43.34L12.60 43.34L12.60 57.74C8.71 58.75 5.11 59.69 2.23 60.41L3.89 66.89C6.62 66.10 9.50 65.23 12.60 64.37L12.60 81.79C12.60 82.87 12.17 83.16 11.23 83.16C10.37 83.23 7.34 83.23 4.32 83.09C5.18 84.82 6.05 87.55 6.26 89.14C11.09 89.21 14.18 88.99 16.27 87.98C18.29 86.98 19.01 85.25 19.01 81.86L19.01 62.42C21.74 61.63 24.48 60.84 27.29 59.98ZM50.98 77.54L50.98 64.37L60.98 64.37L60.98 77.54ZM34.99 64.37L44.64 64.37L44.64 77.54L34.99 77.54ZM44.64 45.72L44.64 58.18L34.99 58.18L34.99 45.72ZM60.98 45.72L60.98 58.18L50.98 58.18L50.98 45.72ZM50.98 39.31L50.98 23.26L44.64 23.26L44.64 39.31L28.66 39.31L28.66 89.06L34.99 89.06L34.99 83.95L60.98 83.95L60.98 88.56L67.68 88.56L67.68 39.31Z"/></svg>
