<svg xmlns="http://www.w3.org/2000/svg" xmlns:xlink="http://www.w3.org/1999/xlink" width="72.00000000000001" height="106.56000000000002"><path fill="red" stroke="red" d="M27.50 53.57C24.91 54.36 22.18 55.01 19.58 55.73L19.58 43.34L28.08 43.34L28.08 37.15L19.58 37.15L19.58 23.18L13.03 23.18L13.03 37.15L3.38 37.15L3.38 43.34L13.03 43.34L13.03 57.60C9.00 58.61 5.26 59.54 2.23 60.26L3.96 66.74C6.70 65.95 9.79 65.09 13.03 64.22L13.03 81.72C13.03 82.80 12.60 83.09 11.66 83.09C10.80 83.16 7.78 83.16 4.75 83.02C5.62 84.74 6.48 87.48 6.70 89.14C11.52 89.21 14.69 88.99 16.78 87.98C18.86 86.98 19.58 85.18 19.58 81.72L19.58 62.28L28.37 59.76ZM59.47 79.27L36.79 79.27L36.79 62.42L59.47 62.42ZM68.47 42.62L68.47 36.29L49.68 36.29L49.68 23.18L42.84 23.18L42.84 56.16L30.31 56.16L30.31 89.14L36.79 89.14L36.79 85.54L59.47 85.54L59.47 88.85L66.31 88.85L66.31 56.16L49.68 56.16L49.68 42.62Z"/></svg>
