<svg xmlns="http://www.w3.org/2000/svg" xmlns:xlink="http://www.w3.org/1999/xlink" width="72.00000000000001" height="106.56000000000002"><path fill="red" stroke="red" d="M27.22 52.56C24.70 53.42 22.03 54.22 19.51 55.01L19.51 43.42L27.65 43.42L27.65 37.22L19.51 37.22L19.51 23.11L12.96 23.11L12.96 37.22L3.24 37.22L3.24 43.42L12.96 43.42L12.96 57.10C9.07 58.25 5.47 59.33 2.59 60.19L4.61 66.60L12.96 63.86L12.96 81.22C12.96 82.30 12.60 82.58 11.59 82.66C10.73 82.66 7.63 82.66 4.46 82.58C5.33 84.24 6.26 86.98 6.48 88.63C11.38 88.63 14.62 88.49 16.70 87.41C18.72 86.47 19.51 84.74 19.51 81.29L19.51 61.56C22.46 60.62 25.42 59.62 28.37 58.54ZM59.54 78.84L40.46 78.84L40.46 58.97L59.54 58.97ZM68.69 34.34L68.69 27.94L27.72 27.94L27.72 34.34L40.25 34.34C37.22 46.08 31.61 59.04 22.97 66.96C24.34 68.18 26.35 70.56 27.36 72.07C29.88 69.70 32.18 67.03 34.20 64.08L34.20 89.21L40.46 89.21L40.46 85.18L59.54 85.18L59.54 88.92L66.10 88.92L66.10 52.63L40.75 52.63C43.49 46.73 45.65 40.46 47.30 34.34Z"/></svg>
