<svg xmlns="http://www.w3.org/2000/svg" xmlns:xlink="http://www.w3.org/1999/xlink" width="72.00000000000001" height="106.56000000000002"><path fill="red" stroke="red" d="M68.62 38.74L68.62 32.69L40.18 32.69C41.26 30.10 42.12 27.36 42.91 24.55L36.36 23.11C34.06 31.90 29.81 40.46 24.48 45.86C26.06 46.80 28.87 48.82 30.10 49.97C32.69 46.94 35.21 43.06 37.44 38.74ZM24.26 53.93L18.07 55.80L18.07 43.34L24.91 43.34L24.91 37.15L18.07 37.15L18.07 23.26L11.81 23.26L11.81 37.15L3.24 37.15L3.24 43.34L11.81 43.34L11.81 57.67C8.21 58.68 4.90 59.54 2.23 60.26L3.74 66.74L11.81 64.30L11.81 81.14C11.81 82.15 11.45 82.44 10.58 82.44C9.79 82.44 7.06 82.44 4.18 82.37C5.04 84.17 5.83 86.98 6.05 88.70C10.58 88.70 13.46 88.42 15.48 87.34C17.35 86.33 18.07 84.53 18.07 81.14L18.07 62.35C20.38 61.56 22.82 60.84 25.13 60.05ZM44.71 83.23C40.32 83.23 39.67 82.66 39.67 79.63L39.67 61.70L46.94 58.90L46.94 76.97L52.78 76.97L52.78 56.59L59.83 53.93C59.76 60.34 59.47 67.32 58.90 71.86L64.01 73.30C65.09 66.82 65.66 56.52 65.81 48.74L66.10 47.81L61.42 46.37L60.12 47.45L52.78 50.26L52.78 40.61L46.94 40.61L46.94 52.42L39.67 55.30L39.67 46.37L33.62 46.37L33.62 57.60L26.14 60.41L28.08 66.17L33.62 64.01L33.62 79.63C33.62 86.98 35.86 88.92 44.28 88.92L59.69 88.92C66.60 88.92 68.47 86.40 69.34 77.83C67.61 77.54 65.16 76.61 63.72 75.60C63.36 81.94 62.71 83.23 59.26 83.23Z"/></svg>
