<svg xmlns="http://www.w3.org/2000/svg" xmlns:xlink="http://www.w3.org/1999/xlink" width="72.00000000000001" height="106.56000000000002"><path fill="red" stroke="red" d="M68.26 45.00C66.10 40.82 61.13 34.13 57.17 29.30L52.13 32.11C53.64 34.06 55.15 36.14 56.66 38.30L37.01 39.53C41.11 35.50 45.29 30.46 49.03 25.13L42.05 23.26C38.52 29.45 33.12 35.57 31.39 37.22C29.81 38.81 28.44 39.96 27.07 40.25C27.79 41.90 28.80 45.00 29.16 46.30C31.18 45.43 34.49 45.50 60.19 43.63C61.20 45.36 62.14 47.02 62.78 48.38ZM24.41 54.14L17.86 56.02L17.86 43.34L25.27 43.34L25.27 37.15L17.86 37.15L17.86 23.26L11.74 23.26L11.74 37.15L3.67 37.15L3.67 43.34L11.74 43.34L11.74 57.89C8.42 58.82 5.33 59.62 2.88 60.26L4.39 66.74L11.74 64.51L11.74 81.14C11.74 82.15 11.38 82.44 10.51 82.44C9.72 82.44 6.98 82.44 4.18 82.37C4.97 84.10 5.83 86.98 5.98 88.56C10.51 88.56 13.39 88.34 15.34 87.26C17.21 86.26 17.86 84.46 17.86 81.14L17.86 62.57C20.30 61.85 22.90 60.98 25.34 60.19ZM68.33 57.46L58.46 57.46L58.46 47.30L52.13 47.30L52.13 57.46L41.76 57.46L41.76 47.52L35.42 47.52L35.42 57.46L26.35 57.46L26.35 63.50L35.28 63.50C34.78 70.85 32.40 78.77 23.40 84.74C24.84 85.82 27.00 88.13 27.94 89.64C38.59 82.44 41.18 72.72 41.69 63.50L52.13 63.50L52.13 88.99L58.46 88.99L58.46 63.50L68.33 63.50Z"/></svg>
