<svg xmlns="http://www.w3.org/2000/svg" xmlns:xlink="http://www.w3.org/1999/xlink" width="72.00000000000001" height="106.56000000000002"><path fill="red" stroke="red" d="M21.60 50.11L30.82 50.11L30.82 43.70L21.60 43.70L21.60 32.40C25.70 31.46 29.59 30.46 32.83 29.16L28.08 23.69C21.96 26.28 11.74 28.37 2.52 29.59C3.38 31.18 4.25 33.55 4.54 35.21C7.85 34.85 11.38 34.34 14.90 33.70L14.90 43.70L4.61 43.70L4.61 50.11L14.90 50.11L14.90 51.98C14.90 55.08 14.83 58.18 14.54 61.20L3.02 61.20L3.02 67.68L13.46 67.68C12.02 73.87 9.07 79.85 3.24 84.89C5.11 85.90 7.78 87.98 9.07 89.42C15.91 83.16 19.08 75.60 20.45 67.68L31.32 67.68L31.32 61.20L21.31 61.20C21.53 58.18 21.60 55.15 21.60 52.06ZM69.12 67.97L54.43 67.97L54.43 60.48L66.82 60.48L66.82 54.00L54.43 54.00L54.43 46.73L66.53 46.73L66.53 40.25L54.43 40.25L54.43 33.12L68.18 33.12L68.18 26.57L33.12 26.57L33.12 33.12L47.74 33.12L47.74 40.25L35.06 40.25L35.06 46.73L47.74 46.73L47.74 54.00L34.78 54.00L34.78 60.48L47.74 60.48L47.74 67.97L31.75 67.97L31.75 74.59L47.74 74.59L47.74 89.28L54.43 89.28L54.43 74.59L69.12 74.59Z"/></svg>
