<svg xmlns="http://www.w3.org/2000/svg" xmlns:xlink="http://www.w3.org/1999/xlink" width="72.00000000000001" height="106.56000000000002"><path fill="red" stroke="red" d="M23.98 54.14L17.42 56.09L17.42 43.34L24.41 43.34L24.41 37.15L17.42 37.15L17.42 23.26L11.16 23.26L11.16 37.15L3.53 37.15L3.53 43.34L11.16 43.34L11.16 57.89C7.92 58.82 4.97 59.62 2.45 60.19L4.03 66.74L11.16 64.51L11.16 81.58C11.16 82.51 10.87 82.80 10.01 82.80C9.22 82.80 6.70 82.80 4.10 82.73C4.90 84.46 5.76 87.41 5.90 89.06C10.22 89.06 13.03 88.85 14.90 87.77C16.78 86.69 17.42 84.89 17.42 81.58L17.42 62.57C19.87 61.78 22.39 60.98 24.84 60.19ZM33.26 55.73L33.26 49.25L42.91 49.25C43.06 51.48 43.27 53.64 43.49 55.73ZM42.26 37.44C42.34 39.60 42.41 41.69 42.55 43.78L33.26 43.78L33.26 37.44ZM58.75 37.44L58.75 43.78L48.96 43.78C48.82 41.69 48.74 39.60 48.74 37.44ZM49.97 55.73C49.68 53.71 49.46 51.48 49.32 49.25L58.75 49.25L58.75 55.73ZM59.11 63.29C57.31 65.81 55.15 68.04 52.49 70.13C51.77 67.54 51.26 64.58 50.76 61.42L65.16 61.42L65.16 31.68L48.60 31.68C48.60 28.94 48.60 26.14 48.67 23.18L42.05 23.18C42.05 26.14 42.05 28.94 42.12 31.68L26.93 31.68L26.93 65.02L33.26 65.02L33.26 61.42L44.14 61.42C44.86 66.02 45.72 70.20 46.87 73.87C40.18 77.54 32.11 80.28 23.83 81.94C24.98 83.38 26.86 86.40 27.58 87.91C35.06 85.97 42.48 83.30 49.03 79.70C51.84 85.75 55.80 89.21 61.13 89.21C66.74 89.21 68.76 86.40 69.91 76.18C68.33 75.53 66.02 74.16 64.66 72.72C64.37 80.35 63.58 82.87 61.63 82.87C58.82 82.87 56.52 80.57 54.58 76.32C58.82 73.30 62.57 69.77 65.38 65.74Z"/></svg>
