<svg xmlns="http://www.w3.org/2000/svg" xmlns:xlink="http://www.w3.org/1999/xlink" width="72.00000000000001" height="106.56000000000002"><path fill="red" stroke="red" d="M45.14 39.24C47.66 40.75 50.33 42.55 52.92 44.50C50.26 47.38 47.16 49.68 43.85 51.19C45.07 52.34 46.58 54.36 47.38 55.80C51.05 53.86 54.43 51.26 57.31 48.02C59.76 49.97 61.78 51.91 63.14 53.57L67.46 49.39C65.81 47.59 63.50 45.43 60.77 43.42C63.58 39.10 65.59 33.98 66.89 27.94L63.22 26.71L62.21 26.86L46.58 26.86L46.58 32.26L59.98 32.26C59.04 35.06 57.74 37.73 56.30 40.10C53.78 38.45 51.41 36.86 49.10 35.50ZM24.55 39.24C26.86 40.54 29.30 42.12 31.68 43.85C29.02 47.09 25.99 49.68 22.61 51.34C23.83 52.42 25.42 54.58 26.14 55.94C29.88 53.86 33.26 51.05 36.14 47.45C37.80 48.82 39.24 50.26 40.18 51.55L44.42 47.59C43.13 46.08 41.33 44.42 39.31 42.77C41.69 38.66 43.49 33.62 44.64 27.94L41.04 26.71L39.96 26.86L24.48 26.86L24.48 32.26L37.80 32.26C36.94 34.78 35.93 37.22 34.70 39.38C32.54 38.09 30.46 36.72 28.44 35.64ZM23.04 59.76L21.89 53.78L16.63 55.73L16.63 43.34L22.61 43.34L22.61 37.15L16.63 37.15L16.63 23.18L10.87 23.18L10.87 37.15L3.31 37.15L3.31 43.34L10.87 43.34L10.87 57.74C7.85 58.75 5.11 59.69 2.74 60.41L4.46 66.82L10.87 64.44L10.87 81.72C10.87 82.66 10.51 82.87 9.65 82.94C8.93 82.94 6.41 83.02 3.74 82.87C4.54 84.53 5.26 87.19 5.54 88.78C9.65 88.78 12.38 88.56 14.26 87.48C15.98 86.54 16.63 84.89 16.63 81.72L16.63 62.21ZM40.90 57.67L39.82 57.89L23.98 57.89L23.98 63.36L37.51 63.36C36.65 66.17 35.50 68.83 34.06 71.14C31.97 69.62 29.66 68.26 27.65 67.03L23.62 70.63C25.92 72.07 28.51 73.80 30.89 75.67C27.50 79.56 23.40 82.51 18.86 84.31C20.09 85.39 21.60 87.62 22.25 89.14C27.29 86.90 31.68 83.74 35.35 79.34C37.08 81.00 38.59 82.44 39.60 83.81L43.92 79.70C42.70 78.12 40.82 76.39 38.66 74.66C41.33 70.27 43.34 65.02 44.57 58.82ZM60.41 63.36C59.26 66.82 57.60 69.98 55.66 72.79C53.71 69.84 52.13 66.67 50.98 63.36ZM63.94 57.67L62.86 57.89L45.72 57.89L45.72 63.36L47.30 63.36L45.79 63.79C47.23 68.69 49.32 73.15 51.91 77.11C48.60 80.42 44.64 82.87 40.39 84.38C41.62 85.61 43.06 87.84 43.85 89.35C48.17 87.48 52.13 85.03 55.51 81.79C58.39 84.96 61.70 87.48 65.45 89.35C66.38 87.70 68.11 85.46 69.55 84.31C65.74 82.80 62.35 80.42 59.47 77.40C63.22 72.58 66.02 66.38 67.68 58.90Z"/></svg>
