<svg xmlns="http://www.w3.org/2000/svg" xmlns:xlink="http://www.w3.org/1999/xlink" width="72.00000000000001" height="106.56000000000002"><path fill="red" stroke="red" d="M24.26 53.21L17.71 55.15L17.71 43.27L24.91 43.27L24.91 37.08L17.71 37.08L17.71 23.18L11.59 23.18L11.59 37.08L3.24 37.08L3.24 43.27L11.59 43.27L11.59 56.95C8.06 57.96 4.82 58.90 2.23 59.54L3.74 66.02C6.12 65.23 8.78 64.44 11.59 63.58L11.59 81.79C11.59 82.80 11.23 83.02 10.30 83.02C9.50 83.09 6.84 83.09 3.96 83.02C4.82 84.74 5.62 87.62 5.76 89.21C10.37 89.21 13.18 88.99 15.12 87.98C17.06 86.90 17.71 85.10 17.71 81.79L17.71 61.70C20.16 60.91 22.68 60.12 25.13 59.33ZM37.15 35.06L25.92 35.06L25.92 41.11L37.15 41.11L37.15 49.97L26.50 49.97L26.50 55.94L37.15 55.94C37.08 58.75 36.86 61.49 36.50 64.15C31.18 65.88 26.06 67.46 22.25 68.47L24.84 74.23C28.01 73.08 31.54 71.78 35.06 70.42C33.26 75.89 29.95 80.78 24.05 84.74C25.49 85.75 27.72 87.91 28.80 89.21C41.54 80.42 43.13 67.46 43.13 53.21L43.13 23.04L37.15 23.04ZM69.05 65.45L55.87 65.45L55.87 55.94L67.03 55.94L67.03 49.97L55.87 49.97L55.87 41.11L67.82 41.11L67.82 35.06L55.87 35.06L55.87 23.04L49.54 23.04L49.54 89.06L55.87 89.06L55.87 71.57L69.05 71.57Z"/></svg>
