<svg xmlns="http://www.w3.org/2000/svg" xmlns:xlink="http://www.w3.org/1999/xlink" width="72.00000000000001" height="106.56000000000002"><path fill="red" stroke="red" d="M67.68 31.03L51.55 31.03C50.62 28.66 49.18 25.42 47.81 22.82L41.47 24.55C42.34 26.50 43.42 28.94 44.21 31.03L27.43 31.03L27.43 36.94L67.68 36.94ZM25.63 60.19L24.70 54.00L18.00 55.94L18.00 43.49L25.20 43.49L25.20 37.15L18.00 37.15L18.00 23.26L11.66 23.26L11.66 37.15L3.46 37.15L3.46 43.49L11.66 43.49L11.66 57.74C8.28 58.75 5.11 59.62 2.59 60.26L4.10 66.89C6.41 66.17 9.00 65.38 11.66 64.58L11.66 81.22C11.66 82.22 11.30 82.51 10.37 82.51C9.58 82.51 6.84 82.51 4.03 82.44C4.90 84.24 5.76 87.12 5.90 88.78C10.44 88.85 13.39 88.56 15.34 87.48C17.28 86.47 18.00 84.60 18.00 81.22L18.00 62.57ZM32.83 66.10C30.31 71.42 26.57 77.26 22.97 81.14C24.48 82.08 26.93 84.10 28.15 85.03C31.68 80.71 36.00 74.02 38.88 68.04ZM37.01 48.02L57.67 48.02L57.67 57.17L37.01 57.17ZM64.15 63.07L64.15 42.12L30.96 42.12L30.96 63.07L44.06 63.07L44.06 81.65C44.06 82.58 43.70 82.80 42.62 82.80C41.62 82.87 37.80 82.87 34.34 82.73C35.21 84.46 36.22 87.19 36.58 89.06C41.76 89.06 45.29 88.99 47.74 87.91C50.26 86.98 50.90 85.25 50.90 81.86L50.90 63.07ZM54.79 68.54C57.74 73.51 61.27 80.35 62.86 84.53L68.54 82.08C66.74 77.90 63.22 71.42 60.12 66.38Z"/></svg>
