<svg xmlns="http://www.w3.org/2000/svg" xmlns:xlink="http://www.w3.org/1999/xlink" width="72.00000000000001" height="106.56000000000002"><path fill="red" stroke="red" d="M66.31 26.57L59.98 26.57L59.98 38.52L49.68 38.52L49.68 23.11L43.34 23.11L43.34 38.52L33.77 38.52L33.77 26.57L27.72 26.57L27.72 43.78L66.31 43.78ZM24.48 53.86C22.10 54.58 19.73 55.30 17.35 56.02L17.35 43.34L24.91 43.34L24.91 37.15L17.35 37.15L17.35 23.26L11.16 23.26L11.16 37.15L3.24 37.15L3.24 43.34L11.16 43.34L11.16 57.74C7.85 58.75 4.82 59.62 2.30 60.26L3.96 66.74C6.12 66.10 8.64 65.30 11.16 64.51L11.16 81.36C11.16 82.30 10.80 82.58 9.86 82.58C9.07 82.66 6.41 82.66 3.53 82.51C4.39 84.31 5.26 87.19 5.40 88.85C9.94 88.85 12.82 88.63 14.76 87.55C16.70 86.47 17.35 84.67 17.35 81.36L17.35 62.57L25.34 59.98ZM69.19 54.07L69.19 48.38L25.20 48.38L25.20 54.07L42.70 54.07C42.34 56.16 41.90 58.32 41.40 60.26L27.36 60.26L27.36 89.28L33.12 89.28L33.12 65.45L38.59 65.45L38.59 88.34L43.85 88.34L43.85 65.45L49.75 65.45L49.75 88.34L54.94 88.34L54.94 65.45L61.06 65.45L61.06 82.94C61.06 83.59 60.91 83.74 60.34 83.74C59.69 83.81 58.18 83.81 56.23 83.74C56.95 85.25 57.74 87.55 57.96 89.21C61.13 89.21 63.29 89.14 64.94 88.13C66.60 87.19 66.96 85.68 66.96 83.02L66.96 60.26L47.66 60.26C48.31 58.39 49.10 56.30 49.82 54.07Z"/></svg>
