<svg xmlns="http://www.w3.org/2000/svg" xmlns:xlink="http://www.w3.org/1999/xlink" width="72.00000000000001" height="106.56000000000002"><path fill="red" stroke="red" d="M24.05 53.50L17.57 55.44L17.57 43.34L24.41 43.34L24.41 37.15L17.57 37.15L17.57 23.18L11.38 23.18L11.38 37.15L3.60 37.15L3.60 43.34L11.38 43.34L11.38 57.17C8.06 58.18 4.97 58.90 2.52 59.54L4.10 66.02L11.38 63.79L11.38 81.86C11.38 82.80 11.09 83.02 10.22 83.02C9.50 83.09 6.98 83.09 4.39 83.02C5.18 84.74 6.05 87.62 6.12 89.21C10.44 89.21 13.18 88.99 15.05 87.91C16.92 86.90 17.57 85.10 17.57 81.86L17.57 61.85C20.02 61.13 22.54 60.34 24.91 59.54ZM31.39 65.81C33.12 64.22 34.70 62.14 36.14 59.98L44.57 59.98L44.57 65.81ZM59.11 32.98C56.88 36.07 53.93 38.74 50.47 41.04C48.46 38.66 45.50 35.50 42.62 32.98ZM50.90 71.14L68.54 71.14L68.54 65.81L50.90 65.81L50.90 59.98L64.58 59.98L64.58 54.58L39.10 54.58C39.46 53.78 39.74 52.99 40.03 52.27L39.74 52.20C51.91 48.02 62.42 41.18 67.90 30.10L63.94 27.86L62.78 28.08L46.01 28.08C47.02 26.86 47.95 25.70 48.82 24.48L42.48 23.18C39.46 27.58 33.70 32.26 25.49 35.57C26.71 36.58 28.51 38.66 29.38 40.10C32.69 38.59 35.57 36.86 38.16 35.06C41.04 37.73 44.06 41.04 46.15 43.63C39.74 46.94 32.40 49.25 25.13 50.47C26.21 51.70 27.43 53.78 28.01 55.37C29.52 55.08 30.96 54.72 32.47 54.36C30.82 57.53 28.58 60.41 25.99 62.50C27.22 63.29 29.30 64.73 30.46 65.81L24.26 65.81L24.26 71.14L44.57 71.14L44.57 81.58L34.63 81.58L34.63 73.58L28.58 73.58L28.58 86.83L59.62 86.83L59.62 89.14L65.81 89.14L65.81 73.51L59.62 73.51L59.62 81.58L50.90 81.58ZM40.46 40.46L26.93 41.98L27.29 46.15L40.75 44.35Z"/></svg>
