<svg xmlns="http://www.w3.org/2000/svg" xmlns:xlink="http://www.w3.org/1999/xlink" width="72.00000000000001" height="106.56000000000002"><path fill="red" stroke="red" d="M54.14 42.34L60.26 42.34L60.26 35.35L67.97 35.35L67.97 29.52L60.26 29.52L60.26 23.47L54.14 23.47L54.14 29.52L47.09 29.52L47.09 35.35L54.14 35.35ZM31.90 42.34L38.02 42.34L38.02 35.35L45.07 35.35L45.07 29.52L38.02 29.52L38.02 23.47L31.90 23.47L31.90 29.52L24.41 29.52L24.41 35.35L31.90 35.35ZM56.59 71.14L56.59 80.86L36.36 80.86L36.36 71.14ZM30.24 88.99L36.36 88.99L36.36 86.47L56.59 86.47L56.59 88.99L63.00 88.99L63.00 65.59L30.24 65.59ZM37.51 55.15C40.46 52.78 43.34 50.04 45.94 47.23C48.67 49.90 52.06 52.63 55.66 55.15ZM45.00 39.17C40.18 46.22 31.97 52.49 23.90 56.45L23.11 52.42L18.22 54.36L18.22 43.34L24.19 43.34L24.19 37.15L18.22 37.15L18.22 23.26L11.74 23.26L11.74 37.15L3.74 37.15L3.74 43.34L11.74 43.34L11.74 56.95C8.64 58.18 5.76 59.26 3.31 60.05L5.11 66.67C7.13 65.81 9.43 64.87 11.74 63.86L11.74 81.14C11.74 82.15 11.38 82.44 10.51 82.44C9.72 82.44 6.98 82.44 4.18 82.37C5.04 84.17 5.90 87.12 6.05 88.85C10.58 88.92 13.54 88.63 15.55 87.48C17.50 86.47 18.22 84.60 18.22 81.14L18.22 61.13L24.34 58.46C25.20 59.83 26.21 61.56 26.64 62.57C29.52 60.91 32.47 59.04 35.35 56.81L35.35 60.70L57.38 60.70L57.38 56.38C60.55 58.54 63.79 60.48 66.74 62.06C67.18 60.34 68.33 57.38 69.34 55.80C62.64 52.99 54.14 47.74 49.32 43.06C49.68 42.55 49.97 42.12 50.26 41.69Z"/></svg>
