<svg xmlns="http://www.w3.org/2000/svg" xmlns:xlink="http://www.w3.org/1999/xlink" width="72.00000000000001" height="106.56000000000002"><path fill="red" stroke="red" d="M22.03 53.78L16.78 55.58L16.78 43.34L22.10 43.34L22.10 37.15L16.78 37.15L16.78 23.18L10.94 23.18L10.94 37.15L3.60 37.15L3.60 43.34L10.94 43.34L10.94 57.60C7.92 58.68 5.11 59.69 2.74 60.34L4.46 66.82L10.94 64.37L10.94 81.65C10.94 82.58 10.66 82.80 9.79 82.80C9.07 82.87 6.55 82.87 3.82 82.73C4.68 84.38 5.40 87.05 5.62 88.63C9.79 88.63 12.53 88.42 14.33 87.41C16.13 86.40 16.78 84.74 16.78 81.58L16.78 62.21C18.86 61.34 21.02 60.48 23.11 59.76ZM59.11 70.27C58.18 72.43 56.81 74.45 55.30 76.18C52.70 74.09 50.11 72.07 47.81 70.27ZM62.78 65.30L61.70 65.45L43.78 65.45L43.78 70.27L46.58 70.27L43.56 72.86C46.15 74.88 48.96 77.18 51.70 79.49C48.67 81.86 45.00 83.59 41.04 84.60C42.12 85.75 43.49 87.91 44.06 89.35C48.46 87.91 52.42 85.90 55.80 83.09C58.54 85.32 60.84 87.48 62.50 89.21L66.38 85.46C64.58 83.88 62.21 81.72 59.47 79.56C62.50 76.03 64.73 71.71 66.17 66.31ZM64.94 33.19C63.29 34.85 60.55 37.30 58.32 38.95C57.31 37.87 56.38 36.58 55.58 35.21C57.74 33.62 60.34 31.46 62.57 29.30L58.61 25.85C57.31 27.36 55.22 29.52 53.42 31.18C52.34 28.87 51.48 26.42 50.83 23.83L45.36 24.77C47.59 33.77 51.34 41.11 57.02 46.30L45.43 46.30L45.43 52.56C45.43 55.51 45.00 58.54 41.40 61.20L41.40 46.30L32.83 46.30C37.94 41.62 41.98 35.06 44.06 26.93L40.46 25.63L39.46 25.85L25.13 25.85L25.13 31.10L36.86 31.10C35.86 33.48 34.56 35.64 33.12 37.66C31.46 36.14 29.30 34.49 27.43 33.34L23.98 36.94C25.85 38.23 28.01 40.03 29.59 41.62C26.71 44.42 23.40 46.58 19.87 48.02C21.02 49.10 22.61 51.34 23.18 52.70C24.55 52.13 25.85 51.48 27.07 50.69L27.07 51.34L36.00 51.34L36.00 57.38L25.49 57.38C24.91 62.57 23.90 69.05 23.11 73.30L35.42 73.30C34.92 79.42 34.27 82.01 33.41 82.94C32.83 83.45 32.26 83.52 31.32 83.52C30.24 83.52 27.72 83.52 25.06 83.23C25.99 84.74 26.64 86.90 26.71 88.56C29.45 88.70 32.11 88.70 33.62 88.56C35.57 88.42 36.86 87.98 38.02 86.69C39.60 85.03 40.39 80.71 41.18 70.78C41.33 69.98 41.40 68.40 41.40 68.40L29.16 68.40C29.45 66.53 29.74 64.51 30.02 62.50L41.40 62.50L41.40 61.49C42.55 62.28 44.42 64.08 45.07 65.09C49.75 61.85 50.69 56.88 50.69 52.70L50.69 51.12L56.02 51.12L56.02 56.38C56.02 60.91 56.81 62.78 61.20 62.78L63.58 62.78C64.66 62.78 65.81 62.71 66.53 62.42C66.38 61.20 66.31 59.40 66.17 58.03C65.45 58.32 64.22 58.39 63.50 58.39L61.99 58.39C61.27 58.39 61.20 57.89 61.20 56.45L61.20 49.54C62.78 50.54 64.44 51.41 66.31 52.20C67.10 50.62 68.83 48.31 70.13 47.09C66.82 45.94 63.94 44.28 61.49 42.12C63.79 40.61 66.53 38.66 68.90 36.65Z"/></svg>
