<svg xmlns="http://www.w3.org/2000/svg" xmlns:xlink="http://www.w3.org/1999/xlink" width="72.00000000000001" height="106.56000000000002"><path fill="red" stroke="red" d="M14.47 52.78L20.02 52.78L20.02 41.83C22.03 43.63 24.05 45.58 25.06 46.73L28.66 42.70C27.36 41.54 22.46 38.09 20.02 36.50L20.02 35.06L26.42 35.06C27.43 36.00 28.73 37.08 29.38 37.80C31.61 36.58 33.91 34.92 36.14 33.12C38.09 34.56 39.67 35.93 40.90 37.08L44.14 34.13L44.14 35.06L51.19 35.06C49.18 39.02 46.01 43.06 42.84 45.14C44.06 46.15 45.86 48.10 46.73 49.32C48.60 47.81 50.33 45.50 51.98 42.98L51.98 52.78L57.60 52.78L57.60 41.69C60.19 44.35 63.29 47.52 64.66 49.25L68.26 45.22C66.60 43.70 59.83 38.02 57.60 36.36L57.60 35.06L66.74 35.06L66.74 29.88L57.60 29.88L57.60 23.11L51.98 23.11L51.98 29.88L44.14 29.88L44.14 33.26C42.91 32.26 41.47 31.10 39.74 29.88C41.40 28.30 42.84 26.64 44.06 24.91L39.38 23.47C38.45 24.70 37.30 26.06 36.00 27.29C34.06 26.06 32.11 24.84 30.46 23.90L26.93 26.93C28.58 27.94 30.46 29.09 32.26 30.31C30.60 31.54 28.87 32.54 27.14 33.55L27.14 29.88L20.02 29.88L20.02 23.11L14.47 23.11L14.47 29.88L5.69 29.88L5.69 35.06L13.90 35.06C11.45 39.31 7.63 43.85 4.25 46.30C5.11 47.74 6.12 50.11 6.62 51.70C9.36 49.54 12.17 46.22 14.47 42.62ZM39.38 37.37C38.38 38.66 37.15 39.96 35.86 41.18C34.06 40.03 32.33 38.81 30.82 37.80L27.29 40.75C28.80 41.76 30.53 42.98 32.11 44.21C29.66 46.01 26.93 47.74 24.26 49.03C25.49 49.82 27.43 51.55 28.37 52.49C30.82 50.98 33.48 49.18 36.00 47.16C38.09 48.89 39.96 50.54 41.33 51.84L44.93 48.38C43.56 47.09 41.76 45.58 39.60 43.99C41.33 42.41 42.84 40.82 44.21 39.10ZM68.04 60.05L68.04 54.72L37.30 54.72C38.30 53.57 39.17 52.42 39.89 51.12L34.27 49.61C33.12 51.48 31.75 53.14 30.10 54.72L3.96 54.72L3.96 60.05L22.75 60.05C16.99 63.36 9.94 65.74 2.59 67.32C3.53 68.54 4.90 71.28 5.33 72.58C12.74 70.63 19.87 67.97 25.99 64.30C26.42 65.16 26.78 66.17 26.93 66.96C29.30 66.96 31.97 66.89 34.56 66.67L34.56 69.41L16.85 69.41L16.85 73.30L34.56 73.30L34.56 76.25L7.70 76.25L7.70 80.35L34.56 80.35L34.56 83.09C34.56 84.24 34.06 84.53 32.76 84.60C31.39 84.67 26.06 84.67 21.10 84.46C21.89 85.90 22.75 87.77 23.11 89.21C29.74 89.21 34.20 89.28 37.01 88.56C39.74 87.84 40.68 86.62 40.68 83.30L40.68 80.35L63.14 80.35L63.14 76.25L40.68 76.25L40.68 73.30L55.94 73.30L55.94 69.41L40.68 69.41L40.68 66.24C43.56 65.88 46.37 65.45 48.74 65.02L44.78 61.78C40.75 62.64 33.70 63.22 27.29 63.43C28.94 62.35 30.53 61.27 31.97 60.05L44.64 60.05C50.04 65.52 58.25 70.20 66.10 72.43C66.89 70.99 68.54 68.83 69.84 67.75C63.50 66.24 56.88 63.50 52.06 60.05Z"/></svg>
