<svg xmlns="http://www.w3.org/2000/svg" xmlns:xlink="http://www.w3.org/1999/xlink" width="72.00000000000001" height="106.56000000000002"><path fill="red" stroke="red" d="M20.52 53.71L15.70 55.58L15.70 43.34L20.52 43.34L20.52 37.15L15.70 37.15L15.70 23.18L10.30 23.18L10.30 37.15L3.60 37.15L3.60 43.34L10.30 43.34L10.30 57.74C7.49 58.82 4.97 59.69 2.81 60.41L4.46 66.82L10.30 64.44L10.30 81.65C10.30 82.58 9.94 82.80 9.22 82.80C8.50 82.87 6.19 82.87 3.82 82.73C4.54 84.38 5.18 87.05 5.33 88.63C9.22 88.63 11.74 88.42 13.46 87.41C15.12 86.40 15.70 84.74 15.70 81.58L15.70 62.28C17.64 61.42 19.66 60.62 21.53 59.76ZM38.02 30.02L38.02 33.98L28.66 33.98L28.66 30.02ZM28.66 42.55L28.66 38.45L38.02 38.45L38.02 42.55ZM43.06 47.23L43.06 25.34L23.26 25.34L23.26 89.14L28.66 89.14L28.66 47.23ZM49.46 69.12C50.40 67.68 51.41 65.81 52.42 63.86L49.82 62.57C49.25 64.08 48.24 66.53 47.38 67.97ZM37.37 63.65C38.09 65.23 39.10 67.46 39.53 68.90L41.90 67.82C41.47 66.53 40.61 64.37 39.67 62.71ZM51.48 42.55L51.48 38.45L61.34 38.45L61.34 42.55ZM61.34 30.02L61.34 33.98L51.48 33.98L51.48 30.02ZM36.29 62.06L42.84 62.06L42.84 69.62L36.29 69.62ZM53.21 69.62L46.44 69.62L46.44 62.06L53.21 62.06ZM66.74 25.34L46.30 25.34L46.30 47.23L61.34 47.23L61.34 81.94C61.34 82.80 61.06 83.09 60.26 83.16C59.62 83.16 57.60 83.16 55.30 83.09L57.31 80.42C55.22 78.41 51.48 75.53 48.17 73.15L57.10 73.15L57.10 58.46L47.09 58.46L47.09 55.58L58.25 55.58L58.25 51.12L47.09 51.12L47.09 47.30L42.26 47.30L42.26 51.12L31.25 51.12L31.25 55.58L42.26 55.58L42.26 58.46L32.54 58.46L32.54 73.15L40.10 73.15C37.37 76.68 33.41 80.28 30.10 82.22C30.96 83.30 32.18 85.32 32.76 86.62C35.93 84.31 39.46 80.64 42.26 77.04L42.26 88.27L47.02 88.27L47.02 77.69C49.90 79.99 52.85 82.44 54.58 84.17L54.94 83.66C55.58 85.25 56.09 87.48 56.23 88.85C60.19 88.92 62.78 88.78 64.51 87.77C66.24 86.76 66.74 85.03 66.74 81.94Z"/></svg>
