<svg xmlns="http://www.w3.org/2000/svg" xmlns:xlink="http://www.w3.org/1999/xlink" width="72.00000000000001" height="106.56000000000002"><path fill="red" stroke="red" d="M51.05 56.45C47.59 62.78 42.48 67.75 36.29 71.71C30.10 67.68 25.20 62.57 21.82 56.45ZM56.16 49.61L54.94 49.90L39.24 49.90L39.24 40.03L66.10 40.03L66.10 33.41L39.24 33.41L39.24 23.18L32.33 23.18L32.33 33.41L5.69 33.41L5.69 40.03L32.33 40.03L32.33 49.90L9.00 49.90L9.00 56.45L17.35 56.45L14.83 57.38C18.58 64.58 23.54 70.56 29.66 75.31C21.67 78.98 12.46 81.36 2.52 82.80C3.82 84.31 5.62 87.41 6.12 89.21C16.92 87.26 27.14 84.24 36.00 79.49C43.99 84.10 53.57 87.12 65.02 88.78C65.88 86.83 67.75 83.88 69.19 82.30C59.04 81.07 50.18 78.77 42.77 75.24C50.69 69.55 56.95 62.06 60.84 52.34Z"/></svg>
