<svg xmlns="http://www.w3.org/2000/svg" xmlns:xlink="http://www.w3.org/1999/xlink" width="72.00000000000001" height="106.56000000000002"><path fill="red" stroke="red" d="M55.37 38.45C53.21 35.42 48.53 31.10 44.64 28.15L40.10 31.75C43.92 34.92 48.53 39.46 50.62 42.48ZM37.22 49.61C41.33 52.42 46.30 56.74 48.38 59.69L53.06 55.44C50.69 52.49 45.72 48.38 41.54 45.79ZM9.22 64.66C7.85 70.34 5.54 76.25 2.66 80.28C4.18 81.00 6.70 82.58 7.92 83.52C10.73 79.13 13.46 72.36 15.12 66.02ZM37.08 60.77L37.08 54.79L24.41 54.79L24.41 47.95L33.34 47.95L33.34 42.05L13.54 42.05C16.70 39.31 19.80 36.22 22.54 32.98C27.72 36.43 33.05 40.61 36.29 44.06L40.03 38.88C36.79 35.71 31.54 31.61 26.14 28.30C26.71 27.29 27.36 26.35 27.94 25.42L22.25 23.04C17.57 30.53 9.50 37.58 2.02 41.90C2.88 43.49 4.46 47.09 4.90 48.60C6.41 47.59 7.99 46.44 9.50 45.36L9.50 47.95L18.07 47.95L18.07 54.79L4.03 54.79L4.03 60.77L18.07 60.77L18.07 81.94C18.07 82.80 17.78 83.02 16.92 83.09C16.06 83.09 13.18 83.09 10.22 83.02C11.09 84.67 11.95 87.41 12.24 89.14C16.78 89.14 19.73 88.99 21.82 87.91C23.83 86.98 24.41 85.18 24.41 82.01L24.41 60.77ZM27.14 66.38C29.59 71.14 31.97 77.40 32.76 81.29L38.23 78.98C37.37 75.10 34.85 69.05 32.40 64.44ZM69.77 67.54L68.62 61.34L62.57 62.57L62.57 23.18L55.94 23.18L55.94 64.01L37.51 67.97L38.74 74.30L55.94 70.56L55.94 89.21L62.57 89.21L62.57 69.05Z"/></svg>
