<svg xmlns="http://www.w3.org/2000/svg" xmlns:xlink="http://www.w3.org/1999/xlink" width="72.00000000000001" height="106.56000000000002"><path fill="red" stroke="red" d="M10.87 55.94L16.92 55.94L16.92 61.42L10.87 61.42ZM10.87 45.86L16.92 45.86L16.92 51.34L10.87 51.34ZM28.30 51.34L21.96 51.34L21.96 45.86L28.30 45.86ZM28.30 61.42L21.96 61.42L21.96 55.94L28.30 55.94ZM68.90 46.73L45.00 46.73L45.00 35.21C52.56 33.98 60.77 32.11 66.82 29.81L62.64 24.41C56.81 26.86 47.16 29.23 38.81 30.74L38.81 54.50C38.81 61.92 38.30 69.34 35.42 76.18L35.42 71.35L22.61 71.35L22.61 66.31L33.70 66.31L33.70 41.04L22.68 41.04L22.68 36.22L34.70 36.22L34.70 30.38L22.68 30.38L22.68 23.11L16.34 23.11L16.34 30.38L3.96 30.38L3.96 36.22L16.34 36.22L16.34 41.04L5.62 41.04L5.62 66.31L16.34 66.31L16.34 71.35L2.95 71.35L2.95 77.26L16.34 77.26L16.34 89.21L22.61 89.21L22.61 77.26L34.92 77.26C33.70 79.92 32.04 82.58 29.88 85.03C31.54 86.11 33.55 87.91 34.70 89.35C43.49 79.42 45.00 67.54 45.00 54.58L45.00 52.92L54.14 52.92L54.14 89.21L60.55 89.21L60.55 52.92L68.90 52.92Z"/></svg>
