<svg xmlns="http://www.w3.org/2000/svg" xmlns:xlink="http://www.w3.org/1999/xlink" width="72.00000000000001" height="106.56000000000002"><path fill="red" stroke="red" d="M68.40 38.02L68.40 31.97L43.06 31.97C44.06 29.52 45.00 26.93 45.72 24.41L39.67 23.11C37.51 30.96 33.55 38.74 28.73 43.78C30.17 44.50 32.76 46.37 33.91 47.38C36.07 44.78 38.30 41.62 40.18 38.02ZM29.59 50.04L16.56 50.04C16.70 47.02 16.78 43.85 16.85 40.61L31.03 40.61L31.03 34.49L18.58 34.49L23.33 32.69C22.10 30.10 19.44 25.92 17.21 22.90L11.30 24.98C13.25 27.94 15.55 31.82 16.78 34.49L3.10 34.49L3.10 40.61L10.51 40.61C10.30 59.76 9.72 75.31 2.38 84.53C4.03 85.54 6.05 87.70 7.06 89.21C13.32 81.36 15.48 69.91 16.34 56.02L23.40 56.02C22.97 73.37 22.54 79.70 21.46 81.14C20.88 81.94 20.30 82.15 19.44 82.08C18.29 82.08 16.06 82.08 13.61 81.86C14.54 83.52 15.19 86.04 15.26 87.84C18.07 87.84 20.81 87.91 22.46 87.62C24.41 87.41 25.70 86.76 26.93 85.03C28.66 82.66 29.16 74.95 29.59 52.78ZM68.33 67.82L68.33 61.78L53.64 61.78C53.71 61.06 53.71 60.34 53.71 59.69L53.71 52.56L65.66 52.56L65.66 46.66L45.86 46.66C46.73 44.86 47.45 42.98 48.10 41.11L42.05 39.74C40.03 45.94 36.58 52.06 32.40 56.02C33.91 56.81 36.43 58.54 37.66 59.47C39.46 57.60 41.26 55.22 42.77 52.56L47.23 52.56L47.23 59.62C47.23 60.34 47.23 61.06 47.16 61.78L32.54 61.78L32.54 67.82L46.30 67.82C44.78 73.51 40.68 79.85 30.10 84.67C31.54 85.82 33.62 87.91 34.56 89.35C46.58 83.16 51.26 75.17 52.85 67.82ZM52.20 71.93C56.30 77.26 61.42 84.60 63.79 88.99L69.19 85.68C66.67 81.36 61.34 74.30 57.24 69.19Z"/></svg>
