<svg xmlns="http://www.w3.org/2000/svg" xmlns:xlink="http://www.w3.org/1999/xlink" width="72.00000000000001" height="106.56000000000002"><path fill="red" stroke="red" d="M53.35 35.57L18.14 35.57L18.14 30.74L53.35 30.74ZM53.35 45.07L18.14 45.07L18.14 40.25L53.35 40.25ZM60.12 25.78L11.66 25.78L11.66 49.97L60.12 49.97ZM40.03 72.72L62.93 72.72L62.93 66.89L40.03 66.89L40.03 60.05L67.61 60.05L67.61 54.14L4.54 54.14L4.54 60.05L33.34 60.05L33.34 80.21C27.72 78.70 23.69 75.53 21.10 69.70C21.82 67.61 22.39 65.30 22.90 62.93L16.20 61.99C14.40 72.00 9.94 79.92 2.59 84.60C4.03 85.68 6.55 88.13 7.56 89.35C11.95 86.18 15.55 81.94 18.22 76.75C24.12 85.90 33.26 87.91 47.02 87.91L66.89 87.91C67.25 86.04 68.26 83.09 69.19 81.58C64.94 81.65 50.54 81.72 47.38 81.65C44.78 81.65 42.26 81.58 40.03 81.36Z"/></svg>
