<svg xmlns="http://www.w3.org/2000/svg" xmlns:xlink="http://www.w3.org/1999/xlink" width="72.00000000000001" height="106.56000000000002"><path fill="red" stroke="red" d="M19.37 34.85L19.37 48.82L11.45 48.82L11.45 34.85ZM11.45 69.98L11.45 54.72L19.37 54.72L19.37 69.98ZM25.56 28.80L5.33 28.80L5.33 81.43L11.45 81.43L11.45 76.03L25.56 76.03ZM57.74 69.91L57.74 80.50L36.65 80.50L36.65 69.91ZM30.46 89.21L36.65 89.21L36.65 86.26L57.74 86.26L57.74 88.92L64.22 88.92L64.22 64.08L30.46 64.08ZM56.23 43.99C56.09 46.80 55.80 50.11 55.51 53.06L42.55 53.06C43.13 50.40 43.78 47.23 44.35 43.99ZM62.06 53.06C62.50 48.46 62.86 43.13 63.07 38.38L58.25 38.02L57.24 38.30L45.43 38.30C45.86 36.07 46.30 33.77 46.66 31.68L66.89 31.68L66.89 25.99L27.94 25.99L27.94 31.68L39.82 31.68C39.53 33.77 39.17 36.07 38.74 38.30L29.81 38.30L29.81 43.99L37.73 43.99C37.08 47.23 36.50 50.40 35.93 53.06L26.78 53.06L26.78 58.90L68.90 58.90L68.90 53.06Z"/></svg>
