<svg xmlns="http://www.w3.org/2000/svg" xmlns:xlink="http://www.w3.org/1999/xlink" width="72.00000000000001" height="106.56000000000002"><path fill="red" stroke="red" d="M52.92 71.14L52.92 74.74L19.73 74.74L19.73 71.14ZM19.73 82.73L19.73 78.91L52.92 78.91L52.92 82.73ZM13.18 89.35L19.73 89.35L19.73 87.19L52.92 87.19L52.92 89.28L59.69 89.28L59.69 66.82L13.18 66.82ZM39.10 40.18L52.70 40.18L52.70 43.70L39.10 43.70ZM39.10 31.90L52.70 31.90L52.70 35.35L39.10 35.35ZM39.10 59.04L39.10 55.58L62.86 55.58L62.86 51.26L39.10 51.26L39.10 47.95L59.33 47.95L59.33 40.18L67.82 40.18L67.82 35.35L59.33 35.35L59.33 27.79L39.10 27.79L39.10 22.90L32.33 22.90L32.33 27.79L11.66 27.79L11.66 31.90L32.33 31.90L32.33 35.35L4.18 35.35L4.18 40.18L32.33 40.18L32.33 43.70L10.80 43.70L10.80 47.95L32.33 47.95L32.33 51.26L9.07 51.26L9.07 55.58L32.33 55.58L32.33 59.04L4.10 59.04L4.10 63.86L67.90 63.86L67.90 59.04Z"/></svg>
