<svg xmlns="http://www.w3.org/2000/svg" xmlns:xlink="http://www.w3.org/1999/xlink" width="72.00000000000001" height="106.56000000000002"><path fill="red" stroke="red" d="M67.54 59.47L67.54 52.85L39.53 52.85L39.53 41.40L62.06 41.40L62.06 34.85L39.53 34.85L39.53 23.11L32.47 23.11L32.47 34.85L21.46 34.85C22.68 32.11 23.69 29.30 24.62 26.35L17.78 24.91C15.34 33.34 11.02 41.83 5.76 47.09C7.56 47.81 10.66 49.46 12.17 50.47C14.26 47.95 16.34 44.86 18.22 41.40L32.47 41.40L32.47 52.85L4.61 52.85L4.61 59.47L28.01 59.47C21.67 67.68 11.95 75.31 2.59 79.42C4.18 80.86 6.41 83.52 7.56 85.25C16.56 80.64 25.78 72.65 32.47 63.79L32.47 89.21L39.53 89.21L39.53 63.79C46.51 72.43 55.94 80.28 65.09 84.74C66.17 82.87 68.47 80.21 69.98 78.84C60.62 74.88 50.69 67.39 44.14 59.47Z"/></svg>
