<svg xmlns="http://www.w3.org/2000/svg" xmlns:xlink="http://www.w3.org/1999/xlink" width="72.00000000000001" height="106.56000000000002"><path fill="red" stroke="red" d="M19.51 44.78L19.44 42.91L26.21 42.91L26.21 36.72L19.44 36.72L19.44 23.18L13.03 23.18L13.03 36.72L3.67 36.72L3.67 42.91L13.03 42.91L13.03 43.85C10.87 52.92 6.70 63.14 2.38 68.76C3.53 70.49 5.04 73.44 5.69 75.38C8.35 71.57 10.94 65.81 13.03 59.54L13.03 89.21L19.44 89.21L19.44 52.85C21.31 56.38 23.40 60.48 24.34 62.86L28.51 58.03C27.22 55.80 21.17 46.87 19.51 44.78ZM55.51 57.53L39.31 57.53L39.31 43.56L55.51 43.56ZM39.31 78.48L39.31 63.94L55.51 63.94L55.51 78.48ZM68.90 37.01L62.35 37.01L62.35 23.11L55.51 23.11L55.51 37.01L39.31 37.01L39.31 23.11L32.54 23.11L32.54 37.01L27.65 37.01L27.65 43.56L32.54 43.56L32.54 89.21L39.31 89.21L39.31 85.03L55.51 85.03L55.51 89.06L62.35 89.06L62.35 43.56L68.90 43.56Z"/></svg>
