<svg xmlns="http://www.w3.org/2000/svg" xmlns:xlink="http://www.w3.org/1999/xlink" width="72.00000000000001" height="106.56000000000002"><path fill="red" stroke="red" d="M62.06 24.98C60.55 29.16 57.60 34.92 55.37 38.59L60.91 40.82C63.22 37.30 66.02 32.11 68.33 27.36ZM40.75 38.38C39.67 34.78 36.72 29.38 33.84 25.34L28.37 27.94C31.18 32.04 34.06 37.73 34.99 41.33ZM28.15 58.68C27.00 56.66 21.82 48.60 19.80 45.94L19.80 42.91L27.22 42.91L27.22 36.72L19.80 36.72L19.80 23.18L13.68 23.18L13.68 36.72L3.60 36.72L3.60 42.91L13.18 42.91C11.09 52.20 6.84 63.00 2.30 68.76C3.46 70.49 4.97 73.51 5.62 75.38C8.57 71.06 11.45 64.51 13.68 57.46L13.68 89.21L19.80 89.21L19.80 54.29C21.53 57.53 23.33 61.13 24.19 63.29ZM65.74 43.34L51.34 43.34L51.34 23.11L44.93 23.11L44.93 43.34L29.59 43.34L29.59 64.01C29.59 70.99 29.30 79.63 25.85 85.82C27.22 86.54 29.95 88.49 31.10 89.64C35.14 82.73 35.78 72.07 35.78 64.08L35.78 49.18L59.40 49.18L59.40 64.44C50.90 66.46 42.26 68.33 36.29 69.55L38.38 75.17C44.42 73.73 52.06 71.86 59.40 69.91L59.40 81.36C59.40 82.37 59.04 82.73 58.03 82.73C56.88 82.80 53.28 82.80 49.68 82.66C50.40 84.31 51.34 87.19 51.55 88.85C56.88 88.85 60.48 88.85 62.71 87.77C65.02 86.76 65.74 84.82 65.74 81.50ZM37.51 57.38C43.42 58.75 50.98 61.56 54.86 63.72L57.67 59.04C53.64 56.95 46.08 54.43 40.18 53.21Z"/></svg>
