<svg xmlns="http://www.w3.org/2000/svg" xmlns:xlink="http://www.w3.org/1999/xlink" width="72.00000000000001" height="106.56000000000002"><path fill="red" stroke="red" d="M64.73 23.90L58.32 23.90L58.32 52.92C58.32 53.86 58.03 54.14 56.88 54.14C55.80 54.22 51.91 54.22 48.02 54.07C48.89 55.73 49.75 58.18 50.11 59.90C55.44 59.90 59.18 59.83 61.56 58.90C64.01 58.03 64.73 56.38 64.73 52.99ZM48.96 26.42L42.62 26.42L42.62 50.76L48.96 50.76ZM18.58 60.12L24.77 60.12L24.77 47.88C27.94 50.18 31.54 52.85 33.48 54.50L37.22 49.18C35.21 47.88 28.15 43.56 24.77 41.76L24.77 41.69L37.58 41.69L37.58 36.22L24.77 36.22L24.77 30.31C29.09 29.81 33.12 29.16 36.43 28.30L32.47 23.40C25.92 25.06 14.40 26.28 4.90 26.71C5.54 28.15 6.19 30.31 6.41 31.75C10.22 31.61 14.40 31.39 18.58 30.96L18.58 36.22L4.46 36.22L4.46 41.69L15.84 41.69C12.46 46.51 7.42 51.19 2.66 53.64C4.03 54.79 6.05 56.95 6.91 58.46C11.02 55.73 15.26 51.48 18.58 46.66ZM24.34 70.85C19.73 75.53 10.73 79.63 2.59 81.58C4.03 82.80 6.05 85.39 6.98 87.05C15.55 84.53 24.62 79.13 29.88 72.94ZM67.75 70.06L67.75 64.22L39.24 64.22L39.24 58.54L32.47 58.54L32.47 64.22L4.39 64.22L4.39 70.06L32.47 70.06L32.47 89.21L39.24 89.21L39.24 70.06ZM42.98 74.30C50.11 78.05 59.33 83.66 63.65 87.41L68.69 82.94C63.94 79.20 54.65 73.87 47.59 70.42Z"/></svg>
