<svg xmlns="http://www.w3.org/2000/svg" xmlns:xlink="http://www.w3.org/1999/xlink" width="72.00000000000001" height="106.56000000000002"><path fill="red" stroke="red" d="M57.60 37.58C55.58 39.74 52.92 41.76 49.82 43.49C48.53 41.90 47.30 40.10 46.30 38.09L67.10 36.94L66.74 31.39L58.46 31.82L61.49 28.58C59.18 26.78 54.86 24.34 51.48 22.82L48.02 26.35C51.05 27.86 54.72 30.17 57.02 31.97L43.99 32.69C42.98 29.74 42.34 26.50 42.05 23.11L35.93 23.11C36.22 26.57 36.86 29.88 37.73 33.05L28.08 33.55L28.51 39.10L39.67 38.45C40.97 41.33 42.41 43.92 44.14 46.15C39.02 48.24 33.26 49.75 27.43 50.83C28.73 52.20 30.17 54.29 30.82 55.80C36.79 54.50 42.62 52.63 47.88 50.33C51.62 53.78 56.02 55.80 60.55 55.80C65.38 55.80 67.39 54.07 68.40 47.02C66.82 46.51 64.87 45.58 63.58 44.42C63.22 48.67 62.64 49.90 60.84 49.90C58.54 49.90 56.09 48.96 53.71 47.23C57.31 45.14 60.41 42.70 62.78 39.89ZM27.86 60.98C26.71 59.11 21.38 51.05 19.44 48.46L19.44 44.50L27.14 44.50L27.14 38.30L19.44 38.30L19.44 23.11L13.25 23.11L13.25 38.30L3.89 38.30L3.89 44.50L12.67 44.50C10.73 53.64 6.62 64.30 2.38 70.20C3.31 71.64 4.90 74.16 5.54 75.96C8.42 71.86 11.09 65.52 13.25 58.68L13.25 89.14L19.44 89.14L19.44 56.38C21.31 59.76 23.40 63.65 24.34 65.88ZM57.67 68.47C55.51 71.28 52.56 73.66 49.03 75.67C47.52 73.66 46.15 71.21 44.93 68.54L68.11 67.25L67.75 61.63L56.88 62.21L60.05 59.18C57.82 57.24 53.50 54.86 50.11 53.28L46.30 56.74C49.32 58.25 52.92 60.48 55.22 62.28L42.98 62.93C42.34 60.48 41.90 57.82 41.69 55.08L35.42 55.08C35.64 57.89 36.07 60.70 36.72 63.29L27.07 63.79L27.36 69.55L38.38 68.90C39.67 72.50 41.40 75.74 43.34 78.55C38.09 80.78 32.04 82.37 25.78 83.45C27.14 84.96 28.73 87.34 29.45 89.06C35.86 87.62 41.90 85.68 47.30 83.16C51.26 86.98 55.94 89.28 60.70 89.28C65.81 89.28 67.97 87.48 68.90 79.78C67.32 79.34 65.16 78.34 63.86 77.18C63.50 81.79 62.86 83.23 60.98 83.30C58.39 83.30 55.66 82.15 53.06 79.99C57.17 77.47 60.62 74.38 63.22 70.85Z"/></svg>
