<svg xmlns="http://www.w3.org/2000/svg" xmlns:xlink="http://www.w3.org/1999/xlink" width="72.00000000000001" height="106.56000000000002"><path fill="red" stroke="red" d="M25.63 37.66C26.93 38.66 28.87 40.39 29.66 41.40C31.90 39.74 34.20 37.87 36.50 35.71C38.16 37.01 39.74 38.38 40.82 39.60L44.57 36.00L44.57 37.66L51.26 37.66C49.39 43.13 46.37 48.38 42.98 51.70C41.90 50.83 40.75 49.82 39.46 48.82C41.18 46.66 42.77 44.21 43.99 41.76L38.52 40.25C37.58 42.19 36.43 43.99 35.06 45.79C33.26 44.57 31.32 43.49 29.66 42.55L26.21 45.86C24.41 44.14 21.02 41.04 19.08 39.46L19.08 37.66ZM13.32 60.62L19.08 60.62L19.08 45.14C20.81 47.38 22.68 49.75 23.54 51.05L27.00 46.73C28.44 47.52 30.02 48.60 31.54 49.68C29.16 51.91 26.57 54.00 23.90 55.51C25.20 56.38 27.43 58.25 28.37 59.26C30.89 57.53 33.48 55.37 35.86 52.92C37.66 54.43 39.24 55.80 40.39 57.02L43.27 54.07C44.28 55.08 45.22 56.23 45.79 57.10C48.31 54.58 50.76 50.76 52.63 46.44L52.63 60.62L58.39 60.62L58.39 45.65C60.91 49.18 63.72 53.35 64.94 55.58L68.69 51.19C67.18 49.25 61.13 42.26 58.39 39.46L58.39 37.66L67.68 37.66L67.68 31.97L58.39 31.97L58.39 23.11L52.63 23.11L52.63 31.97L44.57 31.97L44.57 35.42C43.42 34.27 41.83 33.05 40.18 31.68C41.69 29.81 43.20 27.72 44.35 25.70L39.17 24.05C38.23 25.70 37.08 27.22 35.78 28.80C33.98 27.58 32.11 26.50 30.46 25.56L26.64 29.02C28.37 30.10 30.31 31.25 32.11 32.54C30.31 34.20 28.22 35.78 26.21 37.01L26.21 31.97L19.08 31.97L19.08 23.11L13.32 23.11L13.32 31.97L4.46 31.97L4.46 37.66L12.10 37.66C9.86 42.98 6.12 48.46 2.59 51.62C3.53 53.06 4.75 55.44 5.26 57.10C8.21 54.50 11.09 50.33 13.32 45.79ZM67.18 70.92L67.18 65.02L38.38 65.02C38.81 62.93 39.10 60.70 39.31 58.32L32.47 58.32C32.26 60.70 31.97 63.00 31.46 65.02L4.90 65.02L4.90 70.92L29.52 70.92C26.21 77.33 19.22 81.22 3.10 83.30C4.25 84.74 5.76 87.48 6.26 89.21C25.63 86.26 33.41 80.35 36.86 70.92L40.25 70.92L37.51 75.67C47.09 79.13 59.40 84.89 65.52 89.06L68.62 83.30C62.50 79.42 50.33 74.02 40.97 70.92Z"/></svg>
