<svg xmlns="http://www.w3.org/2000/svg" xmlns:xlink="http://www.w3.org/1999/xlink" width="72.00000000000001" height="106.56000000000002"><path fill="red" stroke="red" d="M17.64 42.91L23.69 42.91L23.69 36.72L17.64 36.72L17.64 23.11L11.88 23.11L11.88 36.72L3.82 36.72L3.82 42.91L11.02 42.91C9.29 51.70 5.90 61.92 2.23 67.46C3.17 69.19 4.61 72.22 5.18 74.09C7.63 69.91 10.08 63.43 11.88 56.59L11.88 89.14L17.64 89.14L17.64 55.37C19.22 58.61 20.88 62.21 21.67 64.44L25.13 59.40C24.19 57.46 19.58 49.75 17.64 46.94ZM39.17 81.00C34.13 81.00 32.47 79.20 32.47 74.16L32.47 32.69L67.61 32.69L67.61 27.00L24.05 27.00L24.05 32.69L26.50 32.69L26.50 73.80C26.50 83.45 30.24 86.69 39.53 86.69L59.62 86.69C63.65 86.69 67.61 86.54 69.34 86.04C69.05 84.74 68.69 81.94 68.47 80.35C66.53 80.71 62.71 81.00 59.90 81.00ZM56.23 48.31L45.07 48.31L45.07 41.54L56.23 41.54ZM61.85 36.72L39.74 36.72L39.74 53.21L61.85 53.21ZM39.53 60.98L44.78 60.98L44.78 72.00L39.53 72.00ZM35.28 76.18L49.25 76.18L49.25 56.81L35.28 56.81ZM62.21 72.00L56.81 72.00L56.81 60.98L62.21 60.98ZM66.82 56.81L52.42 56.81L52.42 76.18L66.82 76.18Z"/></svg>
