<svg xmlns="http://www.w3.org/2000/svg" xmlns:xlink="http://www.w3.org/1999/xlink" width="72.00000000000001" height="106.56000000000002"><path fill="red" stroke="red" d="M61.70 24.62C60.62 27.50 58.61 31.61 57.02 34.27L61.42 36.07C63.14 33.77 65.16 30.17 67.18 26.78ZM36.14 34.20C35.50 31.61 33.41 27.86 31.39 24.84L26.78 26.86C28.73 29.81 30.67 33.91 31.32 36.43ZM26.35 59.26C25.13 57.24 20.09 49.39 18.14 46.66L18.14 42.91L23.83 42.91L23.83 36.72L18.14 36.72L18.14 23.18L12.02 23.18L12.02 36.72L3.53 36.72L3.53 42.91L11.45 42.91C9.58 51.77 5.54 62.50 1.44 68.26C2.59 69.98 4.03 72.94 4.75 74.95C7.42 70.70 10.01 64.15 12.02 57.31L12.02 89.21L18.14 89.21L18.14 55.08C19.87 58.32 21.53 61.78 22.39 63.86ZM55.08 42.34C54.36 44.57 53.21 47.66 52.06 50.04L41.76 50.04C41.26 47.95 40.10 44.71 38.88 42.34ZM68.83 74.23L68.83 68.98L48.74 68.98C48.96 67.61 49.03 66.31 49.03 64.94L49.03 64.51L64.73 64.51L64.73 59.40L49.03 59.40L49.03 55.22L66.96 55.22L66.96 50.04L57.89 50.04C58.90 48.10 60.12 45.79 61.20 43.63L56.23 42.34L68.11 42.34L68.11 36.94L55.08 36.94L55.08 23.18L49.46 23.18L49.46 36.94L43.92 36.94L43.92 23.18L38.38 23.18L38.38 36.94L25.78 36.94L25.78 42.34L38.59 42.34L33.62 43.70C34.49 45.65 35.42 48.10 36.00 50.04L26.78 50.04L26.78 55.22L42.98 55.22L42.98 59.40L29.02 59.40L29.02 64.51L42.98 64.51L42.98 64.87C42.98 66.24 42.91 67.54 42.62 68.98L25.34 68.98L25.34 74.23L40.68 74.23C38.23 78.05 33.48 81.72 23.98 84.31C25.27 85.54 27.14 87.62 27.79 88.99C39.38 85.10 44.86 79.78 47.30 74.23ZM45.94 79.13C52.42 82.01 60.77 86.62 64.87 89.71L68.98 85.46C64.66 82.44 56.23 78.05 49.90 75.38Z"/></svg>
