<svg xmlns="http://www.w3.org/2000/svg" xmlns:xlink="http://www.w3.org/1999/xlink" width="72.00000000000001" height="106.56000000000002"><path fill="red" stroke="red" d="M61.92 39.74C61.06 44.21 59.90 48.67 58.75 51.77L64.15 53.50C65.95 48.67 67.97 41.18 69.26 34.70L64.80 33.41L63.86 33.62L49.32 33.62C50.11 30.60 50.69 27.36 51.19 24.12L44.78 23.11C43.34 33.62 40.32 43.78 35.50 50.11C37.08 50.90 39.96 52.70 41.11 53.71C43.70 49.97 45.86 45.14 47.59 39.74ZM21.60 61.85C20.74 66.60 17.93 71.57 13.90 74.30C14.69 75.17 15.84 76.82 16.49 77.90C18.86 76.32 20.88 73.87 22.54 71.14C24.70 73.37 27.07 76.03 28.37 77.76L31.32 74.45C29.74 72.50 26.86 69.62 24.34 67.32C24.98 65.81 25.49 64.22 25.85 62.71ZM15.19 78.55C13.61 78.55 13.32 77.90 13.32 75.89L13.32 63.50L12.31 63.50C12.89 62.86 13.39 62.06 13.97 61.27L33.12 61.27C32.47 75.46 31.68 80.93 30.60 82.44C30.38 82.66 30.10 82.87 29.81 83.02C29.66 81.65 29.52 79.56 29.38 78.12C28.22 78.48 26.14 78.55 24.77 78.55ZM14.40 41.11L30.24 41.11L30.24 46.22L14.40 46.22ZM14.40 31.39L30.24 31.39L30.24 36.29L14.40 36.29ZM55.15 43.63L48.96 43.63L48.96 50.04C48.96 59.26 47.74 72.65 36.29 82.87C37.08 78.62 37.66 71.28 38.23 58.32C38.30 57.46 38.38 55.66 38.38 55.66L17.35 55.66C18.14 54.29 18.86 52.78 19.51 51.34L35.35 51.34L35.35 26.35L9.50 26.35L9.50 51.34L13.68 51.34C10.73 56.95 6.34 62.35 2.09 65.95C3.10 67.18 4.82 70.13 5.40 71.50C6.55 70.42 7.56 69.34 8.71 68.04L8.71 75.82C8.71 81.94 10.08 83.88 15.26 83.88L22.54 83.88C23.11 85.46 23.40 87.48 23.54 89.06C26.42 89.21 29.23 89.21 30.82 88.99C32.62 88.78 33.70 88.13 34.85 86.47C34.99 86.26 35.21 85.97 35.35 85.68C36.50 86.83 37.73 88.49 38.38 89.57C46.08 83.59 50.33 76.39 52.56 69.26C55.22 77.33 59.04 83.59 65.09 89.35C66.02 87.55 67.82 85.54 69.55 84.24C61.20 76.90 57.46 68.40 55.08 54.50C55.15 52.99 55.15 51.55 55.15 50.11Z"/></svg>
