<svg xmlns="http://www.w3.org/2000/svg" xmlns:xlink="http://www.w3.org/1999/xlink" width="72.00000000000001" height="106.56000000000002"><path fill="red" stroke="red" d="M66.74 34.27C64.73 31.32 60.19 27.14 56.38 24.34L51.70 27.72C55.51 30.74 59.90 35.14 61.85 38.09ZM36.94 26.93L9.79 26.93L9.79 32.90L36.94 32.90ZM29.02 63.72L40.46 63.72L40.46 57.82L29.02 57.82L29.02 48.60L22.61 48.60L22.61 78.48L15.55 79.70L15.55 53.71L9.36 53.71L9.36 80.78C7.13 81.07 4.97 81.43 3.10 81.72L4.75 88.20C14.98 86.47 29.45 83.81 42.84 81.22L42.34 75.02C37.94 75.82 33.48 76.68 29.02 77.40ZM67.82 46.37L67.82 40.18L49.25 40.18C48.96 34.85 48.89 29.23 48.96 23.47L42.12 23.47C42.12 29.09 42.26 34.78 42.55 40.18L4.10 40.18L4.10 46.37L42.91 46.37C44.64 70.56 49.54 89.35 60.26 89.35C65.95 89.35 68.18 85.90 69.19 73.15C67.46 72.43 65.02 70.92 63.65 69.41C63.29 78.77 62.50 82.73 60.84 82.73C55.22 82.73 51.12 67.46 49.61 46.37Z"/></svg>
