<svg xmlns="http://www.w3.org/2000/svg" xmlns:xlink="http://www.w3.org/1999/xlink" width="72.00000000000001" height="106.56000000000002"><path fill="red" stroke="red" d="M24.26 30.38C21.38 28.01 15.62 25.06 11.02 23.47L7.34 28.44C12.02 30.31 17.71 33.41 20.38 35.86ZM20.59 49.68C17.42 47.38 11.16 44.57 6.34 43.06L2.81 48.17C7.78 49.90 13.90 52.99 16.92 55.37ZM20.09 60.48C15.62 68.98 9.65 78.55 5.62 84.17L11.23 88.34C15.77 81.43 20.81 72.50 24.98 64.58ZM34.20 32.47L58.32 32.47L58.32 49.75L34.20 49.75ZM56.81 82.58C55.30 82.58 55.01 82.22 55.01 79.92L55.01 56.02L65.16 56.02L65.16 26.28L27.72 26.28L27.72 56.02L34.63 56.02C34.06 70.13 32.47 78.91 19.73 83.88C21.10 85.03 23.04 87.62 23.69 89.28C38.09 83.23 40.46 72.43 41.26 56.02L48.31 56.02L48.31 79.99C48.31 86.47 49.68 88.49 55.66 88.49L62.06 88.49C67.18 88.49 68.83 85.54 69.48 74.66C67.68 74.23 64.94 73.15 63.50 72.07C63.29 81.00 63.00 82.58 61.42 82.58Z"/></svg>
