<svg xmlns="http://www.w3.org/2000/svg" xmlns:xlink="http://www.w3.org/1999/xlink" width="72.00000000000001" height="106.56000000000002"><path fill="red" stroke="red" d="M22.25 31.75C19.44 29.38 13.82 26.06 9.72 24.05L6.41 28.94C10.51 31.25 16.06 34.78 18.72 37.15ZM18.36 50.26C15.55 48.10 10.08 45.07 6.05 43.27L2.81 48.24C6.91 50.33 12.38 53.57 14.98 55.87ZM15.98 60.84C12.38 68.90 7.70 77.98 4.39 83.38L9.50 87.98C13.10 81.22 17.21 72.79 20.38 65.38ZM60.34 23.26C52.27 26.14 38.30 28.80 26.21 30.38L26.21 48.38C26.21 59.54 25.49 75.17 18.14 86.26C19.66 86.83 22.32 88.42 23.47 89.50C31.10 77.83 32.26 60.26 32.26 48.38L32.26 35.50C43.85 33.98 56.52 31.75 65.74 28.66ZM64.51 51.84C62.57 54.14 59.62 57.02 56.81 59.47C55.66 54.94 54.72 50.04 54.07 45.07C57.89 44.21 61.56 43.13 64.58 42.05L59.40 36.79C54.36 38.95 45.86 40.97 38.38 42.19L38.38 78.12C38.38 80.93 36.86 82.30 35.64 82.94C36.58 84.24 37.80 86.98 38.23 88.42C39.53 87.34 41.69 86.11 55.08 80.35C54.65 79.06 54.00 76.75 53.78 74.95L44.21 78.77L44.21 46.94C45.65 46.66 47.09 46.44 48.60 46.15C50.83 64.37 55.30 79.85 65.09 87.91C66.17 86.11 68.33 83.59 69.91 82.30C64.73 78.62 61.06 72.43 58.46 64.87C61.78 62.64 65.52 59.54 69.19 56.66Z"/></svg>
