<svg xmlns="http://www.w3.org/2000/svg" xmlns:xlink="http://www.w3.org/1999/xlink" width="72.00000000000001" height="106.56000000000002"><path fill="red" stroke="red" d="M21.53 31.10C18.86 28.87 13.54 25.85 9.72 23.90L5.76 28.66C9.72 30.96 14.90 34.27 17.35 36.50ZM18.79 49.68C15.91 47.66 10.51 44.71 6.62 42.91L2.81 47.74C6.84 49.90 12.17 52.99 14.83 55.08ZM10.22 88.34C13.25 81.65 16.63 73.08 19.22 65.52L13.82 61.99C10.94 70.20 7.06 79.34 4.18 84.89ZM40.90 53.28L33.77 55.51L33.77 43.06L41.18 43.06L41.18 36.79L33.77 36.79L33.77 23.47L27.65 23.47L27.65 36.79L19.66 36.79L19.66 43.06L27.65 43.06L27.65 57.46C24.05 58.54 20.74 59.54 18.07 60.34L20.59 66.89L27.65 64.44L27.65 80.21C27.65 81.22 27.29 81.43 26.35 81.43C25.42 81.50 22.46 81.50 19.30 81.43C20.23 83.30 21.02 86.33 21.31 88.13C25.92 88.13 29.16 87.84 31.18 86.69C33.12 85.61 33.77 83.66 33.77 80.14L33.77 62.21C36.43 61.34 39.17 60.34 41.90 59.33ZM69.05 46.08L50.18 46.08L50.18 34.20C56.09 32.69 62.35 30.82 67.25 28.58L62.35 23.40C57.89 25.78 50.47 28.22 43.99 29.95L43.99 54.29C43.99 63.86 43.34 76.03 36.72 84.60C38.16 85.32 40.75 87.34 41.76 88.49C49.03 79.42 50.18 64.87 50.18 54.29L50.18 52.34L56.81 52.34L56.81 89.21L62.93 89.21L62.93 52.34L69.05 52.34Z"/></svg>
