<svg xmlns="http://www.w3.org/2000/svg" xmlns:xlink="http://www.w3.org/1999/xlink" width="72.00000000000001" height="106.56000000000002"><path fill="red" stroke="red" d="M22.82 31.39C20.16 28.94 14.62 25.85 10.22 23.90L6.55 28.87C10.94 30.89 16.42 34.27 18.94 36.86ZM19.37 49.82C16.56 47.45 10.80 44.50 6.48 42.77L2.81 47.81C7.27 49.75 12.89 52.92 15.48 55.44ZM10.37 88.20C13.90 81.36 17.93 72.86 21.02 65.30L15.70 61.34C12.24 69.55 7.63 78.70 4.39 84.24ZM59.76 55.01C54.65 71.93 43.42 79.85 22.39 83.16C23.76 84.74 25.20 87.41 25.85 89.35C48.31 84.96 60.55 75.96 66.31 56.88ZM31.61 53.78C30.17 59.33 27.50 65.09 24.48 68.90C26.06 69.70 28.73 71.28 30.02 72.29C32.98 68.11 36.07 61.56 37.80 55.44ZM49.82 44.57L49.82 37.15L65.74 37.15L65.74 31.61L49.82 31.61L49.82 23.18L42.98 23.18L42.98 44.57L36.00 44.57L36.00 29.95L29.45 29.95L29.45 44.57L22.97 44.57L22.97 50.40L42.26 50.40L42.26 70.85L49.25 70.85L49.25 50.40L68.83 50.40L68.83 44.57Z"/></svg>
