<svg xmlns="http://www.w3.org/2000/svg" xmlns:xlink="http://www.w3.org/1999/xlink" width="72.00000000000001" height="106.56000000000002"><path fill="red" stroke="red" d="M29.74 30.74L61.06 30.74L61.06 36.94L67.61 36.94L67.61 25.42L23.47 25.42L23.47 36.94L29.74 36.94ZM22.75 30.74C20.09 28.30 14.47 25.27 10.08 23.54L6.41 28.44C10.80 30.46 16.27 33.77 18.86 36.29ZM19.15 49.46C16.34 47.23 10.80 44.35 6.41 42.70L2.74 47.74C7.20 49.61 12.67 52.78 15.26 55.08ZM16.63 61.13C13.03 69.48 8.14 78.70 4.68 84.31L10.66 88.27C14.40 81.50 18.65 72.79 21.89 65.16ZM32.83 65.45L32.83 60.91L41.76 60.91L41.76 65.45ZM32.83 52.06L41.76 52.06L41.76 56.52L32.83 56.52ZM57.89 52.06L57.89 56.52L48.31 56.52L48.31 52.06ZM57.89 65.45L48.31 65.45L48.31 60.91L57.89 60.91ZM68.90 74.30L48.31 74.30L48.31 70.13L64.15 70.13L64.15 47.38L48.31 47.38L48.31 43.42L65.74 43.42L65.74 38.09L48.31 38.09L48.31 33.12L41.76 33.12L41.76 38.09L25.20 38.09L25.20 43.42L41.76 43.42L41.76 47.38L26.86 47.38L26.86 70.13L41.76 70.13L41.76 74.30L21.60 74.30L21.60 79.99L41.76 79.99L41.76 89.14L48.31 89.14L48.31 79.99L68.90 79.99Z"/></svg>
