<svg xmlns="http://www.w3.org/2000/svg" xmlns:xlink="http://www.w3.org/1999/xlink" width="72.00000000000001" height="106.56000000000002"><path fill="red" stroke="red" d="M19.94 50.47C16.92 48.24 10.80 45.00 6.48 43.06L3.02 48.10C7.34 50.33 13.39 53.78 16.27 56.23ZM10.73 88.13C14.69 81.29 19.15 72.43 22.68 64.73L17.50 60.55C13.68 68.98 8.50 78.26 4.90 83.95ZM6.48 28.94C10.73 31.46 16.56 35.35 19.30 38.02L23.33 32.76C20.52 30.24 14.54 26.57 10.30 24.19ZM64.15 24.05C54.58 26.64 38.09 28.44 24.19 29.38C24.77 30.74 25.56 33.12 25.78 34.63C39.89 33.77 56.74 32.11 67.97 29.16ZM58.18 50.18C60.62 46.51 63.58 40.75 66.02 35.71L59.90 33.26C58.39 37.73 55.37 43.99 52.99 47.81ZM50.40 46.22C49.75 43.13 47.95 38.16 46.22 34.42L40.54 35.86C42.19 39.74 43.78 44.78 44.42 47.88ZM36.94 47.30C35.93 44.50 33.62 39.82 31.68 36.36L26.06 38.16C27.94 41.76 30.10 46.73 31.03 49.68ZM47.95 57.82L60.19 57.82L60.19 65.81L48.38 65.81L48.38 71.57L60.19 71.57L60.19 80.50L32.83 80.50L32.83 71.57L44.64 71.57L44.64 65.81L32.83 65.81L32.83 57.74C37.01 56.30 41.40 54.50 44.93 52.70L40.03 48.17C36.72 50.40 31.18 53.06 26.14 54.86L26.14 89.14L32.83 89.14L32.83 86.40L60.19 86.40L60.19 88.78L66.89 88.78L66.89 51.91L47.95 51.91Z"/></svg>
