<svg xmlns="http://www.w3.org/2000/svg" xmlns:xlink="http://www.w3.org/1999/xlink" width="72.00000000000001" height="106.56000000000002"><path fill="red" stroke="red" d="M47.95 35.64L41.62 35.64L41.62 31.18L47.95 31.18ZM59.76 40.68L59.76 48.46L53.42 48.46L53.42 40.68ZM41.62 40.68L47.95 40.68L47.95 48.46L41.62 48.46ZM29.88 40.68L36.14 40.68L36.14 48.46L29.88 48.46ZM36.14 35.64L24.19 35.64L24.19 53.42L65.88 53.42L65.88 35.64L53.42 35.64L53.42 31.18L68.40 31.18L68.40 25.70L21.89 25.70L21.89 31.18L36.14 31.18ZM64.51 62.06L64.51 56.95L26.14 56.95L26.14 62.06ZM21.17 32.26C18.72 30.10 13.61 26.64 10.01 24.26L6.12 28.87C9.72 31.46 14.69 35.21 17.14 37.58ZM17.71 50.26C14.98 48.38 9.50 45.36 5.76 43.42L2.45 48.46C6.26 50.76 11.66 54.00 14.33 55.94ZM15.91 61.34C12.31 69.48 7.56 78.70 4.18 84.24L9.58 87.98C13.18 81.22 17.50 72.58 20.66 64.94ZM30.53 73.30C27.94 77.33 23.69 81.36 19.37 84.10C20.81 84.89 23.33 86.69 24.41 87.70C28.58 84.67 33.41 79.85 36.43 75.10ZM69.05 71.28L69.05 65.88L21.74 65.88L21.74 71.28L41.54 71.28L41.54 89.06L48.02 89.06L48.02 71.28ZM53.21 75.67C57.02 79.20 61.78 84.02 63.94 87.12L69.34 84.02C67.03 80.93 62.14 76.32 58.32 73.01Z"/></svg>
