<svg xmlns="http://www.w3.org/2000/svg" xmlns:xlink="http://www.w3.org/1999/xlink" width="72.00000000000001" height="106.56000000000002"><path fill="red" stroke="red" d="M33.26 30.67L57.17 30.67L57.17 45.36L63.22 45.36L63.22 25.63L27.43 25.63L27.43 45.36L33.26 45.36ZM55.44 33.77L35.35 33.77L35.35 37.37L55.44 37.37ZM35.35 44.14L55.44 44.14L55.44 40.46L35.35 40.46ZM60.55 57.24L53.78 57.24L53.78 51.41L60.55 51.41ZM48.60 57.24L42.12 57.24L42.12 51.41L48.60 51.41ZM36.86 57.24L30.38 57.24L30.38 51.41L36.86 51.41ZM66.53 47.16L24.70 47.16L24.70 61.56L66.53 61.56ZM22.18 31.32C19.30 29.23 13.68 25.99 9.79 23.98L6.41 28.80C10.37 31.18 15.84 34.70 18.65 36.79ZM18.29 50.62C15.41 48.67 9.86 45.43 6.05 43.49L2.81 48.46C6.70 50.69 12.17 54.22 14.90 56.23ZM17.35 61.06C13.54 69.19 8.57 78.41 5.04 83.81L10.15 88.34C14.04 81.58 18.43 72.94 21.82 65.52ZM54.94 69.98C52.27 72.58 48.96 74.88 45.29 76.68C41.54 74.81 38.30 72.50 35.71 69.98ZM60.77 64.37L59.62 64.66L23.18 64.66L23.18 69.98L28.01 69.98C30.82 73.66 34.27 76.82 38.38 79.49C32.62 81.50 26.14 82.73 19.80 83.52C20.88 84.96 22.32 87.62 22.82 89.28C30.53 88.06 38.23 86.11 45.00 83.23C50.98 86.04 57.82 88.06 65.16 89.21C66.10 87.48 67.82 84.82 69.19 83.45C63.07 82.66 57.31 81.43 52.06 79.56C57.53 76.25 62.06 71.93 65.02 66.60Z"/></svg>
