<svg xmlns="http://www.w3.org/2000/svg" xmlns:xlink="http://www.w3.org/1999/xlink" width="72.00000000000001" height="106.56000000000002"><path fill="red" stroke="red" d="M23.18 31.03C20.23 29.02 14.40 25.99 10.30 23.98L6.48 28.87C10.73 31.03 16.42 34.34 19.30 36.58ZM19.73 50.47C16.78 48.38 10.94 45.43 6.84 43.56L3.17 48.46C7.42 50.62 13.10 53.86 15.98 55.94ZM10.66 88.20C14.83 81.50 19.58 73.15 23.26 65.74L18.43 61.42C14.26 69.41 8.86 78.41 5.04 83.81ZM34.70 60.91L58.03 60.91L58.03 64.94L34.70 64.94ZM34.70 52.99L58.03 52.99L58.03 56.95L34.70 56.95ZM49.25 69.34L64.51 69.34L64.51 48.60L28.51 48.60L28.51 69.34L42.62 69.34L42.62 73.73L23.33 73.73L23.33 79.27L42.62 79.27L42.62 89.14L49.25 89.14L49.25 79.27L68.83 79.27L68.83 73.73L49.25 73.73ZM57.53 39.74C58.32 38.30 59.11 36.72 59.90 35.14L53.42 33.77C52.92 35.42 51.98 37.80 51.19 39.74L39.38 39.74L40.75 39.31C40.39 37.80 39.46 35.57 38.52 33.77L66.24 33.77L66.24 28.51L49.82 28.51C49.25 26.71 48.38 24.41 47.52 22.68L41.54 24.12C42.05 25.49 42.70 27.00 43.13 28.51L26.06 28.51L26.06 33.77L37.01 33.77L32.83 34.92C33.41 36.43 34.06 38.16 34.56 39.74L22.90 39.74L22.90 45.07L68.83 45.07L68.83 39.74Z"/></svg>
