<svg xmlns="http://www.w3.org/2000/svg" xmlns:xlink="http://www.w3.org/1999/xlink" width="72.00000000000001" height="106.56000000000002"><path fill="red" stroke="red" d="M29.88 35.35L59.62 35.35L59.62 59.76C59.62 60.34 59.40 60.55 58.90 60.55C58.39 60.55 57.17 60.55 55.73 60.48C56.45 61.78 57.46 63.86 57.74 65.38C60.34 65.38 62.35 65.23 63.86 64.37C65.30 63.43 65.74 62.28 65.74 59.76L65.74 30.02L45.94 30.02C46.80 28.22 47.81 26.21 48.60 24.19L41.18 23.11C40.75 25.06 39.96 27.72 39.10 30.02L24.05 30.02L24.05 64.44L29.88 64.44ZM46.80 62.57L46.80 55.94C49.46 57.89 52.85 60.34 54.36 61.70L56.81 57.96C55.22 56.81 49.54 53.28 47.16 51.91L57.38 51.91L57.38 47.95L52.42 47.95C53.35 46.51 54.43 44.78 55.58 42.91L51.70 41.40C51.19 42.98 49.90 45.50 48.96 47.16L50.90 47.95L46.80 47.95L46.80 40.97C50.11 40.54 53.21 40.03 55.73 39.38L52.85 36.07C48.17 37.30 39.53 38.30 32.47 38.81C32.98 39.82 33.48 41.18 33.70 42.12C36.36 42.05 39.24 41.83 42.12 41.54L42.12 47.95L38.30 47.95L40.18 47.09C39.67 45.72 38.45 43.56 37.37 41.98L34.06 43.34C34.92 44.71 35.86 46.51 36.36 47.95L32.18 47.95L32.18 51.91L40.10 51.91C37.66 54.94 34.20 57.96 30.74 59.47C31.68 60.34 33.12 61.92 33.84 63.00C36.79 61.34 39.82 58.39 42.12 55.15L42.12 62.57ZM22.25 32.98C19.66 30.60 14.40 27.00 10.37 24.70L6.41 29.02C10.51 31.46 15.62 35.21 18.14 37.80ZM18.72 51.84C16.06 49.39 10.66 46.01 6.55 43.78L2.74 48.24C6.98 50.62 12.24 54.29 14.83 56.88ZM15.26 61.34C11.81 69.26 7.34 78.12 4.18 83.38L9.86 87.41C13.32 80.93 17.28 72.50 20.30 65.30ZM46.08 77.54C52.06 81.07 60.26 86.18 64.22 89.35L68.18 84.74C64.01 81.72 55.66 76.82 49.90 73.58ZM47.23 67.90C47.45 66.67 47.66 65.30 47.81 63.94L41.33 63.94C41.18 65.38 40.97 66.67 40.68 67.90L20.66 67.90L20.66 73.51L38.81 73.51C36.07 78.62 30.74 81.86 19.15 83.74C20.38 85.10 22.03 87.70 22.54 89.28C36.79 86.40 42.91 81.36 45.72 73.51L68.62 73.51L68.62 67.90Z"/></svg>
