<svg xmlns="http://www.w3.org/2000/svg" xmlns:xlink="http://www.w3.org/1999/xlink" width="72.00000000000001" height="106.56000000000002"><path fill="red" stroke="red" d="M18.58 32.54C16.42 30.02 11.95 26.35 8.42 23.90L4.54 27.65C8.06 30.31 12.46 34.20 14.54 36.79ZM16.34 50.83C14.11 48.67 9.65 45.50 6.26 43.49L2.59 47.52C5.98 49.75 10.37 53.14 12.38 55.30ZM12.74 62.64C9.94 70.56 6.19 79.49 3.46 84.89L3.53 84.89L8.78 88.20C11.66 81.65 14.98 73.22 17.50 65.95ZM29.81 68.18C29.81 67.61 29.81 67.03 29.81 66.53L29.81 64.15L44.35 64.15L44.35 58.68L34.34 58.68C33.62 57.10 32.76 55.30 31.90 53.86L26.21 55.08C26.71 56.16 27.29 57.38 27.86 58.68L17.64 58.68L17.64 64.15L24.19 64.15L24.19 66.38C24.19 71.42 23.11 79.27 14.62 85.39C15.98 86.33 18.14 88.06 19.08 89.28C25.49 84.67 28.15 78.77 29.16 73.58L36.22 73.58C35.93 79.34 35.50 81.65 34.92 82.44C34.56 82.94 33.98 83.09 33.12 83.09C32.26 83.09 30.24 83.02 28.01 82.80C28.73 84.24 29.30 86.47 29.45 88.20C32.11 88.34 34.63 88.27 36.07 88.13C37.73 87.91 38.88 87.41 39.96 86.18C41.26 84.60 41.76 80.42 42.19 70.42C42.26 69.62 42.26 68.18 42.26 68.18ZM51.84 42.62L60.34 42.62C59.54 50.76 58.39 58.10 56.30 64.37C53.86 57.67 52.42 50.40 51.55 43.70ZM36.86 39.67L25.56 39.67L25.56 34.92L36.86 34.92ZM36.86 48.89L25.56 48.89L25.56 44.21L36.86 44.21ZM69.05 42.62L69.05 36.50L53.42 36.50C54.36 32.47 55.08 28.30 55.66 24.12L49.68 23.11C48.46 33.55 46.30 43.63 42.48 50.76L42.48 30.10L33.26 30.10C33.98 28.22 34.78 25.99 35.50 23.90L28.58 23.04C28.30 25.06 27.65 27.79 27.00 30.10L20.16 30.10L20.16 53.78L41.98 53.78C43.27 55.01 44.86 56.74 45.58 57.74C46.58 56.16 47.45 54.58 48.24 52.78C49.32 59.04 50.90 65.59 53.35 71.71C50.62 77.18 46.94 81.79 41.90 85.32C43.27 86.26 45.50 88.27 46.37 89.35C50.40 86.11 53.71 82.30 56.30 77.90C58.68 82.22 61.78 86.04 65.45 89.06C66.31 87.48 68.40 84.89 69.62 83.74C65.38 80.71 61.99 76.54 59.40 71.71C62.78 63.65 64.80 54.07 65.95 42.62Z"/></svg>
