<svg xmlns="http://www.w3.org/2000/svg" xmlns:xlink="http://www.w3.org/1999/xlink" width="72.00000000000001" height="106.56000000000002"><path fill="red" stroke="red" d="M10.22 55.94C9.86 50.98 8.71 42.34 7.42 35.57L2.59 36.36C3.74 43.20 4.75 52.06 5.04 57.24ZM38.45 42.48L38.45 42.77C38.45 45.14 37.58 48.38 32.04 50.47L32.04 42.48ZM43.27 31.32L48.74 31.32L48.74 37.22L43.27 37.22ZM60.55 48.17L60.19 48.17L54.36 48.17C53.35 48.17 53.21 47.74 53.21 45.94L53.21 42.48L60.55 42.48ZM32.04 55.51L32.04 50.69C33.12 51.55 34.56 52.99 35.14 54.00C41.98 51.19 43.27 46.44 43.27 42.84L43.27 42.48L48.74 42.48L48.74 45.86C48.74 50.83 49.82 52.49 54.43 52.49L60.26 52.49L60.55 52.49L60.55 55.51ZM25.92 74.95C24.62 73.15 19.37 65.81 17.28 63.22C17.71 59.18 17.86 55.01 17.93 50.90L20.66 52.06C22.39 48.89 24.34 43.99 26.28 39.53L26.28 60.77L66.60 60.77L66.60 37.22L54.65 37.22L54.65 31.32L68.54 31.32L68.54 25.70L24.19 25.70L24.19 31.32L37.44 31.32L37.44 37.22L27.29 37.22L27.43 36.86L21.82 34.99C20.95 38.59 19.44 43.63 17.93 47.52L17.93 23.90L12.17 23.90L12.17 48.46C12.17 61.20 11.23 74.52 2.88 84.89C4.18 85.90 6.34 87.98 7.20 89.50C11.95 83.74 14.62 77.26 16.13 70.42C18.14 73.58 20.45 77.18 21.60 79.49ZM49.32 81.43L49.32 73.15L66.46 73.15L66.46 67.32L49.32 67.32L49.32 62.28L42.70 62.28L42.70 67.32L26.35 67.32L26.35 73.15L42.70 73.15L42.70 81.43L22.54 81.43L22.54 87.48L69.05 87.48L69.05 81.43Z"/></svg>
