<svg xmlns="http://www.w3.org/2000/svg" xmlns:xlink="http://www.w3.org/1999/xlink" width="72.00000000000001" height="106.56000000000002"><path fill="red" stroke="red" d="M68.33 58.10L40.46 58.10L40.46 42.26L64.22 42.26L64.22 35.71L40.46 35.71L40.46 23.18L33.41 23.18L33.41 35.71L19.80 35.71C21.02 32.69 22.03 29.52 22.90 26.28L15.98 24.91C13.54 34.63 9.07 44.28 3.46 50.18C5.18 50.90 8.35 52.63 9.79 53.64C12.31 50.54 14.69 46.66 16.92 42.26L33.41 42.26L33.41 58.10L3.82 58.10L3.82 64.73L33.41 64.73L33.41 89.14L40.46 89.14L40.46 64.73L68.33 64.73Z"/></svg>
