<svg xmlns="http://www.w3.org/2000/svg" xmlns:xlink="http://www.w3.org/1999/xlink" width="72.00000000000001" height="106.56000000000002"><path fill="red" stroke="red" d="M29.66 55.87C27.36 56.59 24.91 57.31 22.54 58.03L22.54 43.49L29.95 43.49L29.95 37.15L22.54 37.15L22.54 23.11L16.13 23.11L16.13 37.15L11.30 37.15C11.81 34.06 12.17 30.89 12.46 27.79L6.84 26.86C6.12 36.07 4.82 45.65 2.16 51.98C3.60 52.63 6.05 54.29 7.13 55.15C8.28 51.91 9.36 47.88 10.30 43.49L16.13 43.49L16.13 59.83C11.02 61.27 6.41 62.57 2.74 63.36L4.10 69.91C7.63 68.83 11.74 67.54 16.13 66.24L16.13 89.14L22.54 89.14L22.54 64.30C25.20 63.43 27.86 62.64 30.60 61.78ZM56.66 43.27C55.01 51.98 52.49 59.26 48.89 65.38C45.29 59.04 42.70 51.62 40.97 43.27ZM68.54 43.27L68.54 36.86L42.12 36.86C43.56 32.83 44.78 28.58 45.65 24.34L39.10 23.04C36.79 34.13 32.69 44.86 27.14 51.55C28.51 52.63 31.18 55.15 32.18 56.30C33.70 54.43 34.99 52.27 36.36 49.97C38.38 57.96 41.18 65.02 44.78 71.06C40.10 76.54 34.06 80.64 26.21 83.74C27.65 85.03 29.81 87.91 30.60 89.42C38.02 86.11 43.92 81.94 48.74 76.68C53.06 82.08 58.61 86.33 65.45 89.35C66.46 87.48 68.40 84.89 69.91 83.66C62.86 80.93 57.24 76.75 52.85 71.21C57.89 63.79 61.27 54.65 63.43 43.27Z"/></svg>
