<svg xmlns="http://www.w3.org/2000/svg" xmlns:xlink="http://www.w3.org/1999/xlink" width="72.00000000000001" height="106.56000000000002"><path fill="red" stroke="red" d="M43.56 37.37L29.81 37.37L29.81 41.54L43.56 41.54L43.56 44.86L24.77 44.86L24.77 49.32L69.05 49.32L69.05 44.86L50.47 44.86L50.47 41.54L64.15 41.54L64.15 37.37L50.47 37.37L50.47 34.13L66.89 34.13L66.89 29.95L57.31 29.95C58.46 28.37 59.62 26.71 60.77 24.91L54.72 23.11C53.86 24.98 52.34 27.79 50.98 29.95L39.89 29.95L41.83 29.16C41.11 27.50 39.31 24.91 37.66 23.26L32.33 24.98C33.48 26.42 34.78 28.30 35.71 29.95L27.43 29.95L27.43 34.13L43.56 34.13ZM61.78 63.50C60.70 66.24 59.40 68.83 57.89 71.28C57.10 68.40 56.30 65.23 55.73 61.85L68.98 61.85L68.98 57.67L64.66 57.67L67.54 54.43C65.59 53.14 61.99 51.26 59.11 50.33L56.09 53.42C58.82 54.36 62.21 56.23 64.15 57.67L55.08 57.67C54.72 55.22 54.36 52.63 54.14 50.04L48.53 50.04C48.74 52.63 49.10 55.15 49.46 57.67L39.31 57.67L39.31 54.72C41.98 54.36 44.57 53.93 46.66 53.42L43.78 50.04C39.53 51.05 31.97 51.77 25.78 52.06C26.35 53.06 26.93 54.50 27.00 55.51C29.38 55.51 31.90 55.44 34.42 55.22L34.42 57.67L26.06 57.67L25.34 53.71L19.87 55.58L19.87 43.27L25.56 43.27L25.56 37.30L19.87 37.30L19.87 23.11L14.04 23.11L14.04 37.30L10.44 37.30C10.87 34.13 11.23 30.89 11.45 27.65L6.26 26.86C5.69 35.42 4.75 44.42 2.59 50.40C3.89 50.90 6.19 52.13 7.20 52.92C8.14 50.26 8.86 46.94 9.50 43.27L14.04 43.27L14.04 57.60C9.79 59.11 5.90 60.41 2.88 61.34L4.54 67.39C7.42 66.31 10.66 65.16 14.04 63.94L14.04 89.21L19.87 89.21L19.87 61.85L24.48 60.19L24.48 61.85L31.32 61.85C28.51 64.44 24.55 67.03 21.10 68.33C22.10 69.26 23.54 70.92 24.34 72.07C25.13 71.71 25.92 71.21 26.71 70.70L26.71 73.94L29.45 73.94C28.80 76.10 28.15 78.41 27.50 80.21L40.18 80.21C39.74 82.30 39.24 83.45 38.74 83.95C38.30 84.38 37.80 84.38 37.08 84.38C36.29 84.38 34.42 84.38 32.40 84.17C32.98 85.25 33.41 86.90 33.48 88.06C35.78 88.20 38.02 88.20 39.17 88.13C40.75 88.06 41.83 87.77 42.84 86.83C44.14 85.75 44.93 83.38 45.58 78.62C45.72 77.98 45.86 76.68 45.86 76.68L33.55 76.68C33.77 75.74 34.06 74.88 34.27 73.94L46.22 73.94L46.22 70.27L27.36 70.27C29.88 68.62 32.40 66.53 34.42 64.30L34.42 69.26L39.31 69.26L39.31 64.51C41.69 66.17 44.71 68.33 45.94 69.55L48.96 66.17C47.81 65.38 43.92 63.22 41.47 61.85L50.04 61.85C51.05 67.39 52.27 72.50 53.78 76.75C50.98 79.99 47.81 82.80 44.35 84.96C45.58 85.90 47.66 87.98 48.53 89.06C51.19 87.19 53.78 84.89 56.16 82.30C58.46 86.69 61.13 89.28 64.22 89.28C66.60 89.28 68.83 86.90 70.06 79.13C69.05 78.62 67.03 77.26 66.10 76.18C65.66 80.64 65.02 82.94 64.01 82.94C62.78 82.94 61.42 81.00 60.05 77.69C62.86 73.80 65.30 69.48 67.10 64.87Z"/></svg>
