<svg xmlns="http://www.w3.org/2000/svg" xmlns:xlink="http://www.w3.org/1999/xlink" width="72.00000000000001" height="106.56000000000002"><path fill="red" stroke="red" d="M67.82 33.41L47.81 33.41L52.34 31.61C51.41 29.09 49.25 25.42 47.16 22.75L41.11 24.91C42.98 27.50 44.86 30.89 45.79 33.41L27.65 33.41L27.65 39.60L67.82 39.60ZM51.12 43.78C55.80 48.31 61.13 54.65 63.36 58.82L68.33 54.65C65.88 50.47 60.41 44.42 55.73 40.10ZM21.17 24.55C19.87 26.86 18.14 29.30 16.13 31.68C14.26 29.30 12.02 26.93 9.22 24.62L4.61 28.22C7.63 30.89 10.01 33.55 11.88 36.29C8.93 39.24 5.69 41.90 2.81 43.78C4.25 45.22 5.90 48.10 6.77 49.90C9.43 47.88 12.31 45.22 15.05 42.34C16.06 44.86 16.63 47.30 17.06 49.90C13.90 56.23 8.35 62.71 3.17 66.02C4.54 67.54 6.19 70.13 7.06 71.86C10.73 68.98 14.69 64.58 17.93 59.90L17.93 61.49C17.93 70.34 17.28 78.05 15.62 80.28C15.05 81.07 14.40 81.43 13.32 81.58C11.74 81.72 9.07 81.79 5.47 81.50C6.62 83.38 7.27 85.90 7.34 87.98C10.66 88.13 13.61 88.13 16.27 87.55C18.00 87.19 19.44 86.40 20.45 84.96C23.47 80.78 24.26 71.64 24.26 61.63C24.26 53.06 23.54 44.86 19.58 37.22C22.25 34.06 24.55 30.82 26.28 27.86ZM54.00 53.50C52.42 58.90 50.11 63.86 46.94 68.11C43.63 63.86 41.04 58.90 39.24 53.64L34.78 54.72C37.94 51.26 40.90 47.23 43.27 43.42L37.30 40.68C34.70 45.58 30.02 51.55 25.49 55.22C26.93 56.16 29.09 58.03 30.10 59.26C31.32 58.32 32.54 57.10 33.62 55.87C35.93 62.35 38.88 68.18 42.62 73.08C37.87 77.83 31.97 81.58 24.91 84.38C26.21 85.54 28.30 88.06 29.16 89.50C36.14 86.47 41.98 82.80 46.80 78.12C51.48 83.02 57.24 86.76 64.01 89.35C64.94 87.41 67.03 84.67 68.54 83.30C61.78 81.22 56.02 77.69 51.26 73.08C55.30 67.97 58.32 62.06 60.41 55.15Z"/></svg>
