<svg xmlns="http://www.w3.org/2000/svg" xmlns:xlink="http://www.w3.org/1999/xlink" width="72.00000000000001" height="106.56000000000002"><path fill="red" stroke="red" d="M37.44 39.53L37.44 45.14L68.69 45.14L68.69 39.53L62.28 39.53C62.78 35.42 63.29 30.67 63.58 26.35L59.11 25.92L58.03 26.21L42.12 26.21L42.12 31.82L57.02 31.82C56.81 34.27 56.52 37.01 56.23 39.53ZM33.48 23.33C31.32 31.46 26.64 41.47 20.59 47.81C20.09 44.14 19.08 40.68 17.50 37.22C19.94 33.98 22.03 30.67 23.54 27.58L18.94 24.70C17.78 27.07 16.34 29.52 14.54 31.82C12.96 29.38 10.94 27.00 8.50 24.55L4.03 27.79C6.91 30.60 9.07 33.55 10.73 36.50C8.06 39.46 5.18 41.98 2.45 43.70C3.53 45.22 4.97 47.95 5.62 49.61C8.14 47.66 10.73 45.14 13.32 42.41C14.18 45.07 14.76 47.88 15.12 50.76C12.46 56.66 7.34 63.14 2.81 66.53C3.89 67.82 5.40 70.34 6.12 71.93C9.43 69.12 12.82 64.94 15.70 60.48L15.70 61.42C15.70 70.20 15.12 78.98 13.54 81.07C13.03 81.72 12.46 82.08 11.52 82.15C10.08 82.30 7.78 82.30 4.82 82.08C5.90 83.81 6.55 86.11 6.62 88.06C9.43 88.13 12.10 88.13 14.11 87.62C15.84 87.34 17.14 86.54 18.07 85.32C20.88 81.50 21.53 71.50 21.53 61.49C21.53 57.17 21.38 52.99 20.74 48.89C21.96 50.11 23.33 52.06 24.05 53.21C25.49 51.84 26.71 50.33 28.01 48.74L28.01 89.14L34.20 89.14L34.20 38.81C36.50 34.20 38.52 29.45 39.96 24.84ZM68.62 71.28L68.62 65.59L56.02 65.59C56.09 64.94 56.09 64.30 56.09 63.65L56.09 57.31L66.38 57.31L66.38 51.70L46.80 51.70C47.45 50.04 48.02 48.24 48.53 46.66L42.62 45.22C41.40 50.33 38.88 56.81 35.57 61.13C36.86 61.70 39.02 63.14 40.18 64.15C41.69 62.21 43.13 59.90 44.28 57.31L49.90 57.31L49.90 63.58C49.90 64.22 49.90 64.87 49.82 65.59L36.72 65.59L36.72 71.28L48.89 71.28C47.59 76.10 44.06 81.22 36.00 85.03C37.44 86.18 39.38 88.13 40.18 89.50C49.90 84.31 53.78 77.54 55.22 71.28ZM54.72 75.02C58.03 79.49 62.28 85.68 64.30 89.28L69.48 86.33C67.32 82.80 62.93 76.82 59.69 72.50Z"/></svg>
