<svg xmlns="http://www.w3.org/2000/svg" xmlns:xlink="http://www.w3.org/1999/xlink" width="72.00000000000001" height="106.56000000000002"><path fill="red" stroke="red" d="M68.40 84.53C65.38 78.84 59.18 70.13 53.50 63.65L47.74 66.67C49.82 69.26 52.13 72.22 54.22 75.24L23.47 77.18C34.63 69.91 46.08 60.62 56.38 49.75L50.11 45.50C47.23 48.82 43.99 52.13 40.75 55.22L21.74 56.23C26.71 51.91 31.68 46.73 35.93 41.33L32.90 39.74L67.54 39.74L67.54 33.19L40.90 33.19L41.11 33.12C39.82 30.31 37.22 26.14 34.92 22.90L28.73 25.06C30.31 27.50 32.11 30.60 33.48 33.19L4.61 33.19L4.61 39.74L27.86 39.74C23.47 45.94 17.71 51.55 15.70 53.28C13.68 55.01 12.17 56.30 10.44 56.66C11.30 58.54 12.38 61.92 12.74 63.29C14.47 62.64 17.14 62.28 34.13 61.13C27.43 66.96 21.31 71.50 18.50 73.30C13.90 76.39 11.09 78.12 8.57 78.62C9.43 80.50 10.58 84.02 11.02 85.32C13.97 84.10 18.43 83.81 57.96 80.78C59.69 83.59 61.20 86.18 62.28 88.27Z"/></svg>
