<svg xmlns="http://www.w3.org/2000/svg" xmlns:xlink="http://www.w3.org/1999/xlink" width="72.00000000000001" height="106.56000000000002"><path fill="red" stroke="red" d="M52.49 62.42C51.12 58.82 47.66 53.78 44.50 49.97L39.60 51.84C40.61 53.14 41.62 54.50 42.55 56.02L32.26 56.81C38.23 51.98 44.28 46.08 49.54 39.82L44.35 36.79C42.84 38.74 41.26 40.75 39.60 42.62L31.61 42.98C33.70 40.75 35.71 38.02 37.58 35.35L67.46 35.35L67.46 29.23L41.40 29.23C40.39 27.29 38.74 24.70 37.30 22.68L30.60 24.26C31.54 25.78 32.62 27.50 33.48 29.23L5.33 29.23L5.33 35.35L30.74 35.35C28.87 38.30 26.93 40.82 26.06 41.62C24.91 42.91 23.83 43.85 22.82 44.06C23.40 45.50 24.34 48.24 24.70 49.46C25.78 49.03 27.36 48.67 34.34 48.17C31.32 51.19 28.66 53.57 27.36 54.50C24.98 56.52 23.18 57.89 21.46 58.10C22.10 59.69 23.04 62.57 23.26 63.72C24.91 62.93 27.43 62.57 45.50 60.84C46.22 62.21 46.80 63.43 47.23 64.51ZM67.25 60.62C64.01 57.82 57.74 53.71 52.99 51.05L48.31 54.72C53.21 57.60 59.33 61.85 62.35 64.66ZM59.04 37.44C56.66 40.32 52.42 44.14 49.32 46.51L54.22 49.68C57.38 47.38 61.49 44.06 64.66 40.75ZM21.38 45.58C19.01 43.20 14.18 39.89 10.44 37.66L5.90 41.33C9.72 43.70 14.40 47.16 16.63 49.61ZM21.60 50.98C15.12 54.00 8.35 56.95 3.82 58.68L7.20 64.08C11.88 61.85 17.57 58.82 22.90 55.94ZM68.26 68.76L39.53 68.76L39.53 63.36L32.47 63.36L32.47 68.76L3.74 68.76L3.74 74.95L32.47 74.95L32.47 89.21L39.53 89.21L39.53 74.95L68.26 74.95Z"/></svg>
