<svg xmlns="http://www.w3.org/2000/svg" xmlns:xlink="http://www.w3.org/1999/xlink" width="72.00000000000001" height="106.56000000000002"><path fill="red" stroke="red" d="M40.68 60.41L55.15 60.41L55.15 66.17L40.68 66.17ZM55.15 38.95L55.15 44.35L40.68 44.35L40.68 38.95ZM40.68 49.61L55.15 49.61L55.15 55.15L40.68 55.15ZM69.05 66.17L61.70 66.17L61.70 38.95L68.04 38.95L68.04 32.90L61.70 32.90L61.70 23.18L55.15 23.18L55.15 32.90L40.68 32.90L40.68 23.18L34.27 23.18L34.27 32.90L27.94 32.90L27.94 38.95L34.27 38.95L34.27 66.17L26.50 66.17L26.50 72.22L69.05 72.22ZM25.27 68.83C22.68 69.62 20.02 70.49 17.42 71.14L17.42 54.36L24.48 54.36L24.48 48.17L17.42 48.17L17.42 33.84L25.92 33.84L25.92 27.65L3.31 27.65L3.31 33.84L11.38 33.84L11.38 48.17L3.89 48.17L3.89 54.36L11.38 54.36L11.38 72.94C7.99 73.87 4.90 74.66 2.38 75.31L3.60 81.72C9.94 79.85 18.29 77.33 26.06 74.88ZM38.09 72.58C34.92 76.97 29.45 81.79 24.05 84.82C25.49 86.04 27.36 87.98 28.37 89.42C33.91 86.04 39.82 81.00 43.63 75.82ZM51.34 76.18C56.02 80.06 61.63 85.46 64.22 89.06L69.55 85.25C66.82 81.65 60.98 76.46 56.38 72.79Z"/></svg>
