<svg xmlns="http://www.w3.org/2000/svg" xmlns:xlink="http://www.w3.org/1999/xlink" width="72.00000000000001" height="106.56000000000002"><path fill="red" stroke="red" d="M21.38 37.66L17.57 37.66L17.57 32.26L21.38 32.26ZM29.95 47.38L29.88 47.30C29.81 47.38 29.74 47.52 29.59 47.59L28.94 47.59L27.72 47.59L26.06 47.59C25.63 47.59 25.27 47.59 25.13 47.45C24.91 47.30 24.91 46.80 24.91 46.01L24.91 42.48L29.95 42.48ZM9.79 54.36L9.79 42.48L13.97 42.48C13.82 46.44 12.96 48.60 9.86 49.90C10.66 50.54 11.74 51.91 12.02 52.85C16.20 50.98 17.35 47.81 17.57 42.48L21.24 42.48L21.24 45.43C21.24 48.10 21.38 49.10 22.18 49.75C22.90 50.40 24.12 50.62 25.34 50.62L28.01 50.62C28.58 50.62 29.45 50.62 29.95 50.47L29.95 54.36ZM12.53 37.66L4.90 37.66L4.90 59.18L35.06 59.18L35.06 37.66L26.35 37.66L26.35 32.26L35.06 32.26L35.06 26.93L3.89 26.93L3.89 32.26L12.53 32.26ZM62.93 83.16C62.64 83.16 62.35 83.02 62.21 82.80C61.92 82.51 61.92 81.50 61.92 79.70L61.92 42.41L47.02 42.41C47.16 39.31 47.30 36.14 47.45 33.19L68.54 33.19L68.54 27.22L36.72 27.22L36.72 33.19L41.33 33.19C40.82 48.89 39.38 68.62 38.09 81.22L35.78 81.58L35.64 77.11C31.39 77.69 27.00 78.26 22.75 78.70L22.75 70.92L34.92 70.92L34.92 65.52L22.75 65.52L22.75 59.40L16.56 59.40L16.56 65.52L4.82 65.52L4.82 70.92L16.56 70.92L16.56 79.49C11.45 80.14 6.70 80.71 2.95 81.14L3.89 87.19C11.95 86.04 22.90 84.60 33.55 83.02L34.63 87.98C40.39 86.83 47.52 85.46 54.36 84.02L53.93 78.48C50.69 78.98 47.45 79.56 44.42 80.14C45.07 73.51 45.58 65.16 46.15 56.38C47.88 61.34 49.82 67.68 50.54 71.86L55.30 70.34C54.50 66.02 52.27 59.33 50.40 54.14L46.22 55.44L46.66 48.38L56.52 48.38L56.52 79.42C56.52 84.60 56.81 85.90 57.82 86.98C58.68 87.98 60.12 88.42 61.42 88.42L64.30 88.42C65.45 88.42 66.67 88.13 67.46 87.41C68.26 86.76 68.76 85.75 69.12 84.17C69.41 82.66 69.62 78.55 69.70 75.31C68.33 74.81 66.82 73.94 65.74 73.01C65.74 76.61 65.66 79.42 65.52 80.71C65.45 81.86 65.23 82.51 65.02 82.80C64.80 83.09 64.44 83.16 64.01 83.16Z"/></svg>
