<svg xmlns="http://www.w3.org/2000/svg" xmlns:xlink="http://www.w3.org/1999/xlink" width="72.00000000000001" height="106.56000000000002"><path fill="red" stroke="red" d="M17.50 44.14L32.33 44.14L32.33 50.76L17.50 50.76ZM17.50 32.47L32.33 32.47L32.33 38.88L17.50 38.88ZM54.22 38.88L39.10 38.88L39.10 32.47L54.22 32.47ZM54.22 50.76L39.10 50.76L39.10 44.14L54.22 44.14ZM63.58 62.42L37.08 62.42C37.44 60.48 37.80 58.39 38.09 56.30L61.20 56.30L61.20 26.86L10.80 26.86L10.80 56.30L31.03 56.30C30.74 58.39 30.46 60.48 30.02 62.42L5.47 62.42L5.47 68.40L27.94 68.40C24.62 75.31 17.93 80.50 3.02 83.45C4.32 84.82 5.98 87.41 6.55 89.21C24.34 85.25 31.82 78.05 35.35 68.40L56.23 68.40C55.30 77.11 54.22 81.14 52.70 82.44C51.98 83.09 51.12 83.16 49.61 83.16C47.81 83.16 43.20 83.09 38.66 82.73C39.82 84.38 40.68 86.98 40.82 88.78C45.36 88.99 49.75 89.06 52.06 88.92C54.79 88.70 56.66 88.20 58.32 86.62C60.70 84.31 62.06 78.55 63.36 65.16Z"/></svg>
