<svg xmlns="http://www.w3.org/2000/svg" xmlns:xlink="http://www.w3.org/1999/xlink" width="72.00000000000001" height="106.56000000000002"><path fill="red" stroke="red" d="M36.94 62.06C41.69 60.05 46.37 57.53 50.62 54.36C54.50 57.46 58.90 60.05 63.65 62.06ZM42.05 79.13L42.05 67.97L58.97 67.97L58.97 79.13ZM59.18 36.43C57.02 40.18 54.07 43.56 50.69 46.51C47.66 43.49 45.14 40.10 43.34 36.43ZM19.73 70.92L19.73 54.50L24.34 54.50L24.34 70.92ZM10.58 54.50L15.41 54.50L15.41 70.92L10.58 70.92ZM15.41 34.27L15.41 49.39L10.58 49.39L10.58 34.27ZM24.34 49.39L19.73 49.39L19.73 34.27L24.34 34.27ZM64.15 30.17L62.86 30.38L46.58 30.38C47.66 28.44 48.60 26.42 49.32 24.41L43.63 22.75C40.61 30.60 35.42 38.16 29.74 42.98C30.89 44.28 32.83 46.94 33.55 48.17C35.64 46.22 37.73 43.99 39.60 41.54C41.40 44.57 43.49 47.38 45.94 49.97C41.04 53.28 35.28 55.87 29.38 57.60L29.38 28.44L5.40 28.44L5.40 81.72L10.58 81.72L10.58 76.68L29.38 76.68L29.38 57.89C30.31 59.33 31.39 62.28 31.82 63.94C33.26 63.50 34.70 63.00 36.14 62.35L36.14 88.63L42.05 88.63L42.05 84.96L58.97 84.96L58.97 88.49L65.09 88.49L65.09 62.64C66.10 63.07 67.10 63.43 68.18 63.72C68.40 61.85 69.19 58.82 69.98 57.17C64.58 55.73 59.69 53.35 55.44 50.40C60.77 45.43 65.16 39.53 67.97 32.54Z"/></svg>
