<svg xmlns="http://www.w3.org/2000/svg" xmlns:xlink="http://www.w3.org/1999/xlink" width="72.00000000000001" height="106.56000000000002"><path fill="red" stroke="red" d="M36.79 25.49C34.99 34.92 31.10 43.13 26.14 47.59C27.65 48.74 29.95 50.76 30.89 52.13C36.50 46.94 41.18 37.87 43.49 27.58ZM19.51 33.19L19.51 42.19L11.16 42.19L11.16 33.19ZM11.16 71.64L11.16 62.42L19.51 62.42L19.51 71.64ZM11.16 47.88L19.51 47.88L19.51 56.74L11.16 56.74ZM25.49 27.36L5.26 27.36L5.26 83.59L11.16 83.59L11.16 77.62L25.49 77.62ZM32.83 51.70L32.83 57.89L40.68 57.89C39.38 70.56 35.21 79.27 25.99 84.31C27.29 85.39 29.59 87.91 30.38 89.21C40.61 82.80 45.36 72.86 47.16 57.89L56.02 57.89C55.30 73.73 54.43 79.78 53.14 81.29C52.49 82.08 51.84 82.22 50.76 82.22C49.68 82.22 47.16 82.22 44.28 81.94C45.22 83.59 45.94 86.26 46.08 88.06C49.25 88.20 52.27 88.20 54.07 87.91C56.09 87.62 57.53 87.05 58.82 85.39C60.98 82.80 61.85 75.17 62.78 54.50C62.78 53.64 62.86 51.70 62.86 51.70ZM46.66 24.84L46.66 30.53L53.35 30.53C55.51 38.88 59.83 46.66 65.16 51.48C66.24 49.90 68.40 47.45 69.91 46.37C64.37 42.05 60.05 33.70 58.18 24.84Z"/></svg>
