<svg xmlns="http://www.w3.org/2000/svg" xmlns:xlink="http://www.w3.org/1999/xlink" width="72.00000000000001" height="106.56000000000002"><path fill="red" stroke="red" d="M19.44 33.19L19.44 42.05L11.30 42.05L11.30 33.19ZM11.30 71.64L11.30 62.42L19.44 62.42L19.44 71.64ZM11.30 47.74L19.44 47.74L19.44 56.74L11.30 56.74ZM25.78 27.36L5.11 27.36L5.11 83.59L11.30 83.59L11.30 77.62L25.78 77.62ZM57.38 73.01L57.38 81.72L38.52 81.72L38.52 73.01ZM31.97 89.21L38.52 89.21L38.52 86.98L57.38 86.98L57.38 88.99L64.15 88.99L64.15 67.82L31.97 67.82ZM50.40 58.75L50.40 55.08L64.73 55.08L64.73 50.26L50.40 50.26L50.40 45.65C55.80 45.14 60.77 44.42 64.80 43.56L62.35 41.11L68.18 41.11L68.18 30.17L52.99 30.17C52.06 27.79 49.82 24.70 47.59 22.39L41.90 24.48C43.42 26.14 44.86 28.30 45.94 30.17L28.30 30.17L28.30 41.18L34.42 41.18L34.42 35.28L61.85 35.28L61.85 40.61L60.48 39.38C57.89 39.96 54.36 40.46 50.40 40.82L50.40 36.86L44.06 36.86L44.06 41.40C39.46 41.69 34.70 41.90 30.31 41.98C30.89 43.13 31.61 45.14 31.75 46.44C35.64 46.44 39.89 46.30 44.06 46.08L44.06 50.26L31.90 50.26L31.90 55.08L44.06 55.08L44.06 58.75L28.15 58.75L28.15 63.94L68.69 63.94L68.69 58.75Z"/></svg>
