<svg xmlns="http://www.w3.org/2000/svg" xmlns:xlink="http://www.w3.org/1999/xlink" width="72.00000000000001" height="106.56000000000002"><path fill="red" stroke="red" d="M53.35 69.19C52.13 72.86 50.11 77.76 48.24 81.22L37.66 81.22L42.55 79.70C42.05 76.97 40.61 72.86 38.81 69.70L33.19 71.42C34.78 74.45 36.00 78.55 36.43 81.22L24.26 81.22L24.26 86.98L68.11 86.98L68.11 81.22L54.86 81.22C56.59 78.26 58.39 74.59 60.12 71.21ZM31.39 51.98C33.55 49.97 35.57 47.74 37.44 45.14L37.44 47.95L55.22 47.95L55.22 44.86C57.24 47.66 59.33 49.97 61.70 51.98ZM55.87 63.79L36.79 63.79L36.79 57.24L55.87 57.24ZM10.87 71.64L10.87 62.42L18.14 62.42L18.14 71.64ZM18.14 47.74L18.14 56.74L10.87 56.74L10.87 47.74ZM18.14 33.19L18.14 42.05L10.87 42.05L10.87 33.19ZM64.66 33.77C63.14 35.35 60.70 37.37 58.39 39.17C57.60 37.94 56.95 36.65 56.23 35.28C58.68 33.62 61.34 31.68 63.94 29.74L59.62 25.49C58.18 26.93 56.16 28.80 54.14 30.46C53.35 28.37 52.56 25.99 51.84 23.40L46.51 24.55C48.60 32.11 50.90 37.87 53.64 42.41L39.17 42.41C41.83 37.94 43.85 32.76 45.14 26.86L41.26 25.49L40.10 25.78L27.72 25.78L27.72 31.39L37.73 31.39C36.94 33.70 35.93 35.93 34.78 37.94C32.90 36.58 30.67 34.99 28.87 33.77L25.42 37.80C27.43 39.24 29.81 41.04 31.75 42.70C29.30 45.79 26.57 48.31 23.62 50.18L23.62 27.36L5.33 27.36L5.33 83.81L10.87 83.81L10.87 77.62L23.62 77.62L23.62 51.55C24.70 52.78 25.92 54.36 26.57 55.51C28.01 54.58 29.45 53.57 30.89 52.42L30.89 69.05L61.99 69.05L61.99 52.20C63.29 53.28 64.66 54.29 66.10 55.22C66.89 53.42 68.54 51.41 70.13 50.18C66.89 48.24 63.94 46.08 61.34 42.98C63.79 41.62 66.53 39.89 69.12 38.23Z"/></svg>
