<svg xmlns="http://www.w3.org/2000/svg" xmlns:xlink="http://www.w3.org/1999/xlink" width="72.00000000000001" height="106.56000000000002"><path fill="red" stroke="red" d="M20.88 74.45L13.82 74.45L13.82 54.58L20.88 54.58ZM3.82 32.76L12.02 32.76C10.08 42.98 6.98 52.56 2.23 58.97C3.17 60.77 4.54 64.80 4.82 66.53C6.12 64.94 7.27 63.14 8.35 61.34L8.35 85.90L13.82 85.90L13.82 80.35L26.50 80.35L26.50 48.67L14.04 48.67C15.77 43.63 17.21 38.23 18.29 32.76L27.79 32.76L27.79 26.71L3.82 26.71ZM68.83 58.32L51.91 58.32L51.91 33.48L66.82 33.48L66.82 27.43L30.82 27.43L30.82 33.48L45.29 33.48L45.29 58.32L29.30 58.32L29.30 64.66L45.29 64.66L45.29 89.21L51.91 89.21L51.91 64.66L68.83 64.66ZM31.90 37.94C33.70 43.34 35.28 50.47 35.64 55.15L41.26 53.71C40.75 49.10 39.10 42.05 37.22 36.58ZM60.77 55.08C62.50 50.62 64.51 43.49 66.31 37.51L59.98 36.07C59.11 41.40 57.24 49.03 55.58 53.64Z"/></svg>
