<svg xmlns="http://www.w3.org/2000/svg" xmlns:xlink="http://www.w3.org/1999/xlink" width="72.00000000000001" height="106.56000000000002"><path fill="red" stroke="red" d="M20.38 74.45L13.46 74.45L13.46 54.58L20.38 54.58ZM3.60 32.69L11.95 32.69C10.01 42.91 6.91 52.56 2.16 58.97C3.10 60.77 4.46 64.87 4.82 66.60C5.98 65.09 7.06 63.58 8.06 61.85L8.06 85.90L13.46 85.90L13.46 80.35L25.92 80.35L25.92 48.67L14.04 48.67C15.77 43.56 17.14 38.23 18.29 32.69L27.29 32.69L27.29 26.64L3.60 26.64ZM35.06 80.78L35.06 32.83L67.75 32.83L67.75 26.78L29.09 26.78L29.09 86.90L68.54 86.90L68.54 80.78ZM65.45 42.84L54.50 42.84L54.50 35.50L49.18 35.50L49.18 42.84L38.81 42.84L38.81 70.92L43.78 70.92L43.78 48.38L49.18 48.38L49.18 77.76L54.50 77.76L54.50 48.38L60.19 48.38L60.19 64.80C60.19 65.45 60.05 65.59 59.47 65.59C58.90 65.59 57.38 65.66 55.58 65.59C56.30 67.03 57.10 69.26 57.31 70.78C60.26 70.78 62.14 70.70 63.65 69.77C65.09 68.76 65.45 67.32 65.45 64.94Z"/></svg>
