<svg xmlns="http://www.w3.org/2000/svg" xmlns:xlink="http://www.w3.org/1999/xlink" width="72.00000000000001" height="106.56000000000002"><path fill="red" stroke="red" d="M53.06 33.26L53.06 37.37L40.90 37.37L40.90 33.26ZM34.99 41.83L59.18 41.83L59.18 33.26L67.46 33.26L67.46 28.30L59.18 28.30L59.18 23.11L53.06 23.11L53.06 28.30L40.90 28.30L40.90 23.11L34.99 23.11L34.99 28.30L26.64 28.30L26.64 33.26L34.99 33.26ZM68.69 43.78L25.42 43.78L25.42 48.96L68.69 48.96ZM34.42 65.16L43.99 65.16L43.99 69.98L34.42 69.98ZM34.42 56.09L43.99 56.09L43.99 60.91L34.42 60.91ZM59.62 60.91L50.11 60.91L50.11 56.09L59.62 56.09ZM59.62 69.98L50.11 69.98L50.11 65.16L59.62 65.16ZM65.66 74.81L65.66 51.26L28.66 51.26L28.66 74.81ZM17.71 74.95L12.89 74.95L12.89 53.71L17.71 53.71ZM24.70 32.33L24.70 26.93L3.24 26.93L3.24 32.33L10.37 32.33C9.07 43.99 6.62 55.08 2.02 62.42C2.95 64.01 4.32 67.39 4.75 68.90C5.90 67.32 6.84 65.52 7.78 63.65L7.78 85.90L12.89 85.90L12.89 80.28L23.11 80.28L23.11 48.46L13.03 48.46C14.33 43.27 15.26 37.87 15.98 32.33ZM38.30 75.38C35.21 78.70 28.58 82.66 23.26 84.89C24.48 86.11 26.14 88.20 27.00 89.50C32.69 87.05 39.46 82.94 43.63 78.91ZM52.13 78.91C56.45 82.15 61.34 86.26 64.15 89.14L69.26 85.25C66.17 82.44 60.91 78.48 56.30 75.38Z"/></svg>
