<svg xmlns="http://www.w3.org/2000/svg" xmlns:xlink="http://www.w3.org/1999/xlink" width="72.00000000000001" height="106.56000000000002"><path fill="red" stroke="red" d="M30.02 89.42C32.83 85.75 34.92 80.06 36.36 75.53L31.32 73.44C30.02 77.83 27.65 83.23 24.91 86.62ZM48.24 44.71L37.80 44.71L37.80 39.74L48.24 39.74ZM48.24 54.79L37.80 54.79L37.80 49.82L48.24 49.82ZM48.24 65.16L37.80 65.16L37.80 59.90L48.24 59.90ZM20.45 74.45L14.18 74.45L14.18 54.58L20.45 54.58ZM68.98 70.70L68.98 65.16L54.58 65.16L54.58 59.90L66.74 59.90L66.74 54.79L54.58 54.79L54.58 49.82L66.60 49.82L66.60 44.71L54.58 44.71L54.58 39.74L68.54 39.74L68.54 34.34L51.19 34.34L56.30 32.11C55.37 29.66 53.42 25.85 51.84 23.04L46.22 25.27C47.66 28.08 49.46 31.82 50.26 34.34L38.45 34.34C39.89 31.18 41.18 27.94 42.26 24.62L36.22 23.04C33.48 31.90 28.94 40.54 23.69 46.01C24.26 46.66 25.06 47.66 25.78 48.67L14.26 48.67C15.98 43.63 17.28 38.23 18.43 32.76L27.14 32.76L27.14 26.71L4.10 26.71L4.10 32.76L12.10 32.76C10.22 42.98 7.27 52.56 2.66 58.97C3.60 60.84 4.97 64.87 5.33 66.53C6.55 65.09 7.56 63.36 8.64 61.63L8.64 85.90L14.18 85.90L14.18 80.35L25.99 80.35L25.99 48.96C26.71 49.90 27.36 50.76 27.65 51.41C29.09 49.90 30.38 48.10 31.75 46.22L31.75 73.30L37.80 73.30L37.80 70.70ZM39.38 75.38C40.10 79.56 40.68 85.03 40.61 88.56L46.08 87.70C46.01 84.17 45.43 78.84 44.57 74.66ZM48.53 75.17C50.11 79.27 51.77 84.74 52.27 88.27L57.74 86.83C57.10 83.23 55.37 77.98 53.78 73.87ZM58.10 74.66C60.41 79.06 63.22 84.96 64.44 88.78L70.06 86.47C68.76 82.80 65.88 77.18 63.43 72.79Z"/></svg>
