<svg xmlns="http://www.w3.org/2000/svg" xmlns:xlink="http://www.w3.org/1999/xlink" width="72.00000000000001" height="106.56000000000002"><path fill="red" stroke="red" d="M51.34 37.80C48.96 34.78 43.99 30.60 39.89 27.79L35.50 31.61C39.60 34.63 44.50 39.02 46.66 42.05ZM49.39 56.59C46.87 53.57 41.40 49.25 37.08 46.37L32.83 50.26C37.22 53.28 42.48 57.89 44.86 60.98ZM30.82 61.92C29.45 60.05 23.33 52.70 21.17 50.47L21.17 49.46L31.25 49.46L31.25 43.20L21.17 43.20L21.17 32.18C24.55 31.39 27.72 30.53 30.46 29.45L26.64 23.98C21.02 26.42 11.81 28.51 3.74 29.81C4.46 31.18 5.40 33.55 5.62 34.99C8.50 34.56 11.59 34.13 14.69 33.55L14.69 43.20L3.17 43.20L3.17 49.46L13.75 49.46C11.09 57.10 6.48 65.66 2.23 70.56C3.24 72.22 4.82 74.95 5.47 76.75C8.78 72.65 12.02 66.53 14.69 59.98L14.69 89.14L21.17 89.14L21.17 57.67C23.33 60.98 25.78 65.02 26.78 67.18ZM69.41 69.19L68.40 62.93L60.55 64.22L60.55 23.11L53.93 23.11L53.93 65.30L30.24 69.26L31.25 75.67L53.93 71.86L53.93 89.14L60.55 89.14L60.55 70.70Z"/></svg>
