<svg xmlns="http://www.w3.org/2000/svg" xmlns:xlink="http://www.w3.org/1999/xlink" width="72.00000000000001" height="106.56000000000002"><path fill="red" stroke="red" d="M62.06 24.98C60.55 29.16 57.53 34.92 55.30 38.59L60.91 40.82C63.22 37.30 66.02 32.11 68.33 27.36ZM41.83 38.38C40.82 34.78 37.80 29.38 34.92 25.34L29.45 27.94C32.26 32.04 35.14 37.73 36.07 41.33ZM27.79 61.06C26.57 59.54 21.60 53.78 19.66 51.62L19.66 49.68L27.86 49.68L27.86 43.49L19.66 43.49L19.66 31.61C22.25 30.89 24.77 30.10 26.93 29.16L23.26 23.69C18.43 25.99 10.66 28.08 3.82 29.38C4.61 30.89 5.40 32.98 5.69 34.49C8.28 34.13 10.94 33.62 13.61 33.05L13.61 43.49L3.31 43.49L3.31 49.68L12.02 49.68C9.86 56.95 6.19 65.16 2.66 69.91C3.74 71.71 5.33 74.59 5.98 76.54C8.71 72.58 11.45 66.46 13.61 60.19L13.61 89.28L19.66 89.28L19.66 58.10C21.46 60.98 23.62 64.37 24.48 66.24ZM37.44 57.38C43.34 58.75 50.90 61.56 54.79 63.72L57.60 59.04C53.57 56.95 46.01 54.43 40.10 53.21ZM36.86 49.18L59.40 49.18L59.40 64.44C51.05 66.38 42.62 68.26 36.72 69.48C36.86 67.54 36.86 65.81 36.86 64.08ZM65.74 43.34L51.84 43.34L51.84 23.11L45.43 23.11L45.43 43.34L30.67 43.34L30.67 64.01C30.67 70.99 30.38 79.63 26.93 85.82C28.37 86.54 31.10 88.49 32.18 89.64C35.21 84.46 36.29 77.18 36.72 70.56L38.38 75.17C44.35 73.73 51.98 71.86 59.40 69.91L59.40 81.36C59.40 82.37 59.04 82.73 57.96 82.73C56.88 82.80 53.28 82.80 49.61 82.66C50.33 84.31 51.26 87.19 51.48 88.85C56.88 88.85 60.48 88.85 62.71 87.77C65.02 86.76 65.74 84.82 65.74 81.50Z"/></svg>
