<svg xmlns="http://www.w3.org/2000/svg" xmlns:xlink="http://www.w3.org/1999/xlink" width="72.00000000000001" height="106.56000000000002"><path fill="red" stroke="red" d="M19.58 49.68L27.22 49.68L27.22 43.49L19.58 43.49L19.58 31.90C22.46 31.10 25.13 30.24 27.50 29.16L23.90 23.62C18.86 25.99 10.80 28.15 3.67 29.38C4.39 30.89 5.18 33.26 5.40 34.78C7.99 34.42 10.66 33.91 13.32 33.34L13.32 43.49L3.46 43.49L3.46 49.68L12.53 49.68C10.08 57.24 5.98 65.88 2.09 70.78C3.10 72.50 4.54 75.38 5.11 77.33C7.99 73.30 10.94 67.32 13.32 60.84L13.32 89.21L19.58 89.21L19.58 59.98C21.67 63.22 24.05 67.10 25.13 69.34L28.66 63.86C27.36 62.06 21.67 55.44 19.58 53.28ZM58.18 70.27L58.18 74.16L37.87 74.16L37.87 70.27ZM37.87 82.37L37.87 78.41L58.18 78.41L58.18 82.37ZM31.54 89.14L37.87 89.14L37.87 86.98L58.18 86.98L58.18 88.99L64.80 88.99L64.80 65.81L31.54 65.81ZM62.21 46.01C66.46 46.01 67.97 44.50 68.54 38.95C67.03 38.59 64.73 37.87 63.65 37.08C63.43 40.75 63.14 41.26 61.56 41.26L54.94 41.26C52.99 41.26 52.63 41.04 52.63 39.67L52.63 35.78L67.75 35.78L67.75 30.82L61.27 30.82L63.58 28.44C61.42 26.86 57.31 24.48 54.07 22.90L50.62 26.21C52.99 27.43 55.94 29.23 58.18 30.82L47.45 30.82C47.45 30.38 47.45 29.88 47.45 29.45L47.45 23.18L41.54 23.18L41.54 29.30C41.54 29.81 41.54 30.31 41.47 30.82L28.22 30.82L28.22 35.78L39.53 35.78C37.58 38.30 33.98 40.68 27.22 42.62C28.15 43.70 29.38 46.44 29.81 47.81C30.38 47.66 30.96 47.45 31.54 47.30L31.54 55.44C31.54 60.84 33.26 63.07 40.18 63.07L58.03 63.07C61.27 63.07 64.73 62.93 66.24 62.57C66.02 61.20 65.81 59.40 65.66 57.67C63.94 58.03 59.90 58.18 57.53 58.18L40.75 58.18C38.09 58.18 37.58 57.46 37.58 55.58L37.58 54.79C46.80 54.29 57.31 53.14 64.58 51.41L60.62 47.59C55.30 49.03 46.08 50.04 37.58 50.76L37.58 46.58L33.70 46.58C41.40 43.63 44.93 39.89 46.44 35.78L47.02 35.78L47.02 39.74C47.02 44.57 48.38 46.01 54.29 46.01Z"/></svg>
