<svg xmlns="http://www.w3.org/2000/svg" xmlns:xlink="http://www.w3.org/1999/xlink" width="72.00000000000001" height="106.56000000000002"><path fill="red" stroke="red" d="M51.91 33.12L48.89 35.64C51.41 37.66 54.65 40.61 56.09 42.55L60.62 38.59C59.26 37.01 56.74 34.85 54.43 33.12L68.54 33.12L68.54 27.86L47.88 27.86C48.46 26.57 48.96 25.34 49.39 24.05L43.27 22.54C41.33 28.44 37.66 34.13 33.41 37.73C34.92 38.74 37.37 40.68 38.52 41.76C40.90 39.38 43.20 36.50 45.22 33.12ZM20.52 33.12L17.86 35.35C20.38 37.51 23.62 40.61 25.13 42.70L29.45 38.81C28.15 37.15 25.63 34.92 23.40 33.12L35.42 33.12L35.42 27.86L18.14 27.86C18.79 26.64 19.37 25.49 19.87 24.26L13.90 22.54C11.59 28.37 7.63 34.20 3.31 37.94C4.61 39.02 6.98 41.26 7.92 42.41C10.44 39.89 12.96 36.65 15.26 33.12ZM8.06 66.10C10.15 61.70 11.38 54.65 11.66 49.18L6.48 48.38C6.12 53.50 4.90 59.98 2.95 63.72ZM13.25 89.35L19.66 89.35L19.66 40.61L13.25 40.61ZM29.23 56.59C28.44 53.64 26.35 48.89 24.48 45.29L19.87 47.09C21.67 50.83 23.62 55.80 24.34 58.82ZM48.24 71.57C53.21 77.11 59.90 84.74 63.07 89.21L68.47 85.10C65.09 80.71 58.18 73.37 53.28 68.11ZM47.45 51.12L56.38 51.12L56.38 61.34L47.38 61.34C47.45 60.12 47.45 58.90 47.45 57.74ZM62.86 61.34L62.86 45.29L47.45 45.29L47.45 40.25L40.90 40.25L40.90 45.29L29.52 45.29L29.52 51.12L40.90 51.12L40.90 57.67C40.90 58.82 40.90 60.05 40.75 61.34L25.49 61.34L25.49 67.18L39.82 67.18C38.16 73.58 33.84 79.99 23.33 84.38C24.91 85.61 26.78 87.91 27.72 89.35C40.25 83.66 45.00 75.46 46.58 67.18L68.90 67.18L68.90 61.34Z"/></svg>
