<svg xmlns="http://www.w3.org/2000/svg" xmlns:xlink="http://www.w3.org/1999/xlink" width="72.00000000000001" height="106.56000000000002"><path fill="red" stroke="red" d="M20.30 33.48L17.78 35.57C20.16 37.73 23.11 40.82 24.55 42.77L28.87 38.95C27.65 37.44 25.49 35.35 23.40 33.48L35.42 33.48L35.42 28.01L18.07 28.01C18.72 26.71 19.30 25.56 19.80 24.26L13.82 22.54C11.59 28.37 7.56 34.13 3.24 37.94C4.61 39.02 6.91 41.26 7.85 42.41C10.22 40.03 12.67 36.94 14.98 33.48ZM50.11 74.52L50.11 70.06L58.03 70.06L58.03 74.52ZM36.79 74.52L36.79 70.06L44.57 70.06L44.57 74.52ZM23.69 74.52L23.69 70.06L31.18 70.06L31.18 74.52ZM64.30 65.23L17.64 65.23L17.64 88.78L23.69 88.78L23.69 79.20L31.18 79.20L31.18 86.62L36.79 86.62L36.79 79.20L44.57 79.20L44.57 86.62L50.11 86.62L50.11 79.20L58.03 79.20L58.03 83.66C58.03 84.38 57.82 84.60 57.02 84.60C56.30 84.67 53.93 84.67 51.48 84.60C52.13 85.90 52.92 87.77 53.21 89.28C57.17 89.28 59.98 89.28 61.85 88.49C63.72 87.62 64.30 86.40 64.30 83.66ZM52.06 33.48L48.82 35.86C50.62 37.37 52.70 39.46 54.00 41.04C49.54 41.54 44.35 41.98 38.74 42.34C41.04 39.89 43.27 36.86 45.22 33.48ZM56.38 53.93L56.38 58.10L17.86 58.10C17.86 57.02 17.86 56.09 17.86 55.08L17.86 53.93ZM47.88 28.01C48.46 26.71 48.96 25.42 49.39 24.05L43.27 22.61C41.33 28.66 37.80 34.56 33.62 38.38C35.14 39.31 37.66 41.26 38.74 42.34C29.95 42.91 20.23 43.20 11.59 43.34L11.59 54.94C11.59 64.51 10.80 76.03 2.95 85.32C4.61 86.18 7.06 88.20 8.21 89.50C14.98 81.50 17.06 71.64 17.64 62.50L62.64 62.50L62.64 49.54L17.86 49.54L17.86 47.45C33.41 47.23 50.90 46.15 62.50 44.42L59.11 40.32C58.18 40.46 57.10 40.61 55.94 40.75L59.18 38.09C58.18 36.72 56.23 34.99 54.43 33.48L68.62 33.48L68.62 28.01Z"/></svg>
