<svg xmlns="http://www.w3.org/2000/svg" xmlns:xlink="http://www.w3.org/1999/xlink" width="72.00000000000001" height="106.56000000000002"><path fill="red" stroke="red" d="M21.02 32.11L17.71 34.56C19.22 36.07 20.81 37.87 22.03 39.46L9.72 39.46C11.74 37.37 13.75 34.78 15.48 32.11ZM26.93 47.45L15.19 47.45L15.19 43.34L26.93 43.34ZM9.14 51.34L33.19 51.34L33.19 39.46L24.77 39.46L27.58 37.30C26.50 35.86 24.55 33.84 22.82 32.11L35.35 32.11L35.35 26.71L18.72 26.71C19.08 25.92 19.51 25.06 19.87 24.34L13.90 22.54C11.45 28.08 7.34 33.55 2.95 37.08C4.32 38.16 6.55 40.54 7.49 41.54C8.06 41.11 8.57 40.61 9.14 40.03ZM17.86 69.12L17.86 65.59L32.47 65.59L32.47 69.12ZM17.86 58.18L32.47 58.18L32.47 61.49L17.86 61.49ZM55.15 61.49L39.17 61.49L39.17 58.18L55.15 58.18ZM55.15 69.12L39.17 69.12L39.17 65.59L55.15 65.59ZM39.17 73.44L61.63 73.44L61.63 53.86L11.66 53.86L11.66 73.44L32.47 73.44L32.47 76.54L4.46 76.54L4.46 81.86L32.47 81.86L32.47 89.14L39.17 89.14L39.17 81.86L67.61 81.86L67.61 76.54L39.17 76.54ZM57.02 47.45L44.93 47.45L44.93 43.34L57.02 43.34ZM47.66 26.71C48.10 25.85 48.46 24.98 48.82 24.19L42.70 22.61C40.68 27.72 37.15 32.54 33.05 35.71C34.49 36.72 37.01 38.66 38.02 39.74C40.39 37.73 42.62 35.06 44.57 32.11L52.13 32.11L48.74 34.34C50.33 35.86 52.13 37.87 53.35 39.46L38.88 39.46L38.88 51.34L63.43 51.34L63.43 39.46L55.08 39.46L58.68 36.79C57.74 35.42 55.94 33.62 54.29 32.11L68.69 32.11L68.69 26.71Z"/></svg>
