<svg xmlns="http://www.w3.org/2000/svg" xmlns:xlink="http://www.w3.org/1999/xlink" width="72.00000000000001" height="106.56000000000002"><path fill="red" stroke="red" d="M24.62 49.46C28.51 47.66 32.18 45.58 35.42 43.34C38.52 45.58 42.26 47.66 46.44 49.46ZM35.64 36.07C28.58 42.77 15.19 47.81 3.38 50.47C4.82 51.91 6.41 54.22 7.13 55.80C12.53 54.36 18.07 52.42 23.26 50.11L23.26 54.07L47.52 54.07L47.52 49.90C53.21 52.27 59.33 54.22 64.94 55.37C65.81 53.71 67.61 51.19 68.98 49.82C58.46 48.24 45.86 44.57 39.31 40.39C39.82 39.89 40.39 39.38 40.97 38.88ZM43.63 61.56L55.22 61.56L55.22 67.68L43.63 67.68ZM38.09 72.22L61.06 72.22L61.06 57.02L38.09 57.02ZM17.35 61.56L28.73 61.56L28.73 67.68L17.35 67.68ZM11.88 72.22L34.49 72.22L34.49 57.02L11.88 57.02ZM54.65 32.90L50.33 34.99C52.49 37.58 54.86 41.11 55.87 43.49L61.27 40.61C60.34 38.38 58.03 35.21 55.94 32.90L68.54 32.90L68.54 27.79L48.24 27.79C48.89 26.57 49.46 25.42 49.97 24.19L43.63 22.61C41.83 27.00 38.59 31.25 34.85 34.20C36.43 34.92 39.17 36.79 40.32 37.87C41.90 36.50 43.42 34.78 44.86 32.90ZM22.54 32.76L18.07 34.85C19.30 37.22 20.74 40.32 21.24 42.34L26.64 39.60C26.06 37.73 24.77 34.85 23.40 32.76L35.50 32.76L35.50 27.65L18.07 27.65C18.58 26.50 19.01 25.49 19.44 24.34L13.18 22.68C10.94 28.87 7.06 35.14 2.59 39.10C4.18 39.96 6.84 41.69 8.14 42.77C10.58 40.18 13.18 36.65 15.48 32.76ZM33.12 82.94C30.82 81.29 26.93 78.98 23.40 77.26C24.19 76.25 24.91 75.10 25.49 73.94L19.51 72.58C16.56 78.12 9.94 82.22 2.66 84.67C3.96 85.75 5.98 88.13 6.77 89.42C11.45 87.55 15.98 84.82 19.66 81.36C23.11 83.30 26.93 85.75 29.23 87.48ZM47.02 72.72C44.93 78.62 39.31 82.66 32.33 85.03C33.55 86.11 35.64 88.27 36.50 89.42C40.82 87.55 44.78 85.18 47.88 81.94C53.57 84.02 59.98 86.76 63.72 88.85L67.82 84.10C63.72 82.08 57.10 79.34 51.26 77.33C51.98 76.25 52.49 74.95 52.99 73.66Z"/></svg>
