<svg xmlns="http://www.w3.org/2000/svg" xmlns:xlink="http://www.w3.org/1999/xlink" width="72.00000000000001" height="106.56000000000002"><path fill="red" stroke="red" d="M25.56 76.82L25.56 81.14L13.90 81.14L13.90 76.82ZM8.42 86.90L13.90 86.90L13.90 84.96L25.56 84.96L25.56 86.62L31.25 86.62L31.25 73.01L8.42 73.01ZM53.21 83.38C53.21 84.17 52.92 84.38 51.98 84.46C51.26 84.53 48.60 84.53 45.86 84.38L46.37 84.10C45.14 82.37 42.55 79.85 40.32 78.12L53.21 78.12ZM3.60 70.99L53.21 70.99L53.21 74.23L33.12 74.23L33.12 78.12L39.89 78.12L35.78 80.71C38.09 82.58 40.61 85.25 41.76 87.05L45.65 84.60C46.37 85.97 47.45 87.70 47.88 89.21C51.91 89.21 54.79 89.21 56.95 88.42C59.04 87.55 59.62 86.47 59.62 83.59L59.62 78.12L67.46 78.12L67.46 74.23L59.62 74.23L59.62 70.99L68.47 70.99L68.47 67.32L3.60 67.32ZM10.94 61.70L10.94 64.80L60.26 64.80L60.26 61.70L38.74 61.70L38.74 59.26L56.59 59.26L56.59 56.23L15.12 56.23L15.12 59.26L32.47 59.26L32.47 61.70ZM63.58 50.11L62.42 50.33L4.18 50.33L4.18 53.93L60.98 53.93C60.62 55.80 60.12 57.74 59.76 59.18L65.30 60.48C66.24 58.03 67.32 54.36 68.26 51.19ZM27.00 36.50C26.35 34.92 24.84 32.62 23.47 30.96L18.00 32.54C19.30 34.20 20.66 36.72 21.31 38.16ZM47.59 26.64C48.10 25.78 48.60 24.91 49.10 24.05L42.77 22.39C41.11 25.42 38.38 28.51 35.28 30.82L35.28 26.64L17.86 26.64C18.36 25.85 18.72 25.13 19.15 24.41L12.89 22.68C10.66 27.07 6.84 31.46 2.74 34.34C4.32 35.21 6.91 37.01 8.21 38.09C10.44 36.22 12.82 33.70 14.90 30.96L35.14 30.96C34.27 31.61 33.41 32.18 32.47 32.76C33.84 33.26 36.00 34.49 37.44 35.50L32.76 35.50L32.76 38.74L6.77 38.74L6.77 42.34L32.76 42.34L32.76 44.71L11.88 44.71L11.88 47.88L60.48 47.88L60.48 44.71L39.24 44.71L39.24 42.34L65.59 42.34L65.59 38.74L39.24 38.74L39.24 35.50L39.02 35.50C40.75 34.20 42.48 32.69 44.14 30.96L54.94 30.96L49.97 32.40C51.41 34.06 52.99 36.43 53.64 37.94L59.33 36.22C58.61 34.78 56.95 32.54 55.51 30.96L68.69 30.96L68.69 26.64Z"/></svg>
