<svg xmlns="http://www.w3.org/2000/svg" xmlns:xlink="http://www.w3.org/1999/xlink" width="72.00000000000001" height="106.56000000000002"><path fill="red" stroke="red" d="M26.14 27.36C25.27 32.26 23.33 39.38 21.74 43.63L26.06 44.93C27.94 40.82 30.10 34.20 31.97 28.73ZM12.53 43.63C12.10 39.31 10.51 32.69 8.57 27.58L3.74 28.80C5.47 33.84 7.06 40.61 7.27 44.93ZM9.58 56.74C8.28 62.71 5.18 70.13 2.09 74.02C3.17 76.03 4.61 79.13 5.26 81.29C9.43 76.32 12.53 66.31 14.04 58.32ZM46.15 25.27L46.15 31.39L54.07 31.39C55.66 39.24 58.39 46.73 62.21 52.20L35.06 52.20C39.53 46.15 42.62 37.58 44.35 28.44L38.09 27.29C36.72 35.50 33.98 43.20 29.81 48.53L29.81 47.02L20.45 47.02L20.45 23.18L14.18 23.18L14.18 47.02L3.46 47.02L3.46 53.28L14.18 53.28L14.18 89.21L20.45 89.21L20.45 59.76C22.18 62.86 25.70 70.63 27.07 74.23L31.54 69.34C30.31 67.32 25.27 58.75 23.83 56.88L20.45 59.40L20.45 53.28L29.81 53.28L29.81 51.26C31.10 52.34 32.54 53.71 33.19 54.50C33.55 54.07 33.98 53.64 34.34 53.21L34.34 58.39L41.40 58.39C40.32 70.63 36.79 79.42 28.44 84.60C29.66 85.68 32.04 88.13 32.76 89.35C42.12 82.94 46.22 72.86 47.81 58.39L57.67 58.39C56.95 74.30 56.02 80.35 54.79 81.94C54.14 82.73 53.50 82.87 52.42 82.87C51.26 82.87 48.74 82.80 45.94 82.51C46.87 84.24 47.52 86.76 47.66 88.49C50.76 88.63 53.78 88.70 55.66 88.42C57.60 88.13 59.04 87.55 60.34 85.90C62.42 83.30 63.29 75.74 64.22 55.01L64.22 54.72L64.80 55.37C66.02 53.78 68.40 51.55 69.91 50.47C64.51 45.36 60.77 35.64 59.26 25.27Z"/></svg>
