<svg xmlns="http://www.w3.org/2000/svg" xmlns:xlink="http://www.w3.org/1999/xlink" width="72.00000000000001" height="106.56000000000002"><path fill="red" stroke="red" d="M26.14 27.86C25.13 32.40 23.11 39.02 21.53 42.98L25.78 44.57C27.50 40.82 29.81 34.78 31.82 29.74ZM12.24 42.91C11.59 38.88 10.08 32.69 8.50 27.86L3.82 29.02C5.18 33.84 6.70 40.18 7.27 44.28ZM9.58 56.74C8.28 62.78 5.26 70.13 2.23 74.02C3.31 75.89 4.68 78.84 5.18 80.78C9.22 75.89 12.31 66.02 13.82 58.25ZM30.53 53.28L30.53 47.02L20.30 47.02L20.30 23.18L14.18 23.18L14.18 47.02L3.38 47.02L3.38 53.28L14.18 53.28L14.18 89.21L20.30 89.21L20.30 53.28ZM20.38 59.40C22.03 62.21 25.63 70.06 26.93 73.58L31.32 68.69C30.24 66.74 25.34 58.68 23.90 56.88ZM40.68 68.69L56.45 68.69L56.45 81.36L40.68 81.36ZM56.45 32.26L56.45 44.35L40.68 44.35L40.68 32.26ZM56.45 62.64L40.68 62.64L40.68 50.33L56.45 50.33ZM63.14 81.36L63.14 25.99L34.20 25.99L34.20 81.36L27.00 81.36L27.00 87.62L68.90 87.62L68.90 81.36Z"/></svg>
