<svg xmlns="http://www.w3.org/2000/svg" xmlns:xlink="http://www.w3.org/1999/xlink" width="72.00000000000001" height="106.56000000000002"><path fill="red" stroke="red" d="M11.81 43.63C11.52 39.38 10.01 32.90 8.06 28.01L3.60 29.16C5.33 34.13 6.84 40.61 6.98 44.86ZM18.58 23.18L12.67 23.18L12.67 47.59L3.60 47.59L3.60 53.71L12.67 53.71L12.67 58.18L8.14 56.74C7.34 62.64 4.90 70.06 2.38 74.02C3.46 76.03 4.82 79.20 5.40 81.36C9.00 76.32 11.52 66.53 12.67 58.68L12.67 89.21L18.58 89.21L18.58 59.90C19.94 63.07 22.32 70.27 23.18 73.73L27.72 69.05C26.86 66.96 23.04 58.68 21.96 56.88L18.58 59.26L18.58 53.71L26.35 53.71L26.35 47.59L18.58 47.59ZM22.97 27.50C22.03 32.33 20.16 39.24 18.58 43.56L22.61 44.86C24.34 40.75 26.57 34.27 28.30 29.02ZM59.54 69.34L59.54 73.15L37.30 73.15L37.30 69.34ZM37.30 81.79L37.30 77.69L59.54 77.69L59.54 81.79ZM31.32 89.14L37.30 89.14L37.30 86.76L59.54 86.76L59.54 88.92L65.81 88.92L65.81 64.30L31.32 64.30ZM50.98 38.02L45.43 38.02L45.43 34.06L50.98 34.06ZM61.70 42.55L61.70 47.30L56.09 47.30L56.09 42.55ZM61.70 56.52L56.09 56.52L56.09 51.62L61.70 51.62ZM35.14 51.62L40.32 51.62L40.32 56.52L35.14 56.52ZM50.98 51.62L50.98 56.52L45.43 56.52L45.43 51.62ZM45.43 47.30L45.43 42.55L50.98 42.55L50.98 47.30ZM35.14 42.55L40.32 42.55L40.32 47.30L35.14 47.30ZM68.62 34.06L68.62 28.73L56.09 28.73L56.09 23.11L50.98 23.11L50.98 28.73L45.43 28.73L45.43 23.11L40.32 23.11L40.32 28.73L28.51 28.73L28.51 34.06L40.32 34.06L40.32 38.02L29.81 38.02L29.81 61.06L67.25 61.06L67.25 38.02L56.09 38.02L56.09 34.06Z"/></svg>
