<svg xmlns="http://www.w3.org/2000/svg" xmlns:xlink="http://www.w3.org/1999/xlink" width="72.00000000000001" height="106.56000000000002"><path fill="red" stroke="red" d="M28.37 65.52C27.86 61.70 26.14 55.30 24.41 50.40L19.44 51.70C20.16 53.64 20.81 55.94 21.38 58.25L12.89 59.26C18.50 52.78 24.12 44.78 28.37 37.01L22.61 33.41C21.17 36.72 19.30 40.03 17.35 43.06L11.09 43.56C14.76 38.30 18.36 31.75 21.24 25.42L15.05 22.90C12.46 30.53 7.85 38.59 6.41 40.68C4.97 42.77 3.82 44.28 2.52 44.57C3.24 46.15 4.18 49.18 4.54 50.47C5.62 50.04 7.20 49.61 13.61 48.82C11.38 52.13 9.36 54.72 8.42 55.80C6.19 58.46 4.54 60.12 2.95 60.55C3.67 62.28 4.68 65.45 5.04 66.74C6.48 66.02 8.78 65.52 22.46 63.43C22.75 64.80 22.97 66.02 23.11 67.10ZM5.90 69.41C5.33 75.46 4.32 81.94 2.66 86.40C4.03 86.76 6.55 87.55 7.70 88.20C9.22 83.66 10.51 76.75 11.16 70.34ZM13.18 70.20C13.90 75.02 14.54 81.36 14.62 85.54L19.73 84.53C19.58 80.35 18.86 74.16 18.00 69.34ZM20.02 68.83C21.31 72.29 22.61 76.82 23.11 79.85L27.79 78.26C27.22 75.31 25.85 70.92 24.48 67.46ZM41.47 61.34L40.46 61.56L29.95 61.56L29.95 67.03L37.87 67.03C35.42 73.30 30.96 78.48 25.99 81.14C27.14 82.30 28.94 84.46 29.81 85.82C37.15 81.58 42.98 73.66 45.36 62.71ZM38.74 45.79L59.18 45.79L59.18 50.98L38.74 50.98ZM38.74 35.86L59.18 35.86L59.18 40.97L38.74 40.97ZM63.00 58.10C61.13 60.41 58.32 63.43 55.66 65.88C54.50 63.65 53.64 61.27 52.85 58.75L52.85 56.23L65.74 56.23L65.74 30.67L49.90 30.67C50.98 28.80 51.98 26.64 52.99 24.55L45.43 23.04C44.93 25.27 44.06 28.22 43.13 30.67L32.47 30.67L32.47 56.23L46.44 56.23L46.44 82.15C46.44 82.94 46.22 83.16 45.29 83.23C44.42 83.30 41.40 83.30 38.38 83.16C39.17 84.82 40.03 87.48 40.25 89.28C44.78 89.28 48.02 89.21 50.11 88.20C52.20 87.19 52.85 85.39 52.85 82.22L52.85 71.93C55.94 78.05 60.05 83.09 64.94 86.26C65.95 84.60 67.90 82.15 69.34 81.00C64.94 78.70 61.13 74.88 58.18 70.34C61.20 68.04 64.73 65.02 67.97 62.21Z"/></svg>
