<svg xmlns="http://www.w3.org/2000/svg" xmlns:xlink="http://www.w3.org/1999/xlink" width="72.00000000000001" height="106.56000000000002"><path fill="red" stroke="red" d="M22.10 36.65L32.62 36.65L32.62 30.74L13.90 30.74C14.69 28.30 15.34 25.70 15.91 23.26L9.65 22.03C8.14 29.66 5.54 37.58 2.02 42.70C3.53 43.42 6.26 45.07 7.42 45.94C9.07 43.34 10.51 40.18 11.88 36.65L16.13 36.65L16.13 48.53L3.17 48.53L3.17 54.43L16.13 54.43L16.13 76.82L10.44 76.82L10.44 60.05L5.11 60.05L5.11 82.66L27.43 82.66L27.43 85.75L32.98 85.75L32.98 59.98L27.43 59.98L27.43 76.82L22.10 76.82L22.10 54.43L33.70 54.43L33.70 48.53L22.10 48.53ZM55.01 78.55L55.01 35.93L67.32 35.93L67.32 29.52L35.78 29.52L35.78 35.93L48.17 35.93L48.17 78.55L34.99 78.55L34.99 84.96L68.54 84.96L68.54 78.55Z"/></svg>
