<svg xmlns="http://www.w3.org/2000/svg" xmlns:xlink="http://www.w3.org/1999/xlink" width="72.00000000000001" height="106.56000000000002"><path fill="red" stroke="red" d="M57.96 46.01C57.96 46.87 57.67 47.09 56.81 47.09C55.94 47.16 52.92 47.23 49.97 47.09C50.69 48.46 51.48 50.33 51.84 51.84C56.30 51.84 59.54 51.84 61.63 51.05C63.65 50.26 64.30 48.96 64.30 46.08L64.30 25.63L37.22 25.63L37.22 30.67L57.96 30.67ZM20.09 77.26L36.00 77.26L36.00 81.94L20.09 81.94ZM36.00 64.15L20.09 64.15L20.09 59.98L36.00 59.98ZM36.00 72.79L20.09 72.79L20.09 68.62L36.00 68.62ZM66.10 81.94L42.55 81.94L42.55 77.26L60.62 77.26L60.62 72.79L42.55 72.79L42.55 68.62L60.62 68.62L60.62 64.15L42.55 64.15L42.55 59.98L63.07 59.98L63.07 55.22L42.62 55.22C41.98 53.50 40.90 51.41 39.96 49.54C44.71 47.30 50.62 44.57 56.16 41.76L55.08 37.37L51.98 38.66L53.71 35.21C50.83 33.91 45.29 31.97 41.33 30.82L39.17 34.49C42.98 35.78 48.10 37.73 51.05 39.02C45.86 41.33 40.90 43.42 37.30 44.71L39.10 48.96L33.34 50.54C34.06 51.98 34.85 53.64 35.50 55.22L22.90 55.22C23.83 54.00 24.77 52.63 25.56 51.41C28.22 51.34 30.24 51.19 31.75 50.54C33.62 49.75 34.13 48.53 34.13 45.79L34.13 25.63L6.62 25.63L6.62 30.67L27.79 30.67L27.79 45.72C27.79 46.44 27.58 46.66 26.86 46.66C26.14 46.73 23.98 46.73 21.89 46.58C22.25 47.59 22.75 48.82 23.11 49.90L19.80 48.82C15.98 55.22 9.50 61.49 3.10 65.38C4.54 66.46 6.77 68.98 7.85 70.27C9.72 68.90 11.74 67.32 13.61 65.52L13.61 89.14L20.09 89.14L20.09 86.76L66.02 86.76ZM8.86 49.90C13.90 47.66 20.02 44.71 25.85 41.90L24.84 37.58L21.02 39.24L23.04 35.35C20.09 33.98 14.69 32.04 10.73 30.89L8.50 34.56C12.46 36.00 17.78 38.02 20.66 39.38C15.41 41.54 10.37 43.70 6.70 45.00Z"/></svg>
