<svg xmlns="http://www.w3.org/2000/svg" xmlns:xlink="http://www.w3.org/1999/xlink" width="72.00000000000001" height="106.56000000000002"><path fill="red" stroke="red" d="M68.26 33.12L68.26 26.35L3.96 26.35L3.96 33.12L30.96 33.12C30.38 36.07 29.59 39.46 28.80 42.26L7.49 42.26L7.49 89.28L14.33 89.28L14.33 48.53L24.05 48.53L24.05 87.05L30.74 87.05L30.74 48.53L40.90 48.53L40.90 87.05L47.52 87.05L47.52 48.53L58.10 48.53L58.10 81.50C58.10 82.51 57.74 82.80 56.66 82.87C55.73 82.87 52.27 82.94 48.82 82.80C49.61 84.46 50.62 87.19 50.98 88.92C55.94 88.92 59.54 88.85 61.92 87.77C64.22 86.76 64.87 84.96 64.87 81.58L64.87 42.26L36.00 42.26C37.01 39.53 38.09 36.29 38.95 33.12Z"/></svg>
