<svg xmlns="http://www.w3.org/2000/svg" xmlns:xlink="http://www.w3.org/1999/xlink" width="72.00000000000001" height="106.56000000000002"><path fill="red" stroke="red" d="M26.71 41.11L14.98 41.11L14.98 32.40L26.71 32.40ZM14.98 61.13L26.71 61.13L26.71 69.34C22.75 69.98 18.72 70.63 14.98 71.14ZM14.98 46.66L26.71 46.66L26.71 55.51L14.98 55.51ZM3.74 32.40L8.78 32.40L8.78 72.07C6.48 72.43 4.32 72.72 2.45 72.94L3.74 79.42C10.08 78.26 18.50 76.97 26.71 75.53L26.71 89.14L32.98 89.14L32.98 32.40L38.59 32.40L38.59 26.28L3.74 26.28ZM63.65 25.85L62.71 26.14L41.33 26.14L41.33 89.14L47.81 89.14L47.81 32.26L59.54 32.26C57.46 37.58 54.86 43.70 51.91 50.11C59.11 56.95 62.35 61.56 62.35 65.95C62.35 68.47 61.63 70.70 59.98 71.57C59.26 72.00 58.25 72.22 57.10 72.29C55.73 72.36 53.64 72.36 51.62 72.14C52.63 73.94 53.21 76.61 53.28 78.26C55.44 78.41 57.82 78.41 59.54 78.19C61.42 77.98 63.00 77.47 64.30 76.61C67.18 74.66 68.54 70.85 68.54 66.10C68.54 61.27 65.59 56.02 58.54 49.18C62.21 41.83 65.52 34.85 68.40 28.51Z"/></svg>
