<svg xmlns="http://www.w3.org/2000/svg" xmlns:xlink="http://www.w3.org/1999/xlink" width="72.00000000000001" height="106.56000000000002"><path fill="red" stroke="red" d="M67.03 39.96C66.10 36.72 63.86 31.46 61.63 27.50L56.81 29.16C58.90 33.19 61.06 38.59 61.85 41.98ZM48.10 30.46L40.82 30.46C40.10 28.30 39.10 25.56 38.16 23.47L32.54 24.48C33.26 26.28 34.13 28.51 34.78 30.46L26.71 30.46L26.71 35.71L48.10 35.71ZM18.07 41.04L11.66 41.04L11.66 32.04L18.07 32.04ZM11.66 61.20L18.07 61.20L18.07 70.13C15.91 70.63 13.68 71.06 11.66 71.42ZM18.07 55.66L11.66 55.66L11.66 46.58L18.07 46.58ZM26.28 32.04L26.28 26.06L3.24 26.06L3.24 32.04L6.62 32.04L6.62 72.43C5.11 72.72 3.82 72.86 2.52 73.08L3.82 78.84C8.06 77.90 13.03 76.75 18.07 75.67L18.07 89.28L23.26 89.28L23.26 32.04ZM33.19 74.30L33.19 68.54L41.83 68.54L41.83 74.30ZM41.83 58.32L41.83 63.86L33.19 63.86L33.19 58.32ZM63.14 53.28C61.78 57.82 59.98 62.06 57.82 65.95C57.24 61.42 56.74 56.02 56.38 50.18L68.76 50.18L68.76 44.50L56.09 44.50C55.80 37.87 55.58 30.60 55.58 23.11L49.82 23.11C49.97 30.67 50.11 37.87 50.47 44.50L44.14 44.50C44.86 42.34 45.58 39.53 46.37 37.01L41.11 36.07C40.75 38.52 39.96 41.90 39.24 44.50L34.63 44.50C34.34 42.12 33.55 38.74 32.76 36.14L28.08 36.94C28.73 39.24 29.38 42.19 29.66 44.50L25.42 44.50L25.42 50.18L50.76 50.18C51.26 58.97 52.06 66.67 53.21 72.86C51.26 75.31 49.10 77.69 46.94 79.70L46.94 53.57L28.01 53.57L28.01 84.10L33.19 84.10L33.19 78.98L41.83 78.98L41.83 80.78L45.72 80.78C43.92 82.37 42.05 83.74 40.10 84.96C41.47 85.97 43.20 87.55 43.99 88.70C47.74 86.18 51.41 83.02 54.72 79.34C56.59 85.46 59.04 88.99 62.57 89.06C65.02 89.06 67.75 86.40 69.26 75.60C68.26 75.02 66.02 73.37 65.02 72.07C64.66 78.12 63.86 81.72 62.78 81.72C61.34 81.65 60.12 78.84 59.04 73.94C62.86 68.69 66.02 62.57 68.26 55.87Z"/></svg>
