<svg xmlns="http://www.w3.org/2000/svg" xmlns:xlink="http://www.w3.org/1999/xlink" width="72.00000000000001" height="106.56000000000002"><path fill="red" stroke="red" d="M55.15 76.03C51.41 72.36 43.85 66.74 38.16 62.86C39.02 60.34 39.67 57.74 40.18 55.15L33.26 55.15C31.68 63.14 28.30 71.35 15.55 75.82C16.99 77.04 18.79 79.34 19.51 80.93C27.43 77.83 32.18 73.58 35.35 68.54C40.75 72.58 46.94 77.54 50.11 80.93ZM65.16 33.48L39.60 33.48C40.10 30.31 40.39 26.93 40.61 23.40L33.55 23.40C33.34 27.00 33.05 30.38 32.62 33.48L6.84 33.48L6.84 89.28L13.54 89.28L13.54 40.03L31.10 40.03C28.80 46.66 24.55 51.84 15.70 55.30C17.14 56.38 19.01 58.75 19.73 60.26C27.29 57.24 31.97 53.06 35.06 47.88C41.04 51.62 47.74 56.30 51.19 59.62L55.80 54.36C51.77 50.90 43.78 45.86 37.58 42.26C37.80 41.62 38.09 40.82 38.30 40.03L58.54 40.03L58.54 81.14C58.54 82.37 58.18 82.73 56.95 82.80C55.73 82.80 51.48 82.87 47.30 82.66C48.24 84.46 49.18 87.55 49.46 89.42C55.30 89.42 59.40 89.28 61.92 88.13C64.37 87.12 65.16 85.03 65.16 81.29Z"/></svg>
