<svg xmlns="http://www.w3.org/2000/svg" xmlns:xlink="http://www.w3.org/1999/xlink" width="72.00000000000001" height="106.56000000000002"><path fill="red" stroke="red" d="M27.14 60.62L27.14 74.16L13.46 74.16L13.46 60.62ZM33.70 80.06L33.70 54.72L23.98 54.72L23.98 42.84L36.65 42.84L36.65 36.43L23.98 36.43L23.98 23.04L17.14 23.04L17.14 36.43L3.89 36.43L3.89 42.84L17.14 42.84L17.14 54.72L6.91 54.72L6.91 84.96L13.46 84.96L13.46 80.06ZM47.38 44.57C50.76 47.30 54.58 50.83 56.66 52.99L59.69 49.82L59.69 56.95C54.79 59.54 50.04 62.14 46.66 63.58C47.23 58.82 47.38 54.22 47.38 50.11ZM59.69 33.05L59.69 47.66C57.38 45.36 53.71 42.48 50.54 40.25L47.38 43.13L47.38 33.05ZM66.17 26.93L40.82 26.93L40.82 50.11C40.82 61.20 40.03 75.74 31.10 85.90C32.76 86.54 35.57 88.34 36.79 89.50C42.77 82.58 45.50 73.01 46.58 63.94L49.39 69.91C52.56 67.97 56.09 65.74 59.69 63.43L59.69 80.86C59.69 81.94 59.33 82.37 58.18 82.37C57.17 82.37 53.50 82.44 49.90 82.30C50.83 83.95 51.70 86.98 51.98 88.70C57.38 88.70 60.91 88.56 63.22 87.48C65.45 86.40 66.17 84.46 66.17 80.93Z"/></svg>
