<svg xmlns="http://www.w3.org/2000/svg" xmlns:xlink="http://www.w3.org/1999/xlink" width="72.00000000000001" height="106.56000000000002"><path fill="red" stroke="red" d="M38.74 48.74L57.24 48.74L57.24 58.82L38.74 58.82ZM12.67 44.50C14.69 46.51 16.56 48.82 17.71 50.40L20.23 48.38L20.23 56.52C17.35 58.46 14.69 60.26 12.46 61.56C12.60 57.96 12.67 54.43 12.67 51.34ZM20.23 31.82L20.23 45.00C18.72 43.42 16.78 41.47 15.05 39.96L12.67 41.62L12.67 31.82ZM57.89 82.37C56.45 82.37 56.23 82.08 56.23 80.14L56.23 64.44L63.58 64.44L63.58 46.15L64.01 47.02L69.26 43.56C66.60 38.09 60.26 29.81 54.86 23.69L50.04 26.64C54.29 31.54 58.90 37.94 61.99 43.13L34.42 43.13C38.59 38.30 42.34 32.18 44.78 25.85L38.59 24.19C35.93 31.10 31.39 37.66 26.14 42.05L26.14 25.70L6.98 25.70L6.98 51.34C6.98 61.85 6.62 76.18 2.38 86.26C3.89 86.76 6.41 88.13 7.56 89.14C10.51 82.15 11.74 72.79 12.31 64.01L14.40 67.68C16.34 66.10 18.22 64.30 20.23 62.64L20.23 81.14C20.23 82.08 19.94 82.44 19.08 82.44C18.22 82.44 15.70 82.44 12.96 82.37C13.75 84.02 14.54 86.83 14.69 88.49C19.15 88.49 21.82 88.34 23.76 87.26C25.56 86.26 26.14 84.31 26.14 81.29L26.14 43.06C27.50 44.28 29.30 46.30 30.17 47.38C31.03 46.66 31.82 45.86 32.69 45.00L32.69 64.44L37.87 64.44C37.30 73.87 35.50 80.28 26.35 83.95C27.72 85.18 29.59 87.70 30.38 89.35C41.26 84.60 43.78 76.32 44.64 64.44L49.75 64.44L49.75 80.14C49.75 86.40 51.05 88.34 56.81 88.34L62.71 88.34C67.46 88.34 69.05 85.90 69.62 75.74C67.97 75.31 65.16 74.30 63.94 73.15C63.72 81.22 63.43 82.37 61.99 82.37Z"/></svg>
