<svg xmlns="http://www.w3.org/2000/svg" xmlns:xlink="http://www.w3.org/1999/xlink" width="72.00000000000001" height="106.56000000000002"><path fill="red" stroke="red" d="M12.67 44.14C14.69 46.30 16.78 48.82 17.93 50.54L20.59 48.38L20.59 56.52C17.50 58.54 14.69 60.48 12.46 61.78C12.60 58.03 12.67 54.50 12.67 51.34ZM20.59 31.82L20.59 45.22C19.08 43.56 17.14 41.54 15.48 39.89L12.67 41.90L12.67 31.82ZM26.50 25.70L6.98 25.70L6.98 51.34C6.98 61.85 6.62 76.25 2.38 86.26C3.89 86.76 6.41 88.13 7.56 89.14C10.58 82.01 11.81 72.43 12.31 63.58L14.76 67.75C16.63 66.02 18.58 64.30 20.59 62.64L20.59 81.14C20.59 82.08 20.30 82.44 19.44 82.44C18.58 82.44 16.06 82.44 13.32 82.37C14.11 84.02 14.90 86.90 15.05 88.56C19.51 88.56 22.18 88.34 24.12 87.26C25.99 86.26 26.50 84.38 26.50 81.29ZM37.37 52.63L37.37 46.37L45.14 46.37C44.78 48.38 44.21 50.54 43.20 52.63ZM37.37 35.21L45.72 35.21L45.72 39.82L45.72 41.33L37.37 41.33ZM59.54 41.33L51.84 41.33L51.84 39.96L51.84 35.21L59.54 35.21ZM59.54 52.63L49.90 52.63C50.62 50.54 51.05 48.38 51.41 46.37L59.54 46.37ZM68.54 69.41L55.94 69.41L55.94 60.19L49.54 60.19L49.54 69.41L36.07 69.41C41.47 66.02 45.07 62.06 47.52 57.96L65.88 57.96L65.88 29.88L48.67 29.88C49.54 28.08 50.47 25.99 51.26 23.98L43.49 23.18C43.27 25.13 42.62 27.65 41.90 29.88L31.32 29.88L31.32 57.96L39.96 57.96C37.73 60.77 34.63 63.58 30.31 65.95C31.61 66.82 33.41 68.26 34.63 69.41L27.72 69.41L27.72 75.17L49.54 75.17L49.54 89.21L55.94 89.21L55.94 75.17L68.54 75.17Z"/></svg>
