<svg xmlns="http://www.w3.org/2000/svg" xmlns:xlink="http://www.w3.org/1999/xlink" width="72.00000000000001" height="106.56000000000002"><path fill="red" stroke="red" d="M12.46 43.99C14.47 46.44 16.63 49.25 17.78 51.19L20.38 49.32L20.38 57.02C17.28 58.97 14.47 60.84 12.17 62.14C12.38 58.18 12.46 54.50 12.46 51.19ZM20.38 31.82L20.38 46.44C18.86 44.42 16.85 42.19 15.12 40.32L12.46 42.05L12.46 31.82ZM25.85 25.70L6.98 25.70L6.98 51.12C6.98 61.49 6.62 75.67 2.38 85.61C3.60 86.26 5.98 88.27 6.91 89.42C10.15 82.15 11.52 72.36 12.10 63.43L14.11 67.82L20.38 62.64L20.38 81.86C20.38 82.80 20.09 83.09 19.22 83.16C18.36 83.16 15.77 83.23 12.89 83.09C13.68 84.60 14.40 87.26 14.54 88.78C19.01 88.78 21.74 88.63 23.47 87.62C25.27 86.69 25.85 84.89 25.85 81.94ZM58.61 74.30L58.61 81.36L37.37 81.36L37.37 74.30ZM31.39 88.92L37.37 88.92L37.37 86.40L58.61 86.40L58.61 88.78L64.87 88.78L64.87 69.19L31.39 69.19ZM59.18 61.06C60.19 59.40 61.20 57.46 62.28 55.51L57.31 53.93L67.54 53.93L67.54 48.89L51.34 48.89L51.34 45.07L64.66 45.07L64.66 40.18L51.34 40.18L51.34 36.36L66.82 36.36L66.82 31.32L57.53 31.32C58.82 29.38 60.19 27.07 61.49 24.84L55.01 23.11C54.22 25.49 52.85 28.80 51.48 31.32L40.97 31.32L44.35 29.95C43.63 28.01 41.98 24.98 40.39 22.75L35.14 24.62C36.36 26.64 37.73 29.38 38.52 31.32L29.09 31.32L29.09 36.36L45.14 36.36L45.14 40.18L31.39 40.18L31.39 45.07L45.14 45.07L45.14 48.89L28.44 48.89L28.44 53.93L56.16 53.93C55.51 56.02 54.36 58.90 53.35 61.06L40.75 61.06L42.62 60.26C41.98 58.46 40.61 55.80 39.17 54.00L33.98 55.80C35.06 57.38 36.00 59.40 36.72 61.06L27.50 61.06L27.50 66.24L68.76 66.24L68.76 61.06Z"/></svg>
