<svg xmlns="http://www.w3.org/2000/svg" xmlns:xlink="http://www.w3.org/1999/xlink" width="72.00000000000001" height="106.56000000000002"><path fill="red" stroke="red" d="M59.90 78.98L59.90 82.80L43.99 82.80L43.99 78.98ZM38.09 89.06L43.99 89.06L43.99 86.54L59.90 86.54L59.90 88.99L66.10 88.99L66.10 75.31L38.09 75.31ZM38.74 72.43L64.94 72.43L64.94 68.62L38.74 68.62ZM64.94 62.21L38.74 62.21L38.74 65.95L64.94 65.95ZM35.78 41.11L43.63 41.11C43.06 45.36 41.33 47.74 35.78 49.10ZM50.90 32.18C50.26 33.55 49.46 34.99 48.67 36.14L37.30 36.14C38.16 34.85 38.95 33.48 39.74 32.18ZM11.95 43.99C13.82 46.15 15.77 48.74 16.85 50.33L19.51 48.38L19.51 57.10C16.63 59.11 13.82 60.84 11.74 62.14C11.88 58.18 11.95 54.43 11.95 51.12ZM19.51 31.82L19.51 45.86C18.14 44.06 16.27 42.05 14.54 40.32L11.95 42.05L11.95 31.82ZM69.05 41.11L69.05 36.14L55.30 36.14C56.66 34.20 58.03 31.97 58.97 29.95L54.94 27.29L53.93 27.50L42.19 27.50C42.77 26.35 43.27 25.34 43.78 24.19L37.37 23.11C35.14 28.94 30.96 35.93 24.98 41.54L24.98 25.70L6.48 25.70L6.48 51.12C6.48 61.49 6.19 75.60 2.59 85.61C3.82 86.26 6.19 88.27 7.13 89.42C10.01 82.08 11.16 72.43 11.66 63.50L13.68 67.90C15.55 66.24 17.57 64.58 19.51 62.86L19.51 81.86C19.51 82.80 19.22 83.09 18.36 83.16C17.57 83.16 14.90 83.23 12.10 83.09C12.89 84.60 13.61 87.26 13.75 88.78C18.14 88.78 20.88 88.63 22.61 87.62C24.41 86.69 24.98 84.89 24.98 81.94L24.98 45.07C25.85 45.86 26.71 46.87 27.29 47.66C28.15 46.80 29.09 46.01 29.95 45.14L29.95 54.36C29.95 63.72 29.59 77.26 25.70 86.76C27.22 87.26 29.88 88.63 31.03 89.57C34.49 81.07 35.50 69.12 35.71 59.47L68.76 59.47L68.76 55.37L54.72 55.37C53.93 53.42 52.85 51.19 51.98 49.32L46.66 50.90C47.23 52.27 47.88 53.86 48.46 55.37L35.78 55.37L35.78 54.36L35.78 49.68C36.65 50.62 37.66 52.06 37.94 52.99C45.86 51.19 48.38 47.45 49.10 41.11L54.22 41.11L54.22 45.36C54.22 49.46 55.01 51.55 59.26 51.55L64.73 51.55C66.02 51.55 67.75 51.48 68.62 51.19C68.33 49.75 68.26 48.53 68.18 47.09C67.25 47.38 65.52 47.45 64.66 47.45L60.98 47.45C59.83 47.45 59.76 46.87 59.76 45.43L59.76 41.11Z"/></svg>
