<svg xmlns="http://www.w3.org/2000/svg" xmlns:xlink="http://www.w3.org/1999/xlink" width="72.00000000000001" height="106.56000000000002"><path fill="red" stroke="red" d="M44.64 38.59L51.26 38.59L51.26 33.55L68.11 33.55L68.11 28.01L51.26 28.01L51.26 23.11L44.64 23.11L44.64 28.01L38.23 28.01L38.23 33.55L44.64 33.55ZM20.59 38.59L27.22 38.59L27.22 33.55L33.77 33.55L33.77 28.01L27.22 28.01L27.22 23.11L20.59 23.11L20.59 28.01L4.68 28.01L4.68 33.55L20.59 33.55ZM6.70 42.48C10.73 44.50 15.70 47.81 18.14 50.26L21.89 45.36C19.37 43.06 14.33 39.96 10.30 38.09ZM18.36 59.04C15.70 56.74 10.44 53.64 6.41 51.77L2.74 56.23C6.84 58.39 11.95 61.63 14.47 63.94ZM15.34 67.18C11.74 73.44 7.20 80.35 4.03 84.53L9.29 88.92C12.82 83.52 16.63 77.11 19.80 71.35ZM55.22 63.07C53.35 67.03 50.83 70.49 47.74 73.30C44.42 70.34 41.76 66.96 39.67 63.07ZM32.33 57.67L32.33 50.04L42.41 50.04L42.41 57.67ZM59.33 57.46L58.10 57.67L48.89 57.67L48.89 50.04L59.90 50.04C59.26 51.98 58.61 53.86 58.03 55.30L63.65 57.10C65.09 54.14 66.82 49.46 68.11 45.43L63.36 44.14L62.28 44.35L48.89 44.35L48.89 38.81L42.41 38.81L42.41 44.35L25.92 44.35L25.92 57.53C25.92 65.95 25.06 77.54 17.42 85.75C19.01 86.33 21.82 88.13 22.97 89.28C29.45 82.08 31.54 71.86 32.18 63.07L33.34 63.07C35.71 68.40 38.88 73.15 42.84 77.11C38.30 80.14 33.12 82.30 27.50 83.59C28.73 85.03 30.38 87.62 31.03 89.35C37.22 87.48 42.91 84.96 47.81 81.50C52.56 85.03 58.18 87.62 64.66 89.35C65.52 87.55 67.46 85.03 68.83 83.59C62.78 82.37 57.46 80.14 52.85 77.26C57.67 72.50 61.27 66.53 63.58 59.04Z"/></svg>
