<svg xmlns="http://www.w3.org/2000/svg" xmlns:xlink="http://www.w3.org/1999/xlink" width="72.00000000000001" height="106.56000000000002"><path fill="red" stroke="red" d="M44.78 39.31L51.26 39.31L51.26 33.41L67.61 33.41L67.61 27.58L51.26 27.58L51.26 23.11L44.78 23.11L44.78 27.58L37.22 27.58L37.22 33.41L44.78 33.41ZM20.45 37.22L16.85 36.58C14.69 41.18 10.58 46.51 4.82 50.62C6.41 51.26 8.64 52.92 9.94 54.22C12.46 52.20 14.62 49.97 16.49 47.74L65.23 47.74L65.23 41.98L20.66 41.98C21.38 40.90 21.96 39.89 22.54 38.81L26.93 38.81L26.93 33.41L34.63 33.41L34.63 27.58L26.93 27.58L26.93 23.11L20.45 23.11L20.45 27.58L4.39 27.58L4.39 33.41L20.45 33.41ZM8.93 89.35C14.54 86.40 17.71 81.50 19.73 76.46L14.04 74.23C12.24 78.70 8.71 83.09 3.82 85.46ZM24.55 76.61C25.99 80.57 27.22 85.68 27.43 88.85L33.77 87.55C33.48 84.38 32.18 79.27 30.60 75.46ZM38.23 76.75C40.54 80.50 42.84 85.46 43.63 88.63L49.54 86.69C48.60 83.45 46.15 78.55 43.78 74.95ZM21.31 61.92L27.58 61.92L27.58 68.33L21.31 68.33ZM39.46 61.92L39.46 68.33L32.98 68.33L32.98 61.92ZM51.48 61.92L51.48 68.33L44.86 68.33L44.86 61.92ZM68.40 74.16L68.40 68.33L57.67 68.33L57.67 61.92L66.82 61.92L66.82 56.09L57.67 56.09L57.67 49.75L51.48 49.75L51.48 56.09L44.86 56.09L44.86 49.75L39.46 49.75L39.46 56.09L32.98 56.09L32.98 49.75L27.58 49.75L27.58 56.09L21.31 56.09L21.31 49.75L15.26 49.75L15.26 56.09L5.40 56.09L5.40 61.92L15.26 61.92L15.26 68.33L3.53 68.33L3.53 74.16L56.59 74.16L52.13 76.39C56.16 80.21 60.70 85.68 62.71 89.21L68.69 86.18C66.53 82.66 62.14 77.76 58.18 74.16Z"/></svg>
