<svg xmlns="http://www.w3.org/2000/svg" xmlns:xlink="http://www.w3.org/1999/xlink" width="72.00000000000001" height="106.56000000000002"><path fill="red" stroke="red" d="M19.94 37.30L26.06 37.30L26.06 33.41L33.70 33.41L33.70 27.58L26.06 27.58L26.06 23.11L19.94 23.11L19.94 27.58L4.61 27.58L4.61 33.41L19.94 33.41ZM30.60 46.08L17.35 46.08L21.53 44.28C20.74 42.12 18.86 38.88 16.92 36.50L11.59 38.59C13.32 40.75 14.98 43.92 15.77 46.08L3.89 46.08L3.89 50.69L30.60 50.69ZM27.86 54.00L7.34 54.00L7.34 58.32L27.86 58.32ZM7.27 65.88L27.72 65.88L27.72 61.56L7.27 61.56ZM47.88 67.03C46.87 70.78 44.28 73.73 40.61 75.82C41.62 76.54 43.20 78.05 43.85 78.84C45.86 77.62 47.66 75.96 49.10 74.09C51.26 75.60 53.57 77.47 54.79 78.77L57.82 75.74C56.38 74.38 53.57 72.22 51.12 70.70C51.62 69.70 52.06 68.62 52.34 67.61ZM40.75 79.70C38.95 79.70 38.59 79.06 38.59 77.11L38.59 68.40C39.10 67.90 39.53 67.39 40.03 66.89L61.34 66.89C60.84 77.54 60.34 81.58 59.47 82.66C59.26 82.94 58.97 83.16 58.75 83.23C58.61 82.01 58.46 80.42 58.39 79.34C57.02 79.63 54.50 79.70 52.92 79.70ZM22.10 81.22L12.82 81.22L12.82 74.02L22.10 74.02ZM40.39 51.12L58.25 51.12L58.25 54.58L40.39 54.58ZM40.39 43.70L58.25 43.70L58.25 47.09L40.39 47.09ZM43.78 61.99C44.57 60.91 45.22 59.83 45.79 58.75L64.30 58.75L64.30 39.46L34.56 39.46L34.56 58.75L39.38 58.75C37.01 62.64 33.12 66.96 27.94 70.34L27.94 69.19L7.06 69.19L7.06 88.85L12.82 88.85L12.82 85.97L27.94 85.97L27.94 71.28C29.09 72.14 30.53 73.66 31.25 74.66C31.97 74.09 32.76 73.51 33.48 72.94L33.48 77.04C33.48 82.73 35.06 84.67 40.90 84.67L52.70 84.67C53.14 85.90 53.42 87.26 53.50 88.42C56.23 88.56 58.97 88.56 60.41 88.34C62.21 88.20 63.36 87.62 64.44 86.33C66.02 84.38 66.67 78.91 67.32 64.44C67.32 63.58 67.39 61.99 67.39 61.99ZM51.70 27.58L51.70 23.11L45.58 23.11L45.58 27.58L38.23 27.58L38.23 33.41L45.58 33.41L45.58 37.30L51.70 37.30L51.70 33.41L67.90 33.41L67.90 27.58Z"/></svg>
