<svg xmlns="http://www.w3.org/2000/svg" xmlns:xlink="http://www.w3.org/1999/xlink" width="72.00000000000001" height="106.56000000000002"><path fill="red" stroke="red" d="M18.22 35.78L24.77 35.78L24.77 32.40L34.42 32.40L34.42 26.86L24.77 26.86L24.77 23.11L18.22 23.11L18.22 26.86L4.46 26.86L4.46 32.40L18.22 32.40ZM26.71 41.04L26.71 43.78L13.75 43.78L13.75 41.04ZM13.75 49.90L13.75 47.16L26.71 47.16L26.71 49.90ZM32.69 53.93L32.69 37.01L7.56 37.01L7.56 89.21L13.75 89.21L13.75 53.93ZM41.90 72.65C42.91 71.42 44.14 69.91 45.36 68.26L42.41 66.89C41.76 68.11 40.46 70.06 39.53 71.50ZM26.50 67.97C27.43 69.34 28.58 71.21 29.23 72.43L31.90 71.14C31.32 70.06 30.10 68.26 29.09 66.96ZM24.70 66.46L33.55 66.46L33.55 72.72L24.70 72.72ZM47.16 72.72L37.94 72.72L37.94 66.46L47.16 66.46ZM51.91 82.30C50.40 81.36 45.36 78.34 41.76 76.39L51.77 76.39L51.77 62.86L38.38 62.86L38.38 60.41L53.86 60.41L53.86 56.66L38.38 56.66L38.38 53.21L33.05 53.21L33.05 56.66L18.22 56.66L18.22 60.41L33.05 60.41L33.05 62.86L20.23 62.86L20.23 76.39L29.45 76.39C25.92 78.91 20.74 81.22 16.20 82.37C17.35 83.38 18.94 85.25 19.73 86.47C24.26 84.89 29.38 81.86 33.05 78.62L33.05 87.91L38.38 87.91L38.38 78.34C41.83 80.71 47.16 84.46 49.03 86.11ZM44.64 49.90L44.64 47.23L58.32 47.23L58.32 49.90ZM58.32 41.11L58.32 43.78L44.64 43.78L44.64 41.11ZM64.73 37.01L38.59 37.01L38.59 54.00L58.32 54.00L58.32 82.08C58.32 82.94 58.10 83.23 57.24 83.23C56.38 83.23 53.93 83.23 51.34 83.16C52.20 84.67 52.99 87.12 53.28 88.70C57.38 88.70 60.19 88.63 62.14 87.62C64.08 86.69 64.73 85.10 64.73 82.08ZM54.14 26.86L54.14 23.11L47.52 23.11L47.52 26.86L37.30 26.86L37.30 32.40L47.52 32.40L47.52 35.78L54.14 35.78L54.14 32.40L67.75 32.40L67.75 26.86Z"/></svg>
