<svg xmlns="http://www.w3.org/2000/svg" xmlns:xlink="http://www.w3.org/1999/xlink" width="72.00000000000001" height="106.56000000000002"><path fill="red" stroke="red" d="M41.83 68.69L56.95 68.69L56.95 81.36L41.83 81.36ZM56.95 32.26L56.95 44.35L41.83 44.35L41.83 32.26ZM56.95 62.71L41.83 62.71L41.83 50.40L56.95 50.40ZM10.37 41.47L15.19 41.47L15.19 56.95L10.37 56.95ZM24.70 56.95L19.73 56.95L19.73 41.47L24.70 41.47ZM63.58 81.36L63.58 25.99L35.57 25.99L35.57 81.36L32.18 81.36C31.39 76.82 29.52 70.56 27.58 65.66L22.68 67.18C23.62 69.55 24.48 72.36 25.27 75.17L20.38 75.74L20.38 62.50L30.02 62.50L30.02 36.00L20.30 36.00L20.30 23.40L14.47 23.40L14.47 36.00L5.11 36.00L5.11 65.59L10.37 65.59L10.37 62.50L14.40 62.50L14.40 76.54C10.08 77.11 6.12 77.69 2.88 78.05L3.82 84.31C10.30 83.30 18.50 82.15 26.64 80.86C26.86 82.01 27.07 83.09 27.22 84.10L29.52 83.30L29.52 87.62L69.12 87.62L69.12 81.36Z"/></svg>
