<svg xmlns="http://www.w3.org/2000/svg" xmlns:xlink="http://www.w3.org/1999/xlink" width="72.00000000000001" height="106.56000000000002"><path fill="red" stroke="red" d="M20.74 66.96C21.60 69.05 22.39 71.42 23.04 73.87L18.50 74.74L18.50 62.06L26.71 62.06L26.71 45.86C27.94 46.58 29.23 47.45 29.95 47.95C31.46 45.50 32.83 42.41 33.98 39.02L36.07 39.02L36.07 52.20L27.86 52.20L27.86 58.03L35.93 58.03C35.57 65.66 34.20 73.51 29.45 80.42C28.73 76.18 27.22 70.34 25.27 65.66ZM10.08 41.54L13.90 41.54L13.90 56.66L10.08 56.66ZM17.93 56.66L17.93 41.54L21.96 41.54L21.96 56.66ZM48.74 58.03L48.74 52.20L41.54 52.20L41.54 39.02L48.31 39.02L48.31 33.34L35.64 33.34C36.36 30.46 37.01 27.43 37.44 24.34L31.97 23.33C31.03 30.24 29.30 37.01 26.71 42.19L26.71 36.14L18.58 36.14L18.58 23.62L13.39 23.62L13.39 36.14L5.47 36.14L5.47 64.66L10.08 64.66L10.08 62.06L13.32 62.06L13.32 75.74C9.43 76.46 5.76 77.11 2.81 77.62L3.82 83.45C9.65 82.15 16.92 80.64 24.26 79.13C24.41 80.50 24.62 81.65 24.70 82.80L28.51 81.65C27.50 83.02 26.35 84.31 25.06 85.54C26.57 86.26 28.73 87.98 29.74 89.06C35.06 83.88 38.02 77.90 39.67 71.57C42.19 75.17 44.50 78.98 45.79 81.79L49.75 77.33C48.02 73.80 44.42 68.54 40.97 64.15C41.18 62.06 41.33 60.12 41.47 58.03ZM55.22 76.03L55.22 35.50L61.34 35.50L61.34 76.03ZM50.04 29.81L50.04 87.77L55.22 87.77L55.22 81.72L61.34 81.72L61.34 86.98L66.67 86.98L66.67 29.81Z"/></svg>
