<svg xmlns="http://www.w3.org/2000/svg" xmlns:xlink="http://www.w3.org/1999/xlink" width="72.00000000000001" height="106.56000000000002"><path fill="red" stroke="red" d="M68.54 47.38L51.12 47.38L51.12 43.42L65.95 43.42L65.95 38.88L51.12 38.88L51.12 35.35L67.61 35.35L67.61 30.60L58.82 30.60C60.12 28.94 61.49 27.00 62.86 24.91L57.24 23.11C56.23 25.13 54.36 28.30 52.92 30.31L53.71 30.60L42.12 30.60L43.20 30.17C42.48 28.22 40.68 25.27 38.88 23.26L33.98 25.06C35.21 26.71 36.50 28.80 37.37 30.60L29.45 30.60L29.45 35.35L44.86 35.35L44.86 38.88L31.25 38.88L31.25 43.42L44.86 43.42L44.86 47.38L28.15 47.38L28.15 52.20L68.54 52.20ZM57.31 55.87C59.98 57.82 63.00 60.70 64.37 62.78L68.26 59.69C66.82 57.67 63.65 54.94 60.98 53.14ZM9.65 40.97L13.75 40.97L13.75 56.95L9.65 56.95ZM21.96 56.95L17.86 56.95L17.86 40.97L21.96 40.97ZM20.09 67.25C20.88 69.55 21.60 72.14 22.25 74.74L18.43 75.46L18.43 62.35L26.71 62.35L26.71 35.50L18.50 35.50L18.50 23.62L13.32 23.62L13.32 35.50L5.11 35.50L5.11 65.16L9.65 65.16L9.65 62.35L13.25 62.35L13.25 76.32C9.22 77.04 5.54 77.62 2.59 78.05L3.67 83.95C9.22 82.80 16.34 81.43 23.33 80.06C23.62 81.72 23.76 83.23 23.83 84.60L28.73 83.16C28.30 78.48 26.71 71.42 24.55 66.02ZM62.64 68.40C61.42 70.56 59.76 72.72 57.74 74.66C57.17 72.72 56.66 70.42 56.23 67.90L69.12 67.90L69.12 63.22L55.66 63.22C55.30 60.26 55.15 57.10 55.08 53.71L49.39 53.71C49.46 57.02 49.75 60.19 50.04 63.22L41.69 63.22L41.69 58.18C44.14 57.67 46.44 57.17 48.38 56.52L45.07 52.85C41.04 54.22 33.70 55.37 27.65 56.02C28.22 57.02 28.80 58.68 29.02 59.76C31.25 59.62 33.62 59.40 36.00 59.04L36.00 63.22L27.79 63.22L27.79 67.90L36.00 67.90L36.00 72.36C33.05 72.65 30.31 72.94 28.01 73.15L28.73 78.05C30.96 77.83 33.41 77.54 36.00 77.18L36.00 83.30C36.00 84.02 35.78 84.17 35.06 84.17C34.42 84.24 32.26 84.24 30.10 84.17C30.74 85.54 31.39 87.62 31.61 89.14C35.35 89.14 37.73 88.99 39.53 88.20C41.26 87.41 41.69 86.04 41.69 83.38L41.69 76.46L48.38 75.60L48.31 70.99L41.69 71.71L41.69 67.90L50.69 67.90C51.34 71.93 52.20 75.46 53.28 78.55C50.11 80.86 46.58 82.80 43.13 83.95C44.42 85.03 45.72 87.12 46.37 88.49C49.39 87.19 52.49 85.32 55.37 83.16C57.53 86.98 60.12 89.21 63.29 89.21C67.10 89.21 68.83 87.34 69.62 80.57C68.33 80.14 66.60 79.13 65.59 77.98C65.38 82.15 64.87 83.88 63.72 83.88C62.28 83.88 60.84 82.37 59.54 79.63C62.50 76.97 64.94 73.94 66.67 70.92Z"/></svg>
