<svg xmlns="http://www.w3.org/2000/svg" xmlns:xlink="http://www.w3.org/1999/xlink" width="72.00000000000001" height="106.56000000000002"><path fill="red" stroke="red" d="M53.71 60.77L60.41 60.77L56.23 62.28C56.74 62.78 57.31 63.36 57.89 63.94L53.71 64.01ZM42.62 56.88L42.62 53.06L48.67 53.06L48.67 56.88ZM59.90 53.06L59.90 56.88L53.71 56.88L53.71 53.06ZM36.00 68.54C42.91 68.26 52.06 67.97 61.20 67.54C62.28 68.76 63.14 69.98 63.72 70.92L68.69 69.12C67.18 66.74 64.01 63.29 61.20 60.77L65.16 60.77L65.16 49.18L53.71 49.18L53.71 46.08L48.67 46.08L48.67 49.18L37.73 49.18L37.73 60.77L48.67 60.77L48.67 64.08C43.70 64.15 39.17 64.22 35.50 64.30ZM39.31 38.16L47.23 38.16L45.43 39.31C46.73 39.82 48.02 40.46 49.39 41.11L39.31 41.18ZM19.94 34.20L19.94 30.53L32.76 30.53L32.76 34.20ZM52.56 30.53L52.56 34.20L39.31 34.20L39.31 30.53ZM9.14 45.94C21.31 45.79 39.31 45.43 56.38 45.00C58.25 46.22 59.90 47.38 61.20 48.38L65.74 45.29C62.93 43.13 58.10 40.39 53.57 38.16L58.97 38.16L58.97 26.57L39.31 26.57L39.31 23.11L32.76 23.11L32.76 26.57L13.75 26.57L13.75 38.16L32.76 38.16L32.76 41.18C23.54 41.18 15.12 41.18 8.78 41.11ZM11.16 56.88L11.16 53.14L16.99 53.14L16.99 56.88ZM28.22 53.14L28.22 56.88L22.03 56.88L22.03 53.14ZM3.89 68.54C10.87 68.33 20.02 68.04 29.23 67.54C29.88 68.47 30.46 69.34 30.82 70.06L35.64 68.54C34.34 66.38 31.68 63.14 29.45 60.84L24.77 62.14C25.27 62.71 25.85 63.29 26.35 63.86L22.03 64.01L22.03 60.84L33.48 60.84L33.48 49.25L22.03 49.25L22.03 46.08L16.99 46.08L16.99 49.25L6.19 49.25L6.19 60.84L16.99 60.84L16.99 64.08C11.95 64.15 7.34 64.22 3.60 64.30ZM16.70 75.31L25.13 75.31L25.13 82.08L16.70 82.08ZM39.82 75.31L39.82 82.08L31.25 82.08L31.25 75.31ZM54.58 75.31L54.58 82.08L45.94 82.08L45.94 75.31ZM61.13 70.56L10.44 70.56L10.44 82.08L3.89 82.08L3.89 87.19L68.18 87.19L68.18 82.08L61.13 82.08Z"/></svg>
