<svg xmlns="http://www.w3.org/2000/svg" xmlns:xlink="http://www.w3.org/1999/xlink" width="72.00000000000001" height="106.56000000000002"><path fill="red" stroke="red" d="M67.82 27.29L50.26 27.29L50.26 33.26L67.82 33.26ZM14.76 23.11C12.24 27.86 7.13 33.62 2.30 37.15C3.38 38.45 5.04 40.82 5.90 42.12C11.38 37.94 17.21 31.32 20.88 25.34ZM16.63 37.73C13.18 45.43 7.34 52.92 1.44 57.82C2.59 59.26 4.54 62.50 5.11 63.79C6.91 62.28 8.64 60.48 10.37 58.54L10.37 89.21L16.78 89.21L16.78 50.11C19.01 46.73 21.02 43.20 22.61 39.74ZM40.75 44.86C40.39 47.66 39.96 50.90 39.53 53.78L32.76 53.78C33.12 51.19 33.55 48.10 34.06 44.86ZM49.97 53.78L45.29 53.78C46.01 49.39 46.66 44.21 47.02 39.74L42.77 39.24L41.76 39.53L34.78 39.53C34.99 37.22 35.28 34.99 35.50 32.76L47.81 32.76L47.81 27.36L22.68 27.36L22.68 32.76L29.81 32.76C29.59 34.92 29.30 37.22 28.94 39.53L23.18 39.53L23.18 44.86L28.15 44.86C27.65 48.10 27.07 51.19 26.57 53.78L21.10 53.78L21.10 59.33L49.97 59.33ZM41.76 69.19L41.76 78.55L29.52 78.55L29.52 69.19ZM47.23 63.79L24.05 63.79L24.05 88.34L29.52 88.34L29.52 84.02L47.23 84.02ZM68.98 47.02L49.82 47.02L49.82 53.06L56.74 53.06L56.74 81.43C56.74 82.30 56.45 82.58 55.51 82.58C54.58 82.58 51.48 82.58 48.17 82.51C49.03 84.38 49.90 87.26 50.11 89.14C54.86 89.14 58.25 88.99 60.41 87.91C62.64 86.83 63.22 84.89 63.22 81.50L63.22 53.06L68.98 53.06Z"/></svg>
