<svg xmlns="http://www.w3.org/2000/svg" xmlns:xlink="http://www.w3.org/1999/xlink" width="72.00000000000001" height="106.56000000000002"><path fill="red" stroke="red" d="M65.09 55.30C63.29 57.02 60.26 59.47 57.67 61.27C55.30 58.68 53.14 56.59 52.13 55.58L49.39 58.68C52.92 62.50 61.99 73.51 65.09 78.12L68.33 72.72C67.25 71.50 64.22 68.18 60.98 64.66C63.43 63.22 66.24 61.34 68.69 59.54ZM59.90 31.39L59.90 37.08L47.74 37.08L47.74 31.39ZM47.74 48.02L47.74 42.34L59.90 42.34L59.90 48.02ZM47.74 71.35L47.74 53.42L65.74 53.42L65.74 26.06L41.83 26.06L41.83 70.20C41.83 72.58 40.97 72.86 40.03 73.22C40.75 74.59 41.54 77.26 41.76 78.84C42.91 78.05 44.86 77.33 56.74 74.16C56.45 73.01 56.09 70.99 56.02 69.48ZM37.08 35.93C36.00 32.83 33.91 28.01 32.40 24.26L26.86 25.63C28.30 29.45 30.38 34.49 31.39 37.66ZM18.79 32.40C17.64 29.95 15.26 26.14 12.96 23.33L8.28 25.70C10.30 28.66 12.67 32.69 13.75 35.21ZM24.98 65.30C24.34 64.37 22.68 62.06 20.88 59.54C22.46 57.67 24.19 55.15 25.99 52.85L22.10 49.90C21.24 51.77 19.80 54.29 18.50 56.30C17.86 55.44 17.28 54.72 16.78 54.07L16.78 53.93C19.44 48.82 21.96 43.20 23.62 37.58L20.30 35.28L19.15 35.57L4.03 35.57L4.03 41.18L16.49 41.18C13.18 49.97 7.63 59.04 2.16 64.37C3.17 65.38 4.82 68.54 5.47 70.20C7.20 68.26 9.00 66.02 10.80 63.58L10.80 88.92L16.70 88.92L16.70 61.63C18.58 64.58 20.52 67.82 21.53 69.77ZM36.36 56.59L35.50 56.95L32.83 56.95C34.63 51.91 36.58 45.94 38.02 40.97L24.12 40.97L24.12 46.73L30.46 46.73C28.80 52.42 26.78 58.39 25.13 62.71L32.83 62.71C31.82 67.54 30.31 72.58 28.51 76.39C26.35 77.62 23.98 80.06 21.67 83.02L25.92 89.06C27.43 85.46 29.81 81.07 31.32 81.07C32.76 81.07 34.92 83.02 37.51 84.60C41.47 87.12 46.08 88.20 52.34 88.20C56.88 88.20 64.08 87.91 67.68 87.70C67.75 86.04 68.62 82.87 69.26 81.14C64.37 81.86 56.95 82.15 52.42 82.15C46.58 82.15 42.19 81.43 38.45 79.20C36.58 78.05 35.28 76.97 34.06 76.32C36.50 70.92 38.45 64.15 39.60 57.89Z"/></svg>
