<svg xmlns="http://www.w3.org/2000/svg" xmlns:xlink="http://www.w3.org/1999/xlink" width="72.00000000000001" height="106.56000000000002"><path fill="red" stroke="red" d="M66.67 28.08L40.54 28.08C39.96 26.28 38.81 24.12 37.73 22.54L31.25 24.34C31.90 25.49 32.54 26.78 33.05 28.08L5.18 28.08L5.18 32.83L66.67 32.83ZM28.30 62.50L43.13 62.50L43.13 65.74L28.30 65.74ZM28.30 55.15L43.13 55.15L43.13 58.32L28.30 58.32ZM16.34 39.17L26.71 39.17L26.71 43.99L16.34 43.99ZM44.93 39.24L55.37 39.24L55.37 44.06L44.93 44.06ZM59.40 70.85C57.02 72.72 53.14 75.31 49.90 77.18C46.80 75.31 44.21 73.01 42.19 70.49L67.82 70.49L67.82 65.74L49.68 65.74L49.68 62.50L62.42 62.50L62.42 58.32L49.68 58.32L49.68 55.15L64.94 55.15L64.94 50.83L49.68 50.83L49.68 47.95L61.49 47.95L61.49 35.35L39.10 35.35L39.10 47.95L43.13 47.95L43.13 50.83L28.30 50.83L28.30 47.88L32.76 47.88L32.76 35.28L10.51 35.28L10.51 47.88L21.89 47.88L21.89 50.83L7.06 50.83L7.06 55.15L21.89 55.15L21.89 58.32L9.50 58.32L9.50 62.50L21.89 62.50L21.89 65.74L4.10 65.74L4.10 70.49L26.50 70.49C19.66 73.58 10.51 75.96 2.38 77.18C3.46 78.34 4.90 80.28 5.62 81.58C10.22 80.71 15.05 79.49 19.73 77.98L19.73 79.34C19.73 82.44 17.64 83.88 16.20 84.60C17.14 85.68 18.36 88.06 18.79 89.42C20.38 88.49 22.90 87.77 41.76 83.45C41.62 82.37 41.47 80.14 41.54 78.70L25.92 81.86L25.92 75.67C29.59 74.09 32.90 72.36 35.64 70.49L35.78 70.49C41.76 80.21 52.06 86.33 65.66 88.85C66.46 87.19 68.04 84.82 69.34 83.59C63.86 82.80 59.04 81.50 54.72 79.63C57.67 78.19 60.91 76.18 63.58 74.38Z"/></svg>
