<svg xmlns="http://www.w3.org/2000/svg" xmlns:xlink="http://www.w3.org/1999/xlink" width="72.00000000000001" height="106.56000000000002"><path fill="red" stroke="red" d="M19.73 54.65L52.27 54.65L52.27 60.84L19.73 60.84ZM19.73 42.98L52.27 42.98L52.27 49.10L19.73 49.10ZM19.73 31.46L52.27 31.46L52.27 37.51L19.73 37.51ZM50.26 82.22C47.38 82.22 46.87 81.94 46.87 79.78L46.87 66.74L59.04 66.74L59.04 25.49L13.25 25.49L13.25 66.74L22.54 66.74C21.17 75.31 17.64 80.57 2.88 83.45C4.25 84.82 6.05 87.62 6.70 89.35C23.54 85.54 28.01 78.19 29.66 66.74L40.03 66.74L40.03 79.78C40.03 86.54 41.90 88.56 49.46 88.56L60.12 88.56C66.60 88.56 68.47 85.90 69.26 75.10C67.39 74.59 64.44 73.58 63.00 72.36C62.71 81.07 62.28 82.22 59.47 82.22Z"/></svg>
