<svg xmlns="http://www.w3.org/2000/svg" xmlns:xlink="http://www.w3.org/1999/xlink" width="72.00000000000001" height="106.56000000000002"><path fill="red" stroke="red" d="M67.90 31.46L67.90 27.07L46.94 27.07C47.45 26.06 47.88 25.13 48.24 24.12L42.34 23.18C40.97 27.07 38.16 31.54 33.84 34.92C35.21 35.50 37.22 37.37 38.23 38.66C40.82 36.43 42.91 34.06 44.57 31.46ZM43.42 43.63L47.09 43.63L47.09 48.10L43.42 48.10ZM50.62 43.63L54.50 43.63L54.50 48.10L50.62 48.10ZM58.03 43.63L61.99 43.63L61.99 48.10L58.03 48.10ZM38.81 51.55L66.74 51.55L66.74 40.25L38.81 40.25ZM42.84 33.91L42.84 37.87L64.44 37.87L64.44 33.91ZM12.17 43.56L18.65 43.56L18.65 47.16L12.17 47.16ZM18.65 29.45L18.65 32.54L12.17 32.54L12.17 29.45ZM27.72 39.82L12.17 39.82L12.17 36.29L27.72 36.29ZM35.78 47.16L23.98 47.16L23.98 43.56L33.48 43.56L33.48 32.54L23.98 32.54L23.98 29.45L35.21 29.45L35.21 25.34L6.41 25.34L6.41 51.19L35.78 51.19ZM20.16 70.49L51.55 70.49L51.55 73.51L20.16 73.51ZM20.16 63.94L51.55 63.94L51.55 66.96L20.16 66.96ZM20.16 57.46L51.55 57.46L51.55 60.41L20.16 60.41ZM49.90 83.16C46.80 83.16 46.22 82.94 46.22 81.29L46.22 77.26L58.18 77.26L58.18 53.78L13.82 53.78L13.82 77.26L23.54 77.26C21.53 81.43 16.63 83.16 2.95 84.02C4.03 85.25 5.47 87.70 5.90 89.14C22.18 87.62 28.01 84.38 30.31 77.26L39.74 77.26L39.74 81.29C39.74 86.83 41.62 88.27 49.18 88.27L60.77 88.27C66.38 88.27 68.26 86.54 68.90 79.20C67.18 78.84 64.66 77.98 63.29 77.11C63.00 82.44 62.57 83.16 60.05 83.16Z"/></svg>
