<svg xmlns="http://www.w3.org/2000/svg" xmlns:xlink="http://www.w3.org/1999/xlink" width="72.00000000000001" height="106.56000000000002"><path fill="red" stroke="red" d="M29.88 35.14L16.34 35.14L21.53 32.18C20.38 29.59 18.14 25.78 16.13 22.82L10.94 25.42C12.96 28.37 15.05 32.47 16.20 35.14L3.10 35.14L3.10 40.46L29.88 40.46ZM27.43 44.71L6.05 44.71L6.05 49.97L27.43 49.97ZM6.05 59.40L27.43 59.40L27.43 54.22L6.05 54.22ZM21.96 69.34L21.96 79.63L11.59 79.63L11.59 69.34ZM27.79 63.94L5.98 63.94L5.98 88.27L11.59 88.27L11.59 85.03L27.79 85.03ZM59.04 65.52L59.04 79.85L39.67 79.85L39.67 65.52ZM33.55 89.14L39.67 89.14L39.67 85.90L59.04 85.90L59.04 88.85L65.45 88.85L65.45 59.54L33.55 59.54ZM31.68 26.64L31.68 32.69L42.26 32.69C41.18 41.04 38.38 48.17 29.38 52.27C30.74 53.42 32.54 55.80 33.26 57.38C43.99 52.13 47.30 43.27 48.67 32.69L60.62 32.69C60.05 43.42 59.40 47.74 58.46 48.89C57.89 49.54 57.24 49.68 56.16 49.68C55.08 49.68 52.34 49.68 49.46 49.39C50.47 51.12 51.19 53.71 51.34 55.58C54.43 55.66 57.46 55.66 59.11 55.44C61.13 55.22 62.50 54.65 63.72 53.14C65.52 50.98 66.24 44.78 66.89 29.30C66.96 28.37 67.03 26.64 67.03 26.64Z"/></svg>
