<svg xmlns="http://www.w3.org/2000/svg" xmlns:xlink="http://www.w3.org/1999/xlink" width="72.00000000000001" height="106.56000000000002"><path fill="red" stroke="red" d="M29.66 35.14L16.20 35.14L21.53 32.18C20.38 29.59 18.14 25.78 16.13 22.82L10.94 25.42C12.89 28.37 15.05 32.47 16.06 35.14L3.10 35.14L3.10 40.46L29.66 40.46ZM27.36 44.71L6.05 44.71L6.05 49.97L27.36 49.97ZM6.05 59.40L27.36 59.40L27.36 54.22L6.05 54.22ZM21.96 79.63L11.74 79.63L11.74 69.41L21.96 69.41ZM37.73 42.77L45.72 42.77L45.72 48.96L37.73 48.96ZM37.73 31.39L45.72 31.39L45.72 37.51L37.73 37.51ZM59.76 37.51L51.48 37.51L51.48 31.39L59.76 31.39ZM59.76 48.96L51.48 48.96L51.48 42.77L59.76 42.77ZM67.90 65.59L67.90 59.54L51.84 59.54L51.84 54.36L65.95 54.36L65.95 25.99L31.75 25.99L31.75 54.36L45.36 54.36L45.36 59.54L29.30 59.54L29.30 65.59L42.41 65.59C38.95 71.50 33.41 77.18 27.79 80.50L27.79 63.94L5.98 63.94L5.98 88.27L11.74 88.27L11.74 85.03L27.79 85.03L27.79 82.15C29.09 83.45 30.38 85.03 31.18 86.26C36.36 82.94 41.47 77.47 45.36 71.21L45.36 89.21L51.84 89.21L51.84 70.56C55.66 76.61 60.70 82.37 65.23 85.82C66.31 84.17 68.33 81.94 69.84 80.78C64.58 77.62 58.68 71.50 54.94 65.59Z"/></svg>
