<svg xmlns="http://www.w3.org/2000/svg" xmlns:xlink="http://www.w3.org/1999/xlink" width="72.00000000000001" height="106.56000000000002"><path fill="red" stroke="red" d="M68.18 29.95L52.85 29.95C52.20 27.72 50.90 24.77 49.32 22.68L43.85 24.77C44.86 26.35 45.65 28.15 46.30 29.95L30.10 29.95L30.10 35.42L68.18 35.42ZM40.68 43.63L57.82 43.63L57.82 49.61L40.68 49.61ZM64.37 54.50L64.37 38.81L34.42 38.81L34.42 54.50ZM21.53 69.34L21.53 79.63L11.45 79.63L11.45 69.34ZM27.14 63.94L5.90 63.94L5.90 88.27L11.45 88.27L11.45 85.03L27.14 85.03ZM5.98 59.40L26.78 59.40L26.78 54.22L5.98 54.22ZM26.78 44.71L5.98 44.71L5.98 49.97L26.78 49.97ZM21.10 32.18C20.02 29.59 17.86 25.78 15.77 22.75L10.87 25.42C12.67 28.37 14.76 32.47 15.84 35.14L3.10 35.14L3.10 40.46L28.94 40.46L28.94 35.14L15.98 35.14ZM69.05 70.27L53.21 70.27L53.21 68.83C57.67 66.60 62.14 63.65 65.59 60.62L61.92 57.60L60.55 57.89L32.76 57.89L32.76 63.07L53.93 63.07C51.48 64.66 48.82 66.17 46.37 67.25L46.37 70.27L29.45 70.27L29.45 75.74L46.37 75.74L46.37 82.51C46.37 83.30 46.08 83.52 45.00 83.59C44.06 83.66 40.46 83.66 36.86 83.52C37.73 85.18 38.59 87.62 38.88 89.35C43.99 89.35 47.59 89.28 50.04 88.42C52.56 87.48 53.21 85.90 53.21 82.73L53.21 75.74L69.05 75.74Z"/></svg>
