<svg xmlns="http://www.w3.org/2000/svg" xmlns:xlink="http://www.w3.org/1999/xlink" width="72.00000000000001" height="106.56000000000002"><path fill="red" stroke="red" d="M25.42 35.14L14.33 35.14L19.66 32.18C18.50 29.59 16.27 25.78 14.18 22.75L9.00 25.42C10.94 28.37 13.10 32.47 14.18 35.14L3.10 35.14L3.10 40.46L25.42 40.46ZM23.47 44.71L5.62 44.71L5.62 49.97L23.47 49.97ZM5.62 59.40L23.47 59.40L23.47 54.29L5.62 54.29ZM18.36 69.34L18.36 79.63L10.66 79.63L10.66 69.34ZM23.83 63.94L5.18 63.94L5.18 88.27L10.66 88.27L10.66 85.03L23.83 85.03ZM53.86 67.97L53.86 59.40L59.33 59.40L59.33 67.97ZM43.92 67.97L43.92 59.40L49.10 59.40L49.10 67.97ZM34.06 67.97L34.06 59.40L39.17 59.40L39.17 67.97ZM64.80 53.86L28.58 53.86L28.58 89.42L34.06 89.42L34.06 73.51L39.17 73.51L39.17 87.41L43.92 87.41L43.92 73.51L49.10 73.51L49.10 87.41L53.86 87.41L53.86 73.51L59.33 73.51L59.33 82.51C59.33 83.09 59.18 83.30 58.61 83.30C58.10 83.30 56.66 83.30 55.15 83.23C55.87 84.74 56.45 87.19 56.59 88.78C59.40 88.78 61.42 88.70 63.00 87.70C64.44 86.83 64.80 85.18 64.80 82.58ZM37.51 42.91C40.82 40.10 43.85 36.86 46.44 33.55C48.82 37.01 51.70 40.18 54.86 42.91ZM46.22 22.82C41.54 31.32 32.11 40.10 23.26 44.21C24.70 45.72 26.35 48.46 27.22 50.40C29.66 49.03 32.04 47.30 34.42 45.50L34.42 48.60L58.54 48.60L58.54 45.79C60.70 47.23 62.86 48.53 65.09 49.54C66.17 47.59 68.26 44.86 69.77 43.49C62.06 40.75 54.43 34.70 50.04 28.51C50.54 27.72 50.98 27.07 51.41 26.28Z"/></svg>
