<svg xmlns="http://www.w3.org/2000/svg" xmlns:xlink="http://www.w3.org/1999/xlink" width="72.00000000000001" height="106.56000000000002"><path fill="red" stroke="red" d="M68.47 49.82C68.04 47.09 66.53 42.70 65.02 39.38L61.13 40.39C61.70 41.62 62.28 43.13 62.78 44.57L55.37 45.36C59.18 41.47 63.07 36.65 66.53 31.68L62.21 29.74C61.06 31.54 59.76 33.26 58.46 34.99L53.42 35.21C55.87 32.33 58.39 28.58 60.41 24.70L55.66 23.04C53.78 27.58 50.33 32.18 49.39 33.34C48.31 34.49 47.45 35.28 46.44 35.50C47.02 36.72 47.74 38.95 48.02 40.03C48.74 39.67 50.18 39.46 55.22 39.02C53.50 41.11 51.91 42.77 51.12 43.49C49.46 45.07 48.10 46.15 46.87 46.37C47.38 47.59 48.02 49.82 48.31 50.83C49.46 50.26 51.41 49.82 63.79 48.17C64.01 49.25 64.22 50.26 64.37 51.12ZM68.26 61.49C67.75 58.68 66.67 54.50 65.52 51.26L61.78 52.13C62.78 55.44 63.86 59.76 64.30 62.57ZM60.41 62.21C60.34 59.54 59.76 55.37 58.90 52.13L54.94 52.85C55.73 56.09 56.23 60.34 56.23 63.07ZM48.38 52.13C48.02 55.51 47.52 59.18 46.66 62.06C47.66 62.57 49.61 63.65 50.47 64.30C51.34 61.42 52.27 56.95 52.78 53.14ZM46.87 29.16L39.46 29.16C38.88 27.22 37.58 24.62 36.43 22.75L31.46 24.34C32.26 25.85 33.05 27.50 33.62 29.16L24.62 29.16L24.62 33.05L46.87 33.05ZM45.43 42.34L26.14 42.34L26.14 46.15L45.43 46.15ZM30.60 53.06L40.75 53.06L40.75 58.46L30.60 58.46ZM45.07 62.21L45.07 49.25L26.42 49.25L26.42 62.21ZM45.43 35.78L26.14 35.78L26.14 39.53L45.43 39.53ZM25.20 49.97C24.77 47.45 23.33 43.20 21.82 40.03L18.00 41.11C18.58 42.26 19.08 43.63 19.51 44.93L12.10 45.86C16.20 41.90 20.38 37.01 24.12 31.82L19.51 29.74C18.43 31.54 17.21 33.26 15.91 34.92L10.73 35.21C13.18 32.26 15.62 28.37 17.71 24.55L12.89 22.90C10.94 27.50 7.49 32.18 6.55 33.26C5.54 34.56 4.61 35.28 3.67 35.50C4.10 36.72 4.97 39.02 5.18 40.10C5.98 39.74 7.34 39.53 12.53 39.10C10.66 41.26 8.93 42.98 8.06 43.78C6.48 45.29 5.04 46.44 3.82 46.66C4.25 47.88 5.04 50.18 5.26 51.12C6.41 50.62 8.28 50.26 20.59 48.60C20.88 49.54 21.02 50.47 21.17 51.19ZM24.34 60.62C23.90 58.25 22.90 54.58 21.96 51.70L18.29 52.78C19.15 55.66 20.09 59.40 20.45 61.85ZM16.99 62.42C16.85 59.76 16.27 55.58 15.48 52.34L11.52 53.21C12.17 56.45 12.74 60.62 12.74 63.43ZM5.18 52.42C4.90 56.23 4.39 60.19 3.31 63.14C4.32 63.65 6.12 64.73 6.91 65.30C8.06 62.14 8.93 57.46 9.36 53.28ZM48.38 71.42C45.29 74.16 41.18 76.32 36.58 78.05C31.18 76.25 26.50 74.02 22.90 71.42ZM65.95 71.42L65.95 66.38L26.06 66.38C26.86 65.38 27.58 64.44 28.22 63.43L22.32 61.63C18.58 67.46 11.09 72.22 3.60 74.95C4.75 76.10 6.70 78.77 7.42 79.99C10.94 78.48 14.62 76.39 17.93 73.94C21.02 76.39 24.62 78.62 28.66 80.50C20.81 82.37 11.88 83.52 2.88 84.17C3.89 85.46 5.40 88.13 5.98 89.64C16.70 88.49 27.43 86.76 36.65 83.59C45.43 86.54 55.44 88.42 65.74 89.35C66.38 87.77 67.90 85.32 69.12 83.95C60.55 83.38 52.06 82.22 44.50 80.35C49.25 77.98 53.35 75.10 56.52 71.42Z"/></svg>
