<svg xmlns="http://www.w3.org/2000/svg" xmlns:xlink="http://www.w3.org/1999/xlink" width="72.00000000000001" height="106.56000000000002"><path fill="red" stroke="red" d="M68.18 28.15L51.26 28.15C50.54 26.35 49.46 24.05 48.31 22.32L42.77 23.98C43.42 25.27 44.14 26.71 44.71 28.15L27.00 28.15L27.00 33.12L68.18 33.12ZM18.65 33.05C18.00 30.53 16.27 26.50 14.54 23.54L9.72 25.27C11.38 28.30 13.03 32.47 13.61 34.99ZM25.85 35.14L2.95 35.14L2.95 40.54L25.85 40.54ZM23.76 44.78L5.83 44.78L5.83 50.04L23.76 50.04ZM5.83 59.62L23.76 59.62L23.76 54.36L5.83 54.36ZM19.01 69.41L19.01 79.92L10.22 79.92L10.22 69.41ZM23.98 64.15L5.40 64.15L5.40 88.34L10.22 88.34L10.22 85.18L23.98 85.18ZM42.70 63.07L52.13 63.07L52.13 66.24L42.70 66.24ZM42.70 55.66L52.13 55.66L52.13 58.75L42.70 58.75ZM34.56 39.38L40.75 39.38L40.75 44.06L34.56 44.06ZM54.29 39.38L60.77 39.38L60.77 44.06L54.29 44.06ZM64.37 71.57C62.42 72.86 59.26 74.81 56.59 76.32C55.22 74.66 54.00 72.86 53.06 70.99L68.98 70.99L68.98 66.24L58.10 66.24L58.10 63.07L66.24 63.07L66.24 58.75L58.10 58.75L58.10 55.66L67.39 55.66L67.39 51.41L58.10 51.41L58.10 47.81L66.02 47.81L66.02 35.57L49.32 35.57L49.32 47.81L52.13 47.81L52.13 51.41L42.70 51.41L42.70 47.81L46.01 47.81L46.01 35.57L29.59 35.57L29.59 47.81L36.72 47.81L36.72 51.41L28.30 51.41L28.30 55.66L36.72 55.66L36.72 58.75L29.45 58.75L29.45 63.07L36.72 63.07L36.72 66.24L26.14 66.24L26.14 70.99L39.02 70.99C34.99 73.44 29.81 75.38 24.77 76.68C25.78 77.69 27.43 79.92 28.01 81.00C30.46 80.14 33.12 79.20 35.57 78.05L35.57 78.84C35.57 82.22 33.70 84.24 32.47 85.10C33.41 86.04 34.78 87.98 35.28 89.14C36.58 88.42 38.59 87.70 50.62 85.18C50.47 83.88 50.33 81.72 50.40 80.14L40.75 81.94L40.75 75.31C42.84 73.94 44.86 72.58 46.44 70.99L47.45 70.99C50.90 79.70 57.02 86.04 66.46 88.99C67.18 87.48 68.76 85.32 69.98 84.17C66.10 83.23 62.71 81.58 59.98 79.42C62.57 78.19 65.52 76.61 67.90 74.95Z"/></svg>
