<svg xmlns="http://www.w3.org/2000/svg" xmlns:xlink="http://www.w3.org/1999/xlink" width="72.00000000000001" height="106.56000000000002"><path fill="red" stroke="red" d="M53.50 49.97L19.30 49.97L19.30 44.50L53.50 44.50ZM53.50 60.55L19.30 60.55L19.30 55.01L53.50 55.01ZM53.50 71.14L19.30 71.14L19.30 65.59L53.50 65.59ZM60.48 39.17L38.88 39.17L38.88 34.20L65.88 34.20L65.88 28.51L38.88 28.51L38.88 23.11L32.04 23.11L32.04 39.17L12.60 39.17L12.60 76.46L60.48 76.46ZM24.55 76.90C19.80 79.85 11.59 82.58 4.46 84.24C5.98 85.39 8.50 88.06 9.58 89.42C16.56 87.26 25.42 83.52 30.89 79.78ZM41.76 80.57C48.82 83.30 56.16 86.90 60.41 89.35L67.54 85.75C62.57 83.23 54.36 79.63 47.02 76.90Z"/></svg>
