<svg xmlns="http://www.w3.org/2000/svg" xmlns:xlink="http://www.w3.org/1999/xlink" width="72.00000000000001" height="106.56000000000002"><path fill="red" stroke="red" d="M67.90 43.06L39.46 43.06L39.46 39.46L61.49 39.46L61.49 35.28L39.46 35.28L39.46 31.90L64.58 31.90L64.58 27.29L39.46 27.29L39.46 23.11L32.62 23.11L32.62 27.29L8.28 27.29L8.28 31.90L32.62 31.90L32.62 35.28L11.59 35.28L11.59 39.46L32.62 39.46L32.62 43.06L4.25 43.06L4.25 47.88L67.90 47.88ZM19.44 70.63L53.28 70.63L53.28 74.59L19.44 74.59ZM19.44 62.93L53.28 62.93L53.28 66.82L19.44 66.82ZM19.44 55.15L53.28 55.15L53.28 58.97L19.44 58.97ZM60.05 78.70L60.05 51.05L12.96 51.05L12.96 78.70L24.48 78.70C19.44 81.14 11.09 83.30 3.89 84.53C5.40 85.61 7.70 88.13 8.78 89.42C15.98 87.62 25.06 84.53 30.89 81.22L25.42 78.70L46.58 78.70L41.04 81.94C48.53 84.24 56.02 87.12 60.19 89.21L68.11 85.97C63.07 83.88 54.50 81.00 46.94 78.70Z"/></svg>
