<svg xmlns="http://www.w3.org/2000/svg" xmlns:xlink="http://www.w3.org/1999/xlink" width="72.00000000000001" height="106.56000000000002"><path fill="red" stroke="red" d="M23.76 39.24L12.53 39.24L12.53 31.32L23.76 31.32ZM23.76 52.49L12.53 52.49L12.53 44.42L23.76 44.42ZM23.76 65.74L12.53 65.74L12.53 57.53L23.76 57.53ZM30.24 25.85L6.34 25.85L6.34 71.14L30.24 71.14ZM10.58 72.22C8.93 77.26 5.98 82.22 2.38 85.46C3.89 86.33 6.48 88.20 7.70 89.28C11.30 85.54 14.83 79.63 16.85 73.80ZM20.16 74.45C22.90 78.12 25.78 83.09 27.07 86.33L32.62 83.52C31.25 80.35 28.37 75.60 25.49 72.07ZM59.33 79.92L40.90 79.92L40.90 63.43L59.33 63.43ZM69.12 44.78L69.12 38.66L52.49 38.66L52.49 23.18L45.94 23.18L45.94 57.38L34.63 57.38L34.63 89.14L40.90 89.14L40.90 85.97L59.33 85.97L59.33 88.85L65.88 88.85L65.88 57.38L52.49 57.38L52.49 44.78Z"/></svg>
