<svg xmlns="http://www.w3.org/2000/svg" xmlns:xlink="http://www.w3.org/1999/xlink" width="72.00000000000001" height="106.56000000000002"><path fill="red" stroke="red" d="M11.66 61.06L27.72 61.06L27.72 64.66L11.66 64.66ZM11.66 53.50L27.72 53.50L27.72 57.02L11.66 57.02ZM35.57 78.84L35.57 73.51L22.82 73.51L22.82 68.90L33.48 68.90L33.48 49.25L6.19 49.25L6.19 68.90L16.49 68.90L16.49 73.51L3.02 73.51L3.02 78.84L16.49 78.84L16.49 89.14L22.82 89.14L22.82 78.84ZM44.14 73.66L60.12 73.66L60.12 76.61L44.14 76.61ZM44.14 67.54L60.12 67.54L60.12 70.34L44.14 70.34ZM44.14 61.42L60.12 61.42L60.12 64.15L44.14 64.15ZM66.17 80.06L66.17 57.96L38.30 57.96L38.30 80.06L43.92 80.06C41.26 82.30 35.93 84.38 31.32 85.46C32.62 86.33 34.56 88.13 35.64 89.21C40.54 87.77 46.37 85.10 49.82 81.86L44.78 80.06L57.67 80.06L53.86 82.37C57.60 84.46 62.50 87.48 64.87 89.28L69.77 86.11C67.32 84.46 62.86 81.94 59.33 80.06ZM43.42 45.00C46.58 44.06 49.61 42.91 52.49 41.54C55.30 42.98 58.46 44.06 61.78 45.00ZM35.50 40.82L28.58 40.82C29.38 39.02 30.17 36.94 31.10 34.92L26.86 33.84L34.63 33.84C35.93 34.70 37.58 36.14 38.45 37.22C40.03 36.36 41.47 35.50 42.91 34.56C44.21 35.93 45.72 37.30 47.45 38.52C43.78 39.96 39.67 41.04 35.50 41.83ZM25.42 33.84C24.84 35.93 23.90 38.66 23.04 40.82L16.63 40.82C16.06 38.74 15.19 35.93 14.04 33.84ZM47.16 31.32L58.61 31.32C56.88 33.12 54.79 34.70 52.42 36.14C50.11 34.85 48.10 33.34 46.66 31.75ZM63.36 26.78L62.35 27.00L51.62 27.00C52.42 26.21 53.21 25.27 53.93 24.34L48.31 23.26C45.65 26.71 40.82 30.67 34.70 33.55L34.70 28.73L23.11 28.73C22.54 26.78 21.60 24.34 20.45 22.54L15.19 24.41C15.77 25.70 16.42 27.22 16.92 28.73L4.82 28.73L4.82 33.84L13.75 33.84L8.78 35.06C9.58 36.79 10.30 38.95 10.80 40.82L3.17 40.82L3.17 46.08L35.50 46.08L35.50 44.28C36.07 45.07 36.50 46.01 36.86 46.66C38.52 46.30 40.10 45.94 41.76 45.43L41.76 48.60L49.25 48.60L49.25 51.55L36.14 51.55L36.14 55.51L67.75 55.51L67.75 51.55L54.79 51.55L54.79 48.60L62.78 48.60L62.78 45.29C64.15 45.58 65.52 45.94 66.96 46.15C67.82 44.64 69.19 42.55 70.49 41.40C65.88 40.82 61.56 39.89 57.67 38.45C61.42 35.93 64.58 32.76 66.74 28.80Z"/></svg>
