<svg xmlns="http://www.w3.org/2000/svg" xmlns:xlink="http://www.w3.org/1999/xlink" width="72.00000000000001" height="106.56000000000002"><path fill="red" stroke="red" d="M55.30 56.16L33.26 56.16L33.26 50.18L55.30 50.18ZM43.70 65.66C50.69 69.12 59.69 74.59 64.01 78.26L67.97 74.38C65.52 72.50 61.99 70.20 58.18 67.97C60.91 66.38 64.01 64.44 66.82 62.42L61.78 59.26L61.78 45.43L27.14 45.43L27.14 60.84L37.37 60.84C32.83 63.65 26.50 65.95 20.59 67.25C21.82 68.40 23.62 70.92 24.34 72.14C27.43 71.21 30.67 69.91 33.84 68.54L33.84 72.50C33.84 75.02 32.47 75.74 31.39 76.18C32.11 77.18 33.05 79.49 33.26 80.78C34.49 79.92 36.65 79.20 50.40 75.38C50.18 74.30 50.04 72.29 50.11 70.78L39.24 73.44L39.24 65.74C41.76 64.22 43.92 62.64 45.72 60.84L59.98 60.84C58.10 62.42 55.80 64.08 53.71 65.52C51.55 64.30 49.32 63.14 47.30 62.28ZM67.46 37.15L47.38 37.15L47.38 32.98L63.29 32.98L63.29 28.01L47.38 28.01L47.38 23.11L40.82 23.11L40.82 28.01L25.42 28.01L25.42 32.98L40.82 32.98L40.82 37.15L21.67 37.15L21.67 42.12L67.46 42.12ZM17.06 34.99C16.13 31.90 14.47 27.07 13.10 23.33L7.27 25.13C8.35 28.94 10.15 33.98 11.02 37.15ZM18.65 55.87L17.71 56.16L13.68 56.16C15.41 51.19 17.50 45.29 19.01 40.10L3.53 40.10L3.53 46.22L10.80 46.22C8.93 51.84 6.84 57.74 5.04 61.99L14.33 61.99C13.18 66.82 11.45 72.00 9.58 75.89C7.34 77.33 4.75 80.14 2.30 83.38L6.84 89.57C8.78 85.18 11.30 80.57 12.89 80.57C14.47 80.57 17.06 83.02 19.94 84.67C25.20 87.70 31.39 88.49 40.82 88.49C49.25 88.49 62.42 88.06 67.97 87.70C68.11 85.90 69.19 82.58 69.98 80.78C61.99 81.79 49.82 82.44 41.11 82.44C32.62 82.44 26.06 82.01 21.10 78.98C18.72 77.54 17.21 76.39 15.84 75.60C18.36 70.20 20.38 63.43 21.74 57.02Z"/></svg>
