<svg xmlns="http://www.w3.org/2000/svg" xmlns:xlink="http://www.w3.org/1999/xlink" width="72.00000000000001" height="106.56000000000002"><path fill="red" stroke="red" d="M35.28 24.48C33.91 27.14 31.32 31.10 29.45 33.55L33.34 35.50C35.50 33.26 38.09 29.95 40.61 26.78ZM20.66 55.58L26.57 55.58L26.57 40.61L42.34 40.61L42.34 35.50L26.57 35.50L26.57 23.18L20.66 23.18L20.66 35.50L12.96 35.50L17.21 32.83C15.98 30.74 13.46 27.14 11.45 24.62L6.98 27.00C8.93 29.59 11.30 33.19 12.38 35.50L4.18 35.50L4.18 40.61L20.66 40.61ZM28.22 44.71C32.04 47.45 36.72 51.48 39.02 54.07L42.91 50.62C40.61 48.10 35.78 44.28 32.04 41.76ZM13.68 41.83C11.38 45.00 6.77 48.31 2.66 49.97C3.96 50.98 5.62 52.85 6.48 54.14C10.80 51.98 15.62 47.52 18.22 43.63ZM16.56 64.22C15.77 67.10 14.83 69.77 13.61 72.22C12.46 70.70 11.23 68.98 9.94 67.39C10.37 66.38 10.80 65.38 11.23 64.22ZM19.22 58.97L18.43 59.11L12.74 59.11C13.18 57.60 13.54 56.16 13.82 54.65L9.14 53.71C7.99 60.26 5.90 66.53 2.59 70.78C3.67 71.57 5.40 73.22 6.12 74.09C6.70 73.37 7.27 72.50 7.78 71.71C8.93 73.37 10.15 75.17 11.09 76.61C8.57 80.42 5.62 83.30 2.38 85.18C3.53 86.18 4.90 87.98 5.54 89.21C13.75 84.10 19.94 74.16 22.39 59.98ZM27.36 73.73C27.94 70.63 28.66 67.18 29.16 63.94L31.18 63.94L31.18 73.73ZM36.36 63.94L41.69 63.94L41.69 59.11L36.36 59.11L36.36 53.93L31.18 53.93L31.18 59.11L23.04 59.11L23.04 63.94L24.55 63.94C23.76 69.05 22.61 74.95 21.67 78.98L31.18 78.98L31.18 89.35L36.36 89.35L36.36 78.98L43.34 78.98L43.34 73.73L36.36 73.73ZM64.22 26.42L63.29 26.71L46.22 26.71L46.22 88.99L52.27 88.99L52.27 32.76L60.84 32.76C59.18 38.38 56.74 45.86 54.50 51.48C60.19 57.53 61.78 62.86 61.78 67.10C61.78 69.62 61.34 71.64 60.12 72.50C59.54 72.94 58.61 73.15 57.67 73.22C56.59 73.30 55.22 73.22 53.57 73.08C54.65 74.81 55.22 77.47 55.30 79.13C56.95 79.20 58.82 79.20 60.26 79.06C61.92 78.84 63.29 78.34 64.51 77.54C66.82 75.82 67.75 72.43 67.75 67.75C67.75 62.93 66.46 57.17 60.62 50.69C63.36 44.28 66.38 36.00 68.76 29.23Z"/></svg>
