<svg xmlns="http://www.w3.org/2000/svg" xmlns:xlink="http://www.w3.org/1999/xlink" width="72.00000000000001" height="106.56000000000002"><path fill="red" stroke="red" d="M40.10 47.09L40.10 32.04L54.58 32.04L54.58 60.55C52.42 56.09 47.88 49.61 44.06 44.86ZM62.06 82.08C61.70 82.08 61.27 81.86 61.06 81.58C60.91 81.29 60.77 80.71 60.77 80.21L60.77 26.14L34.20 26.14L34.20 54.65C34.20 62.71 33.62 72.07 28.73 79.78L28.44 76.18L20.09 77.76L20.09 59.33L29.38 59.33L29.38 53.64L20.09 53.64L20.09 46.80L27.14 46.80L27.14 41.18L10.73 41.18C13.10 38.59 15.41 35.71 17.35 32.69C21.74 35.57 26.21 39.17 28.94 42.05L31.82 36.58C29.09 33.91 24.70 30.60 20.23 27.79C20.81 26.93 21.31 25.92 21.74 24.98L16.85 22.75C13.54 29.52 7.85 35.93 2.38 39.96C3.17 41.62 4.54 45.29 4.90 46.73C6.12 45.72 7.20 44.71 8.42 43.56L8.42 46.80L14.69 46.80L14.69 53.64L4.46 53.64L4.46 59.33L14.69 59.33L14.69 78.91C10.44 79.70 6.55 80.42 3.53 80.93L4.97 86.98C11.09 85.54 19.22 83.74 27.22 81.86C26.21 83.30 24.98 84.53 23.54 85.75C24.98 86.47 27.43 88.42 28.44 89.57C38.66 80.50 40.10 65.95 40.10 54.65L40.10 49.32C43.78 54.36 47.74 60.55 49.39 64.66L54.58 61.42L54.58 80.06C54.58 84.31 54.86 85.68 56.02 86.90C57.10 88.06 58.61 88.56 60.19 88.56L63.50 88.56C64.87 88.56 66.31 88.20 67.25 87.41C68.18 86.62 68.83 85.54 69.19 83.66C69.55 81.94 69.84 77.47 69.91 73.94C68.26 73.44 66.38 72.43 65.16 71.35C65.16 75.10 65.09 78.26 64.94 79.63C64.87 80.42 64.58 81.22 64.37 81.65C64.15 81.94 63.65 82.08 63.22 82.08ZM5.54 63.72C6.62 67.90 7.70 73.15 7.99 76.68L12.38 75.38C12.02 72.00 10.87 66.67 9.72 62.57ZM25.49 75.82C26.71 72.58 28.08 67.61 29.38 63.22L24.55 61.85C23.98 65.59 22.68 71.06 21.67 74.52Z"/></svg>
