<svg xmlns="http://www.w3.org/2000/svg" xmlns:xlink="http://www.w3.org/1999/xlink" width="72.00000000000001" height="106.56000000000002"><path fill="red" stroke="red" d="M55.73 82.51C54.86 82.51 54.22 82.44 53.64 82.15C52.99 81.79 52.78 80.50 52.78 78.70L52.78 69.55L60.55 69.55L60.55 73.58L66.38 73.58L66.38 44.35L60.55 44.35L60.55 63.36L52.78 63.36L52.78 38.45L69.12 38.45L69.12 32.26L52.78 32.26L52.78 23.26L46.66 23.26L46.66 32.26L31.97 32.26L31.97 36.43C29.30 33.84 24.91 30.53 20.52 27.79C21.10 26.93 21.60 25.92 22.03 24.98L16.99 22.75C13.82 29.52 8.06 35.93 2.66 39.96C3.46 41.62 4.90 45.29 5.26 46.73C6.41 45.79 7.56 44.78 8.71 43.63L8.71 46.80L14.98 46.80L14.98 53.64L4.75 53.64L4.75 59.33L14.98 59.33L14.98 78.91C10.73 79.70 6.84 80.42 3.82 80.93L5.26 86.98C12.24 85.39 21.82 83.30 30.82 81.14L30.46 75.89C27.14 76.46 23.69 77.18 20.45 77.83L20.45 59.33L29.74 59.33L29.74 53.64L20.45 53.64L20.45 46.80L27.43 46.80L27.43 41.18L11.02 41.18C13.46 38.59 15.70 35.71 17.64 32.69C22.03 35.57 26.42 39.17 29.23 42.05L31.97 36.86L31.97 38.45L46.66 38.45L46.66 63.36L39.38 63.36L39.38 44.35L33.55 44.35L33.55 69.55L46.66 69.55L46.66 78.34C46.66 84.53 47.45 86.04 48.96 87.19C50.40 88.27 52.56 88.78 54.36 88.78L60.19 88.78C61.78 88.78 63.72 88.56 65.02 88.06C66.53 87.48 67.46 86.62 68.11 85.03C68.62 83.66 69.05 80.28 69.19 77.33C67.25 76.75 65.02 75.60 63.58 74.23C63.50 77.26 63.36 79.70 63.14 80.64C62.93 81.65 62.35 82.15 61.92 82.30C61.42 82.44 60.41 82.51 59.54 82.51ZM25.70 75.82C26.93 72.58 28.22 67.61 29.52 63.22L24.70 61.85C24.12 65.59 22.82 71.06 21.82 74.52ZM5.76 63.72C6.84 67.90 7.99 73.15 8.21 76.68L12.67 75.38C12.31 71.93 11.16 66.67 10.01 62.57Z"/></svg>
