<svg xmlns="http://www.w3.org/2000/svg" xmlns:xlink="http://www.w3.org/1999/xlink" width="72.00000000000001" height="106.56000000000002"><path fill="red" stroke="red" d="M68.04 33.05L50.11 33.05L54.50 30.96C53.42 28.66 51.41 25.27 49.61 22.68L43.85 25.13C45.29 27.58 47.16 30.74 48.17 33.05L31.90 33.05L31.90 39.17L68.04 39.17ZM53.71 43.20C57.24 47.95 61.85 54.43 64.01 58.18L69.55 54.58C67.25 50.83 62.50 44.57 59.04 40.10ZM19.87 59.33L29.09 59.33L29.09 53.64L19.87 53.64L19.87 46.80L26.78 46.80L26.78 41.18L10.58 41.18C12.89 38.59 15.19 35.71 17.14 32.62C21.46 35.57 25.78 39.17 28.51 42.05L31.39 36.58C28.66 33.98 24.41 30.67 20.02 27.86C20.52 26.93 21.02 25.99 21.46 24.98L16.56 22.75C13.32 29.45 7.70 35.86 2.38 39.96C3.17 41.62 4.46 45.29 4.90 46.73C6.05 45.79 7.13 44.78 8.28 43.63L8.28 46.80L14.47 46.80L14.47 53.64L4.39 53.64L4.39 59.33L14.47 59.33L14.47 78.84C10.30 79.63 6.48 80.35 3.53 80.93L4.90 86.90C11.66 85.39 20.74 83.30 29.38 81.29L29.09 75.89C25.99 76.54 22.90 77.18 19.87 77.76ZM5.40 63.72C6.48 67.90 7.56 73.15 7.85 76.68L12.24 75.31C11.88 71.93 10.73 66.67 9.50 62.57ZM24.98 75.74C26.21 72.58 27.58 67.61 28.87 63.22L24.12 61.85C23.54 65.59 22.25 71.06 21.24 74.52ZM55.08 53.57C53.93 58.10 52.20 62.28 49.97 66.10C47.66 62.35 45.72 58.25 44.35 53.93L38.59 55.30C41.40 51.34 44.42 46.44 46.58 42.19L40.25 40.10C37.87 45.29 34.06 50.98 30.53 54.79C32.04 55.73 34.70 57.74 35.93 58.82C36.72 57.89 37.58 56.74 38.45 55.51C40.39 61.42 42.91 66.96 46.01 71.78C41.76 76.97 36.22 81.22 29.52 84.24C30.89 85.46 32.90 87.84 33.84 89.28C40.32 86.11 45.65 82.15 49.97 77.11C54.29 82.22 59.47 86.33 65.59 89.14C66.60 87.34 68.62 84.74 70.06 83.45C63.79 81.00 58.46 76.90 54.07 71.71C57.24 66.89 59.62 61.27 61.34 55.08Z"/></svg>
