<svg xmlns="http://www.w3.org/2000/svg" xmlns:xlink="http://www.w3.org/1999/xlink" width="72.00000000000001" height="106.56000000000002"><path fill="red" stroke="red" d="M30.38 75.67C26.86 76.39 23.40 77.11 20.09 77.76L20.09 59.33L29.02 59.33L29.02 53.64L20.09 53.64L20.09 46.80L26.21 46.80L26.21 41.18L10.58 41.18C12.89 38.66 15.12 35.78 17.06 32.76C20.66 35.71 24.48 39.17 26.71 41.76L30.38 37.15C27.94 34.49 23.90 31.03 19.80 28.15C20.45 27.00 21.02 25.85 21.60 24.77L15.98 22.68C12.89 29.45 7.56 35.86 2.16 40.03C3.17 41.62 4.75 45.07 5.18 46.44C6.19 45.58 7.20 44.64 8.28 43.63L8.28 46.80L14.40 46.80L14.40 53.64L4.39 53.64L4.39 59.33L14.40 59.33L14.40 78.84C10.22 79.70 6.48 80.42 3.53 80.93L5.04 86.83C12.17 85.25 21.74 83.02 30.82 80.93ZM5.40 63.72C6.55 67.90 7.70 73.15 7.99 76.68L12.60 75.38C12.17 72.00 11.02 66.74 9.72 62.64ZM24.98 75.67C26.21 72.43 27.50 67.46 28.80 63.07L23.90 61.92C23.40 65.59 22.10 71.06 21.10 74.52ZM40.39 48.31L56.59 48.31L56.59 58.25L40.39 58.25ZM58.61 83.23C58.03 83.23 57.60 83.09 57.24 82.87C56.88 82.66 56.81 81.86 56.81 80.64L56.81 64.01L62.78 64.01L62.78 44.93C63.07 45.43 63.29 45.94 63.50 46.37L68.83 42.98C66.17 37.58 59.83 29.52 54.58 23.54L49.68 26.50C53.86 31.25 58.39 37.51 61.42 42.55L36.79 42.55C40.68 37.73 43.99 31.68 46.22 25.42L39.96 23.83C37.51 31.10 33.12 37.94 27.86 42.34C29.30 43.49 31.61 45.94 32.54 47.09C33.19 46.58 33.84 45.94 34.49 45.22L34.49 64.01L39.60 64.01C38.95 73.87 37.01 80.35 26.71 84.02C28.08 85.32 29.95 87.77 30.60 89.42C42.34 84.60 44.93 76.25 45.65 64.01L50.76 64.01L50.76 80.21C50.76 84.67 51.26 85.90 52.42 86.98C53.64 87.98 55.51 88.42 57.24 88.42L61.49 88.42C62.78 88.42 64.51 88.20 65.59 87.70C66.74 87.19 67.61 86.26 68.11 84.89C68.62 83.52 68.90 80.06 68.98 76.82C67.32 76.32 65.16 75.24 64.01 74.23C63.94 77.47 63.86 79.99 63.65 81.14C63.50 82.15 63.14 82.73 62.78 82.94C62.35 83.16 61.70 83.23 61.13 83.23Z"/></svg>
