<svg xmlns="http://www.w3.org/2000/svg" xmlns:xlink="http://www.w3.org/1999/xlink" width="72.00000000000001" height="106.56000000000002"><path fill="red" stroke="red" d="M20.16 77.76L20.16 59.33L29.59 59.33L29.59 53.64L20.16 53.64L20.16 46.80L27.14 46.80L27.14 41.18L10.73 41.18C13.18 38.59 15.41 35.71 17.35 32.62C21.74 35.71 26.28 39.38 29.02 42.34L32.11 36.86C29.30 34.13 24.84 30.67 20.30 27.86C20.81 26.86 21.31 25.92 21.82 24.98L16.78 22.68C13.54 29.45 7.78 35.86 2.38 39.96C3.17 41.62 4.54 45.29 4.97 46.73C6.12 45.79 7.27 44.78 8.42 43.63L8.42 46.80L14.69 46.80L14.69 53.64L4.46 53.64L4.46 59.33L14.69 59.33L14.69 78.91C10.44 79.70 6.55 80.35 3.53 80.93L4.97 86.90C11.81 85.39 21.24 83.30 30.10 81.29L29.74 75.96ZM5.47 63.72C6.55 67.90 7.63 73.15 7.99 76.68L12.38 75.38C12.02 71.93 10.94 66.67 9.72 62.57ZM25.42 75.82C26.57 72.58 27.94 67.61 29.30 63.22L24.41 61.85C23.83 65.59 22.54 71.06 21.53 74.52ZM40.61 69.70L50.04 69.70L50.04 78.12L40.61 78.12ZM50.04 49.82L40.61 49.82L40.61 42.05L50.04 42.05ZM50.04 63.72L40.61 63.72L40.61 55.87L50.04 55.87ZM68.62 78.12L56.02 78.12L56.02 69.70L66.38 69.70L66.38 63.72L56.02 63.72L56.02 55.87L66.24 55.87L66.24 49.82L56.02 49.82L56.02 42.05L67.75 42.05L67.75 36.00L52.78 36.00L58.25 33.41C57.31 30.67 55.22 26.64 53.42 23.47L47.88 25.85C49.54 29.02 51.55 33.26 52.42 36.00L42.41 36.00C43.99 32.40 45.36 28.80 46.51 25.34L40.18 23.47C38.02 31.61 33.48 42.19 28.30 48.74C29.23 50.33 30.67 53.28 31.32 55.01C32.47 53.57 33.55 52.06 34.63 50.54L34.63 89.35L40.61 89.35L40.61 84.31L68.69 84.31Z"/></svg>
