<svg xmlns="http://www.w3.org/2000/svg" xmlns:xlink="http://www.w3.org/1999/xlink" width="72.00000000000001" height="106.56000000000002"><path fill="red" stroke="red" d="M45.00 44.28L34.99 44.28L34.99 39.24L45.00 39.24ZM39.60 53.42L34.99 53.42L34.99 48.60L39.60 48.60ZM39.60 30.17L39.60 34.92L34.99 34.92L34.99 30.17ZM36.94 68.47L41.90 68.47L41.90 80.35L36.94 80.35ZM51.19 68.47L51.19 80.35L46.22 80.35L46.22 68.47ZM60.48 68.47L60.48 80.35L55.51 80.35L55.51 68.47ZM69.12 33.41L59.11 33.41C59.76 30.53 60.34 27.50 60.84 24.55L55.01 23.40C54.07 30.82 52.20 38.38 49.46 43.63L49.46 34.92L44.28 34.92L44.28 30.17L49.97 30.17L49.97 25.13L30.02 25.13L30.02 35.35C27.43 33.19 23.69 30.24 20.09 27.65C20.66 26.71 21.17 25.63 21.60 24.62L16.56 22.75C13.39 29.45 7.78 35.86 2.45 40.03C3.24 41.69 4.39 45.22 4.54 46.66C5.40 45.94 6.26 45.14 7.20 44.28L7.20 46.51L13.75 46.51L13.75 52.92L4.10 52.92L4.10 58.61L13.75 58.61L13.75 79.42C9.79 80.14 6.12 80.86 3.17 81.36L4.68 87.34C11.09 86.04 19.37 84.38 27.36 82.66L27.36 86.04L68.98 86.04L68.98 80.35L66.10 80.35L66.10 63.07L31.61 63.07L31.61 80.35L28.94 80.35L28.58 76.68L19.37 78.41L19.37 58.61L27.58 58.61L27.58 52.92L19.37 52.92L19.37 46.51L26.28 46.51L26.28 40.97L10.51 40.97C12.82 38.45 15.05 35.64 16.99 32.69C20.59 35.57 24.70 38.95 27.14 41.18L30.02 37.08L30.02 58.46L50.76 58.46L50.76 53.42L44.28 53.42L44.28 48.60L49.46 48.60L49.46 44.71C50.98 45.43 53.06 46.66 54.07 47.52C55.30 45.22 56.52 42.34 57.53 39.17L69.12 39.17ZM52.49 56.23L68.33 56.23L68.33 50.62L52.49 50.62ZM24.91 74.95C25.92 71.78 27.07 66.89 28.22 62.64L23.40 61.49C22.90 65.02 21.74 70.49 20.74 73.80ZM4.97 63.14C5.90 67.32 6.84 72.72 7.20 76.25L11.74 75.17C11.38 71.64 10.30 66.24 9.29 62.14Z"/></svg>
