<svg xmlns="http://www.w3.org/2000/svg" xmlns:xlink="http://www.w3.org/1999/xlink" width="72.00000000000001" height="106.56000000000002"><path fill="red" stroke="red" d="M26.50 30.10L26.50 34.78L12.38 34.78L12.38 30.10ZM12.38 43.56L12.38 38.88L26.50 38.88L26.50 43.56ZM32.83 48.10L32.83 25.56L6.19 25.56L6.19 89.21L12.38 89.21L12.38 48.10ZM54.36 61.85L54.36 56.16L38.45 56.16L38.45 49.75L32.26 49.75L32.26 56.16L17.35 56.16L17.35 61.85L29.59 61.85C25.85 67.39 19.66 72.94 14.11 75.89C15.48 76.97 17.42 79.13 18.43 80.50C23.11 77.40 28.37 72.14 32.26 66.60L32.26 86.11L38.45 86.11L38.45 66.17C43.06 70.42 47.88 75.53 50.33 78.91L55.08 75.38C52.20 71.71 46.73 66.31 41.54 61.85ZM44.57 43.56L44.57 39.02L59.47 39.02L59.47 43.56ZM59.47 30.17L59.47 34.85L44.57 34.85L44.57 30.17ZM65.74 25.70L38.23 25.70L38.23 48.02L59.47 48.02L59.47 81.79C59.47 82.80 59.18 83.09 58.25 83.09C57.46 83.09 54.72 83.16 51.98 83.02C52.78 84.60 53.57 87.26 53.86 88.85C58.10 88.92 61.13 88.78 63.14 87.70C65.09 86.76 65.74 85.03 65.74 81.86Z"/></svg>
