<svg xmlns="http://www.w3.org/2000/svg" xmlns:xlink="http://www.w3.org/1999/xlink" width="72.00000000000001" height="106.56000000000002"><path fill="red" stroke="red" d="M24.19 25.92L23.26 26.21L5.98 26.21L5.98 89.28L12.24 89.28L12.24 32.18L20.88 32.18C19.51 37.15 17.50 43.92 15.62 48.96C20.52 54.36 21.74 59.04 21.74 62.78C21.74 64.94 21.31 66.67 20.30 67.39C19.73 67.82 18.94 68.04 18.00 68.11C16.99 68.11 15.70 68.11 14.11 67.97C15.12 69.62 15.62 72.29 15.70 74.02C17.35 74.09 19.30 74.09 20.74 73.87C22.25 73.66 23.62 73.22 24.70 72.43C26.93 70.92 27.79 67.90 27.79 63.58C27.79 59.18 26.71 54.07 21.60 48.24C23.98 42.41 26.64 34.70 28.80 28.58ZM68.40 41.11L68.40 34.85L47.02 34.85L52.56 33.34C51.91 30.67 50.33 26.35 49.03 23.04L42.91 24.55C44.06 27.79 45.50 32.18 46.01 34.85L27.36 34.85L27.36 41.11L37.80 41.11C37.30 60.05 36.00 75.67 20.38 84.02C21.96 85.18 23.90 87.48 24.77 89.06C37.30 82.08 41.69 70.78 43.34 57.10L57.53 57.10C56.88 73.80 56.09 80.28 54.79 81.86C54.07 82.58 53.42 82.87 52.20 82.80C50.76 82.80 47.38 82.80 43.85 82.44C45.00 84.31 45.79 87.05 45.86 89.06C49.54 89.21 53.28 89.28 55.37 88.92C57.67 88.70 59.18 88.06 60.62 86.26C62.71 83.59 63.50 75.53 64.30 53.93L64.30 51.05L43.92 51.05C44.14 47.88 44.28 44.50 44.42 41.11Z"/></svg>
