<svg xmlns="http://www.w3.org/2000/svg" xmlns:xlink="http://www.w3.org/1999/xlink" width="72.00000000000001" height="106.56000000000002"><path fill="red" stroke="red" d="M34.13 41.04L34.13 34.63L19.80 34.63C20.23 31.10 20.66 27.43 21.02 23.69L14.62 23.11C14.33 27.00 13.97 30.89 13.46 34.63L4.54 34.63L4.54 41.04L12.46 41.04C10.44 53.35 7.20 64.08 1.80 71.50C3.38 72.36 6.26 74.38 7.42 75.31C13.10 66.67 16.63 54.86 18.86 41.04ZM25.13 64.01C26.21 67.75 27.43 72.07 28.44 76.25L17.71 78.05C21.60 69.98 25.34 59.83 27.86 50.18L21.53 48.67C19.44 59.40 14.98 71.28 13.46 74.23C12.02 77.33 10.94 79.42 9.58 79.85C10.37 81.36 11.38 84.31 11.66 85.54C13.03 84.67 15.34 84.10 29.66 81.50C30.02 83.38 30.38 85.03 30.60 86.62L36.00 84.67C34.99 78.55 32.47 69.48 30.10 62.35ZM49.61 25.92C51.34 29.30 53.35 33.62 54.14 36.50L60.12 34.27C59.26 31.54 57.17 27.22 55.30 24.05ZM43.85 70.92L52.63 70.92L52.63 79.56L43.85 79.56ZM52.63 42.48L52.63 51.05L43.85 51.05L43.85 42.48ZM52.63 65.23L43.85 65.23L43.85 56.74L52.63 56.74ZM68.33 79.56L58.68 79.56L58.68 70.92L67.39 70.92L67.39 65.23L58.68 65.23L58.68 56.74L67.32 56.74L67.32 51.05L58.68 51.05L58.68 42.48L67.54 42.48L67.54 36.58L43.27 36.58C44.93 32.83 46.37 28.87 47.59 24.98L41.90 23.47C39.17 32.90 34.63 42.41 29.30 48.60C30.53 49.82 32.47 52.56 33.19 53.86C34.85 51.91 36.43 49.54 37.94 47.02L37.94 89.14L43.85 89.14L43.85 85.61L68.33 85.61Z"/></svg>
