<svg xmlns="http://www.w3.org/2000/svg" xmlns:xlink="http://www.w3.org/1999/xlink" width="72.00000000000001" height="106.56000000000002"><path fill="red" stroke="red" d="M58.82 37.15L43.42 37.15L43.42 31.18L58.82 31.18ZM65.30 26.28L37.22 26.28L37.22 42.05L65.30 42.05ZM60.62 54.43L41.54 54.43L41.54 50.40L60.62 50.40ZM60.62 62.93L41.54 62.93L41.54 58.82L60.62 58.82ZM60.62 71.50L41.54 71.50L41.54 67.32L60.62 67.32ZM67.10 45.79L35.35 45.79L35.35 76.18L67.10 76.18ZM32.40 30.53L19.66 30.53L22.32 29.59C21.74 27.72 20.23 24.77 18.86 22.68L13.54 24.41C14.76 26.21 15.91 28.66 16.42 30.53L4.10 30.53L4.10 36.07L32.40 36.07ZM33.05 46.66L25.56 46.66C26.64 43.99 28.01 40.68 29.09 37.66L23.04 36.50C22.54 39.38 21.24 43.63 20.16 46.66L11.95 46.66L16.27 45.22C15.70 42.77 14.18 38.95 12.60 36.14L7.42 37.73C8.78 40.54 10.15 44.14 10.66 46.66L2.95 46.66L2.95 52.42L33.05 52.42ZM24.19 62.57L24.19 68.76L12.46 68.76L12.46 62.57ZM12.46 80.50L12.46 73.80L24.19 73.80L24.19 80.50ZM30.24 57.17L6.55 57.17L6.55 89.06L12.46 89.06L12.46 85.90L30.24 85.90ZM42.91 76.90C40.25 79.70 35.14 83.38 30.60 85.32C32.11 86.33 34.42 88.06 35.50 89.21C39.74 87.19 45.22 83.38 48.60 80.21ZM53.78 80.28C57.53 83.09 61.92 86.90 64.30 89.50L70.06 86.04C67.32 83.52 62.57 79.78 58.39 76.97Z"/></svg>
