<svg xmlns="http://www.w3.org/2000/svg" xmlns:xlink="http://www.w3.org/1999/xlink" width="72.00000000000001" height="106.56000000000002"><path fill="red" stroke="red" d="M60.84 48.96L46.08 48.96L46.08 42.98L60.84 42.98ZM60.84 59.69L46.08 59.69L46.08 53.71L60.84 53.71ZM60.84 70.49L46.08 70.49L46.08 64.44L60.84 64.44ZM40.39 38.02L40.39 75.53L66.74 75.53L66.74 38.02L54.94 38.02C55.44 36.14 56.02 33.98 56.52 31.90L68.54 31.90L68.54 26.21L38.16 26.21L38.16 31.90L49.97 31.90C49.68 33.91 49.32 36.07 49.03 38.02ZM15.84 67.61C14.90 72.43 13.39 77.47 11.23 81.00C12.60 81.43 14.83 82.66 15.91 83.45C18.07 79.78 19.94 74.09 20.95 68.62ZM20.45 53.64L31.18 53.64L31.18 59.62L20.45 59.62ZM20.45 43.27L31.18 43.27L31.18 49.10L20.45 49.10ZM36.65 64.37L36.65 38.52L27.43 38.52L29.30 31.97L36.79 31.97L36.79 26.21L6.26 26.21L6.26 53.06C6.26 62.86 5.98 75.74 2.02 84.67C3.31 85.25 5.90 87.12 6.84 88.20C11.30 78.48 12.02 63.58 12.02 52.99L12.02 31.97L22.82 31.97C22.54 34.06 22.18 36.43 21.82 38.52L15.26 38.52L15.26 64.37L23.11 64.37L23.11 83.16C23.11 83.81 22.90 84.02 22.25 84.10C21.53 84.10 19.51 84.10 17.14 84.02C17.93 85.39 18.72 87.70 18.94 89.14C22.39 89.14 24.77 89.06 26.50 88.20C28.22 87.34 28.58 85.82 28.58 83.30L28.58 64.37ZM39.10 78.77C38.30 75.82 36.50 71.06 34.70 67.39L30.38 68.98C31.97 72.65 33.77 77.62 34.34 80.64ZM46.08 76.54C43.56 79.49 38.45 83.16 34.06 85.10C35.35 86.26 37.30 88.13 38.16 89.28C42.70 87.19 48.17 83.38 51.48 79.78ZM55.30 79.70C58.75 82.51 63.00 86.62 65.09 89.21L70.13 85.68C67.97 83.16 63.50 79.27 60.12 76.61Z"/></svg>
