<svg xmlns="http://www.w3.org/2000/svg" xmlns:xlink="http://www.w3.org/1999/xlink" width="72.00000000000001" height="106.56000000000002"><path fill="red" stroke="red" d="M25.70 55.94L46.37 55.94L46.37 52.42L25.70 52.42ZM19.15 58.82C22.39 56.16 25.27 53.06 27.65 49.75L44.86 49.75C47.09 53.06 50.04 56.16 53.35 58.82ZM22.90 71.93L22.90 68.90L48.24 68.90L48.24 71.93ZM34.27 79.06L22.90 81.50L22.90 75.82L36.58 75.82ZM22.90 62.71L48.24 62.71L48.24 65.52L22.90 65.52ZM67.54 49.75L67.54 45.07L39.31 45.07L39.31 41.83L59.90 41.83L59.90 37.66L39.31 37.66L39.31 34.63L63.58 34.63L63.58 30.02L51.12 30.02C52.42 28.37 53.78 26.50 55.08 24.62L47.81 22.97C46.94 24.98 45.43 27.94 44.06 30.02L28.37 30.02C27.36 28.15 25.42 25.20 23.76 23.11L17.78 25.06C18.79 26.57 20.02 28.37 21.02 30.02L8.50 30.02L8.50 34.63L32.47 34.63L32.47 37.66L12.10 37.66L12.10 41.83L32.47 41.83L32.47 45.07L4.54 45.07L4.54 49.75L19.87 49.75C15.48 54.79 9.07 59.04 2.30 61.78C3.67 62.93 5.98 65.38 6.91 66.67C9.94 65.23 12.82 63.50 15.62 61.49L15.62 78.70C15.62 81.79 14.04 83.23 12.74 83.95C13.82 85.10 15.12 87.84 15.55 89.42C16.99 88.49 19.22 87.84 34.78 84.17C34.56 83.16 34.42 81.29 34.34 79.85C43.63 82.58 56.09 86.98 62.35 89.57L65.16 84.89C62.50 83.88 58.90 82.58 54.94 81.22C58.46 79.78 62.14 77.98 65.30 76.25L60.98 72.72C57.96 74.74 53.28 77.47 49.10 79.42C44.86 78.05 40.61 76.82 36.94 75.82L55.01 75.82L55.01 60.05C58.18 62.35 61.70 64.30 65.30 65.66C66.24 64.08 68.11 61.63 69.62 60.41C62.86 58.32 56.38 54.36 51.98 49.75Z"/></svg>
