<svg xmlns="http://www.w3.org/2000/svg" xmlns:xlink="http://www.w3.org/1999/xlink" width="72.00000000000001" height="106.56000000000002"><path fill="red" stroke="red" d="M6.34 84.46C7.56 80.28 8.57 73.37 9.14 68.62L5.54 67.46C5.04 72.14 3.89 78.91 2.45 83.02ZM10.22 68.90C10.58 72.94 10.87 78.34 10.87 81.86L14.11 81.50C14.04 77.98 13.75 72.72 13.25 68.54ZM14.47 68.18C15.41 71.93 16.42 76.68 16.85 79.92L19.87 79.27C19.44 76.18 18.36 71.35 17.42 67.68ZM11.52 53.14L16.99 53.14L16.99 58.82L11.52 58.82ZM16.99 31.68L16.99 37.44L11.52 37.44L11.52 31.68ZM16.99 47.95L11.52 47.95L11.52 42.55L16.99 42.55ZM41.18 39.02C44.14 36.58 46.94 33.84 49.39 30.89C52.13 33.70 55.37 36.58 58.75 39.02ZM30.74 58.82L22.25 58.82L22.25 53.14L29.38 53.14L29.38 47.95L22.25 47.95L22.25 42.55L29.23 42.55L29.23 40.46C30.46 41.54 32.33 43.42 33.19 44.57C35.14 43.42 37.01 42.12 38.88 40.82L38.88 44.21L60.12 44.21L60.12 40.03C62.28 41.62 64.58 42.98 66.67 44.14C67.18 42.48 68.40 39.67 69.34 38.16C63.65 35.64 56.95 31.03 52.56 26.64C53.14 25.92 53.57 25.13 54.00 24.34L47.88 22.39C44.21 28.87 37.08 35.71 29.23 40.18L29.23 37.44L22.25 37.44L22.25 31.68L30.46 31.68L30.46 26.21L6.26 26.21L6.26 64.37L25.34 64.37C25.20 68.90 25.06 72.50 24.91 75.17C24.19 72.79 22.68 69.12 21.31 66.31L18.72 67.18C20.02 70.13 21.53 74.09 22.25 76.61L24.91 75.53C24.55 80.35 24.19 82.51 23.69 83.30C23.26 83.95 22.75 84.10 21.89 84.10C21.10 84.10 19.37 84.10 17.35 83.81C18.14 85.25 18.65 87.41 18.79 88.99C20.95 89.06 23.18 89.06 24.48 88.85C26.21 88.63 27.22 88.13 28.22 86.76C29.74 84.74 30.24 78.48 30.74 61.13ZM55.44 53.50L61.27 53.50L61.27 61.49L55.44 61.49ZM50.83 65.95L66.10 65.95L66.10 49.03L50.83 49.03ZM37.80 53.50L43.20 53.50L43.20 61.49L37.80 61.49ZM33.26 65.95L47.95 65.95L47.95 49.03L33.26 49.03ZM38.30 67.75C36.79 74.95 33.77 81.43 29.16 85.39C30.46 86.33 32.69 88.27 33.62 89.21C36.22 86.69 38.59 83.30 40.39 79.49C42.70 81.22 45.14 83.16 46.37 84.67L49.82 80.28C48.24 78.48 45.22 76.25 42.41 74.52C42.98 72.65 43.56 70.85 43.99 68.83ZM55.94 67.46C54.65 74.81 51.84 81.36 47.30 85.39C48.74 86.33 51.19 88.20 52.20 89.21C54.22 87.19 56.09 84.67 57.53 81.79C60.34 83.95 63.22 86.33 64.73 88.20L68.76 83.59C66.82 81.58 63.14 78.70 59.83 76.39C60.70 73.94 61.42 71.28 61.92 68.40Z"/></svg>
