<svg xmlns="http://www.w3.org/2000/svg" xmlns:xlink="http://www.w3.org/1999/xlink" width="72.00000000000001" height="106.56000000000002"><path fill="red" stroke="red" d="M6.26 87.26C7.63 83.45 9.00 77.47 9.86 73.22L5.90 71.42C5.11 75.60 3.67 81.50 2.09 85.25ZM11.38 72.07C12.10 76.18 12.67 81.72 12.82 84.89L16.78 84.17C16.56 81.07 15.84 75.82 15.12 71.71ZM17.21 71.50C18.36 74.74 19.44 79.06 20.02 81.72L23.62 80.21C23.11 77.83 21.74 73.51 20.66 70.34ZM26.42 34.42L26.42 38.09L11.66 38.09L11.66 34.42ZM11.66 46.15L11.66 42.34L26.42 42.34L26.42 46.15ZM11.66 50.83L31.68 50.83L31.68 29.66L19.44 29.66C20.23 27.94 21.10 25.99 21.89 23.98L15.91 23.04C15.62 24.91 14.90 27.50 14.18 29.66L6.34 29.66L6.34 67.68L29.95 67.68C29.74 70.70 29.59 73.15 29.38 75.24C28.44 73.30 27.00 70.78 25.85 68.98L22.75 70.42C24.19 72.72 25.78 75.96 26.64 77.90L29.23 76.39C28.80 80.35 28.30 82.22 27.79 83.02C27.29 83.66 26.71 83.81 25.85 83.81C24.91 83.81 22.97 83.74 20.81 83.45C21.46 85.10 21.96 87.48 22.10 89.14C24.55 89.35 27.00 89.35 28.30 89.14C29.88 88.92 30.96 88.42 31.97 87.05C33.62 84.96 34.27 79.27 35.14 65.16C35.21 64.30 35.28 62.57 35.28 62.57L11.66 62.57L11.66 59.11L35.42 59.11L35.42 54.22L11.66 54.22ZM49.25 81.79C46.22 81.79 45.72 81.29 45.72 78.55L45.72 67.18C52.99 64.15 61.06 60.26 66.74 56.16L61.63 51.77C57.89 55.01 51.84 58.68 45.72 61.63L45.72 45.72L40.68 45.72L40.68 39.74L61.20 39.74L61.20 47.09L67.54 47.09L67.54 34.06L56.66 34.06L57.46 33.84C56.23 30.89 53.64 26.35 51.41 22.90L44.71 24.48C46.51 27.36 48.60 31.18 49.82 34.06L34.49 34.06L34.49 47.16L39.17 47.16L39.17 78.48C39.17 85.82 41.18 87.84 48.60 87.84L59.90 87.84C66.38 87.84 68.18 84.82 68.98 74.74C67.18 74.30 64.51 73.22 63.00 72.14C62.64 80.21 62.14 81.79 59.40 81.79Z"/></svg>
