<svg xmlns="http://www.w3.org/2000/svg" xmlns:xlink="http://www.w3.org/1999/xlink" width="72.00000000000001" height="106.56000000000002"><path fill="red" stroke="red" d="M25.34 46.58L25.34 54.22L15.19 54.22C15.26 52.63 15.26 51.05 15.26 49.68L15.26 46.58ZM42.55 46.58L42.55 54.22L31.61 54.22L31.61 46.58ZM59.54 46.58L59.54 54.22L48.82 54.22L48.82 46.58ZM65.95 59.62L65.95 41.18L48.82 41.18L48.82 35.93L42.55 35.93L42.55 41.18L31.61 41.18L31.61 35.93L25.34 35.93L25.34 41.18L15.26 41.18L15.26 34.70L67.75 34.70L67.75 28.80L42.62 28.80C41.83 26.78 40.82 24.41 39.96 22.54L33.34 24.12C33.84 25.56 34.56 27.14 35.14 28.80L8.93 28.80L8.93 49.68C8.93 60.19 8.35 74.88 2.45 85.03C3.89 85.75 6.77 87.55 7.85 88.70C12.60 80.71 14.33 69.48 14.98 59.62ZM25.20 82.08L25.20 72.79L39.82 72.79L39.82 67.39L25.20 67.39L25.20 60.98L18.86 60.98L18.86 79.85C18.86 82.51 17.57 83.45 16.42 83.95C17.21 85.10 18.29 87.77 18.65 89.35C20.23 88.49 22.82 87.98 40.39 85.61C40.18 84.38 40.10 82.01 40.18 80.42ZM52.27 83.30C49.75 83.30 49.25 82.94 49.25 80.78L49.25 72.79L66.53 72.79L66.53 67.39L49.25 67.39L49.25 61.42L42.84 61.42L42.84 80.93C42.84 87.12 44.42 88.92 51.34 88.92L61.13 88.92C66.31 88.92 68.18 86.90 68.76 79.42C67.03 78.98 64.51 78.05 63.22 77.04C62.93 82.37 62.50 83.30 60.48 83.30Z"/></svg>
