<svg xmlns="http://www.w3.org/2000/svg" xmlns:xlink="http://www.w3.org/1999/xlink" width="72.00000000000001" height="106.56000000000002"><path fill="red" stroke="red" d="M45.36 33.26L45.36 37.51L26.93 37.51L26.93 33.26ZM20.38 42.19L52.13 42.19L52.13 33.26L65.02 33.26L65.02 28.08L52.13 28.08L52.13 23.04L45.36 23.04L45.36 28.08L26.93 28.08L26.93 23.04L20.38 23.04L20.38 28.08L7.56 28.08L7.56 33.26L20.38 33.26ZM68.26 45.22L3.96 45.22L3.96 50.90L68.26 50.90ZM18.50 67.75L32.47 67.75L32.47 72.58L18.50 72.58ZM18.50 58.54L32.47 58.54L32.47 63.36L18.50 63.36ZM53.93 63.36L39.10 63.36L39.10 58.54L53.93 58.54ZM53.93 72.58L39.10 72.58L39.10 67.75L53.93 67.75ZM60.70 77.26L60.70 53.86L12.02 53.86L12.02 77.26L23.47 77.26C18.65 79.99 10.08 83.09 2.95 84.82C4.39 86.04 6.55 88.06 7.63 89.35C14.83 87.48 23.90 84.10 29.74 80.71L24.55 77.26L46.44 77.26L42.34 81.00C50.26 83.59 58.46 86.83 63.14 89.21L69.12 84.89C63.94 82.66 55.66 79.56 47.95 77.26Z"/></svg>
