<svg xmlns="http://www.w3.org/2000/svg" xmlns:xlink="http://www.w3.org/1999/xlink" width="72.00000000000001" height="106.56000000000002"><path fill="red" stroke="red" d="M52.13 34.85L19.44 34.85L19.44 32.11L52.13 32.11ZM52.13 40.54L19.44 40.54L19.44 37.80L52.13 37.80ZM52.13 46.44L19.44 46.44L19.44 43.56L52.13 43.56ZM58.82 28.22L37.44 28.22C38.45 26.78 39.53 25.27 40.61 23.62L32.62 22.61C32.11 24.19 31.18 26.35 30.17 28.22L13.03 28.22L13.03 50.33L58.82 50.33ZM56.52 59.40L39.10 59.40L39.10 56.74L56.52 56.74ZM56.52 65.16L39.10 65.16L39.10 62.42L56.52 62.42ZM14.83 62.42L32.90 62.42L32.90 65.16L14.83 65.16ZM14.83 56.74L32.90 56.74L32.90 59.40L14.83 59.40ZM63.07 52.85L8.50 52.85L8.50 68.98L63.07 68.98ZM67.97 71.93L4.39 71.93L4.39 77.33L20.09 77.33C19.80 79.78 17.78 83.02 7.34 84.96C8.78 86.11 10.51 88.13 11.38 89.57C23.47 86.26 26.28 81.29 26.57 77.33L46.08 77.33L46.08 89.14L52.78 89.14L52.78 77.33L67.97 77.33Z"/></svg>
