<svg xmlns="http://www.w3.org/2000/svg" xmlns:xlink="http://www.w3.org/1999/xlink" width="72.00000000000001" height="106.56000000000002"><path fill="red" stroke="red" d="M26.86 39.38C31.39 43.06 37.30 48.46 39.96 51.84L45.00 47.52C42.12 44.14 36.22 39.10 31.54 35.64ZM20.66 54.00C20.74 52.99 20.74 51.98 20.74 50.98L20.74 32.76L51.98 32.76L51.98 54.00ZM68.11 54.00L58.75 54.00L58.75 26.50L14.04 26.50L14.04 50.98C14.04 51.98 14.04 52.99 14.04 54.00L4.03 54.00L4.03 60.41L13.61 60.41C12.74 68.90 10.15 77.90 2.59 84.60C4.03 85.46 6.55 87.98 7.56 89.28C16.27 81.72 19.37 70.56 20.30 60.41L51.98 60.41L51.98 80.93C51.98 82.37 51.48 82.80 49.90 82.87C48.31 82.94 42.84 83.02 37.58 82.73C38.59 84.53 39.67 87.48 40.03 89.28C47.38 89.28 51.98 89.21 54.86 88.13C57.67 87.05 58.75 85.10 58.75 80.93L58.75 60.41L68.11 60.41Z"/></svg>
