<svg xmlns="http://www.w3.org/2000/svg" xmlns:xlink="http://www.w3.org/1999/xlink" width="72.00000000000001" height="106.56000000000002"><path fill="red" stroke="red" d="M47.66 52.78C49.75 45.14 52.06 35.64 54.00 27.65L6.84 27.65L6.84 34.20L17.86 34.20L17.86 36.50C17.86 49.10 16.85 69.41 2.09 83.88C3.82 85.10 6.26 87.77 7.49 89.42C23.40 73.44 24.77 50.54 24.77 36.58L24.77 34.20L45.00 34.20C42.91 42.98 40.18 52.70 37.80 59.26L57.10 59.26C56.38 72.50 55.44 78.55 53.71 79.99C52.85 80.78 51.91 80.86 50.33 80.86C48.17 80.86 42.84 80.78 37.44 80.35C38.88 82.37 40.03 85.32 40.25 87.41C45.22 87.62 50.33 87.70 52.99 87.41C56.09 87.19 58.25 86.62 60.12 84.53C62.71 81.79 63.65 74.45 64.58 55.87C64.66 54.94 64.73 52.78 64.73 52.78Z"/></svg>
