<svg xmlns="http://www.w3.org/2000/svg" xmlns:xlink="http://www.w3.org/1999/xlink" width="72.00000000000001" height="106.56000000000002"><path fill="red" stroke="red" d="M68.18 56.59L40.32 56.59L40.32 33.55C48.46 32.69 56.02 31.46 62.14 30.02L58.75 23.98C46.44 27.00 25.85 28.73 8.42 29.38C9.07 30.96 9.94 33.70 10.01 35.42C17.28 35.21 25.27 34.85 33.12 34.20L33.12 56.59L4.03 56.59L4.03 63.43L33.12 63.43L33.12 80.57C33.12 82.01 32.47 82.51 30.89 82.58C29.23 82.58 23.54 82.58 17.86 82.37C19.01 84.24 20.30 87.34 20.74 89.28C28.15 89.28 33.05 89.14 36.07 88.06C39.10 87.05 40.32 85.03 40.32 80.57L40.32 63.43L68.18 63.43ZM11.45 39.31C14.11 44.21 16.92 50.69 17.86 54.72L24.05 52.27C22.97 48.24 20.09 41.98 17.28 37.22ZM53.71 54.50C56.38 50.33 59.76 43.92 62.64 38.23L55.44 35.86C53.78 40.90 50.69 47.88 48.17 52.27Z"/></svg>
