<svg xmlns="http://www.w3.org/2000/svg" xmlns:xlink="http://www.w3.org/1999/xlink" width="72.00000000000001" height="106.56000000000002"><path fill="red" stroke="red" d="M34.78 29.74C33.84 32.11 31.97 35.71 30.53 38.02L34.56 39.89C36.07 37.94 37.94 34.78 39.74 31.82ZM41.33 52.49L30.24 52.49L31.61 51.05C30.96 50.62 30.17 50.18 29.38 49.68C33.19 47.59 37.01 45.00 39.89 42.19L36.36 39.60L35.14 39.89L12.82 39.89L16.92 38.23C16.42 36.65 15.19 34.42 13.97 32.76L9.50 34.34C10.66 35.93 11.74 38.23 12.17 39.89L9.79 39.89L9.79 44.14L30.02 44.14C28.37 45.36 26.57 46.51 24.77 47.52C22.68 46.66 20.59 45.79 18.58 45.29L15.55 48.38C18.58 49.46 22.18 51.05 24.98 52.49L6.91 52.49L6.91 89.21L12.53 89.21L12.53 57.67L20.45 57.67C19.15 60.12 16.92 62.35 16.27 62.93C15.55 63.58 14.90 63.86 14.11 64.01C14.62 65.09 15.34 67.32 15.55 68.18C16.63 67.75 18.43 67.39 29.88 66.31C30.38 67.10 30.74 67.75 31.03 68.33L34.27 66.53C33.19 64.51 30.67 61.42 28.51 59.18L25.49 60.77C26.14 61.49 26.78 62.21 27.36 63.00L21.10 63.50C22.54 62.14 23.98 60.34 25.27 58.54L22.75 57.67L35.71 57.67L35.71 82.51C35.71 83.23 35.42 83.38 34.70 83.45C34.13 83.52 32.62 83.52 30.74 83.45L32.33 80.86C31.25 80.14 29.88 79.27 28.22 78.48C30.17 76.18 31.75 73.51 32.83 70.56L30.02 69.34L29.16 69.55L16.20 69.55L16.20 73.15L27.07 73.15C26.28 74.45 25.42 75.60 24.41 76.75C22.46 75.89 20.38 75.10 18.58 74.59L16.56 77.76C18.07 78.34 19.80 78.91 21.46 79.63C19.22 81.58 16.70 83.09 14.18 84.10C15.12 84.82 16.42 86.18 16.99 87.12C19.94 85.82 22.82 83.88 25.42 81.58C27.29 82.44 29.02 83.45 30.24 84.38L30.31 84.31C30.89 85.68 31.61 87.26 31.82 88.42C35.28 88.42 37.51 88.34 39.24 87.41C40.82 86.47 41.33 85.10 41.33 82.58ZM20.23 32.83C21.24 34.78 22.32 37.44 22.75 39.17L27.29 37.44C26.93 35.71 25.78 33.19 24.55 31.32ZM38.38 22.97C30.67 25.34 17.14 27.00 5.54 27.79C6.12 29.09 6.77 31.10 6.84 32.54C18.58 31.90 32.54 30.24 41.69 27.58ZM54.65 82.66C52.56 82.66 52.20 82.08 52.20 78.55L52.20 24.91L46.08 24.91L46.08 78.41C46.08 85.97 47.59 88.13 53.71 88.13L61.42 88.13C67.32 88.13 68.62 84.02 69.19 71.93C67.61 71.57 65.16 70.42 63.72 69.26C63.43 79.99 63.07 82.66 60.98 82.66Z"/></svg>
