<svg xmlns="http://www.w3.org/2000/svg" xmlns:xlink="http://www.w3.org/1999/xlink" width="72.00000000000001" height="106.56000000000002"><path fill="red" stroke="red" d="M16.06 23.40C12.89 33.91 7.63 44.35 1.80 51.12C2.88 52.85 4.68 56.59 5.18 58.25C6.98 56.16 8.71 53.71 10.37 51.12L10.37 89.21L16.70 89.21L16.70 39.38C18.79 34.78 20.74 29.88 22.25 25.20ZM53.86 48.24C55.22 42.05 56.88 34.49 57.96 28.15L23.54 28.15L23.54 34.20L31.18 34.20C30.96 52.34 30.02 73.08 18.29 84.82C20.09 85.90 22.25 87.84 23.47 89.50C36.07 76.46 37.66 54.00 38.09 34.20L50.54 34.20C49.25 41.33 47.52 49.10 46.08 54.36L59.76 54.36C58.82 72.43 57.89 79.70 56.02 81.58C55.22 82.37 54.43 82.51 53.14 82.51C51.48 82.51 47.66 82.51 43.49 82.15C44.71 83.95 45.50 86.69 45.65 88.63C49.82 88.85 53.78 88.85 56.02 88.63C58.54 88.27 60.19 87.70 61.70 85.75C64.30 82.87 65.30 74.16 66.38 51.26C66.46 50.33 66.53 48.24 66.53 48.24Z"/></svg>
