<svg xmlns="http://www.w3.org/2000/svg" xmlns:xlink="http://www.w3.org/1999/xlink" width="72.00000000000001" height="106.56000000000002"><path fill="red" stroke="red" d="M67.39 35.71C65.09 32.40 60.34 27.58 56.23 24.19L51.26 27.36C55.30 30.96 59.98 35.93 62.06 39.24ZM21.82 23.76C17.21 34.85 9.50 45.65 1.51 52.42C2.66 53.93 4.68 57.46 5.33 59.11C8.35 56.38 11.23 53.21 13.97 49.68L13.97 89.06L20.88 89.06L20.88 39.82C23.62 35.35 26.14 30.60 28.15 25.85ZM68.62 48.02L67.75 41.76L46.66 44.42C46.08 38.23 45.72 31.39 45.50 24.19L38.74 24.19C39.02 31.75 39.46 38.81 40.03 45.36L23.90 47.38L24.91 53.71L40.68 51.70C43.42 73.80 49.03 88.06 61.06 89.06C64.87 89.28 68.18 85.75 69.84 72.72C68.54 72.22 65.59 70.42 64.30 69.05C63.65 77.18 62.57 81.14 60.77 81.07C53.93 80.28 49.61 68.40 47.30 50.76Z"/></svg>
