<svg xmlns="http://www.w3.org/2000/svg" xmlns:xlink="http://www.w3.org/1999/xlink" width="72.00000000000001" height="106.56000000000002"><path fill="red" stroke="red" d="M54.00 31.10L48.38 31.10L48.38 71.42L54.00 71.42ZM14.47 23.18C11.88 33.34 7.56 43.42 2.38 50.11C3.46 51.77 4.97 55.58 5.47 57.17C6.91 55.30 8.28 53.28 9.65 50.98L9.65 89.14L15.91 89.14L15.91 38.30C17.64 33.91 19.22 29.38 20.45 24.98ZM38.95 48.67C38.30 53.86 37.15 58.46 35.71 62.64C33.48 60.55 30.17 57.74 27.14 55.51C28.08 53.35 28.94 51.05 29.66 48.67ZM40.61 42.55L31.32 42.55C32.04 39.53 32.69 36.29 33.19 33.05L44.93 33.05L44.93 26.78L21.17 26.78L21.17 33.05L27.07 33.05C25.56 43.63 22.82 53.28 17.78 59.54C19.01 60.91 20.74 63.86 21.38 65.23C22.46 63.86 23.40 62.42 24.34 60.91C27.50 63.50 31.03 66.53 33.12 68.83C29.66 75.74 24.98 80.71 19.37 83.74C20.74 84.96 22.54 87.41 23.33 88.92C35.78 81.36 43.27 67.32 45.58 43.42L41.69 42.41ZM59.90 23.62L59.90 80.71C59.90 82.01 59.40 82.44 58.18 82.44C56.81 82.44 52.49 82.51 47.88 82.30C48.89 84.17 49.90 87.26 50.26 89.06C56.23 89.06 60.41 88.85 62.86 87.77C65.38 86.76 66.24 84.89 66.24 80.71L66.24 23.62Z"/></svg>
