<svg xmlns="http://www.w3.org/2000/svg" xmlns:xlink="http://www.w3.org/1999/xlink" width="72.00000000000001" height="106.56000000000002"><path fill="red" stroke="red" d="M15.98 23.47C12.74 34.20 7.34 44.86 1.51 51.84C2.45 53.57 4.18 57.31 4.75 58.90C6.70 56.59 8.57 53.93 10.37 50.98L10.37 89.21L16.56 89.21L16.56 39.24C18.72 34.63 20.52 29.95 22.03 25.20ZM49.46 55.37L49.46 67.32L40.54 67.32L40.54 55.37ZM54.79 72.94L54.79 49.75L35.28 49.75L35.28 77.33L40.54 77.33L40.54 72.94ZM56.95 38.09L33.41 38.09L33.41 43.63L56.95 43.63ZM66.60 25.99L23.47 25.99L23.47 89.21L29.81 89.21L29.81 32.04L60.26 32.04L60.26 81.14C60.26 82.30 59.83 82.66 58.75 82.73C57.60 82.73 53.93 82.80 50.33 82.58C51.19 84.38 52.13 87.48 52.34 89.28C57.89 89.28 61.42 89.21 63.65 87.98C65.88 86.90 66.60 84.89 66.60 81.22Z"/></svg>
