<svg xmlns="http://www.w3.org/2000/svg" xmlns:xlink="http://www.w3.org/1999/xlink" width="72.00000000000001" height="106.56000000000002"><path fill="red" stroke="red" d="M18.00 23.40C14.47 33.84 8.71 44.35 2.45 51.12C3.53 52.63 5.40 56.09 6.05 57.53C8.06 55.15 10.15 52.49 12.10 49.46L12.10 89.35L18.22 89.35L18.22 38.81C20.38 34.42 22.39 29.74 24.05 25.20ZM57.67 71.21L57.67 81.14L32.40 81.14L32.40 71.21ZM26.71 89.14L32.40 89.14L32.40 86.54L57.67 86.54L57.67 88.92L63.58 88.92L63.58 65.81L26.71 65.81ZM27.72 60.55L62.78 60.55L62.78 55.22L27.72 55.22ZM62.78 45.07L27.72 45.07L27.72 50.40L62.78 50.40ZM44.64 34.63L49.82 32.40C48.74 29.81 46.58 25.92 44.64 23.04L38.88 25.27C40.68 28.15 42.70 32.04 43.70 34.63L22.61 34.63L22.61 40.10L68.26 40.10L68.26 34.63Z"/></svg>
