<svg xmlns="http://www.w3.org/2000/svg" xmlns:xlink="http://www.w3.org/1999/xlink" width="72.00000000000001" height="106.56000000000002"><path fill="red" stroke="red" d="M56.66 25.27C55.22 28.44 52.99 31.97 50.83 34.56C52.27 35.21 54.72 36.29 55.80 37.15C57.96 34.49 60.48 30.31 62.14 26.86ZM37.80 33.62C36.36 31.32 33.48 27.50 31.32 24.70L26.71 27.43C28.87 30.38 31.68 34.42 32.98 36.86ZM18.22 23.47C14.62 33.98 8.64 44.35 2.30 51.12C3.46 52.70 5.40 56.30 5.98 57.89C7.78 55.94 9.50 53.64 11.23 51.26L11.23 89.06L17.57 89.06L17.57 40.97C20.23 35.93 22.61 30.60 24.48 25.34ZM35.28 60.48C36.72 58.61 38.02 56.74 39.17 54.65L51.55 54.65C52.49 56.66 53.64 58.61 55.01 60.48ZM68.18 54.65L68.18 49.25L41.90 49.25C42.84 47.23 43.63 45.00 44.42 42.77L63.86 42.77L63.86 37.44L46.01 37.44C47.09 33.19 48.02 28.66 48.74 23.90L42.19 23.11C41.54 28.30 40.61 33.05 39.31 37.44L25.78 37.44L25.78 42.77L37.66 42.77C36.79 45.00 35.78 47.23 34.78 49.25L21.31 49.25L21.31 54.65L31.46 54.65C28.30 59.04 24.41 62.71 19.66 65.52C21.02 66.82 23.40 69.48 24.19 70.78C26.42 69.34 28.44 67.68 30.31 66.02L30.31 80.06C30.31 86.76 32.54 88.42 40.61 88.42L54.72 88.42C61.27 88.42 63.14 86.26 63.94 77.69C62.28 77.26 59.76 76.32 58.32 75.31C57.96 81.72 57.38 82.80 54.22 82.80L41.11 82.80C37.01 82.80 36.36 82.37 36.36 80.06L36.36 65.81L50.90 65.81L50.90 71.57C50.90 72.22 50.69 72.36 49.97 72.36C49.25 72.43 47.09 72.43 44.50 72.36C45.22 73.87 45.94 75.89 46.15 77.47C50.04 77.47 52.63 77.47 54.50 76.61C56.30 75.67 56.74 74.30 56.74 71.64L56.74 62.86C58.97 65.59 61.49 67.90 64.15 69.55C65.16 68.04 66.96 65.88 68.40 64.73C64.37 62.64 60.55 58.90 57.82 54.65Z"/></svg>
