<svg xmlns="http://www.w3.org/2000/svg" xmlns:xlink="http://www.w3.org/1999/xlink" width="72.00000000000001" height="106.56000000000002"><path fill="red" stroke="red" d="M18.72 23.40C15.05 33.98 8.93 44.42 2.45 51.12C3.53 52.70 5.47 56.30 6.12 57.96C7.92 55.94 9.72 53.64 11.52 51.12L11.52 89.14L17.86 89.14L17.86 41.04C20.59 36.00 23.04 30.60 24.98 25.34ZM32.47 76.54C32.98 74.66 33.48 72.50 33.84 70.63L44.21 70.63L44.21 76.54ZM32.04 51.62L57.17 51.62L57.17 57.10L32.04 57.10ZM50.76 70.63L67.54 70.63L67.54 65.74L50.76 65.74L50.76 61.92L63.36 61.92L63.36 46.80L26.06 46.80L26.06 61.92L44.21 61.92L44.21 65.74L23.40 65.74L23.40 70.63L27.58 70.63C26.78 74.52 25.63 78.77 24.62 81.79L44.21 81.79L44.21 89.21L50.76 89.21L50.76 81.79L68.90 81.79L68.90 76.54L50.76 76.54ZM55.22 33.12L55.22 38.45L40.82 38.45C41.26 36.86 41.76 34.99 42.19 33.12ZM61.63 38.45L61.63 28.08L43.34 28.08C43.63 26.50 43.99 25.06 44.28 23.62L37.94 22.90C37.58 24.55 37.22 26.28 36.79 28.08L25.78 28.08L25.78 33.12L35.64 33.12C35.14 34.99 34.63 36.86 34.20 38.45L21.46 38.45L21.46 43.70L69.05 43.70L69.05 38.45Z"/></svg>
