<svg xmlns="http://www.w3.org/2000/svg" xmlns:xlink="http://www.w3.org/1999/xlink" width="72.00000000000001" height="106.56000000000002"><path fill="red" stroke="red" d="M15.98 23.40C12.82 34.13 7.56 44.93 1.58 51.84C2.74 53.57 4.54 57.31 5.04 58.90C6.91 56.74 8.64 54.14 10.37 51.48L10.37 89.14L16.70 89.14L16.70 39.46C18.79 34.78 20.66 29.88 22.18 25.13ZM38.45 34.85C37.58 37.73 36.50 40.54 35.21 42.98C33.62 41.47 31.61 39.67 29.66 38.16C30.31 37.01 30.89 36.00 31.46 34.85ZM41.47 29.59L40.39 29.81L33.77 29.81C34.49 28.08 35.06 26.42 35.64 24.77L29.95 23.98C28.15 30.24 24.41 37.87 18.58 43.63C19.87 44.42 21.89 45.94 22.82 47.16C24.26 45.65 25.56 44.21 26.71 42.55C28.66 44.28 30.67 46.15 32.18 47.81C29.23 51.84 25.49 54.94 21.38 56.95C22.54 57.96 24.12 60.12 24.91 61.34C34.70 56.09 42.19 46.22 45.07 30.89ZM32.76 70.49C29.66 74.81 24.91 79.78 20.66 83.02C22.10 84.02 24.55 86.26 25.63 87.55C29.95 83.74 35.28 77.76 38.88 72.58ZM50.76 73.66C55.22 77.90 60.55 83.95 63.07 87.77L68.11 83.74C65.52 80.06 60.26 74.45 55.58 70.34ZM48.02 55.44L41.54 55.44L41.54 63.00L21.74 63.00L21.74 68.83L41.54 68.83L41.54 89.21L48.02 89.21L48.02 68.83L68.62 68.83L68.62 63.00L48.02 63.00ZM50.04 46.66C50.83 43.49 51.55 39.96 52.34 36.65L56.16 36.65L56.16 46.66ZM61.85 46.66L61.85 36.65L67.32 36.65L67.32 31.46L61.85 31.46L61.85 24.19L56.16 24.19L56.16 31.46L45.22 31.46L45.22 36.65L47.23 36.65C46.15 41.90 44.71 47.88 43.56 51.91L45.86 51.91L45.86 51.98L56.16 51.98L56.16 60.05L61.85 60.05L61.85 51.98L68.83 51.98L68.83 46.66Z"/></svg>
