<svg xmlns="http://www.w3.org/2000/svg" xmlns:xlink="http://www.w3.org/1999/xlink" width="72.00000000000001" height="106.56000000000002"><path fill="red" stroke="red" d="M18.22 23.40C14.62 33.91 8.57 44.42 2.09 51.19C3.24 52.70 5.18 56.30 5.76 57.96C7.63 55.94 9.36 53.71 11.09 51.34L11.09 89.06L17.42 89.06L17.42 40.97C20.16 36.00 22.61 30.67 24.48 25.34ZM31.68 43.20L41.76 43.20L41.76 49.18L31.68 49.18ZM46.87 33.34C45.86 34.99 44.50 36.79 43.27 38.16L31.03 38.16C32.54 36.58 33.77 34.92 35.06 33.34ZM58.39 49.18L47.81 49.18L47.81 43.20L58.39 43.20ZM61.13 55.22C58.10 57.38 53.21 60.34 48.96 62.50C47.38 59.62 45.36 56.95 42.62 54.79L43.34 54.14L64.58 54.14L64.58 38.16L50.18 38.16C52.13 35.86 54.07 33.26 55.66 30.74L51.77 27.86L50.47 28.22L38.45 28.22C39.24 26.93 39.96 25.63 40.61 24.34L34.42 23.18C31.46 29.09 26.06 36.36 18.43 41.69C19.73 42.62 21.67 44.71 22.54 46.08C23.69 45.22 24.70 44.35 25.78 43.49L25.78 54.14L36.22 54.14C31.46 57.17 25.34 59.90 20.16 61.49C21.31 62.57 22.97 64.44 23.69 65.74C28.44 64.01 33.98 61.13 38.66 57.89C39.67 58.75 40.46 59.69 41.26 60.70C36.58 64.80 27.72 69.12 20.74 71.06C21.89 72.14 23.54 74.09 24.34 75.31C30.60 73.08 38.38 68.83 43.70 64.44C44.21 65.52 44.71 66.53 45.07 67.54C39.67 73.22 29.23 78.62 20.30 81.29C21.60 82.37 23.33 84.53 24.12 85.90C31.61 83.38 40.25 78.48 46.37 73.08C46.80 77.11 46.08 80.57 44.71 81.86C43.85 83.16 42.77 83.38 41.26 83.38C40.03 83.38 38.38 83.30 36.50 83.09C37.44 84.74 37.94 87.19 38.02 88.78C39.67 88.85 41.26 88.92 42.62 88.92C45.36 88.85 47.38 88.27 49.32 86.18C52.56 83.09 53.57 74.81 50.90 66.96C51.62 66.60 52.49 66.24 53.42 65.81C55.87 73.73 59.98 80.93 65.45 84.82C66.31 83.30 68.26 81.00 69.62 79.85C64.51 76.68 60.48 70.34 58.25 63.50C60.84 62.28 63.43 60.84 65.74 59.47Z"/></svg>
