<svg xmlns="http://www.w3.org/2000/svg" xmlns:xlink="http://www.w3.org/1999/xlink" width="72.00000000000001" height="106.56000000000002"><path fill="red" stroke="red" d="M48.24 35.28L41.62 35.28L41.62 31.54L48.24 31.54ZM60.12 39.31L60.12 45.36L53.64 45.36L53.64 39.31ZM41.62 39.31L48.24 39.31L48.24 45.36L41.62 45.36ZM30.02 39.31L36.29 39.31L36.29 45.36L30.02 45.36ZM36.29 35.28L24.19 35.28L24.19 49.46L66.17 49.46L66.17 35.28L53.64 35.28L53.64 31.54L68.40 31.54L68.40 26.50L22.68 26.50L22.68 31.54L36.29 31.54ZM16.34 23.40C13.03 34.20 7.49 44.86 1.51 51.84C2.52 53.50 4.25 57.24 4.82 58.90C6.84 56.59 8.71 53.93 10.58 50.98L10.58 89.14L16.92 89.14L16.92 39.31C19.08 34.70 20.95 29.88 22.54 25.13ZM31.75 71.06L58.90 71.06L58.90 74.66L31.75 74.66ZM31.75 63.72L58.90 63.72L58.90 67.25L31.75 67.25ZM31.75 56.52L58.90 56.52L58.90 59.98L31.75 59.98ZM65.45 78.62L65.45 52.49L25.49 52.49L25.49 78.62L36.94 78.62C33.12 81.07 26.35 83.45 20.23 84.67C21.46 85.82 23.04 87.98 23.83 89.28C30.24 87.77 37.30 85.10 41.76 81.86L37.15 78.62ZM48.31 82.44C54.29 84.53 60.55 87.26 64.08 89.35L69.84 85.54C65.74 83.45 58.75 80.71 52.56 78.70Z"/></svg>
