<svg xmlns="http://www.w3.org/2000/svg" xmlns:xlink="http://www.w3.org/1999/xlink" width="72.00000000000001" height="106.56000000000002"><path fill="red" stroke="red" d="M23.04 69.70C19.15 74.81 11.38 80.86 4.46 84.53C6.05 85.68 8.50 87.84 9.86 89.21C16.99 85.18 24.91 78.55 30.10 72.43ZM41.69 72.94C48.24 77.90 56.88 84.96 60.98 89.14L67.46 85.25C62.86 80.86 54.07 74.16 47.59 69.48ZM26.71 44.06L45.29 44.06L45.29 59.62L26.71 59.62ZM52.27 59.62L52.27 44.06L66.10 44.06L66.10 37.58L52.27 37.58L52.27 23.69L45.29 23.69L45.29 37.58L26.71 37.58L26.71 23.69L19.80 23.69L19.80 37.58L6.48 37.58L6.48 44.06L19.80 44.06L19.80 59.62L3.74 59.62L3.74 66.17L68.47 66.17L68.47 59.62Z"/></svg>
