<svg xmlns="http://www.w3.org/2000/svg" xmlns:xlink="http://www.w3.org/1999/xlink" width="72.00000000000001" height="106.56000000000002"><path fill="red" stroke="red" d="M25.63 40.54L47.02 40.54L47.02 37.94C49.46 40.10 52.13 42.12 55.01 43.78L17.42 43.78C20.30 42.05 23.11 40.10 25.63 37.94ZM49.75 51.91L22.54 51.91L22.54 47.88L49.75 47.88ZM29.45 61.63C28.73 59.98 27.36 57.74 26.06 56.02L45.79 56.02C45.00 57.67 43.70 59.90 42.62 61.63ZM16.34 56.02L23.76 56.02L19.94 57.17C20.95 58.46 21.96 60.12 22.75 61.63L5.33 61.63L5.33 66.60L66.67 66.60L66.67 61.63L49.32 61.63C50.26 60.34 51.19 58.90 52.13 57.38L46.44 56.02L56.30 56.02L56.30 44.57C59.04 46.08 61.99 47.38 65.09 48.46C65.95 46.87 67.82 44.57 69.05 43.34C65.16 42.26 61.42 40.68 57.89 38.66C60.70 37.15 63.86 35.21 66.46 33.26L61.99 30.10C59.90 31.90 56.59 34.27 53.71 35.93C52.20 34.85 50.83 33.77 49.46 32.54C52.49 30.96 56.02 28.66 59.04 26.42L54.65 23.18C52.49 25.06 49.18 27.58 46.30 29.38C44.64 27.43 43.13 25.27 41.98 23.11L36.72 24.91C38.95 29.09 41.90 32.83 45.29 36.22L27.43 36.22C30.24 33.55 32.62 30.60 34.34 27.43L30.24 25.13L29.23 25.34L7.78 25.34L7.78 30.31L25.42 30.31C23.62 32.33 21.38 34.34 18.94 36.14C17.06 34.56 14.47 32.62 12.24 31.32L8.78 34.20C10.80 35.50 13.10 37.30 14.83 38.88C11.02 41.26 6.84 43.13 2.88 44.42C4.03 45.50 5.69 47.66 6.55 49.03C9.79 47.81 13.10 46.22 16.34 44.42ZM54.72 82.44C52.70 82.44 52.34 82.22 52.34 80.50L52.34 69.62L18.94 69.62L18.94 74.09C18.94 78.05 16.63 81.22 3.46 83.38C4.46 84.53 6.41 87.55 6.98 89.06C21.38 86.26 25.34 80.93 25.49 74.74L45.86 74.74L45.86 80.57C45.86 86.26 47.66 87.84 53.78 87.84L61.70 87.84C66.74 87.84 68.33 85.75 68.90 77.76C67.25 77.33 64.66 76.46 63.36 75.46C63.14 81.58 62.78 82.44 61.06 82.44Z"/></svg>
