<svg xmlns="http://www.w3.org/2000/svg" xmlns:xlink="http://www.w3.org/1999/xlink" width="72.00000000000001" height="106.56000000000002"><path fill="red" stroke="red" d="M12.96 32.33L29.09 32.33L29.09 44.42L12.96 44.42ZM20.30 57.24C20.59 54.94 20.74 52.63 20.88 50.33L35.57 50.33L35.57 26.42L6.84 26.42L6.84 50.33L14.33 50.33C13.68 62.86 12.10 76.82 2.45 84.60C4.10 85.61 6.05 87.70 7.06 89.28C14.62 82.94 17.93 73.37 19.58 63.22L29.66 63.22C29.09 76.18 28.37 81.29 27.14 82.58C26.64 83.30 25.92 83.38 24.77 83.38C23.54 83.38 20.38 83.38 17.06 83.02C18.14 84.67 18.79 87.12 18.94 88.92C22.39 89.06 25.78 89.06 27.65 88.78C29.81 88.56 31.25 88.13 32.54 86.47C34.49 84.24 35.21 77.54 36.00 59.98C36.07 59.11 36.07 57.24 36.07 57.24ZM48.46 31.75L41.98 31.75L41.98 71.50L48.46 71.50ZM59.18 24.55L59.18 80.71C59.18 82.01 58.68 82.44 57.31 82.51C55.87 82.51 51.34 82.58 46.44 82.37C47.45 84.31 48.46 87.41 48.82 89.21C55.37 89.28 59.69 89.06 62.35 88.06C64.87 86.83 65.88 84.89 65.88 80.71L65.88 24.55Z"/></svg>
