<svg xmlns="http://www.w3.org/2000/svg" xmlns:xlink="http://www.w3.org/1999/xlink" width="72.00000000000001" height="106.56000000000002"><path fill="red" stroke="red" d="M13.75 41.76L34.20 41.76L34.20 47.30L13.75 47.30ZM13.75 31.32L34.20 31.32L34.20 36.65L13.75 36.65ZM17.35 57.74C18.43 56.02 19.37 54.43 20.16 52.70L40.75 52.70L40.75 25.92L7.49 25.92L7.49 52.70L13.61 52.70C11.02 57.82 6.70 63.07 2.09 66.60C3.24 67.54 5.18 69.34 6.12 70.49C8.71 68.54 11.09 66.02 13.32 63.29L18.07 63.29C14.54 69.62 9.22 75.89 4.18 79.27C5.69 80.21 7.34 81.72 8.35 83.09C14.04 78.70 20.02 70.78 23.62 63.29L27.50 63.29C24.62 71.78 19.80 80.35 14.18 84.67C15.77 85.54 17.57 87.12 18.72 88.34C24.62 83.02 29.95 72.79 32.62 63.29L36.36 63.29C35.35 75.82 34.34 80.78 32.98 82.22C32.33 82.94 31.68 83.02 30.60 83.02C29.52 83.02 27.00 83.02 24.26 82.73C25.20 84.24 25.78 86.54 25.85 88.27C28.87 88.42 31.75 88.42 33.41 88.20C35.28 88.06 36.65 87.48 37.94 85.97C40.03 83.66 41.26 77.11 42.48 60.26C42.55 59.47 42.62 57.74 42.62 57.74ZM53.42 31.03L47.16 31.03L47.16 70.85L53.42 70.85ZM59.98 24.26L59.98 80.86C59.98 82.08 59.47 82.44 58.32 82.44C57.17 82.51 53.35 82.51 49.32 82.37C50.18 84.24 51.12 87.19 51.41 88.99C57.17 88.99 60.91 88.85 63.22 87.70C65.45 86.62 66.38 84.67 66.38 80.86L66.38 24.26Z"/></svg>
