<svg xmlns="http://www.w3.org/2000/svg" xmlns:xlink="http://www.w3.org/1999/xlink" width="72.00000000000001" height="106.56000000000002"><path fill="red" stroke="red" d="M12.96 80.93L12.96 31.32L66.89 31.32L66.89 25.70L6.41 25.70L6.41 86.47L10.58 86.47L10.58 86.54L68.26 86.54L68.26 80.93ZM48.17 50.62L38.95 50.62L38.95 45.65L48.17 45.65ZM48.17 60.41L38.95 60.41L38.95 55.44L48.17 55.44ZM48.17 70.63L38.95 70.63L38.95 65.23L48.17 65.23ZM38.95 78.62L38.95 75.89L66.17 75.89L66.17 70.63L54.22 70.63L54.22 65.23L63.72 65.23L63.72 60.41L54.22 60.41L54.22 55.44L63.72 55.44L63.72 50.62L54.22 50.62L54.22 45.65L65.95 45.65L65.95 40.39L56.52 40.39C55.73 38.09 54.29 34.99 52.85 32.76L46.94 34.42C47.88 36.29 48.89 38.38 49.68 40.39L39.96 40.39C41.11 38.09 42.05 35.71 42.91 33.34L37.44 31.75C34.92 38.95 30.82 45.94 26.06 50.69C23.76 48.74 19.87 46.51 16.70 45.07L13.25 49.03C16.78 50.76 20.95 53.57 23.04 55.73L25.92 52.27C27.00 53.57 28.44 55.51 29.09 56.52C30.46 55.15 31.75 53.57 33.05 51.91L33.05 78.62ZM20.02 78.12C23.04 73.30 26.28 67.46 28.87 62.42L24.98 58.32C21.96 64.01 18.07 70.13 15.41 73.87ZM30.02 38.45C27.86 36.43 23.69 33.77 20.38 32.26L16.78 36.14C20.16 37.94 24.26 40.68 26.21 42.77Z"/></svg>
