<svg xmlns="http://www.w3.org/2000/svg" xmlns:xlink="http://www.w3.org/1999/xlink" width="72.00000000000001" height="106.56000000000002"><path fill="red" stroke="red" d="M40.54 32.47L40.54 40.03L32.26 40.03L32.26 32.47ZM32.26 53.21L32.26 45.58L40.54 45.58L40.54 53.21ZM36.36 63.65C37.30 65.88 38.23 68.40 39.17 70.85L32.26 73.66L32.26 58.97L45.79 58.97L45.79 26.78L26.64 26.78L26.64 26.86L21.67 24.55C18.07 27.00 11.23 29.16 6.12 30.53L6.12 62.06C6.12 65.23 4.46 67.18 3.31 68.04C4.32 69.19 5.76 71.64 6.26 73.08C7.20 72.22 8.64 71.14 16.20 67.75C14.76 74.16 11.38 80.50 3.82 85.46C4.90 86.26 6.84 88.34 7.49 89.50C20.59 81.07 22.68 67.39 22.68 56.81L22.68 37.51L17.28 37.51L17.28 56.74C17.28 58.39 17.21 60.19 17.06 61.99L11.59 64.08L11.59 34.63C16.70 32.90 22.46 30.31 26.64 27.29L26.64 72.79C26.64 75.89 24.34 77.98 22.97 78.77C23.98 79.92 25.34 82.44 25.92 83.88C27.14 82.73 29.02 81.36 40.75 75.96C41.69 78.91 42.34 81.72 42.70 83.88L47.66 82.15C46.87 76.97 43.99 68.69 41.04 62.21ZM66.96 26.86L49.25 26.86L49.25 89.06L54.94 89.06L54.94 32.62L61.34 32.62L61.34 71.06C61.34 71.78 61.13 72.00 60.48 72.07C59.90 72.07 58.18 72.07 56.30 72.00C57.17 73.51 57.89 76.10 58.10 77.62C61.27 77.62 63.36 77.47 65.02 76.46C66.60 75.53 66.96 73.80 66.96 71.21Z"/></svg>
