<svg xmlns="http://www.w3.org/2000/svg" xmlns:xlink="http://www.w3.org/1999/xlink" width="72.00000000000001" height="106.56000000000002"><path fill="red" stroke="red" d="M53.78 43.49L17.86 43.49L17.86 32.69L53.78 32.69ZM60.84 26.35L11.23 26.35L11.23 49.75L60.84 49.75ZM37.08 59.26C37.44 57.02 37.80 54.65 38.02 52.27L30.89 52.27C30.60 54.65 30.31 57.02 29.95 59.26L6.70 59.26L6.70 65.30L28.37 65.30C25.49 73.51 19.15 79.78 3.38 83.30C4.82 84.67 6.55 87.41 7.20 89.21C25.49 84.60 32.54 76.18 35.71 65.30L56.38 65.30C55.58 75.67 54.65 80.21 53.28 81.50C52.49 82.22 51.62 82.30 50.26 82.30C48.53 82.30 44.14 82.30 39.89 81.86C41.11 83.74 41.98 86.47 42.19 88.49C46.58 88.63 50.83 88.70 53.14 88.49C55.80 88.27 57.60 87.70 59.18 85.97C61.49 83.59 62.57 77.33 63.50 62.21C63.65 61.20 63.72 59.26 63.72 59.26Z"/></svg>
