<svg xmlns="http://www.w3.org/2000/svg" xmlns:xlink="http://www.w3.org/1999/xlink" width="72.00000000000001" height="106.56000000000002"><path fill="red" stroke="red" d="M51.98 65.95L51.98 79.27L20.81 79.27L20.81 65.95ZM14.04 89.06L20.81 89.06L20.81 85.46L51.98 85.46L51.98 88.78L59.04 88.78L59.04 59.98L14.04 59.98ZM22.18 46.30C27.36 42.70 32.26 38.52 36.43 33.91C41.54 38.95 46.51 42.91 51.77 46.30ZM36.94 22.90C29.59 33.98 16.27 43.13 2.88 48.38C4.75 50.04 6.62 52.56 7.78 54.36C11.30 52.85 14.76 50.90 18.14 48.89L18.14 52.49L54.00 52.49L54.00 47.74C57.60 49.90 61.27 51.77 65.09 53.64C66.02 51.48 67.97 49.03 69.77 47.52C59.11 43.27 49.32 37.80 40.54 29.16C41.40 28.08 42.12 27.00 42.84 25.92Z"/></svg>
