<svg xmlns="http://www.w3.org/2000/svg" xmlns:xlink="http://www.w3.org/1999/xlink" width="72.00000000000001" height="106.56000000000002"><path fill="red" stroke="red" d="M18.94 36.00L18.94 65.09L11.16 65.09L11.16 36.00ZM24.98 71.57L24.98 29.52L5.18 29.52L5.18 77.18L11.16 77.18L11.16 71.57ZM57.02 82.01C55.44 82.01 55.22 81.65 55.22 79.34L55.22 51.70L60.19 51.19C61.27 53.21 62.21 55.08 62.93 56.59L68.90 53.14C66.24 47.88 60.70 38.95 56.45 32.40L50.90 35.21C52.85 38.38 55.01 42.05 57.10 45.58L35.78 47.38C40.39 41.04 44.93 32.98 48.53 24.98L41.33 22.61C38.09 31.75 32.47 41.47 30.60 43.85C28.94 46.44 27.58 48.17 26.06 48.53C26.86 50.33 28.01 53.71 28.37 55.22C29.59 54.72 31.03 54.36 36.07 53.71C35.35 68.76 33.34 78.55 19.15 83.95C20.59 85.25 22.61 87.77 23.33 89.50C39.46 82.87 42.12 70.85 42.91 52.92L48.67 52.34L48.67 79.34C48.67 86.04 50.04 88.06 55.87 88.06L61.99 88.06C67.18 88.06 68.76 84.89 69.34 73.80C67.61 73.30 64.87 72.22 63.50 71.06C63.29 80.28 62.93 82.01 61.42 82.01Z"/></svg>
