<svg xmlns="http://www.w3.org/2000/svg" xmlns:xlink="http://www.w3.org/1999/xlink" width="72.00000000000001" height="106.56000000000002"><path fill="red" stroke="red" d="M32.76 35.57L61.99 35.57L61.99 42.48L68.04 42.48L68.04 30.10L51.48 30.10C50.54 27.94 49.18 25.13 48.10 23.04L41.69 24.77C42.41 26.42 43.27 28.30 43.99 30.10L26.93 30.10L26.93 42.48L32.76 42.48ZM18.50 35.14L18.50 68.90L11.16 68.90L11.16 35.14ZM23.90 29.45L5.54 29.45L5.54 80.42L11.16 80.42L11.16 74.66L23.90 74.66ZM39.96 47.16L54.29 47.16C52.42 49.75 50.11 52.13 47.38 54.14C44.42 52.13 41.83 49.75 39.82 47.23ZM55.87 72.79L55.87 81.72L37.73 81.72L37.73 72.79ZM59.18 41.83L58.03 42.05L43.56 42.05C44.35 40.68 45.00 39.31 45.65 37.87L39.67 36.86C37.44 42.12 32.83 47.95 25.56 52.06C26.78 52.85 28.73 54.94 29.59 56.23C32.04 54.72 34.20 52.99 36.14 51.26C37.94 53.42 40.10 55.44 42.55 57.31C37.08 60.41 30.82 62.64 24.19 64.08C25.42 65.30 27.22 67.97 27.86 69.48C29.23 69.12 30.46 68.83 31.82 68.40L31.82 89.06L37.73 89.06L37.73 87.05L55.87 87.05L55.87 88.99L62.06 88.99L62.06 67.54L34.27 67.54C39.10 65.81 43.70 63.65 47.88 60.91C53.71 64.51 60.48 67.25 67.39 68.98C67.75 67.25 68.69 64.58 69.62 63.00C63.65 61.85 57.82 59.83 52.85 57.31C57.10 53.71 60.55 49.39 63.07 44.28Z"/></svg>
