<svg xmlns="http://www.w3.org/2000/svg" xmlns:xlink="http://www.w3.org/1999/xlink" width="72.00000000000001" height="106.56000000000002"><path fill="red" stroke="red" d="M56.30 30.60L51.05 30.60L51.05 69.91L56.30 69.91ZM16.13 35.86L16.13 64.22L10.58 64.22L10.58 35.86ZM21.24 70.42L21.24 29.66L5.33 29.66L5.33 77.04L10.58 77.04L10.58 70.42ZM28.87 47.02L33.34 47.02L33.34 58.18L28.87 58.18ZM42.55 58.18L37.87 58.18L37.87 47.02L42.55 47.02ZM38.45 63.07L47.23 63.07L47.23 42.05L38.52 42.05L38.52 36.65L48.10 36.65L48.10 31.10L38.52 31.10L38.52 23.33L32.62 23.33L32.62 31.10L23.26 31.10L23.26 36.65L32.62 36.65L32.62 42.05L24.26 42.05L24.26 63.07L31.75 63.07C28.80 69.70 23.69 76.61 18.65 80.42C19.58 81.94 21.02 84.53 21.60 86.26C25.63 82.94 29.59 77.54 32.69 71.86L32.69 89.21L38.45 89.21L38.45 70.27C41.04 73.08 43.92 76.39 45.29 78.26L49.32 73.37C47.74 71.78 41.04 65.74 38.45 63.72ZM60.55 24.12L60.55 81.58C60.55 82.66 60.19 82.94 59.18 83.02C58.10 83.09 54.79 83.09 51.12 82.94C52.06 84.60 52.99 87.55 53.28 89.21C58.10 89.21 61.49 88.92 63.58 87.84C65.59 86.83 66.38 85.03 66.38 81.58L66.38 24.12Z"/></svg>
