<svg xmlns="http://www.w3.org/2000/svg" xmlns:xlink="http://www.w3.org/1999/xlink" width="72.00000000000001" height="106.56000000000002"><path fill="red" stroke="red" d="M18.94 35.93L18.94 62.93L11.23 62.93L11.23 35.93ZM24.98 69.19L24.98 29.66L5.26 29.66L5.26 75.46L11.23 75.46L11.23 69.19ZM27.36 86.69C30.53 82.58 32.04 75.60 32.98 69.70L27.94 68.18C27.14 73.94 25.42 80.35 22.61 84.24ZM35.50 69.48C36.65 74.16 37.22 79.99 37.01 83.81L41.76 83.02C41.90 79.20 41.26 73.37 40.10 68.76ZM43.42 68.98C45.07 72.86 46.66 77.98 47.02 81.29L51.48 79.92C50.98 76.61 49.39 71.50 47.59 67.68ZM59.47 76.10C58.82 73.44 56.88 69.41 55.01 66.46L51.26 67.82C52.99 70.85 54.86 74.95 55.51 77.69ZM35.93 53.78L45.43 53.78L45.43 59.54L35.93 59.54ZM45.43 31.97L45.43 37.58L35.93 37.58L35.93 31.97ZM45.43 48.46L35.93 48.46L35.93 42.84L45.43 42.84ZM51.70 59.54L51.70 53.78L64.15 53.78L64.15 48.46L51.70 48.46L51.70 42.84L64.15 42.84L64.15 37.58L51.70 37.58L51.70 31.97L65.81 31.97L65.81 26.21L29.59 26.21L29.59 65.23L61.56 65.23C60.91 76.97 60.12 81.50 58.97 82.80C58.46 83.52 57.82 83.59 56.81 83.59C55.66 83.59 53.28 83.59 50.54 83.30C51.41 84.82 51.98 87.34 52.13 89.06C55.30 89.14 58.18 89.14 59.83 88.92C61.78 88.70 62.93 88.20 64.22 86.76C66.02 84.60 66.89 78.26 67.75 62.06C67.82 61.27 67.82 59.54 67.82 59.54Z"/></svg>
