<svg xmlns="http://www.w3.org/2000/svg" xmlns:xlink="http://www.w3.org/1999/xlink" width="72.00000000000001" height="106.56000000000002"><path fill="red" stroke="red" d="M18.14 46.37L26.21 46.37L26.21 40.03L18.14 40.03L18.14 23.98L11.88 23.98L11.88 40.03L3.67 40.03L3.67 46.37L11.88 46.37L11.88 69.77C8.35 71.21 5.18 72.43 2.59 73.37L5.26 80.14C11.59 77.26 19.73 73.51 27.29 69.84L25.70 63.94C23.18 64.94 20.59 66.10 18.14 67.18ZM44.86 48.10L44.86 63.43L36.07 63.43L36.07 48.10ZM50.47 69.34L50.47 42.19L30.46 42.19L30.46 73.87L36.07 73.87L36.07 69.34ZM69.19 27.94L26.50 27.94L26.50 34.49L57.02 34.49L57.02 80.57C57.02 82.01 56.52 82.44 55.08 82.44C53.42 82.51 48.17 82.58 42.84 82.30C43.85 84.24 45.00 87.34 45.36 89.21C52.20 89.28 57.02 89.14 59.90 87.98C62.78 86.98 63.86 85.03 63.86 80.64L63.86 34.49L69.19 34.49Z"/></svg>
