<svg xmlns="http://www.w3.org/2000/svg" xmlns:xlink="http://www.w3.org/1999/xlink" width="72.00000000000001" height="106.56000000000002"><path fill="red" stroke="red" d="M25.70 47.59C24.70 50.33 23.04 54.07 21.46 56.95L12.96 56.95L16.42 55.80C15.91 53.64 14.54 50.18 13.03 47.59ZM22.61 62.64L33.41 62.64L33.41 56.95L27.29 56.95C28.66 54.50 30.17 51.48 31.54 48.82L26.86 47.59L34.78 47.59L34.78 41.90L22.61 41.90L22.61 35.71L33.05 35.71L33.05 30.10L22.61 30.10L22.61 23.33L16.42 23.33L16.42 30.10L5.62 30.10L5.62 35.71L16.42 35.71L16.42 41.90L3.53 41.90L3.53 47.59L12.46 47.59L7.99 48.96C9.29 51.41 10.58 54.65 11.09 56.95L5.04 56.95L5.04 62.64L16.42 62.64L16.42 69.55L3.53 69.55L3.53 75.24L16.42 75.24L16.42 88.92L22.61 88.92L22.61 75.24L34.85 75.24L34.85 69.55L22.61 69.55ZM43.27 56.45C45.29 63.29 48.10 69.62 51.62 75.02C49.25 78.34 46.44 81.22 43.27 83.59ZM60.12 56.09C59.04 60.77 57.38 65.30 55.08 69.48C52.49 65.45 50.33 60.91 48.74 56.09ZM63.22 50.40L62.06 50.69L43.27 50.69L43.27 32.26L59.40 32.26L59.40 39.89C59.40 40.68 59.11 40.90 57.96 40.97C56.95 41.04 53.14 41.04 49.03 40.90C49.90 42.48 50.76 44.93 51.05 46.66C56.45 46.66 60.12 46.66 62.50 45.65C64.94 44.78 65.59 43.06 65.59 39.96L65.59 26.35L37.15 26.35L37.15 89.06L43.27 89.06L43.27 86.18C44.35 87.19 45.36 88.27 46.01 89.28C49.61 86.83 52.78 83.81 55.44 80.28C58.39 83.74 61.70 86.62 65.38 88.70C66.38 87.05 68.33 84.53 69.84 83.38C65.81 81.36 62.28 78.41 59.11 74.88C63.14 68.11 65.81 60.26 67.32 51.91Z"/></svg>
