<svg xmlns="http://www.w3.org/2000/svg" xmlns:xlink="http://www.w3.org/1999/xlink" width="72.00000000000001" height="106.56000000000002"><path fill="red" stroke="red" d="M51.62 59.04L51.62 54.79L58.39 54.79L58.39 59.04ZM51.62 45.79L58.39 45.79L58.39 50.11L51.62 50.11ZM58.61 81.43L40.46 81.43L40.46 73.58L58.61 73.58ZM64.15 40.97L51.62 40.97L51.62 37.08L45.72 37.08L45.72 40.97L35.64 40.97L35.64 45.79L45.72 45.79L45.72 50.11L33.34 50.11L33.34 54.79L45.72 54.79L45.72 59.04L35.35 59.04L35.35 63.79L45.72 63.79L45.72 68.18L34.63 68.18L34.63 89.14L40.46 89.14L40.46 86.76L58.61 86.76L58.61 89.14L64.66 89.14L64.66 68.18L51.62 68.18L51.62 63.79L64.15 63.79L64.15 55.15L68.40 55.15L68.40 49.61L64.15 49.61ZM51.70 30.17C50.83 27.94 49.25 24.84 47.81 22.46L41.40 24.19C42.41 25.99 43.56 28.22 44.35 30.17L27.14 30.17L27.14 51.62C27.14 57.31 26.93 64.15 25.63 70.63L24.34 64.73L17.28 67.61L17.28 46.73L25.13 46.73L25.13 40.39L17.28 40.39L17.28 24.05L11.09 24.05L11.09 40.39L3.17 40.39L3.17 46.73L11.09 46.73L11.09 70.13C7.92 71.42 4.97 72.50 2.52 73.37L4.75 80.14C10.80 77.47 18.43 74.09 25.56 70.78C24.55 76.03 22.68 81.22 19.66 85.54C21.02 86.18 23.62 87.91 24.70 88.92C31.90 78.55 32.98 62.86 32.98 51.62L32.98 35.93L68.62 35.93L68.62 30.17Z"/></svg>
