<svg xmlns="http://www.w3.org/2000/svg" xmlns:xlink="http://www.w3.org/1999/xlink" width="72.00000000000001" height="106.56000000000002"><path fill="red" stroke="red" d="M48.31 46.87C45.72 55.44 42.19 62.14 37.15 67.39C32.33 65.23 27.36 63.07 22.46 61.13C24.41 56.95 26.64 52.06 28.66 46.87ZM67.82 46.87L67.82 39.67L57.60 39.67C57.89 37.94 58.25 36.22 58.54 34.42L51.48 32.76C51.05 35.14 50.62 37.51 50.18 39.67L31.46 39.67C33.48 34.27 35.21 28.73 36.58 23.62L29.38 22.54C27.94 27.86 25.99 33.84 23.69 39.67L4.54 39.67L4.54 46.87L20.74 46.87C18.00 53.42 15.05 59.54 12.31 64.30C18.72 66.74 25.13 69.62 31.18 72.50C24.41 77.18 15.62 80.35 4.03 82.44C5.69 84.17 7.34 86.98 8.06 88.92C21.24 86.26 31.10 82.15 38.59 76.10C47.66 80.64 55.58 85.32 61.42 89.28L66.74 83.02C60.98 79.27 52.99 74.95 44.21 70.70C49.54 64.51 53.21 56.74 55.87 46.87Z"/></svg>
