<svg xmlns="http://www.w3.org/2000/svg" xmlns:xlink="http://www.w3.org/1999/xlink" width="72.00000000000001" height="106.56000000000002"><path fill="red" stroke="red" d="M20.02 43.85C19.94 50.47 19.30 58.39 16.27 66.17C14.26 64.22 12.17 62.42 10.22 60.62C11.30 55.87 12.53 50.18 13.54 44.28ZM28.08 78.62C26.35 76.32 23.76 73.51 20.74 70.49C24.77 61.13 25.56 51.55 25.63 43.49L28.73 43.27L28.73 37.51L25.63 37.73L25.63 33.19L20.02 33.19L20.02 38.02L14.47 38.30C15.19 33.19 15.84 28.22 16.27 23.69L10.58 23.47C10.22 28.15 9.58 33.34 8.78 38.59C6.55 38.66 4.54 38.74 2.66 38.81L3.31 44.93L7.78 44.64C6.62 51.41 5.26 57.74 3.96 62.50C6.98 65.23 10.37 68.47 13.61 71.71C11.09 76.32 7.49 80.71 2.52 84.60C3.89 85.46 5.83 87.48 6.77 88.70C11.52 84.82 15.05 80.57 17.78 76.10C20.45 78.91 22.68 81.58 24.19 83.81ZM37.44 48.82L57.74 48.82L57.74 55.87L37.44 55.87ZM57.74 36.65L57.74 43.20L37.44 43.20L37.44 36.65ZM63.36 62.93C61.06 65.02 57.31 67.68 54.00 69.84C52.27 67.32 50.90 64.58 49.68 61.70L64.30 61.70L64.30 30.89L51.84 30.89C50.98 28.44 49.46 25.20 48.02 22.61L42.12 24.26C43.13 26.21 44.14 28.73 44.93 30.89L31.03 30.89L31.03 77.76C31.03 81.22 29.02 83.52 27.65 84.53C28.80 85.54 30.46 87.98 31.03 89.35C32.47 88.27 34.70 87.34 48.46 82.66C48.10 81.29 47.74 78.77 47.66 76.97L37.44 80.14L37.44 61.70L43.34 61.70C47.52 73.58 54.79 83.02 64.94 87.84C65.95 86.11 67.90 83.66 69.41 82.37C64.87 80.64 60.91 77.76 57.60 74.23C60.91 72.29 64.80 69.77 67.68 67.32Z"/></svg>
