<svg xmlns="http://www.w3.org/2000/svg" xmlns:xlink="http://www.w3.org/1999/xlink" width="72.00000000000001" height="106.56000000000002"><path fill="red" stroke="red" d="M16.20 55.30L16.20 56.95C15.84 53.28 14.69 47.88 13.61 43.56L10.30 44.28C11.30 48.60 12.38 54.14 12.82 57.89L16.20 57.02C16.13 59.33 16.06 61.63 15.84 63.94L10.22 66.17L10.22 34.34C14.69 32.33 19.58 29.74 23.33 27.07L18.07 23.11C15.19 25.78 10.22 29.02 5.54 31.18L5.54 65.74C5.54 68.33 4.54 68.98 3.67 69.34C4.39 70.78 5.26 73.30 5.54 74.74C6.34 73.80 7.78 72.86 14.90 69.26C13.61 75.53 10.73 81.43 4.75 86.40C5.90 87.12 7.63 88.63 8.42 89.64C19.44 80.28 20.81 67.75 20.81 55.30L20.81 35.14L16.20 35.14ZM28.01 43.56L28.01 34.34L33.70 34.34L33.70 53.28C32.83 49.97 31.75 46.08 30.67 42.84ZM38.52 29.02L23.33 29.02L23.33 89.28L28.01 89.28L28.01 46.51C29.16 50.40 30.31 54.79 30.74 57.82L33.70 57.02L33.70 70.06C33.70 70.70 33.55 70.92 32.90 70.92C32.26 70.99 30.60 70.99 28.66 70.92C29.38 72.36 30.02 74.59 30.17 76.03C33.05 76.03 35.21 75.96 36.65 75.02C38.16 74.09 38.52 72.58 38.52 70.06ZM66.24 23.54C59.69 25.63 48.82 27.22 39.46 28.08C40.10 29.52 40.82 31.61 40.97 32.98C50.33 32.47 61.70 31.03 69.34 28.73ZM62.86 47.52C64.58 43.92 66.46 38.45 68.18 33.62L62.78 32.47C61.92 36.50 59.98 42.62 58.32 46.44ZM57.02 45.14C56.74 42.12 55.73 37.44 54.79 33.84L50.40 34.70C51.26 38.30 52.20 43.06 52.56 46.15ZM50.04 45.72C49.03 42.84 47.16 38.30 45.36 34.85L40.97 36.22C42.62 39.82 44.64 44.42 45.36 47.38ZM57.10 62.06C60.55 59.04 64.22 55.15 66.74 51.48L62.93 48.82L61.92 49.18L42.12 49.18L42.12 54.43L57.38 54.43C55.51 56.66 53.21 58.82 51.12 60.41L51.12 65.74L40.32 65.74L40.32 71.42L51.12 71.42L51.12 82.30C51.12 83.02 50.90 83.23 49.97 83.30C49.10 83.38 46.01 83.30 42.77 83.23C43.56 84.89 44.42 87.34 44.64 88.99C49.10 88.99 52.27 88.92 54.43 87.98C56.52 87.12 57.10 85.39 57.10 82.37L57.10 71.42L68.54 71.42L68.54 65.74L57.10 65.74Z"/></svg>
