<svg xmlns="http://www.w3.org/2000/svg" xmlns:xlink="http://www.w3.org/1999/xlink" width="72.00000000000001" height="106.56000000000002"><path fill="red" stroke="red" d="M68.62 49.54C68.18 46.73 66.60 42.19 65.02 38.81L61.13 39.74C61.78 41.18 62.42 42.84 62.93 44.42L55.44 45.29C59.47 41.11 63.65 35.86 67.39 30.46L62.78 28.58C61.78 30.31 60.55 32.11 59.33 33.77L54.07 34.06C56.38 31.32 58.75 27.72 60.84 24.19L56.16 22.54C54.29 26.93 50.90 31.32 49.90 32.33C48.89 33.55 48.02 34.27 47.09 34.42C47.59 35.64 48.31 37.87 48.60 38.88C49.39 38.52 50.83 38.23 56.23 37.80C54.22 40.32 52.34 42.34 51.41 43.06C49.75 44.86 48.31 45.94 47.09 46.22C47.59 47.38 48.31 49.68 48.53 50.62C49.68 50.11 51.62 49.68 63.94 48.02C64.15 48.96 64.37 49.82 64.44 50.54ZM60.41 62.06C60.34 59.33 59.76 55.15 58.97 51.98L55.01 52.56C55.73 55.80 56.23 60.05 56.16 62.78ZM48.67 51.62C48.31 54.94 47.74 58.54 46.94 61.49C47.95 61.92 49.82 62.93 50.62 63.58C51.41 60.70 52.34 56.30 52.92 52.63ZM46.87 29.23L39.89 29.23C39.31 27.29 38.02 24.55 36.86 22.54L31.97 24.19C32.69 25.78 33.55 27.50 34.13 29.23L24.77 29.23L24.77 33.26L46.87 33.26ZM45.65 42.34L26.35 42.34L26.35 45.94L45.65 45.94ZM30.96 53.06L41.04 53.06L41.04 58.46L30.96 58.46ZM45.36 62.21L45.36 49.25L26.78 49.25L26.78 62.21ZM45.65 36.07L26.28 36.07L26.28 39.53L45.65 39.53ZM25.27 49.75C24.77 47.02 23.33 42.41 21.74 38.88L17.93 39.89C18.50 41.18 19.01 42.77 19.51 44.28L12.10 45.07C16.06 41.18 20.09 36.36 23.69 31.32L19.30 29.23C18.29 30.96 17.06 32.62 15.91 34.20L10.80 34.49C13.18 31.75 15.62 28.15 17.64 24.48L12.96 22.90C11.02 27.22 7.70 31.61 6.70 32.69C5.69 33.84 4.82 34.56 3.89 34.78C4.39 35.93 5.11 38.16 5.40 39.24C6.19 38.88 7.49 38.59 12.82 38.16C10.87 40.54 9.07 42.34 8.21 43.13C6.62 44.71 5.26 45.79 3.96 46.01C4.46 47.23 5.18 49.46 5.40 50.47C6.55 49.90 8.42 49.46 20.59 47.88C20.88 49.03 21.17 50.11 21.31 50.98ZM24.91 60.19C24.55 57.89 23.47 54.22 22.54 51.26L18.79 52.20C19.66 55.08 20.59 58.82 20.95 61.34ZM16.99 61.92C16.92 59.40 16.34 55.37 15.77 52.34L11.74 52.85C12.31 55.94 12.74 59.98 12.82 62.57ZM5.62 51.98C5.11 55.22 4.39 58.82 3.38 61.70C4.39 62.14 6.19 63.07 7.06 63.72C7.99 60.91 9.14 56.66 9.79 53.06ZM53.21 64.15L51.84 64.44L12.89 64.44L12.89 68.76L44.14 68.76C40.75 70.13 36.72 71.50 33.19 72.36L33.19 73.37L3.89 73.37L3.89 78.41L33.19 78.41L33.19 82.44C33.19 83.52 32.69 83.81 31.18 83.88C29.74 84.02 23.18 84.02 17.64 83.74C18.58 85.25 19.58 87.19 20.09 88.70C27.43 88.70 32.33 88.78 35.50 88.06C38.59 87.34 39.74 86.04 39.74 82.66L39.74 78.41L68.18 78.41L68.18 73.37L44.57 73.37C49.10 71.78 53.57 69.84 57.10 67.68ZM62.21 51.77C63.14 55.08 64.30 59.33 64.66 62.14L68.54 61.13C68.04 58.39 66.89 54.22 65.81 50.98Z"/></svg>
