<svg xmlns="http://www.w3.org/2000/svg" xmlns:xlink="http://www.w3.org/1999/xlink" width="72.00000000000001" height="106.56000000000002"><path fill="red" stroke="red" d="M12.60 37.37L58.97 37.37L58.97 47.66L65.88 47.66L65.88 30.96L40.90 30.96C39.89 28.30 38.23 24.98 36.65 22.39L29.88 24.41C30.96 26.35 32.11 28.80 32.90 30.96L5.90 30.96L5.90 47.66L12.60 47.66ZM54.79 50.11L54.79 43.99L16.85 43.99L16.85 50.11ZM50.90 82.01C48.17 82.01 47.74 81.72 47.74 79.56L47.74 63.43L67.68 63.43L67.68 57.17L4.25 57.17L4.25 63.43L22.82 63.43C22.03 75.17 19.37 80.71 3.31 83.59C4.54 84.96 6.26 87.55 6.84 89.28C25.06 85.54 28.66 77.83 29.66 63.43L40.97 63.43L40.97 79.56C40.97 86.18 42.70 88.13 50.04 88.13L60.19 88.13C66.31 88.13 68.11 85.61 68.83 75.53C67.10 75.10 64.30 74.02 62.78 72.86C62.50 80.78 62.06 82.01 59.62 82.01Z"/></svg>
