<svg xmlns="http://www.w3.org/2000/svg" xmlns:xlink="http://www.w3.org/1999/xlink" width="72.00000000000001" height="106.56000000000002"><path fill="red" stroke="red" d="M11.66 34.27L60.05 34.27L60.05 41.98L66.53 41.98L66.53 28.51L40.39 28.51C39.89 26.64 39.10 24.41 38.16 22.75L31.46 23.98C32.04 25.34 32.62 26.93 33.05 28.51L5.47 28.51L5.47 41.98L11.66 41.98ZM35.86 70.92L35.86 77.04L18.65 77.04L18.65 70.92ZM42.12 82.15L42.12 65.81L12.46 65.81L12.46 85.82L18.65 85.82L18.65 82.15ZM19.73 56.16C26.64 54.58 31.10 52.42 34.13 49.39C40.54 51.12 47.95 53.86 52.99 56.16ZM67.61 56.16L56.52 56.16L59.04 52.78C53.93 50.11 44.71 46.94 37.15 45.07L37.44 44.50L58.46 44.50L58.46 39.24L39.02 39.24C39.24 38.09 39.46 36.94 39.60 35.71L33.26 35.71C33.12 36.94 32.90 38.09 32.69 39.24L13.46 39.24L13.46 44.50L30.46 44.50C27.58 48.53 22.10 50.90 10.94 52.34C11.88 53.28 12.89 54.79 13.54 56.16L4.39 56.16L4.39 62.06L51.41 62.06L51.41 82.01C51.41 82.87 51.05 83.09 49.90 83.16C48.74 83.23 44.71 83.23 40.75 83.09C41.54 84.74 42.55 87.34 42.84 89.14C48.38 89.14 52.20 89.14 54.72 88.13C57.31 87.26 57.96 85.54 57.96 82.15L57.96 62.06L67.61 62.06Z"/></svg>
