<svg xmlns="http://www.w3.org/2000/svg" xmlns:xlink="http://www.w3.org/1999/xlink" width="72.00000000000001" height="106.56000000000002"><path fill="red" stroke="red" d="M16.06 32.11L57.10 32.11L57.10 38.74L16.06 38.74ZM45.72 81.94C41.98 81.94 41.33 81.50 41.33 78.70L41.33 74.45L66.67 70.49L65.66 65.09L41.33 68.83L41.33 63.29L61.85 60.19L60.84 54.79L41.33 57.67L41.33 52.34C47.09 51.19 52.42 49.97 56.88 48.38L51.91 44.42L63.86 44.42L63.86 26.42L9.29 26.42L9.29 47.30C9.29 58.61 8.78 74.59 2.30 85.68C3.96 86.33 7.06 87.98 8.28 89.06C15.05 77.33 16.06 59.47 16.06 47.23L16.06 44.42L50.33 44.42C42.77 47.02 30.10 49.39 19.01 50.69C19.73 51.98 20.52 54.22 20.74 55.51C25.27 55.01 30.10 54.29 34.78 53.57L34.78 58.68L18.65 61.13L19.66 66.60L34.78 64.30L34.78 69.77L16.63 72.58L17.64 78.12L34.78 75.46L34.78 78.77C34.78 86.04 36.86 87.98 45.07 87.98L58.61 87.98C65.23 87.98 67.18 85.61 68.04 77.18C66.17 76.75 63.58 75.74 62.06 74.66C61.63 80.78 61.06 81.94 58.10 81.94Z"/></svg>
