<svg xmlns="http://www.w3.org/2000/svg" xmlns:xlink="http://www.w3.org/1999/xlink" width="72.00000000000001" height="106.56000000000002"><path fill="red" stroke="red" d="M63.65 25.78L56.59 25.78L56.59 34.49L39.60 34.49L39.60 23.04L32.54 23.04L32.54 34.49L15.91 34.49L15.91 25.78L9.14 25.78L9.14 40.46L63.65 40.46ZM67.18 51.34L67.18 45.43L8.86 45.43L8.86 59.04C8.86 66.53 8.21 76.68 2.52 83.81C3.96 84.60 6.84 86.90 7.85 88.13C14.33 80.21 15.55 67.82 15.55 59.11L15.55 51.34ZM68.26 69.05L45.79 69.05L45.79 62.21L64.73 62.21L64.73 56.52L20.74 56.52L20.74 62.21L38.74 62.21L38.74 69.05L17.28 69.05L17.28 74.95L38.74 74.95L38.74 89.28L45.79 89.28L45.79 74.95L68.26 74.95Z"/></svg>
