<svg xmlns="http://www.w3.org/2000/svg" xmlns:xlink="http://www.w3.org/1999/xlink" width="72.00000000000001" height="106.56000000000002"><path fill="red" stroke="red" d="M22.90 73.15L19.15 73.15L19.15 23.98L13.61 23.98L13.61 73.15L9.65 73.15L9.65 35.06L4.97 35.06L4.97 78.98L22.90 78.98L22.90 81.79L27.50 81.79L27.50 34.99L22.90 34.99ZM43.63 34.20L55.80 34.20C54.00 37.08 51.84 39.74 49.25 42.05C46.66 39.82 44.50 37.51 42.98 35.14ZM60.26 28.73L59.04 28.94L47.16 28.94C47.88 27.50 48.60 26.14 49.25 24.70L42.98 23.18C40.03 30.24 34.56 36.58 28.15 40.68C29.59 41.62 32.11 43.56 33.19 44.71C35.21 43.20 37.22 41.47 39.17 39.46C40.61 41.62 42.41 43.70 44.50 45.72C39.46 49.03 33.70 51.41 27.65 52.78C28.80 54.00 30.24 56.38 30.96 57.96C37.58 56.16 43.85 53.35 49.25 49.54C53.71 52.78 59.11 55.44 65.52 57.02C66.38 55.30 68.18 52.78 69.55 51.41C63.58 50.18 58.39 48.17 54.14 45.65C58.54 41.54 62.06 36.43 64.37 30.38ZM52.13 71.86L64.58 71.86L64.58 66.89L52.13 66.89L52.13 62.93L64.80 62.93L64.80 57.96L52.13 57.96L52.13 53.78L45.58 53.78L45.58 57.96L33.12 57.96L33.12 62.93L45.58 62.93L45.58 66.89L33.62 66.89L33.62 71.86L45.58 71.86L45.58 76.18L29.88 76.18L29.88 81.43L45.58 81.43L45.58 89.21L52.13 89.21L52.13 81.43L67.97 81.43L67.97 76.18L52.13 76.18Z"/></svg>
