<svg xmlns="http://www.w3.org/2000/svg" xmlns:xlink="http://www.w3.org/1999/xlink" width="72.00000000000001" height="106.56000000000002"><path fill="red" stroke="red" d="M63.86 25.06L56.88 25.06L56.88 32.47L39.38 32.47L39.38 23.11L32.47 23.11L32.47 32.47L15.41 32.47L15.41 25.06L8.71 25.06L8.71 37.94L63.86 37.94ZM15.26 47.52L67.03 47.52L67.03 41.98L8.71 41.98L8.71 55.66C8.71 64.15 8.06 75.96 2.23 84.31C3.53 85.10 6.48 87.62 7.42 88.99C14.11 79.63 15.26 65.30 15.26 55.73ZM17.78 61.92L17.78 66.89L65.09 66.89L65.09 61.92L43.92 61.92L43.92 57.02L62.14 57.02L62.14 52.27L43.92 52.27L43.92 48.67L37.22 48.67L37.22 52.27L20.74 52.27L20.74 57.02L37.22 57.02L37.22 61.92ZM43.92 82.58L43.92 76.90L63.00 76.90L63.00 72.14L43.92 72.14L43.92 68.33L37.22 68.33L37.22 72.14L19.73 72.14L19.73 76.90L37.22 76.90L37.22 82.58L14.62 82.58L14.62 87.77L68.18 87.77L68.18 82.58Z"/></svg>
