<svg xmlns="http://www.w3.org/2000/svg" xmlns:xlink="http://www.w3.org/1999/xlink" width="72.00000000000001" height="106.56000000000002"><path fill="red" stroke="red" d="M59.40 57.74L43.42 57.74L43.42 53.78L59.40 53.78ZM59.40 65.66L43.42 65.66L43.42 61.63L59.40 61.63ZM59.40 73.66L43.42 73.66L43.42 69.55L59.40 69.55ZM67.97 45.86L67.97 40.68L34.27 40.68L34.27 45.86L48.10 45.86C47.81 47.16 47.45 48.46 47.09 49.68L37.44 49.68L37.44 77.76L65.59 77.76L65.59 49.68L52.99 49.68C53.50 48.46 54.07 47.23 54.58 45.86ZM63.36 24.77L56.38 24.77L56.38 31.39L39.31 31.39L39.31 23.04L32.47 23.04L32.47 31.39L15.34 31.39L15.34 24.77L8.57 24.77L8.57 36.72L63.36 36.72ZM11.38 59.69L27.79 59.69L27.79 54.65L12.60 54.65C15.34 52.49 18.00 49.97 20.45 47.23C24.62 50.69 29.16 55.15 31.46 58.18L35.78 54.50C33.19 51.34 28.01 46.51 23.54 43.13C24.05 42.41 24.55 41.76 24.91 41.04L20.23 38.38C16.27 45.07 9.22 50.69 2.16 54.07C3.31 55.22 5.26 57.67 6.12 59.11C7.85 58.10 9.58 56.95 11.38 55.58ZM29.30 63.65L28.30 63.86L5.90 63.86L5.90 69.19L25.06 69.19C23.47 71.93 21.46 74.81 19.44 77.26C17.57 75.82 15.55 74.45 13.75 73.22L9.29 76.25C14.40 79.70 20.59 84.89 23.26 88.42L28.15 84.96C27.00 83.59 25.42 82.08 23.62 80.57C27.36 76.25 31.32 70.27 33.55 65.16ZM43.13 78.70C40.39 81.36 35.57 83.59 30.89 85.18C32.26 86.18 34.70 88.20 35.71 89.28C40.39 87.34 45.94 84.02 49.10 80.57ZM53.64 81.29C57.46 83.59 62.14 87.12 64.22 89.42L69.62 86.33C67.18 83.88 62.42 80.57 58.68 78.41Z"/></svg>
