<svg xmlns="http://www.w3.org/2000/svg" xmlns:xlink="http://www.w3.org/1999/xlink" width="72.00000000000001" height="106.56000000000002"><path fill="red" stroke="red" d="M45.22 70.63L61.56 70.63L61.56 64.80L24.77 64.80L24.77 70.63L38.45 70.63L38.45 81.65L18.00 81.65L18.00 87.55L66.38 87.55L66.38 81.65L45.22 81.65ZM39.31 54.14L39.31 48.82L61.34 48.82L61.34 43.20L39.31 43.20L39.31 38.02L65.02 38.02L65.02 32.18L50.90 32.18C52.49 30.10 54.22 27.50 55.80 24.84L48.60 22.97C47.66 25.70 45.50 29.52 43.92 32.11L44.14 32.18L27.29 32.18L28.08 31.82C27.14 29.38 24.91 25.85 22.68 23.26L16.92 25.56C18.43 27.58 20.02 30.02 21.02 32.18L7.42 32.18L7.42 38.02L32.47 38.02L32.47 43.20L11.02 43.20L11.02 48.82L32.47 48.82L32.47 54.14L4.32 54.14L4.32 60.05L18.14 60.05C15.48 70.70 10.37 79.20 2.66 84.53C4.32 85.54 7.13 87.98 8.35 89.21C16.49 82.80 22.25 72.79 25.34 60.05L67.68 60.05L67.68 54.14Z"/></svg>
