<svg xmlns="http://www.w3.org/2000/svg" xmlns:xlink="http://www.w3.org/1999/xlink" width="72.00000000000001" height="106.56000000000002"><path fill="red" stroke="red" d="M31.32 36.50L20.88 36.50L20.88 23.18L14.69 23.18L14.69 36.50L4.61 36.50L4.61 74.59L9.86 74.59L9.86 42.41L14.69 42.41L14.69 89.21L20.88 89.21L20.88 42.41L26.06 42.41L26.06 67.82C26.06 68.40 25.92 68.62 25.42 68.62L21.96 68.62C22.68 70.20 23.40 72.86 23.47 74.45C26.21 74.45 28.08 74.30 29.52 73.22C31.03 72.29 31.32 70.42 31.32 67.97ZM59.26 78.84L41.54 78.84L41.54 59.90L59.26 59.90ZM68.76 42.12L68.76 35.93L51.84 35.93L51.84 23.26L45.36 23.26L45.36 53.78L35.42 53.78L35.42 88.99L41.54 88.99L41.54 84.96L59.26 84.96L59.26 88.85L65.59 88.85L65.59 53.78L51.84 53.78L51.84 42.12Z"/></svg>
