<svg xmlns="http://www.w3.org/2000/svg" xmlns:xlink="http://www.w3.org/1999/xlink" width="72.00000000000001" height="106.56000000000002"><path fill="red" stroke="red" d="M22.54 65.81L22.54 76.46L11.88 76.46L11.88 65.81ZM21.89 48.60L11.88 48.60L11.88 39.46L21.89 39.46ZM11.88 54.29L27.86 54.29L27.86 33.77L17.86 33.77C19.22 30.82 20.59 27.22 21.82 23.90L14.47 23.04C13.97 26.21 12.96 30.38 11.88 33.77L5.90 33.77L5.90 86.90L11.88 86.90L11.88 82.15L28.51 82.15L28.51 60.05L11.88 60.05ZM68.62 32.76L68.62 26.64L30.31 26.64L30.31 32.76L46.22 32.76L46.22 40.54L32.83 40.54L32.83 78.34L38.95 78.34L38.95 46.51L46.22 46.51L46.22 89.06L52.49 89.06L52.49 46.51L60.41 46.51L60.41 71.78C60.41 72.50 60.19 72.72 59.47 72.72C58.82 72.79 56.81 72.79 54.58 72.72C55.37 74.30 56.09 76.82 56.30 78.48C60.05 78.48 62.50 78.41 64.37 77.47C66.17 76.46 66.60 74.66 66.60 71.86L66.60 40.54L52.49 40.54L52.49 32.76Z"/></svg>
