<svg xmlns="http://www.w3.org/2000/svg" xmlns:xlink="http://www.w3.org/1999/xlink" width="72.00000000000001" height="106.56000000000002"><path fill="red" stroke="red" d="M68.04 34.42L68.04 28.80L43.92 28.80C42.98 26.78 41.76 24.26 40.68 22.32L33.55 24.26C34.20 25.70 34.92 27.22 35.57 28.80L8.42 28.80L8.42 49.82C8.42 60.34 7.99 75.02 2.23 85.25C3.67 85.90 6.41 87.84 7.49 88.99C13.68 78.05 14.69 61.20 14.69 49.82L14.69 34.42ZM53.14 73.58C50.11 76.03 46.15 78.05 41.76 79.56C37.73 78.26 34.13 76.54 31.10 74.59C31.61 74.23 32.04 73.94 32.47 73.58ZM28.08 60.48L55.58 60.48L55.58 63.36L28.08 63.36ZM28.08 54.50L55.58 54.50L55.58 57.38L28.08 57.38ZM28.08 48.74L55.58 48.74L55.58 51.48L28.08 51.48ZM58.61 69.19L57.53 69.48L37.08 69.48C37.94 68.47 38.81 67.54 39.67 66.46L61.99 66.46L61.99 45.65L42.62 45.65L44.35 42.55L66.17 42.55L66.17 37.94L17.28 37.94L17.28 42.55L37.44 42.55C37.01 43.63 36.58 44.64 36.22 45.65L21.96 45.65L21.96 66.46L32.62 66.46C31.10 67.97 29.23 69.62 26.93 71.21C26.21 70.42 25.42 69.55 24.77 68.69L20.02 70.49C20.81 71.57 21.74 72.65 22.68 73.66C20.88 74.59 19.01 75.38 16.85 76.18C18.07 77.04 19.87 78.98 20.66 80.35C22.90 79.34 24.91 78.41 26.78 77.33C29.02 78.98 31.46 80.42 34.13 81.79C28.22 83.09 21.82 83.95 15.41 84.46C16.42 85.75 17.35 87.77 17.86 89.21C26.14 88.34 34.20 86.98 41.54 84.67C48.74 87.05 57.10 88.56 66.17 89.28C66.89 87.77 68.11 85.61 69.26 84.31C62.06 83.88 55.30 83.02 49.25 81.72C54.58 79.06 59.11 75.74 62.28 71.50Z"/></svg>
