<svg xmlns="http://www.w3.org/2000/svg" xmlns:xlink="http://www.w3.org/1999/xlink" width="72.00000000000001" height="106.56000000000002"><path fill="red" stroke="red" d="M67.54 69.34L52.63 69.34L52.63 52.99L65.88 52.99L65.88 46.87L52.63 46.87L52.63 32.90C57.89 32.11 62.71 31.03 66.82 29.88L62.78 24.34C54.58 27.00 40.68 28.73 28.58 29.66C29.30 31.10 29.95 33.62 30.24 35.28C35.21 34.99 40.54 34.49 45.79 33.84L45.79 69.34L37.94 69.34L37.94 40.32L31.61 40.32L31.61 69.34L27.29 69.34L27.29 75.53L67.54 75.53ZM21.53 47.30L20.38 47.45L14.54 47.45C18.07 41.11 22.18 33.12 25.42 26.50L3.31 26.50L3.31 32.47L16.20 32.47C12.67 39.60 8.57 47.52 5.26 52.92L18.79 52.92C18.00 59.11 16.56 64.58 14.69 69.19C12.24 66.31 10.15 62.71 8.57 58.32L3.38 60.62C5.62 66.53 8.50 71.14 11.81 74.81C9.22 78.84 6.12 81.94 2.38 83.95C3.74 85.32 5.40 87.98 6.19 89.64C10.37 87.05 13.82 83.66 16.63 79.20C25.92 86.11 37.87 87.62 51.34 87.62L67.10 87.62C67.54 85.68 68.62 82.58 69.70 81.00C65.45 81.14 54.86 81.14 51.48 81.14C39.53 81.07 28.08 79.92 19.58 73.73C22.61 67.03 24.41 58.61 25.34 48.10Z"/></svg>
