<svg xmlns="http://www.w3.org/2000/svg" xmlns:xlink="http://www.w3.org/1999/xlink" width="72.00000000000001" height="106.56000000000002"><path fill="red" stroke="red" d="M59.90 24.26C55.66 29.95 47.66 35.86 40.90 39.31C42.70 40.54 44.57 42.55 45.72 44.06C52.99 39.96 60.91 33.55 66.24 26.78ZM61.70 43.85C57.24 50.04 48.82 56.30 41.76 59.98C43.49 61.27 45.43 63.29 46.51 64.73C54.07 60.34 62.35 53.50 67.82 46.44ZM18.22 50.83L18.22 33.62L28.30 33.62L28.30 50.83ZM42.19 57.10L42.19 50.83L34.85 50.83L34.85 33.62L41.18 33.62L41.18 27.43L4.25 27.43L4.25 33.62L11.95 33.62L11.95 50.83L3.10 50.83L3.10 57.10L11.88 57.10C11.59 67.18 9.94 77.11 2.52 85.18C4.03 86.11 6.48 88.34 7.49 89.71C15.98 80.57 17.86 68.90 18.14 57.10L28.30 57.10L28.30 89.21L34.85 89.21L34.85 57.10ZM63.14 63.00C57.96 71.86 48.24 79.49 38.09 83.74C39.82 85.18 41.76 87.41 42.84 89.14C53.64 83.88 63.43 75.60 69.48 65.52Z"/></svg>
