<svg xmlns="http://www.w3.org/2000/svg" xmlns:xlink="http://www.w3.org/1999/xlink" width="72.00000000000001" height="106.56000000000002"><path fill="red" stroke="red" d="M60.19 69.41C51.98 77.62 35.21 82.08 16.92 83.95C18.22 85.46 19.58 87.91 20.09 89.64C39.53 87.19 56.66 82.15 66.24 72.36ZM54.07 61.13C47.16 66.38 33.48 70.13 21.02 71.93C22.32 73.30 23.62 75.31 24.41 76.82C37.73 74.52 51.41 70.42 59.69 63.94ZM22.46 48.46C27.58 47.09 32.98 45.50 37.94 43.56C42.84 45.29 47.38 46.94 51.05 48.46ZM47.23 34.20C44.64 35.78 41.47 37.22 38.02 38.59C32.69 36.94 27.22 35.42 22.32 34.20ZM53.86 48.46L57.96 45.50C54.36 44.06 49.75 42.41 44.78 40.75C48.46 39.02 51.84 37.15 54.72 35.14L52.99 34.20L65.74 34.20L65.74 28.73L41.47 28.73C40.82 26.64 39.74 24.12 38.52 22.18L32.33 23.54C33.12 25.13 33.84 26.93 34.42 28.73L8.71 28.73L8.71 34.20L21.89 34.20L16.85 37.44C21.24 38.52 25.92 39.74 30.60 41.26C25.20 42.98 19.58 44.35 14.40 45.36C14.98 46.15 15.77 47.30 16.42 48.46L8.28 48.46L8.28 60.19C8.28 67.39 7.63 77.47 2.09 84.82C3.46 85.61 6.41 87.91 7.42 89.14C13.61 80.93 14.83 68.83 14.83 60.34L14.83 54.00L47.30 54.00C40.54 57.31 29.45 59.76 20.16 60.91C21.53 62.21 22.90 64.22 23.62 65.66C34.70 63.79 47.16 60.48 54.94 55.66L51.84 54.00L67.03 54.00L67.03 48.46Z"/></svg>
