<svg xmlns="http://www.w3.org/2000/svg" xmlns:xlink="http://www.w3.org/1999/xlink" width="72.00000000000001" height="106.56000000000002"><path fill="red" stroke="red" d="M17.14 23.18C14.04 28.08 7.85 34.06 2.52 37.80C3.60 39.02 5.26 41.33 6.12 42.70C12.17 38.38 18.79 31.61 23.11 25.49ZM18.65 38.02C14.62 45.29 8.06 52.56 1.73 57.24C2.88 58.61 4.75 61.92 5.40 63.29C7.70 61.34 10.15 59.11 12.46 56.66L12.46 89.28L18.72 89.28L18.72 49.10C20.88 46.22 22.90 43.20 24.55 40.10ZM50.11 68.33L66.02 68.33L66.02 62.50L50.11 62.50L50.11 52.70L68.98 52.70L68.98 46.80L49.54 46.80L49.54 37.80L65.59 37.80L65.59 32.04L49.54 32.04L49.54 23.11L43.13 23.11L43.13 32.04L27.43 32.04L27.43 37.80L43.13 37.80L43.13 46.80L23.90 46.80L23.90 52.70L43.70 52.70L43.70 79.92C39.60 78.05 36.22 74.66 33.98 68.83C34.63 65.66 35.06 62.28 35.35 58.68L28.87 58.10C28.08 69.77 25.78 79.42 19.58 85.18C21.02 86.11 23.76 88.27 24.77 89.42C27.94 86.11 30.31 82.01 31.90 77.04C37.44 86.11 45.65 88.27 56.38 88.27L67.90 88.27C68.18 86.54 69.12 83.66 69.98 82.08C67.25 82.15 58.90 82.15 56.88 82.15C54.58 82.15 52.20 82.01 50.11 81.72Z"/></svg>
