<svg xmlns="http://www.w3.org/2000/svg" xmlns:xlink="http://www.w3.org/1999/xlink" width="72.00000000000001" height="106.56000000000002"><path fill="red" stroke="red" d="M45.86 41.18C44.28 39.46 41.18 36.94 38.38 34.92C39.60 31.54 40.54 27.94 41.33 24.19L34.92 23.11C33.05 33.77 28.94 42.98 22.32 48.67C23.69 49.68 26.28 52.06 27.14 53.21C30.74 49.82 33.77 45.43 36.14 40.32C38.66 42.41 41.33 44.71 42.77 46.37ZM17.06 23.11C14.04 28.08 7.85 34.06 2.45 37.80C3.53 38.95 5.26 41.33 6.05 42.62C12.17 38.38 18.79 31.61 23.11 25.42ZM18.65 38.02C14.62 45.29 8.06 52.56 1.73 57.17C2.81 58.61 4.75 61.92 5.40 63.29C7.78 61.42 10.15 59.11 12.46 56.59L12.46 89.35L18.72 89.35L18.72 49.10C20.88 46.15 22.90 43.13 24.55 40.10ZM50.18 68.40L65.23 68.40L65.23 62.71L50.18 62.71L50.18 51.55L48.02 51.55C50.90 48.74 53.28 45.36 55.30 41.47C59.11 45.14 63.00 49.32 65.02 52.27L69.48 47.81C67.03 44.50 61.99 39.53 57.67 35.71C58.90 32.11 59.83 28.22 60.48 23.98L54.07 23.11C52.56 34.27 48.67 43.20 41.54 48.53C42.62 49.18 44.35 50.47 45.65 51.55L43.92 51.55L43.92 79.78C40.10 77.62 37.15 73.80 35.21 67.32C35.78 64.15 36.14 60.62 36.43 56.95L29.95 56.52C29.23 69.05 26.78 78.84 19.73 84.67C21.17 85.61 23.83 87.91 24.84 89.06C28.51 85.61 31.10 81.29 32.98 76.10C37.87 85.90 45.43 88.34 55.58 88.34L67.10 88.34C67.32 86.69 68.26 83.74 69.12 82.30C66.67 82.37 57.96 82.37 56.16 82.37C54.07 82.37 52.06 82.22 50.18 81.94Z"/></svg>
