<svg xmlns="http://www.w3.org/2000/svg" xmlns:xlink="http://www.w3.org/1999/xlink" width="72.00000000000001" height="106.56000000000002"><path fill="red" stroke="red" d="M24.34 29.52C31.03 34.13 39.60 41.11 43.56 45.58L48.53 40.46C44.28 35.93 35.50 29.45 28.87 25.06ZM53.86 48.46C57.74 56.95 61.56 68.26 62.86 75.60L69.55 72.79C68.04 65.45 64.22 54.58 60.05 46.01ZM9.36 48.10C8.42 57.02 6.12 67.97 3.31 75.38L10.01 78.19C12.74 70.34 14.83 58.18 15.91 49.32ZM21.38 43.27L21.38 77.62C21.38 85.54 23.76 87.84 32.18 87.84L45.50 87.84C53.86 87.84 55.80 83.74 56.59 70.20C54.86 69.77 51.91 68.54 50.33 67.32C49.82 79.20 49.18 81.58 45.07 81.58L32.90 81.58C29.09 81.58 28.30 81.00 28.30 77.62L28.30 43.27Z"/></svg>
