<svg xmlns="http://www.w3.org/2000/svg" xmlns:xlink="http://www.w3.org/1999/xlink" width="72.00000000000001" height="106.56000000000002"><path fill="red" stroke="red" d="M52.78 39.31L11.52 39.31L11.52 51.55C11.52 58.68 14.98 60.34 27.36 60.34L52.56 60.34C62.42 60.34 64.80 58.32 65.95 49.46C64.08 49.10 61.27 48.31 59.62 47.30C59.04 53.42 58.03 54.50 52.27 54.50L27.14 54.50C19.51 54.50 18.07 53.93 18.07 51.41L18.07 45.29L59.33 45.29L59.33 25.85L9.50 25.85L9.50 31.82L52.78 31.82ZM28.73 64.01C32.90 68.18 37.58 74.02 39.46 77.90L45.22 74.59C43.20 70.63 38.30 64.94 34.20 61.06ZM9.50 86.47C12.60 81.50 14.90 73.66 16.42 67.54L10.37 65.52C9.07 71.57 6.48 78.77 3.38 83.38ZM30.89 81.65C26.50 81.65 25.70 81.29 25.70 79.13L25.70 66.24L18.86 66.24L18.86 79.20C18.86 85.90 21.24 87.77 30.38 87.77L45.72 87.77C53.21 87.77 55.22 85.46 56.09 75.82C54.29 75.46 51.41 74.45 49.90 73.30C49.54 80.57 48.89 81.65 45.22 81.65ZM53.14 66.10C56.74 72.22 60.48 80.35 61.70 85.46L68.04 82.87C66.53 77.76 62.57 69.84 58.90 63.94Z"/></svg>
