<svg xmlns="http://www.w3.org/2000/svg" xmlns:xlink="http://www.w3.org/1999/xlink" width="72.00000000000001" height="106.56000000000002"><path fill="red" stroke="red" d="M47.52 48.24L53.71 48.24L53.71 45.00L66.96 45.00L66.96 40.82L53.71 40.82L53.71 37.73L64.51 37.73L64.51 33.62L53.71 33.62L53.71 30.67L65.66 30.67L65.66 26.50L53.71 26.50L53.71 23.11L47.52 23.11L47.52 26.50L36.43 26.50L36.43 30.67L47.52 30.67L47.52 33.62L37.94 33.62L37.94 37.73L47.52 37.73L47.52 40.82L35.71 40.82L35.71 45.00L47.52 45.00ZM16.92 48.24L23.04 48.24L23.04 44.86L34.42 44.86L34.42 40.68L23.04 40.68L23.04 37.73L32.69 37.73L32.69 33.62L23.04 33.62L23.04 30.67L33.55 30.67L33.55 26.50L23.04 26.50L23.04 23.11L16.92 23.11L16.92 26.50L5.83 26.50L5.83 30.67L16.92 30.67L16.92 33.62L7.49 33.62L7.49 37.73L16.92 37.73L16.92 40.68L4.90 40.68L4.90 44.86L16.92 44.86ZM54.22 64.94L10.01 64.94L10.01 69.34L34.06 69.34L30.60 72.14C33.77 74.45 37.80 77.76 39.82 79.92L44.42 76.03C42.55 74.09 39.02 71.42 36.00 69.34L60.77 69.34L60.77 61.34L68.11 61.34L68.11 57.17L60.77 57.17L60.77 49.32L10.44 49.32L10.44 53.71L54.22 53.71L54.22 57.17L4.25 57.17L4.25 61.34L54.22 61.34ZM9.36 87.48C13.03 84.17 15.84 79.06 18.00 74.74L12.24 72.14C10.44 76.25 7.27 81.07 3.67 84.10ZM31.97 82.66C28.15 82.66 27.50 82.44 27.50 80.57L27.50 71.93L20.88 71.93L20.88 80.64C20.88 86.76 22.97 88.49 31.39 88.49L44.78 88.49C51.19 88.49 53.06 86.62 53.93 78.91C52.13 78.55 49.39 77.62 48.02 76.68C47.66 81.94 47.16 82.66 44.21 82.66ZM51.70 74.66C55.94 78.48 61.06 83.88 63.22 87.34L69.05 84.02C66.53 80.42 61.34 75.24 57.02 71.64Z"/></svg>
