<svg xmlns="http://www.w3.org/2000/svg" xmlns:xlink="http://www.w3.org/1999/xlink" width="72.00000000000001" height="106.56000000000002"><path fill="red" stroke="red" d="M68.04 40.54L56.52 40.54C57.38 38.81 58.39 36.86 59.47 34.92L54.29 33.62L65.74 33.62L65.74 28.44L49.46 28.44C48.82 26.64 47.81 24.55 47.02 22.90L41.26 23.83C41.90 25.27 42.55 26.86 43.06 28.44L26.28 28.44L26.28 33.62L53.35 33.62C52.63 35.64 51.55 38.38 50.40 40.54L37.01 40.54L40.18 39.53C39.67 38.09 38.59 35.57 37.73 33.77L32.47 35.14C33.19 36.72 34.06 38.88 34.56 40.54L24.48 40.54L24.48 45.79L68.11 45.79ZM57.46 57.10L33.98 57.10L33.98 53.35L57.46 53.35ZM57.46 64.87L33.98 64.87L33.98 61.13L57.46 61.13ZM63.79 49.10L27.86 49.10L27.86 69.19L41.76 69.19L39.46 70.92C42.62 73.58 46.73 77.69 48.74 80.28L52.99 76.75C51.34 74.66 48.17 71.71 45.22 69.19L63.79 69.19ZM6.98 57.17C8.57 51.70 9.65 43.42 9.86 37.66L5.18 37.08C4.75 42.70 3.67 50.69 2.09 55.58ZM24.98 48.89C24.34 45.36 22.54 39.38 20.88 34.78L16.85 36.07L16.85 23.18L11.09 23.18L11.09 89.21L16.85 89.21L16.85 37.30C18.36 41.83 19.80 47.38 20.30 50.69ZM25.06 87.19C26.86 83.45 29.02 77.98 30.53 74.38L25.63 72.07C24.19 75.74 21.89 81.14 19.80 84.60ZM41.47 83.45C38.59 83.45 38.09 83.23 38.09 81.58L38.09 72.65L32.26 72.65L32.26 81.58C32.26 86.98 33.91 88.56 40.82 88.56L51.98 88.56C57.17 88.56 58.82 86.69 59.47 79.49C57.89 79.13 55.58 78.34 54.36 77.47C54.07 82.73 53.64 83.45 51.34 83.45ZM56.66 72.86C59.40 76.90 62.71 82.44 64.30 85.97L69.41 83.30C67.82 79.92 64.51 74.74 61.63 70.70Z"/></svg>
