<svg xmlns="http://www.w3.org/2000/svg" xmlns:xlink="http://www.w3.org/1999/xlink" width="72.00000000000001" height="106.56000000000002"><path fill="red" stroke="red" d="M32.26 34.27L59.83 34.27L59.83 58.90C59.83 59.47 59.69 59.62 59.11 59.69C58.61 59.69 57.38 59.69 55.94 59.62C56.66 60.77 57.60 62.78 57.89 64.08C60.41 64.15 62.35 64.01 63.79 63.22C65.16 62.42 65.59 61.27 65.59 58.82L65.59 29.23L47.38 29.23C48.02 27.50 48.74 25.49 49.46 23.40L41.69 23.11C41.47 24.77 40.90 27.22 40.39 29.23L26.50 29.23L26.50 64.08L32.26 64.08ZM48.10 62.42L48.10 54.86C50.62 56.81 53.57 59.18 55.01 60.62L57.60 57.17C56.02 56.02 50.47 52.13 48.10 50.69L48.10 50.47L58.10 50.47L58.10 46.51L53.28 46.51C54.07 45.07 54.94 43.42 55.87 41.40L52.42 40.32C51.91 41.83 50.83 44.28 50.04 45.94L51.84 46.51L48.10 46.51L48.10 39.53C51.26 39.17 54.22 38.74 56.66 38.23L54.00 35.06C49.54 36.07 41.26 36.86 34.56 37.15C35.06 38.09 35.57 39.46 35.71 40.32C38.23 40.32 41.04 40.18 43.78 39.96L43.78 46.51L40.25 46.51L41.76 45.79C41.33 44.42 40.18 42.41 39.02 40.90L36.00 42.12C36.94 43.42 37.80 45.14 38.30 46.51L34.20 46.51L34.20 50.47L41.76 50.47C39.46 53.57 36.07 56.66 32.90 58.18C33.91 58.97 35.21 60.48 35.93 61.56C38.59 59.76 41.62 56.81 43.78 53.71L43.78 62.42ZM6.91 56.95C8.50 51.62 9.65 43.27 9.94 37.58L5.47 37.08C5.11 42.70 3.89 50.69 2.38 55.51ZM11.23 23.18L11.23 89.14L17.21 89.14L17.21 23.18ZM17.21 36.22C18.58 40.90 20.09 47.09 20.66 50.76L25.49 48.89C24.84 45.43 23.18 39.46 21.67 34.78ZM68.62 67.54L48.17 67.54C48.38 66.38 48.60 65.30 48.74 64.08L42.34 64.08C42.19 65.30 41.98 66.38 41.76 67.54L22.75 67.54L22.75 72.94L40.03 72.94C37.51 78.26 32.40 81.86 21.60 84.17C22.82 85.32 24.34 87.70 24.98 89.14C38.23 85.97 43.99 80.71 46.80 72.94L52.42 72.94L48.53 76.25C53.78 80.35 60.77 86.04 64.15 89.42L68.54 85.32C64.94 82.08 58.03 76.75 52.99 72.94L68.62 72.94Z"/></svg>
