<svg xmlns="http://www.w3.org/2000/svg" xmlns:xlink="http://www.w3.org/1999/xlink" width="72.00000000000001" height="106.56000000000002"><path fill="red" stroke="red" d="M6.98 57.10C8.57 51.70 9.72 43.34 9.94 37.66L5.40 37.01C4.97 42.70 3.82 50.62 2.23 55.51ZM25.20 50.47C24.62 46.58 22.75 39.96 21.02 34.85L16.99 36.14L16.99 23.11L11.09 23.11L11.09 89.21L16.99 89.21L16.99 37.08C18.58 42.12 20.02 48.31 20.59 52.13ZM32.83 77.33L45.79 77.33L45.79 81.36L32.83 81.36ZM45.79 64.44L32.83 64.44L32.83 60.62L45.79 60.62ZM45.79 72.79L32.83 72.79L32.83 68.98L45.79 68.98ZM30.24 43.06L39.31 43.06L39.31 46.37L30.24 46.37ZM30.24 36.22L39.31 36.22L39.31 39.38L30.24 39.38ZM30.24 29.38L39.31 29.38L39.31 32.54L30.24 32.54ZM52.34 43.06L61.56 43.06L61.56 46.37L52.34 46.37ZM52.34 36.22L61.56 36.22L61.56 39.38L52.34 39.38ZM52.34 29.38L61.56 29.38L61.56 32.54L52.34 32.54ZM68.54 81.36L51.84 81.36L51.84 77.33L65.81 77.33L65.81 72.79L51.84 72.79L51.84 68.98L65.74 68.98L65.74 64.44L51.84 64.44L51.84 60.62L67.25 60.62L67.25 55.80L51.98 55.80C51.41 54.00 50.47 51.84 49.75 50.18L66.74 50.18L66.74 25.56L47.38 25.56L47.38 50.18L49.10 50.18L43.92 51.34C44.57 52.63 45.22 54.29 45.72 55.80L34.42 55.80C35.14 54.50 35.86 53.21 36.50 51.91L32.04 50.18L44.28 50.18L44.28 25.56L25.42 25.56L25.42 50.18L31.25 50.18C28.22 56.02 23.54 62.14 19.15 66.10C20.09 67.54 21.67 70.63 22.18 71.86C23.62 70.42 25.13 68.76 26.64 66.89L26.64 89.14L32.83 89.14L32.83 86.40L68.54 86.40Z"/></svg>
