<svg xmlns="http://www.w3.org/2000/svg" xmlns:xlink="http://www.w3.org/1999/xlink" width="72.00000000000001" height="106.56000000000002"><path fill="red" stroke="red" d="M64.51 32.98C62.71 30.31 58.68 26.86 55.30 24.48L50.83 28.01C54.14 30.53 58.03 34.20 59.62 36.79ZM19.80 69.62L26.86 69.62L26.86 73.01L19.80 73.01ZM19.80 62.42L26.86 62.42L26.86 65.52L19.80 65.52ZM12.67 55.73L20.66 55.73L20.66 59.04L12.67 59.04ZM12.67 49.18L20.66 49.18L20.66 52.42L12.67 52.42ZM34.06 52.42L25.99 52.42L25.99 49.18L34.06 49.18ZM34.06 59.04L25.99 59.04L25.99 55.73L34.06 55.73ZM3.89 73.01L3.89 77.47L42.12 77.47L42.12 73.01L32.40 73.01L32.40 69.62L40.82 69.62L40.82 65.52L32.40 65.52L32.40 62.42L39.60 62.42L39.60 45.72L7.27 45.72L7.27 62.42L14.40 62.42L14.40 65.52L5.98 65.52L5.98 69.62L14.40 69.62L14.40 73.01ZM14.98 77.83C12.46 80.71 8.28 83.66 4.32 85.75C5.62 86.54 7.99 88.56 9.07 89.64C12.96 87.19 17.64 83.30 20.66 79.70ZM24.26 80.42C27.00 82.80 30.38 86.33 31.97 88.49L37.37 85.68C35.64 83.38 32.11 80.14 29.38 77.90ZM58.68 47.45C57.46 54.43 55.66 60.77 53.14 66.38C51.77 59.83 50.62 51.70 49.97 42.77L67.32 42.77L67.32 37.44L49.68 37.44C49.46 32.76 49.32 27.94 49.39 23.11L42.84 23.11C42.91 27.86 42.98 32.76 43.27 37.44L26.78 37.44L26.78 33.84L39.60 33.84L39.60 28.66L26.78 28.66L26.78 23.11L20.38 23.11L20.38 28.66L7.56 28.66L7.56 33.84L20.38 33.84L20.38 37.44L3.17 37.44L3.17 42.77L43.56 42.77C44.42 54.94 46.01 65.95 48.53 74.16C45.50 78.12 41.83 81.36 37.37 83.95C38.95 85.18 40.90 87.34 41.83 88.92C45.36 86.69 48.53 84.10 51.26 81.07C53.71 86.11 56.81 89.06 60.70 89.06C65.74 89.06 67.75 86.47 68.83 77.18C67.18 76.46 65.16 75.02 63.79 73.58C63.43 80.28 62.71 82.73 61.34 82.73C59.26 82.73 57.31 79.99 55.58 75.24C60.19 68.04 63.00 59.18 64.94 48.82Z"/></svg>
