<svg xmlns="http://www.w3.org/2000/svg" xmlns:xlink="http://www.w3.org/1999/xlink" width="72.00000000000001" height="106.56000000000002"><path fill="red" stroke="red" d="M27.29 53.93L19.37 56.02L19.37 43.42L27.14 43.42L27.14 37.22L19.37 37.22L19.37 23.18L12.82 23.18L12.82 37.22L3.82 37.22L3.82 43.42L12.82 43.42L12.82 57.74C9.14 58.68 5.76 59.54 2.95 60.19L4.75 66.60L12.82 64.37L12.82 81.29C12.82 82.30 12.46 82.58 11.52 82.66C10.66 82.66 7.70 82.66 4.75 82.58C5.62 84.24 6.48 86.98 6.70 88.63C11.45 88.63 14.54 88.49 16.63 87.41C18.65 86.47 19.37 84.74 19.37 81.29L19.37 62.57L28.15 60.05ZM55.37 65.45L55.37 79.70L38.09 79.70L38.09 65.45ZM31.61 89.35L38.09 89.35L38.09 85.68L55.37 85.68L55.37 89.21L62.21 89.21L62.21 59.54L31.61 59.54ZM38.16 46.37C41.76 42.48 44.78 38.16 47.38 33.48C50.04 38.16 53.21 42.62 56.81 46.37ZM44.86 23.18C41.33 33.12 33.98 42.98 24.70 49.10C26.21 50.18 28.44 52.56 29.52 54.00C31.54 52.49 33.48 50.98 35.35 49.18L35.35 52.49L58.97 52.49L58.97 48.53C60.84 50.40 62.78 51.91 64.73 53.28C65.81 51.55 67.97 49.03 69.55 47.81C62.06 43.63 54.65 35.42 50.40 27.22C50.69 26.42 50.98 25.70 51.26 24.91Z"/></svg>
