<svg xmlns="http://www.w3.org/2000/svg" xmlns:xlink="http://www.w3.org/1999/xlink" width="72.00000000000001" height="106.56000000000002"><path fill="red" stroke="red" d="M53.93 42.62L59.98 42.62L59.98 35.71L67.25 35.71L67.25 30.02L59.98 30.02L59.98 23.62L53.93 23.62L53.93 30.02L47.74 30.02L47.74 35.71L53.93 35.71ZM32.18 42.62L38.09 42.62L38.09 35.71L44.57 35.71L44.57 30.10L38.09 30.10L38.09 23.62L32.18 23.62L32.18 30.10L24.41 30.10L24.41 35.71L32.18 35.71ZM32.26 69.91C30.02 74.09 26.57 78.98 23.40 82.30C24.98 83.09 27.50 84.60 28.73 85.61C31.68 82.08 35.57 76.54 38.16 71.78ZM62.86 67.61L62.86 61.78L48.53 61.78L48.53 53.86L41.98 53.86L41.98 61.78L27.07 61.78L27.07 67.61L41.98 67.61L41.98 89.21L48.53 89.21L48.53 67.61ZM52.34 72.86C56.16 76.46 60.34 81.58 62.14 84.96L67.10 81.43C65.16 78.05 60.98 73.30 56.95 69.77ZM44.35 36.72C40.39 44.71 33.05 51.41 24.48 55.58L23.90 51.70L17.50 53.57L17.50 42.26L23.83 42.26L23.83 36.07L17.50 36.07L17.50 23.18L11.09 23.18L11.09 36.07L3.60 36.07L3.60 42.26L11.09 42.26L11.09 55.44C7.99 56.30 5.18 57.10 2.81 57.67L4.46 64.15L11.09 62.06L11.09 81.94C11.09 82.80 10.80 83.09 10.01 83.09C9.29 83.16 6.98 83.16 4.68 83.02C5.47 84.74 6.26 87.55 6.48 89.14C10.58 89.21 13.18 88.99 15.12 87.91C16.92 86.90 17.50 85.10 17.50 81.94L17.50 59.98L21.53 58.75C22.68 59.98 23.76 61.49 24.48 62.71C32.54 59.04 39.60 53.71 45.00 46.94C50.33 53.28 57.96 59.26 65.09 62.28C66.10 60.55 68.18 58.10 69.62 56.74C61.70 54.07 53.14 48.17 48.24 42.34C48.96 41.18 49.61 40.10 50.26 38.88Z"/></svg>
