<svg xmlns="http://www.w3.org/2000/svg" xmlns:xlink="http://www.w3.org/1999/xlink" width="72.00000000000001" height="106.56000000000002"><path fill="red" stroke="red" d="M53.06 38.74L59.04 38.74L59.04 34.20L68.26 34.20L68.26 28.66L59.04 28.66L59.04 23.18L53.06 23.18L53.06 28.66L47.81 28.66L47.81 34.20L53.06 34.20ZM34.34 38.74L40.32 38.74L40.32 34.20L45.50 34.20L45.50 28.73L40.32 28.73L40.32 23.18L34.34 23.18L34.34 28.73L25.56 28.73L25.56 34.20L34.34 34.20ZM25.06 60.19L24.19 54.22L17.57 56.09L17.57 43.34L24.55 43.34L24.55 37.15L17.57 37.15L17.57 23.26L11.45 23.26L11.45 37.15L3.67 37.15L3.67 43.34L11.45 43.34L11.45 57.89C8.14 58.90 5.11 59.62 2.59 60.26L4.25 66.74L11.45 64.51L11.45 81.14C11.45 82.15 11.09 82.44 10.15 82.44C9.36 82.44 6.70 82.44 3.82 82.37C4.68 84.10 5.47 86.98 5.69 88.56C10.15 88.56 13.10 88.34 14.98 87.26C16.92 86.26 17.57 84.46 17.57 81.14L17.57 62.64ZM34.78 53.93L57.46 53.93L57.46 58.18L34.78 58.18ZM34.78 45.14L57.46 45.14L57.46 49.32L34.78 49.32ZM67.75 73.80L67.75 68.18L48.60 68.18C48.89 66.53 49.10 64.87 49.32 63.00L63.86 63.00L63.86 40.25L28.58 40.25L28.58 63.00L42.77 63.00C42.55 64.87 42.34 66.53 41.90 68.18L24.19 68.18L24.19 73.80L39.89 73.80C37.15 78.55 32.18 81.86 22.18 83.88C23.40 85.18 25.06 87.70 25.63 89.28C38.38 86.18 44.21 81.14 47.02 73.80L50.69 73.80L46.73 77.98C52.78 81.22 61.06 86.04 65.23 88.92L69.34 84.17C65.09 81.29 56.81 76.82 50.90 73.80Z"/></svg>
