<svg xmlns="http://www.w3.org/2000/svg" xmlns:xlink="http://www.w3.org/1999/xlink" width="72.00000000000001" height="106.56000000000002"><path fill="red" stroke="red" d="M61.27 36.94L53.64 36.94L53.64 30.60L61.27 30.60ZM66.96 25.13L48.24 25.13L48.24 42.41L66.96 42.41ZM38.74 36.94L31.46 36.94L31.46 30.60L38.74 30.60ZM44.50 25.13L25.99 25.13L25.99 42.41L44.50 42.41ZM24.26 53.21L17.71 55.15L17.71 43.27L24.91 43.27L24.91 37.08L17.71 37.08L17.71 23.18L11.59 23.18L11.59 37.08L3.24 37.08L3.24 43.27L11.59 43.27L11.59 56.95C8.06 57.96 4.82 58.90 2.23 59.54L3.74 66.02C6.12 65.23 8.78 64.44 11.59 63.58L11.59 81.79C11.59 82.80 11.23 83.02 10.30 83.02C9.50 83.09 6.84 83.09 3.96 83.02C4.82 84.74 5.62 87.62 5.76 89.21C10.37 89.21 13.18 88.99 15.12 87.98C17.06 86.90 17.71 85.10 17.71 81.79L17.71 61.70C20.16 60.91 22.68 60.12 25.13 59.33ZM33.84 64.08L33.84 59.33L42.91 59.33L42.91 64.08ZM33.84 50.04L42.91 50.04L42.91 54.79L33.84 54.79ZM58.90 54.79L49.46 54.79L49.46 50.04L58.90 50.04ZM58.90 64.08L49.46 64.08L49.46 59.33L58.90 59.33ZM69.12 72.94L49.46 72.94L49.46 68.90L65.30 68.90L65.30 45.29L27.65 45.29L27.65 68.90L42.91 68.90L42.91 72.94L23.18 72.94L23.18 78.84L42.91 78.84L42.91 89.06L49.46 89.06L49.46 78.84L69.12 78.84Z"/></svg>
