<svg xmlns="http://www.w3.org/2000/svg" xmlns:xlink="http://www.w3.org/1999/xlink" width="72.00000000000001" height="106.56000000000002"><path fill="red" stroke="red" d="M21.67 59.98L20.45 54.00L15.70 55.73L15.70 43.34L20.66 43.34L20.66 37.15L15.70 37.15L15.70 23.18L9.72 23.18L9.72 37.15L3.60 37.15L3.60 43.34L9.72 43.34L9.72 58.03C7.13 58.97 4.75 59.83 2.81 60.41L4.54 66.82L9.72 64.80L9.72 81.72C9.72 82.58 9.43 82.80 8.78 82.80C8.06 82.80 6.05 82.80 3.89 82.73C4.61 84.46 5.40 87.19 5.54 88.78C9.29 88.78 11.81 88.56 13.46 87.48C15.19 86.54 15.70 84.74 15.70 81.72L15.70 62.42ZM37.80 65.59C36.22 64.08 33.05 62.28 30.53 61.13L28.30 63.43L28.30 58.25L37.80 58.25L37.80 70.34C34.13 71.93 30.60 73.51 27.72 74.59C28.15 71.21 28.30 67.90 28.30 65.09C30.67 66.38 33.12 68.04 34.42 69.41ZM43.34 53.21L23.04 53.21L23.04 64.73C23.04 70.99 22.61 79.63 18.86 85.97C20.09 86.62 22.32 88.42 23.18 89.57C25.34 85.90 26.71 81.36 27.36 76.90L28.87 79.99C31.61 78.62 34.78 77.18 37.80 75.60L37.80 82.73C37.80 83.38 37.66 83.59 37.01 83.59C36.29 83.66 34.56 83.66 32.40 83.59C33.12 85.03 33.84 87.48 34.06 88.99C37.37 88.99 39.67 88.85 41.33 87.98C42.98 87.05 43.34 85.39 43.34 82.80ZM60.62 42.48C59.90 50.33 58.82 57.38 57.02 63.50C55.08 57.31 54.00 50.69 53.28 44.57C53.50 43.92 53.71 43.20 53.86 42.48ZM69.34 42.48L69.34 36.65L55.22 36.65C56.02 32.54 56.66 28.22 57.24 23.98L51.48 23.11C50.47 32.69 48.89 42.05 45.86 49.10C44.78 46.01 42.19 41.18 39.96 37.51L35.42 39.31C36.07 40.61 36.86 41.98 37.66 43.49L29.30 44.42C30.96 41.69 32.69 38.45 34.34 35.06L46.44 35.06L46.44 29.66L36.72 29.66C37.44 27.86 38.16 26.21 38.81 24.41L32.62 23.04C31.97 25.20 31.10 27.58 30.31 29.66L21.38 29.66L21.38 35.06L28.01 35.06C26.71 37.87 25.56 40.10 24.91 41.04C23.69 43.27 22.61 44.64 21.31 45.00C22.03 46.51 22.97 49.32 23.33 50.54C24.55 49.97 26.64 49.68 39.74 47.88C40.32 49.18 40.82 50.40 41.18 51.41L45.79 49.18C45.14 50.69 44.57 52.06 43.78 53.35C45.00 54.50 46.94 57.17 47.66 58.39C48.53 57.02 49.25 55.58 49.97 54.00C50.90 59.62 52.20 65.52 54.22 71.06C51.70 76.61 48.31 81.22 43.70 84.82C44.93 85.82 46.87 88.20 47.59 89.50C51.48 86.18 54.65 82.22 57.10 77.76C59.40 82.08 62.28 86.04 65.95 89.14C66.74 87.62 68.62 85.18 69.77 84.10C65.59 81.00 62.50 76.54 60.05 71.57C63.29 63.43 65.23 53.78 66.38 42.48Z"/></svg>
