<svg xmlns="http://www.w3.org/2000/svg" xmlns:xlink="http://www.w3.org/1999/xlink" width="72.00000000000001" height="106.56000000000002"><path fill="red" stroke="red" d="M52.42 32.04C51.48 31.25 50.26 30.46 48.96 29.52C50.04 28.15 50.98 26.78 51.70 25.27L47.74 24.34C47.16 25.42 46.44 26.50 45.72 27.43C44.35 26.71 43.06 25.92 41.90 25.27L39.24 27.86C40.39 28.58 41.69 29.38 42.98 30.17C41.69 31.32 40.25 32.40 38.66 33.34C39.60 33.98 41.11 35.35 41.76 36.07C43.34 35.06 44.86 33.84 46.37 32.40C47.59 33.34 48.82 34.20 49.68 34.99ZM24.26 59.33L24.12 58.39L28.44 58.39L28.44 51.48L62.64 51.48L62.64 58.39L67.82 58.39L67.82 46.87L64.30 46.87C64.80 40.82 65.16 32.04 65.30 25.06L53.28 25.06L53.28 28.94L59.90 28.94L59.83 32.40L53.42 32.40L53.42 36.29L59.62 36.29L59.47 39.82L53.21 39.82L53.21 43.63L59.18 43.63C59.04 44.71 58.97 45.86 58.90 46.87L42.26 46.87C43.63 46.01 44.86 44.86 46.15 43.70C47.74 44.78 49.03 45.94 50.04 46.73L52.78 43.78C51.77 42.91 50.40 41.83 48.89 40.82C50.04 39.38 51.05 37.87 51.77 36.36L47.88 35.35C47.23 36.50 46.51 37.66 45.65 38.59C44.42 37.87 43.13 37.15 41.90 36.50L39.31 39.17C40.46 39.89 41.69 40.68 42.91 41.47C41.47 42.62 39.96 43.78 38.30 44.64C39.10 45.22 40.25 46.15 40.97 46.87L33.62 46.87L33.48 43.49L38.81 43.49L38.81 39.60L33.34 39.60L33.26 36.07L38.59 36.07L38.59 32.18L33.12 32.18L33.05 29.52C35.35 28.94 37.87 28.15 39.82 27.29L36.86 23.40C34.49 24.77 30.60 25.99 27.36 26.71L28.08 46.87L23.40 46.87L23.40 53.71L23.33 53.21L17.64 55.01L17.64 43.34L23.54 43.34L23.54 37.15L17.64 37.15L17.64 23.11L11.45 23.11L11.45 37.15L3.24 37.15L3.24 43.34L11.45 43.34L11.45 56.88C8.21 57.89 5.18 58.82 2.74 59.47L4.32 65.95L11.45 63.65L11.45 81.14C11.45 82.15 11.09 82.44 10.22 82.44C9.43 82.44 6.70 82.44 3.89 82.30C4.68 84.10 5.47 86.98 5.69 88.56C10.22 88.63 13.10 88.34 15.05 87.34C16.92 86.26 17.64 84.46 17.64 81.14L17.64 61.56ZM35.71 70.13L55.22 70.13L55.22 73.08L35.71 73.08ZM35.71 64.08L55.22 64.08L55.22 66.96L35.71 66.96ZM35.71 57.96L55.22 57.96L55.22 60.91L35.71 60.91ZM56.45 84.02C54.65 84.02 54.29 83.81 54.29 82.30L54.29 76.75L61.20 76.75L61.20 54.36L29.95 54.36L29.95 76.75L36.65 76.75C35.35 81.22 32.11 83.52 22.90 84.96C24.12 85.97 25.56 88.13 26.06 89.42C37.22 87.26 41.33 83.52 42.98 76.75L48.60 76.75L48.60 82.37C48.60 87.26 49.97 88.70 55.73 88.70L63.00 88.70C67.32 88.70 68.83 86.98 69.34 80.28C67.82 79.92 65.59 79.13 64.51 78.34C64.30 83.30 63.94 84.02 62.42 84.02Z"/></svg>
