<svg xmlns="http://www.w3.org/2000/svg" xmlns:xlink="http://www.w3.org/1999/xlink" width="72.00000000000001" height="106.56000000000002"><path fill="red" stroke="red" d="M11.52 39.31L17.93 39.31L17.93 43.85L11.52 43.85ZM29.88 39.31L29.88 43.85L23.83 43.85L23.83 39.31ZM23.83 50.54L23.83 48.02L25.99 48.02ZM57.24 36.22C56.16 39.74 54.58 42.70 52.49 45.36C49.97 42.41 48.02 39.31 46.66 36.22ZM17.93 59.76L23.83 59.76L23.83 51.41C27.00 53.14 30.67 55.51 32.54 57.31L35.35 53.50C33.55 51.84 29.88 49.54 26.78 48.02L35.42 48.02L35.42 40.97C36.79 42.05 38.81 44.28 39.67 45.43C40.97 44.14 42.19 42.70 43.42 41.11C44.78 43.85 46.58 46.66 48.74 49.32C45.22 52.27 40.75 54.43 35.57 56.02C36.79 57.10 38.66 59.62 39.38 60.84C44.50 58.97 49.03 56.59 52.70 53.35C56.23 56.59 60.48 59.26 65.45 60.98C66.24 59.47 68.04 56.95 69.19 55.80C64.30 54.36 60.12 52.06 56.74 49.39C59.76 45.79 61.99 41.47 63.58 36.22L68.26 36.22L68.26 30.82L49.18 30.82C50.04 28.80 50.76 26.64 51.34 24.55L45.36 23.11C43.49 30.10 40.03 36.50 35.42 40.61L35.42 35.14L23.83 35.14L23.83 32.04L36.94 32.04L36.94 27.14L23.83 27.14L23.83 23.11L17.93 23.11L17.93 27.14L4.39 27.14L4.39 32.04L17.93 32.04L17.93 35.14L6.26 35.14L6.26 48.02L15.77 48.02C12.46 51.41 7.56 54.72 3.02 56.38C4.25 57.38 5.98 59.33 6.84 60.62C10.58 58.90 14.69 55.80 17.93 52.42ZM39.17 76.82L58.75 76.82L58.75 71.71L39.17 71.71L39.17 67.10L63.94 67.10L63.94 61.56L8.21 61.56L8.21 67.10L32.54 67.10L32.54 81.72L21.24 81.72L21.24 70.34L14.90 70.34L14.90 81.72L3.60 81.72L3.60 87.34L68.47 87.34L68.47 81.72L39.17 81.72Z"/></svg>
