<svg xmlns="http://www.w3.org/2000/svg" xmlns:xlink="http://www.w3.org/1999/xlink" width="72.00000000000001" height="106.56000000000002"><path fill="red" stroke="red" d="M36.22 30.46L25.34 30.46C24.41 28.08 22.97 25.06 21.74 22.61L15.12 24.34C15.98 26.14 16.92 28.44 17.71 30.46L4.54 30.46L4.54 36.00L36.22 36.00ZM9.58 67.46C8.06 72.07 5.62 76.97 2.95 80.35C4.32 81.07 6.48 82.66 7.56 83.52C10.15 79.85 13.03 74.09 14.83 69.05ZM36.36 64.37L36.36 58.68L24.12 58.68L24.12 52.13L37.37 52.13L37.37 46.51L28.94 46.51C30.17 43.85 31.39 40.54 32.62 37.37L26.42 36.07C25.70 39.10 24.19 43.49 22.90 46.51L11.52 46.51L16.85 45.00C16.49 42.62 15.34 38.95 14.18 36.14L8.71 37.51C9.94 40.32 10.94 44.06 11.23 46.51L3.38 46.51L3.38 52.13L17.64 52.13L17.64 58.68L3.82 58.68L3.82 64.37L17.64 64.37L17.64 88.78L24.12 88.78L24.12 64.37ZM26.64 69.34C28.80 72.79 31.25 77.47 32.40 80.50L37.08 77.69C35.93 74.81 33.48 70.27 31.10 66.89ZM68.98 47.02L46.66 47.02L46.66 34.42C54.00 33.12 61.78 31.39 67.68 29.09L62.42 24.19C57.24 26.42 48.38 28.66 40.39 30.02L40.39 54.94C40.39 64.37 39.89 76.54 34.20 84.89C35.57 85.61 38.30 87.62 39.31 88.85C45.72 79.70 46.66 65.30 46.66 54.94L46.66 53.21L55.08 53.21L55.08 88.85L61.63 88.85L61.63 53.21L68.98 53.21Z"/></svg>
