<svg xmlns="http://www.w3.org/2000/svg" xmlns:xlink="http://www.w3.org/1999/xlink" width="72.00000000000001" height="106.56000000000002"><path fill="red" stroke="red" d="M47.09 35.14C46.08 37.37 44.50 40.32 43.13 42.62L27.36 42.62L29.45 41.54C28.58 39.67 26.78 37.15 24.84 35.14ZM12.31 48.38L59.40 48.38L59.40 54.79L65.95 54.79L65.95 42.62L50.18 42.62C51.48 40.82 52.85 38.88 54.29 36.94L48.82 35.14L65.95 35.14L65.95 29.38L41.11 29.38C40.25 27.22 38.81 24.48 37.44 22.32L30.74 24.26C31.61 25.85 32.54 27.65 33.34 29.38L5.98 29.38L5.98 35.14L21.82 35.14L18.14 36.72C19.73 38.45 21.38 40.68 22.54 42.62L5.98 42.62L5.98 54.79L12.31 54.79ZM67.97 62.64L67.97 56.88L41.40 56.88C40.75 54.72 39.38 51.91 38.02 49.82L30.89 51.26C31.75 52.99 32.69 55.01 33.41 56.88L4.03 56.88L4.03 62.64L23.40 62.64C21.89 72.43 18.22 79.78 2.23 83.52C3.67 84.82 5.40 87.48 6.05 89.21C18.22 85.97 24.19 80.71 27.43 73.73L52.42 73.73C51.70 79.13 50.90 81.65 49.90 82.51C49.18 83.09 48.31 83.16 46.94 83.16C45.29 83.16 40.90 83.09 36.72 82.73C37.80 84.31 38.59 86.69 38.74 88.42C43.13 88.63 47.38 88.70 49.68 88.56C52.20 88.42 54.07 87.98 55.66 86.54C57.74 84.67 58.75 80.35 59.76 70.78C59.90 69.91 60.05 68.18 60.05 68.18L29.38 68.18C29.81 66.38 30.17 64.58 30.46 62.64Z"/></svg>
