<svg xmlns="http://www.w3.org/2000/svg" xmlns:xlink="http://www.w3.org/1999/xlink" width="72.00000000000001" height="106.56000000000002"><path fill="red" stroke="red" d="M17.64 33.98L17.64 48.74L10.87 48.74L10.87 33.98ZM10.87 69.55L10.87 54.58L17.64 54.58L17.64 69.55ZM23.18 28.15L5.40 28.15L5.40 81.22L10.87 81.22L10.87 75.46L23.18 75.46ZM51.05 53.64L51.05 67.75L43.63 67.75L43.63 53.64ZM56.09 72.86L56.09 48.53L38.81 48.53L38.81 76.97L43.63 76.97L43.63 72.86ZM67.10 36.00L47.59 36.00C48.96 32.54 50.33 28.30 51.62 24.34L44.50 23.04C43.85 26.93 42.55 32.11 41.26 36.00L27.94 36.00L27.94 89.14L34.06 89.14L34.06 42.05L60.91 42.05L60.91 82.01C60.91 82.94 60.62 83.23 59.69 83.23C58.82 83.30 56.02 83.30 53.14 83.16C53.93 84.74 54.79 87.55 55.01 89.21C59.47 89.21 62.50 89.06 64.51 87.98C66.53 87.05 67.10 85.18 67.10 82.08Z"/></svg>
