<svg xmlns="http://www.w3.org/2000/svg" xmlns:xlink="http://www.w3.org/1999/xlink" width="72.00000000000001" height="106.56000000000002"><path fill="red" stroke="red" d="M49.18 36.72L22.61 36.72L22.61 31.32L49.18 31.32ZM49.18 47.59L22.61 47.59L22.61 41.98L49.18 41.98ZM55.87 25.70L16.20 25.70L16.20 53.14L55.87 53.14ZM26.71 63.07L26.71 69.12L12.89 69.12L12.89 63.07ZM12.89 81.00L12.89 74.30L26.71 74.30L26.71 81.00ZM6.62 89.14L12.89 89.14L12.89 86.69L26.71 86.69L26.71 88.70L33.26 88.70L33.26 57.31L6.62 57.31ZM45.14 81.00L45.14 74.30L59.11 74.30L59.11 81.00ZM59.11 63.07L59.11 69.12L45.14 69.12L45.14 63.07ZM38.74 57.31L38.74 89.14L45.14 89.14L45.14 86.69L59.11 86.69L59.11 88.70L65.81 88.70L65.81 57.31Z"/></svg>
