<svg xmlns="http://www.w3.org/2000/svg" xmlns:xlink="http://www.w3.org/1999/xlink" width="72.00000000000001" height="106.56000000000002"><path fill="red" stroke="red" d="M67.18 26.14L48.46 26.14L48.46 31.82L61.34 31.82L61.34 43.56L48.46 43.56L48.46 49.25L67.18 49.25ZM17.50 34.06L17.50 49.18L10.80 49.18L10.80 34.06ZM10.80 70.63L10.80 55.01L17.50 55.01L17.50 70.63ZM22.97 28.22L5.47 28.22L5.47 82.15L10.80 82.15L10.80 76.54L22.97 76.54ZM40.18 31.68L40.18 43.85L33.05 43.85L33.05 31.68ZM45.58 74.95L45.58 69.34L33.05 69.34L33.05 61.63L44.50 61.63L44.50 56.09L33.05 56.09L33.05 49.39L45.94 49.39L45.94 26.14L26.86 26.14L26.86 88.99L33.05 88.99L33.05 74.95ZM61.13 59.47C60.05 63.72 58.61 67.46 56.66 70.78C54.94 67.32 53.57 63.50 52.56 59.47ZM64.30 53.78L63.14 54.00L46.58 54.00L46.58 59.47L51.98 59.47L47.66 60.41C48.96 66.02 50.76 71.28 53.14 75.74C49.82 79.63 45.79 82.44 41.26 84.31C42.41 85.54 43.92 87.77 44.64 89.28C49.10 87.19 53.06 84.53 56.38 81.00C58.97 84.38 61.92 87.05 65.38 89.06C66.17 87.48 68.04 85.25 69.26 84.10C65.74 82.37 62.71 79.70 60.12 76.32C63.94 70.85 66.60 63.72 68.04 54.79Z"/></svg>
