<svg xmlns="http://www.w3.org/2000/svg" xmlns:xlink="http://www.w3.org/1999/xlink" width="72.00000000000001" height="106.56000000000002"><path fill="red" stroke="red" d="M51.70 65.02L51.70 70.42L20.95 70.42L20.95 65.02ZM20.95 80.64L20.95 75.17L51.70 75.17L51.70 80.64ZM14.04 89.42L20.95 89.42L20.95 85.82L51.70 85.82L51.70 89.14L58.82 89.14L58.82 59.98L14.04 59.98ZM18.43 40.54C20.95 43.27 23.76 47.02 24.91 49.54L29.23 46.87C28.01 44.35 25.13 40.75 22.46 38.16ZM46.08 49.68C48.31 47.38 51.05 43.92 53.42 40.61L48.60 38.38C47.02 41.11 44.14 45.14 41.98 47.59ZM56.16 50.54L38.95 50.54L38.95 37.51L56.16 37.51ZM16.06 37.51L32.62 37.51L32.62 50.54L16.06 50.54ZM48.67 32.33C50.69 30.02 52.85 27.22 54.79 24.55L47.95 22.61C46.51 25.56 43.85 29.45 41.47 32.33L24.77 32.33L29.38 30.46C28.08 28.22 25.49 25.06 23.40 22.75L17.64 24.98C19.51 27.14 21.67 30.24 22.90 32.33L9.36 32.33L9.36 55.80L63.22 55.80L63.22 32.33Z"/></svg>
