<svg xmlns="http://www.w3.org/2000/svg" xmlns:xlink="http://www.w3.org/1999/xlink" width="72.00000000000001" height="106.56000000000002"><path fill="red" stroke="red" d="M28.58 37.15L28.58 43.27L13.10 43.27L13.10 37.15ZM13.10 55.30L13.10 48.96L28.58 48.96L28.58 55.30ZM35.28 80.86C33.62 76.10 29.59 68.47 25.99 62.86L20.23 65.30C21.67 67.61 23.11 70.27 24.55 73.01L13.10 77.62L13.10 61.34L35.14 61.34L35.14 31.18L25.70 31.18C24.91 28.94 23.33 25.85 21.89 23.47L15.34 24.84C16.42 26.71 17.50 29.16 18.29 31.18L6.41 31.18L6.41 76.75C6.41 80.28 4.68 82.30 3.38 83.45C4.46 84.46 6.26 86.98 6.91 88.42C8.57 87.05 11.16 85.68 27.22 78.70C28.01 80.64 28.73 82.30 29.16 83.81ZM46.44 60.19C46.58 57.31 46.66 54.58 46.66 52.06L46.66 48.96L59.47 48.96L59.47 60.19ZM59.47 32.54L59.47 42.98L46.66 42.98L46.66 32.54ZM65.95 26.50L40.25 26.50L40.25 52.06C40.25 62.42 39.67 76.18 32.98 85.61C34.63 86.33 37.37 88.06 38.52 89.21C42.91 82.94 45.07 74.45 45.94 66.24L59.47 66.24L59.47 80.64C59.47 81.72 59.04 82.08 57.96 82.08C57.02 82.08 53.57 82.15 50.11 82.01C51.05 83.74 51.84 86.83 52.20 88.63C57.46 88.63 60.84 88.49 63.07 87.34C65.23 86.26 65.95 84.24 65.95 80.64Z"/></svg>
