<svg xmlns="http://www.w3.org/2000/svg" xmlns:xlink="http://www.w3.org/1999/xlink" width="72.00000000000001" height="106.56000000000002"><path fill="red" stroke="red" d="M51.26 33.05C50.40 30.17 48.31 25.85 46.58 22.46L40.25 24.26C41.98 27.65 43.92 32.26 44.78 35.21ZM68.11 35.28L29.09 35.28L29.09 41.62L68.11 41.62ZM29.66 59.76C28.22 57.67 22.25 49.39 19.87 46.51L19.87 43.92L26.93 43.92L26.93 37.73L19.87 37.73L19.87 23.04L13.68 23.04L13.68 37.73L3.89 37.73L3.89 43.92L13.25 43.92C11.02 52.63 6.77 62.35 2.23 67.54C3.31 69.26 4.82 72.14 5.40 74.02C8.42 69.98 11.38 63.86 13.68 57.17L13.68 89.14L19.87 89.14L19.87 55.37C22.10 58.90 24.41 62.93 25.63 65.38ZM60.77 82.80C60.26 82.80 59.90 82.73 59.62 82.44C59.33 82.15 59.26 81.14 59.26 79.42L59.26 48.17L34.27 48.17L34.27 61.13C34.27 68.76 32.98 78.12 22.68 84.60C23.98 85.61 26.35 88.34 27.14 89.78C38.74 82.44 40.90 70.49 40.90 61.27L40.90 54.43L52.63 54.43L52.63 79.42C52.63 84.53 53.14 85.97 54.29 87.12C55.44 88.20 57.31 88.70 58.82 88.70L62.64 88.70C64.15 88.70 65.74 88.42 66.82 87.62C67.82 86.98 68.54 85.90 68.98 84.10C69.41 82.37 69.62 77.76 69.70 73.94C68.04 73.44 65.95 72.36 64.66 71.28C64.66 75.38 64.58 78.62 64.44 80.06C64.30 81.43 64.08 82.15 63.79 82.44C63.50 82.73 62.93 82.80 62.42 82.80Z"/></svg>
