<svg xmlns="http://www.w3.org/2000/svg" xmlns:xlink="http://www.w3.org/1999/xlink" width="72.00000000000001" height="106.56000000000002"><path fill="red" stroke="red" d="M28.66 58.68C27.50 56.66 22.18 48.38 20.23 45.86L20.23 42.91L28.30 42.91L28.30 36.72L20.23 36.72L20.23 23.18L14.18 23.18L14.18 36.72L3.60 36.72L3.60 42.91L13.61 42.91C11.52 52.20 7.20 63.00 2.59 68.69C3.74 70.42 5.33 73.44 5.98 75.31C9.00 70.99 11.95 64.30 14.18 57.10L14.18 89.14L20.23 89.14L20.23 54.14C21.96 57.46 23.69 61.06 24.62 63.29ZM37.51 44.78L56.74 44.78L56.74 52.27L37.51 52.27ZM56.74 32.04L56.74 39.31L37.51 39.31L37.51 32.04ZM62.93 59.76C60.48 62.14 56.45 65.23 53.06 67.54C51.55 64.66 50.26 61.49 49.25 58.10L63.22 58.10L63.22 26.21L31.03 26.21L31.03 78.84C31.03 81.79 29.66 83.09 28.44 83.81C29.45 84.96 30.89 87.77 31.32 89.28C32.76 88.27 35.21 87.41 49.61 83.66C49.39 82.22 49.25 79.56 49.32 77.76L37.51 80.57L37.51 58.10L43.42 58.10C47.09 72.29 53.57 83.23 64.94 88.70C65.88 86.98 67.97 84.31 69.41 83.02C63.94 80.78 59.47 77.04 56.02 72.29C59.62 70.13 63.94 67.10 67.39 64.37Z"/></svg>
