<svg xmlns="http://www.w3.org/2000/svg" xmlns:xlink="http://www.w3.org/1999/xlink" width="72.00000000000001" height="106.56000000000002"><path fill="red" stroke="red" d="M19.08 42.91L25.85 42.91L25.85 36.72L19.08 36.72L19.08 23.18L12.82 23.18L12.82 36.72L3.96 36.72L3.96 42.91L12.24 42.91C10.37 52.13 6.55 63.07 2.52 68.83C3.60 70.56 5.11 73.58 5.76 75.53C8.35 71.35 10.87 65.09 12.82 58.32L12.82 89.14L19.08 89.14L19.08 53.71C20.88 57.10 22.75 60.84 23.62 63.14L27.58 58.46C26.50 56.45 21.02 48.31 19.08 45.58ZM57.46 67.97L57.46 80.14L37.51 80.14L37.51 67.97ZM30.96 89.28L37.51 89.28L37.51 86.18L57.46 86.18L57.46 88.99L64.30 88.99L64.30 61.92L30.96 61.92ZM68.18 39.53L68.18 33.19L51.19 33.19L51.19 23.11L44.28 23.11L44.28 33.19L27.72 33.19L27.72 39.53L44.28 39.53L44.28 48.96L29.74 48.96L29.74 55.22L65.74 55.22L65.74 48.96L51.19 48.96L51.19 39.53Z"/></svg>
