<svg xmlns="http://www.w3.org/2000/svg" xmlns:xlink="http://www.w3.org/1999/xlink" width="72.00000000000001" height="106.56000000000002"><path fill="red" stroke="red" d="M44.21 41.90C43.92 63.22 43.56 70.70 42.62 72.43C42.05 73.22 41.54 73.44 40.54 73.37C39.53 73.37 37.37 73.37 34.92 73.15C35.78 74.66 36.36 76.97 36.43 78.55C39.17 78.70 41.76 78.70 43.42 78.41C45.29 78.19 46.58 77.54 47.74 75.89C48.24 75.10 48.60 73.73 48.89 71.64C50.11 72.65 51.70 74.45 52.34 75.53C55.30 73.08 57.89 69.91 60.05 65.95C61.70 68.83 62.93 71.50 63.86 73.73L68.26 70.34C67.03 67.46 65.16 63.79 62.78 60.12C64.87 54.72 66.38 48.31 67.32 40.97L63.94 39.96L62.86 40.10L51.41 40.10L51.41 45.22L61.20 45.22C60.62 48.53 59.90 51.62 58.97 54.36C57.53 52.34 56.02 50.40 54.50 48.53L50.47 51.48C52.56 54.22 54.72 57.24 56.66 60.34C54.65 64.58 52.06 68.04 49.03 70.56C49.61 65.45 49.82 56.09 50.04 39.53L50.04 36.79L42.34 36.79C42.98 34.78 43.70 32.54 44.35 30.46L67.25 30.46L67.25 24.70L24.19 24.70L24.19 30.46L38.30 30.46C37.08 34.49 35.64 38.81 34.27 41.90ZM28.58 63.36L28.58 48.53L33.70 48.53L33.70 63.36ZM38.02 70.56L38.02 43.49L24.55 43.49L24.55 72.36L28.58 72.36L28.58 68.18L33.70 68.18L33.70 70.56ZM24.19 57.67C23.18 55.80 18.72 48.60 16.99 46.01L16.99 42.34L22.68 42.34L22.68 36.43L16.99 36.43L16.99 23.04L11.09 23.04L11.09 36.43L3.89 36.43L3.89 42.34L11.09 42.34L11.09 43.92C9.22 52.92 5.69 63.22 1.94 68.76C2.95 70.49 4.39 73.44 5.04 75.38C7.27 71.71 9.29 66.31 11.09 60.48L11.09 89.06L16.99 89.06L16.99 54.29C18.43 57.17 19.80 60.34 20.52 62.21ZM20.88 80.42L20.88 86.40L68.69 86.40L68.69 80.42Z"/></svg>
