<svg xmlns="http://www.w3.org/2000/svg" xmlns:xlink="http://www.w3.org/1999/xlink" width="72.00000000000001" height="106.56000000000002"><path fill="red" stroke="red" d="M24.48 58.46C23.47 56.59 18.58 48.24 17.06 45.94L17.06 43.99L23.11 43.99L23.11 37.94L17.06 37.94L17.06 23.11L11.23 23.11L11.23 37.94L3.82 37.94L3.82 43.99L11.09 43.99C9.43 53.35 5.98 64.30 2.30 70.49C3.24 72.00 4.75 74.52 5.47 76.32C7.63 72.79 9.50 67.68 11.23 62.21L11.23 89.21L17.06 89.21L17.06 55.01C18.58 58.32 20.16 61.85 20.95 64.01ZM39.89 37.51L39.89 43.49L30.74 43.49L30.74 37.51ZM30.74 55.80L30.74 48.67L39.89 48.67L39.89 55.80ZM35.86 66.10C36.86 68.33 37.80 70.85 38.66 73.37L30.74 76.75L30.74 61.06L45.43 61.06L45.43 32.26L37.01 32.26L39.67 30.67C38.52 28.58 36.22 25.49 33.98 23.26L29.09 25.78C30.60 27.65 32.54 30.24 33.62 32.26L24.98 32.26L24.98 75.17C24.98 78.70 22.97 81.00 21.67 82.01C22.68 82.94 24.26 85.18 24.84 86.40C26.14 85.25 28.22 84.02 40.39 78.48C41.04 80.71 41.47 82.87 41.76 84.53L47.02 82.30C46.08 77.69 43.34 70.06 40.68 64.30ZM64.01 27.58L63.14 27.79L49.10 27.79L49.10 88.92L54.72 88.92L54.72 33.41L61.34 33.41C60.26 38.74 58.90 44.86 57.38 51.26C61.27 58.54 62.86 63.43 62.86 67.68C62.93 70.20 62.50 72.79 61.56 73.58C61.06 74.02 60.41 74.16 59.54 74.23C58.68 74.23 57.31 74.23 55.80 74.09C56.74 75.67 57.24 78.05 57.31 79.56C58.90 79.63 60.62 79.63 61.92 79.42C63.36 79.20 64.58 78.77 65.52 78.05C67.54 76.32 68.47 72.43 68.47 67.90C68.47 63.22 66.67 57.82 62.71 50.54C64.80 43.06 66.67 35.86 68.18 29.66Z"/></svg>
