<svg xmlns="http://www.w3.org/2000/svg" xmlns:xlink="http://www.w3.org/1999/xlink" width="72.00000000000001" height="106.56000000000002"><path fill="red" stroke="red" d="M60.70 43.27C59.98 50.54 58.82 57.31 57.02 63.22C55.30 57.74 53.93 51.62 52.92 45.29C53.14 44.57 53.35 43.99 53.57 43.27ZM38.52 38.66L28.01 38.66L28.01 34.06L38.52 34.06ZM38.52 47.74L28.01 47.74L28.01 43.20L38.52 43.20ZM69.12 43.27L69.12 37.37L54.94 37.37C55.80 32.98 56.45 28.44 57.02 23.83L51.26 23.11C50.18 34.42 48.10 45.14 43.99 52.49L43.99 29.30L34.63 29.30C35.35 27.50 36.00 25.56 36.72 23.54L30.31 23.04C30.02 24.77 29.45 27.22 28.87 29.30L22.75 29.30L22.75 52.56L34.13 52.56L29.02 53.71C29.74 55.08 30.46 56.66 31.03 58.25L20.74 58.25L23.26 55.08C22.25 53.42 17.86 47.16 16.27 45.29L16.27 42.62L21.24 42.62L21.24 36.72L16.27 36.72L16.27 23.11L10.80 23.11L10.80 36.72L4.25 36.72L4.25 42.62L10.80 42.62L10.80 43.42C9.00 51.98 5.76 62.06 2.23 67.39C3.24 68.98 4.68 71.71 5.33 73.58C7.34 70.27 9.14 65.38 10.80 60.12L10.80 89.21L16.27 89.21L16.27 52.78C17.64 55.30 19.01 58.03 19.66 59.62L20.66 58.39L20.66 63.50L26.71 63.50C26.28 73.44 24.84 80.71 18.00 85.03C19.15 85.90 20.88 87.91 21.53 89.21C27.36 85.46 30.02 79.99 31.25 73.01L38.16 73.01C37.66 79.34 37.15 81.94 36.36 82.80C35.93 83.30 35.42 83.45 34.70 83.45C33.84 83.45 32.18 83.38 30.17 83.23C30.89 84.60 31.39 86.62 31.46 88.13C33.84 88.27 36.07 88.27 37.37 88.06C38.95 87.98 39.96 87.48 40.97 86.33C42.48 84.74 43.13 80.42 43.85 70.27C43.92 69.48 43.99 68.04 43.99 68.04L31.97 68.04C32.11 66.60 32.18 65.02 32.26 63.50L45.72 63.50L45.72 58.25L37.22 58.25C36.50 56.45 35.42 54.36 34.56 52.56L43.99 52.56C43.70 53.06 43.34 53.57 43.06 54.07C44.35 55.08 46.51 57.31 47.30 58.39C48.24 56.95 49.03 55.37 49.82 53.78C50.90 59.98 52.34 65.74 54.22 70.92C51.55 76.75 47.95 81.43 43.20 84.53C44.71 85.75 46.66 87.77 47.59 89.21C51.41 86.33 54.58 82.51 57.02 77.90C59.26 82.37 61.92 86.26 65.16 89.28C66.17 87.48 68.18 85.25 69.70 84.10C65.81 81.00 62.64 76.54 60.12 71.14C63.07 63.14 64.94 53.64 65.88 43.27Z"/></svg>
