<svg xmlns="http://www.w3.org/2000/svg" xmlns:xlink="http://www.w3.org/1999/xlink" width="72.00000000000001" height="106.56000000000002"><path fill="red" stroke="red" d="M59.54 56.81C66.10 56.81 67.90 54.14 68.69 44.78C66.89 44.28 64.22 43.20 62.71 42.12C62.35 49.54 61.85 50.83 59.11 50.83L48.74 50.83C45.65 50.83 45.07 50.40 45.07 47.95L45.07 38.74L61.99 38.74L61.99 32.83L45.07 32.83L45.07 23.69L38.30 23.69L38.30 48.02C38.30 54.86 40.25 56.81 47.88 56.81ZM24.55 59.83C29.38 61.63 35.57 64.66 38.52 66.89L42.12 61.56C39.02 59.26 32.76 56.52 28.01 55.01ZM17.78 49.32L17.78 38.74L34.49 38.74L34.49 32.83L17.78 32.83L17.78 23.83L11.02 23.83L11.02 45.58C11.02 48.53 8.42 50.18 6.70 50.90C7.85 52.56 9.22 55.87 9.79 57.60C11.66 56.66 14.54 56.09 34.92 52.56C34.85 51.19 34.85 48.46 34.99 46.66ZM11.23 63.43C9.86 70.06 7.20 76.75 2.45 80.71L7.99 84.60C13.25 79.92 15.77 72.29 17.28 65.16ZM32.33 82.22C31.68 82.22 31.10 82.22 30.60 82.15C41.26 76.68 50.62 69.26 56.88 59.62L50.69 57.24C45.50 65.45 37.37 71.93 27.65 76.75L27.65 63.72L21.10 63.72L21.10 79.70L21.10 79.78C17.21 81.29 13.18 82.66 9.14 83.74C10.44 84.96 12.60 87.70 13.39 89.21C16.49 88.20 19.51 87.05 22.61 85.90C24.05 87.70 26.78 88.34 31.75 88.34L45.72 88.34C52.63 88.34 54.58 86.04 55.51 76.75C53.71 76.32 50.90 75.31 49.39 74.23C49.10 81.14 48.53 82.22 45.22 82.22ZM52.63 67.03C57.24 72.50 61.92 79.99 63.58 84.89L69.77 81.79C67.97 76.75 63.07 69.55 58.39 64.30Z"/></svg>
