<svg xmlns="http://www.w3.org/2000/svg" xmlns:xlink="http://www.w3.org/1999/xlink" width="72.00000000000001" height="106.56000000000002"><path fill="red" stroke="red" d="M66.89 34.27L66.89 29.16L23.33 29.16C24.05 27.72 24.84 26.35 25.49 24.84L18.65 23.11C15.48 30.46 9.72 37.51 3.46 41.90C5.18 42.84 8.14 44.93 9.43 46.08C13.18 43.06 16.85 38.95 20.09 34.27ZM61.63 44.21L61.63 39.17L18.07 39.17L18.07 44.21ZM15.05 62.71C15.05 69.34 13.25 78.05 3.24 84.46C4.75 85.32 7.34 87.55 8.35 88.78C18.79 81.72 21.46 70.99 21.46 62.93L21.46 58.54L15.05 58.54ZM32.90 88.20L39.31 88.20L39.31 58.61L32.90 58.61ZM10.58 49.32L10.58 54.50L50.47 54.50C50.62 78.48 51.62 89.14 62.57 89.21C67.54 89.14 68.83 85.75 69.34 76.82C67.90 75.89 66.17 74.09 64.87 72.65C64.73 78.41 64.37 82.73 62.93 82.80C57.24 82.80 57.02 72.43 57.17 49.32Z"/></svg>
