<svg xmlns="http://www.w3.org/2000/svg" xmlns:xlink="http://www.w3.org/1999/xlink" width="72.00000000000001" height="106.56000000000002"><path fill="red" stroke="red" d="M49.61 32.33C43.56 29.02 31.75 25.20 23.18 23.26L19.87 28.80C28.66 31.03 40.32 35.28 46.08 38.59ZM23.98 51.41L22.82 51.62L4.25 51.62L4.25 57.96L19.94 57.96C16.49 67.68 10.01 75.38 2.66 79.78C4.25 80.78 6.84 83.38 7.99 84.82C16.92 78.98 24.84 68.11 28.44 53.28ZM60.84 42.98C56.95 47.52 50.90 53.14 45.50 57.24C43.20 53.06 41.40 48.38 39.89 43.42L39.89 37.66L13.68 37.66L13.68 44.06L32.69 44.06L32.69 80.93C32.69 82.15 32.33 82.51 31.03 82.58C29.81 82.58 25.42 82.58 21.46 82.44C22.46 84.24 23.54 87.26 23.83 89.14C29.74 89.14 33.77 89.06 36.43 87.91C39.02 86.83 39.89 84.89 39.89 81.07L39.89 59.69C45.43 71.06 53.50 79.85 64.80 84.82C65.88 83.02 67.97 80.28 69.48 78.91C60.70 75.60 53.86 69.77 48.67 62.35C54.43 58.39 61.42 52.63 66.96 47.45Z"/></svg>
