<svg xmlns="http://www.w3.org/2000/svg" xmlns:xlink="http://www.w3.org/1999/xlink" width="72.00000000000001" height="106.56000000000002"><path fill="red" stroke="red" d="M23.69 32.83C20.95 30.10 15.26 26.57 10.87 24.26L6.84 28.87C11.38 31.25 16.85 35.06 19.37 37.80ZM20.52 51.05C17.64 48.31 11.66 44.78 7.06 42.70L3.24 47.45C7.92 49.82 13.75 53.64 16.49 56.38ZM11.09 88.99C15.77 82.15 21.02 73.51 25.20 66.02L20.59 61.20C15.84 69.41 9.79 78.62 5.54 83.95ZM69.05 28.87L26.28 28.87L26.28 35.57L48.46 35.57L48.46 80.28C48.46 81.58 47.95 82.01 46.51 82.08C45.00 82.08 39.74 82.15 34.85 81.86C35.93 83.81 37.08 86.90 37.44 88.85C44.14 88.85 48.67 88.78 51.55 87.62C54.29 86.47 55.30 84.38 55.30 80.28L55.30 35.57L69.05 35.57Z"/></svg>
