<svg xmlns="http://www.w3.org/2000/svg" xmlns:xlink="http://www.w3.org/1999/xlink" width="72.00000000000001" height="106.56000000000002"><path fill="red" stroke="red" d="M24.48 32.40C21.38 29.95 15.26 26.21 10.87 23.83L6.91 28.51C11.38 31.25 17.42 35.14 20.38 37.66ZM20.09 50.62C17.06 48.53 11.02 45.43 6.77 43.49L3.17 48.46C7.49 50.62 13.46 54.00 16.34 56.23ZM11.23 88.27C15.48 81.50 20.23 72.94 23.98 65.45L19.15 60.98C14.98 69.19 9.43 78.34 5.54 83.81ZM68.98 51.34L49.39 51.34L49.39 33.41L65.88 33.41L65.88 26.78L26.64 26.78L26.64 33.41L42.26 33.41L42.26 51.34L23.76 51.34L23.76 58.03L42.26 58.03L42.26 89.14L49.39 89.14L49.39 58.03L68.98 58.03Z"/></svg>
