<svg xmlns="http://www.w3.org/2000/svg" xmlns:xlink="http://www.w3.org/1999/xlink" width="72.00000000000001" height="106.56000000000002"><path fill="red" stroke="red" d="M23.69 31.32C20.74 28.80 14.76 25.63 10.08 23.90L6.41 28.87C11.16 30.82 16.99 34.20 19.80 36.79ZM19.15 51.55C16.42 49.10 10.80 45.72 6.55 43.63L2.59 48.24C6.91 50.47 12.38 54.14 14.98 56.74ZM10.73 88.06C14.69 81.36 19.22 72.86 22.75 65.30L17.71 61.06C13.75 69.26 8.57 78.34 4.90 83.81ZM38.66 25.99L32.04 25.99L32.04 33.84C32.04 39.82 30.67 46.94 21.31 52.20C22.61 53.14 24.98 55.94 25.85 57.38C36.36 51.34 38.66 41.76 38.66 34.06ZM57.31 64.30L57.31 78.98L35.50 78.98L35.50 64.30ZM29.02 89.35L35.50 89.35L35.50 85.18L57.31 85.18L57.31 89.06L64.08 89.06L64.08 58.10L29.02 58.10ZM59.62 48.38C58.39 48.38 58.18 47.59 58.18 45.43L58.18 25.92L51.48 25.92L51.48 45.29C51.48 51.34 52.78 53.93 58.82 53.93L64.58 53.93C66.17 53.93 67.90 53.86 68.90 53.42C68.69 51.98 68.54 49.75 68.40 48.02C67.32 48.31 65.59 48.38 64.44 48.38Z"/></svg>
