<svg xmlns="http://www.w3.org/2000/svg" xmlns:xlink="http://www.w3.org/1999/xlink" width="72.00000000000001" height="106.56000000000002"><path fill="red" stroke="red" d="M22.46 32.11C19.87 29.45 14.47 25.99 10.22 23.90L6.19 28.51C10.58 30.82 15.77 34.56 18.29 37.22ZM19.44 50.54C16.63 48.10 11.02 44.86 6.55 42.77L2.88 47.66C7.34 49.90 12.89 53.42 15.48 55.94ZM16.34 61.27C12.82 69.55 8.14 78.84 4.82 84.31L10.73 88.42C14.26 81.50 18.22 72.79 21.31 65.16ZM57.31 82.44C55.73 82.44 55.44 82.08 55.44 79.99L55.44 58.82L68.98 58.82L68.98 52.42L49.46 52.42L49.46 40.75L66.10 40.75L66.10 34.49L49.46 34.49L49.46 23.11L42.77 23.11L42.77 34.49L35.50 34.49C36.36 31.54 37.08 28.51 37.73 25.42L30.96 24.19C29.38 33.12 26.42 42.05 22.10 47.59C23.76 48.38 26.64 50.26 28.01 51.19C30.02 48.38 31.82 44.78 33.34 40.75L42.77 40.75L42.77 52.42L22.61 52.42L22.61 58.82L34.42 58.82C33.55 70.99 31.61 79.27 19.01 83.95C20.52 85.10 22.32 87.62 23.11 89.28C37.22 83.45 40.03 73.37 41.11 58.82L48.96 58.82L48.96 79.99C48.96 86.40 50.40 88.34 56.23 88.34L62.78 88.34C68.04 88.34 69.55 85.39 70.13 74.59C68.40 74.09 65.74 73.01 64.30 71.93C64.08 80.93 63.79 82.44 62.14 82.44Z"/></svg>
