<svg xmlns="http://www.w3.org/2000/svg" xmlns:xlink="http://www.w3.org/1999/xlink" width="72.00000000000001" height="106.56000000000002"><path fill="red" stroke="red" d="M10.30 87.91C13.90 81.65 18.00 73.66 21.17 66.67L16.20 62.57C12.67 70.13 7.92 78.62 4.61 83.74ZM18.65 50.11C15.84 48.24 10.15 45.29 6.19 43.49L2.59 48.38C6.62 50.47 12.24 53.64 14.98 55.73ZM5.98 28.51C10.22 31.03 15.91 34.78 18.65 37.22L22.75 31.90C19.87 29.66 13.97 26.14 9.94 23.90ZM49.75 69.26L38.45 69.26L38.45 60.48L49.75 60.48ZM57.24 47.74L57.24 42.26L47.23 42.26L47.23 34.42L41.33 34.42L41.33 42.26L31.32 42.26L31.32 47.74L41.33 47.74L41.33 55.51L33.19 55.51L33.19 74.30L55.22 74.30L55.22 55.51L47.23 55.51L47.23 47.74ZM28.94 79.42L28.94 32.33L59.98 32.33L59.98 79.42ZM22.75 26.42L22.75 89.21L28.94 89.21L28.94 85.25L59.98 85.25L59.98 88.63L66.38 88.63L66.38 26.42Z"/></svg>
