<svg xmlns="http://www.w3.org/2000/svg" xmlns:xlink="http://www.w3.org/1999/xlink" width="72.00000000000001" height="106.56000000000002"><path fill="red" stroke="red" d="M22.18 32.98C19.44 30.67 13.75 27.00 9.79 24.55L6.19 29.45C10.30 32.11 15.84 36.00 18.50 38.45ZM18.86 51.62C15.98 49.32 10.15 45.50 6.12 42.91L2.59 47.66C6.70 50.62 12.38 54.65 15.19 57.17ZM14.54 60.91C11.45 68.90 7.34 77.90 4.39 83.45L9.79 87.77C13.10 81.00 16.70 72.43 19.37 65.30ZM41.83 60.55C41.62 62.93 41.33 65.16 40.90 67.10L33.12 67.10L33.12 58.10C34.42 58.75 36.14 60.12 37.01 60.91C39.74 58.97 42.48 56.38 44.86 53.50C48.60 55.73 52.63 58.61 54.72 60.77L57.82 57.02C55.58 54.94 51.19 52.06 47.38 49.90C48.10 48.74 48.74 47.59 49.32 46.37L47.02 45.79L58.39 45.79L58.39 67.10L47.45 67.10C47.81 65.09 48.10 62.86 48.31 60.55ZM47.52 34.20C46.30 36.36 44.93 38.52 43.56 40.32L31.46 40.32C33.19 38.30 34.85 36.29 36.29 34.20ZM33.12 45.79L43.92 45.79C41.54 50.40 37.58 54.58 33.12 57.53ZM69.05 67.10L64.44 67.10L64.44 40.32L50.33 40.32C52.56 37.37 54.65 34.06 56.16 31.18L51.98 28.44L50.98 28.73L39.82 28.73C40.68 27.22 41.54 25.85 42.19 24.41L35.71 23.26C32.76 29.38 27.43 37.15 19.80 42.77C21.24 43.70 23.26 45.79 24.26 47.23C25.34 46.37 26.28 45.43 27.29 44.50L27.29 67.10L20.88 67.10L20.88 72.58L39.10 72.58C36.43 78.19 31.03 81.79 19.37 83.95C20.59 85.10 22.10 87.55 22.61 89.14C36.94 86.11 43.13 80.86 46.01 72.58L50.69 72.58L46.80 76.25C52.78 80.28 60.84 86.04 64.80 89.42L68.98 85.03C64.73 81.65 56.59 76.32 50.90 72.58L69.05 72.58Z"/></svg>
