<svg xmlns="http://www.w3.org/2000/svg" xmlns:xlink="http://www.w3.org/1999/xlink" width="72.00000000000001" height="106.56000000000002"><path fill="red" stroke="red" d="M21.60 32.11C18.86 29.88 13.68 26.42 10.01 24.12L5.76 28.51C9.58 31.10 14.69 34.85 17.21 37.15ZM18.72 50.83C16.06 48.60 10.73 45.36 6.98 43.20L2.81 47.74C6.70 50.11 11.95 53.71 14.47 55.94ZM14.04 61.85C11.09 69.98 7.06 79.27 4.18 84.82L10.30 88.42C13.39 81.65 16.85 73.01 19.51 65.52ZM29.23 70.34C29.38 68.54 29.38 66.74 29.38 65.16L29.38 65.09L39.17 65.09L39.17 70.34ZM39.17 55.22L39.17 60.19L29.38 60.19L29.38 55.22ZM44.78 49.97L23.54 49.97L23.54 65.09C23.54 71.50 23.26 79.78 19.51 85.82C20.88 86.47 23.47 88.27 24.48 89.35C26.93 85.39 28.15 80.35 28.80 75.31L39.17 75.31L39.17 82.44C39.17 83.16 38.88 83.30 38.16 83.38C37.51 83.38 35.06 83.45 32.62 83.30C33.48 84.82 34.27 87.41 34.49 88.99C38.16 88.99 40.68 88.92 42.55 87.91C44.35 86.98 44.78 85.25 44.78 82.51ZM59.62 82.15C59.62 83.02 59.40 83.23 58.46 83.23C57.53 83.30 54.58 83.30 51.41 83.23C52.27 84.82 52.99 87.34 53.28 88.92C57.60 88.92 60.70 88.85 62.71 87.84C64.73 86.98 65.30 85.32 65.30 82.22L65.30 48.82L59.62 48.82ZM54.86 51.55L49.61 51.55L49.61 77.40L54.86 77.40ZM32.62 40.39C36.94 37.87 41.04 34.85 44.57 31.54C48.74 35.14 53.21 38.02 58.03 40.39ZM44.42 22.75C38.88 29.95 28.30 36.29 18.43 39.74C20.09 41.26 21.89 43.56 22.90 45.22C25.34 44.21 27.79 43.06 30.24 41.69L30.24 45.72L59.40 45.72L59.40 41.04C61.49 42.05 63.79 42.98 66.02 43.92C66.82 41.98 68.54 39.82 70.13 38.45C62.06 35.86 54.58 32.69 48.38 27.65C49.03 26.93 49.61 26.21 50.18 25.49Z"/></svg>
