<svg xmlns="http://www.w3.org/2000/svg" xmlns:xlink="http://www.w3.org/1999/xlink" width="72.00000000000001" height="106.56000000000002"><path fill="red" stroke="red" d="M19.44 32.47C17.28 30.02 12.60 26.50 9.00 24.12L4.75 28.08C8.42 30.67 12.74 34.42 14.90 37.01ZM17.35 50.47C14.98 48.17 10.01 44.93 6.34 42.84L2.38 47.23C6.12 49.54 10.94 53.06 13.18 55.37ZM9.79 88.63C12.60 81.50 15.84 72.43 18.14 64.51L12.82 61.13C10.22 69.70 6.55 79.49 3.89 85.32ZM26.57 55.73L37.80 55.73L37.80 60.70L26.57 60.70ZM26.57 46.51L37.80 46.51L37.80 51.26L26.57 51.26ZM44.93 76.61L44.93 70.70L35.35 70.70L35.35 65.38L43.42 65.38L43.42 41.83L35.35 41.83L35.35 36.65L44.64 36.65L44.64 30.89L35.35 30.89L35.35 23.33L29.23 23.33L29.23 30.89L19.94 30.89L19.94 36.65L29.23 36.65L29.23 41.83L21.17 41.83L21.17 65.38L29.23 65.38L29.23 70.70L18.72 70.70L18.72 76.61L29.23 76.61L29.23 89.21L35.35 89.21L35.35 76.61ZM53.21 58.97C53.28 57.38 53.28 55.94 53.28 54.50L53.28 48.24L61.06 48.24L61.06 58.97ZM61.06 31.82L61.06 42.19L53.28 42.19L53.28 31.82ZM67.03 25.78L47.38 25.78L47.38 54.50C47.38 64.44 46.80 77.11 40.68 85.82C42.12 86.47 44.64 88.34 45.65 89.42C50.33 82.87 52.20 73.66 52.92 64.94L61.06 64.94L61.06 81.29C61.06 82.30 60.77 82.58 59.83 82.66C58.97 82.66 56.09 82.66 53.21 82.51C54.07 84.24 54.86 87.26 55.08 88.92C59.54 88.99 62.50 88.78 64.51 87.70C66.46 86.69 67.03 84.67 67.03 81.43Z"/></svg>
