<svg xmlns="http://www.w3.org/2000/svg" xmlns:xlink="http://www.w3.org/1999/xlink" width="72.00000000000001" height="106.56000000000002"><path fill="red" stroke="red" d="M41.26 34.70L26.78 34.70L26.78 38.81L63.07 38.81L63.07 34.70L47.74 34.70L47.74 31.68L67.25 31.68L67.25 27.58L47.74 27.58L47.74 23.11L41.26 23.11L41.26 27.58L23.18 27.58L23.18 31.68L41.26 31.68ZM65.09 52.42C66.10 49.82 67.46 45.86 68.40 42.41L64.15 41.26L63.14 41.54L21.96 41.54L21.96 45.94L61.34 45.94C60.91 47.81 60.34 49.54 59.83 50.90ZM24.62 55.44L24.62 59.40L63.94 59.40L63.94 55.44L47.66 55.44L47.66 52.63L59.62 52.63L59.62 48.67L28.66 48.67L28.66 52.63L41.26 52.63L41.26 55.44ZM21.60 30.82C19.15 28.44 13.97 25.49 9.94 23.69L6.12 28.44C10.22 30.53 15.26 33.77 17.57 36.14ZM18.50 49.54C15.91 47.23 10.66 44.50 6.48 42.84L2.74 47.81C6.98 49.61 12.10 52.70 14.54 55.01ZM10.30 88.27C13.54 81.50 17.14 73.01 19.94 65.45L14.54 61.78C11.52 69.91 7.27 79.06 4.32 84.67ZM35.14 73.51L35.14 79.63L28.66 79.63L28.66 73.51ZM40.25 69.48L23.62 69.48L23.62 86.47L28.66 86.47L28.66 83.66L40.25 83.66ZM43.63 78.19C45.50 80.14 47.74 82.80 48.67 84.67L52.85 81.86C51.84 80.14 49.61 77.62 47.66 75.74ZM61.92 66.96L56.30 66.96L56.30 70.92L41.76 70.92L41.76 75.31L56.30 75.31L56.30 84.02C56.30 84.67 56.09 84.82 55.30 84.89C54.58 84.89 51.98 84.89 49.46 84.82C50.11 86.04 50.83 87.84 51.12 89.14C55.15 89.14 57.74 89.14 59.54 88.42C61.42 87.77 61.92 86.62 61.92 84.10L61.92 75.31L68.47 75.31L68.47 70.92L61.92 70.92ZM20.45 62.06L20.45 66.74L69.05 66.74L69.05 62.06Z"/></svg>
