<svg xmlns="http://www.w3.org/2000/svg" xmlns:xlink="http://www.w3.org/1999/xlink" width="72.00000000000001" height="106.56000000000002"><path fill="red" stroke="red" d="M68.83 53.42C67.54 48.10 64.37 40.10 60.98 34.06L55.22 35.93C58.39 42.12 61.49 50.26 62.64 55.66ZM51.48 23.11L45.14 23.11L45.14 67.18L51.48 67.18ZM34.99 35.28C33.98 42.84 32.26 51.05 29.74 56.30C31.32 56.95 34.13 58.25 35.42 59.11C37.87 53.42 39.89 44.64 41.11 36.36ZM24.62 52.27C26.50 48.53 29.02 42.55 31.18 37.66L25.06 35.35C24.05 39.82 21.89 46.22 20.16 50.26ZM11.88 54.86C11.16 50.11 9.36 41.76 7.63 35.28L2.45 36.50C4.18 43.06 5.76 51.62 6.34 56.59ZM30.10 73.80C28.44 72.00 21.89 64.87 19.37 62.64C20.02 57.74 20.16 52.78 20.16 47.95L20.16 23.62L13.82 23.62L13.82 47.88C13.82 60.70 12.67 74.38 2.09 84.53C3.60 85.54 5.76 87.91 6.77 89.50C12.96 83.59 16.34 76.61 18.14 69.19C20.88 72.43 24.12 76.39 25.70 78.70ZM59.76 58.03C54.50 72.22 43.42 79.56 25.85 82.94C27.29 84.38 28.80 87.05 29.45 88.92C48.38 84.46 60.26 76.03 66.02 59.83Z"/></svg>
