<svg xmlns="http://www.w3.org/2000/svg" xmlns:xlink="http://www.w3.org/1999/xlink" width="72.00000000000001" height="106.56000000000002"><path fill="red" stroke="red" d="M67.90 31.03L51.12 31.03C52.70 29.16 54.22 26.93 55.80 24.70L49.10 22.97C47.81 25.42 45.79 28.58 43.85 31.03L24.84 31.03L28.22 29.81C27.22 27.72 24.84 24.70 22.75 22.46L16.56 24.62C18.22 26.50 20.02 29.09 21.10 31.03L4.32 31.03L4.32 36.72L67.90 36.72ZM62.57 39.38L56.09 39.38L56.09 66.17C56.09 67.10 55.73 67.39 54.58 67.46C53.57 67.46 49.75 67.54 45.94 67.39C46.80 68.90 47.88 71.35 48.24 73.01C53.42 73.01 57.02 72.94 59.47 72.07C61.85 71.14 62.57 69.62 62.57 66.31ZM42.05 41.40L42.05 64.08L48.24 64.08L48.24 41.40ZM10.15 89.86C13.10 86.18 16.56 80.42 18.86 75.67L12.53 74.02C10.22 78.62 6.70 84.02 3.74 87.19ZM23.98 76.18C24.84 80.21 25.34 85.54 25.34 88.78L31.90 87.84C31.82 84.74 31.10 79.49 30.24 75.53ZM14.62 58.10C14.76 56.66 14.76 55.15 14.83 53.78L28.94 53.78L28.94 58.10ZM28.94 45.14L28.94 49.32L14.83 49.32L14.83 45.14ZM35.14 40.39L9.07 40.39L9.07 52.34C9.07 57.53 8.71 64.01 4.90 68.90C6.19 69.62 8.57 71.57 9.58 72.72C11.88 69.84 13.25 66.24 13.90 62.57L28.94 62.57L28.94 66.24C28.94 67.10 28.73 67.39 27.72 67.39C27.00 67.46 23.98 67.46 20.95 67.39C21.67 68.76 22.46 70.78 22.75 72.29C27.22 72.29 30.46 72.22 32.54 71.42C34.56 70.56 35.14 69.26 35.14 66.31ZM38.95 76.03C40.54 80.14 42.26 85.39 42.84 88.63L49.39 87.41C48.74 84.10 46.94 78.84 45.07 74.95ZM53.64 76.25C56.74 80.28 60.34 85.82 61.85 89.35L68.11 86.40C66.38 82.94 62.64 77.62 59.47 73.73Z"/></svg>
