<svg xmlns="http://www.w3.org/2000/svg" xmlns:xlink="http://www.w3.org/1999/xlink" width="72.00000000000001" height="106.56000000000002"><path fill="red" stroke="red" d="M34.78 33.77L48.74 33.77C46.01 35.86 43.06 37.73 39.89 39.53L34.78 39.53ZM52.56 59.18L22.90 59.18L22.90 54.50L52.56 54.50ZM52.56 68.40L22.90 68.40L22.90 63.65L52.56 63.65ZM16.49 73.15L59.26 73.15L59.26 49.82L32.83 49.82C36.00 48.31 39.02 46.80 41.98 45.14L67.75 45.14L67.75 39.53L51.05 39.53C55.87 36.14 60.26 32.40 64.01 28.30L58.46 25.06C56.09 27.72 53.28 30.24 50.26 32.62L50.26 28.22L34.78 28.22L34.78 23.11L28.01 23.11L28.01 28.22L10.73 28.22L10.73 33.77L28.01 33.77L28.01 39.53L4.32 39.53L4.32 45.14L28.51 45.14C20.16 48.82 11.09 51.77 1.94 53.78C3.02 55.22 4.68 58.10 5.40 59.62C9.07 58.61 12.82 57.53 16.49 56.30ZM9.29 88.99C12.96 85.75 16.49 80.50 18.65 75.60L12.31 73.94C10.22 78.48 6.70 83.23 3.24 85.90ZM24.05 76.54C24.77 80.42 25.34 85.54 25.34 88.56L31.97 87.70C31.90 84.74 31.18 79.78 30.31 75.96ZM38.81 76.46C40.54 80.21 42.12 85.18 42.62 88.27L49.25 86.83C48.60 83.81 46.80 78.91 45.00 75.31ZM53.57 76.18C56.81 80.14 60.55 85.54 62.14 88.99L68.47 86.33C66.67 82.87 62.71 77.69 59.47 73.94Z"/></svg>
