<svg xmlns="http://www.w3.org/2000/svg" xmlns:xlink="http://www.w3.org/1999/xlink" width="72.00000000000001" height="106.56000000000002"><path fill="red" stroke="red" d="M67.03 39.96C66.10 36.72 63.86 31.46 61.63 27.50L56.81 29.16C58.90 33.19 61.06 38.59 61.85 41.98ZM48.31 30.46L40.54 30.46C39.74 28.30 38.74 25.56 37.80 23.47L32.26 24.48C32.98 26.28 33.77 28.51 34.42 30.46L25.49 30.46L25.49 35.71L48.31 35.71ZM20.16 34.78C19.58 39.60 18.07 46.66 16.78 50.90L20.02 52.20C21.53 48.17 23.33 41.54 24.98 36.43ZM10.30 55.15C9.79 50.47 8.42 42.12 6.98 35.64L2.66 36.43C3.96 42.91 5.18 51.48 5.62 56.38ZM16.27 23.83L10.94 23.83L10.94 49.10C10.94 61.78 10.08 74.52 2.45 84.60C3.82 85.54 5.62 87.48 6.55 88.78C10.73 83.45 13.10 77.40 14.54 71.06C16.63 74.09 19.01 77.69 20.23 79.85L24.19 75.60C22.90 73.87 17.78 67.18 15.55 64.66C16.13 59.69 16.27 54.43 16.27 49.18ZM32.18 74.30L32.18 68.54L41.47 68.54L41.47 74.30ZM41.47 58.32L41.47 63.86L32.18 63.86L32.18 58.32ZM63.14 53.28C61.78 57.82 59.98 62.06 57.82 65.95C57.24 61.42 56.74 56.02 56.38 50.18L68.26 50.18L68.26 44.50L56.09 44.50C55.80 37.87 55.58 30.60 55.58 23.11L49.82 23.11C49.97 30.67 50.11 37.87 50.47 44.50L44.14 44.50C44.86 42.34 45.58 39.53 46.44 37.01L41.11 36.07C40.75 38.52 39.96 41.90 39.24 44.50L34.63 44.50C34.34 42.12 33.55 38.74 32.76 36.14L28.08 36.94C28.73 39.24 29.38 42.19 29.59 44.50L24.41 44.50L24.41 50.18L50.76 50.18C51.26 58.97 52.06 66.67 53.21 72.94C51.19 75.46 48.89 77.90 46.58 79.99L46.58 53.57L27.00 53.57L27.00 84.10L32.18 84.10L32.18 78.98L41.47 78.98L41.47 80.78L45.72 80.78C43.92 82.37 42.05 83.74 40.10 84.96C41.47 85.97 43.20 87.55 43.99 88.70C47.74 86.18 51.41 83.02 54.72 79.34C56.59 85.46 59.04 88.99 62.57 89.06C65.02 89.06 67.75 86.40 69.26 75.60C68.26 75.02 66.02 73.37 65.02 72.07C64.66 78.12 63.86 81.72 62.78 81.72C61.34 81.65 60.12 78.84 59.04 73.94C62.86 68.69 66.02 62.57 68.26 55.87Z"/></svg>
