<svg xmlns="http://www.w3.org/2000/svg" xmlns:xlink="http://www.w3.org/1999/xlink" width="72.00000000000001" height="106.56000000000002"><path fill="red" stroke="red" d="M20.45 24.26C19.22 26.50 17.64 28.80 15.77 31.10C13.97 28.66 11.74 26.21 8.93 23.76L4.25 27.36C7.34 30.17 9.72 33.05 11.59 35.93C8.50 39.10 5.18 41.90 2.16 43.92C3.60 45.36 5.26 48.17 6.12 49.90C8.78 47.81 11.74 45.00 14.54 41.98C15.55 44.86 16.27 47.95 16.63 51.05C13.18 56.95 7.42 63.58 2.23 66.96C3.67 68.47 5.33 70.99 6.19 72.58C9.86 69.70 13.82 65.30 17.21 60.62L17.21 61.27C17.21 70.20 16.56 78.41 14.90 80.57C14.40 81.29 13.68 81.65 12.67 81.79C11.02 81.94 8.35 81.94 4.90 81.72C6.12 83.59 6.77 86.11 6.84 88.20C10.08 88.42 13.10 88.34 15.62 87.77C17.42 87.41 18.79 86.62 19.80 85.25C22.82 81.14 23.62 71.50 23.62 61.42C23.62 52.70 22.97 44.42 19.08 36.58C21.60 33.62 23.76 30.46 25.49 27.43ZM35.50 73.44C35.64 71.93 35.71 70.34 35.71 68.98L58.25 68.98L58.25 73.44ZM58.25 59.33L58.25 64.01L35.71 64.01L35.71 59.33ZM64.51 54.50L29.45 54.50L29.45 67.54C29.45 73.08 29.02 80.21 24.98 85.39C26.35 86.26 28.94 88.70 29.88 90.00C32.54 86.62 34.06 82.51 34.78 78.26L58.25 78.26L58.25 82.30C58.25 83.16 57.89 83.45 56.88 83.52C56.02 83.52 52.49 83.59 49.18 83.45C50.04 84.96 50.83 87.48 51.12 89.14C56.16 89.14 59.47 89.06 61.70 88.06C63.94 87.26 64.51 85.54 64.51 82.37ZM50.04 46.01L50.04 41.83L66.24 41.83L66.24 37.15L50.04 37.15L50.04 33.41L68.04 33.41L68.04 28.44L50.04 28.44L50.04 23.11L43.56 23.11L43.56 28.44L26.06 28.44L26.06 33.41L43.56 33.41L43.56 37.15L28.22 37.15L28.22 41.83L43.56 41.83L43.56 46.01L25.92 46.01L25.92 50.98L68.76 50.98L68.76 46.01Z"/></svg>
