<svg xmlns="http://www.w3.org/2000/svg" xmlns:xlink="http://www.w3.org/1999/xlink" width="72.00000000000001" height="106.56000000000002"><path fill="red" stroke="red" d="M43.34 38.81L25.20 38.81L25.20 44.28L68.11 44.28L68.11 38.81L50.04 38.81L50.04 34.06L64.87 34.06L64.87 28.73L50.04 28.73L50.04 23.11L43.34 23.11L43.34 28.73L29.23 28.73L29.23 34.06L43.34 34.06ZM20.59 23.54C19.22 26.14 17.50 28.80 15.48 31.39C13.54 28.73 11.16 26.14 8.14 23.54L3.38 27.14C6.84 30.10 9.43 33.12 11.45 36.36C8.57 39.46 5.47 42.26 2.30 44.50C3.82 45.58 5.90 47.52 6.98 48.89C9.50 46.87 11.95 44.71 14.40 42.34C15.34 45.07 16.06 47.88 16.49 50.83C13.10 56.88 7.34 63.36 2.09 66.67C3.74 67.90 5.54 70.06 6.62 71.71C10.15 68.98 13.97 64.87 17.14 60.55L17.14 61.70C17.14 70.92 16.49 79.27 14.76 81.43C14.18 82.22 13.54 82.58 12.46 82.73C10.87 82.94 8.14 82.94 4.61 82.73C5.76 84.53 6.48 87.05 6.48 89.14C9.72 89.28 12.67 89.28 15.34 88.70C17.14 88.34 18.58 87.48 19.58 86.11C22.68 81.86 23.47 72.14 23.47 61.78C23.47 53.28 22.75 45.00 19.01 37.15C21.89 33.77 24.41 30.17 26.57 26.64ZM36.00 52.70L58.03 52.70L58.03 58.75L36.00 58.75ZM64.08 64.58C61.78 66.74 57.96 69.62 54.72 71.86C53.06 69.26 51.77 66.46 50.76 63.50L64.66 63.50L64.66 47.95L29.74 47.95L29.74 63.50L41.18 63.50C36.50 67.18 29.66 70.06 23.18 71.93C24.34 73.15 26.14 76.03 26.78 77.26C29.23 76.46 31.68 75.46 34.13 74.23L34.13 79.99C34.13 82.66 32.18 83.66 30.89 84.17C31.75 85.46 32.76 88.20 33.05 89.78C34.34 88.92 36.58 88.27 49.90 84.53C49.68 83.23 49.46 80.71 49.54 79.06L40.10 81.43L40.10 71.06C42.26 69.70 44.28 68.33 46.08 66.74C49.68 77.26 55.94 85.18 65.66 89.06C66.53 87.41 68.33 84.89 69.84 83.66C65.02 82.08 61.06 79.42 57.89 75.96C61.27 74.02 65.38 71.42 68.54 68.90Z"/></svg>
