<svg xmlns="http://www.w3.org/2000/svg" xmlns:xlink="http://www.w3.org/1999/xlink" width="72.00000000000001" height="106.56000000000002"><path fill="red" stroke="red" d="M28.08 68.69C25.06 69.41 22.03 70.13 19.08 70.78L19.08 56.02L25.99 56.02L25.99 49.68L19.08 49.68L19.08 35.71L27.72 35.71L27.72 29.30L3.53 29.30L3.53 35.71L12.46 35.71L12.46 49.68L4.25 49.68L4.25 56.02L12.46 56.02L12.46 72.22C8.64 73.08 5.18 73.80 2.38 74.38L3.60 81.29L28.73 75.24ZM55.58 33.26L54.29 33.55L43.70 33.55C44.57 30.60 45.36 27.58 46.01 24.48L39.17 23.18C36.65 35.42 32.18 47.59 26.14 55.08C27.86 55.94 30.96 57.82 32.18 58.82C35.71 53.93 38.95 47.30 41.62 39.96L52.20 39.96C47.81 60.34 37.08 76.61 23.98 83.95C25.49 85.25 27.72 87.84 28.73 89.64C37.66 84.10 45.22 75.67 50.90 64.58C53.78 75.02 58.18 83.59 64.80 89.06C65.95 87.12 68.18 84.53 69.91 83.16C62.21 77.69 57.46 67.10 55.01 55.01C57.24 48.89 58.97 42.19 60.12 34.92Z"/></svg>
