<svg xmlns="http://www.w3.org/2000/svg" xmlns:xlink="http://www.w3.org/1999/xlink" width="72.00000000000001" height="106.56000000000002"><path fill="red" stroke="red" d="M57.02 50.33L35.86 50.33L35.86 45.65L57.02 45.65ZM57.02 60.05L35.86 60.05L35.86 55.22L57.02 55.22ZM57.02 69.70L35.86 69.70L35.86 64.87L57.02 64.87ZM29.38 40.46L29.38 74.88L63.86 74.88L63.86 40.46L59.18 40.46C61.63 37.01 64.15 31.82 65.81 27.14L59.54 25.63C58.18 29.81 55.80 34.56 53.42 37.73C54.86 38.38 57.31 39.53 58.75 40.46L50.18 40.46L50.18 23.11L43.63 23.11L43.63 40.46ZM39.67 38.09C38.66 34.78 36.14 29.52 33.70 25.63L27.86 27.29C30.24 31.32 32.62 36.72 33.48 40.03ZM26.64 68.47C23.62 69.34 20.66 70.20 17.78 71.06L17.78 54.36L24.77 54.36L24.77 48.17L17.78 48.17L17.78 33.84L26.50 33.84L26.50 27.65L3.38 27.65L3.38 33.84L11.74 33.84L11.74 48.17L4.25 48.17L4.25 54.36L11.74 54.36L11.74 72.79C8.21 73.73 5.04 74.66 2.38 75.31L3.67 81.72C10.30 79.78 19.22 77.11 27.43 74.45ZM37.30 75.74C33.77 79.42 27.50 82.80 21.46 84.96C23.04 85.97 25.63 88.20 26.78 89.42C32.76 86.83 39.67 82.58 43.92 77.90ZM49.68 78.41C54.72 81.79 60.05 86.04 63.00 89.06L70.06 86.62C66.53 83.45 60.34 79.06 54.86 75.60Z"/></svg>
