<svg xmlns="http://www.w3.org/2000/svg" xmlns:xlink="http://www.w3.org/1999/xlink" width="72.00000000000001" height="106.56000000000002"><path fill="red" stroke="red" d="M12.89 49.68C12.38 46.08 10.51 40.39 8.28 35.93L3.46 37.87C5.40 42.41 7.20 48.38 7.70 52.13ZM44.35 56.74C43.56 53.64 41.47 48.67 39.53 44.78L34.85 46.37C35.64 48.10 36.43 49.97 37.22 51.84L30.02 54.22L30.02 43.70C34.63 42.84 39.46 41.69 43.13 40.10L38.66 36.50C35.42 38.02 29.52 39.53 24.41 40.46L24.41 51.98C24.41 54.94 23.11 56.38 22.10 57.17C22.97 58.18 24.26 60.41 24.70 61.78L24.70 61.85C25.85 60.98 27.72 60.19 38.81 56.09C39.10 57.02 39.31 57.89 39.46 58.68ZM57.38 72.86L46.87 72.86L46.87 68.47L57.38 68.47ZM46.87 82.08L46.87 77.26L57.38 77.26L57.38 82.08ZM31.46 77.26L41.33 77.26L41.33 82.08L31.46 82.08ZM41.33 68.47L41.33 72.86L31.46 72.86L31.46 68.47ZM43.85 39.31L43.85 44.42L49.54 44.42C48.67 51.19 46.73 56.66 40.97 59.98C41.98 60.77 43.27 62.21 44.06 63.43L25.42 63.43L25.42 89.28L31.46 89.28L31.46 87.12L57.38 87.12L57.38 89.06L63.65 89.06L63.65 63.43L45.43 63.43C51.70 59.11 53.93 52.56 54.86 44.42L60.55 44.42C60.19 51.98 59.76 55.01 59.11 55.80C58.75 56.38 58.25 56.52 57.46 56.52C56.59 56.52 54.79 56.45 52.70 56.23C53.50 57.60 54.00 59.83 54.14 61.42C56.45 61.56 58.82 61.49 60.19 61.34C61.85 61.13 62.86 60.70 63.86 59.40C65.23 57.82 65.74 53.14 66.17 41.62C66.24 40.90 66.31 39.31 66.31 39.31ZM45.50 29.59C44.93 27.43 43.92 24.84 43.06 22.82L36.36 24.26C37.01 25.85 37.66 27.79 38.23 29.59L13.46 29.59L13.46 52.56C13.46 54.36 13.46 56.09 13.39 58.03C9.22 60.12 5.40 62.21 2.52 63.36L4.61 69.41C7.34 67.90 10.08 66.31 12.82 64.58C11.88 71.86 9.72 79.27 4.61 85.03C5.83 85.82 8.28 88.13 9.29 89.50C18.14 79.56 19.66 63.72 19.66 52.56L19.66 35.28L69.12 35.28L69.12 29.59Z"/></svg>
