<svg xmlns="http://www.w3.org/2000/svg" xmlns:xlink="http://www.w3.org/1999/xlink" width="72.00000000000001" height="106.56000000000002"><path fill="red" stroke="red" d="M39.10 44.21C41.76 48.10 44.28 51.91 45.72 54.58L49.82 51.91L49.82 57.17L58.61 57.17C58.54 58.61 58.46 60.05 58.39 61.34L64.15 61.34C64.80 52.63 65.23 37.58 65.23 26.28L46.94 26.28L46.94 31.54L59.26 31.54C59.26 33.91 59.26 36.43 59.18 38.88L49.90 38.88L49.90 44.06L59.11 44.06C59.04 46.73 58.97 49.39 58.82 51.91L49.82 51.91L49.97 51.84C48.53 49.39 46.15 45.94 43.63 42.48C45.86 40.32 48.46 37.58 50.54 34.92L46.30 32.40C45.07 34.27 42.98 36.86 41.11 38.95L39.10 36.36L39.10 25.20L33.55 25.20L33.55 54.94C33.55 55.66 33.34 55.80 32.62 55.80C31.90 55.87 29.88 55.87 27.58 55.80C28.37 57.10 29.38 59.26 29.66 60.70C33.05 60.70 35.28 60.55 36.94 59.69C38.66 58.75 39.10 57.46 39.10 55.01ZM22.03 39.53L27.43 39.53C25.85 44.57 23.26 48.31 19.66 50.62C20.66 51.41 22.25 53.28 22.97 54.29C27.94 50.90 31.46 44.78 32.98 35.57L30.17 34.70L29.23 34.78L22.03 34.78ZM7.63 61.34L13.61 61.34L13.54 57.31L20.88 57.31L20.88 52.06L13.39 52.06L13.18 44.14L21.17 44.14L21.17 38.95L13.03 38.95L12.89 31.90C17.93 30.96 23.26 29.88 27.65 28.51L23.90 23.47C19.51 25.06 12.74 26.71 6.91 28.01L6.84 28.01ZM16.92 68.83L25.42 68.83L25.42 81.36L16.92 81.36ZM40.10 68.83L40.10 81.36L31.54 81.36L31.54 68.83ZM54.94 68.83L54.94 81.36L46.22 81.36L46.22 68.83ZM61.49 81.36L61.49 62.93L10.66 62.93L10.66 81.36L3.10 81.36L3.10 87.26L68.90 87.26L68.90 81.36Z"/></svg>
