<svg xmlns="http://www.w3.org/2000/svg" xmlns:xlink="http://www.w3.org/1999/xlink" width="72.00000000000001" height="106.56000000000002"><path fill="red" stroke="red" d="M60.55 23.62C53.64 26.71 41.04 29.02 29.95 30.38C30.74 31.82 31.75 34.49 32.11 36.00C43.56 34.78 57.10 32.54 66.24 28.87ZM51.77 45.22C50.62 42.70 48.38 38.59 46.58 35.50L41.18 37.66C42.84 40.82 45.00 45.14 46.01 47.66ZM20.52 32.76L20.52 41.62L11.45 41.62L11.45 32.76ZM11.45 56.30L11.45 47.30L20.52 47.30L20.52 56.30ZM11.45 71.21L11.45 61.92L20.52 61.92L20.52 71.21ZM26.86 77.11L26.86 26.86L5.26 26.86L5.26 83.16L11.45 83.16L11.45 77.11ZM42.41 76.82C51.91 70.06 61.27 59.69 67.03 50.26L62.50 47.38L61.13 47.74L29.38 47.74L29.38 54.00L56.66 54.00C51.98 60.70 44.93 68.18 37.87 73.30C37.30 73.01 36.72 72.86 36.07 72.86C33.19 72.86 29.74 76.54 25.99 82.22L30.82 88.85C32.40 84.10 34.49 78.91 35.93 78.91C37.37 78.91 39.38 81.36 41.98 83.38C45.86 86.33 49.75 87.77 55.87 87.77C59.18 87.77 65.52 87.55 68.40 87.34C68.47 85.54 69.41 82.15 70.06 80.35C65.88 80.78 59.98 81.22 56.02 81.22C50.40 81.22 46.58 80.14 43.20 77.47Z"/></svg>
