<svg xmlns="http://www.w3.org/2000/svg" xmlns:xlink="http://www.w3.org/1999/xlink" width="72.00000000000001" height="106.56000000000002"><path fill="red" stroke="red" d="M64.30 24.34C55.22 26.78 40.39 28.44 27.86 29.30C28.51 30.82 29.38 33.26 29.52 34.85C42.05 34.27 57.31 32.76 67.39 30.24ZM61.34 34.27C59.33 39.10 56.45 44.57 53.71 48.38C55.22 49.03 57.96 50.33 59.18 51.12C61.70 47.23 64.94 41.11 67.18 36.07ZM51.55 46.73C50.90 43.63 49.25 38.95 47.74 35.35L42.26 37.01C43.70 40.61 45.22 45.50 45.86 48.60ZM39.24 49.32C38.09 46.08 35.86 41.04 33.70 37.22L28.58 39.24C30.53 43.13 32.83 48.31 33.77 51.62ZM19.01 33.19L19.01 42.05L10.87 42.05L10.87 33.19ZM10.87 56.74L10.87 47.74L19.01 47.74L19.01 56.74ZM10.87 71.64L10.87 62.42L19.01 62.42L19.01 71.64ZM24.70 77.62L24.70 27.36L5.11 27.36L5.11 83.59L10.87 83.59L10.87 77.62ZM68.04 62.50L68.04 56.30L50.47 56.30L50.47 49.75L43.92 49.75L43.92 56.30L27.58 56.30L27.58 62.50L40.68 62.50C36.43 69.26 30.02 75.96 23.98 79.70C25.49 81.07 27.79 83.45 28.87 85.10C34.20 81.29 39.67 74.95 43.92 68.26L43.92 88.99L50.47 88.99L50.47 68.54C54.65 75.10 59.98 81.29 65.23 85.10C66.31 83.30 68.54 80.78 70.13 79.49C64.08 75.89 57.53 69.26 53.21 62.50Z"/></svg>
