<svg xmlns="http://www.w3.org/2000/svg" xmlns:xlink="http://www.w3.org/1999/xlink" width="72.00000000000001" height="106.56000000000002"><path fill="red" stroke="red" d="M63.94 35.93C63.36 41.83 61.92 50.33 60.62 55.44L64.80 56.52C66.24 51.55 67.82 43.49 69.05 36.94ZM52.56 55.51C51.84 50.90 50.04 42.55 48.24 36.07L44.06 37.15C45.65 43.63 47.38 52.13 47.95 57.02ZM16.99 32.76L16.99 41.76L10.51 41.76L10.51 32.76ZM10.51 71.50L10.51 61.99L16.99 61.99L16.99 71.50ZM10.51 47.30L16.99 47.30L16.99 56.45L10.51 56.45ZM22.46 27.07L5.18 27.07L5.18 83.30L10.51 83.30L10.51 77.26L22.46 77.26ZM45.94 62.42C44.86 60.84 40.39 54.50 38.59 52.20L38.59 49.97L43.78 49.97L43.78 43.70L38.59 43.70L38.59 31.32C40.90 30.74 43.13 30.10 45.07 29.30L41.69 23.98C37.22 25.85 30.17 27.65 24.12 28.66C24.77 30.10 25.56 32.26 25.92 33.70C28.01 33.41 30.46 33.05 32.76 32.54L32.76 43.70L25.13 43.70L25.13 49.97L31.18 49.97C29.66 57.02 26.50 64.94 23.33 69.41C24.26 70.92 25.63 73.51 26.14 75.24C28.73 71.86 30.96 66.53 32.76 60.77L32.76 89.14L38.59 89.14L38.59 59.62C40.25 62.64 41.98 66.02 42.84 68.04ZM58.97 23.83L53.57 23.83L53.57 41.83C53.57 55.22 52.49 71.71 41.98 84.60C43.20 85.46 45.00 87.70 45.79 89.06C51.34 82.51 54.58 75.17 56.45 67.61C58.25 76.68 61.06 84.17 65.88 88.70C66.82 87.05 68.76 84.67 70.13 83.52C63.00 77.69 60.19 64.22 58.82 49.68C58.97 47.02 58.97 44.42 58.97 41.83Z"/></svg>
