<svg xmlns="http://www.w3.org/2000/svg" xmlns:xlink="http://www.w3.org/1999/xlink" width="72.00000000000001" height="106.56000000000002"><path fill="red" stroke="red" d="M20.38 48.96L51.41 48.96L51.41 50.98L20.38 50.98ZM51.41 34.70L51.41 36.58L20.38 36.58L20.38 34.70ZM51.41 41.40L20.38 41.40L20.38 39.38L51.41 39.38ZM20.38 43.99L51.41 43.99L51.41 46.22L20.38 46.22ZM65.88 50.98L58.10 50.98L58.10 31.82L38.38 31.82L38.81 29.88L64.80 29.88L64.80 26.06L39.60 26.06C39.82 25.13 39.96 24.26 40.10 23.47L33.19 23.04C33.12 24.05 32.98 24.98 32.83 26.06L7.34 26.06L7.34 29.88L32.26 29.88L31.97 31.82L13.97 31.82L13.97 50.98L6.05 50.98L6.05 54.65L65.81 54.65ZM13.61 81.43L25.92 81.43L25.92 83.59L13.61 83.59ZM25.92 67.10L25.92 68.90L13.61 68.90L13.61 67.10ZM25.92 73.80L13.61 73.80L13.61 71.71L25.92 71.71ZM13.61 76.46L25.92 76.46L25.92 78.70L13.61 78.70ZM32.54 64.22L21.82 64.22C22.03 63.43 22.25 62.57 22.54 61.63L34.70 61.63L34.70 58.10L23.40 58.10C23.54 57.31 23.76 56.45 23.83 55.73L18.29 55.30C18.14 56.23 18.00 57.10 17.78 58.10L3.89 58.10L3.89 61.63L17.14 61.63C16.92 62.57 16.70 63.43 16.49 64.22L7.34 64.22L7.34 83.59L2.95 83.59L2.95 87.41L35.28 87.41L35.28 83.59L32.54 83.59ZM45.79 81.43L58.46 81.43L58.46 83.59L45.79 83.59ZM58.46 67.18L58.46 68.98L45.79 68.98L45.79 67.18ZM58.46 73.87L45.79 73.87L45.79 71.78L58.46 71.78ZM45.79 76.54L58.46 76.54L58.46 78.70L45.79 78.70ZM65.09 83.59L65.09 64.22L54.29 64.22C54.50 63.43 54.79 62.57 55.01 61.70L68.04 61.70L68.04 58.18L55.94 58.18C56.09 57.38 56.30 56.59 56.38 55.87L50.69 55.37C50.54 56.30 50.40 57.17 50.18 58.18L36.50 58.18L36.50 61.70L49.54 61.70C49.32 62.57 49.10 63.43 48.89 64.22L39.46 64.22L39.46 83.59L37.22 83.59L37.22 87.41L69.55 87.41L69.55 83.59Z"/></svg>
