<svg xmlns="http://www.w3.org/2000/svg" xmlns:xlink="http://www.w3.org/1999/xlink" width="72.00000000000001" height="106.56000000000002"><path fill="red" stroke="red" d="M55.37 38.95L55.37 44.21L41.76 44.21L41.76 38.95ZM41.76 66.02L41.76 60.34L55.37 60.34L55.37 66.02ZM55.37 55.08L41.76 55.08L41.76 49.46L55.37 49.46ZM35.50 66.02L27.72 66.02L27.72 72.00L69.19 72.00L69.19 66.02L61.85 66.02L61.85 38.95L67.68 38.95L67.68 32.90L61.85 32.90L61.85 23.18L55.37 23.18L55.37 32.90L41.76 32.90L41.76 23.18L35.50 23.18L35.50 32.90L29.09 32.90L29.09 38.95L35.50 38.95ZM28.80 61.13C27.50 59.76 22.68 54.79 20.02 52.27C23.11 47.66 25.70 42.70 27.58 37.51L24.34 34.99L23.18 35.28L16.42 35.28L21.46 32.11C20.38 29.52 17.78 25.63 15.41 22.82L10.22 25.78C12.46 28.66 14.83 32.62 15.98 35.28L3.82 35.28L3.82 41.33L19.94 41.33C15.84 49.68 8.93 57.46 2.09 61.92C2.95 63.22 4.18 66.67 4.61 68.54C7.34 66.60 10.08 64.22 12.74 61.34L12.74 89.14L19.08 89.14L19.08 58.97C21.31 61.70 23.69 64.66 24.98 66.67ZM39.89 72.79C36.79 77.11 31.39 81.86 25.99 84.96C27.36 86.04 29.23 88.06 30.24 89.35C35.78 86.11 41.62 81.22 45.43 76.03ZM51.98 76.18C56.45 79.99 61.92 85.46 64.30 88.99L69.55 85.25C66.89 81.72 61.34 76.46 56.88 72.86Z"/></svg>
