<svg xmlns="http://www.w3.org/2000/svg" xmlns:xlink="http://www.w3.org/1999/xlink" width="72.00000000000001" height="106.56000000000002"><path fill="red" stroke="red" d="M67.75 54.36L67.75 47.59L39.60 47.59L39.60 34.56C47.95 33.34 55.73 31.90 62.28 30.02L56.59 24.19C45.00 27.65 24.91 30.17 7.34 31.39C8.14 32.98 9.07 35.86 9.29 37.66C16.63 37.15 24.55 36.43 32.33 35.57L32.33 47.59L4.46 47.59L4.46 54.36L28.87 54.36C22.68 63.72 12.46 72.94 2.66 77.69C4.32 79.13 6.62 81.79 7.78 83.59C16.63 78.34 25.70 69.77 32.33 60.12L32.33 89.14L39.60 89.14L39.60 59.90C46.37 69.48 55.44 78.26 64.37 83.45C65.59 81.58 67.82 78.84 69.55 77.47C59.83 72.72 49.54 63.58 43.20 54.36Z"/></svg>
