<svg xmlns="http://www.w3.org/2000/svg" xmlns:xlink="http://www.w3.org/1999/xlink" width="72.00000000000001" height="106.56000000000002"><path fill="red" stroke="red" d="M68.83 53.50C67.54 48.10 64.37 40.18 60.98 34.13L55.22 36.00C58.39 42.12 61.49 50.33 62.64 55.66ZM51.48 23.18L45.14 23.18L45.14 67.25L51.48 67.25ZM34.99 35.28C33.98 42.91 32.26 51.12 29.74 56.38C31.32 57.02 34.13 58.25 35.42 59.11C37.87 53.50 39.96 44.71 41.11 36.43ZM30.31 61.78C29.09 59.98 23.04 52.78 21.10 50.76L21.10 49.46L30.60 49.46L30.60 43.20L21.10 43.20L21.10 32.18C24.48 31.39 27.72 30.53 30.46 29.45L26.57 23.98C21.02 26.42 11.81 28.51 3.74 29.81C4.46 31.18 5.40 33.55 5.62 34.99C8.50 34.56 11.52 34.20 14.62 33.62L14.62 43.20L3.17 43.20L3.17 49.46L13.75 49.46C11.02 57.10 6.48 65.66 2.23 70.56C3.31 72.22 4.82 74.95 5.54 76.75C8.78 72.72 11.95 66.53 14.62 60.05L14.62 89.14L21.10 89.14L21.10 58.03C23.11 61.20 25.42 64.94 26.42 67.03ZM59.76 58.10C54.50 72.29 43.42 79.56 25.92 82.94C27.29 84.46 28.80 87.05 29.52 88.99C48.38 84.53 60.26 76.03 66.02 59.90Z"/></svg>
