<svg xmlns="http://www.w3.org/2000/svg" xmlns:xlink="http://www.w3.org/1999/xlink" width="72.00000000000001" height="106.56000000000002"><path fill="red" stroke="red" d="M20.45 33.19L17.78 35.42C20.16 37.66 23.26 40.75 24.70 42.70L29.02 38.88C27.72 37.37 25.49 34.99 23.26 33.19L35.35 33.19L35.35 27.94L18.14 27.94C18.79 26.71 19.37 25.49 19.80 24.26L13.82 22.54C11.59 28.37 7.56 34.20 3.31 38.02C4.61 39.02 6.91 41.33 7.85 42.41C10.37 39.96 12.96 36.79 15.19 33.19ZM32.11 59.83L32.11 65.45L17.06 65.45C17.35 63.65 17.64 61.78 17.86 59.83ZM38.74 48.67L55.66 48.67L55.66 54.29L38.74 54.29ZM38.74 65.45L38.74 59.83L62.21 59.83L62.21 43.13L9.65 43.13L9.65 48.67L32.11 48.67L32.11 54.29L12.17 54.29C11.59 59.76 10.58 66.60 9.58 71.14L26.93 71.14C21.17 76.54 12.74 81.36 4.75 83.81C6.26 85.03 8.06 87.55 9.07 89.06C17.21 85.97 25.92 80.42 32.11 73.87L32.11 89.14L38.74 89.14L38.74 71.14L57.89 71.14C57.24 76.46 56.59 78.84 55.73 79.78C55.15 80.28 54.43 80.35 53.21 80.35C51.98 80.42 48.67 80.35 45.43 79.99C46.44 81.72 47.23 84.24 47.30 86.11C50.98 86.33 54.50 86.26 56.30 86.11C58.46 85.97 59.90 85.46 61.27 84.02C63.14 82.15 64.01 77.76 64.87 68.04C65.02 67.10 65.09 65.45 65.09 65.45ZM47.81 27.94C48.38 26.64 48.89 25.42 49.39 24.05L43.27 22.61C41.47 27.72 38.16 32.69 34.27 35.93C35.78 36.86 38.23 38.81 39.31 39.89C41.18 38.09 43.13 35.78 44.78 33.19L51.98 33.19L48.82 35.71C51.48 37.80 54.65 40.75 56.16 42.62L60.70 38.74C59.33 37.15 56.74 34.92 54.43 33.19L68.62 33.19L68.62 27.94Z"/></svg>
