<svg xmlns="http://www.w3.org/2000/svg" xmlns:xlink="http://www.w3.org/1999/xlink" width="72.00000000000001" height="106.56000000000002"><path fill="red" stroke="red" d="M54.00 32.90L50.69 34.92C52.27 36.86 54.14 39.46 54.86 41.11L60.05 37.73C59.26 36.36 57.89 34.49 56.52 32.90L68.18 32.90L68.18 27.72L48.17 27.72C48.74 26.50 49.25 25.27 49.68 23.98L43.13 22.39C41.26 28.08 37.80 33.62 33.62 37.22C35.28 38.09 38.02 39.96 39.38 40.97C41.54 38.88 43.70 36.07 45.58 32.90ZM24.19 32.83L20.81 34.56C22.32 36.65 23.98 39.53 24.70 41.33L29.66 38.52C28.94 37.01 27.50 34.70 26.14 32.83L35.57 32.83L35.57 27.65L19.22 27.65C19.80 26.42 20.30 25.27 20.81 24.05L14.40 22.39C12.10 28.37 7.85 34.27 3.17 37.94C4.75 38.81 7.49 40.68 8.78 41.69C11.30 39.38 13.90 36.29 16.20 32.83ZM14.90 73.08C15.05 71.57 15.12 70.06 15.12 68.69L28.51 68.69L28.51 73.08ZM28.51 59.40L28.51 63.86L15.12 63.86L15.12 59.40ZM34.85 54.65L9.07 54.65L9.07 67.82C9.07 73.44 8.57 80.57 3.96 85.82C5.33 86.54 7.92 88.63 8.93 89.78C11.88 86.54 13.46 82.22 14.26 77.90L28.51 77.90L28.51 82.08C28.51 82.87 28.30 83.09 27.50 83.16C26.71 83.16 24.34 83.16 21.74 83.09C22.54 84.67 23.26 86.98 23.47 88.63C27.50 88.63 30.46 88.56 32.40 87.62C34.42 86.76 34.85 85.18 34.85 82.22ZM57.10 81.58C57.10 82.51 56.81 82.73 55.66 82.80C54.50 82.87 50.69 82.87 46.73 82.73C47.66 84.31 48.96 87.05 49.39 88.85C54.43 88.85 57.96 88.70 60.41 87.70C62.86 86.76 63.65 84.96 63.65 81.65L63.65 53.93L57.10 53.93ZM48.53 56.52L42.41 56.52L42.41 77.76L48.53 77.76ZM51.34 45.65C52.49 44.28 53.64 42.84 54.79 41.26L48.10 39.17C47.09 41.04 45.43 43.63 43.92 45.65L27.36 45.65C26.21 43.70 24.05 40.97 22.25 39.10L16.42 41.26C17.57 42.55 18.79 44.14 19.80 45.65L3.60 45.65L3.60 50.90L68.40 50.90L68.40 45.65Z"/></svg>
