<svg xmlns="http://www.w3.org/2000/svg" xmlns:xlink="http://www.w3.org/1999/xlink" width="72.00000000000001" height="106.56000000000002"><path fill="red" stroke="red" d="M30.89 44.50C30.67 40.25 29.59 33.84 27.94 28.87L23.40 29.81C24.84 34.78 25.99 41.26 25.99 45.50ZM9.36 56.74C9.65 53.86 9.86 50.54 10.08 47.38L21.60 47.38L21.60 24.84L4.03 24.84L4.03 30.82L15.62 30.82L15.62 41.40L4.97 41.40C4.75 48.10 4.03 56.88 3.31 62.35L15.84 62.35C15.34 76.03 14.69 81.29 13.68 82.51C13.03 83.23 12.38 83.38 11.30 83.38C10.15 83.38 7.13 83.30 4.03 83.02C5.04 84.60 5.69 86.98 5.83 88.63C9.00 88.78 12.24 88.78 14.04 88.56C16.06 88.34 17.35 87.84 18.65 86.26C20.45 84.10 21.02 77.33 21.60 59.26C21.67 58.46 21.74 56.74 21.74 56.74ZM28.87 57.31C27.43 63.14 24.12 70.78 21.02 74.66C22.03 76.46 23.33 79.42 23.83 81.29C27.50 76.18 30.89 66.46 32.54 58.82ZM46.44 54.50L46.44 48.53L38.09 48.53L38.09 23.98L32.54 23.98L32.54 48.53L23.26 48.53L23.26 54.50L32.54 54.50L32.54 87.84L38.09 87.84L38.09 54.50ZM38.30 60.12C40.03 63.29 44.21 72.07 45.65 76.03L49.75 71.21C48.53 68.83 42.98 59.69 41.40 57.67ZM53.57 56.74C53.86 53.86 54.07 50.54 54.36 47.38L66.96 47.38L66.96 24.77L47.81 24.77L47.81 29.81L42.62 28.66C41.90 33.34 40.46 40.18 39.17 44.42L43.20 45.72C44.71 41.90 46.44 35.93 48.10 30.74L60.91 30.74L60.91 41.40L49.32 41.40C48.96 48.10 48.24 56.88 47.45 62.35L61.06 62.35C60.55 75.53 59.90 80.64 58.75 81.94C58.18 82.58 57.53 82.80 56.30 82.73C55.08 82.73 52.13 82.73 48.82 82.44C49.82 84.10 50.54 86.62 50.69 88.42C54.07 88.56 57.38 88.56 59.26 88.34C61.34 88.13 62.71 87.55 64.08 85.97C65.95 83.66 66.60 76.97 67.25 59.40C67.32 58.54 67.32 56.74 67.32 56.74Z"/></svg>
