<svg xmlns="http://www.w3.org/2000/svg" xmlns:xlink="http://www.w3.org/1999/xlink" width="72.00000000000001" height="106.56000000000002"><path fill="red" stroke="red" d="M32.33 64.15C31.46 60.41 29.16 54.36 26.93 49.75L21.89 51.55C22.75 53.42 23.47 55.44 24.26 57.53L14.11 58.82C19.87 52.49 25.63 44.78 30.10 36.94L24.41 33.41C22.90 36.58 20.95 39.82 19.08 42.77L12.17 43.34C16.13 38.09 20.02 31.61 23.04 25.27L16.99 22.68C14.04 30.46 8.93 38.59 7.34 40.68C5.83 42.77 4.46 44.28 3.24 44.50C3.96 46.15 4.90 49.18 5.26 50.47C6.34 49.97 7.92 49.54 14.98 48.74C12.53 52.13 10.44 54.72 9.36 55.87C6.98 58.46 5.33 60.19 3.60 60.55C4.32 62.21 5.40 65.45 5.76 66.74C7.27 65.88 9.79 65.38 25.99 62.71C26.42 64.08 26.78 65.38 27.00 66.38ZM6.70 69.41C5.98 75.24 4.82 81.58 3.10 85.90C4.54 86.33 7.27 87.19 8.50 87.84C10.15 83.45 11.59 76.68 12.38 70.42ZM14.90 70.13C15.77 75.24 16.56 81.86 16.70 86.26L22.39 84.82C22.10 80.42 21.24 73.94 20.30 68.90ZM23.26 68.62C24.77 73.01 26.57 78.84 27.22 82.58L32.62 80.64C31.75 76.97 29.95 71.35 28.30 66.96ZM46.37 81.86C42.77 81.86 42.12 81.36 42.12 78.48L42.12 56.23L58.03 56.23L58.03 59.90L64.87 59.90L64.87 26.71L33.55 26.71L33.55 33.62L58.03 33.62L58.03 49.68L35.14 49.68L35.14 78.48C35.14 86.11 37.58 88.06 45.58 88.06L58.97 88.06C66.46 88.06 68.26 84.82 69.12 73.58C67.25 73.08 64.37 71.93 62.78 70.78C62.35 80.06 61.78 81.86 58.46 81.86Z"/></svg>
