<svg xmlns="http://www.w3.org/2000/svg" xmlns:xlink="http://www.w3.org/1999/xlink" width="72.00000000000001" height="106.56000000000002"><path fill="red" stroke="red" d="M28.73 65.52C28.08 61.70 26.21 55.37 24.34 50.54L19.58 51.84C20.30 53.86 20.95 56.02 21.53 58.18L12.82 59.40C18.43 52.99 24.05 45.00 28.44 37.15L22.75 33.77C21.17 37.01 19.37 40.32 17.50 43.34L11.02 43.92C14.90 38.52 18.86 31.90 21.96 25.49L15.98 22.97C13.10 30.67 8.14 38.66 6.70 40.75C5.11 42.84 3.82 44.28 2.66 44.57C3.31 46.22 4.25 49.18 4.61 50.47C5.69 50.04 7.20 49.61 13.97 48.82C11.59 52.20 9.58 54.79 8.50 55.94C6.34 58.54 4.68 60.34 3.10 60.70C3.74 62.35 4.75 65.45 5.11 66.74C6.55 66.02 8.78 65.38 22.82 63.22C23.11 64.66 23.40 66.02 23.62 67.18ZM5.98 69.41C5.40 75.17 4.39 81.58 2.74 85.82C4.18 86.26 6.91 87.12 8.06 87.84C9.58 83.38 10.80 76.61 11.52 70.42ZM13.97 70.20C14.83 75.02 15.62 81.58 15.77 85.68L20.95 84.74C20.74 80.50 19.87 74.16 18.94 69.26ZM21.38 68.90C22.90 73.22 24.48 78.77 25.13 82.51L30.02 80.86C29.30 77.18 27.72 71.71 26.06 67.46ZM38.88 62.93C42.70 60.77 46.51 58.10 50.04 55.08C53.28 58.03 56.88 60.77 60.98 62.93ZM40.82 80.71L40.82 68.83L58.46 68.83L58.46 80.71ZM43.42 36.07L57.53 36.07C55.58 39.82 52.99 43.27 49.90 46.44C46.94 43.42 44.57 40.18 42.77 37.08ZM61.92 30.17L60.70 30.46L46.87 30.46C47.88 28.58 48.82 26.64 49.68 24.70L43.27 22.90C40.03 31.03 34.34 38.59 27.79 43.42C29.30 44.50 31.82 46.87 32.83 48.10C34.99 46.30 37.08 44.21 39.10 41.83C40.82 44.78 42.98 47.74 45.65 50.62C40.39 55.01 34.49 58.54 28.58 60.84C29.95 62.06 31.75 64.44 32.54 66.02C33.19 65.74 33.91 65.45 34.56 65.09L34.56 88.92L40.82 88.92L40.82 86.62L58.46 86.62L58.46 88.85L64.94 88.85L64.94 64.87L65.88 65.23C66.74 63.58 68.76 60.98 70.13 59.62C64.22 57.53 58.97 54.43 54.58 50.76C59.54 45.58 63.58 39.38 66.31 32.33Z"/></svg>
