<svg xmlns="http://www.w3.org/2000/svg" xmlns:xlink="http://www.w3.org/1999/xlink" width="72.00000000000001" height="106.56000000000002"><path fill="red" stroke="red" d="M59.04 38.74L40.10 38.74L40.10 31.39L59.04 31.39ZM65.52 25.85L34.06 25.85L34.06 44.28L65.52 44.28ZM30.53 64.94C29.88 61.20 27.86 55.01 25.92 50.26L21.10 51.70C21.82 53.64 22.46 55.87 23.18 58.03L13.10 59.33C18.94 52.92 24.77 44.93 29.38 37.01L23.69 33.48C22.10 36.79 20.16 40.03 18.14 42.98L11.38 43.56C15.34 38.45 19.22 31.90 22.32 25.63L16.27 23.11C13.32 30.67 8.28 38.66 6.77 40.75C5.18 42.91 3.96 44.21 2.59 44.57C3.31 46.15 4.25 49.18 4.61 50.40C5.69 49.90 7.34 49.54 14.26 48.74C11.88 52.13 9.72 54.72 8.64 55.87C6.41 58.46 4.68 60.12 3.02 60.55C3.82 62.28 4.75 65.45 5.11 66.74C6.70 65.95 8.93 65.38 24.55 63.07C24.91 64.44 25.20 65.74 25.34 66.82ZM5.98 69.41C5.40 75.38 4.39 81.94 2.74 86.33C4.18 86.76 6.70 87.62 7.85 88.20C9.43 83.74 10.66 76.75 11.38 70.34ZM13.82 70.20C14.54 74.95 15.26 81.22 15.34 85.32L20.59 84.38C20.45 80.21 19.66 74.09 18.79 69.26ZM21.82 68.83C22.97 72.58 24.34 77.62 24.84 80.78L29.74 79.27C29.16 76.10 27.79 71.21 26.42 67.39ZM40.61 62.35C46.22 63.50 53.35 65.88 57.17 67.68L59.76 62.71C55.94 60.84 48.74 58.75 43.13 57.74ZM39.82 54.72L60.41 54.72L60.41 68.47C52.49 70.06 44.64 71.78 39.10 72.79C39.67 68.76 39.82 64.94 39.82 61.70ZM67.03 49.03L33.19 49.03L33.19 61.63C33.19 68.76 32.62 78.34 27.36 85.32C28.94 86.04 31.82 87.98 33.05 89.21C36.29 84.89 38.09 79.34 38.88 73.87L40.90 79.20C46.51 77.76 53.50 76.03 60.41 74.16L60.41 81.79C60.41 82.66 60.12 82.87 59.18 82.94C58.39 83.02 55.30 83.02 52.20 82.87C53.14 84.53 54.00 87.19 54.29 88.92C58.75 88.92 62.06 88.85 64.22 87.84C66.46 86.83 67.03 85.10 67.03 81.86Z"/></svg>
