<svg xmlns="http://www.w3.org/2000/svg" xmlns:xlink="http://www.w3.org/1999/xlink" width="72.00000000000001" height="106.56000000000002"><path fill="red" stroke="red" d="M67.97 26.50L29.88 26.50L29.88 32.47L67.97 32.47ZM67.82 58.97C66.17 55.87 62.78 51.12 59.47 47.23C61.85 43.78 64.58 39.46 66.74 35.78L60.91 34.27C59.18 37.80 56.02 43.06 52.99 47.38C57.10 52.20 60.77 57.74 62.50 61.49ZM48.67 34.34C47.02 37.80 43.92 43.06 40.97 47.30C44.86 52.13 48.24 57.53 49.90 61.27L55.22 58.90C53.71 55.80 50.47 51.05 47.38 47.16C49.75 43.78 52.42 39.46 54.43 35.78ZM42.98 59.18C41.40 56.09 38.38 51.19 35.28 47.23C37.58 43.78 40.32 39.38 42.26 35.71L36.50 34.27C34.85 37.80 31.90 43.06 29.02 47.38C32.69 52.27 36.00 57.74 37.51 61.49ZM29.81 64.94C29.02 61.27 27.07 55.01 25.20 50.33L20.23 51.70C21.02 53.71 21.74 55.94 22.39 58.10L12.74 59.33C18.29 52.92 23.76 44.93 28.08 37.08L22.46 33.77C21.02 36.94 19.22 40.18 17.42 43.13L11.09 43.63C14.90 38.30 18.72 31.75 21.60 25.42L15.62 22.97C12.96 30.67 8.14 38.74 6.62 40.82C5.11 42.98 3.96 44.42 2.66 44.71C3.38 46.37 4.25 49.25 4.61 50.47C5.62 50.04 7.27 49.61 13.68 48.82C11.45 52.27 9.43 54.86 8.42 56.02C6.26 58.61 4.68 60.34 3.10 60.70C3.82 62.35 4.75 65.45 5.11 66.74C6.55 65.95 8.93 65.38 23.76 63.22C24.05 64.58 24.34 65.74 24.48 66.82ZM5.98 69.41C5.40 75.38 4.39 82.01 2.74 86.33C4.18 86.76 6.84 87.62 7.99 88.34C9.58 83.81 10.80 76.82 11.52 70.34ZM13.61 70.27C14.40 75.02 15.19 81.22 15.34 85.32L20.59 84.24C20.38 80.21 19.51 74.09 18.65 69.34ZM20.81 68.76C22.10 72.50 23.54 77.40 24.12 80.57L28.94 78.91C28.30 75.74 26.78 70.99 25.42 67.32ZM51.91 81.43L51.91 69.34L65.88 69.34L65.88 63.36L31.54 63.36L31.54 69.34L45.22 69.34L45.22 81.43L27.94 81.43L27.94 87.55L68.76 87.55L68.76 81.43Z"/></svg>
