<svg xmlns="http://www.w3.org/2000/svg" xmlns:xlink="http://www.w3.org/1999/xlink" width="72.00000000000001" height="106.56000000000002"><path fill="red" stroke="red" d="M5.54 69.41C4.97 75.17 4.03 81.58 2.38 85.90C3.74 86.18 6.19 87.05 7.42 87.70C8.86 83.23 10.08 76.54 10.73 70.34ZM13.39 70.13C14.18 74.88 14.98 81.22 15.12 85.39L20.09 84.10C19.87 79.99 19.08 73.87 18.14 69.05ZM21.31 68.62C22.75 72.94 24.55 78.62 25.20 82.44L29.95 80.78C29.16 77.11 27.36 71.50 25.70 67.18ZM20.38 51.62C21.38 53.71 22.25 56.02 23.04 58.25L12.24 59.69C17.86 53.06 23.47 44.78 27.79 36.65L22.68 33.48C21.10 36.79 19.22 40.25 17.28 43.49L10.73 43.99C14.54 38.66 18.29 31.90 21.10 25.49L15.48 23.18C12.74 30.89 8.06 38.88 6.48 41.04C5.11 43.13 3.89 44.57 2.59 44.93C3.31 46.44 4.25 49.25 4.54 50.47C5.54 49.97 7.13 49.61 13.90 48.82C11.59 52.34 9.50 55.08 8.50 56.30C6.26 58.97 4.75 60.77 3.10 61.13C3.82 62.64 4.75 65.52 5.04 66.74C6.41 65.95 8.86 65.38 24.41 62.93C24.70 64.15 24.98 65.23 25.13 66.17L30.10 64.30C29.38 60.55 27.14 54.58 24.91 50.04ZM56.02 67.39L56.02 58.68L60.70 58.68L60.70 67.39ZM46.94 67.39L46.94 58.68L51.26 58.68L51.26 67.39ZM37.15 67.39L37.15 58.68L42.12 58.68L42.12 67.39ZM65.95 53.21L31.97 53.21L31.97 89.28L37.15 89.28L37.15 72.79L42.12 72.79L42.12 88.13L46.94 88.13L46.94 72.79L51.26 72.79L51.26 88.13L56.02 88.13L56.02 72.79L60.70 72.79L60.70 82.87C60.70 83.45 60.55 83.59 60.05 83.59C59.54 83.66 58.32 83.66 56.88 83.59C57.53 85.10 58.32 87.41 58.54 88.99C61.13 88.99 62.86 88.92 64.22 87.98C65.66 86.98 65.95 85.39 65.95 82.94ZM39.38 42.41C42.55 39.24 45.65 35.64 48.38 31.82C51.77 35.93 54.94 39.38 58.03 42.41ZM48.24 22.25C43.56 30.67 35.06 39.10 27.36 43.99C28.94 45.36 30.67 47.38 31.68 49.03C33.34 47.74 35.14 46.37 36.86 44.78L36.86 47.88L60.77 47.88L60.77 45.00C62.28 46.37 63.79 47.66 65.30 48.89C66.24 47.09 68.18 44.86 69.84 43.70C63.79 39.53 57.67 34.20 51.55 26.93C52.13 26.14 52.49 25.27 52.99 24.41Z"/></svg>
