<svg xmlns="http://www.w3.org/2000/svg" xmlns:xlink="http://www.w3.org/1999/xlink" width="72.00000000000001" height="106.56000000000002"><path fill="red" stroke="red" d="M5.90 69.41C5.33 75.38 4.32 81.86 2.66 86.33C4.03 86.76 6.55 87.55 7.70 88.13C9.22 83.66 10.51 76.75 11.16 70.34ZM13.32 70.20C14.11 75.17 14.83 81.72 14.90 86.11L20.09 85.10C19.87 80.86 19.08 74.30 18.22 69.34ZM20.45 68.83C21.96 73.22 23.62 78.98 24.26 82.73L28.94 81.07C28.22 77.40 26.57 71.78 24.91 67.39ZM20.95 51.70C21.53 53.64 22.10 55.87 22.68 57.96L13.10 59.18C19.01 52.92 24.70 45.14 29.30 37.22L23.54 33.70C21.96 36.86 20.09 40.10 18.14 42.98L11.38 43.56C15.34 38.38 19.22 31.90 22.25 25.49L16.13 22.90C13.10 30.60 8.21 38.59 6.55 40.68C5.04 42.77 3.82 44.21 2.52 44.57C3.24 46.15 4.18 49.18 4.54 50.47C5.62 49.97 7.27 49.61 14.18 48.74C11.81 52.13 9.65 54.79 8.50 55.87C6.26 58.39 4.61 60.12 2.95 60.55C3.67 62.21 4.68 65.38 5.04 66.74C6.55 65.95 8.93 65.38 23.83 63.22C24.05 64.66 24.26 65.95 24.41 67.03L29.66 65.52C29.16 61.70 27.58 55.37 25.92 50.54ZM39.17 44.06L59.76 44.06L59.76 48.82L39.17 48.82ZM39.17 34.49L59.76 34.49L59.76 39.31L39.17 39.31ZM67.54 59.18L52.63 59.18L52.63 53.86L66.10 53.86L66.10 29.45L50.69 29.45C51.48 27.72 52.42 25.99 53.28 24.12L45.94 23.04C45.50 24.84 44.78 27.29 44.06 29.45L33.12 29.45L33.12 53.86L46.44 53.86L46.44 59.18L31.61 59.18L31.61 82.94L37.87 82.94L37.87 65.09L46.44 65.09L46.44 89.06L52.63 89.06L52.63 65.09L61.27 65.09L61.27 76.03C61.27 76.68 61.06 76.82 60.41 76.90C59.69 76.90 57.74 76.90 55.51 76.82C56.38 78.48 57.17 81.07 57.46 82.80C60.98 82.80 63.43 82.73 65.30 81.72C67.18 80.71 67.54 78.91 67.54 76.18Z"/></svg>
