<svg xmlns="http://www.w3.org/2000/svg" xmlns:xlink="http://www.w3.org/1999/xlink" width="72.00000000000001" height="106.56000000000002"><path fill="red" stroke="red" d="M69.34 46.08C68.11 42.77 65.23 37.51 62.64 33.12C63.36 29.95 63.94 26.86 64.44 24.05L58.97 23.26C58.03 30.82 55.80 40.97 51.62 47.30C52.92 47.81 55.08 49.03 56.23 49.82C58.03 47.02 59.54 43.56 60.70 39.89C62.57 43.34 64.22 46.87 65.09 49.39ZM54.94 40.25C53.71 38.45 51.48 35.42 49.39 32.98C50.18 29.95 50.76 26.93 51.26 24.19L45.58 23.33C44.57 30.96 42.34 41.11 38.16 47.38C39.46 48.10 41.40 49.61 42.48 50.62C44.64 47.38 46.44 43.20 47.74 38.81C49.18 40.75 50.54 42.62 51.34 44.06ZM34.56 23.33C32.76 29.09 28.94 36.43 24.84 41.11C25.92 42.12 27.58 44.06 28.30 45.22C32.98 39.89 37.30 31.82 40.03 24.91ZM24.91 66.10C24.41 62.28 22.82 55.87 21.17 50.83L16.99 51.84C17.71 54.07 18.36 56.52 18.94 58.97L11.52 59.83C16.34 52.99 21.10 44.42 24.70 36.14L19.66 33.41C18.36 36.86 16.78 40.39 15.19 43.63L10.08 44.06C13.18 38.52 16.20 31.54 18.43 24.91L12.96 22.82C11.16 30.60 7.27 39.02 6.05 41.18C4.90 43.34 3.89 44.93 2.74 45.22C3.46 46.66 4.25 49.32 4.54 50.47C5.47 50.04 6.98 49.61 12.38 49.03C10.44 52.56 8.71 55.30 7.92 56.52C6.05 59.18 4.68 61.06 3.24 61.34C3.96 62.86 4.75 65.59 5.04 66.74C6.34 66.02 8.35 65.52 19.94 63.79C20.16 65.16 20.30 66.38 20.45 67.39ZM5.90 69.41C5.26 75.60 4.32 82.37 2.66 86.90C3.96 87.19 6.26 87.98 7.34 88.56C8.86 83.95 10.08 76.82 10.80 70.20ZM12.31 70.06C13.10 75.46 13.82 82.44 13.90 87.05L18.36 86.33C18.22 81.65 17.42 74.74 16.56 69.41ZM18.22 68.76C19.66 73.30 21.10 79.20 21.67 83.09L25.85 81.79C25.20 77.98 23.69 72.14 22.18 67.68ZM34.34 38.30C32.33 45.14 28.15 53.86 23.69 59.33C24.48 60.41 25.85 62.28 26.50 63.50C27.58 62.21 28.58 60.84 29.59 59.40L29.59 89.06L34.99 89.06L34.99 49.97C36.72 46.44 38.16 42.98 39.38 39.67ZM64.80 81.94C62.57 81.94 60.19 81.72 57.96 81.00L57.96 64.80L67.54 64.80L67.54 59.47L57.96 59.47L57.96 50.33L52.13 50.33L52.13 77.83C49.82 75.89 47.81 73.08 46.44 69.05C47.23 63.86 47.74 58.75 48.10 54.36L42.19 53.93C41.69 63.36 40.39 77.18 35.42 85.18C36.72 85.90 38.95 87.48 40.03 88.42C42.05 85.32 43.63 81.29 44.71 76.97C49.75 85.61 56.88 87.77 64.30 87.77L67.97 87.77C68.18 86.18 69.05 83.38 69.84 81.94Z"/></svg>
