<svg xmlns="http://www.w3.org/2000/svg" xmlns:xlink="http://www.w3.org/1999/xlink" width="72.00000000000001" height="106.56000000000002"><path fill="red" stroke="red" d="M12.67 43.78C14.83 46.44 17.06 49.61 18.29 51.70L21.60 49.54L21.60 56.16C18.22 58.46 14.90 60.62 12.38 61.99C12.60 58.10 12.67 54.43 12.67 51.19ZM21.60 31.82L21.60 47.74C20.09 45.58 17.78 42.70 15.77 40.39L12.67 42.26L12.67 31.82ZM27.36 25.70L6.98 25.70L6.98 51.19C6.98 61.56 6.62 75.67 2.38 85.61C3.67 86.33 6.12 88.34 7.13 89.57C10.37 82.37 11.66 72.79 12.31 63.79L14.26 68.11C16.63 66.10 19.15 64.01 21.60 61.85L21.60 81.79C21.60 82.80 21.24 83.09 20.30 83.16C19.37 83.16 16.49 83.23 13.46 83.09C14.33 84.60 15.05 87.41 15.19 88.99C19.94 88.99 22.90 88.85 24.84 87.77C26.71 86.83 27.36 84.96 27.36 81.86ZM58.25 56.02C56.09 61.78 52.92 66.67 49.03 70.78C45.22 66.53 42.34 61.63 40.25 56.02ZM62.21 49.68L60.98 49.90L52.13 49.90L52.13 40.03L68.18 40.03L68.18 33.91L52.13 33.91L52.13 23.11L45.36 23.11L45.36 33.91L29.95 33.91L29.95 40.03L45.36 40.03L45.36 49.90L31.32 49.90L31.32 56.02L34.85 56.02L33.84 56.30C36.36 63.58 39.89 69.91 44.21 75.17C39.67 78.84 34.42 81.50 28.87 83.30C30.17 84.67 31.90 87.41 32.62 89.06C38.52 86.90 43.99 83.88 48.82 79.92C53.28 83.88 58.54 86.98 64.66 89.06C65.59 87.41 67.54 84.67 69.05 83.45C63.14 81.65 57.96 78.91 53.71 75.31C59.40 69.12 63.86 61.20 66.38 51.34Z"/></svg>
