<svg xmlns="http://www.w3.org/2000/svg" xmlns:xlink="http://www.w3.org/1999/xlink" width="72.00000000000001" height="106.56000000000002"><path fill="red" stroke="red" d="M12.46 44.06C14.47 46.44 16.63 49.25 17.78 51.19L20.38 49.32L20.38 57.02C17.28 59.04 14.47 60.91 12.17 62.14C12.38 58.25 12.46 54.50 12.46 51.19ZM20.38 31.82L20.38 46.44C18.86 44.50 16.85 42.19 15.12 40.39L12.46 42.05L12.46 31.82ZM25.85 25.70L6.98 25.70L6.98 51.19C6.98 61.56 6.62 75.67 2.38 85.61C3.60 86.26 5.98 88.27 6.91 89.42C10.15 82.15 11.52 72.43 12.10 63.43L14.11 67.90L20.38 62.71L20.38 81.86C20.38 82.80 20.09 83.09 19.22 83.16C18.36 83.16 15.77 83.23 12.89 83.09C13.68 84.60 14.40 87.26 14.54 88.78C19.01 88.78 21.74 88.63 23.47 87.62C25.27 86.69 25.85 84.89 25.85 81.94ZM49.75 37.94C51.62 41.26 54.14 44.57 57.02 47.45L38.66 47.45C41.26 44.71 43.49 41.47 45.29 37.94ZM36.07 52.85L57.82 52.85L57.82 48.17C60.62 50.76 63.72 52.99 67.10 54.72C67.61 52.99 68.76 50.26 69.84 48.82C64.44 46.51 59.62 42.62 56.16 37.94L68.40 37.94L68.40 32.11L47.88 32.11C48.74 29.59 49.61 26.86 50.26 23.98L44.14 23.04C43.42 26.28 42.48 29.30 41.26 32.11L28.01 32.11L28.01 37.94L38.23 37.94C35.21 42.77 31.18 46.66 26.21 49.39C27.43 50.62 29.52 53.14 30.31 54.43C32.33 53.14 34.27 51.62 36.07 50.04ZM28.08 63.29L36.94 63.29C35.86 67.25 34.56 71.50 33.41 74.66L57.24 74.66C56.66 79.56 56.02 81.94 54.94 82.80C54.14 83.30 53.21 83.30 51.62 83.30C49.61 83.30 44.14 83.23 38.88 82.80C40.18 84.46 41.18 86.83 41.33 88.63C46.30 88.85 51.19 88.92 53.71 88.78C56.59 88.70 58.39 88.20 59.98 86.76C61.99 84.82 62.86 80.71 63.72 71.64C63.86 70.78 63.94 69.12 63.94 69.12L41.54 69.12C42.12 67.25 42.70 65.23 43.20 63.29L67.61 63.29L67.61 57.67L28.08 57.67Z"/></svg>
