<svg xmlns="http://www.w3.org/2000/svg" xmlns:xlink="http://www.w3.org/1999/xlink" width="72.00000000000001" height="106.56000000000002"><path fill="red" stroke="red" d="M59.83 67.97L22.82 67.97L22.82 75.38C22.82 78.77 22.46 82.73 18.79 85.75C20.23 86.62 23.04 88.78 24.05 89.93C28.37 86.11 29.16 80.28 29.16 75.53L29.16 70.99L53.42 70.99L53.42 77.11L48.53 77.62L49.97 74.66C45.86 73.30 38.52 72.00 32.90 71.50L31.32 74.30C36.86 75.02 43.78 76.32 47.88 77.69C41.18 78.34 34.85 78.91 30.17 79.27L31.68 83.74C37.94 82.87 45.58 81.79 53.42 80.64L53.42 83.52C53.42 84.24 53.14 84.46 52.34 84.46C51.62 84.53 49.03 84.53 46.44 84.46C47.09 85.68 47.88 87.26 48.17 88.70C52.49 88.70 55.44 88.70 57.31 87.98C59.26 87.26 59.83 86.18 59.83 83.45ZM25.20 60.26L37.73 60.26L37.73 62.78L25.20 62.78ZM25.20 55.01L37.73 55.01L37.73 57.46L25.20 57.46ZM56.81 57.46L43.78 57.46L43.78 55.01L56.81 55.01ZM56.81 62.78L43.78 62.78L43.78 60.26L56.81 60.26ZM19.08 65.66L63.14 65.66L63.14 52.13L19.08 52.13ZM40.97 45.86C38.66 45.86 38.09 45.36 37.94 44.06L54.58 43.42L54.43 40.18L37.94 40.82L37.94 38.23L58.90 38.23C58.32 39.82 57.67 41.40 57.10 42.55L62.71 44.42C64.22 41.98 65.88 38.16 67.10 34.70L62.21 33.34L61.06 33.62L38.59 33.62L38.59 30.96L61.99 30.96L61.99 26.57L38.59 26.57L38.59 23.04L31.90 23.04L31.90 33.62L8.93 33.62L8.93 52.13C8.93 61.85 8.50 75.46 2.88 85.03C4.46 85.68 7.27 87.34 8.57 88.49C14.47 78.26 15.48 62.78 15.48 52.20L15.48 38.23L31.97 38.23L31.97 41.04L18.72 41.54L18.86 44.78L31.97 44.28C32.18 48.10 33.77 50.04 39.74 50.04L57.53 50.04C60.84 50.04 64.44 49.90 66.10 49.46C65.81 48.24 65.66 47.02 65.45 45.29C63.94 45.65 59.33 45.86 56.88 45.86Z"/></svg>
