<svg xmlns="http://www.w3.org/2000/svg" xmlns:xlink="http://www.w3.org/1999/xlink" width="72.00000000000001" height="106.56000000000002"><path fill="red" stroke="red" d="M54.86 38.95L60.84 38.95L60.84 34.42L68.76 34.42L68.76 28.94L60.84 28.94L60.84 23.33L54.86 23.33L54.86 28.94L49.61 28.94L49.61 34.42L54.86 34.42ZM36.50 39.10L42.48 39.10L42.48 34.42L47.81 34.42L47.81 29.02L42.48 29.02L42.48 23.47L36.50 23.47L36.50 29.02L28.15 29.02L28.15 34.42L36.50 34.42ZM12.67 44.35C14.62 46.73 16.42 49.39 17.50 51.19L20.23 49.32L20.23 57.02C17.28 58.97 14.54 60.77 12.38 61.99C12.60 58.10 12.67 54.36 12.67 51.12ZM20.23 31.82L20.23 46.58C18.79 44.57 16.85 42.26 15.12 40.32L12.67 41.90L12.67 31.82ZM37.44 54.14L57.96 54.14L57.96 58.32L37.44 58.32ZM37.44 45.50L57.96 45.50L57.96 49.75L37.44 49.75ZM67.97 73.30L67.97 67.61L50.54 67.61C50.83 66.10 50.98 64.66 51.12 63.00L64.30 63.00L64.30 40.82L31.39 40.82L31.39 63.00L44.64 63.00C44.50 64.66 44.35 66.17 44.06 67.61L28.08 67.61L28.08 73.30L42.34 73.30C39.96 78.41 35.35 81.79 25.70 84.02C25.78 83.38 25.85 82.73 25.85 81.94L25.85 25.70L6.98 25.70L6.98 51.19C6.98 61.49 6.62 75.67 2.38 85.61C3.67 86.33 6.05 88.34 7.06 89.57C10.30 82.37 11.66 72.65 12.24 63.79L14.11 67.90C16.20 66.17 18.14 64.51 20.23 62.71L20.23 81.86C20.23 82.80 19.94 83.09 19.08 83.16C18.22 83.16 15.62 83.23 12.74 83.09C13.54 84.60 14.26 87.34 14.47 88.92C18.86 88.92 21.60 88.78 23.47 87.77C24.62 87.12 25.27 86.11 25.63 84.60C26.78 85.90 28.01 87.98 28.58 89.35C41.11 86.26 46.66 81.07 49.25 73.30ZM48.17 77.98C53.86 81.22 61.63 86.11 65.52 89.06L69.48 84.24C65.45 81.36 57.53 76.75 52.06 73.73Z"/></svg>
