<svg xmlns="http://www.w3.org/2000/svg" xmlns:xlink="http://www.w3.org/1999/xlink" width="72.00000000000001" height="106.56000000000002"><path fill="red" stroke="red" d="M65.95 51.77C62.14 46.80 54.00 39.74 47.59 34.99L42.26 38.52C44.86 40.54 47.66 42.91 50.33 45.36L20.16 46.37C24.12 42.62 28.30 38.02 32.04 33.05L65.81 33.05L65.81 26.86L5.76 26.86L5.76 33.05L23.40 33.05C19.51 38.16 15.34 42.55 13.68 43.85C11.81 45.72 10.22 46.87 8.78 47.16C9.50 48.96 10.58 52.34 10.94 53.71C13.90 52.63 18.14 52.56 55.94 50.90C57.67 52.70 59.04 54.36 60.12 55.80ZM39.31 80.35L39.31 68.54L61.92 68.54L61.92 62.35L39.31 62.35L39.31 54.07L32.33 54.07L32.33 62.35L10.44 62.35L10.44 68.54L32.33 68.54L32.33 80.35L4.03 80.35L4.03 86.62L68.18 86.62L68.18 80.35Z"/></svg>
