<svg xmlns="http://www.w3.org/2000/svg" xmlns:xlink="http://www.w3.org/1999/xlink" width="72.00000000000001" height="106.56000000000002"><path fill="red" stroke="red" d="M21.53 78.19L10.44 78.19L10.44 65.59L21.53 65.59ZM19.22 48.82L28.58 48.82L28.58 43.06L19.22 43.06L19.22 33.91L27.07 33.91L27.07 28.22L4.75 28.22L4.75 33.91L13.25 33.91L13.25 43.06L3.24 43.06L3.24 48.82L13.25 48.82L13.25 59.98L5.04 59.98L5.04 88.63L10.44 88.63L10.44 83.59L21.53 83.59L21.53 86.90L27.22 86.90L27.22 59.98L19.22 59.98ZM52.49 46.44C55.51 52.92 60.55 59.54 65.45 63.22C66.46 61.70 68.40 59.62 69.77 58.46C65.74 55.87 61.49 51.26 58.68 46.44L68.33 46.44L68.33 40.54L47.88 40.54C48.67 38.16 49.32 35.71 49.90 33.05L65.09 33.05L65.09 26.93L33.41 26.93L33.41 33.05L43.70 33.05C43.13 35.71 42.41 38.16 41.54 40.54L29.95 40.54L29.95 46.44L38.95 46.44C36.14 51.77 32.33 56.09 27.43 59.33C28.80 60.41 30.89 62.78 31.75 64.01C37.66 59.69 42.26 53.78 45.58 46.44ZM35.42 62.71C34.34 68.26 32.26 74.45 29.02 78.19L33.77 81.29C37.30 77.04 39.31 70.20 40.46 64.37ZM42.19 82.73C42.19 83.45 41.98 83.66 41.26 83.66C40.61 83.66 38.45 83.66 36.22 83.59C36.94 85.18 37.66 87.55 37.80 89.14C41.40 89.14 43.85 89.06 45.65 88.06C47.45 87.19 47.88 85.61 47.88 82.80L47.88 55.30L42.19 55.30ZM49.03 65.09C50.83 69.62 52.49 75.67 52.85 79.63L57.96 78.05C57.38 74.16 55.73 68.18 53.71 63.65ZM56.66 62.35C60.12 67.90 63.36 75.31 64.37 80.28L69.70 77.98C68.47 73.08 65.23 65.74 61.56 60.26Z"/></svg>
