<svg xmlns="http://www.w3.org/2000/svg" xmlns:xlink="http://www.w3.org/1999/xlink" width="72.00000000000001" height="106.56000000000002"><path fill="red" stroke="red" d="M11.38 53.64L11.38 48.96L17.21 48.96L17.21 53.64ZM29.09 48.96L29.09 53.64L23.18 53.64L23.18 48.96ZM15.48 33.05L24.98 33.05L24.98 37.15L15.48 37.15ZM21.53 73.87L36.22 73.87L36.22 69.19L22.75 69.19C22.90 68.04 23.04 66.96 23.11 65.81L34.49 65.81L34.49 61.06L23.18 61.06L23.18 57.82L34.49 57.82L34.49 44.78L23.18 44.78L23.18 41.54L31.03 41.54L31.03 33.05L36.43 33.05L36.43 28.08L31.03 28.08L31.03 23.11L24.98 23.11L24.98 28.08L15.48 28.08L15.48 23.11L9.65 23.11L9.65 28.08L3.67 28.08L3.67 33.05L9.65 33.05L9.65 41.54L17.21 41.54L17.21 44.78L6.26 44.78L6.26 57.82L17.21 57.82L17.21 61.06L5.76 61.06L5.76 65.81L17.14 65.81C17.06 66.96 16.92 68.04 16.63 69.19L3.60 69.19L3.60 73.87L15.19 73.87C13.18 78.12 9.43 82.01 2.45 85.03C3.82 85.97 5.90 88.27 6.70 89.57C12.74 86.76 16.70 83.09 19.15 79.13C22.68 81.79 27.65 85.68 29.88 87.84L33.84 82.80C31.90 81.43 24.55 76.46 21.38 74.59ZM45.07 44.28L59.18 44.28L59.18 51.26L45.07 51.26ZM59.18 31.97L59.18 38.66L45.07 38.66L45.07 31.97ZM64.44 58.90C62.64 60.98 59.69 63.72 56.95 66.02C56.09 63.29 55.37 60.34 54.79 57.31L65.52 57.31L65.52 25.92L38.74 25.92L38.74 77.54C38.74 80.14 37.44 81.14 36.22 81.65C37.22 83.30 38.30 86.40 38.66 88.34C40.10 87.34 42.41 86.47 55.01 83.30C54.79 81.94 54.65 79.20 54.72 77.47L45.07 79.56L45.07 57.31L49.03 57.31C51.48 71.71 56.09 83.38 65.45 89.42C66.38 87.70 68.40 85.25 69.91 83.95C65.09 81.29 61.49 76.82 58.97 71.28C62.14 68.98 65.74 66.10 68.90 63.43Z"/></svg>
