<svg xmlns="http://www.w3.org/2000/svg" xmlns:xlink="http://www.w3.org/1999/xlink" width="72.00000000000001" height="106.56000000000002"><path fill="red" stroke="red" d="M47.52 39.60L54.07 39.60L54.07 34.85L67.68 34.85L67.68 29.02L54.07 29.02L54.07 23.18L47.52 23.18L47.52 29.02L37.58 29.02L37.58 34.85L47.52 34.85ZM18.36 39.96L24.98 39.96L24.98 34.92L33.91 34.92L33.91 29.02L24.98 29.02L24.98 23.18L18.36 23.18L18.36 29.02L4.03 29.02L4.03 34.92L18.36 34.92ZM68.11 57.89L19.94 57.89C19.94 57.02 19.94 56.23 19.94 55.51L19.94 49.75C34.92 49.32 51.70 47.95 63.43 45.14L57.74 39.67C47.52 42.12 28.73 43.56 13.10 43.92L13.10 55.44C13.10 64.44 11.95 76.82 2.45 85.54C4.18 86.33 7.13 88.20 8.28 89.42C15.55 82.58 18.43 73.01 19.44 64.22L41.04 64.22L41.04 89.21L48.10 89.21L48.10 64.22L68.11 64.22Z"/></svg>
