<svg xmlns="http://www.w3.org/2000/svg" xmlns:xlink="http://www.w3.org/1999/xlink" width="72.00000000000001" height="106.56000000000002"><path fill="red" stroke="red" d="M18.36 38.52L25.06 38.52L25.06 34.06L33.84 34.06L33.84 28.15L25.06 28.15L25.06 23.11L18.36 23.11L18.36 28.15L4.03 28.15L4.03 34.06L18.36 34.06ZM38.38 61.70L38.38 70.70L21.96 70.70L21.96 61.70ZM24.19 44.28C24.77 43.27 25.27 42.19 25.78 41.26L18.79 39.24C15.34 46.73 9.29 53.86 2.74 58.25C4.39 59.26 7.49 61.34 8.86 62.64C10.94 60.91 13.10 58.97 15.12 56.74L15.12 81.07L21.96 81.07L21.96 76.32L44.93 76.32L44.93 56.09L15.70 56.09C17.28 54.36 18.86 52.42 20.23 50.40L57.96 50.40C57.17 70.99 56.09 79.49 54.00 81.58C53.21 82.37 52.42 82.58 50.83 82.58C48.96 82.58 44.14 82.58 39.24 82.15C40.46 84.10 41.47 86.90 41.62 88.85C46.15 89.14 50.90 89.14 53.50 88.92C56.38 88.63 58.25 87.91 60.05 85.75C62.86 82.51 63.86 73.08 64.94 47.45C65.02 46.58 65.09 44.28 65.09 44.28ZM54.07 28.15L54.07 23.11L47.38 23.11L47.38 28.15L37.51 28.15L37.51 33.98L47.38 33.98L47.38 39.02L54.07 39.02L54.07 33.98L67.68 33.98L67.68 28.15Z"/></svg>
