<svg xmlns="http://www.w3.org/2000/svg" xmlns:xlink="http://www.w3.org/1999/xlink" width="72.00000000000001" height="106.56000000000002"><path fill="red" stroke="red" d="M18.22 38.74L24.77 38.74L24.77 33.41L34.42 33.41L34.42 27.72L24.77 27.72L24.77 23.04L18.22 23.04L18.22 27.72L4.46 27.72L4.46 33.41L18.22 33.41ZM55.80 58.39L55.80 63.36L39.31 63.36L39.31 58.39ZM39.31 73.15L39.31 68.18L55.80 68.18L55.80 73.15ZM17.64 73.15L17.64 68.18L32.76 68.18L32.76 73.15ZM32.76 58.39L32.76 63.36L17.64 63.36L17.64 58.39ZM54.14 33.41L67.75 33.41L67.75 27.72L54.14 27.72L54.14 23.04L47.52 23.04L47.52 27.72L37.37 27.72L37.37 33.41L47.52 33.41L47.52 36.72L51.41 36.72L48.67 39.96C50.98 40.68 53.71 41.90 56.02 43.13L39.31 43.13L39.31 36.72L32.76 36.72L32.76 43.13L5.62 43.13L5.62 48.74L32.76 48.74L32.76 52.99L11.16 52.99L11.16 89.21L17.64 89.21L17.64 78.05L32.76 78.05L32.76 88.92L39.31 88.92L39.31 78.05L55.80 78.05L55.80 82.44C55.80 83.45 55.44 83.74 54.29 83.81C53.28 83.88 49.39 83.88 45.65 83.74C46.44 85.18 47.38 87.48 47.59 89.14C53.21 89.14 56.95 89.06 59.33 88.13C61.63 87.34 62.42 85.75 62.42 82.51L62.42 52.99L39.31 52.99L39.31 48.74L66.74 48.74L66.74 43.13L61.13 43.13L62.71 41.18C60.55 39.67 56.74 37.94 53.35 36.72L54.14 36.72Z"/></svg>
