<svg xmlns="http://www.w3.org/2000/svg" xmlns:xlink="http://www.w3.org/1999/xlink" width="72.00000000000001" height="106.56000000000002"><path fill="red" stroke="red" d="M18.22 38.38L24.77 38.38L24.77 33.62L34.63 33.62L34.63 27.86L24.77 27.86L24.77 23.04L18.22 23.04L18.22 27.86L4.46 27.86L4.46 33.62L18.22 33.62ZM24.77 60.41L37.22 60.41L37.22 54.58L24.77 54.58L24.77 46.51C29.30 45.79 33.55 44.78 37.08 43.63L32.62 38.81C26.14 41.11 14.69 42.62 4.90 43.49C5.62 44.93 6.34 47.09 6.55 48.53C10.37 48.31 14.47 47.88 18.50 47.38L18.50 54.58L4.32 54.58L4.32 60.41L16.63 60.41C13.18 67.61 7.70 74.66 2.52 78.62C3.89 79.78 5.90 81.94 6.91 83.45C11.02 79.85 15.19 74.38 18.50 68.40L18.50 89.21L24.77 89.21L24.77 68.54C27.79 71.50 31.25 75.02 32.90 77.04L37.30 72.00C35.42 70.34 27.79 64.22 24.77 62.14ZM56.81 81.43C56.81 82.58 56.38 82.87 55.15 82.94C54.07 82.94 50.04 82.94 46.01 82.80C47.02 84.60 48.02 87.48 48.38 89.28C53.86 89.28 57.67 89.14 60.05 88.06C62.50 87.05 63.29 85.18 63.29 81.50L63.29 39.17L56.81 39.17ZM46.87 42.62L40.61 42.62L40.61 75.60L46.87 75.60ZM54.14 27.86L54.14 23.04L47.52 23.04L47.52 27.86L37.37 27.86L37.37 33.62L47.52 33.62L47.52 38.59L54.14 38.59L54.14 33.62L67.75 33.62L67.75 27.86Z"/></svg>
