<svg xmlns="http://www.w3.org/2000/svg" xmlns:xlink="http://www.w3.org/1999/xlink" width="72.00000000000001" height="106.56000000000002"><path fill="red" stroke="red" d="M19.66 40.54L26.28 40.54L26.28 35.28L35.06 35.28L35.06 29.16L26.28 29.16L26.28 23.18L19.66 23.18L19.66 29.16L4.68 29.16L4.68 35.28L19.66 35.28ZM24.26 49.32L24.26 56.02L13.25 56.02L13.25 49.32ZM13.25 69.12L13.25 61.56L24.26 61.56L24.26 69.12ZM30.46 74.95L30.46 43.49L7.13 43.49L7.13 79.63L13.25 79.63L13.25 74.95ZM42.41 67.18C42.77 65.02 42.84 62.78 42.84 60.77L42.84 60.48L58.18 60.48L58.18 67.18ZM58.18 48.24L58.18 54.79L42.84 54.79L42.84 48.24ZM64.80 42.48L36.43 42.48L36.43 60.62C36.43 68.69 35.06 77.98 23.26 84.24C24.41 85.25 26.71 87.91 27.43 89.35C35.35 85.10 39.31 79.13 41.26 72.86L58.18 72.86L58.18 81.22C58.18 82.30 57.82 82.58 56.66 82.66C55.51 82.66 51.70 82.66 47.88 82.51C48.82 84.17 49.90 86.98 50.11 88.70C55.58 88.78 59.26 88.63 61.70 87.55C64.01 86.62 64.80 84.74 64.80 81.29ZM52.06 29.16L52.06 23.18L45.43 23.18L45.43 29.16L37.37 29.16L37.37 35.28L45.43 35.28L45.43 40.54L52.06 40.54L52.06 35.28L67.61 35.28L67.61 29.16Z"/></svg>
