<svg xmlns="http://www.w3.org/2000/svg" xmlns:xlink="http://www.w3.org/1999/xlink" width="72.00000000000001" height="106.56000000000002"><path fill="red" stroke="red" d="M45.86 37.51L52.34 37.51L52.34 33.05L67.46 33.05L67.46 27.58L52.34 27.58L52.34 23.11L45.86 23.11L45.86 27.58L37.37 27.58L37.37 33.05L45.86 33.05ZM19.58 37.51L26.14 37.51L26.14 33.05L34.92 33.05L34.92 27.58L26.14 27.58L26.14 23.11L19.58 23.11L19.58 27.58L4.68 27.58L4.68 33.05L19.58 33.05ZM62.06 44.50C59.83 46.51 56.23 49.25 52.99 51.34C51.48 50.18 50.11 48.82 48.82 47.45C52.20 45.50 56.09 42.70 59.40 40.10L54.36 37.08C52.34 39.10 49.03 41.76 46.01 43.92C44.50 41.76 43.34 39.53 42.34 37.15L36.86 38.59C39.60 45.14 43.42 50.76 48.46 55.15L24.34 55.15C28.66 51.26 32.18 46.51 34.42 40.75L30.38 38.95L29.23 39.17L7.92 39.17L7.92 44.42L25.92 44.42C24.48 46.73 22.68 48.89 20.52 50.83C18.43 48.82 15.62 46.73 13.18 45.22L8.93 48.31C11.38 49.90 14.18 52.20 16.13 54.22C12.02 56.95 7.34 59.11 2.66 60.34C3.89 61.56 5.47 63.72 6.26 65.23C11.59 63.50 16.78 60.91 21.24 57.60L21.24 60.70L32.47 60.70L32.47 66.24L32.47 66.53L10.73 66.53L10.73 72.29L30.89 72.29C28.15 76.54 21.46 80.86 5.47 83.95C6.98 85.25 8.93 87.91 9.72 89.42C24.70 86.04 32.40 81.58 36.14 76.82C45.07 80.50 55.51 85.61 60.91 89.21L65.09 84.38C59.18 80.71 48.46 75.67 39.60 72.29L61.56 72.29L61.56 66.53L39.53 66.53L39.53 66.38L39.53 60.70L50.18 60.70L50.18 56.59C54.58 60.12 59.69 62.86 65.66 64.66C66.53 63.07 68.40 60.70 69.77 59.47C65.09 58.32 60.77 56.52 57.02 54.14C60.26 52.34 64.01 49.90 67.18 47.52Z"/></svg>
