<svg xmlns="http://www.w3.org/2000/svg" xmlns:xlink="http://www.w3.org/1999/xlink" width="72.00000000000001" height="106.56000000000002"><path fill="red" stroke="red" d="M19.58 38.52L26.21 38.52L26.21 33.34L35.06 33.34L35.06 27.36L26.21 27.36L26.21 23.11L19.58 23.11L19.58 27.36L4.68 27.36L4.68 33.34L19.58 33.34ZM14.83 46.80L63.65 46.80L63.65 41.26L40.46 41.26C39.60 39.31 38.38 37.08 37.30 35.28L30.74 37.01C31.39 38.30 32.18 39.74 32.83 41.26L8.71 41.26L8.71 58.10C8.71 66.60 8.14 77.98 2.09 86.11C3.46 86.83 6.12 88.63 7.20 89.71C13.68 80.93 14.83 67.54 14.83 58.18ZM46.44 60.26L46.44 66.10L31.68 66.10L31.68 60.26ZM53.06 71.57L53.06 60.26L63.72 60.26L63.72 54.65L53.06 54.65L53.06 48.96L46.44 48.96L46.44 54.65L31.68 54.65L31.68 48.96L25.34 48.96L25.34 54.65L16.27 54.65L16.27 60.26L25.34 60.26L25.34 71.57ZM19.66 89.06C22.32 85.82 24.48 80.71 25.99 76.82L20.81 74.45C19.44 78.19 17.06 83.16 14.40 86.04ZM29.30 76.39C30.82 80.06 32.26 84.89 32.76 87.91L38.38 86.54C37.87 83.59 36.36 78.77 34.56 75.17ZM41.47 76.68C43.34 80.14 45.29 84.67 46.08 87.55L51.48 85.46C50.76 82.66 48.53 78.19 46.66 74.81ZM53.06 76.25C56.23 79.99 59.69 85.10 61.13 88.49L66.67 85.82C65.16 82.44 61.56 77.40 58.32 73.80ZM52.42 27.36L52.42 23.11L45.72 23.11L45.72 27.36L37.30 27.36L37.30 33.34L45.72 33.34L45.72 38.52L52.42 38.52L52.42 33.34L67.61 33.34L67.61 27.36Z"/></svg>
