<svg xmlns="http://www.w3.org/2000/svg" xmlns:xlink="http://www.w3.org/1999/xlink" width="72.00000000000001" height="106.56000000000002"><path fill="red" stroke="red" d="M47.66 36.79L54.14 36.79L54.14 33.19L67.68 33.19L67.68 27.58L54.14 27.58L54.14 23.11L47.66 23.11L47.66 27.58L37.51 27.58L37.51 33.19L47.66 33.19ZM18.50 36.79L24.98 36.79L24.98 33.19L33.91 33.19L33.91 27.58L24.98 27.58L24.98 23.11L18.50 23.11L18.50 27.58L4.03 27.58L4.03 33.19L18.50 33.19ZM19.73 73.58C16.42 77.33 10.44 80.86 4.75 83.16C6.19 84.24 8.64 86.62 9.72 87.84C15.48 85.03 22.03 80.57 25.99 75.67ZM45.65 76.68C51.26 79.92 58.46 84.74 61.92 87.91L66.96 83.74C63.14 80.57 55.94 75.89 50.33 72.94ZM56.16 44.35C54.43 46.94 52.20 49.68 50.04 51.91C47.52 49.54 45.29 47.02 43.56 44.35ZM28.66 44.86C27.43 47.09 25.85 49.25 24.05 51.19C22.25 49.18 19.73 46.73 17.50 44.86ZM60.84 39.24L59.76 39.53L41.62 39.53L41.62 43.20L37.22 44.78C39.82 49.18 43.06 53.35 47.02 57.02L26.57 57.02C30.82 52.92 34.34 47.88 36.65 42.12L32.54 40.10L31.39 40.39L20.74 40.39C21.46 39.46 22.10 38.52 22.68 37.58L16.99 36.58C14.33 40.68 9.58 45.29 2.95 48.67C4.18 49.54 5.90 51.34 6.77 52.63C9.36 51.12 11.66 49.54 13.82 47.81C16.20 49.97 18.72 52.56 20.45 54.79C15.26 59.11 9.07 62.42 2.81 64.30C4.03 65.45 5.69 67.75 6.34 69.26C7.92 68.69 9.43 68.04 11.02 67.32L11.02 72.00L32.47 72.00L32.47 89.14L39.17 89.14L39.17 72.00L61.27 72.00L61.27 66.74L12.31 66.74C16.56 64.73 20.59 62.21 24.19 59.18L24.19 62.28L48.31 62.28L48.31 58.25C53.28 62.57 58.97 65.95 65.02 68.26C65.95 66.60 67.75 64.15 69.26 62.93C63.86 61.20 58.61 58.54 54.07 55.15C57.89 51.48 61.99 46.51 64.73 41.90ZM16.42 53.42C11.45 53.78 7.13 54.22 3.67 54.43L4.46 58.90C8.21 58.46 12.24 58.03 16.49 57.53Z"/></svg>
