<svg xmlns="http://www.w3.org/2000/svg" xmlns:xlink="http://www.w3.org/1999/xlink" width="72.00000000000001" height="106.56000000000002"><path fill="red" stroke="red" d="M18.22 35.86L24.84 35.86L24.84 32.26L34.56 32.26L34.56 27.00L24.84 27.00L24.84 23.04L18.22 23.04L18.22 27.00L4.46 27.00L4.46 32.26L18.22 32.26ZM32.62 70.20L32.62 74.30L16.92 74.30L16.92 70.20ZM55.51 74.30L38.95 74.30L38.95 70.20L55.51 70.20ZM38.95 82.73L38.95 78.48L55.51 78.48L55.51 82.73ZM16.92 82.73L16.92 78.48L32.62 78.48L32.62 82.73ZM10.87 89.21L16.92 89.21L16.92 87.12L55.51 87.12L55.51 89.21L61.85 89.21L61.85 65.81L10.87 65.81ZM13.03 65.16C18.14 64.15 24.19 62.93 30.38 61.63L30.10 57.89L28.58 58.10L30.17 54.58C26.78 53.21 20.52 51.70 15.77 50.83L14.04 54.14C18.72 55.08 24.70 56.74 28.15 58.18C21.89 59.11 15.70 59.98 11.30 60.48ZM60.84 61.70C56.38 60.26 48.02 58.75 41.90 58.10L40.68 61.70C46.94 62.64 55.22 64.37 59.62 65.74ZM55.66 50.69C51.84 51.98 45.22 54.00 40.82 54.86L42.84 57.96C47.38 57.24 53.78 55.87 58.25 54.22ZM39.02 41.83L61.92 41.83L61.92 37.30L10.15 37.30L10.15 41.83L32.54 41.83L32.54 45.14L5.83 45.14L5.83 57.24L12.10 57.24L12.10 49.90L32.54 49.90L32.54 63.94L39.02 63.94L39.02 49.90L59.69 49.90L59.69 57.24L66.24 57.24L66.24 45.14L39.02 45.14ZM53.71 27.00L53.71 23.04L47.09 23.04L47.09 27.00L37.37 27.00L37.37 32.26L47.09 32.26L47.09 35.93L53.71 35.93L53.71 32.26L67.75 32.26L67.75 27.00Z"/></svg>
