<svg xmlns="http://www.w3.org/2000/svg" xmlns:xlink="http://www.w3.org/1999/xlink" width="72.00000000000001" height="106.56000000000002"><path fill="red" stroke="red" d="M47.95 49.54C47.52 47.88 46.37 45.86 45.22 44.28L56.74 44.28C56.16 45.79 55.22 47.88 54.36 49.54ZM40.32 45.43C41.18 46.66 41.98 48.17 42.48 49.54L34.20 49.54L34.13 53.93L47.95 53.93L47.95 57.46L36.22 57.46L36.22 61.78L47.95 61.78L47.95 67.03L54.14 67.03L54.14 61.78L66.53 61.78L66.53 57.46L54.14 57.46L54.14 53.93L68.18 53.93L68.18 49.54L60.05 49.54C60.70 48.31 61.49 46.94 62.28 45.58L57.82 44.28L66.10 44.28L66.10 40.03L55.15 40.03C54.65 38.74 53.93 37.01 53.35 35.57L51.48 36.00L51.48 32.76L67.61 32.76L67.61 27.50L51.48 27.50L51.48 23.11L44.86 23.11L44.86 27.50L37.37 27.50L37.37 32.76L44.86 32.76L44.86 36.50L49.46 36.50L47.30 37.01C47.66 37.87 48.02 39.02 48.31 40.03L36.22 40.03L36.22 44.28L44.86 44.28ZM20.38 36.50L26.86 36.50L26.86 32.76L35.14 32.76L35.14 27.50L26.86 27.50L26.86 23.11L20.38 23.11L20.38 27.50L4.68 27.50L4.68 32.76L20.38 32.76ZM24.98 74.38C20.16 77.90 10.94 81.14 3.10 82.51C4.46 83.74 6.26 86.11 7.27 87.70C15.12 85.68 24.70 81.36 30.02 76.75ZM27.43 61.70L16.70 61.70L16.70 57.17L27.43 57.17ZM26.64 42.26L26.64 46.15L13.46 46.15L13.46 45.86L13.46 42.26ZM68.11 74.09L68.11 68.90L39.02 68.90L39.02 63.94L33.12 63.94L33.12 53.21L12.89 53.21C13.03 52.13 13.18 51.19 13.25 50.18L32.40 50.18L32.40 38.38L7.85 38.38L7.85 45.65C7.85 50.76 7.20 57.31 2.52 62.28C3.82 62.93 6.19 64.80 7.27 65.88C9.07 63.86 10.37 61.63 11.30 59.18L11.30 65.66L32.47 65.66L32.47 68.90L4.03 68.90L4.03 74.09L32.47 74.09L32.47 89.21L39.02 89.21L39.02 74.09L46.58 74.09L42.98 77.40C50.04 80.35 59.62 84.82 64.37 87.62L68.69 83.23C63.86 80.64 54.86 76.75 48.10 74.09Z"/></svg>
