<svg xmlns="http://www.w3.org/2000/svg" xmlns:xlink="http://www.w3.org/1999/xlink" width="72.00000000000001" height="106.56000000000002"><path fill="red" stroke="red" d="M10.51 41.54L15.84 41.54L15.84 57.02L10.51 57.02ZM26.14 57.02L20.74 57.02L20.74 41.54L26.14 41.54ZM54.43 80.93L54.43 63.50L66.10 63.50L66.10 57.67L54.43 57.67L54.43 42.55L67.46 42.55L67.46 36.58L49.03 36.58L55.15 34.34C54.29 31.25 52.06 26.64 49.82 23.18L43.85 25.20C45.79 28.80 48.02 33.55 48.82 36.58L33.84 36.58L33.84 42.55L47.66 42.55L47.66 57.67L35.21 57.67L35.21 63.50L47.66 63.50L47.66 80.93L33.91 80.93L34.13 80.86C33.26 76.68 31.18 70.42 29.30 65.52L24.12 67.10C24.84 68.90 25.56 70.99 26.21 73.01L21.24 74.09L21.24 62.57L31.39 62.57L31.39 36.07L21.31 36.07L21.31 23.40L15.26 23.40L15.26 36.07L5.26 36.07L5.26 65.66L10.51 65.66L10.51 62.57L15.26 62.57L15.26 75.46C10.58 76.39 6.34 77.40 3.02 78.05L4.18 84.46C10.80 82.80 19.51 80.71 27.79 78.62C28.22 80.06 28.58 81.43 28.80 82.58L31.61 81.72L31.61 86.90L69.05 86.90L69.05 80.93Z"/></svg>
