<svg xmlns="http://www.w3.org/2000/svg" xmlns:xlink="http://www.w3.org/1999/xlink" width="72.00000000000001" height="106.56000000000002"><path fill="red" stroke="red" d="M68.54 53.86C66.96 48.89 63.14 41.62 59.47 36.07L54.07 38.09C55.51 40.46 57.02 43.27 58.46 46.01L42.26 46.94C45.00 42.84 48.24 37.30 50.54 33.26L67.75 33.26L67.75 27.22L32.69 27.22L32.69 33.26L43.56 33.26C41.18 37.51 36.94 44.42 35.50 46.01C34.34 47.30 32.98 47.66 31.82 48.02C32.40 49.39 33.26 52.56 33.55 54.14C35.57 53.35 38.59 52.99 60.91 51.41C61.70 53.21 62.28 54.86 62.64 56.30ZM10.37 41.62L14.98 41.62L14.98 56.38L10.37 56.38ZM24.62 56.38L19.73 56.38L19.73 41.62L24.62 41.62ZM53.50 81.58L53.50 70.06L66.89 70.06L66.89 64.22L53.50 64.22L53.50 55.30L46.87 55.30L46.87 64.22L33.84 64.22L33.84 70.06L46.87 70.06L46.87 81.58L33.05 81.58C32.04 76.90 30.17 70.42 28.37 65.23L23.26 66.67C24.05 69.05 24.91 71.86 25.70 74.52L20.23 75.38L20.23 61.78L29.81 61.78L29.81 36.14L20.30 36.14L20.30 23.33L14.47 23.33L14.47 36.14L5.26 36.14L5.26 65.30L10.37 65.30L10.37 61.78L14.40 61.78L14.40 76.18C9.94 76.82 5.83 77.40 2.59 77.83L3.60 84.17C10.22 83.09 18.72 81.72 27.14 80.21C27.43 81.79 27.72 83.16 27.94 84.38L31.10 83.38L31.10 87.48L69.05 87.48L69.05 81.58Z"/></svg>
