<svg xmlns="http://www.w3.org/2000/svg" xmlns:xlink="http://www.w3.org/1999/xlink" width="72.00000000000001" height="106.56000000000002"><path fill="red" stroke="red" d="M15.91 51.55C15.91 52.42 15.62 52.63 14.69 52.63C13.90 52.70 10.94 52.70 8.14 52.63C8.86 54.07 9.65 56.38 10.01 57.89C14.40 57.89 17.50 57.89 19.58 57.02C21.60 56.16 22.25 54.72 22.25 51.70L22.25 45.22C25.70 44.78 29.30 44.42 32.83 43.92L32.69 38.74L22.25 39.89L22.25 34.34L32.62 34.34L32.62 29.09L22.25 29.09L22.25 23.18L15.91 23.18L15.91 29.09L4.75 29.09L4.75 34.34L15.91 34.34L15.91 40.68C11.16 41.18 6.91 41.62 3.46 41.98L4.10 47.59C7.56 47.09 11.59 46.58 15.91 46.01ZM39.31 81.07L39.31 75.31L52.99 75.31L49.10 77.54C50.54 78.48 51.91 79.63 53.42 80.78ZM17.42 70.27L17.42 64.80L32.83 64.80L32.83 70.27ZM55.08 64.80L55.08 70.27L39.31 70.27L39.31 64.80ZM62.06 75.31L62.06 59.90L39.31 59.90L39.31 55.08L34.92 55.08C39.38 51.62 41.18 47.38 41.76 42.91L52.20 42.91L52.20 57.46L58.54 57.46L58.54 42.91L68.33 42.91L68.33 37.51L42.12 37.51L42.12 37.30L42.12 32.40C50.33 31.32 59.18 29.74 65.59 27.43L60.34 23.11C54.72 25.13 44.86 27.07 36.29 28.08L36.29 37.15C36.29 42.55 35.28 48.31 27.65 52.42C29.16 53.42 31.39 55.44 32.47 56.81L32.83 56.59L32.83 59.90L10.80 59.90L10.80 75.31L32.83 75.31L32.83 81.22C22.32 81.43 12.53 81.65 5.04 81.72L5.47 87.62C19.37 87.26 40.03 86.62 59.47 85.97C60.98 87.41 62.42 88.78 63.50 90.00L68.76 86.54C65.81 83.45 60.19 78.77 55.30 75.31Z"/></svg>
