<svg xmlns="http://www.w3.org/2000/svg" xmlns:xlink="http://www.w3.org/1999/xlink" width="72.00000000000001" height="106.56000000000002"><path fill="red" stroke="red" d="M18.43 32.69C17.57 30.10 15.77 26.14 14.18 23.11L8.64 25.06C10.08 28.15 11.88 32.40 12.53 35.06ZM23.90 62.78C23.26 61.92 21.67 59.76 19.94 57.67C21.53 56.38 23.26 54.72 25.34 53.14L50.26 53.14L50.26 47.23L40.82 47.23L40.82 39.24L48.96 39.24L48.96 33.41L40.82 33.41L40.82 24.05L34.70 24.05L34.70 33.41L26.71 33.41L26.71 39.24L34.70 39.24L34.70 47.23L25.34 47.23L25.34 52.42L21.82 49.39C20.81 50.83 19.08 53.06 17.64 54.79L16.49 53.50C19.37 48.53 21.96 43.06 23.62 37.58L20.23 35.28L19.08 35.57L4.54 35.57L4.54 41.47L16.20 41.47C12.96 49.39 7.63 57.46 2.38 62.21C3.46 63.36 5.04 66.53 5.62 68.18C7.27 66.60 8.86 64.66 10.51 62.57L10.51 89.14L16.42 89.14L16.42 60.05C18.07 62.71 19.73 65.66 20.59 67.46ZM40.82 78.26L40.82 68.98L49.25 68.98L49.25 63.07L40.82 63.07L40.82 55.15L34.70 55.15L34.70 63.07L26.35 63.07L26.35 68.98L34.70 68.98L34.70 78.98C30.46 79.49 26.57 79.92 23.40 80.21L24.34 86.47L50.76 83.09L50.54 77.18ZM69.62 60.55C68.18 56.23 64.44 49.25 61.20 43.99L59.33 45.00L59.33 23.26L52.99 23.26L52.99 89.06L59.33 89.06L59.33 51.77C61.49 56.09 63.50 60.62 64.51 63.72Z"/></svg>
