<svg xmlns="http://www.w3.org/2000/svg" xmlns:xlink="http://www.w3.org/1999/xlink" width="72.00000000000001" height="106.56000000000002"><path fill="red" stroke="red" d="M29.38 35.14L15.91 35.14L20.66 32.18C19.66 29.59 17.50 25.78 15.70 22.75L10.87 25.42C12.67 28.37 14.69 32.47 15.77 35.14L3.53 35.14L3.53 40.46L29.38 40.46ZM26.78 49.97L26.78 44.71L6.41 44.71L6.41 49.97ZM21.53 69.34L21.53 79.63L11.66 79.63L11.66 69.34ZM26.86 63.94L6.41 63.94L6.41 88.27L11.66 88.27L11.66 85.03L26.86 85.03ZM6.41 59.40L26.86 59.40L26.86 54.22L6.41 54.22ZM30.24 27.00L30.24 33.34L38.30 33.34L38.30 53.64L29.38 53.64L29.38 59.83L38.30 59.83L38.30 89.21L44.57 89.21L44.57 59.83L52.99 59.83L52.99 53.64L44.57 53.64L44.57 33.34L55.22 33.34C55.15 61.56 55.01 85.68 61.99 88.13C65.74 89.71 68.69 87.41 69.55 77.18C68.54 76.18 66.89 73.73 65.88 72.07C65.66 76.90 65.16 81.58 64.73 81.43C61.34 80.42 61.42 53.64 61.92 27.00Z"/></svg>
