<svg xmlns="http://www.w3.org/2000/svg" xmlns:xlink="http://www.w3.org/1999/xlink" width="72.00000000000001" height="106.56000000000002"><path fill="red" stroke="red" d="M29.30 35.14L15.62 35.14L20.45 32.18C19.44 29.59 17.35 25.78 15.48 22.75L10.73 25.42C12.53 28.37 14.47 32.47 15.48 35.14L3.46 35.14L3.46 40.46L29.30 40.46ZM6.26 59.40L26.50 59.40L26.50 54.22L6.26 54.22ZM6.26 44.71L6.26 49.97L26.42 49.97L26.42 44.71ZM21.10 79.63L11.52 79.63L11.52 69.34L21.10 69.34ZM68.47 41.62L68.47 35.28L53.21 35.28L54.14 34.99C53.57 32.04 51.98 27.22 50.40 23.62L44.78 25.20C45.94 28.37 47.16 32.33 47.81 35.28L31.25 35.28L31.25 41.62L40.61 41.62C40.25 58.82 39.02 75.38 26.42 84.53L26.42 63.94L6.26 63.94L6.26 88.27L11.52 88.27L11.52 85.03L26.42 85.03L26.42 84.82C27.94 85.97 29.74 87.91 30.60 89.42C40.61 81.94 44.35 70.56 45.86 57.60L59.04 57.60C58.39 73.73 57.46 80.14 56.09 81.65C55.44 82.44 54.79 82.66 53.50 82.58C52.27 82.58 48.96 82.58 45.58 82.22C46.58 84.02 47.38 86.69 47.52 88.63C50.98 88.78 54.50 88.78 56.52 88.56C58.68 88.27 60.19 87.62 61.56 85.90C63.72 83.23 64.51 75.38 65.45 54.29C65.52 53.35 65.52 51.34 65.52 51.34L46.44 51.34C46.66 48.17 46.80 44.93 46.94 41.62Z"/></svg>
