<svg xmlns="http://www.w3.org/2000/svg" xmlns:xlink="http://www.w3.org/1999/xlink" width="72.00000000000001" height="106.56000000000002"><path fill="red" stroke="red" d="M56.59 43.70C55.51 45.94 54.07 48.24 52.42 50.40L42.77 50.90C45.00 47.16 47.81 42.19 49.97 38.45L68.69 38.45L68.69 32.33L54.58 32.33L54.79 32.26C54.22 29.74 52.70 25.85 50.98 22.97L45.22 24.70C46.44 27.00 47.52 29.95 48.24 32.33L31.61 32.33L31.61 38.45L43.34 38.45C41.11 42.41 37.80 48.17 36.58 49.54C35.50 50.90 33.48 51.34 32.11 51.70C32.54 53.14 33.26 56.09 33.48 57.67C34.78 57.17 36.79 56.74 47.59 56.02C42.77 60.98 36.65 65.38 30.17 68.40C31.25 69.55 32.83 71.78 33.70 73.08C46.08 67.03 56.52 56.59 62.50 45.58ZM30.17 35.14L16.13 35.14L21.10 32.18C20.09 29.59 17.86 25.78 15.91 22.75L10.94 25.42C12.82 28.37 14.90 32.47 15.98 35.14L3.38 35.14L3.38 40.46L30.17 40.46ZM27.43 49.97L27.43 44.71L6.26 44.71L6.26 49.97ZM27.50 54.22L6.26 54.22L6.26 59.40L27.50 59.40ZM22.03 79.63L11.95 79.63L11.95 69.34L22.03 69.34ZM61.13 56.81C55.51 68.26 42.98 78.41 27.50 83.74L27.50 63.94L6.34 63.94L6.34 88.27L11.95 88.27L11.95 85.03L27.00 85.03C28.08 86.40 29.30 88.20 29.95 89.42C38.30 86.47 45.79 82.22 52.13 77.11C56.52 81.14 61.34 86.04 63.86 89.21L69.05 85.03C66.31 81.79 61.13 77.04 56.66 73.08C60.98 68.76 64.66 64.08 67.54 58.97Z"/></svg>
