<svg xmlns="http://www.w3.org/2000/svg" xmlns:xlink="http://www.w3.org/1999/xlink" width="72.00000000000001" height="106.56000000000002"><path fill="red" stroke="red" d="M54.94 79.06L54.94 83.52L27.94 83.52L27.94 79.06ZM21.82 89.06L27.94 89.06L27.94 87.41L54.94 87.41L54.94 88.99L61.34 88.99L61.34 75.17L21.82 75.17ZM22.54 72.14L60.91 72.14L60.91 68.40L22.54 68.40ZM60.91 61.85L22.54 61.85L22.54 65.59L60.91 65.59ZM18.00 41.33L28.94 41.33C27.86 44.93 25.20 46.94 18.00 48.02ZM39.17 32.26C38.30 33.62 37.44 35.06 36.50 36.14L20.52 36.14C21.60 34.92 22.54 33.55 23.40 32.26ZM67.68 41.33L67.68 36.14L43.63 36.14C45.07 34.20 46.51 32.04 47.66 29.95L43.63 27.22L42.41 27.58L26.28 27.58C26.86 26.50 27.43 25.49 27.94 24.41L21.02 23.11C17.86 30.17 11.59 38.66 2.23 44.71C3.67 45.72 5.83 47.95 6.77 49.46C8.57 48.24 10.22 46.87 11.81 45.50L11.81 54.29C11.81 63.79 10.94 76.75 2.95 85.68C4.54 86.40 7.20 88.20 8.35 89.21C15.55 81.00 17.50 68.83 17.93 58.97L66.74 58.97L66.74 54.72L43.13 54.72C42.41 52.99 41.26 50.47 40.25 48.53L35.06 50.26C35.71 51.62 36.43 53.28 37.08 54.72L18.00 54.72L18.00 54.36L18.00 49.75C18.72 50.76 19.37 51.84 19.66 52.63C30.31 51.05 33.98 47.59 35.28 41.33L43.49 41.33L43.49 43.85C43.49 48.67 44.71 50.90 50.26 50.90L60.26 50.90C62.35 50.90 64.80 50.83 65.95 50.47C65.66 49.03 65.59 47.38 65.38 45.72C64.22 46.01 61.49 46.15 59.98 46.15L51.41 46.15C49.75 46.15 49.54 45.58 49.54 43.92L49.54 41.33Z"/></svg>
