<svg xmlns="http://www.w3.org/2000/svg" xmlns:xlink="http://www.w3.org/1999/xlink" width="72.00000000000001" height="106.56000000000002"><path fill="red" stroke="red" d="M29.45 35.14L16.13 35.14L21.31 32.18C20.16 29.59 17.93 25.78 15.98 22.75L10.87 25.42C12.74 28.37 14.90 32.47 15.98 35.14L3.10 35.14L3.10 40.46L29.45 40.46ZM27.14 44.71L6.05 44.71L6.05 49.97L27.14 49.97ZM6.05 59.40L27.14 59.40L27.14 54.22L6.05 54.22ZM21.74 69.34L21.74 79.63L11.59 79.63L11.59 69.34ZM27.50 63.94L5.90 63.94L5.90 88.27L11.59 88.27L11.59 85.03L27.50 85.03ZM67.82 59.69L67.82 53.57L52.56 53.57L52.56 42.19L65.16 42.19L65.16 36.07L52.56 36.07L52.56 23.18L46.37 23.18L46.37 36.07L41.04 36.07C41.69 33.34 42.26 30.46 42.70 27.50L36.65 26.50C35.50 34.85 33.34 43.13 29.74 48.46C31.32 49.25 33.91 50.90 35.06 51.84C36.72 49.18 38.09 45.86 39.31 42.19L46.37 42.19L46.37 53.57L30.31 53.57L30.31 59.69L43.78 59.69C40.25 68.18 34.27 76.61 28.01 81.00C29.38 82.15 31.39 84.46 32.47 86.04C37.73 81.79 42.70 74.88 46.37 67.18L46.37 89.21L52.56 89.21L52.56 66.82C55.94 74.16 60.34 81.00 64.87 85.32C65.88 83.66 68.04 81.22 69.48 80.14C64.01 75.67 58.32 67.75 54.94 59.69Z"/></svg>
