<svg xmlns="http://www.w3.org/2000/svg" xmlns:xlink="http://www.w3.org/1999/xlink" width="72.00000000000001" height="106.56000000000002"><path fill="red" stroke="red" d="M28.37 35.14L15.48 35.14L20.66 32.18C19.58 29.59 17.35 25.78 15.41 22.75L10.22 25.42C12.02 28.37 14.18 32.47 15.34 35.14L3.10 35.14L3.10 40.46L28.37 40.46ZM25.99 49.97L25.99 44.71L5.90 44.71L5.90 49.97ZM26.06 54.22L5.90 54.22L5.90 59.40L26.06 59.40ZM20.95 69.34L20.95 79.63L11.74 79.63L11.74 69.34ZM26.42 63.94L5.98 63.94L5.98 88.27L11.74 88.27L11.74 85.03L26.42 85.03ZM30.82 63.07L38.38 63.07C37.30 66.96 36.00 71.35 34.85 74.52L41.33 74.52L41.33 74.45L56.88 74.45C56.23 79.56 55.51 81.94 54.65 82.87C54.00 83.38 53.35 83.45 52.13 83.45C50.90 83.45 47.59 83.38 44.35 83.09C45.29 84.67 46.01 86.98 46.15 88.78C49.68 88.92 53.06 88.92 54.86 88.70C56.88 88.63 58.32 88.13 59.54 86.83C61.42 85.03 62.28 80.78 63.14 71.35C63.29 70.49 63.36 68.98 63.36 68.98L43.06 68.98C43.63 67.03 44.21 65.09 44.71 63.07L66.82 63.07L66.82 57.53L30.82 57.53ZM40.10 47.45C42.48 44.71 44.64 41.47 46.37 37.94L52.13 37.94C53.78 41.26 56.02 44.64 58.39 47.45ZM68.18 37.94L68.18 32.11L48.82 32.11C49.68 29.59 50.40 26.86 51.05 24.05L44.78 23.18C44.14 26.35 43.27 29.38 42.26 32.11L30.02 32.11L30.02 37.94L39.31 37.94C36.22 42.98 32.11 47.09 26.93 49.97C28.37 51.05 30.67 53.50 31.54 54.72C33.98 53.21 36.36 51.41 38.38 49.25L38.38 52.85L59.18 52.85L59.18 48.38C61.27 50.69 63.58 52.70 65.81 54.22C66.82 52.63 68.69 50.47 70.06 49.25C65.74 46.87 61.34 42.62 58.32 37.94Z"/></svg>
