<svg xmlns="http://www.w3.org/2000/svg" xmlns:xlink="http://www.w3.org/1999/xlink" width="72.00000000000001" height="106.56000000000002"><path fill="red" stroke="red" d="M68.98 31.90C67.39 29.45 64.01 25.85 61.20 23.40L56.66 25.92C59.54 28.58 62.78 32.33 64.15 34.78ZM25.70 35.14L14.18 35.14L18.79 32.18C17.71 29.59 15.70 25.78 13.75 22.75L9.29 25.42C11.09 28.37 13.03 32.47 14.04 35.14L3.02 35.14L3.02 40.46L25.70 40.46ZM18.65 69.34L18.65 79.63L10.73 79.63L10.73 69.34ZM23.76 63.94L5.69 63.94L5.69 88.27L10.73 88.27L10.73 85.03L23.76 85.03ZM5.76 59.40L23.76 59.40L23.76 54.22L5.76 54.22ZM5.76 49.97L23.76 49.97L23.76 44.71L5.76 44.71ZM39.89 63.29L39.89 78.98L45.22 78.98L45.22 63.29L48.96 63.29L48.96 57.31L45.22 57.31L45.22 45.00L39.89 45.00L39.89 57.31L35.35 57.31L35.35 45.00L30.10 45.00L30.10 57.24L26.14 57.24L26.14 63.29L30.02 63.29C29.74 70.13 28.66 77.18 24.62 82.80C25.92 83.66 27.94 85.46 28.80 86.54C33.84 79.85 35.06 71.57 35.28 63.29ZM61.92 46.94C60.55 52.42 58.82 57.60 56.74 62.28C55.94 56.38 55.37 49.39 55.01 41.69L69.12 41.69L69.12 35.78L54.79 35.78C54.65 31.68 54.58 27.43 54.50 23.18L48.38 23.18C48.46 27.50 48.60 31.68 48.74 35.78L27.65 35.78L27.65 41.69L48.96 41.69C49.46 53.35 50.40 63.43 51.91 71.35C48.38 76.97 44.21 81.65 39.82 85.10C41.11 86.04 43.06 87.55 43.92 88.56C47.38 85.82 50.62 82.44 53.64 78.48C55.80 85.32 58.68 89.21 62.78 89.35C65.52 89.42 68.62 86.40 70.13 73.94C69.05 73.44 66.46 71.86 65.30 70.56C64.87 77.47 64.01 81.43 62.93 81.36C61.06 81.29 59.54 77.62 58.25 71.57C62.06 65.09 65.23 57.46 67.46 49.10Z"/></svg>
