<svg xmlns="http://www.w3.org/2000/svg" xmlns:xlink="http://www.w3.org/1999/xlink" width="72.00000000000001" height="106.56000000000002"><path fill="red" stroke="red" d="M60.77 27.43C59.33 31.03 56.45 36.14 54.22 39.24L59.04 41.40C61.42 38.52 64.37 33.98 66.96 29.88ZM67.25 51.05C63.50 47.59 56.23 42.77 50.04 39.17C51.05 34.85 51.34 29.59 51.48 23.11L45.36 23.11C45.00 40.46 43.70 47.30 28.37 51.12C29.66 52.42 31.32 54.94 31.97 56.59C40.68 54.07 45.50 50.54 48.17 45.00C53.93 48.60 60.12 53.14 63.43 56.30ZM59.04 73.08C61.42 69.91 64.37 65.02 66.96 60.55L60.77 58.32C59.33 62.14 56.59 67.68 54.29 71.14ZM41.26 71.35C39.67 67.97 36.14 62.42 33.41 58.25L28.58 60.91C31.25 65.23 34.56 70.99 36.14 74.45ZM42.12 39.67C40.46 36.50 37.08 31.32 34.42 27.29L29.59 30.10C32.26 34.13 35.57 39.67 37.08 42.91ZM20.52 32.40C19.58 29.88 17.71 25.99 15.91 22.97L10.44 25.06C12.10 28.08 13.97 32.18 14.76 34.78ZM29.38 35.14L3.10 35.14L3.10 40.54L29.38 40.54ZM26.57 49.97L26.57 44.71L5.83 44.71L5.83 49.97ZM26.57 54.22L5.83 54.22L5.83 59.40L26.57 59.40ZM21.10 79.63L11.74 79.63L11.74 69.34L21.10 69.34ZM51.05 52.99L44.71 52.99L44.71 61.06C44.71 67.54 43.27 77.62 26.93 84.53L26.93 63.94L5.90 63.94L5.90 88.27L11.74 88.27L11.74 85.03L26.93 85.03L26.93 84.89C28.51 86.04 30.24 87.98 31.10 89.28C41.18 84.67 46.22 79.13 48.74 73.58C52.13 81.00 57.24 86.18 65.30 88.99C66.17 87.19 67.97 84.67 69.41 83.38C59.33 80.57 53.64 73.30 50.98 63.36C51.05 62.57 51.05 61.92 51.05 61.13Z"/></svg>
