<svg xmlns="http://www.w3.org/2000/svg" xmlns:xlink="http://www.w3.org/1999/xlink" width="72.00000000000001" height="106.56000000000002"><path fill="red" stroke="red" d="M67.61 40.90C65.95 36.36 61.85 29.30 58.25 24.19L53.78 26.35C57.31 31.75 61.27 39.02 62.86 43.42ZM45.14 24.26C43.27 30.24 40.10 36.58 36.58 40.68C37.87 41.54 40.10 43.42 41.11 44.42C44.57 39.82 48.24 32.62 50.62 25.70ZM27.07 72.86L27.07 80.57L12.96 80.57L12.96 72.86ZM7.27 89.28L12.96 89.28L12.96 85.75L27.07 85.75L27.07 88.70L33.05 88.70L33.05 67.39L7.27 67.39ZM45.86 80.64L45.86 67.82L58.03 67.82L58.03 80.64ZM42.12 61.85C46.01 57.74 49.39 52.70 52.06 47.09C54.86 52.78 58.10 57.53 62.14 61.85ZM9.65 34.56L30.10 34.56L30.10 40.68L27.86 38.66C26.57 38.95 24.91 39.31 23.18 39.53L23.18 36.65L16.92 36.65L16.92 40.32C14.54 40.54 12.02 40.68 9.65 40.82ZM50.47 36.00C47.45 45.86 41.62 54.79 34.63 60.12L34.63 57.89L23.18 57.89L23.18 53.78L32.47 53.78L32.47 48.89L23.18 48.89L23.18 44.42C26.50 43.99 29.66 43.42 32.18 42.70L30.46 41.04L35.35 41.04L35.35 29.74L23.04 29.74C22.39 27.65 21.31 24.70 20.16 22.54L15.48 24.26C16.27 25.85 17.14 27.94 17.71 29.74L4.54 29.74L4.54 41.33L8.14 41.33C8.71 42.55 9.29 44.14 9.43 45.29C11.81 45.29 14.40 45.14 16.92 45.00L16.92 48.89L7.42 48.89L7.42 53.78L16.92 53.78L16.92 57.89L4.68 57.89L4.68 62.78L34.63 62.78L34.63 62.06C35.78 63.36 36.86 64.80 37.58 66.02C38.30 65.38 39.10 64.73 39.82 64.08L39.82 89.28L45.86 89.28L45.86 85.90L58.03 85.90L58.03 89.06L64.30 89.06L64.30 64.01C64.87 64.51 65.45 65.09 66.02 65.59C66.74 63.79 68.47 61.70 69.91 60.26C63.43 55.22 58.61 49.10 54.86 40.46C55.22 39.60 55.51 38.81 55.80 37.87Z"/></svg>
