<svg xmlns="http://www.w3.org/2000/svg" xmlns:xlink="http://www.w3.org/1999/xlink" width="72.00000000000001" height="106.56000000000002"><path fill="red" stroke="red" d="M67.39 37.37L39.31 37.37L39.31 31.68L61.42 31.68L61.42 26.35L11.16 26.35L11.16 31.68L32.47 31.68L32.47 37.37L4.90 37.37L4.90 42.70L67.39 42.70ZM52.78 55.44L19.37 55.44L19.37 50.98L52.78 50.98ZM52.78 64.15L19.37 64.15L19.37 59.69L52.78 59.69ZM52.78 73.01L19.37 73.01L19.37 68.40L52.78 68.40ZM59.83 46.44L12.60 46.44L12.60 77.54L24.55 77.54C19.51 80.35 11.09 82.94 3.82 84.46C5.33 85.54 7.70 88.13 8.78 89.42C16.06 87.34 25.06 83.81 30.89 80.14L25.06 77.54L59.83 77.54ZM41.18 80.93C48.74 83.59 56.45 86.98 60.84 89.35L68.18 86.11C62.93 83.66 54.29 80.14 46.51 77.54Z"/></svg>
