<svg xmlns="http://www.w3.org/2000/svg" xmlns:xlink="http://www.w3.org/1999/xlink" width="72.00000000000001" height="106.56000000000002"><path fill="red" stroke="red" d="M25.06 78.70C20.09 81.14 11.45 83.38 4.10 84.67C5.54 85.75 7.85 88.27 9.00 89.64C16.13 87.84 25.27 84.74 31.18 81.43ZM19.58 74.52L19.58 70.49L53.21 70.49L53.21 74.52ZM19.58 62.57L53.21 62.57L53.21 66.53L19.58 66.53ZM19.58 54.79L53.21 54.79L53.21 58.54L19.58 58.54ZM59.98 78.70L59.98 50.54L17.64 50.54C27.29 47.95 32.47 44.06 35.50 38.59L49.39 38.59C48.96 41.47 48.46 42.84 47.88 43.42C47.30 43.92 46.66 43.99 45.36 43.99C44.14 43.99 40.54 43.99 37.01 43.63C37.80 45.00 38.38 47.02 38.52 48.60C42.48 48.74 46.22 48.74 48.17 48.67C50.26 48.53 51.70 48.17 52.99 46.94C54.58 45.50 55.37 42.41 56.16 35.64L56.23 34.85C59.40 36.00 62.86 37.01 66.31 37.66C66.89 35.93 68.33 33.26 69.26 31.90C60.34 30.82 51.12 27.79 47.59 23.33L33.05 23.33L33.05 28.44L44.57 28.44C46.58 30.31 49.32 31.90 52.49 33.34L19.66 33.34C23.11 31.46 26.21 29.30 28.44 26.86L23.11 23.40C18.79 28.15 10.44 31.75 2.88 33.70C4.25 34.92 5.83 37.15 6.62 38.38C10.08 37.44 13.82 36.14 17.28 34.56L17.28 38.59L28.37 38.59C24.84 42.70 18.43 45.58 5.04 47.16C6.12 48.46 7.56 51.05 7.99 52.56C9.79 52.27 11.45 51.98 13.10 51.62L13.10 78.70L46.15 78.70L41.04 82.08C48.89 84.38 56.59 87.34 61.06 89.42L68.11 85.90C62.93 83.81 54.29 80.86 46.58 78.70Z"/></svg>
