<svg xmlns="http://www.w3.org/2000/svg" xmlns:xlink="http://www.w3.org/1999/xlink" width="72.00000000000001" height="106.56000000000002"><path fill="red" stroke="red" d="M24.77 77.69C19.80 80.50 11.23 83.02 3.82 84.46C5.33 85.61 7.70 88.13 8.86 89.42C16.06 87.48 25.06 84.02 30.89 80.50ZM53.28 56.88L19.51 56.88L19.51 52.85L53.28 52.85ZM53.28 65.02L19.51 65.02L19.51 60.91L53.28 60.91ZM53.28 73.30L19.51 73.30L19.51 69.12L53.28 69.12ZM59.98 48.60L13.03 48.60L13.03 77.54L59.98 77.54ZM41.18 81.22C48.74 83.81 56.52 87.05 60.91 89.28L68.04 85.90C62.78 83.59 54.14 80.28 46.37 77.76ZM38.45 41.54C38.66 40.39 38.81 39.10 38.95 37.73L51.70 37.73L51.41 41.54ZM20.59 37.73L32.83 37.73C32.69 39.10 32.47 40.39 32.33 41.54L20.09 41.54ZM33.77 29.74C33.62 30.89 33.55 32.11 33.41 33.34L21.17 33.34L21.60 29.74ZM51.98 33.34L39.46 33.34L39.82 29.74L52.27 29.74ZM58.68 32.83L59.26 25.56L15.77 25.56L14.83 32.83L3.89 32.83L3.89 38.30L14.11 38.30L13.18 45.72L57.67 45.72L58.25 38.30L68.18 38.30L68.18 32.83Z"/></svg>
