<svg xmlns="http://www.w3.org/2000/svg" xmlns:xlink="http://www.w3.org/1999/xlink" width="72.00000000000001" height="106.56000000000002"><path fill="red" stroke="red" d="M61.99 24.70C54.65 27.86 41.62 30.24 30.17 31.46C30.89 32.90 31.75 35.21 32.04 36.72C43.78 35.42 57.60 33.19 66.67 29.59ZM21.46 39.53L11.74 39.53L11.74 31.90L21.46 31.90ZM21.46 52.56L11.74 52.56L11.74 44.71L21.46 44.71ZM21.46 65.59L11.74 65.59L11.74 57.67L21.46 57.67ZM27.36 26.50L5.98 26.50L5.98 70.99L27.36 70.99ZM9.79 72.79C7.99 76.97 5.33 81.79 2.74 85.10C4.18 85.82 6.55 87.26 7.63 88.20C10.15 84.60 13.25 79.13 15.26 74.38ZM61.63 45.58L60.34 45.94L51.48 45.94C50.76 43.27 49.54 39.38 48.17 36.43L42.48 37.87C43.42 40.39 44.35 43.42 45.00 45.94L31.68 45.94L31.68 51.84L56.30 51.84C51.19 59.83 43.20 69.41 35.93 75.24C33.70 76.32 31.32 78.70 28.80 81.94C27.36 79.27 24.91 75.60 22.75 72.72L18.22 75.17C20.45 78.34 23.11 82.80 24.41 85.54L27.86 83.52L31.82 88.92C33.98 84.60 36.36 80.14 38.16 80.14C39.82 80.14 41.98 82.15 44.86 84.02C48.96 86.76 52.92 87.98 58.10 87.98C60.77 87.98 65.81 87.77 68.04 87.62C68.11 85.90 68.90 82.94 69.41 81.36C66.31 81.79 61.27 82.01 58.54 82.01C53.35 82.01 49.61 80.93 46.30 78.84C44.86 77.98 43.63 77.04 42.55 76.39C51.26 68.83 60.34 57.89 66.02 48.60Z"/></svg>
