<svg xmlns="http://www.w3.org/2000/svg" xmlns:xlink="http://www.w3.org/1999/xlink" width="72.00000000000001" height="106.56000000000002"><path fill="red" stroke="red" d="M58.90 40.39L46.73 40.39L46.73 31.82L58.90 31.82ZM65.45 26.71L40.61 26.71L40.61 45.58L65.45 45.58ZM19.51 69.12L53.28 69.12L53.28 73.30L19.51 73.30ZM19.51 60.91L53.28 60.91L53.28 65.02L19.51 65.02ZM19.51 52.85L53.28 52.85L53.28 56.88L19.51 56.88ZM13.03 77.54L59.98 77.54L59.98 48.60L13.03 48.60ZM30.46 33.19C30.17 37.58 29.74 39.53 29.16 40.18C28.58 40.75 28.01 40.75 27.00 40.75C25.99 40.82 23.26 40.75 20.30 40.46C21.17 41.90 21.74 44.14 21.89 45.79C25.13 45.94 28.22 45.94 29.88 45.79C31.68 45.65 33.05 45.14 34.20 43.92C35.57 42.41 36.14 38.66 36.58 30.10C36.65 29.23 36.72 27.79 36.72 27.79L22.18 27.79C22.39 26.28 22.46 24.77 22.61 23.11L16.34 23.11C16.20 24.77 16.13 26.28 15.91 27.79L4.68 27.79L4.68 33.19L14.76 33.19C13.10 38.59 9.72 42.48 2.52 45.07C3.82 46.15 5.54 48.46 6.12 49.90C15.34 46.37 19.37 40.82 21.24 33.19ZM24.77 77.69C19.80 80.50 11.23 83.02 3.82 84.46C5.33 85.61 7.70 88.13 8.86 89.42C16.06 87.48 25.06 84.02 30.89 80.50ZM41.18 81.22C48.74 83.81 56.52 86.98 60.91 89.28L68.11 85.82C62.78 83.52 54.14 80.28 46.37 77.76Z"/></svg>
