<svg xmlns="http://www.w3.org/2000/svg" xmlns:xlink="http://www.w3.org/1999/xlink" width="72.00000000000001" height="106.56000000000002"><path fill="red" stroke="red" d="M40.97 33.98L30.67 33.98L30.67 30.89L40.97 30.89ZM57.60 38.38L57.60 42.70L47.02 42.70L47.02 38.38ZM30.67 38.38L40.97 38.38L40.97 42.70L30.67 42.70ZM14.83 38.38L24.48 38.38L24.48 42.70L14.83 42.70ZM24.48 33.98L8.78 33.98L8.78 47.09L64.01 47.09L64.01 33.98L47.02 33.98L47.02 30.89L67.18 30.89L67.18 25.92L4.75 25.92L4.75 30.89L24.48 30.89ZM19.58 70.20L53.21 70.20L53.21 74.23L19.58 74.23ZM19.58 62.14L53.21 62.14L53.21 66.24L19.58 66.24ZM19.58 54.22L53.21 54.22L53.21 58.18L19.58 58.18ZM59.98 78.48L59.98 49.97L13.03 49.97L13.03 78.48ZM25.06 78.62C20.09 81.14 11.45 83.30 4.03 84.67C5.54 85.68 7.85 88.20 9.00 89.57C16.13 87.84 25.27 84.67 31.10 81.36ZM41.04 82.01C48.60 84.38 56.16 87.26 60.41 89.28L68.11 86.11C62.93 83.95 54.36 81.00 46.66 78.70Z"/></svg>
