<svg xmlns="http://www.w3.org/2000/svg" xmlns:xlink="http://www.w3.org/1999/xlink" width="72.00000000000001" height="106.56000000000002"><path fill="red" stroke="red" d="M12.67 35.57L59.83 35.57L59.83 43.85L66.31 43.85L66.31 30.96L55.22 30.96C56.81 29.30 58.68 27.22 60.26 24.98L53.42 23.26C52.20 25.42 49.97 28.73 48.17 30.89L48.38 30.96L39.17 30.96L39.17 23.11L32.54 23.11L32.54 30.96L22.68 30.96L24.34 30.38C23.26 28.37 21.02 25.56 19.01 23.54L13.03 25.20C14.54 26.93 16.20 29.09 17.35 30.96L6.34 30.96L6.34 43.85L12.67 43.85ZM23.69 42.91L48.74 42.91L48.74 47.02L23.69 47.02ZM55.37 50.98L55.37 38.95L17.50 38.95L17.50 50.98ZM24.77 79.42C20.23 81.72 11.88 83.52 4.39 84.53C5.90 85.61 8.28 88.20 9.43 89.57C16.63 88.06 25.78 85.25 31.18 81.86ZM19.87 71.86L53.14 71.86L53.14 75.31L19.87 75.31ZM19.87 64.80L53.14 64.80L53.14 68.18L19.87 68.18ZM19.87 57.82L53.14 57.82L53.14 61.13L19.87 61.13ZM59.76 79.20L59.76 54.00L13.46 54.00L13.46 79.20L45.79 79.20L40.90 82.80C48.53 84.74 56.30 87.41 60.77 89.28L67.61 85.54C62.57 83.74 54.14 81.14 46.58 79.20Z"/></svg>
