<svg xmlns="http://www.w3.org/2000/svg" xmlns:xlink="http://www.w3.org/1999/xlink" width="72.00000000000001" height="106.56000000000002"><path fill="red" stroke="red" d="M40.25 63.07C43.78 60.98 47.16 58.39 50.18 55.44C53.06 58.25 56.38 60.91 60.12 63.07ZM42.05 80.71L42.05 68.76L58.10 68.76L58.10 80.71ZM30.89 58.10L22.46 58.10L22.46 48.60L30.24 48.60L30.24 45.36C31.75 46.51 33.84 48.24 34.85 49.32C36.72 47.38 38.66 45.07 40.39 42.55C41.98 45.29 43.78 48.10 46.08 50.83C41.54 55.30 36.29 58.75 30.89 61.06ZM12.31 31.75L24.05 31.75L24.05 42.84L12.31 42.84ZM56.38 35.93C54.72 39.74 52.56 43.27 49.97 46.44C47.38 43.42 45.36 40.32 43.70 37.22L44.35 35.93ZM60.41 29.95L59.26 30.24L47.02 30.24C47.81 28.44 48.53 26.57 49.18 24.70L42.70 23.11C40.18 31.39 35.64 39.17 30.24 44.42L30.24 25.99L6.48 25.99L6.48 48.60L16.49 48.60L16.49 76.68L11.74 77.76L11.74 54.65L6.26 54.65L6.26 78.91C5.04 79.13 3.89 79.34 2.81 79.56L3.96 86.04C11.74 84.24 22.18 81.72 32.04 79.20L31.39 73.30L22.46 75.38L22.46 64.01L30.89 64.01L30.89 63.94C31.61 64.94 32.33 66.02 32.76 66.89C33.84 66.46 34.85 65.95 35.93 65.45L35.93 88.99L42.05 88.99L42.05 86.47L58.10 86.47L58.10 88.78L64.51 88.78L64.51 65.38L65.95 65.95C66.82 64.30 68.76 61.63 70.06 60.41C63.94 58.25 58.75 54.94 54.36 50.98C58.82 45.65 62.42 39.24 64.66 31.75Z"/></svg>
