<svg xmlns="http://www.w3.org/2000/svg" xmlns:xlink="http://www.w3.org/1999/xlink" width="72.00000000000001" height="106.56000000000002"><path fill="red" stroke="red" d="M44.50 35.21L31.68 35.21L31.68 39.31L64.58 39.31L64.58 35.21L50.76 35.21L50.76 32.04L67.61 32.04L67.61 27.94L50.76 27.94L50.76 23.11L44.50 23.11L44.50 27.94L28.73 27.94L28.73 32.04L44.50 32.04ZM33.34 49.10L33.34 53.06L44.57 53.06L44.57 56.23L30.10 56.23L30.10 60.19L65.45 60.19L65.45 56.23L50.76 56.23L50.76 53.06L61.92 53.06L61.92 52.20L65.88 53.06C66.96 50.47 68.26 46.37 69.19 42.84L64.94 41.90L63.94 42.12L28.01 42.12L28.01 46.44L62.28 46.44C62.06 47.38 61.85 48.24 61.56 49.10ZM11.45 31.61L20.45 31.61L20.45 42.98L11.45 42.98ZM19.58 75.31L19.58 64.01L26.78 64.01L26.78 58.25L19.58 58.25L19.58 48.60L26.28 48.60L26.28 25.99L5.98 25.99L5.98 48.60L14.11 48.60L14.11 76.54L10.66 77.33L10.66 54.65L5.62 54.65L5.62 78.41L2.52 79.06L3.82 85.25C10.58 83.59 19.37 81.43 27.65 79.27L27.14 73.58ZM39.60 74.16L39.60 80.28L33.84 80.28L33.84 74.16ZM44.50 69.98L29.02 69.98L29.02 87.12L33.84 87.12L33.84 84.46L44.50 84.46ZM47.59 77.69C48.96 79.85 50.69 82.73 51.48 84.67L55.66 82.44C54.94 80.71 53.14 77.90 51.62 75.82ZM27.79 67.39L58.90 67.39L58.90 70.99L45.86 70.99L45.86 75.31L58.90 75.31L58.90 84.02C58.90 84.67 58.68 84.82 58.03 84.89C57.31 84.96 55.22 84.96 52.85 84.89C53.50 86.11 54.36 87.91 54.65 89.21C58.18 89.21 60.48 89.21 62.21 88.49C63.94 87.77 64.30 86.62 64.30 84.17L64.30 75.31L69.05 75.31L69.05 70.99L64.30 70.99L64.30 67.39L69.19 67.39L69.19 63.07L27.79 63.07Z"/></svg>
