<svg xmlns="http://www.w3.org/2000/svg" xmlns:xlink="http://www.w3.org/1999/xlink" width="72.00000000000001" height="106.56000000000002"><path fill="red" stroke="red" d="M67.25 31.82L55.51 31.82L57.96 30.60C57.10 28.37 55.15 25.06 52.92 22.75L48.02 25.06C49.68 27.00 51.26 29.66 52.13 31.82L40.32 31.82L40.32 37.30L67.25 37.30ZM27.50 81.43C26.71 80.71 25.70 79.85 24.48 79.06C26.50 76.61 28.08 73.73 29.09 70.56L26.50 69.34L25.78 69.55L13.82 69.55L13.82 73.15L23.83 73.15C23.11 74.52 22.25 75.74 21.31 76.97C19.58 75.89 17.93 74.95 16.34 74.23L14.18 76.97C15.62 77.76 17.21 78.62 18.79 79.63C16.78 81.50 14.69 82.94 12.46 83.95C13.32 84.67 14.47 86.11 15.05 86.98C17.42 85.75 19.80 84.02 22.03 81.79C23.33 82.80 24.41 83.74 25.20 84.53ZM30.53 29.74C29.59 32.11 27.79 35.71 26.42 37.94L30.24 39.89C31.75 37.87 33.48 34.78 35.21 31.82ZM36.79 52.49L26.06 52.49L27.36 51.05C26.71 50.62 25.99 50.18 25.13 49.68C28.94 47.59 32.62 45.00 35.35 42.19L32.04 39.60L30.89 39.89L11.30 39.89L15.19 38.23C14.69 36.65 13.54 34.42 12.38 32.76L8.21 34.34C9.29 35.93 10.30 38.23 10.73 39.89L7.78 39.89L7.78 44.14L25.85 44.14C24.26 45.36 22.54 46.51 20.74 47.52C18.79 46.66 16.63 45.79 14.83 45.29L12.02 48.38C14.90 49.46 18.29 51.05 21.02 52.49L5.90 52.49L5.90 89.21L11.16 89.21L11.16 57.67L18.58 57.67C17.28 60.12 15.05 62.35 14.47 62.93C13.75 63.58 13.18 63.86 12.46 64.01C12.96 65.09 13.54 67.32 13.75 68.18C14.69 67.82 16.34 67.39 26.28 66.46C26.64 67.25 27.00 67.97 27.22 68.54L30.46 66.74C29.59 64.66 27.58 61.56 25.63 59.18L22.61 60.77C23.18 61.56 23.83 62.35 24.41 63.29L18.65 63.79C20.16 62.28 21.67 60.48 22.90 58.54L20.59 57.67L31.54 57.67L31.54 82.51C31.54 83.23 31.32 83.38 30.67 83.45C30.10 83.45 28.30 83.52 26.21 83.45C27.00 84.74 27.94 86.90 28.22 88.34C31.32 88.34 33.34 88.27 34.92 87.34C36.43 86.47 36.79 85.03 36.79 82.66ZM17.42 32.83C18.50 34.78 19.51 37.44 19.87 39.17L24.34 37.44C23.83 35.71 22.75 33.19 21.60 31.32ZM33.98 22.97C26.93 25.27 14.69 26.93 4.32 27.72C4.82 29.02 5.47 31.03 5.62 32.47C16.13 31.75 28.73 30.17 37.01 27.58ZM43.34 39.74C45.14 43.49 46.73 48.38 47.16 51.62L52.27 50.11C51.70 46.87 50.04 41.98 48.10 38.38ZM68.54 57.24L68.54 51.62L59.90 51.62C61.34 48.02 63.07 43.34 64.51 39.24L58.68 37.94C57.74 41.98 55.94 47.74 54.36 51.62L39.60 51.62L39.60 57.24L50.83 57.24L50.83 66.60L41.11 66.60L41.11 72.29L50.83 72.29L50.83 89.14L57.02 89.14L57.02 72.29L66.53 72.29L66.53 66.60L57.02 66.60L57.02 57.24Z"/></svg>
