<svg xmlns="http://www.w3.org/2000/svg" xmlns:xlink="http://www.w3.org/1999/xlink" width="72.00000000000001" height="106.56000000000002"><path fill="red" stroke="red" d="M53.71 48.38L53.71 56.09L43.85 56.09L43.85 48.38ZM38.02 48.38L38.02 61.27L59.76 61.27L59.76 48.38L67.75 48.38L67.75 43.13L59.76 43.13L59.76 36.79L53.71 36.79L53.71 43.13L43.85 43.13L43.85 36.79L38.02 36.79L38.02 43.13L30.60 43.13L30.60 35.28L67.97 35.28L67.97 29.74L51.26 29.74C50.40 27.65 49.25 25.06 48.17 23.04L41.83 24.41C42.55 25.99 43.49 27.94 44.21 29.74L24.55 29.74L24.55 45.43C24.55 53.78 24.05 65.23 19.15 73.51C20.59 74.02 23.18 75.74 24.34 76.82C29.09 68.83 30.38 57.38 30.60 48.38ZM57.46 65.09C60.12 69.05 62.78 74.38 63.94 77.90L68.76 75.82C67.61 72.43 64.87 67.18 61.99 63.29ZM57.24 76.75C56.66 73.51 55.15 68.47 53.64 64.66L48.96 65.81C50.47 69.62 51.91 74.66 52.34 77.98ZM46.73 77.47C46.80 74.16 46.44 69.05 45.72 65.16L41.04 65.38C41.62 69.34 41.90 74.45 41.69 77.76ZM33.34 78.70C35.78 75.31 37.51 69.91 38.81 65.81L34.06 63.86C32.90 67.97 30.89 73.08 28.58 76.32ZM17.06 34.99C16.13 31.90 14.47 27.14 13.10 23.40L7.27 25.13C8.35 28.94 10.15 34.06 11.02 37.22ZM17.71 55.87L16.63 56.16L13.75 56.16C15.62 51.12 17.71 45.29 19.37 40.18L3.53 40.18L3.53 46.22L11.02 46.22C9.14 51.84 6.98 57.67 5.04 61.92L13.32 61.92C12.17 67.18 10.51 72.79 8.42 76.68C6.48 78.26 4.32 80.57 2.30 83.38L6.84 89.57C8.78 85.18 11.23 80.50 12.89 80.50C14.47 80.50 17.06 83.02 19.94 84.67C25.20 87.70 31.39 88.49 40.82 88.49C49.18 88.49 62.42 88.06 67.97 87.70C68.11 85.90 69.19 82.58 69.91 80.78C61.99 81.79 49.82 82.44 41.11 82.44C32.62 82.44 26.06 82.01 21.10 78.98C18.36 77.33 16.78 76.03 15.26 75.24C17.64 69.91 19.44 63.22 20.66 56.95Z"/></svg>
