<svg xmlns="http://www.w3.org/2000/svg" xmlns:xlink="http://www.w3.org/1999/xlink" width="72.00000000000001" height="106.56000000000002"><path fill="red" stroke="red" d="M10.22 31.61L35.86 31.61L35.86 36.94L41.76 36.94L41.76 26.35L4.54 26.35L4.54 36.94L10.22 36.94ZM12.10 65.09L12.10 60.34L20.09 60.34L20.09 65.09ZM12.10 51.34L20.09 51.34L20.09 56.09L12.10 56.09ZM34.20 51.34L34.20 56.09L26.21 56.09L26.21 51.34ZM34.20 65.09L26.21 65.09L26.21 60.34L34.20 60.34ZM26.21 69.70L40.18 69.70L40.18 46.73L26.21 46.73L26.21 42.55L38.88 42.55L38.88 37.44L26.21 37.44L26.21 31.97L20.09 31.97L20.09 37.44L7.06 37.44L7.06 42.55L20.09 42.55L20.09 46.73L6.19 46.73L6.19 69.70L20.09 69.70L20.09 73.87L3.53 73.87L3.53 79.20L20.09 79.20L20.09 89.21L26.21 89.21L26.21 79.20L42.41 79.20L42.41 73.87L26.21 73.87ZM64.51 26.57L63.50 26.86L45.29 26.86L45.29 89.14L51.55 89.14L51.55 32.90L61.06 32.90C59.26 38.45 56.81 46.01 54.58 51.62C60.26 57.67 61.92 63.00 61.92 67.10C61.92 69.70 61.49 71.64 60.19 72.43C59.47 72.94 58.61 73.15 57.53 73.22C56.30 73.30 54.72 73.30 52.85 73.08C53.93 74.88 54.50 77.62 54.58 79.34C56.45 79.42 58.61 79.42 60.19 79.20C61.92 78.98 63.43 78.48 64.73 77.69C67.03 75.96 68.11 72.58 68.04 67.90C68.04 63.07 66.67 57.38 60.84 50.83C63.58 44.42 66.67 36.14 69.12 29.38Z"/></svg>
