<svg xmlns="http://www.w3.org/2000/svg" xmlns:xlink="http://www.w3.org/1999/xlink" width="72.00000000000001" height="106.56000000000002"><path fill="red" stroke="red" d="M20.66 30.46C24.12 29.74 27.36 29.02 30.10 28.01L26.50 23.04C20.95 25.27 11.52 26.93 3.53 27.86C4.25 29.23 4.97 31.25 5.26 32.69C8.21 32.40 11.38 32.04 14.54 31.54L14.54 49.25L3.02 49.25L3.02 55.08L13.54 55.08C10.94 62.42 6.41 70.78 2.45 75.46C3.46 77.04 4.97 79.63 5.54 81.43C8.71 77.47 11.95 71.35 14.54 65.09L14.54 89.21L20.66 89.21L20.66 62.28C23.18 65.52 26.06 69.55 27.50 71.71L31.18 67.18C29.59 65.23 22.82 57.38 20.66 55.30L20.66 55.08L31.18 55.08L31.18 49.25L20.66 49.25ZM4.68 35.64C6.05 39.46 7.42 44.50 7.78 47.74L12.60 46.08C12.10 42.84 10.73 37.87 9.22 34.13ZM25.92 47.88C27.43 44.64 29.30 39.38 31.18 34.99L25.85 32.90C25.06 36.72 23.26 42.62 21.96 46.15ZM52.78 79.20L52.78 64.22L60.41 64.22L60.41 79.20ZM39.24 64.22L46.87 64.22L46.87 79.20L39.24 79.20ZM46.87 44.50L46.87 58.25L39.24 58.25L39.24 44.50ZM60.41 58.25L52.78 58.25L52.78 44.50L60.41 44.50ZM53.35 38.45L53.35 23.11L46.30 23.11L46.30 38.45L33.34 38.45L33.34 89.28L39.24 89.28L39.24 85.18L60.41 85.18L60.41 88.78L66.60 88.78L66.60 38.45Z"/></svg>
