<svg xmlns="http://www.w3.org/2000/svg" xmlns:xlink="http://www.w3.org/1999/xlink" width="72.00000000000001" height="106.56000000000002"><path fill="red" stroke="red" d="M21.60 59.33L31.61 59.33L31.61 53.64L21.60 53.64L21.60 46.80L29.16 46.80L29.16 41.18L11.45 41.18C14.04 38.59 16.49 35.71 18.65 32.69C23.40 35.57 28.15 39.17 31.18 42.05L34.27 36.58C31.39 33.91 26.57 30.60 21.82 27.79C22.39 26.93 22.90 25.92 23.40 24.98L18.00 22.75C14.47 29.52 8.21 35.93 2.38 39.96C3.24 41.62 4.68 45.29 5.18 46.73C6.48 45.79 7.63 44.78 8.93 43.63L8.93 46.80L15.77 46.80L15.77 53.64L4.61 53.64L4.61 59.33L15.77 59.33L15.77 78.84C11.09 79.70 6.91 80.42 3.60 80.93L5.11 86.90C12.53 85.39 22.46 83.38 31.97 81.29L31.54 75.96C28.15 76.61 24.84 77.18 21.60 77.76ZM5.76 63.72C6.98 67.90 8.14 73.15 8.42 76.75L13.25 75.38C12.82 72.00 11.66 66.67 10.30 62.57ZM27.36 75.82C28.58 72.65 30.10 67.61 31.54 63.22L26.35 61.85C25.70 65.59 24.26 71.06 23.18 74.52ZM69.19 32.04L69.19 25.99L31.61 25.99L31.61 32.04L47.30 32.04L47.30 57.02L40.03 57.02L40.03 39.38L34.06 39.38L34.06 62.93L61.78 62.93C60.98 75.38 60.12 80.42 58.75 81.72C58.10 82.44 57.38 82.66 56.23 82.58C54.94 82.58 51.84 82.58 48.60 82.22C49.61 83.95 50.40 86.54 50.47 88.34C53.86 88.56 57.17 88.56 59.04 88.34C61.27 88.13 62.78 87.55 64.15 85.90C66.31 83.59 67.25 76.82 68.26 59.69C68.40 58.82 68.40 57.02 68.40 57.02L53.57 57.02L53.57 47.16L67.61 47.16L67.61 41.40L53.57 41.40L53.57 32.04Z"/></svg>
