<svg xmlns="http://www.w3.org/2000/svg" xmlns:xlink="http://www.w3.org/1999/xlink" width="72.00000000000001" height="106.56000000000002"><path fill="red" stroke="red" d="M60.55 55.73L52.56 55.73L52.56 49.32L60.55 49.32ZM52.56 68.04L52.56 61.20L60.55 61.20L60.55 68.04ZM38.88 68.04L38.88 61.20L46.58 61.20L46.58 68.04ZM46.58 49.32L46.58 55.73L38.88 55.73L38.88 49.32ZM68.83 38.16L68.83 32.47L64.15 32.47L68.33 29.16C66.53 27.14 62.86 24.41 59.76 22.75L55.51 25.99C58.54 27.72 61.99 30.46 63.72 32.47L52.85 32.47L52.85 23.18L46.22 23.18L46.22 32.47L30.60 32.47L30.60 35.50C27.86 33.12 24.12 30.31 20.30 27.86C20.88 26.93 21.38 25.99 21.82 24.98L16.85 22.75C13.68 29.52 8.06 35.93 2.66 39.96C3.46 41.62 4.90 45.29 5.26 46.73C6.34 45.79 7.49 44.78 8.64 43.63L8.64 46.80L14.83 46.80L14.83 53.64L4.75 53.64L4.75 59.33L14.83 59.33L14.83 78.84C10.66 79.63 6.84 80.35 3.82 80.93L5.18 86.90C11.95 85.39 21.10 83.30 29.74 81.29L29.38 75.89C26.35 76.54 23.18 77.18 20.16 77.83L20.16 59.33L29.38 59.33L29.38 53.64L20.16 53.64L20.16 46.80L27.07 46.80L27.07 41.18L10.94 41.18C13.25 38.59 15.48 35.71 17.50 32.69C21.74 35.57 26.14 39.24 28.87 42.05L30.89 38.16L46.22 38.16L46.22 43.63L32.69 43.63L32.69 89.06L38.88 89.06L38.88 73.58L46.58 73.58L46.58 88.70L52.56 88.70L52.56 73.58L60.55 73.58L60.55 82.30C60.55 83.02 60.34 83.23 59.62 83.30C58.97 83.30 57.10 83.30 54.94 83.23C55.73 84.74 56.59 87.34 56.81 88.99C60.34 88.99 62.86 88.85 64.73 87.84C66.46 86.90 66.96 85.10 66.96 82.37L66.96 43.63L52.85 43.63L52.85 38.16ZM25.34 75.74C26.57 72.58 27.86 67.61 29.16 63.22L24.41 61.85C23.83 65.59 22.61 71.06 21.53 74.52ZM5.76 63.72C6.84 67.90 7.92 73.15 8.21 76.68L12.60 75.38C12.24 72.00 11.02 66.67 9.86 62.57Z"/></svg>
