<svg xmlns="http://www.w3.org/2000/svg" xmlns:xlink="http://www.w3.org/1999/xlink" width="72.00000000000001" height="106.56000000000002"><path fill="red" stroke="red" d="M19.87 77.83L19.87 59.33L29.38 59.33L29.38 53.64L19.87 53.64L19.87 46.80L26.78 46.80L26.78 41.18L10.66 41.18C13.03 38.59 15.19 35.71 17.14 32.69C21.46 35.57 25.78 39.24 28.51 42.05L30.38 38.52L37.08 38.52L37.08 47.45L43.49 47.45L43.49 38.52L48.46 38.52L48.46 32.40L43.49 32.40L43.49 23.98L37.08 23.98L37.08 32.40L30.24 32.40L30.24 35.50C27.58 33.12 23.76 30.31 20.02 27.86C20.52 26.93 21.02 25.99 21.53 24.98L16.56 22.75C13.32 29.52 7.70 35.93 2.38 39.96C3.17 41.62 4.54 45.29 4.90 46.73C6.05 45.79 7.13 44.78 8.28 43.70L8.28 46.80L14.47 46.80L14.47 53.64L4.39 53.64L4.39 59.33L14.47 59.33L14.47 78.84C10.30 79.63 6.48 80.35 3.53 80.93L4.90 86.90C11.66 85.39 20.95 83.30 29.66 81.29L29.30 75.89ZM5.40 63.72C6.48 67.90 7.56 73.15 7.85 76.68L12.24 75.31C11.88 71.93 10.73 66.67 9.58 62.57ZM25.06 75.74C26.21 72.58 27.50 67.61 28.87 63.22L24.12 61.85C23.54 65.59 22.25 71.06 21.24 74.52ZM45.94 56.02L45.94 64.87L38.30 64.87L38.30 56.02ZM59.69 64.87L52.06 64.87L52.06 56.02L59.69 56.02ZM52.06 79.78L52.06 70.63L59.69 70.63L59.69 79.78ZM38.30 79.78L38.30 70.63L45.94 70.63L45.94 79.78ZM32.04 89.21L38.30 89.21L38.30 85.75L59.69 85.75L59.69 88.78L66.17 88.78L66.17 50.11L32.04 50.11ZM61.78 32.40L61.78 23.98L55.37 23.98L55.37 32.40L50.83 32.40L50.83 38.52L55.37 38.52L55.37 47.45L61.78 47.45L61.78 38.52L68.90 38.52L68.90 32.40Z"/></svg>
