<svg xmlns="http://www.w3.org/2000/svg" xmlns:xlink="http://www.w3.org/1999/xlink" width="72.00000000000001" height="106.56000000000002"><path fill="red" stroke="red" d="M24.34 25.78L23.33 26.06L5.62 26.06L5.62 89.21L11.81 89.21L11.81 32.47L20.59 32.47C19.01 37.30 16.78 43.42 14.76 48.17C20.23 53.86 21.74 58.68 21.74 62.50C21.74 64.73 21.31 66.46 20.09 67.25C19.44 67.61 18.43 67.82 17.42 67.90C16.13 67.97 14.33 67.90 12.46 67.75C13.46 69.48 14.04 72.22 14.11 73.87C16.20 74.02 18.43 73.94 20.16 73.80C21.89 73.58 23.40 73.08 24.62 72.29C26.93 70.63 28.01 67.46 28.01 63.14C28.01 58.68 26.78 53.57 21.17 47.38C23.76 41.69 26.71 34.56 29.02 28.58ZM58.90 60.26L38.30 60.26L38.30 48.53L58.90 48.53ZM38.30 78.05L38.30 66.24L58.90 66.24L58.90 78.05ZM68.04 32.47L68.04 26.21L29.95 26.21L29.95 32.47L44.42 32.47C44.06 35.86 43.49 39.53 42.91 42.62L32.04 42.62L32.04 89.21L38.30 89.21L38.30 84.17L58.90 84.17L58.90 88.92L65.45 88.92L65.45 42.62L49.10 42.62C49.90 39.60 50.76 36.00 51.55 32.47Z"/></svg>
