<svg xmlns="http://www.w3.org/2000/svg" xmlns:xlink="http://www.w3.org/1999/xlink" width="72.00000000000001" height="106.56000000000002"><path fill="red" stroke="red" d="M23.54 25.78L22.68 26.06L5.62 26.06L5.62 88.99L11.45 88.99L11.45 32.04L20.16 32.04C18.58 36.79 16.49 42.84 14.54 47.59C19.80 52.99 21.17 57.74 21.24 61.49C21.24 63.65 20.81 65.45 19.66 66.10C19.08 66.60 18.29 66.74 17.35 66.82C16.27 66.82 14.90 66.82 13.25 66.67C14.18 68.33 14.83 70.85 14.90 72.50C16.56 72.50 18.50 72.50 19.94 72.36C21.53 72.14 22.82 71.71 23.98 70.92C26.21 69.34 27.14 66.24 27.14 62.14C27.14 57.74 25.92 52.70 20.52 46.87C23.04 41.33 25.78 34.27 28.01 28.30ZM36.07 72.86C36.86 70.13 37.66 67.10 38.23 64.37L46.58 64.37L46.58 72.86ZM52.99 64.37L66.74 64.37L66.74 58.54L52.99 58.54L52.99 53.71L46.58 53.71L46.58 58.54L29.74 58.54L29.74 64.37L32.11 64.37C30.96 69.19 29.52 74.88 28.15 78.70L46.58 78.70L46.58 89.14L52.99 89.14L52.99 78.70L68.69 78.70L68.69 72.86L52.99 72.86ZM41.90 34.34L56.66 34.34C54.50 37.15 51.62 39.74 48.38 41.90C45.58 39.89 43.20 37.51 41.33 34.99ZM61.56 28.94L60.41 29.23L45.86 29.23C47.02 27.58 48.02 26.06 48.89 24.41L42.26 23.18C39.38 28.44 34.13 34.85 26.71 39.60C28.08 40.46 30.17 42.70 31.03 44.21C33.41 42.55 35.50 40.75 37.51 38.95C39.10 41.11 41.04 43.13 43.20 44.93C38.02 47.59 32.26 49.39 26.42 50.62C27.58 51.98 29.02 54.43 29.74 56.02C36.36 54.36 42.77 52.06 48.38 48.82C53.50 51.98 59.40 54.29 65.88 55.73C66.74 54.07 68.47 51.55 69.77 50.26C64.01 49.25 58.61 47.52 54.00 45.14C58.90 41.40 63.00 36.72 65.66 31.03Z"/></svg>
