<svg xmlns="http://www.w3.org/2000/svg" xmlns:xlink="http://www.w3.org/1999/xlink" width="72.00000000000001" height="106.56000000000002"><path fill="red" stroke="red" d="M23.11 25.99L22.18 26.21L5.47 26.21L5.47 89.28L11.59 89.28L11.59 32.26L19.87 32.26C18.50 37.22 16.63 43.78 14.90 48.74C19.51 54.00 20.66 58.68 20.66 62.35C20.66 64.51 20.30 66.31 19.30 66.96C18.79 67.39 18.00 67.61 17.14 67.68C16.13 67.68 14.98 67.68 13.46 67.54C14.40 69.19 14.98 71.86 15.05 73.51C16.70 73.58 18.50 73.58 19.87 73.37C21.38 73.22 22.68 72.72 23.76 72.00C25.92 70.42 26.78 67.46 26.78 63.22C26.78 58.82 25.78 53.78 20.81 47.95C23.11 42.26 25.70 34.63 27.72 28.58ZM51.34 68.26L66.67 68.26L66.67 62.50L51.34 62.50L51.34 52.06L68.83 52.06L68.83 46.15L50.62 46.15L50.62 37.80L65.95 37.80L65.95 32.11L50.62 32.11L50.62 23.11L44.28 23.11L44.28 32.11L29.88 32.11L29.88 37.80L44.28 37.80L44.28 46.15L25.99 46.15L25.99 52.06L44.93 52.06L44.93 79.06C41.76 76.97 39.10 73.58 37.44 68.18C38.16 64.66 38.66 60.91 39.02 56.95L32.69 56.38C31.75 68.98 29.02 79.20 22.10 85.32C23.62 86.26 26.35 88.27 27.36 89.35C30.74 85.97 33.19 81.72 34.99 76.68C39.89 85.82 47.23 87.98 57.10 87.98L68.18 87.98C68.40 86.26 69.34 83.30 70.20 81.72C67.54 81.86 59.62 81.86 57.67 81.86C55.44 81.86 53.28 81.72 51.34 81.36Z"/></svg>
