<svg xmlns="http://www.w3.org/2000/svg" xmlns:xlink="http://www.w3.org/1999/xlink" width="72.00000000000001" height="106.56000000000002"><path fill="red" stroke="red" d="M22.82 25.92L21.74 26.14L5.90 26.14L5.90 89.21L11.81 89.21L11.81 32.18L19.51 32.18C18.14 37.08 16.27 43.63 14.47 48.60C19.15 53.78 20.30 58.46 20.30 62.06C20.30 64.15 19.94 65.88 18.94 66.60C18.36 67.03 17.57 67.10 16.78 67.18C15.77 67.25 14.54 67.25 13.03 67.10C14.04 68.83 14.62 71.35 14.62 73.08C16.34 73.15 18.07 73.15 19.51 73.01C20.95 72.79 22.32 72.36 23.40 71.50C25.49 70.06 26.42 67.03 26.42 62.86C26.42 58.54 25.34 53.50 20.45 47.81C22.68 42.12 25.27 34.63 27.22 28.51ZM34.92 56.59L44.42 56.59L44.42 62.21L34.92 62.21ZM34.92 46.30L44.42 46.30L44.42 51.84L34.92 51.84ZM59.83 51.84L50.11 51.84L50.11 46.30L59.83 46.30ZM59.83 62.21L50.11 62.21L50.11 56.59L59.83 56.59ZM69.05 73.22L50.47 73.22L50.47 67.25L66.24 67.25L66.24 41.26L50.47 41.26L50.47 35.50L67.97 35.50L67.97 29.66L50.47 29.66L50.47 23.11L43.99 23.11L43.99 29.66L27.22 29.66L27.22 35.50L43.99 35.50L43.99 41.26L28.80 41.26L28.80 67.25L43.99 67.25L43.99 73.22L25.06 73.22L25.06 79.20L43.99 79.20L43.99 89.21L50.47 89.21L50.47 79.20L69.05 79.20Z"/></svg>
