<svg xmlns="http://www.w3.org/2000/svg" xmlns:xlink="http://www.w3.org/1999/xlink" width="72.00000000000001" height="106.56000000000002"><path fill="red" stroke="red" d="M33.70 35.06C32.83 31.97 31.39 27.36 30.17 23.76L25.34 25.06C26.35 28.73 27.94 33.70 28.66 36.72ZM20.74 25.99L19.87 26.21L5.83 26.21L5.83 89.28L11.02 89.28L11.02 32.26L17.86 32.26C16.70 37.08 15.12 43.49 13.54 48.31C17.64 53.57 18.58 58.25 18.58 61.85C18.65 63.94 18.29 65.66 17.42 66.38C16.92 66.82 16.34 66.96 15.55 66.96C14.69 67.03 13.61 67.03 12.38 66.89C13.18 68.47 13.61 71.06 13.68 72.72C15.12 72.72 16.70 72.72 17.78 72.58C19.08 72.36 20.23 71.93 21.17 71.21C22.97 69.70 23.83 66.67 23.76 62.64C23.76 58.32 22.82 53.35 18.58 47.59C20.59 41.98 22.75 34.42 24.48 28.51ZM40.61 24.70C42.34 27.58 44.28 31.32 45.22 33.77L50.33 31.68C49.32 29.38 47.23 25.70 45.43 22.97ZM69.26 72.29C67.90 67.61 64.94 59.40 62.28 52.92C64.66 51.19 66.96 49.46 69.12 47.74L64.94 44.14C62.42 46.66 58.39 49.82 54.79 52.27C53.71 49.68 52.20 47.38 50.33 45.36C52.63 43.27 54.72 41.04 56.45 38.74L67.39 38.74L67.39 33.77L60.12 33.77C61.85 30.89 63.65 27.50 65.30 24.41L59.83 22.97C58.68 26.06 56.66 30.46 54.72 33.77L38.59 33.77L38.59 38.74L50.18 38.74C46.37 42.91 40.82 46.58 35.57 49.03C36.50 50.04 38.30 52.34 38.95 53.35C41.47 51.91 44.14 50.26 46.73 48.24C47.45 49.25 48.17 50.26 48.74 51.26C45.94 54.29 40.90 57.38 36.79 59.04L37.15 57.24L34.56 56.23L33.62 56.45L31.39 56.45C32.98 51.41 34.85 45.36 36.29 40.18L22.97 40.18L22.97 45.58L29.30 45.58C27.79 51.19 25.92 57.31 24.34 61.70L30.89 61.70C29.74 66.89 28.15 72.50 26.14 76.54C23.90 77.98 21.38 80.64 18.94 83.88L23.11 89.57C25.34 85.25 27.86 80.86 29.52 80.86C31.03 80.86 33.19 83.02 35.86 84.74C39.96 87.48 44.64 88.63 51.26 88.63C56.30 88.63 64.08 88.34 67.75 88.06C67.90 86.47 68.76 83.38 69.41 81.72C64.22 82.44 56.52 82.80 51.48 82.80C45.29 82.80 40.68 82.01 36.86 79.42C34.63 77.98 33.19 76.68 31.82 75.89C33.84 71.21 35.57 65.16 36.72 59.40C37.66 60.48 38.81 62.42 39.24 63.58C43.06 61.63 47.38 58.54 50.69 55.30C51.05 56.66 51.48 58.03 51.77 59.26C48.24 63.36 41.90 67.68 36.72 69.70C37.66 70.92 38.81 73.37 39.31 74.66C43.63 72.43 48.60 68.76 52.49 65.09C52.70 69.26 51.98 72.72 50.90 74.02C50.11 75.24 49.18 75.31 47.81 75.31C46.80 75.31 45.07 75.24 43.27 75.10C44.06 76.61 44.50 78.84 44.57 80.28C46.22 80.35 47.81 80.42 49.03 80.35C51.62 80.35 53.57 79.70 55.15 77.69C57.96 74.59 58.90 65.38 56.45 56.66C57.10 56.30 57.74 55.87 58.46 55.37C60.91 61.78 63.58 69.62 64.80 74.30Z"/></svg>
