<svg xmlns="http://www.w3.org/2000/svg" xmlns:xlink="http://www.w3.org/1999/xlink" width="72.00000000000001" height="106.56000000000002"><path fill="red" stroke="red" d="M52.49 68.11L11.88 68.11L11.88 73.15L47.38 73.15C44.42 75.53 40.61 77.98 37.22 79.63C32.90 77.98 28.44 76.32 24.77 74.95L21.96 79.06C30.10 82.08 41.11 86.83 46.73 89.64L49.68 84.96C48.10 84.17 46.08 83.30 43.85 82.30C48.89 79.13 54.50 74.95 57.82 70.49L53.50 67.75ZM24.70 61.13C28.58 59.54 32.33 57.74 35.71 55.87C38.59 57.60 42.41 59.47 46.73 61.13ZM37.15 49.68L39.17 49.68L39.17 38.45L60.55 38.45L60.55 46.87L66.74 46.87L66.74 33.98L39.17 33.98L39.17 30.67L62.14 30.67L62.14 25.70L9.79 25.70L9.79 30.67L32.62 30.67L32.62 33.98L5.33 33.98L5.33 46.87L11.30 46.87L11.30 38.45L32.62 38.45L32.62 49.68L34.99 49.68C27.29 55.15 14.62 59.62 2.95 62.28C4.46 63.22 6.84 65.52 8.14 66.82C12.31 65.66 16.70 64.22 21.17 62.57L21.17 65.30L50.83 65.30L50.83 62.71C55.51 64.30 60.62 65.74 65.45 66.60C66.38 64.94 68.18 62.50 69.48 61.13C58.75 59.69 46.94 56.38 40.25 53.06C40.75 52.63 41.18 52.27 41.69 51.91ZM13.03 54.22C18.07 52.85 24.05 51.12 30.10 49.46L29.66 45.50L27.79 45.94L29.45 42.41C26.21 41.26 20.09 39.74 15.62 39.02L13.75 42.48C18.07 43.42 23.76 44.86 27.07 46.08C20.95 47.38 15.26 48.67 11.09 49.39ZM41.54 48.67C47.38 50.11 55.15 52.42 59.11 54.00L60.77 49.90C57.24 48.53 51.05 46.80 45.72 45.58C49.68 44.86 54.79 43.85 58.54 42.41L55.80 38.81C52.27 39.96 46.22 41.83 42.19 42.55L43.99 45.14L43.27 45.00Z"/></svg>
