<svg xmlns="http://www.w3.org/2000/svg" xmlns:xlink="http://www.w3.org/1999/xlink" width="72.00000000000001" height="106.56000000000002"><path fill="red" stroke="red" d="M39.60 37.58L61.63 37.58L61.63 44.93L67.68 44.93L67.68 32.18L54.86 32.18C53.78 29.30 51.98 25.63 50.33 22.68L44.21 24.19C45.29 26.64 46.73 29.59 47.74 32.18L33.84 32.18L33.84 45.58L39.60 45.58ZM10.30 53.86L15.41 53.86L15.41 61.78L10.30 61.78ZM25.34 61.78L20.59 61.78L20.59 53.86L25.34 53.86ZM13.82 35.06L22.25 35.06L22.25 39.53L13.82 39.53ZM32.76 76.90L32.76 71.28L21.02 71.28L21.02 66.82L30.67 66.82L30.67 48.82L21.17 48.82L21.17 44.64L28.01 44.64L28.01 35.06L32.54 35.06L32.54 29.52L28.01 29.52L28.01 23.26L22.25 23.26L22.25 29.52L13.82 29.52L13.82 23.26L8.35 23.26L8.35 29.52L3.24 29.52L3.24 35.06L8.35 35.06L8.35 44.64L14.98 44.64L14.98 48.82L5.04 48.82L5.04 66.82L14.90 66.82L14.90 71.28L3.02 71.28L3.02 76.90L14.90 76.90L14.90 89.28L21.02 89.28L21.02 76.90ZM56.09 57.82C55.15 63.07 53.57 67.39 51.19 70.92C48.60 69.41 45.94 67.90 43.42 66.53C44.64 63.79 45.79 60.84 46.94 57.82ZM69.41 83.74C66.31 80.93 61.78 77.69 56.74 74.45C59.69 69.98 61.70 64.51 62.93 57.82L69.05 57.82L69.05 51.84L63.86 51.84C64.08 50.26 64.22 48.60 64.37 46.87L57.38 46.73C57.31 48.53 57.17 50.18 57.02 51.84L49.03 51.84C50.26 48.24 51.41 44.71 52.20 41.33L45.58 40.46C44.78 43.99 43.56 47.95 42.19 51.84L32.76 51.84L32.76 57.82L40.03 57.82C38.38 61.92 36.72 65.74 35.14 68.69C38.81 70.70 42.91 73.15 46.94 75.74C42.98 79.27 37.66 81.72 30.53 83.45C31.68 84.82 33.48 87.77 33.98 89.28C41.98 86.98 48.10 83.81 52.56 79.49C57.60 82.94 62.14 86.33 65.09 89.14Z"/></svg>
