<svg xmlns="http://www.w3.org/2000/svg" xmlns:xlink="http://www.w3.org/1999/xlink" width="72.00000000000001" height="106.56000000000002"><path fill="red" stroke="red" d="M13.90 41.18L26.21 41.18L26.21 36.72L13.97 36.72C15.84 35.06 17.71 33.12 19.30 31.25C23.90 33.55 29.23 36.79 32.04 38.88L35.06 33.41C32.18 31.54 27.14 28.80 22.82 26.64C23.26 25.99 23.69 25.34 24.12 24.70L18.50 22.54C14.90 28.51 8.28 33.91 2.02 37.30C2.95 38.81 4.46 42.19 4.90 43.56C7.92 41.76 11.02 39.38 13.90 36.79ZM26.21 49.68L26.21 54.22L13.90 54.22L13.90 49.68ZM13.90 64.44L13.90 59.04L26.21 59.04L26.21 64.44ZM61.06 81.86C60.62 81.86 60.34 81.72 60.05 81.43C59.76 81.07 59.69 79.85 59.69 77.76L59.69 27.22L37.73 27.22L37.73 56.81C37.73 65.59 37.15 75.67 31.32 83.30C30.46 79.92 28.37 74.52 26.64 70.34L21.24 72.00C21.82 73.51 22.39 75.17 23.04 76.82L13.90 80.06L13.90 69.41L32.26 69.41L32.26 44.71L7.70 44.71L7.70 78.91C7.70 81.58 6.12 82.73 4.90 83.23C5.90 84.67 6.91 87.48 7.27 89.14L7.27 89.28C8.71 88.06 10.94 87.05 24.62 81.79C25.06 83.23 25.42 84.38 25.70 85.46L31.18 83.38C30.67 84.10 30.10 84.74 29.45 85.39C30.74 86.26 33.48 88.56 34.49 89.78C42.91 81.43 44.21 67.46 44.21 56.88L44.21 33.55L53.06 33.55L53.06 77.54C53.06 83.66 53.57 85.25 54.72 86.40C55.87 87.48 57.67 87.98 59.11 87.98L62.78 87.98C64.37 87.98 65.81 87.62 66.89 86.83C67.90 86.04 68.54 84.82 68.90 82.80C69.34 80.86 69.55 75.67 69.62 71.57C67.90 71.06 65.95 70.06 64.58 68.83C64.58 73.44 64.44 77.11 64.37 78.70C64.22 80.28 64.08 81.00 63.79 81.36C63.50 81.72 63.00 81.86 62.57 81.86Z"/></svg>
