<svg xmlns="http://www.w3.org/2000/svg" xmlns:xlink="http://www.w3.org/1999/xlink" width="72.00000000000001" height="106.56000000000002"><path fill="red" stroke="red" d="M12.82 41.11L26.50 41.11L26.50 36.50L13.82 36.50C15.77 34.70 17.50 32.90 19.15 31.03C22.90 33.41 27.43 36.50 29.81 38.45L32.90 33.48C30.53 31.68 25.99 28.87 22.39 26.64C22.90 25.85 23.40 25.06 23.90 24.26L18.58 22.39C15.05 28.30 8.57 33.70 2.52 37.08C3.53 38.52 4.90 41.83 5.33 43.06C7.85 41.54 10.44 39.53 12.82 37.44ZM23.83 49.68L23.83 54.50L12.74 54.50L12.74 49.68ZM12.74 64.44L12.74 59.33L23.83 59.33L23.83 64.44ZM19.94 72.22C20.66 73.66 21.46 75.17 22.25 76.75L12.74 80.21L12.74 69.41L29.74 69.41L29.74 44.71L6.98 44.71L6.98 79.34C6.98 82.01 5.47 83.02 4.32 83.52C5.18 84.89 6.19 87.55 6.48 89.14C7.92 87.98 10.08 86.98 24.48 81.29C25.42 83.45 26.21 85.32 26.78 86.83L31.68 84.38C30.24 80.86 27.07 74.74 24.55 70.20ZM43.13 72.43L43.13 62.50L57.74 62.50L57.74 72.43ZM57.74 33.19L57.74 41.83L43.13 41.83L43.13 33.19ZM43.13 47.74L57.74 47.74L57.74 56.66L43.13 56.66ZM69.05 72.43L64.08 72.43L64.08 33.19L68.26 33.19L68.26 27.14L32.76 27.14L32.76 33.19L36.94 33.19L36.94 72.43L30.53 72.43L30.53 78.70L57.74 78.70L57.74 89.21L64.08 89.21L64.08 78.70L69.05 78.70Z"/></svg>
