<svg xmlns="http://www.w3.org/2000/svg" xmlns:xlink="http://www.w3.org/1999/xlink" width="72.00000000000001" height="106.56000000000002"><path fill="red" stroke="red" d="M6.70 84.96C7.99 80.64 9.00 73.58 9.65 68.76L5.83 67.54C5.26 72.29 4.10 79.20 2.74 83.38ZM11.16 68.76C11.81 72.94 12.17 78.34 12.02 81.94L15.34 81.50C15.48 77.98 15.12 72.58 14.33 68.40ZM11.81 53.06L18.14 53.06L18.14 58.75L11.81 58.75ZM18.14 31.32L18.14 36.86L11.81 36.86L11.81 31.32ZM18.14 47.81L11.81 47.81L11.81 42.12L18.14 42.12ZM23.54 58.75L23.54 53.06L31.03 53.06L31.03 47.81L23.54 47.81L23.54 42.12L31.03 42.12L31.03 36.86L23.54 36.86L23.54 31.32L32.47 31.32L32.47 25.99L6.41 25.99L6.41 64.08L27.65 64.08C27.43 67.82 27.22 70.85 27.00 73.37C26.21 71.06 24.98 68.26 23.69 66.02L20.81 67.03C22.32 69.98 23.90 73.87 24.48 76.39L26.78 75.53C26.28 80.06 25.70 82.15 25.06 82.94C24.48 83.66 23.90 83.81 22.90 83.81C21.96 83.81 19.73 83.81 17.28 83.52C18.07 84.96 18.65 87.26 18.79 88.85C21.46 88.99 24.05 88.99 25.56 88.78C27.43 88.63 28.73 88.06 29.81 86.62C31.68 84.46 32.47 78.12 33.34 61.20C33.41 60.41 33.48 58.75 33.48 58.75ZM21.82 78.98C21.53 75.96 20.45 71.21 19.15 67.54L16.13 68.11C17.28 71.78 18.36 76.61 18.50 79.70ZM59.76 33.77C58.32 44.14 55.58 53.28 51.98 61.06C48.53 52.99 46.15 43.63 44.57 33.77ZM62.64 27.22L61.49 27.43L35.42 27.43L35.42 33.77L38.16 33.77C40.39 46.80 43.34 58.68 48.02 68.47C43.78 75.10 38.52 80.35 32.69 83.74C34.20 84.89 36.36 87.62 37.44 89.35C42.84 85.82 47.66 81.22 51.77 75.46C55.22 81.07 59.33 85.68 64.44 89.28C65.66 87.48 67.90 84.96 69.48 83.74C64.01 80.21 59.47 75.10 55.87 68.83C61.56 58.39 65.38 45.00 67.03 28.37Z"/></svg>
