<svg xmlns="http://www.w3.org/2000/svg" xmlns:xlink="http://www.w3.org/1999/xlink" width="72.00000000000001" height="106.56000000000002"><path fill="red" stroke="red" d="M6.34 84.38C7.49 80.21 8.57 73.30 9.07 68.62L5.54 67.39C5.04 72.14 3.82 78.91 2.45 83.02ZM10.22 68.83C10.66 72.94 10.87 78.26 10.87 81.79L14.11 81.43C14.11 77.90 13.75 72.65 13.25 68.47ZM14.54 68.11C15.48 71.86 16.49 76.68 16.85 79.85L19.94 79.20C19.51 76.10 18.43 71.28 17.42 67.61ZM11.45 53.14L16.99 53.14L16.99 58.82L11.45 58.82ZM16.99 31.68L16.99 37.44L11.45 37.44L11.45 31.68ZM16.99 47.95L11.45 47.95L11.45 42.55L16.99 42.55ZM22.18 58.82L22.18 53.14L29.52 53.14L29.52 47.95L22.18 47.95L22.18 42.55L29.30 42.55L29.30 37.44L22.18 37.44L22.18 31.68L30.31 31.68L30.31 26.21L6.19 26.21L6.19 64.37L25.42 64.37C25.34 68.90 25.20 72.43 25.06 75.10C24.26 72.72 22.82 69.12 21.46 66.31L18.79 67.18C20.09 70.13 21.67 74.09 22.32 76.61L24.98 75.53C24.70 80.35 24.26 82.51 23.76 83.30C23.40 83.95 22.90 84.10 22.03 84.10C21.17 84.10 19.51 84.10 17.50 83.81C18.29 85.25 18.86 87.41 18.94 88.99C21.10 89.06 23.33 89.06 24.62 88.85C26.28 88.63 27.36 88.13 28.37 86.76C29.81 84.74 30.31 78.48 30.82 61.13C30.89 60.41 30.89 58.82 30.89 58.82ZM50.40 54.36L50.40 66.24L42.19 66.24L42.19 54.36ZM67.32 34.49L44.50 34.49C45.72 31.32 46.80 28.01 47.66 24.62L41.40 23.11C39.24 32.47 35.28 41.62 30.31 47.38C31.75 48.31 34.34 50.47 35.35 51.62C35.86 50.98 36.43 50.26 36.94 49.54L36.94 75.89L42.19 75.89L42.19 71.78L55.66 71.78L55.66 48.82L37.44 48.82C39.02 46.37 40.61 43.56 41.98 40.54L61.34 40.54C60.62 68.76 59.90 79.56 58.18 81.72C57.53 82.73 56.81 82.94 55.73 82.94C54.36 82.94 51.34 82.94 48.10 82.66C49.18 84.53 49.90 87.41 49.97 89.21C53.21 89.35 56.38 89.42 58.46 89.06C60.62 88.70 62.14 88.06 63.58 85.75C65.95 82.37 66.53 71.06 67.32 37.73Z"/></svg>
