<svg xmlns="http://www.w3.org/2000/svg" xmlns:xlink="http://www.w3.org/1999/xlink" width="72.00000000000001" height="106.56000000000002"><path fill="red" stroke="red" d="M50.83 41.69L50.83 48.10C50.83 53.35 52.06 55.37 57.53 55.37L63.86 55.37C65.45 55.37 67.18 55.37 68.18 55.01C68.04 53.64 67.82 51.41 67.68 49.90C66.67 50.18 64.87 50.33 63.72 50.33L57.96 50.33C56.81 50.33 56.66 49.75 56.66 48.17L56.66 41.26L61.27 40.90C62.21 42.34 63.07 43.56 63.79 44.64L68.98 41.62C66.31 37.87 60.98 31.46 57.02 26.93L52.27 29.38C53.86 31.39 55.73 33.70 57.53 36.00L42.34 37.01C46.08 33.48 49.90 29.09 53.21 24.62L46.80 22.54C43.49 28.15 38.30 33.70 36.65 35.06C35.06 36.58 33.77 37.58 32.47 37.80C33.19 39.38 34.13 42.34 34.49 43.56C35.50 43.20 36.86 42.91 41.40 42.48C40.39 47.66 37.94 51.12 30.67 53.35C31.82 54.36 33.48 56.59 34.13 57.89C43.06 54.72 46.08 49.54 47.23 41.98ZM6.48 84.46C7.78 80.35 8.78 73.51 9.36 68.83L5.54 67.54C5.04 72.22 3.82 78.91 2.45 83.02ZM10.08 68.98C10.58 73.08 10.94 78.41 10.94 82.01L14.40 81.43C14.33 77.98 13.90 72.72 13.32 68.62ZM14.62 68.26C15.55 71.93 16.63 76.68 16.99 79.78L20.23 79.13C19.80 75.96 18.72 71.35 17.71 67.68ZM25.49 75.46C24.77 73.01 23.11 69.19 21.74 66.31L18.79 67.25C20.23 70.20 21.82 74.09 22.39 76.54ZM11.45 53.06L17.42 53.06L17.42 58.82L11.45 58.82ZM17.42 31.68L17.42 37.44L11.45 37.44L11.45 31.68ZM17.42 47.95L11.45 47.95L11.45 42.55L17.42 42.55ZM31.25 58.82L22.68 58.82L22.68 53.06L29.88 53.06L29.88 47.95L22.68 47.95L22.68 42.55L29.88 42.55L29.88 37.44L22.68 37.44L22.68 31.68L30.89 31.68L30.89 26.21L6.19 26.21L6.19 64.37L25.92 64.37C25.63 77.33 25.27 82.15 24.41 83.30C24.05 84.02 23.47 84.10 22.61 84.10C21.67 84.10 19.58 84.10 17.21 83.88C18.00 85.25 18.58 87.41 18.65 88.99C21.17 89.06 23.69 89.06 25.06 88.85C26.86 88.63 28.01 88.13 29.09 86.69C30.53 84.67 30.89 78.62 31.25 61.20ZM56.16 64.87C54.50 68.33 52.27 71.35 49.46 73.94C47.38 72.14 45.58 70.06 43.99 67.90C44.78 66.89 45.50 65.95 46.15 64.87ZM60.19 59.33L59.11 59.62L49.10 59.62C49.82 58.03 50.47 56.52 51.05 54.86L45.29 53.71C44.21 56.95 42.70 59.90 40.82 62.57C40.18 61.34 39.67 60.12 39.24 58.90L34.70 61.34C35.35 63.22 36.14 65.09 37.15 66.89C35.42 68.54 33.70 70.06 31.68 71.21C32.98 72.22 35.14 74.38 36.07 75.53C37.58 74.45 38.88 73.37 40.25 72.00C41.69 73.94 43.20 75.82 45.07 77.62C40.68 80.64 35.64 82.80 30.31 84.17C31.46 85.39 32.98 87.77 33.62 89.28C39.46 87.55 44.93 84.96 49.61 81.50C53.93 84.67 59.18 87.34 65.52 88.99C66.31 87.41 67.97 84.74 69.12 83.59C63.29 82.30 58.39 80.21 54.29 77.54C58.61 73.30 62.06 67.82 64.22 60.98Z"/></svg>
