<svg xmlns="http://www.w3.org/2000/svg" xmlns:xlink="http://www.w3.org/1999/xlink" width="72.00000000000001" height="106.56000000000002"><path fill="red" stroke="red" d="M67.54 46.37C64.01 43.85 57.46 39.96 52.49 37.22C52.63 36.65 52.85 36.00 52.99 35.42L67.61 35.42L67.61 29.88L54.00 29.88C54.22 27.86 54.36 25.63 54.50 23.33L48.38 23.33C48.31 25.70 48.10 27.94 47.88 29.88L34.06 29.88L34.06 35.42L46.66 35.42C44.86 40.75 40.97 44.21 32.62 46.37C33.84 47.52 35.35 49.68 35.93 51.19C43.13 49.10 47.52 46.22 50.18 42.05C55.01 44.93 60.41 48.53 63.36 50.83ZM6.41 84.96C7.63 80.64 8.57 73.58 9.07 68.83L5.62 67.61C5.11 72.29 3.96 79.20 2.74 83.38ZM10.58 68.76C11.23 73.01 11.59 78.34 11.38 81.94L14.54 81.50C14.62 77.98 14.26 72.65 13.54 68.40ZM11.16 53.06L17.14 53.06L17.14 58.75L11.16 58.75ZM17.14 31.32L17.14 36.86L11.16 36.86L11.16 31.32ZM17.14 47.81L11.16 47.81L11.16 42.12L17.14 42.12ZM22.18 58.75L22.18 53.06L29.16 53.06L29.16 47.81L22.18 47.81L22.18 42.12L29.16 42.12L29.16 36.86L22.18 36.86L22.18 31.32L30.53 31.32L30.53 25.99L6.05 25.99L6.05 64.08L26.06 64.08C25.92 67.97 25.70 71.06 25.49 73.66C24.70 71.28 23.62 68.40 22.32 66.02L19.66 67.03C21.02 69.98 22.54 73.87 23.04 76.39L25.27 75.46C24.84 79.99 24.26 82.15 23.69 82.94C23.18 83.66 22.61 83.81 21.74 83.81C20.81 83.81 18.72 83.81 16.34 83.52C17.14 84.96 17.71 87.26 17.78 88.85C20.30 88.99 22.75 88.99 24.12 88.78C25.85 88.63 27.07 88.06 28.08 86.62C29.88 84.46 30.60 78.12 31.39 61.20C31.46 60.41 31.54 58.75 31.54 58.75ZM20.52 79.06C20.30 75.96 19.30 71.21 18.07 67.61L15.19 68.11C16.27 71.78 17.28 76.61 17.50 79.70ZM48.53 66.10L48.53 72.94L41.62 72.94L41.62 66.10ZM53.71 77.83L53.71 61.20L36.43 61.20L36.43 82.37L41.62 82.37L41.62 77.83ZM69.12 51.55L31.90 51.55L31.90 57.31L58.54 57.31L58.54 82.15C58.54 83.02 58.25 83.30 57.17 83.38C56.16 83.38 52.63 83.38 49.03 83.23C50.04 84.89 51.12 87.48 51.41 89.21C56.23 89.21 59.69 89.06 61.92 88.06C64.22 87.12 64.87 85.46 64.87 82.30L64.87 57.31L69.12 57.31Z"/></svg>
