<svg xmlns="http://www.w3.org/2000/svg" xmlns:xlink="http://www.w3.org/1999/xlink" width="72.00000000000001" height="106.56000000000002"><path fill="red" stroke="red" d="M6.34 84.46C7.63 80.28 8.57 73.37 9.14 68.62L5.54 67.46C5.04 72.14 3.89 78.91 2.45 83.02ZM10.30 68.83C10.66 72.94 10.94 78.34 10.94 81.86L14.11 81.50C14.11 77.98 13.82 72.65 13.32 68.54ZM14.62 68.18C15.55 71.93 16.56 76.68 16.92 79.85L20.02 79.20C19.58 76.10 18.50 71.35 17.50 67.68ZM11.74 53.14L16.99 53.14L16.99 58.82L11.74 58.82ZM16.99 31.68L16.99 37.44L11.74 37.44L11.74 31.68ZM16.99 47.95L11.74 47.95L11.74 42.55L16.99 42.55ZM22.25 58.82L22.25 53.14L28.66 53.14L28.66 47.95L22.25 47.95L22.25 42.55L28.44 42.55L28.44 37.44L22.25 37.44L22.25 31.68L29.81 31.68L29.81 26.21L6.48 26.21L6.48 64.37L25.56 64.37C25.42 68.98 25.27 72.50 25.13 75.24C24.41 72.86 22.90 69.19 21.53 66.31L18.86 67.18C20.23 70.13 21.74 74.09 22.46 76.61L25.13 75.53C24.84 80.35 24.41 82.51 23.90 83.30C23.47 83.95 22.97 84.10 22.18 84.10C21.31 84.10 19.58 84.10 17.57 83.81C18.36 85.25 18.86 87.41 19.01 88.99C21.17 89.06 23.40 89.06 24.70 88.85C26.42 88.63 27.43 88.13 28.44 86.76C29.95 84.74 30.46 78.48 30.96 61.13C31.03 60.41 31.03 58.82 31.03 58.82ZM44.78 81.72C40.61 81.72 39.24 80.14 39.24 75.60L39.24 31.82L68.11 31.82L68.11 26.50L31.25 26.50L31.25 31.82L33.70 31.82L33.70 75.31C33.70 84.02 36.86 87.05 45.00 87.05L61.27 87.05C64.73 87.05 68.04 86.90 69.41 86.40C69.12 85.25 68.83 82.66 68.69 81.14C67.03 81.58 63.86 81.72 61.49 81.72ZM58.32 48.53L50.18 48.53L50.18 39.74L58.32 39.74ZM63.50 35.57L45.14 35.57L45.14 52.70L63.50 52.70ZM45.00 61.20L49.10 61.20L49.10 72.86L45.00 72.86ZM41.40 77.04L52.85 77.04L52.85 57.02L41.40 57.02ZM63.58 72.86L59.18 72.86L59.18 61.20L63.58 61.20ZM67.46 57.02L55.51 57.02L55.51 77.04L67.46 77.04Z"/></svg>
