<svg xmlns="http://www.w3.org/2000/svg" xmlns:xlink="http://www.w3.org/1999/xlink" width="72.00000000000001" height="106.56000000000002"><path fill="red" stroke="red" d="M26.06 63.07L26.06 76.75L13.18 76.75L13.18 63.07ZM7.92 85.54L13.18 85.54L13.18 82.08L26.06 82.08L26.06 84.74L31.54 84.74L31.54 57.60L7.92 57.60ZM18.94 22.97C15.41 31.82 9.07 40.39 2.38 45.43C3.74 46.66 5.33 48.46 6.26 49.82C7.63 48.74 8.93 47.45 10.22 46.15L10.22 51.19L30.17 51.19L30.17 45.65L10.73 45.65C14.26 41.76 17.57 37.08 20.23 32.04C24.55 36.65 29.38 42.19 31.82 45.72L35.50 41.26C32.76 37.51 27.14 31.68 22.68 27.22C23.04 26.42 23.33 25.56 23.62 24.77ZM36.65 86.83C38.38 82.94 39.82 76.82 40.68 72.29L36.36 70.70C35.57 75.10 33.91 81.14 32.11 84.74ZM42.41 73.01C42.84 76.68 43.20 81.43 43.13 84.67L47.23 84.02C47.23 80.93 46.80 76.18 46.30 72.50ZM48.67 72.29C49.54 75.38 50.47 79.34 50.76 82.01L54.50 81.07C54.14 78.55 53.14 74.52 52.27 71.57ZM60.62 77.62C60.12 75.74 58.97 72.65 57.82 70.27L54.43 71.21C55.51 73.66 56.59 76.75 57.10 78.84ZM57.60 34.42L57.60 38.30L42.48 38.30L42.48 34.42ZM42.48 46.44L42.48 42.55L57.60 42.55L57.60 46.44ZM68.83 59.54L68.83 54.72L42.48 54.72L42.48 51.19L63.50 51.19L63.50 29.66L51.26 29.66C52.20 27.94 53.28 26.06 54.29 24.19L47.16 23.11C46.58 24.91 45.65 27.50 44.71 29.66L36.58 29.66L36.58 68.18L62.21 68.18C61.56 78.62 60.77 82.66 59.83 83.81C59.33 84.46 58.75 84.53 57.74 84.53C56.81 84.53 54.65 84.53 52.27 84.24C52.92 85.61 53.42 87.70 53.57 89.21C56.30 89.35 58.90 89.28 60.26 89.14C62.06 88.92 63.29 88.49 64.37 87.19C66.10 85.25 66.89 79.70 67.68 65.52C67.75 64.73 67.82 63.14 67.82 63.14L42.48 63.14L42.48 59.54Z"/></svg>
