<svg xmlns="http://www.w3.org/2000/svg" xmlns:xlink="http://www.w3.org/1999/xlink" width="72.00000000000001" height="106.56000000000002"><path fill="red" stroke="red" d="M59.04 31.03C58.46 36.72 57.89 39.17 57.17 40.03C56.66 40.61 56.02 40.68 55.08 40.68C54.07 40.68 51.77 40.61 49.18 40.32C49.97 41.69 50.40 43.63 50.54 45.00C53.50 45.22 56.23 45.14 57.67 45.00C59.47 44.93 60.77 44.50 61.92 43.27C63.50 41.76 64.30 37.80 65.02 28.37C65.16 27.58 65.23 26.06 65.23 26.06L36.43 26.06L36.43 31.03L44.64 31.03C43.63 36.22 41.40 39.96 35.14 42.34C36.29 43.20 37.80 45.14 38.38 46.44C46.01 43.27 48.96 38.09 50.04 31.03ZM5.40 45.07L16.70 44.42L16.70 46.94L22.68 46.94L22.68 44.14C26.35 43.92 30.10 43.70 33.84 43.49L33.91 39.38L22.68 39.82L22.68 37.01L32.11 37.01L32.11 33.05L22.68 33.05L22.68 30.17L33.55 30.17L33.55 26.21L22.68 26.21L22.68 23.11L16.70 23.11L16.70 26.21L5.47 26.21L5.47 30.17L16.70 30.17L16.70 33.05L6.91 33.05L6.91 37.01L16.70 37.01L16.70 39.96C12.24 40.18 8.21 40.32 4.97 40.39ZM22.68 68.33C24.26 67.25 25.70 65.95 27.00 64.51C29.16 65.74 31.54 67.18 32.90 68.26L35.42 65.38C34.06 64.30 31.39 62.86 29.16 61.78C29.59 61.13 29.95 60.48 30.31 59.83L26.42 59.04L43.56 59.04C41.76 62.21 38.74 65.16 35.42 67.25C35.93 67.54 36.50 67.90 37.15 68.33ZM40.82 68.33C41.98 67.25 43.27 66.10 44.35 64.80C46.51 65.81 48.96 67.18 50.62 68.33ZM56.59 83.09L40.32 83.09C41.76 81.79 43.27 80.21 44.57 78.41C47.23 79.78 50.26 81.50 51.84 82.80L54.65 79.70C52.70 78.41 49.32 76.61 46.58 75.38C46.94 74.59 47.38 73.94 47.66 73.22L44.06 72.36L56.59 72.36ZM15.77 72.36L43.34 72.36C41.83 75.60 39.24 78.62 36.22 81.00C37.15 81.43 38.52 82.37 39.46 83.09L21.46 83.09C23.47 81.79 25.42 80.21 27.14 78.34C29.30 79.63 31.75 81.29 33.12 82.37L35.57 79.49C34.20 78.26 31.68 76.75 29.38 75.53C29.88 74.81 30.31 74.16 30.67 73.37L26.50 72.36C24.77 75.67 21.53 78.55 17.71 80.64C18.79 81.29 20.45 82.37 21.24 83.09L15.77 83.09ZM68.33 54.43L36.36 54.43L36.36 51.62L60.26 51.62L60.26 47.74L36.36 47.74L36.36 45.29L30.24 45.29L30.24 54.43L19.51 54.43L19.51 47.23L13.39 47.23L13.39 54.43L3.82 54.43L3.82 59.04L26.06 59.04C24.41 62.28 21.31 64.87 17.57 66.82C18.22 67.18 19.08 67.75 19.87 68.33L15.77 68.33L15.77 61.70L9.65 61.70L9.65 87.19L56.59 87.19L56.59 89.14L62.93 89.14L62.93 61.70L56.59 61.70L56.59 68.33L51.62 68.33L53.93 65.88C52.20 64.58 49.10 63.00 46.58 61.92C47.09 61.20 47.52 60.55 47.88 59.90L44.57 59.04L68.26 59.04Z"/></svg>
