<svg xmlns="http://www.w3.org/2000/svg" xmlns:xlink="http://www.w3.org/1999/xlink" width="72.00000000000001" height="106.56000000000002"><path fill="red" stroke="red" d="M67.10 61.78L67.10 55.51L38.81 55.51L38.81 47.59L62.06 47.59L62.06 41.33L38.81 41.33L38.81 33.62L64.66 33.62L64.66 27.43L7.56 27.43L7.56 33.62L31.97 33.62L31.97 41.33L9.94 41.33L9.94 47.59L31.97 47.59L31.97 55.51L5.18 55.51L5.18 61.78L24.34 61.78C20.16 67.90 15.41 73.22 13.61 74.81C11.59 76.90 9.94 78.26 8.42 78.55C9.14 80.50 10.15 83.95 10.51 85.46C13.32 84.31 17.50 84.17 56.02 81.86C57.89 84.67 59.33 87.26 60.26 89.42L66.96 86.54C64.08 80.57 57.46 71.78 51.62 65.45L45.58 67.97C47.66 70.49 49.90 73.22 51.98 76.03L19.66 77.62C24.19 73.08 28.66 67.46 32.69 61.78Z"/></svg>
