<svg xmlns="http://www.w3.org/2000/svg" xmlns:xlink="http://www.w3.org/1999/xlink" width="72.00000000000001" height="106.56000000000002"><path fill="red" stroke="red" d="M39.67 80.28L39.67 64.37L61.27 64.37L61.27 57.89L39.67 57.89L39.67 43.56L64.44 43.56L64.44 37.01L41.54 37.01L45.07 34.49C42.12 31.10 36.22 26.28 31.61 23.18L26.14 27.00C30.10 29.81 34.78 33.84 37.73 37.01L7.49 37.01L7.49 43.56L32.33 43.56L32.33 57.89L10.94 57.89L10.94 64.37L32.33 64.37L32.33 80.28L4.25 80.28L4.25 86.83L68.04 86.83L68.04 80.28Z"/></svg>
