<svg xmlns="http://www.w3.org/2000/svg" xmlns:xlink="http://www.w3.org/1999/xlink" width="72.00000000000001" height="106.56000000000002"><path fill="red" stroke="red" d="M25.20 70.99C20.66 75.24 11.66 80.78 4.46 83.88C5.98 85.25 7.99 87.41 9.07 88.78C16.42 85.46 25.27 79.92 31.18 75.02ZM22.75 48.60L45.36 48.60L45.36 63.58L22.75 63.58ZM52.20 63.58L52.20 48.60L64.44 48.60L64.44 42.34L22.75 42.34L22.75 33.26C35.93 32.69 50.47 31.39 61.06 29.38L57.53 23.26C47.09 25.42 30.31 26.86 15.91 27.58L15.91 63.58L3.67 63.58L3.67 69.84L68.33 69.84L68.33 63.58Z"/></svg>
