<svg xmlns="http://www.w3.org/2000/svg" xmlns:xlink="http://www.w3.org/1999/xlink" width="72.00000000000001" height="106.56000000000002"><path fill="red" stroke="red" d="M55.94 57.60L11.66 57.60L11.66 64.37L50.18 64.37C45.14 70.99 38.23 79.49 32.40 86.26L39.31 89.50C46.94 80.14 56.30 68.26 62.42 59.69L57.17 57.24ZM24.19 45.36L24.19 51.70L49.03 51.70L49.03 45.36ZM35.21 22.46C28.15 33.41 15.34 43.06 2.59 48.67C4.54 50.26 6.70 52.85 7.78 54.72C18.29 49.46 28.58 41.76 36.36 32.62C44.21 41.11 55.08 49.39 64.22 54.14C65.38 52.27 67.75 49.46 69.48 48.02C59.54 43.70 47.45 35.50 40.32 27.65C40.82 26.93 41.33 26.28 41.76 25.63Z"/></svg>
