<svg xmlns="http://www.w3.org/2000/svg" xmlns:xlink="http://www.w3.org/1999/xlink" width="72.00000000000001" height="106.56000000000002"><path fill="red" stroke="red" d="M64.30 33.70C61.63 31.18 56.30 26.93 52.49 24.05L48.10 27.65C51.98 30.82 57.17 35.14 59.76 37.87ZM20.52 23.40C16.49 34.20 9.72 44.78 2.59 51.55C3.89 53.06 5.83 56.66 6.48 58.25C8.71 56.02 11.02 53.28 13.10 50.47L13.10 89.06L19.80 89.06L19.80 40.25C22.54 35.42 25.06 30.38 27.00 25.34ZM59.11 49.39C56.52 54.79 52.99 59.62 48.89 63.86C47.59 59.18 46.58 53.64 45.86 47.74L67.54 45.50L67.03 39.31L45.22 41.54C44.71 35.86 44.42 30.02 44.50 23.98L37.44 23.98C37.51 30.17 37.80 36.29 38.38 42.12L22.10 43.78L22.68 50.04L39.02 48.46C39.89 56.09 41.33 63.14 43.13 69.12C37.01 74.02 29.95 77.98 22.25 80.86C23.69 82.30 25.85 85.18 26.78 86.76C33.48 83.81 39.74 80.14 45.50 75.67C49.03 84.10 53.71 89.28 59.76 89.28C65.74 89.28 68.18 85.97 69.34 73.44C67.46 72.72 64.94 71.21 63.50 69.77C63.00 78.84 62.14 82.44 60.26 82.51C56.88 82.51 53.64 78.12 50.98 70.92C56.81 65.45 61.78 59.11 65.59 51.77Z"/></svg>
