<svg xmlns="http://www.w3.org/2000/svg" xmlns:xlink="http://www.w3.org/1999/xlink" width="72.00000000000001" height="106.56000000000002"><path fill="red" stroke="red" d="M19.80 23.47C15.91 33.98 9.50 44.50 2.74 51.19C3.82 52.70 5.76 56.30 6.41 57.96C8.50 55.73 10.58 53.28 12.53 50.54L12.53 89.06L18.86 89.06L18.86 40.61C21.60 35.71 24.12 30.53 26.06 25.34ZM49.25 63.14L49.25 53.86L59.69 53.86L59.69 63.14ZM32.26 63.14L32.26 53.86L42.41 53.86L42.41 63.14ZM42.41 38.81L42.41 47.88L32.26 47.88L32.26 38.81ZM59.69 38.81L59.69 47.88L49.25 47.88L49.25 38.81ZM49.25 32.69L49.25 23.18L42.41 23.18L42.41 32.69L26.21 32.69L26.21 73.01L32.26 73.01L32.26 69.34L42.41 69.34L42.41 89.14L49.25 89.14L49.25 69.34L59.69 69.34L59.69 72.58L66.02 72.58L66.02 32.69Z"/></svg>
