<svg xmlns="http://www.w3.org/2000/svg" xmlns:xlink="http://www.w3.org/1999/xlink" width="72.00000000000001" height="106.56000000000002"><path fill="red" stroke="red" d="M56.52 46.80L35.14 46.80L35.14 34.20L56.52 34.20ZM56.52 65.74L35.14 65.74L35.14 52.99L56.52 52.99ZM63.72 28.01L28.22 28.01L28.22 72.00L63.72 72.00ZM19.44 23.40C15.48 33.91 8.93 44.50 2.02 51.12C3.17 52.70 5.11 56.45 5.76 58.10C7.85 55.94 10.01 53.50 12.02 50.76L12.02 89.06L18.65 89.06L18.65 40.54C21.46 35.71 23.90 30.53 25.92 25.49ZM22.61 80.28L22.61 86.47L69.34 86.47L69.34 80.28Z"/></svg>
