<svg xmlns="http://www.w3.org/2000/svg" xmlns:xlink="http://www.w3.org/1999/xlink" width="72.00000000000001" height="106.56000000000002"><path fill="red" stroke="red" d="M18.00 23.40C14.54 33.84 8.78 44.42 2.52 51.19C3.74 52.70 5.69 56.30 6.26 57.89C7.99 56.02 9.58 53.93 11.23 51.62L11.23 89.14L17.57 89.14L17.57 40.97C20.16 35.86 22.54 30.53 24.34 25.27ZM31.75 60.98L31.75 54.50L42.62 54.50L42.62 57.60C42.62 58.68 42.62 59.90 42.55 60.98ZM31.75 43.27L42.62 43.27L42.62 49.75L31.75 49.75ZM59.26 43.27L59.26 49.75L49.25 49.75L49.25 43.27ZM59.26 60.98L49.18 60.98C49.25 59.90 49.25 58.75 49.25 57.67L49.25 54.50L59.26 54.50ZM65.81 66.02L65.81 38.23L49.25 38.23L49.25 32.90L67.90 32.90L67.90 27.07L24.05 27.07L24.05 32.90L42.62 32.90L42.62 38.23L25.56 38.23L25.56 66.02L41.98 66.02C41.33 69.19 40.18 72.22 37.73 74.95C34.13 72.86 31.25 70.49 29.16 67.54L23.33 69.55C25.85 73.30 29.09 76.39 32.90 78.98C29.66 80.93 25.34 82.66 19.58 83.95C20.95 85.18 22.90 87.84 23.69 89.42C30.17 87.48 35.14 85.10 38.81 82.30C46.30 85.82 55.37 87.84 65.88 88.78C66.74 86.90 68.40 84.10 69.91 82.58C59.76 81.94 50.76 80.42 43.56 77.62C46.30 74.09 47.81 70.20 48.53 66.02Z"/></svg>
