<svg xmlns="http://www.w3.org/2000/svg" xmlns:xlink="http://www.w3.org/1999/xlink" width="72.00000000000001" height="106.56000000000002"><path fill="red" stroke="red" d="M66.53 31.03L49.61 31.03C49.10 28.51 48.10 25.13 47.09 22.39L40.82 23.47C41.62 25.70 42.41 28.66 42.84 31.03L25.27 31.03L25.27 36.94L66.53 36.94ZM39.96 49.03C39.31 45.86 37.66 41.04 35.71 37.37L30.10 39.10C31.90 42.77 33.48 47.74 33.98 50.90ZM18.58 23.26C14.83 33.84 8.64 44.28 2.16 51.05C3.24 52.63 5.11 56.16 5.76 57.74C7.63 55.66 9.43 53.42 11.23 50.98L11.23 89.14L17.57 89.14L17.57 40.75C20.30 35.71 22.82 30.46 24.70 25.27ZM56.23 68.47L56.23 80.42L34.70 80.42L34.70 68.47ZM28.37 89.14L34.70 89.14L34.70 86.33L56.23 86.33L56.23 88.85L62.78 88.85L62.78 62.50L28.37 62.50ZM55.94 50.98C57.74 47.45 59.62 42.84 61.20 38.74L54.86 37.08C53.71 41.26 51.48 47.09 49.68 50.98L22.46 50.98L22.46 57.02L68.83 57.02L68.83 50.98Z"/></svg>
