<svg xmlns="http://www.w3.org/2000/svg" xmlns:xlink="http://www.w3.org/1999/xlink" width="72.00000000000001" height="106.56000000000002"><path fill="red" stroke="red" d="M57.67 49.90L33.55 49.90L33.55 44.93L57.67 44.93ZM57.67 59.90L33.55 59.90L33.55 54.79L57.67 54.79ZM57.67 69.91L33.55 69.91L33.55 64.73L57.67 64.73ZM64.44 39.74L48.38 39.74L48.38 34.56L67.68 34.56L67.68 28.80L48.38 28.80L48.38 23.11L41.62 23.11L41.62 39.74L27.07 39.74L27.07 74.95L64.44 74.95ZM19.44 23.26C15.41 33.84 8.64 44.21 1.58 50.83C2.66 52.49 4.61 56.09 5.26 57.60C7.63 55.15 10.01 52.34 12.31 49.25L12.31 88.99L18.65 88.99L18.65 39.60C21.31 34.99 23.76 30.10 25.70 25.27ZM35.93 76.25C32.54 79.63 26.71 82.94 21.17 85.03C22.90 86.04 25.70 88.20 27.07 89.50C32.33 86.98 38.74 82.80 42.70 78.55ZM49.32 79.42C54.14 82.30 60.19 86.69 63.14 89.42L69.26 85.68C65.95 82.87 59.69 78.77 55.15 76.10Z"/></svg>
