<svg xmlns="http://www.w3.org/2000/svg" xmlns:xlink="http://www.w3.org/1999/xlink" width="72.00000000000001" height="106.56000000000002"><path fill="red" stroke="red" d="M29.16 71.57C27.00 75.82 23.26 80.14 19.44 83.02C20.88 83.88 23.40 85.68 24.55 86.69C28.30 83.45 32.54 78.26 35.21 73.37ZM53.28 74.38C56.88 78.12 61.06 83.45 62.86 86.83L68.47 83.81C66.53 80.35 62.14 75.24 58.46 71.64ZM55.08 55.66L33.62 55.66L33.62 50.83L55.08 50.83ZM55.08 64.94L33.62 64.94L33.62 60.05L55.08 60.05ZM47.95 36.07C49.54 39.60 51.41 43.13 53.57 46.22L35.57 46.22C37.94 43.20 39.96 39.74 41.83 36.07ZM63.50 37.01C62.28 38.59 60.19 40.75 58.32 42.62C56.74 40.54 55.44 38.38 54.22 36.07L68.33 36.07L68.33 30.46L44.21 30.46C44.93 28.51 45.65 26.42 46.22 24.34L40.10 23.11C39.46 25.63 38.66 28.15 37.73 30.46L21.82 30.46C22.54 28.73 23.18 27.00 23.83 25.27L17.64 23.40C14.04 33.91 8.14 44.35 1.73 51.19C2.88 52.70 4.75 56.30 5.33 57.89C7.13 55.94 8.86 53.71 10.58 51.34L10.58 89.06L16.78 89.06L16.78 40.97C18.58 37.73 20.16 34.34 21.60 30.89L21.60 36.07L35.06 36.07C33.98 38.09 32.76 39.89 31.46 41.62C29.74 40.10 27.72 38.59 25.92 37.30L21.82 41.11C23.76 42.55 25.92 44.35 27.65 46.08C24.84 48.89 21.60 51.34 18.07 53.21C19.44 54.36 21.53 56.95 22.32 58.18C24.19 57.10 25.92 55.80 27.65 54.43L27.65 69.55L41.33 69.55L41.33 82.37C41.33 83.16 41.11 83.45 40.03 83.45C39.17 83.52 35.78 83.52 32.40 83.38C33.19 85.10 34.06 87.41 34.42 89.21C39.24 89.21 42.70 89.21 45.00 88.27C47.38 87.41 47.95 85.75 47.95 82.58L47.95 69.55L61.27 69.55L61.27 54.94C62.86 56.38 64.51 57.60 66.24 58.61C67.18 57.02 69.12 54.72 70.56 53.64C67.39 51.98 64.30 49.46 61.56 46.51C63.72 44.86 66.31 42.77 68.62 40.68Z"/></svg>
