<svg xmlns="http://www.w3.org/2000/svg" xmlns:xlink="http://www.w3.org/1999/xlink" width="72.00000000000001" height="106.56000000000002"><path fill="red" stroke="red" d="M56.66 27.79C54.29 32.69 49.90 39.17 46.44 43.20L52.20 45.65C55.66 41.76 60.12 35.86 63.65 30.38ZM25.70 42.19C23.62 38.16 18.94 31.97 14.98 27.43L9.58 30.53C13.46 35.28 18.00 41.69 19.94 45.72ZM50.76 81.43C48.10 81.43 47.66 81.07 47.66 78.70L47.66 55.66L67.03 55.66L67.03 49.18L39.38 49.18L39.38 22.90L32.40 22.90L32.40 49.18L4.68 49.18L4.68 55.66L23.47 55.66C22.39 68.76 19.73 78.48 3.46 83.66C5.04 85.03 6.84 87.62 7.63 89.42C25.56 83.02 29.16 71.42 30.46 55.66L40.90 55.66L40.90 78.77C40.90 85.75 42.62 87.77 49.90 87.77L60.12 87.77C65.81 87.77 67.61 85.61 68.40 77.62C66.53 77.18 63.72 76.10 62.21 75.02C61.99 80.50 61.56 81.43 59.54 81.43Z"/></svg>
