<svg xmlns="http://www.w3.org/2000/svg" xmlns:xlink="http://www.w3.org/1999/xlink" width="72.00000000000001" height="106.56000000000002"><path fill="red" stroke="red" d="M69.26 44.06C64.15 38.16 53.93 29.66 45.86 23.90L40.25 27.29C48.46 33.41 58.54 42.26 63.14 48.10ZM23.69 46.58L48.38 46.58L48.38 58.39L23.69 58.39ZM48.82 82.15C45.72 82.15 45.22 81.79 45.22 79.70L45.22 64.44L55.80 64.44L55.80 40.54L18.36 40.54C23.33 36.43 28.01 31.61 31.32 26.28L24.34 23.90C19.58 31.68 11.02 38.45 2.02 42.41C3.74 43.63 6.48 46.22 7.70 47.59C10.73 46.01 13.68 44.06 16.56 41.90L16.56 64.44L25.78 64.44C24.41 74.45 20.88 80.78 4.61 84.10C5.98 85.46 7.70 88.13 8.28 89.86C26.57 85.54 31.10 77.18 32.76 64.44L38.52 64.44L38.52 79.78C38.52 86.26 40.39 88.13 48.02 88.13L59.04 88.13C65.30 88.13 67.10 85.75 67.90 76.39C66.10 75.96 63.36 74.95 61.92 73.87C61.63 81.07 61.13 82.15 58.54 82.15Z"/></svg>
