<svg xmlns="http://www.w3.org/2000/svg" xmlns:xlink="http://www.w3.org/1999/xlink" width="72.00000000000001" height="106.56000000000002"><path fill="red" stroke="red" d="M10.80 31.18L60.48 31.18L60.48 38.74L66.46 38.74L66.46 26.14L5.11 26.14L5.11 38.74L10.80 38.74ZM49.97 42.84L49.97 40.25L58.68 40.25L58.68 35.64L49.97 35.64L49.97 32.62L43.78 32.62L43.78 35.64L37.01 35.64L37.01 40.25L43.78 40.25L43.78 42.84ZM27.94 42.84L27.94 40.25L34.42 40.25L34.42 35.57L27.94 35.57L27.94 32.62L21.82 32.62L21.82 35.57L12.74 35.57L12.74 40.25L21.82 40.25L21.82 42.84ZM38.95 72.86L38.95 69.48L32.62 69.48L32.62 72.86L21.31 72.86C23.11 71.64 24.70 70.20 26.21 68.83L46.73 68.83C48.10 70.20 49.54 71.64 51.19 72.86ZM18.43 54.00L53.28 54.00L53.28 57.17L18.43 57.17ZM18.43 47.45L53.28 47.45L53.28 50.47L18.43 50.47ZM67.90 68.83L67.90 63.94L30.31 63.94C31.03 62.93 31.68 61.92 32.33 60.84L59.90 60.84L59.90 43.78L12.10 43.78L12.10 60.84L25.20 60.84C24.55 61.92 23.69 62.93 22.82 63.94L4.39 63.94L4.39 68.83L17.28 68.83C13.54 71.50 8.71 73.87 2.81 75.67C4.03 76.75 5.69 79.13 6.34 80.57C9.79 79.34 12.89 77.98 15.62 76.46L15.62 87.05L21.74 87.05L21.74 77.40L32.62 77.40L32.62 89.14L38.95 89.14L38.95 77.40L50.76 77.40L50.76 81.58C50.76 82.30 50.47 82.51 49.68 82.58C48.96 82.58 46.37 82.58 43.78 82.44C44.50 83.81 45.29 85.54 45.65 87.05C49.68 87.05 52.56 87.12 54.50 86.33C56.38 85.46 56.95 84.31 56.95 81.65L56.95 76.61C59.62 78.12 62.42 79.20 65.30 80.06C66.10 78.55 67.97 76.18 69.26 75.02C63.79 73.87 58.39 71.64 54.29 68.83Z"/></svg>
