<svg xmlns="http://www.w3.org/2000/svg" xmlns:xlink="http://www.w3.org/1999/xlink" width="72.00000000000001" height="106.56000000000002"><path fill="red" stroke="red" d="M43.34 46.08C30.17 54.86 15.41 64.22 6.34 69.41L9.86 76.25C19.87 69.98 33.48 60.98 45.65 52.49ZM7.99 29.52L7.99 36.50L56.88 36.50C55.87 65.02 54.65 77.18 51.84 79.85C50.98 80.78 50.04 81.00 48.31 81.00C46.30 81.00 41.11 81.00 35.57 80.57C37.01 82.66 38.02 85.90 38.09 87.91C42.91 88.20 48.10 88.34 51.12 87.98C54.29 87.55 56.30 86.76 58.46 84.02C61.85 79.99 62.93 67.68 64.22 33.12C64.22 32.18 64.30 29.52 64.30 29.52Z"/></svg>
