<svg xmlns="http://www.w3.org/2000/svg" xmlns:xlink="http://www.w3.org/1999/xlink" width="72.00000000000001" height="106.56000000000002"><path fill="red" stroke="red" d="M23.47 33.05L23.47 28.15L13.25 28.15C13.46 26.86 13.75 25.56 14.04 24.19L8.71 23.11C7.49 29.88 5.33 36.36 2.09 40.75C3.38 41.54 5.47 43.42 6.41 44.35C8.50 41.33 10.37 37.44 11.81 33.05ZM20.74 41.26C19.94 39.10 17.78 36.00 15.62 33.84L11.23 35.86C13.25 38.16 15.26 41.40 16.06 43.70ZM33.48 70.49L33.48 79.99L14.62 79.99L14.62 70.49ZM9.22 89.14L14.62 89.14L14.62 84.67L33.48 84.67L33.48 88.56L39.17 88.56L39.17 64.80L9.22 64.80ZM14.98 55.51C18.29 53.28 21.31 50.69 23.98 47.88C27.72 50.26 31.90 52.99 35.50 55.51ZM23.26 40.61C18.79 47.16 10.37 52.92 2.23 56.16C3.60 57.38 5.11 59.33 5.98 60.70C8.21 59.62 10.44 58.39 12.60 57.10L12.60 60.41L35.86 60.41L35.86 55.80C37.87 57.31 39.74 58.68 41.11 59.83L43.99 55.22C40.25 52.20 32.98 47.52 27.14 44.14C27.50 43.63 27.79 43.13 28.15 42.62ZM30.74 35.78C32.98 38.02 35.28 41.33 36.29 43.70L40.97 41.11C39.89 38.88 37.51 35.78 35.06 33.62ZM28.15 22.82C27.22 28.37 25.27 33.84 22.39 37.51C23.69 38.23 25.92 39.96 26.86 40.90C28.37 38.81 29.74 36.14 30.89 33.26L44.42 33.26L44.42 28.30L32.54 28.30C32.98 26.86 33.34 25.42 33.62 23.98ZM53.28 31.32L47.38 31.32L47.38 70.42L53.28 70.42ZM60.19 23.40L60.19 80.86C60.19 82.01 59.76 82.37 58.54 82.37C57.53 82.44 53.93 82.44 49.97 82.30C50.83 84.02 51.70 86.83 51.84 88.49C57.53 88.49 61.06 88.27 63.22 87.19C65.23 86.26 66.10 84.38 66.10 80.78L66.10 23.40Z"/></svg>
