<svg xmlns="http://www.w3.org/2000/svg" xmlns:xlink="http://www.w3.org/1999/xlink" width="72.00000000000001" height="106.56000000000002"><path fill="red" stroke="red" d="M19.37 52.92C25.20 58.90 31.18 67.18 33.41 72.72L39.74 69.05C37.22 63.29 31.03 55.44 25.20 49.68ZM24.05 33.91C25.34 30.96 26.42 27.94 27.43 24.84L20.45 23.11C16.92 35.14 10.66 46.51 2.95 53.71C4.61 54.65 7.78 56.88 9.00 58.03C13.39 53.50 17.50 47.30 21.02 40.46L59.11 40.46C58.10 67.61 56.88 78.77 54.29 81.22C53.42 82.22 52.49 82.44 50.90 82.44C48.96 82.44 44.14 82.44 38.95 81.94C40.25 83.88 41.18 86.83 41.33 88.78C45.94 89.06 50.76 89.14 53.57 88.78C56.52 88.42 58.39 87.70 60.34 85.25C63.50 81.50 64.66 69.70 65.95 37.22C66.02 36.29 66.02 33.91 66.02 33.91Z"/></svg>
