<svg xmlns="http://www.w3.org/2000/svg" xmlns:xlink="http://www.w3.org/1999/xlink" width="72.00000000000001" height="106.56000000000002"><path fill="red" stroke="red" d="M18.00 55.44L54.29 55.44L54.29 61.27L18.00 61.27ZM18.00 44.64L54.29 44.64L54.29 50.26L18.00 50.26ZM68.11 71.93L39.24 71.93L39.24 66.67L61.27 66.67L61.27 39.24L38.59 39.24L38.59 34.13L65.16 34.13L65.16 28.44L38.59 28.44L38.59 23.11L31.68 23.11L31.68 39.24L11.38 39.24L11.38 66.67L32.33 66.67L32.33 71.93L4.10 71.93L4.10 77.98L32.33 77.98L32.33 89.21L39.24 89.21L39.24 77.98L68.11 77.98Z"/></svg>
