<svg xmlns="http://www.w3.org/2000/svg" xmlns:xlink="http://www.w3.org/1999/xlink" width="72.00000000000001" height="106.56000000000002"><path fill="red" stroke="red" d="M45.50 35.64C44.28 38.02 42.84 40.68 41.62 42.77L15.26 42.77C17.71 40.54 20.02 38.09 21.96 35.64ZM68.11 48.82L68.11 42.77L48.89 42.77C51.12 39.38 53.57 35.71 55.44 32.90L50.54 29.38L49.46 29.74L26.35 29.74C27.50 27.94 28.58 26.06 29.59 24.26L22.25 22.82C18.79 29.66 12.31 37.73 2.88 43.70C4.32 44.78 6.48 47.30 7.34 48.96C9.14 47.74 10.80 46.51 12.38 45.22L12.38 55.51C12.38 64.37 11.38 76.18 2.59 84.60C3.96 85.46 6.70 87.84 7.63 89.14C17.21 79.92 19.01 65.66 19.01 55.66L19.01 48.82ZM38.30 82.15C32.90 82.15 31.97 81.58 31.97 78.62L31.97 60.62L51.19 60.62C50.76 66.10 50.26 68.47 49.46 69.26C48.96 69.84 48.24 69.98 47.02 69.98C45.72 69.98 42.34 69.91 38.81 69.62C39.82 71.21 40.46 73.58 40.68 75.31C44.57 75.53 48.24 75.53 50.18 75.31C52.27 75.17 53.71 74.66 55.01 73.37C56.59 71.57 57.31 67.25 57.89 57.31C57.96 56.45 58.03 54.86 58.03 54.86L25.49 54.86L25.49 78.70C25.49 86.40 28.37 88.27 38.02 88.27L56.81 88.27C65.38 88.27 67.39 85.54 68.40 75.10C66.67 74.74 63.79 73.73 62.28 72.58C61.70 80.71 60.98 82.15 56.45 82.15Z"/></svg>
