<svg xmlns="http://www.w3.org/2000/svg" xmlns:xlink="http://www.w3.org/1999/xlink" width="72.00000000000001" height="106.56000000000002"><path fill="red" stroke="red" d="M29.45 32.76L29.45 40.75L14.40 40.75L14.40 32.76ZM14.40 55.15L14.40 46.73L29.45 46.73L29.45 55.15ZM22.39 66.82C23.69 68.90 24.91 71.21 26.21 73.58L14.40 77.18L14.40 61.13L36.14 61.13L36.14 26.78L7.56 26.78L7.56 75.74C7.56 78.41 5.76 79.78 4.39 80.50C5.54 82.08 6.70 85.32 7.13 87.34C8.86 86.04 11.45 84.96 29.02 79.06C30.24 81.58 31.18 83.95 31.90 85.75L38.02 82.44C36.14 77.62 31.75 69.84 28.08 64.01ZM65.88 27.29L41.54 27.29L41.54 89.21L48.24 89.21L48.24 33.41L59.33 33.41L59.33 68.26C59.33 69.19 59.04 69.48 58.03 69.55C57.17 69.62 54.07 69.62 50.90 69.48C51.84 71.21 52.63 74.02 52.85 75.82C57.74 75.82 60.98 75.74 63.22 74.59C65.30 73.58 65.88 71.64 65.88 68.33Z"/></svg>
