<svg xmlns="http://www.w3.org/2000/svg" xmlns:xlink="http://www.w3.org/1999/xlink" width="72.00000000000001" height="106.56000000000002"><path fill="red" stroke="red" d="M52.20 64.94L52.20 78.91L19.44 78.91L19.44 64.94ZM12.67 89.21L19.44 89.21L19.44 85.39L52.20 85.39L52.20 89.06L59.33 89.06L59.33 58.54L12.67 58.54ZM42.55 34.06C45.65 36.94 48.96 40.39 52.06 43.85L18.58 45.22C24.48 39.60 30.60 32.62 35.78 25.34L29.09 22.46C23.83 31.18 15.70 40.03 13.18 42.41C10.80 44.71 9.00 46.22 7.27 46.51C7.99 48.38 9.14 51.70 9.43 53.06C12.67 51.91 17.28 51.77 56.88 49.68C58.54 51.77 59.98 53.78 61.06 55.58L66.67 51.41C62.93 45.50 54.50 36.65 47.74 30.53Z"/></svg>
