<svg xmlns="http://www.w3.org/2000/svg" xmlns:xlink="http://www.w3.org/1999/xlink" width="72.00000000000001" height="106.56000000000002"><path fill="red" stroke="red" d="M68.76 53.50C67.39 48.17 64.30 40.18 60.91 34.13L55.15 36.00C58.32 42.12 61.42 50.33 62.50 55.66ZM50.18 23.18L43.85 23.18L43.85 67.25L50.18 67.25ZM32.62 35.35C31.61 43.06 29.81 51.19 27.22 56.52C28.73 57.10 31.61 58.46 32.83 59.26C35.35 53.64 37.51 44.78 38.74 36.50ZM18.79 35.86L18.79 64.22L11.30 64.22L11.30 35.86ZM24.98 70.42L24.98 29.66L5.26 29.66L5.26 77.04L11.30 77.04L11.30 70.42ZM58.54 58.10C53.35 72.22 42.12 79.49 24.41 82.87C25.85 84.46 27.36 86.98 28.01 88.99C47.09 84.53 59.04 76.03 64.80 59.90Z"/></svg>
