<svg xmlns="http://www.w3.org/2000/svg" xmlns:xlink="http://www.w3.org/1999/xlink" width="72.00000000000001" height="106.56000000000002"><path fill="red" stroke="red" d="M19.37 67.54C16.13 73.08 10.15 78.19 4.10 81.36C5.69 82.37 8.42 84.53 9.72 85.75C15.70 81.94 22.18 76.03 26.06 69.55ZM19.30 32.26L52.92 32.26L52.92 43.13L19.30 43.13ZM66.89 64.30L66.89 58.03L39.24 58.03L39.24 49.39L59.90 49.39L59.90 26.06L12.67 26.06L12.67 49.39L32.40 49.39L32.40 58.03L5.18 58.03L5.18 64.30L32.40 64.30L32.40 89.14L39.24 89.14L39.24 64.30ZM44.86 70.85C51.12 74.95 58.75 81.00 62.28 85.03L67.68 80.78C63.86 76.68 56.02 70.99 49.90 67.10Z"/></svg>
