<svg xmlns="http://www.w3.org/2000/svg" xmlns:xlink="http://www.w3.org/1999/xlink" width="72.00000000000001" height="106.56000000000002"><path fill="red" stroke="red" d="M19.30 36.00L19.30 65.09L11.59 65.09L11.59 36.00ZM25.34 29.52L5.54 29.52L5.54 77.18L11.59 77.18L11.59 71.57L25.34 71.57ZM36.79 78.41L36.79 69.34L59.47 69.34L59.47 78.41ZM59.47 39.74L59.47 48.10L36.79 48.10L36.79 39.74ZM36.79 54.36L59.47 54.36L59.47 63.14L36.79 63.14ZM48.46 33.34C49.68 30.53 50.90 27.22 51.98 23.90L44.86 23.04C44.21 26.06 42.98 30.10 41.83 33.34L30.53 33.34L30.53 89.14L36.79 89.14L36.79 84.82L59.47 84.82L59.47 89.14L66.10 89.14L66.10 33.34Z"/></svg>
