<svg xmlns="http://www.w3.org/2000/svg" xmlns:xlink="http://www.w3.org/1999/xlink" width="72.00000000000001" height="106.56000000000002"><path fill="red" stroke="red" d="M58.39 62.93C55.08 65.88 49.97 69.55 45.72 72.14C42.98 69.48 40.82 66.38 39.02 62.93ZM59.54 62.93L68.54 62.93L68.54 57.02L39.24 57.02L39.24 34.49L66.24 34.49L66.24 28.73L39.24 28.73L39.24 23.11L32.69 23.11L32.69 28.73L6.26 28.73L6.26 34.49L32.69 34.49L32.69 57.02L3.67 57.02L3.67 62.93L15.12 62.93L15.12 76.61C15.12 80.06 12.74 82.15 11.23 83.02C12.24 84.38 13.61 87.34 14.11 88.99C15.70 87.98 18.14 87.26 37.01 82.73C36.94 81.43 37.08 78.77 37.37 76.97L21.38 80.64L21.38 62.93L32.40 62.93C38.38 76.90 48.89 85.54 65.45 89.14C66.38 87.34 68.11 84.67 69.62 83.23C61.78 81.94 55.30 79.34 50.11 75.74C54.72 73.15 59.90 69.62 64.08 66.31ZM23.76 49.25L15.05 49.25L15.05 42.05L23.76 42.05ZM10.22 37.94L10.22 53.35L28.87 53.35L28.87 37.94ZM48.02 42.05L56.81 42.05L56.81 49.25L48.02 49.25ZM61.92 53.35L61.92 37.94L43.13 37.94L43.13 53.35Z"/></svg>
