<svg xmlns="http://www.w3.org/2000/svg" xmlns:xlink="http://www.w3.org/1999/xlink" width="72.00000000000001" height="106.56000000000002"><path fill="red" stroke="red" d="M35.35 25.85C32.90 29.66 28.58 33.12 24.62 35.57C25.56 36.94 27.14 40.25 27.50 41.54C32.26 38.30 37.58 32.98 40.68 27.94ZM44.50 32.11C40.75 37.44 35.21 42.55 33.48 43.92C31.82 45.29 30.53 46.22 29.16 46.37C29.88 47.95 30.67 50.76 30.96 52.06C32.76 51.26 35.57 50.90 56.88 49.03C57.96 50.40 58.90 51.62 59.54 52.70L63.94 49.68C61.85 46.58 57.53 41.62 54.22 38.02L50.04 40.61C51.05 41.76 52.13 42.98 53.28 44.35L39.53 45.36C43.13 42.41 46.58 38.88 49.82 35.21ZM16.85 33.55L16.85 66.24L10.80 66.24L10.80 33.55ZM22.10 28.22L5.54 28.22L5.54 78.26L10.80 78.26L10.80 71.64L22.10 71.64ZM45.22 55.01L25.56 55.01L25.56 60.55L39.60 60.55L39.60 70.78C33.84 73.66 28.01 76.54 23.98 78.34L26.35 83.09C30.31 81.00 34.99 78.34 39.60 75.67L39.60 83.09C39.60 83.81 39.38 84.02 38.52 84.02C37.87 84.10 35.42 84.10 32.76 84.02C33.48 85.46 34.20 87.48 34.34 89.06C38.30 89.06 41.04 88.99 42.91 88.13C44.71 87.26 45.22 85.90 45.22 83.09ZM37.51 68.98C35.86 66.89 32.69 63.65 30.10 61.42L26.42 64.08C28.94 66.53 32.11 69.84 33.70 72.07ZM67.54 55.01L47.52 55.01L47.52 60.55L61.92 60.55L61.92 70.63C55.94 73.51 50.04 76.32 46.01 78.05L48.31 82.87C52.27 80.71 57.17 78.12 61.92 75.53L61.92 83.02C61.92 83.74 61.63 84.02 60.84 84.02C60.05 84.10 57.46 84.10 54.79 84.02C55.51 85.46 56.16 87.48 56.45 89.06C60.48 89.06 63.36 88.99 65.16 88.13C67.03 87.26 67.54 85.90 67.54 83.09ZM59.33 68.98C57.67 66.96 54.29 63.79 51.62 61.56L47.88 64.22C50.62 66.60 53.93 69.98 55.58 72.22ZM42.48 25.13L42.48 30.31L53.06 30.31C56.16 34.85 60.70 39.10 65.52 41.90C66.46 40.32 68.26 38.09 69.55 36.94C64.44 34.56 59.11 30.02 56.59 25.13Z"/></svg>
