<svg xmlns="http://www.w3.org/2000/svg" xmlns:xlink="http://www.w3.org/1999/xlink" width="72.00000000000001" height="106.56000000000002"><path fill="red" stroke="red" d="M44.78 81.50L44.78 72.79L55.73 72.79L55.73 81.50ZM26.35 81.50L16.20 81.50L16.20 72.79L26.35 72.79ZM25.70 40.46L14.69 40.46L14.69 31.90L25.70 31.90ZM45.07 31.90L56.74 31.90L56.74 40.46L45.07 40.46ZM68.18 58.61L68.18 52.70L55.94 52.70L57.74 50.98C55.73 49.32 52.13 47.52 48.82 46.15L63.14 46.15L63.14 26.21L38.95 26.21L38.95 46.15L46.51 46.15L43.56 48.96C46.08 49.90 48.96 51.26 51.19 52.70L33.55 52.70C34.92 50.62 36.22 48.46 37.22 46.30L32.04 45.29L32.04 26.21L8.71 26.21L8.71 46.15L30.02 46.15C28.94 48.31 27.43 50.54 25.70 52.70L3.89 52.70L3.89 58.61L19.73 58.61C15.19 62.28 9.50 65.59 2.45 68.18C3.67 69.34 5.33 71.78 6.05 73.37C7.49 72.79 8.78 72.22 10.08 71.57L10.08 89.14L16.20 89.14L16.20 87.26L26.35 87.26L26.35 88.78L32.76 88.78L32.76 66.96L18.58 66.96C22.46 64.44 25.85 61.56 28.66 58.61L41.69 58.61C44.57 61.70 48.17 64.58 52.13 66.96L38.66 66.96L38.66 89.14L44.78 89.14L44.78 87.26L55.73 87.26L55.73 88.78L62.14 88.78L62.14 71.71C63.29 72.07 64.30 72.43 65.45 72.79C66.31 71.21 68.18 68.69 69.62 67.46C62.57 65.81 55.44 62.57 50.18 58.61Z"/></svg>
