<svg xmlns="http://www.w3.org/2000/svg" xmlns:xlink="http://www.w3.org/1999/xlink" width="72.00000000000001" height="106.56000000000002"><path fill="red" stroke="red" d="M35.78 71.28L24.19 71.28C24.62 69.77 24.98 68.18 25.34 66.60L35.78 66.60ZM26.14 53.14L45.65 53.14L45.65 57.10L26.14 57.10ZM41.83 60.34L51.55 60.34L51.55 49.90L20.52 49.90L20.52 60.34L35.78 60.34L35.78 63.00L16.63 63.00L16.63 66.60L20.23 66.60C19.51 69.55 18.65 72.79 17.86 75.10L35.78 75.10L35.78 79.42L41.83 79.42L41.83 75.10L55.51 75.10L55.51 71.28L41.83 71.28L41.83 66.60L55.73 66.60L55.73 63.00L41.83 63.00ZM44.35 40.10L44.35 43.70L32.69 43.70C33.05 42.55 33.48 41.40 33.84 40.10ZM49.90 43.70L49.90 36.58L34.92 36.58L35.78 33.26L30.17 32.54C29.81 33.84 29.45 35.14 29.02 36.58L20.09 36.58L20.09 40.10L28.01 40.10C27.65 41.40 27.22 42.55 26.78 43.70L15.98 43.70L15.98 47.52L56.09 47.52L56.09 43.70ZM12.24 80.35L12.24 32.18L59.47 32.18L59.47 80.35ZM5.98 26.14L5.98 89.21L12.24 89.21L12.24 86.40L59.47 86.40L59.47 89.21L66.02 89.21L66.02 26.14Z"/></svg>
