<svg xmlns="http://www.w3.org/2000/svg" xmlns:xlink="http://www.w3.org/1999/xlink" width="72.00000000000001" height="106.56000000000002"><path fill="red" stroke="red" d="M11.23 40.03L60.70 40.03L60.70 50.40L67.10 50.40L67.10 34.20L54.50 34.20C56.66 31.97 59.11 28.87 61.34 25.70L54.36 23.47C52.85 26.35 50.26 30.38 48.17 32.98L51.55 34.20L39.24 34.20L39.24 23.04L32.47 23.04L32.47 34.20L21.02 34.20L23.69 32.98C22.54 30.38 19.94 26.57 17.50 23.76L11.52 26.14C13.46 28.51 15.48 31.68 16.78 34.20L5.11 34.20L5.11 50.40L11.23 50.40ZM22.46 50.18L49.39 50.18L49.39 57.02L22.46 57.02ZM39.24 81.43L39.24 74.16L61.92 74.16L61.92 68.33L39.24 68.33L39.24 62.28L56.02 62.28L56.02 44.93L16.27 44.93L16.27 62.28L32.47 62.28L32.47 68.33L11.16 68.33L11.16 74.16L32.47 74.16L32.47 81.43L4.82 81.43L4.82 87.34L67.39 87.34L67.39 81.43Z"/></svg>
