<svg xmlns="http://www.w3.org/2000/svg" xmlns:xlink="http://www.w3.org/1999/xlink" width="72.00000000000001" height="106.56000000000002"><path fill="red" stroke="red" d="M57.53 35.06L35.21 35.06L35.21 30.31L57.53 30.31ZM57.53 44.35L35.21 44.35L35.21 39.60L57.53 39.60ZM64.01 25.42L28.94 25.42L28.94 49.32L64.01 49.32ZM25.85 65.09C23.18 66.10 20.38 67.18 17.71 68.04L17.71 46.80L25.99 46.80L25.99 40.39L17.71 40.39L17.71 24.12L11.45 24.12L11.45 40.39L2.59 40.39L2.59 46.80L11.45 46.80L11.45 70.34C8.06 71.50 5.04 72.58 2.52 73.37L4.68 80.21C11.09 77.69 19.44 74.38 27.07 71.14ZM49.54 72.00L64.15 72.00L64.15 66.67L49.54 66.67L49.54 59.18L68.40 59.18L68.40 53.71L24.70 53.71L24.70 59.18L43.13 59.18L43.13 80.21C39.74 78.62 37.01 75.67 35.14 70.70C35.78 68.26 36.29 65.59 36.65 62.71L30.46 61.99C29.30 72.14 26.21 80.21 19.80 85.18C21.31 86.04 23.83 88.06 24.91 89.21C28.37 86.11 31.03 82.08 33.05 77.26C37.80 86.40 45.29 88.20 55.44 88.20L68.04 88.20C68.33 86.54 69.19 83.74 69.98 82.30C67.18 82.37 57.74 82.37 55.66 82.37C53.57 82.37 51.48 82.30 49.54 82.01Z"/></svg>
