<svg xmlns="http://www.w3.org/2000/svg" xmlns:xlink="http://www.w3.org/1999/xlink" width="72.00000000000001" height="106.56000000000002"><path fill="red" stroke="red" d="M10.80 49.68L10.80 46.37L17.42 46.37L17.42 49.68ZM10.80 39.38L17.42 39.38L17.42 42.62L10.80 42.62ZM30.46 39.38L30.46 42.62L23.33 42.62L23.33 39.38ZM30.46 49.68L23.33 49.68L23.33 46.37L30.46 46.37ZM17.42 67.54L23.33 67.54L23.33 62.06L36.00 62.06L36.00 57.10L23.33 57.10L23.33 53.64L35.86 53.64L35.86 35.42L23.33 35.42L23.33 32.18L36.43 32.18L36.43 27.36L23.33 27.36L23.33 23.04L17.42 23.04L17.42 27.36L4.39 27.36L4.39 32.18L17.42 32.18L17.42 35.42L5.54 35.42L5.54 53.64L17.42 53.64L17.42 57.10L3.46 57.10L3.46 62.06L17.42 62.06ZM39.02 76.10L61.92 76.10L61.92 70.85L39.02 70.85L39.02 66.10L32.40 66.10L32.40 70.85L10.15 70.85L10.15 76.10L32.40 76.10L32.40 82.30L3.60 82.30L3.60 87.55L68.40 87.55L68.40 82.30L39.02 82.30ZM46.73 40.03L46.73 32.11C53.71 31.46 61.34 30.38 66.74 28.73L63.79 24.05C58.46 25.78 49.32 27.14 41.62 27.79L40.75 27.79L40.75 41.90C40.75 48.46 40.25 56.88 35.57 63.00C36.94 63.79 39.53 65.66 40.46 66.74C44.93 61.06 46.30 52.78 46.66 45.72L54.65 45.72L54.65 67.18L60.84 67.18L60.84 45.72L68.47 45.72L68.47 40.03Z"/></svg>
