<svg xmlns="http://www.w3.org/2000/svg" xmlns:xlink="http://www.w3.org/1999/xlink" width="72.00000000000001" height="106.56000000000002"><path fill="red" stroke="red" d="M23.98 39.67L28.22 37.94C27.79 35.71 26.28 32.18 24.62 29.66L20.30 31.18C21.96 33.84 23.33 37.37 23.76 39.67L17.14 39.67L17.14 29.52L32.54 29.52L32.54 39.67ZM54.79 39.67L47.23 39.67C48.60 37.51 50.11 34.49 51.55 31.46L46.44 29.59C45.72 32.11 44.14 35.93 42.91 38.23L46.37 39.67L39.02 39.67L39.02 29.52L54.79 29.52ZM52.63 62.50C56.09 65.30 60.26 69.26 62.28 71.71L67.54 68.90C65.45 66.46 61.42 62.86 58.18 60.34L67.25 60.34L67.25 55.58L39.02 55.58L39.02 51.77L62.78 51.77L62.78 47.23L39.02 47.23L39.02 43.85L61.56 43.85L61.56 25.34L10.73 25.34L10.73 43.85L32.54 43.85L32.54 47.23L10.08 47.23L10.08 51.77L32.54 51.77L32.54 55.58L4.75 55.58L4.75 60.34L56.95 60.34ZM48.89 68.18C47.88 66.10 45.65 62.86 43.56 60.62L38.45 62.42C40.46 64.87 42.62 68.18 43.63 70.42ZM32.04 68.76C31.61 66.67 30.53 63.50 29.38 61.13L23.69 62.35C24.70 64.73 25.85 68.04 26.14 70.20ZM12.89 60.41C10.94 63.86 7.78 67.39 4.68 69.48L9.72 72.72C13.18 70.13 16.42 65.81 18.50 61.99ZM39.10 82.73L39.10 78.05L60.91 78.05L60.91 72.79L39.10 72.79L39.10 68.90L32.47 68.90L32.47 72.79L11.09 72.79L11.09 78.05L32.47 78.05L32.47 82.73L3.60 82.73L3.60 88.13L68.40 88.13L68.40 82.73Z"/></svg>
