<svg xmlns="http://www.w3.org/2000/svg" xmlns:xlink="http://www.w3.org/1999/xlink" width="72.00000000000001" height="106.56000000000002"><path fill="red" stroke="red" d="M53.42 72.22C53.64 70.56 53.71 68.83 53.71 67.32L62.06 67.32L62.06 72.22ZM62.06 58.25L62.06 62.78L53.71 62.78L53.71 58.25ZM27.50 72.79L27.50 69.26L31.97 69.26L31.97 72.79ZM41.26 69.26L41.26 72.79L36.79 72.79L36.79 69.26ZM30.67 58.18L38.16 58.18L38.16 60.70L30.67 60.70ZM67.18 53.21L48.67 53.21L48.67 66.38C48.67 70.78 48.38 75.96 46.44 80.78L46.44 78.70L36.79 78.70L36.79 76.03L45.86 76.03L45.86 66.02L36.79 66.02L36.79 64.08L42.91 64.08L42.91 58.18L47.16 58.18L47.16 54.43L42.91 54.43L42.91 51.48L38.16 51.48L38.16 54.43L30.67 54.43L30.67 51.48L26.06 51.48L26.06 54.43L21.38 54.43L21.38 58.18L26.06 58.18L26.06 64.08L31.97 64.08L31.97 66.02L23.11 66.02L23.11 68.62L22.03 64.01L16.56 66.10L16.56 46.51L22.03 46.51L22.03 40.39L16.56 40.39L16.56 24.26L10.44 24.26L10.44 40.39L3.82 40.39L3.82 46.51L10.44 46.51L10.44 68.40C7.49 69.55 4.75 70.56 2.52 71.21L4.54 77.83C10.01 75.53 16.70 72.72 23.11 69.98L23.11 76.03L31.97 76.03L31.97 78.70L20.52 78.70L20.52 83.02L31.97 83.02L31.97 89.35L36.79 89.35L36.79 83.02L45.43 83.02C44.71 84.31 43.85 85.39 42.84 86.54C44.06 87.12 46.15 88.63 47.09 89.57C50.26 86.04 51.91 81.43 52.78 76.82L62.06 76.82L62.06 83.23C62.06 83.88 61.85 84.17 61.06 84.17C60.41 84.17 57.96 84.17 55.37 84.10C56.09 85.54 56.74 87.70 56.95 89.14C60.70 89.14 63.29 89.14 64.94 88.20C66.74 87.34 67.18 85.90 67.18 83.23ZM28.37 50.69C32.26 49.75 36.36 48.82 40.61 47.74L40.39 43.92L38.74 44.21L40.32 40.54C37.94 39.74 33.70 38.88 30.53 38.59L28.87 41.90C32.04 42.41 36.22 43.27 38.52 44.21C33.98 44.93 29.88 45.65 26.64 45.94ZM63.86 47.38C60.62 46.22 54.79 45.00 50.40 44.50L49.10 48.02C53.64 48.74 59.47 50.11 62.57 51.34ZM58.90 38.45C56.59 39.31 52.34 40.82 49.61 41.40L51.77 44.42C54.58 43.99 58.61 43.06 61.56 41.90ZM47.95 33.84L47.95 30.82L66.67 30.82L66.67 26.14L24.91 26.14L24.91 30.82L42.12 30.82L42.12 33.84L22.61 33.84L22.61 43.70L27.94 43.70L27.94 37.87L42.12 37.87L42.12 50.76L47.95 50.76L47.95 37.87L62.64 37.87L62.64 43.63L68.18 43.63L68.18 33.84Z"/></svg>
