<svg xmlns="http://www.w3.org/2000/svg" xmlns:xlink="http://www.w3.org/1999/xlink" width="72.00000000000001" height="106.56000000000002"><path fill="red" stroke="red" d="M32.26 38.66L10.51 38.66L10.51 43.99L61.70 43.99L61.70 38.66L39.17 38.66L39.17 33.91L67.18 33.91L67.18 28.51L39.17 28.51L39.17 23.11L32.26 23.11L32.26 28.51L4.90 28.51L4.90 33.91L32.26 33.91ZM31.75 81.72L31.75 70.63L18.43 70.63L18.43 64.01L31.75 64.01L31.75 53.28L39.74 53.28L39.74 64.01L53.42 64.01L53.42 70.63L39.74 70.63L39.74 81.72ZM46.08 81.72L46.08 75.82L59.76 75.82L59.76 58.82L46.01 58.82L46.01 53.28L59.83 53.28L59.83 59.83L66.53 59.83L66.53 47.88L5.33 47.88L5.33 59.83L11.81 59.83L11.81 53.28L25.56 53.28L25.56 58.82L12.31 58.82L12.31 75.82L25.42 75.82L25.42 81.72L3.67 81.72L3.67 87.41L68.54 87.41L68.54 81.72Z"/></svg>
