<svg xmlns="http://www.w3.org/2000/svg" xmlns:xlink="http://www.w3.org/1999/xlink" width="72.00000000000001" height="106.56000000000002"><path fill="red" stroke="red" d="M67.61 49.97L67.61 43.06L38.59 43.06C39.46 35.93 39.53 29.02 39.60 23.18L32.33 23.18C32.26 28.94 32.33 35.86 31.46 43.06L4.68 43.06L4.68 49.97L30.24 49.97C27.36 63.00 20.38 75.96 3.24 83.45C5.11 84.89 7.27 87.26 8.35 89.06C24.70 81.36 32.47 68.90 36.14 55.87C41.76 71.14 50.47 82.80 63.94 89.06C65.02 87.05 67.25 84.24 68.90 82.80C55.30 77.11 46.22 64.94 41.33 49.97Z"/></svg>
