<svg xmlns="http://www.w3.org/2000/svg" xmlns:xlink="http://www.w3.org/1999/xlink" width="72.00000000000001" height="106.56000000000002"><path fill="red" stroke="red" d="M34.13 67.46L34.13 75.96L17.35 75.96L17.35 67.46ZM40.46 81.22L40.46 62.21L10.94 62.21L10.94 85.82L17.35 85.82L17.35 81.22ZM63.72 46.15C57.17 43.34 46.22 39.02 37.30 36.07L37.58 35.42L64.66 35.42L64.66 29.52L39.10 29.52C39.46 27.58 39.67 25.42 39.89 23.11L32.98 23.11C32.76 25.42 32.54 27.65 32.18 29.52L7.56 29.52L7.56 35.42L30.17 35.42C27.07 41.04 20.59 44.14 6.48 45.79C7.56 47.02 9.07 49.46 9.50 51.05C22.82 49.25 30.17 46.08 34.42 41.04C43.06 43.99 52.99 48.17 58.75 50.98ZM68.26 51.05L3.96 51.05L3.96 57.02L51.98 57.02L51.98 81.58C51.98 82.73 51.55 83.02 50.11 83.09C48.74 83.16 43.63 83.16 38.74 82.94C39.74 84.67 40.82 87.41 41.26 89.28C47.66 89.28 52.20 89.21 55.08 88.20C57.89 87.26 58.82 85.32 58.82 81.65L58.82 57.02L68.26 57.02Z"/></svg>
