<svg xmlns="http://www.w3.org/2000/svg" xmlns:xlink="http://www.w3.org/1999/xlink" width="72.00000000000001" height="106.56000000000002"><path fill="red" stroke="red" d="M37.94 78.70C45.22 81.58 54.72 86.26 59.33 89.50L64.15 84.74C59.04 81.43 49.54 77.04 42.48 74.45ZM25.27 58.61C26.86 57.02 28.22 55.22 29.52 53.50L43.27 53.50C44.42 55.30 45.86 57.02 47.38 58.61ZM67.97 53.50L67.97 48.17L32.83 48.17C33.62 46.66 34.42 45.07 34.99 43.49L60.41 43.49L60.41 38.23L36.94 38.23C37.37 36.72 37.73 35.28 38.09 33.77L63.22 33.77L63.22 28.44L39.10 28.44C39.38 26.78 39.53 25.20 39.67 23.54L32.90 23.11C32.83 24.91 32.62 26.64 32.40 28.44L9.22 28.44L9.22 33.77L31.39 33.77C31.03 35.28 30.67 36.72 30.17 38.23L11.95 38.23L11.95 43.49L27.94 43.49C27.22 45.07 26.35 46.66 25.42 48.17L4.10 48.17L4.10 53.50L21.31 53.50C16.78 58.54 10.58 62.93 2.59 66.10C4.10 67.10 6.19 69.55 6.98 71.21C13.39 68.47 18.72 65.02 23.04 60.91L23.04 63.86L33.05 63.86C33.05 65.45 32.90 67.10 32.40 68.90L12.96 68.90L12.96 74.23L29.59 74.23C26.42 78.05 20.38 81.72 8.86 84.60C10.22 85.82 12.17 87.98 12.96 89.42C27.72 85.46 34.27 79.85 37.08 74.23L59.11 74.23L59.11 68.90L38.81 68.90C39.10 67.18 39.17 65.66 39.17 64.08L39.17 63.86L49.61 63.86L49.61 60.91C54.22 65.16 59.76 68.62 65.59 70.70C66.53 69.05 68.47 66.53 69.91 65.30C62.35 63.00 55.22 58.68 50.47 53.50Z"/></svg>
