<svg xmlns="http://www.w3.org/2000/svg" xmlns:xlink="http://www.w3.org/1999/xlink" width="72.00000000000001" height="106.56000000000002"><path fill="red" stroke="red" d="M67.82 51.05L39.02 51.05L39.02 46.58L61.85 46.58L61.85 41.33L39.02 41.33L39.02 37.08L65.45 37.08L65.45 31.61L50.11 31.61C51.70 29.66 53.42 27.29 54.94 25.06L48.31 23.04C47.09 25.63 44.78 29.09 42.84 31.61L23.98 31.61L28.08 29.88C27.22 27.86 25.06 24.91 23.11 22.75L17.35 24.91C19.01 26.93 20.74 29.66 21.74 31.61L6.62 31.61L6.62 37.08L32.47 37.08L32.47 41.33L10.01 41.33L10.01 46.58L32.47 46.58L32.47 51.05L4.25 51.05L4.25 56.52L67.82 56.52ZM46.01 70.63C43.92 73.08 41.26 75.17 38.16 76.82C33.34 75.74 28.22 74.81 23.18 73.87C23.98 72.86 24.91 71.78 25.85 70.63ZM68.33 70.63L68.33 65.45L56.74 65.45C57.10 64.58 57.38 63.79 57.74 62.93L51.34 61.20C50.76 62.71 50.18 64.08 49.46 65.45L29.59 65.45C31.10 63.22 32.54 60.98 33.70 58.82L27.07 57.10C25.70 59.76 23.83 62.64 21.89 65.45L4.03 65.45L4.03 70.63L18.00 70.63C16.13 73.01 14.11 75.24 12.38 77.04C18.22 78.05 23.90 79.06 29.45 80.21C22.68 82.08 14.26 83.09 4.03 83.52C5.04 84.96 6.05 87.41 6.48 89.28C20.74 88.34 31.68 86.47 40.03 82.58C48.67 84.67 56.23 86.83 61.78 88.92L67.82 84.46C62.14 82.51 54.79 80.57 46.58 78.70C49.46 76.39 51.91 73.80 54.00 70.63Z"/></svg>
