<svg xmlns="http://www.w3.org/2000/svg" xmlns:xlink="http://www.w3.org/1999/xlink" width="72.00000000000001" height="106.56000000000002"><path fill="red" stroke="red" d="M19.22 43.99C19.15 50.40 18.50 57.96 15.91 65.38C14.11 63.79 12.24 62.21 10.44 60.70C11.52 55.94 12.53 50.26 13.54 44.35ZM25.20 33.19L19.22 33.19L19.22 38.02L14.47 38.30C15.12 33.19 15.77 28.22 16.13 23.69L10.01 23.47C9.72 28.15 9.14 33.34 8.42 38.59C6.34 38.66 4.46 38.74 2.66 38.81L3.31 45.00L7.56 44.71C6.41 51.48 5.11 57.82 3.96 62.50C6.91 65.09 10.30 68.11 13.46 71.06C11.02 75.89 7.56 80.57 2.59 84.74C4.03 85.61 6.26 87.70 7.27 89.06C12.10 84.96 15.62 80.50 18.14 75.74C20.23 77.76 21.96 79.78 23.26 81.43L27.00 76.10C25.49 74.38 23.33 72.22 20.88 69.84C24.41 60.77 25.13 51.41 25.20 43.63L28.58 43.42L28.58 37.51L25.20 37.73ZM38.52 42.70L43.20 41.33C42.77 39.46 41.76 36.50 40.68 34.34L55.37 34.34C54.65 36.86 53.57 40.25 52.49 42.70ZM52.27 73.73L43.56 73.73L43.56 67.90L52.27 67.90ZM68.18 28.80L51.98 28.80C51.41 26.78 50.40 24.34 49.32 22.46L43.63 24.12C44.35 25.56 45.00 27.22 45.43 28.80L27.79 28.80L27.79 34.34L39.02 34.34L34.85 35.42C35.93 37.66 36.86 40.61 37.22 42.70L28.87 42.70L28.87 89.28L34.78 89.28L34.78 48.17L45.29 48.17L45.29 53.71L36.94 53.71L36.94 58.46L45.29 58.46L45.29 63.43L38.95 63.43L38.95 80.78L43.56 80.78L43.56 78.19L56.95 78.19L56.95 63.43L50.47 63.43L50.47 58.46L58.90 58.46L58.90 53.71L50.47 53.71L50.47 48.17L60.98 48.17L60.98 82.15C60.98 83.02 60.70 83.30 59.76 83.30C58.97 83.30 56.16 83.38 53.28 83.30C54.07 84.82 54.94 87.41 55.15 88.99C59.54 88.99 62.50 88.92 64.51 87.91C66.46 86.98 67.03 85.25 67.03 82.30L67.03 42.70L58.46 42.70C59.40 40.46 60.48 37.80 61.63 35.21L58.39 34.34L68.18 34.34Z"/></svg>
