<svg xmlns="http://www.w3.org/2000/svg" xmlns:xlink="http://www.w3.org/1999/xlink" width="72.00000000000001" height="106.56000000000002"><path fill="red" stroke="red" d="M12.67 37.87L58.75 37.87L58.75 46.22L65.81 46.22L65.81 31.54L41.18 31.54C40.39 28.94 38.66 25.34 37.08 22.68L30.46 24.26C31.61 26.42 32.90 29.23 33.77 31.54L5.90 31.54L5.90 46.22L12.67 46.22ZM12.74 63.65C17.21 68.18 21.96 74.52 23.98 78.70L29.66 74.88C27.58 70.63 22.54 64.58 18.00 60.26ZM67.68 50.90L49.68 50.90L49.68 41.40L42.84 41.40L42.84 50.90L4.39 50.90L4.39 57.46L42.84 57.46L42.84 80.42C42.84 81.72 42.34 82.08 40.97 82.15C39.46 82.15 34.34 82.15 29.38 82.01C30.31 83.81 31.39 86.83 31.75 88.78C38.52 88.78 43.06 88.63 45.86 87.55C48.74 86.54 49.68 84.67 49.68 80.57L49.68 57.46L67.68 57.46Z"/></svg>
