<svg xmlns="http://www.w3.org/2000/svg" xmlns:xlink="http://www.w3.org/1999/xlink" width="72.00000000000001" height="106.56000000000002"><path fill="red" stroke="red" d="M12.24 35.42L59.54 35.42L59.54 43.70L66.31 43.70L66.31 29.38L41.04 29.38C39.96 27.14 38.38 24.48 37.15 22.46L30.53 24.05C31.39 25.70 32.40 27.58 33.34 29.38L5.69 29.38L5.69 43.70L12.24 43.70ZM22.18 67.10C27.07 65.45 31.68 63.50 36.00 61.20C40.61 63.58 45.50 65.52 50.90 67.10ZM22.90 81.29L22.90 72.65L49.32 72.65L49.32 81.29ZM26.78 46.30L46.08 46.30C43.42 49.18 40.03 51.70 36.14 54.07C32.26 51.84 28.94 49.39 26.35 46.66ZM51.70 40.82L50.62 41.11L31.61 41.11C32.62 39.89 33.62 38.74 34.49 37.44L27.36 36.07C23.76 41.47 16.92 47.45 7.06 51.48C8.50 52.56 10.58 54.94 11.45 56.45C15.26 54.65 18.65 52.63 21.60 50.47C24.05 52.99 26.78 55.30 29.74 57.38C21.53 61.27 11.95 63.94 2.74 65.45C3.89 66.96 5.33 69.62 5.90 71.35C9.36 70.70 12.89 69.91 16.34 68.90L16.34 89.14L22.90 89.14L22.90 86.83L49.32 86.83L49.32 88.99L56.23 88.99L56.23 68.47C59.11 69.19 62.06 69.77 65.09 70.20C66.02 68.33 67.97 65.38 69.41 63.79C59.62 62.64 50.47 60.48 42.62 57.24C48.17 53.42 52.92 48.89 56.30 43.63Z"/></svg>
