<svg xmlns="http://www.w3.org/2000/svg" xmlns:xlink="http://www.w3.org/1999/xlink" width="72.00000000000001" height="106.56000000000002"><path fill="red" stroke="red" d="M46.01 72.14L46.01 65.95L55.37 65.95L55.37 72.14ZM31.18 72.14L31.18 65.95L40.25 65.95L40.25 72.14ZM16.49 72.14L16.49 65.95L25.42 65.95L25.42 72.14ZM61.78 60.70L10.37 60.70L10.37 89.06L16.49 89.06L16.49 77.18L25.42 77.18L25.42 88.42L31.18 88.42L31.18 77.18L40.25 77.18L40.25 88.27L46.01 88.27L46.01 77.18L55.37 77.18L55.37 83.23C55.37 84.02 55.08 84.24 54.29 84.24C53.50 84.31 50.98 84.31 48.31 84.24C49.03 85.61 50.11 87.70 50.54 89.28C54.58 89.28 57.38 89.21 59.33 88.34C61.27 87.41 61.78 86.04 61.78 83.23ZM23.18 51.41C27.79 49.61 32.11 47.38 35.78 44.78C40.39 47.52 45.00 49.68 49.90 51.41ZM63.65 39.60L63.65 25.13L56.74 25.13L56.74 33.98L39.31 33.98L39.31 23.11L32.47 23.11L32.47 33.98L15.55 33.98L15.55 25.13L9.00 25.13L9.00 39.60L32.76 39.60C25.34 45.14 13.61 48.82 1.80 50.69C3.31 52.34 4.75 54.72 5.54 56.52C10.08 55.58 14.47 54.43 18.72 53.06L18.72 56.45L52.85 56.45L52.85 52.42C57.10 53.86 61.49 54.94 65.95 56.02C66.74 54.00 68.40 51.77 69.91 50.18C59.26 48.31 48.96 45.94 40.25 41.18C40.82 40.68 41.26 40.18 41.76 39.60Z"/></svg>
