<svg xmlns="http://www.w3.org/2000/svg" xmlns:xlink="http://www.w3.org/1999/xlink" width="72.00000000000001" height="106.56000000000002"><path fill="red" stroke="red" d="M64.37 64.58C65.88 60.48 67.39 53.86 68.62 48.10L64.44 47.02L63.43 47.23L47.16 47.23C47.59 45.29 47.95 43.42 48.24 41.40L41.98 40.39C40.90 48.89 38.66 57.31 34.99 62.64C36.50 63.43 39.17 65.09 40.32 66.02C42.48 62.57 44.35 58.03 45.72 52.99L61.78 52.99C61.06 56.81 60.12 60.70 59.33 63.36ZM64.44 25.49L57.38 25.49L57.38 33.41L39.31 33.41L39.31 23.11L32.47 23.11L32.47 33.41L14.69 33.41L14.69 25.49L7.99 25.49L7.99 39.10L64.44 39.10ZM26.14 63.22L14.98 63.22L14.98 55.08L26.14 55.08ZM14.98 77.33L14.98 68.69L26.14 68.69L26.14 77.33ZM37.44 55.08L37.44 49.10L32.40 49.10L32.40 41.98L26.14 41.98L26.14 49.10L14.98 49.10L14.98 41.98L8.64 41.98L8.64 49.10L3.31 49.10L3.31 55.08L8.64 55.08L8.64 89.14L14.98 89.14L14.98 83.30L26.14 83.30L26.14 87.98L32.40 87.98L32.40 55.08ZM55.30 56.59L48.67 56.59L48.67 58.75C48.67 64.80 48.38 76.18 33.70 85.03C35.42 86.04 37.58 87.84 38.81 89.21C45.65 84.67 49.68 79.56 51.98 74.66C55.01 80.86 59.18 86.04 64.37 89.28C65.38 87.62 67.46 85.39 68.98 84.17C62.28 80.71 57.31 73.66 54.79 65.81C55.22 63.22 55.30 60.77 55.30 58.90Z"/></svg>
