<svg xmlns="http://www.w3.org/2000/svg" xmlns:xlink="http://www.w3.org/1999/xlink" width="72.00000000000001" height="106.56000000000002"><path fill="red" stroke="red" d="M16.92 46.66C16.92 50.83 16.78 55.08 16.20 59.33C15.12 54.86 12.53 47.45 10.08 41.69L4.68 43.92C7.13 49.82 9.58 57.67 10.44 62.35L16.13 59.76C14.98 68.54 11.74 77.11 4.03 83.95C5.47 85.10 7.85 87.48 8.78 89.14C21.96 77.47 23.54 61.49 23.54 46.66L23.54 24.34L16.92 24.34ZM24.05 43.99C26.64 49.97 29.16 57.74 29.81 62.50L35.57 59.90C34.78 55.15 32.11 47.66 29.45 41.83ZM37.08 84.38L43.63 84.38L43.63 25.92L37.08 25.92ZM44.06 43.85C47.23 49.46 50.40 57.02 51.48 61.78L56.95 58.75C55.87 54.14 52.42 46.87 49.10 41.26ZM57.96 24.12L57.96 88.42L64.66 88.42L64.66 24.12Z"/></svg>
