<svg xmlns="http://www.w3.org/2000/svg" xmlns:xlink="http://www.w3.org/1999/xlink" width="72.00000000000001" height="106.56000000000002"><path fill="red" stroke="red" d="M15.12 38.38L68.18 38.38L68.18 31.97L44.78 31.97C43.78 29.30 41.76 25.49 39.96 22.61L33.05 24.48C34.34 26.71 35.78 29.59 36.79 31.97L8.42 31.97L8.42 50.18C8.42 60.41 7.92 75.10 2.23 85.25C3.82 85.97 6.70 87.91 7.99 89.06C14.11 78.12 15.12 61.34 15.12 50.26ZM67.39 56.66L67.39 50.33L45.50 50.33L45.50 40.39L38.81 40.39L38.81 50.33L18.07 50.33L18.07 56.66L35.78 56.66C30.82 65.74 22.54 74.45 14.26 78.98C15.84 80.21 17.93 82.66 19.08 84.24C26.42 79.56 33.62 71.93 38.81 63.22L38.81 89.21L45.50 89.21L45.50 63.43C50.83 71.57 57.96 78.98 64.87 83.45C65.95 81.79 68.18 79.34 69.70 77.98C61.70 73.58 53.28 65.23 48.02 56.66Z"/></svg>
