<svg xmlns="http://www.w3.org/2000/svg" xmlns:xlink="http://www.w3.org/1999/xlink" width="72.00000000000001" height="106.56000000000002"><path fill="red" stroke="red" d="M14.69 35.50L68.18 35.50L68.18 29.52L44.21 29.52C43.27 27.29 41.98 24.55 40.68 22.39L34.56 24.05C35.50 25.63 36.43 27.65 37.22 29.52L8.21 29.52L8.21 50.33C8.21 60.70 7.78 75.24 2.81 85.54C4.25 86.26 7.13 88.13 8.35 89.28C13.82 78.26 14.69 61.56 14.69 50.33ZM36.79 70.27L36.79 75.89L67.75 75.89L67.75 70.27L55.58 70.27L55.58 60.19L65.52 60.19L65.52 54.50L55.58 54.50L55.58 45.86C59.26 45.14 62.64 44.35 65.45 43.42L62.21 38.30C56.23 40.61 46.08 42.19 37.51 43.13C38.23 44.42 39.02 46.66 39.24 47.95C42.41 47.74 45.94 47.38 49.39 46.87L49.39 54.50L39.67 54.50L39.67 60.19L49.39 60.19L49.39 70.27ZM32.47 55.15L31.39 55.30L26.57 55.30C29.16 50.54 32.26 45.00 34.78 40.10L16.92 40.10L16.92 45.50L25.63 45.50C22.90 50.76 19.80 56.45 17.21 60.48L21.02 60.48L21.02 60.55L29.52 60.55C28.58 65.30 27.07 69.26 25.27 72.65C23.83 70.42 22.61 67.68 21.67 64.30L16.70 65.88C18.14 70.78 19.87 74.59 22.03 77.62C19.58 80.64 16.56 83.02 13.25 84.74C14.54 85.61 16.63 87.84 17.50 89.14C20.66 87.34 23.47 85.03 25.99 82.08C31.61 86.83 39.17 88.13 48.89 88.13L67.25 88.13C67.61 86.40 68.47 83.59 69.48 82.15C65.74 82.22 52.13 82.22 49.18 82.22C40.97 82.22 34.27 81.22 29.38 77.26C32.47 71.78 34.70 64.94 36.00 56.23Z"/></svg>
