<svg xmlns="http://www.w3.org/2000/svg" xmlns:xlink="http://www.w3.org/1999/xlink" width="72.00000000000001" height="106.56000000000002"><path fill="red" stroke="red" d="M68.40 44.14C66.10 39.89 60.98 33.62 56.59 29.09L51.84 31.97C53.35 33.77 55.08 35.64 56.74 37.73L38.16 39.24C41.76 35.21 45.36 30.10 48.24 25.13L41.33 23.47C38.59 29.45 34.13 35.50 32.69 37.15C31.39 38.81 30.17 39.89 28.94 40.18C29.66 41.76 30.82 44.64 31.18 45.86C33.12 45.07 36.22 44.78 60.41 42.70C61.56 44.42 62.57 46.08 63.29 47.52ZM10.37 58.97C10.73 55.94 11.09 52.63 11.45 49.39L26.71 49.39L26.71 26.93L4.39 26.93L4.39 32.98L20.52 32.98L20.52 43.27L6.12 43.27C5.54 50.26 4.39 59.26 3.38 64.94L20.59 64.94C19.87 76.10 19.01 80.71 17.78 82.01C17.14 82.73 16.42 82.80 15.26 82.80C14.04 82.80 11.09 82.80 7.92 82.51C8.93 84.24 9.72 86.83 9.79 88.63C13.18 88.85 16.42 88.78 18.29 88.56C20.45 88.34 21.96 87.84 23.33 86.26C25.34 83.95 26.35 77.62 27.29 61.63C27.36 60.77 27.43 58.97 27.43 58.97ZM36.29 65.09L36.29 56.52L44.57 56.52L44.57 65.09ZM59.33 56.52L59.33 65.09L50.90 65.09L50.90 56.52ZM69.70 86.90C68.26 82.66 64.51 76.18 60.98 71.28L55.51 73.66C56.66 75.38 57.82 77.33 58.97 79.27L50.90 79.78L50.90 70.56L65.45 70.56L65.45 51.12L50.90 51.12L50.90 44.64L44.57 44.64L44.57 51.12L30.46 51.12L30.46 70.56L44.57 70.56L44.57 80.14C38.16 80.50 32.26 80.78 27.72 81.00L28.58 87.55C37.44 86.98 49.97 86.11 61.99 85.10C62.78 86.76 63.43 88.27 63.86 89.64Z"/></svg>
