<svg xmlns="http://www.w3.org/2000/svg" xmlns:xlink="http://www.w3.org/1999/xlink" width="72.00000000000001" height="106.56000000000002"><path fill="red" stroke="red" d="M59.69 24.41C55.87 29.95 48.67 35.57 42.55 38.81C44.28 40.10 46.30 42.05 47.38 43.56C54.07 39.60 61.27 33.41 66.02 27.07ZM61.49 43.78C57.24 49.54 49.32 55.58 42.70 58.97C44.35 60.26 46.37 62.28 47.45 63.79C54.65 59.54 62.42 53.14 67.75 46.37ZM19.94 40.10L6.26 40.10L6.26 45.43L40.46 45.43L40.46 40.10L26.35 40.10L26.35 34.27L42.12 34.27L42.12 28.94L26.35 28.94L26.35 23.26L19.94 23.26L19.94 28.94L4.10 28.94L4.10 34.27L19.94 34.27ZM32.76 61.70L13.46 61.70L13.46 55.08L32.76 55.08ZM39.10 50.04L7.56 50.04L7.56 66.74L39.10 66.74ZM20.09 77.76C19.58 74.88 18.07 70.42 16.34 67.18L10.80 68.54C12.38 72.00 13.82 76.46 14.26 79.34ZM62.78 64.08C58.46 71.50 50.76 78.19 42.55 82.44L42.34 76.61L32.26 77.98C33.48 75.10 34.70 71.57 35.93 68.26L29.45 67.03C28.66 70.49 27.14 75.46 25.70 78.91C17.35 79.99 9.58 81.00 3.82 81.65L4.82 87.98C14.62 86.54 28.80 84.60 42.12 82.58C41.26 83.02 40.46 83.45 39.60 83.81C41.26 85.32 43.27 87.55 44.35 89.28C54.29 84.17 63.50 76.10 69.19 66.53Z"/></svg>
