<svg xmlns="http://www.w3.org/2000/svg" xmlns:xlink="http://www.w3.org/1999/xlink" width="72.00000000000001" height="106.56000000000002"><path fill="red" stroke="red" d="M7.13 57.24C8.64 51.77 9.79 43.49 10.01 37.66L5.11 37.08C4.68 42.70 3.53 50.69 2.02 55.51ZM26.50 42.98C25.70 40.39 23.83 36.22 22.18 33.05L17.93 34.92L17.93 23.18L11.59 23.18L11.59 89.35L17.93 89.35L17.93 35.42C19.51 38.66 21.02 42.84 21.82 45.36ZM36.86 69.91L48.10 69.91L48.10 78.41L36.86 78.41ZM48.10 49.90L36.86 49.90L36.86 41.83L48.10 41.83ZM48.10 64.01L36.86 64.01L36.86 55.80L48.10 55.80ZM68.54 78.41L54.29 78.41L54.29 69.91L65.59 69.91L65.59 64.01L54.29 64.01L54.29 55.80L65.66 55.80L65.66 49.90L54.29 49.90L54.29 41.83L67.54 41.83L67.54 35.71L52.56 35.71L56.74 33.91C55.87 31.10 53.71 26.86 51.62 23.69L45.94 25.99C47.66 29.02 49.54 32.90 50.40 35.71L37.80 35.71C39.24 32.26 40.68 28.73 41.83 25.13L35.42 23.54C32.26 34.06 26.86 44.42 20.38 51.05C21.89 52.20 24.26 54.65 25.27 55.94C27.07 54.00 28.80 51.70 30.46 49.25L30.46 89.28L36.86 89.28L36.86 84.53L68.54 84.53Z"/></svg>
