<svg xmlns="http://www.w3.org/2000/svg" xmlns:xlink="http://www.w3.org/1999/xlink" width="72.00000000000001" height="106.56000000000002"><path fill="red" stroke="red" d="M61.70 31.03C60.70 35.21 58.32 41.04 56.59 44.78L61.70 46.66C63.65 43.27 66.02 38.02 68.18 33.19ZM44.50 44.14C42.91 40.82 39.60 35.42 37.15 31.25L32.11 33.91C34.63 38.16 37.73 43.85 39.10 47.23ZM8.78 84.31C11.81 80.50 14.26 74.59 15.84 69.77L10.08 67.46C8.57 72.14 5.98 77.69 2.95 81.14ZM22.82 66.82L22.82 49.90C25.13 52.42 27.58 55.22 28.80 56.88L32.98 52.49C31.46 50.90 25.42 45.22 23.04 43.27L32.98 43.27L32.98 37.51L22.82 37.51L22.82 30.31C26.78 29.59 30.46 28.73 33.55 27.79L29.02 23.26C23.18 25.20 12.96 26.78 4.18 27.72C4.75 28.94 5.54 31.10 5.83 32.33C9.29 32.11 12.96 31.75 16.63 31.25L16.63 37.51L4.18 37.51L4.18 43.27L15.19 43.27C12.10 49.18 7.42 55.22 2.95 58.39C4.32 59.54 6.34 61.70 7.34 63.22C10.51 60.48 13.82 56.23 16.63 51.62L16.63 66.82ZM30.67 82.15C26.35 82.15 25.49 81.79 25.49 79.85L25.49 69.91L18.79 69.91L18.79 79.92C18.79 86.26 21.10 88.06 30.24 88.06L45.50 88.06C52.78 88.06 54.79 85.97 55.66 77.11C53.86 76.82 51.05 75.82 49.61 74.74C49.18 81.22 48.60 82.15 45.00 82.15ZM53.42 67.75C56.23 72.36 59.90 78.62 61.56 82.30L67.54 79.34C65.66 75.74 61.78 69.77 58.90 65.30ZM52.63 23.33L46.44 23.33L46.44 35.35C46.44 43.85 44.93 53.93 31.10 60.77C31.97 61.63 33.19 63.22 34.06 64.58L29.59 66.89C32.47 70.20 36.14 74.81 37.87 77.54L43.34 74.45C41.62 72.07 38.52 68.40 35.86 65.38C44.35 60.84 48.60 55.08 50.76 49.03C55.08 54.14 61.13 61.56 63.86 65.45L68.11 60.34C65.66 57.46 56.23 46.51 52.20 42.48C52.56 40.10 52.63 37.73 52.63 35.42Z"/></svg>
