<svg xmlns="http://www.w3.org/2000/svg" xmlns:xlink="http://www.w3.org/1999/xlink" width="72.00000000000001" height="106.56000000000002"><path fill="red" stroke="red" d="M35.64 44.14L55.80 44.14L55.80 40.46L35.64 40.46ZM55.80 33.77L35.64 33.77L35.64 37.37L55.80 37.37ZM30.38 51.41L36.86 51.41L36.86 57.24L30.38 57.24ZM42.12 51.41L48.60 51.41L48.60 57.24L42.12 57.24ZM53.78 51.41L60.55 51.41L60.55 57.24L53.78 57.24ZM24.70 61.56L66.53 61.56L66.53 47.16L24.70 47.16ZM33.55 30.67L57.53 30.67L57.53 45.36L63.50 45.36L63.50 25.63L27.79 25.63L27.79 45.36L33.55 45.36ZM7.27 56.95C8.86 51.62 9.94 43.27 10.15 37.58L5.98 37.01C5.54 42.62 4.39 50.62 2.81 55.51ZM25.27 46.73C24.62 43.78 23.18 38.59 21.89 34.70L17.71 35.93L17.71 23.11L11.88 23.11L11.88 89.21L17.71 89.21L17.71 36.14C19.01 40.18 20.23 45.36 20.81 48.46ZM54.86 69.98C52.27 72.58 48.96 74.88 45.22 76.68C41.47 74.81 38.23 72.50 35.64 69.98ZM60.70 64.37L59.62 64.66L23.18 64.66L23.18 69.98L28.01 69.98C30.82 73.66 34.27 76.82 38.30 79.49C32.54 81.50 26.14 82.73 19.80 83.52C20.88 84.96 22.32 87.62 22.82 89.28C30.53 88.06 38.16 86.11 44.93 83.23C50.90 86.04 57.74 88.06 65.16 89.21C66.10 87.48 67.75 84.82 69.19 83.45C63.07 82.66 57.24 81.43 52.06 79.56C57.46 76.25 61.99 71.93 64.94 66.60Z"/></svg>
