<svg xmlns="http://www.w3.org/2000/svg" xmlns:xlink="http://www.w3.org/1999/xlink" width="72.00000000000001" height="106.56000000000002"><path fill="red" stroke="red" d="M4.68 37.01C4.61 42.55 3.89 50.47 2.66 55.51L6.77 56.81C7.99 51.34 8.71 42.98 8.64 37.44ZM10.37 89.06L15.84 89.06L15.84 23.04L10.37 23.04ZM22.61 49.46C22.32 46.08 21.17 40.10 20.09 35.42L16.49 36.22C17.42 40.90 18.43 47.09 18.79 50.69ZM30.82 86.40C31.97 82.08 32.90 74.88 33.41 69.98L29.59 68.83C29.23 73.66 28.08 80.64 26.78 84.96ZM40.54 83.95C39.31 83.95 39.17 83.74 39.17 82.37L39.17 68.18L34.85 68.18L34.85 82.37C34.85 86.83 35.78 88.06 39.89 88.06L44.64 88.06C47.88 88.06 49.10 86.33 49.54 79.34C48.31 78.98 46.51 78.41 45.65 77.62C45.43 83.30 45.22 83.95 44.06 83.95ZM46.66 75.53C45.65 72.94 43.63 68.33 41.90 64.87L38.52 66.17C40.18 69.62 42.12 74.38 43.06 77.18ZM47.59 69.70C49.39 74.81 51.41 81.58 52.34 85.54L56.52 84.10C55.51 80.35 53.35 73.73 51.41 68.69ZM44.21 59.69L35.57 59.69L35.57 52.63L44.21 52.63ZM61.56 39.31C60.55 42.70 59.18 45.94 57.60 48.89C57.24 45.14 56.95 41.11 56.66 36.79L68.47 36.79L68.47 31.54L63.07 31.54L66.60 28.30C65.16 26.86 62.28 24.41 60.19 22.82L56.66 25.63C58.82 27.43 61.49 30.02 62.93 31.54L56.45 31.54C56.30 28.80 56.23 25.99 56.16 23.11L50.76 23.11C50.90 25.99 51.05 28.80 51.19 31.54L23.90 31.54L23.90 44.93C23.90 56.52 23.33 73.80 17.57 86.33C18.86 86.83 21.31 88.20 22.32 89.21C28.30 76.25 29.30 57.46 29.30 45.29L49.97 45.29L49.97 40.61L29.30 40.61L29.30 36.79L51.55 36.79C51.98 43.49 52.49 49.82 53.21 55.44C51.77 57.31 50.11 58.97 48.38 60.48L48.38 48.10L31.25 48.10L31.25 64.22L48.38 64.22L48.38 63.94C49.10 64.80 49.75 65.66 50.04 66.17C51.48 65.09 52.78 63.79 54.14 62.42C56.45 78.91 59.76 88.99 63.29 88.99C67.39 88.92 68.83 87.91 69.70 76.39C68.47 75.82 67.10 74.23 66.02 72.94C65.74 79.78 65.02 83.38 64.37 83.38C63.65 83.38 60.70 74.23 58.54 57.10C61.85 52.27 64.58 46.66 66.60 40.61Z"/></svg>
