<svg xmlns="http://www.w3.org/2000/svg" xmlns:xlink="http://www.w3.org/1999/xlink" width="72.00000000000001" height="106.56000000000002"><path fill="red" stroke="red" d="M55.94 41.47L55.94 47.09L16.56 47.09L16.56 44.78L16.56 41.47ZM62.50 52.20L62.50 36.36L16.56 36.36L16.56 33.84C32.98 33.19 51.48 31.61 63.86 29.45L61.56 24.05C48.67 26.42 27.58 28.08 10.01 28.87L10.01 28.94L10.01 44.78C10.01 56.59 9.36 73.87 2.09 85.90C3.82 86.47 6.77 88.20 7.99 89.35C14.11 78.98 15.91 64.15 16.42 52.20ZM29.95 72.86C24.41 75.10 18.86 77.11 14.90 78.41L16.85 83.74C21.17 81.94 26.14 79.70 30.96 77.54ZM29.30 69.70C28.15 67.54 25.49 64.44 22.97 62.35L18.58 64.94C21.10 67.10 23.62 70.34 24.62 72.58ZM38.02 56.23L17.78 56.23L17.78 61.42L31.90 61.42L31.90 82.94C31.90 83.74 31.61 83.95 30.82 83.95C29.95 84.02 27.36 84.02 24.62 83.95C25.42 85.39 26.21 87.70 26.50 89.28C30.67 89.28 33.55 89.21 35.50 88.27C37.51 87.41 38.02 85.90 38.02 83.02ZM55.30 72.29C49.39 74.52 43.78 76.68 39.74 78.05L41.62 83.30C46.08 81.43 51.26 79.13 56.23 76.82ZM53.35 69.41C52.13 67.03 49.39 64.08 46.80 62.06L42.34 64.73C44.86 66.89 47.59 70.06 48.67 72.29ZM63.72 56.23L41.11 56.23L41.11 61.42L57.46 61.42L57.46 82.73C57.46 83.59 57.17 83.81 56.30 83.81C55.51 83.88 52.78 83.88 49.97 83.81C50.76 85.25 51.62 87.62 51.84 89.21C56.16 89.21 59.11 89.21 61.13 88.27C63.14 87.34 63.72 85.75 63.72 82.80Z"/></svg>
