<svg xmlns="http://www.w3.org/2000/svg" xmlns:xlink="http://www.w3.org/1999/xlink" width="72.00000000000001" height="106.56000000000002"><path fill="red" stroke="red" d="M27.14 53.78C24.48 54.58 21.67 55.30 19.01 56.02L19.01 43.42L27.50 43.42L27.50 37.22L19.01 37.22L19.01 23.18L12.46 23.18L12.46 37.22L3.53 37.22L3.53 43.42L12.46 43.42L12.46 57.82C8.78 58.75 5.40 59.54 2.59 60.19L4.39 66.60C6.91 65.95 9.65 65.23 12.46 64.37L12.46 81.50C12.46 82.51 12.10 82.87 11.09 82.87C10.22 82.94 7.13 82.94 4.03 82.87C4.82 84.53 5.76 87.26 5.98 88.92C10.87 88.92 14.11 88.78 16.20 87.70C18.29 86.76 19.01 84.96 19.01 81.50L19.01 62.57C21.96 61.70 25.06 60.77 28.01 59.90ZM53.71 80.21L53.71 53.86L67.82 53.86L67.82 47.45L53.71 47.45L53.71 23.69L46.94 23.69L46.94 80.21L37.73 80.21L37.73 38.81L31.18 38.81L31.18 80.21L22.97 80.21L22.97 86.62L69.05 86.62L69.05 80.21Z"/></svg>
