<svg xmlns="http://www.w3.org/2000/svg" xmlns:xlink="http://www.w3.org/1999/xlink" width="72.00000000000001" height="106.56000000000002"><path fill="red" stroke="red" d="M63.36 34.70C61.20 31.90 56.88 27.50 53.50 24.48L48.46 27.79C51.77 30.96 56.02 35.50 57.89 38.52ZM27.86 53.64C25.13 54.43 22.32 55.15 19.66 55.87L19.66 43.42L27.94 43.42L27.94 37.22L19.66 37.22L19.66 23.18L13.10 23.18L13.10 37.22L3.53 37.22L3.53 43.42L13.10 43.42L13.10 57.60C9.14 58.68 5.54 59.47 2.59 60.19L4.39 66.60L13.10 64.22L13.10 81.22C13.10 82.30 12.74 82.58 11.74 82.66C10.87 82.66 7.78 82.66 4.68 82.58C5.47 84.24 6.41 86.98 6.62 88.63C11.52 88.63 14.76 88.49 16.85 87.41C18.94 86.47 19.66 84.74 19.66 81.29L19.66 62.42C22.68 61.56 25.70 60.62 28.66 59.76ZM59.11 49.46C56.81 54.72 53.42 59.83 49.46 64.58C48.10 59.69 47.02 53.93 46.22 47.45L67.97 45.22L67.32 38.88L45.58 41.11C45.00 35.57 44.71 29.66 44.50 23.47L37.73 23.47C38.02 29.88 38.38 36.00 38.88 41.83L28.73 42.77L29.38 49.18L39.46 48.17C40.54 56.66 41.90 64.08 43.85 70.20C38.59 75.10 32.54 79.06 26.14 81.58C28.08 82.94 30.24 85.10 31.54 86.83C36.72 84.38 41.83 80.93 46.44 76.90C49.90 83.95 54.58 88.20 60.91 88.78C64.73 89.14 67.97 85.61 69.70 73.30C68.33 72.65 65.38 70.99 64.08 69.48C63.50 77.26 62.42 81.00 60.62 80.86C57.10 80.42 54.14 77.11 51.84 71.64C57.10 65.95 61.56 59.47 64.51 52.85Z"/></svg>
