<svg xmlns="http://www.w3.org/2000/svg" xmlns:xlink="http://www.w3.org/1999/xlink" width="72.00000000000001" height="106.56000000000002"><path fill="red" stroke="red" d="M22.82 53.50L17.28 55.44L17.28 43.34L23.18 43.34L23.18 37.08L17.28 37.08L17.28 23.18L11.02 23.18L11.02 37.15L3.60 37.15L3.60 43.34L11.02 43.34L11.02 57.67C7.92 58.75 5.11 59.69 2.74 60.41L3.96 66.89L11.02 64.30L11.02 81.58C11.02 82.51 10.66 82.80 9.79 82.80C9.07 82.87 6.48 82.87 3.89 82.73C4.75 84.53 5.54 87.41 5.69 89.14C10.01 89.14 12.82 88.85 14.76 87.77C16.63 86.76 17.28 84.89 17.28 81.58L17.28 61.99C19.44 61.20 21.67 60.34 23.83 59.47ZM41.98 61.06C42.19 58.54 42.26 55.80 42.26 53.14L42.26 52.85L48.31 52.85L48.31 61.06ZM29.88 61.06C30.24 58.46 30.60 55.58 30.89 52.85L36.07 52.85L36.07 53.14C36.07 55.80 36.00 58.54 35.78 61.06ZM42.26 38.45L48.31 38.45L48.31 46.80L42.26 46.80ZM60.05 38.45L60.05 46.80L54.58 46.80L54.58 38.45ZM54.58 61.06L54.58 52.85L65.95 52.85L65.95 32.54L54.58 32.54L54.58 23.18L48.31 23.18L48.31 32.54L42.26 32.54L42.26 23.18L36.07 23.18L36.07 32.54L25.27 32.54L25.27 38.45L36.07 38.45L36.07 46.80L25.78 46.80C25.20 53.35 24.12 61.70 23.11 67.03L34.78 67.03C33.19 74.09 29.52 80.21 21.38 85.10C22.97 86.11 25.42 88.20 26.57 89.57C35.86 83.66 39.74 75.82 41.26 67.03L48.31 67.03L48.31 89.35L54.58 89.35L54.58 67.03L61.99 67.03C61.78 73.08 61.42 75.46 60.91 76.25C60.48 76.75 60.12 76.90 59.40 76.90C58.68 76.90 57.38 76.90 55.80 76.68C56.52 78.12 56.95 80.35 57.10 82.08C59.26 82.15 61.27 82.08 62.50 81.86C63.94 81.65 65.02 81.22 65.95 79.99C67.18 78.41 67.68 73.94 68.04 63.22C68.04 62.50 68.11 61.06 68.11 61.06Z"/></svg>
