<svg xmlns="http://www.w3.org/2000/svg" xmlns:xlink="http://www.w3.org/1999/xlink" width="72.00000000000001" height="106.56000000000002"><path fill="red" stroke="red" d="M27.29 53.71C24.77 54.36 22.25 55.08 19.80 55.80L19.80 43.49L27.22 43.49L27.22 37.15L19.80 37.15L19.80 23.11L13.10 23.11L13.10 37.15L3.74 37.15L3.74 43.49L13.10 43.49L13.10 57.60C9.29 58.61 5.83 59.47 2.95 60.19L4.82 67.03C7.42 66.31 10.15 65.52 13.10 64.66L13.10 81.22C13.10 82.30 12.74 82.58 11.74 82.66C10.87 82.66 7.78 82.66 4.61 82.58C5.47 84.31 6.48 87.12 6.70 88.85C11.59 88.85 14.76 88.63 16.99 87.55C19.01 86.54 19.80 84.74 19.80 81.29L19.80 62.78C22.54 61.92 25.34 61.13 28.08 60.34ZM58.25 48.96L58.25 62.50L39.10 62.50L39.10 48.96ZM39.10 79.63L39.10 68.69L64.80 68.69L64.80 42.77L39.10 42.77L39.10 33.62L67.82 33.62L67.82 27.14L28.15 27.14L28.15 33.62L32.47 33.62L32.47 79.63L28.51 79.63L28.51 86.18L68.83 86.18L68.83 79.63Z"/></svg>
