<svg xmlns="http://www.w3.org/2000/svg" xmlns:xlink="http://www.w3.org/1999/xlink" width="72.00000000000001" height="106.56000000000002"><path fill="red" stroke="red" d="M68.90 33.70C67.46 31.03 64.22 26.93 61.42 23.90L56.88 26.71C59.62 29.81 62.71 34.13 64.01 36.94ZM25.27 54.36L18.50 56.16L18.50 43.42L25.49 43.42L25.49 37.22L18.50 37.22L18.50 23.11L11.95 23.11L11.95 37.22L3.46 37.22L3.46 43.42L11.95 43.42L11.95 57.89C8.50 58.75 5.26 59.54 2.59 60.19L4.39 66.60C6.70 65.95 9.29 65.30 11.95 64.58L11.95 81.22C11.95 82.30 11.59 82.58 10.58 82.66C9.72 82.66 6.62 82.66 3.46 82.58C4.32 84.24 5.26 86.98 5.47 88.63C10.37 88.63 13.61 88.49 15.70 87.41C17.78 86.47 18.50 84.74 18.50 81.29L18.50 62.64C21.02 61.92 23.54 61.20 26.06 60.48ZM41.11 75.67L41.11 59.54L47.74 59.54L47.74 53.35L27.86 53.35L27.86 59.54L34.92 59.54L34.92 76.75C31.25 77.33 27.86 77.90 25.13 78.34L26.71 84.74C33.26 83.45 42.12 81.79 50.40 80.14L49.97 74.09ZM67.82 43.85L67.82 37.44L55.58 37.44C55.44 32.98 55.37 28.37 55.37 23.54L48.60 23.54C48.67 28.37 48.74 32.98 48.89 37.44L27.22 37.44L27.22 43.85L49.18 43.85C50.33 71.21 53.42 88.99 61.99 89.14C64.73 89.14 67.97 86.33 69.62 73.51C68.47 72.94 65.45 71.14 64.30 69.70C63.94 76.39 63.14 80.28 62.06 80.21C58.97 80.06 56.66 64.73 55.80 43.85Z"/></svg>
