<svg xmlns="http://www.w3.org/2000/svg" xmlns:xlink="http://www.w3.org/1999/xlink" width="72.00000000000001" height="106.56000000000002"><path fill="red" stroke="red" d="M24.98 54.50L18.14 56.38L18.14 43.34L24.91 43.34L24.91 37.15L18.14 37.15L18.14 23.18L11.74 23.18L11.74 37.15L3.96 37.15L3.96 43.34L11.74 43.34L11.74 58.18C8.35 59.04 5.18 59.83 2.66 60.41L4.10 66.89L11.74 64.73L11.74 81.58C11.74 82.51 11.45 82.73 10.66 82.73C9.94 82.80 7.63 82.80 5.33 82.73C6.19 84.38 6.91 87.26 7.13 88.85C11.23 88.85 13.90 88.70 15.77 87.55C17.57 86.62 18.14 84.82 18.14 81.58L18.14 62.78C20.66 62.06 23.33 61.34 25.85 60.55ZM39.31 43.56L38.30 43.70L26.42 43.70L26.42 49.39L36.14 49.39C33.84 59.40 29.09 66.67 22.75 70.85C23.98 71.64 26.35 73.94 27.29 75.17C34.92 69.77 40.68 59.69 43.06 44.71ZM24.41 87.70L68.26 87.70L68.26 81.50L24.41 81.50ZM63.22 41.18C61.13 43.85 57.82 47.16 54.79 49.90C53.50 46.87 52.49 43.70 51.77 40.46C56.95 37.22 62.21 32.98 65.95 28.94L61.70 25.70L60.41 26.06L30.82 26.06L30.82 31.90L54.14 31.90C51.19 34.34 47.52 36.86 44.21 38.45L44.21 72.22C44.21 73.08 43.92 73.30 43.06 73.30C42.26 73.30 39.46 73.37 36.65 73.22C37.51 74.88 38.45 77.47 38.66 79.13C42.91 79.13 45.79 78.98 47.88 77.98C49.90 77.04 50.47 75.38 50.47 72.29L50.47 52.63C53.86 61.92 58.75 69.77 65.16 74.59C66.17 72.86 68.11 70.56 69.55 69.41C64.44 66.24 60.19 61.06 57.02 54.79C60.48 52.13 64.58 48.60 68.04 45.29Z"/></svg>
