<svg xmlns="http://www.w3.org/2000/svg" xmlns:xlink="http://www.w3.org/1999/xlink" width="72.00000000000001" height="106.56000000000002"><path fill="red" stroke="red" d="M33.98 37.80L61.49 37.80L61.49 46.30L67.97 46.30L67.97 31.90L51.62 31.90C50.98 29.09 49.82 25.63 48.82 22.90L42.19 23.98C42.91 26.42 43.78 29.30 44.35 31.90L27.72 31.90L27.72 46.37L33.98 46.37ZM53.78 57.89C52.56 63.29 50.69 67.61 47.81 71.14C44.64 69.48 41.47 67.82 38.45 66.38C39.74 63.79 41.04 60.91 42.41 57.89ZM69.19 57.89L69.19 51.84L61.99 51.84C62.28 50.18 62.42 48.46 62.64 46.66L55.37 46.51C55.22 48.38 55.08 50.11 54.86 51.84L44.86 51.84C46.22 48.24 47.52 44.64 48.38 41.26L41.47 40.32C40.46 43.92 39.17 47.88 37.58 51.84L25.49 51.84L25.49 56.23L18.79 58.10L18.79 43.34L26.06 43.34L26.06 37.15L18.79 37.15L18.79 23.18L12.38 23.18L12.38 37.15L3.24 37.15L3.24 43.34L12.38 43.34L12.38 59.90C8.64 60.98 5.11 61.99 2.30 62.71L3.74 69.19L12.38 66.60L12.38 81.79C12.38 82.87 11.95 83.16 11.02 83.16C10.15 83.23 7.13 83.23 4.10 83.09C4.90 84.82 5.83 87.55 6.05 89.14C10.87 89.21 13.97 88.99 16.06 87.98C18.07 86.98 18.79 85.25 18.79 81.86L18.79 64.58C21.60 63.72 24.48 62.86 27.29 61.92L26.71 57.89L35.06 57.89C33.26 61.92 31.39 65.74 29.66 68.69C33.91 70.70 38.59 73.15 43.20 75.74C38.45 79.27 32.18 81.58 23.83 83.16C25.06 84.67 26.71 87.70 27.14 89.28C36.72 87.05 43.92 83.95 49.32 79.27C55.22 82.73 60.48 86.18 63.94 88.99L68.40 83.59C64.80 80.93 59.54 77.69 53.86 74.38C57.10 70.06 59.40 64.66 60.84 57.89Z"/></svg>
