<svg xmlns="http://www.w3.org/2000/svg" xmlns:xlink="http://www.w3.org/1999/xlink" width="72.00000000000001" height="106.56000000000002"><path fill="red" stroke="red" d="M33.26 46.30L23.18 46.30L23.18 51.70L48.89 51.70L48.89 46.30L39.24 46.30L39.24 37.66L47.59 37.66L47.59 32.26L39.24 32.26L39.24 23.11L33.26 23.11L33.26 32.26L24.84 32.26L24.84 37.66L33.26 37.66ZM24.62 59.26L23.69 53.14C21.60 53.78 19.44 54.43 17.35 55.08L17.35 43.27L23.54 43.27L23.54 37.08L17.35 37.08L17.35 23.11L11.38 23.11L11.38 37.08L3.24 37.08L3.24 43.27L11.38 43.27L11.38 56.81C7.92 57.82 4.68 58.75 2.09 59.40L3.67 65.81L11.38 63.43L11.38 81.94C11.38 82.87 11.02 83.16 10.08 83.16C9.29 83.23 6.62 83.23 3.74 83.09C4.61 84.89 5.33 87.62 5.54 89.21C10.01 89.21 12.96 88.99 14.83 88.06C16.70 86.98 17.35 85.18 17.35 81.94L17.35 61.56ZM39.17 68.54L48.24 68.54L48.24 63.14L39.17 63.14L39.17 53.93L33.12 53.93L33.12 63.14L23.98 63.14L23.98 68.54L33.12 68.54L33.12 78.05C28.44 78.70 24.12 79.20 20.66 79.63L21.67 85.39C29.38 84.38 39.82 82.80 49.68 81.22L49.46 75.82C46.01 76.32 42.55 76.82 39.17 77.26ZM57.10 23.11L50.83 23.11L50.83 89.14L57.10 89.14L57.10 53.14C60.48 56.45 64.44 60.55 66.46 63.00L70.20 57.24C68.26 55.44 60.26 48.60 57.10 46.22Z"/></svg>
