<svg xmlns="http://www.w3.org/2000/svg" xmlns:xlink="http://www.w3.org/1999/xlink" width="72.00000000000001" height="106.56000000000002"><path fill="red" stroke="red" d="M23.26 51.98L18.22 54.07L18.22 43.34L25.27 43.34L25.27 37.15L18.22 37.15L18.22 23.18L11.95 23.18L11.95 37.15L3.38 37.15L3.38 43.34L11.95 43.34L11.95 56.81C8.50 58.25 5.33 59.54 2.81 60.41L4.68 66.74C6.91 65.81 9.43 64.73 11.95 63.58L11.95 82.08C11.95 83.02 11.59 83.38 10.66 83.38C9.79 83.38 6.98 83.38 4.10 83.30C4.90 84.96 5.76 87.62 5.98 89.14C10.58 89.21 13.54 88.99 15.55 87.98C17.57 87.05 18.22 85.32 18.22 82.08L18.22 60.84C20.38 59.98 22.61 58.97 24.70 57.96ZM46.22 78.55C52.13 81.29 59.47 85.82 63.36 89.06L66.96 84.74C63.00 81.72 55.73 77.33 49.75 74.59ZM38.02 58.61C39.02 57.17 40.03 55.73 40.90 54.14L49.97 54.14C50.83 55.66 51.77 57.17 52.92 58.61ZM68.33 54.14L68.33 48.67L43.63 48.67C44.21 47.30 44.71 45.79 45.22 44.35L64.80 44.35L64.80 39.10L46.80 39.10C47.09 37.73 47.45 36.36 47.74 34.92L66.89 34.92L66.89 29.45L48.67 29.45C48.96 27.58 49.25 25.63 49.46 23.62L43.13 23.04C42.91 25.20 42.62 27.43 42.34 29.45L27.00 29.45L27.00 34.92L41.33 34.92C41.11 36.36 40.75 37.73 40.39 39.10L28.87 39.10L28.87 44.35L38.66 44.35C38.09 45.86 37.51 47.30 36.79 48.67L24.98 48.67L24.98 54.14L33.48 54.14C30.60 58.10 27.00 61.34 22.46 63.86C23.69 65.09 26.06 67.61 26.93 68.90C30.53 66.53 33.62 63.94 36.22 60.84L36.22 63.94L43.27 63.94C42.98 65.74 42.62 67.39 42.12 68.98L29.81 68.98L29.81 74.30L39.82 74.30C37.08 78.70 32.40 82.08 24.19 84.38C25.42 85.46 27.00 87.70 27.58 89.06C38.09 85.90 43.56 80.86 46.51 74.30L61.99 74.30L61.99 68.98L48.38 68.98C48.74 67.32 49.10 65.74 49.32 63.94L55.22 63.94L55.22 61.13C58.32 64.37 61.99 67.10 65.81 68.83C66.82 67.25 68.69 65.02 70.06 63.86C64.94 61.99 59.98 58.32 56.81 54.14Z"/></svg>
