<svg xmlns="http://www.w3.org/2000/svg" xmlns:xlink="http://www.w3.org/1999/xlink" width="72.00000000000001" height="106.56000000000002"><path fill="red" stroke="red" d="M31.39 70.78C36.79 69.62 42.05 68.18 46.94 66.17C51.19 68.11 56.02 69.62 61.13 70.78ZM35.50 81.65L35.50 75.82L55.94 75.82L55.94 81.65ZM55.15 55.30C52.92 57.24 50.11 58.97 46.94 60.48C43.42 58.90 40.46 57.17 38.09 55.30ZM33.12 38.16L42.91 38.16L42.91 42.84L33.12 42.84ZM33.12 29.52L42.91 29.52L42.91 34.13L33.12 34.13ZM59.11 34.13L48.53 34.13L48.53 29.52L59.11 29.52ZM59.11 42.84L48.53 42.84L48.53 38.16L59.11 38.16ZM60.84 50.47L59.76 50.69L39.60 50.69C40.46 49.54 41.26 48.31 41.83 47.09L64.94 47.09L64.94 25.27L27.43 25.27L27.43 47.09L35.06 47.09C33.05 50.40 29.74 54.07 25.13 57.02L24.62 53.35C22.39 54.07 20.23 54.72 18.00 55.37L18.00 43.34L24.55 43.34L24.55 37.15L18.00 37.15L18.00 23.18L11.66 23.18L11.66 37.15L3.24 37.15L3.24 43.34L11.66 43.34L11.66 57.24C8.35 58.25 5.26 59.11 2.81 59.69L4.32 66.17L11.66 63.86L11.66 81.65C11.66 82.58 11.30 82.87 10.44 82.87C9.65 82.94 6.91 82.94 4.18 82.87C5.04 84.67 5.83 87.48 6.05 89.21C10.58 89.21 13.46 88.99 15.41 87.91C17.35 86.83 18.00 85.03 18.00 81.65L18.00 61.92C20.30 61.13 22.75 60.41 25.13 59.62C25.99 60.55 26.93 61.63 27.43 62.50C29.74 60.98 31.68 59.47 33.55 57.82C35.42 59.54 37.80 61.34 40.54 63.00C34.99 64.73 28.80 65.95 22.46 66.67C23.54 67.82 25.20 70.34 25.78 71.78C27.00 71.57 28.22 71.35 29.45 71.14L29.45 89.35L35.50 89.35L35.50 86.47L55.94 86.47L55.94 89.28L62.21 89.28L62.21 70.99C63.50 71.28 64.73 71.50 66.02 71.71C66.89 70.06 68.40 67.61 69.62 66.24C63.79 65.59 58.32 64.51 53.57 62.93C58.03 60.34 61.85 57.02 64.58 52.99Z"/></svg>
