<svg xmlns="http://www.w3.org/2000/svg" xmlns:xlink="http://www.w3.org/1999/xlink" width="72.00000000000001" height="106.56000000000002"><path fill="red" stroke="red" d="M68.33 30.60L48.02 30.60C47.16 28.44 45.72 25.63 44.21 23.54L39.46 25.34C40.39 26.93 41.40 28.80 42.12 30.60L22.75 30.60L22.75 36.36L68.33 36.36ZM21.17 54.07L16.34 55.73L16.34 43.34L21.67 43.34L21.67 37.15L16.34 37.15L16.34 23.18L10.58 23.18L10.58 37.15L3.60 37.15L3.60 43.34L10.58 43.34L10.58 57.74C7.63 58.75 4.97 59.69 2.74 60.41L4.46 66.82L10.58 64.58L10.58 81.65C10.58 82.58 10.22 82.80 9.36 82.80C8.64 82.87 6.12 82.87 3.46 82.73C4.25 84.38 5.04 87.05 5.26 88.63C9.43 88.63 12.10 88.42 13.97 87.41C15.70 86.40 16.34 84.74 16.34 81.58L16.34 62.28C18.36 61.56 20.30 60.84 22.25 60.05ZM30.53 64.94C33.84 59.69 36.94 53.64 39.46 47.81L34.56 45.07C34.06 46.58 33.48 48.17 32.83 49.61L28.15 49.97C30.10 46.66 31.97 42.70 33.26 39.02L28.01 36.65C26.86 41.83 24.19 47.38 23.33 48.82C22.61 50.33 21.74 51.26 20.81 51.48C21.46 52.92 22.39 55.51 22.75 56.74C23.62 56.23 25.06 55.87 30.24 55.22C28.15 59.40 26.21 62.71 25.34 64.01C23.83 66.31 22.68 67.82 21.31 68.18C21.96 69.55 22.75 72.07 23.04 73.22C24.12 72.43 25.78 71.78 33.62 69.62C30.74 76.18 26.14 81.29 19.80 84.74C20.95 85.61 22.75 87.62 23.47 88.78C33.12 83.23 38.74 73.87 41.11 61.42L36.29 60.48C36.07 61.56 35.86 62.64 35.64 63.72ZM47.38 72.43L54.22 72.43L54.22 79.63L47.38 79.63ZM54.22 56.81L47.38 56.81L47.38 50.54L54.22 50.54ZM54.22 67.75L47.38 67.75L47.38 61.49L54.22 61.49ZM68.40 79.63L59.47 79.63L59.47 72.43L66.24 72.43L66.24 67.75L59.47 67.75L59.47 61.49L66.60 61.49L66.60 56.81L59.47 56.81L59.47 50.54L67.75 50.54L67.75 45.36L61.27 45.36C60.48 43.13 59.04 40.10 57.67 37.87L53.14 39.53C54.14 41.26 55.15 43.42 55.87 45.36L48.74 45.36C49.61 43.27 50.40 40.97 51.05 38.81L45.86 37.51C43.85 44.35 40.61 51.34 36.72 55.87C37.94 56.74 40.10 58.61 40.97 59.47C41.33 59.11 41.69 58.61 42.05 58.10L42.05 88.34L47.38 88.34L47.38 84.82L68.40 84.82Z"/></svg>
