<svg xmlns="http://www.w3.org/2000/svg" xmlns:xlink="http://www.w3.org/1999/xlink" width="72.00000000000001" height="106.56000000000002"><path fill="red" stroke="red" d="M38.30 31.68C37.01 29.23 33.84 25.92 31.18 23.62L26.57 26.35C29.23 28.87 32.18 32.47 33.48 34.85ZM38.81 69.98C36.22 67.10 31.18 62.93 26.71 59.69C30.17 56.23 34.34 51.34 37.51 46.87L31.75 44.50C30.02 47.23 27.43 50.69 24.91 53.71L24.91 41.47L38.66 41.47L38.66 35.28L24.91 35.28L24.91 23.04L18.36 23.04L18.36 35.28L3.60 35.28L3.60 41.47L18.36 41.47L18.36 60.77C12.60 65.23 6.62 69.62 2.59 72.36L5.76 77.69C9.50 74.95 13.97 71.50 18.36 68.11L18.36 81.58C18.36 82.66 17.93 83.02 16.85 83.09C15.91 83.09 12.60 83.09 9.29 83.02C10.08 84.60 11.02 87.26 11.23 88.85C16.49 88.85 19.80 88.70 21.89 87.70C24.05 86.76 24.91 85.03 24.91 81.58L24.91 65.74C28.58 68.69 32.18 72.00 34.13 74.38ZM5.11 47.88C7.92 51.62 10.94 56.74 12.17 59.98L17.42 57.31C16.20 54.07 12.96 49.18 10.01 45.50ZM58.54 42.91C57.53 50.62 55.80 57.46 53.28 63.29C50.83 57.82 48.89 51.77 47.52 45.29C47.81 44.57 48.02 43.70 48.24 42.91ZM68.98 42.91L68.98 36.65L49.97 36.65C50.98 32.62 51.70 28.44 52.34 24.12L45.72 23.11C44.06 35.93 40.82 48.02 35.06 55.51C36.50 56.52 39.17 59.11 40.18 60.34C41.47 58.54 42.77 56.38 43.92 54.14C45.43 59.90 47.30 65.38 49.61 70.27C45.58 76.39 40.18 81.00 32.83 83.74C34.56 85.10 36.79 87.55 37.73 89.28C44.21 86.47 49.18 82.22 53.14 76.90C56.30 81.86 60.05 86.04 64.66 89.14C65.66 87.26 67.97 84.53 69.48 83.23C64.51 80.28 60.41 75.89 57.02 70.42C60.91 62.78 63.29 53.42 64.66 42.91Z"/></svg>
