<svg xmlns="http://www.w3.org/2000/svg" xmlns:xlink="http://www.w3.org/1999/xlink" width="72.00000000000001" height="106.56000000000002"><path fill="red" stroke="red" d="M39.96 30.82L26.71 30.82C25.92 28.51 24.55 25.49 23.18 23.04L16.92 24.55C17.86 26.42 18.86 28.80 19.66 30.82L3.38 30.82L3.38 36.22L39.96 36.22ZM14.26 43.99L28.30 43.99L28.30 49.68L14.26 49.68ZM34.34 54.29L34.34 39.38L8.42 39.38L8.42 54.29ZM24.34 69.48L24.34 76.32L18.14 76.32L18.14 69.48ZM28.66 80.06L28.66 65.81L14.11 65.81L14.11 83.59L18.14 83.59L18.14 80.06ZM59.98 53.42C58.61 59.18 56.30 64.30 53.57 68.76C50.69 64.15 48.46 58.97 46.87 53.42ZM63.22 47.16L62.21 47.45L54.36 47.45L54.36 38.81L68.26 38.81L68.26 32.83L54.36 32.83L54.36 23.18L47.88 23.18L47.88 47.45L37.94 47.45L37.94 53.42L42.19 53.42L41.11 53.71C43.20 61.20 46.08 68.04 49.82 74.02C46.30 78.19 42.19 81.36 37.66 83.52L37.66 83.23L37.66 57.53L5.18 57.53L5.18 89.14L10.73 89.14L10.73 62.42L32.04 62.42L32.04 83.09C32.04 83.95 31.75 84.17 30.89 84.17C30.10 84.24 27.07 84.24 24.19 84.17C24.91 85.54 25.70 87.48 25.92 88.92C30.31 88.99 33.26 88.92 35.21 88.13C36.86 87.41 37.51 86.33 37.66 84.17C38.95 85.54 40.32 87.62 41.11 89.14C45.79 86.62 49.97 83.45 53.64 79.34C56.95 83.38 60.84 86.76 65.30 89.28C66.31 87.55 68.26 85.25 69.70 83.95C65.02 81.72 60.98 78.34 57.53 74.30C62.14 67.54 65.52 58.90 67.25 48.46Z"/></svg>
