<svg xmlns="http://www.w3.org/2000/svg" xmlns:xlink="http://www.w3.org/1999/xlink" width="72.00000000000001" height="106.56000000000002"><path fill="red" stroke="red" d="M20.45 34.34L20.45 48.74L11.81 48.74L11.81 34.34ZM11.81 69.55L11.81 54.58L20.45 54.58L20.45 69.55ZM26.64 75.60L26.64 28.37L5.62 28.37L5.62 81.07L11.81 81.07L11.81 75.60ZM51.48 79.78L51.48 58.90L66.24 58.90L66.24 52.49L51.48 52.49L51.48 34.20L67.90 34.20L67.90 27.79L29.38 27.79L29.38 34.20L44.78 34.20L44.78 52.49L30.89 52.49L30.89 58.90L44.78 58.90L44.78 79.78L25.99 79.78L25.99 86.18L68.98 86.18L68.98 79.78Z"/></svg>
