<svg xmlns="http://www.w3.org/2000/svg" xmlns:xlink="http://www.w3.org/1999/xlink" width="72.00000000000001" height="106.56000000000002"><path fill="red" stroke="red" d="M50.90 62.71L50.90 69.05L21.10 69.05L21.10 62.71ZM21.10 81.00L21.10 74.30L50.90 74.30L50.90 81.00ZM14.33 89.14L21.10 89.14L21.10 86.69L50.90 86.69L50.90 89.14L57.96 89.14L57.96 57.02L14.33 57.02ZM27.50 37.51L44.42 37.51L44.42 45.50L27.50 45.50ZM51.41 45.50L51.41 37.51L64.37 37.51L64.37 31.39L51.41 31.39L51.41 23.11L44.42 23.11L44.42 31.39L27.50 31.39L27.50 23.11L20.59 23.11L20.59 31.39L8.21 31.39L8.21 37.51L20.59 37.51L20.59 45.50L4.39 45.50L4.39 51.70L67.75 51.70L67.75 45.50Z"/></svg>
