<svg xmlns="http://www.w3.org/2000/svg" xmlns:xlink="http://www.w3.org/1999/xlink" width="72.00000000000001" height="106.56000000000002"><path fill="red" stroke="red" d="M11.52 46.30L11.52 43.27L17.78 43.27L17.78 46.30ZM11.52 37.15L17.78 37.15L17.78 40.25L11.52 40.25ZM29.95 37.15L29.95 40.25L23.62 40.25L23.62 37.15ZM29.95 46.30L23.62 46.30L23.62 43.27L29.95 43.27ZM17.78 60.62L23.62 60.62L23.62 56.30L36.07 56.30L36.07 52.27L23.62 52.27L23.62 49.46L35.21 49.46L35.21 33.98L23.62 33.98L23.62 31.54L36.86 31.54L36.86 27.36L23.62 27.36L23.62 23.04L17.78 23.04L17.78 27.36L4.54 27.36L4.54 31.54L17.78 31.54L17.78 33.98L6.41 33.98L6.41 49.46L17.78 49.46L17.78 52.27L3.74 52.27L3.74 56.30L17.78 56.30ZM51.55 67.32L51.55 72.07L20.30 72.07L20.30 67.32ZM20.30 81.65L20.30 76.75L51.55 76.75L51.55 81.65ZM13.75 89.28L20.30 89.28L20.30 86.90L51.55 86.90L51.55 89.14L58.39 89.14L58.39 62.14L13.75 62.14ZM68.33 38.88L46.44 38.88L46.44 38.45L46.44 31.90C53.50 31.25 61.13 30.10 66.67 28.51L63.58 23.76C57.96 25.63 48.46 26.93 40.54 27.65L40.54 38.30C40.54 44.21 40.03 51.98 35.42 57.67C36.86 58.39 39.46 60.12 40.61 61.06C44.28 56.52 45.65 50.04 46.22 44.21L54.36 44.21L54.36 60.77L60.34 60.77L60.34 44.21L68.33 44.21Z"/></svg>
