<svg xmlns="http://www.w3.org/2000/svg" xmlns:xlink="http://www.w3.org/1999/xlink" width="72.00000000000001" height="106.56000000000002"><path fill="red" stroke="red" d="M30.38 76.46C22.61 78.84 14.62 81.36 9.36 82.80L12.17 87.77C17.57 85.97 24.55 83.52 31.10 81.14ZM28.94 75.10C27.86 73.51 25.78 71.21 23.90 69.70L19.08 72.14C20.81 73.87 22.90 76.25 23.76 77.90ZM38.95 80.50L38.95 67.39L32.76 67.39L32.76 83.30C32.76 84.02 32.47 84.24 31.54 84.31C30.67 84.38 27.50 84.38 24.41 84.24C25.13 85.75 25.99 87.77 26.21 89.35C30.89 89.35 34.13 89.35 36.22 88.56C38.38 87.70 38.95 86.33 38.95 83.45L38.95 80.86C45.50 82.73 53.86 85.82 58.54 87.91L61.56 83.52C56.81 81.58 48.38 78.62 41.76 76.75ZM48.46 69.12C47.30 70.99 45.00 73.73 43.42 75.38L47.95 77.83C49.68 76.32 51.91 74.16 54.00 71.78ZM28.01 55.58L43.85 55.58L43.85 60.12L28.01 60.12ZM28.01 46.44L43.85 46.44L43.85 50.40L28.01 50.40ZM18.43 38.09L53.57 38.09L53.57 41.90L18.43 41.90ZM18.43 30.10L53.57 30.10L53.57 33.77L18.43 33.77ZM67.54 65.45L67.54 60.12L50.40 60.12L50.40 55.58L64.08 55.58L64.08 50.40L50.40 50.40L50.40 46.44L60.26 46.44L60.26 25.56L11.95 25.56L11.95 46.44L21.53 46.44L21.53 50.40L8.14 50.40L8.14 55.58L21.53 55.58L21.53 60.12L4.68 60.12L4.68 65.45L19.01 65.45C14.47 68.54 8.42 71.14 2.95 72.58C4.18 73.73 5.90 75.89 6.77 77.33C13.90 74.95 21.89 70.49 27.00 65.45L45.65 65.45C50.83 70.13 58.68 74.52 65.59 76.61C66.38 75.17 68.18 73.01 69.41 71.93C64.15 70.63 58.25 68.18 53.71 65.45Z"/></svg>
