<svg xmlns="http://www.w3.org/2000/svg" xmlns:xlink="http://www.w3.org/1999/xlink" width="72.00000000000001" height="106.56000000000002"><path fill="red" stroke="red" d="M29.88 67.61L29.88 69.62L35.50 69.62L35.50 48.60L29.88 48.60L29.88 61.70L23.33 61.70C23.40 59.98 23.47 58.32 23.47 56.66L23.47 42.26L37.22 42.26L37.22 36.36L29.09 36.36C31.03 33.12 33.05 29.09 34.85 25.42L28.30 23.76C27.00 27.50 24.70 32.69 22.54 36.36L14.76 36.36L19.01 33.70C17.64 30.82 14.69 26.78 11.81 23.90L6.91 26.57C9.65 29.45 12.31 33.41 13.68 36.36L3.53 36.36L3.53 42.26L17.28 42.26L17.28 56.59C17.28 58.25 17.21 59.90 17.06 61.70L11.16 61.70L11.16 47.95L5.54 47.95L5.54 67.61L16.20 67.61C14.90 74.02 11.66 80.57 4.46 85.46C6.05 86.33 8.57 88.06 9.72 89.14C17.78 83.45 21.24 75.46 22.61 67.61ZM46.22 59.18C46.51 55.94 46.58 52.85 46.58 50.04L46.58 48.96L59.33 48.96L59.33 59.18ZM59.33 32.98L59.33 43.06L46.58 43.06L46.58 32.98ZM65.88 26.93L40.18 26.93L40.18 50.04C40.18 61.13 39.24 75.82 29.52 85.82C31.10 86.54 33.77 88.27 34.85 89.42C41.26 82.87 44.21 73.94 45.50 65.23L59.33 65.23L59.33 80.86C59.33 82.01 58.97 82.37 57.89 82.44C56.81 82.44 53.14 82.51 49.61 82.37C50.47 84.02 51.34 87.05 51.55 88.78C57.10 88.78 60.62 88.63 62.86 87.55C65.16 86.47 65.88 84.53 65.88 81.00Z"/></svg>
