<svg xmlns="http://www.w3.org/2000/svg" xmlns:xlink="http://www.w3.org/1999/xlink" width="72.00000000000001" height="106.56000000000002"><path fill="red" stroke="red" d="M19.30 42.91L26.35 42.91L26.35 36.72L19.30 36.72L19.30 23.11L13.03 23.11L13.03 36.72L4.25 36.72L4.25 42.91L13.03 42.91L13.03 43.06C11.09 52.27 7.13 63.00 2.95 68.69C3.96 70.42 5.54 73.37 6.19 75.17C8.64 71.35 11.09 65.66 13.03 59.40L13.03 89.14L19.30 89.14L19.30 53.21C21.38 57.02 23.76 61.34 24.77 63.79L28.51 59.26C27.22 57.17 21.53 48.60 19.30 45.72ZM60.84 70.63C58.82 65.88 54.65 58.32 51.05 52.13C51.19 50.76 51.26 49.68 51.26 48.96L51.26 47.52L60.84 47.52ZM68.11 33.05L68.11 26.78L28.30 26.78L28.30 33.05L45.22 33.05L45.22 41.47L29.81 41.47L29.81 89.35L36.07 89.35L36.07 47.52L45.36 47.52L45.36 48.89C45.36 53.42 44.14 63.50 36.14 70.63C37.58 71.57 39.74 73.44 40.75 74.59C45.22 70.34 47.81 64.87 49.39 59.98C51.98 65.02 54.50 70.20 55.94 73.80L60.84 70.78L60.84 81.79C60.84 82.80 60.48 83.09 59.47 83.09C58.46 83.16 54.94 83.16 51.55 83.02C52.34 84.74 53.14 87.55 53.35 89.28C58.46 89.28 62.06 89.21 64.30 88.20C66.53 87.19 67.18 85.32 67.18 81.86L67.18 41.47L51.62 41.47L51.62 33.05Z"/></svg>
