<svg xmlns="http://www.w3.org/2000/svg" xmlns:xlink="http://www.w3.org/1999/xlink" width="72.00000000000001" height="106.56000000000002"><path fill="red" stroke="red" d="M25.20 58.54C24.19 56.74 19.15 48.82 17.21 46.15L17.21 43.99L23.69 43.99L23.69 37.94L17.21 37.94L17.21 23.18L11.52 23.18L11.52 37.94L4.18 37.94L4.18 43.99L11.38 43.99C9.72 53.35 6.19 64.30 2.45 70.49C3.46 72.00 4.97 74.52 5.69 76.25C7.85 72.65 9.79 67.61 11.52 61.99L11.52 89.14L17.21 89.14L17.21 54.50C19.01 57.82 20.88 61.63 21.82 64.01ZM32.33 34.99C36.72 33.05 42.05 30.24 46.22 27.43L41.11 23.40C37.44 26.21 31.18 30.02 26.71 32.11L26.71 65.59C26.71 68.69 25.06 70.06 23.90 70.78C24.70 71.86 25.99 74.02 26.35 75.31L26.35 75.38C27.36 74.59 28.94 73.80 36.58 71.42C34.70 76.61 31.39 81.50 25.20 84.96C26.57 85.90 28.22 87.91 29.02 89.06C42.62 80.93 44.06 67.18 44.06 56.23L44.06 35.64L38.59 35.64L38.59 56.23C38.59 59.11 38.52 62.42 37.94 65.74L32.33 67.32ZM66.60 29.95L48.60 29.95L48.60 89.21L54.36 89.21L54.36 35.57L60.84 35.57L60.84 69.91C60.84 70.70 60.55 70.92 59.90 70.99C59.26 70.99 57.24 70.99 54.94 70.92C55.73 72.43 56.45 75.02 56.66 76.61C60.41 76.61 62.78 76.46 64.51 75.38C66.17 74.45 66.60 72.72 66.60 70.06Z"/></svg>
