<svg xmlns="http://www.w3.org/2000/svg" xmlns:xlink="http://www.w3.org/1999/xlink" width="72.00000000000001" height="106.56000000000002"><path fill="red" stroke="red" d="M33.34 37.73L61.06 37.73L61.06 45.65L67.61 45.65L67.61 31.82L51.34 31.82C50.47 29.23 48.96 25.70 47.66 22.90L40.97 24.41C41.98 26.64 43.06 29.45 43.85 31.82L27.07 31.82L27.07 45.65L33.34 45.65ZM26.64 59.33C25.49 57.31 20.59 49.61 18.58 46.80L18.58 42.91L25.42 42.91L25.42 36.72L18.58 36.72L18.58 23.18L12.67 23.18L12.67 36.72L3.46 36.72L3.46 42.91L12.24 42.91C10.37 51.84 6.48 62.71 2.45 68.47C3.53 70.27 5.11 73.37 5.76 75.31C8.28 71.14 10.73 65.02 12.67 58.46L12.67 89.14L18.58 89.14L18.58 55.44C20.23 58.75 21.74 62.35 22.54 64.51ZM54.14 57.96C52.78 63.22 50.83 67.54 48.02 70.99C45.00 69.41 41.90 67.82 38.95 66.38C40.18 63.79 41.54 60.91 42.70 57.96ZM69.12 57.96L69.12 51.84L62.57 51.84C62.71 50.33 62.93 48.82 63.14 47.30L55.94 46.94C55.80 48.60 55.58 50.33 55.37 51.84L45.22 51.84C46.58 48.31 47.81 44.71 48.82 41.33L41.98 40.39C40.97 43.99 39.60 47.88 38.09 51.84L25.99 51.84L25.99 57.96L35.50 57.96C33.77 61.99 31.82 65.74 30.17 68.69C34.34 70.56 38.81 73.01 43.27 75.46C38.52 79.13 31.97 81.50 23.54 83.16C24.62 84.67 26.35 87.77 26.78 89.42C36.58 87.12 43.99 83.88 49.46 79.13C55.30 82.58 60.41 86.18 63.79 89.14L68.33 83.88C64.80 80.93 59.62 77.62 53.93 74.30C57.31 70.06 59.69 64.58 61.34 57.96Z"/></svg>
