<svg xmlns="http://www.w3.org/2000/svg" xmlns:xlink="http://www.w3.org/1999/xlink" width="72.00000000000001" height="106.56000000000002"><path fill="red" stroke="red" d="M57.74 40.61C54.36 39.24 50.04 37.80 45.22 36.43C50.11 34.13 54.29 31.25 57.31 27.65L53.35 25.13L52.27 25.34L13.82 25.34L13.82 30.31L46.08 30.31C43.63 31.82 40.75 33.19 37.51 34.42C31.75 32.98 25.70 31.75 19.80 30.74L16.42 34.56C20.52 35.21 24.70 36.07 28.73 37.08C23.04 38.38 16.92 39.38 11.09 39.96C12.10 41.11 13.25 43.20 13.75 44.57C21.89 43.56 30.46 41.98 37.94 39.38C44.06 41.04 49.39 42.91 53.50 44.64ZM32.11 59.33C30.46 58.25 28.30 57.24 25.92 56.09C29.23 53.42 31.97 50.18 33.91 46.30L30.31 44.57L29.23 44.78L5.98 44.78L5.98 49.61L25.34 49.61C23.90 51.19 22.25 52.56 20.38 53.78C17.06 52.49 13.46 51.26 10.08 50.33L7.13 54.22C9.72 54.94 12.38 55.87 14.90 56.88C11.38 58.46 7.56 59.69 3.74 60.48C4.75 61.56 6.12 63.72 6.77 65.02C11.81 63.79 16.70 61.99 20.95 59.47C23.83 60.84 26.35 62.21 28.30 63.50ZM24.34 72.50C19.73 77.26 10.73 81.36 2.59 83.23C4.03 84.46 6.05 87.12 6.98 88.78C15.55 86.26 24.62 80.86 29.88 74.66ZM67.75 72.00L67.75 66.38L39.31 66.38L39.31 63.29C43.56 62.28 47.66 61.06 51.41 59.26C55.94 61.13 60.12 63.07 63.14 64.80L67.10 60.70C64.44 59.18 60.91 57.67 57.02 56.16C60.84 53.64 63.94 50.40 66.02 46.44L62.14 44.57L60.98 44.78L36.65 44.78L36.65 49.61L56.74 49.61C55.08 51.26 53.06 52.63 50.83 53.86C47.38 52.70 43.92 51.62 40.46 50.76L37.44 54.65C39.74 55.22 41.98 55.94 44.28 56.74C41.11 57.82 37.87 58.54 34.56 59.11C35.14 59.69 35.78 60.48 36.36 61.34L32.54 61.34L32.54 66.38L4.39 66.38L4.39 72.00L32.54 72.00L32.54 89.14L39.31 89.14L39.31 72.00ZM42.98 76.03C50.11 79.70 59.26 85.32 63.65 89.06L68.69 84.60C63.94 80.93 54.65 75.60 47.66 72.14Z"/></svg>
