<svg xmlns="http://www.w3.org/2000/svg" xmlns:xlink="http://www.w3.org/1999/xlink" width="72.00000000000001" height="106.56000000000002"><path fill="red" stroke="red" d="M67.97 26.86L29.02 26.86L29.02 32.98L67.97 32.98ZM38.30 59.04L58.03 59.04L58.03 67.68L38.30 67.68ZM38.30 45.07L58.03 45.07L58.03 53.64L38.30 53.64ZM64.80 73.58L64.80 39.24L31.82 39.24L31.82 73.58ZM28.15 58.54C26.93 56.52 21.67 48.31 19.73 45.65L19.73 42.91L27.07 42.91L27.07 36.72L19.73 36.72L19.73 23.18L13.54 23.18L13.54 36.72L3.60 36.72L3.60 42.91L12.96 42.91C10.87 52.20 6.62 63.00 2.09 68.69C3.24 70.49 4.75 73.44 5.47 75.31C8.42 71.06 11.30 64.30 13.54 57.24L13.54 89.14L19.73 89.14L19.73 54.07C21.46 57.38 23.18 60.91 24.05 63.22ZM26.64 79.70L26.64 85.90L68.69 85.90L68.69 79.70Z"/></svg>
