<svg xmlns="http://www.w3.org/2000/svg" xmlns:xlink="http://www.w3.org/1999/xlink" width="72.00000000000001" height="106.56000000000002"><path fill="red" stroke="red" d="M29.02 62.21C27.65 60.19 21.96 51.70 19.87 49.03L19.87 44.35L28.15 44.35L28.15 38.16L19.87 38.16L19.87 23.11L13.61 23.11L13.61 38.16L3.89 38.16L3.89 44.35L13.03 44.35C10.87 53.57 6.62 64.22 2.23 70.20C3.24 71.71 4.82 74.30 5.47 76.18C8.50 71.93 11.38 65.38 13.61 58.46L13.61 89.14L19.87 89.14L19.87 57.17C21.96 60.70 24.19 64.80 25.27 67.18ZM36.65 56.23L44.86 56.23L44.86 61.34L36.65 61.34ZM36.65 46.51L44.86 46.51L44.86 51.62L36.65 51.62ZM59.98 46.51L59.98 51.62L51.48 51.62L51.48 46.51ZM59.98 61.34L51.48 61.34L51.48 56.23L59.98 56.23ZM66.17 66.24L66.17 41.69L51.48 41.69L51.48 36.65L67.97 36.65L67.97 30.96L51.48 30.96L51.48 23.11L44.86 23.11L44.86 30.96L28.51 30.96L28.51 36.65L44.86 36.65L44.86 41.69L30.67 41.69L30.67 66.24L41.83 66.24C37.66 72.36 30.67 78.26 24.19 81.29C25.70 82.51 27.65 84.89 28.73 86.54C34.49 83.23 40.46 77.69 44.86 71.57L44.86 89.14L51.48 89.14L51.48 70.56C55.51 76.46 60.91 82.37 65.45 85.90C66.53 84.31 68.69 81.94 70.13 80.78C64.94 77.69 58.68 71.86 54.65 66.24Z"/></svg>
