<svg xmlns="http://www.w3.org/2000/svg" xmlns:xlink="http://www.w3.org/1999/xlink" width="72.00000000000001" height="106.56000000000002"><path fill="red" stroke="red" d="M26.57 58.39C25.49 56.38 20.74 48.74 18.79 45.94L18.79 42.91L25.78 42.91L25.78 36.72L18.79 36.72L18.79 23.18L12.82 23.18L12.82 36.72L4.03 36.72L4.03 42.91L12.67 42.91C10.66 52.27 6.62 63.07 2.30 68.76C3.38 70.42 4.90 73.51 5.47 75.38C8.14 71.28 10.73 65.02 12.82 58.18L12.82 89.21L18.79 89.21L18.79 53.93C20.45 57.31 22.10 60.98 22.90 63.22ZM69.05 76.46C68.18 73.80 66.24 69.26 64.44 65.88L61.27 67.18C62.06 68.76 62.86 70.70 63.65 72.50L57.31 73.08C59.04 70.20 60.77 66.46 61.99 62.78L57.74 61.49C56.88 65.81 54.65 70.42 53.93 71.57C53.35 72.65 52.63 73.51 51.91 73.66C52.42 74.74 53.06 76.82 53.35 77.76C54.29 77.33 55.87 77.04 65.02 75.89C65.30 76.68 65.52 77.47 65.74 78.12ZM34.06 47.66L44.06 47.66L44.06 54.58L34.06 54.58ZM34.06 35.71L44.06 35.71L44.06 42.48L34.06 42.48ZM59.90 42.48L49.97 42.48L49.97 35.71L59.90 35.71ZM59.90 54.58L49.97 54.58L49.97 47.66L59.90 47.66ZM54.65 82.94C52.27 82.94 51.84 82.66 51.84 80.57L51.84 59.98L66.02 59.98L66.02 30.31L41.04 30.31C41.98 28.44 42.91 26.21 43.85 24.05L36.65 23.04C36.22 25.13 35.50 27.94 34.56 30.31L28.15 30.31L28.15 59.98L36.07 59.98C35.21 70.85 33.12 79.63 23.18 84.31C24.48 85.46 26.35 87.77 27.07 89.35C38.45 83.45 41.11 73.08 42.12 59.98L46.15 59.98L46.15 80.64C46.15 86.69 47.66 88.34 54.00 88.34L63.29 88.34C67.97 88.34 69.70 86.54 70.27 79.99C68.69 79.63 66.38 78.70 65.16 77.76C64.94 82.15 64.51 82.94 62.78 82.94Z"/></svg>
