<svg xmlns="http://www.w3.org/2000/svg" xmlns:xlink="http://www.w3.org/1999/xlink" width="72.00000000000001" height="106.56000000000002"><path fill="red" stroke="red" d="M58.82 84.02C57.31 84.02 57.10 83.74 57.10 82.01L57.10 76.97L69.19 74.66L68.18 70.56L57.10 72.58L57.10 69.05L67.18 67.10L66.10 62.78L57.10 64.58L57.10 61.06C60.41 60.12 63.58 59.04 66.24 57.89L61.70 54.29C64.94 53.71 66.10 51.84 66.60 47.09C64.94 46.73 62.57 45.94 61.34 45.22C61.06 48.96 60.55 49.61 58.39 49.61L48.46 49.61C45.50 49.61 45.00 49.32 45.00 47.30L45.00 45.65L65.88 42.62L65.02 38.30L45.00 41.18L45.00 37.87L61.70 35.42L60.91 31.18L45.00 33.48L45.00 30.17C50.18 29.30 55.08 28.22 59.11 27.00L55.08 23.18C48.60 25.27 37.22 27.22 27.29 28.30C27.86 29.45 28.58 31.25 28.80 32.33C31.97 32.04 35.35 31.61 38.74 31.10L38.74 34.34L27.94 35.93L28.73 40.32L38.74 38.81L38.74 42.12L26.06 43.92L26.86 48.31L38.74 46.58L38.74 47.38C38.74 52.99 40.61 54.50 47.74 54.50L58.97 54.50C59.83 54.50 60.62 54.43 61.34 54.36C57.31 56.38 50.18 58.32 43.99 59.76C44.64 60.77 45.29 62.57 45.65 63.65C47.59 63.29 49.61 62.86 51.62 62.42L51.62 65.59L45.58 66.82L46.66 71.06L51.62 70.13L51.62 73.51L45.14 74.74L44.35 70.70L35.14 72.43L35.14 68.98L43.42 67.32L42.41 63.07L35.14 64.51L35.14 60.70C38.16 59.90 41.04 58.97 43.49 57.96L39.17 54.22C35.71 56.02 29.74 57.67 24.19 58.82L25.78 56.52C24.77 54.79 20.23 47.95 18.36 45.50L18.36 44.42L25.49 44.42L25.49 38.30L18.36 38.30L18.36 23.11L12.31 23.11L12.31 38.30L3.82 38.30L3.82 44.42L11.74 44.42C9.86 53.57 6.19 64.22 2.30 70.20C3.24 71.57 4.68 74.09 5.40 75.82C7.99 71.71 10.37 65.45 12.31 58.82L12.31 89.14L18.36 89.14L18.36 52.78C20.02 55.80 21.74 59.26 22.54 61.20L23.33 60.05C23.76 61.06 24.19 62.21 24.41 63.00C26.14 62.71 27.94 62.42 29.74 61.99L29.74 65.59L22.97 66.89L23.98 71.14L29.74 69.98L29.74 73.37L22.10 74.81L23.11 79.13L29.74 77.83L29.74 82.15C29.74 87.55 30.89 88.99 35.93 88.99L41.69 88.99C45.43 88.99 46.94 87.41 47.52 81.72C45.94 81.36 43.85 80.64 42.70 79.70C42.55 83.45 42.26 84.10 41.18 84.10L36.72 84.10C35.35 84.10 35.14 83.81 35.14 82.08L35.14 76.82L45.07 74.88L46.01 79.06L51.62 77.98L51.62 82.01C51.62 87.48 52.78 88.99 57.96 88.99L63.94 88.99C67.82 88.99 69.26 87.26 69.77 81.22C68.33 80.86 66.10 79.99 65.02 79.13C64.87 83.30 64.58 84.02 63.29 84.02Z"/></svg>
