<svg xmlns="http://www.w3.org/2000/svg" xmlns:xlink="http://www.w3.org/1999/xlink" width="72.00000000000001" height="106.56000000000002"><path fill="red" stroke="red" d="M62.71 40.10C61.70 44.71 60.55 49.54 59.40 52.78L64.44 54.50C66.31 49.54 68.40 41.76 69.84 35.06L65.52 33.77L64.51 33.98L49.25 33.98C50.04 30.74 50.62 27.43 51.12 23.98L45.00 22.97C43.49 33.70 40.75 44.06 36.00 50.54C37.51 51.34 40.25 53.14 41.40 54.14C43.78 50.40 45.94 45.58 47.52 40.10ZM28.94 48.60L20.88 48.60L20.88 40.61L28.94 40.61ZM34.20 36.43L15.91 36.43L15.91 52.78L34.20 52.78ZM16.92 61.20L20.95 61.20L20.95 70.99L16.92 70.99ZM13.46 75.17L24.48 75.17L24.48 57.02L13.46 57.02ZM34.20 70.99L30.10 70.99L30.10 61.34L34.20 61.34ZM37.87 57.17L26.57 57.17L26.57 75.24L37.87 75.24ZM55.08 43.99L49.03 43.99L49.03 49.10C49.03 58.10 48.10 71.57 38.66 82.15C38.52 81.07 38.38 79.92 38.30 79.13C36.65 79.49 33.70 79.70 31.54 79.70L16.27 79.70C12.53 79.70 11.30 78.19 11.30 73.80L11.30 32.18L38.16 32.18L38.16 26.50L3.02 26.50L3.02 32.18L5.33 32.18L5.33 73.44C5.33 82.37 8.28 85.32 16.56 85.32L31.25 85.32C33.62 85.32 36.07 85.25 37.73 85.03C39.02 86.26 40.46 87.98 41.18 89.28C47.30 83.16 50.76 76.03 52.78 69.05C55.30 77.18 58.97 83.38 64.80 89.21C65.66 87.34 67.46 85.25 69.05 84.02C61.06 76.75 57.31 68.18 55.01 54.07C55.08 52.34 55.08 50.76 55.08 49.25Z"/></svg>
