<svg xmlns="http://www.w3.org/2000/svg" xmlns:xlink="http://www.w3.org/1999/xlink" width="72.00000000000001" height="106.56000000000002"><path fill="red" stroke="red" d="M67.46 50.69L67.46 44.35L40.75 44.35L40.75 36.29L61.56 36.29L61.56 29.95L40.75 29.95L40.75 23.18L33.62 23.18L33.62 44.35L21.46 44.35L21.46 28.30L14.69 28.30L14.69 44.35L4.39 44.35L4.39 50.69L32.90 50.69L32.90 72.58L38.23 72.58C29.23 77.76 17.71 80.86 3.89 82.66C5.26 84.38 6.62 87.05 7.27 88.99C34.49 84.96 52.78 75.96 62.78 56.95L56.23 53.86C52.49 61.34 47.09 67.10 40.03 71.50L40.03 50.69ZM20.38 53.28C17.06 58.90 11.45 64.44 5.98 67.97C7.49 69.12 9.94 71.71 11.02 73.01C16.56 68.76 22.90 62.06 26.86 55.58Z"/></svg>
