<svg xmlns="http://www.w3.org/2000/svg" xmlns:xlink="http://www.w3.org/1999/xlink" width="72.00000000000001" height="106.56000000000002"><path fill="red" stroke="red" d="M48.67 52.42L48.67 58.25L39.24 58.25L39.24 52.42ZM39.24 69.62L39.24 63.50L48.67 63.50L48.67 69.62ZM53.93 75.10L53.93 46.94L33.98 46.94L33.98 79.27L39.24 79.27L39.24 75.10ZM22.82 46.94C22.03 51.84 21.10 56.30 19.80 60.34C17.42 58.54 14.33 56.38 11.52 54.65C12.60 52.20 13.54 49.68 14.33 46.94ZM66.24 33.70L40.90 33.70C42.12 30.82 43.27 27.79 44.28 24.77L38.09 23.18C36.14 29.88 32.98 36.65 29.30 41.83L25.56 40.75L24.55 40.90L16.06 40.90C16.70 38.23 17.35 35.42 17.86 32.62L30.31 32.62L30.31 26.57L3.82 26.57L3.82 32.62L11.45 32.62C9.65 43.27 6.48 53.21 1.51 59.83C2.88 61.13 4.97 63.86 5.76 65.16C6.91 63.72 7.85 62.06 8.86 60.26C11.81 62.28 15.05 64.80 17.35 66.82C13.90 74.38 9.22 80.06 3.60 83.88C4.82 84.74 7.06 87.12 7.92 88.49C18.14 81.29 25.42 67.82 28.66 47.38C29.59 48.31 30.67 49.39 31.25 50.04C33.55 47.30 35.71 43.85 37.80 40.10L60.41 40.10C60.05 68.62 59.47 79.56 57.67 81.79C56.95 82.73 56.23 82.94 55.01 82.94C53.42 82.94 49.68 82.94 45.58 82.58C46.73 84.46 47.52 87.26 47.59 88.99C51.26 89.14 55.08 89.21 57.38 88.92C59.76 88.56 61.49 87.91 63.00 85.61C65.45 82.22 65.74 70.92 66.24 36.79Z"/></svg>
