<svg xmlns="http://www.w3.org/2000/svg" xmlns:xlink="http://www.w3.org/1999/xlink" width="72.00000000000001" height="106.56000000000002"><path fill="red" stroke="red" d="M20.59 30.96C18.14 28.73 13.18 25.70 9.36 23.98L5.62 28.66C9.43 30.67 14.33 33.91 16.63 36.14ZM18.50 49.39C15.91 47.23 10.66 44.50 6.55 42.84L2.88 47.81C6.98 49.68 12.10 52.63 14.47 54.86ZM12.67 61.85C10.01 70.06 6.41 79.34 3.82 84.96L9.79 88.20C12.53 81.43 15.62 72.79 17.93 65.16ZM44.78 75.38C50.90 78.84 58.39 84.02 61.85 87.84L65.95 82.73C62.28 78.98 54.72 74.02 48.74 70.85ZM63.79 62.57C61.70 59.26 56.74 54.58 52.63 51.41L48.46 55.37C52.63 58.68 57.38 63.58 59.40 66.96ZM53.57 23.33C51.48 32.54 47.09 42.55 41.11 48.82C41.47 49.03 41.83 49.32 42.26 49.68L30.89 49.68C31.03 46.73 31.10 43.56 31.18 40.54L43.99 40.54L43.99 34.49L33.05 34.49L36.86 33.19C36.14 30.53 33.98 26.28 32.11 23.04L26.35 24.77C27.94 27.86 29.66 31.82 30.60 34.49L19.51 34.49L19.51 40.54L25.20 40.54C24.84 57.96 24.05 74.95 15.12 84.67C16.70 85.61 18.72 87.48 19.73 88.92C26.78 80.86 29.45 68.98 30.46 55.73L36.72 55.73C36.29 73.30 35.64 79.78 34.56 81.22C33.98 82.01 33.41 82.22 32.54 82.22C31.54 82.22 29.52 82.22 27.07 82.01C28.01 83.66 28.66 86.11 28.73 87.91C31.32 87.98 33.91 87.98 35.50 87.70C37.30 87.48 38.59 86.83 39.82 85.25C41.54 82.80 42.19 74.88 42.84 52.42C42.91 51.84 42.91 50.83 42.91 50.18C44.06 51.19 45.14 52.27 45.79 53.06C49.97 48.46 53.28 42.41 55.80 35.86C58.39 41.83 61.85 48.82 65.38 53.42C66.38 51.98 68.47 49.82 69.84 48.74C65.38 43.78 60.91 35.35 58.25 28.80C58.68 27.43 58.97 26.06 59.33 24.77Z"/></svg>
