<svg xmlns="http://www.w3.org/2000/svg" xmlns:xlink="http://www.w3.org/1999/xlink" width="72.00000000000001" height="106.56000000000002"><path fill="red" stroke="red" d="M18.07 34.27C16.70 31.61 13.61 27.65 11.09 24.70L6.05 27.58C8.57 30.67 11.52 34.78 12.82 37.51ZM16.34 53.64C14.54 51.05 10.51 47.09 7.27 44.35L2.74 47.81C5.90 50.76 9.86 54.86 11.74 57.53ZM10.37 87.77C12.67 81.22 15.48 72.58 17.35 65.09L12.10 61.99C9.86 70.06 6.77 79.27 4.46 84.82ZM39.02 46.73L39.02 51.48L38.09 51.77L23.76 51.77L23.76 46.73ZM44.42 64.22L34.13 65.81L34.13 63.36C37.30 60.70 40.61 57.46 43.06 54.36L39.96 51.91L45.07 51.91L45.07 41.33L34.49 41.33L34.49 35.57L44.86 35.57L44.86 29.74L34.49 29.74L34.49 23.18L28.22 23.18L28.22 29.74L18.36 29.74L18.36 35.57L28.22 35.57L28.22 41.33L18.00 41.33L18.00 51.91L21.38 51.91L21.38 57.10L33.26 57.10C31.68 58.90 29.81 60.62 28.22 61.99L28.22 66.60C24.26 67.18 20.66 67.68 17.71 68.11L18.72 73.80L28.22 72.29L28.22 82.37C28.22 83.09 28.01 83.38 27.14 83.38C26.28 83.38 23.40 83.38 20.45 83.30C21.24 84.96 22.03 87.34 22.18 88.92C26.57 88.99 29.59 88.92 31.61 87.98C33.70 87.12 34.13 85.39 34.13 82.51L34.13 71.28C37.58 70.78 41.18 70.20 44.78 69.62ZM57.02 38.95C57.17 33.98 57.17 28.80 57.17 23.26L51.26 23.26C51.26 28.80 51.26 33.98 51.19 38.95L45.86 38.95L45.86 45.22L51.05 45.22C50.47 62.93 48.24 76.32 39.17 84.89C40.75 85.82 42.91 87.98 43.85 89.42C53.71 79.70 56.16 64.73 56.88 45.22L61.85 45.22C61.49 71.06 61.06 79.92 59.76 81.79C59.26 82.80 58.68 83.02 57.67 83.02C56.52 83.02 54.29 83.02 51.77 82.73C52.63 84.46 53.28 86.98 53.35 88.70C56.23 88.85 58.97 88.85 60.70 88.56C62.71 88.20 63.94 87.62 65.23 85.68C67.03 82.80 67.39 72.65 67.82 41.98C67.90 41.11 67.90 38.95 67.90 38.95Z"/></svg>
