<svg xmlns="http://www.w3.org/2000/svg" xmlns:xlink="http://www.w3.org/1999/xlink" width="72.00000000000001" height="106.56000000000002"><path fill="red" stroke="red" d="M19.58 50.69C16.49 48.67 10.37 45.50 6.26 43.56L2.59 48.46C6.91 50.76 12.89 54.14 15.91 56.23ZM10.73 88.34C14.98 81.58 19.73 73.01 23.47 65.45L18.65 60.98C14.40 69.19 8.93 78.41 5.04 83.88ZM6.62 28.80C10.80 31.39 16.63 34.99 19.51 37.22L23.54 31.90C20.52 29.74 14.62 26.35 10.51 24.05ZM36.58 64.73C41.83 65.66 48.74 67.61 52.49 69.12L54.43 64.94C50.62 63.50 43.78 61.70 38.45 60.91ZM34.78 58.90L56.74 58.90L56.74 70.20C48.38 71.50 40.18 72.58 34.56 73.30C34.70 71.21 34.78 69.12 34.78 67.32ZM63.29 54.00L28.44 54.00L28.44 67.10C28.44 72.79 28.08 79.99 23.76 85.18C25.27 85.97 28.01 87.98 29.09 89.06C32.54 84.96 33.91 79.27 34.49 73.87L36.14 78.77C42.05 77.62 49.39 76.18 56.74 74.52L56.74 82.01C56.74 82.87 56.45 83.09 55.51 83.16C54.58 83.16 51.26 83.16 48.10 83.09C48.96 84.60 49.82 87.05 50.11 88.70C54.94 88.70 58.25 88.63 60.48 87.70C62.64 86.83 63.29 85.18 63.29 82.01ZM59.54 35.57L48.53 35.57L48.53 30.46L59.54 30.46ZM59.54 45.22L48.53 45.22L48.53 40.03L59.54 40.03ZM30.96 40.03L42.19 40.03L42.19 45.22L30.96 45.22ZM30.96 30.46L42.19 30.46L42.19 35.57L30.96 35.57ZM24.77 25.85L24.77 49.90L65.95 49.90L65.95 25.85Z"/></svg>
