<svg xmlns="http://www.w3.org/2000/svg" xmlns:xlink="http://www.w3.org/1999/xlink" width="72.00000000000001" height="106.56000000000002"><path fill="red" stroke="red" d="M23.69 31.90C20.74 29.74 14.90 26.35 10.87 24.12L7.13 28.87C11.23 31.39 16.92 34.99 19.80 37.15ZM19.80 50.69C16.70 48.74 10.73 45.50 6.70 43.56L3.17 48.53C7.42 50.76 13.25 54.22 16.20 56.23ZM44.64 61.85C43.42 66.74 39.82 71.64 34.63 74.30C35.71 75.17 37.22 76.82 37.94 77.90C41.04 76.25 43.70 73.80 45.79 70.99C48.67 73.22 51.70 76.03 53.42 77.83L57.02 74.45C55.01 72.43 51.34 69.48 48.10 67.18C48.82 65.66 49.46 64.15 49.90 62.71ZM55.73 83.23C55.66 81.86 55.44 79.70 55.30 78.26C53.86 78.55 51.05 78.70 49.25 78.70L36.07 78.70C34.06 78.70 33.62 77.98 33.62 75.89L33.62 63.43L32.18 63.43C32.76 62.78 33.41 62.06 34.06 61.27L61.27 61.27C60.55 75.38 59.62 80.93 58.32 82.37C57.74 83.09 57.02 83.23 55.94 83.23ZM34.92 41.18L57.24 41.18L57.24 46.22L34.92 46.22ZM34.92 31.39L57.24 31.39L57.24 36.36L34.92 36.36ZM38.09 55.66C39.10 54.29 40.03 52.78 40.75 51.34L63.65 51.34L63.65 26.35L28.80 26.35L28.80 51.34L33.41 51.34C30.38 56.09 26.35 60.55 22.10 64.01L18.86 60.98C14.76 69.19 9.36 78.34 5.62 83.81L11.09 88.27C14.76 82.58 18.72 75.38 22.10 68.76C22.82 69.84 23.54 70.85 23.98 71.50C25.27 70.42 26.57 69.34 27.86 68.11L27.86 75.74C27.86 81.94 29.59 84.02 36.22 84.02L49.46 84.02C50.11 85.54 50.54 87.55 50.69 88.99C54.00 89.14 57.24 89.14 59.04 88.92C61.13 88.70 62.50 88.06 63.79 86.47C65.88 84.10 66.82 76.97 67.75 58.32C67.82 57.46 67.82 55.66 67.82 55.66Z"/></svg>
