<svg xmlns="http://www.w3.org/2000/svg" xmlns:xlink="http://www.w3.org/1999/xlink" width="72.00000000000001" height="106.56000000000002"><path fill="red" stroke="red" d="M59.26 47.74L48.82 47.74L48.82 44.71L59.26 44.71ZM48.82 55.30L48.82 52.06L59.26 52.06L59.26 55.30ZM32.62 55.30L32.62 52.06L42.62 52.06L42.62 55.30ZM42.62 44.71L42.62 47.74L32.62 47.74L32.62 44.71ZM33.62 35.71C37.15 36.86 41.26 38.38 44.86 39.89L26.35 39.89L26.35 66.17L32.62 66.17L32.62 59.62L42.62 59.62L42.62 63.00L48.82 63.00L48.82 59.62L59.26 59.62L59.26 60.91C59.26 61.56 59.04 61.78 58.32 61.85C57.67 61.85 55.51 61.92 53.35 61.78C54.07 63.00 54.94 64.66 55.30 66.10C58.90 66.10 61.49 66.02 63.36 65.38C65.16 64.66 65.66 63.79 65.66 61.06L65.66 39.89L52.85 39.89L54.00 38.30C53.42 38.02 52.78 37.66 51.98 37.37C56.66 34.85 60.98 31.61 64.37 28.51L60.41 25.34L58.97 25.63L25.42 25.63L25.42 30.96L52.70 30.96C50.76 32.47 48.53 33.84 46.37 35.06C43.13 33.84 39.60 32.69 36.65 31.90ZM23.33 31.03C20.52 28.58 14.83 25.49 10.44 23.69L6.77 28.51C11.23 30.53 16.85 33.91 19.44 36.43ZM19.66 49.82C16.78 47.45 10.87 44.50 6.48 42.77L2.81 47.81C7.34 49.82 13.03 52.99 15.77 55.44ZM17.50 60.19C13.61 68.76 8.50 78.26 4.90 83.95L10.80 88.06C14.76 81.07 19.15 72.14 22.68 64.15ZM67.03 68.33L47.45 68.33C47.66 67.03 47.88 65.66 48.02 64.22L41.33 64.22C41.18 65.66 40.97 67.03 40.75 68.33L22.61 68.33L22.61 73.73L39.10 73.73C36.58 78.84 31.54 82.22 20.59 84.17C21.82 85.46 23.33 87.91 23.83 89.50C37.58 86.62 43.34 81.50 46.15 73.73L60.12 73.73C59.40 79.63 58.61 82.30 57.53 83.23C56.95 83.81 56.30 83.95 55.01 83.95C53.71 83.95 50.26 83.88 46.73 83.52C47.66 85.03 48.38 87.26 48.46 88.92C52.27 89.14 55.87 89.21 57.82 88.99C60.05 88.85 61.56 88.42 63.00 87.05C64.80 85.25 65.88 80.86 66.89 70.78Z"/></svg>
