<svg xmlns="http://www.w3.org/2000/svg" xmlns:xlink="http://www.w3.org/1999/xlink" width="72.00000000000001" height="106.56000000000002"><path fill="red" stroke="red" d="M10.87 87.98C14.04 81.22 17.57 72.65 20.23 65.16L14.69 61.42C11.74 69.55 7.56 78.77 4.68 84.31ZM18.86 50.40C16.27 47.81 10.94 44.57 6.70 42.55L2.74 47.38C7.06 49.54 12.17 53.06 14.62 55.66ZM6.48 28.58C10.58 30.82 15.48 34.42 17.78 37.01L22.10 31.90C19.51 29.30 14.54 25.99 10.51 23.90ZM67.18 61.70L46.94 61.70L47.88 58.10L64.30 58.10L64.30 37.22L58.39 37.22L58.39 52.85L32.47 52.85L32.47 37.22L26.78 37.22L26.78 58.10L42.12 58.10C41.83 59.33 41.62 60.48 41.26 61.70L30.31 61.70L30.31 59.54L24.41 59.54L24.41 61.70L22.39 61.70L22.39 67.18L24.41 67.18L24.41 89.06L30.31 89.06L30.31 67.18L39.60 67.18C38.74 70.27 37.73 73.22 36.86 75.74L33.05 76.25L34.56 81.36L53.14 78.34C53.78 79.42 54.29 80.42 54.65 81.29L59.11 79.13C57.67 76.32 54.79 71.50 52.42 67.97L48.24 69.62C49.03 70.99 49.97 72.43 50.83 73.94L43.06 75.02C43.78 72.58 44.57 69.91 45.36 67.18L61.13 67.18L61.13 82.87C61.13 83.74 60.77 84.02 59.83 84.02C58.90 84.10 55.37 84.10 51.91 83.95C52.63 85.46 53.35 87.55 53.57 89.14C58.68 89.14 62.21 89.14 64.37 88.27C66.53 87.41 67.18 86.04 67.18 83.02ZM56.88 47.95C55.22 46.73 52.92 45.22 50.40 43.70C52.56 41.90 54.65 40.03 56.30 38.16L51.41 36.14C49.82 37.80 47.88 39.53 45.86 41.04C42.98 39.53 39.96 37.94 37.37 36.65L34.34 40.10C36.58 41.26 39.10 42.62 41.54 44.06C39.02 45.65 36.22 47.16 33.70 48.24C34.85 49.25 36.79 51.26 37.66 52.27C40.39 50.83 43.42 48.89 46.30 46.87C49.25 48.67 51.84 50.54 53.71 51.98ZM50.04 29.16C49.18 27.22 47.88 24.55 46.73 22.54L40.54 24.19C41.33 25.70 42.12 27.43 42.84 29.16L22.82 29.16L22.82 34.85L68.76 34.85L68.76 29.16Z"/></svg>
