<svg xmlns="http://www.w3.org/2000/svg" xmlns:xlink="http://www.w3.org/1999/xlink" width="72.00000000000001" height="106.56000000000002"><path fill="red" stroke="red" d="M41.83 34.27L27.00 34.27L27.00 38.45L41.83 38.45L41.83 41.83L22.18 41.83L22.18 46.94L68.90 46.94L68.90 41.83L48.46 41.83L48.46 38.45L64.66 38.45L64.66 34.27L48.46 34.27L48.46 31.25L66.60 31.25L66.60 26.78L48.46 26.78L48.46 23.11L41.83 23.11L41.83 26.78L24.70 26.78L24.70 31.25L41.83 31.25ZM23.33 31.03C20.45 28.51 14.83 25.42 10.37 23.62L6.70 28.44C11.23 30.53 16.78 33.91 19.44 36.43ZM19.66 49.75C16.70 47.45 10.87 44.50 6.41 42.77L2.74 47.81C7.34 49.75 13.03 52.99 15.77 55.44ZM17.57 60.91C13.68 69.19 8.50 78.41 4.90 83.95L10.66 88.20C14.69 81.36 19.15 72.72 22.68 65.16ZM33.91 69.41L57.74 69.41L57.74 73.22L33.91 73.22ZM33.91 61.70L57.74 61.70L57.74 65.45L33.91 65.45ZM33.91 54.00L57.74 54.00L57.74 57.67L33.91 57.67ZM64.08 77.47L64.08 49.75L27.79 49.75L27.79 77.47L36.72 77.47C33.05 80.28 25.70 83.45 19.66 85.03C20.88 86.18 22.82 88.20 23.69 89.42C30.02 87.62 37.73 84.24 42.41 80.78L37.37 77.47L52.56 77.47L48.96 81.00C54.72 83.52 60.91 86.83 64.51 89.28L69.55 85.32C65.81 82.94 59.40 79.85 53.57 77.47Z"/></svg>
