<svg xmlns="http://www.w3.org/2000/svg" xmlns:xlink="http://www.w3.org/1999/xlink" width="72.00000000000001" height="106.56000000000002"><path fill="red" stroke="red" d="M60.41 36.14L54.00 36.14L54.00 31.75L60.41 31.75ZM60.41 44.57L54.00 44.57L54.00 40.18L60.41 40.18ZM30.96 40.18L36.94 40.18L36.94 44.57L30.96 44.57ZM30.96 31.75L36.94 31.75L36.94 36.14L30.96 36.14ZM48.60 40.18L48.60 44.57L42.19 44.57L42.19 40.18ZM48.60 31.75L48.60 36.14L42.19 36.14L42.19 31.75ZM66.31 27.50L54.00 27.50L54.00 23.04L48.60 23.04L48.60 27.50L42.19 27.50L42.19 23.04L36.94 23.04L36.94 27.50L25.34 27.50L25.34 48.74L66.31 48.74ZM21.24 31.39C18.58 29.09 13.39 25.92 9.50 24.05L6.34 29.02C10.22 31.10 15.41 34.49 17.86 36.94ZM17.35 50.18C14.76 47.95 9.50 45.00 5.76 43.27L2.59 48.24C6.48 50.26 11.66 53.50 14.18 55.80ZM16.49 60.91C12.67 68.98 7.70 78.05 4.39 83.45L9.14 88.13C12.96 81.43 17.14 72.94 20.52 65.45ZM63.22 72.00C60.91 73.66 57.67 75.67 55.01 77.18C53.35 75.60 51.98 73.87 50.90 72.00ZM64.37 72.00L68.98 72.00L68.98 67.10L29.74 67.10C29.88 66.02 29.95 65.02 29.95 63.94L63.65 63.94L63.65 59.76L30.02 59.76L30.02 56.74L68.11 56.74L68.11 51.77L24.12 51.77L24.12 61.06C24.12 68.40 23.18 78.48 16.13 85.82C17.50 86.47 20.02 88.20 21.02 89.28C25.56 84.46 28.01 78.12 29.09 72.00L33.48 72.00L33.48 79.63C33.48 82.66 31.75 84.17 30.53 84.82C31.54 85.97 32.76 88.27 33.19 89.64C34.49 88.78 36.50 87.98 49.32 84.53C48.96 83.38 48.46 81.36 48.31 79.92L39.24 82.08L39.24 72.00L45.29 72.00C49.10 80.50 55.94 86.47 65.74 89.06C66.46 87.62 68.04 85.39 69.19 84.31C65.23 83.45 61.63 81.94 58.61 79.99C61.49 78.62 64.73 76.90 67.46 74.95Z"/></svg>
