<svg xmlns="http://www.w3.org/2000/svg" xmlns:xlink="http://www.w3.org/1999/xlink" width="72.00000000000001" height="106.56000000000002"><path fill="red" stroke="red" d="M51.26 33.05C50.40 30.17 48.31 25.85 46.58 22.46L40.25 24.26C41.98 27.65 43.92 32.26 44.78 35.21ZM29.74 41.62L67.97 41.62L67.97 35.28L29.74 35.28L29.74 36.58L24.26 34.49C23.18 38.95 21.10 45.43 19.37 49.39L23.54 51.26C25.34 47.52 27.72 41.90 29.74 36.94ZM11.52 55.01C10.94 50.18 9.14 41.83 7.42 35.35L2.52 36.58C4.18 43.13 5.83 51.70 6.41 56.59ZM28.66 74.66C27.07 72.79 21.17 65.52 18.50 62.71C19.08 57.96 19.22 53.14 19.22 48.46L19.22 23.54L12.96 23.54L12.96 48.38C12.96 61.06 11.88 74.45 2.66 84.46C4.10 85.54 6.34 87.84 7.34 89.42C12.60 83.81 15.62 77.18 17.28 70.27C19.80 73.58 22.54 77.54 24.05 80.06ZM60.77 82.80C60.26 82.80 59.90 82.73 59.62 82.44C59.33 82.15 59.26 81.14 59.26 79.42L59.26 48.17L34.49 48.17L34.49 61.06C34.49 68.76 33.19 78.05 22.90 84.60C24.26 85.61 26.50 88.27 27.29 89.64C38.74 82.30 40.90 70.42 40.90 61.20L40.90 54.43L52.63 54.43L52.63 79.42C52.63 84.53 53.14 85.97 54.29 87.12C55.44 88.20 57.31 88.70 58.82 88.70L62.64 88.70C64.15 88.70 65.74 88.42 66.82 87.62C67.82 86.98 68.54 85.90 68.98 84.10C69.41 82.37 69.62 77.76 69.70 73.94C68.04 73.44 65.95 72.36 64.66 71.28C64.66 75.38 64.58 78.62 64.44 80.06C64.30 81.43 64.08 82.15 63.79 82.44C63.50 82.73 62.93 82.80 62.42 82.80Z"/></svg>
