<svg xmlns="http://www.w3.org/2000/svg" xmlns:xlink="http://www.w3.org/1999/xlink" width="72.00000000000001" height="106.56000000000002"><path fill="red" stroke="red" d="M22.32 41.83L22.32 44.78C22.32 49.03 23.18 50.83 27.43 50.83L32.18 50.83C33.41 50.83 34.92 50.83 35.71 50.47C35.57 49.25 35.42 47.66 35.35 46.44C34.49 46.66 32.83 46.80 32.04 46.80L28.37 46.80C27.36 46.80 27.29 46.30 27.29 44.78L27.29 41.83L35.64 41.83L35.64 37.01L23.11 37.01L23.11 32.47L33.26 32.47L33.26 27.72L23.11 27.72L23.11 23.33L17.21 23.33L17.21 27.72L7.13 27.72L7.13 32.47L17.21 32.47L17.21 37.01L4.54 37.01L4.54 41.83L12.31 41.83C11.59 45.79 9.43 47.95 3.17 49.32C4.18 50.26 5.54 52.13 5.98 53.42C13.97 51.34 16.70 47.81 17.57 41.83ZM9.86 89.28C13.39 85.97 16.63 80.71 18.50 75.82L12.10 74.16C10.15 78.84 6.84 83.88 3.53 86.62ZM24.26 76.25C25.06 80.28 25.56 85.39 25.56 88.56L32.26 87.70C32.18 84.67 31.46 79.56 30.60 75.60ZM38.74 76.10C40.46 80.06 41.98 85.25 42.48 88.42L49.10 87.19C48.60 83.95 46.80 78.91 45.07 75.02ZM53.35 75.96C56.59 80.06 60.34 85.75 61.92 89.28L68.69 86.98C66.96 83.38 63.00 77.83 59.76 73.87ZM62.86 66.10C62.50 66.10 62.21 66.02 62.06 65.81C61.85 65.45 61.85 64.44 61.85 62.71L61.85 32.90L50.33 32.90C50.40 29.81 50.47 26.57 50.47 23.18L44.42 23.18C44.42 26.57 44.35 29.81 44.28 32.90L37.08 32.90L37.08 38.81L44.14 38.81C43.99 41.69 43.78 44.42 43.42 47.02L38.88 43.92L36.07 48.82C37.94 50.11 40.10 51.77 42.26 53.35C40.97 58.61 38.88 62.93 35.50 66.46L35.42 63.79C31.32 64.22 27.14 64.58 23.11 64.94L23.11 59.90L33.70 59.90L33.70 55.01L23.11 55.01L23.11 50.33L17.21 50.33L17.21 55.01L6.19 55.01L6.19 59.90L17.21 59.90L17.21 65.45C12.17 65.88 7.56 66.24 3.89 66.53L4.39 72.14C12.31 71.35 23.33 70.20 34.06 69.05C35.28 70.13 36.72 71.78 37.44 72.86C42.41 68.83 45.50 63.65 47.38 57.24C49.39 58.82 51.26 60.34 52.56 61.56L55.51 55.87C53.93 54.43 51.48 52.70 48.82 50.76C49.39 47.16 49.82 43.13 50.04 38.81L55.80 38.81L55.80 62.64C55.80 67.61 56.16 68.90 57.17 69.98C58.18 70.99 59.76 71.42 61.13 71.42L64.08 71.42C65.30 71.42 66.67 71.14 67.54 70.49C68.33 69.84 68.98 68.76 69.34 67.18C69.70 65.59 69.91 61.06 69.98 57.46C68.54 57.02 66.82 56.09 65.66 55.08C65.66 59.04 65.59 62.06 65.45 63.50C65.30 64.73 65.16 65.45 64.94 65.74C64.73 66.02 64.37 66.10 63.94 66.10Z"/></svg>
