<svg xmlns="http://www.w3.org/2000/svg" xmlns:xlink="http://www.w3.org/1999/xlink" width="72.00000000000001" height="106.56000000000002"><path fill="red" stroke="red" d="M68.69 37.22C67.68 33.98 65.02 29.02 62.42 25.42L57.17 27.50C59.69 31.25 62.28 36.22 63.07 39.46ZM33.55 34.27L27.94 34.27L27.94 28.94L33.55 28.94ZM38.59 24.91L23.11 24.91L23.11 38.30L38.59 38.30ZM11.95 52.85L18.94 52.85L18.94 56.59L11.95 56.59ZM11.95 45.00L18.94 45.00L18.94 48.82L11.95 48.82ZM31.82 48.82L24.41 48.82L24.41 45.00L31.82 45.00ZM31.82 56.59L24.41 56.59L24.41 52.85L31.82 52.85ZM5.98 60.84L37.94 60.84L37.94 40.75L5.98 40.75ZM15.34 34.27L10.15 34.27L10.15 28.94L15.34 28.94ZM20.30 24.91L5.47 24.91L5.47 38.30L20.30 38.30ZM41.26 63.50L2.88 63.50L2.88 68.33L41.26 68.33ZM13.46 81.36L13.46 75.82L30.74 75.82L30.74 81.36ZM68.62 48.82L68.62 42.55L55.51 42.55L55.51 41.76L55.51 23.18L49.03 23.18L49.03 41.76L49.03 42.55L39.02 42.55L39.02 48.82L48.89 48.82C48.46 59.76 46.44 73.22 37.15 83.38L37.15 71.06L7.27 71.06L7.27 89.06L13.46 89.06L13.46 86.18L30.74 86.18L30.74 87.98L37.15 87.98L37.15 85.54C38.59 86.69 40.10 88.20 40.97 89.21C48.02 81.65 51.70 72.43 53.57 63.43C55.87 74.30 59.40 83.38 65.16 89.28C66.17 87.55 68.33 85.03 69.84 83.88C62.42 76.97 58.75 63.72 56.81 48.82Z"/></svg>
