<svg xmlns="http://www.w3.org/2000/svg" xmlns:xlink="http://www.w3.org/1999/xlink" width="72.00000000000001" height="106.56000000000002"><path fill="red" stroke="red" d="M66.17 26.06L59.83 26.06L59.83 37.58L49.97 37.58L49.97 23.11L43.78 23.11L43.78 37.58L34.34 37.58L34.34 26.06L28.30 26.06L28.30 43.42L66.17 43.42ZM16.78 54.36L22.54 54.36L22.54 48.17L16.78 48.17L16.78 33.84L23.98 33.84L23.98 27.65L3.46 27.65L3.46 33.84L10.66 33.84L10.66 48.17L4.03 48.17L4.03 54.36L10.66 54.36L10.66 73.44C7.85 74.23 5.33 74.81 3.10 75.31L4.46 81.72C10.37 80.06 17.78 77.90 24.77 75.74L23.90 69.70C21.53 70.42 19.08 71.14 16.78 71.71ZM68.62 54.22L68.62 48.24L25.34 48.24L25.34 54.22L43.20 54.22C42.84 56.23 42.34 58.25 41.83 60.19L27.58 60.19L27.58 89.14L33.62 89.14L33.62 65.88L38.95 65.88L38.95 88.63L44.42 88.63L44.42 65.88L50.11 65.88L50.11 88.63L55.58 88.63L55.58 65.88L61.34 65.88L61.34 82.58C61.34 83.23 61.20 83.38 60.55 83.45C59.98 83.45 58.39 83.45 56.52 83.38C57.38 84.96 58.46 87.55 58.61 89.35C61.63 89.35 63.72 89.14 65.38 88.06C67.03 87.05 67.46 85.32 67.46 82.80L67.46 60.19L47.95 60.19C48.60 58.32 49.25 56.30 49.90 54.22Z"/></svg>
