<svg xmlns="http://www.w3.org/2000/svg" xmlns:xlink="http://www.w3.org/1999/xlink" width="72.00000000000001" height="106.56000000000002"><path fill="red" stroke="red" d="M56.30 50.33L56.30 56.66L39.74 56.66L39.74 50.33ZM39.74 69.12L39.74 62.57L56.30 62.57L56.30 69.12ZM16.42 69.12L16.42 62.57L32.76 62.57L32.76 69.12ZM32.76 50.33L32.76 56.66L16.42 56.66L16.42 50.33ZM67.61 38.66L67.61 32.47L59.54 32.47L61.99 29.30C58.75 27.43 52.56 24.55 48.17 22.75L44.71 26.78C48.17 28.37 52.70 30.67 55.94 32.47L39.74 32.47L39.74 23.18L32.76 23.18L32.76 32.47L4.61 32.47L4.61 38.66L32.76 38.66L32.76 44.35L9.58 44.35L9.58 89.28L16.42 89.28L16.42 74.95L32.76 74.95L32.76 88.49L39.74 88.49L39.74 74.95L56.30 74.95L56.30 81.36C56.30 82.37 55.94 82.73 54.72 82.80C53.57 82.80 49.39 82.87 45.36 82.73C46.30 84.31 47.30 86.98 47.66 88.78C53.21 88.78 57.17 88.70 59.62 87.62C62.14 86.69 62.93 84.89 62.93 81.36L62.93 44.35L39.74 44.35L39.74 38.66Z"/></svg>
