<svg xmlns="http://www.w3.org/2000/svg" xmlns:xlink="http://www.w3.org/1999/xlink" width="72.00000000000001" height="106.56000000000002"><path fill="red" stroke="red" d="M32.76 67.90L32.76 72.79L17.28 72.79L17.28 67.90ZM55.51 72.79L39.31 72.79L39.31 67.90L55.51 67.90ZM39.31 82.44L39.31 77.47L55.51 77.47L55.51 82.44ZM17.28 82.44L17.28 77.47L32.76 77.47L32.76 82.44ZM10.87 89.35L17.28 89.35L17.28 87.48L55.51 87.48L55.51 89.21L62.28 89.21L62.28 62.93L10.87 62.93ZM48.38 54.36L23.76 54.36L23.76 48.67L48.38 48.67ZM17.50 43.70L17.50 59.33L55.08 59.33L55.08 43.70ZM55.30 33.55C57.10 31.32 59.26 28.58 61.20 25.85L54.14 23.69C52.85 26.50 50.33 30.46 48.38 32.98L49.97 33.55L39.17 33.55L39.17 23.11L32.47 23.11L32.47 33.55L21.24 33.55L23.47 32.54C22.32 30.10 19.87 26.57 17.42 23.90L11.59 26.28C13.25 28.44 15.19 31.25 16.34 33.55L5.90 33.55L5.90 48.89L12.24 48.89L12.24 39.24L60.19 39.24L60.19 48.89L66.82 48.89L66.82 33.55Z"/></svg>
