<svg xmlns="http://www.w3.org/2000/svg" xmlns:xlink="http://www.w3.org/1999/xlink" width="72.00000000000001" height="106.56000000000002"><path fill="red" stroke="red" d="M13.03 49.68C12.38 46.22 10.15 40.68 7.85 36.50L2.95 38.81C5.11 43.13 7.27 48.82 7.85 52.42ZM19.87 36.07L68.69 36.07L68.69 30.24L45.79 30.24C45.14 28.01 43.92 24.98 42.70 22.68L36.07 24.12C36.94 25.92 37.87 28.22 38.52 30.24L13.68 30.24L13.68 52.63C13.68 54.50 13.68 56.38 13.54 58.32C9.22 60.62 5.04 62.71 2.09 64.08L4.25 70.20C6.98 68.62 9.94 66.82 12.96 65.09C11.95 72.22 9.65 79.42 4.46 85.03C5.76 85.90 8.28 88.27 9.14 89.64C18.43 79.70 19.87 63.86 19.87 52.63ZM41.04 37.80C39.89 49.03 37.01 55.87 20.95 59.33C22.10 60.55 23.69 62.86 24.26 64.44C34.20 61.99 39.82 58.25 43.06 52.99C50.69 56.30 59.26 60.91 63.65 64.22L67.82 59.54C62.71 55.94 53.06 51.26 45.36 48.17C46.37 45.07 46.94 41.62 47.38 37.80ZM57.67 76.46C60.05 74.02 63.00 70.49 65.59 67.03L59.90 64.51C58.25 67.39 55.22 71.57 52.92 74.09ZM34.42 74.45C33.12 72.00 30.46 67.75 28.30 64.58L23.18 66.96C25.34 70.20 27.79 74.66 29.09 77.26ZM23.40 42.77C25.42 45.94 28.01 50.18 29.23 52.70L34.49 49.82C33.26 47.45 30.53 43.34 28.44 40.39ZM59.69 40.68C58.25 43.42 55.37 47.45 53.21 49.82L57.82 52.13C60.05 49.90 62.86 46.51 65.45 43.27ZM40.61 59.04C39.53 72.86 37.01 80.42 18.14 84.17C19.30 85.46 20.88 87.84 21.46 89.42C34.63 86.47 40.90 81.50 44.06 74.09C48.10 82.22 54.72 87.12 65.95 89.35C66.67 87.55 68.26 85.03 69.62 83.74C56.16 81.72 49.32 75.46 46.44 64.58C46.66 62.78 46.87 60.98 47.02 59.04Z"/></svg>
