<svg xmlns="http://www.w3.org/2000/svg" xmlns:xlink="http://www.w3.org/1999/xlink" width="72.00000000000001" height="106.56000000000002"><path fill="red" stroke="red" d="M11.45 49.32C10.94 45.86 9.14 40.39 7.20 36.14L2.81 38.23C4.75 42.55 6.34 48.17 6.77 51.70ZM33.55 44.86C32.83 46.73 32.04 48.60 31.25 50.11L25.34 50.11C26.42 48.46 27.36 46.73 28.15 44.86ZM38.59 59.47L34.06 59.47L34.06 54.43L38.59 54.43ZM38.59 68.69L34.06 68.69L34.06 63.58L38.59 63.58ZM25.63 59.47L25.63 54.43L30.10 54.43L30.10 59.47ZM30.10 63.58L30.10 68.69L25.63 68.69L25.63 63.58ZM21.10 73.08L43.34 73.08L43.34 50.11L36.22 50.11C37.51 47.66 38.88 44.78 39.82 42.19L36.50 40.18L35.64 40.39L30.10 40.39C30.60 39.17 31.03 37.94 31.46 36.65L26.42 35.50C24.48 41.62 21.46 47.74 17.71 52.13L17.71 34.78L68.90 34.78L68.90 29.38L44.64 29.38C43.78 27.36 42.48 24.84 41.26 22.90L34.85 24.70C35.57 26.14 36.36 27.79 37.08 29.38L11.95 29.38L11.95 52.20C11.95 53.86 11.95 55.73 11.88 57.53C8.14 59.76 4.61 61.70 2.09 63.07L4.18 68.76C6.55 67.32 9.00 65.59 11.38 64.01C10.51 71.42 8.42 79.06 3.24 85.10C4.46 85.82 6.70 88.13 7.56 89.28C16.13 79.56 17.64 64.30 17.71 53.14C18.86 53.78 20.23 54.72 21.10 55.37ZM19.37 88.27C21.53 85.18 22.97 80.14 23.98 76.18L19.80 74.74C18.94 78.41 17.21 83.30 15.12 86.26ZM25.85 76.68C26.57 80.14 26.93 84.53 26.78 87.34L30.82 86.76C30.89 83.95 30.46 79.56 29.66 76.18ZM32.11 76.10C33.34 79.27 34.42 83.45 34.70 86.11L38.59 85.25C38.23 82.51 37.08 78.41 35.78 75.31ZM38.23 74.95C39.89 77.76 41.40 81.43 42.05 83.81L45.72 82.44C45.07 80.14 43.42 76.54 41.76 73.80ZM69.05 70.34L59.18 70.34L59.18 63.86L67.32 63.86L67.32 58.90L59.18 58.90L59.18 52.99L68.04 52.99L68.04 47.88L62.86 47.88C64.22 45.36 65.81 41.69 67.39 38.23L62.14 36.58C61.34 39.46 59.69 43.78 58.39 46.44L62.57 47.88L49.90 47.88L54.07 46.37C53.50 43.70 51.84 39.82 50.04 36.86L45.58 38.30C47.23 41.26 48.74 45.22 49.25 47.88L44.78 47.88L44.78 52.99L53.71 52.99L53.71 58.90L46.08 58.90L46.08 63.86L53.71 63.86L53.71 70.34L44.28 70.34L44.28 75.53L53.71 75.53L53.71 89.14L59.18 89.14L59.18 75.53L69.05 75.53Z"/></svg>
