<svg xmlns="http://www.w3.org/2000/svg" xmlns:xlink="http://www.w3.org/1999/xlink" width="72.00000000000001" height="106.56000000000002"><path fill="red" stroke="red" d="M35.64 42.70C34.70 45.07 33.62 47.23 32.18 49.10C29.74 47.66 27.14 46.30 24.77 45.22L20.88 48.82C23.40 49.97 25.99 51.34 28.51 52.92C25.70 55.30 22.25 57.10 18.36 58.25C19.51 59.18 21.38 61.49 22.18 62.78C26.42 61.20 30.24 59.11 33.34 56.16C36.07 58.03 38.45 60.05 40.25 61.78L44.21 57.67C42.34 56.02 39.82 54.07 36.86 52.06C39.46 48.46 41.33 43.99 42.62 38.45L39.17 37.37L38.16 37.44L23.26 37.44C23.62 35.64 23.98 33.91 24.26 31.97L47.09 31.97C46.08 36.50 44.93 41.18 43.99 44.57L58.68 44.57C57.89 51.34 57.10 54.36 56.02 55.37C55.37 55.94 54.65 56.02 53.50 56.02C52.13 56.02 48.82 55.94 45.43 55.66C46.51 57.24 47.23 59.62 47.45 61.34C50.98 61.56 54.36 61.56 56.30 61.34C58.46 61.20 59.98 60.70 61.34 59.33C63.36 57.46 64.30 52.70 65.38 41.54C65.52 40.68 65.59 39.02 65.59 39.02L51.77 39.02C52.70 34.99 53.78 30.46 54.65 26.42L5.83 26.42L5.83 31.97L17.78 31.97C15.84 44.42 11.38 53.86 2.66 59.54C4.10 60.48 6.70 62.93 7.63 64.08C14.40 58.97 19.01 51.91 21.82 42.70ZM17.64 69.70L25.63 69.70L25.63 81.36L17.64 81.36ZM39.82 69.70L39.82 81.36L31.75 81.36L31.75 69.70ZM54.14 69.70L54.14 81.36L45.94 81.36L45.94 69.70ZM60.70 81.36L60.70 64.37L11.38 64.37L11.38 81.36L3.53 81.36L3.53 87.19L68.54 87.19L68.54 81.36Z"/></svg>
