<svg xmlns="http://www.w3.org/2000/svg" xmlns:xlink="http://www.w3.org/1999/xlink" width="72.00000000000001" height="106.56000000000002"><path fill="red" stroke="red" d="M15.48 39.74L32.04 39.74L32.04 42.77L18.65 43.42L18.86 47.95L32.11 47.23C32.33 50.90 33.91 52.78 39.60 52.78L56.02 52.78C58.97 52.78 62.35 52.70 63.86 52.34C63.58 51.05 63.43 49.82 63.29 48.02C61.70 48.46 57.60 48.60 55.37 48.60L40.90 48.60C38.45 48.60 38.02 47.95 38.02 46.22L55.22 45.36L55.22 41.76L38.02 42.48L38.02 39.74L59.18 39.74C58.61 41.40 57.89 43.06 57.38 44.21L63.00 46.15C64.51 43.63 66.17 39.60 67.39 36.00L62.50 34.63L61.34 34.92L37.22 34.92L37.22 31.82L62.93 31.82L62.93 27.14L37.22 27.14L37.22 23.11L30.53 23.11L30.53 34.92L8.93 34.92L8.93 53.06C8.93 62.64 8.50 75.96 2.88 85.39C4.39 85.97 7.27 87.70 8.50 88.78C14.47 78.77 15.48 63.58 15.48 53.14ZM26.64 64.51L37.01 64.51L37.01 67.39L26.64 67.39ZM26.64 58.32L37.01 58.32L37.01 61.13L26.64 61.13ZM53.86 61.13L43.06 61.13L43.06 58.32L53.86 58.32ZM53.86 67.39L43.06 67.39L43.06 64.51L53.86 64.51ZM20.52 70.85L60.26 70.85L60.26 54.86L20.52 54.86ZM23.98 77.62L30.96 77.62L30.96 83.16L23.98 83.16ZM43.63 77.62L43.63 83.16L36.65 83.16L36.65 77.62ZM56.38 77.62L56.38 83.16L49.32 83.16L49.32 77.62ZM62.86 83.16L62.86 73.51L17.86 73.51L17.86 83.16L11.81 83.16L11.81 87.84L68.33 87.84L68.33 83.16Z"/></svg>
