<svg xmlns="http://www.w3.org/2000/svg" xmlns:xlink="http://www.w3.org/1999/xlink" width="72.00000000000001" height="106.56000000000002"><path fill="red" stroke="red" d="M19.51 33.19L19.51 42.05L11.38 42.05L11.38 33.19ZM11.38 71.64L11.38 62.42L19.51 62.42L19.51 71.64ZM11.38 47.74L19.51 47.74L19.51 56.74L11.38 56.74ZM25.78 27.36L5.18 27.36L5.18 83.59L11.38 83.59L11.38 77.62L25.78 77.62ZM36.86 56.74L36.86 47.23L46.80 47.23C46.94 50.47 47.09 53.71 47.38 56.74ZM59.04 32.40L59.04 41.11L36.86 41.11L36.86 32.40ZM68.47 63.00L68.47 56.74L53.78 56.74C53.50 53.78 53.35 50.54 53.28 47.23L65.66 47.23L65.66 26.28L30.53 26.28L30.53 77.90C30.53 81.36 27.94 83.66 26.35 84.60C27.50 85.75 29.16 88.13 29.74 89.50C31.25 88.42 33.70 87.62 49.03 83.74C48.82 82.22 48.67 79.49 48.74 77.62L36.86 80.28L36.86 63.00L48.02 63.00C49.90 78.05 54.14 88.56 61.85 88.56C66.67 88.56 68.76 85.97 69.70 75.74C68.04 75.24 65.81 73.94 64.44 72.58C64.22 79.20 63.65 82.22 62.35 82.22C58.90 82.22 55.94 74.52 54.43 63.00Z"/></svg>
