<svg xmlns="http://www.w3.org/2000/svg" xmlns:xlink="http://www.w3.org/1999/xlink" width="72.00000000000001" height="106.56000000000002"><path fill="red" stroke="red" d="M60.77 27.50C59.33 32.98 56.45 40.54 54.07 45.36L59.18 47.45C61.70 42.91 64.94 35.86 67.61 29.88ZM41.40 44.50C40.46 40.10 37.44 33.19 34.56 27.94L29.16 30.31C31.97 35.64 34.70 42.91 35.57 47.30ZM19.58 32.90L19.58 41.47L11.16 41.47L11.16 32.90ZM11.16 47.16L19.58 47.16L19.58 55.80L11.16 55.80ZM11.16 70.34L11.16 61.49L19.58 61.49L19.58 70.34ZM25.78 76.25L25.78 27.00L5.11 27.00L5.11 82.08L11.16 82.08L11.16 76.25ZM37.51 59.98C35.14 68.90 30.60 78.41 25.34 83.16C26.86 84.38 28.87 86.62 29.95 88.20C35.57 82.30 40.10 71.86 42.62 61.27ZM68.83 55.87L68.83 49.61L51.26 49.61L51.26 23.18L44.86 23.18L44.86 49.61L28.94 49.61L28.94 55.87L44.86 55.87L44.86 89.21L51.26 89.21L51.26 55.87ZM53.57 62.35C57.74 70.49 62.35 81.22 64.01 87.84L69.70 84.67C67.90 78.34 63.14 67.82 58.75 59.76Z"/></svg>
