<svg xmlns="http://www.w3.org/2000/svg" xmlns:xlink="http://www.w3.org/1999/xlink" width="72.00000000000001" height="106.56000000000002"><path fill="red" stroke="red" d="M57.82 39.38L47.02 39.38L47.02 31.61L57.82 31.61ZM40.90 39.38L30.31 39.38L30.31 31.61L40.90 31.61ZM24.12 39.38L13.82 39.38L13.82 31.61L24.12 31.61ZM64.51 25.70L7.49 25.70L7.49 45.22L64.51 45.22ZM16.78 59.76C15.26 66.24 12.24 75.74 2.23 80.71C3.67 81.79 5.54 84.24 6.34 85.75C12.24 82.44 16.06 77.98 18.72 73.08C22.03 75.74 25.49 78.98 27.29 81.36L30.89 76.61C28.87 74.16 24.62 70.63 20.95 67.97C22.03 65.09 22.68 62.35 23.26 59.76ZM52.42 58.25C51.19 65.23 48.46 74.95 39.31 80.21L39.31 56.02C49.18 55.30 58.75 54.29 66.10 52.92L61.20 48.10C47.88 50.18 24.34 51.48 6.05 51.19C7.34 52.56 9.07 55.80 9.94 57.46C16.85 57.31 24.70 56.95 32.69 56.45L32.69 89.86L39.31 89.86L39.31 80.93C40.75 82.15 42.34 84.17 43.13 85.68C48.38 82.51 51.91 78.12 54.36 73.37C57.02 77.47 60.77 82.22 64.66 85.03C65.66 83.45 67.68 81.22 69.12 80.14C64.08 77.04 59.40 71.42 56.95 67.10C57.89 64.08 58.54 61.13 58.97 58.25Z"/></svg>
