<svg xmlns="http://www.w3.org/2000/svg" xmlns:xlink="http://www.w3.org/1999/xlink" width="72.00000000000001" height="106.56000000000002"><path fill="red" stroke="red" d="M20.81 74.45L14.04 74.45L14.04 54.58L20.81 54.58ZM26.64 80.35L26.64 48.67L14.33 48.67C16.06 43.63 17.57 38.23 18.65 32.76L28.22 32.76L28.22 26.71L3.82 26.71L3.82 32.76L12.17 32.76C10.22 42.98 6.98 52.56 2.16 58.97C3.10 60.77 4.46 64.80 4.82 66.53C6.05 65.02 7.20 63.43 8.28 61.63L8.28 85.90L14.04 85.90L14.04 80.35ZM45.86 39.74L45.86 50.90L37.30 50.90L37.30 39.74ZM58.46 56.66C56.66 62.14 53.93 67.03 50.62 71.21C47.02 66.96 44.06 61.99 42.05 56.66ZM61.99 50.69L60.84 50.90L51.84 50.90L51.84 39.74L60.77 39.74C60.12 42.77 59.33 45.86 58.61 48.02L63.86 49.25C65.23 45.58 66.82 39.67 67.82 34.63L63.65 33.62L62.64 33.84L51.84 33.84L51.84 23.18L45.86 23.18L45.86 33.84L31.54 33.84L31.54 52.56C31.54 62.50 30.89 76.18 24.62 85.82C25.99 86.40 28.58 88.13 29.59 89.14C34.99 80.93 36.65 69.34 37.15 59.54C39.53 65.59 42.70 70.99 46.58 75.60C42.62 79.27 38.16 82.15 33.41 83.95C34.70 85.18 36.29 87.55 37.01 89.06C41.98 86.83 46.58 83.81 50.62 79.99C54.72 83.81 59.40 86.90 64.73 89.14C65.66 87.41 67.61 84.96 68.98 83.66C63.65 81.86 58.90 78.98 54.86 75.46C59.90 69.26 63.72 61.63 65.88 52.13Z"/></svg>
