<svg xmlns="http://www.w3.org/2000/svg" xmlns:xlink="http://www.w3.org/1999/xlink" width="72.00000000000001" height="106.56000000000002"><path fill="red" stroke="red" d="M22.32 74.45L14.04 74.45L14.04 54.58L22.32 54.58ZM27.94 80.35L27.94 48.67L14.33 48.67C16.13 43.63 17.42 38.23 18.58 32.76L28.22 32.76L28.22 26.71L3.53 26.71L3.53 32.76L12.24 32.76C10.22 42.98 7.13 52.56 2.38 58.97C3.31 60.84 4.68 65.02 5.04 66.74C6.26 65.23 7.27 63.65 8.35 61.92L8.35 85.90L14.04 85.90L14.04 80.35ZM37.01 60.12L37.01 54.07L45.43 54.07L45.43 57.96C45.43 58.61 45.43 59.40 45.43 60.12ZM37.01 43.27L45.43 43.27L45.43 49.18L37.01 49.18ZM60.77 43.27L60.77 49.18L51.84 49.18L51.84 43.27ZM60.77 60.12L51.84 60.12C51.84 59.40 51.84 58.61 51.84 57.96L51.84 54.07L60.77 54.07ZM66.89 65.30L66.89 38.09L51.84 38.09L51.84 32.18L68.40 32.18L68.40 26.21L29.81 26.21L29.81 32.18L45.43 32.18L45.43 38.09L31.10 38.09L31.10 65.30L45.00 65.30C44.57 68.47 43.78 71.50 41.98 74.23C39.67 72.22 37.87 69.84 36.50 67.10L30.82 68.40C32.69 72.43 35.14 75.82 38.09 78.55C35.35 80.86 31.54 82.73 26.28 84.10C27.58 85.32 29.45 87.98 30.24 89.35C35.71 87.55 39.89 85.10 42.98 82.30C48.82 86.04 56.38 88.20 65.66 89.35C66.53 87.62 68.18 84.96 69.55 83.59C60.34 82.80 52.70 81.00 47.02 77.69C49.54 74.02 50.76 69.77 51.41 65.30Z"/></svg>
