<svg xmlns="http://www.w3.org/2000/svg" xmlns:xlink="http://www.w3.org/1999/xlink" width="72.00000000000001" height="106.56000000000002"><path fill="red" stroke="red" d="M59.90 24.26C58.46 26.93 55.94 30.89 54.00 33.34L57.96 35.28C60.12 33.19 62.78 29.81 65.30 26.64ZM45.00 55.44L51.12 55.44L51.12 40.68L68.11 40.68L68.11 35.42L51.12 35.42L51.12 23.11L45.00 23.11L45.00 35.42L37.37 35.42L41.90 32.76C40.82 30.60 38.30 27.07 36.22 24.55L31.61 27.00C33.55 29.59 35.86 33.12 36.94 35.42L28.37 35.42L28.37 40.68L45.00 40.68ZM52.78 44.28C57.10 46.80 62.50 50.62 65.16 53.14L68.83 49.46C66.02 46.87 60.62 43.27 56.30 40.90ZM38.74 41.40C35.93 44.71 30.74 48.10 26.14 49.90C27.29 50.83 29.09 52.85 30.02 54.14C34.78 51.91 40.25 47.38 43.20 43.20ZM42.05 64.15C41.26 66.89 40.32 69.41 39.10 71.71C37.51 70.06 35.50 68.18 33.77 66.53C34.13 65.81 34.56 65.02 34.99 64.15ZM20.38 74.45L13.68 74.45L13.68 54.58L20.38 54.58ZM45.00 58.90L44.06 59.04L37.15 59.04C37.58 57.60 38.02 56.16 38.45 54.65L33.62 53.64C32.04 59.98 29.16 65.95 25.20 69.91L25.20 48.67L14.11 48.67C15.84 43.63 17.28 38.23 18.36 32.76L27.00 32.76L27.00 26.71L3.74 26.71L3.74 32.76L12.10 32.76C10.15 42.98 6.98 52.56 2.23 58.97C3.17 60.84 4.61 64.87 4.90 66.53C6.12 65.09 7.20 63.43 8.28 61.63L8.28 85.90L13.68 85.90L13.68 80.35L25.20 80.35L25.20 70.27C26.35 71.21 27.94 72.86 28.58 73.66C29.59 72.72 30.46 71.57 31.32 70.34C33.12 72.14 34.99 74.09 36.50 75.82C33.34 80.06 29.30 83.16 24.77 85.03C25.85 86.11 27.07 88.13 27.72 89.35C38.02 84.74 45.50 75.31 48.24 59.76ZM53.50 73.66C54.14 70.56 54.79 67.10 55.30 63.86L58.32 63.86L58.32 73.66ZM69.41 73.66L63.50 73.66L63.50 63.86L68.62 63.86L68.62 59.11L63.50 59.11L63.50 53.86L58.32 53.86L58.32 59.11L48.89 59.11L48.89 63.86L50.47 63.86C49.68 68.98 48.60 74.88 47.59 78.91L58.32 78.91L58.32 89.21L63.50 89.21L63.50 78.91L69.41 78.91Z"/></svg>
