<svg xmlns="http://www.w3.org/2000/svg" xmlns:xlink="http://www.w3.org/1999/xlink" width="72.00000000000001" height="106.56000000000002"><path fill="red" stroke="red" d="M30.67 62.42C29.16 60.84 23.54 55.08 20.88 52.56C24.05 47.88 26.78 42.77 28.66 37.44L25.13 34.99L23.83 35.28L18.07 35.28L22.32 32.33C21.02 29.74 18.29 26.06 15.62 23.40L10.66 26.57C12.89 29.16 15.34 32.62 16.63 35.28L3.96 35.28L3.96 41.33L20.52 41.33C16.34 49.75 9.36 57.74 2.52 62.28C3.38 63.58 4.90 67.18 5.33 69.12C8.21 67.03 11.02 64.44 13.75 61.49L13.75 89.21L20.16 89.21L20.16 59.76C22.61 62.57 25.13 65.88 26.50 67.90ZM37.01 33.77L58.75 33.77L58.75 50.54L37.01 50.54ZM58.18 83.23C56.81 83.23 56.52 82.87 56.52 80.64L56.52 56.59L65.38 56.59L65.38 27.72L30.74 27.72L30.74 56.59L37.87 56.59C37.15 69.91 35.21 78.98 23.18 84.24C24.62 85.39 26.64 87.84 27.43 89.57C40.90 83.23 43.49 72.22 44.28 56.59L50.04 56.59L50.04 80.64C50.04 86.83 51.41 88.78 57.02 88.78L62.71 88.78C67.61 88.78 69.05 85.90 69.55 75.74C67.97 75.31 65.38 74.23 64.01 73.22C63.79 81.65 63.50 83.23 62.14 83.23Z"/></svg>
