<svg xmlns="http://www.w3.org/2000/svg" xmlns:xlink="http://www.w3.org/1999/xlink" width="72.00000000000001" height="106.56000000000002"><path fill="red" stroke="red" d="M28.58 62.42C27.43 60.55 21.96 53.50 19.94 51.12L19.94 49.68L27.79 49.68L27.79 43.49L19.94 43.49L19.94 31.61C22.75 30.89 25.49 30.02 27.86 29.02L23.69 23.62C18.94 25.92 11.30 27.94 4.61 29.30C5.26 30.82 6.12 32.98 6.48 34.49C8.78 34.13 11.30 33.70 13.75 33.12L13.75 43.49L4.18 43.49L4.18 49.68L12.74 49.68C10.37 57.17 6.26 65.81 2.38 70.70C3.53 72.50 5.11 75.38 5.76 77.33C8.57 73.44 11.45 67.54 13.75 61.34L13.75 89.21L19.94 89.21L19.94 59.04C21.74 62.28 23.62 65.88 24.48 67.97ZM36.86 52.63L36.86 46.37L44.78 46.37C44.42 48.38 43.92 50.54 42.91 52.63ZM36.86 35.21L45.36 35.21L45.36 39.82L45.36 41.33L36.86 41.33ZM59.76 41.33L51.48 41.33L51.48 39.96L51.48 35.21L59.76 35.21ZM59.76 52.63L49.54 52.63C50.26 50.54 50.69 48.38 51.05 46.37L59.76 46.37ZM68.62 69.41L55.94 69.41L55.94 58.97L49.54 58.97L49.54 69.41L35.78 69.41C41.18 66.02 44.78 62.06 47.16 57.96L66.17 57.96L66.17 29.88L48.67 29.88C49.61 28.08 50.54 25.99 51.26 23.98L43.63 23.18C43.27 25.13 42.62 27.65 41.90 29.88L30.74 29.88L30.74 57.96L39.67 57.96C37.44 60.77 34.34 63.58 30.02 65.95C31.32 66.82 33.12 68.26 34.34 69.41L26.64 69.41L26.64 75.17L49.54 75.17L49.54 89.21L55.94 89.21L55.94 75.17L68.62 75.17Z"/></svg>
