<svg xmlns="http://www.w3.org/2000/svg" xmlns:xlink="http://www.w3.org/1999/xlink" width="72.00000000000001" height="106.56000000000002"><path fill="red" stroke="red" d="M39.60 69.70L49.90 69.70L49.90 78.12L39.60 78.12ZM49.90 49.82L39.60 49.82L39.60 42.05L49.90 42.05ZM49.90 63.72L39.60 63.72L39.60 55.87L49.90 55.87ZM68.76 78.12L56.09 78.12L56.09 69.70L66.17 69.70L66.17 63.72L56.09 63.72L56.09 55.87L66.02 55.87L66.02 49.82L56.09 49.82L56.09 42.05L67.82 42.05L67.82 36.00L52.49 36.00L58.25 33.41C57.38 30.67 55.22 26.64 53.14 23.54L47.52 25.85C49.39 29.02 51.41 33.26 52.13 36.00L41.18 36.00C42.84 32.40 44.35 28.80 45.50 25.34L39.02 23.47C36.94 30.96 32.62 40.39 27.65 46.94L27.65 43.49L20.66 43.49L20.66 31.68C23.69 30.89 26.57 30.10 29.02 29.09L25.06 23.62C19.80 25.99 11.38 28.01 3.89 29.38C4.68 30.82 5.47 33.12 5.76 34.49C8.42 34.20 11.23 33.70 14.04 33.19L14.04 43.49L3.38 43.49L3.38 49.68L12.53 49.68C10.22 57.24 6.19 65.81 2.38 70.78C3.46 72.50 5.11 75.53 5.69 77.47C8.71 73.30 11.66 66.89 14.04 60.26L14.04 89.28L20.66 89.28L20.66 58.10C22.90 61.63 25.49 65.81 26.57 68.18L30.46 62.71C29.02 60.84 22.90 53.35 20.66 50.98L20.66 49.68L26.78 49.68C27.72 51.34 28.80 53.50 29.30 54.86C30.67 53.28 31.97 51.55 33.26 49.82L33.26 89.35L39.60 89.35L39.60 84.31L68.76 84.31Z"/></svg>
