<svg xmlns="http://www.w3.org/2000/svg" xmlns:xlink="http://www.w3.org/1999/xlink" width="72.00000000000001" height="106.56000000000002"><path fill="red" stroke="red" d="M63.72 28.94L40.82 28.94C40.03 27.14 38.74 24.91 37.30 23.18L31.03 24.84C31.82 26.06 32.69 27.50 33.41 28.94L8.21 28.94L8.21 34.42L63.72 34.42ZM67.54 41.47L51.05 41.47C51.98 39.89 52.92 38.16 53.93 36.29L47.16 34.92C46.44 36.72 45.14 39.46 43.99 41.47L27.50 41.47L28.30 41.26C27.72 39.46 26.35 36.65 24.91 34.70L18.58 36.07C19.66 37.66 20.59 39.67 21.24 41.47L4.18 41.47L4.18 47.09L67.54 47.09ZM18.14 64.44L53.42 64.44L53.42 68.98L18.14 68.98ZM18.14 55.37L53.42 55.37L53.42 59.90L18.14 59.90ZM50.90 82.51C48.10 82.51 47.59 82.22 47.59 80.50L47.59 73.73L60.12 73.73L60.12 50.54L11.74 50.54L11.74 73.73L23.69 73.73C22.18 79.78 18.14 82.22 3.10 83.59C4.39 84.96 5.98 87.55 6.41 89.28C23.90 87.05 29.16 82.87 30.96 73.73L40.82 73.73L40.82 80.50C40.82 86.40 42.62 88.06 50.11 88.06L60.77 88.06C66.46 88.06 68.26 86.18 68.98 78.12C67.25 77.76 64.51 76.75 63.22 75.89C62.86 81.72 62.42 82.51 59.98 82.51Z"/></svg>
