<svg xmlns="http://www.w3.org/2000/svg" xmlns:xlink="http://www.w3.org/1999/xlink" width="72.00000000000001" height="106.56000000000002"><path fill="red" stroke="red" d="M35.71 34.49L35.71 28.58L18.65 28.58C19.30 27.22 19.87 25.99 20.38 24.62L13.90 22.68C11.59 28.80 7.42 34.78 2.95 38.66C4.32 39.96 6.55 43.06 7.42 44.35C10.22 41.76 12.89 38.30 15.34 34.49ZM17.57 38.23C19.94 40.61 22.97 43.99 24.19 46.22L29.16 42.12C27.72 39.89 24.70 36.79 22.25 34.56ZM9.36 49.54C13.39 51.41 18.65 54.36 21.60 56.38L24.62 51.05C21.74 49.25 16.49 46.51 12.46 44.71ZM19.87 61.99C16.92 60.19 11.52 57.53 7.27 55.94L4.32 60.91C8.50 62.57 13.82 65.52 16.85 67.46ZM10.80 89.06C15.62 83.95 21.24 77.33 25.92 71.42L21.67 66.67C16.56 73.15 10.22 80.21 5.90 84.31ZM58.46 54.94L58.46 64.30L34.92 64.30L34.92 54.94ZM34.92 79.63L34.92 69.98L58.46 69.98L58.46 79.63ZM43.20 42.48C42.62 44.28 41.54 46.80 40.61 48.89L28.44 48.89L28.44 89.06L34.92 89.06L34.92 85.68L58.46 85.68L58.46 88.63L65.30 88.63L65.30 48.89L47.81 48.89C48.60 47.38 49.39 45.86 50.18 44.21ZM47.74 28.58C48.24 27.22 48.67 25.85 49.03 24.41L42.26 22.75C40.54 29.52 37.22 36.07 33.19 40.18C34.63 41.33 37.30 43.85 38.38 45.07C40.82 42.34 43.27 38.59 45.22 34.49L52.78 34.49L48.67 37.87C51.19 40.18 54.14 43.56 55.51 45.79L60.34 41.76C58.97 39.67 56.02 36.65 53.50 34.49L68.62 34.49L68.62 28.58Z"/></svg>
