<svg xmlns="http://www.w3.org/2000/svg" xmlns:xlink="http://www.w3.org/1999/xlink" width="72.00000000000001" height="106.56000000000002"><path fill="red" stroke="red" d="M7.70 76.25C7.13 80.21 6.19 84.53 4.39 87.48C5.76 87.70 8.14 88.20 9.29 88.56C10.80 85.68 12.02 81.14 12.74 76.82ZM15.34 76.82C16.20 80.14 16.92 84.60 16.92 87.48L21.89 86.69C21.74 83.81 20.95 79.49 19.94 76.03ZM41.11 77.90L50.33 77.90L50.33 81.94L41.11 81.94ZM40.97 51.55L53.06 51.55L48.10 52.99C48.89 54.29 49.54 55.94 50.11 57.46L41.90 57.46C42.84 55.80 43.56 54.07 44.28 52.42ZM23.26 65.66C23.90 66.74 24.48 67.97 25.06 69.12L15.70 70.06C20.52 66.60 25.13 62.50 29.09 58.32L24.41 55.73C23.40 57.02 22.32 58.18 21.17 59.40L13.61 59.83C15.84 57.82 17.86 55.51 19.58 53.28L15.48 51.55L38.59 51.55C36.29 57.02 32.69 62.35 28.58 66.10C28.22 65.45 27.86 64.80 27.50 64.22ZM18.29 33.12C19.30 34.78 20.09 36.72 20.66 38.16L9.72 38.16C11.16 36.72 12.67 34.92 14.04 33.12ZM25.06 42.41L25.06 47.38L14.47 47.38L14.47 42.41ZM22.61 38.16L26.71 36.94C26.42 35.93 25.70 34.49 24.91 33.12L34.63 33.12C33.48 34.34 32.26 35.35 30.96 36.29C31.97 36.79 33.34 37.44 34.63 38.16ZM41.47 42.41L41.47 47.38L30.46 47.38L30.46 42.41ZM49.18 33.12C50.47 34.70 51.70 36.65 52.49 38.16L38.45 38.16C39.96 36.72 41.47 34.99 42.91 33.12ZM58.10 47.38L46.87 47.38L46.87 42.41L58.10 42.41ZM50.33 65.74L41.11 65.74L41.11 62.06L50.33 62.06ZM50.33 73.80L41.11 73.80L41.11 69.84L50.33 69.84ZM68.18 81.94L56.09 81.94L56.09 77.90L64.94 77.90L64.94 73.80L56.09 73.80L56.09 69.84L64.94 69.84L64.94 65.74L56.09 65.74L56.09 62.06L66.74 62.06L66.74 57.46L56.09 57.46C55.51 55.66 54.50 53.35 53.42 51.55L64.30 51.55L64.30 38.16L55.08 38.16L58.82 37.01C58.32 35.93 57.38 34.49 56.30 33.12L67.97 33.12L67.97 28.08L46.15 28.08C46.87 26.78 47.45 25.56 47.95 24.26L41.54 22.75C40.03 26.28 37.73 29.88 34.99 32.76L34.99 28.08L17.35 28.08C18.07 26.86 18.72 25.63 19.22 24.41L13.03 22.75C10.73 27.79 6.70 32.98 2.38 36.36C3.82 37.15 6.55 38.95 7.78 40.03L8.50 39.38L8.50 51.55L13.82 51.55C11.81 55.01 8.57 58.46 7.56 59.33C6.55 60.26 5.62 60.84 4.46 61.06C5.18 62.14 6.19 64.30 6.48 65.16C7.56 64.80 9.22 64.44 16.49 63.79C13.68 66.31 11.23 68.26 10.01 69.05C7.92 70.49 6.41 71.50 4.75 71.64C5.47 72.86 6.41 74.95 6.70 75.82C8.28 75.17 10.66 74.81 26.42 73.08C26.64 73.80 26.78 74.45 26.93 75.02L23.11 75.89C24.70 78.91 26.35 82.87 26.93 85.46L31.68 84.31C30.96 81.79 29.30 77.83 27.58 74.88L31.46 73.37C31.03 71.57 29.95 68.98 28.73 66.46C30.10 67.32 32.11 68.83 33.12 69.70C33.77 69.05 34.49 68.26 35.21 67.46L35.21 89.28L41.11 89.28L41.11 86.62L68.18 86.62Z"/></svg>
