<svg xmlns="http://www.w3.org/2000/svg" xmlns:xlink="http://www.w3.org/1999/xlink" width="72.00000000000001" height="106.56000000000002"><path fill="red" stroke="red" d="M40.46 36.94L30.89 36.94L30.89 31.82L40.46 31.82ZM56.52 42.26L56.52 49.90L46.80 49.90L46.80 42.26ZM30.89 42.26L40.46 42.26L40.46 49.90L30.89 49.90ZM15.34 42.26L24.55 42.26L24.55 49.90L15.34 49.90ZM24.55 36.94L8.93 36.94L8.93 55.22L63.29 55.22L63.29 36.94L46.80 36.94L46.80 31.82L67.03 31.82L67.03 26.14L5.04 26.14L5.04 31.82L24.55 31.82ZM23.98 73.37C19.37 77.47 10.37 81.07 2.23 82.66C3.67 84.02 5.69 86.47 6.62 88.13C15.05 85.97 24.26 81.22 29.45 75.60ZM67.68 71.78L67.68 65.95L51.70 65.95C53.71 63.94 56.09 61.06 58.39 58.10L51.70 55.80C50.33 58.32 47.81 61.92 45.94 64.30L50.04 65.95L39.24 65.95L39.24 56.66L32.47 56.66L32.47 65.95L22.32 65.95L25.99 64.44C24.98 61.92 22.54 58.32 20.16 55.87L14.11 58.18C16.20 60.55 18.14 63.58 19.22 65.95L4.32 65.95L4.32 71.78L32.47 71.78L32.47 89.28L39.24 89.28L39.24 71.78ZM42.62 76.90C49.61 80.35 58.61 85.75 62.93 89.28L67.90 84.74C63.22 81.29 54.14 76.18 47.30 73.01Z"/></svg>
