<svg xmlns="http://www.w3.org/2000/svg" xmlns:xlink="http://www.w3.org/1999/xlink" width="72.00000000000001" height="106.56000000000002"><path fill="red" stroke="red" d="M30.74 64.58C29.95 60.84 27.79 54.72 25.78 50.04L20.66 51.70C21.46 53.57 22.25 55.66 22.90 57.74L13.18 59.11C18.72 52.85 24.12 45.22 28.44 37.66L22.90 34.20C21.38 37.22 19.73 40.25 17.86 43.13L11.23 43.70C15.26 38.38 19.22 31.82 22.25 25.42L16.13 22.75C13.18 30.46 8.21 38.52 6.70 40.54C5.11 42.70 3.89 44.21 2.59 44.50C3.31 46.15 4.25 49.18 4.61 50.40C5.69 49.97 7.34 49.61 14.11 48.82C11.74 52.27 9.58 54.94 8.50 56.02C6.34 58.68 4.68 60.26 3.10 60.62C3.82 62.35 4.75 65.45 5.11 66.74C6.62 65.95 9.00 65.38 24.41 62.86C24.84 64.22 25.13 65.59 25.34 66.74ZM5.98 69.41C5.40 75.24 4.39 81.58 2.74 85.90C4.18 86.33 6.98 87.19 8.21 87.84C9.72 83.52 11.02 76.68 11.59 70.42ZM14.04 70.20C14.90 75.10 15.70 81.58 15.84 85.75L21.38 84.60C21.10 80.35 20.23 74.09 19.37 69.19ZM21.96 68.40C23.18 72.00 24.55 76.82 25.13 79.99L30.24 78.19C29.59 75.17 28.08 70.49 26.71 66.96ZM68.47 40.97L68.47 34.63L53.28 34.63C52.56 31.61 51.05 26.93 49.46 23.40L43.34 24.98C44.50 27.94 45.72 31.75 46.37 34.63L29.74 34.63L29.74 40.97L39.31 40.97C38.95 58.46 38.02 75.31 25.92 84.67C27.58 85.75 29.59 87.77 30.53 89.42C39.89 81.86 43.49 70.49 44.93 57.60L58.10 57.60C57.46 73.44 56.52 79.70 55.15 81.22C54.50 82.01 53.78 82.15 52.56 82.15C51.19 82.15 47.95 82.08 44.42 81.79C45.50 83.59 46.30 86.26 46.44 88.13C50.04 88.34 53.57 88.34 55.58 88.06C57.82 87.84 59.40 87.19 60.84 85.39C63.14 82.80 63.94 75.10 64.87 54.29C64.94 53.35 64.94 51.34 64.94 51.34L45.50 51.34C45.79 47.95 45.94 44.57 46.01 40.97Z"/></svg>
