<svg xmlns="http://www.w3.org/2000/svg" xmlns:xlink="http://www.w3.org/1999/xlink" width="72.00000000000001" height="106.56000000000002"><path fill="red" stroke="red" d="M28.80 65.52C28.08 61.70 26.21 55.37 24.41 50.54L19.44 51.84C20.16 53.86 20.81 56.09 21.46 58.25L12.74 59.40C18.36 52.92 23.98 44.93 28.44 37.08L22.75 33.62C21.24 36.94 19.30 40.25 17.42 43.34L11.09 43.85C14.90 38.45 18.72 31.82 21.74 25.34L15.70 22.82C12.96 30.60 8.06 38.59 6.62 40.75C5.11 42.91 3.96 44.35 2.59 44.64C3.31 46.22 4.25 49.18 4.61 50.47C5.69 49.97 7.27 49.61 13.75 48.82C11.45 52.20 9.43 54.79 8.42 55.94C6.26 58.54 4.68 60.26 3.02 60.70C3.82 62.28 4.75 65.45 5.11 66.74C6.55 66.02 8.78 65.38 22.68 63.22C23.04 64.66 23.33 66.02 23.47 67.18ZM5.98 69.41C5.40 75.24 4.39 81.58 2.74 85.82C4.18 86.26 6.77 87.12 7.92 87.77C9.43 83.30 10.66 76.61 11.30 70.34ZM13.75 70.20C14.62 75.10 15.41 81.58 15.55 85.75L20.66 84.74C20.45 80.50 19.58 74.23 18.65 69.26ZM21.24 68.90C22.75 73.08 24.55 78.62 25.27 82.15L29.95 80.35C29.23 76.90 27.43 71.57 25.78 67.46ZM32.90 78.34C42.41 81.00 53.93 85.82 60.26 89.64L64.15 84.46C57.67 80.86 46.22 76.10 36.79 73.58ZM40.61 65.09C45.65 67.18 51.84 70.85 55.15 73.44L59.18 68.76C55.80 66.31 49.61 62.93 44.50 60.98ZM42.26 36.14L56.52 36.14C54.50 39.74 51.98 43.06 49.03 46.01C46.30 43.13 43.78 39.96 41.90 36.65ZM61.20 30.10L60.05 30.31L45.65 30.31C46.73 28.30 47.59 26.21 48.46 24.19L41.90 23.18C39.46 29.74 34.70 37.80 27.50 43.78C29.02 44.64 31.10 46.66 32.18 47.95C34.42 45.94 36.50 43.85 38.30 41.62C40.18 44.57 42.34 47.38 44.64 50.04C39.82 54.00 34.13 57.17 28.37 59.33C29.66 60.48 31.75 63.07 32.54 64.66C38.30 62.14 43.92 58.75 49.03 54.43C54.00 58.97 59.54 62.64 65.45 65.09C66.46 63.36 68.33 60.91 69.84 59.62C64.01 57.60 58.39 54.22 53.57 50.26C58.39 45.14 62.50 39.24 65.23 32.40Z"/></svg>
