<svg xmlns="http://www.w3.org/2000/svg" xmlns:xlink="http://www.w3.org/1999/xlink" width="72.00000000000001" height="106.56000000000002"><path fill="red" stroke="red" d="M67.10 26.86L61.20 26.86L61.20 35.42L50.69 35.42L50.69 23.47L44.78 23.47L44.78 35.42L34.63 35.42L34.63 26.86L28.94 26.86L28.94 41.11L67.10 41.11ZM4.25 50.47C5.26 49.97 6.70 49.54 13.18 48.74C10.94 52.42 9.00 55.15 7.99 56.38C5.90 59.04 4.54 60.77 3.02 61.13C3.67 62.71 4.54 65.59 4.82 66.82C6.12 65.95 8.28 65.30 22.03 62.42C22.32 63.86 22.61 65.16 22.82 66.24L27.29 64.58C26.71 61.06 24.91 55.22 23.26 50.76L19.01 52.13C19.66 53.86 20.23 55.80 20.74 57.67L11.74 59.40C16.85 52.85 22.03 44.78 26.14 36.86L21.10 33.91C19.80 37.08 18.07 40.32 16.42 43.34L9.94 43.92C13.39 38.59 16.70 31.90 19.30 25.42L13.82 22.97C11.59 30.53 7.34 38.74 5.98 40.75C4.75 42.91 3.67 44.35 2.45 44.71C3.10 46.22 4.03 49.25 4.25 50.47ZM6.41 69.41C5.76 75.24 4.68 81.58 2.88 85.82C4.03 86.18 6.12 86.90 7.06 87.48C8.64 83.09 9.94 76.46 10.73 70.27ZM12.82 70.20C13.61 74.81 14.26 80.78 14.40 84.74L18.58 83.59C18.36 79.70 17.64 73.87 16.78 69.26ZM55.08 68.33C55.15 66.60 55.15 64.87 55.15 63.36L55.15 61.34L62.86 61.34L62.86 68.33ZM62.86 50.26L62.86 55.94L55.15 55.94L55.15 50.26ZM33.55 68.04C33.70 66.24 33.70 64.51 33.70 62.86L33.70 61.34L41.11 61.34L41.11 68.04ZM41.11 50.26L41.11 55.87L33.70 55.87L33.70 50.26ZM68.40 44.78L49.75 44.78L49.75 63.36C49.75 69.91 49.46 78.26 46.15 84.60C46.30 83.88 46.37 83.02 46.37 81.94L46.37 44.78L28.37 44.78L28.37 62.86C28.37 67.68 28.15 73.37 26.64 78.62C26.06 75.60 24.70 71.14 23.40 67.75L19.58 69.05C20.88 72.65 22.25 77.47 22.82 80.57L26.57 79.27C25.78 81.65 24.77 83.95 23.33 85.97C24.62 86.54 26.93 88.27 27.86 89.35C30.89 84.96 32.33 79.27 33.05 73.51L41.11 73.51L41.11 81.86C41.11 82.58 40.90 82.80 40.18 82.80C39.53 82.80 37.51 82.87 35.42 82.73C36.22 84.24 37.01 86.76 37.22 88.34C40.46 88.34 42.77 88.20 44.42 87.19C44.93 86.90 45.29 86.54 45.58 86.04C46.94 86.76 49.10 88.34 50.11 89.28C52.78 84.96 54.00 79.34 54.65 73.73L62.86 73.73L62.86 82.51C62.86 83.23 62.64 83.45 61.99 83.52C61.34 83.52 59.33 83.52 57.24 83.45C57.89 84.96 58.68 87.55 58.82 89.14C62.28 89.14 64.58 89.06 66.31 88.06C67.97 87.05 68.40 85.39 68.40 82.58Z"/></svg>
