<svg xmlns="http://www.w3.org/2000/svg" xmlns:xlink="http://www.w3.org/1999/xlink" width="72.00000000000001" height="106.56000000000002"><path fill="red" stroke="red" d="M68.69 40.75C67.54 37.30 64.73 31.90 62.06 27.79L57.24 29.81C59.69 33.91 62.50 39.53 63.72 43.06ZM49.10 30.53L41.33 30.53C40.46 28.37 39.02 25.56 37.73 23.47L32.26 25.20C33.19 26.78 34.20 28.73 34.92 30.53L25.78 30.53L25.78 35.71L49.10 35.71ZM26.14 65.23C25.56 61.70 23.98 55.73 22.46 51.19L18.29 52.20C18.86 54.07 19.44 56.09 20.02 58.18L12.17 59.47C17.21 52.99 22.18 44.93 25.99 37.08L20.88 34.42C19.66 37.44 18.14 40.61 16.56 43.49L10.66 43.99C13.97 38.66 17.21 31.97 19.58 25.56L14.04 23.33C11.88 30.89 7.78 39.10 6.41 41.11C5.18 43.27 4.03 44.71 2.95 45.00C3.60 46.51 4.46 49.25 4.75 50.47C5.76 50.04 7.27 49.61 13.54 48.82C11.38 52.63 9.36 55.51 8.35 56.74C6.41 59.40 4.90 61.20 3.53 61.56C4.10 62.93 5.04 65.66 5.26 66.74C6.62 66.10 8.64 65.38 21.02 62.93C21.31 64.30 21.53 65.59 21.67 66.60ZM5.83 69.48C5.26 75.24 4.32 81.58 2.74 85.90C3.89 86.26 6.12 86.90 7.06 87.48C8.50 83.09 9.72 76.46 10.37 70.20ZM12.17 70.20C13.03 75.02 13.82 81.29 13.90 85.39L18.36 84.38C18.14 80.28 17.35 74.09 16.49 69.34ZM18.72 69.12C20.16 73.44 21.96 79.20 22.68 82.94L26.86 81.50C26.14 77.76 24.34 72.22 22.75 67.82ZM33.48 74.30L33.48 68.54L42.41 68.54L42.41 74.30ZM42.41 58.32L42.41 63.86L33.48 63.86L33.48 58.32ZM62.64 53.06C61.56 57.02 60.05 60.77 58.18 64.30C57.60 60.12 57.17 55.37 56.81 50.04L68.33 50.04L68.33 44.71L56.52 44.71C56.16 38.02 55.94 30.82 55.94 23.40L50.33 23.40C50.47 30.89 50.62 38.02 50.98 44.71L44.86 44.71C45.72 42.41 46.58 39.60 47.45 37.15L42.05 35.86C41.54 38.45 40.61 41.98 39.82 44.71L35.35 44.71C35.06 42.12 34.20 38.59 33.19 35.86L28.66 36.79C29.45 39.31 30.10 42.26 30.38 44.71L24.48 44.71L24.48 50.04L51.26 50.04C51.84 58.25 52.56 65.52 53.71 71.28C51.98 73.58 49.97 75.82 47.81 77.76L47.81 53.57L28.37 53.57L28.37 84.10L33.48 84.10L33.48 78.98L42.41 78.98L42.41 80.78L44.35 80.78C43.06 81.86 41.62 82.87 40.18 83.81C41.40 84.74 43.34 86.90 44.14 88.06C48.38 85.18 52.13 81.79 55.37 77.98C57.17 83.81 59.69 87.12 63.14 87.19C65.52 87.26 68.11 84.82 69.48 74.59C68.62 74.16 66.24 72.43 65.38 71.14C64.94 76.68 64.22 79.85 63.22 79.85C61.85 79.78 60.55 77.04 59.47 72.29C62.93 66.96 65.66 60.91 67.68 54.36Z"/></svg>
