<svg xmlns="http://www.w3.org/2000/svg" xmlns:xlink="http://www.w3.org/1999/xlink" width="72.00000000000001" height="106.56000000000002"><path fill="red" stroke="red" d="M17.35 65.02L54.36 65.02L54.36 68.69L17.35 68.69ZM17.35 56.95L54.36 56.95L54.36 60.62L17.35 60.62ZM30.60 30.67L40.90 30.67L40.90 36.36L30.60 36.36ZM24.48 36.36L14.54 36.36L14.54 30.67L24.48 30.67ZM47.02 30.67L57.46 30.67L57.46 36.36L47.02 36.36ZM67.90 76.90L39.24 76.90L39.24 73.30L61.13 73.30L61.13 52.34L38.45 52.34L38.45 49.10L64.37 49.10L64.37 44.50L38.45 44.50L38.45 41.40L64.15 41.40L64.15 25.70L8.14 25.70L8.14 41.40L31.68 41.40L31.68 52.34L10.94 52.34L10.94 73.30L32.47 73.30L32.47 76.90L4.10 76.90L4.10 82.15L32.47 82.15L32.47 89.14L39.24 89.14L39.24 82.15L67.90 82.15Z"/></svg>
