<svg xmlns="http://www.w3.org/2000/svg" xmlns:xlink="http://www.w3.org/1999/xlink" width="72.00000000000001" height="106.56000000000002"><path fill="red" stroke="red" d="M17.71 65.74L17.71 70.56L11.02 70.56L11.02 65.74ZM28.66 70.56L22.46 70.56L22.46 65.74L28.66 65.74ZM22.46 80.28L22.46 75.10L28.66 75.10L28.66 80.28ZM11.02 75.10L17.71 75.10L17.71 80.28L11.02 80.28ZM17.28 59.40L22.97 59.40L22.97 49.75C26.35 52.56 30.46 56.30 32.18 58.32L35.57 53.06C33.98 51.77 27.79 47.45 24.19 45.14L34.70 45.14L34.70 40.10L29.81 40.10C31.03 37.80 32.18 34.99 33.41 32.33L28.37 30.74C27.65 33.41 26.14 37.44 24.84 40.10L22.97 40.10L22.97 29.95C27.22 29.45 31.25 28.80 34.56 28.01L31.10 23.47C24.62 24.98 13.32 26.21 3.96 26.78C4.54 28.01 5.18 29.95 5.40 31.25C9.14 31.10 13.25 30.82 17.28 30.46L17.28 40.10L10.30 40.10L14.04 38.95C13.54 37.08 12.31 33.98 11.23 31.68L6.77 32.76C7.78 35.06 8.78 38.23 9.29 40.10L3.67 40.10L3.67 45.14L14.90 45.14C11.66 49.39 6.77 53.93 2.59 56.30C3.60 57.89 4.68 60.55 5.26 62.28L5.90 61.85L5.90 89.14L11.02 89.14L11.02 85.39L28.66 85.39L28.66 88.27L33.91 88.27L33.91 60.62L7.49 60.62C10.94 57.82 14.47 53.78 17.28 49.82ZM51.12 26.35L36.65 26.35L36.65 31.97L45.72 31.97L45.72 57.10C41.76 61.49 37.80 65.66 35.14 68.33L38.02 72.94C40.39 70.42 43.13 67.54 45.72 64.58L45.72 82.08C45.72 83.02 45.43 83.30 44.57 83.30C43.78 83.38 41.26 83.38 38.59 83.23C39.38 84.74 40.25 87.41 40.39 88.92C44.28 88.92 47.02 88.78 48.82 87.77C50.62 86.83 51.12 85.10 51.12 82.15ZM36.07 39.60C37.94 44.21 39.82 50.26 40.54 53.86L45.14 52.27C44.35 48.74 42.34 42.91 40.39 38.45ZM67.25 26.42L52.78 26.42L52.78 32.11L61.70 32.11L61.70 56.95C57.96 60.98 54.14 64.80 51.62 67.32L54.50 71.86C56.81 69.55 59.26 66.96 61.70 64.22L61.70 82.01C61.70 82.94 61.42 83.23 60.55 83.23C59.62 83.30 56.81 83.30 53.93 83.16C54.79 84.74 55.66 87.48 55.94 89.06C60.05 89.06 63.00 88.85 64.80 87.84C66.67 86.90 67.25 85.10 67.25 82.08ZM61.13 52.13C60.48 48.67 58.61 42.77 56.81 38.38L52.42 39.31C54.07 43.85 55.87 49.82 56.52 53.42Z"/></svg>
