<svg xmlns="http://www.w3.org/2000/svg" xmlns:xlink="http://www.w3.org/1999/xlink" width="72.00000000000001" height="106.56000000000002"><path fill="red" stroke="red" d="M18.94 41.11L12.46 41.11L12.46 32.04L18.94 32.04ZM12.46 71.57L12.46 61.27L18.94 61.27L18.94 70.27ZM18.94 55.73L12.46 55.73L12.46 46.58L18.94 46.58ZM27.86 32.04L27.86 26.06L3.82 26.06L3.82 32.04L6.91 32.04L6.91 72.50C5.26 72.79 3.82 73.08 2.45 73.30L3.60 79.42C8.06 78.55 13.46 77.33 18.94 76.18L18.94 89.21L24.55 89.21L24.55 32.04ZM35.06 35.14C39.17 33.19 44.14 30.46 48.10 27.65L43.20 23.54C39.74 26.42 33.84 30.24 29.59 32.33L29.59 66.38C29.59 69.19 27.86 70.56 26.71 71.14C27.50 72.14 28.73 74.23 29.09 75.38C30.10 74.66 31.61 73.73 39.74 71.14C38.09 76.39 34.85 81.43 28.87 84.96C30.17 85.97 31.82 88.06 32.54 89.28C45.58 81.07 47.02 67.32 47.02 56.30L47.02 35.64L41.62 35.64L41.62 56.23C41.62 59.04 41.54 62.28 41.04 65.52L35.06 67.18ZM66.89 29.95L49.75 29.95L49.75 89.21L55.15 89.21L55.15 35.57L61.42 35.57L61.42 69.91C61.42 70.70 61.13 70.92 60.48 70.99C59.83 70.99 57.89 70.99 55.58 70.92C56.38 72.43 57.10 75.10 57.31 76.75C60.98 76.75 63.22 76.61 64.87 75.60C66.46 74.59 66.89 72.79 66.89 70.06Z"/></svg>
