<svg xmlns="http://www.w3.org/2000/svg" xmlns:xlink="http://www.w3.org/1999/xlink" width="72.00000000000001" height="106.56000000000002"><path fill="red" stroke="red" d="M59.54 49.25L46.44 49.25L46.44 33.98L59.54 33.98ZM66.02 28.30L40.32 28.30L40.32 54.86L66.02 54.86ZM15.41 47.16L27.43 47.16L27.43 50.83C23.33 51.12 19.22 51.34 15.41 51.55ZM27.43 31.18L27.43 35.14L15.41 35.14L15.41 31.18ZM15.41 39.02L27.43 39.02L27.43 43.27L15.41 43.27ZM27.43 59.18L33.48 59.18L33.48 31.18L38.09 31.18L38.09 26.28L3.96 26.28L3.96 31.18L9.43 31.18L9.43 51.91L3.38 52.20L3.89 57.38C10.37 57.02 18.86 56.38 27.43 55.66ZM39.24 81.58L39.24 76.46L64.37 76.46L64.37 70.99L39.24 70.99L39.24 65.45C47.88 64.80 56.02 63.86 62.42 62.71L58.68 57.67C47.23 59.83 26.86 61.13 9.94 61.49C10.51 62.93 11.23 65.16 11.30 66.67C18.00 66.60 25.34 66.31 32.54 65.95L32.54 70.99L7.78 70.99L7.78 76.46L32.54 76.46L32.54 81.58L4.46 81.58L4.46 86.98L68.18 86.98L68.18 81.58Z"/></svg>
