<svg xmlns="http://www.w3.org/2000/svg" xmlns:xlink="http://www.w3.org/1999/xlink" width="72.00000000000001" height="106.56000000000002"><path fill="red" stroke="red" d="M12.46 44.06C14.33 46.22 16.20 48.74 17.28 50.47L19.44 48.96L19.44 57.53C16.70 59.40 14.18 61.06 12.17 62.21C12.38 58.18 12.46 54.43 12.46 51.12ZM19.44 31.82L19.44 45.36C18.14 43.63 16.49 41.90 15.05 40.32L12.46 42.05L12.46 31.82ZM24.91 25.70L6.98 25.70L6.98 51.12C6.98 61.56 6.62 75.67 2.38 85.61C3.60 86.26 5.98 88.27 6.91 89.42C10.15 82.15 11.52 72.43 12.10 63.43L14.11 67.90C15.91 66.46 17.64 64.94 19.44 63.36L19.44 81.86C19.44 82.80 19.15 83.09 18.29 83.16C17.50 83.16 14.83 83.23 11.95 83.09C12.74 84.60 13.46 87.26 13.68 88.78C18.07 88.78 20.81 88.63 22.54 87.62C24.34 86.69 24.91 84.89 24.91 81.94ZM38.23 72.58C35.57 77.18 31.10 81.94 26.78 85.10C28.22 86.04 30.82 88.06 32.04 89.14C36.36 85.61 41.47 79.92 44.57 74.45ZM51.05 75.02C55.08 79.34 59.83 85.25 61.85 89.06L67.90 86.04C65.52 82.22 60.77 76.54 56.66 72.43ZM34.70 54.29L40.10 54.29L40.10 65.45L34.70 65.45ZM40.10 38.16L40.10 48.60L34.70 48.60L34.70 38.16ZM60.19 48.60L54.86 48.60L54.86 38.16L60.19 38.16ZM54.86 54.29L60.19 54.29L60.19 65.45L54.86 65.45ZM50.04 54.29L50.04 65.45L45.00 65.45L45.00 54.29ZM50.04 38.16L50.04 48.60L45.00 48.60L45.00 38.16ZM65.95 65.45L65.95 32.18L55.94 32.18L55.94 23.04L50.04 23.04L50.04 32.18L45.00 32.18L45.00 23.11L39.10 23.11L39.10 32.18L29.23 32.18L29.23 65.45L26.21 65.45L26.21 71.42L68.98 71.42L68.98 65.45Z"/></svg>
