<svg xmlns="http://www.w3.org/2000/svg" xmlns:xlink="http://www.w3.org/1999/xlink" width="72.00000000000001" height="106.56000000000002"><path fill="red" stroke="red" d="M59.11 39.60L37.30 39.60L37.30 34.49L59.11 34.49ZM59.11 49.90L37.30 49.90L37.30 44.57L59.11 44.57ZM65.45 29.23L50.62 29.23C51.55 27.65 52.49 25.92 53.42 24.19L45.86 22.97C45.36 24.77 44.57 27.14 43.78 29.23L31.18 29.23L31.18 55.15L65.45 55.15ZM13.10 44.28C15.05 46.44 17.06 48.82 18.14 50.47L20.81 48.31L20.81 56.52C17.86 58.61 15.05 60.48 12.89 61.78C13.03 58.18 13.10 54.65 13.10 51.55ZM20.81 31.82L20.81 45.22C19.30 43.56 17.42 41.54 15.70 39.96L13.10 41.83L13.10 31.82ZM40.82 60.48L39.74 60.62L29.02 60.62L29.02 66.24L37.44 66.24C35.42 73.30 31.75 78.62 26.86 81.72L26.86 80.93L26.86 25.70L7.20 25.70L7.20 51.62C7.20 61.99 6.91 76.32 2.81 86.40C4.32 86.83 6.91 88.42 8.14 89.35C11.09 82.22 12.24 72.65 12.74 63.79L15.05 67.75C16.92 66.10 18.86 64.37 20.81 62.64L20.81 80.86C20.81 81.79 20.52 82.08 19.66 82.15C18.79 82.15 16.20 82.15 13.39 82.01C14.26 83.74 15.05 86.69 15.12 88.34C19.66 88.34 22.39 88.20 24.41 87.12C26.06 86.18 26.71 84.46 26.86 81.86C28.08 82.80 30.10 85.03 30.96 86.33C37.44 81.86 42.34 73.73 44.42 61.78ZM62.71 58.82C60.84 61.13 57.74 64.15 55.01 66.53C53.86 64.58 52.92 62.64 52.13 60.91L52.13 56.52L45.94 56.52L45.94 82.44C45.94 83.16 45.72 83.38 44.93 83.38C44.14 83.45 41.54 83.45 39.02 83.38C39.82 84.96 40.61 87.48 40.75 89.14C44.78 89.14 47.59 89.06 49.61 88.13C51.62 87.19 52.13 85.54 52.13 82.51L52.13 71.21C55.30 76.54 59.76 82.15 65.23 85.61C66.24 84.10 68.11 81.72 69.48 80.64C65.02 78.34 61.20 74.81 58.18 71.06C61.34 68.69 64.94 65.59 68.04 62.71Z"/></svg>
