<svg xmlns="http://www.w3.org/2000/svg" xmlns:xlink="http://www.w3.org/1999/xlink" width="72.00000000000001" height="106.56000000000002"><path fill="red" stroke="red" d="M53.42 38.30L59.40 38.30L59.40 33.70L68.69 33.70L68.69 28.08L59.40 28.08L59.40 23.11L53.42 23.11L53.42 28.08L47.74 28.08L47.74 33.70L53.42 33.70ZM33.84 39.31L39.74 39.31L39.74 33.70L45.07 33.70L45.07 28.08L39.74 28.08L39.74 23.11L33.84 23.11L33.84 28.08L24.12 28.08L24.12 33.70L33.84 33.70ZM11.16 45.29C12.67 47.16 14.04 49.32 14.90 50.69L17.14 49.18L17.14 57.74C14.83 59.54 12.67 61.20 10.94 62.35C11.09 58.46 11.16 54.72 11.16 51.48ZM17.14 31.82L17.14 45.72C15.91 44.14 14.54 42.41 13.18 40.90L11.16 42.19L11.16 31.82ZM21.96 25.70L6.19 25.70L6.19 51.55C6.19 62.06 5.98 76.46 2.38 86.62C3.67 87.12 5.90 88.34 6.84 89.14C9.22 82.22 10.37 73.08 10.80 64.58L12.53 68.18C14.04 66.82 15.62 65.30 17.14 63.86L17.14 82.73C17.14 83.59 16.85 83.81 16.13 83.81C15.41 83.88 13.18 83.88 10.73 83.81C11.38 85.25 12.10 87.62 12.24 88.99C15.84 88.99 18.29 88.85 19.87 87.98C21.46 87.05 21.96 85.46 21.96 82.80ZM42.55 72.72L45.58 72.72L45.58 76.61L42.55 76.61ZM45.58 56.23L45.58 60.12L42.55 60.12L42.55 56.23ZM49.18 68.54L42.55 68.54L42.55 64.22L49.18 64.22ZM63.86 52.70C63.00 57.38 61.70 61.85 60.19 65.88C59.69 60.70 59.33 54.72 59.11 48.17L69.19 48.17L69.19 42.84L66.10 42.84L69.41 40.54C68.18 38.95 65.59 36.72 63.43 35.35L59.83 37.73C61.85 39.24 64.15 41.26 65.45 42.84L59.04 42.84L58.97 38.95L53.78 38.95L53.86 42.84L31.82 42.84L31.82 54.86L28.73 54.86L28.73 43.34L24.55 43.34L24.55 59.69L31.82 59.69L31.82 61.34L31.82 64.37L23.11 64.37L23.11 69.05L25.06 69.05C24.77 74.45 24.19 79.27 22.25 82.80C23.26 83.23 25.06 84.24 25.92 84.82C27.94 80.78 28.80 75.17 29.16 69.05L31.68 69.05C31.32 75.17 30.46 81.86 27.94 86.98C29.23 87.48 31.54 88.56 32.62 89.35C36.29 81.58 36.86 69.77 36.86 61.42L36.86 48.17L54.07 48.17C54.43 58.25 55.15 67.10 56.38 74.16C55.30 75.82 54.36 77.47 53.21 78.98L53.21 76.61L49.10 76.61L49.10 72.72L53.21 72.72L53.21 60.12L49.10 60.12L49.10 56.23L53.21 56.23L53.21 52.06L38.74 52.06L38.74 80.78L51.84 80.78C50.47 82.58 48.89 84.10 47.38 85.46C48.53 86.18 50.04 87.62 50.83 88.56C53.35 86.33 55.66 83.66 57.82 80.64C59.40 85.97 61.63 88.99 64.66 89.06C66.74 89.06 68.98 86.90 70.20 78.41C69.19 77.90 67.39 76.61 66.46 75.46C66.10 80.14 65.52 82.80 64.73 82.80C63.36 82.73 62.21 79.85 61.34 74.88C64.44 69.19 66.82 62.42 68.40 55.01Z"/></svg>
