<svg xmlns="http://www.w3.org/2000/svg" xmlns:xlink="http://www.w3.org/1999/xlink" width="72.00000000000001" height="106.56000000000002"><path fill="red" stroke="red" d="M11.09 65.81L17.14 65.81L17.14 78.19L11.09 78.19ZM17.14 33.19L17.14 43.20L11.09 43.20L11.09 33.19ZM24.34 59.83L11.09 59.83L11.09 49.18L24.34 49.18ZM22.97 65.81L30.24 65.81L30.24 43.20L22.97 43.20L22.97 33.19L31.32 33.19L31.32 27.22L5.26 27.22L5.26 84.24L31.39 84.24L31.39 78.19L22.97 78.19ZM67.39 36.22L67.39 30.24L41.83 30.24C42.70 28.44 43.56 26.50 44.28 24.70L38.30 23.04C36.07 29.23 32.33 35.28 28.15 39.31C29.45 40.18 31.82 42.48 32.76 43.49C34.78 41.47 36.65 39.02 38.52 36.22ZM43.27 45.72L58.03 45.72L58.03 53.06L43.27 53.06ZM63.86 58.32L63.86 40.46L37.58 40.46L37.58 58.32ZM43.63 67.61L43.63 79.63L37.66 79.63L37.66 67.61ZM32.76 88.99L37.66 88.99L37.66 84.96L43.63 84.96L43.63 88.06L48.74 88.06L48.74 62.21L32.76 62.21ZM56.66 79.63L56.66 67.61L63.00 67.61L63.00 79.63ZM51.70 62.21L51.70 89.14L56.66 89.14L56.66 84.96L63.00 84.96L63.00 88.34L68.18 88.34L68.18 62.21Z"/></svg>
