<svg xmlns="http://www.w3.org/2000/svg" xmlns:xlink="http://www.w3.org/1999/xlink" width="72.00000000000001" height="106.56000000000002"><path fill="red" stroke="red" d="M37.51 61.27L47.81 61.27L44.93 63.72C47.38 64.80 50.33 66.38 52.63 67.82L37.44 67.82C37.51 67.10 37.51 66.38 37.51 65.74ZM18.86 51.77L52.42 51.77L52.42 56.23L18.86 56.23ZM18.86 42.70L52.42 42.70L52.42 47.02L18.86 47.02ZM18.86 33.62L52.42 33.62L52.42 37.94L18.86 37.94ZM67.03 73.58L67.03 67.82L56.95 67.82L58.75 66.10C56.74 64.58 52.99 62.64 49.82 61.27L59.76 61.27L59.76 28.58L36.72 28.58C37.51 27.07 38.38 25.49 39.17 23.76L31.32 23.04C30.96 24.62 30.24 26.71 29.52 28.58L11.88 28.58L11.88 61.27L31.03 61.27L31.03 65.59C31.03 66.24 30.96 67.03 30.82 67.82L5.26 67.82L5.26 73.58L27.94 73.58C24.48 77.40 17.28 81.14 3.02 83.88C4.39 85.25 6.34 87.70 7.06 89.21C25.06 85.39 32.69 79.56 35.78 73.58L39.02 73.58L36.94 77.11C46.58 80.06 59.04 85.39 65.23 89.28L68.18 83.66C62.64 80.50 52.63 76.39 43.85 73.58Z"/></svg>
