<svg xmlns="http://www.w3.org/2000/svg" xmlns:xlink="http://www.w3.org/1999/xlink" width="72.00000000000001" height="106.56000000000002"><path fill="red" stroke="red" d="M53.64 48.02L46.80 48.02L46.80 53.71L53.64 53.71L53.64 70.27L44.93 70.27L44.93 75.82L68.11 75.82L68.11 70.27L59.69 70.27L59.69 53.71L66.31 53.71L66.31 48.02L59.69 48.02L59.69 31.97C62.50 31.03 65.09 29.88 67.46 28.80L62.86 24.41C58.46 27.00 50.76 29.66 43.92 31.39C44.64 32.62 45.36 34.56 45.72 35.86C48.31 35.28 50.98 34.63 53.64 33.84ZM12.89 41.33C14.11 44.50 15.62 48.67 16.27 51.41L20.38 49.68C19.80 47.09 18.22 42.98 16.78 39.82ZM11.66 37.15L21.89 37.15L21.89 53.14C18.29 53.64 14.83 54.07 11.66 54.50ZM40.97 48.24L39.96 48.38L36.72 48.38C38.74 42.26 41.18 34.49 42.91 28.08L29.02 28.08L29.02 33.62L35.64 33.62C33.84 40.03 31.68 47.02 29.74 52.20L29.74 52.06L26.78 52.49L26.78 31.90L18.14 31.90C19.08 29.52 20.02 26.71 20.88 24.05L14.62 22.82C14.18 25.42 13.39 28.94 12.67 31.90L6.98 31.90L6.98 55.01C5.33 55.22 3.89 55.37 2.52 55.51L3.38 61.20L6.98 60.70C6.91 69.19 6.26 79.34 2.30 86.54C3.53 87.12 5.62 88.34 6.55 89.21C10.80 81.43 11.59 69.41 11.66 59.98C14.90 59.47 18.36 59.04 21.89 58.54L21.89 82.01C21.89 82.94 21.60 83.23 20.74 83.23C20.02 83.23 17.35 83.30 14.54 83.16C15.26 84.60 15.98 87.05 16.20 88.49C20.23 88.49 22.82 88.34 24.48 87.41C26.21 86.54 26.78 84.89 26.78 82.01L26.78 57.82L30.10 57.31L29.81 53.57L38.66 53.57C38.23 58.75 37.58 63.43 36.65 67.54C35.64 65.02 34.85 61.99 34.20 58.54L29.74 59.90C30.96 66.10 32.54 70.99 34.34 74.74C32.62 79.20 30.31 82.73 27.43 84.96C28.58 86.04 30.10 87.98 30.82 89.42C33.70 86.98 36.00 83.95 37.87 80.21C42.91 86.47 49.68 87.98 57.60 87.98L67.75 87.98C68.04 86.33 68.83 83.59 69.70 82.08C67.25 82.15 59.83 82.15 57.96 82.15C51.05 82.15 44.78 80.71 40.18 74.45C42.41 67.75 43.63 59.26 44.21 48.67ZM20.59 72.29C19.94 69.55 18.14 65.16 16.63 61.78L12.74 63.14C14.11 66.60 15.84 71.14 16.56 74.02Z"/></svg>
