<svg xmlns="http://www.w3.org/2000/svg" xmlns:xlink="http://www.w3.org/1999/xlink" width="72.00000000000001" height="106.56000000000002"><path fill="red" stroke="red" d="M48.02 42.26L54.65 42.26L54.65 35.93L67.75 35.93L67.75 30.02L54.65 30.02L54.65 23.11L48.02 23.11L48.02 30.02L37.37 30.02L37.37 35.93L48.02 35.93ZM17.35 42.19L23.98 42.19L23.98 35.93L34.42 35.93L34.42 30.02L23.98 30.02L23.98 23.11L17.35 23.11L17.35 30.02L4.46 30.02L4.46 35.93L17.35 35.93ZM56.23 48.02L54.86 48.38L41.04 48.38C39.74 45.94 38.02 42.98 36.43 40.61L30.02 42.12C31.18 43.99 32.47 46.30 33.55 48.38L9.36 48.38L9.36 54.58L49.61 54.58C43.06 61.92 32.76 70.06 22.61 75.38C21.46 74.74 20.38 74.30 19.22 74.30C14.90 74.30 9.22 77.98 3.96 82.87L9.00 88.85C12.67 84.46 16.42 80.28 19.08 80.28C20.81 80.28 23.26 82.44 26.42 84.17C31.46 86.90 37.37 87.84 45.58 87.84C51.84 87.84 62.35 87.48 67.25 87.19C67.32 85.39 68.40 82.08 69.19 80.28C62.71 81.07 52.92 81.50 45.72 81.50C38.74 81.50 33.19 80.93 28.80 78.98C41.26 71.93 53.71 61.34 61.13 51.26Z"/></svg>
