<svg xmlns="http://www.w3.org/2000/svg" xmlns:xlink="http://www.w3.org/1999/xlink" width="72.00000000000001" height="106.56000000000002"><path fill="red" stroke="red" d="M47.66 39.46L54.07 39.46L54.07 34.63L67.68 34.63L67.68 28.73L54.07 28.73L54.07 23.18L47.66 23.18L47.66 28.73L37.58 28.73L37.58 34.63L47.66 34.63ZM18.50 39.46L24.91 39.46L24.91 34.70L33.91 34.70L33.91 28.73L24.91 28.73L24.91 23.18L18.50 23.18L18.50 28.73L4.03 28.73L4.03 34.70L18.50 34.70ZM22.68 75.17L22.68 69.34L49.10 69.34L49.10 75.17ZM49.10 48.10L49.10 53.28L22.68 53.28L22.68 48.10ZM22.68 58.75L49.10 58.75L49.10 63.94L22.68 63.94ZM68.11 75.17L55.73 75.17L55.73 48.10L65.95 48.10L65.95 42.05L5.90 42.05L5.90 48.10L16.20 48.10L16.20 75.17L3.89 75.17L3.89 81.22L49.10 81.22L49.10 89.21L55.73 89.21L55.73 81.22L68.11 81.22Z"/></svg>
