<svg xmlns="http://www.w3.org/2000/svg" xmlns:xlink="http://www.w3.org/1999/xlink" width="72.00000000000001" height="106.56000000000002"><path fill="red" stroke="red" d="M45.07 37.44L51.62 37.44L51.62 33.41L67.61 33.41L67.61 27.79L51.62 27.79L51.62 23.11L45.07 23.11L45.07 27.79L37.30 27.79L37.30 33.41L45.07 33.41ZM55.66 58.82L16.49 58.82L16.49 43.63L45.07 43.63C43.13 45.29 40.54 46.94 37.66 48.38C33.62 46.80 29.38 45.22 25.56 44.21L21.67 47.30C24.98 48.17 28.58 49.46 32.11 50.90C28.01 52.49 23.47 53.86 19.15 54.79C20.30 55.73 22.10 57.60 22.97 58.61C27.72 57.24 32.83 55.37 37.58 53.21C41.54 54.94 45.14 56.81 47.66 58.39L51.62 54.94C49.25 53.64 46.15 52.06 42.70 50.54C45.50 48.89 48.02 47.09 50.11 45.14L46.15 43.63L55.66 43.63ZM32.54 34.63C32.11 36.14 31.46 37.66 30.89 39.17L10.30 39.17L10.30 63.29L62.21 63.29L62.21 39.17L37.51 39.17C38.23 38.02 38.95 36.86 39.60 35.64ZM20.02 37.44L26.50 37.44L26.50 33.41L35.06 33.41L35.06 27.79L26.50 27.79L26.50 23.11L20.02 23.11L20.02 27.79L4.68 27.79L4.68 33.41L20.02 33.41ZM18.36 82.30L18.36 74.95L36.00 74.95L36.00 69.62L18.36 69.62L18.36 64.58L12.31 64.58L12.31 79.20C12.31 82.15 10.80 83.38 9.58 83.88C10.51 85.18 11.59 87.62 12.02 89.14C13.75 88.34 16.42 87.98 36.07 85.97C35.86 84.60 35.78 82.37 35.78 80.71ZM48.82 82.30C45.43 82.30 44.86 81.94 44.86 79.92L44.86 75.02L64.01 75.02L64.01 69.70L44.86 69.70L44.86 64.51L38.59 64.51L38.59 79.92C38.59 86.26 40.39 87.98 48.17 87.98L60.41 87.98C66.17 87.98 68.11 86.18 68.90 79.06C67.03 78.70 64.51 77.76 63.14 76.82C62.86 81.50 62.35 82.30 59.83 82.30Z"/></svg>
