<svg xmlns="http://www.w3.org/2000/svg" xmlns:xlink="http://www.w3.org/1999/xlink" width="72.00000000000001" height="106.56000000000002"><path fill="red" stroke="red" d="M45.72 38.30L52.34 38.30L52.34 33.70L67.61 33.70L67.61 27.94L52.34 27.94L52.34 23.11L45.72 23.11L45.72 27.94L37.15 27.94L37.15 33.70L45.72 33.70ZM19.58 38.30L26.21 38.30L26.21 33.70L34.63 33.70L34.63 27.94L26.21 27.94L26.21 23.11L19.58 23.11L19.58 27.94L4.39 27.94L4.39 33.70L19.58 33.70ZM31.90 45.07L31.90 50.18L13.54 50.18L13.54 45.07ZM13.54 55.15L38.02 55.15L38.02 40.10L7.70 40.10L7.70 55.80C7.70 64.37 7.20 76.46 2.38 85.03C3.74 85.61 6.34 87.19 7.49 88.13C12.67 78.98 13.54 65.23 13.54 55.87ZM36.86 62.93L36.86 58.39L16.06 58.39L16.06 62.93ZM16.34 73.30C15.26 77.04 13.46 80.86 11.23 83.59C12.38 84.17 14.47 85.39 15.48 86.11C17.71 83.16 19.87 78.62 21.17 74.38ZM39.38 71.14L39.38 66.46L13.18 66.46L13.18 71.14L23.83 71.14L23.83 88.56L29.52 88.56L29.52 71.14ZM31.32 74.88C33.48 78.05 35.64 82.37 36.43 85.18L41.11 83.02C40.10 80.21 37.94 76.03 35.64 72.94ZM69.12 49.18L61.85 49.18L61.85 38.30L55.51 38.30L55.51 49.18L39.53 49.18L39.53 55.08L55.51 55.08L55.51 81.58C55.51 82.66 55.15 82.94 54.07 83.02C52.99 83.02 49.54 83.02 45.86 82.87C46.73 84.67 47.59 87.48 47.81 89.21C53.14 89.21 56.66 89.06 58.90 87.98C61.13 86.98 61.85 85.18 61.85 81.65L61.85 55.08L69.12 55.08ZM52.20 72.65C51.34 68.83 48.96 63.14 46.22 58.82L41.33 60.62C43.85 64.87 46.22 70.78 46.94 74.66Z"/></svg>
