<svg xmlns="http://www.w3.org/2000/svg" xmlns:xlink="http://www.w3.org/1999/xlink" width="72.00000000000001" height="106.56000000000002"><path fill="red" stroke="red" d="M46.37 37.15L53.06 37.15L53.06 32.98L67.61 32.98L67.61 27.29L53.06 27.29L53.06 23.11L46.37 23.11L46.37 27.29L37.58 27.29L37.58 32.98L46.37 32.98ZM34.27 49.75L55.87 49.75L55.87 53.71L34.27 53.71ZM34.27 42.19L55.87 42.19L55.87 46.01L34.27 46.01ZM28.44 57.60L61.99 57.60L61.99 38.30L28.44 38.30ZM19.30 37.66L25.85 37.66L25.85 33.05L34.42 33.05L34.42 27.36L25.85 27.36L25.85 23.11L19.30 23.11L19.30 27.36L4.39 27.36L4.39 33.05L19.30 33.05ZM6.91 41.98C10.58 44.21 15.77 47.59 18.29 49.61L22.32 44.64C19.66 42.77 14.33 39.74 10.73 37.66ZM18.72 58.25C16.06 56.30 10.73 53.28 7.06 51.34L3.31 55.73C7.06 57.96 12.31 61.20 14.83 63.14ZM16.13 66.67C12.38 73.22 7.70 80.35 4.46 84.74L9.79 88.92C13.39 83.45 17.35 76.68 20.66 70.70ZM68.26 65.09L68.26 60.34L21.24 60.34L21.24 65.09L31.18 65.09C28.08 68.98 23.69 72.43 19.30 74.88C20.59 75.67 22.61 77.54 23.62 78.55C25.99 77.04 28.44 75.10 30.74 73.01L36.79 73.01C33.34 77.33 28.37 81.00 23.18 83.52C24.26 84.31 26.28 86.11 27.14 87.05C32.90 83.81 39.02 78.84 42.84 73.01L48.46 73.01C45.65 78.34 41.26 82.94 36.29 86.11C37.44 86.83 39.67 88.56 40.54 89.50C45.86 85.61 51.05 79.70 54.29 73.01L59.18 73.01C58.54 79.70 57.82 82.51 56.88 83.45C56.38 84.02 55.94 84.10 54.94 84.10C54.07 84.17 51.91 84.10 49.68 83.81C50.47 85.32 51.05 87.48 51.12 89.06C53.86 89.21 56.52 89.21 57.96 89.06C59.69 88.85 60.91 88.42 62.06 87.12C63.72 85.46 64.58 81.14 65.45 70.70C65.59 69.91 65.74 68.33 65.74 68.33L35.21 68.33C36.14 67.32 36.94 66.17 37.66 65.09Z"/></svg>
