<svg xmlns="http://www.w3.org/2000/svg" xmlns:xlink="http://www.w3.org/1999/xlink" width="72.00000000000001" height="106.56000000000002"><path fill="red" stroke="red" d="M20.30 37.30L26.86 37.30L26.86 33.41L34.70 33.41L34.70 27.79L26.86 27.79L26.86 23.04L20.30 23.04L20.30 27.79L4.68 27.79L4.68 33.41L20.30 33.41ZM6.34 41.33C10.30 43.34 15.26 46.51 17.64 48.74L21.74 43.85C19.15 41.62 14.11 38.81 10.22 37.01ZM18.94 57.31C16.27 55.08 10.87 52.13 6.70 50.47L3.02 55.08C7.27 56.95 12.53 60.12 15.05 62.35ZM10.08 88.85C13.39 83.30 17.21 76.61 20.16 70.70L15.55 66.74C12.10 73.22 7.78 80.35 4.68 84.74ZM47.66 59.62L47.66 57.17L58.25 57.17L58.25 59.62ZM31.32 59.62L31.32 57.17L41.62 57.17L41.62 59.62ZM41.62 50.90L41.62 53.64L31.32 53.64L31.32 50.90ZM58.25 50.90L58.25 53.64L47.66 53.64L47.66 50.90ZM47.66 37.30L51.70 37.30L51.70 33.41L55.51 33.41L52.70 36.79C54.50 37.58 56.74 38.74 58.61 39.96L47.66 39.96ZM68.18 70.85L57.60 70.85L57.60 69.48C59.54 69.48 61.06 69.26 62.28 68.76C64.01 68.11 64.37 67.10 64.37 64.58L64.37 46.94L47.66 46.94L47.66 44.42L67.32 44.42L67.32 39.96L62.86 39.96L64.37 37.94C62.57 36.50 59.26 34.63 56.30 33.41L67.46 33.41L67.46 27.79L51.70 27.79L51.70 23.04L45.07 23.04L45.07 27.79L37.73 27.79L37.73 33.41L45.07 33.41L45.07 36.58L41.62 36.58L41.62 39.96L22.39 39.96L22.39 44.42L41.62 44.42L41.62 46.94L25.13 46.94L25.13 68.54L31.32 68.54L31.32 63.22L41.62 63.22L41.62 67.61L47.66 67.61L47.66 63.22L58.25 63.22L58.25 64.37C58.25 65.02 58.03 65.23 57.31 65.23C56.66 65.30 55.01 65.30 52.92 65.23C53.35 66.02 53.93 67.18 54.36 68.18L51.34 68.18L51.34 70.85L21.46 70.85L21.46 76.03L29.88 76.03L28.01 78.12C31.61 80.21 36.14 83.52 38.38 85.68L42.26 81.14C40.61 79.70 37.73 77.69 34.99 76.03L51.34 76.03L51.34 82.44C51.34 83.16 51.05 83.38 50.18 83.45C49.39 83.45 46.44 83.45 43.49 83.30C44.21 84.89 45.07 87.19 45.36 88.85C49.75 88.85 52.85 88.78 54.94 87.91C57.10 87.05 57.60 85.54 57.60 82.51L57.60 76.03L68.18 76.03Z"/></svg>
