<svg xmlns="http://www.w3.org/2000/svg" xmlns:xlink="http://www.w3.org/1999/xlink" width="72.00000000000001" height="106.56000000000002"><path fill="red" stroke="red" d="M10.15 41.54L14.83 41.54L14.83 57.02L10.15 57.02ZM24.34 57.02L19.73 57.02L19.73 41.54L24.34 41.54ZM68.33 59.69L68.33 53.57L53.93 53.57L53.93 42.19L65.88 42.19L65.88 36.07L53.93 36.07L53.93 23.18L47.52 23.18L47.52 36.07L42.34 36.07C43.06 33.34 43.63 30.46 44.06 27.50L37.94 26.50C36.72 34.85 34.56 43.13 30.89 48.46C32.33 49.25 35.06 50.90 36.22 51.84C37.94 49.18 39.38 45.86 40.61 42.19L47.52 42.19L47.52 53.57L32.04 53.57L32.04 59.69L44.28 59.69C41.26 66.89 36.65 73.87 31.54 78.55C30.82 74.81 29.09 69.62 27.22 65.52L22.46 67.03C23.18 68.62 23.83 70.49 24.48 72.29L20.02 73.51L20.02 62.57L29.52 62.57L29.52 36.07L20.16 36.07L20.16 23.40L14.33 23.40L14.33 36.07L4.97 36.07L4.97 65.66L10.15 65.66L10.15 62.57L14.54 62.57L14.54 74.95C10.08 76.25 5.90 77.33 2.66 78.05L3.96 84.24C10.22 82.44 18.22 80.14 26.06 77.90C26.35 78.91 26.50 79.99 26.64 80.93L29.95 79.85C29.59 80.14 29.16 80.42 28.80 80.71C30.31 81.94 32.33 84.24 33.41 85.75C38.88 81.29 43.92 73.80 47.52 65.52L47.52 89.14L53.93 89.14L53.93 65.02C56.88 72.86 60.98 80.35 65.16 85.03C66.31 83.30 68.47 81.00 69.98 79.85C65.09 75.46 60.12 67.61 57.10 59.69Z"/></svg>
