<svg xmlns="http://www.w3.org/2000/svg" xmlns:xlink="http://www.w3.org/1999/xlink" width="72.00000000000001" height="106.56000000000002"><path fill="red" stroke="red" d="M9.86 41.33L13.32 41.33L13.32 57.82L9.86 57.82ZM20.66 57.82L17.28 57.82L17.28 41.33L20.66 41.33ZM19.87 67.18C20.59 69.77 21.31 72.79 21.82 75.74L17.57 76.39L17.57 63.36L25.27 63.36L25.27 35.78L18.07 35.78L18.07 23.26L12.67 23.26L12.67 35.78L5.33 35.78L5.33 66.96L9.86 66.96L9.86 63.36L13.03 63.36L13.03 77.11C9.14 77.69 5.62 78.19 2.81 78.55L3.74 84.46C9.14 83.59 15.91 82.37 22.68 81.22C22.90 82.80 23.04 84.31 23.11 85.54L27.65 84.67C27.29 79.70 25.85 72.29 24.19 66.38ZM54.50 45.50C56.30 47.81 58.18 50.40 59.18 52.20L61.42 50.69L61.42 58.18C58.75 60.19 56.23 61.99 54.29 63.29C54.43 60.48 54.50 57.67 54.50 55.15ZM61.42 31.46L61.42 47.30C60.05 45.36 58.39 43.34 56.74 41.54L54.50 43.06L54.50 31.46ZM40.61 74.45L33.62 74.45L33.62 60.91L40.61 60.91ZM66.89 25.92L49.18 25.92L49.18 55.08C49.18 62.64 48.82 71.64 45.86 79.27L45.86 55.66L40.25 55.66L40.25 43.92L47.45 43.92L47.45 38.23L40.25 38.23L40.25 23.54L34.70 23.54L34.70 38.23L27.14 38.23L27.14 43.92L34.70 43.92L34.70 55.66L28.58 55.66L28.58 82.66L33.62 82.66L33.62 79.63L45.79 79.63C44.86 82.01 43.63 84.24 42.19 86.26C43.56 86.83 45.86 88.34 46.87 89.28C51.77 82.66 53.57 73.08 54.22 64.37L56.30 68.98C58.03 67.39 59.69 65.88 61.42 64.22L61.42 82.58C61.42 83.38 61.13 83.66 60.34 83.66C59.69 83.66 57.38 83.74 54.94 83.66C55.66 85.03 56.38 87.55 56.59 88.99C60.48 88.99 62.93 88.85 64.66 87.91C66.38 86.98 66.89 85.32 66.89 82.66Z"/></svg>
