<svg xmlns="http://www.w3.org/2000/svg" xmlns:xlink="http://www.w3.org/1999/xlink" width="72.00000000000001" height="106.56000000000002"><path fill="red" stroke="red" d="M29.45 73.94L29.45 69.62L25.27 69.62C26.78 67.10 28.22 64.08 29.66 61.42L25.42 59.69C24.48 62.57 22.61 66.67 20.95 69.62L12.02 69.62L12.02 73.94L18.43 73.94L18.43 86.98L23.33 86.98L23.33 73.94ZM12.53 61.34C14.11 63.79 15.62 67.18 16.20 69.34L20.02 67.90C19.37 65.74 17.78 62.50 16.20 60.05ZM37.01 53.57L4.90 53.57L4.90 89.14L10.15 89.14L10.15 58.68L31.54 58.68L31.54 82.15C31.54 82.87 31.32 83.09 30.60 83.16C30.02 83.16 27.79 83.16 25.49 83.09C26.21 84.60 26.86 86.69 27.07 88.20C30.67 88.20 33.12 88.13 34.85 87.34C36.58 86.40 37.01 84.89 37.01 82.30ZM28.80 45.50L12.96 45.50L12.96 39.96L28.80 39.96ZM34.85 35.21L7.27 35.21L7.27 50.18L34.85 50.18ZM3.82 31.75L38.23 31.75L38.23 26.14L3.82 26.14ZM45.07 42.77L50.83 42.77L50.83 59.18L45.07 59.18ZM61.20 59.18L55.73 59.18L55.73 42.77L61.20 42.77ZM69.34 87.77C68.62 82.87 66.24 74.66 63.79 68.47L59.11 69.55C60.05 72.14 60.98 75.02 61.85 77.98L56.16 78.84L56.16 64.94L66.31 64.94L66.31 37.01L56.23 37.01L56.23 23.90L50.33 23.90L50.33 37.01L40.18 37.01L40.18 64.94L50.33 64.94L50.33 79.78C46.15 80.50 42.26 81.00 39.02 81.43L40.54 87.55C46.87 86.47 55.22 84.96 63.22 83.38C63.72 85.61 64.08 87.55 64.30 89.21Z"/></svg>
