<svg xmlns="http://www.w3.org/2000/svg" xmlns:xlink="http://www.w3.org/1999/xlink" width="72.00000000000001" height="106.56000000000002"><path fill="red" stroke="red" d="M25.56 63.14C24.98 62.42 23.69 60.91 22.32 59.11C23.90 57.38 25.63 55.22 27.29 53.21L23.18 50.26C22.32 51.84 20.88 53.93 19.44 55.80L17.93 53.93C20.88 48.67 23.40 42.91 25.20 37.08L21.67 34.85L20.52 35.14L14.11 35.14L19.15 32.47C17.93 29.88 15.34 25.92 13.18 22.97L7.70 25.34C9.65 28.37 12.10 32.47 13.25 35.14L3.46 35.14L3.46 41.11L17.57 41.11C14.04 50.26 7.92 59.40 1.80 64.66C2.88 65.74 4.61 68.90 5.18 70.70C6.98 68.98 8.86 66.96 10.66 64.66L10.66 89.14L16.63 89.14L16.63 60.19C18.58 62.86 20.52 65.74 21.60 67.68ZM38.16 74.52C40.75 77.18 43.34 81.07 44.50 83.59L49.54 80.50C48.24 78.05 45.58 74.45 42.84 71.86ZM61.63 61.13L55.58 61.13L55.58 66.24L35.28 66.24L35.28 71.50L55.58 71.50L55.58 82.80C55.58 83.66 55.37 83.88 54.43 83.95C53.57 83.95 50.54 83.95 47.45 83.81C48.24 85.39 49.03 87.62 49.25 89.21C53.78 89.21 56.95 89.14 58.97 88.34C61.06 87.48 61.63 85.90 61.63 83.02L61.63 71.50L68.54 71.50L68.54 66.24L61.63 66.24ZM63.58 47.02C62.06 48.24 59.83 49.75 57.82 50.98C56.02 49.61 54.14 48.31 52.34 47.02ZM34.34 42.19L34.34 38.74L64.87 38.74L64.87 34.27L34.34 34.27L34.34 31.18L67.75 31.18L67.75 26.06L28.22 26.06L28.22 47.66C28.22 58.90 27.50 74.38 19.94 85.10C21.53 85.68 24.26 87.19 25.42 88.06C33.19 76.82 34.34 59.69 34.34 47.66L34.34 47.02L39.02 47.02L39.02 54.72C39.02 57.53 38.02 58.68 37.08 59.33C37.80 60.34 38.95 62.42 39.31 63.65C40.39 62.93 42.26 62.06 52.34 59.33C52.20 58.25 52.06 56.09 52.13 54.72L44.28 56.45L44.28 47.02L49.75 47.02L47.45 49.18C53.35 53.35 60.77 59.47 64.58 63.00L67.90 58.97C66.31 57.53 64.01 55.66 61.42 53.64C63.36 52.63 65.38 51.55 67.18 50.26L64.30 47.02L68.76 47.02L68.76 42.19Z"/></svg>
