<svg xmlns="http://www.w3.org/2000/svg" xmlns:xlink="http://www.w3.org/1999/xlink" width="72.00000000000001" height="106.56000000000002"><path fill="red" stroke="red" d="M53.35 76.39C51.26 77.90 48.74 79.13 45.79 80.28C42.48 79.13 39.38 77.90 36.72 76.39ZM35.14 64.15L56.52 64.15L56.52 66.67L35.14 66.67ZM35.14 58.54L56.52 58.54L56.52 61.06L35.14 61.06ZM14.40 37.15L24.34 37.15L24.34 40.90L14.40 40.90ZM30.31 30.10L40.90 30.10L40.90 32.98L30.31 32.98ZM57.82 37.15L57.82 40.90L47.16 40.90L47.16 37.15ZM30.31 40.90L30.31 37.15L40.90 37.15L40.90 40.90ZM59.04 72.22L57.89 72.43L41.83 72.43C42.70 71.64 43.56 70.85 44.28 69.98L62.35 69.98L62.35 55.22L32.40 55.22C32.98 54.50 33.48 53.86 33.91 53.06L66.02 53.06L66.02 48.53L36.72 48.53C37.08 47.81 37.37 47.02 37.73 46.37L33.05 45.07L64.15 45.07L64.15 32.98L47.16 32.98L47.16 30.10L67.10 30.10L67.10 25.42L5.04 25.42L5.04 30.10L24.34 30.10L24.34 32.98L8.35 32.98L8.35 45.07L31.82 45.07C29.81 49.54 26.57 53.78 22.97 56.95L18.00 55.22C14.98 60.55 8.64 66.67 2.66 70.42C3.74 71.35 5.47 73.44 6.34 74.66C8.21 73.44 10.15 71.93 12.02 70.42L12.02 89.21L17.93 89.21L17.93 64.66C19.51 62.93 20.95 61.20 22.25 59.40C23.54 60.41 24.98 61.70 25.70 62.50C27.00 61.42 28.30 60.12 29.59 58.68L29.59 69.98L37.30 69.98C35.86 71.21 34.06 72.36 32.11 73.44C30.89 72.50 29.81 71.42 28.80 70.42L24.19 72.14C25.27 73.37 26.42 74.52 27.65 75.60C25.99 76.39 24.12 77.11 22.32 77.76C23.40 78.55 25.06 80.35 25.85 81.36C27.94 80.64 30.02 79.78 31.97 78.77C33.91 80.14 36.22 81.36 38.52 82.44C32.98 83.66 26.86 84.46 20.59 84.82C21.53 86.04 22.61 87.91 23.11 89.35C30.96 88.56 38.74 87.34 45.50 85.10C51.41 87.05 58.03 88.34 64.87 89.14C65.45 87.70 66.74 85.61 67.90 84.46C62.57 84.02 57.53 83.23 52.70 82.15C56.74 80.06 60.12 77.47 62.50 74.23ZM16.34 45.50C13.61 49.54 8.06 54.22 3.02 57.02C4.18 57.96 6.05 59.98 6.98 61.20C12.53 57.89 18.43 52.56 22.18 47.38Z"/></svg>
