<svg xmlns="http://www.w3.org/2000/svg" xmlns:xlink="http://www.w3.org/1999/xlink" width="72.00000000000001" height="106.56000000000002"><path fill="red" stroke="red" d="M22.54 69.34L22.54 79.63L12.10 79.63L12.10 69.34ZM28.37 63.94L6.41 63.94L6.41 88.27L12.10 88.27L12.10 85.03L28.37 85.03ZM6.48 59.40L28.08 59.40L28.08 54.22L6.48 54.22ZM28.08 44.71L6.48 44.71L6.48 49.97L28.08 49.97ZM21.96 32.18C20.88 29.59 18.58 25.78 16.56 22.75L11.38 25.42C13.25 28.37 15.48 32.47 16.49 35.14L3.46 35.14L3.46 40.46L30.46 40.46L30.46 35.14L16.63 35.14ZM60.41 52.42C63.58 52.42 67.10 52.27 68.54 51.84C68.33 50.40 67.97 47.95 67.90 46.15C66.10 46.51 62.42 46.66 60.05 46.66L43.92 46.66C40.97 46.66 40.32 45.72 40.32 43.06L40.32 37.22L66.02 37.22L66.02 31.46L40.32 31.46L40.32 24.12L33.70 24.12L33.70 42.84C33.70 49.90 36.00 52.42 43.85 52.42ZM59.54 62.71L59.54 68.76L40.82 68.76L40.82 62.71ZM40.82 80.35L40.82 74.02L59.54 74.02L59.54 80.35ZM34.56 89.14L40.82 89.14L40.82 85.90L59.54 85.90L59.54 88.85L66.10 88.85L66.10 57.17L34.56 57.17Z"/></svg>
