<svg xmlns="http://www.w3.org/2000/svg" xmlns:xlink="http://www.w3.org/1999/xlink" width="72.00000000000001" height="106.56000000000002"><path fill="red" stroke="red" d="M60.41 47.02C60.41 47.59 60.26 47.74 59.69 47.81L55.73 47.81C56.30 49.10 56.74 50.76 56.88 52.13C59.98 52.13 62.21 52.13 63.79 51.41C65.30 50.62 65.74 49.46 65.74 47.09L65.74 25.99L47.74 25.99L47.74 30.82L60.41 30.82ZM48.17 34.13C50.18 36.00 52.70 38.74 54.00 40.39L57.74 37.73C56.38 36.14 53.86 33.62 51.84 31.82ZM59.04 39.60C54.65 41.47 50.40 43.20 47.38 44.28L49.75 48.24C52.99 46.73 56.52 45.00 59.98 43.20ZM29.52 49.03C32.83 47.38 36.50 45.65 40.03 43.78L39.10 40.18C34.63 42.12 30.31 43.92 27.07 45.00ZM37.73 37.73C36.36 36.14 33.84 33.55 31.82 31.82L28.22 34.13C30.24 36.07 32.76 38.74 34.06 40.39ZM18.36 32.69C17.64 30.10 16.06 26.14 14.54 23.18L8.93 24.84C10.22 28.01 11.81 32.11 12.46 34.70ZM26.78 34.99L3.02 34.99L3.02 40.32L26.78 40.32ZM25.56 49.54L25.56 44.35L4.61 44.35L4.61 49.54ZM25.56 54.07L4.61 54.07L4.61 59.26L25.56 59.26ZM19.66 69.34L19.66 79.78L10.58 79.78L10.58 69.34ZM24.98 64.01L5.33 64.01L5.33 88.20L10.58 88.20L10.58 85.18L24.98 85.18ZM61.06 70.85C54.94 78.05 42.19 82.22 27.29 84.02C28.51 85.39 29.81 87.48 30.38 88.99C46.30 86.62 59.40 81.86 66.67 73.22ZM54.79 65.23C49.61 69.55 39.24 73.15 30.17 74.95C31.32 76.10 32.62 77.76 33.41 78.91C43.13 76.82 53.50 72.79 59.83 67.54ZM48.96 59.04C44.93 62.42 37.15 65.52 30.82 67.25C32.04 68.18 33.41 69.62 34.27 70.70C40.97 68.69 48.82 65.38 53.71 61.27ZM47.74 48.17C46.87 49.03 45.86 49.90 44.71 50.69C45.36 49.97 45.58 49.03 45.58 47.38L45.58 25.99L28.08 25.99L28.08 30.82L40.46 30.82L40.46 47.38C40.46 47.95 40.25 48.10 39.67 48.17C39.10 48.17 37.44 48.17 35.50 48.10C36.07 49.32 36.50 50.76 36.58 51.98C39.82 51.98 42.19 51.98 43.63 51.34C38.45 54.72 31.46 57.60 25.20 59.40C26.57 60.55 28.08 62.42 28.80 63.79C35.14 61.70 41.83 58.61 47.30 54.79C54.36 59.40 60.41 61.78 65.09 63.29C65.95 61.63 67.68 59.54 68.98 58.39C64.22 57.24 57.82 55.44 50.98 51.84C51.55 51.41 52.06 50.90 52.56 50.40Z"/></svg>
