<svg xmlns="http://www.w3.org/2000/svg" xmlns:xlink="http://www.w3.org/1999/xlink" width="72.00000000000001" height="106.56000000000002"><path fill="red" stroke="red" d="M25.63 39.24L12.82 39.24L12.82 31.32L25.63 31.32ZM25.63 52.49L12.82 52.49L12.82 44.42L25.63 44.42ZM25.63 65.74L12.82 65.74L12.82 57.53L25.63 57.53ZM32.18 25.85L6.48 25.85L6.48 71.14L32.18 71.14ZM11.16 72.29C9.43 77.26 6.12 82.15 2.45 85.32C3.89 86.26 6.55 88.20 7.78 89.28C11.59 85.61 15.34 79.70 17.57 73.87ZM21.10 74.66C24.05 78.26 27.22 83.30 28.66 86.62L34.34 83.66C32.90 80.42 29.59 75.67 26.57 72.22ZM69.19 39.96L60.62 39.96L60.62 23.33L54.00 23.33L54.00 39.96L34.20 39.96L34.20 46.22L51.55 46.22C47.16 56.95 40.03 67.46 32.33 73.01C33.84 74.16 35.86 76.39 36.94 77.83C43.42 72.58 49.39 64.15 54.00 54.79L54.00 81.22C54.00 82.37 53.57 82.73 52.42 82.73C51.41 82.80 48.02 82.80 44.28 82.66C45.29 84.46 46.37 87.41 46.66 89.21C51.91 89.21 55.37 88.92 57.60 87.91C59.76 86.76 60.62 84.82 60.62 81.22L60.62 46.22L69.19 46.22Z"/></svg>
