<svg xmlns="http://www.w3.org/2000/svg" xmlns:xlink="http://www.w3.org/1999/xlink" width="72.00000000000001" height="106.56000000000002"><path fill="red" stroke="red" d="M59.54 46.15C62.50 46.15 65.81 46.01 67.39 45.65C67.10 44.14 66.89 42.05 66.67 40.18C65.09 40.46 61.42 40.68 59.11 40.68L44.71 40.68C42.12 40.68 41.62 39.74 41.62 37.44L41.62 34.13L64.01 34.13L64.01 28.73L41.62 28.73L41.62 23.33L34.92 23.33L34.92 37.37C34.92 43.63 36.79 46.15 44.21 46.15ZM16.13 46.73L22.54 46.73L22.54 32.26C25.27 30.02 27.79 27.58 29.81 24.98L23.83 22.68C19.01 28.44 10.80 33.91 3.10 37.22C4.54 38.38 6.91 40.75 7.92 42.05C10.66 40.68 13.39 38.95 16.13 37.15ZM24.91 77.62C19.94 80.42 11.38 82.94 3.96 84.38C5.47 85.61 7.85 88.06 9.00 89.42C16.20 87.41 25.27 83.95 31.10 80.42ZM19.51 69.12L53.28 69.12L53.28 73.30L19.51 73.30ZM19.51 60.98L53.28 60.98L53.28 65.02L19.51 65.02ZM19.51 52.85L53.28 52.85L53.28 56.95L19.51 56.95ZM59.98 77.54L59.98 48.60L13.03 48.60L13.03 77.54L46.44 77.54L42.34 80.93C49.75 83.45 57.38 86.76 61.78 89.14L67.54 85.32C62.64 83.02 54.72 79.99 47.38 77.54Z"/></svg>
