<svg xmlns="http://www.w3.org/2000/svg" xmlns:xlink="http://www.w3.org/1999/xlink" width="72.00000000000001" height="106.56000000000002"><path fill="red" stroke="red" d="M44.28 34.42L30.60 34.42L30.60 38.59L65.95 38.59L65.95 34.42L50.83 34.42L50.83 31.10L67.82 31.10L67.82 26.71L50.83 26.71L50.83 23.11L44.28 23.11L44.28 26.71L28.22 26.71L28.22 31.10L44.28 31.10ZM33.91 44.78L40.03 44.78L40.03 51.48L33.91 51.48ZM61.70 51.48L55.51 51.48L55.51 44.78L61.70 44.78ZM44.35 51.48L44.35 44.78L51.19 44.78L51.19 51.48ZM28.58 55.08L67.32 55.08L67.32 41.11L28.58 41.11ZM19.87 39.53L11.09 39.53L11.09 31.90L19.87 31.90ZM19.87 52.49L11.09 52.49L11.09 44.64L19.87 44.64ZM19.87 65.59L11.09 65.59L11.09 57.67L19.87 57.67ZM25.34 26.42L5.83 26.42L5.83 70.99L25.34 70.99ZM9.43 72.79C7.85 76.97 5.18 81.79 2.81 85.10C4.03 85.82 6.26 87.26 7.27 88.20C9.65 84.60 12.60 79.13 14.54 74.38ZM17.28 75.17C19.15 78.19 21.46 82.30 22.61 84.89L27.00 82.08C25.85 79.63 23.40 75.74 21.38 72.79ZM36.79 72.29L59.33 72.29L59.33 75.17L36.79 75.17ZM36.79 66.82L59.33 66.82L59.33 69.48L36.79 69.48ZM36.79 61.42L59.33 61.42L59.33 64.01L36.79 64.01ZM65.52 78.84L65.52 57.67L30.89 57.67L30.89 78.84L39.60 78.84C35.57 80.86 29.30 83.45 25.06 84.89C25.85 86.26 27.00 88.27 27.50 89.57C32.54 87.70 39.53 85.03 45.07 82.51L41.11 78.84L53.14 78.84L50.98 82.58C56.52 84.74 62.64 87.55 66.46 89.50L69.19 84.74C65.59 83.09 60.05 80.71 54.79 78.84Z"/></svg>
