<svg xmlns="http://www.w3.org/2000/svg" xmlns:xlink="http://www.w3.org/1999/xlink" width="72.00000000000001" height="106.56000000000002"><path fill="red" stroke="red" d="M61.42 25.63C60.26 29.30 58.10 34.42 56.38 37.66L60.98 39.24C62.78 36.22 65.02 31.54 67.03 27.36ZM34.20 41.33L34.20 78.62L39.82 78.62L39.82 46.58L60.70 46.58L60.70 72.36C60.70 73.15 60.41 73.37 59.69 73.37C58.97 73.44 56.74 73.44 54.29 73.37C54.94 74.66 55.80 76.75 56.09 78.19C59.90 78.19 62.42 78.19 64.15 77.33C65.88 76.39 66.38 75.10 66.38 72.43L66.38 41.33L52.99 41.33L52.99 23.04L47.30 23.04L47.30 41.33ZM52.78 63.50L47.66 63.50L47.66 55.01L52.78 55.01ZM56.88 50.98L43.63 50.98L43.63 70.20L47.66 70.20L47.66 67.61L56.88 67.61ZM44.42 37.30C43.56 33.98 40.97 29.09 38.38 25.49L33.62 27.50C36.14 31.25 38.52 36.22 39.38 39.46ZM22.39 65.66L31.46 65.66L31.46 59.98L22.39 59.98L22.39 51.05L32.47 51.05L32.47 45.36L21.38 45.36L21.38 37.22L30.96 37.22L30.96 31.61L21.38 31.61L21.38 23.11L15.55 23.11L15.55 31.61L5.90 31.61L5.90 37.22L15.55 37.22L15.55 45.36L3.60 45.36L3.60 51.05L16.56 51.05L16.56 74.16C14.62 71.93 13.10 69.12 11.88 65.45C12.10 62.42 12.17 59.18 12.24 55.87L6.70 55.58C6.62 67.90 6.19 78.91 2.02 85.82C3.31 86.54 5.69 88.42 6.62 89.35C8.86 85.39 10.22 80.50 11.02 74.88C17.14 85.68 27.14 87.62 41.83 87.62L67.03 87.62C67.39 85.82 68.54 83.02 69.55 81.50C64.87 81.72 45.65 81.65 41.90 81.72C33.98 81.65 27.50 81.14 22.39 78.70Z"/></svg>
