<svg xmlns="http://www.w3.org/2000/svg" xmlns:xlink="http://www.w3.org/1999/xlink" width="72.00000000000001" height="106.56000000000002"><path fill="red" stroke="red" d="M12.31 31.75L24.34 31.75L24.34 42.84L12.31 42.84ZM32.33 73.01C28.94 73.80 25.49 74.66 22.10 75.31L22.10 64.01L31.82 64.01L31.82 58.10L22.10 58.10L22.10 48.60L30.53 48.60L30.53 25.99L6.48 25.99L6.48 48.60L16.13 48.60L16.13 76.68L11.74 77.69L11.74 54.58L6.26 54.58L6.26 78.77C4.82 79.06 3.60 79.34 2.38 79.56L3.67 85.97C11.66 84.10 22.68 81.43 32.98 78.91ZM58.82 48.96L58.82 62.50L41.90 62.50L41.90 48.96ZM41.90 79.63L41.90 68.69L65.38 68.69L65.38 42.77L41.90 42.77L41.90 33.62L68.04 33.62L68.04 27.14L32.40 27.14L32.40 33.62L35.42 33.62L35.42 79.63L32.83 79.63L32.83 86.18L69.19 86.18L69.19 79.63Z"/></svg>
