<svg xmlns="http://www.w3.org/2000/svg" xmlns:xlink="http://www.w3.org/1999/xlink" width="72.00000000000001" height="106.56000000000002"><path fill="red" stroke="red" d="M38.02 52.49L38.02 50.69L38.02 45.14L49.18 45.14L49.18 52.49ZM60.55 31.75L60.55 39.38L38.02 39.38L38.02 31.75ZM60.70 80.78L44.35 80.78L44.35 71.78L60.70 71.78ZM11.16 31.90L21.60 31.90L21.60 42.98L11.16 42.98ZM69.05 58.25L69.05 52.49L55.37 52.49L55.37 45.14L66.89 45.14L66.89 25.92L31.61 25.92L31.61 50.76C31.61 58.75 31.32 68.83 28.58 77.62L27.65 72.22C25.13 73.01 22.54 73.80 20.02 74.52L20.02 63.43L27.50 63.43L27.50 57.60L20.02 57.60L20.02 48.67L27.29 48.67L27.29 26.14L5.76 26.14L5.76 48.67L14.33 48.67L14.33 76.25L10.94 77.26L10.94 54.65L5.62 54.65L5.62 78.70L2.74 79.49L4.39 85.75C11.16 83.59 20.02 80.86 28.44 78.05C27.50 80.78 26.35 83.45 24.91 85.75C26.42 86.40 29.38 88.13 30.53 89.06C35.71 80.71 37.37 68.62 37.87 58.25L49.18 58.25L49.18 66.24L38.52 66.24L38.52 89.06L44.35 89.06L44.35 86.33L60.70 86.33L60.70 88.85L66.74 88.85L66.74 66.24L55.37 66.24L55.37 58.25Z"/></svg>
