<svg xmlns="http://www.w3.org/2000/svg" xmlns:xlink="http://www.w3.org/1999/xlink" width="72.00000000000001" height="106.56000000000002"><path fill="red" stroke="red" d="M11.88 31.82L21.31 31.82L21.31 42.91L11.88 42.91ZM21.53 74.74L21.53 63.43L28.37 63.43L28.37 57.60L21.53 57.60L21.53 48.60L27.36 48.60L27.36 26.06L6.19 26.06L6.19 48.60L15.62 48.60L15.62 76.25L11.23 77.40L11.23 54.72L5.76 54.72L5.76 78.70L2.52 79.49L4.03 85.75C11.23 83.74 20.66 81.07 29.52 78.48L28.73 72.79ZM65.16 57.38L51.62 57.38L51.62 51.55L45.58 51.55L45.58 57.38L32.83 57.38L32.83 81.22L38.52 81.22L38.52 62.93L45.58 62.93L45.58 89.14L51.62 89.14L51.62 62.93L59.26 62.93L59.26 75.46C59.26 76.10 59.11 76.32 58.39 76.32C57.74 76.32 55.66 76.32 53.35 76.25C54.07 77.83 54.79 80.21 55.01 81.86C58.61 81.86 61.13 81.79 63.00 80.86C64.73 79.92 65.16 78.26 65.16 75.53ZM55.37 35.06C54.65 37.80 53.42 41.69 52.20 44.42L40.68 44.42L44.35 43.34C43.92 41.26 42.91 37.73 41.69 35.06ZM58.03 44.42C59.18 42.05 60.26 39.10 61.42 36.43L56.52 35.06L67.46 35.06L67.46 29.45L52.34 29.45C51.77 27.36 50.90 24.84 49.97 22.90L43.78 24.26C44.35 25.85 44.93 27.65 45.43 29.45L30.74 29.45L30.74 35.06L41.04 35.06L36.50 36.22C37.44 38.66 38.45 42.05 38.88 44.42L29.74 44.42L29.74 56.95L35.57 56.95L35.57 49.75L62.28 49.75L62.28 56.81L68.40 56.81L68.40 44.42Z"/></svg>
