<svg xmlns="http://www.w3.org/2000/svg" xmlns:xlink="http://www.w3.org/1999/xlink" width="72.00000000000001" height="106.56000000000002"><path fill="red" stroke="red" d="M56.16 67.61L56.16 58.82L60.77 58.82L60.77 67.61ZM46.80 67.61L46.80 58.82L51.34 58.82L51.34 67.61ZM37.44 67.61L37.44 58.82L42.05 58.82L42.05 67.61ZM66.10 53.35L32.18 53.35L32.18 89.14L37.44 89.14L37.44 73.01L42.05 73.01L42.05 87.91L46.80 87.91L46.80 73.01L51.34 73.01L51.34 87.91L56.16 87.91L56.16 73.01L60.77 73.01L60.77 82.58C60.77 83.16 60.55 83.30 60.05 83.30C59.62 83.38 58.39 83.38 56.88 83.30C57.60 84.89 58.39 87.26 58.54 88.99C61.20 88.99 62.93 88.85 64.30 87.84C65.74 86.83 66.10 85.18 66.10 82.66ZM40.18 42.41C43.20 39.24 46.08 35.64 48.67 31.90C51.91 35.93 55.08 39.31 58.32 42.41ZM23.83 51.48L19.44 51.48L19.44 45.79L23.83 45.79ZM23.83 61.92L19.44 61.92L19.44 56.16L23.83 56.16ZM10.15 56.16L14.76 56.16L14.76 61.92L10.15 61.92ZM10.15 45.79L14.76 45.79L14.76 51.48L10.15 51.48ZM48.31 22.39C43.92 30.60 36.29 38.81 28.94 43.78L28.94 40.90L20.02 40.90L20.02 36.07L30.17 36.07L30.17 30.38L20.02 30.38L20.02 23.11L14.04 23.11L14.04 30.38L3.82 30.38L3.82 36.07L14.04 36.07L14.04 40.90L5.18 40.90L5.18 66.82L14.11 66.82L14.11 71.93L3.17 71.93L3.17 77.62L14.11 77.62L14.11 89.14L20.02 89.14L20.02 77.62L30.10 77.62L30.10 71.93L20.02 71.93L20.02 66.82L28.94 66.82L28.94 45.14C30.24 46.51 31.54 48.10 32.40 49.46C34.06 48.17 35.71 46.73 37.37 45.22L37.37 47.88L60.55 47.88L60.55 44.50C62.28 46.08 64.01 47.59 65.81 49.03C66.67 47.16 68.62 45.07 70.13 43.78C63.94 39.46 57.67 34.06 51.77 27.00C52.20 26.28 52.63 25.42 53.06 24.62Z"/></svg>
