<svg xmlns="http://www.w3.org/2000/svg" xmlns:xlink="http://www.w3.org/1999/xlink" width="72.00000000000001" height="106.56000000000002"><path fill="red" stroke="red" d="M68.18 32.26L61.34 32.26C60.34 29.59 58.75 26.14 57.31 23.40L51.77 25.06C52.92 27.22 54.07 29.88 54.86 32.26L47.09 32.26L47.09 37.73L68.18 37.73ZM55.73 50.11C55.66 46.94 54.65 42.19 53.35 38.52L48.89 39.67C50.11 43.42 50.98 48.31 51.05 51.41ZM24.26 32.40L17.71 32.40C16.85 29.88 15.41 26.50 13.90 23.90L8.35 25.56C9.43 27.58 10.51 30.17 11.30 32.40L3.67 32.40L3.67 37.87L24.26 37.87ZM11.95 50.04C11.81 47.02 10.94 42.34 9.72 38.81L5.26 39.89C6.41 43.56 7.20 48.31 7.20 51.34ZM23.33 70.06L23.33 64.58L16.70 64.58L16.70 57.10L24.55 57.10L24.55 51.62L19.08 51.62C20.16 48.10 21.38 43.56 22.54 39.53L17.35 38.45C16.85 42.34 15.55 47.88 14.47 51.62L3.17 51.62L3.17 57.10L10.80 57.10L10.80 64.58L4.03 64.58L4.03 70.06L10.66 70.06C10.30 75.38 8.86 81.36 3.67 85.10C4.97 86.11 6.77 88.13 7.63 89.42C13.97 84.31 16.06 76.82 16.56 70.06ZM44.28 39.10L34.85 39.10C34.99 33.98 35.06 28.73 35.06 23.18L29.81 23.18C29.81 28.66 29.81 33.98 29.74 39.10L25.70 39.10L25.70 44.86L29.59 44.86C28.94 61.92 26.78 75.96 20.16 85.39C21.31 86.33 23.76 88.34 24.48 89.35C31.68 78.26 33.91 63.36 34.70 44.86L38.81 44.86C38.45 70.85 38.09 79.70 37.01 81.58C36.50 82.51 36.00 82.73 35.21 82.73C34.27 82.73 32.54 82.73 30.60 82.58C31.39 84.10 31.97 86.47 32.04 88.06C34.27 88.13 36.36 88.20 37.80 87.91C39.60 87.62 40.75 86.98 41.83 85.18C43.49 82.44 43.85 72.50 44.28 41.90ZM69.05 57.17L69.05 51.70L63.58 51.70C64.66 48.10 65.88 43.42 66.82 39.38L61.70 38.23C61.20 42.12 59.90 47.88 58.75 51.70L46.80 51.70L46.80 57.17L55.01 57.17L55.01 65.66L48.10 65.66L48.10 71.14L55.01 71.14L55.01 89.06L61.06 89.06L61.06 71.14L68.18 71.14L68.18 65.66L61.06 65.66L61.06 57.17Z"/></svg>
