<svg xmlns="http://www.w3.org/2000/svg" xmlns:xlink="http://www.w3.org/1999/xlink" width="72.00000000000001" height="106.56000000000002"><path fill="red" stroke="red" d="M57.82 77.26C64.58 77.26 67.18 75.38 68.04 64.58C66.10 64.15 63.79 63.43 61.99 62.42C61.78 69.84 60.77 70.70 58.18 70.70L38.74 70.70C35.93 70.70 34.20 70.13 34.20 68.54C34.20 66.46 36.00 63.50 60.26 48.02C60.62 47.66 60.98 47.23 61.20 46.73L56.66 44.21L55.15 44.42L29.52 44.42L29.52 50.33L45.50 50.33C28.08 62.57 27.29 66.10 27.29 69.48C27.29 74.38 30.96 77.26 39.02 77.26ZM66.89 37.73L66.89 31.61L36.79 31.61C37.87 29.38 38.81 27.07 39.60 24.77L33.19 23.11C30.53 31.32 25.78 39.38 20.30 44.50C21.89 45.36 24.48 47.38 25.63 48.46C28.51 45.58 31.18 41.90 33.55 37.73ZM17.86 35.35C16.85 32.40 15.12 27.65 13.82 23.98L7.63 25.78C8.78 29.52 10.58 34.42 11.45 37.51ZM19.01 55.58L18.00 55.80L14.40 55.80C16.92 50.98 19.73 45.14 22.03 40.18L3.31 40.18L3.31 46.22L12.67 46.22C10.15 51.70 7.27 57.46 4.75 61.63L15.05 61.63C13.75 66.74 11.74 72.07 9.50 75.96C7.27 77.47 4.75 79.99 2.30 83.30L7.06 89.78C8.93 85.46 11.45 80.78 13.03 80.78C14.62 80.78 17.21 83.16 20.09 84.89C25.34 87.98 31.39 88.78 40.82 88.78C49.32 88.78 62.21 88.27 67.82 87.91C67.90 86.04 69.05 82.66 69.84 80.78C61.92 81.79 49.82 82.51 41.11 82.51C32.69 82.51 26.14 82.01 21.24 78.98C18.79 77.54 17.28 76.25 15.98 75.53C18.65 70.20 21.10 63.22 22.54 56.74Z"/></svg>
