<svg xmlns="http://www.w3.org/2000/svg" xmlns:xlink="http://www.w3.org/1999/xlink" width="72.00000000000001" height="106.56000000000002"><path fill="red" stroke="red" d="M41.76 55.87C41.76 56.59 41.76 57.46 41.69 58.32L32.69 58.32L32.69 44.06L26.50 44.06L26.50 64.22L40.75 64.22C39.46 69.12 36.29 73.66 29.02 76.46C30.38 77.62 32.26 79.99 33.12 81.36C42.05 77.18 45.94 70.92 47.45 64.22L64.37 64.22L64.37 43.99L57.89 43.99L57.89 58.32L48.24 58.32C48.31 57.46 48.31 56.66 48.31 55.87L48.31 40.54L67.97 40.54L67.97 34.63L56.02 34.63C58.03 31.82 60.19 28.30 62.14 24.98L55.15 23.11C53.71 26.57 51.12 31.32 48.96 34.63L35.93 34.63L40.10 32.54C39.02 29.81 36.29 25.85 33.84 23.04L28.37 25.70C30.67 28.37 32.98 31.97 34.13 34.63L22.39 34.63L22.39 40.54L41.76 40.54ZM17.78 35.42C16.92 32.40 15.12 27.72 13.90 24.05L7.70 25.78C8.93 29.45 10.66 34.42 11.52 37.51ZM20.52 55.51L19.51 55.80L14.33 55.80C16.27 50.90 18.36 45.14 20.09 40.18L3.31 40.18L3.31 46.22L11.88 46.22C10.01 51.70 7.78 57.46 6.05 61.63L15.84 61.63C14.54 66.46 12.74 71.42 10.73 75.17C8.14 76.32 5.18 79.42 2.23 83.30L6.77 89.57C8.64 85.18 11.09 80.50 12.74 80.50C14.18 80.50 16.85 83.02 19.73 84.67C24.91 87.70 31.10 88.49 40.39 88.49C48.89 88.49 61.99 88.06 67.54 87.70C67.61 85.90 68.76 82.66 69.55 80.78C61.56 81.79 49.46 82.44 40.68 82.44C32.33 82.44 25.78 82.01 20.88 78.98C19.01 77.83 17.71 76.82 16.56 76.10C19.44 70.63 21.82 63.58 23.54 56.81Z"/></svg>
