<svg xmlns="http://www.w3.org/2000/svg" xmlns:xlink="http://www.w3.org/1999/xlink" width="72.00000000000001" height="106.56000000000002"><path fill="red" stroke="red" d="M68.04 31.32L46.94 31.32L50.26 30.17C49.25 28.08 47.16 24.84 45.29 22.46L38.88 24.55C40.39 26.57 41.90 29.30 42.91 31.32L22.75 31.32L22.75 36.58L68.04 36.58ZM28.22 54.94L61.92 54.94L61.92 49.97L28.22 49.97ZM61.92 40.61L28.22 40.61L28.22 45.58L61.92 45.58ZM33.77 64.30L55.87 64.30L55.87 71.86L33.77 71.86ZM27.43 76.82L62.42 76.82L62.42 59.33L27.43 59.33ZM18.43 34.63C17.06 31.61 14.54 26.78 12.67 23.04L6.91 25.13C8.64 28.94 11.23 34.06 12.38 37.15ZM18.79 55.94L17.86 56.16L14.26 56.16C16.34 51.19 18.65 45.29 20.52 40.18L3.53 40.18L3.53 46.22L11.81 46.22C9.72 51.77 7.34 57.67 5.33 61.92L15.48 61.92C14.04 67.18 11.59 72.65 8.50 76.39L8.57 76.46C6.55 77.98 4.32 80.28 2.23 83.02L6.70 89.35C8.71 85.18 11.30 80.64 12.89 80.64C14.47 80.64 17.06 82.94 19.94 84.53C25.27 87.55 31.46 88.27 40.75 88.27C49.25 88.27 62.50 87.84 67.97 87.48C68.04 85.61 69.19 82.22 70.06 80.42C61.92 81.43 49.61 82.08 41.04 82.08C32.76 82.08 26.06 81.65 21.10 78.77C18.86 77.54 17.42 76.39 16.20 75.74C19.22 70.56 21.60 64.01 22.75 57.60Z"/></svg>
