<svg xmlns="http://www.w3.org/2000/svg" xmlns:xlink="http://www.w3.org/1999/xlink" width="72.00000000000001" height="106.56000000000002"><path fill="red" stroke="red" d="M48.02 33.91C46.87 35.71 45.50 37.66 44.21 39.24L31.97 39.24C33.48 37.58 34.78 35.78 36.07 33.91ZM57.60 52.70L47.38 52.70C47.95 50.04 48.46 47.23 48.74 44.50L57.60 44.50ZM32.62 52.70L32.62 44.50L42.34 44.50C42.05 47.23 41.62 50.04 40.97 52.70ZM26.50 57.96L39.17 57.96C36.43 64.66 31.32 70.27 21.53 73.87C22.90 75.02 24.55 77.26 25.27 78.77C34.99 74.95 40.61 69.19 43.99 62.35L43.99 70.20C43.99 76.03 45.50 77.76 52.06 77.76L61.27 77.76C66.24 77.76 67.90 75.89 68.62 68.90C67.03 68.47 64.58 67.61 63.29 66.67C63.07 71.57 62.64 72.29 60.70 72.29L52.85 72.29C50.40 72.29 49.97 72.07 49.97 70.13L49.97 57.96L64.01 57.96L64.01 39.24L51.77 39.24C53.71 36.65 55.66 33.70 56.95 31.10L52.49 28.44L51.55 28.73L39.17 28.73C39.89 27.36 40.54 26.06 41.11 24.70L34.63 23.11C31.54 30.46 26.14 37.22 19.94 41.47C21.46 42.41 24.19 44.64 25.27 45.79C25.70 45.43 26.06 45.14 26.50 44.78ZM52.13 61.63C54.65 63.50 57.38 66.24 58.68 68.11L62.57 65.02C61.27 63.14 58.46 60.48 55.94 58.82ZM17.06 35.06C16.13 31.90 14.40 27.07 13.10 23.40L7.20 25.13C8.35 28.94 10.15 34.06 10.94 37.22ZM18.65 55.87L17.71 56.16L13.68 56.16C15.41 51.19 17.50 45.29 19.01 40.18L3.53 40.18L3.53 46.22L10.73 46.22C8.93 51.84 6.84 57.67 5.04 61.92L14.26 61.92C13.18 66.82 11.45 72.00 9.58 75.89C7.27 77.33 4.75 80.14 2.30 83.38L6.84 89.57C8.78 85.18 11.23 80.50 12.89 80.50C14.40 80.50 17.06 83.02 19.94 84.67C25.13 87.70 31.32 88.49 40.82 88.49C49.18 88.49 62.42 88.06 67.97 87.70C68.11 85.90 69.19 82.58 69.91 80.78C61.99 81.79 49.82 82.44 41.11 82.44C32.62 82.44 26.06 82.01 21.10 78.98C18.72 77.54 17.21 76.32 15.84 75.60C18.36 70.20 20.38 63.43 21.67 57.02Z"/></svg>
