<svg xmlns="http://www.w3.org/2000/svg" xmlns:xlink="http://www.w3.org/1999/xlink" width="72.00000000000001" height="106.56000000000002"><path fill="red" stroke="red" d="M51.91 79.99L51.91 72.65L67.90 72.65L67.90 67.90L51.91 67.90L51.91 63.22L65.30 63.22L65.30 58.61L51.91 58.61L51.91 54.22L45.86 54.22L45.86 58.61L40.32 58.61C40.75 57.53 41.18 56.52 41.47 55.44L36.29 54.22C34.99 58.32 32.76 62.50 30.10 65.45C31.46 66.02 33.77 67.10 34.85 67.90C35.93 66.60 37.08 64.94 38.02 63.22L45.86 63.22L45.86 67.90L29.16 67.90L29.16 72.65L45.86 72.65L45.86 79.99ZM43.99 46.08C38.88 47.74 34.06 49.46 30.53 50.40L32.40 54.86C36.29 53.42 40.54 51.70 44.71 50.04ZM52.06 49.32L52.06 39.89L46.01 39.89L46.01 52.42L52.06 52.42L52.06 49.75C56.16 51.34 61.42 54.07 64.22 55.80L67.32 51.98C64.37 50.33 58.97 47.74 54.79 46.30ZM59.90 30.10L59.90 34.34L30.02 34.34L30.02 30.10ZM30.02 38.88L36.07 38.88L31.68 41.62C34.20 43.20 37.08 45.58 38.45 47.30L43.27 43.85C41.83 42.26 39.10 40.32 36.58 38.88L60.98 38.88C59.26 40.61 56.38 42.98 54.29 44.57L58.82 46.87C61.20 45.43 64.01 43.56 66.53 41.18L61.56 38.88L66.10 38.88L66.10 25.63L24.19 25.63L24.19 44.42C24.19 53.57 23.83 66.17 19.44 75.10C20.88 75.67 23.47 77.33 24.62 78.26C29.23 68.62 30.02 54.36 30.02 44.42ZM18.14 35.14C16.99 32.11 14.76 27.29 13.03 23.54L7.42 25.20C8.93 29.02 11.23 34.06 12.31 37.22ZM17.86 55.87L16.78 56.09L13.90 56.09C15.84 51.12 18.14 45.22 19.87 40.18L3.53 40.18L3.53 46.22L11.45 46.22C9.43 51.77 7.13 57.67 5.11 61.92L13.61 61.92C12.46 67.03 10.87 72.36 8.93 76.32C6.84 77.90 4.54 80.42 2.30 83.38L6.84 89.57C8.78 85.18 11.30 80.50 12.89 80.50C14.47 80.50 17.06 83.02 19.94 84.67C25.20 87.70 31.39 88.49 40.82 88.49C49.25 88.49 62.42 88.06 67.97 87.70C68.11 85.90 69.19 82.58 69.98 80.78C61.99 81.79 49.82 82.44 41.11 82.44C32.62 82.44 26.06 82.01 21.10 78.98C18.43 77.33 16.78 76.03 15.34 75.31C17.64 69.91 19.51 63.14 20.74 56.95Z"/></svg>
