<svg xmlns="http://www.w3.org/2000/svg" xmlns:xlink="http://www.w3.org/1999/xlink" width="72.00000000000001" height="106.56000000000002"><path fill="red" stroke="red" d="M32.98 41.40L55.87 41.40L55.87 44.14L32.98 44.14ZM32.98 35.86L55.87 35.86L55.87 38.45L32.98 38.45ZM32.98 30.31L55.87 30.31L55.87 32.98L32.98 32.98ZM27.65 53.35L36.43 53.35C34.56 56.38 30.67 57.96 22.68 58.97C23.62 59.69 24.84 61.27 25.34 62.42C35.50 60.84 40.39 58.54 42.62 53.35L48.82 53.35L48.82 56.23C48.82 59.33 49.39 61.34 53.42 61.34L61.49 61.34C63.14 61.34 65.38 61.27 66.24 60.98C65.95 59.69 65.95 58.97 65.88 57.60C64.94 57.89 62.35 57.96 61.20 57.96L55.94 57.96C54.43 57.96 54.36 57.46 54.36 56.30L54.36 53.35L61.27 53.35L61.27 56.52L67.32 56.52L67.32 49.82L48.31 49.82C48.02 48.96 47.59 48.02 47.16 47.16L62.35 47.16L62.35 27.29L45.29 27.29C46.15 26.21 47.02 25.06 47.81 23.76L40.97 22.97C40.54 24.19 39.74 25.78 38.95 27.29L26.78 27.29L26.78 47.16L40.32 47.16C40.68 48.02 41.04 48.96 41.26 49.82L21.89 49.82L21.89 57.02L27.65 57.02ZM18.14 35.14C16.99 32.11 14.76 27.29 13.03 23.47L7.56 25.20C9.14 29.02 11.38 34.06 12.46 37.30ZM54.07 73.08C53.64 74.95 53.14 75.82 52.49 76.32C51.98 76.75 51.41 76.82 50.47 76.82C49.39 76.82 46.73 76.82 43.85 76.54C44.50 77.62 45.00 79.27 45.07 80.42C48.17 80.64 51.19 80.64 52.78 80.57C54.43 80.57 55.87 80.28 57.10 79.34C58.54 78.19 59.47 75.89 60.34 71.28C60.48 70.63 60.55 69.26 60.55 69.26L40.61 69.26C40.90 68.62 41.04 67.90 41.26 67.18L66.82 67.18L66.82 63.14L47.81 63.14C47.16 61.56 46.30 59.83 45.43 58.39L39.96 59.69C40.46 60.77 41.04 61.92 41.54 63.14L22.68 63.14L22.68 67.18L35.50 67.18C34.06 71.93 30.89 75.17 22.39 76.97C23.47 77.98 24.98 79.99 25.56 81.36C23.83 80.93 22.32 80.21 20.88 79.42C18.36 77.83 16.70 76.46 15.34 75.74C17.64 70.27 19.66 63.36 20.88 57.02L18.07 55.94L17.06 56.16L13.97 56.16C15.91 51.12 18.22 45.29 19.94 40.25L3.46 40.25L3.46 46.15L11.38 46.15C9.36 51.77 7.06 57.67 5.04 61.99L13.82 61.99C12.67 67.18 11.02 72.58 9.00 76.61C6.91 78.19 4.68 80.71 2.38 83.74L6.62 89.50C8.64 85.10 11.16 80.57 12.74 80.57C14.33 80.57 16.85 83.02 19.73 84.67C25.06 87.70 31.18 88.49 40.61 88.49C48.96 88.49 62.28 88.06 67.97 87.70C68.04 85.97 69.05 82.94 69.84 81.29C61.85 82.15 49.82 82.87 40.82 82.87C34.85 82.87 29.74 82.66 25.63 81.43C32.54 79.63 36.50 76.82 38.88 73.08Z"/></svg>
