<svg xmlns="http://www.w3.org/2000/svg" xmlns:xlink="http://www.w3.org/1999/xlink" width="72.00000000000001" height="106.56000000000002"><path fill="red" stroke="red" d="M25.70 68.90C29.74 66.67 33.98 63.86 37.30 61.20L33.34 57.74L31.97 58.10L6.84 58.10L6.84 63.29L25.49 63.29C23.47 64.87 21.17 66.31 19.22 67.46L19.22 70.27C13.18 70.49 7.78 70.70 3.46 70.78L3.82 76.39L19.22 75.67L19.22 82.51C19.22 83.23 18.94 83.45 18.00 83.45C17.06 83.52 13.82 83.52 10.73 83.45C11.52 85.03 12.38 87.34 12.60 89.06C17.35 89.06 20.66 88.99 22.90 88.13C25.13 87.26 25.70 85.68 25.70 82.66L25.70 75.38C30.53 75.17 35.42 74.95 40.32 74.66L40.46 69.34C35.50 69.55 30.53 69.77 25.70 69.98ZM30.53 49.97L13.61 49.97L13.61 43.99L30.53 43.99ZM36.65 39.10L7.85 39.10L7.85 54.79L36.65 54.79ZM17.06 24.70C17.93 26.14 18.72 27.86 19.37 29.59L3.82 29.59L3.82 35.28L40.54 35.28L40.54 29.59L25.99 29.59C25.13 27.43 24.05 24.91 22.75 22.97ZM64.08 26.78L63.07 27.07L42.62 27.07L42.62 89.21L49.10 89.21L49.10 33.34L60.26 33.34C58.32 38.95 55.51 46.58 52.92 52.20C59.47 58.03 61.42 63.36 61.42 67.68C61.42 70.20 60.91 72.07 59.47 72.94C58.75 73.37 57.74 73.66 56.59 73.66C55.30 73.80 53.64 73.73 51.70 73.58C52.78 75.38 53.42 78.26 53.50 80.06C55.51 80.14 57.67 80.14 59.40 79.92C61.27 79.70 62.93 79.20 64.15 78.34C66.74 76.54 67.82 73.15 67.82 68.47C67.75 63.50 66.24 57.82 59.62 51.34C62.71 45.00 66.24 36.65 68.90 29.81Z"/></svg>
