<svg xmlns="http://www.w3.org/2000/svg" xmlns:xlink="http://www.w3.org/1999/xlink" width="72.00000000000001" height="106.56000000000002"><path fill="red" stroke="red" d="M23.04 44.42L23.04 36.86L30.10 36.86C28.44 39.53 26.78 42.05 24.84 44.42ZM30.74 67.75L16.49 67.75L16.49 61.85L30.74 61.85ZM16.49 79.49L16.49 73.01L30.74 73.01L30.74 79.49ZM35.57 25.85C34.34 29.02 32.90 32.04 31.32 34.85L31.32 31.10L23.04 31.10L23.04 23.69L16.85 23.69L16.85 31.10L6.55 31.10L6.55 36.86L16.85 36.86L16.85 44.42L3.38 44.42L3.38 50.26L19.58 50.26C14.40 55.37 8.28 59.69 1.66 62.93C2.81 64.22 4.90 66.96 5.54 68.40C7.27 67.46 8.86 66.46 10.44 65.52L10.44 88.92L16.49 88.92L16.49 84.96L30.74 84.96L30.74 87.91L37.08 87.91L37.08 56.45L22.03 56.45C24.05 54.50 26.06 52.42 27.94 50.26L39.96 50.26L39.96 44.42L32.47 44.42C36.07 39.31 39.10 33.70 41.62 27.65ZM64.51 26.86L63.50 27.14L42.70 27.14L42.70 89.21L49.25 89.21L49.25 33.41L60.70 33.41C58.68 39.10 55.73 46.58 53.06 52.20C59.83 58.10 61.85 63.43 61.85 67.68C61.85 70.27 61.34 72.14 59.83 73.01C59.04 73.51 57.89 73.73 56.66 73.80C55.22 73.87 53.35 73.87 51.26 73.66C52.27 75.38 52.99 78.34 53.06 80.14C55.37 80.28 57.74 80.28 59.62 80.06C61.49 79.78 63.22 79.27 64.51 78.41C67.18 76.61 68.33 73.15 68.26 68.33C68.26 63.43 66.67 57.82 59.76 51.41C63.00 44.93 66.60 36.72 69.41 29.95Z"/></svg>
