<svg xmlns="http://www.w3.org/2000/svg" xmlns:xlink="http://www.w3.org/1999/xlink" width="72.00000000000001" height="106.56000000000002"><path fill="red" stroke="red" d="M56.88 40.61L62.50 40.61L62.50 34.63L68.26 34.63L68.26 29.09L62.50 29.09L62.50 23.18L56.88 23.18L56.88 29.09L51.84 29.09L51.84 34.63L56.88 34.63ZM39.10 39.17L44.57 39.17L44.57 34.63L49.82 34.63L49.82 29.09L44.57 29.09L44.57 23.18L39.10 23.18L39.10 29.09L32.90 29.09L32.90 34.63L39.10 34.63ZM11.45 67.39L11.45 72.29L23.98 72.29L23.98 67.39ZM25.99 57.02C25.85 57.02 25.63 57.02 25.27 57.02L23.62 57.02C22.90 57.02 22.75 56.95 22.75 55.94L22.75 45.00L25.99 45.00ZM9.86 78.70L9.86 62.78C10.66 63.36 11.45 64.22 11.95 64.80C15.70 60.98 16.49 55.44 16.49 51.19L16.49 45.00L19.15 45.00L19.15 56.09C19.15 59.98 20.09 60.84 23.18 60.84L25.99 60.84L25.99 78.70ZM12.82 45.00L12.82 51.12C12.82 54.43 12.46 58.25 9.86 61.49L9.86 45.00ZM16.42 31.54L19.15 31.54L19.15 39.46L16.42 39.46ZM23.76 31.54L31.61 31.54L31.61 26.21L3.67 26.21L3.67 31.54L11.88 31.54L11.88 39.46L5.11 39.46L5.11 89.06L9.86 89.06L9.86 84.02L25.99 84.02L25.99 87.91L30.89 87.91L30.89 39.46L23.76 39.46ZM50.69 46.37C52.78 49.54 55.73 52.56 58.82 55.08L42.84 55.08C45.58 52.49 48.10 49.46 50.04 46.37ZM54.43 72.86L64.80 72.86L64.80 67.32L54.43 67.32L54.43 60.62L62.14 60.62L62.14 57.53C63.22 58.25 64.15 58.90 65.23 59.40C66.17 58.03 67.90 55.94 69.19 54.86C63.14 52.20 56.74 46.87 53.78 41.04L36.00 41.04L36.00 46.37L43.63 46.37C40.25 50.54 35.57 54.29 31.10 56.38C32.33 57.38 34.13 59.40 34.99 60.77C36.43 59.98 37.94 59.11 39.31 58.03L39.31 60.62L47.30 60.62L47.30 67.32L36.58 67.32L36.58 72.86L47.30 72.86L47.30 80.35L33.19 80.35L33.19 85.90L68.69 85.90L68.69 80.35L54.43 80.35Z"/></svg>
