<svg xmlns="http://www.w3.org/2000/svg" xmlns:xlink="http://www.w3.org/1999/xlink" width="72.00000000000001" height="106.56000000000002"><path fill="red" stroke="red" d="M58.82 46.08C57.24 43.99 54.00 41.11 51.12 39.10C51.91 37.30 52.56 35.28 53.06 33.26L48.82 31.82C47.59 37.87 44.78 43.34 40.97 46.44C42.05 47.16 43.34 48.46 44.06 49.32C46.08 47.59 47.95 45.36 49.39 42.70C51.84 44.71 54.36 47.30 55.73 49.03ZM58.97 49.97L40.75 49.97L40.75 31.25L58.97 31.25ZM64.44 26.21L35.50 26.21L35.50 55.01L64.44 55.01ZM11.59 67.39L11.59 72.36L23.69 72.36L23.69 67.39ZM25.49 57.02L24.91 57.02L23.33 57.02C22.68 57.02 22.61 56.95 22.61 56.02L22.61 45.00L25.49 45.00ZM9.94 78.70L9.94 62.71C10.73 63.29 11.59 64.15 12.02 64.73C15.70 60.91 16.42 55.37 16.42 51.19L16.42 45.00L19.08 45.00L19.08 56.09C19.08 59.90 20.02 60.77 22.97 60.77L25.49 60.77L25.49 78.70ZM12.89 45.00L12.89 51.12C12.89 54.43 12.53 58.39 9.94 61.63L9.94 45.00ZM16.42 31.54L19.08 31.54L19.08 39.46L16.42 39.46ZM23.62 31.54L31.75 31.54L31.75 26.21L3.74 26.21L3.74 31.54L11.95 31.54L11.95 39.46L5.18 39.46L5.18 89.06L9.94 89.06L9.94 84.02L25.49 84.02L25.49 87.98L30.38 87.98L30.38 39.46L23.62 39.46ZM39.24 65.38L43.42 65.38L43.42 82.01L39.24 82.01ZM51.84 65.38L51.84 82.01L47.66 82.01L47.66 65.38ZM60.41 65.38L60.41 82.01L56.09 82.01L56.09 65.38ZM65.66 82.01L65.66 59.98L34.06 59.98L34.06 82.01L31.54 82.01L31.54 87.55L68.83 87.55L68.83 82.01Z"/></svg>
