<svg xmlns="http://www.w3.org/2000/svg" xmlns:xlink="http://www.w3.org/1999/xlink" width="72.00000000000001" height="106.56000000000002"><path fill="red" stroke="red" d="M38.88 42.48L56.38 42.48C55.08 44.21 53.42 45.79 51.48 47.23C47.95 45.72 44.35 44.28 41.26 43.13L38.88 46.51C41.40 47.52 44.14 48.67 46.94 49.90C43.78 51.34 40.32 52.49 36.86 53.21C37.80 54.22 39.02 56.09 39.60 57.31C44.06 56.16 48.46 54.58 52.27 52.27C56.30 54.14 60.05 55.94 62.57 57.31L65.02 53.42C62.86 52.20 59.76 50.83 56.45 49.32C59.54 46.73 61.99 43.56 63.65 39.60L60.41 38.23L59.40 38.38L41.26 38.38C45.50 35.86 46.80 32.69 47.02 29.59L54.43 29.59L54.43 30.89C54.43 35.35 55.37 37.22 59.90 37.22L63.79 37.22C65.02 37.22 66.31 37.15 67.10 36.86C66.96 35.57 66.82 33.77 66.67 32.40C65.88 32.62 64.44 32.76 63.58 32.76L60.70 32.76C59.83 32.76 59.69 32.33 59.69 30.96L59.69 24.91L41.83 24.91L41.83 28.58C41.83 31.03 40.90 33.41 35.42 35.42C36.36 36.14 38.09 38.09 38.88 39.31ZM22.61 35.71L22.61 38.88L22.61 38.95L13.61 38.95L13.61 42.48L21.89 42.48C20.88 44.50 18.72 46.66 13.90 48.02C14.83 48.82 16.13 50.11 16.70 51.19C20.95 49.61 23.54 47.52 24.98 45.50C27.79 47.23 30.67 49.32 32.18 50.83L34.92 47.88C33.19 46.37 30.02 44.21 27.14 42.48L35.64 42.48L35.64 38.95L27.00 38.95L27.00 35.71L34.42 35.71L34.42 32.33L21.02 32.33C21.38 31.61 21.67 30.89 21.96 30.24L18.00 29.30C16.99 31.90 15.26 34.42 13.03 36.50C13.97 36.94 15.77 37.94 16.49 38.59C17.35 37.73 18.14 36.79 18.94 35.71ZM6.98 47.66C6.98 53.28 8.78 55.37 15.05 55.37L30.02 55.37C32.76 55.37 35.64 55.30 36.94 54.94C36.72 53.86 36.50 52.20 36.36 50.76C34.85 51.12 31.61 51.19 29.59 51.19L16.70 51.19L15.34 51.19C12.82 51.19 12.24 50.33 12.24 47.81L12.24 29.30L36.65 29.30L36.65 25.27L4.75 25.27L4.75 29.30L6.98 29.30ZM21.89 80.50L50.98 80.50L50.98 76.97L21.89 76.97ZM39.82 64.73L33.55 64.73L33.55 61.92L39.82 61.92ZM55.66 68.54L55.66 71.57C55.37 71.64 55.08 71.64 54.58 71.64L47.38 71.64C45.43 71.64 45.07 71.42 45.07 70.06L45.07 68.54ZM16.27 82.80L16.27 68.54L27.94 68.54C26.93 70.34 23.98 71.86 16.27 72.58C17.28 73.51 18.58 75.31 19.15 76.39C29.09 74.88 32.62 72.22 33.41 68.54L39.82 68.54L39.82 69.98C39.82 74.02 41.18 74.95 46.80 74.95L55.30 74.95L55.66 74.95L55.66 82.80ZM68.83 61.92L68.83 57.46L3.02 57.46L3.02 61.92L28.30 61.92L28.30 64.73L10.22 64.73L10.22 89.06L16.27 89.06L16.27 86.62L55.66 86.62L55.66 89.06L61.92 89.06L61.92 64.73L45.07 64.73L45.07 61.92Z"/></svg>
