<svg xmlns="http://www.w3.org/2000/svg" xmlns:xlink="http://www.w3.org/1999/xlink" width="72.00000000000001" height="106.56000000000002"><path fill="red" stroke="red" d="M68.11 32.69L52.13 32.69L55.94 30.53C55.01 28.15 52.92 24.98 50.62 22.68L45.79 25.34C47.66 27.43 49.46 30.38 50.33 32.69L34.34 32.69L34.34 38.74L68.11 38.74ZM32.33 36.94C29.66 34.20 25.13 30.74 20.52 27.86C21.10 26.93 21.60 25.99 22.03 24.98L16.99 22.75C13.82 29.52 8.21 35.93 2.81 39.96C3.67 41.62 5.04 45.29 5.40 46.73C6.48 45.79 7.63 44.78 8.78 43.70L8.78 46.80L14.98 46.80L14.98 53.64L4.90 53.64L4.90 59.33L14.98 59.33L14.98 78.84C10.80 79.63 6.98 80.42 4.03 80.93L5.33 86.90C12.38 85.32 21.89 83.23 30.82 81.14L30.38 75.74L20.30 77.83L20.30 59.33L30.31 59.33L30.31 53.64L20.30 53.64L20.30 46.80L27.58 46.80L27.58 41.18L11.16 41.18C13.54 38.59 15.70 35.71 17.71 32.69C22.10 35.71 26.64 39.46 29.45 42.41ZM25.49 75.74C26.57 72.58 28.08 67.61 29.30 63.22L24.55 61.85C23.98 65.59 22.75 70.99 21.74 74.45ZM5.90 63.72C7.06 67.90 8.06 73.15 8.35 76.68L12.82 75.31C12.46 71.93 11.30 66.67 10.08 62.57ZM69.12 58.39L69.12 52.27L58.54 52.27C60.77 48.89 63.22 44.50 65.38 40.61L58.82 39.02C57.24 42.91 54.43 48.53 52.06 52.27L44.64 52.27L48.67 50.47C47.59 47.23 45.14 42.55 42.41 39.17L37.15 41.26C39.46 44.57 41.83 49.03 42.77 52.27L32.62 52.27L32.62 58.39L47.88 58.39L47.88 66.46L34.78 66.46L34.78 72.50L47.88 72.50L47.88 89.06L54.58 89.06L54.58 72.50L67.97 72.50L67.97 66.46L54.58 66.46L54.58 58.39Z"/></svg>
