<svg xmlns="http://www.w3.org/2000/svg" xmlns:xlink="http://www.w3.org/1999/xlink" width="72.00000000000001" height="106.56000000000002"><path fill="red" stroke="red" d="M19.66 58.75L28.44 58.75L28.44 53.06L19.66 53.06L19.66 46.44L27.29 46.44L27.29 40.68L10.37 40.68C12.74 38.23 15.05 35.50 17.06 32.62C21.10 35.14 25.06 38.30 27.50 40.82L30.74 35.42C28.30 33.05 24.26 30.17 20.16 27.72C20.74 26.86 21.24 25.99 21.67 25.06L16.49 22.75C13.18 29.16 7.63 35.28 2.09 39.10C3.10 40.61 4.68 43.99 5.11 45.43C5.90 44.86 6.70 44.21 7.49 43.49L7.49 46.44L13.97 46.44L13.97 53.06L4.75 53.06L4.75 58.75L13.97 58.75L13.97 79.49C9.94 80.21 6.19 80.86 3.31 81.29L4.75 87.41C11.52 85.97 20.38 84.17 28.80 82.30L28.44 76.90C25.49 77.47 22.54 78.05 19.66 78.48ZM4.90 63.43C6.12 67.46 7.27 72.86 7.49 76.32L12.17 75.10C11.88 71.57 10.66 66.31 9.29 62.28ZM58.18 68.40L42.12 68.40L42.12 62.42L58.18 62.42ZM42.12 80.14L42.12 73.51L58.18 73.51L58.18 80.14ZM47.88 37.08L57.10 37.08C55.22 40.03 53.14 42.84 50.69 45.43L47.88 45.43ZM68.40 51.26L68.40 45.43L58.25 45.43C61.85 40.82 64.94 35.71 67.46 30.17L61.78 28.44C60.55 31.25 59.18 33.91 57.53 36.43L57.53 31.39L47.88 31.39L47.88 23.26L41.69 23.26L41.69 31.39L31.82 31.39L31.82 37.08L41.69 37.08L41.69 45.43L28.73 45.43L28.73 51.26L44.64 51.26C39.53 55.44 33.62 58.97 27.29 61.70C27.58 61.99 27.86 62.28 28.15 62.64L23.90 61.56C23.33 65.30 22.10 70.85 21.02 74.30L25.06 75.60C26.14 72.50 27.50 67.75 28.80 63.50C29.74 64.66 30.67 66.10 31.03 66.96C32.83 66.10 34.56 65.16 36.29 64.22L36.29 89.14L42.12 89.14L42.12 85.39L58.18 85.39L58.18 88.78L64.30 88.78L64.30 57.17L46.66 57.17C48.89 55.37 51.12 53.35 53.21 51.26Z"/></svg>
