<svg xmlns="http://www.w3.org/2000/svg" xmlns:xlink="http://www.w3.org/1999/xlink" width="72.00000000000001" height="106.56000000000002"><path fill="red" stroke="red" d="M28.66 75.82L19.66 77.76L19.66 59.40L28.30 59.40L28.30 53.64L19.66 53.64L19.66 46.87L26.06 46.87L26.06 41.18L10.51 41.18C12.74 38.59 14.90 35.71 16.78 32.69C20.95 35.64 25.13 39.24 27.65 41.98L30.38 36.58C27.86 33.98 23.69 30.67 19.51 27.94C20.09 26.93 20.59 25.92 21.02 24.98L16.20 22.68C12.96 29.59 7.56 36.14 2.23 40.25C3.10 41.90 4.39 45.50 4.75 46.94C5.83 45.94 7.06 44.93 8.21 43.70L8.21 46.87L14.26 46.87L14.26 53.64L4.39 53.64L4.39 59.40L14.26 59.40L14.26 78.77C10.15 79.63 6.48 80.35 3.60 80.93L4.90 86.90C11.59 85.39 20.52 83.23 29.02 81.22ZM5.40 63.72C6.48 67.82 7.49 73.15 7.78 76.68L12.17 75.31C11.81 71.86 10.66 66.60 9.50 62.57ZM24.70 75.82C25.85 72.58 27.07 67.61 28.30 63.29L23.54 61.85C23.04 65.59 21.96 71.06 20.95 74.52ZM39.53 66.17L58.97 66.17L58.97 70.27L39.53 70.27ZM58.97 43.49L58.97 47.30L39.53 47.30L39.53 43.49ZM58.97 54.65L39.53 54.65L39.53 51.05L58.97 51.05ZM39.53 58.54L58.97 58.54L58.97 62.35L39.53 62.35ZM69.12 70.27L64.80 70.27L64.80 38.95L49.75 38.95C50.11 37.73 50.33 36.43 50.62 35.06L67.54 35.06L67.54 29.66L51.77 29.66C52.20 27.72 52.56 25.63 52.92 23.69L46.37 23.33C46.15 25.20 45.86 27.43 45.58 29.66L31.54 29.66L31.54 35.06L44.71 35.06C44.42 36.43 44.21 37.73 43.99 38.95L33.98 38.95L33.98 70.27L29.38 70.27L29.38 75.96L40.54 75.96C36.94 78.70 31.39 81.79 26.71 83.81C28.08 85.10 30.24 88.06 31.10 89.28C36.00 86.62 42.41 82.22 46.80 78.48L41.26 75.96L55.01 75.96L51.62 79.85C56.30 82.73 62.14 87.05 65.02 89.64L69.05 84.17C66.31 81.86 61.34 78.62 56.81 75.96L69.12 75.96Z"/></svg>
