<svg xmlns="http://www.w3.org/2000/svg" xmlns:xlink="http://www.w3.org/1999/xlink" width="72.00000000000001" height="106.56000000000002"><path fill="red" stroke="red" d="M25.99 31.54L25.99 36.00L13.46 36.00L13.46 31.54ZM13.46 45.79L13.46 41.11L25.99 41.11L25.99 45.79ZM32.26 51.19L32.26 26.06L6.91 26.06L6.91 89.14L13.46 89.14L13.46 51.19ZM29.81 71.57C29.95 70.20 29.95 68.90 29.95 67.61L42.26 67.61L42.26 71.57ZM42.26 59.47L42.26 63.22L29.95 63.22L29.95 59.47ZM48.17 54.65L24.12 54.65L24.12 67.54C24.12 73.01 23.62 79.78 19.15 84.67C20.52 85.32 23.18 86.98 24.19 87.91C27.14 84.67 28.58 80.35 29.30 76.03L42.26 76.03L42.26 80.64C42.26 81.43 41.98 81.65 41.18 81.72C40.32 81.72 37.44 81.72 34.27 81.65C35.06 83.16 35.86 85.32 36.07 86.90C40.46 86.90 43.56 86.90 45.58 85.97C47.66 85.10 48.17 83.59 48.17 80.71ZM45.43 45.79L45.43 41.11L58.39 41.11L58.39 45.79ZM58.39 31.54L58.39 36.00L45.43 36.00L45.43 31.54ZM65.09 26.06L39.10 26.06L39.10 51.19L58.39 51.19L58.39 81.36C58.39 82.44 58.03 82.87 56.88 82.87C55.80 82.87 52.34 82.94 48.74 82.80C49.68 84.53 50.62 87.48 50.90 89.14C56.38 89.21 59.76 89.06 62.06 87.98C64.30 86.83 65.09 84.96 65.09 81.36Z"/></svg>
