<svg xmlns="http://www.w3.org/2000/svg" xmlns:xlink="http://www.w3.org/1999/xlink" width="72.00000000000001" height="106.56000000000002"><path fill="red" stroke="red" d="M26.78 76.03L26.78 72.65L33.05 72.65L33.05 76.03ZM38.81 57.10C41.11 58.68 43.56 60.55 45.86 62.42L38.30 62.42L38.30 58.68L33.05 58.68L33.05 62.42L26.78 62.42C28.37 60.84 29.81 58.97 31.18 57.10ZM38.30 66.10L44.93 66.10L44.93 69.34L38.30 69.34ZM26.78 66.10L33.05 66.10L33.05 69.34L26.78 69.34ZM38.30 76.03L38.30 72.65L44.93 72.65L44.93 76.03ZM12.74 43.78L12.74 39.53L26.86 39.53L26.86 43.78ZM26.86 30.74L26.86 35.21L12.74 35.21L12.74 30.74ZM40.03 84.10C38.59 84.10 38.30 83.30 38.30 81.07L38.30 79.70L49.97 79.70L49.97 65.88C51.48 67.18 52.70 68.40 53.71 69.48L57.96 66.60C55.30 63.94 50.76 60.26 46.30 57.10L55.51 57.10L55.51 52.63L33.77 52.63C34.34 51.55 34.78 50.47 35.21 49.32L31.54 48.46L33.12 48.46L33.12 25.99L6.41 25.99L6.41 89.28L12.74 89.28L12.74 48.46L29.95 48.46C29.38 49.90 28.66 51.26 27.94 52.63L16.34 52.63L16.34 57.10L24.77 57.10C21.67 60.62 17.86 63.58 13.68 65.74C14.69 66.60 16.56 68.69 17.28 69.77C18.86 68.83 20.30 67.82 21.82 66.82L21.82 82.08L26.78 82.08L26.78 79.70L33.05 79.70L33.05 80.93C33.05 86.26 34.27 88.42 39.53 88.42L46.94 88.42C48.67 88.42 50.47 88.34 51.41 87.98C51.19 86.83 51.05 85.10 50.90 83.74C49.90 83.95 47.95 84.10 46.80 84.10ZM45.07 43.78L45.07 39.53L59.62 39.53L59.62 43.78ZM59.62 30.74L59.62 35.21L45.07 35.21L45.07 30.74ZM66.02 25.99L38.74 25.99L38.74 48.46L59.62 48.46L59.62 81.22C59.62 82.15 59.33 82.44 58.46 82.51C57.67 82.51 54.94 82.51 52.34 82.44C53.21 84.17 54.00 87.19 54.14 88.99C58.46 88.99 61.42 88.85 63.50 87.70C65.52 86.62 66.02 84.60 66.02 81.29Z"/></svg>
