<svg xmlns="http://www.w3.org/2000/svg" xmlns:xlink="http://www.w3.org/1999/xlink" width="72.00000000000001" height="106.56000000000002"><path fill="red" stroke="red" d="M26.64 30.10L26.64 33.91L12.46 33.91L12.46 30.10ZM12.46 42.05L12.46 38.02L26.64 38.02L26.64 42.05ZM32.90 46.51L32.90 25.56L6.19 25.56L6.19 89.21L12.46 89.21L12.46 46.51ZM30.31 72.94L30.31 79.78L23.90 79.78L23.90 72.94ZM28.94 54.36L28.94 59.69L22.03 59.69L22.03 59.40L22.03 54.36ZM34.70 68.40L21.38 68.40C21.60 66.89 21.74 65.38 21.89 63.94L33.91 63.94L33.91 50.18L17.42 50.18L17.42 59.33C17.42 64.94 16.85 72.36 12.67 77.98C13.75 78.48 15.62 80.35 16.27 81.36C17.64 79.56 18.65 77.62 19.44 75.53L19.44 87.34L23.90 87.34L23.90 84.31L34.70 84.31ZM49.75 56.88C49.10 58.90 47.95 61.85 47.02 64.01L41.90 64.01L44.71 63.14C44.35 61.42 43.34 58.75 42.05 56.88ZM56.09 77.76L56.09 73.30L48.74 73.30L48.74 68.54L57.24 68.54L57.24 64.01L51.12 64.01C52.13 62.21 53.14 59.98 54.07 57.96L50.54 56.88L56.23 56.88L56.23 52.42L49.32 52.42C48.53 50.83 47.45 48.89 46.51 47.30L41.90 49.03C42.48 50.04 43.13 51.19 43.63 52.42L36.22 52.42L36.22 56.88L41.69 56.88L38.45 57.74C39.53 59.69 40.54 62.21 40.82 64.01L35.50 64.01L35.50 68.54L43.70 68.54L43.70 73.30L36.50 73.30L36.50 77.76L43.70 77.76L43.70 86.98L48.74 86.98L48.74 77.76ZM44.86 42.05L44.86 38.09L59.47 38.09L59.47 42.05ZM59.47 30.17L59.47 34.06L44.86 34.06L44.86 30.17ZM65.88 25.70L38.52 25.70L38.52 46.51L59.47 46.51L59.47 81.36C59.47 82.30 59.18 82.58 58.25 82.66C57.46 82.66 54.65 82.66 51.98 82.58C52.78 84.17 53.64 86.90 53.86 88.56C58.18 88.56 61.27 88.42 63.29 87.41C65.23 86.33 65.88 84.67 65.88 81.36Z"/></svg>
