<svg xmlns="http://www.w3.org/2000/svg" xmlns:xlink="http://www.w3.org/1999/xlink" width="72.00000000000001" height="106.56000000000002"><path fill="red" stroke="red" d="M50.33 48.46L50.33 53.35C50.33 58.46 51.48 60.55 56.81 60.55L63.86 60.55C65.52 60.55 67.46 60.48 68.40 60.12C68.26 58.68 68.11 56.81 67.97 55.30C66.96 55.51 64.94 55.66 63.72 55.66L57.60 55.66C56.30 55.66 56.16 55.08 56.16 53.42L56.16 48.46L68.33 48.46L68.33 42.77L50.47 42.77L50.47 35.86L64.30 35.86L64.30 30.24L50.47 30.24L50.47 23.33L43.85 23.33L43.85 30.24L30.46 30.24L30.46 35.86L43.85 35.86L43.85 42.77L26.78 42.77L26.78 48.46L37.22 48.46C36.43 53.86 34.20 56.95 26.78 58.82C26.21 55.44 24.70 51.62 21.17 47.52C23.40 41.98 25.92 34.49 28.01 28.51L23.40 25.92L22.46 26.21L6.05 26.21L6.05 89.28L12.31 89.28L12.31 32.18L20.16 32.18C18.86 37.08 16.92 43.49 15.19 48.31C19.80 53.50 20.95 58.10 20.95 61.63C20.95 63.72 20.59 65.38 19.66 66.10C19.08 66.53 18.29 66.74 17.42 66.74C16.49 66.82 15.26 66.82 13.82 66.60C14.76 68.26 15.34 70.99 15.41 72.65C17.06 72.72 18.79 72.65 20.16 72.50C21.67 72.22 22.97 71.78 24.05 71.14C26.21 69.55 27.07 66.60 27.07 62.42C27.07 61.34 27.00 60.19 26.78 58.97C28.08 60.12 29.45 62.28 30.02 63.65C39.46 60.91 42.34 56.23 43.27 48.46ZM50.47 81.65L50.47 73.01L65.16 73.01L65.16 67.25L50.47 67.25L50.47 60.19L43.85 60.19L43.85 67.25L29.59 67.25L29.59 73.01L43.85 73.01L43.85 81.65L23.90 81.65L23.90 87.62L69.05 87.62L69.05 81.65Z"/></svg>
