<svg xmlns="http://www.w3.org/2000/svg" xmlns:xlink="http://www.w3.org/1999/xlink" width="72.00000000000001" height="106.56000000000002"><path fill="red" stroke="red" d="M22.54 25.78L21.60 26.06L5.62 26.06L5.62 88.99L11.52 88.99L11.52 32.04L19.15 32.04C17.71 36.79 15.70 42.84 13.75 47.59C18.86 52.99 20.16 57.74 20.16 61.49C20.16 63.65 19.80 65.38 18.79 66.17C18.14 66.53 17.42 66.74 16.56 66.74C15.55 66.82 14.26 66.82 12.82 66.67C13.68 68.33 14.26 70.85 14.33 72.50C15.98 72.50 17.78 72.50 19.08 72.36C20.66 72.14 21.89 71.71 23.04 70.92C25.13 69.41 26.14 66.31 26.14 62.14C26.06 57.82 24.91 52.63 19.73 46.87C22.10 41.33 24.77 34.27 26.93 28.30ZM35.14 47.74L35.14 37.94L45.29 37.94L45.29 32.26L35.14 32.26L35.14 23.47L28.51 23.47L28.51 46.44C28.51 48.89 27.36 49.46 26.21 49.82C27.07 51.34 27.94 54.36 28.22 56.09C29.66 55.15 31.97 54.36 45.94 50.76C45.58 49.54 45.22 47.16 45.07 45.50ZM57.67 70.42L36.58 70.42L36.58 64.66L57.67 64.66ZM36.58 81.43L36.58 75.46L57.67 75.46L57.67 81.43ZM42.62 53.14C42.19 54.86 41.40 57.24 40.54 59.33L29.88 59.33L29.88 89.28L36.58 89.28L36.58 86.76L57.67 86.76L57.67 88.99L64.58 88.99L64.58 59.33L47.23 59.33C48.10 57.82 49.10 56.30 49.97 54.72ZM56.23 48.89C54.65 48.89 54.36 48.60 54.36 46.58L54.36 37.94L67.25 37.94L67.25 32.33L54.36 32.33L54.36 23.47L47.81 23.47L47.81 46.58C47.81 52.78 49.25 54.65 55.15 54.65L62.06 54.65C66.82 54.65 68.47 52.34 69.05 44.14C67.32 43.70 64.73 42.77 63.36 41.69C63.14 47.81 62.86 48.89 61.42 48.89Z"/></svg>
