<svg xmlns="http://www.w3.org/2000/svg" xmlns:xlink="http://www.w3.org/1999/xlink" width="72.00000000000001" height="106.56000000000002"><path fill="red" stroke="red" d="M34.78 34.92C35.35 36.43 36.07 38.16 36.50 39.74L25.85 39.74L25.85 45.07L68.40 45.07L68.40 39.74L57.74 39.74L60.19 35.14L53.64 33.77C53.14 35.42 52.27 37.80 51.41 39.74L41.33 39.74L42.70 39.31C42.34 37.80 41.47 35.57 40.54 33.77L65.95 33.77L65.95 28.51L50.54 28.51C49.97 26.71 49.18 24.48 48.31 22.75L42.41 24.26C42.84 25.56 43.42 27.07 43.85 28.51L28.73 28.51L28.73 33.77L38.95 33.77ZM22.75 25.78L21.82 25.99L5.04 25.99L5.04 88.99L10.94 88.99L10.94 32.04L19.44 32.04C18.00 36.79 16.06 42.84 14.11 47.52C19.15 52.92 20.38 57.74 20.38 61.42C20.38 63.58 19.94 65.38 18.94 66.10C18.29 66.53 17.57 66.67 16.70 66.74C15.62 66.82 14.26 66.82 12.82 66.60C13.68 68.26 14.26 70.85 14.33 72.43C16.06 72.50 17.93 72.50 19.30 72.36C20.88 72.07 22.18 71.64 23.26 70.92C25.42 69.34 26.35 66.31 26.35 62.14C26.28 57.82 25.13 52.63 20.09 46.80C22.39 41.26 24.98 34.20 27.22 28.30ZM36.79 60.91L57.38 60.91L57.38 64.94L36.79 64.94ZM36.79 53.06L57.38 53.06L57.38 57.02L36.79 57.02ZM68.69 73.73L50.83 73.73L50.83 69.34L63.86 69.34L63.86 48.60L30.60 48.60L30.60 69.34L44.28 69.34L44.28 73.73L25.99 73.73L25.99 79.27L44.28 79.27L44.28 89.14L50.83 89.14L50.83 79.27L68.69 79.27Z"/></svg>
