<svg xmlns="http://www.w3.org/2000/svg" xmlns:xlink="http://www.w3.org/1999/xlink" width="72.00000000000001" height="106.56000000000002"><path fill="red" stroke="red" d="M11.66 37.87L32.54 37.87L32.54 52.49L39.02 52.49L39.02 37.87L54.94 37.87C51.62 39.02 46.01 40.75 42.19 41.47L44.42 44.71C48.38 44.06 54.00 42.98 57.96 41.47L55.22 37.87L60.12 37.87L60.12 46.01L66.53 46.01L66.53 33.70L39.02 33.70L39.02 30.46L62.06 30.46L62.06 25.49L9.79 25.49L9.79 30.46L32.54 30.46L32.54 33.70L5.47 33.70L5.47 46.01L11.66 46.01ZM41.26 49.25C46.80 50.11 54.07 51.84 57.96 53.21L59.26 48.89C55.37 47.52 48.02 45.94 42.70 45.43ZM14.18 41.83C18.72 42.62 24.55 44.21 27.65 45.43L29.45 41.47C26.21 40.25 20.38 38.88 15.98 38.30ZM13.97 53.06C18.58 52.20 23.90 50.98 29.38 49.82L29.16 45.86C22.82 46.80 16.70 47.66 12.17 48.24ZM58.75 73.01C56.52 74.59 53.06 76.68 50.11 78.26C47.23 76.82 44.78 75.10 42.98 73.01ZM36.79 73.01C42.19 81.72 51.98 86.26 66.02 87.91C66.74 86.26 68.18 84.02 69.41 82.73C64.15 82.37 59.33 81.58 55.22 80.28C58.10 78.91 61.27 77.26 64.01 75.38L59.47 73.01L68.26 73.01L68.26 68.40L15.77 68.40C15.84 67.39 15.84 66.53 15.91 65.59L61.49 65.59L61.49 61.34L15.91 61.34L15.91 58.75L65.52 58.75L65.52 54.00L9.65 54.00L9.65 63.86C9.65 70.49 8.86 79.06 2.30 85.39C3.74 86.11 6.26 88.42 7.27 89.64C11.88 85.10 14.18 78.84 15.19 73.01L20.52 73.01L20.52 78.91C20.52 81.86 18.58 83.23 17.21 83.81C18.14 85.10 19.37 87.70 19.66 89.21C21.17 88.49 23.62 87.98 41.69 85.03C41.69 83.81 41.90 81.50 42.26 79.99L27.07 82.15L27.07 73.01Z"/></svg>
