<svg xmlns="http://www.w3.org/2000/svg" xmlns:xlink="http://www.w3.org/1999/xlink" width="72.00000000000001" height="106.56000000000002"><path fill="red" stroke="red" d="M11.88 36.58L32.54 36.58L32.54 49.46L39.02 49.46L39.02 36.58L60.19 36.58L60.19 46.22L66.96 46.22L66.96 32.40L39.02 32.40L39.02 28.87L63.72 28.87L63.72 24.62L8.50 24.62L8.50 28.87L32.54 28.87L32.54 32.40L5.33 32.40L5.33 46.22L11.88 46.22ZM41.54 46.80C47.16 47.59 54.36 49.32 58.32 50.69L59.47 46.80C56.16 45.65 50.54 44.42 45.65 43.63C49.46 42.77 54.36 41.62 57.89 40.10L55.37 36.86C52.13 38.09 46.37 40.10 42.55 40.97L44.21 43.42L42.84 43.27ZM66.17 56.74L66.17 52.34L22.32 52.34C22.75 51.62 23.18 50.98 23.62 50.33L19.22 49.54C22.61 48.89 26.21 48.10 29.95 47.38L29.66 43.70L27.43 43.99L29.16 40.46C26.21 39.17 20.74 37.73 16.63 36.94L14.83 40.10C19.08 41.04 24.41 42.70 27.36 44.06C21.89 44.86 16.63 45.58 12.67 46.08L14.33 50.54L16.42 50.11C13.97 53.78 10.08 57.82 4.68 60.84C6.19 61.63 8.42 63.65 9.50 65.09C13.32 62.57 16.49 59.76 19.01 56.74ZM40.97 77.47L43.13 75.17C41.04 74.16 37.80 72.86 34.63 72.00L52.34 72.00C52.13 74.16 51.84 75.96 51.55 77.47ZM29.66 72.00L27.43 74.16C30.89 74.74 34.99 76.10 37.94 77.47L19.44 77.47C19.80 75.74 20.23 73.94 20.59 72.00ZM31.25 63.43L29.02 65.66C31.90 66.17 35.35 67.25 37.94 68.47L21.38 68.47C21.74 66.82 22.10 65.09 22.46 63.43ZM41.04 68.47L42.98 66.46C40.97 65.38 37.66 64.22 34.56 63.43L53.21 63.43C53.06 65.23 52.92 66.96 52.78 68.47ZM68.18 72.50L68.18 68.04L59.11 68.04C59.26 66.17 59.47 64.22 59.62 62.06C59.76 61.34 59.83 59.47 59.83 59.47L16.49 59.47C16.13 62.14 15.55 65.09 14.90 68.04L3.96 68.04L3.96 72.50L13.82 72.50C13.03 75.89 12.31 79.13 11.52 81.65L50.54 81.65C50.18 82.66 49.75 83.23 49.39 83.59C48.74 84.31 48.02 84.38 46.80 84.38C45.43 84.38 42.26 84.38 38.81 84.02C39.60 85.32 40.18 87.41 40.25 88.78C43.92 88.99 47.45 88.99 49.39 88.92C51.62 88.70 53.35 88.20 54.79 86.69C55.73 85.82 56.45 84.24 57.17 81.65L66.31 81.65L66.31 77.47L57.96 77.47C58.18 76.03 58.46 74.38 58.68 72.50Z"/></svg>
