<svg xmlns="http://www.w3.org/2000/svg" xmlns:xlink="http://www.w3.org/1999/xlink" width="72.00000000000001" height="106.56000000000002"><path fill="red" stroke="red" d="M62.78 23.83C55.94 25.99 43.99 27.79 33.62 28.87C34.27 30.10 35.06 32.26 35.28 33.62C46.01 32.76 58.75 31.03 67.32 28.30ZM61.06 44.21C62.71 41.40 64.66 37.37 66.38 33.55L60.84 31.97C59.83 35.21 57.74 39.82 56.09 42.70ZM53.57 42.98C53.14 40.32 51.91 36.29 50.62 33.34L45.50 34.42C46.73 37.51 47.95 41.62 48.17 44.28ZM33.70 46.22L22.18 46.22L22.18 42.34L30.89 42.34L30.89 37.66L22.18 37.66L22.18 34.06L32.76 34.06L32.76 29.23L22.18 29.23L22.18 23.11L15.98 23.11L15.98 29.23L4.68 29.23L4.68 34.06L15.98 34.06L15.98 37.66L6.55 37.66L6.55 42.34L15.98 42.34L15.98 46.22L3.53 46.22L3.53 51.19L33.70 51.19ZM12.38 72.65C12.46 71.64 12.46 70.78 12.46 69.84L12.46 68.40L24.98 68.40L24.98 72.65ZM24.98 59.54L24.98 63.79L12.46 63.79L12.46 59.54ZM30.60 54.58L6.77 54.58L6.77 69.70C6.77 74.81 6.48 80.71 3.24 85.18C4.46 85.97 6.62 88.34 7.42 89.57C10.15 86.18 11.38 81.72 12.02 77.26L24.98 77.26L24.98 82.73C24.98 83.59 24.70 83.81 23.76 83.81C22.97 83.81 20.09 83.88 17.14 83.74C17.93 85.25 18.79 87.41 19.08 88.92C23.40 88.92 26.28 88.92 28.15 87.98C30.02 87.05 30.60 85.54 30.60 82.80ZM59.26 67.32L52.56 67.32L52.56 61.63L59.26 61.63ZM52.56 50.69L59.26 50.69L59.26 55.87L52.56 55.87ZM69.26 55.87L64.87 55.87L64.87 45.36L40.10 45.36L44.57 43.49C43.78 41.04 41.90 37.22 40.10 34.56L35.35 36.43C37.08 39.17 38.66 42.84 39.38 45.36L36.72 45.36L36.72 50.69L46.37 50.69L46.37 55.87L33.41 55.87L33.41 61.63L46.37 61.63L46.37 67.32L36.36 67.32L36.36 72.65L46.37 72.65L46.37 82.15C46.37 83.02 46.15 83.23 45.22 83.23C44.42 83.30 41.40 83.30 38.52 83.16C39.31 84.82 40.18 87.34 40.39 88.99C44.71 88.99 47.88 88.85 49.90 87.91C51.98 87.05 52.56 85.39 52.56 82.22L52.56 72.65L64.87 72.65L64.87 61.63L69.26 61.63Z"/></svg>
