<svg xmlns="http://www.w3.org/2000/svg" xmlns:xlink="http://www.w3.org/1999/xlink" width="72.00000000000001" height="106.56000000000002"><path fill="red" stroke="red" d="M61.34 48.89L46.80 48.89L46.80 43.20L61.34 43.20ZM61.34 59.62L46.80 59.62L46.80 53.78L61.34 53.78ZM61.34 70.34L46.80 70.34L46.80 64.51L61.34 64.51ZM41.26 37.94L41.26 75.53L67.03 75.53L67.03 37.94L55.66 37.94C56.09 36.14 56.59 33.98 57.10 31.97L68.76 31.97L68.76 26.35L39.38 26.35L39.38 31.97L50.40 31.97C50.18 33.91 49.90 36.07 49.61 37.94ZM10.87 38.88L17.64 38.88L17.64 42.77L11.81 43.20L12.10 47.74L17.71 47.23C17.86 50.26 18.94 51.84 22.97 51.84L31.39 51.84C33.19 51.84 35.28 51.77 36.29 51.48C36.07 50.18 36.00 49.10 35.86 47.74C34.85 47.95 32.40 48.10 31.18 48.10L24.62 48.10C23.11 48.10 22.97 47.52 22.97 46.01L22.97 45.86L31.82 45.07L31.54 41.54L22.97 42.12L22.97 38.88L33.62 38.88C33.34 40.75 33.05 42.62 32.69 43.99L37.01 44.93C37.94 42.34 38.66 38.23 39.24 34.63L35.78 33.91L34.92 34.06L23.54 34.06L23.54 31.18L36.29 31.18L36.29 26.78L23.54 26.78L23.54 23.11L17.50 23.11L17.50 34.06L5.76 34.06L5.76 54.58C5.76 63.50 5.47 75.89 1.73 84.67C2.88 85.25 5.11 86.83 6.05 87.84C10.22 78.41 10.87 64.22 10.87 54.58ZM17.71 62.50L22.68 62.50L22.68 65.59L17.71 65.59ZM17.71 56.52L22.68 56.52L22.68 59.54L17.71 59.54ZM32.33 59.54L26.78 59.54L26.78 56.52L32.33 56.52ZM32.33 65.59L26.78 65.59L26.78 62.50L32.33 62.50ZM13.32 68.69L36.79 68.69L36.79 53.42L13.32 53.42ZM16.27 74.95L19.44 74.95L19.44 82.01L16.27 82.30ZM26.35 81.29L22.90 81.65L22.90 74.95L26.35 74.95ZM33.19 80.50L29.88 80.86L29.88 74.95L33.19 74.95ZM39.96 79.78L37.51 80.06L37.51 70.92L12.10 70.92L12.10 82.73L8.50 83.09L9.36 88.06C16.85 87.12 27.14 85.90 37.22 84.60C36.79 84.89 36.29 85.10 35.86 85.32C37.30 86.47 39.24 88.20 40.18 89.35C44.42 87.26 49.54 83.30 52.70 79.78L47.23 76.61C45.65 78.55 42.91 80.93 40.03 82.87ZM56.02 79.85C59.18 82.73 63.22 86.76 65.02 89.35L70.13 85.90C68.04 83.30 63.94 79.49 60.77 76.75Z"/></svg>
