<svg xmlns="http://www.w3.org/2000/svg" xmlns:xlink="http://www.w3.org/1999/xlink" width="72.00000000000001" height="106.56000000000002"><path fill="red" stroke="red" d="M50.47 37.22C52.42 39.31 54.58 41.69 56.66 44.06C54.65 46.80 52.42 49.10 49.97 50.54C51.05 51.62 52.42 53.57 53.06 54.86C55.66 53.14 57.96 50.83 60.05 48.10C62.06 50.62 63.86 52.99 65.02 54.86L69.12 51.05C67.68 49.03 65.45 46.30 63.00 43.49C65.38 39.17 67.03 33.91 68.04 27.94L64.87 27.07L63.94 27.22L51.91 27.22L51.91 32.26L62.06 32.26C61.34 34.78 60.41 37.22 59.40 39.46C57.67 37.58 55.94 35.71 54.29 34.13ZM6.34 84.96C7.56 80.64 8.50 73.66 9.00 68.76L5.54 67.61C5.11 72.36 3.96 79.27 2.74 83.45ZM10.30 68.76C10.87 72.94 11.16 78.34 11.02 81.94L14.11 81.50C14.26 77.98 13.97 72.50 13.25 68.40ZM11.16 53.06L16.85 53.06L16.85 58.82L11.16 58.82ZM16.85 31.39L16.85 36.86L11.16 36.86L11.16 31.39ZM16.85 47.81L11.16 47.81L11.16 42.12L16.85 42.12ZM21.96 58.82L21.96 53.06L27.94 53.06L27.94 47.81L21.96 47.81L21.96 42.12L27.94 42.12L27.94 36.86L21.96 36.86L21.96 31.39L29.02 31.39L29.02 25.92L5.98 25.92L5.98 64.08L24.70 64.08C24.48 67.75 24.34 70.78 24.12 73.30C23.33 71.06 22.32 68.26 21.10 66.10L18.50 67.10C19.87 69.98 21.24 73.87 21.82 76.39L23.90 75.60C23.40 80.06 22.97 82.22 22.39 83.02C21.82 83.74 21.31 83.88 20.45 83.88C19.44 83.88 17.42 83.81 15.19 83.59C15.91 85.10 16.42 87.34 16.56 88.99C19.01 89.06 21.46 89.06 22.82 88.92C24.48 88.70 25.63 88.13 26.71 86.69C28.37 84.53 29.16 78.26 29.95 61.27C30.02 60.48 30.02 58.82 30.02 58.82ZM19.80 78.98C19.58 75.96 18.58 71.14 17.35 67.61L14.54 68.11C15.62 71.78 16.56 76.61 16.78 79.70ZM38.09 44.86L44.21 44.86L44.21 48.02L38.09 48.89ZM44.21 31.03L44.21 33.91L38.09 33.91L38.09 31.03ZM38.09 37.80L44.21 37.80L44.21 41.04L38.09 41.04ZM30.24 49.90L31.25 54.72C35.21 54.07 39.67 53.35 44.21 52.56L44.21 55.80L49.03 55.80L49.03 31.03L50.76 31.03L50.76 26.28L31.32 26.28L31.32 31.03L33.34 31.03L33.34 49.54ZM37.58 63.58C36.43 69.77 34.06 75.10 30.60 78.48C31.32 79.70 32.40 82.37 32.76 83.59C35.21 81.29 37.22 78.12 38.81 74.45C40.39 77.26 41.90 80.21 42.70 82.22L46.37 79.49C45.22 76.90 42.77 72.72 40.54 69.41C41.04 67.75 41.33 66.17 41.69 64.44ZM59.04 54.50C53.42 56.23 43.20 57.38 34.49 58.03C35.14 59.18 35.78 61.13 36.00 62.35C39.31 62.14 42.91 61.92 46.44 61.49L46.44 88.85L52.27 88.85L52.27 60.70C56.52 60.12 60.48 59.33 63.72 58.32ZM59.18 61.78C58.10 68.26 55.80 73.94 52.42 77.54C53.21 78.70 54.29 81.43 54.58 82.58C56.81 80.42 58.54 77.62 59.98 74.30C61.13 77.47 62.71 80.35 64.58 82.15C65.30 81.07 66.89 79.42 67.97 78.55C65.38 76.32 63.36 72.00 62.21 67.90C62.71 66.24 63.07 64.44 63.43 62.71Z"/></svg>
