<svg xmlns="http://www.w3.org/2000/svg" xmlns:xlink="http://www.w3.org/1999/xlink" width="72.00000000000001" height="106.56000000000002"><path fill="red" stroke="red" d="M6.12 84.96C7.27 80.64 8.06 73.66 8.57 68.76L5.33 67.61C4.82 72.29 3.82 79.20 2.66 83.38ZM10.01 68.69C10.58 72.94 10.87 78.26 10.66 81.86L13.61 81.50C13.75 77.98 13.32 72.50 12.74 68.33ZM10.37 53.06L15.98 53.06L15.98 58.75L10.37 58.75ZM15.98 31.54L15.98 36.86L10.37 36.86L10.37 31.54ZM15.98 47.88L10.37 47.88L10.37 42.12L15.98 42.12ZM20.66 58.75L20.66 53.06L28.37 53.06L28.37 47.88L20.66 47.88L20.66 42.12L28.37 42.12L28.37 36.86L20.66 36.86L20.66 31.54L28.94 31.54L28.94 25.99L5.40 25.99L5.40 64.22L23.98 64.22C23.83 67.82 23.62 70.70 23.47 73.22C22.90 70.92 21.82 68.18 20.74 66.10L18.29 67.03C19.58 69.98 20.95 73.87 21.46 76.39L23.26 75.53C22.90 80.06 22.39 82.22 21.82 83.02C21.46 83.74 20.95 83.88 20.09 83.88C19.22 83.88 17.35 83.81 15.19 83.59C15.91 85.10 16.42 87.34 16.49 88.99C18.79 89.06 21.02 89.06 22.32 88.92C23.83 88.70 24.91 88.13 25.92 86.69C27.43 84.53 28.15 78.12 28.94 61.20C29.02 60.41 29.02 58.75 29.02 58.75ZM19.22 79.06C19.01 76.03 18.00 71.21 16.99 67.61L14.33 68.18C15.34 71.86 16.20 76.61 16.34 79.78ZM37.37 37.94L45.22 37.94L45.22 41.90L38.52 42.41L38.74 46.94L45.22 46.37C45.43 49.46 46.44 51.19 50.54 51.19L58.97 51.19C60.70 51.19 62.86 51.12 63.79 50.90C63.58 49.54 63.50 48.53 63.36 47.09C62.42 47.38 59.90 47.45 58.75 47.45L52.20 47.45C50.69 47.45 50.54 46.87 50.54 45.36L50.54 45.07L59.33 44.28L59.04 40.75L50.54 41.33L50.54 37.94L62.86 37.94C62.50 39.89 62.06 41.83 61.70 43.27L66.31 44.35C67.18 41.83 68.04 37.80 68.83 34.49L65.09 33.55L64.22 33.77L50.11 33.77L50.11 30.96L65.45 30.96L65.45 26.78L50.11 26.78L50.11 23.11L44.28 23.11L44.28 33.77L32.11 33.77L32.11 56.81C32.11 65.81 31.68 77.83 27.29 86.18C28.66 86.76 30.96 88.34 31.97 89.21C36.65 80.28 37.37 66.60 37.37 56.81ZM45.07 62.93L50.33 62.93L50.33 65.88L45.07 65.88ZM45.07 56.66L50.33 56.66L50.33 59.54L45.07 59.54ZM60.48 59.54L54.86 59.54L54.86 56.66L60.48 56.66ZM60.48 65.88L54.86 65.88L54.86 62.93L60.48 62.93ZM40.39 69.41L65.45 69.41L65.45 53.14L40.39 53.14ZM43.78 75.96L47.30 75.96L47.30 82.66L43.78 82.66ZM54.58 75.96L54.58 82.66L50.98 82.66L50.98 75.96ZM61.85 75.96L61.85 82.66L58.25 82.66L58.25 75.96ZM66.53 82.66L66.53 71.71L39.24 71.71L39.24 82.66L35.93 82.66L35.93 87.34L68.98 87.34L68.98 82.66Z"/></svg>
