<svg xmlns="http://www.w3.org/2000/svg" xmlns:xlink="http://www.w3.org/1999/xlink" width="72.00000000000001" height="106.56000000000002"><path fill="red" stroke="red" d="M27.36 29.59L5.54 29.59L5.54 35.50L27.36 35.50ZM31.10 75.53C29.74 70.56 26.71 62.93 24.05 57.02L18.94 58.68C19.94 61.34 21.17 64.37 22.32 67.32L11.45 69.26C13.97 64.01 16.27 57.74 17.93 51.84L29.23 51.84L29.23 45.86L2.95 45.86L2.95 51.84L11.59 51.84C9.86 58.75 7.27 65.23 6.34 67.18C5.33 69.55 4.25 71.21 3.10 71.50C3.82 73.15 4.82 76.03 5.18 77.33C6.62 76.46 9.07 75.67 24.12 72.50C24.77 74.38 25.27 76.10 25.63 77.62ZM37.87 47.52L45.58 47.52L45.58 54.29L37.87 54.29ZM37.87 35.71L45.58 35.71L45.58 42.41L37.87 42.41ZM59.04 42.41L51.12 42.41L51.12 35.71L59.04 35.71ZM59.04 54.29L51.12 54.29L51.12 47.52L59.04 47.52ZM68.33 77.11C67.68 74.52 66.10 70.06 64.73 66.67L61.42 67.68C61.99 69.12 62.64 70.85 63.22 72.43L58.68 73.15C60.05 70.13 61.34 66.24 62.21 62.64L57.89 61.34C57.38 65.81 55.66 70.56 55.22 71.71C54.65 73.01 54.14 73.87 53.35 74.02C53.93 75.02 54.58 77.18 54.86 78.05C55.66 77.62 57.17 77.18 64.08 75.82C64.37 76.82 64.66 77.69 64.80 78.41L65.30 78.19C65.23 79.92 65.09 81.14 64.80 81.65C64.58 82.30 63.94 82.51 63.50 82.66C62.93 82.80 61.70 82.80 60.70 82.80L56.09 82.80C55.08 82.80 54.36 82.73 53.86 82.51C53.21 82.22 53.14 81.58 53.14 80.35L53.14 59.69L65.23 59.69L65.23 30.31L45.07 30.31C45.94 28.37 46.80 26.06 47.66 23.83L40.90 22.97C40.54 25.13 39.89 27.94 39.10 30.31L31.97 30.31L31.97 59.69L38.16 59.69C37.58 72.86 35.86 80.35 24.41 84.53C25.70 85.61 27.36 87.98 28.01 89.57C41.04 84.38 43.42 74.88 44.06 59.69L47.23 59.69L47.23 79.99C47.23 84.38 47.88 85.68 49.32 86.62C50.69 87.55 52.99 87.98 54.94 87.98L61.06 87.98C62.64 87.98 64.87 87.77 66.10 87.41C67.54 87.12 68.47 86.40 69.12 85.39C69.77 84.53 70.13 82.30 70.27 80.21C68.83 79.78 67.03 78.91 65.74 78.05Z"/></svg>
