<svg xmlns="http://www.w3.org/2000/svg" xmlns:xlink="http://www.w3.org/1999/xlink" width="72.00000000000001" height="106.56000000000002"><path fill="red" stroke="red" d="M30.74 23.83C29.66 25.99 27.58 29.16 25.99 31.18L30.46 32.83C32.11 30.89 34.06 28.30 35.78 25.49ZM23.62 81.36C25.06 83.81 26.57 86.98 27.14 88.99L33.12 87.19C32.47 85.18 30.74 82.08 29.30 79.78ZM37.94 81.36C39.74 83.66 41.90 86.76 42.77 88.70L48.60 86.69C47.52 84.67 45.36 81.65 43.42 79.56ZM54.58 69.34L39.53 69.34L39.53 66.31L54.58 66.31ZM54.58 75.67L39.53 75.67L39.53 72.50L54.58 72.50ZM18.22 72.50L33.26 72.50L33.26 75.67L18.22 75.67ZM39.31 60.70C38.45 61.56 37.51 62.28 36.58 63.00L19.66 63.00C20.88 62.21 22.10 61.49 23.18 60.70ZM33.26 69.34L18.22 69.34L18.22 66.31L33.26 66.31ZM61.13 78.98L61.13 63.00L43.92 63.00C45.29 61.92 46.58 60.77 47.74 59.62L44.42 56.81L43.20 57.17L27.58 57.17C28.15 56.59 28.66 56.09 29.23 55.51L22.97 54.29C19.44 57.96 12.96 61.63 4.25 64.15C5.62 65.02 7.42 66.89 8.35 68.18C9.65 67.82 10.80 67.32 11.95 66.82L11.95 78.98L12.24 78.98C10.22 81.43 7.27 84.38 4.18 86.18L9.86 89.57C13.03 87.55 15.84 84.31 17.93 81.79L12.67 78.98L57.10 78.98L52.70 81.86C55.66 84.10 59.33 87.26 61.06 89.28L66.02 85.82C64.15 83.88 60.62 80.93 57.74 78.98ZM24.91 40.61C26.14 43.78 27.36 47.74 27.72 50.26L30.96 49.18C30.60 46.87 29.30 42.84 27.94 39.96ZM46.87 34.92L57.31 34.92C56.23 38.02 54.58 40.68 52.49 42.98C50.04 40.68 48.17 38.09 46.66 35.21ZM68.33 34.92L68.33 29.81L49.61 29.81C50.40 28.01 51.12 26.21 51.77 24.41L46.01 23.11C44.14 29.09 40.82 34.70 36.50 38.52L36.50 32.98L24.41 32.98L24.41 23.11L18.72 23.11L18.72 32.98L12.10 32.98L16.92 30.96C15.91 29.09 13.75 26.14 12.02 24.12L7.20 25.85C8.93 28.01 10.94 31.10 11.95 32.98L6.41 32.98L6.41 55.08L11.38 55.08L11.38 50.26C12.38 50.62 13.82 51.34 14.62 51.84C16.06 48.96 17.14 44.64 17.78 40.54L14.18 39.82C13.68 43.49 12.96 47.16 11.38 50.11L11.38 37.66L19.30 37.66L19.30 54.00L23.83 54.00L23.83 37.66L31.61 37.66L31.61 54.43L36.50 54.43L36.50 39.53C37.80 40.68 39.46 42.34 40.18 43.20C41.33 42.19 42.41 41.04 43.42 39.74C44.93 42.26 46.58 44.42 48.53 46.44C45.29 48.74 41.54 50.47 37.08 51.77C38.16 52.99 39.74 55.37 40.32 56.59C45.07 54.94 49.18 52.85 52.70 50.11C56.45 52.92 60.91 55.08 65.95 56.38C66.60 54.94 68.26 52.78 69.55 51.62C64.73 50.54 60.41 48.82 56.74 46.44C59.62 43.27 61.85 39.53 63.36 34.92Z"/></svg>
