<svg xmlns="http://www.w3.org/2000/svg" xmlns:xlink="http://www.w3.org/1999/xlink" width="72.00000000000001" height="106.56000000000002"><path fill="red" stroke="red" d="M11.95 89.42C14.40 87.19 16.49 83.81 18.07 80.86L12.82 78.48C11.45 81.14 9.07 84.60 6.55 86.62ZM21.89 80.28C22.75 82.87 23.40 86.40 23.47 88.56L29.16 87.55C29.02 85.39 28.22 81.94 27.29 79.42ZM32.54 80.28C33.98 82.73 35.21 85.97 35.71 88.06L40.97 86.69C40.46 84.60 39.10 81.50 37.58 79.20ZM40.90 41.98L39.67 44.21C44.64 45.72 50.54 47.74 55.87 49.68L37.73 49.68C38.59 48.46 39.60 47.09 40.46 45.50L33.62 44.86C33.19 46.22 32.40 47.95 31.68 49.68L22.25 49.68C26.86 47.59 30.17 44.93 32.69 41.98ZM19.44 31.90L31.82 31.90C31.18 33.70 30.38 35.50 29.30 37.08L19.44 37.08ZM52.70 31.90L52.70 37.08L35.86 37.08C36.72 35.50 37.44 33.70 37.94 31.90ZM21.31 61.85L21.31 59.04L51.19 59.04L51.19 61.85ZM21.31 53.21L51.19 53.21L51.19 55.94L21.31 55.94ZM21.31 65.38L57.67 65.38L57.67 50.33C61.42 51.70 64.80 53.06 67.25 54.22L69.48 49.61C64.37 47.45 55.51 44.35 47.59 41.98L67.82 41.98L67.82 37.08L59.33 37.08L59.33 27.22L39.10 27.22C39.38 25.85 39.60 24.55 39.82 23.11L33.91 23.11C33.70 24.55 33.48 25.85 33.19 27.22L13.10 27.22L13.10 37.08L4.25 37.08L4.25 41.98L24.77 41.98C20.23 45.58 13.39 48.17 2.81 49.90C3.82 50.98 5.11 53.21 5.47 54.50C8.93 54.00 12.02 53.28 14.83 52.42L14.83 77.90L58.39 77.90C57.82 82.08 57.02 84.02 56.38 84.82C55.87 85.25 55.30 85.32 54.36 85.32C53.57 85.39 51.91 85.32 49.90 85.18L51.77 84.46C50.98 82.80 49.25 80.42 47.59 78.84L43.06 80.42C44.64 82.22 46.30 84.67 47.02 86.40L49.03 85.61C49.54 86.69 49.97 88.13 50.04 89.21C52.92 89.42 55.66 89.42 57.02 89.35C58.75 89.28 60.12 88.92 61.27 87.91C62.86 86.54 63.79 83.45 64.66 76.39C64.80 75.67 64.94 74.23 64.94 74.23L21.31 74.23L21.31 71.64L68.26 71.64L68.26 68.04L21.31 68.04Z"/></svg>
