<svg xmlns="http://www.w3.org/2000/svg" xmlns:xlink="http://www.w3.org/1999/xlink" width="72.00000000000001" height="106.56000000000002"><path fill="red" stroke="red" d="M15.19 79.13C11.59 79.13 10.44 77.76 10.44 73.44L10.44 31.97L35.86 31.97L35.86 26.28L3.02 26.28L3.02 31.97L4.97 31.97L4.97 73.15C4.97 81.79 7.70 84.60 15.48 84.60L29.52 84.60C32.69 84.60 35.64 84.38 37.01 84.02C36.72 82.73 36.36 80.06 36.22 78.55C34.70 78.91 32.04 79.13 30.02 79.13ZM28.01 48.38L19.51 48.38L19.51 40.46L28.01 40.46ZM32.76 36.29L14.98 36.29L14.98 52.56L32.76 52.56ZM15.91 60.98L19.44 60.98L19.44 70.78L15.91 70.78ZM12.67 74.95L22.75 74.95L22.75 56.81L12.67 56.81ZM32.40 70.78L28.44 70.78L28.44 61.13L32.40 61.13ZM35.78 56.95L25.13 56.95L25.13 74.95L35.78 74.95ZM42.12 85.97C42.70 82.01 43.42 75.74 43.78 71.78L39.74 70.06C39.38 74.09 38.45 80.28 37.80 84.17ZM45.36 72.00C46.08 75.74 46.58 80.50 46.51 83.66L50.33 83.02C50.26 79.85 49.68 75.10 48.89 71.42ZM60.41 33.84L60.41 37.87L45.29 37.87L45.29 33.84ZM45.29 46.08L45.29 42.12L60.41 42.12L60.41 46.08ZM69.62 59.18L69.62 54.29L45.29 54.29L45.29 50.83L66.24 50.83L66.24 29.09L53.64 29.09C54.50 27.36 55.30 25.56 56.09 23.69L49.39 22.61C49.10 24.48 48.38 26.93 47.59 29.09L39.46 29.09L39.46 67.90L62.64 67.90C62.50 70.92 62.28 73.44 62.06 75.53C61.34 73.44 60.05 70.85 58.82 68.83L55.73 69.98C57.10 72.50 58.54 75.82 59.18 77.90L61.92 76.68C61.49 80.93 60.91 82.94 60.26 83.74C59.76 84.38 59.26 84.46 58.32 84.46C57.31 84.46 55.01 84.46 52.49 84.24C53.28 85.61 53.86 87.70 53.93 89.21C56.52 89.35 59.26 89.28 60.70 89.14C62.42 88.99 63.72 88.49 64.80 87.12C66.46 85.18 67.25 79.63 68.11 65.23C68.11 64.51 68.18 62.93 68.18 62.93L45.29 62.93L45.29 59.18ZM56.95 79.92C56.52 77.40 55.30 73.44 54.07 70.42L50.83 71.28C51.91 74.38 53.06 78.41 53.50 81.00Z"/></svg>
