<svg xmlns="http://www.w3.org/2000/svg" xmlns:xlink="http://www.w3.org/1999/xlink" width="72.00000000000001" height="106.56000000000002"><path fill="red" stroke="red" d="M31.61 43.27L40.18 43.27L40.18 79.42L31.61 79.42ZM46.87 79.42L46.87 43.27L66.31 43.27L66.31 36.65L51.05 36.65C53.35 33.41 55.94 29.16 58.25 25.13L50.83 23.04C49.25 27.07 46.30 32.62 43.85 36.14L45.29 36.65L24.48 36.65L28.01 35.14C26.86 31.82 23.98 26.86 21.17 23.26L15.19 25.49C17.57 28.80 20.09 33.34 21.31 36.65L5.83 36.65L5.83 43.27L24.91 43.27L24.91 79.42L4.10 79.42L4.10 86.26L68.04 86.26L68.04 79.42ZM8.93 51.05C12.10 58.10 14.69 67.32 15.26 73.44L21.74 71.71C20.95 65.66 18.29 56.52 14.90 49.46ZM55.37 73.44C58.10 67.54 61.34 58.46 63.86 50.54L56.66 48.89C55.15 56.02 51.98 65.74 49.32 71.71Z"/></svg>
