<svg xmlns="http://www.w3.org/2000/svg" xmlns:xlink="http://www.w3.org/1999/xlink" width="72.00000000000001" height="106.56000000000002"><path fill="red" stroke="red" d="M19.44 23.33C16.06 35.50 10.01 46.94 2.45 54.14C3.67 55.51 5.76 58.75 6.55 60.12C8.50 58.10 10.44 55.80 12.24 53.35L12.24 89.35L18.86 89.35L18.86 42.34C21.60 36.94 24.05 30.89 25.85 24.84ZM33.26 79.06L33.26 63.79L56.88 63.79L56.88 79.06ZM56.88 42.34L56.88 57.24L33.26 57.24L33.26 42.34ZM45.00 36.00C46.51 32.47 48.17 28.30 49.46 24.41L41.69 23.11C40.97 27.00 39.46 31.97 38.02 36.00L26.57 36.00L26.57 89.06L33.26 89.06L33.26 85.75L56.88 85.75L56.88 88.56L63.79 88.56L63.79 36.00Z"/></svg>
