<svg xmlns="http://www.w3.org/2000/svg" xmlns:xlink="http://www.w3.org/1999/xlink" width="72.00000000000001" height="106.56000000000002"><path fill="red" stroke="red" d="M34.42 61.42L55.80 61.42L55.80 66.96L34.42 66.96ZM55.80 31.25L55.80 36.43L34.42 36.43L34.42 31.25ZM55.80 51.26L55.80 56.74L34.42 56.74L34.42 51.26ZM55.80 46.58L34.42 46.58L34.42 41.18L55.80 41.18ZM21.10 66.96L21.10 72.86L68.54 72.86L68.54 66.96L62.50 66.96L62.50 25.85L28.01 25.85L28.01 66.96ZM18.50 23.33C14.62 33.84 8.21 44.28 1.44 51.05C2.52 52.63 4.46 56.23 5.11 57.82C7.20 55.58 9.36 53.06 11.30 50.33L11.30 89.06L17.71 89.06L17.71 40.25C20.45 35.42 22.82 30.31 24.77 25.27ZM36.00 73.08C32.54 77.26 26.50 81.72 20.81 84.60C22.25 85.75 23.98 87.91 24.98 89.28C30.89 86.26 37.15 81.72 41.18 76.75ZM49.54 77.26C54.65 80.71 61.27 85.90 64.37 89.28L68.90 84.67C65.66 81.36 58.90 76.39 53.78 73.08Z"/></svg>
