<svg xmlns="http://www.w3.org/2000/svg" xmlns:xlink="http://www.w3.org/1999/xlink" width="72.00000000000001" height="106.56000000000002"><path fill="red" stroke="red" d="M22.25 32.76L22.25 43.99L27.94 43.99L27.94 37.58L61.99 37.58L61.99 43.99L67.90 43.99L67.90 32.76L59.18 32.76C60.70 30.82 62.57 28.22 64.30 25.70L57.89 23.83C56.88 26.28 55.08 29.74 53.50 32.04L55.44 32.76L48.38 32.76L48.38 23.62L41.90 23.62L41.90 32.76L35.14 32.76L37.08 31.97C36.22 29.74 34.34 26.42 32.54 23.98L27.43 25.70C28.87 27.79 30.31 30.60 31.18 32.76ZM31.90 71.35L58.03 71.35L58.03 74.59L31.90 74.59ZM31.90 64.94L58.03 64.94L58.03 68.04L31.90 68.04ZM31.90 58.54L58.03 58.54L58.03 61.56L31.90 61.56ZM25.78 78.41L64.44 78.41L64.44 54.65L25.78 54.65ZM54.79 48.24L34.92 48.24L34.92 44.50L54.79 44.50ZM29.09 40.82L29.09 51.91L60.84 51.91L60.84 40.82ZM18.43 23.40C14.54 33.91 8.14 44.42 1.37 51.12C2.45 52.70 4.39 56.30 5.04 57.89C7.13 55.66 9.22 53.14 11.23 50.40L11.23 89.06L17.57 89.06L17.57 40.46C20.30 35.57 22.75 30.38 24.70 25.27ZM36.65 78.48C32.76 80.78 25.92 83.38 19.87 84.74C21.17 85.90 22.82 87.91 23.62 89.21C29.81 87.62 36.86 84.82 41.40 81.79ZM48.10 82.37C54.29 84.46 60.70 87.19 64.51 89.35L69.62 85.32C65.45 83.16 58.32 80.42 51.91 78.48Z"/></svg>
