<svg xmlns="http://www.w3.org/2000/svg" xmlns:xlink="http://www.w3.org/1999/xlink" width="72.00000000000001" height="106.56000000000002"><path fill="red" stroke="red" d="M16.06 23.40C12.96 34.13 7.78 44.86 2.02 51.84C3.10 53.57 4.90 57.31 5.47 58.90C7.34 56.59 9.07 54.00 10.87 51.05L10.87 89.21L17.28 89.21L17.28 38.52C19.15 34.13 20.88 29.59 22.32 25.13ZM36.43 74.16L53.50 74.16C51.19 75.96 48.17 77.69 44.42 79.20C41.18 77.90 38.23 76.39 35.78 74.74ZM58.82 69.70L57.74 69.98L41.18 69.98C42.05 69.12 42.91 68.26 43.56 67.32L51.26 67.32C55.15 67.32 56.66 66.10 57.10 62.21C59.18 64.37 61.27 66.67 62.42 68.40L66.10 65.88C64.51 63.58 61.06 60.12 58.25 57.74L54.65 59.90C55.30 60.55 56.09 61.34 56.88 62.06C55.51 61.78 53.64 61.27 52.70 60.70C52.49 63.07 52.13 63.50 50.54 63.50L42.84 63.50C40.68 63.50 40.25 63.29 40.25 61.92L40.25 58.10L34.85 58.10L34.85 59.83L31.32 57.96C29.66 60.48 27.00 63.43 24.19 65.09L28.01 68.11C30.82 66.31 33.12 63.43 34.85 60.91L34.85 61.92C34.85 64.66 35.42 66.02 37.30 66.74C35.86 68.40 33.98 69.91 31.82 71.50C31.10 70.78 30.46 70.06 29.81 69.26L24.84 71.14C25.70 72.14 26.50 73.22 27.50 74.23C25.49 75.38 23.18 76.39 20.81 77.40C22.10 78.26 23.76 79.99 24.62 81.29C27.07 80.14 29.38 78.98 31.39 77.69C33.19 79.13 35.21 80.28 37.30 81.43C32.26 82.80 26.35 83.81 19.80 84.53C21.02 85.90 22.46 87.91 23.04 89.42C31.25 88.34 38.38 86.76 44.42 84.60C50.62 86.90 57.74 88.42 65.45 89.28C66.17 87.70 67.61 85.39 68.76 84.17C62.64 83.66 56.95 82.80 51.77 81.43C56.74 78.84 60.55 75.74 63.00 72.00ZM34.13 49.46L56.30 49.46L56.30 52.20L34.13 52.20ZM56.30 37.87L56.30 40.54L34.13 40.54L34.13 37.87ZM56.30 46.37L34.13 46.37L34.13 43.56L56.30 43.56ZM62.57 52.20L62.57 34.27L46.80 34.27L48.10 31.10L67.75 31.10L67.75 26.14L23.26 26.14L23.26 31.10L41.04 31.10C40.82 32.18 40.61 33.19 40.32 34.27L28.15 34.27L28.15 52.20L21.31 52.20L21.31 62.06L27.07 62.06L27.07 56.16L43.42 56.16L41.04 57.60C43.27 59.04 46.01 61.27 47.30 62.71L51.12 60.34C49.97 59.11 47.81 57.53 45.86 56.16L63.00 56.16L63.00 61.99L68.98 61.99L68.98 52.20Z"/></svg>
