<svg xmlns="http://www.w3.org/2000/svg" xmlns:xlink="http://www.w3.org/1999/xlink" width="72.00000000000001" height="106.56000000000002"><path fill="red" stroke="red" d="M16.92 59.54L16.92 47.38L32.98 47.38C32.62 51.62 32.18 55.73 31.25 59.54ZM40.03 33.91C38.45 36.43 36.43 39.24 34.56 41.47L17.57 41.47C19.87 39.02 22.03 36.43 23.90 33.91ZM56.30 59.54L38.30 59.54C39.10 55.66 39.60 51.62 39.96 47.38L56.30 47.38ZM48.17 82.87C44.71 82.87 44.06 82.51 44.06 80.21L44.06 65.45L63.29 65.45L63.29 41.47L42.41 41.47C45.14 38.09 47.88 34.27 49.68 30.96L45.07 27.94L43.99 28.22L27.72 28.22C28.58 26.86 29.38 25.56 30.10 24.19L22.90 22.90C19.15 30.31 12.17 39.38 2.16 45.86C3.74 46.94 5.83 49.25 6.84 50.76C8.14 49.90 9.29 49.03 10.44 48.10L10.44 65.45L29.23 65.45C25.63 73.51 18.43 79.99 3.17 83.74C4.54 85.18 6.19 87.70 6.84 89.42C24.77 84.60 32.76 76.18 36.58 65.45L37.44 65.45L37.44 80.35C37.44 86.98 39.38 88.92 47.45 88.92L59.76 88.92C66.38 88.92 68.26 86.47 69.12 76.97C67.32 76.54 64.51 75.53 63.07 74.45C62.78 81.72 62.21 82.87 59.18 82.87ZM47.16 69.41C50.76 72.36 55.15 76.61 57.10 79.49L61.70 75.46C59.62 72.58 55.15 68.62 51.62 65.88Z"/></svg>
