<svg xmlns="http://www.w3.org/2000/svg" xmlns:xlink="http://www.w3.org/1999/xlink" width="72.00000000000001" height="106.56000000000002"><path fill="red" stroke="red" d="M12.24 32.04L59.04 32.04L59.04 41.33L65.74 41.33L65.74 26.14L5.76 26.14L5.76 41.33L12.24 41.33ZM19.44 62.86L19.44 54.43L32.54 54.43C32.18 57.38 31.75 60.26 31.10 62.86ZM39.53 43.42C38.16 45.43 36.50 47.38 34.92 49.03L19.80 49.03C21.82 47.16 23.76 45.36 25.49 43.42ZM53.35 62.86L38.09 62.86C38.59 60.19 39.02 57.38 39.38 54.43L53.35 54.43ZM47.59 82.30C44.06 82.30 43.42 81.94 43.42 79.78L43.42 68.26L60.26 68.26L60.26 49.03L42.55 49.03C45.00 46.37 47.30 43.42 48.89 40.75L44.57 37.87L43.56 38.09L30.02 38.09C31.03 36.72 31.90 35.50 32.76 34.13L25.63 32.69C21.67 39.38 14.11 47.02 3.17 52.56C4.61 53.57 6.77 55.94 7.56 57.46C9.43 56.45 11.16 55.37 12.89 54.22L12.89 68.26L28.94 68.26C25.27 75.31 18.07 80.42 3.24 83.52C4.54 84.89 6.19 87.55 6.77 89.28C24.70 85.32 32.62 78.12 36.36 68.26L36.94 68.26L36.94 79.92C36.94 86.47 38.95 88.34 47.02 88.34L59.47 88.34C66.24 88.34 68.11 85.90 68.90 75.89C67.18 75.46 64.37 74.52 63.00 73.37C62.64 81.14 62.06 82.30 58.90 82.30ZM46.15 71.86C49.25 74.23 52.70 77.69 54.22 80.06L58.97 76.75C57.38 74.38 53.86 70.99 50.76 68.76Z"/></svg>
