<svg xmlns="http://www.w3.org/2000/svg" xmlns:xlink="http://www.w3.org/1999/xlink" width="72.00000000000001" height="106.56000000000002"><path fill="red" stroke="red" d="M34.70 26.64L28.94 26.64L28.94 35.78L22.90 35.78L22.90 23.90L16.63 23.90L16.63 35.78L10.87 35.78L10.87 26.64L5.40 26.64L5.40 40.97L34.70 40.97ZM36.72 44.35L3.10 44.35L3.10 49.75L36.72 49.75ZM27.22 64.08L12.82 64.08L12.82 58.18L27.22 58.18ZM33.77 53.14L6.62 53.14L6.62 69.12L33.77 69.12ZM17.21 78.48C16.78 76.03 15.62 72.29 13.97 69.70L8.42 71.06C9.79 73.94 11.02 77.69 11.23 80.21ZM62.35 82.01C61.92 82.01 61.63 81.86 61.34 81.58C61.13 81.29 61.06 80.06 61.06 77.90L61.06 26.64L39.31 26.64L39.31 50.47C39.31 59.26 38.81 70.20 34.13 79.34L34.13 77.76L28.08 78.48C29.16 76.32 30.38 73.51 31.61 70.70L25.27 69.19C24.62 71.78 23.33 75.67 22.25 78.19L24.62 78.84C16.34 79.78 8.42 80.64 2.66 81.14L3.53 86.98C11.16 86.04 21.46 84.82 31.54 83.59C31.03 84.31 30.46 84.96 29.88 85.68C31.39 86.40 34.13 88.20 35.21 89.28C44.35 78.70 45.58 62.35 45.58 50.47L45.58 32.98L54.65 32.98L54.65 77.69C54.65 83.81 55.15 85.25 56.23 86.47C57.31 87.55 58.97 88.06 60.48 88.06L63.86 88.06C65.38 88.06 66.67 87.70 67.61 86.90C68.69 86.18 69.34 84.96 69.62 83.09C69.98 81.36 70.27 76.54 70.34 72.86C68.76 72.36 66.82 71.42 65.66 70.34C65.59 74.45 65.52 77.69 65.38 79.20C65.23 80.57 65.02 81.22 64.80 81.58C64.58 81.86 64.08 82.01 63.65 82.01Z"/></svg>
