<svg xmlns="http://www.w3.org/2000/svg" xmlns:xlink="http://www.w3.org/1999/xlink" width="72.00000000000001" height="106.56000000000002"><path fill="red" stroke="red" d="M21.17 63.50L21.17 69.19L12.02 69.19L12.02 63.50ZM36.43 69.19L27.14 69.19L27.14 63.50L36.43 63.50ZM27.14 80.35L27.14 74.23L36.43 74.23L36.43 80.35ZM12.02 80.35L12.02 74.23L21.17 74.23L21.17 80.35ZM5.90 88.99L12.02 88.99L12.02 85.61L36.43 85.61L36.43 88.34L42.77 88.34L42.77 58.25L5.90 58.25ZM33.62 48.53L14.40 48.53L14.40 41.69L33.62 41.69ZM8.35 36.43L8.35 53.71L39.96 53.71L39.96 36.43ZM4.18 32.04L43.63 32.04L43.63 26.35L4.18 26.35ZM53.50 31.75L47.59 31.75L47.59 71.57L53.50 71.57ZM59.90 24.55L59.90 80.86C59.90 82.15 59.40 82.51 58.18 82.58C56.88 82.58 52.78 82.66 48.46 82.44C49.39 84.31 50.40 87.41 50.69 89.21C56.74 89.28 60.62 89.06 63.07 87.91C65.45 86.83 66.38 84.89 66.38 80.86L66.38 24.55Z"/></svg>
