<svg xmlns="http://www.w3.org/2000/svg" xmlns:xlink="http://www.w3.org/1999/xlink" width="72.00000000000001" height="106.56000000000002"><path fill="red" stroke="red" d="M16.78 58.82C19.30 57.24 21.60 55.44 23.76 53.64C27.00 55.08 30.60 56.95 33.84 58.82ZM24.70 26.06L24.70 31.32L28.73 31.32C28.73 34.49 28.37 38.66 25.42 42.19C24.12 39.31 21.96 35.64 19.80 32.76L15.62 34.85C16.56 36.22 17.50 37.73 18.43 39.31L11.38 42.05L11.38 32.11C15.84 30.74 20.45 29.09 24.12 27.07L19.66 23.11C16.42 25.27 10.73 27.50 5.69 29.09L5.69 41.18C5.69 43.70 4.46 44.78 3.38 45.29C4.25 46.58 5.40 49.03 5.83 50.40L5.83 50.54C7.13 49.46 9.00 48.46 20.59 43.42C21.02 44.42 21.38 45.36 21.67 46.22L23.54 45.14C24.62 45.86 25.85 46.94 26.57 47.66L24.26 46.66C19.51 52.20 10.73 57.17 3.02 59.98C4.18 61.20 5.69 63.07 6.48 64.44C9.00 63.29 11.66 61.99 14.18 60.48L14.18 63.36L21.46 63.36L21.46 67.18L7.13 67.18L7.13 71.86L21.46 71.86L21.46 81.58C14.98 81.94 9.14 82.30 4.46 82.51L5.47 87.77C15.41 87.12 30.02 86.26 43.92 85.25L43.99 80.14L36.43 80.64C37.30 78.55 38.23 76.03 39.17 73.66L33.77 72.29C33.12 74.74 32.04 78.34 30.96 81.00L27.43 81.22L27.43 71.86L41.47 71.86L41.47 67.18L27.43 67.18L27.43 63.36L35.28 63.36L35.28 59.69C37.37 61.06 39.24 62.21 40.61 63.36L44.28 59.18C40.46 56.23 33.34 52.49 27.43 49.97C27.79 49.54 28.22 49.10 28.58 48.60L26.93 47.81C32.83 43.06 33.55 36.50 33.55 31.54L33.55 31.32L39.17 31.32C38.74 39.74 38.30 42.91 37.73 43.92C37.30 44.50 36.86 44.64 36.14 44.57C35.50 44.57 34.27 44.57 32.62 44.35C33.34 45.86 33.84 48.02 33.91 49.68C35.86 49.82 37.73 49.75 38.88 49.54C40.32 49.39 41.26 48.89 42.19 47.66C43.49 45.94 43.99 40.90 44.57 28.30C44.64 27.58 44.64 26.06 44.64 26.06ZM9.94 74.02C11.16 76.46 12.46 79.78 12.89 81.86L17.93 80.35C17.42 78.19 16.13 75.02 14.69 72.72ZM53.64 31.10L47.52 31.10L47.52 70.20L53.64 70.20ZM59.98 24.48L59.98 81.07C59.98 82.30 59.47 82.66 58.39 82.66C57.24 82.73 53.57 82.73 49.61 82.58C50.47 84.46 51.41 87.41 51.70 89.14C57.31 89.14 60.98 88.92 63.22 87.84C65.38 86.83 66.31 84.96 66.31 81.14L66.31 24.48Z"/></svg>
