<svg xmlns="http://www.w3.org/2000/svg" xmlns:xlink="http://www.w3.org/1999/xlink" width="72.00000000000001" height="106.56000000000002"><path fill="red" stroke="red" d="M37.58 78.70C36.58 73.94 33.41 66.53 30.53 60.84L25.13 62.93C26.35 65.66 27.65 68.76 28.80 71.78L13.61 74.52C16.78 69.41 19.80 63.22 22.18 57.31L37.51 57.31L37.51 50.98L24.05 50.98L24.05 40.46L35.06 40.46L35.06 34.13L24.05 34.13L24.05 23.11L17.57 23.11L17.57 34.13L5.90 34.13L5.90 40.46L17.57 40.46L17.57 50.98L3.60 50.98L3.60 57.31L14.98 57.31C12.46 64.22 9.00 70.85 7.85 72.79C6.48 75.02 5.33 76.61 4.10 76.82C4.90 78.55 5.90 81.72 6.19 83.09C8.14 82.01 10.94 81.29 30.67 77.47C31.03 78.84 31.39 80.14 31.61 81.22ZM52.70 39.02C52.85 34.20 52.85 29.09 52.85 23.62L46.37 23.62C46.44 29.09 46.51 34.13 46.44 39.02L37.80 39.02L37.80 45.29L46.22 45.29C45.43 62.78 42.41 76.10 33.12 84.96C34.70 85.97 37.80 88.34 38.88 89.50C48.46 78.98 51.62 64.66 52.49 45.29L60.55 45.29C59.90 70.06 59.11 79.27 57.53 81.29C56.81 82.22 56.16 82.51 55.01 82.51C53.71 82.51 50.90 82.44 47.74 82.22C48.74 84.02 49.54 86.83 49.68 88.78C52.92 88.92 56.09 88.99 58.18 88.63C60.34 88.27 61.85 87.62 63.22 85.54C65.52 82.44 66.24 72.07 67.03 42.19C67.10 41.26 67.10 39.02 67.10 39.02Z"/></svg>
