<svg xmlns="http://www.w3.org/2000/svg" xmlns:xlink="http://www.w3.org/1999/xlink" width="72.00000000000001" height="106.56000000000002"><path fill="red" stroke="red" d="M12.67 58.32L12.67 46.73L19.22 46.73L19.22 51.91C19.22 53.93 19.15 56.09 18.94 58.32ZM25.27 34.34C24.12 36.65 22.75 39.17 21.31 41.18L12.38 41.18C14.11 39.02 15.70 36.65 16.99 34.34ZM32.47 58.32L24.98 58.32C25.13 56.16 25.20 54.07 25.20 52.06L25.20 46.73L32.47 46.73ZM63.72 74.02C65.66 71.42 66.31 63.22 67.03 40.25C67.10 39.46 67.10 37.44 67.10 37.44L54.14 37.44C54.29 33.19 54.29 28.73 54.36 23.90L48.17 23.90C48.10 28.73 48.10 33.19 47.95 37.44L40.46 37.44L40.46 43.49L47.74 43.49C46.94 57.31 44.57 67.61 36.43 74.09C37.87 74.95 39.89 77.18 40.75 78.62C50.04 71.06 52.85 59.33 53.86 43.49L60.77 43.49C60.19 61.70 59.54 68.33 58.32 69.91C57.67 70.70 57.10 70.92 56.09 70.92C55.01 70.92 52.63 70.85 50.04 70.63C51.05 72.36 51.70 74.95 51.84 76.82C54.72 76.90 57.53 76.90 59.11 76.61C60.70 76.46 61.78 76.03 62.86 75.02C62.35 80.71 61.42 81.72 57.02 81.72L37.37 81.72C31.32 81.72 30.17 81.22 30.17 78.62L30.17 63.79L38.66 63.79L38.66 41.18L28.15 41.18C30.17 38.02 32.18 34.34 33.55 31.18L29.38 28.73L28.51 28.94L20.02 28.94C20.81 27.29 21.53 25.78 22.18 24.19L15.70 23.18C13.39 29.30 9.00 37.01 2.52 42.84C3.82 43.56 5.62 45.07 6.84 46.30L6.84 63.79L18.07 63.79C16.34 71.14 12.24 78.70 2.45 84.82C3.89 85.82 6.05 87.77 6.98 89.14C17.42 82.44 21.96 73.94 23.90 65.74L23.90 78.70C23.90 85.68 26.64 87.48 37.22 87.48L57.38 87.48C65.74 87.48 67.82 85.32 68.83 76.25C67.32 75.96 64.94 75.24 63.43 74.38Z"/></svg>
