<svg xmlns="http://www.w3.org/2000/svg" xmlns:xlink="http://www.w3.org/1999/xlink" width="72.00000000000001" height="106.56000000000002"><path fill="red" stroke="red" d="M11.09 49.75L19.15 49.75L19.15 54.86L11.09 54.86ZM31.68 54.86L24.34 54.86L24.34 49.75L31.68 49.75ZM15.41 33.34L27.86 33.34L27.86 37.37L15.41 37.37ZM37.51 78.70L24.70 79.70L24.70 76.18L36.29 76.18L36.29 71.28L24.70 71.28L24.70 67.90L37.73 67.90L37.73 63.00L24.70 63.00L24.70 59.54L37.15 59.54L37.15 45.07L24.70 45.07L24.70 41.90L33.98 41.90L33.98 33.34L39.60 33.34L39.60 28.22L33.98 28.22L33.98 23.11L27.86 23.11L27.86 28.22L15.41 28.22L15.41 23.11L9.58 23.11L9.58 28.22L3.46 28.22L3.46 33.34L9.58 33.34L9.58 41.90L18.72 41.90L18.72 45.07L5.83 45.07L5.83 59.54L18.72 59.54L18.72 63.00L5.11 63.00L5.11 67.90L18.72 67.90L18.72 71.28L6.48 71.28L6.48 76.18L18.72 76.18L18.72 80.14C12.96 80.57 7.85 81.00 3.82 81.22L4.32 87.05C13.18 86.18 25.63 84.96 37.51 83.59ZM53.42 38.59C53.57 33.70 53.57 28.51 53.57 23.11L47.52 23.11C47.52 28.58 47.52 33.77 47.45 38.59L40.03 38.59L40.03 44.71L47.30 44.71C46.80 62.28 44.71 76.10 36.36 85.03C38.02 86.04 40.18 88.06 41.26 89.57C50.26 79.42 52.63 64.01 53.28 44.71L60.91 44.71C60.34 69.62 59.62 78.84 58.03 80.86C57.38 81.79 56.66 82.01 55.51 82.01C54.22 82.01 51.34 82.01 48.02 81.72C49.03 83.45 49.75 86.11 49.90 87.84C53.14 87.98 56.45 88.06 58.46 87.77C60.70 87.41 62.21 86.76 63.58 84.74C65.81 81.65 66.38 71.50 67.10 41.69C67.10 40.75 67.18 38.59 67.18 38.59Z"/></svg>
