<svg xmlns="http://www.w3.org/2000/svg" xmlns:xlink="http://www.w3.org/1999/xlink" width="72.00000000000001" height="106.56000000000002"><path fill="red" stroke="red" d="M44.28 57.38L44.28 69.34L27.79 69.34L27.79 57.38ZM50.47 74.95L50.47 51.77L21.60 51.77L21.60 79.99L27.79 79.99L27.79 74.95ZM54.07 39.46L18.07 39.46L18.07 45.14L54.07 45.14ZM65.81 26.64L6.34 26.64L6.34 89.35L12.82 89.35L12.82 32.98L59.26 32.98L59.26 81.14C59.26 82.37 58.82 82.80 57.60 82.87C56.38 82.87 52.20 82.94 48.10 82.73C49.03 84.46 50.11 87.48 50.40 89.28C56.45 89.35 60.19 89.14 62.57 88.06C64.94 86.98 65.81 84.96 65.81 81.14Z"/></svg>
