<svg xmlns="http://www.w3.org/2000/svg" xmlns:xlink="http://www.w3.org/1999/xlink" width="72.00000000000001" height="106.56000000000002"><path fill="red" stroke="red" d="M19.37 35.86L19.37 64.22L11.74 64.22L11.74 35.86ZM25.56 29.66L5.62 29.66L5.62 77.04L11.74 77.04L11.74 70.42L25.56 70.42ZM45.65 33.77L45.65 55.37L37.58 55.37L37.58 33.77ZM60.12 55.37L51.70 55.37L51.70 33.77L60.12 33.77ZM42.84 81.79C38.38 81.79 37.58 81.00 37.58 76.75L37.58 61.42L60.12 61.42L60.12 65.81L66.67 65.81L66.67 27.58L31.03 27.58L31.03 76.75C31.03 85.82 33.70 87.91 42.34 87.91L58.68 87.91C66.53 87.91 68.54 84.60 69.55 74.66C67.68 74.30 65.02 73.15 63.43 72.14C62.86 79.92 62.14 81.79 58.25 81.79Z"/></svg>
