<svg xmlns="http://www.w3.org/2000/svg" xmlns:xlink="http://www.w3.org/1999/xlink" width="72.00000000000001" height="106.56000000000002"><path fill="red" stroke="red" d="M52.78 38.74L58.97 38.74L58.97 34.06L68.76 34.06L68.76 28.66L58.97 28.66L58.97 23.18L52.78 23.18L52.78 28.66L48.38 28.66L48.38 34.06L52.78 34.06ZM62.35 61.49L62.35 57.02L68.62 57.02L68.62 52.20L62.35 52.20L62.35 48.17L56.88 48.17L56.88 52.20L52.85 52.20L52.85 57.02L56.88 57.02L56.88 61.49ZM35.28 38.74L41.40 38.74L41.40 33.98L46.15 33.98L46.15 28.58L41.40 28.58L41.40 23.18L35.28 23.18L35.28 28.58L25.27 28.58L25.27 33.98L35.28 33.98ZM17.86 35.86L17.86 64.22L10.94 64.22L10.94 35.86ZM23.40 29.66L5.40 29.66L5.40 77.04L10.94 77.04L10.94 70.42L23.40 70.42ZM31.46 61.49L36.94 61.49L36.94 57.17L41.04 57.17L41.04 52.27L36.94 52.27L36.94 48.17L31.46 48.17L31.46 52.27L24.70 52.27L24.70 57.17L31.46 57.17ZM69.05 69.05L69.05 63.58L49.90 63.58L49.90 45.86L66.96 45.86L66.96 40.46L26.28 40.46L26.28 45.86L43.70 45.86L43.70 63.58L25.13 63.58L25.13 69.05L43.70 69.05L43.70 74.09L26.78 74.09L26.78 79.78L43.70 79.78L43.70 89.21L49.90 89.21L49.90 79.78L67.61 79.78L67.61 74.09L49.90 74.09L49.90 69.05Z"/></svg>
