<svg xmlns="http://www.w3.org/2000/svg" xmlns:xlink="http://www.w3.org/1999/xlink" width="72.00000000000001" height="106.56000000000002"><path fill="red" stroke="red" d="M56.66 33.77L45.94 33.77L45.94 29.59L56.66 29.59ZM62.86 25.85L40.03 25.85L40.03 37.51L62.86 37.51ZM28.22 33.77L17.71 33.77L17.71 29.59L28.22 29.59ZM34.42 25.85L11.81 25.85L11.81 37.51L34.42 37.51ZM14.26 45.65L67.61 45.65L67.61 40.10L8.14 40.10L8.14 56.30C8.14 64.94 7.56 76.97 2.30 85.54C3.67 86.18 6.26 88.20 7.34 89.42C13.25 80.06 14.26 66.02 14.26 56.38ZM33.70 64.22L23.90 64.22L23.90 60.55L33.70 60.55ZM23.90 79.99L23.90 75.24L33.70 75.24L33.70 79.13ZM33.70 71.71L23.90 71.71L23.90 67.82L33.70 67.82ZM42.05 60.55L42.05 56.09L31.68 56.09L31.68 52.70L40.82 52.70L40.82 48.38L17.42 48.38L17.42 52.70L25.99 52.70L25.99 56.09L15.55 56.09L15.55 60.55L18.50 60.55L18.50 80.42L13.25 80.86L14.04 85.75C19.51 85.18 26.57 84.53 33.70 83.81L33.70 89.14L39.17 89.14L39.17 60.55ZM50.40 58.32L58.97 58.32C58.10 63.00 56.66 67.18 54.72 70.78C52.70 67.39 51.05 63.65 49.82 59.62ZM67.90 58.32L67.90 53.06L52.13 53.06C52.63 51.34 53.06 49.54 53.42 47.74L47.74 46.66C46.30 54.14 43.56 61.20 39.46 65.81C40.82 66.74 43.06 68.69 43.92 69.77C44.86 68.62 45.79 67.32 46.66 65.95C47.95 69.48 49.54 72.79 51.41 75.74C48.31 79.49 44.42 82.44 39.60 84.67C40.90 85.68 42.84 88.20 43.63 89.35C48.02 87.05 51.77 84.17 54.86 80.64C57.89 84.31 61.49 87.34 65.59 89.42C66.53 87.84 68.40 85.39 69.70 84.24C65.38 82.44 61.56 79.49 58.46 75.89C61.56 71.06 63.72 65.23 65.09 58.32Z"/></svg>
