<svg xmlns="http://www.w3.org/2000/svg" xmlns:xlink="http://www.w3.org/1999/xlink" width="72.00000000000001" height="106.56000000000002"><path fill="red" stroke="red" d="M27.22 61.78L18.86 64.94L18.86 46.37L27.79 46.37L27.79 40.03L18.86 40.03L18.86 24.12L12.67 24.12L12.67 40.03L3.31 40.03L3.31 46.37L12.67 46.37L12.67 67.25C8.86 68.69 5.40 69.91 2.59 70.85L5.04 77.47C11.66 74.81 20.38 71.14 28.44 67.61ZM53.28 80.21L53.28 53.86L67.97 53.86L67.97 47.45L53.28 47.45L53.28 23.69L46.58 23.69L46.58 80.21L37.37 80.21L37.37 38.81L30.82 38.81L30.82 80.21L22.61 80.21L22.61 86.62L69.19 86.62L69.19 80.21Z"/></svg>
