<svg xmlns="http://www.w3.org/2000/svg" xmlns:xlink="http://www.w3.org/1999/xlink" width="72.00000000000001" height="106.56000000000002"><path fill="red" stroke="red" d="M25.06 61.78L18.14 64.66L18.14 46.37L25.78 46.37L25.78 40.03L18.14 40.03L18.14 24.05L11.88 24.05L11.88 40.03L3.46 40.03L3.46 46.37L11.88 46.37L11.88 67.18C8.35 68.69 5.11 69.91 2.59 70.85L5.18 77.40C11.30 74.59 19.22 71.06 26.50 67.54ZM44.50 39.53L44.50 50.90L34.85 50.90L34.85 39.53ZM58.03 56.81C56.16 62.35 53.14 67.25 49.61 71.28C45.86 67.18 42.91 62.28 40.90 56.81ZM61.85 50.69L60.62 50.90L50.98 50.90L50.98 39.53L60.77 39.53C60.05 42.55 59.26 45.50 58.46 47.74L64.30 49.03C65.88 45.22 67.61 39.31 68.98 34.13L64.08 33.05L63.07 33.26L50.98 33.26L50.98 23.18L44.50 23.18L44.50 33.26L28.44 33.26L28.44 52.13C28.44 62.06 27.50 75.24 18.58 84.38C19.94 85.18 22.54 87.41 23.54 88.70C31.97 80.06 34.27 67.39 34.70 56.95C37.30 64.22 40.68 70.49 45.14 75.74C40.90 79.34 35.93 82.01 30.67 83.66C31.97 85.03 33.62 87.48 34.42 89.14C39.96 86.90 45.14 84.02 49.54 80.21C54.00 84.10 59.26 87.05 65.30 89.14C66.24 87.26 68.11 84.74 69.62 83.38C63.65 81.72 58.61 79.13 54.22 75.67C59.62 69.62 63.65 61.99 66.02 52.27Z"/></svg>
