<svg xmlns="http://www.w3.org/2000/svg" xmlns:xlink="http://www.w3.org/1999/xlink" width="72.00000000000001" height="106.56000000000002"><path fill="red" stroke="red" d="M46.66 31.18L38.16 31.18C37.51 28.87 36.22 25.85 34.92 23.47L29.30 24.84C30.31 26.71 31.25 29.16 31.90 31.18L22.18 31.18L22.18 36.50L46.66 36.50ZM46.01 73.80L45.86 68.69L36.79 69.84L36.79 67.54C39.89 65.23 43.13 62.35 45.50 59.54L41.90 56.88L40.90 57.17L23.04 57.17L23.04 62.21L35.86 62.21C34.34 63.65 32.54 65.02 30.96 66.02L31.03 66.10L30.96 66.10L30.96 70.56C27.29 70.99 24.05 71.42 21.24 71.71L23.40 70.63L21.96 64.80L15.98 67.46L15.98 46.73L21.89 46.73L21.89 40.39L15.98 40.39L15.98 23.98L10.15 23.98L10.15 40.39L3.82 40.39L3.82 46.73L10.15 46.73L10.15 69.91C7.34 71.14 4.82 72.22 2.66 73.01L4.68 79.63C9.50 77.40 15.12 74.74 20.66 72.00L21.46 77.26L30.96 75.96L30.96 82.58C30.96 83.23 30.82 83.45 29.95 83.52C29.16 83.52 26.71 83.52 23.98 83.45C24.77 84.96 25.56 87.12 25.85 88.70C29.74 88.70 32.47 88.70 34.42 87.84C36.36 86.90 36.79 85.46 36.79 82.66L36.79 75.17ZM60.34 43.49C59.62 50.83 58.61 57.31 56.88 63.00C55.37 57.10 54.36 50.54 53.64 43.49ZM38.81 49.32L29.45 49.32L29.45 44.06L38.81 44.06ZM68.69 43.49L68.69 37.80L55.15 37.80C56.09 33.34 56.95 28.80 57.67 24.19L51.70 23.18C50.40 34.13 48.02 45.07 44.06 52.56L44.06 39.74L24.48 39.74L24.48 53.71L43.63 53.71C44.93 54.94 46.87 57.46 47.66 58.61C48.60 57.02 49.39 55.44 50.11 53.64C51.05 59.83 52.27 65.66 53.93 70.70C51.12 76.54 47.23 81.29 41.83 84.89C43.06 85.97 45.14 88.34 45.79 89.50C50.26 86.11 53.78 82.08 56.59 77.47C59.04 82.30 62.06 86.33 65.95 89.28C66.82 87.70 68.62 85.54 69.98 84.53C65.52 81.65 62.21 77.04 59.76 71.35C63.00 63.72 64.87 54.50 66.02 43.49Z"/></svg>
