<svg xmlns="http://www.w3.org/2000/svg" xmlns:xlink="http://www.w3.org/1999/xlink" width="72.00000000000001" height="106.56000000000002"><path fill="red" stroke="red" d="M51.41 33.34L38.95 33.34L38.95 29.74L51.41 29.74ZM51.41 41.04L38.95 41.04L38.95 37.37L51.41 37.37ZM20.38 37.37L32.54 37.37L32.54 41.04L20.38 41.04ZM20.38 29.74L32.54 29.74L32.54 33.34L20.38 33.34ZM57.89 25.56L14.11 25.56L14.11 45.29L57.89 45.29ZM43.42 59.83L49.82 59.83L49.82 63.58L43.42 63.58ZM43.42 52.20L49.82 52.20L49.82 55.87L43.42 55.87ZM61.06 55.87L54.43 55.87L54.43 52.20L61.06 52.20ZM61.06 63.58L54.43 63.58L54.43 59.83L61.06 59.83ZM38.23 67.61L66.31 67.61L66.31 48.02L38.23 48.02ZM28.66 55.87L22.03 55.87L22.03 52.20L28.66 52.20ZM28.66 63.58L22.03 63.58L22.03 59.83L28.66 59.83ZM11.23 59.83L17.57 59.83L17.57 63.58L11.23 63.58ZM11.23 52.20L17.57 52.20L17.57 55.87L11.23 55.87ZM33.98 48.02L6.05 48.02L6.05 67.61L33.98 67.61ZM39.17 82.15L39.17 77.40L61.78 77.40L61.78 72.22L39.17 72.22L39.17 68.11L32.47 68.11L32.47 72.22L10.37 72.22L10.37 77.40L32.47 77.40L32.47 82.15L3.67 82.15L3.67 87.55L68.54 87.55L68.54 82.15Z"/></svg>
