<svg xmlns="http://www.w3.org/2000/svg" xmlns:xlink="http://www.w3.org/1999/xlink" width="72.00000000000001" height="106.56000000000002"><path fill="red" stroke="red" d="M20.09 42.77L12.24 42.77L12.24 26.28L6.12 26.28L6.12 48.82L20.09 48.82L20.09 58.25L3.24 58.25L3.24 64.30L7.99 64.30L7.99 65.09C7.99 70.42 7.34 79.34 2.95 85.61C4.54 86.40 6.91 88.20 7.99 89.21C13.18 82.15 14.04 71.50 14.04 65.30L14.04 64.30L20.09 64.30L20.09 89.14L26.35 89.14L26.35 23.18L20.09 23.18ZM68.54 52.63L68.54 46.22L52.27 46.22L52.27 23.33L45.50 23.33L45.50 46.22L28.87 46.22L28.87 52.63L45.50 52.63L45.50 80.57L30.53 80.57L30.53 86.90L67.39 86.90L67.39 80.57L52.27 80.57L52.27 52.63Z"/></svg>
