<svg xmlns="http://www.w3.org/2000/svg" xmlns:xlink="http://www.w3.org/1999/xlink" width="72.00000000000001" height="106.56000000000002"><path fill="red" stroke="red" d="M30.53 40.10C29.52 46.51 28.01 52.27 26.06 57.24C23.04 54.00 18.86 50.11 15.34 47.02C16.34 44.86 17.21 42.48 18.14 40.10ZM32.47 33.77L20.23 33.77C21.10 30.67 21.96 27.50 22.68 24.26L15.98 23.04C13.46 35.42 9.14 47.23 2.66 54.58C4.25 55.58 7.13 57.67 8.35 58.82C9.72 56.95 11.09 54.94 12.46 52.63C16.27 56.30 20.38 60.62 23.04 63.86C18.14 72.94 11.38 79.34 3.02 83.45C4.82 84.53 7.56 87.34 8.64 88.99C24.12 80.64 34.92 63.43 38.52 34.92L33.77 33.55ZM50.26 46.44L50.26 23.11L43.20 23.11L43.20 89.14L50.26 89.14L50.26 51.12C55.37 55.87 61.06 61.56 63.94 65.45L69.62 60.84C65.95 56.30 58.32 49.46 52.70 44.64Z"/></svg>
