<svg xmlns="http://www.w3.org/2000/svg" xmlns:xlink="http://www.w3.org/1999/xlink" width="72.00000000000001" height="106.56000000000002"><path fill="red" stroke="red" d="M52.99 58.32L46.30 58.32L46.30 66.24L25.49 66.24L25.49 65.81L25.49 58.39L19.08 58.39L19.08 65.66L19.08 66.24L3.89 66.24L3.89 72.43L18.14 72.43C16.85 76.75 13.54 81.07 5.62 84.46C7.06 85.46 9.29 87.84 10.22 89.28C20.23 84.82 23.76 78.62 24.91 72.43L46.30 72.43L46.30 89.14L52.99 89.14L52.99 72.43L68.18 72.43L68.18 66.24L52.99 66.24ZM39.24 48.96L39.24 41.98L32.83 41.98L32.83 48.96L20.66 48.96C24.70 45.79 28.15 42.26 30.96 38.59L42.19 38.59C44.86 42.41 48.17 45.94 51.98 48.96ZM67.18 38.59L67.18 32.47L35.14 32.47C36.72 29.81 38.02 27.07 39.10 24.26L31.97 23.18C30.96 26.28 29.38 29.38 27.29 32.47L4.90 32.47L4.90 38.59L22.46 38.59C17.64 43.70 11.23 48.31 2.88 51.77C4.32 52.99 6.26 55.37 7.06 56.95C10.94 55.22 14.47 53.28 17.64 51.05L17.64 54.79L32.83 54.79L32.83 63.43L39.24 63.43L39.24 54.79L53.86 54.79L53.86 50.40C57.38 52.99 61.20 55.08 65.16 56.52C66.10 54.86 68.18 52.27 69.62 50.98C62.06 48.67 54.79 43.99 49.75 38.59Z"/></svg>
