<svg xmlns="http://www.w3.org/2000/svg" xmlns:xlink="http://www.w3.org/1999/xlink" width="72.00000000000001" height="106.56000000000002"><path fill="red" stroke="red" d="M21.67 44.06C21.53 50.40 20.88 57.82 17.86 65.30C15.70 63.50 13.39 61.63 11.30 59.98C12.60 55.44 13.82 50.11 15.05 44.50ZM30.38 43.42L30.46 37.80L27.65 37.94L27.65 33.26L21.67 33.26L21.67 38.30L16.27 38.52C17.21 33.48 18.07 28.44 18.65 23.83L12.46 23.40C11.95 28.15 11.09 33.48 10.15 38.88L2.74 39.17L3.38 45.22L8.93 44.86C7.49 51.34 5.98 57.46 4.46 62.06C7.78 64.66 11.52 67.90 15.12 71.06C12.24 75.82 8.14 80.50 2.38 84.67C3.82 85.61 5.98 87.70 6.98 89.06C12.67 84.96 16.85 80.21 19.87 75.31C22.39 77.83 24.70 80.14 26.28 82.08L30.38 76.82C28.58 74.74 25.92 72.14 22.90 69.48C26.71 60.55 27.58 51.26 27.65 43.63ZM68.98 59.11L68.98 52.42L52.78 52.42L52.78 34.92L67.03 34.92L67.03 28.58L32.26 28.58L32.26 34.92L46.08 34.92L46.08 52.42L30.10 52.42L30.10 59.11L46.08 59.11L46.08 80.35L31.03 80.35L31.03 86.62L68.04 86.62L68.04 80.35L52.78 80.35L52.78 59.11Z"/></svg>
