<svg xmlns="http://www.w3.org/2000/svg" xmlns:xlink="http://www.w3.org/1999/xlink" width="72.00000000000001" height="106.56000000000002"><path fill="red" stroke="red" d="M23.04 43.92C22.90 50.47 22.18 58.32 18.72 66.02C16.27 63.94 13.75 61.85 11.30 59.98C12.60 55.44 13.90 49.97 15.05 44.50ZM31.68 43.34L31.75 37.73L29.09 37.87L29.09 33.19L23.04 33.19L23.04 38.16L16.27 38.52C17.21 33.41 18.07 28.44 18.65 23.83L12.46 23.40C11.95 28.15 11.09 33.48 10.15 38.81C7.42 38.95 4.90 39.10 2.74 39.17L3.38 45.22L8.93 44.86C7.49 51.34 5.98 57.46 4.46 62.06C7.99 64.87 11.95 68.18 15.77 71.57C12.74 76.25 8.57 80.71 2.66 84.67C4.03 85.61 6.26 87.77 7.13 89.14C13.03 85.10 17.28 80.64 20.45 75.89C23.11 78.41 25.34 80.86 27.00 82.80L31.10 77.54C29.30 75.38 26.71 72.94 23.69 70.27C28.08 60.98 29.02 51.41 29.09 43.56ZM55.15 79.92L55.15 65.45L67.39 65.45L67.39 59.26L55.15 59.26L55.15 45.22L67.82 45.22L67.82 38.88L55.15 38.88L55.15 23.26L48.53 23.26L48.53 38.88L40.61 38.88C41.18 35.57 41.54 32.18 41.90 28.80L36.00 27.86C35.28 37.37 33.84 47.23 31.03 53.64C32.47 54.22 35.21 55.80 36.22 56.66C37.58 53.50 38.66 49.61 39.53 45.22L48.53 45.22L48.53 59.26L34.20 59.26L34.20 65.45L48.53 65.45L48.53 79.92L31.03 79.92L31.03 86.26L68.98 86.26L68.98 79.92Z"/></svg>
