<svg xmlns="http://www.w3.org/2000/svg" xmlns:xlink="http://www.w3.org/1999/xlink" width="72.00000000000001" height="106.56000000000002"><path fill="red" stroke="red" d="M21.60 43.99C21.46 50.40 20.59 57.89 17.57 65.30C15.48 63.50 13.39 61.78 11.30 60.05C12.60 55.44 13.90 50.04 15.05 44.42ZM30.60 43.49L30.60 37.80L27.65 37.94L27.65 33.19L21.67 33.19L21.67 38.30L16.27 38.52C17.21 33.48 18.07 28.44 18.65 23.83L12.46 23.40C11.95 28.15 11.09 33.55 10.15 38.88L2.74 39.17L3.38 45.22L8.93 44.86C7.49 51.41 5.98 57.53 4.46 62.06C7.63 64.80 11.30 67.90 14.76 71.06C11.88 75.89 7.92 80.50 2.38 84.67C3.82 85.68 6.05 87.70 6.98 89.14C12.46 84.96 16.49 80.28 19.44 75.53C22.18 78.26 24.62 80.78 26.28 83.02L30.53 77.76C28.66 75.46 25.78 72.58 22.54 69.62C26.50 60.62 27.43 51.41 27.65 43.70ZM47.02 38.52L55.58 38.52C53.57 41.62 51.34 44.57 48.82 47.30L47.02 47.30ZM68.90 53.35L68.90 47.30L56.88 47.30C61.27 41.62 65.09 35.50 68.18 28.87L62.14 26.86C60.55 30.24 58.82 33.48 56.81 36.65L56.81 32.54L47.52 32.54L47.52 23.11L41.33 23.11L41.33 32.54L31.25 32.54L31.25 38.52L41.33 38.52L41.33 47.30L29.30 47.30L29.30 53.35L42.91 53.35C37.66 58.25 31.90 62.35 25.78 65.59C26.93 66.96 28.94 69.84 29.66 71.42C32.54 69.70 35.35 67.82 38.09 65.74L38.09 79.49C38.09 86.26 39.96 88.20 47.66 88.20L59.54 88.20C65.95 88.20 67.75 85.68 68.54 75.96C66.82 75.60 64.01 74.52 62.64 73.44C62.35 80.93 61.85 82.15 58.97 82.15L48.38 82.15C45.07 82.15 44.50 81.72 44.50 79.49L44.50 69.62L65.30 69.62L65.30 63.65L44.50 63.65L44.50 60.55C47.02 58.32 49.46 55.87 51.77 53.35Z"/></svg>
