<svg xmlns="http://www.w3.org/2000/svg" xmlns:xlink="http://www.w3.org/1999/xlink" width="72.00000000000001" height="106.56000000000002"><path fill="red" stroke="red" d="M37.87 58.18L37.87 46.66L46.08 46.66C45.94 50.69 45.65 54.58 45.07 58.18ZM53.35 34.56C52.13 37.01 50.76 39.46 49.46 41.40L37.73 41.40C39.46 39.24 40.97 36.86 42.34 34.56ZM60.05 58.18L51.26 58.18C51.77 54.50 52.06 50.62 52.27 46.66L60.05 46.66ZM19.58 43.92C19.51 50.54 18.86 58.32 15.98 65.88C14.11 64.15 12.10 62.28 10.30 60.70C11.30 55.87 12.53 50.26 13.54 44.28ZM55.15 82.58C53.28 82.58 52.92 82.37 52.92 80.42L52.92 63.43L66.38 63.43L66.38 41.40L56.59 41.40C58.68 38.09 60.77 34.13 62.57 30.38L57.67 28.80L56.52 29.09L45.14 29.09C45.86 27.43 46.58 25.85 47.16 24.26L40.46 23.26C38.38 29.30 34.49 36.50 28.44 42.26L28.44 37.51L25.20 37.73L25.20 33.19L19.58 33.19L19.58 38.02L14.47 38.30C15.19 33.19 15.84 28.22 16.27 23.76L10.58 23.54C10.22 28.15 9.58 33.34 8.78 38.59C6.55 38.66 4.54 38.74 2.66 38.81L3.31 44.93L7.78 44.64C6.62 51.48 5.26 57.82 3.96 62.50C6.91 65.23 10.22 68.40 13.32 71.57C10.87 76.25 7.27 80.64 2.30 84.67C3.67 85.54 5.69 87.48 6.62 88.78C11.38 84.82 14.83 80.50 17.57 76.03C20.02 78.55 22.10 81.00 23.62 83.09L27.43 77.98C25.78 75.82 23.33 73.08 20.52 70.20C24.34 61.06 25.13 51.48 25.20 43.56L27.22 43.34L27.14 43.42C28.58 44.35 30.60 46.58 31.54 48.10L31.97 47.66L31.97 63.43L44.06 63.43C41.69 72.50 36.58 79.78 24.91 84.24C26.28 85.39 28.08 87.70 28.87 89.28C37.87 85.54 43.34 80.21 46.73 73.66L46.73 80.50C46.73 86.33 48.24 88.06 54.29 88.06L61.85 88.06C66.96 88.06 68.54 85.68 69.05 76.54C67.39 76.03 64.94 75.10 63.65 74.09C63.43 81.43 63.07 82.58 61.34 82.58Z"/></svg>
