<svg xmlns="http://www.w3.org/2000/svg" xmlns:xlink="http://www.w3.org/1999/xlink" width="72.00000000000001" height="106.56000000000002"><path fill="red" stroke="red" d="M44.42 44.14L57.60 44.14L57.60 47.59L44.42 47.59ZM44.42 36.94L57.60 36.94L57.60 40.32L44.42 40.32ZM44.42 29.81L57.60 29.81L57.60 33.05L44.42 33.05ZM53.50 53.57C56.88 56.09 61.06 59.76 62.93 62.28L68.11 59.11C66.17 57.02 62.57 54.00 59.47 51.70L63.79 51.70L63.79 25.78L38.45 25.78L38.45 51.70L56.81 51.70ZM43.56 51.84C41.62 54.72 38.09 57.60 34.49 59.54C35.86 60.34 38.30 62.06 39.38 63.07C42.91 60.77 46.94 57.10 49.32 53.42ZM45.00 70.99C42.77 73.51 40.03 75.67 36.86 77.26C32.40 76.39 27.86 75.60 23.26 74.81C24.26 73.58 25.20 72.36 26.21 70.99ZM13.90 44.14L26.86 44.14L26.86 47.59L13.90 47.59ZM13.90 36.94L26.86 36.94L26.86 40.32L13.90 40.32ZM13.90 29.81L26.86 29.81L26.86 33.05L13.90 33.05ZM50.11 62.06C49.68 63.22 49.18 64.30 48.67 65.38L30.17 65.38C31.18 63.79 32.11 62.28 32.90 60.77L28.51 59.62L33.12 57.10C31.97 55.44 29.88 53.35 27.86 51.70L32.98 51.70L32.98 25.78L8.06 25.78L8.06 51.70L25.63 51.70L22.32 53.42C24.55 55.15 27.00 57.74 28.22 59.54L26.14 59.04C25.06 61.06 23.83 63.22 22.39 65.38L4.32 65.38L4.32 70.99L18.36 70.99C16.27 73.58 14.26 75.96 12.46 77.98C17.57 78.84 22.68 79.70 27.50 80.71C21.17 82.22 13.54 83.16 4.46 83.59C5.47 85.03 6.48 87.41 6.91 89.21C20.23 88.27 30.53 86.47 38.45 82.94C47.88 85.03 56.16 87.19 62.28 89.14L67.61 84.38C61.70 82.66 53.93 80.86 45.36 78.98C48.31 76.82 50.83 74.16 52.85 70.99L67.90 70.99L67.90 65.38L55.73 65.38C55.94 64.80 56.16 64.30 56.38 63.72ZM12.96 51.98C11.09 54.94 7.63 57.74 4.10 59.62C5.40 60.55 7.63 62.42 8.64 63.43C12.31 61.13 16.20 57.38 18.58 53.57Z"/></svg>
