<svg xmlns="http://www.w3.org/2000/svg" xmlns:xlink="http://www.w3.org/1999/xlink" width="72.00000000000001" height="106.56000000000002"><path fill="red" stroke="red" d="M25.70 44.42L12.89 44.42L12.89 41.33L25.70 41.33ZM27.07 54.43L27.07 57.74L12.89 57.74L12.89 54.43ZM20.74 34.56L15.55 33.91C15.34 34.99 14.90 36.36 14.47 37.66L7.42 37.66L7.42 61.56L32.69 61.56L32.69 50.54L12.89 50.54L12.89 48.02L31.25 48.02L31.25 37.66L20.23 37.66C20.66 36.86 21.17 36.14 21.67 35.28L27.22 35.28L27.22 32.11L33.77 32.11L33.77 27.07L27.22 27.07L27.22 23.11L20.74 23.11L20.74 27.07L4.32 27.07L4.32 32.11L20.74 32.11ZM52.70 63.50L51.48 63.79L15.62 63.79L15.62 68.18L42.70 68.18C39.53 69.41 36.00 70.42 32.83 71.14L32.83 73.37L4.61 73.37L4.61 78.26L32.83 78.26L32.83 82.73C32.83 83.66 32.47 83.88 31.25 83.95C30.17 84.02 25.70 84.02 21.67 83.81C22.39 85.32 23.40 87.41 23.83 89.06C29.59 89.06 33.41 89.06 36.00 88.27C38.52 87.48 39.31 86.11 39.31 82.94L39.31 78.26L67.68 78.26L67.68 73.37L39.89 73.37C45.72 71.71 51.77 69.41 56.45 66.82ZM56.59 41.69C56.16 43.06 55.15 44.93 54.29 46.44L47.88 46.44C47.38 45.00 46.44 43.13 45.50 41.69ZM59.62 46.44C60.26 45.36 60.98 44.21 61.70 42.98L56.88 41.69L65.88 41.69L65.88 37.51L54.79 37.51C54.22 36.36 53.50 35.14 52.70 34.13L50.83 34.56L50.83 32.18L67.61 32.18L67.61 27.22L50.83 27.22L50.83 23.11L44.28 23.11L44.28 27.22L38.23 27.22L38.23 32.18L44.28 32.18L44.28 35.28L48.02 35.28L47.16 35.50C47.59 36.14 47.95 36.79 48.31 37.51L36.65 37.51L36.65 41.69L44.86 41.69L40.82 42.77C41.47 43.92 42.05 45.22 42.55 46.44L34.49 46.44L34.49 50.69L48.24 50.69L48.24 54.43L36.58 54.43L36.58 58.61L48.24 58.61L48.24 62.35L54.43 62.35L54.43 58.61L66.10 58.61L66.10 54.43L54.43 54.43L54.43 50.69L68.18 50.69L68.18 46.44Z"/></svg>
