<svg xmlns="http://www.w3.org/2000/svg" xmlns:xlink="http://www.w3.org/1999/xlink" width="72.00000000000001" height="106.56000000000002"><path fill="red" stroke="red" d="M12.60 36.43L59.18 36.43L59.18 45.36L66.31 45.36L66.31 30.10L40.75 30.10C39.74 27.86 38.23 24.98 36.94 22.82L30.38 24.77C31.25 26.35 32.18 28.30 32.98 30.10L5.83 30.10L5.83 45.36L12.60 45.36ZM41.76 81.50C37.44 81.50 36.65 81.00 36.65 77.90L36.65 66.74L63.29 66.74L63.29 60.19L36.65 60.19L36.65 49.97C43.78 48.60 50.54 47.02 56.02 44.93L50.76 39.46C41.47 43.13 25.13 45.86 10.66 47.45C11.38 48.96 12.31 51.70 12.60 53.28C18.00 52.78 23.76 52.06 29.38 51.26L29.38 60.19L7.42 60.19L7.42 66.74L29.38 66.74L29.38 77.90C29.38 85.90 31.90 88.06 41.26 88.06L56.30 88.06C64.37 88.06 66.53 85.18 67.54 74.74C65.45 74.30 62.50 73.15 60.91 72.00C60.34 79.92 59.69 81.50 55.80 81.50Z"/></svg>
