<svg xmlns="http://www.w3.org/2000/svg" xmlns:xlink="http://www.w3.org/1999/xlink" width="72.00000000000001" height="106.56000000000002"><path fill="red" stroke="red" d="M11.66 35.28L60.12 35.28L60.12 42.26L66.96 42.26L66.96 29.23L40.82 29.23C40.10 27.14 38.66 24.41 37.44 22.32L30.89 24.12C31.75 25.70 32.62 27.50 33.26 29.23L5.11 29.23L5.11 42.26L11.66 42.26ZM47.95 46.51L43.34 49.54C44.86 50.83 46.58 52.27 48.24 53.71L23.62 55.44C27.22 52.78 30.74 49.68 34.06 46.51ZM62.28 59.33C59.40 55.66 53.42 50.33 48.53 46.51L59.76 46.51L59.76 40.75L12.67 40.75L12.67 46.51L25.49 46.51C21.89 49.97 18.36 52.78 16.92 53.71C15.05 55.15 13.46 56.09 12.02 56.30C12.74 57.96 13.61 60.98 13.90 62.28C16.42 61.27 20.09 61.06 53.06 58.32C54.72 60.05 56.09 61.56 57.10 62.93ZM39.31 81.29L39.31 73.15L61.70 73.15L61.70 67.39L39.31 67.39L39.31 60.77L32.47 60.77L32.47 67.39L10.87 67.39L10.87 73.15L32.47 73.15L32.47 81.29L4.54 81.29L4.54 87.19L67.75 87.19L67.75 81.29Z"/></svg>
