<svg xmlns="http://www.w3.org/2000/svg" xmlns:xlink="http://www.w3.org/1999/xlink" width="72.00000000000001" height="106.56000000000002"><path fill="red" stroke="red" d="M11.52 34.63L60.62 34.63L60.62 39.53L66.89 39.53L66.89 29.16L41.47 29.16C40.75 27.14 39.38 24.48 38.09 22.39L31.10 24.41C31.82 25.85 32.69 27.50 33.34 29.16L5.47 29.16L5.47 39.53L11.52 39.53ZM20.23 52.06L13.61 52.06L13.61 41.76L7.92 41.76L7.92 57.67L20.23 57.67L20.23 63.65L4.18 63.65L4.18 69.19L8.86 69.19C8.35 76.32 6.77 82.15 2.66 85.97C4.03 86.69 6.84 88.49 7.85 89.35C12.24 84.67 14.18 77.90 14.90 69.19L20.23 69.19L20.23 89.06L26.35 89.06L26.35 36.72L20.23 36.72ZM67.54 62.78L67.54 56.95L50.98 56.95L50.98 49.82L65.52 49.82L65.52 44.14L50.98 44.14L50.98 36.43L44.71 36.43L44.71 44.14L30.96 44.14L30.96 49.82L44.71 49.82L44.71 56.95L29.16 56.95L29.16 62.78L42.19 62.78C38.52 69.48 32.54 76.03 26.50 79.70C27.50 81.36 28.87 83.95 29.52 85.75C35.35 82.01 40.75 75.24 44.71 68.11L44.71 89.28L50.98 89.28L50.98 68.04C54.86 74.88 59.90 81.22 64.94 84.96C65.95 83.30 68.04 81.07 69.48 79.85C63.65 76.32 57.46 69.62 53.42 62.78Z"/></svg>
