<svg xmlns="http://www.w3.org/2000/svg" xmlns:xlink="http://www.w3.org/1999/xlink" width="72.00000000000001" height="106.56000000000002"><path fill="red" stroke="red" d="M11.81 34.99L32.18 34.99L28.80 38.16C32.62 39.60 37.30 42.12 39.74 44.06L43.34 40.25C40.90 38.52 36.50 36.29 32.76 34.99L59.90 34.99L59.90 42.19L66.17 42.19L66.17 29.52L40.39 29.52C39.46 27.29 38.16 24.62 36.86 22.54L29.88 24.55C30.67 26.06 31.46 27.79 32.18 29.52L5.76 29.52L5.76 42.19L11.81 42.19ZM23.33 39.10L23.33 44.78C23.33 49.61 25.06 50.83 31.90 50.83L43.34 50.83C48.17 50.83 49.75 49.32 50.26 43.99C48.74 43.70 46.58 43.06 45.36 42.34C45.14 46.01 44.71 46.58 42.62 46.58L32.62 46.58C29.74 46.58 29.23 46.37 29.23 44.86L29.23 39.10ZM61.70 48.02C59.98 44.78 55.94 40.32 52.49 37.22L47.95 39.96C51.48 43.20 55.37 47.88 56.88 51.05ZM14.18 52.27C17.50 49.25 20.38 44.57 22.39 40.82L17.42 38.23C15.62 41.83 12.67 46.15 9.50 48.67ZM10.08 76.10L32.76 76.10L32.76 82.37C32.76 83.23 32.47 83.52 31.25 83.52C30.10 83.59 25.56 83.59 21.38 83.45C22.25 85.10 23.18 87.48 23.54 89.21C29.30 89.21 33.34 89.28 36.00 88.34C38.66 87.55 39.38 85.82 39.38 82.58L39.38 76.10L62.28 76.10L62.28 71.06L10.08 71.06ZM17.28 57.67L26.50 57.67L26.50 63.07L17.28 63.07ZM40.61 57.67L40.61 63.07L31.32 63.07L31.32 57.67ZM54.79 57.67L54.79 63.07L45.50 63.07L45.50 57.67ZM60.70 63.07L60.70 53.50L11.59 53.50L11.59 63.07L4.90 63.07L4.90 67.82L67.03 67.82L67.03 63.07Z"/></svg>
