<svg xmlns="http://www.w3.org/2000/svg" xmlns:xlink="http://www.w3.org/1999/xlink" width="72.00000000000001" height="106.56000000000002"><path fill="red" stroke="red" d="M43.56 67.61L43.56 75.89L28.37 75.89L28.37 67.61ZM49.82 81.29L49.82 62.28L22.18 62.28L22.18 85.46L28.37 85.46L28.37 81.29ZM54.07 32.33L54.07 40.18L17.50 40.18L17.50 32.33ZM17.35 51.34C17.42 49.46 17.50 47.66 17.50 45.94L60.77 45.94L60.77 26.64L10.87 26.64L10.87 43.85C10.87 55.37 10.15 71.64 2.16 83.09C3.60 83.88 6.41 86.04 7.56 87.34C13.39 78.98 15.91 67.61 16.92 57.24L58.97 57.24C58.32 74.09 57.46 80.50 56.09 82.01C55.44 82.80 54.79 83.09 53.57 83.02C52.20 83.09 49.10 83.02 45.72 82.66C46.80 84.46 47.52 87.12 47.59 88.99C51.34 89.14 54.86 89.14 56.88 88.85C59.04 88.63 60.62 88.06 62.06 86.26C64.15 83.66 64.94 75.60 65.81 54.29C65.88 53.35 65.88 51.34 65.88 51.34Z"/></svg>
