<svg xmlns="http://www.w3.org/2000/svg" xmlns:xlink="http://www.w3.org/1999/xlink" width="72.00000000000001" height="106.56000000000002"><path fill="red" stroke="red" d="M50.76 41.47L50.76 48.17C50.76 53.71 52.06 55.66 57.74 55.66L64.30 55.66C65.95 55.66 67.68 55.58 68.69 55.22C68.54 53.93 68.33 51.48 68.18 49.97C67.18 50.26 65.30 50.40 64.22 50.40L58.03 50.40C56.81 50.40 56.59 49.82 56.59 48.17L56.59 40.97L60.91 40.68C61.92 42.19 62.86 43.56 63.58 44.64L68.76 41.62C66.02 37.87 60.77 31.46 56.81 26.93L52.06 29.38C53.64 31.32 55.44 33.62 57.17 35.86L39.67 36.94C43.49 33.55 47.45 29.30 50.76 24.98L44.21 22.90C40.75 28.30 35.35 33.70 33.70 35.06C32.11 36.50 30.82 37.51 29.45 37.66C30.17 39.31 31.18 42.34 31.54 43.63C32.62 43.20 34.13 42.91 39.53 42.41C38.45 47.74 35.64 51.26 27.22 53.42C28.44 54.43 30.17 56.81 30.74 58.25C41.11 55.08 44.50 49.82 45.72 41.83ZM26.35 81.79L26.35 35.06L21.74 35.06L21.74 73.15L18.43 73.15L18.43 24.26L13.18 24.26L13.18 73.15L9.72 73.15L9.72 35.06L4.97 35.06L4.97 78.98L21.74 78.98L21.74 81.79ZM55.73 64.87C53.86 68.40 51.19 71.50 48.10 74.09C45.50 72.07 43.27 69.84 41.47 67.39C42.12 66.67 42.84 65.81 43.49 64.87ZM60.12 59.33L58.97 59.62L46.80 59.62C47.59 58.10 48.31 56.59 48.89 54.94L43.06 53.71C41.90 56.81 40.25 59.76 38.23 62.35C37.66 61.20 37.08 60.05 36.65 58.90L31.90 61.42C32.62 63.14 33.41 64.87 34.34 66.60C32.40 68.26 30.31 69.84 28.08 71.06C29.30 72.07 31.54 74.30 32.40 75.46C34.20 74.38 35.86 73.01 37.51 71.50C39.10 73.66 40.97 75.67 43.06 77.54C38.02 80.64 32.11 82.66 25.99 83.95C27.14 85.25 28.58 87.77 29.30 89.28C36.14 87.62 42.48 85.03 48.10 81.43C52.85 84.67 58.75 87.34 65.81 88.92C66.67 87.26 68.40 84.60 69.62 83.30C63.14 82.08 57.74 80.14 53.21 77.54C58.03 73.30 61.85 67.90 64.22 61.06Z"/></svg>
