<svg xmlns="http://www.w3.org/2000/svg" xmlns:xlink="http://www.w3.org/1999/xlink" width="72.00000000000001" height="106.56000000000002"><path fill="red" stroke="red" d="M12.53 49.68L59.26 49.68L59.26 56.66L65.81 56.66L65.81 44.42L39.96 44.42C39.10 42.41 37.94 40.18 36.86 38.30L63.79 38.30L63.79 25.49L56.81 25.49L56.81 32.69L39.31 32.69L39.31 23.11L32.47 23.11L32.47 32.69L15.48 32.69L15.48 25.49L8.78 25.49L8.78 38.30L36.50 38.30L30.17 39.74C30.89 41.18 31.68 42.84 32.40 44.42L6.26 44.42L6.26 56.66L12.53 56.66ZM54.94 59.47L54.94 54.22L16.99 54.22L16.99 59.47ZM19.22 73.51C15.84 76.82 10.08 80.06 4.68 82.15C6.26 83.16 8.86 85.32 10.08 86.54C15.26 84.10 21.60 79.92 25.70 75.74ZM66.24 69.41L66.24 63.94L5.76 63.94L5.76 69.41L32.33 69.41L32.33 89.06L39.17 89.06L39.17 69.41ZM46.51 76.39C51.48 79.49 58.03 84.10 61.20 87.05L66.74 83.02C63.29 80.06 56.66 75.67 51.62 72.86Z"/></svg>
