<svg xmlns="http://www.w3.org/2000/svg" xmlns:xlink="http://www.w3.org/1999/xlink" width="72.00000000000001" height="106.56000000000002"><path fill="red" stroke="red" d="M31.25 64.73C29.16 61.42 24.62 56.38 20.45 52.42C21.67 48.38 22.68 44.06 23.40 39.53L16.63 38.59C14.76 51.91 10.66 63.22 3.02 70.06C4.54 71.14 7.06 73.66 8.06 74.88C12.38 70.70 15.77 65.30 18.29 58.82C21.89 62.64 25.49 67.03 27.29 70.13ZM39.31 69.70C40.75 70.85 42.34 72.36 43.13 73.22C47.02 69.41 50.04 64.51 52.49 58.75C56.88 63.72 61.34 69.41 63.58 73.37L68.33 68.26C65.59 63.86 59.83 57.31 54.86 51.98C56.02 48.17 56.95 44.06 57.67 39.74L50.98 38.74C49.25 50.54 45.65 60.62 39.31 67.25L39.31 34.56L66.17 34.56L66.17 28.15L6.12 28.15L6.12 34.56L32.33 34.56L32.33 79.20L4.03 79.20L4.03 85.82L68.11 85.82L68.11 79.20L39.31 79.20Z"/></svg>
