<svg xmlns="http://www.w3.org/2000/svg" xmlns:xlink="http://www.w3.org/1999/xlink" width="72.00000000000001" height="106.56000000000002"><path fill="red" stroke="red" d="M25.78 64.30C27.00 66.96 28.37 69.77 29.59 72.72L15.41 74.95C22.46 66.10 29.52 55.08 35.28 43.78L28.66 40.82C27.50 43.42 26.21 46.08 24.84 48.67L13.18 49.39C17.86 42.70 22.54 34.27 25.92 25.99L19.22 23.26C15.91 32.76 10.22 42.98 8.35 45.50C6.62 48.17 5.26 49.97 3.74 50.40C4.61 52.20 5.62 55.51 6.05 56.81C7.49 56.30 9.65 55.80 21.46 54.79C16.99 62.50 12.60 68.76 10.73 71.06C7.92 74.59 6.05 76.75 4.18 77.33C5.04 79.13 6.12 82.44 6.55 83.81C8.50 82.73 11.52 82.15 31.82 78.48C32.90 81.58 33.70 84.38 34.20 86.69L40.32 84.02C38.88 78.26 34.92 69.12 31.32 62.14ZM34.27 30.02L34.27 36.36L59.83 36.36C59.11 65.52 58.10 76.97 55.87 79.34C55.08 80.35 54.36 80.64 52.92 80.64C51.12 80.64 47.09 80.64 42.55 80.28C43.78 82.15 44.50 85.03 44.64 86.90C48.89 87.12 53.28 87.19 55.80 86.83C58.46 86.47 60.26 85.68 61.99 83.30C64.87 79.63 65.66 67.75 66.60 33.48C66.60 32.54 66.67 30.02 66.67 30.02Z"/></svg>
