<svg xmlns="http://www.w3.org/2000/svg" xmlns:xlink="http://www.w3.org/1999/xlink" width="72.00000000000001" height="106.56000000000002"><path fill="red" stroke="red" d="M60.77 36.79L54.00 36.79L54.00 30.53L60.77 30.53ZM66.31 25.78L48.74 25.78L48.74 41.54L66.31 41.54ZM39.60 36.79L33.26 36.79L33.26 30.53L39.60 30.53ZM45.14 25.78L28.01 25.78L28.01 41.54L45.14 41.54ZM10.58 58.18C10.73 55.01 10.80 51.48 10.87 48.02L24.34 48.02L24.34 26.42L4.32 26.42L4.32 32.40L18.14 32.40L18.14 41.98L5.40 41.98C5.40 49.10 5.11 58.25 4.61 64.01L18.22 64.01C17.57 75.60 16.85 80.28 15.70 81.50C15.05 82.15 14.40 82.37 13.25 82.37C12.02 82.37 8.86 82.30 5.62 81.94C6.77 83.81 7.49 86.47 7.56 88.49C10.94 88.63 14.18 88.56 16.06 88.42C18.14 88.13 19.51 87.62 20.81 86.04C22.75 83.74 23.54 77.18 24.34 60.84C24.41 59.98 24.48 58.18 24.48 58.18ZM35.14 64.22L35.14 59.40L43.99 59.40L43.99 64.22ZM35.14 49.90L43.99 49.90L43.99 54.65L35.14 54.65ZM59.33 54.65L50.04 54.65L50.04 49.90L59.33 49.90ZM59.33 64.22L50.04 64.22L50.04 59.40L59.33 59.40ZM69.05 73.44L50.04 73.44L50.04 69.26L65.38 69.26L65.38 44.86L29.30 44.86L29.30 69.26L43.99 69.26L43.99 73.44L25.92 73.44L25.92 79.06L43.99 79.06L43.99 89.14L50.04 89.14L50.04 79.06L69.05 79.06Z"/></svg>
