<svg xmlns="http://www.w3.org/2000/svg" xmlns:xlink="http://www.w3.org/1999/xlink" width="72.00000000000001" height="106.56000000000002"><path fill="red" stroke="red" d="M4.03 32.47L17.21 32.47L17.21 42.12L5.40 42.12C5.04 49.18 4.32 58.39 3.46 64.08L16.78 64.08C16.06 75.89 15.34 80.57 14.26 81.86C13.61 82.51 13.03 82.66 11.95 82.66C10.73 82.66 8.06 82.58 5.11 82.37C6.12 84.02 6.84 86.54 6.98 88.42C10.08 88.56 13.10 88.56 14.83 88.27C16.92 88.13 18.22 87.55 19.51 86.04C21.46 83.81 22.25 77.33 23.04 60.91C23.11 60.05 23.18 58.32 23.18 58.32L10.15 58.32C10.44 55.15 10.73 51.55 11.02 48.10L23.26 48.10L23.26 26.50L4.03 26.50ZM69.77 43.06C67.25 39.74 62.14 34.70 57.60 31.32L53.35 34.13C56.02 36.36 59.04 39.24 61.63 41.90L50.18 41.90L50.18 31.25L68.18 31.25L68.18 25.70L26.14 25.70L26.14 31.25L44.14 31.25L44.14 41.90L33.34 41.90C35.86 39.46 38.30 36.79 40.32 34.34L35.71 31.25C32.83 34.78 28.22 39.74 24.26 42.98C25.49 43.78 26.93 45.22 27.94 46.30L27.94 89.21L33.48 89.21L33.48 81.00C34.20 81.58 34.99 82.30 35.50 82.87C37.08 81.00 38.66 78.84 39.96 76.39C40.97 77.69 41.76 78.84 42.34 79.85L44.71 77.18C43.99 75.96 42.91 74.59 41.62 73.08C42.55 71.06 43.42 68.98 44.06 66.82L40.97 65.30C40.46 66.96 39.82 68.76 39.02 70.49C38.09 69.55 37.08 68.76 36.14 67.97L33.91 70.27C35.14 71.28 36.36 72.43 37.51 73.66C36.29 75.96 34.99 78.26 33.48 80.06L33.48 63.07C34.20 63.65 35.14 64.51 35.71 65.23C37.15 63.50 38.52 61.56 39.82 59.54C40.90 60.70 41.76 61.85 42.34 62.86L44.50 60.12C43.78 59.04 42.70 57.67 41.47 56.30C42.41 54.43 43.27 52.34 43.92 50.33L40.82 48.89C40.32 50.40 39.67 52.13 38.95 53.86C37.94 52.99 36.94 52.13 36.00 51.41L33.91 53.86C35.06 54.79 36.22 55.80 37.37 56.95C36.22 59.04 34.92 60.98 33.48 62.64L33.48 47.45L44.71 47.45L44.71 88.63L49.54 88.63L49.54 80.78C50.26 81.43 51.05 82.15 51.41 82.66C53.06 80.86 54.50 78.70 55.80 76.32C56.74 77.62 57.60 78.84 58.18 79.78L60.48 77.04C59.76 75.89 58.75 74.52 57.46 73.01C58.54 70.92 59.33 68.69 59.98 66.46L56.81 64.94C56.30 66.67 55.66 68.54 54.94 70.34C53.93 69.41 52.92 68.54 51.91 67.75L49.68 70.13C50.98 71.14 52.20 72.29 53.35 73.58C52.20 75.74 50.98 77.90 49.54 79.63L49.54 63.43C50.26 64.01 51.05 64.80 51.48 65.38C53.06 63.65 54.50 61.70 55.73 59.62C56.81 60.84 57.82 62.06 58.46 63.07L60.55 60.26C59.83 59.18 58.75 57.82 57.46 56.45C58.46 54.50 59.26 52.42 59.90 50.40L56.81 48.89C56.30 50.47 55.58 52.27 54.86 54.00C53.78 53.06 52.70 52.20 51.62 51.41L49.61 53.93C50.83 54.86 52.06 55.87 53.28 57.02C52.13 59.04 50.90 60.91 49.54 62.50L49.54 47.45L60.84 47.45L60.84 82.80C60.84 83.59 60.62 83.81 59.83 83.81C59.11 83.81 56.95 83.81 54.65 83.74C55.30 85.25 56.09 87.70 56.23 89.21C60.05 89.21 62.57 89.14 64.37 88.13C66.10 87.26 66.60 85.61 66.60 82.87L66.60 45.43Z"/></svg>
