<svg xmlns="http://www.w3.org/2000/svg" xmlns:xlink="http://www.w3.org/1999/xlink" width="72.00000000000001" height="106.56000000000002"><path fill="red" stroke="red" d="M16.99 23.33C14.18 28.15 8.42 34.13 3.10 37.73C4.10 39.02 5.83 41.69 6.62 43.27C12.74 38.95 19.30 32.11 23.47 25.78ZM18.58 38.74C14.69 45.94 8.35 53.14 2.45 57.74C3.46 59.33 5.26 63.00 5.83 64.51C7.85 62.78 10.01 60.77 12.02 58.54L12.02 89.21L18.58 89.21L18.58 50.54C20.81 47.45 22.90 44.28 24.62 41.18ZM43.27 39.53L43.27 50.90L33.48 50.90L33.48 39.53ZM56.66 56.81C54.72 62.28 51.77 67.10 48.24 71.14C44.57 67.03 41.62 62.21 39.53 56.81ZM60.48 50.62L59.26 50.90L49.75 50.90L49.75 39.53L59.40 39.53C58.68 42.55 57.89 45.50 57.10 47.74L62.93 49.03C64.51 45.22 66.24 39.31 67.61 34.13L62.71 33.05L61.70 33.26L49.75 33.26L49.75 23.18L43.27 23.18L43.27 33.26L27.14 33.26L27.14 52.27C27.14 62.06 26.50 75.38 19.37 84.67C20.74 85.39 23.47 87.62 24.48 88.85C31.25 80.06 33.05 67.18 33.41 56.88C35.86 64.08 39.31 70.34 43.78 75.53C39.31 79.20 34.27 81.94 28.80 83.66C30.10 85.03 31.82 87.48 32.47 89.14C38.30 86.90 43.63 83.95 48.24 79.99C52.78 83.95 58.25 87.05 64.51 89.14C65.45 87.26 67.25 84.74 68.76 83.38C62.64 81.72 57.38 79.06 52.92 75.53C58.32 69.48 62.28 61.92 64.66 52.27Z"/></svg>
