<svg xmlns="http://www.w3.org/2000/svg" xmlns:xlink="http://www.w3.org/1999/xlink" width="72.00000000000001" height="106.56000000000002"><path fill="red" stroke="red" d="M45.36 27.79L40.46 27.79L40.46 37.94L35.71 37.94L35.71 23.11L30.24 23.11L30.24 37.94L25.56 37.94L25.56 27.72L20.88 27.72L20.88 43.20L45.36 43.20ZM13.46 23.04C11.23 27.65 6.62 33.41 2.45 37.01C3.46 38.23 5.04 40.75 5.90 42.05C10.80 37.87 16.13 31.18 19.58 25.34ZM14.76 37.66C11.66 44.86 6.62 52.34 1.66 57.17C2.81 58.61 4.75 61.85 5.40 63.22C6.91 61.63 8.35 59.83 9.86 57.82L9.86 89.21L15.62 89.21L15.62 49.32C17.50 46.15 19.22 42.84 20.66 39.67ZM23.62 74.95C22.18 77.90 19.73 81.00 17.42 82.94L21.53 86.33C24.19 83.66 26.71 79.49 28.30 76.03ZM43.99 71.93C44.57 73.22 45.07 74.38 45.36 75.38L49.54 73.08C48.53 70.13 45.94 65.59 43.49 62.06L39.60 64.15C40.32 65.16 41.04 66.24 41.69 67.46L30.02 68.33C34.42 65.45 38.81 61.99 42.91 58.39L38.52 55.22C37.44 56.45 36.14 57.60 34.85 58.75L28.22 59.18C30.46 57.46 32.62 55.44 34.56 53.35L31.39 51.77L43.85 51.77L43.85 46.51L19.80 46.51L19.80 51.77L28.94 51.77C26.71 54.72 23.54 57.31 22.54 58.03C21.46 58.82 20.45 59.33 19.51 59.54C20.09 60.91 20.88 63.43 21.24 64.58C22.10 64.22 23.47 63.86 29.52 63.29C27.00 65.30 24.77 66.74 23.69 67.32C21.67 68.76 20.02 69.62 18.50 69.84C19.15 71.14 19.80 73.73 20.02 74.74C21.24 74.23 22.90 73.87 30.89 73.15L30.89 83.74C30.89 84.31 30.67 84.46 30.10 84.46C29.45 84.53 27.58 84.53 25.49 84.46C26.21 85.68 27.07 87.41 27.43 88.78C30.53 88.78 32.62 88.70 34.20 87.98C35.78 87.26 36.14 86.11 36.14 83.81L36.14 72.65ZM60.48 42.48C59.90 50.04 58.97 56.88 57.38 62.78C55.66 57.02 54.50 50.62 53.71 43.92C53.86 43.42 54.00 42.98 54.14 42.48ZM69.12 42.48L69.12 37.08L55.58 37.08C56.59 32.90 57.38 28.51 58.03 24.12L52.13 23.11C50.83 34.27 48.31 45.07 43.78 52.06C44.86 53.35 46.80 56.23 47.38 57.60C48.31 56.16 49.25 54.65 50.04 52.99C51.12 59.54 52.49 65.74 54.43 71.21C52.42 75.38 49.97 79.06 46.73 82.08C45.86 79.78 43.92 76.61 41.98 74.16L37.94 76.03C39.96 78.70 41.98 82.37 42.77 84.67L45.22 83.38C44.64 83.88 43.99 84.38 43.34 84.89C44.57 85.97 46.37 88.34 47.02 89.50C51.19 86.18 54.50 82.30 57.10 77.76C59.40 82.51 62.42 86.47 66.10 89.35C66.96 87.70 68.98 85.39 70.34 84.31C66.10 81.43 62.78 76.82 60.26 70.99C63.36 63.07 65.02 53.64 65.95 42.48Z"/></svg>
