<svg xmlns="http://www.w3.org/2000/svg" xmlns:xlink="http://www.w3.org/1999/xlink" width="72.00000000000001" height="106.56000000000002"><path fill="red" stroke="red" d="M32.40 49.97L8.93 49.97L8.93 56.23L63.58 56.23L63.58 49.97L39.38 49.97L39.38 39.17L67.90 39.17L67.90 32.83L39.38 32.83L39.38 23.18L32.40 23.18L32.40 32.83L4.32 32.83L4.32 39.17L32.40 39.17ZM27.14 60.98C32.83 64.37 39.67 69.55 42.77 73.22L47.74 68.83C44.35 65.09 37.30 60.12 31.61 56.95ZM9.65 85.54C12.74 80.71 14.90 73.30 16.34 67.46L10.37 65.45C9.07 71.06 6.70 77.98 3.60 82.37ZM31.03 82.22C26.78 82.22 25.99 81.79 25.99 79.56L25.99 64.80L19.37 64.80L19.37 79.70C19.37 86.33 21.67 88.20 30.60 88.20L45.65 88.20C53.06 88.20 55.01 85.82 55.94 76.32C54.14 75.89 51.34 74.88 49.90 73.80C49.46 81.07 48.82 82.22 45.22 82.22ZM52.85 66.96C56.16 72.94 60.05 81.00 61.63 85.90L68.18 83.23C66.38 78.48 62.21 70.56 58.90 64.73Z"/></svg>
