<svg xmlns="http://www.w3.org/2000/svg" xmlns:xlink="http://www.w3.org/1999/xlink" width="72.00000000000001" height="106.56000000000002"><path fill="red" stroke="red" d="M13.54 46.01C13.54 53.57 16.78 56.09 26.28 56.09L51.98 56.09C56.66 56.09 62.06 55.94 64.08 55.51C63.79 53.93 63.43 51.34 63.22 49.39C60.62 49.82 55.01 50.04 51.34 50.04L25.78 50.04C21.46 50.04 20.45 48.96 20.45 46.22L20.45 37.22L66.67 37.22L66.67 30.74L41.18 30.74C40.25 28.44 38.95 25.56 37.66 23.40L30.31 24.84C31.25 26.57 32.26 28.73 32.98 30.74L4.68 30.74L4.68 37.22L13.54 37.22ZM29.52 60.55C33.34 64.51 37.73 69.98 39.74 73.51L45.58 70.06C43.42 66.53 38.88 61.27 35.06 57.53ZM9.29 84.53C12.17 79.99 14.69 73.08 16.42 67.82L10.51 65.38C8.93 70.70 6.19 77.33 3.17 81.58ZM31.61 81.22C27.22 81.22 26.42 80.86 26.42 78.70L26.42 65.16L19.58 65.16L19.58 78.70C19.58 85.54 21.89 87.41 31.10 87.41L46.30 87.41C53.78 87.41 55.80 85.10 56.74 75.67C54.86 75.24 51.98 74.23 50.47 73.08C50.11 80.14 49.46 81.22 45.79 81.22ZM54.36 66.02C57.82 71.57 61.20 78.91 62.28 83.52L68.83 80.93C67.54 76.10 63.94 69.05 60.41 63.72Z"/></svg>
