<svg xmlns="http://www.w3.org/2000/svg" xmlns:xlink="http://www.w3.org/1999/xlink" width="72.00000000000001" height="106.56000000000002"><path fill="red" stroke="red" d="M28.08 36.72C23.76 44.50 16.99 51.05 9.36 55.37C10.80 56.38 13.18 58.82 14.11 59.98C22.39 54.72 30.24 46.51 35.21 36.72L43.42 36.72C39.46 46.37 33.19 54.50 25.13 59.62C26.57 60.62 29.09 62.86 30.17 64.08C38.59 57.89 45.79 48.24 50.18 36.72L56.59 36.72C55.73 50.11 54.79 55.51 53.35 57.02C52.63 57.74 51.98 57.89 50.76 57.89C49.46 57.89 46.44 57.82 43.13 57.53C44.21 59.26 44.93 61.85 45.00 63.72C48.53 63.86 51.91 63.86 53.93 63.65C56.09 63.43 57.67 62.86 59.04 61.13C61.34 58.68 62.42 51.62 63.50 33.55C63.58 32.62 63.65 30.67 63.65 30.67L23.98 30.67C25.13 28.80 26.14 26.86 27.07 24.91L20.52 23.04C16.99 31.10 10.66 38.81 3.89 43.49C5.47 44.50 8.21 46.66 9.50 47.81C13.10 44.86 16.70 41.04 19.94 36.72ZM30.82 65.66C34.06 69.12 37.66 73.87 39.31 76.90L45.07 73.87C43.42 70.78 39.60 66.24 36.29 62.93ZM9.00 85.03C11.66 80.57 13.68 73.30 15.05 67.68L9.29 65.66C8.06 71.35 5.76 78.12 2.95 82.51ZM30.53 82.30C26.21 82.30 25.49 81.86 25.49 79.63L25.49 65.52L18.86 65.52L18.86 79.70C18.86 86.33 21.17 88.20 29.95 88.20L44.86 88.20C52.20 88.20 54.14 85.82 55.01 76.10C53.28 75.67 50.47 74.59 48.96 73.51C48.60 81.14 47.95 82.30 44.35 82.30ZM53.71 68.04C56.95 73.08 60.34 79.99 61.63 84.24L68.18 82.15C66.74 77.76 63.14 71.14 59.90 66.17Z"/></svg>
