<svg xmlns="http://www.w3.org/2000/svg" xmlns:xlink="http://www.w3.org/1999/xlink" width="72.00000000000001" height="106.56000000000002"><path fill="red" stroke="red" d="M23.40 31.97L23.40 60.48L29.59 60.48L29.59 43.06C31.18 44.28 33.26 46.37 34.20 47.38C37.08 44.64 39.89 41.11 42.41 37.15L56.38 37.15C55.22 40.90 53.57 44.14 51.55 47.02C48.53 45.00 45.50 42.98 42.77 41.33L38.16 45.22C41.11 47.09 44.35 49.32 47.52 51.55C43.49 55.22 38.38 57.96 32.33 59.98C33.70 61.20 35.71 64.01 36.50 65.38C42.91 62.93 48.31 59.69 52.63 55.37C57.17 58.75 61.20 62.06 63.79 64.73L68.83 60.19C65.95 57.46 61.56 54.07 56.81 50.62C59.54 46.80 61.78 42.41 63.29 37.15L68.18 37.15L68.18 31.25L45.72 31.25C46.80 29.16 47.74 27.00 48.60 24.84L42.12 23.11C39.53 30.53 34.92 37.66 29.59 42.34L29.59 31.97ZM28.01 66.67C32.18 69.77 37.58 74.38 40.03 77.40L45.14 73.58C42.41 70.70 37.01 66.24 32.90 63.36ZM9.58 86.83C12.89 82.66 15.26 76.03 16.92 70.63L11.02 68.40C9.65 73.51 6.84 79.78 3.60 83.66ZM19.15 23.11C15.12 30.82 8.64 38.38 2.02 43.20C3.24 44.50 5.40 47.23 6.19 48.53C8.14 46.94 10.15 45.14 12.02 43.06L12.02 64.15L18.29 64.15L18.29 35.64C20.81 32.33 23.18 28.73 25.06 25.13ZM31.25 82.30C26.86 82.30 26.06 81.86 26.06 79.85L26.06 67.61L19.44 67.61L19.44 79.92C19.44 86.40 21.74 88.27 30.82 88.27L46.08 88.27C53.28 88.27 55.37 86.11 56.23 77.04C54.43 76.75 51.62 75.74 50.18 74.66C49.75 81.29 49.18 82.30 45.58 82.30ZM53.42 69.12C57.02 74.38 61.27 81.43 63.00 85.97L69.41 83.38C67.46 78.91 63.07 72.00 59.33 66.96Z"/></svg>
