<svg xmlns="http://www.w3.org/2000/svg" xmlns:xlink="http://www.w3.org/1999/xlink" width="72.00000000000001" height="106.56000000000002"><path fill="red" stroke="red" d="M26.86 30.96L26.86 35.78L13.03 35.78L13.03 30.96ZM13.03 45.65L13.03 40.39L26.86 40.39L26.86 45.65ZM33.12 50.54L33.12 25.99L6.41 25.99L6.41 89.21L13.03 89.21L13.03 50.54ZM19.37 81.50C22.68 77.33 23.98 70.42 24.77 64.15L19.66 62.86C19.01 68.62 17.42 74.88 14.47 78.62ZM43.85 59.54C41.26 56.95 36.00 53.71 31.75 51.84L27.72 55.80C32.04 57.89 37.22 61.42 39.60 63.94ZM35.57 80.21C33.98 80.21 33.77 79.92 33.77 78.12L33.77 61.92L27.79 61.92L27.79 78.19C27.79 84.24 29.09 86.11 34.70 86.11L41.33 86.11C45.86 86.11 47.59 83.88 48.17 74.59C46.51 74.16 43.92 73.22 42.70 72.14C42.48 79.42 42.19 80.21 40.68 80.21ZM57.60 76.54C56.38 72.36 52.78 66.46 49.18 61.99L44.42 64.44C47.88 69.05 51.26 75.24 52.34 79.34ZM45.07 45.79L45.07 40.39L59.33 40.39L59.33 45.79ZM59.33 30.96L59.33 35.78L45.07 35.78L45.07 30.96ZM65.95 25.99L38.66 25.99L38.66 50.69L59.33 50.69L59.33 81.29C59.33 82.37 58.97 82.73 58.03 82.80C56.95 82.80 53.57 82.80 50.18 82.73C51.12 84.46 51.91 87.41 52.13 89.21C57.31 89.21 60.77 89.06 63.00 87.98C65.30 86.83 65.95 84.89 65.95 81.36Z"/></svg>
