<svg xmlns="http://www.w3.org/2000/svg" xmlns:xlink="http://www.w3.org/1999/xlink" width="72.00000000000001" height="106.56000000000002"><path fill="red" stroke="red" d="M7.13 57.24C8.64 51.77 9.79 43.34 10.01 37.66L5.18 37.01C4.75 42.62 3.60 50.62 2.09 55.51ZM11.52 89.21L17.78 89.21L17.78 23.18L11.52 23.18ZM18.07 35.86C19.66 40.97 21.38 47.66 22.03 51.55L26.71 49.75C26.06 46.01 24.26 39.46 22.54 34.56ZM33.91 55.66L58.03 55.66L58.03 61.27L33.91 61.27ZM33.91 45.22L58.03 45.22L58.03 50.69L33.91 50.69ZM68.90 71.93L49.39 71.93L49.39 66.53L64.66 66.53L64.66 39.96L49.32 39.96L49.32 34.49L67.97 34.49L67.97 28.80L49.32 28.80L49.32 23.18L42.77 23.18L42.77 39.96L27.58 39.96L27.58 66.53L42.77 66.53L42.77 71.93L23.62 71.93L23.62 77.83L42.77 77.83L42.77 89.28L49.39 89.28L49.39 77.83L68.90 77.83Z"/></svg>
