<svg xmlns="http://www.w3.org/2000/svg" xmlns:xlink="http://www.w3.org/1999/xlink" width="72.00000000000001" height="106.56000000000002"><path fill="red" stroke="red" d="M7.34 57.24C8.86 51.84 10.01 43.49 10.15 37.66L5.18 37.08C4.75 42.70 3.60 50.62 2.09 55.51ZM12.17 89.14L18.36 89.14L18.36 23.18L12.17 23.18ZM27.22 48.96C26.57 45.43 24.77 39.24 23.18 34.49L18.43 35.93C20.09 40.75 21.67 47.16 22.25 50.83ZM40.68 51.62C40.10 56.02 39.24 59.98 38.16 63.58C36.29 61.92 33.98 60.19 31.82 58.61C32.83 56.45 33.70 54.07 34.42 51.62ZM42.26 46.01L36.07 46.01C36.43 44.35 36.79 42.77 37.15 41.04L32.18 40.18L32.18 35.78L61.99 35.78L61.99 42.48L67.97 42.48L67.97 29.95L52.34 29.95C51.62 27.79 50.47 24.98 49.32 22.82L42.48 24.62C43.27 26.21 44.06 28.15 44.71 29.95L26.50 29.95L26.50 42.62L31.10 42.62C29.38 50.98 26.50 58.75 22.10 63.94C23.26 65.02 25.20 67.39 25.92 68.54C27.22 67.03 28.30 65.38 29.38 63.50C31.68 65.38 34.13 67.46 36.07 69.41C32.83 76.68 28.22 81.79 22.32 85.10C23.69 86.04 25.78 88.20 26.71 89.57C37.66 83.02 44.78 69.77 46.94 46.80L43.34 45.86ZM56.52 83.30C55.66 83.30 55.08 83.23 54.58 82.94C54.00 82.66 53.78 81.58 53.78 79.78L53.78 50.26L60.48 50.26L60.48 65.88C60.48 66.53 60.34 66.67 59.62 66.74C58.90 66.74 56.81 66.74 54.43 66.67C55.15 68.18 55.80 70.49 56.02 72.07C59.76 72.07 62.21 72.00 64.01 71.06C65.74 70.13 66.17 68.54 66.17 65.95L66.17 44.78L48.24 44.78L48.24 79.42C48.24 84.67 48.82 85.97 50.26 87.05C51.55 87.98 53.64 88.34 55.37 88.34L60.62 88.34C62.28 88.34 64.08 88.13 65.30 87.70C66.67 87.19 67.61 86.33 68.18 84.89C68.69 83.52 69.05 80.06 69.12 77.04C67.39 76.54 65.30 75.46 64.01 74.38C63.94 77.62 63.79 80.14 63.65 81.29C63.36 82.30 62.86 82.80 62.35 83.02C61.99 83.16 60.98 83.30 60.05 83.30Z"/></svg>
