<svg xmlns="http://www.w3.org/2000/svg" xmlns:xlink="http://www.w3.org/1999/xlink" width="72.00000000000001" height="106.56000000000002"><path fill="red" stroke="red" d="M21.67 53.78L15.98 55.80L15.98 43.34L21.74 43.34L21.74 37.15L15.98 37.15L15.98 23.18L10.22 23.18L10.22 37.15L3.31 37.15L3.31 43.34L10.22 43.34L10.22 57.89C7.34 58.82 4.68 59.69 2.45 60.41L4.18 66.82L10.22 64.51L10.22 81.65C10.22 82.58 9.86 82.80 9.00 82.80C8.28 82.87 5.76 82.87 3.10 82.73C3.89 84.38 4.68 87.05 4.90 88.63C9.07 88.63 11.74 88.42 13.61 87.41C15.34 86.40 15.98 84.74 15.98 81.58L15.98 62.35C18.22 61.56 20.59 60.62 22.82 59.76ZM33.70 60.19C34.13 56.23 34.27 52.42 34.27 49.03L39.53 49.03C39.46 53.21 39.46 56.95 39.38 60.19ZM34.27 32.18L39.60 32.18L39.53 43.34L34.27 43.34ZM22.90 26.50L22.90 32.18L28.87 32.18L28.87 43.34L23.76 43.34L23.76 49.03L28.87 49.03C28.87 52.49 28.73 56.30 28.30 60.19L23.26 60.19L23.26 65.88L27.50 65.88C26.21 72.79 23.69 79.63 18.79 85.32C19.94 86.04 22.03 88.20 22.82 89.42C28.51 82.87 31.46 74.30 32.90 65.88L39.31 65.88C39.10 76.10 38.66 80.50 38.02 81.86C37.44 83.09 36.94 83.30 36.07 83.30C34.92 83.30 32.90 83.30 30.67 83.09C31.54 84.74 32.11 87.34 32.26 88.99C34.70 89.14 37.01 89.14 38.81 88.78C40.68 88.49 41.83 87.84 43.06 85.68C44.86 82.51 44.86 69.55 45.00 29.66C45.07 28.87 45.07 26.50 45.07 26.50ZM64.44 26.28L63.58 26.50L48.89 26.50L48.89 89.28L54.58 89.28L54.58 31.97L61.78 31.97C60.55 37.66 58.82 45.79 57.02 51.62C61.27 57.82 62.14 63.07 62.14 67.32C62.14 69.84 61.85 71.93 60.91 72.79C60.41 73.30 59.83 73.44 59.11 73.51C58.25 73.51 57.17 73.51 56.09 73.44C56.95 75.10 57.31 77.54 57.31 79.06C58.82 79.13 60.19 79.13 61.34 78.98C62.78 78.77 63.94 78.34 64.87 77.54C66.82 76.03 67.61 72.72 67.61 68.18C67.61 63.22 66.67 57.60 62.35 51.05C64.37 44.78 66.74 35.57 68.54 28.66Z"/></svg>
