<svg xmlns="http://www.w3.org/2000/svg" xmlns:xlink="http://www.w3.org/1999/xlink" width="72.00000000000001" height="106.56000000000002"><path fill="red" stroke="red" d="M22.97 56.23L17.06 57.74L17.06 43.34L23.11 43.34L23.11 37.15L17.06 37.15L17.06 23.26L10.94 23.26L10.94 37.15L3.24 37.15L3.24 43.34L10.94 43.34L10.94 59.47C7.63 60.34 4.61 61.06 2.16 61.63L3.53 68.18L10.94 66.02L10.94 81.22C10.94 82.15 10.58 82.44 9.79 82.44C9.07 82.44 6.48 82.44 3.82 82.37C4.68 84.17 5.40 86.98 5.62 88.56C9.94 88.56 12.74 88.34 14.62 87.26C16.42 86.26 17.06 84.46 17.06 81.22L17.06 64.30L23.83 62.28ZM31.03 47.16L31.03 53.06L25.20 53.06L25.20 58.61L31.03 58.61L31.03 64.94L36.29 64.94L36.29 58.61L40.97 58.61L40.97 53.06L36.29 53.06L36.29 47.16ZM63.07 47.16L57.82 47.16L57.82 53.14L52.27 53.14L52.27 58.68L57.82 58.68L57.82 64.94L63.07 64.94L63.07 58.68L68.40 58.68L68.40 53.14L63.07 53.14ZM49.90 38.59L49.90 31.61C55.15 31.10 60.12 30.38 64.30 29.45L61.34 23.83C53.14 25.70 40.25 26.93 29.16 27.50C29.81 28.94 30.60 31.32 30.74 32.83C34.85 32.76 39.17 32.47 43.56 32.18L43.56 38.59L24.55 38.59L24.55 44.42L43.56 44.42L43.56 68.26L27.43 68.26L27.43 74.02L43.56 74.02L43.56 81.07L25.56 81.07L25.56 86.98L67.97 86.98L67.97 81.07L49.90 81.07L49.90 74.02L66.10 74.02L66.10 68.26L49.90 68.26L49.90 44.42L68.98 44.42L68.98 38.59Z"/></svg>
