<svg xmlns="http://www.w3.org/2000/svg" xmlns:xlink="http://www.w3.org/1999/xlink" width="72.00000000000001" height="106.56000000000002"><path fill="red" stroke="red" d="M11.95 37.87L60.05 37.87L60.05 47.16L66.60 47.16L66.60 32.33L54.14 32.33C56.09 30.53 58.39 28.08 60.62 25.49L53.78 23.33C52.34 25.56 49.90 28.87 47.88 30.96L51.41 32.33L39.17 32.33L39.17 23.18L32.47 23.18L32.47 32.33L20.23 32.33L23.69 30.74C22.61 28.66 20.38 25.49 18.29 23.26L12.46 25.56C14.04 27.50 15.91 30.24 16.99 32.33L5.69 32.33L5.69 47.16L11.95 47.16ZM22.39 45.79L49.46 45.79L49.46 50.62L22.39 50.62ZM56.09 54.86L56.09 41.54L16.20 41.54L16.20 54.86ZM67.54 74.74L39.17 74.74L39.17 70.78L63.86 70.78L63.86 66.10L39.17 66.10L39.17 62.14C46.94 61.63 54.14 60.84 59.90 59.90L55.73 55.87C45.50 57.60 26.57 58.46 10.87 58.54C11.38 59.76 12.02 61.70 12.10 62.93C18.58 62.93 25.63 62.86 32.54 62.50L32.54 66.10L8.64 66.10L8.64 70.78L32.54 70.78L32.54 74.74L4.54 74.74L4.54 79.42L32.54 79.42L32.54 82.80C32.54 83.81 32.11 84.17 30.82 84.17C29.66 84.24 24.84 84.31 20.45 84.10C21.24 85.61 22.25 87.70 22.68 89.35C28.87 89.35 32.98 89.28 35.64 88.49C38.23 87.70 39.17 86.33 39.17 83.02L39.17 79.42L67.54 79.42Z"/></svg>
