<svg xmlns="http://www.w3.org/2000/svg" xmlns:xlink="http://www.w3.org/1999/xlink" width="72.00000000000001" height="106.56000000000002"><path fill="red" stroke="red" d="M42.91 26.35C41.90 30.31 39.89 36.14 38.23 39.67L42.62 41.54C44.28 38.09 46.15 32.90 47.81 28.37ZM29.81 39.74C29.02 36.43 27.00 30.60 25.34 26.28L20.81 27.65C22.46 32.11 24.19 38.02 24.98 41.47ZM19.94 56.66L15.12 58.46L15.12 43.49L20.30 43.49L20.30 37.30L15.12 37.30L15.12 23.18L9.65 23.18L9.65 37.30L3.24 37.30L3.24 43.49L9.65 43.49L9.65 60.41C6.91 61.42 4.32 62.28 2.16 63.00L3.74 69.12L9.65 66.89L9.65 82.37C9.65 83.23 9.36 83.45 8.57 83.45C7.85 83.52 5.76 83.52 3.38 83.45C4.18 84.96 4.75 87.41 4.97 88.78C8.78 88.85 11.16 88.63 12.89 87.70C14.47 86.76 15.12 85.25 15.12 82.30L15.12 64.73C17.06 63.94 19.15 63.22 21.10 62.42ZM47.02 54.50C47.88 55.80 48.67 57.10 49.03 57.89C49.90 56.45 50.69 54.86 51.41 53.21C52.34 59.69 53.71 65.74 55.51 71.14C53.28 76.82 50.54 81.50 46.94 84.82C47.02 84.38 47.02 83.88 47.02 83.30ZM61.56 41.26C60.84 48.96 59.76 56.30 58.10 62.78C56.45 57.02 55.37 50.62 54.50 43.99C54.79 43.06 55.01 42.19 55.30 41.26ZM68.69 41.26L68.69 35.28L56.59 35.28C57.31 31.61 57.96 27.86 58.46 24.05L52.99 23.11C51.91 33.05 50.11 42.70 47.02 49.82L47.02 42.41L37.01 42.41L37.01 23.18L31.25 23.18L31.25 42.41L21.38 42.41L21.38 89.14L26.14 89.14L26.14 72.43C27.00 72.72 28.22 73.22 28.80 73.51C29.88 68.40 30.89 60.41 31.54 53.42L28.51 52.78C28.01 59.26 27.29 66.53 26.14 71.71L26.14 47.95L32.04 47.95L32.04 88.34L36.14 88.34L36.14 53.86C37.44 60.26 38.45 68.62 38.74 73.37L41.76 72.58C41.40 67.97 40.25 59.54 38.81 52.99L36.14 53.50L36.14 47.95L41.98 47.95L41.98 83.23C41.98 83.81 41.83 83.95 41.26 84.02C40.75 84.02 39.31 84.02 37.66 83.95C38.38 85.32 39.02 87.48 39.17 88.85C41.83 88.85 43.78 88.70 45.22 87.91C46.01 87.34 46.51 86.69 46.73 85.75C48.10 86.76 49.61 88.20 50.40 89.35C53.42 86.40 56.02 82.51 58.10 78.05C60.05 82.37 62.50 86.26 65.38 89.21C66.31 87.70 68.18 85.61 69.55 84.60C65.95 81.36 63.07 76.61 60.77 70.99C63.50 62.35 65.23 52.06 66.17 41.26Z"/></svg>
