<svg xmlns="http://www.w3.org/2000/svg" xmlns:xlink="http://www.w3.org/1999/xlink" width="72.00000000000001" height="106.56000000000002"><path fill="red" stroke="red" d="M11.45 41.83L11.45 39.67L17.28 39.67L17.28 41.83ZM11.45 34.92L17.28 34.92L17.28 37.08L11.45 37.08ZM28.80 34.92L28.80 37.08L22.54 37.08L22.54 34.92ZM28.80 41.83L22.54 41.83L22.54 39.67L28.80 39.67ZM17.28 54.50L11.52 54.50L11.52 50.90L6.77 50.90L6.77 58.18L33.62 58.18L33.62 50.90L28.73 50.90L28.73 54.50L22.54 54.50L22.54 50.11L36.07 50.11L36.07 46.58L22.54 46.58L22.54 44.50L33.55 44.50L33.55 38.16C34.56 39.17 35.64 40.39 36.14 41.11C43.99 38.45 45.94 34.20 46.01 29.95L53.93 29.95L53.93 31.97C53.93 37.01 55.01 39.02 60.12 39.02L65.02 39.02C66.38 39.02 67.97 39.02 68.83 38.66C68.69 37.22 68.54 35.21 68.47 33.77C67.54 33.98 65.81 34.06 64.87 34.06L60.84 34.06C59.83 34.06 59.69 33.55 59.69 32.04L59.69 25.27L40.46 25.27L40.46 29.30C40.46 32.04 39.38 34.42 33.55 36.50L33.55 32.26L22.54 32.26L22.54 30.17L35.64 30.17L35.64 26.50L22.54 26.50L22.54 23.11L17.28 23.11L17.28 26.50L4.75 26.50L4.75 30.17L17.28 30.17L17.28 32.26L6.84 32.26L6.84 44.50L17.28 44.50L17.28 46.58L3.31 46.58L3.31 50.11L17.28 50.11ZM39.31 71.50L61.63 71.50L61.63 67.18L39.31 67.18L39.31 63.86C48.17 63.43 56.52 62.71 63.00 61.78L58.68 58.25C47.16 59.98 24.55 60.62 6.34 60.34C6.77 61.42 7.34 63.22 7.34 64.30C15.41 64.44 24.19 64.44 32.69 64.15L32.69 67.18L9.00 67.18L9.00 71.50L32.69 71.50L32.69 74.52L2.81 74.52L2.81 79.06L32.69 79.06L32.69 82.94C32.69 83.88 32.33 84.17 31.18 84.24C30.10 84.31 25.92 84.31 22.03 84.17C22.82 85.61 23.83 87.70 24.19 89.28C29.88 89.28 33.55 89.28 36.07 88.49C38.52 87.62 39.31 86.33 39.31 83.09L39.31 79.06L69.26 79.06L69.26 74.52L39.31 74.52ZM56.45 45.00C55.01 46.80 53.06 48.38 50.90 49.68C48.60 48.31 46.58 46.73 45.14 45.00ZM60.84 40.39L59.76 40.61L38.88 40.61L38.88 45.00L43.27 45.00L39.82 46.15C41.40 48.38 43.34 50.26 45.65 52.06C42.19 53.28 38.23 54.14 34.13 54.65C34.99 55.73 36.00 57.74 36.50 59.04C41.62 58.18 46.44 56.88 50.62 55.01C55.15 57.24 60.48 58.90 66.31 59.76C67.03 58.25 68.54 56.16 69.70 55.01C64.66 54.43 59.98 53.42 55.87 51.91C59.47 49.32 62.21 45.94 64.01 41.47Z"/></svg>
