<svg xmlns="http://www.w3.org/2000/svg" xmlns:xlink="http://www.w3.org/1999/xlink" width="72.00000000000001" height="106.56000000000002"><path fill="red" stroke="red" d="M20.74 52.99L16.49 54.72L16.49 43.34L22.46 43.34L22.46 37.15L16.49 37.15L16.49 23.18L10.58 23.18L10.58 37.15L3.24 37.15L3.24 43.34L10.58 43.34L10.58 57.24C7.63 58.46 4.90 59.54 2.59 60.41L4.32 66.89C6.26 66.02 8.42 65.02 10.58 64.01L10.58 82.30C10.58 83.09 10.37 83.38 9.58 83.38C8.93 83.38 6.91 83.38 4.75 83.30C5.47 84.89 6.19 87.48 6.41 88.92C10.08 88.92 12.53 88.78 14.26 87.77C15.84 86.83 16.49 85.25 16.49 82.30L16.49 61.34C18.22 60.55 20.09 59.69 21.82 58.82ZM32.18 72.65C29.88 76.75 25.99 80.86 22.10 83.66C23.54 84.46 25.92 86.04 27.14 87.05C30.89 84.02 35.21 79.06 37.87 74.38ZM53.50 75.24C57.24 78.62 61.78 83.30 63.79 86.40L68.47 82.94C66.31 79.85 61.70 75.38 57.96 72.29ZM28.51 65.59C31.68 63.50 34.70 60.91 37.44 57.89L37.44 61.06L55.08 61.06L55.08 57.67C57.38 60.77 60.19 63.43 63.07 65.59ZM40.68 43.56C39.96 45.36 39.02 47.09 37.94 48.82C36.58 47.45 34.70 45.94 32.98 44.78C33.34 44.42 33.70 43.99 34.06 43.56ZM30.96 34.49L60.98 34.49L60.98 38.74L50.33 38.74L50.33 42.26L47.45 43.06C48.96 47.66 51.12 51.98 53.78 55.80L39.17 55.80C42.55 51.55 45.36 46.66 47.16 41.04L43.56 39.46L42.70 39.67L36.72 39.67C37.37 38.59 37.94 37.51 38.45 36.50L33.26 35.71C32.69 37.01 31.97 38.30 30.96 39.60ZM59.11 43.06C58.18 45.22 56.95 47.59 55.66 49.54C54.43 47.52 53.35 45.29 52.49 43.06ZM63.50 39.02L67.18 39.02L67.18 29.30L49.75 29.30C49.03 27.29 48.02 24.77 46.87 22.82L40.68 24.26C41.47 25.78 42.19 27.58 42.84 29.30L24.98 29.30L24.98 39.74L30.89 39.74C28.87 42.41 26.06 45.07 22.39 47.16C23.47 47.88 25.13 49.54 25.85 50.76C27.43 49.68 29.02 48.67 30.24 47.45C32.18 48.89 34.13 50.62 35.64 52.20C31.90 56.88 27.22 60.77 22.61 63.07C23.69 64.01 25.20 65.88 25.99 67.10C26.71 66.74 27.58 66.24 28.37 65.74L28.37 70.92L43.27 70.92L43.27 89.21L49.39 89.21L49.39 70.92L63.43 70.92L63.43 65.88C64.22 66.46 65.09 66.96 65.88 67.39C66.74 66.02 68.40 64.08 69.55 63.07C65.45 60.98 61.63 57.67 58.54 53.64C61.27 50.04 64.15 45.14 65.95 40.61ZM32.33 51.12C28.51 51.98 25.34 52.63 22.68 53.06L23.69 57.24C26.71 56.38 29.45 55.58 32.69 54.72Z"/></svg>
