<svg xmlns="http://www.w3.org/2000/svg" xmlns:xlink="http://www.w3.org/1999/xlink" width="72.00000000000001" height="106.56000000000002"><path fill="red" stroke="red" d="M45.36 42.55L57.60 42.55C56.30 51.05 54.50 58.25 51.55 64.37C48.53 58.25 46.44 51.26 44.93 43.70ZM69.05 42.55L69.05 36.29L47.45 36.29C48.53 32.40 49.54 28.37 50.33 24.19L43.70 23.04C41.83 33.55 38.81 43.63 34.13 50.76L34.13 48.53L25.13 48.53L25.13 34.27L36.58 34.27L36.58 27.79L3.89 27.79L3.89 34.27L18.58 34.27L18.58 72.86L12.53 74.16L12.53 44.06L6.48 44.06L6.48 75.31L2.45 76.10L3.67 82.80C12.67 80.86 25.27 77.90 37.08 75.10L36.43 69.05L25.13 71.42L25.13 54.86L33.12 54.86C34.56 56.02 36.36 57.53 37.15 58.54C38.45 56.74 39.67 54.86 40.90 52.78C42.55 59.47 44.71 65.59 47.59 70.92C43.78 76.25 38.66 80.35 31.97 83.45C33.26 84.82 35.21 87.84 35.86 89.35C42.19 86.04 47.30 82.01 51.34 77.04C55.01 82.08 59.47 86.18 65.09 89.14C66.02 87.34 68.11 84.82 69.62 83.45C63.79 80.71 59.04 76.46 55.37 71.06C59.76 63.43 62.50 54.00 64.30 42.55Z"/></svg>
