<svg xmlns="http://www.w3.org/2000/svg" xmlns:xlink="http://www.w3.org/1999/xlink" width="72.00000000000001" height="106.56000000000002"><path fill="red" stroke="red" d="M13.97 64.22C17.50 66.02 21.89 68.83 24.12 70.56L27.22 66.31C24.91 64.66 20.66 62.42 16.99 60.62ZM13.75 58.75L28.08 58.75L28.08 70.63C22.61 72.50 17.21 74.38 13.32 75.46C13.68 72.72 13.75 69.98 13.75 67.61ZM34.34 53.93L7.85 53.93L7.85 67.54C7.85 73.37 7.42 80.78 3.31 86.18C4.68 86.83 7.27 88.70 8.35 89.78C11.16 86.11 12.46 81.36 13.18 76.61L15.05 81.07C19.01 79.34 23.47 77.40 28.08 75.31L28.08 82.73C28.08 83.59 27.79 83.81 27.00 83.81C26.28 83.81 23.54 83.81 20.81 83.74C21.67 85.25 22.46 87.70 22.68 89.28C26.93 89.28 29.81 89.21 31.82 88.20C33.77 87.41 34.34 85.75 34.34 82.80ZM58.39 42.55C57.38 50.83 55.73 57.96 53.21 64.08C50.54 57.67 48.53 50.33 47.23 42.55ZM17.06 37.01L24.98 37.01L24.98 44.50L17.06 44.50ZM69.05 42.55L69.05 36.29L48.74 36.29C49.68 32.33 50.33 28.15 50.98 23.98L44.64 23.11C43.49 32.69 41.33 42.12 38.02 49.39L38.02 44.50L31.18 44.50L31.18 37.01L38.09 37.01L38.09 31.39L31.18 31.39L31.18 23.83L24.98 23.83L24.98 31.39L17.06 31.39L17.06 23.83L10.94 23.83L10.94 31.39L4.10 31.39L4.10 37.01L10.94 37.01L10.94 44.50L3.02 44.50L3.02 50.11L37.66 50.11C36.86 51.77 36.00 53.35 34.99 54.79C36.36 56.09 38.52 58.97 39.38 60.34C40.97 57.89 42.48 55.08 43.70 52.06C45.29 58.97 47.23 65.23 49.82 70.78C46.44 76.18 41.98 80.57 36.00 83.88C37.22 85.18 39.10 87.98 39.74 89.28C45.22 85.90 49.61 81.72 53.14 76.82C56.30 81.94 60.26 86.11 65.16 89.14C66.17 87.41 68.18 84.89 69.70 83.66C64.37 80.78 60.05 76.39 56.74 70.85C60.62 63.14 63.00 53.78 64.51 42.55Z"/></svg>
