<svg xmlns="http://www.w3.org/2000/svg" xmlns:xlink="http://www.w3.org/1999/xlink" width="72.00000000000001" height="106.56000000000002"><path fill="red" stroke="red" d="M39.10 82.94L39.10 54.86C40.46 56.02 41.83 57.38 42.48 58.25C43.56 56.74 44.57 55.15 45.50 53.35C46.94 59.98 48.74 66.10 51.12 71.42C48.10 76.46 44.28 80.50 39.10 83.66ZM59.40 42.70C58.46 50.69 57.02 57.82 54.72 64.01C52.34 57.89 50.76 51.05 49.61 43.92C49.68 43.49 49.82 43.13 49.97 42.70ZM27.94 35.93C27.50 37.94 26.42 40.90 25.56 43.06L16.49 43.06L19.22 42.19C18.65 40.54 17.42 37.94 16.13 35.93ZM25.56 74.30L18.72 74.30L18.72 68.69L25.56 68.69ZM69.05 42.70L69.05 36.50L51.70 36.50C52.78 32.54 53.64 28.37 54.29 24.12L47.95 23.11C46.44 33.98 43.70 44.35 39.10 51.55L39.10 43.06L31.54 43.06C32.33 41.26 33.19 39.17 34.13 37.08L28.30 35.93L40.32 35.93L40.32 30.17L26.28 30.17C25.13 28.01 23.04 24.98 20.95 22.90L16.06 25.34C17.21 26.78 18.50 28.44 19.44 30.17L4.10 30.17L4.10 35.93L14.90 35.93L10.37 37.30C11.45 38.95 12.53 41.26 13.10 43.06L5.40 43.06L5.40 89.21L10.94 89.21L10.94 48.89L19.66 48.89L19.66 54.29L12.60 54.29L12.60 58.75L19.66 58.75L19.66 64.30L14.33 64.30L14.33 81.58L18.72 81.58L18.72 78.62L30.02 78.62L30.02 64.30L24.19 64.30L24.19 58.75L31.68 58.75L31.68 54.29L24.19 54.29L24.19 48.89L33.41 48.89L33.41 82.87C33.41 83.81 33.12 84.02 32.18 84.10C31.46 84.10 28.58 84.10 25.70 83.95C26.50 85.46 27.29 87.77 27.50 89.28C31.82 89.28 34.70 89.21 36.65 88.27C38.09 87.62 38.81 86.54 39.02 84.67C40.25 86.18 41.69 88.49 42.26 89.71C47.30 86.47 51.34 82.58 54.58 77.90C57.53 82.73 61.13 86.62 65.52 89.57C66.60 87.84 68.62 85.46 70.06 84.17C65.23 81.36 61.34 76.97 58.25 71.57C62.06 63.65 64.44 54.07 65.81 42.70Z"/></svg>
