<svg xmlns="http://www.w3.org/2000/svg" xmlns:xlink="http://www.w3.org/1999/xlink" width="72.00000000000001" height="106.56000000000002"><path fill="red" stroke="red" d="M24.62 39.82C25.99 43.34 27.43 48.17 27.86 51.05L31.25 49.68C30.74 46.94 29.30 42.41 27.72 38.81ZM12.17 36.79L19.51 36.79L19.51 54.43L23.98 54.43L23.98 36.79L31.25 36.79L31.25 54.94L36.22 54.94L36.22 39.46C37.30 40.32 38.38 41.40 38.95 42.05C41.47 40.03 43.78 37.44 45.86 34.56L57.38 34.56C56.38 37.08 55.01 39.31 53.35 41.26C50.76 39.82 48.17 38.52 45.79 37.37L42.26 41.33C44.50 42.48 46.80 43.70 49.18 45.07C45.65 47.59 41.40 49.46 36.50 50.90C37.66 52.06 39.46 54.36 40.10 55.58C45.50 53.71 50.26 51.34 54.22 48.02C58.39 50.62 62.21 53.28 64.73 55.44L68.47 50.90C66.02 48.89 62.21 46.37 58.25 43.99C60.48 41.33 62.21 38.23 63.50 34.56L67.68 34.56L67.68 29.38L49.03 29.38C49.90 27.65 50.76 25.92 51.41 24.12L46.01 22.97C43.99 28.51 40.46 33.55 36.22 37.15L36.22 32.47L30.74 32.47C32.69 30.89 34.92 28.73 37.22 26.50L32.33 23.62C30.96 25.63 28.51 28.66 26.64 30.53L29.88 32.47L24.41 32.47L24.41 23.26L18.94 23.26L18.94 32.47L13.82 32.47L16.99 30.74C16.06 28.80 13.82 25.92 11.74 23.83L7.49 25.99C9.29 27.86 11.16 30.53 12.24 32.47L7.20 32.47L7.20 55.01L12.17 55.01ZM15.19 38.88C14.69 42.62 13.97 46.30 12.38 49.18C13.25 49.54 14.76 50.47 15.48 50.90C17.06 48.10 18.07 43.70 18.72 39.53ZM17.71 70.56L29.16 70.56C27.72 72.86 25.85 74.95 23.69 76.68C21.67 75.02 18.94 72.94 16.63 71.42ZM50.11 81.58C47.02 81.58 46.44 81.22 46.44 79.13L46.44 73.73L64.51 73.73L64.51 68.62L46.44 68.62L46.44 62.57L67.82 62.57L67.82 57.31L4.97 57.31L4.97 62.57L19.01 62.57C15.19 66.96 9.07 70.42 2.74 72.72C4.03 73.66 5.98 75.74 6.91 76.82C8.71 76.03 10.51 75.17 12.31 74.09C14.69 75.82 17.35 77.98 19.15 79.63C14.62 82.15 9.36 83.74 3.74 84.67C4.82 85.82 6.19 88.06 6.84 89.50C20.81 86.62 32.47 80.57 37.51 67.54L33.48 65.88L32.26 66.10L22.75 66.10C23.83 64.94 24.84 63.79 25.63 62.57L40.03 62.57L40.03 79.20C40.03 85.32 41.83 86.98 49.32 86.98L60.98 86.98C66.60 86.98 68.47 85.10 69.26 77.76C67.46 77.40 64.87 76.54 63.50 75.60C63.22 80.71 62.78 81.58 60.34 81.58Z"/></svg>
