<svg xmlns="http://www.w3.org/2000/svg" xmlns:xlink="http://www.w3.org/1999/xlink" width="72.00000000000001" height="106.56000000000002"><path fill="red" stroke="red" d="M67.90 38.38L67.90 32.26L44.21 32.26C45.07 29.74 45.94 27.00 46.66 24.34L40.18 23.11C38.16 31.61 34.34 39.74 29.16 44.86C30.67 45.79 33.41 47.81 34.49 48.96C37.15 46.08 39.46 42.48 41.47 38.38ZM16.99 49.18L16.99 40.82L31.61 40.82L31.61 34.63L17.28 34.63L22.97 32.62C22.25 29.95 20.59 25.99 19.01 22.97L13.18 24.91C14.69 27.94 16.13 31.97 16.85 34.63L3.74 34.63L3.74 40.82L11.02 40.82L11.02 51.26C11.02 61.34 10.08 74.23 2.16 85.32C3.74 86.33 5.90 87.91 7.06 89.14C14.83 78.48 16.63 66.17 16.92 55.22L23.90 55.22C23.47 73.66 22.90 80.35 21.74 81.86C21.17 82.66 20.66 82.87 19.80 82.87C18.72 82.87 16.56 82.80 14.18 82.58C15.19 84.24 15.70 86.69 15.77 88.42C18.50 88.49 21.10 88.49 22.75 88.27C24.62 88.06 25.92 87.41 27.14 85.68C28.87 83.23 29.45 75.24 30.02 51.91C30.10 51.05 30.10 49.18 30.10 49.18ZM63.36 52.34C61.56 54.50 58.75 57.17 56.09 59.54C55.22 56.16 54.65 52.63 54.14 48.96C58.68 47.66 63.07 46.22 66.74 44.57L61.49 39.89C55.58 42.84 45.29 45.79 36.22 47.66L36.22 77.26C36.22 80.78 34.70 82.87 33.48 83.95C34.56 84.89 36.29 87.34 36.86 88.70C38.16 87.48 40.39 86.54 53.35 80.71C52.99 79.27 52.56 76.46 52.49 74.66L42.62 78.77L42.62 51.77C44.50 51.34 46.44 50.90 48.38 50.47C50.76 67.03 55.08 80.86 64.37 87.98C65.38 86.26 67.39 83.74 68.98 82.51C63.86 78.91 60.26 72.86 57.82 65.38C61.20 62.86 65.02 59.62 68.18 56.52Z"/></svg>
