<svg xmlns="http://www.w3.org/2000/svg" xmlns:xlink="http://www.w3.org/1999/xlink" width="72.00000000000001" height="106.56000000000002"><path fill="red" stroke="red" d="M67.75 58.61L67.75 51.98L39.46 51.98L39.46 41.04L62.71 41.04L62.71 34.42L39.46 34.42L39.46 23.11L32.40 23.11L32.40 34.42L9.72 34.42L9.72 41.04L32.40 41.04L32.40 51.98L4.54 51.98L4.54 58.61L28.87 58.61C22.54 67.32 12.24 75.53 2.45 79.85C3.96 81.29 6.19 83.88 7.34 85.54C16.34 80.93 25.56 73.15 32.40 64.30L32.40 89.14L39.46 89.14L39.46 64.01C46.30 72.94 55.51 81.07 64.58 85.61C65.81 83.88 67.90 81.22 69.48 79.85C59.69 75.60 49.32 67.32 42.91 58.61Z"/></svg>
