<svg xmlns="http://www.w3.org/2000/svg" xmlns:xlink="http://www.w3.org/1999/xlink" width="72.00000000000001" height="106.56000000000002"><path fill="red" stroke="red" d="M30.67 60.77C29.30 58.75 23.54 51.05 20.95 47.81L20.95 44.50L31.25 44.50L31.25 38.16L20.95 38.16L20.95 23.11L14.54 23.11L14.54 38.16L4.25 38.16L4.25 44.50L13.75 44.50C11.59 53.78 6.98 64.37 2.30 70.20C3.38 71.78 4.97 74.45 5.69 76.39C9.00 72.00 12.10 65.16 14.54 57.89L14.54 89.21L20.95 89.21L20.95 56.16C23.18 59.69 25.49 63.65 26.64 66.02ZM68.83 47.38L40.90 47.38L40.90 35.71C49.25 34.13 58.18 31.97 64.87 29.16L59.18 23.90C53.42 26.64 43.42 29.30 34.56 30.96L34.56 52.56C34.56 62.57 33.98 76.25 27.43 85.68C29.02 86.33 31.82 87.98 32.98 89.06C39.60 79.42 40.82 64.58 40.90 53.71L52.34 53.71L52.34 89.21L58.97 89.21L58.97 53.71L68.83 53.71Z"/></svg>
