<svg xmlns="http://www.w3.org/2000/svg" xmlns:xlink="http://www.w3.org/1999/xlink" width="72.00000000000001" height="106.56000000000002"><path fill="red" stroke="red" d="M24.48 59.47C23.40 57.60 19.08 50.62 17.06 47.45L17.06 42.91L23.33 42.91L23.33 36.72L17.06 36.72L17.06 23.11L11.30 23.11L11.30 36.72L3.67 36.72L3.67 42.91L10.51 42.91C8.86 51.62 5.54 61.78 1.94 67.46C2.88 69.26 4.32 72.36 4.90 74.52C7.27 70.49 9.50 64.37 11.30 57.67L11.30 89.14L17.06 89.14L17.06 55.80C18.72 59.04 20.30 62.50 21.10 64.73ZM44.21 30.10C42.91 30.82 41.33 31.46 39.60 32.04L39.60 23.47L33.48 23.47L33.48 33.98C30.38 34.92 27.07 35.64 23.98 36.29C24.70 37.73 25.63 39.82 25.85 41.18C28.22 40.75 30.89 40.32 33.48 39.67L33.48 48.31L26.21 48.31L26.21 54.22L33.48 54.22C33.48 57.46 33.34 60.70 33.05 63.72L23.83 63.72L23.83 69.70L32.11 69.70C30.96 75.46 28.51 80.71 23.98 85.10C25.56 86.04 28.01 87.98 29.23 89.35C34.70 83.81 37.30 77.11 38.52 69.70L47.52 69.70L47.52 63.72L39.24 63.72C39.53 60.62 39.60 57.46 39.60 54.22L45.72 54.22L45.72 48.31L39.60 48.31L39.60 38.23C42.70 37.30 45.65 36.29 48.02 35.14ZM64.22 27.22L63.36 27.50L48.96 27.50L48.96 89.21L54.58 89.21L54.58 33.05L61.56 33.05C60.41 38.59 58.97 44.93 57.38 51.55C61.49 58.61 63.07 63.00 63.07 67.10C63.07 69.62 62.71 72.00 61.70 72.86C61.34 73.22 60.62 73.44 59.83 73.44C58.90 73.51 57.67 73.51 56.30 73.30C57.31 74.95 57.82 77.47 57.89 79.06C59.40 79.13 61.06 79.13 62.21 78.98C63.72 78.77 64.94 78.26 65.81 77.54C67.90 75.67 68.90 71.93 68.83 67.32C68.83 62.86 67.10 57.74 62.93 50.76C65.02 43.20 67.10 35.78 68.62 29.52Z"/></svg>
