<svg xmlns="http://www.w3.org/2000/svg" xmlns:xlink="http://www.w3.org/1999/xlink" width="72.00000000000001" height="106.56000000000002"><path fill="red" stroke="red" d="M50.04 46.51L50.04 50.47C50.04 55.87 51.34 57.89 56.95 57.89L63.72 57.89C65.38 57.89 67.25 57.82 68.26 57.46C68.04 56.09 67.82 53.86 67.68 52.27C66.60 52.56 64.73 52.63 63.58 52.63L57.31 52.63C56.16 52.63 55.94 52.13 55.94 50.54L55.94 46.51L68.26 46.51L68.26 40.90L50.47 40.90L50.47 35.21L64.58 35.21L64.58 29.81L50.47 29.81L50.47 23.11L43.99 23.11L43.99 29.81L30.89 29.81L30.89 35.21L43.99 35.21L43.99 40.90L27.14 40.90L27.14 46.51L36.43 46.51C35.42 51.12 32.98 54.58 25.92 56.74C27.29 57.82 28.87 60.12 29.52 61.56C38.02 58.25 41.18 53.35 42.34 46.51ZM27.00 59.33C25.78 57.24 20.81 49.46 18.65 46.37L18.65 42.91L25.99 42.91L25.99 36.72L18.65 36.72L18.65 23.18L12.38 23.18L12.38 36.72L4.32 36.72L4.32 42.91L12.17 42.91C10.30 52.13 6.48 63.00 2.45 68.76C3.53 70.49 5.04 73.44 5.69 75.38C8.14 71.50 10.51 65.74 12.38 59.33L12.38 89.21L18.65 89.21L18.65 54.86C20.38 58.25 22.10 61.85 22.90 64.08ZM54.65 67.10C52.85 70.13 50.33 72.86 47.02 75.31C44.14 73.37 41.69 71.21 39.67 68.90C40.18 68.33 40.68 67.75 41.18 67.10ZM59.04 61.49L57.74 61.70L44.86 61.70C45.79 59.98 46.66 58.18 47.38 56.38L41.54 54.94C40.25 58.18 38.45 61.34 36.14 64.01C35.57 63.07 34.99 62.06 34.63 61.06L29.95 63.65C30.60 65.16 31.32 66.60 32.26 68.04C30.24 69.84 27.94 71.42 25.63 72.72C26.93 73.80 29.16 76.03 30.02 77.18C31.97 75.96 33.98 74.52 35.78 72.79C37.51 74.88 39.46 76.75 41.76 78.55C37.01 80.86 31.32 82.80 24.55 84.10C25.92 85.54 27.58 87.77 28.22 89.42C35.78 87.70 42.19 85.32 47.30 82.30C52.42 85.18 58.61 87.48 65.95 88.99C66.67 87.34 68.26 84.74 69.55 83.45C63.00 82.51 57.38 80.71 52.70 78.55C57.82 74.30 61.27 69.19 63.22 63.29Z"/></svg>
