<svg xmlns="http://www.w3.org/2000/svg" xmlns:xlink="http://www.w3.org/1999/xlink" width="72.00000000000001" height="106.56000000000002"><path fill="red" stroke="red" d="M18.79 43.13L25.85 43.13L25.85 36.86L18.79 36.86L18.79 23.11L12.74 23.11L12.74 36.86L3.89 36.86L3.89 43.13L12.46 43.13C10.51 52.49 6.55 63.22 2.30 69.05C3.38 70.63 4.82 73.22 5.47 75.02C8.21 71.06 10.73 64.94 12.74 58.54L12.74 89.14L18.79 89.14L18.79 54.86C20.59 58.32 22.54 62.06 23.40 64.37L27.07 59.18C25.92 57.31 20.66 49.32 18.79 46.73ZM44.57 63.22L44.57 69.34L36.00 69.34L36.00 63.22ZM59.18 69.34L50.40 69.34L50.40 63.22L59.18 63.22ZM50.40 81.00L50.40 74.59L59.18 74.59L59.18 81.00ZM36.00 81.00L36.00 74.59L44.57 74.59L44.57 81.00ZM30.10 88.99L36.00 88.99L36.00 86.33L59.18 86.33L59.18 88.85L65.38 88.85L65.38 57.82L30.10 57.82ZM68.40 27.22L46.51 27.22L46.51 32.69L51.34 32.69L51.34 34.27C51.34 38.38 50.62 43.63 47.59 48.60C46.58 45.22 44.28 39.38 42.34 35.06L37.66 36.79C38.38 38.66 39.17 40.75 39.89 42.84L33.34 46.51L33.34 32.47C37.73 31.54 42.34 30.31 46.08 28.80L42.34 23.69C38.66 25.49 32.69 27.43 27.65 28.66L27.65 45.65C27.65 49.10 26.21 51.19 25.13 52.20C26.06 53.06 27.72 55.30 28.30 56.59C29.30 55.30 31.10 53.93 41.69 47.74C42.05 48.96 42.34 50.11 42.62 51.05L47.38 48.96C46.37 50.62 45.14 52.20 43.49 53.64C45.00 54.14 47.52 55.58 48.60 56.45C55.22 50.11 56.88 40.97 56.88 34.34L56.88 32.69L62.71 32.69C62.42 43.92 62.06 48.10 61.20 49.18C60.77 49.90 60.26 50.04 59.54 49.97C58.68 49.97 56.88 49.97 54.86 49.75C55.58 51.26 56.16 53.50 56.23 55.22C58.68 55.30 60.98 55.30 62.35 55.08C64.01 54.86 65.09 54.29 66.10 52.92C67.54 51.05 67.97 45.22 68.40 29.59Z"/></svg>
