<svg xmlns="http://www.w3.org/2000/svg" xmlns:xlink="http://www.w3.org/1999/xlink" width="72.00000000000001" height="106.56000000000002"><path fill="red" stroke="red" d="M25.85 56.45C24.77 54.72 20.30 48.02 18.58 45.86L18.58 42.91L24.41 42.91L24.41 36.72L18.58 36.72L18.58 23.18L12.82 23.18L12.82 36.72L4.18 36.72L4.18 42.91L12.38 42.91C10.44 52.20 6.55 63.07 2.30 68.76C3.46 70.49 4.90 73.44 5.54 75.38C8.21 71.21 10.80 64.80 12.82 57.82L12.82 89.21L18.58 89.21L18.58 53.64C20.02 56.45 21.38 59.26 22.10 61.06ZM35.93 81.36L35.93 75.74L43.56 75.74L43.56 70.92L35.93 70.92L35.93 66.24C39.02 65.30 42.55 64.01 45.29 62.64L42.05 58.25C40.18 59.18 37.44 60.41 34.78 61.42C36.65 59.18 38.23 56.88 39.67 54.43L51.91 54.43C53.21 56.59 54.72 58.61 56.38 60.62L47.09 60.62L47.09 65.74L56.16 65.74L56.16 70.92L47.59 70.92L47.59 75.74L56.16 75.74L56.16 81.36ZM67.90 54.43L67.90 49.03L42.48 49.03C43.20 47.59 43.78 46.01 44.35 44.50L63.86 44.50L63.86 39.38L45.94 39.38C46.37 37.87 46.73 36.50 47.09 34.99L66.10 34.99L66.10 29.52L48.02 29.52C48.31 27.58 48.60 25.63 48.74 23.69L42.84 23.18C42.70 25.27 42.48 27.43 42.19 29.52L26.57 29.52L26.57 34.99L41.18 34.99C40.90 36.50 40.46 37.94 40.03 39.38L28.51 39.38L28.51 44.50L38.16 44.50C37.58 46.01 36.86 47.59 36.07 49.03L25.42 49.03L25.42 54.43L32.62 54.43C29.74 58.46 26.06 62.14 21.46 65.09C22.90 66.02 24.70 68.33 25.56 69.84C27.29 68.69 28.80 67.39 30.31 66.17L30.31 89.21L35.93 89.21L35.93 86.47L56.16 86.47L56.16 88.70L61.63 88.70L61.63 66.02C63.29 67.32 64.87 68.54 66.53 69.55C67.32 67.97 69.05 65.74 70.34 64.51C65.95 62.35 61.42 58.61 58.03 54.43Z"/></svg>
