<svg xmlns="http://www.w3.org/2000/svg" xmlns:xlink="http://www.w3.org/1999/xlink" width="72.00000000000001" height="106.56000000000002"><path fill="red" stroke="red" d="M42.12 54.86C41.54 52.20 40.10 47.74 38.66 44.42L34.63 45.50C35.06 46.73 35.57 48.10 36.00 49.46L30.24 50.18C33.84 45.79 37.58 40.18 40.68 34.63L35.86 32.83C35.14 34.42 34.34 36.00 33.48 37.51L29.02 37.94C31.39 34.42 33.77 29.88 35.71 25.42L30.74 23.98C29.16 29.30 26.21 34.70 25.27 36.00C24.41 37.51 23.47 38.38 22.61 38.59C23.11 39.82 23.90 42.26 24.19 43.34C24.98 42.91 26.21 42.55 30.96 41.90C29.23 44.71 27.65 46.94 26.93 47.81C25.63 49.61 24.41 50.83 23.26 51.05C23.90 52.34 24.62 54.86 24.91 55.87C25.92 55.30 27.58 54.86 37.15 53.57C37.37 54.58 37.51 55.51 37.66 56.30ZM22.97 57.67C22.10 55.94 18.07 49.25 16.42 46.87L16.42 42.91L21.82 42.91L21.82 36.72L16.42 36.72L16.42 23.18L10.66 23.18L10.66 36.72L3.67 36.72L3.67 42.91L10.30 42.91C8.64 51.70 5.33 61.92 1.94 67.39C2.88 69.12 4.25 72.07 4.75 74.09C6.91 70.20 8.93 64.30 10.66 58.03L10.66 89.21L16.42 89.21L16.42 54.50C17.86 57.38 19.22 60.48 19.87 62.35ZM58.82 65.38C57.46 68.26 55.51 70.99 53.28 73.44C52.27 71.14 51.48 68.26 50.69 65.16L67.39 65.16L67.39 59.90L61.56 59.90L63.43 58.10C61.99 56.66 59.04 54.65 56.81 53.21C58.46 52.92 60.55 52.63 63.29 52.20C63.58 53.35 63.86 54.43 64.08 55.30L68.26 53.86C67.61 51.12 65.95 46.66 64.51 43.34L60.62 44.42C61.06 45.58 61.56 46.94 62.06 48.17L56.23 48.89C59.76 44.50 63.36 38.88 66.31 33.26L61.34 31.46C60.70 33.12 59.90 34.63 59.04 36.22L54.79 36.65C56.88 33.41 59.04 29.23 60.70 25.20L55.73 23.83C54.43 28.58 51.77 33.62 50.98 34.85C50.11 36.14 49.32 37.08 48.46 37.30C49.03 38.52 49.82 40.97 50.11 42.05C50.83 41.62 52.06 41.26 56.66 40.68C55.01 43.42 53.50 45.65 52.78 46.51C51.48 48.31 50.40 49.46 49.25 49.75C49.82 51.05 50.62 53.64 50.90 54.65C51.62 54.29 52.56 54.00 56.02 53.35L53.06 56.02C54.72 57.10 56.66 58.54 58.25 59.90L49.61 59.90C47.81 50.11 46.87 37.66 46.51 23.62L40.90 23.62C41.33 37.37 42.26 49.75 43.92 59.90L23.26 59.90L23.26 65.16L28.30 65.16C28.22 71.28 26.57 79.27 18.22 85.32C19.44 86.04 21.82 88.13 22.68 89.28C28.58 84.82 31.61 79.13 32.90 73.58C35.42 75.74 37.87 78.05 39.31 79.70L43.42 75.67C41.40 73.44 37.22 69.98 33.91 67.39C33.98 66.67 33.98 65.88 33.98 65.16L44.93 65.16C45.94 69.98 47.23 74.16 48.74 77.62C45.14 80.50 40.75 82.87 35.93 84.60C37.08 85.75 38.66 87.70 39.46 88.92C43.85 87.26 47.88 85.03 51.48 82.44C54.36 86.54 57.89 88.85 62.35 89.21C65.38 89.35 67.90 86.90 69.41 78.48C68.33 77.90 66.10 76.32 65.09 75.10C64.51 80.21 63.65 82.80 62.28 82.66C59.90 82.44 57.89 81.00 56.09 78.62C59.47 75.38 62.35 71.71 64.44 67.46Z"/></svg>
