<svg xmlns="http://www.w3.org/2000/svg" xmlns:xlink="http://www.w3.org/1999/xlink" width="72.00000000000001" height="106.56000000000002"><path fill="red" stroke="red" d="M61.06 32.47L52.92 32.47L52.92 29.30L61.06 29.30ZM61.06 39.53L52.92 39.53L52.92 36.29L61.06 36.29ZM61.06 46.66L52.92 46.66L52.92 43.34L61.06 43.34ZM58.25 52.92C60.41 55.37 63.29 58.75 64.66 60.77L68.40 57.82C67.10 56.02 64.30 52.92 62.14 50.62L66.31 50.62L66.31 25.34L47.88 25.34L47.88 50.62L61.42 50.62ZM48.89 61.70C51.34 59.47 53.71 55.87 55.30 52.99L51.26 50.76C49.90 53.14 47.45 56.30 45.29 58.10ZM37.08 52.99C38.59 54.65 40.61 56.81 41.69 58.18L45.43 55.66C44.35 54.36 42.26 52.34 40.68 50.83ZM39.67 32.47L32.11 32.47L32.11 29.30L39.67 29.30ZM39.67 39.53L32.11 39.53L32.11 36.29L39.67 36.29ZM39.67 46.66L32.11 46.66L32.11 43.34L39.67 43.34ZM44.86 25.34L27.07 25.34L27.07 50.62L44.86 50.62ZM25.27 58.75L28.37 61.78C30.82 59.40 33.19 55.80 34.78 52.85L30.74 50.62C29.45 52.85 27.36 55.80 25.34 57.60C23.83 55.15 19.66 48.67 17.86 46.15L17.86 42.91L25.34 42.91L25.34 36.72L17.86 36.72L17.86 23.18L12.02 23.18L12.02 36.72L3.74 36.72L3.74 42.91L11.52 42.91C9.86 52.13 6.19 63.00 2.30 68.76C3.31 70.49 4.90 73.44 5.54 75.46C7.92 71.50 10.22 65.52 12.02 59.11L12.02 89.21L17.86 89.21L17.86 53.93C19.51 57.17 21.10 60.77 21.89 63.00ZM53.64 71.14C52.13 73.73 50.18 75.89 47.74 77.62C44.50 76.61 41.26 75.82 38.30 75.02C38.95 73.80 39.74 72.50 40.46 71.14ZM68.76 85.39C64.87 83.52 59.62 81.58 54.07 79.70C56.66 77.33 58.68 74.52 60.19 71.14L68.04 71.14L68.04 65.88L62.14 65.88C62.35 65.16 62.50 64.37 62.64 63.65L56.88 62.64C56.59 63.79 56.30 64.80 55.94 65.88L42.98 65.88C44.14 63.58 45.07 61.20 45.86 59.04L39.96 58.03C39.10 60.48 37.94 63.22 36.72 65.88L25.42 65.88L25.42 71.14L34.06 71.14C32.83 73.44 31.46 75.67 30.24 77.47C33.84 78.41 37.87 79.56 41.83 80.78C37.44 82.58 32.04 83.66 25.27 84.38C26.28 85.68 27.36 87.77 27.86 89.42C36.86 88.13 43.78 86.26 49.10 83.30C54.86 85.25 59.98 87.34 63.43 89.14Z"/></svg>
