<svg xmlns="http://www.w3.org/2000/svg" xmlns:xlink="http://www.w3.org/1999/xlink" width="72.00000000000001" height="106.56000000000002"><path fill="red" stroke="red" d="M16.13 43.56L21.31 43.56L21.31 37.80L16.13 37.80L16.13 23.26L10.80 23.26L10.80 37.80L4.68 37.80L4.68 43.56L10.80 43.56L10.80 44.93C9.07 53.86 5.76 64.15 2.23 69.84C3.24 71.57 4.68 74.52 5.26 76.46C7.27 72.94 9.14 67.75 10.80 62.14L10.80 89.21L16.13 89.21L16.13 54.72C17.21 57.46 18.22 60.26 18.79 62.14L22.39 57.74C21.53 55.80 17.64 48.17 16.13 45.58ZM37.73 30.24L37.73 34.34L29.09 34.34L29.09 30.24ZM29.09 42.98L29.09 38.74L37.73 38.74L37.73 42.98ZM42.91 47.66L42.91 25.56L23.62 25.56L23.62 89.21L29.09 89.21L29.09 47.66ZM49.25 68.62C50.04 67.39 50.98 65.66 51.98 64.01L49.32 62.86C48.96 64.01 48.02 66.31 47.38 67.82ZM37.87 63.65C38.59 65.16 39.24 67.03 39.53 68.40L42.05 67.39C41.69 66.31 40.90 64.37 40.25 62.93ZM36.94 61.92L43.06 61.92L43.06 69.19L36.94 69.19ZM52.78 69.19L46.37 69.19L46.37 61.92L52.78 61.92ZM57.24 79.34C54.94 77.54 50.62 74.66 47.23 72.58L56.74 72.58L56.74 58.54L47.16 58.54L47.16 55.87L58.54 55.87L58.54 52.06L47.16 52.06L47.16 48.53L42.48 48.53L42.48 52.06L31.25 52.06L31.25 55.87L42.48 55.87L42.48 58.54L33.12 58.54L33.12 72.58L41.04 72.58C38.23 75.74 34.06 78.98 30.38 80.64C31.32 81.43 32.76 82.94 33.48 84.02C36.43 82.37 39.74 79.49 42.41 76.54L42.41 86.47L47.02 86.47L47.02 77.26C49.82 79.20 52.70 81.22 54.50 82.73ZM51.84 42.98L51.84 38.74L60.77 38.74L60.77 42.98ZM60.77 30.24L60.77 34.34L51.84 34.34L51.84 30.24ZM66.31 25.56L46.66 25.56L46.66 47.66L60.77 47.66L60.77 83.30C60.77 84.02 60.55 84.24 59.83 84.24C59.33 84.24 57.82 84.31 55.94 84.24C56.59 85.54 57.38 87.77 57.60 89.14C60.62 89.14 62.78 88.99 64.30 88.13C65.81 87.19 66.31 85.90 66.31 83.30Z"/></svg>
