<svg xmlns="http://www.w3.org/2000/svg" xmlns:xlink="http://www.w3.org/1999/xlink" width="72.00000000000001" height="106.56000000000002"><path fill="red" stroke="red" d="M62.06 41.40C61.34 45.79 60.55 50.47 59.69 53.57L65.09 55.08C66.60 50.33 68.18 42.77 69.26 36.29L64.73 35.06L63.72 35.28L46.87 35.28C47.81 31.68 48.60 27.94 49.25 24.12L42.70 23.04C41.18 33.62 38.16 43.78 33.34 50.18C34.85 50.90 37.87 52.70 39.02 53.78C41.33 50.40 43.34 46.22 45.00 41.40ZM38.02 36.94C35.86 33.48 31.32 28.15 27.79 24.34L22.75 27.29C26.28 31.32 30.74 36.86 32.76 40.32ZM13.10 24.55C10.66 29.95 6.70 35.64 2.52 39.31C3.89 40.25 6.41 42.34 7.42 43.42C11.74 39.31 16.34 32.62 19.30 26.35ZM26.93 78.34L15.19 78.34L15.19 65.66L26.93 65.66ZM12.02 59.62C15.41 55.94 18.36 51.55 20.88 46.87C24.70 50.98 28.73 55.73 31.61 59.62ZM33.19 61.70L33.98 62.93L38.52 58.46C35.42 53.86 28.87 46.73 23.47 41.04C23.83 40.18 24.19 39.38 24.48 38.52L18.79 36.79C15.48 46.22 9.22 54.86 2.02 59.98C3.60 61.20 5.47 63.29 6.48 64.80C7.27 64.15 8.14 63.50 8.93 62.71L8.93 88.27L15.19 88.27L15.19 84.31L33.19 84.31ZM49.18 42.77C48.17 62.50 44.50 76.39 33.70 84.24C35.14 85.32 37.44 87.84 38.30 89.21C45.00 84.24 49.18 77.11 51.70 67.97C54.43 76.68 58.32 83.16 64.73 89.28C65.66 87.34 67.61 85.25 69.26 83.95C60.84 76.68 56.95 68.11 54.43 54.00C54.79 50.62 55.15 47.16 55.37 43.49Z"/></svg>
