<svg xmlns="http://www.w3.org/2000/svg" xmlns:xlink="http://www.w3.org/1999/xlink" width="72.00000000000001" height="106.56000000000002"><path fill="red" stroke="red" d="M62.28 40.18C61.42 44.78 60.19 49.61 59.04 52.92L64.30 54.50C66.31 49.68 68.26 41.83 69.70 35.14L65.23 33.84L64.22 34.13L48.31 34.13C49.18 30.89 49.90 27.58 50.40 24.12L44.21 23.04C42.48 34.06 39.17 44.57 33.98 51.12C35.50 51.91 38.30 53.71 39.46 54.65C42.26 50.83 44.64 45.86 46.44 40.18ZM15.91 59.83L26.28 59.83L26.28 66.10L15.91 66.10ZM26.28 38.02L26.28 43.56L15.91 43.56L15.91 38.02ZM15.91 48.82L26.28 48.82L26.28 54.58L15.91 54.58ZM38.59 66.10L32.40 66.10L32.40 38.02L37.44 38.02L37.44 32.18L32.40 32.18L32.40 23.90L26.28 23.90L26.28 32.18L15.91 32.18L15.91 23.90L9.94 23.90L9.94 32.18L3.82 32.18L3.82 38.02L9.94 38.02L9.94 66.10L2.95 66.10L2.95 71.93L38.59 71.93ZM12.67 73.30C10.58 77.62 6.91 82.01 3.02 84.89C4.54 85.82 7.06 87.70 8.21 88.70C12.02 85.39 16.20 80.14 18.72 75.02ZM22.32 76.10C24.91 79.06 28.15 83.23 29.52 85.82L34.70 82.30C33.26 79.78 29.95 75.82 27.29 73.08ZM54.50 44.14L48.46 44.14L48.46 49.25C48.46 58.82 47.23 73.66 34.27 84.38C35.57 85.54 37.66 87.84 38.52 89.42C46.01 83.09 49.97 75.60 52.13 68.26C54.86 76.68 58.90 83.09 65.16 88.92C66.02 87.12 67.75 85.10 69.26 83.88C60.98 76.75 56.95 68.47 54.36 54.65C54.43 52.85 54.50 50.98 54.50 49.39Z"/></svg>
