<svg xmlns="http://www.w3.org/2000/svg" xmlns:xlink="http://www.w3.org/1999/xlink" width="72.00000000000001" height="106.56000000000002"><path fill="red" stroke="red" d="M66.89 33.70L66.89 28.73L22.46 28.73C23.11 27.36 23.83 26.06 24.41 24.70L18.14 23.11C15.12 30.38 9.58 37.22 3.60 41.62C5.18 42.48 7.78 44.42 9.07 45.50C12.74 42.48 16.42 38.30 19.51 33.70ZM61.85 41.04L61.85 36.50L19.22 36.50L19.22 41.04ZM24.12 70.34L24.12 68.62L24.12 66.38L29.95 66.38L29.95 70.34ZM12.31 70.34C12.53 69.05 12.82 67.75 13.10 66.38L18.43 66.38L18.43 68.54C18.43 69.19 18.43 69.77 18.36 70.34ZM24.12 58.25L29.95 58.25L29.95 61.99L24.12 61.99ZM41.76 58.25L41.76 61.99L35.78 61.99L35.78 58.25ZM35.78 70.34L35.78 66.38L47.45 66.38L47.45 53.86L35.78 53.86L35.78 50.18L29.95 50.18L29.95 53.86L24.12 53.86L24.12 50.18L18.43 50.18L18.43 53.86L6.84 53.86L6.84 58.25L18.43 58.25L18.43 61.99L8.14 61.99C7.49 66.24 6.34 71.42 5.40 75.02L17.64 75.02C16.49 79.13 13.32 82.30 5.98 84.60C7.20 85.61 9.07 87.77 9.86 89.14C19.30 86.04 22.61 81.22 23.69 75.02L29.95 75.02L29.95 88.78L35.78 88.78L35.78 75.02L44.14 75.02C43.92 77.98 43.63 79.27 43.20 79.78C42.84 80.21 42.41 80.28 41.83 80.28C41.11 80.28 39.82 80.28 38.23 80.06C38.81 81.36 39.24 83.30 39.31 84.89C41.62 84.96 43.78 84.89 44.86 84.74C46.22 84.60 47.38 84.17 48.24 83.09C49.39 81.79 49.75 78.77 50.11 72.36C50.11 71.64 50.18 70.34 50.18 70.34ZM11.38 44.06L11.38 48.89L51.26 48.89C51.70 73.08 53.06 89.35 63.14 89.35C67.82 89.35 69.12 85.54 69.62 76.18C68.33 75.24 66.60 73.44 65.30 72.00C65.23 78.34 64.80 82.73 63.58 82.73C58.90 82.80 57.96 65.59 57.82 44.06Z"/></svg>
