<svg xmlns="http://www.w3.org/2000/svg" xmlns:xlink="http://www.w3.org/1999/xlink" width="72.00000000000001" height="106.56000000000002"><path fill="red" stroke="red" d="M10.08 88.34C14.26 81.58 19.08 72.94 22.82 65.45L17.93 61.06C13.75 69.19 8.21 78.41 4.32 83.81ZM19.30 50.69C16.27 48.67 10.08 45.50 5.98 43.56L2.38 48.46C6.62 50.69 12.67 54.22 15.55 56.23ZM43.20 48.96L43.20 63.00L32.47 63.00L32.47 48.96ZM49.32 68.98L49.32 42.91L26.42 42.91L26.42 73.87L32.47 73.87L32.47 68.98ZM69.12 27.50L22.68 27.50L22.68 31.61C19.51 29.52 13.61 26.28 9.43 24.12L5.62 28.94C9.94 31.39 15.91 34.92 18.79 37.01L22.68 31.90L22.68 33.98L57.10 33.98L57.10 80.06C57.10 81.65 56.45 82.15 54.86 82.22C53.06 82.30 46.80 82.37 40.82 82.01C41.83 83.88 43.13 87.12 43.49 89.14C51.34 89.14 56.52 88.99 59.62 87.84C62.64 86.76 63.79 84.67 63.79 80.14L63.79 33.98L69.12 33.98Z"/></svg>
