<svg xmlns="http://www.w3.org/2000/svg" xmlns:xlink="http://www.w3.org/1999/xlink" width="72.00000000000001" height="106.56000000000002"><path fill="red" stroke="red" d="M66.53 31.03L49.54 31.03C49.03 28.58 48.02 25.20 47.09 22.46L40.97 23.47C41.76 25.70 42.48 28.66 42.91 31.03L25.27 31.03L25.27 36.94L66.53 36.94ZM39.89 48.89C39.24 45.79 37.58 40.97 35.71 37.37L30.17 39.10C31.82 42.70 33.41 47.59 33.98 50.76ZM22.75 31.46C19.87 29.23 14.11 26.06 9.86 24.12L6.19 29.02C10.51 31.18 16.20 34.63 18.86 36.94ZM19.22 50.90C16.34 48.67 10.80 45.65 6.55 43.85L3.02 48.67C7.27 50.83 12.82 54.14 15.55 56.45ZM10.66 88.13C14.76 81.43 19.44 72.79 23.04 65.23L18.22 60.91C14.11 69.12 8.86 78.34 5.18 83.81ZM56.45 68.47L56.45 80.42L34.92 80.42L34.92 68.47ZM28.66 89.14L34.92 89.14L34.92 86.33L56.45 86.33L56.45 88.85L63.07 88.85L63.07 62.50L28.66 62.50ZM55.73 50.98C57.53 47.38 59.40 42.77 61.06 38.66L54.65 37.01C53.50 41.18 51.26 47.02 49.46 50.98L22.46 50.98L22.46 57.02L68.83 57.02L68.83 50.98Z"/></svg>
