<svg xmlns="http://www.w3.org/2000/svg" xmlns:xlink="http://www.w3.org/1999/xlink" width="72.00000000000001" height="106.56000000000002"><path fill="red" stroke="red" d="M22.18 30.53C19.58 28.51 14.40 25.78 10.66 24.12L6.91 28.94C10.73 30.89 15.84 33.91 18.36 35.86ZM17.64 49.25C15.05 47.38 9.86 44.78 6.19 43.20L2.66 48.24C6.48 49.97 11.52 52.92 13.97 54.79ZM10.66 87.34C13.54 80.64 16.70 72.14 19.08 64.80L13.75 60.84C11.02 68.83 7.34 77.90 4.61 83.38ZM29.30 62.86C27.58 67.82 24.55 74.02 20.81 77.76L25.78 81.22C29.59 76.82 32.54 70.34 34.49 65.02ZM38.02 82.15C38.02 82.94 37.80 83.16 36.79 83.16C36.00 83.23 32.90 83.23 29.74 83.16C30.60 84.89 31.39 87.41 31.61 89.14C36.29 89.14 39.46 89.06 41.54 88.06C43.63 87.12 44.21 85.32 44.21 82.22L44.21 55.22L38.02 55.22ZM45.79 65.66C47.88 70.42 49.90 76.68 50.54 80.78L55.87 78.77C55.08 74.66 52.99 68.54 50.76 63.86ZM54.43 63.65C58.10 69.05 61.92 76.46 63.43 81.29L68.83 78.55C67.18 73.80 63.36 66.67 59.47 61.27ZM68.69 47.66L68.69 41.47L43.27 41.47C44.35 38.74 45.29 35.86 46.01 32.98L66.17 32.98L66.17 26.78L23.98 26.78L23.98 32.98L39.02 32.98C38.30 35.86 37.37 38.74 36.22 41.47L20.74 41.47L20.74 47.66L32.83 47.66C29.45 52.99 24.77 57.46 18.50 60.41C19.73 61.70 21.74 64.08 22.54 65.52C30.74 61.42 36.43 55.15 40.46 47.66L48.31 47.66C52.34 54.72 58.68 60.98 65.66 64.22C66.60 62.57 68.54 60.19 69.98 59.04C64.30 56.74 58.97 52.56 55.37 47.66Z"/></svg>
