<svg xmlns="http://www.w3.org/2000/svg" xmlns:xlink="http://www.w3.org/1999/xlink" width="72.00000000000001" height="106.56000000000002"><path fill="red" stroke="red" d="M22.18 31.18C19.51 28.73 14.26 25.78 10.08 23.98L6.34 28.94C10.58 30.96 15.77 34.13 18.22 36.65ZM19.15 49.61C16.42 47.23 10.80 44.28 6.41 42.70L2.74 47.74C7.27 49.68 12.74 52.85 15.26 55.30ZM14.62 61.34C11.30 69.55 6.84 78.91 3.60 84.46L9.72 88.34C13.18 81.43 17.06 72.79 20.02 65.23ZM54.94 47.74L54.94 53.42L43.42 53.42L43.42 47.74ZM30.38 47.74L37.51 47.74L37.51 58.68L61.06 58.68L61.06 47.74L67.90 47.74L67.90 42.41L61.06 42.41L61.06 37.22L54.94 37.22L54.94 42.41L43.42 42.41L43.42 37.22L37.51 37.22L37.51 42.41L30.38 42.41L30.38 35.57L68.40 35.57L68.40 29.95L51.26 29.95C50.54 27.72 49.39 24.98 48.31 22.82L42.05 24.19C42.84 25.92 43.70 28.01 44.35 29.95L24.05 29.95L24.05 49.18C24.05 60.12 23.40 75.17 16.42 85.75C18.07 86.40 20.88 87.91 22.10 88.99C29.23 77.83 30.38 60.84 30.38 49.25ZM57.02 67.46C55.15 70.49 52.56 73.01 49.46 75.24C46.51 73.01 44.06 70.42 42.19 67.46ZM61.78 61.85L60.62 62.14L31.90 62.14L31.90 67.46L35.42 67.46C37.66 71.78 40.46 75.46 43.99 78.55C39.17 80.93 33.70 82.66 28.01 83.59C29.09 84.96 30.60 87.41 31.25 89.06C37.73 87.62 43.78 85.46 49.18 82.44C53.78 85.39 59.33 87.55 65.59 88.92C66.46 87.12 68.26 84.60 69.70 83.30C64.08 82.44 59.11 80.78 54.79 78.62C59.54 74.74 63.43 69.84 65.88 63.65Z"/></svg>
