<svg xmlns="http://www.w3.org/2000/svg" xmlns:xlink="http://www.w3.org/1999/xlink" width="72.00000000000001" height="106.56000000000002"><path fill="red" stroke="red" d="M22.32 31.32C19.58 29.09 14.11 25.99 10.08 24.12L6.55 29.02C10.66 31.18 16.06 34.49 18.65 36.86ZM18.29 50.11C15.48 47.95 10.01 45.07 5.98 43.27L2.59 48.31C6.70 50.26 12.10 53.50 14.83 55.80ZM9.79 87.98C13.68 81.22 18.00 72.86 21.46 65.38L16.78 60.91C12.89 68.98 7.92 78.05 4.39 83.45ZM61.34 68.18C54.43 75.46 39.74 82.01 26.71 84.24C27.65 85.75 28.73 87.98 29.16 89.50C42.55 86.47 57.38 79.27 65.23 71.21ZM53.64 62.42C48.17 67.82 36.79 73.01 27.22 74.88C28.22 76.25 29.23 78.34 29.74 79.78C39.67 77.11 51.26 71.28 57.38 65.23ZM46.30 56.66C42.34 60.70 34.20 64.51 27.36 66.02C28.22 67.18 29.16 69.48 29.59 70.78C36.94 68.54 45.43 63.86 49.97 59.18ZM67.75 50.18C66.74 47.52 64.73 43.06 63.00 39.82L59.26 41.18C59.83 42.12 60.34 43.27 60.91 44.42L52.99 45.29C54.36 43.27 55.80 40.90 56.95 38.52L52.34 36.58C51.48 39.89 49.75 42.98 49.25 43.85C48.67 44.78 48.02 45.36 47.45 45.50C47.66 46.08 48.02 47.09 48.31 48.02L44.50 46.80L43.78 47.52C43.13 45.22 41.62 42.05 40.10 39.53L36.50 41.26C37.08 42.34 37.73 43.56 38.30 44.86L30.24 46.01C32.11 43.99 33.91 41.40 35.50 38.95L32.26 37.44C34.63 37.08 40.18 36.65 57.24 35.64C58.03 36.86 58.82 37.87 59.40 38.81L63.72 35.86C61.70 32.83 57.60 28.08 54.50 24.77L50.47 27.36C51.55 28.58 52.78 30.02 53.93 31.39L37.44 32.26C40.39 30.02 43.49 27.29 46.30 24.41L40.54 22.75C37.80 26.28 33.55 29.59 32.33 30.38C31.10 31.39 29.95 31.97 29.02 32.18C29.52 33.70 30.31 36.72 30.60 37.87C29.09 41.11 26.78 44.06 26.06 44.86C25.34 45.79 24.55 46.44 23.76 46.58C24.34 47.95 25.06 50.47 25.27 51.48C26.28 50.90 28.01 50.47 39.67 48.38C39.82 48.96 39.96 49.46 40.10 49.97L42.41 48.82C37.80 52.56 30.67 55.87 21.17 58.18C22.03 59.40 23.26 61.85 23.76 63.29C32.98 60.62 40.18 57.17 45.58 52.78C51.34 57.38 59.98 61.27 67.90 63.36C68.18 61.78 68.98 59.26 69.77 57.89C62.64 56.59 54.86 53.78 49.68 50.11C50.90 49.68 53.71 49.25 62.50 48.02C63.07 49.46 63.50 50.76 63.86 51.77Z"/></svg>
