<svg xmlns="http://www.w3.org/2000/svg" xmlns:xlink="http://www.w3.org/1999/xlink" width="72.00000000000001" height="106.56000000000002"><path fill="red" stroke="red" d="M20.88 32.11L20.88 34.63L47.38 34.63L47.38 38.59C47.38 43.13 48.46 45.14 53.64 45.14L61.63 45.14C63.43 45.14 65.59 45.07 66.53 44.78C66.31 43.34 66.17 41.69 66.10 40.18C65.09 40.46 62.64 40.54 61.42 40.54L54.79 40.54C53.35 40.54 53.21 40.03 53.21 38.66L53.21 34.63L68.04 34.63L68.04 29.30L46.51 29.30C45.58 27.43 44.35 24.98 43.27 23.18L37.22 24.70C37.87 26.14 38.74 27.72 39.38 29.30L20.88 29.30L20.88 31.25C18.14 29.23 13.25 26.28 9.72 24.34L6.48 29.23C10.22 31.46 15.34 34.92 17.86 37.01ZM17.50 50.33C14.83 48.31 9.50 45.36 5.69 43.70L2.66 48.82C6.55 50.76 11.81 53.86 14.40 55.94ZM14.76 61.34C11.59 69.26 7.34 78.12 4.39 83.38L9.43 87.70C12.74 81.07 16.34 72.86 19.22 65.59ZM31.32 51.70L54.86 51.70L54.86 58.10L31.32 58.10ZM62.86 64.51C60.70 66.96 57.17 70.20 54.00 72.65C51.70 69.84 49.75 66.60 48.31 63.14L60.26 63.14L60.26 46.58L27.00 46.58C35.42 44.93 38.38 41.76 39.31 36.22L33.41 36.22C32.54 40.54 29.45 41.98 18.58 42.77C19.66 43.85 21.02 46.08 21.46 47.45C23.18 47.23 24.62 47.02 26.06 46.73L26.06 63.14L35.78 63.14C31.03 67.46 24.12 71.06 16.56 73.37C17.86 74.45 19.80 76.61 20.74 77.98C23.33 77.04 25.99 75.89 28.44 74.74L28.44 79.70C28.44 82.51 27.58 83.52 26.64 84.10C27.50 85.18 28.58 87.70 28.94 89.14C30.38 88.13 32.62 87.26 47.88 84.17C47.74 82.94 47.74 80.71 47.88 78.98L34.06 81.43L34.06 71.57C37.30 69.34 40.25 66.96 42.62 64.22C47.09 75.46 54.50 84.02 65.52 88.49C66.46 86.90 68.33 84.74 69.70 83.59C65.09 82.01 60.98 79.49 57.53 76.39C60.91 74.02 64.87 70.78 68.04 67.68Z"/></svg>
