<svg xmlns="http://www.w3.org/2000/svg" xmlns:xlink="http://www.w3.org/1999/xlink" width="72.00000000000001" height="106.56000000000002"><path fill="red" stroke="red" d="M21.82 30.46C19.22 28.58 14.18 25.85 10.66 24.12L6.84 29.02C10.51 30.89 15.41 33.84 17.93 35.78ZM17.42 49.10C14.83 47.38 9.72 44.86 6.19 43.20L2.59 48.24C6.26 49.97 11.23 52.85 13.68 54.65ZM15.26 60.91C12.02 68.98 7.70 77.98 4.54 83.45L10.51 87.55C13.90 80.86 17.64 72.36 20.52 64.94ZM34.56 76.25C30.60 79.20 24.19 82.15 18.29 83.95C19.80 85.03 22.18 87.55 23.33 88.85C29.16 86.47 36.29 82.58 40.90 78.70ZM30.53 65.38L40.82 65.38L40.82 70.49L30.53 70.49ZM30.53 55.51L40.82 55.51L40.82 60.55L30.53 60.55ZM57.89 55.51L57.89 60.55L47.23 60.55L47.23 55.51ZM57.89 70.49L47.23 70.49L47.23 65.38L57.89 65.38ZM60.41 34.99L60.41 40.46L28.30 40.46L28.30 34.99ZM64.08 75.60L64.08 50.40L47.23 50.40L47.23 45.94L61.06 45.94L61.06 41.69L66.82 41.69L66.82 29.45L47.95 29.45C47.16 27.43 46.01 24.70 44.86 22.68L38.09 23.90C38.88 25.56 39.82 27.65 40.46 29.45L22.10 29.45L22.10 41.69L27.43 41.69L27.43 45.94L40.82 45.94L40.82 50.40L24.55 50.40L24.55 75.60L52.34 75.60L47.52 79.06C52.70 81.86 59.40 86.11 62.71 88.85L67.97 84.74C64.44 82.08 57.74 78.19 52.85 75.60Z"/></svg>
