<svg xmlns="http://www.w3.org/2000/svg" xmlns:xlink="http://www.w3.org/1999/xlink" width="72.00000000000001" height="106.56000000000002"><path fill="red" stroke="red" d="M21.60 34.34C19.37 31.61 14.54 27.72 10.87 25.06L6.48 29.23C10.30 32.04 14.90 36.29 17.06 39.02ZM18.00 52.20C15.62 49.61 10.66 46.01 6.84 43.63L2.95 48.24C6.84 50.83 11.66 54.79 13.97 57.38ZM15.84 60.91C12.38 68.90 7.70 77.98 4.39 83.38L10.44 87.55C14.04 80.86 17.93 72.43 21.17 64.94ZM30.60 71.71C28.08 76.03 23.83 80.35 19.44 83.09C20.95 84.10 23.47 86.04 24.70 87.12C28.94 83.88 33.77 78.62 36.79 73.58ZM34.92 60.48L55.15 60.48L55.15 64.87L34.92 64.87ZM47.45 35.93C49.10 39.89 51.26 43.49 53.64 46.80L36.29 46.80C38.81 43.56 40.97 39.96 42.84 35.93ZM55.15 56.02L34.92 56.02L34.92 51.62L55.15 51.62ZM61.42 69.70L61.42 54.86C62.78 55.87 64.08 56.81 65.52 57.60C66.53 56.02 68.40 53.64 69.91 52.42C66.82 50.98 64.01 48.96 61.49 46.44C63.65 45.00 66.10 42.98 68.40 41.18L63.65 37.08C62.35 38.66 60.05 40.82 58.03 42.62C56.38 40.54 54.94 38.23 53.71 35.93L68.18 35.93L68.18 30.17L45.14 30.17C45.79 28.30 46.37 26.28 46.80 24.26L40.39 23.04C39.89 25.49 39.17 27.94 38.30 30.17L23.26 30.17L23.26 35.93L35.78 35.93C34.70 37.87 33.55 39.82 32.26 41.54C30.46 39.96 28.15 38.38 26.28 37.15L22.39 41.11C24.41 42.48 26.64 44.28 28.44 45.94C25.70 48.74 22.61 50.98 19.08 52.92C20.52 54.00 22.90 56.59 23.83 57.96C25.63 56.81 27.36 55.58 28.94 54.22L28.94 69.70L41.83 69.70L41.83 82.15C41.83 82.87 41.62 83.09 40.68 83.09C39.89 83.16 36.94 83.16 34.06 83.09C34.92 84.74 35.78 87.26 36.00 89.14C40.32 89.14 43.42 89.14 45.65 88.13C47.88 87.19 48.46 85.46 48.46 82.37L48.46 69.70ZM52.34 74.74C56.59 78.26 61.27 83.52 63.50 86.83L69.12 83.38C66.74 80.14 61.99 75.31 57.67 71.86Z"/></svg>
