<svg xmlns="http://www.w3.org/2000/svg" xmlns:xlink="http://www.w3.org/1999/xlink" width="72.00000000000001" height="106.56000000000002"><path fill="red" stroke="red" d="M58.68 37.37C56.59 43.78 52.85 52.34 49.75 57.67L55.51 60.12C58.75 55.08 62.78 47.02 65.95 40.18ZM21.24 57.46C19.87 52.20 16.63 43.13 13.90 36.22L7.42 38.52C9.94 45.58 13.03 54.86 14.26 60.41ZM32.62 23.83C32.47 48.89 33.62 72.65 3.53 83.66C5.33 85.03 7.27 87.55 8.21 89.28C23.76 83.30 31.61 73.80 35.71 62.64C41.11 75.74 49.68 84.46 64.30 88.70C65.30 86.83 67.25 83.95 68.76 82.51C51.84 78.41 42.70 67.54 38.45 51.55C39.96 42.77 40.03 33.26 40.10 23.83Z"/></svg>
