<svg xmlns="http://www.w3.org/2000/svg" xmlns:xlink="http://www.w3.org/1999/xlink" width="72.00000000000001" height="106.56000000000002"><path fill="red" stroke="red" d="M66.38 37.94L66.38 31.46L26.42 31.46C26.64 28.87 26.93 26.14 27.14 23.40L20.02 22.97C19.80 25.92 19.58 28.73 19.30 31.46L4.97 31.46L4.97 37.94L18.58 37.94C16.42 54.72 12.02 68.33 2.66 77.11C4.18 78.34 7.13 81.14 8.06 82.44C18.14 72.14 23.04 57.02 25.56 37.94ZM57.24 65.74C59.11 61.56 61.20 55.51 63.00 50.18L57.24 47.38C56.16 52.34 53.78 58.97 51.98 63.14ZM35.28 64.37C34.56 60.12 32.83 52.56 31.25 46.73L25.56 48.38C27.07 54.22 28.66 61.92 29.16 66.46ZM41.40 41.11C40.75 61.06 39.89 76.46 19.51 83.88C20.95 85.18 22.75 87.62 23.54 89.28C35.35 84.74 41.33 77.62 44.50 68.62C49.18 77.47 55.66 84.60 63.72 88.85C64.66 87.05 66.67 84.74 68.04 83.52C58.39 79.06 50.83 70.06 46.73 59.47C47.66 53.78 48.02 47.66 48.24 41.11Z"/></svg>
