<svg xmlns="http://www.w3.org/2000/svg" xmlns:xlink="http://www.w3.org/1999/xlink" width="72.00000000000001" height="106.56000000000002"><path fill="red" stroke="red" d="M26.42 34.13C25.49 38.59 23.26 45.00 21.53 49.03L26.14 51.12C28.15 47.30 30.53 41.47 32.90 36.50ZM11.88 54.86C11.23 50.11 9.43 41.76 7.63 35.28L2.45 36.50C4.18 43.13 5.83 51.62 6.34 56.66ZM30.46 72.58C28.94 70.78 22.90 63.36 20.30 60.48C21.02 55.44 21.17 50.26 21.17 45.36L21.17 23.18L14.76 23.18L14.76 45.36C14.76 58.18 13.68 72.50 3.38 83.30C4.90 84.31 7.20 86.62 8.28 88.13C13.97 82.08 17.14 75.17 19.01 67.97C21.53 71.35 24.34 75.46 25.85 77.98ZM51.91 79.56L51.91 51.48L66.60 51.48L66.60 45.00L51.91 45.00L51.91 23.54L45.00 23.54L45.00 45.00L31.10 45.00L31.10 51.48L45.00 51.48L45.00 79.56L27.22 79.56L27.22 86.04L68.98 86.04L68.98 79.56Z"/></svg>
