<svg xmlns="http://www.w3.org/2000/svg" xmlns:xlink="http://www.w3.org/1999/xlink" width="72.00000000000001" height="106.56000000000002"><path fill="red" stroke="red" d="M33.55 36.94L61.42 36.94L61.42 43.85L67.61 43.85L67.61 31.25L51.62 31.25C50.62 28.80 49.03 25.49 47.52 22.90L41.47 24.77C42.48 26.71 43.63 29.16 44.50 31.25L27.58 31.25L27.58 43.85L33.55 43.85ZM50.18 42.19C54.72 45.79 60.41 51.05 63.00 54.43L67.97 50.76C65.09 47.45 59.33 42.41 54.79 38.95ZM37.94 39.46C35.35 43.78 30.89 47.88 26.28 50.62C27.58 51.55 29.66 53.71 30.60 54.79C35.28 51.55 40.46 46.37 43.49 41.11ZM10.22 55.94C9.86 50.98 8.71 42.26 7.42 35.50L2.59 36.36C3.74 43.13 4.75 52.06 5.04 57.17ZM21.60 52.06C23.40 48.24 25.49 41.98 27.43 36.86L21.89 34.99C21.02 39.24 19.44 45.58 17.93 49.68L17.93 48.46L17.93 23.90L12.17 23.90L12.17 48.46C12.17 61.20 11.23 74.52 2.88 84.89C4.18 85.82 6.34 87.98 7.20 89.42C11.95 83.74 14.54 77.33 16.13 70.63C18.22 73.94 20.52 77.83 21.74 80.21L26.14 75.67C24.77 73.80 19.37 65.95 17.28 63.29C17.71 59.04 17.86 54.86 17.93 50.62ZM35.50 65.02C39.74 61.92 43.56 58.32 46.73 54.22C50.40 58.03 55.08 61.85 59.90 65.02ZM37.30 80.78L37.30 70.49L55.80 70.49L55.80 80.78ZM45.00 46.08C40.97 53.50 32.83 60.70 23.54 65.09C24.91 66.17 26.86 68.40 27.79 69.62C29.02 69.05 30.17 68.40 31.39 67.68L31.39 88.99L37.30 88.99L37.30 86.33L55.80 86.33L55.80 88.92L62.06 88.92L62.06 66.38C63.72 67.39 65.23 68.33 66.82 69.12C67.32 67.46 68.47 64.87 69.48 63.43C62.71 60.48 54.65 55.08 49.82 49.82C50.18 49.25 50.47 48.60 50.83 47.95Z"/></svg>
