<svg xmlns="http://www.w3.org/2000/svg" xmlns:xlink="http://www.w3.org/1999/xlink" width="72.00000000000001" height="106.56000000000002"><path fill="red" stroke="red" d="M26.21 65.09C25.56 66.82 24.77 68.54 23.90 70.20C22.46 69.19 20.95 68.18 19.58 67.39L17.06 70.63C18.58 71.50 20.23 72.58 21.82 73.73C20.02 76.32 18.00 78.70 15.84 80.64C16.85 81.22 18.65 82.51 19.37 83.16C21.38 81.29 23.33 78.91 25.13 76.25C26.64 77.54 28.01 78.77 28.94 79.78L31.46 76.25C30.46 75.24 29.02 74.02 27.36 72.72C28.51 70.63 29.59 68.40 30.46 66.10ZM31.18 58.68C30.17 57.74 28.73 56.59 27.14 55.51C28.30 53.57 29.38 51.62 30.24 49.61L26.14 48.60C25.49 50.18 24.70 51.77 23.76 53.21C22.39 52.42 21.02 51.62 19.73 50.98L17.21 54.07C18.65 54.79 20.09 55.66 21.60 56.59C19.94 58.82 18.14 60.84 16.27 62.50C17.28 63.07 19.01 64.22 19.80 64.87C21.53 63.22 23.26 61.20 24.84 58.97C26.35 60.05 27.65 61.20 28.58 62.14ZM55.51 75.53C54.43 74.52 52.92 73.37 51.26 72.14C52.42 70.20 53.42 68.11 54.22 66.02L50.04 64.94C49.46 66.60 48.67 68.26 47.81 69.84C46.22 68.83 44.64 67.90 43.13 67.10L40.68 70.42C42.26 71.28 43.92 72.29 45.58 73.37C43.78 75.96 41.69 78.34 39.38 80.21C40.46 80.78 42.12 82.08 42.91 82.73C45.00 80.78 47.09 78.41 48.96 75.74C50.54 76.97 51.98 78.12 52.99 79.13ZM55.01 58.97C53.93 57.96 52.42 56.74 50.76 55.51C51.91 53.64 52.92 51.62 53.78 49.61L49.75 48.67C49.10 50.26 48.31 51.77 47.45 53.28C45.94 52.34 44.42 51.48 42.98 50.76L40.46 53.78C41.98 54.58 43.63 55.58 45.22 56.66C43.56 58.90 41.69 60.98 39.67 62.64C40.75 63.22 42.41 64.44 43.20 65.09C44.93 63.36 46.73 61.27 48.46 58.97C49.97 60.19 51.34 61.42 52.34 62.42ZM39.02 41.83L39.02 33.26L49.18 33.26L46.15 35.57C49.82 37.30 54.14 39.60 57.82 41.83ZM16.78 41.83C19.87 39.67 22.82 37.30 25.06 34.85L20.74 33.26L32.69 33.26L32.69 41.83ZM69.41 42.12C65.81 39.53 59.69 36.00 54.14 33.26L67.54 33.26L67.54 27.29L4.75 27.29L4.75 33.26L18.29 33.26C14.47 37.08 8.35 40.61 2.52 42.84C3.96 43.85 6.34 46.01 7.49 47.23C8.06 46.94 8.71 46.66 9.29 46.30L9.29 89.14L15.48 89.14L15.48 47.38L32.69 47.38L32.69 88.70L39.02 88.70L39.02 47.38L57.02 47.38L57.02 82.30C57.02 83.30 56.66 83.66 55.58 83.66C54.58 83.74 51.05 83.81 47.45 83.66C48.31 85.18 49.10 87.62 49.46 89.21C54.65 89.21 58.18 89.14 60.41 88.20C62.57 87.26 63.36 85.61 63.36 82.37L63.36 45.43L64.44 46.22Z"/></svg>
