<svg xmlns="http://www.w3.org/2000/svg" xmlns:xlink="http://www.w3.org/1999/xlink" width="72.00000000000001" height="106.56000000000002"><path fill="red" stroke="red" d="M21.89 24.70C20.52 27.07 18.72 29.74 16.56 32.26C14.69 29.66 12.31 27.07 9.29 24.55L4.39 28.30C7.78 31.18 10.30 34.06 12.17 37.22C9.14 40.25 5.90 42.91 2.88 44.78C4.32 46.30 5.98 49.03 6.91 50.83C9.58 48.74 12.38 46.15 15.19 43.27C15.98 45.79 16.63 48.31 16.99 50.98C13.46 57.17 7.78 63.43 2.45 66.60C3.89 68.04 5.47 70.63 6.34 72.36C10.22 69.41 14.26 65.23 17.64 60.55L17.64 61.49C17.64 70.27 17.06 77.98 15.41 80.14C14.83 80.93 14.18 81.29 13.03 81.36C11.45 81.58 8.78 81.65 5.18 81.36C6.41 83.30 7.13 85.90 7.13 88.06C10.51 88.20 13.61 88.20 16.20 87.62C18.00 87.26 19.37 86.47 20.45 85.03C23.54 80.86 24.34 71.57 24.34 61.63C24.34 53.28 23.69 45.29 19.94 37.80C22.68 34.42 25.13 31.03 27.00 27.86ZM36.43 33.70C46.73 32.69 58.32 30.96 66.60 28.58L62.14 23.26C54.43 25.56 41.54 27.50 30.46 28.58L30.46 42.12C30.46 54.14 29.88 72.00 23.33 84.67C24.48 85.46 27.14 87.84 28.08 89.21C35.21 75.53 36.43 54.79 36.43 42.12ZM48.74 67.46C49.90 70.42 50.90 73.73 51.91 77.11L44.64 78.98C48.89 69.26 49.18 58.18 49.18 49.97L49.18 37.51L43.42 37.51L43.42 49.90C43.42 59.76 43.20 72.94 35.78 82.22C36.94 83.16 39.10 85.68 39.89 86.90C41.11 86.04 42.98 85.32 53.35 82.30C53.86 84.24 54.22 86.11 54.43 87.70L59.33 86.18C58.32 80.64 55.80 72.50 53.28 66.02ZM56.16 36.22C57.17 57.53 58.90 77.62 64.73 89.14C65.88 87.41 68.04 85.18 69.62 84.10C64.30 74.38 62.50 54.94 61.63 35.71Z"/></svg>
