<svg xmlns="http://www.w3.org/2000/svg" xmlns:xlink="http://www.w3.org/1999/xlink" width="72.00000000000001" height="106.56000000000002"><path fill="red" stroke="red" d="M20.88 24.48C19.51 27.00 17.78 29.66 15.77 32.26C13.90 29.52 11.45 26.86 8.28 24.26L3.60 27.86C7.13 30.89 9.72 33.98 11.74 37.22C8.86 40.32 5.76 43.20 2.59 45.43C4.03 46.51 6.19 48.46 7.20 49.82C9.72 47.88 12.17 45.65 14.62 43.27C15.55 46.08 16.20 48.96 16.56 51.98C13.25 57.89 7.49 64.22 2.38 67.54C4.03 68.76 5.83 70.99 6.91 72.58C10.30 69.84 13.97 65.88 17.14 61.70L17.14 61.85C17.14 70.92 16.49 79.13 14.83 81.36C14.26 82.15 13.61 82.44 12.53 82.58C10.94 82.80 8.28 82.80 4.82 82.58C5.98 84.38 6.62 86.83 6.70 88.99C9.86 89.14 12.82 89.06 15.34 88.56C17.21 88.13 18.65 87.34 19.66 85.97C22.68 81.86 23.47 72.14 23.47 61.99C23.47 53.71 22.82 45.65 19.22 38.09C22.10 34.70 24.70 31.10 26.71 27.43ZM36.50 48.82L57.67 48.82L57.67 55.87L36.50 55.87ZM57.67 36.65L57.67 43.20L36.50 43.20L36.50 36.65ZM63.36 62.93C61.06 65.02 57.31 67.75 54.00 69.84C52.34 67.39 50.90 64.58 49.68 61.70L64.15 61.70L64.15 30.89L51.41 30.89C50.47 28.44 48.96 25.20 47.59 22.61L41.69 24.26C42.62 26.21 43.70 28.73 44.50 30.89L36.50 30.89L36.50 30.82L29.88 30.82L29.88 77.62C29.88 81.14 27.79 83.45 26.42 84.46C27.43 85.46 29.16 87.77 29.88 89.21L29.88 89.42L29.95 89.35L29.95 89.42L29.95 89.35C31.46 88.34 33.98 87.26 48.02 82.58C47.66 81.29 47.30 78.70 47.23 76.90L36.50 80.21L36.50 61.70L43.34 61.70C47.52 73.58 54.79 83.09 64.94 87.84C65.95 86.18 67.90 83.74 69.41 82.44C64.87 80.64 60.91 77.83 57.60 74.30C60.91 72.29 64.80 69.77 67.68 67.39Z"/></svg>
