<svg xmlns="http://www.w3.org/2000/svg" xmlns:xlink="http://www.w3.org/1999/xlink" width="72.00000000000001" height="106.56000000000002"><path fill="red" stroke="red" d="M27.14 68.90C24.26 69.77 21.38 70.49 18.58 71.28L18.58 54.43L26.35 54.43L26.35 48.17L18.58 48.17L18.58 33.84L27.65 33.84L27.65 27.65L3.46 27.65L3.46 33.84L12.17 33.84L12.17 48.17L4.03 48.17L4.03 54.43L12.17 54.43L12.17 73.08C8.78 73.94 5.69 74.74 3.17 75.38L4.46 81.79C11.16 79.92 19.80 77.33 27.94 74.95ZM69.05 59.69L69.05 53.57L51.55 53.57L51.55 42.19L65.74 42.19L65.74 36.07L51.55 36.07L51.55 23.11L45.14 23.11L45.14 36.07L38.45 36.07C39.10 33.26 39.60 30.38 40.10 27.50L33.98 26.42C32.76 34.85 30.60 43.13 26.93 48.46C28.37 49.18 31.10 50.90 32.18 51.77C33.91 49.18 35.42 45.86 36.58 42.19L45.14 42.19L45.14 53.57L27.65 53.57L27.65 59.69L42.34 59.69C38.02 68.40 30.74 76.68 23.33 80.93C24.70 82.15 26.78 84.46 27.79 86.11C34.42 81.72 40.61 74.45 45.14 66.24L45.14 89.21L51.55 89.21L51.55 65.95C55.51 73.66 60.62 80.86 65.88 85.25C67.03 83.66 69.12 81.22 70.63 80.14C64.44 75.74 58.10 67.75 54.14 59.69Z"/></svg>
