<svg xmlns="http://www.w3.org/2000/svg" xmlns:xlink="http://www.w3.org/1999/xlink" width="72.00000000000001" height="106.56000000000002"><path fill="red" stroke="red" d="M26.14 46.44C28.44 46.44 30.96 46.37 32.18 46.01C31.97 44.50 31.75 42.12 31.61 40.32C30.24 40.68 27.58 40.82 25.92 40.82L16.06 40.82C14.26 40.82 13.82 40.03 13.82 37.80L13.82 34.13L31.39 34.13L31.39 28.80L13.82 28.80L13.82 23.40L7.34 23.40L7.34 37.66C7.34 44.14 9.00 46.44 15.70 46.44ZM31.97 78.62C30.67 77.40 25.85 73.15 23.11 70.85L33.26 70.85L33.26 65.30L23.33 65.30C23.40 64.51 23.40 63.79 23.40 63.07L23.40 58.25L32.11 58.25L32.11 52.78L14.11 52.78C14.62 51.12 15.05 49.46 15.41 47.74L9.36 46.58C8.28 52.27 6.34 58.10 3.46 61.99C4.97 62.64 7.63 64.08 8.86 65.02C10.08 63.14 11.23 60.84 12.24 58.25L17.14 58.25L17.14 63.00C17.14 63.72 17.14 64.51 17.06 65.30L3.46 65.30L3.46 70.85L16.13 70.85C14.76 75.67 11.38 80.93 3.31 84.82C4.82 85.90 6.77 87.91 7.70 89.28C14.83 85.32 18.79 80.57 20.95 75.74C23.54 78.48 26.64 81.94 28.08 83.95ZM53.71 70.34L66.24 70.34L66.24 64.80L53.71 64.80L53.71 53.64L61.49 53.64C60.70 56.23 59.83 58.68 59.04 60.48L63.86 61.99C65.59 58.68 67.32 53.42 68.69 48.96L64.58 47.88L63.58 48.10L57.38 48.10L60.91 44.21C59.33 43.06 57.31 41.76 55.08 40.39C59.83 36.86 64.44 32.26 67.54 27.65L63.50 25.06L62.28 25.42L35.28 25.42L35.28 30.67L57.67 30.67C55.44 33.05 52.56 35.57 49.68 37.51C47.16 36.14 44.57 34.92 42.19 33.91L38.30 38.02C44.14 40.82 51.48 45.00 55.66 48.10L33.98 48.10L33.98 53.64L47.81 53.64L47.81 79.20C45.43 77.18 43.42 74.23 41.98 69.77C42.48 66.24 42.84 62.35 42.98 58.10L36.94 57.89C36.65 70.06 35.06 79.85 29.09 85.82C30.46 86.62 33.19 88.56 34.20 89.57C37.08 86.26 39.02 82.22 40.39 77.47C45.00 86.40 51.84 88.42 59.98 88.42L67.46 88.42C67.75 86.90 68.47 84.24 69.26 82.87C67.32 82.94 61.85 82.94 60.41 82.94C58.10 82.94 55.80 82.73 53.71 82.15Z"/></svg>
