<svg xmlns="http://www.w3.org/2000/svg" xmlns:xlink="http://www.w3.org/1999/xlink" width="72.00000000000001" height="106.56000000000002"><path fill="red" stroke="red" d="M12.89 49.10C12.24 45.58 10.01 40.10 7.70 35.93L2.81 38.16C4.97 42.48 7.13 48.17 7.78 51.77ZM68.54 35.42L68.54 29.59L45.14 29.59C44.28 27.43 43.13 24.70 42.05 22.68L35.28 24.12C36.00 25.70 36.86 27.72 37.58 29.59L13.54 29.59L13.54 52.06C13.54 53.86 13.54 55.80 13.39 57.74C9.07 60.05 4.90 62.06 1.94 63.43L4.10 69.55C6.91 67.90 9.86 66.17 12.82 64.37C11.81 71.50 9.50 78.77 4.32 84.38C5.62 85.18 8.14 87.55 9.00 88.92C18.36 79.06 19.80 63.29 19.80 52.06L19.80 35.42ZM33.12 48.67C31.25 54.94 27.14 60.05 21.89 63.36C23.11 64.22 25.20 66.10 26.14 67.10C29.16 64.94 31.90 62.28 34.13 59.04C36.22 60.62 38.38 62.57 39.53 64.01L42.91 59.90C41.62 58.39 39.02 56.38 36.65 54.72C37.44 53.21 38.16 51.48 38.66 49.75ZM67.39 42.48L48.53 42.48C47.74 40.39 46.58 37.87 45.58 35.93L39.10 37.22C39.82 38.81 40.68 40.68 41.33 42.48L23.47 42.48L23.47 47.95L67.39 47.95ZM68.83 69.62L47.81 69.62L47.81 65.88C50.18 64.15 52.34 61.92 54.14 59.47C57.74 61.92 61.63 64.87 63.65 66.89L67.46 62.71C65.09 60.55 60.62 57.38 56.81 55.01C57.67 53.35 58.39 51.55 58.90 49.68L53.21 48.60C51.55 54.86 47.52 59.90 42.05 63.07C42.84 63.65 44.06 64.66 45.00 65.59L41.18 65.59L41.18 69.62L20.52 69.62L20.52 75.17L41.18 75.17L41.18 89.28L47.81 89.28L47.81 75.17L68.83 75.17Z"/></svg>
