<svg xmlns="http://www.w3.org/2000/svg" xmlns:xlink="http://www.w3.org/1999/xlink" width="72.00000000000001" height="106.56000000000002"><path fill="red" stroke="red" d="M45.86 72.14C44.86 74.95 42.98 79.06 41.40 81.86L26.06 81.86L29.95 80.50C29.30 78.12 27.58 74.59 25.85 72.07L19.87 74.02C21.24 76.39 22.75 79.49 23.33 81.86L4.61 81.86L4.61 87.62L67.46 87.62L67.46 81.86L48.10 81.86C49.46 79.42 50.98 76.54 52.34 73.73ZM49.25 66.60L21.60 66.60L21.60 58.82L49.25 58.82ZM56.38 53.42L14.90 53.42L14.90 72.00L56.38 72.00ZM62.57 32.11C60.26 34.63 56.59 37.80 53.28 40.39C51.77 38.88 50.47 37.30 49.10 35.71C52.49 33.34 56.38 30.24 59.62 27.36L54.58 23.83C52.49 26.14 49.10 29.16 46.15 31.54C44.35 28.94 42.91 26.21 41.69 23.40L35.86 25.20C38.59 31.61 42.19 37.44 46.58 42.62L25.85 42.62C29.52 38.23 32.62 33.26 34.70 27.72L30.24 25.56L29.09 25.85L7.42 25.85L7.42 31.32L25.92 31.32C24.19 34.42 22.03 37.37 19.51 40.18C17.28 37.94 13.75 35.35 10.66 33.62L6.98 37.30C9.94 39.17 13.32 41.83 15.55 44.06C11.38 47.74 6.62 50.83 2.02 52.78C3.31 54.00 5.26 56.30 6.05 57.74C12.24 54.79 18.36 50.54 23.54 45.14L23.54 48.31L48.82 48.31L48.82 45.14C53.64 50.26 59.26 54.43 65.45 57.24C66.53 55.44 68.54 52.85 70.06 51.55C65.38 49.75 61.06 47.02 57.17 43.85C60.55 41.47 64.44 38.45 67.54 35.64Z"/></svg>
