<svg xmlns="http://www.w3.org/2000/svg" xmlns:xlink="http://www.w3.org/1999/xlink" width="72.00000000000001" height="106.56000000000002"><path fill="red" stroke="red" d="M17.21 70.63L25.56 70.63L25.56 81.58L17.21 81.58ZM40.18 70.63L40.18 81.58L31.68 81.58L31.68 70.63ZM54.79 70.63L54.79 81.58L46.30 81.58L46.30 70.63ZM61.34 65.30L10.94 65.30L10.94 81.58L4.10 81.58L4.10 87.70L67.97 87.70L67.97 81.58L61.34 81.58ZM50.69 56.74L21.31 56.74L21.31 51.19L50.69 51.19ZM15.34 46.66L15.34 61.34L56.95 61.34L56.95 46.66ZM26.64 38.09C30.02 35.93 33.19 33.48 36.00 30.96C38.81 33.19 42.34 35.71 46.37 38.09ZM35.64 22.46C29.02 30.60 16.20 37.94 2.45 42.55C3.82 43.78 5.90 46.37 6.70 47.95C12.10 45.86 17.28 43.56 22.10 40.82L22.10 42.91L50.26 42.91L50.26 40.39C55.15 43.06 60.34 45.50 65.30 47.30C66.31 45.50 68.47 42.84 69.91 41.40C59.18 38.30 46.73 32.26 39.96 27.07C40.54 26.42 41.04 25.78 41.54 25.20Z"/></svg>
