<svg xmlns="http://www.w3.org/2000/svg" xmlns:xlink="http://www.w3.org/1999/xlink" width="72.00000000000001" height="106.56000000000002"><path fill="red" stroke="red" d="M53.21 47.16C57.31 47.81 61.92 48.96 64.66 50.11L66.17 46.58C63.29 45.58 58.61 44.50 54.43 43.99ZM55.30 43.85C58.32 43.34 62.86 42.19 65.95 40.75L64.01 37.44C61.49 38.52 56.66 40.39 53.71 41.11ZM57.60 79.13L57.60 69.62L48.60 69.62L48.60 67.10L61.85 67.10C61.49 79.06 61.06 83.38 60.34 84.46C59.98 84.89 59.76 85.10 59.40 85.18C58.54 83.45 56.95 81.07 55.51 79.13ZM48.60 81.94L48.60 79.13L53.86 79.13L51.55 80.06C51.98 80.57 52.34 81.14 52.70 81.72ZM48.60 72.72L53.42 72.72L53.42 76.03L48.60 76.03ZM39.46 76.03L39.46 72.72L43.99 72.72L43.99 76.03ZM43.99 67.10L43.99 69.62L37.58 69.62C38.38 68.76 39.10 67.97 39.82 67.10ZM59.83 29.30L59.83 32.90L31.39 32.90L31.39 29.30ZM10.73 71.21L10.73 61.92L16.56 61.92L16.56 71.21ZM10.73 47.23L16.56 47.23L16.56 56.38L10.73 56.38ZM16.56 32.76L16.56 41.69L10.73 41.69L10.73 32.76ZM39.17 53.86L43.78 53.86L43.78 57.53L39.17 57.53ZM47.88 53.86L52.70 53.86L52.70 57.53L47.88 57.53ZM56.74 53.86L61.70 53.86L61.70 57.53L56.74 57.53ZM42.55 63.22C43.06 62.42 43.56 61.63 43.99 60.84L66.53 60.84L66.53 50.54L34.49 50.54L34.49 60.84L38.38 60.84C36.22 64.37 33.12 67.68 29.95 70.13C31.10 63.72 31.39 57.24 31.39 51.70L31.39 37.22L65.81 37.22L65.81 24.91L25.70 24.91L25.70 51.62C25.70 59.33 25.34 68.54 22.18 76.75L22.18 27.07L5.18 27.07L5.18 83.30L10.73 83.30L10.73 76.97L22.10 76.97C20.81 80.21 19.08 83.23 16.78 85.97C18.07 86.62 20.52 88.34 21.53 89.35C25.70 84.46 28.15 78.19 29.59 71.78C30.53 72.79 31.61 74.16 32.11 74.81C33.26 74.02 34.27 73.01 35.42 71.93L35.42 79.13L43.99 79.13L43.99 82.08L32.40 82.66L33.19 86.83C39.17 86.40 47.02 85.97 55.01 85.39C55.30 86.18 55.66 86.83 55.87 87.41L56.52 87.19C56.74 87.84 56.88 88.63 56.88 89.28C58.68 89.35 60.41 89.28 61.49 89.14C63.00 88.99 64.01 88.49 64.94 87.26C66.17 85.54 66.60 80.35 67.03 65.30C67.10 64.66 67.10 63.22 67.10 63.22ZM52.92 49.54L52.92 38.02L47.74 38.02L47.74 49.54ZM35.06 50.40C38.30 49.46 42.41 48.31 46.37 47.16L46.22 43.78L44.71 44.14L46.15 40.82C43.56 39.82 39.17 38.59 35.93 38.02L34.42 40.97C37.73 41.83 41.98 43.20 44.42 44.21C40.54 45.07 36.72 45.94 33.91 46.44Z"/></svg>
