<svg xmlns="http://www.w3.org/2000/svg" xmlns:xlink="http://www.w3.org/1999/xlink" width="72.00000000000001" height="106.56000000000002"><path fill="red" stroke="red" d="M32.18 75.38C30.53 73.30 24.26 65.09 21.46 61.99C21.67 60.48 21.89 59.04 22.03 57.60L31.32 57.60L31.32 51.26L22.54 51.26C22.54 50.40 22.54 49.61 22.54 48.74L22.54 38.81L29.74 38.81L29.74 32.47L14.76 32.47C15.41 29.81 15.91 27.00 16.34 24.26L10.08 23.18C9.00 31.54 6.91 40.03 3.46 45.43C4.97 46.22 7.63 47.95 8.78 48.89C10.44 46.08 11.88 42.62 13.10 38.81L16.06 38.81L16.06 48.60C16.06 49.46 16.06 50.33 16.06 51.26L3.89 51.26L3.89 57.60L15.62 57.60C14.62 66.53 11.59 76.32 2.95 83.74C4.25 84.53 6.77 86.98 7.70 88.20C14.04 82.87 17.64 76.03 19.80 69.05C22.61 72.94 26.06 77.90 27.65 80.86ZM58.68 48.96L58.68 62.50L41.47 62.50L41.47 48.96ZM41.47 79.63L41.47 68.69L65.16 68.69L65.16 42.77L41.47 42.77L41.47 33.62L68.11 33.62L68.11 27.14L30.89 27.14L30.89 33.62L34.85 33.62L34.85 79.63L31.32 79.63L31.32 86.18L68.83 86.18L68.83 79.63Z"/></svg>
