<svg xmlns="http://www.w3.org/2000/svg" xmlns:xlink="http://www.w3.org/1999/xlink" width="72.00000000000001" height="106.56000000000002"><path fill="red" stroke="red" d="M55.94 58.68L55.94 78.05L24.19 78.05L24.19 58.68ZM67.25 34.92L67.25 28.30L4.90 28.30L4.90 34.92L24.55 34.92C20.38 47.09 12.60 59.90 1.80 67.68C3.24 68.83 5.40 71.35 6.48 72.79C10.58 69.77 14.18 66.10 17.42 62.06L17.42 89.28L24.19 89.28L24.19 84.53L55.94 84.53L55.94 89.06L63.00 89.06L63.00 52.27L24.12 52.27C27.43 46.73 30.10 40.75 32.26 34.92Z"/></svg>
