<svg xmlns="http://www.w3.org/2000/svg" xmlns:xlink="http://www.w3.org/1999/xlink" width="72.00000000000001" height="106.56000000000002"><path fill="red" stroke="red" d="M19.37 74.45L13.68 74.45L13.68 54.58L19.37 54.58ZM25.99 32.76L25.99 26.71L3.74 26.71L3.74 32.76L12.10 32.76C10.15 42.98 6.98 52.56 2.23 58.97C3.17 60.77 4.61 64.80 4.90 66.53C6.05 65.09 7.06 63.65 8.06 61.99L8.06 85.90L13.68 85.90L13.68 80.35L24.98 80.35L24.98 48.67L14.11 48.67C15.91 43.63 17.28 38.23 18.36 32.76ZM34.92 71.35C32.47 75.67 28.66 80.50 25.13 83.74C26.50 84.74 28.94 86.90 30.10 88.13C33.77 84.31 38.09 78.48 41.04 73.30ZM56.09 38.52L56.09 44.14L48.96 44.14L48.96 38.52ZM69.05 69.55L69.05 64.01L50.26 64.01L50.26 58.39L66.31 58.39L66.31 53.14L37.37 53.14L37.37 38.52L43.56 38.52L43.56 48.74L61.70 48.74L61.70 38.52L68.47 38.52L68.47 33.26L61.70 33.26L61.70 24.41L56.09 24.41L56.09 33.26L48.96 33.26L48.96 24.05L43.56 24.05L43.56 33.26L37.37 33.26L37.37 25.13L31.68 25.13L31.68 33.26L26.78 33.26L26.78 38.52L31.68 38.52L31.68 58.39L43.70 58.39L43.70 64.01L27.07 64.01L27.07 69.55L43.70 69.55L43.70 89.14L50.26 89.14L50.26 69.55ZM52.78 74.38C56.95 78.41 61.92 84.02 64.08 87.70L69.12 84.02C66.74 80.42 61.78 74.95 57.46 71.21Z"/></svg>
