<svg xmlns="http://www.w3.org/2000/svg" xmlns:xlink="http://www.w3.org/1999/xlink" width="72.00000000000001" height="106.56000000000002"><path fill="red" stroke="red" d="M61.92 36.50C60.48 42.26 57.53 50.33 54.94 55.30L60.62 56.95C63.07 52.06 66.10 44.71 68.54 38.16ZM42.12 54.14C40.68 49.82 37.44 42.19 34.85 36.50L29.81 38.59C32.33 44.50 35.42 52.20 36.72 56.81ZM30.89 61.56C29.66 59.76 23.69 52.78 22.03 50.98L22.03 49.68L31.10 49.68L31.10 43.49L22.03 43.49L22.03 31.75C25.42 30.96 28.66 30.02 31.46 28.94L27.07 23.76C21.38 26.06 12.02 28.15 3.67 29.52C4.46 30.96 5.33 33.26 5.62 34.70C8.78 34.34 12.17 33.77 15.55 33.12L15.55 43.49L3.60 43.49L3.60 49.68L14.18 49.68C11.30 57.38 6.55 66.02 2.02 70.92C3.17 72.65 4.75 75.67 5.40 77.62C9.07 73.30 12.67 66.60 15.55 59.62L15.55 89.28L22.03 89.28L22.03 58.25C23.98 61.27 26.14 64.87 27.07 66.89ZM45.50 23.26C45.36 51.19 46.08 72.65 26.86 83.74C28.51 84.89 30.67 87.41 31.68 89.14C41.11 83.30 46.22 75.17 48.96 65.16C52.13 75.60 56.95 83.66 64.87 88.70C65.81 86.90 67.90 84.46 69.34 83.16C58.75 77.26 53.86 64.51 51.55 48.60C52.20 40.90 52.20 32.33 52.27 23.26Z"/></svg>
