<svg xmlns="http://www.w3.org/2000/svg" xmlns:xlink="http://www.w3.org/1999/xlink" width="72.00000000000001" height="106.56000000000002"><path fill="red" stroke="red" d="M54.86 51.55L54.86 56.52L16.99 56.52L16.99 51.55ZM61.63 61.34L61.63 46.73L10.73 46.73L10.73 56.45C10.73 64.58 9.79 75.89 2.74 84.24C4.18 84.96 6.84 87.19 7.92 88.42C14.33 80.78 16.34 70.06 16.85 61.34ZM57.24 81.86L44.06 81.86L44.06 73.87L61.49 73.87L61.49 63.86L55.15 63.86L55.15 69.05L44.06 69.05L44.06 62.86L37.66 62.86L37.66 69.05L26.06 69.05L26.06 63.86L19.94 63.86L19.94 73.87L37.66 73.87L37.66 81.86L23.62 81.86L23.62 76.18L17.57 76.18L17.57 86.76L57.24 86.76L57.24 89.06L63.65 89.06L63.65 76.18L57.24 76.18ZM67.75 37.94L67.75 28.22L39.96 28.22C39.38 26.57 38.74 24.62 38.02 23.11L31.03 24.12C31.54 25.42 31.90 26.78 32.33 28.22L4.68 28.22L4.68 37.94L11.09 37.94L11.09 33.12L25.42 33.12C23.47 37.58 18.86 39.46 5.90 40.61C7.06 41.83 8.64 44.42 9.14 45.94C24.55 43.99 30.24 40.46 32.47 33.12L40.97 33.12L40.97 37.08C40.97 42.05 42.26 44.35 48.38 44.35L59.54 44.35C61.85 44.35 64.44 44.35 65.74 43.92C65.52 42.34 65.38 40.61 65.16 38.81C63.94 39.17 60.84 39.31 59.18 39.31L49.61 39.31C47.88 39.31 47.66 38.66 47.66 37.15L47.66 33.12L60.98 33.12L60.98 37.94Z"/></svg>
