<svg xmlns="http://www.w3.org/2000/svg" xmlns:xlink="http://www.w3.org/1999/xlink" width="72.00000000000001" height="106.56000000000002"><path fill="red" stroke="red" d="M20.66 34.92L17.28 37.87C20.09 40.54 23.83 44.35 25.63 46.66L29.88 42.70C28.15 40.54 24.62 37.37 21.89 34.92L35.50 34.92L35.50 29.16L18.14 29.16C18.79 27.50 19.51 25.92 20.16 24.26L13.90 22.54C11.59 29.16 7.49 35.71 2.95 39.96C4.39 41.04 6.77 43.49 7.78 44.64C10.30 42.05 12.74 38.66 14.98 34.92ZM68.18 67.68L68.18 61.85L38.74 61.85C39.38 58.97 39.89 56.09 40.25 53.14C48.67 52.20 56.52 51.05 62.93 49.54L59.11 43.92C58.39 44.14 57.60 44.28 56.74 44.50L60.05 41.40C58.54 39.67 55.73 37.01 53.28 34.92L68.11 34.92L68.11 29.23L47.38 29.23C48.02 27.50 48.67 25.78 49.18 23.98L42.91 22.61C41.18 29.23 37.94 35.86 33.91 40.10C35.42 40.90 37.94 42.91 39.02 43.92C41.11 41.54 43.06 38.38 44.86 34.92L51.34 34.92L48.24 37.58C50.54 39.82 53.50 42.77 55.30 44.78C43.13 47.30 24.84 48.74 9.07 49.32C9.79 50.76 10.58 53.28 10.66 54.94C17.71 54.72 25.34 54.36 32.76 53.71C32.40 56.59 32.04 59.26 31.32 61.85L4.32 61.85L4.32 67.68L29.09 67.68C25.56 74.74 18.65 80.35 4.10 83.59C5.40 84.96 7.06 87.48 7.70 89.21C24.19 85.18 32.11 78.12 36.14 69.34C42.12 79.49 51.34 86.18 64.15 89.35C65.09 87.48 66.89 84.89 68.40 83.52C56.66 81.07 47.74 75.60 42.41 67.68Z"/></svg>
