<svg xmlns="http://www.w3.org/2000/svg" xmlns:xlink="http://www.w3.org/1999/xlink" width="72.00000000000001" height="106.56000000000002"><path fill="red" stroke="red" d="M22.18 33.70L19.51 35.28C21.96 37.37 25.06 40.39 26.50 42.41L31.46 39.24C30.24 37.73 27.79 35.57 25.70 33.70L36.29 33.70L36.29 28.01L17.93 28.01C18.65 26.71 19.22 25.56 19.80 24.26L13.82 22.54C11.52 28.15 7.42 33.77 2.95 37.37C4.39 38.45 6.55 40.75 7.56 41.98C10.01 39.82 12.38 36.86 14.47 33.70ZM40.54 61.85L40.54 66.67L21.46 66.67L21.46 61.85ZM21.46 76.46L21.46 71.28L40.54 71.28L40.54 76.46ZM22.10 46.15C22.90 44.64 23.54 43.13 24.19 41.54L17.78 39.74C14.47 48.17 8.71 56.23 2.23 61.34C3.67 62.35 6.41 64.58 7.49 65.74C10.15 63.36 12.89 60.41 15.34 57.10L15.34 85.90L21.46 85.90L21.46 81.65L46.73 81.65L46.73 56.66L15.62 56.66C16.78 55.15 17.86 53.57 18.86 51.91L57.60 51.91C56.74 71.86 55.80 79.63 54.00 81.58C53.28 82.44 52.42 82.58 51.12 82.58C49.46 82.58 45.65 82.58 41.54 82.15C42.62 84.02 43.49 86.83 43.56 88.78C47.88 88.99 51.98 88.99 54.29 88.70C56.81 88.42 58.54 87.77 60.12 85.75C62.64 82.73 63.58 73.66 64.58 49.32C64.66 48.31 64.73 46.15 64.73 46.15ZM48.67 28.01C49.25 26.71 49.75 25.42 50.18 24.05L44.06 22.61C42.12 28.58 38.66 34.42 34.49 38.23C35.93 39.17 38.45 41.11 39.53 42.19C41.76 39.96 43.85 37.01 45.72 33.77L53.78 33.77L49.90 36.00C52.27 38.23 55.08 41.40 56.38 43.49L61.56 40.32C60.19 38.45 57.67 35.86 55.44 33.77L68.90 33.77L68.90 28.01Z"/></svg>
