<svg xmlns="http://www.w3.org/2000/svg" xmlns:xlink="http://www.w3.org/1999/xlink" width="72.00000000000001" height="106.56000000000002"><path fill="red" stroke="red" d="M20.38 33.26L18.14 35.42C20.66 37.22 23.76 40.03 25.27 41.83L28.94 38.02C27.72 36.72 25.34 34.85 23.26 33.26L36.50 33.26L36.50 28.01L18.00 28.01C18.65 26.71 19.22 25.56 19.80 24.26L13.90 22.54C11.52 28.15 7.49 33.84 3.02 37.37C4.39 38.45 6.62 40.75 7.63 41.98C10.08 39.60 12.60 36.65 14.90 33.26ZM48.53 53.35L23.18 53.35L23.18 49.39L48.53 49.39ZM23.18 70.92L23.18 66.82L48.53 66.82L48.53 70.92ZM48.53 61.99L23.18 61.99L23.18 58.10L48.53 58.10ZM68.69 28.01L48.17 28.01C48.74 26.71 49.25 25.42 49.68 24.05L43.49 22.61C41.62 28.66 38.09 34.56 33.91 38.38C35.42 39.31 37.94 41.26 39.02 42.34C41.40 39.89 43.63 36.79 45.65 33.26L51.98 33.26L49.25 35.71C50.90 37.08 52.92 39.02 54.36 40.61L48.53 40.61L48.53 44.28L23.18 44.28L23.18 40.54L16.70 40.54L16.70 44.28L7.13 44.28L7.13 49.39L16.70 49.39L16.70 70.92L3.89 70.92L3.89 76.18L23.26 76.18C19.01 79.49 11.95 82.44 5.47 84.31C6.98 85.54 9.43 88.13 10.58 89.42C17.06 87.05 24.98 83.02 29.88 78.70L23.76 76.18L46.01 76.18L42.98 79.49C49.46 82.44 56.30 86.40 60.41 89.21L65.23 84.67C61.20 82.15 54.86 78.91 48.89 76.18L68.33 76.18L68.33 70.92L55.08 70.92L55.08 49.39L64.94 49.39L64.94 44.28L55.08 44.28L55.08 41.40C55.44 41.76 55.73 42.12 55.94 42.41L59.83 38.59C58.54 37.08 56.23 34.99 54.07 33.26L68.69 33.26Z"/></svg>
