<svg xmlns="http://www.w3.org/2000/svg" xmlns:xlink="http://www.w3.org/1999/xlink" width="72.00000000000001" height="106.56000000000002"><path fill="red" stroke="red" d="M12.53 43.70C11.95 39.38 10.37 32.90 8.21 27.86L3.67 29.09C5.62 34.13 7.27 40.75 7.63 45.07ZM8.93 56.74C7.92 62.71 5.33 70.06 2.59 74.02C3.67 76.03 5.11 79.20 5.76 81.36C9.58 76.25 12.24 66.17 13.46 58.25ZM20.16 59.11L20.16 53.28L29.81 53.28L29.81 47.02L20.16 47.02L20.16 23.33L13.97 23.33L13.97 47.02L3.96 47.02L3.96 53.28L13.97 53.28L13.97 89.14L20.16 89.14L20.16 60.26C21.96 63.72 24.91 71.06 26.14 74.52L30.60 69.77C29.59 67.68 24.62 58.90 23.26 56.88ZM25.34 44.86C27.07 40.82 29.30 34.27 31.03 28.87L25.63 27.58C24.70 32.40 22.82 39.46 21.24 43.70ZM39.10 79.34L39.10 63.50L58.90 63.50L58.90 79.34ZM58.90 42.26L58.90 57.53L39.10 57.53L39.10 42.26ZM48.46 36.07C49.46 32.47 50.54 28.08 51.55 23.90L44.78 23.11C44.21 26.93 43.13 32.11 42.12 36.07L32.69 36.07L32.69 89.28L39.10 89.28L39.10 85.54L58.90 85.54L58.90 88.78L65.66 88.78L65.66 36.07Z"/></svg>
