<svg xmlns="http://www.w3.org/2000/svg" xmlns:xlink="http://www.w3.org/1999/xlink" width="72.00000000000001" height="106.56000000000002"><path fill="red" stroke="red" d="M67.10 31.46L53.42 31.46C52.85 29.30 51.41 25.78 50.33 23.11L43.92 24.26C44.78 26.42 45.72 29.30 46.37 31.46L31.61 31.46L31.61 37.58L67.10 37.58ZM38.23 38.81C36.58 46.87 33.12 54.07 28.01 58.61C29.38 59.40 31.82 61.49 32.83 62.50C35.57 59.83 37.94 56.38 39.96 52.34C41.83 54.00 43.70 55.80 44.78 57.17L48.17 52.56C46.94 51.12 44.35 48.96 42.12 47.23C42.98 44.86 43.70 42.41 44.21 39.89ZM24.41 27.50C23.62 32.11 21.74 38.74 20.23 42.77L24.48 44.21C26.21 40.32 28.22 34.13 30.02 29.09ZM12.24 42.70C11.66 38.59 10.15 32.40 8.78 27.50L4.03 28.58C5.40 33.48 6.77 39.82 7.20 43.99ZM8.86 57.10C7.85 62.93 5.18 70.85 2.59 75.02C3.60 76.75 4.97 79.56 5.54 81.58C8.93 76.32 11.74 66.17 13.10 58.61ZM19.51 59.18L19.51 53.28L28.22 53.28L28.22 47.02L19.51 47.02L19.51 23.18L13.68 23.18L13.68 47.02L3.74 47.02L3.74 53.28L13.68 53.28L13.68 89.21L19.51 89.21L19.51 60.48C21.10 64.01 23.69 71.06 24.70 74.59L29.16 70.06C28.22 67.90 23.76 58.97 22.54 57.02ZM69.05 64.30L51.98 64.30L51.98 59.98L51.91 59.98C53.78 58.10 55.37 55.80 56.88 53.35C60.12 56.30 63.36 59.62 65.16 61.92L68.98 57.46C66.96 55.01 62.93 51.34 59.47 48.38C60.62 45.72 61.56 42.91 62.28 39.96L56.38 38.81C54.65 46.08 51.19 52.63 46.30 56.74C47.16 57.53 48.46 58.82 49.54 59.98L45.36 59.98L45.36 64.30L29.30 64.30L29.30 70.56L45.36 70.56L45.36 89.28L51.98 89.28L51.98 70.56L69.05 70.56Z"/></svg>
