<svg xmlns="http://www.w3.org/2000/svg" xmlns:xlink="http://www.w3.org/1999/xlink" width="72.00000000000001" height="106.56000000000002"><path fill="red" stroke="red" d="M5.40 69.48C4.90 75.24 3.96 81.58 2.38 85.90C3.60 86.33 6.12 87.19 7.27 87.70C8.71 83.38 9.94 76.61 10.58 70.34ZM13.10 70.13C13.90 74.95 14.62 81.22 14.76 85.39L19.73 84.17C19.51 79.99 18.65 73.80 17.78 69.05ZM20.81 68.62C22.32 73.01 24.05 78.70 24.77 82.51L29.30 80.78C28.58 77.18 26.78 71.50 25.20 67.10ZM20.09 51.62C20.95 53.64 21.74 55.80 22.54 58.10L12.17 59.47C17.64 52.85 23.11 44.57 27.43 36.50L22.18 33.12C20.66 36.58 18.72 40.10 16.85 43.34L10.51 43.85C14.18 38.45 17.86 31.75 20.66 25.34L15.05 22.90C12.38 30.60 7.78 38.66 6.26 40.75C4.97 42.91 3.74 44.35 2.45 44.71C3.17 46.30 4.10 49.25 4.39 50.47C5.40 49.97 6.91 49.61 13.39 48.82C11.16 52.27 9.22 54.86 8.21 56.02C6.05 58.68 4.54 60.48 2.88 60.91C3.60 62.50 4.54 65.45 4.90 66.74C6.26 65.95 8.64 65.38 24.05 62.93C24.34 64.15 24.62 65.16 24.77 66.17L29.59 64.15C28.94 60.41 26.86 54.43 24.70 49.97ZM60.41 45.22L60.41 67.90C55.44 63.29 52.85 55.44 51.70 45.22ZM36.58 45.22L46.15 45.22C46.22 45.94 46.37 46.58 46.44 47.23C44.93 56.30 41.76 63.58 36.58 68.04ZM66.67 39.10L51.12 39.10C50.76 34.78 50.62 30.02 50.62 25.13L34.99 25.13L34.99 30.89L45.36 30.89C45.36 33.70 45.50 36.50 45.65 39.10L30.53 39.10L30.53 89.14L36.58 89.14L36.58 69.12C37.51 70.63 38.66 73.01 39.02 74.16C43.20 70.49 46.51 65.38 48.67 59.04C50.40 65.23 52.99 70.20 56.74 73.87C57.60 72.36 59.18 69.98 60.41 68.69L60.41 81.43C60.41 82.51 60.05 82.87 58.90 82.87C57.89 82.87 54.22 82.94 50.47 82.73C51.34 84.53 52.27 87.41 52.42 89.21C57.89 89.21 61.42 89.06 63.72 87.98C66.02 86.98 66.67 85.03 66.67 81.50Z"/></svg>
