<svg xmlns="http://www.w3.org/2000/svg" xmlns:xlink="http://www.w3.org/1999/xlink" width="72.00000000000001" height="106.56000000000002"><path fill="red" stroke="red" d="M28.51 64.87C27.86 61.34 26.06 55.44 24.26 50.98L20.16 52.13C20.74 53.93 21.46 55.87 22.03 57.89L12.24 59.47C17.64 52.99 23.04 44.93 27.36 37.01L22.32 34.27C20.95 37.30 19.22 40.39 17.50 43.34L10.51 43.92C14.11 38.59 17.64 32.04 20.30 25.63L14.69 23.33C12.24 30.96 7.78 39.02 6.34 41.11C5.04 43.27 3.82 44.71 2.66 45.00C3.24 46.44 4.18 49.25 4.46 50.47C5.54 49.97 7.13 49.54 14.11 48.74C11.66 52.56 9.43 55.51 8.35 56.81C6.26 59.47 4.68 61.20 3.17 61.56C3.82 63.00 4.75 65.66 4.97 66.82C6.34 65.95 8.64 65.30 23.33 62.50C23.69 63.94 23.98 65.16 24.19 66.24ZM6.62 69.41C5.98 75.24 4.82 81.58 2.88 85.82C4.10 86.18 6.34 86.90 7.27 87.41C8.93 83.02 10.30 76.39 11.16 70.27ZM13.46 70.20C14.26 75.02 15.05 81.29 15.19 85.39L19.66 84.38C19.44 80.21 18.65 74.09 17.78 69.26ZM20.81 68.98C22.32 73.37 24.12 79.06 24.84 82.87L29.02 81.43C28.30 77.69 26.50 72.07 24.84 67.75ZM46.80 51.98L46.80 61.78L39.02 61.78L39.02 51.98ZM60.62 61.78L52.42 61.78L52.42 51.98L60.62 51.98ZM44.14 83.09C39.82 83.09 39.02 82.51 39.02 79.42L39.02 67.61L60.62 67.61L60.62 70.06L66.67 70.06L66.67 46.15L38.74 46.15C43.27 42.55 46.51 37.80 48.31 32.62L59.40 32.62C58.90 37.01 58.32 38.95 57.60 39.74C57.02 40.25 56.52 40.32 55.51 40.32C54.50 40.32 52.20 40.32 49.68 40.03C50.62 41.62 51.12 43.92 51.26 45.58C54.14 45.72 56.95 45.65 58.39 45.50C60.26 45.36 61.49 44.93 62.71 43.70C64.30 42.05 65.09 38.16 65.95 29.23L66.17 26.78L30.17 26.78L30.17 32.62L41.62 32.62C39.31 38.38 34.42 43.27 27.58 45.86C28.66 46.94 30.46 49.10 31.18 50.54C31.75 50.33 32.33 50.04 32.90 49.82L32.90 79.42C32.90 86.98 35.42 88.85 43.63 88.85L59.04 88.85C66.38 88.85 68.33 86.04 69.12 76.39C67.46 76.03 64.87 75.02 63.43 74.02C63.00 81.58 62.35 83.09 58.75 83.09Z"/></svg>
