<svg xmlns="http://www.w3.org/2000/svg" xmlns:xlink="http://www.w3.org/1999/xlink" width="72.00000000000001" height="106.56000000000002"><path fill="red" stroke="red" d="M35.78 37.51L61.27 37.51L61.27 44.42L67.46 44.42L67.46 31.75L52.78 31.75C51.91 29.16 50.47 25.63 49.25 22.90L42.91 24.41C43.78 26.57 44.86 29.38 45.65 31.75L29.81 31.75L29.81 44.42L35.78 44.42ZM35.35 50.69L61.78 50.69L61.78 44.86L35.35 44.86ZM27.22 65.30C26.64 61.70 24.98 55.58 23.40 50.90L18.79 52.13C19.37 53.93 19.94 55.87 20.45 57.89L12.17 59.26C17.35 52.78 22.46 44.71 26.57 36.79L21.02 33.91C19.80 37.01 18.14 40.18 16.56 43.13L10.51 43.78C13.90 38.45 17.28 31.68 19.73 25.34L13.75 22.90C11.59 30.60 7.42 38.74 6.05 40.75C4.75 42.98 3.67 44.42 2.45 44.71C3.17 46.30 4.03 49.25 4.39 50.40C5.40 49.90 6.91 49.46 13.32 48.60C11.09 52.27 9.00 55.15 8.06 56.38C6.05 59.04 4.54 60.77 3.02 61.13C3.67 62.64 4.61 65.52 4.90 66.74C6.26 65.95 8.35 65.30 21.53 62.78C21.82 64.37 22.10 65.74 22.25 66.89ZM5.47 69.41C4.90 75.31 3.96 81.72 2.30 86.04C3.60 86.40 5.98 87.19 7.13 87.77C8.57 83.30 9.79 76.54 10.51 70.27ZM12.60 70.27C13.39 75.17 14.18 81.50 14.33 85.61L19.30 84.46C19.01 80.28 18.22 74.09 17.28 69.19ZM19.58 68.83C21.02 72.65 22.61 77.54 23.26 80.78L27.94 79.13C27.22 75.96 25.49 71.21 23.98 67.46ZM36.07 67.82C33.77 72.43 30.31 77.76 27.14 81.36C28.51 82.22 31.18 84.02 32.26 85.10C35.42 81.14 39.46 74.95 42.12 69.62ZM67.90 63.50L67.90 57.67L28.51 57.67L28.51 63.50L45.07 63.50L45.07 88.99L51.62 88.99L51.62 63.50ZM54.86 69.77C57.82 74.45 61.42 80.71 63.00 84.46L68.83 81.86C67.10 78.19 63.36 72.14 60.34 67.68Z"/></svg>
