<svg xmlns="http://www.w3.org/2000/svg" xmlns:xlink="http://www.w3.org/1999/xlink" width="72.00000000000001" height="106.56000000000002"><path fill="red" stroke="red" d="M29.02 64.30C28.37 60.55 26.21 54.65 23.98 50.04L19.51 51.62C20.45 53.71 21.38 56.09 22.10 58.32L11.95 59.69C17.50 52.99 23.04 44.78 27.36 36.58L22.25 33.41C20.74 36.79 18.86 40.25 16.99 43.49L10.44 43.99C14.18 38.66 17.93 31.90 20.81 25.49L15.26 23.18C12.53 30.89 7.85 38.88 6.34 41.04C4.90 43.13 3.67 44.57 2.52 44.93C3.17 46.44 4.03 49.25 4.32 50.47C5.40 49.97 6.98 49.61 13.68 48.82C11.38 52.34 9.29 55.08 8.21 56.30C6.12 58.97 4.54 60.77 3.02 61.13C3.60 62.64 4.54 65.52 4.82 66.74C6.26 65.95 8.50 65.38 23.54 63.07C23.83 64.22 24.05 65.23 24.19 66.17ZM5.40 69.41C4.90 75.17 3.89 81.58 2.30 85.82C3.60 86.18 6.05 87.05 7.20 87.70C8.57 83.23 9.86 76.54 10.51 70.34ZM13.10 70.13C13.90 74.95 14.62 81.22 14.76 85.32L19.73 84.10C19.51 79.99 18.65 73.87 17.78 69.05ZM20.88 68.54C22.39 72.94 24.12 78.62 24.77 82.44L29.38 80.78C28.66 77.11 26.86 71.50 25.20 67.18ZM61.42 80.21L56.16 80.21L56.16 47.59L61.42 47.59ZM35.86 47.59L40.82 47.59L40.82 80.21L35.86 80.21ZM51.34 54.86L45.65 54.86L45.65 47.59L51.34 47.59ZM45.65 72.94L51.34 72.94L51.34 80.21L45.65 80.21ZM51.34 67.54L45.65 67.54L45.65 60.19L51.34 60.19ZM68.69 32.69L68.69 26.78L28.51 26.78L28.51 32.69L44.50 32.69C43.99 35.78 43.42 39.02 42.91 41.83L30.38 41.83L30.38 89.14L35.86 89.14L35.86 86.04L61.42 86.04L61.42 88.85L67.10 88.85L67.10 41.83L49.61 41.83C50.18 39.10 50.83 35.78 51.41 32.69Z"/></svg>
