<svg xmlns="http://www.w3.org/2000/svg" xmlns:xlink="http://www.w3.org/1999/xlink" width="72.00000000000001" height="106.56000000000002"><path fill="red" stroke="red" d="M5.98 69.41C5.40 75.38 4.39 81.94 2.74 86.40C4.10 86.83 6.62 87.55 7.78 88.20C9.29 83.66 10.51 76.75 11.23 70.34ZM13.32 70.20C14.11 75.24 14.76 82.08 14.83 86.54L19.73 85.61C19.66 81.14 18.86 74.59 18.00 69.34ZM20.23 68.69C21.46 73.01 22.75 78.70 23.26 82.44L27.94 81.00C27.36 77.33 25.92 71.86 24.55 67.54ZM19.30 51.84C19.94 53.86 20.59 56.09 21.10 58.39L12.38 59.47C17.71 52.78 22.90 44.42 27.00 36.29L21.74 33.19C20.30 36.58 18.50 40.10 16.70 43.27L10.73 43.78C14.18 38.45 17.50 31.82 20.09 25.49L14.33 23.18C12.02 30.82 7.63 38.95 6.34 41.04C5.04 43.13 3.96 44.57 2.74 44.86C3.38 46.37 4.32 49.18 4.61 50.40C5.62 49.97 7.20 49.61 13.32 48.89C11.16 52.34 9.36 55.01 8.35 56.16C6.26 58.90 4.68 60.70 3.17 61.06C3.89 62.64 4.82 65.52 5.11 66.74C6.55 66.02 8.78 65.45 22.25 63.43C22.54 64.80 22.75 66.17 22.90 67.25L27.94 65.66C27.36 61.99 25.63 55.51 23.98 50.62ZM37.22 76.54C37.73 74.66 38.16 72.58 38.59 70.63L46.37 70.63L46.37 76.54ZM37.15 51.62L59.26 51.62L59.26 57.10L37.15 57.10ZM52.56 70.63L67.32 70.63L67.32 65.74L52.56 65.74L52.56 61.92L65.45 61.92L65.45 46.80L31.18 46.80L31.18 61.92L46.37 61.92L46.37 65.74L28.44 65.74L28.44 70.63L32.69 70.63C31.90 74.45 30.74 78.77 29.81 81.79L46.37 81.79L46.37 89.21L52.56 89.21L52.56 81.79L68.90 81.79L68.90 76.54L52.56 76.54ZM57.24 33.12L57.24 38.45L44.42 38.45C44.86 36.86 45.29 34.99 45.79 33.12ZM63.29 38.45L63.29 28.08L46.94 28.08C47.30 26.50 47.66 24.98 47.95 23.54L41.83 22.90C41.47 24.55 41.18 26.28 40.75 28.08L30.74 28.08L30.74 33.12L39.60 33.12C39.10 34.99 38.59 36.86 38.16 38.45L28.08 38.45L28.08 43.70L68.83 43.70L68.83 38.45Z"/></svg>
