<svg xmlns="http://www.w3.org/2000/svg" xmlns:xlink="http://www.w3.org/1999/xlink" width="72.00000000000001" height="106.56000000000002"><path fill="red" stroke="red" d="M26.64 65.88C26.14 62.14 24.48 55.66 22.82 50.76L18.43 51.84C19.15 53.93 19.80 56.23 20.38 58.54L12.02 59.54C17.14 52.92 22.10 44.78 26.06 36.72L20.95 33.84C19.66 37.08 18.00 40.32 16.42 43.34L10.51 43.78C13.75 38.45 16.99 31.75 19.44 25.42L13.97 23.26C11.81 30.89 7.56 39.17 6.26 41.33C4.97 43.42 3.96 44.86 2.74 45.14C3.38 46.66 4.25 49.32 4.54 50.47C5.54 50.04 7.13 49.61 13.18 48.89C11.02 52.49 9.14 55.22 8.21 56.45C6.19 59.18 4.68 60.91 3.17 61.27C3.89 62.86 4.75 65.52 5.04 66.74C6.41 66.02 8.57 65.45 21.38 63.58C21.67 64.87 21.89 66.24 22.03 67.32ZM5.90 69.41C5.26 75.67 4.32 82.37 2.66 86.83C3.96 87.19 6.34 87.98 7.42 88.56C8.93 83.95 10.22 76.90 10.87 70.27ZM12.67 70.06C13.46 75.24 14.11 81.86 14.18 86.33L18.72 85.46C18.50 81.07 17.78 74.52 16.92 69.34ZM18.86 68.76C20.02 72.43 21.10 77.04 21.60 80.14L25.78 78.91C25.27 75.89 24.05 71.28 22.82 67.75ZM50.40 40.18L59.98 40.18L59.98 43.70L50.40 43.70ZM50.40 32.40L59.98 32.40L59.98 36.07L50.40 36.07ZM49.97 66.02L49.97 48.31L65.45 48.31L65.45 40.39L68.90 40.39L68.90 35.57L65.45 35.57L65.45 27.79L50.40 27.79L50.40 23.04L44.50 23.04L44.50 27.79L29.81 27.79L29.81 32.40L44.50 32.40L44.50 36.07L27.22 36.07L27.22 40.18L44.50 40.18L44.50 43.70L29.52 43.70L29.52 48.31L44.86 48.31L44.86 66.02L33.84 66.02L33.84 64.22L33.84 63.29L42.05 63.29L42.05 50.47L38.02 50.47L38.02 59.04L33.84 59.04L33.84 50.33L28.73 50.33L28.73 64.15C28.73 71.86 28.08 79.99 23.33 86.54C24.62 87.19 26.64 88.85 27.58 90.00C30.38 86.33 31.90 82.15 32.76 77.76L38.02 77.76L38.02 88.70L41.98 88.70L41.98 73.66L33.41 73.66C33.48 72.65 33.62 71.71 33.62 70.70L44.86 70.70L44.86 89.21L49.97 89.21L49.97 70.70L61.27 70.70L61.27 73.66L52.78 73.66L52.78 88.70L56.95 88.70L56.95 77.83L61.27 77.83L61.27 88.99L66.46 88.99L66.46 50.11L61.27 50.11L61.27 59.04L56.95 59.04L56.95 50.47L52.78 50.47L52.78 63.22L61.27 63.22L61.27 66.02Z"/></svg>
