<svg xmlns="http://www.w3.org/2000/svg" xmlns:xlink="http://www.w3.org/1999/xlink" width="72.00000000000001" height="106.56000000000002"><path fill="red" stroke="red" d="M25.13 66.10C24.62 62.28 22.97 55.87 21.38 50.83L17.21 51.84C17.93 54.00 18.58 56.38 19.08 58.75L11.66 59.69C16.49 52.92 21.24 44.57 24.84 36.43L19.87 33.62C18.65 36.94 17.14 40.32 15.55 43.49L10.15 43.92C13.25 38.38 16.20 31.61 18.36 25.20L13.03 23.11C11.16 30.89 7.34 39.17 6.12 41.33C4.97 43.56 3.96 45.00 2.81 45.36C3.46 46.73 4.25 49.32 4.54 50.47C5.54 50.04 6.98 49.61 12.67 48.96C10.66 52.63 8.86 55.37 8.06 56.59C6.12 59.33 4.68 61.20 3.31 61.49C3.96 62.93 4.75 65.59 5.04 66.74C6.34 66.10 8.42 65.52 20.16 63.79C20.38 65.09 20.59 66.31 20.74 67.39ZM5.90 69.41C5.26 75.60 4.25 82.44 2.59 86.98C3.96 87.34 6.34 88.13 7.42 88.70C8.93 84.10 10.22 76.90 10.87 70.27ZM12.46 69.98C13.25 75.24 13.90 81.86 13.90 86.40L18.72 85.54C18.58 81.07 17.86 74.45 17.06 69.34ZM18.72 68.83C19.87 72.43 21.10 77.11 21.53 80.28L25.92 78.91C25.34 75.89 24.05 71.21 22.90 67.68ZM61.27 43.42C60.55 50.33 59.47 56.81 57.89 62.64C56.38 57.31 55.37 51.55 54.50 45.58C54.79 44.93 55.01 44.21 55.22 43.42ZM41.11 38.59L31.32 38.59L31.32 33.84L41.11 33.84ZM41.11 47.88L31.32 47.88L31.32 43.06L41.11 43.06ZM69.05 43.42L69.05 37.44L56.66 37.44C57.67 33.19 58.39 28.66 58.97 23.98L53.28 23.18C52.20 33.55 50.40 43.34 46.66 50.33L46.66 29.09L38.38 29.09C38.81 27.36 39.46 25.49 40.03 23.62L33.62 23.11C33.41 24.77 33.05 27.07 32.62 29.09L26.06 29.09L26.06 52.63L45.43 52.63C46.51 53.93 48.17 56.74 48.74 57.96C49.68 56.66 50.54 55.22 51.34 53.71C52.27 59.69 53.50 65.38 55.15 70.56C52.70 76.25 49.46 80.86 45.36 84.10C46.01 81.50 46.51 77.26 47.02 70.27C47.09 69.55 47.09 68.04 47.09 68.04L36.00 68.04C36.14 66.67 36.22 65.23 36.29 63.79L48.31 63.79L48.31 58.46L40.82 58.46C40.10 56.74 39.10 54.72 38.23 52.99L32.76 54.14C33.41 55.44 34.06 57.02 34.63 58.46L25.34 58.46L25.34 63.79L30.74 63.79C30.31 73.66 28.94 80.78 22.03 85.10C23.26 86.04 24.98 87.98 25.56 89.28C31.46 85.54 34.06 80.06 35.28 73.01L41.33 73.01C40.75 79.70 40.18 82.44 39.46 83.30C38.95 83.88 38.52 83.95 37.73 83.95C36.94 83.95 35.21 83.95 33.19 83.74C33.98 85.10 34.49 87.19 34.56 88.70C36.86 88.85 39.17 88.78 40.39 88.63C41.98 88.49 43.06 88.06 44.06 86.90C44.42 86.47 44.78 85.97 45.07 85.18C46.30 86.33 47.95 87.98 48.82 89.21C52.42 86.33 55.44 82.44 57.82 77.83C59.76 82.30 62.21 86.26 65.09 89.21C66.10 87.55 68.04 85.32 69.48 84.24C65.88 81.07 63.00 76.46 60.70 70.92C63.58 63.07 65.30 53.57 66.24 43.42Z"/></svg>
