<svg xmlns="http://www.w3.org/2000/svg" xmlns:xlink="http://www.w3.org/1999/xlink" width="72.00000000000001" height="106.56000000000002"><path fill="red" stroke="red" d="M33.05 29.74C28.15 35.42 21.10 40.82 18.79 42.19C16.70 43.70 15.05 44.64 13.54 44.86C14.26 46.58 15.12 49.61 15.48 50.90C17.78 50.04 21.17 49.75 50.47 47.66C52.49 49.46 54.22 51.26 55.51 52.70L60.62 49.54C57.24 46.01 50.54 40.25 45.22 36.22L40.18 38.88C41.76 40.10 43.34 41.40 45.07 42.84L25.49 44.06C30.02 41.04 34.49 37.37 38.38 33.48ZM22.54 23.11C18.50 29.30 10.73 34.34 2.95 37.44C4.32 38.59 6.62 41.18 7.49 42.41C15.55 38.66 24.12 32.54 28.80 25.13ZM32.90 54.43L6.48 54.43L6.48 60.26L26.57 60.26L26.57 70.85C18.07 73.73 9.58 76.61 3.82 78.34L6.48 83.74C12.17 81.65 19.51 78.84 26.57 76.10L26.57 82.30C26.57 83.16 26.28 83.45 25.27 83.45C24.41 83.52 21.17 83.52 17.78 83.38C18.58 84.89 19.44 87.19 19.73 88.78C24.55 88.78 27.94 88.78 30.10 87.84C32.26 86.98 32.90 85.39 32.90 82.37ZM21.60 67.90C19.58 65.81 15.62 62.93 12.31 61.13L8.14 64.30C11.38 66.17 15.41 69.41 17.42 71.57ZM64.94 54.43L37.22 54.43L37.22 60.26L58.54 60.26L58.54 70.56C49.75 73.58 40.90 76.61 34.99 78.48L37.73 83.74C43.63 81.58 51.19 78.62 58.54 75.74L58.54 82.08C58.54 82.94 58.25 83.23 57.24 83.30C56.23 83.38 52.85 83.38 49.39 83.23C50.11 84.74 50.98 87.12 51.26 88.78C56.23 88.78 59.76 88.70 61.99 87.77C64.30 86.90 64.94 85.25 64.94 82.15ZM52.34 68.69C50.33 66.60 46.51 63.50 43.27 61.42L39.02 64.37C42.12 66.46 46.01 69.84 47.81 72.07ZM32.90 23.40L32.90 28.44L45.29 28.44C50.11 34.34 57.82 39.74 65.52 43.06C66.38 41.33 68.33 38.81 69.70 37.51C61.63 34.85 53.28 29.45 49.18 23.40Z"/></svg>
