<svg xmlns="http://www.w3.org/2000/svg" xmlns:xlink="http://www.w3.org/1999/xlink" width="72.00000000000001" height="106.56000000000002"><path fill="red" stroke="red" d="M37.94 37.44C40.97 38.95 44.21 40.82 47.45 42.77C43.78 45.36 39.67 47.30 35.64 48.67C36.86 49.90 38.52 52.06 39.38 53.42C44.06 51.70 48.67 49.18 52.78 46.08C56.95 48.82 60.62 51.48 63.07 53.64L67.75 49.03C65.30 46.94 61.63 44.50 57.60 41.90C61.42 38.16 64.44 33.77 66.46 28.58L62.28 26.57L61.27 26.86L39.82 26.86L39.82 32.26L57.82 32.26C56.30 34.56 54.50 36.86 52.34 38.81C48.89 36.86 45.43 34.99 42.34 33.48ZM15.98 47.59L15.98 43.78L28.37 43.78L28.37 46.44ZM28.37 29.23L28.37 32.54L15.98 32.54L15.98 29.23ZM15.98 36.58L28.37 36.58L28.37 39.82L15.98 39.82ZM28.37 54.50L34.34 54.50L34.34 29.23L39.02 29.23L39.02 24.34L4.46 24.34L4.46 29.23L10.01 29.23L10.01 48.10C7.49 48.31 5.11 48.53 3.10 48.67L3.89 53.57C10.66 52.92 19.51 52.06 28.37 51.05ZM17.42 64.15C15.12 70.92 10.22 76.10 4.61 79.27C5.40 80.78 6.70 84.02 6.98 85.54C11.23 82.87 14.90 79.34 17.78 74.95C20.66 77.90 23.54 81.14 25.13 83.38L29.16 79.56C27.29 77.04 23.69 73.37 20.45 70.42C21.17 68.83 21.82 67.32 22.39 65.59ZM56.09 53.28C44.35 55.44 24.05 57.02 8.21 57.10C9.36 58.46 11.09 61.56 11.88 63.07C18.14 62.78 25.42 62.35 32.62 61.63L32.62 89.14L39.31 89.14L39.31 61.06C47.38 60.12 55.15 58.97 61.20 57.74ZM53.86 61.34C51.62 68.90 46.80 74.95 41.11 78.55C41.83 79.99 43.20 83.30 43.56 84.74C47.74 81.94 51.41 77.98 54.29 73.22C56.88 77.47 60.48 81.43 64.15 83.74C65.09 82.30 66.96 80.14 68.33 79.06C63.86 76.75 59.47 72.36 57.02 67.90C57.74 66.24 58.32 64.51 58.82 62.71Z"/></svg>
