<svg xmlns="http://www.w3.org/2000/svg" xmlns:xlink="http://www.w3.org/1999/xlink" width="72.00000000000001" height="106.56000000000002"><path fill="red" stroke="red" d="M54.29 65.30L39.10 65.30L39.10 62.14L54.29 62.14ZM39.10 55.01L54.29 55.01L54.29 58.03L39.10 58.03ZM55.80 33.77C54.50 36.00 52.56 37.87 50.33 39.53C47.81 37.80 45.72 35.78 44.35 33.77ZM27.14 42.05L12.53 42.05C12.96 40.18 13.25 38.23 13.39 36.50L27.14 36.50ZM59.98 51.12L39.10 51.12L39.10 50.18C43.13 49.03 46.87 47.59 50.18 45.72C54.50 48.38 59.76 50.54 65.81 51.70C66.53 50.18 68.18 47.81 69.34 46.51C63.94 45.72 59.18 44.21 55.30 42.34C58.10 40.03 60.41 37.15 61.99 33.77L67.61 33.77L67.61 28.94L47.02 28.94C47.88 27.50 48.60 26.06 49.25 24.48L43.85 23.18C41.69 28.37 37.66 33.19 32.90 36.36L32.90 32.90L13.46 32.90L13.46 31.46C20.59 30.96 28.51 29.66 33.77 27.58L29.81 23.40C24.84 25.34 15.77 26.71 8.14 27.43L8.14 33.41C8.14 38.23 7.27 44.86 2.59 49.90C3.82 50.47 6.26 52.13 7.13 53.06C9.22 50.83 10.58 48.31 11.59 45.58L32.90 45.58L32.90 36.50C34.27 37.37 36.36 38.95 37.37 39.89C38.38 39.02 39.46 38.09 40.54 37.15C41.83 38.88 43.49 40.68 45.36 42.26C42.48 43.63 39.17 44.64 35.71 45.43C36.29 46.01 37.01 47.02 37.58 48.02L32.33 48.02L32.33 51.12L12.67 51.12L12.67 55.01L32.33 55.01L32.33 58.03L4.18 58.03L4.18 62.14L32.33 62.14L32.33 65.30L12.24 65.30L12.24 69.19L32.33 69.19L32.33 72.07L10.22 72.07L10.22 76.03L32.33 76.03L32.33 79.13L5.62 79.13L5.62 83.45L32.33 83.45L32.33 89.28L39.10 89.28L39.10 83.45L66.53 83.45L66.53 79.13L39.10 79.13L39.10 76.03L61.99 76.03L61.99 72.07L39.10 72.07L39.10 69.19L59.98 69.19L59.98 62.14L68.04 62.14L68.04 58.03L59.98 58.03Z"/></svg>
