<svg xmlns="http://www.w3.org/2000/svg" xmlns:xlink="http://www.w3.org/1999/xlink" width="72.00000000000001" height="106.56000000000002"><path fill="red" stroke="red" d="M12.31 43.49C14.47 46.15 16.78 49.39 17.93 51.48L20.88 49.61L20.88 56.74C17.50 58.97 14.40 61.06 12.02 62.35C12.24 58.32 12.31 54.43 12.31 51.12ZM20.88 31.82L20.88 47.02C19.37 44.86 17.42 42.41 15.62 40.46L12.31 42.41L12.31 31.82ZM26.42 25.70L6.84 25.70L6.84 51.12C6.84 61.49 6.48 75.67 2.23 85.61C3.53 86.26 5.83 88.20 6.70 89.42C10.08 81.86 11.45 71.86 11.95 62.64L14.47 68.04C16.49 66.24 18.72 64.37 20.88 62.50L20.88 81.79C20.88 82.80 20.52 83.09 19.66 83.16C18.72 83.16 15.84 83.23 12.82 83.09C13.54 84.60 14.33 87.26 14.47 88.78C19.08 88.78 22.03 88.63 23.90 87.55C25.78 86.69 26.42 84.89 26.42 81.86ZM35.86 59.90C36.07 58.32 36.29 56.66 36.50 54.94L44.93 54.94C44.86 56.59 44.71 58.25 44.50 59.90ZM51.19 44.78L59.90 44.78L59.90 49.61L51.19 49.61ZM61.34 65.23C61.06 68.83 60.77 70.49 60.26 71.06C59.90 71.50 59.62 71.64 58.97 71.64C58.32 71.64 57.10 71.64 55.58 71.42C56.23 72.65 56.74 74.52 56.81 75.96C58.97 76.03 60.98 76.03 62.14 75.89C63.43 75.74 64.66 75.31 65.52 74.23C66.60 72.86 67.18 69.55 67.54 61.92C67.61 61.27 67.61 59.90 67.61 59.90L50.69 59.90C50.90 58.25 51.05 56.59 51.12 54.94L65.95 54.94L65.95 39.46L51.19 39.46L51.19 34.70L68.04 34.70L68.04 29.02L51.19 29.02L51.19 23.18L45.00 23.18L45.00 29.02L28.15 29.02L28.15 34.70L45.00 34.70L45.00 39.46L30.53 39.46L30.53 44.78L45.00 44.78L45.00 49.61L31.18 49.61C30.74 54.72 29.88 61.13 29.09 65.23L43.42 65.23C41.47 72.65 36.86 79.70 26.35 84.38C27.86 85.54 29.74 87.98 30.60 89.28C39.67 84.74 44.78 78.70 47.66 72.00C51.05 80.35 56.52 86.18 65.16 89.14C66.02 87.41 67.75 84.89 69.12 83.59C59.33 81.07 53.64 74.38 50.83 65.23Z"/></svg>
