<svg xmlns="http://www.w3.org/2000/svg" xmlns:xlink="http://www.w3.org/1999/xlink" width="72.00000000000001" height="106.56000000000002"><path fill="red" stroke="red" d="M67.97 30.82L52.06 30.82C51.19 28.44 49.68 25.34 48.38 22.97L42.26 24.70C43.20 26.50 44.21 28.80 44.93 30.82L27.29 30.82L27.29 37.01L67.97 37.01ZM60.34 50.47C59.69 53.57 58.90 56.52 57.82 59.33C56.81 57.17 54.65 54.22 52.70 52.13L49.25 54.72C51.19 57.02 53.35 60.34 54.29 62.50L57.67 59.76C56.45 62.93 55.15 65.88 53.57 68.62C51.19 64.66 49.18 60.34 47.66 55.94C48.53 54.14 49.32 52.34 49.97 50.47ZM12.53 44.35C14.26 46.44 15.98 48.96 16.92 50.54L19.44 48.89L19.44 56.74C16.78 58.75 14.33 60.62 12.38 61.85C12.46 59.11 12.53 56.38 12.53 53.93ZM19.44 31.82L19.44 45.79C18.14 43.99 16.42 42.05 14.90 40.39L12.53 41.90L12.53 31.82ZM63.14 44.86L62.14 45.07L51.91 45.07C52.56 43.06 53.06 41.04 53.57 39.17L47.81 37.94C46.01 46.15 42.41 56.30 37.08 62.86L37.08 50.11C38.81 46.51 40.18 42.77 41.33 39.24L35.42 37.58C33.62 44.64 29.88 53.50 25.13 59.04L25.13 25.70L6.98 25.70L6.98 53.93C6.98 63.72 6.62 76.68 2.74 85.61C4.03 86.26 6.34 88.27 7.27 89.50C10.51 82.44 11.74 72.86 12.24 64.08L13.97 67.82C15.84 66.10 17.57 64.44 19.44 62.71L19.44 81.94C19.44 82.80 19.15 83.09 18.36 83.16C17.50 83.16 15.05 83.23 12.38 83.09C13.18 84.60 13.90 87.41 14.11 88.99C18.36 88.99 20.95 88.85 22.75 87.77C24.55 86.76 25.13 84.96 25.13 81.94L25.13 59.40C26.06 60.77 27.29 63.22 27.86 64.58C29.16 63.22 30.31 61.70 31.46 60.12L31.46 89.14L37.08 89.14L37.08 63.14C38.23 64.08 39.89 65.88 40.75 67.03C42.12 65.45 43.34 63.72 44.57 61.78C46.08 65.95 48.10 69.98 50.26 73.58C46.73 78.41 42.48 82.08 37.94 84.60C39.17 85.75 40.90 87.77 41.76 89.28C46.15 86.54 50.18 83.02 53.71 78.70C57.02 83.02 60.84 86.54 65.09 89.06C66.10 87.48 67.97 85.10 69.48 84.02C64.87 81.72 60.70 78.12 57.24 73.66C61.78 66.46 65.09 57.31 66.89 46.15Z"/></svg>
