<svg xmlns="http://www.w3.org/2000/svg" xmlns:xlink="http://www.w3.org/1999/xlink" width="72.00000000000001" height="106.56000000000002"><path fill="red" stroke="red" d="M58.46 56.23L13.32 56.23L13.32 68.76C13.32 74.02 12.82 79.99 7.99 84.46C9.29 85.32 11.88 88.06 12.74 89.50C18.79 84.10 20.02 75.60 20.02 68.90L20.02 61.56L52.06 61.56L52.06 71.64L48.82 72.36L50.40 69.12C44.06 67.10 32.18 64.15 23.69 62.57L21.38 66.67C29.09 68.33 39.24 70.99 45.72 73.01C35.71 75.02 25.99 77.04 19.66 78.12L21.38 84.53C29.95 82.37 41.18 79.34 52.06 76.46L52.06 82.22C52.06 83.23 51.70 83.52 50.62 83.59C49.61 83.59 45.65 83.59 41.83 83.52C42.62 85.03 43.49 87.34 43.78 88.92C49.39 88.99 52.99 88.92 55.37 87.98C57.74 87.19 58.46 85.54 58.46 82.37ZM57.96 31.32C56.38 34.63 54.07 37.66 51.48 40.25C48.82 37.66 46.58 34.63 44.93 31.32ZM12.60 45.22L20.45 45.22L20.45 49.03L12.60 49.03ZM20.45 30.24L20.45 33.84L12.60 33.84L12.60 30.24ZM28.66 41.54L12.60 41.54L12.60 37.51L28.66 37.51ZM61.92 25.85L60.84 26.06L37.44 26.06L37.44 31.32L39.10 31.32C41.11 36.07 43.78 40.32 47.09 43.99C43.70 46.51 40.03 48.38 36.14 49.75L36.14 49.03L26.14 49.03L26.14 45.22L34.78 45.22L34.78 33.84L26.14 33.84L26.14 30.24L35.06 30.24L35.06 25.70L6.55 25.70L6.55 53.86L36.14 53.86L36.14 50.11C37.22 51.34 38.59 53.21 39.24 54.58C43.56 52.92 47.74 50.83 51.41 47.95C55.22 51.12 59.69 53.50 64.80 55.15C65.66 53.50 67.32 51.12 68.76 49.82C63.94 48.60 59.62 46.66 56.02 43.99C60.34 39.67 63.79 34.13 65.95 27.36Z"/></svg>
