<svg xmlns="http://www.w3.org/2000/svg" xmlns:xlink="http://www.w3.org/1999/xlink" width="72.00000000000001" height="106.56000000000002"><path fill="red" stroke="red" d="M14.47 41.26C15.91 44.42 17.57 48.67 18.36 51.41L22.61 49.54C21.82 46.94 20.09 42.77 18.50 39.67ZM13.54 37.15L24.19 37.15L24.19 52.63C20.52 53.14 16.85 53.64 13.54 54.14ZM34.20 51.19L30.02 51.84L30.02 31.82L20.23 31.82C21.10 29.52 22.03 26.71 22.97 24.12L16.20 22.97C15.84 25.56 15.05 29.02 14.18 31.82L7.70 31.82L7.70 54.94C5.90 55.15 4.18 55.37 2.59 55.58L3.38 61.78L7.70 61.06C7.56 69.48 6.91 79.34 2.45 86.33C3.89 86.98 6.48 88.63 7.56 89.71C12.53 81.86 13.46 69.62 13.54 60.12L24.19 58.46L24.19 81.79C24.19 82.66 23.90 82.87 23.04 82.94C22.18 82.94 19.66 83.02 16.85 82.87C17.64 84.38 18.58 87.05 18.72 88.56C23.04 88.56 25.70 88.49 27.65 87.41C29.45 86.47 30.02 84.74 30.02 81.79L30.02 57.53L34.56 56.74ZM23.26 72.14C22.25 69.34 20.09 64.87 18.22 61.56L14.26 63.22C16.06 66.67 18.07 71.14 19.01 74.02ZM48.96 81.94C45.65 81.94 45.14 81.43 45.14 78.62L45.14 67.75C52.34 64.58 60.26 60.62 65.95 56.45L60.70 51.77C56.95 55.08 51.12 58.75 45.14 61.78L45.14 45.72L39.53 45.72L39.53 39.82L61.13 39.82L61.13 47.09L67.46 47.09L67.46 34.06L54.72 34.06L55.15 33.91C54.14 30.96 51.98 26.42 50.11 22.97L44.14 24.48C45.65 27.36 47.30 31.18 48.31 34.06L33.48 34.06L33.48 47.16L38.88 47.16L38.88 78.62C38.88 85.82 40.82 87.84 48.24 87.84L60.34 87.84C66.82 87.84 68.62 84.89 69.41 74.81C67.68 74.38 65.09 73.30 63.65 72.29C63.29 80.35 62.78 81.94 59.83 81.94Z"/></svg>
