<svg xmlns="http://www.w3.org/2000/svg" xmlns:xlink="http://www.w3.org/1999/xlink" width="72.00000000000001" height="106.56000000000002"><path fill="red" stroke="red" d="M67.25 28.37L54.65 28.37L54.65 33.62L61.92 33.62L61.92 39.17L54.94 39.17L54.94 44.28L61.92 44.28L61.92 50.62L54.58 50.62L54.58 55.80L67.25 55.80ZM43.49 50.62L36.79 50.62L36.79 44.28L43.27 44.28L43.27 39.17L36.79 39.17L36.79 33.26C39.53 32.11 42.70 30.82 45.36 29.09L41.62 25.20C38.95 26.78 34.56 29.23 31.54 30.53L31.54 55.80L43.49 55.80ZM13.46 41.33C14.76 44.50 16.42 48.60 17.14 51.34L21.17 49.61C20.52 47.09 18.86 42.98 17.35 39.82ZM58.39 65.74C56.09 69.41 53.06 72.50 49.46 75.02C46.01 72.36 43.20 69.26 41.18 65.74ZM12.53 37.15L22.39 37.15L22.39 53.42C19.01 53.78 15.62 54.14 12.53 54.50ZM62.86 60.05L61.70 60.34L52.06 60.34L52.06 23.33L46.37 23.33L46.37 60.34L31.10 60.34L31.10 65.74L38.88 65.74L35.28 66.96C37.51 71.21 40.54 75.02 44.14 78.26C39.17 80.86 33.55 82.58 27.72 83.66C27.79 83.23 27.79 82.73 27.79 82.15L27.79 58.10L30.24 57.74L30.02 52.56L27.79 52.85L27.79 31.82L18.50 31.82C19.37 29.52 20.30 26.71 21.10 24.12L14.98 22.97C14.62 25.56 13.90 29.02 13.18 31.82L7.27 31.82L7.27 55.08L2.52 55.51L3.17 61.13L7.27 60.62C7.20 69.12 6.48 79.13 2.09 86.26C3.46 86.83 5.76 88.34 6.70 89.35C11.52 81.43 12.46 69.34 12.53 59.90L22.39 58.75L22.39 82.08C22.39 83.02 22.03 83.23 21.17 83.30C20.45 83.30 17.78 83.38 14.98 83.23C15.84 84.67 16.63 87.05 16.78 88.49C20.88 88.56 23.62 88.49 25.42 87.55C26.78 86.76 27.43 85.75 27.65 84.02C28.80 85.46 29.95 87.77 30.53 89.28C37.22 87.70 43.56 85.46 49.10 82.15C53.93 85.39 59.47 87.77 65.66 89.35C66.53 87.55 68.33 85.10 69.70 83.74C64.15 82.66 59.04 80.86 54.58 78.41C59.90 74.23 64.15 68.76 66.74 61.78ZM21.46 72.29C20.59 69.48 18.72 65.02 17.06 61.70L13.25 63.14C14.76 66.60 16.63 71.06 17.35 74.02Z"/></svg>
