<svg xmlns="http://www.w3.org/2000/svg" xmlns:xlink="http://www.w3.org/1999/xlink" width="72.00000000000001" height="106.56000000000002"><path fill="red" stroke="red" d="M45.36 45.72L52.06 45.72L52.06 36.94L67.46 36.94L67.46 30.46L52.06 30.46L52.06 23.11L45.36 23.11L45.36 30.46L37.51 30.46L37.51 36.94L45.36 36.94ZM20.38 45.72L27.00 45.72L27.00 37.01L34.70 37.01L34.70 30.53L27.00 30.53L27.00 23.11L20.38 23.11L20.38 30.53L4.75 30.53L4.75 37.01L20.38 37.01ZM49.39 47.30C46.66 56.52 42.19 63.58 36.07 68.98C29.81 63.43 25.42 56.38 22.61 47.74L16.20 49.46C19.51 59.18 24.12 67.03 30.31 73.22C23.11 77.69 14.18 80.71 3.38 82.66C4.61 84.38 6.55 87.62 7.27 89.35C18.58 86.83 28.15 83.23 35.86 77.90C43.20 83.38 52.42 86.98 64.08 88.99C64.94 87.05 66.89 84.10 68.40 82.44C57.53 80.93 48.74 77.76 41.76 73.30C48.31 67.18 53.35 59.40 56.74 49.18Z"/></svg>
