<svg xmlns="http://www.w3.org/2000/svg" xmlns:xlink="http://www.w3.org/1999/xlink" width="72.00000000000001" height="106.56000000000002"><path fill="red" stroke="red" d="M18.50 39.82L25.13 39.82L25.13 34.92L33.91 34.92L33.91 29.16L25.13 29.16L25.13 23.18L18.50 23.18L18.50 29.16L4.03 29.16L4.03 34.92L18.50 34.92ZM20.16 49.46C20.23 46.87 20.30 44.21 20.38 41.54L13.90 41.54C13.82 44.21 13.75 46.87 13.68 49.46L4.18 49.46L4.18 55.58L13.39 55.58C12.53 67.68 10.15 78.19 2.38 84.82C4.03 85.90 6.12 88.06 7.06 89.71C15.84 81.79 18.72 69.55 19.80 55.58L28.73 55.58C28.15 73.66 27.36 80.35 26.14 81.94C25.56 82.73 24.98 82.94 24.05 82.87C22.90 82.94 20.52 82.87 17.93 82.66C18.86 84.24 19.51 86.90 19.58 88.78C22.54 88.85 25.42 88.85 27.22 88.63C29.09 88.34 30.46 87.70 31.68 85.97C33.70 83.38 34.42 75.24 35.14 52.27C35.21 51.41 35.21 49.46 35.21 49.46ZM58.75 52.99L58.75 77.62L46.01 77.62L46.01 52.99ZM39.67 88.63L46.01 88.63L46.01 83.81L58.75 83.81L58.75 87.55L65.30 87.55L65.30 46.80L39.67 46.80ZM54.00 29.09L54.00 23.18L47.38 23.18L47.38 29.09L37.58 29.09L37.58 34.92L47.38 34.92L47.38 39.82L54.00 39.82L54.00 34.92L67.68 34.92L67.68 29.09Z"/></svg>
