<svg xmlns="http://www.w3.org/2000/svg" xmlns:xlink="http://www.w3.org/1999/xlink" width="72.00000000000001" height="106.56000000000002"><path fill="red" stroke="red" d="M47.45 42.91L54.22 42.91L54.22 36.07L67.68 36.07L67.68 30.02L54.22 30.02L54.22 23.18L47.45 23.18L47.45 30.02L37.58 30.02L37.58 36.07L47.45 36.07ZM18.36 42.91L25.13 42.91L25.13 36.07L33.91 36.07L33.91 30.10L25.13 30.10L25.13 23.18L18.36 23.18L18.36 30.10L4.03 30.10L4.03 36.07L18.36 36.07ZM19.37 70.34C16.13 75.10 10.08 79.56 4.25 82.30C5.90 83.30 8.64 85.39 9.86 86.69C15.62 83.38 22.18 77.98 26.06 72.36ZM59.69 67.97L59.69 61.78L39.46 61.78L39.46 53.42L32.47 53.42L32.47 61.78L11.59 61.78L11.59 67.97L32.47 67.97L32.47 89.28L39.46 89.28L39.46 67.97ZM44.93 73.37C50.62 77.26 57.67 83.02 60.98 86.83L66.46 82.87C62.93 79.06 55.73 73.51 49.97 69.84ZM35.21 37.94C29.30 46.15 16.85 52.56 3.02 56.23C4.32 57.46 6.19 60.05 7.06 61.70C18.58 58.25 28.80 53.14 36.14 46.22C43.92 52.70 55.30 58.46 65.09 61.34C66.02 59.76 67.97 57.10 69.41 55.80C58.97 53.28 46.87 48.02 39.89 42.26C40.39 41.62 40.90 41.04 41.40 40.39Z"/></svg>
