<svg xmlns="http://www.w3.org/2000/svg" xmlns:xlink="http://www.w3.org/1999/xlink" width="72.00000000000001" height="106.56000000000002"><path fill="red" stroke="red" d="M17.35 41.04L23.98 41.04L23.98 35.06L34.49 35.06L34.49 29.09L23.98 29.09L23.98 23.11L17.35 23.11L17.35 29.09L4.46 29.09L4.46 35.06L17.35 35.06ZM27.58 54.86C27.36 59.62 26.28 65.02 22.75 70.27C20.23 68.69 17.57 67.25 15.05 65.81C16.34 62.86 17.78 59.18 19.15 55.37ZM33.70 44.50L27.65 44.50L27.65 49.10L21.17 49.46C21.96 47.09 22.54 44.57 23.11 42.34L16.56 41.62C15.98 44.21 15.26 47.02 14.33 49.82C10.37 49.97 6.84 50.18 3.82 50.26L4.46 56.30L12.24 55.80C10.51 60.48 8.64 64.80 6.91 68.26C10.58 70.20 14.76 72.58 18.72 75.17C15.19 78.55 10.22 81.72 3.46 84.38C4.75 85.54 6.55 87.70 7.34 89.14C14.76 86.04 20.02 82.44 23.90 78.62C27.29 80.93 30.24 83.23 32.26 85.18L36.43 79.78C34.34 77.90 31.39 75.74 28.08 73.58C32.26 67.10 33.41 60.34 33.62 54.43L36.79 54.22L36.79 48.60L33.70 48.82ZM58.46 52.34L58.46 76.54L45.86 76.54L45.86 52.34ZM39.53 87.84L45.86 87.84L45.86 82.58L58.46 82.58L58.46 87.19L65.09 87.19L65.09 46.30L39.53 46.30ZM54.65 29.09L54.65 23.11L48.02 23.11L48.02 29.09L37.37 29.09L37.37 35.06L48.02 35.06L48.02 41.83L54.65 41.83L54.65 35.06L67.75 35.06L67.75 29.09Z"/></svg>
