<svg xmlns="http://www.w3.org/2000/svg" xmlns:xlink="http://www.w3.org/1999/xlink" width="72.00000000000001" height="106.56000000000002"><path fill="red" stroke="red" d="M47.66 39.46L54.14 39.46L54.14 33.70L67.68 33.70L67.68 28.30L54.14 28.30L54.14 23.11L47.66 23.11L47.66 28.30L37.51 28.30L37.51 33.70L47.66 33.70ZM18.50 39.46L24.98 39.46L24.98 33.70L33.91 33.70L33.91 28.30L24.98 28.30L24.98 23.11L18.50 23.11L18.50 28.30L4.03 28.30L4.03 33.70L18.50 33.70ZM14.83 52.20C19.37 50.69 23.62 48.82 27.65 46.73L27.65 49.61L43.27 49.61L43.27 46.51C47.38 48.74 51.98 50.69 56.52 52.20ZM19.51 66.24C19.66 65.02 19.73 63.94 19.80 62.78L51.19 62.78L51.19 66.24ZM51.19 59.33L19.80 59.33L19.80 56.16L51.19 56.16ZM28.73 46.15C31.18 44.71 33.55 43.27 35.71 41.62C37.73 43.27 40.10 44.71 42.62 46.15ZM53.50 77.69L53.50 83.09L23.11 83.09L23.11 77.69ZM35.86 33.91C28.87 41.33 15.41 46.66 2.74 49.32C4.18 50.69 5.62 53.06 6.41 54.72C8.71 54.14 11.09 53.50 13.32 52.70L13.32 60.77C13.32 67.54 12.31 76.75 4.75 83.38C6.19 84.24 8.86 86.54 9.86 87.91C13.03 85.03 15.26 81.50 16.78 77.83L16.78 89.21L23.11 89.21L23.11 87.41L53.50 87.41L53.50 89.21L60.05 89.21L60.05 73.37L18.29 73.37C18.50 72.29 18.79 71.28 18.94 70.20L57.46 70.20L57.46 52.49C59.76 53.28 62.21 53.93 64.44 54.36C65.45 52.70 67.25 50.04 68.76 48.60C58.32 46.87 46.44 42.91 39.74 38.23C40.32 37.73 40.90 37.15 41.40 36.58Z"/></svg>
