<svg xmlns="http://www.w3.org/2000/svg" xmlns:xlink="http://www.w3.org/1999/xlink" width="72.00000000000001" height="106.56000000000002"><path fill="red" stroke="red" d="M44.86 36.22L51.55 36.22L51.55 33.05L67.61 33.05L67.61 27.79L51.55 27.79L51.55 23.11L44.86 23.11L44.86 27.79L37.37 27.79L37.37 33.05L44.86 33.05ZM20.38 36.22L26.93 36.22L26.93 33.05L35.06 33.05L35.06 27.79L26.93 27.79L26.93 23.11L20.38 23.11L20.38 27.79L4.68 27.79L4.68 33.05L20.38 33.05ZM38.95 49.46L54.43 49.46L54.43 52.99L38.95 52.99ZM38.95 42.26L54.43 42.26L54.43 45.50L38.95 45.50ZM38.95 70.27L38.95 56.95L60.84 56.95L60.84 49.90L68.04 49.90L68.04 45.00L60.84 45.00L60.84 38.23L38.95 38.23L38.95 34.70L32.54 34.70L32.54 38.23L10.80 38.23L10.80 42.26L32.54 42.26L32.54 45.50L4.18 45.50L4.18 49.46L32.54 49.46L32.54 52.99L10.37 52.99L10.37 56.95L32.54 56.95L32.54 70.27L15.84 70.27C15.84 69.34 15.91 68.47 15.91 67.54L27.58 67.54L27.58 58.32L22.46 58.32L22.46 63.86L15.91 63.86L15.91 58.46L9.86 58.46L9.86 66.38C9.86 72.58 9.07 79.78 2.81 85.32C4.54 86.18 6.98 88.06 8.14 89.42C10.94 86.83 12.67 83.88 13.90 80.86L22.46 80.86L22.46 88.70L27.58 88.70L27.58 77.18L14.90 77.18C15.12 76.25 15.26 75.38 15.41 74.45L32.54 74.45L32.54 89.21L38.95 89.21L38.95 74.45L56.38 74.45L56.38 77.18L43.99 77.18L43.99 88.70L49.25 88.70L49.25 80.86L56.38 80.86L56.38 89.21L62.57 89.21L62.57 58.39L56.38 58.39L56.38 63.86L49.10 63.86L49.10 58.32L43.99 58.32L43.99 67.54L56.38 67.54L56.38 70.27Z"/></svg>
