<svg xmlns="http://www.w3.org/2000/svg" xmlns:xlink="http://www.w3.org/1999/xlink" width="72.00000000000001" height="106.56000000000002"><path fill="red" stroke="red" d="M44.50 35.14L51.05 35.14L51.05 32.33L67.61 32.33L67.61 27.50L51.05 27.50L51.05 23.04L44.50 23.04L44.50 27.50L37.37 27.50L37.37 32.33L44.50 32.33ZM20.81 35.14L27.29 35.14L27.29 32.33L35.06 32.33L35.06 27.50L27.29 27.50L27.29 23.04L20.81 23.04L20.81 27.50L4.68 27.50L4.68 32.33L20.81 32.33ZM21.24 83.59C24.26 82.01 27.29 80.28 30.24 78.34L47.88 78.34L44.78 80.14C46.37 80.86 48.10 81.72 49.75 82.58ZM4.03 78.34L21.24 78.34C17.71 80.57 14.40 82.22 12.96 82.87C11.09 83.74 9.50 84.31 8.06 84.53C8.71 85.75 9.65 88.20 10.01 89.14C12.89 88.34 17.14 88.27 56.23 86.54C58.03 87.84 59.54 88.99 60.77 90.07L65.38 86.98C62.21 84.31 56.52 80.71 51.26 78.34L67.90 78.34L67.90 74.30L4.03 74.30ZM12.96 67.25L12.96 71.28L59.47 71.28L59.47 67.25ZM61.85 60.48C61.49 60.48 61.20 60.41 61.06 60.12C60.84 59.90 60.84 59.18 60.84 57.89L60.84 40.46L50.47 40.46L50.47 35.86L45.29 35.86L45.29 40.46L37.58 40.46L37.58 45.36L45.14 45.36C45.07 46.66 44.86 48.02 44.50 49.32C42.84 48.46 40.97 47.66 39.38 47.02L36.43 50.62C38.52 51.55 40.75 52.70 42.84 53.86C41.40 56.66 39.24 59.33 35.86 61.78L35.86 60.55L23.47 61.20L23.47 58.46L33.62 58.46L33.62 54.86L23.47 54.86L23.47 52.13C24.12 52.92 25.20 53.28 26.93 53.28L31.54 53.28C32.69 53.28 34.13 53.28 34.92 52.99C34.78 51.91 34.70 50.76 34.56 49.68C33.77 49.97 32.26 50.04 31.46 50.04L28.01 50.04C27.00 50.04 26.93 49.61 26.93 48.38L26.93 47.23L36.00 47.23L36.00 43.56L23.47 43.56L23.47 41.04L32.62 41.04L32.62 37.44L23.47 37.44L23.47 35.35L17.86 35.35L17.86 37.44L8.64 37.44L8.64 41.04L17.86 41.04L17.86 43.56L5.26 43.56L5.26 47.23L12.74 47.23C11.74 49.54 9.29 50.76 4.03 51.55C4.90 52.27 5.98 53.78 6.41 54.79C13.25 53.50 16.13 51.26 17.28 47.23L22.68 47.23L22.68 48.31C22.68 49.54 22.75 50.54 23.04 51.34L17.86 51.34L17.86 54.86L7.99 54.86L7.99 58.46L17.86 58.46L17.86 61.49C12.89 61.70 8.50 61.99 4.90 62.14L5.26 66.17C13.25 65.81 24.55 65.02 35.57 64.15C36.50 65.02 37.37 65.88 37.94 66.53C42.62 63.65 45.50 60.26 47.45 56.81C49.10 57.96 50.69 59.11 51.77 60.19L55.01 56.02C53.57 54.79 51.62 53.35 49.32 51.98C49.97 49.75 50.26 47.45 50.40 45.36L55.44 45.36L55.44 57.74C55.44 61.70 55.80 62.86 56.74 63.79C57.67 64.73 59.11 65.16 60.48 65.16L63.36 65.16C64.44 65.16 65.66 64.94 66.38 64.44C67.25 64.01 67.90 63.22 68.26 62.21C68.62 61.13 68.83 58.18 68.98 55.58C67.61 55.22 66.10 54.43 65.09 53.64C65.02 56.02 64.94 58.03 64.80 58.82C64.73 59.62 64.51 60.05 64.22 60.19C64.01 60.41 63.58 60.48 63.14 60.48Z"/></svg>
