<svg xmlns="http://www.w3.org/2000/svg" xmlns:xlink="http://www.w3.org/1999/xlink" width="72.00000000000001" height="106.56000000000002"><path fill="red" stroke="red" d="M58.10 31.75C57.38 33.55 56.52 35.35 55.80 36.86L55.80 36.50L39.24 36.50L39.24 31.75ZM17.57 33.26C14.98 41.40 9.36 47.95 2.52 51.70C3.60 53.28 5.18 56.59 5.62 58.10C11.16 54.79 15.84 50.04 19.37 44.21C24.84 51.05 33.05 52.34 45.72 52.34L66.82 52.34C67.18 50.54 68.18 47.81 69.12 46.37C64.66 46.51 49.18 46.51 45.79 46.51C43.49 46.51 41.26 46.51 39.24 46.37L39.24 41.26L55.80 41.26L55.80 38.23L60.91 39.60C62.93 36.50 65.09 31.61 66.74 27.29L61.92 25.99L60.77 26.28L7.63 26.28L7.63 31.75L32.62 31.75L32.62 45.65C27.86 44.71 24.34 42.98 21.89 39.46C22.61 38.02 23.18 36.36 23.76 34.78ZM39.38 80.42L39.38 74.09L50.54 74.09L47.52 76.68C48.96 77.76 50.62 78.91 52.27 80.14ZM17.21 69.05L17.21 63.07L32.76 63.07L32.76 69.05ZM54.50 63.07L54.50 69.05L39.38 69.05L39.38 63.07ZM61.20 74.09L61.20 57.96L39.38 57.96L39.38 53.71L32.76 53.71L32.76 57.96L10.87 57.96L10.87 74.09L32.76 74.09L32.76 80.50C21.89 80.71 12.02 80.86 4.90 80.93L5.40 87.26C18.94 86.90 39.38 85.97 58.61 85.10C60.91 86.90 63.00 88.70 64.51 90.14L68.90 85.82C65.30 82.80 58.82 77.90 53.35 74.09Z"/></svg>
