<svg xmlns="http://www.w3.org/2000/svg" xmlns:xlink="http://www.w3.org/1999/xlink" width="72.00000000000001" height="106.56000000000002"><path fill="red" stroke="red" d="M52.06 70.99L63.72 70.99L63.72 66.17L52.06 66.17L52.06 62.14L65.02 62.14L65.02 57.24L52.06 57.24L52.06 52.20L45.79 52.20L45.79 57.24L33.19 57.24L33.19 62.14L45.79 62.14L45.79 66.17L34.49 66.17L34.49 70.99L45.79 70.99L45.79 75.24L30.89 75.24L30.89 80.35L45.79 80.35L45.79 89.06L52.06 89.06L52.06 80.35L68.11 80.35L68.11 75.24L52.06 75.24ZM28.73 40.75C30.17 41.76 32.11 43.42 33.05 44.21C35.06 42.77 37.15 40.90 39.02 38.88C40.68 41.11 42.41 43.20 44.50 45.07C39.74 48.17 34.27 50.47 28.73 51.91ZM23.83 57.46L18.94 57.46L18.94 41.83L23.83 41.83ZM9.94 41.83L14.40 41.83L14.40 57.46L9.94 57.46ZM55.37 34.27C53.71 37.01 51.55 39.53 48.96 41.69C46.44 39.53 44.28 37.15 42.62 34.63L42.91 34.27ZM59.76 28.87L58.68 29.16L46.30 29.16C47.23 27.65 48.02 26.14 48.67 24.55L42.84 23.04C39.89 29.88 34.70 36.00 28.73 39.96L28.73 36.36L19.51 36.36L19.51 23.98L13.90 23.98L13.90 36.36L5.11 36.36L5.11 65.95L9.94 65.95L9.94 62.93L13.90 62.93L13.90 77.11C9.79 77.90 5.90 78.55 2.81 78.98L4.10 85.18C10.22 83.95 17.78 82.37 25.27 80.78C25.63 82.58 25.92 84.31 26.06 85.82L31.18 84.31C30.53 79.42 28.87 72.22 27.22 66.53L22.39 67.82C22.90 70.06 23.54 72.65 24.12 75.24L19.51 76.10L19.51 62.93L28.73 62.93L28.73 53.86C29.52 54.94 30.31 56.16 30.67 57.17C37.22 55.37 43.56 52.56 48.96 48.74C54.00 52.34 59.83 55.08 66.31 56.59C67.18 55.08 68.98 52.56 70.27 51.34C64.15 50.11 58.54 47.88 53.71 45.00C57.96 41.11 61.49 36.43 63.72 30.74Z"/></svg>
