<svg xmlns="http://www.w3.org/2000/svg" xmlns:xlink="http://www.w3.org/1999/xlink" width="72.00000000000001" height="106.56000000000002"><path fill="red" stroke="red" d="M11.74 33.55L29.59 33.55L27.00 35.78C30.46 37.44 34.85 40.18 37.15 42.19L40.82 38.59C38.95 37.08 35.71 35.06 32.69 33.55L60.05 33.55L60.05 39.74L66.31 39.74L66.31 28.30L40.54 28.30C39.74 26.57 38.52 24.41 37.51 22.82L31.10 24.26C31.82 25.49 32.62 26.93 33.26 28.30L5.69 28.30L5.69 39.74L11.74 39.74ZM50.40 42.12C54.65 44.93 59.47 49.25 61.63 52.27L66.60 49.18C64.22 46.08 59.18 41.98 55.01 39.38ZM11.59 51.26C14.54 48.60 16.99 44.57 18.79 41.18L14.04 38.88C12.53 41.90 9.86 45.72 6.98 47.95ZM46.15 54.86C51.77 54.86 53.64 53.42 54.29 47.38C52.70 47.09 50.47 46.30 49.18 45.50C48.89 49.46 48.31 50.11 45.50 50.11L34.13 50.11C41.69 46.58 48.53 42.19 53.42 36.72L48.38 34.42C43.49 39.89 36.00 44.28 27.36 47.66L27.36 38.38L21.67 38.38L21.67 48.02C21.67 48.53 21.67 49.10 21.74 49.61C16.49 51.34 10.87 52.63 5.33 53.64C6.48 54.79 8.14 57.10 8.93 58.39C14.11 57.17 19.37 55.73 24.48 53.93C25.99 54.65 28.30 54.86 31.68 54.86ZM39.17 80.86L39.17 75.17L51.12 75.17L47.59 77.18C49.03 78.19 50.62 79.34 52.13 80.42ZM18.94 70.06L18.94 64.51L32.54 64.51L32.54 70.06ZM53.78 64.51L53.78 70.06L39.17 70.06L39.17 64.51ZM60.77 75.17L60.77 59.40L39.17 59.40L39.17 55.80L32.54 55.80L32.54 59.40L12.38 59.40L12.38 75.17L32.54 75.17L32.54 81.07C22.54 81.29 13.39 81.50 6.41 81.65L7.06 87.48C19.87 87.12 39.60 86.47 58.39 85.61C59.90 87.05 61.27 88.34 62.35 89.50L67.46 85.97C64.58 82.94 59.04 78.48 54.07 75.17Z"/></svg>
