<svg xmlns="http://www.w3.org/2000/svg" xmlns:xlink="http://www.w3.org/1999/xlink" width="72.00000000000001" height="106.56000000000002"><path fill="red" stroke="red" d="M60.12 58.39C57.24 61.34 52.56 64.94 48.46 67.68C45.72 64.30 43.56 60.48 41.83 56.30L67.10 56.30L67.10 50.54L39.17 50.54L39.17 45.14L61.85 45.14L61.85 39.74L39.17 39.74L39.17 34.70L64.80 34.70L64.80 28.94L39.17 28.94L39.17 23.18L32.47 23.18L32.47 28.94L7.70 28.94L7.70 34.70L32.47 34.70L32.47 39.74L11.30 39.74L11.30 45.14L32.47 45.14L32.47 50.54L4.75 50.54L4.75 56.30L26.93 56.30C20.38 61.85 11.02 66.89 2.45 69.55C3.96 70.92 5.90 73.37 6.91 74.95C10.58 73.58 14.33 71.86 18.07 69.77L18.07 78.05C18.07 81.00 16.27 82.51 14.98 83.16C16.06 84.53 17.35 87.48 17.86 89.21C19.73 87.91 22.61 86.98 42.70 80.78C42.26 79.34 41.69 76.68 41.54 74.88L25.06 79.63L25.06 65.38C28.87 62.71 32.47 59.76 35.35 56.66C40.90 71.57 50.40 82.15 65.16 87.12C66.10 85.32 68.04 82.73 69.48 81.29C62.64 79.34 56.95 76.03 52.27 71.78C56.59 69.12 61.56 65.74 65.66 62.50Z"/></svg>
