<svg xmlns="http://www.w3.org/2000/svg" xmlns:xlink="http://www.w3.org/1999/xlink" width="72.00000000000001" height="106.56000000000002"><path fill="red" stroke="red" d="M27.86 65.38C27.07 64.37 24.91 61.85 22.82 59.26C24.77 57.60 27.14 55.22 29.38 52.92L25.42 49.25C24.19 51.26 21.96 54.07 20.16 56.16C19.51 55.44 18.94 54.79 18.43 54.29L18.43 53.86C21.60 48.89 24.34 43.34 26.28 37.94L22.97 35.21L21.89 35.57L15.98 35.57L20.66 32.83C19.44 30.24 17.06 26.28 14.98 23.26L9.86 25.92C11.74 28.87 14.04 32.90 15.19 35.57L3.31 35.57L3.31 41.62L18.79 41.62C14.90 50.18 8.35 58.75 2.16 63.72C3.02 65.02 4.54 68.33 5.04 70.13C7.42 68.04 9.86 65.52 12.24 62.57L12.24 89.21L18.43 89.21L18.43 61.56C20.66 64.73 23.18 68.40 24.34 70.49ZM45.43 39.53L45.43 50.90L36.43 50.90L36.43 39.53ZM58.25 56.81C56.38 62.21 53.64 67.03 50.26 70.99C46.80 66.96 43.99 62.14 42.05 56.81ZM61.92 50.62L60.70 50.90L51.62 50.90L51.62 39.53L60.77 39.53C60.12 42.55 59.26 45.50 58.46 47.74L64.15 49.03C65.59 45.22 67.39 39.31 68.69 34.13L64.01 33.05L63.00 33.26L51.62 33.26L51.62 23.18L45.43 23.18L45.43 33.26L30.31 33.26L30.31 52.20C30.31 62.06 29.52 75.31 21.89 84.46C23.18 85.32 25.70 87.48 26.71 88.78C33.91 80.21 35.86 67.54 36.36 57.24C38.66 64.22 41.83 70.34 45.94 75.46C41.69 79.20 36.79 81.94 31.54 83.66C32.76 85.03 34.42 87.48 35.06 89.14C40.68 86.90 45.79 83.88 50.18 79.92C54.50 83.88 59.54 86.83 65.45 88.92C66.38 87.12 68.18 84.53 69.62 83.23C63.86 81.58 58.90 78.91 54.72 75.46C59.90 69.41 63.79 61.85 65.95 52.27Z"/></svg>
