<svg xmlns="http://www.w3.org/2000/svg" xmlns:xlink="http://www.w3.org/1999/xlink" width="72.00000000000001" height="106.56000000000002"><path fill="red" stroke="red" d="M66.67 35.14C64.66 32.26 60.26 27.94 56.74 24.84L52.06 28.22C55.58 31.46 59.83 36.07 61.70 39.02ZM19.15 78.91L19.15 66.96C21.24 65.02 23.18 62.86 24.77 60.70L40.90 60.70L40.90 55.08L28.73 55.08C27.94 53.21 26.35 50.54 24.84 48.53L19.08 50.47C20.02 51.91 20.88 53.50 21.67 55.08L5.47 55.08L5.47 60.70L17.35 60.70C13.46 64.94 8.06 68.69 2.95 71.21C4.25 72.36 6.34 74.81 7.20 76.03C9.14 74.88 11.16 73.58 13.10 72.14L13.10 77.26C13.10 80.28 11.59 81.94 10.51 82.66C11.45 83.66 12.82 85.90 13.25 87.12C14.54 86.26 16.70 85.39 28.94 81.72C28.66 80.35 28.44 78.05 28.37 76.39ZM34.85 62.50C33.62 64.08 31.75 66.17 30.10 67.97C28.15 66.67 26.35 65.45 24.55 64.37L20.74 68.04C26.14 71.64 32.83 76.75 36.00 80.28L40.10 76.10C38.66 74.59 36.65 72.86 34.34 71.06C36.14 69.48 38.16 67.54 39.89 65.59ZM59.54 51.26C57.74 56.38 55.22 61.20 52.27 65.74C51.26 60.62 50.47 54.58 49.90 47.88L68.18 47.88L68.18 42.12L49.54 42.12C49.18 36.22 49.10 29.88 49.18 23.26L42.62 23.26C42.62 29.74 42.84 36.07 43.13 42.12L25.99 42.12L25.99 35.57L38.23 35.57L38.23 29.81L25.99 29.81L25.99 23.26L19.58 23.26L19.58 29.81L7.20 29.81L7.20 35.57L19.58 35.57L19.58 42.12L4.03 42.12L4.03 47.88L43.56 47.88C44.28 57.24 45.43 65.66 47.30 72.36C43.34 77.11 38.66 81.07 33.70 84.10C35.35 85.39 37.37 87.48 38.30 89.06C42.48 86.33 46.30 83.09 49.75 79.34C52.34 85.18 55.87 88.56 60.55 88.56C66.02 88.56 68.11 85.46 69.12 74.30C67.46 73.66 65.23 72.14 63.86 70.78C63.50 78.98 62.71 82.15 61.06 82.15C58.46 82.15 56.23 79.13 54.43 73.73C58.97 67.61 62.78 60.70 65.66 53.28Z"/></svg>
