<svg xmlns="http://www.w3.org/2000/svg" xmlns:xlink="http://www.w3.org/1999/xlink" width="72.00000000000001" height="106.56000000000002"><path fill="red" stroke="red" d="M21.10 31.90C19.87 29.52 17.35 25.78 15.19 22.90L10.44 25.92C12.46 28.87 14.98 32.90 16.13 35.42ZM28.80 65.16C27.94 64.22 25.70 61.70 23.47 59.33C25.42 57.53 27.72 55.22 29.95 52.92L25.92 49.25C24.70 51.26 22.46 54.14 20.66 56.23C19.87 55.44 19.22 54.79 18.65 54.22L18.65 54.00C22.03 48.96 24.91 43.49 27.00 37.94L23.62 35.21L22.46 35.57L3.74 35.57L3.74 41.62L19.22 41.62C15.05 50.18 8.21 58.61 1.66 63.43C2.59 64.80 4.10 68.11 4.61 69.98C7.27 67.82 10.01 65.09 12.60 61.99L12.60 89.21L18.65 89.21L18.65 61.42C21.10 64.66 23.83 68.33 25.06 70.56ZM36.79 53.93L36.79 45.58L45.00 45.58L45.00 53.93ZM36.79 32.04L45.00 32.04L45.00 40.25L36.79 40.25ZM59.47 40.25L51.19 40.25L51.19 32.04L59.47 32.04ZM59.47 53.93L51.19 53.93L51.19 45.58L59.47 45.58ZM51.19 81.58L51.19 72.43L66.31 72.43L66.31 66.53L51.19 66.53L51.19 59.62L65.81 59.62L65.81 26.35L30.82 26.35L30.82 59.62L45.00 59.62L45.00 66.53L31.03 66.53L31.03 72.43L45.00 72.43L45.00 81.58L28.15 81.58L28.15 87.48L68.69 87.48L68.69 81.58Z"/></svg>
