<svg xmlns="http://www.w3.org/2000/svg" xmlns:xlink="http://www.w3.org/1999/xlink" width="72.00000000000001" height="106.56000000000002"><path fill="red" stroke="red" d="M67.68 27.72L39.74 27.72C39.38 26.14 38.81 24.26 38.16 22.75L31.90 23.69C32.26 24.91 32.69 26.35 33.05 27.72L4.39 27.72L4.39 32.98L67.68 32.98ZM12.82 65.52L19.08 65.52L19.08 42.55C21.10 40.25 22.90 37.80 24.41 35.35L18.79 33.55C15.19 39.38 9.07 45.00 3.02 48.60C4.18 49.68 6.12 52.42 6.84 53.57C8.78 52.27 10.87 50.69 12.82 48.89ZM33.84 39.46L55.37 39.46L55.37 43.20L33.84 43.20ZM58.75 65.45C55.51 67.97 50.47 71.14 46.08 73.51C43.06 71.64 40.46 69.41 38.45 66.96C39.67 66.24 40.97 65.38 42.05 64.51L48.02 64.51L48.02 54.65L67.10 54.65L67.10 50.26L48.02 50.26L48.02 47.16L61.92 47.16L61.92 35.57L27.50 35.57L27.50 47.16L41.62 47.16L41.62 50.26L21.82 50.26L21.82 54.65L41.62 54.65L41.62 63.94L36.43 61.42C29.52 66.67 16.13 70.85 2.74 73.44C3.89 74.66 5.54 77.04 6.26 78.48C10.30 77.54 14.47 76.61 18.43 75.38L18.43 79.27C18.43 82.22 16.99 83.59 15.91 84.17C16.78 85.39 18.07 88.13 18.43 89.57C20.02 88.63 22.61 87.98 40.10 84.38C39.96 83.09 39.89 80.78 39.96 79.20L24.70 82.08L24.70 73.37C27.79 72.22 30.74 70.99 33.48 69.77C40.61 78.34 52.49 84.60 65.30 87.48C66.10 85.82 67.90 83.52 69.12 82.22C62.64 81.07 56.30 79.06 50.90 76.39C55.01 74.16 59.69 71.50 63.43 68.98ZM34.27 55.44C31.10 57.31 25.78 58.97 21.02 60.12C22.18 60.98 24.05 62.86 24.91 63.79C29.66 62.35 35.50 59.76 39.10 57.24ZM50.11 58.25C54.86 59.90 61.13 62.64 64.30 64.51L67.18 60.98C63.86 59.04 57.60 56.52 52.92 55.08Z"/></svg>
