<svg xmlns="http://www.w3.org/2000/svg" xmlns:xlink="http://www.w3.org/1999/xlink" width="72.00000000000001" height="106.56000000000002"><path fill="red" stroke="red" d="M22.68 69.34L22.68 79.63L12.31 79.63L12.31 69.34ZM28.51 63.94L6.55 63.94L6.55 88.27L12.31 88.27L12.31 85.03L28.51 85.03ZM6.55 59.40L28.51 59.40L28.51 54.22L6.55 54.22ZM6.55 44.71L6.55 49.97L28.44 49.97L28.44 44.71ZM21.96 32.18C20.88 29.59 18.58 25.78 16.63 22.82L11.38 25.42C13.32 28.37 15.48 32.47 16.56 35.14L3.53 35.14L3.53 40.54L31.03 40.54L31.03 35.14L16.70 35.14ZM68.40 39.10L60.19 39.10L60.19 23.47L53.50 23.47L53.50 39.10L31.68 39.10L31.68 45.72L53.50 45.72L53.50 80.64C53.50 82.01 52.92 82.37 51.62 82.44C50.33 82.51 45.94 82.51 41.26 82.30C42.26 84.24 43.27 87.41 43.63 89.28C50.04 89.35 54.22 89.14 56.66 87.91C59.18 86.83 60.19 84.89 60.19 80.64L60.19 45.72L68.40 45.72ZM48.17 68.33C46.94 63.65 43.63 56.81 40.10 51.62L34.42 53.93C37.80 59.11 41.04 66.24 42.19 70.85Z"/></svg>
