<svg xmlns="http://www.w3.org/2000/svg" xmlns:xlink="http://www.w3.org/1999/xlink" width="72.00000000000001" height="106.56000000000002"><path fill="red" stroke="red" d="M26.21 34.99L13.97 34.99L19.73 32.18C18.72 29.66 16.70 25.85 14.90 22.90L9.29 25.34C10.94 28.30 12.96 32.40 13.82 34.99L2.95 34.99L2.95 40.32L26.21 40.32ZM18.86 69.48L18.86 79.92L11.02 79.92L11.02 69.48ZM24.26 64.15L5.69 64.15L5.69 88.34L11.02 88.34L11.02 85.18L24.26 85.18ZM5.83 59.62L24.34 59.62L24.34 54.36L5.83 54.36ZM38.66 23.69C35.57 33.26 30.46 42.48 24.34 48.74L24.34 44.78L5.83 44.78L5.83 50.04L22.97 50.04L22.90 50.11C24.19 51.41 26.42 54.22 27.22 55.58C29.16 53.64 31.03 51.41 32.83 48.96L32.83 89.21L39.02 89.21L39.02 38.95C41.26 34.63 43.34 30.02 44.93 25.34ZM56.30 82.94C54.58 82.94 54.22 82.44 54.22 79.20L54.22 52.27L68.40 52.27L68.40 46.15L54.22 46.15L54.22 24.19L47.74 24.19L47.74 79.13C47.74 86.76 49.39 88.92 55.22 88.92L62.50 88.92C68.04 88.92 69.41 84.96 70.06 74.16C68.26 73.73 65.74 72.58 64.22 71.28C63.94 80.42 63.65 82.94 61.99 82.94Z"/></svg>
