<svg xmlns="http://www.w3.org/2000/svg" xmlns:xlink="http://www.w3.org/1999/xlink" width="72.00000000000001" height="106.56000000000002"><path fill="red" stroke="red" d="M20.59 69.26L20.59 79.70L11.16 79.70L11.16 69.26ZM26.42 63.94L5.40 63.94L5.40 88.13L11.16 88.13L11.16 85.03L26.42 85.03ZM5.47 59.40L26.28 59.40L26.28 54.22L5.47 54.22ZM26.35 44.71L5.54 44.71L5.54 49.97L26.35 49.97ZM20.74 32.26C19.58 29.74 17.42 25.85 15.41 22.75L10.44 25.34C12.24 28.37 14.33 32.47 15.48 35.06L3.02 35.06L3.02 40.46L28.01 40.46L28.01 35.06L15.62 35.06ZM35.50 37.87L62.06 37.87L62.06 45.07L68.26 45.07L68.26 32.33L53.06 32.33C52.06 29.74 50.11 26.14 48.24 23.40L42.55 25.49C43.78 27.50 45.07 30.10 46.08 32.33L29.52 32.33L29.52 45.07L35.50 45.07ZM51.98 83.02C49.46 83.02 48.96 82.58 48.96 80.06L48.96 66.60L67.61 66.60L67.61 60.05L48.96 60.05L48.96 51.05C53.93 49.97 58.61 48.67 62.57 47.23L57.46 42.12C51.34 44.57 40.82 47.02 31.61 48.46C32.33 49.82 33.26 52.20 33.62 53.71C36.50 53.28 39.46 52.85 42.48 52.27L42.48 60.05L30.46 60.05L30.46 66.60L42.48 66.60L42.48 80.06C42.48 86.76 44.21 88.70 51.12 88.70L60.98 88.70C66.89 88.70 68.54 85.97 69.19 76.46C67.54 76.03 64.94 74.95 63.50 73.94C63.22 81.50 62.71 83.02 60.41 83.02Z"/></svg>
