<svg xmlns="http://www.w3.org/2000/svg" xmlns:xlink="http://www.w3.org/1999/xlink" width="72.00000000000001" height="106.56000000000002"><path fill="red" stroke="red" d="M56.23 78.91L56.23 83.09L37.30 83.09L37.30 78.91ZM31.25 89.06L37.30 89.06L37.30 86.83L56.23 86.83L56.23 88.99L62.50 88.99L62.50 75.24L31.25 75.24ZM32.83 72.36L61.20 72.36L61.20 68.83L32.83 68.83ZM61.20 62.50L32.83 62.50L32.83 66.02L61.20 66.02ZM50.69 55.22C49.90 53.28 48.60 51.05 47.38 49.25L42.48 50.90C43.34 52.20 44.14 53.78 44.86 55.22L35.42 55.22C37.73 52.99 39.74 50.47 41.54 47.66L52.92 47.66C54.50 50.47 56.52 53.06 58.90 55.22ZM12.02 59.11C12.10 56.38 12.10 53.78 12.10 51.41L12.10 48.31L18.58 48.31L18.58 59.11ZM18.58 31.82L18.58 42.19L12.10 42.19L12.10 31.82ZM68.69 47.66L68.69 42.62L44.21 42.62C44.93 41.04 45.58 39.53 46.15 37.80L66.38 37.80L66.38 32.83L58.90 32.83C60.12 30.82 61.70 27.94 63.22 25.06L57.10 23.33C56.30 25.70 54.86 29.16 53.71 31.39L58.18 32.83L47.74 32.83C48.46 30.02 49.10 27.00 49.61 23.83L43.63 23.18C43.13 26.64 42.41 29.88 41.62 32.83L32.47 32.83L37.37 31.18C36.86 29.09 35.50 26.06 33.98 23.76L29.02 25.27C30.38 27.50 31.54 30.74 32.04 32.83L27.50 32.83L27.50 37.80L39.89 37.80C39.24 39.53 38.45 41.11 37.66 42.62L25.34 42.62L25.34 47.66L34.27 47.66C31.54 51.05 28.22 53.86 24.12 56.09L24.12 25.70L6.70 25.70L6.70 51.41C6.70 61.85 6.48 76.32 2.81 86.40C4.18 86.90 6.62 88.20 7.70 89.06C10.08 82.44 11.16 73.66 11.74 65.30L18.58 65.30L18.58 81.79C18.58 82.73 18.29 82.94 17.50 82.94C16.85 83.02 14.40 83.02 11.88 82.94C12.67 84.46 13.39 87.12 13.54 88.56C17.57 88.56 20.09 88.49 21.89 87.48C23.62 86.47 24.12 84.74 24.12 81.86L24.12 56.16C25.34 57.24 27.36 59.54 28.15 60.77C29.30 60.05 30.31 59.33 31.39 58.54L31.39 59.62L62.78 59.62L62.78 58.25C63.86 58.97 64.87 59.54 66.02 60.05C66.96 58.54 68.69 56.45 70.06 55.30C65.81 53.86 61.99 50.98 59.33 47.66Z"/></svg>
