<svg xmlns="http://www.w3.org/2000/svg" xmlns:xlink="http://www.w3.org/1999/xlink" width="72.00000000000001" height="106.56000000000002"><path fill="red" stroke="red" d="M9.86 24.77C11.52 27.94 13.54 32.26 14.47 34.99L20.30 32.90C19.30 30.17 17.28 26.14 15.41 22.90ZM27.58 34.99L3.67 34.99L3.67 40.39L27.58 40.39ZM25.49 44.78L6.05 44.78L6.05 50.04L25.49 50.04ZM6.05 59.62L25.49 59.62L25.49 54.43L6.05 54.43ZM20.02 69.48L20.02 79.92L11.38 79.92L11.38 69.48ZM25.56 64.15L5.90 64.15L5.90 88.34L11.38 88.34L11.38 85.18L25.56 85.18ZM58.10 65.16L58.10 70.63L39.02 70.63L39.02 65.16ZM39.02 81.00L39.02 75.53L58.10 75.53L58.10 81.00ZM32.90 89.14L39.02 89.14L39.02 86.26L58.10 86.26L58.10 88.70L64.44 88.70L64.44 59.83L32.90 59.83ZM46.01 36.58L50.98 36.58L50.98 50.47L46.01 50.47ZM56.23 50.47L56.23 36.58L68.11 36.58L68.11 30.96L58.32 30.96C59.40 29.09 60.55 26.86 61.63 24.77L55.58 22.97C54.86 25.34 53.42 28.51 52.20 30.96L42.48 30.96L45.65 29.95C44.86 28.01 43.34 25.13 41.76 22.90L36.36 24.48C37.66 26.35 39.02 29.02 39.60 30.96L29.16 30.96L29.16 36.58L40.75 36.58L40.75 50.47L27.58 50.47L27.58 56.30L69.05 56.30L69.05 50.47ZM30.38 39.46C32.04 42.55 33.62 46.87 34.20 49.61L38.95 48.17C38.38 45.36 36.72 41.26 34.92 38.16ZM62.14 49.61C63.58 47.02 65.23 43.20 66.74 39.60L61.78 38.16C60.98 41.11 59.18 45.43 57.82 48.31Z"/></svg>
