<svg xmlns="http://www.w3.org/2000/svg" xmlns:xlink="http://www.w3.org/1999/xlink" width="72.00000000000001" height="106.56000000000002"><path fill="red" stroke="red" d="M66.53 40.46C62.06 35.86 53.21 28.87 46.80 24.12L41.40 27.72C47.95 32.83 56.66 40.10 60.70 44.64ZM23.69 24.70C19.30 30.46 12.17 36.43 5.54 40.03C7.13 41.18 9.79 43.63 11.02 44.93C17.50 40.68 25.06 33.84 30.24 27.29ZM19.51 60.26C25.56 56.23 31.25 51.34 35.78 46.01C40.32 51.34 46.08 56.23 52.20 60.26ZM22.82 80.57L22.82 66.10L49.54 66.10L49.54 80.57ZM35.50 35.06C29.09 45.86 15.91 56.16 2.66 60.48C4.10 62.21 5.90 65.02 6.77 67.03C9.86 65.74 12.96 64.22 15.98 62.42L15.98 89.21L22.82 89.21L22.82 86.47L49.54 86.47L49.54 89.14L56.74 89.14L56.74 62.93C59.26 64.37 61.92 65.59 64.44 66.60C65.59 64.66 67.82 61.78 69.48 60.26C58.32 56.74 46.37 48.96 39.60 40.97C40.10 40.32 40.61 39.60 41.04 38.88Z"/></svg>
