<svg xmlns="http://www.w3.org/2000/svg" xmlns:xlink="http://www.w3.org/1999/xlink" width="72.00000000000001" height="106.56000000000002"><path fill="red" stroke="red" d="M68.83 58.97C67.54 55.51 64.22 50.33 61.06 46.44L56.88 48.60C57.82 49.90 58.82 51.26 59.69 52.78L47.59 54.07C49.75 51.26 51.91 48.10 53.71 44.93L68.18 44.93L68.18 39.82L56.23 39.82L56.23 34.42L65.95 34.42L65.95 29.38L56.23 29.38L56.23 23.11L50.98 23.11L50.98 29.38L41.26 29.38L41.26 34.42L50.98 34.42L50.98 39.82L39.31 39.82L39.31 44.93L47.74 44.93C45.72 48.67 43.42 51.84 42.55 52.85C41.47 54.29 40.39 55.22 39.24 55.51C39.89 56.88 40.75 59.40 41.04 60.55C42.48 59.76 45.07 59.33 62.35 57.24C63.14 58.82 63.86 60.26 64.30 61.56ZM36.86 25.70L32.69 25.70L32.69 44.78L29.30 44.78L29.30 41.90L31.61 41.90L31.61 39.17L29.30 39.17L29.30 36.43L31.32 36.43L31.32 33.70L29.30 33.70L29.30 31.10L31.61 31.10L31.61 28.37L29.30 28.37L29.30 24.91L26.35 24.91L26.35 28.37L24.12 28.37L24.12 31.10L26.35 31.10L26.35 33.70L24.41 33.70L24.41 36.43L26.35 36.43L26.35 39.17L24.12 39.17L24.12 41.90L26.35 41.90L26.35 44.78L22.90 44.78L22.90 23.11L18.86 23.11L18.86 44.78L15.62 44.78L15.62 41.90L17.78 41.90L17.78 39.17L15.62 39.17L15.62 36.43L17.50 36.43L17.50 33.70L15.62 33.70L15.62 31.10L17.71 31.10L17.71 28.37L15.62 28.37L15.62 24.91L12.82 24.91L12.82 28.37L10.66 28.37L10.66 31.10L12.82 31.10L12.82 33.70L10.87 33.70L10.87 36.43L12.82 36.43L12.82 39.17L10.58 39.17L10.58 41.90L12.82 41.90L12.82 44.78L9.58 44.78L9.58 25.56L5.54 25.56L5.54 49.18L36.86 49.18ZM37.73 52.27L3.38 52.27L3.38 57.24L37.73 57.24ZM44.28 68.04L47.66 68.04L47.66 81.58L44.28 81.58ZM54.72 68.04L54.72 81.58L51.26 81.58L51.26 68.04ZM61.78 68.04L61.78 81.58L58.32 81.58L58.32 68.04ZM13.03 64.15L29.02 64.15L29.02 68.69L13.03 68.69ZM66.74 81.58L66.74 62.78L39.53 62.78L39.53 81.58L35.50 81.58L35.42 77.98L29.02 78.77C29.88 77.33 30.74 75.74 31.61 74.23L26.42 72.79L34.56 72.79L34.56 60.05L7.42 60.05L7.42 72.79L25.85 72.79C25.20 74.81 23.98 77.33 22.90 79.49C15.12 80.35 7.99 81.22 2.66 81.72L3.38 87.12C11.81 86.04 23.90 84.60 35.50 83.02L35.50 87.12L69.26 87.12L69.26 81.58ZM10.51 74.45C11.45 76.32 12.24 78.98 12.46 80.64L17.78 79.13C17.42 77.47 16.49 74.95 15.48 73.08Z"/></svg>
