<svg xmlns="http://www.w3.org/2000/svg" xmlns:xlink="http://www.w3.org/1999/xlink" width="72.00000000000001" height="106.56000000000002"><path fill="red" stroke="red" d="M37.44 46.22L43.70 46.22L43.70 37.94L47.95 37.94L47.95 31.68L43.70 31.68L43.70 23.76L37.44 23.76L37.44 31.68L30.17 31.68L30.17 37.94L37.44 37.94ZM24.26 23.40C19.30 26.64 10.66 29.95 3.10 31.68C4.18 32.90 5.47 35.06 6.19 36.43C13.97 34.49 22.54 31.39 27.94 27.50ZM15.55 35.71C16.99 37.80 18.50 40.61 19.37 42.84C17.86 43.85 16.42 44.86 14.76 45.86C13.68 43.34 11.59 39.96 9.79 37.44L5.40 39.67C7.20 42.41 9.22 45.86 10.22 48.46C7.99 49.61 5.76 50.62 3.60 51.55C4.61 52.63 6.05 54.65 6.84 55.94C10.37 54.36 13.97 52.56 17.35 50.47C18.07 51.62 18.72 52.85 19.30 54.00C15.34 57.74 8.42 61.78 3.24 63.86C4.32 65.02 5.76 67.18 6.41 68.54C11.02 66.17 16.78 62.42 21.10 58.75C21.53 60.34 21.89 61.85 22.18 63.43C17.35 68.76 9.07 74.59 2.38 77.26C3.53 78.48 4.90 80.64 5.62 82.08C11.16 79.27 17.64 74.59 22.75 69.84C22.90 75.24 21.89 79.78 20.59 81.22C19.44 82.73 18.36 82.94 16.85 82.94C15.62 82.94 13.61 82.87 11.52 82.66C12.38 84.38 12.89 86.83 12.89 88.49C14.76 88.56 16.85 88.63 18.14 88.63C21.17 88.56 23.33 87.70 25.20 85.39C29.95 80.42 30.38 60.05 21.67 47.81C25.27 45.29 28.51 42.62 31.10 39.74L27.22 36.00C26.14 37.15 24.91 38.38 23.62 39.53C22.61 37.51 21.24 35.21 19.94 33.34ZM46.15 54.79L46.15 63.79L38.23 63.79L38.23 54.79ZM59.62 63.79L51.98 63.79L51.98 54.79L59.62 54.79ZM51.98 78.98L51.98 69.41L59.62 69.41L59.62 78.98ZM38.23 78.98L38.23 69.41L46.15 69.41L46.15 78.98ZM32.11 89.14L38.23 89.14L38.23 84.82L59.62 84.82L59.62 88.49L66.02 88.49L66.02 48.96L32.11 48.96ZM61.13 31.82L61.13 23.76L54.79 23.76L54.79 31.82L50.40 31.82L50.40 37.94L54.79 37.94L54.79 46.22L61.13 46.22L61.13 37.94L69.12 37.94L69.12 31.82Z"/></svg>
