<svg xmlns="http://www.w3.org/2000/svg" xmlns:xlink="http://www.w3.org/1999/xlink" width="72.00000000000001" height="106.56000000000002"><path fill="red" stroke="red" d="M39.60 33.41C38.23 35.50 36.58 37.66 34.92 39.46L18.29 39.46C20.30 37.51 22.18 35.50 23.83 33.41ZM53.57 50.26L19.37 50.26L19.37 44.78L53.57 44.78ZM53.57 60.77L19.37 60.77L19.37 55.30L53.57 55.30ZM53.57 71.35L19.37 71.35L19.37 65.81L53.57 65.81ZM12.74 76.68L60.48 76.68L60.48 39.46L42.84 39.46C45.22 36.72 47.45 33.62 48.96 30.89L44.42 27.86L43.34 28.22L27.79 28.22C28.58 27.00 29.45 25.78 30.17 24.55L22.82 23.11C19.30 29.52 12.74 37.08 3.46 42.55C5.04 43.56 7.34 45.86 8.42 47.30C9.94 46.30 11.38 45.29 12.74 44.21ZM24.48 77.04C19.66 79.92 11.16 82.58 3.96 84.24C5.54 85.39 7.99 88.13 9.22 89.50C16.20 87.34 25.20 83.74 30.89 79.99ZM41.76 80.78C48.96 83.45 56.38 86.83 60.62 89.28L67.97 85.68C62.93 83.23 54.58 79.78 47.16 77.11Z"/></svg>
