<svg xmlns="http://www.w3.org/2000/svg" xmlns:xlink="http://www.w3.org/1999/xlink" width="72.00000000000001" height="106.56000000000002"><path fill="red" stroke="red" d="M19.51 70.85L53.14 70.85L53.14 74.74L19.51 74.74ZM19.51 63.29L53.14 63.29L53.14 67.03L19.51 67.03ZM19.51 55.66L53.14 55.66L53.14 59.40L19.51 59.40ZM59.90 78.77L59.90 51.62L51.12 51.62C53.50 49.25 55.94 46.80 58.25 44.42L53.64 41.83L52.56 42.12L15.62 42.12L15.62 47.09L47.16 47.09C45.65 48.53 43.85 50.18 42.19 51.62L13.03 51.62L13.03 78.77L24.19 78.77C19.15 81.14 11.09 83.23 3.96 84.46C5.40 85.61 7.70 87.98 8.78 89.35C15.98 87.62 25.13 84.38 30.96 81.14L25.63 78.77L45.29 78.77L41.69 82.08C49.25 84.46 57.10 87.62 61.70 89.86L66.82 85.82C61.99 83.81 54.36 80.93 47.09 78.77ZM28.08 35.42C30.89 33.77 33.62 32.04 36.00 30.17C38.52 31.90 41.47 33.70 44.78 35.42ZM36.22 22.82C29.45 29.38 16.27 35.35 2.95 38.95C4.46 40.25 6.77 42.77 7.70 44.28C14.54 42.05 20.88 39.38 26.57 36.29L26.57 39.38L46.80 39.38L46.80 36.50C52.49 39.31 58.90 41.90 65.09 43.63C66.10 42.12 68.18 39.74 69.70 38.52C58.82 36.14 47.02 31.25 40.18 26.78C40.75 26.28 41.33 25.78 41.90 25.20Z"/></svg>
