<svg xmlns="http://www.w3.org/2000/svg" xmlns:xlink="http://www.w3.org/1999/xlink" width="72.00000000000001" height="106.56000000000002"><path fill="red" stroke="red" d="M9.36 72.22C7.92 77.33 5.40 82.44 2.23 85.82C3.67 86.62 6.12 88.34 7.34 89.28C10.51 85.46 13.61 79.56 15.26 73.58ZM17.93 74.23C19.58 77.11 21.60 80.93 22.32 83.38L27.43 81.00C26.50 78.62 24.55 74.95 22.68 72.14ZM60.05 78.98L60.05 83.02L44.78 83.02L44.78 78.98ZM38.95 89.21L44.78 89.21L44.78 86.83L60.05 86.83L60.05 89.06L66.17 89.06L66.17 75.31L38.95 75.31ZM39.60 72.43L64.87 72.43L64.87 68.62L39.60 68.62ZM64.87 62.21L39.60 62.21L39.60 65.95L64.87 65.95ZM46.80 50.90C47.45 52.27 48.17 53.78 48.74 55.37L36.72 55.37L36.72 59.47L68.40 59.47L68.40 55.37L54.86 55.37C54.14 53.42 52.99 51.12 52.06 49.18ZM36.72 41.11L43.63 41.11C43.13 45.14 41.62 47.30 36.72 48.60ZM51.84 32.18C51.12 33.55 50.40 34.99 49.54 36.22L37.94 36.22C38.88 34.92 39.89 33.48 40.75 32.18ZM20.30 39.31L11.59 39.31L11.59 31.25L20.30 31.25ZM20.30 52.49L11.59 52.49L11.59 44.42L20.30 44.42ZM20.30 65.81L11.59 65.81L11.59 57.60L20.30 57.60ZM69.12 41.11L69.12 36.22L56.02 36.22C57.38 34.20 58.82 31.97 59.76 29.88L55.80 27.29L54.79 27.50L43.34 27.50C43.92 26.35 44.50 25.34 45.00 24.19L38.81 23.11C36.50 28.73 32.26 35.28 26.06 40.54L26.06 25.85L6.05 25.85L6.05 71.21L26.06 71.21L26.06 43.20C27.07 44.14 28.01 45.36 28.51 46.15C29.38 45.50 30.24 44.78 31.03 43.99L31.03 54.36C31.03 63.72 30.46 76.75 25.06 86.11C26.42 86.69 28.94 88.20 29.95 89.21C35.71 79.34 36.72 64.58 36.72 54.43L36.72 50.40C37.37 51.34 37.87 52.27 38.16 52.99C45.94 51.12 48.31 47.38 49.03 41.11L54.14 41.11L54.14 45.14C54.14 49.18 54.86 51.26 59.18 51.26L64.87 51.26C66.17 51.26 67.97 51.19 68.69 50.90C68.54 49.46 68.47 48.24 68.40 46.87C67.46 47.09 65.59 47.16 64.73 47.16L60.91 47.16C59.76 47.16 59.69 46.66 59.69 45.22L59.69 41.11Z"/></svg>
