<svg xmlns="http://www.w3.org/2000/svg" xmlns:xlink="http://www.w3.org/1999/xlink" width="72.00000000000001" height="106.56000000000002"><path fill="red" stroke="red" d="M11.74 31.68L21.89 31.68L21.89 43.06L11.74 43.06ZM29.09 72.65L20.66 74.59L20.66 63.65L28.80 63.65L28.80 57.89L20.66 57.89L20.66 48.74L27.79 48.74L27.79 25.99L6.12 25.99L6.12 48.74L14.98 48.74L14.98 75.96L11.23 76.82L11.23 54.65L5.90 54.65L5.90 77.90C4.75 78.19 3.74 78.34 2.74 78.55L3.89 84.67C11.02 82.94 20.66 80.71 29.74 78.34ZM58.61 67.61C56.38 70.42 53.28 72.94 49.75 75.02C48.38 73.15 47.16 70.85 46.15 68.40L68.83 66.74L68.47 61.42L56.81 62.21L60.84 58.97C58.54 57.17 54.22 54.72 50.69 53.28L46.58 56.38C49.97 57.74 54.14 60.34 56.38 62.28L44.35 63.14C43.49 60.12 42.77 56.88 42.34 53.42L36.72 53.42C40.61 52.27 44.50 50.90 48.17 49.32C51.98 53.21 56.66 55.58 62.42 55.80C65.52 55.94 67.68 53.64 69.19 47.09C67.75 46.51 65.74 45.22 64.44 43.92C64.01 47.81 63.22 49.46 61.92 49.46C59.11 49.32 56.45 48.31 54.14 46.44C57.89 44.35 61.20 41.98 63.79 39.31L58.46 37.22C56.38 39.24 53.64 40.97 50.54 42.55C49.46 41.11 48.46 39.46 47.59 37.58L67.82 36.07L67.39 30.89L58.82 31.54L62.57 28.30C60.34 26.50 56.02 24.26 52.56 22.97L48.38 26.14C51.70 27.43 55.73 29.81 58.10 31.54L45.50 32.47C44.57 29.59 43.85 26.50 43.34 23.11L37.15 23.11C37.66 26.57 38.45 29.88 39.38 32.98L29.23 33.70L29.66 38.95L41.18 38.09C42.19 40.61 43.42 42.98 44.78 45.07C39.74 47.02 34.06 48.53 28.66 49.54C29.74 50.83 31.32 53.42 31.90 54.72C33.26 54.36 34.63 54.00 36.00 53.64C36.50 57.10 37.15 60.41 38.02 63.58L28.66 64.22L29.02 69.62L39.67 68.83C40.90 72.22 42.34 75.31 44.06 77.98C38.45 80.57 32.04 82.51 25.70 83.81C26.78 85.03 28.44 87.91 29.09 89.28C35.42 87.62 41.83 85.39 47.66 82.51C51.62 86.62 56.52 89.14 62.57 89.42C65.95 89.50 68.33 87.05 69.77 79.78C68.47 79.20 66.17 77.76 64.94 76.54C64.37 81.00 63.58 83.02 62.06 82.94C58.90 82.80 56.02 81.50 53.50 79.27C57.74 76.61 61.49 73.51 64.30 69.91Z"/></svg>
