<svg xmlns="http://www.w3.org/2000/svg" xmlns:xlink="http://www.w3.org/1999/xlink" width="72.00000000000001" height="106.56000000000002"><path fill="red" stroke="red" d="M11.09 31.61L20.74 31.61L20.74 42.84L11.09 42.84ZM19.73 74.88L19.73 63.50L27.36 63.50L27.36 57.82L19.73 57.82L19.73 48.46L26.64 48.46L26.64 26.06L5.47 26.06L5.47 48.46L14.04 48.46L14.04 76.10L10.58 76.90L10.58 54.65L5.33 54.65L5.33 77.98L2.59 78.55L3.74 84.74C10.58 83.09 19.66 80.86 28.30 78.70L27.72 73.01ZM40.68 58.46L56.02 58.46L56.02 54.79L40.68 54.79ZM36.50 45.07L42.12 45.07C42.12 47.23 41.11 49.54 37.01 51.62C37.80 52.06 39.53 53.35 40.18 54.07C44.78 51.62 45.94 48.10 45.94 45.07L50.04 45.07L50.04 46.87C50.04 49.46 50.33 50.40 51.12 51.12C51.91 51.84 53.28 52.06 54.58 52.06L57.89 52.06C58.39 52.06 59.11 52.06 59.69 52.06L59.69 61.78L36.50 61.78ZM45.94 37.22L49.97 37.22L49.97 40.75L45.94 40.75ZM59.69 48.74C59.62 48.74 59.62 48.74 59.54 48.74C59.40 48.82 59.04 48.82 58.82 48.82L57.38 48.82L55.30 48.82C54.86 48.82 54.50 48.82 54.29 48.60C54.07 48.46 54.07 48.02 54.07 47.30L54.07 45.07L59.69 45.07ZM68.98 69.91L58.10 69.91L58.10 66.02L65.23 66.02L65.23 40.75L54.50 40.75L54.50 37.22L67.68 37.22L67.68 32.40L56.52 32.40C58.10 30.17 59.98 27.50 61.49 24.98L55.44 23.18C54.22 25.85 52.06 29.74 50.11 32.40L41.40 32.40L45.07 30.60C44.06 28.58 41.98 25.49 40.18 23.11L35.06 25.34C36.50 27.43 38.38 30.38 39.46 32.40L29.38 32.40L29.38 37.22L41.47 37.22L41.47 40.75L31.18 40.75L31.18 66.02L52.13 66.02L52.13 69.91L28.44 69.91L28.44 75.10L35.93 75.10L32.76 77.69C35.64 79.85 39.31 83.02 41.11 85.03L45.29 81.29C43.56 79.56 40.54 76.97 37.87 75.10L52.13 75.10L52.13 82.94C52.13 83.74 51.91 83.95 50.98 84.02C50.11 84.02 47.09 84.02 43.99 83.95C44.71 85.46 45.50 87.41 45.79 88.92C50.33 88.92 53.42 88.92 55.44 88.13C57.53 87.34 58.10 86.04 58.10 83.09L58.10 75.10L68.98 75.10Z"/></svg>
