<svg xmlns="http://www.w3.org/2000/svg" xmlns:xlink="http://www.w3.org/1999/xlink" width="72.00000000000001" height="106.56000000000002"><path fill="red" stroke="red" d="M21.74 56.74L49.18 56.74L49.18 60.05L48.60 60.55C39.53 61.27 30.17 61.92 21.74 62.50ZM49.18 35.86L49.18 41.47L21.74 41.47L21.74 35.86ZM21.74 46.44L49.18 46.44L49.18 51.77L21.74 51.77ZM61.49 46.08C59.90 48.53 58.03 50.90 56.09 53.21L56.09 30.02L37.15 30.02C38.30 28.15 39.46 26.06 40.54 24.05L32.40 22.97C31.82 24.98 30.82 27.65 29.81 30.02L15.05 30.02L15.05 63.00C11.74 63.22 8.64 63.43 5.98 63.58L6.70 69.55C15.70 68.83 27.72 67.90 40.18 66.89C29.66 73.87 16.99 79.06 3.46 82.44C4.90 83.88 7.06 87.05 7.99 88.56C23.18 84.17 37.30 77.69 49.18 68.69L49.18 80.21C49.18 81.65 48.67 82.08 47.23 82.15C45.72 82.22 40.46 82.30 35.35 82.01C36.36 83.88 37.37 87.12 37.73 89.06C44.78 89.06 49.46 88.99 52.34 87.84C55.15 86.69 56.09 84.53 56.09 80.28L56.09 62.93C60.55 58.82 64.58 54.22 67.97 49.25Z"/></svg>
