<svg xmlns="http://www.w3.org/2000/svg" xmlns:xlink="http://www.w3.org/1999/xlink" width="72.00000000000001" height="106.56000000000002"><path fill="red" stroke="red" d="M14.76 56.09L27.36 56.09L27.36 59.62C23.04 60.05 18.79 60.48 14.76 60.77ZM27.36 36.29L27.36 41.40L14.76 41.40L14.76 36.29ZM27.36 51.12L14.76 51.12L14.76 46.30L27.36 46.30ZM43.99 59.04C44.35 55.94 44.71 52.56 45.00 49.25L65.52 49.25L65.52 26.71L36.43 26.71L36.43 32.83L59.11 32.83L59.11 43.06L39.17 43.06C38.95 47.88 38.38 53.71 37.73 58.68L33.84 56.81L33.55 57.17L33.55 31.10L21.89 31.10C22.90 28.94 23.98 26.42 24.98 23.90L18.14 23.04C17.64 25.42 16.70 28.58 15.77 31.10L8.86 31.10L8.86 61.34C6.70 61.56 4.68 61.70 2.88 61.85L3.53 67.18C9.79 66.53 17.93 65.74 26.14 64.80C19.08 70.78 10.37 76.03 2.30 79.49C3.31 80.86 4.68 83.88 5.26 85.18C12.60 81.65 20.45 76.68 27.36 70.99L27.36 82.15C27.36 83.23 27.00 83.52 25.99 83.59C25.06 83.66 21.67 83.66 18.29 83.52C19.15 84.96 20.09 87.70 20.45 89.28C25.34 89.28 28.66 89.14 30.82 88.13C32.83 87.19 33.55 85.46 33.55 82.22L33.55 65.38C34.92 64.01 36.14 62.64 37.37 61.27C37.22 62.64 37.01 63.86 36.79 65.02L59.18 65.02C58.25 76.10 57.31 80.86 55.80 82.22C55.01 82.94 54.22 83.02 52.85 83.02C51.19 83.02 47.16 82.94 43.06 82.58C44.21 84.38 45.07 87.05 45.22 88.99C49.39 89.14 53.42 89.21 55.66 88.99C58.18 88.78 59.90 88.27 61.49 86.54C63.86 84.17 65.02 77.62 66.17 61.85C66.31 60.91 66.38 59.04 66.38 59.04Z"/></svg>
