<svg xmlns="http://www.w3.org/2000/svg" xmlns:xlink="http://www.w3.org/1999/xlink" width="72.00000000000001" height="106.56000000000002"><path fill="red" stroke="red" d="M37.01 30.46L62.21 30.46L62.21 36.58L68.04 36.58L68.04 25.20L31.39 25.20L31.39 36.58L37.01 36.58ZM25.20 27.79C24.26 32.83 22.25 40.10 20.66 44.57L25.06 45.86C26.78 41.62 29.02 34.78 30.67 29.16ZM11.95 44.64C11.38 40.10 9.86 33.41 8.42 28.08L3.74 29.23C5.11 34.49 6.55 41.40 7.06 45.86ZM38.95 64.80L38.95 60.48L46.44 60.48L46.44 64.80ZM38.95 51.98L46.44 51.98L46.44 56.30L38.95 56.30ZM60.34 51.98L60.34 56.30L52.56 56.30L52.56 51.98ZM60.34 64.80L52.56 64.80L52.56 60.48L60.34 60.48ZM68.83 73.58L52.56 73.58L52.56 69.19L65.95 69.19L65.95 47.66L52.56 47.66L52.56 43.27L66.46 43.27L66.46 38.02L52.56 38.02L52.56 32.76L46.44 32.76L46.44 38.02L32.76 38.02L32.76 43.27L46.44 43.27L46.44 47.66L33.62 47.66L33.62 69.19L46.44 69.19L46.44 73.58L30.31 73.58C30.10 72.36 29.81 70.99 29.74 69.98L24.26 72.50L24.26 53.93L30.67 53.93L30.67 47.74L19.44 47.74L19.44 23.76L13.75 23.76L13.75 47.74L3.24 47.74L3.24 53.93L8.71 53.93C8.50 67.61 7.63 78.05 2.52 84.46C4.03 85.46 5.90 87.62 6.77 89.06C12.89 81.50 14.04 69.41 14.33 53.93L18.65 53.93L18.65 69.91C18.65 72.79 17.06 74.52 15.91 75.24C16.85 76.90 18.07 80.42 18.50 82.08L18.79 81.79C19.87 80.78 22.03 79.63 30.17 75.46L30.17 79.27L46.44 79.27L46.44 89.14L52.56 89.14L52.56 79.27L68.83 79.27Z"/></svg>
