<svg xmlns="http://www.w3.org/2000/svg" xmlns:xlink="http://www.w3.org/1999/xlink" width="72.00000000000001" height="106.56000000000002"><path fill="red" stroke="red" d="M67.68 31.82L52.99 31.82L56.16 30.46C55.22 28.30 53.06 25.13 51.12 22.75L45.43 24.77C47.02 26.86 48.82 29.66 49.82 31.82L34.49 31.82L34.49 37.87L67.68 37.87ZM26.42 63.65L26.42 77.90L16.85 77.90L16.85 63.65ZM25.85 32.54L25.85 43.06L13.82 43.06L13.82 32.54ZM32.40 57.74L13.39 57.74C13.68 54.72 13.75 51.70 13.82 49.03L32.11 49.03L32.11 26.57L7.63 26.57L7.63 46.80C7.63 56.66 7.13 70.27 2.16 79.92C3.24 80.71 5.83 83.23 6.77 84.60C8.71 81.29 10.01 77.40 11.09 73.22L11.09 88.49L16.85 88.49L16.85 83.74L32.40 83.74ZM37.80 39.74C39.60 43.42 41.26 48.38 41.69 51.62L47.52 49.82C46.94 46.58 45.29 41.76 43.34 38.09ZM68.98 57.82L68.98 51.62L59.90 51.62C61.49 48.10 63.22 43.49 64.66 39.38L58.25 37.94C57.31 41.98 55.44 47.74 53.86 51.62L33.41 51.62L33.41 57.82L47.66 57.82L47.66 66.60L34.42 66.60L34.42 72.72L47.66 72.72L47.66 89.14L54.22 89.14L54.22 72.72L68.04 72.72L68.04 66.60L54.22 66.60L54.22 57.82Z"/></svg>
