<svg xmlns="http://www.w3.org/2000/svg" xmlns:xlink="http://www.w3.org/1999/xlink" width="72.00000000000001" height="106.56000000000002"><path fill="red" stroke="red" d="M68.18 32.26L61.63 32.26C60.62 29.59 59.04 26.14 57.60 23.40L52.06 25.13C53.21 27.22 54.36 29.95 55.15 32.26L47.38 32.26L47.38 37.73L68.18 37.73ZM56.09 50.11C55.94 46.94 54.94 42.19 53.64 38.52L49.18 39.67C50.47 43.42 51.34 48.31 51.34 51.41ZM23.98 32.40L17.71 32.40C16.85 29.88 15.41 26.50 13.90 23.90L8.35 25.56C9.43 27.58 10.51 30.17 11.30 32.40L3.67 32.40L3.67 37.87L23.98 37.87ZM11.95 50.04C11.81 47.02 10.94 42.34 9.72 38.81L5.26 39.89C6.41 43.56 7.20 48.31 7.20 51.34ZM23.04 70.06L23.04 64.58L16.63 64.58L16.63 57.10L24.26 57.10L24.26 51.62L19.01 51.62C20.09 48.10 21.38 43.56 22.46 39.60L17.35 38.52C16.78 42.34 15.55 47.88 14.40 51.62L3.17 51.62L3.17 57.10L10.66 57.10L10.66 64.58L4.03 64.58L4.03 70.06L10.51 70.06C10.15 75.31 8.78 81.43 3.53 85.10C4.90 86.11 6.62 88.13 7.49 89.42C13.82 84.38 15.98 76.75 16.49 70.06ZM25.85 65.66C25.13 70.78 23.83 75.96 21.53 79.63C22.75 80.14 25.06 81.14 26.06 81.79C28.22 78.12 29.95 72.29 30.89 66.53ZM42.77 60.84C43.13 62.28 43.42 63.50 43.63 64.66L48.53 63.14C47.74 59.47 45.94 53.86 44.28 49.54L39.67 50.76C40.25 52.34 40.75 54.07 41.33 55.87L33.12 56.88C37.94 50.90 42.77 43.42 46.80 35.93L40.90 33.62C39.89 36.00 38.66 38.38 37.37 40.75L31.90 41.18C34.78 36.50 37.73 30.74 39.82 25.20L33.70 23.69C31.82 30.17 28.37 36.94 27.22 38.74C26.14 40.61 25.13 41.83 24.05 42.12C24.70 43.63 25.70 46.44 25.99 47.66C26.86 47.23 28.44 46.87 34.20 46.22C31.82 49.90 29.81 52.85 28.80 54.00C26.86 56.38 25.49 58.03 23.98 58.32C24.70 59.83 25.63 62.71 25.92 63.86C26.86 63.43 28.08 63.00 33.05 62.28L33.05 82.51C33.05 83.23 32.83 83.38 32.04 83.45C31.18 83.52 28.87 83.52 26.14 83.38C26.86 84.89 27.79 87.26 28.01 88.85C31.75 88.85 34.42 88.70 36.29 87.77C38.16 86.90 38.59 85.32 38.59 82.58L38.59 61.49ZM40.10 66.60C41.40 71.14 42.84 77.11 43.42 81.07L48.46 79.70C47.81 75.89 46.30 69.98 44.93 65.52ZM69.19 57.17L69.19 51.70L63.94 51.70C65.02 48.10 66.17 43.42 67.18 39.38L62.06 38.23C61.56 42.19 60.26 47.88 59.11 51.70L47.09 51.70L47.09 57.17L55.22 57.17L55.22 65.66L48.46 65.66L48.46 71.14L55.22 71.14L55.22 88.99L61.27 88.99L61.27 71.14L68.26 71.14L68.26 65.66L61.27 65.66L61.27 57.17Z"/></svg>
