<svg xmlns="http://www.w3.org/2000/svg" xmlns:xlink="http://www.w3.org/1999/xlink" width="72.00000000000001" height="106.56000000000002"><path fill="red" stroke="red" d="M35.93 30.53L54.00 30.53L54.00 35.71L41.47 35.71L41.47 47.38L35.93 47.38ZM54.00 47.38L46.51 47.38L46.51 40.18L54.00 40.18ZM30.38 52.63L59.40 52.63L59.40 72.29C59.40 72.94 59.11 73.22 58.32 73.22C57.60 73.30 55.15 73.30 52.56 73.15C53.21 74.66 53.93 76.90 54.14 78.48C58.32 78.48 61.13 78.41 63.07 77.54C64.94 76.68 65.45 75.10 65.45 72.29L65.45 47.38L60.05 47.38L60.05 25.42L30.10 25.42L30.10 47.38L24.55 47.38L24.55 78.48L30.38 78.48ZM49.10 67.46L40.46 67.46L40.46 61.06L49.10 61.06ZM54.07 56.52L35.50 56.52L35.50 74.45L40.46 74.45L40.46 71.93L54.07 71.93ZM16.99 34.99C16.06 31.82 14.40 27.07 13.03 23.33L7.20 25.06C8.35 28.87 10.08 33.98 10.94 37.15ZM18.65 55.87L17.64 56.16L13.61 56.16C15.41 51.19 17.42 45.29 19.01 40.18L3.46 40.18L3.46 46.22L10.73 46.22C8.86 51.84 6.77 57.67 5.04 61.92L14.26 61.92C13.10 66.82 11.45 72.00 9.50 75.89C7.27 77.33 4.75 80.14 2.23 83.38L6.77 89.57C8.71 85.18 11.23 80.50 12.82 80.50C14.40 80.50 16.99 83.02 19.87 84.67C25.13 87.70 31.32 88.49 40.75 88.49C49.18 88.49 62.35 88.06 67.90 87.70C68.04 85.90 69.12 82.58 69.91 80.78C61.92 81.79 49.75 82.44 41.04 82.44C32.54 82.44 25.99 82.01 21.02 78.98C18.72 77.54 17.14 76.32 15.77 75.60C18.36 70.20 20.30 63.43 21.67 57.02Z"/></svg>
