<svg xmlns="http://www.w3.org/2000/svg" xmlns:xlink="http://www.w3.org/1999/xlink" width="72.00000000000001" height="106.56000000000002"><path fill="red" stroke="red" d="M29.02 54.72L14.62 54.72L14.62 41.40L29.02 41.40ZM14.62 75.31L14.62 60.91L29.02 60.91L29.02 75.31ZM35.42 23.62L29.02 23.62L29.02 34.99L14.62 34.99L14.62 23.62L8.21 23.62L8.21 34.99L2.95 34.99L2.95 41.40L8.21 41.40L8.21 87.41L14.62 87.41L14.62 81.58L29.02 81.58L29.02 86.90L35.42 86.90L35.42 41.40L40.46 41.40L40.46 34.99L35.42 34.99ZM49.46 32.98L60.19 32.98C57.89 38.59 54.65 46.01 51.62 51.62C59.26 57.60 61.63 62.78 61.63 67.03C61.63 69.48 61.06 71.42 59.40 72.22C58.32 72.72 56.95 72.94 55.58 72.94C54.00 73.08 51.77 73.01 49.46 72.86ZM64.30 26.42L63.29 26.71L42.98 26.71L42.98 89.21L49.46 89.21L49.46 73.73C50.33 75.53 50.83 77.76 50.98 79.34C53.57 79.49 56.45 79.49 58.68 79.27C60.70 79.06 62.64 78.48 63.94 77.54C66.82 75.82 68.11 72.29 68.11 67.68C68.11 62.78 66.31 57.24 58.68 50.69C62.21 44.14 66.17 36.29 69.19 29.59Z"/></svg>
