<svg xmlns="http://www.w3.org/2000/svg" xmlns:xlink="http://www.w3.org/1999/xlink" width="72.00000000000001" height="106.56000000000002"><path fill="red" stroke="red" d="M31.46 55.58L16.85 55.58L16.85 49.68L31.46 49.68ZM16.85 67.32C16.85 66.60 16.85 65.88 16.85 65.16L16.85 61.27L31.46 61.27L31.46 67.32ZM17.35 23.04C16.78 25.92 16.06 28.66 15.26 31.25L3.74 31.25L3.74 37.37L13.03 37.37C10.30 44.14 6.62 49.90 2.09 54.07C3.38 55.44 5.40 58.46 6.12 59.83C7.78 58.25 9.29 56.52 10.73 54.58L10.73 65.09C10.73 71.57 10.37 79.27 5.98 84.67C7.34 85.54 9.72 87.98 10.58 89.28C14.26 84.96 15.77 78.91 16.42 73.01L31.46 73.01L31.46 82.01C31.46 82.94 31.18 83.23 30.24 83.23C29.38 83.30 26.28 83.30 23.11 83.16C23.98 84.67 24.84 87.26 25.13 88.78C29.74 88.85 32.83 88.70 34.85 87.77C36.86 86.83 37.51 85.10 37.51 82.08L37.51 43.99L16.99 43.99C18.00 41.83 18.86 39.67 19.73 37.37L40.82 37.37L40.82 31.25L21.82 31.25C22.46 29.02 23.04 26.64 23.62 24.34ZM64.01 27.00L63.00 27.29L43.13 27.29L43.13 89.28L49.46 89.28L49.46 33.55L60.26 33.55C58.25 39.17 55.44 46.73 52.78 52.27C59.40 58.32 61.34 63.65 61.34 67.97C61.34 70.49 60.91 72.36 59.47 73.22C58.68 73.73 57.60 74.02 56.52 74.02C55.22 74.09 53.42 74.09 51.48 73.94C52.56 75.67 53.14 78.55 53.21 80.28C55.30 80.35 57.46 80.35 59.26 80.14C61.06 79.92 62.71 79.42 64.01 78.48C66.53 76.82 67.61 73.37 67.61 68.69C67.61 63.72 66.02 58.03 59.33 51.48C62.50 45.22 65.95 36.86 68.69 29.95Z"/></svg>
