<svg xmlns="http://www.w3.org/2000/svg" xmlns:xlink="http://www.w3.org/1999/xlink" width="72.00000000000001" height="106.56000000000002"><path fill="red" stroke="red" d="M40.10 33.34L23.98 33.34L27.43 31.82C26.57 29.45 24.55 25.85 22.82 23.11L16.92 25.34C18.36 27.79 20.02 30.96 20.95 33.34L4.82 33.34L4.82 39.24L40.10 39.24ZM13.32 40.10C10.87 44.93 7.06 50.11 3.31 53.64C4.39 54.72 6.34 57.53 7.06 58.61C11.16 54.43 15.91 47.88 18.94 41.98ZM26.64 52.70C25.63 56.23 24.26 59.62 22.68 62.78C20.02 60.12 17.21 57.46 14.69 55.08L10.73 59.33C13.54 61.99 16.56 65.09 19.44 68.18C15.26 74.38 9.72 79.56 3.10 83.38C4.46 84.46 6.62 86.83 7.49 88.06C13.97 84.17 19.44 78.98 23.76 73.01C26.93 76.68 29.66 80.14 31.39 82.94L35.71 77.90C33.84 74.95 30.74 71.35 27.22 67.54C29.45 63.43 31.32 58.97 32.76 54.29ZM25.70 43.06C29.52 47.45 34.06 53.50 35.93 57.38L40.75 53.42C38.66 49.68 33.98 43.99 30.24 39.74ZM63.50 26.50L62.50 26.78L43.13 26.78L43.13 89.14L49.32 89.14L49.32 32.62L59.76 32.62C57.67 38.16 54.72 45.72 51.91 51.48C58.82 57.60 60.91 62.78 60.91 67.10C60.91 69.48 60.41 71.42 58.97 72.29C58.03 72.79 56.95 73.01 55.73 73.01C54.36 73.08 52.27 73.08 50.18 72.86C51.26 74.66 51.91 77.54 51.98 79.20C54.22 79.34 56.59 79.34 58.54 79.13C60.41 78.91 62.14 78.34 63.43 77.54C66.10 75.82 67.25 72.36 67.25 67.82C67.25 62.86 65.66 57.31 58.75 50.69C61.92 44.28 65.52 36.29 68.33 29.52Z"/></svg>
