<svg xmlns="http://www.w3.org/2000/svg" xmlns:xlink="http://www.w3.org/1999/xlink" width="72.00000000000001" height="106.56000000000002"><path fill="red" stroke="red" d="M36.72 37.94L29.66 37.94L29.66 30.24L36.72 30.24ZM41.54 25.20L25.13 25.20L25.13 42.98L41.54 42.98ZM7.06 52.42L39.74 52.42L39.74 46.80L7.06 46.80ZM16.78 37.94L10.15 37.94L10.15 30.24L16.78 30.24ZM21.74 25.20L5.47 25.20L5.47 42.98L21.74 42.98ZM3.60 62.28L12.02 62.28C11.09 65.88 9.79 69.77 8.57 72.58L31.68 72.58C31.03 78.34 30.17 81.00 29.16 82.01C28.44 82.51 27.65 82.58 26.35 82.58C24.62 82.58 20.30 82.51 16.20 82.15C17.35 83.81 18.22 86.18 18.29 87.91C22.46 88.13 26.42 88.13 28.58 87.98C31.10 87.84 32.83 87.41 34.27 85.97C36.29 84.10 37.30 79.70 38.23 69.62C38.45 68.83 38.52 67.10 38.52 67.10L16.92 67.10C17.42 65.52 17.93 63.94 18.36 62.28L42.55 62.28L42.55 56.59L3.53 56.59ZM64.15 25.63L63.29 25.92L45.00 25.92L45.00 88.85L51.26 88.85L51.26 32.18L60.62 32.18C58.75 37.66 56.23 44.93 53.71 50.62C59.98 56.81 61.70 61.99 61.70 66.31C61.78 68.90 61.27 70.92 59.90 71.78C59.11 72.29 58.10 72.50 57.02 72.58C55.80 72.58 53.93 72.58 51.98 72.36C52.99 74.09 53.57 76.68 53.64 78.34C55.73 78.41 57.89 78.41 59.62 78.19C61.34 77.98 62.93 77.47 64.15 76.68C66.53 74.95 67.61 71.50 67.61 66.96C67.61 62.06 66.17 56.45 59.90 49.82C62.86 43.27 66.10 35.06 68.62 28.44Z"/></svg>
