<svg xmlns="http://www.w3.org/2000/svg" xmlns:xlink="http://www.w3.org/1999/xlink" width="72.00000000000001" height="106.56000000000002"><path fill="red" stroke="red" d="M21.60 73.73L50.40 73.73L50.40 68.54L21.60 68.54ZM39.96 44.78L31.68 44.78L31.68 38.45L39.96 38.45ZM55.15 50.26L55.15 59.40C54.50 59.47 53.93 59.47 53.42 59.47L47.74 59.47C46.37 59.47 46.15 58.68 46.15 56.45L46.15 50.26ZM16.70 79.78L16.70 50.26L25.85 50.26C25.56 54.94 24.05 60.05 18.00 63.43C19.22 64.30 21.17 66.24 22.03 67.32C29.66 63.29 31.39 56.59 31.61 50.26L39.96 50.26L39.96 56.30C39.96 61.99 41.18 64.44 46.80 64.44L53.64 64.44L55.15 64.44L55.15 79.78ZM68.04 38.45L68.04 32.83L49.39 32.83C51.55 30.46 53.71 27.50 55.66 24.70L49.03 22.90C47.45 25.85 44.64 29.88 42.19 32.83L25.78 32.83L29.59 31.03C28.30 28.58 25.42 25.06 22.90 22.54L17.28 24.98C19.37 27.36 21.82 30.53 23.18 32.83L3.89 32.83L3.89 38.45L25.92 38.45L25.92 44.78L10.22 44.78L10.22 89.21L16.70 89.21L16.70 85.32L55.15 85.32L55.15 88.78L61.92 88.78L61.92 44.78L46.15 44.78L46.15 38.45Z"/></svg>
