<svg xmlns="http://www.w3.org/2000/svg" xmlns:xlink="http://www.w3.org/1999/xlink" width="72.00000000000001" height="106.56000000000002"><path fill="red" stroke="red" d="M11.59 67.61L11.59 72.50L22.25 72.50L22.25 67.61ZM24.55 57.02L24.05 57.02L22.32 57.02C21.67 57.02 21.53 56.95 21.53 56.02L21.53 45.22L24.55 45.22ZM9.14 78.84L9.14 62.78C9.86 63.29 10.58 64.08 11.02 64.51C14.62 60.77 15.34 55.30 15.34 51.19L15.34 45.22L18.14 45.22L18.14 56.09C18.14 59.83 19.01 60.62 21.96 60.62L24.55 60.62L24.55 78.84ZM12.10 45.22L12.10 51.12C12.10 54.43 11.66 58.32 9.14 61.49L9.14 45.22ZM15.34 31.54L18.14 31.54L18.14 39.74L15.34 39.74ZM22.54 31.54L30.46 31.54L30.46 26.21L3.24 26.21L3.24 31.54L11.09 31.54L11.09 39.74L4.39 39.74L4.39 88.78L9.14 88.78L9.14 84.10L24.55 84.10L24.55 87.77L29.52 87.77L29.52 39.74L22.54 39.74ZM60.91 24.62L60.91 54.36C59.76 50.83 58.32 47.09 56.74 43.92L54.50 45.07L54.50 25.92L49.25 25.92L49.25 55.22C48.38 51.70 47.23 47.81 45.94 44.57L43.06 45.94L43.06 24.77L37.66 24.77L37.66 53.21C37.66 54.50 37.66 55.80 37.66 57.10C36.79 53.21 35.57 48.53 34.20 44.71L30.24 46.58C31.82 51.55 33.55 58.18 33.98 62.42L37.51 60.91C37.08 70.20 35.57 78.84 30.53 85.97C31.97 86.76 34.34 88.34 35.42 89.50C42.19 79.49 43.06 66.60 43.06 53.21L43.06 48.60C44.57 53.14 45.86 58.32 46.30 61.99L49.25 60.62L49.25 87.48L54.50 87.48L54.50 49.32C56.16 53.64 57.82 58.32 58.46 61.78L60.91 60.48L60.91 89.21L66.53 89.21L66.53 24.62Z"/></svg>
