<svg xmlns="http://www.w3.org/2000/svg" xmlns:xlink="http://www.w3.org/1999/xlink" width="72.00000000000001" height="106.56000000000002"><path fill="red" stroke="red" d="M11.66 72.36L24.05 72.36L24.05 67.39L11.66 67.39ZM19.37 39.46L16.63 39.46L16.63 31.54L19.37 31.54ZM25.85 57.02C25.70 57.02 25.49 57.02 25.20 57.02L23.54 57.02C22.97 57.02 22.82 56.95 22.82 56.02L22.82 45.00L25.85 45.00ZM9.94 78.70L9.94 62.57C10.73 63.14 11.81 64.15 12.31 64.73C15.84 60.91 16.63 55.37 16.63 51.19L16.63 45.00L19.37 45.00L19.37 56.09C19.37 59.90 20.23 60.77 23.18 60.77L25.78 60.77L25.85 60.77L25.85 78.70ZM13.10 45.00L13.10 51.12C13.10 54.58 12.67 58.54 9.94 61.85L9.94 45.00ZM3.67 31.54L12.17 31.54L12.17 39.46L5.18 39.46L5.18 89.06L9.94 89.06L9.94 84.02L25.85 84.02L25.85 87.98L30.74 87.98L30.74 39.46L23.83 39.46L23.83 31.54L32.47 31.54L32.47 26.21L3.67 26.21ZM58.97 62.78L58.97 69.12L42.12 69.12L42.12 62.78ZM42.12 80.78L42.12 74.45L58.97 74.45L58.97 80.78ZM36.43 89.14L42.12 89.14L42.12 86.18L58.97 86.18L58.97 88.78L64.94 88.78L64.94 57.24L36.43 57.24ZM45.79 37.94L55.15 37.94L55.15 46.22L45.79 46.22ZM60.84 46.22L60.84 37.94L66.74 37.94L66.74 32.04L60.84 32.04L60.84 23.18L55.15 23.18L55.15 32.04L45.79 32.04L45.79 23.18L40.10 23.18L40.10 32.04L33.70 32.04L33.70 37.94L40.10 37.94L40.10 46.22L32.54 46.22L32.54 52.20L68.76 52.20L68.76 46.22Z"/></svg>
