<svg xmlns="http://www.w3.org/2000/svg" xmlns:xlink="http://www.w3.org/1999/xlink" width="72.00000000000001" height="106.56000000000002"><path fill="red" stroke="red" d="M26.06 70.06L26.06 67.25L37.08 67.25L37.08 70.06ZM26.06 61.13L37.08 61.13L37.08 63.86L26.06 63.86ZM55.44 63.86L43.27 63.86L43.27 61.13L55.44 61.13ZM55.44 70.06L43.27 70.06L43.27 67.25L55.44 67.25ZM43.27 80.64L63.29 80.64L63.29 76.46L43.27 76.46L43.27 73.51L61.56 73.51L61.56 57.67L20.23 57.67L20.23 73.51L37.08 73.51L37.08 76.46L18.79 76.46L18.79 80.64L37.08 80.64L37.08 83.88L14.33 83.88L14.33 88.06L67.10 88.06L67.10 83.88L43.27 83.88ZM67.75 32.83L67.75 28.08L48.46 28.08C49.25 26.64 50.04 25.20 50.69 23.76L45.29 22.90C43.49 26.86 40.32 31.46 35.71 35.14L35.71 34.20L23.47 34.20L23.47 31.25L34.42 31.25L34.42 26.78L23.47 26.78L23.47 23.11L17.78 23.11L17.78 26.78L6.84 26.78L6.84 31.25L17.78 31.25L17.78 34.20L4.90 34.20L4.90 38.66L15.41 38.66C12.02 41.76 7.13 44.93 3.24 46.66C4.03 47.81 5.11 50.11 5.40 51.41C9.36 49.54 14.11 46.01 17.78 42.34L17.78 49.18L23.47 49.18L23.47 43.27C26.78 45.00 30.53 47.23 32.33 48.46L35.57 44.21C33.62 43.20 26.93 40.25 23.47 38.74L23.47 38.66L35.71 38.66L35.71 37.15C36.58 37.87 37.58 38.81 38.16 39.60C40.90 37.51 43.20 35.21 45.14 32.83L57.10 32.83C55.87 34.92 54.29 36.79 52.27 38.38C49.82 37.22 47.38 36.07 45.22 35.06L42.26 38.88C43.92 39.67 45.72 40.54 47.52 41.47C44.14 43.20 40.18 44.57 35.93 45.58C36.79 46.66 38.16 49.03 38.66 50.18C43.85 48.74 48.67 46.73 52.70 44.14C57.02 46.37 61.06 48.74 63.79 50.47L10.15 50.47L10.15 59.83C10.15 67.18 9.22 77.26 2.74 84.60C4.03 85.39 6.55 87.62 7.49 88.78C14.69 80.71 16.20 68.40 16.20 59.98L16.20 55.15L67.18 55.15L67.18 50.47L64.22 50.47L67.10 46.22C64.66 44.71 60.98 42.77 57.10 40.75C59.47 38.52 61.49 35.93 62.93 32.83Z"/></svg>
