<svg xmlns="http://www.w3.org/2000/svg" xmlns:xlink="http://www.w3.org/1999/xlink" width="72.00000000000001" height="106.56000000000002"><path fill="red" stroke="red" d="M22.10 77.76L22.10 59.33L32.40 59.33L32.40 53.64L22.10 53.64L22.10 46.80L29.52 46.80L29.52 41.18L11.59 41.18C14.18 38.59 16.63 35.71 18.79 32.62C23.54 35.57 28.30 39.17 31.25 42.05L34.34 36.50C31.39 33.91 26.78 30.60 21.96 27.86C22.54 26.86 23.11 25.92 23.62 24.98L18.14 22.68C14.69 29.45 8.42 35.86 2.52 39.96C3.46 41.62 4.90 45.29 5.33 46.73C6.62 45.79 7.78 44.78 9.07 43.63L9.07 46.80L16.27 46.80L16.27 53.64L4.75 53.64L4.75 59.33L16.27 59.33L16.27 78.77C11.52 79.63 7.20 80.35 3.82 80.93L5.26 86.90C13.03 85.32 23.54 83.16 33.41 81.07L33.12 75.74ZM6.26 63.72C7.42 67.82 8.64 73.15 8.93 76.68L13.75 75.31C13.32 71.93 12.10 66.67 10.80 62.57ZM27.79 75.74C29.02 72.58 30.60 67.61 31.97 63.22L26.78 61.85C26.21 65.59 24.77 71.06 23.69 74.52ZM55.94 65.66C53.28 61.27 47.23 55.15 41.98 50.83L37.37 54.79C42.48 59.26 48.38 65.66 50.98 70.06ZM67.10 35.21L44.50 35.21C45.65 31.75 46.80 28.15 47.66 24.48L41.26 23.11C39.17 32.54 35.42 41.76 30.60 47.52C32.04 48.46 34.78 50.47 36.00 51.55C38.16 48.67 40.18 45.22 41.90 41.33L60.84 41.33C60.26 68.90 59.40 79.70 57.53 81.94C56.81 82.87 56.02 83.09 54.79 83.09C53.06 83.09 49.25 83.09 45.00 82.73C46.15 84.53 47.02 87.26 47.16 88.99C50.98 89.21 54.94 89.35 57.31 88.99C59.83 88.63 61.56 87.91 63.14 85.68C65.74 82.22 66.38 71.21 67.10 38.38Z"/></svg>
