<svg xmlns="http://www.w3.org/2000/svg" xmlns:xlink="http://www.w3.org/1999/xlink" width="72.00000000000001" height="106.56000000000002"><path fill="red" stroke="red" d="M31.75 36.58C29.09 33.91 24.70 30.67 20.30 27.86C20.81 26.93 21.31 25.99 21.82 24.98L16.70 22.75C13.46 29.52 7.78 35.93 2.38 39.96C3.17 41.62 4.54 45.29 4.90 46.73C6.05 45.79 7.20 44.78 8.35 43.63L8.35 46.80L14.62 46.80L14.62 53.64L4.54 53.64L4.54 59.33L14.62 59.33L14.62 78.84C10.37 79.63 6.55 80.35 3.53 80.93L4.90 86.90C11.88 85.32 21.31 83.30 30.24 81.22L29.88 75.89L20.09 77.83L20.09 59.33L29.52 59.33L29.52 53.64L20.09 53.64L20.09 46.80L27.07 46.80L27.07 41.18L10.73 41.18C13.10 38.59 15.41 35.71 17.35 32.69C21.67 35.64 26.14 39.24 28.87 42.05ZM25.34 75.74C26.64 72.58 27.94 67.61 29.23 63.22L24.41 61.85C23.83 65.59 22.54 71.06 21.53 74.52ZM5.47 63.72C6.55 67.90 7.63 73.15 7.92 76.68L12.38 75.31C12.02 71.93 10.87 66.67 9.65 62.57ZM39.46 80.06L39.46 65.16L60.70 65.16L60.70 80.06ZM41.26 32.18L58.82 32.18L58.82 44.78L41.26 44.78ZM51.41 59.11C51.98 56.59 52.56 53.57 53.06 50.76L65.52 50.76L65.52 26.21L34.92 26.21L34.92 50.76L46.08 50.76C45.86 53.50 45.50 56.52 45.07 59.11L33.12 59.11L33.12 89.14L39.46 89.14L39.46 86.11L60.70 86.11L60.70 88.85L67.32 88.85L67.32 59.11Z"/></svg>
