<svg xmlns="http://www.w3.org/2000/svg" xmlns:xlink="http://www.w3.org/1999/xlink" width="72.00000000000001" height="106.56000000000002"><path fill="red" stroke="red" d="M64.01 35.93C63.43 41.83 61.99 50.26 60.70 55.44L64.87 56.52C66.38 51.48 67.82 43.42 69.12 36.94ZM51.98 55.51C51.34 50.83 49.46 42.55 47.74 36.07L43.49 37.15C45.07 43.56 46.80 52.13 47.38 57.02ZM17.06 78.19L17.06 59.33L24.77 59.33L24.77 53.64L17.06 53.64L17.06 46.80L22.82 46.80L22.82 41.18L9.43 41.18C11.52 38.45 13.61 35.42 15.34 32.26C18.00 34.85 20.81 37.73 22.32 39.67L26.06 35.35C24.26 33.26 20.81 30.02 17.86 27.29C18.22 26.42 18.50 25.56 18.86 24.77L13.68 22.97C11.16 29.38 6.98 35.57 2.66 39.60C3.46 41.18 4.75 44.71 5.04 46.08C5.90 45.36 6.62 44.42 7.49 43.49L7.49 46.80L11.88 46.80L11.88 53.64L4.18 53.64L4.18 59.33L11.88 59.33L11.88 79.20C8.64 79.85 5.76 80.42 3.31 80.86L4.82 86.76C10.80 85.46 18.36 83.59 25.63 81.79L25.06 76.46ZM4.39 63.72C5.40 67.82 6.48 73.15 6.84 76.68L10.94 75.60C10.51 72.22 9.29 66.89 8.28 62.86ZM21.46 75.60C22.54 72.43 23.76 67.32 24.91 63.07L20.38 61.92C19.87 65.59 18.79 71.06 17.86 74.52ZM46.37 62.42C45.22 60.77 40.18 53.57 38.74 51.70L38.74 49.97L44.21 49.97L44.21 43.70L38.74 43.70L38.74 31.25C40.97 30.67 43.20 30.02 45.07 29.23L41.33 24.05C37.37 25.85 30.82 27.65 25.13 28.66C25.85 30.17 26.64 32.18 26.86 33.62C28.94 33.34 31.10 32.90 33.26 32.47L33.26 43.70L25.70 43.70L25.70 49.97L32.47 49.97C30.74 57.02 27.14 65.23 23.54 69.62C24.55 71.14 25.99 73.66 26.50 75.46C29.09 72.36 31.32 67.46 33.26 62.28L33.26 89.21L38.74 89.21L38.74 58.97C40.46 62.21 42.41 65.88 43.27 68.11ZM58.97 23.90L53.28 23.90L53.28 41.90C53.28 55.22 52.20 71.78 42.05 84.60C43.34 85.61 45.22 87.91 46.08 89.35C51.48 82.80 54.58 75.53 56.45 68.04C58.25 76.90 61.06 84.24 65.81 88.78C66.67 87.05 68.62 84.67 69.98 83.52C63.07 77.83 60.12 64.66 58.82 50.26C58.90 47.45 58.97 44.64 58.97 41.90Z"/></svg>
