<svg xmlns="http://www.w3.org/2000/svg" xmlns:xlink="http://www.w3.org/1999/xlink" width="72.00000000000001" height="106.56000000000002"><path fill="red" stroke="red" d="M55.15 33.19L41.40 33.19L41.40 30.38L55.15 30.38ZM41.40 46.66L41.40 43.49L55.15 43.49L55.15 46.66ZM55.15 39.82L41.40 39.82L41.40 36.86L55.15 36.86ZM35.71 46.66L29.23 46.66L29.23 51.55L55.15 51.55L55.15 53.86L60.84 53.86L60.84 51.55L68.62 51.55L68.62 46.66L60.84 46.66L60.84 30.38L66.02 30.38L66.02 25.49L30.67 25.49L30.67 30.38L35.71 30.38ZM40.54 62.86L34.42 62.86L34.42 59.47L40.54 59.47ZM34.42 78.41L34.42 74.45L40.54 74.45L40.54 77.62ZM40.54 70.34L34.42 70.34L34.42 66.89L40.54 66.89ZM27.79 59.47L29.74 59.47L29.74 79.06L26.42 79.42L26.14 75.60L18.43 77.33L18.43 59.33L26.14 59.33L26.14 53.64L18.43 53.64L18.43 46.80L24.55 46.80L24.55 41.18L9.86 41.18C11.88 38.66 13.90 35.78 15.70 32.69C19.51 35.86 23.54 39.53 26.06 42.12L29.38 37.22C26.71 34.63 22.39 31.10 18.22 28.01C18.72 27.00 19.22 25.92 19.66 24.98L15.19 22.68C12.24 29.45 7.27 35.86 2.38 39.96C3.17 41.62 4.39 45.29 4.68 46.73C5.83 45.72 6.91 44.57 7.99 43.34L7.99 46.80L13.32 46.80L13.32 53.64L4.32 53.64L4.32 59.33L13.32 59.33L13.32 78.48C9.65 79.34 6.26 79.99 3.60 80.57L4.82 86.62C10.73 85.10 18.50 83.09 26.06 81.00L26.50 84.24C30.60 83.59 35.42 82.87 40.54 82.15L40.54 88.85L45.29 88.85L45.29 81.36L45.86 81.29L45.65 76.97L45.29 77.04L45.29 59.47L47.38 59.47L47.38 54.94L27.79 54.94ZM5.11 63.72C6.12 67.82 7.06 73.15 7.34 76.68L11.52 75.31C11.16 71.93 10.15 66.60 9.07 62.57ZM23.11 75.82C24.12 72.65 25.42 67.68 26.64 63.36L22.10 61.85C21.53 65.59 20.38 71.06 19.51 74.52ZM54.94 78.55L54.94 74.59L61.49 74.59L61.49 78.55ZM61.49 59.69L61.49 63.00L54.94 63.00L54.94 59.69ZM54.94 67.10L61.49 67.10L61.49 70.56L54.94 70.56ZM68.76 78.55L66.31 78.55L66.31 59.69L68.54 59.69L68.54 55.08L48.46 55.08L48.46 59.69L50.18 59.69L50.18 78.55L47.59 78.55L47.59 83.16L61.49 83.16L61.49 89.14L66.31 89.14L66.31 83.16L68.76 83.16Z"/></svg>
