<svg xmlns="http://www.w3.org/2000/svg" xmlns:xlink="http://www.w3.org/1999/xlink" width="72.00000000000001" height="106.56000000000002"><path fill="red" stroke="red" d="M22.68 25.99L21.74 26.21L5.90 26.21L5.90 89.28L11.81 89.28L11.81 32.26L19.44 32.26C18.14 37.08 16.27 43.49 14.47 48.31C19.15 53.57 20.30 58.25 20.30 61.85C20.30 63.94 19.94 65.59 18.94 66.31C18.36 66.74 17.64 66.96 16.85 66.96C15.77 67.03 14.54 67.03 13.10 66.89C14.04 68.47 14.54 71.06 14.62 72.65C16.27 72.72 18.07 72.72 19.37 72.58C20.88 72.36 22.18 71.86 23.26 71.21C25.34 69.70 26.21 66.67 26.21 62.57C26.21 58.32 25.13 53.35 20.30 47.59C22.54 41.98 25.06 34.49 27.07 28.51ZM64.15 56.16L33.70 56.16L33.70 68.62C33.70 74.16 33.26 81.00 29.30 86.11C30.67 86.69 33.26 88.56 34.34 89.64C38.74 83.95 39.60 75.31 39.60 68.76L39.60 61.13L57.74 61.13L57.74 71.21C50.90 72.58 44.14 74.02 39.38 74.74L41.33 79.85C46.15 78.48 51.91 76.97 57.74 75.31L57.74 82.66C57.74 83.45 57.46 83.74 56.59 83.74C55.80 83.81 52.99 83.81 50.11 83.74C50.83 85.18 51.62 87.26 51.91 88.92C56.30 88.92 59.47 88.92 61.56 88.06C63.58 87.12 64.15 85.68 64.15 82.73ZM41.26 65.30C44.93 67.10 49.61 70.13 51.98 71.86L54.86 68.11C52.49 66.38 47.88 63.94 43.99 62.06ZM54.86 48.31L54.86 43.56L65.66 43.56L65.66 38.74L39.96 38.74C40.46 37.58 40.97 36.50 41.47 35.35L67.82 35.35L67.82 29.66L43.56 29.66C44.14 27.86 44.64 26.14 45.07 24.34L38.95 23.18C38.45 25.42 37.80 27.58 37.15 29.66L27.79 29.66L27.79 35.35L34.78 35.35C31.97 41.26 28.22 46.30 23.54 49.97C24.84 50.98 27.22 53.42 28.01 54.65C32.26 51.05 35.86 46.44 38.74 41.11L38.74 43.56L48.82 43.56L48.82 48.31L34.56 48.31L34.56 53.42L67.90 53.42L67.90 48.31Z"/></svg>
