<svg xmlns="http://www.w3.org/2000/svg" xmlns:xlink="http://www.w3.org/1999/xlink" width="72.00000000000001" height="106.56000000000002"><path fill="red" stroke="red" d="M41.47 33.05C40.82 35.06 40.10 37.15 39.24 39.02C37.51 37.58 35.50 35.86 33.62 34.56C33.91 34.06 34.20 33.55 34.49 33.05ZM37.73 51.34C41.83 46.08 45.14 39.53 47.23 31.75C49.32 39.10 52.49 45.86 56.52 51.34ZM60.91 31.61C59.62 34.56 57.96 37.80 56.16 40.39C54.72 37.58 53.57 34.63 52.56 31.61ZM34.34 44.14C30.24 44.57 26.86 45.00 23.83 45.29L24.55 49.54C27.58 49.10 30.46 48.60 33.77 48.02C31.10 51.34 28.08 54.07 24.91 55.87C26.06 56.88 27.65 58.68 28.37 59.98C30.96 58.32 33.48 56.09 35.86 53.57L35.86 56.66L57.38 56.66L57.38 52.42C59.83 55.44 62.64 58.10 65.74 60.05C66.46 58.54 68.26 56.45 69.62 55.37C65.59 53.14 61.99 49.54 59.11 45.29C62.71 41.04 66.17 34.70 68.26 28.80L64.51 26.64L63.36 26.93L50.90 26.93L50.90 30.17L47.38 31.03L47.74 29.52L44.28 28.30L43.34 28.51L36.79 28.51C37.37 27.14 37.94 25.78 38.45 24.34L33.26 23.18C31.10 29.88 27.14 36.22 22.25 40.32C23.47 41.11 25.56 42.77 26.42 43.70C28.15 42.05 29.74 40.25 31.32 38.16C33.34 39.74 35.50 41.69 37.01 43.20C36.22 44.57 35.42 45.86 34.49 47.09ZM21.89 25.78L21.02 25.99L5.62 25.99L5.62 88.99L11.38 88.99L11.38 32.04L18.79 32.04C17.57 36.79 15.84 42.77 14.11 47.59C18.58 52.99 19.66 57.82 19.66 61.49C19.66 63.65 19.22 65.52 18.29 66.24C17.71 66.67 17.06 66.82 16.27 66.89C15.26 66.96 14.11 66.89 12.74 66.82C13.61 68.33 14.11 70.85 14.18 72.36C15.77 72.50 17.50 72.43 18.72 72.29C20.23 72.07 21.46 71.64 22.46 70.92C24.48 69.34 25.34 66.31 25.34 62.14C25.34 57.89 24.26 52.70 19.73 46.94C21.82 41.18 24.19 34.06 26.14 28.08ZM32.90 71.14C30.60 75.10 27.00 79.70 23.76 82.80C25.27 83.59 27.79 85.25 29.09 86.26C32.18 82.94 36.22 77.62 38.95 73.15ZM64.66 68.04L64.66 62.57L29.02 62.57L29.02 68.04L43.70 68.04L43.70 89.06L50.04 89.06L50.04 68.04ZM54.43 73.44C57.82 77.26 62.21 82.66 64.30 85.75L69.41 82.37C67.25 79.34 62.64 74.16 59.33 70.49Z"/></svg>
