<svg xmlns="http://www.w3.org/2000/svg" xmlns:xlink="http://www.w3.org/1999/xlink" width="72.00000000000001" height="106.56000000000002"><path fill="red" stroke="red" d="M63.29 26.50C61.85 30.46 59.18 35.93 57.17 39.31L61.92 41.47C64.01 38.16 66.53 33.26 68.54 28.80ZM43.34 39.46C42.41 36.36 40.39 30.89 38.66 26.86L33.41 28.44C35.06 32.69 36.94 38.16 37.80 41.47ZM10.66 54.00L15.77 54.00L15.77 61.42L10.66 61.42ZM25.78 61.42L20.95 61.42L20.95 54.00L25.78 54.00ZM14.54 34.85L22.10 34.85L22.10 39.67L14.54 39.67ZM32.33 77.26L32.33 71.64L21.38 71.64L21.38 66.60L31.03 66.60L31.03 48.89L21.38 48.89L21.38 44.86L28.15 44.86L28.15 34.85L32.76 34.85L32.76 29.38L28.15 29.38L28.15 23.26L22.10 23.26L22.10 29.38L14.54 29.38L14.54 23.26L8.78 23.26L8.78 29.38L3.31 29.38L3.31 34.85L8.78 34.85L8.78 44.86L15.26 44.86L15.26 48.89L5.40 48.89L5.40 66.60L15.26 66.60L15.26 71.64L3.24 71.64L3.24 77.26L15.26 77.26L15.26 89.28L21.38 89.28L21.38 77.26ZM66.46 43.06L53.71 43.06L53.71 23.18L47.23 23.18L47.23 43.06L34.42 43.06L34.42 63.72C34.42 70.70 34.13 79.34 30.60 85.54C32.11 86.26 34.78 88.20 35.93 89.35C39.96 82.44 40.61 71.78 40.61 63.79L40.61 48.60L60.12 48.60L60.12 64.87C52.85 66.53 45.58 68.18 40.54 69.19L42.62 74.88C47.74 73.51 54.00 72.00 60.12 70.34L60.12 81.14C60.12 82.15 59.69 82.51 58.61 82.51C57.60 82.51 53.93 82.58 50.33 82.44C51.26 84.02 52.34 86.76 52.70 88.42C57.82 88.42 61.20 88.34 63.43 87.26C65.74 86.33 66.46 84.53 66.46 81.29ZM41.69 57.02C46.44 58.25 52.56 60.62 55.66 62.42L58.54 57.74C55.30 55.94 49.18 53.86 44.42 52.78Z"/></svg>
