<svg xmlns="http://www.w3.org/2000/svg" xmlns:xlink="http://www.w3.org/1999/xlink" width="72.00000000000001" height="106.56000000000002"><path fill="red" stroke="red" d="M60.77 49.03L43.63 49.03L43.63 43.20L60.77 43.20ZM60.77 59.69L43.63 59.69L43.63 53.86L60.77 53.86ZM60.77 70.42L43.63 70.42L43.63 64.51L60.77 64.51ZM37.73 38.09L37.73 75.53L66.82 75.53L66.82 38.09L53.93 38.09C54.50 36.22 55.08 34.06 55.66 31.97L68.26 31.97L68.26 26.28L35.93 26.28L35.93 31.97L48.82 31.97C48.60 33.98 48.24 36.14 47.81 38.09ZM12.24 37.87L17.93 37.87L17.93 48.46L12.24 48.46ZM34.85 76.75C33.26 74.45 30.96 71.64 28.30 68.62C30.82 63.14 32.83 56.81 34.06 49.54L30.38 48.31L29.23 48.46L23.62 48.46L23.62 37.87L29.81 37.87C29.30 40.82 28.73 43.70 28.15 45.86L33.26 47.16C34.34 43.49 35.57 37.87 36.72 32.90L32.47 31.90L31.54 32.11L23.62 32.11L23.62 23.69L17.93 23.69L17.93 32.11L6.48 32.11L6.48 54.29C6.48 63.29 6.12 75.24 2.16 83.88C3.38 84.53 5.90 86.47 6.77 87.62C11.45 78.19 12.24 64.08 12.24 54.29L12.24 54.00L27.14 54.00C26.35 57.60 25.34 60.91 24.05 63.94C21.60 61.42 19.01 58.82 16.56 56.59L12.60 60.62C15.41 63.29 18.36 66.46 21.24 69.62C18.00 75.10 13.97 79.34 9.29 82.22C10.44 83.23 12.53 85.61 13.25 87.05C17.78 84.10 21.89 79.85 25.27 74.38C27.36 76.97 29.23 79.42 30.60 81.43ZM44.42 76.10C41.47 79.20 35.71 83.02 30.60 85.03C31.97 86.18 34.06 88.20 34.99 89.35C40.18 87.19 46.22 83.16 49.97 79.49ZM54.14 79.78C57.96 82.58 62.64 86.69 65.02 89.35L70.13 85.68C67.75 83.09 62.86 79.13 59.11 76.54Z"/></svg>
