<svg xmlns="http://www.w3.org/2000/svg" xmlns:xlink="http://www.w3.org/1999/xlink" width="72.00000000000001" height="106.56000000000002"><path fill="red" stroke="red" d="M13.90 41.18L26.21 41.18L26.21 36.72L13.97 36.72C15.84 34.99 17.64 33.19 19.30 31.32C23.04 33.41 27.50 36.07 29.81 37.87L32.83 32.54C30.53 30.96 26.35 28.58 22.75 26.71C23.26 25.99 23.69 25.34 24.12 24.62L18.50 22.54C14.90 28.44 8.28 33.91 2.02 37.30C2.95 38.81 4.46 42.19 4.90 43.56C7.92 41.76 11.02 39.38 13.90 36.79ZM24.34 49.68L24.34 54.22L13.90 54.22L13.90 49.68ZM13.90 64.44L13.90 59.04L24.34 59.04L24.34 64.44ZM22.10 72.72C22.68 73.94 23.33 75.17 23.98 76.54L13.90 80.14L13.90 69.41L30.38 69.41L30.38 44.71L7.70 44.71L7.70 78.84C7.70 81.58 6.12 82.66 4.90 83.16C5.90 84.67 6.91 87.55 7.27 89.14C8.78 87.98 11.09 86.98 26.21 81.14C27.22 83.38 28.22 85.46 28.80 87.12L34.06 84.53C32.62 81.00 29.45 75.02 27.00 70.56ZM56.16 37.80L33.77 37.80L33.77 43.20L56.16 43.20ZM49.25 54.14L49.25 66.24L40.75 66.24L40.75 54.14ZM54.50 71.78L54.50 48.60L35.28 48.60L35.28 77.47L40.75 77.47L40.75 71.78ZM66.82 26.35L33.26 26.35L33.26 32.40L60.48 32.40L60.48 80.93C60.48 82.22 59.90 82.73 58.75 82.73C57.46 82.80 53.28 82.87 48.74 82.58C49.75 84.38 50.83 87.48 51.19 89.28C57.38 89.28 60.98 89.14 63.43 87.98C65.95 86.90 66.82 84.74 66.82 81.07Z"/></svg>
