<svg xmlns="http://www.w3.org/2000/svg" xmlns:xlink="http://www.w3.org/1999/xlink" width="72.00000000000001" height="106.56000000000002"><path fill="red" stroke="red" d="M6.34 84.53C7.85 80.50 8.78 73.73 9.29 68.62L5.62 67.46C5.11 72.50 4.10 79.13 2.45 83.02ZM10.30 68.83C10.87 73.01 11.09 78.34 10.94 81.86L13.82 81.58C13.90 78.05 13.54 72.72 13.03 68.54ZM11.52 53.14L16.92 53.14L16.92 58.97L11.52 58.97ZM16.92 31.75L16.92 37.44L11.52 37.44L11.52 31.75ZM16.92 47.95L11.52 47.95L11.52 42.55L16.92 42.55ZM22.10 58.97L22.10 53.14L29.38 53.14L29.38 47.95L22.10 47.95L22.10 42.55L29.16 42.55L29.16 37.44L22.10 37.44L22.10 31.75L30.31 31.75L30.31 26.21L6.26 26.21L6.26 64.30L11.52 64.30L11.52 64.22L25.20 64.22C24.98 68.98 24.77 72.65 24.48 75.53C23.83 73.08 22.32 69.26 20.74 66.46L18.50 67.25C19.94 70.13 21.46 74.02 22.10 76.54L24.48 75.67C24.05 80.50 23.62 82.80 22.97 83.59C22.46 84.24 22.03 84.38 21.17 84.38C20.38 84.38 18.65 84.38 16.70 84.10C17.35 85.39 17.78 87.19 17.86 88.56C19.87 88.70 21.96 88.63 23.26 88.49C24.77 88.34 25.85 87.91 26.86 86.54C28.37 84.60 29.16 78.55 29.88 61.20C29.95 60.48 30.02 58.97 30.02 58.97ZM19.51 79.27C19.15 76.18 18.14 71.42 16.99 67.75L14.47 68.18C15.55 71.93 16.56 76.68 16.85 79.85ZM58.46 68.69L58.46 59.54L62.78 59.54L62.78 68.69ZM50.18 68.69L50.18 59.54L54.65 59.54L54.65 68.69ZM42.05 68.69L42.05 59.54L46.44 59.54L46.44 68.69ZM61.13 41.33L61.13 46.01L38.45 46.01L38.45 41.33ZM67.25 54.22L38.38 54.22C38.38 52.99 38.45 51.91 38.45 50.76L66.89 50.76L66.89 36.58L38.45 36.58L38.45 33.84C48.24 32.98 59.04 31.54 66.46 29.52L62.86 25.56C55.87 27.58 43.49 29.16 33.05 30.10L33.05 47.81C33.05 58.18 32.69 73.30 28.37 84.17C29.59 84.53 32.11 85.90 33.12 86.76C35.64 80.71 36.94 73.08 37.66 65.66L37.66 88.49L42.05 88.49L42.05 73.94L46.44 73.94L46.44 86.54L50.18 86.54L50.18 73.94L54.65 73.94L54.65 86.40L58.46 86.40L58.46 73.94L62.78 73.94L62.78 83.23C62.78 83.74 62.64 83.88 62.21 83.88L59.33 83.88C59.83 85.10 60.34 86.98 60.48 88.20C62.78 88.20 64.44 88.20 65.66 87.41C66.96 86.62 67.25 85.32 67.25 83.23Z"/></svg>
