<svg xmlns="http://www.w3.org/2000/svg" xmlns:xlink="http://www.w3.org/1999/xlink" width="72.00000000000001" height="106.56000000000002"><path fill="red" stroke="red" d="M29.52 88.78C32.04 85.97 33.77 81.36 34.56 77.40L29.88 76.61C29.09 80.21 27.29 84.24 25.13 86.54ZM36.65 78.55C37.30 81.50 37.80 85.32 37.87 87.84L42.19 87.05C41.98 84.60 41.40 80.86 40.68 77.90ZM43.56 78.12C44.57 80.71 45.79 84.10 46.22 86.26L50.04 84.96C49.54 82.94 48.24 79.63 47.16 77.18ZM45.36 58.03L37.51 58.03L37.51 55.08L45.36 55.08ZM45.36 64.66L37.51 64.66L37.51 61.49L45.36 61.49ZM45.36 71.35L37.51 71.35L37.51 68.11L45.36 68.11ZM52.49 46.80C53.28 48.17 54.22 49.61 55.30 50.90L38.16 50.90C39.24 49.61 40.10 48.24 41.04 46.80ZM11.95 59.11C12.10 56.38 12.10 53.78 12.10 51.41L12.10 48.31L18.72 48.31L18.72 59.11ZM18.72 31.82L18.72 42.19L12.10 42.19L12.10 31.82ZM59.11 55.08C61.13 56.88 63.29 58.39 65.66 59.47C66.60 57.96 68.33 55.87 69.70 54.72C65.45 53.14 61.63 50.18 58.90 46.80L68.40 46.80L68.40 41.76L43.70 41.76C44.35 40.32 44.93 38.95 45.50 37.44L66.46 37.44L66.46 32.54L59.18 32.54C60.48 30.53 61.85 27.72 63.36 25.06L57.10 23.47C56.30 25.85 54.79 29.30 53.71 31.54L56.95 32.54L47.09 32.54C47.81 29.81 48.46 26.86 49.03 23.69L43.20 23.11C42.70 26.50 41.98 29.59 41.04 32.54L33.26 32.54L37.30 31.18C36.79 29.09 35.50 26.06 33.98 23.69L29.02 25.27C30.31 27.43 31.46 30.46 31.97 32.54L27.58 32.54L27.58 37.44L39.38 37.44C38.74 38.95 38.09 40.39 37.30 41.76L25.70 41.76L25.70 46.80L33.98 46.80C31.39 50.11 28.15 52.92 24.26 55.15L24.26 25.70L6.70 25.70L6.70 51.41C6.70 61.85 6.48 76.32 2.74 86.40C4.18 86.90 6.55 88.20 7.63 89.06C10.08 82.44 11.16 73.66 11.74 65.30L18.72 65.30L18.72 81.94C18.72 82.87 18.43 83.09 17.57 83.16C16.92 83.16 14.54 83.23 12.02 83.09C12.74 84.60 13.46 87.26 13.68 88.78C17.64 88.78 20.23 88.63 22.03 87.55C23.69 86.62 24.26 84.89 24.26 82.01L24.26 56.38C25.42 57.60 26.78 59.40 27.36 60.41C28.94 59.47 30.38 58.39 31.75 57.38L31.75 75.53L60.84 75.53C60.34 81.00 59.76 83.30 59.11 84.10C58.68 84.60 58.18 84.67 57.31 84.67C56.52 84.67 54.72 84.67 52.56 84.38C53.21 85.68 53.71 87.62 53.86 88.99C56.30 89.14 58.90 89.14 60.12 88.99C61.70 88.92 62.86 88.42 63.86 87.34C65.30 85.90 66.02 82.15 66.67 73.44C66.82 72.79 66.89 71.35 66.89 71.35L50.62 71.35L50.62 68.11L61.34 68.11L61.34 64.66L50.62 64.66L50.62 61.49L61.27 61.49L61.27 58.03L50.62 58.03L50.62 55.08ZM57.31 81.43C56.52 79.99 54.94 77.62 53.35 75.89L50.26 77.40C51.70 79.20 53.21 81.65 53.93 83.23Z"/></svg>
