<svg xmlns="http://www.w3.org/2000/svg" xmlns:xlink="http://www.w3.org/1999/xlink" width="72.00000000000001" height="106.56000000000002"><path fill="red" stroke="red" d="M42.62 39.02C45.50 36.65 48.17 33.91 50.47 31.03C53.14 33.77 56.30 36.58 59.54 39.02ZM40.03 44.21L61.13 44.21L61.13 40.25C63.22 41.62 65.23 42.98 67.25 44.14C67.75 42.48 68.90 39.67 69.91 38.16C64.44 35.57 57.96 31.10 53.71 26.71C54.22 25.92 54.65 25.13 55.08 24.41L49.03 22.39C45.43 28.80 38.66 35.64 31.03 40.10C32.33 41.04 34.34 43.06 35.28 44.28C36.86 43.27 38.45 42.19 40.03 41.11ZM56.52 53.50L62.28 53.50L62.28 61.49L56.52 61.49ZM51.91 65.95L67.10 65.95L67.10 49.03L51.91 49.03ZM38.88 53.50L44.21 53.50L44.21 61.49L38.88 61.49ZM34.34 65.95L49.03 65.95L49.03 49.03L34.34 49.03ZM20.88 52.99C20.09 51.41 18.50 49.03 16.99 47.30L14.40 48.82C15.84 50.69 17.35 53.14 18.07 54.86ZM15.70 70.92C17.14 72.86 18.72 75.67 19.37 77.47L22.03 75.82C21.31 74.02 19.66 71.42 18.07 69.41ZM9.79 78.19L9.79 72.79C10.58 73.44 11.45 74.23 11.95 74.74C14.26 72.14 16.56 69.05 18.65 65.66C20.95 68.69 23.18 72.29 24.26 74.81L26.64 72.58L26.64 78.19ZM9.79 61.20C10.94 62.64 12.02 64.22 12.60 65.38L15.05 63.58C14.26 62.06 12.60 60.05 11.09 58.46L9.79 59.40L9.79 53.50C12.38 55.94 15.12 59.11 16.85 61.56C14.69 65.23 12.31 68.54 9.79 71.28ZM26.64 46.30L26.64 62.06C25.85 60.98 24.91 59.76 23.90 58.75L21.82 60.62C23.33 62.28 24.91 64.58 25.56 66.10L26.64 65.23L26.64 71.42C25.27 68.83 22.90 65.38 20.52 62.50C22.82 58.46 24.91 54.07 26.57 49.68L22.97 48.67C21.89 51.84 20.45 55.08 18.86 58.10C16.92 55.58 14.11 52.70 11.52 50.47L9.79 52.27L9.79 46.30ZM31.54 40.97L21.02 40.97L21.02 34.99L33.05 34.99L33.05 29.74L21.02 29.74L21.02 23.11L15.26 23.11L15.26 40.97L5.04 40.97L5.04 88.13L9.79 88.13L9.79 83.45L31.54 83.45ZM39.31 67.82C37.94 75.02 35.06 81.43 30.74 85.39C31.97 86.33 34.20 88.27 35.21 89.21C37.73 86.69 39.89 83.38 41.62 79.56C43.85 81.29 46.22 83.16 47.45 84.67L50.90 80.28C49.32 78.55 46.30 76.32 43.56 74.52C44.06 72.72 44.57 70.78 45.00 68.83ZM56.95 67.46C55.73 74.88 52.92 81.36 48.31 85.39C49.75 86.33 52.20 88.20 53.28 89.21C55.30 87.19 57.10 84.67 58.54 81.86C61.34 84.02 64.08 86.40 65.52 88.20L69.55 83.66C67.75 81.72 64.08 78.84 60.84 76.54C61.70 74.02 62.42 71.28 62.93 68.47Z"/></svg>
