<svg xmlns="http://www.w3.org/2000/svg" xmlns:xlink="http://www.w3.org/1999/xlink" width="72.00000000000001" height="106.56000000000002"><path fill="red" stroke="red" d="M22.68 79.27C17.21 79.27 13.82 77.83 13.82 74.45C13.82 70.70 16.27 65.52 57.67 32.76C58.25 32.47 58.61 32.11 58.97 31.75L54.14 28.37L52.56 28.73L7.20 28.73L7.20 35.64L42.84 35.64C8.35 64.01 6.55 69.41 6.55 75.02C6.55 81.94 11.95 86.18 23.40 86.18L53.28 86.18C63.07 86.18 66.67 82.58 67.75 66.89C65.66 66.46 62.78 65.45 60.91 64.37C60.41 76.82 58.97 79.27 54.00 79.27Z"/></svg>
