<svg xmlns="http://www.w3.org/2000/svg" xmlns:xlink="http://www.w3.org/1999/xlink" width="72.00000000000001" height="106.56000000000002"><path fill="red" stroke="red" d="M67.46 35.78L35.28 35.78L42.26 33.41C41.18 30.38 39.10 25.70 37.08 22.10L30.38 24.34C32.11 27.94 34.27 32.76 35.06 35.78L4.82 35.78L4.82 42.19L67.46 42.19ZM55.15 82.08C54.07 82.08 53.35 82.01 52.70 81.72C52.06 81.43 51.84 80.50 51.84 78.70L51.84 49.25L20.09 49.25L20.09 59.47C20.09 67.82 18.07 77.47 2.81 84.10C4.10 85.32 6.34 88.20 7.13 89.78C23.62 82.37 27.00 69.84 27.00 59.69L27.00 55.51L44.86 55.51L44.86 78.77C44.86 83.95 45.72 85.54 47.30 86.69C48.96 87.77 51.34 88.20 53.57 88.20L59.62 88.20C61.56 88.20 63.79 87.91 65.23 87.26C66.89 86.62 67.90 85.39 68.47 83.52C69.05 81.65 69.41 76.82 69.48 72.65C67.75 72.14 65.52 70.99 64.22 69.77C64.22 74.38 64.08 77.69 63.86 79.27C63.58 80.71 63.07 81.36 62.35 81.65C61.78 82.01 60.70 82.08 59.62 82.08Z"/></svg>
