<svg xmlns="http://www.w3.org/2000/svg" xmlns:xlink="http://www.w3.org/1999/xlink" width="72.00000000000001" height="106.56000000000002"><path fill="red" stroke="red" d="M55.80 35.14L22.75 35.14L22.75 40.03L55.80 40.03L55.80 44.28L28.94 44.28L28.94 49.32L62.50 49.32L62.50 40.03L69.12 40.03L69.12 35.14L62.50 35.14L62.50 25.78L29.45 25.78L29.45 30.82L55.80 30.82ZM18.43 23.40C14.54 33.91 8.14 44.42 1.37 51.12C2.45 52.70 4.39 56.30 5.04 57.89C7.13 55.66 9.22 53.14 11.23 50.40L11.23 89.06L17.57 89.06L17.57 40.46C20.30 35.57 22.75 30.38 24.70 25.27ZM53.21 67.75C51.19 70.78 48.53 73.30 45.29 75.46C42.34 73.30 39.96 70.78 38.23 67.75ZM67.75 65.09L67.75 53.14L23.40 53.14L23.40 65.09L29.45 65.09L29.45 58.39L61.42 58.39L61.42 63.79L57.96 62.28L56.74 62.57L29.88 62.57L29.88 67.75L36.36 67.75L32.04 68.90C34.06 72.72 36.58 75.89 39.60 78.55C34.49 80.93 28.51 82.51 22.32 83.45C23.47 84.82 24.84 87.55 25.42 89.21C32.62 87.84 39.31 85.75 45.22 82.58C50.83 85.82 57.74 87.91 65.95 89.06C66.67 87.34 68.40 84.67 69.77 83.30C62.50 82.51 56.23 81.00 51.05 78.70C55.58 75.17 59.18 70.70 61.63 65.09Z"/></svg>
