<svg xmlns="http://www.w3.org/2000/svg" xmlns:xlink="http://www.w3.org/1999/xlink" width="72.00000000000001" height="106.56000000000002"><path fill="red" stroke="red" d="M60.62 24.55C59.62 27.50 57.60 31.54 56.02 34.27L60.41 36.07C62.14 33.70 64.15 30.10 66.10 26.71ZM34.70 34.13C33.77 31.68 31.61 27.79 29.88 24.84L25.06 26.86C26.78 29.81 28.80 33.91 29.59 36.43ZM18.72 23.47C15.05 33.98 8.86 44.35 2.30 51.12C3.46 52.70 5.40 56.38 6.05 57.89C8.06 55.73 10.08 53.21 11.95 50.47L11.95 89.14L18.29 89.14L18.29 40.18C20.88 35.42 23.18 30.38 24.98 25.34ZM53.86 42.26C53.14 44.64 51.77 48.02 50.62 50.26L40.18 50.26L40.39 50.18C39.82 48.10 38.45 44.78 37.22 42.26ZM68.40 74.16L68.40 68.90L47.45 68.90C47.74 67.39 47.88 66.02 47.88 64.58L64.44 64.58L64.44 59.47L47.88 59.47L47.88 55.37L66.60 55.37L66.60 50.26L56.45 50.26C57.46 48.31 58.75 45.94 59.98 43.56L55.01 42.26L67.54 42.26L67.54 36.86L53.93 36.86L53.93 23.11L48.24 23.11L48.24 36.86L42.19 36.86L42.19 23.11L36.65 23.11L36.65 36.86L23.18 36.86L23.18 42.26L36.86 42.26L31.97 43.63C32.90 45.65 33.91 48.24 34.49 50.26L24.05 50.26L24.05 55.37L41.54 55.37L41.54 59.47L25.99 59.47L25.99 64.58L41.54 64.58C41.47 66.02 41.40 67.39 41.04 68.90L22.03 68.90L22.03 74.16L38.66 74.16C36.00 78.05 30.67 81.79 20.59 84.67C22.03 85.82 23.83 88.06 24.62 89.42C37.08 85.32 43.06 79.78 45.79 74.16ZM45.14 78.62C51.84 81.65 60.34 86.40 64.58 89.57L68.98 85.10C64.51 82.01 55.80 77.54 49.25 74.74Z"/></svg>
