<svg xmlns="http://www.w3.org/2000/svg" xmlns:xlink="http://www.w3.org/1999/xlink" width="72.00000000000001" height="106.56000000000002"><path fill="red" stroke="red" d="M49.39 83.09C46.44 83.09 45.94 82.73 45.94 80.57L45.94 61.34L61.20 61.34L61.20 27.86L38.95 27.86L38.95 34.06L54.50 34.06L54.50 41.04L39.89 41.04L39.89 46.87L54.50 46.87L54.50 55.15L18.65 55.15L18.65 46.87L32.76 46.87L32.76 41.04L18.65 41.04L18.65 33.05C24.19 31.68 30.17 29.88 34.92 28.08L29.74 23.33C25.20 25.56 17.86 28.08 11.38 29.81L11.30 29.81L11.30 61.34L24.91 61.34C23.76 72.86 20.45 80.14 3.31 83.95C4.75 85.25 6.62 87.62 7.27 89.21C26.50 84.46 30.74 75.38 32.33 61.34L39.17 61.34L39.17 80.57C39.17 86.40 40.97 88.13 48.60 88.13L59.47 88.13C66.24 88.13 68.04 85.32 68.76 74.09C66.96 73.73 64.08 72.86 62.57 71.86C62.21 81.58 61.78 83.09 58.82 83.09Z"/></svg>
