<svg xmlns="http://www.w3.org/2000/svg" xmlns:xlink="http://www.w3.org/1999/xlink" width="72.00000000000001" height="106.56000000000002"><path fill="red" stroke="red" d="M21.02 62.14L51.55 62.14L51.55 67.61L21.02 67.61ZM51.55 31.97L51.55 37.08L21.02 37.08L21.02 31.97ZM51.55 51.98L51.55 57.17L21.02 57.17L21.02 51.98ZM51.55 47.02L21.02 47.02L21.02 41.98L51.55 41.98ZM68.40 73.66L68.40 67.61L58.54 67.61L58.54 26.57L14.33 26.57L14.33 67.61L3.89 67.61L3.89 73.66L23.18 73.66C18.79 77.40 10.08 81.79 2.88 84.17C4.46 85.54 6.62 87.70 7.70 89.06C14.98 86.40 23.76 81.86 29.30 77.54L23.54 73.66L46.58 73.66L42.77 77.83C50.54 81.29 58.75 85.82 63.65 89.06L68.83 84.17C63.86 81.14 55.51 76.90 47.81 73.66Z"/></svg>
