<svg xmlns="http://www.w3.org/2000/svg" xmlns:xlink="http://www.w3.org/1999/xlink" width="72.00000000000001" height="106.56000000000002"><path fill="red" stroke="red" d="M26.64 23.62L20.02 23.62L20.02 31.39L4.03 31.39L4.03 37.80L20.02 37.80L20.02 43.42L6.12 43.42L6.12 63.72L12.53 63.72L12.53 49.25L20.02 49.25L20.02 58.90C16.34 66.46 9.50 74.52 2.81 78.84C3.96 80.42 5.40 83.16 6.05 84.96C11.02 81.36 16.06 75.53 20.02 69.19L20.02 89.14L26.64 89.14L26.64 70.13C30.67 73.58 35.50 77.90 37.87 80.42L41.62 74.66C39.24 72.86 30.89 66.24 26.64 63.29L26.64 49.25L34.13 49.25L34.13 56.88C34.13 57.60 33.98 57.82 33.19 57.89C32.54 57.89 30.38 57.89 28.08 57.82C28.73 59.40 29.52 61.78 29.74 63.50C33.70 63.50 36.29 63.43 38.09 62.42C39.89 61.49 40.32 59.83 40.32 56.95L40.32 43.42L26.64 43.42L26.64 37.80L42.05 37.80L42.05 31.39L26.64 31.39ZM52.99 31.10L46.37 31.10L46.37 70.92L52.99 70.92ZM59.54 24.55L59.54 80.50C59.54 81.79 59.04 82.15 57.82 82.22C56.52 82.22 52.34 82.30 48.02 82.15C49.03 84.10 50.11 87.26 50.40 89.14C56.52 89.21 60.41 88.99 62.93 87.77C65.38 86.69 66.31 84.67 66.31 80.57L66.31 24.55Z"/></svg>
