<svg xmlns="http://www.w3.org/2000/svg" xmlns:xlink="http://www.w3.org/1999/xlink" width="72.00000000000001" height="106.56000000000002"><path fill="red" stroke="red" d="M27.65 65.88L27.65 73.87L20.16 73.87L20.16 65.88ZM32.47 78.55L32.47 61.13L15.55 61.13L15.55 82.08L20.16 82.08L20.16 78.55ZM14.90 31.82L32.90 31.82L32.90 37.15L21.02 37.15L21.02 51.12L14.90 51.12ZM32.90 51.12L26.35 51.12L26.35 42.41L32.90 42.41ZM38.74 51.12L38.74 26.28L9.36 26.28L9.36 51.12L4.90 51.12L4.90 89.21L10.87 89.21L10.87 56.74L37.37 56.74L37.37 82.37C37.37 83.23 37.08 83.45 36.29 83.45C35.50 83.45 32.98 83.45 30.46 83.38C31.18 84.89 32.11 87.48 32.40 89.14C36.43 89.14 39.10 88.99 41.04 88.06C42.91 87.05 43.49 85.32 43.49 82.51L43.49 51.12ZM52.92 30.60L46.87 30.60L46.87 70.42L52.92 70.42ZM59.90 24.34L59.90 81.36C59.90 82.51 59.47 82.80 58.46 82.87C57.38 82.87 53.93 82.87 50.33 82.80C51.19 84.67 51.98 87.48 52.27 89.21C57.60 89.21 61.06 88.99 63.22 87.98C65.38 86.90 66.10 85.03 66.10 81.36L66.10 24.34Z"/></svg>
