<svg xmlns="http://www.w3.org/2000/svg" xmlns:xlink="http://www.w3.org/1999/xlink" width="72.00000000000001" height="106.56000000000002"><path fill="red" stroke="red" d="M31.10 62.35L20.30 65.23L20.30 37.58L30.10 37.58L30.10 31.25L3.67 31.25L3.67 37.58L13.68 37.58L13.68 66.96C9.58 68.04 5.76 68.98 2.74 69.55L4.39 76.54C12.02 74.38 22.32 71.50 31.97 68.69ZM67.39 38.95L48.67 38.95C48.82 34.20 48.89 29.30 48.89 24.26L42.12 24.26C42.12 29.38 42.12 34.20 41.98 38.95L30.89 38.95L30.89 45.36L41.69 45.36C40.68 62.35 36.94 76.03 22.25 83.95C23.90 85.18 26.06 87.55 27.00 89.35C43.06 80.14 47.23 64.44 48.38 45.36L60.70 45.36C59.83 69.41 58.82 78.84 56.88 81.00C56.09 81.94 55.30 82.15 54.00 82.15C52.34 82.15 48.53 82.08 44.42 81.79C45.65 83.59 46.44 86.47 46.58 88.34C50.54 88.56 54.58 88.56 56.95 88.27C59.47 87.98 61.13 87.26 62.78 85.10C65.52 81.79 66.31 71.35 67.39 42.12Z"/></svg>
