<svg xmlns="http://www.w3.org/2000/svg" xmlns:xlink="http://www.w3.org/1999/xlink" width="72.00000000000001" height="106.56000000000002"><path fill="red" stroke="red" d="M37.22 51.26L37.22 61.27L20.74 61.27L20.74 51.26ZM29.52 81.43C21.96 81.43 20.74 80.57 20.74 76.61L20.74 67.32L43.78 67.32L43.78 45.36L15.12 45.36C16.85 43.42 18.58 41.18 20.16 38.95L56.23 38.95C55.58 57.17 54.86 64.01 53.71 65.59C53.06 66.46 52.34 66.67 51.41 66.60C50.18 66.67 47.59 66.60 44.78 66.31C45.72 68.04 46.44 70.78 46.51 72.65C49.82 72.79 52.92 72.79 54.79 72.58C56.88 72.29 58.25 71.71 59.62 69.77C61.63 67.18 62.28 58.75 63.07 35.57C63.07 34.70 63.14 32.62 63.14 32.62L24.34 32.62C25.85 30.10 27.14 27.43 28.30 24.77L21.53 22.82C17.42 32.40 10.37 41.54 2.52 47.16C4.18 48.31 6.91 50.90 8.06 52.20C10.08 50.47 12.17 48.53 14.11 46.44L14.11 76.61C14.11 85.54 17.64 87.70 29.66 87.70L55.15 87.70C65.38 87.70 67.90 84.96 69.12 75.31C67.18 74.95 64.37 73.94 62.64 72.86C61.85 79.99 60.91 81.43 54.79 81.43Z"/></svg>
