<svg xmlns="http://www.w3.org/2000/svg" xmlns:xlink="http://www.w3.org/1999/xlink" width="72.00000000000001" height="106.56000000000002"><path fill="red" stroke="red" d="M41.98 39.02C39.82 34.78 34.85 28.51 30.60 23.98L26.06 27.29C30.24 32.04 35.14 38.59 37.22 42.84ZM15.77 24.84C13.03 30.74 8.28 36.29 3.17 39.89C4.46 41.18 6.48 44.14 7.20 45.43C12.74 41.04 18.36 33.98 21.67 26.71ZM30.53 67.10L30.53 78.70L16.20 78.70L16.20 67.10ZM21.38 36.43C17.71 46.58 10.51 55.30 2.02 60.26C3.67 61.70 5.40 63.79 6.41 65.52C7.78 64.58 9.00 63.65 10.30 62.64L10.30 89.06L16.20 89.06L16.20 84.74L30.53 84.74L30.53 88.85L36.65 88.85L36.65 61.20L11.95 61.20C16.34 57.24 20.16 52.34 23.33 46.87C29.09 52.06 35.64 58.39 38.95 62.71L42.12 56.95C38.81 52.85 31.90 46.66 25.85 41.62C26.35 40.54 26.78 39.53 27.22 38.38ZM66.31 27.36L43.13 27.36L43.13 89.21L49.61 89.21L49.61 33.70L59.76 33.70L59.76 69.48C59.76 70.49 59.47 70.78 58.46 70.78C57.46 70.85 54.22 70.85 50.76 70.70C51.70 72.58 52.78 75.74 52.99 77.69C57.82 77.69 61.20 77.47 63.43 76.32C65.66 75.17 66.31 73.01 66.31 69.62Z"/></svg>
