<svg xmlns="http://www.w3.org/2000/svg" xmlns:xlink="http://www.w3.org/1999/xlink" width="72.00000000000001" height="106.56000000000002"><path fill="red" stroke="red" d="M43.63 49.75C41.40 46.66 36.50 42.26 32.62 39.17L28.01 43.06C31.97 46.30 36.58 50.98 38.74 54.07ZM54.22 36.22C50.40 48.31 44.21 57.74 36.29 65.16C28.22 57.46 22.46 47.74 18.65 36.22ZM58.10 29.30L57.17 29.59L7.06 29.59L7.06 36.22L12.31 36.22L11.81 36.36C16.20 49.75 22.32 60.91 30.96 69.62C22.68 75.82 12.96 80.21 2.38 83.02C3.89 84.31 5.83 87.48 6.62 89.21C17.42 86.04 27.43 81.14 36.00 74.23C43.85 80.50 53.42 85.10 65.09 87.91C66.02 86.11 67.97 83.16 69.48 81.72C58.32 79.34 49.03 75.17 41.47 69.48C51.12 60.12 58.54 47.66 62.71 31.46Z"/></svg>
