<svg xmlns="http://www.w3.org/2000/svg" xmlns:xlink="http://www.w3.org/1999/xlink" width="72.00000000000001" height="106.56000000000002"><path fill="red" stroke="red" d="M34.13 33.62L37.08 33.62L37.08 39.17L59.90 39.17C58.39 48.60 55.73 56.88 52.13 63.72C48.53 56.59 46.01 48.31 44.35 39.38L37.87 40.68C40.18 51.98 43.42 61.99 48.10 70.27C44.14 75.74 39.46 79.99 34.13 82.80ZM15.34 72.29L15.34 62.78L27.65 62.78L27.65 70.56ZM27.65 33.62L27.65 41.98L15.34 41.98L15.34 33.62ZM15.34 47.95L27.65 47.95L27.65 56.74L15.34 56.74ZM62.93 32.40L61.78 32.62L38.95 32.62L38.95 27.43L3.67 27.43L3.67 33.62L8.93 33.62L8.93 73.15C6.41 73.44 4.18 73.80 2.16 74.02L3.38 80.71C10.08 79.63 18.94 78.19 27.65 76.75L27.65 89.06L34.13 89.06L34.13 83.16C35.57 84.46 37.37 86.76 38.30 88.34C43.49 85.25 48.17 81.36 52.06 76.39C55.80 81.36 60.26 85.39 65.59 88.49C66.53 86.83 68.69 84.31 70.20 83.02C64.58 80.06 59.98 75.74 56.23 70.42C61.78 61.13 65.59 49.03 67.25 33.55Z"/></svg>
