<svg xmlns="http://www.w3.org/2000/svg" xmlns:xlink="http://www.w3.org/1999/xlink" width="72.00000000000001" height="106.56000000000002"><path fill="red" stroke="red" d="M21.10 36.00L21.10 65.09L11.30 65.09L11.30 36.00ZM26.86 71.57L26.86 29.52L5.54 29.52L5.54 77.18L11.30 77.18L11.30 71.57ZM35.06 26.93C34.78 45.00 33.77 70.85 23.83 84.46C25.42 85.46 27.94 87.91 29.02 89.28C40.32 74.52 41.69 46.87 42.34 27.14ZM45.50 25.49L45.50 32.26L51.34 32.26C52.42 55.58 54.72 76.75 62.78 89.57C64.44 87.98 67.46 85.97 69.48 85.03C61.06 73.15 58.68 50.04 57.74 25.49Z"/></svg>
