<svg xmlns="http://www.w3.org/2000/svg" xmlns:xlink="http://www.w3.org/1999/xlink" width="72.00000000000001" height="106.56000000000002"><path fill="red" stroke="red" d="M20.95 36.00L20.95 65.09L12.02 65.09L12.02 36.00ZM27.36 29.52L5.54 29.52L5.54 77.18L12.02 77.18L12.02 71.57L27.36 71.57ZM69.05 28.87L30.31 28.87L30.31 35.42L48.82 35.42L48.82 80.06C48.82 81.36 48.24 81.79 46.87 81.86C45.36 81.86 40.10 81.94 35.28 81.65C36.29 83.59 37.51 86.90 37.94 88.85C44.64 88.85 49.18 88.70 51.98 87.55C54.79 86.40 55.80 84.24 55.80 80.14L55.80 35.42L69.05 35.42Z"/></svg>
