<svg xmlns="http://www.w3.org/2000/svg" xmlns:xlink="http://www.w3.org/1999/xlink" width="72.00000000000001" height="106.56000000000002"><path fill="red" stroke="red" d="M20.59 35.64L20.59 65.02L12.31 65.02L12.31 35.64ZM27.00 29.45L5.98 29.45L5.98 77.98L12.31 77.98L12.31 71.28L27.00 71.28ZM51.91 42.62C43.92 52.34 34.78 63.14 29.16 68.83L33.77 74.45C40.18 67.03 48.46 57.10 55.44 47.74ZM29.52 29.52L29.52 36.00L59.04 36.00C57.96 66.02 56.66 77.62 54.29 80.21C53.50 81.29 52.70 81.58 51.34 81.50C49.68 81.50 46.01 81.50 41.83 81.14C43.06 83.16 43.85 86.11 43.99 88.06C47.81 88.20 51.84 88.34 54.22 87.98C56.95 87.55 58.61 86.83 60.41 84.38C63.43 80.57 64.51 68.33 65.81 33.05C65.88 32.04 65.88 29.52 65.88 29.52Z"/></svg>
