<svg xmlns="http://www.w3.org/2000/svg" xmlns:xlink="http://www.w3.org/1999/xlink" width="72.00000000000001" height="106.56000000000002"><path fill="red" stroke="red" d="M19.44 36.00L19.44 65.09L11.45 65.09L11.45 36.00ZM25.49 29.52L5.54 29.52L5.54 77.18L11.45 77.18L11.45 71.57L25.49 71.57ZM45.29 48.10L45.29 63.43L36.22 63.43L36.22 48.10ZM50.90 69.34L50.90 42.19L30.53 42.19L30.53 73.87L36.22 73.87L36.22 69.34ZM69.19 27.94L27.72 27.94L27.72 34.49L57.02 34.49L57.02 80.71C57.02 82.01 56.59 82.44 55.22 82.44C53.78 82.51 48.96 82.51 44.14 82.37C45.07 84.24 46.15 87.34 46.51 89.21C52.92 89.28 57.38 89.06 60.19 87.98C62.86 86.98 63.86 84.96 63.86 80.78L63.86 34.49L69.19 34.49Z"/></svg>
