<svg xmlns="http://www.w3.org/2000/svg" xmlns:xlink="http://www.w3.org/1999/xlink" width="72.00000000000001" height="106.56000000000002"><path fill="red" stroke="red" d="M16.56 33.55L16.56 66.24L10.58 66.24L10.58 33.55ZM21.82 71.64L21.82 28.22L5.33 28.22L5.33 78.34L10.58 78.34L10.58 71.64ZM46.08 37.37L35.06 37.37C35.14 32.83 35.14 28.22 35.14 23.40L29.45 23.40C29.45 28.30 29.45 32.83 29.38 37.37L24.05 37.37L24.05 43.27L29.30 43.27C28.80 61.85 26.86 76.25 18.22 85.25C19.73 86.11 21.82 88.13 22.75 89.57C32.11 79.34 34.34 63.50 34.92 43.27L40.18 43.27C39.53 69.70 38.66 78.98 37.22 81.07C36.58 82.08 36.07 82.30 35.06 82.30C33.98 82.30 32.18 82.22 30.02 82.01C30.89 83.74 31.46 86.33 31.54 87.98C33.98 88.13 36.36 88.13 37.94 87.84C39.89 87.55 41.11 86.83 42.34 84.96C44.50 81.94 45.22 71.50 46.08 40.32ZM53.93 74.81L53.93 37.30L61.27 37.30L61.27 74.81ZM48.53 31.32L48.53 86.54L53.93 86.54L53.93 80.71L61.27 80.71L61.27 86.04L66.89 86.04L66.89 31.32Z"/></svg>
