<svg xmlns="http://www.w3.org/2000/svg" xmlns:xlink="http://www.w3.org/1999/xlink" width="72.00000000000001" height="106.56000000000002"><path fill="red" stroke="red" d="M53.71 44.71L60.05 44.71L60.05 37.37L68.18 37.37L68.18 31.18L60.05 31.18L60.05 23.11L53.71 23.11L53.71 31.18L48.17 31.18L48.17 37.37L53.71 37.37ZM34.27 44.71L40.61 44.71L40.61 37.30L46.15 37.30L46.15 31.10L40.61 31.10L40.61 23.11L34.27 23.11L34.27 31.10L26.50 31.10L26.50 37.30L34.27 37.30ZM18.58 36.43L18.58 63.07L11.45 63.07L11.45 36.43ZM24.91 69.34L24.91 30.17L5.18 30.17L5.18 75.38L11.45 75.38L11.45 69.34ZM57.53 45.65C55.37 54.86 52.06 62.28 47.09 68.11C42.34 61.99 39.02 54.43 36.86 45.86L30.96 47.16C33.55 57.31 37.30 65.88 42.48 72.79C37.15 77.47 30.53 80.86 22.25 83.30C23.40 84.74 25.34 87.62 25.99 89.06C34.27 86.26 41.11 82.51 46.66 77.62C51.77 82.73 58.03 86.62 65.59 89.21C66.60 87.48 68.54 84.89 69.98 83.59C62.42 81.36 56.30 77.76 51.41 72.94C57.24 66.24 61.34 57.67 64.01 46.87Z"/></svg>
