<svg xmlns="http://www.w3.org/2000/svg" xmlns:xlink="http://www.w3.org/1999/xlink" width="72.00000000000001" height="106.56000000000002"><path fill="red" stroke="red" d="M18.65 34.85L18.65 61.92L11.09 61.92L11.09 34.85ZM24.41 28.73L5.26 28.73L5.26 74.16L11.09 74.16L11.09 68.04L24.41 68.04ZM61.42 57.89L59.98 58.18L30.31 58.18L30.31 63.72L52.56 63.72C49.97 65.38 47.16 66.89 44.64 68.04L44.64 82.44C44.64 83.30 44.28 83.52 43.27 83.59C42.26 83.59 38.59 83.59 34.99 83.52C35.78 85.10 36.72 87.41 36.86 89.06C42.19 89.06 45.79 89.06 48.17 88.20C50.54 87.34 51.19 85.75 51.19 82.66L51.19 70.13C56.30 67.68 61.56 64.51 65.59 61.34ZM57.46 49.75L38.30 49.75L38.30 44.14L57.46 44.14ZM63.86 39.53L32.26 39.53L32.26 54.36L63.86 54.36ZM51.84 30.10C50.83 27.86 49.46 24.98 48.24 22.82L42.26 24.48C43.13 26.14 44.14 28.22 44.93 30.10L27.36 30.10L27.36 35.86L68.90 35.86L68.90 30.10Z"/></svg>
