<svg xmlns="http://www.w3.org/2000/svg" xmlns:xlink="http://www.w3.org/1999/xlink" width="72.00000000000001" height="106.56000000000002"><path fill="red" stroke="red" d="M16.99 35.86L16.99 64.22L10.87 64.22L10.87 35.86ZM22.25 29.66L5.47 29.66L5.47 77.04L10.87 77.04L10.87 70.42L22.25 70.42ZM40.10 32.54L40.10 40.10L31.68 40.10L31.68 32.54ZM31.68 53.35L31.68 45.58L40.10 45.58L40.10 53.35ZM35.42 63.65C36.50 66.02 37.51 68.69 38.38 71.28L31.68 74.02L31.68 59.11L45.36 59.11L45.36 26.86L26.14 26.86L26.14 72.79C26.14 75.89 23.83 77.98 22.46 78.77C23.47 79.92 24.84 82.44 25.42 83.88C26.57 82.73 28.44 81.50 39.96 76.18C40.90 79.20 41.54 82.01 41.90 84.24L47.16 82.44C46.37 77.11 43.42 68.69 40.39 62.14ZM67.10 26.78L49.25 26.78L49.25 89.21L54.86 89.21L54.86 32.54L61.49 32.54L61.49 71.06C61.49 71.78 61.27 72.00 60.55 72.07C59.90 72.07 57.96 72.07 55.73 72.00C56.52 73.51 57.24 76.10 57.46 77.69C61.13 77.69 63.36 77.54 65.02 76.46C66.67 75.53 67.10 73.73 67.10 71.14Z"/></svg>
