<svg xmlns="http://www.w3.org/2000/svg" xmlns:xlink="http://www.w3.org/1999/xlink" width="72.00000000000001" height="106.56000000000002"><path fill="red" stroke="red" d="M43.78 68.26L43.78 75.38L28.01 75.38L28.01 68.26ZM49.25 80.21L49.25 63.43L22.39 63.43L22.39 83.38L28.01 83.38L28.01 80.21ZM14.69 51.19L25.99 51.19C25.13 55.87 22.54 58.32 14.69 59.76ZM67.61 30.46L40.68 30.46C39.96 28.15 38.81 25.13 37.80 22.68L31.39 24.26C32.11 26.14 32.98 28.44 33.62 30.46L4.61 30.46L4.61 36.14L24.48 36.14L19.66 37.80C20.95 40.18 22.75 43.63 23.62 45.79L8.35 45.79L8.35 89.06L14.69 89.06L14.69 59.83C15.91 60.91 17.21 62.93 17.71 64.37C27.58 62.21 30.82 58.25 31.90 51.19L38.74 51.19L38.74 54.58C38.74 59.26 39.67 61.49 44.64 61.49L51.34 61.49C52.92 61.49 54.79 61.42 55.73 61.13C55.51 59.62 55.44 58.03 55.30 56.45C54.29 56.74 52.27 56.81 51.19 56.81L46.08 56.81C44.78 56.81 44.64 56.23 44.64 54.65L44.64 51.19L57.74 51.19L57.74 82.37C57.74 83.45 57.31 83.81 56.09 83.81C55.08 83.88 50.98 83.88 46.80 83.74C47.66 85.18 48.53 87.26 48.82 88.85C54.79 88.85 58.54 88.78 60.84 87.91C63.14 87.05 63.94 85.68 63.94 82.37L63.94 45.79L48.02 45.79C49.75 43.34 51.48 40.46 53.06 37.73L46.37 36.29C45.29 39.02 43.34 42.98 41.69 45.79L24.48 45.79L29.74 43.78C28.80 41.83 27.00 38.59 25.56 36.14L67.61 36.14Z"/></svg>
