<svg xmlns="http://www.w3.org/2000/svg" xmlns:xlink="http://www.w3.org/1999/xlink" width="72.00000000000001" height="106.56000000000002"><path fill="red" stroke="red" d="M15.19 34.70L15.19 64.94L10.08 64.94L10.08 34.70ZM20.09 70.06L20.09 29.59L5.26 29.59L5.26 77.04L10.08 77.04L10.08 70.06ZM27.65 45.50L32.04 45.50L32.04 56.81L27.65 56.81ZM40.61 56.81L36.22 56.81L36.22 45.50L40.61 45.50ZM46.80 71.35C45.36 69.70 39.38 63.58 37.01 61.49L45.22 61.49L45.22 48.82C46.44 49.90 47.88 51.41 48.53 52.20C50.62 48.74 52.27 44.57 53.57 39.74L62.86 39.74C62.28 44.14 61.49 48.53 60.77 51.77L65.09 53.86C66.53 49.03 67.97 41.54 69.05 35.28L65.30 33.77L64.37 34.13L54.94 34.13C55.51 31.10 56.09 27.94 56.52 24.70L51.05 23.76C50.11 32.47 48.38 40.90 45.22 46.80L45.22 40.82L37.01 40.82L37.01 35.71L46.51 35.71L46.51 30.31L37.01 30.31L37.01 23.11L31.39 23.11L31.39 30.31L21.96 30.31L21.96 35.71L31.39 35.71L31.39 40.82L23.26 40.82L23.26 61.49L30.46 61.49C27.50 67.90 22.61 74.52 17.93 78.26C18.86 79.78 20.23 82.22 20.81 83.95C24.62 80.71 28.37 75.46 31.39 69.91L31.39 89.21L37.01 89.21L37.01 68.40C39.17 71.14 41.62 74.23 42.77 76.18ZM58.39 44.93L52.99 44.93L52.99 50.83C52.99 59.40 52.56 74.23 41.26 85.75C42.70 86.54 44.64 88.20 45.58 89.35C50.90 83.52 54.00 77.11 55.80 70.92C57.89 78.12 60.84 83.74 65.59 88.99C66.38 87.34 67.97 85.54 69.48 84.46C63.14 77.69 60.19 69.91 58.18 57.38C58.32 55.01 58.39 52.85 58.39 50.83Z"/></svg>
