<svg xmlns="http://www.w3.org/2000/svg" xmlns:xlink="http://www.w3.org/1999/xlink" width="72.00000000000001" height="106.56000000000002"><path fill="red" stroke="red" d="M15.62 33.05L15.62 65.81L10.37 65.81L10.37 33.05ZM20.45 27.72L5.33 27.72L5.33 77.76L10.37 77.76L10.37 71.21L20.45 71.21ZM54.00 58.97C54.00 57.96 54.00 57.02 54.00 56.02L54.00 48.60L61.13 48.60L61.13 58.97ZM61.13 32.33L61.13 42.98L54.00 42.98L54.00 32.33ZM29.16 56.09L39.46 56.09L39.46 60.77L29.16 60.77ZM29.16 46.58L39.46 46.58L39.46 51.26L29.16 51.26ZM66.67 26.71L48.67 26.71L48.67 56.09C48.67 62.64 48.38 70.27 46.01 77.04L46.01 71.42L37.22 71.42L37.22 65.95L44.78 65.95L44.78 41.47L37.22 41.47L37.22 36.07L45.79 36.07L45.79 30.53L37.22 30.53L37.22 23.40L31.25 23.40L31.25 30.53L22.82 30.53L22.82 36.07L31.25 36.07L31.25 41.47L23.90 41.47L23.90 65.95L31.25 65.95L31.25 71.42L21.17 71.42L21.17 77.04L31.25 77.04L31.25 89.28L37.22 89.28L37.22 77.04L46.01 77.04C44.86 80.28 43.27 83.30 41.04 85.97C42.41 86.69 44.64 88.34 45.58 89.35C51.12 82.73 53.06 73.37 53.71 64.58L61.13 64.58L61.13 82.08C61.13 82.94 60.84 83.30 60.05 83.30C59.26 83.30 56.81 83.30 54.22 83.23C55.15 84.74 55.94 87.55 56.09 89.14C59.98 89.14 62.50 88.99 64.37 87.91C66.10 86.98 66.67 85.10 66.67 82.22Z"/></svg>
