<svg xmlns="http://www.w3.org/2000/svg" xmlns:xlink="http://www.w3.org/1999/xlink" width="72.00000000000001" height="106.56000000000002"><path fill="red" stroke="red" d="M53.78 37.08L38.81 37.08L38.81 30.82L53.78 30.82ZM59.83 25.92L32.98 25.92L32.98 41.90L59.83 41.90ZM17.21 35.93L17.21 65.30L10.80 65.30L10.80 35.93ZM22.61 71.78L22.61 29.45L5.40 29.45L5.40 77.40L10.80 77.40L10.80 71.78ZM34.85 73.01C31.54 76.46 26.57 80.21 22.03 82.73C23.40 83.74 25.63 85.82 26.71 87.05C31.18 84.02 36.72 79.34 40.54 75.10ZM39.17 56.45L31.32 56.45L31.32 49.54L39.17 49.54ZM53.28 49.54L61.49 49.54L61.49 56.45L53.28 56.45ZM68.40 71.64L68.40 66.17L49.46 66.17L49.46 61.27L66.96 61.27L66.96 44.78L48.02 44.78L48.02 61.13L44.57 61.13L44.57 44.78L26.21 44.78L26.21 61.27L43.13 61.27L43.13 66.17L24.98 66.17L24.98 71.64L43.13 71.64L43.13 89.28L49.46 89.28L49.46 71.64ZM52.13 76.54C56.95 79.49 62.93 83.88 65.66 86.90L69.62 82.30C66.74 79.42 60.62 75.24 55.87 72.58Z"/></svg>
