<svg xmlns="http://www.w3.org/2000/svg" xmlns:xlink="http://www.w3.org/1999/xlink" width="72.00000000000001" height="106.56000000000002"><path fill="red" stroke="red" d="M36.43 36.58L42.34 36.58L42.34 33.19L46.44 33.19L46.44 28.01L42.34 28.01L42.34 23.11L36.43 23.11L36.43 28.01L27.65 28.01L27.65 33.19L36.43 33.19ZM56.02 84.02C55.87 82.66 55.66 80.71 55.51 79.27C54.22 79.56 51.48 79.70 49.82 79.70L38.52 79.70C36.72 79.70 36.36 79.06 36.36 77.26L36.36 68.47L33.84 68.47C34.63 67.61 35.28 66.82 36.00 65.88L46.08 65.88C44.57 69.98 41.40 73.37 37.44 75.53C38.38 76.39 40.10 78.19 40.75 79.13C42.91 77.76 44.93 75.96 46.66 73.94C49.25 75.74 51.91 77.83 53.50 79.20L56.81 76.03C55.01 74.52 51.84 72.22 49.03 70.49C49.75 69.19 50.40 67.82 50.83 66.53L47.59 65.88L59.98 65.88C59.47 77.69 59.04 82.08 58.18 83.16C57.60 83.88 57.17 84.02 56.16 84.02ZM18.00 64.22L11.16 64.22L11.16 35.86L18.00 35.86ZM37.22 49.54L57.67 49.54L57.67 52.99L37.22 52.99ZM37.22 42.12L57.67 42.12L57.67 45.43L37.22 45.43ZM39.82 60.55C40.46 59.47 41.11 58.39 41.69 57.24L63.94 57.24L63.94 37.80L31.18 37.80L31.18 57.24L34.99 57.24C32.26 61.99 28.15 66.31 23.83 69.34L23.83 29.66L5.40 29.66L5.40 77.04L11.16 77.04L11.16 70.42L23.83 70.42L23.83 69.55C25.20 70.63 27.14 72.94 28.08 74.02C28.87 73.37 29.74 72.58 30.60 71.86L30.60 77.18C30.60 82.73 32.04 84.82 38.23 84.82L50.04 84.82L51.34 84.82C51.84 86.26 52.20 87.91 52.34 89.21C55.08 89.35 57.82 89.28 59.33 89.14C61.13 88.85 62.35 88.42 63.43 86.90C65.02 84.89 65.66 78.91 66.17 63.00C66.24 62.21 66.24 60.55 66.24 60.55ZM58.68 28.01L58.68 23.11L52.70 23.11L52.70 28.01L48.96 28.01L48.96 33.19L52.70 33.19L52.70 36.58L58.68 36.58L58.68 33.19L68.04 33.19L68.04 28.01Z"/></svg>
