<svg xmlns="http://www.w3.org/2000/svg" xmlns:xlink="http://www.w3.org/1999/xlink" width="72.00000000000001" height="106.56000000000002"><path fill="red" stroke="red" d="M50.69 45.36C48.24 49.68 44.78 54.07 40.68 58.10C38.66 56.23 36.65 54.50 34.56 52.63C37.80 49.54 40.75 46.22 42.84 43.06L38.88 40.54C37.01 43.56 34.20 46.66 30.89 49.54C28.22 47.38 25.63 45.14 23.11 43.27L18.58 46.51C21.17 48.53 23.83 50.76 26.57 53.14C23.47 55.44 20.09 57.53 16.92 58.90C18.22 59.90 19.66 61.78 20.45 63.00C23.69 61.34 27.07 59.11 30.31 56.38C32.40 58.32 34.42 60.12 36.36 62.06C30.89 66.60 24.77 70.42 18.72 72.86C19.94 74.02 21.31 76.10 22.03 77.47C28.15 74.74 34.34 70.49 39.96 65.66C43.56 69.26 46.66 72.72 48.74 75.60L53.86 71.78C51.48 68.76 48.17 65.23 44.35 61.56C48.46 57.31 52.06 52.70 54.79 48.10ZM14.98 79.20L14.98 38.95L57.10 38.95L57.10 79.20ZM34.13 32.69C35.50 30.31 37.08 27.36 38.45 24.41L31.54 23.18C30.74 25.99 29.09 29.81 27.58 32.69L8.71 32.69L8.71 88.99L14.98 88.99L14.98 84.89L57.10 84.89L57.10 88.78L63.65 88.78L63.65 32.69Z"/></svg>
