<svg xmlns="http://www.w3.org/2000/svg" xmlns:xlink="http://www.w3.org/1999/xlink" width="72.00000000000001" height="106.56000000000002"><path fill="red" stroke="red" d="M55.87 50.69L55.87 44.71L39.02 44.71L39.02 35.21L32.83 35.21L32.83 44.71L16.49 44.71L16.49 50.69L29.59 50.69C25.63 57.31 19.66 63.72 13.90 67.18C15.19 68.33 17.14 70.63 18.07 72.00C23.40 68.33 28.73 62.28 32.83 55.58L32.83 77.04L39.02 77.04L39.02 57.10C44.28 62.14 50.04 67.90 53.14 71.71L57.17 67.10C53.50 62.93 46.30 56.16 40.10 50.69ZM12.74 79.85L12.74 32.62L59.11 32.62L59.11 79.85ZM6.12 26.42L6.12 89.35L12.74 89.35L12.74 86.11L59.11 86.11L59.11 89.35L66.10 89.35L66.10 26.42Z"/></svg>
