<svg xmlns="http://www.w3.org/2000/svg" xmlns:xlink="http://www.w3.org/1999/xlink" width="72.00000000000001" height="106.56000000000002"><path fill="red" stroke="red" d="M57.31 50.18L33.41 50.18C34.13 48.89 34.78 47.59 35.35 46.22L54.94 46.22L54.94 42.12L48.17 42.12C49.39 40.18 50.54 37.80 51.77 35.50L46.66 34.13C45.94 36.50 44.50 39.74 43.20 42.12L36.94 42.12C37.87 39.53 38.66 36.72 39.17 33.62L33.70 32.98C33.05 36.29 32.26 39.31 31.18 42.12L23.69 42.12L27.86 40.46C27.36 38.59 25.70 36.07 24.12 34.20L19.94 35.86C21.53 37.73 22.97 40.32 23.47 42.12L17.86 42.12L17.86 46.22L29.38 46.22C28.66 47.66 27.94 48.89 27.07 50.18L14.83 50.18L14.83 54.50L23.62 54.50C20.66 57.53 17.06 60.05 12.82 61.92C13.90 63.00 15.62 65.30 16.34 66.46C19.15 64.94 21.74 63.36 23.98 61.42L23.98 72.22C23.98 77.33 25.92 78.55 32.69 78.55L45.29 78.55C50.26 78.55 51.84 76.97 52.42 70.70C50.98 70.42 49.03 69.77 47.81 68.90C47.52 73.58 47.09 74.30 44.71 74.30L33.19 74.30C29.88 74.30 29.23 73.94 29.23 72.14L29.23 62.71L40.61 62.71C40.46 65.02 40.25 66.10 39.96 66.53C39.60 66.96 39.10 67.03 38.45 67.03C37.73 67.03 35.86 67.03 33.77 66.82C34.42 67.82 34.85 69.34 34.92 70.49C37.08 70.70 39.38 70.63 40.54 70.56C42.12 70.49 43.06 70.06 43.92 69.19C44.93 68.18 45.22 65.66 45.50 60.48L45.50 58.68L27.00 58.68C28.30 57.38 29.52 55.94 30.60 54.50L40.18 54.50C45.14 57.89 50.69 62.57 53.50 65.81L57.31 62.64C55.08 60.26 51.41 57.24 47.66 54.50L57.31 54.50ZM12.24 80.93L12.24 31.54L59.76 31.54L59.76 80.93ZM5.98 25.85L5.98 89.14L12.24 89.14L12.24 86.47L59.76 86.47L59.76 89.14L66.24 89.14L66.24 25.85Z"/></svg>
