<svg xmlns="http://www.w3.org/2000/svg" xmlns:xlink="http://www.w3.org/1999/xlink" width="72.00000000000001" height="106.56000000000002"><path fill="red" stroke="red" d="M66.02 47.66L39.46 47.66L39.46 38.95L60.55 38.95L60.55 32.62L39.46 32.62L39.46 23.18L32.40 23.18L32.40 32.62L11.30 32.62L11.30 38.95L32.40 38.95L32.40 47.66L5.98 47.66L5.98 54.07L66.02 54.07ZM39.46 80.35L39.46 69.84L62.28 69.84L62.28 63.50L39.46 63.50L39.46 55.94L32.40 55.94L32.40 63.50L9.50 63.50L9.50 69.84L32.40 69.84L32.40 80.35L4.18 80.35L4.18 86.83L68.04 86.83L68.04 80.35Z"/></svg>
