<svg xmlns="http://www.w3.org/2000/svg" xmlns:xlink="http://www.w3.org/1999/xlink" width="72.00000000000001" height="106.56000000000002"><path fill="red" stroke="red" d="M25.34 62.21C22.97 63.22 20.52 64.22 18.14 65.30L18.14 46.44L25.70 46.44L25.70 40.03L18.14 40.03L18.14 23.54L11.88 23.54L11.88 40.03L3.53 40.03L3.53 46.44L11.88 46.44L11.88 67.82C8.42 69.26 5.26 70.49 2.66 71.42L4.54 78.05C11.02 75.31 19.15 71.64 26.86 68.18ZM35.28 53.93L58.46 53.93L58.46 59.98L35.28 59.98ZM56.66 34.20L56.66 40.03L35.28 40.03L35.28 34.20ZM69.05 70.85L49.61 70.85L49.61 65.16L64.94 65.16L64.94 48.67L35.28 48.67L35.28 45.14L63.22 45.14L63.22 29.09L47.30 29.09C48.24 27.50 49.32 25.78 50.33 23.90L42.84 22.82C42.34 24.62 41.33 27.00 40.39 29.09L28.80 29.09L28.80 65.16L42.84 65.16L42.84 70.85L23.11 70.85L23.11 76.75L42.84 76.75L42.84 89.21L49.61 89.21L49.61 76.75L69.05 76.75Z"/></svg>
