<svg xmlns="http://www.w3.org/2000/svg" xmlns:xlink="http://www.w3.org/1999/xlink" width="72.00000000000001" height="106.56000000000002"><path fill="red" stroke="red" d="M54.72 41.90L60.91 41.90L60.91 35.28L68.54 35.28L68.54 29.45L60.91 29.45L60.91 23.33L54.72 23.33L54.72 29.45L47.66 29.45L47.66 35.28L54.72 35.28ZM31.97 41.90L38.16 41.90L38.16 35.35L45.14 35.35L45.14 29.52L38.16 29.52L38.16 23.33L31.97 23.33L31.97 29.52L24.62 29.52L24.62 35.35L31.97 35.35ZM17.93 68.11L17.93 46.66L24.55 46.66L24.55 40.32L17.93 40.32L17.93 23.98L11.59 23.98L11.59 40.32L3.96 40.32L3.96 46.66L11.59 46.66L11.59 70.34C8.28 71.50 5.26 72.58 2.74 73.30L4.97 80.14C11.09 77.76 18.79 74.66 25.99 71.71L24.70 65.66ZM56.23 71.14L56.23 80.86L35.93 80.86L35.93 71.14ZM29.66 89.06L35.93 89.06L35.93 86.47L56.23 86.47L56.23 89.06L62.78 89.06L62.78 65.59L29.66 65.59ZM49.82 41.26L44.57 38.74C39.31 45.79 30.17 52.06 21.38 55.73C22.46 57.02 24.26 59.98 24.84 61.34C27.94 59.76 31.18 57.89 34.27 55.80L34.27 60.91L57.10 60.91L57.10 55.37L34.85 55.37C38.66 52.70 42.34 49.75 45.43 46.44C51.19 51.70 59.62 57.24 66.74 60.70C67.18 59.04 68.33 56.09 69.26 54.50C62.42 51.91 54.00 46.87 48.96 42.41Z"/></svg>
