<svg xmlns="http://www.w3.org/2000/svg" xmlns:xlink="http://www.w3.org/1999/xlink" width="72.00000000000001" height="106.56000000000002"><path fill="red" stroke="red" d="M48.82 61.27C48.82 61.99 48.60 62.28 47.66 62.28C46.80 62.35 43.85 62.35 40.68 62.28C41.40 63.79 42.19 66.02 42.48 67.68C47.02 67.68 50.18 67.68 52.34 66.74C54.50 65.88 55.08 64.30 55.08 61.34L55.08 48.10L61.42 48.10C60.62 50.62 59.76 53.14 58.90 54.86L64.15 55.94C65.81 52.85 67.54 47.81 68.90 43.34L64.58 42.48L63.65 42.62L57.46 42.62L58.97 41.18C58.03 40.46 56.88 39.60 55.73 38.66C59.69 35.86 63.86 32.11 66.96 28.58L62.93 25.42L61.56 25.78L38.88 25.78L38.88 30.96L56.52 30.96C54.79 32.62 52.92 34.27 51.05 35.64C49.18 34.49 47.23 33.41 45.50 32.62L41.76 36.00C45.14 37.80 49.03 40.39 52.06 42.62L37.37 42.62L37.37 48.10L48.82 48.10ZM11.45 43.42L11.45 38.95L18.07 38.95L18.07 43.42ZM11.45 30.24L18.07 30.24L18.07 34.63L11.45 34.63ZM30.46 34.63L23.76 34.63L23.76 30.24L30.46 30.24ZM30.46 43.42L23.76 43.42L23.76 38.95L30.46 38.95ZM4.54 67.25C13.10 66.53 25.34 65.59 37.08 64.44L37.08 59.69C32.62 60.05 28.08 60.41 23.76 60.77L23.76 56.38L35.42 56.38L35.42 51.55L23.76 51.55L23.76 47.95L35.86 47.95L35.86 25.70L6.19 25.70L6.19 47.95L18.07 47.95L18.07 51.55L6.70 51.55L6.70 56.38L18.07 56.38L18.07 61.20C12.82 61.56 7.92 61.92 4.03 62.14ZM39.17 76.54L62.28 76.54L62.28 71.06L39.17 71.06L39.17 66.74L32.47 66.74L32.47 71.06L11.09 71.06L11.09 76.54L32.47 76.54L32.47 81.94L3.24 81.94L3.24 87.48L68.76 87.48L68.76 81.94L39.17 81.94Z"/></svg>
