<svg xmlns="http://www.w3.org/2000/svg" xmlns:xlink="http://www.w3.org/1999/xlink" width="72.00000000000001" height="106.56000000000002"><path fill="red" stroke="red" d="M12.46 31.25L19.73 31.25C18.58 34.85 17.06 39.24 15.70 42.84C19.80 46.80 21.02 50.26 21.02 52.92C21.10 54.58 20.74 55.80 19.87 56.38C19.44 56.66 18.79 56.81 18.00 56.88C17.14 56.88 16.06 56.88 14.69 56.74C15.55 58.25 16.13 60.41 16.20 61.92C17.64 61.99 19.30 61.92 20.52 61.78C21.82 61.63 22.90 61.27 23.90 60.55C25.78 59.33 26.71 56.88 26.64 53.50C26.64 50.18 25.42 46.37 21.17 42.12C23.11 37.73 25.27 32.18 27.07 27.72L22.97 25.63L22.10 25.92L6.62 25.92L6.62 66.38L12.46 66.38ZM39.24 75.31L61.20 75.31L61.20 70.06L39.24 70.06L39.24 64.80L32.54 64.80L32.54 70.06L11.45 70.06L11.45 75.31L32.54 75.31L32.54 81.50L4.10 81.50L4.10 86.98L68.11 86.98L68.11 81.50L39.24 81.50ZM61.92 37.58C59.11 39.67 54.72 42.41 51.05 44.35C49.75 42.12 47.95 39.96 45.72 38.09C47.02 37.15 48.24 36.36 49.32 35.35L67.46 35.35L67.46 30.31L56.52 30.31C57.89 28.58 59.40 26.64 60.70 24.62L54.50 23.26C53.50 25.27 51.70 28.15 49.97 30.31L38.81 30.31L42.41 29.09C41.76 27.50 40.18 24.91 38.74 22.97L33.55 24.62C34.70 26.35 36.00 28.58 36.72 30.31L27.50 30.31L27.50 35.35L41.90 35.35C37.73 37.87 31.90 40.03 26.64 41.18C27.50 42.19 28.87 43.99 29.45 45.07C33.48 43.99 37.73 42.41 41.62 40.39C42.41 41.11 43.13 41.83 43.78 42.55C40.25 45.29 33.70 47.95 28.44 49.18C29.52 50.11 30.96 51.77 31.68 52.92C36.36 51.48 42.12 48.67 46.15 45.79C46.58 46.58 46.94 47.38 47.30 48.17C42.91 52.70 34.63 56.74 27.43 58.61C28.44 59.62 29.88 61.34 30.60 62.64C36.79 60.62 43.70 56.95 48.60 52.78C49.10 56.23 48.46 59.18 47.23 60.26C46.37 61.27 45.50 61.42 44.14 61.42C42.98 61.42 41.47 61.42 39.67 61.20C40.61 62.64 41.04 64.87 41.11 66.31C42.55 66.38 44.06 66.38 45.36 66.38C47.74 66.31 49.46 65.81 51.19 64.08C54.00 61.63 55.08 55.15 52.92 48.74C53.64 48.38 54.43 48.02 55.22 47.66C57.24 53.86 60.84 59.54 65.66 62.57C66.46 61.06 68.26 59.04 69.62 57.96C65.09 55.58 61.56 50.54 59.76 45.29C61.92 44.06 64.01 42.84 65.88 41.54Z"/></svg>
