<svg xmlns="http://www.w3.org/2000/svg" xmlns:xlink="http://www.w3.org/1999/xlink" width="72.00000000000001" height="106.56000000000002"><path fill="red" stroke="red" d="M22.18 63.00L17.21 65.02L17.21 46.30L23.62 46.30L23.62 39.96L17.21 39.96L17.21 23.98L10.94 23.98L10.94 39.96L3.82 39.96L3.82 46.30L10.94 46.30L10.94 67.68C7.78 68.90 4.90 70.06 2.52 70.92L5.11 77.47C10.58 74.95 17.28 71.78 23.69 68.76ZM32.90 41.90L41.62 41.90L41.62 47.30L34.42 48.10L35.06 52.70L41.62 51.91L41.62 52.06C41.62 57.10 42.98 59.26 48.60 59.26L59.76 59.26C61.99 59.26 64.51 59.18 65.66 58.82C65.52 57.53 65.30 55.80 65.16 54.29C63.94 54.58 61.06 54.65 59.40 54.65L49.39 54.65C47.59 54.65 47.23 54.00 47.23 52.13L47.23 51.26L59.98 49.90L59.33 45.43L47.23 46.66L47.23 41.90L61.56 41.90C61.06 43.78 60.62 45.65 60.12 47.09L65.38 49.10C66.53 46.08 67.90 41.54 68.90 37.58L64.44 36.14L63.43 36.43L49.68 36.43L49.68 32.76L66.02 32.76L66.02 27.65L49.68 27.65L49.68 23.11L43.49 23.11L43.49 36.43L26.64 36.43L26.64 49.68C26.64 60.19 25.56 75.02 16.20 85.46C17.78 86.18 20.45 87.98 21.53 89.14C31.32 78.05 32.90 61.20 32.90 49.75ZM56.23 78.12L65.59 78.12L65.59 64.66L60.98 64.66L60.98 73.58L56.23 73.58L56.23 61.34L50.98 61.34L50.98 82.80L46.58 82.80L46.58 61.34L41.33 61.34L41.33 73.58L36.79 73.58L36.79 64.66L32.18 64.66L32.18 78.05L41.33 78.05L41.33 82.80L28.30 82.80L28.30 88.06L68.83 88.06L68.83 82.80L56.23 82.80Z"/></svg>
