<svg xmlns="http://www.w3.org/2000/svg" xmlns:xlink="http://www.w3.org/1999/xlink" width="72.00000000000001" height="106.56000000000002"><path fill="red" stroke="red" d="M31.90 58.25L33.19 55.44C30.82 54.65 26.50 53.57 23.18 52.92L21.74 55.58C24.98 56.38 29.02 57.46 31.54 58.32C27.50 59.40 23.69 60.26 20.66 60.91C20.81 59.47 20.88 57.96 20.88 56.66L20.88 52.13L34.49 52.13L34.49 57.60ZM66.67 47.95L66.67 42.70L55.22 42.70L55.22 32.76L50.26 32.76L50.26 42.70L41.04 42.70L41.04 47.95L50.04 47.95C49.32 53.57 47.02 59.62 39.74 64.44L39.74 64.08L39.74 48.53L15.70 48.53L15.70 56.52C15.70 59.69 15.55 63.36 13.18 66.31C14.33 66.89 16.85 68.26 17.86 69.12C19.30 67.18 20.09 64.80 20.52 62.35L21.53 64.73C25.42 63.65 29.95 62.50 34.49 61.20L34.49 64.15C34.49 64.87 34.27 65.02 33.48 65.09C32.83 65.09 30.31 65.16 27.65 65.02C28.22 66.10 28.87 67.46 29.16 68.62C33.12 68.62 35.86 68.62 37.51 68.04C38.88 67.54 39.46 66.89 39.67 65.66C40.75 66.60 41.98 67.75 42.70 68.76C48.96 64.73 52.20 59.83 53.78 54.72C56.09 60.91 59.54 66.02 64.58 68.83C65.45 67.32 67.10 65.30 68.40 64.15C62.50 61.34 58.68 55.22 56.59 47.95ZM33.62 38.30L21.74 38.30L21.74 36.22L33.62 36.22ZM33.62 43.42L21.74 43.42L21.74 41.11L33.62 41.11ZM38.59 33.26L16.92 33.26L16.92 46.30L38.59 46.30ZM66.38 39.67C65.23 37.73 62.71 34.92 60.55 32.98L56.74 35.21C58.90 37.30 61.27 40.32 62.42 42.26ZM13.32 30.96L67.32 30.96L67.32 25.99L7.34 25.99L7.34 51.12C7.34 61.27 6.98 75.10 2.30 84.74C3.82 85.25 6.48 86.83 7.63 87.77C12.53 77.62 13.32 61.99 13.32 51.12ZM43.78 77.40L63.36 77.40L63.36 72.50L43.78 72.50L43.78 69.05L37.37 69.05L37.37 72.50L17.28 72.50L17.28 77.40L37.37 77.40L37.37 82.30L12.38 82.30L12.38 87.26L67.82 87.26L67.82 82.30L43.78 82.30Z"/></svg>
