<svg xmlns="http://www.w3.org/2000/svg" xmlns:xlink="http://www.w3.org/1999/xlink" width="72.00000000000001" height="106.56000000000002"><path fill="red" stroke="red" d="M24.48 36.36L31.03 36.36L31.03 23.11L24.48 23.11L24.48 27.36L4.39 27.36L4.39 33.05L24.48 33.05ZM16.78 42.41L25.85 42.41L25.85 48.60L16.78 48.60ZM31.46 42.41L40.90 42.41L40.90 48.60L31.46 48.60ZM46.51 42.41L56.02 42.41L56.02 48.60L46.51 48.60ZM10.80 53.14L62.28 53.14L62.28 37.87L10.80 37.87ZM46.87 69.77C43.99 72.50 40.18 74.81 35.78 76.68C33.62 74.59 30.02 71.93 26.71 70.06L27.14 69.77ZM4.97 68.40L11.23 68.40L11.23 61.42L28.94 61.42C25.85 64.73 20.16 67.90 11.95 70.06C13.18 71.06 15.12 73.22 15.91 74.74C17.93 74.02 19.87 73.30 21.60 72.58C24.41 74.38 27.65 76.68 29.95 78.77C22.75 81.07 14.62 82.44 6.55 83.09C7.63 84.60 8.86 87.26 9.36 88.99C28.66 86.69 48.24 80.93 56.81 67.32L52.49 64.73L51.34 65.02L33.48 65.02C34.27 64.22 34.99 63.50 35.64 62.64L29.74 61.42L60.62 61.42L60.62 68.40L67.18 68.40L67.18 56.23L4.97 56.23ZM47.59 27.36L47.59 23.11L40.97 23.11L40.97 36.36L47.59 36.36L47.59 33.05L67.46 33.05L67.46 27.36Z"/></svg>
