<svg xmlns="http://www.w3.org/2000/svg" xmlns:xlink="http://www.w3.org/1999/xlink" width="72.00000000000001" height="106.56000000000002"><path fill="red" stroke="red" d="M20.81 43.85C20.66 50.62 20.02 58.68 16.70 66.60C14.62 64.51 12.31 62.50 10.22 60.62C11.38 55.87 12.53 50.18 13.54 44.35ZM29.95 43.20L29.95 37.44L26.35 37.66L26.35 33.19L20.81 33.19L20.81 37.94L14.47 38.30C15.19 33.19 15.84 28.22 16.27 23.69L10.58 23.47C10.22 28.08 9.58 33.34 8.78 38.52L2.66 38.81L3.31 44.93L7.78 44.64C6.62 51.41 5.26 57.74 3.96 62.50C7.06 65.30 10.58 68.69 13.90 72.07C11.30 76.54 7.70 80.78 2.66 84.67C4.03 85.54 6.05 87.48 6.98 88.78C11.81 84.96 15.34 80.86 18.14 76.46C20.59 79.13 22.75 81.72 24.26 83.81L28.08 78.62C26.50 76.46 23.98 73.80 21.17 70.92C25.49 61.42 26.28 51.62 26.35 43.49ZM42.41 37.01C45.36 39.96 49.03 44.28 50.76 46.94L55.37 43.78C53.57 41.18 49.75 37.08 46.80 34.20ZM54.72 67.10C52.70 64.30 48.60 59.90 45.36 56.81L41.04 59.62C44.28 62.93 48.24 67.54 50.04 70.34ZM36.86 72.29C37.37 67.18 37.87 61.20 38.38 54.94L58.68 54.94C58.39 62.50 58.03 68.11 57.67 72.29ZM59.33 32.04C59.18 38.38 59.04 43.99 58.90 48.96L38.81 48.96C39.24 43.27 39.60 37.44 39.89 32.04ZM69.19 54.94L69.19 48.96L65.09 48.96C65.30 43.42 65.45 36.94 65.59 29.59C65.59 28.73 65.66 26.14 65.66 26.14L34.06 26.14C33.77 33.05 33.26 41.04 32.69 48.96L28.08 48.96L28.08 54.94L32.18 54.94C31.39 63.72 30.53 72.07 29.74 78.26L56.88 78.26C56.59 80.06 56.16 81.14 55.73 81.79C55.01 82.87 54.29 83.23 53.14 83.23C51.70 83.23 48.89 83.16 45.58 82.87C46.58 84.53 47.30 87.12 47.38 88.70C50.69 88.92 53.93 88.99 56.16 88.63C58.39 88.20 59.98 87.48 61.42 85.10C62.28 83.95 62.86 81.86 63.36 78.26L67.90 78.26L67.90 72.29L64.01 72.29C64.37 67.90 64.66 62.21 64.87 54.94Z"/></svg>
