<svg xmlns="http://www.w3.org/2000/svg" xmlns:xlink="http://www.w3.org/1999/xlink" width="72.00000000000001" height="106.56000000000002"><path fill="red" stroke="red" d="M21.24 44.06C21.17 50.47 20.59 58.18 17.57 65.74C15.55 63.79 13.32 61.99 11.30 60.19C12.46 55.58 13.54 50.11 14.62 44.50ZM27.43 33.19L21.24 33.19L21.24 38.30L15.62 38.59C16.42 33.41 17.14 28.37 17.57 23.76L11.16 23.40C10.80 28.22 10.15 33.55 9.36 38.88L2.66 39.17L3.31 45.22L8.28 44.86C7.13 51.34 5.76 57.46 4.46 62.06C7.63 64.87 11.30 68.18 14.76 71.64C11.95 76.32 7.99 80.78 2.30 84.67C3.74 85.68 5.98 87.91 6.91 89.42C12.46 85.46 16.49 81.00 19.44 76.39C21.67 78.70 23.62 80.93 25.06 82.80L29.30 77.62C27.65 75.60 25.34 73.08 22.61 70.49C26.71 61.20 27.43 51.55 27.43 43.63L29.95 43.49L30.02 37.80L27.43 37.94ZM59.33 79.27L40.18 79.27L40.18 64.73L59.33 64.73ZM68.47 44.78L68.47 38.38L52.99 38.38L52.99 23.47L46.30 23.47L46.30 38.38L31.39 38.38L31.39 44.78L46.30 44.78L46.30 58.54L33.62 58.54L33.62 89.21L40.18 89.21L40.18 85.39L59.33 85.39L59.33 88.63L66.24 88.63L66.24 58.54L52.99 58.54L52.99 44.78Z"/></svg>
