<svg xmlns="http://www.w3.org/2000/svg" xmlns:xlink="http://www.w3.org/1999/xlink" width="72.00000000000001" height="106.56000000000002"><path fill="red" stroke="red" d="M38.09 37.37C41.62 40.10 45.58 43.27 49.39 46.44C45.14 49.90 40.10 52.27 34.56 53.71C35.71 55.01 37.08 57.38 37.73 58.90C43.85 57.10 49.32 54.29 53.93 50.40C57.38 53.42 60.34 56.30 62.42 58.61L67.61 55.08C65.23 52.56 61.85 49.46 58.03 46.30C61.92 41.83 64.80 36.22 66.53 29.30L62.78 28.01L61.70 28.22L37.80 28.22L37.80 33.55L59.04 33.55C57.60 36.94 55.73 40.03 53.42 42.55C49.82 39.67 46.08 36.79 42.70 34.34ZM26.78 34.99L15.70 34.99L15.70 31.03L26.78 31.03ZM15.70 47.09L26.78 47.09L26.78 49.97C22.97 50.33 19.22 50.69 15.70 51.05ZM26.78 42.77L15.70 42.77L15.70 39.24L26.78 39.24ZM9.72 51.62C7.85 51.77 6.05 51.91 4.39 52.06L4.90 57.17C11.02 56.45 18.79 55.66 26.78 54.72L26.78 58.25L32.83 58.25L32.83 31.03L36.72 31.03L36.72 25.78L3.96 25.78L3.96 31.03L9.72 31.03ZM45.07 71.35C42.84 73.66 40.18 75.60 37.08 77.11C32.76 76.18 28.30 75.31 23.90 74.45C24.77 73.44 25.56 72.50 26.42 71.35ZM67.97 71.35L67.97 66.24L55.87 66.24C56.23 65.45 56.59 64.66 56.95 63.79L50.76 62.06C50.18 63.50 49.54 64.94 48.74 66.24L30.17 66.24C31.46 64.30 32.76 62.28 33.84 60.41L27.14 58.75C25.85 61.13 24.26 63.72 22.39 66.24L4.18 66.24L4.18 71.35L18.58 71.35C16.78 73.51 14.98 75.67 13.32 77.33C18.50 78.26 23.62 79.20 28.44 80.28C21.96 82.01 13.97 82.94 4.39 83.45C5.40 84.89 6.41 87.19 6.91 88.99C20.30 88.06 30.82 86.26 38.88 82.66C48.17 84.89 56.16 87.34 61.99 89.57L67.75 85.32C61.92 83.30 54.07 81.14 45.29 78.98C48.38 76.90 50.90 74.38 52.99 71.35Z"/></svg>
