<svg xmlns="http://www.w3.org/2000/svg" xmlns:xlink="http://www.w3.org/1999/xlink" width="72.00000000000001" height="106.56000000000002"><path fill="red" stroke="red" d="M18.86 43.92C18.65 50.54 17.86 58.10 14.98 65.66C13.32 63.94 11.59 62.21 10.01 60.70C11.02 55.87 12.17 50.26 13.18 44.28ZM26.78 78.48C24.98 76.18 22.32 73.30 19.37 70.13C23.11 60.91 24.12 51.48 24.34 43.63L27.36 43.42L27.43 37.58L24.41 37.73L24.41 33.26L18.94 33.26L18.94 38.02L14.11 38.30C14.83 33.19 15.41 28.15 15.84 23.54L10.22 23.33C9.94 28.08 9.29 33.34 8.50 38.59C6.41 38.66 4.54 38.74 2.74 38.81L3.38 44.93L7.63 44.64C6.55 51.41 5.18 57.74 4.03 62.50C6.62 65.16 9.65 68.33 12.46 71.35C10.01 76.03 6.62 80.50 1.94 84.67C3.31 85.61 5.26 87.41 6.19 88.70C10.66 84.67 14.04 80.35 16.56 75.89C18.94 78.62 21.02 81.14 22.54 83.23ZM41.69 51.26C41.26 55.73 40.54 59.69 39.60 63.22C37.80 61.63 35.64 59.98 33.48 58.39C34.49 56.16 35.42 53.71 36.14 51.26ZM43.20 46.01L37.66 46.01C38.02 44.64 38.30 43.27 38.59 41.83L33.77 40.97L33.77 35.93L61.27 35.93L61.27 42.48L67.75 42.48L67.75 29.95L52.06 29.95C51.26 27.79 49.97 24.91 48.67 22.75L42.55 24.62C43.34 26.28 44.21 28.15 45.00 29.95L27.58 29.95L27.58 42.62L32.83 42.62C31.25 50.83 28.51 58.32 24.26 63.43C25.27 64.73 26.78 67.54 27.29 68.83C28.73 67.10 30.02 65.16 31.25 63.07C33.55 64.94 36.00 67.10 37.94 68.90C35.14 76.46 30.96 81.65 25.27 85.03C26.50 85.90 28.66 88.13 29.45 89.57C39.82 82.94 46.01 69.70 47.81 46.58L44.28 45.86ZM57.02 83.45C56.16 83.45 55.58 83.38 55.15 83.16C54.58 82.87 54.43 81.72 54.43 79.92L54.43 49.82L60.77 49.82L60.77 65.88C60.77 66.53 60.55 66.74 59.90 66.74C59.26 66.74 57.46 66.74 55.22 66.67C55.94 68.26 56.59 70.42 56.74 72.00C60.26 72.00 62.57 71.93 64.22 71.06C65.88 70.06 66.24 68.54 66.24 65.95L66.24 44.78L49.03 44.78L49.03 79.56C49.03 84.74 49.61 85.97 50.90 87.05C52.27 87.98 54.29 88.34 55.94 88.34L60.98 88.34C62.57 88.34 64.37 88.20 65.52 87.70C66.82 87.19 67.75 86.33 68.26 84.96C68.76 83.59 69.12 80.14 69.19 77.11C67.54 76.61 65.52 75.67 64.22 74.52C64.22 77.76 64.08 80.28 63.86 81.43C63.65 82.44 63.14 82.94 62.64 83.16C62.28 83.38 61.34 83.45 60.41 83.45Z"/></svg>
