<svg xmlns="http://www.w3.org/2000/svg" xmlns:xlink="http://www.w3.org/1999/xlink" width="72.00000000000001" height="106.56000000000002"><path fill="red" stroke="red" d="M16.99 44.06C16.92 50.40 16.49 57.89 14.26 65.23C12.74 63.72 11.23 62.14 9.72 60.62C10.66 55.87 11.66 50.18 12.38 44.35ZM38.02 35.93L68.40 35.93L68.40 30.31L55.94 30.31C55.08 28.08 53.71 25.34 52.27 23.18L46.44 24.41C47.52 26.21 48.53 28.37 49.32 30.31L32.26 30.31L32.26 44.14C31.18 41.04 29.81 37.66 28.37 34.85L24.12 36.58L24.70 37.73L22.39 37.87L22.39 33.26L16.99 33.26L16.99 38.16L13.18 38.30C13.82 33.19 14.33 28.15 14.62 23.47L9.00 23.33C8.78 28.08 8.28 33.34 7.63 38.59L2.66 38.81L3.31 44.93L6.84 44.71C5.83 51.41 4.75 57.82 3.67 62.50C6.19 65.16 9.14 68.33 11.88 71.42C9.79 76.03 6.84 80.57 2.59 84.67C3.96 85.54 5.90 87.48 6.91 88.70C10.87 84.82 13.75 80.57 15.98 76.18C17.35 77.83 18.50 79.27 19.44 80.64L23.40 75.67C22.18 74.09 20.59 72.07 18.58 69.98C21.82 60.91 22.32 51.55 22.39 43.78L24.91 43.56L24.91 38.30C26.64 42.19 28.22 46.80 28.94 49.97L32.26 48.46L32.26 53.14L32.26 55.37C28.37 59.11 24.62 62.57 22.03 64.66L25.42 69.55C27.43 67.61 29.66 65.52 31.82 63.36C31.03 71.28 29.02 79.63 23.54 85.97C24.91 86.69 27.29 88.49 28.37 89.50C36.72 79.56 38.02 64.22 38.02 53.14ZM68.40 65.81L68.40 60.19L55.80 60.19C55.87 58.46 55.94 56.95 55.94 55.44L55.94 49.25L66.10 49.25L66.10 43.78L48.89 43.78C49.39 41.98 49.82 40.18 50.18 38.30L44.64 37.22C43.56 43.78 41.40 50.18 38.09 54.50C39.46 55.08 41.83 56.52 42.91 57.38C44.42 55.08 45.86 52.34 47.09 49.25L50.18 49.25L50.18 55.37C50.18 56.88 50.18 58.46 50.04 60.19L39.17 60.19L39.17 65.81L49.25 65.81C47.95 72.29 44.57 79.42 36.50 85.18C37.94 86.11 39.96 87.98 40.82 89.14C49.97 82.15 53.64 73.51 55.08 65.81ZM54.94 69.05C58.68 75.31 62.57 83.74 64.01 88.92L69.19 86.47C67.68 81.36 63.65 73.22 59.76 67.03Z"/></svg>
