<svg xmlns="http://www.w3.org/2000/svg" xmlns:xlink="http://www.w3.org/1999/xlink" width="72.00000000000001" height="106.56000000000002"><path fill="red" stroke="red" d="M34.34 26.86L33.05 27.22L4.32 27.22L4.32 33.41L27.94 33.41C25.13 36.86 21.31 40.54 17.93 42.91L17.93 56.66C12.10 58.18 6.70 59.54 2.52 60.55L3.96 67.25C8.06 66.10 12.82 64.87 17.93 63.43L17.93 81.14C17.93 82.15 17.64 82.44 16.49 82.51C15.41 82.51 11.74 82.51 7.99 82.37C8.93 84.24 9.79 87.26 10.08 89.06C15.34 89.14 19.01 88.99 21.38 87.91C23.76 86.83 24.48 84.89 24.48 81.22L24.48 61.63C29.16 60.34 33.84 58.97 38.45 57.67L37.51 51.34C33.26 52.56 28.80 53.78 24.48 54.86L24.48 45.65C29.74 41.40 35.21 35.50 39.02 30.10ZM52.56 82.44C49.97 82.44 49.54 81.79 49.54 77.98L49.54 24.62L42.84 24.62L42.84 77.90C42.84 86.11 44.64 88.49 51.55 88.49L60.84 88.49C67.46 88.49 69.05 84.17 69.77 72.14C67.97 71.64 65.30 70.34 63.72 69.12C63.36 79.78 62.93 82.44 60.34 82.44Z"/></svg>
