<svg xmlns="http://www.w3.org/2000/svg" xmlns:xlink="http://www.w3.org/1999/xlink" width="72.00000000000001" height="106.56000000000002"><path fill="red" stroke="red" d="M11.52 33.55L60.62 33.55L60.62 37.08L31.61 37.08L31.61 41.18L57.10 41.18L57.10 44.14L27.58 44.14L27.58 48.53L57.10 48.53L57.10 51.77L31.39 51.77L31.39 55.94L63.22 55.94L63.22 48.53L66.89 48.53L66.89 44.14L63.22 44.14L63.22 40.18L66.89 40.18L66.89 28.08L40.82 28.08C40.10 26.28 39.02 24.26 38.02 22.68L30.96 24.26C31.54 25.42 32.18 26.71 32.69 28.08L5.47 28.08L5.47 40.25L11.52 40.25ZM19.15 52.34L13.39 52.34L13.39 41.62L7.85 41.62L7.85 57.96L19.15 57.96L19.15 63.72L4.18 63.72L4.18 69.26L8.86 69.26C8.28 76.39 6.84 82.08 2.74 85.97C4.18 86.69 6.91 88.49 7.92 89.28C12.17 84.60 14.04 77.90 14.76 69.26L19.15 69.26L19.15 89.06L25.20 89.06L25.20 36.36L19.15 36.36ZM54.50 71.78C52.70 74.16 50.26 76.25 47.52 77.90C44.42 76.18 41.90 74.09 39.89 71.78ZM61.92 63.72L61.92 68.18L58.97 66.96L57.96 67.18L32.90 67.18L32.90 63.72ZM67.61 69.70L67.61 59.11L27.43 59.11L27.43 69.70L32.11 69.70L32.11 71.78L34.20 71.78L33.70 71.93C35.78 75.31 38.59 78.19 41.98 80.64C37.73 82.44 32.76 83.66 27.72 84.31C28.73 85.61 29.95 87.84 30.46 89.28C36.58 88.13 42.41 86.47 47.52 83.95C52.42 86.33 58.10 87.91 64.37 88.92C65.23 87.41 66.67 84.96 67.97 83.81C62.57 83.23 57.46 82.08 53.06 80.50C56.81 77.62 59.98 74.09 62.06 69.70Z"/></svg>
