<svg xmlns="http://www.w3.org/2000/svg" xmlns:xlink="http://www.w3.org/1999/xlink" width="72.00000000000001" height="106.56000000000002"><path fill="red" stroke="red" d="M11.38 33.84L60.48 33.84L60.48 41.62L66.74 41.62L66.74 28.80L41.26 28.80C40.46 26.86 39.17 24.48 38.16 22.68L30.74 23.69C31.54 25.27 32.40 27.07 33.12 28.80L5.33 28.80L5.33 41.62L11.38 41.62ZM40.03 35.21L40.03 47.09L46.30 47.09L46.30 43.63L58.03 43.63L58.03 38.88L46.30 38.88L46.30 35.21ZM32.69 47.09L32.69 35.14L26.57 35.14L26.57 38.74L13.97 38.74L13.97 43.49L26.57 43.49L26.57 47.09ZM20.02 66.53L52.27 66.53L52.27 69.84L20.02 69.84ZM20.02 59.47L52.27 59.47L52.27 62.71L20.02 62.71ZM20.02 52.56L52.27 52.56L52.27 55.73L20.02 55.73ZM49.54 83.45C46.58 83.45 46.08 83.16 46.08 81.36L46.08 74.02L58.97 74.02L58.97 48.38L13.54 48.38L13.54 74.02L23.83 74.02C21.82 79.20 16.92 82.08 3.31 83.74C4.54 85.03 6.05 87.55 6.62 89.21C22.75 86.69 28.66 82.15 31.18 74.02L39.38 74.02L39.38 81.50C39.38 86.69 41.40 88.27 48.60 88.27L59.83 88.27C65.95 88.27 67.54 85.75 68.11 76.61C66.53 76.25 64.08 75.38 62.71 74.38C62.35 82.01 61.92 83.45 59.18 83.45ZM48.60 75.82C50.76 77.83 53.42 80.64 54.58 82.37L59.83 80.71C58.46 78.84 55.80 76.10 53.64 74.30Z"/></svg>
