<svg xmlns="http://www.w3.org/2000/svg" xmlns:xlink="http://www.w3.org/1999/xlink" width="72.00000000000001" height="106.56000000000002"><path fill="red" stroke="red" d="M57.10 32.54L57.10 39.96L16.27 39.96L16.27 32.54ZM63.79 45.79L63.79 26.71L9.50 26.71L9.50 47.59C9.50 58.75 9.00 74.74 2.81 85.75C4.46 86.40 7.56 88.13 8.78 89.06C15.34 77.40 16.27 59.62 16.27 47.59L16.27 45.79ZM58.68 69.34L58.68 80.78L45.58 80.78L45.58 66.10L62.71 66.10L62.71 49.54L56.30 49.54L56.30 60.62L45.58 60.62L45.58 47.09L38.95 47.09L38.95 60.62L28.66 60.62L28.66 49.54L22.61 49.54L22.61 66.10L38.95 66.10L38.95 80.78L26.64 80.78L26.64 69.48L20.23 69.48L20.23 86.47L58.68 86.47L58.68 89.06L65.16 89.06L65.16 69.34Z"/></svg>
