<svg xmlns="http://www.w3.org/2000/svg" xmlns:xlink="http://www.w3.org/1999/xlink" width="72.00000000000001" height="106.56000000000002"><path fill="red" stroke="red" d="M64.66 24.98L57.60 24.98L57.60 32.33L39.31 32.33L39.31 23.11L32.47 23.11L32.47 32.33L14.04 32.33L14.04 24.98L7.27 24.98L7.27 37.80L64.66 37.80ZM11.45 63.29L18.43 63.29L18.43 67.10L11.45 67.10ZM11.45 56.16L18.43 56.16L18.43 59.83L11.45 59.83ZM30.53 59.83L23.40 59.83L23.40 56.16L30.53 56.16ZM30.53 67.10L23.40 67.10L23.40 63.29L30.53 63.29ZM37.08 79.85L37.08 74.74L23.83 74.74L23.83 71.14L35.86 71.14L35.86 52.13L23.83 52.13L23.83 48.31L36.72 48.31L36.72 43.42L23.83 43.42L23.83 38.95L17.86 38.95L17.86 43.42L5.11 43.42L5.11 48.31L17.86 48.31L17.86 52.13L6.26 52.13L6.26 71.14L17.86 71.14L17.86 74.74L3.67 74.74L3.67 79.85L17.86 79.85L17.86 89.14L23.83 89.14L23.83 79.85ZM68.69 57.60L46.22 57.60L46.22 48.46C53.42 47.88 61.27 46.73 66.89 45.07L63.79 39.74C57.96 41.62 48.38 42.91 40.25 43.63L40.25 58.54C40.25 66.38 39.74 77.40 35.14 85.32C36.43 85.97 38.95 88.20 39.89 89.42C44.35 82.15 45.72 71.78 46.15 63.29L54.36 63.29L54.36 89.21L60.48 89.21L60.48 63.29L68.69 63.29Z"/></svg>
