<svg xmlns="http://www.w3.org/2000/svg" xmlns:xlink="http://www.w3.org/1999/xlink" width="72.00000000000001" height="106.56000000000002"><path fill="red" stroke="red" d="M20.02 38.95L29.09 38.95L29.09 32.33L3.17 32.33L3.17 38.95L13.32 38.95L13.32 68.40C9.22 69.19 5.40 69.91 2.30 70.42L3.82 77.33C11.30 75.74 21.31 73.51 30.67 71.35L30.10 64.94C26.71 65.66 23.33 66.31 20.02 67.03ZM68.98 34.13L68.98 27.43L29.81 27.43L29.81 34.13L39.60 34.13C38.02 42.26 35.93 51.55 34.06 57.67L59.98 57.67C58.90 72.29 57.74 79.13 55.58 80.86C54.72 81.58 53.71 81.72 51.98 81.72C49.82 81.72 44.14 81.65 38.52 81.14C39.96 83.09 41.04 86.04 41.18 87.98C46.44 88.27 51.55 88.34 54.36 88.13C57.60 87.84 59.62 87.26 61.63 85.18C64.51 82.15 65.74 74.16 67.03 54.29L67.25 51.19L42.91 51.19C44.06 45.94 45.36 39.89 46.51 34.13Z"/></svg>
