<svg xmlns="http://www.w3.org/2000/svg" xmlns:xlink="http://www.w3.org/1999/xlink" width="72.00000000000001" height="106.56000000000002"><path fill="red" stroke="red" d="M68.33 39.82L68.33 33.26L41.33 33.26C40.32 30.46 37.80 25.85 35.86 22.54L29.30 24.48C30.74 27.14 32.40 30.53 33.55 33.26L3.74 33.26L3.74 39.82L32.26 39.82L32.26 48.74L10.30 48.74L10.30 81.29L17.06 81.29L17.06 55.30L32.26 55.30L32.26 88.99L39.24 88.99L39.24 55.30L55.44 55.30L55.44 73.37C55.44 74.38 55.08 74.66 53.86 74.74C52.70 74.74 48.38 74.74 44.06 74.59C45.07 76.39 46.15 79.27 46.44 81.14C52.27 81.14 56.30 81.07 58.97 79.99C61.63 78.98 62.35 76.97 62.35 73.44L62.35 48.74L39.24 48.74L39.24 39.82Z"/></svg>
