<svg xmlns="http://www.w3.org/2000/svg" xmlns:xlink="http://www.w3.org/1999/xlink" width="72.00000000000001" height="106.56000000000002"><path fill="red" stroke="red" d="M39.82 36.65L39.82 42.98L32.33 42.98L32.33 36.65ZM26.50 36.65L26.50 48.10L45.94 48.10L45.94 36.65L51.41 36.65L51.41 40.82C51.41 46.44 52.56 48.74 58.25 48.74L63.94 48.74C65.52 48.74 67.18 48.67 68.11 48.38C67.90 46.94 67.75 44.71 67.61 43.20C66.67 43.42 64.94 43.56 63.86 43.56L58.75 43.56C57.53 43.56 57.38 42.91 57.38 40.97L57.38 36.65L67.75 36.65L67.75 31.39L57.38 31.39L57.38 23.90L51.41 23.90L51.41 31.39L45.94 31.39L45.94 24.05L39.82 24.05L39.82 31.39L32.33 31.39L32.33 24.05L26.50 24.05L26.50 31.39L21.17 31.39L21.17 24.05L15.12 24.05L15.12 31.39L4.46 31.39L4.46 36.65L14.83 36.65C14.04 40.18 11.74 43.92 4.90 46.15C6.26 47.30 7.99 49.32 8.78 50.69C17.21 47.16 20.16 41.83 20.95 36.65ZM60.12 63.22L39.02 63.22L39.02 58.03L32.40 58.03L32.40 63.22L12.67 63.22L12.67 85.03L19.15 85.03L19.15 68.54L32.40 68.54L32.40 89.14L39.02 89.14L39.02 68.54L53.50 68.54L53.50 78.41C53.50 79.27 53.21 79.49 52.13 79.56C51.19 79.56 47.38 79.56 43.70 79.42C44.57 81.00 45.50 83.52 45.79 85.18C51.12 85.18 54.65 85.18 57.02 84.24C59.40 83.38 60.12 81.58 60.12 78.55ZM5.69 65.74L11.88 65.74L11.88 56.74L60.41 56.74L60.41 65.74L66.89 65.74L66.89 51.26L5.69 51.26Z"/></svg>
