<svg xmlns="http://www.w3.org/2000/svg" xmlns:xlink="http://www.w3.org/1999/xlink" width="72.00000000000001" height="106.56000000000002"><path fill="red" stroke="red" d="M68.40 36.14L68.40 30.17L43.92 30.17C43.13 27.86 41.69 25.06 40.18 22.90L33.48 24.62C34.49 26.28 35.50 28.30 36.29 30.17L8.71 30.17L8.71 50.47C8.71 60.91 8.21 75.53 2.38 85.68C3.82 86.33 6.77 88.34 7.92 89.42C14.26 78.55 15.26 61.70 15.26 50.47L15.26 36.14ZM31.68 86.98L50.11 86.98L50.11 81.65L31.68 81.65ZM28.66 57.17L28.66 47.88C33.26 47.66 37.87 47.38 42.55 46.94C42.77 50.47 43.06 53.93 43.56 57.17ZM66.60 63.07L66.60 57.17L50.11 57.17C49.61 53.78 49.25 50.11 49.10 46.30C54.50 45.72 59.69 45.00 64.08 44.06L59.18 39.10C50.47 41.04 35.28 42.26 22.32 42.77L22.32 72.14C22.32 74.88 21.10 76.03 20.02 76.54C20.88 77.83 22.03 80.57 22.39 82.15C23.90 81.14 26.35 80.28 41.62 76.39C41.54 75.02 41.47 72.50 41.54 70.70L28.66 73.66L28.66 63.07L44.42 63.07C47.30 77.76 52.99 88.20 60.70 88.20C65.66 88.20 67.82 85.54 68.69 75.24C67.10 74.74 64.80 73.44 63.43 72.22C63.14 78.84 62.57 81.86 61.13 81.86C57.38 81.94 53.42 74.30 51.05 63.07Z"/></svg>
