<svg xmlns="http://www.w3.org/2000/svg" xmlns:xlink="http://www.w3.org/1999/xlink" width="72.00000000000001" height="106.56000000000002"><path fill="red" stroke="red" d="M44.06 50.54L55.08 50.54L55.08 54.00L44.06 54.00ZM44.06 42.91L55.08 42.91L55.08 46.15L44.06 46.15ZM56.45 65.30L56.45 68.76L44.06 68.76L44.06 65.30ZM44.06 76.18L44.06 72.50L56.45 72.50L56.45 76.18ZM25.20 76.18C25.34 74.88 25.34 73.73 25.34 72.50L37.51 72.50L37.51 76.18ZM37.51 65.30L37.51 68.76L25.34 68.76L25.34 65.30ZM61.34 57.96L61.34 50.76L68.33 50.76L68.33 45.79L61.34 45.79L61.34 38.88L44.06 38.88L44.06 34.63L68.18 34.63L68.18 28.94L44.21 28.94C43.27 27.00 42.05 24.70 40.90 22.90L33.62 23.98C34.49 25.42 35.42 27.22 36.14 28.94L8.57 28.94L8.57 50.04C8.57 60.55 8.14 75.24 2.74 85.46C4.18 86.11 6.91 88.06 8.06 89.21C13.97 78.19 14.90 61.34 14.90 50.04L14.90 34.63L37.51 34.63L37.51 38.88L21.02 38.88L21.02 42.91L37.51 42.91L37.51 46.15L16.34 46.15L16.34 50.54L37.51 50.54L37.51 54.00L20.59 54.00L20.59 57.96L37.51 57.96L37.51 61.34L19.22 61.34L19.22 72.36C19.22 76.46 18.94 81.14 15.77 84.82C17.14 85.61 19.58 88.06 20.52 89.28C22.82 86.83 24.05 83.52 24.70 80.21L37.51 80.21L37.51 88.63L44.06 88.63L44.06 80.21L56.45 80.21L56.45 83.45C56.45 84.31 56.16 84.53 55.15 84.53C54.29 84.67 51.12 84.67 47.81 84.53C48.53 85.90 49.32 87.70 49.61 89.21C54.50 89.21 57.96 89.21 60.05 88.42C62.14 87.62 62.78 86.40 62.78 83.45L62.78 61.34L44.06 61.34L44.06 57.96Z"/></svg>
