<svg xmlns="http://www.w3.org/2000/svg" xmlns:xlink="http://www.w3.org/1999/xlink" width="72.00000000000001" height="106.56000000000002"><path fill="red" stroke="red" d="M59.83 24.34C55.87 29.88 48.38 35.50 42.12 38.74C43.85 40.03 45.94 42.19 47.09 43.70C53.93 39.74 61.49 33.55 66.53 27.07ZM61.56 43.85C57.24 49.61 49.25 55.44 42.55 58.82C44.28 60.19 46.30 62.28 47.52 63.79C54.79 59.69 62.78 53.35 68.11 46.66ZM37.37 23.90C29.09 26.35 15.19 28.15 3.46 29.16C4.18 30.60 4.97 33.12 5.18 34.63C17.21 33.84 31.61 32.18 41.47 29.52ZM34.06 50.40C36.22 46.94 39.10 41.47 41.47 36.65L34.92 34.92C33.62 39.10 31.03 45.00 28.87 48.74ZM28.08 45.94C27.29 42.91 25.20 38.38 23.11 35.06L17.93 36.65C19.94 40.10 21.82 44.78 22.46 47.81ZM16.63 48.02C15.55 44.93 12.89 40.32 10.22 37.01L5.18 39.24C7.85 42.70 10.44 47.38 11.38 50.54ZM40.82 61.85L40.82 55.80L26.71 55.80L26.71 48.74L20.23 48.74L20.23 55.80L4.39 55.80L4.39 61.85L18.22 61.85C14.11 68.40 7.85 74.95 2.09 78.55C3.53 80.06 5.18 82.66 6.12 84.53C10.94 80.93 16.06 75.38 20.23 69.62L20.23 88.99L26.71 88.99L26.71 67.54C30.53 70.99 34.13 75.17 36.00 78.12L40.54 73.73C38.30 70.27 33.55 65.52 28.87 61.85ZM63.29 63.72C58.18 72.29 48.53 79.49 38.52 83.45C40.32 84.96 42.34 87.41 43.34 89.14C54.07 84.17 63.86 76.32 69.91 66.46Z"/></svg>
