<svg xmlns="http://www.w3.org/2000/svg" xmlns:xlink="http://www.w3.org/1999/xlink" width="72.00000000000001" height="106.56000000000002"><path fill="red" stroke="red" d="M69.77 70.63C69.12 63.86 66.53 53.86 63.29 45.94L57.53 47.59C60.48 55.37 63.00 65.66 63.50 72.29ZM23.62 40.97L14.33 40.97L14.33 32.18L23.62 32.18ZM14.33 71.42L14.33 61.20L23.62 61.20L23.62 69.98ZM23.62 55.66L14.33 55.66L14.33 46.58L23.62 46.58ZM35.14 32.18L35.14 26.06L3.74 26.06L3.74 32.18L8.28 32.18L8.28 72.29C6.19 72.58 4.32 72.86 2.59 73.08L3.89 79.42C9.50 78.48 16.56 77.33 23.62 76.10L23.62 89.21L29.88 89.21L29.88 32.18ZM35.71 74.16C38.74 68.11 39.89 57.74 40.46 48.96L34.70 47.88C34.20 56.59 32.98 66.24 29.95 72.29ZM61.27 35.93C58.10 32.04 51.41 26.93 45.94 23.54L41.47 27.65C47.02 31.25 53.57 36.65 56.45 40.54ZM51.84 82.58C49.90 82.58 49.61 82.08 49.61 79.34L49.61 40.03L43.13 40.03L43.13 79.34C43.13 86.54 44.78 88.56 50.90 88.56L58.68 88.56C64.01 88.56 65.66 85.46 66.31 75.67C64.51 75.17 62.06 74.16 60.55 73.01C60.34 80.86 59.90 82.58 58.10 82.58Z"/></svg>
