<svg xmlns="http://www.w3.org/2000/svg" xmlns:xlink="http://www.w3.org/1999/xlink" width="72.00000000000001" height="106.56000000000002"><path fill="red" stroke="red" d="M7.63 57.24C9.36 51.70 10.66 43.20 10.94 37.01L5.76 36.36C5.33 42.34 4.03 50.47 2.23 55.30ZM28.37 43.92C27.58 41.18 25.49 36.79 23.54 33.48L19.22 35.50L19.22 23.18L12.82 23.18L12.82 89.21L19.22 89.21L19.22 35.64C21.10 39.10 23.04 43.63 23.83 46.37ZM64.15 56.16L33.70 56.16L33.70 68.69C33.70 74.16 33.26 81.00 29.30 86.11C30.67 86.69 33.26 88.56 34.34 89.64C38.74 83.95 39.60 75.38 39.60 68.83L39.60 61.13L57.74 61.13L57.74 71.21C50.90 72.58 44.14 74.02 39.38 74.81L41.33 79.85C46.15 78.55 51.91 76.97 57.74 75.38L57.74 82.66C57.74 83.45 57.46 83.74 56.59 83.74C55.80 83.81 52.99 83.81 50.11 83.74C50.83 85.18 51.62 87.26 51.91 88.92C56.30 88.92 59.47 88.92 61.56 88.06C63.58 87.12 64.15 85.68 64.15 82.73ZM41.26 65.30C44.93 67.10 49.61 70.13 51.98 71.93L54.86 68.11C52.49 66.38 47.88 63.94 43.99 62.06ZM54.86 48.31L54.86 43.56L65.66 43.56L65.66 38.74L39.96 38.74C40.46 37.58 40.97 36.50 41.47 35.35L67.82 35.35L67.82 29.66L43.56 29.66C44.14 27.86 44.64 26.14 45.07 24.34L38.95 23.18C38.45 25.42 37.80 27.58 37.08 29.66L27.72 29.66L27.72 35.35L34.78 35.35C31.97 41.26 28.22 46.30 23.54 49.97C24.84 50.98 27.22 53.42 28.01 54.65C32.26 51.05 35.86 46.44 38.74 41.11L38.74 43.56L48.82 43.56L48.82 48.31L34.56 48.31L34.56 53.42L67.90 53.42L67.90 48.31Z"/></svg>
