<svg xmlns="http://www.w3.org/2000/svg" xmlns:xlink="http://www.w3.org/1999/xlink" width="72.00000000000001" height="106.56000000000002"><path fill="red" stroke="red" d="M47.52 37.30L54.14 37.30L54.14 32.98L67.75 32.98L67.75 27.43L54.14 27.43L54.14 23.04L47.52 23.04L47.52 27.43L37.37 27.43L37.37 32.98L47.52 32.98ZM18.29 37.15L24.91 37.15L24.91 32.98L34.34 32.98L34.34 27.43L24.91 27.43L24.91 22.97L18.29 22.97L18.29 27.43L4.46 27.43L4.46 32.98L18.29 32.98ZM52.92 61.92L24.41 61.92L24.41 55.08L52.92 55.08ZM18.14 67.03L30.82 67.03L28.22 69.26C32.54 71.42 37.51 74.95 39.89 77.62L44.35 73.58C42.41 71.42 38.88 68.90 35.28 67.03L59.54 67.03L59.54 49.97L25.49 49.97C26.71 48.46 28.01 47.02 29.16 45.36L66.82 45.36L66.82 40.03L32.47 40.03C33.12 38.81 33.62 37.66 34.20 36.43L27.65 34.78C26.86 36.65 25.99 38.30 24.91 40.03L4.90 40.03L4.90 45.36L20.95 45.36C16.20 50.98 9.86 55.37 2.74 58.39C4.18 59.54 6.41 62.21 7.42 63.58C11.23 61.70 14.83 59.47 18.14 56.88ZM8.06 87.55C13.68 84.10 16.63 78.26 18.43 72.29L12.53 70.27C10.94 75.60 7.70 80.78 2.59 83.66ZM32.33 82.30C28.51 82.30 27.94 82.01 27.94 80.06L27.94 70.56L21.31 70.56L21.31 80.21C21.31 86.47 23.26 88.27 31.68 88.27L45.00 88.27C51.48 88.27 53.35 86.33 54.22 78.05C52.42 77.69 49.61 76.68 48.24 75.60C47.88 81.50 47.38 82.30 44.42 82.30ZM50.62 72.72C55.87 76.61 61.42 82.44 63.65 86.69L69.48 83.09C66.96 78.70 61.27 73.15 55.94 69.41Z"/></svg>
