<svg xmlns="http://www.w3.org/2000/svg" xmlns:xlink="http://www.w3.org/1999/xlink" width="72.00000000000001" height="106.56000000000002"><path fill="red" stroke="red" d="M52.56 47.02C55.58 46.30 59.62 45.14 62.64 43.56L59.98 40.25C57.60 41.33 53.28 43.20 50.47 43.99ZM30.24 39.17L43.49 39.17L43.49 54.22L49.03 54.22L49.03 39.17L62.71 39.17L62.71 45.07L68.18 45.07L68.18 34.70L49.03 34.70L49.03 31.10L66.24 31.10L66.24 26.14L27.00 26.14L27.00 31.10L43.49 31.10L43.49 34.70L24.98 34.70L24.98 45.07L30.24 45.07ZM50.76 50.90C55.44 51.91 61.63 53.71 64.87 54.86L66.24 50.90C63.00 49.75 56.74 48.24 52.13 47.38ZM30.46 43.85C33.84 44.64 38.16 46.01 40.46 47.02L42.26 43.06C39.89 42.05 35.57 40.97 32.33 40.32ZM28.80 54.72C32.76 53.64 37.08 52.49 41.62 51.12L41.40 47.74C36.00 48.74 30.96 49.75 27.14 50.33ZM7.13 57.02C8.64 51.62 9.79 43.27 10.01 37.58L5.62 37.08C5.18 42.70 4.03 50.69 2.52 55.51ZM25.49 48.38C24.84 45.07 23.11 39.24 21.46 34.78L17.50 36.14L17.50 23.11L11.52 23.11L11.52 89.21L17.50 89.21L17.50 37.08C19.01 41.40 20.45 46.94 21.02 50.26ZM68.90 61.63L68.90 56.45L24.41 56.45L24.41 61.63L40.03 61.63C39.53 63.14 39.02 64.80 38.52 66.17L26.71 66.17L26.71 89.35L32.33 89.35L32.33 71.14L38.16 71.14L38.16 88.56L43.42 88.56L43.42 71.14L48.96 71.14L48.96 88.56L54.22 88.56L54.22 71.14L60.62 71.14L60.62 83.59C60.62 84.17 60.41 84.38 59.83 84.38C59.26 84.38 57.60 84.38 55.80 84.31C56.52 85.75 57.31 87.70 57.53 89.28C60.70 89.28 62.93 89.21 64.66 88.42C66.24 87.55 66.67 86.26 66.67 83.59L66.67 66.17L44.71 66.17C45.36 64.80 46.08 63.22 46.80 61.63Z"/></svg>
