<svg xmlns="http://www.w3.org/2000/svg" xmlns:xlink="http://www.w3.org/1999/xlink" width="72.00000000000001" height="106.56000000000002"><path fill="red" stroke="red" d="M25.56 60.12L24.70 54.07L18.29 55.87L18.29 43.34L25.27 43.34L25.27 37.15L18.29 37.15L18.29 23.26L12.17 23.26L12.17 37.15L3.67 37.15L3.67 43.34L12.17 43.34L12.17 57.67C8.57 58.68 5.33 59.62 2.66 60.26L4.25 66.74L12.17 64.30L12.17 81.14C12.17 82.15 11.81 82.44 10.94 82.44C10.15 82.44 7.42 82.44 4.54 82.37C5.40 84.10 6.19 86.98 6.41 88.56C10.87 88.56 13.82 88.34 15.77 87.26C17.64 86.26 18.29 84.46 18.29 81.14L18.29 62.35ZM44.14 39.53L44.14 50.90L34.42 50.90L34.42 39.53ZM57.67 56.81C55.73 62.28 52.78 67.03 49.18 71.06C45.50 66.96 42.55 62.21 40.54 56.81ZM61.49 50.62L60.26 50.90L50.62 50.90L50.62 39.53L60.41 39.53C59.69 42.55 58.90 45.50 58.10 47.74L63.94 49.03C65.52 45.22 67.25 39.31 68.62 34.13L63.72 33.05L62.71 33.26L50.62 33.26L50.62 23.18L44.14 23.18L44.14 33.26L28.08 33.26L28.08 52.20C28.08 61.99 27.36 75.24 19.94 84.46C21.38 85.25 24.05 87.48 25.06 88.70C32.04 80.14 33.91 67.32 34.34 57.10C36.86 64.15 40.25 70.34 44.64 75.46C40.10 79.20 34.78 81.94 29.23 83.74C30.46 85.03 32.11 87.48 32.83 89.14C38.81 86.98 44.35 83.95 49.03 79.99C53.64 83.95 59.11 87.05 65.45 89.06C66.38 87.19 68.26 84.53 69.77 83.30C63.58 81.58 58.32 78.91 53.86 75.38C59.26 69.48 63.29 61.85 65.66 52.27Z"/></svg>
