<svg xmlns="http://www.w3.org/2000/svg" xmlns:xlink="http://www.w3.org/1999/xlink" width="72.00000000000001" height="106.56000000000002"><path fill="red" stroke="red" d="M28.58 59.62L27.72 53.50L19.22 55.87L19.22 43.42L27.58 43.42L27.58 37.22L19.22 37.22L19.22 23.18L12.60 23.18L12.60 37.22L3.46 37.22L3.46 43.42L12.60 43.42L12.60 57.67C8.86 58.68 5.47 59.54 2.59 60.19L4.39 66.60C6.91 65.88 9.72 65.16 12.60 64.30L12.60 81.72C12.60 82.73 12.24 83.09 11.23 83.09C10.37 83.16 7.27 83.16 4.10 83.02C5.04 84.74 5.90 87.48 6.12 89.14C11.09 89.14 14.26 88.99 16.34 87.91C18.43 86.90 19.22 85.25 19.22 81.65L19.22 62.35ZM52.92 80.93L52.92 63.65L66.38 63.65L66.38 57.67L52.92 57.67L52.92 42.70L67.61 42.70L67.61 36.58L48.02 36.58L54.22 34.34C53.28 31.25 51.05 26.64 48.82 23.18L42.84 25.20C44.86 28.80 47.09 33.55 47.81 36.58L29.88 36.58L29.88 42.70L45.86 42.70L45.86 57.67L31.46 57.67L31.46 63.65L45.86 63.65L45.86 80.93L27.65 80.93L27.65 87.05L69.05 87.05L69.05 80.93Z"/></svg>
