<svg xmlns="http://www.w3.org/2000/svg" xmlns:xlink="http://www.w3.org/1999/xlink" width="72.00000000000001" height="106.56000000000002"><path fill="red" stroke="red" d="M27.43 53.57C24.84 54.29 22.25 55.01 19.66 55.73L19.66 43.49L27.29 43.49L27.29 37.08L19.66 37.08L19.66 23.11L13.03 23.11L13.03 37.08L3.38 37.08L3.38 43.49L13.03 43.49L13.03 57.60C9.00 58.68 5.26 59.54 2.23 60.26L4.03 66.82C6.77 66.02 9.79 65.23 13.03 64.30L13.03 81.50C13.03 82.58 12.60 82.87 11.66 82.87C10.80 82.94 7.70 82.94 4.68 82.87C5.62 84.53 6.48 87.41 6.77 89.06C11.59 89.06 14.69 88.85 16.85 87.84C18.94 86.76 19.66 85.03 19.66 81.50L19.66 62.35L28.30 59.83ZM59.76 51.91C63.22 51.91 67.03 51.77 68.54 51.41C68.26 49.97 68.04 47.45 67.82 45.65C65.95 46.01 61.92 46.15 59.40 46.15L41.69 46.15C38.52 46.15 37.73 45.14 37.73 42.34L37.73 37.22L66.17 37.22L66.17 31.46L37.73 31.46L37.73 23.26L31.10 23.26L31.10 42.26C31.10 49.39 33.62 51.91 41.76 51.91ZM58.97 62.93L58.97 68.98L37.80 68.98L37.80 62.93ZM37.80 80.50L37.80 74.23L58.97 74.23L58.97 80.50ZM31.46 89.14L37.80 89.14L37.80 85.90L58.97 85.90L58.97 88.78L65.59 88.78L65.59 57.38L31.46 57.38Z"/></svg>
