<svg xmlns="http://www.w3.org/2000/svg" xmlns:xlink="http://www.w3.org/1999/xlink" width="72.00000000000001" height="106.56000000000002"><path fill="red" stroke="red" d="M24.05 54.07L17.78 55.94L17.78 43.34L25.34 43.34L25.34 37.15L17.78 37.15L17.78 23.26L11.66 23.26L11.66 37.15L3.24 37.15L3.24 43.34L11.66 43.34L11.66 57.67C8.14 58.68 4.97 59.62 2.38 60.26L3.89 66.74L11.66 64.37L11.66 81.14C11.66 82.15 11.30 82.44 10.44 82.44C9.65 82.44 6.91 82.44 4.10 82.37C4.90 84.10 5.76 86.98 5.90 88.56C10.44 88.56 13.32 88.34 15.26 87.26C17.14 86.26 17.78 84.46 17.78 81.14L17.78 62.42C20.16 61.63 22.61 60.91 24.91 60.12ZM57.60 69.91L57.60 80.50L35.57 80.50L35.57 69.91ZM29.38 89.21L35.57 89.21L35.57 86.26L57.60 86.26L57.60 88.92L64.15 88.92L64.15 64.08L29.38 64.08ZM55.87 43.99C55.73 46.80 55.44 50.11 55.15 53.06L42.19 53.06C42.77 50.40 43.42 47.23 43.99 43.99ZM61.70 53.06C62.06 48.46 62.50 43.13 62.71 38.38L57.82 38.02L56.81 38.30L45.00 38.30C45.43 36.07 45.86 33.77 46.22 31.68L66.89 31.68L66.89 25.99L27.00 25.99L27.00 31.68L39.46 31.68C39.10 33.77 38.74 36.07 38.38 38.30L28.80 38.30L28.80 43.99L37.30 43.99C36.79 47.23 36.14 50.40 35.50 53.06L25.34 53.06L25.34 58.90L68.83 58.90L68.83 53.06Z"/></svg>
