<svg xmlns="http://www.w3.org/2000/svg" xmlns:xlink="http://www.w3.org/1999/xlink" width="72.00000000000001" height="106.56000000000002"><path fill="red" stroke="red" d="M62.06 24.98C60.55 29.16 57.60 34.92 55.37 38.59L60.91 40.82C63.22 37.30 66.02 32.11 68.33 27.36ZM40.75 38.38C39.67 34.78 36.72 29.38 33.84 25.34L28.37 27.94C31.18 32.04 34.06 37.73 34.99 41.33ZM26.42 59.90L25.56 53.78L18.50 55.80L18.50 43.34L26.14 43.34L26.14 37.15L18.50 37.15L18.50 23.26L12.38 23.26L12.38 37.15L3.74 37.15L3.74 43.34L12.38 43.34L12.38 57.60C8.71 58.68 5.40 59.54 2.74 60.26L4.25 66.74L12.38 64.22L12.38 81.14C12.38 82.15 12.02 82.44 11.16 82.44C10.37 82.44 7.63 82.44 4.75 82.37C5.62 84.10 6.41 86.98 6.62 88.56C11.09 88.56 14.04 88.34 15.98 87.26C17.86 86.26 18.50 84.46 18.50 81.14L18.50 62.42ZM65.74 43.34L51.34 43.34L51.34 23.11L44.93 23.11L44.93 43.34L29.59 43.34L29.59 64.01C29.59 70.99 29.30 79.63 25.85 85.82C27.29 86.54 29.95 88.49 31.10 89.64C35.14 82.73 35.78 72.07 35.78 64.08L35.78 49.18L59.40 49.18L59.40 64.44C50.90 66.46 42.26 68.33 36.29 69.55L38.38 75.17C44.42 73.73 52.06 71.86 59.40 69.91L59.40 81.36C59.40 82.37 59.04 82.73 58.03 82.73C56.88 82.80 53.28 82.80 49.68 82.66C50.40 84.31 51.34 87.19 51.55 88.85C56.88 88.85 60.48 88.85 62.71 87.77C65.02 86.76 65.74 84.82 65.74 81.50ZM37.51 57.38C43.42 58.75 50.98 61.56 54.86 63.72L57.67 59.04C53.64 56.95 46.08 54.43 40.18 53.21Z"/></svg>
