<svg xmlns="http://www.w3.org/2000/svg" xmlns:xlink="http://www.w3.org/1999/xlink" width="72.00000000000001" height="106.56000000000002"><path fill="red" stroke="red" d="M55.87 45.65C54.65 45.65 54.36 45.14 54.36 43.27L54.36 34.42L48.46 34.42L48.46 43.20C48.46 49.32 49.90 51.26 55.94 51.26L63.14 51.26C65.02 51.26 66.74 51.19 67.82 50.83C67.68 49.46 67.46 46.87 67.32 45.29C66.24 45.58 64.30 45.65 63.00 45.65ZM31.61 32.54L60.19 32.54L60.19 40.10L66.67 40.10L66.67 26.86L25.42 26.86L25.42 40.39L31.61 40.39ZM37.30 34.56C36.79 42.26 34.78 46.01 23.83 48.10C25.13 49.25 26.71 51.70 27.22 53.21C40.03 50.26 42.70 44.64 43.42 34.56ZM23.90 59.69L22.82 53.57L17.64 55.44L17.64 43.34L23.11 43.34L23.11 37.15L17.64 37.15L17.64 23.18L11.45 23.18L11.45 37.15L4.03 37.15L4.03 43.34L11.45 43.34L11.45 57.60C8.42 58.68 5.62 59.69 3.24 60.34L4.97 66.74L11.45 64.37L11.45 81.29C11.45 82.22 11.16 82.44 10.30 82.44C9.50 82.51 6.98 82.51 4.32 82.37C5.18 84.17 5.98 86.98 6.12 88.63C10.44 88.63 13.18 88.42 15.12 87.34C16.99 86.33 17.64 84.53 17.64 81.29L17.64 62.06ZM67.75 64.51L67.75 58.46L48.53 58.46L48.53 50.98L41.90 50.98L41.90 58.46L25.13 58.46L25.13 64.51L38.16 64.51C34.13 71.14 27.86 76.90 21.10 79.99C22.54 81.14 24.48 83.52 25.42 85.03C31.82 81.65 37.66 75.89 41.90 69.19L41.90 89.21L48.53 89.21L48.53 68.62C52.85 75.24 58.82 81.14 64.87 84.67C65.81 83.02 67.90 80.64 69.34 79.42C63.07 76.32 56.66 70.70 52.49 64.51Z"/></svg>
