<svg xmlns="http://www.w3.org/2000/svg" xmlns:xlink="http://www.w3.org/1999/xlink" width="72.00000000000001" height="106.56000000000002"><path fill="red" stroke="red" d="M56.09 54.29C58.97 56.95 62.71 60.84 64.80 63.50L68.76 60.12C66.60 57.67 63.00 54.07 59.76 51.34ZM59.69 49.75C62.06 47.45 65.16 43.92 67.75 40.68L63.50 37.51C61.63 40.32 58.39 44.42 56.09 46.87ZM23.90 40.39C26.14 42.91 29.16 46.44 30.53 48.60L34.13 45.72C34.85 47.23 35.71 49.90 36.00 51.12C36.79 50.76 38.30 50.40 43.63 49.97C41.26 52.78 39.10 54.94 38.09 55.80C36.29 57.53 34.85 58.68 33.41 58.90C34.06 60.48 34.99 63.29 35.28 64.44C36.58 63.79 38.88 63.36 53.06 61.78C53.57 63.29 54.00 64.66 54.29 65.81L58.82 64.15C57.74 60.84 55.51 55.73 53.57 51.77L49.32 53.21C49.97 54.50 50.54 55.94 51.19 57.46L42.26 58.18C47.02 54.07 51.84 48.89 55.73 43.63L50.33 40.97C49.54 42.34 48.60 43.70 47.59 45.00L41.40 45.29C43.78 42.77 46.30 39.67 48.24 36.65L44.28 35.06L67.10 35.06L67.10 29.52L49.75 29.52C48.82 27.58 47.38 24.91 46.22 22.90L40.10 24.34C40.97 25.92 41.90 27.79 42.62 29.52L24.19 29.52L24.19 35.06L42.19 35.06C40.39 38.81 37.66 42.41 36.79 43.56C36.07 44.42 35.21 45.14 34.34 45.50L34.85 45.14C33.26 43.13 30.24 39.74 27.94 37.37ZM23.26 60.77L25.85 64.80C29.16 61.49 32.76 57.74 36.07 54.00L33.62 50.18C30.10 53.57 26.35 57.02 23.69 59.26L23.04 54.43L17.21 56.16L17.21 43.34L22.90 43.34L22.90 37.15L17.21 37.15L17.21 23.26L11.09 23.26L11.09 37.15L3.53 37.15L3.53 43.34L11.09 43.34L11.09 57.96C7.92 58.82 4.97 59.62 2.52 60.26L4.10 66.67L11.09 64.58L11.09 81.14C11.09 82.15 10.73 82.44 9.86 82.44C9.07 82.44 6.41 82.44 3.53 82.37C4.39 84.10 5.18 86.98 5.33 88.56C9.86 88.56 12.74 88.34 14.69 87.26C16.56 86.26 17.21 84.46 17.21 81.14L17.21 62.64ZM48.38 64.44L41.83 64.44L41.83 69.55L23.04 69.55L23.04 75.46L41.83 75.46L41.83 89.14L48.38 89.14L48.38 75.46L68.26 75.46L68.26 69.55L48.38 69.55Z"/></svg>
