<svg xmlns="http://www.w3.org/2000/svg" xmlns:xlink="http://www.w3.org/1999/xlink" width="72.00000000000001" height="106.56000000000002"><path fill="red" stroke="red" d="M53.64 33.55C52.99 35.35 51.91 37.87 50.90 39.96L40.97 39.96C40.54 38.23 39.46 35.57 38.30 33.55ZM68.76 39.96L57.38 39.96C58.39 38.38 59.47 36.43 60.41 34.56L54.07 33.55L66.74 33.55L66.74 28.37L50.18 28.37C49.61 26.57 48.60 24.48 47.52 22.82L41.47 24.34C42.05 25.56 42.70 27.00 43.20 28.37L26.28 28.37L26.28 33.55L37.37 33.55L32.40 34.42C33.19 36.07 33.98 38.23 34.56 39.96L24.55 39.96L24.55 45.22L68.76 45.22ZM23.26 53.35L17.06 55.51L17.06 43.34L23.33 43.34L23.33 37.15L17.06 37.15L17.06 23.18L10.94 23.18L10.94 37.15L3.46 37.15L3.46 43.34L10.94 43.34L10.94 57.74C7.92 58.75 5.11 59.69 2.74 60.41L4.54 66.82L10.94 64.44L10.94 81.43C10.94 82.37 10.66 82.58 9.79 82.58C9.00 82.66 6.48 82.66 3.82 82.58C4.68 84.31 5.47 87.12 5.62 88.78C9.94 88.78 12.67 88.56 14.62 87.48C16.42 86.47 17.06 84.67 17.06 81.43L17.06 62.14C19.51 61.20 22.03 60.26 24.41 59.33ZM34.06 60.34L43.13 60.34L43.13 64.37L34.06 64.37ZM34.06 52.49L43.13 52.49L43.13 56.52L34.06 56.52ZM58.68 56.52L48.96 56.52L48.96 52.49L58.68 52.49ZM58.68 64.37L48.96 64.37L48.96 60.34L58.68 60.34ZM49.39 82.15L49.39 77.47L66.10 77.47L66.10 72.43L49.39 72.43L49.39 68.40L64.80 68.40L64.80 48.46L28.15 48.46L28.15 68.40L42.77 68.40L42.77 72.43L26.71 72.43L26.71 77.47L42.77 77.47L42.77 82.15L22.32 82.15L22.32 87.41L68.83 87.41L68.83 82.15Z"/></svg>
