<svg xmlns="http://www.w3.org/2000/svg" xmlns:xlink="http://www.w3.org/1999/xlink" width="72.00000000000001" height="106.56000000000002"><path fill="red" stroke="red" d="M21.46 54.00L16.42 55.73L16.42 43.34L22.25 43.34L22.25 37.15L16.42 37.15L16.42 23.18L10.22 23.18L10.22 37.15L3.60 37.15L3.60 43.34L10.22 43.34L10.22 57.96C7.42 58.97 4.90 59.76 2.74 60.41L4.25 66.96L10.22 64.80L10.22 81.14C10.22 82.01 9.94 82.22 9.14 82.22C8.42 82.30 6.12 82.30 3.67 82.22C4.54 84.02 5.26 86.83 5.40 88.49C9.50 88.49 12.17 88.20 14.04 87.12C15.84 86.11 16.42 84.31 16.42 81.14L16.42 62.50C18.50 61.70 20.52 60.84 22.61 60.05ZM30.46 86.40C31.68 82.08 32.62 74.88 33.19 69.98L29.38 68.83C28.94 73.66 27.86 80.64 26.50 84.96ZM39.96 83.81C38.74 83.81 38.52 83.66 38.52 82.15L38.52 68.18L33.91 68.18L33.91 82.22C33.91 86.90 34.92 88.20 39.31 88.20L44.35 88.20C47.81 88.20 49.10 86.47 49.54 79.27C48.24 78.98 46.30 78.34 45.36 77.54C45.22 83.16 44.93 83.81 43.70 83.81ZM46.15 75.24C45.07 72.65 42.91 68.26 41.04 64.87L37.80 66.17C39.60 69.55 41.69 74.16 42.62 76.90ZM47.02 69.70C48.96 74.81 51.26 81.50 52.20 85.46L56.09 84.02C55.08 80.21 52.70 73.66 50.69 68.69ZM43.63 59.69L35.86 59.69L35.86 52.63L43.63 52.63ZM61.85 39.31C60.77 42.84 59.18 46.22 57.38 49.39C57.02 45.50 56.74 41.33 56.52 36.79L68.54 36.79L68.54 31.54L63.07 31.54L66.60 28.30C65.16 26.86 62.28 24.41 60.19 22.82L56.66 25.63C58.82 27.43 61.49 30.02 62.93 31.54L56.38 31.54C56.23 28.80 56.16 25.99 56.16 23.11L50.47 23.11C50.54 25.99 50.69 28.80 50.83 31.54L24.19 31.54L24.19 48.60C24.19 59.47 23.54 75.17 17.14 86.18C18.43 86.83 20.81 88.42 21.89 89.42C28.58 77.62 29.66 60.19 29.66 48.60L29.66 45.29L49.39 45.29L49.39 40.61L29.66 40.61L29.66 36.79L51.12 36.79C51.48 43.70 52.06 50.11 52.56 55.87C51.12 57.67 49.46 59.18 47.74 60.62L47.74 48.10L31.68 48.10L31.68 64.22L47.74 64.22L47.74 64.01C48.46 64.80 49.10 65.66 49.46 66.17C50.83 65.16 52.20 64.01 53.42 62.71C55.66 79.13 58.90 88.99 63.14 88.99C67.46 88.92 68.98 87.70 69.84 76.18C68.62 75.60 67.10 74.02 65.95 72.65C65.66 79.85 64.94 83.16 64.22 83.16C62.93 83.16 60.12 74.23 58.10 57.38C61.78 52.56 64.73 46.87 66.89 40.68Z"/></svg>
