<svg xmlns="http://www.w3.org/2000/svg" xmlns:xlink="http://www.w3.org/1999/xlink" width="72.00000000000001" height="106.56000000000002"><path fill="red" stroke="red" d="M23.83 53.28L17.71 55.15L17.71 43.34L24.55 43.34L24.55 37.15L17.71 37.15L17.71 23.26L11.59 23.26L11.59 37.15L3.46 37.15L3.46 43.34L11.59 43.34L11.59 56.88C8.21 57.89 5.11 58.82 2.59 59.47L4.18 65.95L11.59 63.65L11.59 81.58C11.59 82.58 11.23 82.80 10.30 82.87C9.50 82.87 6.84 82.94 3.96 82.80C4.82 84.53 5.62 87.41 5.76 88.99C10.37 88.99 13.18 88.85 15.12 87.70C17.06 86.76 17.71 84.89 17.71 81.58L17.71 61.63C20.02 60.91 22.39 60.19 24.70 59.40ZM54.58 59.18C53.93 60.98 52.92 63.36 51.98 65.30L41.83 65.30C41.40 63.72 40.39 61.13 39.38 59.18ZM38.74 36.50L33.12 36.50L33.12 30.31L38.74 30.31ZM43.99 30.31L49.90 30.31L49.90 36.50L43.99 36.50ZM55.15 30.31L61.20 30.31L61.20 36.50L55.15 36.50ZM68.54 74.81L49.75 74.81L49.75 70.42L65.95 70.42L65.95 65.30L58.10 65.30C59.04 63.79 59.98 62.06 60.91 60.34L56.38 59.18L67.61 59.18L67.61 53.93L49.75 53.93L49.75 49.68L65.38 49.68L65.38 44.78L49.75 44.78L49.75 41.18L66.67 41.18L66.67 25.63L27.79 25.63L27.79 41.18L43.49 41.18L43.49 44.78L28.66 44.78L28.66 49.68L43.49 49.68L43.49 53.93L25.63 53.93L25.63 59.18L38.30 59.18L33.77 60.19C34.56 61.70 35.21 63.72 35.71 65.30L27.07 65.30L27.07 70.42L43.49 70.42L43.49 74.81L24.55 74.81L24.55 79.85L43.49 79.85L43.49 89.21L49.75 89.21L49.75 79.85L68.54 79.85Z"/></svg>
