<svg xmlns="http://www.w3.org/2000/svg" xmlns:xlink="http://www.w3.org/1999/xlink" width="72.00000000000001" height="106.56000000000002"><path fill="red" stroke="red" d="M24.26 53.21L17.71 55.15L17.71 43.27L24.91 43.27L24.91 37.08L17.71 37.08L17.71 23.18L11.59 23.18L11.59 37.08L3.24 37.08L3.24 43.27L11.59 43.27L11.59 56.95C8.06 57.96 4.82 58.90 2.23 59.54L3.74 66.02C6.12 65.23 8.78 64.44 11.59 63.58L11.59 81.79C11.59 82.80 11.23 83.02 10.30 83.02C9.50 83.09 6.84 83.09 3.96 83.02C4.82 84.74 5.62 87.62 5.76 89.21C10.37 89.21 13.18 88.99 15.12 87.98C17.06 86.90 17.71 85.10 17.71 81.79L17.71 61.70C20.16 60.91 22.68 60.12 25.13 59.33ZM43.63 67.39L43.63 72.14L34.49 72.14L34.49 67.39ZM59.26 72.14L49.39 72.14L49.39 67.39L59.26 67.39ZM49.39 81.58L49.39 76.90L59.26 76.90L59.26 81.58ZM34.49 81.58L34.49 76.90L43.63 76.90L43.63 81.58ZM28.44 89.21L34.49 89.21L34.49 86.62L59.26 86.62L59.26 89.14L65.74 89.14L65.74 62.42L28.44 62.42ZM55.37 54.29L38.59 54.29L38.59 48.82L55.37 48.82ZM32.69 44.06L32.69 58.97L61.56 58.97L61.56 44.06ZM59.69 34.56C61.27 32.11 63.22 28.80 65.09 25.70L58.82 23.69C57.82 26.50 55.87 30.60 54.36 33.26L57.74 34.56L49.75 34.56L49.75 23.11L43.42 23.11L43.42 34.56L34.85 34.56L39.02 32.98C38.23 30.46 36.29 26.64 34.27 23.90L28.87 25.78C30.60 28.44 32.33 32.04 33.19 34.56L26.21 34.56L26.21 46.80L32.18 46.80L32.18 39.82L61.78 39.82L61.78 46.80L67.97 46.80L67.97 34.56Z"/></svg>
