<svg xmlns="http://www.w3.org/2000/svg" xmlns:xlink="http://www.w3.org/1999/xlink" width="72.00000000000001" height="106.56000000000002"><path fill="red" stroke="red" d="M29.09 48.89C31.54 46.80 33.55 43.49 35.14 40.90L30.67 38.59L30.17 39.46L30.17 33.84L42.91 33.84L40.32 36.36C42.62 38.30 46.01 41.33 47.81 43.20L50.83 39.96C49.18 38.30 46.08 35.78 43.56 33.84L61.63 33.84L61.63 39.53L67.75 39.53L67.75 28.73L50.54 28.73C49.82 26.93 48.82 24.70 47.74 22.82L41.76 24.26C42.41 25.63 43.06 27.22 43.70 28.73L24.26 28.73L24.26 39.53L30.17 39.53C28.73 41.83 26.71 44.42 24.77 46.01ZM35.57 38.45L35.57 43.06C35.57 47.66 36.94 48.96 42.62 48.96L51.62 48.96C55.51 48.96 56.95 47.66 57.46 42.84C56.09 42.62 54.22 41.90 53.21 41.18C52.99 44.21 52.63 44.64 50.98 44.64L43.13 44.64C40.82 44.64 40.46 44.42 40.46 42.98L40.46 38.45ZM66.02 45.79C64.44 43.56 61.56 39.89 59.33 37.22L54.86 39.02C57.17 41.83 59.90 45.65 61.27 48.02ZM22.03 53.78L16.78 55.58L16.78 43.34L22.25 43.34L22.25 37.15L16.78 37.15L16.78 23.18L10.94 23.18L10.94 37.15L3.60 37.15L3.60 43.34L10.94 43.34L10.94 57.67C7.92 58.68 5.11 59.69 2.74 60.41L4.46 66.82L10.94 64.44L10.94 81.65C10.94 82.58 10.66 82.80 9.79 82.80C9.07 82.87 6.55 82.87 3.82 82.73C4.68 84.38 5.40 87.05 5.62 88.63C9.79 88.63 12.53 88.42 14.33 87.41C16.13 86.40 16.78 84.74 16.78 81.58L16.78 62.21C18.86 61.42 21.02 60.55 23.11 59.76ZM24.41 74.74L44.42 74.74L44.42 82.30C44.42 83.09 44.21 83.30 43.20 83.30C42.26 83.38 38.95 83.38 35.71 83.23C36.43 84.82 37.30 87.12 37.51 88.78C42.19 88.78 45.50 88.78 47.74 87.84C49.90 87.05 50.47 85.46 50.47 82.51L50.47 74.74L67.18 74.74L67.18 69.70L24.41 69.70ZM33.48 55.66L38.81 55.66L38.81 61.49L33.48 61.49ZM48.67 55.66L48.67 61.49L43.42 61.49L43.42 55.66ZM58.68 55.66L58.68 61.49L53.28 61.49L53.28 55.66ZM64.30 61.49L64.30 51.26L28.15 51.26L28.15 61.49L22.39 61.49L22.39 66.53L69.12 66.53L69.12 61.49Z"/></svg>
