<svg xmlns="http://www.w3.org/2000/svg" xmlns:xlink="http://www.w3.org/1999/xlink" width="72.00000000000001" height="106.56000000000002"><path fill="red" stroke="red" d="M36.07 48.17L55.80 48.17L55.80 50.76L36.07 50.76ZM55.80 36.43L55.80 38.95L36.07 38.95L36.07 36.43ZM55.80 44.78L36.07 44.78L36.07 42.26L55.80 42.26ZM28.37 68.69C31.90 66.31 33.70 62.42 34.85 58.75L30.46 57.10C30.31 57.46 30.24 57.82 30.10 58.18L30.10 55.15L40.82 55.15L39.74 56.16C42.91 57.38 46.66 59.54 48.60 61.20L51.55 58.25C50.33 57.24 48.60 56.16 46.58 55.15L62.06 55.15L62.06 59.40C60.91 58.25 59.69 57.24 58.54 56.38L54.65 58.90C58.03 61.49 61.63 65.38 63.22 68.11L67.18 65.38C66.46 64.01 65.16 62.57 63.72 60.98L68.11 60.98L68.11 50.76L61.70 50.76L61.70 33.05L47.81 33.05C48.24 32.11 48.67 31.18 49.03 30.17L67.10 30.17L67.10 25.20L25.34 25.20L25.34 30.17L42.48 30.17C42.19 31.18 41.90 32.11 41.62 33.05L30.38 33.05L30.38 50.76L24.34 50.76L24.34 61.06L28.73 61.06C27.72 62.86 26.28 64.51 24.55 65.52ZM23.98 59.98L23.11 53.78L17.21 55.58L17.21 43.34L23.26 43.34L23.26 37.15L17.21 37.15L17.21 23.26L11.09 23.26L11.09 37.15L3.74 37.15L3.74 43.34L11.09 43.34L11.09 57.24C7.92 58.18 5.11 58.97 2.66 59.54L4.32 66.02C6.34 65.38 8.71 64.73 11.09 64.01L11.09 81.94C11.09 82.80 10.80 83.02 9.94 83.02C9.22 83.09 6.84 83.09 4.39 83.02C5.26 84.74 5.98 87.62 6.12 89.21C10.22 89.21 12.89 88.99 14.76 87.91C16.56 86.90 17.21 85.10 17.21 81.86L17.21 62.06ZM52.92 73.94C51.12 75.82 48.46 77.54 45.14 78.91C42.48 77.90 40.10 76.61 37.94 75.17C38.45 74.81 38.95 74.38 39.46 73.94ZM57.46 69.70L56.38 69.98L43.49 69.98C44.21 69.12 44.93 68.26 45.58 67.32L51.62 67.32C55.51 67.32 56.95 66.10 57.38 61.70C56.02 61.34 54.00 60.84 52.99 60.19C52.78 63.00 52.42 63.43 50.90 63.43L44.06 63.43C42.05 63.43 41.69 63.22 41.69 61.85L41.69 57.67L36.29 57.67L36.29 61.85C36.29 64.94 37.01 66.38 39.38 66.96C38.02 68.69 36.22 70.34 34.06 72.00C33.26 71.28 32.62 70.49 31.97 69.62L27.00 71.35C27.86 72.50 28.80 73.58 29.81 74.66C27.94 75.67 25.85 76.68 23.54 77.54C24.77 78.34 26.35 80.14 27.14 81.43C29.52 80.35 31.68 79.20 33.70 78.05C35.21 79.20 36.94 80.28 38.66 81.29C33.91 82.66 28.15 83.81 21.38 84.53C22.61 85.75 23.98 87.70 24.62 89.14C32.76 88.06 39.60 86.54 45.22 84.38C51.12 86.62 57.89 88.13 65.16 89.06C65.88 87.62 67.25 85.25 68.47 84.10C62.57 83.59 56.88 82.58 51.77 81.22C56.23 78.55 59.40 75.46 61.42 71.71Z"/></svg>
