<svg xmlns="http://www.w3.org/2000/svg" xmlns:xlink="http://www.w3.org/1999/xlink" width="72.00000000000001" height="106.56000000000002"><path fill="red" stroke="red" d="M51.48 36.43C49.10 33.77 44.14 30.17 40.10 27.72L36.72 32.26C40.82 34.85 45.72 38.74 47.95 41.54ZM48.46 53.57C45.86 51.05 40.61 47.66 36.43 45.43L33.26 50.26C37.51 52.56 42.62 56.30 45.07 58.90ZM26.86 27.43C25.99 32.26 24.05 39.38 22.54 43.70L26.78 45.00C28.66 40.90 30.82 34.20 32.69 28.73ZM12.46 43.78C12.02 39.38 10.51 32.76 8.50 27.65L3.74 28.87C5.47 33.98 7.06 40.75 7.34 45.07ZM9.43 56.74C8.28 62.71 5.40 70.06 2.45 74.02C3.60 76.18 5.04 79.56 5.62 81.79C9.72 76.61 12.74 66.53 14.18 58.46ZM20.88 59.04L20.88 53.28L32.11 53.28L32.11 47.02L20.88 47.02L20.88 23.18L14.62 23.18L14.62 47.02L3.46 47.02L3.46 53.28L14.62 53.28L14.62 89.21L20.88 89.21L20.88 61.06C22.75 65.02 25.78 72.07 26.93 75.74L31.61 70.63C30.53 68.40 25.34 58.97 23.83 56.88ZM69.48 67.75L68.54 61.63L60.55 63.00L60.55 23.18L54.29 23.18L54.29 64.15L31.90 68.18L32.98 74.38L54.29 70.49L54.29 89.21L60.55 89.21L60.55 69.34Z"/></svg>
