<svg xmlns="http://www.w3.org/2000/svg" xmlns:xlink="http://www.w3.org/1999/xlink" width="72.00000000000001" height="106.56000000000002"><path fill="red" stroke="red" d="M10.44 55.94L24.48 55.94L24.48 60.62L10.44 60.62ZM10.44 46.51L24.48 46.51L24.48 51.12L10.44 51.12ZM21.02 65.81L30.60 65.81L30.60 41.33L21.02 41.33L21.02 36.22L32.40 36.22L32.40 30.31L21.02 30.31L21.02 23.18L14.54 23.18L14.54 30.31L2.95 30.31L2.95 36.22L14.54 36.22L14.54 41.33L4.54 41.33L4.54 65.81L14.54 65.81L14.54 70.92L2.88 70.92L2.88 76.90L14.54 76.90L14.54 89.21L21.02 89.21L21.02 76.90L32.54 76.90L32.54 70.92L21.02 70.92ZM50.90 23.04C46.87 31.68 39.24 39.89 31.39 44.57C32.98 45.94 34.92 47.95 36.00 49.54C41.54 45.72 46.94 40.39 51.19 34.34C53.50 37.80 55.87 40.75 58.46 43.49L52.49 43.49L52.49 53.78C50.54 51.48 46.37 48.24 43.13 46.15L38.74 49.75C42.12 52.13 46.08 55.51 47.95 57.96L52.49 53.93L52.49 68.90L33.48 72.43L34.56 78.48L52.49 75.17L52.49 89.14L58.90 89.14L58.90 73.94L67.61 72.36L66.53 66.31L58.90 67.68L58.90 43.99C60.77 45.94 62.93 47.74 65.09 49.61C66.02 47.81 67.97 45.72 69.55 44.42C63.79 40.46 58.82 35.64 54.58 29.02C55.37 27.86 56.02 26.50 56.66 25.20ZM47.52 63.36C45.43 61.06 40.97 57.96 37.30 55.94L33.12 59.76C36.65 61.99 41.04 65.30 43.06 67.61Z"/></svg>
