<svg xmlns="http://www.w3.org/2000/svg" xmlns:xlink="http://www.w3.org/1999/xlink" width="72.00000000000001" height="106.56000000000002"><path fill="red" stroke="red" d="M22.32 63.22L22.32 59.90C34.92 59.04 48.53 57.38 58.46 55.01L53.42 50.18C44.50 52.34 29.23 54.07 15.70 54.86L15.70 63.00C15.70 69.41 14.47 78.12 5.40 85.10C7.06 86.26 9.36 88.20 10.44 89.57C17.93 83.88 20.74 76.97 21.82 70.42L42.77 70.42L42.77 88.78L49.61 88.78L49.61 70.42L65.02 70.42L65.02 64.51L22.32 64.51ZM66.60 34.56C61.92 31.18 52.99 26.35 46.44 23.18L41.90 27.14C43.78 28.08 45.72 29.09 47.74 30.17C44.86 33.34 41.26 35.93 37.01 38.23C32.54 36.14 28.73 33.84 25.70 31.25C28.08 29.45 30.24 27.58 32.04 25.63L25.85 23.26C21.38 27.79 13.90 31.97 6.91 34.70C8.35 35.86 10.66 38.45 11.74 39.67C14.69 38.30 17.93 36.50 21.02 34.49C23.83 36.94 26.93 39.17 30.46 41.18C22.54 44.21 13.25 46.22 3.67 47.52C5.04 48.89 6.98 51.77 7.85 53.35C18.22 51.48 28.51 48.82 37.44 44.71C45.86 48.38 55.58 50.98 65.52 52.34C66.38 50.62 68.04 48.02 69.34 46.58C60.48 45.65 51.77 43.70 44.14 41.11C47.66 38.95 50.83 36.36 53.50 33.55C56.81 35.50 59.76 37.51 61.78 39.02Z"/></svg>
