<svg xmlns="http://www.w3.org/2000/svg" xmlns:xlink="http://www.w3.org/1999/xlink" width="72.00000000000001" height="106.56000000000002"><path fill="red" stroke="red" d="M42.19 46.51C41.76 44.28 40.61 40.97 39.46 38.45L36.36 39.60C36.65 40.25 37.01 41.04 37.22 41.83L32.69 42.34C35.78 39.24 38.81 35.35 41.33 31.46L37.87 29.23C37.22 30.46 36.50 31.68 35.71 32.83L32.33 33.26C33.98 30.96 35.64 28.15 36.94 25.20L33.12 23.54C31.82 27.43 29.30 31.39 28.51 32.47C27.79 33.41 27.14 34.06 26.35 34.20C26.78 35.21 27.43 37.22 27.65 38.09C28.30 37.73 29.38 37.37 32.98 36.72C31.46 38.59 30.17 40.03 29.66 40.61C28.44 41.98 27.43 42.77 26.42 42.98C26.86 43.99 27.50 46.01 27.65 46.80C28.51 46.44 30.10 46.08 38.23 44.86C38.52 45.94 38.74 46.87 38.81 47.74ZM26.28 46.66C25.99 44.57 24.98 41.33 23.83 38.88L20.95 40.03C21.24 40.68 21.53 41.40 21.74 42.12L18.00 42.55C21.02 39.38 23.98 35.42 26.57 31.39L22.97 29.16C22.32 30.53 21.53 31.90 20.66 33.12L17.71 33.48C19.37 31.25 20.95 28.37 22.25 25.49L18.43 23.83C17.21 27.72 14.69 31.68 13.90 32.69C13.18 33.70 12.53 34.34 11.74 34.49C12.17 35.50 12.74 37.51 13.03 38.38C13.68 38.09 14.76 37.66 18.07 37.08C16.70 38.88 15.70 40.18 15.12 40.75C13.90 42.12 12.82 42.98 11.88 43.20C12.38 44.21 12.96 46.22 13.18 47.02C13.97 46.66 15.55 46.30 22.68 45.29C22.97 46.30 23.11 47.16 23.11 47.95ZM10.94 53.42L41.98 53.42L41.98 48.53L10.94 48.53L10.94 25.63L5.26 25.63L5.26 84.38L39.17 84.38L39.17 79.13L10.94 79.13ZM37.58 59.40C36.94 60.70 36.22 62.14 35.35 63.43L32.11 63.79C33.62 61.49 35.21 58.61 36.36 55.73L32.62 54.07C31.46 57.96 29.09 61.99 28.37 63.00C27.72 63.94 27.07 64.58 26.28 64.73C26.78 65.81 27.43 67.75 27.65 68.62L27.65 68.69C28.22 68.33 29.30 67.90 32.83 67.25C31.39 69.26 30.17 70.70 29.59 71.35C28.37 72.79 27.43 73.73 26.35 73.87C26.86 74.88 27.50 76.97 27.72 77.76C28.44 77.33 29.95 76.97 37.15 75.89C37.44 76.90 37.58 77.83 37.66 78.62L41.11 77.40C40.75 75.10 39.67 71.64 38.52 69.05L35.35 70.20C35.71 70.99 36.07 71.93 36.29 72.86L32.33 73.30C35.42 69.98 38.59 65.81 41.18 61.63ZM23.18 59.69C22.46 60.98 21.67 62.42 20.95 63.65L17.57 64.01C19.30 61.78 20.95 58.90 22.18 56.02L18.36 54.36C17.06 58.25 14.54 62.28 13.82 63.29C13.10 64.22 12.46 64.87 11.59 65.02C12.10 66.10 12.74 68.04 12.96 68.90L12.96 68.98C13.61 68.62 14.69 68.26 18.22 67.61C16.85 69.55 15.62 70.99 15.05 71.64C13.82 73.01 12.89 73.87 11.81 74.02C12.31 75.10 12.96 77.11 13.10 77.90C13.90 77.47 15.48 77.18 22.61 76.18C22.90 77.18 23.11 78.05 23.18 78.84L26.28 77.54C25.92 75.46 24.91 72.22 23.83 69.84L20.95 70.92C21.17 71.57 21.46 72.29 21.67 73.01L17.86 73.44C21.02 70.20 24.12 66.10 26.64 61.85ZM68.83 45.86L50.33 45.86L50.33 33.62C56.16 32.04 62.35 30.02 67.03 27.58L61.92 23.26C58.03 25.70 51.05 28.37 44.86 30.02L44.86 53.57C44.86 63.22 44.42 76.10 39.67 85.25C41.04 85.82 43.42 87.48 44.42 88.49C49.54 78.70 50.33 63.94 50.33 53.57L50.33 51.41L57.31 51.41L57.31 89.21L63.00 89.21L63.00 51.41L68.83 51.41Z"/></svg>
