<svg xmlns="http://www.w3.org/2000/svg" xmlns:xlink="http://www.w3.org/1999/xlink" width="72.00000000000001" height="106.56000000000002"><path fill="red" stroke="red" d="M54.50 36.22L17.86 36.22L17.86 31.10L54.50 31.10ZM54.50 46.58L17.86 46.58L17.86 41.33L54.50 41.33ZM61.20 25.78L11.38 25.78L11.38 51.91L61.20 51.91ZM29.52 52.85C24.34 54.79 16.13 57.17 8.86 58.54L8.86 74.52C8.86 77.40 6.98 78.77 5.54 79.34C6.55 80.64 7.70 83.30 8.06 84.89C10.01 83.81 12.96 83.02 33.84 78.98C33.70 77.54 33.70 74.81 33.84 72.94L15.41 76.18L15.41 62.86C21.82 61.63 28.51 60.05 33.98 58.18ZM64.73 56.09L36.72 56.09L36.72 89.21L43.27 89.21L43.27 61.85L58.10 61.85L58.10 76.97C58.10 77.83 57.74 78.12 56.66 78.12C55.73 78.19 52.06 78.19 48.53 78.05C49.25 79.70 50.18 82.22 50.40 84.02C55.80 84.02 59.40 83.95 61.70 82.94C64.08 82.08 64.73 80.28 64.73 77.04Z"/></svg>
