<svg xmlns="http://www.w3.org/2000/svg" xmlns:xlink="http://www.w3.org/1999/xlink" width="72.00000000000001" height="106.56000000000002"><path fill="red" stroke="red" d="M54.00 36.29L17.57 36.29L17.57 31.25L54.00 31.25ZM54.00 46.37L17.57 46.37L17.57 41.33L54.00 41.33ZM60.91 25.85L11.02 25.85L11.02 51.77L60.91 51.77ZM68.47 66.24L53.71 66.24L53.71 53.50L46.87 53.50L46.87 66.24L28.58 66.24L28.58 59.90C32.98 59.11 37.08 58.10 40.54 56.88L35.42 52.27C28.94 54.58 17.35 56.52 7.34 57.53C8.06 58.90 8.86 61.20 9.14 62.57C13.25 62.21 17.64 61.70 21.96 61.06L21.96 66.24L3.60 66.24L3.60 72.14L21.24 72.14C19.87 76.61 16.06 80.93 6.12 83.95C7.49 85.10 9.43 87.70 10.15 89.28C22.90 85.18 27.00 78.77 28.15 72.14L46.87 72.14L46.87 89.06L53.71 89.06L53.71 72.14L68.47 72.14Z"/></svg>
