<svg xmlns="http://www.w3.org/2000/svg" xmlns:xlink="http://www.w3.org/1999/xlink" width="72.00000000000001" height="106.56000000000002"><path fill="red" stroke="red" d="M19.87 42.84L52.85 42.84L52.85 48.89L19.87 48.89ZM19.87 31.82L52.85 31.82L52.85 37.66L19.87 37.66ZM24.48 59.69C25.85 57.89 27.14 56.16 28.37 54.29L59.69 54.29L59.69 26.35L13.32 26.35L13.32 54.29L20.52 54.29C16.06 60.62 9.43 66.17 2.66 69.91C4.18 70.99 6.70 73.37 7.78 74.66C11.52 72.22 15.48 69.12 19.15 65.52L27.50 65.52C22.82 72.72 15.91 78.84 8.50 82.87C10.01 84.02 12.46 86.40 13.54 87.70C21.67 82.51 29.74 74.66 35.06 65.52L43.20 65.52C39.82 73.73 34.56 80.86 28.22 85.46C29.66 86.40 32.40 88.49 33.48 89.64C40.18 84.02 46.30 75.46 50.11 65.52L57.67 65.52C56.59 76.75 55.30 81.65 53.86 82.94C53.14 83.66 52.49 83.81 51.26 83.81C49.97 83.81 46.87 83.81 43.56 83.45C44.57 85.03 45.22 87.48 45.36 89.14C48.89 89.35 52.27 89.35 54.22 89.14C56.38 88.99 57.96 88.42 59.47 86.90C61.70 84.60 63.22 78.26 64.66 62.42C64.80 61.49 64.94 59.69 64.94 59.69Z"/></svg>
