<svg xmlns="http://www.w3.org/2000/svg" xmlns:xlink="http://www.w3.org/1999/xlink" width="72.00000000000001" height="106.56000000000002"><path fill="red" stroke="red" d="M53.50 35.42L18.14 35.42L18.14 30.74L53.50 30.74ZM53.50 44.64L18.14 44.64L18.14 39.96L53.50 39.96ZM60.26 25.92L11.66 25.92L11.66 49.46L60.26 49.46ZM50.69 81.94C47.81 81.94 47.23 81.65 47.23 79.78L47.23 68.83L67.39 68.83L67.39 62.71L54.50 62.71C56.66 60.26 58.90 57.31 60.91 54.43L54.86 51.62C52.85 55.01 49.46 59.76 46.87 62.71L39.17 62.71L39.17 51.48L32.47 51.48L32.47 62.71L20.30 62.71L23.83 61.20C22.61 58.54 19.80 54.50 17.21 51.55L11.59 53.93C13.75 56.59 16.06 60.12 17.35 62.71L4.75 62.71L4.75 68.83L23.11 68.83C21.67 76.68 17.78 81.07 2.81 83.45C4.10 84.74 5.83 87.55 6.34 89.28C23.47 85.90 28.22 79.63 30.02 68.83L40.46 68.83L40.46 79.78C40.46 86.04 42.26 87.91 49.82 87.91L60.34 87.91C66.24 87.91 68.18 85.75 68.90 77.04C67.03 76.61 64.22 75.60 62.86 74.59C62.57 81.00 62.14 81.94 59.69 81.94Z"/></svg>
