<svg xmlns="http://www.w3.org/2000/svg" xmlns:xlink="http://www.w3.org/1999/xlink" width="72.00000000000001" height="106.56000000000002"><path fill="red" stroke="red" d="M21.53 42.98L30.17 42.98L30.17 36.79L21.53 36.79L21.53 23.18L15.05 23.18L15.05 36.79L4.75 36.79L4.75 42.98L14.54 42.98C12.24 52.42 7.63 63.29 2.81 69.70C3.96 71.28 5.62 73.80 6.34 75.82C9.58 71.50 12.60 65.16 15.05 58.39L15.05 89.21L21.53 89.21L21.53 53.86C23.98 57.53 26.71 61.85 28.08 64.37L31.75 57.89C30.31 55.94 24.05 48.10 21.53 45.22ZM68.76 38.45L59.40 38.45L59.40 23.33L52.63 23.33L52.63 38.45L32.33 38.45L32.33 45.00L52.63 45.00L52.63 79.99C52.63 81.43 51.98 81.94 50.54 82.01C48.96 82.01 43.92 82.08 38.52 81.86C39.53 83.74 40.61 86.98 40.97 88.92C48.17 88.92 52.78 88.70 55.58 87.55C58.25 86.47 59.40 84.46 59.40 80.06L59.40 45.00L68.76 45.00ZM47.95 67.61C46.44 63.00 43.13 56.16 39.89 50.90L34.20 53.28C37.22 58.46 40.54 65.59 41.98 70.13Z"/></svg>
