<svg xmlns="http://www.w3.org/2000/svg" xmlns:xlink="http://www.w3.org/1999/xlink" width="72.00000000000001" height="106.56000000000002"><path fill="red" stroke="red" d="M29.95 56.02C28.51 54.14 22.18 46.58 19.87 44.14L19.87 42.98L27.94 42.98L27.94 36.79L19.87 36.79L19.87 23.18L13.39 23.18L13.39 36.79L3.60 36.79L3.60 42.98L12.53 42.98C10.51 52.27 6.34 63.07 2.02 69.48C3.17 71.14 4.82 73.73 5.54 75.82C8.42 71.57 11.16 65.38 13.39 58.75L13.39 89.28L19.87 89.28L19.87 52.27C22.03 55.51 24.48 59.26 25.70 61.56ZM68.83 64.01C65.81 58.97 59.33 51.05 54.22 45.22L49.97 48.24L49.97 42.48C51.34 39.67 52.42 36.79 53.57 33.77L67.32 33.77L67.32 27.43L28.51 27.43L28.51 33.77L46.22 33.77C41.69 46.15 34.42 57.38 25.78 64.44C27.36 65.66 29.95 68.33 30.96 69.62C35.42 65.66 39.60 60.48 43.34 54.72L43.34 89.06L49.97 89.06L49.97 49.75C54.94 55.66 60.70 63.29 63.22 68.18Z"/></svg>
