<svg xmlns="http://www.w3.org/2000/svg" xmlns:xlink="http://www.w3.org/1999/xlink" width="72.00000000000001" height="106.56000000000002"><path fill="red" stroke="red" d="M56.66 68.33L56.66 79.34L37.08 79.34L37.08 68.33ZM30.74 88.99L37.08 88.99L37.08 85.25L56.66 85.25L56.66 88.85L63.29 88.85L63.29 62.42L30.74 62.42ZM28.22 54.79C26.86 52.99 21.24 45.58 19.44 43.78L19.44 42.91L26.71 42.91L26.71 42.26C27.94 43.63 29.59 46.01 30.24 47.16C32.04 45.43 33.77 43.49 35.42 41.33C37.37 44.28 39.82 47.02 42.55 49.46C37.80 52.42 32.40 54.72 26.78 56.52ZM56.66 35.93C54.29 39.74 51.19 43.13 47.52 46.01C43.99 43.13 41.04 39.82 38.88 36.07L39.02 35.93ZM61.63 29.74L60.55 30.02L42.19 30.02C43.13 28.22 43.92 26.28 44.64 24.41L38.74 22.75C36.14 30.02 31.75 36.86 26.71 41.47L26.71 36.72L19.44 36.72L19.44 23.18L13.10 23.18L13.10 36.72L3.67 36.72L3.67 42.91L12.17 42.91C10.30 51.98 6.26 62.64 2.09 68.33C3.24 70.06 4.68 73.08 5.33 75.02C8.21 70.63 11.02 63.79 13.10 56.52L13.10 89.21L19.44 89.21L19.44 51.55C21.24 54.58 23.11 57.96 24.05 59.90L24.77 59.04C25.63 60.41 26.64 62.14 27.07 63.36C34.42 61.13 41.54 57.89 47.88 53.64C53.50 57.53 60.12 60.55 67.32 62.57C67.75 60.77 68.69 57.96 69.70 56.38C63.50 54.94 57.82 52.70 52.85 49.75C58.32 45.00 62.86 39.17 65.88 32.26Z"/></svg>
