<svg xmlns="http://www.w3.org/2000/svg" xmlns:xlink="http://www.w3.org/1999/xlink" width="72.00000000000001" height="106.56000000000002"><path fill="red" stroke="red" d="M18.65 74.52C15.84 78.12 10.73 81.50 5.76 83.74C7.34 84.74 9.86 86.90 11.16 88.13C16.13 85.46 21.74 81.14 25.13 76.61ZM46.73 77.47C51.84 80.42 58.10 84.82 61.13 87.70L66.46 83.66C63.14 80.71 56.74 76.54 51.84 73.87ZM21.10 55.37L32.69 55.37L32.69 59.69L21.10 59.69ZM50.69 55.37L50.69 59.69L38.88 59.69L38.88 55.37ZM39.24 64.73L57.17 64.73L57.17 55.37L67.68 55.37L67.68 50.26L57.17 50.26L57.17 46.01L50.69 46.01L50.69 50.26L38.88 50.26L38.88 45.50L32.69 45.50L32.69 50.26L21.10 50.26L21.10 46.01L14.98 46.01L14.98 50.26L4.32 50.26L4.32 55.37L14.98 55.37L14.98 64.73L32.47 64.73L32.47 68.40L4.39 68.40L4.39 73.73L32.47 73.73L32.47 89.14L39.24 89.14L39.24 73.73L67.75 73.73L67.75 68.40L39.24 68.40ZM20.23 39.17C23.11 37.58 26.06 35.86 29.02 33.84L45.36 33.84L43.56 35.28C45.07 36.14 46.87 37.08 48.53 38.16ZM36.58 28.51C38.23 27.22 39.96 25.92 41.54 24.55L33.98 22.54C31.75 24.55 29.23 26.71 26.78 28.51L4.54 28.51L4.54 33.84L19.01 33.84C17.14 34.99 15.70 35.86 14.83 36.29C12.17 37.87 10.08 38.88 8.28 39.17C9.00 40.90 9.86 44.06 10.15 45.29C12.82 44.35 16.70 44.28 55.30 42.55C57.17 43.85 58.75 45.00 60.05 46.01L64.44 42.12C61.34 39.89 56.16 36.50 51.41 33.84L67.97 33.84L67.97 28.51Z"/></svg>
