<svg xmlns="http://www.w3.org/2000/svg" xmlns:xlink="http://www.w3.org/1999/xlink" width="72.00000000000001" height="106.56000000000002"><path fill="red" stroke="red" d="M33.48 37.30L61.63 37.30L61.63 44.50L67.82 44.50L67.82 31.61L51.98 31.61C51.12 28.94 49.75 25.49 48.53 22.75L41.98 24.41C42.84 26.57 43.85 29.23 44.64 31.61L27.50 31.61L27.50 44.50L33.48 44.50ZM32.83 50.47L62.57 50.47L62.57 44.57L32.83 44.57ZM26.42 58.82C25.27 56.88 20.52 49.39 18.65 46.66L18.65 42.91L25.78 42.91L25.78 36.72L18.65 36.72L18.65 23.18L12.60 23.18L12.60 36.72L4.25 36.72L4.25 42.91L12.24 42.91C10.37 51.70 6.48 62.50 2.52 68.26C3.60 69.98 5.11 72.94 5.83 74.95C8.28 70.85 10.66 64.73 12.60 58.18L12.60 88.63L18.65 88.63L18.65 55.15C20.16 58.25 21.60 61.49 22.39 63.43ZM34.85 67.61C32.18 72.22 28.15 77.54 24.55 81.14C26.14 82.01 28.80 83.74 30.10 84.82C33.55 80.93 38.02 74.81 41.04 69.55ZM67.97 63.07L67.97 56.88L26.50 56.88L26.50 63.07L44.06 63.07L44.06 88.78L50.76 88.78L50.76 63.07ZM54.07 69.70C57.24 74.45 61.27 80.86 63.07 84.74L68.83 81.79C66.82 77.98 62.71 71.78 59.54 67.18Z"/></svg>
