<svg xmlns="http://www.w3.org/2000/svg" xmlns:xlink="http://www.w3.org/1999/xlink" width="72.00000000000001" height="106.56000000000002"><path fill="red" stroke="red" d="M22.39 47.95L27.72 47.95L27.72 57.17C27.72 57.74 27.58 57.89 27.00 57.89C26.42 57.96 25.13 57.89 23.54 57.89C24.19 59.33 24.91 61.27 25.06 62.78C27.94 62.78 30.02 62.78 31.61 61.92C33.12 60.98 33.48 59.76 33.48 57.24L33.48 42.48L22.39 42.48L22.39 36.94L33.84 36.94L33.84 30.82L22.39 30.82L22.39 23.11L16.56 23.11L16.56 30.82L3.96 30.82L3.96 36.94L16.56 36.94L16.56 42.48L5.04 42.48L5.04 63.58L10.80 63.58L10.80 47.95L16.56 47.95L16.56 57.10C13.82 66.02 8.64 74.81 2.66 79.85C3.67 81.43 5.18 83.74 5.83 85.54C9.94 82.15 13.68 76.75 16.56 70.70L16.56 89.21L22.39 89.21L22.39 69.48C25.42 72.36 28.87 75.74 30.53 77.83L34.42 72.58C32.54 70.99 25.49 65.09 22.39 62.78ZM55.22 47.95L60.98 47.95L60.98 57.46C60.98 58.03 60.84 58.25 60.34 58.25C59.76 58.25 58.54 58.25 56.95 58.18C57.67 59.62 58.25 61.56 58.54 63.14C61.34 63.14 63.36 63.07 64.94 62.21C66.46 61.34 66.82 60.05 66.82 57.53L66.82 42.48L55.22 42.48L55.22 36.94L67.90 36.94L67.90 30.82L55.22 30.82L55.22 23.11L49.25 23.11L49.25 30.82L36.14 30.82L36.14 36.94L49.25 36.94L49.25 42.48L37.22 42.48L37.22 63.72L43.34 63.72L43.34 47.95L49.25 47.95L49.25 56.74C46.01 66.89 39.67 76.32 31.75 80.78C33.05 81.94 34.99 84.17 35.93 85.75C41.33 82.22 45.79 76.46 49.25 69.70L49.25 89.21L55.22 89.21L55.22 71.64C58.03 76.46 61.42 81.36 65.30 84.74C66.31 83.09 68.47 80.64 69.84 79.49C63.50 75.02 58.18 66.60 55.22 59.90Z"/></svg>
