<svg xmlns="http://www.w3.org/2000/svg" xmlns:xlink="http://www.w3.org/1999/xlink" width="72.00000000000001" height="106.56000000000002"><path fill="red" stroke="red" d="M32.54 54.72L39.17 54.72L39.17 38.59C46.58 42.55 59.83 50.33 65.16 53.78L67.32 47.52C64.22 45.65 52.63 39.89 44.93 36.14L65.81 36.14L65.81 30.24L39.17 30.24L39.17 23.04L32.54 23.04L32.54 30.24L6.12 30.24L6.12 36.14L26.64 36.14C20.66 41.90 11.74 46.73 2.95 49.18C4.25 50.47 6.19 52.85 7.13 54.50C16.49 51.26 25.99 45.43 32.54 38.23ZM34.63 73.66C32.83 72.22 25.85 67.25 22.97 65.59L22.97 65.09L33.91 65.09L33.91 59.26L22.97 59.26L22.97 51.98L16.63 51.98L16.63 59.26L5.11 59.26L5.11 65.09L16.13 65.09C12.82 70.27 7.63 75.31 2.66 78.12C3.60 79.78 4.90 82.44 5.47 84.24C9.50 81.65 13.39 77.54 16.63 73.08L16.63 88.56L22.97 88.56L22.97 71.57C25.56 73.66 28.22 75.82 29.66 77.11ZM67.18 65.30L67.18 59.47L53.78 59.47L53.78 51.98L47.45 51.98L47.45 59.47L36.36 59.47L36.36 65.30L46.44 65.30C42.41 71.21 35.86 76.82 29.59 79.78C30.96 80.93 32.83 83.09 33.70 84.60C38.45 81.79 43.42 77.54 47.45 72.58L47.45 89.21L53.78 89.21L53.78 72.22C57.24 77.04 61.49 81.43 65.16 84.31C66.24 82.66 68.40 80.35 69.91 79.06C64.73 76.10 58.61 70.63 54.65 65.30Z"/></svg>
