<svg xmlns="http://www.w3.org/2000/svg" xmlns:xlink="http://www.w3.org/1999/xlink" width="72.00000000000001" height="106.56000000000002"><path fill="red" stroke="red" d="M20.23 42.91L27.86 42.91L27.86 36.72L20.23 36.72L20.23 23.18L14.18 23.18L14.18 36.72L3.60 36.72L3.60 42.91L13.61 42.91C11.52 52.20 7.20 63.00 2.59 68.69C3.74 70.49 5.33 73.44 5.98 75.31C9.00 70.99 11.95 64.30 14.18 57.10L14.18 89.14L20.23 89.14L20.23 54.58C22.25 58.32 24.26 62.57 25.27 65.16L29.59 60.19C28.30 57.96 22.39 48.67 20.23 45.86ZM58.18 71.86L58.18 80.57L39.74 80.57L39.74 71.86ZM61.13 36.72L61.13 42.48L35.57 42.48L35.57 36.72ZM55.66 55.22L39.74 55.22L39.74 47.88L55.66 47.88ZM61.78 60.55L61.78 43.56L67.61 43.56L67.61 31.39L48.74 31.39L52.42 30.10C51.91 28.08 50.40 25.06 48.82 22.82L42.70 24.77C43.92 26.78 45.07 29.45 45.65 31.39L29.38 31.39L29.38 43.56L33.26 43.56L33.26 89.21L39.74 89.21L39.74 86.26L58.18 86.26L58.18 88.85L64.44 88.85L64.44 66.31L39.74 66.31L39.74 60.55Z"/></svg>
