<svg xmlns="http://www.w3.org/2000/svg" xmlns:xlink="http://www.w3.org/1999/xlink" width="72.00000000000001" height="106.56000000000002"><path fill="red" stroke="red" d="M68.26 58.61C67.68 55.44 66.38 50.62 65.16 47.02L60.77 48.17C61.20 49.54 61.70 51.05 62.06 52.63L54.72 53.35C59.47 48.17 64.15 41.69 67.97 35.28L62.93 32.54C61.92 34.56 60.84 36.65 59.62 38.66L53.50 39.24C56.16 35.28 58.82 30.17 60.77 25.42L55.30 23.69C53.57 29.52 50.26 35.57 49.18 37.15C48.17 38.74 47.30 39.89 46.30 40.18C46.94 41.47 47.81 44.14 48.02 45.22C48.96 44.86 50.40 44.50 56.45 43.63C54.29 46.80 52.34 49.25 51.41 50.33C49.68 52.34 48.31 53.78 46.94 54.07C47.59 55.51 48.38 58.25 48.67 59.33C49.90 58.82 51.84 58.39 63.07 56.95C63.29 58.10 63.50 59.04 63.65 59.98ZM39.74 40.97L32.18 40.97L32.18 34.70L39.74 34.70ZM39.74 52.13L32.18 52.13L32.18 45.72L39.74 45.72ZM45.65 29.66L37.51 29.66C38.16 27.86 38.95 25.78 39.74 23.76L33.62 22.68C33.41 24.62 32.83 27.36 32.26 29.66L26.50 29.66L26.50 57.17L45.65 57.17ZM25.56 58.18C25.13 54.79 23.98 49.82 22.97 45.94L18.50 46.87C18.79 48.38 19.22 50.11 19.58 51.77L12.24 52.63C16.85 47.38 21.38 40.90 25.06 34.56L20.23 31.90C19.15 34.06 18.00 36.29 16.70 38.45L11.66 38.88C14.26 35.06 16.78 30.17 18.65 25.63L13.39 23.69C11.74 29.30 8.42 35.28 7.49 36.72C6.48 38.30 5.47 39.46 4.61 39.67C5.11 40.97 5.98 43.56 6.26 44.64C7.13 44.21 8.42 43.85 13.68 43.20C11.59 46.30 9.72 48.74 8.86 49.75C7.13 51.84 5.76 53.28 4.39 53.57C5.04 54.94 5.90 57.60 6.12 58.68C7.34 58.18 9.22 57.67 20.45 56.09C20.59 57.31 20.81 58.39 20.88 59.33ZM23.98 70.63C19.30 75.38 10.44 79.56 2.23 81.36C3.74 82.66 5.69 85.25 6.70 86.98C15.19 84.38 24.34 79.06 29.52 72.86ZM43.63 74.23C50.62 77.98 59.47 83.66 63.79 87.41L68.04 82.51C63.43 78.84 54.43 73.51 47.59 70.06ZM39.46 58.90L32.76 58.90L32.76 62.86L3.96 62.86L3.96 68.40L32.76 68.40L32.76 88.99L39.46 88.99L39.46 68.40L68.04 68.40L68.04 62.86L39.46 62.86Z"/></svg>
