<svg xmlns="http://www.w3.org/2000/svg" xmlns:xlink="http://www.w3.org/1999/xlink" width="72.00000000000001" height="106.56000000000002"><path fill="red" stroke="red" d="M26.86 59.69C25.63 57.60 20.45 49.39 18.43 46.51L18.43 42.91L24.98 42.91L24.98 36.72L18.43 36.72L18.43 23.18L12.53 23.18L12.53 36.72L3.89 36.72L3.89 42.91L12.17 42.91C10.22 52.13 6.26 63.00 2.09 68.69C3.17 70.34 4.61 73.08 5.26 74.95C7.92 70.85 10.51 64.51 12.53 57.67L12.53 89.14L18.43 89.14L18.43 55.01C20.23 58.46 22.03 62.28 22.97 64.66ZM53.14 69.19C51.98 72.79 49.82 77.83 48.02 81.22L37.58 81.22L42.41 79.70C41.98 76.90 40.46 72.72 38.66 69.70L32.98 71.35C34.56 74.45 35.78 78.55 36.29 81.22L23.90 81.22L23.90 86.98L68.54 86.98L68.54 81.22L54.72 81.22C56.45 78.26 58.32 74.59 60.12 71.14ZM30.67 51.98C32.98 49.97 35.21 47.66 37.08 44.93L37.08 47.95L54.94 47.95L54.94 43.63C57.10 46.94 59.40 49.68 61.99 51.98ZM55.73 63.79L36.72 63.79L36.72 57.24L55.73 57.24ZM64.66 33.70C63.22 35.21 60.98 37.08 58.90 38.74C58.18 37.51 57.46 36.29 56.81 34.85C59.04 33.34 61.49 31.54 63.86 29.74L59.62 25.42C58.39 26.78 56.52 28.51 54.65 30.02C53.93 28.01 53.21 25.85 52.49 23.40L47.09 24.62C49.18 32.18 51.55 37.87 54.22 42.41L38.74 42.41C41.47 37.94 43.56 32.76 44.86 26.86L41.04 25.49L39.96 25.78L27.36 25.78L27.36 31.39L37.58 31.39C36.79 33.70 35.71 35.86 34.63 37.94C32.76 36.50 30.53 34.92 28.73 33.77L25.27 37.80C27.22 39.17 29.59 40.97 31.54 42.55C28.94 45.79 25.92 48.46 22.82 50.18C24.12 51.26 25.78 53.50 26.57 54.94C28.01 54.07 29.30 53.14 30.67 51.98L30.67 69.05L62.06 69.05L62.06 51.98C63.29 53.14 64.51 54.07 65.88 55.01C66.74 53.28 68.47 51.19 70.13 49.97C67.03 48.02 64.22 45.72 61.78 42.77C64.01 41.40 66.53 39.82 68.98 38.16Z"/></svg>
