<svg xmlns="http://www.w3.org/2000/svg" xmlns:xlink="http://www.w3.org/1999/xlink" width="72.00000000000001" height="106.56000000000002"><path fill="red" stroke="red" d="M60.77 47.74L53.71 47.74L53.71 42.26L60.77 42.26ZM65.95 37.94L48.67 37.94L48.67 52.06L65.95 52.06ZM37.94 36.65L43.78 36.65L43.78 23.11L37.94 23.11L37.94 28.44L25.92 28.44L25.92 33.48L37.94 33.48ZM27.14 57.31C25.99 55.58 21.02 48.53 19.37 46.37L19.37 42.91L26.64 42.91L26.64 36.72L19.37 36.72L19.37 23.11L13.54 23.11L13.54 36.72L4.18 36.72L4.18 42.91L12.60 42.91C10.66 51.77 6.55 62.50 2.38 68.18C3.46 69.98 4.90 72.94 5.54 74.95C8.50 70.27 11.38 63.00 13.54 55.51L13.54 89.21L19.37 89.21L19.37 54.00C21.02 56.88 22.61 60.12 23.47 61.99ZM36.29 78.19L45.65 78.19L45.65 81.86L36.29 81.86ZM36.29 65.52L36.29 61.85L45.65 61.85L45.65 65.52ZM45.65 73.66L36.29 73.66L36.29 69.98L45.65 69.98ZM33.41 42.26L40.18 42.26L40.18 47.74L33.41 47.74ZM51.48 78.19L64.22 78.19L64.22 73.66L51.48 73.66L51.48 69.98L64.22 69.98L64.22 65.52L51.48 65.52L51.48 61.85L67.10 61.85L67.10 57.46L51.91 57.46C51.34 55.80 50.62 53.93 50.04 52.42L44.28 53.93C44.71 55.01 45.14 56.23 45.50 57.46L37.58 57.46C38.45 56.02 39.24 54.43 39.96 52.99L37.22 52.06L45.36 52.06L45.36 37.94L28.37 37.94L28.37 52.06L34.13 52.06C31.54 57.38 27.50 62.35 23.26 65.74C24.41 67.03 26.06 69.98 26.64 71.21C27.86 70.13 29.09 68.83 30.31 67.61L30.31 89.28L36.29 89.28L36.29 86.83L68.47 86.83L68.47 81.86L51.48 81.86ZM56.09 28.44L56.09 23.11L50.26 23.11L50.26 36.58L56.09 36.58L56.09 33.48L68.98 33.48L68.98 28.44Z"/></svg>
