<svg xmlns="http://www.w3.org/2000/svg" xmlns:xlink="http://www.w3.org/1999/xlink" width="72.00000000000001" height="106.56000000000002"><path fill="red" stroke="red" d="M22.03 46.94C21.38 52.06 20.30 56.66 19.08 60.84C16.99 58.75 14.54 56.30 12.31 54.36C13.18 52.06 14.04 49.54 14.83 46.94ZM24.91 40.75L23.76 40.90L16.42 40.90C17.14 38.23 17.71 35.42 18.22 32.69L29.23 32.69L29.23 26.50L4.61 26.50L4.61 32.69L12.17 32.69C10.37 43.34 7.34 53.21 2.52 59.76C3.82 60.98 5.90 63.50 6.70 64.80C7.78 63.22 8.86 61.56 9.72 59.76C12.31 62.28 14.90 65.02 16.70 67.32C13.46 74.74 9.14 80.42 3.74 84.17C5.11 85.10 7.34 87.48 8.35 88.92C19.08 81.00 26.35 65.45 28.73 41.83ZM38.38 76.46L56.88 76.46L56.88 81.79L38.38 81.79ZM56.88 46.73L56.88 51.77L38.38 51.77L38.38 46.73ZM56.88 66.46L56.88 71.64L38.38 71.64L38.38 66.46ZM56.88 61.70L38.38 61.70L38.38 56.59L56.88 56.59ZM63.43 81.79L63.43 41.62L47.81 41.62C48.24 39.96 48.67 38.23 49.10 36.36L67.03 36.36L67.03 30.74L50.33 30.74C50.76 28.22 51.26 25.78 51.70 23.40L44.28 23.04C44.06 25.42 43.85 28.01 43.49 30.74L29.30 30.74L29.30 36.36L42.62 36.36C42.26 38.23 41.98 39.96 41.62 41.62L32.11 41.62L32.11 81.79L25.20 81.79L25.20 87.48L68.76 87.48L68.76 81.79Z"/></svg>
