<svg xmlns="http://www.w3.org/2000/svg" xmlns:xlink="http://www.w3.org/1999/xlink" width="72.00000000000001" height="106.56000000000002"><path fill="red" stroke="red" d="M30.38 33.48L30.82 38.95L42.62 37.87C43.70 40.61 45.00 43.06 46.51 45.22C41.54 47.38 36.07 49.10 30.53 50.26C31.68 51.41 33.55 53.86 34.27 55.15C39.60 53.64 45.00 51.77 49.97 49.39C53.42 52.78 57.53 54.65 61.78 54.65C66.46 54.65 68.33 52.92 69.26 45.79C67.82 45.29 65.88 44.42 64.73 43.34C64.44 47.59 63.94 49.03 62.14 49.03C59.90 49.10 57.60 48.10 55.37 46.30C58.75 44.21 61.70 41.76 64.01 39.02L58.32 37.01C56.66 39.02 54.36 40.82 51.77 42.48C50.69 40.97 49.75 39.24 48.82 37.37L67.82 35.71L67.32 30.38L60.19 31.03L62.93 27.29C60.77 25.70 56.59 23.90 53.42 22.82L50.40 26.71C53.35 27.79 56.88 29.66 59.11 31.10L46.87 32.04C46.08 29.30 45.58 26.35 45.36 23.18L39.38 23.18C39.60 26.50 40.18 29.66 40.90 32.62ZM24.26 47.52C23.54 51.70 22.61 55.51 21.60 59.11C19.08 57.02 15.91 54.58 13.18 52.70C13.82 50.98 14.47 49.32 14.98 47.52ZM27.14 41.26L25.99 41.47L16.78 41.47C17.57 38.59 18.22 35.64 18.79 32.62L31.82 32.62L31.82 26.57L4.25 26.57L4.25 32.62L12.31 32.62C10.30 43.27 7.13 53.28 2.02 59.83C3.38 61.06 5.76 63.58 6.62 64.94C7.99 63.00 9.36 60.91 10.58 58.46C13.61 60.91 16.85 63.65 19.01 65.95C15.41 74.23 10.44 80.35 4.25 84.46C5.69 85.32 7.92 87.70 8.86 89.14C20.02 81.22 28.08 65.81 31.03 42.55ZM57.82 69.19C55.87 71.71 53.06 73.80 49.97 75.67C48.67 73.80 47.52 71.71 46.51 69.26L68.26 67.54L67.82 62.06L59.83 62.64L63.07 58.75C60.55 57.24 55.94 55.30 52.42 54.14L49.03 58.03C52.42 59.26 56.66 61.27 59.11 62.71L44.78 63.86C44.14 61.42 43.70 58.75 43.49 56.02L37.44 56.02C37.66 58.90 38.09 61.70 38.74 64.37L27.94 65.23L28.37 70.78L40.25 69.77C41.40 73.01 42.84 75.89 44.57 78.48C38.95 81.00 32.62 82.80 26.21 84.10C27.50 85.32 29.30 88.06 30.10 89.50C36.29 87.91 42.55 85.75 48.24 83.02C52.13 86.90 56.66 89.21 61.70 89.21C66.67 89.21 68.69 87.26 69.55 79.34C68.04 78.91 66.17 77.98 64.87 76.90C64.51 81.79 63.94 83.45 61.99 83.45C59.18 83.52 56.30 82.22 53.71 79.99C57.67 77.54 61.13 74.66 63.72 71.42Z"/></svg>
