<svg xmlns="http://www.w3.org/2000/svg" xmlns:xlink="http://www.w3.org/1999/xlink" width="72.00000000000001" height="106.56000000000002"><path fill="red" stroke="red" d="M35.78 67.46C37.51 63.29 38.81 58.61 39.74 53.35L53.35 53.35C52.99 58.97 52.63 63.65 52.20 67.46ZM16.99 67.46C17.71 63.22 18.50 58.39 19.22 53.35L33.05 53.35C32.04 58.75 30.53 63.43 28.44 67.46ZM34.85 32.62C34.70 37.94 34.42 42.70 33.91 47.16L20.16 47.16C20.88 42.26 21.60 37.37 22.18 32.62ZM40.54 47.16C41.11 42.70 41.40 37.87 41.62 32.62L54.36 32.62C54.14 38.02 53.93 42.77 53.71 47.16ZM68.18 53.35L68.18 47.16L60.48 47.16C60.70 42.12 60.98 36.50 61.20 30.17C61.27 29.16 61.27 26.50 61.27 26.50L15.98 26.50C15.34 32.76 14.47 40.03 13.39 47.16L4.03 47.16L4.03 53.35L12.46 53.35C11.30 60.91 9.94 68.04 8.86 73.51L24.34 73.51C20.30 78.26 14.76 81.72 7.20 84.31C8.86 85.46 11.81 88.13 12.74 89.35C21.96 85.46 28.30 80.42 32.69 73.51L51.48 73.51C50.69 78.26 49.82 80.93 48.74 82.01C47.95 83.16 47.09 83.38 45.58 83.38C43.78 83.38 40.03 83.38 35.71 83.02C36.65 84.74 37.51 87.26 37.58 88.92C41.62 89.21 46.01 89.28 48.60 88.99C51.41 88.63 53.14 87.77 55.01 85.18C56.38 83.45 57.46 79.99 58.39 73.51L66.38 73.51L66.38 67.46L59.04 67.46C59.40 63.58 59.76 58.90 60.12 53.35Z"/></svg>
