<svg xmlns="http://www.w3.org/2000/svg" xmlns:xlink="http://www.w3.org/1999/xlink" width="72.00000000000001" height="106.56000000000002"><path fill="red" stroke="red" d="M24.26 31.68C21.38 29.23 15.41 26.14 10.87 24.34L7.20 29.30C11.81 31.25 17.57 34.63 20.38 37.15ZM19.87 50.33C16.85 47.95 10.80 45.22 6.12 43.63L2.66 48.74C7.42 50.54 13.32 53.57 16.20 55.94ZM17.78 61.34C13.68 69.34 8.28 78.19 4.61 83.38L10.30 87.98C14.40 81.36 19.01 73.08 22.68 65.81ZM60.12 41.83C58.18 49.25 55.22 55.66 51.48 61.20C47.30 57.17 40.97 52.56 35.28 49.18C36.86 46.94 38.52 44.42 39.96 41.83ZM63.72 35.06L62.57 35.42L43.42 35.42C45.07 31.97 46.58 28.44 47.88 24.77L40.82 23.04C36.58 36.07 29.02 47.95 19.73 55.15C21.46 56.30 24.41 58.61 25.70 59.83C27.65 58.10 29.52 56.23 31.39 54.14C37.22 57.74 43.34 62.64 47.16 66.82C40.25 74.88 31.46 80.42 21.67 83.59C23.11 84.96 24.91 87.62 25.78 89.42C46.44 81.65 62.57 65.74 68.33 36.86Z"/></svg>
