<svg xmlns="http://www.w3.org/2000/svg" xmlns:xlink="http://www.w3.org/1999/xlink" width="72.00000000000001" height="106.56000000000002"><path fill="red" stroke="red" d="M29.59 34.92C27.86 43.85 24.84 53.28 21.02 59.26C22.68 60.05 25.63 61.78 26.93 62.86C30.74 56.30 34.20 46.01 36.29 36.14ZM53.71 36.00C57.74 42.19 61.63 50.54 63.07 56.09L69.26 53.28C67.68 47.81 63.72 39.67 59.47 33.55ZM58.68 55.44C52.99 71.57 40.90 79.85 21.02 83.52C22.46 85.10 24.05 87.77 24.77 89.71C45.79 84.96 58.61 75.53 64.80 57.53ZM41.33 23.83L41.33 67.61L48.31 67.61L48.31 23.83ZM6.70 28.87C11.30 30.96 17.21 34.34 20.09 36.79L24.05 31.32C21.02 28.94 14.98 25.78 10.44 23.90ZM2.66 48.46C7.27 50.47 13.10 53.86 15.91 56.23L19.73 50.62C16.70 48.38 10.73 45.29 6.26 43.49ZM5.04 83.81L10.87 88.13C14.90 81.36 19.58 72.86 23.26 65.30L18.22 60.98C14.18 69.19 8.78 78.26 5.04 83.81Z"/></svg>
