<svg xmlns="http://www.w3.org/2000/svg" xmlns:xlink="http://www.w3.org/1999/xlink" width="72.00000000000001" height="106.56000000000002"><path fill="red" stroke="red" d="M57.24 30.89C52.13 28.30 42.26 25.06 35.06 23.40L32.11 28.51C39.53 30.46 49.25 33.98 54.07 36.58ZM23.62 31.25C20.66 28.80 14.69 25.49 10.15 23.54L6.62 28.51C11.23 30.74 17.06 34.27 19.87 36.79ZM19.58 49.90C16.56 47.66 10.51 44.50 5.98 42.70L2.59 47.81C7.20 49.90 13.10 53.28 15.98 55.73ZM16.99 60.98C13.25 69.26 8.35 78.48 4.90 84.02L10.80 88.06C14.54 81.29 18.86 72.65 22.18 65.02ZM35.42 50.98L34.27 51.19L21.38 51.19L21.38 57.38L32.11 57.38C29.59 66.89 24.55 75.31 18.72 79.49C20.09 80.64 22.03 82.87 22.97 84.31C31.10 78.12 37.08 66.96 39.60 52.34ZM62.64 44.57C60.12 48.17 56.09 52.70 52.42 56.38C50.90 52.78 49.68 48.96 48.67 45.07L48.67 37.73L27.65 37.73L27.65 44.14L42.34 44.14L42.34 81.29C42.34 82.37 41.90 82.66 40.82 82.73C39.67 82.80 35.86 82.80 32.04 82.66C32.98 84.31 33.91 87.34 34.13 89.14C39.67 89.21 43.27 89.06 45.65 87.98C47.95 86.98 48.67 84.96 48.67 81.36L48.67 61.49C52.56 70.99 57.82 78.98 64.87 83.88C66.02 82.01 68.18 79.42 69.77 78.12C63.65 74.59 58.68 68.76 54.86 61.63C59.11 58.10 64.15 53.21 68.54 48.89Z"/></svg>
