<svg xmlns="http://www.w3.org/2000/svg" xmlns:xlink="http://www.w3.org/1999/xlink" width="72.00000000000001" height="106.56000000000002"><path fill="red" stroke="red" d="M24.91 31.90C21.89 29.38 15.77 25.85 11.09 23.62L7.20 28.37C11.88 30.74 17.93 34.56 20.74 37.30ZM19.94 51.26C17.14 48.89 11.23 45.72 6.98 43.78L3.17 48.46C7.56 50.69 13.25 54.22 15.98 56.59ZM11.30 88.27C15.55 81.50 20.38 72.94 24.12 65.45L19.15 61.06C14.98 69.19 9.50 78.34 5.62 83.81ZM54.86 65.45L54.86 79.70L36.14 79.70L36.14 65.45ZM29.45 89.35L36.14 89.35L36.14 85.68L54.86 85.68L54.86 89.21L61.85 89.21L61.85 59.54L29.45 59.54ZM35.86 46.44C39.82 42.55 43.27 38.02 46.08 33.19C49.18 37.87 52.99 42.55 56.95 46.44ZM43.56 23.18C39.60 33.26 31.46 42.98 21.46 48.89C22.97 50.11 25.27 52.63 26.28 54.07C28.80 52.42 31.18 50.62 33.48 48.60L33.48 52.49L58.03 52.49L58.03 47.52C60.34 49.61 62.71 51.55 64.94 53.14C66.10 51.34 68.26 48.89 69.91 47.59C62.42 43.34 54.07 35.14 49.10 27.29C49.46 26.57 49.82 25.85 50.11 25.06Z"/></svg>
