<svg xmlns="http://www.w3.org/2000/svg" xmlns:xlink="http://www.w3.org/1999/xlink" width="72.00000000000001" height="106.56000000000002"><path fill="red" stroke="red" d="M68.69 53.64C65.95 49.75 60.41 43.20 56.38 38.45L51.34 41.33C52.63 43.06 54.14 44.93 55.73 46.80L33.77 48.10C36.43 45.07 39.10 41.76 41.76 38.16L67.75 38.16L67.75 32.11L45.94 32.11C47.23 30.02 48.60 27.86 49.82 25.70L43.27 23.11C41.83 26.14 39.96 29.23 38.23 32.11L23.26 32.11L23.26 38.16L34.06 38.16C31.97 41.18 30.17 43.42 29.16 44.50C27.07 47.02 25.42 48.67 23.83 49.03C24.55 50.76 25.63 53.93 25.99 55.30C28.30 54.36 31.75 54.07 59.76 52.20C61.13 54.00 62.35 55.73 63.22 57.10ZM22.46 32.33C19.80 29.66 14.26 26.14 9.86 23.98L6.12 28.87C10.51 31.18 15.98 34.92 18.43 37.66ZM19.87 50.69C16.92 48.31 11.09 45.22 6.48 43.42L2.95 48.46C7.63 50.47 13.39 53.78 16.13 56.38ZM18.07 60.98C13.90 69.19 8.35 78.34 4.54 83.81L10.15 88.34C14.47 81.50 19.22 72.94 23.04 65.45ZM29.23 64.22C29.23 70.56 28.37 78.48 20.23 84.53C21.67 85.39 23.90 87.55 24.91 88.92C34.13 81.86 35.28 72.29 35.28 64.37L35.28 57.10L29.23 57.10ZM41.69 86.11L47.59 86.11L47.59 57.67L41.69 57.67ZM61.42 82.44C60.48 82.44 60.34 81.72 60.34 79.63L60.34 57.10L54.14 57.10L54.14 79.49C54.14 85.25 55.22 87.62 60.84 87.62L65.09 87.62C66.38 87.62 67.82 87.55 68.76 87.19C68.54 85.82 68.33 83.66 68.26 82.01C67.39 82.30 65.88 82.44 65.02 82.44Z"/></svg>
