<svg xmlns="http://www.w3.org/2000/svg" xmlns:xlink="http://www.w3.org/1999/xlink" width="72.00000000000001" height="106.56000000000002"><path fill="red" stroke="red" d="M68.76 30.67L49.46 30.67C48.67 28.30 47.30 25.20 45.86 22.82L39.82 24.55C40.75 26.35 41.69 28.66 42.48 30.67L21.53 30.67L21.53 37.01L68.76 37.01ZM21.02 34.92C18.86 32.18 14.40 28.15 10.80 25.34L6.48 29.16C10.08 32.18 14.40 36.29 16.49 39.17ZM17.64 52.85C15.41 50.26 10.73 46.66 7.06 44.06L2.95 48.02C6.62 50.69 11.16 54.65 13.39 57.24ZM10.30 86.98C13.25 80.42 16.49 71.93 18.94 64.58L13.82 60.98C10.94 68.98 7.13 77.90 4.39 83.38ZM46.37 55.37C48.67 57.53 51.34 60.70 52.49 62.86L55.94 59.76C54.79 57.67 52.06 54.72 49.68 52.70ZM59.76 50.98C57.96 57.96 55.08 64.01 51.41 69.19C48.17 65.02 45.65 60.26 43.85 55.30C44.64 53.86 45.43 52.49 46.22 50.98ZM62.86 45.43L61.85 45.65L48.74 45.65C49.75 43.42 50.62 41.18 51.41 39.02L45.22 37.51C42.98 45.36 38.16 55.01 32.26 61.06L32.26 49.32C34.06 45.94 35.64 42.41 36.94 39.17L30.74 37.37C28.22 44.93 23.18 54.29 17.50 60.19C18.72 61.27 20.81 63.29 21.82 64.44C23.40 62.86 24.91 60.91 26.35 58.97L26.35 89.14L32.26 89.14L32.26 61.85C33.48 62.93 35.14 64.58 36.07 65.66C37.51 64.15 38.88 62.50 40.25 60.70C42.26 65.45 44.71 69.84 47.59 73.80C43.34 78.34 38.30 81.79 32.98 84.17C34.27 85.32 36.00 87.70 36.86 89.21C42.26 86.62 47.23 83.09 51.55 78.62C55.44 82.94 60.05 86.54 65.16 89.06C66.17 87.48 68.11 85.03 69.55 83.81C64.30 81.50 59.54 78.12 55.44 73.94C60.77 66.89 64.73 57.96 66.89 46.87Z"/></svg>
