<svg xmlns="http://www.w3.org/2000/svg" xmlns:xlink="http://www.w3.org/1999/xlink" width="72.00000000000001" height="106.56000000000002"><path fill="red" stroke="red" d="M67.75 51.05C65.66 47.59 61.56 42.26 57.53 37.87C60.62 34.06 64.08 29.45 66.67 25.27L60.34 23.62C58.18 27.43 54.14 33.26 50.47 38.02C55.22 43.34 59.69 49.39 61.78 53.57ZM52.70 50.90C50.83 47.45 46.94 42.12 43.27 37.73C46.22 33.91 49.61 29.30 52.13 25.27L45.94 23.62C43.85 27.36 39.96 33.12 36.36 37.80C40.75 43.13 44.86 49.18 46.80 53.21ZM38.09 51.48C36.29 47.88 32.62 42.48 28.94 38.02C31.97 34.13 35.42 29.23 37.94 25.27L31.90 23.62C29.81 27.43 25.78 33.26 22.03 38.02C26.42 43.42 30.24 49.46 32.18 53.71ZM23.11 31.18C20.09 29.02 14.04 25.85 9.72 23.90L6.05 28.73C10.44 30.96 16.34 34.42 19.22 36.65ZM19.73 50.47C16.78 48.46 10.87 45.43 6.70 43.49L3.17 48.53C7.42 50.62 13.25 53.93 16.06 56.09ZM10.87 88.13C14.83 81.36 19.22 72.79 22.68 65.38L17.64 61.13C13.75 69.26 8.64 78.41 5.04 83.88ZM42.12 60.41L42.12 67.54L31.75 67.54L31.75 60.41ZM59.26 67.54L48.31 67.54L48.31 60.41L59.26 60.41ZM48.31 80.57L48.31 72.94L59.26 72.94L59.26 80.57ZM31.75 80.57L31.75 72.94L42.12 72.94L42.12 80.57ZM25.56 89.14L31.75 89.14L31.75 86.33L59.26 86.33L59.26 88.78L65.66 88.78L65.66 54.65L25.56 54.65Z"/></svg>
