<svg xmlns="http://www.w3.org/2000/svg" xmlns:xlink="http://www.w3.org/1999/xlink" width="72.00000000000001" height="106.56000000000002"><path fill="red" stroke="red" d="M20.16 34.49C18.29 31.61 14.04 27.50 10.66 24.62L6.26 28.08C9.65 31.18 13.75 35.57 15.62 38.45ZM16.92 52.63C14.83 50.04 10.37 46.15 6.91 43.49L2.66 47.16C6.19 50.04 10.44 54.07 12.46 56.81ZM11.52 61.63C9.43 69.84 6.41 79.06 4.18 84.82L9.94 87.77C12.31 81.00 14.90 72.22 16.70 64.58ZM43.99 57.24C42.70 55.80 37.51 50.47 34.70 47.81L34.70 44.93L41.90 44.93L41.90 38.52L34.70 38.52L34.70 23.04L28.51 23.04L28.51 38.52L19.01 38.52L19.01 44.93L27.86 44.93C25.20 56.23 20.66 67.75 15.41 73.73C16.78 74.81 18.86 76.97 19.87 78.48C23.26 73.94 26.21 67.10 28.51 59.40L28.51 89.06L34.70 89.06L34.70 55.15C36.94 58.10 39.31 61.42 40.54 63.43ZM68.11 44.93L68.11 38.52L57.82 38.52L57.82 23.04L51.48 23.04L51.48 38.52L43.27 38.52L43.27 44.93L50.62 44.93C47.81 56.45 43.06 67.82 37.15 73.87C38.66 74.88 40.68 77.11 41.69 78.55C45.58 73.94 48.89 66.96 51.48 58.97L51.48 89.06L57.82 89.06L57.82 59.04C59.76 66.53 62.28 73.22 65.09 77.40C66.24 75.74 68.40 73.58 69.91 72.50C65.02 66.89 60.91 55.44 58.54 44.93Z"/></svg>
