<svg xmlns="http://www.w3.org/2000/svg" xmlns:xlink="http://www.w3.org/1999/xlink" width="72.00000000000001" height="106.56000000000002"><path fill="red" stroke="red" d="M56.59 36.86L31.90 36.86L31.90 31.39L56.59 31.39ZM56.59 47.23L31.90 47.23L31.90 41.76L56.59 41.76ZM63.58 26.21L25.13 26.21L25.13 52.42L63.58 52.42ZM23.83 31.32C20.74 29.30 14.76 26.06 10.66 23.98L7.06 28.80C11.30 31.25 17.14 34.70 20.02 36.79ZM19.73 50.62C16.63 48.67 10.66 45.50 6.62 43.49L3.17 48.46C7.34 50.69 13.18 54.14 16.13 56.23ZM18.79 61.06C14.69 69.19 9.29 78.41 5.62 83.81L11.02 88.34C15.12 81.58 19.80 72.94 23.47 65.45ZM32.33 80.78L32.33 68.54L44.06 68.54L44.06 62.86L32.33 62.86L32.33 54.50L25.78 54.50L25.78 79.78C25.78 82.22 24.55 82.80 23.40 83.16C24.26 84.60 25.20 87.62 25.42 89.42C27.00 88.42 29.52 87.55 44.57 83.95C44.28 82.58 43.85 80.06 43.63 78.34ZM55.01 83.16C52.99 83.16 52.70 82.80 52.70 80.64L52.70 68.54L67.32 68.54L67.32 62.86L52.70 62.86L52.70 54.29L46.22 54.29L46.22 80.64C46.22 87.05 47.81 88.92 54.07 88.92L62.06 88.92C67.25 88.92 68.90 86.47 69.55 77.76C67.90 77.33 65.16 76.32 63.86 75.38C63.65 82.01 63.29 83.16 61.49 83.16Z"/></svg>
