<svg xmlns="http://www.w3.org/2000/svg" xmlns:xlink="http://www.w3.org/1999/xlink" width="72.00000000000001" height="106.56000000000002"><path fill="red" stroke="red" d="M21.82 31.61C19.37 29.45 14.40 26.42 10.73 24.55L6.70 29.16C10.44 31.32 15.34 34.56 17.71 36.79ZM18.36 50.40C15.62 48.38 10.37 45.50 6.48 43.85L2.74 48.60C6.70 50.54 11.81 53.71 14.40 55.80ZM50.62 50.04C51.70 52.42 52.99 54.94 54.43 57.17L34.78 57.17C36.14 54.86 37.44 52.42 38.45 50.04ZM38.38 36.86L50.62 36.86L50.62 43.99L38.38 43.99ZM52.27 68.90L36.65 68.90L36.65 62.14L52.27 62.14ZM57.60 73.87L57.60 61.63C59.90 64.44 62.50 66.89 65.16 68.62C66.17 67.03 68.33 64.66 69.84 63.43C64.94 60.62 60.12 55.44 57.17 50.04L69.26 50.04L69.26 43.99L57.17 43.99L57.17 36.86L67.25 36.86L67.25 30.89L57.17 30.89L57.17 23.18L50.62 23.18L50.62 30.89L38.38 30.89L38.38 23.18L31.90 23.18L31.90 30.89L22.68 30.89L22.68 36.86L31.90 36.86L31.90 43.99L19.73 43.99L19.73 50.04L31.68 50.04C28.73 55.94 23.76 61.78 18.86 65.02L14.26 61.63C11.30 69.41 7.27 78.12 4.39 83.45L10.37 87.26C13.39 80.78 16.78 72.86 19.44 65.81C20.74 66.96 22.39 68.83 23.26 70.13C25.85 68.18 28.51 65.66 30.82 62.78L30.82 79.85C30.82 86.62 33.12 88.20 41.33 88.20L56.74 88.20C63.65 88.20 65.38 85.90 66.24 77.18C64.66 76.82 62.21 75.96 60.84 75.02C60.41 81.65 59.83 82.80 56.30 82.80L41.69 82.80C37.37 82.80 36.65 82.30 36.65 79.78L36.65 73.87Z"/></svg>
