<svg xmlns="http://www.w3.org/2000/svg" xmlns:xlink="http://www.w3.org/1999/xlink" width="72.00000000000001" height="106.56000000000002"><path fill="red" stroke="red" d="M56.66 34.92L34.70 34.92L34.70 30.31L56.66 30.31ZM56.66 44.14L34.70 44.14L34.70 39.46L56.66 39.46ZM63.29 25.42L28.37 25.42L28.37 49.03L63.29 49.03ZM22.54 30.89C19.94 28.37 14.47 25.34 10.22 23.54L6.48 28.51C10.73 30.53 16.13 33.91 18.58 36.36ZM18.86 49.54C16.20 47.23 10.73 44.35 6.48 42.70L2.74 47.74C7.13 49.61 12.46 52.78 14.98 55.15ZM15.70 61.34C12.17 69.55 7.42 78.77 4.10 84.31L10.08 88.27C13.68 81.50 17.78 72.94 20.88 65.38ZM69.05 58.25L69.05 52.78L21.89 52.78L21.89 58.25L31.10 58.25C28.01 63.36 23.47 68.11 18.72 71.28C20.09 72.29 22.39 74.23 23.40 75.31C26.06 73.30 28.80 70.70 31.25 67.82L37.01 67.82C33.41 73.94 28.01 79.49 22.32 83.16C23.62 84.17 25.92 86.26 26.93 87.34C33.26 82.66 39.53 75.60 43.70 67.82L49.46 67.82C46.73 75.02 42.26 81.36 36.79 85.54C38.16 86.33 40.61 88.20 41.62 89.21C47.45 84.17 52.56 76.54 55.73 67.82L60.34 67.82C59.62 77.62 58.75 81.50 57.67 82.66C57.10 83.38 56.52 83.52 55.58 83.45C54.65 83.45 52.49 83.45 50.11 83.23C51.05 84.74 51.62 87.26 51.77 88.99C54.58 89.14 57.31 89.14 58.82 88.92C60.55 88.70 61.85 88.20 63.00 86.83C64.94 84.67 65.95 79.06 66.89 65.16C66.96 64.30 67.03 62.57 67.03 62.57L35.28 62.57C36.22 61.13 37.08 59.69 37.87 58.25Z"/></svg>
