<svg xmlns="http://www.w3.org/2000/svg" xmlns:xlink="http://www.w3.org/1999/xlink" width="72.00000000000001" height="106.56000000000002"><path fill="red" stroke="red" d="M20.38 32.83C18.07 30.31 13.32 26.57 9.65 24.12L5.62 28.01C9.29 30.67 13.97 34.56 16.13 37.15ZM18.00 52.13C15.55 49.61 10.44 46.15 6.55 43.92L2.74 48.02C6.70 50.47 11.66 54.07 14.04 56.59ZM14.18 61.92C11.16 69.84 6.98 79.06 4.10 84.53L9.50 87.91C12.60 81.29 16.20 72.72 19.01 65.23ZM34.63 32.33L34.63 39.53L26.86 39.53L26.86 32.33ZM26.86 52.20L26.86 44.71L34.63 44.71L34.63 52.20ZM41.90 75.60C40.90 71.64 38.09 65.30 35.50 60.41L30.89 62.71C31.75 64.37 32.62 66.24 33.48 68.11L26.86 71.57L26.86 57.67L40.03 57.67L40.03 26.93L21.17 26.93L21.17 70.27C21.17 73.66 19.22 76.18 18.00 77.18C19.08 78.26 20.81 80.64 21.46 82.08C22.46 80.78 24.26 79.34 35.42 72.86C36.07 74.88 36.72 76.75 37.08 78.19ZM48.38 51.48C49.39 45.72 50.40 38.59 51.12 32.62L54.94 32.62C54.94 37.94 54.72 44.50 53.42 51.48ZM60.98 82.51C60.55 82.51 60.12 82.37 59.90 82.15C59.62 81.94 59.62 81.43 59.62 81.00L59.62 60.55L56.95 60.55C57.31 59.33 57.60 58.18 57.89 56.95L67.97 56.95L67.97 51.48L58.97 51.48C60.05 44.50 60.26 38.02 60.26 32.62L67.03 32.62L67.03 26.86L43.20 26.86L43.20 32.62L45.79 32.62C45.00 40.68 43.70 50.83 42.48 56.95L52.20 56.95C49.68 66.82 44.64 77.18 34.85 85.90C36.43 86.76 38.59 88.34 39.60 89.42C46.51 83.02 51.05 75.82 54.22 68.40L54.22 81.07C54.22 84.67 54.50 85.82 55.51 86.76C56.45 87.77 58.03 88.13 59.47 88.13L62.86 88.13C64.08 88.13 65.38 87.84 66.24 87.19C67.18 86.54 67.82 85.61 68.26 84.10C68.62 82.66 68.90 78.70 68.90 75.10C67.54 74.66 65.66 73.73 64.66 72.72C64.66 76.25 64.58 79.27 64.44 80.57C64.30 81.29 64.01 81.86 63.72 82.15C63.50 82.44 63.00 82.51 62.50 82.51Z"/></svg>
