<svg xmlns="http://www.w3.org/2000/svg" xmlns:xlink="http://www.w3.org/1999/xlink" width="72.00000000000001" height="106.56000000000002"><path fill="red" stroke="red" d="M29.81 35.21L61.63 35.21L61.63 41.54L68.11 41.54L68.11 29.59L49.90 29.59C49.03 27.58 47.45 24.84 45.79 22.97L40.32 24.84C41.26 26.28 42.34 27.94 43.13 29.59L23.62 29.59L23.62 41.54L29.81 41.54ZM10.30 87.41C13.61 80.71 17.42 72.22 20.30 64.87L15.12 60.91C11.88 68.98 7.49 77.98 4.39 83.38ZM19.01 50.18C16.34 47.81 10.73 44.57 6.62 42.41L2.66 47.09C6.91 49.46 12.31 52.99 14.98 55.44ZM6.41 29.02C10.30 31.32 15.26 34.99 17.64 37.44L21.96 32.47C19.51 30.10 14.40 26.71 10.58 24.48ZM53.14 49.18C52.49 51.98 51.34 55.87 50.40 58.54L37.94 58.54L41.18 57.67C40.68 55.37 39.46 51.84 37.94 49.18ZM69.19 64.30L69.19 58.54L56.74 58.54C57.74 56.09 58.90 52.92 59.90 49.97L56.23 49.18L66.02 49.18L66.02 43.63L49.97 43.63C49.25 41.69 47.59 38.81 45.94 36.86L40.82 38.66C41.90 40.18 42.98 41.98 43.78 43.63L26.21 43.63L26.21 49.18L36.07 49.18L31.82 50.26C33.05 52.78 34.34 56.16 34.85 58.54L22.82 58.54L22.82 64.30L42.34 64.30L42.34 70.56L25.78 70.56L25.78 76.18L42.34 76.18L42.34 89.14L49.03 89.14L49.03 76.18L66.60 76.18L66.60 70.56L49.03 70.56L49.03 64.30Z"/></svg>
