<svg xmlns="http://www.w3.org/2000/svg" xmlns:xlink="http://www.w3.org/1999/xlink" width="72.00000000000001" height="106.56000000000002"><path fill="red" stroke="red" d="M20.16 31.82C17.78 29.52 12.89 26.14 9.43 23.90L5.26 28.30C8.86 30.82 13.54 34.42 15.84 36.86ZM18.22 50.69C15.70 48.46 10.66 45.29 6.91 43.20L2.88 47.74C6.62 50.04 11.59 53.50 13.90 55.73ZM10.37 88.27C13.39 81.58 16.78 73.01 19.37 65.52L13.97 61.99C11.09 70.06 7.13 79.27 4.32 84.82ZM26.64 39.02C27.00 36.29 27.36 33.26 27.65 30.53L31.75 30.53L31.75 33.41C31.75 35.14 31.68 37.01 31.32 39.02ZM34.70 49.54C34.70 52.92 33.12 54.72 32.11 55.58C32.98 56.38 34.20 58.10 34.63 59.11C35.57 58.18 37.08 57.17 45.43 53.21C44.93 52.20 44.35 50.40 43.99 49.18L39.17 51.19L39.17 44.28L43.56 44.28L43.56 39.02L36.58 39.02C36.86 37.01 37.01 35.14 37.01 33.48L37.01 30.53L42.62 30.53L42.62 25.70L21.02 25.70L21.02 30.53L22.82 30.53C22.54 35.14 21.96 40.61 21.31 44.28L29.74 44.28C28.01 48.10 24.77 51.98 18.79 55.37C19.94 56.30 21.60 57.89 22.39 59.11C29.02 54.86 32.76 49.97 34.70 45.22ZM57.24 65.30L57.24 70.49L31.03 70.49L31.03 65.30ZM31.03 80.78L31.03 75.17L57.24 75.17L57.24 80.78ZM24.77 89.14L31.03 89.14L31.03 86.04L57.24 86.04L57.24 88.85L63.79 88.85L63.79 60.05L24.77 60.05ZM49.97 39.17C50.40 36.43 50.76 33.26 51.05 30.53L55.08 30.53L55.08 34.20C55.08 35.71 55.01 37.37 54.79 39.17ZM61.70 53.42C60.84 53.42 60.77 53.28 60.77 52.06L60.77 46.44L58.03 46.44C58.32 45.79 58.46 45.07 58.68 44.42L67.97 44.42L67.97 39.17L59.98 39.17C60.26 37.37 60.34 35.78 60.34 34.27L60.34 30.53L67.39 30.53L67.39 25.70L44.50 25.70L44.50 30.53L46.44 30.53C46.15 35.21 45.58 40.68 44.93 44.42L53.50 44.42C51.98 48.31 49.03 52.34 43.20 55.73C44.42 56.59 46.08 58.18 46.73 59.33C51.12 56.52 54.14 53.21 56.16 49.90L56.16 52.13C56.16 56.52 57.02 57.82 61.06 57.82L64.66 57.82C67.75 57.82 68.98 56.30 69.48 49.97C68.11 49.61 66.17 48.89 65.30 48.17C65.16 52.99 64.94 53.42 63.94 53.42Z"/></svg>
