<svg xmlns="http://www.w3.org/2000/svg" xmlns:xlink="http://www.w3.org/1999/xlink" width="72.00000000000001" height="106.56000000000002"><path fill="red" stroke="red" d="M57.10 25.06C46.87 28.30 28.58 31.03 12.67 32.54L12.67 47.02C12.67 58.25 11.74 74.23 2.88 85.46C4.46 86.11 7.34 87.84 8.50 88.99C17.64 77.18 19.15 59.18 19.15 47.02L19.15 37.58C34.42 36.07 51.19 33.48 63.14 29.95ZM32.47 88.13L39.10 88.13L39.10 39.10L32.47 39.10ZM50.62 36.86C51.91 60.34 54.50 79.42 64.58 89.35C65.59 87.55 67.75 84.82 69.34 83.59C60.34 75.38 57.96 56.95 56.81 36.36Z"/></svg>
