<svg xmlns="http://www.w3.org/2000/svg" xmlns:xlink="http://www.w3.org/1999/xlink" width="72.00000000000001" height="106.56000000000002"><path fill="red" stroke="red" d="M43.56 34.42L30.02 34.42L30.02 38.59L65.23 38.59L65.23 34.42L50.11 34.42L50.11 31.10L67.18 31.10L67.18 26.71L50.11 26.71L50.11 23.11L43.56 23.11L43.56 26.71L27.58 26.71L27.58 31.10L43.56 31.10ZM33.26 44.78L39.31 44.78L39.31 51.48L33.26 51.48ZM60.98 51.48L54.86 51.48L54.86 44.78L60.98 44.78ZM43.63 51.48L43.63 44.78L50.47 44.78L50.47 51.48ZM27.94 55.08L66.60 55.08L66.60 41.11L27.94 41.11ZM26.42 61.85L25.34 56.09L19.87 57.96L19.87 43.27L25.56 43.27L25.56 37.30L19.87 37.30L19.87 23.11L14.04 23.11L14.04 37.30L10.30 37.30C10.58 34.70 10.80 32.04 11.02 29.30L5.76 28.66C5.26 37.30 4.32 46.44 2.23 52.42C3.53 52.92 5.90 54.07 6.98 54.79C8.06 51.55 8.86 47.59 9.50 43.27L14.04 43.27L14.04 60.05C9.79 61.49 5.90 62.78 2.88 63.72L4.54 69.77L14.04 66.31L14.04 89.21L19.87 89.21L19.87 64.22ZM36.14 72.29L58.61 72.29L58.61 75.17L36.14 75.17ZM36.14 66.82L58.61 66.82L58.61 69.48L36.14 69.48ZM36.14 61.42L58.61 61.42L58.61 64.01L36.14 64.01ZM64.80 78.84L64.80 57.67L30.17 57.67L30.17 78.84L38.88 78.84C34.85 80.86 28.58 83.45 24.26 84.89C25.20 86.26 26.28 88.27 26.86 89.57C31.82 87.70 38.81 85.03 44.35 82.51L40.39 78.84L52.42 78.84L50.26 82.58C55.80 84.74 61.92 87.55 65.74 89.50L68.54 84.74C64.94 83.09 59.33 80.71 54.07 78.84Z"/></svg>
