<svg xmlns="http://www.w3.org/2000/svg" xmlns:xlink="http://www.w3.org/1999/xlink" width="72.00000000000001" height="106.56000000000002"><path fill="red" stroke="red" d="M23.83 23.54C22.10 26.28 20.09 29.02 17.71 31.68C15.34 28.80 12.38 26.06 8.71 23.33L3.96 27.22C7.92 30.17 10.94 33.26 13.25 36.36C9.94 39.53 6.26 42.48 2.59 44.86C4.03 46.08 6.19 48.17 7.20 49.68C10.37 47.45 13.61 44.93 16.56 42.19C17.78 44.71 18.43 47.38 19.01 50.18C15.12 56.74 8.21 63.79 2.16 67.46C3.82 68.69 5.76 70.99 6.84 72.65C11.16 69.48 15.98 64.66 19.87 59.62L19.87 61.70C19.87 71.14 19.08 78.55 17.21 81.00C16.56 81.94 15.84 82.37 14.54 82.51C12.67 82.73 9.36 82.80 5.04 82.44C6.41 84.31 7.13 86.98 7.20 89.14C11.02 89.35 14.47 89.35 17.57 88.63C19.51 88.27 21.10 87.41 22.18 85.82C25.49 81.43 26.50 72.29 26.50 61.85C26.50 53.42 25.70 45.07 21.53 37.30C24.48 34.13 27.14 30.82 29.30 27.43ZM44.64 82.22C40.61 82.22 39.89 81.50 39.89 77.40L39.89 34.99L58.25 34.99L58.25 54.00C58.25 55.08 57.89 55.37 56.59 55.37C55.37 55.44 50.69 55.44 46.08 55.22C46.94 57.10 47.95 59.90 48.24 61.85C54.43 61.85 58.82 61.85 61.49 60.77C64.15 59.76 64.94 57.74 64.94 54.14L64.94 28.58L33.12 28.58L33.12 77.33C33.12 86.33 35.71 88.63 43.99 88.63L58.82 88.63C66.74 88.63 68.69 84.60 69.62 73.15C67.82 72.72 65.02 71.50 63.36 70.34C62.86 79.99 62.14 82.22 58.32 82.22Z"/></svg>
