<svg xmlns="http://www.w3.org/2000/svg" xmlns:xlink="http://www.w3.org/1999/xlink" width="72.00000000000001" height="106.56000000000002"><path fill="red" stroke="red" d="M24.48 72.14L17.21 73.87L17.21 57.02L23.76 57.02L23.76 51.05L17.21 51.05L17.21 34.06L25.49 34.06L25.49 27.94L3.38 27.94L3.38 34.06L11.09 34.06L11.09 51.05L4.25 51.05L4.25 57.02L11.09 57.02L11.09 75.31C7.85 75.96 4.90 76.61 2.38 77.11L3.60 83.38C9.79 81.94 17.71 79.99 25.20 78.12ZM40.68 23.11L34.78 23.11L34.78 49.82C33.12 46.44 31.03 42.62 29.02 39.46L24.05 41.33C26.93 46.22 30.24 52.78 31.68 56.95L34.78 55.51C34.63 67.39 32.62 77.47 21.10 84.53C22.46 85.46 24.41 87.84 25.27 89.21C38.95 80.86 40.68 68.33 40.68 53.86ZM58.32 80.57L58.32 59.62L66.46 59.62L66.46 53.57L58.32 53.57L58.32 33.91L67.46 33.91L67.46 27.79L42.55 27.79L42.55 33.91L51.98 33.91L51.98 53.57L43.63 53.57L43.63 59.62L51.98 59.62L51.98 80.57L38.95 80.57L38.95 86.76L68.83 86.76L68.83 80.57Z"/></svg>
