<svg xmlns="http://www.w3.org/2000/svg" xmlns:xlink="http://www.w3.org/1999/xlink" width="72.00000000000001" height="106.56000000000002"><path fill="red" stroke="red" d="M59.90 36.43L53.78 36.43L53.78 30.31L59.90 30.31ZM49.25 36.43L43.34 36.43L43.34 30.31L49.25 30.31ZM38.74 36.43L32.98 36.43L32.98 30.31L38.74 30.31ZM65.66 25.56L27.50 25.56L27.50 41.11L65.66 41.11ZM67.97 44.21L24.70 44.21L24.70 49.54L67.97 49.54ZM35.14 57.67L57.46 57.67L57.46 63.22L35.14 63.22ZM63.07 68.62C61.06 70.20 57.82 72.36 54.94 74.02C53.42 72.22 52.13 70.20 51.19 68.04L63.79 68.04L63.79 52.85L29.16 52.85L29.16 68.04L38.88 68.04C34.27 71.06 28.15 73.66 22.61 75.17L21.89 69.98C19.87 70.56 17.78 71.21 15.77 71.78L15.77 54.29L21.53 54.29L21.53 48.46L15.77 48.46L15.77 33.62L22.32 33.62L22.32 27.65L3.10 27.65L3.10 33.62L9.94 33.62L9.94 48.46L3.67 48.46L3.67 54.29L9.94 54.29L9.94 73.37C7.06 74.16 4.46 74.88 2.16 75.38L3.46 81.50C8.93 79.99 15.55 78.05 22.10 76.03C23.26 77.18 24.55 78.91 25.27 80.14C27.50 79.42 29.95 78.41 32.26 77.33L32.26 79.70C32.26 82.58 30.67 83.81 29.66 84.31C30.53 85.39 31.46 87.70 31.90 88.99L31.90 89.06C33.19 88.27 35.28 87.55 48.74 84.31C48.60 83.16 48.60 80.86 48.74 79.42L37.66 81.79L37.66 74.45C40.54 72.79 43.34 70.78 45.58 68.76C49.25 78.19 55.80 85.25 65.59 88.49C66.38 86.90 68.18 84.53 69.48 83.38C65.16 82.15 61.34 80.21 58.25 77.47C61.20 76.10 64.58 74.30 67.54 72.65Z"/></svg>
