<svg xmlns="http://www.w3.org/2000/svg" xmlns:xlink="http://www.w3.org/1999/xlink" width="72.00000000000001" height="106.56000000000002"><path fill="red" stroke="red" d="M24.41 55.08L47.74 55.08L47.74 60.12L24.41 60.12ZM47.74 35.78L47.74 40.32L24.41 40.32L24.41 35.78ZM24.41 45.36L47.74 45.36L47.74 50.04L24.41 50.04ZM67.97 65.81L67.97 60.12L54.58 60.12L54.58 35.78L66.46 35.78L66.46 30.24L54.58 30.24L54.58 23.18L47.74 23.18L47.74 30.24L24.41 30.24L24.41 23.18L17.71 23.18L17.71 30.24L5.33 30.24L5.33 35.78L17.71 35.78L17.71 60.12L3.82 60.12L3.82 65.81L10.22 65.81L10.22 78.41C10.22 86.04 13.68 88.63 23.47 88.63L52.56 88.63C57.53 88.63 63.36 88.49 65.45 87.98C65.16 86.54 64.87 84.02 64.66 82.08C61.92 82.58 55.80 82.87 51.84 82.87L22.90 82.87C18.07 82.87 16.92 81.58 16.92 78.55L16.92 65.81L28.37 65.81C27.29 71.28 24.05 74.52 18.00 76.61C19.37 77.54 21.89 79.85 22.75 80.86C29.30 77.90 33.26 73.37 34.56 65.81L42.12 65.81L42.12 70.92C42.12 76.39 43.49 78.41 49.25 78.41L57.74 78.41C59.62 78.41 61.70 78.34 62.78 77.98C62.57 76.61 62.42 74.38 62.28 72.79C61.06 73.15 58.90 73.22 57.53 73.22L49.54 73.22C48.10 73.22 47.88 72.72 47.88 70.99L47.88 65.81Z"/></svg>
