<svg xmlns="http://www.w3.org/2000/svg" xmlns:xlink="http://www.w3.org/1999/xlink" width="72.00000000000001" height="106.56000000000002"><path fill="red" stroke="red" d="M22.90 47.81C28.51 46.58 34.56 45.14 40.46 43.34C45.65 44.93 50.54 46.44 54.36 47.81ZM51.91 34.63C48.89 36.14 45.07 37.51 40.82 38.81C35.35 37.30 29.66 35.86 24.41 34.63ZM45.43 81.65L45.43 75.74L62.21 75.74L62.21 70.49L45.43 70.49L45.43 65.23L64.08 65.23L64.08 59.90L45.43 59.90L45.43 54.58L38.81 54.58L38.81 59.90L28.08 59.90C28.73 58.54 29.30 57.24 29.81 55.87L24.05 54.22C22.10 59.69 18.72 64.87 14.90 68.47C15.12 66.17 15.19 63.94 15.19 61.85L15.19 53.28L67.97 53.28L67.97 47.81L57.53 47.81L60.84 44.93C57.31 43.70 52.85 42.26 48.02 40.90C51.77 39.53 55.22 38.09 58.18 36.65L55.01 34.63L65.74 34.63L65.74 29.38L41.33 29.38C40.18 27.22 38.09 24.48 36.29 22.46L31.61 24.70C32.76 26.06 33.91 27.72 34.92 29.38L9.29 29.38L9.29 34.63L21.17 34.63L17.50 37.44C22.25 38.45 27.43 39.74 32.62 41.18C26.71 42.62 20.45 43.99 14.98 44.93C15.84 45.58 16.99 46.80 17.93 47.81L8.71 47.81L8.71 61.78C8.71 69.05 8.06 78.77 2.30 85.68C3.60 86.33 6.41 88.70 7.42 89.93C12.38 84.10 14.26 75.89 14.90 68.47C15.98 69.84 17.64 73.15 18.14 74.38C20.74 72.00 23.18 68.76 25.27 65.23L38.81 65.23L38.81 70.49L22.82 70.49L22.82 75.74L38.81 75.74L38.81 81.65L16.20 81.65L16.20 87.12L68.98 87.12L68.98 81.65Z"/></svg>
