<svg xmlns="http://www.w3.org/2000/svg" xmlns:xlink="http://www.w3.org/1999/xlink" width="72.00000000000001" height="106.56000000000002"><path fill="red" stroke="red" d="M16.49 54.72C16.56 53.06 16.56 51.48 16.56 49.97L16.56 46.30L32.47 46.30L32.47 54.72ZM32.47 32.54L32.47 40.82L16.56 40.82L16.56 32.54ZM56.38 40.82L38.95 40.82L38.95 32.54L56.38 32.54ZM38.95 54.72L38.95 46.30L56.38 46.30L56.38 54.72ZM44.06 81.29C39.60 81.29 38.95 80.57 38.95 76.61L38.95 60.41L56.38 60.41L56.38 65.95C56.38 67.10 55.94 67.39 54.79 67.46C53.64 67.46 49.54 67.54 45.65 67.32C46.51 68.98 47.52 71.71 47.74 73.37C53.50 73.44 57.38 73.37 59.83 72.29C62.28 71.35 63.07 69.62 63.07 66.02L63.07 26.86L9.94 26.86L9.94 49.97C9.94 60.77 9.29 75.38 2.23 85.54C3.82 86.18 6.70 88.13 7.92 89.28C13.39 81.43 15.48 70.34 16.20 60.41L32.47 60.41L32.47 76.61C32.47 85.18 34.85 87.34 43.56 87.34L59.04 87.34C66.17 87.34 68.26 84.46 69.12 75.89C67.32 75.53 64.73 74.52 63.22 73.44C62.71 79.78 62.06 81.29 58.46 81.29Z"/></svg>
