<svg xmlns="http://www.w3.org/2000/svg" xmlns:xlink="http://www.w3.org/1999/xlink" width="72.00000000000001" height="106.56000000000002"><path fill="red" stroke="red" d="M32.40 66.67L32.40 71.71L18.07 71.71L18.07 66.67ZM53.57 71.71L39.17 71.71L39.17 66.67L53.57 66.67ZM39.17 81.50L39.17 76.18L53.57 76.18L53.57 81.50ZM18.07 81.50L18.07 76.18L32.40 76.18L32.40 81.50ZM11.16 89.21L18.07 89.21L18.07 86.76L53.57 86.76L53.57 88.92L60.77 88.92L60.77 61.42L11.16 61.42ZM67.39 35.28L67.39 29.30L41.11 29.30C40.46 27.29 39.10 24.62 37.73 22.61L31.10 23.98C32.04 25.56 32.98 27.50 33.62 29.30L4.25 29.30L4.25 35.28L24.55 35.28C20.74 37.51 17.21 39.24 15.70 39.82C13.61 40.75 12.02 41.33 10.44 41.54C11.09 43.13 12.02 46.08 12.31 47.30C13.68 46.73 15.98 46.44 30.38 45.50C24.41 48.38 19.30 50.47 16.85 51.34C12.89 52.92 10.01 53.71 7.56 53.93C8.21 55.58 9.00 58.46 9.22 59.62C12.10 58.61 16.20 58.54 57.46 56.45C58.82 57.74 59.90 59.11 60.84 60.19L66.10 56.95C63.14 53.50 57.24 47.88 52.06 44.06L46.94 46.80C48.74 48.17 50.83 49.97 52.70 51.77L25.70 52.92C34.27 49.54 43.20 45.29 52.13 39.82L46.15 36.65C44.14 37.94 42.05 39.24 39.96 40.39L24.12 41.18C27.58 39.46 31.03 37.51 34.49 35.28Z"/></svg>
