<svg xmlns="http://www.w3.org/2000/svg" xmlns:xlink="http://www.w3.org/1999/xlink" width="72.00000000000001" height="106.56000000000002"><path fill="red" stroke="red" d="M29.88 69.12L21.24 71.64L21.24 57.38L29.30 57.38L29.30 51.48L21.24 51.48L21.24 41.69C24.26 38.88 27.43 35.50 30.02 32.26L30.02 36.79L40.32 36.79C37.87 40.25 35.71 42.84 34.70 43.99C32.54 46.37 30.96 47.95 29.30 48.31C30.02 50.04 31.18 53.21 31.46 54.50L31.46 54.58C33.62 53.78 36.94 53.57 62.06 52.20C63.14 53.93 64.01 55.44 64.51 56.81L69.98 54.00C67.90 49.75 63.29 43.34 59.04 38.81L54.00 41.18C55.37 42.84 56.88 44.64 58.25 46.58L39.31 47.38C42.26 44.28 45.22 40.61 48.02 36.79L68.69 36.79L68.69 30.96L52.06 30.96C53.06 29.38 54.07 27.79 55.08 26.21L48.53 23.62C47.23 26.06 45.86 28.66 44.35 30.96L30.96 30.96L31.68 30.02L27.43 26.93L26.14 27.36L4.61 27.36L4.61 33.26L21.31 33.26C19.51 35.57 17.28 37.94 15.34 39.60L15.34 73.37L11.45 74.38L11.45 44.78L6.12 44.78L6.12 75.89C4.68 76.25 3.38 76.61 2.16 76.90L3.67 83.38C11.16 81.00 21.31 77.98 30.82 75.02ZM34.20 65.52C34.20 72.07 33.19 79.49 24.48 84.96C25.92 85.90 27.94 87.91 28.94 89.21C38.66 82.73 39.89 73.73 39.89 65.74L39.89 56.66L34.20 56.66ZM45.43 86.40L51.05 86.40L51.05 56.95L45.43 56.95ZM63.43 82.73C62.50 82.73 62.42 82.08 62.42 79.99L62.42 56.52L56.66 56.52L56.66 79.92C56.66 85.46 57.74 87.70 63.00 87.70L66.67 87.70C67.90 87.70 69.26 87.62 70.13 87.34C69.98 85.97 69.84 83.81 69.70 82.37C68.90 82.66 67.54 82.73 66.67 82.73Z"/></svg>
