<svg xmlns="http://www.w3.org/2000/svg" xmlns:xlink="http://www.w3.org/1999/xlink" width="72.00000000000001" height="106.56000000000002"><path fill="red" stroke="red" d="M20.66 36.94L68.76 36.94L68.76 30.89L46.87 30.89C46.01 28.51 44.64 25.27 43.56 22.68L36.86 24.05C37.73 26.06 38.74 28.66 39.46 30.89L13.90 30.89L13.90 46.73C12.38 43.56 10.15 39.67 8.21 36.65L2.88 38.88C5.18 42.91 8.06 48.17 9.14 51.48L13.90 49.32L13.90 52.27C13.90 54.14 13.90 56.16 13.75 58.25C9.50 60.62 5.40 62.78 2.45 64.22L4.61 70.27C7.34 68.69 10.30 66.82 13.18 64.94C12.17 72.14 10.01 79.56 4.90 85.25C6.48 86.04 9.36 87.98 10.51 89.28C19.22 79.34 20.66 63.58 20.66 52.27ZM67.90 67.32L67.90 61.20L48.60 61.20C48.67 60.34 48.67 59.54 48.67 58.75L48.67 51.26L65.30 51.26L65.30 45.29L36.36 45.29C37.01 43.20 37.73 41.18 38.30 39.02L31.97 37.66C30.17 44.78 27.00 51.91 22.90 56.52C24.41 57.38 27.14 59.11 28.44 60.19C30.31 57.74 32.18 54.65 33.77 51.26L41.98 51.26L41.98 58.75C41.98 59.47 41.98 60.34 41.90 61.20L23.69 61.20L23.69 67.32L40.75 67.32C38.74 73.30 33.55 79.63 20.45 84.31C22.10 85.61 24.12 87.98 24.98 89.35C40.18 83.23 45.86 75.17 47.74 67.32ZM48.74 71.86C54.07 77.18 61.20 84.67 64.66 88.99L69.55 85.25C65.88 80.93 58.54 73.73 53.35 68.62Z"/></svg>
