<svg xmlns="http://www.w3.org/2000/svg" xmlns:xlink="http://www.w3.org/1999/xlink" width="72.00000000000001" height="106.56000000000002"><path fill="red" stroke="red" d="M12.10 49.46C11.66 45.86 9.72 40.03 7.56 35.64L2.66 37.58C4.68 42.12 6.41 48.10 6.84 51.77ZM18.86 34.99L68.47 34.99L68.47 29.30L43.42 29.30C42.34 27.07 40.61 24.41 38.88 22.39L33.34 24.98C34.20 26.28 35.21 27.79 36.07 29.30L12.67 29.30L12.67 52.27C12.67 54.07 12.67 55.87 12.60 57.74C8.42 59.90 4.61 61.99 1.80 63.14L3.82 69.12C6.55 67.61 9.29 65.95 12.02 64.30C11.16 71.50 9.00 78.91 3.82 84.74C5.11 85.46 7.56 87.91 8.50 89.14C17.42 79.27 18.86 63.50 18.86 52.27ZM35.57 61.42L40.46 61.42L40.46 68.18L35.57 68.18ZM49.18 68.18L44.21 68.18L44.21 61.42L49.18 61.42ZM47.74 75.02C48.31 76.18 49.03 77.54 49.68 78.91L44.86 79.42L44.86 72.50L53.50 72.50L53.50 57.10L44.86 57.10L44.86 52.56L53.93 52.56L53.93 47.95L31.54 47.95L31.54 52.56L39.82 52.56L39.82 57.10L31.46 57.10L31.46 72.50L39.82 72.50L39.82 79.85C35.50 80.14 31.61 80.50 28.44 80.71L29.09 86.11C35.35 85.46 43.56 84.60 51.70 83.74C52.27 85.18 52.78 86.62 53.14 87.70L57.17 86.11C56.16 82.94 53.78 77.69 51.48 73.73ZM23.54 39.82L23.54 55.51C23.54 64.37 22.90 76.25 16.70 84.82C17.93 85.46 20.16 87.41 21.02 88.49C27.65 79.20 28.87 65.23 28.87 55.58L28.87 44.86L56.16 44.86C56.30 73.22 56.52 88.20 64.44 88.20C68.26 88.20 69.34 85.32 69.84 77.26C68.76 76.39 67.25 74.81 66.24 73.44C66.17 78.48 65.81 82.58 64.87 82.58C61.56 82.58 61.63 65.59 61.85 39.82Z"/></svg>
