<svg xmlns="http://www.w3.org/2000/svg" xmlns:xlink="http://www.w3.org/1999/xlink" width="72.00000000000001" height="106.56000000000002"><path fill="red" stroke="red" d="M19.08 46.87L19.08 36.94L35.28 36.94L35.28 30.96L19.08 30.96L19.08 23.18L11.88 23.18L11.88 43.92C11.88 47.09 9.58 48.96 7.92 49.68C9.00 50.98 10.51 53.71 10.94 55.37C12.74 54.36 15.55 53.78 36.00 49.54C35.86 48.17 35.78 45.43 36.00 43.63ZM53.35 69.91L20.45 69.91L20.45 64.01L53.35 64.01ZM20.45 81.29L20.45 75.10L53.35 75.10L53.35 81.29ZM31.32 51.19C30.74 53.21 29.74 56.02 28.80 58.39L13.61 58.39L13.61 89.21L20.45 89.21L20.45 86.76L53.35 86.76L53.35 89.21L60.55 89.21L60.55 58.39L35.71 58.39C36.65 56.66 37.58 54.72 38.52 52.70ZM49.25 47.88C46.15 47.88 45.58 47.52 45.58 45.14L45.58 36.94L65.81 36.94L65.81 30.96L45.58 30.96L45.58 23.11L38.52 23.11L38.52 45.14C38.52 51.98 40.46 53.93 48.31 53.93L59.98 53.93C66.10 53.93 67.97 51.77 68.76 43.85C66.89 43.42 64.15 42.41 62.57 41.33C62.28 46.87 61.85 47.88 59.26 47.88Z"/></svg>
