<svg xmlns="http://www.w3.org/2000/svg" xmlns:xlink="http://www.w3.org/1999/xlink" width="72.00000000000001" height="106.56000000000002"><path fill="red" stroke="red" d="M63.43 23.76C54.94 25.99 39.10 27.07 26.42 27.36C27.00 28.66 27.72 30.82 27.86 32.04C40.61 32.04 56.88 31.03 66.82 28.51ZM51.98 41.76C51.26 39.31 49.54 35.42 48.10 32.54L42.77 33.98C44.21 36.94 45.79 40.97 46.44 43.42ZM40.61 61.27C39.82 65.02 38.66 68.40 37.30 71.35C35.78 69.91 33.70 68.18 31.68 66.67C32.69 65.02 33.55 63.14 34.27 61.27ZM10.80 71.64L10.80 62.42L18.29 62.42L18.29 71.64ZM18.29 47.74L18.29 56.74L10.80 56.74L10.80 47.74ZM18.29 33.19L18.29 42.05L10.80 42.05L10.80 33.19ZM42.19 56.30L36.07 56.30C36.50 54.86 36.94 53.35 37.30 51.91L32.47 50.90L32.47 48.89L62.14 48.89L62.14 54.07L68.04 54.07L68.04 43.63L60.12 43.63C62.06 40.82 64.37 37.08 66.46 33.84L60.77 31.68C59.33 35.14 56.59 40.25 54.43 43.42L54.94 43.63L34.63 43.63L39.24 41.90C38.30 39.74 36.36 36.14 34.78 33.55L29.66 35.06C31.10 37.73 32.90 41.40 33.77 43.63L26.71 43.63L26.71 54.07L31.25 54.07C29.66 59.90 27.14 65.23 23.69 68.98L23.69 27.36L5.33 27.36L5.33 83.59L10.80 83.59L10.80 77.62L23.69 77.62L23.69 69.26C24.77 70.34 26.28 72.65 26.86 73.66C27.72 72.79 28.44 71.78 29.23 70.70C31.25 72.36 33.41 74.23 34.78 75.82C31.97 80.06 28.37 83.16 24.12 85.18C25.20 86.18 26.57 88.06 27.22 89.35C37.30 84.02 43.92 74.09 46.22 56.88L43.13 56.16ZM51.41 71.93C51.62 68.83 51.77 65.38 51.98 62.21L56.38 62.21L56.38 71.93ZM68.62 71.93L61.63 71.93L61.63 62.21L67.75 62.21L67.75 56.95L61.63 56.95L61.63 51.70L56.38 51.70L56.38 56.95L46.58 56.95L46.58 62.21L47.74 62.21C47.45 67.18 47.02 73.15 46.58 77.11L56.38 77.11L56.38 89.06L61.63 89.06L61.63 77.11L68.62 77.11Z"/></svg>
