<svg xmlns="http://www.w3.org/2000/svg" xmlns:xlink="http://www.w3.org/1999/xlink" width="72.00000000000001" height="106.56000000000002"><path fill="red" stroke="red" d="M21.02 73.51L14.11 73.51L14.11 53.71L21.02 53.71ZM3.60 32.76L12.38 32.76C10.44 42.98 7.20 52.56 2.30 58.97C3.24 60.84 4.61 64.80 4.97 66.53C6.19 65.02 7.34 63.43 8.42 61.63L8.42 84.96L14.11 84.96L14.11 79.42L26.71 79.42L26.71 47.81L14.83 47.81C16.42 42.98 17.78 37.94 18.86 32.76L28.22 32.76L28.22 26.71L3.60 26.71ZM51.91 62.71L51.91 54.14L61.13 54.14L61.13 62.71ZM37.01 54.14L46.01 54.14L46.01 62.71L37.01 62.71ZM46.01 39.82L46.01 48.31L37.01 48.31L37.01 39.82ZM61.13 48.31L51.91 48.31L51.91 39.82L61.13 39.82ZM52.20 33.91L52.20 23.11L45.79 23.11L45.79 33.91L31.03 33.91L31.03 72.07L37.01 72.07L37.01 68.62L45.79 68.62L45.79 89.14L52.13 89.14L52.13 68.62L61.13 68.62L61.13 71.28L67.39 71.28L67.39 33.91Z"/></svg>
