<svg xmlns="http://www.w3.org/2000/svg" xmlns:xlink="http://www.w3.org/1999/xlink" width="72.00000000000001" height="106.56000000000002"><path fill="red" stroke="red" d="M62.06 24.98C60.55 29.16 57.53 34.92 55.30 38.59L60.91 40.82C63.22 37.30 66.02 32.11 68.33 27.36ZM41.83 38.38C40.82 34.78 37.80 29.38 34.92 25.34L29.45 28.01C32.26 32.04 35.14 37.73 36.07 41.33ZM21.53 74.45L14.11 74.45L14.11 54.58L21.53 54.58ZM27.22 80.35L27.22 48.67L14.40 48.67C16.06 43.63 17.50 38.23 18.65 32.76L28.58 32.76L28.58 26.71L3.96 26.71L3.96 32.76L12.31 32.76C10.37 42.98 7.27 52.56 2.52 58.97C3.46 60.77 4.82 64.80 5.18 66.53C6.41 65.02 7.49 63.36 8.57 61.56L8.57 85.90L14.11 85.90L14.11 80.35ZM37.44 57.31C43.34 58.75 50.90 61.49 54.79 63.72L57.60 59.04C53.64 56.88 46.01 54.36 40.10 53.14ZM36.86 49.18L59.40 49.18L59.40 64.44C51.05 66.38 42.62 68.26 36.72 69.48C36.86 67.54 36.86 65.81 36.86 64.08ZM65.74 43.34L51.84 43.34L51.84 23.11L45.43 23.11L45.43 43.34L30.67 43.34L30.67 64.01C30.67 70.99 30.38 79.63 26.93 85.82C28.37 86.54 31.10 88.49 32.18 89.64C35.21 84.46 36.29 77.18 36.72 70.56L38.38 75.17C44.35 73.73 51.98 71.86 59.40 69.91L59.40 81.36C59.40 82.37 59.04 82.73 57.96 82.73C56.88 82.80 53.28 82.80 49.61 82.66C50.33 84.31 51.26 87.19 51.48 88.85C56.88 88.85 60.48 88.85 62.71 87.77C65.02 86.76 65.74 84.82 65.74 81.50Z"/></svg>
