<svg xmlns="http://www.w3.org/2000/svg" xmlns:xlink="http://www.w3.org/1999/xlink" width="72.00000000000001" height="106.56000000000002"><path fill="red" stroke="red" d="M67.32 30.82L52.92 30.82C52.34 28.66 51.05 25.34 49.90 22.90L43.85 24.34C44.71 26.28 45.65 28.80 46.15 30.82L30.02 30.82L30.02 36.79L67.32 36.79ZM20.88 74.45L13.82 74.45L13.82 54.58L20.88 54.58ZM3.60 32.76L12.10 32.76C10.15 42.91 6.98 52.42 2.30 58.82C3.24 60.62 4.61 64.66 4.97 66.38C6.19 64.87 7.20 63.29 8.28 61.49L8.28 85.90L13.82 85.90L13.82 80.35L26.42 80.35L26.42 48.67L14.11 48.67C15.91 43.63 17.28 38.23 18.36 32.76L27.94 32.76L27.94 26.71L3.60 26.71ZM47.81 53.57C46.37 51.70 43.34 48.82 40.82 46.66C41.54 44.28 42.26 41.83 42.77 39.38L37.08 38.30C35.50 46.44 32.47 54.00 28.08 58.90C29.45 59.69 31.90 61.34 32.90 62.35C35.14 59.54 37.22 55.94 38.88 51.91C40.75 53.78 42.62 55.87 43.70 57.31ZM68.90 65.52L51.91 65.52L51.91 60.41L51.84 60.41C53.57 58.18 55.08 55.44 56.52 52.42C59.26 55.15 62.06 58.25 63.58 60.41L67.61 56.02C65.74 53.50 61.99 49.82 58.75 46.94C59.54 44.50 60.34 42.05 60.84 39.60L55.08 38.45C53.50 46.01 50.40 53.21 46.30 58.03C47.30 58.61 49.03 59.62 50.26 60.41L45.43 60.41L45.43 65.52L29.23 65.52L29.23 71.64L45.43 71.64L45.43 89.21L51.91 89.21L51.91 71.64L68.90 71.64Z"/></svg>
