<svg xmlns="http://www.w3.org/2000/svg" xmlns:xlink="http://www.w3.org/1999/xlink" width="72.00000000000001" height="106.56000000000002"><path fill="red" stroke="red" d="M19.44 74.45L13.32 74.45L13.32 54.58L19.44 54.58ZM26.71 32.76L26.71 26.71L3.31 26.71L3.31 32.76L11.30 32.76C9.43 42.98 6.48 52.56 1.80 58.97C2.74 60.77 4.10 64.80 4.46 66.60C5.69 65.09 6.70 63.43 7.78 61.63L7.78 85.90L13.32 85.90L13.32 80.35L24.84 80.35L24.84 48.67L13.46 48.67C15.19 43.63 16.49 38.16 17.57 32.76ZM38.81 72.79C36.00 77.47 31.39 82.15 26.71 85.25C28.22 86.11 30.74 88.13 31.97 89.21C36.58 85.68 41.69 80.14 45.00 74.74ZM51.48 75.74C55.73 79.78 60.84 85.61 63.14 89.21L68.76 85.97C66.24 82.37 60.98 76.82 56.81 72.94ZM35.57 55.58L40.61 55.58L40.61 66.60L35.57 66.60ZM40.61 39.67L40.61 49.97L35.57 49.97L35.57 39.67ZM60.19 49.97L55.08 49.97L55.08 39.67L60.19 39.67ZM55.08 55.58L60.19 55.58L60.19 66.60L55.08 66.60ZM50.26 55.58L50.26 66.60L45.43 66.60L45.43 55.58ZM50.26 39.67L50.26 49.97L45.43 49.97L45.43 39.67ZM65.95 66.60L65.95 33.84L56.02 33.84L56.02 23.18L50.26 23.18L50.26 33.84L45.43 33.84L45.43 23.33L39.67 23.33L39.67 33.84L30.10 33.84L30.10 66.60L26.78 66.60L26.78 72.43L68.98 72.43L68.98 66.60Z"/></svg>
