<svg xmlns="http://www.w3.org/2000/svg" xmlns:xlink="http://www.w3.org/1999/xlink" width="72.00000000000001" height="106.56000000000002"><path fill="red" stroke="red" d="M40.10 55.08C42.26 52.42 44.64 49.10 46.73 46.30L56.81 46.30L52.56 48.74C54.22 50.54 56.09 52.56 57.67 54.58ZM68.04 59.54C66.10 55.73 61.42 50.26 57.38 46.30L68.33 46.30L68.33 40.46L51.55 40.46L51.55 35.14L64.73 35.14L64.73 29.52L51.55 29.52L51.55 23.18L45.14 23.18L45.14 29.52L32.26 29.52L32.26 35.14L45.14 35.14L45.14 40.46L28.37 40.46L28.37 46.30L39.53 46.30C37.58 49.03 35.06 52.27 33.98 53.35C32.76 54.50 30.38 55.08 28.87 55.37C29.45 56.81 30.53 59.90 30.82 61.42C32.76 60.77 35.86 60.55 61.34 59.54C62.06 60.70 62.71 61.63 63.14 62.57ZM20.45 74.45L13.82 74.45L13.82 54.58L20.45 54.58ZM28.22 32.76L28.22 26.71L3.82 26.71L3.82 32.76L12.10 32.76C10.15 42.98 6.98 52.56 2.23 58.97C3.17 60.84 4.61 64.87 4.90 66.53C6.12 65.09 7.20 63.43 8.28 61.70L8.28 85.90L13.82 85.90L13.82 80.35L26.06 80.35L26.06 48.67L14.11 48.67C15.91 43.63 17.28 38.23 18.36 32.76ZM36.50 69.34L41.18 69.34L41.18 81.86L36.50 81.86ZM50.47 69.34L50.47 81.86L45.65 81.86L45.65 69.34ZM59.76 69.34L59.76 81.86L54.94 81.86L54.94 69.34ZM65.38 81.86L65.38 64.08L31.10 64.08L31.10 81.86L26.50 81.86L26.50 87.70L68.90 87.70L68.90 81.86Z"/></svg>
