<svg xmlns="http://www.w3.org/2000/svg" xmlns:xlink="http://www.w3.org/1999/xlink" width="72.00000000000001" height="106.56000000000002"><path fill="red" stroke="red" d="M48.53 42.19L43.56 42.19L43.56 35.35L48.53 35.35ZM48.53 53.42L43.56 53.42L43.56 46.51L48.53 46.51ZM52.85 41.11C53.42 42.48 54.00 44.35 54.29 45.22C55.01 44.78 56.16 44.50 60.12 43.92C58.39 47.30 56.74 49.90 56.02 50.98C54.94 52.70 53.86 54.00 52.85 54.43ZM58.97 53.86C60.19 52.06 61.49 50.11 62.71 48.10C63.29 49.68 63.86 51.48 64.30 53.21ZM52.85 55.44C53.35 56.59 53.93 58.32 54.07 59.11C55.08 58.54 56.66 58.10 65.30 56.88C65.59 58.25 65.88 59.47 66.10 60.48L69.70 59.18C69.05 55.87 67.54 50.83 66.17 46.94L62.86 48.02C64.94 44.35 67.03 40.46 68.69 36.65L64.30 34.34C63.72 36.14 63.00 37.80 62.28 39.53L58.90 39.89C61.06 35.64 63.29 30.31 64.66 25.34L59.90 23.54C58.75 29.45 56.02 36.00 55.15 37.58C54.50 39.17 53.71 40.25 52.85 40.54L52.85 30.82L46.87 30.82C47.52 28.80 48.38 26.28 49.18 24.05L43.49 23.04C43.27 25.27 42.62 28.37 42.05 30.82L39.31 30.82L39.31 58.03L52.85 58.03ZM39.53 59.62C39.02 56.23 37.87 51.41 36.79 47.52L33.70 48.24C34.06 49.68 34.34 51.19 34.70 52.70L29.88 53.42C33.34 48.60 36.72 42.62 39.24 36.86L34.92 34.63C34.34 36.29 33.77 37.87 33.05 39.53L29.45 39.96C31.61 35.57 33.77 30.10 35.06 25.06L30.31 23.11C29.30 29.16 26.78 35.78 26.06 37.44C25.27 39.17 24.48 40.39 23.69 40.54C24.19 41.83 25.06 44.35 25.27 45.29C25.99 44.86 27.22 44.57 30.96 43.99C29.23 47.38 27.58 50.11 26.93 51.19C25.63 53.06 24.55 54.43 23.54 54.65C24.05 55.80 24.77 58.25 24.98 59.18C25.99 58.61 27.58 58.03 35.57 56.74C35.86 58.10 36.07 59.40 36.22 60.41ZM17.71 74.95L12.74 74.95L12.74 53.71L17.71 53.71ZM22.54 80.28L22.54 48.46L13.10 48.46C14.33 43.34 15.26 37.87 16.06 32.33L23.90 32.33L23.90 26.93L3.24 26.93L3.24 32.33L10.37 32.33C9.07 44.06 6.62 55.08 2.02 62.42C2.95 64.01 4.32 67.39 4.75 68.90C5.90 67.32 6.84 65.52 7.78 63.65L7.78 85.90L12.74 85.90L12.74 80.28ZM37.22 70.42C33.98 75.24 27.50 80.06 21.60 82.44C23.04 83.59 24.84 85.68 25.78 87.19C31.90 84.17 38.38 78.26 41.98 72.22ZM68.26 68.90L68.26 63.36L49.25 63.36L49.25 59.11L43.34 59.11L43.34 63.36L25.20 63.36L25.20 68.90L43.34 68.90L43.34 89.06L49.25 89.06L49.25 68.90ZM50.83 74.02C55.80 78.19 62.21 84.02 65.23 87.62L69.05 83.59C65.88 80.14 59.40 74.52 54.43 70.56Z"/></svg>
