<svg xmlns="http://www.w3.org/2000/svg" xmlns:xlink="http://www.w3.org/1999/xlink" width="72.00000000000001" height="106.56000000000002"><path fill="red" stroke="red" d="M61.34 28.01L11.09 28.01L11.09 34.63L61.34 34.63ZM15.77 58.61C12.89 66.38 7.99 74.16 2.45 78.98C4.25 79.92 7.27 81.94 8.78 83.16C14.04 77.76 19.51 69.12 22.90 60.48ZM67.68 51.84L67.68 45.22L4.54 45.22L4.54 51.84L32.18 51.84L32.18 88.92L39.24 88.92L39.24 51.84ZM49.82 60.91C54.86 67.68 60.05 76.97 61.85 82.80L68.83 79.78C66.67 73.73 61.20 64.80 56.09 58.18Z"/></svg>
