<svg xmlns="http://www.w3.org/2000/svg" xmlns:xlink="http://www.w3.org/1999/xlink" width="72.00000000000001" height="106.56000000000002"><path fill="red" stroke="red" d="M40.46 35.93L30.82 35.93L30.82 31.18L40.46 31.18ZM56.52 40.90L56.52 47.81L46.80 47.81L46.80 40.90ZM30.82 40.90L40.46 40.90L40.46 47.81L30.82 47.81ZM15.41 40.90L24.62 40.90L24.62 47.81L15.41 47.81ZM24.62 35.93L9.14 35.93L9.14 52.85L63.14 52.85L63.14 35.93L46.80 35.93L46.80 31.18L66.74 31.18L66.74 25.78L4.97 25.78L4.97 31.18L24.62 31.18ZM59.47 61.99L59.47 56.74L12.67 56.74L12.67 61.99ZM18.94 72.65C15.41 76.82 9.36 80.86 3.60 83.45C4.97 84.46 7.42 86.76 8.57 87.84C14.33 84.82 20.95 79.92 25.13 74.81ZM45.79 76.32C51.62 79.56 58.90 84.46 62.35 87.70L67.61 83.81C63.72 80.50 56.38 75.89 50.69 72.86ZM4.03 66.02L4.03 71.42L32.62 71.42L32.62 89.28L39.24 89.28L39.24 71.42L68.11 71.42L68.11 66.02Z"/></svg>
