<svg xmlns="http://www.w3.org/2000/svg" xmlns:xlink="http://www.w3.org/1999/xlink" width="72.00000000000001" height="106.56000000000002"><path fill="red" stroke="red" d="M28.66 60.70C31.39 63.58 34.49 67.25 36.00 69.55L40.82 66.17C39.10 63.72 35.57 59.98 32.76 57.24L28.22 60.19C26.57 58.46 22.54 54.58 20.23 52.49C23.40 47.81 26.14 42.70 28.01 37.44L24.55 34.99L23.33 35.28L16.56 35.28L20.95 32.33C19.73 29.81 17.21 26.06 14.76 23.40L9.72 26.50C11.81 29.09 14.11 32.69 15.26 35.28L4.46 35.28L4.46 41.47L19.80 41.47C15.70 49.68 8.93 57.46 2.09 61.92C3.02 63.22 4.39 66.74 4.90 68.69C7.70 66.74 10.44 64.22 13.10 61.34L13.10 89.14L19.37 89.14L19.37 59.54C21.31 61.85 23.40 64.44 24.55 66.17ZM38.95 39.96C39.38 38.23 39.89 36.29 40.39 34.42L54.58 34.42C54.29 36.07 53.86 38.02 53.50 39.96ZM49.75 55.44L69.12 55.44L69.12 49.61L57.74 49.61C59.18 43.20 60.77 35.64 61.70 29.59L57.10 28.94L56.02 29.23L41.76 29.23C42.12 27.36 42.55 25.49 42.98 23.76L36.72 23.04C35.28 30.10 32.90 39.38 31.03 45.14L52.34 45.14C52.06 46.73 51.70 48.17 51.41 49.61L27.00 49.61L27.00 55.44L43.63 55.44L43.63 66.67C36.72 71.57 29.52 76.54 24.84 79.49L28.51 84.60C32.98 81.29 38.38 77.18 43.63 73.01L43.63 82.51C43.63 83.23 43.42 83.45 42.55 83.52C41.76 83.52 39.17 83.52 36.50 83.45C37.37 85.03 38.23 87.55 38.45 89.21C42.41 89.21 45.29 89.06 47.30 88.13C49.25 87.26 49.75 85.61 49.75 82.58L49.75 72.43C55.73 76.39 62.06 80.86 65.59 83.95L69.12 78.98C66.24 76.68 61.70 73.58 56.88 70.56C59.54 67.75 62.71 64.08 65.59 60.62L60.19 57.38C58.39 60.62 55.22 64.94 52.70 67.82L49.75 66.10Z"/></svg>
