<svg xmlns="http://www.w3.org/2000/svg" xmlns:xlink="http://www.w3.org/1999/xlink" width="72.00000000000001" height="106.56000000000002"><path fill="red" stroke="red" d="M26.14 75.10C21.46 78.84 12.46 82.15 4.61 83.52C6.05 84.82 7.85 87.19 8.78 88.78C16.85 86.76 26.06 82.30 31.25 77.33ZM40.82 78.12C47.74 81.36 57.10 86.11 61.78 89.06L65.23 84.67C60.26 81.79 50.83 77.18 44.14 74.23ZM68.18 53.57L68.18 48.17L30.67 48.17C31.54 46.80 32.33 45.29 33.12 43.85L61.20 43.85L61.20 38.74L35.50 38.74C36.07 37.30 36.58 36.00 37.08 34.56L64.73 34.56L64.73 29.23L38.66 29.23C39.17 27.43 39.53 25.63 39.89 23.90L33.12 23.18C32.76 25.13 32.33 27.22 31.82 29.23L7.85 29.23L7.85 34.56L30.17 34.56C29.59 36.00 29.02 37.30 28.37 38.74L11.59 38.74L11.59 43.85L25.78 43.85C24.84 45.29 23.90 46.80 22.90 48.17L3.89 48.17L3.89 53.57L18.43 53.57C14.04 58.25 8.71 62.35 2.16 65.74C3.60 66.82 5.54 69.19 6.26 70.92C11.88 67.97 16.70 64.44 20.66 60.55C21.17 61.63 21.53 63.00 21.67 64.01C25.13 63.86 28.87 63.65 32.62 63.36L32.62 67.75L13.25 67.75L13.25 73.15L32.62 73.15L32.62 89.14L39.17 89.14L39.17 73.15L58.82 73.15L58.82 67.75L39.17 67.75L39.17 62.64C42.70 62.14 46.08 61.63 48.96 61.06L45.72 56.16C39.89 57.46 30.60 58.54 22.10 59.11C23.83 57.31 25.42 55.51 26.93 53.57L45.14 53.57C49.90 60.34 57.74 66.67 65.02 70.56C66.10 68.98 68.04 66.74 69.77 65.52C63.43 62.86 57.17 58.54 52.63 53.57Z"/></svg>
