<svg xmlns="http://www.w3.org/2000/svg" xmlns:xlink="http://www.w3.org/1999/xlink" width="72.00000000000001" height="106.56000000000002"><path fill="red" stroke="red" d="M67.75 57.74L28.01 57.74L28.01 60.05C26.50 58.32 21.46 52.70 19.73 51.19L19.73 49.75L28.66 49.75L28.66 43.49L19.73 43.49L19.73 31.90C22.61 31.18 25.42 30.46 27.79 29.52L23.76 24.12C18.72 26.21 10.58 28.01 3.46 29.09C4.18 30.67 5.04 32.90 5.26 34.42C7.92 34.13 10.73 33.70 13.54 33.19L13.54 43.49L3.74 43.49L3.74 49.75L12.46 49.75C10.01 57.24 5.83 65.66 1.94 70.49C3.02 72.29 4.68 75.10 5.26 77.04C8.21 73.08 11.16 67.18 13.54 60.98L13.54 89.35L19.73 89.35L19.73 58.18C21.53 60.84 23.33 63.86 24.19 65.66L28.01 60.48L28.01 89.21L34.06 89.21L34.06 63.22L61.70 63.22L61.70 83.16C61.70 83.81 61.42 84.02 60.77 84.02C60.12 84.10 58.03 84.10 55.80 84.02C56.52 85.54 57.24 87.70 57.46 89.28C61.27 89.28 63.79 89.28 65.59 88.34C67.32 87.41 67.75 85.97 67.75 83.23ZM52.49 77.04L43.06 77.04L43.06 71.35L52.49 71.35ZM57.67 66.74L38.16 66.74L38.16 81.72L57.67 81.72ZM57.17 49.61L38.23 49.61L38.23 44.14L57.17 44.14ZM63.43 39.38L32.40 39.38L32.40 54.29L63.43 54.29ZM51.84 30.38C51.12 28.08 49.75 25.06 48.46 22.75L42.12 24.48C42.98 26.28 43.85 28.44 44.57 30.38L27.58 30.38L27.58 36.07L68.62 36.07L68.62 30.38Z"/></svg>
