<svg xmlns="http://www.w3.org/2000/svg" xmlns:xlink="http://www.w3.org/1999/xlink" width="72.00000000000001" height="106.56000000000002"><path fill="red" stroke="red" d="M36.86 41.62L59.62 41.62L59.62 46.01L36.86 46.01ZM36.86 33.19L59.62 33.19L59.62 37.44L36.86 37.44ZM45.22 63.07C40.75 64.80 35.64 66.02 30.89 66.46C31.97 67.68 33.12 69.70 33.77 71.06C43.42 69.41 54.07 65.02 59.54 59.76L55.66 57.17C54.50 58.25 53.14 59.26 51.41 60.19L51.41 50.33L65.95 50.33L65.95 28.87L49.03 28.87C50.04 27.43 51.12 25.92 52.13 24.26L44.78 23.04C44.14 24.70 43.06 26.93 41.98 28.87L30.74 28.87L30.74 50.33L45.22 50.33ZM56.09 53.50C59.40 56.30 63.22 60.34 64.80 63.00L69.55 59.90C67.75 57.17 63.79 53.28 60.48 50.69ZM59.40 64.01C53.64 69.70 41.26 74.38 29.81 75.67C30.96 76.82 32.11 78.84 32.62 80.28C44.21 78.34 56.88 73.08 63.29 66.67ZM36.00 51.70C34.20 55.08 31.03 58.46 27.65 60.91C29.02 61.63 31.39 63.29 32.40 64.30C35.71 61.63 39.38 57.31 41.54 53.21ZM28.73 63.22C27.50 61.27 21.96 53.64 19.94 51.12L19.94 49.68L28.30 49.68L28.30 43.49L19.94 43.49L19.94 31.61C22.75 30.89 25.42 30.02 27.79 29.02L23.69 23.62C18.94 25.92 11.30 27.94 4.61 29.30C5.26 30.82 6.12 32.98 6.48 34.49C8.78 34.13 11.30 33.70 13.75 33.12L13.75 43.49L4.18 43.49L4.18 49.68L12.74 49.68C10.37 57.24 6.26 65.81 2.38 70.78C3.53 72.58 5.11 75.46 5.76 77.33C8.57 73.44 11.45 67.61 13.75 61.42L13.75 89.28L19.94 89.28L19.94 59.26C21.74 62.71 23.69 66.53 24.62 68.90ZM64.22 71.50C57.10 78.19 41.62 83.30 27.07 84.46C28.15 85.82 29.23 87.77 29.74 89.28C44.42 87.41 60.26 81.72 68.11 74.38Z"/></svg>
