<svg xmlns="http://www.w3.org/2000/svg" xmlns:xlink="http://www.w3.org/1999/xlink" width="72.00000000000001" height="106.56000000000002"><path fill="red" stroke="red" d="M29.81 61.92C28.51 60.34 23.04 54.65 20.66 52.56L20.66 49.03L28.37 49.03L28.37 45.94L68.83 45.94L68.83 41.54L51.55 41.54L51.55 38.38L65.45 38.38L65.45 34.20L51.55 34.20L51.55 31.10L67.18 31.10L67.18 26.78L51.55 26.78L51.55 23.11L44.86 23.11L44.86 26.78L30.17 26.78L30.17 31.10L44.86 31.10L44.86 34.20L31.61 34.20L31.61 38.38L44.86 38.38L44.86 41.54L27.94 41.54L27.94 42.77L20.66 42.77L20.66 31.82C23.90 31.03 26.93 30.17 29.52 29.16L24.91 24.05C19.80 26.21 10.87 28.22 3.17 29.30C3.96 30.74 4.82 32.98 5.11 34.49C7.99 34.13 11.09 33.70 14.18 33.12L14.18 42.77L3.82 42.77L3.82 49.03L13.68 49.03C10.94 56.74 6.34 65.52 1.94 70.56C3.02 72.14 4.54 74.88 5.26 76.75C8.35 72.79 11.52 66.82 14.18 60.48L14.18 89.06L20.66 89.06L20.66 59.40C22.75 62.21 24.91 65.30 25.92 67.18ZM58.75 57.24L38.66 57.24L38.66 53.35L58.75 53.35ZM58.75 65.30L38.66 65.30L38.66 61.34L58.75 61.34ZM58.75 73.37L38.66 73.37L38.66 69.41L58.75 69.41ZM65.02 49.03L32.62 49.03L32.62 77.69L40.25 77.69C36.79 80.50 30.24 83.59 24.62 85.18C25.99 86.33 27.86 88.20 28.87 89.50C34.63 87.70 41.69 84.24 46.01 80.86L41.04 77.69L65.02 77.69ZM51.55 80.93C55.94 83.66 60.98 87.12 63.79 89.28L69.62 86.04C66.31 83.81 60.77 80.42 56.02 77.69Z"/></svg>
