<svg xmlns="http://www.w3.org/2000/svg" xmlns:xlink="http://www.w3.org/1999/xlink" width="72.00000000000001" height="106.56000000000002"><path fill="red" stroke="red" d="M10.94 25.49C12.46 28.80 14.40 33.26 15.12 36.07L21.17 33.98C20.23 31.25 18.36 27.00 16.56 23.76ZM28.08 36.14L4.03 36.14L4.03 42.34L28.08 42.34ZM14.47 69.98C14.11 63.14 12.82 53.21 11.16 45.29L6.05 46.37C7.42 54.14 8.78 64.30 9.00 71.14ZM22.03 71.57C23.54 64.30 25.13 54.14 26.28 46.01L20.23 44.93C19.58 53.35 18.14 65.30 16.63 72.79C11.74 74.02 7.13 75.10 3.53 75.82L4.90 82.44C11.74 80.64 20.74 78.41 29.16 76.18L28.51 69.91ZM48.53 61.85C47.52 66.60 44.57 71.57 40.18 74.30C41.04 75.17 42.48 76.82 43.13 77.90C45.72 76.32 47.88 73.94 49.61 71.28C51.98 73.44 54.43 76.03 55.80 77.76L59.04 74.45C57.46 72.50 54.29 69.70 51.62 67.39C52.34 65.81 52.85 64.22 53.28 62.71ZM40.54 78.55C38.74 78.55 38.38 77.90 38.38 75.89L38.38 63.50L37.22 63.50C37.87 62.86 38.45 62.06 39.02 61.27L62.78 61.27C62.14 75.38 61.27 80.93 60.12 82.37C59.54 83.09 58.97 83.23 57.89 83.23C57.74 81.86 57.53 79.63 57.38 78.12C56.16 78.48 53.64 78.55 52.13 78.55ZM39.74 41.11L59.26 41.11L59.26 46.22L39.74 46.22ZM39.74 31.39L59.26 31.39L59.26 36.29L39.74 36.29ZM42.70 55.66C43.56 54.29 44.42 52.78 45.14 51.34L65.02 51.34L65.02 26.35L34.27 26.35L34.27 51.34L38.38 51.34C35.28 56.95 30.67 62.28 25.99 65.88C27.14 67.18 29.02 70.13 29.81 71.50C30.96 70.49 31.97 69.48 33.12 68.33L33.12 75.74C33.12 81.86 34.70 83.88 40.68 83.88L51.62 83.88C52.27 85.39 52.63 87.48 52.78 88.99C55.87 89.14 58.90 89.14 60.62 88.92C62.50 88.70 63.79 88.06 64.94 86.47C66.89 84.10 67.75 76.97 68.62 58.32C68.69 57.46 68.76 55.66 68.76 55.66Z"/></svg>
