<svg xmlns="http://www.w3.org/2000/svg" xmlns:xlink="http://www.w3.org/1999/xlink" width="72.00000000000001" height="106.56000000000002"><path fill="red" stroke="red" d="M34.56 35.71L34.56 30.02L17.64 30.02C18.36 28.15 18.94 26.21 19.44 24.26L12.96 22.68C10.94 30.67 7.34 38.59 2.81 43.70C4.39 44.57 7.20 46.30 8.50 47.38C11.02 44.28 13.32 40.25 15.34 35.71ZM16.42 39.24C19.30 42.05 22.97 46.01 24.62 48.60L29.95 45.36C28.01 42.84 24.26 39.02 21.38 36.43ZM55.87 57.38L55.87 65.59L39.67 65.59L39.67 57.38ZM39.67 80.06L39.67 71.28L55.87 71.28L55.87 80.06ZM16.78 71.28L32.98 71.28L32.98 80.06L16.78 80.06ZM32.98 57.38L32.98 65.59L16.78 65.59L16.78 57.38ZM67.46 30.02L45.86 30.02C46.66 28.15 47.38 26.21 47.95 24.26L41.54 22.75C39.53 29.88 35.78 36.79 31.18 41.18C32.62 41.83 34.92 43.42 36.36 44.50L32.98 44.50L32.98 51.48L10.30 51.48L10.30 89.21L16.78 89.21L16.78 86.04L55.87 86.04L55.87 88.85L62.57 88.85L62.57 51.48L39.67 51.48L39.67 44.50L37.15 44.50C39.24 42.05 41.33 39.10 43.13 35.71L67.46 35.71ZM45.72 39.38C49.32 42.12 53.93 46.08 56.02 48.67L60.98 45.07C58.68 42.48 54.00 38.66 50.47 36.07Z"/></svg>
