<svg xmlns="http://www.w3.org/2000/svg" xmlns:xlink="http://www.w3.org/1999/xlink" width="72.00000000000001" height="106.56000000000002"><path fill="red" stroke="red" d="M20.30 33.70L17.78 35.86C20.30 38.09 23.54 41.26 24.98 43.20L29.30 39.31C27.94 37.73 25.63 35.57 23.47 33.70L35.35 33.70L35.35 28.01L17.93 28.01C18.65 26.71 19.22 25.56 19.80 24.26L13.82 22.54C11.52 28.15 7.42 33.77 2.95 37.37C4.39 38.45 6.55 40.82 7.56 41.98C9.94 39.82 12.38 36.86 14.47 33.70ZM53.71 62.06L46.80 62.06L46.80 66.46L4.32 66.46L4.32 71.93L20.45 71.93L16.06 75.17C20.02 78.48 25.13 83.23 27.50 86.04L32.54 82.08C29.95 79.34 24.84 74.95 21.02 71.93L46.80 71.93L46.80 82.44C46.80 83.45 46.44 83.74 45.22 83.81C44.14 83.88 39.67 83.95 35.42 83.74C36.14 85.32 36.94 87.48 37.22 89.21C43.27 89.21 47.45 89.21 50.18 88.42C52.85 87.70 53.71 86.11 53.71 82.73L53.71 71.93L67.61 71.93L67.61 66.46L53.71 66.46ZM48.24 28.01C48.74 26.71 49.18 25.42 49.61 24.05L43.49 22.61C41.69 28.58 38.45 34.56 34.56 38.38C35.21 38.81 36.14 39.46 37.01 40.18L32.47 40.18L32.47 44.21L6.84 44.21L6.84 49.90L32.47 49.90L32.47 55.30L10.51 55.30L10.51 60.55L61.06 60.55L61.06 55.30L39.38 55.30L39.38 49.90L65.23 49.90L65.23 44.21L39.38 44.21L39.38 42.12L39.60 42.34C41.69 40.03 43.78 37.08 45.50 33.77L51.84 33.77L48.82 36.22C51.26 38.52 54.22 41.76 55.51 43.92L60.12 40.03C58.90 38.30 56.52 35.78 54.36 33.77L68.90 33.77L68.90 28.01Z"/></svg>
