<svg xmlns="http://www.w3.org/2000/svg" xmlns:xlink="http://www.w3.org/1999/xlink" width="72.00000000000001" height="106.56000000000002"><path fill="red" stroke="red" d="M11.95 42.91C11.30 38.88 9.79 32.62 8.21 27.86L3.46 28.94C4.90 33.77 6.34 40.10 6.91 44.21ZM29.95 68.69C28.87 66.74 23.98 58.68 22.61 56.88L19.15 59.33L19.15 53.28L27.58 53.28L27.58 47.02L19.15 47.02L19.15 23.18L13.32 23.18L13.32 47.02L3.31 47.02L3.31 53.28L13.32 53.28L13.32 58.18L9.14 56.74C7.99 62.78 5.04 70.13 2.16 74.02C3.17 75.82 4.46 78.84 5.11 80.78C8.86 75.96 11.74 66.60 13.32 58.90L13.32 89.21L19.15 89.21L19.15 59.54C20.81 62.50 24.19 70.13 25.49 73.58ZM38.52 73.37C38.66 71.86 38.74 70.27 38.74 68.90L58.97 68.90L58.97 73.37ZM58.97 59.90L58.97 64.30L38.74 64.30L38.74 59.90ZM65.23 54.79L32.69 54.79L32.69 67.75C32.69 73.37 32.26 80.42 28.01 85.61C29.30 86.33 31.75 88.70 32.69 89.93C35.57 86.62 37.15 82.30 37.87 77.90L58.97 77.90L58.97 82.66C58.97 83.45 58.68 83.74 57.74 83.74C56.88 83.81 53.93 83.81 50.90 83.66C51.70 85.18 52.49 87.48 52.78 89.06C57.24 89.14 60.48 89.06 62.50 88.13C64.58 87.26 65.23 85.68 65.23 82.73ZM51.77 46.08L51.77 42.05L66.89 42.05L66.89 37.30L51.77 37.30L51.77 33.62L68.26 33.62L68.26 28.73L51.77 28.73L51.77 23.18L45.29 23.18L45.29 28.73L29.81 28.73L29.81 29.74L24.19 27.86C23.26 32.40 21.24 39.02 19.66 43.06L23.90 44.57C25.70 40.90 27.79 34.92 29.81 29.95L29.81 33.62L45.29 33.62L45.29 37.30L31.54 37.30L31.54 42.05L45.29 42.05L45.29 46.08L28.87 46.08L28.87 51.12L69.05 51.12L69.05 46.08Z"/></svg>
