<svg xmlns="http://www.w3.org/2000/svg" xmlns:xlink="http://www.w3.org/1999/xlink" width="72.00000000000001" height="106.56000000000002"><path fill="red" stroke="red" d="M22.54 36.07L32.40 36.07L32.40 44.42L38.95 44.42L38.95 36.07L46.15 36.07L43.63 39.31C50.40 41.40 59.62 44.71 64.30 46.80L67.46 42.55C62.86 40.68 54.65 37.94 48.24 36.07L66.60 36.07L66.60 31.25L50.54 31.25C52.99 29.74 56.02 27.86 58.82 25.63L52.78 23.40C51.05 25.27 47.88 27.86 45.36 29.59L49.10 31.25L38.95 31.25L38.95 23.11L32.40 23.11L32.40 31.25L23.98 31.25L26.86 29.30C24.91 27.58 21.31 24.98 18.58 23.26L13.90 26.28C15.91 27.72 18.50 29.66 20.38 31.25L5.18 31.25L5.18 36.07L22.03 36.07C17.93 38.88 10.30 41.33 3.74 42.48C4.97 43.63 6.70 45.72 7.49 47.16C14.33 45.43 22.39 41.83 26.86 37.94ZM18.86 56.23L32.54 56.23L32.54 59.62L18.86 59.62ZM18.86 49.54L32.54 49.54L32.54 52.78L18.86 52.78ZM52.92 52.78L38.81 52.78L38.81 49.54L52.92 49.54ZM52.92 59.62L38.81 59.62L38.81 56.23L52.92 56.23ZM12.60 63.50L59.40 63.50L59.40 45.65L12.60 45.65ZM28.44 71.64L43.20 71.64L43.20 74.88L28.44 74.88ZM68.47 74.88L49.68 74.88L49.68 71.64L65.23 71.64L65.23 67.32L49.68 67.32L49.68 64.30L43.20 64.30L43.20 67.32L28.44 67.32L28.44 64.30L22.03 64.30L22.03 67.32L6.84 67.32L6.84 71.64L22.03 71.64L22.03 74.88L3.74 74.88L3.74 79.42L23.04 79.42C17.93 81.65 10.37 83.66 3.46 84.82C4.90 85.90 7.27 88.27 8.28 89.42C15.70 87.70 24.84 84.74 30.60 81.07L26.64 79.42L44.86 79.42L41.18 82.08C49.25 84.24 57.24 87.05 61.70 89.28L67.97 85.61C63.36 83.74 56.02 81.29 48.89 79.42L68.47 79.42Z"/></svg>
