<svg xmlns="http://www.w3.org/2000/svg" xmlns:xlink="http://www.w3.org/1999/xlink" width="72.00000000000001" height="106.56000000000002"><path fill="red" stroke="red" d="M67.03 32.54C65.66 29.95 62.50 26.28 59.54 23.76L54.72 26.57C57.74 29.23 60.77 32.98 61.92 35.57ZM28.73 64.22C28.01 60.62 25.92 54.79 23.69 50.33L19.22 51.91C20.09 53.93 21.02 56.16 21.82 58.39L11.74 59.83C16.99 53.14 22.25 44.64 26.42 36.50L21.17 33.48C19.73 36.79 17.93 40.32 16.20 43.49L10.58 43.99C14.33 38.59 18.07 31.90 20.95 25.49L15.34 23.18C12.60 30.89 7.92 38.88 6.41 41.04C4.97 43.13 3.74 44.57 2.52 44.93C3.24 46.44 4.03 49.25 4.39 50.47C5.40 50.04 6.84 49.61 13.03 48.89C10.94 52.42 9.00 55.15 8.06 56.30C6.05 58.97 4.54 60.77 3.02 61.20C3.60 62.64 4.61 65.52 4.90 66.74C6.34 66.02 8.57 65.38 23.26 63.07C23.54 64.22 23.76 65.16 23.90 66.10ZM5.40 69.41C4.90 75.24 3.89 81.58 2.30 85.82C3.60 86.18 6.12 87.05 7.27 87.70C8.71 83.23 9.94 76.54 10.58 70.34ZM12.96 70.13C13.75 74.95 14.54 81.22 14.69 85.39L19.66 84.10C19.44 79.99 18.58 73.87 17.71 69.05ZM20.45 68.54C21.82 72.65 23.47 77.98 24.12 81.43L28.73 79.78C28.01 76.39 26.35 71.21 24.77 67.18ZM47.30 62.93L47.30 56.74L41.47 56.74L41.47 46.15L35.50 46.15L35.50 56.74L29.74 56.74L29.74 62.93L35.35 62.93C34.85 69.26 33.19 76.54 27.94 82.01C29.30 82.73 31.39 84.67 32.40 85.82C38.88 79.49 40.82 70.63 41.33 62.93ZM61.99 46.22C60.48 52.34 58.46 58.25 55.73 63.58C54.79 57.38 54.14 50.04 53.64 42.19L68.83 42.19L68.83 36.00L53.28 36.00C53.14 31.82 52.99 27.50 52.92 23.26L46.66 23.26C46.80 27.50 47.02 31.82 47.23 36.00L28.66 36.00L28.66 42.19L47.59 42.19C48.31 53.28 49.32 63.36 51.12 71.35C47.02 76.97 42.12 81.58 36.07 84.38C37.51 85.54 39.31 87.77 40.32 89.35C45.29 86.62 49.46 82.94 53.14 78.55C54.94 83.59 57.17 86.98 60.12 88.06C64.87 90.86 69.05 87.62 70.27 75.67C68.83 74.81 66.60 73.08 65.45 71.78C65.02 78.41 64.15 82.66 63.07 82.30C60.84 81.72 58.97 78.05 57.53 72.29C61.85 65.23 65.02 56.81 67.25 47.45Z"/></svg>
