<svg xmlns="http://www.w3.org/2000/svg" xmlns:xlink="http://www.w3.org/1999/xlink" width="72.00000000000001" height="106.56000000000002"><path fill="red" stroke="red" d="M29.02 64.58C28.08 61.06 25.85 55.08 24.12 50.62L19.66 51.91C20.38 53.86 21.17 56.02 21.89 58.18L12.53 59.47C18.22 52.85 23.76 44.57 28.15 36.43L22.75 33.19C21.24 36.65 19.30 40.03 17.35 43.20L10.87 43.78C14.54 38.45 18.14 31.82 20.88 25.56L14.83 23.18C12.31 30.74 7.78 38.74 6.34 40.82C4.97 42.91 3.74 44.35 2.52 44.71C3.24 46.30 4.25 49.18 4.61 50.47C5.62 50.04 7.20 49.61 13.75 48.89C11.45 52.27 9.43 54.94 8.42 56.09C6.26 58.82 4.68 60.55 3.02 60.98C3.82 62.57 4.75 65.45 5.11 66.74C6.48 66.02 8.86 65.38 23.40 63.14C23.76 64.37 24.05 65.45 24.26 66.46ZM5.54 69.41C4.90 75.10 3.74 81.50 2.38 85.90C3.82 86.18 6.26 86.76 7.49 87.34C8.57 83.02 9.94 76.32 10.73 70.56ZM12.74 70.13C13.61 74.95 14.40 81.22 14.47 85.39L19.51 84.10C19.30 79.99 18.43 73.87 17.50 69.05ZM20.09 68.54C21.60 72.94 23.33 78.70 24.05 82.44L28.73 80.78C28.01 77.11 26.21 71.57 24.55 67.18ZM39.89 39.96C40.39 38.23 40.90 36.29 41.40 34.42L55.51 34.42C55.22 36.07 54.86 38.02 54.43 39.96ZM69.55 78.41C66.82 76.18 62.28 73.15 57.74 70.20C60.34 67.54 63.50 63.86 66.31 60.41L60.84 57.24C59.11 60.41 56.09 64.51 53.50 67.54L51.12 66.02L51.12 55.44L69.05 55.44L69.05 49.61L58.68 49.61C60.12 43.20 61.70 35.64 62.64 29.59L58.03 28.94L56.95 29.23L42.70 29.23C43.20 27.36 43.56 25.49 43.92 23.76L37.73 23.04C36.22 30.10 33.84 39.38 32.04 45.14L53.35 45.14C52.99 46.73 52.78 48.17 52.42 49.61L27.94 49.61L27.94 55.44L44.93 55.44L44.93 66.74C38.66 70.99 32.33 75.10 28.08 77.69L31.68 82.80C35.57 79.99 40.25 76.54 44.93 73.01L44.93 82.51C44.93 83.23 44.71 83.45 43.85 83.52C43.13 83.52 40.54 83.52 37.87 83.45C38.74 85.03 39.60 87.55 39.74 89.21C43.78 89.21 46.66 89.06 48.60 88.13C50.62 87.26 51.12 85.61 51.12 82.58L51.12 72.43C56.66 76.18 62.71 80.42 66.02 83.30ZM41.90 65.52C40.03 63.36 36.29 59.98 33.41 57.46L29.74 60.98C32.62 63.58 36.29 67.25 38.09 69.48Z"/></svg>
