<svg xmlns="http://www.w3.org/2000/svg" xmlns:xlink="http://www.w3.org/1999/xlink" width="72.00000000000001" height="106.56000000000002"><path fill="red" stroke="red" d="M57.31 36.50L41.11 36.50L41.11 30.46L57.31 30.46ZM63.50 25.34L35.21 25.34L35.21 41.69L63.50 41.69ZM29.52 64.30C28.80 60.55 26.57 54.58 24.34 50.04L19.73 51.62C20.66 53.64 21.60 55.87 22.39 58.03L12.53 59.40C18.07 52.99 23.47 45.00 27.79 37.15L22.32 33.77C20.88 37.01 19.08 40.25 17.28 43.27L10.94 43.85C14.69 38.45 18.50 31.75 21.38 25.27L15.34 22.82C12.67 30.53 7.92 38.59 6.34 40.75C4.90 42.91 3.67 44.35 2.38 44.64C3.17 46.22 4.03 49.18 4.39 50.47C5.47 49.97 7.06 49.61 13.68 48.82C11.38 52.27 9.29 54.94 8.28 56.09C6.12 58.75 4.54 60.41 2.88 60.77C3.67 62.42 4.61 65.45 4.90 66.74C6.41 65.95 8.71 65.38 23.90 62.93C24.19 64.08 24.48 65.23 24.55 66.17ZM5.47 69.41C4.90 75.24 3.96 81.58 2.30 85.90C3.67 86.26 6.12 87.05 7.34 87.70C8.78 83.30 10.01 76.61 10.73 70.34ZM13.10 70.13C13.97 74.95 14.76 81.22 14.90 85.39L19.80 84.17C19.51 80.06 18.72 73.87 17.78 69.12ZM20.30 68.54C21.82 73.01 23.62 78.70 24.34 82.51L28.94 80.78C28.15 77.18 26.42 71.57 24.70 67.18ZM41.76 75.82L41.76 70.63L56.74 70.63L56.74 75.82ZM56.74 50.83L56.74 55.51L41.76 55.51L41.76 50.83ZM41.76 60.77L56.74 60.77L56.74 65.38L41.76 65.38ZM68.62 75.82L63.22 75.82L63.22 50.83L68.11 50.83L68.11 45.29L30.02 45.29L30.02 50.83L35.35 50.83L35.35 75.82L29.38 75.82L29.38 81.72L56.74 81.72L56.74 89.21L63.22 89.21L63.22 81.72L68.62 81.72Z"/></svg>
