<svg xmlns="http://www.w3.org/2000/svg" xmlns:xlink="http://www.w3.org/1999/xlink" width="72.00000000000001" height="106.56000000000002"><path fill="red" stroke="red" d="M4.32 50.33C5.33 49.82 6.91 49.46 13.61 48.67C11.23 52.27 9.14 55.08 8.06 56.30C6.05 58.97 4.39 60.77 2.88 61.13C3.53 62.64 4.46 65.52 4.82 66.74C6.26 65.95 8.50 65.38 23.76 63.00C23.98 63.94 24.12 64.73 24.26 65.52L29.09 63.58C28.44 60.05 26.35 54.36 24.34 50.04L19.80 51.62C20.74 53.71 21.53 56.02 22.32 58.25L11.95 59.69C17.50 52.99 22.90 44.71 27.22 36.58L22.10 33.41C20.66 36.79 18.79 40.18 16.92 43.34L10.51 43.85C14.18 38.59 17.86 31.82 20.66 25.49L15.05 23.18C12.46 30.82 7.78 38.88 6.26 41.04C4.82 43.13 3.67 44.57 2.45 44.93C3.10 46.44 3.96 49.25 4.25 50.40C4.25 50.40 4.25 50.26 4.32 50.18ZM5.33 69.41C4.82 75.17 3.82 81.58 2.23 85.82C3.53 86.18 6.05 87.05 7.20 87.70C8.57 83.23 9.79 76.54 10.51 70.34ZM12.89 70.13C13.68 74.88 14.40 81.00 14.54 85.10L19.44 83.81C19.22 79.78 18.43 73.73 17.57 69.05ZM59.04 41.40L59.04 47.52L36.36 47.52L36.36 45.65L36.36 41.40ZM64.94 52.78L64.94 36.14L36.36 36.14L36.36 32.54C46.37 31.61 57.17 30.02 64.94 27.65L59.98 23.18C53.21 25.34 40.97 27.14 30.38 28.01L30.38 45.65C30.38 54.36 30.17 66.38 28.01 76.90C27.22 73.94 25.99 70.20 24.91 67.10L20.52 68.62C21.67 72.29 23.11 77.11 23.69 80.28L27.58 78.84C26.93 81.36 26.21 83.74 25.34 85.97C26.86 86.40 29.59 87.98 30.82 88.99C34.78 78.70 35.93 64.22 36.29 52.78ZM57.10 69.41L57.10 62.42L61.27 62.42L61.27 69.41ZM49.10 69.41L49.10 62.42L53.21 62.42L53.21 69.41ZM41.11 69.41L41.11 62.42L45.22 62.42L45.22 69.41ZM66.53 56.95L36.14 56.95L36.14 89.28L41.11 89.28L41.11 74.66L45.22 74.66L45.22 88.27L49.10 88.27L49.10 74.66L53.21 74.66L53.21 87.91L57.10 87.91L57.10 74.66L61.27 74.66L61.27 83.52C61.27 84.02 61.20 84.17 60.70 84.17C60.26 84.24 59.18 84.24 57.96 84.17C58.54 85.46 59.18 87.41 59.18 88.78C61.70 88.78 63.50 88.70 64.80 87.91C66.17 87.05 66.53 85.82 66.53 83.52Z"/></svg>
