<svg xmlns="http://www.w3.org/2000/svg" xmlns:xlink="http://www.w3.org/1999/xlink" width="72.00000000000001" height="106.56000000000002"><path fill="red" stroke="red" d="M44.64 35.42L30.38 35.42L30.38 39.89L44.64 39.89L44.64 43.27L26.21 43.27L26.21 48.17L68.54 48.17L68.54 43.27L51.05 43.27L51.05 39.89L64.37 39.89L64.37 35.42L51.05 35.42L51.05 32.11L65.88 32.11L65.88 27.50L51.05 27.50L51.05 23.11L44.64 23.11L44.64 27.50L28.80 27.50L28.80 32.11L44.64 32.11ZM36.86 69.70L58.03 69.70L58.03 73.30L36.86 73.30ZM36.86 62.42L58.03 62.42L58.03 65.95L36.86 65.95ZM36.86 55.15L58.03 55.15L58.03 58.68L36.86 58.68ZM64.37 77.47L64.37 50.98L30.74 50.98L30.74 77.47ZM28.51 65.74C27.86 61.99 26.06 55.58 24.55 50.69L19.87 51.84C20.52 53.78 21.10 56.09 21.67 58.25L12.53 59.40C18.07 52.85 23.47 44.71 27.79 36.79L22.39 33.55C20.95 36.79 19.15 40.10 17.28 43.20L10.94 43.78C14.62 38.38 18.22 31.75 21.02 25.34L15.19 22.97C12.60 30.60 7.99 38.81 6.48 40.90C5.04 43.06 3.89 44.57 2.59 44.86C3.31 46.44 4.25 49.25 4.54 50.47C5.62 50.04 7.20 49.61 13.68 48.89C11.45 52.34 9.36 55.01 8.35 56.16C6.26 58.82 4.61 60.62 3.10 60.98C3.82 62.57 4.75 65.52 5.04 66.74C6.48 65.95 8.71 65.45 22.82 63.36C23.11 64.73 23.33 66.10 23.54 67.25ZM5.90 69.41C5.26 75.60 4.25 82.37 2.59 86.98C3.96 87.34 6.34 88.13 7.42 88.70C8.93 84.10 10.22 76.90 10.87 70.27ZM13.32 69.62C14.11 74.95 14.83 81.79 14.90 86.26L19.58 85.46C19.44 80.93 18.65 74.16 17.78 68.83ZM20.38 68.62C21.67 72.65 23.33 77.90 23.90 81.36L28.22 79.92C27.50 76.54 25.92 71.35 24.48 67.39ZM40.39 77.62C36.43 79.85 29.45 82.80 24.55 84.60C25.85 85.90 27.72 87.84 28.66 89.14C33.55 87.34 40.46 84.38 45.65 81.86ZM50.76 81.07C55.22 83.66 60.34 86.98 63.36 89.28L69.12 85.90C65.66 83.59 60.05 80.35 55.22 77.76Z"/></svg>
