<svg xmlns="http://www.w3.org/2000/svg" xmlns:xlink="http://www.w3.org/1999/xlink" width="72.00000000000001" height="106.56000000000002"><path fill="red" stroke="red" d="M67.97 66.67L39.46 66.67L39.46 57.17L60.55 57.17L60.55 50.76L39.46 50.76L39.46 41.69L64.66 41.69L64.66 35.21L51.48 35.21C53.35 32.11 55.37 28.30 57.17 24.70L49.97 22.90C48.74 26.50 46.51 31.54 44.64 35.21L24.26 35.21L28.51 33.55C27.36 30.67 24.70 26.35 22.32 23.04L16.27 25.27C18.36 28.30 20.59 32.40 21.74 35.21L7.78 35.21L7.78 41.69L32.40 41.69L32.40 50.76L11.23 50.76L11.23 57.17L32.40 57.17L32.40 66.67L4.18 66.67L4.18 73.15L32.40 73.15L32.40 89.21L39.46 89.21L39.46 73.15L67.97 73.15Z"/></svg>
