<svg xmlns="http://www.w3.org/2000/svg" xmlns:xlink="http://www.w3.org/1999/xlink" width="72.00000000000001" height="106.56000000000002"><path fill="red" stroke="red" d="M67.61 56.88L67.61 51.34L39.31 51.34L39.31 46.87L61.49 46.87L61.49 41.62L39.31 41.62L39.31 37.30L64.94 37.30L64.94 31.75L50.62 31.75C52.27 29.81 54.14 27.36 55.73 24.84L48.60 22.97C47.52 25.49 45.36 29.09 43.70 31.54L44.35 31.75L26.64 31.75L27.79 31.25C26.86 28.87 24.62 25.49 22.39 23.11L16.63 25.42C18.22 27.29 19.73 29.66 20.81 31.75L7.27 31.75L7.27 37.30L32.47 37.30L32.47 41.62L10.15 41.62L10.15 46.87L32.47 46.87L32.47 51.34L4.25 51.34L4.25 56.88L17.64 56.88C15.12 68.69 10.22 78.41 2.38 84.38C3.89 85.39 6.62 87.91 7.70 89.14C16.20 82.01 21.74 70.85 24.77 56.88ZM51.19 76.75C51.05 78.70 50.90 80.57 50.69 82.37L38.52 82.37C38.81 80.71 39.17 78.77 39.46 76.75ZM51.84 66.31C51.77 67.90 51.70 69.62 51.55 71.42L40.25 71.42C40.46 69.70 40.68 67.97 40.90 66.31ZM57.17 82.37C57.31 80.57 57.46 78.70 57.60 76.75L67.46 76.75L67.46 71.42L58.03 71.42C58.25 67.82 58.46 64.22 58.61 61.06L53.86 60.70L52.70 60.98L25.27 60.98L25.27 66.31L34.49 66.31C34.27 67.97 34.06 69.70 33.84 71.42L21.96 71.42L21.96 76.75L33.05 76.75C32.76 78.77 32.40 80.64 32.11 82.37L16.63 82.37L16.63 87.70L69.05 87.70L69.05 82.37Z"/></svg>
