<svg xmlns="http://www.w3.org/2000/svg" xmlns:xlink="http://www.w3.org/1999/xlink" width="72.00000000000001" height="106.56000000000002"><path fill="red" stroke="red" d="M65.88 28.51L37.08 28.51L37.08 34.85L65.88 34.85ZM32.26 72.14C30.60 70.63 24.05 64.44 21.46 62.35L21.46 60.26L33.19 60.26L33.19 54.58L21.46 54.58L21.46 47.88L31.54 47.88L31.54 42.19L21.46 42.19L21.46 35.21C25.85 34.27 29.95 33.19 33.34 31.90L28.73 27.14C26.71 28.01 24.26 28.80 21.46 29.52L21.46 23.11L15.26 23.11L15.26 30.89C11.23 31.75 6.91 32.47 2.88 32.98C3.67 34.27 4.46 36.50 4.75 37.80C8.14 37.44 11.74 36.94 15.26 36.36L15.26 42.19L4.68 42.19L4.68 47.88L15.26 47.88L15.26 54.58L3.24 54.58L3.24 60.26L13.54 60.26C10.94 66.53 6.55 73.51 2.66 77.47C3.60 78.98 5.11 81.65 5.76 83.45C9.22 79.92 12.53 74.23 15.26 68.33L15.26 89.06L21.46 89.06L21.46 68.62C24.12 71.42 27.22 74.74 28.73 76.75ZM69.05 86.76C67.25 80.71 63.43 71.50 59.98 64.30L54.07 66.46C55.58 69.77 57.24 73.66 58.68 77.47L42.12 78.91C46.15 72.07 50.18 63.58 53.28 55.08L68.26 55.08L68.26 48.74L33.84 48.74L33.84 55.08L45.36 55.08C42.41 63.94 38.23 72.50 36.72 74.95C34.99 77.98 33.77 79.78 32.26 80.14C33.12 81.94 34.20 85.32 34.63 86.76C36.65 85.90 39.60 85.46 60.91 83.23C61.70 85.39 62.28 87.48 62.78 89.21Z"/></svg>
