<svg xmlns="http://www.w3.org/2000/svg" xmlns:xlink="http://www.w3.org/1999/xlink" width="72.00000000000001" height="106.56000000000002"><path fill="red" stroke="red" d="M38.66 41.11L54.22 41.11L54.22 45.14L38.66 45.14ZM38.66 32.04L54.22 32.04L54.22 35.93L38.66 35.93ZM38.66 66.46L38.66 49.97L60.62 49.97L60.62 41.11L68.11 41.11L68.11 35.93L60.62 35.93L60.62 27.22L38.66 27.22L38.66 23.11L32.18 23.11L32.18 27.22L11.16 27.22L11.16 32.04L32.18 32.04L32.18 35.93L4.10 35.93L4.10 41.11L32.18 41.11L32.18 45.14L10.73 45.14L10.73 49.97L32.18 49.97L32.18 66.46L15.62 66.46C15.70 65.52 15.70 64.66 15.70 63.79L15.70 63.29L27.22 63.29L27.22 52.42L22.25 52.42L22.25 58.75L15.70 58.75L15.70 52.34L9.79 52.34L9.79 63.65C9.79 70.20 9.07 79.49 3.02 85.75C4.46 86.47 6.77 88.13 7.85 89.06C10.51 86.26 12.31 82.94 13.54 79.42L22.10 79.42L22.10 88.49L27.14 88.49L27.14 74.81L14.76 74.81C14.98 73.73 15.12 72.65 15.26 71.57L32.18 71.57L32.18 89.14L38.66 89.14L38.66 71.57L55.94 71.57L55.94 74.81L43.85 74.81L43.85 88.34L48.89 88.34L48.89 79.42L55.94 79.42L55.94 89.21L62.14 89.21L62.14 52.34L55.94 52.34L55.94 58.82L48.82 58.82L48.82 52.34L43.78 52.34L43.78 63.36L55.94 63.36L55.94 66.46Z"/></svg>
