<svg xmlns="http://www.w3.org/2000/svg" xmlns:xlink="http://www.w3.org/1999/xlink" width="72.00000000000001" height="106.56000000000002"><path fill="red" stroke="red" d="M12.53 43.92C14.62 46.37 16.85 49.25 17.93 51.19L21.02 48.96L21.02 56.23C17.78 58.46 14.62 60.62 12.24 61.99C12.46 58.10 12.53 54.36 12.53 51.19ZM21.02 31.82L21.02 47.16C19.51 45.00 17.28 42.41 15.26 40.39L12.53 42.12L12.53 31.82ZM26.64 25.70L6.98 25.70L6.98 51.19C6.98 61.49 6.62 75.60 2.38 85.61C3.60 86.26 5.98 88.27 6.98 89.50C10.15 82.22 11.52 72.65 12.10 63.79L13.97 67.90C16.27 65.95 18.65 63.86 21.02 61.78L21.02 81.86C21.02 82.80 20.74 83.09 19.87 83.16C19.01 83.16 16.42 83.23 13.54 83.09C14.40 84.60 15.12 87.41 15.34 88.99C19.66 88.99 22.39 88.85 24.34 87.77C26.06 86.83 26.64 84.96 26.64 81.94ZM37.22 63.79L37.22 59.11L45.50 59.11L45.50 63.79ZM37.22 50.33L45.50 50.33L45.50 54.86L37.22 54.86ZM59.76 50.33L59.76 54.86L51.91 54.86L51.91 50.33ZM59.76 63.79L51.91 63.79L51.91 59.11L59.76 59.11ZM51.91 82.51L51.91 77.83L66.38 77.83L66.38 72.58L51.91 72.58L51.91 68.69L65.88 68.69L65.88 45.43L51.91 45.43L51.91 41.76L67.68 41.76L67.68 36.50L51.91 36.50L51.91 30.38C57.31 29.74 62.35 28.94 66.53 27.86L62.21 22.97C54.43 25.13 40.82 26.50 29.23 27.22C29.81 28.58 30.53 30.82 30.74 32.18C35.50 31.97 40.54 31.61 45.50 31.18L45.50 36.50L29.38 36.50L29.38 41.76L45.50 41.76L45.50 45.43L31.32 45.43L31.32 68.69L45.50 68.69L45.50 72.58L30.96 72.58L30.96 77.83L45.50 77.83L45.50 82.51L27.72 82.51L27.72 87.84L68.69 87.84L68.69 82.51Z"/></svg>
