<svg xmlns="http://www.w3.org/2000/svg" xmlns:xlink="http://www.w3.org/1999/xlink" width="72.00000000000001" height="106.56000000000002"><path fill="red" stroke="red" d="M47.02 40.75L53.64 40.75L53.64 34.92L67.68 34.92L67.68 29.09L53.64 29.09L53.64 23.18L47.02 23.18L47.02 29.09L37.58 29.09L37.58 34.92L47.02 34.92ZM18.50 40.75L25.06 40.75L25.06 34.99L33.91 34.99L33.91 29.16L25.06 29.16L25.06 23.18L18.50 23.18L18.50 29.16L4.03 29.16L4.03 34.99L18.50 34.99ZM67.75 59.83L51.48 59.83L51.48 49.03L64.08 49.03L64.08 42.98L8.21 42.98L8.21 49.03L44.78 49.03L44.78 59.83L18.58 59.83C19.37 57.02 20.16 53.93 20.81 51.12L13.82 50.47C12.89 55.51 11.30 61.85 10.01 66.02L35.50 66.02C27.00 72.65 14.69 78.55 3.53 81.14C5.11 82.73 6.77 85.18 7.70 87.05C20.88 83.09 36.00 74.81 44.78 66.10L44.78 81.14C44.78 82.37 44.35 82.73 42.98 82.73C41.54 82.80 36.50 82.80 31.54 82.66C32.47 84.46 33.62 87.26 33.98 89.14C40.39 89.14 44.93 88.99 47.74 87.98C50.62 87.05 51.48 85.18 51.48 81.22L51.48 66.02L67.75 66.02Z"/></svg>
