<svg xmlns="http://www.w3.org/2000/svg" xmlns:xlink="http://www.w3.org/1999/xlink" width="72.00000000000001" height="106.56000000000002"><path fill="red" stroke="red" d="M20.16 43.63L26.78 43.63L26.78 36.22L35.06 36.22L35.06 30.02L26.78 30.02L26.78 23.18L20.16 23.18L20.16 30.02L4.68 30.02L4.68 36.22L20.16 36.22ZM32.47 52.34L32.47 62.86L17.35 62.86L17.35 52.34ZM54.79 62.86L38.95 62.86L38.95 52.34L54.79 52.34ZM38.95 80.06L38.95 68.90L54.79 68.90L54.79 80.06ZM17.35 80.06L17.35 68.90L32.47 68.90L32.47 80.06ZM10.94 89.21L17.35 89.21L17.35 86.11L54.79 86.11L54.79 89.21L61.49 89.21L61.49 46.30L10.94 46.30ZM51.70 30.02L51.70 23.18L45.00 23.18L45.00 30.02L37.30 30.02L37.30 36.22L45.00 36.22L45.00 43.63L51.70 43.63L51.70 36.22L67.61 36.22L67.61 30.02Z"/></svg>
