<svg xmlns="http://www.w3.org/2000/svg" xmlns:xlink="http://www.w3.org/1999/xlink" width="72.00000000000001" height="106.56000000000002"><path fill="red" stroke="red" d="M47.66 37.01L54.14 37.01L54.14 33.12L67.68 33.12L67.68 27.72L54.14 27.72L54.14 23.11L47.66 23.11L47.66 27.72L37.58 27.72L37.58 33.12L47.66 33.12ZM18.50 37.01L24.98 37.01L24.98 33.19L33.91 33.19L33.91 27.79L24.98 27.79L24.98 23.11L18.50 23.11L18.50 27.79L4.03 27.79L4.03 33.19L18.50 33.19ZM7.42 89.50C11.52 86.76 14.98 82.44 17.35 78.77L12.24 76.03C9.94 79.42 6.41 83.38 2.59 85.61ZM36.86 51.19L20.09 51.19L20.09 47.16L36.86 47.16ZM36.86 59.90L20.09 59.90L20.09 55.66L36.86 55.66ZM36.86 68.62L20.09 68.62L20.09 64.37L36.86 64.37ZM64.66 73.87L64.66 68.62L43.49 68.62L43.49 64.37L61.78 64.37L61.78 59.90L43.49 59.90L43.49 55.66L61.78 55.66L61.78 51.19L43.49 51.19L43.49 47.16L63.94 47.16L63.94 42.05L38.52 42.05L42.98 40.46C42.55 38.66 41.18 35.93 39.67 33.84L34.06 35.71C35.21 37.58 36.43 40.25 36.94 42.05L21.38 42.05C22.03 40.90 22.61 39.82 23.04 38.59L16.99 36.79C14.04 43.63 8.64 49.90 2.74 53.78C4.10 54.94 6.34 57.46 7.34 58.61C9.43 57.02 11.59 55.01 13.61 52.85L13.61 76.18L20.09 76.18L20.09 73.87ZM23.33 78.98C24.55 82.22 25.63 86.40 25.85 89.14L32.04 87.55C31.75 84.96 30.46 80.78 29.16 77.62ZM37.94 78.62C39.96 81.94 42.19 86.33 43.06 89.21L48.89 86.83C48.02 84.02 45.58 79.70 43.49 76.54ZM54.00 78.48C57.46 81.86 61.49 86.62 63.22 89.71L69.19 86.54C67.25 83.45 63.07 78.91 59.54 75.67Z"/></svg>
