<svg xmlns="http://www.w3.org/2000/svg" xmlns:xlink="http://www.w3.org/1999/xlink" width="72.00000000000001" height="106.56000000000002"><path fill="red" stroke="red" d="M18.22 34.42L24.77 34.42L24.77 31.82L34.13 31.82L34.13 26.64L24.77 26.64L24.77 23.04L18.22 23.04L18.22 26.64L4.46 26.64L4.46 31.82L18.22 31.82ZM35.14 60.70L35.14 56.74L49.25 56.74C46.73 58.18 44.14 59.40 41.26 60.70ZM54.79 76.03L23.76 76.03L23.76 72.65L54.79 72.65ZM23.76 83.09L23.76 79.63L54.79 79.63L54.79 83.09ZM25.63 44.64L16.06 44.64L16.06 40.18L25.63 40.18ZM31.03 40.18L41.04 40.18L41.04 44.64L31.03 44.64ZM46.44 40.18L56.52 40.18L56.52 44.64L46.44 44.64ZM59.54 49.68C57.31 51.55 54.79 53.42 51.98 55.08L51.98 52.13L35.14 52.13L35.14 49.03L62.71 49.03L62.71 35.78L10.08 35.78L10.08 49.03L28.73 49.03L28.73 52.13L11.23 52.13L11.23 56.74L28.73 56.74L28.73 60.70L4.32 60.70L4.32 65.52L28.80 65.52C25.34 66.60 21.82 67.68 18.22 68.54L17.64 68.54L17.64 68.69C12.53 70.06 7.42 71.06 2.30 72.00C3.24 73.22 4.75 75.82 5.18 77.04C9.29 76.18 13.46 75.17 17.64 74.16L17.64 89.21L23.76 89.21L23.76 87.19L54.79 87.19L54.79 89.14L61.20 89.14L61.20 68.54L35.21 68.54C37.80 67.61 40.46 66.60 42.91 65.52L67.68 65.52L67.68 60.70L52.63 60.70C56.88 58.32 60.84 55.58 64.22 52.70ZM54.14 26.64L54.14 23.04L47.52 23.04L47.52 26.64L37.37 26.64L37.37 31.82L47.52 31.82L47.52 34.42L54.14 34.42L54.14 31.82L67.75 31.82L67.75 26.64Z"/></svg>
