<svg xmlns="http://www.w3.org/2000/svg" xmlns:xlink="http://www.w3.org/1999/xlink" width="72.00000000000001" height="106.56000000000002"><path fill="red" stroke="red" d="M47.52 37.01L54.14 37.01L54.14 33.26L67.75 33.26L67.75 27.50L54.14 27.50L54.14 23.04L47.52 23.04L47.52 27.50L37.37 27.50L37.37 33.26L47.52 33.26ZM18.22 37.15L24.77 37.15L24.77 33.26L34.56 33.26L34.56 27.50L24.77 27.50L24.77 23.04L18.22 23.04L18.22 27.50L4.46 27.50L4.46 33.26L18.22 33.26ZM56.52 67.90C55.44 69.70 53.50 72.29 51.91 74.09L49.90 73.01L49.90 62.64L44.28 62.64L44.28 73.87L40.03 75.67L41.90 74.52C41.04 72.58 38.95 69.84 36.94 67.90L32.83 70.49C34.63 72.36 36.43 74.95 37.37 76.82C33.48 78.55 29.88 79.99 27.14 81.00L29.74 85.90C34.06 83.88 39.17 81.43 44.28 78.84L44.28 83.02C44.28 83.66 44.06 83.88 43.34 83.88C42.62 83.88 40.39 83.88 38.02 83.81C38.74 85.32 39.38 87.26 39.60 88.78C43.27 88.78 45.86 88.70 47.66 87.91C49.46 87.12 49.90 85.75 49.90 83.09L49.90 78.55C54.29 81.07 58.75 83.95 61.34 86.04L65.16 82.08C62.93 80.35 59.47 78.26 55.87 76.25C57.60 74.74 59.47 72.58 61.42 70.49ZM12.89 64.51C13.03 62.50 13.03 60.62 13.03 58.75L13.03 57.02L20.16 57.02L20.16 64.51ZM20.16 44.78L20.16 51.84L13.03 51.84L13.03 44.78ZM68.26 60.12L68.26 55.44L44.71 55.44C45.43 54.00 46.01 52.34 46.58 50.69L66.17 50.69L66.17 46.08L58.18 46.08C59.47 44.28 61.13 42.12 62.71 39.89L57.02 38.23C56.09 40.39 54.36 43.49 52.99 45.50L54.72 46.08L48.02 46.08C48.60 43.70 49.10 41.11 49.46 38.38L43.78 37.87C43.42 40.75 42.84 43.56 42.19 46.08L38.23 46.08L39.38 45.65C38.88 43.63 37.37 40.68 35.71 38.38L31.03 39.96C32.26 41.76 33.48 44.21 34.13 46.08L29.30 46.08L29.30 50.69L40.75 50.69C40.03 52.34 39.31 54.00 38.45 55.44L27.50 55.44L27.50 60.12L35.14 60.12C32.62 63.00 29.59 65.38 25.85 67.32L25.85 39.46L7.56 39.46L7.56 58.68C7.56 67.10 7.13 78.34 2.52 86.40C3.89 86.98 6.34 88.49 7.27 89.50C10.51 84.02 11.88 76.61 12.60 69.70L20.16 69.70L20.16 82.37C20.16 83.16 19.87 83.38 19.08 83.38C18.36 83.45 16.20 83.45 13.75 83.30C14.47 84.74 15.26 87.19 15.41 88.70C19.22 88.70 21.74 88.56 23.62 87.62C25.34 86.76 25.85 85.18 25.85 82.44L25.85 67.68C27.00 68.83 28.73 70.85 29.30 71.93C34.63 68.83 38.81 64.94 42.05 60.12L52.42 60.12C55.37 65.52 59.90 69.91 66.10 72.00C66.82 70.56 68.40 68.40 69.70 67.25C65.02 66.02 61.13 63.43 58.39 60.12Z"/></svg>
