<svg xmlns="http://www.w3.org/2000/svg" xmlns:xlink="http://www.w3.org/1999/xlink" width="72.00000000000001" height="106.56000000000002"><path fill="red" stroke="red" d="M45.58 37.30L51.70 37.30L51.70 33.41L67.82 33.41L67.82 27.58L51.70 27.58L51.70 23.11L45.58 23.11L45.58 27.58L38.23 27.58L38.23 33.41L45.58 33.41ZM19.94 37.30L26.06 37.30L26.06 33.41L33.70 33.41L33.70 27.58L26.06 27.58L26.06 23.11L19.94 23.11L19.94 27.58L4.61 27.58L4.61 33.41L19.94 33.41ZM23.83 45.50C22.97 47.02 21.96 48.38 21.02 49.61L13.18 49.61C14.33 48.24 15.26 46.94 16.20 45.50ZM29.30 59.11L23.62 59.11L23.62 54.29L29.30 54.29ZM29.30 68.04L23.62 68.04L23.62 63.22L29.30 63.22ZM13.32 59.11L13.32 54.29L18.79 54.29L18.79 59.11ZM18.79 63.22L18.79 68.04L13.32 68.04L13.32 63.22ZM7.99 72.65L34.85 72.65L34.85 49.61L27.22 49.61C28.73 47.52 30.31 45.29 31.54 43.20L28.08 40.54L27.00 40.90L19.01 40.90C19.58 39.74 20.16 38.66 20.74 37.51L14.69 36.43C12.53 41.47 8.50 47.52 2.66 51.98C3.89 52.85 5.83 54.72 6.70 55.94C7.13 55.58 7.56 55.30 7.99 54.94ZM6.77 89.14C9.58 85.90 11.52 80.78 12.67 76.39L8.06 74.59C6.91 78.70 4.82 83.59 2.16 86.54ZM14.18 76.03C14.98 79.78 15.41 84.67 15.34 87.84L19.94 87.19C19.94 84.02 19.44 79.27 18.58 75.53ZM21.02 75.89C22.39 79.42 23.54 84.02 23.90 87.05L28.37 86.04C28.01 83.09 26.64 78.55 25.27 75.10ZM28.15 75.46C30.10 78.77 32.11 83.16 32.90 86.11L37.15 84.60C36.36 81.79 34.27 77.40 32.26 74.16ZM67.25 59.62L67.25 53.78L55.37 53.78L55.37 45.14C59.33 44.21 63.00 43.06 66.10 41.76L61.34 37.37C55.58 39.96 45.50 42.34 36.58 43.78C37.22 45.00 38.09 47.09 38.38 48.46C41.83 47.95 45.43 47.30 49.03 46.58L49.03 53.78L36.50 53.78L36.50 59.62L47.38 59.62C44.35 66.89 39.74 73.94 34.85 77.76C36.22 78.84 38.23 81.00 39.24 82.51C42.84 79.13 46.30 73.94 49.03 68.11L49.03 89.35L55.37 89.35L55.37 67.25C58.18 73.01 61.63 78.48 64.94 81.94C65.95 80.42 67.82 78.41 69.26 77.33C64.87 73.51 60.12 66.46 56.95 59.62Z"/></svg>
