<svg xmlns="http://www.w3.org/2000/svg" xmlns:xlink="http://www.w3.org/1999/xlink" width="72.00000000000001" height="106.56000000000002"><path fill="red" stroke="red" d="M67.54 26.50L41.18 26.50L41.18 32.54L67.54 32.54ZM20.88 78.48L27.22 78.48L27.22 82.37L20.88 82.37ZM27.22 67.90L20.88 67.90L20.88 64.73L27.22 64.73ZM27.22 74.88L20.88 74.88L20.88 71.50L27.22 71.50ZM18.79 40.18L18.79 44.21L12.38 44.93L12.38 40.18ZM32.47 78.48L38.95 78.48L38.95 74.88L32.47 74.88L32.47 71.50L38.95 71.50L38.95 67.90L32.47 67.90L32.47 64.73L40.32 64.73L40.32 60.70L32.54 60.70C32.04 58.90 31.39 56.88 30.67 55.22L25.92 56.45C26.35 57.74 26.78 59.26 27.22 60.70L21.24 60.70C21.96 59.26 22.54 57.96 23.11 56.52L18.72 55.08C17.06 59.33 14.69 63.65 11.88 66.96C12.31 62.42 12.38 57.96 12.38 54.14L12.38 47.30L12.60 49.10L18.79 48.38C18.86 52.63 20.02 54.22 24.70 54.22L32.18 54.22C33.91 54.22 35.71 54.22 36.58 53.93C36.43 52.78 36.29 51.12 36.14 49.82C35.28 50.11 33.19 50.11 32.04 50.11L25.20 50.11C23.90 50.11 23.69 49.68 23.69 48.02L23.69 47.88L31.90 46.94L31.39 42.84L23.69 43.70L23.69 40.18L34.06 40.18C33.62 42.05 33.12 43.70 32.62 45.00L37.51 46.22C38.66 43.56 39.89 39.31 40.82 35.71L36.79 34.70L35.78 34.92L25.56 34.92L25.56 32.18L37.15 32.18L37.15 27.00L25.56 27.00L25.56 23.26L19.51 23.26L19.51 34.92L6.70 34.92L6.70 54.07C6.70 63.14 6.34 75.82 2.09 84.82C3.46 85.39 5.98 87.26 7.06 88.27C9.65 82.94 10.94 75.96 11.66 69.19C12.60 70.13 13.61 71.14 14.11 71.78C14.69 71.14 15.19 70.56 15.77 69.84L15.77 88.56L20.88 88.56L20.88 86.40L40.54 86.40L40.54 82.37L32.47 82.37ZM68.54 48.17L68.54 42.05L39.96 42.05L39.96 48.17L46.37 48.17C45.58 53.14 44.50 58.82 43.49 62.64L60.12 62.64C59.26 75.02 58.25 80.21 56.81 81.58C56.16 82.22 55.37 82.37 54.29 82.37C52.85 82.37 49.75 82.37 46.37 82.08C47.45 83.74 48.10 86.26 48.24 87.98C51.70 88.13 55.08 88.20 57.02 87.98C59.18 87.77 60.77 87.19 62.14 85.61C64.37 83.23 65.45 76.54 66.60 59.40C66.67 58.54 66.74 56.74 66.74 56.74L51.12 56.74C51.55 54.00 52.13 50.98 52.56 48.17Z"/></svg>
