<svg xmlns="http://www.w3.org/2000/svg" xmlns:xlink="http://www.w3.org/1999/xlink" width="72.00000000000001" height="106.56000000000002"><path fill="red" stroke="red" d="M10.51 41.54L15.84 41.54L15.84 57.02L10.51 57.02ZM26.14 57.02L20.81 57.02L20.81 41.54L26.14 41.54ZM24.55 67.39C25.49 69.77 26.42 72.29 27.14 74.88L21.24 75.74L21.24 62.57L31.46 62.57L31.46 36.07L21.31 36.07L21.31 23.40L15.26 23.40L15.26 36.07L5.26 36.07L5.26 65.74L10.51 65.74L10.51 62.57L15.26 62.57L15.26 76.54C10.58 77.11 6.34 77.69 2.95 78.05L3.89 84.46C10.80 83.52 19.94 82.08 28.58 80.71C29.02 82.58 29.30 84.31 29.45 85.90L34.85 84.10C34.13 79.20 32.11 71.64 29.59 65.88ZM69.05 65.30L54.00 65.30L54.00 55.58L66.96 55.58L66.96 49.46L54.00 49.46L54.00 39.24C59.04 38.45 63.72 37.37 67.61 36.07L63.29 30.53C60.77 31.46 57.60 32.33 54.00 33.05L54.00 23.18L47.38 23.18L47.38 34.06C42.84 34.78 38.09 35.21 33.70 35.57C34.49 37.08 35.35 39.60 35.57 41.11C39.31 40.90 43.34 40.61 47.38 40.10L47.38 49.46L34.49 49.46L34.49 55.58L47.38 55.58L47.38 65.30L32.40 65.30L32.40 71.50L47.38 71.50L47.38 89.21L54.00 89.21L54.00 71.50L69.05 71.50Z"/></svg>
