<svg xmlns="http://www.w3.org/2000/svg" xmlns:xlink="http://www.w3.org/1999/xlink" width="72.00000000000001" height="106.56000000000002"><path fill="red" stroke="red" d="M66.96 26.64L49.32 26.64L49.32 32.18L60.91 32.18L60.91 44.78L49.32 44.78L49.32 50.40L66.96 50.40ZM9.50 40.54L13.10 40.54L13.10 56.74L9.50 56.74ZM21.02 56.74L17.06 56.74L17.06 40.54L21.02 40.54ZM19.22 67.75C19.94 69.98 20.66 72.50 21.31 74.95L17.57 75.74L17.57 62.14L25.63 62.14L25.63 35.21L17.64 35.21L17.64 23.54L12.74 23.54L12.74 35.21L4.97 35.21L4.97 64.15L9.50 64.15L9.50 62.14L12.67 62.14L12.67 76.75C8.86 77.47 5.40 78.12 2.52 78.55L3.67 84.24C9.07 83.09 15.77 81.65 22.39 80.21C22.75 82.15 23.04 83.95 23.18 85.54L27.79 84.31C27.22 79.56 25.56 72.29 23.54 66.67ZM41.62 32.18L41.62 44.35L34.70 44.35L34.70 32.18ZM47.16 75.60L47.16 69.98L34.70 69.98L34.70 62.14L46.37 62.14L46.37 56.59L34.70 56.59L34.70 49.90L47.30 49.90L47.30 26.64L28.87 26.64L28.87 89.06L34.70 89.06L34.70 75.60ZM64.51 54.86L63.43 55.01L47.81 55.01L47.81 60.48L61.42 60.48C60.41 64.44 58.97 67.97 57.10 70.99C55.37 67.75 54.00 64.22 52.99 60.55L48.02 61.85C49.39 66.89 51.19 71.64 53.57 75.82C50.11 79.78 45.79 82.58 40.82 84.38C41.98 85.46 43.49 87.84 44.21 89.21C49.10 87.26 53.35 84.53 56.88 80.93C59.62 84.46 62.86 87.34 66.53 89.35C67.39 87.84 69.26 85.61 70.49 84.53C66.67 82.73 63.36 79.92 60.62 76.39C64.22 71.14 66.82 64.37 68.18 55.80Z"/></svg>
