<svg xmlns="http://www.w3.org/2000/svg" xmlns:xlink="http://www.w3.org/1999/xlink" width="72.00000000000001" height="106.56000000000002"><path fill="red" stroke="red" d="M9.94 40.82L14.18 40.82L14.18 56.23L9.94 56.23ZM23.54 56.23L18.94 56.23L18.94 40.82L23.54 40.82ZM21.60 66.17C22.46 68.47 23.18 71.06 23.83 73.66L19.44 74.45L19.44 61.63L28.73 61.63L28.73 35.35L19.44 35.35L19.44 23.47L13.68 23.47L13.68 35.35L4.90 35.35L4.90 64.66L9.94 64.66L9.94 61.63L13.68 61.63L13.68 75.38C9.50 76.10 5.69 76.75 2.59 77.18L3.60 83.38C9.65 82.15 17.28 80.78 24.84 79.27C25.06 80.42 25.13 81.43 25.20 82.37L29.74 81.07C29.16 82.37 28.51 83.59 27.72 84.60L32.40 87.05C35.57 83.09 36.72 76.39 37.37 70.27L32.40 69.05C32.04 72.79 31.39 76.68 30.17 79.92C29.66 75.60 28.15 69.62 26.35 64.80ZM39.31 69.91C40.03 74.16 40.46 79.63 40.32 83.23L45.00 82.44C45.07 78.91 44.64 73.51 43.85 69.26ZM46.44 69.05C47.81 72.58 48.96 77.26 49.32 80.28L53.78 78.98C53.28 76.03 51.98 71.42 50.62 67.90ZM38.30 53.21L46.87 53.21L46.87 58.90L38.30 58.90ZM46.87 31.82L46.87 37.15L38.30 37.15L38.30 31.82ZM46.87 47.95L38.30 47.95L38.30 42.41L46.87 42.41ZM52.85 58.90L52.85 53.21L64.44 53.21L64.44 47.95L52.85 47.95L52.85 42.41L64.44 42.41L64.44 37.15L52.85 37.15L52.85 31.82L66.17 31.82L66.17 25.99L32.26 25.99L32.26 64.66L61.92 64.66C61.70 68.33 61.49 71.35 61.27 73.73C60.41 71.57 58.75 68.40 57.10 66.10L53.35 67.46C55.08 70.20 56.81 73.73 57.46 76.03L61.20 74.45C60.70 79.63 60.05 82.15 59.26 83.09C58.75 83.74 58.18 83.88 57.10 83.88C55.94 83.88 53.50 83.81 50.69 83.59C51.62 85.03 52.20 87.48 52.27 89.14C55.37 89.28 58.25 89.28 59.90 89.06C61.85 88.78 63.14 88.34 64.37 86.83C66.24 84.60 67.10 78.19 67.97 61.34C68.04 60.55 68.11 58.90 68.11 58.90Z"/></svg>
