<svg xmlns="http://www.w3.org/2000/svg" xmlns:xlink="http://www.w3.org/1999/xlink" width="72.00000000000001" height="106.56000000000002"><path fill="red" stroke="red" d="M68.04 27.36L51.34 27.36L51.34 33.41L68.04 33.41ZM14.18 23.04C11.59 27.72 6.62 33.41 2.16 37.01C3.24 38.23 4.82 40.75 5.62 42.12C10.80 37.87 16.49 31.32 20.23 25.34ZM41.26 33.26L41.26 38.45L33.84 38.45C34.20 36.86 34.49 35.06 34.78 33.26ZM20.88 43.70L51.05 43.70L51.05 38.45L46.80 38.45L46.80 28.44L35.57 28.44C35.86 26.71 36.14 25.13 36.36 23.54L30.53 23.11C30.38 24.77 30.17 26.64 29.88 28.44L22.90 28.44L22.90 33.26L29.02 33.26C28.73 35.06 28.37 36.86 28.01 38.45L20.88 38.45L20.88 39.67L15.41 37.66C12.02 45.07 6.62 52.49 1.44 57.46C2.52 58.82 4.46 61.99 5.11 63.43C6.91 61.63 8.64 59.54 10.44 57.31L10.44 89.21L16.49 89.21L16.49 48.46C18.14 45.94 19.66 43.27 20.88 40.68ZM27.50 75.96C27.79 74.09 28.08 71.93 28.37 70.06L35.35 70.06L35.35 75.96ZM28.22 51.26L42.98 51.26L42.98 56.81L28.22 56.81ZM51.77 80.93L51.77 75.96L41.33 75.96L41.33 70.06L50.26 70.06L50.26 65.16L41.33 65.16L41.33 61.34L48.31 61.34L48.31 46.80L23.18 46.80L23.18 61.34L35.35 61.34L35.35 65.16L20.23 65.16L20.23 70.06L22.97 70.06C22.46 73.73 21.82 78.05 21.17 80.93L35.35 80.93L35.35 89.28L41.33 89.28L41.33 80.93ZM69.19 46.51L50.11 46.51L50.11 52.56L57.31 52.56L57.31 81.36C57.31 82.15 57.02 82.44 56.16 82.44C55.22 82.51 52.42 82.51 49.25 82.37C50.11 84.24 50.76 86.98 50.98 88.78C55.58 88.78 58.82 88.63 60.91 87.55C63.00 86.54 63.50 84.67 63.50 81.36L63.50 52.56L69.19 52.56Z"/></svg>
