<svg xmlns="http://www.w3.org/2000/svg" xmlns:xlink="http://www.w3.org/1999/xlink" width="72.00000000000001" height="106.56000000000002"><path fill="red" stroke="red" d="M65.45 23.47L59.18 23.47L59.18 50.40C59.18 51.34 58.82 51.55 57.82 51.62C56.74 51.70 53.21 51.70 49.46 51.55C50.26 53.14 51.34 55.66 51.62 57.38C56.66 57.38 60.19 57.31 62.42 56.30C64.73 55.37 65.45 53.71 65.45 50.54ZM51.34 26.78L45.29 26.78L45.29 48.31L51.34 48.31ZM30.67 38.66C28.87 41.47 26.64 43.85 23.90 45.94C21.67 43.92 18.36 41.62 15.55 39.82C16.06 39.46 16.49 39.02 16.99 38.66ZM34.78 33.70L33.77 33.98L21.53 33.98C22.61 32.76 23.54 31.46 24.34 30.17L40.68 30.17L40.68 25.13L5.90 25.13L5.90 30.17L17.71 30.17C14.26 34.70 9.00 38.52 3.38 41.04C4.68 41.98 6.77 43.92 7.70 45.00C9.00 44.28 10.37 43.49 11.59 42.77C14.26 44.57 17.35 46.87 19.37 48.82C15.05 51.12 10.15 52.70 4.90 53.64C6.05 54.86 7.34 57.10 7.92 58.61C21.74 55.44 33.70 48.74 38.66 35.35ZM60.19 65.38C57.02 67.68 52.13 70.63 47.88 72.79C45.50 70.49 43.56 67.90 41.90 65.02L68.18 65.02L68.18 59.33L37.22 59.33L40.75 58.18C39.96 56.30 37.94 53.28 36.43 51.12L30.24 52.85C31.54 54.72 33.12 57.38 33.91 59.33L3.89 59.33L3.89 65.02L27.07 65.02C20.59 69.26 11.52 72.58 2.88 74.16C4.10 75.46 5.76 77.69 6.62 79.20C10.87 78.19 15.26 76.82 19.44 75.02L19.44 79.49C19.44 82.22 18.00 83.23 16.92 83.74C17.71 84.89 18.79 87.55 19.08 88.99C20.81 87.98 23.47 87.41 42.55 83.88C42.48 82.51 42.55 80.06 42.70 78.34L25.78 81.14L25.78 71.93C29.45 69.91 32.76 67.54 35.42 65.02L35.64 65.02C41.26 77.18 50.76 85.03 65.09 88.49C65.95 86.83 67.54 84.38 68.90 83.02C62.42 81.72 56.88 79.42 52.27 76.32C56.45 74.38 61.34 71.78 65.23 69.19Z"/></svg>
