<svg xmlns="http://www.w3.org/2000/svg" xmlns:xlink="http://www.w3.org/1999/xlink" width="72.00000000000001" height="106.56000000000002"><path fill="red" stroke="red" d="M67.75 33.19C66.53 30.74 63.86 27.07 61.49 24.48L56.95 27.14C59.26 29.95 61.78 33.77 62.93 36.29ZM27.07 35.14L15.19 35.14L20.52 32.18C19.37 29.59 17.14 25.78 15.12 22.75L9.94 25.42C11.81 28.37 14.04 32.47 15.05 35.14L3.53 35.14L3.53 40.46L27.07 40.46ZM25.92 44.71L6.55 44.71L6.55 49.97L25.92 49.97ZM6.55 59.40L25.92 59.40L25.92 54.22L6.55 54.22ZM20.30 69.34L20.30 79.63L12.24 79.63L12.24 69.34ZM26.06 63.94L6.55 63.94L6.55 88.27L12.24 88.27L12.24 85.03L26.06 85.03ZM41.26 74.16L41.26 58.18L48.24 58.18L48.24 52.20L28.30 52.20L28.30 58.18L35.06 58.18L35.06 75.67C32.04 76.39 29.30 76.97 27.00 77.40L28.73 83.88C35.06 82.22 43.20 80.06 50.90 77.83L50.33 72.00ZM69.12 42.98L69.12 36.79L55.80 36.79C55.73 32.40 55.73 27.86 55.80 23.26L49.25 23.26C49.25 27.86 49.32 32.33 49.46 36.79L28.87 36.79L28.87 42.98L49.68 42.98C50.62 68.33 53.50 89.28 62.06 89.28C66.96 89.28 68.69 86.04 69.62 75.10C68.11 74.45 66.02 72.94 64.66 71.50C64.51 79.13 63.86 82.80 62.86 82.80C59.54 82.80 56.81 65.52 56.02 42.98Z"/></svg>
