<svg xmlns="http://www.w3.org/2000/svg" xmlns:xlink="http://www.w3.org/1999/xlink" width="72.00000000000001" height="106.56000000000002"><path fill="red" stroke="red" d="M28.08 27.79L3.53 27.79L3.53 33.48L28.08 33.48ZM21.10 54.36L10.80 54.36L10.80 45.07L21.10 45.07ZM26.86 39.89L5.33 39.89L5.33 59.62L26.86 59.62ZM14.11 75.38C13.68 71.93 12.53 66.53 11.38 62.42L6.34 63.58C7.34 67.75 8.42 73.15 8.78 76.68ZM30.10 75.02L22.54 76.39C23.90 72.43 25.27 67.54 26.42 63.14L20.66 61.85C19.87 66.46 18.36 73.01 16.92 77.47C11.52 78.48 6.55 79.27 2.66 79.92L4.03 86.04C11.30 84.53 21.17 82.51 30.60 80.50ZM42.55 51.62C42.19 55.94 41.62 59.83 40.90 63.29C39.17 61.78 37.15 60.26 35.06 58.75C35.93 56.52 36.65 54.07 37.30 51.62ZM43.92 46.01L38.59 46.01C38.88 44.35 39.17 42.70 39.46 41.04L35.64 40.39L35.64 35.78L62.93 35.78L62.93 42.48L68.90 42.48L68.90 29.95L53.21 29.95C52.56 27.79 51.34 24.98 50.18 22.90L43.78 24.62C44.57 26.21 45.36 28.15 45.86 29.95L29.95 29.95L29.95 42.55L33.84 42.55C32.54 50.76 30.38 58.54 26.86 63.72C27.94 64.73 29.66 67.25 30.31 68.33C31.32 66.96 32.26 65.30 33.12 63.58C35.35 65.38 37.58 67.46 39.38 69.12C37.01 76.61 33.48 81.79 28.58 85.18C29.81 85.97 31.82 88.06 32.62 89.28C41.69 82.66 46.87 69.34 48.38 46.44L45.00 45.86ZM57.74 83.59C56.95 83.59 56.45 83.52 56.02 83.30C55.51 83.02 55.37 81.86 55.37 80.06L55.37 50.26L61.99 50.26L61.99 65.88C61.99 66.53 61.78 66.67 61.06 66.74C60.48 66.74 58.39 66.74 55.94 66.67C56.59 68.11 57.24 69.98 57.38 71.42C60.98 71.42 63.36 71.42 64.94 70.56C66.60 69.70 66.96 68.33 66.96 65.88L66.96 44.78L50.11 44.78L50.11 79.63C50.11 84.89 50.69 86.04 51.98 87.05C53.21 87.98 55.15 88.34 56.74 88.34L61.34 88.34C62.93 88.34 64.58 88.13 65.74 87.70C66.89 87.19 67.75 86.33 68.33 84.96C68.83 83.66 69.12 80.21 69.19 77.18C67.61 76.68 65.59 75.67 64.44 74.74C64.44 77.98 64.30 80.42 64.08 81.58C63.86 82.66 63.36 83.16 62.93 83.30C62.57 83.52 61.70 83.59 60.84 83.59Z"/></svg>
