<svg xmlns="http://www.w3.org/2000/svg" xmlns:xlink="http://www.w3.org/1999/xlink" width="72.00000000000001" height="106.56000000000002"><path fill="red" stroke="red" d="M32.54 34.20L10.44 34.20L10.44 38.38L62.42 38.38L62.42 34.20L39.10 34.20L39.10 31.32L66.74 31.32L66.74 26.71L39.10 26.71L39.10 23.11L32.54 23.11L32.54 26.71L5.40 26.71L5.40 31.32L32.54 31.32ZM57.46 48.89L46.58 48.89L46.58 44.86L57.46 44.86ZM41.18 48.89L30.53 48.89L30.53 44.86L41.18 44.86ZM25.06 48.89L14.83 48.89L14.83 44.86L25.06 44.86ZM63.72 40.90L8.86 40.90L8.86 52.85L63.72 52.85ZM19.58 72.86L53.21 72.86L53.21 76.18L19.58 76.18ZM19.58 65.95L53.21 65.95L53.21 69.19L19.58 69.19ZM19.58 59.18L53.21 59.18L53.21 62.35L19.58 62.35ZM59.98 79.92L59.98 55.37L13.03 55.37L13.03 79.92ZM25.20 80.28C19.94 82.15 11.09 83.74 3.46 84.67C4.97 85.68 7.13 88.06 8.28 89.28C15.55 87.98 24.84 85.54 30.96 82.94ZM41.04 83.74C48.96 85.54 56.66 87.77 60.98 89.50L68.83 86.33C63.50 84.60 54.58 82.22 46.73 80.50Z"/></svg>
