<svg xmlns="http://www.w3.org/2000/svg" xmlns:xlink="http://www.w3.org/1999/xlink" width="72.00000000000001" height="106.56000000000002"><path fill="red" stroke="red" d="M20.30 39.53L11.38 39.53L11.38 31.90L20.30 31.90ZM20.30 52.49L11.38 52.49L11.38 44.64L20.30 44.64ZM20.30 65.59L11.38 65.59L11.38 57.67L20.30 57.67ZM25.99 26.50L5.90 26.50L5.90 70.99L25.99 70.99ZM9.14 72.79C7.34 76.97 4.75 81.79 2.30 85.10C3.67 85.82 5.90 87.26 6.98 88.20C9.43 84.60 12.38 79.13 14.33 74.38ZM17.35 75.17C19.66 78.62 22.46 83.30 23.83 86.40L28.37 83.38C27.00 80.57 24.12 76.18 21.67 72.72ZM62.06 62.50C59.98 64.51 56.88 67.32 54.07 69.55C52.20 66.96 50.54 64.30 49.32 61.42L68.47 61.42L68.47 55.73L41.33 55.73L41.33 50.83L63.00 50.83L63.00 45.86L41.33 45.86L41.33 41.11L62.64 41.11L62.64 36.29L41.33 36.29L41.33 31.68L65.45 31.68L65.45 26.35L34.92 26.35L34.92 55.73L28.66 55.73L28.66 61.42L33.41 61.42L33.41 78.62C33.41 81.22 31.54 82.37 30.10 82.87C31.10 84.60 32.11 87.98 32.47 89.64L33.19 89.14C34.85 88.13 38.16 86.83 49.82 82.73C49.61 81.43 49.39 78.91 49.39 77.26L39.67 80.35L39.67 61.42L43.63 61.42C48.17 73.01 56.02 83.30 65.52 88.56C66.46 86.90 68.40 84.38 69.77 83.16C65.23 80.93 60.84 77.54 57.17 73.44C60.19 71.42 63.65 68.90 66.74 66.60Z"/></svg>
