<svg xmlns="http://www.w3.org/2000/svg" xmlns:xlink="http://www.w3.org/1999/xlink" width="72.00000000000001" height="106.56000000000002"><path fill="red" stroke="red" d="M25.63 79.63C20.45 81.72 11.66 83.74 4.46 84.74C5.54 85.90 7.42 88.42 8.14 89.71C15.41 88.06 24.84 85.10 30.82 82.15ZM19.80 72.29L52.49 72.29L52.49 75.60L19.80 75.60ZM19.80 65.38L52.49 65.38L52.49 68.62L19.80 68.62ZM19.80 58.54L52.49 58.54L52.49 61.78L19.80 61.78ZM59.26 79.42L59.26 54.72L13.39 54.72L13.39 79.42L43.56 79.42L41.54 83.02C50.11 84.96 58.82 87.55 64.37 89.57L67.18 84.96C61.99 83.23 54.00 81.14 46.22 79.42ZM57.38 33.77C56.45 36.72 54.65 39.31 52.27 41.47C49.82 39.24 47.81 36.65 46.22 33.77ZM68.11 33.77L68.11 28.87L49.18 28.87C49.97 27.43 50.62 26.06 51.12 24.62L45.43 23.18C43.49 28.15 40.03 33.05 35.93 36.29C37.30 37.22 39.46 39.38 40.39 40.39C41.18 39.67 41.98 38.81 42.70 38.02C44.21 40.39 45.94 42.55 47.88 44.57C44.50 46.51 40.25 48.02 35.42 48.96C35.57 48.02 35.64 47.02 35.78 45.72C35.86 45.14 35.93 43.99 35.93 43.99L20.02 43.99C20.23 43.42 20.38 42.77 20.59 42.05L37.37 42.05L37.37 38.45L25.34 38.45C24.84 37.51 24.26 36.58 23.76 35.78L35.64 35.78L35.64 32.33L24.62 32.33L24.62 29.88L37.22 29.88L37.22 26.28L24.62 26.28L24.62 23.11L18.29 23.11L18.29 26.28L5.76 26.28L5.76 29.88L18.29 29.88L18.29 32.33L7.06 32.33L7.06 35.78L23.33 35.78L18.22 36.86C18.50 37.30 18.79 37.87 19.08 38.45L4.03 38.45L4.03 42.05L14.47 42.05C13.10 46.44 10.15 49.46 2.66 51.41C3.96 52.42 5.47 54.43 6.05 55.87C12.31 53.93 16.06 51.19 18.36 47.52L29.74 47.52C29.59 48.96 29.38 49.68 29.02 50.04C28.58 50.40 28.15 50.47 27.29 50.47C26.50 50.47 24.48 50.47 22.18 50.18C22.68 51.12 23.18 52.63 23.26 53.50C25.99 53.71 28.73 53.78 30.02 53.71C31.61 53.64 32.98 53.28 33.91 52.42C34.63 51.77 35.14 50.69 35.42 49.03C36.43 50.18 37.80 52.27 38.38 53.64C43.78 52.49 48.46 50.76 52.27 48.31C56.16 51.19 60.77 53.28 65.81 54.65C66.67 53.14 68.18 50.98 69.41 49.82C64.73 48.82 60.55 47.09 56.88 44.86C60.12 41.76 62.50 38.09 63.86 33.77Z"/></svg>
