<svg xmlns="http://www.w3.org/2000/svg" xmlns:xlink="http://www.w3.org/1999/xlink" width="72.00000000000001" height="106.56000000000002"><path fill="red" stroke="red" d="M48.02 22.46C44.42 29.30 37.01 35.42 29.59 38.09C30.82 39.46 32.26 42.05 32.98 43.63C38.52 41.11 44.14 36.72 48.38 31.75C53.06 36.72 59.47 41.47 65.38 43.99C66.38 42.55 68.26 40.25 69.62 39.10C63.14 36.79 55.94 32.04 51.62 27.29C52.06 26.64 52.42 25.92 52.78 25.34ZM50.11 38.81C46.80 42.77 40.39 46.66 34.92 48.82C36.29 49.82 37.87 51.48 38.88 52.78C45.00 50.04 51.41 45.86 55.58 40.90ZM55.87 48.31C51.55 53.35 43.27 57.96 35.64 60.41C37.01 61.63 38.66 63.50 39.60 64.87C47.81 61.78 56.23 56.74 61.42 50.62ZM60.62 58.03C55.51 65.38 45.14 70.70 33.48 73.30C34.85 74.59 36.43 76.75 37.15 78.34C49.97 74.95 60.62 69.12 66.67 60.34ZM23.11 66.10L32.40 66.10L32.40 60.26L23.11 60.26L23.11 51.26L33.12 51.26L33.12 45.36L22.18 45.36L22.18 37.01L31.61 37.01L31.61 31.18L22.18 31.18L22.18 23.11L16.06 23.11L16.06 31.18L5.26 31.18L5.26 37.01L16.06 37.01L16.06 45.36L3.46 45.36L3.46 51.26L17.14 51.26L17.14 74.59C15.12 72.36 13.54 69.34 12.31 65.38C12.53 62.14 12.60 58.90 12.60 55.87L6.98 55.44C7.06 64.73 6.34 76.39 1.66 84.96C3.17 85.61 5.26 87.41 6.34 88.78C8.57 84.67 10.08 79.99 11.09 75.24C16.27 85.18 24.84 87.34 39.53 87.34L67.10 87.34C67.46 85.39 68.69 82.30 69.70 80.71C64.51 80.93 43.78 80.93 39.46 80.93C32.62 80.93 27.29 80.42 23.11 78.77Z"/></svg>
