<svg xmlns="http://www.w3.org/2000/svg" xmlns:xlink="http://www.w3.org/1999/xlink" width="72.00000000000001" height="106.56000000000002"><path fill="red" stroke="red" d="M66.96 33.91C65.16 31.03 61.06 26.78 57.60 23.90L52.63 27.07C56.02 30.17 59.98 34.56 61.78 37.37ZM12.74 67.10L21.10 67.10L21.10 70.49L12.74 70.49ZM12.74 60.26L21.10 60.26L21.10 63.65L12.74 63.65ZM34.13 63.65L26.21 63.65L26.21 60.26L34.13 60.26ZM34.13 70.49L26.21 70.49L26.21 67.10L34.13 67.10ZM59.54 47.74C57.89 53.93 55.66 59.69 52.70 65.02C51.70 59.04 50.83 51.91 50.40 43.92L68.26 43.92L68.26 38.59L50.11 38.59C49.97 33.70 49.90 28.51 49.97 23.18L43.27 23.18C43.27 28.44 43.34 33.62 43.56 38.59L26.86 38.59L26.86 33.77L39.02 33.77L39.02 28.51L26.86 28.51L26.86 23.18L20.45 23.18L20.45 28.51L7.49 28.51L7.49 33.77L20.45 33.77L20.45 38.59L3.96 38.59L3.96 43.92L43.85 43.92C44.50 55.08 45.65 65.16 47.81 72.79C45.86 75.53 43.78 77.90 41.47 80.06L41.47 77.54L26.64 77.54L26.64 74.09L39.24 74.09L39.24 56.74L26.71 56.74L26.71 53.35L41.33 53.35L41.33 48.46L26.71 48.46L26.71 44.57L20.66 44.57L20.66 48.46L5.76 48.46L5.76 53.35L20.66 53.35L20.66 56.74L7.85 56.74L7.85 74.09L20.74 74.09L20.74 77.54L4.82 77.54L4.82 82.51L20.74 82.51L20.74 89.28L26.64 89.28L26.64 82.51L38.59 82.51C37.80 83.16 37.01 83.74 36.22 84.31C37.87 85.54 39.89 87.62 40.97 89.28C44.42 86.69 47.59 83.59 50.40 80.06C52.99 85.46 56.38 88.56 60.84 88.56C66.24 88.56 68.33 85.54 69.34 74.59C67.75 73.87 65.52 72.50 64.15 71.06C63.79 78.98 63.07 82.08 61.42 82.08C58.82 82.08 56.66 79.06 54.94 73.80C59.47 66.67 62.93 58.46 65.52 49.46Z"/></svg>
