<svg xmlns="http://www.w3.org/2000/svg" xmlns:xlink="http://www.w3.org/1999/xlink" width="72.00000000000001" height="106.56000000000002"><path fill="red" stroke="red" d="M58.82 36.14L43.92 36.14L43.92 30.24L58.82 30.24ZM65.45 25.34L37.66 25.34L37.66 41.04L65.45 41.04ZM58.97 55.37L44.21 55.37L44.21 50.04L58.97 50.04ZM44.21 75.82L44.21 70.42L58.97 70.42L58.97 75.82ZM58.97 65.52L44.21 65.52L44.21 60.19L58.97 60.19ZM10.37 55.87L16.13 55.87L16.13 61.34L10.37 61.34ZM10.37 45.79L16.13 45.79L16.13 51.19L10.37 51.19ZM26.86 51.19L20.88 51.19L20.88 45.79L26.86 45.79ZM26.86 61.34L20.88 61.34L20.88 55.87L26.86 55.87ZM69.19 50.04L69.19 44.71L33.62 44.71L33.62 50.04L38.02 50.04L38.02 75.82L34.13 75.82L34.13 71.35L21.53 71.35L21.53 66.24L32.04 66.24L32.04 40.97L21.53 40.97L21.53 36.29L33.26 36.29L33.26 30.46L21.53 30.46L21.53 23.11L15.55 23.11L15.55 30.46L3.60 30.46L3.60 36.29L15.55 36.29L15.55 40.97L5.40 40.97L5.40 66.24L15.55 66.24L15.55 71.35L2.88 71.35L2.88 77.26L15.55 77.26L15.55 89.28L21.53 89.28L21.53 77.26L32.62 77.26L32.62 81.72L58.97 81.72L58.97 89.21L65.16 89.21L65.16 81.72L68.98 81.72L68.98 75.82L65.16 75.82L65.16 50.04Z"/></svg>
