<svg xmlns="http://www.w3.org/2000/svg" xmlns:xlink="http://www.w3.org/1999/xlink" width="72.00000000000001" height="106.56000000000002"><path fill="red" stroke="red" d="M10.44 56.16L15.05 56.16L15.05 61.99L10.44 61.99ZM10.44 45.79L15.05 45.79L15.05 51.48L10.44 51.48ZM24.70 51.48L20.02 51.48L20.02 45.79L24.70 45.79ZM24.70 61.99L20.02 61.99L20.02 56.16L24.70 56.16ZM20.52 66.82L30.10 66.82L30.10 40.90L20.52 40.90L20.52 36.07L31.25 36.07L31.25 30.38L20.52 30.38L20.52 23.11L14.40 23.11L14.40 30.38L3.74 30.38L3.74 36.07L14.40 36.07L14.40 40.90L5.18 40.90L5.18 66.82L14.47 66.82L14.47 71.93L3.10 71.93L3.10 77.62L14.47 77.62L14.47 89.14L20.52 89.14L20.52 77.62L31.32 77.62L31.32 71.93L20.52 71.93ZM58.61 73.01L58.61 81.72L42.05 81.72L42.05 73.01ZM35.93 89.21L42.05 89.21L42.05 86.98L58.61 86.98L58.61 88.99L65.02 88.99L65.02 67.82L35.93 67.82ZM53.35 58.75L53.35 55.08L65.16 55.08L65.16 50.26L53.35 50.26L53.35 45.43C58.03 45.00 62.35 44.35 65.88 43.49L63.43 41.11L68.33 41.11L68.33 30.17L55.01 30.17C53.93 27.86 51.84 24.70 49.75 22.32L44.42 24.48C45.72 26.14 47.16 28.30 48.24 30.17L32.54 30.17L32.54 41.18L38.30 41.18L38.30 35.28L62.28 35.28L62.28 39.96L61.63 39.31C59.47 39.82 56.52 40.32 53.35 40.68L53.35 36.86L47.09 36.86L47.09 41.26C42.77 41.54 38.30 41.76 34.20 41.83C34.85 43.13 35.50 45.07 35.71 46.30C39.31 46.30 43.20 46.15 47.09 45.94L47.09 50.26L35.93 50.26L35.93 55.08L47.09 55.08L47.09 58.75L32.47 58.75L32.47 63.94L68.98 63.94L68.98 58.75Z"/></svg>
