<svg xmlns="http://www.w3.org/2000/svg" xmlns:xlink="http://www.w3.org/1999/xlink" width="72.00000000000001" height="106.56000000000002"><path fill="red" stroke="red" d="M68.47 38.45L52.85 38.45L52.85 33.55L66.10 33.55L66.10 28.30L52.85 28.30L52.85 23.11L46.66 23.11L46.66 28.30L34.56 28.30L34.56 33.55L46.66 33.55L46.66 38.45L32.11 38.45L32.11 43.85L68.47 43.85ZM40.39 52.42L58.97 52.42L58.97 58.82L40.39 58.82ZM10.37 56.16L14.76 56.16L14.76 61.92L10.37 61.92ZM10.37 45.79L14.76 45.79L14.76 51.48L10.37 51.48ZM24.41 51.48L19.66 51.48L19.66 45.79L24.41 45.79ZM24.41 61.92L19.66 61.92L19.66 56.16L24.41 56.16ZM65.45 64.58C63.36 66.60 60.19 69.12 57.46 71.14C56.38 68.90 55.44 66.38 54.72 63.79L65.23 63.79L65.23 47.45L34.42 47.45L34.42 63.79L44.42 63.79C40.54 67.90 35.06 71.35 29.45 73.73L29.45 71.93L20.16 71.93L20.16 66.82L29.66 66.82L29.66 40.90L20.23 40.90L20.23 36.07L30.74 36.07L30.74 30.38L20.23 30.38L20.23 23.11L14.26 23.11L14.26 30.38L3.89 30.38L3.89 36.07L14.26 36.07L14.26 40.90L5.26 40.90L5.26 66.82L14.18 66.82L14.18 71.93L3.10 71.93L3.10 77.62L14.18 77.62L14.18 89.14L20.16 89.14L20.16 77.62L29.45 77.62L29.45 76.32C30.24 77.47 31.10 78.77 31.46 79.49C33.77 78.48 36.07 77.11 38.38 75.74L38.38 79.78C38.38 82.37 37.15 83.16 36.07 83.59C36.94 85.03 37.87 87.70 38.16 89.21C39.24 88.34 41.18 87.55 52.34 83.66C52.13 82.58 51.91 80.42 51.91 79.13L43.63 81.58L43.63 71.93C45.86 70.06 48.02 68.04 49.82 65.81C52.78 76.61 57.82 84.96 66.24 89.35C67.03 87.77 68.83 85.39 70.13 84.17C65.95 82.37 62.57 79.34 59.90 75.46C62.86 73.66 66.46 71.21 69.34 68.90Z"/></svg>
