<svg xmlns="http://www.w3.org/2000/svg" xmlns:xlink="http://www.w3.org/1999/xlink" width="72.00000000000001" height="106.56000000000002"><path fill="red" stroke="red" d="M42.05 39.74L42.05 43.27C42.05 45.29 41.98 47.45 41.76 49.54L22.46 49.54L22.46 55.58L40.54 55.58C38.59 62.06 33.98 68.47 23.26 72.94C24.77 74.16 26.86 76.61 27.72 77.98C36.79 73.58 42.05 67.82 45.07 61.63C51.55 66.67 58.39 72.86 61.70 77.26L66.82 72.94C62.78 67.90 54.29 60.91 47.16 55.94L47.23 55.58L68.04 55.58L68.04 49.54L48.38 49.54C48.60 47.45 48.67 45.36 48.67 43.34L48.67 39.74L64.58 39.74L64.58 33.70L48.67 33.70L48.67 23.18L42.05 23.18L42.05 33.70L35.06 33.70C35.93 31.32 36.72 28.80 37.22 26.35L30.67 25.13C29.02 32.62 25.92 40.03 21.74 44.71C23.33 45.36 26.42 46.94 27.86 47.88C29.59 45.58 31.18 42.84 32.62 39.74ZM16.99 35.06C16.06 31.90 14.40 27.14 13.03 23.40L7.20 25.13C8.35 28.94 10.08 34.06 10.94 37.22ZM18.65 55.87L17.64 56.16L13.61 56.16C15.41 51.12 17.42 45.29 19.01 40.18L3.46 40.18L3.46 46.22L10.73 46.22C8.86 51.84 6.77 57.67 5.04 61.92L14.26 61.92C13.10 66.82 11.45 72.00 9.50 75.89C7.27 77.33 4.75 80.14 2.23 83.38L6.77 89.57C8.71 85.18 11.23 80.50 12.82 80.50C14.40 80.50 16.99 83.02 19.87 84.67C25.13 87.70 31.32 88.49 40.75 88.49C49.18 88.49 62.35 88.06 67.97 87.70C68.04 85.90 69.12 82.58 69.91 80.78C61.92 81.79 49.82 82.44 41.04 82.44C32.62 82.44 26.06 82.01 21.02 78.98C18.72 77.54 17.14 76.32 15.77 75.60C18.36 70.20 20.30 63.43 21.67 57.02Z"/></svg>
