<svg xmlns="http://www.w3.org/2000/svg" xmlns:xlink="http://www.w3.org/1999/xlink" width="72.00000000000001" height="106.56000000000002"><path fill="red" stroke="red" d="M68.98 66.82C65.81 62.71 59.47 57.31 53.57 52.99C57.24 50.40 61.49 46.94 65.16 43.78L59.62 40.32C57.02 43.42 52.56 47.52 48.89 50.33C47.30 47.59 45.29 44.93 42.70 42.70C44.21 41.62 45.65 40.46 46.94 39.24L67.90 39.24L67.90 33.70L54.50 33.70C56.38 31.39 58.61 28.15 60.70 24.91L54.00 23.18C52.78 25.92 50.40 29.95 48.53 32.54L52.34 33.70L35.71 33.70L38.52 32.47C37.73 29.88 35.35 26.06 32.98 23.40L27.58 25.56C29.45 28.01 31.46 31.18 32.47 33.70L21.82 33.70L21.82 39.24L38.74 39.24C33.55 42.77 26.86 45.72 20.59 47.66C21.74 48.74 23.69 51.19 24.48 52.34C29.02 50.69 33.84 48.38 38.30 45.65C39.31 46.58 40.10 47.52 40.90 48.46C36.43 52.27 29.16 56.16 23.18 58.10C24.41 59.11 25.99 60.98 26.86 62.35C32.26 60.19 38.74 56.38 43.49 52.34C44.21 53.64 44.78 54.94 45.29 56.23C39.74 62.21 29.81 67.68 20.95 70.42C22.25 71.50 23.98 73.73 24.84 75.10C32.40 72.43 40.46 67.61 46.58 62.06C47.02 66.46 46.15 70.20 44.42 71.64C43.34 72.94 41.98 73.08 40.25 73.08C38.66 73.08 36.65 73.01 34.27 72.72C35.42 74.52 36.00 76.90 36.14 78.55C38.02 78.70 39.89 78.77 41.40 78.77C44.64 78.77 46.66 78.12 48.82 76.10C52.20 73.44 53.71 66.60 52.20 59.26C57.10 63.29 61.70 67.75 64.30 71.21ZM16.99 35.06C16.06 31.90 14.40 27.14 13.03 23.40L7.20 25.13C8.28 28.94 10.08 34.06 10.94 37.22ZM18.65 55.87L17.64 56.16L13.61 56.16C15.34 51.19 17.42 45.29 18.94 40.18L3.46 40.18L3.46 46.22L10.73 46.22C8.86 51.84 6.77 57.67 4.97 61.92L14.26 61.92C13.10 66.82 11.45 71.93 9.50 75.82C7.27 77.33 4.68 80.06 2.23 83.38L6.77 89.57C8.71 85.18 11.23 80.50 12.82 80.50C14.40 80.50 16.99 83.02 19.87 84.67C25.13 87.70 31.32 88.49 40.75 88.49C49.18 88.49 62.35 88.06 67.97 87.70C68.11 85.90 69.12 82.58 69.91 80.78C61.92 81.79 49.82 82.44 41.04 82.44C32.62 82.44 25.99 82.01 21.02 78.91C18.72 77.47 17.14 76.32 15.77 75.53C18.36 70.20 20.30 63.43 21.67 57.02Z"/></svg>
