<svg xmlns="http://www.w3.org/2000/svg" xmlns:xlink="http://www.w3.org/1999/xlink" width="72.00000000000001" height="106.56000000000002"><path fill="red" stroke="red" d="M26.21 47.88C26.21 55.66 25.42 66.38 18.94 73.87C20.23 74.66 22.10 76.54 23.04 77.69C30.02 70.06 31.46 59.18 31.68 50.26L37.37 50.26C36.94 65.74 36.50 71.35 35.57 72.65C35.06 73.44 34.56 73.58 33.77 73.51C32.90 73.51 31.18 73.51 29.16 73.30C30.02 74.81 30.46 77.11 30.60 78.77C32.98 78.84 35.21 78.84 36.65 78.55C38.45 78.41 39.46 77.76 40.61 76.32C42.12 74.16 42.62 67.25 43.06 47.30C43.06 46.51 43.13 44.78 43.13 44.78L31.68 44.78L31.68 38.23L42.98 38.23C42.62 38.81 42.19 39.31 41.83 39.82C43.13 40.61 45.50 42.48 46.51 43.42L47.02 42.70L47.02 46.73L58.54 46.73C57.10 48.31 55.37 49.82 53.86 50.98L53.86 56.38L44.86 56.38L44.86 61.70L53.86 61.70L53.86 72.14C53.86 72.86 53.64 73.08 52.78 73.08C52.06 73.15 49.32 73.15 46.51 73.08C47.30 74.59 48.24 76.97 48.46 78.62C52.42 78.62 55.30 78.48 57.17 77.54C59.11 76.68 59.54 75.02 59.54 72.22L59.54 61.70L68.54 61.70L68.54 56.38L59.54 56.38L59.54 52.49C62.50 50.04 65.52 46.94 67.90 44.06L64.30 41.33L63.14 41.62L47.74 41.62C48.82 39.96 49.75 38.16 50.76 36.14L68.26 36.14L68.26 30.60L53.14 30.60C53.93 28.51 54.65 26.35 55.22 24.26L49.46 22.75C48.31 27.72 46.30 32.69 43.99 36.65L43.99 32.69L36.79 32.69C36.00 30.17 34.63 26.64 33.41 23.83L27.43 25.06C28.37 27.36 29.38 30.31 30.10 32.69L19.80 32.69L19.80 38.23L26.21 38.23ZM15.77 35.28C14.90 32.18 13.39 27.36 12.17 23.69L6.91 25.13C7.99 28.94 9.58 34.06 10.37 37.15ZM16.92 55.94L15.91 56.16L12.53 56.16C14.04 51.19 15.84 45.29 17.28 40.18L3.46 40.18L3.46 46.22L10.01 46.22C8.42 51.84 6.62 57.67 5.04 61.92L13.03 61.92C12.10 66.82 10.66 71.93 9.00 75.82C6.84 77.18 4.39 79.99 2.02 83.66L6.41 89.64C7.85 85.46 9.94 80.71 11.23 80.71C12.82 80.71 15.48 83.16 18.43 84.82C23.83 87.98 30.17 88.70 39.67 88.70C48.31 88.70 61.78 88.20 67.39 87.84C67.46 86.11 68.47 82.94 69.19 81.22C61.20 82.22 49.10 82.87 39.89 82.87C31.32 82.87 24.55 82.44 19.58 79.34C17.28 77.90 15.70 76.75 14.33 75.96C16.56 70.56 18.36 63.36 19.58 56.95Z"/></svg>
