<svg xmlns="http://www.w3.org/2000/svg" xmlns:xlink="http://www.w3.org/1999/xlink" width="72.00000000000001" height="106.56000000000002"><path fill="red" stroke="red" d="M58.54 35.14L52.34 35.14L52.34 29.23L58.54 29.23ZM47.09 35.14L40.97 35.14L40.97 29.23L47.09 29.23ZM35.71 35.14L29.81 35.14L29.81 29.23L35.71 29.23ZM64.51 25.20L24.12 25.20L24.12 39.17L64.51 39.17ZM68.11 41.98L20.45 41.98L20.45 46.80L68.11 46.80ZM55.73 58.61L32.47 58.61L32.47 53.64L55.73 53.64ZM44.57 67.25C50.69 70.99 58.82 76.25 62.86 79.49L66.17 75.31C64.08 73.80 60.84 71.71 57.53 69.62C60.05 68.26 62.78 66.60 65.09 64.87L61.42 62.57L62.28 62.57L62.28 49.68L26.28 49.68L26.28 62.57L38.23 62.57C33.05 65.38 26.21 67.82 20.02 68.98C21.17 70.13 22.75 72.14 23.62 73.66C26.35 72.94 29.16 71.93 31.97 70.85L31.97 73.15C31.97 75.74 30.53 76.68 29.45 77.11C30.17 78.12 31.10 80.35 31.39 81.72C32.69 80.78 34.78 80.14 48.53 76.39C48.24 75.31 47.95 73.22 47.88 71.78L37.66 74.38L37.66 68.04C40.75 66.46 43.63 64.51 46.08 62.57L59.90 62.57C58.03 64.01 55.58 65.66 53.35 67.03C51.34 65.81 49.46 64.66 47.66 63.65ZM16.99 34.99C16.13 31.90 14.40 27.07 13.03 23.33L7.20 25.13C8.35 28.87 10.08 33.98 10.94 37.15ZM18.65 55.87L17.57 56.16L13.75 56.16C15.62 51.19 17.71 45.29 19.37 40.18L3.53 40.18L3.53 46.22L11.02 46.22C9.14 51.84 6.98 57.67 5.04 61.92L14.26 61.92C13.18 66.74 11.74 71.86 9.86 75.74C7.49 77.11 4.82 79.99 2.30 83.38L6.84 89.57C8.78 85.18 11.30 80.50 12.89 80.50C14.47 80.50 17.06 83.02 19.94 84.67C25.20 87.70 31.39 88.49 40.82 88.49C49.18 88.49 62.42 88.06 67.97 87.70C68.11 85.90 69.19 82.58 69.98 80.78C61.99 81.79 49.82 82.44 41.11 82.44C32.62 82.44 26.06 82.01 21.10 78.98C18.79 77.62 17.28 76.39 15.98 75.67C18.43 70.27 20.30 63.36 21.60 56.95Z"/></svg>
