<svg xmlns="http://www.w3.org/2000/svg" xmlns:xlink="http://www.w3.org/1999/xlink" width="72.00000000000001" height="106.56000000000002"><path fill="red" stroke="red" d="M35.06 28.87C32.40 29.88 29.02 30.89 25.27 31.75L25.27 23.26L18.65 23.26L18.65 33.12C13.75 34.06 8.64 34.85 3.89 35.42C4.68 36.86 5.54 39.38 5.76 40.90C9.79 40.46 14.26 39.96 18.65 39.31L18.65 47.16L5.98 47.16L5.98 53.06L18.65 53.06C18.58 56.02 18.36 58.97 17.93 61.85L3.31 61.85L3.31 68.11L16.56 68.11C14.69 74.45 11.09 80.14 4.46 85.03C6.26 85.97 8.78 88.27 9.94 89.64C17.86 83.66 21.74 76.18 23.62 68.11L38.23 68.11L38.23 61.85L24.70 61.85C25.06 58.97 25.20 56.02 25.27 53.06L36.14 53.06L36.14 47.16L25.27 47.16L25.27 38.09C30.24 37.08 34.92 35.93 38.81 34.63ZM63.72 27.07L62.71 27.36L40.75 27.36L40.75 89.21L47.38 89.21L47.38 33.55L59.76 33.55C57.38 39.24 54.22 46.73 51.26 52.34C58.82 58.25 61.06 63.43 61.06 67.75C61.06 70.34 60.55 72.14 58.97 73.01C58.03 73.51 56.81 73.80 55.66 73.87C54.14 73.94 52.20 73.87 49.90 73.66C51.05 75.46 51.77 78.34 51.84 80.14C54.07 80.28 56.52 80.28 58.46 80.06C60.41 79.85 62.21 79.20 63.50 78.41C66.31 76.61 67.54 73.22 67.54 68.47C67.54 63.50 65.81 57.82 58.18 51.48C61.63 45.07 65.59 37.01 68.62 30.17Z"/></svg>
