<svg xmlns="http://www.w3.org/2000/svg" xmlns:xlink="http://www.w3.org/1999/xlink" width="72.00000000000001" height="106.56000000000002"><path fill="red" stroke="red" d="M20.02 53.35C19.73 55.51 19.37 57.60 18.94 59.62L11.81 60.48C16.63 54.22 21.38 46.15 25.13 38.45L19.66 36.22C18.72 38.38 17.64 40.61 16.63 42.77L11.02 43.20C14.04 38.16 17.14 31.82 19.37 25.56L13.10 24.05C11.30 31.10 7.63 38.52 6.48 40.46C5.40 42.41 4.39 43.85 3.24 44.06C3.96 45.58 4.90 48.53 5.26 49.75C6.19 49.32 7.70 48.89 13.68 48.24C11.16 52.63 8.93 56.16 7.85 57.53C6.05 60.05 4.61 61.78 3.10 62.06C3.74 63.58 4.68 66.31 4.97 67.46C6.19 66.82 7.99 66.46 17.50 64.94C14.76 73.37 10.15 79.70 3.02 83.81C4.18 84.89 5.98 87.19 6.55 88.34C17.50 81.29 23.18 70.13 25.49 54.00ZM39.74 36.07L39.74 43.99L31.68 43.99L31.68 36.07ZM31.68 56.95L31.68 49.39L39.74 49.39L39.74 56.95ZM35.57 66.89C36.72 69.55 37.87 72.58 38.88 75.53L31.68 77.76L31.68 62.64L45.14 62.64L45.14 30.38L39.67 30.38C38.66 28.15 37.01 25.34 35.28 23.18L30.10 25.13C31.10 26.71 32.26 28.58 33.19 30.38L25.85 30.38L25.85 76.90C25.85 79.78 23.98 81.14 22.61 81.72C23.47 82.80 24.48 85.10 24.84 86.40C26.06 85.54 28.08 84.74 40.46 80.57C41.11 82.58 41.47 84.46 41.76 85.97L47.45 83.81C46.44 78.98 43.56 71.14 40.82 65.09ZM64.80 26.42L63.86 26.71L48.24 26.71L48.24 89.06L53.86 89.06L53.86 32.62L61.78 32.62C60.26 38.23 58.18 45.72 56.09 51.41C61.13 57.67 62.42 62.86 62.42 67.10C62.42 69.62 62.06 71.71 60.91 72.50C60.34 73.01 59.54 73.22 58.68 73.30C57.60 73.30 56.16 73.30 54.72 73.15C55.66 74.81 56.09 77.47 56.09 79.13C57.89 79.20 59.69 79.20 61.06 79.06C62.71 78.84 64.01 78.34 65.16 77.54C67.25 75.89 68.11 72.43 68.11 67.90C68.11 63.00 66.89 57.38 61.78 50.76C64.22 44.35 66.96 35.93 69.05 29.16Z"/></svg>
