<svg xmlns="http://www.w3.org/2000/svg" xmlns:xlink="http://www.w3.org/1999/xlink" width="72.00000000000001" height="106.56000000000002"><path fill="red" stroke="red" d="M34.20 78.41C34.99 75.82 35.93 72.79 36.72 69.91L30.38 68.33C29.95 71.42 29.09 75.74 28.15 79.13C19.66 80.06 11.74 80.86 5.90 81.43L6.70 86.90C16.06 85.82 29.81 84.17 42.70 82.58L42.62 77.40ZM12.67 70.06C14.26 73.37 15.55 77.69 15.91 80.35L21.74 78.55C21.31 75.89 19.80 71.71 18.22 68.54ZM31.75 63.07L16.78 63.07L16.78 56.23L31.75 56.23ZM40.90 33.77C39.74 34.92 38.02 36.43 36.36 37.73L33.98 33.77C35.93 32.47 38.09 30.74 40.03 29.09L36.29 25.27C35.06 26.57 33.26 28.22 31.54 29.74L28.73 25.13L24.19 27.65C26.71 31.90 29.66 36.86 32.18 41.54L18.50 41.54C20.88 37.44 22.82 32.69 24.05 27.36L20.74 25.78L19.80 25.99L7.56 25.99L7.56 31.54L17.42 31.54C16.56 33.84 15.62 36.00 14.40 38.02C12.82 36.58 10.66 35.21 8.93 34.13L5.76 38.30C7.56 39.53 9.65 41.11 11.30 42.62C8.86 45.72 5.83 48.24 2.74 50.11C3.89 50.98 5.69 53.21 6.41 54.50C10.30 51.98 13.97 48.38 16.99 43.92L16.99 46.80L32.62 46.80L32.62 42.34C34.42 45.65 36.00 48.67 37.15 51.19L10.94 51.19L10.94 68.04L37.94 68.04L37.94 52.27L42.70 49.32C41.69 47.38 40.39 44.78 38.88 42.12C40.90 40.82 42.98 39.31 45.00 37.66ZM64.58 25.49L63.58 25.78L45.14 25.78L45.14 88.49L51.41 88.49L51.41 31.82L61.13 31.82C59.40 37.30 56.88 44.86 54.65 50.47C60.34 56.59 61.99 61.85 61.99 66.02C61.99 68.62 61.56 70.56 60.26 71.35C59.62 71.86 58.68 72.07 57.60 72.14C56.45 72.14 54.79 72.14 52.99 72.00C54.00 73.80 54.58 76.54 54.65 78.26C56.59 78.34 58.68 78.34 60.26 78.12C61.99 77.90 63.50 77.40 64.80 76.61C67.10 74.88 68.18 71.50 68.11 66.82C68.11 61.92 66.74 56.30 60.91 49.75C63.65 43.34 66.74 35.06 69.19 28.30Z"/></svg>
