<svg xmlns="http://www.w3.org/2000/svg" xmlns:xlink="http://www.w3.org/1999/xlink" width="72.00000000000001" height="106.56000000000002"><path fill="red" stroke="red" d="M24.62 57.02L24.12 57.02L22.68 57.02C22.10 57.02 21.96 56.95 21.96 56.02L21.96 45.00L24.62 45.00ZM9.65 78.70L9.65 72.29L24.62 72.29L24.62 78.70ZM12.38 45.00L12.38 51.12C12.38 54.36 12.02 58.10 9.65 61.27L9.65 45.00ZM15.91 31.54L18.58 31.54L18.58 39.46L15.91 39.46ZM24.62 60.62L24.62 67.39L9.65 67.39L9.65 62.93C10.37 63.43 11.09 64.15 11.52 64.66C15.12 60.91 15.91 55.37 15.91 51.19L15.91 45.00L18.58 45.00L18.58 56.16C18.58 59.83 19.37 60.62 22.25 60.62ZM23.18 31.54L30.96 31.54L30.96 26.21L3.46 26.21L3.46 31.54L11.30 31.54L11.30 39.46L4.90 39.46L4.90 88.56L9.65 88.56L9.65 84.02L24.62 84.02L24.62 87.55L29.52 87.55L29.52 39.46L23.18 39.46ZM55.94 70.78C54.22 68.76 50.76 65.59 48.10 63.36L44.28 66.24C46.94 68.62 50.40 71.93 52.06 74.09ZM40.54 74.16C40.97 70.63 41.47 66.67 41.98 62.57L58.90 62.57C58.68 67.46 58.39 71.21 58.10 74.16ZM59.40 46.80C59.33 50.69 59.18 54.14 59.11 57.31L52.99 57.31L56.88 54.14C55.15 52.34 51.84 49.54 49.32 47.66L45.50 50.40C48.10 52.49 51.19 55.44 52.85 57.31L42.55 57.31C42.98 53.78 43.34 50.18 43.70 46.80ZM68.83 62.57L68.83 57.31L64.73 57.31C64.87 53.50 65.02 49.18 65.16 44.35L65.16 41.47L38.59 41.47C39.67 39.74 40.68 37.80 41.76 35.86L67.32 35.86L67.32 30.10L44.50 30.10C45.14 28.30 45.86 26.50 46.51 24.70L40.68 23.11C38.23 30.67 34.20 38.23 29.74 43.27C31.25 43.99 33.70 45.86 34.85 46.80C36.07 45.36 37.22 43.63 38.45 41.76C38.02 46.51 37.44 51.91 36.86 57.31L31.46 57.31L31.46 62.57L36.22 62.57C35.42 68.90 34.49 75.02 33.77 79.56L39.67 79.56L39.67 79.49L57.38 79.49C57.02 81.00 56.74 81.94 56.30 82.44C55.58 83.38 54.94 83.52 53.64 83.52C52.27 83.52 48.89 83.52 45.22 83.16C46.08 84.60 46.73 86.83 46.87 88.34C50.40 88.49 54.00 88.63 56.16 88.34C58.39 88.13 59.98 87.48 61.34 85.61C62.14 84.53 62.78 82.66 63.22 79.49L67.25 79.49L67.25 74.16L63.79 74.16C64.08 71.06 64.30 67.32 64.51 62.57Z"/></svg>
