<svg xmlns="http://www.w3.org/2000/svg" xmlns:xlink="http://www.w3.org/1999/xlink" width="72.00000000000001" height="106.56000000000002"><path fill="red" stroke="red" d="M68.69 28.51L54.00 28.51C53.35 26.71 52.20 24.55 51.12 22.90L45.65 24.48C46.37 25.70 46.94 27.07 47.52 28.51L32.54 28.51L32.54 33.34L68.69 33.34ZM11.59 67.39L11.59 72.36L23.62 72.36L23.62 67.39ZM46.37 63.00L54.36 63.00L54.36 66.31L46.37 66.31ZM46.37 55.73L54.36 55.73L54.36 58.90L46.37 58.90ZM9.86 78.70L9.86 62.71C10.66 63.29 11.59 64.15 12.02 64.66C15.62 60.91 16.42 55.37 16.42 51.19L16.42 45.00L18.94 45.00L18.94 56.09C18.94 59.90 19.80 60.77 22.75 60.77L25.20 60.77L25.20 78.70ZM12.89 45.00L12.89 51.12C12.89 54.43 12.46 58.39 9.86 61.63L9.86 45.00ZM16.42 31.54L18.94 31.54L18.94 39.46L16.42 39.46ZM25.20 57.02L24.77 57.02L23.11 57.02C22.54 57.02 22.39 56.95 22.39 56.02L22.39 45.00L25.20 45.00ZM38.66 39.96L44.42 39.96L44.42 44.06L38.66 44.06ZM56.23 39.96L62.14 39.96L62.14 44.06L56.23 44.06ZM65.45 71.57C63.72 72.86 60.84 74.74 58.32 76.10C57.10 74.52 55.94 72.65 55.01 70.78L68.98 70.78L68.98 66.31L59.90 66.31L59.90 63.00L66.17 63.00L66.17 58.90L59.90 58.90L59.90 55.73L67.54 55.73L67.54 51.48L59.90 51.48L59.90 48.10L66.74 48.10L66.74 35.93L51.77 35.93L51.77 48.10L54.36 48.10L54.36 51.48L46.37 51.48L46.37 48.10L49.03 48.10L49.03 35.93L34.27 35.93L34.27 48.10L40.90 48.10L40.90 51.48L33.41 51.48L33.41 55.73L40.90 55.73L40.90 58.90L34.92 58.90L34.92 63.00L40.90 63.00L40.90 66.31L31.82 66.31L31.82 70.78L43.70 70.78C39.96 73.44 34.99 75.74 30.10 77.18L30.10 39.46L23.40 39.46L23.40 31.54L31.46 31.54L31.46 26.21L3.74 26.21L3.74 31.54L11.88 31.54L11.88 39.46L5.18 39.46L5.18 89.06L9.86 89.06L9.86 84.02L25.20 84.02L25.20 87.98L30.10 87.98L30.10 77.40C31.18 78.48 32.76 80.57 33.48 81.58C35.57 80.78 37.80 79.85 39.89 78.77L39.89 78.84C39.89 82.22 38.02 84.24 36.79 85.10C37.73 85.97 39.10 87.98 39.60 89.14C40.82 88.42 42.77 87.77 53.78 85.46C53.50 84.17 53.28 82.01 53.21 80.42L45.07 81.94L45.07 75.74C46.87 74.52 48.60 73.15 50.11 71.78C53.21 79.49 58.46 85.68 65.88 88.78C66.74 87.26 68.33 85.18 69.70 84.10C66.67 83.02 64.01 81.50 61.63 79.49C64.15 78.19 66.74 76.75 68.90 75.10Z"/></svg>
