<svg xmlns="http://www.w3.org/2000/svg" xmlns:xlink="http://www.w3.org/1999/xlink" width="72.00000000000001" height="106.56000000000002"><path fill="red" stroke="red" d="M21.60 44.21C27.00 40.97 31.90 37.08 36.07 32.54C40.39 36.86 45.72 40.82 51.34 44.21ZM54.58 50.40L54.58 46.01C58.18 48.02 61.78 49.68 65.30 50.98C66.31 49.18 68.40 46.51 69.91 45.14C59.11 41.90 47.02 35.06 39.96 28.01C40.61 27.14 41.18 26.21 41.83 25.27L35.57 22.46C28.73 33.05 15.70 40.97 2.30 45.07C3.96 46.73 5.83 49.32 6.77 51.26C10.37 49.97 13.82 48.46 17.21 46.66L17.21 50.40L32.26 50.40L32.26 59.11L8.50 59.11L8.50 65.16L32.26 65.16L32.26 81.22L5.18 81.22L5.18 87.34L66.96 87.34L66.96 81.22L39.38 81.22L39.38 65.16L63.50 65.16L63.50 59.11L39.38 59.11L39.38 50.40ZM49.97 80.93C52.42 77.69 55.58 72.79 58.32 68.26L51.84 65.88C50.33 69.84 47.30 75.31 44.86 78.77ZM13.97 68.04C16.56 72.07 19.37 77.47 20.38 80.86L26.21 78.34C25.06 74.95 22.18 69.70 19.44 65.88Z"/></svg>
