<svg xmlns="http://www.w3.org/2000/svg" xmlns:xlink="http://www.w3.org/1999/xlink" width="72.00000000000001" height="106.56000000000002"><path fill="red" stroke="red" d="M35.64 36.50C32.62 33.91 27.72 30.60 22.68 27.86C23.33 26.86 23.90 25.92 24.41 24.98L18.65 22.68C14.98 29.45 8.50 35.86 2.38 39.96C3.31 41.62 4.90 45.29 5.33 46.73C6.62 45.79 7.92 44.78 9.22 43.63L9.22 46.80L16.27 46.80L16.27 53.64L4.75 53.64L4.75 59.33L16.27 59.33L16.27 78.84C11.45 79.63 7.06 80.35 3.67 80.93L5.33 86.90C12.96 85.39 23.40 83.30 33.19 81.29L32.76 75.89C29.38 76.54 25.92 77.18 22.54 77.76L22.54 59.33L32.83 59.33L32.83 53.64L22.54 53.64L22.54 46.80L30.24 46.80L30.24 41.18L11.88 41.18C14.62 38.59 17.14 35.71 19.37 32.62C24.26 35.64 29.23 39.24 32.33 42.05ZM28.44 75.74C29.74 72.58 31.39 67.61 32.76 63.22L27.29 61.85C26.71 65.59 25.20 71.06 24.05 74.52ZM5.90 63.72C7.13 67.90 8.35 73.15 8.64 76.68L13.75 75.31C13.32 71.93 12.10 66.67 10.66 62.57ZM68.98 51.26L56.02 51.26L56.02 32.62C59.90 31.82 63.58 30.74 66.67 29.52L61.78 24.19C56.09 26.57 46.22 28.51 37.58 29.45C38.16 31.03 39.10 33.62 39.38 35.21C42.55 34.92 45.86 34.49 49.25 33.91L49.25 51.26L36.00 51.26L36.00 57.96L49.25 57.96L49.25 89.14L56.02 89.14L56.02 57.96L68.98 57.96Z"/></svg>
