<svg xmlns="http://www.w3.org/2000/svg" xmlns:xlink="http://www.w3.org/1999/xlink" width="72.00000000000001" height="106.56000000000002"><path fill="red" stroke="red" d="M32.90 38.23C30.17 35.06 25.27 30.89 20.45 27.50C20.95 26.57 21.46 25.56 21.96 24.62L16.63 22.68C13.39 29.66 7.70 36.36 2.02 40.75C2.95 42.26 4.46 45.43 4.82 46.80C6.12 45.72 7.34 44.64 8.57 43.42L8.57 46.80L15.05 46.80L15.05 53.64L4.75 53.64L4.75 59.33L15.05 59.33L15.05 79.34C10.80 80.14 6.91 80.78 3.74 81.36L5.18 87.34C12.24 85.97 21.38 83.95 30.17 82.01L29.66 76.46C26.64 77.11 23.47 77.62 20.45 78.26L20.45 59.33L29.88 59.33L29.88 53.64L20.45 53.64L20.45 46.80L27.79 46.80L27.79 41.18L10.66 41.18C13.25 38.45 15.62 35.28 17.71 32.11C22.10 35.42 26.57 39.46 29.16 42.62ZM26.14 75.74C27.29 72.50 28.51 67.39 29.81 63.00L25.06 61.85C24.48 65.59 23.11 71.21 22.03 74.66ZM5.76 63.72C6.91 67.82 7.99 73.15 8.21 76.68L12.60 75.53C12.31 72.07 11.23 66.74 9.94 62.64ZM53.28 79.13L53.28 64.22L61.27 64.22L61.27 79.13ZM39.24 64.22L47.23 64.22L47.23 79.13L39.24 79.13ZM47.23 44.50L47.23 58.18L39.24 58.18L39.24 44.50ZM61.27 44.50L61.27 58.18L53.28 58.18L53.28 44.50ZM53.28 38.45L53.28 23.83L47.23 23.83L47.23 38.45L33.55 38.45L33.55 89.28L39.24 89.28L39.24 85.18L61.27 85.18L61.27 88.78L67.18 88.78L67.18 38.45Z"/></svg>
