<svg xmlns="http://www.w3.org/2000/svg" xmlns:xlink="http://www.w3.org/1999/xlink" width="72.00000000000001" height="106.56000000000002"><path fill="red" stroke="red" d="M24.41 75.82C25.56 72.58 26.86 67.61 28.15 63.22L23.47 61.92C22.90 65.59 21.74 71.06 20.74 74.52ZM28.37 75.96C25.42 76.54 22.39 77.18 19.51 77.76L19.51 59.33L28.37 59.33L28.37 53.64L19.51 53.64L19.51 46.80L26.14 46.80L26.14 41.18L10.37 41.18C12.60 38.59 14.83 35.71 16.78 32.62C20.88 35.57 25.20 39.17 27.86 42.05L30.17 37.22L30.17 40.18L45.50 40.18L45.50 47.66L32.33 47.66C32.04 53.71 31.25 61.34 30.53 66.31L43.85 66.31C40.18 71.78 34.49 77.18 28.66 80.57ZM60.62 47.66L51.98 47.66L51.98 40.18L60.62 40.18ZM45.50 60.77L37.30 60.77C37.51 58.39 37.80 55.73 38.02 53.21L45.50 53.21ZM51.98 60.77L51.98 53.21L67.03 53.21L67.03 34.63L59.18 34.63C61.06 31.82 62.93 28.30 64.73 25.06L57.89 23.18C56.74 26.57 54.65 31.25 52.78 34.63L41.62 34.63L44.78 33.34C43.92 30.53 41.83 26.42 39.60 23.40L34.06 25.49C35.93 28.22 37.73 31.90 38.66 34.63L30.17 34.63L30.17 36.14C27.65 33.62 23.54 30.46 19.51 27.79C20.02 26.86 20.52 25.92 20.95 24.98L16.13 22.68C12.96 29.45 7.49 35.86 2.23 39.96C3.10 41.62 4.39 45.29 4.82 46.73C5.90 45.79 6.98 44.78 8.14 43.63L8.14 46.80L14.26 46.80L14.26 53.64L4.39 53.64L4.39 59.33L14.26 59.33L14.26 78.77C10.15 79.63 6.41 80.35 3.53 80.93L4.90 86.90C10.80 85.54 18.65 83.66 26.35 81.86L25.63 82.22C27.07 83.30 29.02 85.54 30.02 86.98C35.50 83.95 41.11 78.91 45.50 73.22L45.50 89.21L51.98 89.21L51.98 66.31L62.35 66.31C61.92 73.51 61.49 76.25 60.70 77.18C60.19 77.76 59.62 77.90 58.82 77.90C57.89 77.90 56.02 77.83 53.78 77.62C54.58 79.20 55.22 81.58 55.30 83.38C58.18 83.45 60.70 83.38 62.14 83.23C63.94 82.94 65.02 82.51 66.17 81.29C67.68 79.56 68.26 74.59 68.76 63.14C68.83 62.28 68.90 60.77 68.90 60.77ZM5.40 63.72C6.48 67.90 7.49 73.15 7.78 76.68L12.02 75.38C11.66 72.00 10.66 66.67 9.43 62.57Z"/></svg>
