<svg xmlns="http://www.w3.org/2000/svg" xmlns:xlink="http://www.w3.org/1999/xlink" width="72.00000000000001" height="106.56000000000002"><path fill="red" stroke="red" d="M26.64 76.32L19.44 77.76L19.44 59.33L27.50 59.33L27.50 53.57L19.44 53.57L19.44 46.80L25.20 46.80L25.20 41.11L10.58 41.11C12.89 38.59 15.19 35.71 17.14 32.69C20.74 34.99 24.48 37.87 26.78 40.03L29.52 35.14C27.22 33.05 23.54 30.46 19.80 28.30C20.45 27.14 21.02 25.99 21.53 24.91L16.27 22.97C13.25 29.52 7.99 35.86 2.66 39.96C3.60 41.47 5.04 44.71 5.47 46.01C6.48 45.29 7.42 44.35 8.42 43.42L8.42 46.80L13.90 46.80L13.90 53.57L5.11 53.57L5.11 59.33L13.90 59.33L13.90 78.84C9.79 79.70 6.05 80.42 3.10 81.00L4.75 87.12C11.16 85.68 19.30 83.66 27.22 81.72ZM5.40 63.86C6.70 67.97 7.99 73.37 8.35 76.97L12.74 75.67C12.31 72.22 10.94 66.89 9.50 62.78ZM24.05 74.88C25.27 71.71 26.50 66.74 27.72 62.64L23.33 61.49C22.75 65.09 21.60 70.42 20.59 73.73ZM39.31 46.58C43.49 45.36 47.81 43.78 51.62 41.83C55.15 43.49 58.39 45.07 60.84 46.58ZM57.24 32.76C55.73 34.20 53.78 35.42 51.48 36.72C48.02 35.21 44.42 33.91 41.04 32.76ZM36.36 51.84L68.47 51.84L68.47 46.58L61.56 46.58L65.02 43.13C62.78 41.83 59.98 40.46 56.81 38.95C59.26 37.44 61.49 35.64 63.29 33.84L60.55 32.76L67.75 32.76L67.75 27.50L53.57 27.50C52.99 25.99 51.98 24.05 50.98 22.61L45.14 24.12C45.79 25.13 46.44 26.28 46.94 27.50L31.90 27.50L31.90 32.76L39.82 32.76L36.36 35.78C39.38 36.79 42.62 37.94 45.86 39.31C42.05 40.90 38.02 42.12 34.13 43.06C34.92 43.92 36.00 45.36 36.65 46.58L30.60 46.58L30.60 60.62C30.60 68.11 30.10 78.26 25.49 85.68C27.00 86.26 29.59 87.84 30.67 88.85C34.49 82.58 35.78 73.94 36.22 66.46C37.51 67.10 39.60 68.40 40.61 69.19C41.62 67.82 42.62 66.02 43.56 64.15L49.90 64.15L49.90 70.49L40.39 70.49L40.39 75.60L49.90 75.60L49.90 82.58L36.58 82.58L36.58 87.84L68.47 87.84L68.47 82.58L55.73 82.58L55.73 75.60L65.23 75.60L65.23 70.49L55.73 70.49L55.73 64.15L66.53 64.15L66.53 58.97L55.73 58.97L55.73 53.28L49.90 53.28L49.90 58.97L45.58 58.97C46.08 57.38 46.58 55.80 46.94 54.14L41.83 53.14C40.75 57.96 38.81 62.93 36.22 66.38C36.29 64.37 36.36 62.42 36.36 60.70Z"/></svg>
