<svg xmlns="http://www.w3.org/2000/svg" xmlns:xlink="http://www.w3.org/1999/xlink" width="72.00000000000001" height="106.56000000000002"><path fill="red" stroke="red" d="M60.91 36.79L55.22 36.79L55.22 30.38L60.91 30.38ZM50.76 36.79L45.22 36.79L45.22 30.38L50.76 30.38ZM40.75 36.79L35.35 36.79L35.35 30.38L40.75 30.38ZM66.89 25.49L29.66 25.49L29.66 41.62L66.89 41.62ZM45.79 72.07C45.14 69.34 43.63 64.73 42.34 61.20L38.59 62.06C39.10 63.50 39.60 65.02 40.10 66.67L34.20 67.39C38.23 62.28 42.34 55.94 45.36 49.82L41.11 47.59C40.10 49.97 38.81 52.49 37.66 54.79L33.34 55.01C35.64 51.77 37.94 47.66 39.60 43.70L34.85 41.83C33.48 46.87 30.53 52.13 29.59 53.42C28.66 54.79 27.86 55.58 27.00 55.80C27.43 57.02 28.15 59.33 28.37 60.26C29.23 59.90 30.46 59.62 35.06 59.18C33.41 61.99 31.90 64.22 31.10 65.09C29.59 67.18 28.44 68.40 27.22 68.62C27.72 69.91 28.44 72.07 28.58 73.01C29.66 72.43 31.39 72.00 41.11 70.42C41.40 71.50 41.62 72.43 41.76 73.22ZM17.57 46.80L23.47 46.80L23.47 41.18L9.36 41.18C11.30 38.66 13.25 35.71 14.98 32.62C18.79 35.71 22.54 39.38 24.91 42.26L27.36 36.65C25.13 34.06 21.31 30.60 17.50 27.79C17.93 26.86 18.36 25.85 18.72 24.98L14.40 22.68C11.59 29.45 6.77 35.86 2.09 39.96C2.88 41.62 3.96 45.36 4.32 46.73C5.33 45.72 6.41 44.71 7.34 43.56L7.34 46.80L12.46 46.80L12.46 53.64L4.03 53.64L4.03 59.33L12.46 59.33L12.46 78.91C8.93 79.70 5.76 80.42 3.31 80.93L4.46 86.90C10.30 85.46 18.14 83.30 25.56 81.36L25.27 75.96L17.57 77.76L17.57 59.33L25.63 59.33L25.63 53.64L17.57 53.64ZM21.82 75.82C22.90 72.65 24.05 67.68 25.20 63.36L20.88 61.85C20.38 65.59 19.22 71.06 18.43 74.52ZM4.97 63.65C5.90 67.82 6.84 73.15 7.06 76.75L11.02 75.31C10.73 71.93 9.72 66.60 8.71 62.57ZM28.80 74.45C28.15 78.98 27.22 84.10 26.14 87.62C27.14 87.84 29.02 88.27 29.95 88.70C30.82 85.32 31.97 79.92 32.62 75.31ZM34.20 75.24C34.85 79.06 35.35 83.95 35.42 87.26L39.31 86.62C39.24 83.30 38.59 78.41 37.94 74.59ZM39.60 74.30C40.75 77.76 42.05 82.37 42.55 85.32L46.15 84.24C45.58 81.36 44.28 76.90 42.98 73.37ZM51.98 75.53L57.53 75.53L57.53 80.64L51.98 80.64ZM57.53 60.77L51.98 60.77L51.98 55.87L57.53 55.87ZM57.53 70.56L51.98 70.56L51.98 65.74L57.53 65.74ZM68.83 80.64L62.28 80.64L62.28 75.53L67.82 75.53L67.82 70.56L62.28 70.56L62.28 65.74L67.61 65.74L67.61 60.77L62.28 60.77L62.28 55.87L68.33 55.87L68.33 50.69L63.14 50.69C62.50 48.46 61.42 45.14 60.34 42.48L56.09 43.70C56.81 45.79 57.67 48.53 58.25 50.69L52.63 50.69C53.50 48.31 54.29 45.72 55.01 43.27L50.18 42.19C48.67 48.38 46.15 54.65 42.91 58.90C44.06 59.69 45.86 61.49 46.66 62.35L46.94 61.92L46.94 89.14L51.98 89.14L51.98 85.82L68.83 85.82Z"/></svg>
