<svg xmlns="http://www.w3.org/2000/svg" xmlns:xlink="http://www.w3.org/1999/xlink" width="72.00000000000001" height="106.56000000000002"><path fill="red" stroke="red" d="M22.32 25.92L21.38 26.21L6.05 26.21L6.05 89.28L11.95 89.28L11.95 32.18L19.30 32.18C18.00 37.15 16.42 43.56 14.69 48.53C18.94 54.07 19.94 59.04 19.94 62.78C19.94 65.09 19.58 66.96 18.65 67.68C18.14 68.04 17.50 68.26 16.70 68.33C15.77 68.33 14.69 68.33 13.46 68.18C14.33 69.84 14.83 72.43 14.83 74.02C16.42 74.16 18.00 74.09 19.30 73.94C20.74 73.73 21.96 73.22 22.97 72.50C24.98 70.99 25.78 67.82 25.78 63.58C25.78 59.11 24.84 53.86 20.45 47.81C22.54 42.05 24.84 34.56 26.71 28.37ZM37.08 23.26C34.13 33.41 29.09 43.34 23.33 49.75C24.48 51.12 26.57 54.14 27.29 55.44C28.80 53.78 30.17 51.91 31.54 49.90L31.54 88.92L37.51 88.92L37.51 39.24C39.67 34.63 41.62 29.81 43.20 24.91ZM69.26 39.24L63.43 39.24L63.43 24.34L57.02 24.34L57.02 39.24L40.46 39.24L40.46 45.36L57.02 45.36L57.02 81.07C57.02 82.15 56.59 82.44 55.51 82.51C54.58 82.58 51.26 82.58 47.66 82.44C48.60 84.31 49.61 87.34 49.90 89.06C55.08 89.14 58.39 88.85 60.55 87.70C62.64 86.62 63.43 84.67 63.43 81.07L63.43 45.36L69.26 45.36ZM53.64 67.46C52.13 63.14 49.18 56.66 46.51 51.55L41.33 53.93C43.78 58.97 46.80 65.81 48.10 70.06Z"/></svg>
