<svg xmlns="http://www.w3.org/2000/svg" xmlns:xlink="http://www.w3.org/1999/xlink" width="72.00000000000001" height="106.56000000000002"><path fill="red" stroke="red" d="M54.14 43.56L54.14 47.95L58.61 47.95C58.68 48.89 58.75 49.82 58.82 50.76L57.89 50.76C57.31 54.94 55.73 59.98 52.20 62.78C53.21 63.50 54.72 65.09 55.37 66.10C57.67 64.01 59.33 61.34 60.41 58.39C61.56 61.63 63.36 64.66 66.24 67.25C66.96 66.17 68.83 64.08 69.70 63.43C63.36 58.10 62.78 51.19 62.78 43.56ZM22.10 25.92L21.10 26.14L5.90 26.14L5.90 89.21L11.81 89.21L11.81 32.18L19.01 32.18C17.71 37.08 15.98 43.49 14.33 48.31C18.72 53.50 19.73 58.18 19.80 61.78C19.80 63.86 19.44 65.66 18.50 66.38C17.93 66.82 17.21 66.96 16.49 66.96C15.55 67.03 14.40 67.03 13.03 66.89C13.97 68.47 14.47 70.99 14.54 72.72C16.13 72.72 17.78 72.72 19.08 72.58C20.45 72.36 21.74 71.93 22.82 71.14C24.84 69.70 25.70 66.67 25.70 62.57C25.70 58.25 24.70 53.28 20.09 47.59C22.25 41.98 24.62 34.42 26.50 28.44ZM31.90 50.76C31.39 55.58 29.74 61.20 25.78 64.30C26.86 65.02 28.30 66.74 28.94 67.75C31.90 65.23 33.70 61.78 34.85 58.03C35.71 60.77 37.01 63.36 38.95 65.66C39.67 64.58 41.54 62.78 42.41 62.06C37.73 56.66 37.37 50.04 37.37 43.56L28.73 43.56L28.73 47.95L33.19 47.95C33.26 48.89 33.34 49.82 33.41 50.76ZM49.97 39.74L68.40 39.74L68.40 33.84L49.97 33.84L49.97 23.90L43.78 23.90L43.78 33.84L26.06 33.84L26.06 39.74L43.78 39.74L43.78 54.79C43.78 61.06 39.74 76.10 23.04 83.59C24.19 85.03 26.06 87.70 26.86 89.21C40.18 83.02 45.72 71.28 46.80 65.66C48.10 71.14 53.21 83.16 66.10 89.21C67.03 87.55 68.76 84.82 69.98 83.30C53.86 75.74 49.97 61.06 49.97 54.79Z"/></svg>
