<svg xmlns="http://www.w3.org/2000/svg" xmlns:xlink="http://www.w3.org/1999/xlink" width="72.00000000000001" height="106.56000000000002"><path fill="red" stroke="red" d="M11.66 40.61L32.47 40.61L32.47 55.51L39.02 55.51L39.02 40.61L60.12 40.61L60.12 51.26L66.82 51.26L66.82 35.50L39.02 35.50L39.02 31.10L63.36 31.10L63.36 26.06L8.42 26.06L8.42 31.10L32.47 31.10L32.47 35.50L5.33 35.50L5.33 51.26L11.66 51.26ZM59.26 52.49C55.37 51.12 48.02 49.61 42.70 48.96L41.26 52.92C46.80 53.71 54.07 55.44 57.96 56.81ZM55.15 40.82C51.84 42.12 46.08 44.14 42.19 45.00L44.42 48.31C48.38 47.52 54.00 46.15 57.96 44.50ZM13.90 56.81C18.58 55.80 23.98 54.65 29.38 53.50L29.16 49.46C22.82 50.47 16.70 51.41 12.17 51.84ZM14.18 44.78C18.65 45.58 24.41 47.30 27.43 48.60L29.23 44.78C26.14 43.49 20.38 42.12 16.06 41.33ZM67.46 62.86L67.46 57.60L4.75 57.60L4.75 62.86L32.04 62.86C31.68 64.37 31.25 65.81 30.74 67.32L10.15 67.32L10.15 88.99L16.49 88.99L16.49 72.58L25.63 72.58L25.63 88.56L31.75 88.56L31.75 72.58L41.26 72.58L41.26 88.56L47.38 88.56L47.38 72.58L57.10 72.58L57.10 82.73C57.10 83.38 56.88 83.59 56.09 83.66C55.37 83.66 52.99 83.66 50.40 83.59C51.26 85.10 52.13 87.48 52.42 89.14C56.23 89.14 59.04 89.06 61.06 88.13C63.07 87.19 63.50 85.68 63.50 82.80L63.50 67.32L37.22 67.32C37.73 65.88 38.30 64.44 38.88 62.86Z"/></svg>
