<svg xmlns="http://www.w3.org/2000/svg" xmlns:xlink="http://www.w3.org/1999/xlink" width="72.00000000000001" height="106.56000000000002"><path fill="red" stroke="red" d="M11.88 37.66L32.54 37.66L32.54 52.06L39.02 52.06L39.02 37.66L60.19 37.66L60.19 47.38L66.96 47.38L66.96 33.48L39.02 33.48L39.02 30.10L63.72 30.10L63.72 25.78L8.50 25.78L8.50 30.10L32.54 30.10L32.54 33.48L5.33 33.48L5.33 47.38L11.88 47.38ZM41.54 47.88C47.16 48.74 54.36 50.40 58.32 51.84L59.47 47.88C56.16 46.73 50.47 45.58 45.50 44.78C49.32 43.99 54.36 42.77 57.89 41.18L55.37 37.94C52.13 39.24 46.37 41.18 42.55 42.12L44.21 44.57L42.84 44.42ZM14.33 51.62C19.01 50.76 24.34 49.68 29.95 48.46L29.66 44.78L27.43 45.14L29.16 41.62C26.21 40.25 20.74 38.81 16.63 38.02L14.83 41.18C19.08 42.19 24.48 43.85 27.43 45.14C21.89 46.01 16.70 46.73 12.67 47.16ZM50.40 82.58C47.30 82.58 46.73 82.37 46.73 80.71L46.73 74.88L60.84 74.88L60.84 53.71L38.23 53.71L38.23 58.39L54.58 58.39L54.58 61.85L39.10 61.85L39.10 66.02L54.58 66.02L54.58 70.20L16.78 70.20L16.78 65.95L31.97 65.95L31.97 61.78L16.78 61.78L16.78 58.25C22.10 58.03 28.51 57.60 33.26 56.52L29.95 52.27C24.91 52.99 16.34 54.00 10.58 54.14L10.58 74.88L23.83 74.88C22.10 80.35 17.78 82.73 3.89 84.02C5.04 85.25 6.41 87.62 6.91 89.14C23.04 87.05 28.44 83.16 30.31 74.88L40.54 74.88L40.54 80.78C40.54 86.47 42.26 88.06 49.75 88.06L61.13 88.06C66.67 88.06 68.40 86.40 69.19 79.06C67.46 78.70 64.87 77.83 63.65 76.82C63.36 81.94 62.86 82.58 60.48 82.58Z"/></svg>
