<svg xmlns="http://www.w3.org/2000/svg" xmlns:xlink="http://www.w3.org/1999/xlink" width="72.00000000000001" height="106.56000000000002"><path fill="red" stroke="red" d="M59.83 48.96L38.23 48.96L38.23 42.98L59.83 42.98ZM59.83 59.62L38.23 59.62L38.23 53.64L59.83 53.64ZM59.83 70.34L38.23 70.34L38.23 64.30L59.83 64.30ZM32.04 38.02L32.04 75.31L66.38 75.31L66.38 38.02L50.33 38.02C51.05 36.14 51.77 33.98 52.49 31.90L68.83 31.90L68.83 26.21L29.66 26.21L29.66 31.90L44.93 31.90C44.57 33.91 44.06 36.07 43.56 38.02ZM28.58 33.77L28.58 27.50L2.88 27.50L2.88 33.77L13.68 33.77L13.68 79.06C13.68 80.14 13.25 80.50 12.17 80.50C11.02 80.57 7.34 80.57 3.53 80.42C4.39 82.30 5.33 85.18 5.62 86.98C11.09 86.98 14.83 86.83 17.14 85.75C19.51 84.67 20.16 82.80 20.16 79.06L20.16 33.77ZM39.74 75.96C36.22 78.91 29.02 82.44 23.04 84.38C24.34 85.61 26.28 87.70 27.14 89.06C33.41 86.98 40.82 83.30 45.36 79.70ZM51.05 79.85C55.73 82.58 61.99 86.62 64.94 89.28L70.27 85.25C66.96 82.51 60.62 78.70 56.02 76.25Z"/></svg>
