<svg xmlns="http://www.w3.org/2000/svg" xmlns:xlink="http://www.w3.org/1999/xlink" width="72.00000000000001" height="106.56000000000002"><path fill="red" stroke="red" d="M60.77 48.74L43.78 48.74L43.78 42.91L60.77 42.91ZM60.77 59.47L43.78 59.47L43.78 53.57L60.77 53.57ZM60.77 70.20L43.78 70.20L43.78 64.30L60.77 64.30ZM37.87 37.87L37.87 75.31L66.82 75.31L66.82 37.87L54.00 37.87C54.58 36.00 55.15 33.98 55.66 31.97L68.76 31.97L68.76 26.28L36.00 26.28L36.00 31.97L48.82 31.97C48.60 33.91 48.24 36.00 47.88 37.87ZM34.63 26.50L3.60 26.50L3.60 32.33L34.63 32.33ZM34.42 56.45C33.05 53.57 30.38 49.39 27.65 45.86C29.59 42.62 31.75 38.74 33.48 35.35L28.37 34.20C27.07 37.30 24.55 42.05 22.18 45.94C25.49 50.26 28.30 55.15 29.74 58.54ZM18.07 34.27C16.85 37.37 14.62 42.05 12.46 45.94C15.34 50.26 17.86 55.08 19.08 58.39L23.83 56.45C22.68 53.64 20.23 49.46 17.78 45.86C19.58 42.62 21.53 38.81 23.18 35.35ZM13.82 56.74C12.74 53.93 10.44 49.54 8.06 45.94C9.72 42.70 11.74 38.74 13.18 35.35L8.21 34.20C7.06 37.30 4.90 42.12 2.74 45.94C5.62 50.47 7.99 55.22 9.14 58.68ZM35.35 74.88C30.89 75.60 26.35 76.32 21.96 76.97L21.96 65.81L34.13 65.81L34.13 60.05L4.32 60.05L4.32 65.81L15.55 65.81L15.55 77.90C10.80 78.62 6.48 79.20 2.95 79.70L4.18 85.97C12.67 84.60 24.48 82.58 35.64 80.71ZM44.42 76.18C41.54 79.27 35.86 83.09 30.82 85.10C32.33 86.26 34.27 88.20 35.35 89.42C40.39 87.26 46.37 83.23 49.97 79.56ZM54.14 79.78C57.96 82.58 62.64 86.69 65.02 89.35L70.13 85.68C67.75 83.09 62.86 79.13 59.11 76.54Z"/></svg>
