<svg xmlns="http://www.w3.org/2000/svg" xmlns:xlink="http://www.w3.org/1999/xlink" width="72.00000000000001" height="106.56000000000002"><path fill="red" stroke="red" d="M68.33 45.22C65.66 42.91 62.14 40.18 58.03 37.51C61.13 34.27 63.86 30.67 66.02 26.86L59.47 24.77C57.67 28.08 55.22 31.25 52.49 34.06C48.46 31.61 44.35 29.38 40.46 27.58L36.36 32.18C40.03 33.91 43.92 36.00 47.66 38.30C43.63 41.47 38.95 44.06 34.13 46.15C35.64 47.30 38.02 49.90 39.02 51.26C44.06 48.82 48.89 45.72 53.35 41.98C57.60 44.86 61.42 47.81 64.15 50.40ZM7.92 84.96C9.22 80.64 10.22 73.58 10.87 68.76L7.06 67.54C6.48 72.29 5.33 79.20 3.96 83.38ZM12.46 68.76C13.18 72.94 13.46 78.34 13.32 81.94L16.63 81.50C16.78 77.98 16.42 72.58 15.62 68.40ZM13.03 53.06L19.73 53.06L19.73 58.75L13.03 58.75ZM19.73 31.32L19.73 36.86L13.03 36.86L13.03 31.32ZM19.73 47.81L13.03 47.81L13.03 42.12L19.73 42.12ZM25.13 58.75L25.13 53.06L33.05 53.06L33.05 47.81L25.13 47.81L25.13 42.12L33.05 42.12L33.05 36.86L25.13 36.86L25.13 31.32L34.42 31.32L34.42 25.99L7.56 25.99L7.56 64.08L29.16 64.08C28.94 68.18 28.73 71.42 28.44 74.02C27.72 71.64 26.42 68.54 24.98 66.02L22.10 67.03C23.69 69.98 25.20 73.87 25.78 76.39L28.30 75.38C27.79 79.99 27.29 82.15 26.64 82.94C26.06 83.66 25.49 83.81 24.48 83.81C23.54 83.81 21.31 83.81 18.86 83.52C19.73 84.96 20.30 87.26 20.38 88.85C23.04 88.99 25.63 88.99 27.14 88.78C28.94 88.63 30.24 88.06 31.32 86.62C33.19 84.46 33.98 78.12 34.85 61.20C34.92 60.41 34.99 58.75 34.99 58.75ZM23.18 79.06C22.90 75.96 21.74 71.28 20.52 67.61L17.42 68.18C18.58 71.86 19.66 76.61 19.87 79.70ZM58.61 51.55C57.10 57.53 54.94 62.64 52.13 67.18C49.10 62.57 46.66 57.38 45.07 51.84L39.10 53.42C41.33 60.48 44.28 66.96 48.02 72.50C43.99 76.97 39.02 80.50 33.05 83.09C34.42 84.46 36.50 87.34 37.22 88.78C42.98 85.90 47.95 82.30 52.06 77.83C55.87 82.22 60.26 85.75 65.45 88.27C66.53 86.54 68.47 84.02 70.06 82.80C64.73 80.50 60.19 76.97 56.30 72.58C60.19 67.03 63.14 60.48 65.16 52.78Z"/></svg>
