<svg xmlns="http://www.w3.org/2000/svg" xmlns:xlink="http://www.w3.org/1999/xlink" width="72.00000000000001" height="106.56000000000002"><path fill="red" stroke="red" d="M39.24 59.62L40.10 65.38L55.37 62.35L55.37 77.26L61.42 77.26L61.42 61.13L68.18 59.83L67.25 54.22L61.42 55.30L61.42 24.48L55.37 24.48L55.37 56.52ZM53.57 34.92C51.70 32.76 47.59 29.66 44.35 27.72L40.39 31.54C43.63 33.77 47.59 37.15 49.46 39.31ZM52.49 49.10C50.33 46.87 45.94 43.78 42.48 41.69L38.74 45.79C42.19 48.02 46.51 51.48 48.53 53.71ZM32.98 61.06C32.26 65.74 30.17 70.56 29.52 71.78C28.94 73.01 28.30 73.94 27.50 74.09C28.08 75.31 28.87 77.47 29.02 78.48C29.95 77.98 31.61 77.54 40.32 75.89C40.75 77.04 41.04 78.12 41.26 79.06L45.00 77.26C44.42 74.66 42.62 70.42 40.90 67.32L37.22 68.69C37.87 69.84 38.45 71.21 39.02 72.58L33.34 73.37C34.99 70.27 36.58 66.38 37.66 62.64ZM10.87 46.94L18.36 46.94L18.36 53.57L10.87 53.57ZM10.87 35.57L18.36 35.57L18.36 42.12L10.87 42.12ZM31.32 42.12L23.83 42.12L23.83 35.57L31.32 35.57ZM31.32 53.57L23.83 53.57L23.83 46.94L31.32 46.94ZM34.42 82.08C27.86 82.08 26.71 81.43 26.71 78.48L26.71 58.97L37.37 58.97L37.37 30.17L22.54 30.17C23.33 28.22 24.19 25.99 25.06 23.62L18.22 22.75C17.78 24.84 16.92 27.79 16.13 30.17L5.11 30.17L5.11 58.97L11.95 58.97L11.95 60.62C11.95 67.10 10.87 77.26 2.30 84.74C3.60 85.82 5.47 88.13 6.34 89.57C16.27 81.00 17.78 68.40 17.78 60.77L17.78 58.97L20.81 58.97L20.81 78.62C20.81 85.82 23.69 87.55 34.42 87.55L56.66 87.55C65.30 87.55 67.39 85.39 68.40 76.68C66.74 76.32 64.15 75.53 62.71 74.52C62.14 80.93 61.34 82.08 56.45 82.08Z"/></svg>
