<svg xmlns="http://www.w3.org/2000/svg" xmlns:xlink="http://www.w3.org/1999/xlink" width="72.00000000000001" height="106.56000000000002"><path fill="red" stroke="red" d="M39.60 32.90C38.23 35.14 36.50 37.44 34.85 39.31L19.22 39.31C21.17 37.22 23.04 35.06 24.70 32.90ZM54.29 51.91L39.10 51.91L39.10 45.00L54.29 45.00ZM54.29 64.22L39.10 64.22L39.10 57.17L54.29 57.17ZM18.36 57.17L32.62 57.17L32.62 64.22L18.36 64.22ZM18.36 45.00L32.62 45.00L32.62 51.91L18.36 51.91ZM11.88 69.84L61.06 69.84L61.06 39.31L43.06 39.31C45.29 36.43 47.59 33.05 49.03 30.10L44.35 27.22L43.34 27.58L28.58 27.58C29.30 26.50 30.02 25.34 30.67 24.26L23.26 22.75C19.51 29.52 12.67 37.87 3.17 43.92C4.75 45.00 6.91 47.38 7.99 49.03C9.36 48.10 10.66 47.09 11.88 46.08ZM8.86 89.35C13.10 85.75 16.85 79.78 19.08 74.09L12.67 72.29C10.51 77.62 6.70 82.94 2.74 85.90ZM24.62 74.38C25.49 78.91 26.06 84.82 26.06 88.34L32.90 87.55C32.83 84.10 32.04 78.26 31.03 73.87ZM38.66 74.59C40.68 78.91 42.77 84.74 43.49 88.27L49.97 86.69C49.10 83.09 46.87 77.47 44.78 73.22ZM52.49 74.16C56.52 78.77 61.06 85.18 62.93 89.21L69.48 86.26C67.39 82.01 62.57 75.96 58.61 71.57Z"/></svg>
