<svg xmlns="http://www.w3.org/2000/svg" xmlns:xlink="http://www.w3.org/1999/xlink" width="72.00000000000001" height="106.56000000000002"><path fill="red" stroke="red" d="M62.21 24.62C61.20 27.22 59.11 30.96 57.60 33.34L61.85 35.21C63.50 32.98 65.52 29.81 67.39 26.71ZM49.54 54.72L55.15 54.72L55.15 40.61L67.97 40.61L67.97 35.28L55.15 35.28L55.15 23.11L49.54 23.11L49.54 35.28L42.48 35.28L46.87 33.41C46.15 31.03 44.21 27.50 42.19 24.98L37.73 26.78C39.53 29.45 41.33 32.98 42.05 35.28L36.58 35.28L36.58 40.61L49.54 40.61ZM55.73 45.00C58.32 46.80 64.37 51.91 66.74 54.14L69.98 49.39C68.18 48.02 60.98 43.27 58.82 42.12ZM14.69 46.44L14.69 53.86L10.87 53.86L10.87 46.44ZM22.54 46.44L22.54 53.86L18.72 53.86L18.72 46.44ZM30.10 46.44L30.10 53.86L26.57 53.86L26.57 46.44ZM10.87 58.90L34.56 58.90L34.56 41.40L26.57 41.40L26.57 36.65L22.54 36.65L22.54 41.40L18.72 41.40L18.72 36.65L14.69 36.65L14.69 41.40L10.87 41.40L10.87 35.50L35.35 35.50L35.35 30.10L24.77 30.10C23.98 27.94 22.68 25.13 21.46 22.97L16.20 24.48C16.99 26.14 17.86 28.30 18.58 30.10L5.98 30.10L5.98 59.26C5.98 67.82 5.76 78.91 2.38 86.54C3.53 87.05 5.69 88.56 6.55 89.35C10.37 81.29 10.87 68.54 10.87 59.26ZM46.44 63.36C45.94 66.17 45.29 68.90 44.42 71.28C43.13 69.98 41.47 68.62 39.96 67.39C40.54 66.10 41.04 64.80 41.54 63.36ZM48.74 58.54L47.95 58.68L42.98 58.68C43.42 56.95 43.85 55.30 44.21 53.57L40.90 52.99C44.14 50.54 47.02 47.09 48.74 43.70L44.50 42.34C42.48 45.50 38.52 48.82 34.56 50.33C35.86 51.41 37.44 53.35 38.38 54.58C38.74 54.36 39.17 54.14 39.53 53.93C38.23 60.19 36.22 66.17 33.19 70.49L33.19 66.74L28.58 66.74L28.58 59.98L23.90 59.98L23.90 78.12C23.90 80.21 23.33 81.58 22.68 82.58C22.39 81.58 22.25 79.92 22.18 78.77L17.57 80.42L17.57 71.64L22.10 71.64L22.10 66.74L17.57 66.74L17.57 59.90L12.96 59.90L12.96 78.05C12.96 81.29 11.52 83.02 10.51 83.74C11.30 84.53 12.53 86.33 13.03 87.48C13.90 86.62 15.34 85.82 22.32 83.02C22.10 83.38 21.82 83.66 21.53 83.88C22.32 84.60 23.54 86.47 23.98 87.48C24.91 86.69 26.50 85.90 33.98 82.94C33.84 81.86 33.55 79.92 33.48 78.62L28.58 80.35L28.58 71.64L32.47 71.64C33.34 72.65 34.70 74.59 35.21 75.53C36.14 74.45 36.94 73.22 37.66 71.93C39.38 73.44 41.11 75.10 42.34 76.46C40.25 80.50 37.58 83.52 34.56 85.46C35.57 86.40 36.86 88.27 37.44 89.42C44.93 84.17 49.90 74.16 51.48 59.26ZM55.80 73.66C56.30 70.78 56.81 67.68 57.17 64.87L59.76 64.87L59.76 73.66ZM64.66 64.87L68.76 64.87L68.76 59.76L64.66 59.76L64.66 53.57L59.76 53.57L59.76 59.76L52.42 59.76L52.42 64.87L53.57 64.87C53.06 69.48 52.20 75.10 51.48 78.91L59.76 78.91L59.76 89.14L64.66 89.14L64.66 78.91L69.34 78.91L69.34 73.66L64.66 73.66Z"/></svg>
