<svg xmlns="http://www.w3.org/2000/svg" xmlns:xlink="http://www.w3.org/1999/xlink" width="72.00000000000001" height="106.56000000000002"><path fill="red" stroke="red" d="M34.99 28.94L23.83 28.94C23.26 27.00 22.32 24.55 21.46 22.75L15.41 24.19C15.98 25.63 16.63 27.29 17.06 28.94L4.32 28.94L4.32 34.63L34.99 34.63ZM13.10 63.72C16.56 65.02 21.10 67.18 23.54 68.40L26.21 64.73C23.83 63.50 19.22 61.63 15.77 60.41ZM12.60 57.67L26.57 57.67L26.57 69.48C21.17 71.50 16.06 73.51 12.31 74.66C12.53 71.93 12.60 69.26 12.60 66.82ZM33.19 52.63L6.98 52.63L6.98 66.74C6.98 72.72 6.70 80.50 3.46 86.18C4.82 86.83 7.34 88.56 8.35 89.57C10.80 85.39 11.81 79.99 12.31 74.74L14.33 80.06C18.00 78.26 22.25 76.25 26.57 74.09L26.57 81.79C26.57 82.58 26.35 82.80 25.49 82.87C24.62 82.94 22.10 82.94 19.37 82.80C20.16 84.38 21.17 86.98 21.53 88.70C25.56 88.70 28.44 88.63 30.60 87.62C32.62 86.62 33.19 84.89 33.19 81.94ZM25.20 34.92C24.55 37.37 23.33 40.75 22.32 43.34L16.34 43.34L16.63 43.27C16.20 41.04 15.12 37.51 14.04 34.92L8.64 36.14C9.43 38.38 10.30 41.18 10.80 43.34L3.17 43.34L3.17 49.03L36.14 49.03L36.14 43.34L28.08 43.34C29.09 41.26 30.10 38.66 31.18 36.29ZM49.68 83.30C46.44 83.30 45.94 82.87 45.94 80.35L45.94 78.26L63.65 78.26C63.36 82.44 62.78 83.30 60.55 83.30ZM65.59 78.26L65.59 74.16L45.94 74.16L45.94 70.27L64.87 70.27L64.87 66.10L45.94 66.10L45.94 62.35L65.30 62.35L65.30 58.25L45.94 58.25L45.94 54.58L65.30 54.58L65.30 38.95L45.94 38.95L45.94 33.91L68.11 33.91L68.11 28.44L45.94 28.44L45.94 23.18L39.38 23.18L39.38 44.06L58.90 44.06L58.90 49.46L39.38 49.46L39.38 80.42C39.38 87.12 41.54 88.78 48.82 88.78L61.13 88.78C66.96 88.78 68.69 86.76 69.48 79.92C68.11 79.63 66.24 78.98 64.80 78.26Z"/></svg>
