<svg xmlns="http://www.w3.org/2000/svg" xmlns:xlink="http://www.w3.org/1999/xlink" width="72.00000000000001" height="106.56000000000002"><path fill="red" stroke="red" d="M66.82 38.74L66.82 32.11L24.19 32.11C25.49 29.88 26.71 27.58 27.72 25.27L20.74 23.11C16.78 32.40 10.08 41.40 2.81 46.94C4.54 48.17 7.42 50.54 8.71 51.91C12.60 48.46 16.49 43.85 20.02 38.74ZM24.70 80.93C20.52 80.93 18.00 80.06 18.00 77.90C18.00 75.17 20.30 71.57 55.08 51.77C55.66 51.48 56.09 51.05 56.45 50.69L51.62 47.23L50.11 47.45L15.05 47.45L15.05 53.86L38.23 53.86C12.10 69.84 10.87 74.23 10.87 78.55C10.87 84.17 15.48 87.62 25.34 87.62L55.01 87.62C63.65 87.62 66.67 85.32 67.68 73.44C65.59 73.01 63.07 72.22 61.20 71.06C60.84 79.63 59.47 81.00 55.66 81.00Z"/></svg>
