<svg xmlns="http://www.w3.org/2000/svg" xmlns:xlink="http://www.w3.org/1999/xlink" width="72.00000000000001" height="106.56000000000002"><path fill="red" stroke="red" d="M67.90 51.19L40.25 51.19L40.25 34.63L63.00 34.63L63.00 28.01L9.07 28.01L9.07 34.63L33.19 34.63L33.19 51.19L4.18 51.19L4.18 57.82L33.19 57.82L33.19 79.99C33.19 81.50 32.54 81.94 31.03 81.94C29.38 82.01 23.90 82.08 18.22 81.86C19.37 83.74 20.66 86.90 21.02 88.92C28.22 88.92 33.19 88.78 36.14 87.62C39.10 86.54 40.25 84.53 40.25 80.06L40.25 57.82L67.90 57.82Z"/></svg>
