<svg xmlns="http://www.w3.org/2000/svg" xmlns:xlink="http://www.w3.org/1999/xlink" width="72.00000000000001" height="106.56000000000002"><path fill="red" stroke="red" d="M59.90 59.98C66.02 59.98 67.90 57.31 68.69 47.88C66.89 47.52 64.08 46.44 62.64 45.29C62.28 52.34 61.85 53.64 59.33 53.64L49.54 53.64C46.51 53.64 46.01 53.21 46.01 50.62L46.01 40.82L63.94 40.82L63.94 34.85L46.01 34.85L46.01 23.11L39.31 23.11L39.31 50.62C39.31 57.89 41.18 59.98 48.67 59.98ZM12.17 72.00L60.55 72.00L60.55 65.59L12.17 65.59ZM36.65 51.91L25.70 53.21L25.70 40.75L36.22 40.75L36.22 34.78L25.70 34.78L25.70 23.11L19.08 23.11L19.08 53.93L13.68 54.50L13.68 30.74L7.49 30.74L7.49 55.15L3.02 55.51L3.82 62.14C12.60 61.06 25.06 59.54 36.79 58.03ZM4.10 87.55L67.97 87.55L67.97 80.93L4.10 80.93Z"/></svg>
