<svg xmlns="http://www.w3.org/2000/svg" xmlns:xlink="http://www.w3.org/1999/xlink" width="72.00000000000001" height="106.56000000000002"><path fill="red" stroke="red" d="M16.34 68.69C13.75 73.37 8.42 79.20 3.82 83.02C5.18 84.02 7.49 85.90 8.64 87.26C13.61 83.02 19.15 76.68 22.90 70.99ZM19.94 48.89L52.27 48.89L52.27 58.75L19.94 58.75ZM59.33 64.51L59.33 43.06L13.32 43.06L13.32 64.51L32.76 64.51L32.76 81.72C32.76 82.66 32.40 82.94 31.18 82.94C29.88 83.02 25.42 83.02 21.17 82.87C21.96 84.67 22.97 87.41 23.33 89.35C29.38 89.35 33.55 89.35 36.29 88.34C39.02 87.34 39.82 85.54 39.82 81.86L39.82 64.51ZM48.53 71.93C53.14 76.68 58.68 83.38 61.20 87.41L67.10 83.52C64.37 79.42 58.54 73.08 54.07 68.54ZM41.33 31.68C40.18 29.02 37.94 25.27 36.07 22.54L29.59 24.62C30.89 26.71 32.26 29.38 33.41 31.68L4.75 31.68L4.75 38.23L67.25 38.23L67.25 31.68Z"/></svg>
