<svg xmlns="http://www.w3.org/2000/svg" xmlns:xlink="http://www.w3.org/1999/xlink" width="72.00000000000001" height="106.56000000000002"><path fill="red" stroke="red" d="M18.65 23.47C14.76 33.98 8.35 44.50 1.58 51.19C2.66 52.70 4.61 56.30 5.26 57.96C7.27 55.87 9.29 53.42 11.23 50.76L11.23 89.14L17.57 89.14L17.57 40.97C20.38 35.93 22.97 30.67 24.91 25.34ZM40.68 82.58C35.71 82.58 34.85 81.72 34.85 77.54L34.85 53.06L44.06 49.39L44.06 72.94L50.04 72.94L50.04 47.09L60.05 43.13C59.83 52.27 59.40 62.57 58.61 68.90L64.15 70.42C65.52 61.85 66.31 48.31 66.60 38.02L66.82 36.86L61.78 35.21L60.84 35.93L50.04 40.18L50.04 23.40L44.06 23.40L44.06 42.55L34.85 46.15L34.85 30.74L28.58 30.74L28.58 48.60L19.58 52.13L22.25 58.03L28.58 55.58L28.58 77.47C28.58 86.33 31.18 88.56 40.39 88.56L58.10 88.56C66.31 88.56 68.33 85.18 69.34 74.95C67.54 74.59 64.94 73.51 63.36 72.43C62.71 80.71 61.99 82.58 57.74 82.58Z"/></svg>
