<svg xmlns="http://www.w3.org/2000/svg" xmlns:xlink="http://www.w3.org/1999/xlink" width="72.00000000000001" height="106.56000000000002"><path fill="red" stroke="red" d="M18.50 23.47C14.62 34.13 8.21 44.78 1.37 51.55C2.45 53.21 4.32 56.74 4.90 58.39C7.42 55.73 9.86 52.63 12.24 49.25L12.24 89.14L18.72 89.14L18.72 38.59C21.02 34.27 23.04 29.81 24.70 25.34ZM55.94 57.17L55.94 80.06L38.88 80.06C40.10 73.66 41.47 65.59 42.84 57.17ZM62.71 80.06L62.71 50.90L43.78 50.90C44.64 45.43 45.43 40.03 46.08 34.92L66.17 34.92L66.17 28.58L25.85 28.58L25.85 34.92L39.24 34.92C38.59 39.96 37.80 45.43 37.01 50.90L25.85 50.90L25.85 57.17L36.07 57.17C34.70 65.52 33.34 73.58 32.04 80.06L22.61 80.06L22.61 86.33L69.48 86.33L69.48 80.06Z"/></svg>
