<svg xmlns="http://www.w3.org/2000/svg" xmlns:xlink="http://www.w3.org/1999/xlink" width="72.00000000000001" height="106.56000000000002"><path fill="red" stroke="red" d="M42.19 47.23L23.76 47.23L23.76 53.57L67.68 53.57L67.68 47.23L48.96 47.23L48.96 38.16L64.44 38.16L64.44 31.90L48.96 31.90L48.96 23.11L42.19 23.11L42.19 31.90L27.14 31.90L27.14 38.16L42.19 38.16ZM18.72 23.40C15.12 33.91 9.14 44.42 2.66 51.19C3.82 52.70 5.69 56.30 6.26 57.89C8.14 55.87 9.86 53.71 11.59 51.34L11.59 89.14L18.22 89.14L18.22 40.46C20.81 35.64 23.18 30.38 24.98 25.34ZM48.96 80.21L48.96 69.70L65.74 69.70L65.74 63.36L48.96 63.36L48.96 56.02L42.19 56.02L42.19 63.36L25.78 63.36L25.78 69.70L42.19 69.70L42.19 80.21L21.53 80.21L21.53 86.69L68.98 86.69L68.98 80.21Z"/></svg>
