<svg xmlns="http://www.w3.org/2000/svg" xmlns:xlink="http://www.w3.org/1999/xlink" width="72.00000000000001" height="106.56000000000002"><path fill="red" stroke="red" d="M68.04 40.18C64.73 35.71 57.82 28.73 52.85 23.83L47.66 27.29C52.70 32.47 59.40 39.74 62.57 44.28ZM35.57 23.90C32.11 30.17 26.64 36.86 21.31 41.11C22.97 42.19 25.63 44.21 26.86 45.36C31.97 40.61 37.87 33.05 41.90 26.06ZM18.29 23.40C14.54 33.91 8.35 44.35 1.87 51.12C2.95 52.70 4.90 56.30 5.54 57.89C7.49 55.80 9.43 53.35 11.23 50.76L11.23 89.06L17.64 89.06L17.64 40.46C20.30 35.64 22.68 30.46 24.62 25.27ZM29.23 62.06C35.14 57.74 40.10 52.34 44.06 46.08C48.53 52.85 53.42 57.82 59.33 62.06ZM33.55 80.35L33.55 68.04L54.43 68.04L54.43 80.35ZM42.26 35.64C37.66 46.58 28.80 55.58 18.50 60.55C20.09 62.06 22.03 64.37 22.97 66.17C24.41 65.38 25.78 64.51 27.14 63.58L27.14 89.21L33.55 89.21L33.55 86.33L54.43 86.33L54.43 88.70L61.06 88.70L61.06 63.36C62.57 64.30 64.08 65.30 65.66 66.24C66.46 64.30 68.33 62.06 69.91 60.62C60.77 55.94 53.21 50.04 47.30 40.18C47.66 39.38 48.02 38.66 48.38 37.87Z"/></svg>
