<svg xmlns="http://www.w3.org/2000/svg" xmlns:xlink="http://www.w3.org/1999/xlink" width="72.00000000000001" height="106.56000000000002"><path fill="red" stroke="red" d="M58.82 33.77L58.82 38.30L53.35 38.30L53.35 33.77ZM58.82 48.02L53.35 48.02L53.35 43.34L58.82 43.34ZM47.81 38.30L35.93 38.30L35.93 43.34L47.81 43.34L47.81 48.02L39.10 48.02L39.10 52.99L47.81 52.99L47.81 57.38L38.16 57.38L38.16 62.64L47.81 62.64L47.81 67.39L36.43 67.39L36.43 72.65L47.81 72.65L47.81 80.35L53.35 80.35L53.35 72.65L67.32 72.65L67.32 67.39L53.35 67.39L53.35 62.64L65.16 62.64L65.16 57.38L53.35 57.38L53.35 52.99L64.01 52.99L64.01 43.34L68.69 43.34L68.69 38.30L64.01 38.30L64.01 28.80L53.35 28.80L53.35 23.11L47.81 23.11L47.81 28.80L39.10 28.80L39.10 33.77L47.81 33.77ZM14.98 23.26C12.31 33.41 7.78 43.49 2.52 50.11C3.53 51.77 5.18 55.51 5.69 57.10C7.20 55.22 8.57 53.06 10.01 50.76L10.01 89.14L15.91 89.14L15.91 39.10C17.86 34.56 19.58 29.74 21.02 24.98ZM33.19 48.82L32.54 48.89L28.15 48.89C30.67 42.55 33.62 34.70 35.93 28.08L20.66 28.08L20.66 33.84L27.86 33.84C25.34 40.90 22.32 48.74 19.94 54.14L30.74 54.14C30.10 60.19 29.02 65.23 27.50 69.62C25.99 67.10 24.70 64.01 23.69 60.41L18.86 62.14C20.52 67.61 22.61 71.86 25.06 75.31C22.75 79.63 19.94 82.80 16.42 85.10C17.71 85.90 19.87 87.91 20.81 89.21C23.98 86.90 26.71 83.88 28.94 79.99C35.93 86.47 45.07 88.06 55.44 88.06L67.10 88.06C67.39 86.54 68.33 83.95 69.19 82.58C66.24 82.66 58.03 82.66 55.80 82.66C46.51 82.66 37.80 81.14 31.46 74.81C34.06 68.33 35.78 59.98 36.65 49.54Z"/></svg>
