<svg xmlns="http://www.w3.org/2000/svg" xmlns:xlink="http://www.w3.org/1999/xlink" width="72.00000000000001" height="106.56000000000002"><path fill="red" stroke="red" d="M42.12 39.10L22.25 39.10L22.25 44.35L68.33 44.35L68.33 39.10L48.82 39.10L48.82 34.13L64.94 34.13L64.94 29.09L48.82 29.09L48.82 23.76L42.12 23.76L42.12 29.09L26.42 29.09L26.42 34.13L42.12 34.13ZM44.93 58.75L44.93 63.43L68.33 63.43L68.33 58.75L59.04 58.75L59.04 53.78L67.03 53.78L67.03 49.18L59.04 49.18L59.04 45.00L53.28 45.00L53.28 49.18L45.79 49.18L45.79 53.78L53.28 53.78L53.28 58.75ZM43.99 53.78L43.99 49.18L36.43 49.18L36.43 45.00L30.67 45.00L30.67 49.18L22.90 49.18L22.90 53.78L30.67 53.78L30.67 59.04C27.07 59.33 23.83 59.62 21.10 59.76L22.03 64.66C28.08 64.01 35.93 63.29 43.70 62.50L43.63 57.89L36.43 58.54L36.43 53.78ZM16.34 23.40C13.03 34.20 7.49 44.86 1.51 51.84C2.52 53.50 4.25 57.24 4.82 58.90C6.84 56.59 8.71 53.93 10.58 50.98L10.58 89.14L16.92 89.14L16.92 39.31C19.08 34.70 20.95 29.88 22.54 25.13ZM56.45 83.16C54.79 83.16 54.50 82.87 54.50 81.22L54.50 72.58L68.90 72.58L68.90 67.03L20.59 67.03L20.59 72.58L34.42 72.58C33.26 78.77 30.02 82.22 19.44 84.31C20.66 85.39 22.32 87.84 22.90 89.35C35.50 86.40 39.53 81.29 40.97 72.58L48.24 72.58L48.24 81.22C48.24 87.05 49.54 88.85 55.51 88.85L62.50 88.85C67.03 88.85 68.76 86.90 69.41 79.20C67.68 78.77 65.09 77.76 63.86 76.82C63.65 82.37 63.29 83.16 61.78 83.16Z"/></svg>
