<svg xmlns="http://www.w3.org/2000/svg" xmlns:xlink="http://www.w3.org/1999/xlink" width="72.00000000000001" height="106.56000000000002"><path fill="red" stroke="red" d="M16.27 23.40C12.96 34.20 7.49 44.86 1.51 51.84C2.52 53.57 4.25 57.31 4.82 58.90C6.77 56.59 8.78 53.93 10.58 51.05L10.58 89.14L16.92 89.14L16.92 39.24C19.01 34.63 20.95 29.88 22.46 25.13ZM54.58 70.63L54.58 74.59L33.98 74.59L33.98 70.63ZM33.98 82.66L33.98 78.62L54.58 78.62L54.58 82.66ZM27.72 89.21L33.98 89.21L33.98 87.12L54.58 87.12L54.58 88.99L61.13 88.99L61.13 66.31L27.72 66.31ZM52.06 58.32C53.21 56.66 54.58 54.29 56.02 51.91L52.13 50.47C51.48 52.27 50.04 55.22 48.96 57.10ZM32.76 51.70C34.13 53.71 35.35 56.38 35.86 58.18L39.38 56.88C38.95 55.08 37.66 52.49 36.29 50.54ZM30.82 49.54L41.62 49.54L41.62 59.04L30.82 59.04ZM57.89 59.04L46.87 59.04L46.87 49.54L57.89 49.54ZM25.06 63.50L63.86 63.50L63.86 45.07L25.06 45.07ZM35.28 37.15C38.52 34.70 41.54 31.90 44.06 28.94C47.09 31.75 50.83 34.56 54.72 37.15ZM47.88 23.98L42.62 22.03C37.80 29.38 28.66 35.42 19.80 39.10C20.74 40.39 22.10 43.49 22.54 44.86C26.50 43.06 30.31 40.75 33.98 38.09L33.98 41.76L54.94 41.76L54.94 37.30C58.97 39.96 63.14 42.48 66.96 44.28C67.32 42.70 68.26 39.82 69.12 38.30C61.78 35.35 52.42 29.95 47.16 24.98Z"/></svg>
