<svg xmlns="http://www.w3.org/2000/svg" xmlns:xlink="http://www.w3.org/1999/xlink" width="72.00000000000001" height="106.56000000000002"><path fill="red" stroke="red" d="M59.40 28.87C56.88 34.42 52.20 41.98 48.53 46.58L53.71 49.54C57.60 45.07 62.21 38.16 66.02 32.18ZM22.03 46.66C20.16 41.90 15.48 34.85 11.38 29.59L5.76 32.54C9.79 37.94 14.26 45.29 15.91 50.04ZM24.05 51.62C24.05 52.70 24.05 53.93 23.98 55.08C16.20 58.39 8.21 61.70 3.10 63.50L6.19 70.20C11.23 67.82 17.28 64.94 23.26 62.06C21.67 70.92 16.85 78.77 3.82 84.02C5.11 85.32 7.13 87.98 7.85 89.64C28.01 81.29 30.60 67.03 30.60 51.62L30.60 23.98L24.05 23.98ZM50.18 81.79C47.30 81.79 46.87 81.22 46.87 77.54L46.87 58.46C53.42 62.21 60.84 67.32 64.51 70.92L68.83 65.45C64.44 61.42 55.30 55.73 48.38 52.20L46.87 54.00L46.87 23.98L40.10 23.98L40.10 77.54C40.10 86.04 42.12 88.20 49.18 88.20L60.26 88.20C66.38 88.20 68.26 85.10 69.05 76.32C67.18 75.89 64.51 74.74 63.00 73.58C62.57 80.06 62.14 81.79 59.76 81.79Z"/></svg>
