<svg xmlns="http://www.w3.org/2000/svg" xmlns:xlink="http://www.w3.org/1999/xlink" width="72.00000000000001" height="106.56000000000002"><path fill="red" stroke="red" d="M6.26 66.89L6.26 72.22L28.30 72.22C25.85 78.55 20.30 82.08 3.74 83.95C4.82 85.18 6.41 87.84 6.91 89.50C25.99 86.90 32.54 81.65 35.28 72.22L56.09 72.22C55.30 78.77 54.43 81.79 53.28 82.80C52.56 83.38 51.77 83.45 50.40 83.45C48.82 83.45 44.64 83.45 40.54 83.02C41.62 84.67 42.41 87.05 42.55 88.70C46.80 88.92 50.76 88.99 52.99 88.85C55.44 88.63 57.10 88.20 58.61 86.83C60.70 84.82 61.78 80.21 62.93 69.48C63.07 68.62 63.22 66.89 63.22 66.89ZM14.98 53.57C15.12 52.34 15.19 51.12 15.26 49.97L29.38 49.97L29.38 53.57ZM29.38 42.55L29.38 46.15L15.26 46.15L15.26 42.55ZM34.92 38.45L9.79 38.45L9.79 48.38C9.79 52.85 9.36 58.25 5.18 62.35C6.34 62.93 8.64 64.94 9.58 65.95C11.95 63.50 13.39 60.48 14.26 57.38L29.38 57.38L29.38 59.40C29.38 60.05 29.16 60.26 28.51 60.26C27.86 60.34 25.85 60.34 23.76 60.26C24.34 61.42 25.06 62.93 25.34 64.22C28.66 64.22 31.18 64.22 32.83 63.50C34.42 62.78 34.92 61.85 34.92 59.40ZM41.98 39.38L41.98 57.60L47.66 57.60L47.66 39.38ZM61.56 37.51L55.66 37.51L55.66 59.18C55.66 59.90 55.44 60.12 54.58 60.19C53.78 60.26 51.12 60.26 48.38 60.12C49.03 61.42 49.82 63.22 50.11 64.66C54.22 64.66 57.10 64.66 59.04 63.94C60.91 63.14 61.56 62.06 61.56 59.33ZM51.05 29.95C52.27 28.22 53.71 26.21 55.08 24.12L48.31 22.82C47.38 24.91 45.65 27.79 44.14 29.95L23.54 29.95L26.93 29.16C26.21 27.43 24.62 24.62 23.04 22.75L16.92 24.12C18.22 25.85 19.51 28.15 20.23 29.95L4.82 29.95L4.82 35.14L67.32 35.14L67.32 29.95Z"/></svg>
