<svg xmlns="http://www.w3.org/2000/svg" xmlns:xlink="http://www.w3.org/1999/xlink" width="72.00000000000001" height="106.56000000000002"><path fill="red" stroke="red" d="M13.39 40.82L21.60 40.82L21.60 44.78L14.54 45.58L15.05 49.54L21.60 48.74C21.60 52.92 22.61 54.86 27.58 54.86L37.37 54.86C39.38 54.86 41.54 54.79 42.62 54.50C42.41 53.28 42.34 51.91 42.19 50.54C41.04 50.83 38.52 50.90 37.15 50.90L28.66 50.90C27.07 50.90 26.86 50.33 26.86 48.74L26.86 48.17L35.93 47.16L35.42 43.34L26.86 44.28L26.86 40.82L38.81 40.82C38.38 42.91 37.80 45.00 37.30 46.51L42.12 47.59C43.27 44.86 44.50 40.46 45.29 36.58L41.40 35.71L40.39 35.86L27.29 35.86L27.29 32.11L42.84 32.11L42.84 27.29L27.29 27.29L27.29 23.26L21.02 23.26L21.02 35.86L7.63 35.86L7.63 55.73C7.63 64.87 7.20 77.33 2.30 86.18C3.60 86.76 6.19 88.27 7.27 89.28C12.53 79.85 13.39 65.81 13.39 55.73ZM39.38 63.36C37.66 65.16 34.85 67.54 32.33 69.55C31.32 67.82 29.95 66.17 28.22 64.66C29.74 63.72 31.10 62.78 32.33 61.78L43.99 61.78L43.99 57.24L15.05 57.24L15.05 61.78L26.06 61.78C22.68 63.79 18.22 65.59 14.33 66.67C14.98 67.39 15.91 69.05 16.34 69.98C18.94 69.19 21.67 68.11 24.26 66.74C24.91 67.32 25.49 67.97 25.92 68.54C22.82 70.85 17.64 73.22 13.46 74.38C14.33 75.17 15.34 76.75 15.84 77.76C19.80 76.32 24.55 73.73 27.86 71.28C28.37 72.14 28.73 72.94 29.02 73.66C24.84 77.62 17.06 81.58 10.80 83.30C11.74 84.24 12.74 85.90 13.32 86.98C18.94 84.89 25.34 81.36 29.95 77.69C30.17 80.50 29.52 82.80 28.37 83.66C27.58 84.53 26.50 84.67 25.27 84.67C24.12 84.67 22.54 84.60 20.59 84.38C21.53 85.75 22.03 87.77 22.10 89.14C23.62 89.21 25.13 89.28 26.28 89.28C28.80 89.21 30.31 88.78 32.11 87.26C34.92 85.03 36.14 79.20 33.98 73.22C34.56 72.86 35.14 72.50 35.78 72.14C37.73 75.60 41.18 82.01 42.48 84.96L46.66 81.14C45.50 79.34 41.11 72.65 39.02 69.84C40.46 68.76 42.05 67.61 43.42 66.46ZM54.07 31.61L48.10 31.61L48.10 72.00L54.07 72.00ZM59.62 25.27L59.62 81.14C59.62 82.30 59.26 82.66 58.18 82.66C56.95 82.66 53.06 82.66 49.25 82.51C50.04 84.38 51.05 87.34 51.26 89.06C56.59 89.14 60.48 88.92 62.78 87.84C65.16 86.83 65.95 84.89 65.95 81.14L65.95 25.27Z"/></svg>
