<svg xmlns="http://www.w3.org/2000/svg" xmlns:xlink="http://www.w3.org/1999/xlink" width="72.00000000000001" height="106.56000000000002"><path fill="red" stroke="red" d="M27.79 35.14C27.07 38.45 25.56 42.05 22.10 45.58C19.73 44.42 17.21 43.42 14.76 42.34C15.84 40.39 16.92 38.09 18.00 35.78ZM34.63 52.34C32.62 50.98 30.17 49.61 27.36 48.10C31.39 43.63 32.98 38.95 33.55 34.78L36.43 34.56L36.50 29.59L33.91 29.74L33.91 26.86L28.30 26.86L28.30 29.66L28.30 30.02L20.23 30.46C21.24 28.15 22.10 25.78 22.82 23.62L16.92 22.68C16.13 25.27 15.12 28.01 13.97 30.74C10.15 30.96 6.62 31.10 3.67 31.25L4.32 36.50L11.59 36.07C10.01 39.24 8.42 42.19 6.98 44.57C10.58 45.94 14.18 47.59 17.57 49.25C14.04 51.55 9.43 53.71 3.31 55.66C4.54 56.74 6.05 58.75 6.70 60.12C13.82 57.82 19.15 55.01 23.04 52.06C25.78 53.57 28.22 55.08 30.10 56.45ZM59.11 33.12C57.38 37.66 54.86 41.47 51.77 44.64C48.74 41.33 46.30 37.44 44.71 33.12ZM63.00 27.22L61.85 27.43L37.66 27.43L37.66 33.12L41.98 33.12L38.81 33.91C40.82 39.53 43.56 44.50 47.09 48.60C43.63 51.05 39.60 52.99 35.42 54.14C36.36 55.22 37.58 56.95 38.38 58.46L31.68 58.46C31.46 60.55 31.18 62.50 30.82 64.37L8.71 64.37L8.71 70.06L29.09 70.06C26.06 76.82 19.66 81.36 4.68 83.95C5.83 85.25 7.49 87.91 8.06 89.64C25.92 86.18 32.98 79.78 36.14 70.06L55.87 70.06C54.94 77.90 53.86 81.43 52.63 82.58C51.98 83.16 51.19 83.30 49.90 83.30C48.46 83.30 44.78 83.23 41.04 82.94C42.12 84.60 42.77 87.05 42.91 88.78C47.02 89.06 50.90 89.06 53.06 88.92C55.37 88.70 57.02 88.20 58.61 86.76C60.70 84.60 62.14 79.34 63.36 67.10C63.50 66.24 63.58 64.37 63.58 64.37L37.66 64.37C37.94 62.50 38.23 60.62 38.45 58.61L38.81 59.40C43.42 57.82 47.74 55.73 51.55 52.92C55.30 56.09 59.83 58.54 64.94 60.19C65.88 58.54 67.61 56.02 68.98 54.72C64.15 53.42 59.98 51.41 56.38 48.74C61.20 43.70 64.87 37.15 66.96 28.58Z"/></svg>
