<svg xmlns="http://www.w3.org/2000/svg" xmlns:xlink="http://www.w3.org/1999/xlink" width="72.00000000000001" height="106.56000000000002"><path fill="red" stroke="red" d="M38.30 27.22L3.60 27.22L3.60 33.12L38.30 33.12ZM8.42 33.98C7.42 37.15 5.62 41.98 3.74 45.94C6.34 50.54 8.57 55.44 9.50 58.97L14.69 57.17C13.68 54.14 11.52 49.68 9.29 45.94C10.73 42.55 12.38 38.74 13.68 35.06ZM25.49 56.95C24.41 54.07 22.10 49.54 19.73 45.86C21.31 42.55 23.18 38.74 24.55 35.14L19.30 33.98C18.14 37.15 16.13 41.98 14.11 45.94C16.85 50.40 19.30 55.37 20.30 58.75ZM37.01 56.88C35.64 54.00 33.12 49.54 30.53 45.86C32.33 42.55 34.34 38.81 36.00 35.21L30.53 33.98C29.30 37.15 27.00 41.98 24.70 45.94C27.72 50.40 30.53 55.37 31.68 58.75ZM52.06 39.53C52.13 34.63 52.20 29.45 52.20 24.12L45.79 24.12C45.79 29.52 45.79 34.63 45.72 39.53L37.22 39.53L37.22 45.72L45.50 45.72C44.93 58.82 43.13 69.77 37.22 77.90L37.08 74.66C32.62 75.38 28.01 76.10 23.62 76.75L23.62 65.74L36.86 65.74L36.86 59.83L4.18 59.83L4.18 65.74L17.14 65.74L17.14 77.76C11.74 78.55 6.77 79.20 2.81 79.70L3.89 86.40C12.17 84.96 23.40 83.16 34.34 81.36C33.19 82.51 31.90 83.66 30.53 84.67C32.11 85.75 34.27 88.13 35.28 89.64C47.66 80.14 50.90 64.87 51.84 45.72L60.91 45.72C60.34 70.49 59.62 79.63 58.03 81.65C57.31 82.58 56.66 82.80 55.44 82.80C54.14 82.80 51.19 82.80 47.88 82.51C48.89 84.31 49.61 87.05 49.75 88.85C53.14 89.06 56.45 89.06 58.61 88.78C60.84 88.42 62.35 87.84 63.72 85.68C66.02 82.58 66.67 72.36 67.46 42.62C67.46 41.83 67.54 39.53 67.54 39.53Z"/></svg>
