<svg xmlns="http://www.w3.org/2000/svg" xmlns:xlink="http://www.w3.org/1999/xlink" width="72.00000000000001" height="106.56000000000002"><path fill="red" stroke="red" d="M11.38 54.36L18.43 54.36L18.43 61.20L11.38 61.20ZM31.18 61.20L24.12 61.20L24.12 54.36L31.18 54.36ZM16.49 34.99L25.99 34.99L25.99 39.96L16.49 39.96ZM52.27 39.38C52.34 34.27 52.42 28.87 52.42 23.40L46.08 23.40C46.08 28.94 46.08 34.27 46.01 39.38L36.65 39.38L36.65 45.65L45.79 45.65C45.22 58.10 43.63 68.69 38.59 76.61L38.59 71.35L24.34 71.35L24.34 66.38L36.86 66.38L36.86 49.18L24.34 49.18L24.34 45.14L31.82 45.14L31.82 34.99L38.45 34.99L38.45 29.74L31.82 29.74L31.82 23.18L25.99 23.18L25.99 29.74L16.49 29.74L16.49 23.18L10.94 23.18L10.94 29.74L3.74 29.74L3.74 34.99L10.94 34.99L10.94 45.14L18.14 45.14L18.14 49.18L5.90 49.18L5.90 66.38L18.14 66.38L18.14 71.35L3.17 71.35L3.17 77.04L18.14 77.04L18.14 89.28L24.34 89.28L24.34 77.04L38.38 77.04C36.58 79.85 34.42 82.22 31.75 84.38C33.26 85.39 35.42 87.70 36.36 89.35C47.95 79.92 51.12 64.58 51.98 45.65L60.62 45.65C60.05 70.49 59.33 79.70 57.74 81.72C57.10 82.66 56.38 82.87 55.22 82.87C53.86 82.87 50.69 82.87 47.30 82.51C48.31 84.31 49.10 86.98 49.18 88.78C52.63 88.92 56.09 88.99 58.25 88.70C60.48 88.34 61.99 87.70 63.43 85.61C65.66 82.58 66.24 72.36 66.96 42.55C67.03 41.69 67.03 39.38 67.03 39.38Z"/></svg>
