<svg xmlns="http://www.w3.org/2000/svg" xmlns:xlink="http://www.w3.org/1999/xlink" width="72.00000000000001" height="106.56000000000002"><path fill="red" stroke="red" d="M32.40 50.04L39.38 50.04L39.38 39.02L64.15 39.02L64.15 32.62L39.38 32.62L39.38 23.18L32.40 23.18L32.40 32.62L7.92 32.62L7.92 39.02L32.40 39.02ZM67.90 56.59L54.58 56.59L54.58 46.51L47.66 46.51L47.66 56.59L24.19 56.59L24.19 46.51L17.42 46.51L17.42 56.59L3.96 56.59L3.96 63.22L17.28 63.22C16.63 70.56 13.90 78.19 3.17 83.81C4.68 84.96 6.98 87.48 7.99 89.06C20.52 82.22 23.47 72.50 24.05 63.22L47.66 63.22L47.66 89.06L54.58 89.06L54.58 63.22L67.90 63.22Z"/></svg>
