<svg xmlns="http://www.w3.org/2000/svg" xmlns:xlink="http://www.w3.org/1999/xlink" width="72.00000000000001" height="106.56000000000002"><path fill="red" stroke="red" d="M65.95 31.39L40.54 31.39L41.11 31.18C40.46 28.94 38.59 25.42 36.94 22.75L30.53 24.77C31.68 26.78 32.90 29.30 33.77 31.39L5.98 31.39L5.98 37.73L65.95 37.73ZM33.70 53.71C31.61 51.77 27.65 48.96 24.34 46.66C25.34 44.57 26.28 42.34 27.00 39.96L20.38 38.52C17.64 47.45 12.02 55.08 4.68 59.62C6.19 60.62 8.93 62.86 10.01 64.01C14.33 60.84 18.29 56.74 21.46 51.70C24.55 53.93 27.86 56.66 29.66 58.46ZM68.04 66.17L39.17 66.17L39.17 61.42L38.95 61.42C42.26 59.04 45.36 55.94 48.02 52.42C53.06 56.02 58.75 60.48 61.63 63.36L66.10 58.61C62.78 55.51 56.52 50.90 51.34 47.45C52.56 45.22 53.71 42.77 54.58 40.18L47.95 38.74C45.29 46.87 39.67 53.71 32.47 57.74C33.77 58.61 35.64 60.19 36.94 61.42L32.26 61.42L32.26 66.17L4.10 66.17L4.10 72.58L32.26 72.58L32.26 89.14L39.17 89.14L39.17 72.58L68.04 72.58Z"/></svg>
