<svg xmlns="http://www.w3.org/2000/svg" xmlns:xlink="http://www.w3.org/1999/xlink" width="72.00000000000001" height="106.56000000000002"><path fill="red" stroke="red" d="M31.10 23.26C24.84 25.99 14.69 29.23 7.70 30.74L7.70 64.01C7.70 67.03 6.05 68.54 4.82 69.34C5.83 70.49 7.20 73.01 7.63 74.59C9.14 73.51 11.45 72.58 24.70 68.83C21.96 74.88 16.49 80.50 5.54 84.74C6.91 85.90 9.00 88.34 9.79 89.78C30.96 81.43 33.55 67.68 33.55 54.58L33.55 37.08L27.14 37.08L27.14 54.50C27.14 57.02 27.00 59.62 26.57 62.21L14.33 65.30L14.33 35.35C20.95 33.70 28.87 31.39 34.92 28.94ZM25.27 55.15C24.62 51.70 22.39 46.30 20.16 42.19L15.12 43.92C17.21 48.17 19.30 53.78 20.02 57.24ZM65.88 28.58L39.38 28.58L39.38 89.28L45.86 89.28L45.86 34.70L59.40 34.70L59.40 69.98C59.40 70.99 59.04 71.35 57.96 71.35C56.95 71.35 53.42 71.35 49.82 71.21C50.69 73.08 51.41 76.18 51.62 78.05C57.17 78.05 60.70 77.98 62.93 76.82C65.30 75.74 65.88 73.66 65.88 70.06ZM57.96 57.31C57.02 53.64 54.29 47.74 51.55 43.34L46.51 45.29C49.03 49.82 51.62 55.87 52.49 59.62Z"/></svg>
