<svg xmlns="http://www.w3.org/2000/svg" xmlns:xlink="http://www.w3.org/1999/xlink" width="72.00000000000001" height="106.56000000000002"><path fill="red" stroke="red" d="M15.34 40.39L32.62 40.39L32.62 52.34L15.34 52.34ZM56.81 40.39L56.81 52.34L39.53 52.34L39.53 40.39ZM63.72 58.75L63.72 33.98L39.53 33.98L39.53 23.40L32.62 23.40L32.62 33.98L8.78 33.98L8.78 58.75L32.47 58.75C32.11 63.72 30.89 68.33 27.43 72.29C23.76 69.26 20.52 65.45 18.00 60.48L11.88 62.71C14.69 68.54 18.07 73.08 22.25 76.61C17.86 79.42 11.74 81.65 3.10 83.38C4.54 84.89 6.34 87.77 7.06 89.35C16.56 87.12 23.33 84.17 28.08 80.71C37.73 86.11 50.33 87.98 66.38 88.85C66.89 86.54 68.26 83.59 69.48 81.94C54.00 81.50 42.19 80.21 33.34 75.89C37.44 70.85 38.95 64.94 39.38 58.75Z"/></svg>
