<svg xmlns="http://www.w3.org/2000/svg" xmlns:xlink="http://www.w3.org/1999/xlink" width="72.00000000000001" height="106.56000000000002"><path fill="red" stroke="red" d="M18.50 35.86L18.50 64.22L11.23 64.22L11.23 35.86ZM24.41 70.42L24.41 29.66L5.40 29.66L5.40 77.04L11.23 77.04L11.23 70.42ZM44.28 26.57L44.28 32.62L52.20 32.62C54.22 40.10 57.46 47.09 61.70 52.20L32.11 52.20C36.65 46.44 40.18 38.38 42.26 29.74L35.86 28.44C33.84 37.44 29.95 45.58 24.48 50.69C25.99 51.70 28.51 53.93 29.59 55.08C30.38 54.22 31.25 53.28 32.04 52.27L32.04 58.39L39.10 58.39C37.66 70.85 33.34 79.27 23.98 84.17C25.42 85.25 27.72 87.77 28.51 89.06C38.88 82.94 43.85 73.22 45.79 58.39L56.66 58.39C55.94 74.23 55.08 80.28 53.78 81.86C53.14 82.66 52.49 82.80 51.41 82.80C50.26 82.80 47.74 82.80 44.93 82.51C45.94 84.24 46.58 86.76 46.73 88.63C49.90 88.78 52.92 88.78 54.72 88.49C56.74 88.20 58.18 87.62 59.47 85.97C61.63 83.38 62.50 75.74 63.43 55.01L63.43 54.14L64.01 54.72C65.23 53.35 67.97 51.12 69.55 50.18C63.72 45.29 59.18 36.14 57.38 26.57Z"/></svg>
