<svg xmlns="http://www.w3.org/2000/svg" xmlns:xlink="http://www.w3.org/1999/xlink" width="72.00000000000001" height="106.56000000000002"><path fill="red" stroke="red" d="M44.78 65.52L44.78 74.09L27.72 74.09L27.72 65.52ZM51.19 79.27L51.19 60.26L21.60 60.26L21.60 83.16L27.72 83.16L27.72 79.27ZM39.46 50.62L39.46 44.06L57.02 44.06L57.02 50.62ZM16.92 50.62L16.92 44.06L33.12 44.06L33.12 50.62ZM33.12 32.83L33.12 38.74L16.92 38.74L16.92 32.83ZM57.02 32.83L57.02 38.74L39.46 38.74L39.46 32.83ZM63.72 26.57L10.30 26.57L10.30 50.40C10.30 61.13 9.58 75.38 2.38 85.25C3.89 86.04 6.70 88.27 7.85 89.57C14.54 80.50 16.42 67.10 16.85 56.09L57.02 56.09L57.02 81.79C57.02 83.02 56.59 83.45 55.30 83.45C54.07 83.52 49.68 83.59 45.58 83.38C46.44 84.89 47.45 87.55 47.74 89.21C54.00 89.21 57.89 89.06 60.34 88.06C62.78 87.12 63.72 85.46 63.72 81.79Z"/></svg>
