<svg xmlns="http://www.w3.org/2000/svg" xmlns:xlink="http://www.w3.org/1999/xlink" width="72.00000000000001" height="106.56000000000002"><path fill="red" stroke="red" d="M22.82 29.02L5.18 29.02L5.18 34.92L22.82 34.92ZM24.55 46.22L3.60 46.22L3.60 52.34L24.55 52.34ZM52.42 80.50L19.94 80.50L19.94 68.33L52.42 68.33ZM47.88 35.78L58.18 35.78C57.17 38.52 56.02 41.26 54.94 43.27L60.77 45.43C62.86 41.83 65.30 36.29 67.18 31.39L62.06 29.74L60.98 30.10L38.66 30.10C39.31 28.30 39.96 26.42 40.54 24.62L33.91 23.18C31.82 30.53 28.01 37.58 23.18 42.12C24.84 42.98 27.72 44.86 29.02 46.01C31.54 43.34 33.98 39.74 36.00 35.78L41.26 35.78L41.26 36.79C41.26 42.91 39.38 51.70 20.66 57.24C22.03 58.46 23.90 60.77 24.77 62.35L13.39 62.35L13.39 89.28L19.94 89.28L19.94 86.47L52.42 86.47L52.42 88.99L59.33 88.99L59.33 62.35L25.06 62.35C36.86 58.61 42.70 53.42 45.43 48.17C49.82 54.94 56.45 59.62 65.81 61.70C66.67 59.83 68.54 57.17 69.98 55.73C58.90 54.00 51.26 48.74 47.59 41.18C47.81 39.74 47.88 38.30 47.88 37.01Z"/></svg>
