<svg xmlns="http://www.w3.org/2000/svg" xmlns:xlink="http://www.w3.org/1999/xlink" width="72.00000000000001" height="106.56000000000002"><path fill="red" stroke="red" d="M17.64 35.86L17.64 64.22L11.16 64.22L11.16 35.86ZM23.40 70.42L23.40 29.66L5.40 29.66L5.40 77.04L11.16 77.04L11.16 70.42ZM33.70 42.91L61.63 42.91C61.27 44.86 60.84 46.80 60.48 48.24L65.66 49.54C66.74 46.66 67.90 42.26 68.83 38.45L64.51 37.37L63.50 37.66L49.18 37.66L49.18 33.26L66.53 33.26L66.53 28.30L49.18 28.30L49.18 23.11L42.84 23.11L42.84 37.66L27.79 37.66L27.79 57.82C27.79 66.17 27.29 77.18 21.96 85.03C23.33 85.68 25.85 87.62 26.78 88.78C32.76 80.28 33.70 67.18 33.70 57.89ZM39.74 64.80C39.67 76.90 38.81 81.86 30.60 84.74C31.75 85.90 33.41 88.13 33.98 89.64C44.06 85.90 45.50 78.98 45.72 64.80ZM50.62 56.59C49.10 56.59 48.82 55.94 48.82 54.14L48.82 52.20L58.25 51.26L57.89 47.30L48.82 48.10L48.82 43.42L43.20 43.42L43.20 48.60L34.99 49.32L35.42 54.22L43.20 53.35L43.20 54.14C43.20 58.90 44.35 61.06 49.61 61.06L58.61 61.06C60.48 61.06 62.64 60.98 63.72 60.62C63.50 59.26 63.36 57.74 63.22 56.23C62.14 56.52 59.76 56.59 58.32 56.59ZM59.54 83.23C58.46 83.23 58.32 83.02 58.32 81.36L58.32 64.80L52.27 64.80L52.27 81.36C52.27 86.83 53.42 88.56 58.39 88.56L63.14 88.56C67.25 88.56 68.76 86.33 69.26 77.62C67.68 77.11 65.23 76.18 64.01 75.24C63.86 82.22 63.58 83.23 62.50 83.23Z"/></svg>
