<svg xmlns="http://www.w3.org/2000/svg" xmlns:xlink="http://www.w3.org/1999/xlink" width="72.00000000000001" height="106.56000000000002"><path fill="red" stroke="red" d="M57.10 36.72L37.01 36.72L37.01 31.10L57.10 31.10ZM57.10 47.38L37.01 47.38L37.01 41.69L57.10 41.69ZM63.86 25.85L30.53 25.85L30.53 52.63L63.86 52.63ZM18.72 35.86L18.72 64.22L11.81 64.22L11.81 35.86ZM24.84 29.66L5.69 29.66L5.69 77.04L11.81 77.04L11.81 70.42L24.84 70.42ZM34.92 80.71L34.92 74.38L59.40 74.38L59.40 80.71ZM59.40 62.86L59.40 68.83L34.92 68.83L34.92 62.86ZM28.37 57.17L28.37 89.06L34.92 89.06L34.92 86.40L59.40 86.40L59.40 88.78L66.24 88.78L66.24 57.17Z"/></svg>
