<svg xmlns="http://www.w3.org/2000/svg" xmlns:xlink="http://www.w3.org/1999/xlink" width="72.00000000000001" height="106.56000000000002"><path fill="red" stroke="red" d="M57.89 75.82L57.89 82.30L45.07 82.30L45.07 75.82ZM39.10 89.14L45.07 89.14L45.07 87.12L57.89 87.12L57.89 88.99L64.15 88.99L64.15 71.06L39.10 71.06ZM45.22 58.32C44.64 59.69 43.78 61.49 43.06 63.00L28.08 63.00L29.52 62.71C29.09 61.42 27.94 59.62 26.86 58.32ZM18.29 49.03L53.64 49.03L53.64 53.78L18.29 53.78ZM47.74 58.32L60.19 58.32L60.19 44.57L12.17 44.57L12.17 58.32L24.19 58.32L20.16 58.97C21.10 60.05 22.03 61.70 22.61 63.00L4.82 63.00L4.82 68.11L16.63 68.11C16.49 69.55 16.27 70.99 15.98 72.29L5.76 72.29L5.76 77.18L14.40 77.18C12.46 80.64 9.07 83.16 2.95 84.89C4.10 85.90 5.54 87.98 6.12 89.35C14.54 86.76 18.58 82.80 20.66 77.18L29.02 77.18C28.58 80.93 28.01 82.66 27.36 83.38C26.93 83.88 26.35 83.88 25.34 83.88C24.41 83.95 21.89 83.88 19.37 83.59C20.16 84.96 20.66 87.05 20.81 88.56C23.83 88.70 26.64 88.70 28.22 88.56C29.95 88.49 31.25 88.06 32.40 86.90C33.84 85.46 34.56 82.01 35.35 74.52C35.42 73.73 35.50 72.36 35.50 72.36L21.89 72.29C22.10 70.99 22.32 69.55 22.46 68.11L67.03 68.11L67.03 63.00L49.97 63.00C50.76 61.85 51.48 60.55 52.34 59.18ZM39.10 27.65L39.10 23.11L32.40 23.11L32.40 27.65L4.82 27.65L4.82 32.69L32.40 32.69L32.40 36.36L9.79 36.36L9.79 41.18L62.50 41.18L62.50 36.36L39.10 36.36L39.10 32.69L67.46 32.69L67.46 27.65Z"/></svg>
