<svg xmlns="http://www.w3.org/2000/svg" xmlns:xlink="http://www.w3.org/1999/xlink" width="72.00000000000001" height="106.56000000000002"><path fill="red" stroke="red" d="M16.49 36.50L16.49 63.29L10.30 63.29L10.30 36.50ZM21.53 69.26L21.53 30.46L5.33 30.46L5.33 75.02L10.30 75.02L10.30 69.26ZM48.17 40.10L59.04 40.10L59.04 43.78L48.17 43.78ZM48.17 32.62L59.04 32.62L59.04 36.00L48.17 36.00ZM47.66 66.02L47.66 48.10L64.94 48.10L64.94 40.32L69.12 40.32L69.12 35.50L64.94 35.50L64.94 28.30L48.17 28.30L48.17 23.04L41.90 23.04L41.90 28.30L25.63 28.30L25.63 32.62L41.90 32.62L41.90 36.00L22.75 36.00L22.75 40.10L41.90 40.10L41.90 43.78L25.34 43.78L25.34 48.10L42.48 48.10L42.48 66.02L30.17 66.02L30.17 64.58L30.17 63.22L38.88 63.22L38.88 50.47L34.78 50.47L34.78 59.04L30.17 59.04L30.17 50.33L24.98 50.33L24.98 64.51C24.98 71.42 24.05 80.21 17.06 86.18C18.36 86.90 20.30 88.27 21.31 89.21C25.06 85.97 27.29 81.94 28.51 77.69L34.70 77.69L34.70 88.63L38.81 88.63L38.81 73.58L29.52 73.58C29.66 72.58 29.81 71.64 29.88 70.63L42.48 70.63L42.48 89.14L47.66 89.14L47.66 70.63L60.55 70.63L60.55 73.58L51.26 73.58L51.26 88.63L55.37 88.63L55.37 77.69L60.55 77.69L60.55 88.99L65.88 88.99L65.88 50.18L60.55 50.18L60.55 59.04L55.37 59.04L55.37 50.47L51.26 50.47L51.26 63.22L60.55 63.22L60.55 66.02Z"/></svg>
