<svg xmlns="http://www.w3.org/2000/svg" xmlns:xlink="http://www.w3.org/1999/xlink" width="72.00000000000001" height="106.56000000000002"><path fill="red" stroke="red" d="M24.91 61.92C22.68 62.86 20.38 63.79 18.14 64.66L18.14 46.08L25.13 46.08L25.13 39.82L18.14 39.82L18.14 23.76L11.88 23.76L11.88 39.82L3.89 39.82L3.89 46.08L11.88 46.08L11.88 67.10C8.28 68.54 5.04 69.70 2.45 70.63L5.18 77.40C11.30 74.66 19.01 71.14 26.28 67.75ZM58.54 52.63C56.59 58.97 53.71 64.51 50.18 69.26C46.58 64.44 43.85 58.82 41.98 52.63ZM53.14 32.54C52.49 36.86 51.62 42.12 50.69 46.58L37.80 46.58C38.16 42.12 38.38 37.51 38.52 32.54ZM62.14 46.30L60.98 46.58L57.02 46.58C58.25 40.25 59.47 32.69 60.26 26.64L55.58 26.06L54.58 26.35L25.49 26.35L25.49 32.54L31.97 32.54C31.61 55.58 29.52 73.51 19.30 84.46C20.81 85.32 23.90 87.70 24.98 88.70C31.97 80.28 35.28 69.26 37.01 55.37C39.24 62.42 42.19 68.76 46.01 74.09C41.69 78.48 36.65 81.86 31.25 84.02C32.62 85.18 34.27 87.62 35.21 89.06C40.61 86.62 45.65 83.23 50.04 78.98C54.29 83.45 59.33 86.98 65.30 89.35C66.17 87.55 68.18 84.96 69.62 83.66C63.65 81.65 58.61 78.34 54.43 74.23C59.90 67.39 64.08 58.68 66.31 47.88Z"/></svg>
