<svg xmlns="http://www.w3.org/2000/svg" xmlns:xlink="http://www.w3.org/1999/xlink" width="72.00000000000001" height="106.56000000000002"><path fill="red" stroke="red" d="M18.00 46.73L25.13 46.73L25.13 40.39L18.00 40.39L18.00 24.05L11.81 24.05L11.81 40.39L3.89 40.39L3.89 46.73L11.81 46.73L11.81 67.46C8.28 68.98 5.11 70.20 2.52 71.21L4.75 77.98C11.16 75.10 19.51 71.35 27.14 67.61L25.70 61.49C23.18 62.57 20.52 63.72 18.00 64.80ZM60.05 50.98L60.05 57.10L50.47 57.10L50.47 50.98ZM50.47 68.76L50.47 62.50L60.05 62.50L60.05 68.76ZM34.92 68.76L34.92 62.50L43.99 62.50L43.99 68.76ZM43.99 50.98L43.99 57.10L34.92 57.10L34.92 50.98ZM69.12 39.24L69.12 33.05L63.43 33.05L66.89 29.45C64.73 27.65 60.34 24.77 57.24 22.82L53.35 26.50C56.23 28.44 59.98 31.18 62.21 33.05L50.47 33.05L50.47 23.18L43.99 23.18L43.99 33.05L25.34 33.05L25.34 39.24L43.99 39.24L43.99 45.29L28.51 45.29L28.51 89.14L34.92 89.14L34.92 74.38L43.99 74.38L43.99 88.85L50.47 88.85L50.47 74.38L60.05 74.38L60.05 81.86C60.05 82.73 59.83 83.02 58.97 83.02C58.32 83.02 55.87 83.02 53.28 82.94C54.14 84.60 54.94 87.41 55.22 89.14C59.26 89.14 62.14 88.99 64.08 87.98C66.02 86.90 66.53 85.03 66.53 82.01L66.53 45.29L50.47 45.29L50.47 39.24Z"/></svg>
