<svg xmlns="http://www.w3.org/2000/svg" xmlns:xlink="http://www.w3.org/1999/xlink" width="72.00000000000001" height="106.56000000000002"><path fill="red" stroke="red" d="M68.47 30.10C66.82 28.15 63.50 25.27 60.77 23.47L56.59 26.50C59.18 28.30 62.42 31.54 64.15 33.55ZM22.61 62.28L16.78 64.87L16.78 46.44L23.40 46.44L23.40 40.32L16.78 40.32L16.78 23.83L10.73 23.83L10.73 40.32L3.89 40.32L3.89 46.44L10.73 46.44L10.73 67.54C7.63 68.90 4.75 70.06 2.45 70.92L4.68 77.33C10.44 74.59 17.50 71.21 24.12 67.97ZM43.42 60.41L43.42 71.50L38.09 71.50L38.09 60.41ZM47.59 76.68L47.59 55.37L33.77 55.37L33.77 80.28L38.09 80.28L38.09 76.68ZM48.17 45.22L33.34 45.22L33.34 50.40L48.17 50.40ZM61.78 46.80C60.55 52.78 58.97 58.25 56.88 63.22C56.23 57.10 55.73 49.54 55.58 40.39L68.83 40.39L68.83 34.49L55.44 34.49C55.44 30.89 55.44 27.14 55.44 23.11L49.46 23.11C49.54 27.07 49.61 30.89 49.68 34.49L25.34 34.49L25.34 53.14C25.34 62.93 24.62 76.10 17.42 85.32C18.72 86.04 21.02 88.20 21.96 89.28C29.81 79.27 31.03 63.86 31.03 53.14L31.03 40.39L49.82 40.39C50.26 53.28 51.05 63.79 52.34 71.78C49.03 76.97 44.86 81.36 39.74 84.67C40.90 85.82 42.91 88.20 43.63 89.35C47.59 86.54 51.05 83.16 54.00 79.27C55.94 85.75 58.54 89.21 62.21 89.21C67.10 89.21 69.12 87.34 69.91 75.89C68.47 75.38 66.31 74.02 65.09 72.65C64.73 80.78 64.01 83.30 62.78 83.30C61.13 83.30 59.54 79.99 58.25 73.01C62.35 65.88 65.30 57.38 67.39 47.74Z"/></svg>
