<svg xmlns="http://www.w3.org/2000/svg" xmlns:xlink="http://www.w3.org/1999/xlink" width="72.00000000000001" height="106.56000000000002"><path fill="red" stroke="red" d="M63.79 62.50C63.50 64.94 63.00 65.38 60.91 65.38L49.54 65.38C46.30 65.38 45.65 65.02 45.65 62.93L45.65 62.50ZM61.56 70.13C66.67 70.13 68.40 68.69 69.05 63.72C67.46 63.43 65.38 62.71 64.08 61.99L64.08 59.33L45.65 59.33L45.65 56.74L63.43 56.74L63.43 53.57L45.65 53.57L45.65 50.90L63.86 50.90L63.86 47.74L45.65 47.74L45.65 45.14L64.87 45.14L64.87 34.06L45.65 34.06L45.65 31.39L66.10 31.39L66.10 27.36L45.65 27.36L45.65 23.11L39.60 23.11L39.60 38.09L58.97 38.09L58.97 41.11L39.60 41.11L39.60 62.93C39.60 68.76 41.69 70.13 48.82 70.13ZM25.78 31.97C25.42 33.41 24.70 35.50 24.05 37.08L16.70 37.08C16.42 35.57 15.70 33.55 14.98 31.97ZM37.51 37.08L29.38 37.08C29.95 35.78 30.74 34.13 31.54 32.62L28.15 31.97L36.14 31.97L36.14 27.58L24.48 27.58C23.90 25.99 22.90 24.12 21.96 22.68L15.55 23.69C16.27 24.84 16.92 26.28 17.50 27.58L5.18 27.58L5.18 31.97L13.03 31.97L10.08 32.54C10.66 33.84 11.23 35.64 11.59 37.08L3.53 37.08L3.53 41.62L37.51 41.62ZM33.98 44.50L7.63 44.50L7.63 53.57C7.63 57.67 7.27 62.64 4.10 66.46C5.40 67.10 7.63 68.83 8.50 69.84C12.24 65.38 12.96 58.82 12.96 53.71L12.96 48.46L28.15 48.46L28.15 56.52C22.39 57.53 16.85 58.54 12.67 59.18L14.33 63.36C18.50 62.28 23.18 60.98 28.15 59.69L28.15 64.08C28.15 64.87 27.94 65.09 27.00 65.16C26.21 65.16 23.26 65.16 20.23 65.09C20.95 66.46 21.74 68.26 22.03 69.70C26.35 69.70 29.45 69.62 31.46 68.90C33.41 68.11 33.98 66.89 33.98 64.08ZM14.18 52.85C17.64 53.71 22.25 55.01 24.70 55.94L26.28 52.56C23.76 51.70 19.22 50.54 15.84 49.90ZM39.17 78.05L61.92 78.05L61.92 73.22L39.17 73.22L39.17 69.12L32.54 69.12L32.54 73.22L10.01 73.22L10.01 78.05L32.54 78.05L32.54 82.51L3.60 82.51L3.60 87.41L68.40 87.41L68.40 82.51L39.17 82.51Z"/></svg>
