<svg xmlns="http://www.w3.org/2000/svg" xmlns:xlink="http://www.w3.org/1999/xlink" width="72.00000000000001" height="106.56000000000002"><path fill="red" stroke="red" d="M16.70 40.61C14.62 50.33 10.15 58.75 3.67 63.79C5.11 64.80 7.56 67.03 8.64 68.11C12.24 64.94 15.34 60.84 17.86 55.94C20.81 58.68 23.98 61.70 25.63 63.79L29.45 58.97C27.50 56.74 23.62 53.35 20.30 50.54C21.38 47.81 22.32 44.86 23.04 41.83ZM67.54 61.99C64.80 58.97 59.40 54.29 54.86 50.69C55.87 47.88 56.66 44.86 57.24 41.62L50.90 40.75C49.46 49.10 46.30 56.45 41.18 61.20C39.89 58.03 39.31 55.22 39.31 52.99L39.31 39.24L67.90 39.24L67.90 32.83L39.31 32.83L39.31 23.40L32.11 23.40L32.11 32.83L4.32 32.83L4.32 39.24L32.11 39.24L32.11 52.99C32.11 60.48 26.21 76.54 3.02 83.59C4.54 85.03 6.55 87.77 7.49 89.21C26.28 83.02 33.98 69.84 35.71 63.43C37.73 69.77 45.50 83.16 64.51 89.28C65.52 87.41 67.32 84.53 68.83 83.02C53.14 78.26 45.22 69.84 41.76 62.42C43.27 63.29 45.14 64.37 46.08 65.09C48.60 62.71 50.76 59.76 52.49 56.23C56.59 59.83 60.91 63.94 63.29 66.74Z"/></svg>
