<svg xmlns="http://www.w3.org/2000/svg" xmlns:xlink="http://www.w3.org/1999/xlink" width="72.00000000000001" height="106.56000000000002"><path fill="red" stroke="red" d="M16.42 33.91L56.09 33.91L56.09 59.54C56.09 60.12 55.94 60.34 55.37 60.34C54.79 60.34 53.50 60.34 51.98 60.26C52.78 61.63 53.78 63.79 54.14 65.38C56.81 65.38 58.97 65.30 60.55 64.37C62.06 63.43 62.57 62.14 62.57 59.47L62.57 28.58L38.23 28.58C38.95 27.14 39.74 25.63 40.46 23.90L33.19 23.11C32.76 24.70 31.97 26.78 31.25 28.58L10.15 28.58L10.15 64.80L16.42 64.80ZM38.52 61.63L38.52 55.37C42.91 57.60 47.66 60.34 50.33 62.21L53.14 58.46C50.11 56.38 44.42 53.35 39.74 51.12L52.99 51.12L52.99 46.94L45.94 46.94C46.87 45.50 47.95 43.85 48.96 41.98L44.78 40.61C44.14 42.26 42.91 44.71 42.05 46.37L43.56 46.94L38.52 46.94L38.52 40.32C43.49 39.96 48.31 39.46 51.98 38.88L49.10 35.21C42.41 36.29 30.10 37.01 20.16 37.22C20.66 38.23 21.17 39.82 21.31 40.90C25.06 40.90 29.23 40.82 33.34 40.61L33.34 46.94L28.22 46.94L29.88 46.37C29.52 44.93 28.44 42.77 27.43 41.26L23.54 42.48C24.41 43.85 25.06 45.50 25.56 46.94L19.44 46.94L19.44 51.12L30.67 51.12C27.22 54.29 22.25 57.24 17.93 58.75C19.01 59.62 20.52 61.42 21.31 62.57C25.34 60.77 29.88 57.74 33.34 54.43L33.34 61.63ZM68.11 73.01L68.11 67.46L38.30 67.46C38.52 66.24 38.74 65.02 38.95 63.72L31.82 63.72C31.61 65.09 31.39 66.24 31.18 67.46L3.89 67.46L3.89 73.01L28.94 73.01C25.63 78.55 18.65 81.86 2.81 83.52C3.89 84.89 5.33 87.48 5.83 89.14C25.27 86.76 33.05 81.65 36.58 73.01L40.46 73.01L37.58 77.18C46.51 80.78 58.97 86.18 65.16 89.42L68.40 84.17C62.14 81.14 50.26 76.25 41.62 73.01Z"/></svg>
