<svg xmlns="http://www.w3.org/2000/svg" xmlns:xlink="http://www.w3.org/1999/xlink" width="72.00000000000001" height="106.56000000000002"><path fill="red" stroke="red" d="M44.71 55.80L44.71 62.06L33.84 62.06L33.84 55.80ZM62.06 62.06L50.90 62.06L50.90 55.80L62.06 55.80ZM27.94 62.28L31.39 62.28L31.39 84.17L37.44 84.17L37.44 67.68L44.71 67.68L44.71 89.21L50.90 89.21L50.90 67.68L58.54 67.68L58.54 77.90C58.54 78.62 58.32 78.77 57.67 78.84C57.02 78.84 55.22 78.84 52.99 78.77C53.86 80.28 54.65 82.58 54.86 84.31C58.39 84.31 60.77 84.24 62.57 83.23C64.30 82.30 64.73 80.71 64.73 78.05L64.73 62.14L68.11 62.14L68.11 50.83L27.94 50.83ZM19.58 43.92C19.51 50.47 18.86 58.32 15.98 65.95C14.11 64.15 12.10 62.35 10.22 60.70C11.30 55.87 12.53 50.18 13.54 44.28ZM62.86 33.77L62.86 25.27L32.62 25.27L32.62 30.17L56.59 30.17L56.59 33.91L28.01 33.91L28.01 37.51L25.20 37.73L25.20 33.26L19.58 33.26L19.58 38.02L14.47 38.30C15.19 33.26 15.84 28.22 16.27 23.69L10.58 23.47C10.22 28.15 9.58 33.41 8.78 38.59C6.55 38.66 4.54 38.74 2.66 38.81L3.31 44.93L7.78 44.64C6.62 51.41 5.26 57.82 3.96 62.57C6.91 65.23 10.22 68.40 13.39 71.57C10.87 76.25 7.27 80.64 2.30 84.67C3.67 85.54 5.69 87.48 6.62 88.78C11.38 84.82 14.90 80.42 17.57 75.96C20.30 78.84 22.61 81.58 24.19 83.81L28.08 78.70C26.35 76.32 23.62 73.30 20.45 70.27C24.34 61.06 25.13 51.48 25.20 43.63L28.44 43.34L28.44 38.59L56.59 38.59L56.59 42.55L32.18 42.55L32.18 47.52L62.86 47.52L62.86 38.88L68.69 38.88L68.69 33.77Z"/></svg>
