<svg xmlns="http://www.w3.org/2000/svg" xmlns:xlink="http://www.w3.org/1999/xlink" width="72.00000000000001" height="106.56000000000002"><path fill="red" stroke="red" d="M67.46 38.88L67.46 32.47L31.68 32.47C32.54 29.95 33.48 27.29 34.27 24.77L27.36 23.11C26.50 26.21 25.49 29.38 24.34 32.47L4.61 32.47L4.61 38.88L21.53 38.88C16.99 48.17 10.58 56.81 2.23 62.42C3.31 64.01 4.82 66.89 5.54 68.69C8.28 66.82 10.87 64.66 13.25 62.28L13.25 89.14L20.02 89.14L20.02 54.36C23.54 49.61 26.50 44.28 28.94 38.88ZM68.69 64.01L50.54 64.01L50.54 60.48C55.58 57.24 60.77 52.92 64.51 48.82L60.26 45.43L58.90 45.79L30.53 45.79L30.53 51.84L52.70 51.84C49.97 54.29 46.73 56.81 43.78 58.54L43.78 64.01L24.70 64.01L24.70 70.27L43.78 70.27L43.78 81.65C43.78 82.58 43.49 82.87 42.19 82.94C41.04 83.02 36.79 83.02 32.54 82.80C33.41 84.67 34.27 87.34 34.56 89.21C40.46 89.28 44.57 89.21 47.16 88.20C49.82 87.26 50.54 85.39 50.54 81.79L50.54 70.27L68.69 70.27Z"/></svg>
