<svg xmlns="http://www.w3.org/2000/svg" xmlns:xlink="http://www.w3.org/1999/xlink" width="72.00000000000001" height="106.56000000000002"><path fill="red" stroke="red" d="M30.38 80.93C24.05 80.93 22.97 80.21 22.97 76.54L22.97 66.74C34.92 63.79 47.88 59.90 57.17 55.51L51.77 50.11C44.86 53.93 33.77 57.74 22.97 60.70L22.97 45.50L15.91 45.50L15.91 76.54C15.91 85.25 19.15 87.55 30.24 87.55L51.12 87.55C61.27 87.55 63.72 84.17 64.80 72.58C62.86 72.14 59.90 71.06 58.10 69.91C57.38 79.13 56.52 80.93 50.90 80.93ZM41.40 32.62C40.68 29.88 38.66 25.70 36.72 22.61L30.31 24.41C31.68 26.93 33.05 30.10 33.91 32.62L6.26 32.62L6.26 48.17L12.89 48.17L12.89 39.02L58.54 39.02L58.54 48.17L65.52 48.17L65.52 32.62Z"/></svg>
