<svg xmlns="http://www.w3.org/2000/svg" xmlns:xlink="http://www.w3.org/1999/xlink" width="72.00000000000001" height="106.56000000000002"><path fill="red" stroke="red" d="M11.74 36.65L59.76 36.65L59.76 46.51L66.67 46.51L66.67 30.46L40.39 30.46C39.53 28.22 38.16 25.34 36.86 23.26L30.17 25.13C31.03 26.71 31.90 28.66 32.62 30.46L5.18 30.46L5.18 46.51L11.74 46.51ZM66.82 60.05L39.96 60.05L39.96 50.18L56.16 50.18L56.16 43.99L15.41 43.99L15.41 50.18L32.83 50.18L32.83 60.05L5.33 60.05L5.33 66.46L32.83 66.46L32.83 80.71C32.83 81.94 32.40 82.22 30.96 82.30C29.45 82.37 24.19 82.37 19.30 82.15C20.38 83.95 21.67 86.90 22.10 88.85C28.51 88.85 33.05 88.78 35.93 87.70C38.88 86.69 39.96 84.82 39.96 80.78L39.96 66.46L66.82 66.46Z"/></svg>
