<svg xmlns="http://www.w3.org/2000/svg" xmlns:xlink="http://www.w3.org/1999/xlink" width="72.00000000000001" height="106.56000000000002"><path fill="red" stroke="red" d="M12.38 36.43L59.69 36.43L59.69 46.15L66.60 46.15L66.60 30.17L40.82 30.17C40.10 27.86 38.81 24.84 37.73 22.61L30.82 24.12C31.61 25.92 32.47 28.15 33.12 30.17L5.76 30.17L5.76 46.15L12.38 46.15ZM54.43 49.75L54.43 43.78L17.35 43.78L17.35 49.75ZM18.22 69.34C14.90 73.73 9.29 78.12 3.82 80.86C5.40 81.94 8.06 84.10 9.36 85.39C14.62 82.08 20.88 76.82 24.77 71.64ZM67.25 63.29L67.25 56.95L4.82 56.95L4.82 63.29L32.18 63.29L32.18 88.92L39.31 88.92L39.31 63.29ZM47.30 72.14C52.56 76.18 59.11 82.01 62.21 85.75L67.97 81.58C64.66 77.83 57.82 72.29 52.56 68.62Z"/></svg>
