<svg xmlns="http://www.w3.org/2000/svg" xmlns:xlink="http://www.w3.org/1999/xlink" width="72.00000000000001" height="106.56000000000002"><path fill="red" stroke="red" d="M12.02 36.72L59.69 36.72L59.69 44.35L66.46 44.35L66.46 30.67L41.83 30.67C40.90 28.22 39.46 25.06 38.16 22.61L30.89 24.41C31.82 26.28 32.83 28.58 33.62 30.67L5.47 30.67L5.47 44.78L12.02 44.78ZM29.23 54.36C28.15 58.46 26.71 62.28 24.91 65.59C22.46 63.22 19.08 60.70 15.98 58.61C16.99 57.24 17.86 55.87 18.72 54.36ZM31.46 48.53L21.89 48.53C22.97 46.30 23.90 43.85 24.77 41.47L18.58 39.74C15.41 49.39 9.58 57.89 2.38 63.36C3.67 64.66 5.83 67.46 6.62 68.83C8.57 67.18 10.44 65.38 12.31 63.29C15.62 65.66 19.08 68.62 21.31 71.14C16.78 77.18 10.66 81.50 3.82 83.95C5.18 85.32 6.91 87.84 7.63 89.57C22.32 83.45 32.98 71.14 36.79 49.68L32.62 48.31ZM48.96 82.01C45.94 82.01 45.43 81.50 45.43 78.70L45.43 51.91L57.10 51.91C56.95 60.55 56.74 63.72 56.16 64.66C55.73 65.23 55.22 65.38 54.36 65.38C53.57 65.38 51.48 65.38 49.25 65.09C50.18 66.67 50.76 69.19 50.83 70.99C53.57 71.14 56.23 71.06 57.67 70.85C59.40 70.63 60.55 70.06 61.56 68.76C62.93 66.89 63.14 61.70 63.29 48.24C63.29 47.45 63.36 45.86 63.36 45.86L38.88 45.86L38.88 78.70C38.88 86.26 41.04 88.20 48.10 88.20L59.47 88.20C65.95 88.20 67.75 85.25 68.62 75.24C66.82 74.74 64.08 73.66 62.64 72.58C62.28 80.42 61.78 82.01 59.04 82.01Z"/></svg>
