<svg xmlns="http://www.w3.org/2000/svg" xmlns:xlink="http://www.w3.org/1999/xlink" width="72.00000000000001" height="106.56000000000002"><path fill="red" stroke="red" d="M67.82 48.24C65.02 42.77 58.39 34.85 52.49 29.16L46.94 32.04C52.70 37.94 59.04 46.15 61.70 51.55ZM39.02 23.11L32.04 23.11L32.04 50.18L39.02 50.18ZM17.64 29.30C14.69 36.36 9.65 43.42 4.46 47.81C5.90 48.82 8.57 50.90 9.72 51.98C14.98 46.94 20.52 38.95 23.90 31.03ZM67.75 65.45L67.75 59.47L38.59 59.47C39.02 57.17 39.31 54.72 39.53 52.27L32.40 52.27C32.18 54.79 31.90 57.24 31.46 59.47L4.25 59.47L4.25 65.45L30.02 65.45C27.00 74.09 20.45 80.14 3.53 83.38C4.82 84.82 6.41 87.41 7.06 89.14C24.41 85.32 32.26 78.55 36.00 69.26C41.33 80.28 50.26 86.47 65.09 89.14C65.81 87.26 67.54 84.53 68.98 83.09C54.43 81.14 45.50 75.46 40.90 65.45Z"/></svg>
