<svg xmlns="http://www.w3.org/2000/svg" xmlns:xlink="http://www.w3.org/1999/xlink" width="72.00000000000001" height="106.56000000000002"><path fill="red" stroke="red" d="M56.74 31.97L56.74 39.67L16.06 39.67L16.06 31.97ZM16.06 45.72L63.43 45.72L63.43 25.92L9.36 25.92L9.36 46.73C9.36 57.96 8.78 73.87 2.38 84.89C4.03 85.54 7.06 87.19 8.35 88.27C15.12 76.61 16.06 58.75 16.06 46.73ZM32.11 55.01L30.96 55.08L18.00 55.08L18.00 60.98L28.66 60.98C26.21 70.42 21.24 76.46 14.40 79.99C15.77 80.78 18.14 83.23 19.01 84.46C27.43 79.85 33.48 70.99 35.86 56.02ZM60.48 51.34C57.67 54.65 53.35 58.97 49.39 62.28C47.59 59.47 46.15 56.38 45.00 53.21L45.00 46.80L38.23 46.80L38.23 81.65C38.23 82.58 37.94 82.80 36.94 82.80C36.00 82.87 32.76 82.87 29.52 82.80C30.38 84.46 31.32 87.19 31.61 88.92C36.50 88.92 39.82 88.85 42.05 87.77C44.28 86.83 45.00 85.10 45.00 81.72L45.00 65.88C49.68 74.30 56.09 80.93 64.30 84.60C65.23 82.87 67.32 80.28 68.76 78.91C62.28 76.54 56.88 72.22 52.56 66.89C56.95 63.58 61.99 59.33 66.17 55.30Z"/></svg>
