<svg xmlns="http://www.w3.org/2000/svg" xmlns:xlink="http://www.w3.org/1999/xlink" width="72.00000000000001" height="106.56000000000002"><path fill="red" stroke="red" d="M57.60 32.18L57.60 38.30L16.34 38.30L16.34 32.18ZM16.34 43.99L64.73 43.99L64.73 26.42L9.58 26.42L9.58 51.19C9.58 61.85 9.07 75.89 2.38 85.68C4.03 86.40 6.98 88.34 8.21 89.42C15.34 79.06 16.34 62.78 16.34 51.19ZM35.71 67.25C35.71 66.60 35.71 66.02 35.71 65.38L35.71 58.39L48.46 58.39L48.46 67.25ZM68.18 67.25L55.15 67.25L55.15 58.39L66.10 58.39L66.10 52.85L54.86 52.85C56.38 50.69 57.96 48.38 59.40 46.22L52.27 44.28C51.34 46.73 49.82 50.11 48.24 52.85L29.09 52.85L35.28 50.69C34.42 49.03 32.69 46.22 31.32 44.28L25.20 46.15C26.57 48.24 28.01 51.05 28.87 52.85L18.94 52.85L18.94 58.39L29.23 58.39L29.23 65.23C29.23 65.88 29.23 66.60 29.16 67.25L17.21 67.25L17.21 72.94L28.15 72.94C26.78 77.18 23.54 81.22 16.34 84.31C17.78 85.39 19.87 87.91 20.81 89.35C30.24 85.18 33.84 79.20 35.06 72.94L48.46 72.94L48.46 89.21L55.15 89.21L55.15 72.94L68.18 72.94Z"/></svg>
