<svg xmlns="http://www.w3.org/2000/svg" xmlns:xlink="http://www.w3.org/1999/xlink" width="72.00000000000001" height="106.56000000000002"><path fill="red" stroke="red" d="M65.16 24.98L58.18 24.98L58.18 32.33L39.46 32.33L39.46 23.18L32.62 23.18L32.62 32.33L14.11 32.33L14.11 24.98L7.42 24.98L7.42 37.58L65.16 37.58ZM59.47 42.84C61.42 45.58 63.43 49.32 64.22 51.84L68.76 49.61C67.82 47.30 65.74 43.63 63.65 41.04ZM19.22 39.10C18.14 40.97 16.78 42.84 15.19 44.64C13.68 42.98 11.81 41.26 9.65 39.67L5.33 42.84C7.85 44.71 9.86 46.80 11.30 48.82C8.71 51.48 5.83 53.78 2.88 55.66C4.18 56.59 5.83 58.46 6.77 59.54C9.29 57.89 11.81 55.87 14.26 53.71C15.05 55.66 15.62 57.67 15.98 59.76C12.67 64.37 7.42 69.19 2.88 71.78C4.18 72.86 5.98 74.81 6.91 76.18C10.08 74.02 13.54 70.92 16.63 67.39L16.63 67.97C16.63 74.88 16.13 80.28 14.62 82.22C14.11 82.80 13.54 83.16 12.53 83.23C11.23 83.38 8.71 83.38 5.69 83.16C6.77 84.74 7.42 86.98 7.49 88.85C10.44 88.99 13.10 88.92 15.26 88.49C16.92 88.20 18.14 87.55 19.01 86.54C21.82 83.23 22.61 76.32 22.61 68.40C22.61 61.70 22.03 55.37 18.58 49.32C20.74 47.02 22.61 44.50 24.19 41.90ZM39.02 81.72L31.18 81.72L31.18 75.82L39.02 75.82ZM68.40 58.68L68.40 53.14L58.32 53.14C58.46 48.89 58.54 44.42 58.61 39.60L52.70 39.60C52.70 44.50 52.63 48.96 52.49 53.14L45.79 53.14L45.86 48.46L34.85 48.46L39.46 46.66C38.59 44.35 36.86 40.90 35.14 38.38L29.81 40.18C31.32 42.77 32.98 46.15 33.77 48.46L23.90 48.46L23.90 53.14L45.58 53.14L45.58 58.68L52.27 58.68C51.55 69.34 49.61 77.33 44.14 82.87L44.14 71.50L26.06 71.50L26.06 88.85L31.18 88.85L31.18 85.97L43.34 85.97C44.50 86.98 45.58 88.27 46.15 89.28C51.55 84.82 54.58 78.84 56.38 71.28C58.10 78.98 60.91 85.18 65.52 89.28C66.46 87.55 68.40 85.10 69.84 83.88C63.50 79.27 60.55 69.84 59.11 58.68ZM26.28 68.18L43.78 68.18L43.78 63.86L26.28 63.86ZM43.78 56.38L26.28 56.38L26.28 60.70L43.78 60.70Z"/></svg>
