<svg xmlns="http://www.w3.org/2000/svg" xmlns:xlink="http://www.w3.org/1999/xlink" width="72.00000000000001" height="106.56000000000002"><path fill="red" stroke="red" d="M32.04 54.29C31.25 51.05 29.02 46.22 26.64 42.62L22.10 44.21C22.90 45.65 23.76 47.16 24.48 48.74L13.97 49.68C18.79 45.22 23.69 39.67 27.94 33.77L22.90 31.61C21.46 33.91 19.73 36.36 18.07 38.52L11.81 38.95C14.83 35.14 18.00 30.31 20.52 25.56L15.55 23.69C13.18 29.45 9.22 35.28 7.99 36.79C6.77 38.30 5.76 39.31 4.75 39.53C5.26 40.90 6.05 43.42 6.34 44.42C7.13 44.06 8.50 43.78 14.18 43.13C12.38 45.14 10.87 46.66 10.08 47.38C8.28 49.25 6.77 50.40 5.40 50.62C5.98 52.06 6.77 54.65 7.06 55.73C8.35 55.08 10.66 54.65 26.21 53.14C26.64 54.14 26.93 55.22 27.14 56.16ZM53.93 65.09C52.42 67.82 50.33 70.42 47.88 72.65C46.51 70.34 45.29 67.54 44.14 64.51L68.18 64.51L68.18 58.90L56.88 58.90L59.26 56.59C57.74 55.22 55.08 53.57 52.63 52.27C54.94 51.98 57.82 51.62 61.56 51.19C62.14 52.56 62.64 53.86 62.93 54.86L67.82 52.70C66.89 49.32 64.22 44.42 61.56 40.82L56.95 42.70C57.74 43.99 58.68 45.36 59.47 46.80L50.40 47.66C55.15 43.20 59.90 37.73 64.08 31.82L59.11 29.66C57.67 32.04 56.02 34.49 54.29 36.65L47.95 37.08C50.69 33.70 53.50 29.38 55.73 25.06L50.76 23.26C48.67 28.44 45.07 33.77 43.99 35.14C42.98 36.58 41.98 37.58 41.04 37.73C41.62 39.10 42.41 41.54 42.70 42.70C43.42 42.26 44.86 41.90 50.40 41.33C48.74 43.27 47.23 44.78 46.51 45.50C44.64 47.30 43.13 48.60 41.83 48.82C42.41 50.18 43.20 52.78 43.42 53.93C44.21 53.57 45.43 53.21 49.90 52.63L47.52 54.79C49.75 55.87 52.27 57.46 54.07 58.90L42.34 58.90C39.46 48.82 37.73 36.29 37.80 23.11L31.25 23.11C31.39 35.78 32.90 48.31 35.64 58.90L3.96 58.90L3.96 64.51L15.05 64.51C14.47 72.79 11.52 81.29 3.24 85.18C4.61 86.18 6.84 88.34 7.78 89.64C13.90 86.47 17.64 80.71 19.73 74.38C22.90 76.39 25.99 78.84 27.65 80.64L32.04 76.25C29.59 73.87 25.06 70.85 21.10 68.69C21.31 67.25 21.53 65.95 21.67 64.51L37.30 64.51C38.81 69.05 40.54 73.15 42.70 76.61C37.73 79.85 31.97 82.30 25.92 83.95C27.22 85.18 29.45 87.70 30.31 89.06C35.86 87.05 41.18 84.60 46.01 81.43C49.90 85.97 54.43 88.56 59.76 88.56C65.66 88.56 67.82 86.18 69.19 76.75C67.61 76.18 65.38 74.88 64.01 73.51C63.50 80.50 62.57 82.22 60.05 82.22C56.88 82.22 53.93 80.50 51.26 77.47C54.79 74.52 57.89 70.99 60.19 66.96Z"/></svg>
