<svg xmlns="http://www.w3.org/2000/svg" xmlns:xlink="http://www.w3.org/1999/xlink" width="72.00000000000001" height="106.56000000000002"><path fill="red" stroke="red" d="M15.55 36.07L68.11 36.07L68.11 29.88L43.78 29.88C42.91 27.65 41.69 24.91 40.46 22.75L33.77 24.34C34.63 25.92 35.42 28.01 36.14 29.88L9.00 29.88L9.00 49.03C9.00 59.83 8.42 75.31 2.66 86.11C4.32 86.69 7.34 88.13 8.71 89.14C14.69 77.76 15.55 60.70 15.55 49.03ZM49.75 48.82L49.75 55.15L34.20 55.15L34.20 48.82ZM56.30 60.34L56.30 48.82L67.32 48.82L67.32 43.42L56.30 43.42L56.30 37.87L49.75 37.87L49.75 43.42L34.20 43.42L34.20 37.87L27.86 37.87L27.86 43.42L17.21 43.42L17.21 48.82L27.86 48.82L27.86 60.34ZM53.06 69.48C50.18 72.58 46.22 75.10 41.69 77.11C37.15 75.02 33.41 72.50 30.67 69.48ZM58.82 63.94L57.67 64.15L18.00 64.15L18.00 69.48L26.71 69.48L23.90 70.56C26.71 74.16 30.17 77.18 34.27 79.70C28.22 81.50 21.46 82.51 14.54 83.09C15.62 84.60 16.85 87.12 17.28 88.78C25.92 87.77 34.13 86.11 41.40 83.38C48.31 86.26 56.38 88.20 65.23 89.14C66.10 87.48 67.75 84.82 69.12 83.38C61.85 82.73 55.01 81.65 49.10 79.78C55.01 76.46 59.83 72.00 63.00 66.10Z"/></svg>
