<svg xmlns="http://www.w3.org/2000/svg" xmlns:xlink="http://www.w3.org/1999/xlink" width="72.00000000000001" height="106.56000000000002"><path fill="red" stroke="red" d="M50.33 65.16C50.47 62.86 50.54 60.62 50.54 58.54L50.54 57.02L60.26 57.02L60.26 65.16ZM60.26 44.42L60.26 52.13L50.54 52.13L50.54 44.42ZM22.61 61.85L35.06 61.85L35.06 65.81L22.61 65.81ZM22.61 54.22L35.06 54.22L35.06 58.03L22.61 58.03ZM66.17 39.02L44.71 39.02L44.71 58.54C44.71 64.37 44.42 71.57 41.98 77.98L41.98 74.16L31.75 74.16L31.75 69.84L40.46 69.84L40.46 50.18L31.75 50.18L31.75 46.37L41.76 46.37L41.76 41.47L31.75 41.47L31.75 36.43L25.92 36.43L25.92 41.47L16.13 41.47L16.13 46.37L25.92 46.37L25.92 50.18L17.42 50.18L17.42 69.84L25.92 69.84L25.92 74.16L14.69 74.16L14.69 79.42L25.92 79.42L25.92 89.28L31.75 89.28L31.75 79.42L41.33 79.42C40.39 81.58 39.24 83.66 37.66 85.46C38.88 86.26 41.26 88.34 42.19 89.50C46.73 84.24 48.82 77.04 49.82 70.13L60.26 70.13L60.26 82.37C60.26 83.30 59.98 83.59 59.04 83.66C58.18 83.66 55.08 83.66 51.91 83.52C52.70 85.10 53.50 87.62 53.78 89.21C58.46 89.21 61.56 89.14 63.58 88.13C65.59 87.19 66.17 85.54 66.17 82.44ZM41.18 28.94C40.18 26.86 38.66 24.34 37.01 22.46L31.32 24.70C32.26 25.99 33.12 27.43 33.98 28.94L7.78 28.94L7.78 50.76C7.78 61.06 7.42 75.46 2.45 85.54C3.82 86.18 6.48 88.20 7.56 89.42C13.10 78.55 13.97 61.92 13.97 50.76L13.97 34.63L68.18 34.63L68.18 28.94Z"/></svg>
