<svg xmlns="http://www.w3.org/2000/svg" xmlns:xlink="http://www.w3.org/1999/xlink" width="72.00000000000001" height="106.56000000000002"><path fill="red" stroke="red" d="M68.26 67.46L51.12 67.46L51.12 52.49L65.81 52.49L65.81 46.37L51.12 46.37L51.12 32.40C56.74 31.54 62.06 30.53 66.46 29.23L62.86 23.40C54.43 25.99 40.54 28.01 28.73 29.16C29.45 30.67 30.31 33.05 30.53 34.70C34.99 34.34 39.82 33.98 44.57 33.34L44.57 46.37L30.74 46.37L30.74 52.49L44.57 52.49L44.57 67.46L27.79 67.46L27.79 73.37L68.26 73.37ZM22.82 47.66L21.67 47.81L15.77 47.81C19.08 41.54 22.90 33.84 25.92 27.36L19.08 27.36L19.08 27.43L4.03 27.43L4.03 33.26L16.42 33.26C13.10 40.46 9.00 48.31 5.83 53.71L19.87 53.71C18.86 60.05 17.35 65.45 15.19 69.91C12.96 66.96 11.09 63.22 9.65 58.54L4.32 60.41C6.41 66.82 8.93 71.78 12.02 75.53C9.43 79.34 6.26 82.37 2.52 84.53C3.96 85.46 6.41 87.84 7.49 89.21C10.94 86.90 14.04 83.95 16.70 80.14C24.41 86.18 34.63 87.77 47.02 87.77L66.96 87.77C67.39 85.82 68.62 82.80 69.70 81.22C65.23 81.36 50.76 81.36 47.23 81.36C36.29 81.29 26.86 80.06 19.87 74.74C23.26 67.97 25.56 59.33 26.78 48.67Z"/></svg>
