<svg xmlns="http://www.w3.org/2000/svg" xmlns:xlink="http://www.w3.org/1999/xlink" width="72.00000000000001" height="106.56000000000002"><path fill="red" stroke="red" d="M46.44 29.23L39.31 29.23C38.66 27.43 37.51 25.06 36.36 23.26L32.11 24.48C32.98 25.92 33.70 27.65 34.34 29.23L25.34 29.23L25.34 33.05L46.44 33.05ZM27.58 45.07L44.28 45.07L44.28 41.76L27.58 41.76ZM44.28 35.78L27.58 35.78L27.58 39.02L44.28 39.02ZM31.68 51.26L40.25 51.26L40.25 55.08L31.68 55.08ZM27.50 58.46L44.64 58.46L44.64 47.88L27.50 47.88ZM27.00 47.16C26.21 44.86 24.34 41.11 22.61 38.38L19.01 39.53C19.58 40.46 20.16 41.62 20.81 42.77L13.25 43.42C16.99 40.25 20.88 36.14 24.34 31.75L19.80 29.95C18.94 31.18 18.00 32.33 17.06 33.48L11.81 33.77C13.97 31.54 16.34 28.44 18.22 25.34L13.54 23.98C11.66 27.72 8.35 31.39 7.42 32.26C6.48 33.19 5.62 33.77 4.68 33.98C5.26 35.21 5.90 37.37 6.19 38.45C6.98 38.09 8.28 37.87 13.61 37.37C11.66 39.38 9.94 40.90 9.22 41.54C7.63 42.91 6.34 43.78 5.11 43.92C5.69 45.14 6.26 47.38 6.55 48.38C7.70 47.88 9.58 47.45 22.25 46.01C22.68 47.02 23.04 47.81 23.26 48.60ZM19.58 49.46C20.74 51.77 21.82 55.08 22.25 57.10L25.92 55.80C25.49 53.78 24.26 50.76 23.04 48.31ZM18.72 58.39C18.50 56.02 17.64 52.34 16.70 49.54L12.89 50.33C13.68 53.14 14.47 56.88 14.62 59.26ZM7.20 49.54C6.62 52.56 5.69 55.80 4.25 58.39C5.33 58.82 7.13 59.76 7.92 60.41C9.29 57.82 10.66 53.93 11.38 50.47ZM18.00 75.89C18.36 74.74 18.79 73.66 19.15 72.43L59.76 72.43L59.76 60.98L10.51 60.98L10.51 65.23L53.50 65.23L53.50 68.26L14.11 68.26C13.03 72.14 11.45 76.82 10.01 80.14L56.52 80.14C55.80 82.44 55.08 83.66 54.07 84.24C53.28 84.67 52.27 84.74 50.40 84.74C48.02 84.74 41.26 84.67 35.35 84.10C36.29 85.46 36.94 87.26 37.08 88.63C42.84 88.92 48.96 88.99 51.91 88.92C55.15 88.92 57.24 88.70 59.04 87.62C61.06 86.40 62.35 83.66 63.58 78.62C63.86 77.83 64.08 75.89 64.08 75.89ZM48.67 49.68C48.24 52.49 47.45 55.51 46.01 57.96C47.16 58.39 48.96 59.33 49.82 59.98C51.12 57.53 52.27 53.86 52.92 50.62ZM54.50 50.26C55.37 53.06 56.09 56.74 56.16 59.11L60.34 58.25C60.12 55.87 59.33 52.20 58.32 49.46ZM68.62 47.23C68.04 44.93 66.17 41.26 64.44 38.59L60.84 39.74C61.42 40.68 61.92 41.76 62.50 42.84L54.72 43.56C58.54 40.32 62.50 36.07 66.10 31.68L61.70 29.74C60.77 31.10 59.69 32.40 58.54 33.70L52.85 34.06C55.08 31.75 57.38 28.73 59.26 25.63L54.94 24.12C52.92 28.01 49.61 31.82 48.60 32.69C47.74 33.70 46.87 34.27 45.94 34.49C46.44 35.57 47.16 37.73 47.38 38.74C48.24 38.38 49.46 38.09 55.08 37.58C52.99 39.67 51.34 41.11 50.54 41.76C48.82 43.20 47.45 43.99 46.22 44.21C46.73 45.36 47.38 47.59 47.66 48.60C48.74 48.02 50.76 47.59 64.01 46.15C64.37 46.94 64.66 47.81 64.80 48.53L61.56 49.54C62.71 52.20 64.01 55.80 64.44 58.03L68.18 56.81C67.68 54.50 66.38 51.12 65.09 48.60Z"/></svg>
