<svg xmlns="http://www.w3.org/2000/svg" xmlns:xlink="http://www.w3.org/1999/xlink" width="72.00000000000001" height="106.56000000000002"><path fill="red" stroke="red" d="M6.91 57.10C8.71 51.91 10.01 43.56 10.37 37.66L5.76 37.01C5.26 42.84 3.96 50.69 2.16 55.51ZM25.85 45.58C25.06 42.84 23.18 38.30 21.31 34.92L18.36 36.22L18.36 23.11L11.88 23.11L11.88 89.14L18.36 89.14L18.36 39.10C19.73 42.12 20.95 45.43 21.46 47.66ZM29.59 69.26C32.40 73.22 36.07 78.70 37.80 81.86L43.42 78.70C41.54 75.53 37.80 70.42 34.99 66.53ZM59.62 53.64L52.99 53.64L52.99 58.90L23.90 58.90L23.90 65.02L52.99 65.02L52.99 81.72C52.99 82.73 52.63 83.02 51.48 83.09C50.40 83.09 46.51 83.09 42.62 82.94C43.49 84.74 44.42 87.41 44.71 89.28C50.11 89.28 53.93 89.21 56.38 88.20C58.90 87.26 59.62 85.39 59.62 81.86L59.62 65.02L68.90 65.02L68.90 58.90L59.62 58.90ZM49.82 31.82L49.82 23.40L43.27 23.40L43.27 31.82L25.06 31.82L25.06 37.94L43.27 37.94L43.27 45.36L28.01 45.36L28.01 51.41L65.52 51.41L65.52 45.36L49.82 45.36L49.82 37.94L68.90 37.94L68.90 31.82Z"/></svg>
