<svg xmlns="http://www.w3.org/2000/svg" xmlns:xlink="http://www.w3.org/1999/xlink" width="72.00000000000001" height="106.56000000000002"><path fill="red" stroke="red" d="M32.62 43.49L32.62 47.59L16.99 47.59L16.99 43.49ZM55.58 47.59L39.31 47.59L39.31 43.49L55.58 43.49ZM39.31 56.02L39.31 51.77L55.58 51.77L55.58 56.02ZM16.99 56.02L16.99 51.77L32.62 51.77L32.62 56.02ZM16.99 60.19L32.62 60.19L32.62 67.61L32.76 67.61L29.38 70.70C33.55 73.08 39.17 76.68 41.90 78.91L46.22 74.59C43.63 72.58 38.74 69.70 34.78 67.61L39.31 67.61L39.31 60.19L55.58 60.19L55.58 62.78C55.58 63.65 55.22 63.94 54.22 64.01C53.28 64.01 49.68 64.08 46.37 63.86C47.30 65.30 48.46 67.61 48.89 69.26C53.64 69.26 56.95 69.19 59.26 68.26C61.56 67.39 62.35 65.88 62.35 62.78L62.35 38.95L47.09 38.95L47.81 37.87C46.73 37.44 45.43 37.01 44.14 36.58C49.18 34.20 54.36 31.18 58.32 28.15L54.29 24.70L52.99 25.06L11.16 25.06L11.16 29.88L46.22 29.88C43.49 31.54 40.25 33.19 37.22 34.42C33.05 33.41 28.51 32.40 24.48 31.82L21.38 35.57C26.14 36.29 31.54 37.51 36.29 38.95L10.37 38.95L10.37 68.54L16.99 68.54ZM8.50 87.41C12.38 83.74 15.48 78.05 17.78 73.22L12.02 70.70C10.01 75.24 6.70 80.57 2.66 83.95ZM31.32 82.66C26.71 82.66 25.85 82.30 25.85 80.35L25.85 71.35L19.30 71.35L19.30 80.42C19.30 86.69 21.60 88.42 30.96 88.42L47.02 88.42C54.14 88.42 56.16 86.54 57.02 78.55C55.22 78.19 52.49 77.26 51.05 76.25C50.62 81.79 50.04 82.66 46.44 82.66ZM53.42 73.01C57.17 77.18 61.20 83.09 62.78 86.90L68.90 84.10C67.10 80.28 62.86 74.66 59.04 70.63Z"/></svg>
