<svg xmlns="http://www.w3.org/2000/svg" xmlns:xlink="http://www.w3.org/1999/xlink" width="72.00000000000001" height="106.56000000000002"><path fill="red" stroke="red" d="M9.36 87.19C13.18 83.95 16.13 78.77 18.36 74.38L12.74 71.78C10.94 75.96 7.63 80.78 3.89 83.81ZM30.53 70.99C34.20 73.22 39.02 76.75 41.33 78.98L45.94 75.10C43.42 72.79 38.59 69.55 34.85 67.39ZM47.74 45.00L41.83 45.00L41.83 62.14L47.74 62.14ZM16.20 57.67C16.27 56.66 16.34 55.66 16.42 54.65L29.66 54.65L29.66 57.67ZM29.66 48.02L29.66 50.98L16.42 50.98L16.42 48.02ZM35.57 43.56L10.58 43.56L10.58 52.99C10.58 57.24 10.15 62.35 6.26 66.24C7.70 66.89 10.15 68.90 11.16 69.98C13.54 67.54 14.90 64.44 15.62 61.34L29.66 61.34L29.66 63.65C29.66 64.30 29.45 64.51 28.66 64.51C27.94 64.58 25.56 64.58 23.11 64.44C23.76 65.74 24.70 67.54 24.98 68.90C28.80 68.90 31.39 68.90 33.19 68.11C35.06 67.32 35.57 66.24 35.57 63.65ZM32.98 82.51C29.59 82.51 28.94 82.30 28.94 80.50L28.94 72.07L22.32 72.07L22.32 80.57C22.32 86.62 24.19 88.27 32.26 88.27L44.57 88.27C50.69 88.27 52.56 86.47 53.35 78.48C51.62 78.19 48.89 77.26 47.45 76.25C47.23 81.79 46.66 82.51 43.99 82.51ZM61.63 43.34L55.37 43.34L55.37 63.36C55.37 64.08 55.15 64.30 54.36 64.30C53.64 64.37 51.34 64.37 48.89 64.30C49.68 65.66 50.54 67.90 50.90 69.55C54.72 69.55 57.31 69.48 59.33 68.54C61.20 67.68 61.63 66.24 61.63 63.50ZM52.85 73.94C56.74 77.90 60.62 83.38 62.14 87.12L67.97 84.24C66.31 80.42 62.14 75.10 58.18 71.35ZM26.35 35.64C29.88 33.84 33.19 31.97 36.14 29.88C39.60 32.11 43.06 33.98 46.37 35.64ZM36.86 22.54C29.30 29.59 15.26 35.21 2.66 38.09C4.10 39.60 5.47 41.76 6.26 43.27C11.81 41.76 17.64 39.67 23.04 37.22L23.04 40.39L48.74 40.39L48.74 36.79C54.72 39.53 60.26 41.47 65.45 42.91C66.31 41.04 67.90 38.81 69.34 37.58C60.62 35.42 50.54 32.47 40.32 26.57C40.82 26.14 41.33 25.63 41.83 25.20Z"/></svg>
