<svg xmlns="http://www.w3.org/2000/svg" xmlns:xlink="http://www.w3.org/1999/xlink" width="72.00000000000001" height="106.56000000000002"><path fill="red" stroke="red" d="M7.13 57.10C8.71 51.77 9.79 43.34 10.08 37.73L5.54 37.08C5.18 42.70 4.03 50.69 2.52 55.58ZM11.81 89.21L17.78 89.21L17.78 23.18L11.81 23.18ZM18.22 36.22C19.51 40.82 20.88 47.09 21.46 50.76L26.14 49.10C25.49 45.65 23.98 39.60 22.61 34.99ZM68.98 76.46C68.11 73.80 66.17 69.26 64.44 65.88L61.27 67.18C61.99 68.76 62.86 70.70 63.65 72.50L57.31 73.08C58.97 70.20 60.77 66.46 61.92 62.78L57.74 61.49C56.88 65.81 54.65 70.42 53.93 71.57C53.35 72.65 52.63 73.51 51.84 73.66C52.42 74.74 53.06 76.82 53.35 77.76C54.29 77.33 55.87 77.04 64.94 75.89C65.23 76.68 65.45 77.47 65.66 78.12ZM34.06 47.66L44.06 47.66L44.06 54.58L34.06 54.58ZM34.06 35.71L44.06 35.71L44.06 42.48L34.06 42.48ZM59.90 42.48L49.97 42.48L49.97 35.71L59.90 35.71ZM59.90 54.58L49.97 54.58L49.97 47.66L59.90 47.66ZM54.65 82.94C52.27 82.94 51.84 82.66 51.84 80.57L51.84 59.98L66.02 59.98L66.02 30.31L42.84 30.31C43.78 28.44 44.71 26.14 45.65 23.98L38.52 22.97C38.09 25.13 37.22 27.94 36.36 30.31L28.15 30.31L28.15 59.98L36.07 59.98C35.14 71.35 32.90 79.78 21.53 84.31C22.90 85.46 24.62 87.84 25.34 89.35C38.16 83.74 41.11 73.58 42.12 59.98L46.15 59.98L46.15 80.64C46.15 86.69 47.66 88.34 54.00 88.34L63.29 88.34C67.97 88.34 69.70 86.54 70.27 79.99C68.69 79.63 66.38 78.70 65.16 77.76C64.94 82.15 64.51 82.94 62.78 82.94Z"/></svg>
