<svg xmlns="http://www.w3.org/2000/svg" xmlns:xlink="http://www.w3.org/1999/xlink" width="72.00000000000001" height="106.56000000000002"><path fill="red" stroke="red" d="M44.78 35.28L51.34 35.28L51.34 32.40L67.61 32.40L67.61 27.07L51.34 27.07L51.34 23.11L44.78 23.11L44.78 27.07L37.37 27.07L37.37 32.40L44.78 32.40ZM20.66 35.28L27.14 35.28L27.14 32.40L35.06 32.40L35.06 27.07L27.14 27.07L27.14 23.11L20.66 23.11L20.66 27.07L4.68 27.07L4.68 32.40L20.66 32.40ZM20.23 71.42C18.50 76.03 15.26 80.57 10.51 83.23L15.19 87.05C20.38 83.74 23.40 78.55 25.42 73.44ZM28.94 82.87C28.94 83.59 28.66 83.81 27.86 83.88C27.14 83.88 24.34 83.88 21.60 83.81C22.39 85.39 23.26 87.55 23.54 89.14C27.58 89.21 30.46 89.14 32.40 88.27C34.42 87.34 34.92 85.97 34.92 83.09L34.92 66.96L28.94 66.96ZM35.57 74.30C37.66 78.05 39.82 82.94 40.39 86.11L45.58 84.24C44.78 81.14 42.55 76.25 40.32 72.65ZM19.01 48.67L52.92 48.67L52.92 52.49L19.01 52.49ZM19.01 40.82L52.92 40.82L52.92 44.57L19.01 44.57ZM67.97 65.38L67.97 60.12L30.31 60.12C30.96 59.04 31.54 57.96 32.11 56.81L59.33 56.81L59.33 36.50L12.89 36.50L12.89 56.81L24.98 56.81C24.34 57.96 23.76 58.97 22.90 60.12L4.10 60.12L4.10 65.38L18.00 65.38C14.26 68.62 9.22 71.57 2.88 73.80C4.18 74.74 6.19 76.90 7.06 78.41C15.55 75.02 21.82 70.56 26.42 65.38L44.71 65.38C46.15 67.03 47.74 68.54 49.54 69.98L44.35 72.43C48.60 76.75 53.28 82.66 55.22 86.54L60.77 83.66C58.54 79.85 53.86 74.23 49.68 70.13C54.29 73.87 59.69 76.90 64.94 78.70C65.88 77.18 67.68 74.88 68.98 73.80C63.07 72.14 56.81 69.05 52.20 65.38Z"/></svg>
