<svg xmlns="http://www.w3.org/2000/svg" xmlns:xlink="http://www.w3.org/1999/xlink" width="72.00000000000001" height="106.56000000000002"><path fill="red" stroke="red" d="M6.55 56.95C8.14 51.62 9.22 43.27 9.50 37.58L5.18 37.01C4.82 42.70 3.67 50.62 2.09 55.51ZM27.65 56.23L31.82 56.23L31.82 62.71L27.65 62.71ZM27.65 45.72L31.82 45.72L31.82 52.06L27.65 52.06ZM39.82 52.06L35.42 52.06L35.42 45.72L39.82 45.72ZM39.82 62.71L35.42 62.71L35.42 56.23L39.82 56.23ZM44.57 77.69L44.57 72.43L36.50 72.43L36.50 67.03L44.42 67.03L44.42 41.33L36.50 41.33L36.50 35.64L44.93 35.64L44.93 30.38L36.50 30.38L36.50 23.18L30.82 23.18L30.82 30.38L21.96 30.38L21.96 35.64L30.82 35.64L30.82 41.33L23.18 41.33L23.18 47.88C22.54 44.57 20.95 39.17 19.44 34.92L15.91 36.07L15.91 23.18L10.30 23.18L10.30 89.21L15.91 89.21L15.91 37.66C17.28 41.83 18.50 46.87 18.94 50.04L23.18 48.31L23.18 67.03L30.89 67.03L30.89 72.43L21.38 72.43L21.38 77.69L30.89 77.69L30.89 89.14L36.50 89.14L36.50 77.69ZM53.64 34.34C59.04 33.34 64.80 31.97 69.19 30.24L66.02 24.98C61.49 27.07 54.29 28.87 48.02 30.10L47.95 30.10L47.95 54.29C47.95 63.72 47.52 75.89 42.41 84.60C43.56 85.32 45.94 87.70 46.66 88.92C52.70 79.42 53.64 64.58 53.64 54.29L53.64 51.62L58.97 51.62L58.97 88.63L64.66 88.63L64.66 51.62L68.90 51.62L68.90 45.72L53.64 45.72Z"/></svg>
