<svg xmlns="http://www.w3.org/2000/svg" xmlns:xlink="http://www.w3.org/1999/xlink" width="72.00000000000001" height="106.56000000000002"><path fill="red" stroke="red" d="M7.34 56.95C8.57 51.55 9.58 43.13 9.79 37.66L5.18 37.01C4.82 42.55 3.74 50.54 2.45 55.51ZM11.66 89.35L17.64 89.35L17.64 23.11L11.66 23.11ZM32.90 69.55L57.67 69.55L57.67 73.73L32.90 73.73ZM32.90 61.49L57.67 61.49L57.67 65.52L32.90 65.52ZM32.90 53.50L57.67 53.50L57.67 57.46L32.90 57.46ZM63.65 77.90L63.65 49.18L27.07 49.18L27.07 77.90L35.06 77.90C31.61 80.64 25.49 83.02 19.87 84.53C21.24 85.68 23.47 88.06 24.48 89.28C30.24 87.19 37.08 83.74 41.26 79.92L35.35 77.90L53.35 77.90L49.90 80.93C54.94 83.52 60.55 86.83 63.72 89.21L68.98 85.39C65.66 83.23 60.34 80.28 55.44 77.90ZM47.59 41.98C47.81 40.68 47.95 39.31 48.17 37.80L58.46 37.80L58.18 41.98ZM32.83 37.80L42.84 37.80C42.62 39.31 42.41 40.68 42.19 41.98L32.33 41.98ZM43.85 29.66C43.70 30.96 43.56 32.40 43.34 33.77L33.26 33.77L33.77 29.66ZM58.82 33.12L58.54 33.12L58.54 33.84L48.53 33.77L48.96 29.66L59.11 29.66ZM64.66 33.12L65.23 25.63L28.58 25.63L27.72 33.12L22.39 33.12L22.39 36.65L22.10 35.78L18.14 37.08C19.51 41.33 20.95 47.02 21.46 50.47L25.63 48.82C25.20 46.30 24.05 42.26 22.97 38.52L27.14 38.52L26.28 46.01L63.72 46.01L64.30 38.52L68.98 38.52L68.98 33.12Z"/></svg>
