<svg xmlns="http://www.w3.org/2000/svg" xmlns:xlink="http://www.w3.org/1999/xlink" width="72.00000000000001" height="106.56000000000002"><path fill="red" stroke="red" d="M5.04 35.93C5.04 42.19 4.10 49.97 1.94 54.36L5.98 56.16C8.35 51.12 9.29 42.84 9.14 36.43ZM10.80 89.14L16.78 89.14L16.78 23.11L10.80 23.11ZM36.14 64.80L36.14 58.32L40.10 58.32L40.10 64.80ZM28.51 58.32L32.40 58.32L32.40 64.80L28.44 64.80C28.51 63.43 28.51 62.14 28.51 60.91ZM36.36 34.27C35.71 36.72 34.92 39.38 34.13 41.54L28.08 41.54C29.16 39.17 30.10 36.72 30.89 34.27ZM28.51 47.02L32.40 47.02L32.40 52.99L28.51 52.99ZM40.10 52.99L36.14 52.99L36.14 47.02L40.10 47.02ZM69.55 70.63L61.42 70.63L61.42 62.78L68.76 62.78L68.76 57.53L61.42 57.53L61.42 50.26L55.94 50.26L55.94 57.53L52.78 57.53C53.28 55.58 53.64 53.57 53.93 51.62L49.25 50.76C48.46 56.30 47.23 61.99 45.14 66.10L45.14 46.44C46.22 47.45 47.52 49.03 48.17 50.11C54.07 45.86 56.38 39.02 57.31 31.46L62.57 31.46C62.21 39.24 61.78 42.26 61.06 43.13C60.62 43.63 60.12 43.78 59.40 43.78C58.75 43.78 57.31 43.78 55.51 43.56C56.30 45.00 56.81 47.23 56.95 48.89C58.90 48.96 60.77 48.89 61.92 48.74C63.43 48.53 64.44 48.02 65.45 46.87C66.82 45.22 67.39 40.39 67.90 28.44C68.04 27.72 68.04 26.21 68.04 26.21L45.94 26.21L45.94 31.46L52.06 31.46C51.34 37.08 49.54 42.41 45.14 45.65L45.14 41.54L39.38 41.54C40.68 38.09 41.98 34.13 42.91 30.74L39.31 28.58L38.45 28.80L32.54 28.80C33.05 27.07 33.48 25.42 33.84 23.76L28.51 23.11C27.58 28.08 25.85 34.20 23.18 39.89C22.75 37.58 21.89 34.70 20.88 32.40L17.06 33.62C18.22 36.72 19.15 40.75 19.37 43.20L21.96 42.26C21.38 43.42 20.74 44.50 20.09 45.50C21.10 45.86 22.54 46.87 23.54 47.74L23.54 60.91C23.54 68.69 23.18 78.98 18.86 86.33C20.09 86.90 22.18 88.42 23.04 89.42C26.14 84.17 27.50 77.04 28.15 70.34L40.10 70.34L40.10 82.22C40.10 83.02 39.89 83.23 39.17 83.23C38.38 83.30 36.07 83.30 33.62 83.16C34.27 84.74 34.99 87.62 35.14 89.14C38.88 89.14 41.26 89.06 43.06 88.13C44.78 87.05 45.14 85.10 45.14 82.37L45.14 67.03C46.37 67.46 48.10 68.33 48.96 68.90C49.90 67.18 50.69 65.09 51.41 62.78L55.94 62.78L55.94 70.63L46.58 70.63L46.58 76.18L55.94 76.18L55.94 89.14L61.42 89.14L61.42 76.18L69.55 76.18Z"/></svg>
