<svg xmlns="http://www.w3.org/2000/svg" xmlns:xlink="http://www.w3.org/1999/xlink" width="72.00000000000001" height="106.56000000000002"><path fill="red" stroke="red" d="M36.07 71.57C24.55 73.94 12.38 76.46 4.46 77.83L5.76 84.67C14.11 82.87 25.85 80.42 36.65 77.90ZM27.65 62.64L14.76 62.64L14.76 51.98L27.65 51.98ZM8.64 46.30L8.64 68.33L34.13 68.33L34.13 46.30ZM58.25 45.14C56.16 51.84 53.42 58.03 50.04 63.50C48.53 57.02 47.45 49.18 46.73 40.68L67.46 40.68L67.46 34.13L62.21 34.13L65.66 30.31C63.07 28.01 57.96 24.98 53.86 23.18L49.90 27.29C53.64 29.09 57.96 31.90 60.62 34.13L46.37 34.13C46.15 30.60 46.15 26.93 46.15 23.26L38.95 23.26C39.02 26.86 39.10 30.53 39.31 34.13L4.82 34.13L4.82 40.68L39.74 40.68C40.61 51.98 42.19 62.57 44.78 70.92C40.25 76.32 34.85 80.86 28.73 84.24C30.24 85.54 32.90 88.13 33.91 89.50C38.88 86.40 43.42 82.66 47.38 78.26C50.47 85.10 54.58 89.35 59.62 89.35C65.59 89.35 67.97 85.97 69.12 73.15C67.25 72.43 64.80 70.78 63.36 69.26C62.93 78.55 62.06 82.30 60.34 82.30C57.53 82.30 54.79 78.41 52.49 71.93C57.74 64.73 61.85 56.30 64.87 46.80Z"/></svg>
