<svg xmlns="http://www.w3.org/2000/svg" xmlns:xlink="http://www.w3.org/1999/xlink" width="72.00000000000001" height="106.56000000000002"><path fill="red" stroke="red" d="M25.06 53.93L17.93 56.02L17.93 43.34L25.78 43.34L25.78 37.15L17.93 37.15L17.93 23.26L11.52 23.26L11.52 37.15L3.24 37.15L3.24 43.34L11.52 43.34L11.52 57.96C8.06 58.90 4.90 59.76 2.38 60.41L3.89 66.89C6.19 66.17 8.86 65.38 11.52 64.51L11.52 81.50C11.52 82.51 11.16 82.80 10.30 82.80C9.50 82.80 6.77 82.80 3.96 82.73C4.75 84.53 5.62 87.48 5.83 89.14C10.37 89.21 13.32 88.92 15.34 87.84C17.28 86.76 17.93 84.96 17.93 81.50L17.93 62.57L25.92 60.05ZM56.74 65.81L56.74 80.21L36.86 80.21L36.86 65.81ZM30.46 89.14L36.86 89.14L36.86 86.11L56.74 86.11L56.74 89.06L63.43 89.06L63.43 59.83L30.46 59.83ZM51.19 36.00C53.50 38.81 55.80 42.12 57.89 45.43L35.78 46.87C40.18 40.61 44.64 32.76 48.24 24.98L41.26 23.11C37.80 32.11 32.18 41.62 30.38 43.99C28.66 46.51 27.22 48.24 25.78 48.53C26.50 50.11 27.50 53.06 27.94 54.58L27.94 54.86L28.01 54.86C30.53 53.86 34.20 53.50 61.27 51.34C62.21 53.21 63.07 54.94 63.65 56.52L69.34 53.42C67.03 47.81 61.78 39.53 56.52 33.34Z"/></svg>
