<svg xmlns="http://www.w3.org/2000/svg" xmlns:xlink="http://www.w3.org/1999/xlink" width="72.00000000000001" height="106.56000000000002"><path fill="red" stroke="red" d="M24.98 54.43L18.14 56.38L18.14 43.34L24.91 43.34L24.91 37.15L18.14 37.15L18.14 23.18L11.74 23.18L11.74 37.15L3.96 37.15L3.96 43.34L11.74 43.34L11.74 58.10C8.35 59.04 5.18 59.83 2.66 60.41L4.10 66.89L11.74 64.73L11.74 81.58C11.74 82.51 11.45 82.73 10.66 82.73C9.94 82.80 7.63 82.80 5.33 82.73C6.19 84.38 6.91 87.26 7.13 88.85C11.23 88.85 13.90 88.70 15.77 87.55C17.57 86.62 18.14 84.82 18.14 81.58L18.14 62.78C20.66 62.06 23.26 61.34 25.85 60.55ZM63.72 58.10C61.99 60.12 59.33 62.71 56.88 64.87C55.80 61.99 54.94 58.97 54.22 55.87L67.90 55.87L67.90 50.04L34.63 50.04L34.63 43.85L63.58 43.85L63.58 38.09L34.63 38.09L34.63 32.33L66.89 32.33L66.89 26.21L28.22 26.21L28.22 54.36C28.22 64.37 27.79 77.04 22.75 85.90C24.26 86.69 27.07 88.42 28.30 89.50C33.55 80.50 34.56 66.60 34.63 55.87L39.38 55.87L39.38 78.12C39.38 81.58 37.73 83.74 36.58 84.67C37.58 85.68 39.24 87.98 39.89 89.35C41.04 88.20 43.06 87.12 54.86 82.01C54.50 80.71 54.14 78.19 54.07 76.46L45.43 79.78L45.43 55.87L49.18 55.87C51.84 69.48 56.81 81.43 64.94 87.77C65.95 86.18 67.97 83.88 69.41 82.66C65.02 79.78 61.49 75.17 58.82 69.55C61.70 67.54 65.09 64.87 68.26 62.21Z"/></svg>
