<svg xmlns="http://www.w3.org/2000/svg" xmlns:xlink="http://www.w3.org/1999/xlink" width="72.00000000000001" height="106.56000000000002"><path fill="red" stroke="red" d="M25.42 59.18L24.48 53.06C22.25 53.78 19.94 54.50 17.71 55.15L17.71 43.27L24.91 43.27L24.91 37.08L17.71 37.08L17.71 23.18L11.59 23.18L11.59 37.08L3.24 37.08L3.24 43.27L11.59 43.27L11.59 57.02C8.06 58.03 4.82 58.97 2.23 59.69L3.82 66.17C6.19 65.38 8.78 64.51 11.59 63.65L11.59 81.79C11.59 82.80 11.23 83.02 10.30 83.02C9.50 83.09 6.84 83.09 3.96 83.02C4.82 84.74 5.62 87.62 5.76 89.21C10.37 89.21 13.18 88.99 15.12 87.98C17.06 86.90 17.71 85.10 17.71 81.79L17.71 61.70ZM31.61 42.84C30.53 52.20 27.86 59.98 22.46 64.87C23.76 65.66 26.28 67.54 27.14 68.54C29.81 65.88 31.97 62.50 33.62 58.61C35.42 60.62 37.15 62.64 38.16 64.15L41.47 58.82C40.25 57.17 37.87 54.72 35.71 52.56C36.50 49.75 37.08 46.73 37.51 43.56ZM69.70 62.42C67.90 59.90 64.15 55.73 61.06 52.42C61.85 49.75 62.42 47.02 62.78 44.06L57.02 43.27C56.09 50.40 54.07 56.88 50.47 61.49C49.75 58.97 49.46 56.74 49.46 55.01L49.46 39.53L68.11 39.53L68.11 33.55L49.46 33.55L49.46 23.40L43.06 23.40L43.06 33.55L25.78 33.55L25.78 39.53L43.06 39.53L43.06 55.01C43.06 61.49 38.66 76.25 21.53 83.66C22.75 85.10 24.62 87.84 25.42 89.35C39.10 83.30 44.93 71.78 46.22 66.02C47.59 71.64 52.99 83.52 65.95 89.35C66.89 87.62 68.69 84.82 69.91 83.30C59.54 78.55 54.07 70.99 51.48 64.44C52.49 65.02 53.50 65.74 54.07 66.24C55.94 64.08 57.60 61.42 58.90 58.46C61.63 61.63 64.51 65.16 66.10 67.54Z"/></svg>
