<svg xmlns="http://www.w3.org/2000/svg" xmlns:xlink="http://www.w3.org/1999/xlink" width="72.00000000000001" height="106.56000000000002"><path fill="red" stroke="red" d="M61.34 23.76C53.06 26.21 38.66 28.08 26.21 29.02C26.78 30.38 27.65 32.69 27.86 34.13C40.68 33.34 55.73 31.54 65.95 28.58ZM59.18 43.92C61.20 41.26 63.50 37.15 65.59 33.34L59.40 31.54C58.18 34.78 55.58 39.38 53.64 42.26ZM49.90 43.06C49.39 40.39 48.10 36.36 46.58 33.41L41.40 34.63C42.91 37.73 44.06 41.90 44.42 44.50ZM23.76 54.07L17.93 55.94L17.93 43.34L24.41 43.34L24.41 37.15L17.93 37.15L17.93 23.26L11.81 23.26L11.81 37.15L4.03 37.15L4.03 43.34L11.81 43.34L11.81 57.74C8.50 58.75 5.47 59.62 2.95 60.19L4.54 66.74L11.81 64.37L11.81 81.14C11.81 82.15 11.45 82.44 10.58 82.44C9.79 82.44 7.13 82.44 4.25 82.37C5.11 84.10 5.90 86.98 6.05 88.56C10.58 88.56 13.46 88.34 15.41 87.26C17.28 86.26 17.93 84.46 17.93 81.14L17.93 62.42C20.16 61.63 22.46 60.91 24.70 60.12ZM57.60 67.32L48.82 67.32L48.82 61.42L57.60 61.42ZM48.82 50.69L57.60 50.69L57.60 55.66L48.82 55.66ZM68.83 55.66L63.50 55.66L63.50 45.36L33.19 45.36L37.51 43.34C36.72 40.75 34.78 37.01 32.62 34.34L27.86 36.43C29.81 39.10 31.61 42.77 32.33 45.36L28.30 45.36L28.30 50.69L42.48 50.69L42.48 55.66L25.78 55.66L25.78 61.42L42.48 61.42L42.48 67.32L27.86 67.32L27.86 72.65L42.48 72.65L42.48 81.50C42.48 82.51 42.19 82.80 41.04 82.87C39.96 82.87 36.14 82.87 32.26 82.73C33.12 84.46 33.98 87.05 34.27 88.78C39.67 88.78 43.34 88.70 45.72 87.70C48.10 86.83 48.82 85.10 48.82 81.58L48.82 72.65L63.50 72.65L63.50 61.42L68.83 61.42Z"/></svg>
