<svg xmlns="http://www.w3.org/2000/svg" xmlns:xlink="http://www.w3.org/1999/xlink" width="72.00000000000001" height="106.56000000000002"><path fill="red" stroke="red" d="M30.96 34.20L60.91 34.20L60.91 39.96L67.18 39.96L67.18 29.45L49.75 29.45C49.18 27.43 48.24 24.91 47.38 22.97L40.97 24.12C41.62 25.70 42.26 27.65 42.84 29.45L24.98 29.45L24.98 39.96L30.96 39.96ZM34.78 42.05C32.47 44.35 28.51 46.51 24.70 48.02C25.85 48.96 27.65 50.83 28.44 51.84C32.40 49.90 36.94 46.73 39.67 43.56ZM22.39 53.06L16.85 54.94L16.85 43.34L22.97 43.34L22.97 37.15L16.85 37.15L16.85 23.26L10.73 23.26L10.73 37.15L3.46 37.15L3.46 43.34L10.73 43.34L10.73 57.10C7.56 58.18 4.68 59.11 2.30 59.83L4.03 66.31L10.73 63.86L10.73 81.50C10.73 82.51 10.37 82.80 9.58 82.80C8.86 82.80 6.26 82.80 3.60 82.73C4.46 84.46 5.18 87.34 5.40 88.92C9.72 88.92 12.53 88.70 14.40 87.62C16.20 86.62 16.85 84.82 16.85 81.58L16.85 61.63C19.01 60.77 21.31 59.90 23.47 59.04ZM35.42 71.28L57.10 71.28L57.10 74.38L35.42 74.38ZM57.10 60.48L35.42 60.48L35.42 57.53L57.10 57.53ZM57.10 67.39L35.42 67.39L35.42 64.37L57.10 64.37ZM63.14 78.48L63.14 53.50L47.23 53.50C53.86 51.12 59.83 48.17 64.01 44.35L58.68 42.12C56.23 44.21 52.92 46.15 48.96 47.66L48.96 41.76L58.10 41.76L58.10 37.30L33.48 37.30L33.48 41.76L43.13 41.76L43.13 49.75C36.79 51.62 29.66 53.06 22.90 53.93C23.98 55.01 25.56 57.67 26.14 58.82C27.29 58.61 28.44 58.46 29.59 58.25L29.59 78.48L39.89 78.48C35.57 80.64 28.30 83.38 23.26 84.96C24.26 86.33 25.42 88.34 26.06 89.64C31.68 87.70 39.38 84.96 45.22 82.30L40.97 78.48L51.77 78.48L49.82 82.30C55.73 84.60 62.28 87.48 66.38 89.57L68.98 84.82C65.16 83.09 59.04 80.57 53.42 78.48Z"/></svg>
