<svg xmlns="http://www.w3.org/2000/svg" xmlns:xlink="http://www.w3.org/1999/xlink" width="72.00000000000001" height="106.56000000000002"><path fill="red" stroke="red" d="M37.30 33.34L20.95 33.34L25.27 31.54C24.34 29.16 22.18 25.63 20.16 23.04L14.54 25.13C16.27 27.65 18.14 30.89 19.01 33.34L4.18 33.34L4.18 39.31L37.30 39.31ZM11.88 40.46C9.65 46.08 6.05 51.98 2.45 56.09C3.82 57.02 6.05 59.11 7.06 60.26C10.80 55.66 14.90 48.53 17.71 42.19ZM34.34 77.83C32.47 74.38 29.16 70.13 25.49 65.88C27.36 61.99 28.94 57.67 30.24 52.99L23.90 51.84C23.11 55.08 22.10 58.03 20.95 60.84C18.79 58.61 16.70 56.45 14.76 54.50L9.86 58.10C12.46 60.70 15.26 63.79 18.00 66.89C14.18 73.51 9.07 78.98 2.74 82.80C4.18 83.81 6.48 86.40 7.34 87.62C13.25 83.59 18.22 78.41 22.10 72.00C25.06 75.67 27.43 79.20 28.94 82.01ZM58.25 42.12C57.10 50.76 55.15 58.03 52.20 64.30C49.68 58.97 47.66 53.06 46.37 46.87C46.87 45.29 47.38 43.78 47.95 42.12ZM68.47 42.12L68.47 35.93L49.75 35.93C50.62 32.11 51.48 28.08 52.20 24.05L45.94 23.11C44.28 34.13 41.40 44.71 36.86 52.42C35.35 48.89 31.90 43.85 28.66 40.10L23.76 42.70C27.00 46.80 30.53 52.42 31.82 56.02L36.22 53.50C35.78 54.29 35.28 55.01 34.70 55.73C36.00 56.95 38.16 59.62 39.02 60.98C40.25 59.26 41.40 57.38 42.55 55.37C44.14 60.91 46.15 66.02 48.53 70.63C44.42 76.61 38.88 81.22 31.46 84.53C32.83 85.68 35.21 88.27 36.00 89.57C42.62 86.18 47.88 81.86 51.98 76.46C55.58 81.79 59.83 86.18 64.94 89.28C66.02 87.55 68.04 85.10 69.62 83.81C64.15 80.86 59.54 76.32 55.87 70.70C60.26 63.07 63.00 53.64 64.73 42.12Z"/></svg>
