<svg xmlns="http://www.w3.org/2000/svg" xmlns:xlink="http://www.w3.org/1999/xlink" width="72.00000000000001" height="106.56000000000002"><path fill="red" stroke="red" d="M22.61 72.58L25.49 70.85C24.48 68.54 22.03 65.16 19.73 62.78L15.70 64.94C17.86 67.18 19.94 70.20 21.10 72.58L12.53 72.58C12.82 69.62 13.18 66.17 13.46 62.71L28.51 62.71C28.37 66.67 28.15 69.98 27.94 72.58ZM20.45 47.95L16.70 49.90C18.72 51.98 20.59 54.94 21.53 57.17L13.97 57.17C14.26 54.07 14.47 50.90 14.76 47.95ZM22.82 57.17L25.85 55.58C24.98 53.35 22.90 50.26 20.66 47.95L29.09 47.95C28.94 51.34 28.87 54.43 28.80 57.17ZM39.46 78.05L39.46 72.58L33.91 72.58C34.13 69.84 34.34 66.53 34.49 62.71L39.89 62.71L39.89 57.17L34.70 57.17C34.85 53.64 34.99 49.75 35.14 45.36C35.14 44.57 35.21 42.48 35.21 42.48L11.02 42.48C11.95 40.61 12.82 38.74 13.68 36.65L39.02 36.65L39.02 30.82L15.84 30.82C16.49 28.73 17.14 26.57 17.64 24.41L11.38 23.11C9.50 31.32 6.26 39.53 1.94 44.64C3.31 45.50 6.12 47.38 7.20 48.46C7.78 47.74 8.35 46.94 8.86 46.15C8.64 49.68 8.35 53.42 7.99 57.17L2.88 57.17L2.88 62.71L7.49 62.71C6.91 68.47 6.26 73.94 5.69 78.05L27.36 78.05C27.00 80.28 26.57 81.50 26.14 82.15C25.56 83.09 24.98 83.30 23.90 83.23C22.68 83.30 20.23 83.23 17.50 82.94C18.36 84.53 18.94 87.05 19.08 88.63C22.03 88.85 24.98 88.85 26.78 88.56C28.87 88.27 30.17 87.62 31.46 85.82C32.33 84.60 32.98 82.30 33.48 78.05ZM58.61 42.70C57.53 50.98 55.87 58.10 53.21 64.22C50.47 57.89 48.60 50.54 47.30 42.70ZM68.62 42.70L68.62 36.65L49.10 36.65C50.11 32.62 51.05 28.37 51.84 24.19L45.65 23.11C43.78 34.63 40.46 45.94 35.35 52.99C36.79 54.07 39.24 56.30 40.25 57.46C41.33 55.87 42.34 54.14 43.27 52.20C44.93 59.26 46.94 65.59 49.54 71.14C46.08 76.54 41.54 80.78 35.50 84.10C36.86 85.25 39.10 87.77 39.89 89.06C45.22 85.82 49.46 81.94 52.92 77.18C56.23 82.15 60.05 86.26 64.87 89.35C65.88 87.55 67.90 85.10 69.41 83.95C64.22 80.93 60.05 76.61 56.74 71.14C60.77 63.36 63.36 54.00 64.94 42.70Z"/></svg>
