<svg xmlns="http://www.w3.org/2000/svg" xmlns:xlink="http://www.w3.org/1999/xlink" width="72.00000000000001" height="106.56000000000002"><path fill="red" stroke="red" d="M47.66 78.34L47.66 64.22L58.75 64.22L58.75 78.34ZM13.32 64.22L23.90 64.22L23.90 78.34L13.32 78.34ZM23.90 43.78L23.90 57.82L13.32 57.82L13.32 43.78ZM41.04 64.22L41.04 78.34L30.46 78.34L30.46 64.22ZM41.04 43.78L41.04 57.82L30.46 57.82L30.46 43.78ZM58.75 43.78L58.75 57.82L47.66 57.82L47.66 43.78ZM47.66 37.22L47.66 23.83L41.04 23.83L41.04 37.22L30.46 37.22L30.46 23.83L23.90 23.83L23.90 37.22L6.98 37.22L6.98 89.14L13.32 89.14L13.32 84.82L58.75 84.82L58.75 88.92L65.38 88.92L65.38 37.22Z"/></svg>
