<svg xmlns="http://www.w3.org/2000/svg" xmlns:xlink="http://www.w3.org/1999/xlink" width="72.00000000000001" height="106.56000000000002"><path fill="red" stroke="red" d="M19.30 30.24L52.63 30.24L52.63 47.45L59.33 47.45L59.33 25.42L12.89 25.42L12.89 47.45L19.30 47.45ZM22.03 45.50L49.46 45.50L49.46 41.33L22.03 41.33ZM22.03 33.70L22.03 37.87L49.39 37.87L49.39 33.70ZM57.67 64.73C56.09 67.97 53.93 70.99 51.34 73.51C48.74 70.92 46.73 67.90 45.14 64.73ZM16.27 73.51L28.08 73.51L28.08 76.97C24.05 77.47 20.02 77.90 16.27 78.26ZM28.08 55.73L28.08 59.76L16.27 59.76L16.27 55.73ZM16.27 64.58L28.08 64.58L28.08 68.62L16.27 68.62ZM61.63 59.26L60.55 59.47L36.79 59.47L36.79 64.73L40.97 64.73L39.24 65.23C41.11 69.77 43.70 73.87 46.87 77.33C43.13 80.14 38.81 82.30 34.34 83.59L34.34 55.73L67.46 55.73L67.46 50.33L4.39 50.33L4.39 55.73L10.30 55.73L10.30 78.84C7.92 79.06 5.69 79.27 3.74 79.42L4.32 85.32C10.87 84.53 19.44 83.52 28.08 82.58L28.08 89.21L34.34 89.21L34.34 83.81C35.71 85.10 37.15 87.41 37.87 88.99C42.77 87.19 47.38 84.82 51.48 81.65C55.44 84.67 60.12 87.12 65.30 88.63C66.24 87.05 67.90 84.53 69.34 83.30C64.30 82.15 59.90 80.14 56.09 77.47C60.34 73.08 63.72 67.61 65.74 60.91Z"/></svg>
