<svg xmlns="http://www.w3.org/2000/svg" xmlns:xlink="http://www.w3.org/1999/xlink" width="72.00000000000001" height="106.56000000000002"><path fill="red" stroke="red" d="M26.78 31.68L45.72 31.68L45.72 43.70C45.72 50.62 47.45 53.06 54.36 53.06L62.28 53.06C64.37 53.06 66.46 52.99 67.68 52.56C67.46 51.05 67.18 48.17 67.03 46.37C65.81 46.73 63.65 46.80 62.21 46.80L54.36 46.80C52.85 46.80 52.56 46.08 52.56 43.85L52.56 25.27L19.87 25.27L19.87 32.83C19.87 38.81 18.00 45.29 5.04 49.82C6.26 50.98 8.50 54.07 9.22 55.58C23.54 50.26 26.78 41.11 26.78 33.05ZM20.02 66.67C16.49 72.36 9.94 77.54 3.46 80.78C5.11 81.79 7.78 84.02 9.14 85.25C15.41 81.43 22.46 75.38 26.71 68.76ZM67.25 64.22L67.25 57.89L39.24 57.89L39.24 49.82L32.11 49.82L32.11 57.89L4.68 57.89L4.68 64.22L32.11 64.22L32.11 89.21L39.24 89.21L39.24 64.22ZM44.35 70.42C50.90 74.81 58.90 81.29 62.64 85.61L68.11 81.36C64.08 77.04 55.87 70.85 49.46 66.74Z"/></svg>
