<svg xmlns="http://www.w3.org/2000/svg" xmlns:xlink="http://www.w3.org/1999/xlink" width="72.00000000000001" height="106.56000000000002"><path fill="red" stroke="red" d="M17.50 56.66L32.33 56.66L32.33 62.50L17.50 62.50ZM17.50 46.08L32.33 46.08L32.33 51.84L17.50 51.84ZM55.01 46.08L55.01 51.84L39.31 51.84L39.31 46.08ZM55.01 62.50L39.31 62.50L39.31 56.66L55.01 56.66ZM61.78 67.61L61.78 40.97L39.31 40.97L39.31 35.71L67.46 35.71L67.46 29.52L39.31 29.52L39.31 23.11L32.33 23.11L32.33 29.52L4.82 29.52L4.82 35.71L32.33 35.71L32.33 40.97L10.94 40.97L10.94 67.61L27.14 67.61C20.95 73.87 11.59 79.49 2.95 82.58C4.46 83.95 6.48 86.47 7.56 88.20C16.34 84.60 25.63 78.26 32.33 70.99L32.33 89.14L39.31 89.14L39.31 70.70C46.08 78.12 55.66 84.67 64.51 88.27C65.59 86.54 67.68 83.88 69.34 82.51C60.48 79.56 50.90 73.87 44.57 67.61Z"/></svg>
