<svg xmlns="http://www.w3.org/2000/svg" xmlns:xlink="http://www.w3.org/1999/xlink" width="72.00000000000001" height="106.56000000000002"><path fill="red" stroke="red" d="M59.04 48.02L46.22 48.02L46.22 34.56L59.04 34.56ZM65.74 28.73L39.96 28.73L39.96 53.78L65.74 53.78ZM28.94 36.29C28.44 44.57 27.86 47.95 26.93 48.96C26.42 49.54 25.85 49.68 24.84 49.68C23.76 49.68 21.46 49.61 18.94 49.39C19.80 50.98 20.45 53.50 20.59 55.30C23.54 55.44 26.42 55.44 27.94 55.15C29.88 54.94 31.10 54.43 32.40 53.06C34.13 51.05 34.78 45.79 35.50 32.98C35.57 32.11 35.64 30.46 35.64 30.46L20.88 30.46C21.02 28.15 21.17 25.70 21.31 23.18L14.90 23.18C14.83 25.70 14.69 28.22 14.47 30.46L4.18 30.46L4.18 36.29L13.75 36.29C12.46 43.56 9.58 49.03 2.66 52.70C4.10 53.86 5.98 56.16 6.70 57.82C15.19 53.14 18.65 45.86 20.16 36.29ZM20.88 69.62C17.14 74.74 10.44 79.49 3.82 82.37C5.47 83.38 8.21 85.54 9.50 86.83C15.91 83.38 23.18 77.76 27.50 71.78ZM66.96 67.61L66.96 61.70L39.31 61.70L39.31 55.51L32.40 55.51L32.40 61.70L4.39 61.70L4.39 67.61L32.40 67.61L32.40 89.35L39.31 89.35L39.31 67.61ZM43.92 73.44C50.69 77.26 59.11 83.16 63.14 87.12L68.40 82.58C64.01 78.55 55.30 73.01 48.67 69.41Z"/></svg>
