<svg xmlns="http://www.w3.org/2000/svg" xmlns:xlink="http://www.w3.org/1999/xlink" width="72.00000000000001" height="106.56000000000002"><path fill="red" stroke="red" d="M50.11 36.79L50.11 48.46C50.11 52.85 50.69 54.29 51.84 55.44C53.06 56.38 55.08 56.88 56.74 56.88L61.13 56.88C62.50 56.88 64.30 56.66 65.23 56.16C66.53 55.58 67.39 54.72 67.90 53.21C68.40 51.91 68.69 48.46 68.83 45.29C67.03 44.57 64.51 43.42 63.14 42.19C63.07 45.43 63.00 48.02 62.86 49.10C62.71 50.26 62.35 50.76 61.99 50.98C61.63 51.19 60.98 51.34 60.41 51.34L58.32 51.34C57.74 51.34 57.38 51.19 57.02 50.98C56.74 50.69 56.66 49.90 56.66 48.60L56.66 30.89L42.77 30.89C43.06 28.51 43.27 25.85 43.34 23.04L36.65 23.11C36.58 25.92 36.50 28.51 36.22 30.89L24.98 30.89L24.98 36.79L35.14 36.79C33.12 45.22 28.51 50.62 19.87 53.86C21.24 54.94 23.76 57.60 24.48 58.90C34.34 54.36 39.46 47.59 41.83 36.79ZM9.79 59.98C13.75 55.94 18.14 51.26 22.10 46.80L18.07 42.70C13.68 47.52 8.50 52.56 4.90 55.58ZM23.33 28.30C20.45 26.71 14.90 24.70 10.87 23.54L8.28 27.94C12.38 29.23 17.78 31.54 20.66 33.12ZM18.22 38.30C15.41 36.65 10.01 34.70 5.98 33.55L3.17 38.02C7.27 39.31 12.67 41.62 15.41 43.20ZM24.05 69.26C19.37 74.52 10.37 79.34 2.23 81.50C3.67 82.94 5.83 85.68 6.84 87.48C15.34 84.38 24.34 78.26 29.38 71.28ZM67.75 68.33L67.75 62.35L39.31 62.35L39.31 55.22L32.54 55.22L32.54 62.35L4.39 62.35L4.39 68.33L32.54 68.33L32.54 89.14L39.31 89.14L39.31 68.33ZM42.77 73.44C50.18 77.47 59.69 83.81 64.22 87.91L68.62 82.58C63.86 78.41 54.07 72.58 46.80 68.69Z"/></svg>
