<svg xmlns="http://www.w3.org/2000/svg" xmlns:xlink="http://www.w3.org/1999/xlink" width="72.00000000000001" height="106.56000000000002"><path fill="red" stroke="red" d="M46.87 59.62C48.60 57.10 50.76 53.28 52.78 49.68L47.38 48.02C46.30 50.98 44.28 55.30 42.70 58.10ZM19.30 49.61C21.46 52.63 23.40 56.66 24.12 59.26L28.94 57.67C28.15 54.94 26.06 51.05 23.90 48.17ZM16.42 46.73L32.40 46.73L32.40 60.55L16.42 60.55ZM56.23 46.73L56.23 60.55L39.38 60.55L39.38 46.73ZM62.71 65.81L62.71 41.47L39.38 41.47L39.38 36.22L67.25 36.22L67.25 30.17L39.38 30.17L39.38 23.18L32.40 23.18L32.40 30.17L4.90 30.17L4.90 36.22L32.40 36.22L32.40 41.47L10.30 41.47L10.30 65.81L28.44 65.81C22.03 72.58 12.02 78.62 2.66 81.72C4.18 83.09 6.19 85.68 7.20 87.41C16.27 83.81 25.63 77.47 32.40 69.98L32.40 89.14L39.38 89.14L39.38 69.62C45.94 77.33 55.37 83.88 64.58 87.41C65.66 85.61 67.75 82.94 69.26 81.65C59.62 78.62 49.61 72.65 43.42 65.81Z"/></svg>
