<svg xmlns="http://www.w3.org/2000/svg" xmlns:xlink="http://www.w3.org/1999/xlink" width="72.00000000000001" height="106.56000000000002"><path fill="red" stroke="red" d="M27.94 61.49C26.78 59.54 21.46 51.41 19.44 48.74L19.44 44.50L27.14 44.50L27.14 38.30L19.44 38.30L19.44 23.11L13.25 23.11L13.25 38.30L3.89 38.30L3.89 44.50L12.67 44.50C10.73 53.64 6.62 64.30 2.38 70.20C3.31 71.64 4.90 74.16 5.54 75.96C8.42 71.86 11.09 65.52 13.25 58.68L13.25 89.14L19.44 89.14L19.44 56.74C21.31 60.12 23.40 64.08 24.34 66.38ZM50.69 72.65L50.69 68.18L59.18 68.18L59.18 72.65ZM36.65 68.18L44.64 68.18L44.64 72.65L36.65 72.65ZM44.64 59.47L44.64 63.58L36.65 63.58L36.65 59.47ZM59.18 59.47L59.18 63.58L50.69 63.58L50.69 59.47ZM42.84 42.12L52.70 42.12L52.70 46.15L42.84 46.15ZM42.84 33.48L52.70 33.48L52.70 37.44L42.84 37.44ZM69.70 72.65L65.45 72.65L65.45 54.65L50.69 54.65L50.69 51.12L68.98 51.12L68.98 46.15L58.97 46.15L58.97 42.12L66.46 42.12L66.46 37.44L58.97 37.44L58.97 33.48L67.54 33.48L67.54 28.66L58.97 28.66L58.97 23.11L52.70 23.11L52.70 28.66L42.84 28.66L42.84 23.11L36.58 23.11L36.58 28.66L28.73 28.66L28.73 33.48L36.58 33.48L36.58 37.44L30.24 37.44L30.24 42.12L36.58 42.12L36.58 46.15L27.14 46.15L27.14 51.12L44.64 51.12L44.64 54.65L30.53 54.65L30.53 72.65L25.92 72.65L25.92 77.69L30.53 77.69L30.53 88.85L36.65 88.85L36.65 77.69L59.18 77.69L59.18 82.37C59.18 83.23 58.90 83.52 58.03 83.52C57.10 83.59 54.00 83.59 50.98 83.45C51.70 84.96 52.49 87.26 52.78 88.85C57.38 88.85 60.62 88.78 62.71 87.98C64.80 86.98 65.45 85.46 65.45 82.44L65.45 77.69L69.70 77.69Z"/></svg>
