<svg xmlns="http://www.w3.org/2000/svg" xmlns:xlink="http://www.w3.org/1999/xlink" width="72.00000000000001" height="106.56000000000002"><path fill="red" stroke="red" d="M69.12 46.01L26.06 46.01L26.06 51.19L69.12 51.19ZM35.42 67.46L44.21 67.46L44.21 71.57L35.42 71.57ZM35.42 59.04L44.21 59.04L44.21 63.22L35.42 63.22ZM59.40 63.22L50.33 63.22L50.33 59.04L59.40 59.04ZM59.40 71.57L50.33 71.57L50.33 67.46L59.40 67.46ZM65.45 76.32L65.45 54.36L29.59 54.36L29.59 76.32ZM52.78 34.49L52.78 39.10L41.62 39.10L41.62 34.49ZM35.71 43.49L59.04 43.49L59.04 34.49L67.75 34.49L67.75 29.45L59.04 29.45L59.04 24.19L52.78 24.19L52.78 29.45L41.62 29.45L41.62 24.19L35.71 24.19L35.71 29.45L26.93 29.45L26.93 34.49L35.71 34.49ZM28.15 60.41C26.93 58.61 21.46 50.98 19.44 48.53L19.44 43.99L27.65 43.99L27.65 37.80L19.44 37.80L19.44 23.11L13.32 23.11L13.32 37.80L3.53 37.80L3.53 43.99L12.31 43.99C10.37 53.28 6.34 64.08 2.02 69.91C3.17 71.71 4.75 74.95 5.47 77.04C8.42 72.58 11.16 65.66 13.32 58.32L13.32 89.14L19.44 89.14L19.44 56.74C21.38 60.05 23.54 63.86 24.55 66.24ZM38.66 76.61C35.57 79.49 29.38 82.94 24.05 84.74C25.34 86.11 27.07 88.20 28.01 89.57C33.48 87.55 40.03 84.02 44.14 80.42ZM51.41 81.00C56.09 83.52 61.27 87.05 64.30 89.57L69.77 85.18C66.46 82.66 60.70 79.27 55.66 76.75Z"/></svg>
