<svg xmlns="http://www.w3.org/2000/svg" xmlns:xlink="http://www.w3.org/1999/xlink" width="72.00000000000001" height="106.56000000000002"><path fill="red" stroke="red" d="M43.27 67.03L59.83 67.03L59.83 69.70L43.27 69.70ZM43.27 61.34L59.83 61.34L59.83 64.01L43.27 64.01ZM43.27 55.80L59.83 55.80L59.83 58.25L43.27 58.25ZM68.26 78.12C66.38 76.54 62.86 74.52 59.76 72.86L65.74 72.86L65.74 52.56L37.66 52.56L37.66 72.86L43.99 72.86C41.54 74.66 37.80 76.61 34.92 77.83C36.00 78.70 37.73 80.28 38.59 81.29C41.90 79.78 46.58 77.11 49.82 74.66L46.87 72.86L56.66 72.86L54.00 74.81C57.53 76.68 61.92 79.42 64.15 81.22ZM42.84 41.11L42.84 38.09L48.67 38.09L48.67 41.11ZM60.12 38.09L60.12 41.11L54.22 41.11L54.22 38.09ZM68.47 46.73L54.22 46.73L54.22 44.14L65.30 44.14L65.30 35.06L54.22 35.06L54.22 32.18L48.67 32.18L48.67 35.06L37.80 35.06L37.80 44.14L48.67 44.14L48.67 46.73L34.56 46.73L34.56 50.47L68.47 50.47ZM18.36 43.92L25.34 43.92L25.34 37.73L18.36 37.73L18.36 23.04L12.31 23.04L12.31 37.73L3.89 37.73L3.89 43.92L11.95 43.92C10.08 53.35 6.26 64.15 2.23 69.91C3.31 71.64 4.82 74.52 5.47 76.39C7.99 72.36 10.44 66.31 12.31 59.69L12.31 89.06L18.36 89.06L18.36 55.87C20.23 59.33 22.18 63.22 23.11 65.45L26.50 60.41C25.34 58.46 20.38 50.69 18.36 47.95ZM32.83 81.65L32.83 31.10L68.40 31.10L68.40 25.85L26.78 25.85L26.78 86.98L69.34 86.98L69.34 81.65Z"/></svg>
