<svg xmlns="http://www.w3.org/2000/svg" xmlns:xlink="http://www.w3.org/1999/xlink" width="72.00000000000001" height="106.56000000000002"><path fill="red" stroke="red" d="M36.29 66.53C35.42 69.77 33.84 72.79 31.46 75.46L31.46 63.50L39.67 63.50L39.67 58.75L17.42 58.75L17.42 63.50L25.99 63.50L25.99 77.47L29.45 77.47C25.78 80.86 20.81 83.45 15.05 85.10C15.98 86.04 17.28 87.84 17.93 88.99C30.02 85.39 38.52 77.47 41.69 67.39ZM19.30 65.95C18.29 69.70 16.49 73.37 13.97 76.03C15.19 76.68 17.21 78.05 18.07 78.84C20.59 75.89 22.90 71.42 24.12 67.03ZM51.77 44.21L50.26 45.65C52.49 46.80 55.22 48.31 57.10 49.75L47.81 49.75C47.66 47.95 47.59 46.15 47.52 44.21ZM56.74 57.89C55.44 62.06 53.50 65.88 51.26 69.34C49.97 65.30 49.03 60.55 48.38 55.30L66.89 55.30L66.89 49.75L59.69 49.75L61.99 47.38C60.84 46.44 59.11 45.29 57.17 44.21L67.61 44.21L67.61 38.66L40.18 38.66L40.18 33.91L61.27 33.91L61.27 28.80L40.18 28.80L40.18 23.18L33.70 23.18L33.70 38.66L21.82 38.66L21.82 26.35L15.62 26.35L15.62 38.66L4.46 38.66L4.46 44.21L41.47 44.21C41.54 46.08 41.62 47.88 41.76 49.75L8.28 49.75L8.28 61.78C8.28 69.05 7.63 78.98 2.66 86.18C4.18 86.83 6.98 88.42 8.21 89.42C13.46 81.72 14.47 70.06 14.47 61.85L14.47 55.30L42.34 55.30C43.20 62.78 44.71 69.55 46.80 75.02C43.13 78.98 38.81 82.22 33.98 84.67C35.28 85.75 37.66 88.13 38.52 89.35C42.62 87.05 46.22 84.24 49.54 80.86C52.49 85.90 56.16 88.85 60.48 88.85C65.45 88.85 67.54 86.26 68.47 76.68C66.89 76.10 64.87 74.88 63.50 73.66C63.14 80.35 62.50 83.02 60.91 83.02C58.39 83.02 55.87 80.50 53.78 76.03C57.53 71.21 60.62 65.59 62.78 59.26Z"/></svg>
