<svg xmlns="http://www.w3.org/2000/svg" xmlns:xlink="http://www.w3.org/1999/xlink" width="72.00000000000001" height="106.56000000000002"><path fill="red" stroke="red" d="M51.26 48.96C49.03 55.15 45.79 60.48 41.83 64.87C37.51 60.77 30.89 55.73 25.06 51.84C25.99 50.90 26.86 49.97 27.65 48.96ZM65.30 34.06L65.30 27.65L6.70 27.65L6.70 34.06L29.52 34.06C24.41 43.70 15.77 53.28 5.47 59.04C6.91 60.34 9.14 62.64 10.37 64.15C13.90 61.92 17.28 59.40 20.38 56.59C26.06 60.70 32.40 65.88 36.43 70.13C28.94 76.32 19.66 80.42 9.29 82.94C10.73 84.38 12.67 87.62 13.46 89.50C35.14 83.30 52.99 69.91 60.12 44.57L55.44 42.19L54.14 42.55L32.47 42.55C34.34 39.82 36.00 36.94 37.51 34.06Z"/></svg>
