<svg xmlns="http://www.w3.org/2000/svg" xmlns:xlink="http://www.w3.org/1999/xlink" width="72.00000000000001" height="106.56000000000002"><path fill="red" stroke="red" d="M23.11 47.09C22.39 51.77 21.46 56.02 20.30 59.90C17.64 57.96 14.33 55.87 11.52 54.14C12.53 51.98 13.54 49.54 14.33 47.09ZM25.99 40.82L24.84 41.11L16.27 41.11C16.99 38.38 17.64 35.57 18.22 32.76L31.90 32.76L31.90 26.71L3.46 26.71L3.46 32.76L12.02 32.76C10.01 42.62 6.84 51.84 2.02 57.96C3.10 59.47 4.97 62.64 5.54 64.15C6.62 62.71 7.70 61.20 8.78 59.47C11.95 61.49 15.48 64.01 17.93 66.10C14.47 74.23 9.65 80.14 3.46 84.10C4.90 84.96 7.13 87.48 8.14 88.92C19.58 81.22 27.29 65.81 29.95 42.05ZM69.91 52.56C67.46 47.09 62.50 38.88 58.03 32.54L52.63 35.14C54.79 38.30 57.10 42.05 59.18 45.65L39.31 46.94C43.70 40.68 48.17 32.83 51.62 24.98L44.64 23.11C41.26 32.11 35.71 41.47 33.98 43.92C32.18 46.44 30.89 48.17 29.38 48.53C30.10 50.18 31.18 53.42 31.54 54.79C33.84 53.93 37.22 53.50 62.28 51.55C63.07 52.99 63.65 54.36 64.15 55.58ZM58.82 65.81L58.82 80.21L39.02 80.21L39.02 65.81ZM32.90 89.14L39.02 89.14L39.02 86.11L58.82 86.11L58.82 89.06L65.23 89.06L65.23 59.83L32.90 59.83Z"/></svg>
