<svg xmlns="http://www.w3.org/2000/svg" xmlns:xlink="http://www.w3.org/1999/xlink" width="72.00000000000001" height="106.56000000000002"><path fill="red" stroke="red" d="M47.66 31.61L56.59 31.61L56.59 41.90C56.59 47.52 57.53 49.75 62.64 49.75L65.74 49.75C66.89 49.75 68.11 49.68 68.90 49.32C68.76 47.95 68.54 45.72 68.47 44.14C67.75 44.35 66.46 44.50 65.66 44.50L63.29 44.50C62.50 44.50 62.42 43.85 62.42 41.98L62.42 25.78L41.90 25.78L41.90 35.78C41.90 39.82 41.33 43.92 36.14 47.02C37.08 48.02 38.95 50.90 39.53 52.34C46.22 48.31 47.66 41.76 47.66 36.00ZM38.59 71.64C36.22 69.34 31.75 66.02 27.94 63.65C30.46 61.49 33.26 58.82 35.86 56.30L30.82 53.14C29.45 55.01 27.36 57.38 25.42 59.40C24.19 56.66 22.46 54.07 20.30 51.84C21.02 51.12 21.74 50.33 22.46 49.54L36.14 49.54L36.14 43.92L27.22 43.92C28.44 41.83 29.88 39.38 31.25 37.15L26.21 35.06L35.50 35.06L35.50 29.52L22.82 29.52L23.33 29.30C22.61 27.36 21.02 24.34 19.58 22.18L13.97 24.34C14.90 25.85 15.98 27.79 16.70 29.52L4.61 29.52L4.61 35.06L25.56 35.06C24.77 37.66 23.26 41.47 21.96 43.92L14.04 43.92L17.28 42.48C16.49 40.46 14.69 37.30 12.89 35.06L7.99 37.01C9.58 39.02 11.02 41.76 11.88 43.92L3.67 43.92L3.67 49.54L15.26 49.54C11.81 52.63 7.06 55.37 2.52 57.31C3.67 58.18 5.83 60.26 6.77 61.34C9.94 59.76 13.39 57.67 16.42 55.22C17.28 56.16 17.93 57.17 18.58 58.18C14.83 61.99 8.28 66.02 3.17 68.04C4.25 69.12 5.62 71.14 6.34 72.43C11.02 70.06 16.63 66.17 20.66 62.42C21.17 63.79 21.60 65.16 21.89 66.53C17.50 71.64 9.29 76.97 2.38 79.34C3.53 80.64 5.04 82.73 5.76 84.24C11.38 81.58 17.86 77.26 22.75 72.79C22.97 76.97 22.18 80.42 20.95 81.65C20.09 83.02 19.01 83.23 17.50 83.23C16.27 83.23 14.40 83.16 12.46 82.94C13.39 84.60 13.90 87.05 13.90 88.56C15.77 88.70 17.42 88.78 18.79 88.70C21.74 88.63 23.83 87.98 25.63 85.75C28.01 83.38 29.16 77.33 28.44 70.70C30.89 72.65 33.19 74.52 34.63 76.18ZM58.82 59.40C57.24 64.22 54.94 68.40 52.06 71.93C49.18 68.33 46.87 64.08 45.29 59.40ZM62.42 53.21L61.27 53.42L37.66 53.42L37.66 59.40L41.54 59.40L39.60 59.90C41.69 66.10 44.35 71.64 47.88 76.18C43.85 79.70 39.02 82.30 33.91 83.95C35.14 85.18 36.58 87.55 37.30 89.21C42.77 87.19 47.66 84.46 51.98 80.71C55.80 84.46 60.48 87.26 65.88 89.28C66.74 87.55 68.47 85.10 69.84 83.81C64.51 82.22 59.98 79.70 56.23 76.32C60.91 70.78 64.30 63.72 66.38 54.65Z"/></svg>
