<svg xmlns="http://www.w3.org/2000/svg" xmlns:xlink="http://www.w3.org/1999/xlink" width="72.00000000000001" height="106.56000000000002"><path fill="red" stroke="red" d="M67.10 45.65L39.10 45.65L39.10 41.62L60.26 41.62L60.26 36.94L39.10 36.94L39.10 33.41L64.87 33.41L64.87 28.58L39.10 28.58L39.10 23.18L32.54 23.18L32.54 28.58L8.14 28.58L8.14 33.41L32.54 33.41L32.54 36.94L12.46 36.94L12.46 41.62L32.54 41.62L32.54 45.65L5.04 45.65L5.04 50.54L67.10 50.54ZM37.15 73.73C37.73 72.00 38.23 70.20 38.59 68.54L51.26 68.54C51.12 70.49 50.98 72.22 50.76 73.73ZM20.02 73.73C20.23 72.14 20.45 70.34 20.66 68.54L32.26 68.54C31.82 70.20 31.25 72.00 30.53 73.73ZM21.74 58.68L33.34 58.68L33.34 59.40C33.34 60.62 33.26 61.92 33.12 63.43L21.24 63.43ZM39.46 58.68L51.98 58.68L51.70 63.43L39.31 63.43C39.38 61.99 39.46 60.77 39.46 59.54ZM68.98 68.54L68.98 63.43L58.10 63.43C58.25 61.20 58.39 58.90 58.54 56.30C58.61 55.58 58.68 53.71 58.68 53.71L15.77 53.71C15.55 56.66 15.19 60.12 14.83 63.43L3.02 63.43L3.02 68.54L14.26 68.54C13.75 72.36 13.25 75.96 12.74 78.77L19.22 78.77L19.22 78.70L27.65 78.70C25.78 81.36 23.18 84.02 19.80 86.33C21.38 87.12 23.83 88.85 24.98 89.93C29.66 86.54 32.83 82.66 34.92 78.70L50.04 78.70C49.54 81.07 49.03 82.44 48.46 83.02C47.81 83.81 47.16 84.02 45.86 83.95C44.71 84.02 41.69 83.95 38.45 83.66C39.17 84.96 39.82 86.98 39.89 88.34C43.49 88.63 46.94 88.63 48.96 88.42C51.05 88.20 52.70 87.70 54.07 86.04C55.08 84.89 55.87 82.66 56.52 78.70L64.37 78.70L64.37 73.73L57.24 73.73C57.38 72.22 57.60 70.42 57.74 68.54Z"/></svg>
