<svg xmlns="http://www.w3.org/2000/svg" xmlns:xlink="http://www.w3.org/1999/xlink" width="72.00000000000001" height="106.56000000000002"><path fill="red" stroke="red" d="M60.55 26.50C59.40 29.30 57.17 33.34 55.44 35.86L60.34 37.51C62.14 35.14 64.30 31.68 66.24 28.22ZM43.99 36.22C42.62 33.70 39.74 29.30 37.51 26.06L32.76 28.58C34.92 31.97 37.66 36.50 39.02 39.24ZM66.82 45.22C63.36 42.55 56.74 39.24 51.34 36.94C52.56 33.19 52.99 28.58 53.28 23.18L47.09 23.18C46.58 36.14 44.86 42.55 31.39 46.08C32.69 47.23 34.27 49.54 34.85 51.05C41.90 48.96 46.22 46.08 48.89 42.05C54.14 44.50 59.90 47.81 62.93 50.26ZM60.41 64.37C62.35 61.92 64.73 58.25 66.89 54.72L60.91 52.78C59.62 55.73 57.24 59.90 55.37 62.50ZM43.99 63.29C42.84 60.70 40.25 56.16 38.09 52.78L33.26 55.08C35.28 58.61 37.66 63.29 38.88 66.10ZM66.82 72.72C63.50 69.62 57.10 65.59 51.70 62.78C52.63 58.97 53.06 54.43 53.28 49.03L47.02 49.03C46.51 63.50 44.86 70.06 29.81 73.66C30.96 74.88 32.62 77.26 33.19 78.84C41.83 76.46 46.80 73.08 49.54 68.11C54.36 70.85 59.54 74.45 62.42 77.18C61.56 80.64 59.83 81.50 55.30 81.50L29.30 81.50C21.82 81.50 20.59 80.42 20.59 75.53L20.59 65.81L32.76 63.43L31.97 57.53L20.59 59.69L20.59 49.03L30.82 46.94L30.02 41.11L20.59 43.06L20.59 32.26C24.41 30.96 28.01 29.52 31.10 28.01L26.42 22.82C20.66 26.14 11.02 29.52 2.30 31.75C3.10 33.12 4.10 35.35 4.39 36.86C7.63 36.07 11.02 35.21 14.33 34.20L14.33 44.35L3.74 46.44L4.61 52.27L14.33 50.33L14.33 60.91L2.74 63.14L3.53 69.19L14.33 67.03L14.33 75.53C14.33 85.03 17.78 87.34 29.59 87.34L55.66 87.34C65.66 87.34 68.11 84.60 69.26 75.74C68.18 75.53 66.74 75.10 65.45 74.52Z"/></svg>
