<svg xmlns="http://www.w3.org/2000/svg" xmlns:xlink="http://www.w3.org/1999/xlink" width="72.00000000000001" height="106.56000000000002"><path fill="red" stroke="red" d="M67.39 41.69L39.38 41.69L39.38 33.19L63.14 33.19L63.14 27.00L9.86 27.00L9.86 33.19L32.62 33.19L32.62 41.69L4.68 41.69L4.68 48.02L67.39 48.02ZM25.92 55.66L24.62 55.87L6.12 55.87L6.12 61.99L21.60 61.99C18.00 70.63 11.30 76.82 3.17 80.14C4.46 81.29 6.41 84.31 7.20 85.97C17.64 81.22 26.35 71.78 30.10 57.46ZM58.61 52.85C55.22 56.52 49.82 61.13 45.22 64.37C42.91 61.70 40.97 58.90 39.38 55.94L39.38 49.97L32.76 49.97L32.76 81.79C32.76 82.73 32.40 83.02 31.39 83.02C30.31 83.02 26.50 83.09 22.97 82.94C23.83 84.74 24.77 87.41 24.98 89.28C30.17 89.28 33.84 89.21 36.22 88.20C38.66 87.19 39.38 85.39 39.38 81.94L39.38 66.74C45.72 75.53 54.29 82.30 64.51 86.04C65.59 84.10 67.68 81.22 69.26 79.78C61.63 77.47 54.86 73.51 49.25 68.47C54.07 65.45 59.83 61.13 64.58 57.24Z"/></svg>
