<svg xmlns="http://www.w3.org/2000/svg" xmlns:xlink="http://www.w3.org/1999/xlink" width="72.00000000000001" height="106.56000000000002"><path fill="red" stroke="red" d="M24.77 31.32C21.60 29.23 15.55 25.99 11.16 23.98L7.42 28.87C11.88 31.10 17.86 34.56 20.88 36.86ZM20.09 50.69C17.06 48.53 10.94 45.43 6.77 43.49L3.17 48.46C7.49 50.69 13.54 54.07 16.42 56.16ZM10.51 88.27C14.69 81.58 19.51 72.94 23.26 65.45L18.29 61.06C14.18 69.19 8.64 78.34 4.75 83.81ZM68.26 52.56C65.45 46.80 59.33 38.30 53.64 31.97L47.95 34.85C50.69 38.02 53.64 41.90 56.16 45.65L32.40 47.09C37.22 40.75 41.90 32.98 45.86 25.06L38.95 23.04C35.06 32.18 29.02 41.54 27.07 44.06C25.13 46.58 23.69 48.17 22.10 48.53C22.90 50.40 23.98 53.57 24.34 54.86C26.78 53.93 30.46 53.64 59.90 51.55C60.84 53.21 61.56 54.65 62.14 55.94ZM56.38 66.24L56.38 79.99L33.12 79.99L33.12 66.24ZM26.64 89.21L33.12 89.21L33.12 86.18L56.38 86.18L56.38 88.99L63.14 88.99L63.14 60.05L26.64 60.05Z"/></svg>
