<svg xmlns="http://www.w3.org/2000/svg" xmlns:xlink="http://www.w3.org/1999/xlink" width="72.00000000000001" height="106.56000000000002"><path fill="red" stroke="red" d="M23.62 30.96C20.59 28.94 14.69 25.78 10.58 23.76L6.84 28.51C11.02 30.74 16.85 34.20 19.66 36.29ZM19.87 49.61C16.78 47.74 10.73 44.86 6.55 43.06L2.88 47.95C7.20 49.97 13.18 53.21 16.13 55.08ZM10.87 88.27C14.90 81.43 19.51 72.86 23.18 65.16L18.07 60.91C14.11 69.26 8.71 78.55 4.97 84.02ZM36.94 72.43L36.94 62.35L55.66 62.35L55.66 72.43ZM55.66 33.19L55.66 41.69L36.94 41.69L36.94 33.19ZM36.94 47.59L55.66 47.59L55.66 56.45L36.94 56.45ZM68.69 72.43L62.35 72.43L62.35 33.19L68.33 33.19L68.33 27.00L24.26 27.00L24.26 33.19L30.31 33.19L30.31 72.43L23.47 72.43L23.47 78.70L55.66 78.70L55.66 89.28L62.35 89.28L62.35 78.70L68.69 78.70Z"/></svg>
