<svg xmlns="http://www.w3.org/2000/svg" xmlns:xlink="http://www.w3.org/1999/xlink" width="72.00000000000001" height="106.56000000000002"><path fill="red" stroke="red" d="M67.82 30.89L50.11 30.89C49.39 28.58 47.95 25.27 46.87 22.68L40.46 24.41C41.26 26.35 42.19 28.80 42.77 30.89L24.70 30.89L24.70 37.08L67.82 37.08ZM22.75 30.89C19.94 28.94 14.47 25.92 10.58 24.05L6.91 29.02C10.87 31.10 16.34 34.34 18.94 36.43ZM18.22 49.61C15.48 47.74 9.94 44.93 6.19 43.13L2.59 48.24C6.48 50.18 11.95 53.35 14.47 55.22ZM10.66 87.98C14.33 81.14 18.29 72.65 21.38 65.09L16.06 60.77C12.53 68.90 7.92 78.05 4.68 83.52ZM44.06 53.86C42.62 52.13 39.82 49.75 37.22 47.66C38.30 45.22 39.31 42.62 40.10 39.89L34.13 38.59C31.82 46.73 27.65 54.36 22.18 59.18C23.47 60.12 25.99 62.14 26.93 63.14C29.74 60.48 32.26 57.02 34.49 53.14C36.79 55.08 39.02 57.31 40.25 58.90ZM68.98 66.74L48.96 66.74L48.96 60.91C50.98 58.61 52.99 55.94 54.72 52.99C58.03 55.87 61.34 59.18 63.14 61.49L67.46 57.02C65.30 54.29 61.20 50.62 57.53 47.66C58.54 45.29 59.47 42.70 60.26 40.18L54.29 38.66C52.20 46.22 48.24 53.21 43.34 57.60C44.28 58.25 45.79 59.40 46.94 60.41L42.19 60.41L42.19 66.74L22.82 66.74L22.82 72.94L42.19 72.94L42.19 89.14L48.96 89.14L48.96 72.94L68.98 72.94Z"/></svg>
