<svg xmlns="http://www.w3.org/2000/svg" xmlns:xlink="http://www.w3.org/1999/xlink" width="72.00000000000001" height="106.56000000000002"><path fill="red" stroke="red" d="M23.76 32.69C20.88 30.24 15.12 26.50 11.09 24.05L6.91 28.51C11.09 31.25 16.78 35.21 19.44 37.73ZM19.30 51.26C16.49 49.10 10.94 45.86 7.06 43.78L3.17 48.46C7.13 50.83 12.60 54.29 15.26 56.45ZM11.66 87.77C15.05 81.22 18.79 72.86 21.67 65.74L16.27 61.70C13.03 69.55 8.71 78.48 5.54 83.81ZM35.50 66.60C40.82 67.32 47.52 69.12 51.12 70.70L53.21 66.10C49.54 64.58 42.77 63.00 37.58 62.50ZM33.98 59.69L54.94 59.69L54.94 70.27C46.87 72.00 38.88 73.58 33.26 74.66C33.84 71.14 33.98 67.68 33.98 64.73ZM61.27 54.50L27.72 54.50L27.72 64.66C27.72 70.99 27.14 79.70 22.25 86.11C23.69 86.83 26.42 88.63 27.58 89.71C30.82 85.46 32.40 79.99 33.26 74.66L35.28 79.78C40.82 78.62 47.95 76.90 54.94 75.31L54.94 82.87C54.94 83.74 54.65 84.02 53.71 84.02C52.78 84.10 49.39 84.10 46.15 83.95C46.94 85.39 47.74 87.70 48.02 89.28C52.92 89.28 56.30 89.21 58.46 88.34C60.62 87.48 61.27 85.90 61.27 82.87ZM34.20 30.89L54.65 30.89L54.65 35.06L41.40 35.06L41.40 44.86L34.20 44.86ZM54.65 44.86L46.87 44.86L46.87 39.38L54.65 39.38ZM60.91 44.86L60.91 25.63L28.15 25.63L28.15 44.86L21.02 44.86L21.02 57.53L27.14 57.53L27.14 50.11L61.92 50.11L61.92 57.53L68.33 57.53L68.33 44.86Z"/></svg>
