<svg xmlns="http://www.w3.org/2000/svg" xmlns:xlink="http://www.w3.org/1999/xlink" width="72.00000000000001" height="106.56000000000002"><path fill="red" stroke="red" d="M17.57 50.54C15.05 48.24 9.94 45.14 5.90 43.20L2.81 48.24C6.84 50.33 11.95 53.71 14.33 56.23ZM9.65 88.13C13.32 81.29 17.14 72.72 20.09 65.59L15.55 60.77C12.17 68.83 7.63 77.90 4.46 83.38ZM6.12 29.16C10.01 31.39 14.76 34.85 16.99 37.30L20.45 31.97C18.07 29.59 13.25 26.42 9.43 24.34ZM33.98 42.62L38.30 41.40C37.94 39.46 36.86 36.50 35.71 34.27L50.83 34.27C50.04 36.79 48.74 40.25 47.66 42.62ZM48.38 74.52L38.16 74.52L38.16 68.76L48.38 68.76ZM66.82 28.73L47.23 28.73C46.80 26.71 45.79 24.34 44.71 22.46L38.74 24.12C39.38 25.56 39.96 27.14 40.46 28.73L21.17 28.73L21.17 34.27L34.06 34.27L29.66 35.42C30.74 37.58 31.68 40.54 32.11 42.62L22.46 42.62L22.46 89.14L28.66 89.14L28.66 48.10L40.61 48.10L40.61 53.78L31.32 53.78L31.32 58.54L40.61 58.54L40.61 64.15L33.41 64.15L33.41 81.72L38.16 81.72L38.16 79.06L53.28 79.06L53.28 64.15L45.94 64.15L45.94 58.54L55.01 58.54L55.01 53.78L45.94 53.78L45.94 48.10L58.03 48.10L58.03 82.15C58.03 83.02 57.74 83.23 56.81 83.30C55.94 83.30 52.99 83.38 50.18 83.23C50.98 84.74 51.84 87.34 52.13 88.99C56.66 88.99 59.62 88.92 61.70 87.91C63.72 86.98 64.44 85.25 64.44 82.22L64.44 42.62L53.71 42.62C54.86 40.46 56.02 37.66 57.24 35.14L53.64 34.27L66.82 34.27Z"/></svg>
