<svg xmlns="http://www.w3.org/2000/svg" xmlns:xlink="http://www.w3.org/1999/xlink" width="72.00000000000001" height="106.56000000000002"><path fill="red" stroke="red" d="M20.38 32.54C17.93 30.31 13.10 26.93 9.50 24.55L5.54 28.51C9.07 31.03 13.82 34.78 16.27 37.08ZM18.29 51.55C15.62 49.46 10.44 46.15 6.77 43.92L2.88 47.88C6.62 50.33 11.74 53.93 14.18 56.09ZM13.18 61.85C10.37 70.06 6.34 79.27 3.53 84.89L9.29 88.13C12.31 81.43 15.77 72.79 18.29 65.16ZM37.08 84.31C39.74 82.22 42.41 80.14 45.07 77.98L43.56 74.45C40.10 76.75 36.94 78.91 34.56 80.21ZM59.40 31.10L59.40 37.01L28.44 37.01L28.44 31.10ZM67.90 52.27L67.90 46.94L28.44 46.94L28.44 46.15L28.44 42.41L65.81 42.41L65.81 25.63L22.25 25.63L22.25 46.15C22.25 57.67 21.67 74.02 15.19 85.39C16.78 86.04 19.51 87.77 20.59 88.85C26.42 78.55 28.01 63.94 28.37 52.27L45.07 52.27L45.07 57.02L28.94 57.02L28.94 89.14L34.42 89.14L34.42 62.14L45.07 62.14L45.07 88.78L50.47 88.78L50.47 62.14L61.42 62.14L61.42 67.46L58.82 64.30C56.81 66.17 53.21 69.05 50.90 70.49L53.06 73.37C55.58 72.00 58.90 69.84 61.42 67.61L61.42 83.74C61.42 84.46 61.20 84.67 60.41 84.67C59.69 84.67 57.38 84.74 54.94 84.60C55.58 85.97 56.23 87.84 56.45 89.21C60.41 89.21 63.07 89.21 64.87 88.42C66.53 87.62 67.03 86.33 67.03 83.74L67.03 57.02L50.47 57.02L50.47 52.27ZM60.98 80.42C59.33 78.91 56.09 76.46 53.64 74.74L50.98 77.18C53.42 78.98 56.59 81.58 58.25 83.23ZM44.71 70.13C43.06 68.54 40.03 66.17 37.51 64.51L34.92 67.10C37.30 68.90 40.46 71.42 42.05 73.08Z"/></svg>
