<svg xmlns="http://www.w3.org/2000/svg" xmlns:xlink="http://www.w3.org/1999/xlink" width="72.00000000000001" height="106.56000000000002"><path fill="red" stroke="red" d="M21.53 31.90C19.22 29.52 14.47 26.28 10.73 24.19L7.20 29.02C10.94 31.32 15.62 34.85 17.86 37.30ZM17.86 50.33C15.48 48.10 10.66 45.07 6.84 43.20L3.60 48.17C7.42 50.33 12.10 53.64 14.40 56.02ZM17.35 60.26C13.75 68.54 8.86 77.76 5.47 83.30L10.66 88.49C14.54 81.29 18.65 72.65 21.82 65.38ZM33.26 58.18L55.15 58.18L55.15 65.30L33.26 65.30ZM54.22 47.88L54.22 45.36C57.60 49.90 61.56 53.28 66.24 56.23C67.03 54.29 68.98 52.13 70.56 50.76C66.74 48.60 63.43 46.15 60.48 42.91C63.14 41.33 66.31 39.31 69.34 37.30L64.94 32.90C63.14 34.78 60.12 37.22 57.53 39.17C56.74 37.87 55.87 36.50 55.08 34.99C57.67 33.34 60.70 31.03 63.43 28.94L59.26 24.62C57.67 26.35 55.22 28.58 52.99 30.38C52.06 28.22 51.19 25.85 50.40 23.26L44.64 24.48C46.73 31.82 49.18 37.44 51.98 42.05L37.51 42.05C40.25 37.73 42.41 32.83 43.85 27.29L39.74 25.70L38.74 25.92L23.98 25.92L23.98 31.61L36.07 31.61C35.06 34.13 33.84 36.58 32.33 38.81C30.46 37.08 27.79 34.99 25.56 33.48L21.74 37.58C24.05 39.38 26.93 41.76 28.73 43.63C25.78 46.87 22.46 49.61 19.01 51.34C20.45 52.49 22.10 54.58 23.04 56.02C24.55 55.15 25.92 54.14 27.36 53.14L27.36 70.70L51.91 70.70C50.83 74.02 48.96 78.70 47.30 81.86L35.42 81.86L40.18 80.42C39.74 77.83 38.30 73.87 36.58 70.92L30.53 72.58C32.04 75.38 33.26 79.20 33.70 81.86L21.24 81.86L21.24 87.55L68.40 87.55L68.40 81.86L54.00 81.86C55.51 79.06 57.10 75.67 58.68 72.50L52.70 70.70L61.34 70.70L61.34 52.78L27.86 52.78C30.60 50.54 33.12 48.02 35.35 45.00L35.35 47.88Z"/></svg>
