<svg xmlns="http://www.w3.org/2000/svg" xmlns:xlink="http://www.w3.org/1999/xlink" width="72.00000000000001" height="106.56000000000002"><path fill="red" stroke="red" d="M61.06 36.36C59.40 38.52 57.24 40.54 54.65 42.34C53.86 40.82 53.14 39.02 52.56 37.01L68.47 35.50L67.90 30.60L63.29 31.03L66.02 27.72C64.15 26.14 60.41 24.26 57.46 23.26L54.36 26.78C57.10 27.86 60.26 29.59 62.21 31.10L51.34 32.11C50.83 29.38 50.47 26.35 50.40 23.18L44.71 23.18C44.86 26.50 45.22 29.66 45.72 32.62L40.10 33.12L40.68 38.16L46.87 37.58C47.66 40.46 48.67 43.06 49.82 45.29C46.44 47.09 42.70 48.60 39.02 49.75C40.25 50.83 42.05 53.14 42.84 54.36C46.15 53.06 49.54 51.48 52.70 49.68C55.37 52.85 58.61 54.65 62.28 54.65C66.46 54.65 68.26 52.99 69.05 46.44C67.68 46.01 65.95 45.14 64.80 44.06C64.51 47.95 64.08 49.32 62.57 49.32C60.84 49.32 59.11 48.38 57.53 46.66C60.98 44.21 64.08 41.40 66.38 38.30ZM33.05 39.17L25.42 39.17L25.42 31.10L33.05 31.10ZM33.05 52.56L25.42 52.56L25.42 44.28L33.05 44.28ZM33.05 65.95L25.42 65.95L25.42 57.60L33.05 57.60ZM38.74 25.63L20.02 25.63L20.02 71.35L38.74 71.35ZM19.51 31.68C17.21 29.23 12.60 26.06 8.86 24.12L4.97 28.51C8.71 30.82 13.25 34.20 15.41 36.65ZM17.21 49.82C14.90 47.59 10.08 44.64 6.26 42.77L2.52 47.45C6.41 49.46 11.16 52.78 13.32 55.01ZM12.46 62.21C9.79 70.34 6.19 79.42 3.60 84.96L9.43 88.06C12.17 81.43 15.34 72.86 17.64 65.38ZM22.68 71.57C21.10 76.10 17.86 82.15 14.40 85.46C15.98 86.33 18.14 88.06 19.37 89.06C22.68 85.54 26.28 79.27 28.30 74.16ZM30.96 74.52C33.05 77.40 35.35 81.22 36.36 83.74L41.33 80.71C40.25 78.19 37.87 74.59 35.71 71.86ZM60.70 67.32C59.11 70.13 56.95 72.65 54.43 74.88C53.57 72.79 52.85 70.34 52.27 67.61L69.19 66.10L68.54 60.98L62.21 61.56L64.73 58.10C62.86 56.52 59.04 54.72 56.09 53.64L53.21 57.31C55.94 58.39 59.18 60.12 61.13 61.63L51.34 62.50C50.98 59.76 50.76 56.81 50.69 53.71L44.93 53.71C45.07 56.95 45.29 60.05 45.72 63.00L39.74 63.50L40.32 68.69L46.58 68.11C47.38 72.00 48.46 75.46 49.75 78.41C45.94 80.93 41.54 82.94 36.94 84.46C38.16 85.46 40.18 88.06 40.97 89.21C45.00 87.62 48.89 85.68 52.56 83.30C55.22 87.05 58.54 89.21 62.42 89.21C66.82 89.21 68.69 87.12 69.48 79.49C68.18 79.06 66.24 78.05 65.09 77.04C64.80 81.86 64.37 83.74 62.71 83.74C60.77 83.74 58.82 82.44 57.10 79.99C60.91 76.90 64.15 73.22 66.53 69.05Z"/></svg>
