<svg xmlns="http://www.w3.org/2000/svg" xmlns:xlink="http://www.w3.org/1999/xlink" width="72.00000000000001" height="106.56000000000002"><path fill="red" stroke="red" d="M11.88 54.94C11.16 50.18 9.43 41.76 7.70 35.28L2.52 36.58C4.25 43.13 5.83 51.62 6.41 56.66ZM24.84 51.70C27.07 47.88 29.95 41.98 32.47 37.08L26.50 34.56C25.27 38.74 22.97 44.57 21.02 48.60L21.02 47.81L21.02 24.05L14.33 24.05L14.33 47.74C14.33 60.34 13.10 73.73 2.59 83.59C4.18 84.67 6.48 87.19 7.63 88.70C13.46 83.23 16.85 76.82 18.72 69.84C22.03 74.02 25.85 79.06 27.79 82.22L32.76 77.04C30.82 74.74 23.62 66.10 20.16 62.42C20.74 58.32 20.95 54.07 21.02 49.82ZM44.42 35.71C45.72 32.11 46.87 28.30 47.81 24.41L40.90 23.11C38.74 33.12 34.85 42.84 29.52 48.89C31.18 49.82 34.06 51.84 35.35 52.92C37.73 49.97 39.96 46.22 41.83 41.98L60.77 41.98C59.76 68.54 58.68 79.20 56.45 81.50C55.58 82.51 54.86 82.73 53.42 82.73C51.70 82.73 47.74 82.73 43.34 82.37C44.50 84.24 45.43 87.12 45.50 88.99C49.54 89.21 53.71 89.28 56.16 88.92C58.90 88.63 60.62 87.91 62.35 85.61C65.30 82.01 66.31 70.85 67.46 39.02C67.54 38.16 67.54 35.71 67.54 35.71ZM53.50 65.52C50.83 61.63 45.07 55.58 40.68 51.34L35.78 55.01C40.25 59.47 45.79 65.81 48.24 69.77Z"/></svg>
