<svg xmlns="http://www.w3.org/2000/svg" xmlns:xlink="http://www.w3.org/1999/xlink" width="72.00000000000001" height="106.56000000000002"><path fill="red" stroke="red" d="M60.34 47.16C62.78 47.16 65.59 47.09 66.82 46.66C66.53 45.22 66.31 42.91 66.24 41.26C64.80 41.62 61.85 41.76 60.12 41.76L48.24 41.76C46.22 41.76 45.72 40.97 45.72 38.81L45.72 34.49L63.86 34.49L63.86 29.38L45.72 29.38L45.72 23.40L39.60 23.40L39.60 38.59C39.60 44.86 41.33 47.16 48.02 47.16ZM60.41 72.65C65.88 72.65 67.68 70.92 68.47 64.44C66.67 64.08 64.08 63.14 62.71 62.21C62.50 66.46 61.99 67.10 59.76 67.10L49.54 67.10C46.51 67.10 46.01 66.74 46.01 64.80L46.01 59.26L64.08 59.26L64.08 54.07L46.01 54.07L46.01 48.24L39.60 48.24L39.60 64.87C39.60 70.99 41.40 72.65 48.82 72.65ZM9.43 89.42C12.96 86.11 16.20 81.07 18.14 76.39L11.81 74.59C9.79 79.20 6.48 83.95 3.24 86.69ZM24.34 76.90C25.06 80.78 25.49 85.82 25.49 88.78L31.97 87.98C31.97 85.03 31.32 80.14 30.46 76.39ZM14.04 52.06C17.42 53.50 21.96 55.66 24.26 57.10L26.93 53.42C24.55 52.06 19.94 50.11 16.63 48.82ZM13.82 47.16L27.22 47.16L27.22 56.95C22.03 58.75 17.14 60.34 13.46 61.42C13.75 59.11 13.82 56.74 13.82 54.65ZM33.41 42.26L7.85 42.26L7.85 54.50C7.85 59.40 7.49 65.59 3.89 70.13C5.33 70.85 7.92 72.79 9.00 73.87C11.45 70.70 12.67 66.60 13.32 62.57L15.05 66.60L27.22 61.34L27.22 66.53C27.22 67.32 27.00 67.61 26.06 67.68C25.13 67.68 22.25 67.75 19.15 67.61C19.80 69.05 20.59 70.99 20.88 72.58C25.42 72.58 28.73 72.50 30.74 71.71C32.83 70.85 33.41 69.55 33.41 66.60ZM23.33 29.30C24.55 30.60 25.85 32.18 27.07 33.70L13.90 34.70C16.99 31.82 20.23 28.30 23.04 24.77L16.63 22.82C13.68 27.50 9.14 32.04 7.70 33.34C6.34 34.56 5.18 35.35 3.96 35.64C4.68 37.15 5.62 40.10 5.98 41.33C7.70 40.54 10.37 40.25 30.60 38.45C31.39 39.60 32.04 40.68 32.54 41.62L37.94 39.02C35.93 35.71 31.82 30.60 28.37 27.00ZM38.81 77.18C40.32 80.93 41.90 85.82 42.41 88.85L49.03 87.34C48.38 84.38 46.66 79.49 45.14 75.96ZM53.28 76.97C56.59 80.78 60.26 86.04 61.78 89.35L68.47 86.90C66.74 83.45 62.93 78.41 59.54 74.74Z"/></svg>
