<svg xmlns="http://www.w3.org/2000/svg" xmlns:xlink="http://www.w3.org/1999/xlink" width="72.00000000000001" height="106.56000000000002"><path fill="red" stroke="red" d="M59.40 31.97L59.40 42.70L46.44 42.70L46.44 31.97ZM60.77 67.97C66.67 67.97 68.47 65.52 69.26 57.10C67.39 56.81 64.87 55.80 63.50 54.65C63.22 60.84 62.71 62.06 60.26 62.06L50.04 62.06C47.02 62.06 46.44 61.63 46.44 58.90L46.44 48.60L65.52 48.60L65.52 26.06L40.25 26.06L40.25 58.90C40.25 66.17 42.26 67.97 49.25 67.97ZM21.96 31.68L21.96 37.80L15.62 37.80L15.62 55.66L21.96 55.66L21.96 62.71L12.31 62.71L12.31 31.68ZM29.02 50.98L20.52 50.98L20.52 42.48L29.02 42.48ZM7.78 68.54L38.16 68.54L38.16 62.71L27.79 62.71L27.79 55.66L34.13 55.66L34.13 37.80L27.79 37.80L27.79 31.68L37.37 31.68L37.37 25.92L6.19 25.92L6.19 68.11L7.78 68.11ZM9.79 89.28C13.32 85.25 15.98 79.06 17.78 73.87L11.74 71.42C10.15 76.32 7.20 82.15 3.74 85.82ZM23.62 73.51C25.13 78.41 26.28 84.74 26.42 88.70L33.05 87.26C32.90 83.38 31.46 77.11 29.81 72.29ZM37.51 73.87C40.25 78.48 42.98 84.67 43.92 88.63L50.40 86.54C49.32 82.51 46.44 76.54 43.56 72.07ZM52.27 73.80C56.16 78.48 60.62 84.89 62.42 89.06L68.90 85.97C66.89 81.72 62.28 75.53 58.25 70.92Z"/></svg>
