<svg xmlns="http://www.w3.org/2000/svg" xmlns:xlink="http://www.w3.org/1999/xlink" width="72.00000000000001" height="106.56000000000002"><path fill="red" stroke="red" d="M9.50 89.57C12.60 85.90 16.20 80.21 18.65 75.38L12.24 73.58C9.86 78.34 6.19 83.66 3.17 86.90ZM24.34 75.38C25.20 79.63 25.70 85.25 25.70 88.63L32.33 87.62C32.18 84.38 31.46 78.84 30.60 74.74ZM38.95 75.24C40.75 79.42 42.34 85.10 42.98 88.42L49.61 87.12C48.89 83.66 47.09 78.26 45.22 74.16ZM33.70 36.14L23.90 36.14L23.90 32.47L34.78 32.47L34.78 27.79L23.90 27.79L23.90 23.11L17.57 23.11L17.57 27.79L6.05 27.79L6.05 32.47L17.57 32.47L17.57 36.14L7.27 36.14L7.27 41.33L33.62 41.33ZM68.62 66.74C66.10 63.79 62.21 59.62 57.96 55.44C60.77 50.76 62.78 45.29 64.15 38.95L68.26 38.95L68.26 33.19L48.31 33.19C49.39 30.17 50.40 27.07 51.19 23.83L44.71 22.46C42.62 31.46 38.88 40.03 33.70 45.36C34.13 45.65 34.63 46.01 35.21 46.44L25.34 46.44L25.63 46.37C25.06 45.00 23.76 42.91 22.82 41.33L16.78 42.55C17.42 43.70 18.22 45.14 18.79 46.44L3.89 46.44L3.89 51.48L14.33 51.48C13.32 58.61 11.09 64.66 3.60 68.18C5.04 69.26 6.70 71.42 7.42 72.86C13.54 69.77 16.85 65.30 18.72 59.90L28.51 59.90C28.08 63.94 27.58 65.74 26.93 66.46C26.57 66.89 25.99 66.96 24.98 66.96C24.05 66.96 21.67 66.96 19.15 66.67C19.87 68.11 20.45 70.20 20.52 71.71C23.40 71.93 26.28 71.86 27.72 71.78C29.52 71.57 30.67 71.21 31.75 70.06C33.19 68.54 33.91 65.09 34.56 57.31C34.63 56.52 34.70 55.08 34.70 55.08L19.94 55.08C20.16 53.93 20.30 52.70 20.52 51.48L36.43 51.48L36.43 47.45C37.44 48.31 38.38 49.10 38.95 49.68C41.54 46.80 43.85 43.13 45.79 38.95L57.38 38.95C56.45 43.42 55.08 47.38 53.21 50.83C50.90 48.60 48.53 46.37 46.30 44.50L41.69 48.38C44.28 50.69 47.09 53.35 49.82 56.16C46.01 61.06 40.82 64.73 34.13 67.39C35.50 68.62 37.66 71.35 38.38 72.72C45.00 69.70 50.26 65.81 54.36 60.70C58.18 64.66 61.56 68.40 63.86 71.35ZM53.57 75.46C56.74 79.70 60.48 85.46 62.14 89.06L68.62 86.11C66.74 82.51 62.86 76.97 59.69 72.86Z"/></svg>
