<svg xmlns="http://www.w3.org/2000/svg" xmlns:xlink="http://www.w3.org/1999/xlink" width="72.00000000000001" height="106.56000000000002"><path fill="red" stroke="red" d="M10.22 55.94C9.86 50.98 8.71 42.34 7.42 35.50L2.59 36.36C3.74 43.13 4.75 52.06 5.04 57.17ZM33.70 62.42L39.60 62.42L39.60 68.18L33.70 68.18ZM50.83 62.42L50.83 68.18L44.78 68.18L44.78 62.42ZM32.26 31.03L38.59 31.03L38.59 37.73L32.26 37.73ZM42.84 31.03L49.46 31.03L49.46 37.73L42.84 37.73ZM53.78 31.03L60.55 31.03L60.55 37.73L53.78 37.73ZM37.15 48.10C38.23 46.37 39.17 44.71 40.03 42.91L65.66 42.91L65.66 25.92L27.29 25.92L27.29 36.86L21.89 34.99C21.02 39.31 19.44 45.58 17.93 49.68L17.93 48.53L17.93 23.90L12.17 23.90L12.17 48.53C12.17 61.20 11.23 74.52 2.88 84.89C4.18 85.90 6.34 87.98 7.20 89.50C11.95 83.74 14.54 77.33 16.13 70.63C18.22 73.94 20.52 77.83 21.74 80.21L26.06 75.74C24.77 73.80 19.37 65.88 17.28 63.29C17.71 59.04 17.86 54.86 17.93 50.62L21.53 52.06C23.33 48.38 25.34 42.12 27.29 37.08L27.29 42.91L33.26 42.91C30.53 48.17 26.42 52.99 22.03 56.30C23.40 57.24 25.63 59.47 26.57 60.55C27.22 59.98 28.01 59.33 28.73 58.61L28.73 72.36L39.60 72.36L39.60 77.83C34.06 78.19 29.02 78.48 25.20 78.70L26.06 84.31C33.19 83.45 42.55 82.51 51.98 81.29C52.34 82.22 52.63 83.02 52.85 83.66L57.10 81.79C56.23 79.27 54.36 75.46 52.34 72.65L48.38 74.38C48.96 75.24 49.46 76.25 50.04 77.18L44.78 77.54L44.78 72.36L56.02 72.36L56.02 58.25L44.78 58.25L44.78 55.08L39.60 55.08L39.60 58.25L29.16 58.25C30.67 56.81 32.04 55.15 33.48 53.42L60.77 53.42C60.19 74.74 59.62 82.22 58.39 83.95C57.89 84.82 57.38 85.03 56.52 85.03C55.44 85.03 53.50 84.96 51.26 84.82C52.06 86.04 52.56 87.98 52.63 89.28C55.30 89.42 57.74 89.42 59.47 89.14C61.20 88.92 62.57 88.42 63.72 86.62C65.45 84.02 66.17 76.25 66.74 50.83C66.82 50.04 66.82 48.10 66.82 48.10Z"/></svg>
