<svg xmlns="http://www.w3.org/2000/svg" xmlns:xlink="http://www.w3.org/1999/xlink" width="72.00000000000001" height="106.56000000000002"><path fill="red" stroke="red" d="M50.54 34.70L50.54 48.53L45.22 48.53L45.22 34.70ZM60.41 48.53L55.15 48.53L55.15 34.70L60.41 34.70ZM59.83 72.00C65.66 72.00 67.39 69.41 68.11 60.77C66.46 60.41 64.08 59.47 62.71 58.46C62.42 65.02 61.92 66.31 59.40 66.31L48.89 66.31C45.72 66.31 45.22 65.81 45.22 63.14L45.22 54.00L66.10 54.00L66.10 29.23L39.38 29.23L39.38 63.14C39.38 70.27 41.40 72.00 48.17 72.00ZM33.55 23.33C27.50 26.06 16.92 28.87 7.49 30.67L7.49 55.15C7.49 64.51 7.13 76.75 2.38 85.32C3.82 86.04 6.34 87.91 7.34 89.06C12.53 79.78 13.39 65.38 13.39 55.15L13.39 34.99C22.32 33.26 31.90 30.74 39.10 28.01ZM18.43 88.27L24.34 88.27L24.34 36.00L18.43 36.00ZM29.30 36.43C28.51 73.37 31.10 86.83 66.60 89.06C67.10 87.26 68.40 84.38 69.48 83.02C35.86 81.79 33.91 69.98 34.92 36.72Z"/></svg>
