<svg xmlns="http://www.w3.org/2000/svg" xmlns:xlink="http://www.w3.org/1999/xlink" width="72.00000000000001" height="106.56000000000002"><path fill="red" stroke="red" d="M67.68 37.87C66.02 34.34 62.21 29.02 58.75 25.20L53.42 27.79C56.74 31.68 60.48 37.22 62.06 40.75ZM68.90 50.47L68.90 43.85L50.62 43.85L50.62 43.42L50.62 23.18L44.21 23.18L44.21 43.34L44.21 43.85L29.38 43.85L29.38 50.47L43.99 50.47C43.20 62.06 39.96 74.38 27.00 83.81L27.00 23.18L20.74 23.18L20.74 43.34L12.10 43.34L12.10 26.28L6.05 26.28L6.05 49.32L8.78 49.32L8.78 49.39L20.74 49.39L20.74 58.46L3.31 58.46L3.31 64.51L8.35 64.51L8.35 66.24C8.35 70.99 7.63 79.06 2.66 84.46C4.10 85.18 6.55 86.69 7.70 87.62C13.39 81.50 14.40 72.07 14.40 66.31L14.40 64.51L20.74 64.51L20.74 89.14L27.00 89.14L27.00 84.67C28.37 85.97 30.10 87.91 30.89 89.35C41.11 82.15 46.08 73.30 48.53 64.08C50.98 73.30 55.66 82.94 64.87 88.78C66.02 86.98 67.97 84.67 69.84 83.45C56.66 75.60 53.21 60.55 52.13 50.47Z"/></svg>
