<svg xmlns="http://www.w3.org/2000/svg" xmlns:xlink="http://www.w3.org/1999/xlink" width="72.00000000000001" height="106.56000000000002"><path fill="red" stroke="red" d="M40.97 64.87C40.10 63.29 39.17 61.63 38.23 59.98C40.75 58.10 43.13 56.09 45.14 54.07C45.72 55.80 46.22 57.53 46.58 59.26C45.14 61.13 43.13 63.07 40.97 64.87ZM64.30 40.61C60.77 44.14 55.44 48.38 50.69 51.70C49.18 47.88 47.02 44.28 44.28 41.18C46.73 39.02 49.03 36.65 50.98 34.27L68.04 34.27L68.04 27.94L27.58 27.94L27.58 34.27L43.06 34.27C38.09 39.24 31.39 43.49 24.91 46.37C26.14 47.52 28.15 50.18 28.94 51.55C32.62 49.68 36.36 47.38 39.89 44.71C41.04 46.08 41.98 47.52 42.84 49.10C40.97 51.19 38.23 53.35 35.35 55.44C34.63 54.29 33.91 53.21 33.19 52.20L28.80 54.79C29.52 55.87 30.31 57.02 30.96 58.18C28.80 59.54 26.50 60.55 24.48 61.42C25.70 62.64 27.22 64.94 28.01 66.46C29.88 65.52 31.82 64.30 33.84 63.07C34.78 64.73 35.71 66.53 36.50 68.26C33.12 70.63 29.38 72.65 25.78 74.09L25.06 68.40C22.39 69.26 19.58 70.20 16.92 71.06L16.92 54.36L22.97 54.36L22.97 48.17L16.92 48.17L16.92 33.84L24.84 33.84L24.84 27.65L3.31 27.65L3.31 33.84L11.09 33.84L11.09 48.17L4.10 48.17L4.10 54.36L11.09 54.36L11.09 72.79C7.85 73.80 4.82 74.74 2.30 75.38L3.53 81.79C9.43 79.99 17.06 77.40 24.41 75.02C25.70 76.32 27.07 78.48 27.72 79.99C31.32 78.34 35.14 76.10 38.81 73.44C39.46 75.10 40.03 76.61 40.39 77.98L45.22 74.88C44.78 73.37 44.14 71.71 43.42 69.91C44.93 68.69 46.30 67.46 47.59 66.17C48.02 72.86 46.73 78.55 44.93 80.35C43.85 81.94 42.62 82.22 40.97 82.22C39.46 82.22 37.08 82.15 34.70 81.94C35.78 83.74 36.29 86.33 36.36 88.13C38.38 88.27 40.75 88.27 42.19 88.27C45.65 88.20 47.74 87.41 49.90 85.03C53.93 81.29 55.73 68.98 52.49 57.02C53.50 56.45 54.58 55.87 55.66 55.15C57.53 65.59 60.77 75.96 65.59 81.58C66.53 79.99 68.62 77.69 70.06 76.54C65.45 71.71 62.06 61.63 60.34 51.98C63.29 49.90 66.38 47.66 68.98 45.65Z"/></svg>
