<svg xmlns="http://www.w3.org/2000/svg" xmlns:xlink="http://www.w3.org/1999/xlink" width="72.00000000000001" height="106.56000000000002"><path fill="red" stroke="red" d="M34.34 45.50L22.75 46.37L22.75 41.33L33.19 41.33L33.19 36.22L22.75 36.22L22.75 31.54L34.06 31.54L34.06 26.28L5.26 26.28L5.26 31.54L16.42 31.54L16.42 36.22L6.77 36.22L6.77 41.33L16.42 41.33L16.42 46.87C11.66 47.16 7.27 47.45 3.74 47.66L4.10 53.28C12.17 52.70 23.54 51.84 34.34 50.90ZM32.76 60.26L32.76 67.10L17.35 67.10L17.35 60.26ZM55.37 67.10L39.31 67.10L39.31 60.26L55.37 60.26ZM26.86 82.22C18.79 82.22 17.35 81.43 17.35 77.98L17.35 72.36L62.14 72.36L62.14 55.15L10.58 55.15L10.58 78.05C10.58 86.54 14.18 88.56 27.07 88.56L53.71 88.56C64.22 88.56 66.74 86.18 68.04 76.97C66.02 76.61 63.07 75.60 61.42 74.52C60.70 81.00 59.62 82.22 53.42 82.22ZM55.37 46.51L55.37 41.33L66.02 41.33L66.02 36.22L55.37 36.22L55.37 31.54L67.39 31.54L67.39 26.28L37.22 26.28L37.22 31.54L48.82 31.54L48.82 36.22L38.45 36.22L38.45 41.33L48.82 41.33L48.82 46.51L36.29 46.51L36.29 51.84L68.40 51.84L68.40 46.51Z"/></svg>
