<svg xmlns="http://www.w3.org/2000/svg" xmlns:xlink="http://www.w3.org/1999/xlink" width="72.00000000000001" height="106.56000000000002"><path fill="red" stroke="red" d="M37.94 33.12C36.00 30.67 31.82 27.50 28.30 25.56L24.77 29.38C28.22 31.68 32.33 35.06 34.20 37.44ZM21.89 48.02C25.34 50.40 29.38 53.86 31.25 56.38L34.78 51.77C32.83 49.39 28.73 46.22 25.34 43.99ZM22.75 69.98C20.66 70.63 18.43 71.14 16.34 71.78L16.34 54.29L21.96 54.29L21.96 48.46L16.34 48.46L16.34 33.62L22.90 33.62L22.90 27.65L3.60 27.65L3.60 33.62L10.44 33.62L10.44 48.46L4.18 48.46L4.18 54.29L10.44 54.29L10.44 73.44C7.56 74.09 4.97 74.81 2.66 75.31L3.96 81.43C9.65 79.85 16.78 77.76 23.54 75.74ZM25.63 87.70C29.02 81.36 32.76 73.30 35.78 66.24L31.03 62.57C27.79 70.13 23.40 78.77 20.38 84.02ZM69.26 85.61C68.04 80.14 64.51 71.42 60.91 64.80L55.73 66.53C57.31 69.70 58.97 73.30 60.34 76.82L44.71 78.70C48.10 72.86 51.41 65.52 53.86 58.54L68.40 58.54L68.40 52.27L55.01 52.27L55.01 40.54L66.46 40.54L66.46 34.20L55.01 34.20L55.01 22.61L48.96 22.61L48.96 34.20L38.02 34.20L38.02 40.54L48.96 40.54L48.96 52.27L35.57 52.27L35.57 58.54L46.58 58.54C44.35 66.10 40.97 73.51 39.82 75.60C38.45 77.98 37.30 79.70 36.00 79.99C36.79 81.65 37.87 84.82 38.23 86.04C39.96 85.25 42.77 84.67 62.14 82.01C62.78 84.10 63.36 86.04 63.65 87.70Z"/></svg>
