<svg xmlns="http://www.w3.org/2000/svg" xmlns:xlink="http://www.w3.org/1999/xlink" width="72.00000000000001" height="106.56000000000002"><path fill="red" stroke="red" d="M39.17 73.51L39.17 69.19L54.36 69.19L54.36 73.51ZM17.71 73.51C17.78 72.07 17.86 70.56 17.86 69.19L32.90 69.19L32.90 73.51ZM32.90 59.98L32.90 64.30L17.86 64.30L17.86 59.98ZM54.36 59.98L54.36 64.30L39.17 64.30L39.17 59.98ZM60.77 54.72L11.52 54.72L11.52 69.12C11.52 74.30 11.09 80.42 6.70 84.96C8.06 85.75 10.58 88.13 11.52 89.50C14.47 86.54 16.13 82.58 16.92 78.62L32.90 78.62L32.90 88.42L39.17 88.42L39.17 78.62L54.36 78.62L54.36 82.58C54.36 83.52 54.00 83.88 52.92 83.88C52.06 83.88 48.53 83.95 45.00 83.81C45.86 85.25 46.73 87.55 47.09 89.14C52.27 89.14 55.73 89.06 57.89 88.13C60.12 87.34 60.77 85.75 60.77 82.66ZM16.70 38.16C14.54 41.83 11.02 46.01 7.06 48.53L11.88 52.34C15.98 49.25 19.37 44.64 21.74 40.68ZM22.90 38.30L22.90 44.86C22.90 50.26 24.70 51.77 32.33 51.77L44.86 51.77C50.18 51.77 51.98 50.18 52.63 44.06C50.98 43.78 48.60 42.98 47.38 42.19C47.09 46.08 46.58 46.73 44.14 46.73L32.90 46.73C29.52 46.73 28.94 46.44 28.94 44.86L28.94 38.30ZM49.18 39.89C53.06 43.34 57.82 48.24 60.05 51.34L65.23 48.46C62.78 45.36 57.89 40.68 54.07 37.44ZM40.82 28.22C39.96 26.42 38.66 24.26 37.51 22.68L30.82 23.83C31.61 25.20 32.54 26.71 33.26 28.22L5.69 28.22L5.69 39.53L12.10 39.53L12.10 33.70L33.05 33.70L29.45 37.15C33.62 39.02 38.74 42.12 41.69 44.28L45.36 40.32C42.55 38.38 37.44 35.57 33.26 33.70L59.40 33.70L59.40 39.53L66.10 39.53L66.10 28.22Z"/></svg>
