<svg xmlns="http://www.w3.org/2000/svg" xmlns:xlink="http://www.w3.org/1999/xlink" width="72.00000000000001" height="106.56000000000002"><path fill="red" stroke="red" d="M25.27 76.18C20.81 79.13 11.74 82.51 4.46 84.31C5.83 85.61 7.70 87.91 8.71 89.28C16.27 87.41 25.34 83.88 31.10 80.28ZM27.58 63.29L44.42 63.29L44.42 70.34L27.58 70.34ZM27.58 51.55L44.42 51.55L44.42 57.46L27.58 57.46ZM17.35 41.04L32.47 41.04L32.47 46.44L17.35 46.44ZM17.35 30.89L32.47 30.89L32.47 36.14L17.35 36.14ZM54.50 36.14L39.02 36.14L39.02 30.89L54.50 30.89ZM54.50 46.44L39.02 46.44L39.02 41.04L54.50 41.04ZM68.11 70.34L51.19 70.34L51.19 63.29L63.94 63.29L63.94 57.46L51.19 57.46L51.19 51.55L61.27 51.55L61.27 25.78L10.94 25.78L10.94 51.55L20.81 51.55L20.81 57.46L8.57 57.46L8.57 63.29L20.81 63.29L20.81 70.34L4.03 70.34L4.03 76.10L45.58 76.10L41.26 80.50C49.25 83.23 57.53 86.76 62.42 89.35L68.11 84.60C62.71 82.01 53.86 78.62 45.86 76.10L68.11 76.10Z"/></svg>
