<svg xmlns="http://www.w3.org/2000/svg" xmlns:xlink="http://www.w3.org/1999/xlink" width="72.00000000000001" height="106.56000000000002"><path fill="red" stroke="red" d="M44.14 35.06L30.67 35.06L30.67 39.31L65.02 39.31L65.02 35.06L50.33 35.06L50.33 31.82L67.61 31.82L67.61 27.58L50.33 27.58L50.33 23.11L44.14 23.11L44.14 27.58L27.86 27.58L27.86 31.82L44.14 31.82ZM65.09 53.35C66.24 50.76 67.68 46.58 68.62 42.98L64.66 41.90L63.65 42.12L26.93 42.12L26.93 46.22L62.06 46.22C61.56 48.31 60.91 50.33 60.34 51.84ZM28.80 55.94L28.80 59.54L64.08 59.54L64.08 55.94L49.39 55.94L49.39 52.63L60.19 52.63L60.19 48.96L32.54 48.96L32.54 52.63L43.70 52.63L43.70 55.94ZM13.25 34.42L13.25 48.67L9.79 48.67L9.79 34.42ZM20.81 48.67L17.28 48.67L17.28 34.42L20.81 34.42ZM17.28 68.98L17.28 54.14L20.81 54.14L20.81 68.98ZM9.79 54.14L13.25 54.14L13.25 68.98L9.79 68.98ZM25.49 28.80L5.26 28.80L5.26 81.14L9.79 81.14L9.79 74.52L25.49 74.52ZM38.52 73.22L38.52 78.98L33.19 78.98L33.19 73.22ZM43.49 68.90L28.30 68.90L28.30 86.69L33.19 86.69L33.19 83.30L43.49 83.30ZM46.01 77.54C47.95 79.56 49.97 82.44 50.83 84.38L55.01 81.72C54.07 79.92 51.91 77.18 50.04 75.24ZM69.05 66.46L69.05 62.28L26.64 62.28L26.64 66.46L57.17 66.46L57.17 70.63L45.07 70.63L45.07 75.10L57.17 75.10L57.17 83.74C57.17 84.38 56.95 84.60 56.30 84.60C55.58 84.60 53.57 84.60 51.19 84.53C51.84 85.90 52.56 87.84 52.85 89.21C56.45 89.21 58.90 89.21 60.62 88.42C62.42 87.70 62.71 86.33 62.71 83.81L62.71 75.10L68.54 75.10L68.54 70.63L62.71 70.63L62.71 66.46Z"/></svg>
