<svg xmlns="http://www.w3.org/2000/svg" xmlns:xlink="http://www.w3.org/1999/xlink" width="72.00000000000001" height="106.56000000000002"><path fill="red" stroke="red" d="M13.39 49.68C12.67 46.15 10.30 40.61 7.92 36.50L2.95 38.95C5.26 43.27 7.49 48.89 8.21 52.42ZM66.74 49.61L66.74 43.99L35.78 43.99C36.65 42.19 37.37 40.32 38.09 38.45L31.90 36.86C29.52 43.92 25.27 50.90 20.23 55.37C20.30 54.36 20.30 53.28 20.30 52.27L20.30 36.65L68.40 36.65L68.40 30.74L47.66 30.74C46.51 28.30 44.57 25.06 42.55 22.61L36.50 24.77C37.80 26.50 39.17 28.73 40.18 30.74L13.90 30.74L13.90 52.20C13.90 54.29 13.90 56.38 13.75 58.54C9.29 60.77 5.11 62.86 2.09 64.15L4.25 70.42C6.98 68.83 10.01 67.10 13.03 65.30C11.95 72.29 9.50 79.34 4.10 84.82C5.40 85.68 7.99 88.06 8.86 89.35C17.71 80.50 19.87 66.82 20.23 55.94C21.89 56.81 24.19 58.32 25.34 59.33C27.94 56.74 30.46 53.35 32.76 49.61ZM36.36 81.72C33.41 81.72 31.46 81.14 31.46 79.56C31.46 77.47 33.41 74.59 60.48 60.34C60.91 59.98 61.34 59.54 61.63 59.11L56.95 56.23L55.58 56.45L28.37 56.45L28.37 62.14L44.50 62.14C25.56 73.37 24.62 76.90 24.62 80.35C24.62 85.18 28.51 88.13 36.72 88.13L58.03 88.13C65.09 88.13 67.68 86.26 68.54 74.59C66.60 74.23 64.37 73.44 62.57 72.36C62.28 80.71 61.20 81.79 58.39 81.79Z"/></svg>
