<svg xmlns="http://www.w3.org/2000/svg" xmlns:xlink="http://www.w3.org/1999/xlink" width="72.00000000000001" height="106.56000000000002"><path fill="red" stroke="red" d="M12.38 50.04C11.88 46.44 10.01 40.68 7.85 36.29L2.95 38.23C4.97 42.77 6.70 48.67 7.13 52.42ZM19.37 35.42L68.04 35.42L68.04 29.66L46.30 29.66C45.36 27.43 43.56 24.62 41.83 22.54L36.07 24.91C37.08 26.35 38.23 28.01 39.10 29.66L13.18 29.66L13.18 52.49C13.18 54.43 13.18 56.38 13.03 58.46C8.93 60.55 5.11 62.50 2.23 63.79L4.32 69.77C6.98 68.18 9.72 66.60 12.46 64.87C11.52 71.93 9.29 79.13 4.32 84.82C5.54 85.61 7.99 87.91 8.93 89.21C17.86 79.34 19.37 63.65 19.37 52.49ZM54.65 62.71C52.85 67.03 50.04 70.70 46.73 73.73C43.42 70.70 40.75 67.03 38.81 62.71ZM31.03 56.16L31.03 48.17L42.19 48.17L42.19 57.24L31.03 57.24ZM58.68 57.02L57.46 57.24L48.24 57.24L48.24 48.17L59.11 48.17C58.39 50.47 57.53 52.78 56.95 54.50L62.42 55.44C63.94 52.42 65.59 47.52 66.96 43.20L62.35 42.34L61.27 42.48L48.24 42.48L48.24 37.15L42.19 37.15L42.19 42.48L25.06 42.48L25.06 56.09C25.06 64.87 24.19 76.90 16.85 85.54C18.22 86.11 20.81 88.06 21.82 89.14C28.01 81.86 30.17 71.57 30.82 62.71L32.69 62.71C34.99 68.54 38.09 73.44 42.05 77.40C37.58 80.35 32.47 82.37 26.86 83.66C28.08 85.03 29.52 87.55 30.17 89.14C36.36 87.48 41.98 85.03 46.87 81.50C51.84 85.03 57.82 87.55 65.02 89.14C65.81 87.41 67.54 84.96 68.83 83.66C62.14 82.44 56.45 80.42 51.70 77.47C56.66 72.58 60.41 66.38 62.57 58.46Z"/></svg>
