<svg xmlns="http://www.w3.org/2000/svg" xmlns:xlink="http://www.w3.org/1999/xlink" width="72.00000000000001" height="106.56000000000002"><path fill="red" stroke="red" d="M12.60 49.25C11.95 45.79 10.01 39.96 8.06 35.50L3.17 37.44C4.90 41.98 6.77 48.02 7.34 51.70ZM44.78 42.84C44.06 44.14 43.27 45.36 42.48 46.44L31.97 46.44C32.83 45.22 33.55 44.06 34.34 42.84ZM58.25 70.06L45.58 70.06C45.86 68.40 46.08 66.60 46.30 64.66L40.39 64.66C40.18 66.60 39.96 68.47 39.60 70.06L30.31 70.06L30.31 51.34L42.48 51.34C39.96 55.94 35.50 60.12 30.67 62.78C32.04 63.58 34.13 65.23 35.14 66.10C37.94 64.22 40.90 61.78 43.34 58.97C47.23 61.27 51.55 64.22 53.78 66.31L56.88 62.50C54.50 60.41 49.97 57.60 46.08 55.51C46.80 54.43 47.52 53.28 48.10 52.20L45.07 51.34L58.25 51.34ZM68.98 29.30L45.29 29.30C44.71 27.29 43.85 24.84 42.98 22.90L36.29 24.26C36.86 25.85 37.51 27.58 37.94 29.30L12.82 29.30L12.82 52.34C12.82 54.07 12.82 55.87 12.74 57.74C8.71 59.83 4.97 61.78 2.23 63.00L4.25 68.98C6.84 67.54 9.50 65.88 12.24 64.30C11.30 71.57 9.29 78.98 4.39 84.74C5.69 85.54 8.14 87.77 9.07 89.06C17.57 79.13 18.94 63.36 18.94 52.34L18.94 34.70L31.90 34.70C29.81 40.25 25.78 46.58 19.44 51.19C20.74 51.98 22.82 53.71 23.76 55.08L24.62 54.36L24.62 70.06L20.16 70.06L20.16 75.10L37.73 75.10C34.92 79.78 29.45 82.51 18.00 84.10C19.08 85.32 20.45 87.62 20.95 89.14C35.14 86.69 41.33 82.37 44.21 75.10L47.95 75.10L45.00 78.70C51.70 81.86 60.70 86.62 65.23 89.42L68.54 84.89C64.01 82.22 55.44 78.05 48.96 75.10L68.62 75.10L68.62 70.06L64.08 70.06L64.08 46.44L49.03 46.44C50.47 44.64 51.91 42.55 52.92 40.61L48.82 37.87L47.95 38.09L36.86 38.09C37.37 37.01 37.80 36.07 38.16 34.99L36.36 34.70L68.98 34.70Z"/></svg>
