<svg xmlns="http://www.w3.org/2000/svg" xmlns:xlink="http://www.w3.org/1999/xlink" width="72.00000000000001" height="106.56000000000002"><path fill="red" stroke="red" d="M19.66 34.70L68.47 34.70L68.47 29.09L45.36 29.09C44.71 27.14 43.70 24.70 42.77 22.68L36.07 24.05C36.65 25.56 37.37 27.36 37.94 29.09L13.61 29.09L13.61 45.72C12.10 42.62 9.72 38.45 7.78 35.28L2.59 37.37C4.90 41.40 7.78 46.73 8.93 49.97L13.61 47.81L13.61 51.19C13.61 53.28 13.61 55.37 13.46 57.60C9.29 59.83 5.40 62.06 2.52 63.36L4.68 69.41C7.34 67.82 10.08 66.10 12.82 64.37C11.81 71.86 9.22 79.56 3.46 85.46C4.90 86.18 7.42 88.06 8.42 89.21C18.22 78.98 19.66 62.86 19.66 51.19ZM49.90 57.46L49.90 61.85L65.59 61.85L65.59 39.74L50.04 39.74L50.04 44.14L60.12 44.14L60.12 48.24L50.83 48.24L50.83 52.63L60.12 52.63L60.12 57.46ZM35.50 37.87C32.26 38.59 26.86 39.89 23.11 40.25L23.11 61.92L38.52 61.92L38.52 57.53L28.44 57.53L28.44 52.70L37.30 52.70L37.30 48.31L28.44 48.31L28.44 43.34C31.75 43.06 35.64 42.48 38.74 41.62ZM55.66 70.85C52.70 73.94 48.74 76.32 43.99 78.26C39.10 76.32 34.92 73.87 31.97 70.85ZM61.42 65.52L60.26 65.74L47.30 65.74L47.30 36.65L41.26 36.65L41.26 65.74L22.90 65.74L22.90 70.85L28.30 70.85L25.63 71.93C28.51 75.46 32.18 78.41 36.58 80.78C30.89 82.37 24.62 83.23 18.29 83.81C19.37 85.25 20.52 87.70 21.02 89.28C29.09 88.34 37.08 86.69 44.06 84.17C50.54 86.62 58.03 88.13 66.02 88.99C66.82 87.34 68.33 84.89 69.62 83.52C63.22 83.09 57.10 82.15 51.70 80.71C57.53 77.47 62.21 73.22 65.38 67.68Z"/></svg>
