<svg xmlns="http://www.w3.org/2000/svg" xmlns:xlink="http://www.w3.org/1999/xlink" width="72.00000000000001" height="106.56000000000002"><path fill="red" stroke="red" d="M12.31 75.89L12.31 59.98L25.70 59.98L25.70 75.89ZM25.70 40.46L25.70 54.14L12.31 54.14L12.31 40.46ZM46.08 34.27C47.23 31.10 48.17 27.79 49.03 24.48L42.55 22.97C40.39 32.47 36.58 42.05 31.82 48.24L31.82 34.63L20.30 34.63C21.46 31.61 22.82 27.79 24.05 24.19L16.78 22.97C16.34 26.42 15.26 31.18 14.26 34.63L6.19 34.63L6.19 87.26L12.31 87.26L12.31 81.79L31.82 81.79L31.82 48.74C33.48 49.68 36.00 51.48 37.08 52.49C39.38 49.18 41.62 45.00 43.63 40.39L60.62 40.39C59.69 67.54 58.75 78.41 56.45 80.78C55.66 81.79 54.86 82.01 53.42 82.01C51.62 82.01 47.45 81.94 42.84 81.58C44.06 83.45 44.86 86.26 45.00 88.06C49.10 88.27 53.35 88.34 55.87 88.06C58.61 87.70 60.34 87.05 62.14 84.67C65.02 81.07 65.88 69.91 66.89 37.44C66.96 36.58 66.96 34.27 66.96 34.27ZM55.30 66.74C53.14 62.50 48.24 55.66 44.42 50.69L39.17 53.64C42.98 58.82 47.66 65.88 49.68 70.27Z"/></svg>
