<svg xmlns="http://www.w3.org/2000/svg" xmlns:xlink="http://www.w3.org/1999/xlink" width="72.00000000000001" height="106.56000000000002"><path fill="red" stroke="red" d="M39.17 72.72L39.17 65.23L32.47 65.23L32.47 72.72L17.78 72.72C21.82 69.91 25.42 66.60 28.37 62.71L43.92 62.71C46.73 66.46 50.33 69.84 54.43 72.72ZM17.78 42.62L53.86 42.62L53.86 47.23L17.78 47.23ZM17.78 33.48L53.86 33.48L53.86 37.94L17.78 37.94ZM67.90 62.71L67.90 57.02L32.11 57.02C33.05 55.44 33.84 53.93 34.42 52.20L60.55 52.20L60.55 28.51L37.08 28.51C38.02 27.00 39.02 25.34 39.96 23.62L31.90 22.97C31.46 24.55 30.74 26.64 30.02 28.51L11.30 28.51L11.30 52.20L27.22 52.20C26.50 53.93 25.56 55.51 24.55 57.02L3.96 57.02L3.96 62.71L19.80 62.71C15.19 67.32 9.36 70.78 2.66 73.22C3.89 74.52 5.98 77.33 6.77 78.84C10.01 77.47 13.03 75.89 15.84 74.09L15.84 78.48L32.47 78.48L32.47 89.14L39.17 89.14L39.17 78.48L56.38 78.48L56.38 74.09C59.26 75.82 62.28 77.33 65.30 78.48C66.24 76.82 68.33 74.30 69.70 73.08C63.00 71.06 56.30 67.25 51.70 62.71Z"/></svg>
