<svg xmlns="http://www.w3.org/2000/svg" xmlns:xlink="http://www.w3.org/1999/xlink" width="72.00000000000001" height="106.56000000000002"><path fill="red" stroke="red" d="M19.87 75.38L52.27 75.38L52.27 80.71L19.87 80.71ZM52.27 45.22L52.27 50.26L19.87 50.26L19.87 45.22ZM52.27 60.12L19.87 60.12L19.87 55.30L52.27 55.30ZM19.87 65.16L52.27 65.16L52.27 70.34L19.87 70.34ZM59.04 80.71L59.04 39.67L36.65 39.67C37.01 38.09 37.37 36.50 37.66 34.78L66.53 34.78L66.53 28.87L38.74 28.87L39.67 23.69L32.26 23.04C32.11 24.77 31.97 26.86 31.68 28.87L5.54 28.87L5.54 34.78L30.96 34.78C30.74 36.50 30.46 38.16 30.17 39.67L13.39 39.67L13.39 80.71L3.60 80.71L3.60 86.83L68.54 86.83L68.54 80.71Z"/></svg>
