<svg xmlns="http://www.w3.org/2000/svg" xmlns:xlink="http://www.w3.org/1999/xlink" width="72.00000000000001" height="106.56000000000002"><path fill="red" stroke="red" d="M50.69 47.81L50.69 54.36C50.69 59.62 51.84 61.78 57.31 61.78L64.30 61.78C65.88 61.78 67.82 61.70 68.83 61.34C68.54 59.98 68.40 57.96 68.33 56.38C67.25 56.66 65.30 56.74 64.08 56.74L58.18 56.74C56.88 56.74 56.66 56.16 56.66 54.43L56.66 47.81L68.62 47.81L68.62 41.98L50.54 41.98L50.54 35.21L65.45 35.21L65.45 29.52L50.54 29.52L50.54 23.18L43.92 23.18L43.92 29.52L30.02 29.52L30.02 35.21L43.92 35.21L43.92 41.98L27.29 41.98L27.29 47.81L36.58 47.81C35.71 53.42 33.48 57.10 26.21 59.26C27.50 60.26 29.02 62.64 29.66 64.01C38.81 61.06 41.76 55.80 42.77 47.81ZM19.58 32.76L19.58 41.62L11.38 41.62L11.38 32.76ZM11.38 47.30L19.58 47.30L19.58 56.30L11.38 56.30ZM11.38 71.21L11.38 61.92L19.58 61.92L19.58 71.21ZM25.70 77.11L25.70 26.86L5.33 26.86L5.33 83.23L11.38 83.23L11.38 77.11ZM50.54 81.79L50.54 73.01L65.81 73.01L65.81 67.25L50.54 67.25L50.54 59.18L43.92 59.18L43.92 67.25L29.45 67.25L29.45 73.01L43.92 73.01L43.92 81.79L23.62 81.79L23.62 87.70L69.12 87.70L69.12 81.79Z"/></svg>
