<svg xmlns="http://www.w3.org/2000/svg" xmlns:xlink="http://www.w3.org/1999/xlink" width="72.00000000000001" height="106.56000000000002"><path fill="red" stroke="red" d="M19.58 32.76L19.58 41.62L11.38 41.62L11.38 32.76ZM11.38 47.30L19.58 47.30L19.58 56.30L11.38 56.30ZM11.38 71.14L11.38 61.92L19.58 61.92L19.58 71.14ZM25.70 77.11L25.70 26.86L5.33 26.86L5.33 83.16L11.38 83.16L11.38 77.11ZM50.33 52.92L58.61 52.92L58.61 57.74L50.33 57.74ZM50.33 43.20L58.61 43.20L58.61 47.88L50.33 47.88ZM50.33 73.73L65.81 73.73L65.81 68.33L50.33 68.33L50.33 62.64L64.73 62.64L64.73 52.92L69.12 52.92L69.12 47.88L64.73 47.88L64.73 38.30L50.33 38.30L50.33 34.13L67.97 34.13L67.97 28.73L50.33 28.73L50.33 23.11L44.06 23.11L44.06 28.73L28.30 28.73L28.30 34.13L44.06 34.13L44.06 38.30L30.60 38.30L30.60 43.20L44.06 43.20L44.06 47.88L27.43 47.88L27.43 52.92L44.06 52.92L44.06 57.74L30.60 57.74L30.60 62.64L44.06 62.64L44.06 80.35C40.90 78.98 38.45 76.54 36.79 72.07C37.37 69.62 37.73 67.18 38.02 64.73L31.82 64.73C31.03 71.71 29.16 79.99 22.32 84.60C23.69 85.54 25.56 87.70 26.35 89.14C30.17 86.40 32.76 82.87 34.56 78.91C38.81 86.40 45.29 87.98 54.43 87.98L67.32 87.98C67.54 86.26 68.47 83.38 69.34 81.86C66.46 81.94 56.74 82.01 54.72 81.94C53.21 81.94 51.70 81.86 50.33 81.79Z"/></svg>
