<svg xmlns="http://www.w3.org/2000/svg" xmlns:xlink="http://www.w3.org/1999/xlink" width="72.00000000000001" height="106.56000000000002"><path fill="red" stroke="red" d="M63.00 49.18L61.70 49.61L47.95 49.61L49.18 48.31C47.45 47.16 45.29 45.94 42.84 44.64C49.32 40.54 56.16 35.14 61.27 30.31L56.38 26.35L54.79 26.71L10.80 26.71L10.80 32.90L48.24 32.90C44.71 35.93 40.46 39.17 36.58 41.54C32.26 39.46 27.50 37.58 23.47 36.22L18.86 40.82C25.06 43.13 32.33 46.44 37.94 49.61L4.18 49.61L4.18 55.94L29.88 55.94C23.11 64.08 12.53 71.35 2.52 75.17C4.03 76.54 6.05 79.06 7.13 80.71C16.70 76.39 26.78 68.90 34.06 60.26L34.06 81.50C34.06 82.66 33.62 83.02 32.33 83.02C30.89 83.09 25.78 83.09 21.02 82.87C21.96 84.67 23.11 87.41 23.47 89.21C29.88 89.21 34.27 89.21 37.15 88.20C40.10 87.26 40.97 85.46 40.97 81.72L40.97 55.94L57.53 55.94C54.65 60.55 51.05 65.09 47.88 68.26L53.35 71.50C58.54 66.53 63.94 58.82 68.26 51.41Z"/></svg>
