<svg xmlns="http://www.w3.org/2000/svg" xmlns:xlink="http://www.w3.org/1999/xlink" width="72.00000000000001" height="106.56000000000002"><path fill="red" stroke="red" d="M22.03 74.45L14.76 74.45L14.76 54.58L22.03 54.58ZM29.74 32.76L29.74 26.71L3.96 26.71L3.96 32.76L12.82 32.76C10.73 42.98 7.42 52.56 2.23 58.97C3.31 60.84 4.75 64.87 5.04 66.60C6.41 65.02 7.63 63.29 8.78 61.56L8.78 85.97L14.76 85.97L14.76 80.35L28.15 80.35L28.15 48.67L15.05 48.67C16.92 43.63 18.43 38.23 19.66 32.76ZM47.74 49.03L47.74 60.55L38.74 60.55L38.74 49.03ZM43.85 82.30C39.46 82.30 38.74 81.65 38.74 78.55L38.74 65.81L53.28 65.81L53.28 43.78L34.20 43.78C35.78 41.69 37.30 39.38 38.66 36.94L58.97 36.94C58.90 56.59 58.75 63.65 57.74 65.09C57.24 65.88 56.59 66.10 55.66 66.10C54.43 66.10 51.84 66.02 48.96 65.81C49.90 67.46 50.62 70.06 50.69 71.71C53.86 71.86 56.81 71.86 58.75 71.57C60.77 71.28 62.21 70.70 63.50 68.90C65.02 66.46 65.16 58.18 65.23 33.98L65.23 31.10L41.62 31.10C42.62 29.09 43.49 26.93 44.28 24.84L38.38 23.26C35.64 31.39 30.82 39.24 25.34 44.35C26.64 45.50 28.73 47.95 29.66 49.10C30.74 47.95 31.82 46.73 32.90 45.50L32.90 78.55C32.90 85.90 35.21 87.77 43.49 87.77L59.26 87.77C66.17 87.77 67.97 85.18 68.83 76.32C67.25 75.89 64.73 74.95 63.36 74.02C62.93 80.86 62.28 82.30 58.75 82.30Z"/></svg>
