<svg xmlns="http://www.w3.org/2000/svg" xmlns:xlink="http://www.w3.org/1999/xlink" width="72.00000000000001" height="106.56000000000002"><path fill="red" stroke="red" d="M23.69 72.36L15.34 72.36L15.34 52.70L23.69 52.70ZM29.74 78.26L29.74 46.73L15.48 46.73C16.63 42.19 17.57 37.37 18.36 32.40L31.32 32.40L31.32 26.35L3.53 26.35L3.53 32.40L11.81 32.40C10.15 44.50 7.20 55.73 1.87 63.07C3.17 64.51 5.18 67.68 5.90 69.12C7.20 67.39 8.35 65.45 9.43 63.43L9.43 83.88L15.34 83.88L15.34 78.26ZM40.10 53.78L59.04 53.78L59.04 59.90L40.10 59.90ZM40.10 42.55L59.04 42.55L59.04 48.60L40.10 48.60ZM40.10 31.46L59.04 31.46L59.04 37.30L40.10 37.30ZM58.90 82.44C57.60 82.44 57.46 82.22 57.46 80.42L57.46 65.52L65.59 65.52L65.59 25.78L33.91 25.78L33.91 65.52L39.67 65.52C38.74 75.31 36.07 81.07 23.83 84.31C25.13 85.46 26.78 87.91 27.36 89.42C41.33 85.18 44.78 77.76 45.94 65.52L51.26 65.52L51.26 80.50C51.26 86.47 52.42 88.27 57.89 88.27L63.43 88.27C67.90 88.27 69.48 85.97 70.06 76.75C68.33 76.25 65.74 75.24 64.51 74.16C64.37 81.50 64.08 82.44 62.71 82.44Z"/></svg>
