<svg xmlns="http://www.w3.org/2000/svg" xmlns:xlink="http://www.w3.org/1999/xlink" width="72.00000000000001" height="106.56000000000002"><path fill="red" stroke="red" d="M20.52 74.23L13.82 74.23L13.82 54.36L20.52 54.36ZM26.14 80.14L26.14 48.53L14.11 48.53C15.91 43.49 17.21 38.09 18.36 32.62L28.08 32.62L28.08 26.50L3.53 26.50L3.53 32.62L12.10 32.62C10.15 42.84 6.98 52.34 2.23 58.75C3.17 60.62 4.61 64.73 4.90 66.46C6.12 64.94 7.20 63.22 8.28 61.56L8.28 85.68L13.82 85.68L13.82 80.14ZM53.50 65.02L53.50 72.36L43.92 72.36L43.92 65.02ZM58.32 77.26L58.32 60.12L39.02 60.12L39.02 80.42L43.92 80.42L43.92 77.26ZM51.55 50.54L51.55 44.35L61.42 44.35L61.42 50.54ZM36.36 44.35L45.94 44.35L45.94 50.54L36.36 50.54ZM45.94 32.18L45.94 39.10L36.36 39.10L36.36 32.18ZM61.42 39.10L51.55 39.10L51.55 32.18L61.42 32.18ZM67.10 26.28L30.60 26.28L30.60 53.21C30.60 63.50 30.02 76.61 23.26 85.61C24.62 86.26 27.00 88.13 28.01 89.21C34.78 80.35 36.14 66.53 36.36 55.80L61.42 55.80L61.42 81.86C61.42 82.94 61.06 83.30 59.98 83.30C59.04 83.38 55.80 83.38 52.34 83.23C53.21 84.74 54.00 87.48 54.29 88.99C59.26 89.06 62.42 88.85 64.44 87.84C66.46 86.90 67.10 85.10 67.10 81.94Z"/></svg>
