<svg xmlns="http://www.w3.org/2000/svg" xmlns:xlink="http://www.w3.org/1999/xlink" width="72.00000000000001" height="106.56000000000002"><path fill="red" stroke="red" d="M23.83 72.65L15.05 72.65L15.05 53.57L23.83 53.57ZM29.88 78.62L29.88 47.66L15.55 47.66C16.85 42.84 17.86 37.73 18.72 32.47L31.32 32.47L31.32 26.35L3.53 26.35L3.53 32.47L12.17 32.47C10.44 44.57 7.49 55.87 2.09 63.22C3.31 64.58 5.33 67.75 5.98 69.19C7.13 67.61 8.21 65.95 9.22 64.15L9.22 84.38L15.05 84.38L15.05 78.62ZM41.83 75.02C38.45 78.91 32.40 82.44 26.64 84.67C28.01 85.75 30.38 88.20 31.32 89.42C37.30 86.62 43.92 82.08 48.10 77.18ZM41.11 64.15L59.18 64.15L59.18 69.55L41.11 69.55ZM41.11 53.78L59.18 53.78L59.18 59.11L41.11 59.11ZM41.11 43.49L59.18 43.49L59.18 48.74L41.11 48.74ZM65.59 74.95L65.59 38.09L52.06 38.09C52.56 36.29 53.14 34.20 53.71 32.18L68.04 32.18L68.04 26.06L32.83 26.06L32.83 32.18L46.51 32.18C46.22 34.13 45.86 36.22 45.50 38.09L34.92 38.09L34.92 74.95L57.67 74.95L52.85 77.90C57.02 81.22 62.14 86.04 64.44 89.21L69.77 85.75C67.25 82.58 62.14 78.05 57.89 74.95Z"/></svg>
