<svg xmlns="http://www.w3.org/2000/svg" xmlns:xlink="http://www.w3.org/1999/xlink" width="72.00000000000001" height="106.56000000000002"><path fill="red" stroke="red" d="M21.38 73.51L14.04 73.51L14.04 53.93L21.38 53.93ZM54.94 81.65L54.94 71.35L66.10 71.35L66.10 65.45L40.54 65.45C41.04 63.50 41.54 61.56 41.98 59.47L68.76 59.47L68.76 53.86L51.84 53.86L51.84 48.53L66.02 48.53L66.02 43.20L51.84 43.20L51.84 38.16L67.39 38.16L67.39 32.76L58.54 32.76C60.05 30.67 61.99 27.86 63.72 24.91L57.17 23.04C56.09 25.49 54.07 29.09 52.49 31.46L56.59 32.76L41.26 32.76L44.50 31.39C43.63 29.02 41.69 25.56 39.82 23.04L34.27 25.13C35.78 27.43 37.37 30.53 38.30 32.76L30.67 32.76L30.67 38.16L45.36 38.16L45.36 43.20L32.18 43.20L32.18 48.53L45.36 48.53L45.36 53.86L29.23 53.86L29.23 59.47L35.50 59.47C34.06 67.25 31.32 73.94 27.14 79.13L27.14 48.17L14.69 48.17C15.84 43.49 16.78 38.59 17.50 33.55L29.23 33.55L29.23 27.50L3.46 27.50L3.46 33.55L11.16 33.55C9.50 45.14 6.84 56.02 2.02 63.22C3.24 64.66 5.18 67.82 5.83 69.34C6.70 68.04 7.56 66.67 8.35 65.23L8.35 85.18L14.04 85.18L14.04 79.34L27.00 79.34C25.34 81.36 23.40 83.16 21.31 84.67C22.75 85.68 25.06 88.13 25.99 89.28C32.11 84.38 36.58 77.33 39.53 68.62L39.53 71.35L48.53 71.35L48.53 81.65L33.12 81.65L33.12 87.70L68.98 87.70L68.98 81.65Z"/></svg>
