<svg xmlns="http://www.w3.org/2000/svg" xmlns:xlink="http://www.w3.org/1999/xlink" width="72.00000000000001" height="106.56000000000002"><path fill="red" stroke="red" d="M30.53 34.99L29.38 35.28L21.24 35.28L24.84 32.83C23.47 30.10 20.66 25.99 17.86 23.04L12.82 26.14C15.12 28.80 17.50 32.47 18.94 35.28L5.04 35.28L5.04 41.33L25.56 41.33C20.45 50.04 11.74 58.10 3.24 62.57C4.18 63.94 5.47 67.39 5.90 69.26C9.79 67.03 13.75 64.08 17.50 60.62L17.50 89.14L24.12 89.14L24.12 59.76C26.93 63.00 30.10 66.82 31.82 69.12L36.07 63.58C34.42 61.78 28.22 55.44 25.06 52.63C28.80 47.95 32.04 42.91 34.27 37.51ZM63.29 26.42L62.21 26.71L39.74 26.71L39.74 89.14L46.08 89.14L46.08 32.98L59.33 32.98C57.17 38.59 54.00 46.01 51.26 51.55C58.39 57.53 60.62 62.71 60.62 66.96C60.62 69.41 60.05 71.21 58.46 72.00C57.53 72.50 56.23 72.72 54.94 72.79C53.28 72.86 51.05 72.79 48.60 72.58C49.75 74.45 50.54 77.47 50.62 79.27C53.06 79.49 55.87 79.49 57.96 79.20C59.90 78.98 61.70 78.41 63.00 77.54C65.81 75.74 67.03 72.22 67.03 67.54C67.03 62.71 65.38 57.10 58.10 50.54C61.49 44.14 65.23 36.43 68.11 29.74Z"/></svg>
