<svg xmlns="http://www.w3.org/2000/svg" xmlns:xlink="http://www.w3.org/1999/xlink" width="72.00000000000001" height="106.56000000000002"><path fill="red" stroke="red" d="M20.66 70.34C16.63 74.45 10.73 79.06 5.54 82.15C7.06 83.16 9.50 85.54 10.66 86.76C15.70 83.23 22.18 77.54 26.86 72.94ZM62.21 68.26L62.21 62.21L10.58 62.21L10.58 68.26L32.40 68.26L32.40 89.14L39.24 89.14L39.24 68.26ZM44.86 73.58C49.75 77.69 56.30 83.59 59.47 87.05L65.30 83.38C61.85 79.85 55.15 74.30 50.33 70.34ZM56.09 32.26C54.14 35.57 51.70 39.24 49.25 42.26C47.02 39.17 45.07 35.86 43.56 32.26ZM29.23 33.19C28.15 35.78 26.78 38.30 25.20 40.54C22.90 38.74 19.80 36.65 17.06 34.85C17.50 34.34 18.00 33.77 18.43 33.19ZM61.13 26.28L59.76 26.71L41.69 26.71L41.69 30.31L37.22 31.39C39.82 38.52 43.34 44.86 47.81 50.26L25.63 50.26C30.67 44.64 34.85 37.73 37.30 29.52L33.05 27.58L31.97 27.86L22.10 27.86C22.90 26.64 23.62 25.42 24.26 24.19L17.86 22.97C15.19 28.30 10.30 34.56 3.17 39.10C4.46 39.96 6.48 42.12 7.34 43.56C9.65 41.98 11.74 40.25 13.61 38.52C16.49 40.46 19.66 42.91 21.89 44.78C16.56 51.05 9.65 55.73 2.45 58.39C3.74 59.69 5.54 62.14 6.41 63.72C12.38 61.13 18.14 57.46 23.18 52.63L23.18 56.30L49.54 56.30L49.54 52.13C54.00 56.88 59.18 60.70 65.16 63.29C66.02 61.56 67.97 59.11 69.41 57.74C63.14 55.44 57.60 51.70 53.06 46.87C57.46 41.90 62.21 35.14 65.52 29.30ZM16.56 44.57C12.17 45.22 8.21 45.79 5.04 46.15L5.98 50.90C9.50 50.33 13.10 49.68 16.92 49.03Z"/></svg>
