<svg xmlns="http://www.w3.org/2000/svg" xmlns:xlink="http://www.w3.org/1999/xlink" width="72.00000000000001" height="106.56000000000002"><path fill="red" stroke="red" d="M53.28 82.58C51.55 79.63 48.17 74.88 45.22 71.35L56.09 71.35L56.09 82.51C56.09 83.30 55.80 83.59 54.79 83.59C54.29 83.66 52.78 83.74 50.98 83.66ZM43.63 71.35L39.96 72.94C40.82 73.94 41.76 75.24 42.70 76.46C38.88 76.90 35.14 77.26 31.61 77.54C32.40 75.67 33.34 73.51 34.27 71.35ZM62.78 66.02L36.50 66.02L38.02 62.28L57.74 62.28L57.74 45.58L51.62 45.58L51.62 57.53L25.49 57.53C29.02 56.38 32.90 54.94 36.58 53.21C40.10 54.72 43.27 56.16 45.58 57.53L49.10 54.07C47.09 52.99 44.57 51.84 41.76 50.62C44.21 49.25 46.44 47.66 48.31 46.01L44.06 44.42L53.35 44.42L53.35 39.67L40.03 39.67C39.38 37.87 38.16 35.50 37.01 33.70L31.03 35.42C31.75 36.72 32.40 38.16 33.05 39.67L18.79 39.67L18.79 44.42L43.78 44.42C41.98 46.01 39.53 47.45 36.94 48.74C33.55 47.52 29.95 46.37 26.78 45.65L23.26 48.74C25.78 49.32 28.58 50.18 31.32 51.19C28.08 52.42 24.77 53.42 21.53 54.29C22.46 55.01 24.12 56.59 24.91 57.53L20.23 57.53L20.23 45.58L14.18 45.58L14.18 62.28L31.61 62.28C31.18 63.50 30.67 64.73 30.17 66.02L15.70 66.02L15.70 63.36L9.14 63.36L9.14 66.02L5.76 66.02L5.76 71.35L9.14 71.35L9.14 88.99L15.70 88.99L15.70 71.35L27.94 71.35C26.86 73.73 25.78 76.18 24.84 78.19C22.82 78.41 21.02 78.55 19.37 78.70L20.81 83.74C27.65 83.02 36.72 81.94 45.65 80.71C46.66 82.37 47.59 83.81 48.24 84.96L48.31 84.96C48.96 86.26 49.61 87.70 49.90 88.92C54.58 88.92 57.74 88.92 59.98 87.98C62.14 87.12 62.78 85.54 62.78 82.58ZM36.00 22.90C29.45 29.30 16.78 34.78 3.67 38.30C4.90 39.46 6.70 41.90 7.49 43.20C18.22 40.10 28.87 35.78 36.72 30.24C44.64 35.35 56.45 40.25 66.24 42.98C66.60 41.47 67.61 38.81 68.54 37.30C59.33 35.35 47.88 31.32 40.82 27.00C41.33 26.57 41.76 26.14 42.19 25.70Z"/></svg>
