<svg xmlns="http://www.w3.org/2000/svg" xmlns:xlink="http://www.w3.org/1999/xlink" width="72.00000000000001" height="106.56000000000002"><path fill="red" stroke="red" d="M11.66 33.12L25.06 33.12C22.82 37.80 18.00 40.25 6.05 41.83C7.13 42.98 8.64 45.22 9.22 46.73C23.04 44.28 29.02 40.39 31.61 33.12L40.75 33.12L40.75 37.80C40.75 42.12 41.90 44.42 47.52 44.42L59.33 44.42C61.70 44.42 64.51 44.42 65.81 43.99C65.52 42.48 65.45 41.26 65.30 39.53C64.01 39.82 60.62 39.96 58.90 39.96L49.32 39.96C47.45 39.96 47.23 39.38 47.23 37.87L47.23 33.12L60.91 33.12L60.91 38.81L67.68 38.81L67.68 27.86L40.61 27.86C40.03 26.21 39.31 24.34 38.66 22.82L31.68 23.90C32.11 25.13 32.62 26.50 33.05 27.86L5.26 27.86L5.26 39.53L11.66 39.53ZM55.30 76.39L55.30 82.37L24.12 82.37L24.12 76.39ZM52.63 59.54L52.63 63.50L30.17 63.50C30.82 62.21 31.54 60.98 32.11 59.54ZM52.63 51.48L52.63 55.01L33.84 55.01C34.20 53.93 34.49 52.70 34.85 51.48ZM59.04 68.33L59.04 59.54L68.40 59.54L68.40 55.01L59.04 55.01L59.04 46.58L12.60 46.58L12.60 51.48L27.79 51.48C27.50 52.70 27.14 53.93 26.71 55.01L4.61 55.01L4.61 59.54L24.77 59.54C24.05 60.98 23.18 62.28 22.32 63.50L11.52 63.50L11.52 68.33L17.57 68.33C13.75 71.28 9.00 73.66 3.24 75.24C4.54 76.46 6.62 79.34 7.27 80.86C11.16 79.49 14.62 77.90 17.64 76.10L17.64 89.21L24.12 89.21L24.12 87.12L55.30 87.12L55.30 89.06L61.99 89.06L61.99 71.50L23.69 71.50C24.84 70.56 25.85 69.41 26.78 68.33Z"/></svg>
