<svg xmlns="http://www.w3.org/2000/svg" xmlns:xlink="http://www.w3.org/1999/xlink" width="72.00000000000001" height="106.56000000000002"><path fill="red" stroke="red" d="M35.71 34.49L35.71 28.58L18.65 28.58C19.30 27.22 19.94 25.99 20.38 24.62L13.90 22.68C11.59 28.80 7.42 34.78 2.95 38.66C4.32 40.03 6.55 43.06 7.42 44.42C10.22 41.76 12.96 38.30 15.34 34.49ZM16.49 38.23C19.01 40.75 22.03 44.21 23.40 46.44L28.22 42.34C26.86 40.18 23.62 36.86 21.10 34.56ZM39.38 53.86L62.28 53.86L62.28 47.52L10.30 47.52L10.30 53.86L32.33 53.86L32.33 64.08L3.74 64.08L3.74 70.49L32.33 70.49L32.33 89.28L39.38 89.28L39.38 70.49L68.26 70.49L68.26 64.08L39.38 64.08ZM47.74 28.58C48.17 27.22 48.60 25.85 49.03 24.41L42.26 22.75C40.54 29.52 37.30 36.07 33.19 40.25C34.63 41.33 37.37 43.92 38.38 45.14C40.90 42.34 43.27 38.59 45.22 34.49L51.26 34.49L47.09 37.87C49.68 40.39 52.78 43.78 54.22 46.01L58.97 41.98C57.53 39.82 54.50 36.72 51.91 34.49L68.33 34.49L68.33 28.58Z"/></svg>
