<svg xmlns="http://www.w3.org/2000/svg" xmlns:xlink="http://www.w3.org/1999/xlink" width="72.00000000000001" height="106.56000000000002"><path fill="red" stroke="red" d="M44.93 45.22L44.93 48.17L26.86 48.17L26.86 45.22ZM19.94 31.32L17.21 33.34C18.65 34.56 20.23 36.07 21.46 37.37L20.30 37.37L20.30 41.04L5.40 41.04L5.40 45.22L20.30 45.22L20.30 51.84L51.84 51.84L51.84 45.22L66.67 45.22L66.67 41.04L51.84 41.04L51.84 37.37L44.93 37.37L44.93 41.04L26.86 41.04L26.86 37.37L24.77 37.37L27.29 35.35C26.28 34.27 24.70 32.69 23.04 31.32L35.35 31.32L35.35 26.64L18.58 26.64C19.01 25.85 19.44 25.06 19.80 24.34L13.82 22.46C11.52 27.43 7.34 32.33 3.10 35.50C4.39 36.50 6.55 38.88 7.56 39.96C10.22 37.73 13.03 34.70 15.55 31.32ZM17.57 72.58L32.98 72.58L32.98 75.89L17.57 75.89ZM17.57 65.45L32.98 65.45L32.98 68.69L17.57 68.69ZM54.72 68.69L39.17 68.69L39.17 65.45L54.72 65.45ZM54.72 75.89L39.17 75.89L39.17 72.58L54.72 72.58ZM61.27 79.99L61.27 61.34L11.30 61.34L11.30 79.99L23.47 79.99C18.94 82.08 11.02 83.66 3.89 84.60C5.33 85.61 7.42 88.20 8.35 89.35C15.77 87.98 24.91 85.39 30.17 81.86L25.13 79.99L45.50 79.99L41.40 83.09C49.03 85.10 56.52 87.48 60.91 89.14L67.32 85.39C62.71 83.88 55.44 81.79 48.38 79.99ZM3.60 58.61L68.47 58.61L68.47 54.22L3.60 54.22ZM47.66 26.64C48.10 25.78 48.46 24.98 48.82 24.19L42.70 22.54C40.68 27.22 37.22 31.75 33.12 34.70C34.56 35.71 37.08 37.66 38.09 38.81C40.46 36.79 42.84 34.20 44.86 31.32L52.27 31.32L49.46 33.19C51.55 35.06 54.07 37.80 55.30 39.46L59.98 36.07C59.11 34.70 57.24 32.90 55.51 31.32L68.76 31.32L68.76 26.64Z"/></svg>
