<svg xmlns="http://www.w3.org/2000/svg" xmlns:xlink="http://www.w3.org/1999/xlink" width="72.00000000000001" height="106.56000000000002"><path fill="red" stroke="red" d="M20.23 32.76L18.07 35.28C20.74 37.01 24.48 39.46 26.42 40.97L29.30 37.01C27.72 35.78 25.06 34.20 22.68 32.76L35.64 32.76L35.64 27.72L17.93 27.72C18.58 26.57 19.15 25.42 19.73 24.26L13.82 22.46C11.52 27.79 7.42 32.90 3.02 36.36C4.46 37.37 6.62 39.67 7.56 40.82C10.08 38.59 12.53 35.86 14.69 32.76ZM7.06 47.16C11.09 48.74 16.27 51.34 18.79 53.35L21.74 48.38C19.15 46.58 13.90 44.14 9.94 42.77ZM18.65 61.06C15.98 59.26 10.51 57.10 6.55 55.80L3.60 60.48C7.70 61.92 13.03 64.44 15.70 66.31ZM19.15 65.88C14.76 72.50 9.36 79.92 5.54 84.24L10.37 88.49C14.47 83.09 19.30 76.03 23.26 69.98ZM59.18 53.42L59.18 56.02L48.10 56.02L48.10 53.42ZM48.10 61.85L48.10 59.33L59.18 59.33L59.18 61.85ZM31.82 61.85L31.82 59.33L42.05 59.33L42.05 61.85ZM42.05 53.42L42.05 56.02L31.82 56.02L31.82 53.42ZM68.47 27.79L47.09 27.79C47.59 26.57 48.10 25.42 48.53 24.26L42.91 22.61C41.26 27.50 38.45 32.54 35.35 35.93C36.72 36.86 39.02 38.59 40.10 39.53C41.62 37.66 43.27 35.28 44.64 32.69L50.69 32.69L49.10 35.35C50.83 36.00 52.78 36.94 54.65 37.80L52.27 40.46C53.78 41.04 55.58 41.83 57.17 42.62L48.10 42.62L48.10 39.17L42.05 39.17L42.05 42.62L22.90 42.62L22.90 46.80L42.05 46.80L42.05 49.25L25.92 49.25L25.92 70.63L31.82 70.63L31.82 65.16L42.05 65.16L42.05 69.70L48.10 69.70L48.10 65.16L59.18 65.16L59.18 66.31C59.18 67.03 58.90 67.25 58.18 67.25C57.46 67.32 55.15 67.32 52.85 67.18C53.35 68.04 53.93 69.12 54.43 70.20L52.20 70.20L52.20 73.08L21.89 73.08L21.89 77.62L31.68 77.62L29.38 79.85C32.83 81.86 37.22 84.89 39.46 86.83L43.42 82.66C41.62 81.22 38.59 79.34 35.78 77.62L52.20 77.62L52.20 83.45C52.20 84.31 51.91 84.53 50.98 84.53C50.11 84.60 46.87 84.67 43.63 84.53C44.35 85.90 45.29 87.84 45.65 89.42C50.40 89.42 53.57 89.42 55.73 88.63C57.96 87.84 58.54 86.62 58.54 83.66L58.54 77.62L68.33 77.62L68.33 73.08L58.54 73.08L58.54 70.92C60.34 70.92 61.63 70.70 62.78 70.34C64.51 69.77 65.02 68.98 65.02 66.46L65.02 49.25L48.10 49.25L48.10 46.80L67.68 46.80L67.68 42.62L61.42 42.62L62.86 40.90C61.92 40.39 60.62 39.82 59.26 39.17L60.98 35.86C59.47 34.85 56.74 33.70 54.22 32.69L68.47 32.69Z"/></svg>
