<svg xmlns="http://www.w3.org/2000/svg" xmlns:xlink="http://www.w3.org/1999/xlink" width="72.00000000000001" height="106.56000000000002"><path fill="red" stroke="red" d="M57.46 26.50C55.08 32.11 50.83 39.67 47.38 44.35L53.14 47.02C56.74 42.55 61.20 35.57 64.80 29.45ZM24.05 43.49C22.39 38.81 18.22 32.04 14.18 27.00L8.14 29.66C12.02 34.85 16.06 41.83 17.42 46.44ZM23.47 60.55C19.15 69.34 10.94 78.77 3.17 83.52C4.82 84.82 6.98 87.26 8.21 88.99C16.20 83.30 24.48 72.94 29.30 62.64ZM67.68 56.95L67.68 50.26L39.46 50.26L39.46 23.18L32.40 23.18L32.40 50.26L4.32 50.26L4.32 56.95L32.40 56.95L32.40 89.21L39.46 89.21L39.46 56.95ZM42.48 63.43C50.69 71.06 59.54 81.86 63.22 89.06L69.05 85.32C65.09 78.05 55.94 67.68 47.81 60.19Z"/></svg>
