<svg xmlns="http://www.w3.org/2000/svg" xmlns:xlink="http://www.w3.org/1999/xlink" width="72.00000000000001" height="106.56000000000002"><path fill="red" stroke="red" d="M44.86 47.88L31.61 47.88L31.61 53.93L44.86 53.93L44.86 61.85L28.73 61.85L28.73 68.18L68.54 68.18L68.54 61.85L51.77 61.85L51.77 53.93L65.66 53.93L65.66 47.88L51.77 47.88L51.77 40.75L67.75 40.75L67.75 34.56L58.90 34.56C60.41 31.75 62.06 28.15 63.65 24.84L56.59 23.11C55.73 26.50 53.93 31.25 52.49 34.56L41.04 34.56L45.29 33.19C44.57 30.60 42.62 26.35 40.68 23.26L34.56 25.06C36.22 28.01 37.87 31.90 38.59 34.56L30.24 34.56L30.24 40.75L44.86 40.75ZM24.12 26.86C23.26 31.75 21.38 38.74 19.80 42.98L23.90 44.21C25.70 40.18 27.86 33.55 29.66 28.15ZM12.02 43.06C11.59 38.81 10.01 32.26 8.06 27.36L3.53 28.44C5.33 33.41 6.84 40.03 7.13 44.28ZM28.51 69.48C27.72 67.39 23.83 58.54 22.75 56.66L19.37 59.04L19.37 52.92L28.08 52.92L28.08 46.66L19.37 46.66L19.37 23.11L13.32 23.11L13.32 46.66L3.38 46.66L3.38 52.92L13.32 52.92L13.32 58.03L8.86 56.59C7.92 62.50 5.26 69.91 2.59 73.80C3.67 75.82 5.04 78.98 5.69 81.14C9.36 76.25 11.95 66.74 13.32 58.90L13.32 89.14L19.37 89.14L19.37 59.47C20.66 62.78 23.04 70.56 23.98 74.16ZM29.95 89.21C32.98 84.96 35.28 78.26 36.43 72.50L30.74 71.42C29.52 76.97 27.14 83.38 24.26 87.05ZM38.81 73.08C39.82 78.12 40.46 84.60 40.46 88.49L46.08 87.77C46.01 84.02 45.22 77.62 44.14 72.65ZM48.31 72.79C49.82 77.76 51.34 84.24 51.70 88.13L57.31 86.98C56.88 83.09 55.30 76.82 53.57 72.00ZM57.96 72.43C60.55 77.76 62.93 84.67 63.72 88.92L69.62 86.90C68.83 82.73 66.10 75.89 63.43 70.85Z"/></svg>
