<svg xmlns="http://www.w3.org/2000/svg" xmlns:xlink="http://www.w3.org/1999/xlink" width="72.00000000000001" height="106.56000000000002"><path fill="red" stroke="red" d="M69.26 53.50C67.97 48.17 64.80 40.18 61.42 34.13L55.73 36.00C58.90 42.12 61.99 50.33 63.14 55.73ZM51.98 23.18L45.72 23.18L45.72 66.53L51.98 66.53ZM36.22 35.28C34.92 42.70 32.83 51.05 30.31 56.38C31.90 56.95 34.78 58.25 36.00 59.04C38.38 53.35 40.75 44.64 42.26 36.65ZM30.82 63.86C29.95 60.34 27.72 54.50 25.70 49.97L20.66 51.77C21.46 53.57 22.32 55.73 22.97 57.82L13.18 59.18C18.86 52.78 24.41 45.07 28.94 37.30L23.33 33.84C21.82 37.01 20.02 40.18 18.07 43.13L11.23 43.70C15.19 38.38 19.15 31.75 22.18 25.34L16.13 22.82C13.25 30.53 8.28 38.59 6.70 40.75C5.18 42.84 3.96 44.28 2.59 44.64C3.31 46.22 4.25 49.18 4.61 50.47C5.69 49.97 7.34 49.61 14.18 48.82C11.81 52.27 9.72 54.86 8.57 56.02C6.41 58.61 4.68 60.34 3.10 60.70C3.82 62.35 4.75 65.45 5.11 66.74C6.62 65.95 9.07 65.38 24.70 62.86C24.98 64.08 25.27 65.09 25.49 66.02ZM5.98 69.41C5.40 75.24 4.39 81.58 2.74 85.82C4.18 86.26 6.98 87.19 8.21 87.84C9.72 83.45 11.02 76.68 11.59 70.42ZM14.11 70.06C14.98 75.02 15.77 81.58 15.91 85.82L21.46 84.74C21.24 80.42 20.30 74.02 19.44 68.98ZM22.03 68.33C23.33 72.29 24.91 77.47 25.49 80.78L30.67 78.98C30.02 75.67 28.44 70.63 26.93 66.82ZM59.47 58.03C54.65 71.93 44.06 79.63 27.43 83.23C28.94 84.82 30.46 87.26 31.18 89.28C49.03 84.46 60.19 75.60 65.66 59.90Z"/></svg>
