<svg xmlns="http://www.w3.org/2000/svg" xmlns:xlink="http://www.w3.org/1999/xlink" width="72.00000000000001" height="106.56000000000002"><path fill="red" stroke="red" d="M37.80 27.50C36.43 35.14 33.19 44.86 27.94 50.62C29.38 51.55 31.61 53.28 32.76 54.43C38.45 47.95 42.12 37.51 44.28 28.73ZM31.03 65.02C30.46 61.20 28.58 54.79 26.71 49.97L21.74 51.12C22.46 53.28 23.26 55.73 23.83 58.03L12.60 59.62C18.36 53.14 23.98 45.14 28.51 37.22L23.26 33.98C21.67 37.15 19.73 40.39 17.86 43.34L10.66 43.92C14.33 38.66 18.00 31.97 20.81 25.56L15.05 23.26C12.46 30.89 7.78 38.95 6.41 41.04C4.97 43.13 3.82 44.57 2.52 44.93C3.24 46.44 4.10 49.25 4.39 50.47C5.47 49.97 7.06 49.54 14.33 48.74C11.74 52.34 9.58 55.08 8.42 56.30C6.19 58.90 4.54 60.62 2.95 60.91C3.67 62.57 4.61 65.52 4.90 66.74C6.48 65.95 8.86 65.38 25.06 62.86C25.34 64.22 25.56 65.45 25.70 66.53ZM6.84 69.41C5.90 75.17 4.25 81.58 2.30 85.90C3.74 86.26 6.19 86.98 7.34 87.55C9.07 83.30 10.87 76.61 12.02 70.49ZM14.62 70.06C15.41 74.81 16.06 80.86 16.20 84.96L21.46 83.74C21.17 79.70 20.45 73.66 19.58 68.90ZM22.46 68.62C23.69 72.36 25.20 77.11 25.78 80.35L30.67 78.55C30.10 75.53 28.51 70.78 27.14 67.18ZM46.22 25.70L46.22 31.75L53.93 31.75C55.87 39.17 58.90 46.66 62.42 52.20L34.70 52.20L34.70 58.39L41.47 58.39C40.39 70.42 37.15 79.06 29.16 84.17C30.46 85.25 32.69 87.77 33.55 89.06C42.34 82.66 46.22 72.72 47.74 58.39L57.60 58.39C56.95 74.16 56.02 80.21 54.86 81.72C54.22 82.58 53.57 82.73 52.49 82.73C51.41 82.73 48.89 82.66 46.15 82.37C47.16 84.10 47.74 86.69 47.88 88.49C50.90 88.63 53.86 88.63 55.73 88.34C57.60 88.13 58.97 87.55 60.26 85.82C62.28 83.30 63.07 75.67 64.01 55.01L64.01 54.58L64.08 54.65C65.38 53.35 68.04 51.41 69.62 50.47C65.02 45.00 60.84 35.21 58.82 25.70Z"/></svg>
