<svg xmlns="http://www.w3.org/2000/svg" xmlns:xlink="http://www.w3.org/1999/xlink" width="72.00000000000001" height="106.56000000000002"><path fill="red" stroke="red" d="M47.66 38.66C49.75 40.18 51.98 41.83 54.22 43.63C51.55 46.58 48.38 48.89 44.78 50.62C46.08 51.48 48.24 53.78 49.10 55.08C52.78 53.28 56.02 50.69 58.82 47.38C61.34 49.54 63.65 51.55 65.16 53.28L68.90 48.53C67.32 46.87 64.80 44.86 62.14 42.70C64.66 38.38 66.67 33.12 67.82 26.86L64.22 25.56L63.14 25.70L48.74 25.70L48.74 31.39L60.77 31.39C59.98 34.27 58.82 36.86 57.46 39.10C55.30 37.51 53.14 36.00 51.19 34.63ZM28.22 38.81C30.31 40.10 32.69 41.62 34.99 43.20C32.62 46.51 29.81 49.10 26.64 50.98C27.86 51.84 29.95 54.07 30.82 55.30C34.20 53.21 37.15 50.33 39.67 46.58C41.18 47.66 42.55 48.82 43.49 49.75L46.94 45.00C45.86 44.06 44.28 42.84 42.55 41.62C44.57 37.44 46.22 32.54 47.16 26.86L43.63 25.56L42.62 25.70L28.58 25.70L28.58 31.39L40.39 31.39C39.67 33.91 38.88 36.36 37.80 38.45C35.71 37.15 33.48 35.78 31.61 34.70ZM27.36 65.59C26.93 61.78 25.13 55.44 23.47 50.54L18.79 51.70C19.51 53.78 20.16 56.09 20.74 58.39L12.31 59.47C17.57 52.99 22.68 45.00 26.71 37.22L21.38 34.06C20.09 37.22 18.43 40.32 16.78 43.27L10.73 43.78C14.11 38.45 17.50 31.82 19.94 25.49L14.26 23.26C11.95 30.82 7.63 38.95 6.26 41.04C4.97 43.13 3.89 44.64 2.66 44.86C3.31 46.44 4.25 49.25 4.54 50.47C5.54 50.04 7.13 49.61 13.39 48.89C11.16 52.42 9.22 55.15 8.28 56.30C6.19 58.97 4.61 60.70 3.10 61.06C3.89 62.64 4.75 65.52 5.04 66.74C6.41 65.95 8.64 65.45 21.82 63.50C22.10 64.80 22.32 66.02 22.46 67.10ZM5.90 69.41C5.26 75.24 4.10 81.94 2.74 86.33C4.10 86.69 6.48 87.34 7.63 87.91C8.86 83.45 10.22 76.54 11.02 70.42ZM12.74 70.20C13.54 75.17 14.26 81.79 14.33 86.11L19.22 85.25C19.08 80.86 18.29 74.45 17.42 69.41ZM19.30 68.83C20.59 72.65 22.03 77.69 22.61 81.00L27.07 79.42C26.57 76.18 24.98 71.35 23.62 67.54ZM46.80 78.34C45.65 76.97 43.85 75.38 41.98 73.80C44.06 69.34 45.72 64.08 46.66 57.96L43.13 56.74L42.05 56.88L28.44 56.88L28.44 62.57L39.82 62.57C39.17 65.30 38.30 67.82 37.22 70.20C35.14 68.62 32.98 67.18 31.10 65.88L27.43 69.77C29.66 71.35 32.18 73.15 34.49 75.02C31.68 79.27 28.08 82.44 23.90 84.74C25.20 85.61 27.36 87.91 28.30 89.14C32.47 86.76 36.07 83.38 39.10 78.84C40.61 80.28 41.98 81.65 42.98 82.73ZM61.06 62.57C60.12 66.24 58.75 69.41 57.17 72.22C55.44 69.26 54.07 66.02 53.21 62.57ZM64.30 56.74L63.29 56.88L47.95 56.88L47.95 62.57L52.85 62.57L48.17 63.58C49.46 68.54 51.19 73.15 53.57 77.11C50.54 80.42 47.02 82.94 42.98 84.74C44.28 85.61 46.51 87.91 47.30 89.21C50.90 87.48 54.22 85.18 57.10 82.08C59.62 85.18 62.57 87.55 66.02 89.21C66.89 87.55 68.69 85.25 70.06 84.02C66.46 82.51 63.36 80.28 60.77 77.40C64.15 72.29 66.60 65.95 67.97 57.96Z"/></svg>
