<svg xmlns="http://www.w3.org/2000/svg" xmlns:xlink="http://www.w3.org/1999/xlink" width="72.00000000000001" height="106.56000000000002"><path fill="red" stroke="red" d="M66.96 48.53C66.53 46.15 65.38 42.19 64.30 39.24L60.62 40.18C60.98 41.18 61.34 42.19 61.63 43.27L56.52 43.85C59.62 40.54 62.71 36.29 65.38 31.97L61.34 30.17C60.62 31.54 59.76 32.98 58.97 34.34L54.94 34.70C56.88 31.97 58.75 28.44 60.19 24.98L55.87 23.26C54.65 27.58 51.91 32.11 51.19 33.26C50.47 34.42 49.68 35.14 48.82 35.35C49.39 36.43 50.11 38.66 50.33 39.60C51.05 39.24 52.13 38.88 56.23 38.23C54.79 40.18 53.64 41.69 52.99 42.26C51.70 43.70 50.69 44.64 49.61 44.86C50.11 45.86 50.76 48.02 51.05 48.89C51.91 48.46 53.57 47.95 62.50 46.66C62.78 47.81 63.00 48.82 63.07 49.68ZM49.68 48.60C49.39 46.37 48.46 42.62 47.52 39.74L44.14 40.68C44.42 41.47 44.64 42.26 44.86 43.13L40.68 43.63C43.63 40.39 46.44 36.29 48.89 32.18L44.86 30.38C44.28 31.61 43.56 32.90 42.84 34.20L39.82 34.56C41.54 31.82 43.42 28.51 44.78 25.20L40.46 23.40C39.24 27.58 36.65 31.97 35.93 33.05C35.21 34.20 34.49 34.85 33.70 35.06C34.20 36.22 34.85 38.38 35.14 39.38C35.78 39.02 36.79 38.74 40.18 38.16C38.81 40.10 37.66 41.54 37.08 42.12C35.86 43.49 34.85 44.42 33.84 44.57C34.42 45.58 34.99 47.74 35.21 48.67C36.14 48.17 37.80 47.81 45.65 46.58C45.86 47.81 46.01 48.89 46.15 49.82ZM25.49 66.02C25.06 62.21 23.40 55.80 21.74 50.83L17.42 51.84C18.14 54.00 18.72 56.52 19.30 58.90L11.66 59.83C16.78 52.99 21.74 44.57 25.49 36.36L20.38 33.48C19.01 36.86 17.35 40.39 15.70 43.56L10.30 44.06C13.61 38.45 16.78 31.61 19.22 25.06L13.75 22.90C11.59 30.67 7.49 39.02 6.26 41.18C4.97 43.34 3.96 44.86 2.74 45.14C3.38 46.58 4.25 49.32 4.54 50.47C5.47 49.97 6.98 49.61 12.74 48.96C10.73 52.49 8.93 55.22 8.06 56.45C6.12 59.18 4.68 61.06 3.24 61.42C3.89 62.86 4.75 65.59 5.04 66.74C6.34 66.10 8.35 65.52 20.38 63.79C20.59 65.16 20.74 66.38 20.88 67.46ZM5.90 69.41C5.26 75.67 4.32 82.37 2.66 86.90C3.96 87.19 6.26 87.98 7.34 88.56C8.86 83.95 10.08 76.82 10.80 70.20ZM12.53 70.06C13.32 75.46 14.04 82.44 14.11 87.05L18.58 86.26C18.43 81.65 17.64 74.74 16.78 69.41ZM18.58 68.83C20.02 73.30 21.38 79.20 22.03 83.02L26.14 81.79C25.56 77.98 23.98 72.22 22.46 67.75ZM32.90 81.65L32.90 55.44L40.39 55.44C39.17 59.26 36.72 63.07 36.07 64.08C35.35 64.94 34.63 65.59 33.84 65.74C34.42 66.89 34.99 68.98 35.28 69.91C35.93 69.55 37.08 69.19 41.04 68.54C39.38 70.85 37.94 72.58 37.37 73.30C36.07 74.66 35.06 75.60 34.06 75.74C34.56 76.82 35.21 78.91 35.42 79.78C36.29 79.34 37.94 78.98 45.79 77.76C46.08 78.98 46.22 80.06 46.37 81.00L49.82 79.78C49.61 77.54 48.60 73.80 47.66 70.92L44.35 71.86C44.57 72.58 44.78 73.44 45.00 74.30L40.90 74.81C43.85 71.57 46.80 67.46 49.32 63.29L45.22 61.42C44.71 62.50 44.21 63.58 43.56 64.66L39.96 65.02C41.62 62.71 43.27 59.98 44.50 57.10L40.54 55.44L55.87 55.44C54.72 59.33 52.34 63.14 51.62 64.15C51.05 65.16 50.26 65.81 49.46 66.02C49.97 67.10 50.69 69.19 50.90 70.13C51.62 69.77 52.78 69.41 57.24 68.69C55.58 70.99 54.22 72.72 53.50 73.44C52.20 74.88 51.19 75.82 50.11 76.03C50.62 77.04 51.26 79.20 51.48 80.06C52.42 79.63 54.14 79.13 63.07 77.83C63.29 78.84 63.50 79.78 63.58 80.57L67.46 79.42C67.03 77.04 65.88 73.08 64.80 70.13L61.13 71.06C61.56 72.14 61.85 73.22 62.21 74.45L57.02 75.10C60.12 71.71 63.22 67.39 65.81 63.07L61.85 61.20C61.20 62.42 60.55 63.65 59.83 64.80L55.51 65.23C57.24 62.86 58.90 59.83 60.19 56.88L56.88 55.44L67.46 55.44L67.46 50.47L32.90 50.47L32.90 25.56L27.22 25.56L27.22 86.90L69.19 86.90L69.19 81.65Z"/></svg>
