<svg xmlns="http://www.w3.org/2000/svg" xmlns:xlink="http://www.w3.org/1999/xlink" width="72.00000000000001" height="106.56000000000002"><path fill="red" stroke="red" d="M22.10 80.21C19.08 82.37 13.61 84.17 8.64 85.54C9.94 86.40 11.95 88.13 13.03 89.14C17.78 87.48 23.83 84.74 27.36 81.94ZM44.35 82.73C49.18 84.31 55.58 87.12 59.04 88.99L63.07 85.75C59.47 83.95 53.21 81.36 48.31 79.78ZM18.86 50.47L54.43 50.47L54.43 52.99L18.86 52.99ZM18.86 45.00L54.43 45.00L54.43 47.59L18.86 47.59ZM18.86 39.74L54.43 39.74L54.43 42.19L18.86 42.19ZM53.50 31.18L50.54 32.11C51.77 33.34 52.99 34.99 53.71 36.36L41.26 36.36C42.84 34.92 44.50 33.19 45.94 31.18ZM68.18 63.07L68.18 58.75L31.25 58.75C31.97 57.96 32.47 57.24 33.12 56.38L61.06 56.38L61.06 36.36L55.51 36.36L60.12 34.78C59.54 33.77 58.46 32.33 57.31 31.18L68.26 31.18L68.26 26.86L48.82 26.86C49.25 25.99 49.68 25.06 50.04 24.19L43.70 22.68C42.05 26.71 39.02 30.60 35.42 33.26C37.01 33.91 39.46 35.35 40.90 36.36L23.54 36.36L28.08 34.92C27.65 33.98 26.78 32.62 25.85 31.46L36.14 31.46L36.14 27.14L18.00 27.14C18.50 26.21 19.01 25.27 19.44 24.34L13.25 22.68C11.09 27.79 7.27 32.90 3.17 36.22C4.68 37.08 7.27 38.81 8.57 39.89C10.87 37.66 13.32 34.70 15.48 31.46L22.25 31.46L19.15 32.40C20.02 33.55 20.95 35.14 21.53 36.36L12.53 36.36L12.53 56.38L26.14 56.38C25.42 57.17 24.70 57.96 23.83 58.75L4.10 58.75L4.10 63.07L18.36 63.07C14.33 65.74 9.22 68.11 3.10 70.06C4.25 71.06 5.83 73.08 6.55 74.45C15.19 71.35 21.89 67.54 27.00 63.07L33.19 63.07C29.38 65.45 24.77 67.39 23.33 67.90C21.74 68.40 20.52 68.69 19.22 68.83C19.73 69.98 20.38 72.14 20.52 73.15C21.31 72.86 22.54 72.72 28.22 72.50C25.13 73.66 22.68 74.52 21.38 74.88C18.36 75.82 15.91 76.46 14.04 76.61C14.40 77.83 15.05 80.06 15.19 80.93C16.78 80.42 18.94 80.14 34.13 79.27L34.13 83.59C34.13 84.24 33.91 84.46 33.12 84.53C32.33 84.53 29.95 84.53 27.07 84.46C27.79 85.75 28.66 87.55 29.09 89.06C33.05 89.06 35.86 89.06 37.87 88.34C39.82 87.55 40.32 86.47 40.32 83.74L40.32 78.91L54.50 78.12C55.66 79.13 56.66 80.06 57.46 80.93L61.92 78.48C59.47 75.96 54.50 72.14 50.40 69.77L46.08 71.86C47.45 72.72 48.89 73.73 50.26 74.74L29.52 75.74C35.71 73.80 41.69 71.42 47.30 68.69L44.86 65.09C41.90 66.74 38.66 68.18 35.50 69.62L27.58 69.77C31.10 68.54 34.63 67.10 37.80 65.23L35.57 63.07L45.65 63.07C50.83 67.90 58.75 72.00 65.95 74.16C66.74 72.72 68.40 70.63 69.70 69.55C64.01 68.26 57.96 65.88 53.28 63.07Z"/></svg>
