<svg xmlns="http://www.w3.org/2000/svg" xmlns:xlink="http://www.w3.org/1999/xlink" width="72.00000000000001" height="106.56000000000002"><path fill="red" stroke="red" d="M44.35 34.34L29.45 34.34L29.45 38.66L65.23 38.66L65.23 34.34L50.90 34.34L50.90 31.18L67.75 31.18L67.75 26.64L50.90 26.64L50.90 23.11L44.35 23.11L44.35 26.64L26.64 26.64L26.64 31.18L44.35 31.18ZM32.54 45.43L39.31 45.43L39.31 50.62L32.54 50.62ZM61.63 50.62L55.80 50.62L55.80 45.43L61.63 45.43ZM44.42 50.62L44.42 45.43L50.69 45.43L50.69 50.62ZM27.00 54.94L67.46 54.94L67.46 41.11L27.00 41.11ZM27.72 65.81C27.14 62.06 25.42 55.73 23.76 50.76L19.15 51.98C19.80 53.93 20.45 56.16 21.02 58.32L12.24 59.47C17.57 52.78 22.75 44.64 26.78 36.58L21.60 33.55C20.16 36.79 18.43 40.18 16.78 43.27L10.73 43.78C14.26 38.38 17.71 31.75 20.30 25.27L14.69 22.97C12.24 30.74 7.85 38.95 6.41 41.04C5.04 43.27 3.96 44.71 2.66 45.00C3.31 46.51 4.25 49.25 4.54 50.47C5.54 50.04 7.13 49.61 13.32 48.89C11.16 52.42 9.22 55.15 8.28 56.30C6.19 59.04 4.68 60.77 3.17 61.20C3.89 62.71 4.75 65.52 5.04 66.74C6.48 65.95 8.64 65.45 22.10 63.43C22.39 64.94 22.68 66.24 22.82 67.39ZM5.90 69.41C5.26 75.67 4.25 82.44 2.59 87.05C3.96 87.41 6.48 88.13 7.63 88.78C9.14 84.17 10.44 77.04 11.16 70.34ZM12.96 70.06C13.75 75.31 14.40 82.15 14.47 86.69L19.44 85.75C19.22 81.22 18.50 74.52 17.57 69.26ZM19.51 68.69C20.95 72.94 22.39 78.48 23.04 82.01L27.58 80.57C26.93 77.04 25.20 71.57 23.83 67.46ZM35.35 72.29L58.90 72.29L58.90 75.17L35.35 75.17ZM35.35 66.82L58.90 66.82L58.90 69.48L35.35 69.48ZM35.35 61.42L58.90 61.42L58.90 64.01L35.35 64.01ZM65.09 78.84L65.09 57.67L29.38 57.67L29.38 78.84L39.89 78.84C35.86 80.86 29.59 83.45 25.27 84.89C26.21 86.26 27.29 88.27 27.79 89.57C32.83 87.70 39.82 85.03 45.29 82.51L41.33 78.84L52.99 78.84L50.83 82.58C56.23 84.60 62.28 87.34 66.10 89.14L68.83 84.38C65.30 82.80 59.90 80.64 54.79 78.84Z"/></svg>
