<svg xmlns="http://www.w3.org/2000/svg" xmlns:xlink="http://www.w3.org/1999/xlink" width="72.00000000000001" height="106.56000000000002"><path fill="red" stroke="red" d="M58.68 38.59L47.59 38.59L47.59 31.32L58.68 31.32ZM41.47 38.59L30.46 38.59L30.46 31.32L41.47 31.32ZM24.34 38.59L13.75 38.59L13.75 31.32L24.34 31.32ZM65.38 25.85L7.34 25.85L7.34 44.06L65.38 44.06ZM25.27 50.26L6.26 50.26L6.26 55.87L25.27 55.87L25.27 60.48L7.92 60.48L7.92 65.88L25.27 65.88C25.27 67.46 25.13 68.98 24.84 70.42C16.85 71.35 9.07 72.29 3.60 72.72L4.18 78.62C9.43 77.90 15.91 77.04 22.46 76.10C20.09 79.49 15.77 82.30 8.14 84.38C9.43 85.68 11.30 87.84 12.24 89.35C28.73 84.46 31.68 76.25 31.68 65.30L31.68 45.58L25.27 45.58ZM68.54 71.64L47.02 71.64L47.02 66.10L65.30 66.10L65.30 60.55L47.02 60.55L47.02 55.94L67.03 55.94L67.03 50.26L47.02 50.26L47.02 45.58L40.25 45.58L40.25 88.99L47.02 88.99L47.02 77.69L68.54 77.69Z"/></svg>
