<svg xmlns="http://www.w3.org/2000/svg" xmlns:xlink="http://www.w3.org/1999/xlink" width="72.00000000000001" height="106.56000000000002"><path fill="red" stroke="red" d="M38.66 42.84L38.66 56.16C38.66 62.06 40.39 63.65 47.88 63.65L59.62 63.65C65.09 63.65 66.82 61.99 67.61 55.37C65.88 55.01 63.50 54.22 62.14 53.28C61.85 57.60 61.34 58.32 58.97 58.32L48.60 58.32C45.36 58.32 44.86 58.03 44.86 56.09L44.86 51.84L64.80 51.84L64.80 47.09L44.86 47.09L44.86 42.77ZM14.18 69.98C17.50 70.92 21.60 72.58 23.76 73.87L26.06 70.13C23.83 68.83 19.66 67.32 16.42 66.60ZM13.97 64.73L27.79 64.73L27.79 72.86C22.32 74.66 17.14 76.32 13.25 77.33C13.82 74.38 13.97 71.50 13.97 68.98ZM33.62 59.69L8.28 59.69L8.28 68.90C8.28 73.87 7.78 80.35 3.46 85.32C4.68 86.04 7.06 88.13 7.92 89.28C10.87 85.97 12.46 81.65 13.25 77.47L15.12 82.01C19.01 80.64 23.47 79.13 27.79 77.47L27.79 82.87C27.79 83.59 27.50 83.81 26.64 83.88C25.85 83.88 23.11 83.88 20.38 83.81C21.02 85.18 21.74 86.98 22.03 88.34C26.35 88.34 29.23 88.42 31.18 87.62C33.05 86.76 33.62 85.54 33.62 82.87ZM13.39 30.67L24.12 30.67L24.12 36.72L13.39 36.72ZM30.24 30.67L41.33 30.67L41.33 36.72L30.24 36.72ZM47.45 30.67L58.68 30.67L58.68 36.72L47.45 36.72ZM24.12 46.87C25.27 48.17 26.42 49.54 27.58 50.98L15.34 51.62C17.71 49.46 20.23 46.73 22.25 44.14L17.86 41.69L65.38 41.69L65.38 25.70L6.98 25.70L6.98 41.69L16.06 41.69C13.46 45.58 9.94 48.96 8.71 49.82C7.63 50.90 6.41 51.62 5.33 51.91C6.05 53.42 7.06 56.45 7.42 57.74C9.00 57.17 11.59 56.88 30.96 55.58C31.82 56.88 32.54 58.03 33.05 59.04L38.02 56.45C36.14 53.14 32.11 48.17 28.73 44.57ZM48.67 82.73C45.43 82.73 44.93 82.44 44.93 80.42L44.93 74.30L65.74 74.30L65.74 69.55L44.93 69.55L44.93 64.73L38.66 64.73L38.66 80.50C38.66 86.54 40.46 88.13 47.95 88.13L59.83 88.13C65.52 88.13 67.32 86.33 67.97 78.91C66.31 78.55 63.79 77.69 62.50 76.68C62.21 81.94 61.70 82.73 59.18 82.73Z"/></svg>
