<svg xmlns="http://www.w3.org/2000/svg" xmlns:xlink="http://www.w3.org/1999/xlink" width="72.00000000000001" height="106.56000000000002"><path fill="red" stroke="red" d="M33.70 47.16L33.70 38.45L48.60 38.45C45.58 41.47 42.26 44.42 38.74 47.16ZM36.58 81.43C30.74 81.43 29.66 80.93 29.66 78.12L29.66 69.34L60.12 69.34L60.12 63.36L29.66 63.36L29.66 61.56C33.84 58.97 37.87 56.23 41.76 53.28L68.18 53.28L68.18 47.16L49.10 47.16C55.30 41.69 60.77 35.64 65.52 29.09L59.18 25.92C56.74 29.38 54.07 32.69 51.12 35.86L51.12 32.40L34.20 32.40L34.20 23.18L27.50 23.18L27.50 32.40L10.30 32.40L10.30 38.45L27.50 38.45L27.50 47.16L3.96 47.16L3.96 53.28L30.10 53.28C21.60 58.82 12.10 63.43 2.30 66.96C3.82 68.40 6.12 71.35 7.20 72.79C12.46 70.70 17.57 68.26 22.68 65.52L22.68 78.26C22.68 85.61 25.63 87.55 36.36 87.55L56.02 87.55C65.16 87.55 67.39 85.03 68.47 74.81C66.53 74.45 63.58 73.44 61.99 72.29C61.42 80.06 60.62 81.43 55.66 81.43Z"/></svg>
