<svg xmlns="http://www.w3.org/2000/svg" xmlns:xlink="http://www.w3.org/1999/xlink" width="72.00000000000001" height="106.56000000000002"><path fill="red" stroke="red" d="M12.67 44.42C14.83 46.87 17.14 49.54 18.43 51.34L20.88 49.39L20.88 56.09C17.78 58.18 14.76 60.26 12.46 61.63C12.60 57.96 12.67 54.43 12.67 51.34ZM20.88 31.82L20.88 45.94C19.22 43.99 17.06 41.76 15.05 39.96L12.67 41.69L12.67 31.82ZM26.57 25.70L6.98 25.70L6.98 51.34C6.98 61.85 6.62 76.18 2.38 86.26C3.89 86.76 6.41 88.13 7.56 89.14C10.51 82.15 11.81 72.72 12.31 63.86L14.47 67.68C16.56 65.88 18.72 64.01 20.88 62.14L20.88 81.14C20.88 82.08 20.59 82.44 19.73 82.44C18.94 82.44 16.42 82.44 13.68 82.37C14.47 83.95 15.12 86.76 15.34 88.27C19.66 88.27 22.32 88.20 24.19 87.12C25.99 86.11 26.57 84.24 26.57 81.29ZM33.41 62.06C38.74 60.05 43.78 57.31 48.46 54.00C52.99 57.31 58.10 60.05 63.72 62.06ZM39.24 79.13L39.24 67.97L57.67 67.97L57.67 79.13ZM40.46 35.93L57.60 35.93C55.30 39.89 52.13 43.42 48.38 46.44C44.93 43.49 42.19 40.10 40.18 36.36ZM62.57 29.66L61.42 29.88L43.92 29.88C44.86 27.94 45.79 25.92 46.58 23.98L40.54 22.18C37.58 30.10 32.33 37.66 26.64 42.48C27.79 43.85 29.88 46.66 30.67 47.88C32.69 46.08 34.63 43.92 36.58 41.47C38.45 44.50 40.82 47.38 43.49 49.90C38.52 52.99 32.98 55.37 27.22 57.10C28.15 58.39 29.45 61.49 29.88 63.36C30.96 63.00 31.97 62.64 33.05 62.21L33.05 88.63L39.24 88.63L39.24 84.96L57.67 84.96L57.67 88.49L64.08 88.49L64.08 62.14C65.16 62.57 66.24 62.93 67.39 63.29C67.75 61.49 68.76 58.61 69.77 57.10C63.72 55.58 58.18 53.21 53.35 50.18C58.90 45.22 63.43 39.17 66.38 31.97Z"/></svg>
