<svg xmlns="http://www.w3.org/2000/svg" xmlns:xlink="http://www.w3.org/1999/xlink" width="72.00000000000001" height="106.56000000000002"><path fill="red" stroke="red" d="M12.38 44.71C13.97 46.37 15.62 48.31 16.56 49.61L18.58 47.95L18.58 57.24C16.27 58.90 13.97 60.34 12.17 61.49C12.31 57.96 12.38 54.65 12.38 51.62ZM18.58 31.68L18.58 43.92C17.28 42.55 15.91 41.18 14.54 39.96L12.38 41.62L12.38 31.68ZM24.41 25.85L6.70 25.85L6.70 51.70C6.70 62.06 6.41 76.54 2.74 86.54C4.18 86.98 6.77 88.42 7.85 89.35C10.44 82.44 11.59 73.22 12.02 64.44L13.90 67.75L18.58 63.50L18.58 81.22C18.58 82.15 18.36 82.44 17.50 82.44C16.78 82.44 14.40 82.44 11.88 82.30C12.74 83.95 13.46 86.76 13.61 88.42C17.71 88.42 20.23 88.27 22.10 87.19C23.83 86.18 24.41 84.31 24.41 81.29ZM64.58 38.30L59.11 38.30L59.11 47.66L47.74 47.66L47.74 53.35L59.11 53.35L59.11 82.15C59.11 83.09 58.82 83.30 57.89 83.30C57.02 83.38 54.22 83.38 51.12 83.23C51.91 84.82 52.56 87.19 52.78 88.63C57.31 88.70 60.19 88.56 62.14 87.62C64.01 86.76 64.58 85.18 64.58 82.15L64.58 53.35L68.26 53.35L68.26 47.66L64.58 47.66ZM57.89 72.94C56.88 68.98 54.79 63.00 52.78 58.39L47.95 59.69C49.90 64.37 52.06 70.42 52.85 74.38ZM53.64 30.17C52.70 27.94 51.34 25.06 50.04 22.82L44.35 24.62C45.22 26.28 46.15 28.30 46.94 30.17L28.51 30.17L28.51 55.15C28.51 64.58 28.22 77.33 24.77 86.18C26.21 86.76 28.87 88.42 30.02 89.50C33.34 81.43 34.20 69.70 34.42 59.98C35.42 61.27 36.65 63.29 37.15 64.58C38.09 63.36 39.02 62.14 39.96 60.70L39.96 88.99L45.22 88.99L45.22 49.90C46.66 46.22 47.74 42.41 48.60 38.88L43.06 37.58C41.62 44.64 38.81 53.64 34.42 59.33C34.49 57.89 34.49 56.45 34.49 55.08L34.49 36.14L68.90 36.14L68.90 30.17Z"/></svg>
