<svg xmlns="http://www.w3.org/2000/svg" xmlns:xlink="http://www.w3.org/1999/xlink" width="72.00000000000001" height="106.56000000000002"><path fill="red" stroke="red" d="M18.50 41.98L25.06 41.98L25.06 35.28L33.91 35.28L33.91 29.30L25.06 29.30L25.06 23.18L18.50 23.18L18.50 29.30L4.03 29.30L4.03 35.28L18.50 35.28ZM56.59 79.49L39.38 79.49L39.38 63.43L59.47 63.43L59.47 44.78L52.27 44.78L52.27 57.24L39.38 57.24L39.38 40.97L32.40 40.97L32.40 57.24L19.44 57.24L19.44 44.78L12.53 44.78L12.53 63.43L32.40 63.43L32.40 79.49L15.84 79.49L15.84 66.38L9.00 66.38L9.00 85.75L56.59 85.75L56.59 89.06L63.50 89.06L63.50 66.31L56.59 66.31ZM53.64 29.23L53.64 23.18L47.02 23.18L47.02 29.23L37.58 29.23L37.58 35.28L47.02 35.28L47.02 41.98L53.64 41.98L53.64 35.28L67.68 35.28L67.68 29.23Z"/></svg>
