<svg xmlns="http://www.w3.org/2000/svg" xmlns:xlink="http://www.w3.org/1999/xlink" width="72.00000000000001" height="106.56000000000002"><path fill="red" stroke="red" d="M47.95 40.32L54.65 40.32L54.65 34.49L67.75 34.49L67.75 28.58L54.65 28.58L54.65 23.11L48.02 23.11L48.02 28.58L37.37 28.58L37.37 34.49L47.95 34.49ZM17.35 39.74L23.98 39.74L23.98 34.49L34.56 34.49L34.56 28.58L23.98 28.58L23.98 23.11L17.35 23.11L17.35 28.58L4.46 28.58L4.46 34.49L17.35 34.49ZM20.59 53.93L12.67 53.93L12.67 43.70L6.84 43.70L6.84 59.62L20.59 59.62L20.59 65.16L3.60 65.16L3.60 71.06L8.57 71.06C8.42 75.46 7.49 81.14 2.66 85.46C4.18 86.40 6.55 88.13 7.63 89.42C13.25 83.95 14.18 76.68 14.26 71.06L20.59 71.06L20.59 89.21L26.93 89.21L26.93 41.69L20.59 41.69ZM68.18 61.56L68.18 55.44L51.77 55.44L51.77 41.69L45.14 41.69L45.14 55.44L29.52 55.44L29.52 61.56L45.14 61.56L45.14 80.57L30.89 80.57L30.89 86.76L67.03 86.76L67.03 80.57L51.77 80.57L51.77 61.56Z"/></svg>
