<svg xmlns="http://www.w3.org/2000/svg" xmlns:xlink="http://www.w3.org/1999/xlink" width="72.00000000000001" height="106.56000000000002"><path fill="red" stroke="red" d="M47.66 38.02L54.14 38.02L54.14 33.84L67.68 33.84L67.68 28.08L54.14 28.08L54.14 23.11L47.66 23.11L47.66 28.08L37.58 28.08L37.58 33.84L47.66 33.84ZM18.50 38.02L24.98 38.02L24.98 33.91L33.91 33.91L33.91 28.08L24.98 28.08L24.98 23.11L18.50 23.11L18.50 28.08L4.03 28.08L4.03 33.91L18.50 33.91ZM18.86 45.65L35.78 45.65C34.06 48.31 30.89 52.13 28.01 55.44C31.75 59.04 35.21 62.93 37.08 65.81L20.38 65.81L24.91 63.94C23.40 61.63 20.66 58.18 17.86 55.37C19.94 52.85 22.18 49.82 24.12 46.94ZM37.87 65.81L42.84 63.79C41.26 61.42 38.09 58.03 35.14 55.30C37.44 52.85 39.96 49.82 42.12 47.02L36.79 45.65L54.50 45.65C52.49 48.31 49.10 52.20 45.79 55.51C49.90 59.04 53.78 62.93 55.94 65.81ZM39.24 81.36L39.24 71.50L63.07 71.50L63.07 65.81L57.38 65.81L61.92 63.79C59.98 61.49 56.52 58.03 53.21 55.37C55.80 52.92 58.54 49.90 60.91 47.09L55.51 45.65L65.74 45.65L65.74 39.96L6.77 39.96L6.77 45.65L17.78 45.65C16.27 48.31 13.54 52.20 10.94 55.51C14.26 59.04 17.35 62.93 19.01 65.81L9.50 65.81L9.50 71.50L32.54 71.50L32.54 81.36L3.67 81.36L3.67 87.26L68.54 87.26L68.54 81.36Z"/></svg>
