<svg xmlns="http://www.w3.org/2000/svg" xmlns:xlink="http://www.w3.org/1999/xlink" width="72.00000000000001" height="106.56000000000002"><path fill="red" stroke="red" d="M47.52 37.51L54.14 37.51L54.14 32.76L67.75 32.76L67.75 27.29L54.14 27.29L54.14 23.04L47.52 23.04L47.52 27.29L37.37 27.29L37.37 32.76L47.52 32.76ZM18.22 37.44L24.77 37.44L24.77 32.76L34.42 32.76L34.42 27.29L24.77 27.29L24.77 22.97L18.22 22.97L18.22 27.29L4.46 27.29L4.46 32.76L18.22 32.76ZM42.05 54.14L42.05 56.02C42.05 61.06 43.42 63.14 49.25 63.14L60.77 63.14C63.14 63.14 65.74 63.07 66.96 62.71C66.67 61.27 66.53 59.47 66.38 57.82C65.02 58.10 62.14 58.32 60.48 58.32L49.97 58.32C48.24 58.32 47.95 57.67 47.95 56.09L47.95 54.14L67.75 54.14L67.75 48.89L39.10 48.89L39.10 44.78L60.19 44.78L60.19 39.53L39.10 39.53L39.10 35.35L32.54 35.35L32.54 39.53L12.53 39.53L12.53 44.78L32.54 44.78L32.54 48.89L4.25 48.89L4.25 54.14L21.53 54.14C19.37 58.32 14.69 60.70 3.31 62.06C4.54 63.29 5.98 65.81 6.55 67.32C20.09 64.94 25.78 61.06 28.30 54.14ZM47.66 70.42C44.78 73.22 41.04 75.53 36.72 77.40C32.40 75.74 28.73 73.94 25.70 71.86C26.42 71.35 27.00 70.92 27.65 70.42ZM53.35 65.30L52.20 65.66L33.12 65.66C34.20 64.44 35.28 63.29 36.29 61.99L29.81 60.70C27.86 63.29 25.06 65.81 21.31 68.11C20.23 67.10 19.30 65.95 18.50 64.73L13.97 67.61C14.69 68.69 15.55 69.77 16.42 70.78C14.11 71.93 11.59 72.86 8.86 73.80C10.08 74.81 11.88 76.90 12.74 78.34C15.62 77.26 18.22 76.03 20.66 74.81C23.04 76.68 25.78 78.48 28.80 79.99C21.10 82.01 12.31 83.16 3.31 83.66C4.32 85.10 5.40 87.62 5.83 89.28C16.78 88.42 27.58 86.76 36.72 83.38C44.71 86.26 54.29 88.13 65.45 88.99C66.17 87.41 67.54 84.74 68.83 83.30C59.62 82.80 51.55 81.58 44.64 79.85C49.97 76.90 54.43 72.94 57.53 67.97Z"/></svg>
