<svg xmlns="http://www.w3.org/2000/svg" xmlns:xlink="http://www.w3.org/1999/xlink" width="72.00000000000001" height="106.56000000000002"><path fill="red" stroke="red" d="M18.22 36.29L24.77 36.29L24.77 33.12L34.56 33.12L34.56 27.43L24.77 27.43L24.77 23.04L18.22 23.04L18.22 27.43L4.46 27.43L4.46 33.12L18.22 33.12ZM49.75 82.44L49.75 59.54L34.20 59.54L34.20 56.30L51.48 56.30L51.48 52.20L46.08 52.20L48.31 50.40C47.16 49.25 45.00 47.74 42.91 46.66L58.90 46.66C58.25 71.06 57.46 80.06 55.94 82.01C55.30 83.02 54.65 83.23 53.57 83.16C52.70 83.16 51.41 83.16 49.75 83.09ZM34.20 75.02L34.20 71.14L43.99 71.14L43.99 75.02ZM19.08 75.02L19.08 71.14L28.30 71.14L28.30 75.02ZM34.20 63.50L43.99 63.50L43.99 67.32L34.20 67.32ZM28.30 63.50L28.30 67.32L19.08 67.32L19.08 63.50ZM14.18 52.20C15.48 50.40 16.70 48.53 17.71 46.66L41.04 46.66L38.02 48.74C39.74 49.61 41.69 50.98 43.13 52.20L34.20 52.20L34.20 47.74L28.30 47.74L28.30 52.20ZM20.66 41.11C21.24 39.89 21.82 38.66 22.32 37.44L15.48 36.36C13.25 42.41 9.00 49.61 2.52 55.08C4.25 55.87 6.70 57.67 8.06 59.04C9.36 57.82 10.66 56.45 11.81 55.08L11.81 56.30L28.30 56.30L28.30 59.54L13.46 59.54L13.46 87.48L19.08 87.48L19.08 78.84L28.30 78.84L28.30 87.26L34.20 87.26L34.20 78.84L43.99 78.84L43.99 82.44C43.99 83.09 43.78 83.23 43.13 83.30C42.41 83.30 40.39 83.38 38.16 83.23C38.81 84.46 39.60 86.18 39.89 87.48C43.42 87.48 45.94 87.48 47.59 86.76C47.88 86.62 48.17 86.47 48.31 86.33C48.60 87.41 48.74 88.27 48.82 89.06C51.84 89.21 54.79 89.28 56.66 88.92C58.82 88.63 60.34 87.98 61.70 85.97C63.94 82.94 64.58 73.15 65.45 44.21C65.45 43.27 65.52 41.11 65.52 41.11ZM54.14 27.43L54.14 23.04L47.52 23.04L47.52 27.43L37.37 27.43L37.37 33.12L47.52 33.12L47.52 37.87L54.14 37.87L54.14 33.12L67.75 33.12L67.75 27.43Z"/></svg>
