<svg xmlns="http://www.w3.org/2000/svg" xmlns:xlink="http://www.w3.org/1999/xlink" width="72.00000000000001" height="106.56000000000002"><path fill="red" stroke="red" d="M18.50 38.02L24.98 38.02L24.98 33.62L33.84 33.62L33.84 27.79L24.98 27.79L24.98 23.11L18.50 23.11L18.50 27.79L4.03 27.79L4.03 33.62L18.50 33.62ZM26.50 71.50L26.50 79.20L12.89 79.20L12.89 71.50ZM24.19 49.68L24.19 56.66L12.89 56.66L12.89 49.68ZM12.89 61.85L30.38 61.85L30.38 44.42L20.66 44.42C21.46 42.70 22.25 40.75 22.97 38.81L15.70 38.02C15.34 39.82 14.69 42.26 13.97 44.42L6.77 44.42L6.77 88.78L12.89 88.78L12.89 84.46L26.50 84.46L26.50 87.26L32.33 87.26L32.33 66.38L12.89 66.38ZM54.14 33.62L67.68 33.62L67.68 27.79L54.14 27.79L54.14 23.11L47.66 23.11L47.66 27.79L37.58 27.79L37.58 33.62L47.66 33.62L47.66 38.02L54.14 38.02ZM56.81 49.39C55.94 52.06 54.43 55.80 52.99 58.54L43.63 58.54L47.02 57.17C46.37 55.01 45.00 51.84 43.42 49.39ZM68.62 64.30L68.62 58.54L58.97 58.54C60.26 56.23 61.63 53.50 62.86 50.90L57.10 49.39L66.82 49.39L66.82 43.63L54.36 43.63C53.71 41.83 52.70 39.74 51.91 38.09L45.36 39.89C45.86 41.04 46.44 42.34 46.94 43.63L34.56 43.63L34.56 49.39L42.41 49.39L38.30 50.83C39.60 53.14 40.97 56.23 41.62 58.54L32.47 58.54L32.47 64.30L47.09 64.30L47.09 71.06L34.70 71.06L34.70 76.82L47.09 76.82L47.09 89.21L53.57 89.21L53.57 76.82L66.67 76.82L66.67 71.06L53.57 71.06L53.57 64.30Z"/></svg>
