<svg xmlns="http://www.w3.org/2000/svg" xmlns:xlink="http://www.w3.org/1999/xlink" width="72.00000000000001" height="106.56000000000002"><path fill="red" stroke="red" d="M9.72 41.33L13.61 41.33L13.61 57.82L9.72 57.82ZM21.74 57.82L17.57 57.82L17.57 41.33L21.74 41.33ZM29.09 81.22C28.44 77.33 26.78 71.50 25.06 66.96L20.74 68.33C21.31 69.98 21.96 71.86 22.39 73.73L18.07 74.95L18.07 63.36L26.57 63.36L26.57 35.78L18.00 35.78L18.00 23.26L13.10 23.26L13.10 35.78L4.90 35.78L4.90 66.89L9.72 66.89L9.72 63.36L13.18 63.36L13.18 76.10C9.36 77.18 5.76 78.05 2.88 78.70L3.96 84.67C9.72 83.09 16.78 81.07 23.83 79.06C24.12 80.35 24.41 81.65 24.55 82.73ZM36.29 71.35C33.98 75.89 30.46 81.14 27.07 84.67C28.58 85.46 31.03 87.05 32.18 88.06C35.50 84.24 39.46 78.26 42.12 73.01ZM56.59 37.80L56.59 43.63L49.10 43.63L49.10 37.80ZM68.98 69.55L68.98 63.94L50.90 63.94L50.90 58.46L67.18 58.46L67.18 53.06L37.22 53.06L37.22 37.80L43.20 37.80L43.20 48.46L62.78 48.46L62.78 37.80L68.76 37.80L68.76 32.33L62.78 32.33L62.78 23.62L56.59 23.62L56.59 32.33L49.10 32.33L49.10 23.62L43.20 23.62L43.20 32.33L37.22 32.33L37.22 25.20L31.25 25.20L31.25 32.33L27.07 32.33L27.07 37.80L31.25 37.80L31.25 58.46L44.50 58.46L44.50 63.94L28.44 63.94L28.44 69.55L44.50 69.55L44.50 89.14L50.90 89.14L50.90 69.55ZM53.64 74.38C57.60 78.41 62.21 84.10 64.15 87.77L69.26 84.17C67.10 80.57 62.42 75.10 58.39 71.28Z"/></svg>
