<svg xmlns="http://www.w3.org/2000/svg" xmlns:xlink="http://www.w3.org/1999/xlink" width="72.00000000000001" height="106.56000000000002"><path fill="red" stroke="red" d="M11.09 33.34C11.52 31.97 11.95 30.46 12.31 29.09L19.44 29.09C19.08 30.53 18.65 32.04 18.07 33.34ZM23.04 46.73C24.26 46.15 27.00 45.29 35.06 43.13C36.07 43.92 37.15 45.50 37.73 46.73ZM53.86 52.92L19.30 52.92L19.30 50.18L53.86 50.18ZM53.86 59.18L19.30 59.18L19.30 56.30L53.86 56.30ZM43.27 33.26C43.70 31.97 44.06 30.46 44.42 29.09L50.54 29.09C50.26 30.60 49.82 32.04 49.25 33.26ZM23.33 37.22L23.33 38.52C23.33 41.40 21.46 42.77 20.30 43.34C20.88 44.14 21.74 45.65 22.18 46.73L13.18 46.73L13.18 62.64L60.19 62.64L60.19 46.73L39.17 46.73C46.30 44.57 50.47 41.47 52.92 37.15L52.92 40.18C52.92 44.28 54.00 45.36 58.54 45.36L63.86 45.36C67.03 45.36 68.40 44.14 68.76 39.67C67.46 39.31 65.66 38.81 64.73 38.16C64.58 41.18 64.30 41.54 63.14 41.54L59.18 41.54C57.82 41.54 57.67 41.40 57.67 40.10L57.67 37.15L67.61 37.15L67.61 33.26L54.72 33.26C55.15 31.97 55.44 30.53 55.73 29.09L66.38 29.09L66.38 25.06L37.44 25.06L37.44 29.09L39.82 29.09C39.10 31.82 38.16 34.85 37.30 37.15L46.80 37.15C44.42 39.74 40.82 41.69 35.21 43.13L36.14 42.84C35.93 41.98 35.71 40.46 35.71 39.38L27.72 41.33L27.72 37.22L34.85 37.22L34.85 33.34L23.47 33.34C23.98 32.04 24.34 30.53 24.70 29.09L33.98 29.09L33.98 25.06L5.47 25.06L5.47 29.09L7.56 29.09C6.91 31.90 5.98 34.99 5.11 37.22L15.77 37.22C13.32 40.54 9.43 43.20 3.38 44.93C4.39 45.94 5.76 47.74 6.34 48.96C14.47 46.37 19.01 42.34 21.74 37.22ZM22.03 82.44L22.03 78.26L29.52 78.26L26.14 79.49C26.71 80.35 27.29 81.29 27.94 82.22ZM11.16 74.30L11.16 69.62L16.85 69.62L16.85 74.30ZM27.94 69.62L27.94 74.30L22.03 74.30L22.03 69.62ZM33.05 78.26L33.05 65.66L22.03 65.66L22.03 63.72L16.85 63.72L16.85 65.66L6.26 65.66L6.26 78.26L16.85 78.26L16.85 82.66C11.81 82.80 7.13 82.94 3.38 83.09L3.82 88.06C11.09 87.70 20.74 87.19 30.38 86.54C30.82 87.55 31.18 88.42 31.46 89.21L36.07 87.34C35.06 84.74 32.90 81.07 30.67 78.26ZM54.14 82.44L54.14 78.26L60.26 78.26L57.60 79.49C58.39 80.28 59.04 81.22 59.83 82.22ZM42.77 74.30L42.77 69.62L48.89 69.62L48.89 74.30ZM60.34 69.62L60.34 74.30L54.14 74.30L54.14 69.62ZM69.48 87.34C68.11 84.74 65.38 81.14 62.78 78.26L65.59 78.26L65.59 65.66L54.14 65.66L54.14 63.72L48.89 63.72L48.89 65.66L37.80 65.66L37.80 78.26L48.89 78.26L48.89 82.58C44.14 82.80 39.89 83.02 36.43 83.09L37.01 87.98C44.14 87.70 53.50 87.19 62.93 86.47C63.65 87.70 64.30 88.78 64.80 89.71Z"/></svg>
