<svg xmlns="http://www.w3.org/2000/svg" xmlns:xlink="http://www.w3.org/1999/xlink" width="72.00000000000001" height="106.56000000000002"><path fill="red" stroke="red" d="M67.75 41.47C65.66 37.01 60.98 29.66 57.24 24.26L51.70 26.50C55.44 32.04 59.90 39.60 61.85 44.21ZM38.81 24.34C36.07 30.53 31.82 37.30 27.72 41.76C29.23 42.62 31.82 44.42 33.12 45.50C37.08 40.61 41.76 33.05 45.00 26.28ZM22.18 32.04C20.74 29.59 18.00 25.85 15.62 23.04L10.22 25.92C12.46 28.87 15.19 32.90 16.49 35.42ZM39.24 80.50L39.24 67.75L55.66 67.75L55.66 80.50ZM37.22 61.85C41.40 57.60 45.07 52.49 47.95 46.80C50.98 52.78 54.43 57.60 58.54 61.85ZM45.72 35.71C42.12 46.44 35.42 55.94 27.00 61.70L24.70 59.47C26.71 57.46 29.02 55.01 31.18 52.70L27.14 49.39C25.85 51.48 23.69 54.29 21.74 56.52C20.95 55.66 20.09 54.94 19.44 54.36L19.44 54.07C22.90 48.96 25.92 43.49 28.01 38.02L24.26 35.21L23.04 35.57L4.03 35.57L4.03 41.76L19.44 41.76C15.26 50.04 8.50 58.61 2.09 63.43C3.17 64.80 4.90 68.40 5.54 70.20C8.06 68.04 10.73 65.30 13.32 62.28L13.32 89.14L19.44 89.14L19.44 60.98C22.25 64.30 25.49 68.26 27.00 70.56L29.88 66.60C30.10 66.89 30.31 67.25 30.53 67.54C31.32 66.89 32.18 66.31 33.05 65.66L33.05 89.14L39.24 89.14L39.24 86.54L55.66 86.54L55.66 88.92L62.14 88.92L62.14 65.23C63.00 65.95 63.94 66.67 64.80 67.39C65.74 65.66 67.61 63.58 69.26 62.28C61.49 56.88 55.66 50.26 50.98 39.96C51.26 39.17 51.55 38.38 51.84 37.51Z"/></svg>
