<svg xmlns="http://www.w3.org/2000/svg" xmlns:xlink="http://www.w3.org/1999/xlink" width="72.00000000000001" height="106.56000000000002"><path fill="red" stroke="red" d="M40.46 69.34L55.80 69.34C53.64 71.93 50.90 74.23 47.66 76.10C44.64 74.45 41.98 72.36 39.67 70.20ZM37.94 52.06L57.38 52.06L57.38 56.09L37.94 56.09ZM37.94 43.99L57.38 43.99L57.38 47.81L37.94 47.81ZM60.98 64.01L59.83 64.30L44.71 64.30C45.65 63.14 46.51 61.78 47.23 60.55L64.01 60.55L64.01 39.60L35.06 39.60C35.93 38.30 36.65 37.08 37.44 35.71L67.82 35.71L67.82 30.02L40.39 30.02C41.26 28.22 42.05 26.50 42.70 24.70L36.14 23.04C33.77 29.88 29.74 36.65 25.13 41.18C25.63 40.03 26.06 38.95 26.50 37.80L22.82 35.28L21.60 35.57L15.19 35.57L20.38 32.90C19.44 30.31 17.14 26.42 15.26 23.40L10.01 25.92C11.81 28.87 13.97 32.98 14.83 35.57L3.46 35.57L3.46 41.54L18.36 41.54C14.54 49.90 7.99 58.46 1.80 63.36C2.88 64.66 4.61 68.04 5.18 69.91C7.56 67.75 10.08 65.16 12.46 62.21L12.46 89.14L18.58 89.14L18.58 61.42C20.59 64.15 22.68 67.10 23.69 68.98L27.72 63.86C27.00 63.14 25.34 61.27 23.47 59.18C25.27 57.46 27.22 55.22 29.45 53.14L25.27 49.25C24.12 51.19 22.25 53.86 20.45 55.94C19.80 55.15 19.08 54.43 18.58 54.00L18.58 53.71C20.88 49.90 23.04 46.01 24.77 41.98C26.50 42.91 29.02 44.71 30.17 45.79C30.67 45.22 31.18 44.64 31.68 44.06L31.68 60.55L40.03 60.55C38.88 62.35 37.37 64.08 35.71 65.74C34.85 64.51 34.13 63.36 33.41 62.14L27.94 63.94C29.02 65.88 30.10 67.68 31.39 69.41C29.23 70.99 26.93 72.36 24.62 73.58C26.06 74.59 28.30 76.90 29.38 78.05C31.32 76.90 33.26 75.53 35.28 74.02C37.08 75.89 39.17 77.69 41.33 79.27C36.00 81.58 30.02 83.09 23.90 84.02C25.06 85.32 26.50 87.84 27.07 89.42C34.20 88.13 41.18 86.04 47.38 82.94C52.63 85.75 58.75 87.91 65.45 89.14C66.24 87.48 67.97 84.89 69.34 83.45C63.72 82.58 58.46 81.14 53.78 79.13C58.61 75.74 62.57 71.50 65.23 66.24Z"/></svg>
