<svg xmlns="http://www.w3.org/2000/svg" xmlns:xlink="http://www.w3.org/1999/xlink" width="72.00000000000001" height="106.56000000000002"><path fill="red" stroke="red" d="M22.90 69.34L22.90 79.63L12.46 79.63L12.46 69.34ZM28.73 63.94L6.70 63.94L6.70 88.27L12.46 88.27L12.46 85.03L28.73 85.03ZM6.62 59.40L28.94 59.40L28.94 54.22L6.62 54.22ZM6.62 49.97L29.02 49.97L29.02 44.71L6.62 44.71ZM21.96 32.18C20.95 29.59 18.58 25.78 16.63 22.75L11.38 25.42C13.32 28.37 15.48 32.47 16.56 35.14L3.53 35.14L3.53 40.46L31.03 40.46L31.03 35.14L16.70 35.14ZM69.05 28.87L32.54 28.87L32.54 35.42L51.98 35.42L51.98 79.85C51.98 81.22 51.48 81.65 50.04 81.72C48.46 81.72 43.06 81.79 37.80 81.50C38.95 83.38 40.10 86.54 40.46 88.42C47.38 88.42 52.06 88.34 54.94 87.19C57.82 86.18 58.82 84.02 58.82 79.92L58.82 35.42L69.05 35.42Z"/></svg>
