<svg xmlns="http://www.w3.org/2000/svg" xmlns:xlink="http://www.w3.org/1999/xlink" width="72.00000000000001" height="106.56000000000002"><path fill="red" stroke="red" d="M29.59 35.14L15.84 35.14L20.66 32.18C19.66 29.59 17.50 25.78 15.70 22.75L10.87 25.42C12.67 28.37 14.69 32.47 15.70 35.14L3.53 35.14L3.53 40.46L29.59 40.46ZM26.71 49.97L26.71 44.71L6.34 44.71L6.34 49.97ZM21.38 69.34L21.38 79.63L11.74 79.63L11.74 69.34ZM26.78 63.94L6.41 63.94L6.41 88.27L11.74 88.27L11.74 85.03L26.78 85.03ZM6.34 59.40L26.78 59.40L26.78 54.22L6.34 54.22ZM69.12 57.74L52.78 57.74L52.78 33.12L67.75 33.12L67.75 26.93L32.18 26.93L32.18 33.12L46.22 33.12L46.22 57.74L29.59 57.74L29.59 64.08L46.22 64.08L46.22 89.21L52.78 89.21L52.78 64.08L69.12 64.08ZM33.41 37.94C34.99 43.42 36.43 50.54 36.72 55.22L42.41 53.86C41.98 49.18 40.54 42.19 38.74 36.65ZM61.34 55.15C63.07 50.69 65.16 43.49 66.89 37.51L60.55 36.07C59.62 41.40 57.82 49.03 56.16 53.71Z"/></svg>
