<svg xmlns="http://www.w3.org/2000/svg" xmlns:xlink="http://www.w3.org/1999/xlink" width="72.00000000000001" height="106.56000000000002"><path fill="red" stroke="red" d="M25.49 23.11C20.02 26.71 10.66 30.10 2.23 32.04C3.46 33.26 4.82 35.57 5.62 37.01C14.18 34.92 23.54 31.61 29.45 27.43ZM29.02 35.71C27.72 37.08 26.06 38.45 24.34 39.74C23.26 37.73 21.89 35.50 20.45 33.55L16.13 35.64C17.64 37.80 19.15 40.46 20.16 42.70C18.65 43.78 17.06 44.71 15.41 45.65C14.18 43.06 12.17 39.89 10.30 37.51L5.76 39.60C7.63 42.19 9.50 45.50 10.73 48.17C8.14 49.32 5.54 50.47 3.02 51.48C4.32 52.78 5.83 54.94 6.62 56.30C10.44 54.79 14.26 52.99 17.93 51.05C18.65 52.13 19.37 53.21 19.94 54.43C15.77 58.18 8.71 62.14 3.38 64.22C4.61 65.52 6.12 67.82 6.98 69.34C11.66 66.96 17.57 63.07 22.03 59.33C22.46 60.77 22.82 62.21 23.11 63.65C18.29 69.12 9.65 74.74 2.59 77.62C3.89 78.91 5.40 81.29 6.26 82.80C11.95 79.92 18.65 75.24 23.83 70.56C23.98 75.74 22.97 80.06 21.60 81.50C20.45 83.02 19.22 83.16 17.57 83.16C16.34 83.16 14.11 83.09 11.88 82.87C12.96 84.67 13.46 87.26 13.46 89.06C15.41 89.14 17.64 89.14 19.01 89.14C22.32 89.06 24.62 88.27 26.71 85.90C31.75 80.78 32.26 60.48 22.75 48.24C26.86 45.65 30.46 42.84 33.41 39.82ZM68.54 37.73L60.77 37.73L60.77 23.18L53.93 23.18L53.93 37.73L33.70 37.73L33.70 43.99L51.48 43.99C47.02 55.51 39.31 67.18 31.54 73.37C33.19 74.74 35.35 77.11 36.43 78.84C42.91 73.01 49.18 63.79 53.93 54.07L53.93 80.93C53.93 82.08 53.57 82.44 52.42 82.51C51.34 82.51 47.74 82.51 44.06 82.44C45.07 84.17 46.08 87.26 46.44 89.06C51.70 89.06 55.37 88.85 57.60 87.70C59.98 86.69 60.77 84.74 60.77 80.93L60.77 43.99L68.54 43.99Z"/></svg>
