<svg xmlns="http://www.w3.org/2000/svg" xmlns:xlink="http://www.w3.org/1999/xlink" width="72.00000000000001" height="106.56000000000002"><path fill="red" stroke="red" d="M25.27 32.18L25.78 37.37L39.31 36.50C44.42 43.78 52.49 48.17 60.12 48.17C65.16 48.17 67.25 46.58 68.18 39.53C66.53 39.10 64.44 38.23 63.07 37.15C62.78 41.04 62.35 42.34 60.34 42.34C55.94 42.41 50.90 40.03 46.94 36.07L67.32 34.78L66.82 29.74L59.11 30.17L61.78 27.14C58.82 25.56 53.35 23.76 49.25 22.97L46.15 26.35C49.90 27.29 54.36 28.87 57.31 30.31L43.13 31.10C41.76 28.73 40.75 26.06 40.39 23.11L34.20 23.11C34.56 26.14 35.35 28.94 36.50 31.54ZM19.51 69.12L53.35 69.12L53.35 73.30L19.51 73.30ZM19.51 60.91L53.35 60.91L53.35 65.02L19.51 65.02ZM19.51 52.85L53.35 52.85L53.35 56.88L19.51 56.88ZM13.03 77.54L60.05 77.54L60.05 48.60L13.03 48.60ZM16.13 46.66L22.54 46.66L22.54 31.68C24.98 29.52 27.29 27.29 29.16 24.91L23.11 22.68C18.29 28.44 10.08 33.91 2.38 37.22C3.82 38.38 6.12 40.75 7.20 42.05C10.08 40.54 13.18 38.74 16.13 36.65ZM24.77 77.69C19.80 80.50 11.23 83.02 3.82 84.46C5.33 85.61 7.70 88.13 8.86 89.42C16.06 87.48 25.06 84.02 30.89 80.50ZM41.18 81.22C48.67 83.81 56.23 87.05 60.48 89.35L68.18 86.18C63.00 83.74 54.36 80.42 46.66 77.83Z"/></svg>
