<svg xmlns="http://www.w3.org/2000/svg" xmlns:xlink="http://www.w3.org/1999/xlink" width="72.00000000000001" height="106.56000000000002"><path fill="red" stroke="red" d="M67.18 30.96L52.99 30.96C52.56 28.58 51.70 25.56 50.76 23.04L44.35 23.90C45.00 26.06 45.58 28.73 46.01 30.96L31.03 30.96L31.03 36.86L67.18 36.86ZM43.85 48.17C43.42 45.29 42.12 40.75 40.68 37.44L34.92 38.66C36.29 42.05 37.51 46.73 37.80 49.61ZM21.24 39.53L11.52 39.53L11.52 31.90L21.24 31.90ZM21.24 52.49L11.52 52.49L11.52 44.64L21.24 44.64ZM21.24 65.59L11.52 65.59L11.52 57.67L21.24 57.67ZM27.07 26.50L5.90 26.50L5.90 70.99L27.07 70.99ZM9.72 72.79C7.92 76.97 5.33 81.79 2.74 85.10C4.10 85.82 6.48 87.26 7.49 88.20C10.01 84.60 13.10 79.13 15.12 74.38ZM18.00 75.17C20.38 78.62 23.18 83.30 24.55 86.40L29.23 83.38C27.86 80.57 24.98 76.18 22.46 72.72ZM58.39 67.68L58.39 79.63L40.10 79.63L40.10 67.68ZM33.48 89.21L40.10 89.21L40.10 85.68L58.39 85.68L58.39 88.92L65.23 88.92L65.23 61.78L33.48 61.78ZM59.04 50.33C60.70 46.94 62.64 42.55 64.22 38.66L57.60 37.01C56.52 41.04 54.43 46.58 52.63 50.33L29.38 50.33L29.38 56.16L69.05 56.16L69.05 50.33Z"/></svg>
