<svg xmlns="http://www.w3.org/2000/svg" xmlns:xlink="http://www.w3.org/1999/xlink" width="72.00000000000001" height="106.56000000000002"><path fill="red" stroke="red" d="M49.18 31.61L51.05 31.61L51.05 36.79L61.56 36.79C60.98 41.47 60.19 45.79 59.18 49.97C57.67 46.94 56.02 43.92 54.43 41.18L49.68 42.77C52.20 47.30 54.72 52.42 57.02 57.38C54.86 63.58 52.27 68.69 49.18 72.50ZM37.44 65.74L37.44 57.02L43.78 57.02L43.78 64.22ZM43.78 38.95L37.44 38.95L37.44 31.61L43.78 31.61ZM37.44 44.21L43.78 44.21L43.78 51.77L37.44 51.77ZM32.11 66.96L28.44 67.75L29.74 73.30L43.78 69.48L43.78 79.27L49.18 79.27L49.18 74.02C50.40 75.10 51.84 76.82 52.56 77.90C55.37 74.59 57.96 70.13 60.12 64.87C61.70 68.90 63.00 72.65 63.86 75.60L69.12 73.44C67.90 69.19 65.52 63.43 62.71 57.46C65.02 50.11 66.67 41.69 67.68 32.40L64.22 31.25L63.14 31.46L52.63 31.46L52.63 25.92L28.66 25.92L28.66 31.61L32.11 31.61ZM22.39 64.44L29.23 64.44L29.23 58.61L22.39 58.61L22.39 50.18L29.38 50.18L29.38 44.28L20.74 44.28L20.74 36.94L28.08 36.94L28.08 31.03L20.74 31.03L20.74 23.11L14.69 23.11L14.69 31.03L5.47 31.03L5.47 36.94L14.69 36.94L14.69 44.28L3.67 44.28L3.67 50.18L16.49 50.18L16.49 73.15C14.76 70.92 13.39 68.11 12.31 64.51C12.46 61.56 12.46 58.68 12.38 55.80L6.77 55.51C7.06 65.16 6.62 76.75 1.80 85.18C3.10 85.75 5.26 87.77 6.19 89.14C8.64 85.03 10.22 80.21 11.09 75.24C16.78 85.10 25.56 87.34 40.32 87.34L66.74 87.34C67.18 85.39 68.40 82.30 69.48 80.71C64.30 80.93 44.50 80.93 40.39 80.93C32.83 80.93 26.93 80.28 22.39 78.05Z"/></svg>
