<svg xmlns="http://www.w3.org/2000/svg" xmlns:xlink="http://www.w3.org/1999/xlink" width="72.00000000000001" height="106.56000000000002"><path fill="red" stroke="red" d="M58.97 36.94C58.90 56.59 58.75 63.65 57.74 65.09C57.24 65.88 56.59 66.10 55.66 66.10C55.01 66.10 53.93 66.10 52.63 66.02L53.42 66.02L53.42 43.85L35.21 43.85C36.65 41.76 38.02 39.46 39.31 36.94ZM47.74 60.62L39.02 60.62L39.02 49.32L47.74 49.32ZM22.61 42.91L11.81 42.91L11.81 31.82L22.61 31.82ZM44.21 82.66C39.82 82.66 39.02 82.08 39.02 78.91L39.02 66.02L49.10 66.02C49.97 67.61 50.62 70.13 50.69 71.71C53.86 71.86 56.81 71.86 58.75 71.57C60.77 71.28 62.21 70.70 63.50 68.90C65.02 66.46 65.16 58.18 65.23 33.98L65.23 31.10L41.98 31.10C42.84 29.02 43.63 26.86 44.35 24.77L38.38 23.26C36.36 30.24 32.98 37.15 28.73 41.98L28.73 26.06L6.12 26.06L6.12 48.60L15.26 48.60L15.26 76.82L11.38 77.83L11.38 54.72L5.90 54.72L5.90 79.20C4.68 79.49 3.60 79.78 2.52 79.99L4.10 86.26C11.38 84.17 21.02 81.43 30.24 78.84L29.38 73.01L21.17 75.24L21.17 63.43L28.51 63.43L28.51 57.60L21.17 57.60L21.17 48.60L28.73 48.60L28.73 43.70C30.02 45.00 31.46 46.66 32.18 47.66C32.47 47.30 32.83 46.94 33.12 46.58L33.12 78.91C33.12 86.33 35.42 88.27 43.78 88.27L59.47 88.27C66.60 88.27 68.47 85.61 69.34 76.68C67.68 76.32 65.16 75.31 63.79 74.38C63.36 81.29 62.71 82.66 59.11 82.66Z"/></svg>
