<svg xmlns="http://www.w3.org/2000/svg" xmlns:xlink="http://www.w3.org/1999/xlink" width="72.00000000000001" height="106.56000000000002"><path fill="red" stroke="red" d="M67.97 32.26L60.05 32.26C59.18 29.52 57.67 26.06 56.30 23.33L50.83 24.55C51.84 26.93 52.99 29.81 53.86 32.26L44.57 32.26L44.57 37.80L67.97 37.80ZM54.29 50.40C54.07 47.23 53.06 42.34 51.62 38.66L46.87 39.67C48.17 43.49 49.10 48.38 49.18 51.48ZM35.71 60.34C35.64 55.58 34.42 48.38 32.54 42.84L28.01 43.70C29.74 49.39 30.82 56.66 30.74 61.34ZM26.71 32.40L19.22 32.40C18.22 29.74 16.63 26.42 15.12 23.69L9.58 25.49C10.66 27.50 11.74 30.10 12.67 32.40L3.96 32.40L3.96 37.94L26.71 37.94ZM6.26 39.67C7.49 43.42 8.35 48.31 8.35 51.41L13.54 50.40C13.39 47.23 12.38 42.34 11.02 38.66ZM26.64 70.13L26.64 64.58L18.36 64.58L18.36 57.02L27.22 57.02L27.22 51.48L21.60 51.48C22.82 48.10 24.05 43.63 25.13 39.74L19.73 38.59C19.15 42.41 17.86 47.81 16.70 51.48L3.31 51.48L3.31 57.02L12.17 57.02L12.17 64.58L4.18 64.58L4.18 70.13L11.95 70.13C11.45 75.31 9.72 81.14 3.89 84.89C5.33 85.97 7.20 87.98 8.06 89.28C15.05 84.24 17.50 76.82 18.14 70.13ZM36.29 51.41C36.29 63.86 35.21 75.89 26.57 84.96C27.79 85.97 29.81 87.91 30.74 89.28C40.61 79.06 41.83 65.59 41.83 51.41L41.83 23.76L36.29 23.76ZM68.98 57.17L68.98 51.62L63.00 51.62C64.30 48.02 65.66 43.49 66.74 39.46L61.27 38.30C60.62 42.19 59.33 47.74 58.10 51.62L43.78 51.62L43.78 57.17L53.57 57.17L53.57 66.24L44.78 66.24L44.78 71.78L53.57 71.78L53.57 89.14L59.83 89.14L59.83 71.78L68.11 71.78L68.11 66.24L59.83 66.24L59.83 57.17Z"/></svg>
