<svg xmlns="http://www.w3.org/2000/svg" xmlns:xlink="http://www.w3.org/1999/xlink" width="72.00000000000001" height="106.56000000000002"><path fill="red" stroke="red" d="M22.03 47.81L22.03 55.44C22.03 58.18 20.02 59.11 18.72 59.54C19.44 60.70 20.45 63.07 20.74 64.44C22.18 63.65 24.55 63.22 40.10 61.06C39.82 59.76 39.60 57.60 39.60 56.02L28.08 57.38L28.08 47.81L36.86 47.81L34.70 50.26C43.49 54.29 54.58 60.55 60.05 64.80L63.58 60.41C61.42 58.82 58.39 56.88 55.01 55.01C58.10 53.86 61.42 52.49 64.37 50.83L59.54 48.10C57.38 49.39 53.78 51.26 50.69 52.56C47.45 50.90 44.14 49.32 41.04 47.81L67.54 47.81L67.54 42.98L16.27 42.98C16.42 41.76 16.49 40.61 16.56 39.46L60.70 39.46L60.70 34.85L16.63 34.85L16.63 31.39L65.02 31.39L65.02 26.28L10.37 26.28L10.37 35.64C10.37 43.27 9.43 53.78 2.66 61.42C4.18 62.14 6.84 63.94 7.99 65.02C12.24 60.12 14.54 53.93 15.62 47.81ZM68.47 66.96L53.86 66.96L53.86 61.63L47.30 61.63L47.30 66.96L3.60 66.96L3.60 72.58L18.65 72.58L15.05 75.46C19.22 78.19 24.19 82.30 26.57 85.10L31.54 80.86C29.38 78.41 25.13 75.10 21.24 72.58L47.30 72.58L47.30 81.79C47.30 82.80 46.94 83.09 45.72 83.09C44.57 83.16 40.25 83.16 36.00 83.02C36.86 84.74 37.73 87.19 38.02 88.99C43.99 88.99 48.02 88.92 50.54 87.98C53.14 87.12 53.86 85.32 53.86 82.01L53.86 72.58L68.47 72.58Z"/></svg>
