<svg xmlns="http://www.w3.org/2000/svg" xmlns:xlink="http://www.w3.org/1999/xlink" width="72.00000000000001" height="106.56000000000002"><path fill="red" stroke="red" d="M23.69 26.71L23.69 32.76L53.57 32.76C53.71 60.41 54.22 77.54 63.22 77.54C67.25 77.54 68.47 74.52 69.19 66.82C67.90 65.66 66.31 63.65 65.23 61.99C65.09 66.82 64.73 70.78 63.79 70.78C60.12 70.78 59.98 52.56 60.26 26.71ZM34.27 78.41L40.68 78.41L40.68 55.58L51.41 55.58L51.41 49.54L40.68 49.54L40.68 35.06L34.27 35.06L34.27 49.54L22.90 49.54L22.90 55.58L34.27 55.58ZM18.43 34.63C17.06 31.54 14.54 26.78 12.67 23.04L6.91 25.06C8.64 28.87 11.23 34.06 12.38 37.15ZM18.79 55.94L17.86 56.16L14.26 56.16C16.34 51.12 18.58 45.29 20.52 40.18L3.53 40.18L3.53 46.22L11.81 46.22C9.72 51.77 7.34 57.67 5.33 61.92L15.48 61.92C14.04 67.18 11.59 72.65 8.50 76.39L8.57 76.46C6.55 77.98 4.32 80.28 2.23 83.02L6.70 89.35C8.71 85.18 11.30 80.64 12.89 80.64C14.47 80.64 17.06 82.94 19.94 84.53C25.27 87.55 31.46 88.27 40.75 88.27C49.18 88.27 62.50 87.84 67.97 87.48C68.04 85.61 69.19 82.22 70.06 80.42C61.92 81.43 49.61 82.08 41.04 82.08C32.76 82.08 26.06 81.65 21.10 78.77C18.86 77.54 17.42 76.39 16.20 75.74C19.22 70.56 21.60 64.08 22.75 57.60Z"/></svg>
