<svg xmlns="http://www.w3.org/2000/svg" xmlns:xlink="http://www.w3.org/1999/xlink" width="72.00000000000001" height="106.56000000000002"><path fill="red" stroke="red" d="M55.30 37.08L34.42 37.08L34.42 31.68L55.30 31.68ZM34.42 47.66L34.42 42.12L55.30 42.12L55.30 47.66ZM34.42 70.27L34.42 53.35L61.42 53.35C58.90 55.58 55.22 58.32 52.06 60.41C49.54 58.46 47.09 56.59 44.78 54.86L40.25 58.25C47.81 63.79 56.95 72.07 61.13 77.47L66.10 73.58C63.72 70.78 60.19 67.39 56.23 63.94C59.83 61.92 63.79 59.26 67.25 56.81L62.14 52.70L61.78 53.06L61.78 25.99L32.04 25.99L32.04 26.06L27.79 26.06L27.79 68.76C27.79 71.64 26.35 72.86 25.20 73.51C26.14 74.74 27.36 77.26 27.79 78.77C29.45 77.76 31.90 76.97 47.38 73.22C47.16 71.86 47.02 69.26 47.09 67.54ZM17.78 35.42C16.85 32.40 15.12 27.72 13.82 24.12L7.70 25.78C8.86 29.52 10.66 34.42 11.52 37.51ZM20.45 55.51L19.44 55.80L14.33 55.80C16.20 50.90 18.36 45.14 20.02 40.18L3.24 40.18L3.24 46.22L11.88 46.22C9.94 51.77 7.78 57.46 5.98 61.63L15.77 61.63C14.54 66.46 12.67 71.42 10.73 75.17C8.14 76.32 5.11 79.42 2.16 83.30L6.70 89.57C8.57 85.18 11.09 80.50 12.67 80.50C14.18 80.50 16.78 83.02 19.66 84.67C24.91 87.70 31.03 88.49 40.46 88.49C48.96 88.49 61.99 88.06 67.54 87.70C67.61 85.90 68.76 82.66 69.55 80.78C61.56 81.79 49.46 82.44 40.68 82.44C32.33 82.44 25.78 82.01 20.81 78.98C19.01 77.83 17.64 76.82 16.49 76.10C19.37 70.63 21.82 63.58 23.47 56.81Z"/></svg>
