<svg xmlns="http://www.w3.org/2000/svg" xmlns:xlink="http://www.w3.org/1999/xlink" width="72.00000000000001" height="106.56000000000002"><path fill="red" stroke="red" d="M42.84 46.01L42.84 51.19L32.47 51.19L32.47 46.01ZM59.62 51.19L48.89 51.19L48.89 46.01L59.62 46.01ZM48.89 61.49L48.89 56.09L59.62 56.09L59.62 61.49ZM32.47 61.49L32.47 56.09L42.84 56.09L42.84 61.49ZM32.47 66.53L42.84 66.53L42.84 77.62L48.89 77.62L48.89 66.53L59.62 66.53L59.62 71.64C59.62 72.50 59.33 72.79 58.46 72.79C57.67 72.79 54.86 72.86 51.91 72.72C52.70 74.23 53.50 76.46 53.71 78.12C58.25 78.12 61.27 78.05 63.36 77.11C65.38 76.25 65.95 74.74 65.95 71.71L65.95 40.97L57.10 40.97C55.73 40.18 54.07 39.31 52.13 38.45C57.24 35.71 62.21 32.18 65.88 28.66L61.85 25.42L60.55 25.78L26.50 25.78L26.50 31.03L54.29 31.03C51.98 32.76 49.18 34.49 46.44 35.93C43.27 34.49 39.96 33.19 37.15 32.26L32.83 35.86C36.50 37.22 40.90 39.17 44.64 40.97L26.21 40.97L26.21 77.90L32.47 77.90ZM17.06 34.99C16.13 31.90 14.40 27.07 13.10 23.33L7.20 25.06C8.35 28.87 10.15 33.98 10.94 37.15ZM18.65 55.87L17.64 56.16L13.68 56.16C15.41 51.12 17.42 45.29 19.01 40.18L3.46 40.18L3.46 46.22L10.73 46.22C8.93 51.84 6.84 57.67 5.04 61.92L14.26 61.92C13.18 66.82 11.45 72.00 9.58 75.89C7.27 77.33 4.75 80.14 2.30 83.38L6.84 89.57C8.78 85.18 11.23 80.50 12.89 80.50C14.40 80.50 17.06 83.02 19.94 84.67C25.13 87.70 31.32 88.49 40.82 88.49C49.18 88.49 62.42 88.06 67.97 87.70C68.11 85.90 69.19 82.58 69.91 80.78C61.99 81.79 49.82 82.44 41.11 82.44C32.62 82.44 26.06 82.01 21.02 78.98C18.72 77.54 17.21 76.32 15.84 75.60C18.36 70.20 20.38 63.43 21.67 57.02Z"/></svg>
