<svg xmlns="http://www.w3.org/2000/svg" xmlns:xlink="http://www.w3.org/1999/xlink" width="72.00000000000001" height="106.56000000000002"><path fill="red" stroke="red" d="M50.26 47.45L41.04 47.45L41.04 52.85L50.26 52.85L50.26 69.70L38.52 69.70L38.52 75.17L68.54 75.17L68.54 69.70L56.52 69.70L56.52 52.85L66.24 52.85L66.24 47.45L56.52 47.45L56.52 32.40L67.18 32.40L67.18 27.00L40.10 27.00L40.10 32.40L50.26 32.40ZM15.77 35.28C14.90 32.18 13.32 27.43 12.17 23.69L6.91 25.20C7.99 28.94 9.50 34.06 10.30 37.22ZM31.75 54.50C31.75 61.99 31.25 69.34 29.95 71.06C29.52 71.64 29.02 71.93 28.15 71.93C27.00 72.07 25.20 72.07 22.97 71.93C23.83 73.51 24.34 75.74 24.41 77.62C26.71 77.69 29.16 77.69 30.89 77.26C32.47 77.04 33.48 76.32 34.34 75.31C36.94 72.07 37.51 63.43 37.51 54.94C37.51 47.66 37.08 40.90 34.34 34.42C36.43 31.46 38.38 28.37 39.82 25.20L34.34 23.54C33.48 25.34 32.47 27.22 31.32 28.94C30.10 27.14 28.58 25.34 26.78 23.54L22.46 26.57C24.70 28.94 26.42 31.32 27.72 33.84C25.06 36.94 22.03 39.74 18.86 41.83C20.09 42.84 22.18 45.00 22.97 46.15C25.42 44.35 27.79 42.12 30.02 39.67C30.67 41.76 31.03 43.92 31.32 46.08C28.51 51.12 23.40 56.52 19.08 59.33L19.51 56.95L16.85 55.94L15.91 56.16L12.46 56.16C14.04 51.19 15.84 45.29 17.21 40.18L3.46 40.18L3.46 46.22L9.94 46.22C8.42 51.84 6.55 57.67 5.04 61.92L12.96 61.92C12.10 66.82 10.66 72.00 8.93 75.89C6.84 77.18 4.39 80.06 1.94 83.66L6.34 89.64C7.85 85.46 9.86 80.71 11.23 80.71C12.74 80.71 15.48 83.16 18.43 84.82C23.76 87.98 30.10 88.70 39.67 88.70C48.24 88.70 61.85 88.20 67.39 87.84C67.46 86.11 68.54 82.94 69.19 81.22C61.20 82.22 49.03 82.87 39.82 82.87C31.32 82.87 24.55 82.44 19.51 79.42C17.21 77.98 15.70 76.75 14.33 76.03C16.20 71.28 17.86 65.16 19.08 59.47C20.30 60.48 21.82 62.57 22.68 63.94C25.70 61.56 29.02 58.10 31.75 54.50Z"/></svg>
