<svg xmlns="http://www.w3.org/2000/svg" xmlns:xlink="http://www.w3.org/1999/xlink" width="72.00000000000001" height="106.56000000000002"><path fill="red" stroke="red" d="M57.38 49.10L57.38 52.99L48.02 52.99L48.02 49.10ZM57.38 61.06L48.02 61.06L48.02 57.10L57.38 57.10ZM31.97 61.06L31.97 57.10L41.54 57.10L41.54 61.06ZM31.97 49.10L41.54 49.10L41.54 52.99L31.97 52.99ZM27.86 41.18L41.54 41.18L41.54 44.78L26.21 44.78L26.21 65.38L41.54 65.38L41.54 68.90L22.61 68.90L22.61 73.94L41.54 73.94L41.54 79.42L48.02 79.42L48.02 73.94L67.25 73.94L67.25 68.90L48.02 68.90L48.02 65.38L63.36 65.38L63.36 44.78L48.02 44.78L48.02 41.18L60.34 41.18L60.34 36.36L48.02 36.36L48.02 33.05L41.54 33.05L41.54 36.36L28.30 36.36L28.30 30.60L60.62 30.60L60.62 38.95L67.03 38.95L67.03 25.49L22.10 25.49L22.10 38.95L27.86 38.95ZM17.06 34.92C16.13 31.82 14.40 27.07 13.10 23.33L7.20 25.06C8.35 28.87 10.15 33.98 10.94 37.15ZM17.42 55.94L16.42 56.16L13.75 56.16C15.62 51.19 17.64 45.29 19.37 40.18L3.46 40.18L3.46 46.22L10.94 46.22C9.14 51.84 6.91 57.67 5.04 61.92L14.33 61.92C13.39 66.60 11.88 71.78 10.08 75.67C7.56 76.97 4.90 79.92 2.30 83.38L6.84 89.57C8.78 85.18 11.23 80.50 12.89 80.50C14.40 80.50 17.06 83.02 19.94 84.67C25.13 87.70 31.32 88.49 40.75 88.49C49.18 88.49 62.35 88.06 67.97 87.70C68.11 85.90 69.12 82.58 69.91 80.78C61.92 81.79 49.82 82.44 41.04 82.44C32.62 82.44 26.06 82.01 21.02 78.98C18.86 77.69 17.42 76.54 16.20 75.82C18.50 70.49 20.30 63.86 21.38 57.74Z"/></svg>
