<svg xmlns="http://www.w3.org/2000/svg" xmlns:xlink="http://www.w3.org/1999/xlink" width="72.00000000000001" height="106.56000000000002"><path fill="red" stroke="red" d="M12.31 72.79L24.77 72.79L24.77 67.54L12.31 67.54ZM20.38 40.03L16.78 40.03L16.78 31.68L20.38 31.68ZM27.43 56.95C27.29 57.02 27.07 57.10 26.42 57.10L24.48 57.10C23.69 57.10 23.62 56.95 23.62 56.09L23.62 45.65L27.43 45.65ZM9.79 78.84L9.79 62.06C10.58 62.50 11.52 63.50 12.02 64.08C15.98 60.34 16.85 55.08 16.85 50.98L16.85 45.65L20.23 45.65L20.23 56.09C20.23 59.83 21.10 60.62 24.05 60.62L27.07 60.62L27.43 60.62L27.43 78.84ZM13.46 45.65L13.46 50.90C13.46 54.22 12.96 58.18 9.79 61.42L9.79 45.65ZM3.60 31.68L12.24 31.68L12.24 40.03L4.75 40.03L4.75 89.06L9.79 89.06L9.79 84.10L27.43 84.10L27.43 88.06L32.69 88.06L32.69 40.03L25.06 40.03L25.06 31.68L33.26 31.68L33.26 26.06L3.60 26.06ZM61.27 50.47C64.22 50.47 67.46 50.40 68.83 49.97C68.54 48.60 68.33 46.22 68.18 44.57C66.60 44.93 63.14 45.07 61.06 45.07L45.72 45.07C43.06 45.07 42.48 44.14 42.48 41.69L42.48 37.22L65.88 37.22L65.88 31.46L42.48 31.46L42.48 24.34L36.36 24.34L36.36 41.54C36.36 48.24 38.52 50.47 45.79 50.47ZM59.90 61.06L59.90 67.39L43.13 67.39L43.13 61.06ZM43.13 79.34L43.13 72.36L59.90 72.36L59.90 79.34ZM37.15 88.42L43.13 88.42L43.13 84.60L59.90 84.60L59.90 88.06L66.17 88.06L66.17 55.58L37.15 55.58Z"/></svg>
