<svg xmlns="http://www.w3.org/2000/svg" xmlns:xlink="http://www.w3.org/1999/xlink" width="72.00000000000001" height="106.56000000000002"><path fill="red" stroke="red" d="M29.09 75.89C25.99 76.54 22.90 77.18 19.87 77.76L19.87 59.33L29.09 59.33L29.09 53.64L19.87 53.64L19.87 46.80L26.78 46.80L26.78 41.18L10.58 41.18C12.96 38.59 15.19 35.71 17.14 32.69C21.46 35.57 25.85 39.17 28.51 42.05L31.39 36.58C28.73 33.98 24.41 30.67 20.02 27.94C20.52 26.93 21.02 25.99 21.46 24.98L16.56 22.75C13.32 29.52 7.70 35.93 2.38 39.96C3.17 41.62 4.46 45.29 4.90 46.73C6.05 45.79 7.13 44.78 8.28 43.63L8.28 46.80L14.47 46.80L14.47 53.64L4.39 53.64L4.39 59.33L14.47 59.33L14.47 78.84C10.30 79.63 6.48 80.35 3.53 80.93L4.90 86.90C11.66 85.39 20.74 83.30 29.38 81.29ZM5.40 63.72C6.48 67.90 7.56 73.15 7.85 76.68L12.24 75.31C11.88 71.93 10.73 66.67 9.50 62.57ZM24.98 75.74C26.21 72.58 27.58 67.61 28.87 63.22L24.12 61.85C23.54 65.59 22.25 71.06 21.24 74.52ZM32.26 87.05C34.56 83.74 35.57 78.41 36.29 73.37L31.75 72.07C31.25 76.75 30.02 81.86 27.72 84.96ZM38.16 72.94C39.10 76.54 39.74 81.36 39.67 84.38L44.06 83.52C44.06 80.50 43.34 75.74 42.26 72.14ZM44.86 72.14C46.30 75.17 47.59 78.91 48.02 81.58L51.91 80.35C51.41 77.83 49.97 74.02 48.53 71.14ZM58.75 76.97C57.96 74.95 56.23 71.86 54.50 69.70L51.12 71.14C52.85 73.37 54.50 76.46 55.15 78.62ZM56.09 35.71L56.09 43.20L38.52 43.20L38.52 35.71ZM67.97 58.46L67.97 53.06L38.52 53.06L38.52 48.60L62.21 48.60L62.21 30.31L47.74 30.31C48.67 28.51 49.75 26.28 50.76 24.19L43.70 23.04C43.27 25.13 42.41 27.94 41.47 30.31L32.40 30.31L32.40 68.40L60.70 68.40C60.05 78.48 59.33 82.44 58.46 83.59C58.03 84.24 57.46 84.38 56.52 84.38C55.66 84.38 53.78 84.31 51.62 84.10C52.34 85.46 52.92 87.62 52.99 89.21C55.51 89.35 58.03 89.28 59.33 89.14C61.06 88.92 62.28 88.42 63.29 87.05C65.02 85.18 65.74 79.63 66.53 65.30C66.60 64.51 66.60 62.93 66.60 62.93L38.52 62.93L38.52 58.46Z"/></svg>
