<svg xmlns="http://www.w3.org/2000/svg" xmlns:xlink="http://www.w3.org/1999/xlink" width="72.00000000000001" height="106.56000000000002"><path fill="red" stroke="red" d="M57.02 38.16L37.51 38.16L37.51 34.13L57.02 34.13ZM57.02 46.30L37.51 46.30L37.51 42.19L57.02 42.19ZM57.02 54.36L37.51 54.36L37.51 50.33L57.02 50.33ZM63.36 29.23L47.52 29.23C48.31 27.50 49.18 25.56 49.97 23.62L43.06 22.90C42.62 24.70 41.90 27.14 41.11 29.23L31.46 29.23L31.46 59.26L63.36 59.26ZM10.37 41.04C12.82 38.38 15.12 35.28 17.28 32.04C20.30 35.14 23.62 38.66 25.49 41.04ZM27.94 74.81C25.13 75.46 22.32 76.18 19.58 76.90L19.58 59.18L28.44 59.18L28.44 53.50L19.58 53.50L19.58 46.66L26.06 46.66L26.06 41.04L25.78 41.04L29.45 36.65C27.43 34.20 23.40 30.38 20.09 27.22C20.52 26.35 20.95 25.56 21.24 24.77L15.91 22.90C12.96 29.23 7.92 35.35 2.81 39.38C3.82 40.82 5.18 44.14 5.69 45.43C6.62 44.71 7.63 43.85 8.50 42.91L8.50 46.66L13.68 46.66L13.68 53.50L4.18 53.50L4.18 59.18L13.68 59.18L13.68 78.34C9.79 79.20 6.34 80.06 3.53 80.64L5.18 86.62C11.81 84.82 20.45 82.44 28.58 80.06ZM4.97 63.58C5.98 67.68 7.20 73.01 7.63 76.54L12.46 75.24C11.88 71.86 10.66 66.53 9.50 62.50ZM24.41 75.10C25.70 72.00 27.22 67.03 28.58 62.93L23.47 61.49C22.90 65.16 21.53 70.49 20.38 73.80ZM37.44 73.08C35.06 76.61 30.60 80.14 26.50 82.01C27.86 83.02 29.74 85.10 30.60 86.54C35.06 84.17 39.82 79.34 42.34 74.95ZM66.74 70.34L66.74 64.73L50.69 64.73L50.69 60.26L44.28 60.26L44.28 64.73L28.87 64.73L28.87 70.34L44.28 70.34L44.28 89.14L50.69 89.14L50.69 70.34ZM52.49 75.67C56.23 78.98 61.06 83.66 63.29 86.69L68.11 83.30C65.74 80.35 60.77 75.82 57.02 72.72Z"/></svg>
