<svg xmlns="http://www.w3.org/2000/svg" xmlns:xlink="http://www.w3.org/1999/xlink" width="72.00000000000001" height="106.56000000000002"><path fill="red" stroke="red" d="M26.57 31.82L26.57 36.94L13.18 36.94L13.18 31.82ZM13.18 47.52L13.18 41.90L26.57 41.90L26.57 47.52ZM32.83 26.21L6.55 26.21L6.55 89.14L13.18 89.14L13.18 52.99L32.83 52.99ZM45.14 47.66L45.14 41.90L59.04 41.90L59.04 47.66ZM59.04 31.82L59.04 36.94L45.14 36.94L45.14 31.82ZM65.88 26.21L38.74 26.21L38.74 53.06L59.04 53.06L59.04 80.57C59.04 81.86 58.61 82.30 57.17 82.37C55.73 82.37 50.69 82.44 45.94 82.22C46.94 84.10 48.10 87.26 48.31 89.14C55.01 89.14 59.40 88.99 62.21 87.91C64.94 86.76 65.88 84.74 65.88 80.57Z"/></svg>
