<svg xmlns="http://www.w3.org/2000/svg" xmlns:xlink="http://www.w3.org/1999/xlink" width="72.00000000000001" height="106.56000000000002"><path fill="red" stroke="red" d="M36.22 39.17C39.31 36.79 42.19 34.06 44.78 31.25C47.88 33.98 51.70 36.79 55.51 39.17ZM34.78 44.42L56.02 44.42L56.02 39.46C59.54 41.62 63.07 43.42 66.38 44.93C66.89 43.13 68.18 40.25 69.26 38.66C62.06 36.22 53.50 31.61 48.24 26.93C48.74 26.21 49.25 25.42 49.75 24.62L43.27 22.46C39.17 29.09 31.46 36.00 22.97 40.46C24.34 41.47 26.42 43.70 27.36 45.00C29.88 43.56 32.40 41.98 34.78 40.25ZM52.49 53.57L59.18 53.57L59.18 61.78L52.49 61.78ZM47.45 66.46L64.44 66.46L64.44 48.89L47.45 48.89ZM31.97 53.57L38.30 53.57L38.30 61.78L31.97 61.78ZM26.93 66.46L43.56 66.46L43.56 48.89L26.93 48.89ZM21.31 25.78L20.45 25.99L5.62 25.99L5.62 89.06L11.23 89.06L11.23 32.04L18.29 32.04C17.06 36.79 15.41 42.84 13.82 47.59C18.07 52.99 19.01 57.82 19.01 61.42C19.01 63.58 18.65 65.38 17.71 66.10C17.21 66.53 16.56 66.67 15.84 66.74C14.83 66.82 13.75 66.74 12.38 66.67C13.32 68.26 13.75 70.85 13.82 72.43C15.41 72.50 17.06 72.50 18.29 72.36C19.73 72.07 20.88 71.64 21.96 70.92C23.83 69.41 24.70 66.31 24.70 62.06C24.70 57.89 23.69 52.70 19.37 46.94C21.38 41.26 23.62 34.13 25.49 28.15ZM32.90 67.75C30.60 75.17 25.92 81.29 19.51 85.03C20.81 86.11 23.04 88.27 23.90 89.42C28.01 86.62 31.61 82.87 34.42 78.34C37.01 80.21 39.60 82.37 40.97 83.95L44.42 79.49C42.84 77.76 39.74 75.46 36.94 73.80C37.58 72.22 38.23 70.63 38.74 68.90ZM52.70 67.68C51.26 75.17 47.59 81.29 41.83 84.89C43.20 85.90 45.43 88.20 46.22 89.21C49.68 86.76 52.49 83.59 54.65 79.63C58.54 82.51 62.57 85.82 64.87 88.20L68.83 83.59C66.31 81.07 61.34 77.40 57.02 74.52C57.74 72.65 58.25 70.63 58.75 68.47Z"/></svg>
