<svg xmlns="http://www.w3.org/2000/svg" xmlns:xlink="http://www.w3.org/1999/xlink" width="72.00000000000001" height="106.56000000000002"><path fill="red" stroke="red" d="M23.69 72.50L19.22 74.38L19.22 51.05L23.83 51.05L23.83 45.86L19.22 45.86L19.22 24.41L13.97 24.41L13.97 76.46L10.66 77.76L10.66 38.66L5.98 38.66L5.98 79.49C4.90 79.92 3.96 80.28 3.02 80.57L4.54 86.40C10.51 84.02 17.93 80.93 25.06 77.98ZM31.25 76.46L31.25 50.90L36.14 50.90L36.14 45.72L31.25 45.72L31.25 24.48L25.78 24.48L25.78 75.24C25.78 78.98 23.98 81.58 22.68 82.66C23.76 83.45 25.56 85.39 26.21 86.54C27.22 85.25 29.09 83.95 38.88 78.41C38.38 77.18 37.66 74.95 37.30 73.37ZM46.37 70.13L53.57 70.13L53.57 80.35L46.37 80.35ZM53.57 50.69L46.37 50.69L46.37 41.76L53.57 41.76ZM53.57 64.87L46.37 64.87L46.37 55.94L53.57 55.94ZM68.54 80.35L59.18 80.35L59.18 70.13L66.38 70.13L66.38 64.87L59.18 64.87L59.18 55.94L66.38 55.94L66.38 50.69L59.18 50.69L59.18 41.76L68.18 41.76L68.18 36.07L55.80 36.07L60.05 34.42C59.47 31.68 57.89 27.58 56.23 24.55L51.41 26.28C52.92 29.30 54.36 33.34 54.86 36.07L47.52 36.07C48.60 32.11 49.61 28.01 50.47 24.05L45.00 22.90C42.98 34.20 39.60 45.43 34.99 52.99C36.00 54.29 37.58 57.38 38.16 58.75C39.02 57.38 39.89 55.73 40.75 54.07L40.75 89.14L46.37 89.14L46.37 85.82L68.54 85.82Z"/></svg>
