<svg xmlns="http://www.w3.org/2000/svg" xmlns:xlink="http://www.w3.org/1999/xlink" width="72.00000000000001" height="106.56000000000002"><path fill="red" stroke="red" d="M61.70 33.70C60.91 31.03 58.90 27.00 57.10 23.98L51.26 25.92C52.99 29.02 54.94 33.26 55.58 35.93ZM35.57 30.53L24.91 30.53C24.12 28.44 22.61 25.34 21.31 23.04L15.12 24.70C15.98 26.42 16.92 28.66 17.71 30.53L3.96 30.53L3.96 36.43L35.57 36.43ZM19.08 49.03C18.14 47.66 16.13 45.79 14.26 44.21C14.90 42.26 15.48 40.25 15.84 38.23L10.37 37.08C9.00 43.85 6.41 50.26 2.59 54.36C3.89 55.22 5.90 57.24 6.84 58.25C9.00 55.73 10.94 52.56 12.46 48.96C13.82 50.33 15.05 51.70 15.77 52.70ZM9.72 70.70C8.57 75.02 6.48 79.42 3.74 82.51C5.04 83.16 7.56 84.53 8.57 85.32C11.38 82.01 13.90 76.90 15.34 71.78ZM36.00 67.10L36.00 61.20L23.69 61.20L23.69 56.45L21.74 56.45C23.26 54.65 24.70 52.42 25.85 49.90C27.86 52.27 29.81 54.72 30.96 56.45L34.99 53.14C33.48 50.98 30.53 47.66 27.94 44.93C28.66 42.91 29.30 40.75 29.74 38.59L24.34 37.51C23.04 43.78 20.52 49.68 16.78 53.57C17.78 54.22 19.37 55.44 20.38 56.45L17.35 56.45L17.35 61.20L3.67 61.20L3.67 67.10L17.35 67.10L17.35 88.92L23.69 88.92L23.69 67.10ZM25.49 72.14C27.72 75.96 30.02 81.07 31.03 84.31L36.36 82.30C35.28 79.06 32.83 74.16 30.46 70.42ZM45.14 70.92L53.42 70.92L53.42 79.56L45.14 79.56ZM53.42 50.98L45.14 50.98L45.14 42.62L53.42 42.62ZM53.42 65.23L45.14 65.23L45.14 56.66L53.42 56.66ZM68.76 79.56L59.40 79.56L59.40 70.92L67.68 70.92L67.68 65.23L59.40 65.23L59.40 56.66L67.68 56.66L67.68 50.98L59.40 50.98L59.40 42.62L68.33 42.62L68.33 36.65L45.86 36.65C47.38 32.83 48.74 28.80 49.90 24.77L43.63 23.33C41.18 32.83 37.08 42.48 32.11 48.74C33.55 49.68 36.07 51.91 37.22 52.99C37.80 52.13 38.45 51.19 39.10 50.18L39.10 88.99L45.14 88.99L45.14 85.61L68.76 85.61Z"/></svg>
