<svg xmlns="http://www.w3.org/2000/svg" xmlns:xlink="http://www.w3.org/1999/xlink" width="72.00000000000001" height="106.56000000000002"><path fill="red" stroke="red" d="M31.03 62.21L16.20 62.21L16.20 66.46L31.03 66.46L31.03 68.90L31.03 69.98L17.35 69.98L17.35 74.09L30.60 74.09C30.46 75.17 30.17 76.18 29.81 77.26C23.69 77.69 17.93 78.12 13.61 78.34L14.62 82.87C18.50 82.58 23.04 82.15 27.86 81.65C26.57 83.66 24.84 85.61 22.32 87.19C23.90 87.77 26.50 88.99 27.79 89.78C35.57 84.24 36.94 75.38 36.94 68.98L36.94 58.68L31.03 58.68ZM25.34 35.42L25.34 38.95L16.27 38.95L16.27 43.27L25.34 43.27L25.34 58.46L30.53 58.46L30.53 43.27L39.46 43.27L39.46 38.95L30.53 38.95L30.53 35.42ZM22.39 45.07L18.43 45.07L18.43 48.02C18.43 50.76 17.93 54.43 14.90 56.74C15.91 57.24 17.57 58.54 18.29 59.47C21.82 56.38 22.39 51.98 22.39 48.24ZM47.38 45.00L43.49 45.00L43.49 47.95C43.49 50.40 42.98 53.57 40.46 55.73L40.25 53.14C39.60 53.35 38.59 53.42 38.09 53.42C37.44 53.42 37.37 52.99 37.37 51.84L37.37 45.22L33.48 45.22L33.48 51.77C33.48 54.86 34.06 56.30 37.01 56.30L38.16 56.30C38.66 56.30 39.24 56.30 39.74 56.23L39.60 56.30C40.61 56.88 42.19 58.10 42.91 58.97C46.73 56.02 47.38 51.77 47.38 48.02ZM50.33 35.35L50.33 38.88L41.40 38.88L41.40 43.20L50.33 43.20L50.33 58.25L55.51 58.25L55.51 43.20L66.24 43.20L66.24 38.88L55.51 38.88L55.51 35.35ZM58.10 45.00L58.10 53.14C58.10 56.38 58.68 57.82 61.99 57.82L64.87 57.82C65.88 57.82 67.18 57.82 67.68 57.60C67.54 56.59 67.46 55.51 67.46 54.58C66.82 54.79 65.45 54.79 64.73 54.79L63.07 54.79C62.21 54.79 62.14 54.43 62.14 53.14L62.14 45.00ZM50.04 74.38L65.02 74.38L65.02 69.98L50.04 69.98L50.04 66.60L66.46 66.60L66.46 62.21L50.04 62.21L50.04 58.46L43.85 58.46L43.85 89.21L50.04 89.21L50.04 82.51L68.18 82.51L68.18 77.98L50.04 77.98ZM42.70 28.44C41.98 26.64 40.97 24.41 40.03 22.68L33.48 24.48C34.06 25.70 34.56 27.07 35.14 28.44L7.49 28.44L7.49 49.68C7.49 60.19 7.13 74.95 2.52 85.39C3.89 86.04 6.55 88.06 7.63 89.28C12.74 78.05 13.61 60.84 13.61 49.68L13.61 33.98L68.33 33.98L68.33 28.44Z"/></svg>
