<svg xmlns="http://www.w3.org/2000/svg" xmlns:xlink="http://www.w3.org/1999/xlink" width="72.00000000000001" height="106.56000000000002"><path fill="red" stroke="red" d="M57.74 79.34L48.31 79.34L48.31 47.95L57.74 47.95ZM13.90 47.95L22.90 47.95L22.90 79.34L13.90 79.34ZM42.26 54.72L28.87 54.72L28.87 47.95L42.26 47.95ZM28.87 72.22L42.26 72.22L42.26 79.34L28.87 79.34ZM42.26 66.89L28.87 66.89L28.87 60.05L42.26 60.05ZM67.97 33.91L67.97 27.58L4.32 27.58L4.32 33.91L31.18 33.91C30.74 36.50 30.17 39.38 29.59 41.83L7.42 41.83L7.42 89.28L13.90 89.28L13.90 85.54L57.74 85.54L57.74 89.28L64.58 89.28L64.58 41.83L36.50 41.83C37.22 39.38 38.09 36.58 38.95 33.91Z"/></svg>
