<svg xmlns="http://www.w3.org/2000/svg" xmlns:xlink="http://www.w3.org/1999/xlink" width="72.00000000000001" height="106.56000000000002"><path fill="red" stroke="red" d="M59.83 48.89L42.26 48.89L42.26 42.91L59.83 42.91ZM59.83 59.62L42.26 59.62L42.26 53.57L59.83 53.57ZM59.83 70.42L42.26 70.42L42.26 64.30L59.83 64.30ZM36.22 37.87L36.22 75.38L66.17 75.38L66.17 37.87L53.14 37.87C53.78 36.00 54.43 33.98 55.08 31.97L68.11 31.97L68.11 26.21L34.13 26.21L34.13 31.97L47.95 31.97C47.59 33.91 47.16 36.00 46.73 37.87ZM6.34 55.44C6.34 66.74 5.98 76.82 2.09 85.03C3.38 85.90 5.54 87.84 6.41 88.99C11.30 79.70 11.81 68.33 11.81 55.51L11.81 25.70L6.34 25.70ZM16.20 79.13L20.95 79.13L20.95 30.82L16.20 30.82ZM31.18 25.42L25.70 25.42L25.70 86.69L31.18 86.69L31.18 85.32C32.47 86.54 34.06 88.20 34.85 89.28C39.74 87.19 45.43 83.38 49.03 79.78L43.63 76.39C40.97 79.27 35.71 82.80 31.18 84.82ZM53.42 79.92C57.46 82.66 62.50 86.62 64.87 89.21L70.06 85.54C67.46 82.94 62.28 79.20 58.39 76.68Z"/></svg>
