<svg xmlns="http://www.w3.org/2000/svg" xmlns:xlink="http://www.w3.org/1999/xlink" width="72.00000000000001" height="106.56000000000002"><path fill="red" stroke="red" d="M59.47 48.74L37.73 48.74L37.73 42.77L59.47 42.77ZM59.47 59.40L37.73 59.40L37.73 53.35L59.47 53.35ZM59.47 70.13L37.73 70.13L37.73 64.08L59.47 64.08ZM31.39 37.80L31.39 75.10L66.02 75.10L66.02 37.80L49.97 37.80C50.62 36.00 51.26 33.98 51.91 32.04L68.54 32.04L68.54 26.42L28.30 26.42L28.30 32.04L44.35 32.04C44.06 33.91 43.63 35.93 43.20 37.80ZM20.23 24.34C16.27 29.52 8.78 34.99 2.66 38.16C4.54 39.38 6.48 41.47 7.63 42.91C14.18 39.10 21.60 33.19 26.57 27.00ZM21.67 44.28C17.57 49.90 10.01 55.58 3.60 58.90C5.40 60.26 7.42 62.42 8.57 63.94C15.34 59.90 22.90 53.57 27.79 46.94ZM23.26 64.22C18.94 71.71 10.73 78.41 2.59 82.30C4.39 83.74 6.34 86.04 7.42 87.70C16.20 82.87 24.41 75.38 29.52 66.67ZM39.38 76.10C35.86 79.06 28.66 82.58 22.68 84.53C23.90 85.75 25.92 87.84 26.86 89.21C33.05 87.12 40.39 83.45 45.00 79.85ZM50.90 79.99C55.66 82.66 61.99 86.69 64.94 89.28L70.27 85.25C66.96 82.58 60.62 78.77 55.87 76.39Z"/></svg>
