<svg xmlns="http://www.w3.org/2000/svg" xmlns:xlink="http://www.w3.org/1999/xlink" width="72.00000000000001" height="106.56000000000002"><path fill="red" stroke="red" d="M60.26 48.46L46.15 48.46L46.15 42.91L60.26 42.91ZM60.26 59.04L46.15 59.04L46.15 53.35L60.26 53.35ZM60.26 69.55L46.15 69.55L46.15 63.86L60.26 63.86ZM40.61 37.73L40.61 74.74L66.02 74.74L66.02 37.73L55.15 37.73C55.66 35.93 56.16 33.98 56.66 32.04L68.18 32.04L68.18 26.35L38.81 26.35L38.81 32.04L49.97 32.04C49.75 33.84 49.46 35.93 49.18 37.73ZM19.22 76.82L25.42 76.82L25.42 80.21L19.22 80.21ZM25.42 65.52L19.22 65.52L19.22 62.21L25.42 62.21ZM25.42 72.79L19.22 72.79L19.22 69.48L25.42 69.48ZM30.74 41.11L30.74 46.37L12.02 46.37L12.02 41.11ZM38.02 80.21L30.02 80.21L30.02 76.82L36.86 76.82L36.86 72.79L30.02 72.79L30.02 69.48L36.79 69.48L36.79 65.52L30.02 65.52L30.02 62.21L37.51 62.21L37.51 57.82L30.60 57.82C29.95 56.02 28.87 53.78 27.79 52.06L23.33 53.21C24.05 54.65 24.77 56.30 25.34 57.82L20.09 57.82C20.66 56.23 21.31 54.58 21.82 52.92L17.06 51.70C15.91 55.80 13.97 59.98 11.74 63.36C11.95 59.11 12.02 55.01 12.02 51.55L12.02 51.48L36.72 51.48L36.72 35.93L12.02 35.93L12.02 33.05C20.52 32.26 29.81 30.89 36.50 28.87L31.61 24.41C25.78 26.28 15.34 27.79 6.48 28.58L6.41 28.58L6.41 51.55C6.41 61.63 6.19 75.89 2.30 85.97C3.82 86.47 6.34 87.77 7.42 88.70C9.50 83.09 10.66 75.96 11.30 69.05C11.81 69.70 12.24 70.34 12.46 70.78C13.03 70.06 13.61 69.34 14.18 68.62L14.18 88.42L19.22 88.42L19.22 84.82L36.86 84.82L36.07 85.25C37.44 86.33 39.46 88.13 40.39 89.35C44.42 87.05 49.18 83.02 52.27 79.42L46.73 76.25C44.93 78.77 41.40 82.01 38.02 84.10ZM55.44 79.34C58.61 82.15 62.42 86.18 64.22 88.78L69.26 85.32C67.32 82.73 63.43 78.91 60.26 76.32Z"/></svg>
