<svg xmlns="http://www.w3.org/2000/svg" xmlns:xlink="http://www.w3.org/1999/xlink" width="72.00000000000001" height="106.56000000000002"><path fill="red" stroke="red" d="M13.61 36.58C15.55 34.78 17.35 32.90 19.01 30.96C21.24 32.69 23.76 34.70 25.85 36.58ZM11.88 40.97L26.64 40.97L26.64 37.30C27.94 38.52 29.02 39.60 29.88 40.54L33.70 35.57C31.32 33.05 26.50 29.23 22.46 26.42C22.82 25.85 23.26 25.20 23.62 24.55L18.29 22.54C14.62 28.44 8.14 33.91 2.02 37.30C2.88 38.74 4.32 42.05 4.68 43.42C7.06 41.98 9.58 40.18 11.88 38.16ZM51.05 48.31L51.05 59.90L41.98 59.90L41.98 48.31ZM13.90 63.58L13.90 58.32L24.98 58.32L24.98 63.58ZM24.98 48.67L24.98 53.42L13.90 53.42L13.90 48.67ZM46.58 81.94C42.62 81.94 41.98 81.36 41.98 78.34L41.98 65.09L56.52 65.09L56.52 43.13L39.89 43.13C40.90 41.18 41.98 39.10 42.98 36.94L61.27 36.94C61.20 56.59 61.06 63.65 60.05 65.09C59.47 65.88 58.90 66.10 57.96 66.10C56.74 66.10 54.14 66.02 51.26 65.81C52.27 67.46 52.99 70.06 53.06 71.71C56.16 71.86 59.11 71.86 61.06 71.64C63.07 71.28 64.44 70.70 65.74 68.90C67.32 66.46 67.39 58.25 67.46 33.98L67.46 31.10L45.22 31.10C46.01 29.02 46.73 26.78 47.30 24.62L41.33 23.26C39.24 31.61 35.57 39.96 30.89 45.43L30.89 43.63L7.70 43.63L7.70 77.33C7.70 80.35 5.76 81.94 4.32 82.66C5.40 84.10 6.62 86.90 7.06 88.49C8.42 87.41 10.51 86.26 25.34 80.28C26.35 82.44 27.22 84.53 27.79 86.18L32.90 83.59C31.54 79.92 28.44 73.87 25.85 69.41L21.02 71.50C21.74 72.86 22.54 74.23 23.18 75.74L13.90 79.27L13.90 68.54L30.89 68.54L30.89 45.58C32.26 46.58 34.34 48.96 35.21 50.18C35.50 49.82 35.86 49.39 36.14 48.96L36.14 78.41C36.14 85.61 38.23 87.41 46.08 87.41L60.19 87.41C66.82 87.41 68.54 84.82 69.34 75.96C67.75 75.60 65.30 74.59 63.94 73.58C63.58 80.57 63.00 81.94 59.76 81.94Z"/></svg>
