<svg xmlns="http://www.w3.org/2000/svg" xmlns:xlink="http://www.w3.org/1999/xlink" width="72.00000000000001" height="106.56000000000002"><path fill="red" stroke="red" d="M12.53 41.11L24.77 41.11L24.77 36.50L13.46 36.50C15.05 34.85 16.63 33.12 18.07 31.25C21.67 33.34 25.85 35.93 28.01 37.66L31.03 32.33C28.80 30.74 24.77 28.37 21.31 26.57C21.74 25.85 22.18 25.06 22.61 24.34L17.06 22.39C13.82 28.22 7.99 33.70 2.38 37.08C3.38 38.59 4.82 42.05 5.33 43.34C7.78 41.69 10.22 39.67 12.53 37.44ZM22.18 49.68L22.18 54.50L13.10 54.50L13.10 49.68ZM13.10 64.44L13.10 59.33L22.18 59.33L22.18 64.44ZM18.79 72.58C19.58 74.02 20.30 75.46 21.10 77.04L13.10 79.92L13.10 69.41L28.01 69.41L28.01 44.71L6.98 44.71L6.98 78.98C6.98 81.65 5.26 82.66 3.96 83.16C4.90 84.67 5.90 87.48 6.26 89.06C7.63 87.98 9.72 86.98 23.33 81.65C24.26 83.74 25.13 85.61 25.70 87.19L30.89 84.53C29.52 81.00 26.35 74.88 23.69 70.42ZM36.43 65.95C34.63 70.92 32.04 76.46 29.52 80.28C30.89 81.00 33.26 82.51 34.34 83.45C36.79 79.34 39.89 73.01 41.90 67.54ZM67.97 62.78L67.97 56.81L52.63 56.81L52.63 49.54L63.00 49.54L63.00 43.70C63.79 44.28 64.66 44.78 65.45 45.22C66.31 43.34 68.18 41.26 69.70 39.67C63.29 36.58 57.46 32.90 52.34 27.43C52.92 26.57 53.42 25.78 53.93 24.91L48.74 22.68C44.57 29.88 36.65 36.36 28.73 40.03C30.24 41.40 31.82 43.42 32.69 44.93C38.66 41.76 44.42 37.22 48.96 31.82C53.35 36.65 57.96 40.39 63.00 43.70L35.78 43.70L35.78 49.54L46.44 49.54L46.44 56.81L31.32 56.81L31.32 62.78L46.44 62.78L46.44 82.44C46.44 83.30 46.15 83.59 45.22 83.59C44.42 83.59 41.62 83.59 38.88 83.52C39.67 84.96 40.61 87.48 40.97 89.06C45.14 89.06 48.02 88.99 50.04 88.06C51.98 87.12 52.63 85.61 52.63 82.44L52.63 62.78ZM56.38 67.68C58.97 72.65 62.28 79.34 63.79 83.38L69.12 80.78C67.54 76.90 64.15 70.34 61.49 65.45Z"/></svg>
