<svg xmlns="http://www.w3.org/2000/svg" xmlns:xlink="http://www.w3.org/1999/xlink" width="72.00000000000001" height="106.56000000000002"><path fill="red" stroke="red" d="M6.55 84.96C7.78 80.64 8.71 73.66 9.22 68.76L5.76 67.54C5.26 72.29 4.10 79.20 2.95 83.38ZM10.58 68.69C11.23 72.94 11.52 78.34 11.30 81.94L14.47 81.50C14.62 77.98 14.26 72.50 13.54 68.33ZM11.45 53.06L17.14 53.06L17.14 58.82L11.45 58.82ZM17.14 31.39L17.14 36.86L11.45 36.86L11.45 31.39ZM17.14 47.81L11.45 47.81L11.45 42.12L17.14 42.12ZM22.18 58.82L22.18 53.06L28.80 53.06L28.80 47.81L22.18 47.81L22.18 42.12L28.80 42.12L28.80 36.86L22.18 36.86L22.18 31.39L30.24 31.39L30.24 25.92L6.26 25.92L6.26 64.08L25.63 64.08C25.42 68.47 25.20 72.00 24.98 74.66C24.41 72.22 23.26 68.83 22.03 66.17L19.37 67.10C20.52 70.06 21.82 73.87 22.25 76.39L24.91 75.46C24.41 80.06 23.90 82.22 23.33 83.02C22.82 83.74 22.32 83.88 21.38 83.88C20.45 83.88 18.50 83.81 16.20 83.59C16.99 85.10 17.57 87.34 17.64 88.99C20.02 89.06 22.46 89.06 23.83 88.92C25.49 88.70 26.71 88.13 27.65 86.69C29.38 84.53 30.10 78.26 30.96 61.27C30.96 60.48 31.03 58.82 31.03 58.82ZM20.30 78.98C20.02 75.96 19.08 71.14 17.93 67.54L15.05 68.11C16.13 71.78 17.06 76.61 17.28 79.70ZM40.32 68.40L40.32 61.56L46.94 61.56L46.94 68.40ZM59.83 61.56L59.83 68.40L52.92 68.40L52.92 61.56ZM56.52 76.46C57.53 77.69 58.46 78.98 59.47 80.42L52.92 80.71L52.92 73.44L65.74 73.44L65.74 56.59L52.92 56.59L52.92 50.76L46.94 50.76L46.94 56.59L34.70 56.59L34.70 73.44L46.94 73.44L46.94 80.93C41.26 81.14 36.00 81.36 31.97 81.50L32.90 87.55C40.97 87.05 51.98 86.40 62.78 85.68C63.65 87.05 64.37 88.42 64.80 89.57L69.91 87.05C68.33 83.38 64.66 78.12 61.27 74.23ZM62.35 25.27L61.27 25.49L34.06 25.49L34.06 30.82L47.88 30.82L45.58 32.26C47.30 33.91 49.32 36.14 50.33 37.73L53.86 35.35C52.92 34.13 51.26 32.26 49.61 30.82L58.32 30.82C56.38 34.85 53.64 38.16 50.33 40.82C46.58 38.09 43.63 34.70 41.62 30.89L36.58 32.47C38.88 36.86 41.90 40.75 45.58 43.99C41.33 46.37 36.22 48.10 30.82 49.10C31.90 50.40 33.19 52.70 33.77 54.29C39.96 52.78 45.58 50.69 50.54 47.59C55.15 50.47 60.48 52.70 66.53 54.07C67.25 52.49 68.90 50.18 70.27 48.96C64.73 47.95 59.69 46.22 55.37 43.99C60.19 39.67 63.86 34.06 66.10 26.64ZM38.95 43.42C38.23 41.26 36.43 38.02 34.56 35.71L30.60 37.22C32.40 39.67 34.13 42.98 34.85 45.29Z"/></svg>
