<svg xmlns="http://www.w3.org/2000/svg" xmlns:xlink="http://www.w3.org/1999/xlink" width="72.00000000000001" height="106.56000000000002"><path fill="red" stroke="red" d="M17.06 55.87L23.18 55.87L23.18 45.22C25.78 47.23 28.94 49.82 30.46 51.34L33.77 46.66C32.18 45.50 26.78 42.05 24.05 40.32L34.20 40.32C35.57 41.18 37.51 42.48 38.38 43.34C40.32 41.33 42.05 38.88 43.70 36.14L49.18 36.14C47.02 41.33 43.63 45.86 39.46 48.96C40.97 49.75 43.42 51.48 44.57 52.42C48.96 48.53 53.06 42.77 55.51 36.14L60.77 36.14C60.12 45.14 59.40 48.67 58.54 49.75C58.03 50.40 57.46 50.54 56.59 50.54C55.58 50.54 53.78 50.54 51.55 50.26C52.34 51.84 52.99 54.29 53.06 56.02C55.73 56.16 58.25 56.09 59.62 55.94C61.42 55.73 62.57 55.22 63.72 53.86C65.52 51.91 66.24 46.51 67.10 33.05C67.18 32.18 67.25 30.53 67.25 30.53L46.58 30.53C47.52 28.51 48.24 26.35 48.89 24.26L43.20 23.04C41.47 28.87 38.59 34.42 34.92 38.45L34.92 35.21L23.18 35.21L23.18 29.81C27.22 29.23 31.03 28.37 34.13 27.36L30.24 23.11C24.26 25.13 13.46 26.42 4.46 27.14C4.97 28.37 5.69 30.31 5.90 31.54C9.43 31.39 13.25 31.10 17.06 30.67L17.06 35.21L4.32 35.21L4.32 40.32L15.48 40.32C12.17 44.93 7.13 49.39 2.81 51.91C4.10 52.92 5.90 54.86 6.84 56.23C10.22 53.93 13.97 50.33 17.06 46.30ZM50.76 65.95C48.89 68.11 46.08 70.78 43.34 73.01C41.90 72.43 40.54 71.93 39.17 71.50L39.17 61.27L32.90 61.27L32.90 72.29C23.83 75.60 14.33 78.98 8.21 81.00L11.16 86.26C17.35 83.81 25.27 80.57 32.90 77.40L32.90 83.02C32.90 83.74 32.69 83.95 31.82 83.95C31.10 84.02 28.73 84.02 26.14 83.95C26.93 85.39 27.72 87.62 28.01 89.28C31.97 89.28 34.78 89.21 36.72 88.27C38.66 87.48 39.17 85.97 39.17 83.16L39.17 76.82C46.66 79.85 54.86 83.88 59.62 86.76L63.00 82.22C59.40 80.21 54.14 77.62 48.60 75.24C51.19 73.22 53.93 70.92 56.16 68.54ZM27.94 72.36C26.78 70.49 24.34 67.75 21.96 65.81L17.14 68.54C19.30 70.63 21.67 73.66 22.82 75.53ZM36.79 48.53C29.45 55.94 15.48 62.21 2.88 65.45C4.25 66.96 5.83 69.05 6.62 70.70C17.06 67.54 27.94 62.50 36.29 56.30C45.79 63.36 55.44 67.18 65.02 70.06C65.81 68.18 67.46 65.88 68.98 64.44C59.33 61.99 49.54 58.90 40.54 52.78C40.97 52.34 41.47 51.91 41.98 51.41Z"/></svg>
