<svg xmlns="http://www.w3.org/2000/svg" xmlns:xlink="http://www.w3.org/1999/xlink" width="72.00000000000001" height="106.56000000000002"><path fill="red" stroke="red" d="M29.81 82.01C22.90 82.01 21.60 81.00 21.60 75.82L21.60 52.56L34.78 48.46L34.78 73.58L41.47 73.58L41.47 46.37L56.66 41.62C56.30 50.40 55.66 60.19 54.72 66.24L60.26 67.82C61.78 59.47 62.78 46.44 63.22 36.50L63.50 35.35L58.46 33.77L56.59 35.14L41.47 39.82L41.47 23.33L34.78 23.33L34.78 41.90L21.60 46.01L21.60 28.08L15.05 28.08L15.05 48.02L2.38 51.98L4.18 58.03L15.05 54.65L15.05 75.67C15.05 85.61 18.50 88.06 29.95 88.06L53.86 88.06C64.73 88.06 67.25 84.24 68.47 72.65C66.60 72.22 63.86 71.06 62.21 69.98C61.20 79.92 60.12 82.01 53.57 82.01Z"/></svg>
