<svg xmlns="http://www.w3.org/2000/svg" xmlns:xlink="http://www.w3.org/1999/xlink" width="72.00000000000001" height="106.56000000000002"><path fill="red" stroke="red" d="M11.59 55.73L26.93 55.73L26.93 61.63L11.59 61.63ZM11.59 45.72L26.93 45.72L26.93 51.62L11.59 51.62ZM22.61 66.82L33.12 66.82L33.12 44.57C34.70 45.50 37.37 47.30 38.45 48.38C40.46 46.08 42.34 43.13 44.14 39.89L68.33 39.89L68.33 33.55L47.23 33.55C48.46 30.82 49.46 27.94 50.40 25.06L43.99 23.47C41.69 31.32 37.73 39.17 33.12 44.35L33.12 40.54L22.46 40.54L22.46 34.56L34.78 34.56L34.78 29.30L22.46 29.30L22.46 23.11L15.98 23.11L15.98 29.30L3.89 29.30L3.89 34.56L15.98 34.56L15.98 40.54L5.62 40.54L5.62 66.82L16.13 66.82L16.13 72.79L3.46 72.79L3.46 78.12L16.13 78.12L16.13 88.49L22.61 88.49L22.61 78.12L34.63 78.12L34.63 72.79L22.61 72.79ZM47.52 81.72C45.22 81.72 43.78 81.14 43.78 79.56C43.78 77.18 45.14 73.80 64.01 51.91C64.30 51.48 64.58 50.98 64.80 50.47L60.41 48.89L58.90 48.96L38.66 48.96L38.66 55.15L52.63 55.15C37.73 73.44 37.08 77.26 37.08 80.57C37.08 85.25 40.32 88.06 47.45 88.06L60.41 88.06C66.38 88.06 68.62 86.04 69.34 74.30C67.54 74.09 65.38 73.22 63.72 72.22C63.50 80.57 62.86 81.72 60.62 81.72Z"/></svg>
