<svg xmlns="http://www.w3.org/2000/svg" xmlns:xlink="http://www.w3.org/1999/xlink" width="72.00000000000001" height="106.56000000000002"><path fill="red" stroke="red" d="M19.51 22.90C15.48 33.48 8.71 43.92 1.66 50.54C2.81 52.13 4.68 55.73 5.33 57.31C7.70 54.94 10.08 52.13 12.31 49.10L12.31 89.50L18.65 89.50L18.65 39.46C21.38 34.78 23.76 29.81 25.78 24.98ZM31.54 57.60L31.54 48.46L42.55 48.46L42.55 55.37L42.55 57.60ZM60.55 48.46L60.55 57.60L49.18 57.60C49.18 56.88 49.18 56.09 49.18 55.37L49.18 48.46ZM66.96 63.14L66.96 42.91L49.18 42.91L49.18 36.72L69.05 36.72L69.05 30.60L49.18 30.60L49.18 23.47L42.55 23.47L42.55 30.60L23.62 30.60L23.62 36.72L42.55 36.72L42.55 42.91L25.42 42.91L25.42 63.14L42.12 63.14C41.69 66.60 40.75 69.91 38.88 72.94C35.57 70.49 32.83 67.61 30.82 64.30L25.34 66.02C27.86 70.42 31.10 74.16 34.99 77.33C31.82 79.99 27.22 82.30 20.81 83.81C22.25 85.18 24.12 87.84 24.91 89.35C31.90 87.26 36.86 84.46 40.46 81.07C47.45 85.18 56.02 87.84 65.95 89.28C66.82 87.41 68.62 84.67 69.91 83.23C59.98 82.22 51.26 79.92 44.35 76.32C47.02 72.36 48.17 67.90 48.74 63.14Z"/></svg>
