<svg xmlns="http://www.w3.org/2000/svg" xmlns:xlink="http://www.w3.org/1999/xlink" width="72.00000000000001" height="106.56000000000002"><path fill="red" stroke="red" d="M48.96 56.09L55.37 56.09L54.50 56.59C55.66 57.53 56.81 58.54 57.96 59.62L48.96 59.76ZM32.26 52.13L32.26 48.31L42.41 48.31L42.41 52.13ZM32.26 40.75L42.41 40.75L42.41 44.50L32.26 44.50ZM59.40 40.75L59.40 44.50L48.96 44.50L48.96 40.75ZM48.96 52.13L48.96 48.31L59.40 48.31L59.40 52.13ZM59.40 64.22L62.50 64.08C63.43 65.16 64.22 66.17 64.87 67.03L69.62 64.08C67.90 61.85 64.66 58.68 61.49 56.09L65.88 56.09L65.88 36.79L48.96 36.79L48.96 33.34L68.40 33.34L68.40 28.30L48.96 28.30L48.96 23.69L42.41 23.69L42.41 28.30L23.47 28.30C23.90 27.29 24.34 26.28 24.70 25.27L18.43 23.40C14.54 33.91 8.14 44.42 1.37 51.12C2.45 52.70 4.39 56.30 5.04 57.89C7.13 55.66 9.22 53.14 11.23 50.40L11.23 89.06L17.57 89.06L17.57 40.46C19.66 36.72 21.60 32.83 23.26 28.87L23.26 33.34L42.41 33.34L42.41 36.79L26.14 36.79L26.14 56.09L42.41 56.09L42.41 59.83C34.99 59.98 28.15 60.05 22.90 60.05L23.47 65.23C31.39 65.09 41.98 64.80 52.92 64.44L52.92 68.40L21.46 68.40L21.46 73.73L32.26 73.73L28.44 76.03C31.68 78.98 35.50 83.16 37.22 85.82L42.41 82.30C40.75 79.85 37.30 76.32 34.27 73.73L52.92 73.73L52.92 82.44C52.92 83.38 52.63 83.66 51.62 83.66C50.47 83.74 46.80 83.74 42.91 83.59C43.70 85.25 44.57 87.55 44.86 89.28C50.18 89.28 53.93 89.28 56.30 88.34C58.75 87.55 59.40 85.90 59.40 82.66L59.40 73.73L69.12 73.73L69.12 68.40L59.40 68.40Z"/></svg>
