<svg xmlns="http://www.w3.org/2000/svg" xmlns:xlink="http://www.w3.org/1999/xlink" width="72.00000000000001" height="106.56000000000002"><path fill="red" stroke="red" d="M39.02 66.10L39.02 58.54L54.07 58.54L54.07 66.10ZM17.86 58.54L32.40 58.54L32.40 66.10L17.86 66.10ZM32.40 45.50L32.40 52.85L17.86 52.85L17.86 45.50ZM54.07 45.50L54.07 52.85L39.02 52.85L39.02 45.50ZM69.19 66.10L60.70 66.10L60.70 39.46L39.02 39.46L39.02 33.41L66.38 33.41L66.38 27.22L5.69 27.22L5.69 33.41L32.40 33.41L32.40 39.46L11.23 39.46L11.23 66.10L2.95 66.10L2.95 72.29L11.23 72.29L11.23 89.28L17.86 89.28L17.86 72.29L54.07 72.29L54.07 81.43C54.07 82.58 53.64 82.94 52.27 83.02C51.12 83.02 46.44 83.09 42.05 82.94C43.06 84.60 44.14 87.48 44.50 89.28C50.62 89.28 54.65 89.21 57.24 88.13C59.83 87.12 60.70 85.18 60.70 81.50L60.70 72.29L69.19 72.29Z"/></svg>
