<svg xmlns="http://www.w3.org/2000/svg" xmlns:xlink="http://www.w3.org/1999/xlink" width="72.00000000000001" height="106.56000000000002"><path fill="red" stroke="red" d="M34.27 45.79C36.22 45.79 38.23 45.72 39.31 45.36C39.17 43.99 38.95 41.76 38.81 40.18C37.66 40.46 35.50 40.61 34.06 40.61L26.28 40.61C24.77 40.61 24.48 39.89 24.48 37.80L24.48 34.27L38.74 34.27L38.74 29.38L24.48 29.38L24.48 23.11L18.50 23.11L18.50 37.66C18.50 43.49 19.94 45.79 25.92 45.79ZM16.70 42.70C14.98 38.52 11.38 31.54 8.64 26.28L3.38 28.80C6.12 34.20 9.65 41.47 11.16 45.72ZM11.16 59.90C8.57 68.04 5.11 77.18 2.59 82.80L8.28 85.54C10.87 78.98 13.82 70.42 16.20 62.78ZM40.46 70.34L40.46 65.02L32.40 65.02C32.47 64.22 32.47 63.43 32.47 62.71L32.47 57.02L39.67 57.02L39.67 51.55L25.34 51.55C25.85 50.11 26.21 48.67 26.57 47.23L21.17 46.01C20.02 51.48 18.14 57.38 15.62 61.42C16.99 62.14 19.22 63.50 20.23 64.30C21.38 62.28 22.54 59.76 23.54 57.02L26.64 57.02L26.64 62.64C26.64 63.36 26.64 64.15 26.57 65.02L17.28 65.02L17.28 70.34L25.85 70.34C24.70 75.53 21.89 81.14 14.98 85.32C16.42 86.33 18.29 88.13 19.22 89.42C24.55 85.90 27.79 81.65 29.74 77.40C31.97 79.63 34.20 82.01 35.42 83.66L39.46 79.70C37.73 77.47 34.34 74.38 31.46 72.07C31.61 71.50 31.75 70.92 31.82 70.34ZM62.93 82.73C61.13 82.73 59.47 82.58 57.74 82.08L57.74 69.41L67.97 69.41L67.97 63.94L57.74 63.94L57.74 52.85L63.00 52.85C62.64 55.01 62.28 57.17 61.92 58.75L66.46 59.83C67.39 56.74 68.33 51.91 69.12 47.74L65.38 47.02L64.44 47.16L59.40 47.16L62.57 43.49C61.42 42.55 59.83 41.33 58.10 40.10C61.85 36.43 65.66 31.75 68.26 27.43L64.08 24.55L62.86 24.98L41.90 24.98L41.90 30.46L58.75 30.46C57.17 32.69 55.30 35.06 53.35 37.01C51.62 35.86 49.90 34.85 48.24 33.98L44.42 37.80C48.89 40.39 54.50 44.28 57.82 47.16L40.97 47.16L40.97 52.85L51.84 52.85L51.84 78.19C50.04 76.10 48.53 72.94 47.45 68.40C47.74 65.16 47.95 61.63 48.02 57.96L42.98 57.96C42.70 69.41 41.76 79.49 36.79 85.10C38.02 85.97 39.74 87.91 40.54 89.21C43.20 86.18 44.93 82.22 46.01 77.62C49.97 86.47 55.73 88.42 62.57 88.42L68.26 88.42C68.47 86.83 69.26 84.10 70.06 82.73Z"/></svg>
