<svg xmlns="http://www.w3.org/2000/svg" xmlns:xlink="http://www.w3.org/1999/xlink" width="72.00000000000001" height="106.56000000000002"><path fill="red" stroke="red" d="M15.70 75.89L34.49 75.89L34.49 55.30L30.67 55.30L30.67 71.21L27.36 71.21L27.36 51.26L35.93 51.26L35.93 46.15L31.10 46.15C32.40 42.70 33.77 38.16 35.06 34.27L29.88 33.05C29.23 36.94 27.86 42.34 26.57 46.15L14.33 46.15L14.33 51.26L23.26 51.26L23.26 71.21L19.51 71.21L19.51 55.30L15.70 55.30ZM15.62 34.42C17.21 37.87 18.65 42.48 18.94 45.29L23.33 43.99C22.97 41.18 21.46 36.79 19.80 33.48ZM43.85 25.99L6.19 25.99L6.19 89.21L12.02 89.21L12.02 31.90L37.94 31.90L37.94 81.22C37.94 82.44 37.58 82.80 36.43 82.80C35.28 82.80 31.54 82.87 27.65 82.73C28.51 84.31 29.38 87.05 29.59 88.63C35.21 88.63 38.74 88.49 40.97 87.48C43.13 86.47 43.85 84.67 43.85 81.36ZM55.80 30.74L49.97 30.74L49.97 71.06L55.80 71.06ZM60.55 24.48L60.55 81.29C60.55 82.51 60.05 82.87 58.90 82.87C57.82 82.94 54.14 82.94 50.11 82.80C50.98 84.46 51.77 87.19 52.06 88.78C57.82 88.85 61.34 88.63 63.50 87.55C65.66 86.62 66.53 84.96 66.53 81.29L66.53 24.48Z"/></svg>
