<svg xmlns="http://www.w3.org/2000/svg" xmlns:xlink="http://www.w3.org/1999/xlink" width="72.00000000000001" height="106.56000000000002"><path fill="red" stroke="red" d="M16.99 64.66C16.56 69.41 15.41 72.14 11.52 73.73L11.52 64.66ZM15.77 54.36L28.15 54.36L28.15 58.97L15.77 58.97ZM28.15 35.35L28.15 39.82L15.77 39.82L15.77 35.35ZM15.77 44.71L28.15 44.71L28.15 49.39L15.77 49.39ZM53.14 39.38C53.21 34.42 53.28 29.23 53.28 23.90L47.02 23.90C47.02 29.30 47.02 34.42 46.94 39.38L40.10 39.38L40.10 45.65L46.80 45.65C46.30 61.42 44.57 74.38 38.38 82.94L38.09 80.35C36.43 80.71 33.19 80.86 31.10 80.86L14.76 80.86C12.17 80.86 11.52 79.99 11.52 77.54L11.52 74.23C12.46 75.17 13.39 76.61 13.75 77.54C19.66 75.38 21.46 71.42 21.96 64.66L25.78 64.66L25.78 69.19C25.78 74.45 26.78 76.18 31.68 76.18L35.28 76.18C36.43 76.18 37.66 76.10 38.52 75.89C38.38 74.66 38.23 72.43 38.02 71.06C37.22 71.35 35.93 71.42 35.21 71.42L31.68 71.42C30.96 71.42 30.82 70.92 30.82 69.26L30.82 64.66L39.60 64.66L39.60 58.97L34.13 58.97L34.13 35.35L39.10 35.35L39.10 29.81L34.13 29.81L34.13 23.04L28.15 23.04L28.15 29.81L15.77 29.81L15.77 23.04L9.79 23.04L9.79 29.81L3.89 29.81L3.89 35.35L9.79 35.35L9.79 58.97L2.95 58.97L2.95 64.66L5.76 64.66L5.76 77.47C5.76 84.24 7.92 86.33 15.19 86.33L31.10 86.33C34.06 86.33 37.30 86.26 38.66 85.82L38.52 85.03C39.96 86.11 41.40 87.77 42.19 88.85C50.11 79.13 52.27 64.01 52.92 45.65L60.62 45.65C60.05 70.27 59.33 79.34 57.82 81.22C57.17 82.22 56.52 82.44 55.44 82.44C54.14 82.44 51.55 82.37 48.53 82.15C49.54 83.88 50.18 86.54 50.33 88.34C53.42 88.42 56.45 88.49 58.46 88.20C60.55 87.84 61.99 87.19 63.36 85.25C65.52 82.15 66.17 72.14 66.89 42.48C66.96 41.62 66.96 39.38 66.96 39.38Z"/></svg>
