<svg xmlns="http://www.w3.org/2000/svg" xmlns:xlink="http://www.w3.org/1999/xlink" width="72.00000000000001" height="106.56000000000002"><path fill="red" stroke="red" d="M21.67 23.47C17.21 34.13 9.79 44.57 2.16 51.12C3.38 52.70 5.26 56.30 5.83 57.89C8.78 55.15 11.66 51.91 14.40 48.31L14.40 89.14L20.74 89.14L20.74 39.10C23.40 34.70 25.85 30.10 27.79 25.49ZM45.36 81.07C41.76 81.07 41.04 80.28 41.04 76.25L41.04 49.75L66.38 49.75L66.38 43.34L41.04 43.34L41.04 24.34L34.63 24.34L34.63 76.10C34.63 84.74 36.86 87.12 44.78 87.12L57.67 87.12C65.81 87.12 67.46 82.37 68.40 68.90C66.67 68.47 63.94 67.18 62.35 65.95C61.78 78.05 61.13 81.07 57.24 81.07Z"/></svg>
