<svg xmlns="http://www.w3.org/2000/svg" xmlns:xlink="http://www.w3.org/1999/xlink" width="72.00000000000001" height="106.56000000000002"><path fill="red" stroke="red" d="M60.41 36.36C57.17 32.76 50.62 27.72 45.58 24.34L40.61 26.78C42.55 28.08 44.57 29.59 46.51 31.18L24.70 31.82C28.01 29.95 31.32 27.86 34.42 25.63L28.51 22.61C24.19 26.42 18.14 29.81 16.20 30.67C14.54 31.61 12.96 32.26 11.66 32.47C12.31 33.91 13.25 36.86 13.54 38.02C16.20 37.15 19.80 37.22 51.91 35.86C53.21 37.08 54.22 38.16 55.08 39.17ZM53.50 69.41C45.58 77.62 29.52 81.94 12.17 83.88C13.46 85.32 14.76 87.70 15.26 89.28C33.48 86.76 49.90 81.65 58.97 72.07ZM45.36 62.28C38.88 67.46 26.50 71.50 15.55 73.58C16.85 74.88 18.29 76.97 19.01 78.34C30.46 75.74 42.91 71.14 50.47 64.80ZM37.66 55.51C32.69 59.26 23.18 62.78 15.84 64.58C17.21 65.74 18.65 67.46 19.51 68.69C27.29 66.46 36.50 62.50 42.48 57.96ZM67.82 51.70C66.46 48.53 63.22 44.06 60.19 40.82L55.44 42.84C56.30 43.85 57.24 44.93 58.03 46.08L49.97 46.51C51.48 44.64 52.99 42.55 54.14 40.54L48.17 38.09C47.02 41.40 44.64 44.64 43.92 45.43C43.27 46.37 42.41 46.94 41.62 47.16L41.83 47.66C40.75 46.73 39.82 45.72 38.95 44.78C39.38 44.06 39.82 43.34 40.18 42.62L34.06 40.82C32.62 43.49 30.67 45.94 28.51 48.24C27.50 46.15 26.06 43.92 24.84 42.05L20.09 43.56C20.74 44.50 21.31 45.43 21.96 46.51L15.12 46.80C17.06 44.86 18.86 42.55 20.45 40.32L14.47 37.80C12.67 41.33 9.79 44.78 8.86 45.65C8.06 46.58 7.06 47.23 6.19 47.45C6.91 48.89 7.92 51.62 8.28 52.85C9.58 52.34 11.74 52.06 24.19 51.34L24.41 51.84C18.50 56.45 11.02 59.83 2.88 62.06C4.10 63.36 5.90 66.02 6.62 67.32C18.00 63.58 28.30 57.74 35.50 49.32C43.13 57.17 54.58 63.58 65.81 66.82C66.82 65.23 68.62 62.86 70.06 61.56C61.99 59.62 53.86 56.09 47.23 51.84C49.75 51.55 53.86 51.26 61.20 50.69C61.85 51.91 62.42 52.92 62.78 53.93Z"/></svg>
