<svg xmlns="http://www.w3.org/2000/svg" xmlns:xlink="http://www.w3.org/1999/xlink" width="72.00000000000001" height="106.56000000000002"><path fill="red" stroke="red" d="M52.78 67.75L52.78 79.63L20.02 79.63L20.02 67.75ZM13.25 89.64L20.02 89.64L20.02 85.82L52.78 85.82L52.78 89.50L59.76 89.50L59.76 61.56L13.25 61.56ZM41.26 49.03L41.26 39.10L62.57 39.10L62.57 32.98L41.26 32.98L41.26 23.18L34.20 23.18L34.20 32.98L20.81 32.98C21.96 30.46 23.04 27.79 23.98 25.20L17.28 23.62C14.69 31.46 10.15 39.53 4.97 44.42C6.62 45.29 9.65 47.09 11.09 48.02C13.25 45.58 15.41 42.55 17.50 39.10L34.20 39.10L34.20 49.03L4.68 49.03L4.68 55.30L67.54 55.30L67.54 49.03Z"/></svg>
