<svg xmlns="http://www.w3.org/2000/svg" xmlns:xlink="http://www.w3.org/1999/xlink" width="72.00000000000001" height="106.56000000000002"><path fill="red" stroke="red" d="M55.44 45.07L55.44 49.75L43.78 49.75L43.78 45.07ZM55.44 59.47L43.78 59.47L43.78 54.79L55.44 54.79ZM55.80 81.36L26.78 81.36L26.78 74.16L55.80 74.16ZM67.68 35.42L67.68 29.52L44.78 29.52C43.92 27.29 42.62 24.55 41.33 22.32L34.85 23.98C35.71 25.63 36.65 27.72 37.37 29.52L8.57 29.52L8.57 50.40C8.57 60.91 8.06 75.60 2.38 85.90C3.82 86.54 6.62 88.34 7.78 89.50C13.97 78.55 14.98 61.78 14.98 50.40L14.98 35.42L37.37 35.42L37.37 40.18L20.81 40.18L20.81 45.07L37.37 45.07L37.37 49.75L16.42 49.75L16.42 54.79L37.37 54.79L37.37 59.47L20.30 59.47L20.30 64.37L37.37 64.37L37.37 69.19L20.09 69.19L20.09 89.28L26.78 89.28L26.78 86.47L55.80 86.47L55.80 89.28L62.86 89.28L62.86 69.19L43.78 69.19L43.78 64.37L61.85 64.37L61.85 54.79L67.54 54.79L67.54 49.75L61.85 49.75L61.85 40.18L43.78 40.18L43.78 35.42Z"/></svg>
