<svg xmlns="http://www.w3.org/2000/svg" xmlns:xlink="http://www.w3.org/1999/xlink" width="72.00000000000001" height="106.56000000000002"><path fill="red" stroke="red" d="M30.67 60.12L37.80 60.12L37.80 66.82L30.67 66.82ZM37.80 37.37L37.80 43.49L30.67 43.49L30.67 37.37ZM30.67 48.53L37.80 48.53L37.80 55.08L30.67 55.08ZM46.51 66.82L42.91 66.82L42.91 37.37L46.08 37.37L46.08 31.97L42.91 31.97L42.91 23.98L37.80 23.98L37.80 31.97L30.67 31.97L30.67 23.98L25.63 23.98L25.63 31.97L22.18 31.97L22.18 37.37L25.63 37.37L25.63 66.82L21.38 66.82L21.38 72.14L46.51 72.14ZM15.34 34.92L15.34 68.33L10.22 68.33L10.22 34.92ZM20.52 74.02L20.52 29.30L5.11 29.30L5.11 80.28L10.22 80.28L10.22 74.02ZM25.92 73.51C24.26 77.62 21.38 81.72 18.07 84.53C19.44 85.32 21.89 87.05 22.90 87.98C26.06 84.82 29.52 79.78 31.61 75.10ZM35.14 75.53C36.94 77.83 39.02 81.07 39.82 83.16L44.57 80.64C43.63 78.62 41.54 75.60 39.67 73.30ZM69.12 47.09L53.64 47.09L53.64 34.20C58.90 32.69 64.37 30.74 68.62 28.51L63.65 24.05C60.19 26.50 53.93 28.87 48.38 30.60L48.17 30.60L48.17 56.74C48.17 65.88 47.74 77.47 42.55 85.68C43.70 86.33 46.01 88.34 46.87 89.50C52.70 80.57 53.64 66.74 53.64 56.74L53.64 52.78L59.40 52.78L59.40 89.21L64.87 89.21L64.87 52.78L69.12 52.78Z"/></svg>
