<svg xmlns="http://www.w3.org/2000/svg" xmlns:xlink="http://www.w3.org/1999/xlink" width="72.00000000000001" height="106.56000000000002"><path fill="red" stroke="red" d="M15.12 63.00L10.01 63.00L10.01 35.42L15.12 35.42ZM70.13 73.22C69.55 68.04 67.82 60.26 65.74 54.29L62.14 55.66L62.14 51.70L69.12 51.70L69.12 46.01L59.54 46.01L59.54 38.02L68.04 38.02L68.04 32.62L59.54 32.62L59.54 23.47L53.57 23.47L53.57 32.62L46.15 32.62L46.15 38.02L53.57 38.02L53.57 46.01L45.00 46.01L45.00 51.70L49.75 51.70L49.75 55.73L45.79 55.08C45.50 57.89 45.22 60.55 44.64 63.00C43.92 60.48 42.84 57.67 41.76 55.30L38.74 56.66L38.74 51.70L43.63 51.70L43.63 46.01L35.93 46.01L35.93 38.02L43.42 38.02L43.42 32.62L35.93 32.62L35.93 23.47L30.10 23.47L30.10 32.62L22.61 32.62L22.61 38.02L30.10 38.02L30.10 46.01L21.31 46.01L21.31 51.70L26.35 51.70L26.35 55.51L22.32 54.94C21.82 58.54 21.10 61.99 20.09 65.09L20.09 29.88L5.18 29.88L5.18 74.38L10.01 74.38L10.01 68.62L18.72 68.62C17.86 70.49 16.85 72.22 15.70 73.66C16.78 74.16 18.79 75.24 19.58 75.96C22.82 71.42 25.06 64.94 26.35 57.74L26.35 61.20C26.35 69.19 25.13 78.84 15.41 86.18C16.56 87.12 18.14 88.49 19.01 89.57C29.38 81.43 30.82 70.78 30.82 61.27L30.82 51.70L34.06 51.70L34.06 83.23C34.06 83.95 33.91 84.10 33.12 84.17C32.47 84.17 30.38 84.17 27.94 84.10C28.58 85.54 29.23 87.77 29.45 89.14C32.90 89.14 35.14 88.99 36.72 88.20C38.30 87.26 38.74 85.75 38.74 83.30L38.74 58.03C40.10 61.42 41.33 65.45 41.83 68.18L43.42 67.46C42.70 69.48 41.76 71.35 40.61 72.94C41.54 73.51 43.27 74.81 43.92 75.53C47.09 71.06 48.74 64.58 49.75 57.38L49.75 61.85C49.75 69.62 48.67 78.91 40.10 86.04C41.26 86.90 42.84 88.34 43.78 89.42C52.99 81.43 54.29 71.28 54.29 61.92L54.29 51.70L57.38 51.70L57.38 83.30C57.38 83.95 57.17 84.10 56.52 84.17L51.70 84.17C52.27 85.61 52.85 87.84 52.99 89.14C56.45 89.14 58.68 89.06 60.19 88.20C61.78 87.26 62.14 85.75 62.14 83.30L62.14 56.95C63.94 62.71 65.52 69.91 65.88 74.81Z"/></svg>
