<svg xmlns="http://www.w3.org/2000/svg" xmlns:xlink="http://www.w3.org/1999/xlink" width="72.00000000000001" height="106.56000000000002"><path fill="red" stroke="red" d="M16.34 33.55L16.34 66.24L10.22 66.24L10.22 33.55ZM21.10 28.22L5.40 28.22L5.40 78.34L10.22 78.34L10.22 71.64L21.10 71.64ZM30.10 64.22C32.26 65.16 34.99 66.60 36.50 67.54L38.88 64.30L38.88 70.34C35.50 71.64 32.33 72.86 29.81 73.73C30.02 71.21 30.10 68.90 30.10 66.89ZM38.88 57.74L38.88 63.79C37.30 62.86 34.49 61.63 32.47 60.84L30.10 63.65L30.10 57.74ZM44.28 52.70L24.84 52.70L24.84 66.82C24.84 72.72 24.55 80.50 21.31 86.26C22.54 86.83 24.84 88.49 25.70 89.35C28.15 85.18 29.30 79.70 29.81 74.45L31.39 78.48C33.77 77.26 36.29 76.03 38.88 74.66L38.88 82.51C38.88 83.16 38.66 83.38 37.94 83.45C37.37 83.45 35.28 83.45 33.05 83.38C33.84 84.74 34.70 87.19 34.92 88.70C38.38 88.70 40.54 88.56 42.26 87.55C43.85 86.69 44.28 85.10 44.28 82.58ZM38.66 34.92C38.23 37.51 37.22 41.18 36.50 43.92L29.09 43.92L33.12 42.41C32.62 40.46 31.61 37.30 30.53 34.92L45.29 34.92L45.29 29.66L38.52 29.66C37.80 27.65 36.86 24.98 35.93 22.97L30.31 24.19C31.03 25.85 31.75 27.86 32.33 29.66L23.62 29.66L23.62 34.92L30.02 34.92L26.35 36.29C27.22 38.66 28.22 41.83 28.73 43.92L22.82 43.92L22.82 49.39L46.08 49.39L46.08 43.92L40.97 43.92C41.76 41.62 42.55 38.88 43.49 36.29ZM56.02 82.73C54.14 82.73 53.86 82.37 53.86 80.21L53.86 77.54L67.10 77.54L67.10 73.15L53.86 73.15L53.86 69.55L66.02 69.55L66.02 65.09L53.86 65.09L53.86 61.70L66.67 61.70L66.67 57.24L53.86 57.24L53.86 53.86L66.82 53.86L66.82 38.16L53.86 38.16L53.86 33.70L68.69 33.70L68.69 28.37L53.86 28.37L53.86 23.11L47.88 23.11L47.88 43.13L61.56 43.13L61.56 48.82L47.88 48.82L47.88 80.35C47.88 86.83 49.46 88.49 55.08 88.49L62.71 88.49C66.96 88.49 68.69 86.76 69.41 80.86C67.68 80.50 65.30 79.49 64.08 78.48C63.86 82.08 63.58 82.73 62.21 82.73Z"/></svg>
