<svg xmlns="http://www.w3.org/2000/svg" xmlns:xlink="http://www.w3.org/1999/xlink" width="72.00000000000001" height="106.56000000000002"><path fill="red" stroke="red" d="M56.38 44.50L38.74 44.50L38.74 40.75L52.99 40.75L52.99 36.86L38.74 36.86L38.74 33.34L32.69 33.34L32.69 36.86L19.15 36.86L19.15 40.75L32.69 40.75L32.69 44.50L15.34 44.50L15.34 48.46L56.38 48.46ZM25.13 54.14L46.73 54.14L46.73 58.18L25.13 58.18ZM28.58 73.37L28.58 65.95C31.46 64.58 34.13 63.07 36.29 61.34L52.63 61.34L52.63 50.90L19.51 50.90L19.51 61.34L28.73 61.34C24.41 63.50 18.65 65.38 13.54 66.53C14.47 67.46 16.20 69.41 16.78 70.42C19.01 69.77 21.31 68.98 23.62 68.11L23.62 72.22C23.62 74.88 22.10 75.67 21.02 76.10C21.67 76.90 22.39 78.77 22.68 79.92C23.83 79.13 25.78 78.62 38.59 75.17C38.38 74.16 38.38 72.22 38.52 71.06ZM52.49 62.57C50.83 63.94 48.24 65.66 45.79 67.10C43.27 65.45 40.61 63.86 38.30 62.50L34.20 64.87C40.61 68.62 48.60 74.30 52.56 77.83L56.95 75.17C55.01 73.51 52.34 71.57 49.46 69.55C51.84 68.33 54.36 66.82 56.66 65.16ZM12.24 80.35L12.24 32.18L59.47 32.18L59.47 80.35ZM5.98 26.14L5.98 89.21L12.24 89.21L12.24 86.40L59.47 86.40L59.47 89.21L66.02 89.21L66.02 26.14Z"/></svg>
