<svg xmlns="http://www.w3.org/2000/svg" xmlns:xlink="http://www.w3.org/1999/xlink" width="72.00000000000001" height="106.56000000000002"><path fill="red" stroke="red" d="M32.18 75.67C31.03 73.80 28.44 71.14 26.28 69.26L22.03 71.42C24.19 73.37 26.57 76.18 27.72 78.12ZM38.45 59.26L38.45 56.30L47.38 56.30L44.71 58.03C45.14 58.39 45.58 58.75 46.01 59.11ZM23.40 53.21L23.40 50.47L32.90 50.47L32.90 53.21ZM23.40 44.86L32.90 44.86L32.90 47.52L23.40 47.52ZM48.38 44.86L48.38 47.52L38.45 47.52L38.45 44.86ZM38.45 53.21L38.45 50.47L48.38 50.47L48.38 53.21ZM53.78 56.30L53.78 41.83L38.45 41.83L38.45 39.24L56.02 39.24L56.02 35.28L38.45 35.28L38.45 32.33L32.90 32.33L32.90 35.28L15.70 35.28L15.70 39.24L32.90 39.24L32.90 41.83L18.14 41.83L18.14 56.30L32.90 56.30L32.90 59.26C26.50 59.33 20.59 59.40 15.84 59.40L16.13 63.29C24.98 63.07 37.30 62.71 49.54 62.35C50.62 63.43 51.62 64.44 52.34 65.38L55.94 62.64C54.43 60.91 51.62 58.25 49.03 56.30ZM57.02 65.38L47.23 65.38L47.23 63.00L41.62 63.00L41.62 65.38L14.90 65.38L14.90 69.26L41.62 69.26L41.62 74.81C41.62 75.46 41.40 75.67 40.61 75.74C39.89 75.74 37.30 75.74 34.85 75.67C35.42 76.75 36.07 78.05 36.29 79.27C40.46 79.27 43.13 79.27 44.93 78.70C46.66 78.19 47.23 77.40 47.23 75.02L47.23 69.26L57.02 69.26ZM12.82 80.35L12.82 31.18L59.04 31.18L59.04 80.35ZM6.70 25.99L6.70 89.28L12.82 89.28L12.82 85.61L59.04 85.61L59.04 88.99L65.45 88.99L65.45 25.99Z"/></svg>
