<svg xmlns="http://www.w3.org/2000/svg" xmlns:xlink="http://www.w3.org/1999/xlink" width="72.00000000000001" height="106.56000000000002"><path fill="red" stroke="red" d="M51.41 32.98C50.47 30.17 48.46 25.78 46.66 22.39L40.39 24.19C41.98 27.58 43.99 32.18 44.86 35.14ZM68.98 35.21L27.65 35.21L27.65 41.62L68.98 41.62ZM26.50 63.65L18.22 66.82L18.22 46.37L26.42 46.37L26.42 39.96L18.22 39.96L18.22 23.98L11.88 23.98L11.88 39.96L3.53 39.96L3.53 46.37L11.88 46.37L11.88 69.19C8.35 70.56 5.18 71.71 2.59 72.65L4.39 79.56C11.16 76.75 19.80 73.08 27.86 69.55ZM60.34 82.80C59.83 82.80 59.54 82.73 59.26 82.44C58.97 82.15 58.90 81.14 58.90 79.42L58.90 48.17L33.91 48.17L33.91 61.13C33.91 68.76 32.62 78.12 22.32 84.60C23.62 85.61 25.99 88.34 26.86 89.78C38.30 82.44 40.46 70.49 40.46 61.27L40.46 54.43L52.27 54.43L52.27 79.42C52.27 84.53 52.78 85.97 53.93 87.12C55.08 88.20 56.88 88.70 58.46 88.70L62.28 88.70C63.72 88.70 65.30 88.42 66.38 87.62C67.39 86.98 68.11 85.90 68.54 84.10C68.98 82.37 69.26 77.76 69.26 73.94C67.61 73.44 65.52 72.36 64.30 71.28C64.22 75.38 64.15 78.62 64.01 80.06C63.94 81.43 63.72 82.15 63.43 82.44C63.07 82.73 62.50 82.80 61.99 82.80Z"/></svg>
