<svg xmlns="http://www.w3.org/2000/svg" xmlns:xlink="http://www.w3.org/1999/xlink" width="72.00000000000001" height="106.56000000000002"><path fill="red" stroke="red" d="M51.84 33.62C51.12 30.60 49.54 26.06 48.24 22.61L41.83 24.19C43.13 27.72 44.64 32.47 45.14 35.50ZM67.39 35.71L28.08 35.71L28.08 41.98L67.39 41.98ZM43.92 75.24C43.20 67.97 41.04 55.37 38.74 45.65L32.90 47.02C34.92 56.81 36.86 69.70 37.51 77.11ZM26.71 64.87L18.50 67.90L18.50 46.73L25.85 46.73L25.85 40.39L18.50 40.39L18.50 23.98L12.02 23.98L12.02 40.39L3.89 40.39L3.89 46.73L12.02 46.73L12.02 70.27C8.57 71.50 5.40 72.58 2.81 73.37L4.97 80.21C11.59 77.62 20.09 74.30 27.94 71.06ZM55.87 79.85C58.39 70.63 61.20 57.24 63.00 46.37L55.94 45.22C54.79 55.80 52.13 70.34 49.68 79.85L24.84 79.85L24.84 86.18L69.12 86.18L69.12 79.85Z"/></svg>
