<svg xmlns="http://www.w3.org/2000/svg" xmlns:xlink="http://www.w3.org/1999/xlink" width="72.00000000000001" height="106.56000000000002"><path fill="red" stroke="red" d="M66.46 26.78L28.51 26.78L28.51 32.90L66.46 32.90ZM37.51 59.26L57.31 59.26L57.31 67.68L37.51 67.68ZM37.51 45.43L57.31 45.43L57.31 53.78L37.51 53.78ZM64.01 73.58L64.01 39.60L31.03 39.60L31.03 73.58ZM26.28 65.09L18.29 67.97L18.29 46.73L26.64 46.73L26.64 40.39L18.29 40.39L18.29 24.05L11.88 24.05L11.88 40.39L3.38 40.39L3.38 46.73L11.88 46.73L11.88 70.27C8.42 71.50 5.26 72.58 2.74 73.37L4.90 80.21C11.38 77.69 19.80 74.38 27.50 71.14ZM25.92 79.70L25.92 85.97L68.83 85.97L68.83 79.70Z"/></svg>
