<svg xmlns="http://www.w3.org/2000/svg" xmlns:xlink="http://www.w3.org/1999/xlink" width="72.00000000000001" height="106.56000000000002"><path fill="red" stroke="red" d="M67.10 56.88L67.10 50.04L38.66 50.04C38.88 47.66 38.95 45.29 38.95 43.13L38.95 35.21L64.15 35.21L64.15 28.30L7.63 28.30L7.63 35.21L31.97 35.21L31.97 43.06C31.97 45.22 31.90 47.59 31.61 50.04L5.04 50.04L5.04 56.88L30.31 56.88C27.58 66.53 20.52 76.54 2.95 83.30C4.46 84.60 6.48 87.34 7.34 88.99C24.55 82.22 32.54 72.36 36.14 62.28C41.98 75.24 51.19 84.31 65.02 88.92C65.95 86.98 68.04 84.17 69.55 82.73C55.30 78.84 45.79 69.48 40.75 56.88Z"/></svg>
