<svg xmlns="http://www.w3.org/2000/svg" xmlns:xlink="http://www.w3.org/1999/xlink" width="72.00000000000001" height="106.56000000000002"><path fill="red" stroke="red" d="M50.11 64.73C47.81 69.19 44.71 72.58 40.54 75.24C35.28 73.73 29.74 72.22 24.19 70.99C25.70 69.05 27.43 66.96 29.09 64.73ZM68.33 64.73L68.33 58.61L59.76 58.61C59.98 57.74 60.19 56.95 60.41 56.02L53.64 54.43C53.35 55.94 52.99 57.24 52.63 58.61L33.34 58.61C34.49 56.95 35.50 55.15 36.36 53.57L31.54 52.27L51.84 52.27C56.45 52.27 61.78 52.20 63.79 51.70C63.50 50.26 63.22 47.74 63.00 45.86C60.41 46.30 54.79 46.44 51.19 46.44L25.27 46.44C21.10 46.44 20.16 45.50 20.16 42.98L20.16 36.36L67.25 36.36L67.25 30.24L41.18 30.24C40.25 27.79 38.81 24.70 37.30 22.25L30.31 24.19C31.25 25.99 32.33 28.22 33.05 30.24L4.68 30.24L4.68 36.36L13.54 36.36L13.54 42.84C13.54 49.97 16.56 52.27 25.70 52.27L29.30 52.27C28.30 54.29 26.93 56.45 25.49 58.61L3.53 58.61L3.53 64.73L21.17 64.73C18.50 68.18 15.84 71.42 13.39 73.94C19.94 75.53 26.35 77.11 32.47 78.84C25.42 81.00 16.56 82.08 5.18 82.51C6.26 84.02 7.34 86.54 7.78 88.49C22.61 87.62 33.77 85.75 41.98 81.72C49.68 84.10 56.38 86.54 61.42 88.70L67.18 83.81C62.06 81.79 55.66 79.70 48.46 77.47C52.42 74.23 55.37 70.06 57.60 64.73Z"/></svg>
