<svg xmlns="http://www.w3.org/2000/svg" xmlns:xlink="http://www.w3.org/1999/xlink" width="72.00000000000001" height="106.56000000000002"><path fill="red" stroke="red" d="M59.40 23.83C46.58 26.57 24.84 28.30 6.62 29.02C7.27 30.46 8.06 33.05 8.21 34.70C26.35 34.20 48.31 32.54 62.71 29.59ZM51.70 52.20C55.08 47.88 59.11 41.54 62.42 35.86L55.87 32.98C53.57 38.09 49.32 45.00 46.01 49.32ZM40.54 47.52C40.03 43.92 37.94 38.66 35.64 34.63L29.66 36.29C31.82 40.39 33.70 45.86 34.13 49.32ZM22.18 49.39C20.95 45.79 17.93 40.32 15.05 36.36L9.36 38.52C12.17 42.70 15.05 48.31 16.06 51.91ZM47.95 62.78C45.72 67.32 42.84 70.85 39.17 73.73C34.20 72.07 29.09 70.56 23.90 69.05C25.34 67.18 26.78 65.02 28.15 62.78ZM67.75 62.78L67.75 56.66L57.31 56.66C57.60 55.66 57.89 54.72 58.10 53.71L51.48 52.20C51.12 53.78 50.69 55.22 50.26 56.66L31.82 56.66C33.05 54.50 34.13 52.20 35.14 50.11L28.37 48.67C27.22 51.19 25.92 53.93 24.34 56.66L4.10 56.66L4.10 62.78L20.52 62.78C18.29 66.31 15.91 69.55 13.68 72.14C20.02 73.94 26.35 75.74 32.18 77.76C25.70 80.64 17.35 82.30 6.70 83.23C7.78 84.82 9.00 87.19 9.43 89.14C22.82 87.62 32.90 85.10 40.39 80.57C48.67 83.59 55.94 86.62 61.49 89.35L66.53 84.10C61.20 81.65 54.14 78.84 46.37 76.10C50.11 72.58 53.06 68.18 55.30 62.78Z"/></svg>
