<svg xmlns="http://www.w3.org/2000/svg" xmlns:xlink="http://www.w3.org/1999/xlink" width="72.00000000000001" height="106.56000000000002"><path fill="red" stroke="red" d="M53.78 33.26C53.06 30.53 51.55 26.06 50.18 22.68L43.92 24.05C45.07 27.58 46.58 32.26 47.16 35.06ZM21.10 44.06C21.10 50.40 20.52 58.03 17.64 65.52C15.55 63.65 13.25 61.70 11.23 60.05C12.31 55.44 13.54 50.04 14.62 44.50ZM29.02 76.75C27.43 74.81 25.13 72.43 22.61 70.06C26.50 60.91 27.14 51.48 27.14 43.63L30.31 43.49L30.31 37.80L27.14 37.94L27.14 33.19L21.10 33.19L21.10 38.30L15.70 38.59C16.49 33.41 17.28 28.37 17.78 23.76L11.59 23.40C11.16 28.22 10.44 33.55 9.65 38.88L2.74 39.17L3.31 45.22L8.50 44.86C7.27 51.34 5.83 57.46 4.46 62.06C7.70 64.80 11.38 68.11 14.83 71.35C12.10 76.10 8.06 80.64 2.38 84.67C3.74 85.68 5.90 87.77 6.84 89.21C12.53 85.18 16.49 80.64 19.44 75.96C21.67 78.12 23.47 80.21 24.84 81.94ZM46.51 41.83L68.83 41.83L68.83 35.42L30.82 35.42L30.82 41.83L39.82 41.83L39.82 50.26C39.82 60.19 38.30 73.87 25.63 84.82C27.43 85.97 29.88 87.91 31.18 89.35C41.83 80.14 45.22 68.47 46.15 58.18L58.46 58.18C57.82 73.73 56.95 79.92 55.51 81.43C54.86 82.15 54.07 82.37 52.78 82.37C51.41 82.37 47.88 82.30 44.14 81.94C45.22 83.81 46.08 86.54 46.15 88.56C50.04 88.70 53.78 88.70 55.94 88.49C58.25 88.27 59.90 87.62 61.27 85.82C63.58 83.16 64.37 75.38 65.30 54.86C65.30 53.93 65.38 51.91 65.38 51.91L46.51 51.91L46.51 50.40Z"/></svg>
