<svg xmlns="http://www.w3.org/2000/svg" xmlns:xlink="http://www.w3.org/1999/xlink" width="72.00000000000001" height="106.56000000000002"><path fill="red" stroke="red" d="M12.31 36.58L59.33 36.58L59.33 45.65L66.17 45.65L66.17 30.24L41.18 30.24C40.18 27.86 38.38 24.91 36.58 22.54L30.02 24.62C31.18 26.28 32.33 28.37 33.26 30.24L5.76 30.24L5.76 45.65L12.31 45.65ZM66.82 61.49L39.53 61.49L39.53 59.54C45.65 56.02 51.70 51.34 56.09 46.87L51.55 43.42L50.04 43.78L17.06 43.78L17.06 49.97L43.27 49.97C40.03 52.70 36.07 55.51 32.40 57.31L32.40 61.49L5.11 61.49L5.11 67.90L32.40 67.90L32.40 81.14C32.40 82.15 31.97 82.51 30.67 82.51C29.30 82.58 24.34 82.58 19.80 82.44C20.88 84.17 22.25 87.19 22.68 89.14C28.58 89.14 32.76 89.06 35.64 87.98C38.59 86.98 39.53 85.10 39.53 81.36L39.53 67.90L66.82 67.90Z"/></svg>
