<svg xmlns="http://www.w3.org/2000/svg" xmlns:xlink="http://www.w3.org/1999/xlink" width="72.00000000000001" height="106.56000000000002"><path fill="red" stroke="red" d="M34.78 42.91L34.78 36.29L48.38 36.29C45.79 38.59 43.13 40.75 40.25 42.91ZM68.18 48.74L68.18 42.91L50.11 42.91C55.30 38.59 59.90 33.91 64.01 28.87L58.46 25.78C55.87 28.94 53.06 31.97 49.97 34.85L49.97 30.53L34.78 30.53L34.78 23.11L28.15 23.11L28.15 30.53L10.08 30.53L10.08 36.29L28.15 36.29L28.15 42.91L3.89 42.91L3.89 48.74L31.54 48.74C22.54 54.36 12.46 58.97 2.38 62.42C3.67 63.72 5.76 66.46 6.62 67.90C12.74 65.59 18.94 62.78 24.91 59.62L45.86 59.62C42.55 61.63 38.59 63.50 35.06 64.80L35.06 68.04L9.86 68.04L9.86 73.87L35.06 73.87L35.06 81.94C35.06 82.87 34.70 83.16 33.48 83.16C32.26 83.23 27.58 83.23 23.18 83.09C24.19 84.67 25.34 87.34 25.70 89.06C31.54 89.06 35.57 88.99 38.16 88.06C40.90 87.19 41.69 85.46 41.69 82.08L41.69 73.87L67.18 73.87L67.18 68.04L41.69 68.04L41.69 67.25C47.88 64.66 54.29 61.13 59.11 57.67L55.01 54.00L53.50 54.29L34.27 54.29C37.08 52.49 39.89 50.69 42.55 48.74Z"/></svg>
