<svg xmlns="http://www.w3.org/2000/svg" xmlns:xlink="http://www.w3.org/1999/xlink" width="72.00000000000001" height="106.56000000000002"><path fill="red" stroke="red" d="M32.54 54.50L39.10 54.50L39.10 44.78C48.17 49.97 59.18 57.24 64.73 62.14L69.05 57.46C64.30 53.42 55.87 48.02 47.95 43.49L67.61 43.49L67.61 37.80L39.10 37.80L39.10 31.39C47.02 30.60 54.50 29.52 60.48 28.08L54.94 23.33C44.57 25.78 25.20 27.22 9.00 27.65C9.65 29.02 10.37 31.54 10.51 32.98C17.50 32.83 25.13 32.47 32.54 31.90L32.54 37.80L4.54 37.80L4.54 43.49L25.63 43.49C19.58 48.60 10.73 53.14 2.74 55.51C4.18 56.81 6.05 59.11 6.98 60.62C15.98 57.46 25.92 51.48 32.54 44.64ZM39.46 67.82C45.00 65.66 50.69 62.64 54.94 59.54L50.83 56.02L49.39 56.38L16.70 56.38L16.70 61.63L41.26 61.63C38.52 63.00 35.57 64.22 32.90 65.16L32.90 69.26L4.46 69.26L4.46 75.02L32.90 75.02L32.90 82.01C32.90 82.94 32.54 83.23 31.18 83.30C29.88 83.38 25.06 83.38 20.30 83.23C21.17 84.89 22.25 87.34 22.61 89.06C28.73 89.06 33.05 89.06 35.86 88.20C38.59 87.26 39.46 85.68 39.46 82.15L39.46 75.02L67.68 75.02L67.68 69.26L39.46 69.26Z"/></svg>
