<svg xmlns="http://www.w3.org/2000/svg" xmlns:xlink="http://www.w3.org/1999/xlink" width="72.00000000000001" height="106.56000000000002"><path fill="red" stroke="red" d="M53.14 72.00L53.14 80.14L21.10 80.14L21.10 72.00ZM50.76 47.02L50.76 54.50L21.10 54.50L21.10 47.02ZM21.10 60.26L57.46 60.26L57.46 41.18L14.26 41.18L14.26 89.06L21.10 89.06L21.10 86.04L53.14 86.04L53.14 88.70L59.98 88.70L59.98 66.10L21.10 66.10ZM41.33 29.59C40.68 27.50 39.53 24.77 38.45 22.75L31.61 24.26C32.47 25.85 33.19 27.79 33.70 29.59L5.33 29.59L5.33 42.77L12.02 42.77L12.02 35.86L59.54 35.86L59.54 42.77L66.60 42.77L66.60 29.59Z"/></svg>
