<svg xmlns="http://www.w3.org/2000/svg" xmlns:xlink="http://www.w3.org/1999/xlink" width="72.00000000000001" height="106.56000000000002"><path fill="red" stroke="red" d="M12.46 35.28L59.62 35.28L59.62 44.57L66.46 44.57L66.46 29.23L40.46 29.23C39.60 27.14 38.38 24.55 37.08 22.54L30.10 24.55C30.89 25.99 31.68 27.58 32.33 29.23L5.98 29.23L5.98 44.57L12.46 44.57ZM56.16 48.74C52.42 52.34 46.66 56.81 41.47 60.26C39.89 56.66 37.66 53.21 34.56 50.26C36.22 49.10 37.80 48.02 39.24 46.73L56.30 46.73L56.30 40.97L15.55 40.97L15.55 46.73L30.17 46.73C23.54 50.90 14.33 54.07 5.76 55.94C6.91 57.24 8.64 59.98 9.29 61.27C16.06 59.40 23.26 56.66 29.59 53.21C30.67 54.36 31.61 55.51 32.40 56.66C26.14 61.06 14.26 65.95 5.40 67.97C6.62 69.41 7.99 71.71 8.78 73.22C17.14 70.56 27.94 65.74 35.06 61.06C35.71 62.42 36.14 63.72 36.58 65.09C29.45 71.35 15.62 77.76 4.25 80.42C5.54 81.86 7.06 84.31 7.78 85.97C17.71 83.02 29.52 77.33 37.73 71.28C38.02 76.18 36.94 80.06 35.21 81.50C33.98 82.87 32.69 83.09 30.89 83.09C29.30 83.09 27.00 82.94 24.48 82.73C25.56 84.60 26.14 87.19 26.28 88.99C28.44 89.14 30.60 89.21 32.26 89.14C35.64 89.14 37.73 88.49 40.03 86.26C43.92 83.23 45.65 74.66 43.34 65.74C44.28 65.16 45.29 64.58 46.22 64.01C49.97 74.02 56.23 82.08 65.09 86.18C66.02 84.53 68.04 81.94 69.48 80.78C60.91 77.33 54.58 69.62 51.48 60.62C55.01 58.18 58.54 55.66 61.63 53.14Z"/></svg>
