<svg xmlns="http://www.w3.org/2000/svg" xmlns:xlink="http://www.w3.org/1999/xlink" width="72.00000000000001" height="106.56000000000002"><path fill="red" stroke="red" d="M11.59 54.22C16.63 59.69 22.10 67.25 24.26 72.22L30.38 68.40C28.08 63.22 22.32 56.02 17.28 50.76ZM68.18 37.87L51.70 37.87L51.70 23.11L44.50 23.11L44.50 37.87L3.96 37.87L3.96 44.57L44.50 44.57L44.50 79.85C44.50 81.50 43.92 82.08 42.19 82.08C40.25 82.15 34.13 82.15 27.79 81.94C28.94 83.95 30.38 87.34 30.82 89.42C38.45 89.42 43.99 89.21 47.23 88.06C50.40 86.90 51.70 84.82 51.70 79.92L51.70 44.57L68.18 44.57Z"/></svg>
