<svg xmlns="http://www.w3.org/2000/svg" xmlns:xlink="http://www.w3.org/1999/xlink" width="72.00000000000001" height="106.56000000000002"><path fill="red" stroke="red" d="M15.26 54.00L19.51 51.55C18.65 49.39 16.42 46.37 14.40 43.99L28.51 43.99C27.50 46.94 25.56 51.12 23.98 54.00ZM68.40 41.83L62.14 41.83L62.14 23.26L55.66 23.26L55.66 41.83L39.38 41.83L39.38 38.45L29.23 38.45L29.23 35.86L31.90 37.44C34.27 35.21 37.22 31.75 39.96 28.58L34.63 25.63C33.34 27.86 31.18 30.89 29.23 33.26L29.23 23.18L23.83 23.18L23.83 38.45L19.30 38.45L19.30 23.18L13.97 23.18L13.97 32.76C12.60 30.38 10.44 27.58 8.35 25.49L4.25 28.22C6.70 30.89 9.36 34.78 10.44 37.30L13.97 34.92L13.97 38.45L3.60 38.45L3.60 43.99L13.39 43.99L9.36 46.15C11.38 48.46 13.54 51.70 14.47 54.00L5.83 54.00L5.83 59.54L18.50 59.54L18.50 65.74L7.42 65.74L7.42 71.21L18.50 71.21L18.50 78.34C12.82 79.06 7.56 79.63 3.38 80.06L4.32 86.33C13.54 85.10 26.86 83.52 39.38 81.79L39.24 75.89C34.42 76.54 29.52 77.11 24.70 77.62L24.70 71.21L36.00 71.21L36.00 65.74L24.70 65.74L24.70 59.54L37.30 59.54L37.30 54.00L30.02 54.00C31.39 51.55 32.90 48.74 34.34 46.01L28.73 43.99L39.31 43.99L39.31 48.10L55.66 48.10L55.66 81.29C55.66 82.51 55.22 82.87 54.00 82.94C52.85 82.94 49.10 83.02 45.07 82.87C46.01 84.53 47.02 87.48 47.38 89.21C53.14 89.21 56.66 88.99 58.97 87.91C61.27 86.83 62.14 85.03 62.14 81.29L62.14 48.10L68.40 48.10ZM52.56 69.12C51.91 64.80 49.25 58.18 46.30 53.06L40.75 55.01C43.49 60.19 46.01 67.03 46.51 71.21Z"/></svg>
