<svg xmlns="http://www.w3.org/2000/svg" xmlns:xlink="http://www.w3.org/1999/xlink" width="72.00000000000001" height="106.56000000000002"><path fill="red" stroke="red" d="M5.69 66.17L11.88 66.17L11.88 57.74L32.40 57.74L32.40 63.58L12.89 63.58L12.89 84.89L19.37 84.89L19.37 68.98L32.40 68.98L32.40 89.14L39.02 89.14L39.02 68.98L52.85 68.98L52.85 78.55C52.85 79.34 52.56 79.56 51.62 79.56C50.69 79.63 47.45 79.63 44.06 79.56C44.86 81.22 45.72 83.52 46.08 85.18C51.05 85.18 54.36 85.18 56.52 84.31C58.82 83.30 59.40 81.65 59.40 78.62L59.40 63.58L39.02 63.58L39.02 57.74L60.26 57.74L60.26 66.17L66.74 66.17L66.74 52.27L5.69 52.27ZM56.95 34.20L56.95 25.34L12.89 25.34L12.89 30.17L50.26 30.17L50.26 34.20L4.18 34.20L4.18 39.17L50.26 39.17L50.26 43.56L12.46 43.56L12.46 48.38L56.95 48.38L56.95 39.17L67.75 39.17L67.75 34.20Z"/></svg>
