<svg xmlns="http://www.w3.org/2000/svg" xmlns:xlink="http://www.w3.org/1999/xlink" width="72.00000000000001" height="106.56000000000002"><path fill="red" stroke="red" d="M22.46 65.95L22.46 76.61L11.74 76.61L11.74 65.95ZM21.89 48.60L11.74 48.60L11.74 39.46L21.89 39.46ZM11.74 54.29L27.86 54.29L27.86 33.77L17.78 33.77C19.08 30.82 20.45 27.22 21.67 23.90L14.33 23.11C13.82 26.21 12.82 30.38 11.74 33.77L5.76 33.77L5.76 86.90L11.74 86.90L11.74 82.30L28.44 82.30L28.44 60.19L11.74 60.19ZM66.53 35.86L52.56 35.86L52.56 23.54L46.22 23.54L46.22 35.86L32.76 35.86L32.76 75.60L38.81 75.60L38.81 42.05L46.22 42.05L46.22 88.99L52.56 88.99L52.56 42.05L60.34 42.05L60.34 68.47C60.34 69.19 60.12 69.41 59.33 69.41C58.75 69.48 56.66 69.48 54.43 69.41C55.30 70.99 56.02 73.51 56.23 75.17C59.90 75.17 62.42 75.10 64.22 74.16C66.02 73.08 66.53 71.35 66.53 68.47Z"/></svg>
