<svg xmlns="http://www.w3.org/2000/svg" xmlns:xlink="http://www.w3.org/1999/xlink" width="72.00000000000001" height="106.56000000000002"><path fill="red" stroke="red" d="M28.37 36.50L19.22 36.50L19.22 23.26L13.61 23.26L13.61 36.50L4.68 36.50L4.68 74.52L9.72 74.52L9.72 42.48L13.61 42.48L13.61 89.28L19.22 89.28L19.22 42.48L23.47 42.48L23.47 67.39C23.47 67.97 23.33 68.11 22.82 68.18C22.39 68.18 21.17 68.18 19.66 68.11C20.45 69.62 21.17 72.22 21.31 73.73C23.76 73.73 25.42 73.58 26.71 72.58C28.08 71.57 28.37 69.77 28.37 67.54ZM61.85 62.42C59.83 64.66 56.59 67.54 53.64 69.77C51.77 67.18 50.11 64.37 48.89 61.42L68.04 61.42L68.04 55.73L40.90 55.73L40.90 50.83L63.65 50.83L63.65 45.86L40.90 45.86L40.90 41.11L63.29 41.11L63.29 36.29L40.90 36.29L40.90 31.68L66.17 31.68L66.17 26.35L34.42 26.35L34.42 55.73L29.74 55.73L29.74 61.42L32.83 61.42L32.83 77.90C32.83 80.86 31.10 82.73 29.95 83.59C31.03 84.96 32.62 87.98 33.12 89.64C34.42 88.56 36.72 87.62 50.33 82.94C50.04 81.58 49.90 79.13 49.90 77.40L39.17 80.78L39.17 61.42L42.91 61.42C47.30 73.01 54.94 83.16 64.73 88.13C65.66 86.47 67.68 84.02 69.12 82.73C64.58 80.78 60.41 77.47 56.88 73.66C59.98 71.64 63.58 69.05 66.82 66.60Z"/></svg>
