<svg xmlns="http://www.w3.org/2000/svg" xmlns:xlink="http://www.w3.org/1999/xlink" width="72.00000000000001" height="106.56000000000002"><path fill="red" stroke="red" d="M43.92 53.64L55.87 53.64L55.87 58.54L43.92 58.54ZM43.92 44.06L55.87 44.06L55.87 48.74L43.92 48.74ZM43.92 63.29L62.21 63.29L62.21 54.00L68.90 54.00L68.90 48.24L62.21 48.24L62.21 39.38L43.92 39.38L43.92 34.99L68.11 34.99L68.11 29.09L44.06 29.09C42.98 27.00 41.54 24.41 40.18 22.46L33.55 24.12C34.42 25.63 35.35 27.36 36.29 29.09L8.57 29.09L8.57 49.97C8.57 60.55 8.06 75.24 2.38 85.39C3.82 86.04 6.62 87.91 7.78 89.06C13.97 78.19 14.98 61.34 14.98 49.97L14.98 34.99L37.15 34.99L37.15 39.38L19.73 39.38L19.73 44.06L37.15 44.06L37.15 48.74L16.56 48.74L16.56 53.64L37.15 53.64L37.15 58.54L19.08 58.54L19.08 63.29L21.10 63.29L17.71 66.82C21.17 68.98 25.78 72.07 28.01 74.16L31.82 69.98C29.52 68.18 25.06 65.23 21.67 63.29L37.15 63.29L37.15 70.56C28.66 73.94 19.87 77.40 14.18 79.42L16.78 84.89C22.61 82.37 30.02 79.06 37.15 75.82L37.15 82.15C37.15 83.30 36.72 83.74 35.42 83.74C34.27 83.81 29.88 83.88 25.85 83.66C26.78 85.18 27.65 87.62 27.94 89.28C33.98 89.28 37.87 89.21 40.46 88.27C42.98 87.41 43.92 85.90 43.92 82.22L43.92 75.89C51.41 79.06 60.05 83.16 64.73 85.90L67.75 81.14C64.37 79.27 59.18 76.82 53.78 74.52C57.31 72.50 61.20 69.98 64.66 67.54L59.69 63.58C56.81 66.24 51.84 69.91 48.10 72.14C46.66 71.57 45.29 71.06 43.92 70.49Z"/></svg>
