<svg xmlns="http://www.w3.org/2000/svg" xmlns:xlink="http://www.w3.org/1999/xlink" width="72.00000000000001" height="106.56000000000002"><path fill="red" stroke="red" d="M56.81 74.09C49.54 79.99 34.63 83.23 18.94 84.38C20.02 85.68 21.10 87.77 21.60 89.21C38.23 87.48 53.64 83.88 62.06 76.61ZM48.46 68.40C42.77 72.29 31.97 75.38 22.75 76.82C23.83 77.90 25.06 79.56 25.70 80.64C35.64 78.77 46.51 75.38 53.14 70.63ZM41.47 62.42C37.22 65.59 29.30 68.47 22.82 69.91C24.05 70.78 25.27 72.22 26.06 73.22C33.12 71.50 41.11 68.40 46.08 64.44ZM53.71 45.94C52.34 44.71 49.61 42.84 47.59 41.54L44.57 43.78C46.66 45.22 49.32 47.23 50.69 48.46ZM64.73 37.15L42.84 37.15L42.84 41.54L59.40 41.54L59.40 52.92C59.40 53.50 59.18 53.71 58.61 53.71C57.96 53.71 56.09 53.71 54.14 53.64C54.72 54.86 55.37 56.38 55.51 57.67C58.82 57.67 61.13 57.67 62.78 57.02C64.30 56.30 64.73 55.30 64.73 52.92ZM28.22 45.79C26.93 44.57 24.12 42.70 22.10 41.40L19.15 43.63C21.17 45.07 23.90 47.09 25.20 48.31ZM68.40 28.44L42.55 28.44C41.83 26.50 40.90 24.26 39.96 22.46L33.34 23.98C33.91 25.34 34.56 26.86 35.14 28.44L7.85 28.44L7.85 52.99C7.85 62.93 7.42 76.18 2.38 85.39C3.74 86.18 6.41 88.42 7.49 89.71C11.45 82.94 13.10 73.58 13.75 64.94C14.76 66.17 15.84 67.68 16.34 68.90C25.27 66.74 34.27 63.43 40.97 58.97C49.18 63.94 57.31 66.60 64.73 68.69C65.45 67.03 67.03 65.02 68.33 63.72C60.91 62.21 52.70 60.12 44.93 55.94L45.65 55.22L45.86 55.66C49.75 54.07 54.00 52.34 58.46 50.54L57.96 47.38C52.70 48.89 47.59 50.54 43.85 51.48L45.00 53.78L41.62 52.20C40.90 52.92 40.03 53.64 39.02 54.36C39.24 53.78 39.31 52.99 39.31 52.06L39.31 37.01L17.42 37.01L17.42 41.40L33.91 41.40L33.91 51.98C33.91 52.63 33.70 52.85 32.98 52.85C32.33 52.92 30.10 52.92 27.94 52.78C28.44 54.07 28.80 55.51 28.87 56.81C31.68 56.81 33.84 56.88 35.42 56.66C29.38 59.98 21.46 62.50 13.82 64.08C14.11 60.12 14.18 56.30 14.18 52.99L14.18 33.98L68.40 33.98ZM32.04 47.02C26.28 48.74 20.59 50.62 16.63 51.55L18.79 55.73C22.97 54.14 27.72 52.13 32.62 50.18Z"/></svg>
