<svg xmlns="http://www.w3.org/2000/svg" xmlns:xlink="http://www.w3.org/1999/xlink" width="72.00000000000001" height="106.56000000000002"><path fill="red" stroke="red" d="M25.42 58.54L38.02 58.54L38.02 52.06L6.77 52.06L6.77 58.54L18.72 58.54L18.72 77.83C13.25 78.84 8.28 79.78 4.39 80.42L6.34 87.19C15.55 85.18 28.44 82.37 40.39 79.63L39.89 73.58C35.06 74.59 30.17 75.60 25.42 76.46ZM51.05 27.14C54.58 29.66 58.75 33.41 60.77 35.93L65.45 31.75C63.36 29.30 58.97 25.78 55.44 23.47ZM67.97 42.48L67.97 35.93L47.30 35.93C47.16 31.90 47.09 27.65 47.16 23.47L39.96 23.47C39.96 27.65 40.10 31.82 40.25 35.93L4.18 35.93L4.18 42.48L40.68 42.48C42.48 68.40 48.17 89.35 60.05 89.35C66.02 89.35 68.40 85.82 69.55 72.86C67.68 72.22 65.16 70.63 63.65 69.05C63.22 78.41 62.35 82.30 60.62 82.30C54.36 82.30 49.32 65.16 47.74 42.48Z"/></svg>
