<svg xmlns="http://www.w3.org/2000/svg" xmlns:xlink="http://www.w3.org/1999/xlink" width="72.00000000000001" height="106.56000000000002"><path fill="red" stroke="red" d="M23.26 33.12C23.62 32.11 23.98 31.18 24.41 30.10L48.53 30.10L47.88 33.12ZM47.09 68.54L52.78 68.54L52.78 58.61L60.41 57.96C61.56 59.18 62.50 60.34 63.22 61.34L66.67 58.82C64.94 56.66 61.49 53.14 58.54 50.69L55.30 52.85C55.94 53.42 56.66 54.07 57.31 54.79L45.72 55.58C50.11 53.57 54.50 51.05 58.46 48.38L55.01 45.58C53.64 46.73 51.98 47.81 50.40 48.82L44.64 49.03C46.73 48.02 48.82 46.87 50.76 45.50L48.53 44.42L68.26 44.42L68.26 39.74L52.99 39.74C54.07 35.57 55.08 31.03 55.87 26.64L51.05 25.92L49.97 26.21L25.63 26.21L26.42 23.83L20.09 22.90C18.65 27.50 16.56 33.19 14.83 37.01L47.09 37.01L46.37 39.74L3.96 39.74L3.96 44.42L45.36 44.42C42.98 46.15 40.32 47.59 39.38 47.95C38.38 48.46 37.51 48.67 36.58 48.82C37.15 50.04 37.87 52.20 38.09 53.21C38.74 52.92 39.89 52.63 44.57 52.27C42.70 53.35 41.18 54.14 40.46 54.50C38.45 55.44 36.86 56.02 35.50 56.16C36.00 57.38 36.65 59.62 36.79 60.48C37.87 60.05 39.31 59.83 47.09 59.11ZM53.71 62.86C56.45 64.44 59.98 67.18 61.70 69.12L65.23 66.10C63.43 64.30 59.98 61.78 57.10 60.12ZM40.90 60.55C39.31 62.57 37.01 64.51 34.63 66.17C35.57 66.82 37.51 68.33 38.30 69.19C40.82 67.32 43.63 64.44 45.36 61.99ZM22.75 68.47L22.75 58.18L33.55 58.18L33.55 53.57L22.75 53.57L22.75 45.36L17.64 45.36L17.64 53.57L12.02 53.57L15.84 51.77C15.19 49.90 13.54 47.52 11.88 45.65L7.70 47.66C9.22 49.39 10.80 51.77 11.38 53.57L5.26 53.57L5.26 58.18L17.64 58.18L17.64 68.40ZM11.09 58.97C9.72 61.27 7.56 63.65 5.26 65.52C6.26 66.17 8.14 67.75 8.86 68.54C11.30 66.46 14.04 63.14 15.70 60.19ZM28.51 45.65C27.50 47.45 25.49 50.18 24.05 51.91L27.94 53.42C29.59 51.91 31.54 49.68 33.48 47.38ZM33.98 65.02C32.54 63.22 29.74 60.55 27.43 58.75L23.83 60.98C25.99 62.71 28.80 65.59 30.24 67.54ZM68.62 72.79L52.42 72.79L52.42 69.19L45.79 69.19L45.79 72.79L26.86 72.79L26.86 69.05L20.45 69.05L20.45 72.79L3.31 72.79L3.31 78.05L19.94 78.05C18.72 80.71 15.26 83.23 5.90 84.67C7.20 85.90 8.78 87.91 9.58 89.28C22.03 87.05 25.78 82.94 26.64 78.05L45.79 78.05L45.79 89.14L52.42 89.14L52.42 78.05L68.62 78.05Z"/></svg>
