<svg xmlns="http://www.w3.org/2000/svg" xmlns:xlink="http://www.w3.org/1999/xlink" width="72.00000000000001" height="106.56000000000002"><path fill="red" stroke="red" d="M8.06 56.81C9.43 51.48 10.30 43.20 10.30 37.66L5.33 37.01C5.11 42.62 4.25 50.62 2.95 55.44ZM27.50 47.88C26.64 44.50 24.70 38.88 22.90 34.63L18.22 36.29L18.22 23.11L11.88 23.11L11.88 89.14L18.22 89.14L18.22 36.72C19.87 41.11 21.60 46.66 22.32 50.04ZM68.40 39.96L68.40 33.70L45.29 33.70C46.37 30.60 47.30 27.43 48.17 24.12L41.69 22.68C40.75 26.50 39.60 30.24 38.30 33.70L25.27 33.70L25.27 39.96L35.42 39.96C31.82 47.30 27.07 53.42 21.17 57.89C22.39 59.54 24.12 63.29 24.55 65.02C26.71 63.29 28.66 61.42 30.60 59.33L30.60 79.78L36.79 79.78L36.79 57.02L45.14 57.02L45.14 89.06L51.55 89.06L51.55 57.02L60.62 57.02L60.62 72.36C60.62 73.08 60.41 73.30 59.69 73.30C58.97 73.30 56.81 73.30 54.29 73.22C55.08 74.95 55.87 77.54 56.02 79.34C59.83 79.34 62.57 79.34 64.58 78.19C66.46 77.18 66.89 75.38 66.89 72.50L66.89 51.05L51.55 51.05L51.55 43.20L45.14 43.20L45.14 51.05L36.94 51.05C39.10 47.66 41.04 43.85 42.84 39.96Z"/></svg>
