<svg xmlns="http://www.w3.org/2000/svg" xmlns:xlink="http://www.w3.org/1999/xlink" width="72.00000000000001" height="106.56000000000002"><path fill="red" stroke="red" d="M58.54 52.42L46.58 52.42L46.58 33.48L58.54 33.48ZM65.02 27.58L40.46 27.58L40.46 58.39L65.02 58.39ZM30.82 63.43C33.77 66.82 37.58 71.50 39.24 74.38L44.86 71.21C42.98 68.26 39.02 63.79 36.00 60.62ZM28.87 35.93C28.15 39.67 26.42 43.99 22.39 48.02C20.02 46.80 17.42 45.72 15.05 44.78C16.13 42.34 17.28 39.53 18.43 36.58ZM36.50 56.23C34.27 54.58 31.32 52.63 27.94 50.83C32.62 45.79 34.42 40.39 35.06 35.57L37.73 35.42L37.87 30.02L35.35 30.17L35.35 27.58L29.38 27.58L29.38 30.31L29.38 30.46L20.52 30.89C21.17 28.66 21.89 26.28 22.46 24.19L16.20 23.40C15.55 25.85 14.76 28.51 13.90 31.18C10.01 31.39 6.48 31.54 3.53 31.61L4.10 37.44L11.66 36.94C10.22 40.82 8.57 44.42 6.98 47.23C10.44 48.53 14.04 50.18 17.57 51.98C14.04 54.43 9.29 56.74 3.10 58.68C4.25 59.90 6.05 61.99 6.77 63.50C13.97 61.13 19.37 58.18 23.47 55.08C27.07 57.17 30.24 59.26 32.40 61.13ZM9.07 84.38C11.52 79.99 14.04 73.22 15.84 68.40L9.94 65.95C8.35 70.85 5.62 77.26 2.88 81.50ZM31.03 81.72C26.86 81.72 26.14 81.36 26.14 79.20L26.14 64.51L19.37 64.51L19.37 79.20C19.37 85.90 21.60 87.77 30.46 87.77L44.93 87.77C52.06 87.77 54.07 85.46 55.01 76.10C53.14 75.74 50.33 74.66 48.74 73.58C48.38 80.64 47.81 81.72 44.42 81.72ZM54.14 66.60C56.95 71.78 60.48 78.70 62.06 82.80L68.47 79.85C66.74 75.89 63.00 69.12 60.19 64.22Z"/></svg>
