<svg xmlns="http://www.w3.org/2000/svg" xmlns:xlink="http://www.w3.org/1999/xlink" width="72.00000000000001" height="106.56000000000002"><path fill="red" stroke="red" d="M8.06 57.17C9.94 51.84 11.16 43.56 11.52 37.58L6.26 36.79C5.76 42.70 4.39 50.54 2.66 55.22ZM28.22 44.42C27.43 41.54 25.42 37.08 23.62 33.62L19.01 35.64L19.01 23.18L12.60 23.18L12.60 89.14L19.01 89.14L19.01 36.50C20.66 40.03 22.32 44.28 22.97 46.94ZM56.30 65.45L56.30 79.70L36.72 79.70L36.72 65.45ZM30.38 89.35L36.72 89.35L36.72 85.68L56.30 85.68L56.30 89.21L62.93 89.21L62.93 59.54L30.38 59.54ZM36.94 46.73C40.82 42.70 44.14 38.16 46.87 33.26C49.90 38.02 53.57 42.77 57.46 46.73ZM44.57 22.97C40.82 33.19 33.12 43.20 23.33 49.32C24.77 50.47 27.07 52.85 27.94 54.22C30.38 52.56 32.54 50.83 34.63 48.89L34.63 52.78L58.68 52.78L58.68 47.95C60.70 49.97 62.86 51.70 64.87 53.21C65.95 51.55 68.11 49.18 69.62 47.95C62.42 43.63 54.43 35.42 49.68 27.43C50.04 26.57 50.40 25.70 50.76 24.77Z"/></svg>
