<svg xmlns="http://www.w3.org/2000/svg" xmlns:xlink="http://www.w3.org/1999/xlink" width="72.00000000000001" height="106.56000000000002"><path fill="red" stroke="red" d="M7.13 57.31C8.93 51.98 10.22 43.63 10.58 37.73L5.62 37.01C5.11 42.77 3.74 50.69 2.02 55.51ZM37.01 47.16L54.50 47.16L54.50 57.96L37.01 57.96ZM56.45 82.08C54.94 82.08 54.65 81.79 54.65 79.92L54.65 63.86L61.13 63.86L61.13 42.34C61.92 43.49 62.57 44.71 63.14 45.65L68.26 42.05C65.23 36.86 58.61 29.02 52.92 23.47L48.31 26.57C52.49 30.89 57.10 36.43 60.34 41.18L33.62 41.18C37.58 36.65 41.33 31.18 43.92 25.56L37.73 23.69C34.63 30.46 29.52 37.15 23.98 41.54C23.33 39.10 22.46 36.50 21.60 34.27L18.07 35.42L18.07 23.11L11.66 23.11L11.66 89.21L18.07 89.21L18.07 36.72C19.58 41.04 20.88 46.30 21.31 49.68L25.42 48.02C25.20 46.37 24.70 44.28 24.12 42.05C25.63 43.13 27.86 45.00 28.80 46.01C29.45 45.50 30.02 44.93 30.67 44.35L30.67 63.86L36.36 63.86C35.42 72.65 33.05 79.85 23.11 83.88C24.48 85.10 26.42 87.48 27.22 89.14C38.81 83.88 41.83 75.02 42.98 63.86L48.02 63.86L48.02 79.99C48.02 86.11 49.39 88.06 55.44 88.06L61.85 88.06C66.89 88.06 68.54 85.54 69.12 75.74C67.39 75.31 64.66 74.16 63.22 73.08C63.07 80.93 62.78 82.08 61.27 82.08Z"/></svg>
