<svg xmlns="http://www.w3.org/2000/svg" xmlns:xlink="http://www.w3.org/1999/xlink" width="72.00000000000001" height="106.56000000000002"><path fill="red" stroke="red" d="M66.67 36.79C64.44 33.41 59.62 28.51 55.58 25.06L50.54 28.51C54.58 32.11 59.26 37.30 61.27 40.68ZM59.04 53.06C56.88 57.17 54.07 61.13 50.83 64.80C49.75 60.41 48.96 55.58 48.24 50.18L67.97 50.18L67.97 43.85L47.52 43.85C46.94 37.51 46.66 30.67 46.73 23.76L39.82 23.76C39.89 30.60 40.18 37.37 40.75 43.85L25.49 43.85L25.49 32.54C29.74 31.68 33.84 30.67 37.37 29.52L32.69 23.90C25.70 26.35 14.26 28.66 4.25 30.17C5.11 31.61 5.98 34.20 6.34 35.71C10.22 35.21 14.47 34.63 18.72 33.91L18.72 43.85L4.18 43.85L4.18 50.18L18.72 50.18L18.72 61.56C12.74 62.71 7.20 63.72 2.95 64.44L4.82 71.14C8.93 70.27 13.61 69.26 18.72 68.18L18.72 81.00C18.72 82.15 18.29 82.51 16.99 82.58C15.77 82.66 11.59 82.66 7.20 82.51C8.21 84.31 9.36 87.41 9.72 89.28C15.48 89.28 19.51 89.06 22.03 87.98C24.55 86.90 25.49 84.96 25.49 81.00L25.49 66.67C29.66 65.81 33.91 64.80 38.02 63.86L37.51 57.89L25.49 60.26L25.49 50.18L41.40 50.18C42.26 57.60 43.49 64.51 45.22 70.34C40.10 74.81 34.49 78.62 28.58 81.36C30.31 82.87 32.11 85.10 33.19 86.76C38.23 84.10 42.98 80.86 47.45 77.04C50.62 84.74 54.86 89.50 60.34 89.50C66.17 89.50 68.40 86.18 69.55 73.94C67.75 73.37 65.45 71.78 63.94 70.20C63.58 79.13 62.71 82.66 60.98 82.66C58.03 82.66 55.22 78.62 52.85 71.93C57.67 67.03 61.78 61.56 65.02 55.58Z"/></svg>
