<svg xmlns="http://www.w3.org/2000/svg" xmlns:xlink="http://www.w3.org/1999/xlink" width="72.00000000000001" height="106.56000000000002"><path fill="red" stroke="red" d="M26.86 60.84L25.99 54.72L19.51 56.30L19.51 43.42L26.21 43.42L26.21 37.22L19.51 37.22L19.51 23.18L12.96 23.18L12.96 37.22L3.53 37.22L3.53 43.42L12.96 43.42L12.96 57.82C9.07 58.75 5.47 59.54 2.59 60.19L4.39 66.67L12.96 64.44L12.96 81.22C12.96 82.30 12.60 82.58 11.59 82.66C10.73 82.66 7.63 82.66 4.46 82.58C5.33 84.24 6.26 86.98 6.48 88.63C11.38 88.63 14.62 88.49 16.70 87.41C18.72 86.47 19.51 84.74 19.51 81.29L19.51 62.78ZM44.86 26.57L44.86 32.62L52.27 32.62C54.29 40.10 57.60 47.09 61.78 52.20L32.47 52.20C37.15 46.44 40.75 38.45 42.84 29.74L36.43 28.44C34.49 37.44 30.46 45.58 24.91 50.76C26.35 51.70 28.94 53.93 29.95 55.08C30.67 54.36 31.32 53.64 32.04 52.78L32.04 58.39L39.10 58.39C37.87 70.63 34.06 79.34 25.27 84.31C26.71 85.46 29.09 88.13 30.02 89.42C39.74 83.09 44.28 73.15 45.86 58.39L56.66 58.39C55.94 73.94 55.08 79.92 53.78 81.43C53.14 82.22 52.49 82.44 51.48 82.37C50.26 82.44 47.81 82.37 44.93 82.08C45.94 83.74 46.58 86.40 46.66 88.13C49.82 88.34 52.92 88.34 54.72 88.06C56.74 87.77 58.18 87.26 59.47 85.54C61.56 83.02 62.50 75.46 63.36 55.01L63.43 54.00L64.15 54.72C65.38 53.35 68.04 51.12 69.70 50.18C63.86 45.29 59.33 36.14 57.53 26.57Z"/></svg>
