<svg xmlns="http://www.w3.org/2000/svg" xmlns:xlink="http://www.w3.org/1999/xlink" width="72.00000000000001" height="106.56000000000002"><path fill="red" stroke="red" d="M23.90 59.62L22.90 53.57L16.99 55.66L16.99 43.34L23.33 43.34L23.33 37.15L16.99 37.15L16.99 23.18L10.94 23.18L10.94 37.15L3.74 37.15L3.74 43.34L10.94 43.34L10.94 57.82C7.99 58.82 5.33 59.69 3.02 60.41L4.75 66.82L10.94 64.51L10.94 81.65C10.94 82.58 10.58 82.80 9.86 82.80C9.14 82.87 6.77 82.87 4.25 82.73C5.11 84.53 5.76 87.26 5.98 88.92C10.15 88.92 12.74 88.70 14.62 87.55C16.42 86.54 16.99 84.82 16.99 81.65L16.99 62.28ZM32.40 69.26L32.40 34.20C36.94 32.83 41.69 31.25 45.50 29.45L41.11 24.55C37.44 26.64 31.39 29.09 26.14 30.82L26.14 67.25C26.14 70.70 23.98 73.01 22.61 74.09C23.69 75.10 25.34 77.47 25.99 78.84C27.29 77.69 29.38 76.61 42.55 71.50C42.19 70.13 41.83 67.75 41.76 66.02ZM66.67 31.46L43.78 31.46L43.78 89.28L50.18 89.28L50.18 37.37L60.26 37.37L60.26 70.13C60.26 71.06 59.98 71.35 59.04 71.35C58.18 71.35 55.44 71.42 52.34 71.28C53.35 72.94 54.36 75.96 54.58 77.76C59.04 77.76 61.99 77.62 64.01 76.46C66.10 75.38 66.67 73.37 66.67 70.27Z"/></svg>
