<svg xmlns="http://www.w3.org/2000/svg" xmlns:xlink="http://www.w3.org/1999/xlink" width="72.00000000000001" height="106.56000000000002"><path fill="red" stroke="red" d="M26.21 59.90L25.34 53.86L17.93 56.02L17.93 43.34L26.06 43.34L26.06 37.15L17.93 37.15L17.93 23.11L11.81 23.11L11.81 37.15L3.38 37.15L3.38 43.34L11.81 43.34L11.81 57.89C8.50 58.82 5.40 59.62 2.95 60.26L4.46 66.74C6.70 66.10 9.22 65.30 11.81 64.51L11.81 81.00C11.81 82.01 11.45 82.30 10.58 82.30C9.79 82.37 7.06 82.37 4.18 82.30C5.04 84.02 5.83 86.83 6.05 88.49C10.51 88.49 13.46 88.27 15.41 87.19C17.28 86.18 17.93 84.38 17.93 81.07L17.93 62.57ZM61.34 24.55C53.71 27.29 40.03 29.45 28.08 30.60L28.08 45.65C28.08 57.10 27.43 73.94 21.24 86.04C22.82 86.62 25.56 88.06 26.71 89.06C33.12 76.46 34.13 57.82 34.13 45.65L34.13 35.42C45.58 34.34 57.89 32.40 66.53 29.38ZM41.47 88.06L47.74 88.06L47.74 37.37L41.47 37.37ZM54.36 35.57C55.01 59.18 56.38 78.77 64.66 89.14C65.66 87.26 67.82 84.46 69.34 83.23C62.21 74.81 60.98 55.73 60.48 35.35Z"/></svg>
