<svg xmlns="http://www.w3.org/2000/svg" xmlns:xlink="http://www.w3.org/1999/xlink" width="72.00000000000001" height="106.56000000000002"><path fill="red" stroke="red" d="M17.21 56.30L17.21 43.34L24.19 43.34L24.19 37.15L17.21 37.15L17.21 23.18L10.87 23.18L10.87 37.15L3.17 37.15L3.17 43.34L10.87 43.34L10.87 57.96C7.63 58.90 4.68 59.69 2.16 60.19L3.67 66.74L10.87 64.58L10.87 81.36C10.87 82.30 10.58 82.58 9.72 82.58C8.93 82.66 6.34 82.66 3.74 82.51C4.61 84.31 5.40 87.34 5.54 88.99C9.94 88.99 12.74 88.78 14.69 87.70C16.56 86.62 17.21 84.74 17.21 81.36L17.21 62.78C19.58 62.06 22.10 61.27 24.48 60.55L23.69 54.43ZM68.98 58.25L50.11 58.25L50.11 32.98L67.10 32.98L67.10 26.57L26.64 26.57L26.64 32.98L43.49 32.98L43.49 58.25L24.48 58.25L24.48 64.58L43.49 64.58L43.49 89.21L50.11 89.21L50.11 64.58L68.98 64.58ZM28.94 37.94C30.82 43.42 32.33 50.54 32.76 55.15L38.38 53.71C37.87 49.03 36.22 41.98 34.27 36.58ZM59.83 55.01C61.70 50.62 63.79 43.56 65.66 37.51L59.18 36.07C58.32 41.47 56.38 48.96 54.72 53.71Z"/></svg>
