<svg xmlns="http://www.w3.org/2000/svg" xmlns:xlink="http://www.w3.org/1999/xlink" width="72.00000000000001" height="106.56000000000002"><path fill="red" stroke="red" d="M24.26 53.93L18.00 55.80L18.00 43.34L25.42 43.34L25.42 37.15L18.00 37.15L18.00 23.26L11.59 23.26L11.59 37.15L3.24 37.15L3.24 43.34L11.59 43.34L11.59 57.74C8.06 58.68 4.82 59.62 2.23 60.26L3.74 66.74L11.59 64.37L11.59 81.50C11.59 82.51 11.23 82.80 10.30 82.80C9.50 82.80 6.77 82.80 3.96 82.73C4.82 84.53 5.62 87.48 5.90 89.21C10.44 89.21 13.39 88.92 15.34 87.84C17.35 86.76 18.00 84.96 18.00 81.50L18.00 62.28C20.38 61.63 22.82 60.84 25.13 60.05ZM35.64 70.49C32.62 76.03 27.36 81.43 22.10 84.89C23.62 85.90 26.28 88.06 27.58 89.28C32.83 85.32 38.59 78.98 42.12 72.65ZM51.05 73.58C55.44 78.34 60.55 84.96 62.86 89.14L68.62 85.46C66.10 81.36 61.06 75.17 56.66 70.56ZM41.04 44.21L52.49 44.21L52.49 60.41L41.04 60.41ZM59.04 60.41L59.04 44.21L67.61 44.21L67.61 37.80L59.04 37.80L59.04 23.83L52.49 23.83L52.49 37.80L41.04 37.80L41.04 23.83L34.49 23.83L34.49 37.80L27.14 37.80L27.14 44.21L34.49 44.21L34.49 60.41L25.13 60.41L25.13 66.96L68.83 66.96L68.83 60.41Z"/></svg>
