<svg xmlns="http://www.w3.org/2000/svg" xmlns:xlink="http://www.w3.org/1999/xlink" width="72.00000000000001" height="106.56000000000002"><path fill="red" stroke="red" d="M67.61 50.62L67.61 45.00L32.76 45.00C33.77 43.42 34.63 41.83 35.42 40.18L62.78 40.18L62.78 34.63L52.56 34.63C54.36 32.33 56.30 29.59 58.03 27.00L51.77 25.06C50.47 27.86 48.02 31.75 45.86 34.63L37.80 34.63C39.24 31.03 40.25 27.29 40.90 23.54L34.13 22.82C33.55 26.78 32.47 30.74 30.89 34.63L22.46 34.63L25.70 32.90C24.62 30.60 22.10 27.07 19.94 24.48L14.90 26.93C16.85 29.30 18.79 32.33 19.94 34.63L9.00 34.63L9.00 40.18L28.15 40.18C27.29 41.83 26.21 43.42 24.98 45.00L4.61 45.00L4.61 50.62L20.02 50.62C15.41 55.01 9.65 58.82 2.45 61.78C3.82 62.86 5.69 65.45 6.41 67.03C12.10 64.66 16.85 61.70 20.95 58.32C21.31 59.18 21.67 60.19 21.74 60.98C25.20 60.84 28.94 60.62 32.69 60.34L32.69 64.01L15.48 64.01L15.48 68.76L32.69 68.76L32.69 72.72L8.42 72.72L8.42 77.69L32.69 77.69L32.69 82.22C32.69 83.23 32.33 83.52 31.03 83.59C29.95 83.66 25.49 83.66 21.31 83.45C22.25 84.96 23.33 87.34 23.83 88.92C29.52 88.92 33.34 88.92 35.93 87.98C38.45 87.19 39.31 85.68 39.31 82.37L39.31 77.69L63.50 77.69L63.50 72.72L39.31 72.72L39.31 68.76L56.66 68.76L56.66 64.01L39.31 64.01L39.31 59.54C42.77 59.11 46.08 58.61 48.82 57.96L44.57 53.86C39.60 55.08 30.89 56.02 23.04 56.59C25.13 54.65 27.00 52.70 28.73 50.62L43.49 50.62C48.74 58.25 57.10 64.22 66.31 67.18C67.25 65.59 69.12 63.07 70.49 61.85C62.86 59.76 55.66 55.73 50.83 50.62Z"/></svg>
