<svg xmlns="http://www.w3.org/2000/svg" xmlns:xlink="http://www.w3.org/1999/xlink" width="72.00000000000001" height="106.56000000000002"><path fill="red" stroke="red" d="M24.55 60.12L23.54 54.07L17.86 55.80L17.86 43.34L24.48 43.34L24.48 37.15L17.86 37.15L17.86 23.26L11.38 23.26L11.38 37.15L3.17 37.15L3.17 43.34L11.38 43.34L11.38 57.74C7.92 58.75 4.75 59.62 2.23 60.26L3.74 66.74L11.38 64.37L11.38 81.00C11.38 81.94 11.09 82.22 10.15 82.22C9.36 82.30 6.70 82.30 3.89 82.15C4.75 84.02 5.62 87.05 5.83 88.70C10.30 88.70 13.25 88.49 15.26 87.41C17.14 86.33 17.86 84.38 17.86 81.00L17.86 62.28ZM42.84 57.17L42.84 44.21L52.06 44.21L52.06 57.17ZM68.33 57.17L58.68 57.17L58.68 44.21L66.67 44.21L66.67 37.87L58.18 37.87C60.41 34.20 62.71 29.59 64.73 25.49L57.67 23.11C56.30 27.65 53.71 33.70 51.48 37.87L38.81 37.87L44.35 35.57C43.20 32.33 40.46 27.22 37.94 23.54L32.18 25.78C34.56 29.52 37.08 34.70 38.09 37.87L28.30 37.87L28.30 44.21L36.36 44.21L36.36 57.17L25.99 57.17L25.99 63.58L36.14 63.58C35.42 70.99 32.98 79.34 24.26 84.74C25.85 85.90 27.86 88.13 28.80 89.57C38.59 82.66 41.69 72.72 42.55 63.58L52.06 63.58L52.06 88.92L58.68 88.92L58.68 63.58L68.33 63.58Z"/></svg>
