<svg xmlns="http://www.w3.org/2000/svg" xmlns:xlink="http://www.w3.org/1999/xlink" width="72.00000000000001" height="106.56000000000002"><path fill="red" stroke="red" d="M34.70 61.99C36.65 59.54 38.45 56.88 39.96 53.93L52.78 53.93C54.22 56.74 55.94 59.47 57.89 61.99L49.25 61.99L49.25 56.74L43.20 56.74L43.20 61.99ZM59.18 67.25L59.18 63.50C61.13 65.81 63.36 67.82 65.59 69.26C66.60 67.75 68.40 65.59 69.84 64.51C65.88 62.28 61.99 58.25 59.33 53.93L68.69 53.93L68.69 48.53L42.41 48.53C42.98 47.16 43.56 45.65 43.99 44.14L65.45 44.14L65.45 38.95L45.43 38.95C45.79 37.58 46.08 36.29 46.37 34.85L66.74 34.85L66.74 29.52L47.30 29.52C47.66 27.65 47.95 25.70 48.17 23.76L42.12 23.18C41.90 25.34 41.62 27.50 41.26 29.52L27.22 29.52L27.22 34.85L40.32 34.85C40.03 36.29 39.67 37.58 39.31 38.95L28.51 38.95L28.51 44.14L37.80 44.14C37.22 45.65 36.65 47.16 35.93 48.53L24.26 48.53L24.26 53.21L17.71 55.15L17.71 43.34L24.91 43.34L24.91 37.15L17.71 37.15L17.71 23.26L11.59 23.26L11.59 37.15L3.24 37.15L3.24 43.34L11.59 43.34L11.59 57.02C8.06 57.96 4.82 58.90 2.23 59.54L3.31 66.10L11.59 63.58L11.59 81.79C11.59 82.80 11.23 83.02 10.30 83.02C9.50 83.09 6.84 83.09 3.96 83.02C4.82 84.74 5.62 87.62 5.76 89.21C10.37 89.21 13.18 88.99 15.12 87.91C17.06 86.90 17.71 85.10 17.71 81.79L17.71 61.70L25.13 59.33L24.34 53.93L32.98 53.93C30.10 58.54 26.28 62.35 21.46 65.30C22.90 66.24 25.20 68.69 26.06 69.84C28.73 67.97 31.18 65.88 33.26 63.50L33.26 67.25L43.20 67.25L43.20 72.36L27.22 72.36L27.22 77.69L43.20 77.69L43.20 89.06L49.25 89.06L49.25 77.69L65.66 77.69L65.66 72.36L49.25 72.36L49.25 67.25Z"/></svg>
