<svg xmlns="http://www.w3.org/2000/svg" xmlns:xlink="http://www.w3.org/1999/xlink" width="72.00000000000001" height="106.56000000000002"><path fill="red" stroke="red" d="M66.82 30.17L52.99 30.17C52.06 27.86 50.76 24.98 49.46 22.82L42.12 24.12C43.13 25.92 44.14 28.15 44.86 30.17L28.22 30.17L28.22 35.86L66.82 35.86ZM68.18 46.73L56.81 46.73C58.39 44.14 60.05 40.97 61.63 37.94L55.30 36.22C54.29 39.31 52.06 43.78 50.40 46.73L38.38 46.73L43.85 44.57C43.06 42.19 40.90 38.66 38.95 36.00L33.41 38.02C35.21 40.75 37.22 44.42 37.94 46.73L26.50 46.73L26.50 52.42L68.18 52.42ZM24.05 54.00C22.03 54.58 19.87 55.22 17.86 55.87L17.86 43.34L25.06 43.34L25.06 37.15L17.86 37.15L17.86 23.26L11.66 23.26L11.66 37.15L3.17 37.15L3.17 43.34L11.66 43.34L11.66 57.67C8.06 58.68 4.82 59.54 2.23 60.26L3.74 66.74L11.66 64.22L11.66 81.50C11.66 82.51 11.38 82.80 10.44 82.80C9.65 82.80 6.98 82.80 4.18 82.73C5.04 84.46 5.83 87.34 6.05 88.92C10.51 88.99 13.32 88.70 15.26 87.70C17.14 86.62 17.86 84.89 17.86 81.50L17.86 62.28C20.23 61.56 22.68 60.84 24.98 60.05ZM54.58 65.38C53.06 69.12 51.05 72.14 48.31 74.66C44.93 73.30 41.54 72.00 38.38 70.92C39.53 69.19 40.75 67.32 41.83 65.38ZM69.19 65.38L69.19 59.69L63.14 59.69C63.36 58.61 63.50 57.60 63.72 56.52L57.24 55.44C56.95 56.95 56.66 58.32 56.38 59.69L45.07 59.69C46.15 57.82 47.09 55.80 47.95 54.00L41.62 52.70C40.75 54.86 39.53 57.31 38.23 59.69L25.63 59.69L25.63 65.38L34.85 65.38C33.05 68.33 31.03 71.21 29.30 73.44C33.55 74.88 38.16 76.61 42.70 78.62C38.16 80.93 32.40 82.51 25.06 83.52C26.21 84.89 27.50 87.34 28.01 89.14C37.30 87.48 44.35 85.18 49.61 81.65C55.15 84.24 59.98 86.83 63.29 89.06L67.90 84.17C64.44 82.01 59.76 79.70 54.72 77.40C57.74 74.16 59.98 70.27 61.63 65.38Z"/></svg>
