<svg xmlns="http://www.w3.org/2000/svg" xmlns:xlink="http://www.w3.org/1999/xlink" width="72.00000000000001" height="106.56000000000002"><path fill="red" stroke="red" d="M22.75 54.43L16.92 56.16L16.92 43.34L22.97 43.34L22.97 37.15L16.92 37.15L16.92 23.26L10.73 23.26L10.73 37.15L3.53 37.15L3.53 43.34L10.73 43.34L10.73 58.10C7.63 58.97 4.82 59.69 2.45 60.26L4.10 66.74L10.73 64.73L10.73 81.29C10.73 82.15 10.44 82.44 9.72 82.44C8.93 82.44 6.84 82.44 4.54 82.37C5.33 84.17 6.05 86.98 6.26 88.56C10.22 88.56 12.74 88.42 14.54 87.26C16.27 86.26 16.92 84.46 16.92 81.29L16.92 62.78L23.69 60.55ZM69.70 57.82C67.68 54.14 63.07 48.89 59.11 45.29L54.22 47.74C55.51 48.89 56.81 50.26 58.03 51.70L39.74 52.78C47.09 49.39 54.43 45.22 61.20 40.46L56.88 36.50C54.79 38.02 52.63 39.60 50.40 41.04L38.59 41.69C42.19 39.74 45.72 37.44 49.10 34.99L68.18 34.99L68.18 29.23L52.13 29.23C51.41 27.29 50.11 24.62 49.10 22.61L42.84 24.26C43.49 25.78 44.28 27.50 44.86 29.23L25.63 29.23L25.63 34.99L40.10 34.99C36.58 37.51 32.98 39.53 31.61 40.18C29.66 41.18 28.22 41.90 26.71 42.05C27.36 43.63 28.22 46.44 28.51 47.59C29.74 47.16 31.61 46.87 42.19 46.01C37.87 48.38 34.27 50.26 32.54 50.90C29.23 52.49 26.71 53.50 24.62 53.64C25.27 55.30 26.06 58.18 26.28 59.33C28.58 58.46 31.90 58.18 61.70 56.16C62.86 57.67 63.86 59.18 64.44 60.41ZM43.99 66.02L43.99 71.21L34.20 71.21L34.20 66.02ZM59.18 71.21L50.18 71.21L50.18 66.02L59.18 66.02ZM50.18 81.50L50.18 76.03L59.18 76.03L59.18 81.50ZM34.20 76.03L43.99 76.03L43.99 81.50L34.20 81.50ZM27.72 89.14L34.20 89.14L34.20 86.47L59.18 86.47L59.18 89.14L65.88 89.14L65.88 61.06L27.72 61.06Z"/></svg>
