<svg xmlns="http://www.w3.org/2000/svg" xmlns:xlink="http://www.w3.org/1999/xlink" width="72.00000000000001" height="106.56000000000002"><path fill="red" stroke="red" d="M24.19 44.14L24.91 48.60L37.37 46.87C37.37 52.56 39.38 54.00 46.80 54.00L59.26 54.00C64.80 54.00 66.53 52.42 67.18 46.51C65.59 46.22 63.14 45.50 61.85 44.64C61.56 48.53 61.06 49.18 58.68 49.18L47.45 49.18C44.21 49.18 43.63 48.82 43.63 46.80L43.63 46.01L65.74 42.91L65.02 38.66L43.63 41.54L43.63 38.02L61.27 35.50L60.55 31.18L43.63 33.55L43.63 30.17C48.89 29.23 53.86 28.15 57.89 26.93L53.57 23.18C47.02 25.27 35.28 27.29 25.06 28.44C25.63 29.52 26.35 31.39 26.57 32.47C30.02 32.11 33.70 31.68 37.37 31.18L37.37 34.42L25.78 36.00L26.57 40.46L37.37 38.95L37.37 42.34ZM58.68 83.45C57.24 83.45 56.95 83.23 56.95 81.50L56.95 77.47L69.48 75.38L68.54 71.06L56.95 73.01L56.95 69.12L66.89 67.39L66.02 63.14L56.95 64.66L56.95 60.77C60.26 59.90 63.43 58.90 66.10 57.74L61.70 54.07C57.60 56.02 50.40 57.89 44.06 59.18C44.71 60.19 45.36 61.99 45.58 63.07C47.52 62.78 49.54 62.42 51.55 61.99L51.55 65.59L44.78 66.74L45.65 71.06L51.55 70.06L51.55 73.87L44.93 74.95L44.21 71.21L34.13 72.86L34.13 69.05L42.91 67.54L41.98 63.36L34.13 64.66L34.13 60.77C37.44 59.90 40.54 58.82 43.20 57.74L38.74 54.07C35.42 55.73 29.88 57.38 24.55 58.61L23.69 53.14C21.60 53.78 19.44 54.43 17.35 55.08L17.35 43.27L23.54 43.27L23.54 37.08L17.35 37.08L17.35 23.11L11.38 23.11L11.38 37.08L3.24 37.08L3.24 43.27L11.38 43.27L11.38 56.81C7.92 57.82 4.68 58.75 2.09 59.40L3.67 65.81L11.38 63.43L11.38 81.94C11.38 82.87 11.02 83.16 10.08 83.16C9.29 83.23 6.62 83.23 3.74 83.09C4.61 84.89 5.33 87.62 5.54 89.21C10.01 89.21 12.96 88.99 14.83 88.06C16.70 86.98 17.35 85.18 17.35 81.94L17.35 61.56L21.74 60.19C22.18 61.13 22.68 62.42 22.82 63.22C24.70 62.93 26.71 62.50 28.66 62.06L28.66 65.59L21.89 66.74L22.82 71.06L28.66 70.06L28.66 73.80L20.95 75.10L21.89 79.49L28.66 78.34L28.66 81.50C28.66 86.90 29.88 88.42 34.92 88.42L41.11 88.42C44.78 88.42 46.30 86.90 46.94 81.36C45.36 81.07 43.20 80.28 42.12 79.42C41.90 82.87 41.69 83.45 40.54 83.45L35.78 83.45C34.34 83.45 34.13 83.23 34.13 81.50L34.13 77.40L44.28 75.74L44.93 79.49L51.55 78.41L51.55 81.50C51.55 86.90 52.70 88.42 57.82 88.42L63.94 88.42C67.75 88.42 69.26 86.76 69.77 80.78C68.26 80.35 66.10 79.56 65.02 78.62C64.87 82.80 64.58 83.45 63.29 83.45Z"/></svg>
