<svg xmlns="http://www.w3.org/2000/svg" xmlns:xlink="http://www.w3.org/1999/xlink" width="72.00000000000001" height="106.56000000000002"><path fill="red" stroke="red" d="M23.69 53.21L16.92 55.22L16.92 43.34L23.54 43.34L23.54 37.15L16.92 37.15L16.92 23.18L10.94 23.18L10.94 37.15L3.24 37.15L3.24 43.34L10.94 43.34L10.94 56.95C7.63 57.96 4.61 58.75 2.09 59.40L3.67 65.88L10.94 63.58L10.94 81.94C10.94 82.87 10.58 83.16 9.72 83.16C8.93 83.23 6.19 83.23 3.31 83.09C4.18 84.89 4.97 87.62 5.18 89.21C9.65 89.21 12.53 88.99 14.40 87.98C16.27 86.98 16.92 85.18 16.92 81.94L16.92 61.70L24.48 59.26ZM42.77 65.74L42.77 71.21L32.47 71.21L32.47 65.74ZM59.40 71.21L48.74 71.21L48.74 65.74L59.40 65.74ZM48.74 81.36L48.74 75.89L59.40 75.89L59.40 81.36ZM32.47 81.36L32.47 75.89L42.77 75.89L42.77 81.36ZM26.50 88.99L32.47 88.99L32.47 86.62L59.40 86.62L59.40 88.78L65.66 88.78L65.66 60.48L26.50 60.48ZM28.51 58.03C32.54 56.95 36.79 55.73 41.40 54.43L41.18 50.69C35.71 51.70 30.60 52.56 26.71 53.14ZM30.38 46.01C33.55 46.87 37.66 48.38 39.74 49.39L41.98 45.72C39.74 44.71 35.64 43.42 32.54 42.70ZM51.77 49.32C54.58 48.60 58.61 47.38 61.56 45.79L58.90 42.41C56.59 43.56 52.34 45.43 49.61 46.30ZM65.59 53.93C62.42 52.70 56.52 51.12 52.20 50.26L50.26 53.86C54.72 55.01 60.70 56.74 63.79 57.96ZM48.74 35.28L48.74 31.18L65.81 31.18L65.81 25.85L26.42 25.85L26.42 31.18L43.06 31.18L43.06 35.28L24.48 35.28L24.48 47.16L29.74 47.16L29.74 40.54L43.06 40.54L43.06 57.89L48.74 57.89L48.74 40.54L62.35 40.54L62.35 47.16L67.82 47.16L67.82 35.28Z"/></svg>
