<svg xmlns="http://www.w3.org/2000/svg" xmlns:xlink="http://www.w3.org/1999/xlink" width="72.00000000000001" height="106.56000000000002"><path fill="red" stroke="red" d="M22.54 53.14L16.85 54.94L16.85 43.34L22.39 43.34L22.39 37.15L16.85 37.15L16.85 23.11L11.02 23.11L11.02 37.15L3.24 37.15L3.24 43.34L11.02 43.34L11.02 56.66C7.70 57.67 4.61 58.46 2.16 59.18L3.67 65.66C5.90 65.02 8.42 64.15 11.02 63.29L11.02 82.08C11.02 83.09 10.66 83.38 9.79 83.38C9.07 83.38 6.34 83.38 3.60 83.30C4.39 84.96 5.11 87.62 5.40 89.14C9.72 89.21 12.46 88.99 14.33 87.98C16.13 86.98 16.85 85.25 16.85 82.08L16.85 61.42L23.40 59.18ZM37.73 30.53L37.73 34.85L30.10 34.85L30.10 30.53ZM30.10 43.99L30.10 39.60L37.73 39.60L37.73 43.99ZM43.27 48.82L43.27 25.70L24.26 25.70L24.26 89.21L30.10 89.21L30.10 48.82ZM52.99 43.99L52.99 39.60L60.91 39.60L60.91 43.99ZM60.91 30.53L60.91 34.85L52.99 34.85L52.99 30.53ZM49.54 80.78L41.40 80.78L41.40 75.96L49.54 75.96ZM50.11 57.10C49.18 58.54 48.02 59.98 46.73 61.27C44.86 60.19 42.84 59.18 41.04 58.32C41.33 57.96 41.69 57.53 42.05 57.10ZM66.82 25.70L47.52 25.70L47.52 48.82L60.91 48.82L60.91 81.86C60.91 82.73 60.70 83.02 59.83 83.02C59.18 83.09 56.88 83.09 54.50 82.94L54.50 71.71L39.31 71.71C42.26 70.34 45.07 68.69 47.59 66.74C51.48 69.19 55.08 71.71 57.31 73.87L59.90 70.13C57.74 68.11 54.50 65.88 50.83 63.65C53.35 60.91 55.51 57.67 56.81 53.86L53.71 52.70L52.78 52.85L44.71 52.85C45.22 51.91 45.58 51.05 46.01 50.04L41.26 48.96C39.31 53.78 35.50 57.96 31.10 60.77C32.11 61.49 33.98 63.22 34.70 64.15C35.86 63.36 37.01 62.42 38.09 61.42C39.74 62.21 41.54 63.14 43.20 64.15C39.60 66.67 35.28 68.54 30.96 69.62C31.82 70.56 33.05 72.65 33.62 73.87C34.63 73.58 35.57 73.22 36.58 72.86L36.58 87.19L41.40 87.19L41.40 85.03L54.50 85.03L54.50 83.88C55.15 85.54 55.66 87.77 55.87 89.28C59.76 89.28 62.57 89.06 64.51 87.98C66.31 86.83 66.82 85.03 66.82 81.94Z"/></svg>
