<svg xmlns="http://www.w3.org/2000/svg" xmlns:xlink="http://www.w3.org/1999/xlink" width="72.00000000000001" height="106.56000000000002"><path fill="red" stroke="red" d="M45.65 44.21L45.65 51.84C45.65 56.45 47.09 57.60 53.28 57.60L62.28 57.60C66.38 57.60 67.90 56.38 68.40 52.20C66.89 51.91 64.87 51.34 63.72 50.69C63.50 53.14 63.14 53.57 61.63 53.57L53.93 53.57C51.77 53.57 51.34 53.35 51.34 51.84L51.34 49.97L64.58 49.97L64.58 46.37L51.34 46.37L51.34 44.21ZM50.26 29.81C48.96 30.82 47.52 31.75 46.15 32.54L29.81 32.54C31.03 31.68 32.11 30.74 33.19 29.81ZM59.33 39.67L31.32 39.67L31.32 36.36L59.33 36.36ZM25.70 43.56L65.23 43.56L65.23 32.54L54.07 32.54C56.02 31.32 57.74 29.95 59.33 28.58L56.09 25.78L54.94 26.06L36.72 26.06C37.30 25.34 37.80 24.62 38.30 23.90L32.54 22.75C30.02 26.06 25.70 29.74 19.73 32.40C20.81 33.34 22.39 35.50 23.04 36.79C23.90 36.29 24.84 35.78 25.70 35.28ZM23.04 60.41L21.67 54.58L16.56 56.59L16.56 43.20L22.54 43.20L22.54 37.15L16.56 37.15L16.56 23.18L10.80 23.18L10.80 37.15L3.60 37.15L3.60 43.20L10.80 43.20L10.80 58.90C7.70 60.12 4.90 61.13 2.52 61.92L3.89 68.33L10.80 65.45L10.80 81.65C10.80 82.58 10.44 82.80 9.65 82.80C8.93 82.87 6.48 82.87 3.89 82.73C4.68 84.38 5.47 87.05 5.62 88.63C9.72 88.63 12.38 88.42 14.18 87.41C15.91 86.40 16.56 84.74 16.56 81.65L16.56 63.07ZM30.53 73.37L30.53 69.19L41.90 69.19C41.54 70.70 41.11 72.07 40.61 73.37ZM49.82 62.78C48.67 63.72 47.38 64.51 46.15 65.23L31.18 65.23C32.26 64.44 33.12 63.65 34.06 62.78ZM60.91 73.37L46.58 73.37C47.02 72.07 47.38 70.70 47.59 69.19L60.91 69.19ZM53.35 84.67C50.76 84.67 50.18 84.38 50.18 82.87L50.18 77.33L66.89 77.33L66.89 65.23L53.86 65.23C55.58 64.01 57.31 62.78 58.82 61.49L55.58 58.68L54.43 58.97L37.66 58.97C38.09 58.46 38.45 57.89 38.81 57.46L34.92 56.66C37.37 56.30 40.32 55.94 44.21 55.44C44.14 54.50 43.99 52.70 44.14 51.48L32.04 52.85L32.04 49.90L43.85 49.90L43.85 46.30L32.04 46.30L32.04 44.21L26.50 44.21L26.50 50.33C26.50 52.63 25.20 52.85 24.19 53.06C24.84 54.36 25.49 56.95 25.70 58.39C26.57 57.96 27.79 57.67 32.62 57.02C29.59 60.48 24.77 64.30 18.36 67.03C19.51 67.90 21.10 69.84 21.82 71.14C22.90 70.56 23.90 70.06 24.91 69.48L24.91 77.33L38.09 77.33C34.85 80.86 29.23 83.09 19.30 84.53C20.23 85.61 21.60 87.77 22.03 89.14C34.63 86.98 41.18 83.38 44.64 77.69L44.64 82.87C44.64 87.26 46.30 88.42 52.70 88.42L63.29 88.42C67.82 88.42 69.26 86.90 69.77 81.36C68.40 81.14 66.38 80.50 65.30 79.85C65.09 83.95 64.58 84.67 62.57 84.67ZM62.28 81.50C60.62 80.35 57.60 78.70 55.37 77.54L52.63 80.14C55.01 81.43 58.03 83.16 59.54 84.38Z"/></svg>
