<svg xmlns="http://www.w3.org/2000/svg" xmlns:xlink="http://www.w3.org/1999/xlink" width="72.00000000000001" height="106.56000000000002"><path fill="red" stroke="red" d="M30.02 71.35C29.16 73.44 27.65 75.60 24.41 77.62C21.74 76.54 18.86 75.46 16.20 74.59C16.85 73.73 17.42 72.94 18.00 72.00ZM12.10 54.58L19.73 54.58L19.73 58.18L12.10 58.18ZM32.62 54.58L32.62 58.18L24.91 58.18L24.91 54.58ZM14.04 43.27L14.04 39.74L19.73 39.74L19.73 43.27ZM19.73 32.26L19.73 35.42L14.04 35.42L14.04 32.26ZM30.96 32.26L30.96 35.42L24.91 35.42L24.91 32.26ZM24.91 43.27L24.91 39.74L30.96 39.74L30.96 43.27ZM38.23 84.17C36.00 82.94 33.12 81.43 29.95 79.92C33.55 77.11 35.06 73.94 35.71 70.99L39.10 70.78L39.17 66.38L36.14 66.53L36.14 63.79L30.82 63.79L30.82 66.74L30.82 66.82L21.10 67.32C22.03 65.66 22.90 64.08 23.76 62.42L38.45 62.42L38.45 50.26L24.91 50.26L24.91 47.74L36.79 47.74L36.79 40.03L41.76 40.03L41.76 35.06L36.79 35.06L36.79 27.86L24.91 27.86L24.91 23.11L19.73 23.11L19.73 27.86L8.50 27.86L8.50 35.06L3.38 35.06L3.38 40.03L8.50 40.03L8.50 47.74L19.73 47.74L19.73 50.26L6.55 50.26L6.55 62.42L17.71 62.42C16.92 64.15 15.84 65.81 14.76 67.61C10.58 67.75 6.70 67.97 3.53 68.04L4.03 72.79L11.59 72.36C10.44 74.02 9.29 75.53 8.14 76.82C11.52 77.83 15.12 79.06 18.65 80.50C14.62 82.01 9.29 83.45 2.16 84.60C3.17 85.68 4.32 87.70 4.75 88.92C13.82 87.48 20.23 85.46 24.91 83.16C28.44 84.82 31.61 86.47 33.91 87.98ZM58.18 42.48C57.38 49.75 56.30 56.30 54.50 61.99C52.56 56.09 51.12 49.46 50.18 42.48ZM68.76 42.48L68.76 36.58L51.48 36.58C52.34 32.62 52.99 28.44 53.57 24.26L47.88 23.54C46.44 35.64 43.85 47.52 39.02 55.08C40.32 56.02 42.55 58.18 43.42 59.26C44.64 57.24 45.72 55.01 46.80 52.49C48.02 58.68 49.54 64.37 51.62 69.48C48.60 75.82 44.28 80.93 38.23 84.67C39.38 85.82 41.18 88.42 41.69 89.64C47.16 85.90 51.41 81.36 54.58 75.82C57.46 81.07 61.06 85.25 65.52 88.42C66.38 86.83 68.04 84.82 69.41 83.74C64.44 80.64 60.55 75.82 57.60 69.77C60.84 62.14 62.71 53.14 63.86 42.48Z"/></svg>
