<svg xmlns="http://www.w3.org/2000/svg" xmlns:xlink="http://www.w3.org/1999/xlink" width="72.00000000000001" height="106.56000000000002"><path fill="red" stroke="red" d="M49.82 41.98C46.58 50.83 42.12 58.18 36.29 64.22C30.17 57.89 25.34 50.47 21.89 41.98ZM68.47 41.98L68.47 35.50L36.14 35.50L42.55 33.48C41.62 30.53 39.31 25.92 37.22 22.54L30.17 24.62C32.11 28.01 34.13 32.54 34.99 35.50L3.82 35.50L3.82 41.98L14.90 41.98C18.94 52.49 24.26 61.49 31.25 68.90C23.62 75.17 14.18 79.63 2.59 82.73C3.96 84.31 5.98 87.41 6.77 89.14C18.43 85.54 28.22 80.50 36.22 73.73C43.99 80.50 53.57 85.61 65.02 88.70C66.10 86.76 68.04 83.95 69.55 82.51C58.46 79.78 49.10 75.10 41.40 68.83C48.17 61.63 53.50 52.85 57.31 41.98Z"/></svg>
