<svg xmlns="http://www.w3.org/2000/svg" xmlns:xlink="http://www.w3.org/1999/xlink" width="72.00000000000001" height="106.56000000000002"><path fill="red" stroke="red" d="M55.51 38.09C53.50 35.21 48.96 31.32 45.22 28.80L41.11 32.40C44.93 35.14 49.25 39.24 51.19 42.19ZM53.71 56.16C51.62 53.06 47.16 48.89 43.34 46.08L39.17 49.54C42.98 52.49 47.30 56.95 49.25 60.05ZM11.52 64.66L16.99 64.66C16.56 69.41 15.41 72.07 11.52 73.58ZM15.77 54.36L28.15 54.36L28.15 58.97L15.77 58.97ZM28.15 35.35L28.15 39.82L15.77 39.82L15.77 35.35ZM15.77 44.71L28.15 44.71L28.15 49.39L15.77 49.39ZM34.13 35.35L39.10 35.35L39.10 29.81L34.13 29.81L34.13 23.04L28.15 23.04L28.15 29.81L15.77 29.81L15.77 23.04L9.79 23.04L9.79 29.81L3.89 29.81L3.89 35.35L9.79 35.35L9.79 58.97L2.95 58.97L2.95 64.66L5.76 64.66L5.76 77.40C5.76 84.24 7.99 86.33 15.34 86.33L31.75 86.33C34.78 86.33 38.09 86.26 39.46 85.82C39.24 84.53 38.95 81.94 38.81 80.35C37.08 80.71 33.77 80.86 31.68 80.86L14.90 80.86C12.17 80.86 11.52 79.99 11.52 77.54L11.52 74.23C12.46 75.17 13.39 76.61 13.75 77.54C19.66 75.38 21.46 71.42 21.96 64.66L25.78 64.66L25.78 69.19C25.78 74.45 26.78 76.18 31.68 76.18L35.28 76.18C36.43 76.18 37.66 76.10 38.52 75.89C38.38 74.66 38.23 72.43 38.02 71.06C37.22 71.35 36.00 71.42 35.21 71.42L31.68 71.42C30.96 71.42 30.82 70.92 30.82 69.26L30.82 64.66L39.60 64.66L39.60 58.97L34.13 58.97ZM69.77 68.40L68.69 62.35L62.86 63.50L62.86 23.18L56.81 23.18L56.81 64.73L40.10 68.04L41.26 74.02L56.81 70.92L56.81 88.99L62.86 88.99L62.86 69.77Z"/></svg>
