<svg xmlns="http://www.w3.org/2000/svg" xmlns:xlink="http://www.w3.org/1999/xlink" width="72.00000000000001" height="106.56000000000002"><path fill="red" stroke="red" d="M35.28 58.18L35.28 46.66L44.64 46.66C44.42 50.69 44.14 54.58 43.56 58.18ZM52.27 34.56C50.69 37.01 48.96 39.46 47.30 41.40L35.21 41.40C36.86 39.24 38.38 36.86 39.67 34.56ZM58.97 58.18L49.68 58.18C50.26 54.58 50.54 50.62 50.76 46.66L58.97 46.66ZM11.38 69.48L11.38 54.50L19.30 54.50L19.30 69.48ZM19.30 34.27L19.30 48.67L11.38 48.67L11.38 34.27ZM54.07 82.58C51.77 82.58 51.41 82.37 51.41 80.28L51.41 63.43L65.23 63.43L65.23 41.40L54.72 41.40C57.24 38.16 59.90 34.20 62.14 30.46L57.17 28.80L56.02 29.09L42.48 29.09C43.20 27.43 43.92 25.85 44.50 24.26L37.87 23.26C35.64 29.52 31.54 37.01 25.13 42.84L25.13 28.30L5.54 28.30L5.54 81.00L11.38 81.00L11.38 75.53L25.13 75.53L25.13 43.99C26.50 45.00 28.08 46.87 28.94 48.17L29.30 47.81L29.30 63.43L42.41 63.43C39.89 72.50 34.49 79.78 21.96 84.24C23.40 85.39 25.06 87.70 25.78 89.28C35.78 85.46 41.69 79.85 45.22 73.01L45.22 80.35C45.22 86.33 46.80 88.06 53.14 88.06L61.70 88.06C67.03 88.06 68.62 85.68 69.19 76.39C67.61 75.96 65.02 75.02 63.72 74.02C63.50 81.43 63.07 82.58 61.13 82.58Z"/></svg>
