<svg xmlns="http://www.w3.org/2000/svg" xmlns:xlink="http://www.w3.org/1999/xlink" width="72.00000000000001" height="106.56000000000002"><path fill="red" stroke="red" d="M18.86 33.98L18.86 48.74L11.02 48.74L11.02 33.98ZM11.02 69.55L11.02 54.50L18.86 54.50L18.86 69.55ZM24.41 28.15L5.40 28.15L5.40 81.22L11.02 81.22L11.02 75.46L24.41 75.46ZM53.42 69.70C51.26 67.90 47.45 65.09 44.42 63.22L40.97 66.38C43.78 68.33 47.66 71.35 49.75 73.30ZM36.14 73.58C36.58 70.42 37.01 66.89 37.44 63.22L58.03 63.22C57.82 67.46 57.60 70.92 57.31 73.58ZM58.61 47.74C58.54 51.34 58.39 54.65 58.32 57.53L51.05 57.53L54.50 54.00C52.49 52.34 48.60 49.68 45.65 47.81L42.19 51.05C44.93 52.92 48.82 55.73 50.90 57.53L38.23 57.53C38.59 54.22 38.95 50.90 39.24 47.74ZM69.05 63.22L69.05 57.53L64.30 57.53C64.44 53.86 64.58 49.75 64.73 45.14L64.73 42.26L33.91 42.26C35.14 40.39 36.29 38.45 37.30 36.36L67.68 36.36L67.68 30.53L39.89 30.53C40.61 28.58 41.33 26.42 41.98 24.41L35.93 22.97C33.84 30.67 30.17 38.16 25.49 42.98C26.93 43.85 29.38 45.94 30.38 46.94C31.54 45.72 32.62 44.21 33.70 42.70C33.26 47.16 32.76 52.34 32.26 57.53L26.64 57.53L26.64 63.22L31.46 63.22C30.67 69.19 29.81 74.88 29.09 79.13L56.52 79.13C56.16 80.78 55.87 81.79 55.51 82.30C54.79 83.23 54.14 83.45 53.14 83.38C51.84 83.38 49.25 83.38 46.44 83.16C47.38 84.67 47.95 87.12 48.02 88.70C51.12 88.85 54.00 88.85 55.94 88.56C58.03 88.34 59.47 87.70 60.77 85.75C61.63 84.74 62.21 82.73 62.71 79.13L68.11 79.13L68.11 73.58L63.29 73.58C63.58 70.78 63.79 67.32 64.01 63.22Z"/></svg>
