<svg xmlns="http://www.w3.org/2000/svg" xmlns:xlink="http://www.w3.org/1999/xlink" width="72.00000000000001" height="106.56000000000002"><path fill="red" stroke="red" d="M34.49 58.39L34.49 54.58L47.30 54.58C44.86 55.87 42.41 57.24 39.89 58.39ZM53.93 75.02L23.04 75.02L23.04 71.50L53.93 71.50ZM23.04 82.94L23.04 79.13L53.93 79.13L53.93 82.94ZM52.78 33.70L17.78 33.70L17.78 30.31L52.78 30.31ZM52.78 41.47L17.78 41.47L17.78 37.94L52.78 37.94ZM67.18 63.50L67.18 58.39L51.48 58.39C56.59 55.44 61.27 52.06 65.16 48.17L60.12 45.00L59.54 45.58L59.54 25.85L11.30 25.85L11.30 45.94L59.11 45.94C56.81 48.10 54.14 50.18 51.12 52.13L51.12 49.68L34.49 49.68L34.49 46.80L27.79 46.80L27.79 49.68L9.72 49.68L9.72 54.58L27.79 54.58L27.79 58.39L4.68 58.39L4.68 63.50L27.43 63.50C19.44 66.31 10.94 68.62 2.45 70.20C3.53 71.50 5.26 74.16 5.98 75.60C9.43 74.74 12.96 73.87 16.49 72.86L16.49 89.21L23.04 89.21L23.04 87.34L53.93 87.34L53.93 89.14L60.70 89.14L60.70 67.10L33.55 67.10C36.43 65.95 39.17 64.80 41.90 63.50Z"/></svg>
