<svg xmlns="http://www.w3.org/2000/svg" xmlns:xlink="http://www.w3.org/1999/xlink" width="72.00000000000001" height="106.56000000000002"><path fill="red" stroke="red" d="M46.66 57.46L46.66 62.14L68.69 62.14L68.69 57.46L60.26 57.46L60.26 52.92L66.89 52.92L66.89 48.31L60.26 48.31L60.26 43.42L54.94 43.42L54.94 48.31L48.67 48.31L48.67 52.92L54.94 52.92L54.94 57.46ZM68.33 38.23L50.11 38.23L50.11 33.62L64.66 33.62L64.66 28.51L50.11 28.51L50.11 23.40L43.78 23.40L43.78 28.51L30.02 28.51L30.02 33.62L43.78 33.62L43.78 38.23L26.50 38.23L26.50 43.34L68.33 43.34ZM45.00 56.09L38.45 56.88L38.45 52.92L44.50 52.92L44.50 48.31L38.45 48.31L38.45 43.49L33.26 43.49L33.26 48.31L27.43 48.31L27.43 52.92L33.26 52.92L33.26 57.46C30.67 57.74 28.37 58.03 26.35 58.25L27.07 63.14C32.33 62.35 38.66 61.42 45.07 60.48ZM18.22 34.13L18.22 48.46L11.30 48.46L11.30 34.13ZM11.30 69.26L11.30 54.29L18.22 54.29L18.22 69.26ZM24.19 75.17L24.19 28.22L5.40 28.22L5.40 80.78L11.30 80.78L11.30 75.17ZM57.74 82.73C56.16 82.73 55.94 82.51 55.94 80.78L55.94 70.70L69.12 70.70L69.12 65.30L25.63 65.30L25.63 70.70L36.36 70.70C35.35 77.90 32.26 81.72 20.81 83.95C22.10 85.18 23.62 87.77 24.26 89.28C37.44 86.11 41.26 80.50 42.55 70.70L49.75 70.70L49.75 80.86C49.75 86.69 51.05 88.42 56.74 88.42L63.14 88.42C67.46 88.42 69.19 86.54 69.77 78.70C68.11 78.26 65.52 77.33 64.37 76.32C64.15 81.94 63.79 82.73 62.42 82.73Z"/></svg>
