<svg xmlns="http://www.w3.org/2000/svg" xmlns:xlink="http://www.w3.org/1999/xlink" width="72.00000000000001" height="106.56000000000002"><path fill="red" stroke="red" d="M16.63 56.66L16.63 49.25L32.98 49.25C33.26 51.77 33.55 54.29 33.91 56.66ZM31.97 36.43C32.04 38.88 32.26 41.26 32.40 43.63L16.63 43.63L16.63 36.43ZM55.66 36.43L55.66 43.63L39.17 43.63C38.95 41.26 38.81 38.95 38.74 36.43ZM40.75 56.66C40.39 54.36 39.96 51.84 39.67 49.25L55.66 49.25L55.66 56.66ZM56.16 62.86C53.28 65.88 49.39 68.54 44.86 70.85C43.85 68.40 42.84 65.59 42.05 62.50L62.35 62.50L62.35 30.53L38.59 30.53C38.52 28.22 38.52 25.78 38.59 23.33L31.68 23.33C31.68 25.70 31.68 28.15 31.75 30.53L9.94 30.53L9.94 66.60L16.63 66.60L16.63 62.50L35.14 62.50C36.07 66.60 37.22 70.27 38.74 73.58C29.09 77.26 17.42 79.70 5.69 81.00C6.98 82.51 8.78 85.61 9.50 87.19C20.52 85.39 31.75 82.87 41.54 78.98C45.72 85.25 51.34 88.92 59.04 88.92C65.74 88.92 68.11 86.26 69.41 75.46C67.68 74.88 65.23 73.51 63.72 72.14C63.07 80.21 62.14 82.37 59.18 82.37C54.58 82.37 50.83 80.14 47.88 76.18C53.64 73.30 58.61 69.91 62.57 65.81Z"/></svg>
