<svg xmlns="http://www.w3.org/2000/svg" xmlns:xlink="http://www.w3.org/1999/xlink" width="72.00000000000001" height="106.56000000000002"><path fill="red" stroke="red" d="M29.38 57.96C28.08 56.09 22.32 48.74 19.87 45.79L19.87 42.98L28.94 42.98L28.94 36.79L19.87 36.79L19.87 23.18L13.39 23.18L13.39 36.79L3.31 36.79L3.31 42.98L12.96 42.98C10.80 52.34 6.41 63.22 1.87 69.70C3.10 71.35 4.75 74.02 5.54 76.03C8.42 71.93 11.16 66.10 13.39 59.69L13.39 89.14L19.87 89.14L19.87 54.50C22.03 57.96 24.48 61.85 25.63 64.30ZM52.92 79.99L52.92 59.69L67.61 59.69L67.61 53.35L52.92 53.35L52.92 34.92L67.75 34.92L67.75 28.66L30.74 28.66L30.74 34.92L46.01 34.92L46.01 53.35L31.82 53.35L31.82 59.69L46.01 59.69L46.01 79.99L27.58 79.99L27.58 86.33L69.34 86.33L69.34 79.99Z"/></svg>
