<svg xmlns="http://www.w3.org/2000/svg" xmlns:xlink="http://www.w3.org/1999/xlink" width="72.00000000000001" height="106.56000000000002"><path fill="red" stroke="red" d="M5.33 87.05L66.96 87.05L66.96 81.07L5.33 81.07ZM49.10 63.22L22.32 63.22L22.32 58.39L49.10 58.39ZM49.10 72.58L22.32 72.58L22.32 67.68L49.10 67.68ZM15.70 53.78L15.70 77.26L56.02 77.26L56.02 53.78ZM67.75 31.75L39.10 31.75L39.10 23.11L32.47 23.11L32.47 31.75L4.32 31.75L4.32 37.58L25.63 37.58C19.80 43.78 11.02 49.32 2.66 52.06C4.03 53.42 5.98 55.87 6.91 57.46C16.42 53.64 26.14 46.73 32.47 38.59L32.47 51.62L39.10 51.62L39.10 39.53C47.81 44.78 58.18 51.91 63.50 56.59L67.75 51.77C63.00 47.74 54.58 42.26 46.94 37.58L67.75 37.58Z"/></svg>
