<svg xmlns="http://www.w3.org/2000/svg" xmlns:xlink="http://www.w3.org/1999/xlink" width="72.00000000000001" height="106.56000000000002"><path fill="red" stroke="red" d="M24.19 58.39C23.18 56.30 18.65 48.10 17.06 45.58L17.06 42.91L23.69 42.91L23.69 36.72L17.06 36.72L17.06 23.18L11.30 23.18L11.30 36.72L3.38 36.72L3.38 42.91L11.16 42.91C9.50 52.13 5.98 62.93 2.30 68.69C3.24 70.42 4.61 73.44 5.26 75.31C7.42 71.42 9.50 65.59 11.30 59.26L11.30 89.14L17.06 89.14L17.06 54.43C18.50 57.67 19.80 61.06 20.52 63.29ZM53.42 59.04C53.42 57.89 53.42 56.88 53.42 55.80L53.42 47.88L60.98 47.88L60.98 59.04ZM60.98 32.04L60.98 42.12L53.42 42.12L53.42 32.04ZM31.03 59.04C31.10 56.66 31.18 54.29 31.18 52.13L31.18 47.88L38.09 47.88L38.09 59.04ZM38.09 32.04L38.09 42.12L31.18 42.12L31.18 32.04ZM66.67 26.42L47.95 26.42L47.95 55.80C47.95 65.09 47.59 76.82 43.34 84.96C43.49 84.24 43.56 83.38 43.56 82.37L43.56 26.42L25.78 26.42L25.78 52.13C25.78 62.50 25.20 75.89 19.15 85.32C20.38 86.04 22.61 88.13 23.40 89.28C27.86 82.58 29.81 73.51 30.60 64.87L38.09 64.87L38.09 82.22C38.09 83.09 37.73 83.45 37.01 83.45C36.29 83.45 34.13 83.45 31.46 83.38C32.33 84.89 33.12 87.62 33.34 89.21C37.22 89.21 39.53 89.06 41.26 87.98C42.26 87.41 42.91 86.47 43.27 85.18C44.57 85.97 46.66 88.13 47.52 89.35C51.26 82.73 52.63 73.44 53.14 64.87L60.98 64.87L60.98 82.15C60.98 83.09 60.70 83.38 59.83 83.45C59.11 83.45 56.88 83.45 54.22 83.38C55.01 84.89 55.80 87.55 56.02 89.14C60.12 89.14 62.57 88.99 64.37 87.98C66.10 86.98 66.67 85.18 66.67 82.30Z"/></svg>
