<svg xmlns="http://www.w3.org/2000/svg" xmlns:xlink="http://www.w3.org/1999/xlink" width="72.00000000000001" height="106.56000000000002"><path fill="red" stroke="red" d="M25.42 58.39C24.41 56.45 19.94 48.74 18.00 45.58L18.00 42.48L24.98 42.48L24.98 36.72L18.00 36.72L18.00 23.11L11.95 23.11L11.95 36.72L4.10 36.72L4.10 42.48L11.88 42.48C10.15 51.41 6.55 62.42 2.81 68.26C3.74 69.91 5.26 72.79 5.90 74.66C8.06 70.78 10.15 65.16 11.95 59.18L11.95 89.21L18.00 89.21L18.00 54.50C19.44 57.60 20.74 60.84 21.46 62.86ZM51.62 71.93C49.82 74.30 47.59 76.39 44.93 77.90C41.62 77.11 38.38 76.32 35.21 75.60C36.07 74.45 37.01 73.22 37.94 71.93ZM47.88 50.69L57.89 50.69L57.89 54.79L47.88 54.79ZM47.88 42.05L57.89 42.05L57.89 46.15L47.88 46.15ZM47.88 63.00L47.88 59.62L63.94 59.62L63.94 51.05L68.83 51.05L68.83 45.94L63.94 45.94L63.94 37.22L47.88 37.22L47.88 33.55L67.97 33.55L67.97 28.37L47.88 28.37L47.88 23.18L41.26 23.18L41.26 28.37L23.83 28.37L23.83 33.55L41.26 33.55L41.26 37.22L27.94 37.22L27.94 42.05L41.26 42.05L41.26 46.15L23.54 46.15L23.54 50.69L41.26 50.69L41.26 54.79L27.58 54.79L27.58 59.62L41.26 59.62L41.26 62.06L37.44 61.27C36.50 63.00 35.42 65.02 34.20 66.89L22.03 66.89L22.03 71.93L30.82 71.93C29.16 74.09 27.50 76.18 25.99 77.83C29.81 78.70 34.06 79.85 38.30 80.93C33.41 82.66 27.65 83.66 21.24 84.31C22.25 85.54 23.54 88.06 23.98 89.50C32.62 88.20 40.10 86.40 46.22 83.23C53.06 85.32 59.54 87.55 63.79 89.28L68.76 85.32C64.22 83.59 58.10 81.58 51.55 79.78C54.29 77.62 56.52 75.02 58.32 71.93L67.97 71.93L67.97 66.89L60.62 66.89C60.84 66.24 61.06 65.52 61.27 64.87L55.08 64.15C54.86 65.09 54.58 66.02 54.22 66.89L41.26 66.89C42.05 65.52 42.77 64.30 43.42 63.00Z"/></svg>
