<svg xmlns="http://www.w3.org/2000/svg" xmlns:xlink="http://www.w3.org/1999/xlink" width="72.00000000000001" height="106.56000000000002"><path fill="red" stroke="red" d="M18.43 42.91L25.56 42.91L25.56 36.72L18.43 36.72L18.43 23.18L12.24 23.18L12.24 36.72L3.82 36.72L3.82 42.91L12.17 42.91C10.30 51.77 6.48 62.14 2.30 67.61C3.38 69.34 4.90 72.36 5.54 74.23C7.99 70.49 10.37 65.02 12.24 58.97L12.24 89.21L18.43 89.21L18.43 53.64C20.16 56.88 22.10 60.48 22.97 62.57L26.78 57.96C25.63 56.02 20.30 48.31 18.43 45.86ZM34.56 47.81L34.56 37.94L45.22 37.94L45.22 32.26L34.56 32.26L34.56 23.47L28.01 23.47L28.01 46.44C28.01 48.89 26.86 49.46 25.70 49.82C26.50 51.34 27.43 54.36 27.72 56.09C29.16 55.15 31.54 54.29 46.01 50.62C45.65 49.39 45.29 47.02 45.22 45.36ZM57.67 70.42L36.00 70.42L36.00 64.66L57.67 64.66ZM36.00 81.43L36.00 75.46L57.67 75.46L57.67 81.43ZM42.62 53.14C42.12 54.86 41.40 57.24 40.54 59.33L29.38 59.33L29.38 89.28L36.00 89.28L36.00 86.76L57.67 86.76L57.67 88.99L64.58 88.99L64.58 59.33L47.23 59.33C48.10 57.82 49.10 56.30 49.97 54.72ZM55.94 48.89C54.36 48.89 54.07 48.60 54.07 46.58L54.07 37.94L67.32 37.94L67.32 32.33L54.07 32.33L54.07 23.47L47.52 23.47L47.52 46.58C47.52 52.78 48.96 54.65 54.94 54.65L61.92 54.65C66.74 54.65 68.40 52.34 69.12 44.14C67.25 43.70 64.73 42.77 63.36 41.69C63.14 47.81 62.86 48.89 61.34 48.89Z"/></svg>
