<svg xmlns="http://www.w3.org/2000/svg" xmlns:xlink="http://www.w3.org/1999/xlink" width="72.00000000000001" height="106.56000000000002"><path fill="red" stroke="red" d="M19.01 44.50L25.78 44.50L25.78 38.30L19.01 38.30L19.01 23.11L12.89 23.11L12.89 38.30L3.89 38.30L3.89 44.50L12.38 44.50C10.37 53.64 6.41 64.30 2.30 70.20C3.31 71.64 4.82 74.23 5.47 76.03C8.28 71.93 10.80 65.66 12.89 58.97L12.89 89.14L19.01 89.14L19.01 56.95C20.81 60.34 22.75 64.22 23.62 66.46L27.14 61.63C25.99 59.76 21.02 52.06 19.01 49.25ZM44.21 67.10L44.21 72.00L34.56 72.00L34.56 67.10ZM59.90 72.00L49.97 72.00L49.97 67.10L59.90 67.10ZM49.97 81.58L49.97 76.75L59.90 76.75L59.90 81.58ZM34.56 81.58L34.56 76.75L44.21 76.75L44.21 81.58ZM28.44 89.14L34.56 89.14L34.56 86.62L59.90 86.62L59.90 89.06L66.31 89.06L66.31 62.14L28.44 62.14ZM55.94 54.07L39.17 54.07L39.17 48.60L55.94 48.60ZM59.98 34.49C61.56 32.11 63.50 28.80 65.23 25.63L59.04 23.69C58.10 26.50 56.09 30.46 54.65 33.05L58.54 34.49L50.33 34.49L50.33 23.11L43.99 23.11L43.99 34.49L34.99 34.49L39.53 32.83C38.81 30.38 36.94 26.64 34.99 23.98L29.59 25.78C31.25 28.44 32.98 31.97 33.70 34.49L26.71 34.49L26.71 46.44L32.69 46.44L32.69 39.74L61.99 39.74L61.99 43.92L33.34 43.92L33.34 58.82L62.14 58.82L62.14 46.44L68.18 46.44L68.18 34.49Z"/></svg>
