<svg xmlns="http://www.w3.org/2000/svg" xmlns:xlink="http://www.w3.org/1999/xlink" width="72.00000000000001" height="106.56000000000002"><path fill="red" stroke="red" d="M58.97 41.62C57.60 46.37 55.73 51.26 54.22 54.50C55.80 55.22 58.46 56.59 59.83 57.31C62.42 52.20 65.59 44.57 67.32 37.30L62.50 34.56L61.13 34.92L37.08 34.92C38.09 31.54 39.02 28.08 39.74 24.48L32.40 23.11C30.24 34.56 26.21 45.86 20.45 52.70C22.32 53.57 25.70 55.44 27.22 56.59C30.10 52.56 32.62 47.38 34.78 41.62ZM24.48 33.91L5.26 33.91L5.26 40.39L24.48 40.39ZM26.35 63.00L3.74 63.00L3.74 69.70L26.35 69.70ZM46.73 43.99L39.60 43.99L39.60 49.97C39.60 59.90 37.87 74.38 17.93 84.10C19.51 85.32 21.96 87.84 22.90 89.50C35.78 83.02 41.76 74.45 44.57 66.10C48.53 76.68 54.86 84.53 64.87 88.85C65.81 86.90 67.90 84.24 69.41 82.87C56.52 78.34 49.82 67.03 46.73 52.42C46.73 51.62 46.73 50.90 46.73 50.11Z"/></svg>
