<svg xmlns="http://www.w3.org/2000/svg" xmlns:xlink="http://www.w3.org/1999/xlink" width="72.00000000000001" height="106.56000000000002"><path fill="red" stroke="red" d="M61.85 40.03C61.06 44.28 59.98 48.67 58.97 51.70L63.94 53.28C65.74 48.60 67.61 41.26 68.90 34.92L64.73 33.70L63.79 33.98L50.98 33.98C51.84 30.74 52.56 27.29 53.14 23.83L47.02 22.90C45.58 33.05 42.70 42.84 37.94 49.03C39.46 49.82 42.19 51.48 43.27 52.42C45.58 49.10 47.52 44.86 49.25 40.03ZM17.86 58.18L22.82 58.18L22.82 63.29L17.86 63.29ZM17.86 48.60L22.82 48.60L22.82 53.06L17.86 53.06ZM17.86 39.38L22.82 39.38L22.82 43.70L17.86 43.70ZM32.33 48.60L32.33 53.06L27.94 53.06L27.94 48.60ZM32.33 63.29L27.94 63.29L27.94 58.18L32.33 58.18ZM38.38 77.90C37.22 76.39 33.19 71.35 30.53 68.18L37.22 68.18L37.22 58.18L41.26 58.18L41.26 53.06L37.22 53.06L37.22 43.70L27.94 43.70L27.94 39.38L39.96 39.38L39.96 34.13L30.67 34.13C32.76 31.54 35.06 28.44 37.30 25.42L31.18 22.97C29.52 26.28 26.64 30.96 24.34 34.13L14.62 34.13L18.22 32.18C16.85 29.74 13.97 26.06 11.52 23.62L6.62 26.14C8.71 28.51 11.16 31.75 12.53 34.13L4.25 34.13L4.25 39.38L12.89 39.38L12.89 43.70L5.11 43.70L5.11 48.60L12.89 48.60L12.89 53.06L3.38 53.06L3.38 58.18L12.89 58.18L12.89 63.29L5.11 63.29L5.11 68.18L10.87 68.18C8.57 72.36 5.33 76.54 2.30 78.98C3.24 80.64 4.39 83.45 4.97 85.18C7.56 82.51 10.30 78.34 12.46 73.94L12.46 89.35L17.86 89.35L17.86 68.18L22.82 68.18L22.82 89.35L28.37 89.35L28.37 72.29C30.67 75.67 33.41 79.99 34.56 82.22ZM56.38 43.85L50.40 43.85L50.40 49.03C50.40 58.82 49.18 73.66 36.07 84.60C37.44 85.68 39.46 87.91 40.32 89.42C47.45 83.38 51.48 76.25 53.71 69.19C56.09 77.18 59.76 83.45 65.59 89.14C66.38 87.41 68.18 85.39 69.70 84.24C61.78 76.97 58.25 68.76 56.16 55.08C56.30 52.92 56.38 50.90 56.38 49.10Z"/></svg>
