<svg xmlns="http://www.w3.org/2000/svg" xmlns:xlink="http://www.w3.org/1999/xlink" width="72.00000000000001" height="106.56000000000002"><path fill="red" stroke="red" d="M34.78 71.06C33.70 73.15 32.18 75.02 30.46 76.61C27.14 75.60 23.83 74.66 20.52 73.80C21.17 72.94 21.82 72.07 22.46 71.06ZM51.26 71.06L51.26 66.17L43.20 66.17C43.42 65.23 43.63 64.37 43.78 63.43L37.58 62.71C37.37 63.94 37.08 65.09 36.72 66.17L25.56 66.17C26.57 64.58 27.36 62.93 28.15 61.34L22.10 60.05C21.17 61.99 20.02 64.08 18.79 66.17L5.69 66.17L5.69 71.06L15.55 71.06C14.18 73.08 12.74 75.02 11.45 76.61C15.84 77.62 20.30 78.84 24.55 80.14C19.73 82.22 13.39 83.45 5.26 84.02C6.19 85.39 7.27 87.70 7.70 89.57C18.50 88.20 26.42 86.18 32.04 82.58C38.16 84.60 43.34 86.90 47.30 88.99L51.77 84.60C47.88 82.66 42.70 80.57 36.86 78.62C38.81 76.54 40.46 74.02 41.69 71.06ZM7.85 54.43L7.85 63.72L13.25 63.72L13.25 59.33L43.99 59.33L43.99 63.72L49.61 63.72L49.61 54.43L32.54 54.43C32.04 52.99 31.39 51.19 30.82 49.82L24.62 51.05C24.98 52.06 25.42 53.28 25.70 54.43ZM9.29 44.86C12.96 41.69 16.56 37.58 19.66 33.12L66.02 33.12L66.02 28.15L22.75 28.15C23.33 27.00 23.98 25.99 24.48 24.84L17.93 22.90C14.62 30.10 8.78 37.01 2.66 41.40C3.74 42.19 5.40 43.63 6.62 44.86L6.41 44.86L6.41 49.82L52.99 49.82C53.21 73.87 54.07 88.92 63.29 88.92C67.90 88.92 69.12 85.25 69.62 76.03C68.26 75.10 66.60 73.22 65.38 71.78C65.23 77.83 64.94 82.37 63.79 82.37C59.83 82.37 59.47 66.89 59.54 44.86ZM62.28 41.26L62.28 36.43L18.58 36.43L18.58 41.26Z"/></svg>
