<svg xmlns="http://www.w3.org/2000/svg" xmlns:xlink="http://www.w3.org/1999/xlink" width="72.00000000000001" height="106.56000000000002"><path fill="red" stroke="red" d="M19.94 50.69C16.85 48.46 10.94 45.29 6.41 43.56L2.81 48.53C7.42 50.54 13.32 53.93 16.13 56.23ZM11.02 88.20C15.19 81.43 19.80 72.94 23.47 65.38L18.43 61.06C14.40 69.26 9.00 78.34 5.33 83.81ZM6.84 28.87C11.52 31.03 17.42 34.42 20.30 36.86L24.19 31.32C21.17 28.94 15.19 25.85 10.58 23.98ZM59.83 39.46L59.83 78.70L49.32 78.70L49.32 23.90L42.55 23.90L42.55 78.70L32.18 78.70L32.18 39.82L25.63 39.82L25.63 84.96L59.83 84.96L59.83 89.14L66.53 89.14L66.53 39.46Z"/></svg>
