<svg xmlns="http://www.w3.org/2000/svg" xmlns:xlink="http://www.w3.org/1999/xlink" width="72.00000000000001" height="106.56000000000002"><path fill="red" stroke="red" d="M19.80 50.33C16.78 47.95 10.73 45.22 6.05 43.63L2.59 48.74C7.34 50.47 13.25 53.57 16.13 55.94ZM10.22 87.98C14.33 81.36 19.01 73.08 22.68 65.81L17.71 61.34C13.61 69.34 8.28 78.19 4.61 83.45ZM7.13 29.23C11.81 31.25 17.50 34.63 20.30 37.15L24.19 31.61C21.31 29.16 15.41 26.06 10.80 24.34ZM25.70 26.93L25.70 33.19L35.21 33.19L35.21 52.27L25.27 52.27L25.27 58.46L35.21 58.46L35.21 88.27L41.54 88.27L41.54 58.46L51.70 58.46L51.70 52.27L41.54 52.27L41.54 33.19L54.14 33.19C54.07 62.14 54.07 86.26 61.85 88.92C65.81 90.50 68.76 88.06 69.70 76.61C68.62 75.67 66.89 73.22 65.81 71.57C65.59 77.04 65.09 82.22 64.51 82.08C60.41 81.00 60.48 54.65 60.91 26.93Z"/></svg>
