<svg xmlns="http://www.w3.org/2000/svg" xmlns:xlink="http://www.w3.org/1999/xlink" width="72.00000000000001" height="106.56000000000002"><path fill="red" stroke="red" d="M20.23 49.54C17.21 47.23 11.09 44.35 6.34 42.77L2.81 47.81C7.70 49.61 13.61 52.85 16.56 55.15ZM11.02 88.20C15.19 81.50 19.87 72.94 23.54 65.45L18.50 61.06C14.40 69.26 9.07 78.34 5.33 83.88ZM6.91 28.44C11.66 30.46 17.42 33.84 20.23 36.43L24.19 30.96C21.24 28.37 15.26 25.27 10.51 23.54ZM49.61 59.04L49.61 43.34L61.06 43.34L61.06 59.04ZM31.90 59.04L31.90 43.34L42.98 43.34L42.98 59.04ZM49.61 36.94L49.61 23.40L42.98 23.40L42.98 36.94L25.56 36.94L25.56 69.62L31.90 69.62L31.90 65.52L42.98 65.52L42.98 89.06L49.61 89.06L49.61 65.52L61.06 65.52L61.06 69.19L67.61 69.19L67.61 36.94Z"/></svg>
