<svg xmlns="http://www.w3.org/2000/svg" xmlns:xlink="http://www.w3.org/1999/xlink" width="72.00000000000001" height="106.56000000000002"><path fill="red" stroke="red" d="M20.59 50.83C17.42 48.60 11.16 45.43 6.84 43.49L3.24 48.46C7.70 50.69 13.82 54.14 16.85 56.38ZM11.45 88.13C15.12 82.08 19.15 74.52 22.32 67.82L17.28 63.58C13.61 70.85 9.00 78.98 5.69 83.81ZM6.91 28.94C11.52 31.18 17.78 34.78 20.81 37.08L24.70 31.61C21.60 29.30 15.26 25.99 10.73 23.98ZM49.25 78.26L49.25 64.30L59.90 64.30L59.90 78.26ZM32.47 64.30L42.70 64.30L42.70 78.26L32.47 78.26ZM42.70 44.35L42.70 57.89L32.47 57.89L32.47 44.35ZM59.90 44.35L59.90 57.89L49.25 57.89L49.25 44.35ZM49.25 37.94L49.25 23.26L42.70 23.26L42.70 37.94L26.21 37.94L26.21 88.92L32.47 88.92L32.47 84.67L59.90 84.67L59.90 88.49L66.38 88.49L66.38 37.94Z"/></svg>
