<svg xmlns="http://www.w3.org/2000/svg" xmlns:xlink="http://www.w3.org/1999/xlink" width="72.00000000000001" height="106.56000000000002"><path fill="red" stroke="red" d="M22.46 31.03C19.58 29.02 14.04 25.92 10.01 23.90L6.19 28.87C10.30 31.03 15.84 34.34 18.43 36.58ZM19.01 49.82C16.13 47.88 10.44 44.93 6.48 43.20L2.74 48.10C6.84 50.26 12.38 53.35 15.12 55.37ZM10.66 87.77C14.40 81.00 18.65 72.29 21.89 64.73L16.70 60.70C13.03 68.90 8.14 78.26 4.68 83.81ZM55.44 48.74L55.44 63.72L47.16 63.72L47.16 48.74ZM61.85 69.91L61.85 48.74L69.19 48.74L69.19 42.34L61.85 42.34L61.85 25.06L55.44 25.06L55.44 42.34L47.16 42.34L47.16 23.18L41.04 23.18L41.04 42.34L32.90 42.34L32.90 25.56L26.50 25.56L26.50 42.34L20.09 42.34L20.09 48.74L26.50 48.74L26.50 85.61L68.40 85.61L68.40 79.06L32.90 79.06L32.90 48.74L41.04 48.74L41.04 69.91Z"/></svg>
