<svg xmlns="http://www.w3.org/2000/svg" xmlns:xlink="http://www.w3.org/1999/xlink" width="72.00000000000001" height="106.56000000000002"><path fill="red" stroke="red" d="M23.11 31.18C20.30 28.94 14.62 25.78 10.58 23.76L6.77 28.58C10.94 30.82 16.56 34.34 19.15 36.58ZM19.37 49.90C16.49 47.81 10.66 44.78 6.48 42.91L2.74 47.88C6.98 49.97 12.82 53.21 15.48 55.44ZM16.13 61.42C12.53 69.55 7.78 78.84 4.39 84.31L10.30 88.34C13.97 81.58 18.07 72.94 21.24 65.45ZM56.02 56.66C54.07 62.14 51.26 66.82 47.81 70.70C44.06 66.67 41.04 61.92 38.88 56.66ZM42.41 39.31L42.41 50.76L31.90 50.76L31.90 39.31ZM59.98 50.47L58.68 50.76L48.96 50.76L48.96 39.31L60.26 39.31C59.26 42.19 58.18 45.07 57.24 47.16L62.93 48.82C64.94 45.14 67.18 39.31 68.90 34.06L64.08 32.83L62.93 33.05L48.96 33.05L48.96 23.11L42.41 23.11L42.41 33.05L25.49 33.05L25.49 51.19C25.49 61.56 24.77 75.82 17.21 85.82C18.86 86.40 21.67 88.06 22.90 89.14C29.52 80.21 31.39 67.25 31.82 56.66L32.54 56.66C35.14 63.72 38.74 69.91 43.34 75.17C38.66 78.98 33.26 81.79 27.29 83.74C28.66 84.96 30.67 87.77 31.54 89.35C37.51 87.12 43.13 83.95 47.88 79.70C52.78 83.81 58.39 87.05 65.02 89.21C65.95 87.41 67.90 84.82 69.41 83.45C62.93 81.72 57.31 78.84 52.56 75.10C57.74 69.12 61.70 61.70 64.15 52.34Z"/></svg>
