<svg xmlns="http://www.w3.org/2000/svg" xmlns:xlink="http://www.w3.org/1999/xlink" width="72.00000000000001" height="106.56000000000002"><path fill="red" stroke="red" d="M22.10 32.18C19.51 30.02 14.33 26.78 10.51 24.70L6.12 29.02C10.01 31.32 15.05 34.78 17.57 37.08ZM18.36 50.90C15.77 48.67 10.58 45.65 6.77 43.70L2.66 48.24C6.55 50.47 11.66 53.71 14.18 55.94ZM14.47 61.85C11.45 69.55 7.34 78.19 4.32 83.38L10.58 87.34C13.68 80.93 17.28 72.86 19.94 65.81ZM29.52 32.54L68.40 32.54L68.40 26.64L23.26 26.64L23.26 46.37C23.26 58.03 22.61 74.74 15.91 86.40C17.57 86.98 20.38 88.42 21.53 89.35C28.51 77.18 29.52 58.68 29.52 46.37ZM31.18 53.42L31.18 58.90L67.82 58.90L67.82 53.42L52.56 53.42L52.56 45.65L65.09 45.65L65.09 40.25L52.56 40.25L52.56 34.06L46.15 34.06L46.15 40.25L34.20 40.25L34.20 45.65L46.15 45.65L46.15 53.42ZM52.70 81.29L52.70 72.43L66.60 72.43L66.60 66.96L52.70 66.96L52.70 61.42L46.15 61.42L46.15 66.96L32.26 66.96L32.26 72.43L46.15 72.43L46.15 81.29L27.72 81.29L27.72 86.98L68.98 86.98L68.98 81.29Z"/></svg>
