<svg xmlns="http://www.w3.org/2000/svg" xmlns:xlink="http://www.w3.org/1999/xlink" width="72.00000000000001" height="106.56000000000002"><path fill="red" stroke="red" d="M68.54 31.03L50.33 31.03C49.25 28.66 47.66 25.42 46.37 22.90L39.60 24.55C40.61 26.50 41.62 28.94 42.48 31.03L24.05 31.03L24.05 36.94L68.54 36.94ZM22.97 31.32C20.09 28.80 14.47 25.70 9.94 23.90L6.48 28.87C10.94 30.82 16.56 34.20 19.15 36.79ZM18.72 50.62C15.91 48.17 10.30 45.14 5.90 43.49L2.52 48.46C7.06 50.47 12.53 53.78 15.19 56.23ZM17.93 61.06C13.90 69.19 8.50 78.41 4.82 83.88L10.30 88.34C14.40 81.58 18.94 73.01 22.54 65.45ZM30.17 66.17C27.58 71.50 23.54 77.26 19.66 81.14C21.24 82.01 23.83 83.88 25.06 84.82C28.87 80.64 33.48 73.94 36.58 68.04ZM33.77 48.17L57.10 48.17L57.10 57.24L33.77 57.24ZM63.94 63.07L63.94 42.26L27.29 42.26L27.29 63.07L42.34 63.07L42.34 81.72C42.34 82.58 41.98 82.80 40.90 82.87C39.74 82.87 35.64 82.87 31.90 82.73C32.83 84.38 33.91 86.90 34.27 88.63C39.74 88.63 43.56 88.56 46.08 87.62C48.74 86.76 49.46 85.03 49.46 81.86L49.46 63.07ZM54.07 68.62C57.17 73.51 61.06 80.35 62.71 84.53L68.90 82.08C67.03 77.98 63.22 71.50 59.90 66.46Z"/></svg>
