<svg xmlns="http://www.w3.org/2000/svg" xmlns:xlink="http://www.w3.org/1999/xlink" width="72.00000000000001" height="106.56000000000002"><path fill="red" stroke="red" d="M65.66 37.30C62.57 35.71 58.61 33.98 54.07 32.26C57.53 30.38 60.62 28.30 63.22 25.99L57.74 23.40C54.94 25.78 51.34 27.86 47.16 29.66C41.40 27.72 35.42 25.85 30.24 24.55L26.78 28.87C30.67 29.88 34.99 31.32 39.31 32.83C33.77 34.70 27.86 36.22 22.25 37.30C23.40 38.52 25.27 41.26 26.06 42.62C32.90 40.82 40.25 38.59 47.09 35.64C52.92 37.94 58.32 40.25 61.99 42.34ZM22.61 31.25C19.80 28.80 14.26 25.70 9.86 23.83L6.26 28.58C10.73 30.53 16.20 33.91 18.86 36.36ZM18.72 49.68C15.98 47.38 10.66 44.50 6.34 42.91L2.74 47.74C7.13 49.61 12.38 52.78 14.98 55.15ZM68.62 50.76L68.62 45.22L43.56 45.22C44.14 43.70 44.86 42.26 45.43 40.75L39.24 39.10C38.45 41.18 37.51 43.27 36.50 45.22L21.17 45.22L21.17 50.76L33.19 50.76C29.52 56.38 24.77 61.13 19.44 64.58L19.87 64.94L15.91 61.70C12.38 69.84 7.56 78.98 4.25 84.46L9.94 88.42C13.61 81.72 17.71 73.22 20.88 65.74C22.10 66.96 23.47 68.47 24.19 69.34C26.78 67.39 29.38 65.09 31.75 62.57L31.75 67.97C31.75 73.51 31.25 80.42 26.57 85.54C28.01 86.33 30.53 88.27 31.54 89.35C36.72 83.52 37.66 74.81 37.66 68.04L37.66 59.98L57.74 59.98L57.74 70.34C50.04 72.14 42.55 73.87 37.30 74.95L38.81 80.14C44.28 78.55 50.98 76.54 57.74 74.52L57.74 82.80C57.74 83.59 57.46 83.88 56.52 83.88C55.73 83.95 52.34 83.95 49.39 83.81C50.04 85.39 50.62 87.48 50.76 89.06C55.66 89.06 59.04 89.14 61.13 88.27C63.29 87.34 63.86 85.97 63.86 82.80L63.86 55.15L37.73 55.15C38.74 53.71 39.67 52.27 40.54 50.76ZM38.45 66.31C43.49 67.68 50.18 69.70 53.64 71.06L55.73 66.96C52.13 65.66 45.43 63.79 40.46 62.71Z"/></svg>
