<svg xmlns="http://www.w3.org/2000/svg" xmlns:xlink="http://www.w3.org/1999/xlink" width="72.00000000000001" height="106.56000000000002"><path fill="red" stroke="red" d="M22.10 31.68C19.30 29.45 13.61 26.14 9.58 24.12L6.34 29.02C10.44 31.25 16.06 34.85 18.72 37.22ZM18.22 50.33C15.41 48.24 9.79 45.07 5.76 43.27L2.59 48.31C6.77 50.40 12.31 53.71 14.98 55.94ZM16.13 61.13C12.46 69.12 7.56 78.12 4.25 83.45L9.29 88.20C13.03 81.50 17.21 73.15 20.52 65.74ZM59.11 31.18L59.11 36.94L31.54 36.94L31.54 31.18ZM51.62 82.44L51.62 75.60L65.95 75.60L65.95 70.42L51.62 70.42L51.62 64.30L59.98 63.72C60.55 64.66 60.91 65.59 61.27 66.31L66.53 64.01C65.02 60.70 61.34 55.87 57.89 52.42L53.06 54.50C54.29 55.80 55.58 57.38 56.81 58.90L41.40 59.83C43.85 57.38 46.22 54.50 48.31 51.62L67.61 51.62L67.61 46.44L31.54 46.44L31.54 42.26L65.81 42.26L65.81 25.92L25.06 25.92L25.06 47.30C25.06 58.68 24.41 74.81 17.21 86.04C18.86 86.54 21.67 88.27 22.90 89.35C29.59 78.84 31.18 63.36 31.46 51.62L40.82 51.62C38.59 54.79 36.36 57.53 35.50 58.32C34.20 59.62 33.12 60.48 31.97 60.70C32.69 62.14 33.77 65.02 34.06 66.17C35.35 65.66 37.08 65.45 45.07 64.80L45.07 70.42L31.82 70.42L31.82 75.60L45.07 75.60L45.07 82.44L27.58 82.44L27.58 87.77L68.90 87.77L68.90 82.44Z"/></svg>
