<svg xmlns="http://www.w3.org/2000/svg" xmlns:xlink="http://www.w3.org/1999/xlink" width="72.00000000000001" height="106.56000000000002"><path fill="red" stroke="red" d="M60.70 39.67C59.76 43.34 58.75 47.02 57.74 49.61L63.14 51.34C65.02 47.09 66.89 40.46 68.26 34.70L63.72 33.41L62.78 33.62L43.06 33.62C43.85 30.60 44.42 27.36 44.93 24.12L38.59 23.26C37.15 33.84 34.34 43.78 29.38 49.97C30.82 50.83 33.62 52.78 34.63 53.78C37.44 50.04 39.67 45.14 41.47 39.67ZM25.85 35.42C24.84 39.89 22.68 46.30 21.02 50.33L25.06 52.06C26.93 48.38 29.30 42.41 31.32 37.51ZM12.74 54.14C11.88 49.46 9.65 41.40 7.70 35.21L2.45 36.58C4.39 42.84 6.34 51.19 7.13 55.94ZM31.18 74.38C29.45 72.43 22.39 64.51 19.80 62.28C20.38 57.53 20.52 52.78 20.52 48.10L20.52 23.69L14.18 23.69L14.18 48.10C14.18 60.84 13.03 74.38 3.24 84.60C4.75 85.61 6.91 87.98 7.92 89.57C13.75 83.59 16.99 76.61 18.72 69.19C21.53 72.65 24.98 76.90 26.64 79.42ZM50.90 43.63L44.64 43.63L44.64 48.74C44.64 58.97 43.27 73.94 26.06 84.82C27.58 85.90 29.88 87.98 30.82 89.42C41.04 82.73 46.15 74.52 48.60 66.60C51.91 76.82 57.10 84.67 65.59 89.21C66.53 87.41 68.47 84.82 69.91 83.59C58.97 78.62 53.42 66.89 50.83 52.34C50.90 51.19 50.90 50.04 50.90 48.89Z"/></svg>
