<svg xmlns="http://www.w3.org/2000/svg" xmlns:xlink="http://www.w3.org/1999/xlink" width="72.00000000000001" height="106.56000000000002"><path fill="red" stroke="red" d="M54.65 27.58C52.78 31.18 49.25 36.07 46.51 39.10L52.06 41.18C54.86 38.23 58.39 33.84 61.34 29.59ZM23.90 38.02C21.96 35.21 17.78 30.46 14.69 27.07L9.65 30.53C12.67 34.13 16.63 39.02 18.58 42.05ZM64.87 50.90C58.75 46.58 46.58 40.46 37.22 36.22C38.38 32.33 38.95 28.01 39.38 23.11L32.47 23.11C31.18 38.66 28.51 47.66 5.18 51.77C6.34 53.06 7.92 55.66 8.50 57.24C23.47 54.36 30.96 49.25 34.92 41.90C44.35 46.44 55.58 52.63 61.42 56.88ZM51.62 72.36C54.43 69.19 57.96 64.44 60.84 59.90L54.22 57.74C52.27 61.63 48.82 66.82 46.08 70.20ZM23.69 69.34C21.53 66.38 17.14 61.42 13.82 57.89L8.86 61.20C12.02 64.94 16.27 70.06 18.36 73.22ZM32.26 51.70C30.96 67.97 28.44 78.62 3.89 83.45C5.26 84.82 6.77 87.41 7.42 89.14C24.55 85.39 32.18 78.70 35.86 69.26C40.54 80.57 49.03 86.62 65.30 88.78C66.02 86.83 67.68 84.02 68.98 82.58C49.68 80.78 41.69 73.37 38.45 58.10C38.74 56.09 38.95 53.86 39.17 51.70Z"/></svg>
