<svg xmlns="http://www.w3.org/2000/svg" xmlns:xlink="http://www.w3.org/1999/xlink" width="72.00000000000001" height="106.56000000000002"><path fill="red" stroke="red" d="M11.52 55.01C10.87 50.18 9.07 41.83 7.34 35.35L2.45 36.58C4.18 43.13 5.76 51.70 6.34 56.66ZM68.54 51.48L68.54 45.79L44.86 45.79C45.58 44.06 46.22 42.34 46.80 40.54L42.05 39.46C44.57 38.38 47.09 37.22 49.54 36.07C54.94 38.38 59.76 40.75 63.29 42.98L67.32 38.09C64.30 36.36 60.34 34.42 55.94 32.54C59.33 30.46 62.42 28.22 65.02 25.78L59.26 23.04C56.66 25.49 53.28 27.79 49.46 29.88C43.92 27.65 38.16 25.70 32.98 24.26L28.87 28.66C33.26 29.88 37.87 31.39 42.41 33.19C38.09 34.92 33.48 36.50 28.94 37.66L29.45 36.58L23.76 34.34C22.75 38.81 20.66 45.14 19.01 49.18L19.01 48.38L19.01 23.54L12.96 23.54L12.96 48.38C12.96 61.06 11.88 74.45 2.66 84.46C4.10 85.46 6.19 87.77 7.13 89.14C11.81 84.17 14.69 78.48 16.42 72.43C18.86 75.67 21.46 79.49 22.90 81.79L27.43 76.54C26.06 74.88 20.81 68.33 18.00 65.16C18.79 60.05 19.01 54.65 19.01 49.32L23.04 51.12C24.55 48.17 26.35 43.99 28.01 39.89C29.16 41.04 30.31 42.48 30.89 43.42C33.98 42.41 37.22 41.33 40.46 40.10C39.82 42.05 39.10 43.99 38.23 45.79L26.71 45.79L26.71 51.48L35.35 51.48C32.18 56.95 28.15 61.49 23.54 64.87C24.62 66.31 26.35 69.48 26.93 70.99C28.66 69.62 30.31 68.04 31.90 66.46L31.90 83.02L37.94 83.02L37.94 64.94L45.50 64.94L45.50 89.14L51.55 89.14L51.55 64.94L59.69 64.94L59.69 76.68C59.69 77.33 59.47 77.54 58.82 77.54C58.10 77.54 56.09 77.54 53.86 77.47C54.65 79.06 55.37 81.43 55.66 83.09C59.26 83.09 61.78 83.02 63.65 82.08C65.45 81.14 65.88 79.49 65.88 76.75L65.88 59.18L51.55 59.18L51.55 53.35L45.50 53.35L45.50 59.18L37.73 59.18C39.46 56.81 40.90 54.14 42.34 51.48Z"/></svg>
