<svg xmlns="http://www.w3.org/2000/svg" xmlns:xlink="http://www.w3.org/1999/xlink" width="72.00000000000001" height="106.56000000000002"><path fill="red" stroke="red" d="M11.52 55.01C10.87 50.18 9.07 41.83 7.34 35.35L2.45 36.50C4.18 43.06 5.76 51.70 6.34 56.66ZM61.85 37.44L61.85 44.50L34.56 44.50L34.56 37.44ZM27.72 74.30C26.28 72.79 20.74 66.67 18.14 64.01C18.79 59.26 19.01 54.29 19.01 49.39L22.97 51.26C24.62 48.10 26.57 43.34 28.30 39.02L28.30 44.86L33.77 44.86L33.77 50.26L62.50 50.26L62.50 44.86L68.26 44.86L68.26 31.61L52.13 31.61C51.34 29.16 49.54 25.42 47.81 22.61L41.90 24.41C42.98 26.50 44.35 29.30 45.22 31.61L28.30 31.61L28.30 36.22L23.69 34.49C22.68 38.81 20.66 45.07 19.01 48.96L19.01 48.38L19.01 23.54L12.96 23.54L12.96 48.38C12.96 61.13 11.88 74.45 2.66 84.46C4.03 85.54 6.19 87.77 7.13 89.21C12.17 83.81 15.12 77.54 16.85 70.99C19.22 73.94 21.89 77.47 23.26 79.63ZM58.39 82.73C57.10 82.73 56.95 82.51 56.95 80.57L56.95 63.50L68.90 63.50L68.90 57.60L28.30 57.60L28.30 63.50L37.80 63.50C36.79 73.58 34.13 80.14 22.25 83.88C23.62 85.03 25.34 87.48 26.06 89.14C39.60 84.46 42.98 76.10 44.14 63.50L50.47 63.50L50.47 80.71C50.47 86.69 51.77 88.56 57.31 88.56L62.93 88.56C67.46 88.56 69.05 86.04 69.55 76.54C67.90 76.03 65.23 75.02 63.94 73.87C63.79 81.58 63.50 82.73 62.21 82.73Z"/></svg>
