<svg xmlns="http://www.w3.org/2000/svg" xmlns:xlink="http://www.w3.org/1999/xlink" width="72.00000000000001" height="106.56000000000002"><path fill="red" stroke="red" d="M58.61 40.32L35.64 40.32L35.64 35.42L58.61 35.42ZM58.61 50.11L35.64 50.11L35.64 45.14L58.61 45.14ZM65.23 30.31L47.95 30.31C48.82 28.51 49.82 26.50 50.83 24.62L43.42 23.04C42.91 25.13 41.98 27.94 41.18 30.31L29.30 30.31L29.30 55.22L65.23 55.22ZM22.61 35.28C22.03 40.68 20.52 48.60 19.30 53.35L23.33 55.15C24.84 50.54 26.50 43.27 28.15 37.44ZM10.94 54.43C10.51 49.75 8.93 41.69 7.42 35.35L2.52 36.50C3.89 42.77 5.33 51.19 5.76 56.02ZM26.86 75.82C25.49 73.87 19.87 66.24 17.50 63.36C18.22 58.25 18.36 52.99 18.36 47.88L18.36 23.76L12.46 23.76L12.46 47.88C12.46 60.55 11.38 73.80 2.30 83.95C3.74 84.96 5.90 87.05 6.84 88.56C11.74 83.09 14.54 76.90 16.27 70.34C18.50 73.73 21.10 77.76 22.32 80.21ZM50.47 81.65L50.47 75.53L64.73 75.53L64.73 70.27L50.47 70.27L50.47 64.73L67.54 64.73L67.54 59.33L27.00 59.33L27.00 64.73L43.70 64.73L43.70 70.27L29.66 70.27L29.66 75.53L43.70 75.53L43.70 81.65L24.41 81.65L24.41 87.48L68.98 87.48L68.98 81.65Z"/></svg>
