<svg xmlns="http://www.w3.org/2000/svg" xmlns:xlink="http://www.w3.org/1999/xlink" width="72.00000000000001" height="106.56000000000002"><path fill="red" stroke="red" d="M11.38 54.58C10.73 49.90 9.00 41.76 7.27 35.42L2.45 36.50C4.10 42.84 5.62 51.34 6.26 56.16ZM28.08 75.67C26.64 73.80 20.74 66.74 17.93 63.79C18.65 58.68 18.79 53.35 18.79 48.17L18.79 23.76L12.60 23.76L12.60 48.10C12.60 60.84 11.59 74.30 2.66 84.46C4.03 85.54 6.26 87.84 7.27 89.35C12.17 83.81 15.05 77.47 16.70 70.85C19.22 74.16 22.10 78.12 23.62 80.50ZM36.07 65.38L36.07 58.25C37.37 59.04 38.95 60.26 39.82 60.98C42.48 59.11 45.14 56.52 47.45 53.71C51.12 55.94 55.01 58.90 57.10 60.98L59.83 57.89L59.83 65.38L50.26 65.38C50.62 63.50 50.83 61.63 51.05 59.62L44.71 59.62C44.50 61.70 44.21 63.58 43.85 65.38ZM52.63 33.70C51.62 36.14 50.33 38.81 49.03 40.90L37.08 40.90C38.74 38.59 40.25 36.14 41.54 33.70ZM36.07 46.15L46.51 46.15C44.21 50.62 40.32 54.72 36.07 57.46ZM59.83 56.88C57.53 54.79 53.50 52.06 50.04 50.04C50.76 48.89 51.41 47.81 51.98 46.58L50.40 46.15L59.83 46.15ZM69.05 70.92L69.05 65.38L65.74 65.38L65.74 40.90L55.30 40.90C57.17 37.66 59.04 34.06 60.41 30.82L56.45 28.30L55.51 28.58L43.99 28.58C44.64 27.00 45.29 25.49 45.86 23.90L39.46 23.04C37.37 29.52 33.19 37.66 26.64 43.70C27.36 41.47 28.15 39.31 28.80 37.30L23.33 35.28C22.46 39.96 20.74 46.80 19.30 50.98L23.40 52.70C24.41 50.40 25.42 47.16 26.57 43.85C27.79 44.50 29.38 46.01 30.46 47.30L30.46 65.38L25.92 65.38L25.92 70.92L42.19 70.92C39.60 76.75 34.63 81.07 23.76 83.66C24.98 84.89 26.64 87.34 27.29 88.92C40.46 85.32 46.22 79.34 48.96 70.92ZM49.32 75.24C54.50 79.56 61.49 85.68 64.87 89.21L69.26 85.18C65.66 81.65 58.46 75.82 53.42 71.71Z"/></svg>
