<svg xmlns="http://www.w3.org/2000/svg" xmlns:xlink="http://www.w3.org/1999/xlink" width="72.00000000000001" height="106.56000000000002"><path fill="red" stroke="red" d="M9.43 55.87C9.14 50.98 8.06 42.41 6.84 35.71L2.59 36.43C3.67 43.06 4.68 51.84 4.90 56.88ZM24.34 76.03C23.18 74.30 18.29 66.82 16.34 64.44C16.99 59.40 17.14 54.29 17.14 49.10L17.14 49.03L19.51 50.04C21.38 46.22 23.69 40.03 25.70 35.06L20.81 33.41C20.02 37.01 18.58 41.98 17.14 45.86L17.14 23.76L11.38 23.76L11.38 49.10C11.38 61.63 10.51 74.59 2.45 84.60C3.67 85.54 5.76 87.70 6.62 89.14C11.02 83.88 13.61 77.98 15.12 71.78C16.92 74.88 18.94 78.41 19.87 80.42ZM34.92 54.58L34.27 50.90C30.10 51.98 26.42 53.06 23.40 53.64L24.91 58.68ZM27.50 88.49C29.74 84.74 31.46 78.84 32.62 74.16L27.50 72.22C26.42 76.75 24.41 82.58 22.10 86.18ZM36.43 74.23C37.44 78.84 38.09 84.89 38.02 88.49L43.34 87.48C43.34 83.95 42.55 78.12 41.54 73.44ZM41.40 35.06C40.90 38.30 40.18 41.40 39.38 44.28C37.44 42.55 35.06 40.68 32.76 39.17C33.34 37.73 33.91 36.43 34.42 35.06ZM69.12 68.33C67.32 62.14 63.00 52.20 58.82 44.35L68.47 44.35L68.47 38.59L57.53 38.59C57.89 35.06 58.03 31.39 58.18 27.65C60.41 30.82 63.00 35.06 64.08 37.73L68.47 35.21C67.18 32.54 64.44 28.44 62.28 25.34L58.18 27.43L58.32 23.04L52.63 23.04C52.56 28.51 52.42 33.70 51.91 38.59L45.86 38.59C46.37 36.07 46.80 33.41 47.16 30.67L43.85 29.74L42.98 29.95L36.00 29.95C36.58 27.86 37.01 25.78 37.44 23.83L32.11 23.18C30.82 30.67 27.79 40.10 21.96 47.02C23.04 47.81 24.84 49.61 25.56 50.90C27.65 48.53 29.30 46.01 30.74 43.20C33.19 45.07 35.78 47.23 37.66 49.25C34.42 57.46 29.81 63.72 24.34 67.25C25.56 68.26 27.07 70.42 27.79 71.64C36.14 65.74 42.26 55.30 45.50 40.39L45.50 44.35L51.19 44.35C49.75 53.78 46.58 61.63 39.46 66.74C40.82 67.75 42.77 69.84 43.56 71.28C50.26 66.24 53.86 59.11 55.80 50.47C59.11 57.53 62.06 65.30 63.43 70.42ZM46.73 74.09C48.46 78.55 50.26 84.53 50.90 88.20L56.23 86.47C55.58 82.94 53.64 77.11 51.77 72.72ZM57.10 73.44C59.76 78.12 62.78 84.60 64.01 88.42L69.62 86.11C68.18 82.30 65.02 76.10 62.28 71.50Z"/></svg>
