<svg xmlns="http://www.w3.org/2000/svg" xmlns:xlink="http://www.w3.org/1999/xlink" width="72.00000000000001" height="106.56000000000002"><path fill="red" stroke="red" d="M21.89 24.62C20.38 27.43 18.22 30.31 15.84 33.19C14.18 30.31 12.17 27.50 9.50 24.70L4.39 28.22C7.34 31.54 9.58 34.78 11.09 38.23C8.42 40.82 5.62 43.13 2.88 44.78C4.32 46.30 6.05 49.03 6.91 50.83C9.07 49.18 11.23 47.23 13.39 45.07C13.97 47.45 14.33 49.90 14.54 52.34C11.59 58.25 6.84 64.22 2.45 67.32C3.82 68.69 5.54 71.35 6.34 72.94C9.29 70.49 12.24 66.96 14.90 63.14C14.83 71.06 14.40 78.55 13.03 80.35C12.53 81.00 11.95 81.29 11.02 81.43C9.79 81.50 7.78 81.50 5.18 81.36C6.26 83.30 6.91 85.90 6.91 88.06C9.58 88.20 12.24 88.13 14.33 87.62C15.98 87.34 17.28 86.54 18.14 85.32C21.02 81.36 21.60 71.28 21.60 61.56C21.60 53.64 21.17 46.37 18.65 39.38C21.96 35.57 24.84 31.54 26.93 27.86ZM61.63 54.36L30.60 54.36L30.60 50.11L61.63 50.11ZM36.22 30.89L55.66 30.89L55.66 35.06L42.12 35.06L42.12 44.86L36.22 44.86ZM47.45 44.86L47.45 39.38L55.66 39.38L55.66 44.86ZM68.04 44.86L61.99 44.86L61.99 25.63L30.17 25.63L30.17 44.86L24.48 44.86L24.48 57.46L30.53 57.46L30.53 64.58C30.53 70.99 29.81 79.70 24.62 86.04C25.99 86.76 28.73 88.49 29.74 89.57C35.42 82.51 36.50 72.07 36.50 64.73L36.50 59.62L56.02 59.62L56.02 70.13C48.53 71.64 41.26 73.08 36.07 73.94L38.02 79.13C43.27 78.05 49.68 76.61 56.02 75.17L56.02 82.87C56.02 83.66 55.73 83.95 54.86 84.02C54.07 84.02 51.05 84.02 47.95 83.88C48.74 85.39 49.54 87.70 49.82 89.35C54.50 89.35 57.67 89.28 59.76 88.34C61.85 87.48 62.50 85.90 62.50 82.87L62.50 57.46L68.04 57.46ZM38.09 66.31C42.84 67.10 49.03 68.76 52.27 70.34L54.43 65.88C51.12 64.44 44.93 62.86 40.18 62.28Z"/></svg>
