<svg xmlns="http://www.w3.org/2000/svg" xmlns:xlink="http://www.w3.org/1999/xlink" width="72.00000000000001" height="106.56000000000002"><path fill="red" stroke="red" d="M65.09 28.15L31.18 28.15L31.18 34.49L65.09 34.49ZM28.51 68.04L18.94 70.42L18.94 55.37L26.71 55.37L26.71 49.25L18.94 49.25L18.94 34.78L27.58 34.78L27.58 28.58L3.53 28.58L3.53 34.78L12.46 34.78L12.46 49.25L4.39 49.25L4.39 55.37L12.46 55.37L12.46 72.07C8.64 72.94 5.18 73.73 2.38 74.38L3.74 80.78C10.87 78.91 20.30 76.39 29.23 73.87ZM58.39 82.58C57.10 82.58 56.88 82.22 56.88 80.14L56.88 54.94L68.76 54.94L68.76 48.53L28.08 48.53L28.08 54.94L37.08 54.94C36.43 69.98 34.63 79.20 20.30 84.17C21.60 85.39 23.40 87.77 24.12 89.35C40.10 83.38 42.70 72.36 43.56 54.94L50.26 54.94L50.26 80.14C50.26 86.76 51.62 88.85 57.31 88.85L62.93 88.85C67.82 88.85 69.48 85.90 70.06 75.53C68.26 75.10 65.45 73.94 64.08 72.72C63.94 81.14 63.65 82.58 62.28 82.58Z"/></svg>
