<svg xmlns="http://www.w3.org/2000/svg" xmlns:xlink="http://www.w3.org/1999/xlink" width="72.00000000000001" height="106.56000000000002"><path fill="red" stroke="red" d="M39.96 42.77L55.80 42.70C54.07 51.48 51.48 58.75 47.59 64.66C43.99 58.46 41.62 51.05 39.96 42.77ZM69.05 42.70L69.05 36.29L42.26 36.29C43.56 32.47 44.64 28.44 45.43 24.41L38.52 23.11C36.36 34.49 32.33 45.29 26.42 52.20L26.42 49.68L18.94 49.68L18.94 35.71L28.08 35.71L28.08 29.52L3.53 29.52L3.53 35.71L12.46 35.71L12.46 49.68L4.25 49.68L4.25 55.80L12.46 55.80L12.46 71.86C8.64 72.72 5.11 73.51 2.30 74.09L3.53 80.57C10.66 78.77 20.09 76.39 28.94 74.16L28.30 68.11L18.94 70.34L18.94 55.80L26.42 55.80L26.42 53.28C27.79 54.79 29.74 57.46 30.60 58.82C32.40 56.74 34.06 54.29 35.57 51.70C37.51 58.75 39.89 65.09 43.13 70.49C38.02 76.03 31.25 80.14 22.61 83.09C23.90 84.67 25.78 87.84 26.42 89.42C34.92 86.11 41.83 81.86 47.23 76.32C51.84 82.01 57.67 86.26 65.30 89.28C66.31 87.34 68.40 84.60 69.91 83.23C62.28 80.71 56.30 76.39 51.84 70.85C57.10 63.43 60.62 54.29 63.00 42.70Z"/></svg>
