<svg xmlns="http://www.w3.org/2000/svg" xmlns:xlink="http://www.w3.org/1999/xlink" width="72.00000000000001" height="106.56000000000002"><path fill="red" stroke="red" d="M55.58 81.72C53.78 81.72 53.50 81.29 53.50 78.62L53.50 43.56L25.99 43.56C26.50 40.32 27.00 37.08 27.36 34.06L66.60 34.06L66.60 27.65L5.18 27.65L5.18 34.06L20.23 34.06C18.14 48.82 14.98 67.32 12.17 80.35C9.50 80.78 6.98 81.22 4.82 81.50L5.83 88.63C15.48 86.83 29.02 84.38 41.62 82.01L41.18 75.46C33.98 76.68 26.50 78.05 19.73 79.20C21.31 70.78 23.26 60.26 24.91 49.90L46.66 49.90L46.66 78.62C46.66 86.11 48.46 88.20 54.36 88.20L61.06 88.20C66.89 88.20 68.40 84.46 69.05 72.22C67.25 71.71 64.44 70.49 62.93 69.26C62.64 79.70 62.35 81.72 60.48 81.72ZM26.28 58.32C30.53 62.50 35.71 68.40 38.09 72.07L43.78 68.11C41.26 64.44 35.86 58.75 31.54 54.86Z"/></svg>
