<svg xmlns="http://www.w3.org/2000/svg" xmlns:xlink="http://www.w3.org/1999/xlink" width="72.00000000000001" height="106.56000000000002"><path fill="red" stroke="red" d="M68.47 36.65L68.47 30.38L45.36 30.38C44.64 28.01 43.56 25.06 42.70 22.68L35.93 23.90C36.58 25.85 37.37 28.22 37.94 30.38L13.90 30.38L13.90 47.66C12.38 44.42 9.79 39.46 7.70 35.86L2.59 38.38C4.82 42.55 7.56 48.02 8.78 51.34L13.90 48.67L13.90 51.77C13.90 53.42 13.90 55.01 13.82 56.81C9.36 59.18 5.11 61.49 2.09 62.93L4.32 69.19C7.13 67.54 10.15 65.59 13.18 63.72C12.17 71.06 9.72 78.62 4.03 84.38C5.40 85.25 8.06 87.70 9.00 89.06C18.79 79.13 20.38 63.07 20.38 51.77L20.38 36.65ZM41.33 48.10L41.33 60.41L31.97 60.41L31.97 48.10ZM57.24 60.41L47.59 60.41L47.59 48.10L57.24 48.10ZM38.38 81.43C32.83 81.43 31.97 80.64 31.97 77.04L31.97 66.46L57.24 66.46L57.24 69.05L63.79 69.05L63.79 42.05L25.34 42.05L25.34 77.04C25.34 85.54 28.22 87.62 38.02 87.62L57.10 87.62C65.59 87.62 67.82 84.67 68.90 74.88C66.96 74.45 64.15 73.37 62.57 72.22C62.06 79.85 61.20 81.43 56.66 81.43Z"/></svg>
