<svg xmlns="http://www.w3.org/2000/svg" xmlns:xlink="http://www.w3.org/1999/xlink" width="72.00000000000001" height="106.56000000000002"><path fill="red" stroke="red" d="M60.05 56.02C58.75 61.20 56.81 65.88 54.36 69.98C51.70 65.81 49.61 60.98 48.10 56.02ZM49.54 39.31L49.54 50.33L43.85 50.33L43.85 39.31ZM63.07 50.11L62.06 50.33L55.37 50.33L55.37 39.31L61.99 39.31C61.56 41.90 61.06 44.42 60.55 46.22L65.74 47.52C66.82 44.21 68.04 38.88 69.05 34.20L64.73 33.26L63.72 33.48L55.37 33.48L55.37 23.90L49.54 23.90L49.54 33.48L38.16 33.48L38.16 51.91C38.16 60.77 37.73 72.94 33.84 82.44C34.56 78.70 34.85 72.14 35.21 60.84C35.28 60.05 35.28 58.46 35.28 58.46L15.19 58.46C16.06 56.81 16.70 55.15 17.35 53.50L13.61 52.99C15.84 51.19 17.14 49.25 17.86 47.30L26.50 47.30L26.50 37.22L22.61 37.22L22.61 43.27L18.72 43.27L18.72 42.41L18.72 34.99L14.18 34.99L14.18 42.41L14.18 43.27L10.58 43.27L10.58 37.37L8.86 37.37C10.01 36.22 11.09 34.99 12.02 33.70L30.02 33.70C29.66 44.64 29.23 48.74 28.44 49.82C27.94 50.40 27.50 50.54 26.71 50.47C25.85 50.47 23.98 50.47 21.96 50.33C22.68 51.62 23.18 53.64 23.26 55.22C25.63 55.30 27.86 55.30 29.23 55.08C30.82 54.86 32.04 54.43 32.98 53.14C34.42 51.26 34.92 45.79 35.35 30.82C35.42 30.02 35.42 28.44 35.42 28.44L15.26 28.44C15.98 27.00 16.63 25.49 17.21 24.05L11.66 23.18C10.01 27.36 6.98 32.26 2.45 36.00C3.60 36.79 5.47 38.74 6.19 39.89L6.77 39.38L6.77 47.30L13.10 47.30C11.88 49.54 9.36 51.62 4.39 53.14C5.40 53.93 6.62 55.44 7.27 56.45C8.64 55.94 9.86 55.37 10.94 54.72C9.22 58.75 6.34 63.22 2.16 66.74C3.38 67.46 5.18 69.41 5.98 70.63L6.41 70.27L6.41 79.56L12.82 79.56C11.52 82.01 8.93 84.31 3.96 85.90C4.97 86.69 6.26 88.20 6.84 89.28C13.18 86.76 16.27 83.16 17.64 79.56L26.57 79.56L26.57 68.18L22.54 68.18L22.54 75.38L18.58 75.38C18.65 74.88 18.65 74.30 18.65 73.80L18.65 64.94L14.04 64.94L14.04 73.73C14.04 74.23 14.04 74.81 13.97 75.38L10.30 75.38L10.30 68.33L8.35 68.33C9.79 66.82 11.02 65.23 12.17 63.65L29.81 63.65C29.38 76.54 28.87 81.36 27.86 82.58C27.36 83.23 26.86 83.38 25.99 83.38C24.98 83.38 23.04 83.38 20.74 83.09C21.53 84.60 22.03 86.76 22.18 88.34C24.62 88.42 27.14 88.42 28.51 88.27C30.31 88.06 31.46 87.55 32.54 86.11L32.69 85.90C34.06 86.62 36.14 88.20 37.08 89.06C41.62 80.86 43.20 69.26 43.63 59.54C45.50 65.23 47.88 70.49 50.90 75.10C47.59 79.06 43.78 82.22 39.60 84.31C40.90 85.39 42.55 87.70 43.34 89.14C47.52 86.83 51.26 83.81 54.58 80.06C57.82 83.88 61.56 87.05 65.95 89.28C66.82 87.77 68.69 85.39 69.98 84.24C65.45 82.22 61.56 79.06 58.18 75.17C62.28 68.90 65.30 61.06 66.89 51.34Z"/></svg>
