<svg xmlns="http://www.w3.org/2000/svg" xmlns:xlink="http://www.w3.org/1999/xlink" width="72.00000000000001" height="106.56000000000002"><path fill="red" stroke="red" d="M39.24 35.28C38.02 48.96 34.99 56.30 14.18 59.69C15.41 60.98 16.78 63.43 17.28 64.94C31.39 62.35 38.30 57.74 41.90 50.83C45.43 56.52 51.84 62.14 64.80 64.73C65.45 63.14 66.96 60.34 68.26 58.97C52.06 56.38 46.58 49.90 44.28 44.28C44.86 41.54 45.29 38.59 45.58 35.28ZM21.74 39.82C23.47 43.63 25.49 48.67 26.42 51.62L31.90 48.89C30.89 46.08 28.73 41.18 27.00 37.58ZM56.38 38.16C55.08 41.33 52.49 46.01 50.54 48.96L55.58 51.12C57.67 48.38 60.34 44.35 62.86 40.54ZM67.32 33.48L67.32 27.65L25.70 27.65C25.99 26.42 26.28 25.27 26.50 24.05L20.16 22.68C19.87 24.41 19.51 25.99 19.08 27.65L4.68 27.65L4.68 33.48L17.21 33.48C13.97 41.83 9.07 48.89 2.23 53.57C3.74 54.72 5.98 57.10 6.98 58.54C15.05 52.56 20.52 43.99 23.98 33.48ZM17.78 71.35L25.78 71.35L25.78 81.65L17.78 81.65ZM40.03 71.35L40.03 81.65L31.90 81.65L31.90 71.35ZM54.22 71.35L54.22 81.65L46.15 81.65L46.15 71.35ZM61.06 65.66L11.30 65.66L11.30 81.65L4.03 81.65L4.03 87.70L68.04 87.70L68.04 81.65L61.06 81.65Z"/></svg>
