<svg xmlns="http://www.w3.org/2000/svg" xmlns:xlink="http://www.w3.org/1999/xlink" width="72.00000000000001" height="106.56000000000002"><path fill="red" stroke="red" d="M61.70 23.76C53.71 26.21 39.67 28.08 27.58 29.02C28.15 30.38 28.94 32.69 29.16 34.13C41.69 33.34 56.38 31.54 66.24 28.58ZM59.54 43.92C61.49 41.26 63.79 37.15 65.81 33.34L59.76 31.54C58.54 34.78 56.16 39.38 54.22 42.26ZM50.54 42.98C50.11 40.39 48.89 36.36 47.38 33.41L42.34 34.63C43.70 37.73 44.93 41.90 45.29 44.50ZM19.15 33.19L19.15 42.05L10.94 42.05L10.94 33.19ZM10.94 71.64L10.94 62.42L19.15 62.42L19.15 71.64ZM10.94 47.74L19.15 47.74L19.15 56.74L10.94 56.74ZM24.48 27.36L5.69 27.36L5.69 83.59L10.94 83.59L10.94 77.62L24.48 77.62ZM58.10 67.32L49.32 67.32L49.32 61.42L58.10 61.42ZM49.32 50.69L58.10 50.69L58.10 55.66L49.32 55.66ZM68.98 55.66L63.94 55.66L63.94 45.36L34.27 45.36L38.52 43.34C37.73 40.75 35.86 37.01 33.84 34.34L29.16 36.43C31.03 39.10 32.76 42.77 33.48 45.36L29.59 45.36L29.59 50.69L43.20 50.69L43.20 55.66L26.35 55.66L26.35 61.42L43.20 61.42L43.20 67.32L29.16 67.32L29.16 72.65L43.20 72.65L43.20 81.50C43.20 82.51 42.84 82.80 41.76 82.87C40.68 82.87 36.94 82.87 33.19 82.73C34.06 84.46 34.92 87.05 35.21 88.78C40.39 88.78 44.06 88.70 46.30 87.70C48.67 86.83 49.32 85.10 49.32 81.58L49.32 72.65L63.94 72.65L63.94 61.42L68.98 61.42Z"/></svg>
