<svg xmlns="http://www.w3.org/2000/svg" xmlns:xlink="http://www.w3.org/1999/xlink" width="72.00000000000001" height="106.56000000000002"><path fill="red" stroke="red" d="M22.39 74.45L14.04 74.45L14.04 54.65L22.39 54.65ZM3.74 32.83L12.10 32.83C10.22 43.06 7.13 52.56 2.38 58.97C3.31 60.77 4.68 64.80 5.04 66.53C6.26 65.02 7.34 63.36 8.42 61.56L8.42 85.90L14.04 85.90L14.04 80.35L28.15 80.35L28.15 48.67L14.26 48.67C15.98 43.63 17.35 38.30 18.43 32.83L29.23 32.83L29.23 26.78L3.74 26.78ZM44.71 52.42L44.71 33.12L54.86 33.12L54.86 52.42ZM69.05 52.42L61.27 52.42L61.27 33.12L67.61 33.12L67.61 26.86L32.90 26.86L32.90 33.12L38.45 33.12L38.45 52.42L30.96 52.42L30.96 58.75L38.38 58.75C38.02 67.97 36.36 78.55 29.52 85.68C31.03 86.54 33.48 88.49 34.63 89.57C42.41 81.50 44.28 69.55 44.64 58.75L54.86 58.75L54.86 89.21L61.27 89.21L61.27 58.75L69.05 58.75Z"/></svg>
