<svg xmlns="http://www.w3.org/2000/svg" xmlns:xlink="http://www.w3.org/1999/xlink" width="72.00000000000001" height="106.56000000000002"><path fill="red" stroke="red" d="M31.39 54.50C33.55 53.78 36.86 53.57 61.99 52.20C63.07 54.00 63.94 55.66 64.58 57.10L70.06 54.29C67.97 49.97 63.22 43.56 58.97 39.02L53.86 41.47C55.30 42.98 56.66 44.78 58.03 46.51L39.02 47.38C41.98 44.21 44.78 40.61 47.52 36.79L68.69 36.79L68.69 30.96L51.48 30.96C52.70 29.09 53.86 27.14 55.01 25.27L48.46 22.68C47.09 25.56 45.50 28.37 43.78 30.96L29.95 30.96L29.95 36.79L39.96 36.79C37.66 40.10 35.57 42.70 34.63 43.78C32.40 46.30 30.89 47.88 29.23 48.24C30.02 49.97 31.10 53.21 31.39 54.50ZM21.02 74.45L13.82 74.45L13.82 54.58L21.02 54.58ZM26.64 80.35L26.64 48.67L14.11 48.67C15.84 43.63 17.28 38.23 18.36 32.76L27.86 32.76L27.86 26.71L3.74 26.71L3.74 32.76L12.10 32.76C10.15 42.98 6.98 52.56 2.23 58.97C3.17 60.77 4.61 64.80 4.90 66.53C6.12 65.02 7.20 63.43 8.28 61.63L8.28 85.90L13.82 85.90L13.82 80.35ZM34.20 65.66C34.20 72.07 33.26 79.42 25.49 84.96C26.93 85.82 29.09 87.84 30.02 89.14C38.74 82.66 39.89 73.80 39.89 65.74L39.89 56.66L34.20 56.66ZM45.43 86.40L51.05 86.40L51.05 56.95L45.43 56.95ZM63.43 82.73C62.50 82.73 62.42 82.08 62.42 79.99L62.42 56.59L56.66 56.59L56.66 79.92C56.66 85.46 57.74 87.70 63.00 87.70L66.67 87.70C67.90 87.70 69.26 87.62 70.13 87.34C69.98 85.97 69.84 83.81 69.70 82.37C68.90 82.66 67.54 82.73 66.67 82.73Z"/></svg>
