<svg xmlns="http://www.w3.org/2000/svg" xmlns:xlink="http://www.w3.org/1999/xlink" width="72.00000000000001" height="106.56000000000002"><path fill="red" stroke="red" d="M28.15 61.42C26.93 59.69 21.31 52.78 19.58 50.98L19.58 49.68L27.36 49.68L27.36 43.49L19.58 43.49L19.58 31.75C22.68 30.96 25.70 30.02 28.22 28.94L24.26 23.54C19.22 25.85 11.02 28.01 3.74 29.38C4.54 30.82 5.33 33.12 5.62 34.63C8.14 34.27 10.80 33.77 13.46 33.19L13.46 43.49L3.17 43.49L3.17 49.68L11.81 49.68C9.50 57.24 5.69 65.88 1.94 70.78C3.02 72.58 4.61 75.46 5.26 77.33C8.21 73.15 11.16 66.60 13.46 59.90L13.46 89.28L19.58 89.28L19.58 58.32C21.38 61.34 23.33 64.80 24.26 66.74ZM38.88 48.24L55.58 48.24L55.58 58.39L38.88 58.39ZM57.46 82.51C56.16 82.51 55.94 82.22 55.94 80.35L55.94 64.22L62.21 64.22L62.21 42.77C63.00 43.92 63.65 45.07 64.08 46.08L69.19 42.41C66.38 37.08 59.76 29.16 54.22 23.33L49.54 26.50C53.86 31.18 58.75 37.30 61.92 42.34L34.34 42.34C38.52 37.73 42.55 31.97 45.22 26.21L39.02 24.26C36.07 30.82 30.96 37.30 25.56 41.47C27.00 42.62 29.45 45.00 30.46 46.22C31.10 45.58 31.90 44.86 32.62 44.14L32.62 64.22L37.66 64.22C36.79 73.37 34.49 80.50 24.34 84.38C25.63 85.61 27.50 87.98 28.15 89.57C40.03 84.46 43.13 75.67 44.21 64.22L49.46 64.22L49.46 80.42C49.46 86.62 50.76 88.56 56.38 88.56L61.99 88.56C66.46 88.56 68.11 86.18 68.76 76.90C67.03 76.46 64.30 75.38 63.00 74.30C62.78 81.43 62.57 82.51 61.20 82.51Z"/></svg>
