<svg xmlns="http://www.w3.org/2000/svg" xmlns:xlink="http://www.w3.org/1999/xlink" width="72.00000000000001" height="106.56000000000002"><path fill="red" stroke="red" d="M67.18 40.97L67.18 29.38L40.97 29.38C40.25 27.14 39.24 24.41 38.30 22.39L30.82 23.83C31.46 25.49 32.11 27.58 32.69 29.38L5.69 29.38L5.69 41.40L12.10 41.40L12.10 35.06L25.49 35.06C23.90 41.40 19.94 44.64 6.48 46.51C7.63 47.66 9.22 50.18 9.72 51.70C14.62 50.90 18.43 49.82 21.53 48.53C17.28 56.74 10.58 63.86 3.10 68.47C4.61 69.62 7.27 72.36 8.35 73.66C13.68 69.91 18.86 64.94 23.04 58.97L27.65 58.97L27.65 89.35L34.49 89.35L34.49 80.78L64.80 80.78L64.80 75.38L34.49 75.38L34.49 69.84L61.63 69.84L61.63 64.51L34.49 64.51L34.49 58.97L66.67 58.97L66.67 53.42L26.71 53.42C27.79 51.55 28.80 49.54 29.66 47.52L25.49 46.37C29.45 43.56 31.39 39.89 32.40 35.06L39.82 35.06L39.82 42.12C39.82 47.59 41.18 49.97 47.38 49.97L57.89 49.97C60.05 49.97 62.57 49.90 63.86 49.54C63.58 47.88 63.43 46.08 63.29 44.21C62.06 44.57 59.11 44.71 57.53 44.71L48.46 44.71C46.73 44.71 46.44 43.99 46.44 42.19L46.44 35.06L60.48 35.06L60.48 40.97Z"/></svg>
