<svg xmlns="http://www.w3.org/2000/svg" xmlns:xlink="http://www.w3.org/1999/xlink" width="72.00000000000001" height="106.56000000000002"><path fill="red" stroke="red" d="M21.82 35.86L18.14 38.66C20.52 41.04 23.33 44.28 24.62 46.44L29.16 42.77C27.94 40.90 25.27 37.94 23.04 35.86L35.42 35.86L35.42 30.17L17.78 30.17C18.50 28.37 19.30 26.42 19.94 24.55L13.68 22.82C11.52 29.38 7.85 36.00 3.74 40.25C5.18 41.33 7.63 43.56 8.71 44.78C10.87 42.34 12.96 39.24 14.83 35.86ZM68.33 30.31L48.02 30.31C48.82 28.37 49.54 26.35 50.04 24.34L43.42 22.82C41.69 29.66 38.38 36.50 34.20 40.82C35.71 41.62 38.45 43.42 39.74 44.50L33.98 44.50L33.98 51.19L20.74 51.19C21.67 49.32 22.54 47.52 23.26 45.58L16.70 43.85C14.40 49.97 10.44 56.16 6.05 60.12C7.63 61.13 10.37 63.00 11.66 64.08C13.54 62.14 15.41 59.76 17.21 57.10L33.98 57.10L33.98 65.74L13.61 65.74L13.61 71.64L33.98 71.64L33.98 81.14L4.75 81.14L4.75 87.19L67.32 87.19L67.32 81.14L40.75 81.14L40.75 71.64L61.06 71.64L61.06 65.74L40.75 65.74L40.75 57.10L63.43 57.10L63.43 51.19L40.75 51.19L40.75 44.50L40.03 44.50C41.98 42.12 43.85 39.24 45.50 36.00L53.06 36.00L49.90 38.38C52.63 41.04 55.80 44.71 57.24 47.09L61.78 43.34C60.41 41.40 57.67 38.38 55.22 36.00L68.33 36.00Z"/></svg>
