<svg xmlns="http://www.w3.org/2000/svg" xmlns:xlink="http://www.w3.org/1999/xlink" width="72.00000000000001" height="106.56000000000002"><path fill="red" stroke="red" d="M5.90 69.41C5.33 75.46 4.32 81.94 2.66 86.40C4.03 86.83 6.48 87.55 7.63 88.13C9.07 83.66 10.37 76.75 11.02 70.27ZM12.96 70.20C13.75 75.24 14.47 81.79 14.54 86.18L19.58 85.18C19.37 80.93 18.58 74.45 17.71 69.34ZM19.80 68.90C21.24 73.15 22.82 78.70 23.47 82.30L28.01 80.78C27.43 77.18 25.70 71.71 24.12 67.46ZM20.16 51.77C20.81 53.71 21.38 55.94 21.96 58.10L12.60 59.33C17.86 52.85 23.11 44.71 27.29 36.86L21.82 33.70C20.45 36.94 18.79 40.10 17.06 43.06L11.02 43.63C14.69 38.30 18.22 31.75 21.02 25.49L15.12 23.11C12.60 30.67 7.92 38.81 6.48 40.90C5.04 43.06 3.89 44.50 2.59 44.78C3.31 46.37 4.18 49.25 4.54 50.47C5.54 50.04 7.20 49.61 13.54 48.82C11.30 52.42 9.29 55.08 8.35 56.23C6.19 58.90 4.61 60.70 3.10 60.98C3.82 62.64 4.75 65.59 5.04 66.74C6.55 65.95 8.86 65.45 23.04 63.29C23.33 64.73 23.54 66.02 23.69 67.10L28.66 65.66C28.08 61.85 26.35 55.51 24.70 50.54ZM38.95 75.89L57.74 75.89L57.74 55.30L54.07 55.30L54.07 70.78L50.33 70.78L50.33 51.26L58.97 51.26L58.97 46.15L54.36 46.15C55.51 42.70 56.74 38.16 57.89 34.27L52.92 33.05C52.34 36.94 51.12 42.34 49.97 46.15L37.66 46.15L37.66 51.26L46.37 51.26L46.37 70.78L42.62 70.78L42.62 55.30L38.95 55.30ZM38.88 34.42C40.39 37.87 41.83 42.48 42.12 45.29L46.30 43.99C45.94 41.18 44.50 36.79 42.84 33.48ZM66.89 25.99L29.66 25.99L29.66 89.21L35.28 89.21L35.28 31.90L61.27 31.90L61.27 81.79C61.27 82.87 60.91 83.30 59.76 83.30C58.75 83.30 55.08 83.38 51.34 83.23C52.06 84.67 52.92 87.34 53.14 88.85C58.61 88.92 61.99 88.78 64.08 87.77C66.10 86.83 66.89 85.10 66.89 81.79Z"/></svg>
