<svg xmlns="http://www.w3.org/2000/svg" xmlns:xlink="http://www.w3.org/1999/xlink" width="72.00000000000001" height="106.56000000000002"><path fill="red" stroke="red" d="M20.74 76.46C16.99 79.42 10.80 82.08 4.82 83.81C6.26 84.74 8.57 86.54 9.72 87.55C15.26 85.46 21.96 82.08 26.28 78.48ZM12.38 45.94L20.45 45.94L20.45 49.75L12.38 49.75ZM20.38 30.24L20.38 33.84L12.38 33.84L12.38 30.24ZM28.66 41.98L12.38 41.98L12.38 37.73L28.66 37.73ZM57.38 73.08C59.18 74.59 60.70 76.03 61.85 77.26L66.31 73.80C63.22 70.63 57.24 66.17 51.98 62.93L47.59 65.74C49.18 66.67 50.69 67.82 52.34 68.98L27.72 70.27C35.57 67.61 43.27 64.44 51.12 60.34L47.09 56.81C44.57 58.25 41.90 59.54 39.24 60.77L26.93 61.27C29.88 60.05 32.98 58.68 36.00 56.95L32.40 54.43L36.22 54.43L36.22 49.75L25.92 49.75L25.92 45.94L33.98 45.94L33.98 33.84L25.85 33.84L25.85 30.24L35.57 30.24L35.57 25.56L6.26 25.56L6.26 54.43L31.10 54.43C25.78 57.67 19.58 59.98 17.42 60.62C15.34 61.27 13.68 61.63 12.17 61.70C12.67 63.07 13.39 65.45 13.61 66.46C14.98 66.10 16.92 65.81 29.38 65.09C23.90 67.25 19.30 68.76 16.92 69.48C12.82 70.78 9.72 71.57 7.27 71.64C7.78 73.01 8.35 75.60 8.57 76.61C10.80 75.89 13.61 75.60 33.91 74.45L33.91 82.87C33.91 83.74 33.62 83.95 32.47 83.95C31.54 84.10 27.72 84.10 23.98 83.88C24.84 85.39 25.78 87.41 26.21 89.06C31.39 89.06 34.92 89.06 37.44 88.27C39.89 87.48 40.61 86.18 40.61 83.09L40.61 74.02ZM45.58 79.06C51.19 81.29 58.32 84.89 62.28 87.19L66.74 83.52C62.71 81.29 55.58 77.98 49.97 75.82ZM58.54 32.04C56.95 35.64 54.86 38.81 52.27 41.54C49.46 38.74 47.23 35.57 45.65 32.04ZM62.35 26.21L61.27 26.42L38.23 26.42L38.23 32.04L43.20 32.04L40.18 32.98C42.19 37.58 44.78 41.76 48.10 45.29C44.64 47.88 40.75 49.75 36.58 51.05C37.73 52.13 39.10 54.29 39.82 55.80C44.35 54.22 48.53 52.06 52.27 49.18C55.94 52.13 60.12 54.58 64.94 56.09C65.81 54.50 67.54 52.13 68.83 51.05C64.30 49.75 60.12 47.81 56.59 45.22C60.91 40.75 64.15 34.85 66.10 27.58Z"/></svg>
