<svg xmlns="http://www.w3.org/2000/svg" xmlns:xlink="http://www.w3.org/1999/xlink" width="72.00000000000001" height="106.56000000000002"><path fill="red" stroke="red" d="M29.52 63.72C28.94 60.19 26.93 54.50 24.77 50.11L20.30 51.62C21.24 53.71 22.03 56.02 22.82 58.32L12.17 59.69C17.78 53.06 23.40 44.78 27.72 36.58L22.61 33.41C21.10 36.79 19.15 40.25 17.28 43.49L10.66 43.99C14.47 38.66 18.22 31.90 21.17 25.49L15.41 23.18C12.74 30.89 7.99 38.88 6.48 41.04C4.97 43.13 3.74 44.57 2.52 44.93C3.24 46.44 4.10 49.25 4.39 50.47C5.47 49.97 7.06 49.61 13.82 48.82C11.52 52.34 9.43 55.15 8.35 56.30C6.19 59.04 4.61 60.77 3.02 61.20C3.67 62.64 4.61 65.59 4.90 66.74C6.34 65.95 8.71 65.45 24.19 63.00C24.41 63.94 24.55 64.87 24.70 65.66ZM5.47 69.41C4.90 75.24 3.96 81.58 2.30 85.90C3.67 86.26 6.12 87.05 7.34 87.70C8.78 83.30 10.01 76.54 10.73 70.34ZM13.32 70.13C14.11 74.95 14.90 81.22 15.05 85.39L20.09 84.10C19.80 79.99 19.01 73.87 18.07 69.12ZM21.24 68.62C22.75 72.94 24.41 78.70 25.13 82.51L29.88 80.78C29.09 77.11 27.36 71.57 25.63 67.18ZM51.55 53.86L51.55 50.69L60.12 50.69L60.12 53.86ZM37.37 53.86L37.37 50.69L45.50 50.69L45.50 53.86ZM45.50 43.63L45.50 46.80L37.37 46.80L37.37 43.63ZM60.12 43.63L60.12 46.80L51.55 46.80L51.55 43.63ZM69.12 66.67L60.05 66.67L60.05 64.08C61.63 64.01 62.93 63.86 64.01 63.50C65.52 62.86 65.88 62.06 65.88 59.76L65.88 38.95L51.55 38.95L51.55 35.14L68.40 35.14L68.40 30.02L63.50 30.02L65.88 27.36C64.08 25.70 60.41 23.76 57.46 22.68L54.07 26.14C56.52 27.14 59.18 28.58 61.13 30.02L51.55 30.02L51.55 23.11L45.50 23.11L45.50 30.02L29.38 30.02L29.38 35.14L45.50 35.14L45.50 38.95L31.61 38.95L31.61 63.58L37.37 63.58L37.37 57.74L45.50 57.74L45.50 62.86L51.55 62.86L51.55 57.74L60.12 57.74L60.12 59.62C60.12 60.19 59.90 60.34 59.33 60.41C58.82 60.41 57.38 60.41 55.87 60.34C56.23 61.13 56.81 62.06 57.17 63.07L53.93 63.07L53.93 66.67L28.80 66.67L28.80 72.00L38.95 72.00L34.49 75.02C37.30 77.76 40.46 81.65 41.69 84.24L46.66 80.86C45.22 78.19 42.05 74.59 39.10 72.00L53.93 72.00L53.93 82.58C53.93 83.38 53.64 83.59 52.70 83.59C51.91 83.59 48.89 83.59 45.86 83.52C46.58 85.03 47.45 87.19 47.74 88.85C52.27 88.85 55.37 88.78 57.46 87.91C59.54 87.05 60.05 85.68 60.05 82.73L60.05 72.00L69.12 72.00Z"/></svg>
