<svg xmlns="http://www.w3.org/2000/svg" xmlns:xlink="http://www.w3.org/1999/xlink" width="72.00000000000001" height="106.56000000000002"><path fill="red" stroke="red" d="M20.74 76.46C16.63 79.27 9.94 81.94 3.82 83.59C5.26 84.67 7.56 86.83 8.64 88.06C14.62 85.90 21.96 82.44 26.71 78.91ZM24.34 49.82L25.99 47.74C24.62 46.87 22.46 45.65 20.38 44.64L29.38 44.64C29.16 46.80 28.94 48.46 28.73 49.82ZM18.22 44.64L16.92 46.01C19.01 47.16 21.67 48.67 23.40 49.82L12.89 49.82C13.10 48.17 13.32 46.51 13.54 44.64ZM19.22 36.72L18.07 38.16C20.16 39.10 22.61 40.46 24.26 41.54L13.82 41.54L14.40 36.72ZM25.06 41.54L26.71 39.38C25.42 38.59 23.47 37.66 21.53 36.72L30.10 36.72C29.95 38.45 29.81 40.10 29.74 41.54ZM56.23 73.15C58.25 74.95 60.12 76.61 61.27 77.90L65.95 74.95C62.71 71.78 56.45 66.89 51.77 63.50L47.30 65.95C48.60 66.96 50.11 68.04 51.48 69.19L28.01 70.49C36.07 67.97 43.92 64.80 51.48 61.13L47.95 57.10C45.00 58.75 41.69 60.26 38.38 61.70L28.22 61.92C31.97 60.77 35.71 59.33 39.31 57.74L35.64 54.07C34.34 54.79 33.05 55.37 31.68 56.02C32.11 55.44 32.47 54.65 32.83 53.50L36.86 53.50L36.86 49.82L33.62 49.82C33.84 48.46 34.06 46.94 34.20 45.00L38.81 45.00L38.81 41.18L34.63 41.18C34.78 39.38 34.92 37.44 35.06 35.14C35.14 34.56 35.21 33.12 35.21 33.12L11.52 33.12C12.17 32.33 12.89 31.46 13.54 30.60L37.30 30.60L37.30 26.50L16.13 26.50C16.56 25.70 16.99 24.84 17.35 24.12L11.88 22.82C10.01 27.29 6.48 31.54 2.38 34.42C3.74 35.06 6.12 36.58 7.20 37.44C7.99 36.72 8.86 35.93 9.65 35.14C9.50 37.08 9.29 39.17 9.00 41.18L3.38 41.18L3.38 45.00L8.64 45.00C8.21 48.17 7.78 51.19 7.34 53.50L27.72 53.50C27.58 53.71 27.50 53.93 27.36 54.07C26.78 54.65 26.28 54.72 25.49 54.72C24.62 54.72 22.90 54.65 20.81 54.50C21.38 55.44 21.74 56.95 21.82 57.89C23.83 58.03 25.70 58.03 27.07 57.96C23.18 59.54 19.80 60.55 18.29 60.98C15.98 61.70 14.04 62.06 12.46 62.21C13.03 63.65 13.75 66.17 13.82 67.25C15.05 66.82 16.92 66.60 27.29 66.17C22.90 67.82 19.37 68.98 17.57 69.48C13.61 70.85 10.58 71.64 8.21 71.78C8.78 73.22 9.43 75.82 9.65 76.97C11.59 76.18 14.26 75.89 33.12 74.74L33.12 83.02C33.12 83.81 32.76 84.10 31.75 84.10C30.74 84.24 27.14 84.24 23.40 84.02C24.34 85.54 25.34 87.77 25.70 89.42C30.67 89.42 34.13 89.42 36.50 88.49C38.88 87.70 39.53 86.26 39.53 83.23L39.53 74.30ZM45.14 79.42C50.90 81.72 58.46 85.25 62.14 87.70L67.25 83.95C63.14 81.50 55.51 78.19 49.97 76.18ZM47.02 33.41L57.38 33.41C56.23 36.72 54.50 39.60 52.27 42.05C50.04 39.60 48.24 36.72 46.87 33.62ZM68.26 33.41L68.26 28.58L49.25 28.58C49.82 27.14 50.33 25.63 50.76 24.12L45.00 23.04C43.42 29.02 40.25 34.56 36.00 38.09C37.37 39.02 39.46 41.04 40.32 42.12C41.47 41.04 42.62 39.89 43.70 38.45C45.00 41.11 46.58 43.49 48.38 45.72C45.14 48.24 41.33 50.26 36.94 51.70C38.02 52.78 39.82 55.08 40.54 56.23C44.78 54.50 48.74 52.27 52.13 49.61C55.87 52.99 60.41 55.66 65.66 57.38C66.46 55.80 68.11 53.57 69.41 52.42C64.30 51.12 59.83 48.74 56.16 45.79C59.26 42.34 61.70 38.23 63.29 33.41Z"/></svg>
