<svg xmlns="http://www.w3.org/2000/svg" xmlns:xlink="http://www.w3.org/1999/xlink" width="72.00000000000001" height="106.56000000000002"><path fill="red" stroke="red" d="M23.76 38.95L30.38 38.95L30.38 23.11L23.76 23.11L23.76 28.37L4.10 28.37L4.10 33.77L23.76 33.77ZM16.70 70.85C16.06 74.88 15.19 78.98 13.39 82.01C14.33 82.44 15.98 83.23 16.63 83.81C18.36 80.71 19.66 75.96 20.38 71.64ZM21.67 65.02C23.04 63.72 24.41 62.21 25.70 60.70C26.28 61.78 26.78 63.00 27.22 64.22ZM28.30 67.39C28.58 68.33 28.87 69.19 29.02 69.91L32.26 68.83C31.68 66.53 30.17 62.57 28.73 59.62L25.99 60.41C27.65 58.39 29.23 56.38 30.74 54.36L27.14 52.49C26.42 53.71 25.56 54.94 24.70 56.16L20.45 56.52C22.46 54.22 24.48 51.34 26.14 48.53L22.25 47.02C20.52 50.83 17.64 54.65 16.70 55.66C15.91 56.66 15.12 57.31 14.26 57.46C14.69 58.39 15.41 60.19 15.62 60.98C16.27 60.62 17.42 60.34 21.89 59.76C20.16 61.85 18.65 63.58 17.93 64.22C16.56 65.52 15.48 66.46 14.40 66.60C14.90 67.61 15.48 69.34 15.70 70.13C16.34 69.77 17.35 69.41 21.38 68.62L21.38 86.40L25.27 86.40L25.27 67.90ZM26.21 71.71C27.50 74.88 28.80 78.98 29.16 81.58L32.47 80.35C32.11 77.90 30.82 73.87 29.38 70.85ZM43.92 57.82L46.87 57.82L46.87 67.54L43.92 67.54ZM52.85 67.54L49.90 67.54L49.90 57.82L52.85 57.82ZM57.38 83.30C57.31 80.57 56.38 76.18 55.30 72.79L52.27 73.15C52.63 74.52 52.99 76.03 53.35 77.54L50.40 77.83L50.40 70.99L56.02 70.99L56.02 54.43L50.33 54.43L50.33 47.74L46.30 47.74L46.30 54.43L40.90 54.43L40.90 70.99L46.30 70.99L46.30 78.26C43.78 78.55 41.47 78.84 39.46 78.98L40.03 83.30L54.00 81.14C54.07 82.22 54.22 83.16 54.22 83.95ZM64.66 41.18L7.63 41.18L7.63 89.14L13.18 89.14L13.18 46.44L33.19 46.44L33.19 88.85L38.23 88.85L38.23 46.44L58.97 46.44L58.97 83.23C58.97 83.95 58.75 84.17 58.10 84.24C57.38 84.24 55.58 84.24 53.50 84.17C54.22 85.54 54.94 87.77 55.15 89.28C58.54 89.28 60.91 89.14 62.57 88.27C64.15 87.34 64.66 85.90 64.66 83.23ZM47.95 28.37L47.95 23.11L41.33 23.11L41.33 38.95L47.95 38.95L47.95 33.77L67.82 33.77L67.82 28.37Z"/></svg>
