<svg xmlns="http://www.w3.org/2000/svg" xmlns:xlink="http://www.w3.org/1999/xlink" width="72.00000000000001" height="106.56000000000002"><path fill="red" stroke="red" d="M19.66 78.70L51.98 78.70L51.98 82.30L19.66 82.30ZM51.98 57.10L51.98 60.55L19.66 60.55L19.66 57.10ZM19.66 71.35L51.98 71.35L51.98 74.95L19.66 74.95ZM51.98 67.68L19.66 67.68L19.66 64.15L51.98 64.15ZM30.82 30.38L41.04 30.38L41.04 35.86L30.82 35.86ZM24.70 35.86L14.76 35.86L14.76 30.38L24.70 30.38ZM47.16 30.38L57.60 30.38L57.60 35.86L47.16 35.86ZM58.61 82.30L58.61 52.78L36.65 52.78C36.94 51.62 37.22 50.47 37.37 49.18L66.17 49.18L66.17 44.14L38.30 44.14C38.59 42.91 38.74 41.69 38.95 40.54L64.22 40.54L64.22 25.70L8.35 25.70L8.35 40.54L32.11 40.54C31.97 41.69 31.82 42.91 31.68 44.14L5.18 44.14L5.18 49.18L30.89 49.18C30.74 50.47 30.53 51.62 30.38 52.78L13.32 52.78L13.32 82.30L4.39 82.30L4.39 87.19L67.97 87.19L67.97 82.30Z"/></svg>
