<svg xmlns="http://www.w3.org/2000/svg" xmlns:xlink="http://www.w3.org/1999/xlink" width="72.00000000000001" height="106.56000000000002"><path fill="red" stroke="red" d="M34.56 45.43L34.56 37.37L48.67 37.37C45.72 40.18 42.62 42.91 39.24 45.43ZM52.42 69.70L25.27 69.70L25.27 63.72L52.42 63.72ZM25.27 81.29L25.27 74.95L52.42 74.95L52.42 81.29ZM67.90 51.41L67.90 45.43L49.03 45.43C55.01 40.25 60.41 34.63 64.94 28.44L59.18 25.42C56.88 28.66 54.22 31.75 51.34 34.70L51.34 31.54L34.56 31.54L34.56 23.11L27.94 23.11L27.94 31.54L10.37 31.54L10.37 37.37L27.94 37.37L27.94 45.43L4.10 45.43L4.10 51.41L30.46 51.41C21.82 56.88 12.24 61.34 2.30 64.66C3.53 66.02 5.62 68.69 6.41 70.20C10.51 68.62 14.62 66.89 18.65 65.02L18.65 89.21L25.27 89.21L25.27 86.98L52.42 86.98L52.42 88.92L59.33 88.92L59.33 58.18L31.39 58.18C34.85 56.02 38.23 53.86 41.47 51.41Z"/></svg>
