<svg xmlns="http://www.w3.org/2000/svg" xmlns:xlink="http://www.w3.org/1999/xlink" width="72.00000000000001" height="106.56000000000002"><path fill="red" stroke="red" d="M59.83 39.17L52.34 39.17L52.34 34.27L59.83 34.27ZM59.83 48.67L52.34 48.67L52.34 43.70L59.83 43.70ZM38.38 43.70L46.15 43.70L46.15 48.67L38.38 48.67ZM38.38 34.27L46.15 34.27L46.15 39.17L38.38 39.17ZM65.88 29.45L52.34 29.45L52.34 23.11L46.15 23.11L46.15 29.45L32.47 29.45L32.47 53.50L65.88 53.50ZM21.53 41.04L13.32 41.04L13.32 32.11L21.53 32.11ZM13.32 71.28L13.32 61.13L21.53 61.13L21.53 69.70ZM21.53 55.58L13.32 55.58L13.32 46.51L21.53 46.51ZM31.18 32.11L31.18 26.06L3.31 26.06L3.31 32.11L7.49 32.11L7.49 72.36C5.76 72.72 4.18 73.01 2.74 73.22L3.96 79.42C9.00 78.34 15.34 76.97 21.53 75.60L21.53 88.92L27.50 88.92L27.50 32.11ZM69.05 63.07L69.05 57.60L29.30 57.60L29.30 63.07L38.52 63.07C37.44 66.96 36.22 71.06 35.14 74.16L58.68 74.16C57.96 79.13 57.17 81.43 56.23 82.37C55.58 82.87 54.86 82.94 53.50 82.94C52.13 82.94 48.38 82.87 44.71 82.58C45.86 84.24 46.51 86.69 46.66 88.56C50.54 88.78 54.22 88.78 56.23 88.63C58.46 88.42 60.05 87.98 61.42 86.62C63.36 84.74 64.37 80.57 65.38 71.35C65.52 70.49 65.59 68.76 65.59 68.76L43.56 68.76C44.06 66.89 44.57 65.02 45.14 63.07Z"/></svg>
