<svg xmlns="http://www.w3.org/2000/svg" xmlns:xlink="http://www.w3.org/1999/xlink" width="72.00000000000001" height="106.56000000000002"><path fill="red" stroke="red" d="M12.46 44.06C14.47 46.44 16.63 49.25 17.78 51.19L20.23 49.39L20.23 57.10C17.21 59.11 14.47 60.91 12.17 62.21C12.38 58.32 12.46 54.65 12.46 51.41ZM20.23 31.54L20.23 46.22C18.72 44.35 16.78 42.12 15.12 40.39L12.46 42.05L12.46 31.54ZM25.85 25.70L6.98 25.70L6.98 51.41C6.98 61.92 6.62 76.18 2.38 86.26C3.82 86.69 6.26 88.06 7.34 88.99C10.37 81.86 11.59 72.29 12.10 63.50L14.11 67.90L20.23 62.71L20.23 81.14C20.23 82.08 19.94 82.44 19.08 82.44C18.29 82.44 15.77 82.44 12.96 82.37C13.75 83.88 14.47 86.69 14.69 88.20C19.01 88.20 21.60 88.06 23.54 87.05C25.27 86.04 25.85 84.24 25.85 81.29ZM51.34 53.78L51.34 50.76L60.12 50.76L60.12 53.78ZM36.29 53.78L36.29 50.76L45.29 50.76L45.29 53.78ZM45.29 43.49L45.29 46.73L36.29 46.73L36.29 43.49ZM60.12 43.49L60.12 46.73L51.34 46.73L51.34 43.49ZM68.98 67.54L60.55 67.54L60.55 64.22C61.78 64.15 62.86 63.94 63.72 63.65C65.45 62.93 65.95 61.99 65.95 59.40L65.95 39.02L51.34 39.02L51.34 35.14L67.90 35.14L67.90 29.95L63.72 29.95L66.02 27.50C64.01 26.14 60.34 24.12 57.60 22.82L54.14 26.14C56.23 27.29 58.75 28.66 60.77 29.95L51.34 29.95L51.34 23.11L45.29 23.11L45.29 29.95L28.22 29.95L28.22 35.14L45.29 35.14L45.29 39.02L30.60 39.02L30.60 64.22L36.29 64.22L36.29 57.67L45.29 57.67L45.29 62.57L51.34 62.57L51.34 57.67L60.12 57.67L60.12 59.33C60.12 59.98 59.90 60.19 59.11 60.26C58.54 60.26 56.38 60.26 54.22 60.19C54.79 61.27 55.66 62.78 55.94 64.08L54.36 64.08L54.36 67.54L27.65 67.54L27.65 72.86L36.50 72.86L33.55 75.96C36.94 78.34 41.47 81.72 43.70 83.88L47.59 79.42C45.50 77.76 41.54 74.95 38.45 72.86L54.36 72.86L54.36 82.30C54.36 83.09 54.14 83.30 53.21 83.30C52.42 83.38 49.39 83.38 46.30 83.23C47.09 84.82 47.95 87.26 48.24 88.99C52.70 88.99 55.87 88.92 57.96 87.98C60.05 87.05 60.55 85.39 60.55 82.44L60.55 72.86L69.05 72.86Z"/></svg>
