<svg xmlns="http://www.w3.org/2000/svg" xmlns:xlink="http://www.w3.org/1999/xlink" width="72.00000000000001" height="106.56000000000002"><path fill="red" stroke="red" d="M61.34 23.40C48.17 26.42 25.34 28.44 5.76 29.45C6.41 30.82 7.13 33.48 7.20 35.06C27.07 34.20 50.18 32.26 65.95 28.73ZM56.52 33.19C55.08 37.73 52.13 43.85 49.18 47.88C50.83 48.60 53.35 49.82 54.86 50.90C57.89 46.58 60.91 40.39 63.00 34.99ZM41.26 47.16C40.54 43.70 38.45 38.38 36.36 34.34L30.38 36.00C32.33 40.10 34.27 45.58 34.85 49.03ZM22.03 47.09C20.66 43.99 17.42 39.31 14.54 36.00L8.93 38.66C11.74 42.19 14.83 47.09 16.06 50.18ZM39.89 57.24L57.24 57.24L57.24 65.16L38.52 65.16L38.52 71.14L57.24 71.14L57.24 79.63L15.41 79.63L15.41 71.14L33.41 71.14L33.41 65.16L15.41 65.16L15.41 57.38C22.18 56.16 29.30 54.58 34.85 52.63L30.17 47.59C24.91 49.68 16.20 51.84 8.50 53.14L8.50 89.06L15.41 89.06L15.41 85.68L57.24 85.68L57.24 89.21L64.15 89.21L64.15 51.12L39.89 51.12Z"/></svg>
