<svg xmlns="http://www.w3.org/2000/svg" xmlns:xlink="http://www.w3.org/1999/xlink" width="72.00000000000001" height="106.56000000000002"><path fill="red" stroke="red" d="M27.22 79.27L13.25 79.27L13.25 70.27L27.22 70.27ZM23.47 46.51L29.81 46.51L29.81 40.97L10.80 40.97C14.04 38.23 17.14 34.92 19.80 31.54C24.70 35.28 30.02 40.18 32.69 43.49L36.50 38.30C33.70 34.99 28.30 30.46 23.11 26.93C23.54 26.21 23.98 25.56 24.34 24.84L18.72 22.75C15.19 29.02 8.78 34.85 2.66 38.66C3.67 40.10 5.26 43.49 5.69 44.86C7.27 43.78 8.78 42.62 10.30 41.40L10.30 46.51L17.21 46.51L17.21 52.63L5.40 52.63L5.40 58.18L17.21 58.18L17.21 64.73L7.20 64.73L7.20 88.20L13.25 88.20L13.25 84.74L27.22 84.74L27.22 86.76L33.55 86.76L33.55 64.73L23.47 64.73L23.47 58.18L34.70 58.18L34.70 52.63L23.47 52.63ZM64.37 48.60L63.36 48.82L56.74 48.82L58.90 47.09C57.82 45.72 56.23 44.28 54.58 42.77C59.18 38.95 63.65 33.62 66.82 28.73L62.78 25.85L61.42 26.21L37.80 26.21L37.80 32.11L56.81 32.11C54.94 34.70 52.63 37.37 50.33 39.38C48.02 37.80 45.65 36.14 43.42 34.85L39.02 38.59C43.56 41.33 48.82 45.29 52.20 48.82L35.64 48.82L35.64 54.86L48.17 54.86L48.17 82.01C48.17 82.87 47.88 83.09 46.94 83.16C46.08 83.16 42.98 83.16 39.96 83.02C40.75 84.74 41.62 87.48 41.83 89.21C46.44 89.21 49.61 89.14 51.77 88.13C53.93 87.19 54.43 85.32 54.43 82.08L54.43 54.86L61.13 54.86C60.12 58.18 59.11 61.56 58.18 63.86L63.58 65.16C65.30 61.20 67.25 55.01 68.83 49.68Z"/></svg>
