<svg xmlns="http://www.w3.org/2000/svg" xmlns:xlink="http://www.w3.org/1999/xlink" width="72.00000000000001" height="106.56000000000002"><path fill="red" stroke="red" d="M20.16 40.75L26.78 40.75L26.78 34.56L34.70 34.56L34.70 28.73L26.78 28.73L26.78 23.18L20.16 23.18L20.16 28.73L4.39 28.73L4.39 34.56L20.16 34.56ZM7.56 45.00C11.66 47.38 17.57 50.90 20.45 52.99L24.41 48.02C21.38 45.94 15.34 42.70 11.30 40.61ZM20.16 60.26C17.06 58.39 11.09 55.37 6.91 53.57L3.17 58.10C7.49 60.26 13.39 63.43 16.34 65.38ZM9.58 88.56C14.90 83.23 21.02 76.82 25.99 70.92L22.32 65.59C16.70 71.93 9.72 78.84 4.97 82.80ZM68.18 53.35L68.18 47.30L51.62 47.30C50.40 45.22 48.74 42.70 47.23 40.61L51.70 40.61L51.70 34.56L67.54 34.56L67.54 28.73L51.70 28.73L51.70 23.18L45.00 23.18L45.00 28.73L37.22 28.73L37.22 34.56L45.00 34.56L45.00 40.25L40.61 42.12C41.69 43.70 42.84 45.50 43.85 47.30L25.13 47.30L25.13 53.35L30.67 53.35L30.67 75.89C30.67 83.38 33.26 86.18 41.62 86.18L58.03 86.18C61.27 86.18 64.94 86.11 66.53 85.61C66.24 84.17 65.95 81.58 65.74 79.78C64.01 80.14 60.19 80.35 57.67 80.35L41.54 80.35C38.30 80.35 37.44 79.13 37.44 76.03L37.44 53.35Z"/></svg>
