<svg xmlns="http://www.w3.org/2000/svg" xmlns:xlink="http://www.w3.org/1999/xlink" width="72.00000000000001" height="106.56000000000002"><path fill="red" stroke="red" d="M45.50 38.52L52.06 38.52L52.06 33.26L67.39 33.26L67.39 27.36L52.06 27.36L52.06 23.18L45.50 23.18L45.50 27.36L37.37 27.36L37.37 33.26L45.50 33.26ZM19.94 38.45L26.42 38.45L26.42 33.26L34.92 33.26L34.92 27.36L26.42 27.36L26.42 23.11L19.94 23.11L19.94 27.36L4.68 27.36L4.68 33.26L19.94 33.26ZM18.43 53.93L53.78 53.93L53.78 58.75L18.43 58.75ZM18.43 44.57L53.78 44.57L53.78 49.25L18.43 49.25ZM67.75 74.45L67.75 68.54L38.09 68.54C38.45 66.96 38.74 65.38 38.95 63.65L60.41 63.65L60.41 39.60L12.10 39.60L12.10 63.65L32.40 63.65C32.11 65.45 31.82 67.03 31.32 68.54L4.32 68.54L4.32 74.45L28.37 74.45C24.62 79.13 17.35 81.86 2.81 83.38C3.89 84.82 5.40 87.55 5.90 89.28C24.12 86.83 32.26 82.30 36.07 74.45L40.25 74.45L37.22 78.77C46.44 81.65 59.18 86.33 65.59 89.21L68.90 83.95C62.35 81.22 50.04 77.04 41.11 74.45Z"/></svg>
