<svg xmlns="http://www.w3.org/2000/svg" xmlns:xlink="http://www.w3.org/1999/xlink" width="72.00000000000001" height="106.56000000000002"><path fill="red" stroke="red" d="M18.50 37.08L24.98 37.08L24.98 32.62L33.91 32.62L33.91 27.50L24.98 27.50L24.98 23.11L18.50 23.11L18.50 27.50L4.03 27.50L4.03 32.62L18.50 32.62ZM32.98 69.91L32.98 74.02L17.50 74.02L17.50 69.91ZM54.86 74.02L39.02 74.02L39.02 69.91L54.86 69.91ZM39.02 82.58L39.02 78.05L54.86 78.05L54.86 82.58ZM17.50 82.58L17.50 78.05L32.98 78.05L32.98 82.58ZM10.94 89.06L17.50 89.06L17.50 87.12L54.86 87.12L54.86 89.06L61.70 89.06L61.70 65.45L10.94 65.45ZM30.82 35.50C31.46 36.79 32.26 38.30 32.83 39.74L5.26 39.74L5.26 45.14L25.20 45.14C21.46 47.23 17.71 48.74 16.20 49.25C14.40 49.90 12.82 50.33 11.45 50.47C12.10 51.62 12.96 54.00 13.25 54.94C14.69 54.58 16.78 54.22 29.02 53.57C23.76 55.44 19.37 56.95 17.14 57.46C13.18 58.61 10.44 59.33 7.99 59.47C8.64 60.77 9.43 63.29 9.72 64.22C12.67 63.43 16.92 63.36 56.88 61.63C58.39 62.93 59.69 64.15 60.55 65.30L65.52 62.28C62.64 59.11 56.66 54.43 51.41 51.34L46.66 53.86C48.46 54.94 50.26 56.23 52.06 57.60L27.86 58.46C35.86 56.02 44.14 52.92 52.42 48.89L45.79 46.22C43.92 47.23 41.90 48.10 39.89 49.03L25.49 49.68C28.44 48.38 31.46 46.87 34.42 45.14L67.25 45.14L67.25 39.74L40.10 39.74C39.46 38.02 38.30 35.86 37.22 34.20ZM54.14 27.43L54.14 23.11L47.66 23.11L47.66 27.43L37.58 27.43L37.58 32.54L47.66 32.54L47.66 37.08L54.14 37.08L54.14 32.54L67.68 32.54L67.68 27.43Z"/></svg>
