<svg xmlns="http://www.w3.org/2000/svg" xmlns:xlink="http://www.w3.org/1999/xlink" width="72.00000000000001" height="106.56000000000002"><path fill="red" stroke="red" d="M46.30 38.30L52.92 38.30L52.92 33.84L68.33 33.84L68.33 27.72L52.92 27.72L52.92 23.11L46.30 23.11L46.30 27.72L38.66 27.72L38.66 33.84L46.30 33.84ZM19.44 38.16L26.06 38.16L26.06 33.84L33.05 33.84L33.05 27.65L26.06 27.65L26.06 23.11L19.44 23.11L19.44 27.65L3.74 27.65L3.74 33.84L19.44 33.84ZM31.32 51.55C33.41 49.03 35.93 45.14 38.23 41.69L32.40 39.60C31.25 42.55 28.94 47.02 27.14 49.75ZM16.85 49.25C15.98 46.58 13.54 42.70 11.30 39.82L6.55 41.83C8.78 44.86 11.02 48.89 11.95 51.55ZM37.44 83.45L37.44 62.57C38.66 63.58 39.89 64.73 40.54 65.45C41.83 63.86 42.98 62.06 44.21 60.05C45.72 64.80 47.52 69.19 49.75 73.15C46.51 77.54 42.48 81.07 37.44 83.74ZM58.68 52.49C57.38 58.03 55.66 63.07 53.28 67.54C50.98 63.07 49.10 58.18 47.74 53.06L47.95 52.49ZM68.11 52.49L68.11 46.80L50.18 46.80C50.98 44.57 51.62 42.26 52.27 39.96L46.22 38.59C44.42 46.15 41.33 53.64 37.44 59.18L37.44 53.06L24.55 53.06L24.55 38.81L18.50 38.81L18.50 53.06L6.05 53.06L6.05 89.28L11.16 89.28L11.16 78.19C12.17 78.55 13.61 79.49 14.26 79.99C16.27 75.46 17.21 68.62 17.71 61.70L13.97 61.20C13.68 67.32 13.10 73.37 11.16 77.83L11.16 58.03L19.37 58.03L19.37 88.42L23.76 88.42L23.76 58.03L32.18 58.03L32.18 83.38C32.18 84.02 32.04 84.24 31.39 84.24C30.82 84.24 29.09 84.24 27.29 84.17C27.94 85.61 28.51 87.77 28.73 89.28C31.75 89.28 33.91 89.21 35.50 88.34C36.65 87.62 37.22 86.54 37.37 84.89C38.74 86.26 40.32 88.20 40.97 89.35C45.86 86.47 49.90 82.87 53.35 78.77C56.66 83.09 60.48 86.76 65.09 89.28C66.10 87.55 68.04 85.18 69.55 83.88C64.66 81.58 60.48 77.98 57.10 73.37C60.77 67.54 63.36 60.62 65.09 52.49ZM30.96 76.39C30.82 72.65 29.74 66.17 28.37 61.13L25.20 61.85C26.50 66.96 27.43 73.51 27.58 77.40Z"/></svg>
