<svg xmlns="http://www.w3.org/2000/svg" xmlns:xlink="http://www.w3.org/1999/xlink" width="72.00000000000001" height="106.56000000000002"><path fill="red" stroke="red" d="M47.74 37.51L54.36 37.51L54.36 33.55L67.75 33.55L67.75 28.08L54.36 28.08L54.36 23.04L47.74 23.04L47.74 28.08L37.37 28.08L37.37 33.55L47.74 33.55ZM31.32 52.92C27.50 52.92 26.78 52.56 26.78 50.76L26.78 39.96L20.45 39.96L20.45 50.76C20.45 56.88 22.46 58.61 30.74 58.61L44.06 58.61C50.47 58.61 52.34 56.66 53.14 48.31C51.48 47.88 48.82 47.02 47.38 46.01C47.02 52.06 46.51 52.92 43.56 52.92ZM26.06 63.86C28.08 67.39 30.24 72.22 30.96 75.46L35.21 73.80C34.34 70.70 32.26 65.95 30.10 62.35ZM25.42 70.27C24.55 67.10 22.18 62.28 19.80 58.75L15.98 60.19C18.22 63.86 20.52 68.69 21.31 71.78ZM11.45 56.09C14.18 52.63 16.34 46.87 17.64 42.19L12.46 40.25C11.16 44.78 8.93 50.40 5.98 53.93ZM57.67 70.63C56.52 67.54 53.71 62.78 51.41 59.26L47.16 60.77C49.54 64.37 52.13 69.34 53.21 72.43ZM64.15 51.05C62.35 47.52 58.18 42.41 54.58 38.81L49.75 41.40C53.42 45.29 57.46 50.62 59.11 54.14ZM42.91 45.79C41.47 43.06 37.94 38.95 35.14 36.07L30.46 38.59C33.34 41.69 36.50 45.94 37.94 48.67ZM18.14 37.44L24.77 37.44L24.77 33.55L34.56 33.55L34.56 28.08L24.77 28.08L24.77 23.04L18.14 23.04L18.14 28.08L4.46 28.08L4.46 33.55L18.14 33.55ZM6.62 83.45C8.14 79.56 9.29 73.15 9.94 68.54L5.83 67.18C5.26 71.71 3.96 78.05 2.30 82.01ZM19.15 83.66C18.29 83.66 17.64 83.52 17.21 83.30C16.70 83.02 16.63 82.37 16.63 81.22L16.63 65.02L11.38 65.02L11.38 80.71C11.38 84.82 11.95 86.11 13.25 86.98C14.47 87.91 16.42 88.27 18.22 88.27L23.26 88.27C24.55 88.27 26.57 88.06 27.58 87.70C28.94 87.26 29.81 86.47 30.31 85.25C30.89 84.10 31.18 81.07 31.25 78.26C29.74 77.83 27.79 76.82 26.64 75.89C26.57 78.70 26.50 80.93 26.28 81.94C26.06 82.73 25.63 83.23 25.13 83.38C24.62 83.59 23.69 83.66 22.82 83.66ZM38.23 83.81C39.46 79.70 40.25 72.94 40.75 67.97L36.58 66.74C36.14 71.71 35.21 78.19 33.91 82.15ZM50.33 83.74C49.39 83.74 48.67 83.66 48.24 83.45C47.74 83.16 47.59 82.51 47.59 81.29L47.59 65.09L42.19 65.09L42.19 80.78C42.19 85.03 42.84 86.18 44.06 87.12C45.36 88.06 47.38 88.42 49.25 88.42L54.43 88.42C55.87 88.42 57.89 88.20 59.04 87.77C60.41 87.26 61.27 86.40 61.78 85.18C62.35 83.88 62.64 80.57 62.71 77.54C61.27 77.04 59.33 76.10 58.25 75.24C58.18 78.34 58.03 80.71 57.82 81.79C57.60 82.73 57.10 83.23 56.59 83.45C56.09 83.66 55.08 83.74 54.14 83.74ZM60.05 65.30C62.35 69.70 64.73 75.67 65.52 79.56L69.91 77.90C69.05 74.02 66.67 68.18 64.22 63.72Z"/></svg>
