<svg xmlns="http://www.w3.org/2000/svg" xmlns:xlink="http://www.w3.org/1999/xlink" width="72.00000000000001" height="106.56000000000002"><path fill="red" stroke="red" d="M20.09 35.78L26.71 35.78L26.71 32.54L35.06 32.54L35.06 27.43L26.71 27.43L26.71 23.11L20.09 23.11L20.09 27.43L4.68 27.43L4.68 32.54L20.09 32.54ZM14.47 42.41L67.32 42.41L67.32 37.37L40.75 37.37C39.67 36.00 38.30 34.42 37.22 33.12L30.74 34.42C31.54 35.28 32.26 36.29 33.05 37.37L8.28 37.37L8.28 55.01C8.28 64.15 7.78 76.82 2.81 85.90C4.32 86.47 7.06 88.20 8.28 89.28C13.61 79.56 14.47 65.02 14.47 55.08ZM54.58 63.14L54.58 50.33L65.23 50.33L65.23 46.22L54.58 46.22L54.58 43.42L49.61 43.42L49.61 46.22L41.33 46.22L41.33 50.33L49.61 50.33L49.61 63.14ZM46.73 51.91L42.70 51.91L42.70 54.50C42.70 55.73 42.41 58.54 40.46 60.41C40.39 59.76 40.39 59.04 40.32 58.46C39.74 58.61 38.95 58.68 38.45 58.68C37.94 58.61 37.87 58.25 37.87 57.17L37.87 51.98L33.98 51.98L33.98 57.17C33.98 60.19 34.49 61.63 37.44 61.63L38.30 61.63C39.10 61.63 40.03 61.56 40.61 61.42L40.54 60.98C41.47 61.70 42.62 62.71 43.20 63.43C46.30 60.98 46.73 56.95 46.73 54.65ZM31.03 63.07L31.03 50.33L39.67 50.33L39.67 46.22L31.03 46.22L31.03 43.42L26.14 43.42L26.14 46.22L17.28 46.22L17.28 50.33L26.14 50.33L26.14 63.07ZM23.26 51.91L19.15 51.91L19.15 54.50C19.15 55.94 18.79 59.26 15.05 61.20C15.98 61.85 17.35 63.07 18.07 63.94C22.61 61.27 23.26 57.17 23.26 54.72ZM55.94 82.08L31.10 82.08L31.10 77.33L55.94 77.33ZM16.70 69.26L27.86 69.26C24.26 73.87 19.01 77.62 13.32 79.99C14.62 81.00 16.85 83.23 17.71 84.38C20.30 83.02 22.75 81.43 25.20 79.63L25.20 89.06L31.10 89.06L31.10 86.83L55.94 86.83L55.94 88.70L62.14 88.70L62.14 72.58L32.47 72.58C33.26 71.50 34.06 70.42 34.78 69.26L66.74 69.26L66.74 64.58L16.70 64.58ZM62.50 59.11C61.70 59.11 61.56 58.75 61.56 57.60L61.56 51.77L57.60 51.77L57.60 57.53C57.60 60.62 58.25 62.06 61.49 62.06L64.51 62.06C65.66 62.06 66.89 62.06 67.39 61.85C67.32 60.84 67.32 59.76 67.25 58.82C66.53 59.04 65.16 59.11 64.44 59.11ZM51.77 27.43L51.77 23.11L45.14 23.11L45.14 27.43L37.30 27.43L37.30 32.54L45.14 32.54L45.14 35.78L51.77 35.78L51.77 32.54L67.61 32.54L67.61 27.43Z"/></svg>
