<svg xmlns="http://www.w3.org/2000/svg" xmlns:xlink="http://www.w3.org/1999/xlink" width="72.00000000000001" height="106.56000000000002"><path fill="red" stroke="red" d="M68.47 47.52L53.86 47.52L53.86 38.45L66.53 38.45L66.53 32.26L53.86 32.26L53.86 23.40L47.23 23.40L47.23 32.26L34.92 32.26L34.92 38.45L47.23 38.45L47.23 47.52L32.26 47.52L32.26 53.71L68.47 53.71ZM10.51 41.54L15.19 41.54L15.19 57.02L10.51 57.02ZM24.77 57.02L20.16 57.02L20.16 41.54L24.77 41.54ZM54.00 80.42L54.00 69.84L67.39 69.84L67.39 63.58L54.00 63.58L54.00 55.44L47.38 55.44L47.38 63.58L33.91 63.58L33.91 69.84L47.38 69.84L47.38 80.42L33.12 80.42C32.04 75.89 30.17 70.34 28.30 65.74L23.11 67.39C23.98 69.55 24.91 72.07 25.70 74.59L20.59 75.38L20.59 62.57L30.10 62.57L30.10 36.07L20.66 36.07L20.66 23.40L14.62 23.40L14.62 36.07L5.26 36.07L5.26 65.66L10.51 65.66L10.51 62.57L14.62 62.57L14.62 76.32C10.22 77.04 6.19 77.62 2.95 78.05L3.96 84.46C10.51 83.30 19.08 81.86 27.36 80.35C27.79 82.08 28.15 83.59 28.37 85.03L31.25 84.10L31.25 86.90L69.19 86.90L69.19 80.42Z"/></svg>
