<svg xmlns="http://www.w3.org/2000/svg" xmlns:xlink="http://www.w3.org/1999/xlink" width="72.00000000000001" height="106.56000000000002"><path fill="red" stroke="red" d="M60.77 46.22C57.38 50.26 52.27 55.15 47.59 58.97C45.00 53.57 43.34 47.59 42.12 40.82L67.54 40.82L67.54 34.42L37.15 34.42L41.83 32.83C41.04 30.10 39.02 25.85 37.22 22.61L30.38 24.70C31.97 27.72 33.62 31.61 34.34 34.42L4.61 34.42L4.61 40.82L29.52 40.82C23.18 48.89 13.03 56.59 2.52 61.06C3.74 62.50 5.54 65.23 6.34 66.96C10.51 64.94 14.54 62.64 18.36 60.05L18.36 76.90C18.36 80.50 15.62 82.87 14.04 83.95C15.19 85.03 16.99 87.62 17.57 88.99C19.66 87.62 22.68 86.54 44.57 79.63C44.14 78.12 43.42 75.38 43.13 73.51L25.13 78.84L25.13 54.79C29.23 51.34 32.90 47.52 36.07 43.56C39.67 62.28 46.37 75.60 64.94 87.34C65.74 85.25 67.90 82.73 69.62 81.36C60.91 76.46 54.94 70.92 50.69 64.51C55.80 60.48 61.85 55.22 66.46 50.33Z"/></svg>
