<svg xmlns="http://www.w3.org/2000/svg" xmlns:xlink="http://www.w3.org/1999/xlink" width="72.00000000000001" height="106.56000000000002"><path fill="red" stroke="red" d="M66.17 38.81L39.24 38.81L39.24 33.77L61.06 33.77L61.06 28.51L39.24 28.51L39.24 23.18L32.62 23.18L32.62 28.51L11.02 28.51L11.02 33.77L32.62 33.77L32.62 38.81L5.40 38.81L5.40 44.06L66.17 44.06ZM19.94 53.21L52.06 53.21L52.06 59.62L19.94 59.62ZM59.83 64.08C56.88 66.82 52.06 70.42 48.02 73.01C45.58 70.56 43.56 67.82 41.90 64.80L58.75 64.80L58.75 48.10L13.54 48.10L13.54 64.80L27.50 64.80C20.81 68.83 11.23 72.07 2.45 73.58C3.74 74.88 5.47 77.26 6.34 78.84C10.66 77.83 15.12 76.46 19.44 74.66L19.44 79.85C19.44 82.58 17.35 83.59 15.84 84.10C16.78 85.46 17.71 88.27 18.00 89.93L18.00 89.86C19.66 88.99 22.25 88.42 40.68 84.02C40.46 82.73 40.46 80.14 40.54 78.41L25.78 81.72L25.78 71.71C29.52 69.77 32.90 67.54 35.64 65.16C41.33 77.33 51.05 85.46 65.23 89.06C66.10 87.34 67.82 84.74 69.19 83.45C62.71 82.08 57.10 79.78 52.49 76.61C56.52 74.23 61.27 71.06 65.09 68.11Z"/></svg>
