<svg xmlns="http://www.w3.org/2000/svg" xmlns:xlink="http://www.w3.org/1999/xlink" width="72.00000000000001" height="106.56000000000002"><path fill="red" stroke="red" d="M21.10 32.33C20.16 29.81 18.29 25.92 16.49 22.97L10.73 25.06C12.46 28.08 14.33 32.18 15.12 34.78ZM29.74 35.14L3.10 35.14L3.10 40.82L29.74 40.82ZM21.38 69.34L21.38 79.63L11.59 79.63L11.59 69.34ZM27.14 63.94L5.83 63.94L5.83 88.27L11.59 88.27L11.59 85.03L27.14 85.03ZM5.83 59.69L27.14 59.69L27.14 54.29L5.83 54.29ZM5.83 50.11L27.14 50.11L27.14 44.71L5.83 44.71ZM54.29 32.69L54.29 50.26L40.10 50.26C41.18 44.86 42.34 38.38 43.27 32.69ZM68.90 50.26L60.84 50.26L60.84 32.69L67.54 32.69L67.54 26.21L31.25 26.21L31.25 32.69L36.50 32.69C35.21 40.82 33.34 50.54 31.75 56.66L49.46 56.66C44.64 66.17 36.72 75.53 28.87 80.50C30.38 81.65 32.54 84.10 33.70 85.75C41.54 80.21 49.03 70.85 54.29 60.62L54.29 80.64C54.29 81.94 53.78 82.30 52.56 82.30C51.34 82.37 47.23 82.37 42.91 82.22C43.85 84.17 44.86 87.26 45.07 89.06C51.05 89.06 55.15 88.85 57.60 87.77C59.98 86.69 60.84 84.67 60.84 80.64L60.84 56.66L68.90 56.66Z"/></svg>
