<svg xmlns="http://www.w3.org/2000/svg" xmlns:xlink="http://www.w3.org/1999/xlink" width="72.00000000000001" height="106.56000000000002"><path fill="red" stroke="red" d="M21.10 32.54C20.23 29.88 18.36 26.06 16.56 23.04L10.94 24.84C12.60 27.86 14.47 31.97 15.26 34.63ZM29.45 35.14L3.24 35.14L3.24 40.46L29.45 40.46ZM26.50 49.97L26.50 44.71L5.98 44.71L5.98 49.97ZM26.57 54.22L5.98 54.22L5.98 59.40L26.57 59.40ZM21.17 79.63L11.95 79.63L11.95 69.34L21.17 69.34ZM26.57 63.94L6.26 63.94L6.26 88.27L11.95 88.27L11.95 85.03L26.57 85.03ZM56.38 52.20L68.47 52.20L68.47 46.01L39.82 46.01L39.82 34.56C48.82 33.12 58.68 30.89 65.88 28.22L60.05 23.26C53.86 25.92 42.84 28.44 33.26 29.95L33.26 54.14C33.26 63.72 32.76 76.32 26.57 84.96C28.15 85.75 30.89 87.91 31.97 89.21C38.81 79.78 39.82 64.73 39.82 54.14L39.82 52.20L49.97 52.20L49.97 89.21L56.38 89.21L56.38 66.82C59.76 69.91 63.14 73.08 65.16 75.38L69.05 70.49C66.24 67.61 60.77 62.93 56.38 59.18Z"/></svg>
