<svg xmlns="http://www.w3.org/2000/svg" xmlns:xlink="http://www.w3.org/1999/xlink" width="72.00000000000001" height="106.56000000000002"><path fill="red" stroke="red" d="M27.65 34.99L17.14 34.99L20.59 33.12C19.66 30.53 17.42 26.86 15.12 24.26L10.15 26.86C12.02 29.23 13.90 32.47 14.83 34.99L2.95 34.99L2.95 40.32L27.65 40.32ZM25.49 44.78L6.05 44.78L6.05 50.04L25.49 50.04ZM6.05 59.62L25.49 59.62L25.49 54.36L6.05 54.36ZM20.02 69.48L20.02 79.92L11.38 79.92L11.38 69.48ZM25.56 64.15L5.90 64.15L5.90 88.34L11.38 88.34L11.38 85.18L25.56 85.18ZM53.78 34.42C52.78 36.72 51.62 39.24 50.40 41.18L37.80 41.18C39.17 39.10 40.46 36.79 41.62 34.42ZM68.98 47.02L68.98 41.18L57.24 41.18C58.97 37.94 60.62 34.27 61.78 31.10L57.60 28.73L56.66 29.02L44.21 29.02C44.78 27.58 45.29 26.14 45.79 24.62L39.38 23.11C36.58 31.75 31.68 40.03 25.85 45.36C27.29 46.37 29.95 48.53 31.03 49.68L31.97 48.74L31.97 57.17C31.97 65.81 31.32 77.40 25.63 85.68C27.07 86.40 29.81 88.13 30.89 89.21C37.08 80.21 38.09 66.74 38.09 57.17L38.09 47.02ZM51.34 82.80C48.60 82.80 48.17 82.30 48.17 79.92L48.17 57.96L59.62 57.96L59.62 67.54C59.62 68.26 59.40 68.47 58.61 68.47C57.89 68.54 55.66 68.54 53.06 68.40C53.86 69.91 54.72 72.14 55.01 73.73C58.90 73.73 61.42 73.66 63.29 72.72C65.09 71.86 65.59 70.27 65.59 67.68L65.59 52.34L42.12 52.34L42.12 79.99C42.12 86.76 43.99 88.49 50.54 88.49L61.06 88.49C66.60 88.49 68.33 86.04 69.05 77.33C67.39 76.97 64.87 75.89 63.58 74.88C63.29 81.50 62.86 82.80 60.55 82.80Z"/></svg>
