<svg xmlns="http://www.w3.org/2000/svg" xmlns:xlink="http://www.w3.org/1999/xlink" width="72.00000000000001" height="106.56000000000002"><path fill="red" stroke="red" d="M29.88 35.14L16.20 35.14L21.53 32.18C20.38 29.59 18.14 25.78 16.13 22.75L10.94 25.42C12.89 28.37 15.05 32.47 16.06 35.14L3.10 35.14L3.10 40.46L29.88 40.46ZM27.36 44.71L6.05 44.71L6.05 49.97L27.36 49.97ZM6.05 59.40L27.36 59.40L27.36 54.22L6.05 54.22ZM21.96 69.34L21.96 79.63L11.74 79.63L11.74 69.34ZM27.79 63.94L5.98 63.94L5.98 88.27L11.74 88.27L11.74 85.03L27.79 85.03ZM40.25 69.70L49.75 69.70L49.75 78.12L40.25 78.12ZM49.75 49.82L40.25 49.82L40.25 42.05L49.75 42.05ZM49.75 63.72L40.25 63.72L40.25 55.87L49.75 55.87ZM68.47 78.12L55.80 78.12L55.80 69.70L66.17 69.70L66.17 63.72L55.80 63.72L55.80 55.87L66.10 55.87L66.10 49.82L55.80 49.82L55.80 42.05L67.54 42.05L67.54 36.00L52.42 36.00L57.96 33.41C57.02 30.67 54.94 26.64 53.14 23.47L47.52 25.85C49.18 29.02 51.19 33.26 52.06 36.00L41.98 36.00C43.56 32.40 45.00 28.80 46.08 25.34L39.74 23.47C37.58 31.61 32.98 42.19 27.72 48.74C28.73 50.33 30.10 53.35 30.74 55.08C31.97 53.64 33.05 52.06 34.20 50.40L34.20 89.35L40.25 89.35L40.25 84.31L68.54 84.31Z"/></svg>
