<svg xmlns="http://www.w3.org/2000/svg" xmlns:xlink="http://www.w3.org/1999/xlink" width="72.00000000000001" height="106.56000000000002"><path fill="red" stroke="red" d="M20.02 32.40C19.08 29.88 17.14 25.99 15.34 22.97L9.79 25.06C11.52 28.08 13.39 32.18 14.18 34.78ZM26.86 35.14L3.02 35.14L3.02 40.54L26.86 40.54ZM19.22 69.34L19.22 79.63L11.16 79.63L11.16 69.34ZM24.48 63.94L5.76 63.94L5.76 88.27L11.16 88.27L11.16 85.03L24.48 85.03ZM5.83 59.40L24.48 59.40L24.48 54.22L5.83 54.22ZM5.83 49.97L24.48 49.97L24.48 44.71L5.83 44.71ZM34.78 69.77C34.85 68.18 34.85 66.60 34.85 65.23L34.85 64.87L42.98 64.87L42.98 69.77ZM42.98 55.22L42.98 59.98L34.85 59.98L34.85 55.22ZM48.10 49.97L29.59 49.97L29.59 65.09C29.59 71.50 29.16 79.85 25.49 86.04C26.71 86.54 29.02 88.20 29.95 89.21C32.47 85.10 33.70 79.78 34.34 74.74L42.98 74.74L42.98 82.94C42.98 83.66 42.77 83.81 42.12 83.88C41.47 83.88 39.46 83.88 37.30 83.81C38.02 85.25 38.66 87.48 38.88 88.85C42.05 88.85 44.42 88.85 46.01 87.91C47.66 87.05 48.10 85.54 48.10 83.02ZM60.91 82.51C60.91 83.38 60.62 83.59 59.76 83.59C58.82 83.59 56.09 83.66 52.99 83.52C53.78 85.03 54.43 87.48 54.65 88.92C58.90 88.92 61.92 88.78 63.72 87.91C65.59 86.98 66.17 85.39 66.17 82.51L66.17 48.38L60.91 48.38ZM56.45 50.54L51.48 50.54L51.48 77.26L56.45 77.26ZM38.23 40.46C41.47 37.73 44.50 34.63 47.16 31.25C50.11 34.56 53.78 37.80 57.53 40.46ZM46.08 22.54C41.83 30.17 33.55 37.94 25.56 41.76C26.86 42.84 28.73 44.93 29.66 46.44C31.54 45.36 33.55 44.06 35.42 42.70L35.42 45.43L58.75 45.43L58.75 41.40C61.06 42.98 63.29 44.35 65.45 45.43C66.38 43.92 68.26 41.76 69.70 40.61C62.93 37.66 55.08 32.11 50.47 26.57C50.83 25.92 51.26 25.27 51.62 24.70Z"/></svg>
