<svg xmlns="http://www.w3.org/2000/svg" xmlns:xlink="http://www.w3.org/1999/xlink" width="72.00000000000001" height="106.56000000000002"><path fill="red" stroke="red" d="M18.43 69.34L18.43 79.63L10.08 79.63L10.08 69.34ZM23.18 63.94L5.40 63.94L5.40 88.27L10.08 88.27L10.08 85.03L23.18 85.03ZM5.54 59.40L22.82 59.40L22.82 54.22L5.54 54.22ZM22.82 44.71L5.54 44.71L5.54 49.97L22.82 49.97ZM18.00 32.18C17.14 29.52 15.26 25.70 13.61 22.75L9.50 25.34C11.02 28.30 12.89 32.47 13.68 35.14L3.10 35.14L3.10 40.46L24.77 40.46L24.77 35.14L13.75 35.14ZM39.60 30.67L39.60 34.78L32.11 34.78L32.11 30.67ZM32.11 43.20L32.11 39.02L39.60 39.02L39.60 43.20ZM44.78 47.95L44.78 25.92L26.71 25.92L26.71 89.21L32.11 89.21L32.11 47.95ZM51.41 69.41C52.20 68.11 53.14 66.46 54.22 64.58L51.19 63.43C50.83 64.66 49.90 66.96 49.18 68.40ZM39.67 64.37C40.46 65.88 41.26 67.90 41.54 69.26L44.21 68.11C43.85 66.89 42.98 64.87 42.19 63.43ZM53.35 43.20L53.35 39.02L61.34 39.02L61.34 43.20ZM61.34 30.67L61.34 34.78L53.35 34.78L53.35 30.67ZM38.74 62.50L45.00 62.50L45.00 69.77L38.74 69.77ZM54.65 69.77L48.24 69.77L48.24 62.50L54.65 62.50ZM66.96 25.92L48.10 25.92L48.10 47.95L61.34 47.95L61.34 82.87C61.34 83.66 61.13 83.95 60.41 83.95C59.90 83.95 58.75 83.95 57.31 83.95L59.69 81.14C58.46 79.85 52.78 75.38 51.19 74.30L48.89 75.96L48.89 73.15L58.39 73.15L58.39 59.11L48.89 59.11L48.89 56.38L58.97 56.38L58.97 52.27L48.89 52.27L48.89 48.82L44.28 48.82L44.28 52.27L34.34 52.27L34.34 56.38L44.28 56.38L44.28 59.11L35.14 59.11L35.14 73.15L42.05 73.15C39.67 76.75 36.14 80.35 32.98 82.30C33.91 83.09 35.35 84.67 36.14 85.75C38.81 83.74 41.83 80.57 44.28 77.18L44.28 87.26L48.89 87.26L48.89 76.82C50.90 78.62 54.65 82.44 56.16 84.53C56.81 85.97 57.31 87.91 57.53 89.14C60.91 89.21 63.22 89.06 64.87 88.13C66.46 87.12 66.96 85.68 66.96 82.94Z"/></svg>
