<svg xmlns="http://www.w3.org/2000/svg" xmlns:xlink="http://www.w3.org/1999/xlink" width="72.00000000000001" height="106.56000000000002"><path fill="red" stroke="red" d="M15.41 78.41C12.60 81.07 7.85 83.59 3.38 85.32C4.90 86.33 7.34 88.20 8.50 89.35C12.82 87.34 18.07 83.88 21.38 80.57ZM5.76 51.62L41.90 51.62L41.90 47.52L5.76 47.52ZM9.43 40.54L9.43 44.50L38.30 44.50L38.30 40.54ZM14.18 70.85L33.55 70.85L33.55 74.16L14.18 74.16ZM14.18 64.44L33.55 64.44L33.55 67.61L14.18 67.61ZM14.18 58.18L33.55 58.18L33.55 61.20L14.18 61.20ZM39.74 77.54L39.74 54.72L8.28 54.72L8.28 77.54ZM26.50 81.22C30.38 83.59 35.50 87.12 37.94 89.28L43.06 86.04C40.32 83.81 35.14 80.50 31.25 78.26ZM68.04 37.66L68.04 32.11L62.64 32.11L65.59 29.16C63.50 27.29 59.54 24.70 56.30 22.97L52.63 26.42C55.37 28.01 58.54 30.31 60.70 32.11L50.33 32.11C50.33 29.23 50.26 26.28 50.33 23.33L43.63 23.33C43.63 26.28 43.70 29.23 43.78 32.11L4.10 32.11L4.10 37.66L43.92 37.66C45.07 65.88 49.46 89.21 61.06 89.21C66.46 89.21 68.62 86.04 69.55 74.81C67.97 74.16 65.74 72.72 64.30 71.21C64.01 79.34 63.22 82.58 61.70 82.58C55.73 82.58 51.41 63.07 50.47 37.66Z"/></svg>
