<svg xmlns="http://www.w3.org/2000/svg" xmlns:xlink="http://www.w3.org/1999/xlink" width="72.00000000000001" height="106.56000000000002"><path fill="red" stroke="red" d="M62.06 25.34C60.98 28.94 58.82 34.13 57.02 37.30L62.06 38.74C63.79 35.78 65.95 31.10 67.82 26.93ZM58.32 52.70C55.30 51.26 49.54 49.39 45.29 48.38L42.98 52.13C47.38 53.35 52.99 55.37 56.09 56.95ZM59.04 58.25C52.78 59.90 46.80 61.42 42.55 62.35C42.62 60.77 42.62 59.26 42.62 57.89L42.62 45.29L59.04 45.29ZM47.81 40.25L36.79 40.25L36.79 57.82C36.79 63.29 36.65 69.91 34.42 74.88C35.64 75.60 38.16 77.69 39.10 78.84C41.40 74.45 42.26 68.33 42.55 62.64L44.50 67.82C48.89 66.38 53.86 64.58 59.04 62.78L59.04 71.06C59.04 71.86 58.82 72.14 57.89 72.22C57.10 72.22 54.36 72.22 51.48 72.07C52.34 73.66 52.99 76.10 53.28 77.69C57.53 77.76 60.62 77.69 62.71 76.75C64.73 75.82 65.38 74.16 65.38 71.14L65.38 40.25L53.93 40.25L53.93 23.11L47.81 23.11ZM44.78 36.65C44.14 33.48 42.19 28.87 39.96 25.34L34.99 26.93C37.15 30.53 38.88 35.35 39.46 38.52ZM23.90 65.88L33.91 65.88L33.91 60.05L23.90 60.05L23.90 50.98L34.49 50.98L34.49 45.00L23.18 45.00L23.18 37.22L32.90 37.22L32.90 31.39L23.18 31.39L23.18 23.26L17.06 23.26L17.06 31.39L6.12 31.39L6.12 37.22L17.06 37.22L17.06 45.00L3.96 45.00L3.96 50.98L17.86 50.98L17.86 74.59C15.70 72.36 14.04 69.55 12.60 65.88C12.82 62.71 12.96 59.33 13.03 55.87L7.27 55.58C7.13 67.97 6.48 78.98 2.02 85.82C3.38 86.54 5.83 88.56 6.84 89.50C9.22 85.61 10.73 80.64 11.59 75.10C17.86 85.68 27.86 87.62 42.55 87.62L66.96 87.62C67.32 85.68 68.40 82.66 69.48 81.14C64.58 81.36 46.58 81.36 42.55 81.36C35.14 81.36 28.94 80.93 23.90 78.77Z"/></svg>
