<svg xmlns="http://www.w3.org/2000/svg" xmlns:xlink="http://www.w3.org/1999/xlink" width="72.00000000000001" height="106.56000000000002"><path fill="red" stroke="red" d="M11.16 31.82L22.10 31.82L22.10 42.77L11.16 42.77ZM20.38 74.52L20.38 63.43L28.30 63.43L28.30 57.53L20.38 57.53L20.38 48.60L28.01 48.60L28.01 26.06L5.62 26.06L5.62 48.60L14.90 48.60L14.90 76.18L10.94 77.26L10.94 54.58L5.83 54.58L5.83 78.70L2.74 79.56L4.25 85.75C11.45 83.52 21.10 80.50 30.17 77.54L29.38 71.86ZM40.97 31.97L39.96 32.11L29.81 32.11L29.81 37.80L37.73 37.80C35.71 44.21 32.11 49.39 27.58 52.06C28.87 53.14 30.46 55.08 31.25 56.45C38.23 52.13 42.91 44.28 44.71 32.98ZM59.04 64.73L59.04 70.34L39.24 70.34L39.24 64.73ZM39.24 81.22L39.24 75.24L59.04 75.24L59.04 81.22ZM33.05 89.14L39.24 89.14L39.24 86.69L59.04 86.69L59.04 88.85L65.52 88.85L65.52 59.26L33.05 59.26ZM63.22 28.66C61.34 30.96 58.46 33.98 55.73 36.43C54.36 33.55 53.14 30.38 52.20 27.14L52.20 23.26L46.15 23.26L46.15 51.34C46.15 52.06 45.94 52.27 45.14 52.27C44.42 52.34 41.90 52.34 39.31 52.27C40.03 53.86 40.82 56.30 40.97 57.89C45.00 57.89 47.81 57.82 49.82 56.88C51.70 55.94 52.20 54.36 52.20 51.41L52.20 40.10C55.44 47.23 59.90 52.99 66.10 56.16C67.03 54.43 68.90 51.98 70.20 50.76C65.38 48.96 61.49 45.50 58.46 41.11C61.56 38.81 65.16 35.78 68.40 32.90Z"/></svg>
