<svg xmlns="http://www.w3.org/2000/svg" xmlns:xlink="http://www.w3.org/1999/xlink" width="72.00000000000001" height="106.56000000000002"><path fill="red" stroke="red" d="M69.98 46.87C68.47 43.85 65.45 39.31 62.50 35.35C63.36 31.82 64.01 27.94 64.37 23.76L58.97 23.33C58.18 33.12 56.16 41.54 51.12 46.80C52.27 47.74 54.29 49.75 55.08 50.76C57.38 48.24 59.18 45.14 60.55 41.62C62.78 44.93 64.87 48.46 66.10 50.98ZM54.22 39.74C53.57 38.95 51.34 36.36 49.75 34.49C50.47 31.18 51.05 27.65 51.48 23.98L45.94 23.33C44.93 33.26 42.84 42.34 38.30 48.10C39.53 49.03 41.62 50.98 42.41 51.98C44.86 48.82 46.73 44.86 48.17 40.25C49.32 42.12 50.40 44.06 50.98 45.36ZM10.87 31.82L19.30 31.82L19.30 42.91L10.87 42.91ZM34.49 38.95C32.62 45.22 28.94 52.78 24.77 58.25L18.94 58.25L18.94 48.67L24.70 48.67L24.70 39.74C25.70 40.82 26.93 42.34 27.58 43.27C32.26 38.59 36.72 31.32 39.46 24.84L33.91 23.18C32.11 28.08 28.51 34.13 24.70 38.30L24.70 25.99L5.69 25.99L5.69 48.67L13.61 48.67L13.61 76.68L10.30 77.47L10.30 54.65L5.33 54.65L5.33 78.62L2.52 79.20L3.82 85.25C10.30 83.59 18.86 81.36 26.93 79.20L26.28 73.58L18.94 75.38L18.94 63.94L25.20 63.94L25.20 61.49C25.85 62.35 26.50 63.29 26.86 63.86C28.15 62.35 29.38 60.70 30.60 58.90L30.60 89.06L36.00 89.06L36.00 49.46C37.44 46.44 38.74 43.42 39.82 40.61ZM58.10 68.18L67.61 68.18L67.61 62.50L58.10 62.50L58.10 50.90L52.34 50.90L52.34 79.49C50.18 77.33 48.46 73.73 47.30 67.82C47.74 63.94 47.88 60.19 48.02 56.95L42.41 56.81C42.34 65.52 41.83 78.84 36.43 85.90C37.58 86.62 39.46 88.27 40.46 89.21C42.77 86.33 44.35 82.51 45.43 78.26C48.89 86.33 54.00 88.20 60.55 88.20L67.97 88.20C68.18 86.62 68.98 83.88 69.70 82.44C67.82 82.51 62.42 82.58 61.13 82.58C60.12 82.58 59.04 82.51 58.10 82.37Z"/></svg>
