<svg xmlns="http://www.w3.org/2000/svg" xmlns:xlink="http://www.w3.org/1999/xlink" width="72.00000000000001" height="106.56000000000002"><path fill="red" stroke="red" d="M53.71 35.57L40.82 35.57L40.82 29.88L53.71 29.88ZM60.05 25.06L34.85 25.06L34.85 40.32L60.05 40.32ZM10.37 31.54L20.95 31.54L20.95 42.55L10.37 42.55ZM26.86 72.65C24.34 73.51 21.74 74.38 19.30 75.17L19.30 63.79L26.28 63.79L26.28 58.10L19.30 58.10L19.30 48.02L26.35 48.02L26.35 26.06L5.18 26.06L5.18 48.02L13.90 48.02L13.90 76.97L9.86 78.34L9.86 54.65L4.75 54.65L4.75 79.85L2.66 80.50L4.03 86.47C10.87 84.17 19.66 81.07 27.94 78.12ZM36.50 71.42C33.70 75.60 29.45 80.28 25.49 83.45C26.78 84.38 29.16 86.47 30.17 87.62C34.13 84.02 38.95 78.34 42.34 73.37ZM40.82 54.43L33.55 54.43L33.55 47.95L40.82 47.95ZM53.71 47.95L61.49 47.95L61.49 54.43L53.71 54.43ZM67.82 69.62L67.82 64.08L50.62 64.08L50.62 59.26L66.74 59.26L66.74 43.13L48.60 43.13L48.60 58.68L46.15 58.68L46.15 43.13L28.51 43.13L28.51 59.26L44.50 59.26L44.50 64.08L27.36 64.08L27.36 69.62L44.50 69.62L44.50 89.14L50.62 89.14L50.62 69.62ZM52.85 74.38C57.02 78.34 61.92 83.74 64.15 87.34L68.83 83.66C66.60 80.14 61.56 74.88 57.38 71.14Z"/></svg>
