<svg xmlns="http://www.w3.org/2000/svg" xmlns:xlink="http://www.w3.org/1999/xlink" width="72.00000000000001" height="106.56000000000002"><path fill="red" stroke="red" d="M12.53 55.37L22.68 55.37L22.68 59.69C19.22 60.34 15.70 60.91 12.53 61.42ZM22.68 40.68L12.53 40.68L12.53 35.78L22.68 35.78ZM22.68 50.47L12.53 50.47L12.53 45.58L22.68 45.58ZM44.42 81.22C40.32 81.22 38.95 79.63 38.95 75.17L38.95 32.90L67.97 32.90L67.97 27.58L30.74 27.58L30.74 32.90L33.48 32.90L33.48 55.66L28.58 53.78L28.51 53.93L28.51 30.53L18.94 30.53C20.02 28.58 21.17 26.14 22.18 23.90L15.05 23.04C14.62 25.20 13.82 28.08 12.96 30.53L6.91 30.53L6.91 62.42C5.54 62.64 4.39 62.86 3.24 63.00L4.25 68.83C8.71 67.90 14.18 66.89 19.80 65.95C14.54 71.71 8.42 76.82 2.38 80.50C3.53 81.65 5.26 84.31 5.98 85.46C11.59 81.58 17.50 76.54 22.68 70.78L22.68 81.94C22.68 82.87 22.39 83.23 21.46 83.23C20.52 83.23 17.64 83.30 14.69 83.16C15.48 84.67 16.34 87.34 16.63 88.92C21.10 88.92 24.05 88.78 25.99 87.77C27.86 86.83 28.51 85.03 28.51 82.01L28.51 63.65C30.31 61.27 31.97 58.82 33.48 56.30L33.48 74.81C33.48 83.52 36.65 86.47 44.71 86.47L61.49 86.47C64.94 86.47 68.33 86.33 69.77 85.90C69.41 84.60 69.12 82.08 68.98 80.64C67.32 81.00 64.15 81.22 61.78 81.22ZM57.96 49.10L49.82 49.10L49.82 40.32L57.96 40.32ZM63.22 36.14L44.78 36.14L44.78 53.28L63.22 53.28ZM44.71 60.91L49.03 60.91L49.03 72.50L44.71 72.50ZM41.04 76.68L52.70 76.68L52.70 56.74L41.04 56.74ZM63.22 72.50L58.90 72.50L58.90 60.91L63.22 60.91ZM67.03 56.74L55.15 56.74L55.15 76.68L67.03 76.68Z"/></svg>
