<svg xmlns="http://www.w3.org/2000/svg" xmlns:xlink="http://www.w3.org/1999/xlink" width="72.00000000000001" height="106.56000000000002"><path fill="red" stroke="red" d="M59.18 31.90C58.54 40.03 57.74 43.42 56.81 44.42C56.23 45.00 55.66 45.14 54.50 45.14C53.35 45.14 50.47 45.07 47.38 44.78C48.31 46.37 48.96 48.74 49.10 50.40C52.49 50.62 55.66 50.62 57.38 50.47C59.40 50.26 60.84 49.75 62.06 48.31C63.94 46.44 64.73 41.18 65.59 28.58C65.74 27.72 65.74 26.06 65.74 26.06L25.49 26.06L25.49 31.90L38.59 31.90C37.08 39.46 33.34 45.14 21.67 48.38C22.97 49.54 24.62 51.91 25.27 53.50C38.88 49.32 43.42 41.90 45.29 31.90ZM35.14 58.25L56.88 58.25L56.88 70.92L35.14 70.92ZM28.87 76.39L63.50 76.39L63.50 52.85L28.87 52.85ZM16.99 34.99C16.13 31.90 14.40 27.14 13.03 23.40L7.20 25.13C8.35 28.94 10.08 33.98 10.94 37.22ZM18.65 55.87L17.64 56.16L13.61 56.16C15.41 51.19 17.42 45.29 19.01 40.18L3.46 40.18L3.46 46.22L10.73 46.22C8.93 51.84 6.77 57.67 5.04 61.92L14.26 61.92C13.10 66.82 11.45 72.00 9.50 75.82C7.27 77.33 4.75 80.06 2.30 83.38L6.77 89.57C8.78 85.18 11.23 80.50 12.89 80.50C14.40 80.50 16.99 83.02 19.94 84.67C25.13 87.70 31.32 88.49 40.75 88.49C49.18 88.49 62.35 88.06 67.97 87.70C68.11 85.90 69.12 82.58 69.91 80.78C61.92 81.79 49.82 82.44 41.04 82.44C32.62 82.44 26.06 82.01 21.02 78.98C18.72 77.54 17.14 76.32 15.84 75.53C18.36 70.20 20.30 63.43 21.67 57.02Z"/></svg>
