<svg xmlns="http://www.w3.org/2000/svg" xmlns:xlink="http://www.w3.org/1999/xlink" width="72.00000000000001" height="106.56000000000002"><path fill="red" stroke="red" d="M60.62 68.04C59.69 68.04 59.54 67.46 59.54 65.45L59.54 47.88L54.07 47.88L54.07 65.30C54.07 71.21 55.30 73.30 60.62 73.30L64.94 73.30C66.31 73.30 67.68 73.22 68.47 72.86C68.40 71.57 68.18 69.12 68.04 67.68C67.18 67.97 65.88 68.04 64.94 68.04ZM65.95 32.76C64.01 30.46 60.26 26.78 57.31 24.12L52.34 27.22C55.37 29.95 58.97 33.77 60.77 36.22ZM41.76 78.34L48.46 78.34L48.46 42.55L67.82 42.55L67.82 36.36L48.46 36.36L48.46 23.83L41.76 23.83L41.76 36.36L23.40 36.36L23.40 42.55L41.76 42.55ZM36.58 48.17L30.74 48.17L30.74 53.93C30.74 59.62 29.38 67.18 21.96 72.79C23.33 73.51 25.78 75.53 26.78 76.61C34.63 70.34 36.58 61.06 36.58 54.07ZM17.86 35.42C16.92 32.40 15.12 27.72 13.90 24.05L7.78 25.78C8.93 29.52 10.73 34.49 11.52 37.58ZM20.52 55.51L19.51 55.80L14.40 55.80C16.27 50.83 18.43 45.14 20.09 40.18L3.31 40.18L3.31 46.22L11.88 46.22C10.01 51.70 7.85 57.46 6.05 61.63L15.84 61.63C14.62 66.46 12.74 71.42 10.80 75.17C8.14 76.32 5.18 79.42 2.23 83.30L6.77 89.57C8.64 85.18 11.16 80.50 12.74 80.50C14.26 80.50 16.85 83.02 19.73 84.67C24.98 87.70 31.10 88.49 40.46 88.49C48.89 88.49 61.99 88.06 67.54 87.70C67.61 85.90 68.76 82.66 69.55 80.78C61.56 81.79 49.46 82.44 40.75 82.44C32.33 82.44 25.78 82.01 20.88 78.98C19.01 77.83 17.71 76.82 16.56 76.10C19.44 70.63 21.89 63.58 23.54 56.81Z"/></svg>
