<svg xmlns="http://www.w3.org/2000/svg" xmlns:xlink="http://www.w3.org/1999/xlink" width="72.00000000000001" height="106.56000000000002"><path fill="red" stroke="red" d="M51.48 35.35L57.60 35.35L57.60 31.82L67.68 31.82L67.68 26.57L57.60 26.57L57.60 23.11L51.48 23.11L51.48 26.57L45.79 26.57L45.79 31.82L51.48 31.82ZM31.61 35.35L37.73 35.35L37.73 31.82L43.70 31.82L43.70 26.57L37.73 26.57L37.73 23.11L31.61 23.11L31.61 26.57L22.46 26.57L22.46 31.82L31.61 31.82ZM32.62 50.76L32.62 47.23L41.69 47.23L41.69 50.76ZM32.62 40.25L41.69 40.25L41.69 43.70L32.62 43.70ZM57.02 43.70L47.38 43.70L47.38 40.25L57.02 40.25ZM57.02 50.76L47.38 50.76L47.38 47.23L57.02 47.23ZM23.26 78.77L29.16 78.77L29.16 61.85L41.69 61.85L41.69 66.96C38.02 67.10 34.70 67.32 31.82 67.39L32.40 72.36C38.45 71.93 46.08 71.35 53.86 70.63C54.14 71.64 54.36 72.50 54.50 73.30L58.32 72.43C57.89 69.84 56.23 65.74 54.58 62.78L50.90 63.50C51.41 64.37 51.91 65.30 52.27 66.31L47.38 66.60L47.38 61.85L60.19 61.85L60.19 74.66C60.19 75.31 59.98 75.53 59.26 75.53C58.61 75.60 56.45 75.60 54.14 75.46C54.79 76.75 55.44 78.41 55.66 79.78C59.40 79.78 61.99 79.78 63.79 78.98C65.45 78.26 65.95 77.18 65.95 74.66L65.95 57.67L47.38 57.67L47.38 54.50L63.50 54.50L63.50 36.50L26.42 36.50L26.42 54.50L41.69 54.50L41.69 57.67L29.16 57.67L29.16 56.02L23.26 56.02L23.26 57.67L21.82 57.67L21.82 61.85L23.26 61.85ZM16.70 35.06C15.77 31.97 14.11 27.22 12.74 23.47L7.27 25.06C8.42 28.87 10.15 33.98 10.94 37.15ZM18.00 55.87L16.99 56.16L13.75 56.16C15.62 51.19 17.71 45.29 19.37 40.18L3.53 40.18L3.53 46.22L10.94 46.22C9.14 51.84 6.98 57.67 5.04 61.92L13.68 61.92C12.53 66.96 10.94 72.29 9.00 76.25C6.91 77.83 4.54 80.35 2.30 83.38L6.84 89.57C8.78 85.18 11.23 80.50 12.89 80.50C14.40 80.50 17.06 83.02 19.94 84.67C25.13 87.70 31.32 88.49 40.82 88.49C49.18 88.49 62.42 88.06 67.97 87.70C68.11 85.90 69.19 82.58 69.91 80.78C61.99 81.79 49.82 82.44 41.11 82.44C32.62 82.44 26.06 82.01 21.10 78.98C18.50 77.40 16.99 76.18 15.55 75.38C17.93 70.06 19.80 63.29 21.02 56.95Z"/></svg>
