<svg xmlns="http://www.w3.org/2000/svg" xmlns:xlink="http://www.w3.org/1999/xlink" width="72.00000000000001" height="106.56000000000002"><path fill="red" stroke="red" d="M30.02 49.90L20.30 49.90C20.66 47.74 20.88 45.72 21.10 43.70L30.02 43.70ZM21.38 32.33L30.02 32.33L30.02 38.30L21.38 38.30C21.38 37.37 21.38 36.43 21.38 35.57ZM30.89 67.25L30.89 79.27L17.42 79.27L17.42 67.25ZM36.14 26.86L6.48 26.86L6.48 32.33L15.41 32.33L15.41 35.50C15.41 36.43 15.41 37.30 15.41 38.30L3.38 38.30L3.38 43.70L15.05 43.70C14.83 45.72 14.54 47.74 14.11 49.90L6.19 49.90L6.19 55.30L12.67 55.30C10.66 61.20 7.27 67.10 1.44 72.29C2.74 73.37 4.75 75.82 5.62 77.33C7.78 75.46 9.58 73.37 11.23 71.35L11.23 89.21L17.42 89.21L17.42 85.25L36.94 85.25L36.94 61.34L16.99 61.34C17.86 59.33 18.58 57.31 19.08 55.30L36.14 55.30L36.14 43.70L40.54 43.70L40.54 38.30L36.14 38.30ZM64.30 26.57L63.22 26.86L42.41 26.86L42.41 88.99L48.96 88.99L48.96 33.12L60.34 33.12C58.25 38.74 55.22 46.30 52.34 51.84C59.47 57.82 61.56 63.07 61.56 67.39C61.63 69.91 61.06 71.71 59.54 72.58C58.68 73.08 57.53 73.30 56.38 73.37C55.01 73.44 53.14 73.44 51.05 73.22C52.13 75.02 52.78 77.98 52.85 79.78C55.08 79.92 57.46 79.92 59.26 79.70C61.20 79.42 62.93 78.84 64.22 77.98C66.96 76.18 68.11 72.86 68.04 68.11C68.04 63.14 66.46 57.53 59.26 50.98C62.57 44.64 66.24 36.58 69.19 29.66Z"/></svg>
