<svg xmlns="http://www.w3.org/2000/svg" xmlns:xlink="http://www.w3.org/1999/xlink" width="72.00000000000001" height="106.56000000000002"><path fill="red" stroke="red" d="M31.54 68.54L31.54 79.70L13.82 79.70L13.82 68.54ZM7.49 88.85L13.82 88.85L13.82 85.54L31.54 85.54L31.54 88.34L38.16 88.34L38.16 62.50L7.49 62.50ZM39.67 31.32L26.93 31.32C26.14 28.80 24.70 25.42 23.33 22.68L17.28 24.41C18.22 26.50 19.22 29.09 19.94 31.32L5.69 31.32L5.69 37.30L39.67 37.30ZM30.17 37.30C29.16 41.26 27.22 46.73 25.42 50.54L14.76 50.54L20.02 49.03C19.30 45.86 17.50 41.11 15.62 37.51L9.79 39.02C11.52 42.62 13.25 47.38 13.90 50.54L3.74 50.54L3.74 56.59L41.33 56.59L41.33 50.54L31.82 50.54C33.41 47.09 35.21 42.77 36.79 38.81ZM63.86 26.42L62.86 26.71L44.57 26.71L44.57 88.92L50.47 88.92L50.47 32.76L60.41 32.76C58.68 38.30 56.02 45.79 53.64 51.55C59.62 57.67 61.34 62.78 61.34 67.03C61.34 69.48 60.91 71.50 59.54 72.36C58.82 72.79 57.82 73.01 56.74 73.08C55.51 73.08 53.78 73.08 51.91 72.86C52.92 74.66 53.50 77.47 53.57 79.20C55.66 79.27 57.82 79.27 59.54 79.06C61.20 78.84 62.78 78.34 64.01 77.47C66.46 75.74 67.46 72.29 67.46 67.68C67.46 62.93 66.10 57.31 59.98 50.76C62.86 44.28 66.02 36.07 68.54 29.38Z"/></svg>
