<svg xmlns="http://www.w3.org/2000/svg" xmlns:xlink="http://www.w3.org/1999/xlink" width="72.00000000000001" height="106.56000000000002"><path fill="red" stroke="red" d="M30.74 36.79L14.47 36.79L14.47 30.74L30.74 30.74ZM37.37 25.92L8.28 25.92L8.28 41.62L37.37 41.62ZM12.17 67.68L33.12 67.68L33.12 72.14L12.17 72.14ZM12.17 58.90L33.12 58.90L33.12 63.22L12.17 63.22ZM12.17 50.04L33.12 50.04L33.12 54.36L12.17 54.36ZM39.60 76.90L39.60 45.36L5.98 45.36L5.98 76.90L14.47 76.90C11.66 79.63 6.48 82.87 1.94 84.60C3.31 85.75 5.33 87.91 6.34 89.14C11.30 87.19 17.21 83.59 20.74 79.99L15.77 76.90L29.45 76.90L25.27 79.78C29.16 82.30 33.55 85.68 35.78 88.20L42.12 85.03C39.46 82.66 34.92 79.42 30.82 76.90ZM64.37 25.92L63.36 26.14L43.85 26.14L43.85 89.42L50.40 89.42L50.40 32.47L60.62 32.47C58.61 38.02 55.80 45.50 53.21 51.05C59.83 56.95 61.70 62.28 61.70 66.53C61.78 69.05 61.27 70.85 59.83 71.71C58.97 72.29 58.03 72.50 56.88 72.50C55.51 72.65 53.78 72.58 51.84 72.36C52.92 74.16 53.50 77.04 53.57 78.77C55.58 78.91 57.89 78.91 59.54 78.70C61.49 78.41 63.07 77.83 64.37 77.04C66.96 75.24 68.04 71.93 68.04 67.18C68.04 62.35 66.38 56.66 59.69 50.26C62.78 43.92 66.31 35.71 69.12 28.87Z"/></svg>
