<svg xmlns="http://www.w3.org/2000/svg" xmlns:xlink="http://www.w3.org/1999/xlink" width="72.00000000000001" height="106.56000000000002"><path fill="red" stroke="red" d="M23.47 77.69L23.47 59.26L34.13 59.26L34.13 53.57L23.47 53.57L23.47 46.80L31.32 46.80L31.32 41.18L13.32 41.18C15.91 38.59 18.29 35.71 20.45 32.62C25.27 35.57 30.02 39.24 32.90 42.05L36.65 36.79C33.55 34.13 28.66 30.60 23.69 27.72C24.26 26.78 24.77 25.85 25.27 24.98L19.80 22.68C16.34 29.45 10.08 35.86 4.18 39.96C5.04 41.62 6.55 45.29 7.06 46.73C8.28 45.79 9.50 44.78 10.73 43.63L10.73 46.80L17.57 46.80L17.57 53.57L5.54 53.57L5.54 59.26L17.57 59.26L17.57 78.70C12.67 79.56 8.21 80.35 4.75 80.93L6.19 86.90C14.04 85.39 24.77 83.09 34.85 81.00L34.42 75.67ZM7.63 63.72C8.78 67.90 10.01 73.15 10.30 76.68L15.12 75.31C14.69 71.93 13.46 66.67 12.10 62.57ZM29.16 75.74C30.38 72.58 31.97 67.61 33.34 63.22L28.15 61.85C27.58 65.59 26.06 71.06 24.98 74.52ZM69.19 46.44L55.08 46.44L55.08 23.69L48.24 23.69L48.24 46.44L34.13 46.44L34.13 52.99L48.24 52.99L48.24 89.14L55.08 89.14L55.08 52.99L69.19 52.99Z"/></svg>
