<svg xmlns="http://www.w3.org/2000/svg" xmlns:xlink="http://www.w3.org/1999/xlink" width="72.00000000000001" height="106.56000000000002"><path fill="red" stroke="red" d="M20.66 59.33L30.17 59.33L30.17 53.64L20.66 53.64L20.66 46.80L27.94 46.80L27.94 41.18L11.02 41.18C13.46 38.59 15.84 35.71 17.86 32.62C22.39 35.64 27.00 39.31 29.88 42.26L32.90 36.72C30.10 33.98 25.49 30.60 20.88 27.79C21.38 26.86 21.89 25.85 22.39 24.98L17.28 22.68C13.90 29.45 7.99 35.86 2.30 39.96C3.17 41.62 4.61 45.29 4.97 46.73C6.19 45.72 7.42 44.71 8.64 43.56L8.64 46.80L15.12 46.80L15.12 53.64L4.54 53.64L4.54 59.33L15.12 59.33L15.12 78.84C10.73 79.63 6.70 80.35 3.53 80.93L4.97 86.90C12.17 85.39 21.96 83.23 31.10 81.14L30.74 75.82C27.36 76.46 23.98 77.18 20.66 77.83ZM5.62 63.72C6.77 67.90 7.92 73.15 8.21 76.68L12.74 75.31C12.38 71.93 11.16 66.67 9.94 62.57ZM26.14 75.74C27.36 72.58 28.80 67.61 30.10 63.22L25.27 61.85C24.62 65.59 23.26 71.06 22.25 74.52ZM62.28 56.30L61.42 56.66L34.85 56.66L34.85 62.42L57.82 62.42C55.08 66.60 51.26 71.28 48.10 74.74C46.08 72.86 44.14 71.14 42.41 69.62L38.16 73.30C43.49 78.12 50.54 85.10 54.00 89.06L58.54 84.89C56.95 83.16 54.86 81.07 52.56 78.91C57.24 73.58 63.07 65.88 66.38 59.33ZM40.97 44.78C44.14 41.11 46.94 37.01 49.32 32.76C51.98 37.01 55.15 41.18 58.46 44.78ZM47.74 23.11C44.06 31.90 37.08 41.54 29.09 47.66C30.46 48.74 32.40 51.05 33.41 52.34C35.50 50.54 37.51 48.67 39.38 46.51L39.38 50.47L60.05 50.47L60.05 46.37C61.99 48.46 64.01 50.18 65.88 51.70C66.89 50.04 68.76 47.66 70.06 46.37C63.79 42.48 56.45 34.85 51.98 27.65C52.42 26.78 52.78 25.99 53.14 25.20Z"/></svg>
