<svg xmlns="http://www.w3.org/2000/svg" xmlns:xlink="http://www.w3.org/1999/xlink" width="72.00000000000001" height="106.56000000000002"><path fill="red" stroke="red" d="M20.09 77.76L20.09 59.18L29.81 59.18L29.81 53.50L20.09 53.50L20.09 46.66L27.00 46.66L27.00 41.04L10.73 41.04C13.03 38.38 15.26 35.35 17.21 32.26C21.10 35.50 25.56 39.17 27.86 41.62L31.39 36.29C28.94 33.98 24.12 30.24 20.09 27.22C20.52 26.42 20.95 25.56 21.31 24.84L15.62 22.90C12.67 29.45 7.49 35.71 2.30 39.82C3.31 41.40 4.97 44.93 5.33 46.30C6.05 45.65 6.77 45.07 7.49 44.42L7.49 46.66L14.26 46.66L14.26 53.50L3.53 53.50L3.53 59.18L14.26 59.18L14.26 78.84C9.86 79.63 5.90 80.35 2.74 80.86L4.25 86.83C11.59 85.25 21.53 83.23 30.89 81.22L30.53 75.89ZM4.39 63.58C5.47 67.68 6.62 73.08 7.06 76.61L11.88 75.24C11.38 71.86 10.08 66.53 8.93 62.42ZM24.91 61.70C24.26 65.45 22.82 70.92 21.74 74.38L25.92 75.67C27.14 72.50 28.66 67.46 30.10 63.07ZM43.06 79.42L43.06 64.44L58.75 64.44L58.75 79.42ZM58.75 36.65C56.45 41.18 53.21 45.29 49.46 48.89C46.87 46.37 43.42 43.49 40.39 41.26C41.62 39.74 42.77 38.23 43.92 36.65ZM65.16 58.46L47.74 58.46C56.30 52.13 63.43 43.42 67.25 32.40L63.14 30.38L62.06 30.67L47.59 30.67C48.89 28.51 49.90 26.28 50.83 24.12L44.35 23.11C41.69 30.02 36.43 38.45 28.15 44.42C29.74 45.29 31.82 47.23 32.83 48.60C34.06 47.59 35.21 46.58 36.36 45.50C39.24 47.81 42.26 50.62 44.71 52.99C39.89 56.66 34.56 59.54 29.09 61.34C30.38 62.64 32.04 65.09 32.83 66.60C34.20 66.17 35.42 65.59 36.79 64.94L36.79 89.21L43.06 89.21L43.06 85.46L58.75 85.46L58.75 88.99L65.16 88.99Z"/></svg>
