<svg xmlns="http://www.w3.org/2000/svg" xmlns:xlink="http://www.w3.org/1999/xlink" width="72.00000000000001" height="106.56000000000002"><path fill="red" stroke="red" d="M36.29 37.80L61.63 37.80L61.63 45.65L67.75 45.65L67.75 31.90L53.64 31.90C52.92 29.16 51.91 25.70 50.90 22.90L44.57 23.98C45.36 26.42 46.15 29.30 46.80 31.90L30.46 31.90L30.46 45.65L36.29 45.65ZM19.30 77.69L19.30 59.33L28.22 59.33L28.22 53.64L19.30 53.64L19.30 46.80L25.99 46.80L25.99 41.18L10.15 41.18C12.46 38.66 14.76 35.78 16.70 32.76C20.74 35.64 24.98 39.24 27.50 41.90L30.24 36.65C27.79 34.13 23.69 30.89 19.51 28.08C20.16 26.93 20.74 25.78 21.24 24.55L15.98 22.68C12.89 29.45 7.56 35.86 2.16 40.03C3.17 41.47 4.61 44.71 5.11 46.01C6.05 45.29 6.98 44.35 7.99 43.42L7.99 46.80L13.97 46.80L13.97 53.64L4.25 53.64L4.25 59.33L13.97 59.33L13.97 78.84C9.86 79.63 6.19 80.35 3.24 80.93L4.75 86.90C11.38 85.39 20.16 83.30 28.44 81.29L28.01 75.96ZM5.33 63.65C6.34 67.82 7.42 73.15 7.56 76.68L11.95 75.38C11.66 71.93 10.58 66.67 9.43 62.57ZM24.26 75.67C25.49 72.43 26.78 67.32 28.08 63.07L23.26 61.85C22.68 65.59 21.46 70.99 20.38 74.45ZM56.09 57.67C54.86 63.00 52.92 67.39 50.18 70.99C47.16 69.26 44.14 67.54 41.18 66.02C42.26 63.43 43.49 60.62 44.64 57.67ZM69.12 57.67L69.12 51.62L63.94 51.62C64.08 50.40 64.30 49.18 64.44 47.88L57.74 47.52C57.60 48.96 57.46 50.26 57.24 51.62L46.87 51.62C48.17 48.17 49.25 44.64 50.11 41.40L43.99 40.61C43.13 44.06 41.90 47.81 40.61 51.62L29.45 51.62L29.45 57.67L38.23 57.67C36.58 61.78 34.85 65.59 33.19 68.62C37.15 70.63 41.47 73.15 45.72 75.67C41.54 79.13 36.00 81.58 28.94 83.30C30.10 84.67 31.61 87.62 32.04 89.06C40.18 86.69 46.44 83.52 51.26 79.13C56.16 82.37 60.62 85.46 63.58 88.06L67.75 82.51C64.80 80.06 60.41 77.11 55.73 74.23C58.97 69.84 61.20 64.37 62.78 57.67Z"/></svg>
