<svg xmlns="http://www.w3.org/2000/svg" xmlns:xlink="http://www.w3.org/1999/xlink" width="72.00000000000001" height="106.56000000000002"><path fill="red" stroke="red" d="M37.30 37.51L61.56 37.51L61.56 44.42L67.82 44.42L67.82 31.90L53.35 31.90C52.56 29.23 50.98 25.63 49.32 22.90L43.85 24.48C45.00 26.71 46.15 29.52 47.02 31.90L31.39 31.90L31.39 44.42L37.30 44.42ZM11.66 41.18C13.97 38.66 16.20 35.78 18.14 32.76C21.46 35.42 24.84 38.59 27.22 41.18ZM30.10 75.89C27.07 76.54 23.98 77.18 20.95 77.83L20.95 59.33L30.82 59.33L30.82 53.64L20.95 53.64L20.95 46.80L27.79 46.80L27.79 41.83L28.22 42.34L31.03 36.86C28.73 34.20 24.91 30.89 21.02 28.01C21.60 27.00 22.10 25.92 22.54 24.98L17.64 22.68C14.47 29.45 8.71 35.86 3.38 39.96C4.18 41.62 5.47 45.29 5.90 46.73C7.13 45.72 8.21 44.71 9.43 43.56L9.43 46.80L15.62 46.80L15.62 53.64L5.54 53.64L5.54 59.33L15.62 59.33L15.62 78.84C11.45 79.63 7.63 80.35 4.61 80.93L5.98 86.90C12.74 85.39 21.89 83.30 30.46 81.29ZM6.55 63.72C7.70 67.90 8.71 73.15 9.00 76.68L13.39 75.31C13.03 71.93 11.95 66.67 10.73 62.57ZM26.14 75.74C27.22 72.58 28.66 67.54 29.88 63.22L25.20 61.85C24.62 65.59 23.40 70.99 22.32 74.45ZM53.28 68.40L65.23 68.40L65.23 62.64L53.28 62.64L53.28 52.27L66.24 52.27L66.24 46.44L33.62 46.44L33.62 52.27L47.02 52.27L47.02 79.06C44.42 77.04 42.26 73.66 40.82 68.18C41.33 64.80 41.62 61.20 41.83 57.89L36.00 57.89C35.57 67.54 34.27 78.98 28.37 85.54C29.74 86.47 31.46 88.13 32.33 89.50C35.50 86.04 37.58 81.65 39.02 76.82C43.13 86.18 49.39 88.13 57.67 88.13L67.39 88.13C67.68 86.40 68.47 83.45 69.26 82.01C66.96 82.08 59.62 82.08 57.96 82.08C56.30 82.08 54.79 82.01 53.28 81.72Z"/></svg>
