<svg xmlns="http://www.w3.org/2000/svg" xmlns:xlink="http://www.w3.org/1999/xlink" width="72.00000000000001" height="106.56000000000002"><path fill="red" stroke="red" d="M27.29 76.03L18.79 77.83L18.79 59.40L27.07 59.40L27.07 53.64L18.79 53.64L18.79 46.87L24.77 46.87L24.77 41.18L10.15 41.18C12.31 38.59 14.40 35.71 16.27 32.62C20.16 35.50 24.12 38.88 26.42 41.54L29.02 36.14C26.64 33.70 22.82 30.60 18.94 27.94C19.44 26.93 19.94 25.92 20.38 24.98L15.70 22.68C12.60 29.52 7.42 36.00 2.30 40.10C3.10 41.76 4.39 45.43 4.75 46.87C5.76 45.94 6.84 45.00 7.85 43.85L7.85 46.87L13.54 46.87L13.54 53.64L4.32 53.64L4.32 59.40L13.54 59.40L13.54 78.84C9.65 79.63 6.12 80.35 3.38 80.93L4.68 86.90C11.02 85.39 19.58 83.30 27.72 81.36ZM5.18 63.72C6.26 67.82 7.27 73.15 7.56 76.68L11.74 75.38C11.38 71.93 10.30 66.60 9.14 62.57ZM23.76 75.89C24.84 72.58 26.06 67.61 27.22 63.29L22.75 61.85C22.18 65.59 21.02 71.06 20.16 74.52ZM38.52 70.70L58.18 70.70L58.18 74.16L38.52 74.16ZM38.52 63.50L58.18 63.50L58.18 66.89L38.52 66.89ZM38.52 56.38L58.18 56.38L58.18 59.62L38.52 59.62ZM64.66 78.19L64.66 52.27L39.89 52.27C40.75 51.55 42.41 50.62 47.88 47.88C47.52 47.09 47.09 45.50 46.94 44.50L43.92 45.72L43.92 40.54L47.02 40.54L47.02 36.14L41.33 36.14L41.33 32.33L46.44 32.33L46.44 28.01L41.33 28.01L41.33 23.11L36.72 23.11L36.72 28.01L34.56 28.01C34.85 26.86 35.14 25.70 35.35 24.55L31.25 23.62C30.60 27.36 29.59 31.03 27.79 33.84C28.80 34.27 30.60 35.28 31.39 35.93C32.04 34.85 32.62 33.70 33.19 32.33L36.72 32.33L36.72 36.14L29.09 36.14L29.09 40.54L32.40 40.54C31.97 44.35 30.60 47.45 27.07 49.39C28.08 50.11 29.52 51.70 30.10 52.85C34.78 50.04 36.50 45.79 37.15 40.54L39.60 40.54L39.60 44.28C39.60 47.02 38.59 48.10 37.73 48.60C38.38 49.46 39.17 51.12 39.53 52.27L32.33 52.27L32.33 78.19L38.95 78.19C35.21 80.21 29.23 83.02 25.06 84.60C26.14 85.97 27.29 87.98 28.01 89.42C32.76 87.41 39.31 84.60 44.42 82.15L40.18 78.19L53.64 78.19L50.90 81.86C55.80 84.17 61.42 87.34 64.80 89.42L68.18 84.89C64.94 83.09 59.76 80.35 55.01 78.19ZM63.86 47.23C63.58 47.23 63.29 47.16 63.22 46.94C63.07 46.80 63.07 46.30 63.07 45.58L63.07 40.54L68.90 40.54L68.90 36.14L61.06 36.14L61.06 32.18L67.54 32.18L67.54 28.01L61.06 28.01L61.06 23.11L56.38 23.11L56.38 28.01L53.93 28.01C54.29 26.86 54.50 25.70 54.72 24.55L50.62 23.62C50.04 27.36 49.03 31.03 47.30 33.84C48.31 34.27 50.11 35.35 50.83 35.93C51.48 34.85 52.13 33.62 52.63 32.18L56.38 32.18L56.38 36.14L48.38 36.14L48.38 40.54L51.91 40.54C51.55 44.42 50.26 47.16 46.51 48.82C47.38 49.54 48.74 51.19 49.32 52.27C54.22 49.82 55.87 45.94 56.45 40.54L58.54 40.54L58.54 45.22C58.54 48.17 58.75 49.10 59.54 49.97C60.26 50.76 61.49 51.05 62.71 51.05L65.02 51.05C65.81 51.05 66.74 50.90 67.32 50.62C67.97 50.33 68.54 49.75 68.90 49.10C69.19 48.38 69.48 46.51 69.55 44.78C68.47 44.42 67.25 43.85 66.53 43.20C66.46 44.64 66.38 45.79 66.24 46.30C66.02 46.80 65.95 47.02 65.74 47.16C65.52 47.23 65.16 47.23 64.87 47.23Z"/></svg>
