<svg xmlns="http://www.w3.org/2000/svg" xmlns:xlink="http://www.w3.org/1999/xlink" width="72.00000000000001" height="106.56000000000002"><path fill="red" stroke="red" d="M26.86 30.17L26.86 34.06L12.60 34.06L12.60 30.17ZM12.60 42.19L12.60 38.09L26.86 38.09L26.86 42.19ZM33.12 46.58L33.12 25.70L6.34 25.70L6.34 89.28L12.60 89.28L12.60 46.58ZM18.65 86.76C21.53 84.31 22.82 80.14 23.54 75.89L19.44 74.81C18.86 78.48 17.50 82.22 14.98 84.38ZM25.99 76.32C26.64 79.34 26.93 83.23 26.71 85.75L30.53 85.18C30.67 82.73 30.31 78.84 29.52 75.82ZM32.83 76.03C33.91 78.62 34.70 82.01 34.85 84.31L38.38 83.30C38.16 81.14 37.30 77.69 36.07 75.17ZM45.07 42.05L45.07 38.09L59.69 38.09L59.69 42.05ZM59.69 30.17L59.69 34.06L45.07 34.06L45.07 30.17ZM25.99 66.46L33.70 66.46L33.70 69.19L25.99 69.19ZM33.70 54.22L33.70 56.88L25.99 56.88L25.99 54.22ZM33.70 63.07L25.99 63.07L25.99 60.26L33.70 60.26ZM66.10 25.70L38.74 25.70L38.74 46.44L59.69 46.44L59.69 82.01C59.69 82.94 59.40 83.30 58.54 83.30C57.67 83.30 55.01 83.38 52.27 83.23C52.85 81.07 53.14 77.33 53.50 71.21C53.57 70.49 53.57 69.19 53.57 69.19L38.81 69.19L38.81 66.46L49.61 66.46L49.61 63.07L38.81 63.07L38.81 60.26L49.39 60.26L49.39 56.88L38.81 56.88L38.81 54.22L51.48 54.22L51.48 50.26L20.59 50.26L20.59 73.15L48.17 73.15C47.74 79.34 47.38 81.86 46.66 82.66C46.22 83.09 45.79 83.23 45.00 83.16C44.28 83.23 42.48 83.16 40.46 83.02C41.11 84.17 41.54 85.90 41.69 87.19C43.99 87.34 46.30 87.34 47.52 87.19C49.10 87.12 50.26 86.62 51.19 85.54C51.62 85.10 51.91 84.38 52.20 83.38C53.06 84.96 53.86 87.70 54.07 89.28C58.39 89.28 61.49 89.14 63.50 88.13C65.52 87.05 66.10 85.32 66.10 82.08ZM45.43 80.42C44.86 78.70 43.56 76.10 42.12 74.16L39.17 75.24C40.54 77.18 41.76 79.85 42.26 81.65Z"/></svg>
