<svg xmlns="http://www.w3.org/2000/svg" xmlns:xlink="http://www.w3.org/1999/xlink" width="72.00000000000001" height="106.56000000000002"><path fill="red" stroke="red" d="M34.99 38.09L39.17 36.36C38.45 35.06 37.01 33.05 35.86 31.54C39.60 31.32 43.49 31.03 47.23 30.67L42.77 32.33C43.78 34.06 45.00 36.43 45.65 38.09ZM30.82 33.19C31.97 34.70 33.19 36.72 33.91 38.09L29.74 38.09L29.74 42.34L44.21 42.34L44.21 45.94L27.50 45.94L27.50 50.33L68.40 50.33L68.40 45.94L50.47 45.94L50.47 42.34L65.74 42.34L65.74 38.09L60.48 38.09C61.78 35.93 63.22 33.34 64.30 31.18L59.33 29.66C58.03 32.54 56.30 35.64 54.29 38.09L46.94 38.09L50.83 36.43C50.18 34.92 48.89 32.47 47.74 30.60C55.15 29.88 62.35 28.94 67.82 27.50L63.86 23.18C55.44 25.34 40.18 26.71 27.36 27.22C28.01 28.44 28.73 30.46 28.87 31.82C30.89 31.75 32.98 31.68 35.06 31.54ZM59.40 67.25L28.58 67.25L28.58 71.35L42.98 71.35L41.26 72.86C43.92 75.10 47.66 78.62 49.54 80.71L53.28 77.26C51.84 75.74 49.18 73.37 46.80 71.35L65.38 71.35L65.38 64.01L68.76 64.01L68.76 60.19L65.38 60.19L65.38 52.99L28.94 52.99L28.94 57.10L59.40 57.10L59.40 60.19L26.42 60.19L26.42 64.01L59.40 64.01ZM21.82 25.78L20.95 25.99L5.62 25.99L5.62 88.99L11.16 88.99L11.16 32.04L18.72 32.04C17.42 36.79 15.62 42.84 13.82 47.59C18.43 52.99 19.58 57.82 19.58 61.49C19.58 63.58 19.22 65.38 18.22 66.10C17.64 66.53 16.99 66.67 16.20 66.74C15.19 66.82 13.97 66.74 12.53 66.67C13.46 68.26 13.97 70.85 14.04 72.43C15.62 72.50 17.35 72.50 18.65 72.36C20.09 72.07 21.31 71.64 22.32 70.92C24.34 69.34 25.20 66.31 25.20 62.06C25.20 57.82 24.12 52.63 19.51 46.87C21.67 41.26 24.05 34.13 25.99 28.30ZM28.37 88.20C30.67 85.03 32.47 79.99 33.70 75.96L28.66 74.02C27.58 77.83 25.56 82.73 23.26 85.90ZM43.63 83.66C41.11 83.66 40.68 83.45 40.68 81.86L40.68 73.94L34.85 73.94L34.85 81.86C34.85 87.19 36.36 88.70 42.91 88.70L52.63 88.70C57.24 88.70 58.90 87.19 59.54 81.50C57.89 81.14 55.58 80.35 54.36 79.56C54.14 83.16 53.78 83.66 51.91 83.66ZM57.24 75.74C59.69 79.49 62.57 84.60 64.01 87.70L69.12 85.32C67.75 82.22 64.87 77.47 62.28 73.80Z"/></svg>
