<svg xmlns="http://www.w3.org/2000/svg" xmlns:xlink="http://www.w3.org/1999/xlink" width="72.00000000000001" height="106.56000000000002"><path fill="red" stroke="red" d="M24.55 61.92L24.55 70.70L18.14 70.70L18.14 61.92ZM28.51 75.38L28.51 57.17L14.04 57.17L14.04 79.13L18.14 79.13L18.14 75.38ZM47.30 70.70L54.29 70.70L54.29 79.56L47.30 79.56ZM54.29 50.76L47.30 50.76L47.30 42.62L54.29 42.62ZM54.29 65.02L47.30 65.02L47.30 56.45L54.29 56.45ZM23.69 48.67L23.69 43.06L30.96 43.06L30.96 48.67ZM11.81 43.06L18.86 43.06L18.86 48.67L11.81 48.67ZM18.86 31.90L18.86 38.02L11.81 38.02L11.81 31.90ZM30.96 38.02L23.69 38.02L23.69 31.90L30.96 31.90ZM69.26 79.56L59.83 79.56L59.83 70.70L67.90 70.70L67.90 65.02L59.83 65.02L59.83 56.45L67.90 56.45L67.90 50.76L59.83 50.76L59.83 42.62L68.62 42.62L68.62 36.65L57.17 36.65L61.42 34.78C60.77 31.90 59.18 27.43 57.60 24.12L52.70 25.99C54.22 29.30 55.66 33.70 56.23 36.65L47.66 36.65C49.18 32.69 50.47 28.58 51.62 24.55L45.79 23.18C43.78 31.61 40.46 40.18 36.58 46.66L36.58 26.21L6.41 26.21L6.41 54.86C6.41 64.51 6.12 77.26 2.45 86.18C3.89 86.62 6.34 87.98 7.42 88.92C11.30 79.56 11.81 65.09 11.81 54.79L11.81 53.50L30.96 53.50L30.96 80.78C30.96 81.86 30.67 82.15 29.74 82.22C28.73 82.22 25.63 82.30 22.32 82.08C23.26 83.74 24.34 86.62 24.55 88.20C28.94 88.20 31.97 87.98 33.98 86.98C36.00 85.97 36.58 84.02 36.58 80.93L36.58 52.85C37.30 53.78 37.87 54.65 38.23 55.22C39.31 53.64 40.39 51.91 41.47 50.11L41.47 89.28L47.30 89.28L47.30 85.61L69.34 85.61Z"/></svg>
