<svg xmlns="http://www.w3.org/2000/svg" xmlns:xlink="http://www.w3.org/1999/xlink" width="72.00000000000001" height="106.56000000000002"><path fill="red" stroke="red" d="M59.47 49.10L43.06 49.10L43.06 43.20L59.47 43.20ZM59.47 59.76L43.06 59.76L43.06 53.86L59.47 53.86ZM59.47 70.56L43.06 70.56L43.06 64.58L59.47 64.58ZM36.94 38.16L36.94 75.60L65.88 75.60L65.88 38.16L52.63 38.16C53.28 36.29 54.00 34.13 54.58 32.04L68.83 32.04L68.83 26.35L34.63 26.35L34.63 32.04L47.45 32.04C47.16 33.98 46.73 36.22 46.30 38.16ZM31.32 48.31L28.58 48.31L33.91 46.30C32.76 40.03 29.16 30.67 25.34 23.54L19.87 25.56C23.40 32.69 26.78 42.12 27.94 48.31L9.72 48.31C13.54 42.26 16.13 34.27 17.50 25.56L11.09 24.55C9.79 33.77 6.84 42.34 2.09 47.66C3.46 48.74 5.98 50.98 6.84 52.20L7.34 51.62L7.34 54.22L12.17 54.22C11.59 65.66 10.22 76.25 3.10 82.44C4.61 83.52 6.48 85.61 7.34 87.12C15.62 79.78 17.50 67.54 18.14 54.22L25.20 54.22C24.91 71.57 24.55 77.76 23.54 79.13C23.18 79.92 22.54 80.14 21.60 80.14C20.52 80.14 18.36 80.06 15.91 79.85C16.78 81.50 17.42 83.95 17.50 85.68C20.30 85.82 23.11 85.82 24.77 85.54C26.64 85.25 27.79 84.67 29.02 83.02C30.60 80.71 30.96 73.01 31.32 51.05ZM43.78 76.39C40.75 79.34 34.63 83.02 29.30 84.89C30.67 86.11 32.69 87.98 33.62 89.28C39.17 87.26 45.58 83.45 49.46 79.85ZM53.14 80.06C57.24 82.73 62.50 86.69 64.94 89.28L70.42 85.68C67.61 83.09 62.21 79.27 58.18 76.82Z"/></svg>
