<svg xmlns="http://www.w3.org/2000/svg" xmlns:xlink="http://www.w3.org/1999/xlink" width="72.00000000000001" height="106.56000000000002"><path fill="red" stroke="red" d="M66.74 38.23C64.08 36.43 60.41 34.49 56.38 32.54C59.83 30.60 62.93 28.37 65.38 25.99L60.34 23.83C57.89 26.14 54.58 28.15 50.83 30.02C45.22 27.65 39.38 25.49 34.20 23.98L30.89 27.72C35.14 29.09 39.82 30.89 44.35 32.83C39.53 34.70 34.34 36.14 29.30 37.22C30.38 38.38 32.11 40.75 32.83 41.90C38.59 40.32 44.71 38.23 50.40 35.57C55.51 38.02 60.05 40.46 63.14 42.70ZM12.53 41.11L24.77 41.11L24.77 36.50L13.46 36.50C15.05 34.85 16.63 33.19 18.00 31.32C21.67 33.84 25.85 36.86 28.08 38.88L31.54 33.91C29.16 31.90 24.91 29.09 21.17 26.86C21.67 25.99 22.18 25.20 22.61 24.34L17.06 22.39C13.82 28.22 7.99 33.70 2.38 37.08C3.38 38.59 4.82 42.05 5.33 43.34C7.78 41.69 10.22 39.67 12.53 37.44ZM21.53 49.61L21.53 54.50L13.18 54.50L13.18 49.61ZM13.18 64.44L13.18 59.33L21.53 59.33L21.53 64.44ZM18.36 72.65C19.08 74.09 19.80 75.60 20.59 77.18L13.18 79.85L13.18 69.41L26.86 69.41L26.86 44.71L6.98 44.71L6.98 78.84C6.98 81.58 5.26 82.51 3.96 83.02C4.90 84.60 5.90 87.48 6.26 89.06C7.63 87.98 9.72 86.98 22.82 81.86C23.69 83.88 24.48 85.75 25.06 87.26L30.02 84.82C28.66 81.29 25.49 75.10 22.97 70.63ZM57.17 66.82C54.50 65.23 49.25 63.43 45.14 62.50L42.98 65.95C47.16 67.03 52.27 69.05 54.94 70.63ZM58.32 70.92C52.34 72.22 46.51 73.58 42.34 74.45C42.55 72.22 42.62 70.06 42.62 68.04L42.62 59.76L58.32 59.76ZM68.69 50.26L68.69 44.71L48.82 44.71C49.46 43.13 50.04 41.54 50.54 39.89L45.00 38.59C44.42 40.68 43.70 42.77 42.84 44.71L30.10 44.71L30.10 50.26L39.96 50.26C36.79 55.58 32.62 60.05 27.86 63.14C28.73 64.58 30.10 67.68 30.53 69.05C32.69 67.54 34.78 65.81 36.65 63.86L36.65 67.97C36.65 73.44 36.29 80.42 32.62 85.54C33.98 86.33 36.58 88.20 37.66 89.21C40.54 85.32 41.76 80.06 42.26 75.17L43.49 79.63C47.95 78.34 52.99 76.61 58.32 74.95L58.32 82.80C58.32 83.59 58.03 83.88 57.10 83.88C56.30 83.95 52.99 83.95 49.97 83.81C50.62 85.39 51.19 87.48 51.34 89.06C56.23 89.06 59.62 89.14 61.70 88.27C63.86 87.34 64.51 85.97 64.51 82.80L64.51 55.15L43.56 55.15C44.57 53.57 45.50 51.98 46.37 50.26Z"/></svg>
