<svg xmlns="http://www.w3.org/2000/svg" xmlns:xlink="http://www.w3.org/1999/xlink" width="72.00000000000001" height="106.56000000000002"><path fill="red" stroke="red" d="M51.48 66.02L51.48 71.35L21.38 71.35L21.38 66.02ZM21.38 81.58L21.38 76.10L51.48 76.10L51.48 81.58ZM14.76 89.21L21.38 89.21L21.38 86.83L51.48 86.83L51.48 89.14L58.39 89.14L58.39 60.77L14.76 60.77ZM67.75 45.50L67.75 39.46L39.46 39.46L39.46 32.40C47.09 31.46 54.22 30.31 60.12 28.87L55.22 23.47C44.71 26.28 26.14 28.01 10.22 28.73C10.87 30.17 11.74 32.76 11.88 34.34C18.50 34.13 25.56 33.70 32.54 33.05L32.54 39.46L4.32 39.46L4.32 45.50L25.99 45.50C19.73 50.83 10.94 55.37 2.59 57.82C4.10 59.26 6.19 61.85 7.20 63.50C16.27 60.26 25.78 54.36 32.54 47.30L32.54 59.04L39.46 59.04L39.46 47.52C48.74 52.56 59.54 59.33 64.94 64.22L68.83 59.04C64.08 55.15 55.66 49.90 47.59 45.50Z"/></svg>
