<svg xmlns="http://www.w3.org/2000/svg" xmlns:xlink="http://www.w3.org/1999/xlink" width="72.00000000000001" height="106.56000000000002"><path fill="red" stroke="red" d="M59.54 39.38L46.66 39.38L46.66 31.68L59.54 31.68ZM66.02 26.57L40.54 26.57L40.54 44.50L66.02 44.50ZM30.46 33.26C30.02 37.44 29.59 39.38 28.94 39.96C28.44 40.54 27.94 40.61 27.14 40.61C26.28 40.61 24.26 40.54 21.96 40.32C22.75 41.69 23.33 43.78 23.40 45.36C26.14 45.50 28.73 45.43 30.17 45.29C31.75 45.22 32.98 44.71 34.06 43.56C35.42 42.12 36.14 38.52 36.79 30.38C36.86 29.59 36.94 28.08 36.94 28.08L22.03 28.08C22.25 26.50 22.46 24.84 22.61 23.11L16.42 23.11C16.27 24.84 16.13 26.50 15.84 28.08L4.97 28.08L4.97 33.26L14.62 33.26C12.82 38.09 9.50 41.76 2.81 44.14C4.03 45.22 5.69 47.38 6.34 48.82C14.98 45.50 18.94 40.18 20.95 33.26ZM8.78 89.21C11.59 86.04 14.62 81.58 17.06 78.19L11.66 75.31C9.58 78.62 6.34 83.09 3.24 85.90ZM20.88 77.90C21.82 81.22 22.75 85.54 22.90 88.27L28.80 87.12C28.51 84.38 27.50 80.14 26.50 76.97ZM32.54 77.98C34.20 80.86 35.86 84.82 36.43 87.34L41.83 85.68C41.11 83.09 39.38 79.34 37.58 76.46ZM43.78 77.26C45.65 79.49 47.74 82.44 48.74 84.38L53.57 82.15C52.56 80.14 50.40 77.40 48.38 75.38ZM35.50 52.06L35.50 55.51L19.37 55.51L19.37 52.06ZM35.50 62.78L19.37 62.78L19.37 59.33L35.50 59.33ZM35.50 70.13L19.37 70.13L19.37 66.60L35.50 66.60ZM41.98 70.13L41.98 66.60L58.97 66.60L58.97 62.78L41.98 62.78L41.98 59.33L58.82 59.33L58.82 55.51L41.98 55.51L41.98 52.06L61.78 52.06L61.78 47.52L12.82 47.52L12.82 74.74L17.42 74.74L17.42 74.81L59.69 74.81C59.04 80.42 58.32 82.87 57.53 83.74C56.95 84.24 56.38 84.31 55.44 84.31C54.43 84.38 52.13 84.31 49.68 84.02C50.47 85.46 50.98 87.62 51.12 89.28C54.22 89.42 57.02 89.42 58.54 89.21C60.34 89.14 61.56 88.70 62.71 87.41C64.44 85.75 65.30 81.72 66.24 72.50C66.38 71.71 66.46 70.13 66.46 70.13Z"/></svg>
