<svg xmlns="http://www.w3.org/2000/svg" xmlns:xlink="http://www.w3.org/1999/xlink" width="72.00000000000001" height="106.56000000000002"><path fill="red" stroke="red" d="M6.70 84.96C7.92 80.64 8.93 73.58 9.50 68.76L5.76 67.54C5.18 72.29 4.03 79.20 2.74 83.38ZM10.94 68.69C11.59 72.86 11.95 78.26 11.74 81.86L15.05 81.43C15.19 77.90 14.83 72.58 14.11 68.33ZM11.74 53.06L17.71 53.06L17.71 58.75L11.74 58.75ZM17.71 31.32L17.71 36.86L11.74 36.86L11.74 31.32ZM17.71 47.81L11.74 47.81L11.74 42.12L17.71 42.12ZM23.11 58.75L23.11 53.06L30.46 53.06L30.46 47.81L23.11 47.81L23.11 42.12L30.46 42.12L30.46 36.86L23.11 36.86L23.11 31.32L31.82 31.32L31.82 25.99L6.26 25.99L6.26 64.08L27.07 64.08C26.86 67.68 26.71 70.70 26.42 73.15C25.70 70.92 24.48 68.26 23.26 66.02L20.45 67.03C21.89 69.98 23.47 73.87 23.98 76.39L26.21 75.53C25.70 80.06 25.20 82.15 24.55 82.94C23.90 83.66 23.33 83.81 22.46 83.81C21.53 83.81 19.30 83.81 16.92 83.52C17.78 84.96 18.36 87.26 18.43 88.85C21.10 88.99 23.62 88.99 25.13 88.78C26.93 88.63 28.15 88.06 29.30 86.62C31.10 84.46 31.90 78.12 32.69 61.20C32.83 60.41 32.83 58.75 32.83 58.75ZM21.46 79.06C21.24 76.03 20.16 71.28 18.94 67.61L15.84 68.18C16.99 71.86 18.07 76.61 18.29 79.78ZM48.96 81.79C45.79 81.79 45.29 81.29 45.29 78.55L45.29 67.25C52.70 64.15 60.84 60.26 66.74 56.16L61.63 51.77C57.74 55.01 51.55 58.68 45.29 61.63L45.29 45.72L40.18 45.72L40.18 39.74L61.20 39.74L61.20 47.09L67.46 47.09L67.46 34.06L56.45 34.06L57.24 33.84C56.02 30.89 53.42 26.35 51.05 22.90L44.50 24.48C46.22 27.36 48.38 31.18 49.61 34.06L33.98 34.06L33.98 47.16L38.74 47.16L38.74 78.48C38.74 85.82 40.75 87.84 48.24 87.84L59.83 87.84C66.38 87.84 68.18 84.82 68.98 74.74C67.18 74.30 64.51 73.22 63.00 72.14C62.64 80.21 62.14 81.79 59.33 81.79Z"/></svg>
