<svg xmlns="http://www.w3.org/2000/svg" xmlns:xlink="http://www.w3.org/1999/xlink" width="72.00000000000001" height="106.56000000000002"><path fill="red" stroke="red" d="M61.06 38.74L52.85 38.74L52.85 33.98L61.06 33.98ZM61.06 48.31L52.85 48.31L52.85 43.42L61.06 43.42ZM39.10 43.42L46.73 43.42L46.73 48.31L39.10 48.31ZM39.10 33.98L46.73 33.98L46.73 38.74L39.10 38.74ZM67.03 29.02L52.85 29.02L52.85 23.26L46.73 23.26L46.73 29.02L33.26 29.02L33.26 53.21L67.03 53.21ZM6.19 84.46C7.49 80.28 8.42 73.37 8.93 68.69L5.47 67.46C4.97 72.22 3.82 78.98 2.52 83.02ZM10.08 68.90C10.51 72.94 10.80 78.34 10.73 81.86L13.90 81.50C13.90 77.98 13.61 72.65 13.10 68.54ZM14.40 68.18C15.26 71.93 16.34 76.68 16.70 79.85L19.73 79.27C19.30 76.10 18.22 71.35 17.21 67.68ZM11.38 53.14L16.70 53.14L16.70 58.82L11.38 58.82ZM16.70 31.68L16.70 37.44L11.38 37.44L11.38 31.68ZM16.70 47.95L11.38 47.95L11.38 42.55L16.70 42.55ZM21.89 58.82L21.89 53.14L29.09 53.14L29.09 47.95L21.89 47.95L21.89 42.55L28.87 42.55L28.87 37.44L21.89 37.44L21.89 31.68L29.88 31.68L29.88 26.21L6.12 26.21L6.12 64.37L25.13 64.37C24.98 68.90 24.84 72.43 24.70 75.10C23.98 72.72 22.54 69.12 21.17 66.31L18.58 67.18C19.87 70.13 21.38 74.09 22.10 76.61L24.62 75.53C24.34 80.35 23.98 82.51 23.47 83.30C23.04 83.95 22.54 84.10 21.74 84.10C20.88 84.10 19.30 84.10 17.28 83.81C18.07 85.25 18.58 87.41 18.65 88.99C20.81 89.06 22.97 89.06 24.26 88.85C25.92 88.63 26.93 88.13 27.94 86.76C29.38 84.74 29.88 78.55 30.38 61.13C30.46 60.48 30.46 58.82 30.46 58.82ZM68.98 62.50L68.98 56.95L31.32 56.95L31.32 62.50L39.31 62.50C38.23 66.46 36.86 70.70 35.78 73.87L58.90 73.87C58.18 79.20 57.31 81.65 56.38 82.51C55.73 83.09 55.01 83.16 53.78 83.16C52.49 83.16 49.18 83.16 45.79 82.80C46.80 84.46 47.52 86.83 47.66 88.70C51.26 88.85 54.72 88.85 56.59 88.63C58.75 88.49 60.19 88.06 61.56 86.69C63.58 84.89 64.58 80.57 65.66 71.06C65.88 70.20 65.95 68.47 65.95 68.47L43.92 68.47C44.50 66.53 45.14 64.51 45.72 62.50Z"/></svg>
