<svg xmlns="http://www.w3.org/2000/svg" xmlns:xlink="http://www.w3.org/1999/xlink" width="72.00000000000001" height="106.56000000000002"><path fill="red" stroke="red" d="M59.18 43.06C57.89 45.58 56.38 48.10 54.65 50.47L45.00 50.98C47.09 47.16 49.75 42.19 51.77 38.45L68.47 38.45L68.47 32.33L54.94 32.33L55.15 32.26C54.65 29.74 52.99 25.85 51.41 22.97L45.50 24.70C46.73 27.00 47.88 29.95 48.60 32.33L32.83 32.33L32.83 38.45L45.14 38.45C43.13 42.41 39.96 48.17 38.74 49.54C37.73 50.90 35.64 51.41 34.20 51.77C34.70 53.14 35.50 56.09 35.71 57.67C37.08 57.17 39.02 56.74 50.04 55.94C45.07 61.20 38.95 65.74 32.54 68.83C34.13 70.06 35.78 72.07 36.65 73.58C48.53 67.32 58.75 57.17 64.87 45.07ZM28.66 54.22L9.00 54.22L9.00 50.26L28.66 50.26ZM13.75 64.01C16.20 65.66 19.22 68.18 20.74 69.77L23.69 66.46L23.69 70.42C19.80 72.36 16.20 74.16 13.39 75.38C13.68 72.65 13.75 69.98 13.75 67.68ZM23.69 66.17C22.10 64.73 19.22 62.57 16.56 60.98L13.75 63.86L13.75 58.90L23.69 58.90ZM12.96 30.46L23.98 30.46L23.98 34.27L16.56 34.27L16.56 45.58L12.96 45.58ZM20.16 45.58L20.16 38.30L23.98 38.30L23.98 45.58ZM33.91 56.23L33.91 45.58L29.38 45.58L29.38 25.49L7.70 25.49L7.70 45.58L4.03 45.58L4.03 56.23L8.28 56.23L8.28 67.61C8.28 73.30 7.92 80.64 4.25 86.11C5.54 86.69 7.99 88.49 8.93 89.50C11.52 85.68 12.74 80.57 13.32 75.67L15.48 79.92C18.07 78.41 20.88 76.68 23.69 74.95L23.69 83.16C23.69 83.88 23.47 84.10 22.68 84.10C21.96 84.10 19.80 84.10 17.28 84.02C18.00 85.46 18.79 87.62 19.01 89.21C22.90 89.21 25.34 89.14 27.14 88.20C28.87 87.34 29.30 85.90 29.30 83.16L29.30 56.23ZM62.78 57.60C56.95 69.62 45.65 79.13 31.90 84.10C33.41 85.54 34.99 87.62 35.86 89.28C42.77 86.47 49.03 82.58 54.43 78.05C58.25 81.72 62.42 86.18 64.44 89.21L69.62 85.03C67.25 81.94 62.78 77.40 58.75 73.87C62.71 69.70 66.02 64.94 68.62 59.76Z"/></svg>
