<svg xmlns="http://www.w3.org/2000/svg" xmlns:xlink="http://www.w3.org/1999/xlink" width="72.00000000000001" height="106.56000000000002"><path fill="red" stroke="red" d="M24.34 39.31L12.89 39.31L12.89 31.32L24.34 31.32ZM30.31 26.06L7.20 26.06L7.20 44.57L30.31 44.57ZM12.02 62.50C15.84 63.29 20.66 64.87 23.18 66.31L25.49 61.42C22.90 60.19 18.14 58.75 14.40 58.10ZM11.52 54.65L25.85 54.65L25.85 67.61C20.30 69.34 15.05 70.99 11.09 71.93C11.45 68.33 11.52 64.87 11.52 61.92ZM31.82 82.80L31.82 49.18L5.69 49.18L5.69 61.92C5.69 68.90 5.33 78.84 2.02 86.11C3.46 86.76 6.05 88.42 7.13 89.35C9.50 84.46 10.58 78.12 11.09 72.00L13.32 77.76C17.14 76.39 21.46 74.74 25.85 73.08L25.85 82.66C25.85 83.45 25.63 83.74 24.84 83.74C24.12 83.74 21.74 83.74 19.37 83.66C20.09 85.18 20.81 87.55 21.02 89.14C24.98 89.14 27.65 88.99 29.52 88.06C30.67 87.48 31.32 86.54 31.61 85.18L35.50 87.41C38.16 83.59 39.38 77.47 40.03 72.07L35.14 70.78C34.63 75.02 33.55 79.85 31.82 83.23ZM41.76 73.01C42.55 76.68 43.13 81.58 43.06 84.67L47.16 83.95C47.16 80.86 46.51 76.03 45.65 72.50ZM48.17 72.36C49.39 75.38 50.62 79.42 51.05 82.08L54.79 80.93C54.36 78.41 53.06 74.45 51.70 71.50ZM57.89 34.42L57.89 38.30L41.69 38.30L41.69 34.42ZM41.69 46.51L41.69 42.55L57.89 42.55L57.89 46.51ZM69.12 59.54L69.12 54.72L41.69 54.72L41.69 51.26L63.94 51.26L63.94 29.66L51.70 29.66C52.34 27.94 53.21 26.06 54.00 24.12L46.80 23.11C46.51 24.91 45.86 27.43 45.22 29.66L35.64 29.66L35.64 68.18L62.06 68.18C61.78 71.86 61.56 74.74 61.27 76.97C60.48 74.95 58.90 72.07 57.24 69.84L54.00 71.06C55.58 73.37 57.17 76.54 57.89 78.62L61.27 77.26C60.77 81.07 60.19 83.02 59.54 83.74C59.04 84.38 58.46 84.46 57.38 84.46C56.30 84.46 53.86 84.46 51.12 84.17C51.84 85.54 52.34 87.55 52.42 89.06C55.51 89.28 58.46 89.21 60.05 89.06C61.78 88.85 63.14 88.42 64.22 87.05C66.02 85.10 66.82 79.63 67.68 65.52C67.75 64.73 67.75 63.14 67.75 63.14L41.69 63.14L41.69 59.54Z"/></svg>
