<svg xmlns="http://www.w3.org/2000/svg" xmlns:xlink="http://www.w3.org/1999/xlink" width="72.00000000000001" height="106.56000000000002"><path fill="red" stroke="red" d="M25.34 44.35C26.42 41.69 27.65 37.37 28.87 33.98L25.49 32.69C24.91 35.78 23.69 40.39 22.75 43.27ZM11.02 33.62C11.88 37.01 12.89 41.47 13.32 44.42L16.34 43.42C15.98 40.61 14.90 36.22 13.90 32.83ZM10.37 30.24L17.71 30.24L17.71 46.94L10.37 46.94ZM29.02 46.94L21.74 46.94L21.74 30.24L29.02 30.24ZM35.57 66.10L22.61 66.10L22.61 61.34L33.98 61.34L33.98 56.09L22.61 56.09L22.61 51.62L34.27 51.62L34.27 25.56L5.33 25.56L5.33 51.62L16.99 51.62L16.99 56.09L5.04 56.09L5.04 61.34L16.99 61.34L16.99 66.10L3.53 66.10L3.53 71.57L35.57 71.57ZM7.34 89.35C8.86 85.54 10.58 79.78 11.88 76.10L7.34 74.02C6.19 77.76 4.32 83.38 2.52 86.90ZM14.18 74.95C14.54 79.13 14.69 84.38 14.47 87.91L19.37 87.48C19.44 84.02 19.22 78.77 18.79 74.59ZM21.60 75.31C22.46 79.20 23.40 84.31 23.69 87.62L28.51 86.69C28.15 83.45 27.14 78.55 26.14 74.59ZM29.02 75.46C30.31 79.20 31.82 84.10 32.40 87.26L37.15 85.82C36.50 82.73 34.85 77.90 33.48 74.16ZM59.98 59.83L37.73 59.83L37.73 65.88L57.74 65.88C56.02 72.58 53.42 81.58 51.12 88.49L57.31 89.57C60.26 80.57 63.65 68.76 65.74 60.48L60.98 59.47ZM61.49 46.94L42.12 46.94L42.12 52.70L61.49 52.70ZM51.77 22.46C48.02 30.67 41.18 37.87 34.34 42.19C35.21 43.85 36.65 47.59 37.01 49.25C42.41 45.43 47.59 40.10 51.77 34.06C55.87 39.60 61.20 45.14 66.67 48.74C67.25 46.80 68.69 43.56 69.91 41.83C64.44 38.81 58.90 33.55 55.30 28.22C55.94 27.07 56.52 25.85 57.02 24.62Z"/></svg>
