<svg xmlns="http://www.w3.org/2000/svg" xmlns:xlink="http://www.w3.org/1999/xlink" width="72.00000000000001" height="106.56000000000002"><path fill="red" stroke="red" d="M39.38 71.78L39.38 62.86L57.74 62.86L57.74 71.78ZM14.40 71.78L14.40 62.86L32.18 62.86L32.18 71.78ZM17.14 45.58L17.14 37.08L32.18 37.08L32.18 45.58ZM54.58 37.08L54.58 45.58L39.38 45.58L39.38 37.08ZM39.38 56.66L39.38 51.41L61.85 51.41L61.85 31.25L39.38 31.25L39.38 23.11L32.18 23.11L32.18 31.25L10.30 31.25L10.30 51.41L32.18 51.41L32.18 56.66L7.42 56.66L7.42 80.64L14.40 80.64L14.40 77.76L32.18 77.76L32.18 89.21L39.38 89.21L39.38 77.76L57.74 77.76L57.74 80.57L64.94 80.57L64.94 56.66Z"/></svg>
