<svg xmlns="http://www.w3.org/2000/svg" xmlns:xlink="http://www.w3.org/1999/xlink" width="72.00000000000001" height="106.56000000000002"><path fill="red" stroke="red" d="M56.16 81.58C54.65 81.58 54.36 81.14 54.36 78.41L54.36 38.30L29.45 38.30C29.66 33.26 29.66 28.22 29.74 23.18L22.61 23.18C22.61 28.22 22.61 33.26 22.39 38.30L6.34 38.30L6.34 44.86L22.03 44.86C20.81 60.77 16.78 75.24 2.52 83.88C4.32 85.10 6.48 87.34 7.56 89.14C17.42 82.87 22.90 73.80 25.92 63.58C31.25 67.10 36.65 71.28 39.60 74.30L44.57 68.90C40.82 65.30 33.70 60.55 27.50 56.88C28.22 52.99 28.73 48.96 29.09 44.86L47.45 44.86L47.45 78.41C47.45 86.04 49.25 88.13 55.01 88.13L61.42 88.13C67.10 88.13 68.62 84.10 69.19 71.71C67.39 71.21 64.51 69.91 62.93 68.69C62.71 79.34 62.42 81.58 60.77 81.58Z"/></svg>
