<svg xmlns="http://www.w3.org/2000/svg" xmlns:xlink="http://www.w3.org/1999/xlink" width="72.00000000000001" height="106.56000000000002"><path fill="red" stroke="red" d="M25.06 67.54L25.06 49.03L18.65 49.03L18.65 54.86L5.40 54.86L5.40 60.70L18.65 60.70L18.65 69.55C12.89 71.35 7.49 72.94 3.53 74.09L6.48 80.06C13.32 77.76 22.03 74.59 30.31 71.50L29.30 66.17ZM67.75 45.58L67.75 39.46L39.38 39.46L39.38 32.04C47.66 31.46 55.44 30.53 61.92 29.38L57.46 23.98C45.72 26.06 25.63 27.43 8.64 27.86C9.29 29.30 10.01 31.90 10.08 33.48C17.14 33.34 24.77 33.05 32.33 32.54L32.33 39.46L4.46 39.46L4.46 45.58L32.33 45.58L32.33 89.21L39.38 89.21L39.38 45.58ZM54.50 73.94C52.99 73.94 52.70 73.15 52.70 70.85L52.70 60.70L66.74 60.70L66.74 54.86L52.70 54.86L52.70 49.10L46.22 49.10L46.22 70.70C46.22 76.97 47.81 79.34 54.14 79.34L62.64 79.34C64.66 79.34 66.67 79.34 67.82 78.98C67.54 77.54 67.39 75.24 67.25 73.58C66.10 73.87 63.86 73.94 62.42 73.94Z"/></svg>
