<svg xmlns="http://www.w3.org/2000/svg" xmlns:xlink="http://www.w3.org/1999/xlink" width="72.00000000000001" height="106.56000000000002"><path fill="red" stroke="red" d="M63.22 49.54L61.99 49.97L48.74 49.97L50.11 47.74C48.24 46.80 45.79 45.72 43.06 44.50C49.32 40.46 55.94 35.28 60.84 30.38L55.94 26.64L54.50 27.00L10.80 27.00L10.80 33.19L47.95 33.19C44.57 36.22 40.25 39.38 36.29 41.69C32.04 39.89 27.72 38.23 24.12 36.79L20.66 41.83C26.28 44.06 33.41 47.23 39.24 49.97L4.03 49.97L4.03 56.38L32.98 56.38L32.98 81.29C32.98 82.37 32.62 82.66 31.25 82.73C29.88 82.73 24.84 82.80 20.16 82.58C21.10 84.38 22.25 87.19 22.68 89.06C28.87 89.06 33.26 88.99 36.14 87.98C39.02 87.05 39.96 85.18 39.96 81.43L39.96 56.38L57.89 56.38C55.73 60.12 53.06 63.94 50.83 66.53L56.45 69.91C60.62 65.38 65.16 58.32 68.69 51.91Z"/></svg>
