<svg xmlns="http://www.w3.org/2000/svg" xmlns:xlink="http://www.w3.org/1999/xlink" width="72.00000000000001" height="106.56000000000002"><path fill="red" stroke="red" d="M59.11 58.54L57.53 58.90L7.20 58.90L7.20 64.58L47.74 64.58C43.13 66.60 37.73 68.54 32.83 69.84L32.83 82.01C32.83 83.02 32.33 83.38 30.89 83.38C29.45 83.45 23.47 83.45 18.36 83.23C19.37 84.89 20.38 87.48 20.74 89.28C27.72 89.28 32.54 89.28 35.64 88.42C38.81 87.62 39.89 85.82 39.89 82.30L39.89 73.22C48.46 70.49 57.24 66.60 63.86 62.71ZM51.05 49.97L21.31 49.97L21.31 43.85L51.05 43.85ZM58.10 39.24L14.62 39.24L14.62 54.58L58.10 54.58ZM40.54 29.45C39.53 27.36 38.16 24.70 36.94 22.68L30.31 24.26C31.10 25.85 32.04 27.65 32.83 29.45L4.18 29.45L4.18 35.35L67.82 35.35L67.82 29.45Z"/></svg>
