<svg xmlns="http://www.w3.org/2000/svg" xmlns:xlink="http://www.w3.org/1999/xlink" width="72.00000000000001" height="106.56000000000002"><path fill="red" stroke="red" d="M18.65 23.40C14.76 33.91 8.35 44.42 1.58 51.12C2.66 52.70 4.61 56.30 5.26 57.89C7.27 55.80 9.29 53.35 11.23 50.69L11.23 89.06L17.78 89.06L17.78 40.54C20.52 35.64 22.97 30.46 24.91 25.27ZM68.98 51.62L49.61 51.62L49.61 35.14C55.66 33.91 61.42 32.40 66.17 30.74L60.91 25.27C52.42 28.58 37.80 31.32 24.98 32.83C25.78 34.34 26.71 36.86 26.93 38.52C32.11 37.94 37.44 37.22 42.84 36.36L42.84 51.62L22.61 51.62L22.61 58.10L42.84 58.10L42.84 89.14L49.61 89.14L49.61 58.10L68.98 58.10Z"/></svg>
