<svg xmlns="http://www.w3.org/2000/svg" xmlns:xlink="http://www.w3.org/1999/xlink" width="72.00000000000001" height="106.56000000000002"><path fill="red" stroke="red" d="M19.44 23.33C15.48 33.91 8.86 44.28 1.87 50.90C3.10 52.49 4.97 56.09 5.62 57.67C7.78 55.51 9.94 52.92 11.95 50.18L11.95 89.06L18.36 89.06L18.36 40.39C21.17 35.57 23.62 30.46 25.70 25.34ZM32.33 66.46C29.59 72.00 25.42 78.05 21.53 82.15C23.04 82.94 25.56 84.82 26.71 85.90C30.60 81.36 35.21 74.45 38.38 68.33ZM33.91 32.33L58.18 32.33L58.18 43.92L33.91 43.92ZM68.76 63.58L68.76 57.46L49.18 57.46L49.18 49.90L64.87 49.90L64.87 26.42L27.65 26.42L27.65 49.90L42.48 49.90L42.48 57.46L22.61 57.46L22.61 63.58L42.48 63.58L42.48 89.28L49.18 89.28L49.18 63.58ZM52.56 69.19C56.74 74.16 61.63 81.00 63.79 85.39L69.19 82.08C66.82 77.83 61.99 71.35 57.60 66.38Z"/></svg>
