<svg xmlns="http://www.w3.org/2000/svg" xmlns:xlink="http://www.w3.org/1999/xlink" width="72.00000000000001" height="106.56000000000002"><path fill="red" stroke="red" d="M65.52 26.14L45.14 26.14L45.14 31.82L59.33 31.82L59.33 43.56L45.14 43.56L45.14 49.25L65.52 49.25ZM14.62 23.47C12.10 34.20 7.92 44.93 2.45 51.84C3.60 53.57 5.26 57.24 5.83 58.82C7.27 57.02 8.64 55.08 9.94 52.85L9.94 89.14L16.34 89.14L16.34 39.31C18.14 34.63 19.66 29.81 20.88 24.91ZM36.72 31.68L36.72 43.85L28.80 43.85L28.80 31.68ZM41.98 74.95L41.98 69.34L28.80 69.34L28.80 61.63L41.11 61.63L41.11 56.09L28.80 56.09L28.80 49.39L42.55 49.39L42.55 26.14L22.61 26.14L22.61 88.99L28.80 88.99L28.80 74.95ZM59.54 59.47C58.32 63.86 56.59 67.68 54.36 70.99C52.27 67.54 50.54 63.58 49.32 59.47ZM62.78 53.78L61.70 54.00L43.27 54.00L43.27 59.47L47.74 59.47L44.21 60.34C45.79 65.95 47.95 71.21 50.69 75.60C46.94 79.70 42.19 82.58 36.94 84.46C38.16 85.68 39.67 87.91 40.39 89.42C45.72 87.26 50.33 84.38 54.22 80.50C57.46 84.17 61.13 87.12 65.59 89.21C66.53 87.62 68.26 85.32 69.62 84.10C65.09 82.37 61.27 79.49 58.10 75.96C62.06 70.56 64.94 63.65 66.60 54.94Z"/></svg>
