<svg xmlns="http://www.w3.org/2000/svg" xmlns:xlink="http://www.w3.org/1999/xlink" width="72.00000000000001" height="106.56000000000002"><path fill="red" stroke="red" d="M23.69 29.16L23.69 34.70L68.33 34.70L68.33 29.16L49.82 29.16C49.03 27.14 47.66 24.55 46.44 22.68L40.32 24.41C41.11 25.85 41.98 27.50 42.70 29.16ZM34.56 42.77L56.30 42.77L56.30 47.74L34.56 47.74ZM62.78 52.42L62.78 38.09L28.44 38.09L28.44 52.42ZM18.29 23.26C14.69 33.84 8.71 44.21 2.30 50.98C3.46 52.63 5.33 56.23 5.83 57.74C7.63 55.87 9.29 53.71 11.02 51.34L11.02 89.21L17.14 89.21L17.14 41.40C19.94 36.22 22.39 30.67 24.34 25.27ZM29.02 71.57L42.26 71.57L42.26 82.08C42.26 82.94 41.98 83.23 40.82 83.23C39.74 83.30 35.71 83.30 31.82 83.16C32.69 84.82 33.55 87.19 33.84 88.99C39.38 88.99 43.20 88.99 45.72 88.13C48.31 87.26 49.03 85.54 49.03 82.30L49.03 71.57L61.56 71.57L61.56 66.24L29.02 66.24ZM22.32 56.16L22.32 68.33L28.08 68.33L28.08 61.56L62.57 61.56L62.57 68.40L68.54 68.40L68.54 56.16Z"/></svg>
