<svg xmlns="http://www.w3.org/2000/svg" xmlns:xlink="http://www.w3.org/1999/xlink" width="72.00000000000001" height="106.56000000000002"><path fill="red" stroke="red" d="M18.29 23.47C14.76 33.91 8.93 44.42 2.59 51.19C3.82 52.78 5.76 56.38 6.34 57.96C8.06 56.02 9.72 53.86 11.38 51.55L11.38 89.28L17.86 89.28L17.86 40.75C20.45 35.78 22.75 30.53 24.55 25.34ZM31.03 47.66L41.69 47.66L41.69 54.58L31.03 54.58ZM31.03 35.71L41.69 35.71L41.69 42.55L31.03 42.55ZM58.25 42.55L47.88 42.55L47.88 35.71L58.25 35.71ZM58.25 54.58L47.88 54.58L47.88 47.66L58.25 47.66ZM67.46 77.11C66.74 74.45 65.02 69.70 63.43 66.10L59.98 67.25C60.55 68.76 61.20 70.56 61.78 72.22L56.38 72.79C58.03 69.84 59.76 66.10 60.84 62.57L56.02 61.06C55.22 65.45 53.06 70.20 52.49 71.42C51.77 72.58 51.12 73.44 50.33 73.58C50.90 74.81 51.70 77.18 51.98 78.12C52.92 77.76 54.58 77.26 63.00 76.10C63.29 77.04 63.50 77.98 63.72 78.62L64.37 78.34C64.15 82.37 63.72 83.09 61.78 83.09L53.06 83.09C50.40 83.09 49.97 82.73 49.97 80.71L49.97 59.98L65.02 59.98L65.02 30.31L41.90 30.31C42.91 28.44 43.92 26.21 44.93 23.98L37.37 22.97C36.94 25.06 36.00 27.94 35.14 30.31L24.62 30.31L24.62 59.98L33.34 59.98C32.47 70.78 30.38 79.49 20.30 84.31C21.82 85.54 23.69 87.98 24.48 89.71C36.14 83.59 38.81 73.08 39.82 59.98L43.70 59.98L43.70 80.71C43.70 86.69 45.36 88.34 52.20 88.34L62.42 88.34C67.46 88.34 69.12 86.54 69.77 80.50C68.11 80.14 65.74 79.27 64.37 78.34Z"/></svg>
