<svg xmlns="http://www.w3.org/2000/svg" xmlns:xlink="http://www.w3.org/1999/xlink" width="72.00000000000001" height="106.56000000000002"><path fill="red" stroke="red" d="M16.27 23.18C13.18 33.91 7.99 44.57 2.23 51.55C3.31 53.28 5.04 56.95 5.54 58.61C7.27 56.52 8.93 54.22 10.58 51.55L10.58 89.14L17.06 89.14L17.06 39.24C19.15 34.56 21.02 29.74 22.54 24.91ZM40.03 35.93L50.62 35.93L50.62 41.76L40.03 41.76ZM58.82 63.36L48.96 63.36L48.96 58.25L58.82 58.25ZM48.96 73.66L48.96 68.33L58.82 68.33L58.82 73.66ZM32.76 73.66C32.98 71.86 33.05 69.98 33.12 68.33L42.91 68.33L42.91 73.66ZM33.12 58.25L42.91 58.25L42.91 63.36L33.12 63.36ZM68.04 47.95L68.04 41.76L57.02 41.76L57.02 35.93L66.24 35.93L66.24 29.81L57.02 29.81L57.02 23.47L50.62 23.47L50.62 29.81L40.03 29.81L40.03 23.47L33.62 23.47L33.62 29.81L23.11 29.81L23.11 35.93L33.62 35.93L33.62 41.76L21.10 41.76L21.10 47.95L30.38 47.95C27.07 52.42 22.25 56.38 17.50 58.97C18.65 60.19 20.66 63.14 21.31 64.37C23.11 63.29 24.84 61.99 26.64 60.55L26.64 66.67C26.64 72.65 26.21 80.14 21.74 85.68C23.33 86.40 26.06 88.49 27.22 89.64C29.74 86.47 31.25 82.51 32.04 78.55L42.91 78.55L42.91 87.62L48.96 87.62L48.96 78.55L58.82 78.55L58.82 82.80C58.82 83.45 58.61 83.74 57.96 83.74C57.24 83.74 55.08 83.74 53.06 83.66C53.86 85.10 54.65 87.41 55.01 88.99C58.46 88.99 60.98 88.85 62.86 87.98C64.66 87.05 65.16 85.68 65.16 82.80L65.16 52.85L34.34 52.85C35.50 51.26 36.72 49.68 37.73 47.95Z"/></svg>
