<svg xmlns="http://www.w3.org/2000/svg" xmlns:xlink="http://www.w3.org/1999/xlink" width="72.00000000000001" height="106.56000000000002"><path fill="red" stroke="red" d="M65.74 26.50L59.33 26.50L59.33 36.79L49.32 36.79L49.32 23.26L42.91 23.26L42.91 36.79L32.11 36.79L32.11 26.50L25.99 26.50L25.99 42.62L65.74 42.62ZM16.06 23.47C12.96 34.20 7.85 44.86 2.16 51.84C3.24 53.57 4.97 57.31 5.62 58.90C7.49 56.52 9.29 53.86 11.09 50.90L11.09 89.21L17.50 89.21L17.50 38.09C19.37 33.91 20.88 29.52 22.25 25.20ZM32.40 75.60L45.94 75.60L45.94 80.35L32.40 80.35ZM45.94 60.84L32.40 60.84L32.40 56.16L45.94 56.16ZM45.94 70.63L32.40 70.63L32.40 65.74L45.94 65.74ZM68.90 80.35L52.27 80.35L52.27 75.60L66.02 75.60L66.02 70.63L52.27 70.63L52.27 65.74L66.02 65.74L66.02 60.84L52.27 60.84L52.27 56.16L67.61 56.16L67.61 50.76L53.06 50.76C52.27 48.53 50.76 45.36 49.32 43.06L43.42 44.71C44.42 46.51 45.50 48.82 46.22 50.76L33.41 50.76C34.13 48.89 34.78 46.87 35.42 44.93L29.52 43.27C27.29 51.12 23.33 58.54 18.65 63.50C19.80 65.02 21.53 68.33 22.10 69.77C23.62 68.18 24.98 66.31 26.35 64.30L26.35 89.21L32.40 89.21L32.40 86.04L68.90 86.04Z"/></svg>
