<svg xmlns="http://www.w3.org/2000/svg" xmlns:xlink="http://www.w3.org/1999/xlink" width="72.00000000000001" height="106.56000000000002"><path fill="red" stroke="red" d="M18.43 23.40C14.54 33.91 8.14 44.42 1.37 51.12C2.45 52.70 4.39 56.30 5.04 57.89C7.13 55.66 9.22 53.14 11.23 50.40L11.23 89.06L17.57 89.06L17.57 40.46C20.30 35.57 22.75 30.38 24.70 25.27ZM32.90 56.45L32.90 50.62L42.70 50.62L42.70 56.45ZM59.33 50.62L59.33 56.45L49.25 56.45L49.25 50.62ZM39.10 34.34L52.99 34.34L52.99 38.59L39.10 38.59ZM49.25 82.94L49.25 78.41L65.09 78.41L65.09 73.58L49.25 73.58L49.25 69.48L66.67 69.48L66.67 64.44L49.25 64.44L49.25 60.98L65.95 60.98L65.95 46.08L49.25 46.08L49.25 43.06L59.47 43.06L59.47 34.34L68.69 34.34L68.69 29.30L59.47 29.30L59.47 23.11L52.99 23.11L52.99 29.30L39.10 29.30L39.10 23.11L32.83 23.11L32.83 29.30L23.83 29.30L23.83 34.34L32.83 34.34L32.83 43.06L42.70 43.06L42.70 46.08L26.71 46.08L26.71 60.98L42.70 60.98L42.70 64.44L25.70 64.44L25.70 69.48L42.70 69.48L42.70 73.58L27.22 73.58L27.22 78.41L42.70 78.41L42.70 82.94L22.90 82.94L22.90 87.98L69.12 87.98L69.12 82.94Z"/></svg>
