<svg xmlns="http://www.w3.org/2000/svg" xmlns:xlink="http://www.w3.org/1999/xlink" width="72.00000000000001" height="106.56000000000002"><path fill="red" stroke="red" d="M19.01 42.41C17.14 38.09 12.82 31.18 9.36 26.14L3.38 28.87C6.70 34.13 10.80 41.26 12.60 45.65ZM10.37 85.97C13.61 78.98 17.21 69.98 20.30 61.92L14.11 58.68C10.87 67.39 6.55 76.97 3.38 82.87ZM32.04 69.77L46.15 69.77L46.15 78.34L32.04 78.34ZM46.15 49.90L32.04 49.90L32.04 41.54L46.15 41.54ZM46.15 64.01L32.04 64.01L32.04 55.73L46.15 55.73ZM68.69 78.34L52.70 78.34L52.70 69.77L65.95 69.77L65.95 64.01L52.70 64.01L52.70 55.73L66.02 55.73L66.02 49.90L52.70 49.90L52.70 41.54L67.46 41.54L67.46 35.71L50.83 35.71L54.86 33.62C53.71 30.82 51.26 26.64 49.10 23.47L43.42 26.14C45.22 29.02 47.38 32.90 48.53 35.71L33.77 35.71C35.28 32.33 36.72 28.80 37.87 25.27L31.68 23.69C28.15 34.78 22.10 45.58 14.90 52.27C16.34 53.42 18.72 55.87 19.66 57.17C21.82 54.94 23.98 52.34 25.92 49.46L25.92 89.28L32.04 89.28L32.04 84.31L68.69 84.31Z"/></svg>
