<svg xmlns="http://www.w3.org/2000/svg" xmlns:xlink="http://www.w3.org/1999/xlink" width="72.00000000000001" height="106.56000000000002"><path fill="red" stroke="red" d="M47.95 46.51L47.95 51.41C47.95 56.81 49.25 58.82 54.94 58.82L62.35 58.82C64.01 58.82 65.95 58.68 66.89 58.39C66.67 57.02 66.53 54.79 66.38 53.21C65.38 53.50 63.29 53.57 62.14 53.57L55.30 53.57C54.00 53.57 53.86 53.06 53.86 51.48L53.86 46.51L68.11 46.51L68.11 40.97L47.81 40.97L47.81 34.78L63.14 34.78L63.14 29.38L47.81 29.38L47.81 23.18L41.33 23.18L41.33 29.38L26.28 29.38L26.28 34.78L41.33 34.78L41.33 40.97L21.60 40.97L21.60 46.51L33.48 46.51C32.33 51.48 29.30 54.72 20.74 56.59C21.96 57.60 23.62 59.98 24.26 61.49C34.49 58.46 38.23 53.71 39.67 46.51ZM19.66 43.99C17.86 39.31 13.61 31.90 9.94 26.50L4.18 28.87C7.70 34.49 11.66 42.19 13.39 46.80ZM14.26 57.46C11.02 66.46 6.48 76.61 3.31 82.80L9.58 85.61C12.89 78.41 16.70 68.90 19.73 60.34ZM52.99 67.10C51.05 70.13 48.24 72.86 44.57 75.31C41.47 73.30 38.81 71.14 36.65 68.76C37.15 68.26 37.66 67.68 38.16 67.10ZM57.60 61.49L56.45 61.70L42.19 61.70C43.20 60.05 44.14 58.32 44.93 56.59L38.66 54.94C37.30 58.18 35.35 61.20 32.90 63.79C32.33 62.86 31.82 61.78 31.32 60.77L26.57 63.43C27.22 64.87 28.01 66.24 28.87 67.61C26.57 69.41 24.12 70.99 21.53 72.29C22.82 73.37 25.13 75.82 26.06 77.04C28.37 75.82 30.46 74.23 32.54 72.50C34.34 74.66 36.43 76.54 38.88 78.41C33.48 80.86 26.93 82.87 19.08 84.10C20.45 85.54 21.96 87.84 22.75 89.57C31.54 87.91 38.88 85.46 44.78 82.22C50.47 85.39 57.38 87.77 65.66 89.21C66.46 87.41 67.97 84.82 69.26 83.45C62.06 82.58 55.87 80.78 50.62 78.48C56.09 74.38 59.90 69.34 62.06 63.43Z"/></svg>
