<svg xmlns="http://www.w3.org/2000/svg" xmlns:xlink="http://www.w3.org/1999/xlink" width="72.00000000000001" height="106.56000000000002"><path fill="red" stroke="red" d="M42.12 31.75L42.12 71.50L48.60 71.50L48.60 31.75ZM59.26 24.55L59.26 80.71C59.26 82.01 58.75 82.44 57.38 82.51C55.94 82.51 51.48 82.58 46.51 82.37C47.59 84.31 48.60 87.41 48.89 89.21C55.44 89.28 59.76 89.06 62.42 88.06C64.94 86.83 65.95 84.89 65.95 80.71L65.95 24.55ZM11.81 72.86C9.79 77.47 6.26 82.15 2.52 85.25C4.10 86.18 6.84 88.20 8.14 89.35C11.95 85.75 16.06 80.21 18.43 74.66ZM23.83 75.38C27.00 79.20 30.31 84.60 31.68 88.13L37.73 85.10C36.22 81.65 32.90 76.68 29.66 72.94ZM13.32 44.78L28.66 44.78L28.66 52.42L13.32 52.42ZM13.32 57.74L28.66 57.74L28.66 65.45L13.32 65.45ZM13.32 31.82L28.66 31.82L28.66 39.31L13.32 39.31ZM6.98 25.85L6.98 71.35L35.28 71.35L35.28 25.85Z"/></svg>
