<svg xmlns="http://www.w3.org/2000/svg" xmlns:xlink="http://www.w3.org/1999/xlink" width="72.00000000000001" height="106.56000000000002"><path fill="red" stroke="red" d="M41.54 31.61L27.65 31.61C27.00 29.09 25.49 25.56 23.98 22.75L18.22 24.41C19.22 26.57 20.23 29.30 21.02 31.61L5.33 31.61L5.33 37.58L41.54 37.58ZM32.54 68.54L32.54 79.70L14.62 79.70L14.62 68.54ZM8.14 88.85L14.62 88.85L14.62 85.54L32.54 85.54L32.54 88.34L39.31 88.34L39.31 62.50L8.14 62.50ZM30.96 37.66C30.02 41.47 28.01 46.87 26.28 50.69L14.69 50.69L20.38 49.03C19.73 46.01 17.93 41.33 16.06 37.80L10.08 39.31C11.88 42.84 13.46 47.59 14.18 50.69L3.31 50.69L3.31 56.74L43.20 56.74L43.20 50.69L32.90 50.69C34.42 47.30 36.22 42.98 37.73 39.17ZM52.78 30.96L46.51 30.96L46.51 71.28L52.78 71.28ZM59.40 24.55L59.40 81.00C59.40 82.15 58.97 82.51 57.74 82.58C56.74 82.58 52.99 82.58 49.03 82.51C49.97 84.24 50.83 87.12 51.12 88.85C56.81 88.92 60.41 88.63 62.64 87.55C64.80 86.54 65.66 84.74 65.66 81.00L65.66 24.55Z"/></svg>
