<svg xmlns="http://www.w3.org/2000/svg" xmlns:xlink="http://www.w3.org/1999/xlink" width="72.00000000000001" height="106.56000000000002"><path fill="red" stroke="red" d="M23.40 23.04C21.82 25.42 18.86 28.87 16.06 31.97C19.66 35.21 22.82 38.66 24.55 41.18L29.59 39.17C28.15 37.08 25.34 34.20 22.61 31.82C24.70 29.59 27.00 27.07 29.02 24.55ZM12.31 58.46L12.31 54.43L20.38 54.43L20.38 58.46ZM20.38 49.90L12.31 49.90L12.31 45.94L20.38 45.94ZM34.42 49.90L26.57 49.90L26.57 45.94L34.42 45.94ZM34.42 58.46L26.57 58.46L26.57 54.43L34.42 54.43ZM42.91 71.93L42.91 66.60L26.57 66.60L26.57 63.22L40.46 63.22L40.46 41.18L37.58 41.18L42.41 39.24C40.82 37.15 37.87 34.27 34.99 31.90C37.22 29.59 39.60 27.07 41.90 24.62L36.07 23.04C34.34 25.42 31.18 28.94 28.22 31.97C31.97 35.21 35.35 38.66 37.15 41.18L12.46 41.18L17.28 39.31C15.84 37.22 13.25 34.34 10.66 31.90C12.60 29.59 14.69 27.07 16.70 24.55L11.09 23.04C9.50 25.42 6.84 28.87 4.18 31.97C7.49 35.21 10.37 38.66 12.02 41.18L6.48 41.18L6.48 63.22L20.38 63.22L20.38 66.60L4.18 66.60L4.18 71.93L17.21 71.93C13.18 76.18 7.49 80.21 2.38 82.51C3.74 83.66 5.69 85.90 6.62 87.48C11.23 84.96 16.34 80.86 20.38 76.39L20.38 89.21L26.57 89.21L26.57 76.39C30.96 79.27 36.65 83.16 39.24 85.18L42.98 80.06C40.82 78.62 33.05 74.30 28.51 71.93ZM53.06 31.82L46.80 31.82L46.80 72.65L53.06 72.65ZM59.76 24.55L59.76 80.93C59.76 82.15 59.33 82.51 58.10 82.58C56.95 82.58 53.21 82.66 49.10 82.51C49.97 84.31 50.98 87.34 51.26 89.14C57.02 89.14 60.70 88.92 63.00 87.77C65.23 86.76 66.17 84.82 66.17 81.00L66.17 24.55Z"/></svg>
