<svg xmlns="http://www.w3.org/2000/svg" xmlns:xlink="http://www.w3.org/1999/xlink" width="72.00000000000001" height="106.56000000000002"><path fill="red" stroke="red" d="M61.49 26.71C60.26 29.23 57.89 32.90 56.02 35.28L60.19 37.08C62.28 34.99 64.87 31.82 67.25 28.80ZM45.43 32.04C44.21 30.53 41.69 28.01 39.74 26.28L36.00 29.38C37.87 31.32 40.32 33.98 41.54 35.71ZM30.10 26.71C29.02 29.16 26.93 32.62 25.20 34.85L29.30 36.58C31.18 34.56 33.41 31.61 35.71 28.73ZM15.12 32.76C13.75 31.03 11.09 28.22 9.00 26.14L5.11 29.30C7.06 31.46 9.72 34.49 11.02 36.29ZM36.86 62.14C37.15 59.90 37.37 57.38 37.51 54.79L30.38 54.79C30.24 57.46 30.02 59.90 29.74 62.14L10.51 62.14L10.51 68.18L28.44 68.18C25.92 76.03 19.87 80.57 4.10 83.16C5.40 84.60 7.06 87.41 7.63 89.21C26.35 85.75 33.12 79.27 35.78 68.18L53.57 68.18C52.92 77.18 51.98 81.14 50.76 82.30C50.04 82.87 49.25 83.02 47.81 83.02C46.15 83.02 41.90 82.94 37.66 82.58C38.88 84.38 39.67 87.05 39.82 88.99C44.14 89.21 48.38 89.21 50.62 89.06C53.14 88.78 54.86 88.27 56.38 86.62C58.46 84.46 59.54 78.62 60.48 64.94C60.62 64.01 60.70 62.14 60.70 62.14ZM48.60 23.04C48.02 34.63 46.37 40.46 34.42 43.70C35.71 44.86 37.22 47.09 37.80 48.60C43.99 46.73 47.88 44.14 50.33 40.61C54.36 43.27 58.90 46.37 61.85 48.60L8.64 48.60C14.26 46.80 17.93 44.28 20.16 40.90C23.33 43.06 26.78 45.58 28.66 47.16L33.05 43.13C30.67 41.11 26.06 38.16 22.61 36.00C23.69 32.47 24.12 28.22 24.34 23.04L18.36 23.04C17.93 35.35 16.13 41.11 3.53 44.28C4.61 45.29 5.90 47.16 6.55 48.60L6.12 48.60L6.12 61.92L12.53 61.92L12.53 54.43L59.54 54.43L59.54 61.92L66.24 61.92L66.24 48.60L63.58 48.60L67.10 44.93C63.79 42.48 57.53 38.52 52.85 35.64C53.93 32.18 54.43 28.01 54.65 23.04Z"/></svg>
