<svg xmlns="http://www.w3.org/2000/svg" xmlns:xlink="http://www.w3.org/1999/xlink" width="72.00000000000001" height="106.56000000000002"><path fill="red" stroke="red" d="M43.34 30.67L43.34 25.49L6.12 25.49L6.12 50.04C6.12 60.41 5.83 74.74 2.23 84.82C3.60 85.32 5.98 86.76 6.98 87.70C10.87 77.04 11.45 60.98 11.45 50.04L11.45 30.67ZM37.15 43.06L37.15 40.03L41.76 40.03L41.76 35.64L37.15 35.64L37.15 31.75L31.90 31.75L31.90 35.64L28.01 35.64L28.01 40.03L31.90 40.03L31.90 43.06ZM22.90 43.06L22.90 40.03L26.42 40.03L26.42 35.64L22.90 35.64L22.90 31.82L17.64 31.82L17.64 35.64L12.67 35.64L12.67 40.03L17.64 40.03L17.64 43.06ZM18.58 58.97L18.58 55.44L24.91 55.44L24.91 58.97ZM18.58 48.38L24.91 48.38L24.91 51.77L18.58 51.77ZM36.36 51.77L29.88 51.77L29.88 48.38L36.36 48.38ZM36.36 58.97L29.88 58.97L29.88 55.44L36.36 55.44ZM67.61 39.74L54.86 39.74C54.94 34.49 55.01 29.09 55.01 23.69L49.10 23.69C49.10 29.09 49.10 34.49 48.96 39.74L42.77 39.74L42.70 45.86L48.89 45.86C48.46 60.98 47.02 74.30 42.41 83.45L42.41 66.10L29.88 66.10L29.88 62.93L41.11 62.93L41.11 44.42L13.97 44.42L13.97 62.93L24.91 62.93L24.91 66.10L18.36 66.10L18.36 64.58L13.39 64.58L13.39 66.10L11.59 66.10L11.59 70.70L13.39 70.70L13.39 87.84L18.36 87.84L18.36 70.70L24.77 70.70L24.77 76.82C22.75 77.04 20.81 77.18 19.15 77.33L19.94 81.79C23.98 81.22 28.51 80.64 33.34 79.99C33.55 80.93 33.62 81.79 33.70 82.58L36.79 81.79C36.50 79.20 35.42 75.17 34.06 72.14L31.25 72.86C31.61 73.80 31.97 74.81 32.33 75.96L29.30 76.25L29.30 70.70L37.44 70.70L37.44 83.52C37.44 84.17 37.22 84.31 36.58 84.31C36.00 84.31 34.20 84.31 32.18 84.24C32.69 85.46 33.34 87.19 33.55 88.49C36.79 88.49 39.02 88.49 40.46 87.70C41.54 87.19 42.05 86.47 42.26 85.46C43.85 86.40 45.65 88.06 46.44 89.21C52.34 78.84 54.14 63.36 54.79 45.86L61.70 45.86C61.20 70.92 60.48 79.78 59.11 81.65C58.54 82.58 57.96 82.80 56.95 82.80C55.80 82.80 53.42 82.80 50.76 82.58C51.70 84.17 52.34 86.69 52.42 88.34C55.30 88.49 58.10 88.56 59.90 88.20C61.85 87.91 63.14 87.34 64.44 85.39C66.38 82.51 66.96 72.58 67.61 42.70Z"/></svg>
