<svg xmlns="http://www.w3.org/2000/svg" xmlns:xlink="http://www.w3.org/1999/xlink" width="72.00000000000001" height="106.56000000000002"><path fill="red" stroke="red" d="M61.85 76.97C64.08 76.97 66.38 76.82 67.68 76.39C67.32 75.02 67.10 72.07 66.89 70.42C65.74 70.70 63.65 70.85 62.06 70.85L52.78 70.85C50.69 70.85 50.18 69.84 50.18 66.53L50.18 48.02L65.66 48.02L65.66 42.05L50.18 42.05L50.18 25.34L43.70 25.34L43.70 66.17C43.70 74.16 45.65 76.97 52.92 76.97ZM30.96 35.06L13.10 35.06L13.10 30.31L30.96 30.31ZM30.96 44.21L13.10 44.21L13.10 39.46L30.96 39.46ZM37.15 25.70L7.13 25.70L7.13 48.82L37.15 48.82ZM26.06 71.21L38.45 71.21L38.45 65.81L26.06 65.81L26.06 58.61L39.89 58.61L39.89 53.06L3.60 53.06L3.60 58.61L19.73 58.61L19.73 77.90C17.06 76.10 15.05 73.66 13.46 70.13C13.75 67.39 13.97 64.66 14.11 61.92L8.21 61.92C7.85 70.34 6.77 79.56 2.38 84.74C3.82 85.82 5.76 87.98 6.62 89.57C9.36 86.47 11.09 82.30 12.24 77.62C18.29 86.33 27.79 87.91 42.19 87.91L67.32 87.91C67.61 86.18 68.69 83.45 69.62 82.01C64.87 82.22 46.01 82.22 42.26 82.22C35.93 82.22 30.60 81.94 26.06 80.71Z"/></svg>
