<svg xmlns="http://www.w3.org/2000/svg" xmlns:xlink="http://www.w3.org/1999/xlink" width="72.00000000000001" height="106.56000000000002"><path fill="red" stroke="red" d="M50.98 41.69L28.94 41.69L28.94 32.33L50.98 32.33ZM57.67 26.57L22.68 26.57L22.68 47.45L57.67 47.45ZM35.64 78.55C44.64 81.79 57.24 86.83 63.50 89.78L66.60 84.10C60.05 81.14 47.30 76.54 38.59 73.66ZM54.72 58.10L54.72 65.81L37.80 65.81C38.23 63.50 38.52 60.84 38.81 58.10ZM61.49 65.81L61.49 52.06L16.78 52.06L16.78 29.23L10.01 29.23L10.01 58.10L32.11 58.10C31.90 60.91 31.54 63.50 31.10 65.81L4.25 65.81L4.25 71.93L28.94 71.93C25.56 78.19 18.50 81.86 2.81 83.88C4.03 85.18 5.40 87.77 5.90 89.42C24.84 86.62 32.69 81.22 36.22 71.93L67.82 71.93L67.82 65.81Z"/></svg>
