<svg xmlns="http://www.w3.org/2000/svg" xmlns:xlink="http://www.w3.org/1999/xlink" width="72.00000000000001" height="106.56000000000002"><path fill="red" stroke="red" d="M19.58 36.00L19.58 65.09L11.52 65.09L11.52 36.00ZM25.92 71.57L25.92 53.35C27.65 54.29 30.24 55.94 31.39 56.88C34.42 52.92 36.94 47.81 39.10 42.05L60.48 42.05C59.47 46.51 58.18 51.19 56.88 54.36L62.64 56.23C64.94 51.34 67.25 43.56 68.90 36.72L63.86 35.28L62.71 35.57L41.33 35.57C42.34 31.97 43.27 28.15 44.06 24.34L37.37 23.18C35.35 34.56 31.46 45.58 25.92 52.63L25.92 29.52L5.18 29.52L5.18 77.18L11.52 77.18L11.52 71.57ZM50.11 47.16L43.56 47.16L43.56 52.99C43.56 62.14 41.83 75.31 23.04 84.24C24.55 85.39 26.71 87.77 27.65 89.28C39.24 83.59 44.93 76.18 47.66 68.83C51.26 78.12 56.66 85.18 65.09 88.99C65.95 87.19 68.04 84.53 69.48 83.23C58.82 79.20 52.78 69.05 50.04 56.52C50.11 55.37 50.11 54.22 50.11 53.14Z"/></svg>
