<svg xmlns="http://www.w3.org/2000/svg" xmlns:xlink="http://www.w3.org/1999/xlink" width="72.00000000000001" height="106.56000000000002"><path fill="red" stroke="red" d="M18.14 64.22L11.59 64.22L11.59 35.86L18.14 35.86ZM38.02 34.70C39.02 31.39 39.89 27.94 40.68 24.41L34.49 23.18C32.54 33.62 29.09 43.70 24.12 50.54L24.12 29.66L5.54 29.66L5.54 77.04L11.59 77.04L11.59 70.42L24.12 70.42L24.12 52.92C25.56 53.86 27.22 55.22 28.08 55.94C31.10 51.84 33.77 46.58 36.00 40.68L40.82 40.68C37.66 52.99 32.33 63.72 24.55 70.56C25.92 71.57 28.22 73.73 29.09 74.88C37.22 66.89 43.34 54.79 46.94 40.68L51.84 40.68C48.67 58.82 42.84 73.66 31.97 82.66C33.41 83.74 35.64 86.04 36.58 87.19C47.95 76.82 54.29 60.84 57.89 40.68L61.27 40.68C59.98 68.69 58.39 79.27 56.30 81.72C55.58 82.80 54.86 83.02 53.64 83.02C52.27 83.02 49.54 82.94 46.44 82.66C47.38 84.38 48.10 86.98 48.24 88.70C51.41 88.85 54.43 88.92 56.45 88.63C58.75 88.27 60.26 87.62 61.78 85.46C64.58 81.94 66.02 70.70 67.54 37.80C67.61 36.94 67.61 34.70 67.61 34.70Z"/></svg>
