<svg xmlns="http://www.w3.org/2000/svg" xmlns:xlink="http://www.w3.org/1999/xlink" width="72.00000000000001" height="106.56000000000002"><path fill="red" stroke="red" d="M17.28 35.86L17.28 64.22L11.23 64.22L11.23 35.86ZM22.97 29.66L5.40 29.66L5.40 77.11L11.23 77.11L11.23 70.42L22.97 70.42ZM59.90 73.66C57.82 68.83 53.28 60.91 49.32 54.50C49.46 53.42 49.61 52.34 49.68 51.26L58.46 51.26L58.46 45.79L49.97 45.79L49.97 43.85L49.97 34.49L44.71 34.49L44.71 43.78L44.71 45.79L36.29 45.79L36.29 51.26L44.28 51.26C43.56 58.75 41.26 66.82 34.13 73.51C35.42 74.38 37.37 76.18 38.30 77.33C43.27 72.58 46.22 67.03 47.81 61.56C50.90 66.96 53.78 72.65 55.37 76.46ZM33.91 79.42L33.91 32.47L60.77 32.47L60.77 79.42ZM27.86 26.50L27.86 89.42L33.91 89.42L33.91 85.39L60.77 85.39L60.77 88.85L67.03 88.85L67.03 26.50Z"/></svg>
