<svg xmlns="http://www.w3.org/2000/svg" xmlns:xlink="http://www.w3.org/1999/xlink" width="72.00000000000001" height="106.56000000000002"><path fill="red" stroke="red" d="M19.58 36.00L19.58 65.09L11.59 65.09L11.59 36.00ZM25.63 71.57L25.63 29.52L5.54 29.52L5.54 77.18L11.59 77.18L11.59 71.57ZM36.94 70.49C33.91 76.03 28.66 81.43 23.40 84.89C24.91 85.90 27.58 88.06 28.87 89.28C34.13 85.32 39.89 78.98 43.42 72.65ZM51.70 73.58C55.94 78.34 61.13 84.96 63.43 89.14L69.19 85.46C66.67 81.36 61.70 75.17 57.17 70.56ZM42.19 44.21L53.57 44.21L53.57 60.41L42.19 60.41ZM60.12 60.41L60.12 44.21L67.75 44.21L67.75 37.80L60.12 37.80L60.12 23.83L53.57 23.83L53.57 37.80L42.19 37.80L42.19 23.83L35.71 23.83L35.71 37.80L28.37 37.80L28.37 44.21L35.71 44.21L35.71 60.41L27.36 60.41L27.36 66.96L69.12 66.96L69.12 60.41Z"/></svg>
