<svg xmlns="http://www.w3.org/2000/svg" xmlns:xlink="http://www.w3.org/1999/xlink" width="72.00000000000001" height="106.56000000000002"><path fill="red" stroke="red" d="M53.50 70.99L53.50 81.29L20.23 81.29L20.23 70.99ZM13.61 89.21L20.23 89.21L20.23 86.62L53.50 86.62L53.50 89.14L60.34 89.14L60.34 65.59L13.61 65.59ZM59.18 47.66C56.16 49.39 51.19 51.62 47.02 53.06C44.86 51.55 43.13 49.75 41.69 47.66L67.39 47.66L67.39 43.06L16.63 43.06C16.70 41.76 16.78 40.54 16.85 39.31L60.48 39.31L60.48 34.92L16.85 34.92L16.85 31.39L64.22 31.39L64.22 26.28L10.22 26.28L10.22 37.15C10.22 44.78 9.36 55.01 2.66 62.42C4.03 63.29 6.77 65.74 7.78 66.96C12.67 61.70 15.05 54.50 16.06 47.66L22.25 47.66L22.25 54.65C22.25 57.96 20.59 59.90 19.44 60.77C20.30 61.85 22.03 64.08 22.54 65.45C23.76 64.51 25.99 63.79 39.38 60.19C39.24 58.97 39.17 56.59 39.24 55.15L28.30 57.67L28.30 47.66L35.71 47.66C40.97 58.03 50.54 63.58 65.52 65.74C66.17 63.94 67.75 61.56 69.05 60.19C62.06 59.62 56.16 58.10 51.55 55.87C55.51 54.50 60.12 52.85 64.01 50.98Z"/></svg>
