<svg xmlns="http://www.w3.org/2000/svg" xmlns:xlink="http://www.w3.org/1999/xlink" width="72.00000000000001" height="106.56000000000002"><path fill="red" stroke="red" d="M16.85 35.86L16.85 64.22L10.58 64.22L10.58 35.86ZM22.10 29.66L5.33 29.66L5.33 77.04L10.58 77.04L10.58 70.42L22.10 70.42ZM31.54 47.09L31.54 53.06L25.70 53.06L25.70 58.61L31.54 58.61L31.54 64.94L36.79 64.94L36.79 58.61L41.47 58.61L41.47 53.06L36.79 53.06L36.79 47.09ZM63.07 47.09L57.82 47.09L57.82 53.14L52.27 53.14L52.27 58.68L57.82 58.68L57.82 64.94L63.07 64.94L63.07 58.68L68.40 58.68L68.40 53.14L63.07 53.14ZM50.11 38.59L50.11 31.61C55.51 31.10 60.62 30.38 64.87 29.45L61.85 23.83C53.86 25.70 41.04 26.93 30.02 27.50C30.67 28.94 31.46 31.32 31.61 32.83C35.50 32.69 39.60 32.47 43.78 32.18L43.78 38.59L25.20 38.59L25.20 44.42L43.78 44.42L43.78 68.26L28.08 68.26L28.08 74.02L43.78 74.02L43.78 81.07L26.21 81.07L26.21 86.98L67.32 86.98L67.32 81.07L50.11 81.07L50.11 74.02L65.52 74.02L65.52 68.26L50.11 68.26L50.11 44.42L68.40 44.42L68.40 38.59Z"/></svg>
