<svg xmlns="http://www.w3.org/2000/svg" xmlns:xlink="http://www.w3.org/1999/xlink" width="72.00000000000001" height="106.56000000000002"><path fill="red" stroke="red" d="M64.44 23.76L58.10 23.76L58.10 54.94C58.10 55.87 57.82 56.16 56.66 56.16C55.66 56.23 52.13 56.23 48.46 56.09C49.32 57.74 50.18 60.41 50.47 62.14C55.58 62.14 59.11 61.99 61.42 61.06C63.79 60.05 64.44 58.39 64.44 55.01ZM51.05 27.29L44.93 27.29L44.93 51.26L51.05 51.26ZM19.73 40.61L19.73 31.82L27.36 31.82L27.36 40.61ZM39.67 80.57L39.67 72.94L60.84 72.94L60.84 66.82L39.67 66.82L39.67 59.90L33.62 59.90L33.62 46.58L41.11 46.58L41.11 40.61L33.62 40.61L33.62 31.82L39.53 31.82L39.53 25.92L7.27 25.92L7.27 31.82L13.54 31.82L13.54 40.61L4.82 40.61L4.82 46.58L12.96 46.58C12.02 50.83 9.72 55.01 3.89 58.32C5.11 59.26 7.42 61.78 8.28 63.00C15.48 58.82 18.29 52.63 19.30 46.58L27.36 46.58L27.36 61.20L32.76 61.20L32.76 66.82L11.16 66.82L11.16 72.94L32.76 72.94L32.76 80.57L3.82 80.57L3.82 86.76L68.18 86.76L68.18 80.57Z"/></svg>
