<svg xmlns="http://www.w3.org/2000/svg" xmlns:xlink="http://www.w3.org/1999/xlink" width="72.00000000000001" height="106.56000000000002"><path fill="red" stroke="red" d="M67.75 42.55C65.30 38.23 59.83 31.39 55.37 26.57L50.40 29.66C52.13 31.61 54.00 33.98 55.80 36.22L38.45 37.15C42.05 33.70 45.72 29.45 48.82 25.13L42.12 23.04C38.81 28.66 33.77 34.13 32.11 35.57C30.67 37.08 29.38 38.16 28.01 38.30C28.73 39.96 29.81 43.06 30.10 44.42C32.18 43.56 35.35 43.27 59.69 41.62C60.84 43.27 61.78 44.78 62.42 46.15ZM24.26 61.99L17.78 64.80L17.78 46.37L25.20 46.37L25.20 40.03L17.78 40.03L17.78 24.05L11.52 24.05L11.52 40.03L3.38 40.03L3.38 46.37L11.52 46.37L11.52 67.32C8.14 68.69 5.04 69.91 2.59 70.85L5.26 77.54C11.23 74.88 18.79 71.35 25.78 67.97ZM68.33 69.91L68.33 64.08L49.97 64.08C50.11 62.86 50.11 61.78 50.11 60.62L50.11 55.80L65.52 55.80L65.52 50.04L39.53 50.04C40.32 48.38 41.11 46.80 41.76 45.14L35.57 43.49C33.48 49.10 29.88 54.94 25.99 58.82C27.50 59.62 30.17 61.34 31.32 62.35C32.98 60.55 34.63 58.25 36.22 55.80L43.78 55.80L43.78 60.41C43.78 61.63 43.70 62.78 43.56 64.08L26.93 64.08L26.93 69.91L42.12 69.91C39.89 75.24 34.85 80.42 23.54 84.24C24.84 85.54 26.71 87.91 27.43 89.35C41.47 84.38 46.94 77.11 48.96 69.91ZM48.24 75.24C53.71 79.42 60.84 85.46 64.30 89.21L69.19 84.82C65.52 81.14 58.25 75.38 52.78 71.50Z"/></svg>
