<svg xmlns="http://www.w3.org/2000/svg" xmlns:xlink="http://www.w3.org/1999/xlink" width="72.00000000000001" height="106.56000000000002"><path fill="red" stroke="red" d="M47.52 35.14C44.06 39.02 39.46 42.48 34.27 45.29C31.90 42.91 28.30 39.96 24.84 37.51C25.99 36.79 27.14 36.00 28.22 35.14ZM53.50 28.87L52.34 29.23L35.14 29.23C36.79 27.72 38.30 26.21 39.60 24.62L32.33 22.97C27.72 28.80 19.08 35.28 7.63 39.89C9.14 40.97 11.16 43.13 12.17 44.71C14.83 43.49 17.35 42.12 19.73 40.82C22.82 43.06 26.06 45.86 28.30 48.31C21.10 51.41 13.25 53.64 5.54 54.94C6.70 56.38 8.06 59.18 8.71 60.84C28.08 56.95 48.74 47.74 57.89 31.54ZM57.96 60.84C54.50 65.88 49.61 69.84 43.92 73.01C41.47 70.49 37.66 67.32 34.27 64.80C36.22 63.50 38.16 62.21 39.89 60.84ZM63.36 54.58L62.21 54.86L46.80 54.86C48.46 53.21 49.90 51.55 51.34 49.75L43.99 48.10C38.66 55.15 28.58 62.64 14.04 67.61C15.48 68.76 17.35 71.14 18.22 72.79C21.96 71.28 25.42 69.70 28.58 68.04C31.75 70.56 35.21 73.51 37.58 76.03C28.01 79.85 16.85 81.94 5.11 82.94C6.19 84.53 7.34 87.48 7.78 89.42C33.98 86.62 57.96 78.62 67.97 57.24Z"/></svg>
