<svg xmlns="http://www.w3.org/2000/svg" xmlns:xlink="http://www.w3.org/1999/xlink" width="72.00000000000001" height="106.56000000000002"><path fill="red" stroke="red" d="M22.82 44.14C22.68 50.54 21.82 58.18 18.65 65.66C16.27 63.65 13.82 61.78 11.59 59.98C12.74 55.51 13.90 50.18 14.98 44.64ZM29.23 33.19L22.90 33.19L22.90 38.23L16.06 38.59C16.92 33.48 17.64 28.44 18.14 23.83L11.59 23.40C11.23 28.22 10.51 33.48 9.65 38.88L2.74 39.17L3.31 45.36L8.50 45.07C7.27 51.55 5.83 57.53 4.46 62.14C7.92 64.87 11.95 68.11 15.70 71.35C12.67 76.25 8.42 80.86 2.45 84.96C3.96 86.04 6.26 88.27 7.27 89.71C13.18 85.54 17.50 80.78 20.59 75.89C23.26 78.26 25.42 80.57 27.07 82.51L31.32 77.11C29.45 75.10 26.86 72.65 23.90 69.98C28.08 60.91 29.02 51.48 29.23 43.70L32.98 43.42L33.05 37.66L29.23 37.87ZM45.72 81.86C41.83 81.86 41.11 81.29 41.11 78.41L41.11 57.53L58.25 57.53L58.25 61.13L65.02 61.13L65.02 28.01L33.05 28.01L33.05 34.56L58.25 34.56L58.25 51.19L34.20 51.19L34.20 78.41C34.20 86.11 36.72 88.13 45.00 88.13L58.75 88.13C66.46 88.13 68.40 84.82 69.26 73.01C67.46 72.65 64.58 71.42 63.00 70.20C62.50 80.06 61.92 81.86 58.25 81.86Z"/></svg>
