<svg xmlns="http://www.w3.org/2000/svg" xmlns:xlink="http://www.w3.org/1999/xlink" width="72.00000000000001" height="106.56000000000002"><path fill="red" stroke="red" d="M33.70 61.56C32.76 64.87 31.61 67.82 30.17 70.49C28.08 69.41 25.99 68.33 23.98 67.32C24.70 65.59 25.49 63.58 26.21 61.56ZM41.98 77.69C40.10 76.39 37.73 74.81 35.06 73.30C37.01 69.91 38.38 66.02 39.46 61.56L42.98 61.56L42.98 56.88L40.39 56.88C40.61 55.80 40.75 54.72 40.90 53.57L35.21 52.85C35.06 54.29 34.85 55.58 34.63 56.88L27.72 56.88C28.51 54.43 29.23 51.91 29.88 49.54L42.48 49.54L42.48 44.28L17.35 44.28L17.35 49.54L24.26 49.54C23.69 51.84 23.04 54.43 22.25 56.88L16.56 56.88L16.56 61.56L20.59 61.56C19.51 64.58 18.29 67.46 17.21 69.77C20.30 71.14 23.69 72.94 26.93 74.81C23.76 78.34 19.44 81.00 13.54 82.87C14.69 83.95 16.13 85.82 16.70 87.34C23.26 84.89 28.15 81.79 31.75 77.69C33.91 79.13 35.93 80.50 37.37 81.58ZM59.90 45.36C58.54 52.85 56.52 59.62 53.64 65.52C52.34 58.32 51.41 49.32 50.98 39.38L68.18 39.38L68.18 33.26L63.14 33.26L66.67 29.45C64.51 27.43 60.19 24.62 56.81 22.97L53.06 26.78C56.23 28.51 60.12 31.25 62.35 33.26L50.76 33.26C50.76 30.02 50.69 26.64 50.76 23.26L44.21 23.26C44.21 26.64 44.28 29.95 44.35 33.26L8.35 33.26L8.35 53.78C8.35 63.29 7.78 76.10 2.30 85.10C3.67 85.82 6.41 87.98 7.34 89.14C13.54 79.34 14.54 64.22 14.54 53.78L14.54 39.38L44.64 39.38C45.22 52.42 46.44 64.51 48.89 73.51C45.50 77.98 41.33 81.79 36.29 84.74C37.66 85.90 40.03 88.27 40.97 89.57C44.86 86.98 48.24 83.95 51.26 80.50C53.64 86.04 56.88 89.35 61.06 89.35C66.46 89.35 68.47 86.04 69.48 74.02C67.82 73.30 65.59 71.86 64.22 70.42C64.01 79.20 63.22 82.94 61.70 82.94C59.40 82.94 57.38 79.78 55.73 74.30C60.55 66.67 63.94 57.31 66.10 46.22Z"/></svg>
