<svg xmlns="http://www.w3.org/2000/svg" xmlns:xlink="http://www.w3.org/1999/xlink" width="72.00000000000001" height="106.56000000000002"><path fill="red" stroke="red" d="M57.74 40.25L36.79 40.25L36.79 35.64L57.74 35.64ZM57.74 49.75L36.79 49.75L36.79 45.07L57.74 45.07ZM57.74 59.26L36.79 59.26L36.79 54.50L57.74 54.50ZM64.30 30.60L47.30 30.60C48.24 28.51 49.18 25.92 50.04 23.47L42.48 22.90C42.19 25.13 41.62 28.15 40.90 30.60L30.53 30.60L30.53 64.30L64.30 64.30ZM53.42 73.58C51.98 71.14 49.03 67.46 46.44 64.87L41.90 66.74C44.42 69.55 47.30 73.37 48.67 75.82ZM19.58 43.92C19.51 50.47 18.86 58.18 15.98 65.88C14.11 64.01 12.10 62.28 10.30 60.62C11.30 55.87 12.53 50.18 13.54 44.28ZM27.00 77.47C25.42 75.38 23.11 72.86 20.52 70.20C24.34 60.91 25.13 51.48 25.20 43.56L28.44 43.27L28.44 37.51L25.20 37.73L25.20 33.19L19.58 33.19L19.58 38.02L14.47 38.30C15.19 33.19 15.84 28.22 16.27 23.69L10.58 23.47C10.22 28.15 9.58 33.34 8.78 38.59C6.55 38.66 4.54 38.74 2.66 38.81L3.31 44.93L7.78 44.64C6.62 51.41 5.26 57.74 3.96 62.50C6.91 65.16 10.22 68.33 13.39 71.50C10.87 76.10 7.34 80.64 2.30 84.67C3.67 85.54 5.69 87.48 6.62 88.78C11.38 84.82 14.90 80.42 17.57 75.89C19.87 78.34 21.74 80.64 23.11 82.58ZM29.45 87.34C31.75 83.38 33.41 76.90 34.27 72.00L29.30 70.27C28.37 74.95 26.64 81.00 24.34 84.74ZM43.99 82.94C41.54 82.94 41.11 82.73 41.11 80.86L41.11 69.26L35.28 69.26L35.28 80.93C35.28 86.69 36.72 88.34 43.27 88.34L52.56 88.34C57.74 88.34 59.33 86.18 59.98 76.97C58.39 76.61 55.94 75.67 54.72 74.74C54.50 82.08 54.07 82.94 51.98 82.94ZM57.38 70.63C60.12 75.02 63.22 81.14 64.58 84.89L69.70 82.37C68.33 78.77 65.02 72.79 62.21 68.40Z"/></svg>
