<svg xmlns="http://www.w3.org/2000/svg" xmlns:xlink="http://www.w3.org/1999/xlink" width="72.00000000000001" height="106.56000000000002"><path fill="red" stroke="red" d="M52.20 23.11C46.73 27.36 36.72 31.39 27.58 34.06C28.30 35.35 29.30 37.44 29.59 38.74C39.24 36.07 49.97 32.33 57.17 27.50ZM27.58 57.89L26.42 52.42C23.83 53.35 21.17 54.43 18.65 55.44L18.65 46.51C22.10 41.76 25.78 35.50 28.37 30.10L24.34 27.29L23.04 27.65L5.54 27.65L5.54 33.34L19.87 33.34C17.86 37.66 15.26 42.48 12.89 45.79L12.89 57.60C9.14 59.04 5.76 60.19 3.10 61.13L4.46 67.54L12.89 64.08L12.89 82.51C12.89 83.23 12.67 83.45 11.88 83.52C11.09 83.52 8.71 83.52 6.26 83.45C7.06 84.89 7.92 87.26 8.21 88.70C12.02 88.70 14.47 88.63 16.34 87.70C18.07 86.83 18.65 85.32 18.65 82.58L18.65 61.70ZM34.56 68.18C32.11 73.80 28.30 79.70 24.19 83.59C25.78 84.24 28.58 85.39 29.88 86.33C33.62 82.30 37.73 75.89 40.46 69.84ZM61.13 62.86C61.99 64.51 62.64 66.02 63.14 67.32L68.26 64.44C66.53 60.48 62.50 54.00 59.18 49.32L54.50 51.70C55.73 53.64 57.17 55.80 58.46 58.10L41.11 59.47C47.95 54.94 54.79 49.39 60.91 43.27L55.94 39.46C54.29 41.33 52.42 43.27 50.62 44.93L40.32 45.72C43.99 43.13 47.66 39.89 50.90 36.58L45.22 33.77C41.18 38.66 35.28 43.27 33.48 44.42C31.75 45.72 30.38 46.51 28.94 46.73C29.59 48.24 30.53 51.19 30.89 52.42C32.11 51.91 33.98 51.48 44.42 50.47C40.46 53.71 37.01 56.23 35.35 57.24C32.40 59.26 30.38 60.48 28.37 60.77C29.02 62.42 30.02 65.38 30.31 66.60C31.68 66.02 33.70 65.59 43.63 64.66L43.63 82.58C43.63 83.30 43.42 83.45 42.62 83.52C41.83 83.59 39.46 83.59 36.94 83.45C37.73 85.10 38.45 87.41 38.66 89.06C42.55 89.06 45.43 89.06 47.38 88.13C49.39 87.26 49.90 85.68 49.90 82.73L49.90 63.94ZM53.42 69.48C57.02 74.52 61.20 81.43 63.14 85.68L68.54 82.80C66.46 78.55 62.28 72.00 58.54 67.10Z"/></svg>
