<svg xmlns="http://www.w3.org/2000/svg" xmlns:xlink="http://www.w3.org/1999/xlink" width="72.00000000000001" height="106.56000000000002"><path fill="red" stroke="red" d="M44.28 32.40C43.13 31.39 41.62 30.31 39.89 29.23C41.33 27.86 42.55 26.42 43.63 24.98L39.10 23.76C38.30 24.77 37.30 25.92 36.07 26.93C34.49 25.99 32.76 25.13 31.25 24.41L28.01 27.22C29.52 27.86 31.10 28.73 32.54 29.59C30.74 30.89 28.66 32.04 26.64 32.90C27.79 33.62 29.52 35.28 30.31 36.00C32.33 34.99 34.49 33.55 36.50 32.04C38.30 33.19 39.89 34.34 40.97 35.42ZM16.99 45.36L26.06 45.36C27.07 46.08 28.73 47.74 29.45 48.67L17.14 48.67ZM11.74 53.71L60.19 53.71L60.19 62.42L66.82 62.42L66.82 48.67L61.34 48.67C61.92 42.19 62.57 32.98 62.93 25.70L45.79 25.70L45.79 30.10L56.38 30.10L56.23 33.34L46.15 33.34L46.15 37.66L55.94 37.66L55.66 40.97L45.79 40.97L45.79 45.36L55.37 45.36C55.22 46.51 55.08 47.59 55.01 48.67L29.88 48.67C31.97 47.45 34.27 46.08 36.36 44.42C38.38 45.79 40.03 47.09 41.18 48.24L44.57 45.14C43.34 43.99 41.76 42.77 39.82 41.47C41.33 40.03 42.62 38.59 43.78 37.08L39.24 35.64C38.38 36.86 37.30 38.02 36.00 39.17C34.34 38.16 32.54 37.22 30.96 36.43L27.72 39.24C29.23 39.96 30.89 40.90 32.40 41.83C30.53 43.13 28.37 44.28 26.35 45.22L26.35 40.97L16.63 40.97L16.42 37.66L26.06 37.66L26.06 33.34L16.20 33.34L15.98 30.46C19.58 29.81 23.47 28.80 26.57 27.65L23.69 23.69C19.94 24.84 13.75 26.64 9.58 27.36L10.87 48.67L5.40 48.67L5.40 62.42L11.74 62.42ZM68.04 70.13L40.03 70.13L40.03 69.55C45.50 67.18 51.12 64.08 55.30 60.84L51.48 57.38L50.04 57.74L17.42 57.74L17.42 62.64L43.20 62.64C40.18 64.51 36.65 66.24 33.48 67.54L33.48 70.13L3.96 70.13L3.96 75.60L33.48 75.60L33.48 82.30C33.48 83.23 33.12 83.52 31.97 83.52C30.89 83.52 26.71 83.52 22.75 83.38C23.62 84.96 24.55 87.34 24.91 89.06C30.53 89.06 34.20 89.06 36.79 88.13C39.31 87.26 40.03 85.68 40.03 82.51L40.03 75.60L68.04 75.60Z"/></svg>
