<svg xmlns="http://www.w3.org/2000/svg" xmlns:xlink="http://www.w3.org/1999/xlink" width="72.00000000000001" height="106.56000000000002"><path fill="red" stroke="red" d="M54.07 56.30L54.07 64.87L39.17 64.87L39.17 56.30ZM39.17 79.78L39.17 70.63L54.07 70.63L54.07 79.78ZM18.14 70.63L32.54 70.63L32.54 79.78L18.14 79.78ZM32.54 56.30L32.54 64.87L18.14 64.87L18.14 56.30ZM39.17 39.96L32.54 39.96L32.54 50.18L11.66 50.18L11.66 89.06L18.14 89.06L18.14 85.97L54.07 85.97L54.07 89.06L60.84 89.06L60.84 50.18L39.17 50.18ZM41.18 30.96C40.25 28.37 38.59 25.13 37.08 22.46L30.02 24.55C31.10 26.42 32.18 28.87 33.05 30.96L6.26 30.96L6.26 46.87L12.89 46.87L12.89 37.15L58.97 37.15L58.97 46.87L65.81 46.87L65.81 30.96Z"/></svg>
