<svg xmlns="http://www.w3.org/2000/svg" xmlns:xlink="http://www.w3.org/1999/xlink" width="72.00000000000001" height="106.56000000000002"><path fill="red" stroke="red" d="M33.84 31.82L33.84 38.88L13.32 38.88L13.32 31.82ZM13.32 44.57L40.03 44.57L40.03 26.14L7.27 26.14L7.27 51.48C7.27 61.42 6.84 74.81 2.09 84.17C3.67 84.74 6.34 86.33 7.49 87.41C12.60 77.47 13.32 62.21 13.32 51.41ZM38.52 54.36L38.52 48.74L15.98 48.74L15.98 54.36ZM16.56 68.18C15.48 72.94 13.54 77.69 10.73 80.93C11.95 81.50 14.26 82.87 15.19 83.66C18.00 80.14 20.45 74.66 21.74 69.19ZM40.90 64.73L40.90 59.11L13.54 59.11L13.54 64.73L24.48 64.73L24.48 89.06L30.24 89.06L30.24 64.73ZM32.90 69.41C35.06 73.58 37.01 79.06 37.73 82.44L42.91 80.42C42.19 77.04 40.03 71.71 37.80 67.68ZM54.07 67.75C53.35 63.43 50.76 56.88 47.88 51.77L42.26 53.64C45.00 58.90 47.45 65.66 48.10 69.98ZM69.12 39.31L63.00 39.31L63.00 23.54L56.52 23.54L56.52 39.31L41.47 39.31L41.47 45.58L56.52 45.58L56.52 81.29C56.52 82.51 56.09 82.87 54.86 82.94C53.78 82.94 50.11 82.94 46.15 82.80C47.16 84.53 48.17 87.41 48.53 89.21C54.14 89.21 57.67 88.92 59.90 87.84C62.14 86.83 63.00 84.96 63.00 81.29L63.00 45.58L69.12 45.58Z"/></svg>
