<svg xmlns="http://www.w3.org/2000/svg" xmlns:xlink="http://www.w3.org/1999/xlink" width="72.00000000000001" height="106.56000000000002"><path fill="red" stroke="red" d="M63.86 25.42L56.88 25.42L56.88 33.12L39.38 33.12L39.38 23.11L32.54 23.11L32.54 33.12L15.19 33.12L15.19 25.42L8.50 25.42L8.50 38.59L63.86 38.59ZM51.84 79.63L51.84 65.09L46.37 65.09L46.37 74.59L38.88 74.59L38.88 61.78L54.58 61.78L54.58 56.81L47.16 56.81C48.10 54.79 49.18 52.49 50.26 50.26L44.42 48.74C43.70 51.05 42.41 54.29 41.26 56.81L27.00 56.81L31.46 55.44C30.96 53.71 29.30 50.90 27.79 48.96L22.61 50.47C23.98 52.42 25.34 54.94 25.99 56.81L17.86 56.81L17.86 61.78L33.05 61.78L33.05 74.59L25.85 74.59L25.85 65.09L20.38 65.09L20.38 79.63ZM64.73 42.98L8.14 42.98L8.14 89.14L14.47 89.14L14.47 48.46L58.25 48.46L58.25 81.86C58.25 82.87 57.89 83.23 56.74 83.30C55.58 83.30 51.70 83.38 47.81 83.23C48.67 84.82 49.54 87.48 49.82 89.14C55.44 89.14 59.26 89.14 61.63 88.06C63.94 87.12 64.73 85.32 64.73 82.01Z"/></svg>
