<svg xmlns="http://www.w3.org/2000/svg" xmlns:xlink="http://www.w3.org/1999/xlink" width="72.00000000000001" height="106.56000000000002"><path fill="red" stroke="red" d="M62.28 59.40L50.47 59.40L51.05 58.82C49.82 58.03 48.24 57.24 46.51 56.38C52.27 53.06 57.96 48.60 62.06 44.35L57.74 41.04L56.30 41.40L21.17 41.40L21.17 46.80L50.47 46.80C47.59 49.25 44.14 51.77 40.90 53.57C37.44 51.98 33.84 50.40 30.82 49.10L26.78 53.06C30.82 54.79 35.78 57.24 40.03 59.40L17.42 59.40L17.42 65.09L38.45 65.09L38.45 81.79C38.45 82.80 38.09 83.09 36.72 83.16C35.35 83.23 30.38 83.23 25.63 83.02C26.50 84.82 27.50 87.41 27.79 89.21C34.13 89.21 38.59 89.28 41.40 88.27C44.35 87.34 45.14 85.61 45.14 81.94L45.14 65.09L58.18 65.09C56.30 68.04 54.14 70.99 52.27 73.15L57.53 75.60C60.98 71.93 64.80 66.24 68.11 60.98L63.36 59.04ZM43.99 30.82C43.06 28.51 41.47 25.20 40.10 22.68L33.55 24.48C34.49 26.35 35.57 28.80 36.36 30.82L8.64 30.82L8.64 50.40C8.64 60.84 8.14 75.46 2.30 85.68C3.74 86.40 6.77 88.27 7.85 89.42C14.11 78.48 15.19 61.70 15.19 50.47L15.19 37.01L68.26 37.01L68.26 30.82Z"/></svg>
