<svg xmlns="http://www.w3.org/2000/svg" xmlns:xlink="http://www.w3.org/1999/xlink" width="72.00000000000001" height="106.56000000000002"><path fill="red" stroke="red" d="M67.32 48.10L39.10 48.10L39.10 42.62L61.70 42.62L61.70 37.30L39.10 37.30L39.10 31.97L64.22 31.97L64.22 26.28L7.42 26.28L7.42 31.97L32.54 31.97L32.54 37.30L10.22 37.30L10.22 42.62L32.54 42.62L32.54 48.10L4.54 48.10L4.54 53.78L67.32 53.78ZM68.26 63.79L52.06 63.79L52.06 55.51L45.14 55.51L45.14 63.79L26.71 63.79L26.71 55.51L20.09 55.51L20.09 63.79L3.89 63.79L3.89 69.70L19.44 69.70C18.14 74.95 14.11 80.06 2.66 83.74C4.10 84.96 6.05 87.48 6.84 89.06C20.88 84.31 25.13 77.04 26.28 69.70L45.14 69.70L45.14 89.21L52.06 89.21L52.06 69.70L68.26 69.70Z"/></svg>
