<svg xmlns="http://www.w3.org/2000/svg" xmlns:xlink="http://www.w3.org/1999/xlink" width="72.00000000000001" height="106.56000000000002"><path fill="red" stroke="red" d="M10.87 58.18C11.02 55.01 11.16 51.48 11.23 48.02L25.20 48.02L25.20 26.42L4.39 26.42L4.39 32.40L18.86 32.40L18.86 41.98L5.54 41.98C5.54 49.10 5.18 58.25 4.68 64.01L18.86 64.01C18.22 75.60 17.42 80.28 16.34 81.50C15.62 82.15 14.90 82.37 13.75 82.37C12.38 82.37 9.22 82.30 5.90 81.94C6.98 83.81 7.78 86.47 7.92 88.49C11.30 88.63 14.69 88.56 16.63 88.42C18.79 88.13 20.16 87.62 21.46 86.04C23.54 83.74 24.34 77.18 25.13 60.84C25.20 59.98 25.27 58.18 25.27 58.18ZM69.26 85.82C67.68 80.50 63.36 72.36 59.11 66.10L53.50 68.26C55.30 71.06 57.17 74.38 58.75 77.54L38.81 79.13C47.45 70.78 56.30 60.12 63.86 48.74L57.74 45.43C55.66 48.96 53.35 52.42 50.98 55.80L38.81 56.45C42.70 51.77 46.58 46.08 49.82 40.32L68.62 40.32L68.62 34.20L49.61 34.20L52.85 32.90C51.77 30.24 49.68 26.21 47.74 23.18L41.76 25.27C43.49 27.94 45.22 31.54 46.30 34.20L27.72 34.20L27.72 40.32L42.34 40.32C39.10 46.51 35.06 52.06 33.70 53.78C31.97 55.80 30.60 57.24 29.23 57.53C29.95 59.18 30.89 62.28 31.25 63.65C32.76 63.00 34.92 62.71 46.37 61.85C41.54 68.04 37.15 72.79 35.14 74.66C31.75 78.05 29.59 80.21 27.50 80.64C28.30 82.37 29.45 85.54 29.81 86.90C32.18 85.90 35.50 85.61 61.34 83.16C62.14 85.03 62.64 86.83 63.07 88.27Z"/></svg>
