<svg xmlns="http://www.w3.org/2000/svg" xmlns:xlink="http://www.w3.org/1999/xlink" width="72.00000000000001" height="106.56000000000002"><path fill="red" stroke="red" d="M59.47 24.48C55.58 30.17 48.31 36.00 42.19 39.46C43.85 40.68 45.86 42.70 46.94 44.06C53.64 39.96 60.91 33.62 65.81 27.07ZM61.56 43.78C57.24 49.90 49.18 56.02 42.34 59.62C43.92 60.84 45.86 62.86 46.94 64.37C54.36 60.05 62.50 53.42 67.68 46.37ZM13.90 37.58L33.98 37.58L33.98 41.26L13.90 41.26ZM13.90 29.95L33.98 29.95L33.98 33.48L13.90 33.48ZM43.06 49.54L27.72 49.54C27.14 48.17 26.28 46.73 25.56 45.58L40.61 45.58L40.61 25.63L7.56 25.63L7.56 45.58L24.91 45.58L19.15 46.80C19.66 47.59 20.16 48.53 20.52 49.54L4.18 49.54L4.18 54.79L43.06 54.79ZM10.73 73.08C9.22 76.61 6.70 80.42 4.03 83.09C5.33 83.95 7.63 85.68 8.71 86.69C11.45 83.74 14.54 78.98 16.34 74.66ZM14.62 62.42L33.19 62.42L33.19 67.46L14.62 67.46ZM39.67 72.00L39.67 57.82L8.35 57.82L8.35 72.00L20.45 72.00L20.45 82.66C20.45 83.30 20.23 83.52 19.44 83.52C18.79 83.52 16.34 83.52 13.75 83.45C14.62 84.96 15.48 87.19 15.77 88.92C19.66 88.92 22.46 88.85 24.48 87.98C26.50 87.12 27.00 85.68 27.00 82.73L27.00 72.00ZM62.86 64.08C58.32 72.14 49.54 79.20 40.75 83.38C39.46 80.57 36.72 76.25 34.42 72.94L29.66 75.02C31.97 78.48 34.70 83.16 35.78 86.11L40.61 83.74C42.12 85.03 44.06 87.12 45.00 88.70C54.65 83.66 63.65 75.82 69.12 66.38Z"/></svg>
