<svg xmlns="http://www.w3.org/2000/svg" xmlns:xlink="http://www.w3.org/1999/xlink" width="72.00000000000001" height="106.56000000000002"><path fill="red" stroke="red" d="M17.50 23.26C14.54 28.22 8.64 34.06 3.31 37.66C4.32 39.02 6.05 41.69 6.77 43.27C13.03 38.95 19.66 32.11 23.90 25.78ZM19.15 39.02C15.12 46.22 8.50 53.42 2.38 58.03C3.53 59.62 5.18 63.29 5.76 64.80C7.92 63.00 10.22 60.91 12.38 58.54L12.38 89.21L19.22 89.21L19.22 50.40C21.38 47.45 23.40 44.35 25.06 41.40ZM51.77 81.00L51.77 59.69L65.74 59.69L65.74 53.50L51.77 53.50L51.77 34.49L66.96 34.49L66.96 28.22L27.94 28.22L27.94 34.49L45.14 34.49L45.14 81.00L36.65 81.00L36.65 47.81L30.24 47.81L30.24 81.00L23.47 81.00L23.47 87.34L69.12 87.34L69.12 81.00Z"/></svg>
