<svg xmlns="http://www.w3.org/2000/svg" xmlns:xlink="http://www.w3.org/1999/xlink" width="72.00000000000001" height="106.56000000000002"><path fill="red" stroke="red" d="M17.21 23.33C14.40 28.30 8.57 34.13 3.24 37.73C4.32 39.10 6.05 41.83 6.70 43.34C12.96 39.02 19.51 32.18 23.62 25.78ZM18.94 38.16C14.98 45.22 8.50 52.27 2.52 56.81C3.53 58.32 5.33 61.99 5.90 63.50C7.85 61.85 9.86 60.05 11.81 57.96L11.81 89.21L18.36 89.21L18.36 50.33C20.81 47.16 23.11 43.85 24.91 40.54ZM49.46 63.72L41.76 63.72L41.76 48.02L49.46 48.02ZM36.50 42.55L36.50 69.26L54.79 69.26L54.79 42.55ZM31.54 78.19L31.54 33.84L59.90 33.84L59.90 78.19ZM25.20 27.58L25.20 88.78L31.54 88.78L31.54 84.60L59.90 84.60L59.90 88.13L66.46 88.13L66.46 27.58Z"/></svg>
