<svg xmlns="http://www.w3.org/2000/svg" xmlns:xlink="http://www.w3.org/1999/xlink" width="72.00000000000001" height="106.56000000000002"><path fill="red" stroke="red" d="M69.05 60.91L23.18 60.91L23.18 66.31L45.43 66.31L40.82 67.97C42.62 70.70 44.64 74.59 45.72 76.90L50.90 74.88C49.82 72.72 47.74 69.05 45.94 66.31L69.05 66.31ZM49.46 51.91L43.06 51.91L43.06 43.49L49.46 43.49ZM54.22 43.49L60.77 43.49L60.77 51.91L54.22 51.91ZM38.30 51.91L32.11 51.91L32.11 43.49L38.30 43.49ZM26.86 38.52L26.86 56.88L66.24 56.88L66.24 38.52L47.74 38.52C47.95 37.15 48.24 35.71 48.46 34.06L68.69 34.06L68.69 28.66L49.32 28.66L50.11 23.18L43.06 22.97C42.98 24.62 42.84 26.64 42.62 28.66L23.98 28.66L23.98 34.06L42.05 34.06C41.83 35.64 41.62 37.15 41.33 38.52ZM16.99 23.18C13.90 28.22 7.63 34.85 2.66 39.02C3.60 40.39 5.18 42.98 5.83 44.50C11.66 39.53 18.50 32.04 23.11 25.70ZM18.29 38.74C14.33 46.80 8.06 55.15 2.16 60.62C3.31 62.14 5.26 65.30 5.98 66.74C8.06 64.73 10.22 62.28 12.31 59.54L12.31 89.28L18.58 89.28L18.58 50.76C20.66 47.52 22.68 44.21 24.34 40.90ZM25.20 86.62C28.01 82.80 29.95 77.04 31.25 72.43L26.21 70.42C24.91 74.88 22.75 80.35 20.16 83.74ZM42.26 83.09C39.74 83.09 39.24 82.87 39.24 81.22L39.24 71.35L33.41 71.35L33.41 81.29C33.41 86.62 34.99 88.27 41.54 88.27L51.41 88.27C56.52 88.27 58.18 86.40 58.82 78.77C57.17 78.41 54.79 77.54 53.57 76.68C53.28 82.30 52.92 83.09 50.76 83.09ZM57.02 72.00C60.05 76.32 63.00 82.08 64.15 85.82L69.48 83.45C68.18 79.70 64.94 74.09 61.99 69.84Z"/></svg>
