<svg xmlns="http://www.w3.org/2000/svg" xmlns:xlink="http://www.w3.org/1999/xlink" width="72.00000000000001" height="106.56000000000002"><path fill="red" stroke="red" d="M44.93 48.89C43.78 45.94 41.47 41.18 39.31 37.66L34.99 39.31C35.57 40.54 36.29 41.83 37.01 43.27L28.30 44.28C30.10 41.54 31.82 38.38 33.55 35.06L45.36 35.06L45.36 29.66L36.14 29.66C37.01 27.86 37.73 26.14 38.45 24.34L32.18 22.97C31.46 25.20 30.67 27.50 29.81 29.66L20.74 29.66L20.74 35.06L27.36 35.06C25.99 37.87 24.77 40.10 24.12 41.04C22.82 43.27 21.74 44.71 20.45 45.00C21.17 46.58 22.10 49.39 22.39 50.62C23.76 49.97 25.85 49.68 39.10 47.74C39.53 48.89 39.96 49.97 40.25 50.83ZM13.61 23.11C11.45 27.72 7.20 33.48 3.17 37.01C4.25 38.23 5.83 40.75 6.62 42.12C11.38 37.80 16.42 31.18 19.73 25.34ZM15.19 38.23C12.17 44.64 7.27 51.26 2.59 55.66C3.67 57.17 5.40 60.70 5.98 62.14C7.42 60.70 8.78 59.18 10.22 57.38L10.22 89.21L16.27 89.21L16.27 48.89C18.07 46.08 19.66 43.20 21.02 40.39ZM27.94 64.94C30.31 66.24 33.05 67.97 34.42 69.41L37.37 66.10L37.37 70.49C33.70 72.14 30.17 73.66 27.36 74.74C27.79 71.21 27.94 67.82 27.94 64.94ZM37.37 58.25L37.37 65.23C35.71 63.79 32.83 62.21 30.46 61.13L27.94 63.79L27.94 58.25ZM42.91 53.21L22.68 53.21L22.68 64.87C22.68 71.14 22.25 79.78 18.50 86.18C19.66 86.83 21.89 88.63 22.75 89.71C25.06 85.82 26.42 81.07 27.14 76.32L28.87 79.92C31.54 78.70 34.49 77.26 37.37 75.74L37.37 82.87C37.37 83.52 37.22 83.74 36.50 83.74C35.86 83.81 34.06 83.81 31.90 83.74C32.69 85.18 33.41 87.62 33.55 89.14C36.86 89.14 39.17 89.06 40.82 88.06C42.48 87.12 42.91 85.54 42.91 82.94ZM60.62 42.48C59.90 50.33 58.82 57.38 57.02 63.50C55.08 57.31 54.00 50.69 53.28 44.57C53.50 43.92 53.71 43.20 53.86 42.48ZM69.34 42.48L69.34 36.65L55.22 36.65C56.02 32.54 56.66 28.22 57.24 23.98L51.48 23.11C50.26 34.78 48.17 46.01 43.78 53.35C44.93 54.50 46.94 57.17 47.66 58.32C48.46 57.02 49.25 55.51 49.97 54.00C50.90 59.54 52.20 65.45 54.22 71.06C51.70 76.61 48.31 81.22 43.70 84.82C44.86 85.90 46.87 88.27 47.59 89.57C51.48 86.26 54.65 82.30 57.10 77.76C59.40 82.15 62.28 86.11 65.95 89.21C66.82 87.70 68.62 85.25 69.84 84.10C65.59 81.00 62.50 76.54 60.05 71.57C63.29 63.43 65.23 53.78 66.38 42.48Z"/></svg>
