<svg xmlns="http://www.w3.org/2000/svg" xmlns:xlink="http://www.w3.org/1999/xlink" width="72.00000000000001" height="106.56000000000002"><path fill="red" stroke="red" d="M7.42 57.31C9.14 51.98 10.37 43.70 10.66 37.73L5.76 37.08C5.26 42.84 4.03 50.76 2.23 55.51ZM28.37 48.38C27.65 44.93 25.49 39.31 23.47 34.92L18.86 36.65L18.86 23.18L12.46 23.18L12.46 89.21L18.86 89.21L18.86 37.08C20.74 41.40 22.75 47.16 23.40 50.62ZM55.51 81.79C53.71 81.79 53.42 81.36 53.42 78.98L53.42 51.77L49.18 51.77C49.68 48.67 50.04 45.58 50.33 42.48L61.63 42.48L61.63 51.55L67.97 51.55L67.97 36.43L50.69 36.43C50.90 31.82 50.90 27.43 50.98 23.18L44.35 23.18C44.28 27.36 44.28 31.82 44.14 36.43L28.66 36.43L28.66 51.70L34.78 51.70L34.78 42.48L43.78 42.48C42.48 58.46 38.16 74.88 22.75 84.24C24.55 85.54 26.64 87.48 27.65 89.14C37.73 82.58 43.42 73.15 46.66 62.86L46.66 79.06C46.66 85.97 48.17 88.13 54.43 88.13L61.56 88.13C67.18 88.13 68.83 84.89 69.41 73.01C67.68 72.58 64.73 71.42 63.29 70.20C63.07 79.99 62.71 81.79 60.91 81.79Z"/></svg>
