<svg xmlns="http://www.w3.org/2000/svg" xmlns:xlink="http://www.w3.org/1999/xlink" width="72.00000000000001" height="106.56000000000002"><path fill="red" stroke="red" d="M64.58 40.46C60.62 35.93 52.85 29.45 45.94 25.34L41.11 28.87C43.99 30.60 47.02 32.90 49.90 35.14L21.67 36.00C26.21 33.19 30.74 29.74 34.85 26.14L28.66 22.82C23.69 28.01 16.56 32.90 14.33 34.13C12.17 35.50 10.58 36.36 8.93 36.65C9.72 38.38 10.73 41.62 11.02 42.91C13.82 41.98 18.00 41.83 55.80 40.39C57.24 41.83 58.61 43.27 59.69 44.50ZM51.91 58.68L19.73 58.68L19.73 50.98L51.91 50.98ZM58.54 45.58L13.46 45.58L13.46 64.15L31.90 64.15L27.72 67.32C32.18 70.27 37.94 74.74 40.61 77.69L45.50 73.66C42.77 70.92 37.22 66.89 32.83 64.15L58.54 64.15ZM9.86 87.62C12.10 83.38 14.26 76.75 15.62 71.78L9.94 69.55C8.64 74.38 6.34 80.71 3.82 84.74ZM30.67 82.22C26.14 82.22 25.27 81.94 25.27 79.92L25.27 69.84L18.65 69.84L18.65 80.06C18.65 86.47 20.95 88.20 30.31 88.20L45.94 88.20C53.06 88.20 55.15 86.33 56.09 77.98C54.22 77.62 51.48 76.75 49.97 75.67C49.61 81.36 48.96 82.22 45.43 82.22ZM54.94 71.28C57.82 76.18 61.27 82.73 62.71 86.69L68.98 83.95C67.32 80.06 63.65 73.73 60.70 69.05Z"/></svg>
