<svg xmlns="http://www.w3.org/2000/svg" xmlns:xlink="http://www.w3.org/1999/xlink" width="72.00000000000001" height="106.56000000000002"><path fill="red" stroke="red" d="M8.06 57.53C9.58 52.06 10.73 43.63 10.87 37.73L5.54 37.01C5.11 42.84 3.96 50.76 2.45 55.66ZM12.60 89.14L19.01 89.14L19.01 23.11L12.60 23.11ZM19.08 36.22C20.74 41.04 22.39 47.38 22.97 51.26L28.37 49.03C27.79 45.43 25.85 39.24 24.19 34.42ZM68.40 59.04L68.40 52.70L50.83 52.70L50.83 41.04L65.66 41.04L65.66 34.70L50.83 34.70L50.83 23.11L44.06 23.11L44.06 34.70L29.38 34.70L29.38 41.04L44.06 41.04L44.06 52.70L26.21 52.70L26.21 59.04L41.76 59.04C38.02 66.74 33.26 73.94 31.54 75.96C29.59 78.48 28.15 80.14 26.57 80.57C27.43 82.37 28.44 85.61 28.87 87.05C31.03 86.11 34.34 85.61 59.83 83.02C61.06 85.39 61.99 87.48 62.64 89.28L68.40 86.40C66.53 81.00 61.42 72.65 56.88 66.46L51.48 68.90C53.21 71.42 55.15 74.45 56.81 77.40L36.79 79.13C41.33 73.37 45.86 66.24 49.68 59.04Z"/></svg>
