<svg xmlns="http://www.w3.org/2000/svg" xmlns:xlink="http://www.w3.org/1999/xlink" width="72.00000000000001" height="106.56000000000002"><path fill="red" stroke="red" d="M6.91 57.02C8.50 51.70 9.58 43.34 9.86 37.66L5.54 37.01C5.11 42.62 3.96 50.62 2.30 55.51ZM23.83 50.33C23.33 46.58 21.82 39.89 20.45 34.70L16.63 35.71L16.63 23.11L10.94 23.11L10.94 88.92L16.63 88.92L16.63 37.01C17.86 41.98 19.08 48.10 19.51 51.77ZM36.50 32.40L36.50 39.74L29.45 39.74L29.45 32.40ZM29.45 52.34L29.45 44.64L36.50 44.64L36.50 52.34ZM45.65 74.38C44.28 70.78 41.18 64.80 38.59 60.26L34.34 62.50C35.28 64.30 36.36 66.38 37.37 68.40L29.45 72.79L29.45 57.74L41.47 57.74L41.47 27.00L24.19 27.00L24.19 71.78C24.19 75.10 22.25 77.47 21.02 78.55C22.10 79.56 23.83 81.79 24.41 83.02C25.42 81.72 27.22 80.28 39.38 72.79C40.10 74.30 40.75 75.82 41.18 77.04ZM49.61 51.48C50.54 45.72 51.34 38.52 51.98 32.62L55.58 32.62C55.51 38.02 55.30 44.57 54.07 51.48ZM68.76 56.95L68.76 51.48L59.54 51.48C60.55 44.50 60.77 38.02 60.84 32.62L68.26 32.62L68.26 26.86L43.99 26.86L43.99 32.62L46.66 32.62C46.01 40.61 44.86 50.76 43.78 56.95L52.92 56.95C50.47 66.89 45.79 77.33 36.94 86.18C38.38 86.90 40.61 88.49 41.69 89.50C47.66 83.45 51.70 76.68 54.58 69.77L54.58 81.58C54.58 85.03 54.86 86.11 55.94 87.05C56.88 87.98 58.32 88.34 59.83 88.34L62.93 88.34C64.08 88.34 65.38 87.98 66.24 87.48C67.10 86.83 67.68 85.90 68.11 84.46C68.47 83.02 68.69 78.91 68.76 75.38C67.54 75.02 65.95 74.16 65.09 73.44C65.09 76.82 65.02 79.78 64.87 81.07C64.73 81.79 64.44 82.44 64.15 82.73C63.86 82.94 63.43 83.09 62.86 83.09L61.20 83.09C60.77 83.09 60.34 82.94 60.05 82.66C59.76 82.44 59.69 82.01 59.69 81.50L59.69 60.55L57.60 60.55C57.96 59.33 58.25 58.18 58.54 56.95Z"/></svg>
