<svg xmlns="http://www.w3.org/2000/svg" xmlns:xlink="http://www.w3.org/1999/xlink" width="72.00000000000001" height="106.56000000000002"><path fill="red" stroke="red" d="M55.80 41.98L55.80 48.46L16.42 48.46C16.42 47.09 16.42 45.86 16.42 44.64L16.42 41.98ZM62.35 53.57L62.35 36.79L16.42 36.79L16.42 32.26C32.11 31.75 49.46 30.38 61.63 28.22L57.17 23.26C45.94 25.42 26.42 26.71 9.79 27.22L9.79 44.64C9.79 56.52 9.22 73.87 2.45 85.97C4.25 86.54 7.27 87.91 8.64 88.85C13.97 78.91 15.70 65.16 16.20 53.57ZM50.18 70.34L50.18 64.15L58.03 64.15L58.03 70.34ZM36.86 70.34L36.86 64.15L44.50 64.15L44.50 70.34ZM23.69 70.34L23.69 64.15L31.18 64.15L31.18 70.34ZM64.37 58.68L17.50 58.68L17.50 89.06L23.69 89.06L23.69 75.67L31.18 75.67L31.18 88.27L36.86 88.27L36.86 75.67L44.50 75.67L44.50 88.27L50.18 88.27L50.18 75.67L58.03 75.67L58.03 82.73C58.03 83.38 57.82 83.59 57.17 83.59C56.45 83.66 54.58 83.66 52.42 83.59C53.14 85.10 54.00 87.55 54.14 89.21C57.82 89.21 60.34 89.14 62.14 88.13C63.94 87.19 64.37 85.54 64.37 82.80Z"/></svg>
