<svg xmlns="http://www.w3.org/2000/svg" xmlns:xlink="http://www.w3.org/1999/xlink" width="72.00000000000001" height="106.56000000000002"><path fill="red" stroke="red" d="M41.69 80.28C42.34 74.09 42.98 66.46 43.63 58.46L55.80 58.46C55.51 66.38 55.08 74.02 54.58 80.28ZM56.45 34.13C56.38 39.89 56.23 46.08 56.02 52.20L44.14 52.20C44.57 46.01 45.00 39.82 45.29 34.13ZM69.34 58.46L69.34 52.20L62.42 52.20C62.71 43.85 62.93 35.35 63.07 27.86L30.38 27.86L30.38 34.13L38.81 34.13C38.52 39.82 38.09 46.01 37.66 52.20L27.65 52.20L27.65 53.64C24.98 54.36 22.32 55.15 19.66 55.80L19.66 43.34L27.86 43.34L27.86 37.15L19.66 37.15L19.66 23.11L13.03 23.11L13.03 37.15L3.46 37.15L3.46 43.34L13.03 43.34L13.03 57.53C9.07 58.54 5.33 59.47 2.38 60.12L4.18 66.60L13.03 64.15L13.03 81.79C13.03 82.80 12.74 83.16 11.74 83.16C10.80 83.23 7.78 83.23 4.68 83.09C5.47 84.82 6.34 87.55 6.55 89.21C11.52 89.21 14.69 89.06 16.78 88.06C18.94 86.98 19.66 85.25 19.66 81.79L19.66 62.28C22.61 61.49 25.63 60.62 28.58 59.76L28.37 58.46L37.15 58.46C36.50 66.38 35.78 74.09 34.99 80.28L26.28 80.28L26.28 86.62L69.26 86.62L69.26 80.28L61.06 80.28C61.49 74.09 61.85 66.46 62.14 58.46Z"/></svg>
