<svg xmlns="http://www.w3.org/2000/svg" xmlns:xlink="http://www.w3.org/1999/xlink" width="72.00000000000001" height="106.56000000000002"><path fill="red" stroke="red" d="M26.06 54.07L18.43 56.16L18.43 43.34L25.49 43.34L25.49 37.15L18.43 37.15L18.43 23.11L11.88 23.11L11.88 37.15L3.67 37.15L3.67 43.34L11.88 43.34L11.88 57.96C8.42 58.90 5.18 59.69 2.59 60.26L4.32 66.74L11.88 64.66L11.88 81.86C11.88 82.80 11.59 83.09 10.73 83.09C10.01 83.16 7.42 83.16 4.97 83.02C5.76 84.74 6.55 87.48 6.77 89.14C11.09 89.21 13.90 88.92 15.91 87.91C17.78 86.90 18.43 85.18 18.43 81.86L18.43 62.71C21.24 61.99 24.05 61.13 26.93 60.26ZM44.35 33.19L44.35 54.43L35.93 54.43L35.93 33.19ZM58.97 54.43L50.62 54.43L50.62 33.19L58.97 33.19ZM41.54 81.07C36.72 81.07 35.93 80.28 35.93 76.03L35.93 60.77L58.97 60.77L58.97 65.38L66.02 65.38L66.02 26.64L29.09 26.64L29.09 76.03C29.09 85.25 31.90 87.48 40.97 87.48L58.18 87.48C66.53 87.48 68.69 83.81 69.77 73.44C67.75 73.01 64.87 71.93 63.29 70.85C62.64 79.13 61.85 81.07 57.67 81.07Z"/></svg>
