<svg xmlns="http://www.w3.org/2000/svg" xmlns:xlink="http://www.w3.org/1999/xlink" width="72.00000000000001" height="106.56000000000002"><path fill="red" stroke="red" d="M49.82 36.43C47.16 33.70 41.47 30.10 37.15 27.72L33.55 32.18C37.87 34.85 43.42 38.74 46.01 41.54ZM47.09 53.50C44.14 51.05 38.09 47.59 33.62 45.43L30.10 50.18C34.63 52.63 40.61 56.38 43.34 58.90ZM27.79 53.64L19.44 55.94L19.44 43.42L28.01 43.42L28.01 37.22L19.44 37.22L19.44 23.11L12.89 23.11L12.89 37.22L3.60 37.22L3.60 43.42L12.89 43.42L12.89 57.67C9.07 58.68 5.54 59.54 2.66 60.19L4.46 66.67L12.89 64.37L12.89 81.22C12.89 82.30 12.53 82.58 11.52 82.66C10.66 82.66 7.56 82.66 4.39 82.58C5.33 84.24 6.19 87.05 6.41 88.70C11.38 88.70 14.54 88.56 16.63 87.48C18.72 86.47 19.44 84.74 19.44 81.29L19.44 62.50C22.46 61.56 25.56 60.77 28.58 59.83ZM69.48 67.75L68.33 61.56L59.40 63.00L59.40 23.04L52.85 23.04L52.85 64.08L27.79 68.11L29.02 74.45L52.85 70.49L52.85 89.14L59.40 89.14L59.40 69.41Z"/></svg>
