<svg xmlns="http://www.w3.org/2000/svg" xmlns:xlink="http://www.w3.org/1999/xlink" width="72.00000000000001" height="106.56000000000002"><path fill="red" stroke="red" d="M23.76 53.93L17.64 56.09L17.64 42.70L24.48 42.70L24.48 36.50L17.64 36.50L17.64 23.11L11.52 23.11L11.52 36.50L3.46 36.50L3.46 42.70L11.52 42.70L11.52 58.32C8.21 59.54 5.11 60.62 2.66 61.34L4.10 67.82L11.52 65.02L11.52 81.79C11.52 82.80 11.16 83.09 10.30 83.09C9.50 83.09 6.77 83.09 3.89 83.02C4.75 84.82 5.54 87.62 5.76 89.21C10.22 89.28 13.18 88.99 15.12 87.91C16.99 86.90 17.64 85.10 17.64 81.79L17.64 62.71C20.09 61.70 22.61 60.77 24.98 59.83ZM31.97 80.06L31.97 66.31C33.26 67.32 34.78 68.83 35.64 70.06C38.59 67.03 41.69 62.28 44.14 57.17L44.14 77.62L49.54 77.62L49.54 56.52C52.27 60.55 55.66 65.59 57.02 68.18L60.55 64.01L60.55 80.06ZM60.55 32.33L60.55 63.65C58.75 61.13 51.91 52.78 49.54 50.18L49.54 48.74L58.82 48.74L58.82 43.70L49.54 43.70L49.54 34.78L44.14 34.78L44.14 43.70L34.06 43.70L34.06 48.74L42.98 48.74C40.46 55.22 36.07 62.14 31.97 65.81L31.97 32.33ZM26.21 26.64L26.21 89.28L31.97 89.28L31.97 85.82L60.55 85.82L60.55 89.28L66.53 89.28L66.53 26.64Z"/></svg>
