<svg xmlns="http://www.w3.org/2000/svg" xmlns:xlink="http://www.w3.org/1999/xlink" width="72.00000000000001" height="106.56000000000002"><path fill="red" stroke="red" d="M37.51 69.91L48.31 69.91L48.31 78.41L37.51 78.41ZM48.31 49.90L37.51 49.90L37.51 41.83L48.31 41.83ZM48.31 64.01L37.51 64.01L37.51 55.80L48.31 55.80ZM68.69 78.41L54.50 78.41L54.50 69.91L66.17 69.91L66.17 64.01L54.50 64.01L54.50 55.80L66.24 55.80L66.24 49.90L54.50 49.90L54.50 41.83L67.25 41.83L67.25 35.71L52.78 35.71L56.95 33.91C56.09 31.10 53.93 26.86 51.84 23.69L46.08 25.99C47.88 29.02 49.75 32.90 50.62 35.71L38.38 35.71C39.96 32.26 41.26 28.73 42.48 25.20L36.07 23.54C32.83 34.06 27.36 44.42 20.95 51.05C21.89 51.70 23.11 52.99 24.19 54.14L18.14 55.94L18.14 43.13L25.85 43.13L25.85 36.94L18.14 36.94L18.14 23.26L11.74 23.26L11.74 36.94L3.10 36.94L3.10 43.13L11.74 43.13L11.74 57.82C8.21 58.75 5.04 59.69 2.45 60.34L3.96 66.82C6.41 66.10 9.00 65.30 11.74 64.44L11.74 81.29C11.74 82.30 11.38 82.58 10.44 82.58C9.65 82.66 6.91 82.66 4.10 82.51C5.04 84.38 5.83 87.34 6.05 89.06C10.58 89.06 13.54 88.85 15.55 87.70C17.50 86.62 18.14 84.74 18.14 81.36L18.14 62.42L25.85 60.05L25.06 55.01L25.85 55.87C27.65 53.86 29.45 51.48 31.10 48.96L31.10 89.28L37.51 89.28L37.51 84.53L68.69 84.53Z"/></svg>
