<svg xmlns="http://www.w3.org/2000/svg" xmlns:xlink="http://www.w3.org/1999/xlink" width="72.00000000000001" height="106.56000000000002"><path fill="red" stroke="red" d="M63.94 36.00C63.43 41.90 61.99 50.33 60.62 55.44L64.87 56.52C66.38 51.55 67.82 43.49 69.12 37.01ZM51.70 55.58C50.98 50.90 49.18 42.55 47.45 36.14L43.20 37.22C44.86 43.63 46.58 52.13 47.16 57.02ZM22.25 53.35C20.38 53.93 18.50 54.58 16.63 55.08L16.63 43.34L22.03 43.34L22.03 37.15L16.63 37.15L16.63 23.18L10.87 23.18L10.87 37.15L3.17 37.15L3.17 43.34L10.87 43.34L10.87 56.88C7.63 57.82 4.68 58.68 2.23 59.33L3.82 65.74C5.98 65.02 8.42 64.37 10.87 63.50L10.87 82.15C10.87 83.09 10.51 83.38 9.65 83.38C8.93 83.38 6.34 83.38 3.60 83.30C4.46 84.96 5.18 87.62 5.47 89.14C9.65 89.21 12.38 88.99 14.18 87.98C15.98 86.98 16.63 85.25 16.63 82.15L16.63 61.63C18.79 60.91 21.02 60.12 23.18 59.40ZM44.78 62.42C43.70 60.91 39.17 54.43 37.44 52.13L37.44 49.97L43.63 49.97L43.63 43.70L37.44 43.70L37.44 31.39C40.39 30.74 43.20 29.88 45.72 28.94L41.33 24.05C36.86 25.92 29.52 27.72 22.97 28.73C23.69 30.10 24.48 32.26 24.77 33.62C27.00 33.34 29.38 32.98 31.68 32.54L31.68 43.70L23.33 43.70L23.33 49.97L29.95 49.97C28.01 58.32 24.41 67.46 20.59 72.79C21.67 74.30 23.04 76.82 23.76 78.55C26.78 74.30 29.59 67.61 31.68 60.55L31.68 89.14L37.44 89.14L37.44 59.54C39.10 62.50 40.90 65.95 41.69 68.11ZM58.46 23.90L52.78 23.90L52.78 41.90C52.78 55.22 51.77 71.71 41.54 84.60C42.84 85.54 44.71 87.84 45.58 89.28C50.90 82.80 54.14 75.46 55.94 68.04C57.74 76.90 60.55 84.24 65.30 88.70C66.24 87.05 68.18 84.67 69.48 83.52C62.57 77.76 59.69 64.66 58.32 50.18C58.39 47.38 58.46 44.64 58.46 41.90Z"/></svg>
