<svg xmlns="http://www.w3.org/2000/svg" xmlns:xlink="http://www.w3.org/1999/xlink" width="72.00000000000001" height="106.56000000000002"><path fill="red" stroke="red" d="M23.18 59.76L22.10 53.71L16.34 55.73L16.34 43.34L22.61 43.34L22.61 37.15L16.34 37.15L16.34 23.18L10.58 23.18L10.58 37.15L3.46 37.15L3.46 43.34L10.58 43.34L10.58 57.82C7.63 58.82 4.97 59.69 2.66 60.41L4.39 66.82L10.58 64.51L10.58 81.86C10.58 82.73 10.30 82.87 9.58 82.94C8.86 82.94 6.91 82.94 4.75 82.87C5.47 84.60 6.19 87.19 6.41 88.78C10.08 88.78 12.46 88.56 14.18 87.48C15.77 86.54 16.34 84.82 16.34 81.86L16.34 62.35ZM30.17 32.40L68.11 32.40L68.11 26.50L24.70 26.50L24.70 51.70C24.70 61.85 24.19 75.10 18.50 84.38C19.66 85.03 21.96 87.19 22.75 88.27C29.16 78.19 30.17 62.50 30.17 51.70ZM39.67 43.56C39.31 41.18 38.30 37.44 37.37 34.63L33.19 35.57C34.06 38.52 35.06 42.26 35.35 44.64ZM50.26 72.29L50.26 58.82C51.26 59.62 52.56 60.98 53.14 61.63C54.72 58.61 55.94 54.79 56.81 50.54L64.73 50.54C64.37 54.14 63.94 57.89 63.50 60.48L66.96 61.63C67.75 57.74 68.62 51.41 69.19 46.15L66.46 45.22L65.74 45.43L57.74 45.43C58.25 42.05 58.68 38.59 58.97 34.92L54.50 34.34C53.86 42.98 52.85 51.41 50.26 57.31L50.26 52.92L46.51 52.92L46.51 67.46L43.49 67.46L43.49 50.62L50.69 50.62L50.69 45.58L47.02 45.58C48.10 42.55 49.18 38.74 50.26 35.35L45.29 34.20C44.78 37.44 43.56 42.12 42.55 45.58L31.90 45.58L31.90 50.62L39.17 50.62L39.17 67.46L36.29 67.46L36.29 52.92L32.62 52.92L32.62 72.29L38.59 72.29C38.52 75.89 37.51 81.07 29.81 84.67C31.10 85.68 32.76 87.48 33.55 88.85C42.34 84.10 43.63 77.04 43.70 72.29ZM56.95 53.42C56.52 66.74 55.22 79.06 46.80 85.61C48.02 86.40 49.46 88.06 50.26 89.28C54.65 85.54 57.31 80.50 58.97 74.45C60.26 79.92 62.57 85.32 66.24 88.99C66.96 87.77 68.47 86.18 69.77 85.32C63.43 79.49 61.63 68.40 60.98 61.70C61.20 59.04 61.34 56.23 61.49 53.42Z"/></svg>
