<svg xmlns="http://www.w3.org/2000/svg" xmlns:xlink="http://www.w3.org/1999/xlink" width="72.00000000000001" height="106.56000000000002"><path fill="red" stroke="red" d="M62.21 37.73L62.21 41.62L31.75 41.62L31.75 37.73ZM56.74 50.98L37.15 50.98L37.15 45.86L56.74 45.86ZM31.68 55.15L62.50 55.15L62.50 44.42L68.11 44.42L68.11 33.05L61.20 33.05C62.71 31.18 64.37 28.51 66.17 25.85L59.83 23.98C58.90 26.28 57.10 29.59 55.80 31.82L59.40 33.05L50.26 33.05L50.26 23.11L43.85 23.11L43.85 33.05L34.78 33.05L38.88 31.46C38.16 29.45 36.43 26.35 34.56 24.19L29.23 25.92C30.74 27.94 32.40 30.89 33.12 33.05L26.14 33.05L26.14 44.42L31.68 44.42ZM24.62 53.71L17.71 55.73L17.71 43.70L24.98 43.70L24.98 37.51L17.71 37.51L17.71 23.11L11.52 23.11L11.52 37.51L2.81 37.51L2.81 43.70L11.52 43.70L11.52 57.53C8.21 58.46 5.18 59.33 2.66 59.98L4.25 66.38L11.52 64.15L11.52 81.79C11.52 82.80 11.16 83.02 10.30 83.02C9.50 83.09 6.77 83.09 3.89 83.02C4.75 84.74 5.54 87.62 5.76 89.21C10.30 89.21 13.18 89.06 15.12 87.91C16.99 86.98 17.71 85.10 17.71 81.72L17.71 62.21C20.30 61.34 22.97 60.55 25.56 59.69ZM52.92 63.72L52.92 69.26L35.50 69.26C36.07 67.46 36.58 65.52 37.08 63.72ZM68.83 69.26L59.04 69.26L59.04 63.72L67.25 63.72L67.25 58.61L27.36 58.61L27.36 63.72L30.82 63.72C30.02 67.39 29.09 71.28 28.15 74.16L45.94 74.16C39.74 78.41 30.74 81.94 22.68 83.38C23.83 84.67 25.06 86.90 25.70 88.34C35.42 85.97 46.37 80.86 52.92 74.95L52.92 82.30C52.92 83.09 52.70 83.30 51.77 83.38C50.98 83.38 48.10 83.38 45.07 83.30C45.86 84.89 46.73 87.26 47.02 88.85C51.34 88.85 54.43 88.85 56.45 87.91C58.54 86.98 59.04 85.39 59.04 82.44L59.04 74.16L68.83 74.16Z"/></svg>
