<svg xmlns="http://www.w3.org/2000/svg" xmlns:xlink="http://www.w3.org/1999/xlink" width="72.00000000000001" height="106.56000000000002"><path fill="red" stroke="red" d="M22.10 33.41L22.10 45.50L12.02 45.50L12.02 33.41ZM12.02 64.15L12.02 51.48L22.10 51.48L22.10 64.15ZM28.37 70.27L28.37 27.29L5.83 27.29L5.83 76.75L12.02 76.75L12.02 70.27ZM42.41 60.48C42.70 57.46 42.77 54.50 42.77 51.70L42.77 49.32L59.62 49.32L59.62 60.48ZM59.62 32.33L59.62 43.27L42.77 43.27L42.77 32.33ZM66.17 26.14L36.14 26.14L36.14 51.62C36.14 62.57 35.06 76.10 23.83 85.18C25.42 86.04 28.01 88.34 29.02 89.64C36.50 83.59 40.03 75.02 41.54 66.53L59.62 66.53L59.62 80.93C59.62 82.22 59.11 82.66 57.89 82.73C56.59 82.73 52.20 82.80 47.88 82.66C48.89 84.31 49.97 87.34 50.33 89.14C56.38 89.14 60.34 88.99 62.86 87.84C65.30 86.83 66.17 84.82 66.17 81.00Z"/></svg>
