<svg xmlns="http://www.w3.org/2000/svg" xmlns:xlink="http://www.w3.org/1999/xlink" width="72.00000000000001" height="106.56000000000002"><path fill="red" stroke="red" d="M18.58 41.18L53.14 41.18L53.14 46.51L18.58 46.51ZM18.58 31.10L53.14 31.10L53.14 36.22L18.58 36.22ZM39.60 81.58L39.60 74.95L59.69 74.95L59.69 69.70L39.60 69.70L39.60 64.01L62.78 64.01L62.78 58.39L39.60 58.39L39.60 53.21L32.69 53.21L32.69 58.39L20.09 58.39C21.02 56.74 22.03 55.08 22.82 53.42L17.21 51.77L60.05 51.77L60.05 25.85L12.02 25.85L12.02 51.77L16.13 51.77C13.39 57.74 8.64 63.58 3.53 67.39C5.18 68.26 7.92 70.34 9.22 71.50C11.52 69.48 13.90 66.89 16.20 64.01L32.69 64.01L32.69 69.70L13.39 69.70L13.39 74.95L32.69 74.95L32.69 81.58L4.82 81.58L4.82 87.34L67.32 87.34L67.32 81.58Z"/></svg>
