<svg xmlns="http://www.w3.org/2000/svg" xmlns:xlink="http://www.w3.org/1999/xlink" width="72.00000000000001" height="106.56000000000002"><path fill="red" stroke="red" d="M10.58 69.62L10.58 54.50L16.70 54.50L16.70 69.62ZM16.70 33.98L16.70 48.74L10.58 48.74L10.58 33.98ZM44.86 59.11C43.85 57.46 39.31 51.05 37.58 48.74L37.58 44.21L43.99 44.21L43.99 38.66L37.58 38.66L37.58 23.62L31.90 23.62L31.90 38.66L24.55 38.66L24.55 44.21L31.75 44.21C29.74 53.50 25.99 63.94 22.03 69.62L22.03 28.15L5.33 28.15L5.33 81.00L10.58 81.00L10.58 75.46L22.03 75.46L22.03 70.78C23.33 71.78 24.91 73.44 25.78 74.59C28.01 71.06 30.17 65.52 31.90 59.54L31.90 89.06L37.58 89.06L37.58 56.45C39.17 59.26 40.68 62.21 41.47 63.94ZM69.05 46.22L52.13 46.22L52.13 34.78C57.53 33.12 63.14 31.18 67.61 28.94L62.14 24.19C58.46 26.57 52.06 29.23 46.30 30.96L46.30 50.33C46.30 60.77 45.79 75.53 40.18 85.90C41.69 86.47 44.28 87.84 45.36 88.78C50.90 78.41 52.06 63.07 52.13 51.98L57.74 51.98L57.74 88.78L63.50 88.78L63.50 51.98L69.05 51.98Z"/></svg>
