<svg xmlns="http://www.w3.org/2000/svg" xmlns:xlink="http://www.w3.org/1999/xlink" width="72.00000000000001" height="106.56000000000002"><path fill="red" stroke="red" d="M19.80 34.56L19.80 49.03L11.38 49.03L11.38 34.56ZM11.38 70.13L11.38 54.86L19.80 54.86L19.80 70.13ZM25.20 28.51L5.62 28.51L5.62 81.72L11.38 81.72L11.38 76.10L25.20 76.10ZM38.02 73.44C38.16 71.93 38.23 70.34 38.30 68.98L58.25 68.98L58.25 73.44ZM58.25 59.33L58.25 64.01L38.30 64.01L38.30 59.33ZM64.51 54.50L31.97 54.50L31.97 67.54C31.97 73.08 31.61 80.21 27.58 85.32C28.94 86.18 31.46 88.63 32.40 89.93C35.06 86.62 36.58 82.44 37.37 78.26L58.25 78.26L58.25 82.30C58.25 83.16 57.89 83.45 56.88 83.52C56.02 83.52 52.56 83.59 49.25 83.45C50.04 84.96 50.83 87.48 51.12 89.14C56.16 89.14 59.47 89.06 61.70 88.06C63.94 87.26 64.51 85.54 64.51 82.37ZM51.34 46.01L51.34 41.83L66.17 41.83L66.17 37.15L51.34 37.15L51.34 33.41L68.04 33.41L68.04 28.44L51.34 28.44L51.34 23.18L45.00 23.18L45.00 28.44L28.66 28.44L28.66 33.41L45.00 33.41L45.00 37.15L30.82 37.15L30.82 41.83L45.00 41.83L45.00 46.01L28.51 46.01L28.51 50.98L68.76 50.98L68.76 46.01Z"/></svg>
