<svg xmlns="http://www.w3.org/2000/svg" xmlns:xlink="http://www.w3.org/1999/xlink" width="72.00000000000001" height="106.56000000000002"><path fill="red" stroke="red" d="M56.66 68.98C55.37 70.85 52.85 73.58 50.98 75.46L49.54 74.95L49.54 64.58L43.70 64.58L43.70 74.74C36.43 77.54 29.16 80.35 24.26 82.01L26.42 86.90C31.46 84.82 37.58 82.22 43.70 79.49L43.70 83.52C43.70 84.24 43.49 84.46 42.55 84.53C41.76 84.53 39.17 84.53 36.36 84.46C37.01 85.82 37.80 87.77 38.02 89.28C42.26 89.28 45.14 89.21 47.09 88.42C49.03 87.70 49.54 86.40 49.54 83.66L49.54 79.92C54.58 82.08 59.90 84.67 63.07 86.76L66.24 82.51C63.50 81.00 59.40 78.91 55.15 77.18C56.95 75.46 59.11 73.51 60.98 71.35ZM41.18 74.16C40.25 72.65 38.02 70.42 36.14 68.83L32.26 71.35C34.13 73.08 36.22 75.38 37.08 77.11ZM41.33 53.64L52.49 53.64L52.49 57.89L41.33 57.89ZM41.33 45.07L52.49 45.07L52.49 48.89L41.33 48.89ZM34.78 37.22L58.03 37.22L58.03 40.75L34.78 40.75ZM34.78 29.74L58.03 29.74L58.03 33.19L34.78 33.19ZM10.73 69.55L10.73 54.50L17.57 54.50L17.57 69.55ZM17.57 33.98L17.57 48.74L10.73 48.74L10.73 33.98ZM68.47 62.78L68.47 57.89L58.32 57.89L58.32 53.64L66.38 53.64L66.38 48.89L58.32 48.89L58.32 45.07L64.37 45.07L64.37 25.42L28.73 25.42L28.73 45.07L35.57 45.07L35.57 48.89L27.29 48.89L27.29 53.64L35.57 53.64L35.57 57.89L25.20 57.89L25.20 62.78L33.98 62.78C30.96 65.30 26.86 67.68 23.04 68.98L23.04 28.15L5.40 28.15L5.40 81.22L10.73 81.22L10.73 75.46L23.04 75.46L23.04 69.77C24.12 70.78 25.27 72.14 25.92 73.22C31.18 71.06 37.01 66.96 40.39 62.78L53.57 62.78C56.59 66.82 61.56 71.28 65.88 73.58C66.74 72.36 68.40 70.56 69.48 69.62C66.10 68.18 62.14 65.52 59.26 62.78Z"/></svg>
