<svg xmlns="http://www.w3.org/2000/svg" xmlns:xlink="http://www.w3.org/1999/xlink" width="72.00000000000001" height="106.56000000000002"><path fill="red" stroke="red" d="M50.90 68.18L50.90 72.43L20.66 72.43L20.66 68.18ZM20.66 81.65L20.66 76.82L50.90 76.82L50.90 81.65ZM13.68 89.14L20.66 89.14L20.66 86.76L50.90 86.76L50.90 88.92L58.25 88.92L58.25 63.22L13.68 63.22ZM40.25 37.22L30.89 37.22L30.89 33.70L40.25 33.70ZM55.44 41.98L55.44 46.51L46.80 46.51L46.80 41.98ZM55.44 55.08L46.80 55.08L46.80 50.69L55.44 50.69ZM15.62 50.69L24.34 50.69L24.34 55.08L15.62 55.08ZM40.25 50.69L40.25 55.08L30.89 55.08L30.89 50.69ZM30.89 46.51L30.89 41.98L40.25 41.98L40.25 46.51ZM15.62 41.98L24.34 41.98L24.34 46.51L15.62 46.51ZM66.82 33.70L66.82 28.22L46.80 28.22L46.80 23.18L40.25 23.18L40.25 28.22L30.89 28.22L30.89 23.18L24.34 23.18L24.34 28.22L5.11 28.22L5.11 33.70L24.34 33.70L24.34 37.22L9.14 37.22L9.14 59.90L62.35 59.90L62.35 37.22L46.80 37.22L46.80 33.70Z"/></svg>
