<svg xmlns="http://www.w3.org/2000/svg" xmlns:xlink="http://www.w3.org/1999/xlink" width="72.00000000000001" height="106.56000000000002"><path fill="red" stroke="red" d="M11.88 56.30L28.15 56.30L28.15 61.42L11.88 61.42ZM11.88 46.58L28.15 46.58L28.15 51.55L11.88 51.55ZM36.29 77.40L36.29 71.42L23.40 71.42L23.40 66.46L34.49 66.46L34.49 41.47L23.40 41.47L23.40 36.65L36.29 36.65L36.29 30.67L23.40 30.67L23.40 23.04L16.78 23.04L16.78 30.67L3.82 30.67L3.82 36.65L16.78 36.65L16.78 41.47L5.76 41.47L5.76 66.46L16.78 66.46L16.78 71.42L3.10 71.42L3.10 77.40L16.78 77.40L16.78 89.14L23.40 89.14L23.40 77.40ZM46.94 60.19C47.09 57.38 47.16 54.65 47.16 52.06L47.16 49.54L59.54 49.54L59.54 60.19ZM59.54 32.54L59.54 43.49L47.16 43.49L47.16 32.54ZM66.10 26.50L40.68 26.50L40.68 52.06C40.68 62.50 39.96 76.25 32.62 85.61C34.27 86.33 37.01 88.13 38.23 89.28C43.06 83.02 45.36 74.52 46.37 66.24L59.54 66.24L59.54 81.00C59.54 82.15 59.18 82.44 58.10 82.51C57.10 82.51 53.64 82.58 50.18 82.44C51.12 84.17 51.98 87.26 52.27 89.06C57.60 89.06 60.91 88.92 63.14 87.77C65.30 86.69 66.10 84.74 66.10 81.14Z"/></svg>
