<svg xmlns="http://www.w3.org/2000/svg" xmlns:xlink="http://www.w3.org/1999/xlink" width="72.00000000000001" height="106.56000000000002"><path fill="red" stroke="red" d="M29.38 58.46C28.22 56.59 23.54 49.18 21.31 45.94L21.31 43.06L30.17 43.06L30.17 36.72L21.31 36.72L21.31 23.18L14.90 23.18L14.90 36.72L3.89 36.72L3.89 43.06L14.04 43.06C11.74 52.34 7.06 62.86 2.23 68.69C3.24 70.34 4.82 73.01 5.54 74.88C9.07 70.42 12.31 63.36 14.90 55.87L14.90 89.14L21.31 89.14L21.31 55.01C22.90 58.10 24.34 61.27 25.13 63.36ZM51.77 79.56L51.77 51.48L66.67 51.48L66.67 45.00L51.77 45.00L51.77 23.76L44.86 23.76L44.86 45.00L31.10 45.00L31.10 51.48L44.86 51.48L44.86 79.56L27.22 79.56L27.22 86.04L69.05 86.04L69.05 79.56Z"/></svg>
