<svg xmlns="http://www.w3.org/2000/svg" xmlns:xlink="http://www.w3.org/1999/xlink" width="72.00000000000001" height="106.56000000000002"><path fill="red" stroke="red" d="M20.74 42.91L28.51 42.91L28.51 36.72L20.74 36.72L20.74 23.18L14.18 23.18L14.18 36.72L3.60 36.72L3.60 42.91L12.82 42.91C10.80 52.20 6.48 63.00 2.02 68.69C3.17 70.42 4.75 73.37 5.33 75.31C8.71 70.49 11.88 62.71 14.18 54.58L14.18 89.14L20.74 89.14L20.74 52.99C23.33 57.24 26.28 62.42 27.58 65.30L31.90 60.19C30.24 57.74 23.11 47.88 20.74 45.00ZM68.54 40.75L68.54 34.56L40.90 34.56C42.12 31.25 43.20 27.86 44.06 24.41L37.51 22.90C35.21 32.76 31.03 42.41 25.85 48.53C27.36 49.61 30.10 51.84 31.18 53.06C33.77 49.75 36.22 45.50 38.38 40.75L41.62 40.75L41.62 89.21L48.24 89.21L48.24 71.50L67.61 71.50L67.61 65.45L48.24 65.45L48.24 55.73L67.03 55.73L67.03 49.68L48.24 49.68L48.24 40.75Z"/></svg>
