<svg xmlns="http://www.w3.org/2000/svg" xmlns:xlink="http://www.w3.org/1999/xlink" width="72.00000000000001" height="106.56000000000002"><path fill="red" stroke="red" d="M59.98 38.81L66.38 38.81L66.38 28.22L40.46 28.22C39.53 26.50 38.23 24.55 37.30 22.97L30.38 24.55C30.96 25.70 31.68 26.93 32.40 28.22L5.90 28.22L5.90 38.81L12.10 38.81L12.10 33.84L59.98 33.84ZM44.57 46.51C42.55 48.74 40.03 50.69 37.01 52.20C32.76 51.34 28.37 50.54 23.98 49.82C25.06 48.74 26.21 47.66 27.36 46.51ZM67.03 59.83C61.34 57.96 53.86 55.94 45.50 54.00C48.38 51.98 50.76 49.46 52.70 46.51L67.46 46.51L67.46 41.18L55.51 41.18C55.94 40.10 56.38 39.02 56.74 37.87L50.18 36.50C49.61 38.16 49.03 39.74 48.24 41.18L32.18 41.18C33.77 39.38 35.14 37.58 36.36 35.86L30.02 33.84C28.51 36.22 26.71 38.66 24.62 41.18L4.68 41.18L4.68 46.51L19.94 46.51C17.64 48.89 15.41 51.26 13.39 53.06C18.07 53.78 22.75 54.65 27.29 55.51C21.02 56.88 13.54 57.60 4.39 57.96C5.33 59.40 6.26 61.56 6.77 63.50C20.30 62.64 30.74 61.13 38.52 57.89C47.45 59.83 55.01 62.06 60.55 64.15ZM20.88 73.15C17.28 77.11 10.66 80.71 4.39 82.87C6.05 83.95 8.71 86.11 10.01 87.41C16.13 84.67 23.33 80.21 27.50 75.31ZM68.18 66.74L39.17 66.74L39.17 61.27L32.47 61.27L32.47 66.74L4.03 66.74L4.03 72.29L32.47 72.29L32.47 89.14L39.17 89.14L39.17 72.29L48.38 72.29L43.85 76.46C50.18 79.56 58.25 84.53 62.14 87.98L67.25 83.23C63.07 79.78 54.86 75.17 48.60 72.29L68.18 72.29Z"/></svg>
