<svg xmlns="http://www.w3.org/2000/svg" xmlns:xlink="http://www.w3.org/1999/xlink" width="72.00000000000001" height="106.56000000000002"><path fill="red" stroke="red" d="M32.69 51.48L39.10 51.48L39.10 46.44C46.73 48.96 58.68 53.57 63.43 55.51L66.46 51.05C62.21 49.18 45.22 43.49 39.10 41.54L39.10 39.38L54.07 39.38L54.07 45.86L60.48 45.86L60.48 34.78L39.10 34.78L39.10 31.82L67.03 31.82L67.03 27.00L39.10 27.00L39.10 23.11L32.69 23.11L32.69 27.00L5.11 27.00L5.11 31.82L32.69 31.82L32.69 34.78L11.88 34.78L11.88 45.79L17.93 45.79L17.93 39.38L32.69 39.38L32.69 40.82C26.71 45.29 15.41 48.67 4.82 50.04C6.12 51.26 7.63 53.42 8.50 54.86C16.99 53.50 26.06 50.47 32.69 46.37ZM39.10 69.34L55.44 69.34L55.44 77.11L61.85 77.11L61.85 64.58L39.10 64.58L39.10 61.42L67.90 61.42L67.90 56.45L39.10 56.45L39.10 52.85L32.69 52.85L32.69 56.45L4.18 56.45L4.18 61.42L32.69 61.42L32.69 64.58L10.58 64.58L10.58 77.54L16.85 77.54L16.85 69.34L32.69 69.34L32.69 71.14C26.21 76.75 13.68 81.22 1.87 82.94C3.24 84.31 4.97 86.69 5.76 88.20C15.41 86.33 25.42 82.51 32.69 77.47L32.69 89.64L39.10 89.64L39.10 77.40C46.58 82.37 56.52 86.26 65.95 88.13C66.82 86.47 68.62 83.95 70.06 82.58C58.32 80.86 45.79 76.39 39.10 70.99Z"/></svg>
