<svg xmlns="http://www.w3.org/2000/svg" xmlns:xlink="http://www.w3.org/1999/xlink" width="72.00000000000001" height="106.56000000000002"><path fill="red" stroke="red" d="M37.08 37.44C37.51 35.93 37.94 34.27 38.38 32.62L54.79 32.62C54.58 34.06 54.29 35.78 54.00 37.44ZM63.43 54.14C59.62 56.95 53.78 60.48 48.74 62.86C47.23 60.48 45.29 58.18 42.91 56.16C44.93 54.86 46.73 53.64 48.38 52.27L68.76 52.27L68.76 46.87L58.25 46.87C59.54 40.75 60.91 33.77 61.78 28.08L57.31 27.36L56.23 27.65L39.67 27.65L40.68 23.62L34.56 22.90C33.34 29.16 31.25 37.22 29.66 42.41L52.99 42.41C52.70 43.92 52.42 45.43 52.06 46.87L24.55 46.87L24.55 52.27L40.03 52.27C35.64 54.79 30.31 57.02 25.13 58.68L25.49 58.18C24.34 56.38 19.51 49.10 17.50 46.37L17.50 42.91L24.84 42.91L24.84 36.72L17.50 36.72L17.50 23.11L11.38 23.11L11.38 36.72L3.31 36.72L3.31 42.91L10.87 42.91C8.93 52.13 4.97 62.71 0.86 68.54C1.87 70.13 3.31 72.72 3.96 74.52C6.70 70.42 9.36 64.22 11.38 57.53L11.38 89.14L17.50 89.14L17.50 54.00C19.30 57.24 21.17 60.91 22.10 63.00L23.98 60.34C24.98 61.49 26.06 63.07 26.57 63.86C30.31 62.50 34.42 60.84 38.30 58.75C39.24 59.62 40.18 60.48 40.97 61.27C36.36 64.66 29.16 68.04 23.47 69.62C24.70 70.78 26.06 72.72 26.78 74.09C32.11 71.93 38.81 68.40 43.70 64.94C44.42 66.10 45.00 67.32 45.43 68.40C39.74 73.94 29.81 79.13 21.17 81.50C22.32 82.66 23.62 84.82 24.34 86.11C31.97 83.52 40.68 78.77 46.87 73.51C47.45 77.76 46.51 81.14 44.86 82.44C43.78 83.59 42.48 83.81 40.90 83.81C39.60 83.81 37.66 83.74 35.50 83.52C36.50 85.18 36.94 87.55 37.01 89.06C38.81 89.21 40.75 89.21 42.19 89.21C45.07 89.14 47.16 88.56 49.25 86.69C53.06 83.66 54.36 75.46 51.05 67.32C51.98 66.89 53.06 66.38 54.14 65.88C56.30 74.81 59.90 82.51 65.66 86.76C66.53 85.18 68.47 82.94 69.77 81.94C64.37 78.55 60.77 71.42 58.75 63.50C61.92 61.85 65.16 60.05 67.75 58.18Z"/></svg>
