<svg xmlns="http://www.w3.org/2000/svg" xmlns:xlink="http://www.w3.org/1999/xlink" width="72.00000000000001" height="106.56000000000002"><path fill="red" stroke="red" d="M61.34 32.33C60.84 45.86 60.34 50.83 59.40 52.06C58.90 52.78 58.39 52.92 57.60 52.92C56.66 52.92 54.94 52.92 52.99 52.70C53.86 54.14 54.36 56.52 54.50 58.18C56.81 58.32 59.04 58.25 60.48 58.03C62.21 57.82 63.29 57.24 64.37 55.80C65.95 53.71 66.53 47.23 67.18 29.09L67.18 26.64L45.00 26.64L45.00 32.33L50.54 32.33C49.97 42.84 47.74 50.83 41.69 55.87C42.98 56.59 45.43 58.54 46.44 59.47C52.70 53.28 55.22 44.57 55.94 32.33ZM31.46 38.38L25.78 38.38L25.78 43.56L31.46 43.56L31.46 48.31C28.80 48.53 26.28 48.74 24.19 48.89L24.77 54.36L31.46 53.57L31.46 60.34L37.08 60.34L37.08 52.92L44.50 52.06L44.50 47.09L37.08 47.81L37.08 43.56L42.98 43.56L42.98 38.38L37.08 38.38L37.08 33.84L43.78 33.84L43.78 28.58L37.08 28.58L37.08 23.18L31.46 23.18L31.46 28.58L24.55 28.58L24.55 33.84L31.46 33.84ZM25.27 58.75C24.19 56.81 19.51 49.39 17.35 46.30L17.35 42.91L24.41 42.91L24.41 36.72L17.35 36.72L17.35 23.18L11.45 23.18L11.45 36.72L3.46 36.72L3.46 42.91L10.37 42.91C8.86 51.62 5.54 62.57 2.23 68.26C3.10 69.91 4.61 72.72 5.26 74.66C7.56 70.27 9.72 63.65 11.45 56.74L11.45 89.21L17.35 89.21L17.35 54.86C19.01 58.03 20.52 61.34 21.31 63.36ZM67.68 70.70L67.68 65.09L47.52 65.09C47.74 63.43 47.88 61.85 48.02 60.05L41.76 60.05C41.62 61.85 41.47 63.50 41.18 65.09L23.47 65.09L23.47 70.70L39.96 70.70C37.73 77.33 32.83 81.65 20.88 84.17C22.10 85.39 23.76 87.77 24.26 89.35C38.30 85.90 43.92 79.85 46.44 70.70ZM46.01 75.53C52.27 79.56 60.91 85.39 65.16 88.78L69.26 83.81C64.87 80.50 56.09 75.02 49.90 71.28Z"/></svg>
