<svg xmlns="http://www.w3.org/2000/svg" xmlns:xlink="http://www.w3.org/1999/xlink" width="72.00000000000001" height="106.56000000000002"><path fill="red" stroke="red" d="M24.98 75.53C20.38 78.48 11.66 81.14 4.39 82.22C5.76 83.45 7.49 85.68 8.42 87.12C15.84 85.46 24.84 81.72 29.88 77.83ZM43.13 78.48C49.68 81.00 58.46 84.82 62.93 87.05L67.39 83.16C62.57 80.86 53.78 77.40 47.45 75.10ZM46.94 40.75C45.94 42.62 44.28 45.36 42.91 47.16L45.50 47.95L25.85 47.95L29.09 47.09C28.51 45.43 27.14 42.77 25.70 40.75ZM39.17 66.89L39.17 62.57L61.27 62.57L61.27 57.53L39.17 57.53L39.17 53.21L64.66 53.21L64.66 47.95L49.39 47.95C50.83 46.30 52.49 44.35 54.07 42.19L48.46 40.75L67.32 40.75L67.32 35.42L57.02 35.42C58.90 32.76 61.06 29.16 63.00 25.63L56.09 23.83C55.01 27.07 52.78 31.61 51.05 34.49L53.86 35.42L46.01 35.42L46.01 23.04L39.67 23.04L39.67 35.42L32.54 35.42L32.54 23.04L26.28 23.04L26.28 35.42L18.22 35.42L22.03 33.98C21.02 31.18 18.50 26.78 16.27 23.69L10.44 25.70C12.46 28.66 14.62 32.62 15.70 35.42L4.97 35.42L4.97 40.75L23.33 40.75L19.15 41.76C20.38 43.63 21.60 46.15 22.32 47.95L7.85 47.95L7.85 53.21L32.62 53.21L32.62 57.53L11.38 57.53L11.38 62.57L32.62 62.57L32.62 66.89L4.68 66.89L4.68 72.50L32.62 72.50L32.62 89.21L39.17 89.21L39.17 72.50L67.54 72.50L67.54 66.89Z"/></svg>
