<svg xmlns="http://www.w3.org/2000/svg" xmlns:xlink="http://www.w3.org/1999/xlink" width="72.00000000000001" height="106.56000000000002"><path fill="red" stroke="red" d="M61.34 26.64C60.19 29.02 57.82 32.62 56.02 34.92L60.12 36.72C62.14 34.70 64.80 31.68 67.18 28.73ZM45.14 32.54C43.92 30.89 41.47 28.15 39.53 26.06L35.57 28.94C37.44 31.18 39.82 34.13 41.11 35.93ZM30.02 26.86C28.94 29.16 26.78 32.62 25.13 34.92L29.23 36.58C31.03 34.63 33.34 31.68 35.57 28.87ZM14.54 33.05C13.25 31.32 10.58 28.30 8.57 26.06L4.54 28.94C6.62 31.32 9.22 34.56 10.51 36.43ZM6.12 48.24L6.12 60.26L12.53 60.26L12.53 54.07L59.47 54.07L59.47 60.26L66.17 60.26L66.17 48.24L63.29 48.24L66.96 44.42C63.65 41.98 57.38 38.02 52.78 35.21C53.78 31.82 54.29 27.86 54.50 23.11L48.46 23.11C47.95 34.42 46.15 40.03 34.27 43.20C35.50 44.35 37.08 46.66 37.66 48.17C43.92 46.30 47.88 43.70 50.33 40.18C54.43 42.84 58.97 46.01 61.85 48.24L8.71 48.24C14.33 46.44 17.93 43.92 20.23 40.61C23.33 42.77 26.78 45.22 28.73 46.87L33.12 42.77C30.67 40.82 26.14 37.80 22.61 35.71C23.69 32.26 24.12 28.08 24.34 23.11L18.43 23.11C17.93 35.21 16.20 40.75 3.60 43.92C4.61 44.93 5.98 46.80 6.70 48.24ZM24.34 70.78C19.73 75.53 10.80 79.63 2.59 81.50C4.10 82.80 6.05 85.32 7.06 87.05C15.55 84.46 24.62 79.13 29.88 72.94ZM64.37 68.18L64.37 62.28L39.24 62.28L39.24 55.73L32.62 55.73L32.62 62.28L8.28 62.28L8.28 68.18L32.62 68.18L32.62 89.06L39.24 89.06L39.24 68.18ZM42.98 74.23C50.11 77.98 59.26 83.66 63.65 87.41L68.62 82.94C63.94 79.20 54.65 73.80 47.66 70.34Z"/></svg>
