<svg xmlns="http://www.w3.org/2000/svg" xmlns:xlink="http://www.w3.org/1999/xlink" width="72.00000000000001" height="106.56000000000002"><path fill="red" stroke="red" d="M69.34 37.94L51.84 37.94L51.84 31.61L66.17 31.61L66.17 25.85L31.75 25.85L31.75 31.61L45.22 31.61L45.22 37.94L29.38 37.94L29.38 43.70L69.34 43.70ZM29.16 62.21C27.86 60.19 22.03 51.55 20.02 48.96L20.02 44.35L28.30 44.35L28.30 38.16L20.02 38.16L20.02 23.11L13.75 23.11L13.75 38.16L3.89 38.16L3.89 44.35L13.18 44.35C11.02 53.57 6.77 64.22 2.38 70.20C3.46 71.71 4.97 74.30 5.62 76.18C8.64 71.93 11.45 65.45 13.75 58.46L13.75 89.14L20.02 89.14L20.02 57.17C22.10 60.70 24.34 64.80 25.42 67.18ZM38.88 67.54L58.75 67.54L58.75 71.50L38.88 71.50ZM38.88 59.62L58.75 59.62L58.75 63.50L38.88 63.50ZM38.88 51.62L58.75 51.62L58.75 55.51L38.88 55.51ZM65.38 75.82L65.38 47.30L32.62 47.30L32.62 75.82L39.96 75.82C36.86 78.91 30.74 82.73 25.78 84.74C27.14 86.04 29.23 88.06 30.31 89.35C35.50 87.05 41.90 83.02 45.94 79.34L40.54 75.82ZM52.13 79.49C56.52 82.51 62.42 86.76 65.16 89.50L69.98 85.46C66.96 82.80 61.06 78.70 56.74 75.96Z"/></svg>
