<svg xmlns="http://www.w3.org/2000/svg" xmlns:xlink="http://www.w3.org/1999/xlink" width="72.00000000000001" height="106.56000000000002"><path fill="red" stroke="red" d="M36.00 42.41L44.78 42.41L44.78 48.96L36.00 48.96ZM50.90 32.47C50.04 34.13 49.03 35.93 47.95 37.44L35.93 37.44C37.37 35.86 38.59 34.13 39.74 32.47ZM59.33 48.96L50.76 48.96L50.76 42.41L59.33 42.41ZM62.71 54.65C59.69 57.10 54.86 60.19 50.90 62.42C49.61 59.90 47.88 57.46 45.65 55.44C46.22 54.94 46.73 54.43 47.30 53.93L65.23 53.93L65.23 37.44L54.65 37.44C56.38 34.99 57.96 32.26 59.11 29.88L55.01 27.14L54.00 27.43L42.77 27.43C43.42 26.28 43.99 25.13 44.57 23.98L38.38 22.90C36.07 28.37 31.61 34.99 24.91 40.03L24.91 36.72L18.65 36.72L18.65 23.11L12.60 23.11L12.60 36.72L3.74 36.72L3.74 42.91L12.17 42.91C10.15 52.20 6.34 63.00 2.16 68.69C3.31 70.49 4.82 73.44 5.47 75.31C8.06 71.28 10.58 65.02 12.60 58.25L12.60 89.14L18.65 89.14L18.65 53.86C20.38 56.88 22.03 60.19 22.90 62.14L26.78 57.53C25.56 55.58 20.59 48.38 18.65 45.94L18.65 42.91L24.91 42.91L24.91 41.33C26.21 42.26 27.72 43.63 28.51 44.71C29.16 44.28 29.81 43.78 30.38 43.20L30.38 53.93L39.60 53.93C35.21 56.74 29.45 59.33 24.55 60.77C25.85 61.92 27.58 63.94 28.44 65.30C32.54 63.79 37.44 61.20 41.69 58.39C42.48 59.18 43.27 60.19 43.99 61.13C39.17 64.73 31.10 68.47 24.77 70.27C26.06 71.50 27.50 73.58 28.30 75.02C33.98 72.79 41.26 68.98 46.30 65.38C46.66 66.17 47.02 67.03 47.30 67.90C42.12 72.94 32.40 78.12 24.34 80.28C25.56 81.58 27.00 83.59 27.72 85.03C34.56 82.58 42.55 78.19 48.38 73.51C48.74 77.54 47.95 80.86 46.58 82.08C45.72 83.30 44.64 83.45 43.20 83.45C41.98 83.45 40.10 83.38 38.02 83.16C38.95 84.74 39.53 87.19 39.60 88.70C41.40 88.78 43.06 88.85 44.35 88.85C47.23 88.78 49.10 88.20 50.98 86.26C54.22 83.30 55.37 75.10 52.78 67.03C53.57 66.67 54.36 66.24 55.15 65.74C57.53 73.08 61.20 80.50 65.23 84.67C66.31 83.16 68.11 81.07 69.55 79.99C65.45 76.54 61.49 69.91 59.18 63.50C61.63 62.06 64.01 60.41 66.02 58.82Z"/></svg>
