<svg xmlns="http://www.w3.org/2000/svg" xmlns:xlink="http://www.w3.org/1999/xlink" width="72.00000000000001" height="106.56000000000002"><path fill="red" stroke="red" d="M11.45 53.64L11.45 48.53L17.28 48.53L17.28 53.64ZM29.52 48.53L29.52 53.64L23.40 53.64L23.40 48.53ZM16.13 33.26L24.77 33.26L24.77 37.15L16.13 37.15ZM34.92 81.43C32.76 80.06 24.48 75.82 21.02 74.16L21.02 74.09L37.37 74.09L37.37 69.41L22.46 69.41C22.61 68.18 22.82 67.10 22.97 65.88L35.35 65.88L35.35 61.27L23.33 61.27C23.40 60.48 23.40 59.69 23.40 58.82L23.40 58.03L35.35 58.03L35.35 51.12C36.86 52.06 38.81 53.42 39.82 54.14C42.41 50.33 44.64 45.29 46.37 39.74L62.14 39.74C61.13 44.28 59.90 49.10 58.75 52.34L63.94 54.07C65.95 49.10 67.97 41.33 69.48 34.70L65.09 33.41L64.01 33.62L48.10 33.62C48.89 30.53 49.54 27.36 49.97 24.12L43.78 23.11C42.34 33.05 39.67 42.77 35.35 49.18L35.35 44.14L23.40 44.14L23.40 40.82L30.96 40.82L30.96 33.26L38.09 33.26L38.09 28.44L30.96 28.44L30.96 23.11L24.77 23.11L24.77 28.44L16.13 28.44L16.13 23.11L10.15 23.11L10.15 28.44L3.10 28.44L3.10 33.26L10.15 33.26L10.15 40.82L17.28 40.82L17.28 44.14L5.90 44.14L5.90 58.03L17.28 58.03L17.28 58.82C17.28 59.62 17.28 60.48 17.21 61.27L5.90 61.27L5.90 65.88L16.85 65.88C16.70 67.10 16.49 68.18 16.20 69.41L3.31 69.41L3.31 74.09L14.54 74.09C12.53 78.26 9.00 82.01 2.95 84.74C4.32 85.90 6.26 88.06 7.06 89.42C12.74 86.47 16.42 82.66 18.86 78.48C22.90 80.78 28.58 84.46 31.18 86.47ZM54.14 43.56L48.02 43.56L48.02 48.74C48.02 58.61 46.73 73.80 33.12 84.67C34.49 85.82 36.58 88.20 37.44 89.78C45.36 83.23 49.54 75.46 51.77 67.82C54.79 76.68 59.11 83.16 65.88 89.21C66.67 87.41 68.47 85.39 69.98 84.17C61.20 77.04 56.81 68.62 54.00 54.58C54.07 52.56 54.14 50.69 54.14 48.89Z"/></svg>
