<svg xmlns="http://www.w3.org/2000/svg" xmlns:xlink="http://www.w3.org/1999/xlink" width="72.00000000000001" height="106.56000000000002"><path fill="red" stroke="red" d="M66.89 34.27L66.89 29.16L22.10 29.16C22.82 27.72 23.54 26.35 24.19 24.84L17.86 23.04C14.47 30.82 8.42 38.23 1.94 42.91C3.31 44.14 5.62 46.87 6.55 48.17C11.02 44.57 15.41 39.74 18.94 34.27ZM60.98 42.55L60.98 37.66L18.72 37.66L18.72 42.55ZM21.60 58.18L22.97 57.74C22.39 55.94 20.95 53.35 19.51 51.26L35.42 51.26C34.49 53.28 32.83 56.09 31.46 58.18ZM11.16 46.08L11.16 51.26L18.72 51.26L13.82 52.63C14.90 54.36 15.91 56.45 16.63 58.18L6.84 58.18L6.84 63.00L24.26 63.00L24.26 66.67L9.36 66.67L9.36 71.35L24.26 71.35L24.26 75.31L4.68 75.31L4.68 80.35L24.26 80.35L24.26 89.21L30.74 89.21L30.74 80.35L49.39 80.35L49.39 75.31L30.74 75.31L30.74 71.35L45.79 71.35L45.79 66.67L30.74 66.67L30.74 63.00L47.81 63.00L47.81 58.18L38.16 58.18C39.38 56.52 40.68 54.65 41.90 52.70L36.58 51.26L50.69 51.26C50.90 74.16 52.34 89.28 62.57 89.28C67.39 89.28 68.76 85.75 69.26 76.25C67.90 75.31 66.10 73.66 64.80 72.22C64.73 78.34 64.30 82.58 63.07 82.58C57.96 82.66 57.24 67.68 57.38 46.08Z"/></svg>
