<svg xmlns="http://www.w3.org/2000/svg" xmlns:xlink="http://www.w3.org/1999/xlink" width="72.00000000000001" height="106.56000000000002"><path fill="red" stroke="red" d="M60.98 23.62C52.99 26.86 38.59 29.23 25.92 30.53C26.71 31.97 27.65 34.63 27.94 36.22C40.97 35.06 56.23 32.76 66.46 28.94ZM49.82 45.14C48.67 42.62 46.44 38.59 44.64 35.50L39.24 37.66C40.90 40.75 43.06 45.07 43.99 47.66ZM24.12 32.11C21.17 30.02 15.34 26.57 11.23 24.34L7.20 28.80C11.38 31.32 17.06 35.06 19.87 37.30ZM20.09 50.62C17.06 48.67 10.94 45.50 6.84 43.49L3.17 48.46C7.49 50.69 13.46 54.14 16.42 56.16ZM19.08 60.98C14.98 69.19 9.43 78.41 5.54 83.81L11.30 88.34C15.48 81.58 20.30 72.94 24.05 65.45ZM39.96 77.47C50.33 70.70 60.55 60.12 66.60 50.26L61.92 47.38L60.62 47.74L25.42 47.74L25.42 54.00L56.02 54.00C50.90 61.06 42.98 68.83 35.06 73.80C34.49 73.51 33.91 73.37 33.26 73.37C30.24 73.37 26.42 77.04 22.61 82.37L27.14 88.78C29.16 84.31 31.61 79.42 33.19 79.42C34.56 79.42 36.65 81.65 39.31 83.66C43.34 86.62 47.52 87.84 53.93 87.84C57.60 87.84 64.80 87.62 67.97 87.41C68.04 85.61 68.90 82.22 69.62 80.35C65.16 80.93 58.46 81.29 54.00 81.29C48.24 81.29 44.06 80.42 40.54 77.83Z"/></svg>
