<svg xmlns="http://www.w3.org/2000/svg" xmlns:xlink="http://www.w3.org/1999/xlink" width="72.00000000000001" height="106.56000000000002"><path fill="red" stroke="red" d="M23.18 32.69C20.52 30.02 15.05 26.64 10.51 24.62L6.62 29.38C11.16 31.61 16.56 35.21 19.15 37.87ZM19.58 50.76C16.92 48.24 11.38 44.86 6.98 42.84L3.17 47.59C7.63 49.82 13.03 53.42 15.62 56.02ZM15.55 61.20C12.31 69.26 8.14 78.34 5.11 83.88L11.16 87.70C14.40 80.93 18.07 72.43 20.81 64.87ZM42.12 53.71L42.12 60.19L31.82 60.19C32.18 58.18 32.54 55.87 32.83 53.71ZM48.53 40.75L59.11 40.75L59.11 47.74L48.53 47.74ZM48.53 60.19L48.53 53.71L65.52 53.71L65.52 34.78L56.45 34.78C58.39 31.90 60.48 28.44 62.21 25.20L55.30 22.97C53.86 26.50 51.41 31.32 49.25 34.78L38.30 34.78L41.76 33.26C40.82 30.46 38.30 26.35 36.00 23.26L30.17 25.63C32.18 28.37 34.20 32.04 35.28 34.78L24.91 34.78L24.91 40.75L42.12 40.75L42.12 47.74L27.29 47.74C26.64 53.71 25.56 61.20 24.48 66.10L38.59 66.10C33.91 72.36 26.78 78.12 19.66 81.07C21.24 82.30 23.26 84.82 24.34 86.47C30.82 83.23 37.22 77.76 42.12 71.35L42.12 89.14L48.53 89.14L48.53 66.10L60.70 66.10C60.19 72.50 59.62 75.17 58.90 76.10C58.39 76.68 57.82 76.75 56.81 76.75C55.80 76.75 53.64 76.75 51.12 76.46C51.98 78.12 52.70 80.71 52.85 82.58C55.73 82.73 58.54 82.66 59.98 82.51C61.85 82.30 63.07 81.72 64.30 80.42C65.88 78.55 66.67 73.80 67.39 62.71C67.46 61.85 67.54 60.19 67.54 60.19Z"/></svg>
