<svg xmlns="http://www.w3.org/2000/svg" xmlns:xlink="http://www.w3.org/1999/xlink" width="72.00000000000001" height="106.56000000000002"><path fill="red" stroke="red" d="M20.52 30.89C18.00 28.94 12.96 25.85 9.29 23.98L5.40 28.66C9.07 30.82 14.18 34.13 16.49 36.22ZM18.22 49.39C15.55 47.45 10.30 44.71 6.55 42.91L2.74 47.81C6.55 49.82 11.81 52.85 14.33 54.79ZM12.60 61.85C10.01 70.06 6.41 79.27 3.82 84.89L9.86 88.20C12.67 81.43 15.77 72.79 18.07 65.23ZM69.12 62.14L59.90 62.14L59.90 57.46C63.22 54.72 66.53 51.12 68.98 47.74L65.02 44.86L63.79 45.22L48.10 45.22C49.25 43.20 50.18 40.90 51.12 38.52L69.05 38.52L69.05 32.18L53.14 32.18C53.86 29.66 54.43 26.93 54.94 24.26L48.60 23.26C47.59 28.94 46.01 34.70 43.85 39.38L43.85 34.13L31.54 34.13L36.86 31.82C35.64 29.23 33.19 25.56 30.96 22.75L24.91 25.27C26.78 27.86 29.09 31.61 30.17 34.13L18.72 34.13L18.72 40.46L24.77 40.46C24.41 57.46 23.62 74.95 14.54 84.74C16.13 85.75 18.14 87.62 19.15 89.06C26.35 81.00 29.09 68.90 30.17 55.73L36.22 55.73C35.64 73.66 34.99 80.21 33.84 81.65C33.34 82.58 32.76 82.73 31.75 82.73C30.74 82.73 28.51 82.66 26.06 82.44C26.93 84.17 27.50 86.69 27.65 88.49C30.46 88.56 33.26 88.56 34.85 88.34C36.72 88.06 37.94 87.48 39.17 85.82C41.04 83.30 41.62 75.17 42.34 52.42C42.41 51.62 42.41 49.68 42.41 49.68L30.60 49.68C30.74 46.66 30.82 43.56 30.89 40.46L43.34 40.46C42.48 42.12 41.54 43.56 40.61 44.86C42.19 45.65 45.07 47.23 46.30 48.17L46.80 47.38L46.80 51.05L58.61 51.05C57.10 52.78 55.22 54.36 53.64 55.58L53.64 62.14L43.56 62.14L43.56 68.18L53.64 68.18L53.64 82.01C53.64 82.80 53.42 83.09 52.42 83.09C51.48 83.16 48.31 83.16 44.93 83.02C45.65 84.74 46.58 87.34 46.80 89.14C51.55 89.14 54.86 89.06 57.10 88.06C59.33 87.05 59.90 85.25 59.90 82.08L59.90 68.18L69.12 68.18Z"/></svg>
