<svg xmlns="http://www.w3.org/2000/svg" xmlns:xlink="http://www.w3.org/1999/xlink" width="72.00000000000001" height="106.56000000000002"><path fill="red" stroke="red" d="M63.07 23.18C53.35 25.70 36.72 27.29 22.82 28.08C23.47 29.52 24.19 31.68 24.41 33.19C38.38 32.62 55.37 31.03 66.38 28.37ZM59.40 43.06C61.13 40.54 63.36 36.72 65.23 33.12L59.62 31.32C58.46 34.42 56.23 38.74 54.43 41.40ZM34.85 41.90C34.13 39.89 32.47 36.50 31.03 34.13L25.78 35.50C27.22 38.02 28.73 41.40 29.30 43.56ZM22.32 31.75C19.66 29.52 14.33 26.28 10.44 24.26L6.41 29.02C10.44 31.18 15.62 34.70 18.22 37.08ZM19.22 49.90C16.34 47.59 10.66 44.50 6.48 42.70L2.66 47.52C6.98 49.61 12.60 52.92 15.19 55.22ZM15.05 60.91C11.81 68.90 7.49 77.98 4.39 83.38L10.30 87.26C13.68 80.64 17.42 72.14 20.23 64.73ZM66.67 74.38L66.67 69.26L46.08 69.26C46.51 67.54 46.80 65.59 47.02 63.65L46.08 63.65L60.62 62.57C61.63 64.08 62.50 65.45 63.07 66.60L68.04 64.01C66.24 60.77 62.28 55.66 59.11 51.98L54.36 54.29C55.44 55.44 56.45 56.88 57.53 58.25L37.44 59.54C45.36 56.09 53.28 51.77 60.62 46.87L55.73 43.56C53.21 45.43 50.40 47.30 47.52 48.96L35.64 49.46C39.46 47.59 43.20 45.43 46.73 43.06L45.72 42.41L50.33 41.11C49.61 38.81 47.95 35.14 46.44 32.47L41.04 33.84C42.26 36.14 43.49 39.24 44.28 41.54L41.76 40.03C37.22 43.78 30.82 47.09 28.87 47.95C27.14 48.82 25.56 49.46 24.26 49.61C24.84 51.12 25.63 53.86 25.92 54.94C27.07 54.58 28.94 54.22 39.38 53.57C35.64 55.58 32.54 57.10 31.03 57.67C27.65 59.26 25.20 60.19 23.04 60.48C23.69 61.92 24.48 64.80 24.70 65.88C26.21 65.23 28.44 65.02 40.90 64.01C40.68 65.88 40.39 67.68 39.96 69.26L21.24 69.26L21.24 74.38L37.87 74.38C35.06 79.13 29.81 82.30 19.37 84.24C20.52 85.39 21.89 87.62 22.46 89.06C35.50 86.26 41.54 81.50 44.57 74.38ZM45.36 78.62C52.34 81.43 61.06 86.18 65.38 89.50L68.62 84.96C64.08 81.72 55.30 77.26 48.46 74.59Z"/></svg>
