<svg xmlns="http://www.w3.org/2000/svg" xmlns:xlink="http://www.w3.org/1999/xlink" width="72.00000000000001" height="106.56000000000002"><path fill="red" stroke="red" d="M23.18 31.03C20.09 28.94 13.90 25.70 9.65 23.62L5.98 28.37C10.30 30.67 16.34 34.20 19.30 36.36ZM19.87 50.62C16.85 48.53 10.94 45.29 6.91 43.13L3.17 47.81C7.34 50.18 13.18 53.71 15.98 55.87ZM18.07 60.12C14.33 68.54 9.14 78.12 5.54 83.81L11.45 87.77C15.41 80.78 19.80 71.93 23.18 64.08ZM55.66 50.54L55.66 54.00L33.41 54.00L33.41 50.54ZM33.12 61.70C33.26 60.55 33.34 59.33 33.34 58.25L55.66 58.25L55.66 61.70ZM57.46 74.59L57.46 82.01L37.30 82.01L37.30 74.59ZM61.92 66.53L61.92 45.72L26.93 45.72L26.93 54.94C26.93 63.50 25.99 75.67 18.36 84.38C19.80 85.18 22.46 87.48 23.47 88.78C27.36 84.17 29.81 78.48 31.32 72.72L31.32 89.28L37.30 89.28L37.30 86.98L57.46 86.98L57.46 89.06L63.65 89.06L63.65 69.70L32.04 69.70C32.26 68.62 32.40 67.61 32.62 66.53ZM37.22 37.44C39.96 35.42 42.55 33.12 44.78 30.74C47.16 32.98 50.04 35.35 53.06 37.44ZM43.92 22.54C38.66 30.02 28.94 36.22 19.66 39.89C20.74 41.33 22.46 44.50 23.11 45.94C27.36 43.99 31.75 41.40 35.86 38.45L35.86 42.41L53.64 42.41L53.64 37.87C57.96 40.82 62.57 43.63 66.96 45.58C67.46 43.92 68.62 41.04 69.62 39.53C62.28 36.79 53.57 31.68 48.31 26.71C48.82 26.06 49.25 25.49 49.68 24.91Z"/></svg>
