<svg xmlns="http://www.w3.org/2000/svg" xmlns:xlink="http://www.w3.org/1999/xlink" width="72.00000000000001" height="106.56000000000002"><path fill="red" stroke="red" d="M20.81 30.82C18.36 28.51 13.39 25.63 9.43 23.83L5.69 28.66C9.65 30.60 14.54 33.84 16.85 36.22ZM18.22 49.32C15.70 47.09 10.66 44.42 6.55 42.91L2.81 47.74C6.91 49.61 11.88 52.56 14.33 54.72ZM13.75 61.99C10.94 70.20 6.98 79.27 4.18 84.89L10.22 88.34C13.25 81.65 16.63 73.08 19.15 65.59ZM59.62 39.67L59.62 44.71L29.81 44.71L29.81 39.67ZM66.02 48.96L66.02 35.35L29.81 35.35L29.81 33.34C42.41 32.69 56.30 31.39 65.95 29.52L62.78 24.48C53.21 26.50 37.15 27.86 23.54 28.58L23.54 45.58C23.54 56.16 23.26 73.22 16.85 84.60C18.43 85.61 20.74 87.62 21.82 88.99C28.30 77.18 29.59 60.98 29.81 48.96ZM39.67 54.86L57.38 54.86L57.38 58.54L39.67 58.54ZM63.14 62.06L63.14 51.34L34.13 51.34L34.13 62.06ZM45.58 68.69L45.58 73.44L37.51 73.44L37.51 68.69ZM59.11 73.44L51.05 73.44L51.05 68.69L59.11 68.69ZM43.06 83.23C38.38 83.23 37.51 82.73 37.51 80.50L37.51 77.54L65.09 77.54L65.09 64.58L31.82 64.58L31.82 80.57C31.82 86.62 34.27 88.13 42.70 88.13L59.83 88.13C66.24 88.13 68.04 86.33 68.76 79.49C67.18 79.20 65.02 78.48 63.72 77.69C63.29 82.37 62.71 83.23 59.26 83.23Z"/></svg>
