<svg xmlns="http://www.w3.org/2000/svg" xmlns:xlink="http://www.w3.org/1999/xlink" width="72.00000000000001" height="106.56000000000002"><path fill="red" stroke="red" d="M8.64 88.34C11.52 81.79 14.76 73.51 17.14 66.31L12.38 62.86C9.72 70.63 6.05 79.56 3.46 84.89ZM15.84 50.98C13.68 48.74 9.22 45.72 5.90 43.70L2.59 48.02C5.98 50.11 10.37 53.42 12.46 55.66ZM4.61 28.08C7.85 30.74 11.88 34.56 13.68 37.22L17.78 33.05C15.77 30.53 11.66 26.93 8.35 24.55ZM19.37 31.32L31.03 31.32L31.03 41.90L20.59 41.90C20.38 48.96 19.87 58.25 19.15 63.94L30.24 63.94C29.52 76.18 28.66 80.93 27.58 82.22C27.00 82.87 26.35 83.02 25.27 83.02C24.26 83.02 21.74 83.02 18.86 82.73C19.80 84.17 20.38 86.33 20.45 87.98C23.47 88.13 26.42 88.13 28.08 87.91C30.02 87.77 31.32 87.19 32.47 85.75C34.49 83.74 35.28 77.40 36.14 60.77C36.22 59.90 36.29 58.39 36.29 58.39L25.20 58.46C25.42 55.15 25.63 51.26 25.85 47.59L36.43 47.59L36.43 25.63L19.37 25.63ZM64.80 62.86C63.29 64.66 60.84 66.82 58.54 68.76C57.17 66.38 56.09 63.79 55.15 61.20L68.83 61.20L68.83 55.73L47.45 55.73L47.45 50.76L65.66 50.76L65.66 45.86L47.45 45.86L47.45 41.26L65.59 41.26L65.59 36.36L47.45 36.36L47.45 31.82L67.82 31.82L67.82 26.50L41.69 26.50L41.69 55.73L37.37 55.73L37.37 61.20L40.46 61.20L40.46 78.91C40.46 81.50 39.17 82.51 38.09 83.02C38.88 84.60 39.89 87.77 40.25 89.28C41.54 88.27 43.56 87.19 56.23 82.37C55.87 81.22 55.51 78.84 55.37 77.26L45.86 80.57L45.86 61.20L50.11 61.20C53.42 71.86 59.11 82.01 66.24 87.19C67.10 85.61 68.90 83.38 70.13 82.22C66.74 80.14 63.65 76.82 61.06 72.94C63.65 71.14 66.53 68.98 69.19 66.82Z"/></svg>
