<svg xmlns="http://www.w3.org/2000/svg" xmlns:xlink="http://www.w3.org/1999/xlink" width="72.00000000000001" height="106.56000000000002"><path fill="red" stroke="red" d="M57.24 30.17C55.58 32.26 53.57 33.91 51.19 35.42C49.61 33.84 47.45 31.90 45.36 30.17ZM28.30 45.86L28.30 50.76L53.57 50.76L53.57 57.89C53.57 58.61 53.35 58.82 52.49 58.90C51.70 58.90 48.89 58.90 46.01 58.82C46.80 60.34 47.74 62.50 48.10 64.08C52.13 64.15 55.08 64.08 57.10 63.14C59.11 62.28 59.62 60.91 59.62 58.03L59.62 50.76L68.18 50.76L68.18 45.86L59.62 45.86L59.62 40.90L53.57 40.90L53.57 45.86L33.26 45.86C47.38 43.63 59.47 38.95 65.02 27.86L61.42 26.14L60.34 26.35L48.10 26.35C49.03 25.63 49.90 24.91 50.69 24.19L44.78 22.97C41.40 25.99 35.21 28.58 26.93 30.46C28.08 31.32 29.81 33.12 30.60 34.42C34.13 33.34 37.30 32.33 40.10 31.03C42.48 32.98 45.22 35.57 47.09 37.51C41.62 39.82 35.14 41.26 28.30 41.90C29.16 42.98 30.24 44.50 30.82 45.86ZM32.69 53.71C35.86 55.73 39.53 59.11 41.26 61.49L45.94 58.25C44.14 55.94 40.46 52.85 37.08 50.83ZM41.18 34.49C36.72 35.06 32.76 35.42 29.52 35.71L30.10 39.24L41.33 37.87ZM19.94 49.32L19.94 64.01L25.92 64.01L25.92 23.11L19.94 23.11L19.94 35.06L12.89 35.06L12.89 25.27L7.49 25.27L7.49 40.18L19.94 40.18L19.94 44.06L3.60 44.06L3.60 49.32L8.71 49.32C8.14 54.43 6.70 58.18 2.45 60.55C3.60 61.49 5.18 63.43 5.83 64.73C11.59 61.56 13.54 56.30 14.33 49.32ZM24.70 66.89L23.54 67.10L6.26 67.10L6.26 72.36L19.87 72.36C16.13 77.47 9.79 80.93 2.88 82.58C4.03 83.88 5.62 86.26 6.34 87.77C16.42 84.82 25.06 78.77 28.73 68.40ZM58.61 63.14C55.37 65.95 49.97 69.55 45.50 71.93C42.77 69.41 40.61 66.46 39.02 63.07L39.02 60.55L32.47 60.55L32.47 82.30C32.47 83.09 32.26 83.30 31.25 83.38C30.38 83.38 27.29 83.45 23.98 83.30C24.91 84.96 25.78 87.48 26.06 89.21C30.67 89.21 34.06 89.14 36.22 88.20C38.52 87.26 39.02 85.61 39.02 82.44L39.02 73.08C44.78 80.64 53.35 85.39 65.02 87.55C65.81 85.75 67.61 83.09 68.98 81.65C61.42 80.71 54.86 78.48 49.82 75.24C54.29 73.08 59.76 69.84 64.22 66.82Z"/></svg>
