<svg xmlns="http://www.w3.org/2000/svg" xmlns:xlink="http://www.w3.org/1999/xlink" width="72.00000000000001" height="106.56000000000002"><path fill="red" stroke="red" d="M22.18 31.03C19.51 28.51 14.18 25.49 9.94 23.69L6.12 28.44C10.44 30.53 15.70 33.84 18.22 36.43ZM18.79 49.75C16.13 47.38 10.80 44.50 6.48 42.84L2.74 47.74C7.06 49.68 12.31 52.85 14.90 55.15ZM15.70 61.34C12.31 69.62 7.70 78.98 4.39 84.60L10.51 88.34C13.97 81.50 18.00 72.72 21.02 65.09ZM35.28 75.02C36.14 78.62 36.72 83.23 36.65 86.33L41.54 85.46C41.54 82.44 40.82 77.83 39.82 74.30ZM42.62 74.81C44.42 77.76 46.30 81.79 46.87 84.46L51.12 82.80C50.26 80.14 48.53 76.25 46.51 73.37ZM58.68 78.41C57.53 76.39 55.22 73.51 52.99 71.50L49.68 73.58C51.77 75.67 54.07 78.77 55.08 80.78ZM63.00 61.49L63.00 40.97L67.90 40.97L67.90 29.23L48.38 29.23C47.59 27.14 46.30 24.55 45.00 22.54L38.52 24.34C39.31 25.85 40.18 27.58 40.82 29.23L22.54 29.23L22.54 41.04L28.73 41.04L28.73 34.49L61.49 34.49L61.49 39.10L46.73 39.10L46.73 43.99L56.95 43.99L56.95 47.95L46.94 47.95L46.94 52.49L56.95 52.49L56.95 56.52L33.19 56.52L33.19 52.49L43.06 52.49L43.06 47.95L33.19 47.95L33.19 44.35C36.72 43.20 40.61 41.83 43.99 40.18L40.18 36.36C36.94 38.09 31.18 40.61 27.22 41.90L27.29 41.98L27.29 61.49L32.47 61.49C29.16 66.17 24.26 70.42 19.30 73.30C20.74 74.30 22.97 76.54 24.05 77.76C25.49 76.75 26.86 75.67 28.30 74.52C26.93 78.12 24.84 82.30 22.46 84.96L27.29 87.41C29.95 84.31 31.97 79.42 33.41 75.60L29.16 73.80C30.38 72.72 31.54 71.71 32.69 70.49L60.62 70.49C60.05 78.98 59.33 82.37 58.46 83.45C57.82 84.02 57.24 84.17 56.09 84.10C55.01 84.10 52.06 84.10 49.03 83.81C49.82 85.18 50.47 87.34 50.54 88.85C53.93 89.06 57.17 89.06 58.90 88.92C60.91 88.70 62.21 88.27 63.50 86.83C65.23 85.03 66.02 80.06 66.74 67.68C66.89 66.89 66.96 65.23 66.96 65.23L37.15 65.23C38.02 64.01 38.95 62.71 39.74 61.49Z"/></svg>
