<svg xmlns="http://www.w3.org/2000/svg" xmlns:xlink="http://www.w3.org/1999/xlink" width="72.00000000000001" height="106.56000000000002"><path fill="red" stroke="red" d="M8.64 88.13C11.59 81.65 14.90 73.22 17.42 65.88L12.82 62.64C10.08 70.56 6.19 79.56 3.53 84.89ZM16.56 50.83C14.26 48.74 9.58 45.72 6.05 43.85L2.59 47.74C6.19 49.82 10.73 53.06 12.82 55.22ZM4.61 27.65C8.06 30.24 12.38 33.91 14.40 36.50L18.36 32.40C16.27 29.95 11.88 26.35 8.42 23.98ZM35.71 30.02L35.71 33.98L25.78 33.98L25.78 30.02ZM25.78 42.55L25.78 38.45L35.71 38.45L35.71 42.55ZM41.26 47.23L41.26 25.34L19.87 25.34L19.87 89.21L25.78 89.21L25.78 47.23ZM48.10 69.12C49.03 67.75 50.18 65.81 51.26 63.86L48.46 62.57C47.88 64.08 46.73 66.53 45.79 67.97ZM35.14 63.65C36.00 65.23 37.01 67.54 37.51 68.90L40.10 67.82C39.60 66.53 38.66 64.37 37.66 62.71ZM50.33 42.55L50.33 38.45L60.91 38.45L60.91 42.55ZM60.91 30.02L60.91 33.98L50.33 33.98L50.33 30.02ZM34.06 62.06L40.97 62.06L40.97 69.62L34.06 69.62ZM52.13 69.62L44.93 69.62L44.93 62.06L52.13 62.06ZM66.82 25.34L44.57 25.34L44.57 47.23L60.91 47.23L60.91 81.94C60.91 82.80 60.62 83.09 59.69 83.16C58.97 83.16 56.81 83.16 54.36 83.09L56.59 80.42C54.36 78.41 50.26 75.53 46.73 73.15L56.38 73.15L56.38 58.46L45.50 58.46L45.50 55.58L57.60 55.58L57.60 51.12L45.50 51.12L45.50 47.30L40.32 47.30L40.32 51.12L28.51 51.12L28.51 55.58L40.32 55.58L40.32 58.46L29.95 58.46L29.95 73.15L38.02 73.15C35.14 76.68 30.89 80.28 27.29 82.22C28.30 83.30 29.59 85.32 30.24 86.62C33.55 84.38 37.30 80.78 40.32 77.26L40.32 88.27L45.50 88.27L45.50 77.76C48.53 79.99 51.77 82.44 53.57 84.17L54.00 83.66C54.65 85.18 55.22 87.41 55.44 88.85C59.69 88.92 62.50 88.78 64.44 87.77C66.24 86.76 66.82 85.03 66.82 81.94Z"/></svg>
