<svg xmlns="http://www.w3.org/2000/svg" xmlns:xlink="http://www.w3.org/1999/xlink" width="72.00000000000001" height="106.56000000000002"><path fill="red" stroke="red" d="M10.51 55.58C10.15 50.76 8.71 42.19 7.27 35.50L2.52 36.36C3.82 43.06 5.04 51.84 5.40 56.81ZM22.46 52.06C24.19 48.24 26.28 41.90 28.22 36.79L22.75 34.92C21.89 39.31 20.23 45.72 18.72 49.82L18.72 48.24L18.72 23.83L12.74 23.83L12.74 48.24C12.74 60.84 11.66 74.16 2.66 84.38C3.96 85.32 6.12 87.55 7.13 88.99C12.10 83.59 14.98 77.40 16.63 70.78C18.65 74.09 20.88 77.83 22.10 80.21L26.57 75.60C25.27 73.80 20.30 66.46 17.93 63.58C18.50 59.26 18.65 54.86 18.72 50.47ZM47.23 36.86L55.66 36.86C53.93 39.38 51.98 41.69 49.97 43.99L47.23 43.99ZM69.05 49.97L69.05 43.99L57.89 43.99C61.78 39.10 65.23 33.77 68.11 28.08L62.28 25.99C60.70 29.16 58.97 32.11 57.10 34.92L57.10 31.10L47.23 31.10L47.23 23.11L40.68 23.11L40.68 31.10L30.24 31.10L30.24 36.86L40.68 36.86L40.68 43.99L27.65 43.99L27.65 49.97L43.78 49.97C37.51 55.51 30.31 59.98 22.54 63.36C23.76 64.66 25.85 67.39 26.71 68.69C30.38 66.82 33.98 64.80 37.37 62.50C36.36 66.38 35.28 70.27 34.27 73.15L58.10 73.15C57.31 79.06 56.45 81.86 55.22 82.87C54.43 83.45 53.64 83.52 52.06 83.52C50.26 83.52 45.29 83.45 40.54 83.02C41.76 84.74 42.55 87.12 42.70 88.85C47.38 89.14 51.91 89.14 54.29 88.99C57.02 88.85 58.82 88.42 60.41 86.98C62.50 84.96 63.65 80.35 64.73 70.20C64.87 69.34 65.02 67.61 65.02 67.61L42.26 67.61C42.84 65.45 43.42 63.00 44.06 60.62L67.18 60.62L67.18 55.22L47.02 55.22C48.89 53.50 50.76 51.84 52.49 49.97Z"/></svg>
