<svg xmlns="http://www.w3.org/2000/svg" xmlns:xlink="http://www.w3.org/1999/xlink" width="72.00000000000001" height="106.56000000000002"><path fill="red" stroke="red" d="M47.38 58.82L53.71 58.82L53.71 42.05C57.60 46.37 62.64 52.49 64.80 55.66L68.90 50.04C67.03 48.17 60.19 41.33 56.02 37.44L67.90 37.44L67.90 31.54L53.71 31.54L53.71 23.11L47.38 23.11L47.38 31.54L35.71 31.54L35.71 37.44L43.99 37.44C41.04 42.98 36.50 48.24 31.68 50.90C32.90 52.06 34.78 54.14 35.64 55.66C40.25 52.56 44.35 47.38 47.38 41.54ZM51.77 74.30C54.86 71.57 58.82 67.54 62.06 63.65L55.58 61.34C53.35 64.73 49.25 69.34 46.22 72.14ZM16.78 58.82L22.97 58.82L22.97 42.77C25.85 45.50 29.09 48.74 30.60 50.47L34.20 45.65C32.62 44.28 26.57 39.67 23.40 37.44L33.26 37.44L33.26 31.54L22.97 31.54L22.97 23.11L16.78 23.11L16.78 31.54L4.39 31.54L4.39 37.44L14.11 37.44C11.23 43.20 6.70 48.96 2.30 51.98C3.60 53.06 5.47 55.08 6.41 56.52C10.22 53.35 13.90 48.38 16.78 42.84ZM8.14 63.86C11.88 67.03 17.14 71.42 19.58 74.09L23.83 69.48C21.24 66.96 15.91 62.86 12.17 59.90ZM32.26 58.32C30.82 72.79 27.50 80.35 2.81 83.66C4.03 85.03 5.47 87.62 5.98 89.28C23.11 86.69 31.25 81.79 35.28 74.16C40.61 83.23 49.68 87.48 65.30 88.85C66.10 86.98 67.61 84.24 69.05 82.80C51.19 81.94 41.90 77.33 38.09 66.31C38.66 63.86 38.95 61.13 39.24 58.32Z"/></svg>
