<svg xmlns="http://www.w3.org/2000/svg" xmlns:xlink="http://www.w3.org/1999/xlink" width="72.00000000000001" height="106.56000000000002"><path fill="red" stroke="red" d="M56.23 31.18L33.34 31.18L33.34 28.44L56.23 28.44ZM56.23 37.44L33.34 37.44L33.34 34.56L56.23 34.56ZM62.57 24.84L27.22 24.84L27.22 41.04L62.57 41.04ZM23.04 29.02C20.23 27.29 15.19 24.84 11.23 23.26L7.99 27.58C11.95 29.23 16.99 31.97 19.80 33.77ZM16.85 47.66C12.96 53.14 8.14 59.18 4.82 62.78L9.07 67.10C12.82 62.42 16.99 56.81 20.30 51.70ZM25.13 76.10C23.18 73.58 19.30 69.70 16.34 66.96L11.88 69.98C14.83 72.86 18.58 76.97 20.38 79.49ZM18.79 40.75C15.98 39.02 11.02 36.58 6.98 35.35L3.74 39.60C7.78 41.04 12.74 43.63 15.48 45.50ZM58.97 55.08C58.39 58.75 57.82 60.48 57.24 61.13C56.74 61.56 56.23 61.63 55.37 61.63C54.50 61.63 52.70 61.63 50.54 61.42C51.19 62.71 51.70 64.58 51.77 66.10C54.43 66.17 56.88 66.17 58.18 66.10C59.69 65.95 60.98 65.52 61.92 64.51C63.43 63.14 64.30 59.98 65.09 52.85C65.23 52.13 65.30 50.62 65.30 50.62L35.06 50.62C35.78 49.75 36.43 48.96 37.01 48.02L68.18 48.02L68.18 43.56L21.24 43.56L21.24 48.02L30.60 48.02C27.65 51.48 23.76 54.58 19.66 56.74C20.88 57.53 22.82 59.62 23.69 60.55C26.14 59.11 28.58 57.17 30.89 55.08L36.50 55.08C34.06 58.10 30.89 60.77 27.58 62.78C28.80 63.65 30.82 65.38 31.68 66.31C35.71 63.65 39.89 59.62 42.62 55.08L47.88 55.08C45.79 58.82 42.84 62.14 39.53 64.58L40.54 65.30L34.85 65.30C32.62 75.60 27.14 81.29 3.60 83.81C4.68 85.10 5.98 87.55 6.34 89.14C22.25 87.12 30.82 83.45 35.71 77.76C41.76 84.74 51.41 87.77 65.38 88.78C66.17 86.98 67.68 84.46 68.98 83.02C54.07 82.58 43.63 79.92 38.81 73.15C39.89 70.92 40.61 68.47 41.18 65.81C42.19 66.53 43.20 67.32 43.78 67.90C47.45 64.73 51.19 60.12 53.71 55.08ZM52.13 78.91C55.30 76.68 59.18 73.44 62.42 70.20L56.74 67.46C54.43 70.20 50.40 74.02 47.30 76.46Z"/></svg>
