<svg xmlns="http://www.w3.org/2000/svg" xmlns:xlink="http://www.w3.org/1999/xlink" width="72.00000000000001" height="106.56000000000002"><path fill="red" stroke="red" d="M12.24 36.72L59.62 36.72L59.62 43.99L66.74 43.99L66.74 30.38L40.90 30.38C39.74 28.08 38.09 25.13 36.36 22.90L29.95 24.48C31.10 26.21 32.33 28.44 33.26 30.38L5.40 30.38L5.40 43.99L12.24 43.99ZM67.39 65.88L40.46 65.88L40.46 55.30L60.91 55.30L60.91 49.10L40.46 49.10L40.46 39.74L33.62 39.74L33.62 49.10L22.97 49.10C24.12 46.80 25.13 44.35 26.06 41.98L19.58 40.32C17.06 47.59 12.53 54.86 7.34 59.47C9.00 60.34 11.81 62.21 13.10 63.29C15.26 61.06 17.42 58.32 19.37 55.30L33.62 55.30L33.62 65.88L4.46 65.88L4.46 72.29L33.62 72.29L33.62 89.06L40.46 89.06L40.46 72.29L67.39 72.29Z"/></svg>
