<svg xmlns="http://www.w3.org/2000/svg" xmlns:xlink="http://www.w3.org/1999/xlink" width="72.00000000000001" height="106.56000000000002"><path fill="red" stroke="red" d="M14.26 49.97L19.22 49.97L19.22 63.86L25.27 63.86L25.27 23.33L19.22 23.33L19.22 34.63L12.38 34.63L12.38 24.91L6.77 24.91L6.77 39.89L19.22 39.89L19.22 44.71L3.60 44.71L3.60 49.97L8.28 49.97L8.28 50.18C8.28 52.99 7.56 58.32 3.17 61.70C4.68 62.42 7.13 63.79 8.35 64.73C13.18 60.62 14.26 53.93 14.26 50.40ZM57.67 30.67C55.87 32.62 53.57 34.34 50.90 35.86C49.32 34.06 47.38 32.26 45.36 30.67ZM68.90 74.16L68.90 68.62L56.09 68.62L57.67 66.96C56.38 65.59 53.93 63.72 51.70 62.14C53.71 62.06 55.30 61.92 56.59 61.42C58.61 60.62 59.18 59.33 59.18 56.45L59.18 50.47L67.82 50.47L67.82 45.94L59.18 45.94L59.18 40.90L52.85 40.90L52.85 45.94L32.18 45.94C46.51 43.70 59.69 39.02 65.74 28.37L62.21 26.50L61.13 26.71L49.39 26.71C50.62 25.85 51.62 24.98 52.70 24.12L47.09 22.82C43.27 25.92 36.65 28.80 28.01 30.82C29.16 31.68 30.74 33.41 31.46 34.63C34.63 33.70 37.58 32.69 40.32 31.61C42.62 33.41 45.00 35.78 46.73 37.73C41.04 40.03 34.34 41.47 27.58 42.19C28.44 43.13 29.52 44.71 30.02 45.94L27.79 45.94L27.79 50.47L35.64 50.47L32.76 52.70C35.50 54.50 38.74 57.31 40.25 59.40L44.57 55.87C43.27 54.22 40.75 52.06 38.23 50.47L52.85 50.47L52.85 56.23C52.85 57.02 52.56 57.17 51.77 57.24C50.98 57.31 48.17 57.31 45.29 57.17C46.08 58.68 46.87 60.62 47.09 62.21L49.68 62.21L47.38 64.44C49.03 65.59 51.12 67.18 52.63 68.62L38.88 68.62C39.02 67.82 39.02 67.10 39.02 66.38L39.02 61.70L32.40 61.70L32.40 66.24C32.40 66.96 32.33 67.75 32.18 68.62L3.31 68.62L3.31 74.16L29.09 74.16C25.34 77.98 17.78 81.72 2.74 84.02C4.10 85.54 5.76 87.98 6.55 89.50C26.35 86.26 34.27 80.14 37.37 74.16L40.18 74.16L37.94 77.54C47.09 80.93 59.76 86.11 66.02 89.21L69.19 83.88C63.29 81.22 52.63 77.18 44.14 74.16ZM41.47 34.99C36.94 35.28 33.12 35.57 29.81 35.71L30.38 39.46C33.91 39.10 37.58 38.81 41.54 38.38Z"/></svg>
