<svg xmlns="http://www.w3.org/2000/svg" xmlns:xlink="http://www.w3.org/1999/xlink" width="72.00000000000001" height="106.56000000000002"><path fill="red" stroke="red" d="M68.69 39.74L57.60 39.74L60.12 35.14L53.50 33.84C52.99 35.50 52.13 37.87 51.26 39.74L41.11 39.74L42.70 39.24C42.26 37.80 41.33 35.42 40.39 33.62L67.03 33.62L67.03 28.51L50.40 28.51C49.82 26.71 48.96 24.48 48.17 22.75L42.19 24.26C42.70 25.56 43.27 27.07 43.70 28.51L29.02 28.51L29.02 33.62L39.74 33.62L34.78 34.92C35.35 36.43 36.07 38.23 36.50 39.74L26.35 39.74L26.35 44.86L68.69 44.86ZM36.86 60.70L58.61 60.70L58.61 64.94L36.86 64.94ZM36.86 52.34L58.61 52.34L58.61 56.59L36.86 56.59ZM69.12 73.87L50.62 73.87L50.62 69.26L65.16 69.26L65.16 48.02L30.53 48.02L30.53 69.26L44.06 69.26L44.06 73.87L26.28 73.87L25.56 68.54C22.97 69.41 20.30 70.20 17.78 71.06L17.78 54.36L24.91 54.36L24.91 48.17L17.78 48.17L17.78 33.84L25.34 33.84L25.34 27.65L3.46 27.65L3.46 33.84L11.66 33.84L11.66 48.17L4.03 48.17L4.03 54.36L11.66 54.36L11.66 72.94C8.50 73.87 5.54 74.74 3.10 75.38L4.46 81.79C10.73 79.85 18.65 77.26 26.14 74.74L26.14 79.13L44.06 79.13L44.06 89.21L50.62 89.21L50.62 79.13L69.12 79.13Z"/></svg>
