<svg xmlns="http://www.w3.org/2000/svg" xmlns:xlink="http://www.w3.org/1999/xlink" width="72.00000000000001" height="106.56000000000002"><path fill="red" stroke="red" d="M37.66 28.58L24.77 28.58C24.12 26.78 23.04 24.84 22.03 23.26L15.98 24.84C16.56 25.99 17.14 27.29 17.71 28.58L3.67 28.58L3.67 33.41L37.66 33.41ZM16.92 61.85L24.34 61.85L24.34 65.30L16.92 65.30ZM16.92 54.72L24.34 54.72L24.34 57.74L16.92 57.74ZM9.79 39.74L14.83 39.74L14.83 43.92L9.79 43.92ZM26.71 39.74L31.90 39.74L31.90 43.92L26.71 43.92ZM16.42 81.79L16.42 74.23C18.29 72.72 20.02 71.14 21.31 69.48L37.73 69.48L37.73 65.30L29.59 65.30L29.59 61.85L36.14 61.85L36.14 57.74L29.59 57.74L29.59 54.72L37.01 54.72L37.01 50.54L29.59 50.54L29.59 47.59L36.36 47.59L36.36 36.07L22.32 36.07L22.32 47.59L24.34 47.59L24.34 50.54L16.92 50.54L16.92 47.59L19.30 47.59L19.30 36.07L5.47 36.07L5.47 47.59L11.66 47.59L11.66 50.54L4.18 50.54L4.18 54.72L11.66 54.72L11.66 57.74L5.54 57.74L5.54 61.85L11.66 61.85L11.66 65.30L3.24 65.30L3.24 69.48L14.69 69.48C11.38 72.36 6.70 74.81 2.16 76.54C3.24 77.54 5.04 79.70 5.69 80.78C7.42 79.99 9.14 79.06 10.94 77.98L10.94 80.28C10.94 83.16 9.65 84.17 8.71 84.67C9.36 85.46 10.37 87.34 10.66 88.42C11.81 87.77 13.68 87.19 24.91 84.53C24.84 83.38 24.84 81.29 25.06 79.99ZM44.78 33.55C52.78 32.40 61.56 30.74 68.04 28.51L63.72 23.26C57.82 25.56 48.17 27.58 39.67 28.87L39.67 44.28C39.67 54.86 39.38 70.27 36.07 82.30C34.49 80.71 32.40 78.77 30.02 77.04C31.75 75.82 33.62 74.30 35.28 72.86L31.32 69.98C30.17 71.21 28.37 73.01 26.71 74.45C25.42 73.51 24.12 72.65 22.90 71.86L19.30 74.66C24.41 78.05 30.31 83.09 33.12 86.54L35.42 84.60L35.21 85.18C36.22 85.75 38.45 87.77 39.31 88.78C43.99 75.67 44.78 56.30 44.78 44.28ZM53.78 68.76C54.65 71.35 55.44 74.30 56.09 77.33L50.40 78.98C53.64 68.47 53.86 56.66 53.86 47.95L53.86 36.14L49.32 36.14L49.32 47.81C49.32 58.18 49.25 72.36 43.99 82.15C44.78 83.09 46.58 85.54 47.09 86.76C48.02 85.90 49.54 85.03 57.17 82.37C57.60 84.53 57.89 86.54 58.10 88.27L61.92 87.12C61.27 81.86 59.40 73.94 57.38 67.75ZM58.18 33.48C59.11 54.79 60.77 76.54 65.23 88.92C66.38 87.48 68.40 85.75 69.77 84.89C65.45 73.94 63.50 52.92 62.64 33.05Z"/></svg>
