<svg xmlns="http://www.w3.org/2000/svg" xmlns:xlink="http://www.w3.org/1999/xlink" width="72.00000000000001" height="106.56000000000002"><path fill="red" stroke="red" d="M17.86 42.70L32.54 42.70L32.54 49.39L17.86 49.39ZM17.86 30.96L32.54 30.96L32.54 37.51L17.86 37.51ZM54.14 37.51L39.31 37.51L39.31 30.96L54.14 30.96ZM54.14 49.39L39.31 49.39L39.31 42.70L54.14 42.70ZM61.06 54.86L61.06 25.49L11.23 25.49L11.23 54.86L24.26 54.86C18.94 59.98 10.94 64.30 3.24 66.53C4.75 67.90 6.70 70.34 7.70 72.07C12.67 70.27 17.57 67.75 22.03 64.66L22.03 68.40C22.03 73.44 20.66 79.99 8.42 84.24C9.94 85.54 12.17 87.98 12.96 89.71C27.14 84.24 28.87 75.46 28.87 68.62L28.87 64.01L22.90 64.01C26.57 61.34 29.88 58.18 32.47 54.86L40.18 54.86C42.70 58.25 46.01 61.42 49.61 64.08L44.28 64.08L44.28 89.06L51.19 89.06L51.19 65.23C55.37 67.97 59.98 70.27 64.73 71.78C65.74 70.06 67.75 67.46 69.26 66.10C61.13 64.01 53.21 59.90 47.95 54.86Z"/></svg>
