<svg xmlns="http://www.w3.org/2000/svg" xmlns:xlink="http://www.w3.org/1999/xlink" width="72.00000000000001" height="106.56000000000002"><path fill="red" stroke="red" d="M60.48 26.21C59.26 31.32 56.88 38.59 54.86 43.20L59.98 44.78C62.14 40.46 64.80 33.62 67.03 27.86ZM42.77 42.98C42.19 38.52 40.25 31.75 37.87 26.64L32.54 28.22C34.70 33.34 36.65 40.32 37.15 44.71ZM15.12 34.70L15.12 49.18L10.73 49.18L10.73 34.70ZM24.19 49.18L19.73 49.18L19.73 34.70L24.19 34.70ZM19.73 69.41L19.73 54.29L24.19 54.29L24.19 69.41ZM10.73 54.29L15.12 54.29L15.12 69.41L10.73 69.41ZM29.45 28.87L5.47 28.87L5.47 81.29L10.73 81.29L10.73 75.24L29.45 75.24ZM68.26 61.85L52.13 61.85L52.13 52.13L66.17 52.13L66.17 46.08L52.13 46.08L52.13 23.18L45.79 23.18L45.79 46.08L32.62 46.08L32.62 52.13L45.79 52.13L45.79 61.85L30.82 61.85L30.82 67.97L45.79 67.97L45.79 89.14L52.13 89.14L52.13 67.97L68.26 67.97Z"/></svg>
