<svg xmlns="http://www.w3.org/2000/svg" xmlns:xlink="http://www.w3.org/1999/xlink" width="72.00000000000001" height="106.56000000000002"><path fill="red" stroke="red" d="M68.54 37.30L68.54 30.96L46.44 30.96C45.29 28.58 43.49 25.42 41.76 22.97L35.14 24.77C36.29 26.57 37.58 28.94 38.59 30.96L14.04 30.96L14.04 47.81C12.89 44.35 10.37 39.67 7.85 36.14L2.81 38.66C5.40 42.62 8.14 48.17 9.00 51.62L14.04 48.89L14.04 52.20C14.04 53.42 14.04 54.79 13.97 56.16C9.58 58.82 5.33 61.34 2.23 62.93L4.68 69.12C7.49 67.25 10.44 65.23 13.46 63.22C12.53 70.78 10.15 78.62 4.25 84.67C5.54 85.46 8.35 88.13 9.29 89.42C19.22 79.56 20.81 63.58 20.81 52.20L20.81 37.30ZM32.11 67.25C32.11 73.01 31.03 79.70 21.53 84.38C22.90 85.46 25.13 87.91 25.99 89.35C37.01 83.66 38.52 74.95 38.52 67.39L38.52 59.40L32.11 59.40ZM50.90 89.14L57.38 89.14L57.38 59.40L50.90 59.40ZM42.77 37.66C38.81 45.36 30.46 52.34 20.88 56.59C22.32 57.67 24.41 60.19 25.42 61.63C32.90 58.03 39.38 53.06 44.28 46.94C49.75 53.14 57.46 58.46 65.09 61.34C66.10 59.76 67.97 57.17 69.48 55.94C61.13 53.35 52.56 48.31 47.52 42.41C48.02 41.47 48.53 40.61 48.96 39.67Z"/></svg>
