<svg xmlns="http://www.w3.org/2000/svg" xmlns:xlink="http://www.w3.org/1999/xlink" width="72.00000000000001" height="106.56000000000002"><path fill="red" stroke="red" d="M45.36 65.59L45.36 59.90L37.08 59.90L37.08 49.75L44.57 49.75L44.57 44.21L29.88 44.21C30.38 42.19 30.82 40.10 31.18 38.02L25.63 37.08C24.62 43.92 22.75 50.69 19.73 55.22C21.10 55.87 23.47 57.31 24.48 58.18C25.92 55.80 27.22 52.92 28.30 49.75L31.18 49.75L31.18 59.83L31.18 59.90L21.17 59.90L21.17 65.59L30.82 65.59C29.95 72.29 27.14 79.42 18.36 84.74C19.51 85.61 21.60 88.13 22.32 89.35C28.87 85.32 32.62 80.14 34.70 74.66C37.58 77.90 40.54 81.43 42.19 83.81L46.15 79.20C43.99 76.46 39.82 72.00 36.36 68.33C36.50 67.46 36.65 66.53 36.79 65.59ZM61.27 48.60L61.27 77.26L52.70 77.26L52.70 48.60ZM47.16 87.19L52.70 87.19L52.70 82.94L61.27 82.94L61.27 86.33L67.10 86.33L67.10 42.91L47.16 42.91ZM3.17 37.44C5.11 41.76 7.20 47.38 7.92 50.83L13.10 48.38C12.24 45.07 10.08 39.67 7.92 35.42ZM44.78 29.88C43.99 27.65 42.84 24.91 41.83 22.75L35.21 24.19C35.93 25.85 36.72 28.01 37.37 29.88L13.10 29.88L13.10 52.49C13.10 54.14 13.10 55.80 13.03 57.60C8.86 59.69 5.04 61.70 2.23 63.00L4.25 68.98C6.98 67.46 9.72 65.81 12.53 64.15C11.66 71.42 9.50 78.84 4.25 84.67C5.54 85.39 7.99 87.77 8.93 88.99C17.86 79.20 19.30 63.65 19.30 52.56L19.30 35.64L68.69 35.64L68.69 29.88Z"/></svg>
