<svg xmlns="http://www.w3.org/2000/svg" xmlns:xlink="http://www.w3.org/1999/xlink" width="72.00000000000001" height="106.56000000000002"><path fill="red" stroke="red" d="M12.60 49.54C12.10 45.86 10.22 40.10 8.06 35.71L3.17 37.66C5.11 42.19 6.91 48.10 7.42 51.84ZM21.31 64.87L30.60 64.87C27.43 69.12 22.97 72.86 18.29 75.46C19.58 76.46 21.60 78.55 22.54 79.56C25.20 77.83 27.79 75.67 30.31 73.22L35.93 73.22C32.76 77.90 28.22 81.94 23.33 84.74C24.55 85.61 26.57 87.41 27.50 88.42C33.05 84.89 38.59 79.42 42.26 73.22L47.81 73.22C45.43 78.41 41.90 82.94 37.80 86.26C39.10 86.98 41.33 88.56 42.41 89.50C46.87 85.61 50.98 79.70 53.71 73.22L59.11 73.22C58.32 79.78 57.46 82.58 56.59 83.59C56.02 84.10 55.44 84.24 54.43 84.24C53.57 84.24 51.34 84.17 48.96 83.88C49.75 85.39 50.33 87.55 50.40 89.14C53.21 89.28 55.87 89.28 57.38 89.14C59.04 88.92 60.34 88.49 61.42 87.26C63.22 85.46 64.30 81.07 65.38 70.63C65.52 69.84 65.66 68.18 65.66 68.18L34.85 68.18C35.71 67.10 36.43 65.95 37.22 64.87L68.40 64.87L68.40 59.62L21.38 59.62ZM55.51 45.50L33.62 45.50L33.62 41.76L55.51 41.76ZM55.51 52.92L33.62 52.92L33.62 49.10L55.51 49.10ZM27.79 38.02L27.79 56.66L61.56 56.66L61.56 38.02ZM45.43 29.38C44.71 27.29 43.70 24.70 42.77 22.68L36.00 24.05C36.65 25.63 37.37 27.58 38.02 29.38L13.18 29.38L13.18 52.27C13.18 54.07 13.18 55.87 13.10 57.82C8.93 59.90 5.11 61.92 2.23 63.14L4.32 69.12C7.06 67.68 9.79 66.02 12.53 64.37C11.59 71.64 9.43 78.98 4.32 84.74C5.54 85.61 7.99 87.91 9.00 89.21C17.86 79.34 19.37 63.50 19.37 52.27L19.37 35.06L68.90 35.06L68.90 29.38Z"/></svg>
