<svg xmlns="http://www.w3.org/2000/svg" xmlns:xlink="http://www.w3.org/1999/xlink" width="72.00000000000001" height="106.56000000000002"><path fill="red" stroke="red" d="M57.82 30.60L57.82 36.00L42.98 36.00L42.98 30.60ZM42.62 46.22C42.84 44.35 42.98 42.48 42.98 40.75L57.82 40.75L57.82 46.22ZM57.82 51.05L57.82 55.94C57.82 56.88 57.46 57.17 56.45 57.17C55.51 57.17 52.27 57.24 48.82 57.10C49.75 58.61 50.90 60.98 51.26 62.71C55.94 62.71 59.33 62.57 61.56 61.63C63.72 60.70 64.44 59.11 64.44 55.94L64.44 25.27L36.86 25.27L36.86 39.89C36.86 46.22 36.07 53.93 29.02 59.26C30.38 60.12 32.76 62.35 33.70 63.65C38.09 60.26 40.46 55.66 41.69 51.05ZM24.48 31.68L24.48 38.23L13.25 38.23L13.25 31.68ZM13.25 49.90L13.25 43.34L24.48 43.34L24.48 49.90ZM13.25 55.15L30.53 55.15L30.53 26.42L7.13 26.42L7.13 58.90L13.25 58.90ZM17.71 69.84L25.78 69.84L25.78 81.36L17.71 81.36ZM40.03 69.84L40.03 81.36L31.90 81.36L31.90 69.84ZM54.29 69.84L54.29 81.36L46.15 81.36L46.15 69.84ZM60.84 81.36L60.84 64.58L11.45 64.58L11.45 81.36L3.10 81.36L3.10 87.19L68.76 87.19L68.76 81.36Z"/></svg>
