<svg xmlns="http://www.w3.org/2000/svg" xmlns:xlink="http://www.w3.org/1999/xlink" width="72.00000000000001" height="106.56000000000002"><path fill="red" stroke="red" d="M68.98 53.42C67.68 48.10 64.51 40.18 61.13 34.13L55.37 36.00C58.54 42.12 61.70 50.26 62.86 55.66ZM51.77 23.18L45.36 23.18L45.36 67.25L51.77 67.25ZM35.14 35.28C34.13 42.91 32.40 51.05 29.95 56.38C31.46 56.95 34.27 58.25 35.64 59.11C38.02 53.42 40.18 44.64 41.33 36.43ZM22.61 54.58L22.61 74.45L14.90 74.45L14.90 54.58ZM28.58 80.35L28.58 48.67L14.40 48.67C16.34 43.70 17.86 38.23 19.08 32.76L30.24 32.76L30.24 26.71L4.10 26.71L4.10 32.76L12.89 32.76C10.66 43.13 7.20 52.56 1.87 58.97C2.88 60.70 4.18 64.80 4.46 66.53C6.12 64.58 7.63 62.42 9.07 60.12L9.07 85.90L14.90 85.90L14.90 80.35ZM59.90 58.03C54.94 72.00 44.35 79.49 27.58 82.94C29.02 84.46 30.53 86.98 31.25 88.92C49.46 84.31 60.62 75.74 66.17 59.83Z"/></svg>
