<svg xmlns="http://www.w3.org/2000/svg" xmlns:xlink="http://www.w3.org/1999/xlink" width="72.00000000000001" height="106.56000000000002"><path fill="red" stroke="red" d="M46.30 37.15C51.05 39.96 57.24 44.14 60.26 46.94L63.79 42.91C62.50 41.83 60.84 40.54 58.82 39.17C62.35 36.00 66.02 31.82 68.62 27.86L64.94 25.06L63.86 25.42L44.71 25.42L44.71 30.67L59.83 30.67C58.25 32.76 56.52 34.92 54.72 36.58C52.92 35.57 51.19 34.56 49.61 33.70ZM39.38 45.36C40.97 45.36 42.70 45.29 43.70 44.93C43.49 43.70 43.27 41.62 43.20 40.18C42.19 40.46 40.39 40.54 39.31 40.54L33.05 40.54C31.82 40.54 31.54 39.89 31.54 37.94L31.54 34.34L42.41 34.34L42.41 29.38L31.54 29.38L31.54 23.26L26.28 23.26L26.28 37.87C26.28 43.34 27.50 45.36 32.83 45.36ZM18.29 73.87L12.82 73.87L12.82 54.29L18.29 54.29ZM43.13 78.91C41.83 76.82 39.02 73.58 36.72 71.28L36.58 71.42L36.72 70.13L43.92 70.13L43.92 64.73L37.08 64.73L37.08 64.30L37.08 57.10L43.42 57.10L43.42 51.84L32.26 51.84C32.69 50.26 33.12 48.67 33.41 47.09L28.44 46.22C27.50 51.48 25.85 56.88 23.40 60.70L23.40 48.46L13.46 48.46C14.62 43.42 15.55 38.16 16.27 32.69L24.91 32.69L24.91 26.71L3.31 26.71L3.31 32.69L10.22 32.69C8.86 44.50 6.48 55.66 1.94 63.07C3.02 64.66 4.68 67.90 5.26 69.34C6.05 68.11 6.84 66.67 7.63 65.23L7.63 85.32L12.82 85.32L12.82 79.63L23.40 79.63L23.40 60.98C24.62 61.49 26.78 62.57 27.65 63.22C28.73 61.56 29.66 59.40 30.53 57.10L31.90 57.10L31.90 64.22L31.90 64.73L24.77 64.73L24.77 70.13L31.54 70.13C30.82 75.38 28.66 81.43 22.61 85.75C23.83 86.69 25.42 88.20 26.21 89.42C31.10 85.68 33.91 81.07 35.35 76.46C37.01 78.34 38.59 80.50 39.46 82.08ZM59.26 69.05L68.18 69.05L68.18 63.79L59.26 63.79L59.26 52.70L63.36 52.70C63.00 54.65 62.64 56.52 62.28 58.03L66.60 59.47C67.61 56.52 68.47 51.98 69.34 48.02L65.74 47.02L64.87 47.23L44.21 47.23L44.21 52.70L54.00 52.70L54.00 78.91C52.42 77.04 51.12 74.45 50.11 70.63C50.54 66.96 50.69 63.07 50.83 58.97L46.08 58.97C45.79 70.20 44.86 79.99 40.18 85.61C41.33 86.47 42.91 88.06 43.63 89.28C45.94 86.62 47.52 83.23 48.53 79.20C52.13 86.54 57.10 88.27 63.14 88.27L68.11 88.27C68.33 86.83 69.05 84.17 69.84 82.80C68.33 82.87 64.58 82.87 63.58 82.87C62.06 82.87 60.70 82.73 59.26 82.30Z"/></svg>
