<svg xmlns="http://www.w3.org/2000/svg" xmlns:xlink="http://www.w3.org/1999/xlink" width="72.00000000000001" height="106.56000000000002"><path fill="red" stroke="red" d="M48.10 52.78L54.36 52.78L54.36 40.10C58.25 43.85 62.21 48.17 64.22 51.26L68.54 47.30C66.24 43.92 61.56 39.17 57.17 35.42L66.60 35.42L66.60 29.95L54.36 29.95L54.36 23.11L48.10 23.11L48.10 29.95L35.71 29.95L35.71 35.42L45.79 35.42C42.41 40.25 37.44 44.93 32.69 47.38C34.06 48.46 35.78 50.54 36.79 51.98C40.75 49.39 44.86 45.29 48.10 40.82ZM12.96 60.55L60.12 60.55L60.12 55.08L12.96 55.08ZM16.92 52.78L23.11 52.78L23.11 41.40C25.85 43.56 28.94 46.08 30.53 47.59L34.06 43.06C32.26 41.83 25.85 37.44 23.11 35.78L23.11 35.42L32.69 35.42L32.69 29.95L23.11 29.95L23.11 23.11L16.92 23.11L16.92 29.95L5.40 29.95L5.40 35.42L15.12 35.42C11.88 40.46 7.20 45.29 2.74 47.95C4.10 49.03 5.90 51.05 6.84 52.56C10.37 49.97 13.97 46.08 16.92 41.76ZM19.80 73.08C16.63 77.26 11.23 81.36 5.83 83.95C7.42 84.96 9.94 86.98 11.16 88.13C16.42 85.03 22.25 80.14 26.06 75.17ZM45.29 76.18C50.47 79.49 56.88 84.31 59.90 87.55L65.45 83.74C62.14 80.57 55.58 75.89 50.47 72.79ZM4.90 70.99L32.40 70.99L32.40 89.14L39.38 89.14L39.38 70.99L67.32 70.99L67.32 65.30L4.90 65.30Z"/></svg>
