<svg xmlns="http://www.w3.org/2000/svg" xmlns:xlink="http://www.w3.org/1999/xlink" width="72.00000000000001" height="106.56000000000002"><path fill="red" stroke="red" d="M18.86 49.82L18.86 42.98L32.54 42.98L32.54 49.82ZM53.06 42.98L53.06 49.82L39.02 49.82L39.02 42.98ZM64.66 60.41L39.02 60.41L39.02 55.08L59.69 55.08L59.69 37.73L39.02 37.73L39.02 32.04C47.88 31.46 56.45 30.60 63.29 29.38L59.26 23.98C46.87 25.99 25.78 27.36 7.92 27.79C8.57 29.16 9.29 31.68 9.43 33.26C16.78 33.19 24.70 32.90 32.54 32.47L32.54 37.73L12.60 37.73L12.60 55.08L32.54 55.08L32.54 60.41L13.97 60.41L13.97 57.96L7.70 57.96L7.70 60.41L5.04 60.41L5.04 66.02L7.70 66.02L7.70 89.14L13.97 89.14L13.97 66.02L32.54 66.02L32.54 73.58C26.78 74.09 21.46 74.59 17.28 74.88L18.36 80.78C26.64 79.92 38.09 78.55 49.10 77.33C49.97 78.77 50.69 80.21 51.19 81.43L56.09 78.91C54.50 75.60 51.34 70.63 48.38 66.89L43.70 68.90C44.50 69.98 45.29 71.14 46.08 72.29L39.02 72.94L39.02 66.02L58.10 66.02L58.10 82.51C58.10 83.38 57.82 83.66 56.81 83.66C55.87 83.74 52.63 83.74 49.18 83.66C49.97 85.18 50.90 87.62 51.19 89.28C56.16 89.28 59.62 89.28 61.78 88.27C64.08 87.41 64.66 85.68 64.66 82.58Z"/></svg>
