<svg xmlns="http://www.w3.org/2000/svg" xmlns:xlink="http://www.w3.org/1999/xlink" width="72.00000000000001" height="106.56000000000002"><path fill="red" stroke="red" d="M40.68 33.98C39.89 30.96 38.23 26.21 36.86 22.61L30.24 24.26C31.54 27.94 33.12 32.83 33.70 36.00ZM65.16 36.29L7.06 36.29L7.06 43.06L65.16 43.06ZM30.10 75.24C28.87 67.25 26.06 55.44 23.26 46.08L16.49 47.74C19.08 56.95 21.96 69.12 22.97 77.04ZM46.01 79.56C49.54 70.78 53.57 58.18 56.38 47.66L48.82 46.22C46.66 56.52 42.55 70.63 38.81 79.56L3.96 79.56L3.96 86.33L68.11 86.33L68.11 79.56Z"/></svg>
