<svg xmlns="http://www.w3.org/2000/svg" xmlns:xlink="http://www.w3.org/1999/xlink" width="72.00000000000001" height="106.56000000000002"><path fill="red" stroke="red" d="M66.96 35.71L31.68 35.71L31.68 41.98L66.96 41.98ZM46.66 75.38C45.79 68.18 43.34 55.37 40.97 45.58L35.28 47.02C37.51 56.88 39.67 69.84 40.32 77.33ZM53.64 33.70C52.99 30.74 51.41 26.35 50.11 22.90L43.92 24.48C45.22 27.94 46.66 32.62 47.16 35.57ZM26.06 27.86C25.13 32.40 23.11 39.02 21.53 43.06L25.70 44.57C27.50 40.82 29.74 34.78 31.75 29.74ZM12.24 42.91C11.59 38.88 10.08 32.69 8.50 27.86L3.82 29.02C5.18 33.84 6.70 40.18 7.27 44.28ZM9.58 56.74C8.28 62.78 5.26 70.13 2.23 74.02C3.31 75.89 4.68 78.84 5.18 80.78C9.22 75.89 12.31 66.02 13.82 58.25ZM30.53 53.28L30.53 47.02L20.30 47.02L20.30 23.18L14.18 23.18L14.18 47.02L3.38 47.02L3.38 53.28L14.18 53.28L14.18 89.14L20.30 89.14L20.30 53.28ZM20.38 59.40C22.03 62.21 25.56 70.06 26.86 73.58L31.25 68.69C30.17 66.74 25.34 58.68 23.90 56.88ZM56.23 79.85C58.75 70.56 61.49 57.24 63.36 46.30L56.59 45.22C55.37 55.73 52.78 70.34 50.26 79.85L28.94 79.85L28.94 86.40L68.83 86.40L68.83 79.85Z"/></svg>
