<svg xmlns="http://www.w3.org/2000/svg" xmlns:xlink="http://www.w3.org/1999/xlink" width="72.00000000000001" height="106.56000000000002"><path fill="red" stroke="red" d="M22.10 27.65C21.31 32.47 19.73 39.46 18.29 43.70L22.18 44.86C23.83 40.90 25.70 34.20 27.29 28.87ZM11.09 43.92C10.80 39.60 9.36 33.12 7.70 28.08L3.46 29.09C5.04 34.20 6.41 40.75 6.62 45.00ZM7.20 56.45C6.70 62.35 4.68 69.84 2.74 73.87C3.67 75.82 5.04 79.13 5.62 81.29C9.00 76.03 10.94 65.74 11.74 57.82ZM17.71 58.54L17.71 52.92L25.27 52.92L25.27 47.02L17.71 47.02L17.71 23.40L12.10 23.40L12.10 47.02L4.03 47.02L4.03 52.92L12.10 52.92L12.10 89.06L17.71 89.06L17.71 60.62C19.08 64.08 20.95 70.06 21.82 73.01L26.21 68.54C25.34 66.53 21.53 58.39 20.52 56.59ZM40.18 60.77L40.18 74.66L32.18 74.66L32.18 60.77ZM45.65 80.35L45.65 55.08L39.24 55.08L39.24 42.84L47.16 42.84L47.16 37.01L39.24 37.01L39.24 23.26L33.41 23.26L33.41 37.01L25.06 37.01L25.06 42.84L33.41 42.84L33.41 55.08L26.71 55.08L26.71 85.25L32.18 85.25L32.18 80.35ZM54.50 45.22C56.45 47.66 58.46 50.47 59.54 52.42L62.06 50.62L62.06 57.74C59.18 59.90 56.45 61.99 54.36 63.36C54.50 61.13 54.50 58.97 54.50 56.88ZM62.06 31.03L62.06 47.81C60.62 45.79 58.75 43.49 57.02 41.54L54.50 43.20L54.50 31.03ZM67.39 25.49L49.10 25.49L49.10 56.95C49.10 66.46 48.67 78.19 43.06 86.26C44.35 86.90 46.73 88.63 47.59 89.64C52.34 82.94 53.86 73.08 54.29 64.30L56.45 68.98C58.32 67.25 60.19 65.52 62.06 63.65L62.06 81.94C62.06 82.87 61.78 83.09 60.91 83.09C60.19 83.16 57.60 83.16 54.86 83.09C55.66 84.53 56.38 87.19 56.45 88.63C60.70 88.63 63.36 88.49 65.16 87.55C66.82 86.62 67.39 84.89 67.39 81.94Z"/></svg>
