<svg xmlns="http://www.w3.org/2000/svg" xmlns:xlink="http://www.w3.org/1999/xlink" width="72.00000000000001" height="106.56000000000002"><path fill="red" stroke="red" d="M19.51 68.98C15.91 73.73 10.08 78.84 4.54 82.01C6.26 83.02 9.00 85.18 10.30 86.47C15.70 82.80 22.03 76.90 26.28 71.35ZM57.38 64.15C58.90 66.02 60.19 67.82 61.13 69.19L66.82 65.66C63.79 61.34 57.74 54.72 52.49 49.82L47.02 52.56C48.82 54.43 50.90 56.59 52.78 58.82L26.93 60.55C36.14 56.16 45.36 50.83 54.14 44.50L49.03 40.10C46.51 42.05 43.85 43.99 41.18 45.79L25.85 46.51C30.60 43.92 35.28 40.82 39.67 37.44L35.42 34.78C43.06 32.90 50.18 30.67 56.02 28.22L51.12 22.97C40.61 27.65 22.32 31.82 6.12 34.49C6.77 35.93 7.78 38.45 7.99 40.18C15.62 38.95 23.83 37.44 31.54 35.71C26.06 40.18 19.58 43.92 17.28 45.00C14.90 46.30 13.18 47.09 11.38 47.38C12.17 49.03 13.10 52.27 13.39 53.64C15.05 52.99 17.42 52.63 31.54 51.70C25.49 55.22 20.23 57.82 17.64 58.97C13.39 61.06 10.37 62.14 7.85 62.50C8.57 64.30 9.58 67.46 9.86 68.76C12.10 67.90 15.05 67.46 33.12 66.02L33.12 81.50C33.12 82.30 32.83 82.58 31.68 82.66C30.46 82.73 26.35 82.73 22.32 82.51C23.40 84.31 24.48 87.19 24.84 89.06C30.10 89.06 33.91 88.99 36.50 87.98C39.17 86.98 39.96 85.10 39.96 81.65L39.96 65.45ZM45.22 71.64C50.83 75.89 57.82 81.94 61.06 85.82L66.89 81.79C63.29 77.90 56.16 72.14 50.62 68.18Z"/></svg>
