<svg xmlns="http://www.w3.org/2000/svg" xmlns:xlink="http://www.w3.org/1999/xlink" width="72.00000000000001" height="106.56000000000002"><path fill="red" stroke="red" d="M33.91 64.01C32.98 60.26 30.67 54.22 28.44 49.61L23.33 51.55C24.12 53.28 24.91 55.37 25.63 57.31L15.34 58.82C21.24 52.49 26.93 44.86 31.61 37.15L25.85 33.62C24.26 36.72 22.32 39.82 20.45 42.70L13.18 43.27C17.14 38.09 21.02 31.46 23.98 25.20L17.71 22.54C14.76 30.31 9.72 38.38 8.21 40.54C6.62 42.62 5.40 44.06 4.10 44.42C4.82 46.08 5.83 49.18 6.19 50.47C7.27 49.97 8.93 49.54 16.20 48.74C13.61 52.20 11.45 54.79 10.30 55.87C7.92 58.54 6.26 60.12 4.54 60.55C5.33 62.28 6.34 65.45 6.70 66.74C8.28 65.95 10.80 65.30 27.43 62.71C27.86 64.01 28.22 65.23 28.37 66.24ZM7.20 69.48C6.62 75.24 5.62 81.58 4.03 85.90C5.40 86.33 8.28 87.19 9.43 87.84C11.02 83.52 12.24 76.68 12.89 70.42ZM15.70 70.13C16.56 75.24 17.35 81.86 17.50 86.26L22.82 84.89C22.54 80.57 21.67 74.09 20.81 68.98ZM23.69 68.54C25.20 73.08 27.07 78.98 27.79 82.87L32.83 81.07C32.04 77.26 30.17 71.42 28.44 66.96ZM56.66 23.83L56.66 64.01L43.70 67.10L43.70 29.02L37.44 29.02L37.44 65.23C37.44 68.69 34.78 70.99 33.19 72.00C34.27 73.08 35.93 75.38 36.50 76.68C38.23 75.53 40.68 74.45 56.66 70.27L56.66 88.92L63.36 88.92L63.36 23.83Z"/></svg>
