<svg xmlns="http://www.w3.org/2000/svg" xmlns:xlink="http://www.w3.org/1999/xlink" width="72.00000000000001" height="106.56000000000002"><path fill="red" stroke="red" d="M4.46 50.33C5.47 49.82 7.13 49.46 13.97 48.67C11.59 52.27 9.43 55.08 8.35 56.30C6.26 58.97 4.61 60.70 3.10 61.13C3.67 62.64 4.68 65.52 4.97 66.74C6.48 65.95 8.71 65.38 24.41 63.00C24.62 63.94 24.77 64.73 24.91 65.52L29.88 63.58C29.16 60.05 27.14 54.36 24.91 50.04L20.38 51.62C21.31 53.71 22.18 56.02 22.97 58.25L12.24 59.69C17.93 53.06 23.54 44.78 27.86 36.58L22.68 33.41C21.17 36.79 19.30 40.18 17.42 43.34L10.73 43.85C14.54 38.52 18.22 31.82 21.17 25.49L15.48 23.18C12.74 30.89 7.99 38.88 6.48 41.04C4.97 43.13 3.74 44.57 2.52 44.93C3.24 46.44 4.10 49.25 4.39 50.47C4.39 50.40 4.39 50.26 4.46 50.18ZM5.40 69.41C4.90 75.24 3.89 81.58 2.30 85.82C3.60 86.18 6.12 87.05 7.27 87.70C8.78 83.23 10.01 76.54 10.66 70.34ZM13.32 70.13C14.11 74.95 14.83 81.22 14.98 85.39L20.09 84.10C19.80 79.99 19.01 73.87 18.07 69.05ZM21.24 68.54C22.75 72.94 24.55 78.70 25.20 82.44L29.95 80.78C29.16 77.11 27.36 71.57 25.70 67.18ZM52.42 77.40L52.42 58.82L60.84 58.82L60.84 77.40ZM38.59 58.82L46.37 58.82L46.37 77.40L38.59 77.40ZM46.37 33.41L46.37 52.63L38.59 52.63L38.59 33.41ZM60.84 52.63L52.42 52.63L52.42 33.41L60.84 33.41ZM32.47 26.64L32.47 87.98L38.59 87.98L38.59 83.66L60.84 83.66L60.84 87.41L67.25 87.41L67.25 26.64Z"/></svg>
