<svg xmlns="http://www.w3.org/2000/svg" xmlns:xlink="http://www.w3.org/1999/xlink" width="72.00000000000001" height="106.56000000000002"><path fill="red" stroke="red" d="M67.82 33.05L49.46 33.05L53.78 30.96C52.78 28.66 50.76 25.27 48.89 22.68L43.20 25.13C44.64 27.58 46.44 30.74 47.52 33.05L30.67 33.05L30.67 39.17L67.82 39.17ZM53.50 42.70C57.02 47.38 61.63 53.93 63.72 57.67L69.05 54.07C66.82 50.47 62.06 44.28 58.54 39.67ZM38.88 40.18C36.50 45.29 32.69 50.98 29.23 54.79C30.67 55.66 33.34 57.60 34.49 58.68C37.87 54.43 42.19 47.81 45.07 42.12ZM30.46 65.09C29.74 61.34 27.72 55.01 25.85 50.33L20.88 51.70C21.60 53.71 22.39 55.87 22.97 58.03L12.89 59.33C18.58 52.99 24.19 45.07 28.73 37.30L22.97 33.84C21.53 37.01 19.73 40.18 17.78 43.13L11.16 43.70C15.05 38.38 19.01 31.75 21.96 25.34L15.98 22.82C13.18 30.53 8.21 38.59 6.70 40.75C5.18 42.84 3.96 44.28 2.66 44.64C3.31 46.15 4.25 49.18 4.61 50.40C5.69 49.90 7.34 49.54 14.04 48.74C11.66 52.13 9.58 54.72 8.50 55.87C6.34 58.46 4.68 60.19 3.10 60.62C3.82 62.21 4.75 65.38 5.11 66.67C6.62 65.88 9.00 65.30 24.34 63.07C24.70 64.58 24.98 65.81 25.20 66.96ZM5.98 69.41C5.40 75.17 4.39 81.58 2.74 85.82C4.18 86.26 6.77 87.12 7.92 87.77C9.43 83.38 10.66 76.61 11.38 70.34ZM14.18 70.20C15.05 75.10 15.77 81.58 15.91 85.75L21.17 84.74C20.95 80.50 20.09 74.16 19.22 69.26ZM21.89 68.76C23.26 72.86 24.84 78.26 25.42 81.72L30.46 79.99C29.88 76.54 28.15 71.35 26.64 67.32ZM55.73 53.57C54.43 58.61 52.42 63.22 49.75 67.39C47.02 63.29 44.71 58.68 43.20 53.93L37.22 55.44C39.38 61.78 42.19 67.61 45.65 72.65C41.33 77.47 35.93 81.36 29.45 84.24C30.82 85.46 32.83 87.84 33.62 89.28C40.03 86.26 45.36 82.44 49.75 77.83C54.00 82.51 59.04 86.40 65.02 88.99C65.88 87.19 67.90 84.67 69.41 83.30C63.43 81.00 58.18 77.33 53.93 72.65C57.53 67.61 60.19 61.70 61.99 55.08Z"/></svg>
