<svg xmlns="http://www.w3.org/2000/svg" xmlns:xlink="http://www.w3.org/1999/xlink" width="72.00000000000001" height="106.56000000000002"><path fill="red" stroke="red" d="M58.97 42.91L46.37 42.91L46.37 32.04L58.97 32.04ZM65.23 26.50L40.39 26.50L40.39 48.46L65.23 48.46ZM27.79 32.83C27.00 35.06 25.63 37.44 22.90 39.74C20.30 38.81 17.78 38.02 15.26 37.30C16.13 36.07 16.92 34.85 17.78 33.41ZM35.42 45.14C33.55 44.14 31.32 43.06 28.80 41.98C31.90 38.88 33.26 35.57 33.84 32.47L37.73 32.26L37.87 27.07L34.27 27.29L34.27 25.20L28.51 25.20L28.51 27.58L20.95 28.01C21.67 26.57 22.39 25.27 22.97 23.98L16.85 22.90C16.20 24.62 15.34 26.50 14.33 28.30C10.30 28.44 6.55 28.66 3.46 28.73L4.10 34.20L11.16 33.77C9.72 36.00 8.35 38.09 7.06 39.74C10.51 40.54 14.26 41.69 17.86 42.98C14.18 44.93 9.14 46.66 2.52 48.10C3.67 49.32 5.11 51.41 5.62 52.85C14.11 50.83 20.09 48.38 24.34 45.65C26.93 46.73 29.23 47.88 30.96 48.96ZM20.30 75.31C16.42 78.62 10.08 81.94 4.18 84.02C5.62 85.03 8.06 87.34 9.14 88.49C14.90 86.04 21.89 81.79 26.50 77.62ZM57.96 71.71C59.62 73.37 60.91 74.95 61.92 76.32L66.89 73.01C64.01 69.19 57.89 63.86 52.92 60.34L48.24 63.22C49.90 64.44 51.55 65.74 53.21 67.18L26.28 68.47C36.00 64.80 45.79 60.19 55.08 54.50L50.76 50.40C46.44 53.21 41.62 55.94 36.94 58.25L24.55 58.54C29.81 56.66 34.85 54.36 39.53 51.77L35.21 47.88C29.45 51.77 21.10 55.30 18.72 56.16C16.42 57.02 14.69 57.60 13.03 57.74C13.68 59.33 14.47 62.21 14.76 63.36C15.91 63.00 17.64 62.78 28.30 62.35C23.76 64.51 20.02 65.95 18.07 66.67C13.61 68.40 10.44 69.41 7.92 69.62C8.57 71.21 9.29 74.02 9.50 75.17C11.66 74.45 14.62 74.09 33.84 73.08L33.84 82.22C33.84 83.02 33.55 83.30 32.47 83.38C31.46 83.38 27.65 83.38 23.90 83.23C24.62 84.96 25.06 87.19 25.13 88.85C30.82 88.85 34.78 88.92 37.37 88.13C39.89 87.41 40.61 85.75 40.61 82.51L40.61 72.65ZM45.00 77.98C50.69 80.78 57.96 85.03 61.49 87.98L66.46 84.38C62.64 81.36 55.30 77.26 49.61 74.74Z"/></svg>
