<svg xmlns="http://www.w3.org/2000/svg" xmlns:xlink="http://www.w3.org/1999/xlink" width="72.00000000000001" height="106.56000000000002"><path fill="red" stroke="red" d="M30.53 64.94C29.74 61.27 27.79 55.01 25.92 50.26L20.95 51.77C21.67 53.64 22.32 55.87 22.97 58.03L13.18 59.26C19.08 52.85 24.91 44.86 29.52 37.01L23.69 33.34C22.03 36.65 20.09 40.03 18.07 43.06L11.45 43.56C15.48 38.30 19.44 31.82 22.54 25.49L16.34 22.90C13.32 30.46 8.21 38.52 6.70 40.61C5.18 42.70 3.89 43.99 2.59 44.35C3.31 46.08 4.25 49.10 4.61 50.40C5.69 49.90 7.27 49.54 14.18 48.74C11.81 52.06 9.72 54.58 8.64 55.73C6.34 58.32 4.68 60.05 2.95 60.41C3.74 62.14 4.75 65.38 5.11 66.74C6.62 65.95 9.00 65.30 24.41 63.07C24.77 64.51 24.91 65.74 25.13 66.82ZM5.98 69.41C5.40 75.46 4.39 81.94 2.74 86.40C4.18 86.83 6.70 87.55 7.85 88.20C9.36 83.66 10.58 76.75 11.23 70.34ZM13.54 70.20C14.33 75.24 15.05 81.79 15.12 86.18L20.38 85.18C20.16 80.86 19.37 74.38 18.50 69.26ZM20.88 68.90C22.25 73.37 23.76 79.27 24.26 83.09L29.16 81.50C28.51 77.76 27.00 72.00 25.49 67.54ZM38.52 55.44L59.98 55.44L59.98 60.62L38.52 60.62ZM38.52 45.36L59.98 45.36L59.98 50.33L38.52 50.33ZM69.05 71.86L52.42 71.86L52.42 66.02L66.38 66.02L66.38 39.96L52.42 39.96L52.42 34.85L68.40 34.85L68.40 28.94L52.42 28.94L52.42 23.54L45.86 23.54L45.86 39.96L32.40 39.96L32.40 66.02L45.86 66.02L45.86 71.86L30.17 71.86L30.17 77.98L45.86 77.98L45.86 89.21L52.42 89.21L52.42 77.98L69.05 77.98Z"/></svg>
