<svg xmlns="http://www.w3.org/2000/svg" xmlns:xlink="http://www.w3.org/1999/xlink" width="72.00000000000001" height="106.56000000000002"><path fill="red" stroke="red" d="M26.86 65.81C26.28 62.06 24.62 55.66 22.97 50.69L18.43 51.84C19.15 53.93 19.80 56.23 20.38 58.54L12.17 59.54C17.42 52.92 22.54 44.78 26.57 36.72L21.38 33.70C20.02 36.94 18.29 40.25 16.63 43.34L10.58 43.78C14.04 38.45 17.42 31.75 20.02 25.34L14.33 23.18C12.10 30.89 7.70 39.02 6.41 41.18C5.04 43.34 4.03 44.78 2.74 45.07C3.46 46.58 4.32 49.32 4.61 50.47C5.69 50.04 7.20 49.61 13.32 48.89C11.16 52.49 9.22 55.15 8.28 56.38C6.26 59.04 4.75 60.84 3.24 61.20C3.96 62.71 4.82 65.52 5.11 66.74C6.48 66.02 8.64 65.45 21.38 63.58C21.67 64.87 21.89 66.24 22.03 67.32ZM5.98 69.41C5.33 75.60 4.32 82.37 2.66 86.83C4.10 87.26 6.62 88.06 7.78 88.70C9.36 84.10 10.58 76.97 11.23 70.34ZM12.96 70.06C13.75 75.38 14.40 82.37 14.40 86.98L19.30 86.04C19.15 81.50 18.43 74.66 17.64 69.34ZM19.51 68.76C20.95 73.44 22.39 79.56 22.97 83.59L27.50 82.15C26.86 78.26 25.27 72.22 23.76 67.54ZM33.26 71.42L33.26 64.37L40.03 64.37L40.03 71.42ZM40.03 52.56L40.03 59.33L33.26 59.33L33.26 52.56ZM34.13 37.87L34.13 30.96L40.03 30.96L40.03 37.87ZM60.91 37.94L54.65 37.94L54.65 30.96L60.91 30.96ZM61.70 52.49L61.70 59.26L54.65 59.26L54.65 52.49ZM54.65 71.28L54.65 64.30L61.70 64.30L61.70 71.28ZM49.10 83.09C45.79 83.09 45.29 82.37 45.29 79.20L45.29 30.96L49.75 30.96L49.75 76.54L66.96 76.54L66.96 47.23L54.65 47.23L54.65 42.77L65.95 42.77L65.95 26.14L29.45 26.14L29.45 42.70L40.03 42.70L40.03 47.30L28.01 47.30L28.01 76.68L40.03 76.68L40.03 79.13C40.03 85.82 41.90 87.55 48.53 87.55L60.84 87.55C66.17 87.55 67.82 85.54 68.47 79.34C66.89 78.98 64.94 78.19 63.79 77.47C63.43 81.94 62.93 83.09 60.48 83.09Z"/></svg>
