<svg xmlns="http://www.w3.org/2000/svg" xmlns:xlink="http://www.w3.org/1999/xlink" width="72.00000000000001" height="106.56000000000002"><path fill="red" stroke="red" d="M22.46 66.82L16.70 66.82L16.70 73.80L6.41 73.80L6.41 78.98L16.70 78.98L16.70 89.21L22.46 89.21L22.46 78.98L32.47 78.98L32.47 73.80L22.46 73.80ZM11.81 46.87L11.81 42.48L26.86 42.48L26.86 46.87ZM11.81 33.77L26.86 33.77L26.86 38.16L11.81 38.16ZM35.28 61.20L35.28 56.09L19.94 56.09C20.45 54.50 20.81 52.99 21.17 51.41L32.62 51.41L32.62 29.23L20.38 29.23C21.10 27.50 21.82 25.56 22.61 23.54L15.91 22.90C15.55 24.70 14.90 27.22 14.26 29.23L6.26 29.23L6.26 51.41L15.34 51.41C14.98 52.92 14.54 54.43 13.97 56.09L4.03 56.09L4.03 61.20L11.59 61.20C9.65 64.37 6.84 67.32 2.66 69.41C3.96 70.27 5.47 72.22 6.19 73.51C11.95 70.42 15.55 66.02 17.86 61.20L20.95 61.20C24.05 64.73 27.86 69.34 29.66 72.14L33.91 68.76C32.47 66.74 30.02 63.86 27.65 61.20ZM50.33 26.42L35.06 26.42L35.06 32.11L44.64 32.11L44.64 58.10C40.61 62.28 36.58 66.17 33.91 68.69L36.79 73.58C39.31 71.21 41.98 68.54 44.64 65.81L44.64 81.07C44.64 82.01 44.35 82.30 43.56 82.30C42.70 82.30 39.96 82.37 37.15 82.22C37.94 83.81 38.74 86.69 38.95 88.20C43.06 88.27 46.08 88.06 47.95 86.98C49.75 86.04 50.33 84.17 50.33 81.07ZM35.42 39.60C37.15 44.06 39.10 49.97 39.82 53.50L44.50 51.91C43.63 48.60 41.62 42.84 39.74 38.45ZM66.60 26.42L51.91 26.42L51.91 32.11L60.84 32.11L60.84 56.81C57.02 61.13 53.21 65.16 50.69 67.75L53.71 72.72C55.94 70.20 58.46 67.61 60.84 64.87L60.84 81.29C60.84 82.30 60.55 82.58 59.62 82.58C58.82 82.66 55.87 82.66 53.06 82.51C53.86 84.10 54.65 86.90 54.86 88.56C59.11 88.56 62.14 88.34 64.08 87.34C66.02 86.33 66.60 84.53 66.60 81.36ZM51.55 39.31C53.14 43.78 54.94 49.68 55.73 53.21L60.41 51.98C59.62 48.60 57.67 42.84 55.94 38.45Z"/></svg>
