<svg xmlns="http://www.w3.org/2000/svg" xmlns:xlink="http://www.w3.org/1999/xlink" width="72.00000000000001" height="106.56000000000002"><path fill="red" stroke="red" d="M33.98 38.09C36.22 41.83 38.59 46.73 39.46 49.75L43.92 47.66L43.92 50.47C40.32 55.15 36.50 59.62 34.20 62.42L37.87 66.46C39.89 64.01 41.98 61.49 43.92 58.90L43.92 71.42C43.92 72.29 43.63 72.50 42.84 72.58C42.05 72.58 39.38 72.65 36.50 72.50C37.30 73.94 38.16 76.46 38.38 77.90C42.34 77.90 45.00 77.76 46.80 76.82C48.67 75.89 49.18 74.16 49.18 71.50L49.18 27.43L34.42 27.43L34.42 32.40L43.92 32.40L43.92 46.94C42.91 44.06 40.61 39.82 38.38 36.29ZM18.50 56.95L18.50 61.70L33.91 61.70L33.91 56.95L28.08 56.95L28.08 52.06L32.83 52.06L32.83 47.45L28.08 47.45L28.08 43.13L23.33 43.13L23.33 47.45L19.22 47.45L19.22 52.06L23.33 52.06L23.33 56.95ZM33.48 37.51L21.24 37.51L21.24 33.19L30.89 33.19L30.89 28.30L21.24 28.30L21.24 23.11L15.55 23.11L15.55 28.30L6.34 28.30L6.34 33.19L15.55 33.19L15.55 37.51L3.89 37.51L3.89 42.48L33.48 42.48ZM3.67 63.22C7.92 62.50 12.82 61.70 17.64 60.77L17.42 56.30L13.25 56.95L13.25 51.98L17.57 51.98L17.57 47.38L13.25 47.38L13.25 43.13L8.57 43.13L8.57 47.38L3.89 47.38L3.89 51.98L8.57 51.98L8.57 57.67C6.55 57.96 4.68 58.25 3.02 58.46ZM65.59 27.43L51.19 27.43L51.19 32.40L60.41 32.40L60.41 46.94C59.47 44.14 56.95 39.67 54.72 36.00L50.33 37.73C52.56 41.47 54.86 46.37 55.80 49.39L60.41 47.16L60.41 49.68C56.74 54.50 52.70 59.26 50.33 62.06L54.00 66.02C56.09 63.50 58.32 60.77 60.41 58.03L60.41 71.06C60.41 71.93 60.12 72.14 59.26 72.22C58.46 72.29 55.66 72.29 52.70 72.14C53.57 73.58 54.43 76.10 54.65 77.54C58.61 77.54 61.42 77.40 63.22 76.39L63.43 76.32C63.00 81.79 61.99 82.73 57.17 82.73L34.78 82.73C28.15 82.73 26.93 82.15 26.93 79.85L26.93 69.77L33.34 69.77L33.34 64.73L3.67 64.73L3.67 69.77L10.51 69.77C9.79 76.25 7.78 81.58 1.94 84.74C3.24 85.75 4.97 87.98 5.62 89.42C12.74 85.18 15.12 78.26 15.98 69.77L21.24 69.77L21.24 79.92C21.24 86.47 24.05 88.06 34.85 88.06L57.38 88.06C66.10 88.06 68.11 86.11 69.19 77.40C67.68 77.18 65.74 76.46 64.22 75.82C65.23 74.81 65.59 73.30 65.59 71.14Z"/></svg>
