<svg xmlns="http://www.w3.org/2000/svg" xmlns:xlink="http://www.w3.org/1999/xlink" width="72.00000000000001" height="106.56000000000002"><path fill="red" stroke="red" d="M59.54 53.86C58.39 52.13 56.81 49.97 54.94 47.88C56.88 45.50 58.46 43.20 59.76 40.90L55.44 40.10C54.65 41.62 53.57 43.20 52.20 44.86C51.41 43.99 50.62 43.13 49.75 42.41C51.26 40.46 52.56 38.52 53.64 36.58L49.32 35.86C48.67 37.01 47.81 38.30 46.87 39.60C45.72 38.59 44.57 37.58 43.49 36.72L39.89 38.95C41.26 40.03 42.70 41.33 43.99 42.62C42.41 44.28 40.46 45.72 38.30 47.09C39.31 47.74 40.54 49.18 41.18 50.04C43.34 48.67 45.22 47.09 46.87 45.50C47.66 46.37 48.46 47.30 49.32 48.17C46.94 50.54 43.99 52.92 40.61 54.94C41.54 55.51 42.77 56.95 43.42 57.96C46.66 55.87 49.46 53.64 51.84 51.19C53.50 53.14 54.79 55.01 55.80 56.59ZM60.19 58.39L38.02 58.39L38.02 35.28L60.19 35.28ZM65.95 29.88L48.38 29.88C49.39 28.08 50.54 25.92 51.48 23.83L44.64 22.68C44.21 24.70 43.27 27.58 42.34 29.88L32.54 29.88L32.54 63.86L65.95 63.86ZM56.95 75.31C55.44 72.58 52.49 67.90 50.18 64.37L45.79 66.38C48.02 70.06 50.98 74.88 52.34 77.83ZM21.17 41.04L13.32 41.04L13.32 32.11L21.17 32.11ZM13.32 71.57L13.32 61.20L21.17 61.20L21.17 70.34ZM13.32 46.58L21.17 46.58L21.17 55.66L13.32 55.66ZM30.96 32.11L30.96 26.06L3.74 26.06L3.74 32.11L7.78 32.11L7.78 72.36C5.98 72.65 4.18 72.86 2.59 73.08L3.96 79.34C8.93 78.41 15.05 77.40 21.17 76.25L21.17 89.28L26.86 89.28L26.86 32.11ZM32.90 85.97C34.78 81.79 36.07 75.10 37.01 70.27L32.26 68.62C31.46 73.44 29.81 79.85 28.01 83.81ZM46.30 82.80C43.99 82.80 43.56 82.51 43.56 80.86L43.56 68.69L37.94 68.69L37.94 80.86C37.94 86.11 39.38 87.62 45.50 87.62L54.65 87.62C59.54 87.62 61.06 85.61 61.70 77.76C60.12 77.40 57.89 76.61 56.66 75.67C56.45 81.86 56.09 82.80 54.07 82.80ZM59.40 69.98C61.20 74.66 63.50 80.78 64.58 84.82L69.55 82.80C68.40 78.91 66.10 72.94 64.08 68.26Z"/></svg>
