<svg xmlns="http://www.w3.org/2000/svg" xmlns:xlink="http://www.w3.org/1999/xlink" width="72.00000000000001" height="106.56000000000002"><path fill="red" stroke="red" d="M47.81 49.32L47.81 60.62L38.66 60.62L38.66 49.32ZM12.67 44.06C14.83 46.22 17.06 48.89 18.36 50.62L20.74 48.60L20.74 56.45C17.64 58.61 14.69 60.55 12.46 61.92C12.60 58.18 12.67 54.58 12.67 51.34ZM20.74 31.82L20.74 45.22C19.15 43.49 17.28 41.62 15.41 39.96L12.67 41.98L12.67 31.82ZM43.70 82.30C39.38 82.30 38.66 81.72 38.66 78.55L38.66 66.10L53.64 66.10L53.64 43.85L34.70 43.85C36.29 41.69 37.66 39.38 39.10 36.94L59.04 36.94C58.82 56.81 58.54 64.01 57.38 65.52C56.88 66.38 56.30 66.60 55.30 66.60C54.00 66.60 51.41 66.53 48.53 66.31C49.46 67.97 50.26 70.49 50.33 72.14C53.42 72.29 56.38 72.36 58.32 72.07C60.41 71.78 61.78 71.14 63.07 69.34C64.80 66.82 65.09 58.39 65.30 33.98L65.30 31.10L42.05 31.10C42.98 29.09 43.85 27.00 44.57 24.91L38.38 23.26C35.93 30.74 31.68 38.09 26.71 43.13L26.71 25.70L6.98 25.70L6.98 51.34C6.98 61.92 6.62 76.25 2.38 86.26C3.89 86.76 6.41 88.13 7.56 89.14C10.58 82.01 11.81 72.29 12.38 63.36L14.76 67.75C16.70 66.10 18.72 64.37 20.74 62.57L20.74 81.14C20.74 82.08 20.45 82.44 19.58 82.44C18.72 82.44 16.27 82.44 13.54 82.37C14.33 84.02 15.05 86.90 15.19 88.56C19.66 88.56 22.32 88.34 24.26 87.26C26.14 86.26 26.71 84.38 26.71 81.29L26.71 46.01C27.94 47.23 29.23 48.74 29.74 49.61C30.74 48.60 31.68 47.66 32.62 46.51L32.62 78.55C32.62 86.11 34.85 87.98 43.27 87.98L58.82 87.98C65.95 87.98 67.82 85.39 68.69 76.32C66.96 76.03 64.44 75.02 63.00 74.02C62.57 80.93 61.92 82.30 58.39 82.30Z"/></svg>
