<svg xmlns="http://www.w3.org/2000/svg" xmlns:xlink="http://www.w3.org/1999/xlink" width="72.00000000000001" height="106.56000000000002"><path fill="red" stroke="red" d="M29.45 58.54L29.45 42.84C31.25 40.90 32.98 38.66 34.34 36.58L29.09 34.78C26.14 39.38 21.10 43.78 16.13 46.73C17.21 47.74 18.94 50.26 19.58 51.48C20.95 50.54 22.32 49.54 23.69 48.38L23.69 58.54ZM64.37 60.62L44.21 60.62C44.42 59.33 44.57 58.03 44.71 56.59L39.46 56.59C39.31 58.10 39.17 59.40 38.88 60.62L18.86 60.62L18.86 88.70L24.84 88.70L24.84 65.38L37.15 65.38C35.21 68.54 31.75 70.56 25.63 71.86C26.64 72.72 27.79 74.38 28.30 75.53C33.91 74.16 37.58 72.36 40.10 69.70C44.86 71.35 50.33 73.73 53.42 75.46L56.81 72.14C53.35 70.49 47.38 68.04 42.41 66.38C42.55 66.10 42.70 65.74 42.84 65.38L58.32 65.38L58.32 82.51C58.32 83.30 58.03 83.52 57.10 83.59C56.52 83.66 54.86 83.66 52.78 83.59L55.30 81.29C52.34 79.63 47.30 77.47 43.06 75.82C43.63 74.81 44.14 73.73 44.50 72.50L39.02 72.50C37.51 76.61 33.77 79.56 25.70 81.36C26.71 82.22 28.22 84.17 28.73 85.39C34.13 83.88 37.87 81.79 40.54 79.20C43.78 80.50 47.38 82.15 49.97 83.59C50.62 85.10 51.34 87.05 51.55 88.56C56.45 88.56 59.76 88.63 61.78 87.77C63.86 86.83 64.37 85.46 64.37 82.51ZM47.52 51.12C45.43 49.54 41.54 47.09 38.59 45.43L34.92 48.31C37.87 50.18 41.76 52.78 43.78 54.43ZM59.54 35.35L53.57 35.35L53.57 39.89L33.70 39.89L33.70 44.86L53.57 44.86L53.57 52.99C53.57 53.71 53.28 54.00 52.42 54.00C51.70 54.00 48.89 54.07 46.22 53.93C46.80 55.15 47.59 56.66 47.95 57.96C52.13 57.96 55.08 57.96 57.02 57.38C58.90 56.74 59.54 55.80 59.54 53.14L59.54 44.86L67.39 44.86L67.39 39.89L59.54 39.89ZM42.48 28.30C41.54 26.50 40.46 24.48 39.46 22.82L33.05 24.05C33.70 25.34 34.42 26.78 35.06 28.30L8.78 28.30L8.78 49.75C8.78 60.41 8.28 75.31 2.66 85.75C4.03 86.33 6.91 88.42 7.99 89.64C14.26 78.55 15.26 61.27 15.26 49.75L15.26 33.98L68.18 33.98L68.18 28.30Z"/></svg>
