<svg xmlns="http://www.w3.org/2000/svg" xmlns:xlink="http://www.w3.org/1999/xlink" width="72.00000000000001" height="106.56000000000002"><path fill="red" stroke="red" d="M35.28 40.03L27.00 40.03L27.00 45.36L49.97 45.36L49.97 40.32C51.48 41.33 53.28 43.06 54.29 44.28C59.26 39.89 64.15 33.19 67.25 26.35L61.42 24.41C58.90 30.17 54.29 36.29 49.90 40.03L41.26 40.03L41.26 35.06L50.54 35.06L50.54 29.66L41.26 29.66L41.26 23.26L35.28 23.26L35.28 29.66L25.63 29.66L25.63 35.06L35.28 35.06ZM61.85 44.28C59.33 50.40 54.50 56.66 49.75 60.41C51.34 61.49 53.21 63.29 54.22 64.73C59.69 60.19 64.66 53.35 67.75 46.22ZM43.34 59.62L33.19 59.62L33.19 53.71L43.34 53.71ZM49.03 49.03L27.65 49.03L27.65 64.30L49.03 64.30ZM36.65 75.17C36.14 72.58 34.70 68.47 33.12 65.52L28.44 67.03C29.81 70.13 31.25 74.30 31.68 77.04ZM11.38 45.50C12.89 47.30 14.26 49.32 15.12 50.76L17.78 48.82L17.78 57.31C15.34 59.18 12.96 60.91 11.09 62.21C11.30 58.18 11.38 54.43 11.38 51.12ZM17.78 31.82L17.78 46.51C16.49 44.71 14.76 42.62 13.10 40.90L11.38 41.98L11.38 31.82ZM22.90 25.70L6.19 25.70L6.19 51.12C6.19 61.42 5.90 75.53 2.30 85.54C3.38 86.26 5.54 88.27 6.34 89.50C9.07 82.51 10.37 73.37 10.94 64.80L12.53 68.26C14.26 66.60 16.06 64.94 17.78 63.22L17.78 82.30C17.78 83.16 17.50 83.45 16.78 83.45C16.06 83.52 13.61 83.52 11.09 83.45C11.81 84.82 12.53 87.41 12.67 88.78C16.56 88.85 19.08 88.70 20.66 87.70C22.32 86.83 22.90 85.10 22.90 82.37ZM50.54 74.81L44.71 76.03C45.94 73.08 47.30 69.77 48.46 66.67L42.48 65.09C41.69 68.62 40.18 73.58 38.74 77.18C33.62 78.12 28.94 79.06 25.27 79.70L26.78 85.46C33.55 83.95 42.48 82.01 50.98 79.99ZM62.71 65.09C59.90 73.37 54.22 80.78 47.16 84.89C48.67 86.11 50.47 88.06 51.41 89.64C59.33 84.46 65.23 76.32 68.62 66.74Z"/></svg>
