<svg xmlns="http://www.w3.org/2000/svg" xmlns:xlink="http://www.w3.org/1999/xlink" width="72.00000000000001" height="106.56000000000002"><path fill="red" stroke="red" d="M23.47 35.21L30.02 35.21L30.02 23.04L23.47 23.04L23.47 26.78L4.46 26.78L4.46 32.04L23.47 32.04ZM37.51 72.07L56.23 72.07L56.23 75.38L38.02 75.38L38.02 79.27L56.23 79.27L56.23 82.87L16.13 82.87L16.13 79.13L33.77 79.13L33.77 75.24L16.13 75.24L16.13 72.43C22.82 71.64 29.88 70.34 35.06 68.76L30.96 65.16C25.99 66.74 17.14 68.26 9.50 69.19L9.50 89.21L16.13 89.21L16.13 87.19L56.23 87.19L56.23 89.21L62.86 89.21L62.86 67.90L37.51 67.90ZM18.22 57.46L35.71 57.46L35.71 60.55L18.22 60.55ZM35.71 47.09L18.22 47.09L18.22 43.92L35.71 43.92ZM35.71 53.78L18.22 53.78L18.22 50.76L35.71 50.76ZM41.98 57.46L60.05 57.46L60.05 53.78L41.98 53.78L41.98 50.76L59.90 50.76L59.90 47.09L41.98 47.09L41.98 43.92L63.14 43.92L63.14 39.53L41.76 39.53C41.11 37.73 40.25 35.86 39.31 34.27L33.19 35.64C33.84 36.79 34.42 38.16 34.92 39.53L20.38 39.53C21.24 38.16 21.96 36.79 22.68 35.42L16.56 34.34C14.11 39.24 9.86 45.36 3.82 49.82C5.18 50.69 7.20 52.56 8.14 53.93C9.58 52.78 10.87 51.62 12.10 50.33L12.10 66.10L18.22 66.10L18.22 64.87L65.95 64.87L65.95 60.55L41.98 60.55ZM48.24 26.78L48.24 23.04L41.62 23.04L41.62 35.78L48.24 35.78L48.24 32.04L67.32 32.04L67.32 26.78Z"/></svg>
