<svg xmlns="http://www.w3.org/2000/svg" xmlns:xlink="http://www.w3.org/1999/xlink" width="72.00000000000001" height="106.56000000000002"><path fill="red" stroke="red" d="M47.16 39.02L53.71 39.02L53.71 34.34L67.75 34.34L67.75 28.37L53.71 28.37L53.71 23.04L47.16 23.04L47.16 28.37L37.37 28.37L37.37 34.34L47.16 34.34ZM18.00 38.95L24.62 38.95L24.62 34.34L34.56 34.34L34.56 28.37L24.62 28.37L24.62 23.04L18.00 23.04L18.00 28.37L4.46 28.37L4.46 34.34L18.00 34.34ZM23.62 70.92C24.70 72.86 25.70 75.10 26.57 77.26L14.69 78.55C21.67 71.06 28.66 61.70 34.42 52.20L28.22 49.46C26.64 52.34 24.91 55.37 23.04 58.10L13.18 58.75C16.85 54.07 20.45 48.31 23.18 42.70L16.85 40.25C14.11 47.30 9.36 54.65 7.85 56.52C6.41 58.54 5.18 59.83 3.82 60.12C4.61 61.63 5.62 64.37 5.98 65.52C7.34 65.02 9.36 64.58 19.30 63.72C15.34 69.26 11.59 73.73 9.86 75.46C7.13 78.48 5.18 80.35 3.24 80.78C4.10 82.37 5.26 85.10 5.62 86.26C7.34 85.46 10.15 84.89 28.51 82.66C29.16 84.60 29.59 86.47 29.88 88.06L35.64 86.18C34.78 81.50 32.11 74.52 29.16 69.19ZM69.48 85.97C68.04 81.07 64.51 73.94 60.70 68.62L55.30 70.78C56.52 72.65 57.82 74.88 58.97 77.04L45.65 78.48C52.56 70.99 59.47 61.78 65.23 52.27L59.11 49.61C57.60 52.49 55.80 55.37 54.00 58.18L43.56 58.82C47.30 54.22 51.05 48.38 53.86 42.91L47.59 40.46C44.71 47.45 39.74 54.79 38.16 56.59C36.72 58.54 35.42 59.83 33.98 60.12C34.78 61.63 35.93 64.37 36.22 65.52C37.58 65.02 39.74 64.58 50.26 63.65C46.30 69.19 42.62 73.66 40.97 75.38C38.16 78.41 36.22 80.28 34.27 80.71C35.06 82.22 36.29 84.96 36.58 86.18C38.45 85.32 41.40 84.74 61.49 82.37C62.42 84.60 63.14 86.76 63.58 88.56Z"/></svg>
