<svg xmlns="http://www.w3.org/2000/svg" xmlns:xlink="http://www.w3.org/1999/xlink" width="72.00000000000001" height="106.56000000000002"><path fill="red" stroke="red" d="M18.50 40.68L25.20 40.68L25.20 35.21L33.91 35.21L33.91 29.16L25.20 29.16L25.20 23.18L18.50 23.18L18.50 29.16L4.03 29.16L4.03 35.21L18.50 35.21ZM18.86 59.83L18.86 49.54L26.71 49.54L26.71 59.83ZM33.26 49.54L39.74 49.54L39.74 43.20L5.40 43.20L5.40 49.54L12.31 49.54L12.31 59.83L3.82 59.83L3.82 66.24L12.10 66.24C11.45 73.01 9.43 79.63 2.74 85.03C4.32 86.04 6.77 88.20 7.85 89.71C15.84 83.16 18.07 74.66 18.72 66.24L26.71 66.24L26.71 88.99L33.26 88.99L33.26 66.24L40.54 66.24L40.54 59.83L33.26 59.83ZM58.10 81.50C58.10 82.58 57.67 82.87 56.45 82.87C55.30 82.94 51.12 82.94 47.09 82.80C48.02 84.60 48.96 87.48 49.25 89.35C55.01 89.35 58.90 89.21 61.42 88.13C63.86 87.12 64.73 85.25 64.73 81.50L64.73 41.69L58.10 41.69ZM50.18 44.93L43.78 44.93L43.78 75.96L50.18 75.96ZM53.71 29.09L53.71 23.18L47.02 23.18L47.02 29.09L37.58 29.09L37.58 35.21L47.02 35.21L47.02 40.68L53.71 40.68L53.71 35.21L67.68 35.21L67.68 29.09Z"/></svg>
