<svg xmlns="http://www.w3.org/2000/svg" xmlns:xlink="http://www.w3.org/1999/xlink" width="72.00000000000001" height="106.56000000000002"><path fill="red" stroke="red" d="M47.38 39.24L54.00 39.24L54.00 34.20L67.68 34.20L67.68 28.44L54.00 28.44L54.00 23.11L47.38 23.11L47.38 28.44L37.58 28.44L37.58 34.20L47.38 34.20ZM50.33 50.54C49.32 57.31 46.80 62.64 41.76 66.10C43.20 66.96 45.86 68.98 46.87 70.06C49.39 68.11 51.48 65.59 53.06 62.64C56.88 65.95 60.98 69.77 63.07 72.36L67.54 68.18C64.87 65.16 59.62 60.62 55.37 57.31C55.87 55.30 56.38 53.28 56.66 51.05ZM18.50 39.24L25.13 39.24L25.13 34.27L33.91 34.27L33.91 28.44L25.13 28.44L25.13 23.11L18.50 23.11L18.50 28.44L4.03 28.44L4.03 34.27L18.50 34.27ZM16.63 50.62C14.98 58.61 10.87 64.94 4.39 68.83C5.76 69.84 8.14 72.07 9.07 73.22C12.96 70.63 16.13 67.10 18.50 62.86C20.88 65.16 23.26 67.82 24.55 69.62L29.16 65.81C27.43 63.58 23.98 60.26 20.95 57.67C21.67 55.66 22.32 53.64 22.82 51.34ZM39.31 49.03L66.96 49.03L66.96 42.98L39.31 42.98L39.31 37.66L32.54 37.66L32.54 42.98L5.40 42.98L5.40 49.03L32.54 49.03L32.54 54.43C32.54 65.74 29.38 77.47 2.95 83.59C4.32 84.96 6.12 87.84 6.77 89.50C24.98 85.10 33.19 77.83 36.79 69.48C42.19 77.98 51.41 85.61 65.23 89.21C66.17 87.34 67.97 84.60 69.41 83.16C53.06 79.85 43.34 70.70 38.95 61.27C39.24 59.04 39.31 56.81 39.31 54.58Z"/></svg>
