<svg xmlns="http://www.w3.org/2000/svg" xmlns:xlink="http://www.w3.org/1999/xlink" width="72.00000000000001" height="106.56000000000002"><path fill="red" stroke="red" d="M45.58 37.30L51.70 37.30L51.70 33.41L67.82 33.41L67.82 27.58L51.70 27.58L51.70 23.11L45.58 23.11L45.58 27.58L38.23 27.58L38.23 33.41L45.58 33.41ZM19.94 37.30L26.06 37.30L26.06 33.41L33.77 33.41L33.77 27.58L26.06 27.58L26.06 23.11L19.94 23.11L19.94 27.58L4.61 27.58L4.61 33.41L19.94 33.41ZM18.65 73.22L26.50 73.22L26.50 81.58L18.65 81.58ZM39.89 73.22L39.89 81.58L31.90 81.58L31.90 73.22ZM53.28 73.22L53.28 81.58L45.29 81.58L45.29 73.22ZM22.75 60.26C25.78 58.54 28.73 56.38 31.54 54.22L47.30 54.22L43.78 56.88C45.29 57.74 46.94 58.75 48.60 59.83ZM59.76 81.58L59.76 68.33L59.62 68.33L64.58 64.30C61.34 61.49 55.51 57.24 50.33 54.22L67.75 54.22L67.75 49.25L39.02 49.25L39.02 44.93L61.49 44.93L61.49 40.03L39.02 40.03L39.02 35.42L32.47 35.42L32.47 40.03L10.73 40.03L10.73 44.93L32.47 44.93L32.47 49.25L4.46 49.25L4.46 54.22L22.18 54.22C19.01 56.59 16.06 58.39 14.76 59.04C12.96 60.19 11.45 60.84 10.08 61.06C10.73 62.64 11.66 65.66 12.02 66.82C14.83 65.88 18.94 65.88 55.51 64.94C57.10 66.10 58.39 67.32 59.47 68.33L12.46 68.33L12.46 81.58L3.82 81.58L3.82 86.98L68.47 86.98L68.47 81.58Z"/></svg>
