<svg xmlns="http://www.w3.org/2000/svg" xmlns:xlink="http://www.w3.org/1999/xlink" width="72.00000000000001" height="106.56000000000002"><path fill="red" stroke="red" d="M18.43 36.58L24.84 36.58L24.84 32.40L33.91 32.40L33.91 27.29L24.84 27.29L24.84 23.11L18.43 23.11L18.43 27.29L4.03 27.29L4.03 32.40L18.43 32.40ZM18.07 88.78C20.09 86.04 21.96 81.72 23.11 78.41L18.36 76.32C17.28 79.49 15.34 83.66 13.18 86.11ZM25.92 78.12C26.71 81.36 27.29 85.54 27.29 88.20L32.54 87.48C32.47 84.74 31.82 80.64 30.96 77.47ZM35.06 77.69C36.65 80.57 38.23 84.38 38.74 86.90L43.70 85.18C43.06 82.73 41.54 79.06 39.82 76.32ZM44.50 76.90C46.30 78.91 48.38 81.72 49.32 83.66L53.78 81.43C52.85 79.56 50.76 76.90 48.74 74.95ZM40.82 47.09L30.53 47.09L30.53 43.42L40.82 43.42ZM57.24 51.05L57.24 54.86L46.58 54.86L46.58 51.05ZM30.53 51.05L40.82 51.05L40.82 54.86L30.53 54.86ZM24.84 54.86L14.62 54.86L14.62 51.05L24.84 51.05ZM24.84 43.42L24.84 47.09L14.62 47.09L14.62 43.42ZM30.96 35.21C31.68 36.29 32.47 37.44 33.12 38.66L8.42 38.66L8.42 54.86C8.42 63.94 7.85 76.46 2.30 85.39C3.74 86.04 6.55 87.77 7.70 88.85C12.89 80.42 14.26 68.40 14.54 58.90L19.08 58.90L19.08 74.81L59.69 74.81C59.18 80.50 58.54 82.94 57.82 83.74C57.31 84.31 56.81 84.38 55.80 84.38C54.86 84.38 52.78 84.38 50.40 84.10C51.12 85.54 51.70 87.62 51.77 89.14C54.65 89.28 57.38 89.28 58.75 89.06C60.55 88.92 61.85 88.49 63.00 87.34C64.51 85.68 65.38 81.79 66.10 72.58C66.17 71.78 66.24 70.27 66.24 70.27L24.98 70.27L24.98 66.82L64.80 66.82L64.80 62.28L24.98 62.28L24.98 58.90L63.79 58.90L63.79 47.09L46.58 47.09L46.58 43.42L66.74 43.42L66.74 38.66L39.38 38.66C38.66 36.94 37.37 35.06 36.07 33.48ZM53.71 27.22L53.71 23.11L47.23 23.11L47.23 27.22L37.58 27.22L37.58 32.40L47.23 32.40L47.23 36.58L53.71 36.58L53.71 32.40L67.68 32.40L67.68 27.22Z"/></svg>
