<svg xmlns="http://www.w3.org/2000/svg" xmlns:xlink="http://www.w3.org/1999/xlink" width="72.00000000000001" height="106.56000000000002"><path fill="red" stroke="red" d="M20.66 38.16L27.22 38.16L27.22 33.84L34.63 33.84L34.63 27.86L27.22 27.86L27.22 23.11L20.66 23.11L20.66 27.86L4.39 27.86L4.39 33.84L20.66 33.84ZM20.88 66.38L30.38 66.38L30.38 60.98L20.88 60.98L20.88 57.10L29.66 57.10L29.66 51.77L20.88 51.77L20.88 47.02C24.34 46.51 27.58 45.86 30.24 45.07L26.78 40.39C25.20 40.90 23.11 41.40 20.88 41.83L20.88 38.23L14.62 38.23L14.62 42.77C11.09 43.20 7.42 43.49 4.03 43.70C4.68 45.07 5.33 47.02 5.47 48.38C8.35 48.31 11.52 48.10 14.62 47.81L14.62 51.77L5.83 51.77L5.83 57.10L14.62 57.10L14.62 60.98L3.89 60.98L3.89 66.38L13.03 66.38C10.37 71.93 6.26 77.47 2.23 80.42C3.67 81.58 5.69 83.74 6.70 85.32C9.50 82.66 12.31 78.84 14.62 74.59L14.62 89.28L20.88 89.28L20.88 73.73C23.33 76.46 26.06 79.70 27.29 81.65L31.32 76.97C29.66 75.24 23.11 69.12 20.88 67.32ZM39.89 57.31L39.89 52.85L45.86 52.85L45.86 57.31ZM39.89 44.21L45.86 44.21L45.86 48.60L39.89 48.60ZM57.96 48.60L51.19 48.60L51.19 44.21L57.96 44.21ZM57.96 57.31L51.19 57.31L51.19 52.85L57.96 52.85ZM66.96 64.87L51.19 64.87L51.19 61.63L63.79 61.63L63.79 39.89L34.34 39.89L34.34 61.63L45.86 61.63L45.86 64.87L37.58 64.87L37.58 62.78L32.26 62.78L32.26 64.87L30.67 64.87L30.67 69.55L32.26 69.55L32.26 89.14L37.58 89.14L37.58 69.55L45.86 69.55L45.86 75.89L38.88 76.75L39.67 81.58C44.50 80.86 50.26 79.92 56.30 78.91C56.66 80.28 57.02 81.43 57.17 82.51L60.55 81.36C59.98 78.62 58.46 74.45 56.66 71.28L53.57 72.14C53.93 72.94 54.29 73.87 54.72 74.74L50.69 75.24L50.69 69.55L61.42 69.55L61.42 84.24C61.42 84.96 61.20 85.18 60.41 85.18C59.69 85.25 56.95 85.25 54.36 85.10C55.01 86.40 55.73 87.98 55.94 89.35C59.98 89.35 62.78 89.28 64.58 88.56C66.38 87.91 66.96 86.83 66.96 84.24ZM51.12 27.86L51.12 23.11L44.50 23.11L44.50 27.86L37.22 27.86L37.22 33.84L44.50 33.84L44.50 38.16L51.12 38.16L51.12 33.84L67.46 33.84L67.46 27.86Z"/></svg>
