<svg xmlns="http://www.w3.org/2000/svg" xmlns:xlink="http://www.w3.org/1999/xlink" width="72.00000000000001" height="106.56000000000002"><path fill="red" stroke="red" d="M66.60 27.29L31.68 27.29L31.68 33.70L66.60 33.70ZM19.01 23.04C15.48 28.22 8.57 34.63 2.59 38.52C3.82 39.82 5.62 42.41 6.41 43.92C13.03 39.24 20.52 32.11 25.42 25.70ZM21.82 38.45C16.99 46.58 9.22 54.79 1.87 60.05C3.24 61.34 5.62 64.30 6.48 65.74C8.78 63.86 11.23 61.63 13.61 59.26L13.61 89.35L20.30 89.35L20.30 51.84C23.26 48.24 25.92 44.50 28.15 40.82ZM68.62 46.94L28.66 46.94L28.66 53.35L51.41 53.35L51.41 81.00C51.41 82.01 50.98 82.37 49.61 82.37C48.31 82.44 43.49 82.44 38.88 82.30C39.82 84.24 40.75 87.05 41.04 88.99C47.74 88.99 51.98 88.92 54.65 87.91C57.38 86.83 58.25 84.89 58.25 81.07L58.25 53.35L68.62 53.35Z"/></svg>
