<svg xmlns="http://www.w3.org/2000/svg" xmlns:xlink="http://www.w3.org/1999/xlink" width="72.00000000000001" height="106.56000000000002"><path fill="red" stroke="red" d="M26.28 49.25C25.13 51.26 22.82 54.07 21.02 56.16L19.51 54.72L19.51 53.28C22.61 48.46 25.34 43.20 27.36 37.94L23.98 35.21L22.82 35.57L16.63 35.57L21.82 32.33C20.59 29.74 17.93 25.85 15.70 22.97L10.51 25.70C12.67 28.73 15.12 32.90 16.49 35.57L3.74 35.57L3.74 41.62L19.66 41.62C15.48 50.18 8.64 58.68 2.09 63.43C3.02 64.80 4.46 68.18 5.04 69.98C7.63 67.90 10.37 65.16 12.96 62.14L12.96 89.21L19.51 89.21L19.51 62.06C21.82 65.16 24.26 68.54 25.49 70.56L29.09 65.23C28.37 64.22 26.14 61.78 23.90 59.40C25.78 57.53 28.08 55.22 30.31 52.92ZM51.84 79.20L51.84 64.22L60.12 64.22L60.12 79.20ZM37.30 64.22L46.01 64.22L46.01 79.20L37.30 79.20ZM46.01 44.50L46.01 58.25L37.30 58.25L37.30 44.50ZM60.12 58.25L51.84 58.25L51.84 44.50L60.12 44.50ZM52.27 38.45L52.27 23.11L45.58 23.11L45.58 38.45L30.96 38.45L30.96 89.28L37.30 89.28L37.30 85.18L60.12 85.18L60.12 88.78L66.67 88.78L66.67 38.45Z"/></svg>
