<svg xmlns="http://www.w3.org/2000/svg" xmlns:xlink="http://www.w3.org/1999/xlink" width="72.00000000000001" height="106.56000000000002"><path fill="red" stroke="red" d="M67.68 37.30C66.67 34.27 64.30 29.45 61.99 25.92L57.53 27.86C59.69 31.54 62.06 36.58 62.93 39.67ZM22.54 34.99L21.31 35.28L16.42 35.28L20.59 32.69C19.44 29.95 16.85 26.21 14.26 23.33L9.22 26.28C11.38 28.94 13.82 32.62 14.98 35.28L4.10 35.28L4.10 41.33L18.22 41.33C14.69 49.82 8.64 58.10 2.59 62.86C3.53 64.22 5.04 67.82 5.54 69.70C7.85 67.75 10.22 65.30 12.46 62.50L12.46 89.14L18.50 89.14L18.50 59.40C20.59 62.06 22.75 65.09 23.90 66.89L28.08 61.56C26.78 60.12 21.89 54.79 19.44 52.34C22.18 47.66 24.55 42.55 26.14 37.30ZM36.22 23.04C33.55 33.26 29.02 43.13 23.04 49.39C24.41 50.47 26.57 52.78 27.43 54.00C28.80 52.49 30.02 50.83 31.25 48.96L31.25 89.21L37.22 89.21L37.22 37.94C39.10 33.62 40.82 29.09 42.05 24.41ZM68.54 49.25L68.54 42.84L55.51 42.84L55.51 41.76L55.51 23.47L49.68 23.47L49.68 41.76L49.68 42.84L39.31 42.84L39.31 49.25L49.54 49.25C48.89 60.91 46.44 74.16 37.37 85.18C39.10 86.26 41.33 87.84 42.55 89.14C48.82 81.22 52.06 72.29 53.78 63.50C56.02 74.16 59.40 83.23 64.87 88.92C65.88 87.12 68.11 84.74 69.55 83.59C62.42 77.04 58.61 63.72 56.74 49.25Z"/></svg>
