<svg xmlns="http://www.w3.org/2000/svg" xmlns:xlink="http://www.w3.org/1999/xlink" width="72.00000000000001" height="106.56000000000002"><path fill="red" stroke="red" d="M20.59 32.11C19.37 29.74 16.78 25.92 14.62 23.04L9.36 25.63C11.38 28.58 13.90 32.62 15.05 35.14ZM28.15 65.38C27.36 64.44 25.49 61.99 23.47 59.40C25.34 57.17 27.36 54.36 29.30 51.77L25.34 48.82C24.19 51.05 22.46 53.78 20.74 56.09C20.09 55.37 19.51 54.65 19.01 54.07C21.96 48.89 24.55 43.20 26.35 37.44L22.75 35.21L21.60 35.50L20.23 35.50L20.23 35.57L3.89 35.57L3.89 41.62L18.65 41.62C14.98 50.83 8.57 59.98 2.30 65.16C3.31 66.31 5.11 69.48 5.69 71.21C7.78 69.26 9.94 67.03 11.95 64.44L11.95 89.21L18.36 89.21L18.36 60.98C20.59 64.22 23.04 67.82 24.19 69.91ZM57.82 44.78L57.82 51.34L45.29 51.34C45.79 49.25 46.22 47.09 46.58 44.78ZM57.82 32.62L57.82 38.88L47.45 38.88C47.66 36.86 47.88 34.78 48.10 32.62ZM59.40 69.48L59.40 80.21L42.19 80.21L42.19 69.48ZM64.44 57.17L64.44 44.78L69.12 44.78L69.12 38.88L64.44 38.88L64.44 26.71L31.75 26.71L31.75 32.62L41.90 32.62C41.76 34.78 41.54 36.86 41.33 38.88L28.51 38.88L28.51 44.78L40.46 44.78C40.10 47.09 39.67 49.25 39.10 51.34L31.10 51.34L31.10 57.17L37.30 57.17C34.56 64.58 30.31 70.42 24.05 74.66C25.49 75.74 27.79 78.19 28.73 79.34C31.46 77.26 33.84 74.88 35.86 72.36L35.86 89.06L42.19 89.06L42.19 86.04L59.40 86.04L59.40 89.06L65.95 89.06L65.95 63.65L41.11 63.65C42.12 61.63 42.98 59.40 43.70 57.17Z"/></svg>
