<svg xmlns="http://www.w3.org/2000/svg" xmlns:xlink="http://www.w3.org/1999/xlink" width="72.00000000000001" height="106.56000000000002"><path fill="red" stroke="red" d="M20.38 32.40C19.15 30.02 16.56 26.35 14.26 23.62L8.93 26.06C11.09 28.94 13.61 32.83 14.83 35.35ZM23.83 49.25C22.97 51.19 21.24 53.86 19.73 55.94C19.08 55.08 18.43 54.29 17.86 53.71C20.81 48.53 23.33 42.98 25.13 37.44L21.67 35.28L20.45 35.57L4.25 35.57L4.25 41.40L17.57 41.40C13.97 50.33 7.78 59.69 1.87 65.23C2.88 66.24 4.68 69.19 5.33 70.70C7.42 68.62 9.65 66.02 11.74 63.14L11.74 88.92L17.86 88.92L17.86 61.13C19.80 64.08 21.89 67.18 22.90 69.12L26.57 64.66C25.99 63.79 24.26 61.49 22.46 59.26C24.12 57.31 26.06 54.65 28.08 52.27ZM59.98 50.69L59.98 57.02L50.18 57.02L50.18 50.69ZM50.18 68.83L50.18 62.35L59.98 62.35L59.98 68.83ZM34.56 68.83L34.56 62.35L43.78 62.35L43.78 68.83ZM43.78 50.69L43.78 57.02L34.56 57.02L34.56 50.69ZM68.83 38.81L68.83 32.69L64.73 32.69L67.39 30.17C65.16 27.86 60.70 24.98 57.02 23.18L53.21 26.78C56.23 28.37 59.76 30.67 61.99 32.69L50.18 32.69L50.18 23.18L43.78 23.18L43.78 32.69L26.42 32.69L26.42 38.81L43.78 38.81L43.78 45.00L28.30 45.00L28.30 89.21L34.56 89.21L34.56 74.16L43.78 74.16L43.78 88.70L50.18 88.70L50.18 74.16L59.98 74.16L59.98 82.15C59.98 82.94 59.76 83.23 58.97 83.23C58.32 83.23 55.94 83.23 53.57 83.16C54.36 84.74 55.15 87.41 55.37 89.06C59.33 89.06 61.99 88.99 63.94 87.91C65.81 86.90 66.31 85.18 66.31 82.30L66.31 45.00L50.18 45.00L50.18 38.81Z"/></svg>
