<svg xmlns="http://www.w3.org/2000/svg" xmlns:xlink="http://www.w3.org/1999/xlink" width="72.00000000000001" height="106.56000000000002"><path fill="red" stroke="red" d="M32.04 74.23C30.31 72.00 22.90 63.07 20.09 60.19C20.23 59.18 20.30 58.25 20.38 57.24L31.75 57.24L31.75 51.12L20.74 51.12C20.81 49.54 20.81 48.10 20.81 46.66L20.81 40.54L30.46 40.54L30.46 34.56L20.81 34.56L20.81 23.90L14.54 23.90L14.54 34.56L4.75 34.56L4.75 40.54L14.54 40.54L14.54 46.66C14.54 48.10 14.54 49.54 14.47 51.12L3.38 51.12L3.38 57.24L14.18 57.24C13.32 66.53 10.73 76.68 2.66 83.52C4.32 84.60 6.48 86.76 7.49 88.13C13.82 82.37 17.14 74.81 18.86 67.10C21.96 71.06 25.70 76.18 27.43 79.13ZM40.39 54.22L58.75 54.22L58.75 60.12L40.39 60.12ZM40.39 42.98L58.75 42.98L58.75 48.82L40.39 48.82ZM40.39 31.82L58.75 31.82L58.75 37.58L40.39 37.58ZM58.54 82.01C57.24 82.01 57.02 81.86 57.02 80.14L57.02 66.10L65.16 66.10L65.16 25.85L34.13 25.85L34.13 66.10L40.32 66.10C39.24 74.45 36.58 80.64 25.85 84.17C27.22 85.32 28.87 87.70 29.59 89.21C41.98 84.67 45.43 76.75 46.66 66.10L50.83 66.10L50.83 80.14C50.83 86.11 52.13 87.91 57.53 87.91L63.07 87.91C67.18 87.91 68.83 86.11 69.48 79.06C67.75 78.62 65.16 77.62 64.01 76.61C63.86 81.36 63.50 82.01 62.35 82.01Z"/></svg>
