<svg xmlns="http://www.w3.org/2000/svg" xmlns:xlink="http://www.w3.org/1999/xlink" width="72.00000000000001" height="106.56000000000002"><path fill="red" stroke="red" d="M52.13 72.14L52.13 80.78L20.02 80.78L20.02 72.14ZM13.39 89.14L20.02 89.14L20.02 86.33L52.13 86.33L52.13 88.92L58.97 88.92L58.97 66.46L13.39 66.46ZM14.18 60.55L58.18 60.55L58.18 55.15L14.18 55.15ZM58.18 44.28L14.18 44.28L14.18 49.68L58.18 49.68ZM41.54 33.41L42.55 33.12C41.26 30.17 38.45 25.99 35.78 22.90L29.16 24.70C31.25 27.43 33.48 30.74 34.78 33.41L4.03 33.41L4.03 39.17L68.26 39.17L68.26 33.41Z"/></svg>
