<svg xmlns="http://www.w3.org/2000/svg" xmlns:xlink="http://www.w3.org/1999/xlink" width="72.00000000000001" height="106.56000000000002"><path fill="red" stroke="red" d="M58.18 30.74C53.64 28.08 44.86 24.77 38.38 23.11L35.42 28.44C42.12 30.31 50.76 33.91 55.08 36.72ZM27.00 35.14L14.76 35.14L19.87 32.18C18.79 29.59 16.56 25.78 14.54 22.75L9.58 25.42C11.38 28.37 13.54 32.47 14.62 35.14L3.82 35.14L3.82 40.46L27.00 40.46ZM25.20 44.71L6.26 44.71L6.26 49.97L25.20 49.97ZM6.26 59.40L25.06 59.40L25.06 54.22L6.26 54.22ZM19.51 79.63L11.74 79.63L11.74 69.34L19.51 69.34ZM38.74 50.69L37.58 50.98L26.64 50.98L26.64 56.95L35.42 56.95C33.55 65.30 29.74 72.94 25.20 77.11L25.20 63.94L6.19 63.94L6.19 88.27L11.74 88.27L11.74 85.03L25.20 85.03L25.20 78.26C26.50 79.49 28.01 81.29 28.80 82.58C35.71 76.54 40.68 65.52 42.77 52.13ZM63.29 42.34C61.06 45.86 57.67 50.33 54.58 53.93C53.57 51.05 52.63 47.95 51.84 45.00L51.84 37.73L31.75 37.73L31.75 43.85L45.50 43.85L45.50 81.58C45.50 82.58 45.14 82.87 44.14 82.94C43.20 82.94 39.74 83.02 36.36 82.80C37.15 84.53 38.09 87.55 38.30 89.28C43.42 89.28 46.80 89.21 49.03 88.06C51.19 87.05 51.84 85.10 51.84 81.65L51.84 61.06C55.15 70.13 59.62 78.12 65.09 82.87C66.17 81.07 68.33 78.77 69.84 77.54C64.66 73.73 60.34 67.10 56.88 59.54C60.62 55.94 64.94 51.05 68.76 46.73Z"/></svg>
