<svg xmlns="http://www.w3.org/2000/svg" xmlns:xlink="http://www.w3.org/1999/xlink" width="72.00000000000001" height="106.56000000000002"><path fill="red" stroke="red" d="M20.45 32.90C19.66 30.31 17.86 26.42 16.20 23.54L10.51 25.42C12.10 28.37 13.90 32.47 14.54 35.06ZM20.88 69.34L20.88 79.63L11.59 79.63L11.59 69.34ZM26.50 63.94L5.76 63.94L5.76 88.27L11.59 88.27L11.59 85.03L26.50 85.03ZM5.90 59.40L25.70 59.40L25.70 54.22L5.90 54.22ZM25.70 44.71L5.90 44.71L5.90 49.97L25.70 49.97ZM40.03 48.24L55.37 48.24L55.37 58.39L40.03 58.39ZM58.32 82.22C57.10 82.22 56.88 82.01 56.88 80.14L56.88 64.22L61.99 64.22L61.99 42.41C62.93 43.78 63.72 45.07 64.30 46.30L69.41 42.62C66.53 37.30 59.83 29.30 54.22 23.33L49.61 26.50C53.86 31.25 58.68 37.30 61.99 42.34L35.14 42.34C39.10 37.58 42.77 31.82 45.36 25.99L39.17 24.05C36.65 29.88 32.62 35.71 28.22 39.96L28.22 35.14L3.02 35.14L3.02 40.46L27.65 40.46C27.00 41.11 26.35 41.69 25.70 42.26C27.07 43.42 29.59 45.72 30.67 46.94C31.61 46.08 32.69 45.00 33.70 43.85L33.70 64.22L39.17 64.22C38.30 73.22 36.22 80.42 26.78 84.38C28.15 85.61 30.02 87.98 30.67 89.57C41.76 84.46 44.57 75.53 45.65 64.22L50.40 64.22L50.40 80.21C50.40 86.40 51.62 88.34 57.24 88.34L62.64 88.34C67.10 88.34 68.76 85.97 69.41 76.68C67.68 76.25 64.94 75.17 63.65 74.02C63.43 81.22 63.14 82.22 61.85 82.22Z"/></svg>
