<svg xmlns="http://www.w3.org/2000/svg" xmlns:xlink="http://www.w3.org/1999/xlink" width="72.00000000000001" height="106.56000000000002"><path fill="red" stroke="red" d="M27.07 35.14L14.11 35.14L19.44 32.18C18.36 29.59 16.13 25.78 13.97 22.75L8.86 25.42C10.73 28.37 12.96 32.47 13.97 35.14L3.31 35.14L3.31 40.46L27.07 40.46ZM24.91 49.90L24.91 44.64L5.40 44.64L5.40 49.90ZM24.91 54.14L5.40 54.14L5.40 59.33L24.91 59.33ZM19.01 79.63L11.23 79.63L11.23 69.34L19.01 69.34ZM35.14 54.79L68.47 54.79L68.47 49.46L61.56 49.46L64.80 45.72C62.57 44.42 59.69 43.06 56.45 41.62C59.47 40.03 62.28 38.16 64.51 36.22L60.91 34.78L68.26 34.78L68.26 29.38L52.27 29.38C51.70 27.43 50.76 24.70 49.82 22.68L43.70 24.19C44.21 25.78 44.93 27.65 45.43 29.38L29.59 29.38L29.59 34.78L58.46 34.78C56.38 36.43 53.64 37.94 50.62 39.24C46.22 37.58 41.76 36.07 37.80 34.92L34.56 38.38C37.51 39.31 40.75 40.39 43.99 41.69C40.03 42.91 35.78 43.92 31.68 44.71C32.90 45.79 34.78 48.02 35.64 49.18C40.39 47.95 45.72 46.37 50.62 44.35C54.58 46.08 58.25 47.88 60.91 49.46L29.16 49.46L29.16 58.39C29.16 65.66 28.66 76.10 24.84 84.17L24.84 63.94L5.54 63.94L5.54 88.27L11.23 88.27L11.23 85.03L24.41 85.03L23.90 86.04C25.34 86.62 28.01 88.20 29.16 89.21C34.06 80.21 35.14 67.18 35.14 58.46ZM60.34 63.07C55.30 67.39 45.50 70.92 36.86 72.72C38.23 73.94 39.74 75.89 40.46 77.26C49.68 74.95 59.54 70.85 65.45 65.45ZM56.59 55.15C52.27 58.46 43.99 61.34 36.86 62.71C38.16 63.86 39.67 65.66 40.46 67.03C48.24 65.09 56.66 61.78 61.78 57.38ZM63.72 71.78C58.03 78.05 46.37 82.15 33.98 84.02C35.35 85.39 36.79 87.55 37.44 89.14C50.76 86.62 62.71 81.79 69.26 74.23Z"/></svg>
