<svg xmlns="http://www.w3.org/2000/svg" xmlns:xlink="http://www.w3.org/1999/xlink" width="72.00000000000001" height="106.56000000000002"><path fill="red" stroke="red" d="M61.85 27.36C60.91 32.26 58.68 39.17 56.95 43.42L61.49 44.86C63.36 40.75 65.45 34.27 67.25 28.87ZM48.89 42.98C47.95 39.10 45.50 32.54 43.27 27.58L38.52 28.94C40.68 33.98 42.91 40.75 43.78 44.78ZM49.90 79.63L55.80 79.63L55.80 52.56L67.97 52.56L67.97 46.94L55.80 46.94L55.80 23.33L49.90 23.33L49.90 46.94L37.87 46.94L37.87 52.56L49.90 52.56ZM56.23 56.23C59.26 62.28 62.64 70.42 64.08 75.31L68.76 72.22C67.39 67.61 63.79 59.76 60.62 53.71ZM44.35 54.14C42.70 60.62 39.38 67.75 36.00 71.64C37.30 72.58 39.24 74.52 40.25 75.82C43.85 71.21 47.30 63.07 49.10 55.66ZM35.14 36.72C34.13 33.62 32.40 28.87 31.10 25.06L25.92 26.21C27.14 30.02 28.94 35.06 29.74 38.23ZM17.93 32.69C17.14 30.10 15.48 26.14 14.11 23.18L8.42 24.91C9.79 28.01 11.38 32.11 11.95 34.70ZM23.62 34.99L2.95 34.99L2.95 40.32L23.62 40.32ZM22.32 49.54L22.32 44.35L4.61 44.35L4.61 49.54ZM22.46 54.07L4.61 54.07L4.61 59.26L22.46 59.26ZM16.99 79.78L10.51 79.78L10.51 69.34L16.99 69.34ZM35.14 56.95L34.34 57.24L31.90 57.24C33.41 52.20 34.99 46.22 36.29 41.26L24.34 41.26L24.34 46.66L29.38 46.66C27.94 52.42 26.21 58.68 24.77 63.00L31.25 63.00C30.38 68.04 28.87 73.44 27.07 77.26C25.49 78.48 23.90 80.21 22.32 82.08L22.32 64.01L5.26 64.01L5.26 88.20L10.51 88.20L10.51 85.18L22.32 85.18L22.32 84.46L25.56 88.92C27.72 84.82 30.38 80.50 31.97 80.50C33.26 80.42 35.28 82.51 37.51 84.24C41.18 86.90 45.50 88.06 51.98 88.06C56.81 88.06 64.37 87.77 68.40 87.48C68.47 85.97 69.26 82.87 69.84 81.22C64.58 81.86 56.88 82.22 51.91 82.22C46.08 82.22 41.83 81.50 38.30 78.91C36.00 77.18 34.63 75.67 33.19 75.17C35.14 70.06 36.65 63.79 37.58 58.03Z"/></svg>
