<svg xmlns="http://www.w3.org/2000/svg" xmlns:xlink="http://www.w3.org/1999/xlink" width="72.00000000000001" height="106.56000000000002"><path fill="red" stroke="red" d="M67.03 39.53C66.10 36.29 63.65 31.10 61.42 27.29L56.45 29.23C58.54 33.26 60.84 38.52 61.63 41.76ZM47.23 30.46L40.54 30.46C39.74 28.30 38.45 25.49 37.15 23.33L31.90 24.84C32.90 26.50 33.84 28.66 34.56 30.46L25.70 30.46L25.70 35.71L47.23 35.71ZM18.36 32.54C17.42 30.10 15.34 26.21 13.39 23.33L8.71 25.20C10.51 28.22 12.60 32.26 13.39 34.78ZM17.78 69.41L17.78 79.92L11.02 79.92L11.02 69.41ZM22.75 64.15L6.12 64.15L6.12 88.34L11.02 88.34L11.02 85.18L22.75 85.18ZM6.19 59.62L22.68 59.62L22.68 54.36L6.19 54.36ZM22.68 44.78L6.19 44.78L6.19 50.04L22.68 50.04ZM3.89 40.54L24.19 40.54L24.19 35.14L3.89 35.14ZM32.62 74.45L32.62 68.69L41.11 68.69L41.11 74.45ZM41.11 58.39L41.11 64.01L32.62 64.01L32.62 58.39ZM61.92 53.42C60.77 57.60 59.11 61.56 57.24 65.23C56.66 60.91 56.16 55.87 55.80 50.26L68.11 50.26L68.11 44.57L55.44 44.57C55.08 37.87 54.86 30.67 54.79 23.18L48.89 23.18C49.03 30.74 49.25 37.87 49.61 44.57L43.13 44.57C43.85 42.34 44.64 39.53 45.43 36.94L40.18 36.07C39.82 38.52 38.95 41.98 38.30 44.57L34.78 44.57C34.42 42.12 33.70 38.66 32.83 36.14L28.08 36.86C28.80 39.24 29.38 42.26 29.66 44.57L24.48 44.57L24.48 50.26L49.97 50.26C50.54 58.97 51.41 66.67 52.56 72.79C50.76 75.38 48.74 77.76 46.66 79.85L46.66 53.71L27.22 53.71L27.22 84.24L32.62 84.24L32.62 79.13L41.11 79.13L41.11 81.00L45.43 81.00C43.85 82.58 42.19 83.95 40.39 85.18C41.69 86.11 43.34 87.70 44.28 88.78C47.74 86.33 51.12 83.09 54.22 79.42C56.09 85.39 58.61 88.85 62.06 88.85C64.44 88.85 67.18 86.40 68.76 75.96C67.68 75.38 65.30 73.58 64.30 72.36C63.94 77.98 63.29 81.22 62.21 81.22C60.84 81.14 59.62 78.34 58.61 73.51C62.06 68.33 65.02 62.42 67.18 55.94Z"/></svg>
