<svg xmlns="http://www.w3.org/2000/svg" xmlns:xlink="http://www.w3.org/1999/xlink" width="72.00000000000001" height="106.56000000000002"><path fill="red" stroke="red" d="M20.66 69.34L20.66 79.63L11.02 79.63L11.02 69.34ZM25.99 63.94L5.76 63.94L5.76 88.27L11.02 88.27L11.02 85.03L25.99 85.03ZM5.90 59.40L25.56 59.40L25.56 54.22L5.90 54.22ZM25.56 44.71L5.90 44.71L5.90 49.97L25.56 49.97ZM20.30 32.18C19.22 29.59 17.06 25.78 15.12 22.75L10.44 25.42C12.17 28.37 14.26 32.47 15.34 35.14L3.10 35.14L3.10 40.46L27.72 40.46L27.72 35.14L15.48 35.14ZM50.98 34.92L45.86 34.92L45.86 31.25L50.98 31.25ZM61.63 39.46L61.63 45.43L56.16 45.43L56.16 39.46ZM45.86 39.46L50.98 39.46L50.98 45.43L45.86 45.43ZM35.71 39.46L40.75 39.46L40.75 45.43L35.71 45.43ZM40.75 34.92L30.31 34.92L30.31 49.90L67.32 49.90L67.32 34.92L56.16 34.92L56.16 31.25L68.76 31.25L68.76 26.21L28.51 26.21L28.51 31.25L40.75 31.25ZM37.58 64.58L60.05 64.58L60.05 68.11L37.58 68.11ZM37.58 57.10L60.05 57.10L60.05 60.62L37.58 60.62ZM69.26 75.53L51.55 75.53L51.55 72.29L65.74 72.29L65.74 52.92L32.11 52.92L32.11 72.29L45.58 72.29L45.58 75.53L28.73 75.53L28.73 80.57L45.58 80.57L45.58 89.21L51.55 89.21L51.55 80.57L69.26 80.57Z"/></svg>
