<svg xmlns="http://www.w3.org/2000/svg" xmlns:xlink="http://www.w3.org/1999/xlink" width="72.00000000000001" height="106.56000000000002"><path fill="red" stroke="red" d="M63.29 25.13L56.38 25.13L56.38 35.28L39.17 35.28L39.17 23.11L32.54 23.11L32.54 35.28L15.98 35.28L15.98 25.13L9.43 25.13L9.43 40.82L63.29 40.82ZM66.74 45.29L5.54 45.29L5.54 50.83L66.74 50.83ZM45.94 72.72C45.07 75.31 43.63 78.77 42.34 81.14L45.50 81.79L26.71 81.79L29.45 81.07C28.80 78.70 27.43 75.31 25.92 72.72ZM19.30 60.48L52.99 60.48L52.99 67.68L19.30 67.68ZM48.67 81.79C50.04 79.63 51.55 76.61 52.99 73.51L48.96 72.72L59.98 72.72L59.98 55.51L12.67 55.51L12.67 72.72L23.98 72.72L19.66 73.80C20.95 76.18 22.25 79.42 22.90 81.79L4.75 81.79L4.75 87.55L67.54 87.55L67.54 81.79Z"/></svg>
