<svg xmlns="http://www.w3.org/2000/svg" xmlns:xlink="http://www.w3.org/1999/xlink" width="72.00000000000001" height="106.56000000000002"><path fill="red" stroke="red" d="M58.68 32.18L58.68 46.87L44.50 46.87L44.50 32.18ZM60.05 76.82C66.67 76.82 68.40 73.66 69.26 63.72C67.46 63.29 64.87 62.21 63.43 61.13C63.00 69.05 62.42 70.78 59.54 70.78L48.38 70.78C45.07 70.78 44.50 70.20 44.50 66.96L44.50 52.70L65.09 52.70L65.09 26.28L38.02 26.28L38.02 66.96C38.02 74.88 40.25 76.82 47.59 76.82ZM24.12 65.81L33.91 65.81L33.91 59.98L24.12 59.98L24.12 50.54L34.63 50.54L34.63 44.64L22.82 44.64L22.82 36.65L32.83 36.65L32.83 30.74L22.82 30.74L22.82 23.26L16.56 23.26L16.56 30.74L5.47 30.74L5.47 36.65L16.56 36.65L16.56 44.64L3.67 44.64L3.67 50.54L17.93 50.54L17.93 75.31C15.62 73.01 13.90 69.91 12.53 65.59C12.74 62.57 12.89 59.33 12.96 56.09L6.77 55.58C6.55 68.18 5.76 79.70 1.87 86.90C3.46 87.62 6.34 89.14 7.56 89.93C9.36 86.18 10.58 81.58 11.38 76.32C16.78 85.32 25.34 87.41 39.67 87.41L67.18 87.41C67.61 85.39 68.76 82.37 69.84 80.78C64.51 81.00 43.99 81.00 39.67 80.93C33.26 80.93 28.15 80.50 24.12 79.06Z"/></svg>
