<svg xmlns="http://www.w3.org/2000/svg" xmlns:xlink="http://www.w3.org/1999/xlink" width="72.00000000000001" height="106.56000000000002"><path fill="red" stroke="red" d="M59.76 34.85L42.34 34.85L42.34 30.38L59.76 30.38ZM59.76 43.49L42.34 43.49L42.34 39.02L59.76 39.02ZM65.95 25.92L36.29 25.92L36.29 48.02L65.95 48.02ZM47.81 63.14L34.20 63.14L34.20 68.54L47.81 68.54L47.81 79.42L54.00 79.42L54.00 68.54L68.33 68.54L68.33 63.14L54.00 63.14L54.00 57.17L66.82 57.17L66.82 51.98L35.64 51.98L35.64 57.17L47.81 57.17ZM23.62 66.17L33.77 66.17L33.77 60.26L23.62 60.26L23.62 51.26L34.27 51.26L34.27 45.36L22.82 45.36L22.82 37.15L33.05 37.15L33.05 31.39L22.82 31.39L22.82 23.11L16.70 23.11L16.70 31.39L6.05 31.39L6.05 37.15L16.70 37.15L16.70 45.36L3.89 45.36L3.89 51.26L17.57 51.26L17.57 74.52C15.48 72.36 13.68 69.48 12.31 65.74C12.53 62.57 12.67 59.26 12.74 55.87L6.98 55.58C6.84 67.90 6.26 78.91 2.02 85.75C3.31 86.54 5.76 88.42 6.62 89.35C9.00 85.39 10.44 80.57 11.30 74.95C17.57 85.54 27.58 87.48 42.19 87.48L66.67 87.48C67.03 85.54 68.18 82.58 69.26 81.14C64.37 81.29 46.15 81.29 42.26 81.29C34.85 81.29 28.58 80.86 23.62 78.70Z"/></svg>
