<svg xmlns="http://www.w3.org/2000/svg" xmlns:xlink="http://www.w3.org/1999/xlink" width="72.00000000000001" height="106.56000000000002"><path fill="red" stroke="red" d="M66.67 25.99L23.90 25.99L23.90 31.32L66.67 31.32ZM31.54 67.39L41.69 67.39L41.69 72.58L31.54 72.58ZM31.54 57.82L41.69 57.82L41.69 63.00L31.54 63.00ZM58.46 63.00L47.74 63.00L47.74 57.82L58.46 57.82ZM58.46 72.58L47.74 72.58L47.74 67.39L58.46 67.39ZM25.34 76.97L64.94 76.97L64.94 53.50L25.34 53.50ZM54.58 45.50L35.35 45.50L35.35 39.24L54.58 39.24ZM29.09 34.85L29.09 49.97L61.27 49.97L61.27 34.85ZM16.99 34.99C16.13 31.90 14.40 27.07 13.10 23.33L7.20 25.13C8.35 28.94 10.08 33.98 10.94 37.15ZM18.65 55.87L17.64 56.16L13.61 56.16C15.41 51.19 17.42 45.29 19.01 40.18L3.46 40.18L3.46 46.22L10.73 46.22C8.93 51.84 6.77 57.67 5.04 61.92L14.26 61.92C13.10 66.82 11.45 72.00 9.50 75.89C7.27 77.33 4.75 80.14 2.30 83.38L6.77 89.57C8.78 85.18 11.23 80.50 12.89 80.50C14.40 80.50 16.99 83.02 19.94 84.67C25.13 87.70 31.32 88.49 40.75 88.49C49.18 88.49 62.35 88.06 67.97 87.70C68.11 85.90 69.12 82.58 69.91 80.78C61.92 81.79 49.82 82.44 41.04 82.44C32.62 82.44 26.06 82.01 21.02 78.98C18.72 77.54 17.14 76.32 15.84 75.60C18.36 70.20 20.30 63.43 21.67 57.02Z"/></svg>
