<svg xmlns="http://www.w3.org/2000/svg" xmlns:xlink="http://www.w3.org/1999/xlink" width="72.00000000000001" height="106.56000000000002"><path fill="red" stroke="red" d="M36.22 36.94L29.81 36.94L29.81 30.60L36.22 30.60ZM41.40 25.63L24.84 25.63L24.84 41.98L41.40 41.98ZM16.13 36.94L9.79 36.94L9.79 30.60L16.13 30.60ZM21.24 25.63L4.90 25.63L4.90 41.98L21.24 41.98ZM11.88 63.86L11.88 59.40L19.73 59.40L19.73 63.86ZM11.88 50.33L19.73 50.33L19.73 54.79L11.88 54.79ZM34.13 54.79L25.99 54.79L25.99 50.33L34.13 50.33ZM34.13 63.86L25.99 63.86L25.99 59.40L34.13 59.40ZM25.99 68.76L39.96 68.76L39.96 45.58L6.12 45.58L6.12 68.76L19.73 68.76L19.73 73.37L3.10 73.37L3.10 78.91L19.73 78.91L19.73 89.14L25.99 89.14L25.99 78.91L42.55 78.91L42.55 73.37L25.99 73.37ZM64.51 26.57L63.50 26.86L44.35 26.86L44.35 89.14L50.54 89.14L50.54 32.90L60.98 32.90C59.18 38.45 56.59 45.94 54.22 51.62C60.19 57.67 61.92 63.00 61.92 67.10C61.92 69.70 61.49 71.64 60.19 72.50C59.40 72.94 58.46 73.15 57.38 73.22C56.16 73.30 54.43 73.30 52.56 73.08C53.64 74.88 54.22 77.62 54.29 79.34C56.23 79.42 58.39 79.42 60.05 79.20C61.85 79.06 63.43 78.48 64.66 77.69C67.10 75.96 68.11 72.50 68.11 67.90C68.11 63.07 66.67 57.38 60.55 50.83C63.43 44.42 66.60 36.22 69.12 29.45Z"/></svg>
