<svg xmlns="http://www.w3.org/2000/svg" xmlns:xlink="http://www.w3.org/1999/xlink" width="72.00000000000001" height="106.56000000000002"><path fill="red" stroke="red" d="M21.60 59.33L31.54 59.33L31.54 53.64L21.60 53.64L21.60 46.80L29.16 46.80L29.16 41.18L11.45 41.18C13.97 38.59 16.49 35.71 18.65 32.62C22.54 35.14 26.64 38.16 29.09 40.54L32.04 34.99C29.59 32.83 25.70 30.17 21.74 27.86C22.32 26.86 22.90 25.92 23.33 24.98L18.00 22.68C14.47 29.45 8.21 35.86 2.38 39.96C3.24 41.62 4.68 45.29 5.18 46.73C6.48 45.79 7.63 44.78 8.93 43.63L8.93 46.80L15.77 46.80L15.77 53.64L4.61 53.64L4.61 59.33L15.77 59.33L15.77 78.77C11.09 79.63 6.91 80.35 3.60 80.93L5.11 86.90C12.53 85.39 22.46 83.30 31.90 81.29L31.46 75.89C28.15 76.54 24.84 77.18 21.60 77.76ZM5.76 63.72C6.98 67.90 8.14 73.15 8.42 76.68L13.25 75.31C12.82 71.93 11.66 66.67 10.30 62.57ZM27.29 75.74C28.58 72.58 30.10 67.61 31.46 63.22L26.35 61.85C25.70 65.59 24.26 71.06 23.18 74.52ZM56.88 57.89L42.77 57.89L42.77 44.14L56.88 44.14ZM42.77 78.98L42.77 64.22L56.88 64.22L56.88 78.98ZM69.12 37.73L63.43 37.73L63.43 23.18L56.88 23.18L56.88 37.73L42.77 37.73L42.77 23.18L36.43 23.18L36.43 37.73L30.74 37.73L30.74 44.14L36.43 44.14L36.43 89.28L42.77 89.28L42.77 85.32L56.88 85.32L56.88 88.92L63.43 88.92L63.43 44.14L69.12 44.14Z"/></svg>
