<svg xmlns="http://www.w3.org/2000/svg" xmlns:xlink="http://www.w3.org/1999/xlink" width="72.00000000000001" height="106.56000000000002"><path fill="red" stroke="red" d="M62.14 24.98C60.62 29.16 57.67 34.92 55.37 38.59L60.91 40.82C63.29 37.30 66.02 32.11 68.33 27.36ZM43.27 38.38C42.19 34.78 39.17 29.38 36.29 25.34L30.82 27.94C33.70 32.04 36.50 37.73 37.44 41.33ZM29.23 76.25L20.16 77.83L20.16 59.18L28.80 59.18L28.80 53.50L20.16 53.50L20.16 46.73L25.99 46.73L25.99 41.04L11.23 41.04C13.39 38.45 15.55 35.64 17.35 32.54C21.24 36.07 25.56 40.03 27.94 42.70L31.68 37.58C29.09 34.99 24.34 30.89 20.23 27.43C20.74 26.57 21.10 25.70 21.53 24.91L15.70 22.90C12.67 29.66 7.42 36.14 2.09 40.32C3.17 41.98 4.82 45.58 5.26 47.09C6.19 46.22 7.20 45.36 8.14 44.42L8.14 46.73L14.26 46.73L14.26 53.50L3.74 53.50L3.74 59.18L14.26 59.18L14.26 78.84C9.86 79.63 5.90 80.28 2.81 80.78L4.32 86.83C11.38 85.32 20.66 83.16 29.52 81.14ZM4.25 63.58C5.33 67.68 6.55 73.01 6.98 76.54L11.81 75.17C11.23 71.78 10.01 66.53 8.86 62.42ZM25.78 75.60C27.07 72.43 28.66 67.46 30.02 63.07L24.84 61.70C24.19 65.45 22.75 70.92 21.67 74.38ZM39.67 57.38C45.14 58.61 51.91 61.06 55.37 63.14L58.18 58.39C54.58 56.52 47.66 54.29 42.41 53.21ZM38.95 49.10L59.76 49.10L59.76 64.87C51.98 66.67 44.28 68.40 38.81 69.48C38.95 67.54 38.95 65.74 38.95 64.01ZM66.10 43.27L52.56 43.27L52.56 23.18L46.15 23.18L46.15 43.27L32.76 43.27L32.76 64.01C32.76 70.92 32.47 79.63 28.94 85.82C30.46 86.54 33.12 88.42 34.20 89.57C37.37 84.24 38.45 76.90 38.81 70.06L40.75 75.17C46.22 73.80 52.99 72.14 59.76 70.34L59.76 81.36C59.76 82.37 59.40 82.66 58.32 82.73C57.24 82.80 53.64 82.80 49.97 82.58C50.76 84.31 51.62 87.12 51.84 88.85C57.24 88.85 60.84 88.78 63.07 87.70C65.38 86.76 66.10 84.82 66.10 81.50Z"/></svg>
