<svg xmlns="http://www.w3.org/2000/svg" xmlns:xlink="http://www.w3.org/1999/xlink" width="72.00000000000001" height="106.56000000000002"><path fill="red" stroke="red" d="M39.31 75.89L57.89 75.89L57.89 55.30L54.22 55.30L54.22 70.78L50.54 70.78L50.54 51.26L59.33 51.26L59.33 46.15L54.58 46.15C55.73 42.70 56.95 38.16 58.10 34.27L53.14 33.05C52.56 36.94 51.34 42.34 50.18 46.15L37.94 46.15L37.94 51.26L46.58 51.26L46.58 70.78L42.91 70.78L42.91 55.30L39.31 55.30ZM39.24 34.42C40.75 37.94 42.12 42.48 42.48 45.29L46.58 43.99C46.22 41.26 44.78 36.79 43.13 33.48ZM67.03 25.99L30.10 25.99L30.10 37.30C27.36 34.27 22.82 30.67 18.22 27.72C18.72 26.86 19.15 25.99 19.58 25.06L14.76 22.90C11.88 29.09 6.91 34.99 2.02 38.66C2.88 40.25 4.25 43.63 4.68 45.00C5.47 44.35 6.34 43.63 7.13 42.84L7.13 46.30L13.03 46.30L13.03 53.06L4.10 53.06L4.10 58.68L13.03 58.68L13.03 79.63C9.50 80.28 6.19 80.93 3.53 81.36L4.90 87.34C11.66 85.97 20.45 84.17 28.87 82.30L28.44 76.82L18.58 78.62L18.58 58.68L27.65 58.68L27.65 53.06L18.58 53.06L18.58 46.30L25.34 46.30L25.34 40.82L9.00 40.82C11.30 38.38 13.54 35.50 15.41 32.47C19.94 35.57 24.34 39.38 27.00 42.48L30.10 37.51L30.10 89.14L35.71 89.14L35.71 31.90L61.42 31.90L61.42 81.86C61.42 82.94 60.98 83.30 59.90 83.38C58.90 83.38 55.22 83.45 51.48 83.30C52.27 84.82 53.06 87.62 53.28 89.21C58.75 89.21 62.06 89.06 64.22 88.06C66.31 87.05 67.03 85.18 67.03 81.94ZM24.12 75.10C24.98 71.86 26.14 66.89 27.22 62.64L22.39 61.49C21.96 65.09 20.88 70.63 19.94 73.94ZM4.61 63.22C5.83 67.39 6.84 72.86 6.98 76.39L11.52 75.17C11.30 71.71 10.22 66.31 8.86 62.28Z"/></svg>
