<svg xmlns="http://www.w3.org/2000/svg" xmlns:xlink="http://www.w3.org/1999/xlink" width="72.00000000000001" height="106.56000000000002"><path fill="red" stroke="red" d="M20.74 77.54L20.74 59.26L28.87 59.26L28.87 53.57L20.74 53.57L20.74 46.73L26.42 46.73L26.42 41.11L10.87 41.11C13.39 38.59 15.91 35.71 18.00 32.69C21.67 35.21 25.70 38.16 28.22 40.10L30.89 35.21C28.37 33.34 24.62 30.67 20.88 28.37C21.60 27.22 22.25 26.06 22.75 24.91L17.57 22.97C14.18 29.59 8.35 35.86 2.66 39.96C3.60 41.40 5.04 44.64 5.47 45.94C6.48 45.14 7.63 44.21 8.71 43.20L8.71 46.73L14.90 46.73L14.90 53.57L5.47 53.57L5.47 59.26L14.90 59.26L14.90 78.70C10.66 79.56 6.77 80.35 3.74 80.93L5.33 86.98C12.17 85.46 21.17 83.23 29.74 81.22L29.16 75.74ZM5.90 63.79C7.20 67.97 8.71 73.30 9.29 76.82L13.75 75.38C13.10 71.93 11.59 66.67 10.15 62.64ZM25.63 74.95C26.78 71.78 28.15 66.89 29.52 62.71L24.62 61.42C24.05 65.02 22.75 70.42 21.74 73.73ZM36.14 47.09L36.14 53.42L31.25 53.42L31.25 58.68L36.14 58.68L36.14 65.38L41.04 65.38L41.04 58.68L45.14 58.68L45.14 53.42L41.04 53.42L41.04 47.09ZM64.58 47.09L59.54 47.09L59.54 53.42L55.37 53.42L55.37 58.75L59.54 58.75L59.54 65.38L64.58 65.38L64.58 58.75L68.33 58.75L68.33 53.42L64.58 53.42ZM53.42 38.66L53.42 31.32C57.89 30.89 62.14 30.24 65.66 29.45L62.50 23.83C55.30 25.56 43.85 26.78 34.06 27.36C34.70 28.87 35.42 31.18 35.64 32.69C39.31 32.54 43.27 32.33 47.23 31.97L47.23 38.66L30.53 38.66L30.53 44.42L47.23 44.42L47.23 67.46L33.55 67.46L33.55 73.30L47.23 73.30L47.23 80.71L32.47 80.71L32.47 86.62L67.90 86.62L67.90 80.71L53.42 80.71L53.42 73.30L67.03 73.30L67.03 67.46L53.42 67.46L53.42 44.42L69.05 44.42L69.05 38.66Z"/></svg>
