<svg xmlns="http://www.w3.org/2000/svg" xmlns:xlink="http://www.w3.org/1999/xlink" width="72.00000000000001" height="106.56000000000002"><path fill="red" stroke="red" d="M12.74 39.53L26.86 39.53L26.86 43.78L12.74 43.78ZM26.86 30.74L26.86 35.21L12.74 35.21L12.74 30.74ZM28.73 60.62C29.09 61.42 29.52 62.35 29.95 63.29L23.98 63.79C27.50 61.13 30.96 57.96 34.13 54.58L30.60 52.13C29.66 53.35 28.66 54.50 27.65 55.66L22.97 55.87C24.84 54.14 26.64 51.98 28.30 49.82L25.63 48.46L33.12 48.46L33.12 25.99L6.41 25.99L6.41 89.28L12.74 89.28L12.74 48.46L23.90 48.46C22.25 51.19 19.80 53.78 19.08 54.43C18.29 55.15 17.50 55.58 16.78 55.73C17.35 56.81 17.93 58.97 18.14 59.90C18.86 59.62 20.02 59.40 24.19 59.04C22.46 60.70 21.10 61.85 20.38 62.35C18.94 63.43 17.64 64.15 16.56 64.22C17.06 65.38 17.64 67.46 17.86 68.33C18.86 67.90 20.66 67.54 31.25 66.46C31.46 67.18 31.75 67.82 31.97 68.47L29.02 68.47L29.02 74.95C29.02 75.31 29.02 75.67 29.02 76.03L23.33 76.03L23.33 69.62L19.01 69.62L19.01 79.99L27.94 79.99C26.86 81.94 24.70 83.74 20.45 85.03C21.38 85.82 22.90 87.70 23.47 88.85C32.47 85.68 33.77 80.57 33.77 75.10L33.77 68.47L32.83 68.47L35.64 67.39C34.92 65.52 33.41 62.14 32.11 59.62ZM52.92 82.08L52.92 69.62L48.38 69.62L48.38 76.03L42.62 76.03L42.62 68.47L37.80 68.47L37.80 88.20L42.62 88.20L42.62 79.99L48.38 79.99L48.38 82.08ZM45.07 43.78L45.07 39.53L59.62 39.53L59.62 43.78ZM59.62 30.74L59.62 35.21L45.07 35.21L45.07 30.74ZM66.02 25.99L38.74 25.99L38.74 48.46L43.20 48.46C41.62 51.26 39.10 53.93 38.38 54.50C37.58 55.22 36.86 55.66 36.07 55.80C36.58 56.95 37.15 59.04 37.44 59.98C38.09 59.62 39.24 59.40 43.49 59.04C41.83 60.70 40.39 61.85 39.74 62.35C38.23 63.58 37.01 64.22 35.93 64.44C36.43 65.45 37.01 67.61 37.15 68.47C38.23 67.97 40.03 67.61 50.62 66.46C50.98 67.39 51.34 68.18 51.55 68.83L55.01 67.46C54.29 65.45 52.70 62.06 51.26 59.62L47.95 60.77C48.38 61.49 48.82 62.42 49.25 63.36L43.34 63.86C46.80 61.20 50.33 57.89 53.50 54.50L49.97 52.06C49.03 53.35 47.95 54.50 46.87 55.66L42.34 55.87C44.06 54.14 45.94 52.06 47.52 49.90L44.78 48.46L59.62 48.46L59.62 81.14C59.62 82.15 59.33 82.44 58.32 82.51C57.46 82.51 54.43 82.51 51.55 82.44C52.42 84.17 53.28 87.19 53.50 88.99C58.10 88.99 61.20 88.85 63.36 87.70C65.45 86.62 66.02 84.67 66.02 81.22Z"/></svg>
