<svg xmlns="http://www.w3.org/2000/svg" xmlns:xlink="http://www.w3.org/1999/xlink" width="72.00000000000001" height="106.56000000000002"><path fill="red" stroke="red" d="M15.05 49.68L21.17 49.68L21.17 41.26C24.05 43.56 27.36 46.44 28.87 48.02L32.11 43.42C30.38 42.19 24.26 38.02 21.17 36.07L21.17 35.57L32.47 35.57L32.47 30.02L21.17 30.02L21.17 23.40L15.05 23.40L15.05 30.02L3.74 30.02L3.74 35.57L13.25 35.57C10.37 39.46 6.41 43.13 2.66 45.07C3.53 46.51 4.61 48.82 5.11 50.47C8.78 48.38 12.24 44.86 15.05 40.97ZM6.19 56.88L30.24 56.88L30.24 51.48L6.19 51.48ZM7.49 68.47C6.48 72.94 4.82 77.40 2.30 80.42C3.60 81.00 6.05 82.22 7.13 82.94C9.65 79.63 11.74 74.59 12.89 69.48ZM33.19 66.38L33.19 60.84L2.95 60.84L2.95 66.38L15.55 66.38L15.55 88.85L21.60 88.85L21.60 66.38ZM52.78 46.15L59.26 46.15L59.26 51.70L52.78 51.70ZM52.78 35.35L59.26 35.35L59.26 40.75L52.78 40.75ZM69.12 77.47C66.67 75.67 62.86 73.22 58.97 70.85C61.20 68.47 63.86 65.45 66.31 62.71L61.85 58.90C60.19 61.78 57.10 65.59 54.72 68.18L52.78 67.10L52.78 57.17L65.02 57.17L65.02 46.15L68.98 46.15L68.98 40.75L65.02 40.75L65.02 29.88L52.78 29.88L52.78 23.11L46.73 23.11L46.73 29.88L35.86 29.88L35.86 35.35L46.73 35.35L46.73 40.75L33.12 40.75L33.12 46.15L46.73 46.15L46.73 51.70L34.92 51.70L34.92 57.17L46.73 57.17L46.73 67.25C41.18 70.85 35.50 74.38 31.54 76.54C30.67 73.94 29.16 70.63 27.65 68.04L22.82 69.77C24.62 73.15 26.35 77.69 27.00 80.57L31.97 78.41L34.27 82.15C38.02 79.70 42.41 76.68 46.73 73.66L46.73 82.44C46.73 83.38 46.44 83.66 45.65 83.66C45.00 83.66 42.77 83.66 40.32 83.59C41.11 85.18 41.90 87.62 42.05 89.06C46.08 89.14 48.67 88.92 50.47 87.98C52.20 87.05 52.78 85.46 52.78 82.44L52.78 73.51C57.67 76.68 62.93 80.14 65.88 82.44ZM45.00 65.23C43.27 63.43 39.82 60.70 37.15 58.75L33.26 62.21C36.00 64.30 39.31 67.18 40.97 69.12Z"/></svg>
