<svg xmlns="http://www.w3.org/2000/svg" xmlns:xlink="http://www.w3.org/1999/xlink" width="72.00000000000001" height="106.56000000000002"><path fill="red" stroke="red" d="M32.47 23.83C25.49 26.06 13.75 27.65 3.89 28.37C4.39 29.66 4.90 31.75 5.04 33.26C15.12 32.69 27.14 31.18 35.14 28.73ZM30.74 42.41C32.33 39.96 34.20 36.36 35.93 32.83L31.32 31.03C30.31 33.98 28.37 38.16 26.78 40.75ZM12.60 41.11C12.10 38.95 10.87 35.86 9.50 33.55L5.04 35.35C6.26 37.73 7.56 41.11 7.92 43.20ZM17.21 63.58C17.14 65.38 16.99 67.10 16.78 68.62L3.67 68.62L3.67 73.66L15.62 73.66C13.97 78.84 10.37 82.22 2.52 84.46C3.74 85.54 5.33 87.77 5.90 89.21C12.89 87.05 16.99 83.88 19.44 79.56C24.05 82.44 29.02 86.11 31.54 88.70L35.42 84.60C32.40 81.65 26.35 77.76 21.46 74.88L21.67 73.66L35.64 73.66L35.64 68.62L22.61 68.62C22.82 67.03 22.97 65.30 23.04 63.58ZM25.63 53.93C26.50 55.08 27.29 56.38 28.08 57.74L15.48 58.75C20.81 55.37 26.06 51.26 31.10 46.44L27.00 43.27C25.06 45.29 22.90 47.30 20.88 49.10L13.25 49.25C15.70 47.30 18.22 44.86 20.38 42.41L18.94 41.40L23.54 39.46C23.11 37.37 21.82 34.27 20.66 32.04L16.20 33.77C17.35 36.22 18.43 39.24 18.79 41.26L16.20 39.53C13.46 43.27 9.50 46.66 8.35 47.52C7.20 48.46 6.12 49.10 5.18 49.32C5.69 50.76 6.41 53.57 6.62 54.72C7.56 54.36 8.86 54.07 15.05 53.78C12.89 55.30 11.16 56.52 10.15 57.10C7.85 58.54 6.12 59.54 4.54 59.76C5.04 61.27 5.69 64.08 5.90 65.23C7.56 64.37 10.01 64.15 30.38 62.06C31.03 63.43 31.54 64.58 31.90 65.66L36.79 63.50C35.64 60.26 32.98 55.51 30.24 51.98ZM45.43 71.35L53.06 71.35L53.06 79.85L45.43 79.85ZM53.06 51.48L45.43 51.48L45.43 43.42L53.06 43.42ZM53.06 65.66L45.43 65.66L45.43 57.17L53.06 57.17ZM68.90 79.85L59.04 79.85L59.04 71.35L67.03 71.35L67.03 65.66L59.04 65.66L59.04 57.17L67.03 57.17L67.03 51.48L59.04 51.48L59.04 43.42L68.04 43.42L68.04 37.37L59.04 37.37L62.42 36.14C61.34 33.19 59.18 28.58 57.24 25.06L51.62 26.86C53.42 30.02 55.30 34.42 56.38 37.37L45.72 37.37C47.38 33.26 48.67 28.94 49.82 24.62L43.56 23.11C41.11 33.19 37.08 43.20 31.68 49.54C33.05 50.76 35.42 53.50 36.29 54.79C37.37 53.42 38.38 51.98 39.38 50.33L39.38 89.14L45.43 89.14L45.43 85.90L68.90 85.90Z"/></svg>
