<svg xmlns="http://www.w3.org/2000/svg" xmlns:xlink="http://www.w3.org/1999/xlink" width="72.00000000000001" height="106.56000000000002"><path fill="red" stroke="red" d="M11.66 40.61L32.47 40.61L32.47 54.79L39.02 54.79L39.02 40.61L60.12 40.61L60.12 51.26L66.82 51.26L66.82 35.50L39.02 35.50L39.02 31.10L63.36 31.10L63.36 26.06L8.42 26.06L8.42 31.10L32.47 31.10L32.47 35.50L5.33 35.50L5.33 51.26L11.66 51.26ZM59.26 53.35C55.37 52.06 48.02 50.47 42.70 49.90L41.26 53.78C46.80 54.58 54.07 56.30 57.96 57.67ZM55.15 41.76C51.84 42.91 46.08 45.00 42.19 45.79L44.42 49.10C48.38 48.38 54.00 47.02 57.96 45.36ZM13.90 57.67C18.58 56.74 23.98 55.51 29.38 54.36L29.16 50.40C22.82 51.34 16.70 52.20 12.17 52.70ZM14.18 45.58C18.65 46.51 24.41 48.24 27.43 49.46L29.23 45.65C26.14 44.42 20.38 42.91 16.06 42.19ZM49.32 65.88C45.79 69.77 41.26 72.94 35.86 75.46C30.31 72.86 25.56 69.70 21.96 65.88ZM67.46 65.88L67.46 60.34L40.39 60.34C39.67 58.61 38.59 56.45 37.51 54.86L31.03 56.66C31.68 57.82 32.33 59.04 32.83 60.34L4.61 60.34L4.61 65.88L14.47 65.88C18.29 70.92 23.04 74.95 28.66 78.26C21.24 80.86 12.38 82.44 2.66 83.45C3.82 85.03 4.97 87.41 5.54 89.14C17.06 87.77 27.29 85.46 35.78 81.86C44.28 85.61 54.36 88.06 65.45 89.21C66.24 87.48 67.82 84.89 69.12 83.45C59.54 82.58 50.76 80.93 43.13 78.34C48.82 75.02 53.57 70.99 57.17 65.88Z"/></svg>
