<svg xmlns="http://www.w3.org/2000/svg" xmlns:xlink="http://www.w3.org/1999/xlink" width="72.00000000000001" height="106.56000000000002"><path fill="red" stroke="red" d="M11.30 37.80L32.62 37.80L32.62 57.31L39.17 57.31L39.17 37.80L60.55 37.80L60.55 48.38L66.74 48.38L66.74 33.34L39.17 33.34L39.17 30.10L62.14 30.10L62.14 25.13L9.79 25.13L9.79 30.10L32.62 30.10L32.62 33.34L5.33 33.34L5.33 48.38L11.30 48.38ZM13.10 59.11C18.14 57.24 24.26 54.79 30.24 52.42L29.38 47.88C22.54 50.18 15.55 52.42 10.80 53.78ZM13.46 42.48C18.07 43.85 24.19 46.30 27.36 47.81L29.81 43.63C26.57 42.19 20.38 39.96 15.91 38.74ZM59.83 60.41L12.17 60.41L12.17 65.38L59.83 65.38ZM41.62 52.06C47.45 53.93 55.30 56.88 59.33 58.82L61.49 54.29C57.31 52.27 49.39 49.61 43.70 48.02ZM56.02 38.88C52.27 40.61 45.72 43.13 41.33 44.21L43.85 47.95C48.31 46.87 54.58 45.07 59.11 43.06ZM21.74 82.01C24.62 79.85 27.50 77.33 30.24 74.74L47.45 74.74L44.28 76.18C46.22 77.54 48.31 79.27 50.33 81.00ZM68.11 69.55L3.96 69.55L3.96 74.74L21.24 74.74C18.58 77.26 15.91 79.34 14.83 79.99C13.25 81.22 11.88 82.01 10.66 82.22C11.45 83.95 12.38 87.19 12.74 88.56C15.41 87.62 19.30 87.55 55.66 85.90C57.02 87.26 58.18 88.49 59.04 89.57L65.09 86.69C61.92 83.30 56.16 78.41 51.19 74.74L68.11 74.74Z"/></svg>
