<svg xmlns="http://www.w3.org/2000/svg" xmlns:xlink="http://www.w3.org/1999/xlink" width="72.00000000000001" height="106.56000000000002"><path fill="red" stroke="red" d="M11.66 38.81L32.47 38.81L32.47 54.50L39.02 54.50L39.02 38.81L60.12 38.81L60.12 49.97L66.82 49.97L66.82 34.27L39.02 34.27L39.02 30.46L63.36 30.46L63.36 25.78L8.42 25.78L8.42 30.46L32.47 30.46L32.47 34.27L5.33 34.27L5.33 49.97L11.66 49.97ZM59.33 50.76C55.37 49.39 48.10 47.81 42.70 47.30L41.26 51.12C46.80 51.98 54.14 53.71 57.96 55.08ZM55.22 39.10C51.84 40.32 46.15 42.34 42.26 43.27L44.50 46.51C48.38 45.72 54.00 44.35 58.03 42.77ZM13.97 55.01C18.65 54.14 23.98 52.99 29.45 51.70L29.23 47.74C22.82 48.67 16.70 49.61 12.17 50.18ZM14.18 42.98C18.65 43.92 24.41 45.58 27.50 46.87L29.30 43.06C26.21 41.76 20.45 40.32 16.13 39.53ZM18.07 74.02L18.07 69.84L32.18 69.84L32.18 74.02ZM32.18 61.49L32.18 65.59L18.07 65.59L18.07 61.49ZM53.93 65.59L38.59 65.59L38.59 61.49L53.93 61.49ZM38.59 74.02L38.59 69.84L53.93 69.84L53.93 74.02ZM43.92 83.02C39.46 83.02 38.59 82.51 38.59 79.99L38.59 78.70L60.48 78.70L60.48 56.81L11.66 56.81L11.66 82.15L18.07 82.15L18.07 78.70L32.18 78.70L32.18 80.06C32.18 86.54 34.63 88.27 43.49 88.27L59.26 88.27C66.53 88.27 68.40 85.97 69.26 77.33C67.54 76.97 65.02 76.18 63.65 75.17C63.22 81.86 62.50 83.02 58.82 83.02Z"/></svg>
