<svg xmlns="http://www.w3.org/2000/svg" xmlns:xlink="http://www.w3.org/1999/xlink" width="72.00000000000001" height="106.56000000000002"><path fill="red" stroke="red" d="M32.76 31.90L32.76 35.71L14.69 35.71C15.91 34.49 16.99 33.26 17.93 31.90ZM67.10 35.71L39.53 35.71L39.53 31.90L61.92 31.90L61.92 27.43L39.53 27.43L39.53 23.11L32.76 23.11L32.76 27.43L20.66 27.43C21.17 26.42 21.67 25.49 22.18 24.41L16.06 23.40C14.62 26.71 12.02 30.60 8.28 33.62C9.50 33.98 10.94 34.85 12.24 35.71L4.90 35.71L4.90 40.39L67.10 40.39ZM18.65 47.74L54.36 47.74L54.36 52.20L18.65 52.20ZM61.20 56.59L61.20 43.42L12.17 43.42L12.17 56.59ZM25.56 61.49L5.40 61.49L5.40 66.02L25.56 66.02C25.56 67.18 25.49 68.40 25.42 69.70L6.98 69.70L6.98 74.02L24.91 74.02C24.77 75.02 24.55 75.96 24.26 76.97C16.56 77.83 8.93 78.62 3.60 79.06L4.32 83.88C9.43 83.30 16.06 82.51 22.75 81.65C22.03 83.38 21.10 85.03 20.02 86.47C21.46 87.12 24.41 88.99 25.63 90.07C30.96 82.87 32.11 72.43 32.11 65.09L32.11 57.67L25.56 57.67ZM68.69 78.12L47.09 78.12L47.09 74.16L65.23 74.16L65.23 69.77L47.09 69.77L47.09 65.95L66.74 65.95L66.74 61.49L47.09 61.49L47.09 57.89L40.46 57.89L40.46 89.28L47.09 89.28L47.09 82.87L68.69 82.87Z"/></svg>
