<svg xmlns="http://www.w3.org/2000/svg" xmlns:xlink="http://www.w3.org/1999/xlink" width="72.00000000000001" height="106.56000000000002"><path fill="red" stroke="red" d="M60.77 49.03L44.93 49.03L44.93 43.27L60.77 43.27ZM60.77 59.76L44.93 59.76L44.93 53.86L60.77 53.86ZM60.77 70.42L44.93 70.42L44.93 64.51L60.77 64.51ZM38.95 38.16L38.95 75.60L66.96 75.60L66.96 38.16L54.00 38.16C54.58 36.29 55.15 34.13 55.80 32.04L68.62 32.04L68.62 26.35L36.36 26.35L36.36 32.04L49.54 32.04C49.25 34.06 48.82 36.29 48.38 38.16ZM29.81 55.80C28.44 61.70 26.28 66.67 23.40 70.85L23.40 50.76L36.14 50.76L36.14 44.86L23.76 44.86L23.76 37.37L34.13 37.37L34.13 31.82L23.76 31.82L23.76 23.04L17.93 23.04L17.93 44.86L13.18 44.86L13.18 29.38L7.85 29.38L7.85 44.86L2.88 44.86L2.88 50.76L17.28 50.76L17.28 72.43L22.18 72.43C17.93 77.83 12.02 81.72 4.10 84.24C5.47 85.54 7.06 87.84 7.70 89.50C23.40 83.74 31.90 73.73 35.78 57.10ZM9.14 54.36C7.92 59.62 5.62 64.80 2.74 68.47C4.18 69.12 6.55 70.70 7.70 71.64C10.66 67.68 13.32 61.56 14.90 55.66ZM46.30 76.18C43.06 78.98 37.15 82.58 32.69 84.67C33.62 86.04 34.92 88.27 35.57 89.64C40.32 87.34 46.37 83.74 50.62 80.35ZM54.79 80.06C58.54 82.58 63.50 86.47 65.81 88.99L69.70 84.46C67.18 81.86 62.14 78.26 58.39 75.96Z"/></svg>
