<svg xmlns="http://www.w3.org/2000/svg" xmlns:xlink="http://www.w3.org/1999/xlink" width="72.00000000000001" height="106.56000000000002"><path fill="red" stroke="red" d="M6.91 84.67C8.28 80.42 9.29 73.44 9.94 68.47L5.83 67.18C5.33 72.14 4.10 78.98 2.66 83.23ZM11.30 68.54C11.95 72.72 12.17 77.98 11.95 81.50L15.41 81.07C15.55 77.62 15.26 72.29 14.54 68.18ZM16.27 67.90C17.35 71.42 18.36 76.18 18.50 79.20L21.89 78.48C21.60 75.46 20.66 70.85 19.44 67.25ZM27.65 74.52C27.14 72.14 25.70 68.47 24.12 65.81L21.24 66.82C22.61 69.55 24.05 73.22 24.55 75.60ZM12.24 52.70L18.94 52.70L18.94 58.75L12.24 58.75ZM18.94 31.39L18.94 36.79L12.24 36.79L12.24 31.39ZM18.94 47.52L12.24 47.52L12.24 42.05L18.94 42.05ZM68.11 48.53L68.11 42.34L53.64 42.34C53.93 36.14 54.00 29.66 54.00 23.18L47.38 23.18C47.38 29.74 47.38 36.14 47.09 42.34L34.49 42.34L34.49 48.53L46.73 48.53C45.58 63.22 42.26 76.10 32.54 84.24C33.48 80.78 33.98 74.02 34.49 61.20C34.56 60.41 34.56 58.75 34.56 58.75L24.55 58.75L24.55 52.70L32.40 52.70L32.40 47.52L24.55 47.52L24.55 42.05L32.40 42.05L32.40 36.79L24.55 36.79L24.55 31.39L33.84 31.39L33.84 25.92L6.48 25.92L6.48 64.08L28.58 64.08C28.01 76.82 27.36 81.72 26.42 82.94C25.92 83.66 25.34 83.81 24.26 83.81C23.26 83.81 20.95 83.74 18.43 83.52C19.30 85.03 19.94 87.41 20.02 89.06C22.82 89.14 25.56 89.21 27.14 88.92C29.02 88.70 30.24 88.20 31.39 86.69C31.82 86.18 32.18 85.39 32.54 84.31C34.27 85.46 36.36 87.55 37.44 89.06C45.36 82.22 49.46 72.50 51.55 61.42C53.93 73.51 57.89 83.23 65.02 89.35C66.10 87.55 68.26 84.96 69.84 83.66C61.27 77.11 57.38 64.08 55.51 48.53Z"/></svg>
