<svg xmlns="http://www.w3.org/2000/svg" xmlns:xlink="http://www.w3.org/1999/xlink" width="72.00000000000001" height="106.56000000000002"><path fill="red" stroke="red" d="M10.51 54.72C9.29 58.90 6.55 62.78 2.52 64.87L7.92 68.40C12.53 65.88 14.83 61.49 16.34 56.81ZM50.90 73.58L20.88 73.58L20.88 69.70L50.90 69.70ZM20.88 82.08L20.88 78.05L50.90 78.05L50.90 82.08ZM47.23 62.78C46.51 60.62 44.78 57.46 42.98 55.30L37.73 57.17C39.38 59.54 40.97 62.71 41.47 64.87L25.42 64.87L30.96 63.22C30.67 61.06 29.52 57.82 28.15 55.51L22.75 57.10C23.90 59.54 24.98 62.71 25.20 64.87L14.33 64.87L14.33 89.14L20.88 89.14L20.88 86.90L50.90 86.90L50.90 88.92L57.74 88.92L57.74 64.87L41.69 64.87ZM53.71 43.20L38.74 43.20L38.74 39.89L53.71 39.89ZM53.71 50.69L38.74 50.69L38.74 47.30L53.71 47.30ZM18.14 47.30L32.76 47.30L32.76 50.69L18.14 50.69ZM32.76 39.89L32.76 43.20L18.14 43.20L18.14 39.89ZM40.18 31.82C39.10 33.19 37.87 34.49 36.79 35.42L20.09 35.42C21.31 34.27 22.39 33.05 23.47 31.82ZM60.12 55.08L60.12 35.42L44.64 35.42C46.15 33.70 47.66 31.68 48.74 29.52L44.35 27.07L43.13 27.43L27.07 27.43C27.86 26.35 28.66 25.20 29.38 24.12L22.75 22.82C19.08 28.80 12.24 35.78 2.59 40.90C3.96 41.90 5.83 44.14 6.62 45.58C8.50 44.50 10.30 43.34 11.95 42.19L11.95 55.08L56.52 55.08L53.21 58.25C57.67 61.06 62.50 65.30 64.80 68.33L69.48 63.43C67.32 60.77 63.36 57.60 59.26 55.08Z"/></svg>
