<svg xmlns="http://www.w3.org/2000/svg" xmlns:xlink="http://www.w3.org/1999/xlink" width="72.00000000000001" height="106.56000000000002"><path fill="red" stroke="red" d="M17.28 35.86C15.05 41.98 10.22 47.02 4.39 50.26C5.69 51.12 7.92 53.14 8.86 54.14C12.02 52.20 15.05 49.61 17.50 46.51C19.80 48.02 22.03 49.82 23.33 51.05L26.93 46.87C25.49 45.50 22.90 43.70 20.52 42.19C21.46 40.54 22.32 38.88 23.04 37.08ZM45.43 66.46C43.63 69.05 41.11 71.42 38.38 73.37C34.27 71.50 29.95 69.62 25.78 67.90C26.42 67.39 27.07 66.96 27.65 66.46ZM50.04 61.56L48.89 61.78L33.05 61.78C34.34 60.48 35.57 59.26 36.72 57.96L30.60 56.66C28.15 59.54 24.62 62.64 20.23 65.52C18.07 64.66 16.06 63.86 14.04 63.07L10.44 66.74C11.95 67.32 13.39 67.97 14.98 68.62C12.67 69.84 10.08 71.06 7.42 72.07C8.78 72.94 10.51 74.81 11.38 76.10C14.83 74.59 17.93 72.86 20.88 71.14C24.84 72.86 28.94 74.81 32.98 76.61C25.42 80.42 16.13 82.66 6.48 83.74C7.56 85.18 8.78 87.62 9.29 89.28C20.23 87.62 30.74 84.74 39.10 79.56C45.86 82.87 51.91 86.04 56.16 88.70L60.12 84.24C55.94 81.86 50.33 78.98 44.14 76.03C48.17 72.72 51.55 68.62 53.93 63.65ZM39.10 35.50L67.10 35.50L67.10 29.66L39.10 29.66L39.10 23.11L32.69 23.11L32.69 29.66L5.11 29.66L5.11 35.50L32.69 35.50L32.69 45.94C26.28 51.62 13.90 56.16 2.52 58.03C3.74 59.26 5.40 61.56 6.26 63.14C16.92 60.77 28.37 56.02 35.64 49.82C43.20 56.02 54.94 60.98 65.52 63.43C66.38 61.78 68.18 59.40 69.48 58.10C58.25 56.16 45.65 51.55 39.10 46.01ZM51.84 35.86C50.26 40.25 47.02 44.14 43.13 46.80C44.35 47.66 46.58 49.68 47.52 50.62C49.25 49.32 50.98 47.66 52.49 45.86C56.52 48.31 61.06 51.34 63.50 53.42L67.03 48.89C64.44 46.87 59.54 43.85 55.37 41.62C56.23 40.25 56.95 38.74 57.53 37.22Z"/></svg>
