<svg xmlns="http://www.w3.org/2000/svg" xmlns:xlink="http://www.w3.org/1999/xlink" width="72.00000000000001" height="106.56000000000002"><path fill="red" stroke="red" d="M12.10 33.84L59.62 33.84L59.62 41.04L66.17 41.04L66.17 29.45L54.29 29.45C55.51 28.08 56.81 26.42 58.10 24.70L51.05 23.40C50.11 25.13 48.53 27.58 47.09 29.45L39.24 29.45L39.24 23.04L32.40 23.04L32.40 29.45L25.06 29.45C24.12 27.58 22.54 25.20 21.10 23.47L14.90 24.77C15.91 26.21 17.06 27.94 17.86 29.45L5.83 29.45L5.83 41.04L12.10 41.04ZM23.40 39.82L48.24 39.82L48.24 43.06L23.40 43.06ZM54.58 46.22L54.58 36.65L17.28 36.65L17.28 46.22ZM46.15 52.70C45.36 54.14 43.63 56.52 42.34 58.18L45.50 59.69C46.94 58.32 48.74 56.52 50.54 54.43ZM25.27 59.69L28.58 57.82C27.94 56.45 26.35 54.29 24.91 52.85L21.17 54.79C22.39 56.23 23.76 58.25 24.48 59.69L17.64 59.69L17.64 52.34L32.40 52.34L32.40 59.69ZM54.65 59.69L38.95 59.69L38.95 52.34L54.65 52.34ZM67.61 73.01L38.95 73.01L38.95 69.91L63.43 69.91L63.43 66.02L38.95 66.02L38.95 63.14L61.13 63.14L61.13 48.89L11.52 48.89L11.52 63.14L32.40 63.14L32.40 66.02L9.58 66.02L9.58 69.91L32.40 69.91L32.40 73.01L4.46 73.01L4.46 77.18L67.61 77.18ZM10.22 89.21C13.75 87.12 17.14 83.52 19.30 80.06L13.10 78.19C11.16 81.58 7.63 84.82 4.32 86.62ZM24.62 80.28C25.27 82.94 25.78 86.54 25.99 88.70L32.33 88.06C32.11 85.90 31.39 82.44 30.67 79.85ZM39.10 80.35C40.32 82.87 41.47 86.33 41.90 88.49L48.46 87.48C48.02 85.32 46.58 81.94 45.29 79.49ZM52.70 80.21C55.80 82.94 59.62 86.83 61.27 89.28L67.97 87.41C65.95 84.67 62.14 81.00 58.97 78.34Z"/></svg>
