<svg xmlns="http://www.w3.org/2000/svg" xmlns:xlink="http://www.w3.org/1999/xlink" width="72.00000000000001" height="106.56000000000002"><path fill="red" stroke="red" d="M54.22 81.29C52.27 81.29 51.91 80.78 51.91 77.90L51.91 38.81L31.03 38.81C31.32 33.62 31.32 28.44 31.39 23.33L23.98 23.33C23.98 28.44 23.98 33.62 23.76 38.81L5.26 38.81L5.26 45.43L23.33 45.43C22.10 60.98 17.78 75.38 3.24 84.10C5.11 85.39 7.42 87.62 8.42 89.42C24.34 79.27 29.16 62.86 30.60 45.43L44.93 45.43L44.93 77.90C44.93 85.39 46.66 87.70 53.14 87.70L60.77 87.70C66.82 87.70 68.40 83.88 69.05 72.29C67.25 71.86 64.37 70.63 62.78 69.34C62.50 79.13 62.21 81.29 60.12 81.29Z"/></svg>
