<svg xmlns="http://www.w3.org/2000/svg" xmlns:xlink="http://www.w3.org/1999/xlink" width="72.00000000000001" height="106.56000000000002"><path fill="red" stroke="red" d="M48.60 57.17C48.17 63.50 47.45 71.71 46.58 78.91L28.80 78.91C30.02 72.72 31.39 65.09 32.69 57.17ZM53.64 78.91C54.72 69.62 55.66 58.82 56.16 50.76L50.98 50.33L49.68 50.62L33.84 50.62C34.56 45.79 35.28 41.04 35.93 36.50L63.00 36.50L63.00 29.95L8.71 29.95L8.71 36.50L28.58 36.50C27.94 41.04 27.29 45.79 26.57 50.62L12.67 50.62L12.67 57.17L25.49 57.17C24.12 65.02 22.75 72.65 21.46 78.91L4.32 78.91L4.32 85.54L67.90 85.54L67.90 78.91Z"/></svg>
