<svg xmlns="http://www.w3.org/2000/svg" xmlns:xlink="http://www.w3.org/1999/xlink" width="72.00000000000001" height="106.56000000000002"><path fill="red" stroke="red" d="M68.11 43.42L68.11 36.86L43.34 36.86C41.90 33.12 39.17 27.43 36.94 23.18L30.10 25.20C31.82 28.73 33.77 33.26 35.14 36.86L4.10 36.86L4.10 43.42L13.90 43.42L13.90 72.07C13.90 82.08 18.14 85.10 28.58 85.10L52.70 85.10C57.46 85.10 62.57 84.96 64.66 84.46C64.30 82.73 63.94 79.49 63.72 77.54C61.20 78.05 56.38 78.26 52.78 78.26L27.94 78.26C22.68 78.26 21.10 76.61 21.10 72.36L21.10 43.42Z"/></svg>
