<svg xmlns="http://www.w3.org/2000/svg" xmlns:xlink="http://www.w3.org/1999/xlink" width="72.00000000000001" height="106.56000000000002"><path fill="red" stroke="red" d="M19.51 60.41C19.51 68.26 18.07 77.47 5.11 84.31C6.91 85.46 9.50 87.77 10.66 89.35C24.91 81.43 26.50 70.06 26.50 60.55L26.50 51.84L19.51 51.84ZM46.22 89.35L53.28 89.35L53.28 51.77L46.22 51.77ZM35.78 22.46C29.23 33.34 15.62 43.70 2.09 48.02C3.67 49.68 5.33 52.49 6.19 54.43C17.21 50.04 28.30 42.12 36.00 33.19C43.42 42.12 54.14 49.68 65.59 53.42C66.60 51.55 68.76 48.67 70.34 47.16C58.32 43.92 46.37 36.43 39.96 28.08C40.39 27.50 40.82 26.93 41.18 26.28Z"/></svg>
