<svg xmlns="http://www.w3.org/2000/svg" xmlns:xlink="http://www.w3.org/1999/xlink" width="72.00000000000001" height="106.56000000000002"><path fill="red" stroke="red" d="M52.13 80.42L52.13 62.21L66.60 62.21L66.60 56.02L34.99 56.02C36.72 52.20 38.16 48.10 39.53 43.70L68.04 43.70L68.04 37.37L41.26 37.37C42.26 33.26 43.13 29.02 43.85 24.70L37.30 23.76C36.65 28.51 35.71 33.05 34.63 37.37L23.26 37.37L23.26 43.70L32.83 43.70C29.59 54.00 25.06 62.64 18.65 68.76L18.65 41.90C21.38 36.43 23.76 30.67 25.70 24.84L19.37 23.11C15.77 35.06 9.58 46.58 2.38 54.00C3.67 55.37 5.76 58.54 6.55 60.05C8.50 57.89 10.44 55.44 12.24 52.78L12.24 89.06L18.65 89.06L18.65 69.70C20.16 70.99 22.18 73.15 23.11 74.30C27.07 70.20 30.46 65.23 33.34 59.62L33.34 62.21L45.50 62.21L45.50 80.42L26.35 80.42L26.35 86.76L68.90 86.76L68.90 80.42Z"/></svg>
