<svg xmlns="http://www.w3.org/2000/svg" xmlns:xlink="http://www.w3.org/1999/xlink" width="72.00000000000001" height="106.56000000000002"><path fill="red" stroke="red" d="M67.97 52.85C65.81 48.10 60.98 40.75 56.88 35.28L51.26 37.94C52.92 40.10 54.58 42.62 56.16 45.22L35.78 46.30C38.81 42.41 42.48 37.15 45.22 33.12L67.46 33.12L67.46 27.07L25.06 27.07L25.06 33.12L37.37 33.12C34.56 37.30 29.88 43.56 28.30 45.14C26.93 46.51 24.98 47.09 23.47 47.45C24.19 48.89 25.42 52.27 25.85 53.93C28.08 52.99 31.61 52.70 59.40 50.83C60.48 52.70 61.34 54.43 61.92 55.94ZM18.14 23.26C14.62 33.77 8.71 44.21 2.30 50.98C3.53 52.63 5.47 56.23 6.05 57.74C7.78 55.94 9.36 53.78 11.02 51.55L11.02 89.06L17.64 89.06L17.64 40.61C20.23 35.64 22.61 30.38 24.41 25.20ZM49.18 80.64L49.18 69.12L65.66 69.12L65.66 63.07L49.18 63.07L49.18 54.22L42.41 54.22L42.41 63.07L26.35 63.07L26.35 69.12L42.41 69.12L42.41 80.64L22.18 80.64L22.18 86.69L68.90 86.69L68.90 80.64Z"/></svg>
