<svg xmlns="http://www.w3.org/2000/svg" xmlns:xlink="http://www.w3.org/1999/xlink" width="72.00000000000001" height="106.56000000000002"><path fill="red" stroke="red" d="M19.44 23.26C15.41 33.84 8.64 44.21 1.58 50.83C2.66 52.49 4.61 56.09 5.26 57.60C7.63 55.15 10.01 52.34 12.31 49.25L12.31 88.99L18.65 88.99L18.65 39.60C21.31 34.99 23.76 30.10 25.70 25.27ZM32.83 80.06L32.83 66.24L61.34 66.24L61.34 80.06ZM35.21 32.54L58.54 32.54L58.54 45.65L35.21 45.65ZM47.66 60.19C48.53 57.60 49.46 54.58 50.40 51.62L65.23 51.62L65.23 26.50L28.87 26.50L28.87 51.62L42.91 51.62C42.48 54.50 41.83 57.60 41.18 60.19L26.42 60.19L26.42 89.21L32.83 89.21L32.83 86.18L61.34 86.18L61.34 88.78L68.04 88.78L68.04 60.19Z"/></svg>
