<svg xmlns="http://www.w3.org/2000/svg" xmlns:xlink="http://www.w3.org/1999/xlink" width="72.00000000000001" height="106.56000000000002"><path fill="red" stroke="red" d="M36.22 48.46L56.30 48.46L56.30 52.06L36.22 52.06ZM36.22 41.33L56.30 41.33L56.30 44.86L36.22 44.86ZM30.17 56.02L62.64 56.02L62.64 37.44L31.68 37.44C32.40 36.36 33.05 35.21 33.70 34.06L67.82 34.06L67.82 29.09L36.29 29.09C37.01 27.65 37.66 26.14 38.23 24.70L32.26 23.04C29.74 29.81 25.49 36.65 20.88 41.18C22.39 42.05 24.84 44.06 25.92 45.14C27.36 43.56 28.80 41.76 30.17 39.74ZM18.43 23.40C14.54 33.91 8.14 44.42 1.37 51.12C2.45 52.70 4.39 56.30 5.04 57.89C7.13 55.66 9.22 53.14 11.23 50.40L11.23 89.06L17.57 89.06L17.57 40.46C20.30 35.57 22.75 30.38 24.70 25.27ZM69.48 63.94L69.48 58.97L21.31 58.97L21.31 63.94L32.54 63.94C29.23 68.18 24.48 72.00 19.87 74.66C21.02 75.60 23.11 77.69 23.90 78.70C26.57 76.97 29.23 74.81 31.82 72.36L37.94 72.36C34.49 77.33 29.45 81.72 24.26 84.67C25.49 85.61 27.50 87.55 28.44 88.49C34.27 84.67 40.25 78.84 44.14 72.36L50.33 72.36C47.59 77.98 43.34 82.87 38.45 86.11C39.74 86.98 41.90 88.70 42.91 89.71C48.24 85.61 53.28 79.34 56.38 72.36L61.20 72.36C60.26 79.42 59.26 82.51 58.18 83.59C57.67 84.17 57.02 84.24 56.09 84.24C55.15 84.24 52.92 84.24 50.54 84.02C51.41 85.39 51.84 87.55 51.98 89.14C54.72 89.21 57.31 89.21 58.68 89.06C60.41 88.92 61.70 88.49 62.86 87.34C64.80 85.39 66.02 80.93 67.25 70.06C67.39 69.26 67.46 67.61 67.46 67.61L36.29 67.61C37.30 66.38 38.16 65.16 39.02 63.94Z"/></svg>
