<svg xmlns="http://www.w3.org/2000/svg" xmlns:xlink="http://www.w3.org/1999/xlink" width="72.00000000000001" height="106.56000000000002"><path fill="red" stroke="red" d="M41.04 34.49L21.10 34.49L21.10 44.50L26.14 44.50L26.14 39.31L41.04 39.31L41.04 54.72L47.16 54.72L47.16 39.31L62.28 39.31L62.28 44.50L67.54 44.50L67.54 34.49L47.16 34.49L47.16 30.67L65.02 30.67L65.02 25.42L23.98 25.42L23.98 30.67L41.04 30.67ZM64.58 51.12C60.91 50.04 54.29 48.67 49.39 47.95L48.17 51.26C53.14 52.27 59.83 53.86 63.36 55.01ZM59.33 40.90C56.52 41.98 51.48 43.70 48.10 44.42L50.11 47.23C53.50 46.73 58.32 45.65 61.78 44.06ZM26.78 44.64C30.74 45.29 35.78 46.58 38.52 47.66L39.96 43.92C37.22 42.84 32.04 41.76 28.22 41.26ZM24.98 54.86C29.23 53.93 33.98 52.70 39.02 51.48L38.81 48.10C32.98 49.03 27.50 49.90 23.33 50.40ZM17.21 23.40C13.75 34.06 8.14 44.64 1.87 51.55C3.02 53.06 4.90 56.45 5.40 57.82C7.20 55.80 8.86 53.50 10.58 50.98L10.58 89.14L16.63 89.14L16.63 40.54C19.15 35.57 21.38 30.31 23.18 25.13ZM68.54 61.70L68.54 56.38L20.38 56.38L20.38 61.70L39.82 61.70C39.53 63.07 39.17 64.44 38.81 65.74L23.69 65.74L23.69 89.06L29.52 89.06L29.52 70.99L35.78 70.99L35.78 88.34L41.26 88.34L41.26 70.99L47.66 70.99L47.66 88.34L53.14 88.34L53.14 70.99L59.83 70.99L59.83 83.02C59.83 83.66 59.69 83.81 59.04 83.81C58.46 83.88 56.81 83.88 54.86 83.81C55.58 85.32 56.38 87.55 56.52 89.14C59.76 89.14 62.06 89.06 63.79 88.20C65.45 87.26 65.88 85.75 65.88 83.09L65.88 65.74L45.29 65.74L47.02 61.70Z"/></svg>
