<svg xmlns="http://www.w3.org/2000/svg" xmlns:xlink="http://www.w3.org/1999/xlink" width="72.00000000000001" height="106.56000000000002"><path fill="red" stroke="red" d="M24.62 48.46C29.38 53.71 35.78 61.06 38.74 65.45L44.21 60.84C41.04 56.66 34.34 49.68 29.66 44.57ZM55.22 80.93C53.42 80.93 53.14 80.35 53.14 77.11L53.14 26.71L16.63 26.71L16.63 47.59C16.63 59.33 15.41 74.45 2.59 84.74C4.18 85.68 6.84 88.20 7.85 89.50C21.60 78.55 23.62 60.55 23.62 47.59L23.62 33.34L46.30 33.34L46.30 77.04C46.30 85.18 48.17 87.34 54.14 87.34L61.42 87.34C67.46 87.34 68.90 82.80 69.55 70.49C67.68 69.98 64.94 68.69 63.36 67.39C63.07 78.19 62.71 80.93 60.77 80.93Z"/></svg>
