<svg xmlns="http://www.w3.org/2000/svg" xmlns:xlink="http://www.w3.org/1999/xlink" width="72.00000000000001" height="106.56000000000002"><path fill="red" stroke="red" d="M56.09 68.69C52.92 64.01 47.88 58.32 42.26 52.56C47.30 45.58 51.84 37.94 55.51 29.74L48.89 27.72C45.79 34.85 41.98 41.62 37.51 47.74C31.46 41.76 24.98 35.78 19.08 30.82L14.69 35.21C20.74 40.54 27.29 46.80 33.41 53.06C27.43 60.34 20.59 66.53 13.03 71.21C14.69 72.29 17.78 74.52 18.94 75.82C25.70 70.99 32.18 64.94 37.94 57.96C43.27 63.79 47.95 69.48 50.98 74.02ZM59.11 37.94L59.11 79.27L12.89 79.27L12.89 37.94L6.19 37.94L6.19 85.68L59.11 85.68L59.11 88.13L65.95 88.13L65.95 37.94Z"/></svg>
