<svg xmlns="http://www.w3.org/2000/svg" xmlns:xlink="http://www.w3.org/1999/xlink" width="72.00000000000001" height="106.56000000000002"><path fill="red" stroke="red" d="M32.40 24.34L32.40 30.53L44.50 30.53C47.23 37.51 51.48 44.21 56.74 49.75L15.26 49.75C20.45 43.56 24.70 35.78 27.58 27.22L20.59 25.56C17.14 36.43 10.66 46.08 2.38 51.91C4.03 53.06 6.84 55.51 8.06 56.88C10.08 55.22 12.10 53.35 13.97 51.26L13.97 56.23L27.50 56.23C25.92 67.68 22.10 78.12 5.47 83.66C7.06 85.03 9.00 87.84 9.79 89.64C28.22 82.87 32.90 70.20 34.78 56.23L51.34 56.23C50.62 73.01 49.68 79.78 48.02 81.50C47.23 82.30 46.37 82.51 45.00 82.51C43.27 82.51 39.17 82.44 34.85 82.01C36.00 83.95 36.94 86.76 37.01 88.78C41.40 88.99 45.79 89.06 48.17 88.78C50.76 88.42 52.49 87.84 54.07 85.82C56.59 83.02 57.53 74.66 58.46 52.78C58.46 52.49 58.54 51.98 58.54 51.55C60.55 53.50 62.78 55.22 65.09 56.74C66.17 54.79 68.40 51.98 69.91 50.62C60.34 45.43 52.85 35.21 49.46 24.34Z"/></svg>
