<svg xmlns="http://www.w3.org/2000/svg" xmlns:xlink="http://www.w3.org/1999/xlink" width="72.00000000000001" height="106.56000000000002"><path fill="red" stroke="red" d="M30.89 51.70L30.89 32.18L35.71 32.18L35.71 51.70ZM21.82 51.70L21.82 32.18L26.50 32.18L26.50 51.70ZM12.89 51.70L12.89 32.18L17.28 32.18L17.28 51.70ZM41.47 26.35L7.20 26.35L7.20 51.70L2.88 51.70L2.88 57.74L7.20 57.74L7.20 89.21L12.89 89.21L12.89 57.74L17.28 57.74L17.28 87.34L21.82 87.34L21.82 57.74L26.50 57.74L26.50 87.05L30.89 87.05L30.89 57.74L35.71 57.74L35.71 82.30C35.71 83.09 35.50 83.30 34.85 83.30L30.89 83.30C31.68 84.74 32.62 87.55 32.83 89.06C35.93 89.06 37.87 88.85 39.46 87.91C41.11 86.83 41.47 85.03 41.47 82.44L41.47 57.74L45.58 57.74L45.58 51.70L41.47 51.70ZM52.99 31.75L47.16 31.75L47.16 71.50L52.99 71.50ZM59.98 24.55L59.98 81.07C59.98 82.22 59.62 82.51 58.54 82.58C57.31 82.58 53.57 82.66 49.68 82.51C50.54 84.38 51.48 87.26 51.70 89.06C56.88 89.06 60.77 88.85 63.07 87.77C65.38 86.69 66.10 84.82 66.10 81.14L66.10 24.55Z"/></svg>
