<svg xmlns="http://www.w3.org/2000/svg" xmlns:xlink="http://www.w3.org/1999/xlink" width="72.00000000000001" height="106.56000000000002"><path fill="red" stroke="red" d="M8.71 45.72C9.86 43.92 10.94 41.62 11.88 39.17L20.30 39.17L20.30 45.72ZM26.64 39.17L40.39 39.17L40.39 33.12L26.64 33.12L26.64 23.54L20.30 23.54L20.30 33.12L14.04 33.12C14.69 30.82 15.34 28.37 15.91 25.99L9.65 24.70C8.28 31.54 5.90 38.66 2.74 43.42C4.32 43.99 6.98 44.93 8.35 45.72L3.38 45.72L3.38 51.84L20.30 51.84L20.30 58.25L6.48 58.25L6.48 83.45L12.46 83.45L12.46 64.22L20.30 64.22L20.30 89.14L26.64 89.14L26.64 64.22L34.99 64.22L34.99 77.04C34.99 77.76 34.78 77.98 34.06 77.98C33.34 78.05 31.18 78.05 28.58 77.98C29.45 79.56 30.24 82.01 30.38 83.66C34.13 83.74 36.86 83.66 38.74 82.66C40.61 81.65 41.04 79.92 41.04 77.18L41.04 58.25L26.64 58.25L26.64 51.84L43.20 51.84L43.20 45.72L26.64 45.72ZM53.78 29.45L47.59 29.45L47.59 69.26L53.78 69.26ZM60.26 24.12L60.26 80.71C60.26 81.86 59.90 82.22 58.75 82.22C57.53 82.30 53.64 82.30 49.61 82.15C50.54 84.10 51.48 87.19 51.77 88.99C57.17 88.99 61.20 88.85 63.50 87.70C65.88 86.54 66.74 84.67 66.74 80.64L66.74 24.12Z"/></svg>
