<svg xmlns="http://www.w3.org/2000/svg" xmlns:xlink="http://www.w3.org/1999/xlink" width="72.00000000000001" height="106.56000000000002"><path fill="red" stroke="red" d="M40.10 42.91C37.44 41.04 34.06 39.02 30.17 36.86C33.34 33.91 36.22 30.74 38.52 27.29L32.62 25.06C30.53 28.30 27.79 31.32 24.62 33.98C19.58 31.61 14.40 29.30 9.94 27.43L5.76 31.54C10.08 33.34 14.83 35.64 19.44 37.94C14.47 41.33 8.93 44.14 3.38 46.30C4.68 47.45 6.77 50.11 7.70 51.41C13.68 48.74 19.73 45.29 25.13 41.04C29.30 43.42 33.05 45.72 35.57 47.66ZM10.08 70.70C10.08 74.59 9.00 78.91 2.38 82.22C3.60 82.94 5.90 84.89 6.77 85.90C14.04 82.01 15.55 75.96 15.55 70.85L15.55 64.73L10.08 64.73ZM41.98 61.85L41.98 56.16L37.37 56.16L40.39 53.21C38.66 51.62 35.28 49.18 32.83 47.45L29.09 50.90C31.18 52.49 33.84 54.50 35.57 56.16L26.21 56.16L26.21 48.96L19.87 48.96L19.87 56.16L3.89 56.16L3.89 61.85L19.87 61.85L19.87 89.21L26.21 89.21L26.21 61.85ZM36.94 80.21C35.86 80.21 35.78 79.49 35.78 77.83L35.78 64.66L30.31 64.66L30.31 77.76C30.31 81.94 31.03 84.10 35.14 84.10L39.46 84.10C40.61 84.10 42.19 84.02 42.91 83.74C42.70 82.37 42.62 81.22 42.55 79.85C41.69 80.06 40.18 80.21 39.38 80.21ZM51.70 31.10L45.43 31.10L45.43 70.78L51.70 70.78ZM59.98 24.48L59.98 80.93C59.98 82.22 59.47 82.58 58.25 82.58C57.17 82.58 53.35 82.58 49.32 82.51C50.18 84.31 51.12 87.26 51.34 88.99C57.17 88.99 60.84 88.78 63.22 87.70C65.45 86.69 66.31 84.82 66.31 81.00L66.31 24.48Z"/></svg>
