<svg xmlns="http://www.w3.org/2000/svg" xmlns:xlink="http://www.w3.org/1999/xlink" width="72.00000000000001" height="106.56000000000002"><path fill="red" stroke="red" d="M11.74 47.95C12.96 49.75 14.11 52.27 14.47 53.93L17.78 52.42C17.28 50.76 16.13 48.31 14.69 46.66ZM27.79 53.93C28.94 52.42 30.38 50.18 31.75 48.02L28.37 46.44C27.72 48.10 26.21 50.83 25.13 52.56ZM32.47 54.50L23.83 54.50L23.83 45.65L32.47 45.65ZM10.94 45.65L19.15 45.65L19.15 54.50L10.94 54.50ZM18.58 41.40L5.98 41.40L5.98 58.68L18.58 58.68L18.58 61.63L4.97 61.63L4.97 65.81L18.58 65.81L18.58 69.62L3.38 69.62L3.38 74.02L39.31 74.02L39.31 69.62L24.26 69.62L24.26 65.81L38.30 65.81L38.30 61.63L24.26 61.63L24.26 58.68L37.66 58.68L37.66 41.40L24.26 41.40L24.26 38.45L40.32 38.45L40.32 33.98L24.26 33.98L24.26 29.95C29.52 29.38 34.34 28.66 38.38 27.72L34.49 23.33C27.29 25.06 14.54 26.21 3.96 26.71C4.61 28.01 5.26 29.95 5.40 31.25C9.58 31.10 14.04 30.89 18.58 30.46L18.58 33.98L3.24 33.98L3.24 38.45L18.58 38.45ZM7.85 88.63C9.72 85.61 11.09 81.00 12.10 77.47L7.27 75.46C6.41 78.91 4.75 83.45 2.88 86.18ZM14.47 76.75C15.05 80.21 15.62 84.74 15.77 87.62L20.52 86.76C20.30 83.88 19.66 79.56 19.01 76.10ZM22.10 76.54C23.26 79.56 24.62 83.45 25.20 85.97L29.59 84.38C29.02 82.01 27.58 78.19 26.28 75.31ZM53.28 40.18C53.42 34.85 53.50 29.23 53.50 23.62L47.74 23.62C47.74 29.23 47.74 34.85 47.59 40.18L39.74 40.18L39.74 46.22L47.38 46.22C46.66 60.41 44.64 72.72 38.38 81.43C37.37 79.27 35.42 76.32 33.55 74.16L29.66 75.96C31.54 78.34 33.41 81.65 34.27 83.81L38.02 81.79C37.22 82.87 36.36 83.88 35.42 84.74C37.01 85.68 39.02 87.62 40.03 88.99C49.39 79.20 52.13 64.01 53.06 46.22L60.84 46.22C60.34 71.35 59.76 80.28 58.39 82.22C57.74 83.16 57.17 83.38 56.09 83.38C54.86 83.38 52.13 83.38 49.25 83.09C50.18 84.74 50.83 87.19 50.90 88.92C54.00 89.06 57.02 89.06 58.90 88.78C60.98 88.49 62.28 87.84 63.58 85.90C65.66 83.02 66.17 73.01 66.67 43.13C66.67 42.26 66.74 40.18 66.74 40.18Z"/></svg>
