<svg xmlns="http://www.w3.org/2000/svg" xmlns:xlink="http://www.w3.org/1999/xlink" width="72.00000000000001" height="106.56000000000002"><path fill="red" stroke="red" d="M53.64 72.86C50.90 67.54 45.22 58.61 40.97 52.06L35.57 54.94C37.58 58.32 39.96 62.28 42.19 66.02L20.45 67.97C25.34 61.70 30.17 53.78 33.98 46.01L26.57 43.34C22.90 52.49 16.85 62.06 14.83 64.51C12.96 67.03 11.52 68.76 9.94 69.12C10.80 70.99 11.95 74.52 12.31 76.03C14.69 75.02 18.22 74.59 45.36 71.78C46.30 73.44 47.02 75.10 47.66 76.46ZM23.83 33.55C25.20 30.82 26.35 28.01 27.43 25.13L20.52 23.26C16.49 34.49 9.86 46.08 2.95 53.42C4.68 54.43 7.70 56.45 9.07 57.60C13.03 52.92 17.06 46.80 20.59 40.03L59.33 40.03C58.39 66.17 57.24 78.19 54.43 80.71C53.57 81.58 52.56 81.79 50.83 81.79C48.46 81.79 42.62 81.79 36.29 81.22C37.80 83.38 38.95 86.47 39.10 88.42C44.21 88.70 49.97 88.85 53.14 88.56C56.52 88.20 58.68 87.41 60.91 84.67C64.37 80.64 65.38 69.26 66.46 37.08C66.53 36.14 66.53 33.55 66.53 33.55Z"/></svg>
