<svg xmlns="http://www.w3.org/2000/svg" xmlns:xlink="http://www.w3.org/1999/xlink" width="72.00000000000001" height="106.56000000000002"><path fill="red" stroke="red" d="M43.42 40.82C42.34 47.45 40.82 53.64 38.88 59.18C36.07 57.60 33.19 56.02 30.31 54.43C32.26 50.26 33.98 45.65 35.42 40.82ZM22.61 34.20C23.98 31.18 25.13 28.01 26.21 24.84L19.15 23.11C15.70 34.49 9.65 45.36 2.23 52.06C3.96 53.14 6.98 55.37 8.28 56.59C12.31 52.42 16.13 46.94 19.44 40.82L28.37 40.82C27.22 44.57 25.92 48.17 24.41 51.55C22.39 50.54 20.38 49.75 18.43 48.96L14.26 54.00C16.63 54.94 19.01 56.09 21.53 57.31C17.14 65.23 11.45 71.71 4.54 76.39C6.19 77.40 8.93 79.85 10.08 81.07C16.99 75.82 22.75 68.83 27.36 60.41C30.46 61.99 33.41 63.79 36.22 65.52C32.69 72.94 28.01 79.13 21.67 83.66C23.40 84.67 26.35 87.05 27.50 88.20C33.48 83.30 38.23 76.90 41.90 69.26C44.35 71.06 46.51 72.79 48.38 74.38L52.78 68.62C50.47 66.82 47.74 64.87 44.64 62.78C47.09 56.23 49.03 48.89 50.40 40.82L58.61 40.82C57.60 67.97 56.45 78.55 54.22 80.93C53.35 81.94 52.63 82.22 51.19 82.22C49.54 82.22 45.65 82.15 41.33 81.79C42.55 83.74 43.34 86.62 43.49 88.49C47.59 88.70 51.77 88.78 54.29 88.49C56.88 88.13 58.68 87.41 60.34 85.03C63.29 81.43 64.37 69.98 65.52 37.66C65.59 36.72 65.59 34.20 65.59 34.20Z"/></svg>
