<svg xmlns="http://www.w3.org/2000/svg" xmlns:xlink="http://www.w3.org/1999/xlink" width="72.00000000000001" height="106.56000000000002"><path fill="red" stroke="red" d="M53.93 75.67L53.93 70.27L38.95 70.27L38.95 64.08L52.56 64.08L52.56 58.82L45.72 58.82C46.94 56.30 48.17 53.42 49.39 50.62L43.34 49.25C42.62 51.98 41.11 55.94 39.89 58.82L28.08 58.82L31.90 57.67C31.25 55.44 29.74 51.98 28.15 49.46L22.90 50.83C24.26 53.21 25.70 56.45 26.28 58.82L19.66 58.82L19.66 64.08L32.62 64.08L32.62 70.27L18.14 70.27L18.14 75.67L32.62 75.67L32.62 87.48L38.95 87.48L38.95 75.67ZM67.46 36.07L67.46 29.81L39.74 29.81C40.03 27.79 40.32 25.78 40.54 23.83L33.19 23.11C33.12 25.13 32.98 27.43 32.76 29.81L4.54 29.81L4.54 36.07L32.11 36.07C31.90 38.38 31.54 40.68 31.32 42.62L7.92 42.62L7.92 89.06L14.62 89.06L14.62 48.82L57.38 48.82L57.38 81.86C57.38 83.02 57.02 83.38 55.73 83.38C54.50 83.45 50.11 83.52 46.01 83.30C46.94 84.89 47.95 87.41 48.38 89.06C54.07 89.06 58.25 89.06 60.77 88.06C63.29 87.12 64.22 85.46 64.22 81.86L64.22 42.62L37.80 42.62C38.16 40.61 38.52 38.38 38.81 36.07Z"/></svg>
