<svg xmlns="http://www.w3.org/2000/svg" xmlns:xlink="http://www.w3.org/1999/xlink" width="72.00000000000001" height="106.56000000000002"><path fill="red" stroke="red" d="M13.97 32.18L68.18 32.18L68.18 26.14L7.85 26.14L7.85 47.66C7.85 58.82 7.34 74.81 2.23 86.04C3.74 86.54 6.55 88.13 7.78 89.06C13.18 77.26 13.97 59.54 13.97 47.59ZM67.54 46.01C66.60 43.49 64.44 39.38 62.57 36.43L57.96 37.94C59.76 41.04 61.85 45.22 62.71 47.81ZM22.97 45.86L33.48 45.86L33.48 49.18L22.97 49.18ZM22.97 39.02L33.48 39.02L33.48 42.26L22.97 42.26ZM39.17 52.99L39.17 35.21L17.50 35.21L17.50 52.99ZM21.89 66.17C25.13 67.97 29.02 70.42 31.18 72.14L34.20 68.83C32.04 67.18 27.65 64.66 24.26 63.00L21.89 65.23L21.89 61.20L34.92 61.20L34.92 71.06C29.88 73.51 25.06 76.03 21.46 77.54C21.82 75.17 21.89 72.79 21.89 70.63ZM68.18 55.15L68.18 49.61L57.31 49.61C57.53 44.57 57.60 39.31 57.67 33.77L51.91 33.77C51.84 39.38 51.84 44.64 51.62 49.61L41.83 49.61L41.83 55.15L51.26 55.15C50.26 67.68 47.66 77.83 40.32 84.38C40.39 83.95 40.39 83.52 40.39 83.02L40.39 56.30L16.27 56.30L16.27 70.49C16.27 75.38 16.06 81.00 12.96 85.32C14.11 86.11 16.27 88.34 17.14 89.57C19.51 86.40 20.74 82.37 21.38 78.34L23.11 82.87C26.78 80.71 30.82 78.26 34.92 75.74L34.92 83.02C34.92 83.81 34.63 84.02 33.91 84.02C33.12 84.02 30.67 84.02 28.08 83.95C28.73 85.32 29.38 87.26 29.59 88.70C33.70 88.70 36.29 88.63 38.09 87.84C39.24 87.26 39.89 86.47 40.18 85.32C41.54 86.40 43.06 88.13 43.92 89.42C49.68 84.38 53.06 77.62 55.01 69.34C56.95 77.98 60.19 84.74 65.52 89.28C66.38 87.70 68.18 85.54 69.48 84.38C62.35 78.98 59.26 68.26 57.74 55.15Z"/></svg>
