<svg xmlns="http://www.w3.org/2000/svg" xmlns:xlink="http://www.w3.org/1999/xlink" width="72.00000000000001" height="106.56000000000002"><path fill="red" stroke="red" d="M34.20 50.54L34.20 64.94L17.64 64.94L17.64 50.54ZM40.82 71.28L40.82 44.21L11.16 44.21L11.16 76.90L17.64 76.90L17.64 71.28ZM68.04 28.08L4.10 28.08L4.10 34.78L52.49 34.78L52.49 80.14C52.49 81.65 51.98 82.08 50.40 82.15C48.67 82.15 42.70 82.22 37.22 81.94C38.30 83.88 39.67 87.19 40.03 89.14C47.23 89.14 52.27 89.06 55.37 87.84C58.39 86.83 59.47 84.60 59.47 80.28L59.47 34.78L68.04 34.78Z"/></svg>
