<svg xmlns="http://www.w3.org/2000/svg" xmlns:xlink="http://www.w3.org/1999/xlink" width="72.00000000000001" height="106.56000000000002"><path fill="red" stroke="red" d="M34.27 62.50L34.27 71.21L24.70 71.21L24.70 62.50ZM39.82 76.54L39.82 57.24L19.22 57.24L19.22 80.78L24.70 80.78L24.70 76.54ZM39.96 46.37L18.79 46.37L18.79 51.98L39.96 51.98ZM58.10 46.66C56.45 52.92 54.22 58.54 51.41 63.65C50.26 57.17 49.46 49.39 49.03 40.82L68.26 40.82L68.26 34.42L62.57 34.42L65.95 31.46C63.50 28.94 58.75 25.56 54.86 23.33L50.62 26.93C54.00 29.02 58.03 32.11 60.55 34.42L48.82 34.42C48.74 30.74 48.67 27.00 48.74 23.18L42.26 23.18C42.26 27.00 42.34 30.74 42.48 34.42L9.00 34.42L9.00 54.29C9.00 63.65 8.42 76.32 2.45 85.10C3.89 85.90 6.62 88.20 7.70 89.35C14.33 79.78 15.48 64.80 15.48 54.36L15.48 40.82L42.70 40.82C43.27 52.34 44.50 62.78 46.51 70.99C42.26 76.39 37.08 80.86 30.96 84.17C32.40 85.32 34.85 87.91 35.86 89.21C40.75 86.26 45.07 82.58 48.82 78.34C51.62 85.18 55.37 89.28 60.48 89.28C66.02 89.28 68.18 85.90 69.19 73.87C67.54 73.30 65.30 71.86 63.86 70.49C63.50 79.42 62.71 83.02 60.98 83.02C58.03 83.02 55.44 79.13 53.42 72.50C58.25 65.59 61.99 57.46 64.66 48.02Z"/></svg>
