<svg xmlns="http://www.w3.org/2000/svg" xmlns:xlink="http://www.w3.org/1999/xlink" width="72.00000000000001" height="106.56000000000002"><path fill="red" stroke="red" d="M17.64 35.86L17.64 64.22L11.23 64.22L11.23 35.86ZM23.47 29.66L5.40 29.66L5.40 77.04L11.23 77.04L11.23 70.42L23.47 70.42ZM38.45 34.70L27.79 34.70L27.79 40.82L38.45 40.82L38.45 49.97L28.80 49.97L28.80 55.94L38.38 55.94C38.38 58.25 38.23 60.62 38.02 63.07C33.19 63.86 28.87 64.66 25.49 65.16L26.86 72.00C30.02 71.21 33.55 70.34 37.15 69.41C36.07 75.46 33.98 81.22 30.24 85.97C31.82 86.62 34.49 88.70 35.64 89.93C43.70 79.70 44.93 63.43 44.93 51.70L44.93 23.62L38.45 23.62ZM68.76 65.16L56.38 65.16L56.38 55.94L66.38 55.94L66.38 49.90L56.38 49.90L56.38 40.82L67.82 40.82L67.82 34.70L56.38 34.70L56.38 23.47L49.90 23.47L49.90 89.06L56.38 89.06L56.38 71.28L68.76 71.28Z"/></svg>
