<svg xmlns="http://www.w3.org/2000/svg" xmlns:xlink="http://www.w3.org/1999/xlink" width="72.00000000000001" height="106.56000000000002"><path fill="red" stroke="red" d="M16.92 33.55L16.92 66.17L10.66 66.17L10.66 33.55ZM22.18 71.57L22.18 28.22L5.40 28.22L5.40 78.26L10.66 78.26L10.66 71.57ZM31.75 69.77C31.82 68.18 31.82 66.60 31.82 65.16L31.82 64.87L40.90 64.87L40.90 69.77ZM40.90 55.22L40.90 59.98L31.82 59.98L31.82 55.22ZM46.44 49.97L26.21 49.97L26.21 65.09C26.21 71.50 25.85 79.78 22.18 85.82C23.54 86.47 25.99 88.20 27.00 89.28C29.52 85.18 30.67 79.92 31.32 74.74L40.90 74.74L40.90 82.51C40.90 83.16 40.75 83.30 40.03 83.38C39.46 83.38 37.66 83.38 35.50 83.30C36.29 84.82 36.94 87.34 37.15 88.85C40.39 88.85 42.70 88.78 44.35 87.77C46.01 86.90 46.44 85.25 46.44 82.58ZM60.19 82.15C60.19 83.02 59.98 83.23 59.04 83.23C58.18 83.30 55.22 83.30 52.06 83.23C52.85 84.74 53.57 87.19 53.78 88.78C58.18 88.78 61.20 88.63 63.14 87.70C65.09 86.83 65.66 85.18 65.66 82.22L65.66 48.82L60.19 48.82ZM55.66 51.55L50.40 51.55L50.40 77.40L55.66 77.40ZM35.06 40.39C39.02 37.73 42.84 34.56 46.08 31.10C49.68 34.85 53.57 37.87 57.82 40.39ZM45.58 22.75C40.61 30.02 31.25 36.65 22.39 40.39C23.98 41.69 25.70 43.78 26.64 45.29C28.66 44.35 30.67 43.20 32.76 41.90L32.76 45.72L59.54 45.72L59.54 41.47C61.49 42.55 63.50 43.56 65.52 44.50C66.31 42.77 68.04 40.75 69.55 39.38C61.99 36.43 55.22 32.83 49.46 27.07C49.97 26.42 50.47 25.78 50.90 25.13Z"/></svg>
