<svg xmlns="http://www.w3.org/2000/svg" xmlns:xlink="http://www.w3.org/1999/xlink" width="72.00000000000001" height="106.56000000000002"><path fill="red" stroke="red" d="M17.35 35.86L17.35 64.22L11.09 64.22L11.09 35.86ZM23.11 29.66L5.40 29.66L5.40 77.04L11.09 77.04L11.09 70.42L23.11 70.42ZM39.96 80.57C35.06 80.57 33.48 78.77 33.48 73.73L33.48 32.04L66.96 32.04L66.96 26.71L24.84 26.71L24.84 32.04L27.00 32.04L27.00 73.37C27.00 83.38 30.74 86.69 40.32 86.69L59.69 86.69C63.65 86.69 67.75 86.54 69.48 86.04C69.19 84.60 68.76 81.65 68.54 79.85C66.60 80.35 62.86 80.57 60.05 80.57ZM56.23 48.10L45.14 48.10L45.14 41.18L56.23 41.18ZM61.78 36.43L39.82 36.43L39.82 52.92L61.78 52.92ZM40.10 60.70L45.07 60.70L45.07 71.57L40.10 71.57ZM35.86 75.74L49.54 75.74L49.54 56.52L35.86 56.52ZM62.35 71.57L57.24 71.57L57.24 60.70L62.35 60.70ZM66.96 56.52L52.85 56.52L52.85 75.74L66.96 75.74Z"/></svg>
