<svg xmlns="http://www.w3.org/2000/svg" xmlns:xlink="http://www.w3.org/1999/xlink" width="72.00000000000001" height="106.56000000000002"><path fill="red" stroke="red" d="M68.54 28.66L49.75 28.66C48.96 26.78 47.74 24.26 46.66 22.46L40.46 24.19C41.18 25.56 41.90 27.07 42.41 28.66L23.98 28.66L23.98 33.91L68.54 33.91ZM16.34 33.55L16.34 66.24L10.66 66.24L10.66 33.55ZM21.60 71.64L21.60 28.22L5.40 28.22L5.40 78.26L10.66 78.26L10.66 71.64ZM40.54 62.86L52.13 62.86L52.13 65.95L40.54 65.95ZM40.54 55.73L52.13 55.73L52.13 58.75L40.54 58.75ZM31.39 39.96L39.38 39.96L39.38 44.50L31.39 44.50ZM52.99 39.96L60.70 39.96L60.70 44.64L52.99 44.64ZM63.58 71.06C61.56 72.58 58.10 74.81 55.22 76.32C53.42 74.66 51.84 72.72 50.54 70.70L68.69 70.70L68.69 65.95L57.96 65.95L57.96 62.86L65.16 62.86L65.16 58.75L57.96 58.75L57.96 55.73L66.53 55.73L66.53 51.19L57.96 51.19L57.96 48.17L65.88 48.17L65.88 36.43L48.02 36.43L48.02 48.17L52.13 48.17L52.13 51.19L40.54 51.19L40.54 48.02L44.50 48.02L44.50 36.43L26.57 36.43L26.57 48.02L34.78 48.02L34.78 51.19L25.13 51.19L25.13 55.73L34.78 55.73L34.78 58.75L27.07 58.75L27.07 62.86L34.78 62.86L34.78 65.95L23.54 65.95L23.54 70.70L38.38 70.70C33.26 73.58 26.28 75.82 19.94 77.18C21.02 78.26 22.61 80.57 23.26 81.79C26.50 80.86 29.88 79.70 33.12 78.34L33.12 80.35C33.12 83.09 31.03 84.10 29.59 84.53C30.38 85.75 31.32 88.13 31.54 89.50C32.83 88.70 34.99 88.06 48.96 85.25C48.74 84.17 48.60 82.08 48.67 80.71L38.59 82.58L38.59 75.82C41.04 74.45 43.34 73.01 45.29 71.57C49.39 79.78 56.45 85.82 66.17 88.56C66.96 86.98 68.62 84.74 69.98 83.52C65.88 82.73 62.14 81.22 59.04 79.27C61.85 77.90 65.23 76.10 67.90 74.23Z"/></svg>
