<svg xmlns="http://www.w3.org/2000/svg" xmlns:xlink="http://www.w3.org/1999/xlink" width="72.00000000000001" height="106.56000000000002"><path fill="red" stroke="red" d="M13.03 75.31L13.03 35.71L24.77 35.71C24.48 51.91 23.47 60.48 13.39 65.52C14.90 66.74 16.70 69.19 17.42 70.78C29.30 64.73 30.89 54.14 31.25 35.71L40.03 35.71L40.03 56.52C40.03 62.86 41.33 65.59 47.09 65.59L54.14 65.59C55.73 65.59 57.53 65.52 58.54 65.16L58.54 75.31ZM58.54 63.14C58.46 61.92 58.32 60.70 58.25 59.54C57.17 59.83 55.15 59.98 54.00 59.98L48.02 59.98C46.51 59.98 46.30 59.04 46.30 56.66L46.30 35.71L58.54 35.71ZM6.34 29.23L6.34 86.90L13.03 86.90L13.03 81.72L58.54 81.72L58.54 86.33L65.52 86.33L65.52 29.23Z"/></svg>
