<svg xmlns="http://www.w3.org/2000/svg" xmlns:xlink="http://www.w3.org/1999/xlink" width="72.00000000000001" height="106.56000000000002"><path fill="red" stroke="red" d="M45.36 69.05L26.86 69.05L26.86 60.55L45.36 60.55ZM55.51 48.24L55.51 42.84L39.10 42.84L39.10 35.21L32.83 35.21L32.83 42.84L16.92 42.84L16.92 48.24L32.83 48.24L32.83 55.44L20.95 55.44L20.95 74.23L51.55 74.23L51.55 55.44L39.10 55.44L39.10 48.24ZM12.96 79.85L12.96 32.62L58.97 32.62L58.97 79.85ZM6.26 26.42L6.26 89.35L12.96 89.35L12.96 86.11L58.97 86.11L58.97 89.35L65.95 89.35L65.95 26.42Z"/></svg>
