<svg xmlns="http://www.w3.org/2000/svg" xmlns:xlink="http://www.w3.org/1999/xlink" width="72.00000000000001" height="106.56000000000002"><path fill="red" stroke="red" d="M17.93 46.37L25.56 46.37L25.56 40.03L17.93 40.03L17.93 24.05L11.45 24.05L11.45 40.03L3.31 40.03L3.31 46.37L11.45 46.37L11.45 67.39C8.06 68.69 5.04 69.91 2.59 70.85L5.26 77.54C11.38 74.74 19.15 71.14 26.42 67.68L24.91 61.70C22.61 62.71 20.23 63.72 17.93 64.73ZM50.04 63.14L50.04 53.86L59.40 53.86L59.40 63.14ZM34.20 63.14L34.20 53.86L43.63 53.86L43.63 63.14ZM43.63 38.81L43.63 47.88L34.20 47.88L34.20 38.81ZM59.40 38.81L59.40 47.88L50.04 47.88L50.04 38.81ZM50.04 32.69L50.04 23.18L43.63 23.18L43.63 32.69L28.08 32.69L28.08 73.01L34.20 73.01L34.20 69.34L43.63 69.34L43.63 89.14L50.04 89.14L50.04 69.34L59.40 69.34L59.40 72.58L65.74 72.58L65.74 32.69Z"/></svg>
