<svg xmlns="http://www.w3.org/2000/svg" xmlns:xlink="http://www.w3.org/1999/xlink" width="72.00000000000001" height="106.56000000000002"><path fill="red" stroke="red" d="M26.93 30.60L26.93 36.79L12.96 36.79L12.96 30.60ZM16.27 51.19L27.79 51.19L27.79 57.53L16.27 57.53ZM10.87 62.50L33.55 62.50L33.55 46.22L12.46 46.22C12.60 44.71 12.74 43.27 12.82 41.83L32.98 41.83L32.98 25.56L7.13 25.56L7.13 37.37C7.13 43.85 6.70 52.49 2.23 58.82C3.38 59.54 5.69 62.14 6.55 63.43C8.57 60.77 9.86 57.60 10.87 54.29ZM39.46 74.52L61.92 74.52L61.92 68.83L39.46 68.83L39.46 63.72L32.54 63.72L32.54 68.83L10.94 68.83L10.94 74.52L32.54 74.52L32.54 81.72L3.60 81.72L3.60 87.48L68.40 87.48L68.40 81.72L39.46 81.72ZM60.19 40.54C60.98 38.66 61.92 36.43 62.86 34.27L56.95 33.34C56.52 35.42 55.51 38.23 54.65 40.54L47.59 40.54L47.81 40.46C47.45 38.59 46.37 35.64 45.36 33.34L66.96 33.34L66.96 28.15L55.22 28.15C54.72 26.42 53.86 24.41 53.06 22.82L47.02 24.26C47.59 25.49 48.10 26.78 48.53 28.15L36.29 28.15L36.29 33.34L44.14 33.34L40.03 34.42C40.90 36.22 41.69 38.66 42.12 40.54L34.56 40.54L34.56 45.94L48.17 45.94L48.17 51.05L35.78 51.05L35.78 56.30L48.17 56.30L48.17 63.86L54.36 63.86L54.36 56.30L66.89 56.30L66.89 51.05L54.36 51.05L54.36 45.94L68.54 45.94L68.54 40.54Z"/></svg>
