<svg xmlns="http://www.w3.org/2000/svg" xmlns:xlink="http://www.w3.org/1999/xlink" width="72.00000000000001" height="106.56000000000002"><path fill="red" stroke="red" d="M22.82 28.44L5.18 28.44L5.18 34.34L22.82 34.34ZM24.55 43.06L3.60 43.06L3.60 49.18L24.55 49.18ZM46.51 67.97C44.57 71.06 42.05 73.58 38.88 75.60C34.34 74.52 29.66 73.51 25.06 72.58C26.35 71.14 27.65 69.62 29.02 67.97ZM68.47 67.97L68.47 62.14L56.74 62.14C56.95 61.49 57.17 60.77 57.38 60.12L50.76 58.46C50.40 59.76 49.97 60.98 49.54 62.14L33.41 62.14C34.78 60.34 35.93 58.39 37.01 56.59L32.40 55.30C39.10 52.56 42.91 49.10 45.07 45.65C51.91 49.82 60.19 55.08 64.44 58.39L68.04 52.78C63.43 49.46 54.22 44.06 47.30 40.10C47.59 38.59 47.74 37.08 47.74 35.78L47.74 34.92L58.18 34.92C57.24 37.44 56.16 39.96 55.15 41.69L60.98 43.92C63.07 40.54 65.38 35.14 67.18 30.53L62.14 28.87L60.98 29.16L38.81 29.16C39.38 27.58 40.03 25.99 40.54 24.34L33.91 22.90C31.82 29.59 28.01 36.00 23.40 40.18C24.98 41.04 27.79 42.91 29.09 44.06C31.46 41.54 33.84 38.45 35.86 34.92L41.26 34.92L41.26 35.50C41.26 40.75 39.17 48.53 19.80 52.92C21.02 54.22 22.54 56.74 23.04 58.25C25.13 57.74 26.93 57.31 28.73 56.66C27.58 58.46 26.42 60.34 25.06 62.14L3.60 62.14L3.60 67.97L20.45 67.97C18.00 70.99 15.41 73.73 13.03 76.03C18.86 77.11 24.55 78.34 29.95 79.63C23.18 81.65 14.83 82.73 4.32 83.23C5.33 84.74 6.34 87.19 6.84 89.14C21.17 88.13 31.97 86.18 40.03 82.15C48.46 84.46 55.73 86.76 61.13 88.92L67.75 83.81C62.28 81.79 55.01 79.63 46.94 77.54C49.90 74.95 52.42 71.78 54.36 67.97Z"/></svg>
