<svg xmlns="http://www.w3.org/2000/svg" xmlns:xlink="http://www.w3.org/1999/xlink" width="72.00000000000001" height="106.56000000000002"><path fill="red" stroke="red" d="M18.29 44.06L18.29 44.64C18.29 50.90 17.93 58.18 15.62 65.45C13.82 63.86 12.02 62.21 10.30 60.62C11.23 55.87 12.17 50.18 12.96 44.42ZM26.06 76.25C24.62 74.52 22.68 72.29 20.30 69.98C23.62 61.27 24.12 52.34 24.12 44.71L24.12 43.63L26.71 43.49L26.64 37.58L24.12 37.73L24.12 33.26L18.29 33.26L18.29 38.09L13.68 38.30C14.33 33.26 14.83 28.22 15.12 23.69L9.14 23.47C8.93 28.15 8.42 33.41 7.78 38.59C5.98 38.66 4.25 38.74 2.66 38.81L3.31 45.00L6.98 44.78C6.05 51.41 5.04 57.74 3.96 62.50C6.84 65.09 10.15 68.18 13.18 71.28C10.87 76.03 7.49 80.57 2.52 84.67C3.89 85.54 5.98 87.62 6.91 88.92C11.74 84.96 15.19 80.57 17.64 75.89C19.51 77.98 21.02 79.78 22.25 81.43ZM61.49 36.14L61.49 41.54L34.06 41.54L34.06 36.14ZM63.00 49.61C59.98 52.20 55.08 55.51 51.12 57.96C49.97 55.30 48.53 52.85 46.66 50.69C48.10 49.54 49.46 48.31 50.62 47.09L62.71 47.09L62.71 42.91L68.04 42.91L68.04 30.89L51.98 30.89C51.26 28.58 50.04 25.49 48.96 23.04L42.62 24.26C43.49 26.21 44.42 28.73 45.07 30.89L27.72 30.89L27.72 42.91L32.62 42.91L32.62 47.09L43.34 47.09C38.66 50.83 32.11 53.93 25.92 55.87C26.86 56.95 28.66 59.26 29.30 60.41C33.70 58.68 38.30 56.45 42.41 53.78C43.06 54.72 43.70 55.66 44.28 56.66C39.46 60.98 31.54 65.45 25.27 67.68C26.42 68.83 27.79 70.99 28.58 72.36C34.27 69.77 41.18 65.45 46.37 61.27C46.73 62.57 47.16 63.94 47.45 65.23C42.19 70.99 32.90 76.75 25.06 79.34C26.21 80.64 27.58 82.80 28.30 84.24C35.06 81.43 42.70 76.61 48.31 71.42C48.60 76.46 47.81 80.64 46.51 82.08C45.58 83.52 44.57 83.66 43.13 83.66C41.83 83.66 39.96 83.59 38.02 83.38C39.02 85.10 39.38 87.55 39.46 89.14C41.26 89.21 42.98 89.28 44.35 89.28C47.30 89.21 49.39 88.49 51.19 86.26C54.43 82.87 55.66 72.29 52.78 62.35C53.57 61.85 54.50 61.49 55.51 60.91C57.46 69.48 60.91 77.83 65.45 82.51C66.46 81.00 68.33 78.98 69.77 77.90C65.23 73.87 61.63 66.17 59.76 58.39C62.35 56.95 64.87 55.22 67.18 53.71Z"/></svg>
