<svg xmlns="http://www.w3.org/2000/svg" xmlns:xlink="http://www.w3.org/1999/xlink" width="72.00000000000001" height="106.56000000000002"><path fill="red" stroke="red" d="M12.53 37.22L59.18 37.22L59.18 46.73L66.31 46.73L66.31 30.89L41.40 30.89C40.54 28.37 38.81 25.20 37.37 22.75L30.67 24.70C31.61 26.50 32.76 28.87 33.62 30.89L5.76 30.89L5.76 46.73L12.53 46.73ZM66.53 57.89L66.53 51.48L39.38 51.48L39.38 40.46L32.54 40.46L32.54 51.48L5.40 51.48L5.40 57.89L27.36 57.89C21.46 67.25 11.81 76.18 2.45 80.78C4.03 82.15 6.19 84.67 7.34 86.40C16.78 81.07 26.14 71.78 32.54 61.42L32.54 89.14L39.38 89.14L39.38 61.85C45.94 71.64 55.30 80.71 64.51 85.82C65.66 84.02 67.97 81.29 69.55 79.92C60.05 75.38 50.11 66.74 43.99 57.89Z"/></svg>
