<svg xmlns="http://www.w3.org/2000/svg" xmlns:xlink="http://www.w3.org/1999/xlink" width="72.00000000000001" height="106.56000000000002"><path fill="red" stroke="red" d="M12.53 37.15L59.18 37.15L59.18 47.02L66.02 47.02L66.02 31.10L39.67 31.10L40.82 30.82C40.32 28.58 38.66 25.20 37.15 22.61L30.60 24.19C31.75 26.28 32.98 29.02 33.62 31.10L5.98 31.10L5.98 47.02L12.53 47.02ZM24.12 73.94L47.02 73.94L47.02 81.14L24.12 81.14ZM47.02 49.46L47.02 56.02L24.12 56.02L24.12 49.46ZM47.02 68.47L24.12 68.47L24.12 61.56L47.02 61.56ZM53.78 81.14L53.78 43.63L17.64 43.63L17.64 81.14L4.32 81.14L4.32 87.19L67.68 87.19L67.68 81.14Z"/></svg>
