<svg xmlns="http://www.w3.org/2000/svg" xmlns:xlink="http://www.w3.org/1999/xlink" width="72.00000000000001" height="106.56000000000002"><path fill="red" stroke="red" d="M12.24 34.92L59.62 34.92L59.62 43.34L66.46 43.34L66.46 28.94L39.82 28.94C39.24 26.93 38.45 24.34 37.51 22.32L31.10 23.40C31.75 25.06 32.40 27.14 32.83 28.94L5.69 28.94L5.69 43.34L12.24 43.34ZM40.61 42.12C37.94 39.82 32.47 36.86 28.15 35.14L24.91 39.02C29.30 40.90 34.56 44.14 37.15 46.51ZM12.89 43.63C10.94 47.95 7.49 52.92 3.60 56.09L8.93 59.33C13.03 55.94 16.13 50.62 18.29 46.08ZM46.22 63.43C52.85 63.43 54.65 61.42 55.44 52.85C53.78 52.56 51.34 51.70 49.97 50.76C49.68 57.17 49.03 58.18 45.72 58.18L32.33 58.18L31.39 58.18C40.54 53.42 48.53 47.59 54.43 40.39L48.82 37.51C43.70 43.92 36.14 49.25 27.50 53.57L27.50 42.77L21.53 42.77L21.53 55.87L21.53 56.23C15.62 58.75 9.29 60.77 2.88 62.28C4.03 63.65 5.90 66.38 6.77 67.90C12.38 66.24 18.07 64.22 23.54 61.92C25.13 63.00 27.72 63.43 31.90 63.43ZM54.29 79.85L39.24 79.85L39.24 65.45L32.47 65.45L32.47 79.85L18.07 79.85L18.07 69.12L11.52 69.12L11.52 86.18L54.29 86.18L54.29 88.92L60.98 88.92L60.98 68.26L54.29 68.26ZM52.06 47.23C56.38 51.19 61.49 56.88 63.72 60.48L68.83 56.95C66.46 53.21 61.20 47.74 56.81 43.99Z"/></svg>
