<svg xmlns="http://www.w3.org/2000/svg" xmlns:xlink="http://www.w3.org/1999/xlink" width="72.00000000000001" height="106.56000000000002"><path fill="red" stroke="red" d="M53.93 67.25C48.89 65.52 39.67 63.94 32.62 63.58L31.03 67.46C38.09 68.04 47.30 69.77 52.27 71.64ZM56.09 71.21C46.08 73.15 35.93 75.02 29.09 76.03C29.66 72.72 29.81 69.41 29.81 66.60L29.81 60.62L56.09 60.62ZM57.17 44.50C55.44 47.45 52.34 51.62 49.90 54.22L53.06 55.51L45.29 55.51L45.29 43.99L38.74 43.99L38.74 55.51L30.24 55.51L34.27 53.50C33.05 50.90 30.02 47.30 27.29 44.86L22.25 47.30C24.77 49.68 27.36 53.06 28.58 55.51L23.40 55.51L23.40 66.46C23.40 72.36 22.90 80.14 18.50 85.97C20.02 86.76 22.68 88.85 23.83 90.00C26.71 86.26 28.22 81.50 29.02 76.68L30.82 81.58C37.87 80.06 47.09 78.05 56.09 75.89L56.09 82.51C56.09 83.45 55.80 83.74 54.79 83.74C53.93 83.74 50.62 83.74 47.38 83.66C48.17 85.18 49.10 87.55 49.39 89.14C54.36 89.14 57.74 89.14 59.83 88.20C61.99 87.34 62.71 85.68 62.71 82.58L62.71 55.51L55.73 55.51C58.10 53.14 60.91 49.82 63.29 46.58ZM57.17 38.02L16.78 38.02L16.78 31.82L57.17 31.82ZM63.86 26.50L10.08 26.50L10.08 47.30C10.08 58.68 9.43 74.66 2.30 85.61C4.03 86.26 6.98 87.91 8.28 89.06C15.70 77.47 16.78 59.54 16.78 47.30L16.78 43.27L63.86 43.27Z"/></svg>
