<svg xmlns="http://www.w3.org/2000/svg" xmlns:xlink="http://www.w3.org/1999/xlink" width="72.00000000000001" height="106.56000000000002"><path fill="red" stroke="red" d="M40.18 79.56L29.74 79.56L29.74 70.70L23.54 70.70L23.54 79.56L12.96 79.56L12.96 72.65L6.84 72.65L6.84 84.82L40.18 84.82L40.18 86.90L46.22 86.90L46.22 72.50L40.18 72.50ZM50.76 33.55L50.76 37.87L19.66 37.87L19.66 33.55ZM19.66 46.44L19.66 42.26L50.76 42.26L50.76 46.44ZM68.18 60.77L68.18 55.66L19.66 55.66L19.66 51.26L57.46 51.26L57.46 28.73L36.43 28.73C37.37 27.14 38.38 25.42 39.10 23.62L31.25 22.90C30.89 24.55 30.17 26.78 29.45 28.73L13.03 28.73L13.03 69.70L58.75 69.70C57.96 78.26 57.10 81.79 56.02 82.87C55.51 83.45 54.86 83.66 53.78 83.66C52.70 83.66 50.18 83.59 47.45 83.30C48.31 84.89 48.89 87.34 49.03 89.06C52.34 89.21 55.30 89.21 56.95 88.99C58.82 88.85 60.26 88.34 61.49 86.90C63.36 84.96 64.44 79.70 65.45 67.18C65.59 66.38 65.66 64.66 65.66 64.66L19.66 64.66L19.66 60.77Z"/></svg>
