<svg xmlns="http://www.w3.org/2000/svg" xmlns:xlink="http://www.w3.org/1999/xlink" width="72.00000000000001" height="106.56000000000002"><path fill="red" stroke="red" d="M27.36 81.79L27.36 35.06L22.75 35.06L22.75 73.15L19.01 73.15L19.01 24.26L13.46 24.26L13.46 73.15L9.72 73.15L9.72 35.06L4.97 35.06L4.97 78.98L22.75 78.98L22.75 81.79ZM69.05 62.64C67.61 59.76 64.51 55.15 61.70 51.41C62.42 48.74 63.07 45.94 63.50 43.06L58.25 42.12C57.10 50.11 54.86 57.67 51.12 62.86L50.69 61.70C51.48 57.31 51.70 52.78 51.70 48.31L51.70 39.74L68.11 39.74L68.11 33.77L51.70 33.77L51.70 23.11L45.50 23.11L45.50 33.77L29.88 33.77L29.88 39.74L45.50 39.74L45.50 48.24C45.50 52.06 45.36 55.87 44.64 59.62C43.56 57.24 41.47 54.22 39.46 51.62C40.32 48.89 40.97 45.94 41.40 42.91L36.14 41.98C34.85 50.83 32.04 58.82 27.43 63.86C28.66 64.73 30.67 66.67 31.54 67.61C33.98 64.73 36.00 61.13 37.66 56.95C39.24 59.47 40.61 61.92 41.33 63.79L44.35 61.20C42.41 70.27 37.44 78.55 24.77 84.46C25.99 85.61 28.08 88.06 28.87 89.64C39.60 84.46 45.29 77.62 48.38 70.06C51.98 77.47 57.60 84.74 65.88 89.06C66.82 87.48 68.62 84.96 69.98 83.81C60.84 79.85 55.01 71.93 51.70 64.15C52.92 64.87 54.29 65.88 55.01 66.53C56.95 63.86 58.54 60.70 59.98 57.02C62.06 60.26 64.08 63.72 65.16 66.10Z"/></svg>
