<svg xmlns="http://www.w3.org/2000/svg" xmlns:xlink="http://www.w3.org/1999/xlink" width="72.00000000000001" height="106.56000000000002"><path fill="red" stroke="red" d="M46.87 80.86L46.87 61.06L65.38 61.06L65.38 54.65L25.56 54.65C27.07 50.54 28.22 46.30 29.38 42.05L67.03 42.05L67.03 35.64L30.96 35.64C31.75 31.75 32.54 27.86 33.19 24.05L26.21 23.18C25.56 27.22 24.84 31.39 23.90 35.64L4.97 35.64L4.97 42.05L22.46 42.05C18.65 56.66 12.53 70.70 2.09 79.85C3.46 81.22 5.47 83.66 6.55 85.18C14.90 77.62 20.66 67.54 24.84 56.45L24.84 61.06L40.03 61.06L40.03 80.86L17.28 80.86L17.28 87.34L68.26 87.34L68.26 80.86Z"/></svg>
