<svg xmlns="http://www.w3.org/2000/svg" xmlns:xlink="http://www.w3.org/1999/xlink" width="72.00000000000001" height="106.56000000000002"><path fill="red" stroke="red" d="M23.69 48.67L48.31 48.67L48.31 54.58L23.69 54.58ZM62.21 64.73L40.32 64.73L40.32 59.47L55.15 59.47L55.15 43.78L17.28 43.78L17.28 59.47L33.41 59.47L33.41 64.73L10.73 64.73L10.73 85.97L17.50 85.97L17.50 70.78L33.41 70.78L33.41 89.21L40.32 89.21L40.32 70.78L55.30 70.78L55.30 79.42C55.30 80.28 55.01 80.50 53.86 80.57C52.85 80.57 49.03 80.57 45.22 80.42C46.08 82.15 47.09 84.74 47.45 86.54C52.85 86.54 56.52 86.47 59.04 85.54C61.49 84.53 62.21 82.73 62.21 79.49ZM54.36 33.70C56.38 31.68 58.75 28.80 60.98 25.99L53.86 23.69C52.63 26.14 50.11 29.74 48.24 32.04L52.56 33.70L39.67 33.70L39.67 23.11L32.76 23.11L32.76 33.70L19.37 33.70L23.62 31.82C22.46 29.52 20.16 26.14 17.93 23.76L11.88 26.14C13.68 28.37 15.62 31.46 16.78 33.70L6.12 33.70L6.12 49.75L12.53 49.75L12.53 39.46L59.69 39.46L59.69 49.75L66.31 49.75L66.31 33.70Z"/></svg>
