<svg xmlns="http://www.w3.org/2000/svg" xmlns:xlink="http://www.w3.org/1999/xlink" width="72.00000000000001" height="106.56000000000002"><path fill="red" stroke="red" d="M61.99 63.50L39.10 63.50L39.10 59.26L32.47 59.26L32.47 63.50L11.02 63.50L11.02 85.75L17.50 85.75L17.50 69.12L32.47 69.12L32.47 89.14L39.10 89.14L39.10 69.12L55.37 69.12L55.37 78.98C55.37 79.92 55.01 80.14 53.86 80.21C52.78 80.28 48.60 80.28 44.50 80.14C45.29 81.65 46.30 84.02 46.66 85.61C52.42 85.61 56.23 85.68 58.75 84.74C61.20 83.88 61.99 82.15 61.99 79.06ZM14.33 41.18C13.90 45.14 13.10 49.10 11.59 52.20C12.53 52.56 14.18 53.35 14.76 53.86C16.20 50.83 17.35 46.22 17.93 41.98ZM25.13 42.05C26.50 45.72 27.58 50.54 27.86 53.64L31.10 52.63C30.82 49.61 29.59 44.78 28.22 41.18ZM32.11 24.41C31.10 26.93 29.16 30.60 27.58 32.98L31.61 34.70C33.34 32.69 35.50 29.45 37.58 26.42ZM58.18 35.42C57.02 38.95 55.22 41.90 53.06 44.50C50.76 41.76 48.96 38.74 47.59 35.42ZM68.33 35.42L68.33 30.24L49.75 30.24C50.54 28.37 51.26 26.35 51.91 24.34L46.30 23.11C44.57 29.16 41.26 34.70 36.94 38.45L36.94 34.70L24.62 34.70L24.62 23.18L18.72 23.18L18.72 34.70L11.23 34.70L16.06 32.47C15.26 30.24 13.25 27.00 11.30 24.62L6.62 26.64C8.42 29.16 10.22 32.54 11.09 34.70L6.55 34.70L6.55 59.90L11.45 59.90L11.45 38.88L19.51 38.88L19.51 59.18L23.90 59.18L23.90 38.88L31.90 38.88L31.90 58.10L36.94 58.10L36.94 39.60C38.23 40.68 39.74 42.34 40.39 43.20C41.69 42.05 42.84 40.82 44.06 39.46C45.50 42.62 47.23 45.50 49.25 48.10C46.01 50.69 42.12 52.63 37.58 54.07C38.66 55.22 40.32 57.89 40.90 59.11C45.58 57.38 49.68 55.15 53.14 52.34C56.66 55.66 60.84 58.32 65.59 60.12C66.38 58.61 67.97 56.52 69.26 55.37C64.58 54.00 60.48 51.62 57.10 48.60C60.34 45.00 62.78 40.68 64.37 35.42Z"/></svg>
