<svg xmlns="http://www.w3.org/2000/svg" xmlns:xlink="http://www.w3.org/1999/xlink" width="72.00000000000001" height="106.56000000000002"><path fill="red" stroke="red" d="M25.63 57.74C24.55 56.02 19.80 48.82 18.07 46.44L18.07 44.42L23.90 44.42L23.90 38.30L18.07 38.30L18.07 23.11L12.02 23.11L12.02 38.30L4.03 38.30L4.03 44.42L11.45 44.42C9.72 53.50 6.19 64.30 2.30 70.20C3.24 71.64 4.75 74.23 5.40 75.96C7.85 72.00 10.15 66.02 12.02 59.62L12.02 89.14L18.07 89.14L18.07 54.14C19.73 57.17 21.38 60.62 22.18 62.71ZM46.01 62.21C47.45 63.36 49.10 64.94 50.04 66.17C56.81 61.42 63.29 54.14 67.46 46.44L61.56 44.28C58.39 50.40 52.78 56.66 47.09 60.62L47.38 60.26C46.22 58.25 40.90 50.04 38.88 47.16L38.88 44.42L46.01 44.42L46.01 42.41C47.45 43.42 48.89 44.78 49.82 45.86C55.73 41.47 61.92 34.63 65.95 27.65L60.05 25.42C57.02 31.10 51.26 37.22 46.01 41.11L46.01 38.30L38.88 38.30L38.88 23.11L32.76 23.11L32.76 38.30L26.50 38.30L26.50 44.42L32.40 44.42C30.38 53.71 26.28 64.37 21.82 70.34C22.82 71.78 24.34 74.23 25.06 75.96C27.86 71.93 30.60 65.88 32.76 59.33L32.76 89.14L38.88 89.14L38.88 55.15C40.75 58.75 42.84 62.93 43.78 65.30ZM62.64 63.36C58.82 72.43 51.19 80.06 41.90 84.31C43.56 85.54 45.43 87.84 46.44 89.35C56.38 84.17 64.30 75.74 68.76 65.30Z"/></svg>
