<svg xmlns="http://www.w3.org/2000/svg" xmlns:xlink="http://www.w3.org/1999/xlink" width="72.00000000000001" height="106.56000000000002"><path fill="red" stroke="red" d="M38.23 31.82L50.40 31.82L50.40 41.62C50.40 47.81 51.77 50.18 57.89 50.18L64.08 50.18C65.81 50.18 67.61 50.11 68.62 49.75C68.40 48.24 68.26 45.86 68.11 44.14C67.03 44.42 65.23 44.57 64.01 44.57L58.39 44.57C57.17 44.57 56.95 43.78 56.95 41.69L56.95 25.63L31.75 25.63L31.75 34.20C31.75 39.31 30.38 44.71 21.24 48.67C22.54 49.61 24.91 52.27 25.78 53.64C36.07 48.96 38.23 41.33 38.23 34.42ZM17.28 23.33C14.40 28.22 8.57 34.06 3.31 37.73C4.32 39.02 5.98 41.76 6.77 43.27C12.89 38.95 19.58 32.04 23.69 25.78ZM18.79 38.95C14.83 46.15 8.28 53.35 2.16 57.96C3.31 59.54 5.04 63.22 5.62 64.73C7.78 62.86 10.08 60.70 12.31 58.32L12.31 89.21L18.79 89.21L18.79 50.47C21.02 47.52 23.04 44.42 24.70 41.40ZM55.22 60.62C52.56 65.59 48.89 69.70 44.42 73.01C39.96 69.55 36.29 65.45 33.62 60.62ZM59.90 54.14L58.75 54.36L24.34 54.36L24.34 60.62L28.80 60.62L26.93 61.27C29.95 67.32 33.77 72.58 38.59 76.82C33.05 79.92 26.64 81.94 19.94 83.23C21.17 84.60 22.68 87.41 23.33 89.21C30.82 87.41 37.94 84.89 44.21 81.07C49.90 84.96 56.74 87.77 64.58 89.50C65.52 87.62 67.46 84.74 68.98 83.30C61.92 82.01 55.58 79.85 50.18 76.82C56.45 71.64 61.42 64.80 64.37 55.94Z"/></svg>
