<svg xmlns="http://www.w3.org/2000/svg" xmlns:xlink="http://www.w3.org/1999/xlink" width="72.00000000000001" height="106.56000000000002"><path fill="red" stroke="red" d="M46.51 33.12C45.86 34.99 44.78 37.37 43.78 39.38L28.08 39.38C27.58 37.51 26.50 35.06 25.34 33.12ZM66.89 39.38L50.62 39.38C51.55 37.80 52.49 36.07 53.57 34.13L48.67 33.12L63.14 33.12L63.14 27.86L40.54 27.86C39.82 26.06 38.81 24.05 37.80 22.46L31.32 23.69C32.04 24.98 32.62 26.42 33.19 27.86L8.64 27.86L8.64 33.12L23.98 33.12L19.15 34.20C19.94 35.78 20.74 37.66 21.24 39.38L5.33 39.38L5.33 44.71L66.89 44.71ZM52.20 56.38L19.94 56.38L19.94 52.27L52.20 52.27ZM52.20 64.66L19.94 64.66L19.94 60.55L52.20 60.55ZM58.82 47.81L13.61 47.81L13.61 69.05L31.68 69.05L28.94 71.57C32.90 73.73 37.87 76.97 40.18 79.27L44.28 75.10C42.26 73.22 38.59 70.85 35.14 69.05L58.82 69.05ZM9.58 87.41C13.25 84.02 16.20 78.70 18.29 74.23L12.74 71.78C10.87 76.03 7.70 81.00 4.10 84.17ZM31.90 83.09C28.37 83.09 27.72 82.80 27.72 81.00L27.72 72.50L21.24 72.50L21.24 81.07C21.24 86.98 23.18 88.56 31.25 88.56L43.92 88.56C50.11 88.56 51.91 86.62 52.70 78.62C50.98 78.26 48.38 77.33 46.94 76.46C46.66 82.30 46.15 83.09 43.34 83.09ZM52.70 73.51C56.23 77.40 59.98 82.80 61.49 86.33L67.25 83.66C65.52 80.06 61.63 74.88 58.03 71.06Z"/></svg>
