<svg xmlns="http://www.w3.org/2000/svg" xmlns:xlink="http://www.w3.org/1999/xlink" width="72.00000000000001" height="106.56000000000002"><path fill="red" stroke="red" d="M58.97 32.26C55.66 29.74 49.18 25.99 44.42 23.69L39.96 28.15C44.71 30.67 51.19 34.63 54.36 37.37ZM56.23 47.30C51.91 54.22 46.30 60.26 39.60 65.45C37.22 60.05 35.35 53.57 33.98 46.44L67.90 43.56L67.32 37.15L33.12 39.96C32.47 34.63 32.11 29.09 32.11 23.40L24.55 23.40C24.62 29.23 24.98 34.92 25.70 40.54L4.18 42.26L4.82 48.89L26.64 47.09C28.15 55.44 30.31 63.29 33.41 69.77C25.20 74.95 15.84 79.06 5.90 81.94C7.27 83.45 9.50 86.69 10.44 88.27C19.73 85.10 28.66 81.00 36.72 75.96C41.76 84.02 48.53 88.99 57.02 88.99C64.15 88.99 66.96 85.75 68.54 72.65C66.53 72.07 63.79 70.49 62.06 68.98C61.27 78.84 60.12 81.79 57.10 81.79C51.62 81.79 46.80 78.05 42.84 71.71C50.76 65.81 57.67 58.75 62.93 50.40Z"/></svg>
