<svg xmlns="http://www.w3.org/2000/svg" xmlns:xlink="http://www.w3.org/1999/xlink" width="72.00000000000001" height="106.56000000000002"><path fill="red" stroke="red" d="M27.29 53.86L19.87 55.94L19.87 43.70L27.72 43.70L27.72 37.22L19.87 37.22L19.87 23.11L13.10 23.11L13.10 37.22L3.82 37.22L3.82 43.70L13.10 43.70L13.10 57.67C9.29 58.68 5.76 59.54 2.88 60.19L4.25 67.10L13.10 64.66L13.10 81.14C13.10 82.22 12.67 82.58 11.59 82.66C10.73 82.66 7.42 82.66 4.03 82.51C4.90 84.31 5.83 87.12 6.05 88.85C11.38 88.85 14.69 88.70 16.85 87.55C19.01 86.62 19.87 84.74 19.87 81.22L19.87 62.71C22.61 61.92 25.42 61.20 28.15 60.34ZM34.56 28.37C34.27 46.08 33.26 71.50 23.54 84.74C24.98 85.82 27.58 88.20 28.73 89.57C39.74 75.10 41.26 47.88 41.83 28.58ZM45.50 26.93L45.50 33.70L51.34 33.70C52.49 56.38 54.86 76.97 62.78 89.57C64.44 88.06 67.46 86.04 69.48 85.03C61.20 73.37 58.68 50.83 57.74 26.93Z"/></svg>
