<svg xmlns="http://www.w3.org/2000/svg" xmlns:xlink="http://www.w3.org/1999/xlink" width="72.00000000000001" height="106.56000000000002"><path fill="red" stroke="red" d="M26.28 54.00L18.86 56.02L18.86 43.42L26.50 43.42L26.50 37.22L18.86 37.22L18.86 23.11L12.31 23.11L12.31 37.22L3.46 37.22L3.46 43.42L12.31 43.42L12.31 57.74C8.71 58.68 5.33 59.54 2.59 60.19L4.39 66.60C6.84 65.95 9.50 65.16 12.31 64.44L12.31 81.22C12.31 82.30 11.95 82.58 10.94 82.66C10.08 82.66 6.98 82.66 3.82 82.58C4.68 84.24 5.62 86.98 5.83 88.63C10.73 88.63 13.97 88.49 16.06 87.41C18.07 86.47 18.86 84.74 18.86 81.29L18.86 62.57C21.60 61.78 24.41 60.91 27.14 60.19ZM54.29 48.24C55.58 42.05 57.10 34.42 58.25 28.15L27.22 28.15L27.22 34.20L33.84 34.20C33.62 53.57 32.76 73.73 21.10 84.82C22.82 85.90 24.91 87.98 25.99 89.57C38.66 77.11 40.03 55.30 40.39 34.20L51.05 34.20C49.82 41.40 48.24 49.10 46.80 54.36L60.05 54.36C59.18 72.58 58.18 79.70 56.30 81.58C55.58 82.37 54.86 82.51 53.50 82.51C51.98 82.51 48.24 82.51 44.28 82.15C45.36 83.95 46.15 86.69 46.30 88.63C50.40 88.85 54.14 88.85 56.30 88.63C58.75 88.34 60.26 87.70 61.78 85.82C64.37 82.94 65.30 74.16 66.38 51.19C66.46 50.26 66.53 48.24 66.53 48.24Z"/></svg>
