<svg xmlns="http://www.w3.org/2000/svg" xmlns:xlink="http://www.w3.org/1999/xlink" width="72.00000000000001" height="106.56000000000002"><path fill="red" stroke="red" d="M27.86 54.72L19.94 56.95L19.94 42.05L27.86 42.05L27.86 35.86L19.94 35.86L19.94 23.18L13.10 23.18L13.10 35.86L3.38 35.86L3.38 42.05L13.10 42.05L13.10 58.75C9.07 59.83 5.40 60.77 2.45 61.49L4.03 68.04L13.10 65.38L13.10 81.50C13.10 82.58 12.74 82.87 11.74 82.87C10.87 82.94 7.85 82.94 4.82 82.80C5.69 84.60 6.62 87.48 6.91 89.14C11.74 89.21 14.90 88.99 17.06 87.91C19.15 86.90 19.94 85.10 19.94 81.50L19.94 63.50C22.90 62.64 25.85 61.78 28.73 60.91ZM38.09 74.38L38.09 35.42L57.96 35.42L57.96 74.38ZM31.39 29.09L31.39 87.05L38.09 87.05L38.09 80.71L57.96 80.71L57.96 86.47L64.94 86.47L64.94 29.09Z"/></svg>
