<svg xmlns="http://www.w3.org/2000/svg" xmlns:xlink="http://www.w3.org/1999/xlink" width="72.00000000000001" height="106.56000000000002"><path fill="red" stroke="red" d="M58.82 44.28L38.30 44.28L38.30 31.97L58.82 31.97ZM65.38 26.06L32.18 26.06L32.18 50.11L65.38 50.11ZM26.50 53.86C23.98 54.58 21.46 55.30 19.01 55.94L19.01 43.27L26.50 43.27L26.50 37.08L19.01 37.08L19.01 23.11L12.60 23.11L12.60 37.08L3.17 37.08L3.17 43.27L12.60 43.27L12.60 57.67C8.71 58.75 5.11 59.69 2.23 60.34L3.89 66.89L12.60 64.37L12.60 81.79C12.60 82.87 12.17 83.16 11.23 83.16C10.30 83.23 7.34 83.23 4.32 83.09C5.18 84.82 5.98 87.55 6.19 89.14C11.09 89.21 14.11 88.99 16.27 88.06C18.29 86.98 19.01 85.25 19.01 81.86L19.01 62.42C21.74 61.63 24.55 60.77 27.22 59.98ZM29.45 56.45L29.45 62.57L40.61 62.57C39.53 72.79 36.58 79.99 24.19 84.17C25.63 85.32 27.36 87.77 28.08 89.35C42.41 84.17 46.15 75.31 47.52 62.57L60.26 62.57C59.47 75.60 58.61 80.78 57.24 82.22C56.52 82.94 55.80 83.09 54.72 83.09C53.42 83.09 50.33 83.02 47.09 82.73C48.17 84.53 48.82 87.12 48.96 89.06C52.42 89.21 55.80 89.21 57.74 88.99C59.90 88.70 61.42 88.20 62.78 86.47C64.94 84.10 65.95 77.11 66.96 59.18C67.03 58.32 67.10 56.45 67.10 56.45Z"/></svg>
