<svg xmlns="http://www.w3.org/2000/svg" xmlns:xlink="http://www.w3.org/1999/xlink" width="72.00000000000001" height="106.56000000000002"><path fill="red" stroke="red" d="M24.84 53.86L18.14 55.87L18.14 43.63L25.63 43.63L25.63 37.08L18.14 37.08L18.14 23.18L11.81 23.18L11.81 37.08L3.24 37.08L3.24 43.63L11.81 43.63L11.81 57.67C8.21 58.75 4.90 59.69 2.23 60.26L3.82 67.18L11.81 64.73L11.81 81.14C11.81 82.15 11.45 82.44 10.51 82.44C9.72 82.44 7.06 82.44 4.18 82.37C5.04 84.17 5.90 87.12 6.12 88.78C10.66 88.85 13.54 88.56 15.55 87.48C17.50 86.40 18.14 84.60 18.14 81.14L18.14 62.78C20.66 61.99 23.26 61.20 25.78 60.34ZM60.19 58.03L60.19 78.41L50.62 78.41L50.62 53.93L65.45 53.93L65.45 30.02L58.68 30.02L58.68 48.02L50.62 48.02L50.62 23.54L43.85 23.54L43.85 48.02L35.86 48.02L35.86 30.02L29.30 30.02L29.30 53.93L43.85 53.93L43.85 78.41L34.42 78.41L34.42 58.10L27.50 58.10L27.50 84.89L60.19 84.89L60.19 88.56L67.10 88.56L67.10 57.96Z"/></svg>
