<svg xmlns="http://www.w3.org/2000/svg" xmlns:xlink="http://www.w3.org/1999/xlink" width="72.00000000000001" height="106.56000000000002"><path fill="red" stroke="red" d="M26.35 59.98L25.49 53.93L18.50 55.94L18.50 43.34L26.21 43.34L26.21 37.15L18.50 37.15L18.50 23.18L12.17 23.18L12.17 37.15L4.18 37.15L4.18 43.34L12.17 43.34L12.17 57.82C8.78 58.75 5.62 59.62 3.10 60.26L4.68 66.74L12.17 64.37L12.17 81.36C12.17 82.30 11.88 82.58 10.94 82.58C10.15 82.66 7.42 82.66 4.61 82.51C5.47 84.38 6.26 87.26 6.48 88.92C11.02 88.92 13.90 88.70 15.91 87.55C17.86 86.54 18.50 84.74 18.50 81.36L18.50 62.42ZM33.19 47.38C38.23 43.92 42.98 39.31 46.58 34.49C49.97 39.60 54.72 43.99 60.12 47.38ZM61.99 53.35L61.99 48.53C63.36 49.18 64.66 49.90 66.02 50.47C67.03 48.89 69.12 46.51 70.56 45.36C60.26 41.76 51.70 33.91 48.31 24.62L34.42 24.62L34.42 29.95L42.70 29.95C38.02 36.72 30.24 42.84 22.82 45.72C24.34 47.09 26.06 49.39 27.00 51.05C28.44 50.33 29.88 49.54 31.32 48.67L31.32 53.35L43.49 53.35L43.49 62.28L28.66 62.28L28.66 68.69L43.49 68.69L43.49 79.70L25.06 79.70L25.06 86.04L68.26 86.04L68.26 79.70L50.11 79.70L50.11 68.69L65.38 68.69L65.38 62.28L50.11 62.28L50.11 53.35Z"/></svg>
