<svg xmlns="http://www.w3.org/2000/svg" xmlns:xlink="http://www.w3.org/1999/xlink" width="72.00000000000001" height="106.56000000000002"><path fill="red" stroke="red" d="M24.26 53.93L18.00 55.87L18.00 43.34L24.91 43.34L24.91 37.15L18.00 37.15L18.00 23.26L11.45 23.26L11.45 37.15L3.24 37.15L3.24 43.34L11.45 43.34L11.45 57.74C7.99 58.75 4.82 59.62 2.23 60.26L3.74 66.74L11.45 64.37L11.45 81.07C11.45 82.08 11.09 82.37 10.22 82.37C9.43 82.37 6.70 82.37 3.89 82.30C4.75 84.17 5.62 87.12 5.76 88.85C10.37 88.92 13.32 88.63 15.34 87.48C17.28 86.40 18.00 84.53 18.00 81.07L18.00 62.35C20.38 61.63 22.82 60.84 25.13 60.05ZM46.66 36.86L55.22 36.86C53.42 39.38 51.55 41.69 49.46 43.99L46.66 43.99ZM69.19 49.97L69.19 43.99L57.31 43.99C61.20 39.10 64.58 33.77 67.46 28.15L61.70 25.99C60.26 28.94 58.75 31.68 56.95 34.27L56.95 31.10L46.66 31.10L46.66 23.11L40.18 23.11L40.18 31.10L29.09 31.10L29.09 36.86L40.18 36.86L40.18 43.99L25.56 43.99L25.56 49.97L43.42 49.97C36.86 55.80 29.30 60.55 21.17 64.08C22.25 65.52 23.90 68.47 24.55 69.91C28.80 67.90 32.83 65.59 36.72 62.93C35.71 66.67 34.63 70.34 33.70 73.15L57.02 73.15C56.23 79.06 55.30 81.86 54.22 82.87C53.42 83.45 52.56 83.52 51.05 83.52C49.18 83.52 44.21 83.45 39.53 83.02C40.68 84.74 41.54 87.12 41.69 88.85C46.37 89.14 50.90 89.14 53.21 88.99C55.94 88.85 57.67 88.42 59.26 86.98C61.42 84.96 62.50 80.35 63.58 70.20C63.79 69.34 63.86 67.61 63.86 67.61L41.69 67.61C42.26 65.45 42.84 63.00 43.49 60.62L65.74 60.62L65.74 55.22L46.66 55.22C48.46 53.50 50.33 51.84 51.98 49.97Z"/></svg>
