<svg xmlns="http://www.w3.org/2000/svg" xmlns:xlink="http://www.w3.org/1999/xlink" width="72.00000000000001" height="106.56000000000002"><path fill="red" stroke="red" d="M24.55 53.86L18.29 55.73L18.29 43.34L25.06 43.34L25.06 37.08L18.29 37.08L18.29 23.18L12.17 23.18L12.17 37.08L3.31 37.08L3.31 43.34L12.17 43.34L12.17 57.46C8.42 58.61 4.97 59.54 2.23 60.26L3.74 66.74L12.17 64.08L12.17 81.14C12.17 82.15 11.81 82.44 10.94 82.44C10.15 82.44 7.42 82.44 4.54 82.37C5.40 84.10 6.19 86.98 6.41 88.56C10.87 88.56 13.82 88.34 15.77 87.26C17.64 86.26 18.29 84.46 18.29 81.14L18.29 62.21L25.42 59.98ZM31.54 69.26C34.34 73.22 37.73 78.70 39.24 81.94L44.86 78.70C43.13 75.38 39.53 70.27 36.79 66.46ZM60.12 53.21L53.78 53.21L53.78 58.90L26.93 58.90L26.93 65.02L53.78 65.02L53.78 81.72C53.78 82.66 53.50 82.94 52.42 83.02C51.34 83.09 47.66 83.09 43.92 82.94C44.78 84.67 45.65 87.41 45.94 89.28C51.12 89.28 54.72 89.21 57.10 88.20C59.40 87.19 60.12 85.39 60.12 81.79L60.12 65.02L68.62 65.02L68.62 58.90L60.12 58.90ZM50.90 31.90L50.90 23.40L44.50 23.40L44.50 31.90L26.06 31.90L26.06 38.09L44.50 38.09L44.50 45.43L29.74 45.43L29.74 51.55L65.74 51.55L65.74 45.43L50.90 45.43L50.90 38.09L68.98 38.09L68.98 31.90Z"/></svg>
