<svg xmlns="http://www.w3.org/2000/svg" xmlns:xlink="http://www.w3.org/1999/xlink" width="72.00000000000001" height="106.56000000000002"><path fill="red" stroke="red" d="M24.26 53.28L17.71 55.22L17.71 43.34L24.91 43.34L24.91 37.15L17.71 37.15L17.71 23.18L11.59 23.18L11.59 37.15L3.24 37.15L3.24 43.34L11.59 43.34L11.59 57.02C8.06 58.03 4.82 58.90 2.23 59.54L3.74 66.02L11.59 63.65L11.59 81.79C11.59 82.80 11.23 83.02 10.30 83.02C9.50 83.09 6.84 83.09 3.96 83.02C4.82 84.74 5.62 87.62 5.76 89.21C10.37 89.21 13.18 88.99 15.12 87.91C17.06 86.90 17.71 85.10 17.71 81.79L17.71 61.63C20.16 60.91 22.68 60.12 25.13 59.33ZM49.68 36.50L49.68 46.37C49.68 51.62 50.83 53.78 56.52 53.78L63.58 53.78C65.30 53.78 67.10 53.71 68.11 53.42C67.97 51.91 67.82 49.90 67.61 48.31C66.60 48.53 64.58 48.67 63.43 48.67L57.17 48.67C55.87 48.67 55.66 48.10 55.66 46.44L55.66 36.50L61.99 36.50L61.99 43.63L68.11 43.63L68.11 30.96L50.26 30.96C49.54 28.51 48.38 25.27 47.30 22.68L40.54 23.98C41.26 26.06 42.19 28.73 42.77 30.96L26.14 30.96L26.14 43.63L31.97 43.63L31.97 36.50L38.81 36.50C37.94 43.70 35.50 47.88 25.06 50.11C26.28 51.19 27.79 53.57 28.37 55.01C40.82 51.91 44.06 46.22 45.07 36.50ZM39.31 81.72C36.50 81.72 34.78 81.14 34.78 79.63C34.78 77.62 36.65 74.88 60.91 60.62C61.42 60.26 61.70 59.83 61.99 59.40L57.74 56.95L56.30 57.10L28.66 57.10L28.66 62.78L46.15 62.78C29.23 73.73 28.37 77.18 28.37 80.35C28.37 84.96 31.75 87.77 39.60 87.77L59.18 87.77C65.88 87.77 68.40 85.82 69.05 74.16C67.25 73.80 65.09 73.01 63.43 72.14C63.14 80.71 62.21 81.72 59.62 81.72Z"/></svg>
