<svg xmlns="http://www.w3.org/2000/svg" xmlns:xlink="http://www.w3.org/1999/xlink" width="72.00000000000001" height="106.56000000000002"><path fill="red" stroke="red" d="M68.04 31.25L49.68 31.25C48.89 28.73 47.30 25.42 45.86 22.82L39.82 24.55C40.75 26.57 41.90 29.09 42.70 31.25L23.33 31.25L23.33 37.22L68.04 37.22ZM60.84 50.62C60.12 53.64 59.18 56.52 58.10 59.33C56.95 57.31 54.65 54.58 52.70 52.56L48.74 54.94C50.76 57.24 53.21 60.41 54.29 62.57L57.74 60.19C56.45 63.43 54.79 66.53 53.06 69.19C50.40 65.23 48.38 60.77 46.87 56.02C47.66 54.29 48.53 52.49 49.32 50.62ZM63.79 45.14L62.71 45.36L51.26 45.36C51.91 43.49 52.49 41.62 52.99 39.67L47.09 38.45C44.64 48.17 40.32 57.46 34.56 63.36L34.56 51.62C36.36 47.88 37.94 43.85 39.24 39.74L33.34 38.38C31.18 46.15 27.36 53.57 22.68 59.11L21.74 53.93L16.56 55.80L16.56 43.34L22.46 43.34L22.46 37.15L16.56 37.15L16.56 23.18L10.44 23.18L10.44 37.15L3.60 37.15L3.60 43.34L10.44 43.34L10.44 57.89C7.63 58.90 5.04 59.76 2.88 60.41L4.61 66.82L10.44 64.66L10.44 81.72C10.44 82.66 10.08 82.87 9.22 82.94C8.50 82.94 5.98 83.02 3.31 82.87C4.18 84.67 4.97 87.48 5.11 89.14C9.43 89.14 12.17 88.92 14.11 87.77C15.91 86.83 16.56 84.96 16.56 81.72L16.56 62.35L21.38 60.48C20.95 60.91 20.52 61.34 20.09 61.78C21.46 62.93 23.47 65.38 24.34 66.67C25.92 65.09 27.29 63.29 28.73 61.42L28.73 89.06L34.56 89.06L34.56 63.79C35.86 65.02 37.80 67.25 38.59 68.33C40.25 66.53 41.90 64.44 43.34 62.14C45.00 66.46 47.02 70.42 49.39 74.02C45.43 78.70 40.75 82.22 35.78 84.53C37.01 85.61 38.66 87.84 39.46 89.42C44.42 86.90 49.03 83.45 52.99 78.98C56.52 83.23 60.70 86.69 65.38 89.14C66.38 87.48 68.18 85.10 69.62 83.95C64.66 81.72 60.41 78.34 56.81 74.16C61.85 66.96 65.59 57.82 67.61 46.44Z"/></svg>
