<svg xmlns="http://www.w3.org/2000/svg" xmlns:xlink="http://www.w3.org/1999/xlink" width="72.00000000000001" height="106.56000000000002"><path fill="red" stroke="red" d="M61.92 23.98C53.35 26.50 38.45 28.30 25.78 29.09C26.50 30.60 27.29 32.98 27.50 34.56C40.54 33.84 56.02 32.11 66.38 29.16ZM58.61 53.57C61.70 49.18 65.52 42.26 68.47 36.22L62.21 33.91C60.12 39.31 56.38 46.80 53.42 51.41ZM50.04 48.02C49.82 44.57 48.31 39.17 46.58 34.99L40.97 36.00C42.62 40.32 43.92 45.94 44.06 49.32ZM37.30 50.04C36.65 46.44 34.42 40.90 32.11 36.72L26.78 38.23C29.02 42.48 30.96 48.24 31.54 51.84ZM24.26 53.21L17.71 55.15L17.71 43.27L24.91 43.27L24.91 37.08L17.71 37.08L17.71 23.18L11.59 23.18L11.59 37.08L3.24 37.08L3.24 43.27L11.59 43.27L11.59 56.95C8.06 57.96 4.82 58.90 2.23 59.54L3.74 66.02C6.12 65.23 8.78 64.44 11.59 63.58L11.59 81.79C11.59 82.80 11.23 83.02 10.30 83.02C9.50 83.09 6.84 83.09 3.96 83.02C4.82 84.74 5.62 87.62 5.76 89.21C10.37 89.21 13.18 88.99 15.12 87.98C17.06 86.90 17.71 85.10 17.71 81.79L17.71 61.70C20.16 60.91 22.68 60.12 25.13 59.33ZM68.18 64.30L68.18 58.46L50.26 58.46L50.26 50.76L43.92 50.76L43.92 58.46L26.35 58.46L26.35 64.30L40.10 64.30C35.93 70.85 29.02 76.97 22.03 80.21C23.54 81.36 25.49 83.74 26.57 85.32C33.05 81.79 39.38 75.67 43.92 68.69L43.92 88.70L50.26 88.70L50.26 68.83C54.43 75.46 60.19 81.50 65.81 85.03C66.82 83.52 68.83 81.22 70.20 80.06C64.08 76.75 57.74 70.70 53.86 64.30Z"/></svg>
