<svg xmlns="http://www.w3.org/2000/svg" xmlns:xlink="http://www.w3.org/1999/xlink" width="72.00000000000001" height="106.56000000000002"><path fill="red" stroke="red" d="M24.84 53.86L17.57 55.94L17.57 43.34L24.34 43.34L24.34 37.15L17.57 37.15L17.57 23.26L11.45 23.26L11.45 37.15L3.24 37.15L3.24 43.34L11.45 43.34L11.45 57.74C7.99 58.75 4.82 59.62 2.23 60.26L3.74 66.74L11.45 64.37L11.45 81.14C11.45 82.15 11.09 82.44 10.22 82.44C9.43 82.44 6.70 82.44 3.82 82.37C4.68 84.10 5.47 86.98 5.69 88.56C10.15 88.56 13.10 88.34 15.05 87.26C16.92 86.26 17.57 84.46 17.57 81.14L17.57 62.50C20.23 61.63 23.04 60.77 25.70 59.90ZM36.94 76.61C33.84 79.27 27.72 82.66 22.75 84.53C24.12 85.68 26.14 87.62 27.22 88.85C31.97 86.90 38.30 83.52 42.48 80.42ZM56.59 53.42L36.43 53.42L36.43 49.18L56.59 49.18ZM56.59 62.28L36.43 62.28L36.43 58.03L56.59 58.03ZM56.59 71.21L36.43 71.21L36.43 66.82L56.59 66.82ZM62.93 44.35L30.38 44.35L30.38 76.03L62.93 76.03ZM49.97 81.72C54.86 83.74 61.63 86.98 64.94 89.06L67.68 83.52C64.22 81.43 57.46 78.48 52.56 76.75ZM49.54 35.86L49.54 29.81L64.58 29.81L64.58 24.70L28.30 24.70L28.30 29.81L43.49 29.81L43.49 35.86L25.99 35.86L25.99 40.97L68.18 40.97L68.18 35.86Z"/></svg>
