<svg xmlns="http://www.w3.org/2000/svg" xmlns:xlink="http://www.w3.org/1999/xlink" width="72.00000000000001" height="106.56000000000002"><path fill="red" stroke="red" d="M24.34 60.41L23.40 54.43L17.42 56.16L17.42 43.34L23.62 43.34L23.62 37.15L17.42 37.15L17.42 23.26L11.30 23.26L11.30 37.15L3.67 37.15L3.67 43.34L11.30 43.34L11.30 57.89C8.06 58.82 5.11 59.69 2.59 60.19L4.25 66.74C6.41 66.10 8.86 65.30 11.30 64.51L11.30 81.14C11.30 82.15 10.94 82.44 10.01 82.44C9.22 82.44 6.55 82.44 3.67 82.37C4.54 84.10 5.33 86.98 5.47 88.56C10.01 88.56 12.89 88.34 14.83 87.26C16.78 86.26 17.42 84.46 17.42 81.14L17.42 62.64ZM54.22 71.86C52.85 74.16 51.05 76.18 48.38 77.90C45.00 76.90 41.47 75.96 38.16 75.17C39.02 74.16 40.03 73.08 40.97 71.86ZM33.70 54.07L43.56 54.07L43.56 57.67L33.70 57.67ZM59.83 54.07L59.83 57.67L49.75 57.67L49.75 54.07ZM34.99 42.41L34.99 38.66L43.56 38.66L43.56 42.41ZM43.56 31.54L43.56 34.99L34.99 34.99L34.99 31.54ZM58.39 31.54L58.39 34.99L49.75 34.99L49.75 31.54ZM49.75 42.41L49.75 38.66L58.39 38.66L58.39 42.41ZM69.05 71.86L69.05 66.67L62.28 66.67C62.50 65.81 62.71 64.87 62.86 64.01L56.88 64.01C56.66 64.87 56.45 65.81 56.23 66.67L44.78 66.67C45.86 65.09 46.87 63.50 47.81 61.92L66.02 61.92L66.02 49.75L49.75 49.75L49.75 46.66L64.37 46.66L64.37 39.38L68.47 39.38L68.47 34.34L64.37 34.34L64.37 27.29L49.75 27.29L49.75 23.04L43.56 23.04L43.56 27.29L29.23 27.29L29.23 34.34L24.77 34.34L24.77 39.38L29.23 39.38L29.23 46.66L43.56 46.66L43.56 49.75L27.72 49.75L27.72 61.92L40.90 61.92C39.96 63.50 38.95 65.09 37.80 66.67L24.34 66.67L24.34 71.86L33.91 71.86C32.18 74.02 30.31 76.03 28.73 77.69C32.69 78.62 37.15 79.78 41.54 81.07C37.08 82.51 31.39 83.66 23.98 84.38C24.98 85.61 26.06 87.84 26.50 89.28C36.65 87.98 43.92 86.18 49.25 83.52C54.86 85.39 59.98 87.41 63.50 89.14L68.11 84.89C64.51 83.30 59.83 81.50 54.72 79.85C57.31 77.54 59.18 74.88 60.48 71.86Z"/></svg>
