<svg xmlns="http://www.w3.org/2000/svg" xmlns:xlink="http://www.w3.org/1999/xlink" width="72.00000000000001" height="106.56000000000002"><path fill="red" stroke="red" d="M21.82 60.26L20.66 54.29L15.98 55.94L15.98 43.34L21.02 43.34L21.02 37.15L15.98 37.15L15.98 23.18L10.15 23.18L10.15 37.15L3.67 37.15L3.67 43.34L10.15 43.34L10.15 58.03C7.42 58.97 4.82 59.76 2.81 60.41L4.54 66.82C6.26 66.24 8.21 65.52 10.15 64.73L10.15 81.65C10.15 82.58 9.86 82.80 9.07 82.80C8.35 82.87 5.90 82.87 3.31 82.73C4.18 84.46 4.82 87.05 5.04 88.63C9.14 88.63 11.81 88.42 13.61 87.41C15.41 86.40 15.98 84.74 15.98 81.65L15.98 62.57ZM29.30 64.22C31.54 65.23 34.27 66.67 35.78 67.54L38.16 64.44L38.16 70.42C34.78 71.71 31.61 72.94 29.09 73.80C29.23 71.28 29.30 68.98 29.30 66.89ZM38.16 57.74L38.16 63.72C36.43 62.86 33.77 61.63 31.68 60.84L29.30 63.72L29.30 57.74ZM43.56 52.70L24.05 52.70L24.05 66.82C24.05 72.79 23.76 80.57 20.52 86.26C21.74 86.83 24.05 88.49 24.91 89.35C27.43 85.18 28.51 79.70 29.02 74.45L30.60 78.48C32.98 77.33 35.57 76.10 38.16 74.74L38.16 82.51C38.16 83.16 37.94 83.38 37.22 83.45C36.58 83.45 34.63 83.45 32.33 83.38C33.05 84.74 33.98 87.19 34.20 88.70C37.66 88.70 39.82 88.56 41.54 87.55C43.20 86.69 43.56 85.10 43.56 82.58ZM37.66 34.92C37.22 37.51 36.22 41.26 35.42 43.99L27.94 43.99L31.97 42.41C31.54 40.54 30.46 37.30 29.52 34.92L44.57 34.92L44.57 29.66L37.51 29.66C36.79 27.65 35.78 24.98 34.85 22.97L29.30 24.19C30.02 25.85 30.67 27.86 31.25 29.66L22.61 29.66L22.61 34.92L29.02 34.92L25.27 36.29C26.21 38.66 27.07 41.83 27.58 43.99L21.82 43.99L21.82 49.39L45.36 49.39L45.36 43.99L39.96 43.99C40.75 41.69 41.54 38.88 42.48 36.29ZM55.66 82.73C53.78 82.73 53.50 82.37 53.50 80.21L53.50 77.54L66.74 77.54L66.74 73.15L53.50 73.15L53.50 69.55L65.66 69.55L65.66 65.09L53.50 65.09L53.50 61.70L66.31 61.70L66.31 57.24L53.50 57.24L53.50 53.86L66.46 53.86L66.46 38.16L53.50 38.16L53.50 33.70L68.33 33.70L68.33 28.37L53.50 28.37L53.50 23.11L47.52 23.11L47.52 43.13L61.20 43.13L61.20 48.82L47.52 48.82L47.52 80.35C47.52 86.83 49.10 88.49 54.72 88.49L62.35 88.49C66.60 88.49 68.33 86.76 68.98 80.86C67.32 80.50 64.94 79.49 63.72 78.48C63.50 82.08 63.22 82.73 61.85 82.73Z"/></svg>
