<svg xmlns="http://www.w3.org/2000/svg" xmlns:xlink="http://www.w3.org/1999/xlink" width="72.00000000000001" height="106.56000000000002"><path fill="red" stroke="red" d="M57.67 42.55C56.66 50.26 55.01 56.88 52.56 62.64C50.11 56.59 48.31 49.82 47.09 42.55ZM31.18 51.98L29.95 52.34L21.53 52.34C22.97 50.90 24.41 49.39 25.78 47.81L37.44 47.81C36.36 50.04 35.06 52.13 33.70 53.93ZM20.88 35.93L27.00 35.93C25.63 38.02 24.19 40.10 22.54 41.98L20.88 41.98ZM69.05 42.55L69.05 36.29L48.89 36.29C50.04 32.40 50.90 28.30 51.62 24.19L44.86 23.11C43.49 32.04 41.04 40.68 37.58 47.59L37.58 41.98L30.38 41.98C33.77 37.37 36.65 32.26 38.95 26.71L32.76 24.91C31.39 28.30 29.66 31.54 27.86 34.56L27.86 30.24L20.88 30.24L20.88 23.18L14.69 23.18L14.69 30.24L5.83 30.24L5.83 35.93L14.69 35.93L14.69 41.98L2.95 41.98L2.95 47.81L17.06 47.81C12.74 51.91 7.70 55.44 2.30 58.10C3.67 59.33 5.98 61.92 6.91 63.22C9.79 61.56 12.60 59.69 15.26 57.67L24.84 57.67C22.54 59.76 20.02 61.92 17.64 63.36L17.64 67.97C12.10 68.62 6.98 69.12 2.95 69.55L3.67 75.53L17.64 73.87L17.64 82.37C17.64 83.16 17.42 83.38 16.42 83.38C15.55 83.45 12.46 83.45 9.22 83.38C10.08 84.96 10.94 87.34 11.23 89.06C15.77 89.06 19.01 89.06 21.17 88.06C23.33 87.19 23.90 85.54 23.90 82.51L23.90 73.08L37.37 71.42L37.30 65.74C32.83 66.24 28.30 66.82 23.90 67.25L23.90 64.87C27.65 62.21 31.46 58.75 34.42 55.44C35.93 56.59 37.73 58.32 38.59 59.26C40.10 57.17 41.54 54.94 42.84 52.42C44.28 58.82 46.22 64.66 48.60 69.91C44.71 75.67 39.38 80.14 32.26 83.38C33.48 84.82 35.50 87.84 36.22 89.42C42.91 86.04 48.10 81.72 52.20 76.54C55.58 81.72 59.76 86.04 64.94 89.14C66.02 87.26 68.11 84.67 69.70 83.38C64.15 80.50 59.76 75.89 56.30 70.20C60.41 62.71 63.00 53.64 64.58 42.55Z"/></svg>
