<svg xmlns="http://www.w3.org/2000/svg" xmlns:xlink="http://www.w3.org/1999/xlink" width="72.00000000000001" height="106.56000000000002"><path fill="red" stroke="red" d="M15.55 59.83L27.22 59.83L27.22 66.10L15.55 66.10ZM27.22 38.02L27.22 43.56L15.55 43.56L15.55 38.02ZM15.55 48.82L27.22 48.82L27.22 54.58L15.55 54.58ZM38.59 66.10L33.41 66.10L33.41 38.02L38.16 38.02L38.16 32.18L33.41 32.18L33.41 23.90L27.22 23.90L27.22 32.18L15.55 32.18L15.55 23.90L9.50 23.90L9.50 32.18L3.89 32.18L3.89 38.02L9.50 38.02L9.50 66.10L2.95 66.10L2.95 71.93L38.59 71.93ZM12.46 73.01C10.51 77.33 7.13 81.79 3.46 84.74C4.97 85.61 7.63 87.55 8.78 88.63C12.46 85.32 16.42 79.99 18.79 74.81ZM22.46 75.60C24.77 78.55 27.50 82.58 28.66 85.10L34.27 82.22C32.98 79.70 30.17 75.89 27.79 73.15ZM69.05 46.94L47.02 46.94L47.02 34.92C54.58 33.19 62.71 30.82 68.69 27.86L63.36 23.11C58.03 25.99 48.89 28.87 40.82 30.74L40.82 55.87C40.82 66.82 39.74 77.40 31.82 86.18C33.34 87.26 35.50 89.06 36.58 90.43C45.50 80.78 47.02 69.05 47.02 55.94L47.02 53.14L55.80 53.14L55.80 89.28L62.14 89.28L62.14 53.14L69.05 53.14Z"/></svg>
