<svg xmlns="http://www.w3.org/2000/svg" xmlns:xlink="http://www.w3.org/1999/xlink" width="72.00000000000001" height="106.56000000000002"><path fill="red" stroke="red" d="M11.88 69.98L11.88 55.01L20.95 55.01L20.95 69.98ZM20.95 34.85L20.95 49.10L11.88 49.10L11.88 34.85ZM69.19 40.75L69.19 34.56L41.62 34.56C42.77 31.32 43.85 27.94 44.64 24.55L38.09 23.04C35.93 32.40 32.18 41.83 27.36 47.95L27.36 28.80L5.54 28.80L5.54 81.43L11.88 81.43L11.88 76.03L27.36 76.03L27.36 49.03C28.87 50.26 31.03 52.49 31.97 53.64C34.56 50.11 37.01 45.72 39.17 40.75L42.19 40.75L42.19 89.21L48.82 89.21L48.82 71.50L68.26 71.50L68.26 65.45L48.82 65.45L48.82 55.73L67.68 55.73L67.68 49.68L48.82 49.68L48.82 40.75Z"/></svg>
