<svg xmlns="http://www.w3.org/2000/svg" xmlns:xlink="http://www.w3.org/1999/xlink" width="72.00000000000001" height="106.56000000000002"><path fill="red" stroke="red" d="M59.11 65.52L59.11 79.85L38.52 79.85L38.52 65.52ZM32.11 89.14L38.52 89.14L38.52 85.90L59.11 85.90L59.11 88.85L65.74 88.85L65.74 59.54L32.11 59.54ZM11.88 69.70L11.88 54.72L21.17 54.72L21.17 69.70ZM21.17 34.56L21.17 48.82L11.88 48.82L11.88 34.56ZM30.02 26.64L30.02 32.69L40.75 32.69C39.60 40.97 36.79 48.02 27.22 52.20L27.22 28.51L5.54 28.51L5.54 81.29L11.88 81.29L11.88 75.74L27.22 75.74L27.22 52.49C28.58 53.57 30.24 55.87 30.96 57.31C42.34 52.20 45.94 43.34 47.45 32.69L60.12 32.69C59.54 43.42 58.90 47.74 57.89 48.89C57.24 49.54 56.59 49.68 55.51 49.68C54.36 49.68 51.55 49.68 48.53 49.39C49.61 51.12 50.33 53.71 50.47 55.58C53.71 55.66 56.88 55.66 58.61 55.44C60.70 55.22 61.99 54.65 63.36 53.14C65.16 50.98 65.95 44.78 66.67 29.30C66.74 28.37 66.74 26.64 66.74 26.64Z"/></svg>
