<svg xmlns="http://www.w3.org/2000/svg" xmlns:xlink="http://www.w3.org/1999/xlink" width="72.00000000000001" height="106.56000000000002"><path fill="red" stroke="red" d="M53.86 31.25L17.35 31.25L17.35 28.66L53.86 28.66ZM53.86 37.01L17.35 37.01L17.35 34.34L53.86 34.34ZM60.34 25.42L11.16 25.42L11.16 40.32L60.34 40.32ZM10.51 53.64L32.54 53.64L32.54 65.09L38.74 65.09L38.74 53.64L61.13 53.64L61.13 59.76L67.03 59.76L67.03 49.46L38.74 49.46L38.74 46.94L63.94 46.94L63.94 42.62L8.28 42.62L8.28 46.94L32.54 46.94L32.54 49.46L4.82 49.46L4.82 59.76L10.51 59.76ZM12.74 66.24C18.14 65.30 24.48 64.15 30.96 62.93L30.82 59.83L29.45 60.05L30.53 56.66C26.78 55.73 19.94 54.72 14.83 54.22L13.68 57.17C18.86 57.89 25.63 59.11 29.38 60.05C22.68 60.98 16.13 61.99 11.38 62.50ZM60.91 66.89L11.52 66.89L11.52 70.92L60.91 70.92ZM40.10 63.07C46.58 63.72 55.15 65.16 59.76 66.24L60.91 62.71C56.16 61.63 47.59 60.48 41.26 60.05ZM56.66 54.22C52.42 55.15 45.07 56.45 40.18 56.95L41.83 59.54C46.87 59.18 53.93 58.39 58.75 57.17ZM20.66 83.45C23.40 81.94 26.28 79.99 29.02 77.98L45.94 77.98L43.92 79.27C45.72 80.14 47.59 81.22 49.61 82.37ZM67.75 73.58L4.18 73.58L4.18 77.98L20.09 77.98C17.50 79.78 15.05 81.22 14.04 81.72C12.46 82.51 11.16 83.09 10.01 83.30C10.73 84.82 11.66 87.70 12.02 88.99C14.40 88.13 18.00 87.98 55.58 86.26C57.31 87.26 58.75 88.42 59.90 89.35L64.58 86.04C61.49 83.74 56.30 80.50 51.48 77.98L67.75 77.98Z"/></svg>
