<svg xmlns="http://www.w3.org/2000/svg" xmlns:xlink="http://www.w3.org/1999/xlink" width="72.00000000000001" height="106.56000000000002"><path fill="red" stroke="red" d="M19.01 30.17L52.63 30.17L52.63 46.15L59.18 46.15L59.18 25.78L12.67 25.78L12.67 46.15L19.01 46.15ZM50.83 33.26L20.81 33.26L20.81 37.37L50.83 37.37ZM20.66 44.71L50.76 44.71L50.76 40.68L20.66 40.68ZM57.89 58.03L47.23 58.03L47.23 53.06L57.89 53.06ZM40.82 58.03L30.38 58.03L30.38 53.06L40.82 53.06ZM23.90 58.03L13.68 58.03L13.68 53.06L23.90 53.06ZM64.51 48.67L7.42 48.67L7.42 62.50L64.51 62.50ZM49.97 71.14C46.37 73.94 41.83 76.10 36.43 77.90C30.60 76.10 25.49 73.87 21.67 71.14ZM57.10 65.45L55.94 65.81L7.42 65.81L7.42 71.14L15.41 71.14L13.82 71.93C17.35 75.31 21.89 78.12 27.07 80.42C19.58 81.94 11.38 82.87 3.24 83.30C4.25 84.82 5.33 87.55 5.69 89.21C16.34 88.42 27.14 86.83 36.58 83.95C45.36 86.62 55.30 88.13 65.66 88.85C66.53 87.19 68.04 84.46 69.34 83.02C61.13 82.58 53.21 81.65 46.08 80.28C52.42 77.26 57.67 73.30 61.34 68.18Z"/></svg>
