<svg xmlns="http://www.w3.org/2000/svg" xmlns:xlink="http://www.w3.org/1999/xlink" width="72.00000000000001" height="106.56000000000002"><path fill="red" stroke="red" d="M49.97 69.77L49.97 73.73L22.39 73.73L22.39 69.77ZM22.39 82.37L22.39 78.34L49.97 78.34L49.97 82.37ZM15.77 89.14L22.39 89.14L22.39 86.90L49.97 86.90L49.97 88.85L56.81 88.85L56.81 65.16L15.77 65.16ZM13.18 43.56C16.78 42.19 20.30 40.68 23.62 38.81L23.62 40.54L48.53 40.54L48.53 38.45C52.20 40.54 56.16 42.19 60.05 43.56ZM54.43 57.89L46.80 57.89C48.10 55.80 49.68 52.78 51.26 49.68L45.65 48.10C44.86 50.54 43.34 54.22 42.05 56.52L46.51 57.89L38.45 57.89L38.45 47.95L54.43 47.95ZM20.88 49.82C22.39 52.34 23.76 55.66 24.26 57.89L17.35 57.89L17.35 47.95L32.98 47.95L32.98 57.89L24.48 57.89L29.23 56.30C28.73 54.14 27.14 50.83 25.56 48.38ZM28.51 35.93C31.32 34.13 34.06 32.04 36.36 29.88C38.66 32.04 41.33 34.13 44.28 35.93ZM35.06 22.75C28.51 31.18 15.77 37.44 2.74 40.75C3.89 41.90 5.76 44.64 6.34 45.86C8.14 45.36 9.86 44.78 11.66 44.14L11.66 62.28L60.34 62.28L60.34 43.63C62.14 44.28 64.01 44.86 65.74 45.36C66.74 43.78 68.62 41.40 69.98 40.25C58.75 37.87 46.58 32.40 39.89 26.21C40.32 25.78 40.61 25.27 40.97 24.84Z"/></svg>
