<svg xmlns="http://www.w3.org/2000/svg" xmlns:xlink="http://www.w3.org/1999/xlink" width="72.00000000000001" height="106.56000000000002"><path fill="red" stroke="red" d="M28.15 58.18C27.00 56.23 22.10 48.67 19.94 45.72L19.94 43.06L26.50 43.06L26.50 36.79L19.94 36.79L19.94 23.11L13.68 23.11L13.68 36.79L4.39 36.79L4.39 43.06L13.18 43.06C11.02 52.27 6.77 63.00 2.30 68.69C3.46 70.49 4.97 73.44 5.62 75.31C8.57 70.99 11.45 64.44 13.68 57.46L13.68 89.14L19.94 89.14L19.94 54.14C21.60 57.38 23.26 60.77 24.12 62.78ZM33.19 47.38C38.23 43.92 42.98 39.31 46.58 34.49C49.97 39.60 54.72 43.99 60.12 47.38ZM61.99 53.35L61.99 48.53C63.36 49.18 64.66 49.90 66.02 50.47C67.03 48.89 69.12 46.51 70.56 45.36C60.26 41.76 51.70 33.91 48.31 24.62L34.42 24.62L34.42 29.95L42.70 29.95C38.02 36.72 30.24 42.84 22.75 45.72C24.26 47.09 26.06 49.39 27.00 51.05C28.44 50.33 29.88 49.54 31.32 48.67L31.32 53.35L43.49 53.35L43.49 62.28L28.58 62.28L28.58 68.69L43.49 68.69L43.49 79.70L25.06 79.70L25.06 86.04L68.18 86.04L68.18 79.70L50.11 79.70L50.11 68.69L65.30 68.69L65.30 62.28L50.11 62.28L50.11 53.35Z"/></svg>
