<svg xmlns="http://www.w3.org/2000/svg" xmlns:xlink="http://www.w3.org/1999/xlink" width="72.00000000000001" height="106.56000000000002"><path fill="red" stroke="red" d="M56.16 43.70C55.08 45.79 53.64 48.02 52.13 50.04L41.11 50.62C43.56 46.94 46.51 42.19 48.82 38.45L68.76 38.45L68.76 32.33L53.78 32.33C53.28 29.66 51.55 25.70 49.75 22.68L43.49 24.62C44.71 27.00 45.94 29.95 46.58 32.33L28.73 32.33L28.73 38.45L41.76 38.45C39.31 42.34 35.86 47.95 34.63 49.25C33.34 50.62 31.03 51.12 29.52 51.48C30.02 52.92 31.03 56.09 31.32 57.60C32.69 57.10 34.99 56.74 46.87 55.80C41.76 60.84 35.28 65.16 28.37 68.18C29.52 69.48 31.32 71.86 32.04 73.37C45.07 67.32 56.16 57.02 62.50 45.79ZM28.01 58.18C26.78 56.23 21.60 48.24 19.73 45.58L19.73 42.91L27.36 42.91L27.36 36.72L19.73 36.72L19.73 23.18L13.32 23.18L13.32 36.72L4.18 36.72L4.18 42.91L13.03 42.91C11.02 52.20 6.84 63.00 2.38 68.69C3.60 70.49 5.04 73.44 5.76 75.31C8.50 71.28 11.23 65.02 13.32 58.32L13.32 89.21L19.73 89.21L19.73 53.86C21.46 57.17 23.18 60.77 24.05 62.86ZM60.98 56.81C54.94 68.47 41.40 78.62 24.77 83.66C25.99 85.10 27.86 87.70 28.66 89.28C37.51 86.33 45.43 82.15 52.13 76.97C56.74 80.86 61.70 85.46 64.30 88.56L69.48 84.10C66.67 81.07 61.42 76.61 56.74 72.94C61.20 68.83 64.94 64.30 67.82 59.26Z"/></svg>
