<svg xmlns="http://www.w3.org/2000/svg" xmlns:xlink="http://www.w3.org/1999/xlink" width="72.00000000000001" height="106.56000000000002"><path fill="red" stroke="red" d="M68.26 47.59L51.05 47.59L51.05 38.45L65.09 38.45L65.09 32.33L51.05 32.33L51.05 23.47L44.21 23.47L44.21 32.33L30.10 32.33L30.10 38.45L44.21 38.45L44.21 47.59L27.72 47.59L27.72 53.78L68.26 53.78ZM27.58 58.39C26.35 56.30 21.17 48.31 19.22 45.58L19.22 42.91L27.50 42.91L27.50 36.72L19.22 36.72L19.22 23.18L13.18 23.18L13.18 36.72L4.18 36.72L4.18 42.91L12.60 42.91C10.51 52.20 6.26 63.00 1.73 68.69C2.95 70.49 4.39 73.44 5.11 75.31C8.06 71.06 10.94 64.37 13.18 57.24L13.18 89.14L19.22 89.14L19.22 53.93C20.95 57.17 22.75 60.77 23.62 62.93ZM51.05 80.21L51.05 69.98L66.10 69.98L66.10 63.79L51.05 63.79L51.05 56.23L44.21 56.23L44.21 63.79L29.02 63.79L29.02 69.98L44.21 69.98L44.21 80.21L24.41 80.21L24.41 86.62L69.05 86.62L69.05 80.21Z"/></svg>
