<svg xmlns="http://www.w3.org/2000/svg" xmlns:xlink="http://www.w3.org/1999/xlink" width="72.00000000000001" height="106.56000000000002"><path fill="red" stroke="red" d="M19.58 42.91L27.65 42.91L27.65 36.72L19.58 36.72L19.58 23.18L12.74 23.18L12.74 36.72L3.24 36.72L3.24 42.91L12.31 42.91C10.37 52.20 6.41 63.00 2.23 68.69C3.38 70.49 4.90 73.44 5.54 75.38C8.21 71.21 10.73 65.02 12.74 58.39L12.74 89.21L19.58 89.21L19.58 54.07C21.46 58.03 23.54 62.42 24.48 64.94L28.66 60.12C27.43 57.67 21.31 47.66 19.58 45.14ZM51.84 54.86L51.84 68.40L44.64 68.40L44.64 54.86ZM56.52 73.08L56.52 50.11L39.96 50.11L39.96 76.82L44.64 76.82L44.64 73.08ZM57.74 38.45L38.81 38.45L38.81 43.92L57.74 43.92ZM66.96 26.35L29.81 26.35L29.81 89.28L35.93 89.28L35.93 32.54L60.55 32.54L60.55 81.22C60.55 82.30 60.19 82.58 59.26 82.66C58.32 82.66 55.08 82.66 51.98 82.51C52.92 84.31 53.71 87.48 53.93 89.28C58.68 89.28 62.06 89.14 64.22 87.98C66.31 86.90 66.96 84.82 66.96 81.36Z"/></svg>
