<svg xmlns="http://www.w3.org/2000/svg" xmlns:xlink="http://www.w3.org/1999/xlink" width="72.00000000000001" height="106.56000000000002"><path fill="red" stroke="red" d="M17.64 43.99L24.19 43.99L24.19 37.94L17.64 37.94L17.64 23.11L11.59 23.11L11.59 37.94L3.74 37.94L3.74 43.99L11.30 43.99C9.65 53.35 6.12 64.37 2.30 70.49C3.31 71.93 4.82 74.52 5.54 76.25C7.78 72.58 9.79 67.25 11.59 61.56L11.59 89.21L17.64 89.21L17.64 55.08C19.37 58.54 21.10 62.35 21.96 64.73L25.49 59.26C24.41 57.31 19.44 48.82 17.64 46.15ZM53.06 69.70C50.98 67.97 47.16 65.09 44.14 63.22L40.68 66.38C43.49 68.40 47.38 71.42 49.39 73.30ZM35.42 73.58C35.86 70.42 36.29 66.89 36.72 63.22L58.03 63.22C57.82 67.46 57.60 70.92 57.31 73.58ZM58.61 47.74C58.54 51.34 58.39 54.65 58.32 57.53L50.69 57.53L54.14 54.00C52.13 52.34 48.24 49.68 45.29 47.81L41.83 51.05C44.57 52.92 48.46 55.73 50.54 57.53L37.44 57.53C37.80 54.22 38.16 50.90 38.45 47.74ZM68.98 63.22L68.98 57.53L64.30 57.53C64.44 53.86 64.58 49.75 64.73 45.14L64.73 42.26L33.19 42.26C34.34 40.39 35.50 38.45 36.50 36.36L67.68 36.36L67.68 30.53L39.10 30.53C39.82 28.58 40.54 26.42 41.18 24.41L35.21 22.97C33.12 30.67 29.38 38.16 24.70 42.98C26.14 43.85 28.58 45.94 29.66 46.94C30.82 45.72 31.82 44.28 32.90 42.77C32.54 47.23 32.04 52.34 31.46 57.53L25.85 57.53L25.85 63.22L30.82 63.22C30.02 69.19 29.16 74.88 28.44 79.13L56.52 79.13C56.23 80.78 55.87 81.79 55.51 82.30C54.79 83.23 54.14 83.45 53.14 83.38C51.91 83.38 49.25 83.38 46.44 83.16C47.38 84.67 48.02 87.12 48.10 88.70C51.12 88.85 54.00 88.85 55.94 88.56C58.03 88.34 59.47 87.70 60.77 85.75C61.63 84.74 62.21 82.73 62.71 79.13L68.11 79.13L68.11 73.58L63.29 73.58C63.58 70.78 63.79 67.32 64.01 63.22Z"/></svg>
