<svg xmlns="http://www.w3.org/2000/svg" xmlns:xlink="http://www.w3.org/1999/xlink" width="72.00000000000001" height="106.56000000000002"><path fill="red" stroke="red" d="M12.17 38.95L60.05 38.95L60.05 48.10L66.53 48.10L66.53 33.12L55.51 33.12C57.17 30.89 58.97 28.15 60.70 25.49L53.71 23.33C52.42 26.28 50.26 30.24 48.24 33.12L39.02 33.12L39.02 23.18L32.33 23.18L32.33 33.12L18.86 33.12L23.04 31.32C21.96 29.16 19.73 25.99 17.78 23.62L11.74 25.92C13.39 28.01 15.26 30.96 16.42 33.12L6.05 33.12L6.05 48.10L12.17 48.10ZM24.41 72.29C19.73 76.97 10.73 81.07 2.59 83.02C4.10 84.24 6.05 86.83 7.06 88.49C15.55 85.97 24.62 80.57 29.88 74.38ZM22.82 48.38L48.89 48.38L48.89 54.72L22.82 54.72ZM67.46 71.28L67.46 65.30L39.24 65.30L39.24 59.90L55.51 59.90L55.51 43.13L16.63 43.13L16.63 59.90L32.47 59.90L32.47 65.30L4.68 65.30L4.68 71.28L32.47 71.28L32.47 89.28L39.24 89.28L39.24 71.28ZM42.98 75.74C50.11 79.49 59.26 85.10 63.65 88.85L68.62 84.38C63.94 80.64 54.58 75.31 47.59 71.86Z"/></svg>
