<svg xmlns="http://www.w3.org/2000/svg" xmlns:xlink="http://www.w3.org/1999/xlink" width="72.00000000000001" height="106.56000000000002"><path fill="red" stroke="red" d="M23.83 58.97C22.82 57.02 18.43 49.18 16.70 46.51L16.70 42.91L23.04 42.91L23.04 36.72L16.70 36.72L16.70 23.18L11.09 23.18L11.09 36.72L3.74 36.72L3.74 42.91L10.51 42.91C8.86 51.77 5.62 61.92 2.16 67.46C2.95 69.12 4.32 72.14 4.82 74.09C7.20 70.06 9.29 63.86 11.09 57.17L11.09 89.21L16.70 89.21L16.70 54.43C18.29 57.74 19.94 61.56 20.74 63.79ZM25.27 60.05C24.26 65.95 22.46 72.07 19.80 76.10C21.10 76.61 23.40 78.05 24.41 78.84C27.07 74.45 29.30 67.68 30.46 60.98ZM62.06 34.99C61.13 44.86 59.33 53.28 56.88 60.41C54.79 52.78 53.57 44.06 52.63 34.99ZM64.58 29.23L63.50 29.38L45.14 29.38L45.14 34.56L37.30 34.56L37.30 24.41L31.32 24.41L31.32 48.74L21.60 48.74L21.60 54.65L31.75 54.65L31.75 81.36C31.75 82.01 31.54 82.22 30.82 82.22C30.02 82.22 27.79 82.30 25.34 82.15C26.14 83.66 26.93 85.97 27.22 87.48C30.96 87.55 33.41 87.41 35.28 86.47C37.01 85.68 37.51 84.10 37.51 81.36L37.51 54.65L47.38 54.65L47.38 48.74L37.30 48.74L37.30 39.89L45.65 39.89L45.65 34.99L47.88 34.99L47.23 35.06C48.46 47.52 50.33 58.97 53.35 68.47C49.75 75.46 45.14 80.64 39.60 84.31C40.97 85.25 43.20 87.55 44.06 88.92C48.67 85.68 52.70 81.29 56.09 75.67C58.54 81.14 61.56 85.75 65.45 89.28C66.46 87.77 68.40 85.54 69.70 84.46C65.38 80.78 62.06 75.46 59.62 68.90C64.01 58.97 66.96 46.15 68.26 30.10ZM49.10 72.72C48.02 69.26 45.72 64.01 43.42 59.98L38.81 61.92C40.90 66.02 43.20 71.50 44.14 75.02Z"/></svg>
