<svg xmlns="http://www.w3.org/2000/svg" xmlns:xlink="http://www.w3.org/1999/xlink" width="72.00000000000001" height="106.56000000000002"><path fill="red" stroke="red" d="M26.21 61.70C25.13 59.76 20.30 51.91 18.36 49.18L18.36 44.42L25.49 44.42L25.49 38.30L18.36 38.30L18.36 23.11L12.31 23.11L12.31 38.30L3.82 38.30L3.82 44.42L11.74 44.42C9.86 53.57 6.19 64.22 2.30 70.20C3.24 71.57 4.68 74.09 5.40 75.82C7.99 71.71 10.37 65.45 12.31 58.82L12.31 89.14L18.36 89.14L18.36 56.74C20.16 60.19 22.03 64.15 22.97 66.46ZM39.82 41.04L33.05 41.04L33.05 31.90L39.82 31.90ZM33.05 71.86L33.05 61.49L39.82 61.49L39.82 70.92ZM39.82 55.87L33.05 55.87L33.05 46.58L39.82 46.58ZM23.98 31.90L27.50 31.90L27.50 72.65L22.46 73.30L23.76 79.34C28.44 78.55 34.13 77.62 39.82 76.61L39.82 89.28L45.36 89.28L45.36 31.90L48.10 31.90L48.10 26.14L23.98 26.14ZM64.58 25.85L63.79 26.06L49.75 26.06L49.75 89.21L55.44 89.21L55.44 31.68L62.06 31.68C60.98 37.15 59.62 43.42 57.96 49.97C61.99 57.10 63.50 61.63 63.50 65.88C63.50 68.33 63.14 70.92 62.28 71.78C61.85 72.14 61.20 72.29 60.48 72.36C59.69 72.36 58.46 72.36 57.24 72.22C58.10 73.80 58.61 76.10 58.61 77.62C60.05 77.69 61.56 77.69 62.64 77.54C64.01 77.33 65.23 76.82 66.02 76.10C68.04 74.38 68.98 70.56 68.98 66.02C68.98 61.42 67.10 56.45 63.07 49.32C65.30 41.62 67.18 34.06 68.69 27.94Z"/></svg>
