<svg xmlns="http://www.w3.org/2000/svg" xmlns:xlink="http://www.w3.org/1999/xlink" width="72.00000000000001" height="106.56000000000002"><path fill="red" stroke="red" d="M60.26 40.68L54.36 40.68L54.36 32.18L60.26 32.18ZM49.61 40.68L43.78 40.68L43.78 32.18L49.61 32.18ZM39.02 40.68L33.41 40.68L33.41 32.18L39.02 32.18ZM66.10 26.57L27.79 26.57L27.79 46.37L66.10 46.37ZM25.34 59.40C24.26 57.24 19.51 48.24 17.86 45.58L17.86 42.91L24.70 42.91L24.70 36.72L17.86 36.72L17.86 23.18L11.59 23.18L11.59 36.72L3.96 36.72L3.96 42.91L11.59 42.91L11.59 43.92C9.72 52.92 5.98 63.22 2.09 68.76C3.17 70.42 4.68 73.44 5.33 75.38C7.56 71.71 9.79 66.24 11.59 60.26L11.59 89.21L17.86 89.21L17.86 55.08C19.30 58.32 20.59 61.78 21.24 63.94ZM42.91 58.82L68.33 58.82L68.33 52.92L51.12 52.92C50.47 50.98 49.10 48.38 47.88 46.44L41.69 47.88C42.62 49.39 43.49 51.26 44.14 52.92L25.42 52.92L25.42 58.82L36.50 58.82L36.50 60.48C36.50 67.03 34.70 77.40 22.10 84.67C23.54 85.75 25.85 87.91 26.86 89.35C35.78 84.02 39.89 76.82 41.62 70.42L56.52 70.42C56.02 77.98 55.30 81.14 54.43 82.15C53.78 82.80 53.06 82.87 51.98 82.87C50.83 82.87 47.88 82.80 44.78 82.51C45.79 84.24 46.58 86.83 46.73 88.70C50.11 88.85 53.35 88.85 55.08 88.63C57.17 88.49 58.54 87.91 59.90 86.47C61.70 84.46 62.57 79.34 63.29 67.18C63.36 66.24 63.43 64.58 63.43 64.58L59.18 64.58L59.18 64.51L42.77 64.51C42.84 63.14 42.91 61.85 42.91 60.77Z"/></svg>
