<svg xmlns="http://www.w3.org/2000/svg" xmlns:xlink="http://www.w3.org/1999/xlink" width="72.00000000000001" height="106.56000000000002"><path fill="red" stroke="red" d="M50.33 34.20L50.33 41.26C50.33 46.66 51.55 48.74 57.02 48.74L63.14 48.74C64.73 48.74 66.46 48.67 67.46 48.31C67.25 46.87 67.03 44.71 66.89 43.13C65.95 43.42 64.08 43.56 63.00 43.56L57.60 43.56C56.38 43.56 56.23 42.98 56.23 41.26L56.23 34.20L61.99 34.20L61.99 40.10L67.82 40.10L67.82 28.94L51.26 28.94C50.62 26.93 49.54 24.41 48.60 22.46L41.98 23.83C42.62 25.42 43.27 27.22 43.85 28.94L27.29 28.94L27.29 41.11L32.90 41.11L32.90 34.20L39.46 34.20C38.66 40.82 36.07 44.28 26.35 46.37C27.50 47.45 28.94 49.68 29.52 51.05C41.04 48.24 44.28 43.06 45.29 34.20ZM26.50 56.74C25.42 55.01 20.81 48.46 18.65 45.79L18.65 44.06L25.42 44.06L25.42 37.87L18.65 37.87L18.65 23.18L12.53 23.18L12.53 37.87L3.89 37.87L3.89 44.06L12.17 44.06C10.15 52.85 6.12 62.86 1.94 68.40C2.95 69.98 4.39 72.50 5.04 74.30C7.78 70.49 10.44 64.66 12.53 58.46L12.53 89.14L18.65 89.14L18.65 53.57C20.38 56.45 22.10 59.62 22.97 61.49ZM68.76 58.75L68.76 53.28L43.27 53.28C43.85 52.20 44.42 51.12 44.93 50.11L38.81 48.24C35.57 55.22 30.17 61.99 24.26 66.24C25.70 67.10 28.37 69.12 29.52 70.20C33.05 67.18 36.72 63.14 39.82 58.75L40.75 58.75L40.75 89.06L47.09 89.06L47.09 80.21L67.10 80.21L67.10 74.95L47.09 74.95L47.09 69.41L65.16 69.41L65.16 64.15L47.09 64.15L47.09 58.75Z"/></svg>
