<svg xmlns="http://www.w3.org/2000/svg" xmlns:xlink="http://www.w3.org/1999/xlink" width="72.00000000000001" height="106.56000000000002"><path fill="red" stroke="red" d="M31.03 48.82L36.43 48.82L36.43 54.07L31.03 54.07ZM36.50 30.17L36.50 35.14L31.03 35.14L31.03 30.17ZM41.47 44.50L31.03 44.50L31.03 39.46L41.47 39.46ZM47.74 54.07L41.18 54.07L41.18 48.82L45.94 48.82L45.94 46.37C47.45 47.09 49.54 48.38 50.54 49.10C52.20 46.37 53.78 42.98 55.15 39.17L68.47 39.17L68.47 33.41L57.02 33.41C57.82 30.46 58.54 27.43 59.11 24.41L53.21 23.26C51.77 31.32 49.32 39.46 45.94 45.00L45.94 35.14L41.18 35.14L41.18 30.17L46.94 30.17L46.94 25.13L25.78 25.13L25.78 59.11L47.74 59.11ZM67.97 55.87L67.97 50.04L51.48 50.04L51.48 55.87ZM24.91 57.89C23.98 56.23 19.87 49.68 17.93 46.73L17.93 42.91L23.76 42.91L23.76 36.72L17.93 36.72L17.93 23.18L12.02 23.18L12.02 36.72L3.67 36.72L3.67 42.91L11.02 42.91C9.43 51.55 6.34 61.92 2.88 67.39C3.82 69.05 5.33 72.00 5.98 73.87C8.21 69.84 10.30 63.79 12.02 57.31L12.02 89.21L17.93 89.21L17.93 54.72C19.37 57.60 20.81 60.70 21.53 62.42ZM34.06 67.75L39.60 67.75L39.60 81.79L34.06 81.79ZM49.54 67.75L49.54 81.79L43.92 81.79L43.92 67.75ZM59.54 67.75L59.54 81.79L53.86 81.79L53.86 67.75ZM65.16 81.79L65.16 62.42L28.73 62.42L28.73 81.79L22.18 81.79L22.18 87.48L68.83 87.48L68.83 81.79Z"/></svg>
