<svg xmlns="http://www.w3.org/2000/svg" xmlns:xlink="http://www.w3.org/1999/xlink" width="72.00000000000001" height="106.56000000000002"><path fill="red" stroke="red" d="M57.67 41.04C55.80 46.30 53.42 51.70 51.12 55.37L57.10 57.96C60.77 52.34 64.44 43.78 67.03 35.93L61.78 34.06L60.55 34.42L23.04 34.42C24.26 31.03 25.42 27.50 26.42 23.90L19.22 22.39C16.20 34.42 10.87 46.01 3.89 53.06C5.69 54.00 8.86 56.16 10.15 57.31C13.90 53.06 17.28 47.38 20.23 41.04ZM39.10 44.93L32.18 44.93L32.18 49.54C32.18 59.26 30.02 74.52 3.02 83.88C4.54 85.18 6.62 87.70 7.42 89.21C25.27 82.94 33.12 73.87 36.58 65.02C42.05 77.26 50.76 85.46 64.80 89.21C65.74 87.34 67.68 84.60 69.12 83.09C52.63 79.42 43.34 69.26 38.88 54.50C39.02 52.85 39.10 51.19 39.10 49.68Z"/></svg>
