<svg xmlns="http://www.w3.org/2000/svg" xmlns:xlink="http://www.w3.org/1999/xlink" width="72.00000000000001" height="106.56000000000002"><path fill="red" stroke="red" d="M40.75 81.50C35.86 81.50 35.06 80.78 35.06 76.82L35.06 68.33L67.25 64.08L66.31 57.82L35.06 61.78L35.06 51.98L62.57 48.17L61.63 41.90L35.06 45.50L35.06 35.57C44.14 33.77 52.70 31.46 59.69 28.80L54.07 23.40C42.77 28.08 22.82 31.97 5.11 34.20C5.90 35.71 6.84 38.45 7.13 40.18C13.97 39.31 21.10 38.16 28.15 36.94L28.15 46.51L6.62 49.39L7.56 55.80L28.15 52.99L28.15 62.64L4.32 65.66L5.26 72.22L28.15 69.19L28.15 76.75C28.15 85.68 30.82 88.06 40.32 88.06L57.53 88.06C65.88 88.06 68.11 84.67 69.12 74.45C67.18 74.02 64.30 72.86 62.57 71.71C61.99 79.78 61.34 81.50 57.10 81.50Z"/></svg>
