<svg xmlns="http://www.w3.org/2000/svg" xmlns:xlink="http://www.w3.org/1999/xlink" width="72.00000000000001" height="106.56000000000002"><path fill="red" stroke="red" d="M66.89 33.48L66.89 28.94L22.10 28.94C22.90 27.50 23.54 26.14 24.12 24.62L17.78 23.04C14.62 30.82 9.14 38.16 2.95 42.84C4.46 43.70 7.20 45.58 8.42 46.66C12.38 43.27 16.27 38.59 19.58 33.48ZM61.56 40.54L61.56 36.50L19.80 36.50L19.80 40.54ZM6.34 58.97L20.38 58.97C17.57 61.06 14.83 62.57 13.75 63.14C12.24 64.01 10.80 64.58 9.65 64.73C10.22 66.24 11.02 68.90 11.30 70.06C12.53 69.55 14.33 69.19 25.34 68.54C19.80 71.50 13.03 73.80 6.12 75.17C7.27 76.39 8.57 78.19 9.22 79.63C22.03 76.54 33.77 70.99 40.39 62.86L35.50 60.77C34.56 61.85 33.48 63.00 32.18 64.01L19.87 64.58C22.75 62.93 25.70 61.06 28.44 58.97L48.67 58.97L48.67 53.93L32.18 53.93C31.54 52.20 30.74 50.11 29.88 48.46L24.05 50.26C24.48 51.34 25.06 52.63 25.56 53.93L6.34 53.93ZM42.41 66.17C35.21 75.24 21.02 81.43 5.69 84.53C6.91 85.82 8.28 87.84 8.93 89.35C18.00 87.26 26.64 84.24 33.77 80.14C38.45 82.66 44.14 86.26 47.02 88.70L50.98 84.24C48.10 82.01 43.20 79.06 38.88 76.82C42.26 74.38 45.22 71.64 47.59 68.62ZM11.74 43.70L11.74 48.31L50.54 48.31C51.05 71.57 52.85 89.28 63.14 89.28C67.68 89.28 69.05 85.61 69.62 75.96C68.26 75.10 66.60 73.58 65.38 72.14C65.23 78.70 64.80 83.02 63.50 83.02C58.32 83.02 56.88 64.15 56.81 43.70Z"/></svg>
