<svg xmlns="http://www.w3.org/2000/svg" xmlns:xlink="http://www.w3.org/1999/xlink" width="72.00000000000001" height="106.56000000000002"><path fill="red" stroke="red" d="M23.69 31.18C20.88 28.58 15.05 25.42 10.51 23.54L6.84 28.44C11.45 30.53 17.06 34.06 19.87 36.65ZM19.80 49.97C16.85 47.59 10.94 44.50 6.34 42.70L2.81 47.74C7.49 49.68 13.25 52.99 16.06 55.51ZM17.14 61.06C13.32 69.26 8.28 78.48 4.75 84.02L10.51 88.27C14.47 81.50 18.86 72.86 22.25 65.23ZM50.76 32.47C50.18 36.65 49.39 41.62 48.60 45.94L36.86 45.94C37.15 41.69 37.30 37.22 37.44 32.47ZM59.04 51.98C57.17 58.68 54.36 64.37 50.76 69.12C47.09 64.15 44.28 58.32 42.26 51.98ZM62.64 45.65L61.49 45.94L55.08 45.94C56.23 39.67 57.46 32.40 58.10 26.50L53.35 25.92L52.20 26.21L24.62 26.21L24.62 32.47L30.89 32.47C30.53 56.16 28.30 74.16 17.28 84.96C18.79 85.90 21.96 88.27 23.04 89.35C31.03 80.42 34.63 68.18 36.29 52.49C38.66 60.70 41.98 67.90 46.37 73.94C41.83 78.34 36.36 81.65 30.38 83.95C31.75 84.96 34.13 87.70 34.92 89.21C40.68 86.76 46.01 83.45 50.62 78.98C54.86 83.38 59.90 86.83 65.95 89.21C66.96 87.48 68.90 84.89 70.27 83.66C64.30 81.65 59.26 78.34 55.01 74.09C60.48 67.25 64.58 58.39 66.89 47.30Z"/></svg>
