<svg xmlns="http://www.w3.org/2000/svg" xmlns:xlink="http://www.w3.org/1999/xlink" width="72.00000000000001" height="106.56000000000002"><path fill="red" stroke="red" d="M48.89 41.47L48.89 48.17C48.89 53.71 50.26 55.73 56.02 55.73L63.72 55.73C65.59 55.73 67.46 55.66 68.54 55.37C68.33 53.93 68.18 51.62 67.97 50.04C66.96 50.33 64.87 50.47 63.58 50.47L56.16 50.47C54.86 50.47 54.65 49.90 54.65 48.24L54.65 41.04L60.48 40.68C61.92 42.41 63.22 43.85 64.08 45.14L69.34 41.76C66.31 38.02 60.12 31.82 55.80 27.43L50.83 30.38C52.42 31.97 54.07 33.77 55.87 35.57L35.86 36.58C39.96 33.34 44.14 29.23 47.81 25.06L41.04 22.75C36.94 28.22 31.03 33.48 29.16 34.78C27.36 36.29 25.85 37.22 24.48 37.44C25.27 39.17 26.21 42.26 26.57 43.56C27.79 43.13 29.45 42.84 35.42 42.41C34.13 47.95 31.10 51.55 21.82 53.71C22.97 54.86 24.62 57.31 25.27 58.75C36.58 55.51 40.32 50.18 41.69 41.90ZM22.90 33.41C20.30 30.74 14.83 27.22 10.66 24.77L6.48 29.23C10.73 31.82 15.98 35.71 18.65 38.38ZM19.58 51.55C16.78 49.10 11.16 45.79 6.91 43.63L2.95 48.24C7.27 50.62 12.82 54.29 15.41 56.81ZM16.34 61.06C12.67 69.12 7.92 77.98 4.46 83.38L10.37 87.55C14.11 80.86 18.36 72.58 21.60 65.16ZM55.08 65.23C52.78 69.05 49.54 72.22 45.65 74.81C42.48 72.79 39.82 70.56 37.51 68.04C38.38 67.10 39.17 66.24 39.96 65.23ZM59.76 59.69L58.61 59.98L43.42 59.98C44.35 58.18 45.22 56.38 46.01 54.43L39.96 53.14C38.52 56.81 36.50 60.19 33.91 63.14C33.19 61.99 32.62 60.84 32.11 59.62L27.14 62.28C27.94 63.94 28.80 65.59 29.74 67.18C27.79 68.90 25.63 70.42 23.26 71.64C24.62 72.72 26.86 75.02 27.79 76.25C29.66 75.02 31.61 73.66 33.34 72.14C35.21 74.23 37.37 76.32 39.82 78.12C34.06 80.93 27.50 82.80 20.66 83.88C21.89 85.25 23.26 87.91 23.90 89.57C31.82 88.06 39.24 85.61 45.65 82.01C51.12 85.10 57.74 87.55 65.66 88.92C66.60 87.19 68.26 84.38 69.55 83.02C62.64 82.01 56.66 80.35 51.70 78.05C56.95 73.94 61.27 68.62 64.01 61.78Z"/></svg>
