<svg xmlns="http://www.w3.org/2000/svg" xmlns:xlink="http://www.w3.org/1999/xlink" width="72.00000000000001" height="106.56000000000002"><path fill="red" stroke="red" d="M23.83 31.32C20.74 29.09 14.69 25.99 10.22 23.90L6.55 28.87C11.02 31.03 16.99 34.49 19.94 36.79ZM19.51 50.62C16.49 48.38 10.51 45.29 6.12 43.42L2.52 48.46C7.06 50.54 12.89 53.86 15.77 56.23ZM17.57 61.20C13.39 69.48 7.78 78.62 3.96 84.02L9.58 88.49C13.82 81.72 18.65 73.22 22.39 65.59ZM32.98 55.80L57.96 55.80L57.96 61.27L32.98 61.27ZM32.98 45.58L57.96 45.58L57.96 50.90L32.98 50.90ZM68.83 72.36L48.38 72.36L48.38 66.53L64.73 66.53L64.73 40.32L48.10 40.32L48.10 34.78L67.68 34.78L67.68 29.09L48.10 29.09L48.10 23.18L41.47 23.18L41.47 40.32L26.50 40.32L26.50 66.53L41.76 66.53L41.76 72.36L21.89 72.36L21.89 78.41L41.76 78.41L41.76 89.50L48.38 89.50L48.38 78.41L68.76 78.41Z"/></svg>
