<svg xmlns="http://www.w3.org/2000/svg" xmlns:xlink="http://www.w3.org/1999/xlink" width="72.00000000000001" height="106.56000000000002"><path fill="red" stroke="red" d="M68.26 29.45L49.18 29.45C48.53 27.29 47.38 24.62 46.01 22.68L40.25 24.34C41.04 25.85 41.90 27.65 42.48 29.45L23.76 29.45L23.76 35.06L68.26 35.06ZM35.06 43.34L56.59 43.34L56.59 49.54L35.06 49.54ZM63.07 54.29L63.07 38.59L28.94 38.59L28.94 54.29ZM18.65 50.18C15.98 47.95 10.51 45.07 6.34 43.49L2.81 48.46C7.06 50.33 12.38 53.35 14.90 55.66ZM11.16 87.84C14.76 81.22 18.72 72.58 21.74 65.09L16.56 60.98C13.10 69.12 8.50 78.26 5.26 83.81ZM6.84 28.87C10.87 30.74 15.84 33.77 18.22 36.14L22.10 30.74C19.66 28.44 14.54 25.63 10.51 23.98ZM68.98 70.13L49.32 70.13L49.32 68.69C54.65 66.60 60.26 63.79 64.44 60.77L60.48 57.38L59.11 57.74L26.93 57.74L26.93 62.93L50.90 62.93C48.24 64.22 45.36 65.45 42.77 66.31L42.77 70.13L22.46 70.13L22.46 75.46L42.77 75.46L42.77 82.22C42.77 83.16 42.48 83.38 41.33 83.45C40.32 83.52 36.36 83.52 32.47 83.38C33.34 84.96 34.13 87.34 34.49 88.99C39.96 88.99 43.70 88.99 46.15 88.13C48.67 87.26 49.32 85.68 49.32 82.44L49.32 75.46L68.98 75.46Z"/></svg>
