<svg xmlns="http://www.w3.org/2000/svg" xmlns:xlink="http://www.w3.org/1999/xlink" width="72.00000000000001" height="106.56000000000002"><path fill="red" stroke="red" d="M23.11 31.10C20.30 28.58 14.83 25.49 10.44 23.62L6.77 28.51C11.23 30.60 16.56 33.98 19.15 36.58ZM19.37 49.82C16.56 47.45 10.80 44.50 6.41 42.77L2.74 47.81C7.27 49.75 12.89 52.99 15.48 55.44ZM17.14 61.13C13.32 69.34 8.35 78.48 4.82 83.95L10.66 88.20C14.54 81.36 18.86 72.86 22.25 65.30ZM55.37 67.68C53.21 70.34 50.18 72.72 46.73 74.81C45.29 72.94 44.06 70.78 42.98 68.40L68.90 66.53L68.54 60.84L55.44 61.70L58.90 58.54C56.45 56.81 51.84 54.58 48.24 53.28L44.14 56.74C47.45 57.89 51.41 60.05 53.93 61.85L40.90 62.71C40.03 59.83 39.31 56.74 38.88 53.42L35.06 53.42C38.66 52.27 42.19 50.90 45.58 49.39C49.90 52.92 55.30 55.15 61.78 55.44C65.30 55.51 67.54 53.14 69.05 46.44C67.54 45.94 65.38 44.64 64.01 43.34C63.43 47.38 62.57 49.18 61.06 49.10C57.60 48.96 54.43 47.88 51.70 46.15C54.86 44.14 57.67 41.98 59.90 39.46L54.22 37.22C52.42 39.17 50.04 40.90 47.30 42.41C45.86 40.90 44.64 39.17 43.56 37.30L67.10 35.50L66.67 30.10L57.67 30.74L60.48 27.86C58.18 26.21 53.71 24.19 50.11 22.97L46.37 26.42C49.32 27.43 52.99 29.23 55.44 30.89L40.97 31.90C39.96 29.16 39.17 26.28 38.59 23.11L32.18 23.11C32.76 26.35 33.55 29.45 34.56 32.33L23.62 33.12L24.05 38.74L36.79 37.80C38.09 40.54 39.60 42.98 41.40 45.22C35.71 47.52 29.09 49.18 22.75 50.33C23.83 51.70 25.56 54.50 26.21 55.87C28.22 55.37 30.31 54.86 32.40 54.22C32.83 57.31 33.48 60.34 34.27 63.14L23.11 63.94L23.54 69.77L36.14 68.83C37.44 72.14 38.95 75.17 40.82 77.76C34.99 80.35 28.30 82.22 21.67 83.52C22.82 84.82 24.62 87.84 25.27 89.21C31.97 87.62 38.74 85.39 44.78 82.44C49.10 86.54 54.65 88.99 61.49 89.35C65.45 89.50 67.82 86.69 69.48 78.62C67.90 78.05 65.59 76.75 64.15 75.38C63.58 80.71 62.57 82.94 60.77 82.80C57.10 82.58 53.78 81.29 50.90 79.13C55.08 76.54 58.68 73.58 61.42 70.13Z"/></svg>
