<svg xmlns="http://www.w3.org/2000/svg" xmlns:xlink="http://www.w3.org/1999/xlink" width="72.00000000000001" height="106.56000000000002"><path fill="red" stroke="red" d="M65.30 26.64L58.90 26.64L58.90 38.45L48.46 38.45L48.46 23.04L42.12 23.04L42.12 38.45L32.33 38.45L32.33 26.64L26.21 26.64L26.21 44.28L65.30 44.28ZM22.75 30.89C20.02 28.94 14.47 25.99 10.58 24.05L6.91 29.02C10.87 31.10 16.42 34.34 18.94 36.50ZM18.22 49.61C15.48 47.74 10.01 44.93 6.26 43.13L2.66 48.24C6.55 50.26 11.95 53.35 14.47 55.22ZM10.66 87.98C14.33 81.14 18.29 72.65 21.38 65.09L16.13 60.77C12.60 68.90 7.92 78.05 4.68 83.52ZM68.40 54.86L68.40 48.89L22.68 48.89L22.68 54.86L40.68 54.86C40.18 56.88 39.60 58.90 38.95 60.77L25.13 60.77L25.13 89.14L31.18 89.14L31.18 66.46L37.15 66.46L37.15 88.42L42.41 88.42L42.41 66.46L48.38 66.46L48.38 88.42L53.71 88.42L53.71 66.46L59.98 66.46L59.98 82.94C59.98 83.52 59.76 83.66 59.18 83.66C58.61 83.74 56.95 83.74 55.15 83.66C55.80 85.25 56.59 87.62 56.81 89.35C60.05 89.35 62.28 89.21 64.01 88.27C65.74 87.26 66.10 85.75 66.10 82.94L66.10 60.77L45.79 60.77C46.58 58.90 47.45 56.88 48.38 54.86Z"/></svg>
