<svg xmlns="http://www.w3.org/2000/svg" xmlns:xlink="http://www.w3.org/1999/xlink" width="72.00000000000001" height="106.56000000000002"><path fill="red" stroke="red" d="M22.82 30.74C19.87 28.87 14.18 25.70 10.30 23.62L6.48 28.51C10.51 30.82 16.06 34.27 18.86 36.36ZM19.15 49.54C16.27 47.66 10.51 44.78 6.55 42.84L2.81 47.74C6.91 50.04 12.53 53.21 15.34 55.08ZM10.73 88.42C14.26 81.79 18.00 73.58 21.10 66.38L15.77 62.35C12.38 70.20 7.85 79.06 4.68 84.31ZM47.66 60.41L47.66 50.76C52.06 53.64 56.81 57.24 60.70 60.41ZM47.66 81.65L47.66 75.89L57.24 75.89L57.24 81.65ZM32.62 75.89L41.83 75.89L41.83 81.65L32.62 81.65ZM41.47 60.41L30.89 60.41C34.85 57.46 38.59 53.93 41.47 50.11ZM41.83 65.66L41.83 71.06L32.62 71.06L32.62 65.66ZM57.24 71.06L47.66 71.06L47.66 65.66L57.24 65.66ZM69.48 60.55C66.10 57.31 60.12 52.85 54.50 49.03L68.18 49.03L68.18 43.42L57.17 43.42C58.82 40.32 60.77 36.43 62.42 32.83L56.16 30.96C55.08 34.63 52.85 39.96 51.05 43.42L47.66 43.42L47.66 30.96C54.00 30.24 59.98 29.38 64.87 28.22L60.70 23.11C51.77 25.34 36.22 26.86 23.04 27.58C23.69 29.02 24.41 31.25 24.55 32.76C29.95 32.54 35.71 32.18 41.47 31.61L41.47 43.42L32.69 43.42L37.58 41.40C36.58 39.02 34.56 35.14 32.83 32.33L27.65 34.20C29.09 37.08 31.03 40.97 31.90 43.42L21.24 43.42L21.24 49.03L34.85 49.03C30.67 53.50 24.70 57.53 19.15 59.83C20.66 61.06 22.61 63.36 23.62 64.94C24.62 64.44 25.56 63.86 26.57 63.29L26.57 89.06L32.62 89.06L32.62 86.90L57.24 86.90L57.24 88.99L63.58 88.99L63.58 62.93C64.30 63.50 64.87 64.08 65.38 64.66Z"/></svg>
