<svg xmlns="http://www.w3.org/2000/svg" xmlns:xlink="http://www.w3.org/1999/xlink" width="72.00000000000001" height="106.56000000000002"><path fill="red" stroke="red" d="M52.99 36.22L36.14 36.22L36.14 30.53L52.99 30.53ZM59.18 25.42L30.31 25.42L30.31 41.40L59.18 41.40ZM52.06 49.39L60.62 49.39L60.62 55.58L52.13 55.58ZM46.51 60.41L66.46 60.41L66.46 44.57L46.51 44.57ZM28.51 49.39L36.65 49.39L36.65 55.58L28.51 55.58ZM23.11 60.41L42.41 60.41L42.41 44.57L23.11 44.57ZM23.40 32.54C20.45 30.02 14.33 26.50 9.94 24.34L6.19 28.94C10.80 31.46 16.70 35.21 19.51 37.80ZM19.73 50.62C16.78 48.10 10.80 44.71 6.34 42.62L2.66 47.45C7.27 49.82 13.10 53.50 15.91 56.02ZM14.26 60.41C11.16 68.90 7.06 78.34 4.03 84.10L10.30 87.70C13.46 80.78 16.99 71.93 19.66 64.15ZM32.62 72.50C29.09 76.46 23.69 80.64 18.72 83.45C20.16 84.38 22.39 86.69 23.40 87.70C28.15 84.46 34.13 79.27 38.30 74.66ZM67.97 71.42L67.97 65.74L47.66 65.74L47.66 60.48L41.11 60.48L41.11 65.74L21.38 65.74L21.38 71.42L41.11 71.42L41.11 89.21L47.66 89.21L47.66 71.42ZM49.97 75.53C55.22 79.06 61.56 84.24 64.58 87.77L68.98 83.74C65.88 80.28 59.33 75.31 54.07 72.00Z"/></svg>
