<svg xmlns="http://www.w3.org/2000/svg" xmlns:xlink="http://www.w3.org/1999/xlink" width="72.00000000000001" height="106.56000000000002"><path fill="red" stroke="red" d="M21.67 31.32C19.15 28.87 14.04 25.92 10.01 24.05L6.19 28.94C10.30 31.03 15.26 34.20 17.64 36.58ZM18.50 49.90C15.91 47.59 10.73 44.78 6.55 43.20L2.81 48.17C7.06 49.97 12.10 52.99 14.62 55.22ZM10.37 87.98C13.61 81.22 17.21 72.65 19.94 65.09L14.62 61.42C11.52 69.55 7.34 78.70 4.39 84.24ZM39.10 66.10C38.66 64.51 37.73 62.21 36.58 60.41L52.56 60.41C51.98 61.99 50.90 64.30 50.04 66.10ZM36.07 37.30L29.59 37.30L29.59 30.46L36.07 30.46ZM41.18 30.46L47.81 30.46L47.81 37.30L41.18 37.30ZM52.99 30.46L59.76 30.46L59.76 37.30L52.99 37.30ZM68.98 55.15L47.74 55.15L47.74 51.26L64.37 51.26L64.37 46.15L47.74 46.15L47.74 42.41L65.95 42.41L65.95 25.42L23.76 25.42L23.76 42.41L41.18 42.41L41.18 46.15L25.42 46.15L25.42 51.26L41.18 51.26L41.18 55.15L20.16 55.15L20.16 60.41L34.27 60.41L30.53 61.34C31.32 62.71 32.04 64.58 32.62 66.10L23.98 66.10L23.98 71.35L41.18 71.35L41.18 75.53L20.66 75.53L20.66 80.71L41.18 80.71L41.18 89.28L47.74 89.28L47.74 80.71L67.82 80.71L67.82 75.53L47.74 75.53L47.74 71.35L65.66 71.35L65.66 66.10L56.52 66.10C57.31 64.73 58.25 63.22 59.11 61.63L53.64 60.41L68.98 60.41Z"/></svg>
