<svg xmlns="http://www.w3.org/2000/svg" xmlns:xlink="http://www.w3.org/1999/xlink" width="72.00000000000001" height="106.56000000000002"><path fill="red" stroke="red" d="M36.00 36.65L41.90 36.65L41.90 23.11L36.00 23.11L36.00 28.44L23.62 28.44L23.62 33.48L36.00 33.48ZM21.10 32.26C18.65 30.17 13.61 26.64 10.01 24.26L6.12 28.87C9.72 31.46 14.62 35.21 17.14 37.51ZM17.64 50.26C14.90 48.38 9.50 45.36 5.76 43.42L2.45 48.46C6.26 50.69 11.59 53.93 14.26 55.94ZM32.76 77.90L45.14 77.90L45.14 81.58L32.76 81.58ZM45.14 65.95L32.76 65.95L32.76 62.35L45.14 62.35ZM45.14 73.73L32.76 73.73L32.76 70.13L45.14 70.13ZM29.23 42.55L36.94 42.55L36.94 48.02L29.23 48.02ZM51.12 42.55L59.04 42.55L59.04 48.02L51.12 48.02ZM51.55 77.90L63.58 77.90L63.58 73.73L51.55 73.73L51.55 70.13L63.50 70.13L63.50 65.95L51.55 65.95L51.55 62.35L66.38 62.35L66.38 57.53L51.62 57.53C50.62 56.02 49.10 54.00 47.45 52.49L64.87 52.49L64.87 38.09L45.65 38.09L45.65 52.42L41.62 54.14C42.62 55.15 43.63 56.30 44.42 57.53L34.27 57.53C35.14 56.23 35.93 54.86 36.65 53.57L32.90 52.49L42.41 52.49L42.41 38.09L23.98 38.09L23.98 52.49L30.31 52.49C27.86 56.95 24.26 61.27 20.30 64.66L15.91 61.27C12.31 69.48 7.56 78.70 4.18 84.31L9.58 88.06C12.67 82.22 16.34 74.88 19.30 68.11C20.52 69.05 21.67 70.06 22.39 70.78C23.69 69.77 24.98 68.62 26.28 67.32L26.28 89.28L32.76 89.28L32.76 86.47L67.61 86.47L67.61 81.58L51.55 81.58ZM54.65 28.44L54.65 23.11L48.67 23.11L48.67 36.58L54.65 36.58L54.65 33.48L68.04 33.48L68.04 28.44Z"/></svg>
