<svg xmlns="http://www.w3.org/2000/svg" xmlns:xlink="http://www.w3.org/1999/xlink" width="72.00000000000001" height="106.56000000000002"><path fill="red" stroke="red" d="M25.13 35.28C24.34 39.82 22.68 46.37 21.38 50.47L25.34 52.13C26.93 48.31 28.80 42.26 30.60 37.30ZM11.45 54.43C10.80 49.82 9.00 41.69 7.34 35.35L2.45 36.43C4.10 42.84 5.62 51.26 6.26 56.09ZM19.73 23.62L13.75 23.62L13.75 48.02C13.75 60.84 12.67 74.23 3.17 84.53C4.54 85.54 6.70 87.77 7.63 89.21C12.82 83.66 15.84 77.33 17.57 70.56C20.09 74.09 22.97 78.12 24.48 80.71L28.94 75.96C27.43 74.09 21.60 66.67 18.86 63.72C19.58 58.54 19.73 53.28 19.73 48.02ZM58.61 48.96L58.61 62.50L40.18 62.50L40.18 48.96ZM40.18 79.63L40.18 68.69L65.09 68.69L65.09 42.77L40.18 42.77L40.18 33.62L67.68 33.62L67.68 27.14L29.59 27.14L29.59 33.62L33.55 33.62L33.55 79.63L29.95 79.63L29.95 86.18L68.76 86.18L68.76 79.63Z"/></svg>
