<svg xmlns="http://www.w3.org/2000/svg" xmlns:xlink="http://www.w3.org/1999/xlink" width="72.00000000000001" height="106.56000000000002"><path fill="red" stroke="red" d="M10.58 88.63C15.26 84.82 17.64 78.55 19.15 72.50L13.46 70.63C12.24 76.25 9.50 81.94 5.33 85.25ZM22.97 73.22C23.98 77.40 24.70 82.87 24.48 86.40L30.38 85.61C30.38 82.08 29.66 76.68 28.37 72.50ZM33.84 72.50C35.35 76.18 36.86 81.07 37.37 84.24L42.77 82.80C42.19 79.70 40.68 74.88 38.95 71.28ZM55.08 54.29C54.65 56.88 54.14 59.40 53.64 61.56L24.12 61.56C26.42 59.26 28.66 56.81 30.67 54.29ZM49.39 41.47C48.96 43.99 48.46 46.44 47.95 48.53L34.85 48.53C36.36 46.22 37.80 43.92 39.10 41.47ZM59.76 61.56C60.62 57.74 61.56 52.78 62.21 48.53L54.00 48.53C54.94 44.71 55.80 39.74 56.59 35.50L42.19 35.50C43.78 32.04 45.22 28.51 46.51 24.91L39.82 23.04C38.45 27.29 36.79 31.46 34.78 35.50L23.11 35.50L26.86 33.91C25.92 31.03 23.47 26.64 21.10 23.40L15.41 25.63C17.35 28.66 19.44 32.62 20.45 35.50L7.20 35.50L7.20 41.47L31.54 41.47C24.77 52.78 15.19 62.71 2.59 68.98C3.74 70.42 5.33 73.08 6.12 74.66C10.22 72.50 14.04 70.06 17.57 67.32L60.26 67.32C59.33 77.18 58.25 81.43 56.88 82.66C56.16 83.30 55.51 83.45 54.36 83.45C53.06 83.45 50.04 83.45 46.87 83.09C47.88 84.74 48.53 87.26 48.60 89.06C52.13 89.21 55.44 89.21 57.31 88.99C59.40 88.85 60.84 88.34 62.28 86.83C64.44 84.60 65.74 78.62 66.96 64.22C67.10 63.36 67.18 61.56 67.18 61.56ZM54.00 78.77C53.14 76.25 51.05 72.29 48.89 69.41L44.28 70.99C46.22 74.02 48.31 78.12 49.03 80.78Z"/></svg>
