<svg xmlns="http://www.w3.org/2000/svg" xmlns:xlink="http://www.w3.org/1999/xlink" width="72.00000000000001" height="106.56000000000002"><path fill="red" stroke="red" d="M60.05 31.82C59.62 37.44 59.11 39.82 58.32 40.61C57.89 41.18 57.24 41.26 56.23 41.26C55.08 41.26 52.34 41.26 49.46 40.97C50.40 42.48 51.05 44.71 51.19 46.44C54.43 46.58 57.60 46.58 59.26 46.37C61.20 46.22 62.57 45.72 63.79 44.42C65.30 42.77 66.02 38.38 66.67 28.30C66.74 27.43 66.74 25.92 66.74 25.92L30.82 25.92L30.82 31.82L41.98 31.82C40.61 37.73 37.44 41.69 28.51 44.14C29.81 45.29 31.46 47.59 32.04 49.10C43.06 45.79 47.02 40.03 48.60 31.82ZM21.96 32.04L21.96 43.13L12.82 43.13L12.82 32.04ZM12.82 61.49L12.82 49.03L21.96 49.03L21.96 61.49ZM12.82 67.46L28.15 67.46L28.15 26.06L6.55 26.06L6.55 70.92L12.82 70.92ZM9.58 89.57C12.67 85.46 16.20 79.20 18.65 73.80L12.24 72.07C9.86 77.33 6.19 83.23 3.17 86.76ZM24.12 74.38C24.91 79.13 25.49 85.32 25.56 88.99L32.11 87.91C32.04 84.31 31.25 78.26 30.38 73.66ZM58.10 64.37L39.24 64.37L39.24 54.79L58.10 54.79ZM64.66 49.39L32.98 49.39L32.98 69.77L64.66 69.77ZM39.31 74.16C41.11 78.84 42.77 85.03 43.34 88.78L49.97 87.26C49.32 83.52 47.45 77.47 45.58 73.01ZM53.93 73.94C57.10 78.70 60.84 85.32 62.42 89.28L68.83 86.47C67.10 82.37 63.14 76.10 59.98 71.50Z"/></svg>
