<svg xmlns="http://www.w3.org/2000/svg" xmlns:xlink="http://www.w3.org/1999/xlink" width="72.00000000000001" height="106.56000000000002"><path fill="red" stroke="red" d="M10.22 55.94C9.86 50.98 8.71 42.34 7.42 35.57L2.59 36.43C3.74 43.20 4.75 52.06 5.04 57.24ZM58.82 40.68L58.82 46.66L32.83 46.66L32.83 40.68ZM65.09 51.70L65.09 35.64L32.83 35.64L32.83 33.26C43.78 32.47 56.09 31.03 64.51 29.16L61.78 23.90C53.14 26.06 38.88 27.65 27.07 28.58L27.07 36.79L21.89 34.99C21.02 39.31 19.44 45.58 17.93 49.61L17.93 48.46L17.93 23.90L12.17 23.90L12.17 48.46C12.17 61.20 11.23 74.52 2.88 84.89C4.18 85.90 6.34 87.98 7.20 89.50C11.95 83.74 14.62 77.26 16.13 70.49C17.71 73.08 19.51 75.96 20.30 77.69L24.84 73.58C23.76 72.00 19.08 65.59 17.21 63.29C17.71 59.04 17.86 54.79 17.93 50.54L21.53 52.06C23.26 48.46 25.20 42.70 27.07 37.87L27.07 49.46C27.07 60.62 26.35 75.74 20.23 86.18C21.82 86.90 24.19 88.56 25.27 89.64C31.61 78.84 32.69 63.79 32.83 51.70ZM41.11 72.50C37.15 74.66 33.48 76.54 30.67 77.83L33.12 82.51C36.07 80.57 39.17 78.55 42.34 76.39ZM32.90 64.08C34.49 66.53 36.36 69.91 37.30 72.07L41.47 69.98C40.61 68.04 38.52 64.73 36.94 62.35ZM48.38 56.02L32.83 56.02L32.83 60.91L42.77 60.91L42.77 83.59C42.77 84.31 42.55 84.46 41.90 84.53C41.18 84.53 39.38 84.53 37.30 84.46C37.87 85.82 38.59 87.84 38.81 89.21C42.34 89.21 44.64 89.21 46.30 88.34C47.95 87.48 48.38 86.26 48.38 83.66ZM59.83 72.36C56.16 74.38 52.85 76.25 50.26 77.40L52.63 82.08C55.44 80.21 58.25 78.26 61.06 76.25ZM50.76 63.86C52.42 66.46 54.43 69.91 55.30 72.14L59.62 69.98C58.68 67.97 56.59 64.66 54.86 62.21ZM66.89 56.02L50.54 56.02L50.54 60.91L61.20 60.91L61.20 83.59C61.20 84.31 60.91 84.46 60.19 84.53C59.54 84.53 57.46 84.53 55.15 84.46C55.87 85.82 56.52 87.84 56.74 89.21C60.48 89.21 63.00 89.21 64.73 88.42C66.38 87.55 66.89 86.26 66.89 83.59Z"/></svg>
