<svg xmlns="http://www.w3.org/2000/svg" xmlns:xlink="http://www.w3.org/1999/xlink" width="72.00000000000001" height="106.56000000000002"><path fill="red" stroke="red" d="M10.58 54.79C10.08 50.18 8.64 41.90 7.27 35.42L2.45 36.43C3.74 42.91 5.04 51.34 5.40 56.30ZM18.07 23.76L11.95 23.76L11.95 47.95C11.95 60.55 11.02 73.73 2.52 83.88C3.89 84.89 6.12 87.12 7.13 88.63C11.66 83.30 14.33 77.33 15.91 71.06C18.14 74.30 20.59 78.05 21.89 80.42L26.57 75.74C25.13 73.87 19.80 66.53 17.28 63.58C17.93 58.39 18.07 53.21 18.07 47.95ZM57.02 70.63L57.02 74.59L36.94 74.59L36.94 70.63ZM36.94 82.66L36.94 78.62L57.02 78.62L57.02 82.66ZM30.96 89.21L36.94 89.21L36.94 87.12L57.02 87.12L57.02 88.99L63.29 88.99L63.29 66.31L30.96 66.31ZM54.22 58.32C55.37 56.74 56.59 54.29 58.10 51.91L54.29 50.47C53.64 52.27 52.27 55.22 51.26 57.10ZM35.71 51.70C36.94 53.78 38.23 56.45 38.59 58.25L41.98 56.88C41.62 55.08 40.32 52.49 39.02 50.54ZM33.91 49.54L44.14 49.54L44.14 59.04L33.91 59.04ZM60.05 59.04L49.18 59.04L49.18 49.54L60.05 49.54ZM28.44 63.50L65.66 63.50L65.66 45.07L28.44 45.07ZM38.16 37.15C41.04 35.06 43.78 32.69 46.30 30.02C49.10 32.40 52.70 34.92 56.45 37.15ZM44.93 22.39C41.26 28.37 34.70 33.48 27.58 37.01L22.68 35.28C22.10 40.68 20.59 48.60 19.37 53.42L23.40 55.15C24.70 51.34 26.14 45.58 27.50 40.32C28.37 41.04 29.23 41.76 29.81 42.26C31.97 41.11 34.27 39.74 36.50 38.30L36.50 41.76L57.17 41.76L57.17 37.58C60.41 39.53 63.72 41.26 66.67 42.70C67.25 41.11 68.47 38.74 69.62 37.37C63.00 34.99 54.29 30.46 49.39 26.28C49.90 25.56 50.40 24.91 50.83 24.26Z"/></svg>
