<svg xmlns="http://www.w3.org/2000/svg" xmlns:xlink="http://www.w3.org/1999/xlink" width="72.00000000000001" height="106.56000000000002"><path fill="red" stroke="red" d="M21.89 34.78C21.17 39.60 19.51 46.66 18.14 50.98L21.74 52.34C23.40 48.31 25.27 41.69 27.07 36.50ZM10.66 55.22C10.22 50.47 8.78 42.05 7.42 35.57L2.95 36.36C4.25 42.91 5.47 51.48 5.83 56.38ZM33.34 38.38L43.06 38.38L43.06 41.83L35.14 42.41L35.42 46.94L43.13 46.22C43.34 49.68 44.57 51.55 49.10 51.55L58.10 51.55C60.05 51.55 62.35 51.48 63.50 51.12C63.22 49.68 63.14 48.46 62.93 46.87C61.85 47.16 59.18 47.30 57.89 47.30L50.83 47.30C49.25 47.30 49.03 46.66 49.03 45.07L58.75 44.28L58.54 40.61L49.03 41.33L49.03 38.38L61.92 38.38C61.63 40.46 61.34 42.55 61.13 44.06L66.10 44.86C66.89 42.12 67.75 37.80 68.33 34.06L64.22 33.34L63.29 33.48L48.24 33.48L48.24 30.89L66.10 30.89L66.10 26.71L48.24 26.71L48.24 23.04L41.98 23.04L41.98 33.48L27.58 33.48L27.58 55.58C27.58 62.06 27.36 70.27 25.49 77.62C24.26 75.53 19.37 68.26 16.99 65.09C17.71 59.90 17.86 54.43 17.86 49.10L17.86 23.76L12.10 23.76L12.10 49.10C12.10 61.63 11.23 74.66 2.81 84.60C4.03 85.61 6.12 87.70 6.98 89.14C11.52 83.95 14.11 78.19 15.77 71.93C17.86 75.46 20.23 79.49 21.38 81.94L25.49 77.76C24.77 80.71 23.76 83.45 22.39 85.97C23.83 86.54 26.35 88.20 27.43 89.21C32.54 79.85 33.34 65.59 33.34 55.58ZM41.62 63.00L47.66 63.00L47.66 65.81L41.62 65.81ZM41.62 57.02L47.66 57.02L47.66 59.76L41.62 59.76ZM58.82 59.76L52.49 59.76L52.49 57.02L58.82 57.02ZM58.82 65.81L52.49 65.81L52.49 63.00L58.82 63.00ZM36.43 69.19L64.15 69.19L64.15 53.64L36.43 53.64ZM39.82 75.89L43.99 75.89L43.99 82.73L39.82 82.73ZM52.13 75.89L52.13 82.73L48.02 82.73L48.02 75.89ZM60.48 75.89L60.48 82.73L56.16 82.73L56.16 75.89ZM65.59 82.73L65.59 71.64L34.92 71.64L34.92 82.73L30.53 82.73L30.53 87.41L69.05 87.41L69.05 82.73Z"/></svg>
