<svg xmlns="http://www.w3.org/2000/svg" xmlns:xlink="http://www.w3.org/1999/xlink" width="72.00000000000001" height="106.56000000000002"><path fill="red" stroke="red" d="M56.23 32.98L68.83 32.98L68.83 27.94L56.23 27.94L56.23 23.11L50.04 23.11L50.04 37.30L56.23 37.30ZM42.55 37.15L42.26 37.30C43.34 38.52 44.50 39.89 45.58 41.26L35.71 41.26C36.58 39.96 37.30 38.74 38.02 37.44L37.15 37.15ZM45.36 48.24L35.14 48.24L35.14 45.36L45.36 45.36ZM45.36 55.01L35.14 55.01L35.14 51.91L45.36 51.91ZM45.36 61.78L35.14 61.78L35.14 58.61L45.36 58.61ZM29.30 67.68L35.14 67.68L35.14 65.95L66.96 65.95L66.96 61.78L51.34 61.78L51.34 58.61L64.30 58.61L64.30 55.01L51.34 55.01L51.34 51.91L64.30 51.91L64.30 48.24L51.34 48.24L51.34 45.36L66.02 45.36L66.02 41.26L52.63 41.26C51.26 39.53 48.96 36.86 46.94 34.85L42.91 37.01L42.91 23.11L37.01 23.11L37.01 28.15L25.78 28.15L25.78 33.12L37.01 33.12L37.01 37.15L32.33 35.57C30.02 40.03 26.21 44.57 22.54 47.66C21.89 43.99 20.74 40.39 19.01 36.86C21.38 33.84 23.54 30.67 25.27 27.79L20.45 24.62C19.15 26.86 17.57 29.23 15.70 31.61C13.82 29.23 11.66 26.86 9.00 24.62L4.61 28.22C7.56 30.74 9.79 33.48 11.59 36.14C8.64 39.24 5.33 41.98 2.30 43.85C3.74 45.29 5.26 48.17 6.05 49.82C8.78 47.74 11.81 45.00 14.62 41.90C15.70 44.57 16.27 47.23 16.78 49.97C13.61 56.38 7.99 63.07 2.81 66.46C4.10 67.90 5.62 70.42 6.48 72.14C10.30 69.12 14.33 64.58 17.57 59.69L17.57 61.49C17.57 70.34 16.92 78.05 15.26 80.28C14.76 81.07 14.11 81.43 13.10 81.58C11.52 81.72 8.86 81.79 5.33 81.50C6.48 83.38 7.20 85.90 7.27 87.98C10.44 88.13 13.39 88.13 15.84 87.55C17.57 87.19 19.01 86.40 19.87 84.96C22.82 80.78 23.62 71.64 23.62 61.63C23.62 57.10 23.40 52.63 22.68 48.38C23.98 49.46 25.78 51.26 26.57 52.20C27.43 51.41 28.37 50.47 29.30 49.46ZM55.58 73.80C52.92 75.74 49.46 77.47 45.65 78.91C41.69 77.47 38.30 75.74 35.71 73.80ZM62.28 68.62L61.27 68.83L26.64 68.83L26.64 73.80L31.25 73.80L28.80 74.81C31.32 77.26 34.42 79.34 37.94 81.22C32.90 82.51 27.36 83.30 21.89 83.88C22.90 85.10 24.34 87.70 24.84 89.14C31.97 88.13 39.02 86.62 45.50 84.46C51.77 86.62 58.75 88.20 65.95 89.06C66.82 87.55 68.47 85.18 69.84 83.81C64.15 83.30 58.46 82.44 53.35 81.22C58.54 78.62 63.00 75.31 66.10 71.21Z"/></svg>
