<svg xmlns="http://www.w3.org/2000/svg" xmlns:xlink="http://www.w3.org/1999/xlink" width="72.00000000000001" height="106.56000000000002"><path fill="red" stroke="red" d="M56.81 51.91C54.43 50.76 50.26 49.03 46.73 47.81C47.45 47.02 48.10 46.15 48.60 45.36L43.70 44.21C41.33 47.95 36.14 50.83 30.67 52.70C31.90 53.50 33.84 55.01 34.70 55.87C37.73 54.58 40.82 52.92 43.49 50.83C47.23 52.27 51.77 54.29 54.22 55.51ZM57.89 56.02L29.81 56.02L29.81 44.14L57.89 44.14ZM23.98 39.82L23.98 60.26L64.01 60.26L64.01 39.82L62.50 39.82L66.31 38.23C64.37 36.29 60.84 33.70 57.53 31.54C60.12 29.52 62.93 27.29 65.52 24.98L59.54 23.26C57.31 25.49 53.64 28.80 50.04 31.61C54.22 34.49 58.03 37.51 60.26 39.82L47.23 39.82L51.84 38.02C49.97 36.14 46.80 33.62 43.78 31.46C46.15 29.52 48.74 27.43 51.19 25.06L45.22 23.40C43.13 25.63 39.74 28.80 36.43 31.61C40.39 34.49 43.99 37.51 46.01 39.82L34.20 39.82L37.44 38.59C35.71 36.65 32.69 33.98 29.66 31.68C31.97 29.74 34.56 27.43 36.86 24.98L30.89 23.40C28.94 25.70 25.70 28.94 22.46 31.75C26.06 34.49 29.23 37.51 31.25 39.82ZM17.86 23.90C16.78 26.28 15.41 28.80 13.75 31.18C12.31 28.73 10.37 26.35 8.14 23.98L3.96 27.00C6.70 29.88 8.78 32.83 10.30 35.86C7.99 38.66 5.47 41.18 2.95 42.91C4.03 44.42 5.47 47.16 6.05 48.74C8.28 46.87 10.51 44.57 12.74 41.90C13.61 44.86 14.18 47.88 14.47 50.98C11.95 56.81 7.06 63.22 2.59 66.46C3.74 67.75 5.11 70.42 5.62 71.93C8.86 69.12 12.24 64.94 14.98 60.62L14.98 61.27C14.98 70.13 14.40 79.42 12.89 81.50C12.38 82.15 11.81 82.44 10.87 82.51C9.58 82.66 7.34 82.66 4.68 82.51C5.76 84.10 6.19 86.33 6.26 88.13C8.93 88.27 11.45 88.20 13.39 87.77C15.05 87.48 16.34 86.76 17.21 85.54C19.87 81.79 20.52 71.35 20.52 61.42C20.52 52.56 19.94 44.42 16.63 36.65C18.94 33.34 20.81 29.95 22.32 26.64ZM30.31 69.41L39.10 69.41L39.10 64.87L30.31 64.87L30.31 61.85L24.77 61.85L24.77 80.78C24.77 83.09 23.62 83.59 22.46 83.95C23.33 85.32 24.12 87.91 24.34 89.35C25.42 88.56 27.43 87.77 39.10 84.53C38.74 83.38 38.52 81.43 38.38 79.92L30.31 81.86L30.31 77.47L39.10 77.47L39.10 72.94L30.31 72.94ZM46.87 81.94L46.87 77.69L54.65 77.69L54.65 73.22L46.87 73.22L46.87 69.70L54.65 69.70L54.65 65.16L46.87 65.16L46.87 61.85L41.47 61.85L41.47 80.93C41.47 83.30 40.32 83.81 39.31 84.10C39.96 85.39 40.75 87.98 41.04 89.42C42.26 88.63 44.21 87.84 56.45 84.53C56.16 83.38 55.80 81.36 55.73 79.85ZM56.45 61.85C56.59 76.82 58.61 89.21 64.51 89.21C66.46 89.21 68.40 87.12 69.34 80.50C68.33 79.99 66.67 78.84 65.66 77.83C65.45 81.36 64.94 83.09 64.37 83.09C62.86 83.09 61.70 74.09 61.85 61.85Z"/></svg>
