<svg xmlns="http://www.w3.org/2000/svg" xmlns:xlink="http://www.w3.org/1999/xlink" width="72.00000000000001" height="106.56000000000002"><path fill="red" stroke="red" d="M16.06 71.78L16.06 54.29L22.18 54.29L22.18 48.46L16.06 48.46L16.06 33.62L22.90 33.62L22.90 27.65L3.31 27.65L3.31 33.62L10.22 33.62L10.22 48.46L3.89 48.46L3.89 54.29L10.22 54.29L10.22 73.37C7.34 74.16 4.68 74.88 2.38 75.38L3.67 81.50C9.29 79.85 16.27 77.90 23.04 75.82L22.32 69.98ZM53.06 43.49L53.06 31.46L60.91 31.46L60.91 47.52C59.54 45.65 57.74 43.42 56.09 41.54ZM38.09 75.31L30.02 75.31L30.02 62.28L38.09 62.28ZM66.82 25.63L47.59 25.63L47.59 57.53C47.59 65.16 47.23 74.02 43.63 81.07L43.63 56.45L36.94 56.45L36.94 42.91L45.29 42.91L45.29 37.01L36.94 37.01L36.94 23.90L31.25 23.90L31.25 37.01L23.04 37.01L23.04 42.91L31.25 42.91L31.25 56.45L24.48 56.45L24.48 85.18L30.02 85.18L30.02 81.14L43.63 81.14C42.84 82.66 41.98 84.02 40.90 85.39C42.05 86.11 44.28 88.20 45.14 89.42C52.06 81.14 53.06 67.75 53.06 57.53L53.06 44.71C55.01 47.09 57.17 50.04 58.25 51.98L60.91 50.11L60.91 57.96C57.96 60.26 55.15 62.21 53.14 63.58L55.58 68.90C57.38 67.32 59.11 65.66 60.91 64.01L60.91 81.94C60.91 82.87 60.55 83.16 59.76 83.16C58.97 83.23 56.59 83.23 54.00 83.16C54.79 84.67 55.51 87.41 55.66 88.92C59.98 88.92 62.57 88.85 64.51 87.77C66.24 86.76 66.82 84.96 66.82 82.01Z"/></svg>
