<svg xmlns="http://www.w3.org/2000/svg" xmlns:xlink="http://www.w3.org/1999/xlink" width="72.00000000000001" height="106.56000000000002"><path fill="red" stroke="red" d="M67.61 47.52L53.35 47.52L53.35 38.52L65.09 38.52L65.09 32.47L53.35 32.47L53.35 23.40L46.73 23.40L46.73 32.47L34.70 32.47L34.70 38.52L46.73 38.52L46.73 47.52L31.97 47.52L31.97 53.71L67.61 53.71ZM15.26 34.27L15.26 49.39L10.44 49.39L10.44 34.27ZM24.70 49.39L19.73 49.39L19.73 34.27L24.70 34.27ZM19.73 70.92L19.73 54.50L24.70 54.50L24.70 70.92ZM10.44 70.92L10.44 54.50L15.26 54.50L15.26 70.92ZM29.52 76.68L29.52 28.44L5.40 28.44L5.40 81.72L10.44 81.72L10.44 76.68ZM53.14 80.57L53.14 69.98L66.10 69.98L66.10 63.79L53.14 63.79L53.14 55.58L46.51 55.58L46.51 63.79L33.55 63.79L33.55 69.98L46.51 69.98L46.51 80.57L29.45 80.57L29.45 86.98L68.90 86.98L68.90 80.57Z"/></svg>
