<svg xmlns="http://www.w3.org/2000/svg" xmlns:xlink="http://www.w3.org/1999/xlink" width="72.00000000000001" height="106.56000000000002"><path fill="red" stroke="red" d="M12.53 49.46C11.74 46.08 9.79 40.18 8.06 35.78L3.10 37.66C4.68 42.19 6.55 48.31 7.34 51.84ZM28.73 74.02C26.14 77.40 22.18 81.22 18.65 83.88C20.16 84.82 22.61 86.62 23.76 87.70C27.14 84.74 31.61 79.99 34.70 76.03ZM52.13 76.68C55.66 80.21 60.26 85.18 62.50 87.98L67.61 84.82C65.23 81.94 60.41 77.18 56.95 73.87ZM54.79 61.13L33.77 61.13L33.77 57.46L54.79 57.46ZM54.79 68.76L33.77 68.76L33.77 65.09L54.79 65.09ZM47.52 45.86C49.03 48.46 50.83 51.05 52.99 53.28L35.93 53.28C38.16 50.98 40.03 48.46 41.62 45.86ZM63.22 46.15C62.06 47.52 60.05 49.32 58.25 50.90C56.52 49.32 55.01 47.66 53.64 45.86L68.11 45.86L68.11 40.68L44.35 40.68C45.07 39.17 45.72 37.51 46.15 35.93L39.89 35.06C39.38 36.94 38.66 38.81 37.66 40.68L22.18 40.68L22.18 45.86L34.56 45.86C33.41 47.45 32.18 48.89 30.67 50.40C29.09 49.03 27.14 47.66 25.56 46.58L22.03 49.61C23.69 50.76 25.49 52.20 27.00 53.57C24.70 55.37 22.10 56.95 19.15 58.39C19.22 56.23 19.30 54.29 19.30 52.34L19.30 35.06L68.83 35.06L68.83 29.38L45.00 29.38C44.35 27.36 43.49 24.91 42.62 22.97L35.93 24.34C36.43 25.92 37.08 27.65 37.51 29.38L13.10 29.38L13.10 52.34C13.10 54.14 13.10 55.87 13.03 57.82C8.86 59.90 4.97 61.99 2.16 63.14L4.25 69.12C6.98 67.68 9.72 66.02 12.46 64.37C11.52 71.57 9.36 78.98 4.25 84.82C5.47 85.54 7.92 87.91 8.93 89.21C16.20 81.14 18.50 69.05 19.08 58.90C20.45 59.83 22.03 61.70 22.82 63.07C24.70 62.06 26.50 60.98 28.08 59.90L28.08 73.01L41.04 73.01L41.04 82.87C41.04 83.66 40.75 83.88 39.82 83.88C38.88 83.95 35.86 83.95 32.69 83.88C33.55 85.32 34.49 87.62 34.85 89.28C39.38 89.28 42.48 89.21 44.71 88.34C46.87 87.48 47.45 86.04 47.45 83.09L47.45 73.01L60.62 73.01L60.62 59.83C62.35 60.91 64.01 61.92 65.81 62.71C66.60 61.20 68.40 59.11 69.62 57.96C66.89 56.95 64.22 55.44 61.70 53.71C63.50 52.34 65.59 50.76 67.25 48.96Z"/></svg>
