<svg xmlns="http://www.w3.org/2000/svg" xmlns:xlink="http://www.w3.org/1999/xlink" width="72.00000000000001" height="106.56000000000002"><path fill="red" stroke="red" d="M37.15 76.39C45.65 80.06 57.31 85.82 63.00 89.35L67.10 83.59C61.06 80.06 49.25 74.66 41.04 71.28ZM63.22 33.12C60.84 35.50 57.02 38.59 53.64 41.04C51.98 39.38 50.54 37.66 49.18 35.78C52.42 33.48 56.16 30.60 59.40 27.72L54.07 23.98C52.06 26.21 49.03 29.02 46.15 31.32C44.64 28.66 43.27 25.92 42.12 23.04L36.22 24.70C39.60 33.48 44.42 41.11 50.47 47.23L22.46 47.23C27.43 42.05 31.54 35.64 33.98 27.94L29.74 26.14L28.58 26.42L8.86 26.42L8.86 32.04L25.56 32.04C24.05 35.14 22.10 38.09 19.80 40.82C17.35 38.66 13.46 36.00 10.30 34.20L6.19 38.02C9.29 40.03 13.25 42.91 15.62 45.14C11.59 48.74 6.91 51.55 2.16 53.28C3.46 54.50 5.11 56.88 5.98 58.46C10.37 56.59 14.62 54.07 18.43 50.90L18.43 53.50L32.33 53.50L32.33 60.62C32.33 61.06 32.33 61.56 32.26 62.06L8.28 62.06L8.28 68.40L30.74 68.40C28.22 73.87 21.60 79.56 5.26 83.88C6.84 85.18 8.86 87.77 9.72 89.28C29.02 83.81 36.00 76.10 38.30 68.40L63.72 68.40L63.72 62.06L39.38 62.06C39.38 61.56 39.38 61.13 39.38 60.62L39.38 53.50L53.50 53.50L53.50 50.04C57.02 52.99 60.91 55.51 65.09 57.53C66.02 55.73 68.11 53.14 69.62 51.91C65.30 50.11 61.20 47.66 57.60 44.64C61.06 42.34 65.09 39.53 68.33 36.72Z"/></svg>
