<svg xmlns="http://www.w3.org/2000/svg" xmlns:xlink="http://www.w3.org/1999/xlink" width="72.00000000000001" height="106.56000000000002"><path fill="red" stroke="red" d="M66.46 26.50L60.19 26.50L60.19 35.71L50.76 35.71L50.76 23.11L44.57 23.11L44.57 35.71L35.06 35.71L35.06 26.50L29.09 26.50L29.09 41.04L66.46 41.04ZM68.54 45.07L26.86 45.07L26.86 50.62L68.54 50.62ZM58.97 66.31L36.79 66.31L36.79 59.40L58.97 59.40ZM65.23 54.50L30.82 54.50L30.82 71.21L65.23 71.21ZM43.85 80.06C43.34 77.83 41.90 74.23 40.32 71.64L34.78 73.44C36.14 76.25 37.51 79.92 37.94 82.22ZM19.44 52.49L11.38 52.49L11.38 40.32L19.44 40.32ZM11.38 70.99L11.38 58.32L19.44 58.32L19.44 70.99ZM25.27 76.90L25.27 34.42L17.06 34.42C18.07 31.39 19.30 27.65 20.38 24.26L13.39 23.11C13.03 26.42 12.17 30.96 11.30 34.42L5.62 34.42L5.62 82.73L11.38 82.73L11.38 76.90ZM57.74 82.37C59.04 79.63 60.48 76.39 61.78 73.44L55.66 71.57C54.79 74.74 52.92 79.20 51.41 82.37L24.62 82.37L24.62 87.91L69.12 87.91L69.12 82.37Z"/></svg>
