<svg xmlns="http://www.w3.org/2000/svg" xmlns:xlink="http://www.w3.org/1999/xlink" width="72.00000000000001" height="106.56000000000002"><path fill="red" stroke="red" d="M42.98 36.50L42.98 37.30C42.98 42.84 41.11 50.90 22.10 55.66C23.54 56.95 25.42 59.33 26.28 60.91C38.16 57.67 44.14 52.92 47.02 48.10C53.21 52.78 60.41 58.39 64.15 61.92L68.33 56.88C64.01 53.06 55.58 47.02 49.18 42.34C49.54 40.68 49.61 39.02 49.61 37.51L49.61 36.50L59.76 36.50C58.75 39.53 57.67 42.55 56.52 44.71L62.50 46.22C64.44 42.70 66.60 37.22 68.11 32.33L63.07 31.03L61.99 31.32L38.16 31.32C39.17 29.23 40.03 26.93 40.82 24.77L34.20 23.11C31.82 30.74 27.58 38.23 22.61 43.06C24.12 43.99 27.00 46.08 28.15 47.23C30.74 44.35 33.41 40.68 35.64 36.50ZM9.29 63.79C13.68 59.11 18.65 53.42 22.82 48.31L19.37 43.49C14.76 49.03 9.07 55.08 5.18 58.61ZM24.34 27.50C21.10 26.06 14.83 24.12 10.37 23.04L7.99 27.86C12.60 29.16 18.79 31.32 21.89 32.90ZM19.30 37.73C15.91 36.29 9.79 34.34 5.33 33.34L2.88 38.16C7.49 39.38 13.61 41.54 16.78 43.06ZM17.50 68.47L25.63 68.47L25.63 81.36L17.50 81.36ZM40.03 68.47L40.03 81.36L31.75 81.36L31.75 68.47ZM54.43 68.47L54.43 81.36L46.15 81.36L46.15 68.47ZM60.98 81.36L60.98 63.14L11.23 63.14L11.23 81.36L3.53 81.36L3.53 87.19L68.54 87.19L68.54 81.36Z"/></svg>
