<svg xmlns="http://www.w3.org/2000/svg" xmlns:xlink="http://www.w3.org/1999/xlink" width="72.00000000000001" height="106.56000000000002"><path fill="red" stroke="red" d="M51.98 57.89L51.98 62.64L20.59 62.64L20.59 57.89ZM20.59 71.93L20.59 67.25L51.98 67.25L51.98 71.93ZM20.59 81.43L20.59 76.54L51.98 76.54L51.98 81.43ZM14.18 88.78L20.59 88.78L20.59 86.40L51.98 86.40L51.98 88.42L58.75 88.42L58.75 52.92L14.18 52.92ZM67.10 34.63L67.10 28.87L40.68 28.87C39.74 26.78 38.52 24.26 37.30 22.25L30.31 24.19C31.03 25.63 31.90 27.22 32.62 28.87L4.68 28.87L4.68 34.63L13.10 34.63L13.10 39.67C13.10 46.51 16.06 48.67 25.06 48.67L51.34 48.67C55.87 48.67 61.34 48.53 63.29 48.10C63.00 46.66 62.71 44.14 62.50 42.19C59.98 42.70 54.14 42.84 50.62 42.84L24.62 42.84C20.66 42.84 19.80 41.98 19.80 39.74L19.80 34.63Z"/></svg>
