<svg xmlns="http://www.w3.org/2000/svg" xmlns:xlink="http://www.w3.org/1999/xlink" width="72.00000000000001" height="106.56000000000002"><path fill="red" stroke="red" d="M31.61 23.62C30.24 25.99 27.86 29.38 26.06 31.61L29.81 33.84C31.68 31.97 34.06 29.09 36.50 26.35ZM16.49 31.68C15.55 29.45 13.25 26.21 11.02 23.90L6.77 25.92C8.86 28.37 11.09 31.75 12.02 33.98ZM51.91 63.22L51.91 66.82L20.45 66.82L20.45 63.22ZM20.45 74.59L20.45 70.99L51.91 70.99L51.91 74.59ZM20.45 82.37L20.45 78.77L51.91 78.77L51.91 82.37ZM14.04 89.28L20.45 89.28L20.45 86.90L51.91 86.90L51.91 89.14L58.61 89.14L58.61 58.75L14.04 58.75ZM14.40 40.54C14.04 44.21 13.39 47.95 11.88 50.76C12.74 51.19 14.40 51.91 15.12 52.34C16.49 49.54 17.50 45.22 18.00 41.11ZM36.58 40.39C37.66 41.54 38.88 43.20 39.53 44.06C40.75 42.84 41.90 41.40 43.06 39.96C44.50 42.62 46.15 45.14 48.10 47.45C44.78 49.82 40.90 51.70 36.50 53.21C36.58 52.85 36.58 52.42 36.58 51.98ZM57.89 35.28C56.45 38.52 54.58 41.33 52.27 43.85C49.90 41.26 48.02 38.38 46.58 35.28ZM68.04 35.28L68.04 29.95L48.89 29.95C49.61 28.15 50.33 26.42 50.98 24.62L45.50 23.26C43.63 29.02 40.46 34.70 36.58 38.66L36.58 34.20L24.12 34.20L24.12 23.04L18.36 23.04L18.36 34.20L6.34 34.20L6.34 57.53L11.52 57.53L11.52 38.59L19.01 38.59L19.01 56.95L23.47 56.95L23.47 38.59L31.32 38.59L31.32 51.91C31.32 52.56 31.18 52.78 30.46 52.78C29.95 52.85 27.86 52.85 25.70 52.78C26.35 54.00 27.00 55.87 27.22 57.24C30.53 57.24 32.90 57.17 34.49 56.38C35.78 55.73 36.36 54.86 36.50 53.28C37.80 54.36 39.67 56.52 40.46 57.67C44.64 56.02 48.53 53.93 51.91 51.34C55.80 54.86 60.41 57.53 65.74 59.26C66.53 57.67 68.40 55.22 69.70 54.07C64.58 52.70 60.05 50.47 56.23 47.45C59.54 44.14 62.21 40.10 64.01 35.28ZM30.53 48.53C30.24 46.44 29.16 43.06 28.01 40.54L24.70 41.47C25.78 44.06 26.78 47.45 27.00 49.68Z"/></svg>
