<svg xmlns="http://www.w3.org/2000/svg" xmlns:xlink="http://www.w3.org/1999/xlink" width="72.00000000000001" height="106.56000000000002"><path fill="red" stroke="red" d="M59.76 78.98L59.76 82.80L43.20 82.80L43.20 78.98ZM37.30 89.21L43.20 89.21L43.20 86.54L59.76 86.54L59.76 89.06L65.88 89.06L65.88 75.31L37.30 75.31ZM37.94 72.43L65.23 72.43L65.23 68.62L37.94 68.62ZM65.23 62.21L37.94 62.21L37.94 65.95L65.23 65.95ZM45.94 50.90C46.66 52.27 47.38 53.78 48.02 55.37L34.99 55.37L34.99 59.47L68.69 59.47L68.69 55.37L54.43 55.37C53.57 53.42 52.34 50.98 51.34 49.03ZM52.27 32.18C51.48 33.62 50.69 35.14 49.75 36.36L36.29 36.36C37.30 34.99 38.30 33.55 39.10 32.18ZM10.94 71.21L10.94 61.92L17.42 61.92L17.42 71.21ZM10.94 47.23L17.42 47.23L17.42 56.38L10.94 56.38ZM17.42 32.76L17.42 41.69L10.94 41.69L10.94 32.76ZM56.52 36.36C57.96 34.34 59.40 32.11 60.41 30.02L56.30 27.29L55.22 27.50L41.62 27.50C42.12 26.35 42.62 25.34 43.06 24.19L36.94 23.11C34.49 29.02 29.88 36.14 23.18 41.69L23.18 27.07L5.26 27.07L5.26 83.30L10.94 83.30L10.94 76.97L23.18 76.97L23.18 43.13C24.19 44.42 25.34 46.15 25.78 47.38C26.78 46.51 27.79 45.72 28.73 44.86L28.73 49.39C28.73 59.62 28.22 74.95 23.11 85.90C24.62 86.47 27.36 88.13 28.58 89.21C33.91 77.54 34.85 60.48 34.85 49.39L34.85 41.33L43.13 41.33C42.34 44.86 40.39 47.23 35.21 48.53C36.29 49.46 37.51 51.19 37.94 52.42C45.29 50.62 48.02 46.87 48.96 41.33L53.93 41.33L53.93 45.36C53.93 49.46 54.72 51.55 58.97 51.55L64.44 51.55C65.66 51.55 67.46 51.48 68.26 51.19C68.04 49.75 67.97 48.53 67.90 47.09C66.96 47.38 65.16 47.45 64.30 47.45L60.70 47.45C59.54 47.45 59.47 46.87 59.47 45.43L59.47 41.33L69.05 41.33L69.05 36.36Z"/></svg>
