<svg xmlns="http://www.w3.org/2000/svg" xmlns:xlink="http://www.w3.org/1999/xlink" width="72.00000000000001" height="106.56000000000002"><path fill="red" stroke="red" d="M36.94 57.96L36.94 51.62L24.19 51.62C24.19 50.90 24.19 50.18 24.19 49.54L24.19 38.74L34.92 38.74L34.92 32.47L15.26 32.47C15.98 29.88 16.63 27.14 17.21 24.41L10.80 23.18C9.14 31.61 6.34 40.03 2.23 45.29C3.82 46.22 6.48 48.02 7.70 49.18C9.65 46.30 11.52 42.70 13.03 38.74L17.42 38.74L17.42 49.46L17.42 51.62L3.31 51.62L3.31 57.96L16.99 57.96C15.91 66.96 12.60 76.75 2.45 83.95C3.82 84.96 6.26 87.62 7.20 89.06C14.83 83.52 19.08 76.32 21.46 68.90C25.27 73.30 30.10 79.49 32.47 83.09L37.08 77.33C34.99 74.95 26.71 65.59 23.11 62.06C23.40 60.70 23.54 59.33 23.76 57.96ZM45.50 75.46L45.50 35.64L58.61 35.64L58.61 75.46ZM39.02 29.30L39.02 87.12L45.50 87.12L45.50 81.72L58.61 81.72L58.61 86.33L65.38 86.33L65.38 29.30Z"/></svg>
