<svg xmlns="http://www.w3.org/2000/svg" xmlns:xlink="http://www.w3.org/1999/xlink" width="72.00000000000001" height="106.56000000000002"><path fill="red" stroke="red" d="M19.80 74.45L13.54 74.45L13.54 54.58L19.80 54.58ZM27.22 32.76L27.22 26.64L3.74 26.64L3.74 32.76L12.10 32.76C10.15 42.98 7.06 52.56 2.30 58.97C3.17 60.62 4.46 64.44 4.75 66.02C6.05 64.51 7.20 62.71 8.28 60.84L8.28 85.90L13.54 85.90L13.54 80.35L25.20 80.35L25.20 48.67L13.68 48.67C15.48 43.70 16.78 38.23 17.93 32.76ZM44.86 52.27L51.41 52.27L51.41 40.54C56.74 44.93 62.28 50.04 65.23 53.50L69.55 49.46C66.53 46.15 60.98 41.40 55.94 37.37L67.32 37.37L67.32 31.54L51.41 31.54L51.41 23.40L44.86 23.40L44.86 31.54L28.80 31.54L28.80 37.37L40.03 37.37C36.43 42.26 31.25 46.73 26.21 49.25C27.58 50.47 29.52 52.70 30.53 54.29C35.71 51.26 40.97 46.01 44.86 40.32ZM38.45 67.32L56.74 67.32L56.74 72.07L38.45 72.07ZM38.45 58.46L56.74 58.46L56.74 63.14L38.45 63.14ZM32.40 77.11L63.07 77.11L63.07 53.42L32.40 53.42ZM26.86 87.12L68.40 87.12L68.40 81.43L26.86 81.43Z"/></svg>
