<svg xmlns="http://www.w3.org/2000/svg" xmlns:xlink="http://www.w3.org/1999/xlink" width="72.00000000000001" height="106.56000000000002"><path fill="red" stroke="red" d="M30.67 62.64C29.23 60.70 22.90 52.78 20.81 50.62L20.81 49.46L30.31 49.46L30.31 43.20L20.81 43.20L20.81 32.18C24.34 31.46 27.65 30.46 30.53 29.38L26.64 23.98C21.02 26.35 11.81 28.44 3.74 29.74C4.46 31.18 5.40 33.48 5.54 34.99C8.42 34.63 11.38 34.13 14.40 33.55L14.40 43.20L3.10 43.20L3.10 49.46L13.54 49.46C10.87 57.10 6.41 65.59 2.16 70.49C3.24 72.14 4.82 74.88 5.47 76.75C8.64 72.72 11.81 66.60 14.40 60.19L14.40 89.06L20.81 89.06L20.81 57.82C23.04 61.27 25.56 65.52 26.71 67.90ZM40.68 68.40L55.66 68.40L55.66 80.71L40.68 80.71ZM55.66 33.12L55.66 44.35L40.68 44.35L40.68 33.12ZM55.66 62.35L40.68 62.35L40.68 50.40L55.66 50.40ZM62.42 80.71L62.42 26.93L34.13 26.93L34.13 80.71L27.14 80.71L27.14 86.90L68.90 86.90L68.90 80.71Z"/></svg>
