<svg xmlns="http://www.w3.org/2000/svg" xmlns:xlink="http://www.w3.org/1999/xlink" width="72.00000000000001" height="106.56000000000002"><path fill="red" stroke="red" d="M27.50 63.43C26.42 61.42 21.46 53.78 19.66 51.12L19.66 49.68L28.66 49.68L28.66 43.49L19.66 43.49L19.66 31.90C22.82 31.03 25.92 30.10 28.51 29.02L24.55 23.54C19.44 25.85 11.38 28.01 4.18 29.23C4.90 30.74 5.76 32.98 6.05 34.49C8.35 34.13 10.94 33.70 13.39 33.19L13.39 43.49L3.82 43.49L3.82 49.68L12.53 49.68C10.30 57.17 6.41 65.81 2.59 70.70C3.67 72.50 5.26 75.38 5.98 77.26C8.57 73.51 11.23 67.97 13.39 62.14L13.39 89.21L19.66 89.21L19.66 59.54C21.24 62.86 22.75 66.38 23.54 68.62ZM38.45 58.54L38.45 40.25L45.72 40.25L45.72 51.19C45.72 53.71 45.65 56.16 45.43 58.54ZM58.82 40.25L58.82 58.54L51.48 58.54C51.62 56.16 51.70 53.78 51.70 51.26L51.70 40.25ZM68.69 64.58L68.69 58.54L64.87 58.54L64.87 34.20L51.70 34.20L51.70 23.69L45.72 23.69L45.72 34.20L32.69 34.20L32.69 58.54L27.86 58.54L27.86 64.58L44.35 64.58C42.48 72.22 37.87 78.84 27.36 83.88C28.66 84.89 30.74 87.26 31.54 88.63C43.92 82.58 48.82 74.16 50.62 64.58ZM49.03 72.29C54.50 77.11 61.13 84.02 64.22 88.49L68.76 84.02C65.59 79.78 58.68 73.15 53.28 68.40Z"/></svg>
