<svg xmlns="http://www.w3.org/2000/svg" xmlns:xlink="http://www.w3.org/1999/xlink" width="72.00000000000001" height="106.56000000000002"><path fill="red" stroke="red" d="M28.80 61.56C27.50 59.76 21.96 53.14 20.09 51.12L20.09 49.68L28.51 49.68L28.51 43.49L20.09 43.49L20.09 31.75C23.11 31.03 25.92 30.10 28.44 29.09L24.48 23.69C19.44 25.99 11.30 28.08 4.10 29.38C4.90 30.89 5.69 33.05 5.98 34.49C8.50 34.13 11.16 33.77 13.82 33.19L13.82 43.49L3.31 43.49L3.31 49.68L12.24 49.68C10.01 57.24 6.05 65.88 2.30 70.78C3.38 72.43 4.97 75.24 5.54 77.04C8.50 72.86 11.52 66.31 13.82 59.54L13.82 89.21L20.09 89.21L20.09 58.18C21.96 61.20 24.12 64.80 25.06 66.82ZM60.34 61.20C58.25 65.30 55.51 68.83 52.13 71.86C49.82 69.62 46.51 66.96 43.56 64.94C45.07 63.72 46.51 62.50 47.74 61.20ZM56.09 35.35C53.93 38.30 51.12 40.97 47.95 43.20C45.86 41.26 42.98 38.95 40.39 37.15C41.11 36.58 41.83 36.00 42.55 35.35ZM64.66 55.22L63.50 55.51L52.85 55.51C54.07 53.86 55.22 52.13 56.30 50.47L49.61 49.18C56.38 44.93 61.99 39.17 65.38 31.68L61.06 29.52L59.98 29.81L48.10 29.81C49.61 28.08 50.98 26.28 52.20 24.48L45.43 23.18C42.05 28.30 35.86 34.13 27.00 38.38C28.51 39.31 30.53 41.47 31.54 42.98C32.98 42.19 34.42 41.40 35.78 40.46C38.23 42.34 40.75 44.57 42.70 46.44C38.02 48.89 32.76 50.76 27.58 51.91C28.73 53.21 30.24 55.51 31.03 57.02C37.51 55.30 43.85 52.78 49.46 49.25C45.86 55.58 38.74 62.64 28.15 67.39C29.59 68.40 31.46 70.63 32.40 72.14C34.70 70.92 36.86 69.70 38.88 68.33C41.90 70.63 45.07 73.44 47.09 75.74C41.04 79.78 33.77 82.51 26.14 84.10C27.43 85.39 28.94 87.77 29.59 89.50C47.38 85.10 62.78 75.89 68.98 57.24Z"/></svg>
