<svg xmlns="http://www.w3.org/2000/svg" xmlns:xlink="http://www.w3.org/1999/xlink" width="72.00000000000001" height="106.56000000000002"><path fill="red" stroke="red" d="M63.00 23.90C54.65 26.42 40.10 28.15 27.65 29.09C28.37 30.60 29.23 32.83 29.38 34.34C41.98 33.55 57.02 31.90 67.10 29.02ZM60.48 50.18C62.64 46.44 65.23 40.75 67.46 35.71L61.34 33.19C59.98 37.73 57.38 43.99 55.22 47.88ZM51.77 46.15C51.19 43.20 49.46 38.45 47.81 34.92L42.41 36.22C44.06 39.89 45.58 44.86 46.08 47.81ZM19.73 31.68C22.68 30.89 25.56 30.02 27.94 28.94L23.90 23.54C18.94 25.85 10.94 27.94 3.96 29.23C4.68 30.74 5.54 32.98 5.83 34.49C8.28 34.13 10.87 33.62 13.46 33.12L13.46 43.49L4.10 43.49L4.10 49.68L12.67 49.68C10.37 57.17 6.41 65.81 2.52 70.70C3.60 72.50 5.18 75.38 5.83 77.33C8.57 73.51 11.23 67.90 13.46 61.92L13.46 89.21L19.73 89.21L19.73 58.54C21.24 61.06 22.75 63.86 23.47 65.45L27.29 60.05C26.28 58.61 21.74 53.42 19.73 51.26L19.73 49.68L28.51 49.68L28.51 43.49L19.73 43.49ZM39.10 47.38C38.09 44.64 35.93 40.10 34.06 36.65L28.80 38.45C30.60 41.98 32.62 46.66 33.55 49.46ZM48.82 57.96L59.98 57.96L59.98 65.81L49.25 65.81L49.25 71.57L59.98 71.57L59.98 80.50L35.93 80.50L35.93 71.57L46.22 71.57L46.22 65.81L35.93 65.81L35.93 57.60C39.53 56.23 43.27 54.43 46.37 52.70L41.47 48.17C38.59 50.40 33.84 52.99 29.52 54.79L29.52 89.06L35.93 89.06L35.93 86.40L59.98 86.40L59.98 88.63L66.17 88.63L66.17 52.06L48.82 52.06Z"/></svg>
