<svg xmlns="http://www.w3.org/2000/svg" xmlns:xlink="http://www.w3.org/1999/xlink" width="72.00000000000001" height="106.56000000000002"><path fill="red" stroke="red" d="M54.65 54.72L54.65 81.36L23.83 81.36C30.31 79.06 35.93 76.18 40.75 73.15C43.85 75.60 46.51 77.98 48.38 79.99L52.63 76.39C50.76 74.45 48.17 72.22 45.22 69.98C48.89 67.25 52.06 64.22 54.65 61.13L48.24 59.90C46.44 62.14 43.99 64.51 40.90 66.82C39.38 65.74 37.73 64.66 36.14 63.65C39.10 61.49 41.62 59.33 43.85 56.88L37.66 55.80C36.14 57.46 34.06 59.18 31.54 60.77C29.16 59.33 26.71 57.96 24.48 56.74L20.59 59.98C22.61 60.98 24.70 62.21 26.71 63.50C24.34 64.66 21.67 65.74 18.79 66.74C20.02 67.68 21.89 69.41 22.75 70.78C25.99 69.48 28.94 68.04 31.54 66.53C33.19 67.61 34.78 68.69 36.36 69.84C31.68 72.65 26.14 75.24 19.58 77.26C20.81 78.26 22.46 79.92 23.33 81.36L17.78 81.36L17.78 54.72ZM30.60 43.42C29.81 45.07 28.58 47.30 27.29 49.25L11.52 49.25L11.52 89.28L17.78 89.28L17.78 86.62L54.65 86.62L54.65 89.14L61.20 89.14L61.20 49.25L34.13 49.25C35.28 47.74 36.43 46.22 37.44 44.64ZM67.68 38.95L67.68 28.01L40.68 28.01C40.10 26.28 39.31 24.41 38.59 22.82L31.68 23.90C32.11 25.13 32.62 26.57 33.12 28.01L5.26 28.01L5.26 39.67L11.66 39.67L11.66 33.26L24.62 33.26C23.26 38.95 19.37 41.54 5.83 42.84C6.91 43.99 8.42 46.44 8.93 47.88C24.70 45.79 29.52 41.69 31.18 33.26L39.24 33.26L39.24 39.10C39.24 43.56 40.32 45.86 46.01 45.86L57.89 45.86C60.19 45.86 62.93 45.79 64.22 45.36C63.94 43.85 63.86 42.62 63.72 40.90C62.50 41.26 59.04 41.40 57.38 41.40L47.74 41.40C45.86 41.40 45.65 40.75 45.65 39.17L45.65 33.26L60.91 33.26L60.91 38.95Z"/></svg>
