<svg xmlns="http://www.w3.org/2000/svg" xmlns:xlink="http://www.w3.org/1999/xlink" width="72.00000000000001" height="106.56000000000002"><path fill="red" stroke="red" d="M12.46 67.97L12.46 64.15L18.79 64.15L18.79 67.97ZM12.46 56.38L18.79 56.38L18.79 60.19L12.46 60.19ZM30.38 56.38L30.38 60.19L24.41 60.19L24.41 56.38ZM30.38 67.97L24.41 67.97L24.41 64.15L30.38 64.15ZM24.41 72.22L35.93 72.22L35.93 52.20L24.41 52.20L24.41 49.25L37.80 49.25L37.80 44.28L24.41 44.28L24.41 41.83C24.70 42.12 24.91 42.41 25.13 42.70L29.45 38.81C28.08 37.15 25.63 34.92 23.33 33.12L35.35 33.12L35.35 27.86L18.14 27.86C18.79 26.64 19.37 25.49 19.87 24.26L13.82 22.54C11.52 28.37 7.56 34.20 3.24 37.94C4.61 39.02 6.91 41.26 7.85 42.41C10.37 39.89 12.89 36.65 15.26 33.12L20.45 33.12L17.78 35.35C19.44 36.72 21.38 38.59 22.97 40.18L18.79 40.18L18.79 44.28L4.75 44.28L4.75 49.25L18.79 49.25L18.79 52.20L7.13 52.20L7.13 72.22L18.79 72.22L18.79 75.31L3.60 75.31L3.60 80.42L18.79 80.42L18.79 89.21L24.41 89.21L24.41 80.42L38.23 80.42L38.23 75.31L24.41 75.31ZM51.98 33.12L48.82 35.64C51.41 37.58 54.50 40.46 56.02 42.41L60.48 38.52C59.18 36.94 56.66 34.85 54.50 33.12L68.62 33.12L68.62 27.86L48.02 27.86C48.53 26.57 48.96 25.34 49.39 24.05L43.27 22.54C41.40 28.58 37.87 34.34 33.77 38.09C35.14 39.02 37.73 40.97 38.81 42.05C41.11 39.60 43.42 36.58 45.36 33.12ZM50.18 81.43C47.23 81.43 46.73 80.86 46.73 78.05L46.73 48.96L58.10 48.96L58.10 63.86C58.10 64.73 57.82 64.94 56.88 65.02C55.87 65.02 52.70 65.02 49.32 64.94C50.26 66.60 51.26 69.34 51.62 71.14C56.23 71.14 59.47 70.99 61.70 69.91C63.86 68.90 64.44 67.03 64.44 64.01L64.44 43.13L40.39 43.13L40.39 78.05C40.39 85.54 42.48 87.48 49.46 87.48L60.48 87.48C66.67 87.48 68.47 84.53 69.19 74.88C67.46 74.45 64.80 73.37 63.36 72.29C63.07 79.85 62.57 81.43 59.98 81.43Z"/></svg>
