<svg xmlns="http://www.w3.org/2000/svg" xmlns:xlink="http://www.w3.org/1999/xlink" width="72.00000000000001" height="106.56000000000002"><path fill="red" stroke="red" d="M20.74 32.33L17.71 34.56C19.80 36.72 22.54 39.74 23.76 41.69L28.30 38.09C27.14 36.58 24.98 34.20 22.97 32.33L35.35 32.33L35.35 27.14L18.29 27.14C18.79 26.21 19.30 25.27 19.73 24.34L13.82 22.46C11.52 27.43 7.34 32.33 3.10 35.57C4.39 36.65 6.62 38.95 7.56 40.10C10.01 38.02 12.60 35.28 14.83 32.33ZM5.18 63.72C12.10 62.71 21.31 61.42 30.17 60.05L29.95 54.94C26.93 55.37 23.76 55.80 20.81 56.23L20.81 46.94L29.95 46.94L29.95 42.12L5.26 42.12L5.26 46.94L14.69 46.94L14.69 57.02C10.80 57.53 7.27 57.96 4.39 58.32ZM22.90 73.58C18.94 77.62 11.09 81.07 3.89 82.66C5.40 84.02 7.34 86.47 8.35 88.13C15.91 85.90 23.90 81.14 28.44 75.67ZM43.63 77.33C50.04 80.14 58.32 84.60 62.35 87.62L67.10 82.87C62.71 79.85 54.36 75.74 48.10 73.08ZM39.17 62.78L36.94 62.78C39.67 61.34 41.62 59.62 42.98 57.74C45.36 58.97 47.52 60.05 49.03 60.98L51.48 56.52C49.82 55.58 47.59 54.43 45.07 53.28C45.50 51.77 45.65 50.18 45.65 48.67L45.65 46.30L52.20 46.30L52.20 56.02C52.20 60.12 52.56 61.49 53.71 62.50C54.72 63.43 56.52 63.86 58.03 63.86L61.42 63.86C62.57 63.86 64.01 63.72 64.87 63.22C65.88 62.71 66.60 61.92 67.03 60.77C67.46 59.69 67.75 56.66 67.90 54.00C66.38 53.50 64.51 52.56 63.36 51.62C63.29 54.07 63.22 56.09 63.07 56.88C62.93 57.74 62.64 58.18 62.42 58.39C62.14 58.54 61.70 58.61 61.27 58.61L59.69 58.61C59.33 58.61 58.97 58.54 58.75 58.32C58.46 58.03 58.46 57.31 58.46 56.09L58.46 41.69L32.47 41.69L32.47 46.30L40.10 46.30L40.10 48.53C40.10 49.32 40.03 50.11 39.89 50.90C37.73 49.97 35.57 49.03 33.70 48.31L31.25 52.20C33.26 53.06 35.50 54.14 37.80 55.22C36.14 57.10 33.55 58.90 29.23 60.41C30.24 61.06 31.68 62.35 32.76 63.36L32.76 67.18L4.03 67.18L4.03 72.50L32.76 72.50L32.76 89.06L39.17 89.06L39.17 72.50L68.18 72.50L68.18 67.18L39.17 67.18ZM47.45 27.22C47.95 26.14 48.38 25.20 48.82 24.12L42.70 22.54C40.75 27.79 37.08 32.76 32.90 36.00C34.34 36.94 36.79 38.95 37.87 40.03C40.18 38.02 42.48 35.35 44.42 32.40L51.70 32.40L48.74 34.34C50.90 36.43 53.42 39.24 54.65 41.11L59.40 37.66C58.39 36.14 56.45 34.13 54.58 32.40L68.69 32.40L68.69 27.22Z"/></svg>
