<svg xmlns="http://www.w3.org/2000/svg" xmlns:xlink="http://www.w3.org/1999/xlink" width="72.00000000000001" height="106.56000000000002"><path fill="red" stroke="red" d="M50.90 37.44L50.90 45.86L38.66 45.86L38.66 51.41L68.40 51.41L68.40 45.86L56.74 45.86L56.74 37.44L66.60 37.44L66.60 32.04L56.74 32.04L56.74 23.76L50.90 23.76L50.90 32.04L46.58 32.04C47.09 30.10 47.45 28.08 47.81 26.14L42.55 25.13C41.62 31.10 40.03 37.22 37.51 41.47C38.88 41.90 41.33 42.98 42.48 43.70C43.34 41.90 44.28 39.82 45.07 37.44ZM47.81 70.42L47.81 61.70L59.90 61.70L59.90 70.42ZM66.10 78.19L66.10 56.38L41.83 56.38L41.83 78.62L47.81 78.62L47.81 75.60L59.90 75.60L59.90 78.19ZM35.78 35.71C34.85 32.62 33.26 27.72 32.11 23.98L27.00 25.06C28.08 28.87 29.66 33.84 30.46 37.08ZM21.46 27.43C20.81 32.26 19.22 39.31 18.00 43.56L21.89 44.64C23.33 40.68 25.13 33.91 26.57 28.58ZM10.51 43.56C10.30 39.38 9.07 33.12 7.49 28.22L3.24 29.16C4.68 34.06 5.83 40.46 5.98 44.64ZM8.14 56.88C7.06 62.42 4.39 69.77 2.02 73.66C2.95 75.38 4.18 78.19 4.68 80.06C7.92 75.10 10.66 65.52 11.95 58.39ZM25.13 53.78L25.13 47.59L17.50 47.59L17.50 23.18L11.95 23.18L11.95 47.59L3.10 47.59L3.10 53.78L11.95 53.78L11.95 89.14L17.50 89.14L17.50 53.78ZM27.00 68.18C26.14 66.17 22.03 58.32 20.88 56.66L17.64 58.75C19.01 61.49 21.82 68.90 22.75 72.29ZM36.79 56.16L35.86 56.45L32.90 56.45C34.34 51.34 36.07 45.22 37.30 40.10L25.42 40.10L25.42 46.15L30.60 46.15C29.23 51.84 27.43 57.89 25.99 62.21L33.05 62.21C32.04 67.18 30.46 72.36 28.58 76.25C26.14 77.62 23.62 80.28 21.17 83.38L25.42 89.21C27.58 85.10 30.17 80.71 31.97 80.71C33.41 80.71 35.57 82.80 38.16 84.53C42.26 87.19 46.80 88.27 53.35 88.27C58.18 88.27 65.74 88.06 69.34 87.77C69.41 86.11 70.27 82.94 70.85 81.29C65.88 81.94 58.39 82.30 53.42 82.30C47.45 82.30 42.98 81.50 39.24 79.06C37.01 77.69 35.64 76.32 34.20 75.67C36.58 70.27 38.59 63.50 39.67 57.31Z"/></svg>
