<svg xmlns="http://www.w3.org/2000/svg" xmlns:xlink="http://www.w3.org/1999/xlink" width="72.00000000000001" height="106.56000000000002"><path fill="red" stroke="red" d="M60.19 50.11C65.88 50.11 67.75 48.31 68.54 41.40C66.74 41.04 64.08 40.10 62.71 39.10C62.42 43.70 61.92 44.50 59.62 44.50L49.10 44.50C45.94 44.50 45.43 44.21 45.43 42.05L45.43 35.78L65.45 35.78L65.45 30.46L45.43 30.46L45.43 23.18L38.81 23.18L38.81 42.12C38.81 48.38 40.68 50.11 48.31 50.11ZM19.80 74.95C15.91 78.26 9.58 81.65 3.82 83.81C5.33 84.82 7.70 86.90 8.93 87.98C14.47 85.39 21.31 81.29 25.70 77.26ZM44.57 77.33C50.26 80.21 57.60 84.74 61.49 87.62L67.03 84.10C63.00 81.43 55.73 77.11 50.04 74.23ZM46.94 62.21C48.53 63.43 50.26 64.87 51.91 66.38L28.08 67.90C36.50 64.51 44.78 60.48 52.70 55.73L48.38 51.12C45.94 52.70 43.42 54.29 40.68 55.73L27.29 56.74C31.03 54.94 34.70 52.99 38.23 50.83L33.98 47.30L36.50 46.94L36.36 41.69L26.14 42.98L26.14 35.78L36.14 35.78L36.14 30.38L26.14 30.38L26.14 23.18L19.73 23.18L19.73 43.78L13.75 44.50L13.75 28.44L7.78 28.44L7.78 45.22L3.02 45.79L3.67 51.70C11.52 50.69 22.46 49.03 33.19 47.45C27.36 51.62 19.80 55.01 17.28 56.02C15.05 57.02 13.25 57.60 11.59 57.82C12.24 59.33 12.96 62.21 13.25 63.36C14.76 62.78 16.92 62.42 30.02 61.34C24.70 63.79 20.23 65.66 18.00 66.46C13.82 68.11 10.94 69.05 8.42 69.34C9.07 70.99 9.86 74.02 10.08 75.24C12.24 74.45 15.12 74.02 33.19 72.72L33.19 82.30C33.19 83.16 32.90 83.45 31.82 83.45C30.74 83.52 27.00 83.52 23.11 83.38C24.12 84.96 25.13 87.41 25.49 89.14C30.67 89.14 34.20 89.14 36.65 88.20C39.24 87.34 39.96 85.75 39.96 82.51L39.96 72.22L56.88 70.92C58.97 73.08 60.84 75.10 61.99 76.68L67.82 73.94C64.58 69.77 57.89 63.79 52.49 59.69Z"/></svg>
