<svg xmlns="http://www.w3.org/2000/svg" xmlns:xlink="http://www.w3.org/1999/xlink" width="72.00000000000001" height="106.56000000000002"><path fill="red" stroke="red" d="M68.54 30.74C67.03 28.66 63.79 25.63 61.06 23.69L57.10 26.57C59.83 28.73 62.93 31.82 64.44 33.98ZM27.65 65.81C27.22 61.99 25.42 55.58 23.76 50.76L19.30 51.84C19.94 53.78 20.59 56.09 21.10 58.32L12.24 59.47C17.35 52.92 22.39 44.78 26.35 36.86L21.02 33.84C19.73 37.01 18.07 40.25 16.49 43.27L10.73 43.70C14.11 38.45 17.42 31.90 20.02 25.56L14.33 23.26C12.02 30.89 7.63 38.95 6.34 41.04C4.97 43.20 3.89 44.64 2.66 44.93C3.31 46.51 4.25 49.25 4.54 50.47C5.54 50.04 7.13 49.68 13.18 48.89C11.02 52.42 9.14 55.15 8.21 56.30C6.19 58.97 4.61 60.77 3.10 61.13C3.89 62.64 4.75 65.52 5.04 66.74C6.48 66.02 8.71 65.45 22.32 63.43C22.61 64.87 22.82 66.17 22.97 67.25ZM5.90 69.41C5.33 75.46 4.32 81.94 2.66 86.40C3.96 86.76 6.41 87.48 7.49 88.06C8.93 83.66 10.22 76.68 10.87 70.27ZM12.67 70.06C13.39 74.88 14.11 81.14 14.18 85.25L18.86 84.38C18.65 80.28 17.93 74.16 17.06 69.34ZM45.00 59.69L45.00 70.06L40.18 70.06L40.18 59.69ZM49.25 74.88L49.25 54.86L35.93 54.86L35.93 79.49L40.18 79.49L40.18 74.88ZM62.06 47.38C61.06 52.78 59.54 57.82 57.82 62.42C57.24 55.87 56.81 48.24 56.59 40.18L68.76 40.18L68.76 34.49L56.52 34.49C56.45 30.74 56.38 26.93 56.38 23.11L51.05 23.11C51.12 26.93 51.19 30.74 51.26 34.49L28.66 34.49L28.66 55.22C28.66 62.28 28.37 71.28 26.21 79.06C25.63 75.96 24.34 71.28 23.11 67.61L19.01 68.76C20.09 72.50 21.46 77.40 21.89 80.57L26.14 79.27C25.42 81.50 24.62 83.59 23.62 85.61C24.77 86.26 27.14 88.13 28.01 89.21C33.19 79.70 34.06 65.23 34.06 55.22L34.06 50.04L50.04 50.04L50.04 44.86L34.06 44.86L34.06 40.18L51.34 40.18C51.77 51.91 52.34 62.64 53.64 70.99C50.26 76.68 46.08 81.29 40.97 84.89C42.19 85.97 44.14 88.20 44.86 89.28C48.74 86.33 52.20 82.80 55.08 78.70C56.52 84.02 58.39 87.48 60.98 88.42C65.23 90.58 68.62 87.34 69.62 75.89C68.33 75.17 66.53 73.87 65.38 72.86C65.02 79.42 64.22 83.52 63.22 83.23C61.42 82.73 59.98 78.70 58.97 72.58C62.86 65.59 65.59 57.46 67.54 48.24Z"/></svg>
