<svg xmlns="http://www.w3.org/2000/svg" xmlns:xlink="http://www.w3.org/1999/xlink" width="72.00000000000001" height="106.56000000000002"><path fill="red" stroke="red" d="M37.08 55.15L37.08 50.54L50.69 50.54C48.38 52.20 45.86 53.71 43.27 55.15ZM55.08 73.37L25.20 73.37L25.20 69.48L55.08 69.48ZM25.20 82.08L25.20 77.76L55.08 77.76L55.08 82.08ZM24.55 36.29L14.62 36.29L14.62 30.46L24.55 30.46ZM30.67 30.46L40.97 30.46L40.97 36.29L30.67 36.29ZM47.09 30.46L57.60 30.46L57.60 36.29L47.09 36.29ZM67.82 60.55L67.82 55.15L54.43 55.15C58.32 52.49 61.92 49.54 65.02 46.37L59.62 43.06C57.53 45.22 55.15 47.23 52.56 49.18L52.56 45.29L37.08 45.29L37.08 41.04L64.22 41.04L64.22 25.70L8.28 25.70L8.28 41.04L30.60 41.04L30.60 45.29L11.66 45.29L11.66 50.54L30.60 50.54L30.60 55.15L4.25 55.15L4.25 60.55L32.04 60.55C22.75 64.44 12.67 67.39 2.59 69.41C3.67 70.78 5.26 73.66 5.90 75.10C10.22 74.09 14.62 72.86 19.01 71.42L19.01 89.06L25.20 89.06L25.20 86.98L55.08 86.98L55.08 88.85L61.56 88.85L61.56 64.58L37.22 64.58C40.03 63.36 42.77 61.99 45.50 60.55Z"/></svg>
