<svg xmlns="http://www.w3.org/2000/svg" xmlns:xlink="http://www.w3.org/1999/xlink" width="72.00000000000001" height="106.56000000000002"><path fill="red" stroke="red" d="M7.78 73.94C7.13 78.48 6.05 83.38 4.25 86.62C5.69 86.90 8.21 87.48 9.36 87.98C11.09 84.67 12.38 79.49 13.03 74.66ZM15.55 74.59C16.63 78.41 17.50 83.45 17.57 86.76L22.82 85.82C22.68 82.51 21.74 77.69 20.52 73.73ZM23.98 73.58C25.78 77.04 27.72 81.72 28.37 84.74L33.41 83.45C32.62 80.50 30.67 75.89 28.66 72.43ZM14.04 30.67L24.26 30.67L24.26 36.86L14.04 36.86ZM30.38 30.67L40.97 30.67L40.97 36.86L30.38 36.86ZM47.09 30.67L57.82 30.67L57.82 36.86L47.09 36.86ZM24.19 60.26C24.98 61.63 25.70 63.22 26.28 64.73L15.62 65.81C21.17 61.20 26.50 55.73 30.96 50.11L25.78 47.23C24.41 49.25 22.68 51.41 21.02 53.35L14.18 53.78C17.28 50.69 20.30 47.09 22.68 43.42L19.01 41.83L64.58 41.83L64.58 25.70L7.63 25.70L7.63 41.83L16.42 41.83C13.75 46.66 9.65 51.41 8.35 52.56C6.98 54.00 5.83 54.86 4.54 55.08C5.33 56.30 6.26 58.61 6.62 59.69C7.70 59.26 9.43 58.90 16.56 58.32C13.90 61.06 11.59 63.22 10.44 64.01C8.21 66.02 6.48 67.18 4.82 67.46C5.54 68.76 6.55 71.06 6.84 72.00C8.57 71.35 11.16 70.92 28.01 69.12C28.44 70.42 28.80 71.57 28.94 72.65L33.70 70.70C33.05 67.46 30.89 62.50 28.73 58.68ZM42.41 76.03L51.48 76.03L51.48 81.14L42.41 81.14ZM51.48 61.06L42.41 61.06L42.41 56.02L51.48 56.02ZM51.48 71.06L42.41 71.06L42.41 65.95L51.48 65.95ZM68.76 81.14L57.31 81.14L57.31 76.03L65.88 76.03L65.88 71.06L57.31 71.06L57.31 65.95L65.88 65.95L65.88 61.06L57.31 61.06L57.31 56.02L67.68 56.02L67.68 50.62L58.10 50.62C57.31 48.10 55.87 45.14 54.43 42.62L49.25 44.28C50.33 46.15 51.34 48.53 52.13 50.62L42.98 50.62C44.28 48.31 45.36 45.86 46.37 43.49L40.46 41.90C37.94 48.46 33.98 54.72 29.23 58.90C30.74 59.83 33.12 61.63 34.27 62.71C34.92 61.99 35.57 61.27 36.29 60.41L36.29 89.21L42.41 89.21L42.41 86.54L68.76 86.54Z"/></svg>
