<svg xmlns="http://www.w3.org/2000/svg" xmlns:xlink="http://www.w3.org/1999/xlink" width="72.00000000000001" height="106.56000000000002"><path fill="red" stroke="red" d="M30.38 72.50C28.87 70.92 22.82 65.30 19.94 62.78L19.94 60.34L29.95 60.34L29.95 54.65L19.94 54.65L19.94 48.24L28.44 48.24L28.44 42.55L19.94 42.55L19.94 34.78C23.69 33.91 27.14 32.98 30.10 31.82L25.49 27.22C23.90 27.86 22.03 28.44 19.94 29.09L19.94 23.11L13.82 23.11L13.82 30.53C10.30 31.25 6.55 31.82 3.10 32.33C3.74 33.70 4.61 35.86 4.90 37.15C7.78 36.94 10.80 36.50 13.82 36.00L13.82 42.55L4.68 42.55L4.68 48.24L13.82 48.24L13.82 54.65L3.31 54.65L3.31 60.34L12.38 60.34C10.01 66.67 5.98 73.58 2.30 77.54C3.31 79.13 4.75 81.79 5.26 83.59C8.42 80.21 11.38 75.02 13.82 69.55L13.82 89.06L19.94 89.06L19.94 69.34C22.54 72.07 25.42 75.17 26.78 77.04ZM45.79 51.41C46.22 53.21 46.80 55.44 47.16 57.31L32.62 57.31L32.62 62.93L41.62 62.93C40.90 73.15 38.74 80.50 29.52 84.67C30.67 85.75 32.33 88.06 32.98 89.57C40.18 86.11 43.78 81.07 45.65 74.30L58.32 74.30C57.82 79.63 57.24 82.01 56.52 82.87C56.02 83.45 55.37 83.52 54.36 83.52C53.21 83.52 50.54 83.45 47.74 83.16C48.60 84.74 49.25 87.05 49.25 88.78C52.49 88.92 55.44 88.92 57.02 88.78C58.90 88.56 60.12 88.13 61.34 86.83C62.93 85.03 63.65 80.86 64.37 71.21C64.44 70.42 64.51 68.83 64.51 68.83L46.80 68.83C47.09 66.96 47.30 65.02 47.45 62.93L67.18 62.93L67.18 57.31L53.28 57.31C52.85 55.30 52.06 52.63 51.41 50.62ZM56.23 35.06C55.58 37.66 54.43 40.90 53.50 43.27L43.27 43.27L46.22 42.55C45.86 40.68 44.93 37.51 43.92 35.06ZM59.18 43.27C60.26 40.97 61.34 37.87 62.50 35.06L66.74 35.06L66.74 29.66L54.22 29.66C53.78 27.43 53.14 24.62 52.42 22.46L46.22 23.33C46.80 25.27 47.30 27.65 47.66 29.66L32.54 29.66L32.54 35.06L40.18 35.06L38.45 35.42C39.24 37.80 40.10 41.11 40.46 43.27L31.61 43.27L31.61 55.22L37.15 55.22L37.15 48.60L62.42 48.60L62.42 55.08L68.18 55.08L68.18 43.27Z"/></svg>
