<svg xmlns="http://www.w3.org/2000/svg" xmlns:xlink="http://www.w3.org/1999/xlink" width="72.00000000000001" height="106.56000000000002"><path fill="red" stroke="red" d="M13.61 44.06C16.20 46.73 19.08 50.04 20.59 52.20L23.26 49.97L23.26 55.58C19.58 58.03 15.98 60.34 13.32 61.99C13.54 58.25 13.61 54.65 13.61 51.48ZM23.26 31.90L23.26 46.94C21.31 44.71 18.72 42.05 16.34 39.96L13.61 41.98L13.61 31.90ZM29.45 25.70L7.56 25.70L7.56 51.48C7.56 61.99 7.20 76.32 2.45 86.26C4.03 86.83 6.77 88.34 7.92 89.35C11.30 82.15 12.67 72.43 13.25 63.36L15.84 67.75C18.14 65.81 20.74 63.65 23.26 61.49L23.26 80.93C23.26 81.86 22.90 82.22 22.03 82.30C21.10 82.30 18.22 82.30 15.26 82.15C16.06 83.88 16.85 86.90 17.06 88.63C21.89 88.63 24.77 88.49 26.86 87.34C28.87 86.26 29.45 84.31 29.45 81.00ZM54.14 79.20L54.14 36.07L66.89 36.07L66.89 29.52L33.77 29.52L33.77 36.07L46.94 36.07L46.94 79.20L32.47 79.20L32.47 85.61L68.76 85.61L68.76 79.20Z"/></svg>
