<svg xmlns="http://www.w3.org/2000/svg" xmlns:xlink="http://www.w3.org/1999/xlink" width="72.00000000000001" height="106.56000000000002"><path fill="red" stroke="red" d="M12.67 44.57C14.83 46.73 16.92 49.25 18.07 50.98L20.38 49.10L20.38 56.38C17.42 58.39 14.69 60.19 12.46 61.56C12.60 57.89 12.67 54.50 12.67 51.41ZM20.38 31.68L20.38 45.36C18.79 43.56 16.78 41.62 14.98 39.96L12.67 41.62L12.67 31.68ZM26.21 25.70L6.98 25.70L6.98 51.41C6.98 61.85 6.62 76.18 2.38 86.26C3.89 86.76 6.41 88.13 7.56 89.14C10.51 82.22 11.74 72.86 12.31 64.22L14.33 67.75C16.27 66.02 18.29 64.30 20.38 62.42L20.38 81.14C20.38 82.08 20.02 82.44 19.15 82.44C18.36 82.44 15.84 82.44 13.10 82.37C13.90 84.02 14.62 86.90 14.83 88.49C19.22 88.49 21.96 88.34 23.83 87.26C25.70 86.26 26.21 84.31 26.21 81.29ZM60.55 50.04L60.55 56.09L51.91 56.09L51.91 50.04ZM51.91 67.82L51.91 61.56L60.55 61.56L60.55 67.82ZM37.01 67.82L37.01 61.56L45.58 61.56L45.58 67.82ZM45.58 50.04L45.58 56.09L37.01 56.09L37.01 50.04ZM68.83 38.45L68.83 32.47L63.14 32.47L66.31 29.59C64.30 27.86 60.34 25.06 57.46 23.26L53.35 26.57C55.80 28.30 58.97 30.67 61.06 32.47L51.91 32.47L51.91 23.26L45.58 23.26L45.58 32.47L28.94 32.47L28.94 38.45L45.58 38.45L45.58 44.42L30.82 44.42L30.82 89.14L37.01 89.14L37.01 73.30L45.58 73.30L45.58 88.06L51.91 88.06L51.91 73.30L60.55 73.30L60.55 81.79C60.55 82.58 60.26 82.87 59.47 82.87C58.75 82.87 56.38 82.94 53.93 82.80C54.72 84.38 55.51 86.98 55.80 88.63C59.83 88.63 62.50 88.49 64.44 87.48C66.38 86.54 66.89 84.82 66.89 81.86L66.89 44.42L51.91 44.42L51.91 38.45Z"/></svg>
