<svg xmlns="http://www.w3.org/2000/svg" xmlns:xlink="http://www.w3.org/1999/xlink" width="72.00000000000001" height="106.56000000000002"><path fill="red" stroke="red" d="M68.76 47.59C67.03 44.71 63.50 40.18 60.19 36.43C62.64 33.12 65.38 29.02 67.54 25.49L61.63 23.98C59.83 27.29 56.59 32.40 53.50 36.58C57.74 41.18 61.56 46.58 63.36 50.18ZM12.53 44.14C14.47 46.37 16.42 49.10 17.50 50.90L20.16 49.03L20.16 56.66C17.14 58.82 14.40 60.84 12.24 62.14C12.46 58.25 12.53 54.50 12.53 51.19ZM20.16 31.82L20.16 46.30C18.72 44.50 16.85 42.19 15.19 40.46L12.53 42.05L12.53 31.82ZM25.78 25.70L6.98 25.70L6.98 51.19C6.98 61.56 6.62 75.60 2.38 85.54C3.60 86.18 5.98 88.20 6.98 89.42C10.22 82.08 11.59 72.29 12.17 63.36L14.26 67.82L20.16 62.50L20.16 81.79C20.16 82.80 19.80 83.09 18.94 83.16C18.00 83.16 15.12 83.23 12.10 83.09C12.89 84.60 13.68 87.41 13.82 88.99C18.50 88.99 21.38 88.85 23.33 87.77C25.20 86.83 25.78 84.96 25.78 81.86ZM42.05 48.74C40.54 45.50 37.30 40.68 34.13 36.58C36.36 32.98 39.02 28.58 41.11 24.84L35.28 23.40C33.70 26.93 30.60 32.26 27.58 36.65C31.46 41.76 34.99 47.30 36.65 51.12ZM59.76 75.60C58.10 73.87 55.73 71.71 52.92 69.55C55.01 67.39 56.81 65.16 58.32 62.86L53.64 60.41C52.34 62.50 50.76 64.51 48.82 66.53C46.37 64.73 43.92 63.07 41.62 61.63L38.02 65.02C40.25 66.53 42.70 68.18 45.14 70.06C42.41 72.22 39.53 74.30 36.50 75.89C37.73 76.90 39.24 78.41 40.03 79.56C43.20 77.83 46.30 75.60 49.10 73.15C51.91 75.38 54.36 77.62 55.94 79.42ZM60.70 80.71L35.86 80.71L35.86 59.83L60.70 59.83ZM50.98 49.75L55.22 47.88C53.57 44.86 50.33 40.32 47.09 36.50C49.39 33.12 51.98 29.02 54.14 25.42L48.31 24.05C46.66 27.43 43.49 32.40 40.61 36.65C44.28 41.04 47.59 45.86 49.39 49.39L44.21 48.31C43.63 49.97 42.55 52.27 41.54 54.29L29.95 54.29L29.95 89.14L35.86 89.14L35.86 86.18L60.70 86.18L60.70 88.78L66.89 88.78L66.89 54.29L48.24 54.29C49.18 52.85 50.18 51.34 51.12 49.75Z"/></svg>
