<svg xmlns="http://www.w3.org/2000/svg" xmlns:xlink="http://www.w3.org/1999/xlink" width="72.00000000000001" height="106.56000000000002"><path fill="red" stroke="red" d="M50.33 40.32C49.10 36.22 46.08 29.81 43.06 24.98L38.23 26.57C41.11 31.46 44.06 38.16 45.07 42.34ZM30.46 24.77C28.94 30.53 26.35 36.22 23.04 40.10C24.26 40.90 26.50 42.62 27.43 43.49C30.89 39.17 34.13 32.54 35.93 25.99ZM28.15 60.48C31.75 56.95 34.85 52.49 37.22 47.45C40.61 51.84 44.06 56.81 46.08 60.48ZM32.83 78.62L32.83 66.38L41.04 66.38L41.04 78.62ZM11.59 45.50C13.18 47.16 14.62 49.18 15.48 50.54L17.21 49.10L17.21 58.25C14.98 59.90 13.03 61.42 11.38 62.57C11.52 58.54 11.59 54.79 11.59 51.48ZM17.21 31.82L17.21 44.93C16.06 43.70 14.76 42.34 13.61 41.18L11.59 42.70L11.59 31.82ZM66.60 27.07L50.62 27.07L50.62 57.10C48.02 52.78 43.49 46.80 39.53 41.98C39.89 41.04 40.25 39.96 40.61 38.88L35.14 37.37C32.83 45.43 28.22 53.14 22.75 57.60L22.75 25.70L6.26 25.70L6.26 51.55C6.26 61.99 6.05 76.46 2.38 86.54C3.74 87.05 6.19 88.34 7.20 89.21C9.72 82.22 10.80 73.01 11.30 64.30L13.10 68.33C14.47 66.96 15.84 65.74 17.21 64.37L17.21 82.15C17.21 82.94 16.92 83.23 16.27 83.23C15.55 83.23 13.46 83.23 11.16 83.16C11.95 84.67 12.67 87.48 12.82 89.06C16.56 89.06 18.86 88.85 20.59 87.84C22.25 86.83 22.75 85.03 22.75 82.22L22.75 57.96C24.05 59.04 25.63 60.77 26.50 61.99C26.86 61.63 27.29 61.34 27.65 60.98L27.65 88.42L32.83 88.42L32.83 84.38L41.04 84.38L41.04 88.13L46.37 88.13L46.37 60.98L46.80 61.85L50.62 58.90L50.62 89.06L55.80 89.06L55.80 32.76L61.27 32.76L61.27 71.06C61.27 71.78 61.13 72.00 60.48 72.00C59.98 72.00 58.46 72.00 56.66 71.93C57.46 73.44 58.18 75.82 58.32 77.26C61.20 77.26 63.22 77.18 64.73 76.18C66.24 75.24 66.60 73.66 66.60 71.21Z"/></svg>
