<svg xmlns="http://www.w3.org/2000/svg" xmlns:xlink="http://www.w3.org/1999/xlink" width="72.00000000000001" height="106.56000000000002"><path fill="red" stroke="red" d="M50.26 58.18C53.93 62.28 62.86 72.86 65.81 77.47L69.98 73.08C68.76 71.64 65.66 68.26 62.50 64.80C64.58 63.36 66.96 61.56 69.12 59.76L65.59 55.44C64.01 57.24 61.42 59.54 59.26 61.34C56.81 58.90 54.72 56.66 53.57 55.58ZM59.40 31.54L59.40 37.22L48.10 37.22L48.10 31.54ZM48.10 48.46L48.10 42.48L59.40 42.48L59.40 48.46ZM48.10 71.42L48.10 53.86L65.16 53.86L65.16 26.14L42.55 26.14L42.55 70.56C42.55 72.86 41.69 73.30 40.75 73.51C41.40 74.81 42.19 77.40 42.34 78.91C43.56 78.05 45.58 77.40 57.46 74.23C57.31 73.08 57.24 70.92 57.46 69.41ZM36.86 35.35C36.07 32.33 34.63 27.58 33.55 24.05L28.44 25.13C29.45 28.80 30.74 33.62 31.46 36.72ZM11.88 43.99C13.68 46.22 15.70 48.74 16.70 50.47L19.01 48.82L19.01 57.53C16.27 59.33 13.68 61.06 11.59 62.28C11.81 58.25 11.88 54.36 11.88 51.05ZM19.01 31.82L19.01 45.43C17.71 43.85 16.06 41.90 14.54 40.39L11.88 42.05L11.88 31.82ZM38.09 56.23L37.15 56.45L34.34 56.45C36.00 51.34 37.80 45.22 39.24 40.18L26.21 40.18L26.21 46.08L32.47 46.08C30.89 51.55 29.09 57.53 27.50 61.70L34.34 61.70C33.26 66.82 31.75 72.36 29.81 76.32C28.08 77.33 26.14 79.06 24.26 81.29L24.26 25.70L6.55 25.70L6.55 51.19C6.55 61.49 6.26 75.60 2.16 85.54C3.38 86.18 5.62 88.13 6.55 89.28C9.65 82.01 10.94 72.22 11.52 63.29L13.68 67.90C15.41 66.38 17.21 64.87 19.01 63.29L19.01 82.30C19.01 83.30 18.72 83.52 17.86 83.59C17.06 83.59 14.40 83.66 11.52 83.52C12.31 84.96 13.03 87.62 13.25 89.06C17.50 89.06 20.23 88.92 21.96 87.91C22.82 87.48 23.33 86.83 23.69 85.97L26.28 89.50C28.51 85.18 31.03 80.86 32.76 80.86C34.20 80.93 36.43 83.02 38.95 84.74C43.06 87.48 47.52 88.63 54.00 88.63C58.75 88.63 66.24 88.34 69.77 88.13C69.84 86.47 70.63 83.45 71.21 81.79C66.31 82.44 58.97 82.80 54.14 82.80C48.17 82.80 43.78 82.01 40.03 79.49C37.94 78.12 36.58 76.90 35.21 76.10C37.58 70.70 39.53 63.58 40.75 57.17Z"/></svg>
