<svg xmlns="http://www.w3.org/2000/svg" xmlns:xlink="http://www.w3.org/1999/xlink" width="72.00000000000001" height="106.56000000000002"><path fill="red" stroke="red" d="M60.41 47.02C60.41 47.59 60.26 47.74 59.69 47.81L55.80 47.81C56.30 49.10 56.74 50.76 56.88 52.13C59.98 52.13 62.21 52.13 63.79 51.41C65.30 50.62 65.74 49.46 65.74 47.09L65.74 25.99L47.74 25.99L47.74 30.82L60.41 30.82ZM48.24 34.13C50.18 36.00 52.78 38.74 54.00 40.39L57.74 37.73C56.38 36.14 53.86 33.62 51.91 31.82ZM59.04 39.60C54.65 41.47 50.40 43.20 47.38 44.28L49.82 48.24C52.99 46.73 56.52 45.00 59.98 43.20ZM29.52 49.03C32.83 47.38 36.50 45.65 40.03 43.78L39.10 40.18C34.63 42.12 30.31 43.92 27.14 45.00ZM37.73 37.73C36.36 36.07 33.84 33.55 31.82 31.82L28.22 34.13C30.24 36.00 32.76 38.74 34.06 40.39ZM60.98 70.85C54.94 78.05 42.19 82.22 27.29 84.10C28.51 85.39 29.81 87.48 30.38 88.99C46.30 86.62 59.33 81.86 66.60 73.30ZM54.79 65.23C49.61 69.55 39.24 73.22 30.17 74.95C31.32 76.10 32.62 77.76 33.41 78.91C43.13 76.82 53.42 72.86 59.76 67.54ZM48.96 59.04C44.93 62.42 37.15 65.59 30.82 67.25C32.04 68.26 33.41 69.62 34.27 70.70C40.97 68.76 48.82 65.38 53.64 61.27ZM12.46 44.21C14.33 46.37 16.20 49.03 17.28 50.69L19.87 48.82L19.87 57.24C16.99 59.11 14.33 60.91 12.17 62.06C12.38 58.18 12.46 54.43 12.46 51.12ZM19.87 31.82L19.87 46.15C18.50 44.28 16.56 42.12 14.90 40.39L12.46 41.90L12.46 31.82ZM47.74 48.17C46.87 49.03 45.86 49.90 44.71 50.69C45.36 49.97 45.58 49.03 45.58 47.45L45.58 25.99L28.08 25.99L28.08 30.82L40.46 30.82L40.46 47.38C40.46 47.95 40.25 48.10 39.67 48.17C39.10 48.17 37.44 48.17 35.50 48.10C36.07 49.32 36.50 50.76 36.58 51.98C39.82 51.98 42.19 51.98 43.63 51.34C38.52 54.72 31.46 57.60 25.27 59.40L25.27 25.70L6.98 25.70L6.98 51.19C6.98 61.56 6.62 75.67 2.38 85.61C3.60 86.26 5.98 88.27 6.91 89.42C10.15 82.15 11.52 72.50 12.10 63.58L14.04 67.90C15.98 66.31 17.86 64.66 19.87 63.00L19.87 81.86C19.87 82.80 19.51 83.09 18.72 83.16C17.86 83.16 15.19 83.23 12.31 83.09C13.10 84.60 13.82 87.26 14.04 88.78C18.43 88.78 21.17 88.63 22.97 87.62C24.70 86.69 25.27 84.89 25.27 81.94L25.27 59.47C26.64 60.62 28.01 62.50 28.80 63.79C35.06 61.78 41.83 58.68 47.30 54.86C54.36 59.40 60.41 61.85 65.09 63.29C65.95 61.70 67.68 59.54 68.98 58.46C64.22 57.24 57.82 55.51 50.98 51.91C51.55 51.48 52.06 50.98 52.56 50.47Z"/></svg>
