<svg xmlns="http://www.w3.org/2000/svg" xmlns:xlink="http://www.w3.org/1999/xlink" width="72.00000000000001" height="106.56000000000002"><path fill="red" stroke="red" d="M37.01 44.78C36.79 50.33 36.65 52.49 36.22 53.06C35.86 53.50 35.50 53.64 34.92 53.64C34.34 53.64 33.34 53.64 31.90 53.42C32.54 54.58 32.98 56.38 33.05 57.74C34.56 57.74 36.07 57.74 37.08 57.60C38.45 57.46 39.31 57.02 40.10 56.09C41.11 54.79 41.40 51.19 41.62 42.34L41.62 41.26C41.83 41.76 42.05 42.34 42.19 42.70L45.94 40.90C45.36 39.31 44.06 37.08 42.91 35.35L51.19 35.35C49.61 37.80 46.66 41.33 44.21 43.56L44.21 58.54L49.25 58.54L49.25 43.56L49.03 43.56C51.26 41.62 53.86 39.10 56.09 36.72L51.98 35.35L68.83 35.35L68.83 29.95L50.47 29.95C49.82 27.94 48.74 25.20 47.81 23.04L41.98 24.34C42.62 25.99 43.34 28.15 43.85 29.95L26.06 29.95L26.06 35.35L42.70 35.35L39.31 36.79C39.89 37.87 40.68 39.17 41.26 40.39L26.71 40.39L26.71 44.78L29.45 44.78C29.02 49.32 27.86 52.70 24.70 55.01C25.63 55.80 27.00 57.60 27.43 58.46C31.61 55.51 33.26 50.83 33.84 44.78ZM35.42 73.37C35.64 71.64 35.71 69.84 35.71 68.33L35.71 67.97L57.53 67.97L57.53 73.37ZM11.38 45.58C12.82 47.45 14.11 49.39 14.90 50.76L18.43 48.31L18.43 56.81C15.77 58.82 13.10 60.84 11.09 62.21C11.30 58.18 11.38 54.43 11.38 51.05ZM18.43 31.82L18.43 47.52C17.14 45.58 15.05 42.98 13.18 40.90L11.38 42.05L11.38 31.82ZM57.53 63.14L35.71 63.14L35.71 58.82L29.88 58.82L29.88 68.18C29.88 73.22 29.02 80.57 23.18 85.54C23.47 84.74 23.54 83.66 23.54 82.37L23.54 25.70L6.19 25.70L6.19 51.05C6.19 61.42 5.90 75.53 2.30 85.54C3.38 86.26 5.54 88.27 6.34 89.50C9.07 82.51 10.37 73.30 10.94 64.80L12.53 68.26C14.47 66.38 16.49 64.58 18.43 62.64L18.43 82.30C18.43 83.16 18.14 83.45 17.42 83.45C16.63 83.52 14.26 83.52 11.74 83.45C12.46 84.82 13.10 87.41 13.25 88.78C17.21 88.85 19.73 88.70 21.31 87.70C22.10 87.34 22.61 86.76 22.97 86.04C24.48 86.83 26.50 88.27 27.50 89.21C31.32 86.18 33.41 82.22 34.49 78.26L57.53 78.26L57.53 89.35L63.79 89.35L63.79 58.82L57.53 58.82ZM64.08 37.58C61.49 39.24 56.81 40.97 52.63 42.12L52.63 50.76C52.63 53.50 50.90 54.65 49.90 55.08C50.54 56.09 51.41 58.03 51.77 59.04C52.63 58.32 54.29 57.67 61.99 55.01C61.70 54.22 61.42 52.63 61.27 51.48L56.74 52.85L56.74 45.00C57.82 44.71 58.90 44.42 60.05 44.14C61.13 49.75 62.86 55.15 66.02 58.10C66.67 56.95 68.04 55.44 69.05 54.72C66.10 52.34 64.37 47.74 63.36 42.98C65.09 42.34 66.60 41.62 68.04 40.90Z"/></svg>
