<svg xmlns="http://www.w3.org/2000/svg" xmlns:xlink="http://www.w3.org/1999/xlink" width="72.00000000000001" height="106.56000000000002"><path fill="red" stroke="red" d="M39.60 74.09C37.22 78.05 32.33 82.30 27.79 84.31C29.16 85.32 30.82 87.34 31.82 88.63C36.43 85.97 41.33 80.64 43.85 75.60ZM27.36 60.34L19.66 60.34L19.66 50.76L23.90 50.18C24.41 51.48 24.84 52.70 25.20 53.78L29.38 52.06L29.38 52.99L36.22 52.99C33.84 56.02 30.89 58.54 27.36 60.62ZM63.14 72.65L63.14 67.54L50.54 67.54L50.54 61.70C52.99 61.20 55.30 60.55 57.24 59.76L53.21 55.51C49.97 56.88 44.50 57.96 39.38 58.61C40.97 56.88 42.34 55.01 43.56 52.99L53.78 52.99C56.66 58.18 61.56 63.29 66.82 66.31C67.39 64.73 68.54 62.21 69.70 60.91C66.02 59.18 62.42 56.30 59.83 52.99L68.83 52.99L68.83 47.74L46.30 47.74C46.87 46.37 47.45 44.93 48.02 43.42L65.74 43.42L65.74 38.59L49.46 38.59C49.82 37.30 50.11 36.00 50.40 34.63L66.96 34.63L66.96 29.52L51.34 29.52C51.62 27.72 51.91 25.70 52.13 23.76L46.08 23.11C45.86 25.34 45.58 27.50 45.22 29.52L31.18 29.52L31.18 34.63L44.28 34.63C43.99 36.00 43.70 37.30 43.34 38.59L32.04 38.59L32.04 43.42L41.62 43.42C41.04 44.93 40.39 46.37 39.67 47.74L29.30 47.74L29.30 50.83C27.94 47.02 25.34 41.54 23.04 37.30L18.72 38.88C19.73 40.82 20.74 42.98 21.67 45.14L11.52 46.44C14.04 42.41 16.56 37.44 18.50 32.62L28.94 32.62L28.94 26.64L3.60 26.64L3.60 32.62L11.88 32.62C9.94 38.02 7.34 43.20 6.34 44.64C5.26 46.51 4.25 47.66 3.17 48.02C3.89 49.61 4.75 52.42 5.11 53.71C6.19 53.14 7.63 52.70 13.54 51.77L13.54 60.34L4.39 60.34L4.39 66.24L13.54 66.24L13.54 77.18C9.36 77.90 5.62 78.48 2.66 78.91L3.67 85.46L28.80 79.92L28.37 74.52L19.66 76.10L19.66 66.24L27.36 66.24L27.36 61.85C28.73 63.00 30.31 64.80 31.03 65.66C33.70 64.01 36.00 62.06 38.16 59.98C38.59 61.13 39.02 62.35 39.17 63.22C41.04 63.07 42.98 62.86 45.00 62.57L45.00 67.54L32.26 67.54L32.26 72.65L45.00 72.65L45.00 89.21L50.54 89.21L50.54 72.65ZM52.06 77.04C56.09 80.57 61.13 85.61 63.58 88.70L67.32 85.03C64.80 82.01 59.62 77.18 55.58 73.80Z"/></svg>
