<svg xmlns="http://www.w3.org/2000/svg" xmlns:xlink="http://www.w3.org/1999/xlink" width="72.00000000000001" height="106.56000000000002"><path fill="red" stroke="red" d="M44.14 33.98L33.62 33.98L33.62 30.46L44.35 30.46L44.35 26.71L33.62 26.71L33.62 23.11L28.73 23.11L28.73 37.66L38.95 37.66C38.81 43.42 38.66 45.50 38.30 46.22C37.94 46.66 37.58 46.73 37.08 46.73C36.36 46.73 35.14 46.66 33.70 46.51C34.20 47.52 34.63 48.96 34.70 49.97C36.43 50.04 38.30 50.04 39.38 49.97C40.82 49.97 41.83 49.54 42.62 48.53C43.63 47.23 43.92 44.14 44.14 35.78ZM31.03 39.31C30.24 42.62 28.66 46.58 26.78 48.96L30.96 50.26C32.83 47.66 34.34 43.34 34.99 40.03ZM39.24 69.34L51.84 69.34L51.84 64.08L39.24 64.08L39.24 58.82L32.54 58.82L32.54 64.08L20.23 64.08L20.23 69.34L32.54 69.34L32.54 74.45L9.94 74.45L9.94 79.92L32.54 79.92L32.54 89.14L39.24 89.14L39.24 79.92L62.28 79.92L62.28 74.45L39.24 74.45ZM68.26 56.16L68.26 51.05L60.12 51.05C60.77 44.21 61.27 33.77 61.56 25.56L46.22 25.56L46.22 30.31L55.44 30.31L55.30 34.20L46.58 34.20L46.58 38.81L55.08 38.81L54.79 42.70L46.30 42.70L46.30 47.23L54.50 47.23C54.36 48.53 54.29 49.90 54.14 51.05L17.35 51.05L17.06 46.15L25.85 46.15L25.85 42.05L16.85 42.05L16.63 38.16L25.85 38.16L25.85 33.98L16.42 33.98L16.20 31.18C19.73 30.24 23.69 28.94 26.71 27.58L23.62 23.47C20.09 24.98 14.11 27.22 10.08 28.22L11.38 51.05L3.89 51.05L3.89 56.16L18.43 56.16C14.40 60.55 8.42 64.51 2.52 66.53C3.82 67.68 5.62 69.84 6.55 71.28C13.75 68.33 20.95 62.57 25.42 56.16L46.87 56.16C51.12 62.64 58.10 68.11 65.45 70.92C66.38 69.26 68.26 66.96 69.55 65.74C63.29 64.01 57.10 60.41 53.06 56.16Z"/></svg>
