<svg xmlns="http://www.w3.org/2000/svg" xmlns:xlink="http://www.w3.org/1999/xlink" width="72.00000000000001" height="106.56000000000002"><path fill="red" stroke="red" d="M47.59 42.34L54.22 42.34L54.22 35.42L67.68 35.42L67.68 29.23L54.22 29.23L54.22 23.18L47.59 23.18L47.59 29.23L37.58 29.23L37.58 35.42L47.59 35.42ZM18.50 42.34L25.06 42.34L25.06 35.50L33.91 35.50L33.91 29.30L25.06 29.30L25.06 23.18L18.50 23.18L18.50 29.30L4.03 29.30L4.03 35.50L18.50 35.50ZM5.11 55.58L23.18 55.58L23.18 49.39L5.11 49.39ZM25.99 69.98L3.67 69.98L3.67 76.25L25.99 76.25ZM47.81 53.06L58.90 53.06C57.60 56.81 56.09 60.55 54.65 63.22L60.41 65.16C63.00 60.91 65.66 54.22 67.61 48.17L62.64 46.66L61.49 46.94L37.01 46.94C37.94 44.64 38.81 42.19 39.46 39.82L32.76 38.23C30.46 46.80 26.21 55.01 21.10 60.34C22.75 61.27 25.63 63.07 27.00 64.22C29.52 61.27 31.97 57.38 34.20 53.06L40.97 53.06L40.97 56.09C40.97 64.37 38.95 76.25 18.14 83.95C19.66 85.18 21.74 87.70 22.61 89.28C36.43 84.10 42.70 76.75 45.58 69.62C49.61 78.77 55.87 85.54 65.23 89.14C66.24 87.34 68.11 84.74 69.62 83.30C57.74 79.63 50.98 70.42 47.81 58.18C47.81 57.60 47.81 56.95 47.81 56.30Z"/></svg>
