<svg xmlns="http://www.w3.org/2000/svg" xmlns:xlink="http://www.w3.org/1999/xlink" width="72.00000000000001" height="106.56000000000002"><path fill="red" stroke="red" d="M45.14 39.46L51.84 39.46L51.84 33.62L67.61 33.62L67.61 27.86L51.84 27.86L51.84 23.11L45.14 23.11L45.14 27.86L37.37 27.86L37.37 33.62L45.14 33.62ZM20.02 39.31L26.64 39.31L26.64 33.62L35.06 33.62L35.06 27.86L26.64 27.86L26.64 23.11L20.02 23.11L20.02 27.86L4.68 27.86L4.68 33.62L20.02 33.62ZM15.55 69.19C15.55 73.66 13.90 80.35 2.88 84.74C4.32 85.82 6.55 87.91 7.56 89.28C20.09 84.02 22.10 75.38 22.10 69.41L22.10 64.22L15.55 64.22ZM25.13 55.66C21.31 55.66 20.59 54.86 20.59 52.78L20.59 48.46L67.10 48.46L67.10 42.77L40.97 42.77C39.96 40.61 38.45 37.87 37.08 35.78L30.89 37.37C31.82 38.95 32.83 40.97 33.70 42.77L4.90 42.77L4.90 48.46L13.75 48.46L13.75 52.63C13.75 58.90 16.34 61.13 25.20 61.13L50.18 61.13C54.58 61.13 59.98 61.06 61.92 60.55C61.63 59.18 61.42 57.02 61.13 54.94C58.82 55.44 52.85 55.66 49.25 55.66ZM32.26 87.91L38.66 87.91L38.66 64.66L32.26 64.66ZM56.88 82.80C55.37 82.80 55.15 82.08 55.15 79.99L55.15 64.22L48.74 64.22L48.74 79.85C48.74 85.97 50.18 88.34 56.38 88.34L63.94 88.34C65.74 88.34 67.75 88.27 68.90 87.84C68.62 86.40 68.40 84.10 68.33 82.44C67.25 82.66 65.09 82.80 63.72 82.80Z"/></svg>
