<svg xmlns="http://www.w3.org/2000/svg" xmlns:xlink="http://www.w3.org/1999/xlink" width="72.00000000000001" height="106.56000000000002"><path fill="red" stroke="red" d="M44.93 40.10L51.55 40.10L51.55 35.14L67.75 35.14L67.75 28.73L51.55 28.73L51.55 23.18L44.93 23.18L44.93 28.73L38.16 28.73L38.16 35.14L44.93 35.14ZM19.94 40.39L26.50 40.39L26.50 35.06L33.98 35.06L33.98 28.73L26.50 28.73L26.50 23.18L19.94 23.18L19.94 28.73L4.32 28.73L4.32 35.06L19.94 35.06ZM22.97 55.37C22.82 60.05 22.03 65.30 19.30 70.42C17.21 69.12 15.05 67.82 13.03 66.60C14.04 63.50 14.98 59.76 15.91 55.80ZM32.47 54.72L32.54 48.89L28.94 49.10L28.94 43.70L23.04 43.70L23.04 49.39L17.35 49.68C17.93 46.66 18.43 43.63 18.86 40.82L12.82 40.39C12.38 43.42 11.81 46.66 11.09 50.04C8.14 50.18 5.40 50.33 3.10 50.40L3.74 56.59L9.79 56.23C8.57 61.20 7.20 65.81 5.90 69.41C8.86 71.28 12.24 73.37 15.55 75.67C12.60 79.06 8.42 82.15 2.66 84.89C3.96 85.97 5.83 88.13 6.62 89.50C12.82 86.40 17.35 82.87 20.59 79.20C23.90 81.50 26.78 83.74 28.73 85.68L32.69 79.99C30.67 78.19 27.65 75.96 24.41 73.73C27.86 67.46 28.80 60.84 28.94 54.94ZM59.18 80.06L41.47 80.06L41.47 70.20L59.18 70.20ZM68.11 55.58L68.11 49.68L53.71 49.68L53.71 41.26L47.09 41.26L47.09 49.68L33.62 49.68L33.62 55.58L47.09 55.58L47.09 64.51L35.35 64.51L35.35 89.21L41.47 89.21L41.47 85.75L59.18 85.75L59.18 88.70L65.59 88.70L65.59 64.51L53.71 64.51L53.71 55.58Z"/></svg>
