<svg xmlns="http://www.w3.org/2000/svg" xmlns:xlink="http://www.w3.org/1999/xlink" width="72.00000000000001" height="106.56000000000002"><path fill="red" stroke="red" d="M57.02 47.45C54.50 49.90 50.40 53.14 47.02 55.44C45.00 53.93 43.20 52.34 41.69 50.54C46.37 48.24 50.90 45.50 54.43 42.55L50.33 39.10L48.96 39.46L14.90 39.46L14.90 44.71L41.90 44.71C39.02 46.51 35.71 48.24 32.69 49.46L32.69 61.20C32.69 61.92 32.40 62.14 31.61 62.21C30.82 62.21 28.08 62.21 25.27 62.06C26.06 63.65 26.86 65.66 27.22 67.32C31.39 67.32 34.34 67.32 36.50 66.46C38.59 65.66 39.10 64.37 39.10 61.34L39.10 55.30C45.14 62.21 54.14 67.32 63.86 69.77C64.87 68.11 66.67 65.45 68.18 64.22C62.21 63.07 56.59 61.06 51.70 58.39C55.01 56.45 58.97 53.71 62.35 51.05ZM14.76 74.52L56.09 74.52L56.09 68.90L14.76 68.90ZM47.66 37.66L53.86 37.66L53.86 33.26L67.68 33.26L67.68 27.58L53.86 27.58L53.86 23.11L47.66 23.11L47.66 27.58L37.66 27.58L37.66 33.26L47.66 33.26ZM18.58 37.66L24.84 37.66L24.84 33.34L33.98 33.34L33.98 27.65L24.84 27.65L24.84 23.11L18.58 23.11L18.58 27.65L4.10 27.65L4.10 33.34L18.58 33.34ZM25.56 48.67L24.41 48.89L6.19 48.89L6.19 54.22L20.74 54.22C16.78 59.76 10.01 63.86 3.10 65.95C4.39 67.18 5.98 69.62 6.70 71.06C16.63 67.61 25.63 60.77 29.66 50.33ZM9.72 89.78C12.96 86.76 15.84 82.22 18.00 78.70L12.31 75.82C10.30 79.27 7.20 83.66 3.89 86.40ZM23.33 78.12C24.41 81.65 25.27 86.18 25.27 88.99L31.90 87.98C31.75 85.18 30.74 80.64 29.52 77.18ZM38.74 78.12C40.75 81.50 42.70 85.97 43.34 88.85L49.39 86.83C48.74 83.88 46.66 79.63 44.42 76.32ZM52.99 78.26C56.59 81.58 60.62 86.18 62.35 89.35L68.40 86.40C66.38 83.23 62.14 78.77 58.54 75.60Z"/></svg>
