<svg xmlns="http://www.w3.org/2000/svg" xmlns:xlink="http://www.w3.org/1999/xlink" width="72.00000000000001" height="106.56000000000002"><path fill="red" stroke="red" d="M47.45 36.36L54.07 36.36L54.07 33.05L67.75 33.05L67.75 27.58L54.07 27.58L54.07 23.04L47.45 23.04L47.45 27.58L37.37 27.58L37.37 33.05L47.45 33.05ZM35.78 43.85L51.48 43.85C49.82 45.43 47.88 46.73 45.72 47.95C42.05 46.73 38.38 45.58 34.99 44.64ZM66.24 55.51C62.57 53.86 57.31 51.98 51.62 49.97C55.15 47.59 58.10 44.78 60.19 41.33L56.59 39.31L55.58 39.53L40.03 39.53C40.97 38.45 41.76 37.37 42.48 36.29L36.65 35.14C33.84 39.31 28.58 43.92 21.24 47.16C22.39 48.02 24.19 49.90 24.91 51.26C27.07 50.11 29.02 49.03 30.89 47.74C33.70 48.60 36.72 49.54 39.74 50.62C33.84 52.85 27.00 54.36 20.23 55.15C21.10 56.23 22.32 58.32 22.75 59.69C31.18 58.54 39.46 56.38 46.44 52.92C53.28 55.44 59.69 57.96 63.94 59.83ZM46.87 81.43L46.87 77.62L64.44 77.62L64.44 73.51L46.87 73.51L46.87 70.49L60.41 70.49L60.41 66.74L46.87 66.74L46.87 63.79L61.34 63.79L61.34 59.98L46.87 59.98L46.87 56.23L40.75 56.23L40.75 59.98L26.57 59.98L26.57 63.79L40.75 63.79L40.75 66.74L27.86 66.74L27.86 70.49L40.75 70.49L40.75 73.51L24.26 73.51L24.26 77.62L40.75 77.62L40.75 81.43ZM17.71 37.94L24.34 37.94L24.34 33.12L34.56 33.12L34.56 27.58L24.34 27.58L24.34 23.04L17.71 23.04L17.71 27.58L4.46 27.58L4.46 33.12L17.71 33.12ZM7.85 38.09C9.22 40.75 11.30 44.35 12.38 46.51L17.93 44.06C16.85 42.05 14.83 38.74 13.25 36.00ZM19.01 60.70L18.00 60.98L13.61 60.98C15.91 56.74 18.50 51.55 20.66 47.16L3.46 47.16L3.46 52.49L11.95 52.49C9.65 57.31 6.91 62.42 4.82 66.10L15.05 66.10C13.46 70.06 11.30 74.09 8.86 76.97C6.84 78.55 4.61 81.00 2.38 83.95L6.70 89.78C8.78 85.39 11.23 80.86 12.82 80.86C14.40 80.86 16.92 83.23 19.87 84.89C25.13 87.98 31.25 88.78 40.68 88.78C49.10 88.78 62.42 88.34 68.11 87.98C68.18 86.26 69.12 83.16 69.91 81.43C61.92 82.37 49.97 83.09 40.97 83.09C32.54 83.09 25.99 82.58 21.02 79.63C18.79 78.26 17.28 77.04 15.91 76.32C18.72 72.22 21.10 67.10 22.68 62.14Z"/></svg>
