<svg xmlns="http://www.w3.org/2000/svg" xmlns:xlink="http://www.w3.org/1999/xlink" width="72.00000000000001" height="106.56000000000002"><path fill="red" stroke="red" d="M47.81 33.41L67.61 33.41L67.61 27.58L47.81 27.58L47.81 23.11L41.18 23.11L41.18 37.01L47.81 37.01ZM24.26 37.01L30.89 37.01L30.89 23.11L24.26 23.11L24.26 27.65L4.39 27.65L4.39 33.48L24.26 33.48ZM49.25 54.94L47.52 56.52C49.39 57.53 51.70 58.75 53.57 60.05L40.61 60.05C40.18 58.39 39.96 56.66 39.74 54.94ZM30.96 42.98L40.82 42.98L40.82 50.18L30.96 50.18ZM25.27 50.18L15.84 50.18L15.84 42.98L25.27 42.98ZM46.44 42.98L56.45 42.98L56.45 50.18L46.44 50.18ZM54.65 66.02C52.56 68.98 49.82 71.64 46.51 74.02C44.86 71.50 43.34 68.69 42.26 65.59L67.39 65.59L67.39 60.05L57.96 60.05L59.69 58.32C58.39 57.31 56.38 56.09 54.36 54.94L62.78 54.94L62.78 38.30L9.79 38.30L9.79 54.94L33.41 54.94C33.62 56.66 33.84 58.39 34.20 60.05L10.01 60.05L10.01 65.88C10.01 71.64 9.07 79.49 2.81 85.32C4.32 86.04 6.91 88.06 8.06 89.21C12.46 84.82 14.62 79.13 15.55 73.66C19.73 75.67 24.05 78.12 26.42 80.14L30.10 75.10C27.00 72.72 20.95 69.77 16.20 67.82C16.20 67.25 16.20 66.60 16.20 66.02L16.20 65.59L35.50 65.59C36.86 69.98 38.74 73.87 41.11 77.26C35.71 80.06 29.52 82.15 23.26 83.59C24.48 84.89 26.35 87.55 27.07 88.99C33.19 87.19 39.24 84.82 44.78 81.79C49.10 86.33 54.43 88.92 60.05 88.92C65.52 88.92 67.82 86.83 68.83 77.90C67.10 77.47 64.94 76.39 63.50 75.24C63.07 80.93 62.42 82.87 60.26 82.87C56.88 82.87 53.35 81.22 50.26 78.34C54.43 75.46 58.03 72.07 60.70 68.04Z"/></svg>
