<svg xmlns="http://www.w3.org/2000/svg" xmlns:xlink="http://www.w3.org/1999/xlink" width="72.00000000000001" height="106.56000000000002"><path fill="red" stroke="red" d="M45.29 36.86L51.91 36.86L51.91 33.26L67.82 33.26L67.82 27.79L51.91 27.79L51.91 23.11L45.29 23.11L45.29 27.79L37.37 27.79L37.37 33.26L45.29 33.26ZM19.87 37.51L26.50 37.51L26.50 33.34L34.70 33.34L34.70 27.79L26.50 27.79L26.50 23.18L19.87 23.18L19.87 27.79L4.18 27.79L4.18 33.34L19.87 33.34ZM29.74 63.07L29.74 67.46L64.58 67.46L64.58 63.07L57.17 63.07C58.32 60.62 59.47 57.96 60.55 55.01L56.30 53.71L55.30 54.00L30.96 54.00L30.96 58.32L53.14 58.32C52.49 59.90 51.70 61.49 50.90 63.07ZM40.68 47.88C42.48 46.66 44.14 45.36 45.79 43.92C47.38 45.22 49.54 46.58 51.91 47.88ZM36.22 82.22C38.66 80.28 41.26 77.90 43.56 75.46L53.86 75.46L50.90 77.26C52.34 78.48 53.78 79.92 55.22 81.29ZM45.22 37.01C41.04 41.98 32.83 46.73 24.19 49.61C25.34 46.80 26.64 44.06 27.79 41.47L23.47 39.02L22.46 39.31L6.84 39.31L6.84 89.21L12.60 89.21L12.60 44.57L20.02 44.57C18.58 48.67 16.63 53.64 14.69 57.89C19.80 62.64 21.24 66.74 21.31 69.98C21.31 71.93 20.88 73.51 19.80 74.09C19.30 74.45 18.50 74.66 17.71 74.74C16.63 74.74 15.41 74.74 13.90 74.59C14.76 76.03 15.34 78.48 15.41 79.99C17.06 80.06 18.94 79.99 20.23 79.85C21.74 79.70 22.90 79.34 24.05 78.55C25.13 77.83 25.85 76.82 26.35 75.46L36.14 75.46C33.62 78.05 31.18 80.14 30.17 80.78C28.80 81.86 27.58 82.58 26.42 82.80C27.07 84.31 27.94 87.05 28.30 88.20C30.24 87.55 33.26 87.34 59.40 85.75C60.48 87.12 61.42 88.34 62.14 89.42L67.10 86.26C65.02 83.16 60.70 78.77 56.81 75.46L68.26 75.46L68.26 70.99L27.14 70.99L27.14 70.56C27.07 66.67 25.70 62.06 20.59 57.17C21.67 54.94 22.75 52.56 23.83 50.11C25.13 51.26 26.78 53.35 27.65 54.50C31.97 52.92 36.07 50.90 39.67 48.53L39.67 51.84L52.34 51.84L52.34 48.10C56.45 50.40 61.13 52.63 65.66 53.86C66.67 52.42 68.47 50.04 69.84 48.89C62.21 47.23 53.71 43.63 49.10 40.54C49.54 39.96 50.04 39.38 50.47 38.88Z"/></svg>
