<svg xmlns="http://www.w3.org/2000/svg" xmlns:xlink="http://www.w3.org/1999/xlink" width="72.00000000000001" height="106.56000000000002"><path fill="red" stroke="red" d="M16.20 42.91L58.54 42.91C57.82 44.93 57.17 46.94 56.52 48.38L62.14 49.75C63.50 46.87 65.16 42.34 66.38 38.52L61.85 37.37L60.77 37.66L35.78 37.66L35.78 33.62L60.91 33.62L60.91 28.30L35.78 28.30L35.78 23.11L29.09 23.11L29.09 37.66L10.01 37.66L10.01 57.82C10.01 66.31 9.29 77.33 2.38 85.03C3.82 85.75 6.34 87.70 7.42 88.85C14.98 80.50 16.20 67.32 16.20 57.89ZM26.93 66.74C26.93 78.70 25.78 82.51 13.68 84.67C14.83 85.82 16.42 88.13 16.85 89.57C31.25 86.76 33.19 80.86 33.19 66.74ZM38.95 58.10C36.50 58.10 36.00 57.24 36.00 55.15L36.00 53.71L54.07 51.98L53.42 46.94L36.00 48.60L36.00 43.34L29.52 43.34L29.52 49.18L18.65 50.26L19.30 55.44L29.52 54.43L29.52 54.94C29.52 61.27 31.46 63.50 38.66 63.50L53.78 63.50C56.66 63.50 59.98 63.43 61.49 63.07C61.20 61.63 60.98 59.40 60.84 57.53C59.18 57.96 55.51 58.10 53.35 58.10ZM53.28 82.80C50.83 82.80 50.47 82.51 50.47 80.71L50.47 66.74L44.14 66.74L44.14 80.78C44.14 86.40 45.72 88.06 52.42 88.06L61.42 88.06C67.03 88.06 68.69 85.68 69.34 75.82C67.68 75.38 65.02 74.45 63.65 73.44C63.43 81.65 63.00 82.80 60.77 82.80Z"/></svg>
