<svg xmlns="http://www.w3.org/2000/svg" xmlns:xlink="http://www.w3.org/1999/xlink" width="72.00000000000001" height="106.56000000000002"><path fill="red" stroke="red" d="M58.10 42.70C56.66 51.34 54.43 58.61 51.05 64.73C47.52 58.39 44.86 50.83 42.98 42.70ZM10.51 41.54L15.41 41.54L15.41 57.02L10.51 57.02ZM24.98 57.02L20.38 57.02L20.38 41.54L24.98 41.54ZM68.98 42.70L68.98 36.50L51.41 36.50L56.45 34.13C54.94 30.96 51.62 26.21 48.67 22.75L43.13 25.34C45.94 28.73 48.96 33.41 50.33 36.50L32.69 36.50L32.69 42.70L36.86 42.70C39.17 53.42 42.55 63.00 47.16 70.92C43.70 75.31 39.46 78.91 34.20 81.94C33.19 77.11 31.10 70.85 28.80 65.81L23.90 67.39C24.91 69.70 25.92 72.29 26.71 74.88L20.81 75.67L20.81 62.57L30.31 62.57L30.31 36.07L20.88 36.07L20.88 23.40L14.90 23.40L14.90 36.07L5.26 36.07L5.26 65.66L10.51 65.66L10.51 62.57L14.83 62.57L14.83 76.54C10.30 77.11 6.19 77.69 2.95 78.05L3.89 84.46C10.73 83.45 19.58 82.01 28.37 80.71C28.80 82.44 29.02 84.17 29.23 85.61L31.97 84.74C33.12 86.11 34.56 87.91 35.14 88.92C41.54 85.54 46.66 81.50 50.83 76.46C54.79 81.65 59.62 85.90 65.30 88.99C66.31 87.26 68.33 84.82 69.84 83.52C63.86 80.64 58.97 76.25 54.94 70.78C59.62 63.22 62.64 54.00 64.66 42.70Z"/></svg>
