<svg xmlns="http://www.w3.org/2000/svg" xmlns:xlink="http://www.w3.org/1999/xlink" width="72.00000000000001" height="106.56000000000002"><path fill="red" stroke="red" d="M9.86 41.11L14.40 41.11L14.40 56.66L9.86 56.66ZM23.83 56.66L18.94 56.66L18.94 41.11L23.83 41.11ZM21.82 67.68C22.68 70.06 23.47 72.72 24.12 75.38L19.51 76.18L19.51 62.21L28.73 62.21L28.73 35.57L19.51 35.57L19.51 23.76L13.90 23.76L13.90 35.57L5.04 35.57L5.04 65.23L9.86 65.23L9.86 62.21L13.90 62.21L13.90 77.11C9.72 77.76 5.90 78.41 2.74 78.84L4.10 84.96C10.15 83.88 17.86 82.44 25.27 81.07C25.56 82.66 25.78 84.17 25.85 85.46L30.96 84.10C30.60 79.27 28.80 72.00 26.64 66.38ZM52.85 64.94L52.85 74.74L45.79 74.74L45.79 64.94ZM57.10 78.98L57.10 60.77L41.62 60.77L41.62 81.94L45.79 81.94L45.79 78.98ZM41.69 31.46L57.53 31.46L57.53 36.79L46.58 36.79L46.58 51.12L41.69 51.12ZM57.53 51.12L50.90 51.12L50.90 41.33L57.53 41.33ZM67.32 51.12L63.22 51.12L63.22 25.99L36.22 25.99L36.22 51.12L31.25 51.12L31.25 89.21L37.01 89.21L37.01 56.59L61.42 56.59L61.42 82.94C61.42 83.66 61.20 83.88 60.41 83.95C59.62 84.02 57.24 84.02 54.79 83.88C55.51 85.32 56.23 87.70 56.45 89.21C60.48 89.21 63.14 89.14 65.02 88.27C66.82 87.34 67.32 85.82 67.32 83.02Z"/></svg>
