<svg xmlns="http://www.w3.org/2000/svg" xmlns:xlink="http://www.w3.org/1999/xlink" width="72.00000000000001" height="106.56000000000002"><path fill="red" stroke="red" d="M33.48 39.17L45.43 39.17L45.43 54.14L50.69 54.14L50.69 39.17L63.07 39.17L63.07 45.07L68.33 45.07L68.33 34.70L50.69 34.70L50.69 31.10L65.81 31.10L65.81 26.14L30.53 26.14L30.53 31.10L45.43 31.10L45.43 34.70L28.30 34.70L28.30 45.07L33.48 45.07ZM66.89 50.69C63.72 49.54 57.82 47.74 53.57 46.73L51.98 50.11C56.38 51.26 62.21 53.28 65.30 54.50ZM60.34 39.96C58.18 41.04 54.22 42.91 51.55 43.78L53.64 46.58C56.30 45.86 60.12 44.64 62.93 43.13ZM33.77 43.78C36.79 44.57 40.68 46.01 42.77 47.09L44.71 43.34C42.55 42.41 38.66 41.11 35.71 40.46ZM32.18 55.08C35.93 53.78 39.89 52.27 44.21 50.76L43.70 47.38C38.59 48.74 33.98 50.04 30.38 50.83ZM13.32 41.54L13.32 57.02L9.50 57.02L9.50 41.54ZM21.31 57.02L17.28 57.02L17.28 41.54L21.31 41.54ZM20.66 67.39C21.31 69.77 21.96 72.43 22.61 75.10L18.14 75.82L18.14 62.64L25.85 62.64L25.85 36.07L18.36 36.07L18.36 23.40L12.60 23.40L12.60 36.07L4.61 36.07L4.61 66.38L8.78 66.38L8.78 62.57L12.46 62.57L12.46 76.61C8.78 77.18 5.33 77.69 2.59 78.05L3.60 84.46C9.29 83.45 16.56 82.15 23.69 80.86C23.98 82.58 24.26 84.17 24.41 85.54L28.73 84.38C28.08 79.42 26.42 72.00 24.77 66.24ZM68.76 61.63L68.76 56.45L28.22 56.45L28.22 61.63L42.62 61.63C42.19 63.14 41.69 64.80 41.26 66.17L30.02 66.17L30.02 89.35L35.42 89.35L35.42 71.14L40.54 71.14L40.54 88.78L45.58 88.78L45.58 71.14L51.05 71.14L51.05 88.78L56.09 88.78L56.09 71.14L61.42 71.14L61.42 83.81C61.42 84.38 61.27 84.53 60.70 84.53C60.26 84.53 58.90 84.53 57.38 84.46C57.96 85.90 58.68 87.77 58.90 89.21C61.70 89.21 63.65 89.14 65.16 88.34C66.60 87.48 66.96 86.26 66.96 83.88L66.96 66.17L47.16 66.17C47.74 64.80 48.38 63.22 49.03 61.63Z"/></svg>
