<svg xmlns="http://www.w3.org/2000/svg" xmlns:xlink="http://www.w3.org/1999/xlink" width="72.00000000000001" height="106.56000000000002"><path fill="red" stroke="red" d="M40.61 37.08L30.53 37.08L30.53 31.82L40.61 31.82ZM57.46 42.41L57.46 50.83L46.94 50.83L46.94 42.41ZM30.53 42.41L40.61 42.41L40.61 50.83L30.53 50.83ZM14.76 42.41L24.19 42.41L24.19 50.83L14.76 50.83ZM24.19 37.08L8.50 37.08L8.50 56.16L64.08 56.16L64.08 37.08L46.94 37.08L46.94 31.82L66.74 31.82L66.74 25.99L5.04 25.99L5.04 31.82L24.19 31.82ZM45.65 69.34C43.42 72.22 40.61 74.59 37.22 76.46C32.54 75.46 27.79 74.59 22.97 73.73C24.05 72.36 25.13 70.92 26.14 69.34ZM68.11 69.34L68.11 63.72L56.45 63.72C56.74 62.93 57.02 62.14 57.31 61.42L50.83 59.62C50.33 61.06 49.75 62.42 49.18 63.72L29.81 63.72C30.96 61.85 32.04 59.90 32.98 58.03L26.21 56.59C25.20 58.82 23.83 61.34 22.32 63.72L3.96 63.72L3.96 69.34L18.58 69.34C16.56 72.22 14.47 74.88 12.60 77.11C17.93 78.05 23.11 78.98 28.22 80.06C21.60 81.86 13.54 82.94 3.74 83.45C4.82 84.89 5.90 87.34 6.41 89.28C20.09 88.20 30.74 86.26 38.88 82.44C47.74 84.60 55.37 86.90 60.98 88.99L67.03 84.31C61.42 82.37 53.93 80.35 45.65 78.34C48.82 75.89 51.55 72.94 53.64 69.34Z"/></svg>
