<svg xmlns="http://www.w3.org/2000/svg" xmlns:xlink="http://www.w3.org/1999/xlink" width="72.00000000000001" height="106.56000000000002"><path fill="red" stroke="red" d="M21.74 69.34L21.74 79.63L11.52 79.63L11.52 69.34ZM27.43 63.94L5.90 63.94L5.90 88.27L11.52 88.27L11.52 85.03L27.43 85.03ZM6.05 59.40L27.00 59.40L27.00 54.22L6.05 54.22ZM27.00 44.71L6.05 44.71L6.05 49.97L27.00 49.97ZM21.38 32.18C20.23 29.59 18.00 25.78 15.98 22.75L10.94 25.42C12.82 28.37 14.90 32.47 15.98 35.14L3.10 35.14L3.10 40.46L29.38 40.46L29.38 35.14L16.13 35.14ZM68.76 67.97L52.70 67.97L52.70 58.32L65.59 58.32L65.59 52.13L52.70 52.13L52.70 43.20L67.82 43.20L67.82 37.08L59.11 37.08C61.27 34.06 63.94 29.59 66.24 25.49L59.26 23.04C58.03 26.78 55.44 32.04 53.35 35.42L57.53 37.08L41.90 37.08L45.50 35.28C44.42 31.97 41.54 27.07 39.02 23.40L33.62 25.92C35.78 29.30 38.16 33.84 39.38 37.08L31.39 37.08L31.39 43.20L46.15 43.20L46.15 52.13L33.41 52.13L33.41 58.32L46.15 58.32L46.15 67.97L30.38 67.97L30.38 74.16L46.15 74.16L46.15 89.28L52.70 89.28L52.70 74.16L68.76 74.16Z"/></svg>
