<svg xmlns="http://www.w3.org/2000/svg" xmlns:xlink="http://www.w3.org/1999/xlink" width="72.00000000000001" height="106.56000000000002"><path fill="red" stroke="red" d="M18.14 32.98C17.57 30.38 15.77 26.42 14.18 23.47L9.36 25.27C10.94 28.30 12.53 32.47 13.03 34.99ZM23.54 35.14L4.10 35.14L4.10 40.54L23.54 40.54ZM16.63 69.41L16.63 79.92L11.30 79.92L11.30 69.41ZM21.67 64.15L6.34 64.15L6.34 88.34L11.30 88.34L11.30 85.18L21.67 85.18ZM6.55 59.62L21.74 59.62L21.74 54.36L6.55 54.36ZM6.55 50.04L21.74 50.04L21.74 44.78L6.55 44.78ZM31.68 56.02L39.31 56.02L39.31 60.55L31.68 61.20ZM39.31 41.40L31.68 41.40L31.68 36.36L39.31 36.36ZM39.31 51.19L31.68 51.19L31.68 46.22L39.31 46.22ZM45.50 57.38L44.86 58.39L44.86 31.10L37.22 31.10C38.09 28.94 39.10 26.42 40.03 24.12L33.48 23.04C33.12 25.42 32.33 28.44 31.54 31.10L26.21 31.10L26.21 61.78L23.54 61.99L24.05 67.25C28.44 66.82 33.62 66.24 38.95 65.59C34.13 70.42 28.30 74.59 22.61 77.47C23.47 78.77 24.91 81.50 25.42 82.73C30.17 79.99 34.92 76.46 39.31 72.43L39.31 82.15C39.31 83.09 39.02 83.38 38.09 83.38C37.30 83.38 34.34 83.45 31.39 83.30C32.26 84.74 33.12 87.34 33.34 88.85C37.58 88.85 40.54 88.70 42.41 87.77C44.28 86.76 44.86 85.10 44.86 82.22L44.86 66.74C47.02 64.37 48.82 61.92 50.47 59.26ZM58.03 66.17C57.31 61.92 55.08 54.94 52.63 49.75L47.66 51.12C49.97 56.59 52.06 63.65 52.70 67.90ZM68.98 38.45L65.23 38.45L65.23 23.62L59.18 23.62L59.18 38.45L46.66 38.45L46.66 44.57L59.18 44.57L59.18 81.43C59.18 82.58 58.82 82.87 57.82 82.94C56.81 82.94 53.64 82.94 50.40 82.80C51.19 84.46 52.20 87.19 52.56 88.78C57.24 88.78 60.41 88.56 62.50 87.55C64.51 86.54 65.23 84.89 65.23 81.50L65.23 44.57L68.98 44.57Z"/></svg>
