<svg xmlns="http://www.w3.org/2000/svg" xmlns:xlink="http://www.w3.org/1999/xlink" width="72.00000000000001" height="106.56000000000002"><path fill="red" stroke="red" d="M44.14 32.76L33.62 32.76L33.62 29.95L44.35 29.95L44.35 26.42L33.62 26.42L33.62 23.11L28.73 23.11L28.73 36.22L38.95 36.22C38.88 39.67 38.81 41.11 38.45 41.62C38.09 41.98 37.73 42.05 37.30 42.05C36.58 42.05 35.42 42.05 33.91 41.83C34.42 42.77 34.92 44.28 34.92 45.22C36.65 45.36 38.52 45.36 39.53 45.29C40.97 45.22 42.05 44.78 42.84 43.92C43.70 42.84 43.92 40.39 44.14 34.49ZM30.24 37.22C29.66 39.74 28.37 42.55 27.07 44.28L31.18 45.58C32.62 43.63 33.77 40.39 34.27 38.02ZM52.49 78.77L52.49 82.80L19.15 82.80L19.15 78.77ZM12.89 89.14L19.15 89.14L19.15 86.40L52.49 86.40L52.49 89.14L59.11 89.14L59.11 75.24L12.89 75.24ZM14.18 72.65L57.74 72.65L57.74 69.19L14.18 69.19ZM57.74 63.29L14.18 63.29L14.18 66.74L57.74 66.74ZM40.54 57.02C39.82 55.51 38.59 53.78 37.51 52.34L31.25 53.28C32.11 54.36 32.98 55.73 33.62 57.02L20.16 57.02C22.54 55.08 24.62 52.78 26.42 50.54L46.44 50.54C48.24 52.85 50.40 55.08 52.78 57.02ZM68.33 50.54L68.33 46.22L59.98 46.22C60.62 40.39 61.13 31.97 61.49 25.27L46.22 25.27L46.22 29.52L55.44 29.52L55.30 32.26L46.37 32.26L46.37 36.29L55.01 36.29L54.86 39.10L46.37 39.10L46.37 43.13L54.50 43.13L54.22 46.22L16.99 46.22L16.85 43.13L25.13 43.13L25.13 39.10L16.63 39.10L16.42 36.29L25.13 36.29L25.13 32.26L16.20 32.26L16.06 29.81C19.66 29.16 23.33 28.37 26.50 27.43L23.26 23.76C20.02 24.84 14.76 26.06 10.30 26.93L11.38 46.22L3.89 46.22L3.89 50.54L19.22 50.54C14.90 54.86 8.28 58.54 1.94 60.55C3.24 61.63 5.04 63.86 5.83 65.30C9.22 64.01 12.67 62.28 15.84 60.12L15.84 60.84L55.94 60.84L55.94 59.33C59.11 61.56 62.57 63.29 66.02 64.58C66.96 63.07 68.76 60.91 70.06 59.76C63.94 58.03 57.67 54.58 53.42 50.54Z"/></svg>
