<svg xmlns="http://www.w3.org/2000/svg" xmlns:xlink="http://www.w3.org/1999/xlink" width="72.00000000000001" height="106.56000000000002"><path fill="red" stroke="red" d="M36.94 42.41L45.65 42.41L45.65 48.96L36.94 48.96ZM51.70 32.47C50.76 34.13 49.75 35.93 48.74 37.44L36.65 37.44C38.09 35.86 39.24 34.13 40.39 32.47ZM60.26 48.96L51.41 48.96L51.41 42.41L60.26 42.41ZM63.79 54.86C60.62 57.31 55.66 60.41 51.62 62.71C50.33 60.12 48.67 57.74 46.51 55.73C47.16 55.15 47.81 54.50 48.38 53.93L66.24 53.93L66.24 37.44L55.51 37.44C57.17 34.99 58.82 32.26 59.98 29.88L55.80 27.14L54.86 27.43L43.34 27.43C43.99 26.28 44.50 25.13 45.07 23.98L38.88 22.90C36.43 28.66 31.75 35.64 24.70 40.68C26.21 41.54 28.30 43.34 29.30 44.71C29.95 44.21 30.60 43.70 31.25 43.13L31.25 53.93L41.04 53.93C37.01 56.66 31.54 59.26 26.78 60.70C27.94 56.95 28.87 52.63 29.38 48.82L25.34 47.74L24.48 47.95L20.52 47.95L23.47 44.86C22.32 43.63 20.74 42.26 19.01 40.97C22.75 37.44 26.71 32.83 29.45 28.51L25.56 25.85L24.48 26.21L3.17 26.21L3.17 31.68L20.16 31.68C18.58 33.84 16.56 36.07 14.62 37.94C12.82 36.79 10.87 35.71 9.07 34.85L5.11 38.66C9.72 40.97 15.05 44.78 18.29 47.95L2.38 47.95L2.38 53.64L11.52 53.64L11.52 81.29C11.52 82.15 11.30 82.37 10.37 82.37C9.50 82.44 6.55 82.44 3.46 82.37C4.39 84.02 5.47 86.83 5.76 88.63C9.86 88.63 12.96 88.49 15.05 87.41C17.06 86.33 17.71 84.46 17.71 81.43L17.71 53.64L22.90 53.64C22.18 57.53 21.24 61.56 20.30 64.37L24.91 66.10C25.56 64.58 26.21 62.78 26.78 60.91C28.08 61.99 29.66 63.94 30.53 65.30C34.34 63.79 38.81 61.34 42.70 58.68C43.49 59.47 44.21 60.34 44.78 61.27C40.18 64.94 31.68 68.90 25.20 70.70C26.42 71.93 27.79 73.87 28.51 75.24C34.42 72.94 41.83 69.05 47.09 65.30C47.45 66.10 47.66 66.89 47.95 67.68C42.77 73.08 32.76 78.70 24.41 81.07C25.56 82.30 27.00 84.17 27.72 85.61C34.92 82.94 43.20 78.05 49.10 73.08C49.54 77.54 48.74 81.29 47.38 82.51C46.37 83.66 45.36 83.88 43.92 83.88C42.70 83.88 40.82 83.81 38.74 83.59C39.74 85.10 40.25 87.41 40.32 88.99C42.05 89.06 43.78 89.14 45.07 89.14C47.88 89.06 49.75 88.49 51.55 86.54C54.72 83.66 55.94 75.38 53.42 67.25C54.29 66.82 55.22 66.31 56.16 65.81C58.18 73.51 61.56 81.43 65.23 85.90C66.24 84.38 68.18 82.30 69.55 81.29C65.74 77.54 62.21 70.42 60.19 63.58C62.64 62.21 65.02 60.62 67.10 59.04Z"/></svg>
