<svg xmlns="http://www.w3.org/2000/svg" xmlns:xlink="http://www.w3.org/1999/xlink" width="72.00000000000001" height="106.56000000000002"><path fill="red" stroke="red" d="M22.25 39.24L12.31 39.24L12.31 31.32L22.25 31.32ZM22.25 52.49L12.31 52.49L12.31 44.42L22.25 44.42ZM22.25 65.74L12.31 65.74L12.31 57.53L22.25 57.53ZM28.51 25.85L6.26 25.85L6.26 71.14L28.51 71.14ZM9.94 72.22C8.50 77.33 5.76 82.37 2.30 85.68C3.82 86.54 6.34 88.34 7.56 89.35C11.02 85.54 14.26 79.63 16.13 73.73ZM18.86 74.38C21.17 77.76 23.76 82.37 24.91 85.32L30.46 82.66C29.23 79.78 26.64 75.46 24.12 72.22ZM58.10 67.10C56.23 70.13 53.57 72.79 50.40 75.17C48.96 72.86 47.74 70.20 46.66 67.18L69.12 65.09L68.47 59.98L57.17 60.98L59.69 57.46C57.74 55.94 53.71 53.93 50.47 52.92L47.52 56.66C50.40 57.74 53.78 59.54 55.94 61.06L45.22 61.99C44.64 59.26 44.21 56.45 44.06 53.42L40.10 53.42C43.13 52.27 46.15 50.90 49.03 49.39C52.70 52.78 57.02 54.72 61.42 54.72C66.02 54.79 68.04 53.06 69.05 46.01C67.46 45.65 65.59 44.64 64.37 43.56C64.01 47.81 63.50 49.18 61.63 49.18C59.26 49.25 56.66 48.17 54.29 46.30C57.67 44.06 60.70 41.62 63.00 38.88L57.67 36.79C55.80 38.88 53.35 40.82 50.62 42.55C49.32 41.04 48.24 39.24 47.23 37.22L67.90 35.35L67.32 30.24L58.68 30.96L61.20 27.65C59.26 26.06 55.37 24.19 52.27 23.18L49.18 27.00C51.84 28.08 55.01 29.66 57.10 31.10L45.14 32.11C44.21 29.38 43.56 26.35 43.34 23.18L37.44 23.18C37.73 26.50 38.30 29.66 39.17 32.69L30.38 33.41L30.89 38.74L41.04 37.80C42.26 40.61 43.70 43.20 45.36 45.43C40.68 47.66 35.35 49.46 30.10 50.76C31.25 51.91 33.19 54.29 33.98 55.58C35.35 55.15 36.79 54.65 38.23 54.14C38.45 57.02 38.81 59.83 39.38 62.50L30.24 63.29L30.74 68.62L40.68 67.68C41.90 71.71 43.56 75.31 45.50 78.41C40.97 80.93 35.86 82.94 30.60 84.38C31.75 85.46 33.77 87.98 34.49 89.21C39.46 87.55 44.35 85.39 48.82 82.80C52.49 86.83 56.88 89.14 61.56 89.14C66.46 89.14 68.54 87.12 69.48 78.91C67.97 78.48 65.95 77.54 64.66 76.39C64.37 81.65 63.72 83.45 61.85 83.52C59.11 83.52 56.30 82.08 53.78 79.49C57.82 76.46 61.34 72.94 63.86 68.83Z"/></svg>
