<svg xmlns="http://www.w3.org/2000/svg" xmlns:xlink="http://www.w3.org/1999/xlink" width="72.00000000000001" height="106.56000000000002"><path fill="red" stroke="red" d="M19.58 39.53L11.30 39.53L11.30 31.90L19.58 31.90ZM19.58 52.49L11.30 52.49L11.30 44.64L19.58 44.64ZM19.58 65.59L11.30 65.59L11.30 57.67L19.58 57.67ZM25.13 26.50L5.98 26.50L5.98 70.99L25.13 70.99ZM9.58 72.79C7.85 76.97 5.26 81.79 2.81 85.10C4.18 85.82 6.41 87.26 7.42 88.20C9.86 84.60 12.89 79.13 14.83 74.38ZM42.05 64.08L42.05 58.82L48.10 58.82L48.10 64.08ZM42.05 48.89L48.10 48.89L48.10 53.71L42.05 53.71ZM42.05 39.24L48.10 39.24L48.10 43.92L42.05 43.92ZM59.11 48.89L59.11 53.71L53.71 53.71L53.71 48.89ZM59.11 64.08L53.71 64.08L53.71 58.82L59.11 58.82ZM64.51 68.98L64.51 58.82L68.98 58.82L68.98 53.71L64.51 53.71L64.51 43.92L53.71 43.92L53.71 39.24L66.89 39.24L66.89 34.20L55.22 34.20C57.24 31.68 59.54 28.66 61.56 25.78L55.44 23.18C53.86 26.50 51.12 30.96 48.89 34.20L38.09 34.20L42.77 32.11C41.76 29.74 39.60 25.99 37.80 23.18L32.18 25.49C33.84 28.22 35.71 31.82 36.72 34.20L27.43 34.20L27.43 39.24L36.58 39.24L36.58 43.92L28.08 43.92L28.08 48.89L36.58 48.89L36.58 53.71L26.42 53.71L26.42 58.82L36.58 58.82L36.58 64.08L27.79 64.08L27.79 68.98L34.42 68.98C32.26 73.37 29.30 77.62 26.28 80.64C25.06 78.41 23.11 75.17 21.17 72.79L16.92 75.17C18.65 77.83 20.88 81.43 21.89 83.81L24.70 82.01L23.98 82.58C25.27 83.74 27.14 85.82 28.01 87.34C31.18 84.60 34.20 80.28 36.58 75.46L36.58 89.14L42.05 89.14L42.05 68.98L48.10 68.98L48.10 89.14L53.71 89.14L53.71 74.38C57.10 79.56 61.34 84.31 65.23 87.26C66.24 85.75 67.97 83.66 69.26 82.58C64.58 79.70 59.54 74.38 55.94 68.98Z"/></svg>
