<svg xmlns="http://www.w3.org/2000/svg" xmlns:xlink="http://www.w3.org/1999/xlink" width="72.00000000000001" height="106.56000000000002"><path fill="red" stroke="red" d="M18.72 32.90L54.50 32.90L54.50 45.07L18.72 45.07ZM39.89 67.82L63.65 67.82L63.65 61.56L39.89 61.56L39.89 51.41L61.56 51.41L61.56 26.50L12.10 26.50L12.10 51.41L33.05 51.41L33.05 78.98C27.79 76.68 23.69 72.65 20.95 66.02C21.74 63.07 22.32 60.05 22.75 57.17L15.77 56.30C14.69 66.38 11.38 78.34 3.24 84.60C4.61 85.61 6.84 87.77 7.99 89.14C12.74 85.39 16.13 79.99 18.43 73.94C25.49 85.68 36.58 88.42 51.41 88.42L66.89 88.42C67.25 86.54 68.33 83.45 69.34 81.86C65.88 82.01 54.43 82.01 51.77 82.01C47.52 82.01 43.56 81.79 39.89 81.07Z"/></svg>
