<svg xmlns="http://www.w3.org/2000/svg" xmlns:xlink="http://www.w3.org/1999/xlink" width="72.00000000000001" height="106.56000000000002"><path fill="red" stroke="red" d="M11.81 31.82L24.12 31.82L24.12 42.91L11.81 42.91ZM30.31 73.22C27.65 73.94 24.84 74.66 22.10 75.38L22.10 63.43L30.38 63.43L30.38 57.60L22.10 57.60L22.10 48.60L30.24 48.60L30.24 26.06L6.12 26.06L6.12 48.60L16.20 48.60L16.20 76.82L11.45 77.90L11.45 54.65L5.98 54.65L5.98 79.20L2.52 79.99L4.10 86.33C11.52 84.31 21.60 81.58 31.18 78.98ZM39.60 44.78L58.75 44.78L58.75 52.34L39.60 52.34ZM58.75 32.04L58.75 39.31L39.60 39.31L39.60 32.04ZM64.44 59.76C61.99 62.21 58.03 65.30 54.65 67.61C53.14 64.66 52.06 61.49 51.05 58.10L64.87 58.10L64.87 26.21L33.26 26.21L33.26 78.41C33.26 81.43 31.54 83.16 30.31 83.88C31.32 85.10 32.76 87.77 33.26 89.28C34.78 88.20 37.15 87.41 51.55 83.59C51.34 82.08 51.26 79.42 51.26 77.47L39.60 80.21L39.60 58.10L45.58 58.10C48.89 72.14 54.79 83.16 65.23 88.70C66.17 86.90 68.11 84.31 69.55 83.02C64.51 80.78 60.48 77.04 57.31 72.36C60.91 70.20 65.30 67.18 68.62 64.37Z"/></svg>
