<svg xmlns="http://www.w3.org/2000/svg" xmlns:xlink="http://www.w3.org/1999/xlink" width="72.00000000000001" height="106.56000000000002"><path fill="red" stroke="red" d="M28.58 72.22L20.30 74.38L20.30 63.72L27.94 63.72L27.94 57.96L20.30 57.96L20.30 48.74L26.50 48.74C27.36 50.26 28.22 51.84 28.58 52.78C29.74 51.62 30.82 50.47 31.90 49.18L31.90 56.88C31.90 63.07 31.61 70.78 29.30 77.76ZM11.66 31.68L21.38 31.68L21.38 43.13L11.66 43.13ZM52.92 34.56C51.98 36.79 50.83 39.24 49.75 41.11L37.58 41.11C38.95 39.02 40.18 36.79 41.26 34.56ZM69.05 47.02L69.05 41.11L56.30 41.11C58.10 38.09 60.12 34.56 61.42 31.61L57.10 28.66L56.02 29.02L43.85 29.02C44.42 27.43 45.00 25.92 45.58 24.34L39.60 22.61C36.79 30.74 32.40 38.66 27.22 44.28L27.22 26.06L6.05 26.06L6.05 48.74L14.62 48.74L14.62 75.82L11.09 76.68L11.09 54.65L5.76 54.65L5.76 77.98C4.68 78.19 3.67 78.41 2.74 78.62L3.96 84.74C11.02 82.87 20.30 80.35 29.23 77.98C28.37 80.42 27.22 82.87 25.78 84.96C27.14 85.68 29.88 87.70 30.82 88.92C37.01 79.99 38.09 66.31 38.09 56.88L38.09 47.02ZM51.77 82.08C48.96 82.08 48.46 81.65 48.46 79.20L48.46 57.74L59.98 57.74C59.98 64.01 59.90 66.38 59.47 67.10C59.11 67.68 58.54 67.82 57.82 67.82C57.02 67.82 55.01 67.75 52.78 67.54C53.64 68.98 54.22 71.14 54.22 72.86C56.95 72.94 59.54 72.94 60.91 72.72C62.50 72.50 63.65 72.07 64.51 70.78C65.59 69.34 65.74 64.94 65.74 54.22L65.74 52.06L42.41 52.06L42.41 79.27C42.41 86.04 44.35 87.77 50.90 87.77L61.49 87.77C67.25 87.77 68.98 85.32 69.70 76.32C68.04 75.89 65.52 75.02 64.15 73.94C63.86 80.78 63.43 82.08 61.06 82.08Z"/></svg>
