<svg xmlns="http://www.w3.org/2000/svg" xmlns:xlink="http://www.w3.org/1999/xlink" width="72.00000000000001" height="106.56000000000002"><path fill="red" stroke="red" d="M11.81 31.82L23.33 31.82L23.33 42.91L11.81 42.91ZM30.17 72.36L22.10 74.59L22.10 63.22L29.81 63.22L29.81 57.31L22.10 57.31L22.10 48.60L29.38 48.60L29.38 26.06L6.12 26.06L6.12 48.60L16.20 48.60L16.20 76.10L11.45 77.33L11.45 54.72L5.98 54.72L5.98 78.62L2.52 79.49L4.18 85.75C11.59 83.66 21.53 80.93 30.96 78.19ZM39.53 41.76L58.61 41.76L58.61 47.23L39.53 47.23ZM39.53 31.39L58.61 31.39L58.61 36.72L39.53 36.72ZM42.70 57.82C43.70 56.09 44.57 54.36 45.29 52.56L64.73 52.56L64.73 26.14L33.70 26.14L33.70 52.56L39.17 52.56C36.72 58.10 32.90 63.14 28.51 66.60C29.88 67.46 32.04 69.26 32.98 70.20C35.14 68.33 37.30 65.88 39.24 63.22L43.63 63.22C40.75 70.13 36.07 76.25 30.74 80.35C31.75 81.22 33.77 82.94 34.56 83.88C40.32 78.91 45.72 71.57 49.03 63.22L53.28 63.22C50.69 72.43 46.22 80.64 40.18 85.75C41.40 86.54 43.42 88.27 44.28 89.21C50.69 83.16 55.80 74.02 58.68 63.22L62.21 63.22C61.63 76.54 60.84 81.65 59.83 82.94C59.26 83.59 58.75 83.74 57.82 83.74C56.81 83.74 54.79 83.74 52.49 83.52C53.28 85.03 53.93 87.34 54.00 88.99C56.52 89.14 59.11 89.06 60.55 88.92C62.35 88.63 63.65 88.13 64.73 86.69C66.60 84.53 67.32 77.98 68.11 60.34C68.18 59.54 68.18 57.82 68.18 57.82Z"/></svg>
