<svg xmlns="http://www.w3.org/2000/svg" xmlns:xlink="http://www.w3.org/1999/xlink" width="72.00000000000001" height="106.56000000000002"><path fill="red" stroke="red" d="M49.75 55.08L56.81 55.08L56.81 62.21L49.75 62.21ZM61.06 31.46L61.06 37.15L38.38 37.15L38.38 31.46ZM9.86 56.16L14.47 56.16L14.47 61.99L9.86 61.99ZM9.86 45.79L14.47 45.79L14.47 51.48L9.86 51.48ZM23.40 51.48L19.08 51.48L19.08 45.79L23.40 45.79ZM23.40 61.99L19.08 61.99L19.08 56.16L23.40 56.16ZM64.15 68.33C62.71 69.84 60.41 71.93 58.18 73.66C57.24 71.78 56.38 69.70 55.73 67.61L68.33 67.61L68.33 62.21L62.14 62.21L62.14 55.08L66.60 55.08L66.60 49.68L62.14 49.68L62.14 44.28L56.81 44.28L56.81 49.68L49.75 49.68L49.75 44.28L44.42 44.28L44.42 49.68L39.96 49.68L39.96 55.08L44.42 55.08L44.42 62.21L37.87 62.21C38.30 57.96 38.38 53.78 38.38 50.26L38.38 42.62L66.82 42.62L66.82 25.99L32.62 25.99L32.62 50.26C32.62 57.74 32.26 67.10 29.74 75.46L29.74 71.93L19.80 71.93L19.80 66.82L28.44 66.82L28.44 40.90L19.58 40.90L19.58 36.07L30.17 36.07L30.17 30.38L19.58 30.38L19.58 23.18L13.75 23.18L13.75 30.38L3.60 30.38L3.60 36.07L13.75 36.07L13.75 40.90L4.97 40.90L4.97 66.82L13.68 66.82L13.68 71.93L3.10 71.93L3.10 77.62L13.68 77.62L13.68 89.14L19.80 89.14L19.80 77.62L28.94 77.62C27.86 80.57 26.50 83.38 24.70 85.97C26.06 86.47 28.58 88.20 29.59 89.21C33.98 83.23 36.22 75.38 37.37 67.61L41.18 67.61L41.18 79.20C41.18 82.01 39.67 83.38 38.59 83.95C39.46 85.25 40.61 87.77 41.04 89.21C42.19 88.34 44.14 87.70 54.65 84.82C54.50 83.52 54.43 81.14 54.58 79.70L46.44 81.65L46.44 67.61L50.69 67.61C53.06 77.40 57.67 85.25 65.38 89.14C66.24 87.55 67.90 85.39 69.19 84.24C65.66 82.87 62.86 80.42 60.62 77.47C63.07 75.82 65.88 73.73 68.33 71.64Z"/></svg>
