<svg xmlns="http://www.w3.org/2000/svg" xmlns:xlink="http://www.w3.org/1999/xlink" width="72.00000000000001" height="106.56000000000002"><path fill="red" stroke="red" d="M53.21 55.44L59.40 55.44L57.02 56.59C57.82 57.46 58.68 58.32 59.47 59.33L53.21 59.40ZM39.96 51.55L39.96 47.81L47.45 47.81L47.45 51.55ZM39.96 40.46L47.45 40.46L47.45 44.06L39.96 44.06ZM60.98 40.46L60.98 44.06L53.21 44.06L53.21 40.46ZM60.98 51.55L53.21 51.55L53.21 47.81L60.98 47.81ZM32.83 64.66C40.75 64.44 51.98 64.15 63.00 63.86C63.72 64.87 64.30 65.81 64.73 66.67L69.48 64.08C68.04 61.56 65.30 58.18 62.57 55.44L66.60 55.44L66.60 36.58L53.21 36.58L53.21 33.19L68.11 33.19L68.11 28.15L53.21 28.15L53.21 23.11L47.45 23.11L47.45 28.15L33.12 28.15L33.12 33.19L47.45 33.19L47.45 36.58L34.56 36.58L34.56 55.44L47.45 55.44L47.45 59.54C41.76 59.62 36.50 59.69 32.40 59.76ZM10.15 55.87L15.70 55.87L15.70 61.34L10.15 61.34ZM10.15 45.79L15.70 45.79L15.70 51.19L10.15 51.19ZM25.92 51.19L20.23 51.19L20.23 45.79L25.92 45.79ZM25.92 61.34L20.23 61.34L20.23 55.87L25.92 55.87ZM60.62 64.87L54.43 64.87L54.43 68.26L32.40 68.26L32.40 71.28L20.95 71.28L20.95 66.24L30.96 66.24L30.96 40.97L20.95 40.97L20.95 36.29L31.68 36.29L31.68 30.46L20.95 30.46L20.95 23.11L14.98 23.11L14.98 30.46L3.82 30.46L3.82 36.29L14.98 36.29L14.98 40.97L5.33 40.97L5.33 66.24L14.98 66.24L14.98 71.28L2.81 71.28L2.81 77.26L14.98 77.26L14.98 89.21L20.95 89.21L20.95 77.26L32.62 77.26L32.62 73.37L40.46 73.37L36.22 75.82C38.88 78.34 41.47 82.01 42.70 84.53L47.59 81.36C46.37 78.98 43.70 75.74 41.04 73.37L54.43 73.37L54.43 82.87C54.43 83.66 54.14 83.95 53.14 84.02C52.13 84.02 48.74 84.02 45.43 83.88C46.22 85.46 47.09 87.70 47.38 89.35C52.13 89.35 55.44 89.35 57.74 88.42C59.98 87.62 60.62 86.11 60.62 83.09L60.62 73.37L69.05 73.37L69.05 68.26L60.62 68.26Z"/></svg>
