<svg xmlns="http://www.w3.org/2000/svg" xmlns:xlink="http://www.w3.org/1999/xlink" width="72.00000000000001" height="106.56000000000002"><path fill="red" stroke="red" d="M59.69 29.16C58.10 33.55 55.01 39.74 52.56 43.70L57.31 45.65C60.12 41.98 63.50 36.29 66.38 31.39ZM61.56 76.82C66.24 76.82 67.90 74.45 68.62 67.54C66.82 67.10 64.51 66.10 63.14 65.02C62.93 69.84 62.64 70.99 60.98 70.99L54.50 70.99C52.56 70.99 52.20 70.63 52.20 67.97L52.20 54.79C56.45 57.67 60.77 61.13 63.07 63.86L67.39 59.54C64.51 56.23 58.18 51.70 53.06 48.82L52.20 49.61L52.20 23.26L46.15 23.26L46.15 67.90C46.15 74.95 47.66 76.82 53.57 76.82ZM33.48 43.70C32.69 39.67 29.81 33.77 26.86 29.23L21.53 31.25C24.41 35.78 27.07 41.83 27.79 45.79ZM16.99 34.99C16.06 31.90 14.40 27.14 13.03 23.40L7.20 25.13C8.35 28.94 10.08 34.06 10.94 37.22ZM24.12 64.08C27.14 61.92 30.60 59.47 34.06 57.02C32.83 63.58 29.59 69.34 21.67 73.66C22.97 74.66 25.06 76.90 25.99 78.34C39.02 70.92 40.75 59.98 40.75 47.52L40.75 23.26L34.78 23.26L34.78 47.52C34.78 48.31 34.78 49.10 34.78 49.97C29.81 53.06 24.98 56.09 21.46 58.03L21.67 57.02L18.65 55.87L17.64 56.16L13.61 56.16C15.41 51.19 17.42 45.29 18.94 40.18L3.46 40.18L3.46 46.22L10.73 46.22C8.86 51.84 6.77 57.67 4.97 61.92L14.26 61.92C13.10 66.82 11.45 72.00 9.50 75.82C7.27 77.33 4.75 80.06 2.23 83.38L6.77 89.57C8.71 85.18 11.23 80.50 12.82 80.50C14.40 80.50 16.99 83.02 19.87 84.67C25.13 87.70 31.32 88.49 40.75 88.49C49.18 88.49 62.42 88.06 67.97 87.70C68.11 85.90 69.19 82.58 69.98 80.78C61.99 81.79 49.82 82.44 41.04 82.44C32.62 82.44 25.99 82.01 21.02 78.98C18.72 77.54 17.14 76.32 15.77 75.53C18.07 70.78 19.87 64.87 21.24 59.11Z"/></svg>
