<svg xmlns="http://www.w3.org/2000/svg" xmlns:xlink="http://www.w3.org/1999/xlink" width="72.00000000000001" height="106.56000000000002"><path fill="red" stroke="red" d="M58.39 46.01L58.39 53.78L48.10 53.78L48.10 46.01ZM31.75 46.01L41.62 46.01L41.62 53.78L31.75 53.78ZM41.62 40.75L25.63 40.75L25.63 59.04L38.81 59.04C34.78 64.58 28.08 69.62 21.89 72.29C23.33 73.51 25.20 75.89 26.21 77.40C31.75 74.52 37.44 69.55 41.62 64.01L41.62 79.13L48.10 79.13L48.10 64.22C53.86 68.18 59.76 72.86 62.86 76.25L66.96 71.71C63.29 68.04 56.38 63.00 50.26 59.04L64.87 59.04L64.87 40.75L48.10 40.75L48.10 35.71L67.75 35.71L67.75 30.10L48.10 30.10L48.10 23.26L41.62 23.26L41.62 30.10L23.18 30.10L23.18 35.71L41.62 35.71ZM18.36 34.63C16.99 31.61 14.47 26.86 12.67 23.11L6.84 25.13C8.64 28.94 11.16 34.13 12.38 37.15ZM18.79 55.94L17.78 56.16L14.18 56.16C16.34 51.19 18.58 45.29 20.45 40.18L3.46 40.18L3.46 46.22L11.81 46.22C9.72 51.77 7.27 57.67 5.33 61.92L15.48 61.92C13.97 67.18 11.59 72.65 8.50 76.39L8.57 76.46C6.48 77.98 4.25 80.28 2.23 83.02L6.62 89.35C8.71 85.18 11.23 80.64 12.89 80.64C14.40 80.64 16.99 82.94 19.94 84.53C25.20 87.55 31.39 88.27 40.68 88.27C49.18 88.27 62.50 87.84 67.97 87.48C68.04 85.61 69.19 82.22 70.06 80.42C61.92 81.43 49.61 82.08 40.97 82.08C32.76 82.08 26.06 81.65 21.02 78.77C18.86 77.54 17.35 76.39 16.20 75.74C19.22 70.56 21.53 64.01 22.75 57.60Z"/></svg>
