<svg xmlns="http://www.w3.org/2000/svg" xmlns:xlink="http://www.w3.org/1999/xlink" width="72.00000000000001" height="106.56000000000002"><path fill="red" stroke="red" d="M36.79 33.55L51.77 33.55C50.11 35.28 48.24 36.94 46.15 38.38C42.77 36.94 39.31 35.57 36.07 34.34ZM67.32 47.95C63.58 46.01 58.10 43.49 52.20 40.97C55.87 38.02 58.97 34.56 61.20 30.46L57.10 28.22L56.02 28.51L41.11 28.51C42.05 27.22 42.91 25.99 43.63 24.62L37.73 23.04C34.13 29.30 27.58 35.06 20.59 38.52C22.10 39.46 24.62 41.40 25.70 42.41C27.72 41.26 29.74 39.74 31.75 38.16C34.49 39.24 37.37 40.54 40.32 41.76C34.34 44.71 27.43 46.73 20.52 47.95C21.67 49.10 23.04 51.48 23.69 52.99C31.75 51.34 39.82 48.60 46.73 44.64C53.50 47.66 59.98 50.76 64.15 53.06ZM47.88 79.92L47.88 74.45L66.02 74.45L66.02 69.70L47.88 69.70L47.88 65.95L62.35 65.95L62.35 61.42L47.88 61.42L47.88 57.89L60.77 57.89L60.77 53.21L47.88 53.21L47.88 48.74L41.40 48.74L41.40 53.21L28.51 53.21L28.51 57.89L41.40 57.89L41.40 61.42L26.86 61.42L26.86 65.95L41.40 65.95L41.40 69.70L23.90 69.70L23.90 74.45L41.40 74.45L41.40 79.92ZM17.42 35.14C16.34 31.97 14.69 27.14 13.25 23.40L7.27 25.13C8.42 28.94 10.22 34.06 11.09 37.22ZM19.01 55.87L18.00 56.16L14.04 56.16C15.84 51.19 17.93 45.29 19.58 40.18L3.53 40.18L3.53 46.22L11.16 46.22C9.29 51.77 7.13 57.67 5.33 61.92L14.54 61.92C13.32 66.89 11.52 72.07 9.43 76.03C7.20 77.47 4.68 80.21 2.30 83.38L6.84 89.57C8.78 85.18 11.30 80.50 12.89 80.50C14.47 80.50 17.06 83.02 19.94 84.67C25.20 87.70 31.39 88.49 40.82 88.49C49.25 88.49 62.42 88.06 67.97 87.70C68.11 85.90 69.19 82.58 69.98 80.78C61.99 81.79 49.82 82.44 41.11 82.44C32.62 82.44 26.06 82.01 21.10 78.98C18.72 77.54 17.21 76.39 15.91 75.60C18.50 70.27 20.66 63.43 22.03 57.02Z"/></svg>
