<svg xmlns="http://www.w3.org/2000/svg" xmlns:xlink="http://www.w3.org/1999/xlink" width="72.00000000000001" height="106.56000000000002"><path fill="red" stroke="red" d="M59.04 38.81L59.04 43.06L31.54 43.06C31.61 41.69 31.61 40.39 31.61 39.17L31.61 38.81ZM40.68 55.94L40.68 62.14L35.71 62.14L35.71 55.94ZM60.55 62.14L55.37 62.14L55.37 55.94L60.55 55.94ZM45.43 62.14L45.43 55.94L50.54 55.94L50.54 62.14ZM30.17 77.98L35.71 77.98L35.71 67.46L40.68 67.46L40.68 76.18L45.43 76.18L45.43 67.46L50.54 67.46L50.54 76.18L55.37 76.18L55.37 67.46L60.55 67.46L60.55 72.58C60.55 73.15 60.41 73.30 59.90 73.30C59.40 73.37 58.18 73.37 56.66 73.30C57.24 74.74 57.89 76.75 58.10 78.26C60.84 78.26 62.86 78.19 64.37 77.40C65.81 76.46 66.17 75.10 66.17 72.58L66.17 50.90L31.03 50.90C31.10 49.75 31.25 48.53 31.32 47.38L64.94 47.38L64.94 34.56L31.61 34.56L31.61 32.54C43.78 31.97 57.02 30.67 66.24 28.66L61.70 24.55C53.50 26.50 38.52 27.79 25.85 28.37L25.85 39.10C25.85 47.74 25.20 60.26 20.16 69.48C21.46 70.06 24.05 72.00 24.98 73.08C27.58 68.47 29.16 62.93 30.17 57.38ZM17.06 34.99C16.13 31.90 14.40 27.14 13.10 23.40L7.27 25.13C8.35 28.94 10.15 34.06 10.94 37.22ZM18.07 55.87L17.06 56.16L13.68 56.16C15.41 51.19 17.50 45.29 19.01 40.18L3.53 40.18L3.53 46.22L10.80 46.22C8.93 51.84 6.84 57.67 5.04 61.92L13.82 61.92C12.74 66.82 11.23 72.00 9.58 75.89C7.27 77.33 4.75 80.14 2.30 83.38L6.84 89.57C8.78 85.18 11.23 80.50 12.89 80.50C14.40 80.50 17.06 83.02 19.94 84.67C25.13 87.70 31.39 88.49 40.82 88.49C49.18 88.49 62.35 88.06 67.97 87.70C68.11 85.90 69.19 82.58 69.91 80.78C61.99 81.79 49.82 82.44 41.04 82.44C32.62 82.44 26.06 82.01 21.10 78.98C18.65 77.54 17.14 76.32 15.77 75.53C18.00 70.20 19.94 63.29 21.02 56.95Z"/></svg>
