<svg xmlns="http://www.w3.org/2000/svg" xmlns:xlink="http://www.w3.org/1999/xlink" width="72.00000000000001" height="106.56000000000002"><path fill="red" stroke="red" d="M55.66 52.34L34.56 52.34L34.56 47.38L55.66 47.38ZM55.66 61.85L34.56 61.85L34.56 56.81L55.66 56.81ZM55.66 71.50L34.56 71.50L34.56 66.38L55.66 66.38ZM28.30 42.41L28.30 76.39L62.21 76.39L62.21 42.41L45.86 42.41C46.58 40.90 47.38 39.31 48.02 37.66L68.04 37.66L68.04 32.18L55.44 32.18C57.02 30.02 58.68 27.43 60.34 24.98L53.78 23.18C52.70 25.85 50.62 29.52 48.82 32.18L36.65 32.18L39.53 30.89C38.66 28.87 36.58 25.63 34.70 23.33L29.45 25.49C30.89 27.43 32.54 30.17 33.48 32.18L22.61 32.18L22.61 37.66L40.75 37.66C40.39 39.24 40.03 40.90 39.60 42.41ZM16.99 34.99C16.06 31.90 14.40 27.07 13.03 23.33L7.20 25.13C8.35 28.94 10.08 33.98 10.94 37.15ZM18.65 55.87L17.64 56.16L13.61 56.16C15.41 51.19 17.42 45.29 19.01 40.18L3.46 40.18L3.46 46.22L10.73 46.22C8.93 51.84 6.77 57.67 5.04 61.92L14.26 61.92C13.10 66.82 11.45 72.00 9.50 75.89C7.27 77.33 4.75 80.14 2.23 83.38L6.77 89.57C8.78 85.18 11.23 80.50 12.82 80.50C14.40 80.50 16.99 83.02 19.87 84.67C25.13 87.70 31.32 88.49 40.75 88.49C49.18 88.49 62.35 88.06 67.97 87.70C68.04 85.90 69.12 82.58 69.91 80.78C61.92 81.79 49.82 82.44 41.04 82.44C32.62 82.44 26.06 82.01 21.02 78.98C18.72 77.54 17.14 76.32 15.84 75.60C18.36 70.20 20.30 63.43 21.67 57.02Z"/></svg>
