<svg xmlns="http://www.w3.org/2000/svg" xmlns:xlink="http://www.w3.org/1999/xlink" width="72.00000000000001" height="106.56000000000002"><path fill="red" stroke="red" d="M38.74 40.25L39.89 39.96C39.60 38.30 38.52 35.86 37.44 33.91L52.49 33.91C51.70 35.93 50.62 38.45 49.61 40.25ZM50.04 67.46L40.32 67.46L40.32 62.71L50.04 62.71ZM31.39 34.42C32.47 36.14 33.26 38.45 33.77 40.25L24.62 40.25L24.62 77.11L30.67 77.11L30.67 45.50L42.55 45.50L42.55 49.90L32.90 49.90L32.90 54.22L42.55 54.22L42.55 58.75L35.57 58.75L35.57 73.94L40.32 73.94L40.32 71.50L54.86 71.50L54.86 58.75L47.52 58.75L47.52 54.22L57.31 54.22L57.31 49.90L47.52 49.90L47.52 45.50L59.90 45.50L59.90 70.92C59.90 71.71 59.62 72.00 58.75 72.07C57.89 72.07 55.22 72.07 52.42 71.93C53.14 73.44 54.00 75.89 54.29 77.54C58.46 77.54 61.42 77.47 63.50 76.46C65.52 75.53 66.02 73.94 66.02 70.99L66.02 40.25L55.94 40.25C56.95 38.45 58.03 36.29 59.11 34.13L58.25 33.91L68.18 33.91L68.18 28.66L48.53 28.66C47.45 26.64 45.94 24.26 44.42 22.46L39.17 24.55C40.10 25.78 41.04 27.22 41.76 28.66L22.32 28.66L22.32 33.91L33.41 33.91ZM17.93 34.78C16.78 31.75 14.62 26.93 12.96 23.26L7.20 25.13C8.71 28.94 10.87 33.98 11.95 37.15ZM18.79 55.94L17.71 56.16L13.75 56.16C15.70 51.19 17.86 45.29 19.51 40.18L3.46 40.18L3.46 46.22L11.16 46.22C9.22 51.91 6.98 57.67 5.11 61.92L14.47 61.92C13.46 66.60 12.02 71.64 10.22 75.46C7.78 76.82 4.97 79.78 2.23 83.38L6.77 89.57C8.78 85.18 11.23 80.57 12.82 80.57C14.40 80.57 16.99 83.02 19.87 84.67C25.13 87.70 31.32 88.49 40.82 88.49C49.18 88.49 62.35 88.06 67.90 87.70C68.04 85.90 69.12 82.58 69.91 80.78C61.92 81.79 49.82 82.44 41.11 82.44C32.62 82.44 26.06 82.01 21.02 78.98C18.86 77.62 17.35 76.54 16.06 75.74C18.50 70.34 20.45 63.43 21.67 56.95Z"/></svg>
