<svg xmlns="http://www.w3.org/2000/svg" xmlns:xlink="http://www.w3.org/1999/xlink" width="72.00000000000001" height="106.56000000000002"><path fill="red" stroke="red" d="M15.77 35.28C14.90 32.18 13.32 27.43 12.17 23.69L6.91 25.13C7.99 28.94 9.58 33.98 10.30 37.15ZM47.59 54.86C49.32 55.87 51.05 57.10 52.85 58.25L35.50 58.25C36.58 57.24 37.51 56.02 38.52 54.86ZM29.30 37.58L35.50 37.58L35.50 42.77L29.30 42.77ZM40.75 30.31L46.94 30.31L46.94 33.55L40.75 33.55ZM59.04 37.58L59.04 42.77L52.20 42.77L52.20 37.58ZM40.75 42.77L40.75 37.58L46.94 37.58L46.94 42.77ZM29.16 72.14C29.16 77.62 31.54 78.98 39.74 78.98L55.30 78.98C61.34 78.98 63.22 77.33 63.94 70.85C62.28 70.56 60.05 69.84 58.75 69.05C58.39 73.58 57.82 74.38 54.79 74.38L40.10 74.38C35.86 74.38 35.06 73.94 35.06 72.07L35.06 63.00L50.90 63.00L50.90 66.46C50.90 67.25 50.69 67.46 49.75 67.46C48.96 67.54 46.15 67.54 42.98 67.39C43.63 68.62 44.42 70.20 44.78 71.50C49.18 71.57 51.98 71.50 53.93 70.85C55.80 70.06 56.30 68.98 56.30 66.46L56.30 60.70C59.54 63.07 62.42 65.38 64.37 67.18L68.18 63.22C65.52 60.77 61.06 57.67 56.59 54.86L67.54 54.86L67.54 50.04L41.69 50.04C42.26 49.03 42.77 48.02 43.27 46.87L65.16 46.87L65.16 33.55L52.20 33.55L52.20 30.31L67.32 30.31L67.32 25.49L21.31 25.49L21.31 30.31L35.50 30.31L35.50 33.55L23.47 33.55L23.47 46.87L36.86 46.87C36.29 48.02 35.71 49.03 34.99 50.04L21.60 50.04L21.60 54.86L31.03 54.86C27.79 58.10 23.62 60.77 18.94 62.78C19.51 60.84 20.09 58.90 20.52 57.02L17.71 55.87L16.78 56.16L12.82 56.16C14.54 51.12 16.42 45.29 18.00 40.18L3.60 40.18L3.60 45.79L10.58 45.79C8.78 51.48 6.77 57.60 5.04 61.92L13.46 61.92C12.10 67.10 10.22 72.58 8.06 76.61C6.19 78.05 4.10 80.64 2.02 83.66L6.41 89.64C7.85 85.46 9.94 80.78 11.23 80.78C12.82 80.78 15.48 83.16 18.43 84.82C23.83 87.98 30.17 88.70 39.67 88.70C48.31 88.70 61.85 88.20 67.39 87.84C67.46 86.11 68.54 82.94 69.26 81.22C61.20 82.22 49.03 82.87 39.89 82.87C31.32 82.87 24.62 82.44 19.58 79.42C17.14 77.90 15.48 76.61 14.11 75.89C15.84 72.29 17.42 67.97 18.72 63.58C20.02 64.73 21.74 66.46 22.46 67.46C24.77 66.31 27.07 65.09 29.16 63.58Z"/></svg>
