<svg xmlns="http://www.w3.org/2000/svg" xmlns:xlink="http://www.w3.org/1999/xlink" width="72.00000000000001" height="106.56000000000002"><path fill="red" stroke="red" d="M30.17 65.81L30.17 79.27L12.96 79.27L12.96 65.81ZM6.77 89.21L12.96 89.21L12.96 85.39L30.17 85.39L30.17 88.20L36.58 88.20L36.58 59.76L6.77 59.76ZM4.61 26.93L4.61 32.98L15.41 32.98C13.90 42.55 9.86 49.10 1.87 52.99C3.24 54.00 5.76 56.30 6.70 57.53C15.19 52.49 20.02 44.78 21.89 32.98L31.68 32.98C30.96 43.49 30.10 47.74 28.94 48.96C28.37 49.61 27.65 49.75 26.57 49.75C25.42 49.75 22.68 49.75 19.80 49.46C20.81 51.12 21.53 53.71 21.60 55.58C24.84 55.80 27.94 55.80 29.66 55.51C31.68 55.37 33.12 54.79 34.34 53.21C36.36 51.05 37.22 44.86 38.23 29.59C38.30 28.73 38.38 26.93 38.38 26.93ZM63.86 26.78L62.86 27.07L42.26 27.07L42.26 89.21L48.74 89.21L48.74 33.34L59.98 33.34C57.82 38.95 54.94 46.51 52.13 52.06C59.11 57.96 61.13 63.22 61.13 67.39C61.20 69.91 60.62 71.71 59.11 72.50C58.32 73.08 57.17 73.30 56.02 73.37C54.58 73.44 52.78 73.44 50.69 73.22C51.77 75.10 52.42 78.12 52.49 79.92C54.72 80.06 57.10 79.99 58.97 79.78C60.84 79.56 62.57 78.98 63.86 78.12C66.60 76.32 67.82 72.94 67.75 68.11C67.75 63.29 66.10 57.67 59.04 51.19C62.35 44.86 66.02 36.79 68.90 29.88Z"/></svg>
