<svg xmlns="http://www.w3.org/2000/svg" xmlns:xlink="http://www.w3.org/1999/xlink" width="72.00000000000001" height="106.56000000000002"><path fill="red" stroke="red" d="M37.01 44.71L32.26 44.71L32.26 51.84L28.01 51.84L28.01 56.38L32.26 56.38L32.26 64.30L37.01 64.30L37.01 56.38L41.26 56.38L41.26 51.84L37.01 51.84ZM25.99 31.68C31.39 31.03 36.50 30.10 40.68 29.02L37.51 23.62C29.59 25.78 16.42 27.29 5.40 28.15C6.12 29.59 6.84 31.90 7.06 33.41C11.16 33.19 15.55 32.83 19.94 32.40L19.94 36.94L3.82 36.94L3.82 42.55L19.94 42.55L19.94 66.74L5.33 66.74L5.33 72.29L19.94 72.29L19.94 78.26C13.97 78.91 8.42 79.49 4.03 79.92L4.82 86.26C14.47 85.10 28.01 83.52 40.82 81.79L40.68 75.96C35.78 76.54 30.82 77.11 25.99 77.62L25.99 72.29L38.88 72.29L38.88 66.74L25.99 66.74L25.99 42.55L42.05 42.55L42.05 36.94L25.99 36.94ZM8.78 44.71L8.78 51.77L4.03 51.77L4.03 56.30L8.78 56.30L8.78 64.37L13.54 64.37L13.54 56.30L17.78 56.30L17.78 51.77L13.54 51.77L13.54 44.71ZM63.94 26.64L62.86 26.86L44.21 26.86L44.21 89.21L50.40 89.21L50.40 32.98L60.41 32.98C58.68 38.59 56.02 46.22 53.71 51.91C59.62 58.03 61.27 63.29 61.27 67.54C61.27 69.98 60.77 71.93 59.47 72.79C58.68 73.22 57.60 73.51 56.52 73.58C55.22 73.58 53.50 73.51 51.48 73.37C52.56 75.17 53.21 78.12 53.28 79.92C55.44 80.06 57.74 80.06 59.47 79.85C61.27 79.56 62.86 79.06 64.15 78.19C66.60 76.39 67.68 72.94 67.68 68.11C67.68 63.36 66.24 57.74 60.26 51.12C63.14 44.50 66.31 36.43 68.76 29.59Z"/></svg>
