<svg xmlns="http://www.w3.org/2000/svg" xmlns:xlink="http://www.w3.org/1999/xlink" width="72.00000000000001" height="106.56000000000002"><path fill="red" stroke="red" d="M58.90 23.69C46.22 26.14 24.70 27.79 6.26 28.51C6.91 30.10 7.78 32.98 7.99 34.78C26.64 34.13 48.67 32.54 64.30 29.81ZM52.06 54.14C55.58 49.68 59.98 42.77 63.43 36.65L56.66 33.98C54.29 39.53 49.97 47.02 46.51 51.55ZM40.10 47.59C39.53 44.06 37.51 38.88 35.28 34.85L29.16 36.79C31.25 40.97 33.12 46.44 33.55 49.82ZM22.90 50.18C21.82 46.51 18.86 41.18 15.84 37.22L10.15 39.60C13.03 43.70 15.91 49.18 16.78 52.78ZM67.61 62.93L67.61 56.38L39.31 56.38L39.31 50.11L32.26 50.11L32.26 56.38L4.46 56.38L4.46 62.93L27.36 62.93C21.02 70.34 11.52 77.18 2.45 80.78C4.10 82.30 6.26 84.96 7.42 86.76C16.27 82.51 25.49 75.24 32.26 67.03L32.26 89.06L39.31 89.06L39.31 66.67C46.22 74.95 55.58 82.30 64.51 86.54C65.66 84.82 67.90 82.08 69.48 80.64C60.48 76.97 50.83 70.20 44.35 62.93Z"/></svg>
