<svg xmlns="http://www.w3.org/2000/svg" xmlns:xlink="http://www.w3.org/1999/xlink" width="72.00000000000001" height="106.56000000000002"><path fill="red" stroke="red" d="M10.73 43.85L17.93 43.85L17.93 50.62L10.73 50.62ZM10.73 32.04L17.93 32.04L17.93 38.74L10.73 38.74ZM30.67 38.74L23.54 38.74L23.54 32.04L30.67 32.04ZM30.67 50.62L23.54 50.62L23.54 43.85L30.67 43.85ZM23.98 69.19L36.43 69.19L36.43 63.14L23.98 63.14L23.98 56.02L36.43 56.02L36.43 26.64L5.18 26.64L5.18 56.02L17.50 56.02L17.50 63.14L5.18 63.14L5.18 69.19L17.50 69.19L17.50 78.48C11.95 79.20 6.91 79.78 2.95 80.21L3.67 86.76C12.74 85.46 25.85 83.74 38.16 81.86L38.02 75.96C33.34 76.61 28.58 77.18 23.98 77.76ZM65.16 49.54L64.08 49.75L60.98 49.75L62.57 48.02C60.98 46.51 58.90 44.86 56.52 43.20C60.98 39.31 65.45 34.13 68.47 29.38L64.15 26.35L62.78 26.71L38.74 26.71L38.74 32.69L58.18 32.69C56.30 35.21 54.00 37.87 51.70 40.03C49.46 38.66 47.16 37.44 45.00 36.36L40.82 40.46C45.65 42.91 51.05 46.51 55.01 49.75L37.87 49.75L37.87 56.09L48.53 56.09L48.53 81.43C48.53 82.37 48.17 82.66 47.09 82.66C46.01 82.73 42.34 82.73 38.52 82.58C39.46 84.46 40.32 87.34 40.54 89.21C45.86 89.21 49.61 89.14 52.06 87.98C54.50 86.98 55.15 85.03 55.15 81.58L55.15 56.09L61.92 56.09C60.91 60.05 59.76 64.08 58.68 66.74L64.08 68.11C66.10 63.72 68.11 56.74 69.70 50.62Z"/></svg>
