<svg xmlns="http://www.w3.org/2000/svg" xmlns:xlink="http://www.w3.org/1999/xlink" width="72.00000000000001" height="106.56000000000002"><path fill="red" stroke="red" d="M20.66 78.41L20.66 58.75L30.67 58.75L30.67 53.06L20.66 53.06L20.66 46.44L28.37 46.44L28.37 40.82L10.73 40.82C13.03 38.38 15.41 35.57 17.42 32.62C22.25 35.50 26.93 38.95 29.81 41.83L33.12 36.43C30.31 33.77 25.49 30.53 20.59 27.79C21.10 26.86 21.60 25.92 22.10 24.98L16.78 22.75C13.25 29.52 7.27 35.93 1.44 40.03C2.45 41.54 4.03 45.00 4.61 46.37C5.62 45.58 6.55 44.78 7.56 43.85L7.56 46.44L14.83 46.44L14.83 53.06L4.18 53.06L4.18 58.75L14.83 58.75L14.83 79.42C10.44 80.21 6.48 80.78 3.31 81.29L4.82 87.41C12.38 85.97 22.75 84.02 32.33 82.08L31.97 76.32ZM5.26 63.43C6.55 67.54 7.70 72.79 7.92 76.32L12.74 75.02C12.38 71.64 11.16 66.31 9.79 62.28ZM26.57 75.60C27.86 72.36 29.23 67.25 30.67 62.86L25.42 61.49C24.84 65.30 23.47 70.85 22.46 74.30ZM48.24 54.07L48.24 68.54L40.46 68.54L40.46 54.07ZM43.99 34.49C45.29 31.32 46.44 28.08 47.45 24.77L40.82 23.11C38.23 32.69 33.70 41.98 28.01 47.88C29.59 48.96 32.18 51.34 33.26 52.56C33.84 51.84 34.42 51.12 34.99 50.40L34.99 77.40L40.46 77.40L40.46 74.02L53.64 74.02L53.64 48.60L36.36 48.60C38.02 46.22 39.60 43.49 41.11 40.61L60.48 40.61C59.76 68.62 58.90 79.27 56.95 81.58C56.16 82.58 55.44 82.80 54.29 82.80C52.70 82.80 49.39 82.80 45.58 82.44C46.73 84.38 47.59 87.19 47.66 89.06C51.26 89.28 54.79 89.35 57.02 88.99C59.47 88.63 61.13 87.91 62.64 85.68C65.30 82.22 66.02 70.85 66.89 37.73C66.96 36.86 66.96 34.49 66.96 34.49Z"/></svg>
