<svg xmlns="http://www.w3.org/2000/svg" xmlns:xlink="http://www.w3.org/1999/xlink" width="72.00000000000001" height="106.56000000000002"><path fill="red" stroke="red" d="M46.44 42.91L32.40 42.91L32.40 48.10L46.44 48.10L46.44 53.21L29.38 53.21L29.38 58.68L68.76 58.68L68.76 53.21L52.70 53.21L52.70 48.10L66.31 48.10L66.31 42.91L52.70 42.91L52.70 38.09L68.18 38.09L68.18 32.69L58.39 32.69C59.83 30.46 61.42 27.65 62.86 24.98L56.52 23.18C55.58 25.92 53.86 29.88 52.42 32.69L42.77 32.69L45.72 31.46C44.93 29.16 43.20 25.70 41.33 23.26L36.07 25.20C37.58 27.36 39.02 30.46 39.82 32.69L30.82 32.69L30.82 38.09L46.44 38.09ZM28.30 76.54L19.08 78.34L19.08 59.33L27.58 59.33L27.58 53.64L19.08 53.64L19.08 46.80L24.98 46.80L24.98 41.18L9.72 41.18C12.24 38.38 14.69 35.21 16.78 31.82C20.23 35.28 24.19 39.24 26.28 41.76L30.02 37.30C27.72 34.70 23.18 30.60 19.44 27.14C19.87 26.35 20.16 25.63 20.52 24.84L15.41 23.04C12.46 29.59 7.27 35.78 2.16 39.89C2.95 41.47 4.25 45.00 4.46 46.30C5.69 45.29 6.91 44.14 8.14 42.91L8.14 46.80L13.39 46.80L13.39 53.64L3.67 53.64L3.67 59.33L13.39 59.33L13.39 79.27C9.36 80.06 5.83 80.71 2.95 81.14L4.39 87.12C11.23 85.75 20.16 83.74 28.66 81.86ZM3.82 63.72C4.75 67.82 5.90 73.15 6.19 76.68L10.87 75.46C10.37 72.00 9.22 66.74 8.14 62.64ZM24.84 75.74C25.92 72.43 27.14 67.46 28.44 63.14L23.40 61.92C22.90 65.59 21.82 71.06 20.81 74.52ZM68.26 70.42L68.26 64.87L51.98 64.87C52.13 63.22 52.27 61.56 52.42 59.76L46.15 59.76C46.01 61.56 45.94 63.22 45.72 64.87L30.02 64.87L30.02 70.42L44.57 70.42C42.62 76.90 38.30 81.22 27.86 83.95C29.16 85.18 30.74 87.62 31.39 89.28C43.99 85.54 48.89 79.42 50.98 70.42ZM50.69 75.74C55.87 79.85 62.57 85.82 65.59 89.64L69.77 85.32C66.60 81.65 59.83 75.89 54.58 72.00Z"/></svg>
