<svg xmlns="http://www.w3.org/2000/svg" xmlns:xlink="http://www.w3.org/1999/xlink" width="72.00000000000001" height="106.56000000000002"><path fill="red" stroke="red" d="M18.94 59.33L27.58 59.33L27.58 53.64L18.94 53.64L18.94 46.80L25.49 46.80L25.49 41.18L10.22 41.18C12.31 38.59 14.47 35.71 16.34 32.62C20.45 35.64 24.62 39.24 27.07 42.05L29.74 36.50C27.22 33.98 23.18 30.60 19.08 27.86C19.58 26.93 20.09 25.92 20.52 24.98L15.77 22.68C12.67 29.45 7.42 35.86 2.30 39.96C3.17 41.62 4.39 45.29 4.82 46.73C5.83 45.79 6.91 44.78 7.99 43.63L7.99 46.80L13.82 46.80L13.82 53.64L4.32 53.64L4.32 59.33L13.82 59.33L13.82 78.77C9.86 79.63 6.26 80.35 3.46 80.93L4.75 86.90C11.09 85.39 19.73 83.30 27.94 81.29L27.58 75.89C24.70 76.54 21.74 77.18 18.94 77.76ZM5.26 63.72C6.26 67.90 7.34 73.15 7.56 76.68L11.81 75.38C11.45 71.93 10.37 66.67 9.22 62.57ZM23.83 75.82C24.91 72.58 26.21 67.61 27.43 63.29L22.82 61.85C22.32 65.59 21.10 71.06 20.23 74.52ZM38.38 61.78L46.22 61.78L46.22 65.88L38.38 65.88ZM38.38 53.78L46.22 53.78L46.22 57.74L38.38 57.74ZM60.05 57.74L51.84 57.74L51.84 53.78L60.05 53.78ZM60.05 65.88L51.84 65.88L51.84 61.78L60.05 61.78ZM52.20 78.34L66.82 78.34L66.82 73.51L52.20 73.51L52.20 70.13L65.95 70.13L65.95 49.61L32.69 49.61L32.69 70.13L45.86 70.13L45.86 73.51L31.75 73.51L31.75 78.34L45.86 78.34L45.86 82.51L28.80 82.51L28.80 87.48L69.19 87.48L69.19 82.51L52.20 82.51ZM55.80 34.70C55.22 36.65 54.14 39.24 53.28 41.40L44.35 41.40L44.64 41.33C44.28 39.60 43.34 36.72 42.19 34.70ZM59.33 41.40C60.34 39.67 61.42 37.58 62.35 35.64L57.46 34.70L67.75 34.70L67.75 29.45L53.21 29.45C52.63 27.43 51.34 24.70 49.97 22.75L43.85 24.26C44.78 25.78 45.65 27.65 46.22 29.45L30.82 29.45L30.82 34.70L40.97 34.70L36.58 35.64C37.37 37.37 38.16 39.60 38.59 41.40L28.94 41.40L28.94 46.66L69.48 46.66L69.48 41.40Z"/></svg>
