<svg xmlns="http://www.w3.org/2000/svg" xmlns:xlink="http://www.w3.org/1999/xlink" width="72.00000000000001" height="106.56000000000002"><path fill="red" stroke="red" d="M26.86 30.82L26.86 35.35L12.74 35.35L12.74 30.82ZM12.74 44.42L12.74 39.74L26.86 39.74L26.86 44.42ZM33.12 49.25L33.12 25.99L6.41 25.99L6.41 89.28L12.74 89.28L12.74 49.25ZM25.34 71.57L25.34 66.60L32.90 66.60L32.90 71.57ZM32.90 57.67L32.90 62.42L25.34 62.42L25.34 57.67ZM46.30 62.42L38.45 62.42L38.45 57.67L46.30 57.67ZM38.45 71.57L38.45 66.60L46.30 66.60L46.30 71.57ZM52.13 76.32L52.13 52.92L19.80 52.92L19.80 76.32L32.90 76.32L32.90 87.98L38.45 87.98L38.45 76.32ZM45.07 44.42L45.07 39.74L59.62 39.74L59.62 44.42ZM59.62 30.82L59.62 35.35L45.07 35.35L45.07 30.82ZM66.02 25.99L38.74 25.99L38.74 49.25L59.62 49.25L59.62 81.07C59.62 82.15 59.26 82.44 58.25 82.51C57.31 82.51 54.14 82.51 50.98 82.44C51.84 84.17 52.78 87.19 53.06 88.99C57.82 88.99 61.13 88.85 63.29 87.70C65.45 86.69 66.02 84.67 66.02 81.14Z"/></svg>
