<svg xmlns="http://www.w3.org/2000/svg" xmlns:xlink="http://www.w3.org/1999/xlink" width="72.00000000000001" height="106.56000000000002"><path fill="red" stroke="red" d="M26.93 69.77C30.89 68.47 34.70 67.03 38.23 65.16C41.83 66.67 45.36 68.18 48.38 69.77ZM28.58 80.06L28.58 73.87L43.92 73.87L43.92 80.06ZM28.44 55.87L43.70 55.87C41.98 57.38 40.03 58.75 37.80 60.05C34.34 58.75 30.89 57.60 27.58 56.59ZM12.74 43.20L12.74 39.10L26.86 39.10L26.86 43.20ZM26.86 30.38L26.86 34.85L12.74 34.85L12.74 30.38ZM57.60 69.26C54.07 67.03 48.96 64.58 43.27 62.21C46.94 59.83 50.04 56.95 52.34 53.64L48.74 51.41L47.74 51.70L32.33 51.70C33.19 50.76 33.91 49.68 34.63 48.67L30.10 47.88L33.12 47.88L33.12 25.70L6.34 25.70L6.34 89.14L12.74 89.14L12.74 47.88L29.16 47.88C26.71 51.41 22.32 55.44 16.34 58.32C17.57 59.11 19.30 60.77 20.02 61.92C21.24 61.20 22.39 60.55 23.54 59.83C26.35 60.70 29.30 61.63 32.18 62.78C26.21 65.30 19.37 67.18 12.82 68.18C13.97 69.19 15.19 71.28 15.77 72.58C18.07 72.14 20.52 71.64 22.82 70.99L22.82 86.83L28.58 86.83L28.58 84.38L49.82 84.38L49.82 70.49C51.91 71.64 53.78 72.65 55.30 73.66ZM45.07 43.20L45.07 39.10L59.62 39.10L59.62 43.20ZM59.62 30.38L59.62 34.85L45.07 34.85L45.07 30.38ZM66.02 25.70L38.74 25.70L38.74 47.88L59.62 47.88L59.62 81.14C59.62 82.22 59.26 82.58 58.18 82.58C57.31 82.58 54.14 82.66 50.83 82.51C51.77 84.10 52.92 86.98 53.28 88.63C57.82 88.63 61.13 88.49 63.22 87.34C65.38 86.33 66.02 84.46 66.02 81.22Z"/></svg>
