<svg xmlns="http://www.w3.org/2000/svg" xmlns:xlink="http://www.w3.org/1999/xlink" width="72.00000000000001" height="106.56000000000002"><path fill="red" stroke="red" d="M48.17 55.37L41.98 55.37L41.98 52.06L48.17 52.06ZM52.78 48.89L37.51 48.89L37.51 58.54L52.78 58.54ZM26.86 30.17L26.86 34.06L12.60 34.06L12.60 30.17ZM12.60 42.19L12.60 38.09L26.86 38.09L26.86 42.19ZM33.12 46.58L33.12 25.70L6.34 25.70L6.34 89.28L12.60 89.28L12.60 46.58ZM23.54 52.06L29.38 52.06L29.38 55.30L23.54 55.30ZM19.08 58.39L33.98 58.39L33.98 48.89L19.08 48.89ZM25.92 72.36L25.92 69.55L32.90 69.55L32.90 72.36ZM25.92 63.65L32.90 63.65L32.90 66.38L25.92 66.38ZM45.72 66.38L38.45 66.38L38.45 63.65L45.72 63.65ZM45.72 72.36L38.45 72.36L38.45 69.55L45.72 69.55ZM54.29 82.51L54.29 78.12L38.45 78.12L38.45 75.67L51.34 75.67L51.34 60.41L20.52 60.41L20.52 75.67L32.90 75.67L32.90 78.12L17.28 78.12L17.28 82.51L32.90 82.51L32.90 88.20L38.45 88.20L38.45 82.51ZM45.07 42.05L45.07 38.09L59.69 38.09L59.69 42.05ZM59.69 30.17L59.69 34.06L45.07 34.06L45.07 30.17ZM66.10 25.70L38.74 25.70L38.74 46.44L59.69 46.44L59.69 82.01C59.69 82.94 59.40 83.30 58.54 83.30C57.67 83.30 54.94 83.38 52.13 83.23C52.99 84.82 53.86 87.62 54.07 89.28C58.39 89.28 61.49 89.14 63.50 88.13C65.52 87.05 66.10 85.32 66.10 82.08Z"/></svg>
