<svg xmlns="http://www.w3.org/2000/svg" xmlns:xlink="http://www.w3.org/1999/xlink" width="72.00000000000001" height="106.56000000000002"><path fill="red" stroke="red" d="M67.03 30.96L51.98 30.96C51.41 28.51 50.11 25.34 48.96 22.75L42.55 23.90C43.49 25.99 44.28 28.73 44.93 30.96L28.73 30.96L28.73 36.86L67.03 36.86ZM42.26 48.82C41.83 45.65 40.39 40.75 38.74 37.15L32.76 38.45C34.34 42.12 35.71 47.09 35.93 50.26ZM23.04 25.85L22.10 26.14L5.62 26.14L5.62 89.21L11.74 89.21L11.74 32.11L19.73 32.11C18.36 36.86 16.56 42.91 14.76 47.66C19.44 53.06 20.59 57.82 20.59 61.49C20.59 63.58 20.23 65.38 19.22 66.02C18.65 66.46 17.93 66.67 17.14 66.67C16.06 66.74 14.83 66.74 13.39 66.60C14.33 68.26 14.90 70.92 14.98 72.58C16.63 72.72 18.36 72.65 19.80 72.43C21.38 72.22 22.61 71.78 23.69 71.06C25.85 69.48 26.71 66.38 26.71 62.14C26.71 57.89 25.63 52.78 20.88 47.02C23.11 41.40 25.56 34.34 27.65 28.37ZM57.82 67.68L57.82 79.63L37.51 79.63L37.51 67.68ZM31.03 89.21L37.51 89.21L37.51 85.68L57.82 85.68L57.82 88.92L64.51 88.92L64.51 61.78L31.03 61.78ZM58.75 50.33C60.41 46.87 62.28 42.48 63.86 38.59L57.02 37.01C55.87 41.04 53.93 46.51 51.98 50.33L26.93 50.33L26.93 56.16L68.90 56.16L68.90 50.33Z"/></svg>
