<svg xmlns="http://www.w3.org/2000/svg" xmlns:xlink="http://www.w3.org/1999/xlink" width="72.00000000000001" height="106.56000000000002"><path fill="red" stroke="red" d="M18.50 61.78L18.50 54.50L32.47 54.50L32.47 61.78ZM53.64 54.50L53.64 61.78L39.38 61.78L39.38 54.50ZM25.99 34.63L45.79 34.63L45.79 39.74L25.99 39.74ZM68.26 72.36L39.38 72.36L39.38 67.03L60.84 67.03L60.84 49.18L39.38 49.18L39.38 44.86L52.70 44.86L52.70 34.63L67.03 34.63L67.03 28.94L52.70 28.94L52.70 23.11L45.79 23.11L45.79 28.94L25.99 28.94L25.99 23.11L19.44 23.11L19.44 28.94L5.11 28.94L5.11 34.63L19.44 34.63L19.44 44.86L32.47 44.86L32.47 49.18L11.74 49.18L11.74 67.03L32.47 67.03L32.47 72.36L3.96 72.36L3.96 78.41L32.47 78.41L32.47 89.28L39.38 89.28L39.38 78.41L68.26 78.41Z"/></svg>
