<svg xmlns="http://www.w3.org/2000/svg" xmlns:xlink="http://www.w3.org/1999/xlink" width="72.00000000000001" height="106.56000000000002"><path fill="red" stroke="red" d="M11.45 55.94L24.84 55.94L24.84 60.55L11.45 60.55ZM11.45 46.58L24.84 46.58L24.84 50.98L11.45 50.98ZM21.38 65.74L30.89 65.74L30.89 41.40L21.31 41.40L21.31 36.14L32.33 36.14L32.33 30.24L21.31 30.24L21.31 23.11L14.83 23.11L14.83 30.24L3.89 30.24L3.89 36.14L14.83 36.14L14.83 41.33L5.62 41.33L5.62 65.74L14.90 65.74L14.90 70.92L3.24 70.92L3.24 76.90L14.90 76.90L14.90 89.21L21.38 89.21L21.38 76.90L32.83 76.90L32.83 70.92L21.38 70.92ZM43.63 76.54C44.14 74.66 44.57 72.58 45.00 70.70L50.69 70.70L50.69 76.54ZM43.49 51.34L58.82 51.34L58.82 57.46L43.49 57.46ZM56.88 70.70L67.54 70.70L67.54 65.45L56.88 65.45L56.88 61.99L65.23 61.99L65.23 46.87L37.30 46.87L37.30 61.99L50.69 61.99L50.69 65.45L34.70 65.45L34.70 70.70L39.10 70.70C38.23 74.52 37.15 78.77 36.22 81.79L50.69 81.79L50.69 89.21L56.88 89.21L56.88 81.79L68.90 81.79L68.90 76.54L56.88 76.54ZM57.82 33.91L57.82 38.81L48.89 38.81C49.18 37.37 49.39 35.64 49.61 33.91ZM63.72 38.81L63.72 28.73L50.26 28.73C50.47 26.93 50.69 25.20 50.83 23.54L44.64 23.18C44.50 24.91 44.28 26.86 44.06 28.73L36.00 28.73L36.00 33.91L43.49 33.91C43.20 35.64 42.98 37.37 42.77 38.81L32.47 38.81L32.47 44.06L68.98 44.06L68.98 38.81Z"/></svg>
