<svg xmlns="http://www.w3.org/2000/svg" xmlns:xlink="http://www.w3.org/1999/xlink" width="72.00000000000001" height="106.56000000000002"><path fill="red" stroke="red" d="M41.18 30.46L41.18 33.55L31.39 33.55L31.39 30.46ZM31.39 47.45L31.39 43.63L38.38 43.63L37.80 43.92C38.45 44.50 39.17 45.14 39.74 45.79ZM31.39 37.01L41.18 37.01L41.18 40.18L31.39 40.18ZM25.85 45.22C25.85 47.88 24.34 48.96 23.18 49.39C23.98 50.40 24.98 52.70 25.27 54.00C26.57 53.28 28.66 52.70 43.06 49.54C43.92 50.69 44.71 51.84 45.22 52.85L49.18 50.76L49.18 54.72L54.58 54.72L54.58 30.02L61.34 30.02C60.41 32.47 59.11 35.21 57.67 38.09C61.70 40.97 63.43 43.13 63.43 44.86C63.50 46.01 63.07 46.80 62.21 47.23C61.78 47.45 61.13 47.52 60.41 47.59C59.26 47.66 57.60 47.59 55.80 47.45C56.74 48.74 57.31 50.69 57.38 52.13C59.18 52.27 61.27 52.20 62.71 52.06C63.79 51.91 65.02 51.55 65.95 50.98C67.68 49.90 68.69 48.10 68.69 45.58C68.69 43.13 67.03 40.25 63.22 37.22C65.02 33.91 66.96 30.53 68.62 26.93L64.73 24.98L63.94 25.27L49.18 25.27L49.18 50.47C47.95 48.38 45.72 45.79 43.49 43.63L46.44 43.63L46.44 27.00L38.95 27.00C38.45 25.42 37.66 23.76 36.65 22.32L31.39 23.69C31.97 24.70 32.47 25.85 32.90 27.00L31.39 27.00L31.39 26.93L25.85 26.93L25.85 37.94L21.31 37.01C20.88 38.16 20.52 39.17 19.94 40.18L12.60 40.82C16.56 37.94 20.59 34.27 24.12 30.46L20.30 28.01C19.15 29.45 17.86 30.89 16.49 32.26L11.23 32.54C13.68 30.46 16.06 27.79 18.14 25.06L14.04 22.75C11.88 26.35 8.42 29.95 7.34 30.74C6.34 31.68 5.40 32.26 4.54 32.40C5.04 33.62 5.69 35.86 5.98 36.86C6.70 36.50 7.92 36.29 12.67 35.86C10.94 37.37 9.50 38.52 8.71 39.10C7.06 40.25 5.69 41.04 4.46 41.18C4.97 42.34 5.54 44.57 5.83 45.50L5.83 45.58C6.77 45.14 8.42 44.71 17.35 43.78C13.90 47.74 9.07 50.54 3.60 52.49C4.54 53.50 5.76 55.58 6.26 56.66C15.19 52.99 22.68 47.02 25.85 38.16ZM52.49 75.31L52.49 78.05L20.16 78.05L20.16 75.31ZM20.16 83.88L20.16 81.07L52.49 81.07L52.49 83.88ZM14.04 89.21L20.16 89.21L20.16 87.41L52.49 87.41L52.49 89.21L58.97 89.21L58.97 71.71L14.04 71.71ZM27.94 64.66L29.09 64.30C28.66 63.14 27.65 61.56 26.64 60.26L45.79 60.26C44.93 61.70 43.78 63.43 42.91 64.66ZM51.98 60.26L61.85 60.26L61.85 55.94L40.18 55.94C39.67 54.43 38.88 52.85 38.09 51.55L31.82 53.06C32.26 53.93 32.69 54.94 33.12 55.94L11.38 55.94L11.38 60.26L22.75 60.26L20.38 60.98C21.38 61.99 22.32 63.43 22.97 64.66L3.96 64.66L3.96 69.19L68.18 69.19L68.18 64.66L49.10 64.66C50.26 63.50 51.41 61.99 52.70 60.48Z"/></svg>
