<svg xmlns="http://www.w3.org/2000/svg" xmlns:xlink="http://www.w3.org/1999/xlink" width="72.00000000000001" height="106.56000000000002"><path fill="red" stroke="red" d="M53.14 48.96L19.58 48.96L19.58 43.56L53.14 43.56ZM53.14 59.33L19.58 59.33L19.58 53.86L53.14 53.86ZM53.14 69.77L19.58 69.77L19.58 64.22L53.14 64.22ZM12.60 38.30L12.60 74.95L60.41 74.95L60.41 38.30L37.94 38.30C38.52 36.58 39.17 34.70 39.74 32.76L65.66 32.76L65.66 26.64L6.05 26.64L6.05 32.76L32.04 32.76C31.75 34.63 31.32 36.58 30.89 38.30ZM25.70 75.10C20.74 78.19 11.02 82.01 3.46 84.02C4.97 85.39 6.98 87.70 8.06 89.14C15.70 87.05 25.34 83.23 31.61 79.56ZM40.54 79.85C48.60 82.66 57.02 86.47 61.92 89.21L68.40 84.67C62.86 81.94 53.64 78.19 45.36 75.46Z"/></svg>
