<svg xmlns="http://www.w3.org/2000/svg" xmlns:xlink="http://www.w3.org/1999/xlink" width="72.00000000000001" height="106.56000000000002"><path fill="red" stroke="red" d="M60.12 48.96L44.14 48.96L44.14 43.27L60.12 43.27ZM60.12 59.47L44.14 59.47L44.14 53.78L60.12 53.78ZM60.12 70.06L44.14 70.06L44.14 64.37L60.12 64.37ZM38.38 38.16L38.38 75.24L66.17 75.24L66.17 38.16L53.86 38.16C54.43 36.29 55.01 34.13 55.66 32.04L68.40 32.04L68.40 26.35L36.14 26.35L36.14 32.04L48.82 32.04C48.53 33.98 48.17 36.22 47.74 38.16ZM10.66 68.04C10.66 73.37 9.72 79.99 3.24 84.82C4.61 85.61 7.20 87.70 8.21 88.92C15.26 83.38 16.78 74.88 16.78 68.18L16.78 59.26L10.66 59.26ZM23.26 57.31L23.26 47.74C26.78 50.62 31.03 54.29 32.83 56.16L36.43 51.05C34.42 49.68 26.57 44.35 23.26 42.41L23.26 41.98L35.64 41.98L35.64 36.58L23.26 36.58L23.26 31.03C27.29 30.60 31.10 29.88 34.20 29.02L31.25 23.76C24.91 25.56 14.26 26.78 5.40 27.36C6.05 28.87 6.84 30.96 6.98 32.40C10.22 32.33 13.82 32.04 17.35 31.75L17.35 36.58L4.25 36.58L4.25 41.98L15.41 41.98C12.02 46.30 7.06 50.40 2.52 52.63C3.46 54.22 4.68 56.74 5.18 58.39C9.50 55.94 13.90 51.62 17.35 47.02L17.35 57.31ZM29.59 75.89L29.59 59.18L23.47 59.18L23.47 76.90C23.47 79.63 22.32 81.00 21.31 81.72C22.18 82.66 23.62 84.74 24.12 86.04C25.13 84.89 27.00 83.66 36.22 78.48C35.86 77.18 35.42 74.74 35.28 72.94ZM44.78 75.67C42.12 78.77 37.01 82.66 32.33 84.82C33.84 85.97 35.78 87.84 36.79 89.06C41.47 86.83 47.02 82.80 50.33 79.06ZM53.57 79.20C57.31 82.08 61.92 86.33 64.01 89.06L69.12 85.32C66.74 82.58 62.06 78.62 58.32 75.89Z"/></svg>
