<svg xmlns="http://www.w3.org/2000/svg" xmlns:xlink="http://www.w3.org/1999/xlink" width="72.00000000000001" height="106.56000000000002"><path fill="red" stroke="red" d="M60.70 48.89L43.70 48.89L43.70 43.06L60.70 43.06ZM60.70 59.62L43.70 59.62L43.70 53.71L60.70 53.71ZM60.70 70.34L43.70 70.34L43.70 64.37L60.70 64.37ZM37.87 38.02L37.87 75.38L66.74 75.38L66.74 38.02L53.93 38.02C54.50 36.14 55.08 34.06 55.66 31.97L68.33 31.97L68.33 26.28L36.00 26.28L36.00 31.97L48.82 31.97C48.60 33.91 48.24 36.07 47.88 38.02ZM10.87 42.41L17.21 42.41L17.21 48.46L10.87 48.46ZM10.87 31.68L17.21 31.68L17.21 37.51L10.87 37.51ZM28.73 37.51L22.32 37.51L22.32 31.68L28.73 31.68ZM28.73 48.46L22.32 48.46L22.32 42.41L28.73 42.41ZM35.57 76.10C33.77 74.45 26.35 68.69 22.82 66.24L22.82 65.16L35.28 65.16L35.28 59.04L22.82 59.04L22.82 53.64L34.20 53.64L34.20 26.35L5.62 26.35L5.62 53.64L16.70 53.64L16.70 59.04L3.74 59.04L3.74 65.16L15.05 65.16C11.81 70.78 6.91 76.39 2.23 79.63C3.24 81.29 4.68 84.02 5.33 85.82C9.43 82.73 13.46 77.69 16.70 72.22L16.70 89.14L22.82 89.14L22.82 72.50C26.14 75.53 29.88 79.20 31.68 81.36ZM44.42 76.18C41.54 79.27 35.86 83.09 30.82 85.10C32.33 86.26 34.27 88.20 35.35 89.42C40.39 87.26 46.37 83.23 49.97 79.56ZM54.14 79.78C57.96 82.58 62.64 86.69 65.02 89.35L70.13 85.68C67.75 83.09 62.86 79.13 59.11 76.54Z"/></svg>
