<svg xmlns="http://www.w3.org/2000/svg" xmlns:xlink="http://www.w3.org/1999/xlink" width="72.00000000000001" height="106.56000000000002"><path fill="red" stroke="red" d="M59.11 45.22L43.85 45.22L43.85 40.75L59.11 40.75ZM59.11 54.14L43.85 54.14L43.85 49.68L59.11 49.68ZM59.11 63.22L43.85 63.22L43.85 58.68L59.11 58.68ZM37.80 36.00L37.80 67.97L65.38 67.97L65.38 36.00L52.56 36.00C53.21 34.56 53.86 32.90 54.50 31.32L67.97 31.32L67.97 26.35L35.28 26.35L35.28 31.32L48.31 31.32C47.88 32.90 47.45 34.49 46.94 36.00ZM53.64 71.14C57.46 73.80 62.06 77.90 64.37 80.78L69.19 77.76C66.82 75.02 62.28 71.14 58.32 68.62ZM43.70 68.90C41.11 72.07 36.65 75.10 32.26 77.11C33.55 77.98 35.64 80.06 36.65 81.14C41.11 78.70 46.15 74.59 49.25 70.63ZM25.70 35.21L13.32 35.21L13.32 30.67L25.70 30.67ZM25.70 44.21L13.32 44.21L13.32 39.60L25.70 39.60ZM31.90 25.99L7.42 25.99L7.42 48.89L31.90 48.89ZM23.11 70.56L34.42 70.56L34.42 65.52L23.11 65.52L23.11 58.75L35.71 58.75L35.71 53.64L3.60 53.64L3.60 58.75L17.35 58.75L17.35 76.61C15.48 74.95 13.97 72.86 12.74 70.20C13.03 67.54 13.18 64.87 13.25 62.14L7.78 62.14C7.56 70.85 6.55 79.92 2.38 84.96C3.74 85.97 5.62 88.13 6.41 89.50C9.07 86.33 10.73 82.08 11.74 77.26C17.86 86.11 27.65 87.70 42.26 87.70L67.32 87.70C67.61 85.97 68.69 83.45 69.55 82.08C64.66 82.22 46.22 82.22 42.26 82.22C34.56 82.22 28.15 81.86 23.11 79.99Z"/></svg>
