<svg xmlns="http://www.w3.org/2000/svg" xmlns:xlink="http://www.w3.org/1999/xlink" width="72.00000000000001" height="106.56000000000002"><path fill="red" stroke="red" d="M67.32 39.74C65.09 38.38 61.85 36.94 58.46 35.50C60.91 33.70 63.65 31.32 66.17 29.16L60.55 26.28C58.90 28.44 56.02 31.39 53.64 33.70L51.91 33.05C51.55 31.03 51.41 28.80 51.26 26.64L7.63 26.64L7.63 32.69L45.79 32.69C47.30 44.50 50.83 54.43 61.99 55.80C65.88 56.45 68.18 54.22 69.12 48.17C67.90 47.38 66.38 45.86 65.16 44.57C64.80 48.10 64.30 50.11 63.36 49.97C57.89 49.54 54.79 45.07 53.14 39.02C57.31 40.75 61.42 42.77 63.86 44.35ZM67.90 70.34C65.74 68.98 62.57 67.39 59.18 65.88C61.63 64.15 64.44 61.99 67.03 59.98L61.27 57.10C59.62 58.97 56.74 61.78 54.22 63.86L52.85 63.29C52.56 60.12 52.42 56.74 52.34 53.35L36.79 53.35L36.79 34.78L30.31 34.78L30.31 53.35L19.87 53.35L19.87 43.13C23.40 42.12 26.86 41.04 29.81 39.82L24.77 34.70C19.73 37.37 11.74 39.74 4.46 41.26C5.33 42.62 6.41 44.71 6.77 46.15C8.93 45.72 11.30 45.22 13.54 44.71L13.54 53.35L3.67 53.35L3.67 59.47L13.39 59.47C12.89 68.04 10.80 77.04 2.38 84.38C4.03 85.39 6.34 87.48 7.49 88.92C16.99 80.42 19.30 69.55 19.80 59.47L30.31 59.47L30.31 88.42L36.79 88.42L36.79 59.47L46.37 59.47C47.23 74.88 49.90 87.70 62.14 89.21C66.38 90.00 68.62 87.34 69.55 79.92C68.33 79.13 66.74 77.54 65.59 76.10C65.16 80.50 64.66 83.23 63.65 83.09C57.89 82.66 55.01 77.04 53.64 69.12C57.74 71.06 61.92 73.22 64.37 74.95Z"/></svg>
