<svg xmlns="http://www.w3.org/2000/svg" xmlns:xlink="http://www.w3.org/1999/xlink" width="72.00000000000001" height="106.56000000000002"><path fill="red" stroke="red" d="M18.72 39.89C16.56 35.93 11.88 29.88 8.14 25.63L3.38 28.87C7.13 33.41 11.74 39.74 13.68 43.78ZM15.41 58.82C11.45 67.39 6.19 77.04 2.52 82.73L7.99 86.18C11.88 79.34 16.34 70.42 20.09 62.28ZM23.11 87.19C25.85 82.87 27.14 75.96 27.86 70.20L22.25 68.54C21.53 74.02 20.23 80.35 17.78 84.17ZM31.75 70.63C32.62 75.24 32.98 81.14 32.62 84.96L38.02 84.38C38.30 80.57 37.80 74.66 36.72 70.06ZM40.75 69.91C42.48 73.94 44.06 79.20 44.64 82.66L49.54 81.14C48.89 77.83 47.16 72.72 45.36 68.76ZM59.54 76.25C58.39 73.51 55.87 69.70 53.35 66.89L49.32 68.69C51.62 71.57 54.14 75.67 55.22 78.34ZM31.25 53.86L42.77 53.86L42.77 59.98L31.25 59.98ZM42.77 31.97L42.77 37.66L31.25 37.66L31.25 31.97ZM42.77 48.67L31.25 48.67L31.25 42.91L42.77 42.91ZM49.18 59.98L49.18 53.86L63.86 53.86L63.86 48.67L49.18 48.67L49.18 42.91L63.72 42.91L63.72 37.66L49.18 37.66L49.18 31.97L66.17 31.97L66.17 26.28L24.77 26.28L24.77 65.74L61.34 65.74C60.62 77.18 59.76 81.72 58.61 82.94C58.03 83.66 57.38 83.81 56.30 83.81C55.22 83.81 52.56 83.74 49.68 83.45C50.62 85.03 51.19 87.48 51.34 89.14C54.65 89.35 57.82 89.28 59.54 89.14C61.56 88.92 63.00 88.34 64.30 86.83C66.24 84.67 67.18 78.48 68.04 62.64C68.18 61.70 68.26 59.98 68.26 59.98Z"/></svg>
