<svg xmlns="http://www.w3.org/2000/svg" xmlns:xlink="http://www.w3.org/1999/xlink" width="72.00000000000001" height="106.56000000000002"><path fill="red" stroke="red" d="M29.16 29.81L38.52 29.81L38.52 25.63L29.16 25.63L29.16 23.26L23.83 23.26L23.83 32.47L29.16 32.47ZM13.90 31.68L19.22 31.68L19.22 23.26L13.90 23.26L13.90 25.63L4.61 25.63L4.61 29.66L13.90 29.66ZM10.44 89.42C12.74 86.83 15.12 83.02 16.70 79.99L11.38 77.33C9.79 80.14 7.27 84.02 4.90 86.33ZM20.81 79.78C21.67 82.58 22.46 86.33 22.61 88.70L28.30 87.70C28.01 85.25 27.22 81.58 26.21 78.84ZM32.69 79.92C33.98 82.30 35.42 85.68 36.00 87.84L41.26 86.33C40.61 84.17 39.24 80.93 37.73 78.55ZM19.22 69.55L34.56 69.55L34.56 72.65L19.22 72.65ZM34.56 56.38L34.56 59.47L19.22 59.47L19.22 56.38ZM34.56 66.02L19.22 66.02L19.22 63.00L34.56 63.00ZM40.97 72.65L40.97 69.55L58.82 69.55L58.82 66.02L40.97 66.02L40.97 63.00L58.68 63.00L58.68 59.47L40.97 59.47L40.97 56.38L61.34 56.38L61.34 52.20L12.82 52.20L12.82 76.82L59.33 76.82C58.75 81.22 58.10 83.16 57.38 83.95C56.88 84.46 56.38 84.53 55.44 84.53C54.72 84.53 53.28 84.53 51.55 84.38L53.42 83.52C52.49 81.86 50.54 79.34 48.74 77.54L44.28 79.34C45.94 81.29 47.88 83.95 48.60 85.75L50.26 84.96C50.83 86.33 51.26 87.98 51.34 89.21C54.36 89.42 57.10 89.42 58.54 89.28C60.19 89.14 61.42 88.70 62.64 87.55C64.15 86.11 65.02 82.58 65.88 74.95C66.02 74.16 66.10 72.65 66.10 72.65ZM46.08 33.48L57.10 33.41C55.80 35.64 54.14 37.73 51.98 39.38C49.68 37.66 47.66 35.64 46.08 33.48ZM26.14 39.53L11.30 39.53C11.88 38.81 12.46 38.09 12.96 37.37L30.67 37.37C30.24 43.13 29.88 45.36 29.30 46.08C28.87 46.66 28.37 46.66 27.72 46.66C27.36 46.66 26.86 46.66 26.14 46.66ZM21.38 45.22L13.68 45.22L13.68 42.41L21.38 42.41ZM67.54 33.41L67.54 28.44L49.46 28.44C50.18 27.22 50.83 26.06 51.41 24.77L45.72 23.18C43.70 27.65 40.32 31.90 36.43 35.06L36.50 33.62L15.19 33.62C15.34 33.19 15.55 32.69 15.77 32.26L10.66 31.46C9.14 34.56 6.55 38.09 2.66 40.75C3.74 41.47 5.47 43.13 6.34 44.21C7.27 43.49 8.14 42.77 9.00 41.90L9.00 50.11L13.75 50.11L13.75 48.10L24.26 48.10C24.62 49.03 24.77 50.04 24.84 50.83C27.07 50.98 29.30 50.98 30.53 50.83C32.04 50.69 33.12 50.26 34.13 49.25C35.28 47.81 35.78 44.71 36.29 37.15C37.44 38.23 38.66 39.67 39.31 40.54C40.46 39.60 41.54 38.52 42.70 37.44C44.14 39.17 45.65 40.82 47.45 42.41C44.06 44.14 40.10 45.58 35.86 46.58C37.01 47.59 38.74 49.90 39.46 51.19C43.99 49.82 48.31 48.10 51.98 45.86C55.94 48.46 60.55 50.40 65.45 51.77C66.24 50.18 67.90 47.95 69.26 46.73C64.73 45.86 60.48 44.28 56.74 42.34C59.54 39.89 61.85 36.94 63.43 33.41Z"/></svg>
