<svg xmlns="http://www.w3.org/2000/svg" xmlns:xlink="http://www.w3.org/1999/xlink" width="72.00000000000001" height="106.56000000000002"><path fill="red" stroke="red" d="M56.23 42.62L49.18 42.62L49.18 38.88L55.58 38.88L55.58 34.27L49.18 34.27L49.18 30.67L56.02 30.67L56.02 25.99L37.30 25.99L37.30 30.67L43.92 30.67L43.92 34.27L37.66 34.27L37.66 38.88L43.92 38.88L43.92 42.62L37.15 42.62L37.15 47.30L56.23 47.30ZM6.84 89.21L13.25 89.21L13.25 24.12L6.84 24.12ZM33.34 42.62L26.78 42.62L26.78 38.88L32.76 38.88L32.76 34.27L26.78 34.27L26.78 30.67L33.19 30.67L33.19 25.99L15.55 25.99L15.55 30.67L21.60 30.67L21.60 34.27L15.91 34.27L15.91 38.88L21.60 38.88L21.60 42.62L15.41 42.62L15.41 47.30L33.34 47.30ZM51.91 62.14L38.59 62.14L38.59 58.18L55.15 58.18L55.15 53.42L39.46 53.42C38.81 51.77 37.73 49.61 36.65 48.02L31.18 49.68C31.90 50.83 32.54 52.13 33.12 53.42L16.78 53.42L16.78 58.18L32.76 58.18L32.76 62.14L19.73 62.14L19.73 82.66L25.20 82.66L25.20 66.89L32.76 66.89L32.76 87.62L38.59 87.62L38.59 66.89L46.44 66.89L46.44 76.90C46.44 77.47 46.30 77.62 45.65 77.62C45.07 77.69 43.20 77.69 41.11 77.62C41.76 79.06 42.41 81.00 42.62 82.51C46.01 82.51 48.31 82.51 49.97 81.65C51.55 80.78 51.91 79.42 51.91 76.97ZM58.68 24.12L58.68 81.43C58.68 82.51 58.25 82.87 57.24 82.94C56.16 82.94 52.85 82.94 49.46 82.80C50.40 84.46 51.34 87.26 51.55 88.92C56.74 88.92 60.05 88.70 62.21 87.70C64.37 86.69 65.09 84.89 65.09 81.43L65.09 24.12Z"/></svg>
