<svg xmlns="http://www.w3.org/2000/svg" xmlns:xlink="http://www.w3.org/1999/xlink" width="72.00000000000001" height="106.56000000000002"><path fill="red" stroke="red" d="M16.56 87.41C20.09 84.74 21.96 80.50 23.33 76.46L19.08 74.88C18.00 78.55 15.77 82.44 12.60 84.67ZM24.91 75.89C25.49 79.13 25.78 83.16 25.56 85.82L29.74 85.32C29.88 82.73 29.45 78.62 28.80 75.53ZM31.39 76.03C32.62 78.62 33.70 82.08 33.98 84.46L37.87 83.30C37.51 81.07 36.36 77.62 35.06 75.02ZM43.85 46.44L43.85 49.39L26.78 49.39L26.78 46.44ZM26.78 55.87L26.78 52.85L43.85 52.85L43.85 55.87ZM26.78 69.12L26.78 66.31L53.78 66.31L53.78 62.42L26.78 62.42L26.78 59.69L49.82 59.69L49.82 42.70L36.72 42.70C37.22 41.69 37.80 40.54 38.38 39.31L52.99 39.31L52.99 35.21L18.72 35.21L18.72 39.31L31.97 39.31C31.68 40.39 31.39 41.62 31.10 42.70L20.81 42.70L20.81 72.94L48.46 72.94C48.02 79.85 47.52 82.73 46.73 83.59C46.22 84.10 45.72 84.17 44.78 84.17C43.92 84.17 41.69 84.17 39.24 83.88C39.96 85.10 40.54 87.05 40.61 88.42C43.34 88.56 46.01 88.56 47.52 88.42C49.18 88.27 50.47 87.91 51.55 86.69C52.99 85.03 53.57 81.14 54.22 71.21C54.29 70.56 54.29 69.12 54.29 69.12ZM45.65 80.50C44.93 78.70 43.42 76.10 41.69 74.23L38.30 75.60C39.89 77.54 41.40 80.21 42.05 82.01ZM10.22 26.42L10.22 45.72C10.22 57.38 9.58 73.94 2.45 85.46C3.96 86.18 6.77 88.06 7.92 89.14C15.55 76.90 16.63 58.25 16.63 45.72L16.63 32.11L55.08 32.11C55.22 62.28 55.01 89.14 64.37 89.14C68.33 89.14 69.48 85.32 70.13 76.46C69.05 75.31 67.46 73.22 66.31 71.35C66.24 77.47 65.88 82.01 65.09 82.01C61.34 82.01 61.34 52.63 61.56 26.42Z"/></svg>
