<svg xmlns="http://www.w3.org/2000/svg" xmlns:xlink="http://www.w3.org/1999/xlink" width="72.00000000000001" height="106.56000000000002"><path fill="red" stroke="red" d="M15.48 38.52L22.18 38.52L22.18 47.30L15.48 47.30ZM34.06 47.30L27.94 47.30L27.94 38.52L33.41 38.52L33.41 32.62L27.94 32.62L27.94 23.62L22.18 23.62L22.18 32.62L15.48 32.62L15.48 23.62L9.72 23.62L9.72 32.62L3.89 32.62L3.89 38.52L9.72 38.52L9.72 47.30L2.95 47.30L2.95 53.21L34.06 53.21ZM13.18 79.49L13.18 73.66L24.62 73.66L24.62 79.49ZM24.62 63.36L24.62 68.83L13.18 68.83L13.18 63.36ZM30.53 57.89L7.42 57.89L7.42 88.34L13.18 88.34L13.18 84.96L30.31 84.96L34.42 87.48C37.73 83.81 39.02 77.69 39.74 72.00L34.85 70.70C34.27 75.60 33.05 80.71 30.53 84.02ZM41.40 73.01C42.26 76.68 42.77 81.50 42.77 84.67L46.87 83.95C46.87 80.86 46.22 76.03 45.29 72.43ZM47.88 72.29C49.10 75.31 50.33 79.34 50.76 82.01L54.50 80.93C54.07 78.34 52.70 74.38 51.41 71.42ZM61.06 77.18C60.26 75.17 58.61 72.07 56.95 69.84L53.71 70.99C55.22 73.37 56.88 76.54 57.60 78.62ZM57.89 34.42L57.89 38.30L41.69 38.30L41.69 34.42ZM41.69 46.44L41.69 42.48L57.89 42.48L57.89 46.44ZM69.12 59.54L69.12 54.72L41.69 54.72L41.69 51.19L63.94 51.19L63.94 29.66L51.62 29.66C52.42 27.94 53.21 26.06 54.00 24.12L46.80 23.11C46.51 24.91 45.86 27.43 45.22 29.66L35.64 29.66L35.64 68.11L62.06 68.11C61.34 78.55 60.55 82.58 59.47 83.81C58.97 84.46 58.46 84.53 57.38 84.53C56.30 84.53 53.86 84.53 51.12 84.24C51.84 85.54 52.34 87.62 52.42 89.06C55.44 89.28 58.46 89.21 59.98 89.06C61.78 88.85 63.07 88.42 64.22 87.12C65.95 85.10 66.82 79.63 67.68 65.45C67.75 64.66 67.75 63.14 67.75 63.14L41.69 63.14L41.69 59.54Z"/></svg>
