<svg xmlns="http://www.w3.org/2000/svg" xmlns:xlink="http://www.w3.org/1999/xlink" width="72.00000000000001" height="106.56000000000002"><path fill="red" stroke="red" d="M16.78 89.57C19.44 87.41 21.24 84.24 22.68 81.36L17.78 79.27C16.63 81.94 14.33 85.10 11.81 86.98ZM25.42 81.86C26.35 84.02 27.14 86.98 27.36 88.85L32.40 87.48C32.11 85.68 31.18 82.80 30.10 80.71ZM35.42 81.94C36.79 83.95 38.09 86.83 38.59 88.63L43.27 87.05C42.70 85.25 41.40 82.58 39.89 80.57ZM55.58 59.98L55.58 62.06L25.70 62.06L25.70 59.98ZM25.70 66.82L25.70 64.58L55.58 64.58L55.58 66.82ZM25.34 40.68C27.00 38.66 28.37 36.65 29.59 34.56L25.99 33.34L34.42 33.34C32.26 37.30 28.87 41.18 25.34 43.99ZM37.94 36.94C38.45 36.07 38.95 35.28 39.38 34.42L35.86 33.34L49.68 33.34L46.51 34.42C47.02 35.14 47.59 36.07 48.10 36.94ZM47.66 41.76L36.79 41.76L36.79 39.74L47.66 39.74ZM47.66 46.44L36.79 46.44L36.79 44.35L47.66 44.35ZM47.66 50.76L36.79 50.76L36.79 48.96L47.66 48.96ZM68.62 74.74L68.62 71.71L25.70 71.71L25.70 69.55L61.63 69.55L61.63 57.17L41.04 57.17C41.76 56.45 42.41 55.66 43.20 54.86L37.15 53.78L36.79 54.36L36.79 53.64L65.88 53.64L65.88 50.76L53.21 50.76L53.21 48.96L63.65 48.96L63.65 46.44L53.21 46.44L53.21 44.35L63.65 44.35L63.65 41.76L53.21 41.76L53.21 39.74L65.38 39.74L65.38 36.94L54.00 36.94C53.42 35.78 52.63 34.49 51.84 33.34L68.18 33.34L68.18 28.08L42.77 28.08C42.05 26.28 40.82 24.19 39.60 22.61L33.55 24.34C34.20 25.49 34.99 26.78 35.64 28.08L8.50 28.08L8.50 49.68C8.50 60.41 7.99 75.46 2.38 85.97C3.82 86.54 6.62 88.13 7.78 89.14C13.68 77.98 14.62 61.20 14.62 49.68L14.62 33.34L24.41 33.34C22.18 37.15 18.58 40.68 14.98 43.13C15.98 44.35 17.42 46.80 17.93 47.88C18.72 47.30 19.51 46.58 20.30 45.86L20.30 55.15L25.34 55.15L25.34 45.22C26.42 46.08 27.65 47.38 28.30 48.10C29.38 47.16 30.46 46.15 31.54 45.07L31.54 54.94L36.43 54.94C35.93 55.58 35.35 56.38 34.78 57.17L19.73 57.17L19.73 79.85L59.62 79.85C59.18 82.94 58.68 84.46 58.10 85.10C57.67 85.54 57.24 85.61 56.52 85.61C55.94 85.61 54.86 85.61 53.64 85.46C52.85 83.81 51.12 81.65 49.25 79.99L45.22 81.72C46.87 83.38 48.60 85.82 49.39 87.48L52.56 86.04C52.99 87.05 53.35 88.27 53.42 89.06C55.94 89.28 58.39 89.28 59.69 89.21C61.20 89.14 62.57 88.78 63.58 87.77C64.87 86.54 65.59 84.02 66.24 78.62C66.38 77.98 66.38 76.75 66.38 76.75L25.70 76.75L25.70 74.74Z"/></svg>
