<svg xmlns="http://www.w3.org/2000/svg" xmlns:xlink="http://www.w3.org/1999/xlink" width="72.00000000000001" height="106.56000000000002"><path fill="red" stroke="red" d="M16.92 43.70L22.90 43.70L22.90 35.21C25.85 37.01 29.30 39.31 30.89 40.46L34.34 36.65C33.05 35.86 28.58 33.62 25.27 32.04L33.98 32.04L33.98 27.29L22.90 27.29L22.90 23.11L16.92 23.11L16.92 27.29L4.39 27.29L4.39 32.04L14.04 32.04C10.87 35.06 6.41 37.94 2.59 39.46C3.89 40.39 5.40 42.26 6.34 43.63C9.79 41.76 13.68 38.95 16.92 36.00ZM25.06 58.75L25.06 63.65L14.40 63.65C14.47 61.92 14.54 60.34 14.54 58.75ZM25.06 50.33L25.06 54.29L14.54 54.29L14.54 50.33ZM41.62 54.29L31.03 54.29L31.03 50.33L41.62 50.33ZM41.62 63.65L31.03 63.65L31.03 58.75L41.62 58.75ZM58.61 58.75L58.61 63.65L47.59 63.65L47.59 58.75ZM51.12 82.66C48.17 82.66 47.66 82.37 47.66 80.64L47.66 76.75L66.31 76.75L66.31 72.22L47.66 72.22L47.66 68.18L64.66 68.18L64.66 54.29L47.59 54.29L47.59 50.33L67.10 50.33L67.10 45.29L40.25 45.29C39.74 44.14 39.10 42.91 38.52 41.83C41.76 40.18 45.14 37.87 47.95 35.50L47.95 43.63L54.00 43.63L54.00 35.14C58.03 37.58 63.22 40.90 65.38 42.62L68.76 38.59C66.89 37.37 60.84 34.13 56.66 32.04L67.46 32.04L67.46 27.29L54.00 27.29L54.00 23.11L47.95 23.11L47.95 27.29L36.22 27.29L36.22 32.04L44.78 32.04C41.47 34.78 37.01 37.30 33.12 38.59C34.13 39.31 35.14 40.32 36.00 41.26L31.75 42.34C32.18 43.20 32.69 44.21 33.12 45.29L8.35 45.29L8.35 58.61C8.35 66.46 7.78 77.33 2.30 85.25C3.60 85.90 6.34 88.13 7.27 89.28C11.45 83.38 13.25 75.46 14.04 68.18L18.43 68.18L18.43 80.64C18.43 83.23 16.92 84.02 15.77 84.46C16.49 85.39 17.42 87.55 17.64 88.92C19.22 88.27 21.67 87.91 40.18 86.33C39.96 85.25 39.89 83.16 39.96 81.72L24.34 82.80L24.34 76.68L38.95 76.68L38.95 72.14L24.34 72.14L24.34 68.18L41.69 68.18L41.69 80.64C41.69 86.18 43.34 87.77 50.47 87.77L61.63 87.77C66.60 87.77 68.33 86.18 68.98 80.35C67.39 80.06 65.02 79.20 63.79 78.34C63.58 82.08 63.07 82.66 60.98 82.66Z"/></svg>
