<svg xmlns="http://www.w3.org/2000/svg" xmlns:xlink="http://www.w3.org/1999/xlink" width="72.00000000000001" height="106.56000000000002"><path fill="red" stroke="red" d="M67.39 43.13L67.39 36.58L47.23 36.58C47.38 32.62 47.38 28.51 47.38 24.19L40.10 24.19C40.10 28.58 40.10 32.69 40.03 36.58L4.75 36.58L4.75 43.13L39.82 43.13C39.31 53.78 37.73 62.28 32.54 68.83C26.64 63.00 22.68 55.51 20.16 46.01L13.75 47.59C16.92 58.54 21.24 67.03 27.65 73.58C22.54 77.54 15.19 80.57 4.75 82.80C6.19 84.24 7.92 86.90 8.57 88.63C19.58 86.26 27.50 82.80 33.05 78.26C40.82 83.88 50.90 87.41 64.30 89.21C65.16 87.26 66.89 84.31 68.33 82.80C55.51 81.36 45.58 78.26 38.09 73.22C44.35 65.52 46.37 55.44 47.02 43.13Z"/></svg>
