<svg xmlns="http://www.w3.org/2000/svg" xmlns:xlink="http://www.w3.org/1999/xlink" width="72.00000000000001" height="106.56000000000002"><path fill="red" stroke="red" d="M66.82 34.27L66.82 27.65L5.04 27.65L5.04 34.27L32.11 34.27L32.11 44.06L7.49 44.06L7.49 89.14L14.18 89.14L14.18 50.33L31.75 50.33C30.82 57.53 27.36 65.88 14.76 71.93C16.42 73.15 18.72 75.53 19.73 77.04C28.15 72.58 33.05 67.03 35.78 61.42C41.76 66.10 48.46 71.71 51.77 75.67L56.38 70.42C52.42 66.24 44.50 59.90 38.02 55.37C38.52 53.64 38.81 51.98 39.02 50.33L58.03 50.33L58.03 80.78C58.03 81.94 57.60 82.30 56.23 82.37C54.86 82.37 49.97 82.44 45.29 82.22C46.22 84.02 47.30 86.98 47.59 88.92C53.93 88.92 58.39 88.85 61.06 87.77C63.86 86.76 64.73 84.67 64.73 80.86L64.73 44.06L39.31 44.06L39.31 34.27Z"/></svg>
