<svg xmlns="http://www.w3.org/2000/svg" xmlns:xlink="http://www.w3.org/1999/xlink" width="72.00000000000001" height="106.56000000000002"><path fill="red" stroke="red" d="M15.41 62.57L15.41 49.39L31.10 49.39L31.10 33.41L40.39 33.41L40.39 49.32L56.30 49.32L56.30 62.57L40.39 62.57L40.39 79.99L31.03 79.99L31.03 62.57ZM46.87 79.99L46.87 68.33L63.07 68.33L63.07 43.56L46.87 43.56L46.87 33.41L66.74 33.41L66.74 27.36L5.54 27.36L5.54 33.41L24.62 33.41L24.62 43.63L8.86 43.63L8.86 68.40L24.62 68.40L24.62 79.99L3.89 79.99L3.89 86.11L68.18 86.11L68.18 79.99Z"/></svg>
