<svg xmlns="http://www.w3.org/2000/svg" xmlns:xlink="http://www.w3.org/1999/xlink" width="72.00000000000001" height="106.56000000000002"><path fill="red" stroke="red" d="M62.57 40.46L61.42 40.68L43.42 40.68L43.42 46.37L59.18 46.37C58.18 50.04 56.88 53.42 55.30 56.38C52.63 53.42 49.90 50.54 47.30 48.02L42.77 51.48C45.79 54.50 48.96 58.10 51.91 61.70C48.82 66.02 45.00 69.34 40.75 71.71C42.26 72.65 44.64 74.88 45.65 76.25C49.46 73.87 52.92 70.78 55.94 66.89C58.18 69.91 60.05 72.72 61.27 75.10L66.38 71.06C64.80 68.33 62.42 64.94 59.54 61.49C62.64 56.02 65.02 49.54 66.53 41.98ZM35.06 43.13C34.56 62.42 33.98 69.70 32.76 71.28C32.18 72.14 31.61 72.29 30.60 72.29C29.38 72.29 27.07 72.29 24.34 72.07C25.34 73.66 25.92 76.10 26.06 77.76C29.02 77.90 31.82 77.90 33.55 77.62C35.64 77.40 37.01 76.75 38.30 75.02C40.18 72.36 40.75 64.30 41.33 40.25L41.33 37.44L31.03 37.44C31.39 35.57 31.82 33.62 32.18 31.68L66.46 31.68L66.46 25.70L5.69 25.70L5.69 31.68L25.78 31.68C25.13 35.71 24.12 39.96 23.18 43.13ZM21.17 63.36L12.60 63.36L12.60 49.39L21.17 49.39ZM6.91 44.14L6.91 68.62L27.14 68.62L27.14 44.14ZM3.89 80.35L3.89 86.33L68.11 86.33L68.11 80.35Z"/></svg>
