<svg xmlns="http://www.w3.org/2000/svg" xmlns:xlink="http://www.w3.org/1999/xlink" width="72.00000000000001" height="106.56000000000002"><path fill="red" stroke="red" d="M66.96 32.69L39.17 32.69L41.26 31.90C40.25 29.38 37.94 25.34 36.00 22.39L29.66 24.55C31.18 27.07 32.83 30.24 33.91 32.69L4.90 32.69L4.90 39.17L66.96 39.17ZM43.70 44.35C50.26 48.89 58.18 55.66 61.78 60.12L67.39 55.73C63.50 51.26 55.37 44.78 48.96 40.54ZM22.39 40.75C18.22 46.08 11.16 51.48 4.82 54.94C6.34 56.02 8.93 58.54 10.08 59.83C16.34 55.87 23.98 49.39 28.94 43.27ZM46.15 52.92C43.85 59.04 40.54 64.08 36.22 68.26C31.82 64.08 28.44 59.04 26.14 53.28L20.09 55.15C22.97 61.92 26.64 67.61 31.18 72.43C23.90 77.62 14.62 81.07 3.67 83.23C4.97 84.74 6.98 87.70 7.70 89.28C18.79 86.54 28.37 82.66 36.14 76.82C43.56 82.66 52.85 86.62 64.51 88.78C65.38 86.90 67.18 84.17 68.62 82.80C57.53 81.00 48.46 77.54 41.26 72.50C46.15 67.75 50.04 61.99 52.92 54.94Z"/></svg>
