<svg xmlns="http://www.w3.org/2000/svg" xmlns:xlink="http://www.w3.org/1999/xlink" width="72.00000000000001" height="106.56000000000002"><path fill="red" stroke="red" d="M51.48 34.27C50.40 31.18 47.81 26.42 45.50 22.82L39.38 24.98C41.62 28.66 44.06 33.62 44.93 36.72ZM19.73 23.47C15.84 33.98 9.43 44.50 2.59 51.19C3.74 52.70 5.69 56.45 6.34 58.10C8.35 56.02 10.37 53.64 12.24 51.05L12.24 89.06L19.01 89.06L19.01 40.54C21.74 35.64 24.19 30.53 26.14 25.42ZM49.82 80.42L49.82 64.01L66.10 64.01L66.10 57.67L49.82 57.67L49.82 43.27L68.18 43.27L68.18 36.86L24.77 36.86L24.77 43.27L43.06 43.27L43.06 57.67L27.22 57.67L27.22 64.01L43.06 64.01L43.06 80.42L23.04 80.42L23.04 86.83L69.19 86.83L69.19 80.42Z"/></svg>
