<svg xmlns="http://www.w3.org/2000/svg" xmlns:xlink="http://www.w3.org/1999/xlink" width="72.00000000000001" height="106.56000000000002"><path fill="red" stroke="red" d="M18.86 23.47C14.98 34.20 8.57 44.86 1.73 51.70C2.81 53.42 4.75 57.10 5.40 58.82C7.42 56.66 9.50 54.14 11.45 51.41L11.45 89.06L17.93 89.06L17.93 41.18C20.74 36.14 23.26 30.74 25.27 25.42ZM59.26 61.13C56.81 65.74 53.42 69.55 49.32 72.72C46.87 70.06 43.27 66.89 40.03 64.44C41.33 63.36 42.70 62.28 43.99 61.13ZM54.72 35.28C52.06 38.59 48.74 41.40 44.86 43.85C42.62 41.83 39.38 39.31 36.43 37.30C37.30 36.65 38.02 36.00 38.81 35.28ZM63.86 55.15L62.64 55.51L49.46 55.51C50.90 53.86 52.13 52.27 53.28 50.62L47.16 49.46C54.43 45.07 60.55 39.38 64.30 31.97L59.90 29.52L58.75 29.88L44.35 29.88C45.94 28.08 47.38 26.35 48.60 24.55L41.83 23.18C38.02 28.66 31.03 34.99 21.53 39.53C23.04 40.46 24.98 42.62 25.99 44.06C27.94 43.06 29.81 41.90 31.54 40.75C34.27 42.77 37.22 45.14 39.17 47.09C33.70 49.75 27.58 51.70 21.60 52.92C22.90 54.14 24.34 56.59 24.98 58.10C32.04 56.45 39.10 53.86 45.36 50.47C41.04 56.52 33.48 62.93 22.90 67.46C24.34 68.47 26.35 70.70 27.22 72.29C30.10 70.85 32.76 69.41 35.14 67.82C38.38 70.42 41.76 73.66 43.99 76.25C37.15 80.14 29.16 82.66 20.81 84.02C22.03 85.39 23.47 87.77 24.05 89.50C43.78 85.54 61.20 76.75 68.33 57.38Z"/></svg>
