<svg xmlns="http://www.w3.org/2000/svg" xmlns:xlink="http://www.w3.org/1999/xlink" width="72.00000000000001" height="106.56000000000002"><path fill="red" stroke="red" d="M68.18 38.95C66.96 35.42 64.01 29.88 61.34 25.78L56.38 27.86C58.97 32.11 61.85 37.80 62.93 41.33ZM61.13 53.78C59.62 57.74 57.74 61.49 55.58 64.94C54.94 60.84 54.50 56.02 54.14 50.83L67.75 50.83L67.75 45.00L53.86 45.00C53.57 38.45 53.42 31.32 53.57 23.98L47.02 23.98C47.02 31.18 47.16 38.30 47.52 45.00L37.15 45.00L37.15 33.34C40.54 32.40 43.70 31.25 46.51 30.02L41.62 24.91C36.50 27.43 27.94 29.95 20.09 31.75C21.02 29.52 21.82 27.36 22.54 25.20L16.27 23.40C12.96 34.20 7.49 44.86 1.51 51.84C2.52 53.50 4.25 57.24 4.82 58.90C6.77 56.59 8.78 53.86 10.58 50.98L10.58 89.21L16.92 89.21L16.92 39.24C17.93 37.08 18.86 34.99 19.66 32.76C20.38 34.20 21.10 35.93 21.31 37.08C24.34 36.50 27.65 35.86 30.89 35.06L30.89 45.00L19.37 45.00L19.37 50.83L30.89 50.83L30.89 62.14C26.42 63.22 22.32 64.15 19.08 64.87L20.66 71.35L30.89 68.69L30.89 81.58C30.89 82.66 30.53 82.94 29.52 83.02C28.51 83.09 25.06 83.09 21.60 82.94C22.46 84.67 23.33 87.48 23.62 89.14C28.58 89.14 32.11 88.99 34.27 87.91C36.43 86.98 37.15 85.18 37.15 81.65L37.15 66.96C40.32 66.10 43.49 65.23 46.66 64.44L45.94 58.39L37.15 60.62L37.15 50.83L47.81 50.83C48.31 58.75 49.10 65.95 50.33 72.00C46.80 76.03 42.77 79.49 38.45 82.15C39.67 83.30 41.90 85.68 42.77 86.90C46.08 84.60 49.25 81.94 52.13 78.91C54.29 85.46 57.38 89.35 61.70 89.35C66.89 89.35 68.69 86.18 69.62 75.31C68.11 74.66 66.02 73.15 64.73 71.78C64.44 79.63 63.79 82.94 62.50 82.94C60.26 82.94 58.46 79.34 57.02 73.15C61.06 67.90 64.44 61.85 67.10 55.37Z"/></svg>
