<svg xmlns="http://www.w3.org/2000/svg" xmlns:xlink="http://www.w3.org/1999/xlink" width="72.00000000000001" height="106.56000000000002"><path fill="red" stroke="red" d="M16.27 23.47C13.18 34.20 8.21 44.78 2.38 51.91C3.53 53.57 5.33 57.31 5.83 58.97C7.49 56.88 9.07 54.58 10.66 52.13L10.66 89.21L16.99 89.21L16.99 39.89C19.15 35.14 21.02 30.10 22.54 25.13ZM29.16 70.34C29.30 68.54 29.30 66.74 29.30 65.16L29.30 65.09L38.38 65.09L38.38 70.34ZM38.38 55.22L38.38 60.19L29.30 60.19L29.30 55.22ZM43.85 49.97L23.54 49.97L23.54 65.09C23.54 71.50 23.26 79.78 19.51 85.82C20.81 86.47 23.47 88.27 24.48 89.35C26.86 85.39 28.08 80.35 28.73 75.31L38.38 75.31L38.38 82.51C38.38 83.16 38.16 83.30 37.51 83.38C36.86 83.38 35.06 83.45 32.90 83.38C33.70 84.82 34.49 87.34 34.70 88.92C38.02 88.92 40.18 88.78 41.83 87.77C43.49 86.90 43.85 85.18 43.85 82.58ZM59.11 82.15C59.11 83.02 58.90 83.23 57.89 83.23C56.95 83.30 54.00 83.30 50.90 83.23C51.62 84.82 52.42 87.34 52.63 88.92C57.02 88.92 60.12 88.78 62.14 87.84C64.15 86.90 64.66 85.25 64.66 82.22L64.66 48.82L59.11 48.82ZM54.07 51.55L48.82 51.55L48.82 77.40L54.07 77.40ZM44.50 22.75C39.24 30.02 29.23 36.58 19.87 40.25C21.38 41.62 23.11 43.70 24.12 45.22C26.14 44.35 28.15 43.27 30.24 42.12L30.24 45.94L57.38 45.94L57.38 40.68L32.69 40.68C37.08 37.94 41.26 34.70 44.78 31.18C50.83 36.94 57.53 40.90 65.09 44.21C65.88 42.48 67.61 40.39 69.05 39.10C61.27 36.22 54.14 32.83 48.17 27.36C48.74 26.64 49.32 25.92 49.82 25.20Z"/></svg>
