<svg xmlns="http://www.w3.org/2000/svg" xmlns:xlink="http://www.w3.org/1999/xlink" width="72.00000000000001" height="106.56000000000002"><path fill="red" stroke="red" d="M18.65 23.47C14.98 33.91 8.78 44.42 2.23 51.12C3.38 52.70 5.26 56.30 5.90 57.96C7.70 55.94 9.43 53.78 11.23 51.34L11.23 89.06L17.57 89.06L17.57 41.33C20.38 36.22 22.97 30.82 24.91 25.34ZM40.90 51.41C41.54 53.28 42.12 55.51 42.55 57.38L24.26 57.38L24.26 63.00L35.21 63.00C34.34 73.37 31.82 80.57 20.74 84.67C22.25 85.68 24.12 87.98 24.77 89.50C33.34 86.11 37.58 81.07 39.82 74.30L56.16 74.30C55.58 79.99 54.86 82.51 54.07 83.38C53.50 83.88 52.85 83.95 51.62 83.95C50.54 83.95 47.59 83.95 44.50 83.66C45.50 85.18 46.15 87.55 46.30 89.28C49.82 89.42 53.14 89.42 54.86 89.21C57.02 89.06 58.39 88.56 59.83 87.34C61.56 85.46 62.42 81.22 63.22 71.28L63.43 68.83L41.18 68.83C41.47 66.96 41.69 65.09 41.90 63.00L66.31 63.00L66.31 57.38L49.61 57.38C49.18 55.30 48.31 52.63 47.45 50.54ZM57.31 43.27C58.32 41.11 59.33 38.52 60.41 36.07L54.29 35.06L65.95 35.06L65.95 29.66L49.75 29.66C49.32 27.50 48.53 24.70 47.66 22.54L41.11 23.33C41.69 25.27 42.26 27.65 42.70 29.66L24.77 29.66L24.77 35.06L53.35 35.06C52.70 37.44 51.62 40.75 50.62 43.27L40.61 43.27C40.25 41.18 39.10 37.80 37.87 35.14L31.68 36.22C32.54 38.38 33.41 41.18 33.84 43.27L23.18 43.27L23.18 55.22L29.66 55.22L29.66 48.60L61.06 48.60L61.06 55.08L67.82 55.08L67.82 43.27Z"/></svg>
