<svg xmlns="http://www.w3.org/2000/svg" xmlns:xlink="http://www.w3.org/1999/xlink" width="72.00000000000001" height="106.56000000000002"><path fill="red" stroke="red" d="M19.44 48.89L52.63 48.89L52.63 58.75L19.44 58.75ZM50.33 82.15C47.59 82.15 47.02 81.79 47.02 79.56L47.02 64.73L59.54 64.73L59.54 42.98L39.17 42.98L39.17 35.93L67.03 35.93L67.03 29.88L39.17 29.88L39.17 23.11L32.40 23.11L32.40 29.88L5.26 29.88L5.26 35.93L32.40 35.93L32.40 42.98L12.96 42.98L12.96 64.73L23.40 64.73C22.03 74.16 18.79 80.06 3.02 83.23C4.46 84.60 6.26 87.48 6.91 89.35C24.70 85.10 29.02 77.04 30.60 64.73L40.25 64.73L40.25 79.70C40.25 86.47 42.05 88.49 49.46 88.49L59.83 88.49C66.38 88.49 68.18 85.75 68.98 74.66C67.10 74.16 64.22 73.08 62.71 71.93C62.42 80.78 61.99 82.15 59.26 82.15Z"/></svg>
