<svg xmlns="http://www.w3.org/2000/svg" xmlns:xlink="http://www.w3.org/1999/xlink" width="72.00000000000001" height="106.56000000000002"><path fill="red" stroke="red" d="M64.44 28.58L49.18 28.58L49.18 34.78L57.82 34.78L57.82 55.87L49.18 55.87L49.18 62.06L64.44 62.06ZM41.18 43.49L30.24 43.49L30.24 36.00L41.18 36.00ZM41.18 56.02L30.24 56.02L30.24 48.38L41.18 48.38ZM24.62 30.82L24.62 61.20L47.09 61.20L47.09 30.82L37.15 30.82C38.02 28.73 38.88 26.28 39.82 23.83L32.90 22.82C32.47 25.20 31.54 28.22 30.67 30.82ZM14.69 54.65L14.69 34.70C18.29 33.34 21.96 31.68 25.13 29.88L20.09 24.98C17.14 27.14 12.38 29.74 8.14 31.61L8.14 54.36C8.14 57.31 6.48 58.82 5.18 59.54C6.26 60.91 7.56 63.72 7.99 65.30C9.22 64.22 11.30 63.07 24.05 57.24C23.62 55.80 23.18 53.06 23.11 51.12ZM23.54 63.58C22.46 74.09 19.73 80.42 3.38 83.59C4.82 84.96 6.48 87.62 7.13 89.42C25.42 85.18 29.16 76.90 30.53 63.58ZM50.98 82.22C48.24 82.22 47.81 81.86 47.81 79.78L47.81 63.58L40.97 63.58L40.97 79.85C40.97 86.47 42.77 88.49 50.11 88.49L60.12 88.49C66.38 88.49 68.18 85.82 68.98 75.02C67.10 74.52 64.22 73.44 62.78 72.36C62.50 80.93 62.06 82.22 59.47 82.22Z"/></svg>
