<svg xmlns="http://www.w3.org/2000/svg" xmlns:xlink="http://www.w3.org/1999/xlink" width="72.00000000000001" height="106.56000000000002"><path fill="red" stroke="red" d="M11.95 48.31L26.06 48.31L26.06 56.95L11.95 56.95ZM27.86 75.10L27.86 62.42L32.54 62.42L32.54 42.84L22.61 42.84L22.61 35.86L33.77 35.86L33.77 30.10L22.61 30.10L22.61 23.18L15.84 23.18L15.84 30.10L3.89 30.10L3.89 35.86L15.84 35.86L15.84 42.84L5.83 42.84L5.83 62.42L10.58 62.42C10.22 73.01 9.00 80.06 2.09 84.31C3.53 85.46 5.33 87.84 6.19 89.50C14.47 84.10 16.20 75.17 16.70 62.42L22.03 62.42L22.03 75.02C22.03 78.12 20.59 79.85 19.44 80.50C20.38 81.65 21.67 84.02 22.10 85.46C23.33 84.10 25.20 82.87 36.72 76.39C36.29 75.24 35.57 72.86 35.35 71.28ZM44.06 48.24L59.47 48.24L59.47 57.10L44.06 57.10ZM60.70 82.15C60.19 82.15 59.69 82.01 59.40 81.72C59.18 81.50 59.04 81.07 59.04 80.64L59.04 62.57L66.02 62.57L66.02 42.77L55.15 42.77L55.15 35.86L67.90 35.86L67.90 30.10L55.15 30.10L55.15 23.18L48.17 23.18L48.17 30.10L36.50 30.10L36.50 35.86L48.17 35.86L48.17 42.77L37.87 42.77L37.87 62.57L42.26 62.57C41.90 74.45 40.54 80.57 31.82 84.38C33.19 85.54 34.99 87.98 35.64 89.64C45.86 84.74 47.81 76.61 48.24 62.57L53.14 62.57L53.14 80.78C53.14 84.67 53.35 85.82 54.58 86.90C55.66 87.98 57.46 88.42 58.97 88.42L62.86 88.42C64.30 88.42 65.81 88.06 66.82 87.41C67.90 86.69 68.54 85.75 68.98 84.10C69.41 82.58 69.70 78.62 69.84 74.88C68.18 74.30 66.02 73.15 64.80 72.07C64.87 75.67 64.73 78.84 64.66 80.06C64.44 80.78 64.22 81.43 63.86 81.79C63.58 82.01 62.93 82.15 62.35 82.15Z"/></svg>
