<svg xmlns="http://www.w3.org/2000/svg" xmlns:xlink="http://www.w3.org/1999/xlink" width="72.00000000000001" height="106.56000000000002"><path fill="red" stroke="red" d="M31.32 65.59L31.32 59.83L39.74 59.83L39.74 65.59ZM31.32 49.03L39.74 49.03L39.74 54.22L31.32 54.22ZM31.32 38.38L39.74 38.38L39.74 43.78L31.32 43.78ZM54.58 49.03L54.58 54.22L46.22 54.22L46.22 49.03ZM54.58 65.59L46.22 65.59L46.22 59.83L54.58 59.83ZM61.06 70.78L61.06 59.83L68.11 59.83L68.11 54.22L61.06 54.22L61.06 43.78L46.22 43.78L46.22 38.38L66.89 38.38L66.89 32.83L52.20 32.83C54.22 30.60 56.38 27.94 58.39 25.34L51.19 23.04C49.54 25.99 46.58 29.95 44.06 32.83L25.70 32.83L28.37 31.54C26.71 29.02 23.33 25.42 20.45 22.97L14.40 25.70C16.63 27.79 19.22 30.53 20.81 32.83L5.26 32.83L5.26 38.38L24.84 38.38L24.84 43.78L10.51 43.78L10.51 49.03L24.84 49.03L24.84 54.22L4.10 54.22L4.10 59.83L24.84 59.83L24.84 65.59L9.79 65.59L9.79 70.78L21.31 70.78C16.56 75.89 9.50 80.42 2.95 82.94C4.46 84.17 6.34 86.54 7.34 88.06C13.46 85.32 19.87 80.71 24.84 75.46L24.84 89.21L31.32 89.21L31.32 70.78L39.74 70.78L39.74 89.21L46.22 89.21L46.22 74.66C51.48 80.14 58.39 85.03 64.73 87.77C65.74 86.11 67.68 83.66 69.19 82.44C62.42 80.06 55.08 75.67 49.90 70.78Z"/></svg>
