<svg xmlns="http://www.w3.org/2000/svg" xmlns:xlink="http://www.w3.org/1999/xlink" width="72.00000000000001" height="106.56000000000002"><path fill="red" stroke="red" d="M12.82 34.49L59.26 34.49L59.26 46.80L66.46 46.80L66.46 27.94L5.90 27.94L5.90 46.80L12.82 46.80ZM54.07 81.72C52.13 81.72 51.70 81.22 51.70 78.62L51.70 45.94L20.02 45.94L20.02 60.34C20.02 68.62 18.22 77.33 2.81 83.38C4.10 84.46 6.34 87.55 7.06 89.21C23.90 82.51 27.07 70.70 27.07 60.55L27.07 52.20L44.64 52.20L44.64 78.62C44.64 86.26 46.66 88.34 52.92 88.34L60.62 88.34C66.89 88.34 68.54 84.67 69.19 72.36C67.32 71.86 64.37 70.56 62.78 69.26C62.50 79.78 62.14 81.72 60.12 81.72Z"/></svg>
