<svg xmlns="http://www.w3.org/2000/svg" xmlns:xlink="http://www.w3.org/1999/xlink" width="72.00000000000001" height="106.56000000000002"><path fill="red" stroke="red" d="M6.98 30.38L6.98 36.94L31.10 36.94C30.67 42.41 29.95 49.46 27.58 56.59C23.33 52.99 17.28 48.31 12.89 44.78L8.57 49.32C13.68 53.57 20.66 59.40 24.77 63.43C20.81 71.28 14.33 78.70 3.53 83.66C5.47 85.10 7.56 87.48 8.64 89.21C33.48 76.75 37.22 52.06 38.59 36.94L56.38 36.94C55.44 66.02 54.29 77.83 51.84 80.28C51.05 81.29 50.18 81.58 48.67 81.58C46.94 81.58 42.55 81.58 37.80 81.14C39.24 83.23 40.10 86.33 40.25 88.34C44.50 88.56 48.96 88.70 51.62 88.27C54.50 87.91 56.30 87.12 58.18 84.60C61.27 80.71 62.28 68.54 63.43 33.98C63.43 32.98 63.50 30.38 63.50 30.38Z"/></svg>
