<svg xmlns="http://www.w3.org/2000/svg" xmlns:xlink="http://www.w3.org/1999/xlink" width="72.00000000000001" height="106.56000000000002"><path fill="red" stroke="red" d="M20.38 53.57L20.38 60.48L11.38 60.48C11.66 58.32 12.02 55.87 12.24 53.57ZM26.35 40.32L34.78 40.32L34.78 48.02L26.35 48.02ZM26.35 60.48L26.35 53.57L40.68 53.57L40.68 34.78L33.34 34.78C34.99 31.82 36.65 28.30 38.30 24.91L32.04 23.11C30.96 26.57 28.87 31.39 27.14 34.78L18.22 34.78L20.30 33.84C19.44 30.96 17.35 26.64 15.05 23.47L9.86 25.49C11.74 28.22 13.46 31.90 14.40 34.78L5.18 34.78L5.18 40.32L20.38 40.32L20.38 48.02L7.13 48.02C6.62 53.86 5.76 61.27 4.90 66.02L17.78 66.02C14.04 71.71 8.28 76.90 2.52 79.70C3.96 80.86 5.90 83.16 6.84 84.60C11.81 81.79 16.56 77.26 20.38 72.07L20.38 89.21L26.35 89.21L26.35 66.02L35.71 66.02C35.35 73.08 34.85 75.82 34.13 76.68C33.77 77.33 33.19 77.40 32.33 77.40C31.46 77.40 29.74 77.33 27.72 77.11C28.51 78.77 29.02 81.22 29.16 83.09C31.68 83.16 34.06 83.09 35.35 82.94C37.01 82.66 38.02 82.15 39.10 80.93C40.54 79.20 41.11 74.30 41.62 62.86C41.69 62.06 41.76 60.48 41.76 60.48ZM53.06 30.82L46.94 30.82L46.94 70.42L53.06 70.42ZM59.76 23.40L59.76 80.71C59.76 82.01 59.33 82.37 58.10 82.37C56.95 82.44 53.21 82.44 49.10 82.30C49.97 84.10 50.98 87.12 51.19 88.85C57.02 88.92 60.70 88.70 63.00 87.55C65.23 86.54 66.10 84.60 66.10 80.78L66.10 23.40Z"/></svg>
