<svg xmlns="http://www.w3.org/2000/svg" xmlns:xlink="http://www.w3.org/1999/xlink" width="72.00000000000001" height="106.56000000000002"><path fill="red" stroke="red" d="M55.01 47.66L38.88 47.66L38.88 44.14L55.01 44.14ZM38.88 55.15L38.88 51.77L55.01 51.77L55.01 55.15ZM16.63 55.15L16.63 51.77L32.69 51.77L32.69 55.15ZM32.69 44.14L32.69 47.66L16.63 47.66L16.63 44.14ZM20.52 36.22C24.62 37.15 29.59 38.45 33.98 39.74L10.44 39.74L10.44 65.95L16.63 65.95L16.63 59.18L32.69 59.18L32.69 63.79L38.88 63.79L38.88 59.18L55.01 59.18L55.01 60.70C55.01 61.63 54.65 61.92 53.64 61.92C52.70 61.92 49.25 61.99 45.94 61.85C46.66 63.14 47.66 64.94 48.10 66.38C52.99 66.38 56.23 66.38 58.46 65.66C60.70 64.94 61.42 63.86 61.42 60.91L61.42 39.74L43.99 39.74L45.14 38.30L43.42 37.73C49.61 35.42 55.94 32.47 60.84 29.45L56.59 25.70L55.22 26.06L9.14 26.06L9.14 31.18L46.80 31.18C43.42 32.83 39.46 34.42 35.78 35.64C31.68 34.56 27.29 33.55 23.76 32.83ZM37.51 68.98C37.80 67.75 38.09 66.46 38.30 65.09L31.61 65.09C31.39 66.46 31.10 67.75 30.67 68.98L7.99 68.98L7.99 74.38L28.08 74.38C24.55 79.13 17.93 82.15 4.39 83.95C5.47 85.25 6.98 87.84 7.49 89.42C24.34 86.83 31.90 82.01 35.57 74.38L55.87 74.38C55.08 79.42 54.22 81.79 53.21 82.73C52.63 83.30 51.91 83.38 50.54 83.38C49.10 83.38 45.50 83.30 41.90 82.94C42.91 84.60 43.63 86.98 43.78 88.70C47.66 88.92 51.48 88.92 53.42 88.78C55.66 88.63 57.24 88.20 58.75 86.90C60.62 85.03 61.92 80.86 63.14 71.64C63.22 70.70 63.43 68.98 63.43 68.98Z"/></svg>
