<svg xmlns="http://www.w3.org/2000/svg" xmlns:xlink="http://www.w3.org/1999/xlink" width="72.00000000000001" height="106.56000000000002"><path fill="red" stroke="red" d="M31.54 32.11L40.97 32.11L40.97 27.22L31.54 27.22L31.54 23.04L25.49 23.04L25.49 36.14L31.54 36.14ZM33.84 46.80L27.94 46.80L27.94 41.18L33.84 41.18ZM38.23 37.44L23.69 37.44L23.69 50.54L38.23 50.54ZM12.53 36.14L18.50 36.14L18.50 23.04L12.53 23.04L12.53 27.22L2.81 27.22L2.81 32.18L12.53 32.18ZM14.33 76.82L22.54 76.82L22.54 81.07L14.33 81.07ZM22.54 64.22L14.33 64.22L14.33 60.62L22.54 60.62ZM22.54 72.43L14.33 72.43L14.33 68.69L22.54 68.69ZM9.86 41.18L15.77 41.18L15.77 46.87L9.86 46.87ZM66.67 38.88L53.78 38.88C53.86 34.06 53.93 29.09 53.93 23.98L47.81 23.98C47.81 29.16 47.81 34.06 47.74 38.88L40.25 38.88L40.25 44.93L47.52 44.93C47.02 60.48 45.07 73.51 38.16 82.58L38.16 81.07L28.22 81.07L28.22 76.82L37.73 76.82L37.73 72.43L28.22 72.43L28.22 68.69L37.22 68.69L37.22 64.22L28.22 64.22L28.22 60.62L38.66 60.62L38.66 55.94L28.66 55.94C28.08 54.29 26.86 52.27 25.70 50.62L21.10 52.42C21.82 53.50 22.54 54.72 23.11 55.94L15.19 55.94C15.84 54.65 16.49 53.28 17.06 51.98L12.46 50.54L20.23 50.54L20.23 37.44L5.62 37.44L5.62 50.54L12.24 50.54C10.01 56.16 6.26 61.70 2.38 65.52C3.31 66.53 4.97 69.05 5.47 70.06C6.62 68.90 7.78 67.54 8.93 66.02L8.93 89.21L14.33 89.21L14.33 85.82L36.94 85.82C38.30 86.90 39.96 88.49 40.75 89.71C50.26 79.49 52.85 63.72 53.57 44.93L60.62 44.93C60.12 69.84 59.47 78.77 58.10 80.64C57.53 81.65 56.88 81.86 55.80 81.86C54.72 81.86 52.20 81.86 49.54 81.58C50.47 83.30 51.12 85.82 51.26 87.55C54.14 87.70 56.95 87.70 58.82 87.41C60.84 87.12 62.14 86.47 63.50 84.53C65.52 81.58 66.02 71.64 66.67 41.90Z"/></svg>
