<svg xmlns="http://www.w3.org/2000/svg" xmlns:xlink="http://www.w3.org/1999/xlink" width="72.00000000000001" height="106.56000000000002"><path fill="red" stroke="red" d="M15.77 32.62L67.82 32.62L67.82 26.50L9.22 26.50L9.22 47.81C9.22 59.04 8.64 74.81 2.45 85.82C4.10 86.47 7.06 88.06 8.28 89.21C14.83 77.47 15.77 59.83 15.77 47.81ZM27.94 48.10L54.58 48.10L54.58 52.06L27.94 52.06ZM27.94 40.18L54.58 40.18L54.58 43.99L27.94 43.99ZM61.20 56.38L61.20 35.86L21.60 35.86L21.60 56.38ZM68.62 71.35L45.00 71.35L45.00 70.78C51.19 68.83 57.46 66.02 62.28 63.07L58.25 59.47L56.81 59.76L21.24 59.76L21.24 64.51L48.74 64.51C45.50 65.95 41.83 67.32 38.52 68.26L38.52 71.35L15.77 71.35L15.77 76.61L38.52 76.61L38.52 82.22C38.52 83.16 38.16 83.38 36.94 83.45C35.86 83.52 31.32 83.52 27.07 83.30C27.94 84.82 29.02 87.12 29.38 88.70C35.14 88.78 39.02 88.70 41.62 87.91C44.21 87.12 45.00 85.54 45.00 82.37L45.00 76.61L68.62 76.61Z"/></svg>
