<svg xmlns="http://www.w3.org/2000/svg" xmlns:xlink="http://www.w3.org/1999/xlink" width="72.00000000000001" height="106.56000000000002"><path fill="red" stroke="red" d="M51.19 56.02C48.82 61.78 45.36 66.74 41.11 70.78C36.36 66.74 32.62 61.70 29.95 56.02ZM55.51 49.25L54.22 49.54L27.58 49.54C28.15 46.58 28.66 43.63 29.02 40.97L66.96 40.97L66.96 34.49L29.88 34.49C30.38 29.45 30.53 25.49 30.67 23.04L23.76 23.04C23.62 25.13 23.54 29.23 23.04 34.49L5.18 34.49L5.18 40.97L22.18 40.97C20.23 54.43 15.26 71.86 2.59 82.15C4.82 83.38 7.06 85.10 8.35 86.76C16.56 79.56 21.67 69.55 24.91 59.47C27.86 65.45 31.54 70.63 36.00 74.95C30.46 78.91 23.98 81.72 17.06 83.45C18.36 84.89 20.02 87.41 20.88 89.21C28.37 86.90 35.28 83.74 41.33 79.27C47.66 83.88 55.37 87.05 64.51 89.06C65.45 87.19 67.32 84.38 68.83 82.94C60.05 81.43 52.70 78.70 46.58 74.88C52.63 68.83 57.31 61.20 59.98 51.19Z"/></svg>
