<svg xmlns="http://www.w3.org/2000/svg" xmlns:xlink="http://www.w3.org/1999/xlink" width="72.00000000000001" height="106.56000000000002"><path fill="red" stroke="red" d="M24.62 79.56L24.62 64.44L54.29 64.44L54.29 79.56ZM50.83 36.29C46.94 41.76 41.62 46.44 35.50 50.40C32.11 47.16 26.57 42.84 22.03 39.60C23.33 38.52 24.62 37.44 25.92 36.29ZM61.20 58.39L35.06 58.39C46.08 52.06 55.44 43.49 60.91 32.54L56.30 29.81L55.22 30.17L31.82 30.17C33.41 28.30 34.85 26.35 36.22 24.41L28.58 22.82C24.34 29.59 16.27 37.22 4.68 42.48C6.19 43.63 8.35 46.15 9.29 47.81C11.95 46.44 14.40 45.00 16.70 43.49C21.02 46.73 26.06 50.83 29.30 54.07C21.17 58.32 12.10 61.42 3.17 63.22C4.39 64.73 5.90 67.54 6.62 69.41C10.37 68.47 14.18 67.39 17.93 66.17L17.93 89.14L24.62 89.14L24.62 85.68L54.29 85.68L54.29 89.14L61.20 89.14Z"/></svg>
