<svg xmlns="http://www.w3.org/2000/svg" xmlns:xlink="http://www.w3.org/1999/xlink" width="72.00000000000001" height="106.56000000000002"><path fill="red" stroke="red" d="M69.26 37.08C67.90 33.91 64.80 29.02 62.06 25.34L57.02 27.36C59.76 31.18 62.64 36.29 63.94 39.53ZM17.06 33.55L17.06 66.24L10.80 66.24L10.80 33.55ZM22.46 28.22L5.18 28.22L5.18 78.34L10.80 78.34L10.80 71.64L22.46 71.64ZM61.63 52.56C60.34 56.74 58.61 60.77 56.59 64.44C56.09 60.19 55.66 55.30 55.30 50.11L68.83 50.11L68.83 44.06L55.08 44.06C54.86 37.58 54.79 30.67 54.86 23.54L48.82 23.54C48.89 30.53 48.96 37.44 49.25 44.06L39.17 44.06L39.17 32.47C42.48 31.39 45.65 30.17 48.24 28.94L43.42 24.26C38.88 26.86 30.89 29.59 23.83 31.32C24.55 32.62 25.42 34.78 25.70 36.14C28.08 35.57 30.60 34.99 33.12 34.27L33.12 44.06L23.83 44.06L23.83 50.11L33.12 50.11L33.12 61.49C29.52 62.28 26.21 62.93 23.47 63.50L24.70 69.70L33.12 67.61L33.12 81.58C33.12 82.66 32.76 82.94 31.75 83.02C30.67 83.02 27.29 83.02 23.69 82.94C24.55 84.67 25.56 87.55 25.78 89.28C30.74 89.28 34.13 89.06 36.22 87.98C38.38 86.98 39.17 85.18 39.17 81.58L39.17 66.24C42.05 65.52 45.00 64.73 47.88 64.08L47.30 58.39L39.17 60.19L39.17 50.11L49.46 50.11C49.90 58.32 50.69 65.81 51.77 71.93C48.38 76.54 44.42 80.42 40.10 83.52C41.26 84.60 43.27 87.05 44.06 88.27C47.45 85.68 50.62 82.58 53.57 79.13C55.51 85.54 58.32 89.35 62.42 89.35C67.10 89.35 68.76 86.33 69.70 76.54C68.33 75.89 66.46 74.52 65.16 73.08C64.94 80.21 64.30 83.09 63.07 83.16C61.06 83.16 59.33 79.42 57.96 73.01C61.78 67.39 64.94 60.98 67.39 54.00Z"/></svg>
