<svg xmlns="http://www.w3.org/2000/svg" xmlns:xlink="http://www.w3.org/1999/xlink" width="72.00000000000001" height="106.56000000000002"><path fill="red" stroke="red" d="M16.42 65.30L10.44 65.30L10.44 34.06L16.42 34.06ZM32.47 23.26C30.60 30.89 26.86 40.18 21.67 46.87L21.67 28.08L5.26 28.08L5.26 77.90L10.44 77.90L10.44 71.28L21.67 71.28L21.67 53.28C22.18 54.00 22.61 54.65 22.97 55.15C24.34 53.64 25.78 51.98 27.07 50.18L27.07 89.21L33.19 89.21L33.19 39.89C35.57 34.99 37.58 29.74 39.02 24.98ZM68.69 39.24L61.78 39.24C62.28 35.21 62.71 30.74 63.00 26.64L58.46 26.14L57.46 26.50L41.54 26.50L41.54 32.04L56.52 32.04C56.23 34.27 56.02 36.86 55.66 39.24L36.36 39.24L36.36 44.93L68.69 44.93ZM68.62 70.63L68.62 65.02L55.30 65.02L55.30 64.01L55.30 57.02L67.10 57.02L67.10 51.62L46.37 51.62C47.16 49.75 47.66 47.95 48.17 46.15L42.34 44.93C41.18 50.18 38.52 56.74 34.70 60.77C36.00 61.49 38.02 63.00 39.17 63.94C41.04 62.06 42.55 59.62 43.99 57.02L49.10 57.02L49.10 63.94L49.10 65.02L35.14 65.02L35.14 70.63L48.38 70.63C47.16 75.60 43.78 81.00 34.99 84.89C36.43 86.04 38.23 87.98 39.17 89.35C49.54 84.10 53.35 77.11 54.65 70.63ZM53.78 75.02C57.38 79.34 61.99 85.25 64.15 88.70L69.19 85.54C66.82 82.15 62.14 76.39 58.54 72.36Z"/></svg>
