<svg xmlns="http://www.w3.org/2000/svg" xmlns:xlink="http://www.w3.org/1999/xlink" width="72.00000000000001" height="106.56000000000002"><path fill="red" stroke="red" d="M17.71 35.86L17.71 64.22L11.09 64.22L11.09 35.86ZM23.47 70.42L23.47 29.66L5.40 29.66L5.40 77.04L11.09 77.04L11.09 70.42ZM34.34 54.22L34.34 49.39L43.78 49.39L43.78 54.22ZM58.90 49.39L58.90 54.22L50.04 54.22L50.04 49.39ZM40.03 33.62L53.42 33.62L53.42 37.66L40.03 37.66ZM67.90 76.25L67.90 71.14L49.25 71.14C49.54 69.91 49.75 68.69 49.90 67.39L65.09 67.39L65.09 62.28L50.04 62.28L50.04 58.68L64.87 58.68L64.87 44.93L50.04 44.93L50.04 42.05L59.62 42.05L59.62 33.62L68.18 33.62L68.18 28.44L59.62 28.44L59.62 23.11L53.42 23.11L53.42 28.44L40.03 28.44L40.03 23.11L34.13 23.11L34.13 28.44L25.92 28.44L25.92 33.62L34.13 33.62L34.13 42.05L43.78 42.05L43.78 44.93L28.66 44.93L28.66 58.68L43.78 58.68L43.78 62.28L28.44 62.28L28.44 67.39L43.56 67.39C43.49 68.69 43.20 69.91 42.84 71.14L25.27 71.14L25.27 76.25L40.18 76.25C37.30 79.70 32.11 82.58 23.04 84.24C24.34 85.46 26.06 87.98 26.78 89.28C38.38 86.54 44.50 81.86 47.45 76.25ZM48.60 80.78C54.36 83.02 61.99 86.69 65.74 89.06L68.90 84.24C64.94 81.79 57.24 78.41 51.70 76.39Z"/></svg>
