<svg xmlns="http://www.w3.org/2000/svg" xmlns:xlink="http://www.w3.org/1999/xlink" width="72.00000000000001" height="106.56000000000002"><path fill="red" stroke="red" d="M32.40 34.63L11.02 34.63L11.02 38.88L61.06 38.88L61.06 34.63L39.17 34.63L39.17 31.46L66.82 31.46L66.82 27.07L39.17 27.07L39.17 23.04L32.40 23.04L32.40 27.07L5.47 27.07L5.47 31.46L32.40 31.46ZM65.16 53.71C66.17 50.76 67.39 46.30 68.33 42.34L63.72 41.47L62.64 41.69L4.68 41.69L4.68 46.44L60.98 46.44C60.48 48.74 59.90 50.98 59.47 52.70ZM9.50 55.87L9.50 59.69L62.35 59.69L62.35 55.87L39.02 55.87L39.02 52.85L56.16 52.85L56.16 49.10L14.98 49.10L14.98 52.85L32.47 52.85L32.47 55.87ZM24.84 74.59L24.84 81.00L14.40 81.00L14.40 74.59ZM30.82 70.20L8.64 70.20L8.64 87.84L14.40 87.84L14.40 85.46L30.82 85.46ZM68.98 67.32L68.98 62.35L3.02 62.35L3.02 67.32L53.78 67.32L53.78 70.99L33.26 70.99L33.26 75.67L39.53 75.67L35.64 78.48C38.02 80.57 40.82 83.59 41.98 85.68L46.51 82.22C45.22 80.28 42.62 77.62 40.25 75.67L53.78 75.67L53.78 83.45C53.78 84.17 53.57 84.31 52.85 84.31C52.13 84.31 49.75 84.31 47.38 84.24C48.10 85.75 48.74 87.62 49.10 89.21C52.92 89.21 55.66 89.21 57.53 88.42C59.47 87.62 59.98 86.40 59.98 83.59L59.98 75.67L66.53 75.67L66.53 70.99L59.98 70.99L59.98 67.32Z"/></svg>
