<svg xmlns="http://www.w3.org/2000/svg" xmlns:xlink="http://www.w3.org/1999/xlink" width="72.00000000000001" height="106.56000000000002"><path fill="red" stroke="red" d="M67.82 39.10L67.82 32.90L34.85 32.90C36.00 30.02 37.08 27.07 37.87 24.05L30.67 23.18C29.95 26.42 28.80 29.66 27.36 32.90L4.54 32.90L4.54 39.10L23.83 39.10C19.08 46.22 12.02 52.78 2.02 57.46C3.60 58.61 5.62 61.06 6.48 62.71C9.22 61.34 11.81 59.76 14.18 58.18L14.18 63.86L28.08 63.86C25.42 72.29 20.02 79.56 7.34 83.88C8.86 85.10 10.66 87.62 11.45 89.28C26.06 83.88 32.18 74.59 34.99 63.86L50.47 63.86C49.75 75.53 48.82 80.42 47.45 81.72C46.73 82.37 46.01 82.51 44.71 82.51C43.13 82.51 39.31 82.44 35.50 82.08C36.65 83.88 37.51 86.54 37.66 88.49C41.54 88.63 45.36 88.70 47.45 88.49C49.90 88.27 51.55 87.70 52.99 86.04C55.22 83.59 56.16 77.11 57.17 60.62C57.24 59.69 57.24 57.82 57.24 57.82L36.22 57.82C36.72 54.72 37.01 51.48 37.30 48.24L30.53 48.24C30.24 51.48 29.95 54.72 29.45 57.82L14.69 57.82C22.18 52.49 27.79 46.01 31.75 39.10L41.47 39.10C46.80 48.89 55.51 57.46 65.16 61.85C66.10 60.12 68.18 57.67 69.62 56.38C61.13 53.06 53.14 46.58 48.24 39.10Z"/></svg>
