<svg xmlns="http://www.w3.org/2000/svg" xmlns:xlink="http://www.w3.org/1999/xlink" width="72.00000000000001" height="106.56000000000002"><path fill="red" stroke="red" d="M24.26 44.28C24.05 50.90 23.18 58.82 19.37 66.60C16.78 64.37 14.18 62.28 11.66 60.34C12.96 55.73 14.40 50.40 15.62 44.86ZM33.70 43.63L33.77 37.58L30.60 37.80L30.60 33.19L24.26 33.19L24.26 38.09L17.14 38.52C18.14 33.48 19.08 28.51 19.73 23.90L13.18 23.40C12.60 28.15 11.74 33.48 10.66 38.81C7.78 38.95 5.04 39.10 2.74 39.17L3.46 45.65L9.22 45.29C7.78 51.55 6.05 57.60 4.46 62.06C8.14 64.94 12.31 68.47 16.27 71.93C13.10 76.39 8.86 80.57 2.95 84.31C4.32 85.39 6.62 87.62 7.63 89.14C13.46 85.32 17.93 81.00 21.10 76.46C23.90 79.20 26.42 81.79 28.22 83.88L32.33 78.62C30.38 76.39 27.65 73.80 24.55 70.99C29.45 61.63 30.46 51.91 30.60 43.85ZM59.11 34.78C57.53 45.36 54.72 54.50 50.90 62.06C47.09 54.07 44.50 44.71 42.77 34.78ZM61.99 28.37L60.70 28.66L33.77 28.66L33.77 34.78L42.34 34.78L36.43 35.78C38.74 48.38 41.98 59.62 46.80 68.98C42.12 75.89 36.29 80.93 29.66 84.17C31.18 85.32 33.05 87.70 34.06 89.35C40.39 85.90 45.94 81.29 50.54 75.24C54.36 80.86 58.97 85.61 64.51 89.06C65.66 87.26 67.90 84.60 69.48 83.38C63.58 80.06 58.68 75.10 54.79 69.05C60.55 59.11 64.51 46.15 66.31 29.59Z"/></svg>
