<svg xmlns="http://www.w3.org/2000/svg" xmlns:xlink="http://www.w3.org/1999/xlink" width="72.00000000000001" height="106.56000000000002"><path fill="red" stroke="red" d="M20.59 43.85C20.45 50.47 19.80 58.32 16.70 66.02C14.62 64.15 12.46 62.21 10.44 60.41C11.59 55.66 12.67 50.04 13.68 44.28ZM29.95 43.20L29.95 37.44L26.28 37.66L26.28 33.12L20.59 33.12L20.59 37.94L14.62 38.23C15.34 33.19 16.06 28.22 16.49 23.69L10.58 23.47C10.22 28.08 9.58 33.34 8.78 38.52L2.66 38.81L3.31 44.93L7.78 44.64C6.62 51.41 5.26 57.82 3.96 62.50C7.06 65.30 10.51 68.54 13.90 71.86C11.30 76.32 7.63 80.64 2.52 84.53C3.89 85.46 5.90 87.48 6.84 88.78C11.81 84.89 15.41 80.64 18.22 76.25C21.24 79.27 23.83 82.22 25.56 84.60L29.52 79.13C27.65 76.61 24.70 73.51 21.31 70.34C25.34 60.98 26.21 51.48 26.28 43.49ZM44.86 82.22C40.82 82.22 40.10 81.50 40.10 77.69L40.10 52.13L47.16 49.54L47.16 71.71L53.06 71.71L53.06 47.45L60.55 44.78C60.34 53.28 59.90 62.86 59.18 68.90L64.73 70.49C66.02 62.28 66.82 49.39 67.10 39.67L67.39 38.59L62.35 36.94L60.98 38.02L53.06 40.82L53.06 23.76L47.16 23.76L47.16 42.84L40.10 45.36L40.10 29.59L33.98 29.59L33.98 47.59L27.72 49.75L29.38 56.02L33.98 54.36L33.98 77.69C33.98 86.18 36.29 88.27 44.35 88.27L59.04 88.27C66.24 88.27 68.18 84.89 69.05 74.81C67.32 74.45 64.80 73.37 63.29 72.36C62.86 80.28 62.21 82.22 58.68 82.22Z"/></svg>
