<svg xmlns="http://www.w3.org/2000/svg" xmlns:xlink="http://www.w3.org/1999/xlink" width="72.00000000000001" height="106.56000000000002"><path fill="red" stroke="red" d="M19.87 43.99C19.80 50.47 19.15 58.03 16.42 65.59C14.47 63.86 12.38 62.21 10.51 60.62C11.59 55.80 12.74 50.26 13.82 44.35ZM29.59 43.34L29.59 37.44L25.63 37.66L25.63 33.19L19.87 33.19L19.87 38.02L14.76 38.23C15.48 33.19 16.13 28.22 16.56 23.69L10.58 23.47C10.22 28.15 9.58 33.34 8.78 38.52L2.66 38.81L3.31 45.00L7.78 44.71C6.62 51.41 5.26 57.82 3.96 62.50C7.06 65.09 10.51 68.11 13.82 71.21C11.30 75.96 7.70 80.50 2.52 84.67C3.96 85.61 6.05 87.62 7.06 88.99C12.10 84.82 15.62 80.21 18.36 75.53C20.74 77.76 22.75 79.92 24.19 81.79L27.86 76.46C26.28 74.59 23.90 72.29 21.17 69.77C24.84 60.70 25.56 51.34 25.63 43.63ZM61.20 46.01L61.20 57.53L38.66 57.53L38.66 55.66L38.66 46.01ZM38.66 33.12C49.25 32.33 60.91 30.96 69.26 28.87L65.30 23.47C57.24 25.56 43.85 27.22 32.33 27.94L32.33 55.66C32.33 65.45 31.75 77.54 25.42 85.97C27.07 86.69 29.88 88.42 30.96 89.64C36.14 82.73 37.87 72.79 38.45 63.79L61.20 63.79L61.20 68.26L67.54 68.26L67.54 39.82L38.66 39.82Z"/></svg>
