<svg xmlns="http://www.w3.org/2000/svg" xmlns:xlink="http://www.w3.org/1999/xlink" width="72.00000000000001" height="106.56000000000002"><path fill="red" stroke="red" d="M18.94 43.92C18.86 50.47 18.29 58.03 15.62 65.59C13.82 63.94 11.95 62.28 10.15 60.70C11.30 55.87 12.53 50.26 13.54 44.28ZM27.22 77.62C25.56 75.46 23.04 72.79 20.16 69.84C23.62 60.77 24.34 51.34 24.41 43.56L27.65 43.34L27.65 37.58L24.41 37.73L24.41 33.26L18.94 33.26L18.94 38.09L14.47 38.30C15.19 33.26 15.84 28.22 16.27 23.69L10.58 23.54C10.22 28.15 9.58 33.26 8.78 38.59C6.55 38.66 4.61 38.74 2.74 38.81L3.46 44.93L7.78 44.64C6.62 51.41 5.26 57.74 3.96 62.50C6.84 65.09 10.08 68.26 13.18 71.28C10.87 76.03 7.49 80.64 2.74 84.74C4.10 85.54 6.05 87.48 7.06 88.70C11.59 84.74 14.90 80.28 17.42 75.67C19.94 78.19 22.03 80.71 23.47 82.73ZM34.99 59.90C35.21 58.32 35.42 56.66 35.64 54.94L43.99 54.94C43.92 56.59 43.78 58.25 43.56 59.90ZM50.26 44.78L59.40 44.78L59.40 49.61L50.26 49.61ZM61.34 65.23C61.06 68.83 60.77 70.49 60.26 71.06C59.90 71.50 59.54 71.64 58.97 71.64C58.32 71.64 57.10 71.64 55.58 71.42C56.23 72.65 56.74 74.52 56.81 75.96C58.97 76.03 60.98 76.03 62.14 75.89C63.43 75.74 64.66 75.31 65.52 74.23C66.60 72.86 67.18 69.55 67.54 61.92C67.61 61.27 67.61 59.90 67.61 59.90L49.75 59.90C49.97 58.25 50.11 56.59 50.18 54.94L65.52 54.94L65.52 39.46L50.26 39.46L50.26 34.70L67.82 34.70L67.82 29.02L50.26 29.02L50.26 23.18L44.06 23.18L44.06 29.02L27.22 29.02L27.22 34.70L44.06 34.70L44.06 39.46L29.66 39.46L29.66 44.78L44.06 44.78L44.06 49.61L30.31 49.61C29.88 54.72 29.02 61.13 28.15 65.23L42.41 65.23C40.32 72.79 35.35 79.78 23.98 84.46C25.49 85.68 27.36 88.06 28.22 89.42C38.30 84.82 43.85 78.34 46.87 71.35C50.40 80.14 56.30 86.18 65.66 89.21C66.46 87.48 68.18 84.96 69.55 83.66C59.40 81.22 53.28 74.45 50.26 65.23Z"/></svg>
