<svg xmlns="http://www.w3.org/2000/svg" xmlns:xlink="http://www.w3.org/1999/xlink" width="72.00000000000001" height="106.56000000000002"><path fill="red" stroke="red" d="M18.86 43.92C18.65 50.47 17.86 58.03 14.98 65.66C13.32 63.94 11.59 62.21 10.01 60.62C11.02 55.87 12.17 50.18 13.18 44.28ZM24.98 76.61C23.54 74.74 21.60 72.50 19.37 70.13C23.11 60.91 24.12 51.48 24.34 43.56L27.29 43.34L27.36 37.58L24.41 37.73L24.41 33.19L18.94 33.19L18.94 38.02L14.11 38.30C14.83 33.12 15.41 28.08 15.84 23.47L10.22 23.26C9.94 28.01 9.29 33.26 8.50 38.59C6.41 38.66 4.54 38.74 2.74 38.81L3.38 44.93L7.63 44.64C6.55 51.41 5.18 57.74 4.03 62.57C6.62 65.23 9.65 68.33 12.46 71.42C10.01 76.10 6.62 80.57 1.94 84.67C3.31 85.54 5.26 87.41 6.19 88.63C10.58 84.74 13.97 80.35 16.49 75.96C18.14 77.98 19.73 79.78 20.81 81.36ZM60.12 55.01L60.12 60.26L44.06 60.26L44.06 55.01ZM44.06 70.49L44.06 65.52L60.12 65.52L60.12 70.49ZM44.06 80.86L44.06 75.74L60.12 75.74L60.12 80.86ZM38.23 89.14L44.06 89.14L44.06 86.26L60.12 86.26L60.12 89.14L66.17 89.14L66.17 49.61L38.23 49.61ZM60.19 39.53L50.90 39.53L50.90 31.39L60.19 31.39ZM35.93 31.39L45.00 31.39L45.00 39.53L35.93 39.53ZM66.53 25.85L29.88 25.85L29.88 46.73C29.88 58.18 29.30 74.52 23.11 85.90C24.62 86.40 27.29 88.06 28.44 89.06C34.99 77.04 35.93 58.82 35.93 46.73L35.93 45.07L66.53 45.07Z"/></svg>
