<svg xmlns="http://www.w3.org/2000/svg" xmlns:xlink="http://www.w3.org/1999/xlink" width="72.00000000000001" height="106.56000000000002"><path fill="red" stroke="red" d="M21.96 55.22L21.96 51.19L32.62 51.19L32.62 55.22ZM21.96 42.84L32.62 42.84L32.62 46.87L21.96 46.87ZM49.82 46.87L38.81 46.87L38.81 42.84L49.82 42.84ZM49.82 55.22L38.81 55.22L38.81 51.19L49.82 51.19ZM63.65 63.72L38.81 63.72L38.81 59.90L56.09 59.90L56.09 38.23L15.91 38.23L15.91 59.90L32.62 59.90L32.62 63.72L15.19 63.72L15.19 61.63L8.93 61.63L8.93 63.72L6.19 63.72L6.19 69.34L8.93 69.34L8.93 89.14L15.19 89.14L15.19 69.34L32.62 69.34L32.62 75.02C27.22 75.17 22.25 75.31 18.36 75.38L18.72 81.07C26.78 80.71 37.80 80.28 48.74 79.63C49.25 80.64 49.68 81.58 49.97 82.44L54.86 80.57C53.64 77.54 50.90 73.01 48.31 69.70L43.85 71.42C44.50 72.36 45.22 73.44 45.94 74.52L38.81 74.81L38.81 69.34L57.24 69.34L57.24 82.73C57.24 83.52 56.95 83.74 56.02 83.81C55.22 83.88 52.42 83.88 49.39 83.74C50.11 85.25 50.98 87.41 51.19 88.99C55.66 88.99 58.82 88.99 60.91 88.13C63.07 87.26 63.65 85.75 63.65 82.80ZM41.11 28.87C40.32 26.86 39.10 24.41 37.87 22.54L30.89 24.05C31.61 25.49 32.47 27.22 33.12 28.87L5.98 28.87L5.98 42.55L12.02 42.55L12.02 34.63L59.98 34.63L59.98 42.55L66.38 42.55L66.38 28.87Z"/></svg>
