<svg xmlns="http://www.w3.org/2000/svg" xmlns:xlink="http://www.w3.org/1999/xlink" width="72.00000000000001" height="106.56000000000002"><path fill="red" stroke="red" d="M46.80 42.84L38.95 42.84C39.82 41.98 40.61 41.11 41.33 40.25L46.80 40.25ZM9.94 40.18L18.94 40.18L18.94 43.06L10.73 43.06L10.73 46.66L18.94 46.66L18.94 49.68C14.26 49.97 10.01 50.18 6.70 50.33L7.13 54.94C14.18 54.58 24.05 53.93 33.62 53.21L33.70 48.89L24.48 49.39L24.48 46.66L32.47 46.66L32.47 43.06L24.48 43.06L24.48 40.18L33.34 40.18L33.34 36.14L11.52 36.14L11.52 32.90L60.19 32.90L60.19 36.50L43.78 36.50C44.21 35.64 44.64 34.78 45.07 33.98L40.32 33.26C39.17 35.78 37.08 38.66 34.27 40.97C35.06 41.33 36.22 42.05 37.15 42.84L34.70 42.84L34.70 46.51L46.80 46.51L46.80 50.69L41.69 50.69L41.69 47.38L36.79 47.38L36.79 54.36L62.86 54.36L62.86 47.38L57.82 47.38L57.82 50.69L52.42 50.69L52.42 46.51L65.02 46.51L65.02 42.84L52.42 42.84L52.42 40.25L61.06 40.18L61.06 37.94L66.53 37.94L66.53 27.58L40.18 27.58C39.53 25.85 38.59 23.98 37.66 22.46L31.03 23.98C31.61 25.06 32.18 26.28 32.69 27.58L5.47 27.58L5.47 38.02L9.94 38.02ZM19.87 73.08L52.99 73.08L52.99 76.03L19.87 76.03ZM19.87 66.67L52.99 66.67L52.99 69.55L19.87 69.55ZM19.87 60.34L52.99 60.34L52.99 63.07L19.87 63.07ZM59.76 79.78L59.76 56.52L13.39 56.52L13.39 79.78L23.26 79.78C18.22 81.72 10.44 83.66 4.03 84.67C5.33 85.82 7.13 87.91 8.06 89.14C15.91 87.84 25.56 85.10 31.54 82.08L28.08 79.78L43.06 79.78L40.03 82.30C48.31 84.53 56.66 87.26 61.49 89.28L67.32 85.32C62.86 83.66 55.94 81.58 49.10 79.78Z"/></svg>
