<svg xmlns="http://www.w3.org/2000/svg" xmlns:xlink="http://www.w3.org/1999/xlink" width="72.00000000000001" height="106.56000000000002"><path fill="red" stroke="red" d="M67.68 52.42L67.68 46.51L32.69 46.51C33.70 44.42 34.70 42.19 35.64 40.03L32.26 39.10C34.42 38.38 36.72 37.73 38.81 36.94C46.22 39.60 52.99 42.41 57.53 44.71L62.64 39.96C58.46 37.94 53.14 35.86 47.16 33.77C52.06 31.61 56.59 29.30 60.41 26.71L54.79 22.97C50.47 25.85 44.86 28.51 38.59 30.74C30.82 28.22 22.75 25.85 15.84 24.12L11.23 28.15C16.99 29.66 23.40 31.61 29.66 33.77C22.18 35.86 14.26 37.66 6.62 38.74C8.06 40.10 10.15 42.84 11.16 44.42C16.63 43.27 22.32 41.90 27.94 40.32C27.14 42.41 26.21 44.50 25.06 46.51L4.39 46.51L4.39 52.42L21.24 52.42C16.56 59.11 10.15 65.02 2.59 69.05C3.89 70.27 5.98 72.72 7.06 74.16C10.37 72.29 13.46 70.06 16.27 67.68L16.27 85.32L22.90 85.32L22.90 66.31L35.21 66.31L35.21 89.21L41.69 89.21L41.69 66.31L55.44 66.31L55.44 77.90C55.44 78.84 55.08 79.06 54.07 79.13C53.14 79.13 49.61 79.13 46.01 78.98C46.87 80.57 47.81 83.02 48.17 84.74C53.28 84.74 56.81 84.74 59.11 83.74C61.42 82.80 62.06 81.14 62.06 77.98L62.06 60.48L41.69 60.48L41.69 53.93L35.21 53.93L35.21 60.48L23.40 60.48C25.49 57.96 27.50 55.22 29.23 52.42Z"/></svg>
