<svg xmlns="http://www.w3.org/2000/svg" xmlns:xlink="http://www.w3.org/1999/xlink" width="72.00000000000001" height="106.56000000000002"><path fill="red" stroke="red" d="M44.35 35.78L50.90 35.78L50.90 32.90L67.61 32.90L67.61 27.65L50.90 27.65L50.90 23.11L44.35 23.11L44.35 27.65L37.30 27.65L37.30 32.90L44.35 32.90ZM20.81 35.78L27.36 35.78L27.36 32.90L35.06 32.90L35.06 27.65L27.36 27.65L27.36 23.11L20.81 23.11L20.81 27.65L4.68 27.65L4.68 32.90L20.81 32.90ZM38.95 70.56L38.95 66.53L32.47 66.53L32.47 70.56L20.66 70.56C22.75 68.98 24.62 67.32 26.28 65.52L46.01 65.52C47.52 67.32 49.32 68.98 51.34 70.56ZM18.50 48.74L53.64 48.74L53.64 52.85L18.50 52.85ZM18.50 40.90L53.64 40.90L53.64 44.86L18.50 44.86ZM67.90 65.52L67.90 60.26L30.60 60.26C31.32 59.18 32.04 58.10 32.69 56.95L60.34 56.95L60.34 36.79L12.10 36.79L12.10 56.95L25.34 56.95C24.70 58.10 23.90 59.18 22.97 60.26L4.03 60.26L4.03 65.52L17.50 65.52C13.68 68.54 8.78 71.28 2.74 73.37C3.96 74.45 5.76 76.90 6.48 78.41C9.72 77.11 12.60 75.74 15.26 74.16L15.26 87.70L21.67 87.70L21.67 75.82L32.47 75.82L32.47 89.14L38.95 89.14L38.95 75.82L50.98 75.82L50.98 81.65C50.98 82.37 50.69 82.58 49.90 82.58C49.18 82.58 46.80 82.58 44.21 82.51C44.93 84.02 45.65 85.97 45.94 87.55C50.11 87.55 52.99 87.62 54.94 86.76C56.88 85.90 57.38 84.53 57.38 81.72L57.38 74.59C59.98 76.10 62.78 77.26 65.59 78.12C66.38 76.61 68.18 74.23 69.55 73.15C63.58 71.64 57.60 68.90 53.21 65.52Z"/></svg>
