<svg xmlns="http://www.w3.org/2000/svg" xmlns:xlink="http://www.w3.org/1999/xlink" width="72.00000000000001" height="106.56000000000002"><path fill="red" stroke="red" d="M59.47 24.55C55.58 29.74 48.24 35.35 42.34 38.59C44.06 39.82 46.01 41.83 47.16 43.34C53.71 39.38 60.98 33.41 65.81 27.14ZM17.14 38.95C20.23 43.06 23.18 48.60 24.19 52.34L29.59 49.82C28.51 46.08 25.34 40.61 22.18 36.58ZM16.06 54.07L16.06 32.98L32.54 32.98L32.54 54.07ZM43.78 60.55L43.78 60.34C45.00 61.49 46.15 62.86 47.02 64.01C54.79 59.83 62.50 53.28 67.46 45.86L61.20 43.42C57.46 49.18 50.47 55.01 43.78 58.46L43.78 54.07L38.88 54.07L38.88 26.86L9.86 26.86L9.86 54.07L3.74 54.07L3.74 60.55L9.79 60.55C9.58 69.19 8.35 78.84 2.95 85.68C4.46 86.26 7.20 88.13 8.21 89.28C14.26 81.79 15.70 70.34 15.98 60.55L32.54 60.55L32.54 80.50C32.54 81.50 32.18 81.72 31.25 81.79C30.38 81.86 27.36 81.86 24.34 81.72C25.20 83.30 26.06 86.11 26.28 87.77C30.96 87.77 34.06 87.62 36.14 86.62C38.23 85.61 38.88 83.81 38.88 80.50L38.88 60.55ZM62.57 63.36C58.25 72.22 49.46 79.70 39.67 83.81C41.40 85.25 43.42 87.55 44.42 89.28C55.01 84.17 63.86 76.03 69.19 65.81Z"/></svg>
