<svg xmlns="http://www.w3.org/2000/svg" xmlns:xlink="http://www.w3.org/1999/xlink" width="72.00000000000001" height="106.56000000000002"><path fill="red" stroke="red" d="M17.78 23.33C14.83 28.30 8.64 34.20 3.17 37.66C4.18 39.02 5.83 41.69 6.55 43.20C12.96 38.95 19.87 32.11 24.19 25.85ZM48.46 46.66L57.89 46.66L57.89 51.77L48.46 51.77ZM48.46 35.93L57.89 35.93L57.89 40.97L48.46 40.97ZM64.22 57.24L64.22 46.66L69.12 46.66L69.12 40.97L64.22 40.97L64.22 30.46L48.46 30.46L48.46 23.18L41.98 23.18L41.98 30.46L27.50 30.46L27.50 35.93L41.98 35.93L41.98 40.97L24.41 40.97L24.41 41.11L19.15 38.95C15.12 46.08 8.35 53.21 2.23 57.89C3.31 59.54 4.97 63.14 5.54 64.58C7.85 62.64 10.37 60.19 12.74 57.60L12.74 89.14L19.01 89.14L19.01 50.11C20.95 47.52 22.90 44.86 24.41 42.19L24.41 46.66L41.98 46.66L41.98 51.77L27.22 51.77L27.22 57.24L41.98 57.24L41.98 62.14L26.28 62.14L26.28 67.68L41.98 67.68L41.98 72.79L23.26 72.79L23.26 78.55L41.98 78.55L41.98 89.14L48.46 89.14L48.46 78.55L68.33 78.55L68.33 72.79L48.46 72.79L48.46 67.68L65.16 67.68L65.16 62.14L48.46 62.14L48.46 57.24Z"/></svg>
