<svg xmlns="http://www.w3.org/2000/svg" xmlns:xlink="http://www.w3.org/1999/xlink" width="72.00000000000001" height="106.56000000000002"><path fill="red" stroke="red" d="M17.06 23.11C14.18 28.01 8.50 34.06 3.38 37.80C4.46 39.02 6.19 41.33 6.91 42.70C12.74 38.30 19.08 31.54 23.11 25.34ZM18.65 38.02C14.90 45.29 8.71 52.56 2.74 57.24C3.89 58.61 5.83 61.92 6.41 63.29C8.35 61.63 10.37 59.76 12.24 57.67L12.24 89.35L18.58 89.35L18.58 49.82C20.81 46.66 22.90 43.34 24.55 40.03ZM54.00 65.30C51.55 68.98 48.17 72.14 44.14 74.74C41.04 72.79 38.16 70.56 35.71 67.97C36.50 67.10 37.30 66.24 37.94 65.30ZM58.82 59.62L57.67 59.90L41.83 59.90C42.98 58.25 43.99 56.45 44.86 54.72L59.62 53.71C61.13 55.87 62.35 57.96 63.14 59.54L68.69 56.38C66.31 52.20 61.34 45.58 57.38 40.82L52.13 43.56C53.42 45.07 54.79 46.87 56.09 48.67L37.01 49.75C45.29 45.22 53.71 39.60 61.49 33.05L55.37 29.66C52.63 32.18 49.61 34.70 46.58 36.94L35.21 37.22C39.67 34.20 44.14 30.38 48.10 26.50L41.47 23.54C37.30 28.58 31.10 33.34 29.30 34.63C27.43 35.86 25.92 36.79 24.48 37.08C25.27 38.88 26.35 42.12 26.71 43.49C27.79 43.06 29.74 42.70 39.02 42.26C35.50 44.57 32.62 46.30 31.10 47.09C27.72 48.96 25.27 50.18 23.11 50.47C23.83 52.20 24.84 55.44 25.06 56.66C26.57 56.09 28.51 55.80 37.66 55.22C35.93 58.03 33.98 60.77 31.75 63.22C30.89 62.06 30.24 60.91 29.52 59.62L24.05 61.42C25.13 63.50 26.35 65.38 27.65 67.18C25.85 68.83 23.90 70.34 21.96 71.50C23.33 72.65 25.56 75.17 26.50 76.46C28.22 75.17 29.95 73.80 31.61 72.14C33.70 74.30 35.86 76.32 38.23 78.12C32.83 80.78 26.71 82.58 20.45 83.74C21.60 85.10 23.04 87.84 23.69 89.42C30.89 87.91 37.94 85.46 44.06 81.94C49.90 85.32 56.52 87.84 64.01 89.35C64.87 87.62 66.67 84.89 68.04 83.52C61.42 82.37 55.44 80.57 50.04 77.98C55.58 73.80 60.12 68.33 62.93 61.56Z"/></svg>
