<svg xmlns="http://www.w3.org/2000/svg" xmlns:xlink="http://www.w3.org/1999/xlink" width="72.00000000000001" height="106.56000000000002"><path fill="red" stroke="red" d="M45.43 27.72L40.68 27.72L40.68 38.81L35.86 38.81L35.86 23.11L30.82 23.11L30.82 38.81L26.35 38.81L26.35 27.72L21.67 27.72L21.67 43.92L45.43 43.92ZM14.11 23.04C11.59 27.72 6.55 33.41 2.16 37.01C3.17 38.23 4.82 40.75 5.62 42.12C10.80 37.87 16.49 31.32 20.16 25.27ZM15.48 37.66C12.10 45.00 6.62 52.49 1.44 57.38C2.52 58.82 4.46 61.99 5.18 63.43C6.91 61.63 8.71 59.54 10.44 57.24L10.44 89.14L16.56 89.14L16.56 48.38C18.29 45.50 19.94 42.62 21.31 39.74ZM60.84 43.20C59.98 50.98 58.68 57.89 56.66 63.86C54.86 58.32 53.57 52.13 52.70 45.65C52.92 44.86 53.21 44.06 53.42 43.20ZM69.05 43.20L69.05 37.51L54.86 37.51C55.87 33.19 56.59 28.73 57.24 24.12L51.12 23.18C50.04 32.69 48.24 41.83 45.14 48.82L45.14 48.02L20.59 48.02L20.59 53.57L42.84 53.57C44.14 54.86 46.08 57.31 46.94 58.54C47.74 57.24 48.53 55.87 49.25 54.43C50.33 60.41 51.70 66.10 53.50 71.06C51.41 74.95 48.82 78.41 45.58 81.22L45.43 77.40L36.29 78.41L36.29 72.58L46.94 72.58L46.94 67.54L36.29 67.54L36.29 61.92C39.46 61.42 42.41 60.84 44.93 60.12L41.54 55.73C36.58 57.17 27.86 58.46 20.59 59.18C21.24 60.34 21.96 62.28 22.10 63.50C24.77 63.29 27.72 63.07 30.60 62.71L30.60 67.54L20.09 67.54L20.09 72.58L30.60 72.58L30.60 79.06C26.86 79.42 23.47 79.78 20.66 80.06L22.10 85.39C28.30 84.60 36.50 83.52 44.42 82.30C43.13 83.30 41.83 84.24 40.39 85.10C41.62 86.11 43.92 88.42 44.71 89.57C49.54 86.33 53.35 82.30 56.38 77.62C58.90 82.37 61.99 86.26 65.95 88.99C66.82 87.34 68.90 84.89 70.20 83.74C65.81 81.14 62.35 76.82 59.76 71.57C63.29 63.79 65.38 54.36 66.67 43.20Z"/></svg>
