<svg xmlns="http://www.w3.org/2000/svg" xmlns:xlink="http://www.w3.org/1999/xlink" width="72.00000000000001" height="106.56000000000002"><path fill="red" stroke="red" d="M16.06 49.03L16.06 37.37L32.62 37.37L32.62 49.03ZM56.16 37.37L56.16 49.03L39.31 49.03L39.31 37.37ZM32.62 61.49L33.34 61.49L29.88 64.01C33.62 67.10 38.23 71.50 40.54 74.38L45.86 70.20C43.78 67.75 39.89 64.30 36.50 61.49L39.31 61.49L39.31 55.01L62.86 55.01L62.86 31.46L39.31 31.46L39.31 23.11L32.62 23.11L32.62 31.46L9.58 31.46L9.58 55.01L32.62 55.01ZM9.29 84.31C12.17 79.49 14.90 71.93 16.78 66.31L10.87 64.01C9.14 69.62 6.19 76.75 3.02 81.50ZM32.04 81.36C28.15 81.36 27.50 81.00 27.50 78.77L27.50 64.01L20.52 64.01L20.52 78.84C20.52 85.68 22.75 87.62 31.32 87.62L44.93 87.62C52.13 87.62 54.14 85.10 55.01 74.95C53.14 74.52 50.26 73.44 48.67 72.36C48.31 80.14 47.74 81.36 44.35 81.36ZM52.06 66.38C55.80 71.71 60.41 78.84 62.50 83.16L68.69 79.78C66.46 75.53 61.49 68.54 57.82 63.50Z"/></svg>
