<svg xmlns="http://www.w3.org/2000/svg" xmlns:xlink="http://www.w3.org/1999/xlink" width="72.00000000000001" height="106.56000000000002"><path fill="red" stroke="red" d="M7.13 57.24C8.93 51.98 10.22 43.63 10.58 37.73L5.69 37.01C5.18 42.77 3.89 50.69 2.09 55.51ZM28.01 47.95C27.22 44.50 24.77 38.88 22.54 34.70L18.58 36.36L18.58 23.11L12.02 23.11L12.02 89.14L18.58 89.14L18.58 38.16C20.52 42.26 22.39 47.16 23.11 50.33ZM48.10 65.74C53.06 73.15 59.62 83.09 62.64 88.92L68.76 85.46C65.38 79.70 58.68 70.06 53.71 63.00ZM47.88 40.46L57.02 40.46L57.02 55.44L47.52 55.44C47.81 52.70 47.88 50.04 47.88 47.45ZM63.58 55.44L63.58 34.27L47.88 34.27L47.88 23.11L41.11 23.11L41.11 34.27L27.86 34.27L27.86 40.46L41.11 40.46L41.11 47.45C41.11 49.97 41.04 52.70 40.82 55.44L24.19 55.44L24.19 61.78L39.89 61.78C38.09 70.20 33.41 78.41 21.53 84.31C23.11 85.54 25.34 88.13 26.28 89.50C39.31 82.15 44.64 72.00 46.66 61.78L68.98 61.78L68.98 55.44Z"/></svg>
