<svg xmlns="http://www.w3.org/2000/svg" xmlns:xlink="http://www.w3.org/1999/xlink" width="72.00000000000001" height="106.56000000000002"><path fill="red" stroke="red" d="M7.56 57.38C9.29 52.06 10.30 43.78 10.37 37.66L5.18 37.01C4.97 42.84 3.96 50.76 2.30 55.51ZM33.77 73.44C34.20 70.34 34.70 66.82 35.21 63.14L41.83 63.14L39.46 65.95C42.70 68.11 46.80 71.28 48.74 73.30L51.84 69.34C50.04 67.61 46.66 65.02 43.63 63.14L57.24 63.14C56.95 67.39 56.66 70.78 56.30 73.44ZM43.63 48.02L40.97 50.83C43.70 52.78 46.94 55.37 48.74 57.31L36.00 57.31C36.36 54.22 36.79 51.05 37.08 48.02ZM58.10 48.02C57.96 51.41 57.82 54.50 57.60 57.31L49.61 57.31L52.42 54.00C50.83 52.27 47.66 49.90 44.86 48.02ZM69.19 63.14L69.19 57.31L63.86 57.31C64.08 53.86 64.22 49.97 64.44 45.65C64.58 44.71 64.58 42.62 64.58 42.62L32.47 42.62C33.77 40.75 35.06 38.81 36.36 36.65L68.11 36.65L68.11 30.67L39.38 30.67C40.32 28.58 41.18 26.28 41.90 24.12L35.71 22.54C33.48 29.81 29.59 36.94 24.91 41.69C24.05 39.24 22.97 36.50 21.89 34.27L17.86 35.86L17.86 23.11L11.52 23.11L11.52 89.21L17.86 89.21L17.86 37.30C19.73 41.69 21.46 46.94 22.18 50.33L27.00 48.10C26.64 46.66 25.99 44.71 25.27 42.70C26.78 43.70 28.80 45.07 29.74 45.94C30.24 45.36 30.74 44.78 31.25 44.14C30.82 48.24 30.38 52.78 29.81 57.31L22.90 57.31L22.90 63.14L29.02 63.14C28.15 69.05 27.29 74.66 26.42 78.91L55.37 78.91C54.94 80.71 54.50 81.79 54.00 82.37C53.28 83.30 52.63 83.52 51.55 83.45C50.18 83.45 47.66 83.45 44.78 83.16C45.65 84.74 46.30 87.19 46.44 88.78C49.54 88.92 52.49 88.99 54.43 88.70C56.52 88.42 58.10 87.77 59.54 85.82C60.48 84.74 61.20 82.66 61.92 78.91L67.97 78.91L67.97 73.44L62.57 73.44C62.93 70.63 63.22 67.25 63.50 63.14Z"/></svg>
