<svg xmlns="http://www.w3.org/2000/svg" xmlns:xlink="http://www.w3.org/1999/xlink" width="72.00000000000001" height="106.56000000000002"><path fill="red" stroke="red" d="M15.55 58.39L15.55 52.34L32.62 52.34L32.62 58.39ZM56.38 52.34L56.38 58.39L39.74 58.39L39.74 52.34ZM18.07 38.74L18.07 33.26L32.62 33.26L32.62 38.74ZM54.00 33.26L54.00 38.74L39.74 38.74L39.74 33.26ZM32.62 66.31L32.26 66.17L28.30 70.13C33.12 72.29 38.95 75.74 41.69 78.55L45.94 74.09C43.70 72.14 39.60 69.62 35.64 67.75L39.74 67.75L39.74 63.43L63.79 63.43L63.79 47.38L39.74 47.38L39.74 43.70L61.13 43.70L61.13 28.30L39.74 28.30L39.74 23.11L32.62 23.11L32.62 28.30L11.38 28.30L11.38 43.70L32.62 43.70L32.62 47.38L8.64 47.38L8.64 63.43L32.62 63.43ZM9.36 86.54C13.18 82.87 16.06 77.18 18.07 72.36L12.10 69.84C10.37 74.38 7.20 79.78 3.46 83.02ZM31.46 82.30C27.65 82.30 27.00 82.01 27.00 80.06L27.00 70.56L20.09 70.56L20.09 80.14C20.09 86.33 22.25 88.06 30.89 88.06L44.50 88.06C51.19 88.06 53.14 86.04 54.00 77.18C52.20 76.82 49.39 75.82 47.95 74.88C47.59 81.29 47.02 82.30 43.85 82.30ZM51.91 71.64C55.87 75.96 60.19 82.01 61.92 86.04L68.18 82.94C66.31 78.91 61.78 73.08 57.67 68.90Z"/></svg>
