<svg xmlns="http://www.w3.org/2000/svg" xmlns:xlink="http://www.w3.org/1999/xlink" width="72.00000000000001" height="106.56000000000002"><path fill="red" stroke="red" d="M58.61 36.29L34.78 36.29L34.78 30.96L58.61 30.96ZM58.61 46.58L34.78 46.58L34.78 41.11L58.61 41.11ZM65.38 25.85L28.30 25.85L28.30 51.70L65.38 51.70ZM7.56 57.31C9.29 51.98 10.30 43.70 10.30 37.66L5.33 37.01C5.11 42.91 4.10 50.76 2.38 55.51ZM27.72 48.31C26.86 44.93 24.55 39.24 22.54 34.85L18.36 36.50L18.36 23.11L11.88 23.11L11.88 89.21L18.36 89.21L18.36 37.44C20.16 41.83 22.18 47.23 22.97 50.62ZM50.33 82.22L50.33 75.60L65.02 75.60L65.02 70.27L50.33 70.27L50.33 64.30L66.82 64.30L66.82 58.90L50.33 58.90L50.33 53.42L43.63 53.42L43.63 58.90L34.85 58.90C35.50 57.31 36.00 55.80 36.50 54.22L30.38 52.85C28.80 58.54 25.92 64.08 22.32 67.82C23.76 68.62 26.42 70.42 27.50 71.42C29.23 69.48 30.89 67.03 32.33 64.30L43.63 64.30L43.63 70.27L29.52 70.27L29.52 75.60L43.63 75.60L43.63 82.22L22.97 82.22L22.97 87.70L69.19 87.70L69.19 82.22Z"/></svg>
