<svg xmlns="http://www.w3.org/2000/svg" xmlns:xlink="http://www.w3.org/1999/xlink" width="72.00000000000001" height="106.56000000000002"><path fill="red" stroke="red" d="M42.70 37.51L48.82 37.51L48.82 33.05L66.10 33.05L66.10 28.37L48.82 28.37L48.82 23.26L42.70 23.26L42.70 28.37L27.00 28.37L27.00 33.05L42.70 33.05ZM7.27 57.17C8.42 51.62 9.43 42.98 9.65 37.30L5.04 36.65C4.68 42.26 3.60 50.54 2.30 55.66ZM25.99 48.38C25.20 45.07 23.26 39.38 21.53 35.06L17.57 36.58L17.57 23.11L11.74 23.11L11.74 89.35L17.57 89.35L17.57 37.73C19.15 41.98 20.66 47.23 21.31 50.47ZM38.02 77.47C34.06 80.35 27.36 83.16 21.46 84.96C22.75 86.04 24.91 88.42 25.92 89.64C31.82 87.34 39.17 83.59 43.70 79.78ZM33.98 73.22L33.98 68.98L57.38 68.98L57.38 73.22ZM38.38 44.21L52.99 44.21L52.99 48.67L38.38 48.67ZM57.38 56.95L33.98 56.95L33.98 52.85L57.38 52.85ZM57.38 65.02L33.98 65.02L33.98 60.91L57.38 60.91ZM63.65 77.47L63.65 48.67L58.75 48.67L58.75 44.21L68.76 44.21L68.76 39.53L58.75 39.53L58.75 34.78L52.99 34.78L52.99 39.53L38.38 39.53L38.38 34.78L32.69 34.78L32.69 39.53L25.06 39.53L25.06 44.21L32.69 44.21L32.69 48.67L27.94 48.67L27.94 77.47L52.27 77.47L48.96 80.28C54.36 83.09 60.41 86.76 63.94 89.35L69.19 85.68C65.66 83.30 59.90 80.06 54.50 77.47Z"/></svg>
