<svg xmlns="http://www.w3.org/2000/svg" xmlns:xlink="http://www.w3.org/1999/xlink" width="72.00000000000001" height="106.56000000000002"><path fill="red" stroke="red" d="M68.47 35.93C66.74 32.98 63.43 28.01 60.91 24.41L55.94 26.78C58.54 30.53 61.70 35.78 63.14 38.81ZM11.95 39.46L21.10 39.46L21.10 43.63L12.96 44.42L13.46 48.17L21.10 47.45L21.10 48.02C21.10 52.20 21.96 54.22 26.57 54.22L34.56 54.22C36.29 54.22 38.30 54.14 39.24 53.86C39.10 52.56 38.95 51.34 38.88 49.97C37.87 50.26 35.50 50.33 34.27 50.33L28.15 50.33C26.71 50.33 26.50 49.75 26.50 48.10L26.50 46.94L33.91 46.22L33.41 42.55L26.50 43.20L26.50 39.46L36.72 39.46C36.29 41.62 35.78 43.78 35.35 45.22L40.25 46.22C41.26 43.56 42.34 39.24 43.06 35.50L39.10 34.78L38.23 34.92L26.14 34.92L26.14 31.68L41.11 31.68L41.11 27.14L26.14 27.14L26.14 23.11L19.94 23.11L19.94 34.92L6.41 34.92L6.41 54.65C6.41 63.65 6.05 76.03 2.02 84.82C3.31 85.46 5.69 87.26 6.62 88.34C11.16 78.91 11.95 64.44 11.95 54.65ZM41.98 56.23L13.90 56.23L13.90 60.62L41.98 60.62ZM20.66 66.67L34.49 66.67L34.49 70.92L20.66 70.92ZM39.82 74.45L39.82 63.14L15.55 63.14L15.55 74.45ZM63.14 50.04C61.56 55.51 59.18 61.13 56.16 66.10C55.37 61.20 54.72 55.15 54.22 48.46L69.19 46.51L68.40 40.61L53.86 42.55C53.57 36.58 53.35 30.10 53.28 23.47L47.09 23.47C47.23 30.53 47.52 37.15 47.81 43.34L42.05 44.14L42.84 49.97L48.24 49.25C48.82 58.61 49.82 66.74 51.34 73.08C48.38 76.82 45.00 79.99 41.40 82.30L41.40 80.64L34.70 81.22C35.64 79.49 36.72 77.54 37.73 75.67L32.11 74.74C31.46 76.68 30.31 79.42 29.23 81.72L24.91 82.08C24.34 79.99 23.47 77.18 22.61 75.10L17.93 75.96C18.65 77.90 19.44 80.50 19.94 82.44C16.85 82.73 14.04 82.94 11.59 83.09L12.31 88.06C20.09 87.41 30.96 86.47 41.40 85.46L41.40 83.23C42.84 84.31 44.50 85.97 45.43 87.26C48.24 85.32 50.90 82.94 53.35 80.06C55.44 85.75 58.32 88.92 62.06 89.06C64.73 89.14 67.68 86.33 69.19 74.81C68.11 74.16 65.59 72.50 64.51 71.14C64.08 77.69 63.22 81.29 62.14 81.29C60.48 81.14 59.04 78.70 57.89 74.30C62.28 67.82 65.88 60.19 68.11 52.63Z"/></svg>
