<svg xmlns="http://www.w3.org/2000/svg" xmlns:xlink="http://www.w3.org/1999/xlink" width="72.00000000000001" height="106.56000000000002"><path fill="red" stroke="red" d="M68.47 59.90L39.60 59.90L39.60 49.68L64.37 49.68L64.37 43.27L39.60 43.27L39.60 32.69C47.81 31.68 55.44 30.46 61.70 28.66L56.74 23.18C45.50 26.42 25.20 28.30 8.21 29.09C8.86 30.53 9.72 33.26 9.79 34.92C17.06 34.63 24.91 34.13 32.62 33.48L32.62 43.27L8.57 43.27L8.57 49.68L32.62 49.68L32.62 59.90L3.67 59.90L3.67 66.46L32.62 66.46L32.62 80.50C32.62 82.01 32.04 82.51 30.46 82.51C28.80 82.58 23.04 82.58 17.28 82.37C18.36 84.17 19.66 87.19 20.09 88.99C27.50 89.06 32.40 88.92 35.35 87.84C38.38 86.83 39.60 84.96 39.60 80.57L39.60 66.46L68.47 66.46Z"/></svg>
