<svg xmlns="http://www.w3.org/2000/svg" xmlns:xlink="http://www.w3.org/1999/xlink" width="72.00000000000001" height="106.56000000000002"><path fill="red" stroke="red" d="M24.70 53.86L18.14 55.87L18.14 43.34L25.34 43.34L25.34 37.15L18.14 37.15L18.14 23.26L12.02 23.26L12.02 37.15L3.67 37.15L3.67 43.34L12.02 43.34L12.02 57.67C8.50 58.68 5.26 59.62 2.66 60.19L4.25 66.74L12.02 64.30L12.02 81.14C12.02 82.15 11.66 82.44 10.80 82.44C10.01 82.44 7.27 82.44 4.46 82.37C5.26 84.10 6.05 86.98 6.26 88.56C10.80 88.56 13.68 88.34 15.62 87.26C17.50 86.26 18.14 84.46 18.14 81.14L18.14 62.42C20.59 61.63 23.11 60.77 25.56 60.05ZM34.70 87.48L52.78 87.48L52.78 82.01L34.70 82.01ZM35.78 47.81L35.78 35.50C39.53 34.99 43.42 34.27 47.16 33.48C47.38 38.52 47.66 43.27 48.02 47.81ZM68.18 54.00L68.18 47.81L54.07 47.81C53.64 42.84 53.35 37.58 53.21 32.11C57.74 31.03 61.99 29.81 65.59 28.44L60.41 23.47C53.14 26.42 40.68 29.16 29.59 30.96L29.66 31.10L29.52 31.03L29.52 72.50C29.52 75.31 27.65 76.68 26.28 77.33C27.22 78.62 28.37 81.22 28.73 82.66C30.02 81.65 32.26 80.57 46.30 75.24C46.08 74.02 45.72 71.64 45.72 70.06L35.78 73.44L35.78 54.00L48.60 54.00C50.62 74.23 54.72 88.13 62.35 88.20C65.09 88.27 67.82 85.32 69.34 74.38C68.26 73.87 65.81 72.29 64.73 71.06C64.30 77.33 63.43 80.71 62.28 80.71C59.04 80.64 56.23 69.55 54.65 54.00Z"/></svg>
