<svg xmlns="http://www.w3.org/2000/svg" xmlns:xlink="http://www.w3.org/1999/xlink" width="72.00000000000001" height="106.56000000000002"><path fill="red" stroke="red" d="M27.00 53.64C24.41 54.36 21.74 55.15 19.15 55.87L19.15 43.34L26.78 43.34L26.78 37.15L19.15 37.15L19.15 23.18L12.53 23.18L12.53 37.15L3.38 37.15L3.38 43.34L12.53 43.34L12.53 57.60C8.64 58.68 5.11 59.54 2.23 60.19L3.89 66.74C6.55 66.02 9.50 65.16 12.53 64.37L12.53 81.79C12.53 82.80 12.24 83.09 11.30 83.09C10.44 83.16 7.63 83.16 4.75 83.02C5.62 84.74 6.48 87.48 6.70 89.14C11.38 89.21 14.33 88.92 16.42 87.91C18.43 86.90 19.15 85.18 19.15 81.72L19.15 62.35C22.03 61.49 24.91 60.62 27.86 59.83ZM66.96 58.10L66.96 51.84L51.12 51.84L51.12 40.68L68.33 40.68L68.33 34.42L51.12 34.42L51.12 23.26L44.42 23.26L44.42 34.42L28.15 34.42L28.15 40.68L44.42 40.68L44.42 51.84L29.09 51.84L29.09 58.10L41.26 58.10C36.94 66.31 29.95 74.30 22.90 78.48C24.41 79.78 26.57 82.22 27.72 83.81C33.91 79.49 39.89 72.50 44.42 64.66L44.42 89.35L51.12 89.35L51.12 64.22C55.01 71.78 60.19 78.91 65.30 83.23C66.46 81.58 68.62 79.27 70.20 78.05C64.30 73.73 58.03 65.88 54.22 58.10Z"/></svg>
