<svg xmlns="http://www.w3.org/2000/svg" xmlns:xlink="http://www.w3.org/1999/xlink" width="72.00000000000001" height="106.56000000000002"><path fill="red" stroke="red" d="M49.32 37.94C51.19 41.26 53.64 44.57 56.52 47.45L37.30 47.45C39.96 44.71 42.34 41.47 44.28 37.94ZM35.57 52.85L57.53 52.85L57.53 48.46C60.34 51.05 63.50 53.35 66.89 55.08C67.46 53.28 68.62 50.62 69.70 49.10C64.15 46.80 59.18 42.70 55.66 37.94L68.11 37.94L68.11 32.11L47.02 32.11C48.02 29.59 48.82 26.86 49.54 24.05L43.34 23.11C42.62 26.35 41.69 29.38 40.46 32.11L27.14 32.11L27.14 37.94L37.22 37.94C33.77 43.13 29.09 47.09 23.18 49.90C24.48 51.05 26.57 53.64 27.29 54.94C30.31 53.21 33.12 51.34 35.57 49.03ZM24.48 54.22C22.32 55.08 20.02 55.87 17.86 56.66L17.86 42.84L25.49 42.84L25.49 36.58L17.86 36.58L17.86 23.26L11.74 23.26L11.74 36.65L3.31 36.65L3.31 42.84L11.74 42.84L11.74 58.90C8.21 60.12 5.04 61.20 2.52 61.99L3.96 68.62L11.74 65.66L11.74 81.14C11.74 82.15 11.38 82.44 10.51 82.44C9.72 82.44 7.06 82.44 4.18 82.37C5.04 84.10 5.83 86.98 5.98 88.56C10.51 88.56 13.39 88.34 15.34 87.26C17.21 86.26 17.86 84.46 17.86 81.14L17.86 63.22L25.85 60.12ZM27.00 63.29L35.21 63.29C34.13 67.25 32.90 71.50 31.61 74.66L57.24 74.66C56.66 79.56 56.02 81.94 54.94 82.80C54.14 83.30 53.21 83.30 51.62 83.30C49.61 83.30 44.14 83.23 38.95 82.80C40.18 84.46 41.18 86.83 41.33 88.63C46.30 88.85 51.19 88.92 53.71 88.78C56.59 88.70 58.39 88.20 59.98 86.76C61.99 84.82 62.86 80.71 63.72 71.64C63.86 70.78 63.94 69.12 63.94 69.12L39.89 69.12C40.46 67.25 41.04 65.23 41.54 63.29L68.11 63.29L68.11 57.67L27.00 57.67Z"/></svg>
