<svg xmlns="http://www.w3.org/2000/svg" xmlns:xlink="http://www.w3.org/1999/xlink" width="72.00000000000001" height="106.56000000000002"><path fill="red" stroke="red" d="M26.50 53.86C23.98 54.58 21.46 55.30 19.01 55.94L19.01 43.27L26.50 43.27L26.50 37.08L19.01 37.08L19.01 23.11L12.60 23.11L12.60 37.08L3.17 37.08L3.17 43.27L12.60 43.27L12.60 57.67C8.71 58.75 5.11 59.69 2.23 60.34L3.89 66.89L12.60 64.37L12.60 81.79C12.60 82.87 12.17 83.16 11.23 83.16C10.30 83.23 7.34 83.23 4.32 83.09C5.18 84.82 5.98 87.55 6.19 89.14C11.09 89.21 14.11 88.99 16.27 88.06C18.29 86.98 19.01 85.25 19.01 81.86L19.01 62.42C21.74 61.63 24.55 60.77 27.22 59.98ZM54.36 59.11C55.73 56.59 57.46 53.06 59.11 49.90L54.94 48.46C54.07 51.05 52.42 55.15 51.26 57.74ZM35.50 49.82C36.79 52.78 38.16 56.59 38.74 58.97L42.48 57.38C41.90 55.22 40.46 51.48 39.10 48.67ZM33.77 47.09L44.06 47.09L44.06 60.34L33.77 60.34ZM60.48 60.34L49.61 60.34L49.61 47.09L60.48 47.09ZM66.17 65.66L66.17 41.76L49.97 41.76L49.97 36.22L67.82 36.22L67.82 30.38L49.97 30.38L49.97 23.11L43.63 23.11L43.63 30.38L26.35 30.38L26.35 36.22L43.63 36.22L43.63 41.76L28.30 41.76L28.30 65.66L39.24 65.66C34.92 71.64 28.22 77.18 21.67 80.06C23.11 81.22 25.06 83.52 26.06 85.10C32.62 81.72 39.02 75.89 43.63 69.12L43.63 89.14L50.04 89.14L50.04 68.69C54.07 75.31 59.83 81.43 65.66 84.96C66.60 83.30 68.62 81.07 70.06 79.85C64.22 76.90 58.32 71.50 54.50 65.66Z"/></svg>
