<svg xmlns="http://www.w3.org/2000/svg" xmlns:xlink="http://www.w3.org/1999/xlink" width="72.00000000000001" height="106.56000000000002"><path fill="red" stroke="red" d="M26.50 53.86L19.01 55.94L19.01 43.27L26.50 43.27L26.50 38.09L33.70 38.09L33.70 44.78L40.32 44.78L40.32 38.09L45.50 38.09L45.50 31.97L40.32 31.97L40.32 23.04L33.70 23.04L33.70 31.97L25.27 31.97L25.27 37.08L19.01 37.08L19.01 23.11L12.60 23.11L12.60 37.08L3.24 37.08L3.24 43.27L12.60 43.27L12.60 57.67C8.71 58.75 5.11 59.69 2.23 60.41L3.60 66.89C6.34 66.10 9.36 65.23 12.60 64.30L12.60 81.79C12.60 82.87 12.17 83.16 11.23 83.16C10.37 83.23 7.34 83.23 4.32 83.09C5.18 84.82 6.05 87.55 6.26 89.14C11.09 89.21 14.18 88.99 16.27 87.98C18.29 86.98 19.01 85.25 19.01 81.86L19.01 62.42C21.74 61.56 24.48 60.84 27.22 59.98ZM44.21 54.00L44.21 63.58L34.85 63.58L34.85 54.00ZM59.83 63.58L50.18 63.58L50.18 54.00L59.83 54.00ZM50.18 79.56L50.18 69.34L59.83 69.34L59.83 79.56ZM34.85 69.34L44.21 69.34L44.21 79.56L34.85 79.56ZM28.73 89.14L34.85 89.14L34.85 85.46L59.83 85.46L59.83 88.70L66.24 88.70L66.24 48.10L28.73 48.10ZM60.26 31.82L60.26 23.04L53.64 23.04L53.64 31.82L48.17 31.82L48.17 37.94L53.64 37.94L53.64 44.78L60.26 44.78L60.26 37.94L69.12 37.94L69.12 31.82Z"/></svg>
