<svg xmlns="http://www.w3.org/2000/svg" xmlns:xlink="http://www.w3.org/1999/xlink" width="72.00000000000001" height="106.56000000000002"><path fill="red" stroke="red" d="M26.50 53.93L19.01 55.94L19.01 43.34L26.50 43.34L26.50 37.15L19.01 37.15L19.01 23.18L12.60 23.18L12.60 37.15L3.24 37.15L3.24 43.34L12.60 43.34L12.60 57.74C8.71 58.75 5.11 59.69 2.23 60.41L3.89 66.89C6.62 66.10 9.50 65.23 12.60 64.37L12.60 81.79C12.60 82.87 12.17 83.16 11.23 83.16C10.37 83.23 7.34 83.23 4.32 83.09C5.18 84.82 6.05 87.55 6.26 89.14C11.09 89.21 14.18 88.99 16.27 87.98C18.29 86.98 19.01 85.25 19.01 81.86L19.01 62.42C21.74 61.70 24.48 60.84 27.22 59.98ZM34.70 68.18L34.70 61.13L43.63 61.13L43.63 68.18ZM58.90 61.13L58.90 68.18L49.75 68.18L49.75 61.13ZM54.72 75.82C55.80 77.18 56.88 78.62 58.03 80.21L49.75 80.50L49.75 73.30L65.23 73.30L65.23 56.02L49.75 56.02L49.75 50.76L43.63 50.76L43.63 56.02L28.66 56.02L28.66 73.30L43.63 73.30L43.63 80.78C36.36 81.07 29.74 81.29 24.62 81.50L25.27 87.41C34.78 86.98 48.38 86.26 61.49 85.54C62.42 86.90 63.14 88.20 63.72 89.28L69.48 86.83C67.61 83.16 63.50 77.69 60.05 73.66ZM44.21 31.18L41.76 32.98C43.78 34.34 46.22 36.50 47.30 37.94L50.98 35.14C50.04 33.98 48.10 32.40 46.37 31.18L56.74 31.18C54.29 34.92 50.90 38.16 47.02 40.82C42.98 38.16 39.74 34.92 37.37 31.18ZM61.49 25.49L60.34 25.78L27.79 25.78L27.79 31.18L36.43 31.18L31.97 32.62C34.49 37.01 37.73 40.75 41.69 43.85C36.43 46.44 30.38 48.31 24.26 49.32C25.34 50.69 26.78 53.06 27.36 54.72C34.42 53.21 41.26 50.90 47.16 47.59C52.63 50.69 58.97 52.85 66.02 54.22C66.89 52.56 68.54 50.04 69.98 48.67C63.65 47.81 57.82 46.15 52.78 43.92C58.32 39.74 62.78 34.27 65.52 27.36ZM27.14 37.73C28.87 40.18 30.96 43.49 32.04 45.50L35.78 43.34C34.70 41.47 32.54 38.23 30.82 35.86Z"/></svg>
