<svg xmlns="http://www.w3.org/2000/svg" xmlns:xlink="http://www.w3.org/1999/xlink" width="72.00000000000001" height="106.56000000000002"><path fill="red" stroke="red" d="M61.70 24.62C60.62 27.50 58.61 31.61 57.02 34.27L61.42 36.07C63.14 33.77 65.16 30.17 67.18 26.78ZM36.14 34.20C35.50 31.61 33.41 27.86 31.39 24.84L26.78 26.86C28.73 29.81 30.67 33.91 31.32 36.43ZM23.18 54.36C21.17 54.94 19.22 55.58 17.28 56.16L17.28 43.34L23.47 43.34L23.47 37.15L17.28 37.15L17.28 23.26L11.16 23.26L11.16 37.15L3.24 37.15L3.24 43.34L11.16 43.34L11.16 57.89C7.78 58.82 4.68 59.62 2.23 60.26L3.74 66.74L11.16 64.44L11.16 81.14C11.16 82.15 10.80 82.44 9.86 82.44C9.07 82.44 6.41 82.44 3.53 82.37C4.39 84.10 5.18 86.98 5.40 88.56C9.86 88.56 12.82 88.34 14.76 87.26C16.63 86.26 17.28 84.46 17.28 81.14L17.28 62.57C19.51 61.85 21.82 61.13 23.98 60.41ZM55.08 42.34C54.36 44.57 53.21 47.66 52.06 50.04L41.76 50.04C41.26 47.95 40.10 44.71 38.88 42.34ZM68.83 74.23L68.83 68.98L48.74 68.98C48.96 67.61 49.03 66.31 49.03 64.94L49.03 64.44L65.16 64.44L65.16 59.40L49.03 59.40L49.03 55.15L67.46 55.15L67.46 50.04L57.89 50.04C58.90 48.10 60.12 45.79 61.20 43.63L56.23 42.34L68.11 42.34L68.11 36.94L55.08 36.94L55.08 23.18L49.46 23.18L49.46 36.94L43.92 36.94L43.92 23.18L38.38 23.18L38.38 36.94L25.78 36.94L25.78 42.34L38.59 42.34L33.62 43.70C34.49 45.65 35.42 48.10 36.00 50.04L26.35 50.04L26.35 55.15L42.98 55.15L42.98 59.40L28.58 59.40L28.58 64.44L42.98 64.44L42.98 64.87C42.98 66.24 42.91 67.54 42.62 68.98L24.48 68.98L24.48 74.23L40.61 74.23C38.09 78.05 33.12 81.65 23.18 84.31C24.41 85.54 26.28 87.62 27.00 88.99C38.95 85.10 44.64 79.78 47.23 74.23ZM45.94 79.13C52.42 82.01 60.77 86.62 64.87 89.71L68.98 85.46C64.66 82.44 56.23 78.05 49.90 75.38Z"/></svg>
