<svg xmlns="http://www.w3.org/2000/svg" xmlns:xlink="http://www.w3.org/1999/xlink" width="72.00000000000001" height="106.56000000000002"><path fill="red" stroke="red" d="M60.98 35.86L53.78 35.86L53.78 30.31L60.98 30.31ZM48.67 35.86L41.76 35.86L41.76 30.31L48.67 30.31ZM36.65 35.86L29.81 35.86L29.81 30.31L36.65 30.31ZM66.60 25.56L24.41 25.56L24.41 40.54L66.60 40.54ZM22.61 59.69L21.60 53.93L16.34 55.80L16.34 43.06L21.60 43.06L21.60 37.15L16.34 37.15L16.34 23.18L10.73 23.18L10.73 37.15L3.53 37.15L3.53 43.06L10.73 43.06L10.73 57.67C7.78 58.75 5.04 59.69 2.74 60.41L4.39 66.46L10.73 64.15L10.73 81.65C10.73 82.58 10.37 82.80 9.58 82.80C8.78 82.87 6.34 82.87 3.60 82.73C4.39 84.38 5.11 86.98 5.33 88.49C9.50 88.49 12.10 88.27 13.97 87.26C15.77 86.33 16.34 84.67 16.34 81.58L16.34 61.99ZM38.02 68.98C36.72 67.90 33.98 66.53 31.82 65.74L29.45 68.47L29.45 63.79L38.74 63.79L38.74 72.65C34.99 74.30 31.54 75.82 28.80 76.90C29.30 74.02 29.45 71.21 29.45 68.76C31.54 69.62 34.13 71.14 35.42 72.22ZM43.63 59.26L24.48 59.26L24.48 68.69C24.48 73.80 23.90 80.64 19.80 85.68C20.88 86.33 22.97 88.20 23.69 89.21C26.42 85.90 27.86 81.79 28.66 77.76L30.38 81.22C33.05 79.99 35.86 78.55 38.74 77.11L38.74 83.66C38.74 84.31 38.59 84.46 37.94 84.53C37.37 84.53 35.78 84.53 33.70 84.46C34.34 85.68 35.06 87.48 35.28 88.70C38.16 88.70 40.39 88.70 41.76 87.91C43.27 87.12 43.63 86.04 43.63 83.74ZM36.43 46.66C37.22 47.95 38.09 49.39 38.88 50.90L30.24 51.34C32.62 48.96 34.92 46.01 36.86 43.06L31.54 40.75C29.59 44.86 26.21 48.96 25.06 49.90C24.05 50.98 23.04 51.70 22.18 51.91C22.82 53.21 23.62 55.87 23.90 57.02C25.27 56.52 27.29 56.16 40.97 55.30C41.40 56.52 41.76 57.60 42.05 58.61L46.58 56.81C45.65 53.64 43.13 48.82 40.61 45.14ZM62.06 63.22C66.31 63.22 67.90 61.49 68.54 55.01C66.89 54.65 64.66 53.78 63.50 53.06C63.36 57.53 63.00 58.18 61.49 58.18L55.22 58.18C53.35 58.18 53.06 57.89 53.06 56.30L53.06 51.19L66.82 51.19L66.82 46.87L53.06 46.87L53.06 41.76L47.52 41.76L47.52 56.38C47.52 61.63 48.89 63.22 54.58 63.22ZM55.51 83.02C53.50 83.02 53.14 82.80 53.14 81.00L53.14 74.16L66.96 74.16L66.96 69.62L53.14 69.62L53.14 64.37L47.59 64.37L47.59 81.07C47.59 86.47 48.96 88.06 54.86 88.06L62.78 88.06C67.32 88.06 68.76 86.18 69.48 78.91C67.90 78.62 65.66 77.83 64.51 76.97C64.30 82.22 63.94 83.02 62.21 83.02Z"/></svg>
