<svg xmlns="http://www.w3.org/2000/svg" xmlns:xlink="http://www.w3.org/1999/xlink" width="72.00000000000001" height="106.56000000000002"><path fill="red" stroke="red" d="M21.96 52.85L16.49 54.79L16.49 42.91L22.10 42.91L22.10 37.15L16.49 37.15L16.49 23.18L10.80 23.18L10.80 37.15L3.60 37.15L3.60 42.91L10.80 42.91L10.80 56.81C7.78 57.82 5.04 58.75 2.74 59.40L4.39 65.23L10.80 62.86L10.80 81.65C10.80 82.58 10.44 82.80 9.65 82.80C8.93 82.87 6.48 82.87 3.89 82.73C4.68 84.38 5.47 87.05 5.54 88.56C9.65 88.56 12.31 88.34 14.18 87.34C15.91 86.40 16.49 84.67 16.49 81.65L16.49 60.70L22.97 58.32ZM44.21 46.58C42.62 45.00 39.53 42.55 36.94 40.75L44.57 40.75L44.57 36.07L37.44 36.07C37.51 35.06 37.58 34.13 37.58 33.19L37.58 32.62L43.42 32.62L43.42 28.01L37.58 28.01L37.58 23.18L32.33 23.18L32.33 28.01L25.99 28.01L25.99 32.62L32.33 32.62L32.33 33.19C32.33 34.13 32.33 35.06 32.18 36.07L24.55 36.07L24.55 40.75L30.89 40.75C29.59 43.49 27.14 46.08 22.68 48.02C23.76 49.03 25.34 50.76 26.06 51.91C30.10 49.82 32.83 47.30 34.56 44.57C36.79 46.37 39.17 48.46 40.54 49.82ZM34.42 71.93L34.42 68.90L43.42 68.90L43.42 71.93ZM34.42 62.57L43.42 62.57L43.42 65.52L34.42 65.52ZM58.39 62.57L58.39 65.52L49.61 65.52L49.61 62.57ZM58.39 71.93L49.61 71.93L49.61 68.90L58.39 68.90ZM69.05 78.19L49.61 78.19L49.61 75.46L64.22 75.46L64.22 59.04L49.61 59.04L49.61 56.38L66.96 56.38L66.96 51.77L49.61 51.77L49.61 48.60C49.90 48.96 50.11 49.32 50.26 49.61C53.35 47.88 55.51 45.72 56.88 43.34C59.83 45.65 62.78 48.31 64.44 50.18L68.11 46.87C66.46 45.22 63.58 42.84 60.91 40.75L68.04 40.75L68.04 36.07L59.26 36.07C59.33 35.28 59.40 34.49 59.40 33.77L59.40 32.69L66.17 32.69L66.17 28.08L59.40 28.08L59.40 23.18L54.14 23.18L54.14 28.08L47.74 28.08L47.74 32.69L54.14 32.69L54.14 33.77C54.14 34.49 54.14 35.28 54.07 36.07L46.51 36.07L46.51 40.75L52.78 40.75C51.84 42.70 50.04 44.50 47.09 45.79C47.66 46.22 48.24 46.87 48.89 47.66L43.42 47.66L43.42 51.77L26.21 51.77L26.21 56.38L43.42 56.38L43.42 59.04L28.87 59.04L28.87 75.46L43.42 75.46L43.42 78.19L23.47 78.19L23.47 82.73L43.42 82.73L43.42 89.21L49.61 89.21L49.61 82.73L68.98 82.73Z"/></svg>
