<svg xmlns="http://www.w3.org/2000/svg" xmlns:xlink="http://www.w3.org/1999/xlink" width="72.00000000000001" height="106.56000000000002"><path fill="red" stroke="red" d="M28.80 43.34L33.26 43.34L33.26 47.16L28.80 47.16ZM33.26 29.09L33.26 32.69L28.80 32.69L28.80 29.09ZM38.30 39.89L28.80 39.89L28.80 36.14L38.30 36.14ZM44.50 47.16L37.87 47.16L37.87 43.34L43.06 43.34L43.06 36.94C44.14 37.80 45.50 38.88 46.22 39.46C47.38 38.16 48.53 36.58 49.54 34.85L49.54 38.38L65.02 38.38L65.02 34.49L49.75 34.49C50.18 33.70 50.69 32.83 51.05 31.97L68.33 31.97L68.33 27.65L52.92 27.65C53.42 26.50 53.78 25.27 54.14 24.12L49.18 23.04C48.02 27.65 45.86 32.18 43.06 35.57L43.06 32.69L37.87 32.69L37.87 29.09L44.06 29.09L44.06 24.98L23.69 24.98L23.69 51.26L44.50 51.26ZM49.90 43.92L52.56 43.92L52.56 48.31L49.90 48.31ZM55.30 43.92L58.10 43.92L58.10 48.31L55.30 48.31ZM60.70 43.92L63.58 43.92L63.58 48.31L60.70 48.31ZM46.15 51.48L67.46 51.48L67.46 40.68L46.15 40.68ZM23.47 59.18L22.54 53.06L16.85 54.86L16.85 43.27L22.39 43.27L22.39 37.08L16.85 37.08L16.85 23.11L11.02 23.11L11.02 37.08L3.24 37.08L3.24 43.27L11.02 43.27L11.02 56.59C7.70 57.60 4.61 58.46 2.16 59.18L3.67 65.66C5.98 64.94 8.42 64.15 11.02 63.29L11.02 82.08C11.02 83.09 10.66 83.38 9.79 83.38C9.07 83.38 6.34 83.38 3.60 83.30C4.39 84.96 5.11 87.62 5.40 89.14C9.72 89.21 12.53 88.99 14.33 88.06C16.20 86.98 16.85 85.25 16.85 82.08L16.85 61.34ZM34.63 70.34L57.10 70.34L57.10 73.51L34.63 73.51ZM34.63 63.94L57.10 63.94L57.10 67.10L34.63 67.10ZM34.63 57.67L57.10 57.67L57.10 60.70L34.63 60.70ZM55.94 83.52C54.07 83.52 53.71 83.38 53.71 81.86L53.71 77.18L63.50 77.18L63.50 53.93L28.51 53.93L28.51 77.18L35.35 77.18C33.91 81.36 30.17 83.30 19.30 84.38C20.45 85.46 21.96 87.91 22.46 89.28C35.35 87.41 40.03 83.95 41.83 77.18L47.74 77.18L47.74 81.86C47.74 86.90 49.10 88.27 55.22 88.27L63.00 88.27C67.39 88.27 68.98 86.76 69.48 80.57C67.97 80.28 65.66 79.49 64.44 78.62C64.30 82.94 63.94 83.52 62.28 83.52Z"/></svg>
