<svg xmlns="http://www.w3.org/2000/svg" xmlns:xlink="http://www.w3.org/1999/xlink" width="72.00000000000001" height="106.56000000000002"><path fill="red" stroke="red" d="M24.19 32.47C23.54 29.88 21.96 25.92 20.52 22.90L14.62 24.48C15.91 27.50 17.42 31.68 18.07 34.27ZM45.50 42.48L57.24 42.48C56.02 50.54 54.22 57.38 51.41 63.36C48.67 57.31 46.73 50.47 45.29 42.98ZM69.12 42.48L69.12 36.29L47.45 36.29C48.46 32.40 49.39 28.30 50.18 24.19L43.34 23.11C41.33 35.14 37.66 46.73 32.04 54.07L32.11 51.91C32.18 51.05 32.18 49.03 32.18 49.03L17.50 49.03L17.50 40.61L34.92 40.61L34.92 34.34L3.38 34.34L3.38 40.61L11.23 40.61L11.23 55.01C11.23 64.73 10.15 75.60 1.87 84.67C3.53 85.82 5.69 87.62 6.84 89.06C16.06 79.06 17.50 66.89 17.50 55.15L25.70 55.15C25.34 73.58 24.84 80.21 23.69 81.72C23.26 82.51 22.61 82.73 21.60 82.73C20.45 82.73 18.07 82.73 15.48 82.44C16.34 84.17 16.99 86.76 17.21 88.56C20.16 88.70 23.18 88.70 24.91 88.42C26.93 88.13 28.15 87.48 29.38 85.82C31.10 83.45 31.61 75.89 32.04 55.22C33.62 56.59 35.71 58.82 36.65 60.05C38.30 57.82 39.89 55.30 41.26 52.49C42.91 58.97 44.93 64.94 47.59 70.13C43.63 75.89 38.23 80.35 31.18 83.59C32.47 84.89 34.34 87.91 34.99 89.42C41.69 85.97 47.02 81.65 51.26 76.32C54.94 81.65 59.47 85.97 65.30 88.99C66.24 87.12 68.40 84.53 69.84 83.23C63.79 80.42 58.97 75.89 55.22 70.20C59.40 62.64 62.14 53.57 63.94 42.48Z"/></svg>
