<svg xmlns="http://www.w3.org/2000/svg" xmlns:xlink="http://www.w3.org/1999/xlink" width="72.00000000000001" height="106.56000000000002"><path fill="red" stroke="red" d="M53.21 67.82L66.10 67.82L66.10 62.06L53.21 62.06L53.21 50.69L60.70 50.69C59.90 53.06 58.97 55.44 58.25 57.17L63.36 59.04C65.09 55.73 66.96 50.47 68.62 45.94L64.22 44.57L63.22 44.86L37.01 44.86C38.38 42.84 39.74 40.54 41.04 38.09L68.76 38.09L68.76 32.04L43.56 32.04C44.50 29.59 45.29 26.93 45.94 24.34L39.38 23.11C37.94 29.30 35.50 35.35 32.18 40.03L32.18 34.42L20.16 34.42L23.40 33.26C22.39 30.60 20.23 26.50 18.29 23.33L12.17 25.20C13.75 28.01 15.48 31.68 16.56 34.42L3.31 34.42L3.31 40.61L10.66 40.61C10.44 59.69 9.86 75.24 2.09 84.60C3.82 85.61 5.90 87.62 6.98 89.21C13.54 81.14 15.62 69.55 16.49 55.37L23.62 55.37C23.18 73.87 22.75 80.50 21.67 82.01C21.10 82.87 20.52 83.02 19.58 83.02C18.50 83.02 16.27 83.02 13.82 82.80C14.76 84.46 15.34 86.98 15.41 88.78C18.36 88.85 21.02 88.92 22.75 88.56C24.70 88.34 25.85 87.70 27.07 85.97C28.87 83.52 29.30 75.38 29.74 52.06L29.74 49.25L16.78 49.25C16.85 46.51 16.92 43.56 16.99 40.61L31.75 40.61C30.89 41.76 30.02 42.84 29.09 43.78C30.53 44.78 33.26 46.94 34.42 48.10L35.14 47.23L35.14 50.69L47.16 50.69L47.16 78.55C44.57 76.39 42.55 72.94 41.11 67.61C41.47 64.15 41.69 60.55 41.83 56.81L36.00 56.81C35.71 68.11 34.78 78.70 29.09 84.60C30.53 85.54 32.40 87.62 33.26 89.06C36.29 85.97 38.16 81.94 39.46 77.18C43.78 85.90 50.11 87.91 58.46 87.91L67.82 87.91C68.11 86.26 68.90 83.38 69.70 81.86C67.54 81.94 60.48 81.94 58.82 81.94C56.88 81.94 55.01 81.79 53.21 81.43Z"/></svg>
