<svg xmlns="http://www.w3.org/2000/svg" xmlns:xlink="http://www.w3.org/1999/xlink" width="72.00000000000001" height="106.56000000000002"><path fill="red" stroke="red" d="M25.34 32.47L25.34 41.40L13.32 41.40L13.32 32.47ZM13.32 55.73L13.32 47.09L25.34 47.09L25.34 55.73ZM34.78 79.56C32.98 75.46 29.23 68.40 26.28 63.29L21.38 65.66C22.54 67.75 23.76 70.20 24.98 72.58L13.32 76.90L13.32 61.49L31.46 61.49L31.46 26.64L6.91 26.64L6.91 76.03C6.91 78.84 5.62 80.21 4.54 80.93C5.54 82.51 6.91 85.46 7.34 87.26C8.93 85.90 11.38 84.46 27.43 77.76C28.30 79.56 29.02 81.14 29.52 82.51ZM41.40 50.83C42.19 45.29 42.98 38.81 43.63 33.12L50.11 33.12C50.04 38.16 49.82 44.28 48.60 50.83ZM58.75 82.22C58.10 82.22 57.53 82.08 57.10 81.79C56.74 81.58 56.59 81.07 56.59 80.57L56.59 61.34L52.34 61.34C52.70 59.90 53.06 58.54 53.42 57.10L68.76 57.10L68.76 50.83L54.58 50.83C55.66 44.21 55.87 38.16 55.94 33.12L67.46 33.12L67.46 27.29L34.92 27.29L34.92 33.12L37.87 33.12C37.22 41.04 36.07 50.98 34.99 57.10L47.23 57.10C44.71 66.53 39.82 76.39 30.53 84.67C31.97 85.68 34.20 87.84 35.21 89.21C43.06 81.94 48.02 73.51 51.05 65.16L51.05 80.78C51.05 84.46 51.41 85.61 52.63 86.54C53.86 87.62 55.66 87.91 57.46 87.91L61.78 87.91C63.22 87.91 64.94 87.70 65.95 87.05C67.10 86.47 67.90 85.46 68.40 83.95C68.83 82.51 69.05 78.55 69.19 75.02C67.68 74.52 65.81 73.44 64.73 72.58C64.73 76.03 64.66 78.98 64.44 80.28C64.30 81.00 63.86 81.50 63.50 81.86C63.07 82.08 62.28 82.22 61.49 82.22Z"/></svg>
