<svg xmlns="http://www.w3.org/2000/svg" xmlns:xlink="http://www.w3.org/1999/xlink" width="72.00000000000001" height="106.56000000000002"><path fill="red" stroke="red" d="M8.86 40.03C10.37 38.38 11.81 36.43 13.03 34.13L18.07 34.13L18.07 37.80C18.07 38.52 18.07 39.24 18.00 40.03ZM35.93 53.50C33.98 52.13 26.06 47.45 23.11 46.01L23.33 45.36L36.14 45.36L36.14 40.03L24.34 40.03C24.41 39.31 24.41 38.59 24.41 37.87L24.41 34.13L34.34 34.13L34.34 28.80L15.70 28.80C16.27 27.22 16.85 25.70 17.35 24.05L11.38 22.82C9.86 28.15 7.06 33.41 3.46 37.01C4.82 37.58 7.27 39.17 8.57 40.03L3.67 40.03L3.67 45.36L16.70 45.36C15.05 49.39 11.30 53.57 2.95 56.81C4.46 57.89 6.34 59.98 7.20 61.27C14.26 58.10 18.50 54.29 21.02 50.40C24.48 52.78 29.16 56.16 31.25 57.89ZM51.98 64.80L51.98 70.42L20.30 70.42L20.30 64.80ZM20.30 81.22L20.30 75.46L51.98 75.46L51.98 81.22ZM13.68 89.14L20.30 89.14L20.30 86.62L51.98 86.62L51.98 89.06L58.82 89.06L58.82 59.47L13.68 59.47ZM58.25 48.53L45.14 48.53L45.14 34.63L58.25 34.63ZM38.88 28.73L38.88 54.43L64.87 54.43L64.87 28.73Z"/></svg>
