<svg xmlns="http://www.w3.org/2000/svg" xmlns:xlink="http://www.w3.org/1999/xlink" width="72.00000000000001" height="106.56000000000002"><path fill="red" stroke="red" d="M30.02 62.06C28.66 60.12 22.39 51.84 20.30 49.46L20.30 44.35L29.09 44.35L29.09 38.16L20.30 38.16L20.30 23.11L14.04 23.11L14.04 38.16L3.89 38.16L3.89 44.35L13.32 44.35C11.16 53.64 6.70 64.22 2.16 70.20C3.17 71.71 4.75 74.38 5.47 76.25C8.64 71.86 11.66 65.16 14.04 57.96L14.04 89.14L20.30 89.14L20.30 57.38C22.54 60.84 24.91 64.87 26.06 67.32ZM59.69 51.77C58.03 58.32 55.44 64.08 52.13 68.98C48.74 63.94 46.15 58.10 44.28 51.77ZM63.07 45.43L61.99 45.65L39.02 45.65L39.02 33.62L67.90 33.62L67.90 27.43L32.54 27.43L32.54 47.45C32.54 58.75 31.75 74.23 23.62 85.03C25.13 85.75 27.86 87.91 28.94 89.06C36.29 79.49 38.38 65.52 38.88 54.07C41.11 61.70 44.14 68.47 48.10 74.23C44.21 78.48 39.82 81.72 34.99 83.88C36.36 85.03 38.16 87.62 39.02 89.14C43.85 86.69 48.24 83.45 52.13 79.42C55.80 83.52 60.19 86.90 65.30 89.35C66.24 87.70 68.33 85.03 69.77 83.81C64.51 81.65 60.05 78.34 56.30 74.30C61.49 67.18 65.23 58.03 67.25 46.73Z"/></svg>
