<svg xmlns="http://www.w3.org/2000/svg" xmlns:xlink="http://www.w3.org/1999/xlink" width="72.00000000000001" height="106.56000000000002"><path fill="red" stroke="red" d="M34.13 58.68C32.47 56.66 25.13 48.17 22.82 46.01L22.82 44.57L32.62 44.57L32.62 38.23L22.82 38.23L22.82 23.04L16.27 23.04L16.27 38.23L4.10 38.23L4.10 44.57L15.19 44.57C12.60 53.93 7.49 64.15 2.23 70.06C3.38 71.71 5.04 74.52 5.76 76.46C9.72 71.86 13.39 64.51 16.27 56.88L16.27 89.06L22.82 89.06L22.82 54.14C25.42 57.67 28.37 61.92 29.88 64.44ZM67.61 44.57L67.61 38.23L54.43 38.23L54.43 23.04L47.74 23.04L47.74 38.23L35.35 38.23L35.35 44.57L46.51 44.57C43.20 55.37 36.94 66.38 30.17 72.79C31.46 74.45 33.26 76.97 34.06 78.91C39.24 73.73 44.06 65.59 47.74 56.81L47.74 89.06L54.43 89.06L54.43 56.38C57.31 64.58 60.84 72.29 64.73 77.40C65.95 75.60 68.26 73.30 69.84 72.14C64.30 66.02 59.18 55.22 56.02 44.57Z"/></svg>
