<svg xmlns="http://www.w3.org/2000/svg" xmlns:xlink="http://www.w3.org/1999/xlink" width="72.00000000000001" height="106.56000000000002"><path fill="red" stroke="red" d="M34.20 45.86L34.20 54.36C34.20 55.22 33.91 55.44 32.83 55.51C31.90 55.58 28.22 55.66 24.62 55.44C25.42 56.95 26.28 58.90 26.64 60.55C31.75 60.55 35.28 60.55 37.80 59.76C40.25 59.04 40.97 57.82 40.97 54.65L40.97 45.86L56.95 45.86C54.72 48.96 52.13 51.98 49.82 54.07L55.80 56.38C59.69 52.78 63.86 47.23 67.39 41.90L62.28 40.18L60.98 40.54L48.31 40.54L48.74 40.03C47.23 39.38 45.58 38.66 43.63 38.09C49.46 35.57 55.08 32.33 59.33 28.87L55.01 25.49L53.57 25.85L11.81 25.85L11.81 31.18L45.94 31.18C42.91 32.90 39.53 34.42 36.29 35.71C32.47 34.56 28.44 33.55 24.84 32.98L21.02 36.79C25.63 37.66 30.82 38.95 35.57 40.54L5.62 40.54L5.62 45.86L25.34 45.86C19.44 50.26 11.45 54.00 4.25 56.16C5.69 57.46 7.56 59.76 8.42 61.34C17.35 58.25 27.14 52.49 33.55 45.86ZM24.98 71.71C20.23 76.61 11.16 81.22 2.88 83.30C4.32 84.67 6.34 87.12 7.34 88.78C15.77 86.04 25.20 80.35 30.46 74.09ZM67.75 70.20L67.75 64.37L39.46 64.37L39.46 60.91L32.69 60.91L32.69 64.37L4.39 64.37L4.39 70.20L32.69 70.20L32.69 89.21L39.46 89.21L39.46 70.20ZM41.40 74.59C49.18 78.70 58.90 84.82 63.72 88.85L69.05 85.18C63.86 81.07 53.93 75.24 46.37 71.42Z"/></svg>
