<svg xmlns="http://www.w3.org/2000/svg" xmlns:xlink="http://www.w3.org/1999/xlink" width="72.00000000000001" height="106.56000000000002"><path fill="red" stroke="red" d="M20.02 43.13L28.08 43.13L28.08 36.94L20.02 36.94L20.02 23.11L13.68 23.11L13.68 36.94L3.89 36.94L3.89 43.13L13.39 43.13C11.23 51.84 6.84 61.85 2.38 67.10C3.38 68.76 4.90 71.64 5.54 73.58C8.50 69.55 11.38 63.43 13.68 56.81L13.68 89.14L20.02 89.14L20.02 54.86C22.03 58.10 24.19 61.70 25.34 63.86L29.38 58.25C28.01 56.38 22.46 48.96 20.02 46.01ZM45.43 47.38L45.43 63.50L37.44 63.50L37.44 47.38ZM51.19 69.19L51.19 41.69L31.90 41.69L31.90 73.58L37.44 73.58L37.44 69.19ZM68.90 26.64L28.66 26.64L28.66 32.83L56.95 32.83L56.95 80.93C56.95 82.22 56.45 82.66 55.08 82.66C53.78 82.73 49.03 82.80 44.28 82.58C45.22 84.46 46.22 87.41 46.51 89.28C52.92 89.28 57.38 89.14 59.98 88.06C62.64 87.05 63.58 85.10 63.58 80.93L63.58 32.83L68.90 32.83Z"/></svg>
