<svg xmlns="http://www.w3.org/2000/svg" xmlns:xlink="http://www.w3.org/1999/xlink" width="72.00000000000001" height="106.56000000000002"><path fill="red" stroke="red" d="M26.35 60.34C25.13 58.32 20.23 50.47 18.36 47.88L18.36 43.92L25.13 43.92L25.13 37.73L18.36 37.73L18.36 23.11L12.31 23.11L12.31 37.73L3.82 37.73L3.82 43.92L12.02 43.92C10.15 53.28 6.26 64.22 2.09 70.06C3.24 71.78 4.75 74.66 5.33 76.54C7.92 72.50 10.37 66.31 12.31 59.69L12.31 89.14L18.36 89.14L18.36 55.87C20.09 59.11 21.89 62.78 22.75 65.02ZM38.38 52.27L42.98 52.27L42.98 62.64L38.38 62.64ZM51.41 62.64L46.58 62.64L46.58 52.27L51.41 52.27ZM50.40 72.14C50.98 73.58 51.55 75.24 52.13 76.90L47.16 77.54L47.16 67.68L55.08 67.68L55.08 47.23L47.38 47.23L47.38 40.90L55.30 40.90L55.30 35.71L34.34 35.71L34.34 40.90L42.34 40.90L42.34 47.23L34.85 47.23L34.85 67.68L42.48 67.68L42.48 78.12C38.30 78.62 34.42 79.06 31.39 79.34L32.69 84.74L53.57 81.86C54.07 84.02 54.58 85.90 54.79 87.55L58.90 86.33C58.18 82.22 56.30 75.89 54.29 71.06ZM26.64 25.78L26.64 52.42C26.64 62.64 26.28 76.54 21.67 86.18C23.11 86.76 25.63 88.27 26.71 89.21C31.61 78.98 32.26 63.36 32.26 52.34L32.26 31.54L57.67 31.54C57.60 60.84 57.17 86.11 62.93 88.78C66.46 90.43 69.26 88.27 70.06 76.54C69.12 75.67 67.54 73.44 66.53 72.00C66.38 77.47 65.88 82.80 65.59 82.66C63.07 81.65 63.22 54.22 63.72 25.78Z"/></svg>
