<svg xmlns="http://www.w3.org/2000/svg" xmlns:xlink="http://www.w3.org/1999/xlink" width="72.00000000000001" height="106.56000000000002"><path fill="red" stroke="red" d="M68.76 39.74L57.10 39.74C57.89 38.30 58.68 36.72 59.47 35.14L52.99 33.77C52.49 35.42 51.62 37.80 50.76 39.74L41.40 39.74L42.05 39.53C41.62 38.02 40.68 35.71 39.74 33.77L66.17 33.77L66.17 28.51L49.68 28.51C49.10 26.71 48.31 24.41 47.45 22.68L41.47 24.19C41.90 25.49 42.48 27.00 42.98 28.51L27.36 28.51L27.36 33.77L37.58 33.77L33.84 34.78C34.42 36.29 35.14 38.16 35.64 39.74L24.41 39.74L24.41 45.07L68.76 45.07ZM25.78 58.03C24.70 56.02 19.73 48.02 17.86 45.50L17.86 42.91L23.33 42.91L23.33 36.72L17.86 36.72L17.86 23.18L11.81 23.18L11.81 36.72L3.53 36.72L3.53 42.91L10.73 42.91C9.14 51.98 5.62 62.93 1.94 68.69C2.95 70.49 4.54 73.44 5.18 75.38C7.63 71.14 10.01 64.44 11.81 57.46L11.81 89.14L17.86 89.14L17.86 54.36C19.44 57.46 20.88 60.77 21.67 62.78ZM35.78 60.91L57.17 60.91L57.17 64.94L35.78 64.94ZM35.78 52.99L57.17 52.99L57.17 56.95L35.78 56.95ZM68.90 73.73L50.04 73.73L50.04 69.34L63.65 69.34L63.65 48.60L29.52 48.60L29.52 69.34L43.56 69.34L43.56 73.73L24.34 73.73L24.34 79.27L43.56 79.27L43.56 89.14L50.04 89.14L50.04 79.27L68.90 79.27Z"/></svg>
