<svg xmlns="http://www.w3.org/2000/svg" xmlns:xlink="http://www.w3.org/1999/xlink" width="72.00000000000001" height="106.56000000000002"><path fill="red" stroke="red" d="M23.83 58.54C22.90 56.74 18.86 50.40 17.14 48.02L17.14 44.06L23.33 44.06L23.33 37.87L17.14 37.87L17.14 23.18L11.81 23.18L11.81 37.87L3.67 37.87L3.67 44.06L10.87 44.06C9.07 52.92 5.69 63.07 2.09 68.54C2.95 70.27 4.25 73.22 4.82 75.10C7.42 70.78 9.94 63.86 11.81 56.52L11.81 89.14L17.14 89.14L17.14 55.30C18.58 58.03 19.87 60.98 20.59 62.71ZM31.54 34.27L68.40 34.27L68.40 28.58L50.98 28.58C50.47 26.71 49.54 24.41 48.53 22.61L42.91 24.26C43.56 25.63 44.06 27.07 44.57 28.58L25.70 28.58L25.70 57.02C25.70 66.46 25.27 77.90 19.73 85.82C21.02 86.54 23.54 88.63 24.41 89.64C30.60 81.00 31.54 67.32 31.54 57.02ZM44.71 35.42L39.46 35.42L39.46 38.95L32.76 38.95L32.76 43.34L39.46 43.34L39.46 46.87L33.98 46.87L33.98 51.34L49.97 51.34L49.97 46.87L44.71 46.87L44.71 43.34L51.62 43.34L51.62 38.95L44.71 38.95ZM59.33 72.00C59.04 68.18 57.46 61.99 55.51 57.17L51.19 58.18C52.99 63.00 54.43 69.34 54.72 73.15ZM45.43 63.86L38.16 63.86L38.16 58.75L45.43 58.75ZM49.82 54.43L33.98 54.43L33.98 68.26L49.82 68.26ZM40.54 78.77C40.54 76.18 39.60 71.93 38.38 68.69L34.42 69.48C35.42 72.79 36.22 77.11 36.22 79.85ZM46.80 78.84C47.59 75.89 48.46 72.50 49.18 69.48L44.35 68.40C44.06 71.64 43.27 76.18 42.55 79.56C38.23 80.35 34.13 81.07 30.96 81.58L31.97 86.62C37.94 85.46 45.36 84.02 52.49 82.51L52.13 77.90ZM69.05 47.59L65.30 47.59L65.30 35.42L59.83 35.42L59.83 47.59L51.98 47.59L51.98 52.85L59.83 52.85L59.83 82.94C59.83 83.74 59.62 83.95 58.75 83.95C58.03 84.02 55.51 84.02 52.92 83.95C53.64 85.46 54.36 87.84 54.65 89.21C58.46 89.21 61.20 89.06 62.93 88.20C64.73 87.34 65.30 85.75 65.30 82.87L65.30 52.85L69.05 52.85Z"/></svg>
