<svg xmlns="http://www.w3.org/2000/svg" xmlns:xlink="http://www.w3.org/1999/xlink" width="72.00000000000001" height="106.56000000000002"><path fill="red" stroke="red" d="M21.89 34.34C21.02 31.54 19.30 26.86 17.86 23.26L11.88 24.91C13.32 28.58 14.98 33.48 15.62 36.43ZM15.34 69.84C13.75 69.84 13.46 69.05 13.46 66.46L13.46 42.70L28.22 42.70L28.22 36.50L2.95 36.50L2.95 42.70L7.13 42.70L7.13 66.31C7.13 73.30 8.71 75.82 15.48 75.82L22.75 75.82C24.70 75.82 26.71 75.67 27.86 75.31C27.58 73.87 27.36 71.06 27.14 69.41C26.06 69.70 24.19 69.84 22.90 69.84ZM37.01 56.66L37.01 47.16L47.81 47.16C47.88 50.40 48.02 53.64 48.31 56.66ZM59.62 32.04L59.62 40.97L37.01 40.97L37.01 32.04ZM68.98 62.93L68.98 56.66L54.72 56.66C54.50 53.71 54.43 50.47 54.36 47.16L66.17 47.16L66.17 25.78L30.67 25.78L30.67 78.84C30.67 82.08 28.73 83.81 27.50 84.67C28.51 85.82 30.02 88.34 30.60 89.78C32.04 88.78 34.49 87.84 49.32 83.95C49.18 82.58 48.96 79.92 49.03 78.12L37.01 80.93L37.01 62.93L48.89 62.93C50.69 78.05 54.79 88.63 61.92 88.63C66.74 88.63 68.98 86.11 69.77 75.89C68.11 75.24 65.81 74.09 64.44 72.72C64.22 79.06 63.65 82.22 62.50 82.22C59.40 82.30 56.66 74.45 55.37 62.93Z"/></svg>
