<svg xmlns="http://www.w3.org/2000/svg" xmlns:xlink="http://www.w3.org/1999/xlink" width="72.00000000000001" height="106.56000000000002"><path fill="red" stroke="red" d="M66.89 33.91L66.89 29.09L22.46 29.09C23.18 27.65 23.83 26.21 24.41 24.70L17.93 23.04C14.69 31.46 9.00 39.46 2.59 44.42C4.18 45.29 7.06 47.23 8.28 48.38C12.38 44.64 16.49 39.60 19.87 33.91ZM61.56 42.26L61.56 37.80L19.80 37.80L19.80 42.26ZM37.15 67.03C37.94 63.29 38.74 59.04 39.38 55.30L9.07 55.30L9.07 61.13L16.42 61.13C16.20 68.04 14.69 77.33 4.25 84.60C5.90 85.54 8.14 87.55 9.14 88.85C20.74 80.42 22.32 69.19 22.46 61.13L31.90 61.13C31.25 65.30 30.31 69.55 29.52 72.72L41.11 72.72C40.68 78.84 40.18 81.50 39.31 82.30C38.81 82.87 38.09 82.94 37.01 82.94C35.71 82.94 32.54 82.87 29.23 82.58C30.24 84.17 30.96 86.54 31.10 88.34C34.70 88.49 38.09 88.49 39.89 88.27C42.05 88.13 43.34 87.62 44.64 86.33C46.22 84.46 46.94 80.06 47.52 69.48C47.59 68.62 47.66 67.03 47.66 67.03ZM11.74 46.15L11.74 51.19L50.83 51.19C51.05 74.16 52.42 89.14 62.93 89.14C67.61 89.14 68.83 85.75 69.41 76.10C68.11 75.31 66.38 73.80 65.16 72.43C65.09 78.77 64.73 83.02 63.29 83.02C57.67 83.02 56.88 67.97 56.95 46.15Z"/></svg>
