<svg xmlns="http://www.w3.org/2000/svg" xmlns:xlink="http://www.w3.org/1999/xlink" width="72.00000000000001" height="106.56000000000002"><path fill="red" stroke="red" d="M34.85 26.50C32.47 35.57 27.94 43.70 21.96 48.96C23.26 50.40 25.49 53.64 26.28 55.08C33.19 48.82 38.59 38.88 41.54 28.15ZM24.55 32.26C21.67 29.52 15.77 26.14 11.16 24.05L7.20 28.87C11.88 31.10 17.57 34.78 20.23 37.51ZM20.23 51.55C17.42 48.96 11.59 45.65 7.06 43.70L3.17 48.46C7.78 50.69 13.46 54.29 16.13 56.88ZM19.44 60.48C15.19 68.83 9.50 78.26 5.54 83.88L11.38 88.42C15.62 81.50 20.59 72.72 24.48 65.02ZM29.23 52.20L29.23 58.39L37.58 58.39C36.22 70.78 32.11 79.42 22.90 84.31C24.34 85.46 26.71 88.13 27.58 89.42C37.80 83.23 42.62 73.22 44.42 58.39L56.16 58.39C55.44 74.16 54.50 80.21 53.28 81.72C52.56 82.58 51.98 82.73 50.90 82.73C49.75 82.73 47.23 82.66 44.35 82.37C45.36 84.10 46.01 86.69 46.15 88.49C49.32 88.63 52.34 88.63 54.22 88.34C56.23 88.13 57.67 87.55 58.97 85.82C61.06 83.30 61.92 75.67 62.86 55.01C62.86 54.14 62.93 52.20 62.93 52.20ZM43.63 25.49L43.63 31.90L51.12 31.90C54.29 40.54 59.47 49.39 65.66 54.86C66.60 52.78 68.62 49.54 69.91 47.95C63.72 43.34 58.54 34.42 56.16 25.49Z"/></svg>
