<svg xmlns="http://www.w3.org/2000/svg" xmlns:xlink="http://www.w3.org/1999/xlink" width="72.00000000000001" height="106.56000000000002"><path fill="red" stroke="red" d="M24.19 32.33C21.17 29.95 15.12 26.21 10.87 23.90L6.91 28.58C11.30 31.18 17.21 35.06 20.09 37.58ZM19.80 50.62C16.85 48.53 10.87 45.43 6.77 43.49L3.17 48.46C7.42 50.69 13.25 54.00 16.06 56.16ZM11.23 88.27C15.48 81.50 20.23 72.94 23.98 65.45L19.15 60.98C14.98 69.19 9.43 78.34 5.54 83.81ZM58.25 68.18L58.25 79.99L34.92 79.99L34.92 68.18ZM28.30 88.99L34.92 88.99L34.92 85.90L58.25 85.90L58.25 88.49L65.23 88.49L65.23 62.28L28.30 62.28ZM49.82 50.54L49.82 40.97L66.53 40.97L66.53 34.99L49.82 34.99L49.82 23.76L42.98 23.76L42.98 34.99L34.85 34.99C35.71 32.62 36.58 30.17 37.15 27.72L30.60 26.21C28.80 33.62 25.63 41.18 21.60 46.08C23.11 46.94 26.06 48.60 27.29 49.68C29.09 47.30 30.74 44.28 32.33 40.97L42.98 40.97L42.98 50.54L22.54 50.54L22.54 56.66L68.98 56.66L68.98 50.54Z"/></svg>
