<svg xmlns="http://www.w3.org/2000/svg" xmlns:xlink="http://www.w3.org/1999/xlink" width="72.00000000000001" height="106.56000000000002"><path fill="red" stroke="red" d="M21.17 32.26C18.65 30.10 13.61 26.57 10.01 24.26L6.12 28.87C9.72 31.46 14.62 35.21 17.14 37.51ZM17.71 50.26C14.90 48.38 9.50 45.36 5.76 43.34L2.45 48.46C6.26 50.76 11.59 53.93 14.26 55.94ZM9.58 87.98C13.18 81.29 17.50 72.58 20.66 65.02L15.91 61.34C12.31 69.55 7.49 78.77 4.10 84.31ZM32.83 73.08C33.05 71.42 33.12 69.84 33.12 68.33L56.66 68.33L56.66 73.08ZM56.66 59.04L56.66 63.79L33.12 63.79L33.12 59.04ZM63.50 54.14L26.50 54.14L26.50 67.10C26.50 72.65 26.06 79.63 22.10 84.74C23.47 85.54 26.21 88.13 27.22 89.50C29.88 86.26 31.39 82.01 32.18 77.76L56.66 77.76L56.66 82.15C56.66 83.02 56.30 83.30 55.30 83.38C54.43 83.38 50.98 83.38 47.81 83.30C48.67 84.82 49.61 87.34 49.82 88.99C54.79 88.99 58.25 88.99 60.48 87.98C62.78 87.12 63.50 85.46 63.50 82.22ZM48.17 45.50L48.17 41.04L65.59 41.04L65.59 36.36L48.17 36.36L48.17 32.26L67.68 32.26L67.68 27.36L48.17 27.36L48.17 23.11L41.47 23.11L41.47 27.36L22.10 27.36L22.10 32.26L41.47 32.26L41.47 36.36L23.98 36.36L23.98 41.04L41.47 41.04L41.47 45.50L19.87 45.50L19.87 50.47L69.05 50.47L69.05 45.50Z"/></svg>
