<svg xmlns="http://www.w3.org/2000/svg" xmlns:xlink="http://www.w3.org/1999/xlink" width="72.00000000000001" height="106.56000000000002"><path fill="red" stroke="red" d="M22.61 30.96C20.02 28.44 14.54 25.42 10.30 23.62L6.55 28.58C10.87 30.60 16.20 33.98 18.65 36.43ZM19.01 49.46C16.27 47.09 10.87 44.21 6.55 42.55L2.88 47.59C7.27 49.46 12.60 52.63 15.12 55.01ZM16.42 61.20C12.89 69.48 8.06 78.77 4.75 84.31L10.73 88.27C14.33 81.50 18.43 72.86 21.67 65.23ZM47.95 72.58L47.95 68.18L57.67 68.18L57.67 72.58ZM32.83 68.18L41.62 68.18L41.62 72.58L32.83 72.58ZM41.62 59.40L41.62 63.58L32.83 63.58L32.83 59.40ZM57.67 59.40L57.67 63.58L47.95 63.58L47.95 59.40ZM39.60 41.76L50.26 41.76L50.26 45.72L39.60 45.72ZM39.60 33.19L50.26 33.19L50.26 37.01L39.60 37.01ZM69.19 72.58L64.08 72.58L64.08 54.50L47.95 54.50L47.95 51.12L68.83 51.12L68.83 45.72L56.66 45.72L56.66 41.76L65.52 41.76L65.52 37.01L56.66 37.01L56.66 33.19L66.74 33.19L66.74 28.30L56.66 28.30L56.66 23.04L50.26 23.04L50.26 28.30L39.60 28.30L39.60 23.04L33.19 23.04L33.19 28.30L23.83 28.30L23.83 33.19L33.19 33.19L33.19 37.01L25.42 37.01L25.42 41.76L33.19 41.76L33.19 45.72L21.10 45.72L21.10 51.12L41.62 51.12L41.62 54.50L26.57 54.50L26.57 72.58L20.45 72.58L20.45 77.90L26.57 77.90L26.57 88.99L32.83 88.99L32.83 77.90L57.67 77.90L57.67 82.66C57.67 83.59 57.31 83.81 56.23 83.88C55.30 83.95 51.70 83.95 48.24 83.81C48.96 85.25 49.97 87.48 50.40 89.06C55.44 89.06 58.90 89.06 61.13 88.20C63.29 87.26 64.08 85.75 64.08 82.73L64.08 77.90L69.19 77.90Z"/></svg>
