<svg xmlns="http://www.w3.org/2000/svg" xmlns:xlink="http://www.w3.org/1999/xlink" width="72.00000000000001" height="106.56000000000002"><path fill="red" stroke="red" d="M21.10 32.26C18.65 30.10 13.54 26.57 9.94 24.26L6.12 28.80C9.72 31.46 14.62 35.21 17.06 37.51ZM17.64 50.26C14.90 48.38 9.50 45.36 5.76 43.34L2.45 48.46C6.26 50.76 11.59 54.00 14.26 55.94ZM14.26 61.34C11.23 69.55 7.06 78.70 4.10 84.31L9.79 87.70C12.96 80.93 16.63 72.29 19.37 64.73ZM47.38 74.81C46.37 73.66 42.48 69.77 40.32 67.90C40.75 65.16 40.90 62.42 40.90 59.76L40.90 50.69L47.09 50.69L47.09 45.65L29.66 45.65L29.66 50.69L36.00 50.69L36.00 59.62C36.00 61.20 35.93 62.86 35.78 64.44C35.06 61.85 33.91 58.25 32.76 55.44L29.30 56.38C30.53 59.90 31.97 64.58 32.62 67.39L35.57 66.24C34.78 71.50 32.69 76.90 26.93 81.22C28.08 82.01 29.81 83.81 30.46 84.89C35.06 81.36 37.66 77.26 39.10 73.08C40.90 75.24 42.77 77.76 43.70 79.34ZM44.78 66.74C46.01 64.01 47.59 59.83 49.03 56.16L44.64 54.65C43.92 57.82 42.41 62.50 41.18 65.45ZM61.70 45.72C60.48 52.34 58.82 58.46 56.52 63.86C55.51 57.24 54.72 48.96 54.29 40.03L68.26 40.03L68.26 34.13L64.73 34.13L68.26 30.67C66.24 28.37 62.21 25.27 58.82 23.33L55.22 26.71C58.46 28.80 62.28 31.90 64.22 34.13L54.00 34.13C53.86 30.67 53.78 27.07 53.71 23.47L47.66 23.47C47.74 27.14 47.88 30.67 48.02 34.13L22.10 34.13L22.10 53.57C22.10 63.22 21.53 76.46 15.55 85.75C16.85 86.40 19.51 88.13 20.52 89.21C26.93 79.27 28.01 64.15 28.01 53.57L28.01 40.03L48.31 40.03C48.96 52.99 50.11 64.22 52.06 72.65C49.10 77.33 45.50 81.29 41.18 84.38C42.48 85.39 44.71 87.41 45.65 88.56C48.82 86.04 51.62 83.02 54.07 79.70C56.16 85.39 58.97 88.63 62.64 88.70C65.38 88.78 68.40 85.82 69.91 73.66C68.83 73.15 66.24 71.57 65.16 70.27C64.66 77.11 63.86 80.93 62.71 80.93C61.06 80.86 59.62 77.98 58.32 73.08C62.50 65.59 65.45 56.74 67.39 46.58Z"/></svg>
