<svg xmlns="http://www.w3.org/2000/svg" xmlns:xlink="http://www.w3.org/1999/xlink" width="72.00000000000001" height="106.56000000000002"><path fill="red" stroke="red" d="M26.64 49.25L31.90 49.25L31.90 54.58L26.64 54.58ZM31.90 30.17L31.90 34.92L26.64 34.92L26.64 30.17ZM38.52 44.64L26.64 44.64L26.64 39.53L38.52 39.53ZM45.58 54.58L37.22 54.58L37.22 49.25L43.99 49.25L43.99 44.14C45.58 45.00 47.81 46.66 48.82 47.52C50.26 45.29 51.62 42.48 52.78 39.38L68.98 39.38L68.98 33.26L54.65 33.26C55.44 30.38 56.09 27.36 56.52 24.26L50.26 23.11C49.25 30.67 47.16 38.02 43.99 43.13L43.99 34.92L37.22 34.92L37.22 30.17L44.64 30.17L44.64 25.13L21.31 25.13L21.31 59.62L45.58 59.62ZM67.97 56.16L67.97 50.11L48.89 50.11L48.89 56.16ZM20.74 31.10C18.29 28.94 13.39 25.85 9.58 23.90L5.76 28.66C9.58 30.82 14.40 34.20 16.70 36.43ZM17.93 49.61C15.48 47.59 10.44 44.71 6.62 42.84L2.88 47.66C6.77 49.68 11.66 52.85 14.04 54.94ZM13.75 62.06C10.87 70.20 6.91 79.42 4.10 84.96L10.15 88.42C13.18 81.72 16.56 73.15 19.08 65.59ZM30.10 68.54L36.14 68.54L36.14 81.65L30.10 81.65ZM47.30 68.54L47.30 81.65L41.26 81.65L41.26 68.54ZM58.46 68.54L58.46 81.65L52.42 81.65L52.42 68.54ZM64.58 81.65L64.58 63.29L24.34 63.29L24.34 81.65L18.58 81.65L18.58 87.26L69.12 87.26L69.12 81.65Z"/></svg>
