<svg xmlns="http://www.w3.org/2000/svg" xmlns:xlink="http://www.w3.org/1999/xlink" width="72.00000000000001" height="106.56000000000002"><path fill="red" stroke="red" d="M23.11 30.67C20.23 28.30 14.62 25.34 10.22 23.76L6.62 28.58C11.16 30.53 16.63 33.62 19.30 36.00ZM19.44 49.39C16.56 47.09 10.94 44.35 6.48 42.84L2.95 47.74C7.49 49.54 12.96 52.56 15.70 54.94ZM13.46 61.49C10.87 69.62 7.34 78.77 4.75 84.31L10.94 87.70C13.61 81.00 16.70 72.43 19.01 65.02ZM53.42 68.90C52.13 70.85 49.68 73.58 47.81 75.53L47.02 75.24L47.02 65.23L41.11 65.23L41.11 74.81C33.70 77.62 26.21 80.50 21.10 82.15L23.76 87.41C28.80 85.32 34.99 82.66 41.11 79.92L41.11 83.66C41.11 84.46 40.82 84.67 40.03 84.67C39.17 84.74 36.50 84.74 33.62 84.67C34.42 86.04 35.42 88.06 35.78 89.57C39.89 89.57 42.62 89.57 44.57 88.70C46.58 87.77 47.02 86.62 47.02 83.81L47.02 80.35C52.85 82.73 58.68 85.46 62.35 87.62L65.81 83.30C62.57 81.50 57.82 79.34 52.70 77.33C54.65 75.74 56.74 73.73 58.68 71.71ZM38.88 73.73C38.02 72.22 35.86 70.13 33.98 68.76L29.81 71.57C31.54 73.01 33.62 75.31 34.42 76.82ZM38.88 53.93L49.61 53.93L49.61 58.18L38.88 58.18ZM38.88 45.14L49.61 45.14L49.61 48.96L38.88 48.96ZM31.32 37.37L57.31 37.37L57.31 40.75L31.32 40.75ZM31.32 29.95L57.31 29.95L57.31 33.19L31.32 33.19ZM68.69 63.29L68.69 58.18L55.80 58.18L55.80 53.93L66.10 53.93L66.10 48.96L55.80 48.96L55.80 45.14L63.72 45.14L63.72 25.56L25.20 25.56L25.20 45.14L32.69 45.14L32.69 48.96L22.68 48.96L22.68 53.93L32.69 53.93L32.69 58.18L20.09 58.18L20.09 63.29L31.18 63.29C27.43 66.46 22.18 69.34 17.35 70.92C18.65 71.93 20.23 73.80 21.10 75.24C27.14 72.79 33.77 68.18 37.87 63.29L50.83 63.29C54.72 68.11 60.77 72.79 66.17 75.24C67.10 73.94 68.76 71.93 69.98 70.85C65.59 69.26 60.77 66.46 57.17 63.29Z"/></svg>
