<svg xmlns="http://www.w3.org/2000/svg" xmlns:xlink="http://www.w3.org/1999/xlink" width="72.00000000000001" height="106.56000000000002"><path fill="red" stroke="red" d="M66.96 30.67L52.27 30.67C51.77 28.30 50.98 25.34 50.11 23.04L43.63 23.90C44.21 25.92 44.78 28.51 45.22 30.67L29.88 30.67L29.88 36.50L66.96 36.50ZM11.52 55.01C10.94 50.26 9.14 41.83 7.42 35.28L2.52 36.50C4.18 43.13 5.83 51.77 6.41 56.66ZM22.97 51.34C24.91 47.52 27.22 41.62 29.30 36.58L23.69 34.49C22.68 38.81 20.59 45.07 19.01 49.03L19.01 48.38L19.01 23.54L12.96 23.54L12.96 48.38C12.96 61.06 11.88 74.38 2.66 84.38C4.03 85.46 6.19 87.70 7.13 89.14C12.02 83.88 14.98 77.76 16.70 71.35C19.22 74.74 22.03 78.77 23.54 81.22L28.08 75.96C26.64 74.09 20.81 66.96 18.14 64.01C18.79 59.26 19.01 54.36 19.01 49.46ZM58.46 67.82L58.46 79.63L37.94 79.63L37.94 67.82ZM31.54 89.06L37.94 89.06L37.94 85.61L58.46 85.61L58.46 88.70L65.23 88.70L65.23 62.28L31.54 62.28ZM57.67 50.33C59.47 46.94 61.27 42.70 62.93 38.74L56.38 37.08C55.22 41.04 53.14 46.44 51.26 50.33L38.02 50.33L43.20 48.89C42.77 45.94 41.04 41.33 39.46 37.80L33.77 39.17C35.28 42.70 36.79 47.45 37.22 50.33L28.30 50.33L28.30 56.23L69.05 56.23L69.05 50.33Z"/></svg>
