<svg xmlns="http://www.w3.org/2000/svg" xmlns:xlink="http://www.w3.org/1999/xlink" width="72.00000000000001" height="106.56000000000002"><path fill="red" stroke="red" d="M42.05 34.20L42.05 39.17L29.02 39.17L29.02 34.20ZM23.18 44.21L48.10 44.21L48.10 34.20L68.11 34.20L68.11 28.73L48.10 28.73L48.10 23.18L42.05 23.18L42.05 28.73L29.02 28.73L29.02 23.18L23.18 23.18L23.18 28.73L3.89 28.73L3.89 34.20L23.18 34.20ZM31.18 53.06L40.10 53.06L40.10 63.72L31.18 63.72ZM45.86 68.76L45.86 48.10L25.70 48.10L25.70 68.76ZM9.65 89.50C12.74 85.61 16.34 79.63 18.65 74.45L12.31 72.79C9.86 77.76 6.19 83.45 3.17 86.83ZM20.88 60.77L20.88 41.98L14.98 41.98L14.98 47.38L5.18 47.38L5.18 53.06L14.98 53.06L14.98 62.57C10.80 63.79 6.98 64.94 3.96 65.74L5.26 71.50C10.66 69.77 17.21 67.54 23.62 65.38L22.90 60.19ZM24.34 74.81C25.20 79.34 25.70 85.25 25.78 88.78L32.33 87.77C32.26 84.31 31.46 78.48 30.60 74.16ZM38.95 74.66C40.75 79.06 42.41 85.03 42.98 88.63L49.61 87.19C48.96 83.52 47.09 77.83 45.22 73.44ZM63.29 69.34C64.87 69.34 66.46 69.34 67.46 68.98C67.25 67.54 67.10 65.30 66.96 63.72C66.02 64.01 64.30 64.15 63.14 64.15L57.60 64.15C56.45 64.15 56.30 63.50 56.30 61.49L56.30 54.72L65.38 54.72L65.38 48.82L56.30 48.82L56.30 42.12L50.33 42.12L50.33 61.34C50.33 67.18 51.62 69.34 57.31 69.34ZM53.57 74.74C56.88 79.34 60.84 85.61 62.57 89.50L69.05 86.47C67.18 82.58 63.00 76.54 59.69 72.14Z"/></svg>
