<svg xmlns="http://www.w3.org/2000/svg" xmlns:xlink="http://www.w3.org/1999/xlink" width="72.00000000000001" height="106.56000000000002"><path fill="red" stroke="red" d="M11.09 54.14C10.51 49.61 8.71 41.62 7.06 35.42L2.45 36.50C4.03 42.70 5.54 50.90 6.19 55.73ZM24.98 77.47C23.76 75.53 18.72 67.75 16.63 64.94C17.28 59.83 17.42 54.58 17.42 49.32L17.42 23.98L11.81 23.98L11.81 49.32C11.81 61.92 10.87 74.74 2.81 84.82C4.03 85.68 6.05 87.77 6.91 89.14C11.30 83.95 13.90 78.05 15.41 71.86C17.42 75.24 19.66 79.34 20.81 81.65ZM35.21 73.51C32.47 76.97 28.30 80.78 24.41 83.38C25.85 84.38 28.08 86.47 29.16 87.62C33.05 84.60 37.80 79.70 41.04 75.53ZM52.27 77.11C56.59 80.14 61.85 84.60 64.37 87.55L68.47 83.23C65.88 80.28 60.48 76.10 56.16 73.22ZM32.40 40.10L41.90 40.10C40.90 42.19 39.60 44.14 38.02 45.94C36.43 44.21 34.13 42.19 32.18 40.68ZM58.25 57.89C57.24 60.05 55.22 63.36 53.78 65.45L58.03 67.39L49.54 67.39L49.54 56.38L47.66 56.38C51.48 54.50 55.01 51.91 58.18 48.60C60.91 51.34 63.29 54.00 64.87 56.16L69.19 52.34C67.46 50.04 64.73 47.16 61.63 44.28C64.58 39.96 66.89 34.78 68.33 28.66L64.66 27.50L63.65 27.65L48.96 27.65L48.96 33.05L61.27 33.05C60.26 35.71 58.90 38.23 57.38 40.61C55.37 38.81 53.35 37.22 51.48 35.71L48.31 38.23C48.46 37.73 48.67 37.22 48.82 36.72L45.36 35.21L44.35 35.42L41.62 35.42L41.62 32.33L47.45 32.33L47.45 27.43L41.62 27.43L41.62 23.83L36.22 23.83L36.22 35.42L34.13 35.42C34.34 34.63 34.49 33.84 34.70 33.12L29.88 32.04C28.87 36.58 27.07 41.11 24.55 44.28C25.20 42.12 25.92 39.96 26.57 37.94L20.95 36.07C20.38 40.68 18.86 47.45 17.57 51.70L21.53 53.21C22.46 50.98 23.40 47.95 24.34 44.78C25.63 45.43 27.50 46.80 28.30 47.52C29.02 46.58 29.66 45.58 30.31 44.50C31.97 45.94 33.70 47.66 34.99 49.10C31.90 51.91 28.37 54.00 24.77 55.44C25.85 56.45 27.36 58.46 28.01 59.69C36.43 56.02 43.99 49.32 47.88 39.38C49.90 41.04 51.98 42.84 54.07 44.78C51.05 48.02 47.45 50.62 43.56 52.20C44.64 53.21 45.94 55.08 46.73 56.38L43.34 56.38L43.34 67.39L35.42 67.39L39.38 65.38C38.66 63.36 36.72 60.48 34.99 58.39L30.24 60.62C31.75 62.64 33.34 65.38 34.20 67.39L25.27 67.39L25.27 72.65L43.34 72.65L43.34 89.28L49.54 89.28L49.54 72.65L68.47 72.65L68.47 67.39L58.25 67.39C59.76 65.59 61.70 62.93 63.58 60.19Z"/></svg>
