<svg xmlns="http://www.w3.org/2000/svg" xmlns:xlink="http://www.w3.org/1999/xlink" width="72.00000000000001" height="106.56000000000002"><path fill="red" stroke="red" d="M59.11 22.90C46.66 25.34 25.27 26.78 7.13 27.36C7.92 28.73 8.86 31.10 9.00 32.62C27.14 32.18 48.96 30.82 63.43 28.15ZM40.54 41.18C39.96 38.74 38.30 34.85 36.72 31.97L30.53 33.62C32.04 36.50 33.55 40.61 34.06 43.13ZM24.70 41.11C23.83 38.81 21.89 35.28 19.87 32.62L13.61 34.63C15.48 37.30 17.42 41.04 18.14 43.49ZM53.71 67.61L39.10 67.61L39.10 60.98L53.71 60.98ZM39.10 49.25L53.71 49.25L53.71 55.58L39.10 55.58ZM69.19 55.58L60.41 55.58L60.41 43.85L53.14 43.85C55.87 40.75 59.11 36.29 61.92 32.33L54.94 30.17C52.92 33.98 49.32 39.38 46.51 42.70L49.68 43.85L11.45 43.85L11.45 49.25L32.33 49.25L32.33 55.58L2.95 55.58L2.95 60.98L32.33 60.98L32.33 67.61L10.15 67.61L10.15 72.94L32.33 72.94L32.33 81.14C32.33 82.37 31.82 82.73 30.46 82.80C29.02 82.80 23.83 82.80 18.86 82.66C19.94 84.38 21.02 87.34 21.46 89.21C27.94 89.21 32.40 89.06 35.28 88.06C38.16 87.12 39.10 85.25 39.10 81.29L39.10 72.94L60.41 72.94L60.41 60.98L69.19 60.98Z"/></svg>
