<svg xmlns="http://www.w3.org/2000/svg" xmlns:xlink="http://www.w3.org/1999/xlink" width="72.00000000000001" height="106.56000000000002"><path fill="red" stroke="red" d="M22.10 44.50L13.39 44.50L13.39 23.54L7.42 23.54L7.42 52.27C7.42 63.00 6.91 76.46 2.81 85.68C4.25 86.54 6.41 88.42 7.49 89.71C11.16 82.58 12.60 73.08 13.10 63.72L21.74 63.72L21.74 89.14L27.79 89.14L27.79 57.74L13.32 57.74C13.39 55.87 13.39 54.07 13.39 52.27L13.39 50.40L28.15 50.40L28.15 25.13L22.10 25.13ZM59.90 50.76C58.46 57.24 56.23 63.00 53.35 68.04C50.40 62.93 48.24 57.10 46.66 50.76ZM63.07 44.42L61.92 44.64L40.90 44.64L40.90 33.34L66.60 33.34L66.60 27.29L34.63 27.29L34.63 52.85C34.63 63.00 34.06 76.68 28.94 85.97C30.60 86.76 33.05 88.49 34.27 89.64C40.10 79.49 40.90 64.66 40.90 52.92L40.90 50.76C42.84 59.47 45.72 67.25 49.54 73.66C46.01 78.12 41.83 81.65 37.22 83.95C38.66 85.18 40.46 87.70 41.40 89.42C45.94 86.83 49.90 83.52 53.42 79.34C56.74 83.30 60.55 86.62 65.09 88.99C66.17 87.26 68.18 84.74 69.70 83.52C64.87 81.29 60.77 77.98 57.38 73.87C62.14 66.46 65.52 57.17 67.25 45.72Z"/></svg>
