<svg xmlns="http://www.w3.org/2000/svg" xmlns:xlink="http://www.w3.org/1999/xlink" width="72.00000000000001" height="106.56000000000002"><path fill="red" stroke="red" d="M45.07 32.98L45.07 51.19L18.72 51.19C20.16 45.58 21.67 38.81 22.75 32.98ZM67.39 51.19L52.13 51.19L52.13 32.98L64.08 32.98L64.08 26.50L8.86 26.50L8.86 32.98L15.48 32.98C14.11 41.26 11.74 51.34 9.94 57.60L37.66 57.60C29.16 66.89 15.77 75.60 3.53 79.99C5.11 81.36 7.20 84.10 8.28 85.82C21.60 80.28 35.86 70.06 45.07 58.61L45.07 80.71C45.07 82.01 44.57 82.37 43.27 82.37C41.90 82.44 37.58 82.44 33.12 82.30C34.13 84.17 35.35 87.34 35.71 89.35C41.83 89.35 45.94 89.14 48.53 87.98C51.12 86.83 52.13 84.89 52.13 80.71L52.13 57.60L67.39 57.60Z"/></svg>
