<svg xmlns="http://www.w3.org/2000/svg" xmlns:xlink="http://www.w3.org/1999/xlink" width="72.00000000000001" height="106.56000000000002"><path fill="red" stroke="red" d="M44.50 48.53L41.54 50.76C42.55 51.26 43.63 51.84 44.64 52.49L26.57 53.42C29.30 51.91 32.11 50.26 34.78 48.53ZM27.07 37.15C29.23 35.93 31.39 34.70 33.48 33.34L46.44 33.34C45.22 34.34 44.14 35.42 42.84 36.36ZM67.97 73.87L39.10 73.87L39.10 68.69L61.56 68.69L61.56 63.29L39.10 63.29L39.10 58.97L32.54 58.97L32.54 63.29L20.59 63.29C21.17 62.28 21.67 61.34 22.18 60.34L17.42 59.11C20.52 58.54 27.58 58.03 50.90 56.66C52.99 58.10 54.86 59.69 56.16 61.06L60.19 57.74C57.24 54.94 51.77 51.12 46.87 48.53L60.55 48.53L60.55 55.87L66.89 55.87L66.89 43.85L41.69 43.85C45.00 41.54 48.24 38.95 51.41 36.36L47.30 33.34L66.53 33.34L66.53 28.08L40.46 28.08C39.60 26.28 38.52 24.12 37.44 22.46L30.96 24.26C31.61 25.42 32.26 26.71 32.83 28.08L5.54 28.08L5.54 33.34L24.70 33.34C22.39 34.78 20.30 35.86 19.44 36.29C17.93 37.15 16.56 37.66 15.34 37.80C15.98 39.10 16.85 41.47 17.14 42.48C18.79 41.98 21.10 41.69 37.37 40.75C35.86 41.83 34.42 42.84 33.05 43.85L4.97 43.85L4.97 55.87L11.09 55.87L11.09 48.53L25.99 48.53C24.19 49.68 22.75 50.47 21.74 50.98C18.22 52.99 15.84 54.22 13.68 54.50C14.40 55.87 15.26 58.25 15.55 59.40C13.46 63.58 10.01 67.61 6.34 70.49C7.92 71.21 10.66 72.72 12.10 73.73C13.61 72.29 15.26 70.63 16.78 68.69L32.54 68.69L32.54 73.87L4.10 73.87L4.10 79.34L32.54 79.34L32.54 88.85L39.10 88.85L39.10 79.34L67.97 79.34Z"/></svg>
