<svg xmlns="http://www.w3.org/2000/svg" xmlns:xlink="http://www.w3.org/1999/xlink" width="72.00000000000001" height="106.56000000000002"><path fill="red" stroke="red" d="M23.62 24.55C22.25 26.86 20.45 29.30 18.36 31.68C16.42 29.23 14.04 26.71 11.09 24.34L6.19 28.15C9.43 30.82 11.95 33.55 13.90 36.43C10.58 39.74 6.91 42.62 3.53 44.64C4.90 46.22 6.62 48.89 7.49 50.69C10.58 48.38 13.90 45.50 17.06 42.34C18.07 44.78 18.72 47.45 19.15 50.11C15.55 56.52 9.29 63.14 3.60 66.46C4.90 67.90 6.55 70.49 7.42 72.07C11.66 69.05 16.27 64.51 19.94 59.47L19.94 61.27C19.94 70.20 19.30 77.76 17.64 79.99C17.06 80.78 16.34 81.14 15.19 81.29C13.61 81.43 10.73 81.50 6.98 81.22C8.21 83.09 8.93 85.68 9.00 87.91C12.46 88.06 15.62 88.06 18.29 87.48C20.09 87.05 21.60 86.26 22.68 84.82C25.78 80.64 26.57 71.42 26.57 61.42C26.57 52.99 25.85 44.78 21.82 37.08C24.55 33.91 26.93 30.74 28.73 27.79ZM52.13 79.85L52.13 59.47L66.74 59.47L66.74 53.21L52.13 53.21L52.13 34.78L67.61 34.78L67.61 28.44L30.02 28.44L30.02 34.78L45.22 34.78L45.22 53.21L31.10 53.21L31.10 59.47L45.22 59.47L45.22 79.85L26.86 79.85L26.86 86.18L68.54 86.18L68.54 79.85Z"/></svg>
