<svg xmlns="http://www.w3.org/2000/svg" xmlns:xlink="http://www.w3.org/1999/xlink" width="72.00000000000001" height="106.56000000000002"><path fill="red" stroke="red" d="M60.55 35.93C59.04 42.55 56.16 51.55 53.71 57.17L59.62 59.33C62.21 53.78 65.23 45.43 67.61 38.16ZM38.88 57.67C37.87 52.13 35.57 42.62 33.55 35.35L27.22 37.15C29.23 44.57 31.32 54.29 32.11 60.05ZM21.02 23.62C19.73 26.06 18.07 28.51 16.20 30.96C14.18 28.30 11.66 25.63 8.50 23.11L3.53 27.00C7.13 29.95 9.86 33.05 11.88 36.22C8.86 39.38 5.62 42.34 2.30 44.71C3.82 45.79 5.98 47.81 6.98 49.10C9.65 47.09 12.38 44.78 14.90 42.19C15.91 45.00 16.63 47.74 17.06 50.69C13.54 56.81 7.56 63.43 2.16 66.82C3.74 68.11 5.62 70.34 6.77 71.93C10.44 69.12 14.40 64.87 17.71 60.34L17.71 61.42C17.71 70.63 16.99 78.48 15.26 80.78C14.76 81.58 14.04 82.01 12.89 82.08C11.30 82.30 8.42 82.30 4.75 82.01C5.98 84.02 6.70 86.62 6.77 88.92C10.15 89.06 13.25 89.06 16.06 88.42C17.86 88.06 19.37 87.19 20.45 85.75C23.69 81.36 24.48 71.86 24.48 61.56C24.48 52.92 23.76 44.64 19.80 36.86C22.61 33.55 25.06 30.10 27.00 26.64ZM49.68 23.54L43.06 23.54L43.06 39.31C43.06 52.63 41.62 71.42 24.34 83.95C25.92 85.10 28.22 87.77 29.23 89.35C39.74 81.58 44.86 71.57 47.45 61.56C50.90 72.65 56.38 82.37 65.02 89.14C65.81 87.19 67.68 84.31 69.05 82.80C57.74 74.88 52.27 60.48 49.61 44.64C49.68 42.84 49.68 41.11 49.68 39.38Z"/></svg>
