<svg xmlns="http://www.w3.org/2000/svg" xmlns:xlink="http://www.w3.org/1999/xlink" width="72.00000000000001" height="106.56000000000002"><path fill="red" stroke="red" d="M57.89 36.22L36.50 36.22L36.50 31.03L57.89 31.03ZM57.89 46.44L36.50 46.44L36.50 41.11L57.89 41.11ZM64.51 25.85L30.10 25.85L30.10 51.62L64.51 51.62ZM51.34 82.30L51.34 75.46L64.87 75.46L64.87 70.20L51.34 70.20L51.34 64.15L66.46 64.15L66.46 58.75L51.34 58.75L51.34 53.21L44.86 53.21L44.86 58.75L36.79 58.75C37.58 57.24 38.30 55.58 38.81 54.07L32.90 52.49C30.96 57.89 27.65 63.36 23.83 67.03C23.90 65.30 23.90 63.50 23.90 61.78C23.90 53.06 23.18 44.71 19.15 36.94C21.67 33.84 23.83 30.74 25.56 27.79L20.45 24.55C19.15 26.78 17.57 29.09 15.77 31.46C13.97 29.09 11.88 26.86 9.29 24.62L4.61 28.22C7.56 30.82 9.79 33.41 11.59 36.07C8.57 39.24 5.26 42.05 2.23 43.99C3.67 45.50 5.33 48.24 6.26 50.04C9.00 47.95 11.95 45.14 14.69 42.12C15.77 44.86 16.42 47.66 16.85 50.47C13.61 56.88 8.14 63.22 3.02 66.67C4.39 67.97 6.05 70.63 6.91 72.29C10.58 69.34 14.40 65.09 17.57 60.41L17.57 61.56C17.57 70.56 16.92 78.48 15.26 80.64C14.69 81.43 14.04 81.79 12.96 81.86C11.45 82.08 8.78 82.08 5.40 81.86C6.55 83.66 7.20 86.18 7.27 88.27C10.44 88.42 13.46 88.34 15.91 87.84C17.71 87.48 19.15 86.69 20.16 85.32C22.61 81.94 23.54 74.95 23.83 67.18C25.27 68.04 27.65 69.77 28.73 70.85C30.46 68.98 32.18 66.74 33.84 64.15L44.86 64.15L44.86 70.20L31.03 70.20L31.03 75.46L44.86 75.46L44.86 82.30L25.78 82.30L25.78 87.84L68.54 87.84L68.54 82.30Z"/></svg>
