<svg xmlns="http://www.w3.org/2000/svg" xmlns:xlink="http://www.w3.org/1999/xlink" width="72.00000000000001" height="106.56000000000002"><path fill="red" stroke="red" d="M65.95 31.10C64.15 28.94 60.41 25.85 57.31 23.76L53.57 27.22C56.59 29.45 60.19 32.76 61.92 35.06ZM62.35 44.86C60.19 48.60 56.81 53.28 53.71 57.10C52.49 53.35 51.48 49.18 50.69 44.28L50.69 41.33L68.90 41.33L68.90 35.14L50.69 35.14L50.69 23.18L44.21 23.18L44.21 35.14L27.14 35.14L27.14 41.33L44.21 41.33L44.21 59.40C38.09 64.66 31.54 70.20 26.78 74.02L25.92 68.69L17.71 71.21L17.71 54.36L24.48 54.36L24.48 48.17L17.71 48.17L17.71 33.84L25.56 33.84L25.56 27.65L3.31 27.65L3.31 33.84L11.52 33.84L11.52 48.17L3.82 48.17L3.82 54.36L11.52 54.36L11.52 73.08C8.14 74.09 4.97 75.02 2.45 75.67L3.89 82.08C9.94 80.21 17.71 77.76 25.13 75.31L24.12 76.10L28.22 81.94C32.98 77.62 38.66 72.22 44.21 66.67L44.21 81.36C44.21 82.51 43.78 82.87 42.62 82.94C41.54 82.94 38.09 83.02 34.20 82.87C35.06 84.60 36.22 87.55 36.50 89.28C42.05 89.28 45.43 89.06 47.66 87.91C49.82 86.83 50.69 84.96 50.69 81.36L50.69 65.30C54.07 72.86 58.90 78.70 65.95 84.02C66.67 82.15 68.54 80.06 70.06 78.84C63.58 74.30 59.18 69.34 56.02 62.71C59.76 58.82 64.37 52.92 68.18 47.88ZM27.94 47.59C30.89 51.70 33.98 57.17 35.06 60.77L40.61 58.10C39.38 54.58 36.14 49.25 33.12 45.29Z"/></svg>
