<svg xmlns="http://www.w3.org/2000/svg" xmlns:xlink="http://www.w3.org/1999/xlink" width="72.00000000000001" height="106.56000000000002"><path fill="red" stroke="red" d="M3.24 33.84L12.10 33.84L12.10 48.17L4.25 48.17L4.25 54.36L12.10 54.36L12.10 72.29C8.57 73.44 5.33 74.38 2.74 75.17L4.32 81.43C10.73 79.27 19.01 76.46 26.78 73.73L25.70 67.68C23.18 68.54 20.59 69.48 18.07 70.34L18.07 54.36L25.27 54.36L25.27 48.17L18.07 48.17L18.07 33.84L26.78 33.84L26.78 27.72L3.24 27.72ZM36.94 48.82L57.74 48.82L57.74 55.87L36.94 55.87ZM57.74 36.65L57.74 43.20L36.94 43.20L36.94 36.65ZM63.36 62.93C61.06 65.02 57.31 67.68 54.00 69.84C52.34 67.32 50.90 64.58 49.68 61.70L64.30 61.70L64.30 30.89L51.91 30.89C50.98 28.44 49.46 25.20 48.10 22.61L42.12 24.26C43.13 26.21 44.21 28.73 45.00 30.89L30.53 30.89L30.53 77.76C30.53 81.22 28.44 83.52 27.14 84.53C28.15 85.46 29.74 87.77 30.46 89.14L30.46 89.35L30.53 89.28L30.53 89.35L30.53 89.28C32.04 88.27 34.49 87.26 48.17 82.66C47.88 81.29 47.45 78.77 47.38 76.97L36.94 80.14L36.94 61.70L43.34 61.70C47.52 73.58 54.79 83.02 64.94 87.84C65.95 86.11 67.90 83.66 69.41 82.37C64.87 80.64 60.91 77.76 57.60 74.23C60.91 72.29 64.80 69.77 67.68 67.32Z"/></svg>
