<svg xmlns="http://www.w3.org/2000/svg" xmlns:xlink="http://www.w3.org/1999/xlink" width="72.00000000000001" height="106.56000000000002"><path fill="red" stroke="red" d="M17.35 55.51L24.12 55.51L24.12 49.54L17.35 49.54L17.35 34.78L24.91 34.78L24.91 28.87L3.24 28.87L3.24 34.78L11.38 34.78L11.38 49.54L4.10 49.54L4.10 55.51L11.38 55.51L11.38 71.93C7.99 72.65 4.90 73.37 2.38 73.87L3.67 80.14C10.08 78.62 18.29 76.46 26.06 74.45L25.42 68.47C22.68 69.12 20.02 69.77 17.35 70.42ZM67.25 61.34L48.38 61.34L49.46 57.31L64.58 57.31L64.58 37.37L58.61 37.37L58.61 52.13L35.93 52.13L35.93 37.37L30.17 37.37L30.17 57.31L43.78 57.31C43.42 58.61 43.06 59.90 42.70 61.34L33.98 61.34L33.98 59.04L27.86 59.04L27.86 61.34L25.63 61.34L25.63 66.82L27.86 66.82L27.86 89.06L33.98 89.06L33.98 66.82L41.11 66.82C40.10 70.06 39.17 73.30 38.23 75.96L34.56 76.46L36.07 81.50C41.26 80.64 47.66 79.56 54.00 78.34C54.50 79.63 54.94 80.78 55.30 81.65L59.47 80.06C58.46 77.26 56.09 72.36 54.14 68.76L50.04 69.98C50.69 71.21 51.34 72.58 51.91 73.87L44.35 75.02C45.14 72.58 46.01 69.70 46.87 66.82L61.13 66.82L61.13 82.87C61.13 83.66 60.91 83.88 59.90 83.95C59.11 84.02 56.02 84.02 52.92 83.88C53.71 85.39 54.50 87.41 54.72 89.06C59.33 89.06 62.57 89.06 64.58 88.20C66.67 87.26 67.25 85.90 67.25 82.94ZM57.17 48.10C55.66 46.87 53.42 45.22 51.05 43.56C53.06 41.62 55.08 39.74 56.66 37.87L52.56 36.22C51.19 37.87 49.39 39.53 47.59 41.11C45.22 39.60 42.91 38.09 40.82 36.72L37.80 39.24C39.82 40.61 42.05 42.12 44.35 43.70C41.83 45.50 39.24 47.23 36.86 48.53C37.80 49.25 39.46 50.98 40.10 51.84C42.55 50.33 45.22 48.31 47.88 46.22C50.33 47.95 52.56 49.68 54.14 50.98ZM51.05 29.38C50.18 27.36 48.96 24.77 48.02 22.82L42.05 24.34C42.77 25.85 43.56 27.65 44.28 29.38L27.14 29.38L27.14 35.14L68.18 35.14L68.18 29.38Z"/></svg>
