<svg xmlns="http://www.w3.org/2000/svg" xmlns:xlink="http://www.w3.org/1999/xlink" width="72.00000000000001" height="106.56000000000002"><path fill="red" stroke="red" d="M55.51 35.71L39.02 35.71L39.02 30.96L55.51 30.96ZM55.51 44.86L39.02 44.86L39.02 40.18L55.51 40.18ZM16.13 40.18L32.33 40.18L32.33 44.86L16.13 44.86ZM16.13 30.96L32.33 30.96L32.33 35.71L16.13 35.71ZM62.28 26.35L9.72 26.35L9.72 49.54L62.28 49.54ZM22.32 65.74L22.32 60.70L32.33 60.70L32.33 65.74ZM49.46 60.70L49.46 65.74L39.02 65.74L39.02 60.70ZM68.11 71.21L68.11 65.74L55.73 65.74L55.73 60.70L63.22 60.70L63.22 55.30L55.73 55.30L55.73 51.26L49.46 51.26L49.46 55.30L39.02 55.30L39.02 50.98L32.33 50.98L32.33 55.30L22.32 55.30L22.32 51.26L16.20 51.26L16.20 55.30L7.27 55.30L7.27 60.70L16.20 60.70L16.20 65.74L3.82 65.74L3.82 71.21L32.33 71.21L32.33 75.89L11.02 75.89L11.02 81.43L32.33 81.43L32.33 89.06L39.02 89.06L39.02 81.43L61.20 81.43L61.20 75.89L39.02 75.89L39.02 71.21Z"/></svg>
