<svg xmlns="http://www.w3.org/2000/svg" xmlns:xlink="http://www.w3.org/1999/xlink" width="72.00000000000001" height="106.56000000000002"><path fill="red" stroke="red" d="M20.30 36.43L68.76 36.43L68.76 30.10L45.94 30.10C45.00 27.79 43.70 24.91 42.55 22.68L35.93 24.34C36.79 25.99 37.66 28.15 38.38 30.10L13.68 30.10L13.68 47.23C12.17 44.06 9.79 39.89 7.78 36.72L2.66 38.81C5.04 42.77 7.92 48.17 9.00 51.48L13.68 49.32L13.68 51.98C13.68 53.86 13.68 55.87 13.54 58.03C9.36 60.41 5.33 62.71 2.45 64.22L4.61 70.27C7.27 68.69 10.15 66.74 12.96 64.94C11.95 72.22 9.72 79.70 4.61 85.54C6.19 86.26 9.00 88.27 10.15 89.42C19.01 79.34 20.30 63.36 20.30 51.98ZM39.82 78.41L39.82 60.26L46.22 60.26L46.22 54.36L39.82 54.36L39.82 39.60L33.77 39.60L33.77 79.49L29.23 80.21L29.23 48.96L23.54 48.96L23.54 81.22C21.60 81.58 19.80 81.86 18.22 82.08L19.51 88.56C27.00 87.05 37.08 85.10 46.51 83.09L46.15 77.26ZM56.52 81.58C54.86 81.58 54.65 81.14 54.65 78.70L54.65 60.19L65.95 60.19L65.95 54.29L54.65 54.29L54.65 39.31L48.46 39.31L48.46 78.70C48.46 85.10 49.97 87.05 55.51 87.05L62.50 87.05C67.25 87.05 68.76 84.24 69.26 75.89C67.68 75.46 65.23 74.38 63.86 73.30C63.65 80.06 63.43 81.58 61.99 81.58Z"/></svg>
