<svg xmlns="http://www.w3.org/2000/svg" xmlns:xlink="http://www.w3.org/1999/xlink" width="72.00000000000001" height="106.56000000000002"><path fill="red" stroke="red" d="M20.59 37.51L68.69 37.51L68.69 31.39L47.09 31.39C45.94 28.87 43.85 25.56 41.83 23.04L35.78 24.98C37.15 26.86 38.66 29.30 39.74 31.39L14.04 31.39L14.04 48.10C12.89 44.78 10.37 40.03 7.78 36.43L2.74 38.95C5.40 42.98 8.06 48.38 8.93 51.91L14.04 49.18L14.04 52.42C14.04 53.93 14.04 55.44 13.97 57.10C9.65 59.47 5.47 61.70 2.45 63.07L4.68 69.41C7.42 67.68 10.37 65.88 13.39 64.01C12.38 71.35 9.94 78.84 4.25 84.60C5.54 85.46 8.21 87.91 9.14 89.28C18.94 79.49 20.59 63.65 20.59 52.49ZM34.92 74.30L54.50 74.30L54.50 81.58L34.92 81.58ZM54.50 49.39L54.50 56.38L34.92 56.38L34.92 49.39ZM54.50 68.90L34.92 68.90L34.92 61.78L54.50 61.78ZM61.13 81.58L61.13 43.70L28.58 43.70L28.58 81.58L19.30 81.58L19.30 87.62L68.90 87.62L68.90 81.58Z"/></svg>
