<svg xmlns="http://www.w3.org/2000/svg" xmlns:xlink="http://www.w3.org/1999/xlink" width="72.00000000000001" height="106.56000000000002"><path fill="red" stroke="red" d="M53.64 40.03L18.36 40.03L18.36 34.85L53.64 34.85ZM53.64 50.40L18.36 50.40L18.36 45.00L53.64 45.00ZM60.62 29.59L37.94 29.59C38.81 27.79 39.74 25.92 40.61 23.90L32.47 23.26C32.04 25.06 31.18 27.50 30.38 29.59L11.66 29.59L11.66 55.66L60.62 55.66ZM39.82 81.79L39.82 76.46L60.34 76.46L60.34 70.92L39.82 70.92L39.82 65.81L63.43 65.81L63.43 60.05L9.00 60.05L9.00 65.81L32.83 65.81L32.83 70.92L12.38 70.92L12.38 76.46L32.83 76.46L32.83 81.79L4.46 81.79L4.46 87.70L67.75 87.70L67.75 81.79Z"/></svg>
