<svg xmlns="http://www.w3.org/2000/svg" xmlns:xlink="http://www.w3.org/1999/xlink" width="72.00000000000001" height="106.56000000000002"><path fill="red" stroke="red" d="M61.85 37.58L61.85 44.78L36.00 44.78L36.00 37.58ZM34.92 50.62L63.22 50.62L63.22 45.00L68.40 45.00L68.40 31.75L53.06 31.75C52.20 29.23 50.33 25.63 48.74 22.90L42.77 24.62C43.99 26.71 45.29 29.45 46.15 31.75L29.81 31.75L29.81 45.00L34.92 45.00ZM20.59 52.49L11.95 52.49L11.95 40.32L20.59 40.32ZM11.95 70.99L11.95 58.32L20.59 58.32L20.59 70.99ZM26.78 76.90L26.78 34.42L18.00 34.42C19.08 31.39 20.38 27.72 21.60 24.26L14.26 23.11C13.90 26.42 12.82 30.96 11.88 34.42L5.62 34.42L5.62 82.73L11.95 82.73L11.95 76.90ZM59.04 82.58C57.74 82.58 57.60 82.37 57.60 80.35L57.60 63.36L68.98 63.36L68.98 57.46L30.10 57.46L30.10 63.36L38.95 63.36C38.09 73.58 35.35 80.14 23.40 83.88C24.77 85.10 26.57 87.55 27.29 89.21C40.97 84.38 44.28 76.03 45.50 63.36L51.19 63.36L51.19 80.50C51.19 86.47 52.42 88.34 57.89 88.34L63.22 88.34C67.75 88.34 69.26 85.90 69.84 76.39C68.18 75.89 65.59 74.88 64.22 73.73C64.08 81.43 63.86 82.58 62.57 82.58Z"/></svg>
