<svg xmlns="http://www.w3.org/2000/svg" xmlns:xlink="http://www.w3.org/1999/xlink" width="72.00000000000001" height="106.56000000000002"><path fill="red" stroke="red" d="M16.06 46.44L16.06 36.14L32.33 36.14L32.33 46.44ZM56.23 36.14L56.23 46.44L39.02 46.44L39.02 36.14ZM32.33 61.85L39.02 61.85L39.02 52.42L62.93 52.42L62.93 30.24L39.02 30.24L39.02 23.18L32.33 23.18L32.33 30.24L9.65 30.24L9.65 52.42L32.33 52.42ZM17.14 68.26L25.49 68.26L25.49 81.00L17.14 81.00ZM40.10 68.26L40.10 81.00L31.68 81.00L31.68 68.26ZM54.72 68.26L54.72 81.00L46.22 81.00L46.22 68.26ZM61.42 81.00L61.42 63.00L10.73 63.00L10.73 81.00L3.53 81.00L3.53 86.76L68.54 86.76L68.54 81.00Z"/></svg>
