<svg xmlns="http://www.w3.org/2000/svg" xmlns:xlink="http://www.w3.org/1999/xlink" width="72.00000000000001" height="106.56000000000002"><path fill="red" stroke="red" d="M18.58 27.00C15.77 33.34 10.87 39.46 5.69 43.34C7.27 44.21 10.15 46.15 11.38 47.30C16.49 42.84 21.82 35.93 25.13 28.87ZM52.99 62.28L22.46 62.28L22.46 57.96L52.99 57.96ZM22.46 81.00L22.46 76.32L52.99 76.32L52.99 81.00ZM22.46 67.03L52.99 67.03L52.99 71.57L22.46 71.57ZM49.46 36.00C46.80 39.10 43.13 41.76 38.74 43.99L38.74 23.18L32.11 23.18L32.11 47.02C23.40 50.33 13.03 52.42 2.52 53.71C3.74 55.15 5.83 58.03 6.70 59.54C9.79 59.04 12.96 58.46 16.06 57.82L16.06 89.21L22.46 89.21L22.46 86.11L52.99 86.11L52.99 88.85L59.69 88.85L59.69 52.78L33.62 52.78C42.55 49.46 50.47 44.93 55.80 38.88ZM47.23 29.81C52.92 34.49 59.54 41.26 62.42 45.86L68.18 42.05C65.02 37.37 58.18 30.96 52.49 26.42Z"/></svg>
