<svg xmlns="http://www.w3.org/2000/svg" xmlns:xlink="http://www.w3.org/1999/xlink" width="72.00000000000001" height="106.56000000000002"><path fill="red" stroke="red" d="M18.14 33.19L18.14 42.05L10.66 42.05L10.66 33.19ZM10.66 71.64L10.66 62.42L18.14 62.42L18.14 71.64ZM10.66 47.74L18.14 47.74L18.14 56.74L10.66 56.74ZM23.69 27.36L5.33 27.36L5.33 83.59L10.66 83.59L10.66 77.62L23.69 77.62ZM51.19 74.02L65.38 74.02L65.38 68.26L51.19 68.26L51.19 44.42L68.33 44.42L68.33 38.59L51.19 38.59L51.19 31.46C55.94 30.96 60.55 30.31 64.37 29.45L61.42 23.83C53.35 25.70 40.46 26.93 29.45 27.50C30.17 28.94 30.89 31.32 31.03 32.83C35.42 32.69 40.18 32.47 44.86 32.11L44.86 38.59L26.21 38.59L26.21 44.42L44.86 44.42L44.86 68.26L28.94 68.26L28.94 74.02L44.86 74.02L44.86 81.07L27.00 81.07L27.00 86.98L67.03 86.98L67.03 81.07L51.19 81.07ZM32.54 47.09L32.54 53.21L27.14 53.21L27.14 58.46L32.54 58.46L32.54 64.94L37.80 64.94L37.80 58.46L42.48 58.46L42.48 53.21L37.80 53.21L37.80 47.09ZM63.58 53.14L63.58 47.02L58.32 47.02L58.32 53.14L53.35 53.14L53.35 58.39L58.32 58.39L58.32 64.87L63.58 64.87L63.58 58.39L68.40 58.39L68.40 53.14Z"/></svg>
