<svg xmlns="http://www.w3.org/2000/svg" xmlns:xlink="http://www.w3.org/1999/xlink" width="72.00000000000001" height="106.56000000000002"><path fill="red" stroke="red" d="M17.42 32.76L17.42 41.69L10.94 41.69L10.94 32.76ZM10.94 71.14L10.94 61.92L17.42 61.92L17.42 71.14ZM10.94 47.23L17.42 47.23L17.42 56.38L10.94 56.38ZM23.26 27.07L5.26 27.07L5.26 83.30L10.94 83.30L10.94 76.97L23.26 76.97ZM39.96 34.78L53.35 34.78L53.35 39.82L39.96 39.82ZM61.13 75.31C57.60 69.84 57.31 63.36 57.31 57.74L51.41 57.74L51.41 61.78L54.43 61.78C54.50 62.57 54.50 63.36 54.58 64.08L54.22 63.94C53.50 68.90 51.98 73.30 49.46 75.60L49.46 54.36L61.13 54.36ZM34.56 57.74L34.56 61.78L37.44 61.78C37.44 62.57 37.51 63.36 37.58 64.15L37.08 63.94C36.43 69.12 34.99 73.73 32.69 76.18L32.69 54.36L43.85 54.36L43.85 75.74C40.54 70.20 40.25 63.72 40.25 57.74ZM59.62 45.29L59.62 34.78L68.33 34.78L68.33 29.38L59.62 29.38L59.62 23.11L53.35 23.11L53.35 29.38L39.96 29.38L39.96 23.11L33.98 23.11L33.98 29.38L24.84 29.38L24.84 34.78L33.98 34.78L33.98 45.29L43.63 45.29L43.63 49.39L27.00 49.39L27.00 89.21L32.69 89.21L32.69 76.82C33.41 77.54 34.13 78.48 34.34 79.27C36.29 77.54 37.73 74.66 38.66 71.28C39.31 74.02 40.32 76.68 41.90 79.06C42.34 78.55 43.13 77.83 43.85 77.26L43.85 88.49L49.46 88.49L49.46 76.46C50.18 77.18 50.83 78.19 51.19 78.91C53.14 77.11 54.65 74.23 55.73 70.85C56.38 73.58 57.46 76.25 59.11 78.62C59.54 78.05 60.41 77.33 61.13 76.82L61.13 82.66C61.13 83.38 60.84 83.66 60.05 83.66C59.33 83.66 57.02 83.74 54.50 83.59C55.30 85.10 56.09 87.55 56.30 89.14C60.12 89.14 62.64 88.99 64.51 88.13C66.31 87.12 66.74 85.46 66.74 82.73L66.74 49.39L49.68 49.39L49.68 45.29Z"/></svg>
