<svg xmlns="http://www.w3.org/2000/svg" xmlns:xlink="http://www.w3.org/1999/xlink" width="72.00000000000001" height="106.56000000000002"><path fill="red" stroke="red" d="M48.67 55.01L55.73 55.01L55.73 62.14L48.67 62.14ZM60.48 31.25L60.48 37.22L36.86 37.22L36.86 31.25ZM20.52 74.23L13.82 74.23L13.82 54.36L20.52 54.36ZM64.37 68.33C62.78 69.84 60.41 72.07 58.25 73.80C57.10 71.93 56.16 69.77 55.44 67.61L68.83 67.61L68.83 62.14L61.34 62.14L61.34 55.01L66.67 55.01L66.67 49.46L61.34 49.46L61.34 42.98L55.73 42.98L55.73 49.46L48.67 49.46L48.67 42.98L43.06 42.98L43.06 49.46L36.86 49.46L36.86 55.01L43.06 55.01L43.06 62.14L36.22 62.14C36.72 57.24 36.86 52.49 36.86 48.38L36.86 42.77L66.67 42.77L66.67 25.78L31.03 25.78L31.03 48.38C31.03 57.82 30.60 69.91 26.14 79.78L26.14 48.53L14.11 48.53C15.84 43.49 17.21 38.16 18.29 32.62L28.08 32.62L28.08 26.50L3.53 26.50L3.53 32.62L12.10 32.62C10.15 42.84 6.98 52.34 2.30 58.75C3.24 60.62 4.61 64.73 4.97 66.38C6.19 64.94 7.20 63.36 8.28 61.56L8.28 85.68L13.82 85.68L13.82 80.14L25.99 80.14C25.13 82.01 24.19 83.81 22.97 85.46C24.41 86.04 27.00 87.70 28.08 88.70C32.18 82.73 34.34 75.24 35.50 67.61L39.67 67.61L39.67 79.42C39.67 82.37 37.37 84.02 35.93 84.74C36.86 85.75 38.09 88.06 38.45 89.35C39.74 88.49 41.90 87.77 54.65 84.02C54.43 82.73 54.29 80.28 54.36 78.70L45.29 81.14L45.29 67.61L50.33 67.61C52.92 77.33 57.67 84.96 65.74 88.63C66.53 87.05 68.18 84.89 69.48 83.74C66.02 82.37 63.14 80.21 60.77 77.47C63.22 75.74 66.10 73.73 68.54 71.64Z"/></svg>
