<svg xmlns="http://www.w3.org/2000/svg" xmlns:xlink="http://www.w3.org/1999/xlink" width="72.00000000000001" height="106.56000000000002"><path fill="red" stroke="red" d="M28.94 62.35C27.58 60.77 22.75 55.37 20.09 52.70C23.18 47.95 25.85 42.77 27.65 37.37L24.19 34.99L22.97 35.28L16.34 35.28L20.95 32.54C19.80 29.88 17.06 25.99 14.40 23.18L9.22 26.06C11.52 28.80 13.97 32.62 15.12 35.28L4.03 35.28L4.03 41.33L19.66 41.33C15.77 49.54 9.22 57.38 2.66 61.92C3.60 63.22 5.04 66.74 5.54 68.62C7.92 66.82 10.44 64.51 12.74 61.99L12.74 89.14L19.37 89.14L19.37 60.41C21.38 63.14 23.47 65.95 24.62 67.90ZM68.83 66.53L52.56 66.53L52.56 57.82L65.81 57.82L65.81 51.91L52.56 51.91L52.56 43.63L67.54 43.63L67.54 37.58L58.90 37.58C61.06 33.98 63.36 29.45 65.38 25.42L58.75 23.11C57.38 27.50 54.65 33.48 52.42 37.58L39.89 37.58L45.36 35.35C44.50 32.04 42.19 27.14 39.82 23.40L34.20 25.56C36.58 29.16 38.66 34.27 39.53 37.58L29.95 37.58L29.95 43.63L45.72 43.63L45.72 51.91L31.46 51.91L31.46 57.82L45.72 57.82L45.72 66.53L28.22 66.53L28.22 72.65L45.72 72.65L45.72 89.21L52.56 89.21L52.56 72.65L68.83 72.65Z"/></svg>
