<svg xmlns="http://www.w3.org/2000/svg" xmlns:xlink="http://www.w3.org/1999/xlink" width="72.00000000000001" height="106.56000000000002"><path fill="red" stroke="red" d="M20.23 49.46L28.94 49.46L28.94 43.20L20.23 43.20L20.23 31.82C23.54 31.03 26.64 30.10 29.38 29.02L25.42 23.69C20.09 25.99 11.45 28.08 3.89 29.38C4.61 30.89 5.47 33.12 5.69 34.63C8.35 34.27 11.16 33.77 13.90 33.26L13.90 43.20L3.74 43.20L3.74 49.46L13.03 49.46C10.58 57.10 6.55 65.66 2.59 70.56C3.67 72.22 5.18 74.95 5.83 76.90C8.71 73.01 11.59 67.03 13.90 60.84L13.90 89.06L20.23 89.06L20.23 59.04C22.18 62.35 24.19 66.10 25.20 68.33L29.23 63.07C27.94 61.13 22.25 53.64 20.23 51.19ZM57.67 67.97L57.67 80.14L38.23 80.14L38.23 67.97ZM31.61 89.28L38.23 89.28L38.23 86.18L57.67 86.18L57.67 88.99L64.58 88.99L64.58 61.92L31.61 61.92ZM68.04 39.53L68.04 33.19L51.70 33.19L51.70 23.11L44.78 23.11L44.78 33.19L28.30 33.19L28.30 39.53L44.78 39.53L44.78 48.96L30.38 48.96L30.38 55.22L65.59 55.22L65.59 48.96L51.70 48.96L51.70 39.53Z"/></svg>
