<svg xmlns="http://www.w3.org/2000/svg" xmlns:xlink="http://www.w3.org/1999/xlink" width="72.00000000000001" height="106.56000000000002"><path fill="red" stroke="red" d="M25.63 59.90C24.55 58.54 19.87 52.92 18.29 51.34L18.29 49.68L25.78 49.68L25.78 43.49L18.29 43.49L18.29 31.75C21.10 31.03 23.76 30.17 26.14 29.16L22.46 23.69C17.78 25.99 10.30 28.01 3.67 29.38C4.39 30.89 5.26 32.98 5.54 34.49C7.78 34.13 10.15 33.70 12.53 33.19L12.53 43.49L3.31 43.49L3.31 49.68L11.02 49.68C8.93 57.02 5.47 65.30 2.09 70.20C3.10 71.64 4.46 74.30 5.11 76.03C7.78 72.00 10.44 65.81 12.53 59.40L12.53 89.21L18.29 89.21L18.29 57.89C19.87 60.48 21.53 63.43 22.32 65.09ZM69.05 51.48L69.05 45.79L45.43 45.79C46.15 43.99 46.80 42.26 47.38 40.46L42.84 39.46C45.22 38.45 47.59 37.30 49.97 36.22C55.37 38.59 60.34 41.18 63.86 43.49L67.90 38.59C64.80 36.79 60.77 34.70 56.23 32.76C59.69 30.53 62.86 28.22 65.45 25.78L59.76 23.04C57.17 25.56 53.71 27.86 49.82 29.95C44.64 27.86 39.31 25.99 34.42 24.55L30.38 28.94C34.34 30.02 38.66 31.61 42.91 33.26C37.94 35.28 32.76 37.01 27.65 38.30C28.94 39.53 30.96 42.05 31.97 43.42C34.85 42.48 37.87 41.40 40.90 40.25C40.32 42.12 39.60 43.99 38.81 45.79L27.79 45.79L27.79 51.48L35.93 51.48C32.76 56.95 28.73 61.49 24.05 64.87C25.42 66.02 27.65 68.40 28.66 69.70C30.02 68.62 31.25 67.39 32.47 66.17L32.47 83.02L38.52 83.02L38.52 64.94L46.08 64.94L46.08 89.14L52.13 89.14L52.13 64.94L60.19 64.94L60.19 76.68C60.19 77.33 59.98 77.54 59.26 77.54C58.61 77.54 56.59 77.54 54.36 77.47C55.08 79.06 55.87 81.43 56.16 83.09C59.69 83.09 62.28 83.02 64.08 82.08C65.88 81.14 66.31 79.49 66.31 76.75L66.31 59.18L52.13 59.18L52.13 53.35L46.08 53.35L46.08 59.18L38.23 59.18C39.89 56.81 41.40 54.22 42.84 51.48Z"/></svg>
