<svg xmlns="http://www.w3.org/2000/svg" xmlns:xlink="http://www.w3.org/1999/xlink" width="72.00000000000001" height="106.56000000000002"><path fill="red" stroke="red" d="M30.67 62.50C29.38 60.84 23.26 54.58 21.17 52.78L21.17 49.46L29.59 49.46L29.59 43.13L21.17 43.13L21.17 31.97C24.41 31.10 27.50 30.17 30.10 29.16L25.49 24.05C20.09 26.42 11.02 28.51 3.02 29.81C3.82 31.25 4.68 33.48 4.97 34.99C8.06 34.56 11.38 34.06 14.69 33.34L14.69 43.13L3.60 43.13L3.60 49.46L13.82 49.46C11.09 57.10 6.48 65.66 2.23 70.56C3.24 72.14 4.82 74.88 5.47 76.75C8.71 72.72 12.02 66.53 14.69 59.98L14.69 89.06L21.17 89.06L21.17 59.40C23.33 62.35 25.70 65.74 26.78 67.75ZM36.94 63.50L36.94 58.68L45.36 58.68L45.36 63.50ZM36.94 49.68L45.36 49.68L45.36 54.50L36.94 54.50ZM60.48 49.68L60.48 54.50L51.84 54.50L51.84 49.68ZM60.48 63.50L51.84 63.50L51.84 58.68L60.48 58.68ZM51.84 82.44L51.84 77.76L66.82 77.76L66.82 72.58L51.84 72.58L51.84 68.26L66.60 68.26L66.60 44.93L51.84 44.93L51.84 40.90L67.90 40.90L67.90 35.57L51.84 35.57L51.84 31.03C57.74 30.53 63.29 29.81 67.75 28.80L63.79 23.90C55.58 25.56 41.26 26.71 29.38 27.14C30.02 28.44 30.74 30.74 30.89 32.11C35.50 32.04 40.39 31.82 45.36 31.54L45.36 35.57L28.37 35.57L28.37 40.90L45.36 40.90L45.36 44.93L31.03 44.93L31.03 68.26L45.36 68.26L45.36 72.58L30.38 72.58L30.38 77.76L45.36 77.76L45.36 82.44L26.35 82.44L26.35 87.84L69.34 87.84L69.34 82.44Z"/></svg>
