<svg xmlns="http://www.w3.org/2000/svg" xmlns:xlink="http://www.w3.org/1999/xlink" width="72.00000000000001" height="106.56000000000002"><path fill="red" stroke="red" d="M12.31 35.86L25.49 35.86C24.19 41.62 20.09 44.14 6.26 45.43C7.42 46.66 8.86 49.10 9.29 50.54C25.56 48.53 30.46 44.35 32.11 35.86L39.10 35.86L39.10 41.18C39.10 46.22 40.39 48.74 46.37 48.74L57.31 48.74C59.47 48.74 62.06 48.60 63.29 48.24C63.00 46.58 62.86 44.93 62.71 43.06C61.49 43.42 58.54 43.56 56.95 43.56L47.81 43.56C46.08 43.56 45.79 42.84 45.79 41.18L45.79 35.86L59.62 35.86L59.62 42.12L66.46 42.12L66.46 30.17L41.18 30.17C40.61 28.01 39.38 24.98 38.30 22.68L31.54 24.41C32.26 26.14 33.05 28.30 33.62 30.17L5.76 30.17L5.76 42.19L12.31 42.19ZM44.28 56.52L44.28 64.73L19.87 64.73C20.66 62.06 21.38 59.18 22.10 56.52ZM66.82 64.73L50.90 64.73L50.90 56.52L64.66 56.52L64.66 51.26L10.08 51.26L10.08 56.52L15.34 56.52C14.33 61.27 12.96 66.74 11.74 70.42L35.21 70.42C26.86 75.38 14.69 79.27 3.67 81.07C4.97 82.44 6.84 84.89 7.63 86.62C20.74 83.88 35.21 77.98 43.99 70.42L44.28 70.42L44.28 81.79C44.28 82.73 43.99 83.02 42.77 83.09C41.69 83.16 37.80 83.16 33.91 83.02C34.85 84.67 35.86 87.34 36.22 89.14C41.62 89.14 45.29 89.06 47.74 88.06C50.18 87.12 50.90 85.32 50.90 81.86L50.90 70.42L66.82 70.42Z"/></svg>
