<svg xmlns="http://www.w3.org/2000/svg" xmlns:xlink="http://www.w3.org/1999/xlink" width="72.00000000000001" height="106.56000000000002"><path fill="red" stroke="red" d="M54.72 75.60L54.72 81.72L18.50 81.72L18.50 75.60ZM12.10 89.21L18.50 89.21L18.50 86.98L54.72 86.98L54.72 89.06L61.42 89.06L61.42 70.34L12.10 70.34ZM33.12 55.15L33.12 60.77L15.70 60.77C17.35 59.18 19.01 57.24 20.45 55.15ZM39.96 60.77L39.96 55.15L60.05 55.15L60.05 50.26L39.96 50.26L39.96 44.57L33.12 44.57L33.12 50.26L23.40 50.26C23.98 49.18 24.41 48.02 24.84 46.94L19.58 45.72C27.72 43.56 31.03 39.96 32.40 33.91L40.32 33.91L40.32 39.24C40.32 43.85 41.47 46.08 47.02 46.08L57.31 46.08C59.47 46.08 61.85 46.01 63.00 45.58C62.71 44.14 62.64 42.55 62.50 40.90C61.34 41.26 58.54 41.33 57.02 41.33L48.31 41.33C46.66 41.33 46.44 40.82 46.44 39.24L46.44 33.91L59.54 33.91L59.54 39.82L66.60 39.82L66.60 28.66L40.18 28.66C39.53 26.71 38.66 24.34 37.87 22.46L30.96 23.83C31.54 25.34 31.97 27.00 32.47 28.66L5.54 28.66L5.54 40.25L12.24 40.25L12.24 33.91L25.49 33.91C24.12 39.10 20.30 41.40 7.99 42.77C9.14 43.78 10.58 45.94 11.02 47.30C13.68 47.02 15.98 46.58 18.00 46.08C16.27 50.62 12.96 55.01 9.14 57.89C10.30 58.54 12.10 59.69 13.46 60.77L4.54 60.77L4.54 66.02L67.39 66.02L67.39 60.77Z"/></svg>
