<svg xmlns="http://www.w3.org/2000/svg" xmlns:xlink="http://www.w3.org/1999/xlink" width="72.00000000000001" height="106.56000000000002"><path fill="red" stroke="red" d="M20.59 34.42L16.42 37.87C18.72 39.96 21.60 43.06 22.75 45.07L27.58 40.75C26.28 39.02 23.69 36.36 21.46 34.42L35.71 34.42L35.71 28.51L18.65 28.51C19.30 27.22 19.87 25.92 20.38 24.62L13.90 22.68C11.52 28.87 7.34 34.99 2.81 38.88C4.18 40.18 6.41 43.20 7.27 44.64C10.15 41.90 12.96 38.38 15.41 34.42ZM18.50 43.78C14.90 51.48 8.86 59.11 2.88 64.08C4.25 65.38 6.41 68.33 7.34 69.70C9.43 67.82 11.66 65.59 13.68 63.14L13.68 89.21L20.09 89.21L20.09 54.29C21.89 51.55 23.47 48.74 24.84 45.94ZM28.30 64.15C31.32 68.62 35.28 74.66 37.22 78.19L42.77 74.81C40.82 71.35 36.72 65.52 33.70 61.27ZM68.33 28.51L47.74 28.51C48.24 27.14 48.67 25.78 49.10 24.41L42.26 22.75C40.54 29.52 37.30 36.07 33.19 40.18C34.63 41.33 37.37 43.85 38.38 45.07C40.97 42.26 43.27 38.59 45.29 34.42L50.62 34.42L47.09 37.51C49.46 39.60 52.42 42.41 53.86 44.50L52.06 44.50L52.06 51.84L24.98 51.84L24.98 57.96L52.06 57.96L52.06 81.14C52.06 82.37 51.70 82.73 50.26 82.73C48.96 82.80 44.21 82.80 39.46 82.66C40.39 84.46 41.40 87.26 41.69 89.14C48.02 89.14 52.42 88.99 55.08 87.98C57.74 87.05 58.61 85.18 58.61 81.29L58.61 57.96L67.61 57.96L67.61 51.84L58.61 51.84L58.61 44.50L54.36 44.50L58.68 40.39C57.31 38.74 54.79 36.22 52.49 34.42L68.33 34.42Z"/></svg>
