<svg xmlns="http://www.w3.org/2000/svg" xmlns:xlink="http://www.w3.org/1999/xlink" width="72.00000000000001" height="106.56000000000002"><path fill="red" stroke="red" d="M43.34 67.32L43.34 75.10L28.94 75.10L28.94 67.32ZM49.39 80.14L49.39 62.28L22.90 62.28L22.90 84.38L28.94 84.38L28.94 80.14ZM52.42 52.42L20.23 52.42L20.23 57.46L52.42 57.46ZM9.72 42.19C11.88 39.67 13.97 36.50 15.77 33.12L22.18 33.12L18.58 35.35C20.74 37.44 23.04 40.25 24.26 42.19ZM63.65 42.19L24.41 42.19L28.80 39.17C27.65 37.51 25.42 35.06 23.47 33.12L36.07 33.12L36.07 27.72L18.43 27.72C18.94 26.57 19.37 25.56 19.80 24.41L13.25 22.68C10.94 29.16 7.20 35.71 2.66 39.96C4.32 40.82 7.13 42.70 8.35 43.70L9.14 42.91L9.14 89.28L15.70 89.28L15.70 47.88L57.02 47.88L57.02 81.65C57.02 82.73 56.59 83.09 55.44 83.16C54.29 83.16 50.33 83.16 46.37 83.02C47.38 84.67 48.53 87.41 48.89 89.14C54.36 89.14 58.03 88.99 60.41 87.91C62.86 86.98 63.65 85.10 63.65 81.65ZM48.38 27.72C48.89 26.57 49.32 25.42 49.75 24.19L43.27 22.68C41.47 28.66 37.94 34.42 33.77 38.09C35.28 39.02 38.02 40.82 39.31 41.90C41.54 39.60 43.85 36.50 45.72 33.12L51.62 33.12L49.10 35.42C51.48 37.44 54.29 40.25 55.44 42.12L59.26 38.38C58.25 36.86 56.09 34.85 54.14 33.12L68.69 33.12L68.69 27.72Z"/></svg>
