<svg xmlns="http://www.w3.org/2000/svg" xmlns:xlink="http://www.w3.org/1999/xlink" width="72.00000000000001" height="106.56000000000002"><path fill="red" stroke="red" d="M22.18 32.62L18.65 34.42C20.16 35.86 21.96 37.94 22.75 39.31L27.79 36.50C27.14 35.35 25.70 33.91 24.34 32.62L35.35 32.62L35.35 28.08L17.14 28.08C18.00 26.86 18.72 25.70 19.37 24.48L13.61 22.82C11.30 27.29 7.20 31.68 2.95 34.70C4.25 35.64 6.48 37.80 7.42 38.81C9.58 37.15 11.74 34.99 13.75 32.62ZM48.24 70.92L48.24 67.61L55.94 67.61L55.94 70.92ZM35.14 70.92L35.14 67.61L42.55 67.61L42.55 70.92ZM35.14 60.48L42.55 60.48L42.55 63.79L35.14 63.79ZM35.14 53.50L42.55 53.50L42.55 56.66L35.14 56.66ZM47.16 44.14C46.37 45.72 44.78 47.95 43.49 49.68L34.06 49.68C33.12 48.10 31.32 45.79 29.95 44.14ZM54.50 32.69L50.90 34.70C52.34 36.22 54.14 38.16 55.30 39.67L40.68 39.67C40.10 38.30 39.10 36.79 38.09 35.42C39.31 36.14 40.46 36.94 41.11 37.51C42.41 36.14 43.78 34.49 45.00 32.69ZM55.94 60.48L55.94 63.79L48.24 63.79L48.24 60.48ZM61.78 67.61L68.47 67.61L68.47 63.79L61.78 63.79L61.78 56.66L48.24 56.66L48.24 53.50L65.16 53.50L65.16 49.68L50.40 49.68C51.55 48.46 52.78 47.16 54.00 45.65L48.10 44.14L67.10 44.14L67.10 39.67L56.52 39.67L60.48 37.22C59.69 35.93 57.96 34.20 56.38 32.69L68.33 32.69L68.33 28.15L47.88 28.15C48.53 26.93 49.18 25.70 49.75 24.48L43.85 22.82C42.05 26.86 39.02 31.25 35.86 34.20L36.65 34.56L31.97 36.29C32.69 37.30 33.48 38.45 34.06 39.67L8.28 39.67L8.28 58.90C8.28 67.03 7.70 77.90 2.45 85.61C3.82 86.26 6.41 88.27 7.34 89.42C13.32 81.00 14.26 68.18 14.26 58.90L14.26 44.14L29.30 44.14L24.77 46.22C25.56 47.30 26.50 48.46 27.29 49.68L16.20 49.68L16.20 53.50L29.52 53.50L29.52 56.66L18.58 56.66L18.58 60.48L29.52 60.48L29.52 63.79L15.77 63.79L15.77 67.61L29.52 67.61L29.52 70.92L18.00 70.92L18.00 74.81L27.07 74.81C23.33 78.84 17.57 82.66 12.38 84.60C13.54 85.54 15.19 87.41 16.06 88.78C20.59 86.54 25.70 82.58 29.52 78.26L29.52 89.14L35.14 89.14L35.14 74.81L42.55 74.81L42.55 89.14L48.24 89.14L48.24 78.19C52.70 82.58 58.90 86.54 64.37 88.70C65.23 87.26 66.96 85.32 68.11 84.24C62.14 82.44 55.44 78.77 51.12 74.81L61.78 74.81Z"/></svg>
