<svg xmlns="http://www.w3.org/2000/svg" xmlns:xlink="http://www.w3.org/1999/xlink" width="72.00000000000001" height="106.56000000000002"><path fill="red" stroke="red" d="M29.16 65.59C28.66 61.85 26.86 55.51 25.20 50.69L20.45 51.84C21.10 53.86 21.67 56.02 22.25 58.18L12.67 59.40C18.14 52.85 23.54 44.78 27.94 36.86L22.39 33.55C20.95 36.79 19.08 40.18 17.28 43.20L11.02 43.78C14.83 38.38 18.50 31.75 21.31 25.34L15.41 22.97C12.74 30.67 7.99 38.66 6.48 40.82C5.04 42.98 3.82 44.42 2.59 44.78C3.31 46.30 4.18 49.25 4.54 50.47C5.54 50.04 7.20 49.61 13.68 48.89C11.45 52.27 9.43 54.94 8.42 56.09C6.19 58.68 4.61 60.48 3.02 60.84C3.74 62.50 4.75 65.45 5.04 66.74C6.55 66.02 8.86 65.38 23.33 63.29C23.62 64.73 23.90 66.10 24.05 67.18ZM5.90 69.41C5.26 75.53 4.25 82.22 2.59 86.69C4.03 87.12 6.48 87.91 7.63 88.49C9.14 83.95 10.44 76.82 11.16 70.34ZM13.61 70.06C14.40 75.24 15.12 82.08 15.26 86.54L20.23 85.61C19.94 81.14 19.22 74.45 18.29 69.26ZM56.16 58.68C57.38 56.16 58.90 52.42 60.26 49.03L56.23 47.81C55.51 50.69 54.00 54.94 52.78 57.60ZM37.58 49.10C39.02 51.98 40.32 55.94 40.68 58.46L44.35 57.46C43.92 54.86 42.55 51.05 41.04 48.17ZM35.78 46.51L45.65 46.51L45.65 59.83L35.78 59.83ZM60.77 59.83L51.05 59.83L51.05 46.51L60.77 46.51ZM66.31 65.16L66.31 41.18L51.41 41.18L51.41 36.14L67.90 36.14L67.90 30.38L51.41 30.38L51.41 23.11L45.07 23.11L45.07 30.38L28.73 30.38L28.73 36.14L45.07 36.14L45.07 41.18L30.46 41.18L30.46 65.16L41.90 65.16C38.66 71.14 33.48 76.97 28.44 80.21C27.72 76.54 26.35 71.42 25.06 67.46L20.66 68.69C21.96 73.15 23.47 78.84 23.98 82.66L28.44 81.29C29.52 82.58 30.89 84.53 31.61 85.75C36.58 82.30 41.54 76.54 45.22 70.49L45.22 89.14L51.55 89.14L51.55 68.47C55.30 74.81 60.41 81.29 64.73 85.10C65.81 83.59 67.75 81.50 69.19 80.42C64.37 77.11 58.68 70.99 54.86 65.16Z"/></svg>
