<svg xmlns="http://www.w3.org/2000/svg" xmlns:xlink="http://www.w3.org/1999/xlink" width="72.00000000000001" height="106.56000000000002"><path fill="red" stroke="red" d="M57.82 33.48L69.41 33.48L69.41 28.44L57.82 28.44L57.82 23.18L52.06 23.18L52.06 36.58L57.82 36.58ZM39.24 77.90L49.97 77.90L49.97 81.58L39.24 81.58ZM49.97 65.95L39.24 65.95L39.24 62.35L49.97 62.35ZM49.97 73.73L39.24 73.73L39.24 70.13L49.97 70.13ZM36.07 42.55L42.77 42.55L42.77 48.02L36.07 48.02ZM55.37 42.55L62.35 42.55L62.35 48.02L55.37 48.02ZM69.41 81.58L55.51 81.58L55.51 77.90L65.95 77.90L65.95 73.73L55.51 73.73L55.51 70.13L65.95 70.13L65.95 65.95L55.51 65.95L55.51 62.35L68.04 62.35L68.04 57.53L56.30 57.53C55.44 56.02 54.00 54.07 52.56 52.49L67.46 52.49L67.46 38.09L50.54 38.09L50.54 52.42L47.30 54.00C48.24 55.08 49.18 56.30 49.97 57.53L40.90 57.53C41.62 56.23 42.34 54.86 42.98 53.50L39.82 52.49L47.66 52.49L47.66 38.09L31.46 38.09L31.46 52.49L37.51 52.49C35.21 57.24 31.68 61.85 27.86 65.30L27.86 59.26L23.26 59.26L23.26 76.03L19.37 76.03L19.37 54.65L29.30 54.65L29.30 48.96L19.37 48.96L19.37 37.01L28.22 37.01L28.22 33.48L40.25 33.48L40.25 36.65L46.01 36.65L46.01 23.18L40.25 23.18L40.25 28.44L28.15 28.44L28.15 31.54L11.88 31.54C12.46 29.09 13.03 26.50 13.46 24.05L7.99 22.97C6.91 30.31 4.90 38.09 2.09 43.13C3.46 43.78 5.90 45.07 6.91 45.86C8.14 43.42 9.36 40.39 10.44 37.01L13.82 37.01L13.82 48.96L3.10 48.96L3.10 54.65L13.82 54.65L13.82 76.03L9.79 76.03L9.79 59.33L5.33 59.33L5.33 81.79L23.26 81.79L23.26 84.17L27.86 84.17L27.86 68.62C28.80 69.48 29.66 70.34 30.17 70.92C31.25 69.91 32.47 68.76 33.62 67.54L33.62 89.28L39.24 89.28L39.24 86.47L69.41 86.47Z"/></svg>
