<svg xmlns="http://www.w3.org/2000/svg" xmlns:xlink="http://www.w3.org/1999/xlink" width="72.00000000000001" height="106.56000000000002"><path fill="red" stroke="red" d="M12.82 32.69L59.11 32.69L59.11 39.60L66.02 39.60L66.02 26.57L6.19 26.57L6.19 40.46L12.82 40.46ZM40.90 34.56L40.90 41.18C40.90 46.66 42.34 48.82 48.67 48.82L59.04 48.82C61.27 48.82 63.86 48.74 65.02 48.38C64.80 46.80 64.66 44.71 64.44 42.98C63.22 43.27 60.34 43.42 58.75 43.42L49.46 43.42C47.81 43.42 47.59 42.84 47.59 41.26L47.59 34.56ZM24.34 34.56C24.05 41.40 22.03 43.78 7.56 44.71C8.64 46.01 10.22 48.53 10.58 50.11C27.94 48.53 31.03 44.21 31.46 34.56ZM67.46 66.96L39.46 66.96L39.46 58.32L58.97 58.32L58.97 52.13L13.39 52.13L13.39 58.32L32.40 58.32L32.40 66.96L4.68 66.96L4.68 73.30L32.40 73.30L32.40 89.14L39.46 89.14L39.46 73.30L67.46 73.30Z"/></svg>
