<svg xmlns="http://www.w3.org/2000/svg" xmlns:xlink="http://www.w3.org/1999/xlink" width="72.00000000000001" height="106.56000000000002"><path fill="red" stroke="red" d="M58.90 51.19C58.90 52.06 58.61 52.27 57.67 52.34C56.88 52.34 53.93 52.42 50.90 52.27C51.70 53.71 52.63 56.02 52.92 57.53C57.46 57.53 60.62 57.53 62.71 56.66C64.80 55.73 65.38 54.22 65.38 51.26L65.38 25.99L37.08 25.99L37.08 31.90L58.90 31.90ZM55.73 41.18L52.56 42.77L55.15 38.02C51.91 36.65 45.72 34.49 41.33 33.26L38.66 37.58C43.06 39.10 49.25 41.33 52.42 42.84C46.44 45.72 40.68 48.46 36.72 50.18L39.31 55.73C44.57 52.92 51.12 49.46 57.17 46.01ZM27.50 51.19C27.50 52.06 27.22 52.27 26.28 52.27C25.49 52.34 22.54 52.34 19.51 52.27C20.30 53.71 21.24 55.94 21.53 57.53C25.70 57.53 28.80 57.53 30.82 56.81C31.54 58.18 32.33 59.83 32.90 61.42L9.50 61.42L9.50 67.25L63.07 67.25L63.07 61.42L40.10 61.42C39.31 59.40 38.16 57.02 37.01 55.15L31.82 56.30C33.48 55.44 33.98 53.93 33.98 51.26L33.98 25.99L6.12 25.99L6.12 31.82L27.50 31.82ZM23.33 38.38C20.38 37.01 14.54 34.70 10.44 33.41L7.63 37.58C11.81 39.17 17.64 41.62 20.59 43.13ZM24.34 41.33C17.50 44.71 10.44 48.17 5.69 50.18L8.28 55.66C13.54 52.92 19.87 49.54 25.78 46.15ZM49.10 81.86C51.05 78.12 53.28 73.22 55.08 68.83L48.10 67.54C46.80 71.78 44.42 77.69 42.34 81.86L23.90 81.86L29.09 80.28C28.22 76.75 26.14 71.50 24.41 67.39L18.22 68.98C19.80 72.94 21.74 78.26 22.61 81.86L3.74 81.86L3.74 87.70L68.54 87.70L68.54 81.86Z"/></svg>
