<svg xmlns="http://www.w3.org/2000/svg" xmlns:xlink="http://www.w3.org/1999/xlink" width="72.00000000000001" height="106.56000000000002"><path fill="red" stroke="red" d="M37.87 47.16L37.87 41.54L45.50 41.54L45.50 47.16ZM37.87 31.03L45.50 31.03L45.50 36.50L37.87 36.50ZM59.40 36.50L51.48 36.50L51.48 31.03L59.40 31.03ZM59.40 47.16L51.48 47.16L51.48 41.54L59.40 41.54ZM67.25 58.25L51.48 58.25L51.48 52.42L65.30 52.42L65.30 25.78L32.18 25.78L32.18 52.42L45.50 52.42L45.50 58.25L36.72 58.25L36.72 55.08L30.89 55.08L30.89 58.25L29.74 58.25L29.74 54.65L20.38 54.65L20.38 47.88L28.22 47.88L28.22 42.19L20.38 42.19L20.38 35.14C24.12 34.27 27.65 33.19 30.53 32.04L26.21 27.36C24.55 28.15 22.61 28.80 20.38 29.52L20.38 23.11L14.47 23.11L14.47 30.96C10.73 31.82 6.70 32.47 2.95 33.05C3.67 34.42 4.39 36.58 4.61 37.94C7.78 37.58 11.16 37.01 14.47 36.36L14.47 42.19L4.46 42.19L4.46 47.88L14.47 47.88L14.47 54.65L3.24 54.65L3.24 60.26L12.74 60.26C10.30 66.46 6.26 73.37 2.52 77.18C3.46 78.84 4.82 81.50 5.40 83.30C8.71 79.70 11.88 74.02 14.47 68.18L14.47 89.06L20.38 89.06L20.38 69.12C22.75 71.78 25.27 74.88 26.57 76.82L29.81 72.14C28.37 70.63 22.97 65.09 20.38 62.71L20.38 60.26L29.30 60.26L29.30 63.94L30.89 63.94L30.89 89.14L36.72 89.14L36.72 63.94L45.58 63.94L45.58 72.43C42.91 72.58 40.54 72.72 38.38 72.79L38.88 78.26C44.06 77.76 50.11 77.11 56.59 76.39C56.88 77.69 57.10 78.77 57.17 79.85L61.13 78.77C60.62 75.31 59.18 70.13 57.46 66.02L53.78 66.96C54.29 68.40 54.86 70.13 55.37 71.78L50.83 72.07L50.83 63.94L61.42 63.94L61.42 82.73C61.42 83.52 61.13 83.81 60.12 83.88C59.26 83.88 56.09 83.88 52.63 83.81C53.50 85.32 54.29 87.62 54.65 89.28C59.33 89.28 62.50 89.21 64.58 88.27C66.67 87.34 67.25 85.68 67.25 82.80Z"/></svg>
