<svg xmlns="http://www.w3.org/2000/svg" xmlns:xlink="http://www.w3.org/1999/xlink" width="72.00000000000001" height="106.56000000000002"><path fill="red" stroke="red" d="M61.20 54.22C63.79 54.22 66.53 54.14 67.90 53.71C67.61 52.27 67.39 49.75 67.25 48.02C65.74 48.31 62.86 48.46 61.06 48.46L48.96 48.46C46.66 48.46 46.15 47.52 46.15 44.93L46.15 38.30L64.73 38.30L64.73 32.54L46.15 32.54L46.15 23.26L39.53 23.26L39.53 44.78C39.53 51.70 41.47 54.22 48.82 54.22ZM13.90 54.22L27.29 54.22L27.29 64.37C24.84 62.42 20.59 59.47 17.35 57.46L13.90 60.62C17.28 62.93 21.82 66.24 24.12 68.33L27.29 65.16L27.29 67.82C22.10 70.42 17.06 73.01 13.32 74.66C13.75 71.50 13.90 68.40 13.90 65.59ZM33.62 48.60L7.70 48.60L7.70 65.52C7.70 71.64 7.34 79.34 3.31 84.82C4.61 85.68 7.13 88.13 7.99 89.42C10.87 85.68 12.31 80.78 13.10 75.96L14.98 80.71C18.72 78.41 22.97 75.74 27.29 72.94L27.29 82.51C27.29 83.38 27.00 83.66 26.06 83.66C25.13 83.74 22.18 83.74 19.15 83.59C20.02 85.03 20.95 87.41 21.24 88.92C25.70 88.92 28.87 88.85 30.96 87.98C32.98 87.05 33.62 85.54 33.62 82.51ZM23.83 30.38C25.06 32.33 26.35 34.63 27.65 36.86L14.76 37.80C18.07 34.13 21.53 29.66 24.34 25.20L17.50 23.18C14.62 28.87 10.01 34.56 8.64 36.07C7.20 37.58 5.98 38.66 4.82 38.95C5.54 40.61 6.55 43.70 6.91 45.07C8.78 44.35 11.52 43.92 30.38 42.19C31.32 43.92 32.04 45.58 32.47 46.87L38.23 44.42C36.50 40.18 32.54 33.41 29.23 28.37ZM49.90 82.80C46.73 82.80 46.15 82.37 46.15 79.92L46.15 70.42L65.38 70.42L65.38 64.44L46.15 64.44L46.15 56.52L39.53 56.52L39.53 79.99C39.53 86.69 41.47 88.63 49.03 88.63L60.70 88.63C66.96 88.63 68.76 86.11 69.55 76.68C67.68 76.39 65.02 75.31 63.65 74.23C63.36 81.50 62.78 82.80 60.12 82.80Z"/></svg>
