<svg xmlns="http://www.w3.org/2000/svg" xmlns:xlink="http://www.w3.org/1999/xlink" width="72.00000000000001" height="106.56000000000002"><path fill="red" stroke="red" d="M13.03 44.06C15.55 46.73 18.29 49.90 19.73 51.91L22.90 49.32L22.90 55.30C19.15 57.89 15.48 60.26 12.74 61.85C12.96 58.03 13.03 54.29 13.03 50.90ZM22.90 31.90L22.90 47.16C20.95 44.93 18.22 42.12 15.70 39.96L13.03 41.90L13.03 31.90ZM28.80 25.70L7.56 25.70L7.56 50.98C7.56 61.34 7.20 75.38 2.45 85.25C3.82 85.82 6.12 87.77 7.06 88.85C10.44 81.72 11.95 72.29 12.60 63.43L15.12 67.75C17.57 65.59 20.23 63.36 22.90 61.13L22.90 81.43C22.90 82.44 22.54 82.80 21.60 82.80C20.66 82.80 17.71 82.87 14.62 82.73C15.48 84.31 16.20 87.26 16.42 88.85C21.24 88.85 24.26 88.78 26.28 87.70C28.22 86.69 28.80 84.67 28.80 81.50ZM59.83 52.13C63.00 52.13 66.60 52.06 68.11 51.62C67.82 50.18 67.61 47.66 67.39 45.86C65.66 46.22 61.92 46.37 59.47 46.37L43.27 46.37C40.25 46.37 39.60 45.36 39.60 42.77L39.60 37.22L65.74 37.22L65.74 31.46L39.60 31.46L39.60 23.69L32.98 23.69L32.98 42.62C32.98 49.61 35.35 52.13 43.27 52.13ZM59.11 62.64L59.11 68.83L40.25 68.83L40.25 62.64ZM40.25 80.71L40.25 74.16L59.11 74.16L59.11 80.71ZM33.98 89.14L40.25 89.14L40.25 86.26L59.11 86.26L59.11 88.85L65.66 88.85L65.66 57.02L33.98 57.02Z"/></svg>
