<svg xmlns="http://www.w3.org/2000/svg" xmlns:xlink="http://www.w3.org/1999/xlink" width="72.00000000000001" height="106.56000000000002"><path fill="red" stroke="red" d="M12.46 44.06C14.47 46.44 16.63 49.25 17.78 51.19L20.38 49.32L20.38 57.02C17.28 59.04 14.47 60.91 12.17 62.21C12.38 58.25 12.46 54.50 12.46 51.19ZM20.38 31.82L20.38 46.51C18.86 44.57 16.85 42.19 15.05 40.39L12.46 42.05L12.46 31.82ZM63.07 23.33C55.08 25.99 42.19 28.30 30.82 29.74L30.82 48.53C30.82 58.97 30.46 73.58 25.63 84.53C25.78 83.81 25.85 82.94 25.85 81.94L25.85 25.70L6.98 25.70L6.98 51.19C6.98 61.56 6.62 75.67 2.38 85.61C3.60 86.26 5.98 88.27 6.91 89.42C10.15 82.15 11.52 72.43 12.10 63.43L14.04 67.82C16.20 66.10 18.22 64.37 20.38 62.57L20.38 81.86C20.38 82.80 20.09 83.09 19.22 83.16C18.36 83.16 15.77 83.23 12.89 83.09C13.68 84.60 14.40 87.26 14.54 88.78C19.01 88.78 21.74 88.63 23.47 87.62C24.12 87.34 24.55 86.90 24.91 86.40C26.42 86.98 29.02 88.34 30.17 89.35C35.86 77.69 36.72 60.19 36.72 48.53L36.72 34.99C47.30 33.70 58.82 31.75 67.25 29.23ZM64.80 51.34C63.36 53.28 61.27 55.73 59.11 58.03C58.54 54.36 58.03 50.47 57.60 46.58C61.13 45.79 64.44 44.78 67.32 43.78L62.71 38.23C57.53 40.46 48.89 42.48 41.40 43.70L41.40 77.69C41.40 81.07 38.88 83.45 37.44 84.46C38.45 85.39 40.03 87.62 40.54 88.92C41.69 87.70 43.70 86.54 55.51 80.93C55.01 79.63 54.36 77.33 54.07 75.60L46.80 78.70L46.80 48.60C48.60 48.31 50.54 48.02 52.34 47.66C54.07 64.80 57.31 79.92 64.66 88.20C65.59 86.54 67.61 84.24 69.12 83.09C65.02 78.91 62.21 72.00 60.26 63.79C62.93 61.78 66.10 58.90 69.26 56.38Z"/></svg>
