<svg xmlns="http://www.w3.org/2000/svg" xmlns:xlink="http://www.w3.org/1999/xlink" width="72.00000000000001" height="106.56000000000002"><path fill="red" stroke="red" d="M50.33 35.64L45.00 35.64L45.00 31.61L50.33 31.61ZM60.91 40.61L60.91 47.74L55.30 47.74L55.30 40.61ZM45.00 40.61L50.33 40.61L50.33 47.74L45.00 47.74ZM34.92 40.61L40.03 40.61L40.03 47.74L34.92 47.74ZM40.03 35.64L29.38 35.64L29.38 52.70L66.74 52.70L66.74 35.64L55.30 35.64L55.30 31.61L68.18 31.61L68.18 26.21L27.86 26.21L27.86 31.61L40.03 31.61ZM63.50 61.13L63.50 55.87L32.47 55.87L32.47 61.13ZM12.46 44.06C14.47 46.44 16.63 49.25 17.78 51.12L20.38 49.32L20.38 57.02C17.28 58.97 14.47 60.91 12.17 62.21C12.38 58.25 12.46 54.43 12.46 51.12ZM20.38 31.82L20.38 46.44C18.86 44.50 16.85 42.19 15.12 40.39L12.46 42.05L12.46 31.82ZM25.85 25.70L6.98 25.70L6.98 51.19C6.98 61.56 6.62 75.67 2.38 85.61C3.60 86.26 5.98 88.27 6.91 89.42C10.15 82.15 11.52 72.43 12.10 63.43L14.11 67.90L20.38 62.71L20.38 81.86C20.38 82.80 20.09 83.09 19.22 83.16C18.36 83.16 15.77 83.23 12.89 83.09C13.68 84.60 14.40 87.26 14.54 88.78C19.01 88.78 21.74 88.63 23.47 87.62C24.77 86.98 25.49 85.75 25.70 84.02C27.14 84.89 29.52 86.62 30.60 87.48C34.34 84.31 38.38 79.20 40.90 74.23L35.06 72.65C32.98 76.75 29.45 80.93 25.78 83.81C25.85 83.23 25.85 82.58 25.85 81.94ZM68.18 70.56L68.18 65.23L28.01 65.23L28.01 70.56L44.86 70.56L44.86 89.21L50.83 89.21L50.83 70.56ZM54.72 75.24C58.18 78.77 62.14 83.88 63.79 87.19L68.98 84.10C67.10 80.86 63.22 76.10 59.69 72.58Z"/></svg>
