<svg xmlns="http://www.w3.org/2000/svg" xmlns:xlink="http://www.w3.org/1999/xlink" width="72.00000000000001" height="106.56000000000002"><path fill="red" stroke="red" d="M12.38 45.14C13.97 47.09 15.62 49.10 16.56 50.54L18.50 49.10L18.50 57.67C16.20 59.26 13.97 60.62 12.17 61.78C12.31 58.03 12.38 54.58 12.38 51.41ZM18.50 31.82L18.50 45.43C17.14 43.78 15.62 42.05 14.04 40.61L12.38 41.83L12.38 31.82ZM24.26 25.70L6.70 25.70L6.70 51.48C6.70 61.92 6.41 76.39 2.30 86.33C3.82 86.83 6.34 88.20 7.42 89.14C10.22 82.30 11.45 73.30 12.02 64.58L13.54 67.97L18.50 63.50L18.50 82.08C18.50 82.87 18.22 83.16 17.42 83.16C16.70 83.16 14.33 83.16 11.81 83.09C12.60 84.67 13.32 87.62 13.54 89.14C17.57 89.21 20.09 89.06 21.96 87.98C23.76 86.98 24.26 85.10 24.26 82.08ZM33.77 72.00L44.21 72.00L44.21 75.02L33.77 75.02ZM33.77 65.45L44.21 65.45L44.21 68.40L33.77 68.40ZM33.77 58.97L44.21 58.97L44.21 61.85L33.77 61.85ZM49.68 78.77L49.68 55.22L28.51 55.22L28.51 78.77L32.47 78.77C30.53 81.14 27.14 84.17 24.26 85.90C25.63 86.76 27.65 88.13 28.66 89.06C31.54 87.12 35.50 83.59 38.02 80.71L34.34 78.77L43.63 78.77L40.54 80.93C43.34 83.16 46.73 86.47 48.46 88.85L53.21 86.04C51.48 83.88 48.24 81.00 45.22 78.77ZM26.64 52.56L50.62 52.56L50.62 48.46L26.64 48.46ZM28.94 41.62L28.94 45.72L49.03 45.72L49.03 41.62ZM69.12 38.59L69.12 32.90L65.74 32.90L69.55 30.31C68.04 28.37 64.94 25.49 62.35 23.69L58.03 26.28C60.41 28.22 63.22 30.89 64.80 32.90L57.89 32.90C57.82 29.66 57.82 26.42 57.82 23.18L51.77 23.18C51.84 26.50 51.84 29.74 51.91 32.90L25.85 32.90L25.85 38.59L52.06 38.59C52.78 68.33 55.08 88.85 63.36 89.06C65.74 89.14 68.62 86.62 70.20 75.67C69.12 75.02 66.67 73.30 65.59 71.93C65.23 77.69 64.51 81.07 63.65 81.07C60.41 80.93 58.46 62.42 57.96 38.59Z"/></svg>
