<svg xmlns="http://www.w3.org/2000/svg" xmlns:xlink="http://www.w3.org/1999/xlink" width="72.00000000000001" height="106.56000000000002"><path fill="red" stroke="red" d="M20.45 40.97L27.14 40.97L27.14 35.14L34.63 35.14L34.63 29.02L27.14 29.02L27.14 23.18L20.45 23.18L20.45 29.02L4.39 29.02L4.39 35.14L20.45 35.14ZM20.30 61.63C25.34 66.31 31.39 73.15 33.98 77.33L39.38 73.44C36.50 69.26 30.31 62.71 25.34 58.25ZM64.87 46.87L23.40 46.87C24.05 45.43 24.70 44.06 25.27 42.55L18.43 40.90C15.34 49.10 9.94 57.24 3.96 62.35C5.62 63.22 8.57 65.23 9.94 66.31C13.46 62.93 16.99 58.39 20.02 53.21L57.31 53.21C55.94 71.57 54.36 79.49 52.06 81.50C51.05 82.37 50.26 82.51 48.60 82.51C46.73 82.51 41.98 82.44 37.08 82.01C38.38 83.95 39.31 86.83 39.46 88.78C44.06 89.06 48.82 89.14 51.41 88.85C54.36 88.63 56.23 87.98 58.18 85.82C61.27 82.66 62.93 73.44 64.66 50.11ZM51.98 29.02L51.98 23.18L45.36 23.18L45.36 29.02L37.15 29.02L37.15 35.06L45.36 35.06L45.36 42.19L51.98 42.19L51.98 35.06L67.61 35.06L67.61 29.02Z"/></svg>
