<svg xmlns="http://www.w3.org/2000/svg" xmlns:xlink="http://www.w3.org/1999/xlink" width="72.00000000000001" height="106.56000000000002"><path fill="red" stroke="red" d="M45.22 39.89L51.91 39.89L51.91 35.42L67.82 35.42L67.82 29.30L51.91 29.30L51.91 23.18L45.22 23.18L45.22 29.30L38.66 29.30L38.66 35.42L45.22 35.42ZM38.52 58.68L38.52 65.66L20.74 65.66L20.74 58.68ZM29.66 81.94C22.10 81.94 20.74 81.14 20.74 77.69L20.74 71.06L45.14 71.06L45.14 53.28L14.76 53.28C16.06 51.70 17.42 50.11 18.65 48.38L56.38 48.38C55.80 61.78 55.08 66.82 54.07 68.11C53.42 68.83 52.92 68.98 51.84 68.98C50.83 68.98 48.67 68.98 46.30 68.69C47.16 70.49 47.81 73.08 47.95 75.02C50.90 75.17 53.71 75.17 55.37 74.88C57.24 74.66 58.54 74.02 59.83 72.43C61.70 70.20 62.42 63.36 63.22 45.50C63.29 44.57 63.29 42.77 63.29 42.77L22.18 42.77C22.75 41.69 23.33 40.61 23.83 39.46L27.50 39.46L27.50 35.50L33.26 35.50L33.26 29.30L27.50 29.30L27.50 23.04L20.88 23.04L20.88 29.30L4.25 29.30L4.25 35.50L20.88 35.50L20.88 37.94L17.64 37.08C14.54 44.21 8.86 50.98 2.66 55.22C4.25 56.30 6.84 58.54 7.99 59.76C10.01 58.10 12.02 56.30 13.97 54.14L13.97 77.76C13.97 86.26 17.50 88.34 29.81 88.34L54.65 88.34C65.30 88.34 67.90 85.54 69.12 75.10C67.18 74.74 64.22 73.66 62.50 72.65C61.70 80.42 60.77 81.94 54.36 81.94Z"/></svg>
