<svg xmlns="http://www.w3.org/2000/svg" xmlns:xlink="http://www.w3.org/1999/xlink" width="72.00000000000001" height="106.56000000000002"><path fill="red" stroke="red" d="M45.72 43.06L52.34 43.06L52.34 35.57L67.18 35.57L67.18 29.38L52.34 29.38L52.34 23.18L45.72 23.18L45.72 29.38L38.45 29.38L38.45 35.57L45.72 35.57ZM19.22 43.06L25.85 43.06L25.85 35.57L33.70 35.57L33.70 29.38L25.85 29.38L25.85 23.18L19.22 23.18L19.22 29.38L4.82 29.38L4.82 35.57L19.22 35.57ZM53.35 79.85L19.15 79.85L19.15 68.90L53.35 68.90ZM67.32 54.07L67.32 47.88L39.31 47.88L39.31 40.39L32.47 40.39L32.47 47.88L4.68 47.88L4.68 54.07L32.47 54.07L32.47 62.78L12.60 62.78L12.60 89.06L19.15 89.06L19.15 86.04L53.35 86.04L53.35 88.99L60.26 88.99L60.26 62.78L39.31 62.78L39.31 54.07Z"/></svg>
