<svg xmlns="http://www.w3.org/2000/svg" xmlns:xlink="http://www.w3.org/1999/xlink" width="72.00000000000001" height="106.56000000000002"><path fill="red" stroke="red" d="M17.35 37.73L23.98 37.73L23.98 33.48L34.56 33.48L34.56 27.58L23.98 27.58L23.98 23.04L17.35 23.04L17.35 27.58L4.46 27.58L4.46 33.48L17.35 33.48ZM20.66 63.50C20.74 61.85 20.88 59.98 20.95 58.18L17.35 58.18C28.01 55.66 33.34 51.70 36.07 45.72L53.57 45.72C52.99 49.39 52.34 51.12 51.70 51.84C51.12 52.34 50.47 52.49 49.32 52.49C48.10 52.49 45.00 52.42 41.83 52.06C42.77 53.57 43.42 55.80 43.49 57.60C47.09 57.74 50.40 57.74 52.13 57.60C54.22 57.46 55.58 57.02 56.95 55.73C58.68 54.22 59.54 50.62 60.41 42.77C60.55 41.90 60.62 40.39 60.62 40.39L37.87 40.39C38.23 38.74 38.52 36.94 38.74 35.14L32.26 35.14C32.04 37.01 31.68 38.81 31.25 40.39L10.66 40.39L10.66 45.72L28.87 45.72C25.63 50.18 19.51 52.85 7.20 54.43C8.35 55.58 9.72 58.03 10.15 59.47C11.88 59.26 13.39 59.04 14.90 58.75C14.83 60.41 14.69 61.99 14.62 63.50L4.46 63.50L4.46 68.98L13.90 68.98C12.67 76.10 9.79 81.22 2.59 84.60C3.96 85.68 5.76 87.91 6.41 89.42C15.19 85.10 18.65 78.34 20.02 68.98L27.29 68.98C26.71 78.26 26.06 82.01 25.13 83.09C24.55 83.66 23.98 83.88 22.97 83.88C22.03 83.88 19.66 83.81 17.14 83.59C18.00 85.03 18.65 87.34 18.72 88.92C21.67 89.06 24.48 89.14 26.06 88.85C27.94 88.70 29.23 88.20 30.46 86.83C32.11 84.96 32.90 79.56 33.62 65.95C33.70 65.16 33.70 63.50 33.70 63.50ZM52.06 63.50C52.20 61.85 52.27 60.05 52.34 58.25L46.08 58.25C46.01 60.05 45.94 61.85 45.79 63.50L35.93 63.50L35.93 68.98L45.22 68.98C43.99 76.25 41.04 81.22 33.62 84.53C34.92 85.61 36.65 87.91 37.37 89.50C46.58 85.25 50.04 78.55 51.41 68.98L59.47 68.98C59.04 78.26 58.39 81.94 57.60 83.02C57.10 83.74 56.45 83.81 55.44 83.81C54.36 83.81 51.84 83.81 49.10 83.52C50.04 85.10 50.69 87.41 50.76 89.06C53.93 89.21 56.95 89.21 58.54 89.06C60.55 88.78 61.85 88.34 63.07 86.90C64.66 84.96 65.38 79.63 65.95 66.02C66.02 65.16 66.02 63.50 66.02 63.50ZM54.65 27.58L54.65 23.04L48.02 23.04L48.02 27.58L37.30 27.58L37.30 33.48L48.02 33.48L48.02 37.80L54.65 37.80L54.65 33.48L67.75 33.48L67.75 27.58Z"/></svg>
