<svg xmlns="http://www.w3.org/2000/svg" xmlns:xlink="http://www.w3.org/1999/xlink" width="72.00000000000001" height="106.56000000000002"><path fill="red" stroke="red" d="M45.36 39.38L52.06 39.38L52.06 34.85L67.61 34.85L67.61 28.58L52.06 28.58L52.06 23.18L45.36 23.18L45.36 28.58L37.37 28.58L37.37 34.85L45.36 34.85ZM19.87 39.02L26.57 39.02L26.57 34.85L35.06 34.85L35.06 28.58L26.57 28.58L26.57 23.18L19.87 23.18L19.87 28.58L4.68 28.58L4.68 34.85L19.87 34.85ZM19.51 59.54C16.85 57.10 11.66 54.22 7.34 52.49L3.53 57.02C7.78 58.97 12.96 62.14 15.48 64.51ZM9.50 88.34C13.68 83.45 18.14 77.33 21.89 72.00L17.86 67.18C13.46 73.08 8.28 79.42 4.61 83.23ZM6.05 43.20C10.44 45.29 15.70 48.60 18.22 51.12L22.32 46.08C19.66 43.70 14.26 40.61 9.94 38.74ZM68.54 65.81L48.82 65.81L48.82 47.45L66.24 47.45L66.24 41.26L25.13 41.26L25.13 47.45L42.19 47.45L42.19 65.81L22.54 65.81L22.54 72.00L42.19 72.00L42.19 89.14L48.82 89.14L48.82 72.00L68.54 72.00ZM25.06 51.70C28.22 55.87 31.54 61.42 32.90 65.02L38.52 62.21C37.15 58.68 33.62 53.21 30.46 49.25ZM56.66 65.45C59.69 62.21 63.58 56.95 66.53 52.42L61.20 49.25C59.04 53.42 54.94 59.18 51.91 62.50Z"/></svg>
