<svg xmlns="http://www.w3.org/2000/svg" xmlns:xlink="http://www.w3.org/1999/xlink" width="72.00000000000001" height="106.56000000000002"><path fill="red" stroke="red" d="M45.36 36.72L52.06 36.72L52.06 32.90L67.46 32.90L67.46 27.58L52.06 27.58L52.06 23.11L45.36 23.11L45.36 27.58L37.22 27.58L37.22 32.90L45.36 32.90ZM19.73 37.94L26.28 37.94L26.28 32.90L34.63 32.90L34.63 27.58L26.28 27.58L26.28 23.11L19.73 23.11L19.73 27.58L4.39 27.58L4.39 32.90L19.73 32.90ZM69.41 59.54C63.58 57.31 53.86 54.43 44.93 52.56L41.18 56.09C50.40 58.25 59.33 60.98 64.51 63.36ZM47.59 71.14C45.22 73.66 42.34 75.67 38.88 77.33C34.27 76.32 29.66 75.31 24.91 74.38C25.92 73.37 27.00 72.29 28.08 71.14ZM67.46 71.14L67.46 65.88L58.18 65.88C58.46 65.30 58.68 64.66 58.97 64.08L53.14 62.28C52.63 63.58 52.06 64.73 51.41 65.88L32.62 65.88C33.55 64.66 34.42 63.58 35.21 62.35L39.17 62.35L39.17 52.56L67.46 52.56L67.46 47.66L39.17 47.66L39.17 43.49C47.16 42.84 54.72 41.98 60.84 40.68L56.23 36.43C45.43 38.59 25.34 39.74 8.64 39.96C9.22 41.18 9.86 43.34 9.94 44.71C17.14 44.64 24.91 44.42 32.62 43.99L32.62 47.66L4.90 47.66L4.90 52.56L26.78 52.56C20.45 56.16 11.38 58.90 2.95 60.19C4.18 61.34 5.76 63.65 6.62 65.09C15.91 63.22 25.92 59.26 32.62 54.00L32.62 61.27L28.58 60.19C27.58 61.99 26.21 63.94 24.70 65.88L4.68 65.88L4.68 71.14L20.45 71.14C18.50 73.30 16.63 75.31 14.83 77.04C20.30 78.05 25.56 79.13 30.67 80.35C23.69 82.08 15.12 83.09 4.75 83.52C5.69 84.89 6.62 87.05 7.06 88.78C21.10 87.91 32.04 86.18 40.46 82.66C49.39 84.89 57.10 87.26 62.71 89.35L68.54 85.39C62.78 83.45 55.22 81.36 46.87 79.27C50.18 77.04 52.92 74.38 55.15 71.14Z"/></svg>
