<svg xmlns="http://www.w3.org/2000/svg" xmlns:xlink="http://www.w3.org/1999/xlink" width="72.00000000000001" height="106.56000000000002"><path fill="red" stroke="red" d="M47.52 36.43L54.14 36.43L54.14 32.54L67.75 32.54L67.75 27.36L54.14 27.36L54.14 23.04L47.52 23.04L47.52 27.36L37.37 27.36L37.37 32.54L47.52 32.54ZM18.22 36.43L24.77 36.43L24.77 32.54L34.63 32.54L34.63 27.36L24.77 27.36L24.77 23.04L18.22 23.04L18.22 27.36L4.46 27.36L4.46 32.54L18.22 32.54ZM18.58 74.09C15.70 78.12 10.58 81.86 5.47 84.31C7.06 85.39 9.65 87.48 10.94 88.70C15.91 85.82 21.67 81.07 25.13 76.18ZM50.40 46.87L50.40 51.19L37.22 51.19L37.22 46.87ZM68.26 68.62L39.24 68.62L39.24 64.15L65.74 64.15L65.74 58.90L19.94 58.90L19.94 46.87L30.89 46.87L30.89 55.37L56.95 55.37L56.95 46.87L67.82 46.87L67.82 41.62L56.95 41.62L56.95 36.79L50.40 36.79L50.40 41.62L37.22 41.62L37.22 36.29L30.89 36.29L30.89 41.62L19.94 41.62L19.94 36.79L13.32 36.79L13.32 41.62L4.25 41.62L4.25 46.87L13.32 46.87L13.32 64.15L32.69 64.15L32.69 68.62L3.96 68.62L3.96 73.87L32.69 73.87L32.69 89.21L39.24 89.21L39.24 73.87L51.62 73.87L46.73 77.11C51.84 80.42 58.18 85.39 61.13 88.63L66.60 84.82C63.43 81.58 57.17 77.04 52.20 73.87L68.26 73.87Z"/></svg>
