<svg xmlns="http://www.w3.org/2000/svg" xmlns:xlink="http://www.w3.org/1999/xlink" width="72.00000000000001" height="106.56000000000002"><path fill="red" stroke="red" d="M44.86 36.07L51.55 36.07L51.55 32.40L67.61 32.40L67.61 27.29L51.55 27.29L51.55 23.11L44.86 23.11L44.86 27.29L37.22 27.29L37.22 32.40L44.86 32.40ZM20.30 35.93L26.93 35.93L26.93 32.40L34.63 32.40L34.63 27.29L26.93 27.29L26.93 23.11L20.30 23.11L20.30 27.29L4.46 27.29L4.46 32.40L20.30 32.40ZM43.06 76.82L28.94 76.82L28.94 72.94L43.06 72.94ZM48.46 69.98L23.69 69.98L23.69 79.78L48.46 79.78ZM54.00 67.39L54.00 82.37L18.50 82.37L18.50 67.39ZM11.95 89.06L18.50 89.06L18.50 86.69L54.00 86.69L54.00 88.99L60.84 88.99L60.84 63.14L11.95 63.14ZM30.17 51.70C28.37 50.40 25.27 48.46 22.61 47.09C23.40 46.08 24.05 44.93 24.55 43.85L20.16 42.84L32.54 42.84L32.54 55.15L13.54 55.15C15.84 53.78 18.07 52.13 20.02 50.18C22.61 51.62 25.34 53.50 26.93 54.72ZM59.54 55.15L62.78 52.06C60.62 50.54 56.59 48.24 53.21 46.66C53.78 45.79 54.22 44.78 54.58 43.85L49.54 42.91C48.02 46.87 44.42 49.82 39.96 51.77C41.11 52.56 43.13 54.07 44.06 54.94C46.51 53.64 48.82 51.98 50.76 49.97C53.93 51.55 57.38 53.64 59.40 55.15L39.02 55.15L39.02 42.84L64.44 42.84L64.44 37.73L39.02 37.73L39.02 34.06L32.54 34.06L32.54 37.73L7.99 37.73L7.99 42.84L19.44 42.84C17.50 46.94 13.39 50.11 8.71 52.27C9.72 52.92 11.38 54.22 12.38 55.15L4.25 55.15L4.25 60.41L67.97 60.41L67.97 55.15Z"/></svg>
