<svg xmlns="http://www.w3.org/2000/svg" xmlns:xlink="http://www.w3.org/1999/xlink" width="72.00000000000001" height="106.56000000000002"><path fill="red" stroke="red" d="M47.52 35.93L54.14 35.93L54.14 32.54L67.75 32.54L67.75 27.14L54.14 27.14L54.14 23.04L47.52 23.04L47.52 27.14L37.37 27.14L37.37 32.54L47.52 32.54ZM18.22 37.22L24.77 37.22L24.77 32.54L34.56 32.54L34.56 27.14L24.77 27.14L24.77 23.04L18.22 23.04L18.22 27.14L4.46 27.14L4.46 32.54L18.22 32.54ZM5.98 41.69C10.08 43.78 15.12 47.09 17.50 49.39L21.53 44.57C19.01 42.19 13.82 39.17 9.86 37.37ZM18.43 58.18C15.91 55.80 10.80 52.78 6.77 50.90L2.95 55.37C6.98 57.38 12.02 60.70 14.40 63.00ZM9.86 88.70C13.03 83.59 16.42 77.26 19.22 71.71L14.54 67.82C11.30 73.87 7.34 80.57 4.54 84.67ZM47.09 65.38L47.09 57.38C51.05 59.83 55.44 62.71 59.04 65.38ZM46.73 82.58L46.73 78.12L56.02 78.12L56.02 82.58ZM31.97 78.12L40.97 78.12L40.97 82.58L31.97 82.58ZM40.97 69.91L40.97 74.09L31.97 74.09L31.97 69.91ZM56.02 74.09L46.73 74.09L46.73 69.91L56.02 69.91ZM40.82 65.38L31.61 65.38C35.06 63.07 38.30 60.34 40.82 57.46ZM40.82 51.19L32.83 51.19L35.78 49.97C35.28 48.46 33.98 46.15 32.54 44.42C35.28 44.28 38.09 44.06 40.82 43.85ZM68.26 65.45C65.30 62.86 60.34 59.40 55.22 56.30L68.04 56.30L68.04 51.19L57.17 51.19C58.54 49.25 60.12 46.80 61.49 44.57L55.44 42.84C54.50 45.29 52.78 48.67 51.34 51.19L47.09 51.19L47.09 43.20C53.21 42.55 58.97 41.76 63.72 40.61L58.61 36.43C50.54 38.30 35.57 39.60 22.90 40.10C23.47 41.33 24.19 43.42 24.34 44.78C26.57 44.71 28.87 44.64 31.18 44.50L27.43 46.01C28.51 47.52 29.74 49.61 30.38 51.19L20.52 51.19L20.52 56.30L34.63 56.30C30.10 60.41 23.69 64.01 17.71 65.95C19.01 67.10 20.81 69.26 21.67 70.78C23.11 70.20 24.55 69.55 25.99 68.76L25.99 89.28L31.97 89.28L31.97 87.12L56.02 87.12L56.02 89.28L62.21 89.28L62.21 67.90C63.07 68.54 63.86 69.19 64.44 69.84Z"/></svg>
