<svg xmlns="http://www.w3.org/2000/svg" xmlns:xlink="http://www.w3.org/1999/xlink" width="72.00000000000001" height="106.56000000000002"><path fill="red" stroke="red" d="M10.51 41.33L15.12 41.33L15.12 57.82L10.51 57.82ZM23.62 57.82L19.08 57.82L19.08 41.33L23.62 41.33ZM22.39 68.18C23.04 70.27 23.69 72.58 24.26 75.02L19.73 75.82L19.73 63.36L29.09 63.36L29.09 35.78L19.66 35.78L19.66 23.40L14.40 23.40L14.40 35.78L5.26 35.78L5.26 66.96L10.51 66.96L10.51 63.36L14.47 63.36L14.47 76.75C10.37 77.47 6.62 78.19 3.60 78.62L4.61 84.74C10.44 83.52 17.93 82.01 25.42 80.42C25.78 82.44 26.06 84.31 26.28 85.90L31.54 84.67C30.89 79.92 29.16 72.72 27.43 67.10ZM52.34 69.34L52.34 62.21L60.77 62.21L60.77 69.34ZM38.38 69.34L38.38 62.21L46.51 62.21L46.51 69.34ZM46.51 49.90L46.51 56.74L38.38 56.74L38.38 49.90ZM60.77 56.74L52.34 56.74L52.34 49.90L60.77 49.90ZM66.96 44.21L57.82 44.21C56.66 43.34 55.22 42.34 53.71 41.40C58.61 38.02 63.58 33.62 67.18 29.52L62.93 26.28L61.70 26.64L33.70 26.64L33.70 32.33L56.02 32.33C53.78 34.42 51.12 36.58 48.53 38.23C45.86 36.79 43.20 35.28 40.75 34.13L37.01 38.09C40.25 39.74 44.14 42.05 47.52 44.21L32.33 44.21L32.33 89.14L38.38 89.14L38.38 74.95L46.51 74.95L46.51 88.70L52.34 88.70L52.34 74.95L60.77 74.95L60.77 82.44C60.77 83.30 60.48 83.59 59.62 83.66C58.75 83.66 56.02 83.66 53.06 83.59C53.86 85.10 54.58 87.62 54.79 89.21C59.33 89.28 62.42 89.14 64.44 88.20C66.38 87.26 66.96 85.61 66.96 82.51Z"/></svg>
