<svg xmlns="http://www.w3.org/2000/svg" xmlns:xlink="http://www.w3.org/1999/xlink" width="72.00000000000001" height="106.56000000000002"><path fill="red" stroke="red" d="M52.34 81.86C51.12 79.20 48.02 75.46 45.22 72.65L50.69 72.65L50.69 58.32L34.56 58.32L34.56 53.93L58.03 53.93C57.31 73.58 56.38 80.86 55.01 82.66C54.36 83.45 53.71 83.66 52.63 83.66C52.13 83.66 51.12 83.66 49.97 83.59ZM34.56 78.19L34.56 72.65L43.92 72.65L40.39 74.95C41.26 75.82 42.05 76.75 42.84 77.76ZM44.57 68.04L34.56 68.04L34.56 62.86L44.57 62.86ZM18.72 68.04L18.72 62.86L28.37 62.86L28.37 68.04ZM14.62 31.25L24.48 31.25L24.48 38.16L14.62 38.16ZM30.60 31.25L40.82 31.25L40.82 38.16L30.60 38.16ZM46.94 31.25L57.31 31.25L57.31 38.16L46.94 38.16ZM22.25 48.10C23.18 46.87 24.19 45.65 25.06 44.42L22.97 43.63L64.01 43.63L64.01 25.78L8.21 25.78L8.21 43.63L17.93 43.63C14.18 48.31 8.78 52.63 3.38 55.66C4.75 56.81 6.91 59.40 7.85 60.62C10.66 58.90 13.68 56.52 16.56 53.93L28.37 53.93L28.37 58.32L12.89 58.32L12.89 74.95L18.72 74.95L18.72 72.65L28.37 72.65L28.37 78.62C20.74 79.06 13.82 79.42 8.57 79.63L9.29 85.68C19.22 84.96 33.12 83.88 46.44 82.66L46.94 83.45L46.15 83.38C47.09 84.96 47.74 87.34 47.81 88.92C51.05 89.06 54.07 89.06 55.94 88.85C58.03 88.56 59.54 87.98 60.84 86.11C63.00 83.45 63.86 75.17 64.80 50.98C64.87 50.11 64.87 48.10 64.87 48.10Z"/></svg>
