<svg xmlns="http://www.w3.org/2000/svg" xmlns:xlink="http://www.w3.org/1999/xlink" width="72.00000000000001" height="106.56000000000002"><path fill="red" stroke="red" d="M10.08 41.54L14.26 41.54L14.26 57.02L10.08 57.02ZM22.39 57.02L18.29 57.02L18.29 41.54L22.39 41.54ZM36.00 73.73C34.42 76.39 32.26 79.20 29.95 81.72C29.16 77.26 27.29 70.70 25.06 65.59L20.74 67.03C21.60 69.19 22.46 71.64 23.18 74.23L19.08 74.95L19.08 62.57L27.36 62.57L27.36 36.07L19.01 36.07L19.01 23.40L13.54 23.40L13.54 36.07L5.18 36.07L5.18 65.66L10.08 65.66L10.08 62.57L13.54 62.57L13.54 76.10C9.58 76.90 5.98 77.54 3.02 78.05L4.18 84.46C10.01 83.16 17.42 81.58 24.70 79.92C24.91 81.29 25.13 82.44 25.27 83.59L29.45 82.22C28.73 83.02 27.94 83.81 27.22 84.53C28.66 85.25 30.96 86.76 32.11 87.70C35.21 84.60 39.02 79.63 41.54 75.46ZM36.50 40.18L45.14 40.18L45.14 45.00L36.50 45.00ZM36.50 30.82L45.14 30.82L45.14 35.64L36.50 35.64ZM59.40 35.64L50.83 35.64L50.83 30.82L59.40 30.82ZM59.40 45.00L50.83 45.00L50.83 40.18L59.40 40.18ZM61.92 70.49C62.93 71.93 63.79 73.30 64.30 74.45L68.98 71.64C67.25 68.26 63.29 63.00 59.98 59.18L55.51 61.70C56.59 62.93 57.67 64.37 58.68 65.74L42.12 66.89C48.31 63.29 54.50 58.90 60.34 54.14L55.15 50.90C53.35 52.56 51.41 54.29 49.39 55.80L40.97 56.02C43.42 54.29 46.01 52.13 48.24 49.90L65.45 49.90L65.45 25.92L30.60 25.92L30.60 49.90L40.46 49.90C38.16 52.20 35.71 54.00 34.85 54.58C33.48 55.66 32.26 56.23 31.18 56.38C31.82 57.96 32.69 60.70 32.98 61.92C34.06 61.56 35.57 61.27 42.55 60.91C39.53 62.93 37.01 64.51 35.71 65.09C32.90 66.74 30.89 67.75 29.09 67.97C29.74 69.48 30.60 72.43 30.82 73.51C32.33 72.94 34.42 72.58 45.79 71.71L45.79 82.58C45.79 83.30 45.58 83.52 44.71 83.52C43.92 83.59 41.11 83.59 38.16 83.45C38.95 85.03 39.67 87.26 39.96 88.92C44.28 88.92 47.30 88.99 49.39 88.06C51.48 87.19 51.98 85.61 51.98 82.73L51.98 71.21ZM54.58 75.96C57.67 79.49 61.34 84.46 63.00 87.41L67.82 84.38C66.02 81.36 62.28 76.68 59.11 73.30Z"/></svg>
