<svg xmlns="http://www.w3.org/2000/svg" xmlns:xlink="http://www.w3.org/1999/xlink" width="72.00000000000001" height="106.56000000000002"><path fill="red" stroke="red" d="M62.21 37.51L55.58 37.51L55.58 30.02L62.21 30.02ZM67.32 25.42L50.69 25.42L50.69 42.12L67.32 42.12ZM41.98 37.51L35.71 37.51L35.71 30.02L41.98 30.02ZM47.09 25.42L30.82 25.42L30.82 42.12L47.09 42.12ZM9.79 41.83L14.18 41.83L14.18 57.10L9.79 57.10ZM23.26 57.10L18.72 57.10L18.72 41.83L23.26 41.83ZM21.31 67.03C22.10 69.34 22.90 71.93 23.54 74.52L19.30 75.24L19.30 62.86L28.37 62.86L28.37 36.07L19.30 36.07L19.30 23.69L13.61 23.69L13.61 36.07L4.90 36.07L4.90 65.88L9.79 65.88L9.79 62.86L13.61 62.86L13.61 76.18C9.58 76.82 5.83 77.47 2.81 77.83L3.74 84.10C9.65 82.94 17.28 81.50 24.77 79.99C25.06 81.65 25.27 83.16 25.42 84.53L30.53 83.09C29.95 78.34 28.15 71.21 26.14 65.74ZM38.23 63.58L38.23 59.04L45.65 59.04L45.65 63.58ZM38.23 49.97L45.65 49.97L45.65 54.43L38.23 54.43ZM59.76 54.43L51.98 54.43L51.98 49.97L59.76 49.97ZM59.76 63.58L51.98 63.58L51.98 59.04L59.76 59.04ZM69.05 72.72L51.98 72.72L51.98 68.47L65.81 68.47L65.81 45.14L32.47 45.14L32.47 68.47L45.65 68.47L45.65 72.72L29.95 72.72L29.95 78.34L45.65 78.34L45.65 89.14L51.98 89.14L51.98 78.34L69.05 78.34Z"/></svg>
