<svg xmlns="http://www.w3.org/2000/svg" xmlns:xlink="http://www.w3.org/1999/xlink" width="72.00000000000001" height="106.56000000000002"><path fill="red" stroke="red" d="M60.05 29.95C59.54 33.19 59.11 34.70 58.61 35.35C58.10 35.71 57.67 35.78 56.88 35.78C56.09 35.78 54.43 35.78 52.49 35.57C52.99 36.36 53.35 37.58 53.57 38.59L49.54 38.59L49.54 42.70L45.00 42.70C45.43 41.69 45.79 40.61 46.15 39.60L43.56 39.02C46.94 36.72 49.68 33.77 51.26 29.95ZM49.54 47.16L49.54 51.48L35.86 51.48L35.86 56.09L49.54 56.09L49.54 61.85L55.30 61.85L55.30 56.09L68.26 56.09L68.26 51.48L55.30 51.48L55.30 47.16L66.46 47.16L66.46 42.70L55.30 42.70L55.30 40.03C57.02 40.10 58.61 40.10 59.54 39.96C61.06 39.82 62.35 39.46 63.29 38.52C64.73 37.15 65.52 34.06 66.10 27.36C66.24 26.64 66.31 25.27 66.31 25.27L36.65 25.27L36.65 29.95L45.43 29.95C43.34 33.55 39.60 36.22 34.78 38.02C36.00 38.88 37.94 40.75 38.74 41.76C39.24 41.54 39.67 41.33 40.18 41.11C38.95 43.92 37.30 46.58 35.28 48.74C36.58 49.32 38.88 50.40 39.89 51.19C40.90 50.04 41.90 48.67 42.77 47.16ZM39.10 77.26L54.65 77.26L51.84 78.48C53.06 79.42 54.29 80.57 55.58 81.72L39.10 82.08ZM17.50 72.72L17.50 67.68L32.54 67.68L32.54 72.72ZM54.72 67.68L54.72 72.72L39.10 72.72L39.10 67.68ZM22.97 49.03L22.97 45.29L28.44 45.29L28.44 49.03ZM18.65 45.29L18.65 49.03L12.67 49.03C12.89 47.74 12.96 46.51 13.03 45.29ZM22.03 30.24C21.31 31.46 20.45 32.69 19.66 33.77L12.17 33.77C13.25 32.62 14.18 31.46 14.98 30.24ZM13.10 37.87L18.65 37.87L18.65 41.47L13.10 41.47ZM28.44 41.47L22.97 41.47L22.97 37.87L28.44 37.87ZM68.69 87.12C66.46 84.38 62.28 80.42 58.46 77.26L61.56 77.26L61.56 63.22L39.10 63.22L39.10 59.76L32.54 59.76C33.70 58.97 34.06 57.67 34.06 55.58L34.06 33.77L25.92 33.77C27.29 32.04 28.51 30.17 29.66 28.44L26.06 25.85L24.91 26.21L17.50 26.21C18.00 25.34 18.43 24.48 18.79 23.62L13.03 22.68C11.16 26.93 7.63 31.68 2.38 35.28C3.74 35.93 5.69 37.66 6.55 38.88C6.98 38.59 7.34 38.23 7.78 37.94L7.78 42.41C7.78 47.59 7.13 54.50 2.45 59.69C3.67 60.19 5.98 61.92 6.91 62.93C9.50 59.98 11.09 56.38 11.95 52.78L28.44 52.78L28.44 55.51C28.44 56.30 28.22 56.52 27.36 56.52C26.57 56.59 23.62 56.59 20.66 56.52C21.38 57.74 22.10 59.69 22.39 61.06C26.64 61.06 29.66 61.06 31.54 60.26C31.90 60.12 32.26 59.98 32.54 59.76L32.54 63.22L11.02 63.22L11.02 77.26L32.54 77.26L32.54 82.22C22.39 82.44 13.10 82.58 5.98 82.66L6.41 88.20C19.87 87.98 40.90 87.48 60.70 86.83C61.70 87.91 62.57 88.99 63.22 89.86Z"/></svg>
