<svg xmlns="http://www.w3.org/2000/svg" xmlns:xlink="http://www.w3.org/1999/xlink" width="72.00000000000001" height="106.56000000000002"><path fill="red" stroke="red" d="M23.83 36.00L24.48 41.62L40.18 40.10C44.42 49.39 51.62 55.15 59.98 55.15C65.38 55.15 67.61 53.21 68.62 44.93C66.89 44.42 64.66 43.34 63.22 42.12C62.86 47.09 62.28 48.82 60.34 48.89C55.51 48.96 50.76 45.36 47.38 39.53L67.82 37.58L67.18 32.04L58.90 32.83L62.57 29.81C60.34 27.79 55.94 25.13 52.63 23.33L48.53 26.35C51.70 28.22 55.58 30.89 57.89 32.90L44.78 34.06C43.63 30.82 42.84 27.14 42.55 23.26L35.93 23.26C36.22 27.36 36.94 31.18 38.02 34.70ZM14.04 54.94L20.45 54.94L20.45 34.13C22.82 31.32 25.06 28.44 26.86 25.49L20.66 23.11C16.27 30.31 8.93 37.44 1.73 41.83C3.17 42.98 5.54 45.58 6.62 46.87C9.00 45.14 11.59 43.13 14.04 40.75ZM59.98 64.80C57.10 66.89 52.49 69.77 48.60 71.78C46.30 69.48 44.35 66.96 42.91 64.15L67.97 64.15L67.97 58.32L35.57 58.32L40.82 55.94C39.82 53.78 37.66 50.69 35.71 48.38L29.81 50.69C31.46 52.99 33.41 56.09 34.34 58.32L4.18 58.32L4.18 64.15L27.00 64.15C20.30 68.40 11.02 71.93 2.59 73.66C3.89 74.95 5.62 77.18 6.48 78.70C10.73 77.62 15.26 76.10 19.58 74.23L19.58 79.49C19.58 82.15 18.00 82.94 16.85 83.45C17.64 84.53 18.65 87.05 18.86 88.56C20.52 87.55 23.11 86.76 41.04 82.58C40.90 81.22 40.68 78.84 40.68 77.11L25.85 80.28L25.85 71.14C29.74 69.12 33.34 66.67 36.14 64.15C41.47 76.46 50.76 84.10 65.23 87.48C66.02 85.68 67.90 83.09 69.34 81.65C62.93 80.42 57.53 78.34 53.14 75.38C57.02 73.58 61.56 71.14 65.23 68.76Z"/></svg>
