<svg xmlns="http://www.w3.org/2000/svg" xmlns:xlink="http://www.w3.org/1999/xlink" width="72.00000000000001" height="106.56000000000002"><path fill="red" stroke="red" d="M59.90 34.63L59.90 59.47C59.90 60.05 59.76 60.19 59.11 60.26C58.68 60.26 57.67 60.26 56.38 60.19L58.68 56.59C57.17 55.58 51.34 52.27 49.03 51.05L49.03 50.69L58.25 50.69L58.25 46.58L53.57 46.58C54.58 45.00 55.80 43.13 57.10 40.97L53.42 39.38C52.78 41.11 51.41 43.70 50.47 45.36L52.99 46.58L49.03 46.58L49.03 39.53C51.91 39.10 54.65 38.59 56.88 37.87L53.06 34.99C49.32 36.14 42.05 36.86 35.93 37.15C36.50 38.16 37.15 39.60 37.30 40.54C39.53 40.46 41.90 40.32 44.28 40.10L44.28 46.58L40.39 46.58L42.55 45.43C42.19 43.99 41.04 41.98 39.89 40.46L36.65 41.98C37.58 43.34 38.52 45.14 39.02 46.58L35.35 46.58L35.35 50.69L42.12 50.69C39.82 53.28 36.72 55.94 33.77 57.60L33.77 34.63ZM33.77 58.75C34.70 59.62 35.64 60.84 36.29 61.78C39.02 60.12 41.98 57.31 44.28 54.43L44.28 60.77L49.03 60.77L49.03 55.37C51.41 57.02 54.29 59.11 55.80 60.41C56.38 61.63 56.95 63.22 57.17 64.58C59.90 64.58 62.06 64.51 63.58 63.72C65.02 62.93 65.45 61.85 65.45 59.47L65.45 29.59L46.51 29.59C47.23 27.79 48.10 25.78 48.96 23.76L41.62 22.90C41.26 24.77 40.61 27.36 39.89 29.59L28.22 29.59L28.22 64.08L33.77 64.08ZM27.29 64.08C26.57 63.22 24.77 61.13 22.90 58.97C24.41 57.31 26.28 55.22 28.15 53.28L24.05 49.18C23.11 51.05 21.38 53.57 19.80 55.66C19.15 55.01 18.58 54.36 18.07 53.86L18.07 52.92C20.95 48.10 23.47 42.77 25.27 37.51L21.89 35.28L20.66 35.57L14.18 35.57L19.73 32.90C18.65 30.46 16.63 26.57 14.90 23.62L9.58 25.85C11.23 28.80 13.18 32.90 14.04 35.57L3.46 35.57L3.46 41.54L17.64 41.54C13.90 50.04 7.78 58.68 1.94 63.79C2.88 64.87 4.54 68.04 5.11 69.70C7.42 67.54 9.79 64.87 12.10 61.92L12.10 89.21L18.07 89.21L18.07 61.56C20.09 64.30 22.18 67.32 23.26 69.19ZM68.98 67.03L48.89 67.03C49.03 65.74 49.18 64.30 49.32 62.78L43.20 62.78C43.06 64.30 42.91 65.74 42.70 67.03L25.13 67.03L25.13 72.72L41.11 72.72C38.81 78.12 33.98 81.65 23.18 83.81C24.41 85.10 26.06 87.70 26.57 89.28C39.82 86.18 45.29 80.86 47.74 72.72L52.70 72.72L48.74 76.25C54.00 80.28 61.06 85.90 64.44 89.28L68.76 85.10C65.09 81.72 58.03 76.46 52.85 72.72L68.98 72.72Z"/></svg>
