<svg xmlns="http://www.w3.org/2000/svg" xmlns:xlink="http://www.w3.org/1999/xlink" width="72.00000000000001" height="106.56000000000002"><path fill="red" stroke="red" d="M43.85 31.18L33.70 31.18L37.51 29.52C36.72 27.65 35.06 24.84 33.55 22.68L28.01 24.77C29.16 26.64 30.60 29.23 31.39 31.18L22.68 31.18L22.68 36.36L43.85 36.36ZM16.92 32.62C16.20 29.95 14.69 25.92 13.25 22.82L8.21 24.41C9.50 27.50 11.02 31.75 11.66 34.42ZM24.62 67.18C23.11 71.78 21.02 77.11 18.86 80.86C20.09 81.36 22.03 82.58 22.90 83.30C25.06 79.49 27.50 73.51 29.16 68.47ZM43.13 64.15L43.13 58.90L36.07 58.90L36.07 52.63L44.35 52.63L44.35 47.45L38.16 47.45C39.67 44.71 41.18 41.47 42.77 38.45L37.51 36.79C36.58 39.89 34.78 44.21 33.26 47.45L27.86 47.45L31.90 45.86C31.32 43.34 29.81 39.60 28.22 36.79L23.98 38.30C25.27 41.11 26.78 44.86 27.29 47.45L22.39 47.45L22.39 51.91L19.73 49.90C18.86 51.77 17.28 54.36 15.98 56.52C15.26 55.58 14.69 54.86 14.18 54.29C16.99 48.67 19.44 42.41 21.02 36.43L17.86 34.27L16.78 34.56L3.67 34.56L3.67 40.39L14.18 40.39C11.30 49.10 6.48 58.18 1.66 63.58C2.66 64.58 4.32 67.68 4.90 69.34C6.12 67.75 7.34 66.02 8.64 64.15L8.64 89.14L14.18 89.14L14.18 61.56C16.06 64.44 17.93 67.68 18.94 69.55L22.32 65.23C21.67 64.30 20.09 62.06 18.36 59.69C19.94 57.74 21.67 55.15 23.54 52.78L23.33 52.63L30.74 52.63L30.74 58.90L22.97 58.90L22.97 64.15L30.74 64.15L30.74 88.78L36.07 88.78L36.07 64.15ZM46.22 77.04C45.29 74.30 43.20 70.13 41.26 66.96L37.15 68.26C39.02 71.42 41.11 75.89 41.83 78.62ZM51.48 54.00L60.77 54.00L60.77 60.48L51.48 60.48ZM51.48 42.70L60.77 42.70L60.77 49.10L51.48 49.10ZM51.48 31.46L60.77 31.46L60.77 37.80L51.48 37.80ZM63.29 83.23C62.93 83.23 62.57 83.09 62.42 82.87C62.21 82.66 62.14 82.30 62.14 81.94L62.14 65.81L66.46 65.81L66.46 26.14L46.01 26.14L46.01 65.81L49.10 65.81C48.82 76.03 47.59 81.58 40.97 85.03C42.12 85.97 43.70 88.13 44.21 89.35C52.13 85.03 53.78 77.98 54.07 65.81L57.17 65.81L57.17 82.08C57.17 85.25 57.38 86.18 58.32 87.19C59.26 88.06 60.55 88.34 61.92 88.34L64.66 88.34C65.66 88.34 66.74 88.20 67.46 87.77C68.18 87.34 68.76 86.62 69.19 85.75C69.55 84.82 69.84 82.37 69.91 80.21C68.62 79.78 67.25 78.91 66.31 78.12C66.31 79.92 66.17 81.50 66.02 82.08C65.88 82.58 65.66 82.87 65.45 83.02C65.30 83.16 64.87 83.23 64.44 83.23Z"/></svg>
