<svg xmlns="http://www.w3.org/2000/svg" xmlns:xlink="http://www.w3.org/1999/xlink" width="72.00000000000001" height="106.56000000000002"><path fill="red" stroke="red" d="M40.32 43.20L31.18 43.20L31.18 33.91L40.32 33.91ZM57.89 49.32L57.89 61.27C57.60 61.34 57.17 61.42 56.52 61.42L49.18 61.42C46.94 61.42 46.66 61.13 46.66 59.04L46.66 49.32ZM14.54 78.48L14.54 66.17C15.70 67.39 16.99 69.05 17.57 69.98C28.08 65.02 30.74 56.88 31.10 49.32L40.32 49.32L40.32 59.11C40.32 65.88 41.83 67.68 48.31 67.68L57.17 67.68L57.89 67.68L57.89 78.48ZM25.06 49.32C24.70 55.01 22.82 60.62 14.54 64.80L14.54 49.32ZM67.54 33.91L67.54 27.43L4.32 27.43L4.32 33.91L25.13 33.91L25.13 43.20L8.06 43.20L8.06 88.92L14.54 88.92L14.54 84.67L57.89 84.67L57.89 88.78L64.66 88.78L64.66 43.20L46.66 43.20L46.66 33.91Z"/></svg>
