<svg xmlns="http://www.w3.org/2000/svg" xmlns:xlink="http://www.w3.org/1999/xlink" width="72.00000000000001" height="106.56000000000002"><path fill="red" stroke="red" d="M21.38 69.34L21.38 79.63L11.74 79.63L11.74 69.34ZM27.22 63.94L5.98 63.94L5.98 88.27L11.74 88.27L11.74 85.03L27.22 85.03ZM6.05 59.40L26.71 59.40L26.71 54.22L6.05 54.22ZM26.71 44.71L6.05 44.71L6.05 49.97L26.71 49.97ZM21.53 32.18C20.45 29.59 18.14 25.78 16.13 22.75L11.02 25.42C12.89 28.37 15.05 32.47 16.06 35.14L3.10 35.14L3.10 40.46L28.66 40.46L28.66 35.14L16.20 35.14ZM51.19 69.34L51.19 62.21L59.54 62.21L59.54 69.34ZM37.01 69.34L37.01 62.21L45.22 62.21L45.22 69.34ZM45.22 49.90L45.22 56.74L37.01 56.74L37.01 49.90ZM59.54 56.74L51.19 56.74L51.19 49.90L59.54 49.90ZM65.95 44.21L56.74 44.21L57.10 43.78C56.02 42.98 54.72 42.12 53.21 41.18C58.03 37.80 62.86 33.62 66.38 29.59L61.99 26.21L60.70 26.64L32.26 26.64L32.26 32.33L54.94 32.33C52.78 34.27 50.33 36.29 47.88 38.02C45.07 36.43 42.19 34.85 39.67 33.70L35.64 37.94C39.10 39.67 43.06 42.05 46.58 44.21L30.82 44.21L30.82 89.14L37.01 89.14L37.01 74.95L45.22 74.95L45.22 88.70L51.19 88.70L51.19 74.95L59.54 74.95L59.54 82.44C59.54 83.30 59.33 83.59 58.39 83.66C57.60 83.66 54.86 83.66 51.91 83.59C52.63 85.10 53.42 87.62 53.64 89.21C58.18 89.28 61.27 89.14 63.36 88.20C65.38 87.26 65.95 85.61 65.95 82.51Z"/></svg>
