<svg xmlns="http://www.w3.org/2000/svg" xmlns:xlink="http://www.w3.org/1999/xlink" width="72.00000000000001" height="106.56000000000002"><path fill="red" stroke="red" d="M21.46 69.34L21.46 79.63L11.38 79.63L11.38 69.34ZM27.14 63.94L5.76 63.94L5.76 88.27L11.38 88.27L11.38 85.03L27.14 85.03ZM5.83 59.40L26.78 59.40L26.78 54.22L5.83 54.22ZM26.78 44.71L5.83 44.71L5.83 49.97L26.78 49.97ZM21.24 32.18C20.09 29.59 17.93 25.78 15.84 22.75L10.87 25.42C12.67 28.37 14.76 32.47 15.91 35.14L3.10 35.14L3.10 40.46L28.44 40.46L28.44 35.14L16.06 35.14ZM41.62 72.86L54.86 72.86L54.86 81.00L41.62 81.00ZM60.62 36.86L60.62 42.70L36.07 42.70L36.07 36.86ZM41.62 60.41L54.86 60.41L54.86 67.61L41.62 67.61ZM54.86 55.15L41.62 55.15L41.62 48.38L54.86 48.38ZM61.34 81.00L61.34 44.42L66.74 44.42L66.74 31.03L52.34 31.03C51.19 28.51 49.10 25.27 47.23 22.61L41.90 24.91C43.13 26.71 44.42 29.02 45.58 31.03L30.02 31.03L30.02 44.42L35.42 44.42L35.42 81.00L28.80 81.00L28.80 86.90L69.12 86.90L69.12 81.00Z"/></svg>
