<svg xmlns="http://www.w3.org/2000/svg" xmlns:xlink="http://www.w3.org/1999/xlink" width="72.00000000000001" height="106.56000000000002"><path fill="red" stroke="red" d="M20.30 69.34L20.30 79.63L11.16 79.63L11.16 69.34ZM25.78 63.94L5.83 63.94L5.83 88.27L11.16 88.27L11.16 85.03L25.78 85.03ZM5.90 59.40L25.34 59.40L25.34 54.22L5.90 54.22ZM5.90 44.71L5.90 49.97L25.27 49.97L25.27 44.71ZM20.23 32.18C19.15 29.59 16.99 25.78 14.98 22.75L10.22 25.42C12.02 28.37 14.04 32.47 15.12 35.14L3.10 35.14L3.10 40.46L27.65 40.46L27.65 35.14L15.26 35.14ZM37.44 54.94L37.44 49.82L45.43 49.82L45.43 54.94ZM60.34 49.82L60.34 54.94L51.84 54.94L51.84 49.82ZM42.98 33.70L54.22 33.70L54.22 38.02L42.98 38.02ZM51.84 81.50L51.84 76.97L66.24 76.97L66.24 71.93L51.84 71.93L51.84 67.97L67.18 67.97L67.18 62.86L51.84 62.86L51.84 59.47L66.38 59.47L66.38 45.36L51.84 45.36L51.84 42.62L60.48 42.62L60.48 33.70L68.40 33.70L68.40 28.37L60.48 28.37L60.48 23.18L54.22 23.18L54.22 28.37L42.98 28.37L42.98 23.18L36.94 23.18L36.94 28.37L28.87 28.37L28.87 33.70L36.94 33.70L36.94 42.62L45.43 42.62L45.43 45.36L31.75 45.36L31.75 59.47L45.43 59.47L45.43 62.86L30.96 62.86L30.96 67.97L45.43 67.97L45.43 71.93L32.04 71.93L32.04 76.97L45.43 76.97L45.43 81.50L28.37 81.50L28.37 86.83L69.05 86.83L69.05 81.50Z"/></svg>
