<svg xmlns="http://www.w3.org/2000/svg" xmlns:xlink="http://www.w3.org/1999/xlink" width="72.00000000000001" height="106.56000000000002"><path fill="red" stroke="red" d="M13.90 49.75L20.23 49.75L20.23 32.40C22.61 30.10 24.91 27.79 26.71 25.42L20.59 23.11C16.20 28.73 8.86 34.13 1.80 37.37C3.31 38.59 5.69 40.97 6.77 42.26C9.07 40.90 11.52 39.38 13.90 37.58ZM19.66 70.63L53.28 70.63L53.28 74.45L19.66 74.45ZM19.66 63.00L53.28 63.00L53.28 66.74L19.66 66.74ZM19.66 55.44L53.28 55.44L53.28 59.11L19.66 59.11ZM60.05 78.48L60.05 51.34L13.18 51.34L13.18 78.48L23.04 78.48C17.93 80.93 10.51 83.16 3.89 84.46C5.26 85.61 7.70 87.98 8.71 89.35C15.91 87.34 25.06 83.81 30.89 80.28L27.14 78.48L45.36 78.48L42.19 80.93C49.61 83.66 57.10 86.90 61.42 89.21L67.54 85.54C63.22 83.59 56.52 80.78 50.04 78.48ZM48.31 34.49L48.31 30.82L64.30 30.82L64.30 26.06L26.93 26.06L26.93 30.82L41.90 30.82L41.90 34.49L23.62 34.49L23.62 39.31L41.90 39.31L41.90 43.34L26.78 43.34L26.78 48.17L64.44 48.17L64.44 43.34L48.31 43.34L48.31 39.31L67.61 39.31L67.61 34.49Z"/></svg>
