<svg xmlns="http://www.w3.org/2000/svg" xmlns:xlink="http://www.w3.org/1999/xlink" width="72.00000000000001" height="106.56000000000002"><path fill="red" stroke="red" d="M49.10 32.04L49.10 35.78L36.65 35.78L36.65 40.18L43.78 40.18C42.77 43.63 40.39 45.86 34.85 47.30C36.00 48.24 37.37 50.26 37.94 51.55C45.22 49.25 48.02 45.65 49.18 40.18L52.99 40.18L52.99 44.93C52.99 49.54 54.07 50.90 58.75 50.90L63.58 50.90C66.96 50.90 68.33 49.46 68.83 44.42C67.39 44.06 65.30 43.34 64.37 42.55C64.15 45.94 63.94 46.37 62.86 46.37L59.54 46.37C58.46 46.37 58.32 46.22 58.32 44.86L58.32 40.18L67.68 40.18L67.68 35.78L54.65 35.78L54.65 32.04L65.23 32.04L65.23 27.72L54.65 27.72L54.65 23.11L49.10 23.11L49.10 27.72L44.71 27.72C45.22 26.64 45.58 25.63 45.94 24.55L41.18 23.76C40.18 26.71 38.59 30.10 36.07 32.90C37.37 33.41 39.17 34.42 40.18 35.35C41.11 34.27 41.90 33.19 42.62 32.04ZM21.96 40.18L21.96 42.34C21.96 45.22 20.45 46.37 19.37 47.02C20.02 47.74 20.81 49.39 21.17 50.62L21.24 51.12C22.25 50.40 23.98 49.90 35.06 47.23C35.06 46.22 35.14 44.35 35.35 43.06L27.36 44.71L27.36 40.18L34.85 40.18L34.85 35.78L23.62 35.78L23.62 31.90L33.19 31.90L33.19 27.58L23.62 27.58L23.62 23.11L18.14 23.11L18.14 27.58L13.61 27.58C13.97 26.57 14.33 25.63 14.69 24.55L9.94 23.76C9.07 26.71 7.42 30.10 5.11 32.90C6.34 33.41 8.21 34.34 9.29 35.28C10.15 34.20 10.94 33.12 11.59 31.90L18.14 31.90L18.14 35.78L4.32 35.78L4.32 40.18L12.31 40.18C11.23 44.21 8.86 47.16 3.02 48.96C4.25 49.90 5.76 51.98 6.34 53.21C13.61 50.40 16.49 46.15 17.78 40.18ZM19.58 71.21L53.21 71.21L53.21 75.10L19.58 75.10ZM19.58 63.36L53.21 63.36L53.21 67.25L19.58 67.25ZM19.58 55.66L53.21 55.66L53.21 59.47L19.58 59.47ZM59.98 79.20L59.98 51.55L13.10 51.55L13.10 79.20L24.62 79.20C19.58 81.50 11.30 83.52 3.96 84.60C5.33 85.75 7.70 88.13 8.78 89.42C16.06 87.77 25.27 84.82 31.10 81.58L25.56 79.20L45.94 79.20L40.97 82.30C48.82 84.53 56.52 87.34 60.91 89.28L68.18 85.97C63.14 84.02 54.94 81.29 47.45 79.20Z"/></svg>
