<svg xmlns="http://www.w3.org/2000/svg" xmlns:xlink="http://www.w3.org/1999/xlink" width="72.00000000000001" height="106.56000000000002"><path fill="red" stroke="red" d="M23.47 65.81L33.91 65.81L33.91 59.98L23.47 59.98L23.47 50.83L34.70 50.83L34.70 49.61C35.93 50.54 37.30 51.70 38.02 52.42C45.14 48.02 49.32 41.62 50.83 31.68L60.26 31.68C59.83 39.74 59.33 42.91 58.46 43.92C57.96 44.50 57.31 44.64 56.30 44.64C55.30 44.64 52.70 44.64 49.97 44.35C50.90 45.94 51.55 48.31 51.70 50.04C54.86 50.18 57.82 50.11 59.47 49.97C61.42 49.75 62.71 49.25 63.94 47.88C65.52 46.01 66.24 40.97 66.82 28.44C66.89 27.65 66.89 25.99 66.89 25.99L35.50 25.99L35.50 31.68L44.50 31.68C43.34 38.95 40.32 43.99 34.70 47.38L34.70 44.86L22.54 44.86L22.54 37.01L33.34 37.01L33.34 31.18L22.54 31.18L22.54 23.11L16.42 23.11L16.42 31.18L5.33 31.18L5.33 37.01L16.42 37.01L16.42 44.86L3.89 44.86L3.89 50.83L17.50 50.83L17.50 75.10C15.19 72.94 13.54 69.84 12.24 65.74C12.38 62.50 12.53 59.18 12.60 55.73L6.62 55.30C6.48 67.75 5.90 79.06 1.94 86.18C3.46 86.83 6.26 88.42 7.34 89.21C9.14 85.68 10.37 81.36 11.09 76.32C16.49 85.32 25.13 87.41 39.53 87.41L67.10 87.41C67.54 85.39 68.76 82.37 69.84 80.78C64.51 81.00 43.78 81.00 39.46 80.93C32.90 80.93 27.65 80.50 23.47 78.91ZM43.92 58.97L58.68 58.97L58.68 70.27L43.92 70.27ZM37.66 75.74L65.30 75.74L65.30 53.50L37.66 53.50Z"/></svg>
