<svg xmlns="http://www.w3.org/2000/svg" xmlns:xlink="http://www.w3.org/1999/xlink" width="72.00000000000001" height="106.56000000000002"><path fill="red" stroke="red" d="M11.81 31.82L22.10 31.82L22.10 42.91L11.81 42.91ZM28.66 72.79L21.46 74.74L21.46 63.43L28.44 63.43L28.44 57.60L21.46 57.60L21.46 48.60L28.22 48.60L28.22 26.06L6.12 26.06L6.12 48.60L15.62 48.60L15.62 76.25L11.45 77.33L11.45 54.72L5.98 54.72L5.98 78.77C4.75 79.06 3.60 79.27 2.52 79.49L4.10 85.82C11.23 83.81 20.59 81.14 29.52 78.55ZM68.11 61.06L68.11 54.72L52.20 54.72C52.42 52.20 52.49 49.75 52.49 47.38L52.49 41.76L66.74 41.76L66.74 35.64L52.49 35.64L52.49 23.69L45.94 23.69L45.94 35.64L40.03 35.64C40.68 32.83 41.11 29.95 41.47 27.07L35.28 26.06C34.27 34.42 32.40 42.91 29.16 48.24C30.60 49.03 33.41 50.62 34.56 51.62C36.14 48.89 37.37 45.50 38.52 41.76L45.94 41.76L45.94 47.30C45.94 49.68 45.94 52.20 45.72 54.72L29.95 54.72L29.95 61.06L44.86 61.06C43.13 69.70 38.59 78.26 26.86 84.38C28.51 85.61 30.60 87.98 31.54 89.42C41.26 83.88 46.51 76.61 49.32 68.98C52.78 77.76 57.82 84.82 65.16 88.92C66.17 87.12 68.33 84.60 69.77 83.38C61.34 79.42 55.80 71.06 52.78 61.06Z"/></svg>
