<svg xmlns="http://www.w3.org/2000/svg" xmlns:xlink="http://www.w3.org/1999/xlink" width="72.00000000000001" height="106.56000000000002"><path fill="red" stroke="red" d="M68.18 26.35L32.54 26.35L32.54 32.04L68.18 32.04ZM68.18 59.47C66.60 56.23 63.36 51.26 60.26 47.16C62.50 43.49 65.16 39.10 67.10 35.28L61.49 33.91C59.90 37.44 56.88 42.84 54.07 47.23C57.89 52.27 61.34 57.89 62.93 61.70ZM49.39 33.91C47.95 37.44 45.14 42.77 42.41 47.16C46.01 52.20 49.18 57.74 50.69 61.56L55.94 59.33C54.50 56.16 51.48 51.19 48.46 47.09C50.62 43.42 53.06 39.02 54.94 35.21ZM44.14 59.62C42.77 56.30 39.96 51.34 37.15 47.16C39.17 43.49 41.54 39.02 43.34 35.21L37.80 33.91C36.43 37.44 33.77 42.84 31.18 47.23C34.49 52.27 37.44 57.89 38.81 61.70ZM9.79 55.87L15.05 55.87L15.05 61.34L9.79 61.34ZM9.79 45.79L15.05 45.79L15.05 51.19L9.79 51.19ZM24.84 51.19L19.58 51.19L19.58 45.79L24.84 45.79ZM24.84 61.34L19.58 61.34L19.58 55.87L24.84 55.87ZM31.39 77.26L31.39 71.28L20.09 71.28L20.09 66.24L29.88 66.24L29.88 40.97L20.02 40.97L20.02 36.29L30.67 36.29L30.67 30.46L20.02 30.46L20.02 23.11L14.40 23.11L14.40 30.46L3.82 30.46L3.82 36.29L14.40 36.29L14.40 40.97L5.04 40.97L5.04 66.24L14.47 66.24L14.47 71.28L2.81 71.28L2.81 77.26L14.47 77.26L14.47 89.21L20.09 89.21L20.09 77.26ZM53.28 81.65L53.28 69.12L66.96 69.12L66.96 63.43L34.06 63.43L34.06 69.12L46.58 69.12L46.58 81.65L30.31 81.65L30.31 87.41L69.19 87.41L69.19 81.65Z"/></svg>
