<svg xmlns="http://www.w3.org/2000/svg" xmlns:xlink="http://www.w3.org/1999/xlink" width="72.00000000000001" height="106.56000000000002"><path fill="red" stroke="red" d="M53.71 71.78L53.71 76.61L46.73 76.61L46.73 71.78ZM57.96 80.28L57.96 68.18L42.55 68.18L42.55 83.74L46.73 83.74L46.73 80.28ZM67.46 59.83L33.12 59.83L33.12 88.92L38.95 88.92L38.95 64.87L61.56 64.87L61.56 83.09C61.56 83.88 61.34 84.10 60.41 84.17C59.54 84.24 56.59 84.24 53.57 84.10C54.36 85.54 55.15 87.70 55.37 89.21C59.76 89.28 62.86 89.21 64.87 88.34C66.89 87.48 67.46 85.97 67.46 83.16ZM55.44 52.70L44.78 52.70L44.78 47.59L55.44 47.59ZM53.42 39.10C54.14 40.54 55.01 41.90 56.02 43.20L44.14 43.20C45.14 41.90 46.15 40.54 47.02 39.10ZM25.42 51.19L19.80 51.19L19.80 45.79L25.42 45.79ZM25.42 61.34L19.80 61.34L19.80 55.87L25.42 55.87ZM9.79 55.87L15.26 55.87L15.26 61.34L9.79 61.34ZM9.79 45.79L15.26 45.79L15.26 51.19L9.79 51.19ZM68.18 39.10L68.18 34.06L49.61 34.06C50.11 32.76 50.62 31.39 51.05 30.02C56.38 29.59 61.42 29.02 65.52 28.30L61.99 23.69C55.22 24.91 43.56 25.70 33.77 25.99C34.34 27.29 34.99 29.30 35.14 30.60C38.23 30.60 41.54 30.53 44.93 30.38C44.50 31.68 43.92 32.90 43.34 34.06L31.90 34.06L31.90 39.10L40.25 39.10C37.58 42.48 34.34 45.22 30.46 47.30L30.46 40.97L20.38 40.97L20.38 36.29L31.25 36.29L31.25 30.46L20.38 30.46L20.38 23.11L14.54 23.11L14.54 30.46L3.82 30.46L3.82 36.29L14.54 36.29L14.54 40.97L5.04 40.97L5.04 66.24L14.54 66.24L14.54 71.28L2.81 71.28L2.81 77.26L14.54 77.26L14.54 89.21L20.45 89.21L20.45 77.26L31.68 77.26L31.68 71.28L20.45 71.28L20.45 66.24L30.46 66.24L30.46 48.31C31.61 49.54 33.12 51.26 33.77 52.20C35.78 51.05 37.66 49.68 39.38 48.17L39.38 57.02L61.06 57.02L61.06 48.82C62.64 50.18 64.30 51.41 66.02 52.27C66.89 50.76 68.69 48.74 69.98 47.66C65.95 45.94 62.14 42.70 59.47 39.10Z"/></svg>
