<svg xmlns="http://www.w3.org/2000/svg" xmlns:xlink="http://www.w3.org/1999/xlink" width="72.00000000000001" height="106.56000000000002"><path fill="red" stroke="red" d="M67.97 31.90L59.54 31.90C58.75 29.38 57.31 25.92 55.87 23.18L50.54 24.77C51.48 26.86 52.56 29.59 53.35 31.90L43.92 31.90L43.92 37.30L67.97 37.30ZM53.93 46.94C53.64 44.50 52.49 40.75 51.26 37.94L46.66 39.17C47.74 41.98 48.82 45.79 49.03 48.24ZM52.92 60.91L44.06 60.91L44.06 66.24L52.92 66.24L52.92 78.12L59.04 78.12L59.04 66.24L67.90 66.24L67.90 60.91L59.04 60.91L59.04 54.22L68.54 54.22L68.54 48.74L61.70 48.74C63.14 45.94 64.66 42.34 66.10 39.10L60.55 37.80C59.69 40.97 58.03 45.50 56.59 48.74L43.34 48.74L43.34 54.22L52.92 54.22ZM36.29 31.39L36.29 41.33L29.02 41.33C29.02 40.32 29.02 39.38 29.02 38.45L29.02 31.39ZM37.01 58.46L37.01 69.19L30.89 69.19L30.89 58.46ZM25.63 77.69L30.89 77.69L30.89 74.45L42.26 74.45L42.26 53.21L28.01 53.21C28.37 50.98 28.58 48.67 28.73 46.51L41.62 46.51L41.62 26.14L23.47 26.14L23.47 38.38C23.47 47.09 22.90 59.47 17.78 68.54C18.86 69.12 21.17 71.28 21.96 72.43C23.47 69.91 24.70 67.10 25.63 64.01ZM15.77 35.28C14.90 32.18 13.32 27.43 12.17 23.69L6.91 25.13C7.99 28.94 9.58 34.06 10.30 37.22ZM16.06 55.94L15.12 56.16L12.46 56.16C13.97 51.19 15.77 45.29 17.14 40.18L3.46 40.18L3.46 46.22L9.72 46.22C8.14 51.84 6.34 57.67 4.75 61.92L12.17 61.92C11.16 67.32 9.65 73.01 7.70 77.18C5.98 78.77 4.03 81.00 2.23 83.74L6.55 89.71C8.21 85.39 10.37 80.78 11.81 80.78C13.32 80.78 16.06 83.16 19.01 84.82C24.34 87.91 30.60 88.70 40.18 88.70C48.74 88.70 62.28 88.20 67.90 87.84C67.97 86.11 69.05 82.94 69.77 81.22C61.70 82.22 49.61 82.87 40.39 82.87C31.90 82.87 25.13 82.44 20.16 79.42C17.21 77.69 15.55 76.32 13.97 75.60C16.13 70.06 17.78 63.22 18.86 56.88Z"/></svg>
