<svg xmlns="http://www.w3.org/2000/svg" xmlns:xlink="http://www.w3.org/1999/xlink" width="72.00000000000001" height="106.56000000000002"><path fill="red" stroke="red" d="M12.31 72.79L24.77 72.79L24.77 67.54L12.31 67.54ZM27.43 56.95C27.29 57.02 27.07 57.10 26.42 57.10L24.48 57.10C23.69 57.10 23.62 56.95 23.62 56.09L23.62 45.65L27.43 45.65ZM9.79 78.84L9.79 62.06C10.58 62.50 11.52 63.50 12.02 64.08C15.98 60.34 16.85 55.08 16.85 50.98L16.85 45.65L20.23 45.65L20.23 56.09C20.23 59.83 21.10 60.62 24.05 60.62L27.07 60.62L27.43 60.62L27.43 78.84ZM13.46 45.65L13.46 50.90C13.46 54.22 12.96 58.18 9.79 61.42L9.79 45.65ZM16.78 31.68L20.38 31.68L20.38 40.03L16.78 40.03ZM25.06 31.68L33.26 31.68L33.26 26.06L3.60 26.06L3.60 31.68L12.24 31.68L12.24 40.03L4.75 40.03L4.75 89.06L9.79 89.06L9.79 84.10L27.43 84.10L27.43 88.06L32.69 88.06L32.69 40.03L25.06 40.03ZM49.82 24.48L49.82 30.17L55.87 30.17C57.17 38.16 59.69 46.08 63.22 51.77L39.02 51.77C43.20 45.94 46.30 37.15 47.88 27.43L41.83 24.84C40.46 35.35 37.22 44.57 32.83 49.90C34.27 50.76 36.43 52.70 37.37 53.86C37.66 53.50 37.94 53.21 38.23 52.85L38.23 57.67L44.78 57.67C43.92 70.13 41.18 79.56 33.77 85.25C35.14 86.26 37.66 88.42 38.59 89.50C46.51 82.66 49.75 72.14 50.90 57.67L58.25 57.67C57.67 74.09 57.10 80.14 56.02 81.65C55.44 82.37 54.79 82.58 53.86 82.58C52.78 82.58 50.40 82.51 47.88 82.30C48.82 83.95 49.46 86.47 49.54 88.20C52.49 88.34 55.22 88.34 56.81 88.06C58.82 87.84 60.05 87.26 61.34 85.61C63.14 83.23 63.79 75.46 64.44 54.43L64.51 53.57C64.73 53.93 65.02 54.29 65.30 54.65C66.31 52.92 68.47 50.04 69.84 48.82C65.38 43.78 62.35 34.34 61.13 24.48Z"/></svg>
