<svg xmlns="http://www.w3.org/2000/svg" xmlns:xlink="http://www.w3.org/1999/xlink" width="72.00000000000001" height="106.56000000000002"><path fill="red" stroke="red" d="M31.39 36.58C28.73 33.91 24.41 30.60 20.02 27.86C20.52 26.86 21.02 25.99 21.46 24.98L16.56 22.75C13.32 29.45 7.70 35.86 2.38 39.96C3.17 41.62 4.46 45.29 4.90 46.73C6.05 45.79 7.13 44.78 8.28 43.63L8.28 46.80L14.47 46.80L14.47 53.64L4.39 53.64L4.39 59.33L14.47 59.33L14.47 78.91C10.30 79.70 6.48 80.42 3.53 80.93L4.90 86.98C11.66 85.39 20.74 83.38 29.38 81.29L29.09 75.96C25.99 76.61 22.90 77.26 19.87 77.76L19.87 59.33L29.09 59.33L29.09 53.64L19.87 53.64L19.87 46.80L26.78 46.80L26.78 41.18L10.58 41.18C12.96 38.59 15.19 35.71 17.14 32.62C21.46 35.57 25.85 39.17 28.51 42.05ZM24.98 75.82C26.21 72.65 27.58 67.61 28.87 63.22L24.12 61.85C23.54 65.59 22.25 71.06 21.24 74.52ZM5.40 63.72C6.48 67.90 7.56 73.22 7.85 76.75L12.24 75.38C11.88 72.00 10.73 66.67 9.50 62.57ZM38.59 79.34L38.59 63.50L59.90 63.50L59.90 79.34ZM59.90 41.76L59.90 57.53L38.59 57.53L38.59 41.76ZM50.33 35.50C51.41 32.04 52.70 27.79 53.78 23.90L46.37 23.11C45.94 26.71 44.78 31.54 43.70 35.50L31.97 35.50L31.97 89.28L38.59 89.28L38.59 85.54L59.90 85.54L59.90 88.78L66.74 88.78L66.74 35.50Z"/></svg>
