<svg xmlns="http://www.w3.org/2000/svg" xmlns:xlink="http://www.w3.org/1999/xlink" width="72.00000000000001" height="106.56000000000002"><path fill="red" stroke="red" d="M57.02 34.20C55.44 37.15 53.28 39.74 50.83 42.12C48.31 39.89 46.22 37.51 44.78 35.06L45.36 34.20ZM61.34 28.73L60.19 28.94L48.74 28.94C49.39 27.50 50.11 26.14 50.76 24.70L44.78 23.18C41.76 30.24 36.36 36.72 30.17 40.90C31.54 41.83 33.98 43.85 34.99 45.00C37.08 43.42 39.10 41.62 41.04 39.53C42.48 41.69 44.21 43.70 46.30 45.72C41.47 49.03 35.86 51.34 30.02 52.78C31.10 54.00 32.62 56.45 33.19 57.96C39.60 56.16 45.65 53.42 50.90 49.54C55.30 52.78 60.62 55.37 66.89 57.02C67.75 55.37 69.55 52.78 70.85 51.41C64.94 50.26 59.83 48.10 55.66 45.50C59.76 41.47 63.14 36.50 65.30 30.38ZM21.17 58.82L30.10 58.82L30.10 53.06L21.17 53.06L21.17 46.44L28.30 46.44L28.30 40.82L11.74 40.82C14.26 38.02 16.56 34.85 18.58 31.54C22.03 34.70 25.70 38.38 27.65 40.75L32.62 37.15C30.02 34.34 25.13 30.02 21.24 26.57C21.60 25.85 21.96 25.06 22.32 24.34L16.42 22.61C13.54 29.66 7.85 36.94 2.23 41.33C4.03 42.26 6.19 43.99 7.27 45.22C7.70 44.86 8.21 44.50 8.64 44.06L8.64 46.44L15.48 46.44L15.48 53.06L5.33 53.06L5.33 58.82L15.48 58.82L15.48 79.42C11.38 80.14 7.63 80.86 4.61 81.36L6.05 87.34C13.18 85.90 22.46 83.95 31.25 82.01L30.82 76.46C27.58 77.11 24.34 77.76 21.17 78.34ZM6.12 63.22C7.34 67.39 8.42 72.79 8.64 76.32L13.18 75.10C12.89 71.64 11.66 66.31 10.37 62.14ZM27.29 74.81C28.22 71.64 29.45 66.67 30.53 62.50L25.70 61.27C25.20 64.94 24.05 70.34 23.11 73.73ZM53.78 71.86L65.66 71.86L65.66 66.89L53.78 66.89L53.78 62.93L65.88 62.93L65.88 57.96L53.78 57.96L53.78 53.78L47.38 53.78L47.38 57.96L35.35 57.96L35.35 62.93L47.38 62.93L47.38 66.89L35.78 66.89L35.78 71.86L47.38 71.86L47.38 76.18L32.33 76.18L32.33 81.43L47.38 81.43L47.38 89.21L53.78 89.21L53.78 81.43L68.83 81.43L68.83 76.18L53.78 76.18Z"/></svg>
