<svg xmlns="http://www.w3.org/2000/svg" xmlns:xlink="http://www.w3.org/1999/xlink" width="72.00000000000001" height="106.56000000000002"><path fill="red" stroke="red" d="M20.09 59.33L29.45 59.33L29.45 53.64L20.09 53.64L20.09 46.80L27.14 46.80L27.14 41.18L10.73 41.18C13.18 38.59 15.41 35.71 17.35 32.62C21.74 35.57 26.14 39.24 28.94 42.05L31.82 36.50C29.16 33.91 24.70 30.60 20.30 27.86C20.81 26.86 21.31 25.92 21.82 24.98L16.78 22.68C13.54 29.45 7.85 35.86 2.38 39.96C3.17 41.62 4.61 45.29 4.97 46.73C6.12 45.79 7.27 44.78 8.42 43.63L8.42 46.80L14.69 46.80L14.69 53.64L4.46 53.64L4.46 59.33L14.69 59.33L14.69 78.84C10.44 79.63 6.55 80.35 3.53 80.93L4.90 86.90C11.81 85.39 21.02 83.30 29.81 81.29L29.45 75.89C26.35 76.54 23.11 77.18 20.09 77.83ZM5.47 63.72C6.55 67.90 7.63 73.15 7.92 76.68L12.38 75.31C12.02 71.93 10.87 66.67 9.72 62.57ZM25.42 75.74C26.64 72.58 27.94 67.61 29.30 63.22L24.41 61.85C23.83 65.59 22.54 71.06 21.53 74.52ZM58.61 62.78L58.61 69.12L41.54 69.12L41.54 62.78ZM41.54 80.78L41.54 74.45L58.61 74.45L58.61 80.78ZM35.57 89.14L41.54 89.14L41.54 86.18L58.61 86.18L58.61 88.99L64.80 88.99L64.80 57.24L35.57 57.24ZM45.00 37.94L54.65 37.94L54.65 46.22L45.00 46.22ZM60.62 46.22L60.62 37.94L66.82 37.94L66.82 32.04L60.62 32.04L60.62 23.18L54.65 23.18L54.65 32.04L45.00 32.04L45.00 23.18L39.17 23.18L39.17 32.04L32.54 32.04L32.54 37.94L39.17 37.94L39.17 46.22L31.10 46.22L31.10 52.20L68.76 52.20L68.76 46.22Z"/></svg>
