<svg xmlns="http://www.w3.org/2000/svg" xmlns:xlink="http://www.w3.org/1999/xlink" width="72.00000000000001" height="106.56000000000002"><path fill="red" stroke="red" d="M45.94 40.25L29.59 40.25L29.59 45.72L45.94 45.72L45.94 53.21C45.94 54.00 45.65 54.29 44.64 54.29C43.70 54.36 40.54 54.36 37.08 54.22C37.87 55.66 39.10 57.96 39.53 59.54C43.92 59.54 46.66 59.47 48.74 58.61C50.90 57.74 51.55 56.23 51.55 53.35L51.55 45.72L68.26 45.72L68.26 40.25L51.55 40.25L51.55 38.23C56.02 35.64 60.62 32.04 64.15 28.66L60.48 25.42L59.26 25.78L33.55 25.78L33.55 31.10L53.35 31.10C51.05 33.12 48.38 34.99 45.94 36.36ZM28.08 75.53C25.20 76.25 22.25 76.90 19.44 77.54L19.44 59.33L28.44 59.33L28.44 53.64L19.44 53.64L19.44 46.80L26.21 46.80L26.21 41.18L10.37 41.18C12.60 38.59 14.83 35.71 16.85 32.62C20.95 35.57 25.27 39.17 27.94 42.05L30.67 36.50C28.08 33.91 23.83 30.60 19.66 27.86C20.16 26.86 20.59 25.92 21.02 24.98L16.27 22.68C13.03 29.45 7.56 35.86 2.23 39.96C3.10 41.62 4.46 45.29 4.82 46.73C5.90 45.79 6.98 44.78 8.14 43.63L8.14 46.80L14.26 46.80L14.26 53.64L4.32 53.64L4.32 59.33L14.26 59.33L14.26 78.70C10.15 79.56 6.41 80.35 3.46 80.93L4.82 86.90C11.38 85.32 20.16 83.09 28.51 80.86ZM5.33 63.72C6.41 67.90 7.49 73.15 7.78 76.68L12.02 75.38C11.66 72.00 10.51 66.67 9.36 62.57ZM24.41 75.82C25.56 72.58 26.86 67.61 28.15 63.22L23.54 61.92C23.04 65.66 21.74 71.06 20.74 74.52ZM36.58 67.10L41.33 67.10L41.33 81.65L36.58 81.65ZM50.76 67.10L50.76 81.65L45.79 81.65L45.79 67.10ZM60.19 67.10L60.19 81.65L55.30 81.65L55.30 67.10ZM65.52 81.65L65.52 61.70L31.32 61.70L31.32 81.65L27.36 81.65L27.36 87.34L69.12 87.34L69.12 81.65Z"/></svg>
