<svg xmlns="http://www.w3.org/2000/svg" xmlns:xlink="http://www.w3.org/1999/xlink" width="72.00000000000001" height="106.56000000000002"><path fill="red" stroke="red" d="M60.34 33.77L60.34 38.30L55.37 38.30L55.37 33.77ZM60.34 48.02L55.37 48.02L55.37 43.34L60.34 43.34ZM50.11 38.30L39.74 38.30L39.74 43.34L50.11 43.34L50.11 48.02L41.83 48.02L41.83 52.99L50.11 52.99L50.11 57.38L41.62 57.38L41.62 62.64L50.11 62.64L50.11 67.39L40.10 67.39L40.10 72.65L50.11 72.65L50.11 80.35L55.37 80.35L55.37 72.65L67.46 72.65L67.46 67.39L55.37 67.39L55.37 62.64L66.02 62.64L66.02 57.38L55.37 57.38L55.37 52.99L65.16 52.99L65.16 43.34L68.90 43.34L68.90 38.30L65.16 38.30L65.16 28.80L55.37 28.80L55.37 23.11L50.11 23.11L50.11 28.80L41.83 28.80L41.83 33.77L50.11 33.77ZM25.27 75.89L18.00 77.62L18.00 59.33L25.06 59.33L25.06 53.64L18.00 53.64L18.00 46.80L23.18 46.80L23.18 41.18L9.86 41.18C11.74 38.59 13.68 35.71 15.41 32.62C19.01 35.64 22.68 39.24 24.98 42.05L27.36 36.43C25.13 33.84 21.53 30.60 17.86 27.79C18.29 26.86 18.72 25.85 19.08 24.98L14.83 22.68C12.02 29.45 7.34 35.86 2.81 39.96C3.53 41.62 4.68 45.36 4.97 46.73C5.76 45.94 6.62 45.14 7.42 44.21L7.42 46.80L13.32 46.80L13.32 53.64L4.18 53.64L4.18 59.33L13.32 59.33L13.32 78.70C9.58 79.56 6.12 80.35 3.53 80.93L4.61 86.90C10.44 85.39 18.22 83.30 25.63 81.22ZM5.90 63.72C6.84 67.82 7.78 73.22 7.99 76.75L11.88 75.31C11.52 71.93 10.58 66.60 9.58 62.64ZM22.39 75.89C23.40 72.72 24.62 67.68 25.70 63.36L21.53 61.92C21.02 65.66 19.94 71.06 19.08 74.52ZM37.30 48.74L36.43 48.89L33.12 48.89C35.50 42.62 38.16 34.63 40.32 28.08L26.86 28.08L26.86 33.84L33.12 33.84C30.82 40.97 28.01 48.74 25.78 54.14L35.14 54.14C34.63 59.26 33.91 63.79 32.98 67.75C32.04 65.66 31.18 63.14 30.53 60.41L26.21 62.14C27.43 66.96 29.02 70.99 30.82 74.23C28.87 79.06 26.28 82.58 22.97 84.82C24.05 85.97 25.34 87.91 26.06 89.35C29.45 86.76 32.11 83.59 34.20 79.27C40.25 86.33 48.31 88.06 57.53 88.06L67.46 88.06C67.75 86.54 68.54 83.95 69.34 82.58C66.82 82.66 59.76 82.66 57.89 82.66C49.54 82.66 41.90 81.00 36.43 73.87C38.59 67.46 39.82 59.33 40.39 49.10Z"/></svg>
