<svg xmlns="http://www.w3.org/2000/svg" xmlns:xlink="http://www.w3.org/1999/xlink" width="72.00000000000001" height="106.56000000000002"><path fill="red" stroke="red" d="M29.74 46.30L68.83 46.30L68.83 41.04L58.82 41.04C59.76 39.17 60.77 37.01 61.78 34.85L55.66 33.62C55.08 35.71 54.00 38.81 52.92 41.04L45.79 41.04C45.36 38.95 44.21 35.78 43.06 33.55L37.66 34.70C38.45 36.58 39.31 39.10 39.89 41.04L29.74 41.04ZM67.46 28.08L53.21 28.08C52.34 26.28 51.19 24.26 49.97 22.68L44.21 24.12C44.86 25.34 45.65 26.71 46.37 28.08L31.68 28.08L31.68 33.26L67.46 33.26ZM10.94 40.82C13.10 38.38 15.26 35.64 17.14 32.76C21.02 35.21 24.91 38.23 27.65 40.82ZM30.89 76.10C27.43 76.82 23.98 77.47 20.59 78.12L20.59 58.82L30.38 58.82L30.38 53.06L20.59 53.06L20.59 46.51L28.15 46.51L28.15 41.33L28.94 42.12L32.26 36.72C29.52 33.98 24.91 30.67 20.09 27.86C20.59 26.93 21.10 25.99 21.60 24.98L16.49 22.75C13.18 29.52 7.49 35.93 2.02 40.03C2.88 41.69 4.25 45.29 4.68 46.87C5.76 46.01 6.77 45.07 7.85 44.06L7.85 46.51L14.76 46.51L14.76 53.06L4.32 53.06L4.32 58.82L14.76 58.82L14.76 79.20C10.51 79.99 6.62 80.64 3.46 81.14L4.82 87.26C12.24 85.75 22.10 83.74 31.39 81.72ZM5.47 63.22C6.70 67.39 7.78 72.79 7.92 76.32L12.67 75.17C12.38 71.64 11.23 66.31 9.94 62.06ZM26.64 75.10C27.79 71.86 29.02 66.96 30.24 62.78L25.20 61.49C24.70 65.09 23.47 70.49 22.39 73.87ZM39.24 61.92L59.76 61.92L59.76 66.10L39.24 66.10ZM39.24 53.86L59.76 53.86L59.76 57.82L39.24 57.82ZM59.40 83.66C58.75 83.66 58.32 83.52 58.03 83.30C57.74 83.09 57.67 82.44 57.67 81.43L57.67 70.42L65.66 70.42L65.66 49.54L33.55 49.54L33.55 70.42L39.74 70.42C38.95 78.34 36.43 82.01 25.34 84.24C26.64 85.46 28.30 87.91 28.87 89.50C41.76 86.26 45.07 80.78 46.01 70.42L51.48 70.42L51.48 81.00C51.48 85.10 51.91 86.40 53.14 87.41C54.29 88.49 56.30 88.92 57.89 88.92L62.21 88.92C63.43 88.92 65.23 88.70 66.17 88.27C67.32 87.77 68.26 86.98 68.69 85.75C69.19 84.60 69.48 81.65 69.70 78.77C67.97 78.26 65.59 77.04 64.37 75.96C64.37 78.70 64.30 80.93 64.15 81.86C63.94 82.73 63.58 83.23 63.22 83.38C62.86 83.59 62.21 83.66 61.63 83.66Z"/></svg>
