<svg xmlns="http://www.w3.org/2000/svg" xmlns:xlink="http://www.w3.org/1999/xlink" width="72.00000000000001" height="106.56000000000002"><path fill="red" stroke="red" d="M68.18 28.15L51.48 28.15C50.76 26.35 49.68 24.05 48.60 22.32L43.06 23.98C43.78 25.27 44.50 26.71 45.07 28.15L27.36 28.15L27.36 33.12L68.18 33.12ZM42.98 63.07L52.27 63.07L52.27 66.24L42.98 66.24ZM42.98 55.66L52.27 55.66L52.27 58.75L42.98 58.75ZM34.92 39.31L41.04 39.31L41.04 44.06L34.92 44.06ZM54.43 39.31L60.91 39.31L60.91 44.06L54.43 44.06ZM64.44 71.57C62.50 72.86 59.40 74.81 56.66 76.32C55.37 74.66 54.14 72.86 53.21 70.99L68.98 70.99L68.98 66.24L58.25 66.24L58.25 63.07L66.24 63.07L66.24 58.75L58.25 58.75L58.25 55.66L67.39 55.66L67.39 51.41L58.25 51.41L58.25 47.81L66.02 47.81L66.02 35.57L49.54 35.57L49.54 47.81L52.27 47.81L52.27 51.41L42.98 51.41L42.98 47.81L46.22 47.81L46.22 35.57L30.02 35.57L30.02 47.81L37.08 47.81L37.08 51.41L28.73 51.41L28.73 55.66L37.08 55.66L37.08 58.75L29.88 58.75L29.88 63.07L37.08 63.07L37.08 66.24L26.57 66.24L26.57 70.99L39.60 70.99C35.57 73.66 30.24 75.82 25.06 77.18L24.84 74.81L21.89 75.74C22.97 72.58 23.98 67.61 25.13 63.36L20.88 61.85C20.38 65.59 19.22 71.06 18.36 74.52L21.60 75.82L17.57 76.97L17.57 59.33L25.42 59.33L25.42 53.64L17.57 53.64L17.57 46.80L23.40 46.80L23.40 41.18L9.36 41.18C11.30 38.66 13.25 35.78 14.98 32.62C18.65 35.64 22.39 39.24 24.70 42.05L27.14 36.50C24.91 33.84 21.17 30.60 17.42 27.79C17.86 26.86 18.29 25.92 18.65 24.98L14.40 22.75C11.59 29.45 6.77 35.86 2.16 39.96C2.88 41.62 4.03 45.36 4.32 46.73C5.33 45.79 6.41 44.78 7.34 43.56L7.34 46.80L12.67 46.80L12.67 53.64L4.03 53.64L4.03 59.33L12.67 59.33L12.67 78.41C9.07 79.42 5.83 80.28 3.31 81.00L4.54 86.98C10.30 85.10 18.00 82.58 25.27 80.06L25.13 77.90C26.06 79.06 27.22 80.71 27.79 81.65C30.46 80.71 33.26 79.63 35.93 78.34L35.93 78.84C35.93 82.22 34.13 84.24 32.90 85.10C33.77 86.04 35.14 87.98 35.64 89.14C36.94 88.42 38.95 87.70 50.83 85.18C50.69 83.88 50.54 81.72 50.62 80.14L41.04 81.94L41.04 75.53C43.20 74.09 45.14 72.65 46.80 70.99L47.74 70.99C51.12 79.70 57.24 86.04 66.46 88.99C67.25 87.48 68.76 85.32 69.98 84.17C66.10 83.23 62.78 81.58 60.05 79.42C62.64 78.19 65.52 76.61 67.90 74.95ZM4.97 63.72C5.83 67.82 6.84 73.15 7.06 76.68L11.02 75.31C10.73 71.86 9.72 66.60 8.71 62.57Z"/></svg>
