<svg xmlns="http://www.w3.org/2000/svg" xmlns:xlink="http://www.w3.org/1999/xlink" width="72.00000000000001" height="106.56000000000002"><path fill="red" stroke="red" d="M24.48 25.78L23.54 26.06L6.55 26.06L6.55 88.99L12.38 88.99L12.38 32.04L21.24 32.04C19.94 36.79 18.07 42.84 16.34 47.59C20.95 52.99 22.10 57.74 22.10 61.42C22.10 63.58 21.74 65.38 20.74 66.17C20.16 66.53 19.44 66.74 18.65 66.74C17.57 66.82 16.42 66.74 14.90 66.67C15.91 68.33 16.49 70.85 16.49 72.50C18.07 72.50 19.87 72.50 21.17 72.36C22.75 72.14 23.98 71.71 25.06 70.92C27.14 69.34 28.01 66.31 28.01 62.14C28.01 57.74 26.93 52.70 22.18 46.80C24.41 41.26 26.86 34.20 28.87 28.30ZM38.30 44.78L57.17 44.78L57.17 52.27L38.30 52.27ZM57.17 32.04L57.17 39.31L38.30 39.31L38.30 32.04ZM63.43 59.76C60.98 62.21 57.02 65.23 53.64 67.61C52.13 64.58 50.98 61.42 49.97 58.10L63.65 58.10L63.65 26.21L31.82 26.21L31.82 78.34C31.82 81.43 30.10 83.16 28.87 83.88C29.88 85.10 31.32 87.77 31.82 89.28C33.34 88.27 35.78 87.41 50.18 83.59C49.90 82.08 49.82 79.42 49.82 77.54L38.30 80.21L38.30 58.10L44.14 58.10C47.66 72.22 53.93 83.16 64.94 88.70C65.81 86.98 67.97 84.31 69.41 83.02C64.08 80.78 59.83 77.04 56.52 72.29C60.12 70.13 64.44 67.25 67.90 64.44Z"/></svg>
