<svg xmlns="http://www.w3.org/2000/svg" xmlns:xlink="http://www.w3.org/1999/xlink" width="72.00000000000001" height="106.56000000000002"><path fill="red" stroke="red" d="M57.24 35.35L38.30 35.35L38.30 30.74L57.24 30.74ZM57.24 44.64L38.30 44.64L38.30 39.96L57.24 39.96ZM63.58 25.85L32.18 25.85L32.18 49.54L63.58 49.54ZM22.75 25.92L21.74 26.14L5.90 26.14L5.90 89.21L11.81 89.21L11.81 32.18L19.51 32.18C18.14 37.08 16.27 43.49 14.47 48.31C19.15 53.50 20.30 58.18 20.30 61.78C20.30 63.86 20.02 65.59 19.01 66.31C18.36 66.74 17.64 66.96 16.78 66.96C15.84 67.03 14.62 67.03 13.10 66.89C14.11 68.47 14.62 70.99 14.69 72.65C16.34 72.72 18.07 72.72 19.44 72.58C20.88 72.36 22.25 71.86 23.33 71.14C25.42 69.70 26.28 66.67 26.28 62.57C26.28 58.25 25.20 53.28 20.30 47.59C22.61 41.98 25.13 34.49 27.14 28.44ZM69.12 58.61L69.12 53.14L26.28 53.14L26.28 58.61L34.92 58.61C32.04 64.08 27.58 68.83 22.61 72.00C23.76 73.01 25.92 75.02 26.78 76.18C29.81 74.02 32.62 71.35 35.14 68.18L40.10 68.18C36.50 74.45 31.03 79.85 25.13 83.45C26.28 84.46 28.15 86.62 28.87 87.70C35.64 83.16 42.12 76.18 46.22 68.18L51.12 68.18C48.53 75.17 44.06 81.22 38.88 85.18C40.10 86.11 42.26 88.06 43.13 88.99C48.96 84.17 54.00 76.68 57.02 68.18L60.41 68.18C59.76 77.98 59.04 81.86 58.10 83.09C57.53 83.74 57.02 83.81 56.09 83.81C55.22 83.81 53.21 83.74 50.98 83.52C51.84 85.03 52.34 87.41 52.49 89.14C55.15 89.28 57.67 89.21 59.11 88.99C60.84 88.78 62.06 88.27 63.22 86.90C65.02 84.89 65.95 79.42 66.67 65.38L66.89 62.93L38.74 62.93C39.60 61.56 40.32 60.12 41.04 58.61Z"/></svg>
