<svg xmlns="http://www.w3.org/2000/svg" xmlns:xlink="http://www.w3.org/1999/xlink" width="72.00000000000001" height="106.56000000000002"><path fill="red" stroke="red" d="M67.82 40.03C64.66 35.93 58.18 29.88 52.99 25.85L47.59 28.94C52.78 33.34 59.04 39.53 61.92 43.63ZM20.02 26.50C17.21 32.11 12.24 37.66 7.20 41.26C8.71 42.26 11.38 44.28 12.67 45.50C17.64 41.40 23.11 34.85 26.50 28.44ZM22.97 76.46L40.46 76.46L40.46 81.50L22.97 81.50ZM40.46 62.78L22.97 62.78L22.97 57.89L40.46 57.89ZM40.46 71.93L22.97 71.93L22.97 67.25L40.46 67.25ZM46.94 76.46L62.64 76.46L62.64 71.93L46.94 71.93L46.94 67.25L62.64 67.25L62.64 62.78L46.94 62.78L46.94 57.89L65.81 57.89L65.81 52.70L48.17 52.70C47.02 50.76 45.22 48.24 43.56 46.51L37.87 48.17C38.95 49.54 40.10 51.12 41.11 52.70L26.71 52.70C37.73 48.67 47.81 43.34 54.72 36.36L48.89 33.19C46.22 35.93 42.84 38.38 38.95 40.61L38.95 23.62L32.54 23.62L32.54 43.92C23.62 47.95 13.10 50.83 2.66 52.70C3.89 54.07 5.76 57.02 6.55 58.54C9.79 57.82 13.10 56.95 16.42 56.02L16.42 89.21L22.97 89.21L22.97 86.69L66.46 86.69L66.46 81.50L46.94 81.50Z"/></svg>
