<svg xmlns="http://www.w3.org/2000/svg" xmlns:xlink="http://www.w3.org/1999/xlink" width="72.00000000000001" height="106.56000000000002"><path fill="red" stroke="red" d="M61.49 33.84C60.62 31.18 58.54 27.07 56.81 23.90L51.05 25.85C52.63 29.09 54.65 33.41 55.44 36.14ZM37.66 29.02L24.41 29.02C23.76 27.07 22.82 24.77 21.96 22.97L16.34 24.12C16.99 25.63 17.57 27.36 18.14 29.02L3.82 29.02L3.82 34.42L37.66 34.42ZM29.38 47.23C28.15 46.01 26.42 44.50 24.48 42.91C26.14 41.26 27.65 39.60 28.94 37.94L24.84 36.43C23.83 37.73 22.68 39.02 21.38 40.32C19.73 39.02 18.00 37.80 16.56 36.65L13.61 39.02C15.19 40.25 16.92 41.54 18.58 42.98C16.70 44.71 14.62 46.30 12.74 47.66C13.75 48.31 15.48 49.75 16.20 50.47C17.93 49.10 19.87 47.45 21.67 45.65C23.62 47.30 25.27 48.96 26.50 50.11ZM45.65 70.92L53.42 70.92L53.42 79.56L45.65 79.56ZM53.42 50.98L45.65 50.98L45.65 42.62L53.42 42.62ZM53.42 65.23L45.65 65.23L45.65 56.66L53.42 56.66ZM31.54 65.81L31.54 78.98C30.46 76.03 28.37 71.28 26.50 67.61L22.75 68.83C23.40 70.20 24.12 71.93 24.84 73.51L19.15 74.59C19.73 72.07 20.45 68.98 21.17 65.81ZM69.12 79.56L59.40 79.56L59.40 70.92L67.82 70.92L67.82 65.23L59.40 65.23L59.40 56.66L67.75 56.66L67.75 50.98L59.40 50.98L59.40 42.62L68.54 42.62L68.54 36.65L46.44 36.65C47.95 32.76 49.25 28.66 50.40 24.55L44.28 23.18C42.26 31.61 38.95 40.32 34.85 46.44L34.85 36.72L29.59 36.72L29.59 51.48L11.88 51.48L11.88 36.72L6.77 36.72L6.77 56.23L18.22 56.23C17.93 57.67 17.64 59.11 17.28 60.62L10.80 60.62L10.80 58.32L5.33 58.32L5.33 60.62L3.53 60.62L3.53 65.81L5.33 65.81L5.33 89.14L10.80 89.14L10.80 65.81L16.13 65.81C15.34 69.34 14.47 72.79 13.68 75.53L11.59 75.89L13.10 80.50C17.14 79.56 21.74 78.62 26.42 77.54C26.93 78.91 27.36 80.06 27.65 81.07L31.54 79.56L31.54 83.16C31.54 83.88 31.25 84.10 30.53 84.17C29.74 84.17 27.00 84.17 24.19 84.02C24.84 85.54 25.49 87.55 25.63 88.99C29.81 88.99 32.76 88.99 34.56 88.13C36.43 87.26 36.94 85.90 36.94 83.23L36.94 60.62L22.32 60.62L23.26 56.23L34.85 56.23L34.85 49.61C36.14 50.62 37.51 51.91 38.23 52.70C38.74 51.91 39.31 51.12 39.82 50.33L39.82 88.99L45.65 88.99L45.65 85.61L69.12 85.61Z"/></svg>
