<svg xmlns="http://www.w3.org/2000/svg" xmlns:xlink="http://www.w3.org/1999/xlink" width="72.00000000000001" height="106.56000000000002"><path fill="red" stroke="red" d="M32.54 64.73L32.54 70.27L17.93 70.27L17.93 64.73ZM54.00 70.27L39.02 70.27L39.02 64.73L54.00 64.73ZM39.02 81.14L39.02 75.38L54.00 75.38L54.00 81.14ZM17.93 81.14L17.93 75.38L32.54 75.38L32.54 81.14ZM11.52 89.42L17.93 89.42L17.93 86.33L54.00 86.33L54.00 88.78L60.70 88.78L60.70 59.54L11.52 59.54ZM13.90 57.67C18.58 56.74 23.98 55.51 29.38 54.36L29.16 50.40C22.82 51.34 16.63 52.20 12.17 52.70ZM14.18 45.58C18.65 46.51 24.41 48.24 27.43 49.46L29.23 45.65C26.14 44.42 20.30 42.91 16.06 42.19ZM59.26 53.35C55.44 51.98 48.10 50.47 42.70 49.90L41.26 53.78C46.80 54.58 54.07 56.30 57.96 57.67ZM55.22 41.76C51.91 42.91 46.08 45.00 42.19 45.79L44.50 49.10C48.38 48.38 54.00 47.02 57.96 45.36ZM39.02 35.50L39.02 31.10L63.36 31.10L63.36 26.06L8.42 26.06L8.42 31.10L32.47 31.10L32.47 35.50L5.33 35.50L5.33 51.26L11.66 51.26L11.66 40.61L32.47 40.61L32.47 56.66L39.02 56.66L39.02 40.61L60.12 40.61L60.12 51.26L66.82 51.26L66.82 35.50Z"/></svg>
