<svg xmlns="http://www.w3.org/2000/svg" xmlns:xlink="http://www.w3.org/1999/xlink" width="72.00000000000001" height="106.56000000000002"><path fill="red" stroke="red" d="M23.98 61.63L19.30 61.63L19.30 54.07L23.98 54.07ZM9.72 54.07L14.62 54.07L14.62 61.63L9.72 61.63ZM13.03 34.85L20.59 34.85L20.59 39.53L13.03 39.53ZM41.04 23.83C38.74 34.13 34.70 43.85 29.02 50.33L29.02 48.89L19.87 48.89L19.87 44.78L25.85 44.78L25.85 34.85L30.38 34.85L30.38 29.38L25.85 29.38L25.85 23.26L20.59 23.26L20.59 29.38L13.03 29.38L13.03 23.26L7.99 23.26L7.99 29.38L3.10 29.38L3.10 34.85L7.99 34.85L7.99 44.78L14.11 44.78L14.11 48.89L4.75 48.89L4.75 66.74L14.04 66.74L14.04 71.64L2.95 71.64L2.95 77.33L14.04 77.33L14.04 89.28L19.80 89.28L19.80 77.33L30.89 77.33L30.89 71.64L19.80 71.64L19.80 66.74L29.02 66.74L29.02 50.98C30.24 52.49 31.97 55.37 32.62 56.59C34.27 54.79 35.71 52.70 37.15 50.47L37.15 89.21L43.34 89.21L43.34 37.73C44.93 33.70 46.22 29.59 47.30 25.27ZM58.25 82.30C57.60 82.30 56.95 82.15 56.52 81.79C56.02 81.50 55.80 80.93 55.80 80.21L55.80 52.27L67.75 52.27L67.75 46.15L55.80 46.15L55.80 24.34L49.61 24.34L49.61 79.99C49.61 84.60 50.04 85.97 51.41 87.19C52.85 88.34 54.72 88.85 56.66 88.85L61.56 88.85C63.14 88.85 65.02 88.49 66.24 87.70C67.54 87.05 68.33 85.90 68.83 83.95C69.26 82.30 69.62 77.90 69.70 74.30C67.90 73.73 65.88 72.65 64.58 71.42C64.58 75.31 64.44 78.55 64.30 79.92C64.15 80.78 63.65 81.58 63.14 81.94C62.71 82.22 61.92 82.30 61.13 82.30Z"/></svg>
