<svg xmlns="http://www.w3.org/2000/svg" xmlns:xlink="http://www.w3.org/1999/xlink" width="72.00000000000001" height="106.56000000000002"><path fill="red" stroke="red" d="M47.81 51.77L51.26 50.62C51.05 48.74 50.04 45.86 48.96 43.63L58.97 43.63C58.32 46.01 57.10 49.32 55.94 51.77ZM44.50 44.93C45.43 47.09 46.22 49.82 46.44 51.77L41.11 51.77L41.11 56.74L51.26 56.74L51.26 60.48L42.19 60.48L42.19 65.30L51.26 65.30L51.26 69.12L41.11 69.12L41.11 74.16L51.26 74.16L51.26 80.86L57.17 80.86L57.17 74.16L67.39 74.16L67.39 69.12L57.17 69.12L57.17 65.30L66.24 65.30L66.24 60.48L57.17 60.48L57.17 56.74L67.18 56.74L67.18 51.77L60.98 51.77C61.99 49.75 63.00 47.30 64.08 45.00L59.62 43.63L68.47 43.63L68.47 38.59L57.24 38.59L57.24 34.13L65.74 34.13L65.74 29.16L57.24 29.16L57.24 23.18L51.41 23.18L51.41 29.16L42.34 29.16L42.34 34.13L51.41 34.13L51.41 38.59L39.82 38.59L39.82 43.63L48.74 43.63ZM37.80 35.06C37.01 32.04 35.50 27.36 34.27 23.76L29.59 25.06C30.60 28.73 32.18 33.70 32.90 36.72ZM9.36 54.00L13.75 54.00L13.75 61.56L9.36 61.56ZM22.25 61.56L18.36 61.56L18.36 54.00L22.25 54.00ZM12.96 34.85L19.15 34.85L19.15 39.53L12.96 39.53ZM28.94 77.40L28.94 71.71L18.86 71.71L18.86 66.74L27.00 66.74L27.00 48.89L18.86 48.89L18.86 44.78L24.48 44.78L24.48 34.85L29.30 34.85L29.30 29.38L24.48 29.38L24.48 23.26L19.15 23.26L19.15 29.38L12.96 29.38L12.96 23.26L7.70 23.26L7.70 29.38L3.10 29.38L3.10 34.85L7.70 34.85L7.70 44.78L13.32 44.78L13.32 48.89L4.75 48.89L4.75 66.74L13.32 66.74L13.32 71.71L2.95 71.71L2.95 77.40L13.32 77.40L13.32 89.28L18.86 89.28L18.86 77.40ZM37.58 56.23L36.72 56.45L35.21 56.45C36.58 51.34 38.09 45.29 39.31 40.10L28.30 40.10L28.30 45.58L33.05 45.58C31.82 51.19 30.24 57.38 28.87 61.70L34.34 61.70C33.62 66.82 32.40 72.29 30.96 76.32C29.09 77.54 27.07 80.21 24.91 83.59L29.16 89.57C30.24 85.61 32.11 80.86 33.26 80.86C34.63 80.86 36.72 82.94 39.31 84.74C43.27 87.41 47.59 88.63 53.78 88.63C57.96 88.63 64.87 88.42 68.11 88.13C68.18 86.54 69.05 83.52 69.62 81.79C65.02 82.44 58.18 82.80 53.86 82.80C48.17 82.80 43.99 81.94 40.39 79.42C38.52 78.19 37.15 77.04 35.86 76.25C37.87 70.78 39.31 63.58 40.03 57.10Z"/></svg>
