<svg xmlns="http://www.w3.org/2000/svg" xmlns:xlink="http://www.w3.org/1999/xlink" width="72.00000000000001" height="106.56000000000002"><path fill="red" stroke="red" d="M21.31 77.47L21.31 66.31L31.68 66.31L31.68 42.48L26.35 42.48L26.35 60.62L21.31 60.62L21.31 37.51L32.98 37.51L32.98 31.75L21.31 31.75L21.31 23.18L15.48 23.18L15.48 31.75L3.74 31.75L3.74 37.51L15.48 37.51L15.48 60.62L10.30 60.62L10.30 42.48L5.11 42.48L5.11 66.31L15.48 66.31L15.48 77.18C15.48 80.21 13.82 81.86 12.46 82.58C13.54 83.74 14.83 86.04 15.34 87.41C16.85 86.11 19.15 84.96 33.62 78.77C33.26 77.47 32.69 74.88 32.62 73.08ZM43.34 74.95C40.39 78.34 34.42 82.51 29.02 84.89C30.38 85.97 32.33 87.98 33.41 89.21C38.81 86.69 45.14 82.30 48.96 78.26ZM59.40 49.46L43.06 49.46L43.06 44.35L59.40 44.35ZM59.40 59.47L43.06 59.47L43.06 54.29L59.40 54.29ZM59.40 69.62L43.06 69.62L43.06 64.37L59.40 64.37ZM65.81 39.17L52.99 39.17C53.57 37.08 54.22 34.56 54.79 32.26L68.40 32.26L68.40 26.28L34.27 26.28L34.27 32.26L47.66 32.26C47.45 34.42 47.09 37.01 46.66 39.17L36.94 39.17L36.94 74.81L65.81 74.81ZM53.42 78.26C57.38 81.58 62.28 86.33 64.58 89.42L69.55 85.46C67.10 82.44 61.99 77.90 58.03 74.81Z"/></svg>
