<svg xmlns="http://www.w3.org/2000/svg" xmlns:xlink="http://www.w3.org/1999/xlink" width="72.00000000000001" height="106.56000000000002"><path fill="red" stroke="red" d="M25.78 63.14L25.78 53.50L32.40 53.50L32.40 63.14ZM45.00 53.50L45.00 63.14L38.23 63.14L38.23 53.50ZM42.62 71.06C43.70 72.65 44.86 74.52 45.86 76.39L38.23 76.90L38.23 68.40L50.47 68.40L50.47 48.24L38.23 48.24L38.23 42.34L51.26 42.34L51.26 36.94L19.80 36.94L19.80 42.34L32.40 42.34L32.40 48.24L20.52 48.24L20.52 68.40L32.40 68.40L32.40 77.26C26.42 77.62 20.95 77.98 16.63 78.19L17.14 84.17C25.42 83.59 37.01 82.73 48.31 81.86C49.10 83.74 49.68 85.61 50.04 87.12L55.58 85.18C54.50 80.78 51.19 74.23 47.81 69.41ZM10.73 26.64L10.73 50.33C10.73 61.20 10.08 75.67 2.52 85.75C4.10 86.47 6.84 88.27 7.99 89.42C15.91 78.70 17.14 62.14 17.14 50.33L17.14 32.83L54.29 32.83C54.43 63.72 54.43 89.28 63.79 89.28C67.75 89.28 68.98 85.46 69.62 76.54C68.40 75.38 66.89 73.30 65.81 71.42C65.66 77.40 65.23 82.08 64.51 82.08C60.70 82.08 60.70 53.86 60.91 26.64Z"/></svg>
