<svg xmlns="http://www.w3.org/2000/svg" xmlns:xlink="http://www.w3.org/1999/xlink" width="72.00000000000001" height="106.56000000000002"><path fill="red" stroke="red" d="M13.03 41.33L25.34 41.33L25.34 36.86L14.33 36.86C15.91 35.14 17.42 33.41 18.72 31.61C22.75 34.20 27.29 37.37 29.81 39.46L32.98 34.63C30.53 32.54 25.78 29.52 21.74 27.14C22.32 26.28 22.82 25.42 23.26 24.62L17.64 22.54C14.47 28.73 8.57 34.34 2.88 37.94C3.82 39.38 5.26 42.84 5.76 44.21C8.21 42.55 10.73 40.46 13.03 38.23ZM59.83 49.03C58.46 55.94 56.38 62.14 53.64 67.39C50.69 61.99 48.46 55.73 46.94 49.03ZM24.41 49.75L24.41 54.29L13.18 54.29L13.18 49.75ZM13.18 64.51L13.18 59.11L24.41 59.11L24.41 64.51ZM62.86 42.91L61.78 43.20L41.90 43.20L41.90 33.26L66.31 33.26L66.31 27.22L35.93 27.22L35.93 51.91C35.93 61.49 35.57 74.38 31.10 83.95C29.95 80.35 27.79 74.81 25.85 70.70L21.02 72.29C21.60 73.73 22.18 75.17 22.75 76.75L13.18 80.14L13.18 69.48L29.81 69.48L29.81 44.78L7.34 44.78L7.34 79.27C7.34 81.94 5.62 83.09 4.39 83.59C5.33 85.03 6.26 87.62 6.62 89.14C7.99 88.06 10.22 86.98 24.48 81.58C25.20 83.59 25.78 85.39 26.14 86.90L30.53 85.18L30.02 86.04C31.39 86.62 34.06 88.27 35.14 89.28C40.97 78.91 41.90 63.14 41.90 52.13C43.85 60.12 46.51 67.18 50.04 73.37C46.44 78.34 42.19 82.08 37.51 84.60C38.81 85.68 40.54 88.06 41.40 89.50C46.01 86.83 50.11 83.30 53.64 78.84C56.88 83.02 60.77 86.47 65.23 89.06C66.17 87.41 68.18 85.03 69.62 83.81C64.80 81.43 60.77 77.83 57.38 73.37C61.92 65.74 65.16 56.09 66.82 44.14Z"/></svg>
