<svg xmlns="http://www.w3.org/2000/svg" xmlns:xlink="http://www.w3.org/1999/xlink" width="72.00000000000001" height="106.56000000000002"><path fill="red" stroke="red" d="M26.57 37.30C24.70 39.67 22.18 41.90 19.37 43.85C17.71 42.48 15.19 40.75 13.03 39.53C13.82 38.88 14.54 38.09 15.19 37.30ZM30.53 33.12L29.45 33.41L23.83 33.41L23.83 30.46L35.93 30.46L35.93 26.28L23.83 26.28L23.83 23.11L18.14 23.11L18.14 32.18L13.54 31.39C11.45 34.63 7.78 38.38 2.66 41.18C3.82 41.90 5.54 43.49 6.34 44.71C7.49 43.99 8.57 43.27 9.50 42.55C11.45 43.63 13.54 45.14 15.12 46.44C11.59 48.31 7.78 49.90 4.03 50.83C5.18 51.91 6.62 53.78 7.34 55.08C18.00 51.77 29.09 45.22 34.27 35.21ZM19.87 59.18C22.54 57.96 25.13 56.59 27.58 55.15L27.58 57.17L44.78 57.17L44.78 55.22C47.59 56.59 50.40 57.96 53.28 59.18ZM23.18 71.64L23.18 68.62L49.54 68.62L49.54 71.64ZM23.18 62.93L49.54 62.93L49.54 65.81L23.18 65.81ZM29.95 53.64C31.97 52.27 33.84 50.90 35.57 49.39C37.58 50.90 39.74 52.27 42.12 53.64ZM65.81 46.30C63.50 44.28 60.19 42.05 56.59 39.82C60.19 36.43 63.22 32.33 65.02 27.29L61.27 25.70L60.19 25.92L38.59 25.92L38.59 30.67L57.10 30.67C55.66 32.98 53.71 35.06 51.48 36.86C48.24 35.14 45.00 33.55 42.05 32.26L38.23 35.93C40.90 37.15 43.78 38.66 46.58 40.25C44.42 41.40 42.12 42.41 39.74 43.13C40.03 43.42 40.32 43.78 40.68 44.06L35.86 41.62C29.02 49.75 15.62 56.02 3.10 59.26C4.39 60.62 5.90 62.78 6.70 64.30C10.08 63.29 13.46 61.99 16.78 60.62L16.78 79.78C16.78 82.51 15.55 83.66 14.54 84.24C15.34 85.18 16.42 87.62 16.70 88.99C18.29 88.20 20.74 87.70 38.02 85.25C37.87 84.10 37.94 81.86 38.09 80.35L23.18 82.15L23.18 75.38L37.58 75.38L34.92 78.41C44.14 81.22 56.09 85.97 62.06 89.28L65.30 85.18C62.93 84.02 59.76 82.58 56.30 81.14C58.75 79.49 61.42 77.40 63.79 75.53L58.97 72.43C57.17 74.38 54.22 77.18 51.34 79.34C47.45 77.83 43.34 76.54 39.67 75.38L55.87 75.38L55.87 60.26C59.26 61.56 62.57 62.71 65.66 63.58C66.53 62.06 68.26 59.83 69.48 58.68C59.11 56.30 46.44 51.34 39.10 46.15C39.74 45.58 40.32 44.93 40.90 44.28C41.69 45.43 42.62 46.87 43.13 47.74C46.15 46.66 49.18 45.22 51.91 43.34C55.87 45.86 59.33 48.38 61.63 50.47Z"/></svg>
