<svg xmlns="http://www.w3.org/2000/svg" xmlns:xlink="http://www.w3.org/1999/xlink" width="72.00000000000001" height="106.56000000000002"><path fill="red" stroke="red" d="M48.31 57.74L48.31 62.35L68.26 62.35L68.26 57.74L60.84 57.74L60.84 52.85L66.89 52.85L66.89 48.31L60.84 48.31L60.84 44.35L55.80 44.35L55.80 48.31L49.75 48.31L49.75 52.85L55.80 52.85L55.80 57.74ZM67.61 38.30L51.55 38.30L51.55 33.48L64.22 33.48L64.22 28.44L51.55 28.44L51.55 23.18L45.36 23.18L45.36 28.44L33.19 28.44L33.19 33.48L45.36 33.48L45.36 38.30L30.24 38.30L30.24 43.34L67.61 43.34ZM35.93 58.03C33.19 58.39 30.67 58.61 28.51 58.82L29.45 63.86C34.49 63.07 40.75 62.14 46.94 61.13L46.87 56.81L41.11 57.46L41.11 52.85L46.51 52.85L46.51 48.31L41.11 48.31L41.11 44.35L35.93 44.35L35.93 48.31L30.10 48.31L30.10 52.85L35.93 52.85ZM10.94 41.11L21.24 41.11L21.24 36.50L12.02 36.50C13.39 34.85 14.76 33.19 16.06 31.46C19.58 33.98 23.76 37.08 25.92 39.10L29.23 34.70C26.78 32.62 22.46 29.52 18.79 27.14C19.37 26.14 19.80 25.13 20.30 24.12L14.98 22.39C12.24 28.15 7.27 33.62 2.23 37.08C3.24 38.52 4.75 41.76 5.11 42.98C7.06 41.54 9.07 39.67 10.94 37.73ZM21.17 49.68L21.17 54.50L11.88 54.50L11.88 49.68ZM11.88 64.37L11.88 59.33L21.17 59.33L21.17 64.37ZM58.39 83.02C56.88 83.02 56.74 82.80 56.74 81.22L56.74 71.21L68.98 71.21L68.98 65.74L28.73 65.74L28.73 71.21L39.02 71.21C38.30 77.62 36.00 81.50 28.44 83.88C27.07 80.50 24.05 74.95 21.74 70.70L17.28 72.65C18.07 74.09 18.94 75.67 19.73 77.40L11.88 80.21L11.88 69.48L26.21 69.48L26.21 44.64L6.70 44.64L6.70 80.06C6.70 82.66 5.04 83.59 3.89 84.02C4.68 85.32 5.54 87.70 5.83 89.14C7.13 88.06 9.29 87.05 21.96 82.01C22.75 83.66 23.40 85.25 23.83 86.40L26.78 84.96C27.94 86.18 29.09 88.20 29.66 89.50C40.68 86.18 43.85 80.50 44.93 71.21L50.76 71.21L50.76 81.29C50.76 86.62 51.91 88.27 57.38 88.27L63.22 88.27C67.46 88.27 68.98 86.26 69.55 78.48C67.97 78.05 65.52 77.18 64.37 76.18C64.15 82.15 63.86 83.02 62.50 83.02Z"/></svg>
