<svg xmlns="http://www.w3.org/2000/svg" xmlns:xlink="http://www.w3.org/1999/xlink" width="72.00000000000001" height="106.56000000000002"><path fill="red" stroke="red" d="M61.06 24.19C59.69 26.86 57.10 30.82 55.08 33.34L59.18 35.28C61.27 33.19 64.01 29.81 66.53 26.64ZM46.51 55.44L52.27 55.44L52.27 40.75L68.47 40.75L68.47 35.50L52.27 35.50L52.27 23.11L46.51 23.11L46.51 35.50L38.74 35.50L43.49 32.76C42.34 30.46 39.89 27.00 37.73 24.48L33.19 26.93C35.21 29.66 37.44 33.26 38.59 35.50L30.17 35.50L30.17 40.75L46.51 40.75ZM53.93 44.28C58.03 46.80 63.22 50.76 65.74 53.21L69.41 49.46C66.89 46.94 61.56 43.34 57.46 40.90ZM40.61 41.40C37.94 44.71 33.05 48.10 28.51 49.90C29.74 50.83 31.54 52.85 32.47 54.22C37.01 51.91 42.26 47.38 45.14 43.20ZM6.70 88.70C8.35 84.67 9.79 78.19 10.66 73.51L6.77 72.14C5.98 76.75 4.39 83.16 2.59 87.05ZM11.95 73.66C12.46 77.98 12.82 83.66 12.67 87.41L16.85 86.83C16.85 83.16 16.49 77.62 15.91 73.22ZM17.50 73.44C18.58 77.33 19.80 82.51 20.30 85.82L24.26 84.89C23.76 81.58 22.39 76.54 21.17 72.65ZM22.97 72.43C24.48 75.60 26.06 79.70 26.78 82.37L30.53 80.86C29.74 78.34 28.08 74.38 26.50 71.28ZM43.70 64.15C43.06 67.03 42.12 69.62 40.90 72.07C39.38 70.42 37.22 68.40 35.42 66.67C35.86 65.81 36.29 65.02 36.65 64.15ZM23.33 52.85L18.79 52.85L18.79 46.58L23.33 46.58ZM23.33 64.08L18.79 64.08L18.79 57.82L23.33 57.82ZM10.30 57.82L14.90 57.82L14.90 64.08L10.30 64.08ZM19.30 34.34C18.43 36.79 17.42 39.46 16.56 41.33L10.44 41.33C11.59 39.10 12.53 36.65 13.25 34.34ZM10.30 46.58L14.90 46.58L14.90 52.85L10.30 52.85ZM46.51 58.90L45.58 59.04L38.66 59.04C39.17 57.60 39.67 56.16 39.96 54.65L35.14 53.64C33.70 59.69 31.10 65.45 27.58 69.41L27.58 41.33L21.46 41.33C23.04 38.16 24.70 34.42 25.92 31.03L22.54 28.80L21.67 29.09L14.83 29.09C15.26 27.29 15.70 25.49 16.06 23.76L11.09 23.11C9.79 29.74 7.27 38.45 2.74 45.00C3.82 45.58 5.33 47.16 6.19 48.31L6.19 69.41L27.50 69.41L26.86 70.13C28.01 70.99 29.74 72.79 30.53 73.66C31.39 72.72 32.26 71.64 33.05 70.56C34.92 72.36 36.94 74.59 38.52 76.32C35.93 80.21 32.62 83.23 29.02 85.03C29.95 86.04 31.32 87.98 31.97 89.21C40.90 84.31 47.30 74.66 49.68 59.69ZM54.14 73.66C54.65 70.56 55.15 67.10 55.58 63.86L58.32 63.86L58.32 73.66ZM63.29 63.86L67.97 63.86L67.97 59.11L63.29 59.11L63.29 53.86L58.32 53.86L58.32 59.11L49.75 59.11L49.75 63.86L51.48 63.86C50.90 68.90 49.97 74.88 49.25 78.91L58.32 78.91L58.32 89.21L63.29 89.21L63.29 78.91L68.76 78.91L68.76 73.66L63.29 73.66Z"/></svg>
