<svg xmlns="http://www.w3.org/2000/svg" xmlns:xlink="http://www.w3.org/1999/xlink" width="72.00000000000001" height="106.56000000000002"><path fill="red" stroke="red" d="M37.08 39.17C36.58 35.93 34.70 30.82 32.76 26.86L28.15 28.30C30.10 32.33 31.68 37.66 32.11 40.97ZM15.98 64.80L21.46 62.42L20.38 56.95L15.98 58.61L15.98 48.89L21.74 48.89C21.96 57.31 22.32 64.73 23.04 70.63C20.95 73.80 18.58 76.68 15.98 79.13ZM15.98 31.61C17.93 30.89 19.80 30.17 21.53 29.30C21.53 34.06 21.60 38.66 21.67 42.98L15.98 42.98ZM32.11 51.19C30.89 55.22 29.30 59.26 27.43 63.00C27.22 58.90 27.07 54.14 27.00 48.89L36.65 48.89L36.65 42.98L26.93 42.98C26.86 37.15 26.93 30.82 27.00 24.12L21.53 24.12L21.53 28.73L16.92 24.34C13.61 26.35 8.06 28.44 3.02 29.88C3.82 31.25 4.75 33.41 5.04 34.78C6.70 34.42 8.42 33.91 10.22 33.41L10.22 42.98L3.38 42.98L3.38 48.89L10.22 48.89L10.22 60.84C7.27 61.92 4.54 62.86 2.38 63.58L4.39 69.77C6.26 68.98 8.21 68.18 10.22 67.25L10.22 82.58C10.22 83.45 10.01 83.59 9.29 83.66C8.50 83.66 6.19 83.66 3.82 83.59C4.61 85.25 5.40 87.77 5.62 89.28C9.36 89.28 11.88 89.14 13.61 88.20C15.41 87.19 15.98 85.61 15.98 82.58L15.98 81.07C17.06 82.01 18.14 83.09 18.86 83.95C20.81 82.22 22.61 80.28 24.26 78.26C25.63 84.17 27.58 87.48 30.60 87.55C32.54 87.55 34.99 85.18 36.43 75.82C35.50 75.24 33.48 73.66 32.62 72.36C32.33 77.40 31.61 80.57 30.74 80.57C29.66 80.50 28.87 77.69 28.22 72.79C31.90 67.18 34.85 60.91 37.01 54.22ZM38.23 87.12C40.82 83.45 41.69 77.33 42.26 71.86L37.80 70.70C37.44 75.82 36.36 81.43 34.13 84.74ZM43.85 73.01C44.57 76.68 44.86 81.50 44.78 84.67L48.74 84.02C48.82 81.00 48.38 76.18 47.66 72.43ZM49.97 72.29C51.12 75.38 52.06 79.34 52.34 82.01L56.09 81.07C55.73 78.48 54.65 74.45 53.42 71.50ZM58.82 34.42L58.82 38.30L44.78 38.30L44.78 34.42ZM44.78 46.44L44.78 42.48L58.82 42.48L58.82 46.44ZM69.26 59.54L69.26 54.72L44.78 54.72L44.78 51.19L64.66 51.19L64.66 29.66L53.42 29.66C54.22 27.94 55.01 25.99 55.73 24.05L49.10 23.11C48.74 24.98 48.24 27.43 47.59 29.66L38.88 29.66L38.88 68.11L62.86 68.11C62.64 71.71 62.50 74.59 62.28 76.90C61.56 74.88 60.19 72.07 58.90 69.98L55.73 70.99C57.10 73.44 58.54 76.61 59.04 78.62L62.21 77.47C61.78 81.43 61.27 83.38 60.70 84.10C60.19 84.67 59.69 84.82 58.82 84.82C57.89 84.82 55.87 84.74 53.64 84.60C54.36 85.82 54.86 87.77 54.94 89.21C57.46 89.35 59.83 89.28 61.27 89.14C62.86 88.99 64.08 88.49 65.16 87.26C66.74 85.32 67.46 79.92 68.26 65.38C68.33 64.58 68.40 63.14 68.40 63.14L44.78 63.14L44.78 59.54Z"/></svg>
