<svg xmlns="http://www.w3.org/2000/svg" xmlns:xlink="http://www.w3.org/1999/xlink" width="72.00000000000001" height="106.56000000000002"><path fill="red" stroke="red" d="M10.80 60.05C10.87 57.46 10.87 55.01 10.87 52.70L10.87 48.31L15.41 48.31L15.41 60.05ZM15.41 31.68L15.41 43.20L10.87 43.20L10.87 31.68ZM20.09 26.35L6.19 26.35L6.19 52.78C6.19 63.00 5.98 76.97 2.02 86.83C3.17 87.26 5.33 88.42 6.19 89.21C8.86 82.51 10.01 73.66 10.51 65.30L15.41 65.30L15.41 82.01C15.41 82.73 15.19 82.94 14.54 82.94C13.97 82.94 12.24 83.02 10.30 82.94C10.87 84.17 11.59 86.33 11.81 87.62C14.83 87.62 16.78 87.48 18.29 86.69C19.73 85.75 20.09 84.46 20.09 82.01ZM28.01 60.05C28.01 58.68 28.01 57.38 28.01 56.09L28.01 48.31L32.83 48.31L32.83 60.05ZM32.83 31.68L32.83 43.20L28.01 43.20L28.01 31.68ZM37.73 26.35L23.33 26.35L23.33 56.09C23.33 65.74 23.04 78.48 19.37 87.34C20.59 87.77 22.82 88.78 23.69 89.50C26.42 82.87 27.50 73.73 27.86 65.30L32.83 65.30L32.83 83.38C32.83 84.10 32.62 84.31 31.97 84.38C31.32 84.38 29.66 84.38 27.72 84.31C28.37 85.61 29.09 87.91 29.23 89.21C32.26 89.21 34.27 89.06 35.78 88.20C36.94 87.55 37.44 86.47 37.66 84.96L41.33 87.19C43.85 83.45 44.50 77.40 44.78 71.50L40.54 70.63C40.32 75.89 39.60 81.22 37.66 84.60C37.73 84.24 37.73 83.88 37.73 83.45ZM46.30 72.86C47.02 76.61 47.45 81.43 47.38 84.53L50.90 84.02C50.90 80.93 50.47 76.10 49.61 72.43ZM59.83 34.34L59.83 38.30L46.44 38.30L46.44 34.34ZM46.44 46.44L46.44 42.41L59.83 42.41L59.83 46.44ZM69.34 59.54L69.34 54.72L46.44 54.72L46.44 51.12L65.45 51.12L65.45 29.66L55.44 29.66C56.16 27.94 56.95 25.99 57.74 23.98L51.12 23.04C50.76 24.91 50.18 27.43 49.54 29.66L40.82 29.66L40.82 68.04L63.36 68.04C63.22 70.99 63.07 73.44 62.86 75.46C62.14 73.66 60.98 71.57 59.83 69.98L56.88 71.06C58.32 73.30 59.69 76.25 60.41 78.19L62.71 77.18C62.28 81.36 61.78 83.30 61.13 84.10C60.62 84.67 60.19 84.74 59.26 84.74C58.39 84.74 56.45 84.67 54.14 84.53C54.86 85.75 55.37 87.70 55.37 89.06C57.89 89.14 60.26 89.14 61.63 88.99C63.22 88.85 64.44 88.42 65.52 87.19C67.03 85.25 67.90 79.85 68.62 65.30C68.69 64.58 68.69 63.14 68.69 63.14L46.44 63.14L46.44 59.54ZM57.74 81.00C57.38 78.41 56.16 74.45 54.94 71.42L51.77 72.22C52.92 75.24 54.07 79.27 54.36 81.86Z"/></svg>
