<svg xmlns="http://www.w3.org/2000/svg" xmlns:xlink="http://www.w3.org/1999/xlink" width="72.00000000000001" height="106.56000000000002"><path fill="red" stroke="red" d="M13.97 74.59L20.95 74.59L20.95 80.71L13.97 80.71ZM20.95 58.39L13.97 58.39L13.97 52.78L20.95 52.78ZM20.95 69.48L13.97 69.48L13.97 63.50L20.95 63.50ZM33.62 80.71L26.42 80.71L26.42 74.59L33.19 74.59L33.19 69.48L26.42 69.48L26.42 63.50L33.19 63.50L33.19 58.39L26.42 58.39L26.42 52.78L34.34 52.78L34.34 47.38L27.22 47.38C26.50 45.22 25.27 42.26 24.26 39.96L19.58 41.54C20.38 43.34 21.17 45.43 21.82 47.38L16.20 47.38C18.14 43.70 19.66 39.74 21.02 35.50L29.23 35.50L29.23 42.55L34.70 42.55L34.70 30.31L22.46 30.31C23.04 28.15 23.54 25.85 23.98 23.62L18.36 22.68C17.86 25.27 17.28 27.86 16.63 30.31L5.11 30.31L5.11 42.62L10.37 42.62L10.37 35.50L15.12 35.50C12.24 44.06 8.06 51.19 2.30 56.23C3.31 57.60 4.82 60.55 5.40 61.92C6.55 60.98 7.56 59.90 8.57 58.75L8.57 89.14L13.97 89.14L13.97 85.97L33.70 85.97L33.70 85.61L37.73 87.84C40.10 84.24 40.90 78.34 41.40 72.94L36.94 71.78C36.58 76.61 35.64 81.94 33.70 85.10ZM43.27 72.94C43.92 76.68 44.21 81.58 44.06 84.74L48.17 84.17C48.24 81.00 47.81 76.18 47.09 72.43ZM49.39 72.29C50.47 75.31 51.48 79.27 51.77 81.94L55.51 80.93C55.15 78.41 54.00 74.45 52.85 71.42ZM57.53 34.42L57.53 38.23L43.20 38.23L43.20 34.42ZM43.20 46.51L43.20 42.55L57.53 42.55L57.53 46.51ZM69.05 59.54L69.05 54.58L43.20 54.58L43.20 51.26L63.50 51.26L63.50 29.66L51.34 29.66C52.27 27.94 53.28 26.06 54.29 24.12L47.23 23.11C46.80 24.91 45.86 27.50 45.00 29.66L37.37 29.66L37.37 68.11L61.92 68.11C61.78 71.21 61.56 73.80 61.34 75.89C60.55 73.94 59.47 71.64 58.18 69.77L54.94 70.92C56.30 73.22 57.82 76.46 58.46 78.55L61.20 77.47C60.77 81.14 60.26 82.94 59.76 83.66C59.26 84.24 58.68 84.38 57.67 84.38C56.74 84.38 54.50 84.38 52.06 84.10C52.78 85.46 53.21 87.48 53.35 89.06C56.16 89.14 58.75 89.21 60.19 88.99C61.99 88.85 63.22 88.34 64.22 86.98C65.95 85.10 66.60 79.56 67.32 65.38C67.39 64.58 67.46 63.00 67.46 63.00L43.20 63.00L43.20 59.54Z"/></svg>
