<svg xmlns="http://www.w3.org/2000/svg" xmlns:xlink="http://www.w3.org/1999/xlink" width="72.00000000000001" height="106.56000000000002"><path fill="red" stroke="red" d="M14.18 37.30L68.26 37.30L68.26 30.89L43.78 30.89C42.84 28.22 41.47 25.06 40.32 22.46L33.48 24.12C34.34 26.14 35.35 28.66 36.07 30.89L7.49 30.89L7.49 50.33C7.49 60.48 7.06 74.81 1.94 84.82C3.38 85.61 6.34 87.62 7.56 88.92C13.25 77.98 14.18 61.42 14.18 50.33ZM17.86 63.14C17.86 68.83 17.42 76.18 13.18 82.01C14.18 82.73 15.84 84.17 16.49 85.25C21.46 78.48 22.18 70.06 22.18 63.22L22.18 57.60L17.86 57.60ZM39.24 54.29L39.24 48.53L30.96 48.53L30.96 38.88L25.20 38.88L25.20 48.53L15.84 48.53L15.84 54.29L25.20 54.29L25.20 89.14L30.96 89.14L30.96 54.29ZM43.34 64.37C43.34 68.18 43.13 72.50 41.62 76.54L41.54 75.60C40.90 75.74 39.82 75.82 39.31 75.82L38.74 75.82C38.16 75.82 38.09 75.46 38.09 73.94L38.09 57.53L33.91 57.53L33.91 73.87C33.91 77.40 34.56 78.91 37.87 78.91L39.31 78.91C39.74 78.91 40.18 78.91 40.61 78.84C39.96 80.21 39.10 81.36 38.09 82.58C39.24 83.38 40.75 84.82 41.47 85.90C47.02 79.56 47.81 71.42 47.81 64.51L47.81 57.60L43.34 57.60ZM67.90 54.22L67.90 48.53L56.66 48.53L56.66 38.88L50.83 38.88L50.83 48.53L41.11 48.53L41.11 54.22L50.83 54.22L50.83 89.06L56.66 89.06L56.66 54.22ZM64.73 79.78C64.08 79.78 63.94 79.27 63.94 77.54L63.94 57.67L59.40 57.67L59.40 77.40C59.40 82.15 60.19 83.81 64.44 83.81L66.60 83.81C67.61 83.81 68.69 83.81 69.26 83.52C69.26 82.44 69.05 80.64 68.98 79.49C68.33 79.70 67.25 79.78 66.60 79.78Z"/></svg>
