<svg xmlns="http://www.w3.org/2000/svg" xmlns:xlink="http://www.w3.org/1999/xlink" width="72.00000000000001" height="106.56000000000002"><path fill="red" stroke="red" d="M25.20 44.50C26.42 41.83 27.79 37.44 29.16 33.84L25.49 32.47C24.91 35.64 23.62 40.54 22.54 43.49ZM11.23 33.48C12.38 36.86 13.18 41.33 13.32 44.21L16.56 43.20C16.42 40.46 15.41 36.00 14.26 32.69ZM10.66 30.17L17.64 30.17L17.64 46.73L10.66 46.73ZM29.30 46.73L21.96 46.73L21.96 30.17L29.30 30.17ZM3.96 71.64C12.38 71.14 24.34 70.56 35.78 69.77L36.00 64.44C31.61 64.66 27.14 64.87 22.82 65.09L22.82 60.70L34.78 60.70L34.78 55.51L22.82 55.51L22.82 51.41L34.56 51.41L34.56 25.49L5.62 25.49L5.62 51.41L16.85 51.41L16.85 55.51L5.33 55.51L5.33 60.70L16.85 60.70L16.85 65.38C11.88 65.59 7.34 65.74 3.67 65.88ZM6.77 89.21C9.79 85.97 11.02 80.50 11.81 75.24L7.20 74.02C6.55 78.77 5.11 83.88 2.38 86.83ZM13.32 74.23C14.18 78.26 14.83 83.38 14.83 86.76L19.30 86.18C19.30 82.80 18.58 77.69 17.50 73.80ZM20.23 73.94C21.74 77.69 23.18 82.51 23.54 85.68L27.86 84.67C27.36 81.50 25.92 76.75 24.34 73.15ZM27.14 73.15C29.45 76.54 31.82 81.22 32.76 84.31L37.15 82.44C36.14 79.42 33.70 74.88 31.18 71.57ZM60.05 79.92L44.06 79.92L44.06 63.00L60.05 63.00ZM69.12 44.57L69.12 38.38L54.43 38.38L54.43 23.18L47.95 23.18L47.95 56.88L37.94 56.88L37.94 89.14L44.06 89.14L44.06 86.04L60.05 86.04L60.05 88.85L66.38 88.85L66.38 56.88L54.43 56.88L54.43 44.57Z"/></svg>
