<svg xmlns="http://www.w3.org/2000/svg" xmlns:xlink="http://www.w3.org/1999/xlink" width="72.00000000000001" height="106.56000000000002"><path fill="red" stroke="red" d="M16.49 40.03L5.40 40.03L5.40 45.50L34.13 45.50L34.13 40.03L23.04 40.03L23.04 34.63L35.28 34.63L35.28 29.02L23.04 29.02L23.04 23.11L16.49 23.11L16.49 29.02L3.60 29.02L3.60 34.63L16.49 34.63ZM26.64 61.49L12.67 61.49L12.67 54.86L26.64 54.86ZM33.12 49.61L6.55 49.61L6.55 66.67L33.12 66.67ZM17.28 77.18C16.92 74.52 15.62 70.49 13.97 67.46L8.35 68.98C9.79 72.07 11.02 76.18 11.16 78.98ZM35.50 76.61L27.72 77.76C28.73 74.95 29.81 71.71 30.89 68.69L24.77 67.32C24.05 70.63 22.75 75.17 21.53 78.62C14.47 79.49 7.92 80.35 2.88 80.93L3.89 87.05C12.31 85.82 24.48 84.02 35.78 82.37ZM59.69 55.58C57.74 61.34 55.01 66.38 51.55 70.56C48.10 66.17 45.43 61.06 43.56 55.58ZM63.58 49.32L62.35 49.54L55.15 49.54L55.15 40.10L68.40 40.10L68.40 33.91L55.15 33.91L55.15 23.11L48.46 23.11L48.46 33.91L35.71 33.91L35.71 40.10L48.46 40.10L48.46 49.54L36.00 49.54L36.00 55.58L41.33 55.58L37.51 56.66C39.82 63.72 42.98 69.91 46.94 75.17C42.70 78.98 37.66 81.94 32.18 84.02C33.55 85.18 35.86 87.84 36.72 89.35C42.05 87.19 47.02 84.17 51.41 80.21C55.30 84.02 59.98 87.05 65.23 89.21C66.24 87.41 68.18 84.89 69.70 83.52C64.44 81.72 59.90 78.91 56.09 75.31C61.27 69.12 65.38 61.06 67.75 51.12Z"/></svg>
