<svg xmlns="http://www.w3.org/2000/svg" xmlns:xlink="http://www.w3.org/1999/xlink" width="72.00000000000001" height="106.56000000000002"><path fill="red" stroke="red" d="M65.74 37.30C64.01 34.06 60.34 28.80 57.24 24.98L52.20 27.86C55.22 31.90 58.68 37.30 60.26 40.61ZM19.30 23.18C15.48 33.91 9.00 44.50 2.23 51.26C3.31 52.85 5.26 56.52 5.90 58.18C7.99 55.94 10.15 53.42 12.10 50.69L12.10 89.21L18.79 89.21L18.79 40.10C21.46 35.28 23.83 30.17 25.70 25.13ZM68.11 50.26L68.11 43.70L47.59 43.70C47.66 42.62 47.66 41.62 47.66 40.54L47.66 23.33L40.90 23.33L40.90 40.54C40.90 41.62 40.90 42.62 40.82 43.70L22.82 43.70L22.82 50.26L40.39 50.26C39.17 61.63 35.06 74.38 21.74 84.82C23.62 86.04 25.99 87.77 27.29 89.28C37.58 81.07 42.77 71.21 45.36 61.42C49.39 73.51 55.30 83.30 64.22 89.14C65.38 87.26 67.61 84.60 69.26 83.30C58.61 77.18 51.98 64.87 48.46 50.26Z"/></svg>
