<svg xmlns="http://www.w3.org/2000/svg" xmlns:xlink="http://www.w3.org/1999/xlink" width="72.00000000000001" height="106.56000000000002"><path fill="red" stroke="red" d="M18.50 23.47C14.62 33.98 8.21 44.50 1.44 51.19C2.52 52.70 4.46 56.30 5.11 57.96C7.20 55.73 9.29 53.28 11.23 50.54L11.23 89.14L17.57 89.14L17.57 40.61C20.30 35.71 22.82 30.53 24.77 25.34ZM33.62 87.48L52.78 87.48L52.78 82.01L33.62 82.01ZM33.34 50.11L33.34 35.06C37.94 34.42 42.55 33.62 47.16 32.69C47.38 38.81 47.74 44.71 48.24 50.11ZM67.90 56.30L67.90 50.11L54.29 50.11C53.78 44.28 53.42 37.87 53.21 31.32C57.74 30.31 62.06 29.09 65.66 27.79L60.55 22.82C52.63 25.85 39.10 28.66 27.07 30.46L27.14 30.53L27.07 30.53L27.07 72.86C27.07 75.67 25.13 76.97 23.83 77.62C24.70 78.91 25.85 81.50 26.21 83.02C27.72 82.01 30.17 81.14 45.86 76.75C45.65 75.38 45.58 72.86 45.72 71.14L33.34 74.16L33.34 56.30L48.74 56.30C50.98 75.53 55.01 88.42 62.50 88.56C65.30 88.63 68.04 85.61 69.55 74.59C68.47 74.09 66.02 72.50 65.02 71.28C64.51 77.54 63.65 81.07 62.50 81.07C59.33 80.93 56.59 70.85 54.94 56.30Z"/></svg>
