<svg xmlns="http://www.w3.org/2000/svg" xmlns:xlink="http://www.w3.org/1999/xlink" width="72.00000000000001" height="106.56000000000002"><path fill="red" stroke="red" d="M19.44 23.26C15.41 33.84 8.64 44.21 1.58 50.83C2.66 52.49 4.61 56.09 5.26 57.60C7.63 55.15 10.01 52.34 12.31 49.25L12.31 89.06L18.65 89.06L18.65 39.60C21.31 34.99 23.76 30.10 25.70 25.27ZM57.89 78.34L33.34 78.34L33.34 63.07L57.89 63.07ZM68.54 43.85L68.54 37.44L48.31 37.44L48.31 23.26L41.62 23.26L41.62 56.88L26.86 56.88L26.86 88.85L33.34 88.85L33.34 84.67L57.89 84.67L57.89 88.42L64.73 88.42L64.73 56.88L48.31 56.88L48.31 43.85Z"/></svg>
