<svg xmlns="http://www.w3.org/2000/svg" xmlns:xlink="http://www.w3.org/1999/xlink" width="72.00000000000001" height="106.56000000000002"><path fill="red" stroke="red" d="M15.05 23.47C12.24 34.13 7.56 44.78 2.09 51.84C3.17 53.50 4.82 57.24 5.26 58.90C6.98 56.66 8.57 54.22 10.15 51.55L10.15 89.14L15.98 89.14L15.98 39.60C17.93 34.92 19.66 30.02 21.10 25.13ZM31.39 43.63L40.03 43.63L40.03 50.69L31.75 50.69L31.75 79.70L36.00 79.70L36.00 54.58L40.75 54.58L40.75 88.56L45.14 88.56L45.14 54.58L49.68 54.58L49.68 74.74C49.68 75.31 49.54 75.38 49.10 75.38L46.15 75.38C46.73 76.54 47.38 78.41 47.59 79.63C49.75 79.63 51.34 79.56 52.49 78.70C53.64 77.90 53.93 76.75 53.93 74.81L53.93 50.69L45.86 50.69L45.86 43.63L54.14 43.63L54.14 38.38L31.39 38.38ZM23.26 26.71L23.26 45.72C23.26 57.24 22.82 73.87 17.42 85.82C18.65 86.40 21.24 88.20 22.10 89.21C27.94 76.68 28.87 57.89 28.87 45.72L28.87 32.40L57.17 32.40C57.10 65.66 56.38 89.06 64.37 89.06C67.97 89.06 69.05 85.54 69.55 75.74C68.54 74.74 67.03 72.94 66.02 71.35C66.02 77.54 65.66 82.94 64.87 82.94C62.06 82.87 62.50 56.81 62.93 26.71Z"/></svg>
