<svg xmlns="http://www.w3.org/2000/svg" xmlns:xlink="http://www.w3.org/1999/xlink" width="72.00000000000001" height="106.56000000000002"><path fill="red" stroke="red" d="M18.22 23.26C15.12 35.57 9.72 46.94 2.52 54.07C3.67 55.66 5.54 59.26 6.12 60.91C8.28 58.68 10.37 56.02 12.24 53.21L12.24 89.57L18.65 89.57L18.65 41.54C21.02 36.22 23.04 30.53 24.55 24.77ZM57.02 61.13L34.20 61.13L34.20 49.54L57.02 49.54ZM34.20 78.77L34.20 67.18L57.02 67.18L57.02 78.77ZM66.46 33.05L66.46 26.78L24.77 26.78L24.77 33.05L40.61 33.05C40.10 36.36 39.38 40.18 38.59 43.34L27.86 43.34L27.86 89.14L34.20 89.14L34.20 84.96L57.02 84.96L57.02 88.70L63.58 88.70L63.58 43.34L45.22 43.34C46.22 40.25 47.23 36.58 48.10 33.05Z"/></svg>
