<svg xmlns="http://www.w3.org/2000/svg" xmlns:xlink="http://www.w3.org/1999/xlink" width="72.00000000000001" height="106.56000000000002"><path fill="red" stroke="red" d="M16.06 71.71C16.20 70.13 16.27 68.54 16.27 67.10L30.10 67.10L30.10 71.71ZM30.10 57.53L30.10 61.99L16.27 61.99L16.27 57.53ZM36.00 52.27L10.22 52.27L10.22 66.24C10.22 72.29 9.79 79.85 5.04 85.46C6.48 86.18 9.07 88.13 10.08 89.28C12.96 85.82 14.62 81.36 15.41 76.82L30.10 76.82L30.10 82.51C30.10 83.38 29.74 83.66 28.73 83.66C27.86 83.74 24.62 83.74 21.38 83.59C22.18 85.10 23.18 87.34 23.47 88.92C28.01 88.92 31.18 88.85 33.34 87.91C35.35 87.05 36.00 85.54 36.00 82.51ZM55.87 82.66C55.87 83.52 55.58 83.81 54.65 83.81C53.71 83.81 50.54 83.88 47.45 83.74C48.24 85.32 49.10 87.70 49.32 89.35C53.93 89.35 57.10 89.28 59.26 88.34C61.42 87.48 61.99 85.90 61.99 82.73L61.99 51.48L55.87 51.48ZM48.53 54.00L42.55 54.00L42.55 78.12L48.53 78.12ZM23.76 41.04C28.30 38.16 32.47 34.99 36.14 31.46C40.54 35.42 44.93 38.52 49.39 41.04ZM36.00 22.39C28.73 31.90 15.34 39.82 2.23 44.21C3.89 45.65 5.62 48.10 6.55 49.68C10.94 48.02 15.34 45.94 19.51 43.63L19.51 46.66L51.84 46.66L51.84 42.41C56.45 44.93 61.06 46.80 65.74 48.53C66.60 46.58 68.33 44.21 69.91 42.77C59.69 39.53 49.39 35.35 40.18 27.29C40.68 26.64 41.18 25.99 41.69 25.34Z"/></svg>
