<svg xmlns="http://www.w3.org/2000/svg" xmlns:xlink="http://www.w3.org/1999/xlink" width="72.00000000000001" height="106.56000000000002"><path fill="red" stroke="red" d="M17.86 23.40C14.54 33.91 9.07 44.35 3.10 51.19C4.18 52.70 6.05 56.16 6.62 57.67C8.42 55.51 10.22 53.06 11.95 50.40L11.95 89.21L18.00 89.21L18.00 39.60C20.23 34.92 22.25 30.02 23.83 25.20ZM51.12 50.18L57.82 50.18L57.82 53.78L51.12 53.78ZM51.12 42.19L57.82 42.19L57.82 45.79L51.12 45.79ZM59.40 64.58L59.40 68.18L51.12 68.18L51.12 64.58ZM51.12 75.24L51.12 71.78L59.40 71.78L59.40 75.24ZM37.51 75.24C37.58 74.16 37.58 73.22 37.58 72.22L37.58 71.78L45.86 71.78L45.86 75.24ZM45.86 64.58L45.86 68.18L37.58 68.18L37.58 64.58ZM62.93 57.74L62.93 50.54L67.68 50.54L67.68 45.22L62.93 45.22L62.93 38.23L51.12 38.23L51.12 35.35L66.82 35.35L66.82 30.24L50.90 30.24C50.26 28.01 49.25 25.20 48.38 22.97L42.48 24.12C43.20 25.92 43.92 28.22 44.42 30.24L24.34 30.24L24.34 52.99C24.34 62.86 23.83 76.03 18.58 85.32C19.87 86.04 22.32 87.84 23.26 88.99C29.09 78.91 30.02 63.58 30.02 52.99L30.02 35.35L45.86 35.35L45.86 38.23L34.27 38.23L34.27 42.19L45.86 42.19L45.86 45.79L31.32 45.79L31.32 50.18L45.86 50.18L45.86 53.78L34.42 53.78L34.42 57.74L45.86 57.74L45.86 60.34L32.26 60.34L32.26 72.14C32.26 76.46 31.97 81.50 28.87 85.39C30.02 86.11 32.11 88.13 32.98 89.28C35.42 86.40 36.58 82.66 37.15 78.91L45.86 78.91L45.86 87.55L51.12 87.55L51.12 78.91L59.40 78.91L59.40 83.59C59.40 84.24 59.18 84.38 58.61 84.38C58.03 84.46 56.16 84.46 54.14 84.38C54.79 85.61 55.44 87.34 55.73 88.63C58.82 88.63 61.06 88.63 62.57 87.91C64.15 87.12 64.51 85.97 64.51 83.66L64.51 60.34L51.12 60.34L51.12 57.74Z"/></svg>
