<svg xmlns="http://www.w3.org/2000/svg" xmlns:xlink="http://www.w3.org/1999/xlink" width="72.00000000000001" height="106.56000000000002"><path fill="red" stroke="red" d="M60.62 48.24L43.70 48.24L43.70 42.26L60.62 42.26ZM60.62 59.11L43.70 59.11L43.70 53.14L60.62 53.14ZM60.62 69.98L43.70 69.98L43.70 64.01L60.62 64.01ZM37.87 37.15L37.87 75.17L66.67 75.17L66.67 37.15L53.78 37.15C54.36 35.57 55.01 33.77 55.58 32.04L68.90 32.04L68.90 26.35L34.63 26.35L34.63 32.04L48.74 32.04C48.38 33.70 47.95 35.50 47.52 37.15ZM14.90 23.54C11.88 34.06 6.98 44.64 1.37 51.55C2.38 53.28 4.10 57.02 4.61 58.61C6.48 56.23 8.28 53.50 10.08 50.54L10.08 89.35L16.06 89.35L16.06 38.45C17.93 34.13 19.58 29.66 20.95 25.20ZM27.29 67.97L27.29 50.11L35.42 50.11L35.42 44.42L27.29 44.42L27.29 31.32L21.53 31.32L21.53 67.03C21.53 69.91 20.52 71.35 19.58 72.07C20.52 73.44 21.74 76.54 22.25 77.98L22.75 77.47C23.83 76.39 26.35 74.81 34.27 70.34C34.13 69.05 34.06 66.38 34.27 64.58ZM43.85 76.25C41.04 79.34 35.14 83.16 29.95 85.18C31.39 86.33 33.41 88.27 34.42 89.50C39.60 87.26 45.79 83.38 49.46 79.63ZM54.07 79.85C57.89 82.66 62.64 86.76 64.94 89.42L70.13 85.75C67.75 83.16 62.86 79.20 59.11 76.54Z"/></svg>
