<svg xmlns="http://www.w3.org/2000/svg" xmlns:xlink="http://www.w3.org/1999/xlink" width="72.00000000000001" height="106.56000000000002"><path fill="red" stroke="red" d="M18.29 23.40C14.69 33.91 8.64 44.35 2.16 51.12C3.24 52.70 5.11 56.23 5.76 57.82C7.63 55.73 9.43 53.42 11.23 50.98L11.23 89.14L17.57 89.14L17.57 40.61C20.30 35.71 22.61 30.46 24.55 25.27ZM55.30 66.53L55.30 71.06L33.84 71.06L33.84 66.53ZM33.84 80.42L33.84 75.82L55.30 75.82L55.30 80.42ZM27.36 88.99L33.84 88.99L33.84 85.68L55.30 85.68L55.30 88.92L62.06 88.92L62.06 61.34L27.36 61.34ZM31.39 40.97C33.19 44.06 35.21 48.31 35.93 51.05L40.25 49.18C39.38 46.58 37.37 42.48 35.42 39.46ZM52.34 51.34C54.00 48.53 56.09 44.50 57.82 40.75L53.28 39.38C52.20 42.48 49.97 47.16 48.38 50.04ZM59.47 52.78L47.16 52.78L47.16 38.23L59.47 38.23ZM29.74 38.23L42.05 38.23L42.05 52.78L29.74 52.78ZM56.02 33.41C57.96 31.03 60.12 28.08 62.06 25.20L55.08 22.90C53.78 26.06 51.26 30.46 49.18 33.41L35.93 33.41L40.46 31.61C39.31 29.23 37.08 25.85 34.99 23.33L29.23 25.34C31.10 27.86 33.05 31.10 34.13 33.41L23.83 33.41L23.83 57.60L65.81 57.60L65.81 33.41Z"/></svg>
