<svg xmlns="http://www.w3.org/2000/svg" xmlns:xlink="http://www.w3.org/1999/xlink" width="72.00000000000001" height="106.56000000000002"><path fill="red" stroke="red" d="M33.62 31.82C32.76 29.59 30.53 26.35 28.44 23.98L24.34 26.64C26.35 29.09 28.44 32.54 29.30 34.78ZM14.90 23.47C12.10 34.13 7.34 44.78 1.94 51.91C3.02 53.57 4.61 57.31 5.11 58.90C6.77 56.74 8.35 54.29 9.86 51.70L9.86 89.14L15.48 89.14L15.48 40.10C17.57 35.21 19.30 30.17 20.74 25.13ZM39.46 35.93L19.80 35.93L19.80 41.18L39.46 41.18ZM38.23 45.58L21.89 45.58L21.89 50.76L38.23 50.76ZM21.89 60.48L38.23 60.48L38.23 55.30L21.89 55.30ZM33.55 70.85L33.55 79.06L26.28 79.06L26.28 70.85ZM21.02 88.27L26.28 88.27L26.28 84.24L33.55 84.24L33.55 87.12L38.95 87.12L38.95 65.59L21.02 65.59ZM53.06 36.58L58.54 36.58C57.24 39.46 55.58 42.26 53.93 44.86L53.06 44.86ZM60.77 68.76L51.26 68.76L51.26 62.35L60.77 62.35ZM51.26 80.57L51.26 74.02L60.77 74.02L60.77 80.57ZM69.12 50.40L69.12 44.86L60.55 44.86C63.72 39.38 66.38 33.41 68.54 26.86L62.86 25.49C61.78 29.09 60.48 32.54 58.90 35.86L58.90 31.03L53.06 31.03L53.06 23.54L47.52 23.54L47.52 31.03L40.90 31.03L40.90 36.58L47.52 36.58L47.52 44.86L39.82 44.86L39.82 50.40L49.82 50.40C46.08 55.08 41.76 59.04 36.79 62.14C38.02 63.29 39.89 65.74 40.68 66.96C42.34 65.74 44.06 64.44 45.58 63.14L45.58 89.14L51.26 89.14L51.26 86.04L60.77 86.04L60.77 88.49L66.82 88.49L66.82 56.88L51.91 56.88C53.71 54.79 55.37 52.70 57.02 50.40Z"/></svg>
