<svg xmlns="http://www.w3.org/2000/svg" xmlns:xlink="http://www.w3.org/1999/xlink" width="72.00000000000001" height="106.56000000000002"><path fill="red" stroke="red" d="M51.26 81.79C48.82 81.79 48.38 81.43 48.38 79.20L48.38 59.76L67.61 59.76L67.61 53.28L39.46 53.28L39.46 40.03L62.28 40.03L62.28 33.62L39.46 33.62L39.46 23.11L32.69 23.11L32.69 33.62L21.46 33.62C22.39 30.96 23.18 28.30 23.90 25.85L17.06 24.55C15.48 31.82 11.95 41.47 7.13 47.38C8.78 48.02 11.45 49.46 13.03 50.54C15.26 47.59 17.21 43.92 18.94 40.03L32.69 40.03L32.69 53.28L4.61 53.28L4.61 59.76L22.46 59.76C21.24 70.49 18.29 79.20 3.53 83.74C5.04 85.18 6.91 87.84 7.70 89.64C24.05 83.66 27.94 73.08 29.52 59.76L41.62 59.76L41.62 79.20C41.62 85.97 43.34 88.13 50.47 88.13L59.83 88.13C65.95 88.13 67.75 85.18 68.40 74.16C66.67 73.66 63.79 72.58 62.35 71.42C62.06 80.35 61.63 81.79 59.26 81.79Z"/></svg>
