<svg xmlns="http://www.w3.org/2000/svg" xmlns:xlink="http://www.w3.org/1999/xlink" width="72.00000000000001" height="106.56000000000002"><path fill="red" stroke="red" d="M46.80 52.99L46.80 33.91L56.16 33.91L56.16 52.99ZM31.39 52.99L31.39 33.91L40.54 33.91L40.54 52.99ZM16.49 52.99L16.49 33.91L25.20 33.91L25.20 52.99ZM69.19 52.99L62.78 52.99L62.78 27.36L9.86 27.36L9.86 52.99L2.95 52.99L2.95 59.62L9.86 59.62L9.86 89.35L16.49 89.35L16.49 59.62L25.20 59.62L25.20 88.27L31.39 88.27L31.39 59.62L40.54 59.62L40.54 88.27L46.80 88.27L46.80 59.62L56.16 59.62L56.16 81.43C56.16 82.37 55.87 82.66 55.08 82.73C54.29 82.73 51.77 82.73 49.18 82.58C50.11 84.38 51.05 87.41 51.26 89.14C55.44 89.14 58.32 88.99 60.26 87.91C62.28 86.69 62.78 84.74 62.78 81.58L62.78 59.62L69.19 59.62Z"/></svg>
