<svg xmlns="http://www.w3.org/2000/svg" xmlns:xlink="http://www.w3.org/1999/xlink" width="72.00000000000001" height="106.56000000000002"><path fill="red" stroke="red" d="M20.02 37.15C17.21 34.49 11.30 30.67 6.98 28.22L3.02 33.05C7.42 35.86 13.18 39.89 15.84 42.70ZM15.05 54.86C11.38 62.50 6.41 71.14 2.95 76.25L8.71 80.35C12.53 74.09 16.85 66.10 20.23 58.97ZM35.06 40.97L33.91 41.18L20.16 41.18L20.16 47.66L31.82 47.66C29.23 60.12 23.76 70.78 16.56 75.89C18.00 77.11 19.94 79.78 20.88 81.36C30.31 73.87 36.65 60.26 39.10 42.05ZM62.14 36.79C59.47 40.75 55.22 45.50 51.34 49.39C49.82 45.07 48.67 40.54 47.74 35.86L47.74 23.18L40.90 23.18L40.90 80.57C40.90 81.79 40.46 82.15 39.31 82.15C38.23 82.15 34.63 82.15 30.74 82.08C31.82 83.88 33.05 87.19 33.41 89.06C38.66 89.06 42.34 88.78 44.64 87.55C46.87 86.40 47.74 84.38 47.74 80.57L47.74 53.71C51.55 65.52 57.10 75.24 65.59 80.93C66.67 79.13 68.90 76.39 70.42 75.17C63.00 71.06 57.60 64.01 53.71 55.30C58.18 51.19 63.72 45.58 67.97 40.32Z"/></svg>
