<svg xmlns="http://www.w3.org/2000/svg" xmlns:xlink="http://www.w3.org/1999/xlink" width="72.00000000000001" height="106.56000000000002"><path fill="red" stroke="red" d="M19.44 38.88C17.14 35.57 12.17 31.10 8.06 28.01L3.46 32.26C7.63 35.57 12.53 40.39 14.54 43.70ZM15.12 55.08C11.30 62.86 6.19 71.57 2.74 76.82L8.50 81.22C12.38 74.74 16.70 66.60 20.16 59.40ZM29.95 55.87L40.90 55.87L40.90 61.27L29.95 61.27ZM29.95 45.79L40.90 45.79L40.90 51.12L29.95 51.12ZM58.75 45.79L58.75 51.12L47.45 51.12L47.45 45.79ZM58.75 61.27L47.45 61.27L47.45 55.87L58.75 55.87ZM65.09 66.31L65.09 40.75L47.45 40.75L47.45 35.42L67.75 35.42L67.75 29.52L47.45 29.52L47.45 23.11L40.90 23.11L40.90 29.52L20.59 29.52L20.59 35.42L40.90 35.42L40.90 40.75L23.83 40.75L23.83 66.31L36.14 66.31C31.32 72.94 23.54 79.06 15.84 82.22C17.28 83.45 19.37 85.90 20.30 87.55C28.08 83.81 35.64 77.18 40.90 69.62L40.90 89.14L47.45 89.14L47.45 70.27C52.06 77.26 58.54 83.59 64.87 87.34C65.95 85.54 68.04 83.09 69.48 81.79C62.86 78.62 55.73 72.65 51.26 66.31Z"/></svg>
