<svg xmlns="http://www.w3.org/2000/svg" xmlns:xlink="http://www.w3.org/1999/xlink" width="72.00000000000001" height="106.56000000000002"><path fill="red" stroke="red" d="M31.97 48.74C30.74 54.58 28.94 59.76 26.57 64.37C23.26 61.42 18.43 57.67 14.33 54.65C15.26 52.78 16.13 50.76 16.92 48.74ZM4.39 33.12L15.05 33.12C12.67 43.56 8.86 53.06 3.38 59.33C4.75 60.70 6.84 63.72 7.63 65.16C8.86 63.65 10.01 61.99 11.16 60.34C15.19 63.43 19.80 67.32 22.90 70.34C18.29 76.82 12.31 81.36 5.40 84.10C6.84 85.39 8.57 87.98 9.43 89.71C25.13 82.58 35.78 68.47 39.31 43.63L35.14 42.34L33.91 42.55L19.15 42.55C20.09 39.53 21.02 36.29 21.74 33.12L41.04 33.12L41.04 26.71L4.39 26.71ZM51.91 31.10L45.29 31.10L45.29 71.50L51.91 71.50ZM60.05 23.62L60.05 81.00C60.05 82.15 59.62 82.51 58.39 82.58C57.31 82.58 53.50 82.58 49.68 82.51C50.54 84.24 51.55 87.19 51.84 88.92C57.53 88.99 61.20 88.78 63.50 87.70C65.88 86.69 66.74 84.89 66.74 80.93L66.74 23.62Z"/></svg>
