<svg xmlns="http://www.w3.org/2000/svg" xmlns:xlink="http://www.w3.org/1999/xlink" width="72.00000000000001" height="106.56000000000002"><path fill="red" stroke="red" d="M20.52 36.00C20.59 31.75 20.66 27.43 20.66 23.33L13.90 23.33C13.90 27.43 13.90 31.75 13.82 36.00L4.39 36.00L4.39 42.55L13.61 42.55C12.96 58.82 10.73 74.52 2.66 84.31C4.46 85.39 6.77 87.41 7.99 89.06C16.78 77.90 19.37 60.55 20.23 42.55L29.02 42.55C28.01 68.04 26.78 77.54 24.98 79.70C24.19 80.71 23.54 81.00 22.46 81.00C21.17 81.00 18.65 80.93 15.84 80.71C16.92 82.66 17.71 85.61 17.78 87.55C20.88 87.70 23.83 87.70 25.78 87.41C27.94 87.05 29.38 86.33 30.89 84.24C33.48 80.86 34.56 70.06 35.86 39.31C35.86 38.38 35.93 36.00 35.93 36.00ZM47.02 76.39L47.02 38.16L59.04 38.16L59.04 76.39ZM40.39 31.68L40.39 87.98L47.02 87.98L47.02 82.80L59.04 82.80L59.04 87.41L65.95 87.41L65.95 31.68Z"/></svg>
