<svg xmlns="http://www.w3.org/2000/svg" xmlns:xlink="http://www.w3.org/1999/xlink" width="72.00000000000001" height="106.56000000000002"><path fill="red" stroke="red" d="M66.67 32.18L24.26 32.18C25.49 30.10 26.50 27.94 27.50 25.85L20.74 23.54C16.63 32.83 9.72 41.62 2.30 47.16C3.74 48.53 6.05 51.77 6.98 53.35C8.42 52.13 9.79 50.83 11.23 49.46L11.23 78.91L51.48 78.91L51.48 47.16L45.22 47.16L45.22 72.58L17.28 72.58L17.28 47.30L13.25 47.30C15.70 44.71 18.00 41.76 20.16 38.66L59.83 38.66C59.18 68.11 58.32 79.20 56.38 81.65C55.58 82.66 54.86 82.94 53.57 82.94C51.84 82.94 48.10 82.87 43.92 82.51C45.00 84.38 45.79 87.05 45.94 88.85C49.90 88.99 54.07 89.14 56.66 88.78C59.26 88.42 60.98 87.62 62.57 85.32C65.16 81.79 65.88 70.13 66.67 35.64ZM43.99 64.73C41.98 62.35 38.95 59.47 35.57 56.59C37.87 52.85 39.96 48.74 41.54 44.57L35.86 43.20C34.56 46.58 32.98 49.90 31.03 52.99C28.15 50.76 25.27 48.67 22.54 46.94L18.65 50.69C21.60 52.78 24.84 55.22 27.94 57.67C25.20 61.49 22.03 64.80 18.65 67.46C20.09 68.18 22.61 69.98 23.76 70.85C26.71 68.26 29.59 65.02 32.33 61.42C35.35 64.15 38.02 66.96 39.82 69.19Z"/></svg>
