<svg xmlns="http://www.w3.org/2000/svg" xmlns:xlink="http://www.w3.org/1999/xlink" width="72.00000000000001" height="106.56000000000002"><path fill="red" stroke="red" d="M8.50 58.68C7.20 65.09 5.04 71.93 2.30 76.39C3.74 76.97 6.48 78.12 7.78 78.91C10.44 74.16 12.96 66.82 14.40 59.76ZM38.52 53.21L38.52 47.02L22.61 47.02L22.61 38.09L35.14 38.09L35.14 32.04L22.61 32.04L22.61 23.62L16.13 23.62L16.13 47.02L3.60 47.02L3.60 53.21L18.14 53.21L18.14 81.36C18.14 82.22 17.78 82.51 16.85 82.51C15.91 82.58 12.74 82.58 9.43 82.51C10.30 84.10 11.30 86.83 11.52 88.49C16.34 88.49 19.58 88.42 21.74 87.41C23.98 86.40 24.55 84.67 24.55 81.50L24.55 53.21ZM39.24 74.16C38.23 69.62 35.93 62.78 33.62 57.53L28.15 59.11C30.24 64.44 32.54 71.50 33.34 76.03ZM59.69 34.27C58.18 44.35 55.58 53.21 52.13 60.70C49.03 52.92 46.94 43.99 45.50 34.27ZM62.50 27.65L61.42 27.86L37.01 27.86L37.01 34.27L41.47 34.27L39.74 34.56C41.54 47.09 44.21 58.39 48.31 67.68C43.92 74.95 38.38 80.57 32.18 84.10C33.62 85.25 35.57 87.62 36.58 89.28C42.34 85.54 47.45 80.64 51.77 74.38C55.22 80.50 59.62 85.46 65.09 89.21C66.17 87.41 68.40 84.96 69.84 83.74C63.94 80.14 59.26 74.74 55.58 68.18C61.13 57.96 64.87 44.93 66.60 28.80Z"/></svg>
