<svg xmlns="http://www.w3.org/2000/svg" xmlns:xlink="http://www.w3.org/1999/xlink" width="72.00000000000001" height="106.56000000000002"><path fill="red" stroke="red" d="M38.16 55.15L38.16 69.41L22.61 69.41L22.61 55.15ZM44.86 75.46L44.86 49.10L16.13 49.10L16.13 80.50L22.61 80.50L22.61 75.46ZM24.12 33.19C25.20 30.53 26.35 27.72 27.29 24.84L20.38 23.18C16.70 34.92 10.30 46.22 2.52 53.14C4.18 54.22 7.13 56.66 8.28 57.82C12.96 53.14 17.28 46.87 20.95 39.82L59.04 39.82C58.18 67.61 57.02 78.98 54.58 81.43C53.71 82.37 52.78 82.66 51.26 82.66C49.32 82.66 44.57 82.66 39.38 82.22C40.68 84.24 41.69 87.26 41.76 89.21C46.44 89.42 51.26 89.57 54.00 89.21C57.02 88.85 58.90 88.06 60.77 85.54C63.94 81.79 64.94 69.84 66.02 36.65C66.02 35.71 66.10 33.19 66.10 33.19Z"/></svg>
