<svg xmlns="http://www.w3.org/2000/svg" xmlns:xlink="http://www.w3.org/1999/xlink" width="72.00000000000001" height="106.56000000000002"><path fill="red" stroke="red" d="M19.22 36.07L19.22 65.16L11.23 65.16L11.23 36.07ZM25.06 71.64L25.06 29.59L11.23 29.59L11.23 29.52L5.18 29.52L5.18 77.18L11.23 77.18L11.23 71.64ZM60.34 32.47L60.34 41.04L36.86 41.04L36.86 32.47ZM66.60 47.16L66.60 26.35L30.67 26.35L30.67 50.76C30.67 61.49 29.95 75.38 21.67 85.03C23.26 85.75 25.92 87.41 27.00 88.49C35.64 78.41 36.86 62.42 36.86 50.76L36.86 47.16ZM51.05 81.50C48.24 81.50 47.74 81.07 47.74 78.55L47.74 64.87L68.04 64.87L68.04 59.54L47.74 59.54L47.74 50.26L41.47 50.26L41.47 78.55C41.47 85.46 43.27 87.41 50.26 87.41L61.06 87.41C67.03 87.41 68.76 84.74 69.48 75.02C67.82 74.59 65.16 73.51 63.72 72.43C63.43 80.14 63.00 81.50 60.48 81.50Z"/></svg>
