<svg xmlns="http://www.w3.org/2000/svg" xmlns:xlink="http://www.w3.org/1999/xlink" width="72.00000000000001" height="106.56000000000002"><path fill="red" stroke="red" d="M18.43 64.22L11.52 64.22L11.52 35.86L18.43 35.86ZM36.79 23.18C34.13 33.05 29.81 42.70 24.48 49.32L24.48 29.66L5.40 29.66L5.40 77.04L11.52 77.04L11.52 70.42L24.48 70.42L24.48 51.98C25.56 53.50 26.78 55.44 27.29 56.45C28.94 54.50 30.38 52.42 31.90 50.11L31.90 89.14L38.09 89.14L38.09 38.09C39.96 33.84 41.54 29.23 42.91 24.70ZM69.05 38.23L63.65 38.23L63.65 23.98L57.24 23.98L57.24 38.23L40.54 38.23L40.54 44.42L57.24 44.42L57.24 81.14C57.24 82.37 56.81 82.73 55.66 82.73C54.58 82.73 50.90 82.73 46.94 82.66C47.81 84.31 48.82 87.12 49.10 88.85C54.79 88.85 58.32 88.63 60.55 87.62C62.71 86.62 63.65 84.82 63.65 81.14L63.65 44.42L69.05 44.42ZM53.42 67.46C52.13 62.71 49.39 55.58 46.94 50.11L41.40 52.06C43.78 57.60 46.44 64.94 47.59 69.62Z"/></svg>
