<svg xmlns="http://www.w3.org/2000/svg" xmlns:xlink="http://www.w3.org/1999/xlink" width="72.00000000000001" height="106.56000000000002"><path fill="red" stroke="red" d="M57.38 42.77L45.43 42.77L45.43 32.90L57.38 32.90ZM63.94 27.07L39.24 27.07L39.24 48.67L63.94 48.67ZM25.70 42.91L14.33 42.91L14.33 32.90L25.70 32.90ZM32.18 27.07L8.21 27.07L8.21 48.74L32.18 48.74ZM54.50 81.94C52.56 81.94 52.20 81.58 52.20 79.34L52.20 55.51L18.14 55.51L18.14 65.74C18.14 72.14 16.34 78.98 2.81 83.52C3.96 84.74 6.12 87.77 6.70 89.35C21.82 83.88 24.91 74.45 24.91 65.95L24.91 61.70L45.43 61.70L45.43 79.34C45.43 86.18 47.23 88.13 53.42 88.13L60.84 88.13C66.67 88.13 68.26 84.89 68.90 73.15C67.10 72.65 64.30 71.57 62.86 70.34C62.57 80.28 62.28 81.94 60.19 81.94Z"/></svg>
