<svg xmlns="http://www.w3.org/2000/svg" xmlns:xlink="http://www.w3.org/1999/xlink" width="72.00000000000001" height="106.56000000000002"><path fill="red" stroke="red" d="M38.02 70.27L38.02 76.32L18.94 76.32L18.94 70.27ZM44.64 81.43L44.64 65.16L12.31 65.16L12.31 84.17L18.94 84.17L18.94 81.43ZM68.04 54.72L59.26 54.72L59.26 32.04L66.60 32.04L66.60 26.35L5.69 26.35L5.69 32.04L52.34 32.04L52.34 54.72L4.03 54.72L4.03 60.55L53.21 60.55L53.21 81.79C53.21 82.73 52.85 82.94 51.70 83.02C50.62 83.02 46.44 83.02 42.62 82.94C43.56 84.60 44.64 87.34 44.93 89.21C50.40 89.21 54.22 89.14 56.81 88.13C59.47 87.19 60.26 85.46 60.26 81.94L60.26 60.55L68.04 60.55ZM39.24 46.15L18.65 46.15L18.65 40.32L39.24 40.32ZM12.82 35.71L12.82 50.76L45.29 50.76L45.29 35.71Z"/></svg>
