<svg xmlns="http://www.w3.org/2000/svg" xmlns:xlink="http://www.w3.org/1999/xlink" width="72.00000000000001" height="106.56000000000002"><path fill="red" stroke="red" d="M38.45 69.70L48.89 69.70L48.89 78.12L38.45 78.12ZM48.89 49.82L38.45 49.82L38.45 42.05L48.89 42.05ZM48.89 63.72L38.45 63.72L38.45 55.87L48.89 55.87ZM18.29 65.09L11.30 65.09L11.30 36.00L18.29 36.00ZM68.54 78.12L55.15 78.12L55.15 69.70L65.88 69.70L65.88 63.72L55.15 63.72L55.15 55.87L65.88 55.87L65.88 49.82L55.15 49.82L55.15 42.05L67.54 42.05L67.54 36.00L53.50 36.00L57.96 33.98C56.95 31.10 54.86 26.93 52.85 23.62L47.16 26.06C48.96 29.16 50.83 33.19 51.84 36.00L40.03 36.00C41.76 32.40 43.27 28.73 44.50 25.27L37.87 23.47C35.42 31.68 30.31 42.12 24.41 48.67L24.41 29.52L5.18 29.52L5.18 77.18L11.30 77.18L11.30 71.57L24.41 71.57L24.41 49.68C25.63 51.05 27.14 53.06 28.01 54.36C29.45 52.85 30.74 51.19 32.11 49.39L32.11 89.35L38.45 89.35L38.45 84.31L68.54 84.31Z"/></svg>
