<svg xmlns="http://www.w3.org/2000/svg" xmlns:xlink="http://www.w3.org/1999/xlink" width="72.00000000000001" height="106.56000000000002"><path fill="red" stroke="red" d="M15.77 35.14L15.77 64.37L10.58 64.37L10.58 35.14ZM21.02 28.66L5.33 28.66L5.33 77.76L10.58 77.76L10.58 70.85L21.02 70.85ZM37.30 25.56L36.50 25.78L24.62 25.78L24.62 89.14L29.88 89.14L29.88 31.54L34.92 31.54C33.98 36.72 32.83 42.70 31.46 48.82C34.99 55.58 36.36 59.69 36.36 63.65C36.36 66.02 36.07 68.40 35.21 69.19C34.85 69.55 34.27 69.70 33.55 69.70C32.83 69.70 31.82 69.70 30.74 69.62C31.61 71.14 32.04 73.30 32.04 74.88C33.41 74.88 34.78 74.88 35.86 74.74C37.08 74.52 38.09 74.09 38.95 73.37C40.82 71.78 41.62 68.11 41.62 63.94C41.62 59.54 40.10 54.79 36.50 48.10C38.30 40.82 40.03 33.55 41.33 27.58ZM52.13 45.72L52.13 64.73L47.52 64.73L47.52 45.72ZM56.81 70.63L56.81 39.74L43.06 39.74L43.06 75.38L47.52 75.38L47.52 70.63ZM68.98 26.35L42.05 26.35L42.05 32.76L60.48 32.76L60.48 80.93C60.48 82.01 60.12 82.37 59.04 82.37C58.03 82.37 54.50 82.44 50.83 82.30C51.62 83.95 52.63 86.98 52.85 88.63C57.67 88.63 61.06 88.49 63.07 87.41C65.23 86.40 65.81 84.24 65.81 81.00L65.81 32.76L68.98 32.76Z"/></svg>
