<svg xmlns="http://www.w3.org/2000/svg" xmlns:xlink="http://www.w3.org/1999/xlink" width="72.00000000000001" height="106.56000000000002"><path fill="red" stroke="red" d="M51.84 74.74L51.84 81.65L20.30 81.65L20.30 74.74ZM13.68 89.14L20.30 89.14L20.30 86.90L51.84 86.90L51.84 88.92L58.68 88.92L58.68 69.48L13.68 69.48ZM51.05 53.71C50.33 55.73 49.03 58.54 47.81 60.70L21.10 60.70L24.19 59.83C23.54 58.10 22.10 55.51 20.59 53.71ZM54.79 60.70C55.80 58.97 56.88 56.95 57.96 54.86L51.91 53.71L66.24 53.71L66.24 48.67L39.24 48.67L39.24 44.64L59.62 44.64L59.62 39.74L39.24 39.74L39.24 35.93L64.01 35.93L64.01 30.89L50.76 30.89C52.06 29.02 53.42 26.71 54.72 24.34L47.66 22.97C46.80 25.34 45.14 28.51 43.78 30.89L23.47 30.89L27.72 29.30C27.00 27.50 25.27 24.77 23.54 22.82L17.57 24.77C18.86 26.57 20.38 29.09 21.24 30.89L8.06 30.89L8.06 35.93L32.40 35.93L32.40 39.74L12.53 39.74L12.53 44.64L32.40 44.64L32.40 48.67L6.12 48.67L6.12 53.71L19.80 53.71L14.33 55.01C15.55 56.66 16.85 58.90 17.50 60.70L3.89 60.70L3.89 65.95L68.18 65.95L68.18 60.70Z"/></svg>
