<svg xmlns="http://www.w3.org/2000/svg" xmlns:xlink="http://www.w3.org/1999/xlink" width="72.00000000000001" height="106.56000000000002"><path fill="red" stroke="red" d="M63.22 23.76C53.86 25.42 38.16 26.57 25.13 27.00C25.70 28.37 26.35 30.60 26.50 32.04C39.53 31.82 55.44 30.82 65.88 28.94ZM37.58 49.39L31.61 49.39L31.61 44.28L37.58 44.28ZM42.62 44.28L48.82 44.28L48.82 49.39L42.62 49.39ZM60.19 49.39L53.86 49.39L53.86 44.28L60.19 44.28ZM26.42 53.78L65.52 53.78L65.52 39.89L60.41 39.89C61.78 37.73 63.29 35.28 64.73 32.90L58.82 31.10C57.89 33.70 56.09 37.15 54.50 39.89L45.86 39.89L49.97 38.52C49.54 36.58 48.02 33.62 46.51 31.39L41.54 32.98C42.98 35.14 44.21 37.94 44.71 39.89L32.40 39.89L36.65 38.30C36.14 36.58 34.78 33.91 33.19 31.90L28.44 33.62C29.74 35.57 31.03 38.09 31.54 39.89L26.42 39.89ZM16.70 35.86L16.70 64.22L10.73 64.22L10.73 35.86ZM22.18 29.66L5.40 29.66L5.40 77.04L10.73 77.04L10.73 70.42L22.18 70.42ZM39.74 59.76L39.74 62.57L30.67 62.57L30.67 59.76ZM30.67 68.90L30.67 66.17L39.74 66.17L39.74 68.90ZM35.14 75.02C36.00 76.39 36.94 77.90 37.73 79.42L30.67 81.72L30.67 72.58L45.07 72.58L45.07 56.09L25.34 56.09L25.34 79.49C25.34 82.87 23.62 84.82 22.54 85.68C23.47 86.54 24.91 88.63 25.42 89.86L25.42 89.78C26.64 88.78 28.58 87.98 40.03 83.74C40.97 85.46 41.62 87.19 42.12 88.49L46.87 86.33C45.36 82.80 42.34 77.33 39.60 73.15ZM68.62 61.49L64.08 61.49L64.08 55.22L58.61 55.22L58.61 61.49L46.94 61.49L46.94 66.60L58.61 66.60L58.61 83.45C58.61 84.17 58.39 84.38 57.60 84.38C56.81 84.46 54.22 84.46 51.48 84.38C52.27 85.82 53.14 87.98 53.35 89.50C57.24 89.50 59.90 89.35 61.78 88.49C63.58 87.62 64.08 86.26 64.08 83.52L64.08 66.60L68.62 66.60ZM57.02 78.05C56.30 75.38 54.14 71.50 51.91 68.69L47.81 70.49C49.90 73.37 51.98 77.40 52.70 79.99Z"/></svg>
