<svg xmlns="http://www.w3.org/2000/svg" xmlns:xlink="http://www.w3.org/1999/xlink" width="72.00000000000001" height="106.56000000000002"><path fill="red" stroke="red" d="M56.45 33.70L44.21 33.70L44.21 29.45L56.45 29.45ZM62.42 25.63L38.52 25.63L38.52 37.51L62.42 37.51ZM27.86 33.70L15.70 33.70L15.70 29.45L27.86 29.45ZM33.91 25.63L10.01 25.63L10.01 37.51L33.91 37.51ZM44.35 83.16L44.35 78.19L56.88 78.19L56.88 83.16ZM17.86 61.20L54.00 61.20L54.00 63.86L17.86 63.86ZM17.86 55.66L54.00 55.66L54.00 58.25L17.86 58.25ZM17.86 50.11L54.00 50.11L54.00 52.63L17.86 52.63ZM27.86 78.19L27.86 83.16L15.48 83.16L15.48 78.19ZM68.76 72.36C63.86 70.56 55.73 68.40 49.32 67.03L60.70 67.03L60.70 47.02L37.66 47.02L38.59 44.42L67.32 44.42L67.32 40.10L4.75 40.10L4.75 44.42L31.54 44.42C31.39 45.29 31.25 46.15 31.10 47.02L11.45 47.02L11.45 67.03L23.76 67.03C18.36 68.98 9.94 70.56 2.88 71.50C4.03 72.58 5.90 74.95 6.62 76.10C7.63 75.89 8.64 75.74 9.65 75.46L9.65 89.35L15.48 89.35L15.48 87.34L27.86 87.34L27.86 89.35L33.98 89.35L33.98 74.09L15.48 74.09C20.74 72.72 26.06 70.92 30.02 69.05L25.85 67.03L46.51 67.03L42.19 69.77C47.16 70.85 53.28 72.58 58.18 74.09L38.52 74.09L38.52 89.35L44.35 89.35L44.35 87.34L56.88 87.34L56.88 89.35L62.93 89.35L62.93 75.74L63.36 75.89Z"/></svg>
