<svg xmlns="http://www.w3.org/2000/svg" xmlns:xlink="http://www.w3.org/1999/xlink" width="72.00000000000001" height="106.56000000000002"><path fill="red" stroke="red" d="M48.74 48.38C47.66 52.56 46.22 56.38 44.28 59.83C43.42 55.80 42.70 50.90 42.19 45.72L56.45 45.72L56.45 40.75L52.06 40.75L55.22 37.44C53.64 35.86 50.47 33.91 47.88 32.69L44.78 35.78C47.38 37.08 50.47 39.10 51.91 40.75L41.76 40.75C41.62 38.52 41.47 36.14 41.40 33.84L35.86 33.84C36.00 36.14 36.14 38.45 36.29 40.75L15.62 40.75L15.62 45.72L36.72 45.72C37.44 53.35 38.52 60.34 40.25 65.81C38.95 67.46 37.51 68.98 35.93 70.34L35.78 65.88C28.01 67.10 20.16 68.33 14.90 69.05L15.62 74.09C21.38 73.08 28.66 71.71 35.71 70.56C33.98 72.00 32.11 73.30 30.17 74.45C31.25 75.38 33.19 77.54 33.91 78.55C37.08 76.54 39.96 74.09 42.48 71.35C44.21 74.52 46.37 76.61 49.03 77.33C53.21 78.98 56.23 76.18 57.24 67.97C56.09 67.32 54.07 65.88 52.99 64.80C52.56 69.26 51.91 72.22 51.05 71.93C49.18 71.57 47.59 69.62 46.37 66.53C49.68 61.70 52.34 56.02 54.07 49.46ZM29.09 59.54L22.32 59.54L22.32 53.35L29.09 53.35ZM17.86 49.54L17.86 63.36L33.77 63.36L33.77 49.54ZM12.31 80.21L12.31 32.33L59.40 32.33L59.40 80.21ZM5.98 26.28L5.98 89.42L12.31 89.42L12.31 86.26L59.40 86.26L59.40 89.42L66.02 89.42L66.02 26.28Z"/></svg>
