<svg xmlns="http://www.w3.org/2000/svg" xmlns:xlink="http://www.w3.org/1999/xlink" width="72.00000000000001" height="106.56000000000002"><path fill="red" stroke="red" d="M67.97 29.16L48.46 29.16C47.66 27.07 45.72 24.26 43.92 22.18L38.52 24.70C39.53 25.99 40.61 27.58 41.47 29.16L22.10 29.16L22.10 34.20L67.97 34.20ZM50.04 49.68L39.60 49.68L39.60 46.66L50.04 46.66ZM54.72 43.49L35.14 43.49L35.14 52.85L54.72 52.85ZM59.04 55.30L30.96 55.30L30.96 40.90L59.04 40.90ZM64.80 36.79L25.49 36.79L25.49 59.40L64.80 59.40ZM33.77 72.72L55.73 72.72L55.73 76.10L33.77 76.10ZM33.77 65.81L55.73 65.81L55.73 69.12L33.77 69.12ZM62.14 79.92L62.14 61.99L27.65 61.99L27.65 79.92ZM24.12 65.81L17.50 68.18L17.50 46.73L23.33 46.73L23.33 40.39L17.50 40.39L17.50 23.90L11.23 23.90L11.23 40.39L3.89 40.39L3.89 46.73L11.23 46.73L11.23 70.49C8.06 71.57 5.11 72.58 2.66 73.37L4.90 80.21C10.87 77.90 18.36 74.74 25.42 71.86ZM20.30 82.66L20.30 87.77L68.47 87.77L68.47 82.66Z"/></svg>
