<svg xmlns="http://www.w3.org/2000/svg" xmlns:xlink="http://www.w3.org/1999/xlink" width="72.00000000000001" height="106.56000000000002"><path fill="red" stroke="red" d="M68.04 27.86L49.54 27.86C49.10 26.21 48.24 24.34 47.45 22.75L40.90 24.05C41.40 25.20 41.90 26.50 42.34 27.86L23.40 27.86L23.40 33.12L68.04 33.12ZM59.54 46.44L53.57 46.44L53.57 40.54L59.54 40.54ZM48.67 46.44L42.84 46.44L42.84 40.54L48.67 40.54ZM38.02 46.44L32.33 46.44L32.33 40.54L38.02 40.54ZM65.59 36.36L26.57 36.36L26.57 50.62L65.59 50.62ZM48.67 64.01L48.67 52.27L42.55 52.27L42.55 64.01ZM26.28 68.04C30.46 66.60 35.35 65.02 40.03 63.29L39.24 59.11C33.70 60.91 28.44 62.57 24.55 63.65ZM25.20 55.15C29.45 56.16 35.14 57.89 38.23 58.97L39.82 54.86C36.72 53.93 30.96 52.42 26.78 51.55ZM64.15 51.05C60.91 52.06 55.08 53.93 51.55 54.43L52.70 57.96C56.38 57.60 61.78 56.74 65.74 55.51ZM21.89 63.00C20.09 63.79 18.29 64.58 16.49 65.30L16.49 46.37L22.54 46.37L22.54 40.03L16.49 40.03L16.49 23.98L10.15 23.98L10.15 40.03L3.82 40.03L3.82 46.37L10.15 46.37L10.15 67.90C7.27 69.12 4.68 70.06 2.52 70.85L5.04 77.33C10.51 74.95 17.14 71.86 23.33 68.76ZM64.22 66.82L64.51 66.96L66.60 63.00C63.43 61.70 57.60 59.98 53.42 58.90L51.19 62.50C55.08 63.58 60.12 65.30 63.36 66.53C60.77 68.90 56.74 71.78 53.21 73.94C51.26 71.93 49.68 69.55 48.53 67.10C48.96 66.74 49.32 66.38 49.75 66.02L43.13 64.51C38.66 68.11 30.67 71.64 20.23 73.94C21.53 75.02 23.18 77.33 23.90 78.77C26.57 77.98 29.16 77.18 31.54 76.32L31.54 79.06C31.54 82.08 30.24 83.59 29.23 84.38C30.10 85.46 31.46 87.91 31.82 89.28C32.98 88.42 34.99 87.62 47.52 83.45C47.38 82.22 47.23 79.85 47.30 78.34L37.44 81.29L37.44 73.87C39.89 72.79 42.05 71.57 44.06 70.27C48.17 78.84 55.08 85.03 64.73 87.91C65.59 86.26 67.39 83.74 68.76 82.58C64.37 81.50 60.48 79.78 57.24 77.40C60.77 75.38 64.80 72.79 68.04 70.13Z"/></svg>
