<svg xmlns="http://www.w3.org/2000/svg" xmlns:xlink="http://www.w3.org/1999/xlink" width="72.00000000000001" height="106.56000000000002"><path fill="red" stroke="red" d="M15.19 61.20C15.41 59.47 15.62 57.74 15.84 55.94L32.33 55.94C32.26 57.74 32.18 59.47 31.90 61.20ZM38.95 45.50L54.65 45.50L54.65 50.54L38.95 50.54ZM59.33 66.82C58.82 69.91 58.25 71.35 57.67 72.00C57.17 72.50 56.74 72.58 55.73 72.58C54.79 72.58 52.70 72.58 50.40 72.29C51.12 73.73 51.70 75.96 51.77 77.54C54.65 77.69 57.53 77.69 58.97 77.54C60.62 77.40 61.85 76.97 63.07 75.82C64.58 74.30 65.45 70.92 66.31 63.58C66.46 62.71 66.53 61.20 66.53 61.20L38.52 61.20C38.74 59.47 38.88 57.74 38.95 55.94L61.27 55.94L61.27 40.18L38.95 40.18L38.95 35.71L67.46 35.71L67.46 29.66L38.95 29.66L38.95 23.11L32.33 23.11L32.33 29.66L4.39 29.66L4.39 35.71L32.33 35.71L32.33 40.18L10.08 40.18L10.08 45.50L32.33 45.50L32.33 50.54L9.86 50.54C9.43 55.80 8.57 62.42 7.78 66.82L30.53 66.82C27.58 74.02 20.38 79.85 2.66 83.38C4.10 84.89 5.90 87.62 6.62 89.14C23.98 85.18 32.18 78.62 35.93 70.63C41.11 81.36 50.18 86.90 65.74 88.99C66.53 87.05 68.18 84.38 69.55 82.94C54.00 81.58 44.93 76.54 40.54 66.82Z"/></svg>
