<svg xmlns="http://www.w3.org/2000/svg" xmlns:xlink="http://www.w3.org/1999/xlink" width="72.00000000000001" height="106.56000000000002"><path fill="red" stroke="red" d="M49.39 35.50C47.02 39.02 43.78 41.62 39.67 43.70C34.63 42.41 29.45 41.18 24.19 40.10C25.42 38.66 26.78 37.15 28.08 35.50ZM65.52 51.05C60.55 49.39 54.36 47.52 47.38 45.65C51.19 43.06 54.36 39.74 56.74 35.50L66.67 35.50L66.67 30.24L59.18 30.24C59.54 29.30 59.90 28.37 60.19 27.36L53.14 26.57C52.85 27.86 52.49 29.09 52.06 30.24L32.04 30.24C33.41 28.30 34.70 26.35 35.78 24.48L29.16 22.68C27.86 25.06 26.14 27.72 24.34 30.24L4.97 30.24L4.97 35.50L20.30 35.50C18.00 38.23 15.70 40.75 13.68 42.91C19.58 44.14 25.34 45.43 30.89 46.80C23.83 48.53 15.34 49.25 5.62 49.46C6.70 50.90 8.14 53.64 8.57 55.15C21.24 54.36 31.97 52.85 40.46 49.32C48.10 51.41 54.79 53.57 59.76 55.51ZM26.06 65.66C25.34 68.69 23.90 71.86 20.88 74.88C18.58 73.73 16.34 72.65 14.11 71.78C15.12 70.06 16.13 68.26 17.21 66.24ZM34.63 82.51C32.40 81.00 29.38 79.20 26.06 77.47C29.66 73.44 31.18 69.12 31.82 65.23L34.99 65.02L34.99 60.05L32.26 60.19L32.26 59.90L32.26 57.67L26.71 57.67L26.71 59.69L26.71 60.48L19.80 60.91C20.52 59.47 21.17 57.96 21.67 56.52L15.84 55.51C15.12 57.31 14.33 59.33 13.32 61.34C9.58 61.56 6.12 61.70 3.24 61.85L3.82 67.10L10.51 66.67C9.07 69.34 7.49 71.86 6.12 73.80C9.43 75.17 13.03 76.75 16.49 78.55C13.25 80.71 8.93 82.80 3.31 84.60C4.46 85.75 5.98 87.70 6.70 89.06C13.32 86.83 18.22 84.17 21.89 81.36C25.13 83.09 28.08 84.89 30.24 86.40ZM57.60 65.88C56.30 69.62 54.36 72.65 51.84 75.10C49.32 73.94 46.80 72.72 44.28 71.64C45.29 69.91 46.30 67.90 47.16 65.88ZM69.05 84.89C66.02 82.80 61.85 80.42 57.38 78.05C60.41 74.74 62.64 70.85 64.15 65.88L68.83 65.88L68.83 60.55L65.52 60.55C65.66 59.76 65.81 58.97 65.95 58.25L59.47 57.82C59.33 58.75 59.18 59.62 59.04 60.55L49.68 60.55C50.40 58.82 51.05 56.95 51.70 55.30L45.86 54.29C45.22 56.23 44.35 58.39 43.42 60.55L36.29 60.55L36.29 65.88L40.90 65.88C39.46 68.83 37.87 71.57 36.43 73.80C39.89 75.17 43.56 76.90 47.16 78.70C43.56 80.86 39.17 82.37 33.77 83.52C34.92 84.74 36.65 87.34 37.22 88.78C43.56 87.05 48.82 84.89 53.06 81.72C57.53 84.31 61.63 86.76 64.58 88.85Z"/></svg>
