<svg xmlns="http://www.w3.org/2000/svg" xmlns:xlink="http://www.w3.org/1999/xlink" width="72.00000000000001" height="106.56000000000002"><path fill="red" stroke="red" d="M42.34 63.94L42.34 59.04L48.31 59.04L48.31 63.94ZM42.34 49.18L48.31 49.18L48.31 53.78L42.34 53.78ZM42.34 39.46L48.31 39.46L48.31 43.92L42.34 43.92ZM18.50 44.06C18.43 50.47 17.86 58.10 15.26 65.66C13.54 63.94 11.95 62.35 10.30 60.77C11.23 56.02 12.24 50.26 13.10 44.42ZM59.62 49.18L59.62 53.78L54.07 53.78L54.07 49.18ZM59.62 63.94L54.07 63.94L54.07 59.04L59.62 59.04ZM64.94 69.19L64.94 59.04L68.54 59.04L68.54 53.78L64.94 53.78L64.94 43.92L54.07 43.92L54.07 39.46L67.46 39.46L67.46 34.20L55.08 34.20C56.95 31.61 59.11 28.58 61.06 25.78L54.58 23.18C53.14 26.42 50.69 30.96 48.60 34.20L38.23 34.20L42.12 32.26C40.90 29.81 38.38 25.99 36.36 23.26L31.10 25.70C32.83 28.37 34.92 31.75 36.14 34.20L26.86 34.20L26.86 37.58L24.34 37.73L24.34 33.19L18.50 33.19L18.50 38.09L13.82 38.30C14.47 33.19 14.98 28.22 15.34 23.69L9.29 23.47C9.07 28.15 8.57 33.34 7.92 38.59C6.05 38.66 4.25 38.74 2.66 38.81L3.31 45.00L7.13 44.78C6.12 51.41 5.04 57.74 3.96 62.50C6.70 65.16 9.79 68.40 12.67 71.57C10.37 76.25 6.98 80.86 2.30 84.96C3.74 85.82 5.90 87.91 6.84 89.21C11.30 85.32 14.54 81.00 17.06 76.54C18.79 78.55 20.23 80.50 21.31 82.08L25.34 77.04C23.98 75.17 22.10 72.86 19.94 70.56C23.54 61.20 24.26 51.55 24.34 43.63L27.29 43.42L27.29 39.46L36.65 39.46L36.65 43.92L28.30 43.92L28.30 49.18L36.65 49.18L36.65 53.78L25.92 53.78L25.92 59.04L36.65 59.04L36.65 63.94L28.01 63.94L28.01 69.19L34.42 69.19C31.25 74.74 26.78 80.06 22.39 83.02C23.69 84.17 25.63 86.33 26.57 87.77C30.24 84.89 33.77 80.42 36.65 75.38L36.65 89.06L42.34 89.06L42.34 69.19L48.31 69.19L48.31 89.06L54.07 89.06L54.07 74.95C57.24 79.92 61.20 84.53 64.94 87.34C65.88 85.82 67.75 83.81 69.12 82.66C64.58 79.78 59.62 74.52 56.23 69.19Z"/></svg>
