<svg xmlns="http://www.w3.org/2000/svg" xmlns:xlink="http://www.w3.org/1999/xlink" width="72.00000000000001" height="106.56000000000002"><path fill="red" stroke="red" d="M42.55 32.04C41.83 35.86 40.97 39.67 40.18 42.55L59.11 42.55C58.61 49.32 57.96 52.13 57.24 52.99C56.74 53.57 56.23 53.71 55.37 53.71C54.79 53.71 53.86 53.71 52.63 53.64L53.64 52.70L49.46 49.39L48.02 49.75L20.88 49.75C24.48 44.50 26.21 38.45 27.07 32.04ZM68.40 66.17L39.31 66.17L39.31 63.14C43.63 60.77 47.88 57.82 51.41 54.72C51.91 56.09 52.27 57.82 52.34 59.18C54.86 59.26 57.24 59.18 58.61 59.04C60.26 58.82 61.42 58.32 62.57 57.10C64.22 55.22 64.94 50.69 65.74 39.46C65.81 38.59 65.88 37.01 65.88 37.01L47.88 37.01C48.67 33.55 49.39 29.66 50.04 26.21L7.06 26.21L7.06 32.04L20.30 32.04C18.94 41.33 15.62 50.33 3.67 55.22C5.18 56.38 6.98 58.75 7.70 60.34C12.82 57.96 16.56 55.08 19.37 51.70L19.37 55.51L41.26 55.51C38.59 57.53 35.50 59.54 32.62 60.91L32.62 66.17L3.53 66.17L3.53 72.22L32.62 72.22L32.62 82.30C32.62 83.23 32.26 83.52 31.10 83.52C29.95 83.59 25.78 83.59 21.74 83.45C22.68 85.10 23.69 87.77 23.98 89.64C29.66 89.64 33.48 89.50 36.00 88.56C38.59 87.62 39.31 85.90 39.31 82.44L39.31 72.22L68.40 72.22Z"/></svg>
