<svg xmlns="http://www.w3.org/2000/svg" xmlns:xlink="http://www.w3.org/1999/xlink" width="72.00000000000001" height="106.56000000000002"><path fill="red" stroke="red" d="M29.23 60.05L28.44 54.07L20.09 56.45L20.09 46.22C23.54 41.47 27.07 35.57 29.59 30.38L25.34 27.29L23.98 27.65L4.46 27.65L4.46 33.84L20.38 33.84C18.43 38.09 15.84 42.77 13.54 45.94L13.54 58.25C9.43 59.40 5.69 60.48 2.74 61.20L4.10 68.04C6.91 67.10 10.15 66.10 13.54 65.09L13.54 81.79C13.54 82.73 13.18 83.02 12.10 83.09C11.09 83.16 7.70 83.16 4.10 83.02C5.04 84.60 6.12 87.26 6.41 88.92C11.45 88.92 14.76 88.85 17.06 87.77C19.30 86.90 20.09 85.18 20.09 81.86L20.09 62.93ZM60.34 56.81C54.43 68.54 41.33 78.70 25.06 83.88C26.21 85.25 28.08 87.77 28.87 89.42C37.44 86.47 45.07 82.22 51.48 77.18C56.02 81.07 60.91 85.82 63.50 88.99L68.69 84.67C65.88 81.50 60.62 76.90 56.09 73.15C60.48 68.98 64.15 64.22 67.03 59.11ZM53.93 32.33C53.50 29.66 51.70 25.70 49.97 22.68L43.63 24.62C44.86 27.00 46.08 29.95 46.73 32.33L29.16 32.33L29.16 38.45L41.83 38.45C39.67 42.41 36.43 47.95 35.28 49.25C34.06 50.69 31.90 51.19 30.31 51.55C30.89 52.99 31.82 56.09 32.11 57.67C33.41 57.10 35.64 56.74 46.51 55.87C41.33 61.06 34.78 65.59 27.72 68.69C28.87 69.84 30.67 72.36 31.46 73.73C44.64 67.61 55.80 57.02 62.21 45.50L55.94 43.42C54.79 45.65 53.42 47.95 51.70 50.11L41.76 50.62C43.92 46.94 46.58 42.12 48.74 38.45L69.05 38.45L69.05 32.33Z"/></svg>
