<svg xmlns="http://www.w3.org/2000/svg" xmlns:xlink="http://www.w3.org/1999/xlink" width="72.00000000000001" height="106.56000000000002"><path fill="red" stroke="red" d="M12.53 37.30L59.26 37.30L59.26 47.45L66.10 47.45L66.10 30.96L40.90 30.96C40.03 28.51 38.38 25.13 36.86 22.46L30.24 24.41C31.25 26.42 32.40 28.87 33.12 30.96L5.98 30.96L5.98 47.45L12.53 47.45ZM39.38 68.11L59.98 68.11L59.98 61.85L39.38 61.85L39.38 51.41L56.38 51.41L56.38 45.07L15.84 45.07L15.84 51.41L32.47 51.41L32.47 78.84C27.43 76.61 23.40 72.79 20.81 66.02C21.53 63.22 22.03 60.12 22.46 56.95L15.70 56.23C14.26 68.90 10.58 78.98 2.74 84.89C4.25 85.90 7.06 88.20 8.06 89.42C12.53 85.54 15.91 80.42 18.29 74.30C24.84 85.75 35.14 88.13 49.32 88.13L66.53 88.13C66.82 86.11 67.90 82.94 68.98 81.36C64.87 81.43 52.85 81.43 49.68 81.43C46.01 81.43 42.55 81.29 39.38 80.71Z"/></svg>
