<svg xmlns="http://www.w3.org/2000/svg" xmlns:xlink="http://www.w3.org/1999/xlink" width="72.00000000000001" height="106.56000000000002"><path fill="red" stroke="red" d="M54.94 72.50C45.79 79.27 25.85 83.95 7.63 84.38C8.64 85.82 9.65 87.84 10.15 89.35C28.30 88.27 48.46 83.16 58.75 75.67ZM46.44 66.96C39.60 71.86 25.06 75.60 12.17 76.10C13.25 77.40 14.26 79.42 14.83 80.71C27.72 79.49 42.62 75.31 50.18 69.62ZM38.38 61.70C33.84 65.23 24.05 68.04 15.48 68.76C16.56 69.77 17.78 71.71 18.22 72.86C27.00 71.71 36.94 68.18 42.05 64.08ZM54.07 47.66C48.24 49.03 42.70 50.47 38.59 51.34L39.46 53.78L35.93 52.13C35.21 52.92 34.27 53.71 33.26 54.36C33.41 53.78 33.48 53.06 33.48 52.20L33.48 36.86L12.10 36.86L12.10 33.05L60.48 33.05L60.48 36.86L37.73 36.86L37.73 41.69L42.55 41.69L40.39 43.92C42.98 45.29 46.44 47.30 48.24 48.53L51.19 45.22C49.68 44.14 47.02 42.84 44.78 41.69L55.94 41.69L55.94 52.78C55.94 53.50 55.73 53.71 54.94 53.71C54.14 53.78 51.62 53.78 49.10 53.71C49.75 54.94 50.40 56.59 50.76 57.96C54.79 58.03 57.53 58.03 59.33 57.31C61.20 56.52 61.70 55.37 61.70 52.85L61.70 40.25L67.61 40.25L67.61 27.50L40.61 27.50C39.82 25.78 38.81 23.90 38.02 22.32L30.67 23.69C31.25 24.84 31.90 26.14 32.33 27.50L5.26 27.50L5.26 40.25L9.22 40.25L9.22 41.69L14.47 41.69L12.10 44.14C14.76 45.50 18.14 47.38 19.94 48.67L22.82 45.36C21.31 44.28 18.50 42.84 16.13 41.69L27.79 41.69L27.79 52.13C27.79 52.85 27.50 53.06 26.78 53.06C25.99 53.06 23.47 53.06 21.02 52.99C21.53 54.36 21.89 55.87 21.96 57.31C24.70 57.31 26.86 57.31 28.58 57.17C21.82 60.48 12.67 62.64 3.31 63.86C4.46 65.30 5.76 67.32 6.34 68.90C17.57 67.03 28.30 63.79 35.71 58.82C46.51 65.23 57.02 67.18 65.81 68.54C66.38 66.67 67.90 64.44 69.19 63.14C60.62 62.28 50.33 60.84 40.39 55.94C44.64 54.58 49.39 52.85 54.43 51.12ZM25.78 46.94C19.44 49.10 13.10 51.41 8.71 52.70L10.66 57.24C15.41 55.15 20.88 52.78 26.35 50.26Z"/></svg>
