<svg xmlns="http://www.w3.org/2000/svg" xmlns:xlink="http://www.w3.org/1999/xlink" width="72.00000000000001" height="106.56000000000002"><path fill="red" stroke="red" d="M24.19 74.52C20.81 77.54 14.47 80.57 9.14 82.08C10.44 83.23 12.38 85.54 13.32 86.98C18.79 84.96 25.34 80.64 29.09 76.61ZM42.26 78.55C47.45 80.93 54.07 84.74 57.31 87.26L61.20 82.94C57.74 80.42 51.05 76.82 45.94 74.66ZM39.17 68.26L39.17 62.50L32.76 62.50L32.76 68.26L19.22 68.26C22.54 65.88 25.63 63.22 28.08 60.55L44.71 60.55C47.23 63.14 50.40 65.81 53.71 68.26ZM29.88 51.62L42.62 51.62L42.62 55.30L29.88 55.30ZM29.88 43.85L42.62 43.85L42.62 47.38L29.88 47.38ZM11.95 39.31L11.95 34.20L59.90 34.20L59.90 39.31L49.03 39.31L49.03 35.64L42.62 35.64L42.62 39.31L29.88 39.31L29.88 35.57L23.54 35.57L23.54 39.31ZM67.61 60.55L67.61 55.30L49.03 55.30L49.03 51.62L58.90 51.62L58.90 47.38L49.03 47.38L49.03 43.85L59.98 43.85L59.98 41.47L66.24 41.47L66.24 28.73L40.10 28.73C39.24 26.78 38.02 24.48 37.01 22.68L30.17 24.55C30.89 25.85 31.54 27.29 32.18 28.73L5.90 28.73L5.90 41.47L11.66 41.47L11.66 43.85L23.54 43.85L23.54 47.38L13.10 47.38L13.10 51.62L23.54 51.62L23.54 55.30L4.61 55.30L4.61 60.55L20.38 60.55C15.48 64.66 8.50 68.62 2.59 70.78C4.03 71.93 5.90 74.16 6.84 75.53C10.08 74.16 13.68 72.07 17.14 69.77L17.14 73.51L32.76 73.51L32.76 89.21L39.17 89.21L39.17 73.51L54.94 73.51L54.94 69.12C58.32 71.57 61.63 73.73 64.66 75.24C65.59 73.73 67.61 71.42 68.98 70.34C63.65 68.11 57.10 64.44 52.27 60.55Z"/></svg>
