<svg xmlns="http://www.w3.org/2000/svg" xmlns:xlink="http://www.w3.org/1999/xlink" width="72.00000000000001" height="106.56000000000002"><path fill="red" stroke="red" d="M14.76 56.09L27.36 56.09L27.36 59.62C23.04 60.05 18.79 60.48 14.76 60.84ZM27.36 36.29L27.36 41.40L14.76 41.40L14.76 36.29ZM27.36 51.12L14.76 51.12L14.76 46.30L27.36 46.30ZM33.55 57.17L33.55 31.10L21.89 31.10C22.90 29.02 23.98 26.42 24.98 23.90L18.14 23.04C17.64 25.42 16.70 28.58 15.77 31.10L8.86 31.10L8.86 61.34C6.70 61.56 4.68 61.70 2.88 61.85L3.53 67.18C9.79 66.53 17.93 65.74 26.14 64.80C19.08 70.78 10.37 76.03 2.30 79.49C3.31 80.86 4.68 83.88 5.26 85.18C12.60 81.65 20.45 76.68 27.36 70.99L27.36 82.15C27.36 83.23 27.00 83.52 25.99 83.59C25.06 83.66 21.67 83.66 18.29 83.52C19.15 84.96 20.09 87.70 20.45 89.28C25.34 89.28 28.66 89.14 30.82 88.13C32.83 87.19 33.55 85.46 33.55 82.22L33.55 65.45C35.50 63.43 37.37 61.42 38.95 59.33L33.84 56.81ZM68.76 39.10L61.42 39.10L61.42 23.47L55.08 23.47L55.08 39.10L36.86 39.10L36.86 45.65L55.08 45.65L55.08 81.22C55.08 82.51 54.58 82.87 53.35 82.94C52.13 82.94 48.02 83.02 43.70 82.80C44.71 84.53 45.65 87.41 45.94 89.14C51.91 89.21 55.80 88.99 58.18 87.91C60.48 86.98 61.42 85.10 61.42 81.22L61.42 45.65L68.76 45.65ZM53.35 67.54C51.98 62.86 48.60 56.02 44.93 50.90L39.67 53.14C43.13 58.39 46.51 65.45 47.74 70.06Z"/></svg>
