<svg xmlns="http://www.w3.org/2000/svg" xmlns:xlink="http://www.w3.org/1999/xlink" width="72.00000000000001" height="106.56000000000002"><path fill="red" stroke="red" d="M55.37 43.13L33.55 43.13L33.55 40.32L55.37 40.32ZM55.37 49.10L33.55 49.10L33.55 46.30L55.37 46.30ZM55.37 55.22L33.55 55.22L33.55 52.27L55.37 52.27ZM27.36 37.08L27.36 58.46L61.85 58.46L61.85 37.08L45.43 37.08C45.86 36.14 46.37 35.14 46.87 34.06L67.32 34.06L67.32 29.30L56.16 29.30C57.17 27.72 58.39 26.06 59.54 24.12L53.21 23.04C52.49 24.77 51.05 27.36 49.82 29.30L40.03 29.30C39.31 27.43 37.80 24.77 36.29 22.82L30.96 24.26C31.97 25.78 32.98 27.65 33.77 29.30L22.61 29.30L22.61 34.06L40.54 34.06C40.18 35.06 39.82 36.07 39.46 37.08ZM7.42 67.32C10.22 63.72 13.46 60.26 15.34 60.26C16.92 60.26 18.94 61.99 21.67 63.43C26.35 65.88 32.54 66.46 40.97 66.46C48.38 66.46 61.27 66.10 67.61 65.66C67.68 64.01 68.62 61.20 69.34 59.54C61.70 60.48 49.54 61.06 41.04 61.06C33.41 61.06 27.07 60.77 22.61 58.39C20.16 57.10 18.65 56.02 17.28 55.44C19.51 52.06 21.46 47.95 22.68 43.85L19.44 42.55L18.50 42.84L14.40 42.84C16.13 39.60 18.07 35.86 19.73 32.47L10.37 32.47L15.84 30.53C15.12 28.51 13.82 25.42 12.74 23.11L7.27 24.77C8.14 27.29 9.50 30.53 10.08 32.54L3.46 32.54L3.46 37.51L10.94 37.51C9.14 41.18 7.13 44.93 5.40 47.81L15.26 47.81C13.75 51.34 11.74 54.94 9.50 57.31L9.58 57.38C7.63 58.61 5.62 60.26 3.74 62.06ZM53.21 66.60L46.80 66.60L46.80 69.91L4.03 69.91L4.03 75.17L19.44 75.17L15.77 78.19C19.37 80.50 23.83 84.17 25.78 86.62L30.67 82.44C28.66 80.28 24.91 77.33 21.53 75.17L46.80 75.17L46.80 82.80C46.80 83.66 46.44 83.88 45.29 83.95C44.21 84.02 40.18 84.02 36.07 83.88C37.01 85.46 37.94 87.91 38.23 89.64C43.85 89.64 47.59 89.57 50.04 88.70C52.63 87.77 53.21 86.11 53.21 82.87L53.21 75.17L67.75 75.17L67.75 69.91L53.21 69.91Z"/></svg>
