<svg xmlns="http://www.w3.org/2000/svg" xmlns:xlink="http://www.w3.org/1999/xlink" width="72.00000000000001" height="106.56000000000002"><path fill="red" stroke="red" d="M32.62 24.12L32.62 80.35C32.62 81.79 32.11 82.22 30.60 82.30C29.09 82.37 23.83 82.37 18.94 82.15C20.02 84.10 21.17 87.26 21.60 89.14C28.44 89.21 33.05 88.99 35.93 87.91C38.74 86.76 39.89 84.82 39.89 80.35L39.89 24.12ZM49.82 42.48C55.66 52.85 61.34 66.24 62.86 74.74L70.13 71.86C68.33 63.14 62.42 50.04 56.30 40.03ZM13.97 40.61C12.31 50.11 8.50 62.50 2.45 69.98C4.25 70.63 7.20 72.29 8.86 73.51C15.12 65.52 19.15 52.49 21.53 41.98Z"/></svg>
