<svg xmlns="http://www.w3.org/2000/svg" xmlns:xlink="http://www.w3.org/1999/xlink" width="72.00000000000001" height="106.56000000000002"><path fill="red" stroke="red" d="M66.89 36.65C65.52 33.70 62.28 29.30 59.40 26.14L55.01 28.66C57.82 32.04 60.91 36.65 62.21 39.67ZM36.50 31.61L25.27 31.61C24.48 29.09 22.97 25.63 21.67 22.97L15.55 24.34C16.56 26.50 17.64 29.30 18.36 31.61L3.96 31.61L3.96 37.51L36.50 37.51ZM9.58 63.50C8.35 69.48 6.19 75.53 3.24 79.63C4.61 80.35 6.91 81.94 7.99 82.80C10.94 78.34 13.54 71.42 15.19 64.73ZM13.32 47.66L27.65 47.66L27.65 55.22L13.32 55.22ZM33.77 60.48L33.77 42.41L7.49 42.41L7.49 60.48L18.00 60.48L18.00 82.37C18.00 83.09 17.78 83.30 16.99 83.30C16.27 83.30 13.97 83.30 11.59 83.23C12.38 84.74 13.25 87.19 13.46 88.78C17.21 88.78 19.73 88.70 21.67 87.77C23.54 86.90 23.98 85.25 23.98 82.51L23.98 60.48ZM26.06 64.87C28.30 68.83 30.38 74.09 31.10 77.62L36.22 75.31C35.35 71.86 33.12 66.60 30.82 62.71ZM59.26 82.58C58.68 82.58 58.18 82.44 57.82 82.22C57.46 81.94 57.38 81.07 57.38 79.70L57.38 52.27L51.91 52.27C52.06 50.69 52.27 49.10 52.42 47.52L68.62 47.52L68.62 41.47L52.78 41.47C53.14 35.28 53.21 29.09 53.28 23.26L46.94 23.26C46.94 29.09 46.94 35.28 46.58 41.47L37.37 41.47L37.37 47.52L46.22 47.52C45.00 62.14 41.47 76.25 31.39 85.18C33.12 86.18 35.14 87.98 36.22 89.28C45.43 80.71 49.61 68.11 51.55 54.72L51.55 79.20C51.55 83.95 52.06 85.25 53.21 86.26C54.43 87.26 56.30 87.70 57.89 87.70L62.42 87.70C63.72 87.70 65.52 87.48 66.60 86.90C67.75 86.33 68.54 85.32 69.12 83.81C69.55 82.30 69.84 78.55 69.98 75.24C68.18 74.66 65.95 73.58 64.73 72.43C64.73 76.10 64.66 78.98 64.44 80.28C64.22 81.43 63.94 82.08 63.50 82.22C63.14 82.51 62.50 82.58 61.78 82.58Z"/></svg>
