<svg xmlns="http://www.w3.org/2000/svg" xmlns:xlink="http://www.w3.org/1999/xlink" width="72.00000000000001" height="106.56000000000002"><path fill="red" stroke="red" d="M68.47 39.96L68.47 34.06L44.14 34.06C45.36 31.03 46.44 27.79 47.38 24.62L40.90 23.11C38.59 31.97 34.63 40.68 29.59 46.51L29.59 34.99L24.55 34.99L24.55 72.94L20.30 72.94L20.30 23.98L14.33 23.98L14.33 72.94L10.08 72.94L10.08 35.14L5.18 35.14L5.18 78.77L24.55 78.77L24.55 81.86L29.59 81.86L29.59 46.80C31.18 47.81 33.70 49.68 34.85 50.62C37.15 47.66 39.38 44.06 41.47 39.96ZM45.00 81.50C42.41 81.50 40.82 80.93 40.82 79.20C40.82 76.90 42.41 73.44 63.79 52.20C64.08 51.77 64.44 51.26 64.58 50.76L60.19 48.82L58.54 48.96L36.43 48.96L36.43 54.86L51.70 54.86C34.70 72.72 33.84 76.68 33.84 80.21C33.84 85.10 37.22 88.13 45.07 88.13L59.40 88.13C65.81 88.13 68.33 85.97 69.05 74.02C67.18 73.58 64.87 72.79 63.14 71.71C62.86 80.42 62.06 81.58 59.69 81.58Z"/></svg>
