<svg xmlns="http://www.w3.org/2000/svg" xmlns:xlink="http://www.w3.org/1999/xlink" width="72.00000000000001" height="106.56000000000002"><path fill="red" stroke="red" d="M19.22 56.45L19.22 78.05L52.70 78.05L52.70 56.45L46.73 56.45L46.73 72.43L38.81 72.43L38.81 51.84L56.88 51.84L56.88 46.30L46.01 46.30C48.02 42.98 50.18 39.02 52.06 35.28L45.50 33.70C44.21 37.37 41.83 42.55 39.74 46.30L25.92 46.30L30.96 44.28C29.95 41.47 27.79 37.15 25.92 33.84L20.52 35.64C22.18 39.02 24.26 43.42 25.27 46.30L15.84 46.30L15.84 51.84L32.69 51.84L32.69 72.43L24.98 72.43L24.98 56.45ZM66.02 26.71L6.34 26.71L6.34 89.21L12.82 89.21L12.82 33.05L59.47 33.05L59.47 81.29C59.47 82.58 58.97 82.94 57.82 83.02C56.66 83.02 52.70 83.09 48.82 82.94C49.68 84.38 50.69 86.90 50.98 88.56C56.88 88.56 60.48 88.42 62.86 87.41C65.16 86.54 66.02 84.89 66.02 81.36Z"/></svg>
