<svg xmlns="http://www.w3.org/2000/svg" xmlns:xlink="http://www.w3.org/1999/xlink" width="72.00000000000001" height="106.56000000000002"><path fill="red" stroke="red" d="M69.19 41.54C67.54 36.29 62.78 29.02 58.32 23.90L53.06 26.42C57.53 31.82 61.99 39.24 63.58 44.50ZM41.69 80.50L41.69 67.75L57.17 67.75L57.17 80.50ZM38.52 61.85C42.77 57.53 46.44 52.42 49.39 46.66C52.42 52.78 55.87 57.60 59.90 61.85ZM47.52 35.71C43.92 45.72 37.66 54.65 30.24 60.48L30.24 41.69C31.61 42.55 34.06 44.35 35.14 45.36C39.10 40.61 43.63 33.12 46.80 26.28L40.75 24.41C38.23 30.38 34.13 36.94 30.24 41.33L30.24 35.28L25.20 35.28L25.20 72.94L20.30 72.94L20.30 24.34L14.47 24.34L14.47 72.94L9.94 72.94L9.94 35.21L5.11 35.21L5.11 78.77L25.20 78.77L25.20 81.86L30.24 81.86L30.24 64.51C31.10 65.52 31.82 66.46 32.40 67.25C33.55 66.38 34.63 65.52 35.78 64.51L35.78 89.21L41.69 89.21L41.69 86.54L57.17 86.54L57.17 88.99L63.36 88.99L63.36 65.16C64.22 65.88 65.09 66.53 65.88 67.25C66.82 65.45 68.69 63.36 70.27 61.99C62.71 56.59 57.02 50.11 52.49 39.82C52.78 39.10 52.99 38.45 53.28 37.73Z"/></svg>
