<svg xmlns="http://www.w3.org/2000/svg" xmlns:xlink="http://www.w3.org/1999/xlink" width="72.00000000000001" height="106.56000000000002"><path fill="red" stroke="red" d="M68.76 51.05C68.11 48.17 66.53 43.34 65.02 39.74L61.13 40.68C61.70 42.19 62.35 43.85 62.86 45.50L55.94 46.15C59.83 41.90 63.72 36.43 67.10 30.82L62.78 29.02C61.70 30.96 60.48 32.98 59.26 34.85L54.00 35.06C56.30 32.26 58.54 28.66 60.41 25.06L55.80 23.47C54.00 27.86 50.76 32.47 49.82 33.55C48.89 34.70 48.02 35.50 47.02 35.71C47.52 36.86 48.31 39.10 48.60 40.18C49.39 39.74 50.76 39.53 56.23 39.10C54.36 41.47 52.85 43.34 52.06 44.14C50.47 46.01 49.10 47.16 47.81 47.38C48.31 48.60 49.03 50.76 49.25 51.70C50.47 51.12 52.34 50.76 64.01 49.46C64.22 50.47 64.44 51.48 64.58 52.34ZM60.55 64.66C60.55 61.70 60.05 57.10 59.18 53.50L55.30 54.22C56.09 57.96 56.52 62.57 56.45 65.59ZM49.32 53.64C48.82 57.46 47.95 61.49 46.66 64.51C47.66 64.94 49.54 65.88 50.40 66.46C51.70 63.36 52.85 58.68 53.50 54.58ZM47.09 28.73L39.53 28.73C38.95 26.93 37.94 24.70 36.86 23.11L31.61 24.12C32.40 25.56 33.05 27.14 33.62 28.73L24.77 28.73L24.77 33.34L47.09 33.34ZM45.65 44.06L25.92 44.06L25.92 48.02L45.65 48.02ZM31.03 55.30L40.46 55.30L40.46 60.70L31.03 60.70ZM45.58 64.66L45.58 51.26L26.14 51.26L26.14 64.66ZM45.79 36.65L25.92 36.65L25.92 40.68L45.79 40.68ZM25.06 50.98C24.48 48.10 22.97 43.20 21.46 39.60L17.57 40.54C18.14 42.05 18.72 43.70 19.22 45.43L12.31 46.01C16.27 41.76 20.23 36.36 23.69 30.96L19.15 28.94C18.14 30.89 16.85 32.90 15.62 34.78L10.44 35.06C12.67 32.26 14.90 28.66 16.70 24.98L12.10 23.40C10.37 27.79 7.20 32.33 6.19 33.34C5.33 34.56 4.39 35.35 3.53 35.50C4.03 36.72 4.75 38.95 5.04 39.96C5.83 39.60 7.27 39.38 12.67 38.88C10.87 41.26 9.29 43.20 8.50 43.99C6.98 45.72 5.62 46.94 4.32 47.16C4.90 48.31 5.62 50.62 5.83 51.55C6.98 51.05 8.86 50.62 20.23 49.25C20.52 50.40 20.81 51.41 20.95 52.27ZM24.55 62.93C24.05 60.19 22.90 55.87 21.82 52.63L18.22 53.71C19.22 57.02 20.38 61.34 20.81 64.08ZM16.85 64.87C16.85 61.85 16.27 57.24 15.62 53.71L11.81 54.36C12.46 57.96 12.89 62.64 12.89 65.66ZM5.83 53.57C5.26 57.38 4.39 61.49 3.17 64.66C4.18 65.16 6.05 66.10 6.84 66.74C7.99 63.58 9.29 58.68 10.01 54.58ZM55.73 80.50L39.31 80.50L39.31 67.18L32.90 67.18L32.90 80.50L15.84 80.50L15.84 68.40L9.50 68.40L9.50 86.33L55.73 86.33L55.73 88.63L62.42 88.63L62.42 68.40L55.73 68.40ZM62.06 53.78C63.00 57.10 64.22 61.42 64.66 64.30L68.76 63.00C68.18 60.26 67.03 55.94 66.02 52.63Z"/></svg>
