<svg xmlns="http://www.w3.org/2000/svg" xmlns:xlink="http://www.w3.org/1999/xlink" width="72.00000000000001" height="106.56000000000002"><path fill="red" stroke="red" d="M59.26 59.18L39.17 59.18L39.17 53.21L32.47 53.21L32.47 59.18L13.18 59.18L13.18 83.38L19.66 83.38L19.66 65.16L32.47 65.16L32.47 89.06L39.17 89.06L39.17 65.16L52.70 65.16L52.70 76.54C52.70 77.33 52.34 77.54 51.34 77.54C50.40 77.62 46.94 77.69 43.42 77.54C44.28 79.27 45.07 81.86 45.36 83.66C50.47 83.66 53.93 83.66 56.30 82.58C58.61 81.65 59.26 79.78 59.26 76.61ZM47.59 36.22C46.66 39.02 45.00 42.84 43.70 45.43L24.55 45.43L28.51 44.28C28.01 42.05 26.50 38.74 24.77 36.22ZM50.76 45.43C51.98 43.06 53.42 40.18 54.65 37.37L50.11 36.22L64.66 36.22L64.66 30.31L39.89 30.31C39.31 27.86 38.45 24.98 37.51 22.61L30.82 24.19C31.46 25.99 32.11 28.22 32.62 30.31L7.42 30.31L7.42 36.22L22.18 36.22L18.00 37.30C19.58 39.67 21.02 43.06 21.60 45.43L5.47 45.43L5.47 60.41L12.02 60.41L12.02 51.41L59.62 51.41L59.62 60.41L66.53 60.41L66.53 45.43Z"/></svg>
