<svg xmlns="http://www.w3.org/2000/svg" xmlns:xlink="http://www.w3.org/1999/xlink" width="72.00000000000001" height="106.56000000000002"><path fill="red" stroke="red" d="M44.42 73.15L44.42 68.18L54.14 68.18L54.14 73.15ZM29.38 73.15L29.38 68.18L38.59 68.18L38.59 73.15ZM29.38 59.54L38.59 59.54L38.59 63.86L29.38 63.86ZM54.14 63.86L44.42 63.86L44.42 59.54L54.14 59.54ZM49.54 47.23C50.98 49.90 52.63 52.56 54.50 54.94L44.42 54.94L44.42 49.46L38.59 49.46L38.59 54.94L30.24 54.94C32.18 52.63 33.91 49.97 35.42 47.23ZM67.90 47.23L67.90 41.62L38.09 41.62C38.81 39.96 39.38 38.23 39.96 36.50L33.70 35.21C33.05 37.44 32.18 39.60 31.25 41.62L16.92 41.62L16.92 47.23L28.15 47.23C24.70 52.70 20.02 57.10 14.33 60.26C14.47 57.31 14.54 54.58 14.54 52.06L14.54 34.99L68.04 34.99L68.04 29.09L43.13 29.09C42.26 27.00 40.97 24.48 39.96 22.54L33.19 24.34C33.91 25.78 34.63 27.43 35.28 29.09L7.92 29.09L7.92 52.06C7.92 62.06 7.49 75.74 2.52 85.32C4.03 86.04 6.91 88.06 8.06 89.28C12.31 81.58 13.82 70.78 14.33 61.20C15.62 62.42 17.35 64.51 18.07 65.59C20.02 64.44 21.82 63.07 23.62 61.70L23.62 81.50L29.38 81.50L29.38 77.76L38.59 77.76L38.59 79.27C38.59 86.54 40.61 88.92 47.52 88.92L58.54 88.92C60.98 88.92 63.58 88.78 64.73 88.42C64.51 87.12 64.22 84.46 64.08 82.87C62.71 83.23 60.34 83.38 58.61 83.38L47.38 83.38C45.07 83.38 44.42 82.37 44.42 79.42L44.42 77.76L60.05 77.76L60.05 60.98C61.85 62.50 63.58 63.94 65.38 65.02C66.38 63.43 68.40 61.20 69.77 60.05C64.66 57.31 59.54 52.56 56.02 47.23Z"/></svg>
