<svg xmlns="http://www.w3.org/2000/svg" xmlns:xlink="http://www.w3.org/1999/xlink" width="72.00000000000001" height="106.56000000000002"><path fill="red" stroke="red" d="M32.76 54.29L32.76 62.06L16.49 62.06C16.99 59.62 17.57 56.95 18.07 54.29ZM39.38 39.96L56.16 39.96L56.16 48.17L39.38 48.17ZM39.38 62.06L39.38 54.29L63.00 54.29L63.00 33.91L51.34 33.91C53.06 31.25 54.86 27.94 56.59 24.84L49.25 22.97C48.10 26.28 46.15 30.67 44.28 33.91L24.91 33.91L27.65 32.98C26.71 30.31 24.34 26.14 22.25 23.18L16.13 25.13C17.78 27.86 19.73 31.32 20.74 33.91L8.28 33.91L8.28 39.96L32.76 39.96L32.76 48.17L12.53 48.17C11.45 54.65 9.79 62.86 8.21 68.18L28.58 68.18C22.46 74.23 13.18 79.34 4.10 82.01C5.69 83.52 7.78 86.11 8.86 87.91C17.42 84.82 26.21 79.56 32.76 73.08L32.76 89.21L39.38 89.21L39.38 68.18L59.26 68.18C58.61 74.88 57.89 77.83 56.95 78.84C56.30 79.42 55.58 79.49 54.29 79.49C52.92 79.49 49.54 79.49 46.01 79.13C47.16 80.93 47.88 83.45 47.95 85.39C51.84 85.61 55.44 85.61 57.46 85.39C59.62 85.25 61.13 84.74 62.57 83.23C64.51 81.22 65.45 76.25 66.31 64.73C66.46 63.79 66.53 62.06 66.53 62.06Z"/></svg>
