<svg xmlns="http://www.w3.org/2000/svg" xmlns:xlink="http://www.w3.org/1999/xlink" width="72.00000000000001" height="106.56000000000002"><path fill="red" stroke="red" d="M60.19 24.41C56.38 30.10 49.39 35.93 43.42 39.31C45.00 40.54 47.02 42.41 48.17 43.78C54.72 39.74 61.78 33.48 66.46 26.86ZM61.92 43.49C57.60 49.39 49.46 55.44 42.77 59.04C44.50 60.26 46.44 62.35 47.52 63.79C54.79 59.54 62.78 52.99 68.11 46.08ZM30.46 33.55C29.88 35.28 28.80 37.73 27.86 39.60L18.58 39.60L19.80 39.24C19.37 37.73 18.29 35.35 17.28 33.55ZM43.42 39.60L33.77 39.60C34.70 38.09 35.78 36.29 36.79 34.49L32.26 33.55L42.12 33.55L42.12 28.37L27.36 28.37C26.71 26.57 25.56 24.26 24.41 22.54L19.08 24.48C19.80 25.63 20.52 27.00 21.10 28.37L5.18 28.37L5.18 33.55L16.27 33.55L11.81 34.70C12.67 36.14 13.39 38.09 13.82 39.60L3.10 39.60L3.10 44.86L43.42 44.86ZM14.47 60.34L33.12 60.34L33.12 64.44L14.47 64.44ZM14.47 52.42L33.12 52.42L33.12 56.38L14.47 56.38ZM42.05 78.48L42.05 73.08L26.86 73.08L26.86 68.69L39.53 68.69L39.53 48.17L8.35 48.17L8.35 68.69L20.52 68.69L20.52 73.08L4.75 73.08L4.75 78.48L20.52 78.48L20.52 89.28L26.86 89.28L26.86 78.48ZM63.14 63.29C58.39 71.57 49.18 78.84 39.89 82.94C41.47 84.38 43.49 86.69 44.57 88.27C54.58 83.23 63.79 75.17 69.48 65.74Z"/></svg>
