<svg xmlns="http://www.w3.org/2000/svg" xmlns:xlink="http://www.w3.org/1999/xlink" width="72.00000000000001" height="106.56000000000002"><path fill="red" stroke="red" d="M17.50 23.33C14.54 28.22 8.64 34.13 3.31 37.73C4.32 39.02 6.05 41.69 6.77 43.27C13.03 38.95 19.66 32.11 23.90 25.78ZM19.15 39.02C15.12 46.22 8.50 53.42 2.38 58.03C3.53 59.62 5.18 63.29 5.76 64.80C7.92 63.00 10.22 60.91 12.38 58.61L12.38 89.21L19.22 89.21L19.22 50.40C21.38 47.45 23.40 44.42 25.06 41.40ZM50.04 80.64L50.04 63.94L64.73 63.94L64.73 57.53L50.04 57.53L50.04 42.98L66.96 42.98L66.96 36.65L45.14 36.65L51.48 34.27C50.40 31.18 47.81 26.42 45.50 22.82L39.38 24.98C41.62 28.66 43.99 33.55 44.93 36.65L25.56 36.65L25.56 42.98L43.06 42.98L43.06 57.53L28.01 57.53L28.01 63.94L43.06 63.94L43.06 80.64L23.47 80.64L23.47 87.05L68.83 87.05L68.83 80.64Z"/></svg>
