<svg xmlns="http://www.w3.org/2000/svg" xmlns:xlink="http://www.w3.org/1999/xlink" width="72.00000000000001" height="106.56000000000002"><path fill="red" stroke="red" d="M7.63 57.38C9.36 52.06 10.58 43.70 10.94 37.73L5.76 37.01C5.33 42.77 4.03 50.69 2.30 55.51ZM28.58 48.31C27.86 44.86 25.56 39.24 23.47 34.85L19.08 36.50L19.08 23.11L12.60 23.11L12.60 89.14L19.08 89.14L19.08 37.30C21.02 41.69 22.90 47.09 23.62 50.54ZM51.62 80.21L51.62 59.11L66.60 59.11L66.60 52.99L51.62 52.99L51.62 34.63L67.90 34.63L67.90 28.44L27.65 28.44L27.65 34.63L44.93 34.63L44.93 80.21L36.94 80.21L36.94 47.09L30.53 47.09L30.53 80.21L23.18 80.21L23.18 86.47L69.12 86.47L69.12 80.21Z"/></svg>
