<svg xmlns="http://www.w3.org/2000/svg" xmlns:xlink="http://www.w3.org/1999/xlink" width="72.00000000000001" height="106.56000000000002"><path fill="red" stroke="red" d="M6.34 57.38C9.00 52.42 10.01 44.21 10.01 37.58L5.69 37.01C5.54 43.27 4.39 51.05 2.09 55.51ZM26.64 48.74C26.14 45.14 24.12 39.38 21.96 34.92L18.29 36.22L18.29 23.11L12.02 23.11L12.02 89.14L18.29 89.14L18.29 37.15C20.23 41.62 21.82 47.09 22.32 50.54ZM58.18 80.71C59.83 70.27 61.78 54.29 63.07 41.90L40.68 41.90C41.18 38.95 41.62 36.14 42.05 33.41L67.97 33.41L67.97 27.22L24.77 27.22L24.77 33.41L35.42 33.41C33.70 45.50 30.60 61.13 28.22 70.56L34.85 71.06C36.29 65.09 38.02 56.52 39.60 47.88L55.66 47.88C54.50 58.90 52.70 71.71 51.05 80.71L22.68 80.71L22.68 86.90L69.05 86.90L69.05 80.71ZM51.34 70.49C48.96 68.26 44.35 65.23 40.54 63.36L37.30 67.32C41.04 69.48 45.72 72.72 47.95 74.95ZM53.14 56.95C50.83 55.22 46.30 52.92 42.77 51.48L39.89 55.80C43.49 57.31 48.02 59.90 50.18 61.78Z"/></svg>
