<svg xmlns="http://www.w3.org/2000/svg" xmlns:xlink="http://www.w3.org/1999/xlink" width="72.00000000000001" height="106.56000000000002"><path fill="red" stroke="red" d="M7.49 57.17C9.14 51.84 10.37 43.49 10.73 37.66L6.05 37.01C5.62 42.77 4.32 50.69 2.66 55.51ZM18.22 36.36L18.22 23.18L11.66 23.18L11.66 89.14L18.22 89.14L18.22 38.88C19.94 43.06 21.53 47.81 22.25 50.90L26.93 48.67C25.99 45.22 23.69 39.46 21.60 34.92ZM59.18 80.35L36.43 80.35L36.43 68.33L59.18 68.33ZM68.54 51.19L68.54 44.86L51.48 44.86L51.48 34.85L65.74 34.85L65.74 28.58L30.53 28.58L30.53 34.85L44.64 34.85L44.64 44.86L27.86 44.86L27.86 51.19L44.64 51.19L44.64 62.21L29.81 62.21L29.81 89.14L36.43 89.14L36.43 86.47L59.18 86.47L59.18 88.85L66.10 88.85L66.10 62.21L51.48 62.21L51.48 51.19Z"/></svg>
