<svg xmlns="http://www.w3.org/2000/svg" xmlns:xlink="http://www.w3.org/1999/xlink" width="72.00000000000001" height="106.56000000000002"><path fill="red" stroke="red" d="M17.78 64.01C15.84 68.98 12.38 74.81 8.28 78.41L13.82 81.72C18.00 77.76 21.10 71.57 23.33 66.31ZM28.30 81.86C28.30 82.73 28.08 83.02 27.00 83.02C25.99 83.09 22.68 83.09 19.15 82.94C19.94 84.67 20.81 87.34 21.10 89.21C25.99 89.21 29.45 89.14 31.75 88.06C34.06 87.12 34.70 85.32 34.70 82.01L34.70 57.89L28.30 57.89ZM37.73 66.17C39.67 70.99 41.47 77.33 41.90 81.58L47.66 80.21C47.09 75.96 45.36 69.77 43.20 64.94ZM46.94 64.30C51.12 69.62 55.51 77.11 57.31 81.94L63.07 79.34C61.13 74.45 56.66 67.39 52.42 62.06ZM27.79 37.51L43.85 37.51L43.85 45.86L27.79 45.86ZM67.90 51.98L67.90 45.86L50.54 45.86L50.54 37.51L63.14 37.51L63.14 31.32L50.54 31.32L50.54 22.97L43.85 22.97L43.85 31.32L27.79 31.32L27.79 22.97L21.17 22.97L21.17 31.32L8.78 31.32L8.78 37.51L21.17 37.51L21.17 45.86L4.32 45.86L4.32 51.98L19.44 51.98C15.34 57.46 9.00 61.92 2.09 64.87C3.60 66.02 5.98 68.62 6.98 69.98C14.90 66.02 22.54 59.76 27.29 51.98L44.78 51.98C49.46 59.47 57.10 66.02 65.30 69.34C66.24 67.68 68.18 65.23 69.62 64.01C62.86 61.70 56.16 57.17 51.84 51.98Z"/></svg>
