<svg xmlns="http://www.w3.org/2000/svg" xmlns:xlink="http://www.w3.org/1999/xlink" width="72.00000000000001" height="106.56000000000002"><path fill="red" stroke="red" d="M7.49 57.38C9.29 52.06 10.51 43.70 10.87 37.73L5.76 37.01C5.26 42.91 3.96 50.83 2.16 55.51ZM12.46 23.11L12.46 89.14L18.79 89.14L18.79 23.11ZM28.58 48.31C27.86 44.78 25.56 39.17 23.40 34.78L18.79 36.65C20.81 41.18 22.97 46.94 23.69 50.62ZM36.50 41.98L57.53 41.98L57.53 47.59L36.50 47.59ZM36.50 31.61L57.53 31.61L57.53 37.15L36.50 37.15ZM38.59 58.82C39.82 56.88 40.90 54.79 41.76 52.78L64.08 52.78L64.08 26.42L30.24 26.42L30.24 52.78L35.28 52.78C32.26 58.75 27.36 64.87 21.46 68.98C22.82 69.84 24.84 71.93 25.85 73.08C29.02 70.63 31.97 67.75 34.63 64.51L39.74 64.51C36.43 70.92 31.03 77.11 24.62 81.29C25.92 82.22 27.86 84.17 28.73 85.25C36.00 80.21 42.05 72.72 45.79 64.51L51.05 64.51C48.38 72.65 43.42 80.21 37.08 85.10C38.30 85.97 40.39 87.98 41.33 89.14C48.46 83.23 53.86 74.38 56.88 64.51L60.70 64.51C59.76 76.54 58.82 81.36 57.53 82.73C56.88 83.45 56.30 83.59 55.22 83.59C54.14 83.59 51.70 83.59 48.89 83.23C49.82 84.89 50.47 87.34 50.54 89.06C53.64 89.21 56.52 89.21 58.25 89.06C60.19 88.78 61.56 88.27 62.78 86.76C64.87 84.46 66.02 77.98 67.18 61.42C67.32 60.62 67.39 58.82 67.39 58.82Z"/></svg>
