<svg xmlns="http://www.w3.org/2000/svg" xmlns:xlink="http://www.w3.org/1999/xlink" width="72.00000000000001" height="106.56000000000002"><path fill="red" stroke="red" d="M54.79 40.61L54.79 44.64L38.95 44.64L38.95 40.61ZM54.79 52.78L38.95 52.78L38.95 48.67L54.79 48.67ZM38.95 61.92L38.95 56.95L49.03 56.95L45.72 59.40C47.30 60.05 48.89 60.84 50.54 61.78ZM16.34 52.78L16.34 48.67L32.04 48.67L32.04 52.78ZM16.34 40.61L32.04 40.61L32.04 44.64L16.34 44.64ZM32.04 36.43L10.01 36.43L10.01 56.95L32.04 56.95L32.04 61.92C21.89 61.99 12.53 62.06 5.54 61.99L5.83 67.68C13.25 67.61 22.90 67.54 33.26 67.32L29.30 70.63C33.48 72.94 38.38 76.54 40.68 79.13L45.22 75.17C42.84 72.65 38.16 69.48 34.06 67.32C41.90 67.18 50.18 67.03 58.25 66.82C59.76 68.11 61.27 69.26 62.35 70.42L66.89 66.74C63.72 63.65 57.67 59.69 52.13 56.95L61.42 56.95L61.42 36.43L38.95 36.43L38.95 32.40L66.38 32.40L66.38 27.07L38.95 27.07L38.95 23.18L32.04 23.18L32.04 27.07L5.47 27.07L5.47 32.40L32.04 32.40ZM9.29 87.12C12.17 83.45 14.47 77.69 15.98 73.15L10.22 70.78C8.86 75.17 6.41 80.50 3.53 83.88ZM30.60 82.66C26.28 82.66 25.49 82.37 25.49 80.42L25.49 71.21L18.86 71.21L18.86 80.50C18.86 86.54 21.17 88.20 30.10 88.20L45.36 88.20C52.20 88.20 54.14 86.26 55.01 78.12C53.28 77.76 50.62 76.90 49.18 75.89C48.82 81.79 48.17 82.66 44.78 82.66ZM53.71 72.94C56.95 77.33 60.26 83.09 61.42 86.83L67.54 84.67C66.31 80.86 62.86 75.17 59.47 70.99Z"/></svg>
