<svg xmlns="http://www.w3.org/2000/svg" xmlns:xlink="http://www.w3.org/1999/xlink" width="72.00000000000001" height="106.56000000000002"><path fill="red" stroke="red" d="M9.58 86.18C12.02 81.94 14.54 75.46 16.34 70.78L10.44 68.47C8.78 73.15 6.12 79.34 3.38 83.45ZM30.74 82.22C26.28 82.22 25.49 81.86 25.49 79.85L25.49 68.40L18.79 68.40L18.79 79.92C18.79 86.18 21.10 87.91 30.17 87.91L45.36 87.91C52.70 87.91 54.72 85.75 55.66 76.68C53.78 76.39 50.98 75.38 49.46 74.38C49.10 81.14 48.46 82.22 44.93 82.22ZM53.86 69.48C56.95 74.30 59.98 80.78 60.98 84.96L67.46 82.51C66.38 78.26 63.07 72.00 59.90 67.25ZM30.53 59.62L30.53 49.32L16.13 49.32L16.13 41.83L30.53 41.83L30.53 31.82L40.82 31.82L40.82 41.83L55.73 41.83L55.73 49.32L40.82 49.32L40.82 59.62ZM47.30 59.62L47.30 54.43L62.14 54.43L62.14 36.72L47.30 36.72L47.30 31.82L66.96 31.82L66.96 26.14L5.26 26.14L5.26 31.82L24.19 31.82L24.19 36.72L10.01 36.72L10.01 54.43L24.12 54.43L24.12 59.62L4.25 59.62L4.25 65.38L33.84 65.38L30.02 67.46C33.55 70.85 37.58 75.74 39.17 78.84L44.78 75.82C43.06 72.79 39.38 68.62 36.00 65.38L67.75 65.38L67.75 59.62Z"/></svg>
