<svg xmlns="http://www.w3.org/2000/svg" xmlns:xlink="http://www.w3.org/1999/xlink" width="72.00000000000001" height="106.56000000000002"><path fill="red" stroke="red" d="M7.06 57.31C9.00 52.06 10.15 43.78 10.30 37.73L5.54 37.08C5.26 42.98 4.10 50.90 2.23 55.58ZM32.18 69.77C32.26 68.18 32.26 66.60 32.26 65.23L32.26 64.87L41.04 64.87L41.04 69.77ZM41.04 55.22L41.04 59.98L32.26 59.98L32.26 55.22ZM46.08 49.97L27.00 49.97L27.00 65.09C27.00 71.50 26.64 79.85 22.97 86.04C24.26 86.54 26.50 88.20 27.43 89.28C29.95 85.10 31.10 79.85 31.75 74.74L41.04 74.74L41.04 82.94C41.04 83.66 40.82 83.81 40.18 83.88C39.53 83.88 37.51 83.88 35.35 83.81C36.07 85.25 36.65 87.48 36.86 88.85C40.10 88.85 42.48 88.85 43.99 87.91C45.72 87.05 46.08 85.54 46.08 83.02ZM60.05 82.51C60.05 83.30 59.83 83.59 58.90 83.59C58.03 83.66 55.22 83.66 52.06 83.52C52.78 85.10 53.50 87.41 53.64 88.85C57.96 88.85 60.91 88.78 62.64 87.84C64.66 87.05 65.16 85.39 65.16 82.51L65.16 48.82L60.05 48.82ZM55.30 51.55L50.33 51.55L50.33 77.47L55.30 77.47ZM34.49 40.75C38.45 38.16 42.41 34.92 45.72 31.39C49.18 34.78 53.50 38.09 57.82 40.75ZM45.36 22.75C40.75 29.52 31.68 36.07 23.04 39.46C22.54 37.80 21.89 36.07 21.31 34.56L17.28 35.86L17.28 23.18L11.16 23.18L11.16 89.21L17.28 89.21L17.28 37.22C18.86 41.69 20.30 47.09 20.88 50.47L25.63 48.53C25.27 46.51 24.48 43.70 23.54 40.82C24.70 42.05 26.06 43.70 26.78 44.86C28.37 44.21 30.02 43.42 31.54 42.48L31.54 46.01L58.75 46.01L58.75 41.33C60.91 42.62 63.14 43.78 65.23 44.71C66.24 43.20 68.11 40.90 69.48 39.74C62.50 37.15 54.22 32.11 49.32 27.14C49.82 26.42 50.33 25.70 50.83 24.98Z"/></svg>
