<svg xmlns="http://www.w3.org/2000/svg" xmlns:xlink="http://www.w3.org/1999/xlink" width="72.00000000000001" height="106.56000000000002"><path fill="red" stroke="red" d="M32.04 24.48C30.82 26.93 28.44 30.53 26.71 32.76L30.82 34.92C32.62 32.90 34.78 29.88 36.65 26.86ZM17.28 32.62C16.20 30.46 13.90 27.43 11.74 25.27L7.49 27.36C9.58 29.74 11.95 32.83 12.89 34.92ZM8.78 87.12C12.24 83.30 14.90 77.40 16.78 72.65L11.23 70.20C9.58 74.81 6.70 80.28 3.31 83.74ZM14.83 43.27C14.18 47.88 13.18 52.78 11.66 56.30C12.60 56.74 14.26 57.46 14.98 57.96C16.34 54.36 17.64 48.96 18.36 44.06ZM24.41 65.74L24.41 40.82L32.18 40.82L32.18 59.26C32.18 59.90 31.97 60.12 31.39 60.12C30.82 60.12 29.02 60.12 27.00 60.05C27.65 61.34 28.37 63.22 28.58 64.66C31.68 64.66 33.84 64.58 35.35 63.79C36.94 62.93 37.30 61.70 37.30 59.40L37.30 43.99C38.38 45.22 39.46 46.73 40.03 47.59C42.41 44.71 44.64 41.11 46.73 37.15L57.96 37.15C57.17 40.68 56.09 43.85 54.58 46.66C52.34 44.71 50.04 42.70 47.95 41.04L43.85 44.42C46.30 46.51 49.03 48.96 51.62 51.41C48.31 55.66 43.85 58.90 38.30 61.20C39.38 62.42 41.11 65.02 41.69 66.31C47.45 63.58 52.20 60.05 55.80 55.51C59.47 59.18 62.71 62.86 64.73 65.66L69.34 61.70C66.96 58.61 63.22 54.65 58.97 50.69C61.20 46.80 62.86 42.34 64.01 37.15L68.47 37.15L68.47 31.90L49.39 31.90C50.40 29.59 51.34 27.14 52.20 24.84L46.73 23.04C44.64 29.81 41.18 36.50 37.30 41.40L37.30 35.78L24.84 35.78L24.84 23.11L19.08 23.11L19.08 35.78L6.62 35.78L6.62 66.10L11.66 66.10L11.66 40.82L19.44 40.82L19.44 65.74ZM29.59 68.54C33.55 70.85 38.66 74.45 41.11 76.90L45.36 72.94C42.77 70.56 37.58 67.25 33.62 65.02ZM25.56 44.06C26.64 47.59 27.72 52.13 28.08 55.15L31.39 54.22C31.03 51.26 29.88 46.73 28.73 43.27ZM31.32 82.37C27.00 82.37 26.35 82.01 26.35 80.06L26.35 69.41L20.09 69.41L20.09 80.14C20.09 86.33 22.25 87.98 30.82 87.98L45.72 87.98C52.56 87.98 54.43 85.90 55.22 77.04C53.57 76.61 50.98 75.67 49.54 74.66C49.18 81.36 48.60 82.37 45.22 82.37ZM52.70 70.56C56.30 74.95 60.77 81.00 62.78 84.74L68.69 81.72C66.60 77.90 61.85 72.22 58.25 68.04Z"/></svg>
