<svg xmlns="http://www.w3.org/2000/svg" xmlns:xlink="http://www.w3.org/1999/xlink" width="72.00000000000001" height="106.56000000000002"><path fill="red" stroke="red" d="M12.17 32.76L59.69 32.76L59.69 40.03L66.17 40.03L66.17 28.08L39.74 28.08C39.31 26.28 38.52 24.05 37.58 22.39L31.46 24.12C31.97 25.34 32.54 26.71 32.90 28.08L5.98 28.08L5.98 40.03L12.17 40.03ZM54.14 66.10L45.58 66.10L45.58 60.98L54.14 60.98ZM39.89 66.10L31.46 66.10L31.46 60.98L39.89 60.98ZM25.85 66.10L17.64 66.10L17.64 60.98L25.85 60.98ZM60.70 56.95L11.45 56.95L11.45 70.20L34.27 70.20L29.88 72.00C33.26 74.66 36.94 78.48 38.52 81.07L44.14 78.84C42.34 76.10 38.66 72.65 35.35 70.20L60.70 70.20ZM65.30 50.11L39.10 50.11L39.10 47.30L58.39 47.30L58.39 43.42L39.10 43.42L39.10 40.46C45.65 40.10 51.77 39.60 56.74 38.88L53.28 35.28C49.61 35.78 44.57 36.22 39.10 36.50L39.10 33.70L32.54 33.70L32.54 36.72C26.42 36.94 19.94 37.08 14.04 37.08C14.47 38.09 15.05 39.82 15.19 40.90C20.66 40.97 26.71 40.90 32.54 40.68L32.54 43.42L13.61 43.42L13.61 47.30L32.54 47.30L32.54 50.11L6.77 50.11L6.77 54.36L65.23 54.36ZM8.78 87.55C11.30 84.38 13.82 79.63 15.77 76.10L10.37 73.51C8.78 76.97 5.98 81.58 3.31 84.31ZM30.53 83.38C26.35 83.38 25.49 83.09 25.49 81.22L25.49 73.80L18.72 73.80L18.72 81.29C18.72 86.69 21.24 87.98 30.02 87.98L45.86 87.98C52.56 87.98 54.43 86.11 55.08 78.77C53.50 78.55 50.98 77.76 49.61 76.90C49.25 82.44 48.60 83.38 45.22 83.38ZM54.14 74.16C57.38 77.62 60.41 82.37 61.49 85.68L67.46 83.66C66.17 80.21 63.00 75.53 59.69 72.22Z"/></svg>
