<svg xmlns="http://www.w3.org/2000/svg" xmlns:xlink="http://www.w3.org/1999/xlink" width="72.00000000000001" height="106.56000000000002"><path fill="red" stroke="red" d="M58.25 46.73C55.87 53.42 52.63 59.47 48.74 64.80C47.16 58.39 46.08 50.62 45.36 41.90L67.18 41.90L67.18 35.50L60.12 35.50L64.15 31.32C61.34 29.09 56.16 25.78 52.20 23.54L48.10 27.50C51.91 29.81 56.95 33.19 59.54 35.50L45.00 35.50C44.78 31.54 44.57 27.36 44.50 23.18L37.73 23.18C37.94 27.43 38.16 31.54 38.38 35.50L9.22 35.50L9.22 54.36C9.22 63.72 8.71 76.18 2.74 85.03C4.25 85.82 7.13 88.13 8.21 89.35C14.26 80.57 15.70 67.18 15.91 57.10C21.24 60.98 26.93 65.95 29.66 69.55L34.78 64.80C31.46 60.70 24.34 55.15 18.50 51.41L15.91 53.86L15.91 41.90L38.81 41.90C39.74 53.28 41.18 63.22 43.56 71.06C38.45 76.46 32.40 80.78 25.56 84.10C27.00 85.39 29.38 88.27 30.31 89.71C36.14 86.54 41.40 82.58 46.15 77.98C49.03 83.95 52.85 87.77 58.03 88.78C64.22 90.58 67.61 86.26 68.69 73.73C67.03 72.94 64.58 71.42 63.22 70.06C62.71 77.90 61.78 82.44 60.05 82.08C56.30 81.58 53.35 78.12 51.19 72.58C56.81 65.74 61.42 57.74 64.87 48.53Z"/></svg>
