<svg xmlns="http://www.w3.org/2000/svg" xmlns:xlink="http://www.w3.org/1999/xlink" width="72.00000000000001" height="106.56000000000002"><path fill="red" stroke="red" d="M39.60 63.29L39.60 57.24L32.47 57.24L32.47 43.70L26.21 43.70L26.21 57.24L18.43 57.24L18.43 43.63L12.17 43.63L12.17 57.24L4.75 57.24L4.75 63.29L12.02 63.29C11.66 70.20 10.01 78.19 3.89 83.74C5.40 84.60 7.70 86.47 8.78 87.62C15.98 81.14 17.93 71.64 18.36 63.29L26.21 63.29L26.21 83.45L32.47 83.45L32.47 63.29ZM58.46 45.43C56.52 52.78 53.86 59.47 50.47 65.45C48.89 58.61 47.74 50.04 47.16 40.46L67.68 40.46L67.68 34.13L62.57 34.13L65.52 31.54C63.22 28.94 58.54 25.56 54.72 23.33L50.26 27.07C53.35 29.02 56.95 31.82 59.33 34.13L46.87 34.13C46.80 30.60 46.73 26.93 46.80 23.26L40.03 23.26C40.03 26.93 40.10 30.53 40.25 34.13L4.61 34.13L4.61 40.46L40.61 40.46C41.33 52.92 42.91 64.22 45.50 72.79C42.05 77.33 37.87 81.22 33.05 84.38C34.49 85.46 36.94 87.98 37.94 89.28C41.69 86.54 45.14 83.38 48.24 79.70C51.19 85.75 55.08 89.35 60.05 89.35C65.88 89.35 68.18 85.90 69.26 73.15C67.61 72.58 65.09 71.06 63.72 69.62C63.36 78.98 62.42 82.73 60.62 82.73C57.67 82.73 55.01 79.34 52.85 73.58C57.96 65.95 61.99 56.95 64.80 46.73Z"/></svg>
