<svg xmlns="http://www.w3.org/2000/svg" xmlns:xlink="http://www.w3.org/1999/xlink" width="72.00000000000001" height="106.56000000000002"><path fill="red" stroke="red" d="M68.26 36.14C66.82 32.83 63.43 27.94 60.26 24.26L55.22 26.93C58.32 30.67 61.56 35.86 62.78 39.24ZM33.91 35.42L28.30 35.42L28.30 29.59L33.91 29.59ZM38.95 25.13L23.47 25.13L23.47 39.89L38.95 39.89ZM15.34 35.42L9.94 35.42L9.94 29.59L15.34 29.59ZM20.38 25.13L5.11 25.13L5.11 39.89L20.38 39.89ZM11.30 58.10L18.94 58.10L18.94 63.14L11.30 63.14ZM11.30 48.31L18.94 48.31L18.94 53.21L11.30 53.21ZM32.47 53.21L24.62 53.21L24.62 48.31L32.47 48.31ZM32.47 63.14L24.62 63.14L24.62 58.10L32.47 58.10ZM40.46 78.55L40.46 72.65L24.98 72.65L24.98 68.18L38.30 68.18L38.30 43.20L5.76 43.20L5.76 68.18L18.58 68.18L18.58 72.65L2.81 72.65L2.81 78.55L18.58 78.55L18.58 89.21L24.98 89.21L24.98 78.55ZM62.06 49.97C60.41 55.08 58.10 60.05 55.22 64.66C54.36 60.12 53.64 54.79 53.06 48.89L69.48 46.87L68.69 40.68L52.56 42.62C52.13 36.65 51.84 30.17 51.77 23.54L45.36 23.54C45.58 30.53 45.86 37.22 46.30 43.42L39.10 44.28L39.89 50.54L46.80 49.68C47.59 58.18 48.67 65.59 50.11 71.64C45.72 76.82 40.54 81.07 34.78 83.81C36.58 84.96 38.52 86.98 39.67 88.49C44.14 86.04 48.38 82.58 52.13 78.48C54.65 85.25 58.03 89.14 62.57 89.35C65.59 89.42 68.69 86.40 70.27 74.59C69.19 74.09 66.46 72.36 65.38 70.92C64.87 77.69 63.94 81.43 62.64 81.36C60.48 81.22 58.61 77.98 57.02 72.58C61.34 66.53 64.80 59.76 67.10 52.85Z"/></svg>
