<svg xmlns="http://www.w3.org/2000/svg" xmlns:xlink="http://www.w3.org/1999/xlink" width="72.00000000000001" height="106.56000000000002"><path fill="red" stroke="red" d="M31.39 53.42C28.37 54.29 25.20 55.08 22.18 55.80L22.18 43.42L31.75 43.42L31.75 37.22L22.18 37.22L22.18 23.26L15.70 23.26L15.70 37.22L4.82 37.22L4.82 43.42L15.70 43.42L15.70 57.53C11.38 58.61 7.49 59.47 4.25 60.19L6.12 66.60L15.70 64.08L15.70 81.72C15.70 82.80 15.26 83.09 14.26 83.16C13.39 83.16 10.37 83.16 7.20 83.09C8.06 84.74 8.93 87.48 9.14 89.14C14.11 89.21 17.28 88.92 19.37 87.98C21.46 86.98 22.18 85.18 22.18 81.72L22.18 62.35C25.49 61.42 28.94 60.48 32.26 59.62ZM48.53 81.29C45.43 81.29 44.78 80.57 44.78 76.61L44.78 23.90L38.16 23.90L38.16 76.46C38.16 84.96 40.18 87.26 47.81 87.26L59.18 87.26C66.53 87.26 68.18 83.02 68.98 71.06C67.18 70.56 64.44 69.26 62.93 68.11C62.50 78.70 61.92 81.29 58.75 81.29Z"/></svg>
