<svg xmlns="http://www.w3.org/2000/svg" xmlns:xlink="http://www.w3.org/1999/xlink" width="72.00000000000001" height="106.56000000000002"><path fill="red" stroke="red" d="M27.36 53.86L19.37 55.94L19.37 43.42L27.36 43.42L27.36 37.22L19.37 37.22L19.37 23.18L12.82 23.18L12.82 37.22L3.53 37.22L3.53 43.42L12.82 43.42L12.82 57.67C9.00 58.68 5.47 59.54 2.59 60.19L4.39 66.60L12.82 64.30L12.82 81.22C12.82 82.30 12.46 82.58 11.45 82.66C10.58 82.66 7.49 82.66 4.39 82.58C5.18 84.24 6.12 86.98 6.34 88.63C11.23 88.63 14.47 88.49 16.56 87.41C18.65 86.47 19.37 84.74 19.37 81.29L19.37 62.50C22.25 61.63 25.20 60.84 28.15 59.98ZM37.08 77.62L37.08 52.13L46.37 52.13L46.37 45.94L37.08 45.94L37.08 24.62L30.74 24.62L30.74 77.04C30.74 79.85 29.95 80.93 28.87 81.58C29.95 83.09 31.10 86.04 31.54 87.84C32.83 86.62 35.06 85.39 47.81 79.78C47.45 78.34 47.02 75.60 46.94 73.66ZM56.59 81.29C55.08 81.29 54.79 80.86 54.79 77.90L54.79 52.13L65.59 52.13L65.59 45.94L54.79 45.94L54.79 24.55L48.67 24.55L48.67 77.83C48.67 85.32 50.18 87.26 55.58 87.26L62.35 87.26C67.18 87.26 68.54 84.10 69.19 75.38C67.46 74.95 65.09 73.80 63.72 72.65C63.50 79.49 63.22 81.29 61.92 81.29Z"/></svg>
