<svg xmlns="http://www.w3.org/2000/svg" xmlns:xlink="http://www.w3.org/1999/xlink" width="72.00000000000001" height="106.56000000000002"><path fill="red" stroke="red" d="M46.08 22.46C41.11 29.23 32.76 35.21 24.98 38.74C25.78 40.32 27.22 43.92 27.65 45.29C33.84 41.98 40.61 37.08 46.01 31.32C51.34 36.86 59.26 41.90 66.82 45.00C67.32 43.13 68.47 40.32 69.70 38.66C62.28 36.43 54.43 31.90 49.75 26.93C50.18 26.42 50.54 25.85 50.90 25.34ZM58.97 50.40L57.96 50.69L29.30 50.69L29.30 56.09L54.79 56.09C53.35 58.90 51.70 62.06 50.04 64.87L55.80 66.46C58.39 61.99 61.20 56.66 63.43 51.84ZM36.72 64.30C40.90 67.39 46.44 72.00 49.46 74.95L53.42 70.56C50.40 67.97 44.86 63.58 40.54 60.55ZM35.35 40.61L35.35 45.79L56.95 45.79L56.95 40.61ZM24.12 54.22L17.71 56.09L17.71 43.34L24.19 43.34L24.19 37.15L17.71 37.15L17.71 23.26L11.59 23.26L11.59 37.15L3.82 37.15L3.82 43.34L11.59 43.34L11.59 57.89C8.28 58.75 5.18 59.62 2.74 60.26L4.32 66.74L11.59 64.44L11.59 81.14C11.59 82.15 11.23 82.44 10.30 82.44C9.50 82.44 6.84 82.44 3.96 82.37C4.82 84.10 5.62 86.98 5.76 88.56C10.30 88.56 13.18 88.34 15.12 87.26C17.06 86.26 17.71 84.46 17.71 81.14L17.71 62.57C20.09 61.78 22.61 61.06 24.98 60.26ZM25.63 87.05C28.51 82.73 31.25 76.32 33.34 71.78L27.86 69.26C26.06 73.66 23.04 79.70 20.09 83.59ZM43.56 82.80C41.18 82.80 40.75 82.51 40.75 80.71L40.75 69.19L34.56 69.19L34.56 80.78C34.56 86.62 36.14 88.34 42.70 88.34L51.62 88.34C56.59 88.34 58.32 86.40 58.97 78.34C57.31 77.98 54.79 76.97 53.57 76.03C53.28 81.94 52.92 82.80 50.90 82.80ZM56.52 70.99C59.18 75.96 62.42 82.58 63.94 86.76L69.55 84.02C67.90 79.92 64.66 73.51 61.85 68.62Z"/></svg>
