<svg xmlns="http://www.w3.org/2000/svg" xmlns:xlink="http://www.w3.org/1999/xlink" width="72.00000000000001" height="106.56000000000002"><path fill="red" stroke="red" d="M34.42 70.13L34.42 64.44L42.55 64.44L42.55 70.13ZM17.71 56.30L17.71 43.34L24.91 43.34L24.91 38.66L34.20 38.66C30.82 43.56 26.57 47.45 21.38 50.33C22.10 51.34 23.11 53.14 23.69 54.72ZM49.97 38.66C51.77 42.41 54.36 46.08 57.38 49.25L48.46 49.25L48.46 43.92L42.55 43.92L42.55 49.25L33.77 49.25C36.86 46.15 39.53 42.62 41.69 38.66ZM48.46 54.50L56.95 54.50L56.95 59.76L48.46 59.76ZM34.42 54.50L42.55 54.50L42.55 59.76L34.42 59.76ZM48.46 70.13L48.46 64.44L56.95 64.44L56.95 70.13ZM51.34 82.15C49.03 82.15 48.46 81.14 48.46 78.05L48.46 75.31L62.86 75.31L62.86 54.22C64.15 55.15 65.45 55.94 66.82 56.74C67.32 54.94 68.47 51.91 69.62 50.26C64.51 47.81 59.83 43.56 56.74 38.66L67.32 38.66L67.32 32.76L44.57 32.76C45.72 30.10 46.66 27.22 47.45 24.19L41.18 23.04C40.32 26.50 39.17 29.74 37.66 32.76L24.77 32.76L24.77 37.15L17.71 37.15L17.71 23.26L11.59 23.26L11.59 37.15L3.24 37.15L3.24 43.34L11.59 43.34L11.59 57.96C7.99 58.90 4.68 59.69 2.02 60.34L3.17 66.89L11.59 64.51L11.59 81.79C11.59 82.80 11.23 83.02 10.30 83.02C9.50 83.09 6.84 83.09 3.96 83.02C4.82 84.74 5.62 87.62 5.76 89.21C10.37 89.21 13.18 88.99 15.12 87.91C17.06 86.90 17.71 85.10 17.71 81.79L17.71 62.71L24.77 60.70L24.12 55.73C24.26 56.02 24.34 56.38 24.41 56.59C25.85 55.73 27.22 54.86 28.51 53.93L28.51 78.26L34.42 78.26L34.42 75.31L42.55 75.31L42.55 77.83C42.55 85.32 44.50 87.77 51.48 87.77L61.78 87.77C64.22 87.77 66.67 87.70 67.82 87.26C67.61 85.97 67.32 83.30 67.18 81.72C65.88 82.01 63.58 82.15 61.92 82.15Z"/></svg>
