<svg xmlns="http://www.w3.org/2000/svg" xmlns:xlink="http://www.w3.org/1999/xlink" width="72.00000000000001" height="106.56000000000002"><path fill="red" stroke="red" d="M46.44 45.58L46.44 53.50C46.44 54.29 46.15 54.50 45.29 54.50C44.50 54.58 41.47 54.58 38.38 54.43C39.24 55.73 40.18 57.53 40.61 58.97C44.86 58.97 47.74 58.97 49.82 58.25C51.84 57.46 52.49 56.45 52.49 53.64L52.49 45.58L60.62 45.58C59.26 48.24 57.67 50.90 56.23 52.85L61.34 54.50C63.94 51.26 66.74 46.15 68.90 41.40L64.58 40.18L63.50 40.39L55.08 40.39C54.29 39.82 53.21 39.17 52.06 38.59C56.59 35.86 61.20 32.33 64.58 28.80L60.62 25.70L59.33 25.99L30.46 25.99L30.46 31.03L53.93 31.03C51.77 32.76 49.25 34.56 46.94 35.86C44.50 34.70 41.90 33.55 39.74 32.69L36.22 35.86C39.10 37.15 42.41 38.81 45.36 40.39L27.00 40.39L27.00 45.58L39.31 45.58C35.78 49.68 30.67 53.06 25.49 55.37C26.71 56.45 28.66 58.68 29.38 59.76C35.64 56.59 41.90 51.48 46.01 45.58ZM24.26 53.86L17.71 55.87L17.71 43.27L24.91 43.27L24.91 37.15L17.71 37.15L17.71 23.18L11.59 23.18L11.59 37.15L3.24 37.15L3.24 43.34L11.59 43.34L11.59 57.67C8.06 58.68 4.82 59.62 2.23 60.26L3.74 66.74L11.59 64.37L11.59 81.65C11.59 82.66 11.23 82.94 10.30 82.94C9.50 82.94 6.84 82.94 3.96 82.87C4.82 84.67 5.62 87.48 5.76 89.06C10.30 89.14 13.18 88.85 15.12 87.77C17.06 86.76 17.71 85.03 17.71 81.72L17.71 62.35C20.16 61.63 22.68 60.84 25.13 60.05ZM37.15 71.93C33.98 76.75 27.86 81.72 22.25 84.10C23.54 85.18 25.49 87.48 26.42 88.85C32.33 85.75 38.59 79.78 42.05 73.73ZM68.47 70.27L68.47 64.80L49.82 64.80L49.82 60.19L43.63 60.19L43.63 64.80L25.13 64.80L25.13 70.27L43.63 70.27L43.63 89.14L49.82 89.14L49.82 70.27ZM51.19 74.81C55.94 78.91 61.92 84.74 64.58 88.49L69.05 84.82C66.10 81.07 60.12 75.53 55.30 71.57Z"/></svg>
