<svg xmlns="http://www.w3.org/2000/svg" xmlns:xlink="http://www.w3.org/1999/xlink" width="72.00000000000001" height="106.56000000000002"><path fill="red" stroke="red" d="M23.69 54.22L16.78 56.30L16.78 43.34L24.12 43.34L24.12 37.15L16.78 37.15L16.78 23.26L10.58 23.26L10.58 37.15L3.24 37.15L3.24 43.34L10.58 43.34L10.58 58.10C7.42 59.04 4.61 59.76 2.16 60.34L3.74 66.67L10.58 64.58L10.58 81.14C10.58 82.15 10.22 82.44 9.36 82.44C8.57 82.44 5.98 82.44 3.17 82.37C4.03 84.17 4.82 86.98 5.04 88.70C9.43 88.70 12.31 88.42 14.26 87.34C16.13 86.33 16.78 84.46 16.78 81.22L16.78 62.64C19.37 61.92 22.03 61.06 24.55 60.19ZM59.47 31.18L59.47 36.94L32.90 36.94L32.90 31.18ZM52.78 82.44L52.78 75.60L66.17 75.60L66.17 70.42L52.78 70.42L52.78 64.37L60.77 63.72C61.27 64.66 61.70 65.52 61.99 66.24L67.25 63.94C65.74 60.62 62.06 55.80 58.61 52.42L53.78 54.43C55.01 55.80 56.38 57.38 57.60 58.97L42.77 59.83C45.14 57.38 47.59 54.50 49.61 51.62L66.67 51.62L66.67 46.44L32.90 46.44L32.90 42.26L66.24 42.26L66.24 25.92L26.35 25.92L26.35 47.30C26.35 58.68 25.78 74.81 18.58 86.04C20.16 86.54 23.04 88.27 24.19 89.35C30.96 78.84 32.54 63.36 32.83 51.62L42.19 51.62C40.03 54.79 37.73 57.53 36.86 58.32C35.64 59.62 34.56 60.48 33.41 60.70C34.13 62.14 35.14 65.02 35.50 66.17C36.79 65.66 38.45 65.45 46.30 64.87L46.30 70.42L33.26 70.42L33.26 75.60L46.30 75.60L46.30 82.44L29.02 82.44L29.02 87.77L69.12 87.77L69.12 82.44Z"/></svg>
