<svg xmlns="http://www.w3.org/2000/svg" xmlns:xlink="http://www.w3.org/1999/xlink" width="72.00000000000001" height="106.56000000000002"><path fill="red" stroke="red" d="M61.78 23.54C53.14 25.34 38.16 26.57 25.78 27.00C26.42 28.44 27.07 30.60 27.29 32.11C39.96 31.82 55.30 30.67 65.52 28.51ZM48.89 40.75C48.53 38.52 47.66 34.63 46.87 31.68L41.54 32.62C42.26 35.64 43.06 39.67 43.34 42.05ZM25.49 61.78L24.55 55.66C22.32 56.38 19.94 57.02 17.71 57.67L17.71 43.34L24.91 43.34L24.91 37.15L17.71 37.15L17.71 23.18L11.59 23.18L11.59 37.15L3.24 37.15L3.24 43.34L11.59 43.34L11.59 59.54C8.21 60.48 5.04 61.34 2.52 61.99L3.60 68.62L11.59 66.10L11.59 81.79C11.59 82.80 11.23 83.02 10.30 83.02C9.50 83.09 6.84 83.09 3.96 83.02C4.82 84.74 5.62 87.62 5.76 89.21C10.37 89.21 13.18 88.99 15.12 87.91C17.06 86.90 17.71 85.10 17.71 81.79L17.71 64.22ZM56.30 67.03C54.65 70.63 52.42 73.58 49.61 75.96C46.08 73.51 43.20 70.49 41.04 67.03ZM60.19 61.85L59.04 61.99L40.39 61.99C40.61 60.62 40.90 59.40 41.11 58.03L68.33 58.03L68.33 52.49L41.90 52.49C42.12 50.90 42.26 49.39 42.41 47.81L66.17 47.81L66.17 42.48L58.32 42.48C60.41 39.53 62.64 35.93 64.66 32.62L58.32 30.67C57.02 34.20 54.50 39.02 52.27 42.48L33.34 42.48L37.44 41.04C36.86 38.95 35.35 35.28 34.06 32.62L28.94 33.98C30.10 36.72 31.32 40.18 31.90 42.48L26.93 42.48L26.93 47.81L35.93 47.81C35.78 49.32 35.64 50.83 35.50 52.49L25.42 52.49L25.42 58.03L34.70 58.03C33.05 67.97 29.23 78.19 19.30 84.31C20.88 85.39 22.82 87.55 23.69 89.06C30.46 84.60 34.78 78.48 37.44 71.78C39.53 74.66 41.83 77.26 44.57 79.56C40.68 81.65 36.29 83.23 31.32 84.31C32.47 85.39 34.27 87.91 34.99 89.35C40.39 87.91 45.36 85.97 49.68 83.16C54.29 85.97 59.62 88.06 65.66 89.35C66.60 87.62 68.40 85.03 69.77 83.74C64.22 82.80 59.11 81.29 54.72 78.98C58.75 75.02 61.92 69.98 63.86 63.36Z"/></svg>
