<svg xmlns="http://www.w3.org/2000/svg" xmlns:xlink="http://www.w3.org/1999/xlink" width="72.00000000000001" height="106.56000000000002"><path fill="red" stroke="red" d="M61.06 68.11C53.86 75.38 38.66 81.94 25.06 84.24C26.06 85.68 27.14 87.91 27.58 89.42C41.47 86.40 57.02 79.20 65.16 71.14ZM52.85 62.35C47.30 67.75 35.42 72.94 25.42 74.81C26.50 76.18 27.58 78.26 28.08 79.70C38.38 77.04 50.47 71.21 56.81 65.16ZM45.22 56.59C41.18 60.62 32.76 64.44 25.56 65.95C26.50 67.10 27.50 69.41 28.01 70.70C35.64 68.47 44.42 63.79 49.03 59.11ZM67.61 50.11C66.67 47.45 64.51 42.98 62.64 39.74L58.82 41.11C59.33 42.12 59.90 43.20 60.48 44.35L52.27 45.22C53.78 43.20 55.22 40.82 56.30 38.45L51.62 36.50C50.76 39.82 48.89 42.91 48.38 43.78C47.81 44.71 47.16 45.29 46.44 45.43C46.73 46.01 47.02 46.94 47.38 47.88L43.49 46.73L42.77 47.45C42.05 45.14 40.46 41.90 38.95 39.46L35.14 41.18C35.78 42.26 36.43 43.56 37.01 44.78L28.80 45.94C30.74 43.92 32.62 41.40 34.20 38.95L30.82 37.44C33.26 37.01 39.02 36.58 56.66 35.64C57.53 36.79 58.39 37.87 58.97 38.81L63.43 35.86C61.34 32.83 57.17 28.08 53.93 24.77L49.68 27.36C50.83 28.58 51.98 30.02 53.28 31.39L36.22 32.26C39.31 30.02 42.55 27.29 45.43 24.41L39.38 22.75C36.50 26.28 32.11 29.59 30.82 30.38C29.52 31.39 28.37 31.97 27.29 32.18C27.94 33.70 28.73 36.58 29.09 37.80C27.43 41.04 25.13 43.99 24.34 44.86C23.62 45.72 22.75 46.37 21.96 46.51C22.54 47.88 23.33 50.40 23.54 51.48C24.55 50.83 26.42 50.40 38.38 48.38C38.59 48.96 38.74 49.39 38.88 49.90L41.33 48.74C37.30 51.98 31.10 54.94 23.26 57.10L22.39 52.78L18.50 54.36L18.50 43.70L24.91 43.70L24.91 37.58L18.50 37.58L18.50 23.11L12.74 23.11L12.74 37.58L4.03 37.58L4.03 43.70L12.74 43.70L12.74 56.66C8.78 58.25 5.18 59.62 2.38 60.55L3.89 66.96C6.62 65.88 9.65 64.66 12.74 63.29L12.74 81.50C12.74 82.66 12.31 82.94 11.30 83.02C10.37 83.09 7.42 83.09 3.96 82.94C4.75 84.67 5.62 87.55 5.83 89.28C10.80 89.28 13.90 89.06 15.84 87.98C17.78 86.98 18.50 85.10 18.50 81.50L18.50 60.91L20.38 60.05C21.02 61.20 21.53 62.42 21.82 63.29C31.46 60.55 38.95 57.17 44.57 52.70C50.62 57.31 59.47 61.20 67.68 63.29C68.04 61.70 68.90 59.26 69.70 57.82C62.42 56.52 54.29 53.64 48.74 50.04C50.11 49.61 52.99 49.18 62.21 48.02C62.71 49.39 63.22 50.69 63.58 51.77Z"/></svg>
