<svg xmlns="http://www.w3.org/2000/svg" xmlns:xlink="http://www.w3.org/1999/xlink" width="72.00000000000001" height="106.56000000000002"><path fill="red" stroke="red" d="M64.58 27.58C63.79 29.95 62.14 33.62 60.91 35.86L64.15 37.44C65.59 35.35 67.10 32.26 68.76 29.38ZM69.26 46.58C67.10 43.92 62.57 39.74 59.18 36.86L59.11 36.94C60.12 33.05 60.48 28.51 60.70 23.26L55.44 23.26C55.15 34.85 53.93 41.90 46.30 46.01C47.45 46.87 48.89 48.67 49.54 49.90C53.42 47.81 55.87 45.07 57.53 41.62C60.70 44.42 64.01 47.95 65.88 50.18ZM53.93 35.50C53.35 33.48 51.84 30.02 50.54 27.43L46.87 28.66L46.94 28.80L43.56 27.50C42.77 29.81 41.04 33.48 39.74 35.71L42.91 37.15C44.21 35.28 45.79 32.47 47.38 29.81C48.46 32.33 49.54 35.28 50.18 37.15ZM45.79 44.78C44.14 42.62 40.68 39.31 37.80 36.94C38.81 33.05 39.17 28.51 39.38 23.26L34.13 23.26C33.77 34.70 32.62 41.98 25.13 46.15C26.21 47.09 27.72 48.82 28.37 50.11C32.18 47.95 34.63 45.14 36.29 41.62C38.59 43.92 41.04 46.51 42.41 48.31ZM32.26 36.58C31.61 34.34 30.10 30.53 28.80 27.72L24.91 28.87C26.14 31.82 27.58 35.78 28.30 38.23ZM23.98 55.44L17.71 57.31L17.71 43.34L24.12 43.34L24.12 37.15L17.71 37.15L17.71 23.26L11.59 23.26L11.59 37.15L3.02 37.15L3.02 43.34L11.59 43.34L11.59 59.11C8.14 60.05 4.97 60.91 2.45 61.56L3.24 68.18L11.59 65.66L11.59 81.00C11.59 81.94 11.23 82.22 10.22 82.30C9.43 82.30 6.55 82.30 3.60 82.22C4.39 83.95 5.18 86.76 5.40 88.42C10.08 88.42 13.10 88.20 15.05 87.19C16.99 86.11 17.71 84.31 17.71 80.93L17.71 63.72C20.09 62.93 22.54 62.28 24.84 61.49ZM46.87 64.37C47.16 62.28 47.38 60.12 47.52 57.74L41.54 57.74C41.40 60.12 41.18 62.35 40.90 64.37L27.14 64.37L27.14 69.70L39.82 69.70C37.87 76.54 33.70 81.50 24.05 84.53C25.27 85.61 26.86 87.77 27.50 89.21C39.02 85.18 43.70 78.70 45.94 69.70L58.10 69.70C57.38 78.26 56.45 81.94 55.37 82.94C54.79 83.52 54.14 83.66 52.99 83.66C51.84 83.66 49.03 83.66 46.01 83.30C46.94 84.89 47.59 87.19 47.66 88.92C50.98 89.06 54.14 89.06 55.87 88.85C57.89 88.70 59.33 88.20 60.62 86.83C62.57 84.89 63.58 79.56 64.58 66.89C64.66 65.95 64.73 64.37 64.73 64.37ZM26.64 62.50L32.11 62.50L32.11 55.94L61.56 55.94L61.56 62.50L67.25 62.50L67.25 50.62L26.64 50.62Z"/></svg>
