<svg xmlns="http://www.w3.org/2000/svg" xmlns:xlink="http://www.w3.org/1999/xlink" width="72.00000000000001" height="106.56000000000002"><path fill="red" stroke="red" d="M20.23 52.27L15.98 53.93L15.98 43.42L20.66 43.42L20.66 37.30L15.98 37.30L15.98 23.18L10.15 23.18L10.15 37.30L3.46 37.30L3.46 43.34L10.15 43.34L10.15 56.16C7.27 57.31 4.68 58.18 2.52 58.90L4.39 65.16L10.15 62.86L10.15 81.94C10.15 82.80 9.94 83.02 9.14 83.02C8.35 83.09 6.19 83.09 3.82 83.02C4.54 84.60 5.26 87.19 5.40 88.78C9.43 88.78 11.88 88.56 13.75 87.55C15.41 86.54 15.98 84.96 15.98 81.94L15.98 60.48C17.86 59.69 19.66 58.90 21.53 58.10ZM28.37 58.97L40.68 58.97L40.68 55.73L28.37 55.73ZM26.28 45.58L30.24 45.58L30.24 46.87C30.24 48.60 29.66 50.26 26.64 51.91C27.29 52.20 28.37 53.21 28.87 53.78C32.26 51.84 33.12 49.10 33.12 46.87L33.12 45.58L35.71 45.58L35.71 48.67C35.71 51.77 36.58 52.34 39.24 52.34L42.26 52.34L42.48 52.34L42.48 61.63L26.28 61.63ZM33.34 37.37L35.93 37.37L35.93 41.47L33.34 41.47ZM42.48 49.61C42.34 49.68 42.12 49.68 41.69 49.68L39.53 49.68C38.81 49.68 38.66 49.54 38.66 48.67L38.66 45.58L42.48 45.58ZM47.09 65.74L47.09 41.47L39.53 41.47L39.53 37.37L48.02 37.37L48.02 32.33L42.48 32.33C43.70 30.46 44.93 28.08 46.15 25.85L41.33 24.12C40.46 26.57 38.66 30.02 37.37 32.33L29.66 32.33L32.76 31.03C32.04 29.16 30.38 26.21 28.87 23.90L24.41 25.56C25.78 27.65 27.22 30.38 27.94 32.33L21.02 32.33L21.02 37.37L29.66 37.37L29.66 41.47L21.96 41.47L21.96 65.74L32.11 65.74C32.04 67.03 31.90 68.26 31.75 69.41L20.23 69.41L20.23 74.45L30.67 74.45C29.09 79.34 25.70 82.30 18.36 84.24C19.58 85.32 20.95 87.41 21.53 88.85C27.72 86.83 31.54 84.17 33.84 80.35C37.80 82.73 41.98 85.68 44.21 87.77L47.81 83.38C45.22 81.00 40.18 77.83 36.00 75.60L36.22 74.45L48.10 74.45L48.10 69.41L37.08 69.41C37.22 68.26 37.30 67.03 37.37 65.74ZM64.80 25.63L63.94 25.92L49.82 25.92L49.82 89.28L55.44 89.28L55.44 31.75L62.14 31.75C60.91 37.37 59.11 45.36 57.38 51.05C61.63 57.24 62.42 62.57 62.42 66.82C62.42 69.34 62.14 71.42 61.27 72.22C60.77 72.72 60.12 72.94 59.47 73.01C58.54 73.01 57.60 73.01 56.45 72.86C57.31 74.52 57.67 77.04 57.67 78.62C59.11 78.62 60.55 78.62 61.63 78.48C63.07 78.19 64.22 77.76 65.23 77.04C67.03 75.53 67.90 72.22 67.90 67.68C67.90 62.71 66.96 57.02 62.71 50.62C64.73 44.14 67.03 34.99 68.90 28.08Z"/></svg>
