<svg xmlns="http://www.w3.org/2000/svg" xmlns:xlink="http://www.w3.org/1999/xlink" width="72.00000000000001" height="106.56000000000002"><path fill="red" stroke="red" d="M25.20 59.83L24.41 53.71L18.14 55.58L18.14 43.34L25.13 43.34L25.13 37.15L18.14 37.15L18.14 23.18L11.88 23.18L11.88 37.15L3.17 37.15L3.17 43.34L11.88 43.34L11.88 57.53C8.21 58.54 4.90 59.54 2.23 60.26L3.67 66.74L11.88 64.15L11.88 81.14C11.88 82.15 11.52 82.44 10.66 82.44C9.86 82.44 7.20 82.44 4.46 82.37C5.40 84.17 6.19 87.12 6.41 88.85C10.80 88.85 13.61 88.63 15.62 87.48C17.42 86.47 18.14 84.60 18.14 81.14L18.14 62.06ZM43.42 78.91C40.39 80.78 35.06 83.45 31.54 85.03C32.47 86.26 33.77 88.06 34.49 89.28C38.30 87.48 43.70 84.96 48.02 82.66ZM61.27 66.74L53.57 66.74L53.57 63.00L61.27 63.00ZM61.27 74.23L53.57 74.23L53.57 70.42L61.27 70.42ZM40.54 70.42L47.81 70.42L47.81 74.23L40.54 74.23ZM40.54 63.00L47.81 63.00L47.81 66.74L40.54 66.74ZM66.53 58.97L35.35 58.97L35.35 78.26L66.53 78.26ZM53.86 82.66C57.96 84.74 62.78 87.55 65.66 89.42L68.98 85.32C65.95 83.59 61.06 80.93 56.66 78.84ZM33.12 52.06L33.12 33.34L68.40 33.34L68.40 28.37L53.57 28.37C52.92 26.64 52.06 24.41 51.12 22.68L44.78 24.19C45.36 25.49 45.94 26.93 46.44 28.37L27.29 28.37L27.29 55.01C27.29 64.80 26.71 77.04 20.23 85.54C21.53 86.26 23.90 88.34 24.84 89.57C31.68 80.78 32.98 67.18 33.12 56.66L69.05 56.66L69.05 52.06ZM55.94 42.55L55.94 45.79L45.36 45.79L45.36 42.55ZM61.70 49.68L61.70 42.55L67.39 42.55L67.39 38.59L61.70 38.59L61.70 34.92L55.94 34.92L55.94 38.59L45.36 38.59L45.36 34.92L39.82 34.92L39.82 38.59L34.78 38.59L34.78 42.55L39.82 42.55L39.82 49.68Z"/></svg>
