<svg xmlns="http://www.w3.org/2000/svg" xmlns:xlink="http://www.w3.org/1999/xlink" width="72.00000000000001" height="106.56000000000002"><path fill="red" stroke="red" d="M60.91 49.46C62.14 52.13 63.36 55.58 63.72 57.89L67.46 56.66C66.96 54.43 65.74 51.05 64.51 48.53L68.04 47.09C67.39 44.86 65.59 41.26 63.79 38.59L60.19 39.82C60.77 40.68 61.34 41.76 61.92 42.77L54.00 43.49C58.03 40.10 61.92 35.78 65.59 31.25L61.20 29.30C60.19 30.74 59.04 32.11 57.96 33.48L52.20 33.91C54.50 31.61 56.74 28.51 58.61 25.49L54.29 23.98C52.27 27.86 48.96 31.68 48.02 32.54C47.09 33.48 46.22 34.13 45.29 34.27C45.79 35.42 46.51 37.58 46.73 38.59C47.59 38.23 48.82 37.94 54.36 37.44C52.42 39.46 50.76 40.97 49.90 41.62C48.17 43.06 46.80 43.99 45.58 44.14C46.08 45.36 46.73 47.52 47.02 48.53C48.10 47.95 50.11 47.59 63.36 46.08C63.72 46.87 64.01 47.74 64.15 48.46ZM59.76 57.74C59.62 55.58 58.82 52.06 57.96 49.39L54.07 50.18C54.86 52.92 55.58 56.45 55.66 58.75ZM48.02 49.46C47.59 52.20 46.80 55.22 45.43 57.53C46.51 57.96 48.31 58.97 49.18 59.62C50.47 57.24 51.62 53.57 52.27 50.33ZM45.79 29.23L38.59 29.23C37.94 27.36 36.72 24.98 35.64 23.18L31.39 24.41C32.26 25.92 32.98 27.58 33.55 29.23L24.77 29.23L24.77 33.05L45.79 33.05ZM26.93 45.07L43.63 45.07L43.63 41.76L26.93 41.76ZM43.63 35.78L26.93 35.78L26.93 39.02L43.63 39.02ZM31.03 51.19L39.60 51.19L39.60 55.01L31.03 55.01ZM26.86 58.39L43.99 58.39L43.99 47.81L26.86 47.81ZM26.35 47.09C25.56 44.78 23.69 41.04 21.96 38.30L18.29 39.46C18.86 40.39 19.51 41.54 20.09 42.70L12.60 43.34C16.42 40.18 20.30 36.00 23.83 31.61L19.22 29.74C18.36 31.03 17.35 32.26 16.42 33.48L11.23 33.77C13.39 31.54 15.77 28.44 17.64 25.34L12.96 23.98C11.02 27.72 7.78 31.39 6.77 32.26C5.90 33.19 5.04 33.77 4.03 33.98C4.61 35.21 5.40 37.37 5.69 38.45C6.41 38.09 7.70 37.87 12.96 37.37C11.02 39.31 9.36 40.82 8.57 41.47C6.98 42.77 5.76 43.70 4.46 43.85C5.04 45.07 5.69 47.30 5.98 48.31C7.06 47.81 9.00 47.38 21.53 46.01C21.96 46.87 22.32 47.81 22.54 48.53ZM18.79 49.46C19.94 51.84 20.95 55.08 21.31 57.17L25.06 55.94C24.62 53.78 23.54 50.69 22.25 48.31ZM18.14 58.25C17.93 55.94 17.06 52.27 16.20 49.46L12.31 50.18C13.10 52.99 13.90 56.74 14.04 59.18ZM6.55 49.54C6.05 52.56 5.26 55.73 3.96 58.25C5.04 58.75 6.77 59.76 7.63 60.34C8.93 57.74 10.08 53.86 10.73 50.47ZM39.10 72.50L63.72 72.50L63.72 68.33L39.10 68.33L39.10 64.80C46.51 64.37 53.50 63.72 59.11 63.00L55.51 59.18C45.22 60.62 26.78 61.49 11.30 61.70C11.74 62.78 12.31 64.51 12.38 65.59C18.79 65.59 25.70 65.45 32.47 65.16L32.47 68.33L8.50 68.33L8.50 72.50L32.47 72.50L32.47 75.53L4.25 75.53L4.25 79.99L32.47 79.99L32.47 83.38C32.47 84.38 32.11 84.67 30.89 84.67C29.95 84.74 25.56 84.74 21.82 84.60C22.54 85.97 23.47 87.84 23.76 89.28C29.52 89.28 33.26 89.28 35.78 88.63C38.23 87.91 39.10 86.69 39.10 83.59L39.10 79.99L67.82 79.99L67.82 75.53L39.10 75.53Z"/></svg>
