<svg xmlns="http://www.w3.org/2000/svg" xmlns:xlink="http://www.w3.org/1999/xlink" width="72.00000000000001" height="106.56000000000002"><path fill="red" stroke="red" d="M23.04 63.65L13.46 66.67L13.46 31.03L6.91 31.03L6.91 65.81C6.91 68.69 5.47 69.98 4.39 70.70C5.33 72.22 6.55 75.17 6.98 76.82C8.50 75.67 10.73 74.45 23.04 70.13L23.04 89.28L29.66 89.28L29.66 24.26L23.04 24.26ZM43.49 43.06L57.31 43.06C55.94 51.41 53.86 58.61 50.76 64.66C47.38 58.68 44.78 51.84 42.91 44.57ZM68.83 43.06L68.83 36.72L45.50 36.72C46.66 32.69 47.59 28.51 48.31 24.26L41.47 23.11C39.53 35.35 35.93 46.87 29.81 54.00C31.25 55.37 33.62 58.32 34.56 59.69C36.29 57.60 37.94 55.15 39.31 52.42C41.47 59.04 43.99 65.23 47.16 70.63C43.13 76.25 37.87 80.64 31.10 83.88C32.47 85.18 34.78 87.98 35.50 89.42C41.83 85.97 46.87 81.65 50.90 76.46C54.79 81.58 59.47 85.82 64.87 88.92C65.88 87.19 67.90 84.67 69.48 83.52C63.65 80.57 58.82 76.25 54.72 70.78C59.18 63.22 62.06 54.07 64.01 43.06Z"/></svg>
