<svg xmlns="http://www.w3.org/2000/svg" xmlns:xlink="http://www.w3.org/1999/xlink" width="72.00000000000001" height="106.56000000000002"><path fill="red" stroke="red" d="M68.69 71.93C63.94 67.75 54.58 61.70 47.23 57.31L47.23 51.55L67.68 51.55L67.68 45.00L19.08 45.00L19.08 35.06C33.98 33.91 50.33 32.04 62.28 29.16L56.59 23.47C46.01 26.14 27.79 28.37 11.95 29.38L11.95 51.55C11.95 61.85 11.23 75.46 3.10 84.74C4.68 85.54 7.56 88.27 8.71 89.57C17.64 79.49 19.08 63.00 19.08 51.62L19.08 51.55L40.18 51.55L40.18 89.14L47.23 89.14L47.23 64.30C53.78 68.54 60.77 73.66 64.51 77.18Z"/></svg>
