<svg xmlns="http://www.w3.org/2000/svg" xmlns:xlink="http://www.w3.org/1999/xlink" width="72.00000000000001" height="106.56000000000002"><path fill="red" stroke="red" d="M50.62 50.18C55.44 50.18 60.98 50.04 63.07 49.61C62.71 48.10 62.42 45.58 62.14 43.63C59.62 44.14 53.78 44.35 50.04 44.35L22.32 44.35C17.71 44.35 16.63 43.06 16.63 40.10L16.63 36.36L59.33 36.36L59.33 30.60L16.63 30.60L16.63 23.26L9.86 23.26L9.86 39.89C9.86 47.59 13.25 50.18 22.82 50.18ZM53.21 61.56L53.21 68.26L19.08 68.26L19.08 61.56ZM19.08 80.57L19.08 73.58L53.21 73.58L53.21 80.57ZM12.60 89.21L19.08 89.21L19.08 86.47L53.21 86.47L53.21 88.92L60.05 88.92L60.05 55.66L12.60 55.66Z"/></svg>
