<svg xmlns="http://www.w3.org/2000/svg" xmlns:xlink="http://www.w3.org/1999/xlink" width="72.00000000000001" height="106.56000000000002"><path fill="red" stroke="red" d="M46.66 32.40C44.28 36.65 40.61 40.75 39.53 41.83C38.38 42.98 37.37 43.70 36.29 43.99C36.94 45.29 37.87 48.02 38.16 49.10C39.67 48.46 42.19 48.24 58.10 47.09C58.97 48.53 59.62 49.90 60.05 51.05L65.16 48.74C63.79 45.29 60.62 40.39 57.24 36.72L52.42 38.74C53.35 39.82 54.22 40.97 55.08 42.26L45.22 42.84C47.74 40.32 50.26 37.22 52.34 34.06ZM64.94 26.93L7.34 26.93L7.34 32.26L64.94 32.26ZM17.78 32.40C15.41 36.65 11.81 40.75 10.66 41.83C9.50 42.98 8.50 43.70 7.49 43.99C8.14 45.29 9.00 48.02 9.29 49.10C10.87 48.46 13.25 48.24 29.16 47.16C29.74 48.38 30.24 49.61 30.53 50.69L35.64 48.53C34.56 45.29 31.97 40.61 29.09 37.15L24.34 38.81C25.13 39.89 25.85 40.97 26.57 42.19L16.42 42.84C18.86 40.32 21.38 37.22 23.47 34.06ZM52.06 66.17L52.06 71.42L20.16 71.42L20.16 66.17ZM20.16 81.50L20.16 76.10L52.06 76.10L52.06 81.50ZM13.61 89.14L20.16 89.14L20.16 86.83L52.06 86.83L52.06 88.85L58.97 88.85L58.97 61.06L13.61 61.06ZM3.96 51.84L3.96 57.31L67.97 57.31L67.97 51.84Z"/></svg>
