<svg xmlns="http://www.w3.org/2000/svg" xmlns:xlink="http://www.w3.org/1999/xlink" width="72.00000000000001" height="106.56000000000002"><path fill="red" stroke="red" d="M53.71 31.97L18.07 31.97L18.07 29.09L53.71 29.09ZM53.71 38.74L18.07 38.74L18.07 35.64L53.71 35.64ZM60.41 25.27L11.66 25.27L11.66 42.48L60.41 42.48ZM18.79 72.50L18.79 69.48L32.54 69.48L32.54 72.50ZM18.79 63.14L32.54 63.14L32.54 66.10L18.79 66.10ZM53.06 63.14L53.06 66.10L39.02 66.10L39.02 63.14ZM53.06 72.50L39.02 72.50L39.02 69.48L53.06 69.48ZM67.90 78.84L39.02 78.84L39.02 76.03L59.47 76.03L59.47 59.62L39.02 59.62L39.02 56.74L57.89 56.74L57.89 52.70L39.02 52.70L39.02 49.82L59.98 49.82L59.98 56.59L66.31 56.59L66.31 45.14L5.54 45.14L5.54 56.59L11.66 56.59L11.66 49.82L32.54 49.82L32.54 52.70L13.90 52.70L13.90 56.74L32.54 56.74L32.54 59.62L12.60 59.62L12.60 76.03L32.54 76.03L32.54 78.84L4.32 78.84L4.32 83.74L32.54 83.74L32.54 89.14L39.02 89.14L39.02 83.74L67.90 83.74Z"/></svg>
