<svg xmlns="http://www.w3.org/2000/svg" xmlns:xlink="http://www.w3.org/1999/xlink" width="72.00000000000001" height="106.56000000000002"><path fill="red" stroke="red" d="M44.35 35.21L50.90 35.21L50.90 32.40L67.61 32.40L67.61 27.07L50.90 27.07L50.90 23.11L44.35 23.11L44.35 27.07L37.37 27.07L37.37 32.40L44.35 32.40ZM20.81 35.21L27.36 35.21L27.36 32.40L35.06 32.40L35.06 27.07L27.36 27.07L27.36 23.11L20.81 23.11L20.81 27.07L4.68 27.07L4.68 32.40L20.81 32.40ZM22.75 67.97C24.05 66.74 25.27 65.59 26.28 64.30L46.08 64.30C47.16 65.59 48.46 66.82 49.75 67.97ZM22.25 82.94L22.25 79.34L50.26 79.34L50.26 82.94ZM50.26 75.60L22.25 75.60L22.25 72.22L50.26 72.22ZM19.15 48.02L52.99 48.02L52.99 51.91L19.15 51.91ZM19.15 40.46L52.99 40.46L52.99 44.14L19.15 44.14ZM68.26 64.30L68.26 59.04L30.10 59.04C30.74 58.03 31.25 57.10 31.75 56.02L59.54 56.02L59.54 36.36L12.89 36.36L12.89 56.02L24.62 56.02C24.19 57.02 23.54 58.03 22.82 59.04L4.03 59.04L4.03 64.30L18.00 64.30C14.26 67.68 9.07 70.78 2.52 73.08C3.74 74.16 5.54 76.46 6.26 77.98C9.79 76.54 12.89 75.02 15.70 73.22L15.70 89.21L22.25 89.21L22.25 87.19L50.26 87.19L50.26 89.21L57.10 89.21L57.10 73.08C59.90 74.66 62.86 75.89 65.88 76.82C66.60 75.24 68.47 72.94 69.70 71.78C63.72 70.34 57.74 67.61 53.35 64.30Z"/></svg>
