<svg xmlns="http://www.w3.org/2000/svg" xmlns:xlink="http://www.w3.org/1999/xlink" width="72.00000000000001" height="106.56000000000002"><path fill="red" stroke="red" d="M61.56 33.19C60.55 36.07 59.18 38.66 57.60 40.97C54.50 38.45 50.11 35.50 46.44 33.19ZM41.26 39.10C42.12 38.30 42.91 37.37 43.70 36.43C47.59 38.95 51.70 42.12 54.58 44.50C53.14 45.86 51.55 47.09 49.90 48.24C47.66 45.50 44.21 41.98 41.26 39.10ZM65.16 27.72L63.94 28.01L49.61 28.01C50.26 26.71 50.98 25.56 51.55 24.26L45.07 23.18C42.62 28.73 37.80 35.21 30.82 39.96C32.33 40.82 34.42 42.77 35.50 44.14C36.36 43.49 37.15 42.91 37.80 42.26C40.61 45.07 43.49 48.24 45.36 50.69C42.34 52.13 38.88 53.14 35.28 53.86C36.50 55.08 37.80 57.38 38.52 58.90C53.93 55.15 65.09 47.38 69.19 29.16ZM9.36 47.66C9.36 54.14 11.09 56.38 17.71 56.38L28.15 56.38C30.46 56.38 32.83 56.30 34.06 55.87C33.84 54.50 33.55 51.98 33.48 50.33C32.11 50.62 29.66 50.76 28.01 50.76L17.71 50.76C15.91 50.76 15.48 49.97 15.48 47.81L15.48 36.07L35.50 36.07L35.50 30.38L24.84 30.38C23.98 28.15 22.75 25.27 21.60 23.04L15.62 24.70C16.42 26.35 17.21 28.51 17.93 30.38L3.46 30.38L3.46 36.07L9.36 36.07ZM39.24 76.75L63.94 76.75L63.94 71.35L39.24 71.35L39.24 65.74C48.17 65.02 56.59 64.08 63.36 62.86L60.34 57.46C47.81 59.76 26.57 61.13 8.78 61.49C9.36 63.00 10.08 65.30 10.22 66.96C17.28 66.89 24.98 66.60 32.54 66.17L32.54 71.35L8.50 71.35L8.50 76.75L32.54 76.75L32.54 82.22L4.32 82.22L4.32 87.77L67.68 87.77L67.68 82.22L39.24 82.22Z"/></svg>
