<svg xmlns="http://www.w3.org/2000/svg" xmlns:xlink="http://www.w3.org/1999/xlink" width="72.00000000000001" height="106.56000000000002"><path fill="red" stroke="red" d="M32.40 51.62L39.17 51.62L39.17 40.90C48.38 44.42 58.97 49.18 64.80 52.49L68.40 47.38C61.99 43.92 49.97 38.95 40.46 35.64L67.18 35.64L67.18 29.95L39.17 29.95L39.17 23.18L32.40 23.18L32.40 29.95L4.90 29.95L4.90 35.64L27.58 35.64C21.24 40.61 11.59 44.71 2.66 46.87C4.10 48.17 5.98 50.76 6.91 52.27C15.91 49.75 25.49 44.93 32.40 39.10ZM39.02 65.88C45.22 63.36 51.55 59.83 56.38 56.38L52.13 52.63L50.76 52.99L16.49 52.99L16.49 58.75L42.41 58.75C39.31 60.55 35.71 62.21 32.47 63.43L32.47 66.82L4.18 66.82L4.18 72.94L32.47 72.94L32.47 81.65C32.47 82.58 32.11 82.80 30.74 82.87C29.52 82.94 24.70 82.94 20.09 82.80C21.17 84.38 22.61 87.19 23.11 88.99C28.80 88.99 32.62 88.92 35.42 87.91C38.16 86.98 39.02 85.25 39.02 81.79L39.02 72.94L67.90 72.94L67.90 66.82L39.02 66.82Z"/></svg>
