<svg xmlns="http://www.w3.org/2000/svg" xmlns:xlink="http://www.w3.org/1999/xlink" width="72.00000000000001" height="106.56000000000002"><path fill="red" stroke="red" d="M60.12 54.58C66.10 54.58 67.97 52.34 68.69 44.14C66.89 43.70 64.15 42.77 62.78 41.69C62.42 47.59 61.92 48.60 59.54 48.60L49.32 48.60C46.15 48.60 45.65 48.17 45.65 45.86L45.65 38.02L64.73 38.02L64.73 32.18L45.65 32.18L45.65 23.18L38.95 23.18L38.95 45.94C38.95 52.63 40.82 54.58 48.46 54.58ZM36.22 45.86L26.21 47.16L26.21 37.87L35.57 37.87L35.57 32.11L26.21 32.11L26.21 23.18L19.58 23.18L19.58 48.02L14.04 48.74L14.04 29.09L7.70 29.09L7.70 49.54L2.95 50.11L3.60 56.38C12.31 55.15 24.70 53.42 36.43 51.84ZM19.37 69.77C16.20 74.81 10.22 79.49 4.46 82.58C5.98 83.52 8.86 85.75 10.08 86.83C15.84 83.38 22.25 77.76 26.06 71.78ZM44.93 73.22C50.76 76.90 58.03 82.51 61.49 86.26L66.74 82.01C63.14 78.26 55.73 72.94 49.90 69.48ZM39.10 54.14L32.04 54.14L32.04 60.84L4.54 60.84L4.54 67.18L32.04 67.18L32.04 89.14L39.10 89.14L39.10 67.18L67.39 67.18L67.39 60.84L39.10 60.84Z"/></svg>
