<svg xmlns="http://www.w3.org/2000/svg" xmlns:xlink="http://www.w3.org/1999/xlink" width="72.00000000000001" height="106.56000000000002"><path fill="red" stroke="red" d="M68.33 33.41L48.02 33.41L52.63 31.39C51.55 28.87 49.25 25.27 46.87 22.61L41.04 24.91C42.98 27.43 45.14 30.89 46.15 33.41L29.02 33.41L29.02 39.60L68.33 39.60ZM51.34 43.78C55.94 48.31 61.27 54.65 63.50 58.90L68.47 54.65C66.02 50.47 60.55 44.42 55.94 40.10ZM28.30 60.70C27.00 58.46 21.38 49.10 19.58 46.58L19.58 43.99L27.22 43.99L27.22 37.87L19.58 37.87L19.58 23.18L13.46 23.18L13.46 37.80L4.54 37.80L4.54 43.99L12.31 43.99C10.37 53.35 6.41 64.15 2.23 69.98C3.38 71.64 4.82 74.66 5.47 76.54C8.50 71.86 11.30 64.51 13.46 56.88L13.46 89.14L19.58 89.14L19.58 55.30C21.38 58.97 23.40 63.22 24.34 65.66ZM54.00 53.35C52.63 58.61 50.40 63.29 47.45 67.39C44.35 63.36 41.83 58.68 40.03 53.57L35.42 54.72C38.66 51.26 41.69 47.23 43.99 43.34L38.09 40.61C35.42 45.58 30.82 51.48 26.28 55.15C27.72 56.16 29.81 57.96 30.89 59.26C32.04 58.18 33.26 57.02 34.49 55.87C36.72 62.06 39.67 67.61 43.27 72.50C38.66 77.33 32.76 81.14 25.70 84.10C27.14 85.18 29.09 87.84 29.95 89.21C36.94 86.18 42.77 82.30 47.59 77.47C52.42 82.44 58.25 86.26 65.16 88.70C66.17 86.83 68.18 84.10 69.70 82.73C62.71 80.64 56.74 77.04 51.98 72.36C55.66 67.39 58.46 61.63 60.41 55.01Z"/></svg>
