<svg xmlns="http://www.w3.org/2000/svg" xmlns:xlink="http://www.w3.org/1999/xlink" width="72.00000000000001" height="106.56000000000002"><path fill="red" stroke="red" d="M28.94 58.54C27.65 56.45 22.18 47.81 20.23 45.14L20.23 42.91L28.94 42.91L28.94 36.72L20.23 36.72L20.23 23.18L13.68 23.18L13.68 36.72L3.89 36.72L3.89 42.91L13.18 42.91C11.09 52.20 6.84 63.00 2.30 68.69C3.46 70.49 4.97 73.44 5.62 75.38C8.57 71.06 11.45 64.51 13.68 57.46L13.68 89.21L20.23 89.21L20.23 53.42C22.03 57.02 24.05 60.91 24.98 63.22ZM68.40 59.69L68.40 53.57L52.49 53.57L52.49 42.19L66.24 42.19L66.24 36.07L52.49 36.07L52.49 23.18L45.94 23.18L45.94 36.07L39.74 36.07C40.39 33.34 40.97 30.53 41.40 27.58L35.21 26.57C34.06 34.92 31.82 43.20 28.15 48.53C29.59 49.25 32.33 50.98 33.48 51.91C35.21 49.25 36.72 45.94 37.94 42.19L45.94 42.19L45.94 53.57L29.45 53.57L29.45 59.69L42.48 59.69C38.52 68.26 31.97 76.32 25.13 80.64C26.57 81.86 28.58 84.17 29.59 85.82C35.93 81.29 41.69 73.73 45.94 65.30L45.94 89.21L52.49 89.21L52.49 64.80C55.94 72.79 60.70 80.57 65.52 85.25C66.67 83.52 68.83 81.22 70.42 79.99C64.87 75.53 59.40 67.68 56.02 59.69Z"/></svg>
