<svg xmlns="http://www.w3.org/2000/svg" xmlns:xlink="http://www.w3.org/1999/xlink" width="72.00000000000001" height="106.56000000000002"><path fill="red" stroke="red" d="M62.57 33.12C61.13 37.80 58.18 44.21 55.94 48.24L60.70 50.47C63.14 46.58 66.10 40.75 68.69 35.64ZM26.93 56.95C25.63 55.08 20.38 47.59 18.29 44.93L18.29 42.91L24.77 42.91L24.77 36.72L18.29 36.72L18.29 23.18L11.95 23.18L11.95 36.72L3.24 36.72L3.24 42.91L11.66 42.91C9.94 52.06 6.19 62.93 2.23 68.76C3.24 70.49 4.82 73.51 5.54 75.46C7.85 71.64 10.15 65.95 11.95 59.69L11.95 89.21L18.29 89.21L18.29 53.14C20.09 56.30 21.89 59.69 22.82 61.85ZM26.64 35.71C29.02 40.46 31.54 46.73 32.40 50.90L37.73 48.53C36.65 44.57 34.13 38.30 31.61 33.70ZM37.73 23.26L37.73 52.92C37.73 54.29 37.73 55.66 37.66 57.10C32.76 60.62 27.86 64.15 24.48 66.17L27.79 72.43C30.74 69.84 33.98 67.03 37.15 64.22C36.00 72.36 32.76 80.21 23.40 84.60C24.70 85.75 26.78 88.13 27.65 89.50C41.98 81.22 43.78 66.17 43.78 52.92L43.78 23.26ZM57.60 82.30C56.09 82.30 55.87 81.86 55.87 78.91L55.87 60.48C59.54 64.15 63.50 68.54 65.52 71.42L69.77 67.25C67.25 63.86 61.99 58.61 57.82 54.79L55.87 56.45L55.87 23.18L49.54 23.18L49.54 78.84C49.54 86.33 51.12 88.27 56.45 88.27L62.86 88.27C67.68 88.27 69.19 85.10 69.84 76.39C68.04 75.96 65.66 74.81 64.22 73.66C64.08 80.42 63.79 82.30 62.35 82.30Z"/></svg>
