<svg xmlns="http://www.w3.org/2000/svg" xmlns:xlink="http://www.w3.org/1999/xlink" width="72.00000000000001" height="106.56000000000002"><path fill="red" stroke="red" d="M66.89 32.54C65.81 30.31 63.22 27.00 60.77 24.62L56.38 27.07C58.75 29.52 61.27 33.05 62.35 35.28ZM25.92 56.02C24.91 54.36 20.30 47.88 18.65 45.79L18.65 43.99L24.62 43.99L24.62 37.80L18.65 37.80L18.65 23.11L12.46 23.11L12.46 37.80L4.39 37.80L4.39 43.99L12.46 43.99L12.46 44.57C10.51 53.86 6.55 64.44 2.38 70.13C3.46 71.86 4.97 74.74 5.62 76.54C8.06 72.72 10.51 67.10 12.46 60.98L12.46 89.21L18.65 89.21L18.65 53.57C20.09 56.23 21.60 59.11 22.39 60.91ZM44.93 81.22L44.93 63.14L48.60 63.14L48.60 57.31L44.93 57.31L44.93 45.43L39.74 45.43L39.74 57.31L35.35 57.31L35.35 45.50L30.17 45.50L30.17 57.31L26.21 57.31L26.21 63.14L30.02 63.14C29.66 70.20 28.30 77.62 23.04 83.59C24.41 84.31 26.42 85.97 27.36 86.98C33.26 80.06 34.85 71.50 35.28 63.14L39.74 63.14L39.74 81.22ZM62.50 47.38C61.20 53.93 59.40 59.83 56.95 65.09C56.09 58.75 55.30 50.90 54.86 42.34L68.11 42.34L68.11 36.29L54.65 36.29C54.50 32.04 54.43 27.58 54.50 23.18L48.31 23.18C48.38 27.58 48.46 31.97 48.60 36.29L26.93 36.29L26.93 42.34L48.82 42.34C49.46 54.29 50.47 65.09 52.34 73.30C49.18 77.98 45.22 81.86 40.54 84.89C41.90 85.75 44.21 87.62 45.14 88.63C48.53 86.18 51.48 83.30 54.14 79.99C56.16 85.54 58.68 88.85 61.99 88.85C66.60 88.85 68.33 85.82 69.26 75.89C67.75 75.24 65.81 73.94 64.58 72.58C64.37 79.63 63.72 82.87 62.78 82.87C61.34 82.87 59.83 79.49 58.54 73.73C62.86 66.67 66.02 58.18 68.11 48.24Z"/></svg>
