<svg xmlns="http://www.w3.org/2000/svg" xmlns:xlink="http://www.w3.org/1999/xlink" width="72.00000000000001" height="106.56000000000002"><path fill="red" stroke="red" d="M57.02 36.86L35.78 36.86L35.78 31.39L57.02 31.39ZM57.02 47.23L35.78 47.23L35.78 41.76L57.02 41.76ZM63.58 26.21L29.45 26.21L29.45 52.42L63.58 52.42ZM19.01 42.91L26.64 42.91L26.64 36.72L19.01 36.72L19.01 23.18L12.89 23.18L12.89 36.72L4.32 36.72L4.32 42.91L12.46 42.91C10.44 52.20 6.41 63.00 2.02 68.69C3.17 70.49 4.68 73.51 5.33 75.53C8.14 71.21 10.80 64.66 12.89 57.74L12.89 89.21L19.01 89.21L19.01 54.72C20.88 58.32 22.75 62.28 23.69 64.66L27.58 59.90C26.42 57.82 21.17 49.46 19.01 46.30ZM36.79 80.93L36.79 68.54L46.37 68.54L46.37 62.86L36.79 62.86L36.79 54.22L30.38 54.22L30.38 79.99C30.38 82.37 29.16 82.94 28.08 83.30C28.94 84.74 29.81 87.70 30.02 89.42C31.39 88.49 33.70 87.62 47.38 83.88C47.02 82.58 46.51 80.35 46.37 78.70ZM56.74 82.80C55.15 82.80 54.86 82.51 54.86 80.42L54.86 68.54L66.82 68.54L66.82 62.86L54.86 62.86L54.86 54.36L48.82 54.36L48.82 80.42C48.82 86.47 50.11 88.20 55.80 88.20L62.28 88.20C66.96 88.20 68.47 85.90 69.12 77.33C67.46 76.90 65.02 75.89 63.72 74.95C63.50 81.65 63.22 82.80 61.70 82.80Z"/></svg>
