<svg xmlns="http://www.w3.org/2000/svg" xmlns:xlink="http://www.w3.org/1999/xlink" width="72.00000000000001" height="106.56000000000002"><path fill="red" stroke="red" d="M57.53 50.54L57.53 54.00L38.45 54.00L38.45 50.54ZM38.38 61.92C38.45 60.62 38.45 59.47 38.45 58.25L57.53 58.25L57.53 61.92ZM59.54 75.10L59.54 81.94L42.84 81.94L42.84 75.10ZM63.50 66.82L63.50 45.72L32.18 45.72L32.18 57.89C32.18 66.10 31.46 77.54 25.34 85.75C26.86 86.40 29.59 88.27 30.74 89.28C34.13 84.74 36.00 79.06 37.15 73.44L37.15 89.14L42.84 89.14L42.84 86.98L59.54 86.98L59.54 88.99L65.45 88.99L65.45 70.13L37.66 70.13C37.80 68.98 37.94 67.90 38.02 66.82ZM41.04 37.30C43.49 35.28 45.86 32.98 47.95 30.60C50.11 32.83 52.70 35.21 55.44 37.30ZM46.80 22.54C42.26 29.59 34.13 35.71 25.99 39.38L25.99 37.80L19.01 37.80L19.01 23.11L12.82 23.11L12.82 37.80L4.10 37.80L4.10 43.99L12.31 43.99C10.37 52.78 6.48 63.07 2.38 68.54C3.46 70.27 4.97 73.15 5.54 74.95C8.21 70.99 10.80 64.94 12.82 58.39L12.82 89.14L19.01 89.14L19.01 55.58C21.10 59.18 23.47 63.36 24.55 65.81L28.30 60.77C27.00 58.75 21.10 50.54 19.01 47.88L19.01 43.99L25.99 43.99L25.99 39.46C27.07 40.90 28.66 43.85 29.30 45.14C32.90 43.27 36.58 40.90 39.96 38.16L39.96 41.98L56.09 41.98L56.09 37.80C59.40 40.25 62.86 42.55 66.17 44.21C66.67 42.55 67.90 39.82 68.90 38.38C62.71 35.78 55.44 31.03 51.19 26.42C51.62 25.85 51.98 25.20 52.42 24.62Z"/></svg>
