<svg xmlns="http://www.w3.org/2000/svg" xmlns:xlink="http://www.w3.org/1999/xlink" width="72.00000000000001" height="106.56000000000002"><path fill="red" stroke="red" d="M30.60 33.84L43.27 33.84L40.68 36.36C43.06 38.38 46.37 41.33 48.10 43.27L51.05 40.03C49.39 38.38 46.37 35.78 43.92 33.84L61.78 33.84L61.78 39.53L67.75 39.53L67.75 28.73L50.83 28.73C50.11 26.93 48.96 24.70 47.95 22.82L42.12 24.26C42.70 25.63 43.49 27.22 44.06 28.73L24.91 28.73L24.91 39.53L30.60 39.53ZM36.14 38.45L36.14 43.06C36.14 47.66 37.44 48.96 43.06 48.96L51.91 48.96C55.73 48.96 57.17 47.66 57.67 42.84C56.38 42.62 54.43 41.90 53.50 41.18C53.28 44.21 52.92 44.64 51.34 44.64L43.56 44.64C41.26 44.64 40.90 44.42 40.90 42.98L40.90 38.45ZM66.10 45.79C64.58 43.56 61.63 39.89 59.47 37.22L55.08 39.02C57.31 41.83 60.12 45.65 61.42 48.02ZM29.66 48.89C32.04 46.73 34.13 43.49 35.64 40.90L31.32 38.59C29.88 41.04 27.65 44.14 25.42 46.01ZM24.12 59.40C23.11 57.38 18.79 49.75 16.92 47.02L16.92 42.91L23.18 42.91L23.18 36.72L16.92 36.72L16.92 23.18L11.59 23.18L11.59 36.72L3.89 36.72L3.89 42.91L10.73 42.91C9.07 51.77 5.76 61.92 2.23 67.46C3.10 69.12 4.46 72.14 4.97 74.09C7.42 69.77 9.79 63.00 11.59 55.87L11.59 89.21L16.92 89.21L16.92 54.86C18.50 58.25 20.09 61.99 20.95 64.15ZM25.13 74.74L44.86 74.74L44.86 82.30C44.86 83.09 44.57 83.30 43.63 83.30C42.70 83.38 39.46 83.38 36.22 83.23C36.94 84.82 37.73 87.12 38.02 88.78C42.62 88.78 45.86 88.78 48.02 87.84C50.18 87.05 50.76 85.46 50.76 82.51L50.76 74.74L67.18 74.74L67.18 69.70L25.13 69.70ZM34.06 55.66L39.31 55.66L39.31 61.49L34.06 61.49ZM49.10 55.66L49.10 61.49L43.78 61.49L43.78 55.66ZM58.97 55.66L58.97 61.49L53.57 61.49L53.57 55.66ZM64.44 61.49L64.44 51.26L28.80 51.26L28.80 61.49L23.04 61.49L23.04 66.53L69.05 66.53L69.05 61.49Z"/></svg>
