<svg xmlns="http://www.w3.org/2000/svg" xmlns:xlink="http://www.w3.org/1999/xlink" width="72.00000000000001" height="106.56000000000002"><path fill="red" stroke="red" d="M60.98 42.12C60.26 46.44 59.18 50.83 58.10 54.00L63.07 56.74C65.16 51.70 67.10 44.06 68.33 37.37L63.79 35.64L62.71 36.07L45.14 36.07C46.08 32.18 46.87 28.15 47.45 24.05L40.68 23.04C39.24 34.34 36.43 45.43 31.68 52.34C33.19 53.35 36.07 55.51 37.15 56.74C39.74 52.78 41.83 47.81 43.56 42.12ZM31.46 75.74L21.46 77.69L21.46 59.33L31.39 59.33L31.39 53.64L21.46 53.64L21.46 46.80L29.02 46.80L29.02 41.18L11.45 41.18C14.04 38.59 16.42 35.71 18.50 32.62C23.11 35.71 27.86 39.38 30.74 42.26L33.84 36.65C30.96 34.06 26.35 30.67 21.60 27.86C22.18 26.86 22.68 25.92 23.18 24.98L17.78 22.68C14.33 29.45 8.28 35.86 2.52 39.96C3.46 41.62 4.90 45.29 5.33 46.73C6.55 45.79 7.78 44.78 9.00 43.63L9.00 46.80L15.62 46.80L15.62 53.64L4.82 53.64L4.82 59.33L15.62 59.33L15.62 78.77C11.16 79.56 7.06 80.28 3.89 80.86L5.33 86.83C12.67 85.32 22.61 83.16 31.90 81.14ZM5.90 63.72C7.06 67.90 8.14 73.15 8.50 76.68L13.25 75.31C12.89 71.93 11.66 66.67 10.44 62.57ZM27.00 75.74C28.15 72.58 29.66 67.61 30.96 63.22L25.85 61.85C25.27 65.59 23.90 71.06 22.82 74.52ZM46.30 45.58C45.58 61.49 42.62 77.18 28.51 84.53C29.74 85.75 31.46 88.27 32.18 89.64C41.11 84.96 46.22 77.11 49.10 67.90C52.49 77.69 57.74 85.32 65.74 89.42C66.67 87.55 68.62 84.89 70.06 83.52C60.05 79.13 54.50 68.76 51.70 56.30C52.20 52.92 52.56 49.54 52.85 46.08Z"/></svg>
