<svg xmlns="http://www.w3.org/2000/svg" xmlns:xlink="http://www.w3.org/1999/xlink" width="72.00000000000001" height="106.56000000000002"><path fill="red" stroke="red" d="M26.14 40.68L26.14 45.22L13.39 45.22L13.39 40.68ZM13.39 54.36L13.39 53.64L13.39 49.75L26.14 49.75L26.14 54.36ZM13.10 63.86C13.18 62.28 13.25 60.84 13.32 59.33L32.26 59.33L32.26 35.78L13.39 35.78L13.39 32.18C20.52 31.61 28.15 30.60 33.91 29.16L30.74 23.76C24.77 25.34 15.34 26.71 7.27 27.43L7.27 53.64C7.27 63.36 6.91 76.18 2.02 85.10C3.38 85.90 5.98 87.98 6.91 89.28C10.01 83.88 11.74 76.75 12.53 69.70L26.14 69.70C25.85 77.69 25.34 80.86 24.55 81.86C24.05 82.44 23.47 82.58 22.46 82.51C21.38 82.51 18.79 82.51 15.91 82.22C16.92 83.88 17.64 86.40 17.71 88.27C20.88 88.34 23.98 88.34 25.56 88.13C27.58 87.91 28.80 87.41 30.02 86.04C31.54 84.10 32.11 78.98 32.62 66.38C32.69 65.52 32.69 63.86 32.69 63.86ZM57.96 60.48C56.23 64.94 53.71 68.76 50.62 72.07C47.52 68.69 45.07 64.87 43.34 60.48ZM61.99 54.14L60.84 54.36L38.30 54.36C45.00 49.68 46.37 42.41 46.37 36.36L46.37 31.82L55.37 31.82L55.37 42.84C55.37 48.60 56.38 51.12 61.49 51.12L65.30 51.12C66.53 51.12 67.90 51.05 68.69 50.69C68.47 49.10 68.40 47.02 68.26 45.29C67.39 45.58 66.02 45.65 65.23 45.65L62.57 45.65C61.63 45.65 61.56 44.86 61.56 42.91L61.56 25.99L40.25 25.99L40.25 36.29C40.25 41.04 39.46 46.37 33.26 50.33C34.42 51.05 36.50 52.99 37.51 54.36L35.28 54.36L35.28 60.48L39.10 60.48L37.15 60.98C39.38 66.89 42.26 72.00 45.94 76.32C41.69 79.63 36.65 82.08 31.18 83.59C32.47 84.96 33.98 87.62 34.78 89.35C40.61 87.34 45.94 84.60 50.54 80.93C54.72 84.46 59.62 87.19 65.30 89.06C66.24 87.26 68.11 84.67 69.62 83.30C64.15 81.79 59.40 79.56 55.44 76.46C60.26 71.14 64.01 64.30 66.24 55.66Z"/></svg>
