<svg xmlns="http://www.w3.org/2000/svg" xmlns:xlink="http://www.w3.org/1999/xlink" width="72.00000000000001" height="106.56000000000002"><path fill="red" stroke="red" d="M24.62 31.46C21.53 29.09 15.19 25.85 10.58 23.90L6.91 28.80C11.59 31.03 17.86 34.56 20.74 37.08ZM20.02 50.62C17.06 48.24 11.02 45.22 6.62 43.42L3.02 48.38C7.56 50.54 13.46 53.86 16.27 56.16ZM18.58 61.20C14.47 69.34 8.86 78.55 5.04 83.95L10.73 88.49C14.90 81.72 19.73 73.15 23.54 65.66ZM68.83 48.96L68.83 42.41L47.45 42.41C48.10 35.50 48.17 28.94 48.24 23.18L41.54 23.18C41.47 28.80 41.54 35.42 40.90 42.41L22.82 42.41L22.82 48.96L40.03 48.96C37.94 62.42 32.47 76.10 18.72 84.38C20.59 85.61 22.68 87.55 23.76 89.21C28.51 86.11 32.26 82.44 35.42 78.41C39.53 81.29 44.14 85.39 46.37 88.20L51.05 83.23C48.53 80.42 43.49 76.46 39.02 73.66L37.94 74.74C41.90 68.33 44.28 61.20 45.79 54.00C49.46 69.26 55.58 81.94 65.16 89.35C66.24 87.62 68.33 85.25 69.84 84.02C60.19 77.26 54.07 64.08 50.83 48.96Z"/></svg>
