<svg xmlns="http://www.w3.org/2000/svg" xmlns:xlink="http://www.w3.org/1999/xlink" width="72.00000000000001" height="106.56000000000002"><path fill="red" stroke="red" d="M21.60 32.40C19.15 30.10 14.26 26.78 10.58 24.70L6.41 29.02C10.15 31.32 14.90 34.85 17.28 37.15ZM18.36 50.76C15.91 48.38 10.94 44.93 7.20 42.77L3.02 47.02C6.84 49.39 11.66 53.06 13.97 55.51ZM10.37 87.41C13.54 80.78 17.21 72.36 19.94 65.02L14.69 61.27C11.59 69.26 7.42 78.26 4.39 83.74ZM33.12 64.51L33.12 46.80L41.83 45.00L41.04 39.17L33.12 40.75L33.12 24.84L27.14 24.84L27.14 41.98L19.94 43.49L20.81 49.32L27.14 48.02L27.14 65.02C27.14 67.82 25.63 69.19 24.48 69.84C25.49 71.28 26.71 74.23 27.14 75.96C28.30 74.59 30.31 73.22 42.19 65.81C41.69 64.51 40.97 61.85 40.82 60.05ZM67.32 27.94L40.18 27.94L40.18 34.20L47.59 34.20C47.38 58.25 46.66 75.31 30.17 84.38C31.61 85.46 33.55 87.77 34.42 89.28C52.06 78.91 53.28 60.05 53.57 34.20L61.13 34.20C60.62 67.25 60.05 78.70 58.61 81.00C57.89 82.15 57.31 82.44 56.23 82.44C55.08 82.44 52.63 82.44 49.90 82.15C50.98 84.02 51.70 86.98 51.77 88.78C54.65 88.92 57.38 88.99 59.26 88.63C61.42 88.20 62.71 87.48 64.08 85.25C66.31 81.86 66.67 69.34 67.32 31.32Z"/></svg>
