<svg xmlns="http://www.w3.org/2000/svg" xmlns:xlink="http://www.w3.org/1999/xlink" width="72.00000000000001" height="106.56000000000002"><path fill="red" stroke="red" d="M23.47 31.39C20.52 29.30 14.62 26.06 10.37 24.12L6.55 28.87C10.87 31.18 16.63 34.56 19.44 36.79ZM19.87 50.69C16.78 48.60 10.73 45.58 6.55 43.56L2.95 48.46C7.27 50.76 13.25 54.14 16.13 56.23ZM11.02 88.20C15.19 81.43 19.87 73.01 23.69 65.59L18.86 61.27C14.62 69.26 9.14 78.34 5.33 83.81ZM57.89 66.10L57.89 79.85L34.42 79.85L34.42 66.10ZM28.01 89.14L34.42 89.14L34.42 85.97L57.89 85.97L57.89 88.85L64.66 88.85L64.66 59.98L28.01 59.98ZM26.06 26.57L26.06 32.76L38.59 32.76C37.08 41.54 33.70 49.39 21.96 53.71C23.33 54.86 25.13 57.38 25.92 58.90C39.46 53.50 43.63 43.99 45.43 32.76L59.40 32.76C58.97 43.78 58.39 48.24 57.31 49.39C56.66 50.11 55.94 50.18 54.72 50.18C53.35 50.18 49.90 50.18 46.37 49.82C47.38 51.55 48.17 54.14 48.38 56.02C52.06 56.16 55.73 56.16 57.67 55.94C59.98 55.66 61.49 55.15 62.93 53.57C64.73 51.34 65.45 45.14 66.10 29.23C66.17 28.37 66.17 26.57 66.17 26.57Z"/></svg>
