<svg xmlns="http://www.w3.org/2000/svg" xmlns:xlink="http://www.w3.org/1999/xlink" width="72.00000000000001" height="106.56000000000002"><path fill="red" stroke="red" d="M24.48 32.47C21.38 29.95 15.26 26.21 10.87 23.83L6.91 28.58C11.38 31.25 17.42 35.14 20.38 37.66ZM20.09 50.62C17.06 48.53 11.02 45.43 6.77 43.49L3.17 48.46C7.49 50.62 13.46 54.00 16.34 56.23ZM11.23 88.27C15.41 81.50 20.23 72.94 23.98 65.45L19.08 60.98C14.98 69.19 9.43 78.34 5.54 83.81ZM58.10 79.78L34.34 79.78L34.34 64.73L58.10 64.73ZM69.05 44.78L69.05 38.30L49.32 38.30L49.32 23.04L42.41 23.04L42.41 38.30L23.54 38.30L23.54 44.78L42.41 44.78L42.41 58.39L27.72 58.39L27.72 89.14L34.34 89.14L34.34 86.11L58.10 86.11L58.10 88.85L65.02 88.85L65.02 58.39L49.32 58.39L49.32 44.78Z"/></svg>
