<svg xmlns="http://www.w3.org/2000/svg" xmlns:xlink="http://www.w3.org/1999/xlink" width="72.00000000000001" height="106.56000000000002"><path fill="red" stroke="red" d="M67.32 36.07L23.83 36.07L23.83 42.55L67.32 42.55ZM40.32 76.18C39.53 67.82 37.51 55.73 35.28 46.01L28.94 47.30C31.03 56.81 33.05 69.34 33.62 77.62ZM49.82 34.13C49.10 30.96 47.59 26.28 46.08 22.68L39.82 24.26C41.11 27.94 42.62 32.83 43.20 36.00ZM24.55 31.32C21.46 28.80 15.48 25.78 10.80 23.90L7.20 28.87C11.88 30.89 17.78 34.27 20.66 36.86ZM20.16 50.69C17.21 48.24 11.23 45.22 6.77 43.49L3.24 48.46C7.78 50.47 13.68 53.78 16.49 56.23ZM19.15 61.06C14.98 69.19 9.50 78.34 5.62 83.81L11.30 88.27C15.55 81.50 20.38 72.94 24.12 65.45ZM54.00 79.56C56.66 70.56 59.69 57.46 61.63 46.51L54.50 45.22C53.06 55.87 50.04 70.42 47.30 79.56L20.74 79.56L20.74 85.97L69.05 85.97L69.05 79.56Z"/></svg>
