<svg xmlns="http://www.w3.org/2000/svg" xmlns:xlink="http://www.w3.org/1999/xlink" width="72.00000000000001" height="106.56000000000002"><path fill="red" stroke="red" d="M49.46 63.72C47.88 65.88 45.36 68.76 43.06 71.21C41.76 70.63 40.61 70.13 39.46 69.62L39.46 57.53L32.98 57.53L32.98 71.64C30.10 72.72 27.22 73.73 24.26 74.74L28.66 71.21C27.14 69.12 23.83 66.24 21.02 64.30L16.56 67.75C19.22 69.77 22.39 72.79 23.98 74.81C17.86 76.97 12.24 78.84 8.06 80.14L11.09 85.75C17.35 83.45 25.34 80.42 32.98 77.40L32.98 82.44C32.98 83.23 32.69 83.52 31.68 83.59C30.82 83.59 27.58 83.59 24.19 83.52C25.06 85.03 25.99 87.26 26.28 88.85C31.18 88.85 34.42 88.78 36.58 87.98C38.81 87.12 39.46 85.68 39.46 82.58L39.46 75.96C46.51 79.27 54.14 83.38 58.75 86.26L62.57 81.14C59.04 79.06 53.78 76.32 48.38 73.73C50.62 71.64 52.85 69.26 54.86 67.10ZM68.11 55.30L68.11 49.75L30.38 49.75C31.25 48.10 32.11 46.51 32.90 44.78L61.85 44.78L61.85 39.53L35.14 39.53C35.71 37.94 36.29 36.50 36.79 34.92L64.66 34.92L64.66 29.52L38.16 29.52C38.66 27.58 39.02 25.63 39.38 23.69L32.33 23.11C32.04 25.20 31.68 27.43 31.25 29.52L7.78 29.52L7.78 34.92L29.81 34.92C29.30 36.50 28.80 37.94 28.15 39.53L11.38 39.53L11.38 44.78L25.70 44.78C24.84 46.51 23.90 48.10 22.75 49.75L3.82 49.75L3.82 55.30L18.50 55.30C14.33 60.05 9.22 64.15 2.81 67.61C4.39 68.40 6.70 70.63 7.78 72.07C15.77 67.61 21.96 61.78 26.71 55.30L44.86 55.30C49.82 62.42 57.38 68.40 65.52 71.50C66.53 69.84 68.47 67.32 69.91 66.10C63.29 64.01 56.88 60.05 52.34 55.30Z"/></svg>
