<svg xmlns="http://www.w3.org/2000/svg" xmlns:xlink="http://www.w3.org/1999/xlink" width="72.00000000000001" height="106.56000000000002"><path fill="red" stroke="red" d="M41.40 51.70L47.88 51.70L47.88 40.10C53.93 44.93 60.62 50.69 64.08 54.50L68.40 50.33C64.94 46.73 58.68 41.54 52.92 37.15L66.24 37.15L66.24 31.46L47.88 31.46L47.88 23.04L41.40 23.04L41.40 31.46L23.40 31.46L23.40 37.15L36.65 37.15C32.26 42.26 25.99 46.66 19.58 49.03C21.02 50.26 22.97 52.63 23.98 54.22C30.31 51.26 36.79 46.15 41.40 40.25ZM33.84 67.54L54.58 67.54L54.58 72.43L33.84 72.43ZM33.84 58.61L54.58 58.61L54.58 63.43L33.84 63.43ZM27.79 77.40L60.91 77.40L60.91 53.64L27.79 53.64ZM21.53 32.90C19.01 30.46 14.04 27.00 10.30 24.84L6.12 29.02C10.01 31.46 14.90 35.14 17.21 37.58ZM18.00 50.69C15.48 48.38 10.37 45.07 6.62 42.98L2.59 47.45C6.48 49.75 11.45 53.28 13.75 55.73ZM10.37 87.41C13.90 80.50 17.78 71.78 20.81 64.15L15.62 60.12C12.17 68.54 7.70 77.76 4.46 83.38ZM21.31 87.12L67.03 87.12L67.03 81.65L21.31 81.65Z"/></svg>
