<svg xmlns="http://www.w3.org/2000/svg" xmlns:xlink="http://www.w3.org/1999/xlink" width="72.00000000000001" height="106.56000000000002"><path fill="red" stroke="red" d="M21.60 34.20C19.37 31.46 14.62 27.58 10.87 24.84L6.41 28.44C10.15 31.32 14.76 35.50 16.99 38.30ZM18.29 52.56C15.91 49.97 11.02 46.30 7.13 43.78L2.88 47.66C6.77 50.33 11.52 54.22 13.75 56.88ZM10.08 87.41C13.68 81.07 17.71 73.08 20.81 66.02L15.84 62.14C12.31 69.77 7.70 78.34 4.39 83.38ZM43.99 49.39C42.98 45.86 40.32 39.89 38.16 35.35L33.55 37.37C34.34 39.31 35.35 41.47 36.22 43.70L29.09 47.02L29.09 31.97C33.55 30.89 38.23 29.66 42.05 28.08L38.09 23.11C34.34 24.98 28.30 26.93 23.18 28.15L23.18 45.58C23.18 49.10 21.67 51.05 20.66 52.06C21.60 53.06 23.26 55.30 23.83 56.59C24.91 55.37 26.86 54.14 38.09 48.53C38.52 49.82 38.88 50.90 39.17 51.91ZM41.62 64.22L41.62 70.20L31.75 70.20L31.75 64.22ZM57.67 70.20L47.59 70.20L47.59 64.22L57.67 64.22ZM47.59 81.29L47.59 75.31L57.67 75.31L57.67 81.29ZM31.75 81.29L31.75 75.31L41.62 75.31L41.62 81.29ZM25.78 89.14L31.75 89.14L31.75 86.62L57.67 86.62L57.67 88.85L63.94 88.85L63.94 58.82L25.78 58.82ZM42.77 26.71L42.77 32.11L48.82 32.11L48.82 32.62C48.82 38.52 47.66 47.52 42.05 54.36C43.56 54.79 46.15 56.02 47.16 56.95C52.99 49.75 54.43 39.60 54.43 32.69L54.43 32.11L60.70 32.11C60.41 43.99 59.98 48.53 59.11 49.61C58.75 50.26 58.18 50.40 57.31 50.40C56.38 50.40 54.43 50.33 52.27 50.11C53.14 51.70 53.71 54.14 53.78 55.87C56.30 55.94 58.82 55.94 60.19 55.73C61.99 55.51 63.14 54.94 64.30 53.50C65.81 51.55 66.24 45.36 66.67 29.23C66.67 28.37 66.74 26.71 66.74 26.71Z"/></svg>
