<svg xmlns="http://www.w3.org/2000/svg" xmlns:xlink="http://www.w3.org/1999/xlink" width="72.00000000000001" height="106.56000000000002"><path fill="red" stroke="red" d="M47.02 49.54C52.92 52.70 60.84 57.67 64.66 60.77L67.90 55.80C63.65 52.70 55.80 48.10 50.04 45.22ZM20.09 43.99L67.61 43.99L67.61 38.02L20.09 38.02ZM54.86 23.26C53.42 26.86 50.76 31.97 48.67 35.14L54.00 37.44C56.23 34.56 59.11 30.02 61.56 25.85ZM38.88 34.63C37.37 31.46 34.34 26.64 31.75 23.04L26.21 25.63C28.66 29.30 31.75 34.42 33.05 37.66ZM20.59 33.84C18.22 31.10 13.18 27.07 9.22 24.48L5.11 28.44C9.00 31.32 13.90 35.57 16.13 38.30ZM18.79 51.98C16.27 49.25 11.09 45.50 6.91 42.91L2.81 47.16C6.98 49.97 12.10 54.00 14.40 56.81ZM13.03 61.06C10.66 69.05 7.34 78.26 4.97 83.81L10.51 86.76C13.10 80.21 15.91 71.50 18.07 64.15ZM30.02 65.45L36.07 65.45L36.07 80.35L30.02 80.35ZM46.87 65.45L46.87 80.35L40.82 80.35L40.82 65.45ZM57.74 65.45L57.74 80.35L51.70 80.35L51.70 65.45ZM63.36 80.35L63.36 59.98L25.27 59.98C30.53 56.95 36.65 52.34 40.10 48.53L35.35 45.43C31.82 49.10 24.70 53.64 19.30 55.80C20.66 57.10 22.39 59.54 23.18 61.13C23.69 60.91 24.12 60.62 24.62 60.34L24.62 80.35L18.00 80.35L18.00 86.33L68.98 86.33L68.98 80.35Z"/></svg>
