<svg xmlns="http://www.w3.org/2000/svg" xmlns:xlink="http://www.w3.org/1999/xlink" width="72.00000000000001" height="106.56000000000002"><path fill="red" stroke="red" d="M19.22 30.96C16.99 28.66 12.31 25.70 8.57 23.83L4.68 28.66C8.50 30.60 13.10 33.84 15.19 36.22ZM17.42 49.46C15.19 47.30 10.37 44.50 6.55 42.84L2.81 47.66C6.62 49.54 11.30 52.63 13.46 54.86ZM9.94 88.42C12.60 81.58 15.62 72.94 17.93 65.30L12.38 61.92C9.86 70.13 6.34 79.42 3.82 85.03ZM41.26 35.14L28.58 35.14L35.14 33.19C34.34 30.60 32.40 26.71 30.67 23.90L24.34 25.78C25.99 28.73 27.72 32.69 28.37 35.14L18.00 35.14L18.00 40.68L41.26 40.68ZM39.10 45.29L21.10 45.29L21.10 50.54L39.10 50.54ZM21.10 60.34L39.10 60.34L39.10 55.08L21.10 55.08ZM34.42 70.13L34.42 79.34L26.28 79.34L26.28 70.13ZM40.18 64.87L20.52 64.87L20.52 88.34L26.28 88.34L26.28 84.60L40.18 84.60ZM68.54 53.86L58.46 53.86L58.46 39.38L67.54 39.38L67.54 33.19L50.83 33.19C51.55 30.24 52.27 27.22 52.85 24.12L47.09 22.97C45.58 31.61 43.06 40.32 39.24 45.94C40.68 46.58 43.27 48.10 44.42 49.03C46.01 46.37 47.59 43.06 48.82 39.38L52.34 39.38L52.34 53.86L41.04 53.86L41.04 60.12L52.34 60.12L52.34 89.21L58.46 89.21L58.46 60.12L68.54 60.12Z"/></svg>
