<svg xmlns="http://www.w3.org/2000/svg" xmlns:xlink="http://www.w3.org/1999/xlink" width="72.00000000000001" height="106.56000000000002"><path fill="red" stroke="red" d="M47.66 34.92L41.33 34.92L41.33 31.25L47.66 31.25ZM59.76 39.46L59.76 45.43L53.21 45.43L53.21 39.46ZM41.33 39.46L47.66 39.46L47.66 45.43L41.33 45.43ZM29.74 39.46L35.86 39.46L35.86 45.43L29.74 45.43ZM35.86 31.25L35.86 34.92L23.90 34.92L23.90 49.90L66.02 49.90L66.02 34.92L53.21 34.92L53.21 31.25L68.18 31.25L68.18 26.21L21.89 26.21L21.89 31.25ZM21.89 31.18C19.22 29.09 14.11 26.14 10.37 24.26L6.48 28.94C10.30 31.18 15.34 34.34 17.86 36.50ZM19.08 50.69C16.20 48.46 10.66 45.36 6.62 43.49L2.88 48.24C7.06 50.54 12.53 53.86 15.19 56.09ZM16.13 60.91C12.67 69.05 8.06 78.05 4.90 83.45L10.94 87.77C14.47 81.00 18.43 72.65 21.46 65.16ZM31.97 64.58L57.89 64.58L57.89 68.11L31.97 68.11ZM31.97 57.10L57.89 57.10L57.89 60.62L31.97 60.62ZM68.47 75.67L47.81 75.67L47.81 72.29L64.15 72.29L64.15 52.92L25.92 52.92L25.92 72.29L41.26 72.29L41.26 75.67L20.45 75.67L20.45 80.78L41.26 80.78L41.26 89.21L47.81 89.21L47.81 80.78L68.47 80.78Z"/></svg>
