<svg xmlns="http://www.w3.org/2000/svg" xmlns:xlink="http://www.w3.org/1999/xlink" width="72.00000000000001" height="106.56000000000002"><path fill="red" stroke="red" d="M20.95 30.82C18.29 28.94 13.25 25.92 9.72 23.98L5.76 28.66C9.43 30.89 14.47 34.20 16.99 36.22ZM18.22 49.39C15.55 47.59 10.37 44.78 6.62 42.91L2.81 47.74C6.62 49.90 11.81 52.92 14.40 54.79ZM13.82 61.99C10.94 70.20 7.06 79.27 4.10 84.89L10.22 88.34C13.25 81.65 16.63 73.08 19.22 65.52ZM29.38 38.74L39.31 38.74L39.31 41.83L31.39 42.41L31.61 46.94L39.31 46.22C39.46 50.11 40.68 52.20 45.72 52.20L56.59 52.20C58.75 52.20 61.27 52.13 62.50 51.77C62.28 50.33 62.14 49.18 61.99 47.52C60.84 47.88 57.74 47.95 56.16 47.95L47.30 47.95C45.50 47.95 45.29 47.30 45.29 45.65L45.29 45.07L56.66 44.14L56.45 40.46L45.29 41.33L45.29 38.74L61.49 38.74C61.13 40.54 60.70 42.41 60.26 43.70L65.38 44.86C66.46 42.26 67.68 38.23 68.40 34.70L64.22 33.77L63.22 33.98L46.30 33.98L46.30 30.82L64.30 30.82L64.30 26.64L46.30 26.64L46.30 23.11L39.96 23.11L39.96 33.98L23.40 33.98L23.40 51.19C23.40 61.20 22.75 75.24 16.49 85.18C17.93 85.90 20.52 87.84 21.53 88.92C28.22 78.19 29.38 62.14 29.38 51.19ZM58.18 61.92L50.69 61.92L50.69 58.46L58.18 58.46ZM58.18 68.76L50.69 68.76L50.69 65.23L58.18 65.23ZM38.09 65.23L45.43 65.23L45.43 68.76L38.09 68.76ZM38.09 58.46L45.43 58.46L45.43 61.92L38.09 61.92ZM63.72 54.86L32.76 54.86L32.76 72.36L43.63 72.36L41.90 74.02C45.22 75.38 49.18 77.83 51.19 79.63L54.43 76.10C53.06 74.88 50.90 73.51 48.53 72.36L63.72 72.36ZM30.82 88.20C34.13 85.32 35.86 80.78 36.79 76.46L32.04 74.81C31.10 78.62 29.30 82.58 26.50 84.82ZM46.37 83.59C44.42 83.59 44.06 83.38 44.06 81.94L44.06 75.67L38.59 75.67L38.59 81.94C38.59 86.90 39.96 88.34 45.65 88.34L53.50 88.34C57.60 88.34 59.11 86.83 59.69 81.07C58.10 80.71 56.02 79.99 54.94 79.13C54.72 83.09 54.36 83.59 52.85 83.59ZM56.88 76.61C60.05 79.78 63.36 84.31 64.66 87.41L69.26 84.89C67.97 81.72 64.51 77.33 61.27 74.16Z"/></svg>
