<svg xmlns="http://www.w3.org/2000/svg" xmlns:xlink="http://www.w3.org/1999/xlink" width="72.00000000000001" height="106.56000000000002"><path fill="red" stroke="red" d="M60.41 62.35L60.41 52.42C62.71 55.08 65.66 58.54 66.82 60.26L69.41 56.16C68.11 54.72 62.50 49.25 60.41 47.45L68.40 47.45L68.40 42.84L60.41 42.84L60.41 38.38C62.93 37.73 65.30 37.01 67.32 36.22L63.36 32.54C59.76 34.20 53.35 35.78 47.81 36.72C48.38 37.73 49.10 39.46 49.39 40.54C51.34 40.25 53.50 39.89 55.58 39.46L55.58 42.84L48.89 42.84L48.89 47.45L54.29 47.45C52.20 50.90 49.25 54.43 46.51 56.38C47.23 57.60 48.24 59.69 48.74 61.06C51.19 59.11 53.64 55.94 55.58 52.56L55.58 62.35ZM41.33 62.35L41.33 53.14C42.70 54.65 44.28 56.45 44.93 57.38L47.52 53.35C46.66 52.56 42.84 49.46 41.33 48.38L41.33 47.45L47.45 47.45L47.45 42.84L41.33 42.84L41.33 38.38C43.70 37.80 46.01 37.15 47.95 36.36L44.14 32.76C40.68 34.20 34.42 35.71 29.16 36.58C29.74 37.58 30.31 39.24 30.60 40.32C32.54 40.10 34.49 39.82 36.58 39.46L36.58 42.84L29.45 42.84L29.45 47.45L35.28 47.45C33.34 50.76 30.38 54.29 27.94 56.30C28.73 57.53 29.74 59.83 30.10 61.20C32.33 59.18 34.63 56.09 36.58 52.70L36.58 62.35ZM20.52 32.26C18.07 30.10 12.96 26.64 9.43 24.26L5.62 28.87C9.14 31.46 14.04 35.21 16.49 37.51ZM17.64 50.26C14.90 48.46 9.43 45.36 5.76 43.42L2.38 48.53C6.19 50.76 11.59 54.00 14.26 56.02ZM14.40 61.34C11.23 69.55 6.77 78.77 3.67 84.31L9.29 87.91C12.60 81.14 16.42 72.50 19.37 64.94ZM27.86 31.46L68.33 31.46L68.33 25.63L21.60 25.63L21.60 49.18C21.60 60.12 21.10 75.02 15.41 85.46C16.85 86.04 19.73 87.84 20.81 88.92C27.00 77.76 27.86 60.77 27.86 49.18ZM51.70 74.59L66.02 74.59L66.02 69.34L51.70 69.34L51.70 62.35L45.65 62.35L45.65 81.65L38.45 81.65L38.45 66.17L32.69 66.17L32.69 81.65L25.27 81.65L25.27 87.19L68.98 87.19L68.98 81.65L51.70 81.65Z"/></svg>
