<svg xmlns="http://www.w3.org/2000/svg" xmlns:xlink="http://www.w3.org/1999/xlink" width="72.00000000000001" height="106.56000000000002"><path fill="red" stroke="red" d="M23.83 35.28C23.04 40.54 21.31 48.17 19.87 52.92L23.98 54.72C25.70 50.26 27.65 43.20 29.52 37.51ZM11.59 54.43C11.02 49.82 9.22 41.54 7.49 35.28L2.52 36.43C4.18 42.84 5.69 51.26 6.34 56.09ZM27.36 75.96C26.06 74.23 20.74 67.03 18.14 63.79C18.86 58.68 19.01 53.50 19.01 48.24L19.01 23.76L13.03 23.76L13.03 48.24C13.03 61.06 11.95 74.52 2.74 84.82C4.18 85.82 6.34 88.06 7.34 89.42C12.24 84.02 15.12 77.76 16.85 71.21C19.01 74.52 21.38 78.26 22.68 80.64ZM48.02 41.11L57.17 41.11L57.17 55.58L47.88 55.58C47.95 53.42 48.02 51.19 48.02 49.03ZM68.26 61.92L68.26 55.58L63.43 55.58L63.43 34.85L48.02 34.85L48.02 23.90L41.54 23.90L41.54 34.85L30.89 34.85L30.89 41.11L41.54 41.11L41.54 48.96C41.54 51.12 41.47 53.42 41.33 55.58L27.65 55.58L27.65 61.92L40.54 61.92C38.88 70.42 34.63 78.19 24.26 84.24C25.78 85.25 28.01 87.77 29.02 89.21C41.04 82.01 45.65 72.36 47.16 61.92ZM48.67 66.38C53.64 73.66 60.05 83.45 63.00 89.14L68.90 85.68C65.74 80.06 59.04 70.56 54.22 63.58Z"/></svg>
