<svg xmlns="http://www.w3.org/2000/svg" xmlns:xlink="http://www.w3.org/1999/xlink" width="72.00000000000001" height="106.56000000000002"><path fill="red" stroke="red" d="M10.22 55.94C9.94 50.98 8.71 42.34 7.49 35.50L2.66 36.36C3.74 43.20 4.82 52.06 5.04 57.17ZM27.29 75.67C25.99 73.73 20.38 65.52 18.36 63.07C18.86 58.90 19.01 54.72 19.08 50.54L22.82 52.06C24.55 48.24 26.57 41.98 28.58 36.86L23.11 34.92C22.25 39.31 20.52 45.79 19.08 49.90L19.08 48.24L19.08 23.90L12.89 23.90L12.89 48.24C12.89 60.84 11.88 74.23 2.95 84.46C4.32 85.39 6.55 87.77 7.56 89.21C12.60 83.59 15.48 77.11 17.14 70.27C19.30 73.66 21.67 77.69 22.97 80.21ZM37.01 70.92C34.56 76.10 29.88 81.58 25.27 84.31C26.64 85.39 28.66 87.55 29.66 88.99C34.42 85.54 39.24 78.98 41.83 72.72ZM39.38 46.73L55.73 46.73L55.73 52.06L39.38 52.06ZM55.73 36.36L55.73 41.69L39.38 41.69L39.38 36.36ZM67.97 68.76L67.97 63.07L51.05 63.07L51.05 57.53L62.14 57.53L62.14 36.36L68.40 36.36L68.40 30.67L62.14 30.67L62.14 23.11L55.73 23.11L55.73 30.67L39.38 30.67L39.38 23.11L33.34 23.11L33.34 30.67L27.50 30.67L27.50 36.36L33.34 36.36L33.34 57.53L44.57 57.53L44.57 63.07L27.65 63.07L27.65 68.76L44.57 68.76L44.57 89.14L51.05 89.14L51.05 68.76ZM53.28 73.22C57.10 78.05 61.85 84.82 64.01 88.78L69.12 86.18C66.74 82.15 61.85 75.67 57.96 70.99Z"/></svg>
