<svg xmlns="http://www.w3.org/2000/svg" xmlns:xlink="http://www.w3.org/1999/xlink" width="72.00000000000001" height="106.56000000000002"><path fill="red" stroke="red" d="M10.22 90.29C13.54 87.55 16.49 82.87 18.36 78.77L12.24 77.40C10.58 80.93 7.63 84.67 4.68 86.83ZM23.83 80.06C25.78 83.02 28.08 87.05 29.09 89.50L34.13 86.98C33.12 84.60 30.60 80.78 28.66 77.90ZM38.45 79.49C40.97 82.37 43.85 86.33 45.22 88.78L50.62 86.33C49.18 83.88 46.01 80.06 43.63 77.40ZM46.80 56.16C48.31 54.22 50.11 51.34 51.84 48.53L46.37 47.09C45.50 49.25 43.78 52.56 42.41 54.79ZM20.02 48.67C21.60 50.90 23.18 54.00 23.90 55.87L28.73 54.29C28.01 52.34 26.28 49.39 24.70 47.23ZM16.49 56.30L16.49 46.22L32.40 46.22L32.40 56.30ZM55.66 46.22L55.66 56.30L38.95 56.30L38.95 46.22ZM67.82 71.71L38.95 71.71L38.95 68.11L62.50 68.11L62.50 63.72L38.95 63.72L38.95 60.34L61.85 60.34L61.85 42.19L38.95 42.19L38.95 38.81L67.75 38.81L67.75 34.20L38.95 34.20L38.95 30.31C47.23 29.74 55.08 28.87 61.27 27.72L56.66 23.54C45.94 25.49 26.06 26.57 9.65 26.78C10.15 27.94 10.80 30.10 10.94 31.39C17.71 31.32 25.13 31.10 32.40 30.74L32.40 34.20L4.46 34.20L4.46 38.81L32.40 38.81L32.40 42.19L10.51 42.19L10.51 60.34L32.40 60.34L32.40 63.72L9.79 63.72L9.79 68.11L32.40 68.11L32.40 71.71L4.25 71.71L4.25 76.39L67.82 76.39ZM53.06 79.49C56.74 82.37 60.91 86.54 62.93 89.28L68.54 85.82C66.46 83.02 61.99 79.06 58.32 76.39Z"/></svg>
