<svg xmlns="http://www.w3.org/2000/svg" xmlns:xlink="http://www.w3.org/1999/xlink" width="72.00000000000001" height="106.56000000000002"><path fill="red" stroke="red" d="M44.50 38.38L28.08 38.38L28.08 43.42L68.47 43.42L68.47 38.38L50.90 38.38L50.90 34.13L64.30 34.13L64.30 29.09L50.90 29.09L50.90 23.11L44.50 23.11L44.50 29.09L32.04 29.09L32.04 34.13L44.50 34.13ZM46.80 58.03L46.80 62.71L68.40 62.71L68.40 58.03L60.12 58.03L60.12 53.42L66.38 53.42L66.38 48.82L60.12 48.82L60.12 44.78L54.43 44.78L54.43 48.82L48.82 48.82L48.82 53.42L54.43 53.42L54.43 58.03ZM27.36 64.01C32.62 63.36 39.17 62.50 45.72 61.56L45.58 57.02L39.60 57.74L39.60 53.42L45.07 53.42L45.07 48.82L39.60 48.82L39.60 44.78L34.06 44.78L34.06 48.82L28.22 48.82L28.22 53.42L34.06 53.42L34.06 58.32C31.18 58.68 28.51 58.90 26.35 59.11ZM22.82 32.90C21.96 37.87 20.16 45.07 18.58 49.46L22.61 51.12C24.41 47.02 26.50 40.25 28.51 34.85ZM12.10 54.29C11.30 49.68 9.29 41.47 7.34 35.06L2.81 36.65C4.54 43.13 6.48 51.55 7.20 56.45ZM27.29 75.82C25.78 74.02 20.09 66.53 17.50 63.58C18.07 58.61 18.22 53.57 18.22 48.53L18.22 23.83L12.46 23.83L12.46 48.53C12.46 61.20 11.52 74.52 3.38 84.89C4.68 85.82 6.84 87.98 7.70 89.35C12.31 83.74 14.90 77.33 16.42 70.56C18.86 74.02 21.60 77.98 22.97 80.42ZM57.74 83.23C56.23 83.23 55.94 83.02 55.94 81.29L55.94 71.28L68.98 71.28L68.98 65.81L26.93 65.81L26.93 71.28L37.01 71.28C36.00 78.12 33.19 81.86 23.04 84.10C24.26 85.25 25.92 87.70 26.57 89.28C38.45 86.18 41.90 80.57 43.13 71.28L49.82 71.28L49.82 81.36C49.82 86.90 51.05 88.56 56.74 88.56L63.07 88.56C67.46 88.56 68.98 86.54 69.55 78.62C67.97 78.19 65.45 77.26 64.22 76.32C64.01 82.37 63.79 83.23 62.35 83.23Z"/></svg>
