<svg xmlns="http://www.w3.org/2000/svg" xmlns:xlink="http://www.w3.org/1999/xlink" width="72.00000000000001" height="106.56000000000002"><path fill="red" stroke="red" d="M10.66 54.29C10.08 49.68 8.35 41.69 6.84 35.50L2.45 36.43C3.96 42.62 5.40 50.90 5.98 55.66ZM24.12 77.40C22.97 75.46 17.86 67.10 15.98 64.58C16.63 59.54 16.78 54.36 16.78 49.18L16.78 23.90L11.45 23.90L11.45 49.18C11.45 61.85 10.51 74.66 2.23 84.82C3.38 85.61 5.33 87.62 6.12 88.99C10.58 83.74 13.18 77.83 14.76 71.64C16.63 75.10 18.86 79.20 19.87 81.50ZM32.40 72.94L38.16 72.94L38.16 82.66L32.40 82.66ZM48.46 72.94L48.46 82.66L42.70 82.66L42.70 72.94ZM58.97 72.94L58.97 82.66L52.99 82.66L52.99 72.94ZM48.82 40.03L57.38 40.03L57.38 43.63L48.82 43.63ZM48.82 32.04L57.38 32.04L57.38 35.71L48.82 35.71ZM64.58 68.18L69.19 65.81C67.61 63.14 64.22 59.04 61.56 56.02L68.54 56.02L68.54 51.34L48.82 51.34L48.82 48.02L63.43 48.02L63.43 40.46L68.26 40.46L68.26 35.21L63.43 35.21L63.43 27.65L48.82 27.65L48.82 23.11L42.41 23.11L42.41 27.65L27.72 27.65L27.72 32.04L42.41 32.04L42.41 35.71L25.20 35.71L25.20 37.51L20.30 35.93C19.80 40.68 18.58 47.74 17.57 52.06L21.24 53.50C22.39 49.68 23.83 43.42 25.20 38.30L25.20 40.03L42.41 40.03L42.41 43.63L27.50 43.63L27.50 48.02L42.41 48.02L42.41 51.34L24.12 51.34L24.12 56.02L60.91 56.02L56.59 58.03C59.33 60.98 62.42 65.09 63.86 67.82L28.66 67.82C31.32 65.23 33.05 61.56 34.20 58.10L29.59 56.30C28.37 59.69 26.21 63.43 23.33 65.59L27.00 68.40L27.00 82.66L20.45 82.66L20.45 87.84L68.98 87.84L68.98 82.66L64.58 82.66ZM36.94 57.96C37.80 60.91 38.59 64.73 38.66 67.10L43.85 65.81C43.63 63.43 42.84 59.69 41.76 56.88ZM46.44 58.10C48.02 60.91 49.61 64.58 50.18 66.96L55.22 64.94C54.50 62.64 52.85 59.11 51.19 56.52Z"/></svg>
