<svg xmlns="http://www.w3.org/2000/svg" xmlns:xlink="http://www.w3.org/1999/xlink" width="72.00000000000001" height="106.56000000000002"><path fill="red" stroke="red" d="M14.47 42.70L24.41 42.70L24.41 47.95L14.47 47.95ZM30.53 42.70L40.82 42.70L40.82 47.95L30.53 47.95ZM46.94 42.70L57.46 42.70L57.46 47.95L46.94 47.95ZM8.21 52.42L64.01 52.42L64.01 38.23L54.22 38.23C55.80 36.22 57.67 33.77 59.26 31.46L53.21 29.38C52.06 32.04 49.75 35.71 47.95 38.23L34.20 38.23L39.02 37.15C38.74 35.35 37.44 32.62 36.00 30.60L30.46 31.82C31.68 33.77 32.83 36.50 33.12 38.23L18.79 38.23L22.10 37.22C21.53 35.57 19.87 33.12 18.36 31.32L12.96 32.90C14.33 34.49 15.62 36.58 16.20 38.23L8.21 38.23ZM59.98 22.97C47.45 24.91 25.20 26.28 6.77 26.64C7.20 27.94 7.92 30.10 7.99 31.54C26.57 31.32 49.10 30.02 63.79 27.72ZM15.62 81.94L15.62 74.66L26.86 74.66L23.18 76.39C24.19 77.40 25.27 78.62 26.28 79.92ZM27.72 62.71L15.62 62.71L15.62 59.54L27.72 59.54ZM27.72 70.20L15.62 70.20L15.62 66.82L27.72 66.82ZM33.98 74.66L33.98 55.08L12.17 55.08L12.17 55.15L9.07 55.15L9.07 78.12C9.07 81.29 6.70 83.23 5.11 83.95C6.19 85.18 7.56 87.77 8.06 89.28C9.58 88.42 12.02 87.84 29.59 84.17C30.96 86.11 32.11 87.91 32.76 89.42L38.09 86.90C36.29 83.38 32.40 78.34 28.66 74.66ZM68.47 59.76L60.48 59.76L60.48 53.78L54.22 53.78L54.22 59.76L35.93 59.76L35.93 65.30L54.22 65.30L54.22 81.79C54.22 82.66 53.86 83.02 52.70 83.02C51.70 83.09 47.95 83.09 44.06 82.94C44.93 84.46 45.94 86.90 46.30 88.49C51.70 88.49 55.15 88.42 57.46 87.48C59.76 86.62 60.48 85.03 60.48 81.86L60.48 65.30L68.47 65.30ZM49.75 77.83C48.74 74.95 45.86 70.70 43.27 67.54L38.30 69.55C40.82 72.72 43.49 77.11 44.42 80.06Z"/></svg>
