<svg xmlns="http://www.w3.org/2000/svg" xmlns:xlink="http://www.w3.org/1999/xlink" width="72.00000000000001" height="106.56000000000002"><path fill="red" stroke="red" d="M67.39 32.98C62.50 29.66 53.35 25.42 46.44 22.97L42.12 26.78C49.25 29.45 58.25 34.06 62.64 37.30ZM23.76 22.90C19.15 26.78 11.38 30.38 4.39 32.47C5.83 33.62 8.06 36.07 9.00 37.37C15.98 34.56 24.34 30.10 29.66 25.27ZM44.42 29.45C42.26 31.75 39.31 33.84 35.86 35.57C32.26 33.91 29.23 31.90 27.00 29.74L21.89 32.04C24.05 34.42 26.64 36.43 29.59 38.23C21.67 41.11 12.02 42.91 2.66 44.06C3.89 45.36 5.69 48.17 6.34 49.61C16.56 47.95 27.14 45.50 36.00 41.54C44.42 45.29 54.65 47.52 65.45 48.60C66.24 46.94 67.75 44.42 69.12 43.06C59.47 42.34 50.18 40.75 42.48 38.23C45.50 36.36 48.17 34.34 50.33 31.90ZM41.47 52.20C39.10 54.22 36.07 56.09 32.83 57.67C31.54 56.30 29.66 54.72 27.94 53.42C28.73 52.99 29.38 52.63 30.17 52.20ZM47.23 47.23L46.22 47.52L37.01 47.52C37.94 46.73 38.88 45.94 39.60 45.14L34.34 43.06C28.73 48.67 17.86 52.78 7.70 55.01C8.78 56.16 10.58 58.61 11.30 59.83C15.12 58.68 19.22 57.31 23.11 55.66C24.84 57.02 26.50 58.54 27.79 59.90C21.53 62.35 14.54 64.08 7.92 65.09C9.00 66.24 10.37 68.54 10.94 69.98C26.42 67.18 43.34 60.91 51.26 49.68ZM56.09 67.68C52.42 71.57 47.38 74.66 41.54 77.04C40.18 75.31 38.16 73.15 36.14 71.42C38.52 70.27 40.75 69.05 42.91 67.68ZM60.48 62.64L49.54 62.64C50.62 61.63 51.62 60.70 52.56 59.62L47.23 57.38C40.68 64.80 27.94 70.13 15.55 73.08C16.70 74.23 18.50 76.75 19.15 77.98C23.18 76.82 27.29 75.38 31.25 73.66C32.98 75.38 34.78 77.33 36.00 78.98C27.58 81.65 17.86 83.16 8.14 83.74C9.14 85.25 10.30 87.77 10.80 89.50C33.55 87.19 56.09 81.29 65.88 65.02L61.70 62.35Z"/></svg>
