<svg xmlns="http://www.w3.org/2000/svg" xmlns:xlink="http://www.w3.org/1999/xlink" width="72.00000000000001" height="106.56000000000002"><path fill="red" stroke="red" d="M29.52 54.79L21.96 56.95L21.96 43.70L28.66 43.70L28.66 37.37L21.96 37.37L21.96 23.11L15.77 23.11L15.77 37.37L11.16 37.37C11.66 34.34 12.02 31.25 12.38 28.15L6.70 27.22C5.98 35.78 4.68 44.86 2.16 50.69C3.53 51.41 5.98 52.85 7.06 53.71C8.14 50.98 9.14 47.52 10.01 43.70L15.77 43.70L15.77 58.82C10.87 60.19 6.34 61.42 2.74 62.35L4.46 68.76L15.77 65.30L15.77 89.14L21.96 89.14L21.96 63.36C24.77 62.50 27.58 61.63 30.38 60.70ZM41.04 34.70C42.12 31.39 43.20 27.86 43.99 24.26L37.94 23.11C35.57 33.77 31.46 43.99 25.63 50.33C27.07 51.19 29.74 53.21 30.82 54.14C33.77 50.62 36.36 46.08 38.59 40.90L43.70 40.90C40.39 51.98 34.49 63.36 27.07 69.12C28.87 70.06 31.03 71.71 32.26 72.94C39.89 66.17 46.15 52.99 49.32 40.90L54.14 40.90C50.54 58.32 42.98 75.53 31.39 83.81C33.26 84.82 35.64 86.54 36.94 87.77C48.60 78.41 56.30 59.47 59.98 40.90L61.99 40.90C60.70 68.26 59.18 78.48 57.10 80.86C56.38 81.86 55.66 82.15 54.50 82.15C53.14 82.15 50.47 82.15 47.45 81.86C48.53 83.74 49.25 86.47 49.32 88.42C52.49 88.56 55.51 88.63 57.46 88.27C59.76 87.91 61.20 87.26 62.71 85.10C65.52 81.58 66.89 70.20 68.47 37.87C68.54 37.01 68.54 34.70 68.54 34.70Z"/></svg>
