<svg xmlns="http://www.w3.org/2000/svg" xmlns:xlink="http://www.w3.org/1999/xlink" width="72.00000000000001" height="106.56000000000002"><path fill="red" stroke="red" d="M20.59 23.54C19.22 26.06 17.50 28.73 15.55 31.32C13.61 28.66 11.16 26.06 8.14 23.54L3.38 27.14C6.84 30.10 9.43 33.12 11.45 36.29C8.64 39.38 5.54 42.19 2.38 44.50C3.82 45.58 5.98 47.52 6.98 48.89C9.50 46.94 12.02 44.71 14.40 42.34C15.41 45.07 16.06 47.88 16.49 50.83C13.10 56.88 7.34 63.36 2.16 66.67C3.74 67.82 5.62 70.06 6.62 71.64C10.15 68.90 13.97 64.87 17.14 60.55L17.14 61.70C17.14 70.85 16.56 79.20 14.76 81.36C14.18 82.15 13.54 82.51 12.53 82.66C10.87 82.87 8.14 82.87 4.61 82.66C5.83 84.53 6.48 86.98 6.48 89.06C9.72 89.21 12.74 89.21 15.34 88.63C17.14 88.27 18.58 87.41 19.66 86.04C22.75 81.79 23.54 72.07 23.54 61.78C23.54 53.21 22.82 45.00 19.08 37.15C21.89 33.77 24.48 30.24 26.57 26.57ZM32.76 42.34C31.39 50.47 28.66 57.74 23.98 62.42C25.27 63.43 27.36 65.59 28.15 66.67C30.60 64.08 32.69 60.91 34.34 57.24C36.14 59.11 37.87 61.13 38.81 62.64L42.05 57.53C40.90 55.87 38.66 53.64 36.43 51.55C37.30 48.89 37.94 46.08 38.45 43.20ZM69.98 60.84C68.26 58.25 64.58 54.50 61.42 51.34C62.14 48.82 62.71 46.08 63.14 43.27L57.53 42.41C56.52 49.39 54.43 55.80 50.76 60.26C50.04 57.46 49.68 54.94 49.68 53.14L49.68 39.96L68.18 39.96L68.18 33.84L49.68 33.84L49.68 23.40L43.13 23.40L43.13 33.84L25.13 33.84L25.13 39.96L43.13 39.96L43.13 53.14C43.13 59.76 39.10 75.53 22.46 83.38C23.69 84.82 25.56 87.70 26.42 89.21C39.67 82.80 45.22 70.49 46.37 64.51C47.66 70.34 52.92 82.87 65.74 89.21C66.60 87.41 68.40 84.60 69.70 83.09C59.11 77.83 53.78 69.26 51.41 62.21C52.63 63.07 53.93 64.08 54.65 64.73C56.45 62.64 57.96 60.05 59.26 57.17C61.99 60.12 64.80 63.36 66.24 65.59Z"/></svg>
