<svg xmlns="http://www.w3.org/2000/svg" xmlns:xlink="http://www.w3.org/1999/xlink" width="72.00000000000001" height="106.56000000000002"><path fill="red" stroke="red" d="M43.56 40.75L24.77 40.75L24.77 46.44L43.56 46.44L43.56 52.85C43.56 53.71 43.27 53.93 42.19 54.00C41.18 54.00 37.80 54.00 34.27 53.86C35.21 55.37 36.50 57.89 37.01 59.54C41.54 59.54 44.71 59.47 47.02 58.54C49.39 57.67 50.11 56.09 50.11 52.99L50.11 46.44L68.33 46.44L68.33 40.75L50.11 40.75L50.11 38.02C54.79 35.35 59.54 31.97 63.22 28.66L59.26 25.42L57.89 25.78L29.88 25.78L29.88 31.39L51.26 31.39C48.74 33.26 46.01 35.06 43.56 36.36ZM19.44 23.62C18.14 26.06 16.63 28.66 14.76 31.18C13.03 28.66 10.80 26.14 8.06 23.69L3.46 27.14C6.62 30.02 9.00 33.12 10.80 36.29C8.14 39.31 5.18 42.19 2.23 44.42C3.74 45.43 5.83 47.45 6.84 48.67C9.14 46.80 11.38 44.71 13.61 42.34C14.54 45.14 15.12 48.02 15.55 51.05C12.46 56.88 7.13 63.22 2.30 66.53C3.82 67.75 5.69 69.98 6.70 71.57C9.86 68.90 13.25 65.02 16.13 60.84L16.13 61.63C16.13 70.85 15.48 79.49 13.90 81.65C13.39 82.37 12.67 82.73 11.66 82.80C10.30 83.02 7.85 83.02 4.82 82.80C5.98 84.60 6.55 87.12 6.55 89.21C9.43 89.35 12.24 89.28 14.54 88.70C16.34 88.42 17.71 87.62 18.72 86.26C21.67 82.08 22.39 72.07 22.39 61.78C22.39 53.14 21.74 44.93 18.14 37.08C20.81 33.70 23.33 30.02 25.27 26.50ZM32.69 67.10L37.94 67.10L37.94 81.65L32.69 81.65ZM48.17 67.10L48.17 81.65L42.84 81.65L42.84 67.10ZM58.54 67.10L58.54 81.65L53.06 81.65L53.06 67.10ZM64.44 81.65L64.44 61.70L27.14 61.70L27.14 81.65L21.96 81.65L21.96 87.55L69.05 87.55L69.05 81.65Z"/></svg>
