<svg xmlns="http://www.w3.org/2000/svg" xmlns:xlink="http://www.w3.org/1999/xlink" width="72.00000000000001" height="106.56000000000002"><path fill="red" stroke="red" d="M24.55 67.46L17.86 69.98L17.86 54.36L24.05 54.36L24.05 48.17L17.86 48.17L17.86 33.84L25.56 33.84L25.56 27.65L3.31 27.65L3.31 33.84L11.59 33.84L11.59 48.17L4.03 48.17L4.03 54.36L11.59 54.36L11.59 72.29C8.28 73.51 5.18 74.52 2.74 75.31L4.10 81.72C10.30 79.34 18.22 76.39 25.63 73.44ZM44.06 39.53L44.06 50.90L34.42 50.90L34.42 39.53ZM57.46 56.81C55.58 62.28 52.70 67.10 49.25 71.14C45.50 67.10 42.48 62.21 40.39 56.81ZM61.20 50.62L59.98 50.90L50.47 50.90L50.47 39.53L60.12 39.53C59.40 42.55 58.61 45.50 57.82 47.74L63.65 49.03C65.16 45.22 66.89 39.31 68.26 34.13L63.43 33.05L62.42 33.26L50.47 33.26L50.47 23.18L44.06 23.18L44.06 33.26L28.08 33.26L28.08 52.20C28.08 61.99 27.36 75.24 20.16 84.46C21.60 85.25 24.26 87.48 25.20 88.70C31.90 80.14 33.84 67.61 34.27 57.46C36.86 64.51 40.25 70.63 44.71 75.67C40.39 79.42 35.35 82.15 30.02 83.88C31.39 85.18 32.90 87.62 33.70 89.28C39.38 87.05 44.64 84.02 49.18 80.14C53.64 83.95 58.97 86.90 65.09 88.92C66.02 87.12 67.97 84.38 69.41 83.09C63.43 81.43 58.32 78.84 53.93 75.46C59.11 69.41 63.00 61.85 65.30 52.27Z"/></svg>
