<svg xmlns="http://www.w3.org/2000/svg" xmlns:xlink="http://www.w3.org/1999/xlink" width="72.00000000000001" height="106.56000000000002"><path fill="red" stroke="red" d="M28.73 64.94L19.51 67.54L19.51 53.21L27.65 53.21L27.65 47.02L19.51 47.02L19.51 32.98L28.37 32.98L28.37 26.78L3.67 26.78L3.67 32.98L13.03 32.98L13.03 47.02L4.39 47.02L4.39 53.21L13.03 53.21L13.03 69.34C9.00 70.42 5.26 71.42 2.23 72.07L3.89 78.48C11.09 76.39 20.66 73.66 29.66 70.92ZM37.73 54.00L59.04 54.00L59.04 60.05L37.73 60.05ZM37.73 42.77L59.04 42.77L59.04 48.82L37.73 48.82ZM37.73 31.61L59.04 31.61L59.04 37.58L37.73 37.58ZM58.03 82.94C56.52 82.94 56.23 82.73 56.23 80.78L56.23 65.66L65.66 65.66L65.66 26.06L31.46 26.06L31.46 65.66L37.37 65.66C36.29 74.66 33.55 80.78 20.66 84.17C22.03 85.39 23.76 88.06 24.41 89.64C39.02 85.18 42.62 77.18 43.92 65.66L49.82 65.66L49.82 80.86C49.82 86.83 51.19 88.70 56.95 88.70L63.22 88.70C67.90 88.70 69.48 86.33 70.06 77.11C68.40 76.68 65.74 75.67 64.44 74.59C64.22 81.86 63.94 82.94 62.42 82.94Z"/></svg>
