<svg xmlns="http://www.w3.org/2000/svg" xmlns:xlink="http://www.w3.org/1999/xlink" width="72.00000000000001" height="106.56000000000002"><path fill="red" stroke="red" d="M14.33 39.74C16.63 37.87 19.01 35.71 20.88 33.55L15.70 32.04L38.74 32.04C36.36 36.72 32.26 41.11 27.72 43.99C28.44 44.42 29.38 44.93 30.24 45.58L25.78 45.14C25.49 46.08 25.13 46.87 24.77 47.74L16.92 48.31C21.17 45.43 25.27 42.05 28.80 38.45L23.62 36.36C22.75 37.44 21.82 38.38 20.74 39.38ZM49.68 43.20L40.75 43.20L40.75 40.46L49.68 40.46ZM49.68 49.32L40.75 49.32L40.75 46.44L49.68 46.44ZM49.68 55.66L40.75 55.66L40.75 52.63L49.68 52.63ZM56.09 83.09C54.43 83.09 54.14 82.80 54.14 81.07L54.14 70.06L23.54 70.06L24.41 66.67L66.89 66.67L66.89 61.99L9.94 61.99C20.16 59.26 28.37 54.86 31.46 46.44L32.47 47.23C33.34 46.58 34.20 45.86 35.06 45.07L35.06 61.27L40.75 61.27L40.75 59.54L67.18 59.54L67.18 55.66L55.37 55.66L55.37 52.63L64.22 52.63L64.22 49.32L55.37 49.32L55.37 46.44L64.22 46.44L64.22 43.20L55.37 43.20L55.37 40.46L65.74 40.46L65.74 36.58L55.51 36.58C54.86 35.14 53.93 33.41 53.21 32.04L47.88 33.19C48.46 34.27 48.96 35.42 49.46 36.58L42.48 36.58C43.20 35.42 43.92 34.27 44.50 33.12L40.03 32.04L67.68 32.04L67.68 27.00L41.26 27.00C40.39 25.49 39.31 23.76 38.38 22.39L31.18 23.54C31.82 24.62 32.54 25.78 33.19 27.00L4.46 27.00L4.46 32.04L15.12 32.04C13.10 35.28 9.65 38.52 8.57 39.38C7.56 40.18 6.48 40.82 5.47 40.90C6.19 41.90 7.13 43.78 7.49 44.57C8.50 44.21 10.08 43.99 16.34 43.49C13.90 45.50 11.74 47.16 10.73 47.81C8.78 49.03 7.27 49.90 5.76 50.04C6.41 50.98 7.42 52.99 7.63 53.78C8.93 53.35 11.09 52.92 21.46 51.77C17.50 55.30 11.38 57.38 4.10 58.61C5.04 59.40 6.48 60.91 7.34 61.99L5.33 61.99L5.33 66.67L18.00 66.67C16.56 72.22 14.69 78.41 13.03 83.30L8.57 83.52L9.22 88.78C18.50 88.13 31.82 87.19 44.42 86.11L44.50 81.36L40.61 81.65L42.41 78.70C39.38 77.40 33.84 75.74 29.74 74.74L27.50 78.05C30.96 79.06 35.35 80.50 38.52 81.72C31.90 82.15 25.42 82.58 19.73 82.94C20.52 80.35 21.31 77.54 22.18 74.59L47.74 74.59L47.74 81.14C47.74 86.90 49.39 88.49 55.08 88.49L61.99 88.49C66.82 88.49 68.33 86.40 68.90 78.05C67.25 77.62 64.66 76.75 63.36 75.74C63.22 82.15 62.86 83.09 61.34 83.09Z"/></svg>
