<svg xmlns="http://www.w3.org/2000/svg" xmlns:xlink="http://www.w3.org/1999/xlink" width="72.00000000000001" height="106.56000000000002"><path fill="red" stroke="red" d="M13.90 49.97C13.18 46.44 10.87 40.90 8.42 36.79L3.46 39.24C5.76 43.56 7.99 49.18 8.71 52.70ZM23.26 48.02L41.76 48.02L41.76 54.50L24.48 54.50L24.48 89.14L30.46 89.14L30.46 60.19L41.62 60.19C41.04 65.52 38.81 71.57 30.82 75.38C32.18 76.46 33.98 78.55 34.85 79.85C40.32 76.90 43.56 73.08 45.43 69.05C49.03 72.43 52.70 76.39 54.72 78.98L58.97 75.24C56.45 72.07 51.26 67.25 47.23 63.65C47.45 62.50 47.59 61.34 47.74 60.19L59.98 60.19L59.98 82.01C59.98 82.94 59.69 83.16 58.68 83.16C57.74 83.23 54.50 83.30 51.12 83.16C51.98 84.67 52.92 87.26 53.28 89.06C58.10 89.06 61.34 88.99 63.58 87.91C65.74 86.98 66.31 85.18 66.31 82.08L66.31 54.50L47.88 54.50L47.88 48.02L68.11 48.02L68.11 42.34L23.26 42.34ZM47.16 31.03C46.37 28.51 45.29 25.42 44.35 22.82L37.15 24.19C37.87 26.28 38.66 28.80 39.24 31.03L14.40 31.03L14.40 52.27C14.40 54.43 14.33 56.59 14.26 58.82C9.79 61.13 5.62 63.14 2.59 64.51L4.75 70.70C7.56 69.12 10.51 67.39 13.46 65.66C12.38 72.43 9.86 79.20 4.61 84.60C5.90 85.39 8.50 87.77 9.43 89.06C19.22 79.27 20.81 63.58 20.81 52.34L20.81 37.01L68.83 37.01L68.83 31.03Z"/></svg>
