<svg xmlns="http://www.w3.org/2000/svg" xmlns:xlink="http://www.w3.org/1999/xlink" width="72.00000000000001" height="106.56000000000002"><path fill="red" stroke="red" d="M13.82 50.18C13.03 46.66 10.73 41.11 8.28 37.01L3.38 39.46C5.62 43.70 7.92 49.32 8.57 52.92ZM49.25 66.60L65.74 66.60L65.74 60.70L49.25 60.70L49.25 49.54L66.96 49.54L66.96 43.49L24.34 43.49L24.34 49.54L42.84 49.54L42.84 80.50L33.48 80.50L33.48 57.67L27.43 57.67L27.43 80.50L19.51 80.50L19.51 86.76L69.05 86.76L69.05 80.50L49.25 80.50ZM46.87 30.89C46.15 28.58 44.86 25.56 43.70 23.04L37.01 24.48C37.87 26.35 38.66 28.80 39.38 30.89L14.33 30.89L14.33 52.27C14.33 54.43 14.26 56.74 14.11 59.04C9.72 61.27 5.54 63.36 2.45 64.73L4.61 70.92C7.42 69.34 10.37 67.61 13.39 65.81C12.31 72.58 9.79 79.42 4.54 84.89C5.83 85.61 8.42 88.06 9.36 89.28C19.08 79.42 20.66 63.65 20.66 52.34L20.66 36.86L69.05 36.86L69.05 30.89Z"/></svg>
