<svg xmlns="http://www.w3.org/2000/svg" xmlns:xlink="http://www.w3.org/1999/xlink" width="72.00000000000001" height="106.56000000000002"><path fill="red" stroke="red" d="M29.59 49.97L39.31 49.97L39.31 54.72L31.39 55.44L31.82 59.26L39.31 58.54C39.31 63.00 40.54 65.23 46.01 65.23L57.74 65.23C60.05 65.23 62.78 65.16 64.08 64.80C63.79 63.43 63.65 62.21 63.50 60.55C62.21 60.84 59.04 60.98 57.38 60.98L47.52 60.98C45.58 60.98 45.29 60.26 45.29 58.46L45.29 57.89L57.60 56.74L57.24 53.06L45.29 54.14L45.29 49.97L60.84 49.97C60.41 51.70 59.83 53.42 59.26 54.65L64.22 55.80C65.30 53.42 66.67 49.54 67.61 46.15L63.58 45.29L62.57 45.50L44.50 45.50L44.50 42.55L63.14 42.55L63.14 38.30L44.50 38.30L44.50 35.50L38.66 35.50L38.66 45.50L23.76 45.50L23.76 57.74C23.76 65.66 23.04 76.68 17.35 84.67C18.58 85.32 21.17 87.19 22.18 88.27C28.44 79.70 29.59 66.82 29.59 57.82ZM39.53 71.50L63.65 71.50L63.65 67.32L33.77 67.32L33.77 75.02L28.94 75.02L28.94 79.78L33.77 79.78L33.77 87.91L64.08 87.91L64.08 83.59L39.53 83.59L39.53 79.78L67.75 79.78L67.75 75.02L39.53 75.02ZM45.29 28.94C44.71 27.14 43.70 24.77 42.77 22.97L36.14 24.41C36.72 25.78 37.37 27.36 37.94 28.94L13.61 28.94L13.61 45.79C12.17 42.48 9.86 38.23 7.92 34.99L2.59 37.22C4.90 41.33 7.63 46.94 8.71 50.26L13.61 47.95L13.61 51.05C13.61 52.92 13.61 55.01 13.46 57.10C9.36 59.62 5.40 61.92 2.52 63.43L4.61 69.62C7.27 67.97 10.08 66.02 12.96 64.08C12.02 71.64 9.86 79.27 4.82 85.32C6.34 85.97 8.86 87.91 9.94 89.06C18.29 78.70 19.58 62.64 19.58 51.12L19.58 34.70L68.98 34.70L68.98 28.94Z"/></svg>
