<svg xmlns="http://www.w3.org/2000/svg" xmlns:xlink="http://www.w3.org/1999/xlink" width="72.00000000000001" height="106.56000000000002"><path fill="red" stroke="red" d="M53.14 57.24C50.26 63.14 46.22 67.97 41.11 71.86C36.14 67.82 32.18 62.93 29.30 57.24ZM17.14 50.18L17.14 38.95L34.56 38.95L34.56 50.98L17.14 50.98ZM57.74 50.76L56.52 50.98L41.40 50.98L41.40 38.95L57.74 38.95C56.66 42.05 55.44 45.07 54.29 47.30L60.48 49.03C62.64 45.14 65.09 39.02 66.96 33.55L61.78 32.26L60.62 32.54L41.40 32.54L41.40 23.11L34.56 23.11L34.56 32.54L10.37 32.54L10.37 50.11C10.37 60.41 9.65 74.66 2.16 84.60C3.67 85.39 6.48 87.62 7.63 88.92C14.26 80.21 16.34 67.68 16.92 57.24L22.32 57.24C25.56 64.58 29.74 70.63 35.21 75.67C29.02 79.06 21.82 81.36 13.97 82.94C15.34 84.31 17.21 87.34 17.86 89.14C26.14 87.19 33.98 84.24 40.82 80.06C47.38 84.46 55.30 87.55 64.73 89.50C65.66 87.55 67.61 84.67 68.98 83.16C60.41 81.72 53.06 79.27 46.80 75.74C53.64 70.06 58.97 62.64 62.21 53.14Z"/></svg>
