<svg xmlns="http://www.w3.org/2000/svg" xmlns:xlink="http://www.w3.org/1999/xlink" width="72.00000000000001" height="106.56000000000002"><path fill="red" stroke="red" d="M20.52 33.19L20.52 42.05L11.59 42.05L11.59 33.19ZM11.59 71.64L11.59 62.42L20.52 62.42L20.52 71.64ZM11.59 47.74L20.52 47.74L20.52 56.74L11.59 56.74ZM26.86 27.36L5.40 27.36L5.40 83.59L11.59 83.59L11.59 77.62L26.86 77.62ZM69.05 28.94L29.95 28.94L29.95 35.42L49.61 35.42L49.61 79.99C49.61 81.36 49.10 81.86 47.66 81.86C46.08 81.94 40.68 81.94 35.64 81.72C36.65 83.59 37.94 86.83 38.30 88.78C45.14 88.78 49.82 88.70 52.70 87.55C55.58 86.40 56.59 84.24 56.59 80.06L56.59 35.42L69.05 35.42Z"/></svg>
