<svg xmlns="http://www.w3.org/2000/svg" xmlns:xlink="http://www.w3.org/1999/xlink" width="72.00000000000001" height="106.56000000000002"><path fill="red" stroke="red" d="M10.87 71.64L10.87 62.42L19.01 62.42L19.01 71.64ZM10.87 47.74L19.01 47.74L19.01 56.74L10.87 56.74ZM19.01 33.19L19.01 42.05L10.87 42.05L10.87 33.19ZM37.22 46.30C35.86 42.62 33.55 37.73 31.03 34.06L25.85 36.36C28.44 40.68 31.18 46.58 32.11 50.40L37.22 47.95L37.22 54.50L37.22 56.45C32.76 59.54 28.30 62.50 25.06 64.44L25.06 27.36L5.11 27.36L5.11 83.66L10.87 83.66L10.87 77.62L25.06 77.62L25.06 65.45L27.72 70.78C30.60 68.69 33.62 66.24 36.65 63.79C35.42 72.29 31.75 79.34 21.31 84.38C22.75 85.54 24.77 87.91 25.63 89.35C41.33 81.58 43.34 69.19 43.34 54.50L43.34 23.83L37.22 23.83ZM62.14 33.48C60.62 38.02 57.53 44.06 55.30 47.95L60.26 50.33C62.71 46.66 65.74 41.11 68.33 36.14ZM57.24 82.58C55.58 82.58 55.30 82.08 55.30 78.98L55.30 59.98C58.90 63.36 62.50 67.32 64.44 70.13L69.12 66.02C66.74 62.64 61.56 57.67 57.31 54.14L55.30 55.73L55.30 23.76L49.10 23.76L49.10 78.91C49.10 86.40 50.62 88.34 56.16 88.34L62.71 88.34C67.61 88.34 69.12 85.18 69.77 76.32C67.97 75.96 65.59 74.81 64.22 73.73C64.01 80.64 63.72 82.58 62.21 82.58Z"/></svg>
