<svg xmlns="http://www.w3.org/2000/svg" xmlns:xlink="http://www.w3.org/1999/xlink" width="72.00000000000001" height="106.56000000000002"><path fill="red" stroke="red" d="M20.30 77.47L37.87 77.47L37.87 81.86L20.30 81.86ZM37.87 64.22L20.30 64.22L20.30 60.12L37.87 60.12ZM37.87 72.94L20.30 72.94L20.30 68.76L37.87 68.76ZM14.62 43.20L27.94 43.20L27.94 46.51L14.62 46.51ZM14.62 36.43L27.94 36.43L27.94 39.60L14.62 39.60ZM14.62 29.66L27.94 29.66L27.94 32.83L14.62 32.83ZM44.42 43.20L57.89 43.20L57.89 46.44L44.42 46.44ZM44.42 36.43L57.89 36.43L57.89 39.60L44.42 39.60ZM44.42 29.66L57.89 29.66L57.89 32.76L44.42 32.76ZM67.90 81.86L44.28 81.86L44.28 77.47L63.43 77.47L63.43 72.94L44.28 72.94L44.28 68.76L63.43 68.76L63.43 64.22L44.28 64.22L44.28 60.12L65.95 60.12L65.95 55.30L45.07 55.30C44.28 53.71 43.20 51.77 42.05 50.26L63.86 50.26L63.86 25.85L38.74 25.85L38.74 50.26L40.10 50.26L35.93 51.77C36.58 52.85 37.30 54.07 37.94 55.30L23.76 55.30C24.70 54.07 25.56 52.85 26.28 51.62L22.46 50.33L33.84 50.33L33.84 25.85L8.93 25.85L8.93 50.33L19.51 50.33C15.55 56.30 9.22 61.85 2.81 65.38C4.25 66.53 6.70 69.12 7.85 70.34C9.79 69.05 11.88 67.46 13.90 65.81L13.90 89.28L20.30 89.28L20.30 86.83L67.90 86.83Z"/></svg>
