<svg xmlns="http://www.w3.org/2000/svg" xmlns:xlink="http://www.w3.org/1999/xlink" width="72.00000000000001" height="106.56000000000002"><path fill="red" stroke="red" d="M18.65 74.95L12.89 74.95L12.89 53.71L18.65 53.71ZM23.83 80.28L23.83 48.46L13.10 48.46C14.33 43.34 15.26 37.87 16.06 32.33L24.77 32.33L24.77 26.93L3.10 26.93L3.10 32.33L10.37 32.33C9.07 43.99 6.62 55.08 2.02 62.42C2.95 64.01 4.32 67.39 4.75 68.98C5.90 67.32 6.84 65.59 7.78 63.65L7.78 85.90L12.89 85.90L12.89 80.28ZM38.09 70.85C38.74 73.15 39.46 75.82 40.03 78.41L32.11 79.42C37.51 71.71 42.91 61.85 46.94 52.27L41.33 49.82C40.32 52.70 39.10 55.73 37.80 58.54L31.82 59.04C34.49 54.65 37.08 49.25 38.88 44.14L33.34 41.76C31.82 48.10 28.58 54.94 27.65 56.66C26.64 58.46 25.70 59.76 24.70 60.05C25.34 61.49 26.28 64.37 26.57 65.52C27.58 65.02 29.09 64.73 35.28 64.01C32.54 69.48 30.02 73.80 28.80 75.46C26.86 78.48 25.34 80.50 23.83 80.86C24.55 82.37 25.42 85.25 25.78 86.33C27.00 85.68 29.02 85.18 40.97 83.23C41.33 84.96 41.54 86.54 41.69 87.98L46.51 87.05C45.86 82.44 44.21 75.53 42.55 70.13ZM69.70 86.90C69.12 82.22 67.03 75.24 64.80 69.77L60.19 70.85C61.06 73.15 61.92 75.67 62.64 78.19L53.93 79.34C59.04 71.64 64.15 61.70 67.82 52.13L62.06 49.75C61.13 52.63 59.98 55.66 58.82 58.54L52.56 58.97C55.15 54.58 57.53 49.18 59.18 44.06L53.78 41.69L68.90 41.69L68.90 35.64L57.02 35.64C58.82 32.47 60.77 28.58 62.50 25.13L55.94 23.18C54.86 26.86 52.63 31.97 50.76 35.64L39.17 35.64L43.27 33.84C42.19 30.89 39.89 26.50 37.44 23.26L32.11 25.42C34.27 28.44 36.36 32.62 37.37 35.64L25.92 35.64L25.92 41.69L53.42 41.69C52.06 47.95 49.18 54.72 48.31 56.45C47.38 58.25 46.44 59.54 45.43 59.83C46.15 61.34 47.16 64.30 47.45 65.52C48.38 65.02 49.97 64.66 56.38 63.94C53.93 69.34 51.55 73.58 50.47 75.24C48.60 78.26 47.23 80.28 45.72 80.64C46.44 82.22 47.45 85.18 47.74 86.33C48.96 85.61 51.19 85.10 63.94 83.09C64.37 84.89 64.73 86.54 64.87 88.06Z"/></svg>
