<svg xmlns="http://www.w3.org/2000/svg" xmlns:xlink="http://www.w3.org/1999/xlink" width="72.00000000000001" height="106.56000000000002"><path fill="red" stroke="red" d="M17.42 35.64C19.01 37.37 20.66 39.82 21.31 41.54L24.98 39.02C24.19 37.30 22.46 35.06 20.81 33.48ZM14.90 32.69L27.65 32.69L27.65 41.90C23.18 42.12 18.86 42.26 14.90 42.48ZM27.65 56.02C27.65 56.66 27.43 56.88 26.71 56.95C26.06 56.95 24.12 56.95 21.89 56.88C22.68 58.25 23.54 60.41 23.83 61.92C27.14 61.92 29.38 61.85 31.10 60.98C32.76 60.05 33.19 58.68 33.19 56.09L33.19 46.08L34.99 45.94L35.14 41.54L33.19 41.62L33.19 37.30C34.27 38.30 35.64 40.03 36.29 40.97C44.28 38.30 46.08 33.91 46.08 29.45L46.08 29.30L53.78 29.30L53.78 32.83C53.78 37.30 54.72 39.46 59.33 39.46L64.66 39.46C66.10 39.46 67.75 39.38 68.62 39.02C68.40 37.66 68.33 36.00 68.18 34.56C67.32 34.85 65.45 34.92 64.51 34.92L60.55 34.92C59.47 34.92 59.33 34.34 59.33 32.83L59.33 24.55L40.82 24.55L40.82 29.30C40.82 32.18 39.82 34.70 33.19 36.79L33.19 27.94L23.69 27.94C24.26 26.57 24.84 25.13 25.42 23.62L18.94 22.90C18.72 24.34 18.22 26.14 17.64 27.94L9.72 27.94L9.72 42.62L3.46 42.84L3.89 47.88L9.43 47.52C8.93 51.70 7.34 55.87 2.88 59.04C4.03 59.76 6.12 61.63 6.84 62.57C12.24 58.54 14.18 52.70 14.69 47.23C18.79 47.02 23.11 46.73 27.65 46.44ZM16.78 49.68C18.50 51.34 20.02 53.86 20.74 55.51L24.34 52.99C23.54 51.34 21.89 49.03 20.16 47.45ZM54.94 82.15L24.12 82.15L24.12 76.82L54.94 76.82ZM4.61 67.75L21.10 67.75C16.42 72.58 9.58 76.54 2.81 79.06C3.89 80.28 5.76 82.73 6.55 84.02C10.15 82.37 13.82 80.35 17.28 77.98L17.28 89.14L24.12 89.14L24.12 86.83L54.94 86.83L54.94 88.85L62.06 88.85L62.06 72.14L24.41 72.14C25.85 70.78 27.22 69.26 28.44 67.75L67.25 67.75L67.25 62.86L4.61 62.86ZM56.45 46.22C54.79 48.38 52.78 50.26 50.26 51.70C47.66 50.18 45.50 48.31 43.92 46.22ZM60.91 41.26L59.90 41.47L37.37 41.47L37.37 46.22L41.90 46.22L38.81 47.16C40.46 49.82 42.62 52.13 45.29 54.22C41.98 55.44 38.30 56.38 34.34 56.95C35.28 58.10 36.36 60.34 36.79 61.78C41.83 60.91 46.44 59.47 50.47 57.53C54.79 59.69 59.83 61.27 65.45 62.14C66.17 60.62 67.61 58.32 68.90 57.24C64.01 56.66 59.62 55.66 55.73 54.29C59.54 51.26 62.50 47.45 64.30 42.34Z"/></svg>
