<svg xmlns="http://www.w3.org/2000/svg" xmlns:xlink="http://www.w3.org/1999/xlink" width="72.00000000000001" height="106.56000000000002"><path fill="red" stroke="red" d="M24.19 34.99L22.97 35.28L16.34 35.28L21.46 32.33C20.30 29.74 17.71 25.99 15.19 23.33L10.01 26.14C12.31 28.87 14.76 32.76 15.91 35.28L3.96 35.28L3.96 41.33L19.66 41.33C15.77 49.54 9.14 57.46 2.52 61.92C3.46 63.22 4.82 66.74 5.33 68.62C7.70 66.82 10.22 64.58 12.60 62.06L12.60 89.14L18.72 89.14L18.72 59.90C20.59 62.35 22.54 65.02 23.54 66.74L27.72 61.42C26.64 60.12 22.32 55.44 19.87 52.92C23.11 48.17 25.85 42.84 27.72 37.37ZM52.20 65.88L52.20 74.09L44.42 74.09L44.42 65.88ZM56.95 78.84L56.95 61.13L39.38 61.13L39.38 82.44L44.42 82.44L44.42 78.84ZM39.46 31.97L57.10 31.97L57.10 37.37L45.07 37.37L45.07 50.90L39.46 50.90ZM57.10 50.90L50.04 50.90L50.04 42.26L57.10 42.26ZM67.68 50.90L63.07 50.90L63.07 26.71L33.70 26.71L33.70 50.90L28.44 50.90L28.44 89.06L34.56 89.06L34.56 56.38L61.63 56.38L61.63 82.66C61.63 83.38 61.34 83.59 60.55 83.66C59.83 83.74 57.31 83.74 54.86 83.59C55.66 85.10 56.52 87.55 56.74 89.14C60.77 89.14 63.43 89.06 65.30 88.06C67.18 87.12 67.68 85.46 67.68 82.73Z"/></svg>
