<svg xmlns="http://www.w3.org/2000/svg" xmlns:xlink="http://www.w3.org/1999/xlink" width="72.00000000000001" height="106.56000000000002"><path fill="red" stroke="red" d="M60.41 37.30L54.79 37.30L54.79 33.05L60.41 33.05ZM60.41 45.65L54.79 45.65L54.79 41.33L60.41 41.33ZM35.14 41.33L40.61 41.33L40.61 45.65L35.14 45.65ZM35.14 33.05L40.61 33.05L40.61 37.30L35.14 37.30ZM50.33 41.33L50.33 45.65L45.07 45.65L45.07 41.33ZM45.07 37.30L45.07 33.05L50.33 33.05L50.33 37.30ZM66.02 28.87L55.66 28.87L55.66 23.18L50.33 23.18L50.33 28.87L45.07 28.87L45.07 23.18L39.74 23.18L39.74 28.87L29.66 28.87L29.66 49.90L66.02 49.90ZM68.18 52.99L27.29 52.99L27.29 57.96L68.18 57.96ZM37.44 65.30L58.10 65.30L58.10 70.63L37.44 70.63ZM63.86 74.88L63.86 61.13L31.82 61.13L31.82 74.88ZM28.22 62.64C26.86 61.13 22.10 55.51 19.44 52.85C22.54 48.02 25.20 42.84 27.00 37.37L23.54 34.99L22.39 35.28L15.77 35.28L20.02 32.40C18.86 29.88 16.42 26.14 13.90 23.40L9.07 26.50C11.16 29.16 13.46 32.76 14.54 35.28L3.96 35.28L3.96 41.33L19.15 41.33C15.41 49.54 8.93 57.46 2.52 61.99C3.38 63.22 4.82 66.74 5.26 68.69C7.63 66.82 10.08 64.58 12.38 61.99L12.38 89.21L18.43 89.21L18.43 60.19C20.52 63.07 22.82 66.17 24.05 68.18ZM56.95 82.80C58.10 80.93 59.40 78.77 60.62 76.61L54.65 74.95C54.00 77.18 52.56 80.35 51.48 82.80L44.14 82.80C43.49 80.64 42.26 77.47 41.04 75.02L35.93 76.54C36.72 78.48 37.66 80.78 38.38 82.80L25.99 82.80L25.99 87.91L68.98 87.91L68.98 82.80Z"/></svg>
