<svg xmlns="http://www.w3.org/2000/svg" xmlns:xlink="http://www.w3.org/1999/xlink" width="72.00000000000001" height="106.56000000000002"><path fill="red" stroke="red" d="M54.72 33.19C51.77 30.24 45.58 25.85 41.11 23.04L37.15 27.58C41.62 30.67 47.59 35.28 50.47 38.30ZM27.79 62.57C27.29 64.37 26.64 66.02 26.06 67.46L31.25 69.26C33.70 63.43 35.14 53.64 35.86 46.30L30.82 45.07C30.31 50.62 29.38 57.10 27.86 62.42C26.64 60.48 21.53 53.35 19.73 51.05L19.73 49.68L27.72 49.68L27.72 43.49L19.73 43.49L19.73 31.68C22.61 30.96 25.42 30.02 27.79 29.02L23.76 23.62C19.01 25.92 11.38 27.94 4.68 29.30C5.33 30.82 6.19 32.98 6.55 34.49C8.78 34.13 11.16 33.70 13.54 33.19L13.54 43.49L4.25 43.49L4.25 49.68L12.82 49.68C10.44 57.24 6.34 65.88 2.45 70.78C3.60 72.58 5.18 75.46 5.83 77.33C8.57 73.58 11.30 68.04 13.54 62.21L13.54 89.28L19.73 89.28L19.73 59.11C21.31 62.28 23.04 65.81 23.90 67.82ZM48.02 82.58C45.58 82.58 45.22 82.08 45.22 79.13L45.22 72.72C50.04 66.31 54.07 59.04 57.60 51.05C60.12 57.46 62.50 65.45 63.29 70.78L69.41 69.05C68.40 63.29 65.74 54.72 62.78 48.10L58.32 49.32C60.98 42.91 63.29 36.14 65.30 28.87L58.90 27.65C55.66 40.25 51.19 51.55 45.22 61.27L45.22 39.24L38.88 39.24L38.88 70.27C34.85 75.31 30.24 79.63 25.06 83.23C26.64 84.24 29.45 86.54 30.46 87.77C33.41 85.46 36.29 83.02 38.88 80.28C39.10 86.62 40.90 88.42 47.23 88.42L56.23 88.42C62.06 88.42 63.65 85.25 64.37 74.88C62.64 74.45 60.12 73.44 58.68 72.29C58.32 80.78 57.96 82.58 55.66 82.58Z"/></svg>
