<svg xmlns="http://www.w3.org/2000/svg" xmlns:xlink="http://www.w3.org/1999/xlink" width="72.00000000000001" height="106.56000000000002"><path fill="red" stroke="red" d="M46.73 33.34C46.01 35.28 44.78 37.73 43.63 39.82L28.30 39.82C27.72 37.94 26.50 35.35 25.13 33.34ZM68.18 39.82L50.76 39.82C51.77 38.23 52.78 36.43 53.86 34.49L47.95 33.34L63.79 33.34L63.79 28.01L40.68 28.01C39.89 26.28 38.66 24.05 37.51 22.39L31.32 23.90C31.97 25.13 32.76 26.57 33.48 28.01L8.50 28.01L8.50 33.34L23.40 33.34L18.50 34.63C19.51 36.14 20.38 38.09 21.02 39.82L3.82 39.82L3.82 45.14L68.18 45.14ZM17.71 65.23L17.71 60.98L32.62 60.98L32.62 65.23ZM17.71 52.63L32.62 52.63L32.62 56.95L17.71 56.95ZM54.14 56.95L39.17 56.95L39.17 52.63L54.14 52.63ZM54.14 65.23L39.17 65.23L39.17 60.98L54.14 60.98ZM39.17 82.51L39.17 78.41L63.29 78.41L63.29 73.44L39.17 73.44L39.17 69.48L60.70 69.48L60.70 48.46L11.45 48.46L11.45 69.48L32.62 69.48L32.62 73.44L8.86 73.44L8.86 78.41L32.62 78.41L32.62 82.51L3.60 82.51L3.60 87.77L68.47 87.77L68.47 82.51Z"/></svg>
