<svg xmlns="http://www.w3.org/2000/svg" xmlns:xlink="http://www.w3.org/1999/xlink" width="72.00000000000001" height="106.56000000000002"><path fill="red" stroke="red" d="M20.09 33.98L17.57 36.79C20.59 38.74 24.41 41.62 26.35 43.56L30.02 39.24C28.44 37.66 25.56 35.64 22.90 33.98L35.35 33.98L35.35 28.30L18.22 28.30C18.86 27.00 19.44 25.85 19.94 24.55L13.68 22.82C11.23 28.87 7.13 34.92 2.52 38.88C4.03 39.96 6.48 42.26 7.56 43.42C10.15 40.82 12.74 37.58 14.98 33.98ZM26.71 61.49L19.22 63.29L19.22 55.37L26.93 55.37L26.93 49.54L19.22 49.54L19.22 41.11L12.96 41.11L12.96 49.54L4.03 49.54L4.03 55.37L12.96 55.37L12.96 64.73C9.29 65.66 5.90 66.46 3.17 67.03L4.18 72.86L12.96 70.63L12.96 81.43C12.96 82.30 12.67 82.51 11.81 82.58C11.02 82.58 8.35 82.66 5.62 82.51C6.41 84.31 7.27 87.12 7.56 88.85C11.66 88.85 14.62 88.70 16.63 87.62C18.65 86.62 19.22 84.82 19.22 81.50L19.22 69.05L27.22 67.03ZM34.56 82.87L34.56 48.10L67.32 48.10L67.32 42.62L60.12 42.62L63.00 39.46C61.34 37.94 58.32 35.93 55.66 34.13L68.26 34.13L68.26 28.44L48.46 28.44C49.03 27.07 49.54 25.70 49.97 24.26L43.42 22.82C41.76 28.58 38.52 34.20 34.49 37.80C36.14 38.66 39.02 40.54 40.25 41.62C42.19 39.60 43.99 37.01 45.65 34.13L52.20 34.13L49.90 36.50C52.56 38.30 55.80 40.68 57.96 42.62L28.58 42.62L28.58 88.34L69.26 88.34L69.26 82.87ZM65.95 54.94L54.72 54.94L54.72 49.82L49.18 49.82L49.18 54.94L38.59 54.94L38.59 76.32L43.92 76.32L43.92 60.19L49.18 60.19L49.18 81.07L54.72 81.07L54.72 60.19L60.26 60.19L60.26 71.21C60.26 71.78 60.12 71.93 59.54 72.00C58.97 72.00 57.53 72.00 55.58 71.93C56.23 73.37 56.88 75.24 57.10 76.75C60.19 76.75 62.35 76.75 64.01 75.89C65.59 75.02 65.95 73.80 65.95 71.21Z"/></svg>
