<svg xmlns="http://www.w3.org/2000/svg" xmlns:xlink="http://www.w3.org/1999/xlink" width="72.00000000000001" height="106.56000000000002"><path fill="red" stroke="red" d="M32.11 64.44C31.39 60.70 29.09 54.65 26.86 50.04L22.10 51.70C22.97 53.50 23.76 55.51 24.55 57.60L14.26 58.97C19.87 52.63 25.42 44.78 29.88 36.94L24.26 33.41C22.68 36.65 20.88 39.89 18.94 42.91L12.46 43.49C16.27 38.23 20.02 31.68 22.82 25.42L16.63 22.90C13.90 30.53 9.14 38.45 7.56 40.54C6.12 42.70 4.82 44.06 3.53 44.42C4.25 46.08 5.26 49.18 5.62 50.47C6.70 49.97 8.28 49.54 14.98 48.74C12.67 52.13 10.66 54.65 9.58 55.80C7.34 58.46 5.76 60.19 3.96 60.55C4.75 62.21 5.83 65.38 6.12 66.67C7.56 65.81 10.08 65.23 26.06 62.57C26.50 64.08 26.71 65.30 26.93 66.46ZM6.70 69.41C6.12 75.17 5.18 81.58 3.53 85.82C4.90 86.26 7.42 87.12 8.57 87.70C10.08 83.30 11.30 76.54 12.02 70.34ZM14.62 70.13C15.41 74.74 16.13 80.64 16.20 84.60L21.24 83.30C21.02 79.42 20.23 73.58 19.37 69.05ZM59.76 52.63C58.32 58.46 56.16 63.79 53.35 68.47C50.54 63.72 48.46 58.32 46.94 52.63ZM54.14 32.69C53.42 37.01 52.63 42.19 51.70 46.66L43.34 46.66C43.56 42.19 43.78 37.58 43.85 32.69ZM63.22 46.37L61.99 46.66L58.03 46.66C59.26 40.32 60.48 32.76 61.27 26.71L56.66 26.14L55.66 26.42L30.74 26.42L30.74 32.69L37.37 32.69C37.22 51.48 36.07 67.39 30.60 78.70C29.95 75.60 28.44 70.85 27.00 67.32L22.39 68.76C23.69 72.43 25.13 77.33 25.70 80.42L30.53 78.77C29.45 80.86 28.30 82.80 26.93 84.60C28.51 85.54 31.68 87.77 32.69 88.85C38.38 80.64 41.11 70.13 42.48 57.46C44.28 63.58 46.51 69.12 49.46 74.02C46.01 78.41 41.98 81.86 37.58 84.17C39.02 85.39 40.90 87.70 41.83 89.35C46.01 86.76 49.97 83.52 53.42 79.56C56.59 83.38 60.41 86.54 64.87 88.85C65.88 87.05 67.82 84.53 69.41 83.23C64.73 81.22 60.77 78.12 57.46 74.23C62.14 67.18 65.59 58.39 67.39 47.88Z"/></svg>
