<svg xmlns="http://www.w3.org/2000/svg" xmlns:xlink="http://www.w3.org/1999/xlink" width="72.00000000000001" height="106.56000000000002"><path fill="red" stroke="red" d="M29.59 64.22C28.87 60.48 26.71 54.50 24.55 49.97L19.87 51.62C20.74 53.57 21.60 55.66 22.25 57.89L12.60 59.33C18.29 52.70 23.83 44.50 28.30 36.50L22.68 33.05C21.02 36.58 19.01 40.18 16.99 43.49L10.66 43.99C14.62 38.66 18.50 31.90 21.60 25.34L15.48 22.75C12.67 30.38 7.85 38.52 6.41 40.46C4.90 42.62 3.67 44.06 2.38 44.42C3.10 46.08 4.10 49.18 4.46 50.47C5.47 49.97 6.98 49.61 13.46 48.82C11.23 52.13 9.36 54.65 8.28 55.80C6.12 58.46 4.54 60.19 2.88 60.62C3.67 62.28 4.68 65.45 4.97 66.74C6.41 65.95 8.64 65.38 23.76 62.71C24.12 64.01 24.41 65.23 24.55 66.17ZM5.47 69.41C4.97 75.24 3.96 81.58 2.38 85.90C3.67 86.33 6.26 87.12 7.42 87.77C8.93 83.45 10.08 76.61 10.80 70.34ZM13.32 70.13C14.11 74.88 14.83 81.14 14.98 85.18L20.16 83.88C19.94 79.92 19.08 73.73 18.14 69.05ZM21.24 68.62C22.54 72.58 24.19 77.76 24.84 81.14L29.59 79.49C28.87 76.18 27.29 70.99 25.78 67.10ZM57.53 82.08C56.02 82.08 55.87 81.72 55.87 79.70L55.87 55.51L60.19 55.01C61.20 57.10 61.99 58.97 62.57 60.55L68.47 57.74C66.67 52.99 62.28 45.72 58.54 40.18L53.14 42.55C54.43 44.71 55.94 47.09 57.31 49.61L38.95 51.34C41.69 47.38 44.42 42.84 47.02 38.09L67.90 38.09L67.90 31.82L50.26 31.82C51.26 29.59 52.34 27.22 53.35 24.98L46.01 22.97C45.00 25.99 43.78 28.94 42.48 31.82L29.81 31.82L29.81 38.09L39.46 38.09C37.22 42.41 35.21 45.86 34.20 47.23C32.26 50.18 30.82 52.06 29.16 52.49C30.02 54.36 31.18 57.67 31.54 59.04C32.47 58.54 33.77 58.18 37.58 57.74C37.15 71.28 35.64 79.49 25.13 84.24C26.57 85.46 28.51 87.84 29.16 89.57C41.40 83.45 43.34 73.08 43.99 56.88L49.54 56.23L49.54 79.78C49.54 86.04 50.90 87.98 56.52 87.98L62.21 87.98C67.03 87.98 68.54 85.18 69.12 75.02C67.46 74.59 64.80 73.51 63.43 72.43C63.29 80.71 63.00 82.08 61.56 82.08Z"/></svg>
