<svg xmlns="http://www.w3.org/2000/svg" xmlns:xlink="http://www.w3.org/1999/xlink" width="72.00000000000001" height="106.56000000000002"><path fill="red" stroke="red" d="M65.30 24.48C56.66 26.78 41.76 28.22 29.16 29.02C29.74 30.38 30.53 32.54 30.67 33.98C43.34 33.48 58.75 32.04 68.83 29.52ZM61.63 49.54C63.50 46.01 65.81 40.54 67.68 35.64L61.63 34.20C60.55 38.38 58.32 44.42 56.38 48.17ZM52.85 46.01C52.34 43.06 50.54 38.30 48.89 34.78L43.49 36.07C45.14 39.74 46.66 44.71 47.23 47.59ZM41.33 48.02C40.61 44.93 38.74 40.10 36.86 36.36L31.46 37.73C33.19 41.54 34.99 46.58 35.64 49.68ZM29.38 65.09C28.73 61.34 26.71 55.08 24.84 50.40L20.16 51.70C20.95 53.86 21.74 56.16 22.46 58.54L12.46 59.76C18.22 53.21 24.05 45.07 28.58 37.01L22.82 33.55C21.31 36.79 19.44 40.10 17.64 43.13L11.16 43.63C14.90 38.30 18.65 31.68 21.60 25.27L15.55 22.82C12.82 30.53 8.06 38.66 6.62 40.82C5.11 42.91 3.89 44.35 2.66 44.71C3.31 46.22 4.25 49.25 4.61 50.47C5.69 50.04 7.34 49.61 13.82 48.82C11.52 52.20 9.50 54.79 8.42 55.94C6.26 58.54 4.68 60.19 3.02 60.62C3.82 62.28 4.75 65.45 5.11 66.67C6.55 66.02 8.86 65.45 23.76 63.36C24.05 64.66 24.34 65.81 24.48 66.74ZM5.98 69.41C5.40 75.38 4.39 81.94 2.74 86.33C4.18 86.76 6.77 87.55 7.92 88.20C9.50 83.81 10.73 76.82 11.45 70.27ZM13.75 70.13C14.62 75.17 15.41 81.79 15.55 86.11L20.81 85.03C20.52 80.71 19.73 74.23 18.72 69.26ZM21.31 68.69C22.68 72.72 24.26 77.98 24.84 81.43L29.74 79.78C29.16 76.39 27.50 71.21 25.99 67.18ZM56.16 61.13C54.79 65.74 52.78 69.62 50.04 72.79C46.94 71.21 43.78 69.70 40.68 68.40C41.98 66.24 43.34 63.72 44.71 61.13ZM58.18 52.06C57.96 53.35 57.74 54.50 57.53 55.66L47.38 55.66C48.31 53.71 49.18 51.62 49.82 49.82L43.99 48.74C43.20 50.90 42.26 53.28 41.11 55.66L30.10 55.66L30.10 61.13L38.38 61.13C36.43 64.73 34.42 68.11 32.47 70.78C36.79 72.43 41.40 74.52 45.86 76.82C41.62 80.06 36.14 82.30 29.09 83.88C30.24 85.10 31.68 87.26 32.26 88.78C40.39 86.69 46.51 83.81 51.26 79.85C56.23 82.73 60.70 85.68 63.86 88.34L68.11 83.88C64.87 81.29 60.34 78.41 55.37 75.60C58.54 71.64 60.77 66.89 62.42 61.13L68.69 61.13L68.69 55.66L63.65 55.66C63.79 54.79 63.94 53.93 64.08 53.06Z"/></svg>
