<svg xmlns="http://www.w3.org/2000/svg" xmlns:xlink="http://www.w3.org/1999/xlink" width="72.00000000000001" height="106.56000000000002"><path fill="red" stroke="red" d="M35.93 37.51L61.92 37.51L61.92 44.42L68.33 44.42L68.33 31.90L53.42 31.90C52.56 29.23 50.90 25.63 49.25 22.90L43.56 24.48C44.78 26.71 46.01 29.52 46.87 31.90L29.81 31.90L29.81 44.42L35.93 44.42ZM29.81 65.45C29.23 61.63 27.50 55.30 25.85 50.47L20.88 51.70C21.46 53.64 22.10 55.80 22.68 57.96L12.89 59.26C18.36 52.92 23.83 45.07 28.08 37.30L22.46 33.98C21.10 37.01 19.37 40.18 17.64 43.06L11.16 43.56C14.98 38.23 18.65 31.68 21.53 25.34L15.48 22.90C12.82 30.53 8.06 38.66 6.62 40.75C5.11 42.91 3.89 44.35 2.66 44.64C3.31 46.22 4.25 49.18 4.61 50.47C5.69 50.04 7.27 49.61 13.82 48.82C11.52 52.27 9.50 54.94 8.42 56.09C6.34 58.61 4.68 60.41 3.10 60.70C3.82 62.35 4.75 65.45 5.11 66.74C6.62 65.95 9.00 65.38 23.90 63.22C24.19 64.66 24.41 65.95 24.55 67.03ZM5.98 69.41C5.40 75.38 4.39 81.86 2.74 86.33C4.18 86.76 6.70 87.55 7.85 88.13C9.43 83.66 10.66 76.75 11.30 70.27ZM13.46 70.20C14.26 75.17 14.90 81.72 15.05 86.11L20.30 85.10C20.09 80.78 19.30 74.30 18.43 69.26ZM20.74 68.83C21.96 72.50 23.40 77.26 23.98 80.42L28.80 78.77C28.22 75.74 26.71 70.99 25.27 67.32ZM52.34 68.40L65.45 68.40L65.45 62.64L52.34 62.64L52.34 52.27L66.53 52.27L66.53 46.44L32.11 46.44L32.11 52.27L45.86 52.27L45.86 78.91C43.20 76.90 41.04 73.51 39.53 68.11C40.10 64.73 40.39 61.27 40.68 57.89L34.56 57.89C34.06 67.54 32.76 79.06 26.14 85.54C27.50 86.47 29.30 88.13 30.17 89.50C33.70 85.97 36.07 81.43 37.58 76.54C41.98 86.18 48.60 88.13 57.38 88.13L67.75 88.13C68.04 86.40 68.83 83.45 69.70 82.01C67.32 82.08 59.47 82.08 57.67 82.08C55.80 82.08 54.07 82.01 52.34 81.65Z"/></svg>
