<svg xmlns="http://www.w3.org/2000/svg" xmlns:xlink="http://www.w3.org/1999/xlink" width="72.00000000000001" height="106.56000000000002"><path fill="red" stroke="red" d="M58.68 54.07C57.60 52.34 55.94 50.26 54.14 48.17C56.16 45.72 57.89 43.27 59.26 40.90L54.86 40.10C54.00 41.69 52.85 43.42 51.41 45.07C50.62 44.28 49.75 43.42 48.89 42.55C50.47 40.68 51.77 38.66 52.85 36.72L48.53 36.00C47.95 37.22 47.09 38.52 46.01 39.82C44.93 38.81 43.78 37.80 42.62 36.94L39.10 39.17C40.46 40.32 41.83 41.54 43.13 42.84C41.47 44.50 39.53 45.94 37.30 47.30C38.30 47.88 39.53 49.32 40.10 50.26C42.34 48.82 44.28 47.30 45.94 45.72C46.80 46.58 47.66 47.45 48.38 48.38C46.01 50.69 43.13 52.92 39.74 54.86C40.68 55.51 41.90 56.88 42.48 57.89C45.72 55.94 48.53 53.71 51.05 51.41C52.56 53.28 54.00 55.22 54.94 56.81ZM59.54 58.39L37.08 58.39L37.08 35.28L59.54 35.28ZM65.59 29.88L47.59 29.88C48.46 28.08 49.61 25.92 50.69 23.83L43.85 22.68C43.42 24.70 42.41 27.58 41.54 29.88L31.25 29.88L31.25 63.86L65.59 63.86ZM56.09 75.31C54.65 72.58 51.55 67.82 49.32 64.37L45.00 66.38C47.23 70.06 50.11 74.95 51.55 77.83ZM29.02 64.80C28.37 61.34 26.42 55.51 24.70 51.05L20.09 52.34C20.74 54.00 21.38 55.94 21.89 57.82L12.46 59.47C17.93 52.78 23.40 44.64 27.65 36.58L22.18 33.70C20.74 37.01 18.94 40.39 17.14 43.49L10.73 43.99C14.40 38.59 18.00 31.82 20.66 25.42L14.69 22.97C12.31 30.67 7.85 38.74 6.41 40.82C5.04 42.98 3.89 44.42 2.66 44.78C3.31 46.37 4.25 49.25 4.61 50.47C5.62 49.97 7.20 49.61 13.82 48.74C11.52 52.42 9.50 55.22 8.42 56.45C6.34 59.04 4.75 60.84 3.10 61.20C3.89 62.71 4.82 65.59 5.11 66.82C6.48 66.02 8.71 65.30 23.26 62.50C23.62 63.94 23.90 65.23 24.12 66.38ZM6.77 69.41C6.05 75.24 4.90 81.50 3.02 85.82C4.32 86.18 6.62 86.98 7.70 87.55C9.43 83.16 10.80 76.46 11.66 70.27ZM13.54 70.20C14.33 74.95 15.12 81.22 15.26 85.39L20.02 84.24C19.80 80.14 19.01 74.02 18.07 69.19ZM20.23 68.83C21.38 72.65 22.61 77.62 23.04 80.93L27.65 79.49C27.14 76.32 25.85 71.42 24.62 67.54ZM31.10 85.97C33.26 81.79 34.85 75.17 35.93 70.27L31.25 68.54C30.31 73.44 28.44 79.78 26.28 83.74ZM45.22 82.80C42.77 82.80 42.41 82.51 42.41 80.86L42.41 68.69L36.79 68.69L36.79 80.86C36.79 86.11 38.30 87.62 44.50 87.62L53.93 87.62C58.90 87.62 60.41 85.61 61.06 77.76C59.47 77.40 57.24 76.61 56.09 75.67C55.80 81.86 55.37 82.80 53.35 82.80ZM58.54 69.98C60.62 74.66 63.22 80.86 64.44 84.82L69.34 82.58C67.97 78.77 65.38 72.79 63.07 68.11Z"/></svg>
