<svg xmlns="http://www.w3.org/2000/svg" xmlns:xlink="http://www.w3.org/1999/xlink" width="72.00000000000001" height="106.56000000000002"><path fill="red" stroke="red" d="M47.30 57.74L47.30 62.35L68.33 62.35L68.33 57.74L60.19 57.74L60.19 52.85L66.96 52.85L66.96 48.31L60.19 48.31L60.19 44.35L55.08 44.35L55.08 48.31L48.82 48.31L48.82 52.85L55.08 52.85L55.08 57.74ZM67.68 38.30L50.83 38.30L50.83 33.48L63.94 33.48L63.94 28.44L50.83 28.44L50.83 23.18L44.64 23.18L44.64 28.44L31.75 28.44L31.75 33.48L44.64 33.48L44.64 38.30L28.58 38.30L28.58 43.34L67.68 43.34ZM28.01 63.86C33.26 63.07 39.67 62.14 46.22 61.13L46.08 56.81L40.03 57.46L40.03 52.85L45.58 52.85L45.58 48.31L40.03 48.31L40.03 44.35L34.78 44.35L34.78 48.31L28.58 48.31L28.58 52.85L34.78 52.85L34.78 58.03C31.97 58.39 29.38 58.61 27.07 58.82ZM26.64 64.80C25.99 61.20 24.12 55.37 22.39 50.83L18.36 52.13C18.94 53.93 19.66 55.94 20.30 57.96L11.66 59.54C16.78 52.99 21.89 44.86 25.85 36.79L20.95 34.06C19.66 37.15 18.00 40.39 16.34 43.34L10.15 43.92C13.61 38.59 17.06 31.90 19.51 25.49L14.18 23.18C11.81 30.82 7.49 38.88 6.12 40.97C4.82 43.13 3.74 44.57 2.52 44.86C3.17 46.37 4.03 49.25 4.39 50.47C5.33 49.97 6.84 49.54 13.18 48.82C10.94 52.49 9.00 55.37 7.99 56.59C5.98 59.33 4.54 61.06 3.02 61.42C3.67 62.93 4.54 65.74 4.82 66.89C6.12 66.10 8.21 65.45 21.67 62.71C21.96 64.01 22.25 65.30 22.46 66.38ZM6.48 69.48C5.83 75.31 4.68 81.58 2.81 85.82C4.10 86.18 6.26 86.98 7.27 87.55C8.93 83.16 10.22 76.46 11.09 70.27ZM13.18 70.20C13.90 75.02 14.69 81.29 14.83 85.46L19.30 84.24C19.08 80.14 18.29 74.02 17.42 69.26ZM20.09 69.05C21.46 73.15 23.04 78.62 23.69 82.15L27.94 80.64C27.36 77.11 25.63 71.78 24.12 67.61ZM58.10 83.02C56.66 83.02 56.38 82.80 56.38 81.22L56.38 71.21L68.83 71.21L68.83 65.74L27.58 65.74L27.58 71.21L38.23 71.21C37.22 78.19 34.42 82.01 24.34 84.31C25.56 85.46 27.14 87.84 27.72 89.35C39.46 86.11 42.91 80.50 44.06 71.21L50.33 71.21L50.33 81.22C50.33 86.62 51.62 88.27 57.10 88.27L63.14 88.27C67.46 88.27 68.98 86.26 69.55 78.48C67.97 78.05 65.52 77.18 64.30 76.18C64.15 82.15 63.79 83.02 62.42 83.02Z"/></svg>
