<svg xmlns="http://www.w3.org/2000/svg" xmlns:xlink="http://www.w3.org/1999/xlink" width="72.00000000000001" height="106.56000000000002"><path fill="red" stroke="red" d="M22.97 76.39L19.30 76.39L19.30 54.43L30.02 54.43L30.02 48.53L19.30 48.53L19.30 36.65L28.80 36.65L28.80 30.74L12.60 30.74C13.18 28.30 13.82 25.70 14.33 23.26L8.93 22.03C7.56 29.66 5.18 37.58 2.09 42.70C3.46 43.34 5.90 44.93 6.98 45.79C8.28 43.27 9.65 40.10 10.87 36.65L14.04 36.65L14.04 48.53L3.10 48.53L3.10 54.43L14.04 54.43L14.04 76.39L10.15 76.39L10.15 59.33L5.26 59.33L5.26 82.15L22.97 82.15L22.97 84.10L27.86 84.10L27.86 59.26L22.97 59.26ZM36.86 69.62C40.54 63.94 43.63 56.66 46.08 49.03L46.08 69.62ZM68.11 43.13L68.11 36.86L52.42 36.86L52.42 23.18L46.08 23.18L46.08 36.86L31.39 36.86L31.39 43.13L42.55 43.13C39.38 53.57 34.13 64.15 28.22 69.77C29.66 70.99 31.75 73.30 32.83 74.88C34.06 73.58 35.14 72.07 36.29 70.49L36.29 75.67L46.08 75.67L46.08 89.14L52.42 89.14L52.42 75.67L61.20 75.67L61.20 69.62L52.42 69.62L52.42 49.68C55.51 59.47 59.90 68.69 65.02 74.23C66.17 72.58 68.33 70.27 69.84 69.05C64.08 63.50 58.82 53.28 55.87 43.13Z"/></svg>
