<svg xmlns="http://www.w3.org/2000/svg" xmlns:xlink="http://www.w3.org/1999/xlink" width="72.00000000000001" height="106.56000000000002"><path fill="red" stroke="red" d="M38.30 53.71C43.78 51.12 50.54 47.74 56.88 44.42L55.51 39.74C48.24 43.06 40.75 46.44 35.86 48.38ZM38.30 36.29C42.12 37.80 47.30 40.32 49.97 41.76L52.92 37.15C50.18 35.78 45.00 33.55 41.18 32.18ZM25.49 40.39C18.29 43.63 10.94 46.94 5.98 48.89L8.42 54.14C13.82 51.55 20.59 48.24 26.78 44.93ZM8.42 36.36C12.24 37.87 17.42 40.39 20.09 41.83L23.04 37.22C20.30 35.86 15.12 33.62 11.38 32.26ZM52.70 70.42L19.80 70.42L19.80 64.73L52.70 64.73ZM19.80 81.50L19.80 75.60L52.70 75.60L52.70 81.50ZM33.05 53.06C33.62 52.13 33.84 50.83 33.84 49.18L33.84 26.21L6.26 26.21L6.26 31.68L27.65 31.68L27.65 49.10C27.65 49.90 27.43 50.11 26.57 50.11C25.85 50.11 23.26 50.11 20.59 50.04C21.31 51.62 21.89 53.78 22.10 55.44C26.21 55.44 29.30 55.44 31.32 54.58C31.61 54.43 31.82 54.29 32.04 54.14C31.46 55.87 30.67 57.74 29.88 59.54L13.18 59.54L13.18 89.42L19.80 89.42L19.80 86.76L52.70 86.76L52.70 89.42L59.69 89.42L59.69 59.54L36.50 59.54C37.51 57.82 38.52 56.02 39.53 54.14ZM63.72 26.14L36.79 26.14L36.79 31.61L57.60 31.61L57.60 49.03C57.60 49.82 57.38 50.04 56.52 50.04C55.80 50.04 53.21 50.04 50.54 49.97C51.19 51.55 51.84 53.71 52.06 55.37C56.16 55.37 59.26 55.37 61.27 54.50C63.22 53.57 63.72 52.06 63.72 49.10Z"/></svg>
