<svg xmlns="http://www.w3.org/2000/svg" xmlns:xlink="http://www.w3.org/1999/xlink" width="72.00000000000001" height="106.56000000000002"><path fill="red" stroke="red" d="M26.86 30.24L26.86 34.85L12.96 34.85L12.96 30.24ZM12.96 43.92L12.96 39.38L26.86 39.38L26.86 43.92ZM33.12 48.60L33.12 25.63L6.41 25.63L6.41 89.21L12.96 89.21L12.96 48.60ZM29.02 74.59L29.02 71.21L42.62 71.21L42.62 74.59ZM42.62 56.59L42.62 59.90L29.02 59.90L29.02 56.59ZM29.02 63.86L42.62 63.86L42.62 67.18L29.02 67.18ZM54.58 79.42L54.58 74.59L48.67 74.59L48.67 56.59L53.50 56.59L53.50 51.77L18.22 51.77L18.22 56.59L23.11 56.59L23.11 74.59L16.56 74.59L16.56 79.42L42.62 79.42L42.62 87.19L48.67 87.19L48.67 79.42ZM45.07 43.92L45.07 39.38L59.33 39.38L59.33 43.92ZM59.33 30.24L59.33 34.85L45.07 34.85L45.07 30.24ZM65.88 25.63L38.66 25.63L38.66 48.60L59.33 48.60L59.33 81.94C59.33 82.87 59.04 83.16 58.10 83.23C57.24 83.30 54.22 83.30 51.41 83.16C52.27 84.74 53.14 87.48 53.35 89.06C57.89 89.06 61.06 88.92 63.22 87.91C65.23 86.90 65.88 85.25 65.88 81.94Z"/></svg>
