<svg xmlns="http://www.w3.org/2000/svg" xmlns:xlink="http://www.w3.org/1999/xlink" width="72.00000000000001" height="106.56000000000002"><path fill="red" stroke="red" d="M17.06 23.11C14.26 26.06 8.71 29.52 4.03 31.61C5.18 32.62 6.84 34.70 7.70 35.86C12.74 33.41 18.72 29.30 22.75 25.27ZM12.67 54.50L18.86 54.50L18.86 39.89C20.52 38.52 22.03 37.08 23.40 35.57C24.70 36.43 26.78 38.09 27.65 38.95C30.53 37.30 33.12 35.06 35.14 32.40C37.08 33.91 38.95 35.50 40.10 36.65L42.05 34.99C42.62 35.28 43.27 35.86 43.92 36.36L43.63 36.36L43.63 48.60C39.82 47.88 36.94 46.51 34.99 43.70C35.50 42.26 35.86 40.61 36.14 38.81L30.46 38.38C29.66 44.28 27.00 48.67 21.96 51.48C23.33 52.27 25.63 54.14 26.57 55.08C29.23 53.21 31.54 50.90 33.12 48.02C37.30 52.63 43.34 53.71 52.70 53.71L66.89 53.71C67.03 52.42 67.75 50.33 68.47 49.25L53.06 49.25C51.91 49.25 50.90 49.25 49.90 49.18L49.90 44.50L63.43 44.50L63.43 40.32L49.90 40.32L49.90 36.36L49.46 36.36C51.05 35.21 52.49 33.98 53.78 32.47C57.38 34.42 61.20 36.79 63.22 38.52L67.10 34.63C64.73 32.76 60.41 30.24 56.59 28.44C57.38 27.00 58.03 25.42 58.46 23.76L52.63 23.04C51.41 27.79 48.24 31.25 43.63 33.62L44.06 33.26C42.62 31.82 40.03 29.95 37.80 28.37C38.45 27.07 39.02 25.56 39.46 23.98L33.84 23.11C32.33 28.22 28.80 32.33 23.98 34.99L24.19 34.70L18.29 32.54C15.19 36.50 8.78 40.75 3.10 43.13C4.10 44.21 5.90 46.44 6.77 47.59C8.71 46.73 10.73 45.65 12.67 44.35ZM21.17 78.91L21.17 75.74L50.76 75.74L50.76 78.91ZM50.76 60.77L50.76 64.08L21.17 64.08L21.17 60.77ZM21.17 68.26L50.76 68.26L50.76 71.57L21.17 71.57ZM57.24 60.77L67.32 60.77L67.32 55.94L4.90 55.94L4.90 60.77L14.76 60.77L14.76 78.91L3.67 78.91L3.67 83.74L50.76 83.74L50.76 89.28L57.24 89.28L57.24 83.74L68.40 83.74L68.40 78.91L57.24 78.91Z"/></svg>
