<svg xmlns="http://www.w3.org/2000/svg" xmlns:xlink="http://www.w3.org/1999/xlink" width="72.00000000000001" height="106.56000000000002"><path fill="red" stroke="red" d="M68.76 59.76L31.10 59.76L31.10 65.45L68.76 65.45ZM43.34 67.90C46.22 70.92 49.68 75.53 51.12 78.55L55.73 75.89C54.29 73.01 50.90 68.62 47.66 65.66ZM52.13 51.19L47.16 51.19L47.16 43.63L52.13 43.63ZM56.09 43.63L61.27 43.63L61.27 51.19L56.09 51.19ZM43.20 51.19L38.45 51.19L38.45 43.63L43.20 43.63ZM33.34 38.74L33.34 56.09L66.53 56.09L66.53 38.74L50.90 38.74C51.12 37.37 51.41 35.86 51.62 34.27L67.75 34.27L67.75 29.02L52.49 29.02C52.78 27.22 52.99 25.42 53.21 23.76L47.45 23.47C47.30 25.20 47.02 27.14 46.80 29.02L32.11 29.02L32.11 34.27L46.01 34.27C45.72 35.86 45.50 37.37 45.29 38.74ZM18.86 61.27C15.12 62.06 8.93 62.64 3.96 63.00C4.46 64.15 4.97 65.74 5.11 66.82C6.70 66.82 8.35 66.82 10.15 66.67L10.15 71.14L5.26 71.14L5.26 75.46L10.15 75.46L10.15 80.21C7.63 80.50 5.26 80.71 3.24 80.86L3.89 85.82L20.95 83.66L20.88 78.98L15.26 79.63L15.26 75.46L19.80 75.46L19.80 71.14L15.26 71.14L15.26 66.24C17.42 66.02 19.51 65.66 21.31 65.30ZM22.39 35.93L13.46 35.93L13.46 31.46L22.39 31.46ZM13.46 48.96L22.39 48.96L22.39 53.42C19.37 53.64 16.27 53.86 13.46 54.00ZM22.39 44.64L13.46 44.64L13.46 40.25L22.39 40.25ZM32.04 31.46L32.04 26.14L3.53 26.14L3.53 31.46L7.49 31.46L7.49 54.36L3.38 54.58L3.96 59.90C9.14 59.62 15.70 59.04 22.39 58.54L22.39 89.21L28.51 89.21L28.51 31.46ZM33.12 85.97C35.57 82.37 37.51 76.82 38.74 72.58L34.20 70.78C33.05 74.66 30.96 79.92 28.66 83.09ZM47.45 83.02C45.36 83.02 45.00 82.73 45.00 81.22L45.00 70.85L39.38 70.85L39.38 81.22C39.38 86.54 40.82 88.13 46.80 88.13L54.94 88.13C59.54 88.13 61.13 86.26 61.70 78.84C60.12 78.48 57.82 77.69 56.66 76.82C56.45 82.30 56.09 83.02 54.29 83.02ZM57.31 71.42C60.84 75.46 63.86 81.22 64.80 85.18L69.84 82.87C68.69 78.91 65.59 73.37 61.92 69.34Z"/></svg>
