<svg xmlns="http://www.w3.org/2000/svg" xmlns:xlink="http://www.w3.org/1999/xlink" width="72.00000000000001" height="106.56000000000002"><path fill="red" stroke="red" d="M52.42 33.05C51.41 30.24 49.46 25.85 47.59 22.46L41.33 24.26C42.98 27.65 44.93 32.26 45.79 35.21ZM67.54 35.28L30.10 35.28L30.10 41.62L67.54 41.62ZM12.74 43.85C14.83 46.30 17.06 49.18 18.22 51.12L21.10 49.10L21.10 56.74C17.93 58.90 14.83 60.84 12.46 62.21C12.67 58.25 12.74 54.43 12.74 51.12ZM21.10 31.82L21.10 46.73C19.58 44.78 17.50 42.34 15.55 40.32L12.74 42.12L12.74 31.82ZM26.86 25.70L6.98 25.70L6.98 51.12C6.98 61.49 6.62 75.67 2.38 85.61C3.67 86.33 6.12 88.42 7.13 89.64C10.44 82.22 11.81 72.22 12.38 63.07L14.62 67.90L21.10 62.35L21.10 81.79C21.10 82.80 20.74 83.09 19.87 83.16C19.08 83.16 16.27 83.23 13.46 83.09C14.26 84.67 14.98 87.48 15.19 89.06C19.66 89.06 22.54 88.92 24.41 87.84C26.28 86.83 26.86 84.96 26.86 81.94ZM60.77 82.80C60.26 82.80 59.90 82.73 59.62 82.44C59.33 82.15 59.26 81.14 59.26 79.42L59.26 48.17L35.14 48.17L35.14 61.13C35.14 68.54 34.27 77.90 26.78 84.60C28.15 85.54 30.60 88.13 31.46 89.50C39.96 81.86 41.54 69.98 41.54 61.27L41.54 54.43L52.63 54.43L52.63 79.42C52.63 84.53 53.14 85.97 54.29 87.12C55.44 88.20 57.31 88.70 58.82 88.70L62.64 88.70C64.15 88.70 65.74 88.42 66.82 87.62C67.82 86.98 68.54 85.90 68.98 84.10C69.41 82.37 69.62 77.76 69.70 73.94C68.04 73.44 65.95 72.36 64.66 71.28C64.66 75.38 64.58 78.62 64.44 80.06C64.30 81.43 64.08 82.15 63.79 82.44C63.50 82.73 62.93 82.80 62.42 82.80Z"/></svg>
