<svg xmlns="http://www.w3.org/2000/svg" xmlns:xlink="http://www.w3.org/1999/xlink" width="72.00000000000001" height="106.56000000000002"><path fill="red" stroke="red" d="M59.33 54.65L13.82 54.65L13.82 67.75C13.82 73.44 13.46 80.64 9.14 85.82C10.66 86.62 13.39 88.56 14.47 89.71C19.37 83.88 20.16 74.74 20.16 67.90L20.16 59.83L52.49 59.83L52.49 70.70L46.44 71.57L48.53 67.03C43.34 64.94 33.19 62.28 25.70 61.20L23.40 65.30C30.96 66.67 40.75 69.41 46.08 71.57C36.22 73.01 26.57 74.16 20.23 74.88L22.25 81.07C30.74 79.56 41.76 77.47 52.49 75.38L52.49 81.86C52.49 82.87 52.06 83.16 50.90 83.23C49.82 83.30 45.36 83.30 41.62 83.09C42.34 84.74 42.98 87.19 43.13 88.85C49.18 88.85 53.35 88.92 55.94 88.06C58.54 87.19 59.33 85.54 59.33 81.94ZM56.16 36.43L38.95 36.43L38.95 31.68L56.16 31.68ZM56.16 45.94L38.95 45.94L38.95 40.97L56.16 40.97ZM15.70 40.97L32.54 40.97L32.54 45.94L15.70 45.94ZM15.70 31.68L32.54 31.68L32.54 36.43L15.70 36.43ZM9.22 26.78L9.22 50.90L63.00 50.90L63.00 26.78Z"/></svg>
