<svg xmlns="http://www.w3.org/2000/svg" xmlns:xlink="http://www.w3.org/1999/xlink" width="72.00000000000001" height="106.56000000000002"><path fill="red" stroke="red" d="M11.45 44.57C13.10 46.66 14.83 49.10 15.77 50.76L18.43 48.89L18.43 57.10C15.77 59.11 13.18 61.06 11.16 62.35C11.38 58.32 11.45 54.50 11.45 51.12ZM18.43 31.82L18.43 46.30C17.21 44.57 15.62 42.55 14.04 40.97L11.45 42.55L11.45 31.82ZM23.69 25.70L6.19 25.70L6.19 51.19C6.19 61.42 5.90 75.46 2.30 85.46C3.38 86.18 5.62 88.34 6.41 89.57C9.22 82.44 10.51 73.08 11.09 64.37L12.89 68.18C14.69 66.53 16.63 64.66 18.43 62.93L18.43 82.22C18.43 83.09 18.14 83.38 17.35 83.38C16.63 83.45 14.26 83.45 11.74 83.38C12.53 84.82 13.18 87.48 13.32 88.92C17.28 88.92 19.80 88.78 21.46 87.77C23.18 86.90 23.69 85.10 23.69 82.30ZM57.67 51.91C55.37 50.76 51.26 49.10 47.81 47.88C48.53 47.02 49.10 46.15 49.61 45.36L44.93 44.28C42.70 48.02 37.87 50.83 32.76 52.63C33.91 53.35 35.71 54.79 36.58 55.66C39.38 54.43 42.26 52.78 44.71 50.83C48.38 52.27 52.70 54.14 55.08 55.37ZM58.39 55.94L31.90 55.94L31.90 44.21L58.39 44.21ZM26.28 39.82L26.28 60.26L64.30 60.26L64.30 39.82L62.78 39.82L66.31 38.30C64.44 36.36 61.13 33.77 57.89 31.54C60.34 29.59 63.00 27.36 65.59 24.98L59.69 23.26C57.60 25.56 54.00 28.87 50.54 31.68C54.50 34.49 58.10 37.51 60.41 39.82L48.10 39.82L52.63 38.09C50.83 36.22 47.81 33.62 44.78 31.46C47.09 29.52 49.54 27.43 51.91 24.98L45.94 23.40C43.99 25.63 40.82 28.80 37.58 31.61C41.33 34.49 44.93 37.51 46.87 39.82L35.86 39.82L39.02 38.59C37.37 36.65 34.42 33.98 31.54 31.68C33.77 29.66 36.22 27.43 38.38 24.91L32.54 23.40C30.67 25.70 27.65 28.94 24.55 31.75C27.94 34.49 30.96 37.51 32.90 39.82ZM32.90 82.01L32.90 77.54L40.97 77.54L40.97 73.01L32.90 73.01L32.90 69.48L40.90 69.48L40.90 64.94L32.90 64.94L32.90 61.70L27.58 61.70L27.58 81.07C27.58 83.38 26.42 83.88 25.42 84.17C26.14 85.46 26.86 87.98 27.14 89.42C28.22 88.63 30.02 87.91 40.68 85.03C40.39 83.88 40.03 81.86 39.89 80.35ZM48.10 81.86L48.10 77.69L55.94 77.69L55.94 73.15L48.10 73.15L48.10 69.62L55.94 69.62L55.94 65.16L48.10 65.16L48.10 61.70L42.84 61.70L42.84 81.07C42.84 83.38 41.76 83.88 40.75 84.17C41.40 85.46 42.19 87.91 42.41 89.35C43.56 88.49 45.50 87.77 57.60 84.24C57.31 83.09 56.95 81.14 56.88 79.70ZM57.24 61.92C57.31 76.82 59.26 89.14 64.87 89.14C66.74 89.14 68.62 87.05 69.55 80.57C68.62 80.06 66.96 78.91 66.02 77.83C65.81 81.36 65.30 83.16 64.80 83.16C63.36 83.16 62.35 74.16 62.50 61.92Z"/></svg>
