<svg xmlns="http://www.w3.org/2000/svg" xmlns:xlink="http://www.w3.org/1999/xlink" width="72.00000000000001" height="106.56000000000002"><path fill="red" stroke="red" d="M22.97 41.11C27.65 38.09 32.04 34.70 36.00 31.18C40.32 35.14 44.57 38.38 49.03 41.11ZM51.91 80.28L19.87 80.28L19.87 71.42L51.91 71.42ZM36.00 22.39C28.44 31.46 14.83 39.74 2.66 44.57C4.25 46.01 5.98 48.24 6.98 49.82C10.94 48.10 14.90 45.94 18.86 43.63L18.86 46.87L32.47 46.87L32.47 52.99L7.27 52.99L7.27 58.90L32.47 58.90L32.47 65.52L13.18 65.52L13.18 89.14L19.87 89.14L19.87 86.18L51.91 86.18L51.91 88.99L58.97 88.99L58.97 65.52L39.31 65.52L39.31 58.90L64.73 58.90L64.73 52.99L39.31 52.99L39.31 46.87L53.35 46.87L53.35 43.63C57.17 45.72 60.98 47.52 65.09 49.25C65.95 47.23 67.82 44.86 69.48 43.34C58.82 39.67 48.89 34.92 40.18 27.00C40.68 26.50 41.11 25.92 41.54 25.42Z"/></svg>
