<svg xmlns="http://www.w3.org/2000/svg" xmlns:xlink="http://www.w3.org/1999/xlink" width="72.00000000000001" height="106.56000000000002"><path fill="red" stroke="red" d="M29.59 52.20C28.51 56.88 26.93 60.98 25.06 64.73C22.25 62.57 18.58 60.05 15.12 58.03C16.42 56.16 17.57 54.22 18.58 52.20ZM31.75 46.44L21.38 46.44C22.03 44.93 22.61 43.49 23.11 41.98L27.00 41.98L27.00 35.42L34.63 35.42L34.63 29.23L27.00 29.23L27.00 23.33L20.38 23.33L20.38 29.23L4.46 29.23L4.46 35.42L20.38 35.42L20.38 41.26L16.70 40.39C13.75 49.32 8.42 57.74 2.16 63.07C3.67 64.08 6.26 66.31 7.34 67.54C8.78 66.17 10.30 64.51 11.66 62.78C15.19 65.02 19.08 67.90 21.67 70.34C17.21 76.61 11.52 81.14 4.82 84.17C6.26 85.32 8.50 87.91 9.36 89.50C22.75 82.80 33.05 69.41 37.15 47.81L32.98 46.22ZM45.14 41.98L51.84 41.98L51.84 35.42L67.46 35.42L67.46 29.23L51.84 29.23L51.84 23.33L45.14 23.33L45.14 29.23L37.22 29.23L37.22 35.42L45.14 35.42ZM49.46 81.94C46.22 81.94 45.72 81.43 45.72 78.62L45.72 51.26L58.61 51.26L58.61 64.87C58.61 65.66 58.32 65.95 57.46 65.95C56.52 66.02 53.64 66.02 50.40 65.95C51.26 67.61 52.20 70.13 52.34 71.86C56.95 71.86 60.19 71.78 62.35 70.78C64.51 69.84 65.09 68.04 65.09 65.02L65.09 45.22L39.17 45.22L39.17 78.62C39.17 86.26 41.33 88.13 48.67 88.13L60.55 88.13C66.82 88.13 68.62 85.54 69.48 76.75C67.68 76.39 64.94 75.24 63.50 74.23C63.14 80.64 62.64 81.94 60.05 81.94Z"/></svg>
