<svg xmlns="http://www.w3.org/2000/svg" xmlns:xlink="http://www.w3.org/1999/xlink" width="72.00000000000001" height="106.56000000000002"><path fill="red" stroke="red" d="M48.38 42.19L55.15 42.19L55.15 35.21L67.90 35.21L67.90 29.16L55.15 29.16L55.15 23.11L48.38 23.11L48.38 29.16L37.37 29.16L37.37 35.21L48.38 35.21ZM16.78 42.12L23.54 42.12L23.54 35.21L34.63 35.21L34.63 29.16L23.54 29.16L23.54 23.11L16.78 23.11L16.78 29.16L4.46 29.16L4.46 35.21L16.78 35.21ZM55.51 79.78L25.27 79.78L25.27 68.04L55.51 68.04ZM67.97 53.50L67.97 47.23L34.56 47.23C35.50 45.22 36.29 43.13 37.01 40.97L30.24 39.24C29.38 41.98 28.37 44.71 27.14 47.23L4.10 47.23L4.10 53.50L23.90 53.50C18.65 62.21 11.45 69.05 2.38 73.66C3.82 74.88 6.26 77.69 7.27 79.06C11.38 76.68 15.12 73.94 18.58 70.63L18.58 89.14L25.27 89.14L25.27 85.82L55.51 85.82L55.51 89.06L62.57 89.06L62.57 62.06L26.21 62.06C28.15 59.40 30.02 56.52 31.61 53.50Z"/></svg>
