<svg xmlns="http://www.w3.org/2000/svg" xmlns:xlink="http://www.w3.org/1999/xlink" width="72.00000000000001" height="106.56000000000002"><path fill="red" stroke="red" d="M20.38 38.81L27.00 38.81L27.00 34.20L35.14 34.20L35.14 28.37L27.00 28.37L27.00 23.11L20.38 23.11L20.38 28.37L4.68 28.37L4.68 34.20L20.38 34.20ZM50.83 59.83L44.28 59.83L44.28 67.54L27.65 67.54L27.65 59.98L21.17 59.98L21.17 67.46L21.17 67.54L4.18 67.54L4.18 73.44L20.23 73.44C18.86 77.47 15.19 81.36 6.19 84.17C7.56 85.39 9.58 87.84 10.37 89.35C21.89 85.46 25.92 79.49 27.14 73.44L44.28 73.44L44.28 89.06L50.83 89.06L50.83 73.44L67.97 73.44L67.97 67.54L50.83 67.54ZM66.89 50.47L66.89 44.86L57.17 44.86L58.90 42.34C56.16 40.97 51.19 39.24 47.23 38.09L51.55 38.09L51.55 34.20L67.61 34.20L67.61 28.37L51.55 28.37L51.55 23.11L44.86 23.11L44.86 28.37L37.37 28.37L37.37 34.20L44.86 34.20L44.86 38.09L46.08 38.09L43.56 41.54C46.44 42.41 49.90 43.63 52.70 44.86L36.07 44.86C37.15 42.70 38.09 40.32 38.74 37.73L32.11 36.86C31.39 39.82 30.24 42.55 28.94 44.86L5.18 44.86L5.18 50.47L24.26 50.47C19.30 55.08 12.24 57.96 3.46 59.76C4.68 61.06 6.55 63.79 7.20 65.23C18.14 62.28 26.71 57.89 32.54 50.47L40.03 50.47C45.29 57.67 54.07 62.57 64.58 64.80C65.52 63.00 67.32 60.48 68.76 59.11C60.12 57.82 52.34 54.86 47.38 50.47Z"/></svg>
