<svg xmlns="http://www.w3.org/2000/svg" xmlns:xlink="http://www.w3.org/1999/xlink" width="72.00000000000001" height="106.56000000000002"><path fill="red" stroke="red" d="M24.70 45.14L5.90 45.14L5.90 50.90L24.70 50.90L24.70 57.67L7.56 57.67L7.56 63.36L24.62 63.36C24.55 65.16 24.41 66.96 23.98 68.69C16.42 69.77 9.07 70.85 3.89 71.50L4.90 77.40C9.65 76.61 15.62 75.60 21.67 74.66C19.22 78.48 14.83 81.86 7.27 84.46C8.64 85.61 10.51 88.34 11.23 89.86C28.73 83.66 31.18 73.15 31.18 61.13L31.18 40.03L24.70 40.03ZM23.98 23.04L17.35 23.04L17.35 28.01L4.46 28.01L4.46 33.98L17.35 33.98L17.35 39.02L23.98 39.02L23.98 33.98L34.56 33.98L34.56 28.01L23.98 28.01ZM48.02 39.10L54.65 39.10L54.65 33.98L67.75 33.98L67.75 28.01L54.65 28.01L54.65 23.04L48.02 23.04L48.02 28.01L37.37 28.01L37.37 33.98L48.02 33.98ZM68.47 70.20L47.45 70.20L47.45 63.29L65.09 63.29L65.09 57.60L47.45 57.60L47.45 50.90L66.82 50.90L66.82 45.07L47.45 45.07L47.45 39.96L40.82 39.96L40.82 88.85L47.45 88.85L47.45 76.18L68.47 76.18Z"/></svg>
