<svg xmlns="http://www.w3.org/2000/svg" xmlns:xlink="http://www.w3.org/1999/xlink" width="72.00000000000001" height="106.56000000000002"><path fill="red" stroke="red" d="M10.80 41.54L16.63 41.54L16.63 57.02L10.80 57.02ZM27.50 57.02L21.67 57.02L21.67 41.54L27.50 41.54ZM54.86 79.20L54.86 35.93L67.68 35.93L67.68 29.52L34.92 29.52L34.92 35.93L47.81 35.93L47.81 79.20L35.64 79.20C34.70 75.24 33.05 70.20 31.46 66.17L26.28 67.75C27.00 69.55 27.79 71.71 28.44 73.80L22.18 74.88L22.18 62.57L32.83 62.57L32.83 36.07L22.25 36.07L22.25 23.40L16.20 23.40L16.20 36.07L5.33 36.07L5.33 65.66L10.80 65.66L10.80 62.57L16.20 62.57L16.20 75.96C11.16 76.82 6.62 77.47 3.02 78.05L4.03 84.46C11.16 83.09 20.74 81.29 29.95 79.56C30.31 80.93 30.60 82.22 30.74 83.38L33.48 82.44L33.48 85.61L69.05 85.61L69.05 79.20Z"/></svg>
