<svg xmlns="http://www.w3.org/2000/svg" xmlns:xlink="http://www.w3.org/1999/xlink" width="72.00000000000001" height="106.56000000000002"><path fill="red" stroke="red" d="M54.14 69.84L50.04 69.84L50.04 40.46L45.29 40.46L45.29 69.84L41.47 69.84L41.47 75.96L68.33 75.96L68.33 69.84L59.62 69.84L59.62 52.70L67.97 52.70L67.97 46.66L59.62 46.66L59.62 32.33C62.93 31.54 66.02 30.67 68.69 29.59L64.87 24.55C59.54 26.86 50.40 28.73 42.34 29.88C43.06 31.32 43.70 33.55 43.92 34.92C47.23 34.56 50.69 34.13 54.14 33.48ZM9.36 41.33L12.82 41.33L12.82 57.82L9.36 57.82ZM20.52 57.82L16.99 57.82L16.99 41.33L20.52 41.33ZM39.10 47.38L38.16 47.52L34.78 47.52C37.15 41.11 40.03 33.12 42.19 26.50L26.42 26.50L26.42 32.47L34.34 32.47C31.90 39.67 28.94 47.59 26.64 52.92L36.86 52.92C36.36 58.68 35.57 63.86 34.49 68.40C33.05 65.59 31.90 62.28 30.96 58.39L26.71 59.90C28.15 66.17 30.10 71.14 32.33 74.88C30.96 78.34 29.38 81.14 27.43 83.23C26.78 78.70 25.20 72.07 23.69 66.96L19.51 68.11C20.09 70.34 20.66 72.86 21.24 75.38L17.35 76.10L17.35 63.36L25.06 63.36L25.06 35.78L17.42 35.78L17.42 23.40L12.38 23.40L12.38 35.78L4.90 35.78L4.90 67.46L9.36 67.46L9.36 63.36L12.53 63.36L12.53 76.97C8.93 77.69 5.62 78.26 2.95 78.62L3.67 84.60C8.93 83.52 15.62 82.22 22.39 80.78C22.68 82.44 22.82 83.88 23.04 85.18L26.71 84.10L26.14 84.60C27.43 85.82 29.09 88.27 29.88 89.78C32.47 87.34 34.63 84.10 36.36 80.21C42.19 86.26 49.61 87.70 57.96 87.70L67.90 87.70C68.18 86.04 68.98 83.16 69.91 81.65C67.32 81.72 60.34 81.72 58.25 81.72C50.83 81.72 43.85 80.50 38.45 74.45C40.68 67.46 41.90 58.68 42.48 48.02Z"/></svg>
