<svg xmlns="http://www.w3.org/2000/svg" xmlns:xlink="http://www.w3.org/1999/xlink" width="72.00000000000001" height="106.56000000000002"><path fill="red" stroke="red" d="M45.58 48.74L32.47 48.74L32.47 54.43L65.88 54.43L65.88 48.74L52.20 48.74L52.20 38.23L67.39 38.23L67.39 32.62L52.20 32.62L52.20 23.18L45.58 23.18L45.58 32.62L30.74 32.62L30.74 38.23L45.58 38.23ZM21.82 46.94L21.82 58.39L28.08 58.39L28.08 23.18L21.82 23.18L21.82 32.54L12.89 32.54L12.89 24.19L7.20 24.19L7.20 37.87L21.82 37.87L21.82 41.69L4.03 41.69L4.03 46.94L8.93 46.94C8.28 50.69 6.62 53.57 2.52 55.44C3.82 56.38 5.40 58.46 5.98 59.76C11.95 57.02 14.18 52.78 15.12 46.94ZM59.90 66.67C57.02 68.90 52.20 71.78 48.24 73.87C45.79 71.64 43.70 69.12 42.05 66.31L68.11 66.31L68.11 61.06L40.39 61.06C39.67 59.11 38.45 56.81 37.37 55.08L30.82 56.88C31.54 58.18 32.26 59.62 32.83 61.06L3.89 61.06L3.89 66.31L26.35 66.31C19.87 69.84 10.94 72.65 2.66 74.09C3.96 75.17 5.54 77.47 6.34 78.84C10.44 78.05 14.69 76.82 18.79 75.31L18.79 78.70C18.79 82.08 16.56 83.74 15.19 84.53C16.06 85.68 17.35 88.13 17.78 89.64C19.30 88.78 21.82 88.13 40.61 83.95C40.54 82.66 40.75 80.21 40.97 78.62L25.27 81.79L25.27 72.58C29.09 70.78 32.54 68.62 35.35 66.31L35.64 66.31C41.33 78.19 51.19 85.68 65.59 89.14C66.38 87.34 68.11 84.89 69.41 83.59C62.86 82.37 57.24 80.21 52.56 77.18C56.52 75.24 61.06 72.72 64.73 70.20Z"/></svg>
