<svg xmlns="http://www.w3.org/2000/svg" xmlns:xlink="http://www.w3.org/1999/xlink" width="72.00000000000001" height="106.56000000000002"><path fill="red" stroke="red" d="M31.18 62.14C29.74 60.70 24.26 55.37 21.38 52.70C24.91 48.02 27.94 42.91 30.10 37.51L26.50 34.99L25.27 35.28L18.50 35.28L22.82 32.33C21.60 29.81 18.86 26.06 16.27 23.40L11.23 26.57C13.46 29.16 15.91 32.69 17.28 35.28L3.96 35.28L3.96 41.33L21.74 41.33C17.14 49.68 9.50 57.60 1.94 61.92C2.81 63.22 4.25 66.74 4.75 68.54C7.78 66.60 10.94 64.08 13.90 61.27L13.90 89.21L20.38 89.21L20.38 59.62C22.82 62.42 25.56 65.66 27.00 67.68ZM40.10 53.86L58.82 53.86L58.82 59.98L40.10 59.98ZM40.10 42.70L58.82 42.70L58.82 48.74L40.10 48.74ZM40.10 31.61L58.82 31.61L58.82 37.51L40.10 37.51ZM58.61 83.09C57.31 83.09 57.17 82.80 57.17 81.00L57.17 65.38L65.23 65.38L65.23 26.21L33.98 26.21L33.98 65.38L39.60 65.38C38.74 74.81 36.43 81.00 24.98 84.53C26.21 85.61 27.86 87.91 28.51 89.42C41.47 84.96 44.57 77.11 45.65 65.38L50.90 65.38L50.90 81.07C50.90 87.05 52.20 88.92 57.60 88.92L63.00 88.92C67.54 88.92 69.12 86.54 69.70 76.97C67.97 76.54 65.38 75.53 64.15 74.45C63.94 82.08 63.65 83.09 62.35 83.09Z"/></svg>
