<svg xmlns="http://www.w3.org/2000/svg" xmlns:xlink="http://www.w3.org/1999/xlink" width="72.00000000000001" height="106.56000000000002"><path fill="red" stroke="red" d="M55.37 42.70L61.85 42.70L61.85 36.07L68.76 36.07L68.76 30.17L61.85 30.17L61.85 23.18L55.37 23.18L55.37 30.17L50.26 30.17L50.26 36.07L55.37 36.07ZM28.30 35.14L15.62 35.14L20.81 32.18C19.73 29.59 17.57 25.78 15.48 22.75L10.51 25.42C12.38 28.37 14.47 32.47 15.48 35.14L3.17 35.14L3.17 40.54L28.30 40.54ZM26.35 44.71L5.90 44.71L5.90 49.97L26.35 49.97ZM5.90 59.40L26.35 59.40L26.35 54.22L5.90 54.22ZM21.24 69.34L21.24 79.63L11.38 79.63L11.38 69.34ZM26.86 63.94L5.90 63.94L5.90 88.27L11.38 88.27L11.38 85.03L26.86 85.03ZM59.76 69.19L59.76 80.35L43.56 80.35L43.56 69.19ZM68.98 54.58L68.98 48.46L48.31 48.46C48.89 46.37 49.39 44.14 49.90 41.83L43.63 40.82L43.27 42.62L43.27 36.14L48.31 36.14L48.31 30.17L43.27 30.17L43.27 23.11L36.86 23.11L36.86 30.17L29.16 30.17L29.16 36.14L36.86 36.14L36.86 42.70L43.27 42.70C42.84 44.64 42.34 46.66 41.76 48.46L28.30 48.46L28.30 54.58L39.74 54.58C36.79 61.78 32.62 67.61 27.07 71.78C28.51 72.86 30.74 75.31 31.68 76.61C33.77 74.81 35.78 72.86 37.51 70.70L37.51 89.21L43.56 89.21L43.56 86.18L59.76 86.18L59.76 88.99L66.02 88.99L66.02 63.43L42.34 63.43C43.85 60.70 45.22 57.74 46.37 54.58Z"/></svg>
