<svg xmlns="http://www.w3.org/2000/svg" xmlns:xlink="http://www.w3.org/1999/xlink" width="72.00000000000001" height="106.56000000000002"><path fill="red" stroke="red" d="M57.46 31.82C56.81 33.26 55.80 35.28 54.86 36.79L47.02 36.79L47.66 36.58C47.30 35.28 46.44 33.26 45.43 31.82ZM48.02 44.42L36.22 44.42L36.22 48.67L48.02 48.67L48.02 54.07L54.29 54.07L54.29 48.67L66.31 48.67L66.31 44.42L54.29 44.42L54.29 41.04L68.40 41.04L68.40 36.79L60.19 36.79C60.98 35.57 61.85 34.27 62.71 32.90L59.47 31.82L66.46 31.82L66.46 27.50L55.08 27.50C54.58 25.78 53.78 23.90 52.92 22.32L46.87 23.33C47.45 24.62 47.95 26.06 48.38 27.50L36.65 27.50L36.65 31.82L43.13 31.82L40.39 32.69C41.18 33.84 41.90 35.50 42.41 36.79L34.27 36.79L34.27 41.04L48.02 41.04ZM52.13 79.63L52.13 83.66L19.80 83.66L19.80 79.63ZM13.46 89.28L19.80 89.28L19.80 87.48L52.13 87.48L52.13 89.21L58.68 89.21L58.68 75.82L13.46 75.82ZM14.98 73.22L57.17 73.22L57.17 69.62L14.98 69.62ZM57.17 63.65L14.98 63.65L14.98 67.18L57.17 67.18ZM27.50 49.39L16.20 49.39L16.20 44.57L27.50 44.57ZM26.78 29.30L26.78 33.55L13.39 33.55L13.39 32.69L13.39 29.30ZM40.10 57.10C39.46 55.51 38.52 53.71 37.58 52.34L32.90 53.14L32.90 40.54L12.82 40.54C13.03 39.53 13.10 38.59 13.25 37.58L32.62 37.58L32.62 25.27L7.56 25.27L7.56 32.47C7.56 37.51 6.98 43.99 2.59 49.10C3.82 49.90 6.34 52.06 7.27 53.35C8.93 51.41 10.08 49.32 11.02 47.09L11.02 53.35L31.61 53.35C32.18 54.50 32.90 55.80 33.41 57.10L3.60 57.10L3.60 61.20L68.47 61.20L68.47 57.10Z"/></svg>
