<svg xmlns="http://www.w3.org/2000/svg" xmlns:xlink="http://www.w3.org/1999/xlink" width="72.00000000000001" height="106.56000000000002"><path fill="red" stroke="red" d="M46.80 31.39L57.67 31.39L57.67 37.73L46.80 37.73ZM30.60 31.39L41.11 31.39L41.11 37.73L30.60 37.73ZM14.62 31.39L24.84 31.39L24.84 37.73L14.62 37.73ZM8.35 26.28L8.35 42.84L64.15 42.84L64.15 26.28ZM19.15 59.69L53.21 59.69L53.21 64.15L19.15 64.15ZM19.15 68.40L53.21 68.40L53.21 73.08L19.15 73.08ZM19.15 50.90L53.21 50.90L53.21 55.44L19.15 55.44ZM12.46 46.44L12.46 77.47L60.12 77.47L60.12 46.44ZM41.18 81.22C49.10 83.74 57.10 86.98 61.70 89.28L68.83 85.82C63.43 83.45 54.43 80.14 46.44 77.69ZM24.77 77.62C19.73 80.35 11.02 83.02 3.46 84.46C4.97 85.61 7.34 88.13 8.50 89.42C15.77 87.48 24.98 84.02 30.89 80.35Z"/></svg>
