<svg xmlns="http://www.w3.org/2000/svg" xmlns:xlink="http://www.w3.org/1999/xlink" width="72.00000000000001" height="106.56000000000002"><path fill="red" stroke="red" d="M20.81 39.60L11.38 39.60L11.38 31.90L20.81 31.90ZM20.81 52.49L11.38 52.49L11.38 44.71L20.81 44.71ZM20.81 65.59L11.38 65.59L11.38 57.67L20.81 57.67ZM26.57 26.50L5.83 26.50L5.83 70.99L26.57 70.99ZM9.50 72.79C7.78 76.97 5.18 81.79 2.74 85.10C4.03 85.82 6.34 87.26 7.34 88.20C9.86 84.60 12.82 79.13 14.83 74.38ZM17.71 75.17C20.02 78.62 22.82 83.30 24.19 86.40L28.73 83.38C27.43 80.57 24.55 76.18 22.18 72.72ZM58.25 68.40L42.34 68.40L42.34 62.42L58.25 62.42ZM42.34 80.14L42.34 73.51L58.25 73.51L58.25 80.14ZM48.74 37.08L57.46 37.08C55.51 40.03 53.42 42.84 50.98 45.43L48.74 45.43ZM68.98 51.19L68.98 45.43L58.46 45.43C62.06 40.82 65.16 35.71 67.75 30.17L62.06 28.44C60.84 31.39 59.33 34.13 57.60 36.79L57.60 31.39L48.74 31.39L48.74 23.26L42.55 23.26L42.55 31.39L32.11 31.39L32.11 37.08L42.55 37.08L42.55 45.43L29.02 45.43L29.02 51.19L44.93 51.19C42.34 53.42 39.60 55.37 36.65 57.17L36.50 57.17L36.50 57.24C33.77 58.82 30.82 60.34 27.86 61.56C29.09 62.78 30.89 65.45 31.54 66.74C33.26 65.95 34.85 65.02 36.50 64.15L36.50 89.14L42.34 89.14L42.34 85.39L58.25 85.39L58.25 88.78L64.30 88.78L64.30 57.17L46.87 57.17C49.10 55.30 51.34 53.35 53.42 51.19Z"/></svg>
