<svg xmlns="http://www.w3.org/2000/svg" xmlns:xlink="http://www.w3.org/1999/xlink" width="72.00000000000001" height="106.56000000000002"><path fill="red" stroke="red" d="M35.42 67.82C34.78 64.51 32.98 59.54 30.96 55.73L27.22 56.95L27.22 51.05L33.70 51.05L33.70 44.93L22.75 44.93L22.75 37.58L32.11 37.58L32.11 31.61L22.75 31.61L22.75 23.11L16.56 23.11L16.56 31.61L6.48 31.61L6.48 37.58L16.56 37.58L16.56 44.93L3.82 44.93L3.82 51.05L13.18 51.05C12.89 67.25 11.74 78.26 3.53 84.74C4.82 85.82 6.62 87.91 7.42 89.42C16.70 81.79 18.14 69.05 18.43 51.05L21.82 51.05L21.82 82.44C21.82 83.23 21.60 83.38 20.81 83.45C20.09 83.52 17.64 83.52 15.05 83.45C15.77 84.96 16.49 87.26 16.63 88.78C20.59 88.78 23.18 88.70 24.98 87.77C26.71 86.90 27.22 85.25 27.22 82.44L27.22 57.89C28.94 61.63 30.53 66.31 31.03 69.48ZM6.84 55.73C5.98 61.49 4.61 67.39 2.45 71.50C3.60 72.07 5.76 73.22 6.70 73.87C8.78 69.62 10.66 63.00 11.59 56.66ZM38.66 55.66C37.80 61.85 36.14 68.11 33.48 72.36C34.63 72.94 36.79 74.23 37.73 74.88C40.39 70.42 42.34 63.50 43.49 56.45ZM68.26 51.05L68.26 44.93L54.86 44.93L54.86 37.58L65.74 37.58L65.74 31.61L54.86 31.61L54.86 23.11L48.74 23.11L48.74 31.61L37.80 31.61L37.80 37.58L48.74 37.58L48.74 44.93L35.71 44.93L35.71 51.05L44.93 51.05C44.64 67.32 43.49 78.19 34.85 84.60C36.22 85.61 37.94 87.77 38.74 89.14C48.38 81.65 49.90 69.12 50.18 51.05L53.93 51.05L53.93 82.87C53.93 83.66 53.71 83.88 52.85 83.88C52.06 83.88 49.54 83.88 46.87 83.81C47.59 85.39 48.24 87.77 48.38 89.28C52.49 89.28 55.30 89.21 57.10 88.27C58.90 87.41 59.33 85.75 59.33 82.87L59.33 51.05ZM59.40 56.74C61.85 62.42 63.94 69.84 64.58 74.74L69.55 73.37C68.90 68.54 66.67 61.20 64.08 55.66Z"/></svg>
