<svg xmlns="http://www.w3.org/2000/svg" xmlns:xlink="http://www.w3.org/1999/xlink" width="72.00000000000001" height="106.56000000000002"><path fill="red" stroke="red" d="M30.02 62.21L37.94 62.21C36.86 66.24 35.50 70.78 34.20 74.02L40.54 74.02L40.54 73.94L57.74 73.94C57.10 79.63 56.30 82.37 55.22 83.38C54.43 83.88 53.42 83.95 51.91 83.95C49.90 83.95 44.57 83.88 39.53 83.45C40.82 85.10 41.83 87.48 41.98 89.21C46.73 89.50 51.48 89.50 53.86 89.35C56.74 89.28 58.61 88.78 60.19 87.26C62.28 85.32 63.22 80.86 64.15 70.99L64.37 68.47L42.26 68.47C42.91 66.46 43.49 64.30 44.06 62.21L67.90 62.21L67.90 56.66L30.02 56.66ZM40.32 46.15C42.70 43.56 44.86 40.68 46.66 37.58L51.26 37.58C52.63 40.46 54.58 43.49 56.66 46.15ZM21.96 42.91L11.30 42.91L11.30 31.82L21.96 31.82ZM68.26 37.58L68.26 31.75L49.75 31.75C50.69 29.81 51.48 27.65 52.13 25.56L46.30 24.05C45.43 26.71 44.42 29.38 43.13 31.75L30.60 31.75L30.60 37.58L39.38 37.58C36.14 41.83 32.18 45.36 27.65 48.02L27.65 26.06L5.83 26.06L5.83 48.60L15.62 48.60L15.62 76.32L11.30 77.47L11.30 54.72L6.05 54.72L6.05 78.77L2.88 79.49L4.39 85.75C11.88 83.66 21.82 80.93 31.03 78.26L30.17 72.50L21.46 74.81L21.46 63.43L28.22 63.43L28.22 57.60L21.46 57.60L21.46 48.60L27.65 48.60C28.73 50.18 30.10 52.99 30.53 54.22C33.48 52.42 36.14 50.26 38.59 47.88L38.59 51.55L57.46 51.55L57.46 47.16C59.98 50.18 62.78 52.85 65.52 54.72C66.60 53.21 68.54 50.83 69.91 49.68C65.52 47.16 60.77 42.48 57.67 37.58Z"/></svg>
