<svg xmlns="http://www.w3.org/2000/svg" xmlns:xlink="http://www.w3.org/1999/xlink" width="72.00000000000001" height="106.56000000000002"><path fill="red" stroke="red" d="M11.23 31.82L21.74 31.82L21.74 42.77L11.23 42.77ZM28.73 71.71L20.66 74.23L20.66 63.36L27.86 63.36L27.86 57.60L20.66 57.60L20.66 48.53L27.58 48.53L27.58 26.06L5.69 26.06L5.69 48.53L15.19 48.53L15.19 75.96L10.87 77.18L10.87 54.72L5.76 54.72L5.76 78.62C4.54 78.98 3.53 79.27 2.45 79.56L3.96 85.82C11.16 83.38 20.74 80.28 29.81 77.33ZM54.94 70.63C53.86 74.02 51.70 78.77 49.97 81.94L40.10 81.94L44.64 80.35C44.21 77.76 42.62 73.80 40.82 70.99L35.28 72.65C36.94 75.53 38.30 79.27 38.74 81.94L27.36 81.94L27.36 87.34L68.54 87.34L68.54 81.94L55.80 81.94C57.46 79.27 59.18 76.03 60.84 73.08ZM56.16 65.16L39.31 65.16L39.31 57.89L56.16 57.89ZM62.28 52.70L33.48 52.70L33.48 70.34L62.28 70.34ZM64.94 33.05C63.50 34.49 61.13 36.58 59.11 38.09C58.39 37.01 57.82 35.78 57.31 34.49C59.40 32.90 62.14 30.67 64.30 28.51L60.34 24.77C59.11 26.21 57.17 28.15 55.37 29.81C54.65 27.79 54.07 25.78 53.57 23.69L48.38 24.77C49.97 31.61 52.20 37.87 55.30 43.20L40.82 43.20C43.70 38.52 46.08 32.98 47.38 26.86L43.63 25.42L42.62 25.63L30.38 25.63L30.38 30.96L40.32 30.96C39.53 33.12 38.66 35.35 37.58 37.30C35.86 36.00 33.48 34.42 31.54 33.41L28.08 37.80C30.10 39.10 32.62 40.90 34.42 42.48C31.97 45.79 29.02 48.53 26.06 50.40C27.36 51.41 28.94 53.50 29.81 54.86C33.26 52.49 36.50 49.39 39.31 45.50L39.31 48.53L56.09 48.53L56.09 44.50C58.75 48.67 61.99 52.20 65.88 54.72C66.82 53.14 68.62 50.90 70.06 49.82C66.82 47.95 64.01 45.22 61.56 41.98C63.79 40.61 66.53 38.66 68.69 36.86Z"/></svg>
