<svg xmlns="http://www.w3.org/2000/svg" xmlns:xlink="http://www.w3.org/1999/xlink" width="72.00000000000001" height="106.56000000000002"><path fill="red" stroke="red" d="M32.83 32.26L40.75 32.26C40.10 37.08 37.22 38.81 27.65 39.82C28.51 40.61 29.45 42.19 29.81 43.20C41.33 41.83 44.71 38.88 45.58 32.26L49.82 32.26L49.82 37.44C49.82 40.39 50.40 42.26 54.29 42.26L62.21 42.26C63.86 42.26 65.95 42.19 66.74 41.98C66.53 40.68 66.53 40.10 66.46 38.81C65.52 39.10 63.07 39.17 61.99 39.17L56.52 39.17C55.08 39.17 55.01 38.66 55.01 37.44L55.01 32.26L61.92 32.26L61.92 36.50L67.54 36.50L67.54 28.08L51.26 28.08C50.54 26.35 49.54 24.41 48.67 22.75L42.12 24.05C42.77 25.27 43.42 26.64 43.92 28.08L27.43 28.08L27.43 36.79L32.83 36.79ZM43.99 41.90C40.46 43.34 33.98 44.64 28.80 45.29L28.80 61.56L65.16 61.56L65.16 43.99L47.74 43.99L47.74 48.10L59.33 48.10L59.33 51.12L48.10 51.12L48.10 54.43L59.33 54.43L59.33 57.46L34.85 57.46L34.85 54.29L45.29 54.29L45.29 50.98L34.85 50.98L34.85 47.95C39.10 47.23 43.56 46.22 46.73 45.00ZM10.51 31.54L19.15 31.54L19.15 42.55L10.51 42.55ZM19.15 76.25L19.15 63.79L25.27 63.79L25.27 58.18L19.15 58.18L19.15 48.02L24.48 48.02L24.48 26.06L5.33 26.06L5.33 48.02L13.82 48.02L13.82 77.54L10.08 78.34L10.08 54.65L5.26 54.65L5.26 79.34L2.52 79.92L3.60 85.68C10.01 84.10 18.22 82.08 26.14 79.99L25.56 74.81ZM34.63 81.72L34.63 77.18L41.69 77.18L41.69 73.51L34.63 73.51L34.63 70.27L41.62 70.27L41.62 66.60L34.63 66.60L34.63 63.22L29.38 63.22L29.38 80.71C29.38 83.23 28.30 84.10 27.36 84.46C28.01 85.46 28.87 87.62 29.16 88.92C30.10 88.13 31.90 87.26 40.54 84.96C40.46 83.88 40.39 81.86 40.54 80.42ZM48.60 81.72L48.60 77.11L55.66 77.11L55.66 73.44L48.60 73.44L48.60 70.20L55.58 70.20L55.58 66.60L48.60 66.60L48.60 63.36L43.34 63.36L43.34 80.86C43.34 83.38 42.19 84.17 41.26 84.67C41.90 85.68 42.84 87.77 43.06 88.99C44.21 88.20 46.01 87.34 56.52 84.46C56.38 83.45 56.38 81.43 56.52 79.99ZM57.02 63.14C57.10 79.85 58.75 88.49 64.37 88.49C67.54 88.49 69.05 86.83 69.62 80.42C68.47 79.99 67.18 79.20 66.17 78.34C66.02 82.08 65.74 83.23 64.80 83.23C63.29 83.23 62.06 77.04 62.35 63.14Z"/></svg>
