<svg xmlns="http://www.w3.org/2000/svg" xmlns:xlink="http://www.w3.org/1999/xlink" width="72.00000000000001" height="106.56000000000002"><path fill="red" stroke="red" d="M32.83 44.35L32.83 39.46L41.26 39.46L41.26 44.35ZM32.83 30.17L41.26 30.17L41.26 34.99L32.83 34.99ZM56.45 34.99L47.30 34.99L47.30 30.17L56.45 30.17ZM56.45 44.35L47.30 44.35L47.30 39.46L56.45 39.46ZM23.98 78.55L29.95 78.55L29.95 58.25L41.26 58.25L41.26 65.66C37.73 65.88 34.49 66.10 31.82 66.24L32.33 71.57C38.30 71.14 45.79 70.49 53.35 69.77C53.71 70.85 53.93 71.86 54.07 72.65L58.46 71.50C57.89 68.47 56.02 63.58 54.22 59.90L50.04 60.91C50.69 62.14 51.26 63.58 51.84 65.02L46.94 65.30L46.94 58.25L59.69 58.25L59.69 73.80C59.69 74.52 59.40 74.81 58.54 74.88C57.74 74.88 54.86 74.88 51.91 74.81C52.49 76.10 53.35 77.98 53.64 79.49C58.18 79.49 61.27 79.49 63.29 78.70C65.30 77.90 65.88 76.68 65.88 73.73L65.88 53.14L47.30 53.14L47.30 49.10L62.71 49.10L62.71 25.34L26.86 25.34L26.86 49.10L41.26 49.10L41.26 53.14L29.95 53.14L29.95 50.90L23.98 50.90L23.98 53.14L22.25 53.14L22.25 58.25L23.98 58.25ZM17.06 34.99C16.13 31.90 14.47 27.07 13.10 23.33L7.27 25.13C8.35 28.94 10.15 33.98 11.02 37.22ZM18.65 55.87L17.71 56.16L13.68 56.16C15.41 51.19 17.50 45.29 19.01 40.18L3.53 40.18L3.53 46.22L10.80 46.22C8.93 51.84 6.84 57.67 5.04 61.92L14.33 61.92C13.18 66.82 11.52 72.00 9.58 75.89C7.34 77.33 4.75 80.14 2.30 83.38L6.84 89.57C8.78 85.18 11.30 80.50 12.89 80.50C14.47 80.50 17.06 83.02 19.94 84.67C25.20 87.70 31.39 88.49 40.82 88.49C49.25 88.49 62.42 88.06 67.97 87.70C68.11 85.90 69.19 82.58 69.98 80.78C61.99 81.79 49.82 82.44 41.11 82.44C32.62 82.44 26.06 82.01 21.10 78.98C18.72 77.54 17.21 76.32 15.84 75.60C18.43 70.20 20.38 63.43 21.74 57.02Z"/></svg>
