<svg xmlns="http://www.w3.org/2000/svg" xmlns:xlink="http://www.w3.org/1999/xlink" width="72.00000000000001" height="106.56000000000002"><path fill="red" stroke="red" d="M30.89 70.06C31.39 68.47 31.97 66.82 32.47 65.16L43.49 65.16L43.49 70.06ZM32.40 48.17L55.73 48.17L55.73 52.99L32.40 52.99ZM49.82 80.64L49.82 74.74L68.33 74.74L68.33 70.06L49.82 70.06L49.82 65.16L66.67 65.16L66.67 60.48L49.82 60.48L49.82 57.10L62.21 57.10L62.21 44.14L26.28 44.14L26.28 57.10L43.49 57.10L43.49 60.48L22.32 60.48L22.32 65.16L26.35 65.16C25.34 68.54 24.19 72.14 23.04 74.74L43.49 74.74L43.49 80.64ZM54.65 31.82L54.65 36.43L40.75 36.43C41.26 35.06 41.83 33.41 42.34 31.82ZM67.97 36.43L60.91 36.43L60.91 27.22L43.78 27.22C44.14 25.99 44.50 24.91 44.78 23.76L38.38 22.97C38.02 24.34 37.58 25.70 37.15 27.22L25.56 27.22L25.56 31.82L35.71 31.82C35.28 33.41 34.70 34.99 34.20 36.43L21.17 36.43L21.17 41.11L67.97 41.11ZM17.57 34.99C16.56 31.90 14.69 27.07 13.39 23.33L7.20 25.13C8.42 28.94 10.22 33.98 11.02 37.15ZM18.65 55.87L17.64 56.16L13.90 56.16C15.77 51.12 17.78 45.29 19.51 40.10L3.53 40.10L3.46 46.22L10.73 46.22C8.93 51.84 6.77 57.67 4.97 61.92L14.26 61.92C13.18 66.82 11.45 72.00 9.58 75.89C7.27 77.33 4.75 80.14 2.30 83.38L6.84 89.57C8.78 85.18 11.23 80.50 12.89 80.50C14.40 80.50 17.06 83.02 19.94 84.67C25.13 87.70 31.32 88.49 40.82 88.49C49.18 88.49 62.35 88.06 67.97 87.70C68.11 85.90 69.19 82.58 69.91 80.78C61.99 81.79 49.82 82.44 41.11 82.44C32.62 82.44 26.06 82.01 21.02 78.98C18.72 77.54 17.21 76.32 15.84 75.60C18.36 70.20 20.38 63.43 21.67 57.02Z"/></svg>
