<svg xmlns="http://www.w3.org/2000/svg" xmlns:xlink="http://www.w3.org/1999/xlink" width="72.00000000000001" height="106.56000000000002"><path fill="red" stroke="red" d="M51.48 38.02L19.94 38.02L19.94 30.96L51.48 30.96ZM58.46 25.78L13.32 25.78L13.32 43.13L58.46 43.13ZM32.26 53.86L32.26 64.01L15.77 64.01L15.77 53.86ZM55.80 64.01L38.81 64.01L38.81 53.86L55.80 53.86ZM25.42 81.58C17.21 81.58 15.77 80.71 15.77 76.75L15.77 69.84L62.50 69.84L62.50 47.95L9.07 47.95L9.07 76.82C9.07 85.82 12.82 87.91 25.70 87.91L53.06 87.91C64.01 87.91 66.53 85.32 67.82 75.67C65.88 75.38 62.93 74.30 61.20 73.30C60.41 80.28 59.33 81.58 52.78 81.58Z"/></svg>
