<svg xmlns="http://www.w3.org/2000/svg" xmlns:xlink="http://www.w3.org/1999/xlink" width="72.00000000000001" height="106.56000000000002"><path fill="red" stroke="red" d="M19.37 59.62C19.87 56.30 20.16 52.85 20.45 49.25L29.45 49.25C29.45 53.14 29.38 56.59 29.38 59.62ZM29.59 32.76L29.52 43.34L20.74 43.34C20.88 39.96 21.02 36.43 21.02 32.76ZM3.96 26.64L3.96 32.76L14.40 32.76C14.40 36.36 14.33 39.96 14.18 43.34L4.82 43.34L4.82 49.25L13.90 49.25C13.68 52.92 13.32 56.38 12.82 59.62L4.18 59.62L4.18 65.52L11.81 65.52C10.08 73.15 7.34 79.42 2.81 84.24C4.39 85.32 7.34 87.98 8.28 89.21C13.54 82.94 16.63 74.95 18.50 65.52L29.23 65.52C28.94 74.52 28.51 78.55 27.72 79.85C27.22 81.00 26.57 81.36 25.49 81.29C24.12 81.29 21.46 81.29 18.50 81.07C19.58 83.02 20.38 86.11 20.45 88.13C23.62 88.27 26.86 88.34 28.94 87.98C31.25 87.55 32.54 86.76 34.06 84.38C36.14 80.93 36.14 68.40 36.29 30.24C36.29 29.38 36.36 26.64 36.36 26.64ZM63.94 26.42L62.93 26.71L41.62 26.71L41.62 89.14L47.95 89.14L47.95 32.98L59.98 32.98C57.82 38.59 54.72 45.94 51.98 51.55C59.11 57.53 61.34 62.64 61.34 66.89C61.34 69.34 60.77 71.21 59.11 72.07C58.18 72.58 56.95 72.79 55.66 72.86C54.14 72.94 51.91 72.86 49.54 72.65C50.62 74.45 51.26 77.26 51.41 78.98C53.86 79.13 56.59 79.13 58.68 78.91C60.55 78.62 62.35 78.05 63.72 77.26C66.46 75.53 67.61 72.07 67.61 67.46C67.61 62.71 65.88 57.17 58.75 50.69C62.14 44.21 65.81 36.14 68.69 29.45Z"/></svg>
