<svg xmlns="http://www.w3.org/2000/svg" xmlns:xlink="http://www.w3.org/1999/xlink" width="72.00000000000001" height="106.56000000000002"><path fill="red" stroke="red" d="M12.17 72.50L24.48 72.50L24.48 67.68L12.17 67.68ZM20.02 38.95L16.92 38.95L16.92 31.46L20.02 31.46ZM26.35 58.18C26.21 58.25 25.99 58.25 25.56 58.25L23.98 58.25C23.33 58.25 23.26 58.10 23.26 57.24L23.26 44.57L26.35 44.57ZM10.22 78.84L10.22 62.06C10.94 62.64 11.74 63.43 12.17 63.94C16.13 60.05 16.99 54.50 16.99 50.26L16.99 44.57L19.87 44.57L19.87 57.24C19.87 60.98 20.74 61.85 23.62 61.85L26.21 61.85L26.35 61.85L26.35 78.84ZM13.61 44.57L13.61 50.18C13.61 53.50 13.10 57.53 10.22 60.84L10.22 44.57ZM3.82 31.46L12.31 31.46L12.31 38.95L5.33 38.95L5.33 88.92L10.22 88.92L10.22 84.17L26.35 84.17L26.35 87.91L31.46 87.91L31.46 38.95L24.70 38.95L24.70 31.46L32.69 31.46L32.69 25.85L3.82 25.85ZM53.50 55.73L53.50 67.03L47.38 67.03L47.38 55.73ZM57.82 72.29L57.82 50.47L43.20 50.47L43.20 76.32L47.38 76.32L47.38 72.29ZM58.75 38.59L42.26 38.59L42.26 44.06L58.75 44.06ZM67.18 26.21L34.06 26.21L34.06 89.14L39.60 89.14L39.60 32.26L61.49 32.26L61.49 81.72C61.49 82.73 61.20 83.09 60.19 83.09C59.11 83.09 55.80 83.16 52.42 83.02C53.28 84.60 54.07 87.55 54.29 89.21C59.04 89.21 62.42 88.99 64.51 87.98C66.53 86.98 67.18 85.10 67.18 81.72Z"/></svg>
