<svg xmlns="http://www.w3.org/2000/svg" xmlns:xlink="http://www.w3.org/1999/xlink" width="72.00000000000001" height="106.56000000000002"><path fill="red" stroke="red" d="M52.27 32.26L19.37 32.26L19.37 29.02L52.27 29.02ZM52.27 39.10L19.37 39.10L19.37 35.78L52.27 35.78ZM59.04 25.34L12.89 25.34L12.89 42.77L59.04 42.77ZM68.26 45.50L3.96 45.50L3.96 50.40L68.26 50.40ZM17.93 67.32L17.93 63.94L32.69 63.94L32.69 67.32ZM17.93 56.95L32.69 56.95L32.69 60.26L17.93 60.26ZM54.43 60.26L39.17 60.26L39.17 56.95L54.43 56.95ZM54.43 67.32L39.17 67.32L39.17 63.94L54.43 63.94ZM39.17 82.37L39.17 78.91L62.42 78.91L62.42 74.38L39.17 74.38L39.17 71.14L60.98 71.14L60.98 53.14L11.59 53.14L11.59 71.14L32.69 71.14L32.69 74.38L9.79 74.38L9.79 78.91L32.69 78.91L32.69 82.37L3.67 82.37L3.67 87.48L68.54 87.48L68.54 82.37Z"/></svg>
