<svg xmlns="http://www.w3.org/2000/svg" xmlns:xlink="http://www.w3.org/1999/xlink" width="72.00000000000001" height="106.56000000000002"><path fill="red" stroke="red" d="M69.34 53.50C68.04 48.10 64.87 40.10 61.49 34.06L55.80 35.93C58.90 42.12 62.06 50.26 63.22 55.66ZM52.13 23.11L45.79 23.11L45.79 66.53L52.13 66.53ZM31.10 76.03L21.60 77.83L21.60 59.33L30.67 59.33L30.67 56.59C32.33 57.24 34.63 58.25 35.78 58.97C38.09 53.35 40.54 44.57 42.05 36.58L35.93 35.28C34.70 42.12 32.90 49.75 30.67 55.08L30.67 53.64L21.60 53.64L21.60 46.80L28.44 46.80L28.44 41.18L11.45 41.18C13.97 38.66 16.42 35.78 18.58 32.76C22.75 35.78 26.93 39.38 29.66 42.12L32.83 36.65C30.24 34.13 25.99 30.74 21.74 27.94C22.32 26.93 22.90 25.92 23.33 24.98L18.00 22.68C14.47 29.45 8.21 35.86 2.38 39.96C3.24 41.62 4.68 45.29 5.18 46.73C6.48 45.79 7.63 44.78 8.93 43.63L8.93 46.80L15.77 46.80L15.77 53.64L4.61 53.64L4.61 59.33L15.77 59.33L15.77 78.84C11.09 79.70 6.91 80.42 3.60 80.93L5.11 86.90C12.38 85.39 22.25 83.38 31.54 81.36ZM5.76 63.72C6.98 67.90 8.14 73.15 8.42 76.68L13.25 75.31C12.82 71.93 11.66 66.67 10.30 62.57ZM27.29 75.74C28.58 72.58 30.10 67.61 31.46 63.22L26.35 61.85C25.70 65.59 24.26 71.06 23.18 74.52ZM59.54 58.03C54.50 72.00 43.78 79.63 26.78 83.23C28.30 84.82 29.88 87.34 30.53 89.28C48.74 84.53 60.12 75.74 65.74 59.90Z"/></svg>
