<svg xmlns="http://www.w3.org/2000/svg" xmlns:xlink="http://www.w3.org/1999/xlink" width="72.00000000000001" height="106.56000000000002"><path fill="red" stroke="red" d="M26.86 30.82L26.86 35.35L12.74 35.35L12.74 30.82ZM12.74 44.42L12.74 39.67L26.86 39.67L26.86 44.42ZM33.12 49.25L33.12 25.99L6.34 25.99L6.34 89.21L12.74 89.21L12.74 49.25ZM24.91 50.83C22.25 56.95 17.64 63.00 12.89 66.96C13.97 68.04 15.84 70.42 16.56 71.42C17.93 70.20 19.30 68.76 20.66 67.18L20.66 86.83L25.99 86.83L25.99 60.05C27.58 57.60 29.02 55.01 30.17 52.49ZM45.07 44.42L45.07 39.67L59.62 39.67L59.62 44.42ZM59.62 30.82L59.62 35.35L45.07 35.35L45.07 30.82ZM66.02 25.99L38.74 25.99L38.74 49.25L59.62 49.25L59.62 81.22C59.62 82.08 59.33 82.37 58.46 82.44C57.89 82.44 56.30 82.44 54.50 82.44C54.94 81.07 55.37 79.42 55.73 77.40C54.72 76.90 52.92 75.74 51.91 74.59C51.55 78.84 50.90 81.00 49.90 81.00C47.95 80.93 46.30 79.42 44.86 76.75C48.02 73.73 50.62 70.20 52.56 66.38L47.81 64.94C46.58 67.32 44.93 69.62 42.84 71.78C42.19 69.62 41.62 67.18 41.18 64.51L53.86 63.07L53.14 58.46L40.54 59.83C40.25 57.24 40.03 54.50 39.89 51.62L34.63 51.62C34.78 54.65 35.06 57.60 35.35 60.41L27.22 61.34L27.94 66.02L36.00 65.09C36.65 68.98 37.51 72.50 38.59 75.53C35.42 77.98 31.75 80.14 27.86 81.79C29.09 82.73 30.82 84.67 31.61 85.82C34.92 84.24 37.94 82.44 40.75 80.28C43.06 84.31 46.08 86.69 50.04 86.83C51.19 86.83 52.20 86.33 53.14 85.10C53.57 86.47 53.86 87.91 54.00 88.92C58.39 88.92 61.49 88.78 63.50 87.70C65.59 86.54 66.02 84.67 66.02 81.22ZM50.98 55.80C49.75 54.29 47.23 52.27 45.00 50.90L41.76 53.57C43.92 55.08 46.37 57.17 47.52 58.75Z"/></svg>
