<svg xmlns="http://www.w3.org/2000/svg" xmlns:xlink="http://www.w3.org/1999/xlink" width="72.00000000000001" height="106.56000000000002"><path fill="red" stroke="red" d="M24.48 25.78L23.62 26.06L6.26 26.06L6.26 88.99L12.53 88.99L12.53 32.04L21.10 32.04C19.66 36.72 17.71 42.84 15.77 47.59C20.88 52.92 22.10 57.67 22.18 61.42C22.18 63.58 21.74 65.38 20.66 66.10C20.09 66.53 19.30 66.74 18.36 66.74C17.35 66.82 15.98 66.82 14.40 66.67C15.34 68.33 15.91 70.85 15.98 72.50C17.64 72.50 19.51 72.50 20.95 72.36C22.54 72.14 23.83 71.64 24.98 70.92C27.14 69.34 28.08 66.31 28.08 62.06C28.01 57.67 26.86 52.56 21.67 46.80C24.05 41.26 26.71 34.27 28.87 28.30ZM38.52 68.40L56.74 68.40L56.74 80.71L38.52 80.71ZM56.74 33.12L56.74 44.42L38.52 44.42L38.52 33.12ZM56.74 62.35L38.52 62.35L38.52 50.47L56.74 50.47ZM63.36 80.71L63.36 26.93L32.18 26.93L32.18 80.71L24.48 80.71L24.48 86.90L69.12 86.90L69.12 80.71Z"/></svg>
