<svg xmlns="http://www.w3.org/2000/svg" xmlns:xlink="http://www.w3.org/1999/xlink" width="72.00000000000001" height="106.56000000000002"><path fill="red" stroke="red" d="M43.56 41.04L25.70 41.04L25.70 46.58L36.36 46.58C35.35 51.26 32.90 54.58 25.70 56.52C27.00 57.53 28.58 59.83 29.23 61.34C38.02 58.25 41.11 53.57 42.34 46.58L50.47 46.58L50.47 50.33C50.47 55.80 51.70 57.82 57.24 57.82L63.65 57.82C65.23 57.82 66.89 57.74 67.90 57.38C67.68 56.02 67.54 53.71 67.39 52.20C66.38 52.49 64.58 52.56 63.43 52.56L57.67 52.56C56.52 52.56 56.38 51.98 56.38 50.40L56.38 46.58L68.69 46.58L68.69 41.04L50.11 41.04L50.11 34.92L64.44 34.92L64.44 29.52L50.11 29.52L50.11 23.18L43.56 23.18L43.56 29.52L30.17 29.52L30.17 34.92L43.56 34.92ZM22.39 25.78L21.46 25.99L5.62 25.99L5.62 88.99L11.45 88.99L11.45 32.04L19.15 32.04C17.86 36.72 15.98 42.77 14.18 47.52C18.94 52.99 20.02 57.74 20.02 61.42C20.02 63.58 19.66 65.38 18.65 66.10C18.00 66.53 17.35 66.67 16.56 66.74C15.55 66.82 14.26 66.74 12.82 66.67C13.75 68.26 14.33 70.85 14.33 72.43C16.06 72.50 17.78 72.50 19.08 72.36C20.66 72.07 21.89 71.64 22.97 70.92C25.06 69.34 25.92 66.31 25.92 62.06C25.92 57.74 24.84 52.63 20.09 46.80C22.32 41.26 24.77 34.13 26.78 28.30ZM54.50 67.10C52.63 70.06 49.90 72.79 46.37 75.24C43.42 73.30 40.90 71.21 38.74 68.90C39.31 68.33 39.82 67.75 40.32 67.10ZM58.97 61.49L57.82 61.70L43.92 61.70C44.93 59.98 45.72 58.18 46.44 56.38L40.39 54.94C39.10 58.25 37.30 61.34 35.06 64.01C34.49 63.07 33.98 62.06 33.48 61.06L28.73 63.65C29.45 65.16 30.24 66.60 31.18 68.11C29.23 69.70 27.22 71.21 24.98 72.43C26.35 73.51 28.58 75.82 29.52 77.04C31.32 75.89 33.19 74.45 34.85 72.94C36.58 74.88 38.52 76.68 40.82 78.41C35.64 80.86 29.30 82.87 21.82 84.10C23.18 85.54 24.77 87.84 25.56 89.57C33.98 87.84 40.97 85.39 46.66 82.22C52.06 85.25 58.61 87.55 66.31 88.99C67.10 87.19 68.76 84.67 69.98 83.23C63.22 82.30 57.38 80.64 52.42 78.48C57.74 74.30 61.42 69.19 63.43 63.36Z"/></svg>
