<svg xmlns="http://www.w3.org/2000/svg" xmlns:xlink="http://www.w3.org/1999/xlink" width="72.00000000000001" height="106.56000000000002"><path fill="red" stroke="red" d="M22.39 25.78L21.53 25.99L5.26 25.99L5.26 88.99L11.16 88.99L11.16 32.04L19.08 32.04C17.71 36.79 15.77 42.84 13.90 47.59C18.86 52.92 20.02 57.74 20.02 61.42C20.02 63.58 19.66 65.45 18.65 66.10C18.00 66.53 17.28 66.67 16.42 66.74C15.41 66.82 14.04 66.82 12.60 66.60C13.46 68.26 14.04 70.85 14.11 72.43C15.77 72.50 17.64 72.50 19.01 72.36C20.52 72.07 21.82 71.64 22.97 70.92C25.06 69.34 25.99 66.31 25.99 62.14C25.92 57.82 24.84 52.63 19.80 46.87C22.10 41.26 24.77 34.27 26.78 28.30ZM29.95 64.58L29.95 77.98L56.16 77.98L56.16 64.58L50.90 64.58L50.90 73.01L45.72 73.01L45.72 61.85L57.67 61.85L57.67 56.95L45.72 56.95L45.72 50.33L55.87 50.33L55.87 45.50L39.38 45.50C40.10 43.99 40.75 42.55 41.40 41.11L36.14 40.32C34.63 44.35 31.82 49.46 27.94 53.42C29.16 54.07 31.03 55.44 32.04 56.59C33.84 54.65 35.42 52.49 36.72 50.33L40.39 50.33L40.39 56.95L28.30 56.95L28.30 61.85L40.39 61.85L40.39 73.01L34.99 73.01L34.99 64.58ZM67.03 32.98L36.58 32.98C37.80 30.24 38.88 27.36 39.67 24.41L33.62 23.11C31.10 31.97 26.57 40.46 21.02 45.94C22.46 46.80 25.06 48.53 26.21 49.61C28.94 46.66 31.54 42.91 33.84 38.66L60.91 38.66C60.48 69.19 59.98 80.06 58.39 82.37C57.74 83.38 57.10 83.66 55.94 83.66C54.43 83.66 51.34 83.66 47.88 83.30C48.74 84.96 49.46 87.41 49.54 89.06C53.06 89.21 56.59 89.21 58.75 88.92C60.98 88.56 62.50 87.91 63.94 85.68C66.17 82.37 66.53 71.21 67.03 36.22Z"/></svg>
