<svg xmlns="http://www.w3.org/2000/svg" xmlns:xlink="http://www.w3.org/1999/xlink" width="72.00000000000001" height="106.56000000000002"><path fill="red" stroke="red" d="M56.02 37.08C54.00 40.90 51.48 45.22 49.03 48.17C50.47 48.96 52.70 50.40 53.93 51.34C57.82 46.73 62.35 39.46 65.02 33.62L60.55 30.82L59.47 31.10L44.35 31.10C45.29 29.09 46.22 26.93 47.09 24.84L40.82 22.97C37.15 32.83 30.89 42.19 23.62 47.95C25.13 48.89 27.79 50.98 29.02 52.06C33.26 48.10 37.44 42.98 40.97 37.08ZM22.46 25.78L21.53 25.99L5.62 25.99L5.62 88.99L11.52 88.99L11.52 32.04L19.30 32.04C17.93 36.79 16.27 42.84 14.47 47.59C19.01 52.99 20.09 57.74 20.09 61.34C20.09 63.58 19.73 65.38 18.79 66.10C18.14 66.53 17.50 66.67 16.70 66.74C15.70 66.82 14.47 66.74 13.10 66.67C13.97 68.26 14.54 70.85 14.62 72.43C16.20 72.50 17.93 72.50 19.30 72.36C20.74 72.07 22.03 71.64 23.11 70.92C25.13 69.41 25.99 66.31 25.99 62.06C25.99 57.82 24.91 52.63 20.30 46.94C22.46 41.26 24.91 34.13 26.86 28.22ZM47.74 53.21L47.74 58.75L59.18 58.75L59.18 66.31L48.46 66.31L48.46 71.71L59.18 71.71L59.18 79.92L34.78 79.92L34.78 71.71L45.94 71.71L45.94 66.24L34.78 66.24L34.78 58.03C39.10 56.59 43.56 54.72 47.16 52.92L42.26 48.38C38.88 50.62 33.26 53.28 28.30 55.08L28.30 88.85L34.78 88.85L34.78 85.46L59.18 85.46L59.18 88.85L65.66 88.85L65.66 53.21Z"/></svg>
