<svg xmlns="http://www.w3.org/2000/svg" xmlns:xlink="http://www.w3.org/1999/xlink" width="72.00000000000001" height="106.56000000000002"><path fill="red" stroke="red" d="M56.66 23.40C55.30 27.00 52.49 32.11 50.33 35.21L55.44 37.37C57.67 34.49 60.48 29.95 63.07 25.85ZM31.03 25.63C33.34 29.38 36.00 34.34 36.94 37.66L42.62 35.21C41.40 31.97 38.88 27.22 36.36 23.62ZM66.60 37.66L26.57 37.66L26.57 43.78L66.60 43.78ZM22.03 25.78L21.10 25.99L5.62 25.99L5.62 88.99L11.81 88.99L11.81 32.04L18.79 32.04C17.50 36.72 15.70 42.77 13.90 47.52C18.58 52.99 19.66 57.82 19.73 61.42C19.73 63.58 19.30 65.38 18.29 66.10C17.78 66.53 17.06 66.67 16.20 66.74C15.19 66.82 14.04 66.74 12.60 66.67C13.54 68.26 14.11 70.85 14.11 72.43C15.70 72.58 17.50 72.50 18.79 72.36C20.30 72.07 21.53 71.64 22.68 70.92C24.70 69.34 25.63 66.31 25.63 62.06C25.63 57.82 24.55 52.63 19.80 46.87C22.03 41.26 24.48 34.13 26.50 28.30ZM33.84 65.45L38.95 65.45L38.95 81.29L33.84 81.29ZM48.82 65.45L48.82 81.29L43.78 81.29L43.78 65.45ZM58.82 65.45L58.82 81.29L53.57 81.29L53.57 65.45ZM64.51 81.29L64.51 60.48L64.58 60.55L68.54 56.09C65.02 53.21 58.03 48.67 52.92 45.65L49.18 49.54C54.07 52.56 60.34 57.02 63.94 59.98L30.89 59.98C35.64 56.88 41.40 52.20 44.78 48.53L40.03 45.50C36.65 49.03 29.95 53.64 25.06 55.87C26.14 56.88 27.36 58.61 28.37 60.05L28.37 81.29L23.04 81.29L23.04 87.12L68.90 87.12L68.90 81.29Z"/></svg>
