<svg xmlns="http://www.w3.org/2000/svg" xmlns:xlink="http://www.w3.org/1999/xlink" width="72.00000000000001" height="106.56000000000002"><path fill="red" stroke="red" d="M41.54 37.15L61.99 37.15L61.99 44.21L67.97 44.21L67.97 31.46L56.02 31.46C55.51 29.02 54.14 25.49 52.70 22.82L46.58 24.41C47.59 26.50 48.53 29.23 49.10 31.46L35.78 31.46L35.78 44.35L41.54 44.35ZM32.83 46.15L21.74 46.15L21.74 42.34L30.96 42.34L30.96 37.66L21.74 37.66L21.74 34.06L32.18 34.06L32.18 29.23L21.74 29.23L21.74 23.11L15.55 23.11L15.55 29.23L4.18 29.23L4.18 34.06L15.55 34.06L15.55 37.66L5.98 37.66L5.98 42.34L15.55 42.34L15.55 46.15L2.95 46.15L2.95 51.19L32.76 51.19ZM12.53 72.58C12.67 71.14 12.74 69.62 12.74 68.26L25.20 68.26L25.20 72.58ZM25.20 59.54L25.20 63.72L12.82 63.72L12.82 59.54ZM31.03 54.50L6.91 54.50L6.91 65.59C6.91 71.35 6.55 79.34 3.46 85.25C4.82 86.04 7.27 88.13 8.28 89.28C10.22 85.75 11.30 81.50 11.95 77.18L25.20 77.18L25.20 82.80C25.20 83.59 24.91 83.81 24.19 83.81C23.47 83.81 21.17 83.81 18.72 83.74C19.44 85.10 20.30 87.55 20.59 89.06C24.41 89.06 26.93 88.92 28.73 88.06C30.53 87.12 31.03 85.54 31.03 82.87ZM55.44 67.97L66.46 67.97L66.46 62.28L55.44 62.28L55.44 52.06L68.18 52.06L68.18 46.37L35.71 46.37L35.71 52.06L49.46 52.06L49.46 79.20C46.94 77.18 44.78 73.73 43.42 68.18C43.92 64.87 44.21 61.34 44.42 57.60L38.66 57.24C38.16 69.12 36.65 79.20 31.18 85.46C32.54 86.26 34.92 88.20 35.86 89.21C38.38 86.04 40.18 82.22 41.47 77.69C45.58 86.33 51.70 88.34 59.62 88.34L68.18 88.34C68.47 86.62 69.26 83.74 70.13 82.30C67.90 82.37 61.70 82.37 60.12 82.37C58.46 82.37 56.95 82.30 55.44 82.01Z"/></svg>
