<svg xmlns="http://www.w3.org/2000/svg" xmlns:xlink="http://www.w3.org/1999/xlink" width="72.00000000000001" height="106.56000000000002"><path fill="red" stroke="red" d="M60.19 48.96L45.07 48.96L45.07 43.42L60.19 43.42ZM60.19 59.54L45.07 59.54L45.07 53.93L60.19 53.93ZM60.19 70.20L45.07 70.20L45.07 64.51L60.19 64.51ZM39.02 38.16L39.02 75.46L66.53 75.46L66.53 38.16L53.86 38.16C54.43 36.29 55.01 34.13 55.66 32.04L68.54 32.04L68.54 26.35L37.15 26.35L37.15 32.04L49.46 32.04C49.10 34.06 48.74 36.29 48.31 38.16ZM9.29 35.50L29.95 35.50L29.95 42.48L35.21 42.48L35.21 30.10L23.47 30.10C22.61 28.01 21.53 25.27 20.52 23.26L15.26 25.13C15.84 26.64 16.56 28.37 17.14 30.10L4.32 30.10L4.32 42.48L9.29 42.48ZM14.54 81.65L14.54 72.43L25.85 72.43L25.85 81.65ZM11.09 67.18C14.47 65.45 17.78 63.22 20.74 60.55C24.48 62.93 28.01 65.30 30.53 67.18ZM35.50 63.14C32.90 61.34 28.94 58.90 24.84 56.45C27.86 52.99 30.38 48.89 32.26 44.28L28.87 41.83L27.94 42.05L18.07 42.05C18.65 40.75 19.22 39.53 19.66 38.23L14.40 37.22C12.74 42.12 9.36 47.45 3.82 51.19C4.90 52.06 6.55 54.22 7.20 55.58C10.58 53.14 13.18 50.26 15.26 47.16L24.91 47.16C23.62 49.46 21.89 51.70 20.02 53.57C18.14 52.49 16.34 51.48 14.69 50.54L10.87 54.58C12.38 55.44 13.97 56.38 15.62 57.38C11.66 60.34 7.06 62.64 2.38 64.15C3.46 65.45 5.11 68.11 5.69 69.62C6.77 69.19 7.78 68.76 8.86 68.33L8.86 88.99L14.54 88.99L14.54 86.90L25.85 86.90L25.85 88.92L31.75 88.92L31.75 67.54ZM46.87 76.10C43.63 78.98 37.66 82.58 33.26 84.60C34.13 85.97 35.50 88.20 36.14 89.57C40.82 87.26 46.94 83.66 51.12 80.28ZM53.78 79.99C57.82 82.66 63.07 86.69 65.59 89.28L69.34 84.67C66.67 82.08 61.34 78.26 57.38 75.82Z"/></svg>
