<svg xmlns="http://www.w3.org/2000/svg" xmlns:xlink="http://www.w3.org/1999/xlink" width="72.00000000000001" height="106.56000000000002"><path fill="red" stroke="red" d="M12.53 41.18L25.34 41.18L25.34 36.72L14.11 36.72C15.55 35.14 17.06 33.41 18.36 31.61C22.54 34.20 27.29 37.44 29.88 39.60L33.05 34.34C30.46 32.40 25.56 29.30 21.46 26.93C21.96 26.21 22.39 25.34 22.82 24.55L17.21 22.61C14.04 28.73 8.21 34.42 2.52 38.02C3.46 39.46 4.97 42.91 5.40 44.28C7.78 42.62 10.30 40.61 12.53 38.30ZM24.41 49.68L24.41 54.22L14.11 54.22L14.11 49.68ZM14.11 64.44L14.11 59.04L24.41 59.04L24.41 64.44ZM20.95 72.22C21.74 73.73 22.61 75.24 23.40 76.90L14.11 79.99L14.11 69.41L30.46 69.41L30.46 44.71L7.85 44.71L7.85 79.13C7.85 81.86 6.05 82.87 4.82 83.45C5.76 84.82 6.77 87.55 7.13 89.14C8.64 88.06 10.87 87.05 25.78 81.65C26.57 83.52 27.36 85.25 27.86 86.62L33.05 83.88C31.54 80.42 28.37 74.45 25.92 69.98ZM69.05 58.54L69.05 52.49L54.14 52.49L54.14 34.85L67.46 34.85L67.46 28.51L34.70 28.51L34.70 34.85L47.66 34.85L47.66 52.49L33.12 52.49L33.12 58.54L47.66 58.54L47.66 81.07L34.42 81.07L34.42 87.12L67.82 87.12L67.82 81.07L54.14 81.07L54.14 58.54Z"/></svg>
