<svg xmlns="http://www.w3.org/2000/svg" xmlns:xlink="http://www.w3.org/1999/xlink" width="72.00000000000001" height="106.56000000000002"><path fill="red" stroke="red" d="M13.75 36.50C15.19 34.85 16.70 33.19 18.00 31.46C20.23 33.05 22.68 34.85 24.70 36.50ZM12.46 41.11L24.77 41.11L24.77 36.50C26.06 37.58 27.14 38.59 28.01 39.31L31.25 34.70C28.94 32.69 24.62 29.59 20.95 27.22C21.53 26.21 22.10 25.27 22.61 24.26L16.99 22.39C13.75 28.37 7.92 34.06 2.30 37.66C3.24 39.10 4.68 42.55 5.18 43.92C7.63 42.26 10.15 40.10 12.46 37.80ZM22.03 49.68L22.03 54.50L12.82 54.50L12.82 49.68ZM12.82 64.44L12.82 59.33L22.03 59.33L22.03 64.44ZM20.16 71.71C20.88 73.22 21.60 74.88 22.32 76.61L12.82 79.99L12.82 69.41L27.50 69.41L27.50 44.71L7.06 44.71L7.06 79.27C7.06 82.01 5.26 83.16 4.03 83.74C4.97 85.10 5.90 87.62 6.26 89.06C7.70 87.98 9.86 86.90 24.19 81.36C24.98 83.45 25.70 85.32 26.14 86.83L31.25 84.74C29.95 81.00 27.22 74.74 24.98 69.98ZM46.37 62.78L46.37 69.55L39.24 69.55L39.24 62.78ZM58.82 69.55L51.55 69.55L51.55 62.78L58.82 62.78ZM51.55 81.07L51.55 74.52L58.82 74.52L58.82 81.07ZM39.24 81.07L39.24 74.52L46.37 74.52L46.37 81.07ZM33.48 89.06L39.24 89.06L39.24 86.26L58.82 86.26L58.82 89.06L64.87 89.06L64.87 57.60L33.48 57.60ZM51.62 33.98C51.62 38.09 51.12 43.63 48.89 48.74C47.81 45.22 45.94 40.18 44.21 36.22L39.74 37.37C40.61 39.53 41.54 41.90 42.34 44.28L36.94 46.51L36.94 32.47C40.46 31.61 44.21 30.53 47.45 29.38L47.45 32.98L51.62 32.98ZM47.81 27.86L45.00 23.69C41.62 25.49 36.22 27.36 31.61 28.66L31.61 46.58C31.61 49.18 30.53 50.04 29.52 50.54C30.24 51.62 31.10 54.00 31.39 55.37C32.47 54.36 34.06 53.35 43.70 48.74C43.99 49.75 44.28 50.76 44.50 51.62L47.95 50.47C47.38 51.55 46.66 52.70 45.94 53.64C47.09 54.22 49.32 55.73 50.18 56.59C55.37 49.82 56.66 40.46 56.66 34.06L56.66 32.98L61.85 32.98C61.56 44.42 61.20 48.60 60.48 49.61C60.05 50.26 59.54 50.40 58.90 50.33C58.10 50.33 56.52 50.33 54.65 50.18C55.37 51.48 55.87 53.64 55.94 55.22C58.18 55.30 60.26 55.22 61.56 55.08C63.14 54.86 64.15 54.36 65.09 52.99C66.46 51.19 66.82 45.65 67.10 30.17C67.18 29.45 67.18 27.86 67.18 27.86Z"/></svg>
