<svg xmlns="http://www.w3.org/2000/svg" xmlns:xlink="http://www.w3.org/1999/xlink" width="72.00000000000001" height="106.56000000000002"><path fill="red" stroke="red" d="M15.77 79.56L36.79 79.56L36.79 75.67L15.77 75.67L15.77 73.58L10.15 73.58L10.15 82.08C10.15 84.60 8.86 85.03 7.85 85.32C8.42 86.18 9.29 88.27 9.50 89.42C11.23 88.63 13.90 88.27 38.02 85.39C38.02 84.53 38.09 82.73 38.30 81.50L15.77 83.95ZM61.70 71.78C57.67 77.98 49.25 82.37 39.31 84.53C40.61 85.68 42.05 87.70 42.70 89.14C53.57 86.18 62.42 81.22 66.96 73.51ZM54.94 54.29C51.55 57.46 45.36 60.34 40.10 62.06C41.40 63.14 42.91 64.66 43.78 65.88C49.32 63.72 55.73 60.34 59.69 56.30ZM58.03 62.93C54.36 67.10 47.30 70.78 40.61 72.79C41.90 73.94 43.34 75.67 44.14 76.97C51.48 74.38 58.75 70.20 63.07 64.80ZM5.18 60.62L9.58 60.62L9.58 72.50L39.74 72.50L39.74 56.30L34.92 56.30L34.92 61.27C34.06 60.55 32.83 59.69 31.68 59.11L29.74 60.84C31.03 61.63 32.62 62.71 33.41 63.65L34.92 62.21L34.92 68.54L26.71 68.54L27.65 67.75C26.93 66.96 25.56 65.81 24.41 64.94L22.25 66.53C22.97 67.10 23.90 67.82 24.62 68.54L14.26 68.54L14.26 61.34C15.34 61.99 16.42 62.93 16.99 63.58L19.15 61.92C18.43 61.13 16.85 59.98 15.77 59.33L14.26 60.41L14.26 56.30L10.87 56.30L10.87 53.21L22.90 53.21L20.95 54.79C22.25 55.51 23.83 56.66 24.62 57.53L26.64 55.51C25.92 54.79 24.41 53.86 23.33 53.21L60.98 53.21L60.98 60.62L66.96 60.62L66.96 48.38L5.18 48.38ZM29.16 54.86C27.94 56.45 26.42 58.03 24.70 59.40C22.82 58.25 20.81 56.95 19.01 55.94L16.63 57.89C18.50 58.90 20.38 60.12 22.32 61.42C19.94 63.14 17.35 64.80 14.83 66.02C15.70 66.60 16.92 67.68 17.42 68.33C19.87 66.89 22.39 65.16 24.84 63.14C27.29 64.94 29.38 66.67 30.89 68.11L33.34 65.95C31.82 64.58 29.66 62.86 27.29 61.20C29.09 59.47 30.89 57.67 32.26 55.87ZM27.79 33.55C28.66 32.47 29.45 31.46 30.10 30.31L33.26 30.31L33.26 33.55ZM68.11 32.83L68.11 28.30L59.04 28.30L59.04 23.11L54.00 23.11L54.00 28.30L46.66 28.30L46.66 32.83L52.13 32.83C50.47 35.86 48.17 38.88 45.65 40.68L45.65 38.66L41.62 38.66L41.62 43.06L38.16 43.06L38.16 37.44L46.73 37.44L46.73 33.55L38.16 33.55L38.16 30.31L45.36 30.31L45.36 26.42L31.97 26.42C32.33 25.63 32.62 24.70 32.90 23.76L28.58 23.11C27.79 25.70 26.50 28.58 24.34 30.89L24.34 28.22L17.57 28.22L17.57 23.11L12.60 23.11L12.60 28.22L4.39 28.22L4.39 32.76L11.30 32.76C9.07 36.07 5.83 39.38 2.88 41.18C3.67 42.41 4.61 44.64 5.04 46.01C7.70 44.21 10.37 41.26 12.60 38.02L12.60 47.38L17.57 47.38L17.57 37.94C19.22 39.74 20.95 41.76 21.74 42.98L24.98 38.88C23.90 37.87 19.51 34.56 17.57 33.19L17.57 32.76L24.34 32.76L24.34 31.54C25.42 31.97 26.57 32.76 27.36 33.55L24.12 33.55L24.12 37.44L33.26 37.44L33.26 43.06L29.59 43.06L29.59 38.66L25.63 38.66L25.63 46.80L45.65 46.80L45.65 42.05C46.66 42.98 47.74 44.14 48.31 45.07C50.40 43.34 52.34 40.54 54.00 37.58L54.00 47.30L59.04 47.30L59.04 38.02C60.98 40.18 63.22 42.62 64.15 43.92L67.61 40.18C66.31 38.88 61.13 34.70 59.04 33.19L59.04 32.83Z"/></svg>
