<svg xmlns="http://www.w3.org/2000/svg" xmlns:xlink="http://www.w3.org/1999/xlink" width="72.00000000000001" height="106.56000000000002"><path fill="red" stroke="red" d="M61.13 61.78C66.38 61.78 68.11 60.26 68.47 55.01C67.03 54.72 65.02 54.29 63.72 53.64C63.43 57.53 62.93 58.32 60.48 58.32L48.46 58.32C45.22 58.32 44.57 57.96 44.57 55.94L44.57 55.87L63.29 55.87L63.29 53.14L44.57 53.14L44.57 50.98L62.28 50.98L62.28 48.24L44.57 48.24L44.57 46.15L62.71 46.15L62.71 43.42L44.57 43.42L44.57 41.18L64.87 41.18L64.87 32.33L44.57 32.33L44.57 29.52L66.60 29.52L66.60 26.21L44.57 26.21L44.57 23.11L38.45 23.11L38.45 35.50L58.82 35.50L58.82 37.87L38.45 37.87L38.45 56.02C38.45 60.77 40.82 61.78 47.81 61.78ZM25.49 30.53C24.98 31.82 24.19 33.48 23.40 34.99L16.92 34.99C16.56 33.70 15.70 31.90 14.76 30.53ZM36.79 34.99L28.87 34.99C29.45 33.84 30.10 32.62 30.82 31.25L26.71 30.53L35.57 30.53L35.57 26.42L24.19 26.42C23.54 25.06 22.61 23.47 21.89 22.18L15.77 23.40C16.27 24.34 16.85 25.34 17.42 26.42L5.83 26.42L5.83 30.53L13.82 30.53L10.01 31.18C10.66 32.33 11.30 33.70 11.74 34.99L4.10 34.99L4.10 39.17L36.79 39.17ZM13.32 45.22L28.22 45.22L28.22 50.98L25.49 51.55L26.57 48.96C24.05 47.88 19.22 46.66 15.62 46.08L14.26 48.82C17.71 49.46 22.03 50.69 24.70 51.77C20.38 52.70 16.34 53.42 13.18 54.00L14.62 57.46C18.72 56.52 23.40 55.51 28.22 54.29L28.22 57.17C28.22 57.82 28.01 58.03 27.29 58.03C26.64 58.10 24.62 58.10 22.54 57.96C22.97 59.11 23.62 60.26 23.76 61.49C27.50 61.49 30.24 61.49 31.82 60.98C33.55 60.34 34.06 59.54 34.06 57.17L34.06 41.33L7.70 41.33L7.70 48.10C7.70 51.55 7.20 55.51 3.10 58.75C4.39 59.47 6.84 61.42 7.78 62.50C12.38 58.68 13.32 52.92 13.32 48.24ZM27.36 70.13L44.42 70.13L44.42 74.81L27.36 74.81ZM67.90 79.63L67.90 74.81L50.83 74.81L50.83 70.13L64.51 70.13L64.51 65.23L50.83 65.23L50.83 62.06L44.42 62.06L44.42 65.23L27.36 65.23L27.36 62.06L21.02 62.06L21.02 65.23L7.78 65.23L7.78 70.13L21.02 70.13L21.02 74.81L4.18 74.81L4.18 79.63L24.55 79.63C19.80 81.86 10.58 83.81 3.60 84.89C4.61 85.90 6.12 87.98 6.91 89.21C14.33 87.98 23.90 85.25 30.02 82.08L25.13 79.63L45.94 79.63L41.69 82.87C49.10 84.60 58.97 87.34 63.94 89.28L68.62 85.54C63.07 83.59 53.42 81.00 46.30 79.63Z"/></svg>
