<svg xmlns="http://www.w3.org/2000/svg" xmlns:xlink="http://www.w3.org/1999/xlink" width="72.00000000000001" height="106.56000000000002"><path fill="red" stroke="red" d="M45.29 33.98L43.99 34.34L27.36 34.34C28.73 31.25 29.88 28.08 30.96 24.84L23.69 23.11C19.51 36.86 12.02 49.32 2.45 56.88C4.18 57.96 7.27 60.48 8.42 61.85C14.40 56.59 19.73 49.39 24.12 41.11L41.18 41.11C34.85 62.21 20.52 76.25 3.24 83.38C4.90 84.67 7.49 87.62 8.42 89.35C20.45 83.95 31.32 74.88 39.38 62.06C45.14 74.09 53.71 83.74 64.73 89.06C65.81 87.19 67.97 84.46 69.62 83.09C57.67 78.12 48.31 67.25 43.34 54.86C46.15 49.32 48.38 43.06 50.11 36.22Z"/></svg>
