<svg xmlns="http://www.w3.org/2000/svg" xmlns:xlink="http://www.w3.org/1999/xlink" width="72.00000000000001" height="106.56000000000002"><path fill="red" stroke="red" d="M41.69 75.60C48.46 79.63 57.60 85.54 61.99 89.21L67.46 84.46C62.71 80.71 53.42 75.17 46.80 71.42ZM22.75 48.60L45.36 48.60L45.36 63.58L22.75 63.58ZM52.20 63.58L52.20 48.60L64.44 48.60L64.44 42.34L22.75 42.34L22.75 33.26C35.93 32.69 50.47 31.39 61.06 29.38L57.53 23.26C47.09 25.42 30.31 26.86 15.91 27.58L15.91 63.58L3.67 63.58L3.67 69.84L68.33 69.84L68.33 63.58Z"/></svg>
