<svg xmlns="http://www.w3.org/2000/svg" xmlns:xlink="http://www.w3.org/1999/xlink" width="72.00000000000001" height="106.56000000000002"><path fill="red" stroke="red" d="M67.46 41.54L67.46 34.99L36.14 34.99L41.98 32.90C40.75 30.10 38.23 25.78 36.14 22.54L29.81 24.70C31.75 27.86 33.91 32.26 34.99 34.99L4.54 34.99L4.54 41.54L25.27 41.54L25.27 49.25C25.27 59.98 23.83 74.30 8.86 84.60C10.51 85.75 12.89 88.06 13.97 89.64C30.31 78.05 32.04 61.78 32.04 49.32L32.04 41.54L42.41 41.54L42.41 80.86C42.41 82.01 41.98 82.37 40.75 82.37C39.53 82.44 35.28 82.44 30.96 82.30C31.90 84.17 32.90 87.19 33.19 89.06C39.17 89.06 43.27 88.92 45.86 87.84C48.46 86.76 49.25 84.82 49.25 80.93L49.25 41.54ZM12.96 48.46C11.23 56.23 7.99 63.94 3.74 68.83C5.40 69.62 8.28 71.50 9.50 72.65C13.82 67.10 17.57 58.54 19.73 49.82ZM51.55 50.83C55.94 58.25 60.34 67.97 61.78 74.16L68.11 71.28C66.53 65.09 61.85 55.51 57.38 48.31Z"/></svg>
