<svg xmlns="http://www.w3.org/2000/svg" xmlns:xlink="http://www.w3.org/1999/xlink" width="72.00000000000001" height="106.56000000000002"><path fill="red" stroke="red" d="M20.52 23.54C16.56 34.42 9.86 45.00 2.74 51.84C4.03 53.50 6.05 57.10 6.77 58.68C8.93 56.52 11.09 54.00 13.10 51.26L13.10 89.06L19.87 89.06L19.87 40.82C22.68 36.00 25.13 30.74 27.14 25.63ZM68.76 38.81L60.19 38.81L60.19 23.90L53.28 23.90L53.28 38.81L25.13 38.81L25.13 45.50L53.28 45.50L53.28 80.64C53.28 82.22 52.63 82.73 50.98 82.80C49.25 82.87 43.27 82.94 37.44 82.66C38.45 84.46 39.67 87.48 40.03 89.35C47.88 89.42 52.92 89.28 55.94 88.20C58.97 87.19 60.19 85.32 60.19 80.64L60.19 45.50L68.76 45.50ZM45.22 69.05C43.06 64.73 38.38 57.46 34.92 52.06L29.09 54.79C32.54 60.41 37.01 67.97 38.95 72.43Z"/></svg>
