<svg xmlns="http://www.w3.org/2000/svg" xmlns:xlink="http://www.w3.org/1999/xlink" width="72.00000000000001" height="106.56000000000002"><path fill="red" stroke="red" d="M18.72 23.40C14.98 33.91 8.86 44.35 2.30 51.12C3.46 52.70 5.33 56.30 5.98 57.89C7.85 55.87 9.79 53.42 11.59 50.90L11.59 89.06L17.93 89.06L17.93 40.82C20.66 35.78 23.11 30.53 24.98 25.27ZM68.69 58.18L49.61 58.18L49.61 43.92L65.45 43.92L65.45 37.37L49.61 37.37L49.61 23.98L42.91 23.98L42.91 37.37L34.85 37.37C35.71 34.34 36.50 31.25 37.15 28.15L30.67 26.86C29.09 35.86 26.14 45.07 22.10 50.83C23.69 51.55 26.57 53.14 27.86 54.07C29.66 51.34 31.25 47.81 32.69 43.92L42.91 43.92L42.91 58.18L22.97 58.18L22.97 64.73L42.91 64.73L42.91 89.14L49.61 89.14L49.61 64.73L68.69 64.73Z"/></svg>
