<svg xmlns="http://www.w3.org/2000/svg" xmlns:xlink="http://www.w3.org/1999/xlink" width="72.00000000000001" height="106.56000000000002"><path fill="red" stroke="red" d="M20.52 23.54C16.27 34.49 9.22 45.00 1.58 51.70C2.81 53.28 4.82 56.95 5.54 58.61C8.06 56.23 10.58 53.50 12.89 50.47L12.89 88.99L19.51 88.99L19.51 40.90C22.46 36.00 25.06 30.82 27.14 25.63ZM68.33 47.45L68.33 40.90L48.53 40.90L48.53 24.19L41.90 24.19L41.90 40.90L22.68 40.90L22.68 47.45L38.88 47.45C34.49 58.54 27.36 69.55 19.73 75.46C21.24 76.75 23.62 79.13 24.70 80.78C31.25 74.88 37.30 65.88 41.90 55.87L41.90 89.21L48.53 89.21L48.53 54.07C52.99 64.51 58.90 74.30 65.30 80.35C66.46 78.55 68.69 76.25 70.34 74.95C63.22 69.05 56.30 58.25 51.98 47.45Z"/></svg>
