<svg xmlns="http://www.w3.org/2000/svg" xmlns:xlink="http://www.w3.org/1999/xlink" width="72.00000000000001" height="106.56000000000002"><path fill="red" stroke="red" d="M16.34 23.40C13.03 34.13 7.49 44.78 1.51 51.70C2.52 53.35 4.25 57.10 4.90 58.75C6.84 56.45 8.78 53.78 10.58 50.90L10.58 89.14L16.70 89.14L16.70 39.67C18.94 34.99 20.95 30.02 22.54 25.13ZM61.27 73.66C56.95 68.04 56.52 60.84 56.52 52.13L50.04 52.13L50.04 55.80L53.21 55.80C52.49 62.57 50.83 69.77 47.81 73.30L47.81 46.51L61.27 46.51ZM32.04 52.13L32.04 55.80L35.06 55.80L35.06 55.94C34.20 63.14 32.47 70.70 29.02 73.94L29.02 46.51L42.34 46.51L42.34 73.51C38.59 67.90 38.30 60.70 38.30 52.13ZM68.54 33.55L68.54 27.72L22.10 27.72L22.10 33.55L41.83 33.55L41.83 40.90L23.04 40.90L23.04 89.14L29.02 89.14L29.02 74.45C29.81 75.17 30.82 76.32 31.32 77.18C33.48 75.02 35.06 71.35 36.14 67.10C36.86 70.78 38.09 74.16 40.18 76.97C40.61 76.32 41.54 75.38 42.34 74.74L42.34 88.63L47.81 88.63L47.81 74.45C48.53 75.17 49.32 76.18 49.82 76.90C51.91 74.74 53.35 71.14 54.36 66.96C55.15 70.70 56.52 74.09 58.90 76.97C59.40 76.32 60.41 75.24 61.27 74.59L61.27 81.65C61.27 82.66 60.91 82.94 59.98 82.94C58.97 83.02 55.80 83.02 52.49 82.87C53.35 84.60 54.14 87.26 54.36 88.99C59.33 88.99 62.50 88.85 64.73 87.91C66.82 86.83 67.39 84.96 67.39 81.72L67.39 40.90L48.24 40.90L48.24 33.55Z"/></svg>
