<svg xmlns="http://www.w3.org/2000/svg" xmlns:xlink="http://www.w3.org/1999/xlink" width="72.00000000000001" height="106.56000000000002"><path fill="red" stroke="red" d="M16.63 23.40C13.25 33.98 7.56 44.42 1.44 51.26C2.45 52.99 4.25 56.66 4.75 58.32C6.84 56.02 8.78 53.28 10.73 50.40L10.73 89.28L17.14 89.28L17.14 39.02C19.37 34.56 21.24 29.88 22.82 25.20ZM50.76 69.19L40.75 69.19L40.75 59.69L50.76 59.69ZM58.32 47.66L58.32 42.70L48.31 42.70L48.31 34.92L42.98 34.92L42.98 42.70L33.34 42.70L33.34 47.66L42.98 47.66L42.98 54.86L35.78 54.86L35.78 74.02L55.94 74.02L55.94 54.86L48.31 54.86L48.31 47.66ZM30.74 78.98L30.74 32.98L60.41 32.98L60.41 78.98ZM24.62 27.14L24.62 89.14L30.74 89.14L30.74 84.89L60.41 84.89L60.41 88.49L66.74 88.49L66.74 27.14Z"/></svg>
