<svg xmlns="http://www.w3.org/2000/svg" xmlns:xlink="http://www.w3.org/1999/xlink" width="72.00000000000001" height="106.56000000000002"><path fill="red" stroke="red" d="M19.80 23.40C15.91 33.91 9.50 44.42 2.66 51.12C3.82 52.70 5.76 56.30 6.41 57.96C8.42 55.80 10.44 53.42 12.31 50.76L12.31 89.06L18.72 89.06L18.72 40.82C21.53 35.86 24.05 30.53 26.06 25.34ZM56.81 62.78L56.81 69.12L37.51 69.12L37.51 62.78ZM37.51 80.78L37.51 74.45L56.81 74.45L56.81 80.78ZM30.96 89.14L37.51 89.14L37.51 86.18L56.81 86.18L56.81 88.99L63.58 88.99L63.58 57.24L30.96 57.24ZM41.76 37.94L51.91 37.94L51.91 46.22L41.76 46.22ZM58.39 46.22L58.39 37.94L67.10 37.94L67.10 32.04L58.39 32.04L58.39 23.18L51.91 23.18L51.91 32.04L41.76 32.04L41.76 23.18L35.35 23.18L35.35 32.04L27.07 32.04L27.07 37.94L35.35 37.94L35.35 46.22L25.27 46.22L25.27 52.20L68.54 52.20L68.54 46.22Z"/></svg>
