<svg xmlns="http://www.w3.org/2000/svg" xmlns:xlink="http://www.w3.org/1999/xlink" width="72.00000000000001" height="106.56000000000002"><path fill="red" stroke="red" d="M18.65 23.40C14.98 33.91 8.78 44.35 2.23 51.12C3.38 52.70 5.26 56.30 5.90 57.96C7.70 55.94 9.50 53.71 11.30 51.26L11.30 89.14L17.71 89.14L17.71 41.04C20.52 36.00 22.97 30.67 24.98 25.27ZM33.05 48.17L33.05 42.26L42.55 42.26L42.55 48.17ZM33.05 31.54L42.55 31.54L42.55 37.37L33.05 37.37ZM58.25 37.37L48.38 37.37L48.38 31.54L58.25 31.54ZM58.25 48.17L48.38 48.17L48.38 42.26L58.25 42.26ZM67.61 58.39L48.38 58.39L48.38 53.35L64.73 53.35L64.73 26.35L26.86 26.35L26.86 53.35L42.55 53.35L42.55 58.39L29.81 58.39L29.81 55.58L23.54 55.58L23.54 58.39L21.46 58.39L21.46 64.01L23.54 64.01L23.54 89.21L29.81 89.21L29.81 64.01L42.55 64.01L42.55 72.65C38.38 73.08 34.56 73.44 31.39 73.66L32.69 79.42C39.17 78.70 47.45 77.62 55.58 76.54C56.23 78.12 56.74 79.63 57.10 80.86L60.98 79.27C59.98 75.96 57.53 70.27 55.22 66.02L51.55 67.25C52.27 68.62 52.99 70.06 53.64 71.64L48.38 72.14L48.38 64.01L61.34 64.01L61.34 82.58C61.34 83.52 61.06 83.74 59.98 83.81C58.97 83.81 55.30 83.88 51.48 83.74C52.34 85.25 53.14 87.62 53.42 89.28C58.75 89.28 62.35 89.21 64.58 88.34C66.96 87.41 67.61 85.75 67.61 82.66Z"/></svg>
