<svg xmlns="http://www.w3.org/2000/svg" xmlns:xlink="http://www.w3.org/1999/xlink" width="72.00000000000001" height="106.56000000000002"><path fill="red" stroke="red" d="M16.27 23.47C12.96 33.77 7.42 44.06 1.37 50.76C2.45 52.49 4.18 56.23 4.75 57.82C6.77 55.51 8.71 52.92 10.58 50.04L10.58 89.28L16.92 89.28L16.92 38.74C19.01 34.34 20.88 29.81 22.39 25.27ZM50.11 73.51L50.11 78.62L40.18 78.62L40.18 73.51ZM55.44 82.80L55.44 69.34L34.85 69.34L34.85 85.75L40.18 85.75L40.18 82.80ZM66.82 60.91L23.62 60.91L23.62 89.14L30.02 89.14L30.02 66.10L60.48 66.10L60.48 82.51C60.48 83.38 60.12 83.66 59.04 83.74C58.10 83.74 54.50 83.81 50.83 83.66C51.55 85.18 52.34 87.48 52.63 89.21C57.96 89.21 61.56 89.21 63.86 88.20C66.17 87.41 66.82 85.68 66.82 82.58ZM52.20 53.71L37.94 53.71L37.94 48.60L52.20 48.60ZM50.26 40.68C51.12 41.98 52.06 43.27 53.06 44.50L37.44 44.50C38.45 43.27 39.38 42.05 40.25 40.68ZM68.47 40.68L68.47 35.71L43.06 35.71C43.70 34.27 44.35 32.83 44.93 31.32C51.98 30.67 58.82 29.81 64.15 28.58L59.40 24.26C51.48 25.99 36.94 27.22 24.70 27.65C25.34 28.87 26.06 31.03 26.28 32.33C30.02 32.26 33.98 32.04 38.02 31.82C37.44 33.19 36.79 34.49 36.07 35.71L21.82 35.71L21.82 40.68L32.69 40.68C29.16 44.93 24.77 48.38 19.58 50.83C20.88 52.06 23.11 54.50 23.90 55.73C26.78 54.14 29.45 52.34 31.90 50.18L31.90 57.82L58.61 57.82L58.61 50.18C61.06 52.34 63.58 54.22 66.10 55.58C67.10 54.07 69.05 51.91 70.42 50.76C65.66 48.67 60.62 44.78 57.02 40.68Z"/></svg>
