<svg xmlns="http://www.w3.org/2000/svg" xmlns:xlink="http://www.w3.org/1999/xlink" width="72.00000000000001" height="106.56000000000002"><path fill="red" stroke="red" d="M18.29 33.41L54.14 33.41L54.14 50.76L18.29 50.76ZM50.76 82.08C48.02 82.08 47.59 81.72 47.59 79.27L47.59 57.38L61.27 57.38L61.27 26.86L11.59 26.86L11.59 57.38L22.10 57.38C21.10 69.91 18.72 78.70 2.59 83.30C4.10 84.67 6.05 87.41 6.77 89.21C24.77 83.45 28.22 72.65 29.52 57.38L40.75 57.38L40.75 79.27C40.75 86.33 42.62 88.42 49.90 88.42L59.83 88.42C66.60 88.42 68.40 85.03 69.05 72.22C67.32 71.78 64.37 70.56 62.86 69.48C62.50 80.35 62.14 82.08 59.33 82.08Z"/></svg>
