<svg xmlns="http://www.w3.org/2000/svg" xmlns:xlink="http://www.w3.org/1999/xlink" width="72.00000000000001" height="106.56000000000002"><path fill="red" stroke="red" d="M56.09 46.94L56.09 58.10L38.38 58.10C39.10 54.58 39.53 50.76 39.89 46.94ZM17.50 58.10L17.50 46.94L32.83 46.94C32.47 50.83 32.11 54.58 31.32 58.10ZM40.46 33.77C38.88 36.22 36.94 38.88 35.06 40.97L17.86 40.97C20.09 38.66 22.18 36.22 24.05 33.77ZM49.61 81.86C46.58 81.86 46.08 81.50 46.08 79.27L46.08 64.08L63.14 64.08L63.14 40.97L42.98 40.97C45.58 37.80 48.17 34.06 49.97 30.89L45.29 27.94L44.28 28.22L28.01 28.22C28.94 26.86 29.74 25.63 30.46 24.26L23.11 22.90C19.30 29.95 12.38 38.66 2.66 45.07C4.25 46.08 6.41 48.46 7.49 49.97C8.64 49.18 9.72 48.31 10.80 47.45L10.80 64.08L29.52 64.08C26.14 72.43 19.22 79.13 3.67 83.02C5.11 84.38 6.77 86.90 7.49 88.63C25.49 83.66 33.19 75.02 36.79 64.08L39.10 64.08L39.10 79.34C39.10 85.90 41.04 87.84 48.67 87.84L59.69 87.84C66.24 87.84 68.04 85.10 68.83 74.81C67.03 74.38 64.22 73.30 62.71 72.22C62.42 80.50 61.92 81.86 59.18 81.86Z"/></svg>
