<svg xmlns="http://www.w3.org/2000/svg" xmlns:xlink="http://www.w3.org/1999/xlink" width="72.00000000000001" height="106.56000000000002"><path fill="red" stroke="red" d="M24.26 33.84L37.01 33.84L37.01 27.36L4.90 27.36L4.90 33.84L17.42 33.84L17.42 50.90L3.02 50.90L3.02 57.60L17.42 57.60L17.42 89.14L24.26 89.14L24.26 57.60L39.02 57.60L39.02 50.90L24.26 50.90ZM50.18 31.54L43.49 31.54L43.49 71.50L50.18 71.50ZM59.04 24.41L59.04 80.42C59.04 81.79 58.46 82.22 56.95 82.30C55.51 82.30 50.62 82.37 45.43 82.15C46.51 84.10 47.74 87.34 48.02 89.21C54.86 89.28 59.40 89.06 62.14 87.91C64.80 86.83 65.88 84.82 65.88 80.42L65.88 24.41Z"/></svg>
