<svg xmlns="http://www.w3.org/2000/svg" xmlns:xlink="http://www.w3.org/1999/xlink" width="72.00000000000001" height="106.56000000000002"><path fill="red" stroke="red" d="M17.86 40.54C16.42 37.01 13.46 31.46 10.87 27.22L5.33 29.30C7.78 33.62 10.80 39.38 12.02 43.06ZM26.42 50.54L39.02 50.54L39.02 44.21L26.42 44.21L26.42 23.47L19.73 23.47L19.73 44.21L6.05 44.21L6.05 50.54L19.73 50.54L19.73 52.27C19.73 55.22 19.66 58.39 19.22 61.42L3.60 61.42L3.60 67.61L18.00 67.61C16.27 74.16 12.60 80.35 5.26 84.89C6.84 86.04 9.29 88.34 10.30 89.78C19.15 84.17 23.33 76.18 25.06 67.61L40.97 67.61L40.97 61.42L25.99 61.42C26.35 58.39 26.42 55.30 26.42 52.27ZM35.28 26.93C33.41 31.68 30.60 37.30 28.15 41.11C29.66 41.76 32.40 42.91 33.77 43.85C36.07 39.89 39.17 33.77 41.33 28.58ZM51.12 31.75L44.64 31.75L44.64 71.57L51.12 71.57ZM59.26 24.55L59.26 80.78C59.26 82.15 58.68 82.58 57.38 82.58C55.87 82.66 51.41 82.66 46.44 82.51C47.52 84.38 48.60 87.48 48.96 89.35C55.37 89.35 59.69 89.21 62.28 88.06C64.80 86.98 65.81 85.03 65.81 80.78L65.81 24.55Z"/></svg>
