<svg xmlns="http://www.w3.org/2000/svg" xmlns:xlink="http://www.w3.org/1999/xlink" width="72.00000000000001" height="106.56000000000002"><path fill="red" stroke="red" d="M32.47 41.69C31.32 44.06 29.95 46.37 28.37 48.53L15.26 49.10C18.58 45.79 21.82 41.83 24.70 37.87L43.27 37.87L43.27 31.75L28.87 31.75C28.15 29.16 26.28 25.42 24.41 22.75L18.07 24.26C19.51 26.57 20.95 29.38 21.67 31.75L3.89 31.75L3.89 37.87L17.06 37.87C14.11 42.05 10.94 45.72 9.79 46.87C8.14 48.46 6.84 49.61 5.47 49.82C6.19 51.55 7.20 54.65 7.56 55.94C9.00 55.37 11.16 55.01 23.69 54.22C18.29 60.05 11.66 64.73 4.54 68.11C5.83 69.34 7.85 72.22 8.71 73.58C20.88 67.03 31.90 56.52 38.59 43.63ZM37.15 55.15C30.17 67.68 17.71 77.69 3.96 83.52C5.26 84.82 7.27 87.77 8.06 89.21C15.34 85.68 22.39 81.07 28.58 75.53C32.62 79.13 37.22 83.52 39.53 86.33L44.35 81.94C41.83 79.13 36.94 74.81 32.83 71.35C36.86 67.10 40.39 62.50 43.27 57.46ZM53.86 31.18L47.52 31.18L47.52 71.06L53.86 71.06ZM60.12 23.98L60.12 81.00C60.12 82.30 59.62 82.66 58.46 82.73C57.17 82.80 52.99 82.80 48.89 82.66C49.75 84.38 50.76 87.26 51.05 88.99C57.10 89.06 60.98 88.85 63.43 87.84C65.81 86.83 66.74 84.96 66.74 81.00L66.74 23.98Z"/></svg>
