<svg xmlns="http://www.w3.org/2000/svg" xmlns:xlink="http://www.w3.org/1999/xlink" width="72.00000000000001" height="106.56000000000002"><path fill="red" stroke="red" d="M3.53 87.55C13.75 87.12 29.23 86.33 43.78 85.61L43.99 80.50C28.94 81.22 13.10 81.86 3.10 82.15ZM34.49 68.69L26.57 68.69L26.57 65.81L34.49 65.81ZM34.49 75.02L26.57 75.02L26.57 72.00L34.49 72.00ZM12.82 72.00L20.81 72.00L20.81 75.02L12.82 75.02ZM12.82 65.81L20.81 65.81L20.81 68.69L12.82 68.69ZM7.42 62.35L7.42 78.41L40.03 78.41L40.03 62.35ZM34.20 41.90L26.28 41.90L26.28 38.59L34.20 38.59ZM26.28 31.32L34.20 31.32L34.20 34.27L26.28 34.27ZM39.96 27.43L26.28 27.43L26.28 23.11L20.16 23.11L20.16 27.43L7.42 27.43L7.42 31.32L20.16 31.32L20.16 34.27L3.10 34.27L3.10 38.59L20.16 38.59L20.16 41.90L7.20 41.90L7.20 45.86L20.16 45.86L20.16 48.53L6.84 48.53L6.84 52.49L20.16 52.49L20.16 55.30L3.53 55.30L3.53 59.76L43.70 59.76L43.70 55.30L26.28 55.30L26.28 52.49L40.90 52.49L40.90 48.53L26.28 48.53L26.28 45.86L39.96 45.86L39.96 38.59L44.06 38.59L44.06 34.27L39.96 34.27ZM52.56 31.75L46.44 31.75L46.44 71.50L52.56 71.50ZM59.98 24.55L59.98 81.14C59.98 82.30 59.47 82.66 58.39 82.66C57.24 82.66 53.57 82.66 49.61 82.58C50.47 84.46 51.41 87.34 51.70 89.14C57.31 89.14 60.98 88.92 63.22 87.91C65.52 86.76 66.31 84.89 66.31 81.14L66.31 24.55Z"/></svg>
