<svg xmlns="http://www.w3.org/2000/svg" xmlns:xlink="http://www.w3.org/1999/xlink" width="72.00000000000001" height="106.56000000000002"><path fill="red" stroke="red" d="M55.01 24.55C53.14 29.66 49.61 36.50 46.80 40.75L52.85 42.98C55.66 38.88 59.26 32.62 62.14 26.86ZM24.62 40.54C23.33 36.22 19.73 29.74 16.42 24.84L10.30 27.22C13.54 32.26 16.85 39.02 18.07 43.27ZM68.11 62.71L39.31 62.71L39.31 52.49L64.15 52.49L64.15 45.86L39.31 45.86L39.31 23.04L32.26 23.04L32.26 45.86L8.50 45.86L8.50 52.49L32.26 52.49L32.26 62.71L4.03 62.71L4.03 69.41L32.26 69.41L32.26 89.06L39.31 89.06L39.31 69.41L68.11 69.41Z"/></svg>
