<svg xmlns="http://www.w3.org/2000/svg" xmlns:xlink="http://www.w3.org/1999/xlink" width="72.00000000000001" height="106.56000000000002"><path fill="red" stroke="red" d="M59.04 36.00C58.46 42.12 57.67 44.93 56.81 45.79C56.23 46.30 55.58 46.37 54.58 46.37C53.42 46.37 50.69 46.30 47.81 46.08C48.74 47.59 49.39 49.97 49.46 51.77C52.63 51.91 55.58 51.84 57.24 51.70C59.18 51.55 60.55 51.12 61.85 49.68C63.58 47.88 64.51 43.42 65.38 32.98C65.52 32.18 65.59 30.60 65.59 30.60L48.10 30.60C48.53 28.30 48.82 25.78 48.96 23.11L42.70 23.11C42.55 25.78 42.26 28.30 41.83 30.60L28.66 30.60L28.66 36.00L40.32 36.00C38.09 41.54 33.91 45.72 25.70 48.53C26.93 49.61 28.44 51.77 29.09 53.14C39.17 49.32 44.28 43.70 46.80 36.00ZM25.70 47.66L25.70 41.54L17.78 41.54L17.78 23.11L11.38 23.11L11.38 41.54L2.95 41.54L2.95 47.66L11.38 47.66L11.38 89.14L17.78 89.14L17.78 47.66ZM34.20 60.41C34.34 58.18 34.42 55.80 34.49 53.35L28.80 53.35C28.73 55.80 28.66 58.18 28.51 60.41L21.89 60.41L21.89 65.59L28.15 65.59C27.22 73.94 25.06 80.64 19.87 85.18C21.10 86.11 22.82 88.06 23.54 89.35C29.88 83.74 32.62 75.67 33.77 65.59L38.38 65.59C38.02 77.69 37.58 82.15 36.72 83.30C36.29 83.95 35.78 84.10 35.06 84.10C34.20 84.10 32.76 84.10 30.89 83.88C31.68 85.25 32.18 87.55 32.26 89.14C34.34 89.21 36.50 89.21 37.73 88.99C39.38 88.78 40.46 88.27 41.40 86.90C42.91 84.96 43.42 78.98 43.92 62.78C43.99 62.06 43.99 60.41 43.99 60.41ZM57.82 60.41C57.96 58.10 58.03 55.66 58.10 53.14L52.20 53.14C52.13 55.66 52.06 58.10 51.91 60.41L45.65 60.41L45.65 65.59L51.48 65.59C50.54 73.87 48.31 80.35 42.91 84.82C44.28 85.75 45.94 87.77 46.66 89.06C53.21 83.52 56.09 75.67 57.31 65.59L62.42 65.59C62.06 77.69 61.63 82.01 60.77 83.16C60.34 83.81 59.83 83.95 58.97 83.95C58.18 83.95 56.45 83.95 54.50 83.66C55.30 85.18 55.80 87.48 55.94 89.14C58.25 89.21 60.48 89.21 61.85 88.99C63.50 88.78 64.58 88.27 65.66 86.90C67.10 84.89 67.61 78.91 68.04 62.86C68.11 62.06 68.11 60.41 68.11 60.41Z"/></svg>
