<svg xmlns="http://www.w3.org/2000/svg" xmlns:xlink="http://www.w3.org/1999/xlink" width="72.00000000000001" height="106.56000000000002"><path fill="red" stroke="red" d="M68.69 33.05L48.60 33.05L52.63 31.03C51.62 28.73 49.54 25.27 47.74 22.61L42.05 25.20C43.56 27.58 45.22 30.74 46.30 33.05L28.08 33.05L28.08 39.17L68.69 39.17ZM52.34 43.20C56.66 47.88 61.99 54.29 64.44 58.25L69.62 54.43C67.03 50.47 61.56 44.35 57.24 39.89ZM18.65 35.86L18.65 64.22L11.52 64.22L11.52 35.86ZM24.84 70.42L24.84 29.66L5.40 29.66L5.40 77.04L11.52 77.04L11.52 70.42ZM54.07 53.57C52.49 58.82 50.26 63.50 47.16 67.61C44.14 63.50 41.69 58.90 39.96 53.93L34.13 55.51C37.37 51.62 40.68 46.66 43.13 42.05L36.86 40.18C34.13 45.50 29.81 51.34 25.63 55.15C27.14 56.02 29.74 58.03 30.89 59.11C31.97 58.10 33.05 56.88 34.06 55.51C36.36 61.92 39.31 67.61 42.91 72.43C37.87 77.47 31.54 81.36 23.83 84.24C25.27 85.46 27.07 87.84 27.94 89.35C35.50 86.26 41.83 82.30 47.02 77.33C51.98 82.58 58.10 86.62 65.30 89.28C66.24 87.48 68.18 84.96 69.70 83.59C62.42 81.36 56.30 77.47 51.34 72.43C55.15 67.61 58.18 61.92 60.19 55.30Z"/></svg>
