<svg xmlns="http://www.w3.org/2000/svg" xmlns:xlink="http://www.w3.org/1999/xlink" width="72.00000000000001" height="106.56000000000002"><path fill="red" stroke="red" d="M49.54 44.28L22.54 44.28L22.54 32.54L49.54 32.54ZM56.38 26.14L16.13 26.14L16.13 50.69L56.38 50.69ZM25.42 64.08L25.42 79.06L12.31 79.06L12.31 64.08ZM5.98 89.21L12.31 89.21L12.31 85.46L25.42 85.46L25.42 88.70L32.04 88.70L32.04 57.67L5.98 57.67ZM45.50 79.06L45.50 64.08L59.76 64.08L59.76 79.06ZM39.10 57.67L39.10 89.21L45.50 89.21L45.50 85.46L59.76 85.46L59.76 88.85L66.46 88.85L66.46 57.67Z"/></svg>
