<svg xmlns="http://www.w3.org/2000/svg" xmlns:xlink="http://www.w3.org/1999/xlink" width="72.00000000000001" height="106.56000000000002"><path fill="red" stroke="red" d="M17.86 35.86L17.86 64.22L11.09 64.22L11.09 35.86ZM23.54 29.59L5.40 29.59L5.40 77.04L11.09 77.04L11.09 70.42L23.54 70.42ZM40.75 65.16C39.89 63.50 38.95 61.78 37.94 60.05C40.54 58.25 42.84 56.16 44.93 54.22C45.50 55.94 46.01 57.74 46.44 59.47C44.93 61.42 42.91 63.29 40.75 65.16ZM64.22 40.61C60.70 44.14 55.30 48.38 50.47 51.70C48.89 47.88 46.73 44.28 43.92 41.11C46.37 39.02 48.74 36.65 50.62 34.27L68.11 34.27L68.11 27.94L27.07 27.94L27.07 34.27L42.70 34.27C37.66 39.24 30.74 43.56 24.12 46.37C25.42 47.52 27.36 50.26 28.22 51.55C31.97 49.68 35.86 47.38 39.53 44.64C40.68 46.08 41.69 47.59 42.55 49.18C40.68 51.19 38.09 53.42 35.21 55.44C34.49 54.43 33.84 53.35 33.19 52.34L28.66 54.94C29.38 56.02 30.02 57.17 30.74 58.39C28.44 59.69 25.99 60.91 23.83 61.78C25.13 62.93 26.64 65.30 27.50 66.74C29.45 65.81 31.46 64.58 33.48 63.22C34.49 65.02 35.42 66.82 36.22 68.62C32.18 71.35 27.72 73.73 23.62 75.24C24.91 76.54 26.42 78.91 27.22 80.42C30.82 78.77 34.70 76.39 38.45 73.80C39.02 75.46 39.53 76.97 39.89 78.34L44.86 75.38C44.42 73.80 43.85 72.14 43.06 70.27C44.64 68.90 46.01 67.68 47.38 66.31C47.74 73.01 46.51 78.55 44.64 80.35C43.49 81.94 42.34 82.22 40.61 82.22C39.10 82.22 36.72 82.15 34.20 81.94C35.35 83.74 35.86 86.33 35.93 88.13C37.94 88.27 40.39 88.27 41.83 88.27C45.36 88.20 47.45 87.41 49.61 85.03C53.71 81.29 55.58 68.98 52.27 57.10C53.28 56.52 54.36 55.80 55.44 55.15C57.38 65.66 60.62 75.96 65.52 81.58C66.53 79.99 68.62 77.69 70.06 76.54C65.38 71.71 61.85 61.70 60.12 52.06C63.14 49.97 66.24 47.74 68.90 45.65Z"/></svg>
