<svg xmlns="http://www.w3.org/2000/svg" xmlns:xlink="http://www.w3.org/1999/xlink" width="72.00000000000001" height="106.56000000000002"><path fill="red" stroke="red" d="M32.40 36.79L10.87 36.79L10.87 41.62L61.78 41.62L61.78 36.79L39.17 36.79L39.17 32.69L66.24 32.69L66.24 27.86L39.17 27.86L39.17 22.97L32.40 22.97L32.40 27.86L5.90 27.86L5.90 32.69L32.40 32.69ZM52.85 76.39L52.85 82.37L19.44 82.37L19.44 76.39ZM12.82 89.21L19.44 89.21L19.44 87.12L52.85 87.12L52.85 89.14L59.69 89.14L59.69 71.78L12.82 71.78ZM46.08 58.18C45.43 59.76 44.57 61.63 43.78 63.22L27.86 63.22C27.43 61.70 26.57 59.83 25.49 58.18ZM20.52 49.03L51.55 49.03L51.55 53.86L20.52 53.86ZM50.62 63.22C51.55 61.78 52.63 60.12 53.71 58.39L52.49 58.18L58.32 58.18L58.32 44.71L14.11 44.71L14.11 58.18L21.74 58.18L18.86 58.97C19.66 60.19 20.38 61.78 20.95 63.22L3.60 63.22L3.60 68.40L68.40 68.40L68.40 63.22Z"/></svg>
