<svg xmlns="http://www.w3.org/2000/svg" xmlns:xlink="http://www.w3.org/1999/xlink" width="72.00000000000001" height="106.56000000000002"><path fill="red" stroke="red" d="M61.85 40.75C59.18 39.38 55.73 37.87 51.91 36.43C56.09 33.98 59.62 30.89 62.06 27.22L58.10 25.06L57.10 25.27L29.66 25.27L29.66 30.17L52.13 30.17C50.26 31.61 48.02 32.98 45.65 34.20C41.98 32.90 38.16 31.75 34.42 30.82L31.10 34.34C33.84 35.06 36.58 35.93 39.24 36.79C35.35 38.09 31.25 39.17 27.22 39.82C28.37 40.90 29.74 42.91 30.38 44.14C35.78 43.06 41.26 41.47 46.30 39.31C50.69 41.04 54.58 42.91 57.53 44.57ZM43.78 59.11C42.48 58.10 40.90 57.02 39.10 56.02C41.69 53.21 43.85 49.82 45.22 46.01L41.69 44.50L40.75 44.71L24.77 44.71L24.77 49.39L37.80 49.39C36.86 50.90 35.78 52.20 34.49 53.50C32.33 52.34 30.02 51.26 27.86 50.40L24.77 53.86C26.71 54.65 28.80 55.66 30.67 56.74C28.44 58.32 25.99 59.69 23.47 60.55C24.55 61.56 26.06 63.50 26.71 64.66C29.74 63.43 32.76 61.63 35.42 59.54C37.08 60.55 38.59 61.70 39.82 62.71ZM16.70 35.35L16.70 62.86L10.66 62.86L10.66 35.35ZM22.39 68.83L22.39 29.38L5.18 29.38L5.18 74.52L10.66 74.52L10.66 68.83ZM35.78 73.51C32.83 77.98 27.14 82.44 21.53 84.53C22.82 85.68 24.55 87.77 25.49 89.14C31.32 86.40 37.22 80.86 40.54 75.10ZM67.97 71.71L67.97 66.46L48.60 66.46L48.60 62.64C49.03 63.22 49.46 63.79 49.75 64.30C52.27 63.14 54.72 61.70 57.10 59.90C59.47 61.49 61.63 63.07 63.36 64.44L67.32 60.55C65.59 59.26 63.50 57.82 60.98 56.45C63.79 53.57 66.02 50.04 67.46 46.01L63.86 44.50L62.86 44.71L46.87 44.71L46.87 49.39L59.98 49.39C58.97 50.98 57.74 52.49 56.30 53.86C54.00 52.70 51.55 51.55 49.25 50.69L46.15 54.22C48.10 55.08 50.18 56.09 52.13 57.10C50.33 58.39 48.38 59.40 46.44 60.05C46.80 60.41 47.16 60.84 47.52 61.34L42.55 61.34L42.55 66.46L24.26 66.46L24.26 71.71L42.55 71.71L42.55 89.06L48.60 89.06L48.60 71.71ZM50.83 75.96C55.73 79.99 61.49 85.82 64.30 89.50L69.05 86.54C66.17 82.87 60.19 77.26 55.37 73.37Z"/></svg>
