<svg xmlns="http://www.w3.org/2000/svg" xmlns:xlink="http://www.w3.org/1999/xlink" width="72.00000000000001" height="106.56000000000002"><path fill="red" stroke="red" d="M33.26 34.56L52.49 34.56C48.10 35.86 40.90 37.01 34.63 37.73C35.06 38.59 35.64 39.96 35.86 40.82C38.59 40.61 41.40 40.25 44.21 39.82L44.21 46.58L39.24 46.58L42.12 45.43C41.76 44.06 40.82 42.19 39.96 40.75L36.65 41.98C37.37 43.42 38.30 45.22 38.59 46.58L34.85 46.58L34.85 50.69L42.55 50.69C40.10 53.78 36.58 56.88 33.48 58.54C34.49 59.26 35.93 60.84 36.65 61.92C39.17 60.19 41.98 57.46 44.21 54.58L44.21 61.85L48.74 61.85L48.74 54.94C51.12 56.88 53.93 59.40 55.22 60.77L57.74 57.02C56.30 55.94 50.83 52.13 48.82 50.69L58.39 50.69L58.39 46.58L53.35 46.58C54.29 45.07 55.37 43.20 56.66 41.04L52.70 39.67C52.20 41.26 51.05 43.70 50.18 45.43L53.06 46.58L48.74 46.58L48.74 39.17C51.77 38.59 54.58 37.87 56.95 37.15L53.71 34.56L59.90 34.56L59.90 59.33C59.90 59.90 59.76 60.05 59.18 60.12C58.68 60.12 57.38 60.12 55.87 60.05C56.52 61.27 57.46 63.22 57.82 64.58C60.34 64.58 62.35 64.51 63.79 63.72C65.30 62.86 65.66 61.70 65.66 59.33L65.66 29.66L47.95 29.66C48.82 27.86 49.68 25.92 50.54 23.98L43.27 23.04C42.91 24.91 42.26 27.50 41.47 29.66L27.65 29.66L27.65 64.22L33.26 64.22ZM17.35 33.55L17.35 66.24L10.80 66.24L10.80 33.55ZM22.82 71.64L22.82 28.22L5.47 28.22L5.47 78.26L10.80 78.26L10.80 71.64ZM68.54 85.18C64.87 81.86 57.74 76.46 52.78 72.65L48.60 76.25C53.78 80.28 60.84 85.97 64.22 89.35ZM68.98 67.18L49.18 67.18C49.39 65.95 49.54 64.73 49.68 63.36L43.56 63.36C43.42 64.73 43.20 65.95 42.98 67.18L23.90 67.18L23.90 72.65L41.33 72.65C38.74 78.12 33.41 81.79 21.53 83.95C22.75 85.18 24.26 87.70 24.84 89.21C39.02 86.18 45.07 80.86 47.81 72.65L68.98 72.65Z"/></svg>
