<svg xmlns="http://www.w3.org/2000/svg" xmlns:xlink="http://www.w3.org/1999/xlink" width="72.00000000000001" height="106.56000000000002"><path fill="red" stroke="red" d="M61.92 63.43L61.92 54.72C63.72 56.74 65.74 58.97 66.67 60.34L69.34 56.16C68.18 55.08 63.94 51.41 61.92 49.82L61.92 48.53L67.90 48.53L67.90 43.99L61.92 43.99L61.92 39.10C63.94 38.52 65.88 37.87 67.54 37.15L64.15 33.34C60.84 34.92 55.15 36.36 50.33 37.37L50.47 37.30L47.09 33.48C43.78 34.92 38.02 36.36 33.12 37.22C33.70 38.30 34.34 39.96 34.56 41.04C36.29 40.82 38.16 40.46 40.03 40.10L40.03 43.92L33.77 43.92L33.77 48.46L38.95 48.46C37.15 51.84 34.49 55.37 32.11 57.53C32.90 58.75 33.84 61.06 34.34 62.42C36.29 60.48 38.30 57.53 40.03 54.43L40.03 63.58L44.64 63.58L44.64 54.36C46.08 55.73 47.45 57.38 48.17 58.32L50.76 54.29C49.90 53.42 46.30 50.69 44.64 49.61L44.64 48.46L49.97 48.46L49.97 43.92L44.64 43.92L44.64 39.17C46.58 38.66 48.38 38.09 50.04 37.51C50.54 38.59 51.19 40.18 51.48 41.18C53.28 40.90 55.37 40.61 57.31 40.18L57.31 43.99L51.26 43.99L51.26 48.53L56.16 48.53C54.36 51.98 51.70 55.44 49.25 57.46C50.04 58.68 50.98 60.84 51.41 62.21C53.50 60.26 55.58 57.46 57.31 54.29L57.31 63.43ZM17.14 35.86L17.14 64.22L10.66 64.22L10.66 35.86ZM22.03 70.42L22.03 29.66L5.40 29.66L5.40 77.04L10.66 77.04L10.66 70.42ZM31.61 31.82L68.47 31.82L68.47 26.21L25.99 26.21L25.99 51.84C25.99 62.28 25.56 76.18 20.09 85.82C21.53 86.40 23.98 88.06 25.06 88.92C30.74 78.70 31.61 62.93 31.61 51.84ZM54.50 74.30L66.53 74.30L66.53 69.05L54.50 69.05L54.50 63.94L49.03 63.94L49.03 81.14L42.34 81.14L42.34 67.03L36.72 67.03L36.72 81.14L30.38 81.14L30.38 86.62L68.98 86.62L68.98 81.14L54.50 81.14Z"/></svg>
