<svg xmlns="http://www.w3.org/2000/svg" xmlns:xlink="http://www.w3.org/1999/xlink" width="72.00000000000001" height="106.56000000000002"><path fill="red" stroke="red" d="M26.42 65.02C23.54 66.02 20.74 67.10 18.00 68.11L18.00 46.73L26.78 46.73L26.78 40.39L18.00 40.39L18.00 23.98L11.81 23.98L11.81 40.39L3.89 40.39L3.89 46.73L11.81 46.73L11.81 70.27C8.35 71.50 5.26 72.50 2.74 73.37L4.90 80.21C11.45 77.69 19.73 74.38 27.58 71.14ZM49.18 46.87C54.29 51.70 60.48 58.39 63.36 62.50L68.54 58.25C65.30 54.00 58.61 47.45 53.50 42.70L49.18 46.08L49.18 42.34C50.90 39.67 52.34 36.94 53.71 33.98L67.18 33.98L67.18 27.72L27.14 27.72L27.14 33.98L46.37 33.98C41.40 44.14 33.41 52.85 24.19 58.32C25.63 59.54 28.01 62.14 29.02 63.58C33.84 60.26 38.45 56.09 42.62 51.26L42.62 80.71L25.20 80.71L25.20 86.98L68.40 86.98L68.40 80.71L49.18 80.71Z"/></svg>
