<svg xmlns="http://www.w3.org/2000/svg" xmlns:xlink="http://www.w3.org/1999/xlink" width="72.00000000000001" height="106.56000000000002"><path fill="red" stroke="red" d="M35.28 75.31L35.28 69.62L22.97 69.62L22.97 63.29L33.34 63.29L33.34 57.60L27.79 57.60C28.87 55.01 30.02 51.84 31.25 48.89L25.56 47.45C24.84 50.40 23.54 54.72 22.32 57.60L12.31 57.60L16.49 56.02C15.98 53.64 14.47 49.97 12.82 47.23L34.85 47.23L34.85 41.54L22.75 41.54L22.75 35.71L32.76 35.71L32.76 30.10L22.75 30.10L22.75 23.11L16.56 23.11L16.56 30.10L6.12 30.10L6.12 35.71L16.56 35.71L16.56 41.54L3.67 41.54L3.67 47.23L12.10 47.23L7.92 48.74C9.43 51.41 10.80 55.08 11.30 57.60L5.76 57.60L5.76 63.29L16.78 63.29L16.78 69.62L3.60 69.62L3.60 75.31L16.78 75.31L16.78 88.99L22.97 88.99L22.97 75.31ZM49.46 37.01L49.46 23.26L43.27 23.26L43.27 37.01L35.64 37.01L35.64 43.20L43.27 43.20L43.27 45.07C43.27 48.60 43.20 52.42 42.77 56.30C40.97 54.94 39.02 53.50 37.30 52.27L33.55 56.88C36.14 58.82 39.02 61.06 41.69 63.36C40.03 71.21 36.72 79.06 30.02 85.25C31.54 86.18 34.06 88.13 35.14 89.35C41.47 83.38 45.00 75.96 47.02 68.26C49.03 70.42 50.83 72.36 52.06 74.09L56.16 68.90C54.36 66.53 51.62 63.79 48.46 60.98C49.25 55.58 49.46 50.04 49.46 45.07L49.46 43.27L55.94 43.27C55.87 66.10 55.87 86.11 62.78 88.42C66.74 90.00 69.55 87.34 70.06 76.25C69.05 75.53 67.32 73.30 66.24 71.78C66.02 77.18 65.66 82.15 65.16 82.01C61.78 81.14 61.92 58.68 62.35 37.01Z"/></svg>
