<svg xmlns="http://www.w3.org/2000/svg" xmlns:xlink="http://www.w3.org/1999/xlink" width="72.00000000000001" height="106.56000000000002"><path fill="red" stroke="red" d="M66.60 31.10L50.54 31.10C50.04 28.66 49.18 25.42 48.24 22.75L42.19 23.76C42.91 25.92 43.63 28.80 44.06 31.10L27.36 31.10L27.36 37.08L66.60 37.08ZM41.33 48.82C40.75 45.72 39.17 41.04 37.51 37.44L32.04 39.10C33.70 42.70 35.14 47.52 35.57 50.69ZM17.21 68.11L17.21 46.73L24.84 46.73L24.84 40.39L17.21 40.39L17.21 23.98L11.23 23.98L11.23 40.39L3.24 40.39L3.24 46.73L11.23 46.73L11.23 70.34C7.99 71.50 5.11 72.58 2.66 73.37L4.75 80.21C10.94 77.69 18.86 74.45 26.28 71.28L25.06 65.16ZM56.95 68.47L56.95 80.42L36.72 80.42L36.72 68.47ZM30.60 89.14L36.72 89.14L36.72 86.33L56.95 86.33L56.95 88.85L63.29 88.85L63.29 62.50L30.60 62.50ZM57.17 50.98C58.68 47.38 60.41 42.84 61.85 38.81L55.66 37.15C54.72 41.33 52.78 47.02 51.12 50.98L24.62 50.98L24.62 57.02L68.98 57.02L68.98 50.98Z"/></svg>
