<svg xmlns="http://www.w3.org/2000/svg" xmlns:xlink="http://www.w3.org/1999/xlink" width="72.00000000000001" height="106.56000000000002"><path fill="red" stroke="red" d="M35.14 56.52L35.14 61.20L66.38 61.20L66.38 56.52L52.85 56.52L52.85 51.91L63.79 51.91L63.79 47.23L52.85 47.23L52.85 42.91L46.44 42.91L46.44 47.23L37.08 47.23L37.08 51.91L46.44 51.91L46.44 56.52ZM66.31 37.37L39.10 37.37L39.10 32.90L60.41 32.90L60.41 28.15L39.10 28.15L39.10 22.97L32.40 22.97L32.40 28.15L12.10 28.15L12.10 32.90L32.40 32.90L32.40 37.37L5.98 37.37L5.98 42.41L66.31 42.41ZM33.55 55.87L23.54 56.45L23.54 51.91L33.26 51.91L33.26 47.23L23.54 47.23L23.54 42.91L17.14 42.91L17.14 47.23L7.56 47.23L7.56 51.91L17.14 51.91L17.14 56.81C12.38 57.10 8.14 57.31 4.68 57.46L5.62 62.57C13.03 62.06 23.47 61.34 33.48 60.55ZM51.12 82.51C48.31 82.51 47.88 82.30 47.88 80.35L47.88 70.49L67.75 70.49L67.75 65.23L4.32 65.23L4.32 70.49L22.03 70.49C20.66 77.54 17.28 81.43 2.74 83.52C4.10 84.89 5.83 87.62 6.34 89.35C23.04 86.33 27.43 80.42 29.09 70.49L41.11 70.49L41.11 80.42C41.11 86.76 42.84 88.63 50.18 88.63L60.26 88.63C66.24 88.63 68.11 86.40 68.90 77.04C66.96 76.61 64.15 75.53 62.78 74.45C62.50 81.58 62.14 82.51 59.69 82.51Z"/></svg>
