<svg xmlns="http://www.w3.org/2000/svg" xmlns:xlink="http://www.w3.org/1999/xlink" width="72.00000000000001" height="106.56000000000002"><path fill="red" stroke="red" d="M43.63 37.66L49.75 37.66L49.75 32.98L66.31 32.98L66.31 28.22L49.75 28.22L49.75 23.11L43.63 23.11L43.63 28.22L27.22 28.22L27.22 32.98L43.63 32.98ZM33.91 48.02L39.89 48.02L39.89 44.28L53.64 44.28L53.64 48.02L59.76 48.02L59.76 44.28L69.19 44.28L69.19 39.38L59.76 39.38L59.76 35.14L53.64 35.14L53.64 39.38L39.89 39.38L39.89 35.14L33.91 35.14L33.91 39.38L25.06 39.38L25.06 44.28L33.91 44.28ZM25.13 61.92L17.78 65.02L17.78 46.66L24.34 46.66L24.34 40.32L17.78 40.32L17.78 24.05L11.66 24.05L11.66 40.32L3.89 40.32L3.89 46.66L11.66 46.66L11.66 67.61C8.21 69.05 5.04 70.27 2.45 71.21L4.54 77.90C10.94 75.10 19.01 71.50 26.50 68.04ZM35.78 69.41L57.82 69.41L57.82 73.15L35.78 73.15ZM35.78 61.56L57.82 61.56L57.82 65.23L35.78 65.23ZM35.78 53.71L57.82 53.71L57.82 57.38L35.78 57.38ZM64.37 77.54L64.37 49.32L29.45 49.32L29.45 77.54L37.15 77.54C33.19 80.28 26.71 82.94 20.95 84.60C22.46 85.68 24.84 88.13 25.99 89.42C31.82 87.19 39.10 83.45 43.70 79.70L38.02 77.54L53.21 77.54L49.46 80.42C54.65 83.16 60.34 86.76 63.58 89.21L69.41 85.68C66.02 83.30 60.19 80.14 55.08 77.54Z"/></svg>
