<svg xmlns="http://www.w3.org/2000/svg" xmlns:xlink="http://www.w3.org/1999/xlink" width="72.00000000000001" height="106.56000000000002"><path fill="red" stroke="red" d="M32.47 36.86L10.51 36.86L10.51 41.69L61.63 41.69L61.63 36.86L39.24 36.86L39.24 32.83L67.46 32.83L67.46 27.72L39.24 27.72L39.24 23.11L32.47 23.11L32.47 27.72L4.68 27.72L4.68 32.83L32.47 32.83ZM66.17 57.38L66.17 45.07L5.76 45.07L5.76 57.38L11.95 57.38L11.95 50.11L59.69 50.11L59.69 57.38ZM55.87 57.82L55.87 53.50L15.70 53.50L15.70 57.82ZM45.43 75.67C44.78 77.47 43.85 79.85 42.98 81.79L29.30 81.79C28.73 80.06 27.50 77.54 26.28 75.67ZM20.09 65.81L51.19 65.81L51.19 71.14L20.09 71.14ZM49.68 81.79C50.54 80.28 51.48 78.48 52.34 76.68L47.38 75.67L57.96 75.67L57.96 61.27L13.68 61.27L13.68 75.67L24.55 75.67L19.94 76.54C20.88 78.05 21.89 80.14 22.46 81.79L3.96 81.79L3.96 87.19L68.26 87.19L68.26 81.79Z"/></svg>
