<svg xmlns="http://www.w3.org/2000/svg" xmlns:xlink="http://www.w3.org/1999/xlink" width="72.00000000000001" height="106.56000000000002"><path fill="red" stroke="red" d="M39.10 74.74L59.83 74.74L59.83 69.26L39.10 69.26L39.10 64.73L32.47 64.73L32.47 69.26L12.17 69.26L12.17 74.74L32.47 74.74L32.47 81.50L5.69 81.50L5.69 87.19L66.74 87.19L66.74 81.50L39.10 81.50ZM39.10 46.80L39.10 41.18L32.47 41.18L32.47 46.80L22.18 46.80C25.78 43.63 28.66 40.18 31.10 36.58L41.33 36.58C43.70 40.32 46.73 43.78 50.11 46.80ZM67.32 36.58L67.32 30.53L34.56 30.53C35.57 28.51 36.43 26.35 37.15 24.26L30.10 23.11C29.30 25.56 28.22 28.08 26.93 30.53L4.90 30.53L4.90 36.58L22.75 36.58C18.07 42.26 11.38 47.45 2.38 51.19C3.82 52.49 5.62 55.15 6.41 56.88C11.81 54.43 16.49 51.48 20.45 48.24L20.45 52.06L32.47 52.06L32.47 57.74L10.15 57.74L10.15 63.22L61.42 63.22L61.42 57.74L39.10 57.74L39.10 52.06L51.77 52.06L51.77 48.17C56.02 51.62 60.77 54.50 65.74 56.38C66.74 54.65 68.76 52.06 70.27 50.76C61.85 48.17 53.78 42.77 48.67 36.58Z"/></svg>
