<svg xmlns="http://www.w3.org/2000/svg" xmlns:xlink="http://www.w3.org/1999/xlink" width="72.00000000000001" height="106.56000000000002"><path fill="red" stroke="red" d="M57.96 56.02C55.87 61.49 52.70 66.38 48.82 70.42C45.14 66.24 42.34 61.34 40.32 56.02ZM21.02 44.06C20.74 50.47 19.87 57.74 17.14 65.09C15.19 63.36 13.18 61.63 11.30 60.12C12.38 55.51 13.61 50.11 14.62 44.50ZM61.99 49.68L60.91 49.90L52.42 49.90L52.42 40.03L67.90 40.03L67.90 33.91L52.42 33.91L52.42 23.11L45.79 23.11L45.79 33.91L30.60 33.91L30.60 37.80L27.00 38.02L27.00 33.12L21.10 33.12L21.10 38.30L15.70 38.59C16.56 33.48 17.28 28.44 17.78 23.76L11.52 23.40C11.09 28.22 10.37 33.55 9.58 38.88L2.74 39.17L3.46 45.22L8.42 44.86C7.20 51.41 5.83 57.53 4.46 62.06C7.56 64.80 11.09 67.90 14.40 71.06C11.74 75.96 7.92 80.71 2.66 85.03C4.18 85.97 6.34 87.98 7.42 89.35C12.46 85.10 16.20 80.42 19.01 75.53C21.38 78.05 23.40 80.28 24.91 82.30L29.16 77.04C27.43 74.88 24.91 72.22 21.96 69.48C25.63 60.55 26.71 51.41 26.93 43.70L31.03 43.42L31.03 40.03L45.79 40.03L45.79 49.90L31.68 49.90L31.68 56.02L35.50 56.02L33.91 56.45C36.36 63.43 39.82 69.55 43.99 74.74C38.88 78.70 32.90 81.65 26.57 83.38C27.86 84.82 29.52 87.62 30.24 89.42C36.94 87.12 43.20 83.88 48.60 79.49C53.35 83.74 58.90 87.05 65.45 89.28C66.38 87.48 68.26 84.89 69.84 83.52C63.58 81.72 58.03 78.84 53.50 75.02C59.33 68.83 63.79 61.13 66.31 51.41Z"/></svg>
