<svg xmlns="http://www.w3.org/2000/svg" xmlns:xlink="http://www.w3.org/1999/xlink" width="72.00000000000001" height="106.56000000000002"><path fill="red" stroke="red" d="M17.78 43.34C17.64 49.97 16.92 57.74 14.40 65.52C12.74 63.86 11.09 62.28 9.50 60.70C10.58 55.87 11.74 50.04 12.67 43.99ZM23.40 75.46C22.18 73.80 20.38 71.86 18.36 69.70C21.89 60.34 22.75 50.76 22.90 42.77L25.78 42.41L25.78 37.66L22.90 37.80L22.90 33.19L17.86 33.19L17.86 38.09L13.54 38.30C14.33 33.12 14.90 28.08 15.34 23.47L10.15 23.26C9.86 27.94 9.22 33.26 8.42 38.59L2.66 38.81L3.31 45.07L7.56 44.57C6.48 51.34 5.11 57.82 3.96 62.50C6.48 65.09 9.43 68.11 12.17 71.21C9.86 75.96 6.70 80.78 2.30 85.18C3.60 85.90 5.40 87.62 6.26 88.78C10.44 84.53 13.54 79.99 15.91 75.31C17.28 77.04 18.58 78.48 19.51 79.85ZM34.78 60.19C34.99 57.38 35.06 54.65 35.06 52.20L35.06 49.03L40.18 49.03C40.18 53.21 40.18 56.95 40.18 60.19ZM35.06 32.40L40.25 32.40L40.25 43.27L35.06 43.27ZM45.58 26.50L24.77 26.50L24.77 32.40L29.81 32.40L29.81 43.27L25.27 43.27L25.27 49.03L29.81 49.03L29.81 52.20C29.81 54.72 29.74 57.46 29.59 60.19L24.34 60.19L24.34 65.95L28.94 65.95C27.86 72.79 25.56 79.70 20.66 85.18C21.82 85.97 23.83 88.06 24.55 89.28C30.38 82.87 33.05 74.30 34.20 65.95L40.10 65.95C39.96 76.10 39.60 80.50 38.95 81.79C38.38 83.02 37.87 83.23 37.08 83.23C35.93 83.23 33.91 83.23 31.68 83.02C32.62 84.74 33.12 87.34 33.34 89.06C35.78 89.14 38.02 89.14 39.82 88.85C41.62 88.56 42.77 87.84 43.92 85.75C45.65 82.73 45.50 69.55 45.58 29.59ZM64.66 25.99L63.79 26.28L49.03 26.28L49.03 89.06L54.72 89.06L54.72 31.46L62.06 31.46C60.70 37.08 58.75 45.50 56.95 51.41C61.42 57.60 62.35 62.86 62.35 67.18C62.35 69.62 61.99 71.71 61.13 72.58C60.55 73.01 59.83 73.30 59.11 73.30C58.32 73.37 57.24 73.37 56.02 73.22C56.95 74.81 57.31 77.33 57.38 78.91C58.75 78.98 60.26 78.91 61.42 78.77C62.93 78.55 64.08 78.12 65.09 77.40C67.03 75.82 67.90 72.50 67.90 68.04C67.82 63.07 66.89 57.38 62.35 50.83C64.44 44.50 66.89 35.42 68.83 28.51Z"/></svg>
