<svg xmlns="http://www.w3.org/2000/svg" xmlns:xlink="http://www.w3.org/1999/xlink" width="72.00000000000001" height="106.56000000000002"><path fill="red" stroke="red" d="M19.58 43.92C19.51 50.47 18.86 58.25 15.98 65.88C14.11 64.08 12.10 62.28 10.22 60.62C11.30 55.87 12.53 50.18 13.54 44.28ZM28.08 78.62C26.35 76.25 23.62 73.30 20.45 70.27C24.34 60.98 25.13 51.48 25.20 43.56L28.44 43.27L28.44 37.51L25.20 37.73L25.20 33.19L19.58 33.19L19.58 38.02L14.47 38.30C15.19 33.19 15.84 28.22 16.27 23.69L10.58 23.47C10.22 28.15 9.58 33.34 8.78 38.59C6.55 38.66 4.54 38.74 2.66 38.81L3.31 44.93L7.78 44.64C6.62 51.41 5.26 57.74 3.96 62.50C6.91 65.16 10.22 68.33 13.39 71.50C10.87 76.18 7.27 80.64 2.30 84.67C3.67 85.46 5.69 87.48 6.62 88.78C11.38 84.82 14.90 80.42 17.57 75.89C20.30 78.77 22.61 81.58 24.19 83.81ZM37.73 70.63C35.57 75.46 31.25 80.71 27.00 83.38C28.44 84.46 30.46 86.54 31.39 87.98C35.78 84.67 40.25 78.26 42.62 72.29ZM40.25 46.73L55.44 46.73L55.44 52.06L40.25 52.06ZM55.44 36.36L55.44 41.69L40.25 41.69L40.25 36.36ZM67.90 68.76L67.90 63.07L51.48 63.07L51.48 57.53L61.78 57.53L61.78 36.36L67.82 36.36L67.82 30.67L61.78 30.67L61.78 23.11L55.44 23.11L55.44 30.67L40.25 30.67L40.25 23.11L34.20 23.11L34.20 30.67L28.44 30.67L28.44 36.36L34.20 36.36L34.20 57.53L45.00 57.53L45.00 63.07L28.15 63.07L28.15 68.76L45.00 68.76L45.00 89.14L51.48 89.14L51.48 68.76ZM54.00 72.72C57.46 77.40 61.78 83.74 63.72 87.55L68.90 85.10C66.82 81.29 62.42 75.17 58.90 70.63Z"/></svg>
