<svg xmlns="http://www.w3.org/2000/svg" xmlns:xlink="http://www.w3.org/1999/xlink" width="72.00000000000001" height="106.56000000000002"><path fill="red" stroke="red" d="M11.81 35.57L59.83 35.57L59.83 40.97L66.67 40.97L66.67 29.59L41.33 29.59C40.39 27.43 38.95 24.91 37.80 22.90L30.96 24.48C31.75 26.06 32.69 27.79 33.41 29.59L5.26 29.59L5.26 41.76L11.81 41.76ZM9.07 65.02C7.78 70.42 5.62 75.74 2.74 79.34C4.03 80.28 6.41 82.15 7.42 83.23C10.58 79.06 13.32 72.65 14.98 66.38ZM38.02 61.99L38.02 56.16L23.69 56.16L23.69 49.61L35.50 49.61L35.50 43.92L23.69 43.92L23.69 38.81L17.42 38.81L17.42 56.16L3.67 56.16L3.67 61.99L18.50 61.99L18.50 82.37C18.50 83.23 18.29 83.45 17.28 83.45C16.42 83.52 13.32 83.52 10.15 83.45C11.02 85.03 11.81 87.48 12.02 89.14C16.63 89.14 19.80 89.06 21.89 88.13C24.05 87.26 24.62 85.61 24.62 82.51L24.62 61.99ZM39.02 76.54C38.02 73.37 35.21 68.54 32.62 65.02L27.58 67.32C30.02 70.99 32.76 76.03 33.62 79.20ZM58.90 49.39C57.46 56.16 55.01 62.06 51.98 67.18C49.10 61.92 47.02 55.87 45.50 49.39ZM61.99 43.27L60.91 43.49L38.16 43.49L38.16 49.39L41.76 49.39L39.82 49.82C41.69 58.39 44.35 66.10 48.02 72.58C43.78 77.76 38.52 81.58 32.69 83.88C33.91 85.10 35.57 87.55 36.43 89.14C42.12 86.54 47.30 82.87 51.62 78.12C55.15 82.80 59.54 86.69 64.87 89.42C65.81 87.70 67.82 85.18 69.26 84.02C63.79 81.50 59.33 77.69 55.66 72.86C60.62 65.59 64.15 56.23 65.95 44.50Z"/></svg>
