<svg xmlns="http://www.w3.org/2000/svg" xmlns:xlink="http://www.w3.org/1999/xlink" width="72.00000000000001" height="106.56000000000002"><path fill="red" stroke="red" d="M11.38 34.06L60.41 34.06L60.41 40.68L66.89 40.68L66.89 28.44L40.39 28.44C39.74 26.64 38.74 24.55 37.73 22.97L30.96 24.26C31.46 25.56 32.11 27.00 32.69 28.44L5.11 28.44L5.11 40.68L11.38 40.68ZM48.24 46.51L48.24 43.78L59.76 43.78L59.76 38.81L48.24 38.81L48.24 35.42L42.55 35.42L42.55 38.81L37.51 38.81L37.51 43.78L42.55 43.78L42.55 46.51ZM29.38 46.51L29.38 43.78L34.78 43.78L34.78 38.81L29.38 38.81L29.38 35.42L23.76 35.42L23.76 38.81L12.46 38.81L12.46 43.78L23.76 43.78L23.76 46.51ZM19.73 59.76L52.49 59.76L52.49 63.79L19.73 63.79ZM19.73 51.77L52.49 51.77L52.49 55.80L19.73 55.80ZM67.18 76.97L67.18 71.64L37.94 71.64C38.30 70.49 38.59 69.26 38.81 67.97L58.90 67.97L58.90 47.66L13.61 47.66L13.61 67.97L32.47 67.97C32.26 69.34 31.90 70.49 31.46 71.64L4.97 71.64L4.97 76.97L27.86 76.97C23.76 80.57 16.63 82.66 3.31 83.88C4.39 85.18 5.69 87.62 6.05 89.21C23.26 87.19 31.46 83.52 35.57 76.97L38.66 76.97L35.42 80.78C45.00 83.09 58.10 86.83 64.80 89.21L68.40 84.46C61.63 82.22 49.32 78.98 40.10 76.97Z"/></svg>
