<svg xmlns="http://www.w3.org/2000/svg" xmlns:xlink="http://www.w3.org/1999/xlink" width="72.00000000000001" height="106.56000000000002"><path fill="red" stroke="red" d="M16.27 34.13C13.25 42.34 8.57 51.19 3.82 56.88C5.40 57.60 8.42 59.18 9.65 60.12C14.11 54.07 19.22 44.57 22.68 35.78ZM49.75 36.72C54.43 43.85 60.19 53.64 62.78 59.69L68.54 56.30C65.74 50.33 60.05 41.04 55.15 33.91ZM53.93 59.98C44.93 74.23 26.64 80.42 2.45 82.73C3.74 84.38 5.04 87.19 5.62 89.14C30.96 86.11 50.11 78.84 59.98 62.86ZM31.68 23.26L31.68 67.39L38.38 67.39L38.38 23.26Z"/></svg>
