<svg xmlns="http://www.w3.org/2000/svg" xmlns:xlink="http://www.w3.org/1999/xlink" width="72.00000000000001" height="106.56000000000002"><path fill="red" stroke="red" d="M55.51 32.62L55.51 42.12L17.57 42.12L17.57 32.62ZM62.28 48.24L62.28 26.50L10.87 26.50L10.87 46.44C10.87 58.03 10.15 74.38 2.66 85.82C4.39 86.40 7.34 88.20 8.64 89.28C16.06 77.83 17.42 60.62 17.57 48.24ZM38.66 81.50C33.48 81.50 32.54 80.93 32.54 77.83L32.54 65.81L62.42 65.81L62.42 59.98L32.54 59.98L32.54 50.76L25.85 50.76L25.85 77.83C25.85 85.68 28.58 87.77 38.30 87.77L56.09 87.77C64.58 87.77 66.74 84.96 67.75 74.45C65.88 74.02 63.00 72.94 61.42 71.86C60.91 79.99 60.19 81.50 55.73 81.50Z"/></svg>
