<svg xmlns="http://www.w3.org/2000/svg" xmlns:xlink="http://www.w3.org/1999/xlink" width="72.00000000000001" height="106.56000000000002"><path fill="red" stroke="red" d="M17.06 52.34C17.14 50.69 17.14 49.10 17.14 47.59L17.14 45.29L38.52 45.29L38.52 52.34ZM56.81 32.69L56.81 39.38L17.14 39.38L17.14 32.69ZM55.73 81.00L28.15 81.00L28.15 71.57L55.73 71.57ZM67.46 58.39L67.46 52.34L45.22 52.34L45.22 45.29L63.58 45.29L63.58 26.78L10.37 26.78L10.37 47.59C10.37 59.04 9.79 74.81 2.38 85.82C4.10 86.47 7.06 88.27 8.35 89.35C13.97 80.86 16.06 68.98 16.78 58.39L38.52 58.39L38.52 65.66L21.74 65.66L21.74 89.14L28.15 89.14L28.15 86.83L55.73 86.83L55.73 89.06L62.35 89.06L62.35 65.66L45.22 65.66L45.22 58.39Z"/></svg>
