<svg xmlns="http://www.w3.org/2000/svg" xmlns:xlink="http://www.w3.org/1999/xlink" width="72.00000000000001" height="106.56000000000002"><path fill="red" stroke="red" d="M40.61 56.88L40.61 52.27L51.34 52.27C49.32 53.93 47.02 55.44 44.71 56.88ZM55.58 74.30L32.47 74.30L32.47 70.42L55.58 70.42ZM32.47 82.58L32.47 78.41L55.58 78.41L55.58 82.58ZM57.17 31.82L57.17 37.51L16.42 37.51L16.42 31.82ZM67.82 62.14L67.82 56.88L54.29 56.88C58.18 53.93 61.78 50.62 64.80 47.02L59.40 44.50C57.60 46.66 55.51 48.74 53.21 50.69L53.21 47.30L40.61 47.30L40.61 44.06L34.34 44.06L34.34 47.30L20.23 47.30L20.23 52.27L34.34 52.27L34.34 56.88L17.14 56.88L17.14 62.14L35.06 62.14C28.66 65.09 21.74 67.54 14.76 69.41C16.13 61.63 16.42 53.71 16.42 47.23L16.42 42.98L63.86 42.98L63.86 26.35L9.79 26.35L9.79 47.23C9.79 58.68 9.22 74.59 2.30 85.61C4.03 86.26 6.98 87.98 8.21 88.92C11.45 83.66 13.46 77.04 14.69 70.27C15.84 71.64 17.35 73.58 18.00 74.59C20.74 73.73 23.40 72.79 26.06 71.86L26.06 89.06L32.47 89.06L32.47 86.98L55.58 86.98L55.58 89.14L62.28 89.14L62.28 65.74L39.96 65.74C42.19 64.66 44.35 63.36 46.51 62.14Z"/></svg>
