<svg xmlns="http://www.w3.org/2000/svg" xmlns:xlink="http://www.w3.org/1999/xlink" width="72.00000000000001" height="106.56000000000002"><path fill="red" stroke="red" d="M63.79 25.78L56.74 25.78L56.74 34.99L39.31 34.99L39.31 23.04L32.47 23.04L32.47 34.99L15.70 34.99L15.70 25.78L8.93 25.78L8.93 40.97L63.79 40.97ZM55.37 64.66C52.56 68.76 48.67 72.14 44.06 74.88C39.24 72.07 35.28 68.62 32.33 64.66ZM45.14 50.98C44.50 53.50 43.78 56.30 43.06 58.97L23.26 58.97C23.76 56.45 24.26 53.78 24.62 50.98ZM60.48 58.68L59.26 58.97L49.75 58.97C50.90 54.72 52.06 50.11 52.85 45.86L48.10 45.00L47.02 45.29L4.97 45.29L4.97 50.98L17.50 50.98C15.70 65.74 11.30 76.97 1.94 83.66C3.46 84.82 6.12 87.62 7.13 88.92C14.40 83.16 19.08 75.10 21.96 64.66L24.91 64.66C28.15 69.98 32.33 74.52 37.30 78.19C30.96 80.78 23.76 82.44 16.34 83.38C17.42 84.82 18.79 87.55 19.44 89.28C28.01 87.91 36.29 85.61 43.42 82.15C49.54 85.46 56.52 87.77 64.44 89.21C65.45 87.26 67.25 84.46 68.83 82.87C62.06 81.94 55.94 80.28 50.47 78.05C56.66 73.73 61.63 68.11 64.80 60.84Z"/></svg>
