<svg xmlns="http://www.w3.org/2000/svg" xmlns:xlink="http://www.w3.org/1999/xlink" width="72.00000000000001" height="106.56000000000002"><path fill="red" stroke="red" d="M20.59 45.29L45.72 45.29L45.72 56.16L20.59 56.16ZM39.31 62.21L67.90 62.21L67.90 56.16L52.34 56.16L52.34 45.29L64.80 45.29L64.80 39.38L20.59 39.38L20.59 33.41C34.13 32.62 48.89 31.03 59.69 29.09L55.44 23.69C45.29 25.78 28.58 27.36 14.04 28.22L14.04 56.16L3.96 56.16L3.96 62.21L32.54 62.21L32.54 79.63L16.13 79.63L16.13 66.17L9.65 66.17L9.65 85.75L56.45 85.75L56.45 88.78L63.00 88.78L63.00 65.59L56.45 65.59L56.45 79.63L39.31 79.63Z"/></svg>
