<svg xmlns="http://www.w3.org/2000/svg" xmlns:xlink="http://www.w3.org/1999/xlink" width="72.00000000000001" height="106.56000000000002"><path fill="red" stroke="red" d="M50.26 60.34C50.26 60.98 50.11 61.20 49.39 61.20C48.82 61.27 47.16 61.27 45.14 61.20C46.73 57.89 47.52 52.99 47.88 48.17L44.14 47.59C43.85 52.06 43.42 56.45 41.76 59.69C42.41 60.05 43.63 60.70 44.50 61.20L44.42 61.20C45.00 62.42 45.58 64.08 45.72 65.38C49.03 65.38 51.26 65.38 52.78 64.58C54.36 63.79 54.65 62.64 54.65 60.41L54.65 40.90L47.95 40.90L47.95 35.35L54.43 35.35L54.43 30.10L47.95 30.10L47.95 23.54L43.13 23.54L43.13 46.15L50.26 46.15ZM21.74 73.01L18.22 73.01L18.22 24.19L12.96 24.19L12.96 73.01L9.43 73.01L9.43 35.06L4.90 35.06L4.90 78.84L21.74 78.84L21.74 81.94L26.14 81.94L26.14 35.21L21.74 35.21ZM39.38 74.38C36.07 77.76 30.96 81.43 26.71 84.10C27.79 85.25 29.66 88.06 30.38 89.21C34.92 86.04 40.82 81.00 44.78 76.75ZM51.41 78.12C55.73 81.36 61.42 86.04 64.15 88.92L68.11 84.46C65.16 81.65 59.33 77.26 55.08 74.23ZM65.45 67.25C66.02 56.81 66.31 40.32 66.31 28.01L56.02 28.01L56.02 33.26L61.13 33.26C61.13 35.86 61.13 38.59 61.13 41.33L56.30 41.33L56.30 46.51L61.06 46.51C60.98 49.10 60.91 51.77 60.84 54.29L56.30 54.29L56.30 59.47L60.70 59.47C60.62 62.28 60.48 64.94 60.34 67.25L35.71 67.25L35.50 59.18L40.75 59.18L40.75 53.93L35.35 53.93L35.21 46.30L40.75 46.30L40.75 41.04L35.06 41.04L34.92 33.77C37.30 32.62 40.10 31.18 42.34 29.66L38.74 25.13C36.43 26.78 32.33 29.38 29.59 30.60L30.46 67.25L27.79 67.25L27.79 72.94L68.90 72.94L68.90 67.25Z"/></svg>
