<svg xmlns="http://www.w3.org/2000/svg" xmlns:xlink="http://www.w3.org/1999/xlink" width="72.00000000000001" height="106.56000000000002"><path fill="red" stroke="red" d="M64.44 37.44L39.89 37.44L39.89 23.11L32.62 23.11L32.62 37.44L8.50 37.44L8.50 79.06L15.62 79.06L15.62 44.21L32.62 44.21L32.62 89.28L39.89 89.28L39.89 44.21L57.46 44.21L57.46 70.92C57.46 72.14 57.02 72.50 55.73 72.58C54.36 72.58 49.54 72.58 44.86 72.43C45.79 74.16 47.09 77.11 47.45 78.98C53.71 78.98 58.03 78.91 60.84 77.76C63.58 76.75 64.44 74.74 64.44 71.06Z"/></svg>
