<svg xmlns="http://www.w3.org/2000/svg" xmlns:xlink="http://www.w3.org/1999/xlink" width="72.00000000000001" height="106.56000000000002"><path fill="red" stroke="red" d="M29.02 36.50L19.66 36.50L19.66 23.26L13.75 23.26L13.75 36.50L4.61 36.50L4.61 74.52L9.65 74.52L9.65 42.48L13.75 42.48L13.75 89.28L19.66 89.28L19.66 42.48L24.05 42.48L24.05 67.39C24.05 67.97 23.90 68.11 23.47 68.18C22.97 68.18 21.74 68.18 20.23 68.11C21.10 69.62 21.82 72.22 21.89 73.73C24.41 73.73 26.06 73.58 27.36 72.58C28.73 71.57 29.02 69.77 29.02 67.54ZM59.26 58.90L59.26 63.14L39.96 63.14L39.96 58.90ZM39.96 72.29L39.96 67.82L59.26 67.82L59.26 72.29ZM39.96 81.65L39.96 76.97L59.26 76.97L59.26 81.65ZM33.98 89.14L39.96 89.14L39.96 86.83L59.26 86.83L59.26 89.14L65.52 89.14L65.52 53.57L33.98 53.57ZM40.32 49.10L59.04 49.10L59.04 44.57L40.32 44.57ZM59.04 35.42L40.32 35.42L40.32 39.96L59.04 39.96ZM32.04 25.70L32.04 50.47L38.23 50.47L38.23 30.82L60.84 30.82L60.84 50.47L67.32 50.47L67.32 25.70Z"/></svg>
