<svg xmlns="http://www.w3.org/2000/svg" xmlns:xlink="http://www.w3.org/1999/xlink" width="72.00000000000001" height="106.56000000000002"><path fill="red" stroke="red" d="M21.82 66.82L21.82 54.07L36.29 54.07L36.29 66.82ZM68.47 66.82L43.20 66.82L43.20 54.07L63.29 54.07L63.29 47.81L43.20 47.81L43.20 37.87L64.94 37.87L64.94 31.39L23.26 31.39C24.19 29.23 25.20 26.86 26.06 24.62L19.30 22.82C15.98 32.40 10.22 41.54 3.60 47.23C5.26 48.24 8.14 50.40 9.43 51.55C13.10 47.95 16.70 43.20 19.80 37.87L36.29 37.87L36.29 47.81L15.12 47.81L15.12 66.82L3.53 66.82L3.53 73.30L36.29 73.30L36.29 89.21L43.20 89.21L43.20 73.30L68.47 73.30Z"/></svg>
