<svg xmlns="http://www.w3.org/2000/svg" xmlns:xlink="http://www.w3.org/1999/xlink" width="72.00000000000001" height="106.56000000000002"><path fill="red" stroke="red" d="M15.55 35.86L68.11 35.86L68.11 29.88L43.63 29.88C42.62 27.58 41.26 24.77 40.03 22.61L33.19 24.48C33.98 26.06 34.92 28.08 35.64 29.88L9.00 29.88L9.00 49.25C9.00 60.12 8.42 75.67 2.52 86.62C4.25 87.19 7.20 88.63 8.57 89.64C14.69 78.12 15.55 60.91 15.55 49.18ZM43.49 64.22C43.56 62.86 43.63 61.42 43.63 60.05L43.63 58.10L56.95 58.10L56.95 64.22ZM43.63 47.02L56.95 47.02L56.95 52.56L43.63 52.56ZM63.36 58.10L68.83 58.10L68.83 52.56L63.36 52.56L63.36 41.62L43.63 41.62L43.63 37.44L37.15 37.44L37.15 41.62L20.09 41.62L20.09 47.02L37.15 47.02L37.15 52.56L17.35 52.56L17.35 58.10L37.15 58.10L37.15 59.98C37.15 61.34 37.08 62.78 36.94 64.22L19.30 64.22L19.30 69.62L35.57 69.62C33.26 75.53 27.72 80.78 14.62 83.95C16.06 85.32 17.78 87.84 18.58 89.21C31.61 85.68 38.02 80.21 41.04 73.80C45.65 82.08 53.21 87.12 64.80 89.35C65.59 87.55 67.39 84.96 68.76 83.52C57.10 81.94 49.39 77.40 45.36 69.62L63.36 69.62Z"/></svg>
