<svg xmlns="http://www.w3.org/2000/svg" xmlns:xlink="http://www.w3.org/1999/xlink" width="72.00000000000001" height="106.56000000000002"><path fill="red" stroke="red" d="M68.33 36.72L68.33 30.53L43.78 30.53C42.77 28.01 41.40 24.91 39.96 22.32L33.26 24.12C34.20 25.99 35.14 28.37 36.07 30.53L8.21 30.53L8.21 54.72C8.21 64.22 7.85 77.04 2.81 85.75C4.32 86.47 7.34 88.42 8.57 89.64C14.11 80.21 14.98 65.02 14.98 54.72L14.98 36.72ZM28.66 37.80C26.42 45.43 21.67 54.50 15.91 60.05C16.92 61.63 18.29 64.66 18.79 66.31C20.52 64.80 22.10 62.93 23.69 61.06L23.69 89.21L29.95 89.21L29.95 51.41C32.04 47.59 33.84 43.56 35.21 39.67ZM35.86 61.56C38.59 66.02 41.90 72.00 43.42 75.67L49.03 73.01C47.45 69.34 44.21 63.72 41.26 59.33ZM68.40 48.96L60.84 48.96L60.84 38.74L54.22 38.74L54.22 48.96L33.91 48.96L33.91 55.15L54.22 55.15L54.22 81.29C54.22 82.37 53.78 82.66 52.63 82.73C51.55 82.73 47.59 82.80 43.70 82.58C44.64 84.46 45.58 87.41 45.79 89.21C51.41 89.21 55.22 89.06 57.60 87.98C60.05 86.98 60.84 85.10 60.84 81.36L60.84 55.15L68.40 55.15Z"/></svg>
