<svg xmlns="http://www.w3.org/2000/svg" xmlns:xlink="http://www.w3.org/1999/xlink" width="72.00000000000001" height="106.56000000000002"><path fill="red" stroke="red" d="M36.14 80.28C37.15 77.90 38.38 75.17 39.38 72.50L33.77 71.42C33.05 74.16 31.68 77.98 30.46 80.93C24.34 81.65 18.79 82.15 14.54 82.58L15.55 87.98C23.11 87.19 33.55 85.90 43.42 84.67L43.27 79.49ZM26.28 36.86L26.28 41.04L15.55 41.04L15.55 45.79L26.28 45.79L26.28 49.68L16.99 49.68L16.99 54.36L41.62 54.36L41.62 49.68L32.26 49.68L32.26 45.79L43.27 45.79L43.27 41.04L32.26 41.04L32.26 36.86ZM34.92 66.46L23.18 66.46L23.18 61.63L34.92 61.63ZM40.61 57.67L17.78 57.67L17.78 70.42L40.61 70.42ZM26.86 79.49C26.42 77.33 24.91 74.09 23.40 71.64L18.36 72.79C19.73 75.31 21.02 78.70 21.53 80.86ZM63.00 36.94L56.81 36.94L56.81 47.88L43.92 47.88L43.92 53.57L56.81 53.57L56.81 81.94C56.81 83.02 56.45 83.30 55.37 83.30C54.29 83.38 50.69 83.38 47.02 83.23C47.81 84.89 48.67 87.55 48.89 89.21C54.22 89.21 57.74 89.06 59.98 88.13C62.21 87.12 63.00 85.46 63.00 82.01L63.00 53.57L68.98 53.57L68.98 47.88L63.00 47.88ZM54.50 72.00C53.71 68.04 51.34 61.78 48.74 56.95L43.63 58.54C46.01 63.43 48.31 69.84 48.96 73.87ZM42.12 29.66C41.11 27.14 39.38 24.34 37.30 22.10L31.90 24.41C33.26 25.99 34.42 27.86 35.28 29.66L7.78 29.66L7.78 51.41C7.78 61.63 7.42 75.96 2.45 85.90C3.82 86.62 6.48 88.63 7.56 89.78C13.10 78.98 13.97 62.42 13.97 51.41L13.97 35.28L68.98 35.28L68.98 29.66Z"/></svg>
