<svg xmlns="http://www.w3.org/2000/svg" xmlns:xlink="http://www.w3.org/1999/xlink" width="72.00000000000001" height="106.56000000000002"><path fill="red" stroke="red" d="M14.62 33.41L68.18 33.41L68.18 28.15L42.34 28.15C41.69 26.35 40.82 24.19 39.96 22.54L33.34 24.12C33.84 25.34 34.42 26.71 34.92 28.15L8.50 28.15L8.50 49.54C8.50 60.26 7.99 75.10 2.38 85.54C3.67 86.18 6.41 88.20 7.49 89.35C13.61 78.05 14.62 61.06 14.62 49.54ZM25.63 47.16L38.52 47.16L38.52 50.18L27.79 50.69L28.01 55.22L38.59 54.65C38.95 57.53 40.32 59.04 44.78 59.04L58.75 59.04C61.20 59.04 64.01 58.97 65.23 58.61C65.02 57.38 64.94 56.38 64.80 54.86C63.43 55.15 59.98 55.37 58.25 55.37L46.08 55.37C44.21 55.37 43.85 54.79 43.85 53.42L56.45 52.70L56.45 49.54L43.85 50.18L43.85 47.16L60.05 47.16C59.54 48.60 59.04 50.11 58.54 51.26L63.79 52.13C64.94 49.90 66.24 46.51 67.32 43.56L63.07 42.77L61.99 42.91L43.85 42.91L43.85 40.32L63.29 40.32L63.29 36.72L43.85 36.72L43.85 33.91L37.73 33.91L37.73 42.91L19.80 42.91L19.80 55.44C19.80 64.37 19.15 77.04 13.18 86.11C14.54 86.69 17.14 88.20 18.22 89.21C24.48 79.49 25.63 65.30 25.63 55.58ZM34.99 68.18L43.13 68.18L43.13 70.78L34.99 70.78ZM34.99 63.22L43.13 63.22L43.13 65.66L34.99 65.66ZM57.24 65.66L48.24 65.66L48.24 63.22L57.24 63.22ZM57.24 70.78L48.24 70.78L48.24 68.18L57.24 68.18ZM29.95 73.44L62.50 73.44L62.50 60.62L29.95 60.62ZM33.41 79.06L38.88 79.06L38.88 83.88L33.41 83.88ZM48.82 79.06L48.82 83.88L43.34 83.88L43.34 79.06ZM58.97 79.06L58.97 83.88L53.35 83.88L53.35 79.06ZM64.22 83.88L64.22 75.67L28.30 75.67L28.30 83.88L22.97 83.88L22.97 87.91L69.12 87.91L69.12 83.88Z"/></svg>
