<svg xmlns="http://www.w3.org/2000/svg" xmlns:xlink="http://www.w3.org/1999/xlink" width="72.00000000000001" height="106.56000000000002"><path fill="red" stroke="red" d="M17.28 23.33C14.40 28.22 8.50 34.20 3.17 37.80C4.18 39.17 5.83 41.83 6.62 43.42C12.82 39.02 19.58 32.18 23.69 25.78ZM38.16 69.70L54.86 69.70C52.63 72.22 49.82 74.45 46.58 76.25C43.20 74.59 40.03 72.65 37.37 70.49ZM37.22 52.27L57.46 52.27L57.46 56.30L37.22 56.30ZM37.22 43.99L57.46 43.99L57.46 47.88L37.22 47.88ZM60.05 64.37L58.97 64.66L42.55 64.66C43.42 63.50 44.28 62.14 45.00 60.91L63.65 60.91L63.65 39.31L33.05 39.31C33.98 38.09 34.85 36.79 35.71 35.42L67.90 35.42L67.90 30.02L38.66 30.02C39.38 28.22 40.18 26.50 40.82 24.70L34.70 23.18C32.33 30.02 28.15 36.50 23.33 40.82L18.72 38.95C14.76 46.15 8.21 53.42 2.09 58.10C3.24 59.76 4.97 63.36 5.54 64.80C7.70 63.00 10.01 60.77 12.24 58.39L12.24 89.14L19.01 89.14L19.01 50.04C20.95 47.38 22.82 44.64 24.34 41.83C25.78 42.77 27.43 44.14 28.30 44.93C29.30 43.92 30.24 42.84 31.25 41.69L31.25 60.91L38.16 60.91C36.79 62.86 35.14 64.73 33.12 66.53C32.04 65.30 31.03 63.94 30.10 62.64L25.20 64.44C26.42 66.38 27.65 68.11 29.16 69.91C27.00 71.42 24.77 72.72 22.54 73.87C23.83 74.88 26.14 77.04 27.07 78.19C29.16 76.97 31.18 75.60 33.12 74.09C35.28 75.96 37.51 77.76 39.96 79.34C34.42 81.50 28.15 82.94 21.82 83.81C22.97 85.18 24.26 87.84 24.91 89.42C32.54 88.13 39.89 86.04 46.44 82.87C52.06 85.61 58.39 87.70 65.16 88.99C66.02 87.19 67.90 84.46 69.19 83.02C63.50 82.15 58.03 80.86 53.06 78.98C57.82 75.74 61.63 71.64 64.22 66.60Z"/></svg>
