<svg xmlns="http://www.w3.org/2000/svg" xmlns:xlink="http://www.w3.org/1999/xlink" width="72.00000000000001" height="106.56000000000002"><path fill="red" stroke="red" d="M20.23 54.07L51.34 54.07L51.34 58.82L20.23 58.82ZM20.23 44.42L51.34 44.42L51.34 49.10L20.23 49.10ZM20.23 34.85L51.34 34.85L51.34 39.53L20.23 39.53ZM30.02 66.31C33.62 69.62 37.58 74.38 39.17 77.54L44.71 74.23C42.98 71.35 39.38 67.18 36.07 64.08L58.03 64.08L58.03 29.59L37.51 29.59C38.45 27.79 39.67 25.70 40.68 23.54L32.69 22.32C32.26 24.41 31.25 27.36 30.38 29.59L13.75 29.59L13.75 64.08L33.84 64.08ZM9.29 85.82C11.88 81.65 14.33 75.31 16.06 70.63L10.22 68.18C8.57 72.79 5.83 78.91 3.17 82.87ZM30.67 81.86C26.28 81.86 25.49 81.50 25.49 79.49L25.49 68.69L18.79 68.69L18.79 79.63C18.79 86.11 21.10 87.98 30.17 87.98L45.29 87.98C52.70 87.98 54.72 85.75 55.66 76.25C53.78 75.89 50.98 74.88 49.46 73.80C49.10 80.86 48.46 81.86 44.86 81.86ZM54.14 69.41C57.31 74.09 60.62 80.28 61.70 84.38L68.04 81.58C66.82 77.47 63.29 71.42 60.05 66.96Z"/></svg>
