<svg xmlns="http://www.w3.org/2000/svg" xmlns:xlink="http://www.w3.org/1999/xlink" width="72.00000000000001" height="106.56000000000002"><path fill="red" stroke="red" d="M68.40 49.32C66.38 46.01 62.28 41.04 58.46 37.08C61.27 33.48 64.37 29.45 66.74 25.34L60.77 23.83C58.75 27.36 55.08 32.69 51.77 37.15C56.38 42.19 60.77 47.81 62.86 51.70ZM39.74 49.10C38.16 45.86 34.85 41.04 31.61 37.01C33.84 33.48 36.36 29.52 38.38 25.34L32.40 24.05C30.89 27.50 28.01 32.69 25.13 37.08C29.02 42.05 32.47 47.52 34.13 51.26ZM7.42 56.88C9.00 51.55 10.08 43.20 10.37 37.58L6.48 37.01C6.05 42.62 4.82 50.54 3.24 55.51ZM11.95 89.14L17.50 89.14L17.50 23.11L11.95 23.11ZM17.78 36.14C19.22 40.82 20.52 47.02 21.02 50.69L25.49 49.18C24.98 45.65 23.33 39.67 21.89 34.99ZM57.89 75.02C56.16 73.51 53.71 71.64 51.05 69.77C53.14 67.61 55.08 65.23 56.74 62.86L51.77 61.27C50.40 63.29 48.67 65.23 46.87 67.18C44.28 65.52 41.54 64.08 39.10 62.78L35.93 66.17C38.23 67.39 40.82 68.83 43.20 70.42C40.54 72.65 37.58 74.66 34.63 76.25C35.93 77.04 37.94 78.62 38.88 79.56C41.69 77.83 44.57 75.60 47.45 73.22C50.26 75.17 52.78 77.18 54.50 78.84ZM60.05 80.21L33.41 80.21L33.41 60.48L60.05 60.48ZM50.11 50.04L53.93 48.53C52.06 45.36 48.53 40.54 45.07 36.72C47.45 33.19 50.11 29.30 52.20 25.27L46.30 23.83C44.71 27.29 41.54 32.47 38.52 36.79C42.41 41.26 45.86 46.22 47.95 49.82L43.63 49.25C43.20 50.90 42.34 53.14 41.62 55.15L27.29 55.15L27.29 89.28L33.41 89.28L33.41 85.61L60.05 85.61L60.05 88.92L66.46 88.92L66.46 55.15L48.17 55.15C48.89 53.57 49.68 51.91 50.47 50.11Z"/></svg>
