<svg xmlns="http://www.w3.org/2000/svg" xmlns:xlink="http://www.w3.org/1999/xlink" width="72.00000000000001" height="106.56000000000002"><path fill="red" stroke="red" d="M31.61 29.81L31.61 34.06L13.90 34.06L13.90 29.81ZM22.97 53.14L22.97 68.26L28.51 68.26L28.51 53.14L39.89 53.14L39.89 48.89L13.32 48.89C13.75 45.22 13.90 41.62 13.90 38.52L37.73 38.52L37.73 25.34L7.99 25.34L7.99 37.66C7.99 45.50 7.42 56.66 2.52 64.66C3.82 65.30 6.48 67.32 7.49 68.33C10.15 64.01 11.81 58.54 12.67 53.14ZM35.64 45.79L35.64 41.54L16.13 41.54L16.13 45.79ZM31.61 69.12C34.27 71.78 37.30 75.67 38.59 78.19L43.42 74.74C42.05 72.14 38.88 68.54 36.22 66.02ZM52.92 55.37C51.91 51.98 49.03 47.30 46.22 43.70L41.11 45.79C43.92 49.46 46.58 54.43 47.59 57.67ZM30.67 56.38C32.83 58.97 34.99 62.57 35.86 64.87L40.25 63.00C39.38 60.70 37.01 57.17 34.92 54.72ZM16.34 54.94C15.41 58.10 13.75 61.20 11.52 63.50C12.53 64.15 14.40 65.38 15.19 66.10C17.50 63.58 19.66 59.62 20.81 55.94ZM9.22 85.97C11.45 82.01 13.75 75.89 15.41 71.57L9.94 69.26C8.50 73.51 5.98 79.49 3.46 83.23ZM30.53 82.15C26.28 82.15 25.49 81.79 25.49 79.85L25.49 70.13L19.15 70.13L19.15 79.92C19.15 86.18 21.31 87.91 30.10 87.91L45.07 87.91C52.20 87.91 54.07 85.75 54.86 76.39C53.21 76.03 50.47 75.10 49.03 74.09C48.74 81.14 48.10 82.15 44.57 82.15ZM55.01 71.14C57.67 75.46 60.48 81.29 61.56 85.03L67.54 82.58C66.46 78.98 63.43 73.30 60.62 69.05ZM61.34 34.63L61.34 23.40L55.08 23.40L55.08 34.63L39.60 34.63L39.60 40.54L55.08 40.54L55.08 61.92C55.08 62.86 54.79 63.14 53.78 63.14C52.92 63.22 49.97 63.22 46.87 63.14C47.74 64.66 48.74 67.25 49.03 68.90C53.50 68.90 56.59 68.76 58.61 67.75C60.70 66.82 61.34 65.16 61.34 61.99L61.34 40.54L68.33 40.54L68.33 34.63Z"/></svg>
