<svg xmlns="http://www.w3.org/2000/svg" xmlns:xlink="http://www.w3.org/1999/xlink" width="72.00000000000001" height="106.56000000000002"><path fill="red" stroke="red" d="M6.48 56.95C7.99 51.48 9.14 43.20 9.43 37.51L5.40 37.08C4.97 42.70 3.74 50.62 2.23 55.58ZM35.57 43.34L53.57 43.34L53.57 46.51L35.57 46.51ZM53.57 30.24L53.57 33.12L35.57 33.12L35.57 30.24ZM35.57 36.72L53.57 36.72L53.57 39.74L35.57 39.74ZM24.05 47.88L24.05 51.41L53.57 51.41L53.57 54.29L59.69 54.29L59.69 51.41L68.62 51.41L68.62 46.51L59.69 46.51L59.69 30.24L66.89 30.24L66.89 25.49L22.82 25.49L22.82 30.24L29.38 30.24L29.38 46.51L24.77 46.51C23.90 43.27 22.25 38.52 20.74 34.78L16.78 36.22L16.78 23.18L11.23 23.18L11.23 89.21L16.78 89.21L16.78 36.43C18.43 40.61 20.09 46.08 20.74 49.39ZM35.50 63.43L27.79 63.43L27.79 60.26L35.50 60.26ZM27.79 74.09L35.50 74.09L35.50 77.18C32.83 77.40 30.24 77.62 27.79 77.76ZM35.50 70.56L27.79 70.56L27.79 67.03L35.50 67.03ZM19.30 60.26L22.54 60.26L22.54 78.05L18.72 78.26L19.44 83.23C24.12 82.73 29.66 82.15 35.50 81.50L35.50 89.21L40.68 89.21L40.68 60.26L43.56 60.26L43.56 55.58L19.30 55.58ZM60.41 63.50L52.34 63.50L52.34 60.26L60.41 60.26ZM52.34 77.40L52.34 73.94L60.41 73.94L60.41 77.40ZM60.41 70.42L52.34 70.42L52.34 67.03L60.41 67.03ZM68.90 60.26L68.90 55.58L44.71 55.58L44.71 60.26L47.09 60.26L47.09 77.40L44.35 77.40L44.35 82.15L60.41 82.15L60.41 89.21L65.59 89.21L65.59 82.15L68.90 82.15L68.90 77.40L65.59 77.40L65.59 60.26Z"/></svg>
