<svg xmlns="http://www.w3.org/2000/svg" xmlns:xlink="http://www.w3.org/1999/xlink" width="72.00000000000001" height="106.56000000000002"><path fill="red" stroke="red" d="M26.21 55.87L19.01 57.89L19.01 43.42L26.42 43.42L26.42 37.22L19.01 37.22L19.01 23.18L12.46 23.18L12.46 37.22L3.53 37.22L3.53 43.42L12.46 43.42L12.46 59.54C8.78 60.55 5.40 61.42 2.59 62.06L4.39 68.47L12.46 66.17L12.46 81.29C12.46 82.30 12.10 82.58 11.16 82.66C10.30 82.66 7.34 82.66 4.39 82.58C5.18 84.31 6.12 87.05 6.34 88.63C11.16 88.63 14.18 88.49 16.27 87.41C18.29 86.47 19.01 84.74 19.01 81.29L19.01 64.30C21.67 63.50 24.41 62.78 27.07 61.99ZM42.48 81.72C37.87 81.72 37.08 80.93 37.08 76.90L37.08 50.76L45.14 48.10L45.14 73.01L51.41 73.01L51.41 45.94L59.76 43.20C59.69 52.06 59.33 61.99 58.61 68.26L64.22 69.70C65.45 61.34 66.10 48.02 66.24 38.02L66.53 36.86L61.49 35.28L59.83 36.50L51.41 39.24L51.41 23.18L45.14 23.18L45.14 41.40L37.08 43.99L37.08 29.95L30.74 29.95L30.74 46.08L24.05 48.31L26.14 54.43L30.74 52.85L30.74 76.82C30.74 85.46 33.26 87.70 42.12 87.70L58.61 87.70C66.46 87.70 68.47 84.46 69.41 74.52C67.61 74.16 65.02 73.08 63.50 72.07C62.93 79.92 62.21 81.72 58.25 81.72Z"/></svg>
