<svg xmlns="http://www.w3.org/2000/svg" xmlns:xlink="http://www.w3.org/1999/xlink" width="72.00000000000001" height="106.56000000000002"><path fill="red" stroke="red" d="M28.30 59.76L27.43 53.50C24.84 54.29 22.18 55.01 19.58 55.73L19.58 43.27L27.29 43.27L27.29 37.08L19.58 37.08L19.58 23.11L13.03 23.11L13.03 37.08L3.31 37.08L3.31 43.27L13.03 43.27L13.03 57.53C9.00 58.61 5.26 59.54 2.23 60.19L3.89 66.74L13.03 64.15L13.03 81.65C13.03 82.73 12.60 83.02 11.66 83.02C10.73 83.09 7.78 83.09 4.75 82.94C5.62 84.67 6.41 87.41 6.62 89.06C11.52 89.14 14.69 88.92 16.70 87.98C18.86 86.90 19.58 85.10 19.58 81.65L19.58 62.28ZM59.26 51.55C57.38 58.03 54.65 63.79 51.12 68.69C47.59 63.65 44.78 57.82 42.77 51.55ZM62.64 45.22L61.56 45.43L37.30 45.43L37.30 33.41L67.75 33.41L67.75 27.22L30.74 27.22L30.74 47.30C30.74 58.61 30.02 74.09 21.60 84.82C23.11 85.54 25.85 87.70 26.93 88.85C34.63 79.06 36.72 64.58 37.22 52.92C39.60 60.70 42.84 67.68 47.02 73.66C42.77 78.12 37.87 81.50 32.54 83.66C33.91 84.89 35.64 87.41 36.50 88.99C41.83 86.47 46.73 83.09 51.05 78.70C55.15 83.23 59.90 86.90 65.52 89.50C66.38 87.84 68.47 85.25 69.91 83.95C64.30 81.65 59.40 78.19 55.30 73.80C60.62 66.74 64.66 57.74 66.82 46.58Z"/></svg>
