<svg xmlns="http://www.w3.org/2000/svg" xmlns:xlink="http://www.w3.org/1999/xlink" width="72.00000000000001" height="106.56000000000002"><path fill="red" stroke="red" d="M26.71 53.93L19.08 55.94L19.08 43.63L26.86 43.63L26.86 37.15L19.08 37.15L19.08 23.11L12.24 23.11L12.24 37.15L3.46 37.15L3.46 43.63L12.24 43.63L12.24 57.82C8.64 58.75 5.26 59.54 2.52 60.19L4.03 67.03C6.62 66.31 9.36 65.52 12.24 64.80L12.24 81.58C12.24 82.58 11.88 82.87 10.94 82.87C10.08 82.94 7.20 82.94 4.32 82.87C5.18 84.67 6.05 87.48 6.26 89.14C11.16 89.21 14.18 88.99 16.27 87.91C18.36 86.83 19.08 85.03 19.08 81.58L19.08 62.78C21.89 61.99 24.70 61.20 27.58 60.34ZM36.86 78.84L36.86 63.43L58.75 63.43L58.75 78.84ZM58.75 42.19L58.75 57.17L36.86 57.17L36.86 42.19ZM48.96 35.86C50.18 32.33 51.55 28.08 52.78 24.12L44.93 23.26C44.42 27.00 43.27 31.90 42.12 35.86L30.17 35.86L30.17 88.92L36.86 88.92L36.86 85.18L58.75 85.18L58.75 88.42L65.66 88.42L65.66 35.86Z"/></svg>
