<svg xmlns="http://www.w3.org/2000/svg" xmlns:xlink="http://www.w3.org/1999/xlink" width="72.00000000000001" height="106.56000000000002"><path fill="red" stroke="red" d="M26.21 53.86L18.36 56.09L18.36 43.42L26.21 43.42L26.21 37.22L18.36 37.22L18.36 23.18L12.02 23.18L12.02 37.22L3.38 37.22L3.38 43.42L12.02 43.42L12.02 57.74C8.50 58.68 5.26 59.54 2.59 60.19L4.32 66.60L12.02 64.37L12.02 81.50C12.02 82.58 11.66 82.87 10.66 82.94C9.79 83.02 6.77 83.02 3.82 82.87C4.61 84.60 5.47 87.41 5.76 89.14C10.51 89.14 13.61 88.92 15.62 87.84C17.57 86.83 18.36 85.10 18.36 81.58L18.36 62.57L27.00 60.05ZM58.82 80.35L36.50 80.35L36.50 68.33L58.82 68.33ZM69.12 50.90L69.12 44.57L50.98 44.57L50.98 32.26C56.52 31.39 61.78 30.24 66.10 28.87L61.70 23.47C53.78 26.06 40.39 28.15 28.80 29.30C29.52 30.82 30.38 33.19 30.60 34.85C34.99 34.42 39.74 33.91 44.42 33.26L44.42 44.57L27.79 44.57L27.79 50.90L44.42 50.90L44.42 62.21L30.02 62.21L30.02 89.14L36.50 89.14L36.50 86.47L58.82 86.47L58.82 88.85L65.66 88.85L65.66 62.21L50.98 62.21L50.98 50.90Z"/></svg>
