<svg xmlns="http://www.w3.org/2000/svg" xmlns:xlink="http://www.w3.org/1999/xlink" width="72.00000000000001" height="106.56000000000002"><path fill="red" stroke="red" d="M62.35 39.67C61.20 44.71 59.69 49.97 58.18 53.57L61.92 56.52C64.66 51.05 67.10 42.91 68.76 35.64L65.02 33.91L64.08 34.27L54.00 34.27C54.58 31.10 55.15 27.94 55.66 24.70L50.04 23.69C48.74 33.98 46.51 44.42 42.77 51.19C43.99 52.20 46.22 54.29 47.09 55.30C49.32 51.12 51.12 45.72 52.70 39.67ZM22.61 59.90L21.46 53.86L16.42 55.66L16.42 43.42L22.10 43.42L22.10 37.22L16.42 37.22L16.42 23.18L10.58 23.18L10.58 37.22L3.60 37.22L3.60 43.42L10.58 43.42L10.58 57.82C7.63 58.82 4.97 59.69 2.74 60.41L4.46 66.82L10.58 64.51L10.58 81.65C10.58 82.58 10.30 82.80 9.43 82.80C8.71 82.87 6.19 82.87 3.46 82.73C4.32 84.38 5.04 87.05 5.26 88.63C9.43 88.63 12.17 88.42 13.97 87.41C15.77 86.40 16.42 84.74 16.42 81.58L16.42 62.35ZM43.42 47.74L43.42 42.41L29.59 42.41L29.59 33.91C35.21 32.76 41.26 31.25 46.01 29.30L41.26 24.34C37.15 26.21 30.53 28.30 24.55 29.66L24.19 29.66L24.19 48.24C24.19 58.82 23.76 74.02 19.01 84.82C20.16 85.39 22.54 87.34 23.40 88.49C28.66 76.97 29.59 59.54 29.59 48.24L29.59 47.74L34.63 47.74L34.63 88.27L39.96 88.27L39.96 47.74ZM57.17 44.57L51.91 44.57L51.91 48.46C51.91 58.25 51.19 73.15 41.76 85.18C43.06 86.04 45.00 87.91 45.94 89.21C50.40 83.23 53.21 76.68 54.79 70.20C57.02 78.26 60.26 84.02 65.38 89.21C66.10 87.55 67.75 85.82 69.19 84.82C62.28 78.05 59.04 70.13 57.02 55.37C57.10 52.92 57.17 50.62 57.17 48.53Z"/></svg>
