<svg xmlns="http://www.w3.org/2000/svg" xmlns:xlink="http://www.w3.org/1999/xlink" width="72.00000000000001" height="106.56000000000002"><path fill="red" stroke="red" d="M24.91 54.22L18.50 56.02L18.50 43.34L25.34 43.34L25.34 37.15L18.50 37.15L18.50 23.26L11.95 23.26L11.95 37.15L3.82 37.15L3.82 43.34L11.95 43.34L11.95 57.89C8.50 58.82 5.33 59.62 2.74 60.26L4.39 66.74L11.95 64.51L11.95 81.22C11.95 82.15 11.66 82.44 10.73 82.44C10.01 82.44 7.49 82.44 4.82 82.37C5.69 84.10 6.55 86.98 6.70 88.56C11.09 88.56 13.90 88.34 15.91 87.26C17.86 86.26 18.50 84.46 18.50 81.29L18.50 62.64C20.95 61.85 23.40 61.13 25.85 60.34ZM34.63 47.81L34.63 37.94L45.29 37.94L45.29 32.26L34.63 32.26L34.63 23.47L28.15 23.47L28.15 46.51C28.15 48.89 26.93 49.54 25.78 49.90C26.64 51.34 27.58 54.36 27.79 56.09C29.30 55.15 31.68 54.29 46.15 50.62C45.79 49.39 45.43 47.02 45.29 45.36ZM57.67 70.42L36.00 70.42L36.00 64.66L57.67 64.66ZM36.00 81.43L36.00 75.46L57.67 75.46L57.67 81.43ZM42.62 53.14C42.12 54.86 41.40 57.24 40.54 59.33L29.38 59.33L29.38 89.28L36.00 89.28L36.00 86.76L57.67 86.76L57.67 88.99L64.58 88.99L64.58 59.33L47.23 59.33C48.10 57.82 49.10 56.30 49.97 54.72ZM56.09 48.89C54.50 48.89 54.22 48.60 54.22 46.58L54.22 37.94L67.46 37.94L67.46 32.33L54.22 32.33L54.22 23.47L47.74 23.47L47.74 46.58C47.74 52.78 49.18 54.65 55.08 54.65L61.99 54.65C66.82 54.65 68.47 52.34 69.12 44.14C67.32 43.70 64.73 42.77 63.43 41.69C63.22 47.81 62.86 48.89 61.42 48.89Z"/></svg>
