<svg xmlns="http://www.w3.org/2000/svg" xmlns:xlink="http://www.w3.org/1999/xlink" width="72.00000000000001" height="106.56000000000002"><path fill="red" stroke="red" d="M45.58 61.85C44.42 66.74 40.90 71.64 35.86 74.30C36.86 75.17 38.30 76.82 39.02 77.90C42.05 76.25 44.64 73.80 46.66 70.92C49.54 73.22 52.49 76.03 54.22 77.83L57.60 74.45C55.73 72.43 52.06 69.48 48.89 67.18C49.61 65.74 50.26 64.15 50.69 62.71ZM56.45 83.23C56.30 81.86 56.09 79.70 56.02 78.26C54.65 78.55 51.91 78.70 50.11 78.70L37.15 78.70C35.21 78.70 34.70 77.98 34.70 75.89L34.70 63.43L33.34 63.43C33.98 62.78 34.56 62.06 35.14 61.27L61.78 61.27C61.06 75.38 60.19 80.93 58.97 82.37C58.32 83.09 57.67 83.23 56.59 83.23ZM36.07 41.11L57.96 41.11L57.96 46.22L36.07 46.22ZM36.07 31.39L57.96 31.39L57.96 36.29L36.07 36.29ZM39.24 55.66C40.18 54.29 41.04 52.78 41.76 51.34L64.08 51.34L64.08 26.35L30.17 26.35L30.17 51.34L34.63 51.34C32.62 54.58 30.10 57.74 27.43 60.48L26.64 54.65C24.19 55.37 21.67 56.02 19.30 56.74L19.30 43.42L26.71 43.42L26.71 37.22L19.30 37.22L19.30 23.11L12.89 23.11L12.89 37.22L3.17 37.22L3.17 43.42L12.89 43.42L12.89 58.39C9.00 59.40 5.40 60.26 2.52 60.91L3.53 67.61L12.89 64.94L12.89 81.22C12.89 82.30 12.46 82.58 11.45 82.66C10.51 82.66 7.34 82.66 4.03 82.51C4.82 84.24 5.76 86.98 6.05 88.63C11.09 88.63 14.33 88.49 16.42 87.48C18.43 86.47 19.30 84.74 19.30 81.22L19.30 63.14L27.00 60.91C25.13 62.78 23.26 64.44 21.24 65.88C22.46 67.18 24.48 70.13 25.34 71.50C26.64 70.42 27.86 69.26 29.16 67.97L29.16 75.74C29.16 81.94 30.89 84.02 37.30 84.02L50.26 84.02C50.90 85.54 51.34 87.55 51.41 88.99C54.65 89.14 57.82 89.14 59.62 88.92C61.56 88.70 62.93 88.06 64.15 86.47C66.24 84.10 67.10 76.97 68.04 58.32C68.11 57.46 68.11 55.66 68.11 55.66Z"/></svg>
