<svg xmlns="http://www.w3.org/2000/svg" xmlns:xlink="http://www.w3.org/1999/xlink" width="72.00000000000001" height="106.56000000000002"><path fill="red" stroke="red" d="M59.40 43.49L59.40 46.80L49.68 46.80L49.68 43.49ZM49.68 53.78L49.68 50.76L59.40 50.76L59.40 53.78ZM33.84 53.78L33.84 50.76L43.49 50.76L43.49 53.78ZM43.49 43.49L43.49 46.80L33.84 46.80L33.84 43.49ZM43.49 39.02L28.15 39.02L28.15 64.22L33.84 64.22L33.84 57.67L43.49 57.67L43.49 63.00L49.68 63.00L49.68 57.67L59.40 57.67L59.40 59.47C59.40 60.12 59.18 60.34 58.46 60.34C57.74 60.41 55.73 60.41 53.42 60.34C54.07 61.49 54.94 63.14 55.30 64.44C58.82 64.44 61.27 64.44 63.07 63.79C64.80 63.07 65.30 62.14 65.30 59.62L65.30 39.02L49.68 39.02L49.68 36.00L68.11 36.00L68.11 30.67L64.37 30.67L66.17 28.30C63.72 26.86 59.04 24.62 55.66 23.11L52.56 26.78C54.86 27.94 57.60 29.38 59.98 30.67L49.68 30.67L49.68 23.11L43.49 23.11L43.49 30.67L25.92 30.67L25.92 36.00L43.49 36.00ZM25.13 59.33L24.26 53.28L17.71 55.22L17.71 43.34L24.91 43.34L24.91 37.15L17.71 37.15L17.71 23.26L11.59 23.26L11.59 37.15L3.24 37.15L3.24 43.34L11.59 43.34L11.59 57.02C8.06 58.03 4.82 58.97 2.23 59.54L3.24 66.10L11.59 63.58L11.59 81.79C11.59 82.80 11.23 83.02 10.30 83.02C9.50 83.09 6.84 83.09 3.96 83.02C4.82 84.74 5.62 87.62 5.76 89.21C10.37 89.21 13.18 88.99 15.12 87.91C17.06 86.90 17.71 85.10 17.71 81.79L17.71 61.70ZM68.90 67.68L58.97 67.68L58.97 64.51L52.99 64.51L52.99 67.68L23.11 67.68L23.11 73.08L32.69 73.08L30.02 75.74C33.55 78.34 38.30 81.94 40.68 84.24L44.86 79.70C42.77 77.98 39.10 75.31 35.93 73.08L52.99 73.08L52.99 82.44C52.99 83.23 52.70 83.45 51.62 83.52C50.62 83.59 47.02 83.59 43.34 83.45C44.14 85.03 44.86 87.48 45.14 89.14C50.33 89.14 53.78 89.06 56.02 88.20C58.39 87.26 58.97 85.61 58.97 82.51L58.97 73.08L68.90 73.08Z"/></svg>
