<svg xmlns="http://www.w3.org/2000/svg" xmlns:xlink="http://www.w3.org/1999/xlink" width="72.00000000000001" height="106.56000000000002"><path fill="red" stroke="red" d="M17.78 23.26L11.59 23.26L11.59 37.15L3.02 37.15L3.02 43.34L11.59 43.34L11.59 57.67C8.06 58.75 4.82 59.62 2.23 60.26L3.74 66.74L11.59 64.30L11.59 81.14C11.59 82.15 11.23 82.44 10.30 82.44C9.50 82.44 6.77 82.44 3.96 82.37C4.82 84.17 5.62 86.98 5.83 88.63C10.37 88.63 13.25 88.42 15.19 87.34C17.14 86.33 17.78 84.46 17.78 81.14L17.78 62.35C19.87 61.70 22.10 60.98 24.19 60.26L23.33 54.22L17.78 55.87L17.78 43.34L24.41 43.34L24.41 37.15L17.78 37.15ZM66.10 57.74L26.06 57.74L26.06 89.21L32.04 89.21L32.04 63.22L60.05 63.22L60.05 83.16C60.05 83.81 59.76 84.02 59.11 84.02C58.54 84.10 56.45 84.10 54.22 84.02C54.94 85.54 55.66 87.70 55.87 89.28C59.62 89.28 62.14 89.28 63.94 88.34C65.66 87.41 66.10 85.97 66.10 83.23ZM50.62 77.04L41.11 77.04L41.11 71.35L50.62 71.35ZM55.73 66.74L36.22 66.74L36.22 81.72L55.73 81.72ZM56.30 49.61L36.14 49.61L36.14 44.14L56.30 44.14ZM62.50 39.38L30.24 39.38L30.24 54.29L62.50 54.29ZM49.97 30.38C49.10 28.15 47.81 25.20 46.58 23.04L40.46 24.70C41.26 26.35 42.12 28.51 42.84 30.38L25.70 30.38L25.70 36.07L68.11 36.07L68.11 30.38Z"/></svg>
