<svg xmlns="http://www.w3.org/2000/svg" xmlns:xlink="http://www.w3.org/1999/xlink" width="72.00000000000001" height="106.56000000000002"><path fill="red" stroke="red" d="M56.95 50.54L56.95 54.00L36.14 54.00L36.14 50.54ZM36.07 61.92C36.14 60.62 36.14 59.47 36.14 58.25L56.95 58.25L56.95 61.92ZM58.97 75.10L58.97 81.94L40.68 81.94L40.68 75.10ZM63.00 66.82L63.00 45.72L29.81 45.72L29.81 57.74C29.81 65.95 29.02 77.33 22.39 85.39C23.90 86.04 26.71 87.91 27.79 89.06C31.68 84.17 33.84 77.83 34.99 71.57L34.99 89.14L40.68 89.14L40.68 86.98L58.97 86.98L58.97 88.99L64.87 88.99L64.87 70.13L35.21 70.13C35.42 68.98 35.57 67.90 35.71 66.82ZM39.46 37.30C42.05 35.28 44.50 33.05 46.66 30.74C49.03 32.90 51.77 35.21 54.79 37.30ZM45.72 22.54C40.97 29.59 32.47 35.57 24.05 39.17L24.05 37.22L18.07 37.22L18.07 23.18L11.52 23.18L11.52 37.22L3.38 37.22L3.38 43.42L11.52 43.42L11.52 58.03C8.21 58.90 5.18 59.62 2.66 60.19L4.46 66.60L11.52 64.66L11.52 81.36C11.52 82.30 11.23 82.58 10.30 82.66C9.50 82.66 6.84 82.66 4.10 82.58C4.97 84.31 5.76 87.05 6.05 88.63C10.58 88.63 13.46 88.49 15.41 87.41C17.35 86.47 18.07 84.67 18.07 81.36L18.07 62.86L25.56 60.62L24.62 54.50L18.07 56.23L18.07 43.42L24.05 43.42L24.05 39.46C25.20 40.90 26.64 43.78 27.22 45.00C30.89 43.27 34.56 40.97 38.02 38.38L38.02 41.98L55.37 41.98L55.37 37.73C59.04 40.25 62.93 42.55 66.60 44.21C67.10 42.62 68.18 39.82 69.19 38.38C62.57 35.86 54.79 31.25 49.97 26.71C50.47 25.99 50.98 25.34 51.41 24.70Z"/></svg>
