<svg xmlns="http://www.w3.org/2000/svg" xmlns:xlink="http://www.w3.org/1999/xlink" width="72.00000000000001" height="106.56000000000002"><path fill="red" stroke="red" d="M23.62 54.58C21.53 55.15 19.51 55.80 17.42 56.30L17.42 43.42L23.83 43.42L23.83 37.15L17.42 37.15L17.42 23.26L11.16 23.26L11.16 37.15L3.31 37.15L3.31 43.42L11.16 43.42L11.16 58.03C7.78 58.97 4.75 59.76 2.23 60.26L3.67 66.82C5.98 66.24 8.50 65.45 11.16 64.66L11.16 81.36C11.16 82.30 10.80 82.58 9.94 82.58C9.14 82.66 6.41 82.66 3.53 82.51C4.39 84.38 5.26 87.26 5.40 88.85C9.94 88.92 12.89 88.70 14.83 87.55C16.78 86.54 17.42 84.67 17.42 81.36L17.42 62.78L24.34 60.77ZM37.51 42.55L41.47 41.40C41.11 39.46 40.03 36.50 38.95 34.27L53.93 34.27C53.28 36.72 52.06 40.10 50.98 42.55ZM50.83 74.38L41.62 74.38L41.62 68.40L50.83 68.40ZM68.04 28.73L50.18 28.73C49.61 26.78 48.67 24.34 47.45 22.46L41.69 24.12C42.41 25.56 43.06 27.14 43.49 28.73L25.34 28.73L25.34 34.27L37.30 34.27L32.76 35.42C33.77 37.66 34.70 40.46 35.06 42.55L26.35 42.55L26.35 89.21L32.62 89.21L32.62 47.95L43.70 47.95L43.70 53.86L34.92 53.86L34.92 58.54L43.70 58.54L43.70 64.01L36.86 64.01L36.86 81.58L41.62 81.58L41.62 78.70L55.73 78.70L55.73 64.01L49.03 64.01L49.03 58.54L57.89 58.54L57.89 53.86L49.03 53.86L49.03 47.95L59.83 47.95L59.83 82.08C59.83 83.02 59.54 83.23 58.68 83.30C57.82 83.30 54.86 83.38 51.98 83.23C52.85 84.74 53.71 87.34 54.00 88.99C58.54 88.99 61.42 88.92 63.50 87.84C65.52 86.98 66.17 85.25 66.17 82.15L66.17 42.55L57.02 42.55C58.10 40.39 59.18 37.66 60.34 35.14L56.81 34.27L68.04 34.27Z"/></svg>
