<svg xmlns="http://www.w3.org/2000/svg" xmlns:xlink="http://www.w3.org/1999/xlink" width="72.00000000000001" height="106.56000000000002"><path fill="red" stroke="red" d="M21.53 53.93L15.98 55.58L15.98 43.34L21.31 43.34L21.31 37.15L15.98 37.15L15.98 23.11L10.15 23.11L10.15 37.15L3.10 37.15L3.10 43.34L10.15 43.34L10.15 57.38C7.13 58.32 4.39 59.11 2.09 59.69L3.67 66.17L10.15 64.08L10.15 82.15C10.15 83.09 9.86 83.38 9.00 83.38C8.28 83.38 5.76 83.38 3.17 83.30C3.96 84.96 4.75 87.62 4.90 89.14C9.07 89.21 11.74 88.99 13.54 87.98C15.34 86.98 15.98 85.25 15.98 82.15L15.98 62.06C18.14 61.42 20.30 60.70 22.46 59.98ZM60.70 42.70C60.05 50.33 59.04 57.31 57.38 63.43C55.58 57.24 54.58 50.62 53.93 44.71C54.14 44.06 54.36 43.42 54.50 42.70ZM29.23 62.64C31.61 64.37 34.34 66.60 35.86 68.11L39.10 64.22C37.44 62.71 34.49 60.62 31.82 58.97L29.23 61.78L29.23 56.81L39.10 56.81L39.10 68.83C35.35 70.78 31.75 72.50 28.94 73.73C29.16 71.28 29.23 68.83 29.23 66.67ZM31.68 36.14L37.15 36.14L37.15 43.63L31.68 43.63ZM69.12 42.70L69.12 36.86L55.94 36.86C56.74 32.76 57.38 28.44 57.96 24.05L52.27 23.18C51.26 32.47 49.68 41.54 46.73 48.38L46.73 43.63L42.48 43.63L42.48 36.14L46.15 36.14L46.15 30.96L42.48 30.96L42.48 23.98L37.15 23.98L37.15 30.96L31.68 30.96L31.68 23.98L26.42 23.98L26.42 30.96L22.10 30.96L22.10 36.14L26.42 36.14L26.42 43.63L21.10 43.63L21.10 48.89L46.44 48.89C45.94 50.18 45.29 51.34 44.64 52.49L44.64 51.98L23.76 51.98L23.76 66.60C23.76 72.86 23.33 80.86 19.22 86.69C20.52 87.34 22.97 89.06 23.98 90.14C26.78 86.04 28.08 80.78 28.73 75.60L30.46 79.06C33.19 77.40 36.07 75.53 39.10 73.66L39.10 82.94C39.10 83.59 38.95 83.74 38.30 83.81C37.66 83.81 36.07 83.81 34.20 83.74C34.85 85.10 35.64 87.12 35.86 88.63C38.88 88.63 41.04 88.49 42.70 87.70C44.21 86.83 44.64 85.46 44.64 82.94L44.64 53.06C45.86 54.36 47.66 56.81 48.31 57.96C49.10 56.66 49.82 55.30 50.47 53.93C51.41 59.69 52.70 65.74 54.65 71.42C52.34 76.75 49.32 81.29 45.22 84.89C46.30 85.90 48.17 88.13 48.89 89.21C52.34 86.04 55.08 82.22 57.31 77.98C59.47 82.30 62.21 86.26 65.59 89.35C66.46 87.84 68.40 85.39 69.55 84.31C65.52 81.07 62.50 76.54 60.26 71.50C63.29 63.36 65.02 53.78 66.10 42.70Z"/></svg>
