<svg xmlns="http://www.w3.org/2000/svg" xmlns:xlink="http://www.w3.org/1999/xlink" width="72.00000000000001" height="106.56000000000002"><path fill="red" stroke="red" d="M8.78 63.43C7.49 69.41 5.26 75.53 2.02 79.56C3.53 80.21 6.05 81.72 7.20 82.51C10.22 78.19 12.96 71.35 14.54 64.66ZM57.67 42.55C56.52 50.47 54.86 57.31 52.20 63.07C49.61 56.95 47.81 49.97 46.51 42.55ZM69.12 42.55L69.12 36.36L47.88 36.36C48.96 32.47 49.97 28.44 50.83 24.41L44.06 23.11C41.98 34.49 38.23 45.79 33.19 52.99C33.70 53.35 34.42 53.93 35.14 54.58L23.83 54.58L23.83 48.17L32.47 48.17L32.47 42.41L12.10 42.41C15.19 39.38 18.14 36.00 20.74 32.40C25.99 35.93 31.61 40.46 34.85 43.85L38.66 38.59C35.28 35.28 29.59 31.03 23.98 27.50C24.48 26.64 24.98 25.92 25.42 25.06L20.16 22.75C15.98 30.31 8.78 37.44 1.94 41.90C2.81 43.56 4.25 47.09 4.68 48.67C6.26 47.45 7.99 46.15 9.58 44.64L9.58 48.17L17.64 48.17L17.64 54.58L4.39 54.58L4.39 60.48L17.64 60.48L17.64 82.22C17.64 83.16 17.35 83.38 16.42 83.45C15.55 83.45 12.53 83.45 9.50 83.38C10.30 84.96 11.23 87.55 11.52 89.21C16.06 89.21 19.15 89.06 21.17 88.06C23.18 87.12 23.83 85.46 23.83 82.30L23.83 60.48L36.29 60.48L36.29 55.66C37.22 56.45 38.02 57.24 38.45 57.82C39.74 56.02 40.97 53.86 41.98 51.55C43.63 58.46 45.58 64.66 48.24 70.13C44.28 75.74 38.95 80.14 31.82 83.38C33.12 84.82 35.06 87.84 35.78 89.42C42.41 86.04 47.74 81.79 51.84 76.61C55.30 81.79 59.54 86.11 64.94 89.21C66.02 87.41 68.11 84.82 69.62 83.45C63.94 80.57 59.47 76.03 55.94 70.42C60.19 62.93 62.86 53.78 64.51 42.55ZM37.80 77.11C36.94 73.37 34.34 67.46 31.82 62.93L26.42 64.94C28.87 69.55 31.25 75.60 32.11 79.42Z"/></svg>
