<svg xmlns="http://www.w3.org/2000/svg" xmlns:xlink="http://www.w3.org/1999/xlink" width="72.00000000000001" height="106.56000000000002"><path fill="red" stroke="red" d="M25.70 49.82L13.90 49.82L13.90 44.14L25.70 44.14ZM13.90 66.82L25.70 66.82L25.70 72.07C21.67 72.65 17.64 73.22 13.90 73.66ZM25.70 61.27L13.90 61.27L13.90 55.44L25.70 55.44ZM36.79 44.14L36.79 38.23L22.97 38.23L22.97 31.75L35.06 31.75L35.06 25.92L5.18 25.92L5.18 31.75L16.56 31.75L16.56 38.23L2.95 38.23L2.95 44.14L7.70 44.14L7.70 74.45L2.59 75.10L3.53 81.58C9.79 80.71 17.71 79.49 25.70 78.26L25.70 89.14L31.97 89.14L31.97 44.14ZM45.94 42.48L57.53 42.48C56.38 50.83 54.58 57.96 51.77 64.01C48.96 57.96 46.94 51.05 45.50 43.63ZM69.05 42.48L69.05 36.29L47.81 36.29C48.82 32.40 49.68 28.30 50.40 24.19L43.56 23.04C41.62 35.28 38.02 47.02 32.33 54.29C33.91 55.44 36.72 57.82 37.80 59.11C39.10 57.38 40.25 55.44 41.40 53.28C43.06 59.76 45.14 65.66 47.81 70.85C43.99 76.18 39.02 80.28 32.40 83.38C33.70 84.74 35.64 87.91 36.29 89.42C42.62 86.11 47.59 82.08 51.55 77.11C55.15 82.15 59.62 86.26 65.09 89.21C66.02 87.41 68.18 84.74 69.70 83.45C63.94 80.71 59.33 76.39 55.73 70.99C60.05 63.36 62.71 53.93 64.44 42.48Z"/></svg>
