<svg xmlns="http://www.w3.org/2000/svg" xmlns:xlink="http://www.w3.org/1999/xlink" width="72.00000000000001" height="106.56000000000002"><path fill="red" stroke="red" d="M3.82 87.19L68.33 87.19L68.33 82.58L3.82 82.58ZM53.21 69.48L19.66 69.48L19.66 66.31L53.21 66.31ZM53.21 76.18L19.66 76.18L19.66 72.94L53.21 72.94ZM13.10 62.78L13.10 79.70L60.12 79.70L60.12 62.78ZM39.02 38.30L53.78 38.30L53.78 41.62L39.02 41.62ZM39.02 31.25L53.78 31.25L53.78 34.34L39.02 34.34ZM39.02 55.66L39.02 52.42L63.29 52.42L63.29 48.60L39.02 48.60L39.02 45.43L60.48 45.43L60.48 38.30L67.97 38.30L67.97 34.34L60.48 34.34L60.48 27.43L39.02 27.43L39.02 23.04L32.26 23.04L32.26 27.43L11.59 27.43L11.59 31.25L32.26 31.25L32.26 34.34L4.03 34.34L4.03 38.30L32.26 38.30L32.26 41.62L11.16 41.62L11.16 45.43L32.26 45.43L32.26 48.60L9.29 48.60L9.29 52.42L32.26 52.42L32.26 55.66L3.89 55.66L3.89 60.05L68.33 60.05L68.33 55.66Z"/></svg>
