<svg xmlns="http://www.w3.org/2000/svg" xmlns:xlink="http://www.w3.org/1999/xlink" width="72.00000000000001" height="106.56000000000002"><path fill="red" stroke="red" d="M54.22 34.06L18.43 34.06L18.43 30.38L54.22 30.38ZM54.22 42.19L18.43 42.19L18.43 38.45L54.22 38.45ZM60.98 25.78L11.95 25.78L11.95 46.80L60.98 46.80ZM60.05 70.63C57.53 72.43 53.57 74.66 50.04 76.32C47.45 74.74 45.14 72.79 43.34 70.63L67.68 70.63L67.68 65.59L15.62 65.59C15.70 64.51 15.70 63.50 15.77 62.50L61.78 62.50L61.78 58.18L15.77 58.18L15.77 55.15L66.60 55.15L66.60 50.11L9.07 50.11L9.07 60.19C9.07 67.61 8.42 78.12 2.88 85.82C4.54 86.47 7.49 88.34 8.78 89.50C12.53 84.17 14.33 77.18 15.12 70.63L21.89 70.63L21.89 77.98C21.89 81.14 19.58 82.94 18.14 83.74C19.15 85.03 20.45 87.77 20.88 89.42C22.25 88.49 24.48 87.84 40.68 84.02C40.61 82.73 40.82 80.14 41.04 78.55L28.15 81.36L28.15 70.63L36.79 70.63C42.48 79.99 52.27 85.82 65.66 88.13C66.46 86.40 68.11 83.88 69.48 82.58C64.08 81.94 59.33 80.64 55.15 78.98C58.32 77.47 61.85 75.67 64.58 73.66Z"/></svg>
