<svg xmlns="http://www.w3.org/2000/svg" xmlns:xlink="http://www.w3.org/1999/xlink" width="72.00000000000001" height="106.56000000000002"><path fill="red" stroke="red" d="M31.61 57.82C30.24 55.87 23.90 48.10 21.38 45.22L21.38 42.98L30.82 42.98L30.82 36.79L21.38 36.79L21.38 23.18L14.62 23.18L14.62 36.79L3.53 36.79L3.53 42.98L14.54 42.98C12.24 52.42 7.63 63.29 2.81 69.70C3.96 71.28 5.62 73.80 6.34 75.82C9.36 71.78 12.24 65.81 14.62 59.54L14.62 89.21L21.38 89.21L21.38 53.86C23.83 57.46 26.57 61.85 27.94 64.37ZM52.34 78.05L52.34 36.22L66.82 36.22L66.82 29.52L31.25 29.52L31.25 36.22L45.14 36.22L45.14 78.05L27.65 78.05L27.65 84.74L68.76 84.74L68.76 78.05Z"/></svg>
