<svg xmlns="http://www.w3.org/2000/svg" xmlns:xlink="http://www.w3.org/1999/xlink" width="72.00000000000001" height="106.56000000000002"><path fill="red" stroke="red" d="M22.97 34.70L23.69 40.75L34.42 39.38L34.42 45.94C34.42 52.99 36.58 55.51 44.28 55.51L58.68 55.51C61.56 55.51 64.58 55.44 66.10 55.01C65.81 53.57 65.59 50.98 65.38 49.18C63.86 49.61 60.55 49.75 58.46 49.75L44.28 49.75C41.69 49.75 41.11 48.74 41.11 46.08L41.11 38.52L66.17 35.42L65.45 29.66L41.11 32.54L41.11 23.33L34.42 23.33L34.42 33.41ZM9.36 60.12C14.11 55.37 19.37 49.61 23.83 44.35L20.16 39.82C15.12 45.50 9.07 51.62 4.90 55.30ZM22.97 28.37C20.23 26.86 15.05 24.62 11.38 23.33L8.35 27.65C12.17 29.23 17.28 31.54 19.80 33.19ZM17.78 37.44C15.05 36.00 10.01 33.84 6.34 32.54L3.24 36.94C6.98 38.38 12.02 40.82 14.62 42.34ZM24.05 70.78C19.37 75.46 10.51 79.56 2.38 81.43C3.82 82.80 5.76 85.25 6.77 86.98C15.26 84.46 24.34 79.13 29.52 72.94ZM67.54 68.76L67.54 62.78L39.24 62.78L39.24 56.38L32.47 56.38L32.47 62.78L4.46 62.78L4.46 68.76L32.47 68.76L32.47 89.14L39.24 89.14L39.24 68.76ZM43.63 74.74C50.47 78.19 59.83 83.52 64.51 86.76L68.62 81.65C63.72 78.55 54.29 73.66 47.52 70.34Z"/></svg>
