<svg xmlns="http://www.w3.org/2000/svg" xmlns:xlink="http://www.w3.org/1999/xlink" width="72.00000000000001" height="106.56000000000002"><path fill="red" stroke="red" d="M21.53 37.66C25.13 39.60 29.45 42.26 32.54 44.64C29.66 48.89 25.34 51.84 19.51 53.93C20.88 55.01 23.33 57.46 24.05 58.75C35.50 53.64 41.62 45.79 43.78 31.68L50.69 31.68C50.04 44.86 49.18 49.90 48.17 51.19C47.66 51.91 47.02 52.06 46.08 52.06C45.07 52.06 43.06 52.06 40.68 51.77C41.47 53.35 42.05 55.73 42.19 57.31C45.07 57.46 47.66 57.46 49.18 57.24C51.05 57.02 52.27 56.52 53.57 55.01C54.79 53.50 55.44 50.26 56.09 43.34C59.26 46.22 62.35 49.25 64.22 51.41L68.69 47.45C65.95 44.57 60.70 40.03 56.59 36.50C56.74 34.13 56.88 31.46 57.02 28.51C57.10 27.72 57.17 25.92 57.17 25.92L26.71 25.92L26.71 31.68L37.30 31.68C36.86 34.63 36.14 37.30 35.21 39.74C32.04 37.44 27.86 35.06 24.41 33.34ZM10.08 60.05C13.82 55.87 17.93 50.90 21.46 46.30L17.14 42.70C13.18 47.74 8.42 52.99 5.11 56.16ZM22.39 28.15C19.73 26.42 14.54 24.34 10.58 23.26L7.92 27.58C11.95 28.87 17.06 31.10 19.66 32.90ZM17.57 37.01C14.98 35.35 9.79 33.26 5.90 32.18L3.02 36.65C7.06 37.87 12.17 40.18 14.76 41.90ZM23.98 70.49C19.44 75.10 10.66 79.34 2.95 81.43C4.39 82.73 6.41 85.25 7.49 86.90C15.34 84.17 24.34 78.62 29.45 72.79ZM67.75 69.12L67.75 63.22L39.46 63.22L39.46 57.38L32.69 57.38L32.69 63.22L4.39 63.22L4.39 69.12L32.69 69.12L32.69 89.14L39.46 89.14L39.46 69.12ZM43.34 73.94C50.33 77.54 59.33 82.94 63.72 86.54L68.69 82.08C64.01 78.48 54.86 73.37 47.95 70.06Z"/></svg>
