<svg xmlns="http://www.w3.org/2000/svg" xmlns:xlink="http://www.w3.org/1999/xlink" width="72.00000000000001" height="106.56000000000002"><path fill="red" stroke="red" d="M31.82 69.34L23.90 71.57L23.90 50.40L31.39 50.40L31.39 44.50L23.90 44.50L23.90 24.05L17.93 24.05L17.93 73.30L12.46 74.81L12.46 37.44L6.77 37.44L6.77 76.39C5.18 76.82 3.74 77.11 2.38 77.47L3.67 83.88C11.59 81.43 22.46 78.19 32.76 75.02ZM58.61 55.44C56.59 61.42 53.50 66.46 49.54 70.63C45.58 66.24 42.55 61.13 40.46 55.44ZM62.28 49.25L61.20 49.46L52.42 49.46L52.42 39.53L68.18 39.53L68.18 33.70L52.42 33.70L52.42 23.18L46.08 23.18L46.08 33.70L30.38 33.70L30.38 39.53L46.08 39.53L46.08 49.46L31.97 49.46L31.97 55.44L36.14 55.44L34.27 55.87C36.86 63.22 40.39 69.70 44.78 74.95C39.67 78.91 33.62 81.72 27.00 83.45C28.30 84.74 29.81 87.48 30.53 89.21C37.51 87.12 43.92 83.88 49.25 79.56C53.71 83.52 58.90 86.69 64.94 88.85C65.88 87.19 67.90 84.53 69.34 83.23C63.50 81.36 58.39 78.62 54.14 75.02C59.76 68.90 64.01 60.91 66.38 50.69Z"/></svg>
