<svg xmlns="http://www.w3.org/2000/svg" xmlns:xlink="http://www.w3.org/1999/xlink" width="72.00000000000001" height="106.56000000000002"><path fill="red" stroke="red" d="M48.24 31.61L56.52 31.61L56.52 41.83C56.52 47.52 57.53 49.82 62.57 49.82L66.10 49.82C67.32 49.82 68.54 49.75 69.34 49.39C69.19 47.95 69.05 45.72 68.98 44.14C68.11 44.35 66.89 44.50 66.02 44.50L63.22 44.50C62.35 44.50 62.28 43.85 62.28 41.98L62.28 25.78L42.48 25.78L42.48 34.49C42.48 38.81 41.83 43.49 36.86 47.16C37.87 48.17 39.82 51.05 40.46 52.56C46.87 47.88 48.24 40.68 48.24 34.63ZM59.33 59.40C57.74 64.08 55.58 68.11 52.85 71.64C50.04 68.11 47.88 63.94 46.30 59.40ZM62.93 53.21L61.78 53.42L38.52 53.42L38.52 59.40L40.75 59.40C42.62 65.74 45.36 71.35 48.74 76.03C45.43 79.06 41.69 81.43 37.51 83.09C37.30 81.65 37.08 79.99 37.01 78.84C35.50 79.20 32.62 79.42 30.38 79.42L15.34 79.42C11.66 79.42 10.51 77.90 10.51 73.51L10.51 31.90L37.66 31.90L37.66 26.21L2.95 26.21L2.95 31.90L4.54 31.90L4.54 73.30C4.54 82.08 7.34 85.03 15.62 85.03L30.02 85.03C32.76 85.03 35.28 84.96 36.86 84.67C37.94 86.11 39.02 87.98 39.53 89.35C44.50 87.26 49.03 84.53 52.85 80.86C56.45 84.38 60.62 87.19 65.59 89.14C66.46 87.34 68.26 84.74 69.70 83.38C64.87 81.79 60.70 79.42 57.17 76.25C61.63 70.63 64.94 63.50 66.89 54.65ZM28.51 48.38L19.87 48.38L19.87 40.46L28.51 40.46ZM33.41 36.29L15.26 36.29L15.26 52.56L33.41 52.56ZM16.20 60.98L19.80 60.98L19.80 70.78L16.20 70.78ZM12.89 74.95L23.18 74.95L23.18 56.81L12.89 56.81ZM33.05 70.78L29.02 70.78L29.02 61.13L33.05 61.13ZM36.50 56.95L25.63 56.95L25.63 74.95L36.50 74.95Z"/></svg>
