<svg xmlns="http://www.w3.org/2000/svg" xmlns:xlink="http://www.w3.org/1999/xlink" width="72.00000000000001" height="106.56000000000002"><path fill="red" stroke="red" d="M36.86 29.02L22.75 29.02L24.05 28.44C23.40 26.78 21.96 24.26 20.45 22.46L15.05 24.62C15.91 25.92 16.85 27.50 17.50 29.02L3.46 29.02L3.46 34.27L36.86 34.27ZM23.11 48.82L17.21 48.82L17.21 46.01L23.11 46.01ZM27.00 43.27L13.39 43.27L13.39 51.55L27.00 51.55ZM29.81 53.57L10.58 53.57L10.58 41.18L29.81 41.18ZM35.21 37.15L5.33 37.15L5.33 57.67L35.21 57.67ZM13.03 70.56L27.29 70.56L27.29 74.09L13.03 74.09ZM13.03 63.72L27.29 63.72L27.29 67.18L13.03 67.18ZM32.98 77.62L32.98 60.19L7.63 60.19L7.63 77.62ZM3.02 87.55C11.52 86.83 23.69 85.97 35.28 85.03L35.35 79.78C23.47 80.64 10.94 81.50 2.81 82.01ZM55.58 82.08C53.71 82.08 53.42 81.58 53.42 78.55L53.42 66.53L68.69 63.50L68.11 57.53L53.42 60.41L53.42 50.11L67.03 47.23L66.38 41.26L53.42 43.78L53.42 33.55C58.10 32.33 62.50 30.74 66.17 29.09L61.27 24.05C55.73 27.07 46.30 29.81 37.80 31.54C38.45 32.98 39.31 35.35 39.60 36.79C42.05 36.29 44.71 35.78 47.30 35.14L47.30 45.00L37.44 47.02L38.16 53.21L47.30 51.26L47.30 61.63L36.72 63.65L37.44 69.77L47.30 67.82L47.30 78.48C47.30 86.33 48.82 88.49 54.72 88.49L62.21 88.49C67.32 88.49 68.90 85.10 69.55 75.02C67.82 74.59 65.38 73.37 64.01 72.22C63.79 80.21 63.43 82.08 61.70 82.08Z"/></svg>
