<svg xmlns="http://www.w3.org/2000/svg" xmlns:xlink="http://www.w3.org/1999/xlink" width="72.00000000000001" height="106.56000000000002"><path fill="red" stroke="red" d="M22.25 30.74C19.44 28.80 13.90 25.63 10.08 23.62L6.48 28.58C10.37 30.96 15.84 34.34 18.50 36.43ZM18.58 49.39C15.77 47.66 10.15 44.64 6.26 42.70L2.74 47.81C6.70 49.97 12.24 53.21 14.90 55.15ZM15.34 61.34C12.02 69.62 7.63 78.84 4.46 84.53L10.66 88.34C14.04 81.43 17.78 72.79 20.81 65.16ZM39.82 60.77C39.96 58.39 40.03 55.87 40.03 53.42L40.03 52.56L46.58 52.56L46.58 60.77ZM27.22 60.77C27.58 58.18 27.86 55.30 28.15 52.56L34.20 52.56L34.20 53.42C34.20 55.94 34.13 58.39 33.98 60.77ZM40.03 38.45L46.58 38.45L46.58 46.80L40.03 46.80ZM58.46 38.45L58.46 46.80L52.56 46.80L52.56 38.45ZM52.56 60.77L52.56 52.56L64.22 52.56L64.22 32.76L52.56 32.76L52.56 23.18L46.58 23.18L46.58 32.76L40.03 32.76L40.03 23.18L34.20 23.18L34.20 32.76L22.75 32.76L22.75 38.45L34.20 38.45L34.20 46.80L23.11 46.80C22.68 53.21 21.67 61.34 20.81 66.53L33.26 66.53C31.82 73.73 28.66 80.06 21.31 85.18C22.90 86.04 25.20 87.98 26.21 89.28C34.63 83.16 37.94 75.31 39.24 66.53L46.58 66.53L46.58 88.99L52.56 88.99L52.56 66.53L61.92 66.53C61.63 72.79 61.27 75.17 60.70 75.96C60.26 76.54 59.90 76.68 59.18 76.68C58.46 76.68 57.02 76.68 55.30 76.46C56.02 77.83 56.59 80.06 56.66 81.65C58.90 81.79 61.13 81.79 62.35 81.58C63.86 81.36 65.02 80.86 65.95 79.63C67.18 77.98 67.68 73.66 68.04 63.00C68.04 62.21 68.11 60.77 68.11 60.77Z"/></svg>
