<svg xmlns="http://www.w3.org/2000/svg" xmlns:xlink="http://www.w3.org/1999/xlink" width="72.00000000000001" height="106.56000000000002"><path fill="red" stroke="red" d="M24.48 32.47C21.38 30.02 15.26 26.28 10.87 23.90L6.91 28.58C11.38 31.25 17.42 35.14 20.45 37.66ZM20.16 50.62C17.14 48.53 11.02 45.43 6.77 43.56L3.17 48.46C7.49 50.62 13.54 54.00 16.42 56.23ZM11.23 88.34C15.48 81.58 20.30 72.94 24.05 65.45L19.15 60.98C14.98 69.19 9.50 78.41 5.62 83.81ZM33.70 35.71L55.01 35.71C52.34 39.96 48.67 43.70 44.35 46.80C39.89 43.70 36.14 40.03 33.55 35.86ZM56.38 68.11L56.38 79.13L32.26 79.13L32.26 68.11ZM60.12 29.52L58.97 29.81L36.86 29.81C37.73 28.01 38.52 26.06 39.24 24.19L33.41 22.54C30.67 29.88 26.14 37.01 20.95 41.62C22.18 42.91 24.19 45.65 24.84 46.94C26.64 45.22 28.37 43.20 30.10 40.97C32.54 44.35 35.57 47.38 39.10 50.11C33.48 53.28 27.07 55.58 20.45 57.24C21.60 58.46 23.33 61.42 23.98 63.14L25.99 62.50L25.99 88.78L32.26 88.78L32.26 85.03L56.38 85.03L56.38 88.63L63.00 88.63L63.00 62.21L27.00 62.21C33.26 60.19 39.38 57.46 44.78 53.93C51.19 57.74 58.61 60.55 66.60 62.42C66.96 60.62 67.90 57.82 68.83 56.16C62.06 54.94 55.73 52.92 50.18 50.18C56.16 45.29 61.13 39.38 64.37 32.11Z"/></svg>
