<svg xmlns="http://www.w3.org/2000/svg" xmlns:xlink="http://www.w3.org/1999/xlink" width="72.00000000000001" height="106.56000000000002"><path fill="red" stroke="red" d="M21.17 31.61C18.65 29.38 13.46 26.06 9.58 24.12L6.41 29.02C10.30 31.18 15.34 34.70 17.86 37.08ZM17.35 50.47C14.83 48.24 9.58 45.07 5.76 43.27L2.66 48.31C6.55 50.40 11.66 53.71 14.18 56.09ZM9.29 87.98C12.96 81.22 16.99 72.79 20.23 65.38L15.98 60.91C12.38 68.98 7.70 78.05 4.46 83.45ZM66.53 32.54L33.70 32.54C34.85 30.10 35.93 27.43 36.86 24.84L30.89 23.40C28.15 32.11 23.04 40.03 16.85 45.00C18.14 46.15 20.16 48.60 21.10 49.75C22.10 48.96 23.04 47.95 23.98 46.94L23.98 76.68L54.65 76.68L54.65 46.44L49.03 46.44L49.03 71.14L29.52 71.14L29.52 46.80L24.12 46.80C26.35 44.35 28.44 41.47 30.38 38.45L60.62 38.45C59.98 67.82 59.11 78.55 57.31 80.78C56.59 81.86 55.87 82.08 54.65 82.08C53.21 82.08 50.04 82.08 46.58 81.79C47.52 83.38 48.24 85.90 48.38 87.48C51.70 87.62 55.08 87.70 57.24 87.41C59.54 87.12 61.13 86.47 62.57 84.38C65.09 81.07 65.74 69.70 66.53 35.50ZM48.17 64.37C47.09 62.21 45.29 59.40 43.20 56.30C45.07 51.98 46.66 47.09 47.74 41.98L42.48 41.04C41.76 44.71 40.82 48.24 39.60 51.48C37.66 48.96 35.64 46.44 33.77 44.28L30.46 47.81C32.69 50.47 35.06 53.57 37.30 56.66C35.42 60.41 33.19 63.65 30.60 66.17C31.68 67.18 33.62 69.19 34.34 70.13C36.65 67.75 38.74 64.80 40.61 61.56C42.26 64.15 43.70 66.53 44.64 68.62Z"/></svg>
