<svg xmlns="http://www.w3.org/2000/svg" xmlns:xlink="http://www.w3.org/1999/xlink" width="72.00000000000001" height="106.56000000000002"><path fill="red" stroke="red" d="M60.55 25.20C58.32 29.66 54.43 35.86 51.34 39.82L56.45 41.90C59.76 38.16 63.79 32.40 67.10 27.36ZM10.66 88.27C14.40 81.50 18.65 72.86 21.89 65.23L16.63 61.20C12.96 69.41 8.14 78.70 4.68 84.31ZM19.15 50.04C16.27 47.88 10.73 45.00 6.48 43.27L2.74 48.38C7.06 50.26 12.60 53.42 15.26 55.66ZM5.98 28.94C10.30 31.10 15.84 34.42 18.43 36.79L22.32 31.32C19.58 28.94 14.04 25.85 9.72 24.05ZM38.66 38.81C36.94 34.99 32.98 29.23 29.23 25.13L23.98 27.86C27.58 32.11 31.46 38.02 33.12 41.98ZM49.25 61.27L49.25 70.70L41.33 70.70L41.33 61.27ZM54.65 75.96L54.65 56.09L36.07 56.09L36.07 79.56L41.33 79.56L41.33 75.96ZM65.88 44.71L48.60 44.71L48.60 23.04L41.90 23.04L41.90 44.71L24.91 44.71L24.91 89.21L31.18 89.21L31.18 50.76L59.54 50.76L59.54 81.72C59.54 82.73 59.18 83.02 58.03 83.09C57.02 83.09 53.28 83.09 49.54 83.02C50.40 84.60 51.19 87.34 51.48 89.06C57.02 89.06 60.55 88.99 62.93 87.98C65.23 86.98 65.88 85.18 65.88 81.79Z"/></svg>
