<svg xmlns="http://www.w3.org/2000/svg" xmlns:xlink="http://www.w3.org/1999/xlink" width="72.00000000000001" height="106.56000000000002"><path fill="red" stroke="red" d="M19.22 32.18C16.70 29.95 11.88 26.42 8.35 23.83L4.46 27.65C7.99 30.31 12.74 34.20 15.12 36.50ZM17.50 50.90C14.90 48.82 9.65 45.58 5.98 43.34L2.45 47.66C6.19 50.11 11.30 53.50 13.82 55.73ZM8.93 88.34C12.31 81.36 16.34 72.43 19.30 64.58L14.40 60.98C11.02 69.48 6.55 79.13 3.31 84.82ZM50.62 71.78C48.89 74.09 46.66 76.03 44.06 77.54C40.61 76.75 37.22 75.89 33.98 75.17C34.78 74.09 35.71 73.01 36.58 71.78ZM46.01 50.40L56.30 50.40L56.30 54.22L46.01 54.22ZM46.01 41.62L56.30 41.62L56.30 45.65L46.01 45.65ZM46.01 62.64L46.01 59.04L62.42 59.04L62.42 50.76L69.05 50.76L69.05 45.50L62.42 45.50L62.42 36.79L46.01 36.79L46.01 33.48L67.75 33.48L67.75 28.22L46.01 28.22L46.01 23.04L39.31 23.04L39.31 28.22L20.16 28.22L20.16 33.48L39.31 33.48L39.31 36.79L24.84 36.79L24.84 41.62L39.31 41.62L39.31 45.65L19.08 45.65L19.08 50.40L39.31 50.40L39.31 54.22L24.55 54.22L24.55 59.04L39.31 59.04L39.31 61.78L36.29 60.98C35.35 62.78 34.13 64.73 32.90 66.60L20.74 66.60L20.74 71.78L29.16 71.78C27.43 74.02 25.70 76.10 24.05 77.83C27.94 78.70 32.18 79.78 36.50 80.86C31.68 82.44 26.06 83.38 19.87 84.02C20.81 85.32 22.25 87.91 22.68 89.42C31.32 88.20 38.95 86.40 45.07 83.30C51.98 85.39 58.39 87.55 62.64 89.21L68.04 84.82C63.58 83.16 57.53 81.22 51.19 79.49C53.78 77.33 56.02 74.81 57.82 71.78L67.82 71.78L67.82 66.60L60.19 66.60C60.41 65.95 60.62 65.30 60.84 64.73L54.29 63.86C54.07 64.80 53.78 65.74 53.42 66.60L40.18 66.60C40.97 65.23 41.76 63.94 42.48 62.64Z"/></svg>
