<svg xmlns="http://www.w3.org/2000/svg" xmlns:xlink="http://www.w3.org/1999/xlink" width="72.00000000000001" height="106.56000000000002"><path fill="red" stroke="red" d="M22.10 30.60C19.51 28.22 14.33 25.34 10.22 23.62L6.48 28.51C10.58 30.53 15.70 33.70 18.14 36.07ZM18.50 49.32C15.84 47.16 10.66 44.35 6.55 42.77L2.81 47.74C6.98 49.61 12.10 52.63 14.62 54.86ZM10.44 88.20C14.04 81.36 18.00 72.65 21.10 65.02L15.84 61.06C12.31 69.26 7.78 78.62 4.46 84.17ZM57.31 62.71C55.37 65.09 52.20 68.40 49.32 70.85L47.59 69.84L47.59 58.61L41.47 58.61L41.47 70.70C34.34 74.09 27.00 77.62 22.10 79.63L24.62 84.67C29.45 82.22 35.57 79.13 41.47 76.10L41.47 82.94C41.47 83.74 41.26 83.95 40.39 83.95C39.67 84.02 36.94 84.02 34.13 83.95C34.85 85.39 35.64 87.48 35.86 89.06C40.18 89.06 43.06 88.99 45.07 88.13C47.09 87.34 47.59 86.04 47.59 83.09L47.59 75.67C52.92 79.06 58.68 83.16 61.70 86.18L65.52 82.01C62.78 79.42 58.10 76.25 53.50 73.37C56.30 71.21 59.47 68.33 61.99 65.59ZM38.45 70.49C37.30 68.18 34.49 64.80 31.90 62.64L27.58 65.23C30.10 67.61 32.83 70.99 33.84 73.37ZM43.27 46.01L47.45 46.01L47.45 38.16C53.50 41.83 60.19 46.44 63.72 49.54L67.82 45.50C64.30 42.55 58.03 38.52 52.27 35.14L67.32 35.14L67.32 29.52L47.45 29.52L47.45 23.18L41.11 23.18L41.11 29.52L23.26 29.52L23.26 35.14L36.86 35.14C32.33 39.38 25.78 43.13 19.73 45.07C21.17 46.30 23.04 48.60 23.98 50.11C29.95 47.59 36.36 43.20 41.11 38.16L41.11 46.01L42.34 46.01C38.02 52.49 29.45 57.46 20.38 60.05C21.67 61.34 23.04 63.22 23.83 64.73C31.54 61.99 38.52 58.03 43.56 52.78C49.90 58.54 57.24 61.99 65.45 64.80C66.24 63.00 67.75 61.06 69.12 59.76C60.70 57.46 52.85 54.50 46.66 48.96C46.94 48.53 47.30 48.02 47.59 47.52Z"/></svg>
