<svg xmlns="http://www.w3.org/2000/svg" xmlns:xlink="http://www.w3.org/1999/xlink" width="72.00000000000001" height="106.56000000000002"><path fill="red" stroke="red" d="M18.43 31.90C16.27 29.66 11.66 26.50 8.35 24.34L4.10 28.44C7.49 30.74 11.88 34.20 14.04 36.50ZM16.78 50.18C14.40 48.24 9.79 45.43 6.41 43.49L2.52 47.66C5.98 49.82 10.51 52.92 12.74 54.86ZM12.60 62.71C9.94 70.56 6.12 79.56 3.46 84.89L9.14 88.27C12.02 81.72 15.26 73.44 17.71 66.10ZM24.34 45.50L29.30 45.50L29.30 56.74L24.34 56.74ZM38.38 56.74L33.62 56.74L33.62 45.50L38.38 45.50ZM45.00 71.06C43.42 69.55 36.86 63.86 34.34 61.99L34.34 61.49L43.13 61.49L43.13 48.38C44.35 49.46 45.79 50.90 46.44 51.77C48.53 48.53 50.18 44.35 51.48 39.74L62.35 39.74C61.63 44.28 60.77 48.96 59.90 52.20L64.22 54.29C65.81 49.46 67.39 41.83 68.62 35.28L64.87 33.77L63.94 34.13L52.92 34.13C53.50 31.10 54.00 27.86 54.43 24.70L48.89 23.76C47.95 32.18 46.15 40.39 43.13 46.15L43.13 40.82L34.34 40.82L34.34 35.71L44.50 35.71L44.50 30.31L34.34 30.31L34.34 23.11L28.51 23.11L28.51 30.31L18.72 30.31L18.72 35.71L28.51 35.71L28.51 40.82L19.73 40.82L19.73 61.49L27.94 61.49C25.06 67.61 20.38 74.02 15.91 77.62C16.92 79.20 18.29 81.65 18.94 83.38C22.39 80.42 25.78 75.89 28.51 70.92L28.51 89.21L34.34 89.21L34.34 68.47C36.79 71.06 39.60 74.09 40.90 75.89ZM56.88 45.14L51.34 45.14L51.34 50.26C51.34 58.90 50.83 73.80 38.38 85.61C39.74 86.40 41.83 88.13 42.77 89.35C48.89 83.09 52.42 76.25 54.36 69.62C56.81 77.62 60.26 83.52 65.74 89.06C66.53 87.34 68.18 85.61 69.62 84.46C62.50 77.76 58.97 70.13 56.59 57.10C56.81 54.58 56.88 52.27 56.88 50.26Z"/></svg>
