<svg xmlns="http://www.w3.org/2000/svg" xmlns:xlink="http://www.w3.org/1999/xlink" width="72.00000000000001" height="106.56000000000002"><path fill="red" stroke="red" d="M58.61 35.78L37.58 35.78L37.58 31.03L58.61 31.03ZM58.61 45.79L37.58 45.79L37.58 40.97L58.61 40.97ZM65.16 25.85L31.32 25.85L31.32 51.05L65.16 51.05ZM24.26 35.28C23.54 40.68 21.89 48.38 20.52 53.14L24.70 55.01C26.42 50.54 28.30 43.42 30.10 37.58ZM11.45 54.43C10.87 49.82 9.07 41.76 7.42 35.35L2.52 36.50C4.18 42.84 5.69 51.34 6.34 56.09ZM19.44 23.76L13.25 23.76L13.25 47.95C13.25 60.55 12.17 73.94 2.88 84.10C4.39 85.18 6.55 87.34 7.56 88.85C12.60 83.45 15.55 77.18 17.28 70.63C19.66 74.09 22.32 78.26 23.69 80.71L28.22 76.18C26.78 74.23 21.10 66.46 18.58 63.50C19.30 58.32 19.44 53.14 19.44 48.02ZM69.12 68.33L51.41 68.33L51.41 61.34L66.89 61.34L66.89 55.37L29.81 55.37L29.81 61.34L44.71 61.34L44.71 68.33L27.43 68.33L27.43 74.38L44.71 74.38L44.71 89.21L51.41 89.21L51.41 74.38L69.12 74.38Z"/></svg>
