<svg xmlns="http://www.w3.org/2000/svg" xmlns:xlink="http://www.w3.org/1999/xlink" width="72.00000000000001" height="106.56000000000002"><path fill="red" stroke="red" d="M56.09 37.08C54.07 40.90 51.26 45.14 48.53 48.17C50.04 48.96 52.20 50.40 53.42 51.34C57.60 46.73 62.42 39.53 65.16 33.70L60.77 30.82L59.69 31.10L45.14 31.10C46.01 29.02 46.80 26.71 47.52 24.55L41.26 22.97C38.23 33.05 32.98 42.77 26.57 48.82C28.08 49.75 30.89 51.70 31.97 52.78C35.86 48.67 39.46 43.20 42.48 37.08ZM23.83 33.55C23.11 38.66 21.38 46.15 19.94 50.90L23.83 52.49C25.63 48.17 27.72 41.04 29.81 35.57ZM12.60 54.50C11.81 49.82 9.79 41.62 7.92 35.21L3.02 37.01C4.75 43.42 6.70 51.84 7.42 56.81ZM19.22 23.90L13.25 23.90L13.25 48.24C13.25 60.98 12.17 74.45 2.52 84.67C3.96 85.75 6.05 87.91 6.98 89.35C12.17 83.95 15.19 77.69 16.92 70.99C19.44 74.52 22.32 78.84 23.76 81.43L28.30 76.61C26.93 74.59 20.88 66.60 18.36 63.79C19.08 58.68 19.22 53.42 19.22 48.24ZM48.67 53.21L48.67 58.75L60.12 58.75L60.12 66.31L49.39 66.31L49.39 71.71L60.12 71.71L60.12 79.92L36.07 79.92L36.07 71.71L46.94 71.71L46.94 66.24L36.07 66.24L36.07 58.03C40.32 56.59 44.71 54.72 48.38 52.92L43.56 48.38C40.18 50.62 34.56 53.28 29.59 55.08L29.59 88.85L36.07 88.85L36.07 85.46L60.12 85.46L60.12 88.85L66.60 88.85L66.60 53.21Z"/></svg>
