<svg xmlns="http://www.w3.org/2000/svg" xmlns:xlink="http://www.w3.org/1999/xlink" width="72.00000000000001" height="106.56000000000002"><path fill="red" stroke="red" d="M23.54 35.21C22.82 40.61 21.17 48.31 19.87 53.14L23.90 54.86C25.56 50.33 27.36 42.98 29.09 37.22ZM11.45 54.43C10.87 49.75 9.07 41.69 7.42 35.35L2.52 36.43C4.10 42.77 5.69 51.26 6.34 56.02ZM27.00 75.82C25.70 73.94 20.30 66.10 18.00 63.36C18.65 58.32 18.79 53.14 18.79 48.02L18.79 23.62L12.96 23.62L12.96 48.02C12.96 60.77 11.88 74.23 2.74 84.53C4.10 85.46 6.19 87.62 7.13 89.06C12.10 83.52 14.98 77.26 16.63 70.70C18.79 74.09 21.24 78.05 22.46 80.50ZM55.44 58.68C56.74 56.09 58.25 52.34 59.62 48.96L55.58 47.81C54.86 50.62 53.35 54.94 52.13 57.53ZM37.01 49.03C38.45 51.91 39.74 55.87 40.10 58.46L43.78 57.38C43.34 54.86 41.98 51.05 40.46 48.17ZM35.21 46.51L45.29 46.51L45.29 59.83L35.21 59.83ZM61.13 59.83L50.69 59.83L50.69 46.51L61.13 46.51ZM66.89 65.16L66.89 41.18L51.12 41.18L51.12 36.14L68.18 36.14L68.18 30.38L51.12 30.38L51.12 23.11L44.78 23.11L44.78 30.38L28.01 30.38L28.01 36.14L44.78 36.14L44.78 41.18L29.74 41.18L29.74 65.16L41.18 65.16C37.37 71.35 31.18 77.40 25.42 80.50C26.93 81.79 28.66 84.17 29.59 85.75C34.99 82.22 40.68 76.39 44.78 70.27L44.78 89.14L51.12 89.14L51.12 68.90C55.22 75.24 60.70 81.65 65.52 85.46C66.60 83.95 68.69 81.72 70.20 80.57C65.09 77.18 59.18 71.06 55.15 65.16Z"/></svg>
