<svg xmlns="http://www.w3.org/2000/svg" xmlns:xlink="http://www.w3.org/1999/xlink" width="72.00000000000001" height="106.56000000000002"><path fill="red" stroke="red" d="M10.01 89.57C13.18 85.82 16.56 79.78 18.79 74.74L12.31 73.01C10.15 78.05 6.55 83.52 3.46 86.76ZM24.34 75.38C25.20 79.70 25.70 85.39 25.78 88.78L32.47 87.77C32.40 84.46 31.61 78.98 30.67 74.66ZM24.34 33.98C23.26 36.14 21.96 38.38 20.66 40.25L10.58 40.25C12.31 38.23 13.82 36.14 15.19 33.98ZM37.87 58.03L37.87 52.20L32.62 52.20L32.62 40.25L27.29 40.25C29.30 37.22 31.39 33.77 32.90 30.74L28.80 28.15L27.79 28.44L18.36 28.44C19.15 26.93 19.87 25.49 20.52 23.98L14.26 22.97C12.10 28.30 8.21 34.99 2.52 40.03C3.89 40.75 5.90 42.34 6.98 43.63L6.98 46.15L26.06 46.15L26.06 52.20L3.17 52.20L3.17 58.03L26.06 58.03L26.06 64.80L6.84 64.80L6.84 70.63L32.62 70.63L32.62 58.03ZM38.95 75.24C40.75 79.49 42.41 85.18 42.98 88.63L49.75 87.19C49.10 83.74 47.23 78.26 45.29 74.09ZM69.12 66.74C66.53 63.36 62.57 59.04 58.25 54.65C60.62 50.18 62.42 45.07 63.65 39.17L67.97 39.17L67.97 33.19L47.74 33.19C48.96 30.38 50.11 27.50 50.98 24.41L44.64 23.04C42.41 31.25 38.16 38.81 32.69 43.63C34.20 44.64 36.58 47.02 37.66 48.10C40.18 45.72 42.48 42.62 44.64 39.17L57.02 39.17C56.09 43.13 55.01 46.73 53.50 49.90C50.76 47.30 48.10 44.71 45.65 42.48L40.97 46.15C43.92 48.89 47.09 52.13 50.26 55.37C46.44 60.77 41.26 64.80 34.34 67.61C35.57 68.83 37.80 71.64 38.45 72.94C45.22 69.77 50.62 65.59 54.72 60.19C58.46 64.22 61.78 68.11 63.86 71.14ZM53.57 75.02C57.02 79.56 60.91 85.68 62.57 89.57L69.12 86.62C67.25 82.73 63.07 76.68 59.62 72.43Z"/></svg>
