<svg xmlns="http://www.w3.org/2000/svg" xmlns:xlink="http://www.w3.org/1999/xlink" width="72.00000000000001" height="106.56000000000002"><path fill="red" stroke="red" d="M21.24 35.57C20.74 40.61 19.30 48.10 18.14 52.70L22.03 54.36C23.40 49.97 24.98 42.98 26.50 37.44ZM10.73 54.22C10.15 49.68 8.71 41.62 7.13 35.42L2.52 36.50C3.89 42.70 5.33 50.98 5.83 55.66ZM25.49 77.04C24.12 75.10 18.86 67.03 16.49 63.79C17.14 58.61 17.28 53.35 17.28 48.10L17.28 23.62L11.81 23.62L11.81 48.02C11.81 60.77 10.87 74.09 2.74 84.53C3.96 85.39 5.98 87.41 6.77 88.70C11.16 83.30 13.75 77.33 15.26 70.92C17.42 74.59 19.87 78.84 21.17 81.43ZM56.52 69.05C55.22 70.85 53.06 73.37 51.26 75.31L49.54 74.74L49.54 64.51L43.63 64.51L43.63 74.74C36.43 77.54 29.16 80.28 24.19 82.01L26.42 86.69C31.32 84.60 37.51 82.01 43.63 79.27L43.63 83.45C43.63 84.24 43.34 84.38 42.55 84.46C41.76 84.53 39.10 84.53 36.36 84.38C37.08 85.75 38.02 87.77 38.38 89.28C42.55 89.28 45.22 89.28 47.16 88.42C49.10 87.62 49.54 86.33 49.54 83.59L49.54 79.63C54.79 82.01 59.98 84.74 63.14 86.98L66.67 83.02C63.86 81.29 59.83 79.13 55.44 77.18C57.10 75.46 58.97 73.44 60.48 71.57ZM41.33 73.58C40.46 71.93 38.45 69.77 36.72 68.26L32.76 70.85C34.49 72.50 36.36 74.88 37.15 76.39ZM41.47 53.42L51.12 53.42L51.12 57.74L41.47 57.74ZM41.47 44.93L51.12 44.93L51.12 48.67L41.47 48.67ZM34.42 37.08L58.82 37.08L58.82 40.61L34.42 40.61ZM34.42 29.38L58.82 29.38L58.82 32.98L34.42 32.98ZM68.40 62.57L68.40 57.74L57.24 57.74L57.24 53.42L66.38 53.42L66.38 48.67L57.24 48.67L57.24 44.93L64.87 44.93L64.87 25.06L28.58 25.06L28.58 44.93L35.42 44.93L35.42 48.67L26.64 48.67L26.64 53.42L35.42 53.42L35.42 57.74L24.26 57.74L24.26 62.57L34.34 62.57C31.10 65.23 26.71 67.75 22.90 69.12C24.05 70.06 25.70 71.93 26.50 73.22C31.46 71.06 37.30 66.67 40.61 62.57L53.64 62.57C56.66 66.96 61.85 71.35 66.67 73.66C67.46 72.36 69.05 70.63 70.20 69.62C66.31 68.18 61.99 65.45 59.04 62.57Z"/></svg>
