<svg xmlns="http://www.w3.org/2000/svg" xmlns:xlink="http://www.w3.org/1999/xlink" width="72.00000000000001" height="106.56000000000002"><path fill="red" stroke="red" d="M10.22 55.94C9.86 50.98 8.71 42.34 7.42 35.57L2.59 36.43C3.74 43.20 4.75 52.06 5.04 57.24ZM39.31 30.24L39.31 34.34L32.11 34.34L32.11 30.24ZM32.11 42.98L32.11 38.74L39.31 38.74L39.31 42.98ZM44.50 47.66L44.50 25.56L26.64 25.56L26.64 36.58L21.89 34.99C21.02 39.31 19.44 45.58 17.93 49.68L17.93 48.53L17.93 23.90L12.17 23.90L12.17 48.53C12.17 61.13 11.23 74.45 2.88 84.89C4.18 85.82 6.34 87.98 7.20 89.42C11.95 83.74 14.54 77.33 16.13 70.63C18.22 73.94 20.52 77.83 21.74 80.21L26.14 75.67C24.77 73.80 19.37 65.88 17.28 63.29C17.71 59.04 17.86 54.79 17.93 50.62L21.53 52.06C23.18 48.82 24.84 43.63 26.64 38.95L26.64 89.14L32.11 89.14L32.11 47.66ZM50.76 68.54C51.55 67.39 52.49 65.52 53.42 63.86L50.90 62.78C50.54 63.94 49.68 66.24 48.96 67.68ZM39.74 63.65C40.39 65.09 41.11 67.03 41.40 68.33L43.85 67.39C43.49 66.24 42.77 64.30 42.05 62.93ZM39.02 61.92L44.86 61.92L44.86 69.19L39.02 69.19ZM53.86 69.19L48.24 69.19L48.24 61.92L53.86 61.92ZM58.82 79.06C56.52 77.33 52.34 74.59 48.96 72.58L57.38 72.58L57.38 58.54L48.82 58.54L48.82 55.87L58.75 55.87L58.75 52.06L48.82 52.06L48.82 48.53L44.14 48.53L44.14 52.06L34.34 52.06L34.34 55.87L44.14 55.87L44.14 58.54L35.57 58.54L35.57 72.58L42.91 72.58C40.54 75.74 37.01 78.91 33.84 80.64C34.85 81.43 36.22 82.87 36.94 83.95C39.31 82.37 41.98 79.85 44.14 77.04L44.14 86.47L48.74 86.47L48.74 77.26C51.48 79.06 54.22 81.00 55.94 82.30ZM53.42 42.98L53.42 38.74L60.84 38.74L60.84 42.98ZM60.84 30.24L60.84 34.34L53.42 34.34L53.42 30.24ZM66.38 25.56L48.24 25.56L48.24 47.66L60.84 47.66L60.84 83.30C60.84 84.02 60.62 84.24 59.98 84.24C59.40 84.24 57.89 84.31 56.02 84.24C56.66 85.54 57.46 87.77 57.67 89.14C60.70 89.14 62.86 88.99 64.44 88.13C65.88 87.19 66.38 85.90 66.38 83.30Z"/></svg>
