<svg xmlns="http://www.w3.org/2000/svg" xmlns:xlink="http://www.w3.org/1999/xlink" width="72.00000000000001" height="106.56000000000002"><path fill="red" stroke="red" d="M64.15 44.64C60.77 39.67 53.50 32.69 47.45 27.86L41.90 30.67C44.21 32.62 46.66 34.85 48.89 37.08L21.31 38.23C26.42 34.70 31.54 30.31 36.14 25.85L29.38 22.68C24.34 28.58 16.99 34.27 14.76 35.78C12.60 37.37 10.87 38.38 9.36 38.66C10.08 40.46 11.16 43.85 11.45 45.22C14.18 44.14 18.14 44.14 53.78 42.26C55.58 44.28 57.17 46.30 58.25 47.95ZM68.04 68.18L39.67 68.18L39.67 59.11L62.35 59.11L62.35 52.92L39.67 52.92L39.67 45.14L32.76 45.14L32.76 52.92L20.88 52.92C21.89 50.83 22.82 48.67 23.54 46.51L16.78 44.93C14.47 51.77 10.58 58.68 6.12 63.07C7.85 63.94 10.80 65.59 12.24 66.60C14.04 64.58 15.91 61.92 17.57 59.11L32.76 59.11L32.76 68.18L4.10 68.18L4.10 74.38L32.76 74.38L32.76 89.06L39.67 89.06L39.67 74.38L68.04 74.38Z"/></svg>
