<svg xmlns="http://www.w3.org/2000/svg" xmlns:xlink="http://www.w3.org/1999/xlink" width="72.00000000000001" height="106.56000000000002"><path fill="red" stroke="red" d="M21.89 24.70C20.52 27.14 18.72 29.74 16.56 32.26C14.69 29.66 12.31 27.14 9.29 24.55L4.39 28.30C7.78 31.18 10.30 34.06 12.17 37.22C9.14 40.25 5.90 42.91 2.88 44.78C4.32 46.30 5.98 49.03 6.91 50.76C9.58 48.74 12.38 46.15 15.19 43.27C15.98 45.79 16.63 48.31 16.99 50.98C13.54 57.10 7.78 63.43 2.45 66.60C3.89 67.97 5.47 70.63 6.34 72.29C10.22 69.41 14.26 65.16 17.64 60.55L17.64 61.42C17.64 70.27 17.06 77.98 15.41 80.14C14.83 80.93 14.18 81.29 13.03 81.36C11.45 81.58 8.78 81.65 5.18 81.36C6.41 83.30 7.13 85.90 7.13 88.06C10.51 88.20 13.61 88.20 16.20 87.62C18.00 87.26 19.37 86.47 20.45 85.03C23.54 80.86 24.34 71.57 24.34 61.56C24.34 53.28 23.69 45.29 19.94 37.80C22.68 34.42 25.13 31.03 26.93 27.86ZM35.21 44.78L56.59 44.78L56.59 52.27L35.21 52.27ZM56.59 32.04L56.59 39.31L35.21 39.31L35.21 32.04ZM62.21 59.90C59.54 62.42 55.30 65.74 51.70 68.04C49.82 65.09 48.17 61.70 46.94 58.10L63.07 58.10L63.07 26.21L28.87 26.21L28.87 78.34C28.87 81.36 27.29 82.94 26.06 83.59C27.00 84.74 28.37 87.34 28.80 88.78C30.38 87.77 32.83 86.83 48.24 82.87C48.02 81.36 47.88 78.70 47.95 76.90L35.21 79.92L35.21 58.10L40.75 58.10C45.00 72.14 52.42 82.66 64.87 87.77C65.81 85.90 67.90 83.23 69.34 81.94C63.58 79.92 58.82 76.68 55.08 72.50C58.75 70.34 63.07 67.46 66.60 64.51Z"/></svg>
