<svg xmlns="http://www.w3.org/2000/svg" xmlns:xlink="http://www.w3.org/1999/xlink" width="72.00000000000001" height="106.56000000000002"><path fill="red" stroke="red" d="M17.50 34.27C16.56 31.68 14.62 27.22 12.96 23.98L7.92 26.06C9.43 29.45 11.38 34.06 12.17 36.79ZM16.49 56.95L16.49 55.22L16.49 43.70L22.82 43.70L22.82 56.95ZM35.28 63.07L35.28 56.95L28.58 56.95L28.58 43.70L33.98 43.70L33.98 37.66L26.78 37.66C28.44 34.20 30.38 29.81 32.11 25.99L26.06 23.47C24.98 27.72 22.90 33.62 21.02 37.66L4.97 37.66L4.97 43.70L10.73 43.70L10.73 55.15L10.73 56.95L3.67 56.95L3.67 63.07L10.44 63.07C9.86 70.56 8.14 78.84 3.24 85.25C4.54 85.90 6.91 88.06 7.85 89.21C13.46 81.86 15.48 71.86 16.20 63.07L22.82 63.07L22.82 88.56L28.58 88.56L28.58 63.07ZM62.28 82.44C61.99 82.44 61.78 82.37 61.56 82.08C61.42 81.79 61.42 80.86 61.42 79.06L61.42 42.41L45.00 42.41C45.22 39.24 45.36 36.14 45.50 33.19L67.39 33.19L67.39 27.22L33.34 27.22L33.34 33.19L39.46 33.19C38.95 48.96 37.58 68.98 36.14 81.43L32.33 82.08L33.98 88.20C39.24 87.05 45.72 85.68 52.13 84.31L51.70 78.84C48.53 79.42 45.36 79.92 42.41 80.50C43.27 71.86 43.99 60.05 44.71 48.38L55.66 48.38L55.66 78.77C55.66 83.95 55.94 85.18 56.95 86.26C57.82 87.26 59.33 87.70 60.62 87.70L63.36 87.70C64.51 87.70 65.81 87.41 66.60 86.69C67.32 85.97 67.82 84.96 68.18 83.38C68.40 81.86 68.62 77.62 68.69 74.38C67.39 74.02 65.88 73.15 64.87 72.29C64.87 75.89 64.73 78.70 64.66 79.99C64.51 81.14 64.37 81.79 64.22 82.15C63.94 82.37 63.58 82.44 63.22 82.44ZM54.50 70.70C53.57 66.31 51.41 59.62 49.39 54.58L44.93 55.73C46.80 60.91 48.89 67.75 49.75 72.07Z"/></svg>
