<svg xmlns="http://www.w3.org/2000/svg" xmlns:xlink="http://www.w3.org/1999/xlink" width="72.00000000000001" height="106.56000000000002"><path fill="red" stroke="red" d="M41.26 34.63L41.26 34.92C41.26 39.60 39.38 46.15 20.52 49.75C21.82 51.05 23.54 53.28 24.26 54.86C36.14 52.27 42.05 48.38 44.93 44.21C51.48 47.45 59.47 51.62 63.65 54.29L66.60 48.82C62.14 46.30 53.64 42.26 47.09 39.24C47.45 37.80 47.52 36.43 47.52 35.14L47.52 34.63L58.03 34.63C57.10 36.79 56.09 38.95 55.15 40.54L60.62 42.55C62.64 39.38 64.94 34.49 66.82 30.10L61.99 28.58L60.91 28.87L38.38 28.87C39.10 27.29 39.67 25.78 40.18 24.19L33.91 22.90C31.90 29.23 28.15 35.42 23.54 39.38C25.13 40.10 27.72 41.98 28.94 43.06C31.18 40.75 33.41 37.87 35.35 34.63ZM22.82 28.30L5.18 28.30L5.18 33.91L22.82 33.91ZM24.55 41.90L3.60 41.90L3.60 47.74L24.55 47.74ZM56.02 82.94C54.29 82.94 53.93 82.73 53.93 80.78L53.93 64.87L24.91 64.87L26.21 60.34L67.10 60.34L67.10 55.01L4.97 55.01L4.97 60.34L19.22 60.34C17.35 67.61 14.76 76.39 12.53 82.80L6.70 83.16L7.63 88.85C16.92 88.13 30.31 87.12 42.84 86.04L42.91 80.93C34.99 81.43 26.86 81.94 19.66 82.37C20.45 79.99 21.24 77.40 22.10 74.66C27.50 76.10 36.43 78.70 39.89 79.92L41.54 74.88C38.88 74.09 28.22 72.00 23.11 71.14L23.47 69.84L47.23 69.84L47.23 80.86C47.23 86.90 48.96 88.56 54.94 88.56L62.06 88.56C67.18 88.56 68.83 86.18 69.41 77.18C67.75 76.75 65.09 75.82 63.65 74.74C63.50 81.79 63.14 82.94 61.42 82.94Z"/></svg>
