<svg xmlns="http://www.w3.org/2000/svg" xmlns:xlink="http://www.w3.org/1999/xlink" width="72.00000000000001" height="106.56000000000002"><path fill="red" stroke="red" d="M28.51 51.98L28.51 59.04L20.02 59.04L20.02 51.98ZM43.42 59.04L34.42 59.04L34.42 51.98L43.42 51.98ZM34.42 72.00L34.42 64.22L43.42 64.22L43.42 72.00ZM20.02 64.22L28.51 64.22L28.51 72.00L20.02 72.00ZM23.69 32.98C24.91 30.31 26.14 27.58 27.07 24.70L20.23 22.97C16.42 34.34 9.94 45.07 2.09 51.77C3.74 52.92 6.55 55.22 7.78 56.52C9.86 54.43 11.88 52.13 13.82 49.61L13.82 82.01L20.02 82.01L20.02 77.54L49.75 77.54L49.75 46.37L16.13 46.37C17.57 44.28 18.94 41.90 20.30 39.60L59.69 39.60C58.82 67.54 57.74 78.91 55.22 81.43C54.43 82.37 53.50 82.58 51.98 82.58C50.04 82.58 45.29 82.58 40.10 82.15C41.47 84.17 42.41 87.19 42.55 89.21C47.16 89.35 51.98 89.57 54.72 89.14C57.82 88.78 59.62 88.06 61.49 85.54C64.66 81.72 65.52 69.91 66.60 36.43C66.67 35.50 66.67 32.98 66.67 32.98Z"/></svg>
