<svg xmlns="http://www.w3.org/2000/svg" xmlns:xlink="http://www.w3.org/1999/xlink" width="72.00000000000001" height="106.56000000000002"><path fill="red" stroke="red" d="M13.03 49.10C12.53 45.50 10.66 39.82 8.50 35.28L3.60 37.30C5.62 41.83 7.34 47.81 7.78 51.48ZM55.01 56.30L55.01 59.18L31.61 59.18L31.61 56.30ZM31.39 65.74C31.46 64.73 31.54 63.79 31.61 62.78L55.01 62.78L55.01 65.74ZM56.74 77.47L56.74 82.66L35.42 82.66L35.42 77.47ZM61.06 69.91L61.06 52.20L25.63 52.20L25.63 60.70C25.63 67.90 24.62 77.76 17.50 84.96C18.79 85.75 21.24 87.98 22.18 89.21C25.78 85.54 28.01 81.14 29.45 76.61L29.45 89.28L35.42 89.28L35.42 86.98L56.74 86.98L56.74 89.14L62.93 89.14L62.93 73.15L30.38 73.15C30.67 72.07 30.82 70.99 30.96 69.91ZM36.58 46.37C39.10 44.93 41.54 43.49 43.56 41.69C45.79 43.42 48.46 44.93 51.19 46.37ZM42.77 34.78C38.45 40.18 29.45 44.42 19.66 47.02L19.66 34.70L67.39 34.70L67.39 29.02L44.35 29.02C43.49 27.07 42.05 24.70 40.61 22.97L34.70 24.70C35.57 25.99 36.43 27.50 37.22 29.02L13.25 29.02L13.25 52.06C13.25 53.64 13.25 55.22 13.18 56.81C9.07 59.18 5.26 61.49 2.45 62.78L4.54 68.83C7.20 67.10 9.94 65.38 12.67 63.50C11.74 70.99 9.58 78.77 4.18 84.67C5.54 85.54 8.06 87.98 9.07 89.28C18.22 79.42 19.66 63.36 19.66 52.13L19.66 47.38C20.88 48.46 22.39 50.47 23.18 51.70C27.29 50.54 31.25 49.03 34.85 47.30L34.85 49.97L51.26 49.97L51.26 46.37C55.73 48.60 60.55 50.47 65.09 51.62C65.95 50.04 67.75 47.66 69.12 46.44C61.34 44.93 52.49 41.76 47.16 38.16C47.59 37.66 48.02 37.15 48.38 36.65Z"/></svg>
