<svg xmlns="http://www.w3.org/2000/svg" xmlns:xlink="http://www.w3.org/1999/xlink" width="72.00000000000001" height="106.56000000000002"><path fill="red" stroke="red" d="M8.14 34.85L29.95 33.34C31.39 35.35 33.12 37.01 35.06 38.59C27.22 40.32 18.22 41.69 10.01 42.55C10.58 43.63 11.09 45.29 11.30 46.37C20.66 45.36 30.74 43.92 39.74 41.69C45.36 44.86 51.91 46.66 57.89 46.66C62.93 46.66 64.87 45.00 65.66 38.09C64.30 37.66 62.57 36.94 61.49 36.07C61.13 40.61 60.48 41.76 57.96 41.83C54.36 41.90 50.40 41.11 46.66 39.82C50.83 38.45 54.58 36.86 57.60 35.14L52.99 32.26C50.04 34.13 45.94 35.71 41.11 37.08C39.17 35.93 37.37 34.56 35.78 32.98L63.36 31.18L62.93 27.00L49.32 27.86L50.69 25.56C47.88 24.48 42.84 23.18 38.95 22.61L37.01 25.70C39.82 26.21 43.42 27.14 46.15 28.01L32.47 28.87C31.39 27.14 30.60 25.13 30.17 23.11L25.34 23.11C25.70 25.27 26.42 27.29 27.36 29.23L7.63 30.46ZM29.02 54.58C30.89 56.74 33.05 58.61 35.42 60.34C27.22 61.92 17.71 62.86 9.00 63.43C9.58 64.51 10.15 66.10 10.30 67.25C20.38 66.67 31.18 65.52 40.54 63.36C46.87 66.60 54.14 68.40 60.19 68.40C65.59 68.40 67.75 66.74 68.62 59.33C67.10 59.04 65.30 58.32 64.08 57.38C63.65 62.14 63.00 63.36 60.34 63.43C56.52 63.50 52.13 62.71 48.02 61.27C52.34 59.83 56.23 58.03 59.18 55.80L53.86 53.71C51.19 55.73 47.16 57.46 42.19 58.75C39.74 57.53 37.51 55.94 35.50 54.29L65.16 52.49L64.73 48.38L45.07 49.46L46.51 46.94C43.56 45.86 38.23 44.42 34.20 43.70L32.26 46.80C35.50 47.38 39.53 48.53 42.55 49.54L31.68 50.11C30.60 48.46 29.74 46.73 29.23 44.93L24.12 44.93C24.41 46.80 25.13 48.67 26.06 50.40L6.62 51.41L7.06 55.94ZM18.65 74.45L26.14 74.45L26.14 82.08L18.65 82.08ZM39.82 74.45L39.82 82.08L32.26 82.08L32.26 74.45ZM53.57 74.45L53.57 82.08L45.94 82.08L45.94 74.45ZM60.05 82.08L60.05 69.41L12.38 69.41L12.38 82.08L3.17 82.08L3.17 87.19L68.90 87.19L68.90 82.08Z"/></svg>
