<svg xmlns="http://www.w3.org/2000/svg" xmlns:xlink="http://www.w3.org/1999/xlink" width="72.00000000000001" height="106.56000000000002"><path fill="red" stroke="red" d="M16.99 39.53L16.99 34.34C23.76 34.06 30.82 33.70 37.80 33.12C37.66 35.21 37.58 37.37 37.44 39.53ZM56.16 61.56L28.66 61.56L28.66 56.81L56.16 56.81ZM28.66 81.07L28.66 76.03L56.16 76.03L56.16 81.07ZM28.66 66.24L56.16 66.24L56.16 71.35L28.66 71.35ZM68.90 45.36L68.90 39.53L44.57 39.53C44.78 37.08 45.00 34.70 45.14 32.47C52.49 31.68 59.40 30.67 65.16 29.52L60.12 24.12C48.46 26.71 27.58 28.22 10.01 28.80L10.01 53.42C10.01 63.14 9.50 76.03 3.31 84.74C4.75 85.54 7.70 88.13 8.71 89.50C15.77 79.85 16.99 64.15 16.99 53.35L16.99 45.36L37.01 45.36C36.86 47.59 36.65 49.61 36.43 51.48L22.03 51.48L22.03 89.14L28.66 89.14L28.66 86.40L56.16 86.40L56.16 89.14L63.07 89.14L63.07 51.48L43.20 51.48C43.42 49.61 43.70 47.59 43.92 45.36Z"/></svg>
