<svg xmlns="http://www.w3.org/2000/svg" xmlns:xlink="http://www.w3.org/1999/xlink" width="72.00000000000001" height="106.56000000000002"><path fill="red" stroke="red" d="M19.80 33.19L19.80 42.05L11.09 42.05L11.09 33.19ZM11.09 71.64L11.09 62.42L19.80 62.42L19.80 71.64ZM11.09 47.74L19.80 47.74L19.80 56.74L11.09 56.74ZM26.06 27.36L4.97 27.36L4.97 83.59L11.09 83.59L11.09 77.62L26.06 77.62ZM69.26 85.82C67.68 80.42 63.36 72.36 59.18 66.10L53.50 68.26C55.37 71.06 57.17 74.38 58.82 77.54L38.66 79.20C47.30 70.78 56.02 60.12 63.50 48.67L57.38 45.43C55.37 48.96 52.99 52.49 50.62 55.80L38.74 56.45C42.55 51.70 46.37 46.08 49.46 40.32L68.69 40.32L68.69 34.20L49.68 34.20L52.99 32.47C51.91 29.81 49.46 25.70 47.30 22.61L41.83 25.20C43.63 27.94 45.58 31.46 46.73 34.20L28.22 34.20L28.22 40.32L42.05 40.32C38.88 46.44 35.06 51.98 33.70 53.71C31.97 55.80 30.67 57.24 29.30 57.53C30.02 59.18 31.03 62.28 31.32 63.65C31.32 63.58 31.32 63.43 31.39 63.36L31.39 63.65C32.83 63.07 34.99 62.71 46.08 61.85C41.40 67.97 37.08 72.79 35.06 74.66C31.75 78.05 29.59 80.14 27.58 80.57C28.37 82.37 29.52 85.54 29.88 86.83C32.18 85.90 35.50 85.54 61.34 83.16C62.14 85.03 62.71 86.76 63.07 88.27Z"/></svg>
