<svg xmlns="http://www.w3.org/2000/svg" xmlns:xlink="http://www.w3.org/1999/xlink" width="72.00000000000001" height="106.56000000000002"><path fill="red" stroke="red" d="M41.33 51.62C40.90 56.16 40.25 60.19 39.46 63.72C37.58 62.14 35.42 60.48 33.19 58.90C34.13 56.66 34.92 54.14 35.64 51.62ZM19.73 74.45L13.54 74.45L13.54 54.58L19.73 54.58ZM42.77 46.01L37.01 46.01C37.37 44.35 37.66 42.70 37.94 41.04L34.06 40.39L34.06 35.78L62.35 35.78L62.35 42.48L68.26 42.48L68.26 29.95L52.85 29.95C52.13 27.79 50.90 24.98 49.82 22.90L43.42 24.62C44.14 26.21 44.93 28.15 45.50 29.95L28.44 29.95L28.44 42.62L32.26 42.62C30.89 50.69 28.51 58.32 24.91 63.43L24.91 48.67L13.97 48.67C15.70 43.70 17.06 38.38 18.14 32.90L25.92 32.90L25.92 26.78L3.24 26.78L3.24 32.90L11.88 32.90C9.94 43.13 6.84 52.49 2.09 58.97C3.02 60.77 4.39 64.80 4.75 66.53C5.90 65.09 6.91 63.65 7.92 61.99L7.92 85.90L13.54 85.90L13.54 80.35L24.91 80.35L24.91 63.79C25.99 64.94 27.58 67.32 28.22 68.40C29.23 67.03 30.02 65.59 30.89 64.01C33.26 65.88 35.78 68.11 37.58 69.91C34.99 77.04 31.25 81.86 26.21 85.18C27.43 85.97 29.52 88.20 30.31 89.57C40.03 82.94 45.72 69.70 47.30 46.51L43.85 45.86ZM57.10 83.30C56.30 83.30 55.66 83.23 55.22 82.94C54.72 82.66 54.58 81.58 54.58 79.78L54.58 50.26L61.06 50.26L61.06 65.88C61.06 66.53 60.91 66.67 60.19 66.74C59.47 66.74 57.38 66.74 54.94 66.67C55.66 68.18 56.30 70.34 56.52 71.86C60.19 71.86 62.64 71.78 64.37 70.92C66.02 69.98 66.46 68.47 66.46 65.88L66.46 44.78L49.18 44.78L49.18 79.34C49.18 84.60 49.82 85.82 51.05 86.83C52.34 87.77 54.36 88.20 56.02 88.20L60.98 88.20C62.50 88.20 64.22 87.98 65.38 87.48C66.67 87.05 67.61 86.18 68.11 84.74C68.62 83.38 68.98 79.92 69.12 76.90C67.39 76.39 65.38 75.46 64.15 74.38C64.08 77.62 63.94 80.14 63.72 81.29C63.50 82.30 63.07 82.80 62.57 83.02C62.14 83.16 61.27 83.30 60.41 83.30Z"/></svg>
