<svg xmlns="http://www.w3.org/2000/svg" xmlns:xlink="http://www.w3.org/1999/xlink" width="72.00000000000001" height="106.56000000000002"><path fill="red" stroke="red" d="M25.92 61.27C24.84 59.76 20.16 53.93 18.07 51.62L18.07 49.54L25.56 49.54L25.56 43.42L18.07 43.42L18.07 31.90C20.95 31.18 23.69 30.31 26.06 29.30L21.60 24.55C17.21 26.57 9.58 28.30 2.81 29.38C3.60 30.82 4.39 32.98 4.68 34.34C7.06 34.06 9.50 33.70 12.02 33.19L12.02 43.42L3.38 43.42L3.38 49.54L11.52 49.54C9.29 57.10 5.54 65.74 1.94 70.78C2.95 72.43 4.46 75.17 5.11 77.04C7.56 73.44 10.01 68.11 12.02 62.50L12.02 89.21L18.07 89.21L18.07 58.32C19.87 61.13 21.74 64.37 22.68 66.24ZM60.41 41.47L57.60 43.78C59.54 44.78 61.92 46.44 63.50 47.81L56.16 47.81C56.09 45.79 56.02 43.70 56.02 41.47ZM62.93 56.09C61.78 60.55 60.19 64.80 58.03 68.83C57.31 64.51 56.74 59.26 56.38 52.99L68.40 52.99L68.40 47.81L64.94 47.81L67.68 45.36C66.38 44.06 64.01 42.55 61.85 41.47L68.26 41.47L68.26 36.29L51.70 36.29L51.70 31.90L64.73 31.90L64.73 27.22L51.70 27.22L51.70 23.04L45.43 23.04L45.43 36.29L38.59 36.29L38.59 25.78L32.69 25.78L32.69 36.29L26.06 36.29L26.06 41.47L49.90 41.47C49.97 43.63 50.04 45.79 50.18 47.81L26.50 47.81L26.50 59.40C26.50 67.10 25.70 77.62 19.73 85.25C20.95 85.97 23.33 87.98 24.19 89.06C30.74 80.71 32.04 68.18 32.04 59.47L32.04 52.99L50.47 52.99C50.76 57.46 51.19 61.49 51.70 65.16L47.52 64.01C46.66 66.74 45.50 69.34 43.99 71.78L43.99 60.77L48.74 60.77L48.74 56.38L34.56 56.38L34.56 60.77L39.96 60.77L39.96 77.33C37.44 80.21 34.49 82.66 31.25 84.67C32.33 85.46 34.06 87.19 34.78 88.20C42.84 83.09 48.67 75.10 51.77 65.81C52.34 69.55 52.92 72.79 53.71 75.67C50.76 79.56 47.38 82.94 43.42 85.68C44.64 86.47 46.44 88.27 47.23 89.35C50.33 87.05 53.14 84.46 55.58 81.50C57.67 86.47 60.26 89.06 63.36 89.06C67.39 89.06 69.26 87.12 69.91 77.62C68.62 77.11 66.89 75.96 65.81 74.74C65.52 81.07 64.94 83.02 63.79 83.02C62.50 83.02 60.98 80.64 59.62 75.96C63.22 70.42 65.88 64.08 67.68 57.24ZM35.57 64.15C34.78 68.11 33.34 71.93 30.82 74.66C31.90 75.17 33.70 76.25 34.42 76.90C36.86 73.94 38.74 69.48 39.74 64.80Z"/></svg>
