<svg xmlns="http://www.w3.org/2000/svg" xmlns:xlink="http://www.w3.org/1999/xlink" width="72.00000000000001" height="106.56000000000002"><path fill="red" stroke="red" d="M14.83 66.10L28.80 66.10L28.80 68.76C23.98 69.12 19.22 69.41 14.83 69.70ZM28.80 52.42L28.80 55.80L14.83 55.80L14.83 52.42ZM28.80 62.64L14.83 62.64L14.83 59.26L28.80 59.26ZM34.63 64.73L34.63 48.53L24.34 48.53C24.98 47.38 25.70 46.22 26.50 44.86L21.46 43.92C28.66 41.90 31.39 38.59 32.47 33.19L39.74 33.19L39.74 38.02C39.74 42.62 40.97 44.64 46.44 44.64L58.03 44.64C60.34 44.64 62.78 44.57 64.01 44.21C63.79 42.91 63.65 41.33 63.50 39.82C62.21 40.10 59.40 40.25 57.74 40.25L47.23 40.25C45.50 40.25 45.22 39.67 45.22 38.09L45.22 33.19L59.54 33.19L59.54 39.10L66.53 39.10L66.53 28.01L40.39 28.01C39.67 26.35 38.81 24.55 37.94 23.11L31.10 24.34C31.61 25.49 32.18 26.71 32.69 28.01L5.54 28.01L5.54 39.46L12.24 39.46L12.24 33.19L26.71 33.19C25.34 38.30 21.10 40.10 6.91 40.97C7.92 42.19 9.29 44.50 9.72 45.94C13.82 45.50 17.21 45.00 19.94 44.28C19.58 45.58 18.94 47.16 18.29 48.53L9.22 48.53L9.22 70.06L4.54 70.34L5.18 74.74C10.15 74.38 16.34 73.87 22.82 73.37C16.78 77.18 10.08 80.42 3.89 82.66C4.61 83.81 5.98 86.33 6.41 87.48C13.68 84.38 21.82 79.99 28.80 74.95L28.80 82.58C28.80 83.38 28.51 83.66 27.58 83.66C26.78 83.74 23.83 83.74 20.81 83.66C21.60 84.96 22.68 87.19 23.04 88.70C27.29 88.70 30.24 88.56 32.11 87.70C34.06 86.76 34.63 85.39 34.63 82.51L34.63 70.27C36.00 69.05 37.22 67.82 38.38 66.67ZM44.50 67.61C44.86 65.81 45.22 63.86 45.58 61.99L63.94 61.99L63.94 47.02L38.66 47.02L38.66 51.77L57.74 51.77L57.74 57.31L40.32 57.31C39.60 62.35 38.30 68.40 37.22 72.65L59.83 72.65C59.04 79.06 58.03 82.08 56.88 82.94C56.16 83.59 55.51 83.66 54.07 83.66C52.63 83.66 48.74 83.59 44.93 83.23C45.94 84.74 46.58 86.98 46.73 88.63C50.76 88.85 54.65 88.85 56.66 88.70C59.04 88.63 60.62 88.13 62.14 86.76C64.08 84.89 65.38 80.42 66.53 70.20C66.67 69.34 66.82 67.61 66.82 67.61Z"/></svg>
