<svg xmlns="http://www.w3.org/2000/svg" xmlns:xlink="http://www.w3.org/1999/xlink" width="72.00000000000001" height="106.56000000000002"><path fill="red" stroke="red" d="M39.24 32.98L39.24 36.29C39.24 40.54 40.25 42.77 45.72 42.77L57.24 42.77C59.54 42.77 62.28 42.70 63.43 42.34C63.14 40.82 63.14 39.60 62.93 37.94C61.78 38.23 58.54 38.38 56.81 38.38L47.59 38.38C45.79 38.38 45.65 37.80 45.65 36.36L45.65 32.98L60.84 32.98L60.84 37.87L67.54 37.87L67.54 28.08L40.18 28.08C39.53 26.28 38.66 24.19 37.80 22.54L30.82 23.76C31.46 25.06 32.04 26.57 32.54 28.08L4.75 28.08L4.75 38.38L11.23 38.38L11.23 32.98L24.77 32.98C22.18 36.65 17.21 38.74 6.41 40.03C7.56 41.04 9.00 42.77 9.43 44.06C22.46 42.19 28.94 39.38 32.18 32.98ZM38.02 62.50C41.33 61.56 44.57 60.48 47.66 59.18C50.90 60.55 54.36 61.63 58.03 62.50ZM53.93 49.97C52.06 51.55 49.75 52.92 47.23 54.14C44.50 52.92 42.12 51.55 40.18 49.97ZM50.76 80.28L62.93 80.28L62.93 76.68L50.76 76.68L50.76 73.22L65.02 73.22L65.02 69.34L50.76 69.34L50.76 66.10L59.47 66.10L59.47 62.86C61.70 63.36 63.94 63.79 66.24 64.08C66.96 62.71 68.40 60.62 69.48 59.47C63.94 58.90 58.32 57.82 53.28 56.30C57.10 54.07 60.34 51.41 62.64 48.10L58.97 45.86L57.89 46.15L43.70 46.15C44.42 45.43 45.14 44.64 45.79 43.92L40.82 42.26C37.37 46.37 31.32 50.11 25.34 52.49C26.71 53.21 28.80 54.72 29.81 55.66C31.82 54.65 33.98 53.57 36.00 52.20C37.73 53.71 39.74 55.08 41.90 56.38C36.58 58.18 30.67 59.54 25.13 60.34C26.06 61.42 27.36 63.43 27.94 64.66C30.74 64.22 33.62 63.65 36.43 62.93L36.43 66.10L44.78 66.10L44.78 69.34L37.37 69.34C37.80 68.54 38.16 67.75 38.52 67.03L33.41 65.81C31.97 69.05 29.45 72.36 26.64 74.81C26.71 74.16 26.71 73.51 26.71 72.86C26.71 69.48 25.42 65.59 20.81 61.20C22.90 57.02 25.27 51.70 27.14 47.30L22.90 45.00L21.96 45.29L6.70 45.29L6.70 89.14L12.74 89.14L12.74 49.97L19.73 49.97C18.50 53.71 16.78 58.18 15.05 61.99C19.58 66.02 20.88 69.62 20.88 72.29C20.88 74.02 20.52 75.24 19.66 75.82C19.08 76.10 18.50 76.32 17.78 76.32C16.78 76.32 15.55 76.32 14.26 76.18C15.05 77.69 15.62 79.92 15.70 81.50C17.35 81.58 19.01 81.58 20.30 81.36C21.60 81.22 22.75 80.86 23.76 80.14C25.27 79.06 26.21 77.47 26.57 75.17C27.86 75.89 29.66 77.26 30.53 77.98C32.04 76.68 33.55 75.02 34.85 73.22L44.78 73.22L44.78 76.68L33.34 76.68L33.34 80.28L44.78 80.28L44.78 83.95L26.57 83.95L26.57 88.13L68.04 88.13L68.04 83.95L50.76 83.95Z"/></svg>
