<svg xmlns="http://www.w3.org/2000/svg" xmlns:xlink="http://www.w3.org/1999/xlink" width="72.00000000000001" height="106.56000000000002"><path fill="red" stroke="red" d="M66.31 26.64L59.90 26.64L59.90 38.30L50.83 38.30L50.83 23.26L44.42 23.26L44.42 38.30L36.00 38.30L36.00 26.64L29.88 26.64L29.88 44.14L66.31 44.14ZM10.51 25.56C12.31 28.80 14.26 33.19 15.05 36.14L20.95 34.06C20.09 31.25 18.07 27.00 16.20 23.83ZM27.65 36.14L3.67 36.14L3.67 42.34L27.65 42.34ZM13.68 70.20C13.46 63.36 12.31 53.35 10.80 45.43L5.76 46.37C7.13 54.14 8.28 64.37 8.42 71.14ZM21.38 71.64C22.97 64.37 24.62 54.07 25.78 45.94L20.02 44.93C19.37 53.28 17.86 65.23 16.34 72.86C11.38 74.02 6.62 75.02 3.10 75.74L4.54 82.37C11.23 80.71 19.80 78.55 28.01 76.46L27.29 70.27ZM68.62 54.65L68.62 48.67L26.93 48.67L26.93 54.65L43.56 54.65C43.34 56.59 42.91 58.46 42.55 60.26L28.87 60.26L28.87 89.14L34.92 89.14L34.92 65.95L40.10 65.95L40.10 88.49L45.29 88.49L45.29 65.95L50.69 65.95L50.69 88.34L55.94 88.34L55.94 65.95L61.34 65.95L61.34 83.23C61.34 83.88 61.13 84.10 60.55 84.10C59.98 84.10 58.39 84.10 56.66 84.02C57.31 85.46 58.10 87.77 58.32 89.35C61.42 89.35 63.58 89.21 65.23 88.34C66.82 87.41 67.18 85.97 67.18 83.38L67.18 60.26L49.25 60.26C49.90 58.46 50.54 56.59 51.19 54.65Z"/></svg>
