<svg xmlns="http://www.w3.org/2000/svg" xmlns:xlink="http://www.w3.org/1999/xlink" width="72.00000000000001" height="106.56000000000002"><path fill="red" stroke="red" d="M68.90 28.01L48.17 28.01C48.74 26.71 49.18 25.42 49.61 24.05L43.49 22.61C41.62 28.66 38.09 34.56 33.91 38.38C35.42 39.31 37.94 41.26 38.95 42.34C41.26 40.10 43.42 37.08 45.29 33.77L51.84 33.77L48.89 36.14C50.90 38.16 53.28 40.75 54.86 42.84L25.42 42.84L29.30 39.31C28.01 37.73 25.63 35.57 23.47 33.70L35.42 33.70L35.42 28.01L17.93 28.01C18.65 26.71 19.22 25.56 19.80 24.26L13.90 22.54C11.52 28.15 7.42 33.77 3.02 37.37C4.39 38.45 6.62 40.75 7.56 41.98C10.01 39.82 12.38 36.86 14.47 33.70L20.38 33.70L17.78 35.86C20.23 37.94 23.18 40.82 24.77 42.84L9.22 42.84L9.22 87.19L66.31 87.19L66.31 81.94L15.91 81.94L15.91 48.10L64.58 48.10L64.58 42.84L56.81 42.84L60.12 40.03C58.90 38.30 56.52 35.78 54.36 33.77L68.90 33.77ZM19.58 72.58L19.58 77.54L62.14 77.54L62.14 72.58L43.70 72.58L43.70 66.96L58.32 66.96L58.32 62.06L43.70 62.06L43.70 57.10L60.48 57.10L60.48 52.20L20.88 52.20L20.88 57.10L37.22 57.10L37.22 62.06L22.68 62.06L22.68 66.96L37.22 66.96L37.22 72.58Z"/></svg>
