<svg xmlns="http://www.w3.org/2000/svg" xmlns:xlink="http://www.w3.org/1999/xlink" width="72.00000000000001" height="106.56000000000002"><path fill="red" stroke="red" d="M20.45 33.12L17.78 35.35C20.16 37.58 23.26 40.68 24.70 42.62L29.02 38.81C27.72 37.30 25.42 34.99 23.26 33.12L35.35 33.12L35.35 27.86L18.14 27.86C18.79 26.64 19.30 25.49 19.80 24.26L13.82 22.54C11.59 28.37 7.56 34.20 3.31 38.02C4.61 39.02 6.91 41.33 7.85 42.41C10.37 39.96 12.89 36.72 15.19 33.12ZM40.10 59.83L56.09 59.83L56.09 66.82C56.09 67.54 55.80 67.75 54.94 67.75C54.22 67.82 51.34 67.82 48.67 67.68C49.46 69.19 50.54 71.28 50.98 73.01C54.94 73.01 57.96 72.94 60.19 72.07C62.28 71.21 62.93 69.84 62.93 66.82L62.93 54.14L40.10 54.14L40.10 49.46L66.82 49.46L66.82 43.63L40.10 43.63L40.10 39.38L39.82 39.38C41.62 37.66 43.34 35.50 44.93 33.12L51.91 33.12L48.82 35.64C51.41 37.73 54.58 40.68 56.16 42.62L60.70 38.66C59.26 37.08 56.74 34.85 54.43 33.12L68.54 33.12L68.54 27.86L47.88 27.86C48.38 26.57 48.96 25.34 49.39 24.05L43.27 22.54C41.54 27.72 38.23 32.69 34.34 35.93C35.57 36.72 37.58 38.30 38.81 39.38L32.98 39.38L32.98 43.63L5.11 43.63L5.11 49.46L32.98 49.46L32.98 54.14L9.94 54.14L9.94 73.08L16.99 73.08L16.99 59.83L32.98 59.83L32.98 65.52C26.71 72.94 15.12 78.84 3.31 81.43C4.68 82.80 6.62 85.39 7.49 87.05C16.92 84.46 26.14 79.56 32.98 73.22L32.98 89.14L40.10 89.14L40.10 73.44C46.15 78.77 55.08 84.10 65.30 86.69C66.24 84.96 68.18 82.22 69.55 80.78C56.95 78.34 45.94 72.29 40.10 66.38Z"/></svg>
