<svg xmlns="http://www.w3.org/2000/svg" xmlns:xlink="http://www.w3.org/1999/xlink" width="72.00000000000001" height="106.56000000000002"><path fill="red" stroke="red" d="M40.39 39.53C42.26 37.73 44.21 35.42 45.86 32.90L55.37 32.90L51.70 34.56C53.14 36.00 54.72 38.02 55.58 39.53ZM53.78 47.16L19.37 47.16L19.37 43.78L53.78 43.78ZM53.78 54.65L19.37 54.65L19.37 51.12L53.78 51.12ZM53.78 62.28L19.37 62.28L19.37 58.68L53.78 58.68ZM45.36 71.93L28.58 71.93L28.58 71.64L28.58 66.53L45.36 66.53ZM68.40 27.94L48.82 27.94C49.39 26.71 49.97 25.49 50.47 24.19L44.06 22.61C42.12 28.08 38.38 33.34 33.98 36.72C35.42 37.37 37.66 38.52 39.17 39.53L24.12 39.53L28.87 37.87C28.30 36.50 26.93 34.49 25.85 32.98L36.65 32.98L36.65 27.94L18.36 27.94C18.94 26.78 19.51 25.78 20.02 24.62L13.90 22.68C11.38 28.37 7.13 34.06 2.66 37.66C3.89 38.88 6.05 41.62 6.98 42.91C9.79 40.25 12.74 36.79 15.34 32.98L25.27 32.98L20.23 34.63C21.24 36.07 22.39 38.09 22.97 39.53L12.60 39.53L12.60 66.53L21.82 66.53L21.82 71.50L21.82 71.93L4.18 71.93L4.18 77.33L20.02 77.33C18.00 79.99 14.18 82.66 6.48 84.53C7.92 85.82 9.79 88.06 10.66 89.50C21.17 86.18 25.78 81.86 27.58 77.33L45.36 77.33L45.36 89.14L52.27 89.14L52.27 77.33L68.11 77.33L68.11 71.93L52.27 71.93L52.27 66.53L60.84 66.53L60.84 39.53L57.24 39.53L61.34 37.73C60.55 36.36 58.97 34.49 57.38 32.90L68.47 32.90Z"/></svg>
