<svg xmlns="http://www.w3.org/2000/svg" xmlns:xlink="http://www.w3.org/1999/xlink" width="72.00000000000001" height="106.56000000000002"><path fill="red" stroke="red" d="M20.45 33.12L17.78 35.35C19.94 37.37 22.75 40.18 24.05 41.90L28.37 38.09C27.22 36.72 25.20 34.78 23.26 33.12L35.35 33.12L35.35 27.86L18.14 27.86C18.79 26.64 19.37 25.49 19.80 24.26L13.82 22.54C11.59 28.37 7.56 34.20 3.24 37.94C4.54 39.02 6.91 41.26 7.85 42.41C10.37 39.96 12.89 36.72 15.26 33.12ZM44.64 79.92L27.14 79.92L27.14 76.25L44.64 76.25ZM64.37 64.87L8.06 64.87L8.06 89.21L14.83 89.21L14.83 69.55L57.53 69.55L57.53 82.15C57.53 83.02 57.17 83.30 56.09 83.30C55.44 83.38 53.28 83.38 50.76 83.30L50.76 72.29L21.31 72.29L21.31 86.11L27.14 86.11L27.14 83.88L48.02 83.88C48.82 85.39 49.68 87.48 50.04 88.92C55.30 88.92 58.82 88.85 61.20 87.91C63.65 87.05 64.37 85.32 64.37 82.22ZM50.26 58.10L21.10 58.10L21.10 54.65L50.26 54.65ZM14.54 50.76L14.54 61.99L57.24 61.99L57.24 50.76ZM30.24 39.10C31.10 40.25 31.97 41.54 32.76 42.91L6.34 42.91L6.34 47.88L66.10 47.88L66.10 42.91L39.53 42.91C38.66 41.26 37.37 39.17 35.93 37.66ZM47.81 27.86C48.46 26.57 48.89 25.34 49.39 24.05L43.27 22.54C41.47 27.58 38.23 32.40 34.34 35.64C35.78 36.58 38.30 38.52 39.38 39.67C41.26 37.94 43.13 35.64 44.78 33.12L51.98 33.12L48.82 35.64C51.26 37.58 54.29 40.32 55.66 42.12L60.19 38.16C58.97 36.79 56.59 34.78 54.43 33.12L68.62 33.12L68.62 27.86Z"/></svg>
