<svg xmlns="http://www.w3.org/2000/svg" xmlns:xlink="http://www.w3.org/1999/xlink" width="72.00000000000001" height="106.56000000000002"><path fill="red" stroke="red" d="M20.95 32.33L18.29 34.20C20.16 36.29 22.61 39.17 23.62 41.04L28.15 37.58C27.22 36.14 25.49 34.06 23.83 32.33L35.35 32.33L35.35 27.14L18.36 27.14C18.86 26.14 19.37 25.27 19.80 24.26L13.82 22.46C11.52 27.86 7.49 33.19 3.24 36.65C4.54 37.66 6.77 39.96 7.78 41.11C10.37 38.81 13.03 35.71 15.26 32.33ZM32.18 67.32L32.18 62.21L21.53 62.21L21.53 58.25L30.10 58.25L30.10 53.42L21.53 53.42L21.53 49.18C25.34 48.67 28.87 48.10 31.82 47.30L28.01 42.91C26.28 43.42 23.98 43.92 21.53 44.28L21.53 38.95L15.19 38.95L15.19 45.07C11.66 45.43 7.99 45.79 4.61 45.94C5.18 47.23 5.90 49.18 6.12 50.47C9.00 50.40 12.10 50.18 15.19 49.90L15.19 53.42L6.26 53.42L6.26 58.25L15.19 58.25L15.19 62.21L3.82 62.21L3.82 67.32L13.61 67.32C10.66 72.65 6.34 78.19 2.38 81.29C3.60 82.44 5.04 84.67 5.76 86.18C8.93 83.23 12.31 78.98 15.19 74.52L15.19 89.42L21.53 89.42L21.53 72.65C24.41 75.82 27.72 79.56 29.45 81.65L33.19 76.97C31.61 75.46 26.42 70.27 23.18 67.32ZM58.10 68.98L58.10 73.58L42.12 73.58L42.12 68.98ZM42.12 82.66L42.12 77.90L58.10 77.90L58.10 82.66ZM36.00 89.28L42.12 89.28L42.12 87.19L58.10 87.19L58.10 88.99L64.51 88.99L64.51 64.37L36.00 64.37ZM54.00 40.10L54.00 44.42L46.01 44.42L46.01 38.88L40.10 38.88C41.90 37.08 43.70 34.85 45.22 32.40L51.55 32.40L48.60 34.20C50.40 36.14 52.34 38.88 53.28 40.61ZM54.00 55.73L46.01 55.73L46.01 49.68L54.00 49.68ZM68.69 27.22L48.02 27.22C48.53 26.14 48.96 25.13 49.39 24.05L43.27 22.54C41.40 27.65 38.09 32.54 34.20 35.71C35.64 36.65 38.09 38.59 39.24 39.74L39.89 39.10L39.89 44.42L32.98 44.42L32.98 49.68L39.89 49.68L39.89 55.73L31.54 55.73L31.54 61.13L67.68 61.13L67.68 55.73L60.19 55.73L60.19 49.68L66.96 49.68L66.96 44.42L60.19 44.42L60.19 38.88L55.80 38.88L58.25 37.22C57.46 35.93 55.87 33.98 54.43 32.40L68.69 32.40Z"/></svg>
