<svg xmlns="http://www.w3.org/2000/svg" xmlns:xlink="http://www.w3.org/1999/xlink" width="72.00000000000001" height="106.56000000000002"><path fill="red" stroke="red" d="M60.12 52.49C66.46 52.49 68.11 49.75 68.83 39.60C67.10 39.17 64.44 38.09 63.00 37.01C62.71 45.36 62.21 46.73 59.62 46.73L49.82 46.73C46.87 46.73 46.30 46.37 46.30 44.06L46.30 23.18L39.89 23.18L39.89 44.21C39.89 50.62 41.76 52.49 49.03 52.49ZM17.50 53.78L23.76 53.78L23.76 40.10C26.64 42.41 30.10 45.22 31.82 46.80L35.21 42.34C33.48 40.90 26.57 36.29 23.83 34.63L35.57 34.63L35.57 29.16L23.76 29.16L23.76 23.26L17.50 23.26L17.50 29.16L4.25 29.16L4.25 34.63L15.70 34.63C12.31 39.74 7.34 44.71 2.74 47.45C4.10 48.46 5.83 50.54 6.77 51.91C10.51 49.32 14.33 45.14 17.50 40.61ZM20.23 75.02C16.13 77.98 9.94 81.29 4.54 83.45C6.05 84.38 8.64 86.54 9.79 87.70C15.05 85.25 21.67 81.14 26.35 77.62ZM45.29 77.98C50.83 80.64 57.96 84.74 61.78 87.48L66.96 83.52C62.93 80.93 55.87 77.04 50.33 74.45ZM46.94 62.86C48.46 64.08 50.18 65.52 51.91 66.89L27.65 68.47C35.28 65.52 42.91 61.85 50.18 57.60L46.01 53.28C43.27 55.01 40.32 56.74 37.37 58.25L25.56 58.97C29.95 56.95 34.34 54.43 38.45 51.77L33.84 48.17C28.08 52.63 20.23 56.59 17.86 57.53C15.62 58.61 13.90 59.26 12.17 59.40C12.82 60.98 13.68 63.79 13.90 64.94C15.12 64.44 16.92 64.15 27.00 63.29C22.61 65.30 19.08 66.74 17.14 67.39C13.10 68.83 10.37 69.70 7.99 69.84C8.64 71.50 9.36 74.45 9.65 75.67C9.65 75.60 9.65 75.53 9.72 75.46L9.72 75.67C11.88 74.88 14.83 74.52 34.42 73.08L34.42 81.65C34.42 82.51 34.06 82.73 32.90 82.73C31.75 82.80 27.65 82.80 23.62 82.66C24.62 84.38 25.70 87.12 26.06 89.06C31.32 89.06 35.06 88.92 37.73 87.98C40.39 86.98 41.11 85.18 41.11 81.86L41.11 72.58L56.95 71.35C59.26 73.44 61.27 75.31 62.64 76.82L67.61 73.01C64.08 69.34 56.88 63.58 51.70 59.54Z"/></svg>
