<svg xmlns="http://www.w3.org/2000/svg" xmlns:xlink="http://www.w3.org/1999/xlink" width="72.00000000000001" height="106.56000000000002"><path fill="red" stroke="red" d="M5.98 69.41C5.40 75.17 4.39 81.58 2.74 85.82C4.18 86.26 6.91 87.19 8.06 87.77C9.65 83.38 10.87 76.61 11.52 70.42ZM14.18 70.20C15.05 75.02 15.84 81.58 15.98 85.68L21.38 84.53C21.10 80.42 20.23 74.16 19.37 69.19ZM21.96 68.76C23.40 72.94 24.98 78.34 25.63 81.94L30.89 80.14C30.17 76.68 28.44 71.28 26.93 67.25ZM21.24 51.70C21.96 53.64 22.68 55.80 23.40 57.96L13.03 59.33C18.86 52.99 24.48 45.14 29.09 37.37L23.33 33.77C21.74 36.94 19.87 40.10 18.00 43.06L11.30 43.63C15.26 38.30 19.15 31.75 22.25 25.34L16.13 22.75C13.25 30.53 8.21 38.52 6.70 40.68C5.18 42.77 3.82 44.28 2.59 44.57C3.31 46.15 4.25 49.18 4.61 50.47C5.69 49.97 7.27 49.61 14.18 48.82C11.74 52.13 9.65 54.72 8.57 55.87C6.34 58.46 4.68 60.19 3.02 60.55C3.74 62.21 4.75 65.38 5.11 66.74C6.62 65.88 9.07 65.38 24.70 63.07C25.06 64.51 25.34 65.81 25.56 66.96L31.03 65.09C30.24 61.34 28.22 55.01 26.28 50.26ZM58.18 65.74L58.18 80.06L39.89 80.06L39.89 65.74ZM33.34 89.21L39.89 89.21L39.89 85.97L58.18 85.97L58.18 88.85L65.02 88.85L65.02 59.83L33.34 59.83ZM31.46 26.71L31.46 32.62L43.06 32.62C41.98 40.82 39.46 47.95 30.74 52.20C32.18 53.35 34.06 55.66 34.85 57.24C45.22 51.84 48.38 42.98 49.68 32.62L60.48 32.62C59.83 43.13 59.18 47.30 58.18 48.46C57.60 49.10 56.95 49.25 55.87 49.25C54.72 49.25 51.91 49.25 49.03 48.96C50.04 50.62 50.76 53.28 50.90 55.08C54.07 55.22 57.17 55.22 58.90 55.01C60.98 54.79 62.28 54.22 63.58 52.70C65.38 50.62 66.17 44.50 66.96 29.38C67.03 28.44 67.03 26.71 67.03 26.71Z"/></svg>
