<svg xmlns="http://www.w3.org/2000/svg" xmlns:xlink="http://www.w3.org/1999/xlink" width="72.00000000000001" height="106.56000000000002"><path fill="red" stroke="red" d="M31.75 65.09C30.96 61.27 29.02 55.01 27.07 50.18L22.03 51.70C22.75 53.57 23.47 55.73 24.05 57.82L13.39 59.18C19.22 52.85 24.98 45.00 29.66 37.15L23.98 33.70C22.39 36.86 20.52 40.03 18.58 42.91L11.59 43.49C15.55 38.30 19.51 31.68 22.61 25.27L16.63 22.75C13.61 30.53 8.50 38.66 6.98 40.68C5.40 42.84 4.18 44.28 2.81 44.57C3.53 46.22 4.46 49.18 4.82 50.40C5.90 49.90 7.49 49.54 14.54 48.74C12.10 52.13 10.01 54.79 8.86 55.94C6.55 58.46 4.82 60.19 3.24 60.62C3.96 62.28 4.97 65.45 5.33 66.74C6.84 65.88 9.36 65.30 25.49 62.93C25.92 64.44 26.21 65.81 26.42 66.96ZM6.12 69.41C5.54 75.24 4.54 81.58 2.95 85.90C4.32 86.33 7.06 87.19 8.28 87.84C9.86 83.38 11.09 76.61 11.66 70.42ZM14.76 70.20C15.62 75.10 16.42 81.58 16.56 85.75L22.03 84.60C21.74 80.35 20.88 74.09 20.02 69.19ZM22.90 68.76C24.12 72.58 25.63 77.62 26.21 80.86L31.39 79.06C30.74 75.82 29.23 70.99 27.79 67.25ZM40.90 69.12L57.89 69.12L57.89 81.79L40.90 81.79ZM57.89 32.83L57.89 44.86L40.90 44.86L40.90 32.83ZM57.89 63.14L40.90 63.14L40.90 50.83L57.89 50.83ZM64.30 81.79L64.30 26.71L34.78 26.71L34.78 81.79L28.80 81.79L28.80 87.84L68.98 87.84L68.98 81.79Z"/></svg>
