<svg xmlns="http://www.w3.org/2000/svg" xmlns:xlink="http://www.w3.org/1999/xlink" width="72.00000000000001" height="106.56000000000002"><path fill="red" stroke="red" d="M28.30 65.66C27.79 61.92 25.99 55.44 24.34 50.62L19.87 51.70C20.45 53.78 21.17 56.02 21.74 58.25L12.60 59.47C18.00 52.99 23.33 45.00 27.65 37.22L22.25 34.06C20.81 37.15 19.08 40.25 17.35 43.20L10.94 43.70C14.62 38.30 18.22 31.82 20.95 25.49L15.26 23.18C12.67 30.82 7.99 38.95 6.48 41.04C5.04 43.13 3.89 44.64 2.59 44.86C3.31 46.44 4.25 49.25 4.54 50.47C5.62 50.04 7.20 49.61 13.82 48.82C11.52 52.34 9.43 55.15 8.35 56.30C6.26 58.90 4.61 60.70 3.10 61.06C3.82 62.57 4.75 65.59 5.04 66.74C6.48 65.95 8.71 65.52 22.82 63.36C23.11 64.80 23.33 66.02 23.47 67.10ZM5.90 69.41C5.33 75.38 4.32 81.94 2.66 86.33C3.96 86.69 6.41 87.48 7.49 88.06C8.93 83.59 10.22 76.68 10.87 70.27ZM12.89 70.20C13.68 75.10 14.40 81.72 14.47 85.97L19.30 85.18C19.15 80.78 18.36 74.38 17.50 69.41ZM19.51 68.83C20.52 72.07 21.74 76.32 22.10 79.13L26.50 77.76C25.92 75.02 24.77 70.78 23.62 67.68ZM52.70 64.44L52.70 71.86L43.63 71.86L43.63 64.44ZM57.74 76.75L57.74 59.54L38.59 59.54L38.59 79.99L43.63 79.99L43.63 76.75ZM51.41 50.18L51.41 43.85L60.84 43.85L60.84 50.18ZM36.14 43.85L45.94 43.85L45.94 50.18L36.14 50.18ZM45.94 31.97L45.94 38.52L36.14 38.52L36.14 31.97ZM60.84 38.52L51.41 38.52L51.41 31.97L60.84 31.97ZM66.67 26.14L30.10 26.14L30.10 53.21C30.10 63.29 29.59 76.54 24.19 85.61C25.49 86.26 28.15 88.20 29.23 89.35C34.78 80.21 36.00 66.17 36.14 55.44L60.84 55.44L60.84 81.50C60.84 82.58 60.41 82.94 59.40 83.02C58.46 83.02 55.15 83.02 51.70 82.87C52.56 84.38 53.50 87.05 53.78 88.56C58.75 88.56 61.92 88.49 63.94 87.41C66.02 86.54 66.67 84.74 66.67 81.58Z"/></svg>
