<svg xmlns="http://www.w3.org/2000/svg" xmlns:xlink="http://www.w3.org/1999/xlink" width="72.00000000000001" height="106.56000000000002"><path fill="red" stroke="red" d="M58.61 33.48C57.24 35.71 55.51 37.80 53.64 39.60C51.70 37.87 50.11 35.93 48.96 33.91L49.25 33.48ZM62.50 28.37L61.56 28.58L52.63 28.58C53.42 27.22 54.07 25.92 54.72 24.48L49.82 22.97C47.45 28.51 42.98 33.55 38.09 36.86C39.17 37.80 41.11 39.74 41.98 40.75C43.20 39.74 44.50 38.66 45.72 37.44C46.87 39.31 48.24 41.11 49.68 42.77C46.15 45.29 42.12 47.16 38.02 48.38C39.02 49.54 40.32 51.62 40.97 52.99C45.43 51.48 49.75 49.32 53.71 46.37C57.17 49.18 61.20 51.34 65.52 52.70C66.31 51.19 67.82 49.03 68.90 47.88C64.87 46.94 61.06 45.14 57.74 42.91C61.27 39.46 64.15 35.21 66.02 30.17ZM56.45 80.35L56.45 75.02L66.89 75.02L66.89 70.34L56.45 70.34L56.45 66.53L63.86 66.53L63.86 62.14L56.45 62.14L56.45 58.75L65.52 58.75L65.52 54.22L56.45 54.22L56.45 50.62L51.41 50.62L51.41 54.22L41.47 54.22L41.47 58.75L51.41 58.75L51.41 62.14L42.70 62.14L42.70 66.53L51.41 66.53L51.41 70.34L39.53 70.34L39.53 75.02L51.41 75.02L51.41 80.35ZM36.36 35.06C35.57 31.97 34.06 27.29 32.90 23.69L27.79 25.13C28.80 28.80 30.38 33.77 31.10 36.79ZM27.43 64.58C26.71 61.06 24.77 55.22 22.90 50.76L18.58 52.13C19.30 53.86 20.09 55.94 20.74 57.96L11.81 59.47C16.78 52.99 21.53 45.00 25.34 37.30L20.16 34.63C19.01 37.58 17.50 40.61 16.06 43.49L10.44 43.92C13.82 38.59 17.06 31.82 19.51 25.42L13.75 23.18C11.59 30.74 7.49 38.88 6.12 40.97C4.90 43.06 3.82 44.57 2.66 44.86C3.31 46.37 4.25 49.25 4.54 50.47C5.47 50.04 7.06 49.61 13.03 48.89C10.87 52.56 8.93 55.44 7.99 56.66C6.12 59.26 4.68 61.06 3.24 61.42C3.89 62.93 4.75 65.66 5.04 66.82C6.41 66.10 8.57 65.38 22.18 62.71C22.54 64.01 22.82 65.23 23.04 66.31ZM5.62 69.48C5.04 75.24 4.10 81.58 2.52 85.90C3.67 86.26 5.83 86.90 6.84 87.48C8.28 83.09 9.50 76.46 10.15 70.27ZM12.38 70.27C13.25 74.95 13.97 81.07 14.11 85.18L18.58 84.17C18.36 80.06 17.57 74.02 16.70 69.34ZM19.08 68.54C20.30 72.14 21.82 76.90 22.39 79.99L26.64 78.41C25.99 75.46 24.48 70.78 23.18 67.25ZM37.37 56.23L36.50 56.45L34.20 56.45C35.71 51.41 37.58 45.36 39.02 40.18L26.14 40.18L26.14 45.58L31.90 45.58C30.31 51.19 28.51 57.31 26.86 61.70L33.70 61.70C32.76 66.96 31.25 72.79 29.38 76.82C27.65 78.26 25.70 80.78 23.83 83.74L28.15 89.57C29.30 85.46 31.25 80.86 32.40 80.86C33.84 80.86 35.93 82.94 38.59 84.74C42.55 87.41 46.87 88.63 53.21 88.63C57.60 88.63 64.66 88.42 67.97 88.13C68.04 86.47 68.83 83.45 69.48 81.79C64.80 82.44 57.74 82.80 53.35 82.80C47.52 82.80 43.20 81.94 39.60 79.42C37.66 78.12 36.22 76.97 34.92 76.18C37.22 70.63 38.95 63.65 39.89 57.17Z"/></svg>
