<svg xmlns="http://www.w3.org/2000/svg" xmlns:xlink="http://www.w3.org/1999/xlink" width="72.00000000000001" height="106.56000000000002"><path fill="red" stroke="red" d="M62.14 32.47L53.28 32.47L53.28 29.30L62.14 29.30ZM62.14 39.53L53.28 39.53L53.28 36.29L62.14 36.29ZM62.14 46.66L53.28 46.66L53.28 43.34L62.14 43.34ZM66.82 25.34L48.82 25.34L48.82 50.62L66.82 50.62ZM59.54 52.78C61.27 55.44 63.50 58.82 64.51 60.98L68.62 58.39C67.61 56.45 65.23 53.06 63.50 50.69ZM53.28 50.83C51.77 53.50 49.39 56.88 47.09 58.82L50.69 62.42C53.21 59.90 55.58 56.09 57.31 53.06ZM41.04 32.47L32.47 32.47L32.47 29.30L41.04 29.30ZM41.04 39.53L32.47 39.53L32.47 36.29L41.04 36.29ZM41.04 46.66L32.47 46.66L32.47 43.34L41.04 43.34ZM46.01 25.34L27.79 25.34L27.79 50.62L46.01 50.62ZM29.45 62.78C32.04 60.19 34.49 56.30 36.14 53.28L32.18 51.12C30.60 53.78 28.22 57.24 25.85 59.18ZM25.85 65.74C25.34 61.99 23.76 55.66 22.18 50.90L17.86 51.84C18.58 54.00 19.15 56.38 19.73 58.82L11.95 59.69C16.99 52.99 22.03 44.71 25.92 36.58L20.59 33.55C19.22 36.94 17.64 40.32 15.91 43.49L10.44 43.92C13.75 38.45 16.92 31.68 19.22 25.20L13.61 23.04C11.52 30.67 7.49 38.95 6.12 41.04C4.90 43.20 3.89 44.71 2.66 45.00C3.31 46.51 4.25 49.25 4.54 50.47C5.54 50.04 7.06 49.61 12.89 48.96C10.80 52.42 8.93 55.22 8.06 56.30C6.12 59.04 4.61 60.77 3.10 61.13C3.89 62.71 4.75 65.59 5.04 66.82C6.34 66.10 8.50 65.59 20.74 63.79C20.95 64.94 21.17 66.10 21.24 67.03ZM5.90 69.48C5.26 75.67 4.25 82.44 2.59 86.98C3.96 87.34 6.41 88.13 7.56 88.78C9.07 84.10 10.30 76.90 11.02 70.27ZM13.10 70.06C13.82 75.24 14.47 81.79 14.62 86.18L19.30 85.32C19.15 80.93 18.36 74.45 17.57 69.41ZM19.73 68.90C21.02 72.79 22.32 77.90 22.82 81.14L27.07 79.85C26.57 76.61 25.06 71.64 23.83 67.75ZM53.78 71.14C52.27 73.80 50.33 76.03 47.81 77.76C44.64 76.75 41.40 75.89 38.38 75.02C39.02 73.80 39.74 72.58 40.46 71.14ZM68.18 71.14L68.18 65.88L62.14 65.88C62.35 65.09 62.57 64.30 62.64 63.58L56.88 62.64C56.66 63.79 56.38 64.80 56.02 65.88L43.06 65.88C44.14 63.58 45.14 61.20 45.86 59.04L43.13 58.54L46.87 56.09C45.72 54.65 43.56 52.49 41.83 50.90L38.23 53.14C39.89 54.79 41.98 57.10 42.98 58.54L40.03 58.03C39.17 60.55 38.09 63.22 36.79 65.88L26.42 65.88L26.42 71.14L34.13 71.14C32.83 73.44 31.61 75.67 30.38 77.47C34.06 78.41 38.09 79.63 41.98 80.93C38.02 82.58 33.05 83.66 27.00 84.38C28.08 85.61 29.16 87.77 29.66 89.42C37.87 88.06 44.21 86.26 49.18 83.45C54.72 85.39 59.62 87.48 63.00 89.28L68.33 85.54C64.58 83.66 59.47 81.72 54.14 79.92C56.74 77.47 58.75 74.59 60.26 71.14Z"/></svg>
