<svg xmlns="http://www.w3.org/2000/svg" xmlns:xlink="http://www.w3.org/1999/xlink" width="72.00000000000001" height="106.56000000000002"><path fill="red" stroke="red" d="M35.86 43.78L35.86 36.65L49.54 36.65C46.94 39.17 44.14 41.47 41.11 43.78ZM67.46 49.46L67.46 43.78L50.40 43.78C55.66 39.24 60.34 34.42 64.44 29.30L59.26 26.21C56.74 29.38 53.93 32.47 50.90 35.35L50.90 31.10L35.86 31.10L35.86 23.11L29.23 23.11L29.23 31.10L11.52 31.10L11.52 36.65L29.23 36.65L29.23 43.78L5.33 43.78L5.33 49.46L32.98 49.46C23.76 55.44 13.39 60.34 3.10 64.01C4.03 65.45 5.47 68.54 5.98 69.98C12.17 67.61 18.36 64.66 24.34 61.42C22.61 65.45 20.52 69.70 18.79 72.86L50.11 72.86C49.10 78.41 47.95 81.29 46.58 82.30C45.65 82.87 44.71 82.94 43.06 82.94C40.97 82.94 35.21 82.87 30.17 82.37C31.32 84.17 32.26 86.76 32.40 88.56C37.58 88.85 42.41 88.92 44.93 88.78C48.10 88.63 49.97 88.20 51.84 86.69C54.22 84.53 55.87 79.92 57.31 70.27C57.53 69.26 57.74 67.39 57.74 67.39L28.58 67.39C29.52 65.30 30.46 63.22 31.32 61.06L60.55 61.06L60.55 55.80L34.06 55.80C37.22 53.86 40.32 51.70 43.27 49.46Z"/></svg>
