<svg xmlns="http://www.w3.org/2000/svg" xmlns:xlink="http://www.w3.org/1999/xlink" width="72.00000000000001" height="106.56000000000002"><path fill="red" stroke="red" d="M13.61 44.06C16.20 46.58 19.08 49.68 20.59 51.77L23.26 49.46L23.26 55.51C19.66 57.96 15.98 60.26 13.32 61.85C13.54 58.18 13.61 54.58 13.61 51.41ZM23.26 31.90L23.26 46.58C21.31 44.50 18.65 41.90 16.20 39.89L13.61 41.83L13.61 31.90ZM29.45 25.70L7.56 25.70L7.56 51.41C7.56 61.92 7.20 76.25 2.45 86.26C4.03 86.83 6.77 88.34 7.92 89.35C11.30 82.22 12.67 72.36 13.25 63.36L15.77 67.75C18.14 65.66 20.74 63.58 23.26 61.34L23.26 80.93C23.26 81.86 22.90 82.22 22.03 82.30C21.10 82.30 18.29 82.30 15.26 82.15C16.06 83.88 16.85 86.90 17.06 88.56C21.89 88.56 24.77 88.42 26.86 87.34C28.80 86.26 29.45 84.24 29.45 81.00ZM69.12 51.34L53.50 51.34L53.50 33.55L66.89 33.55L66.89 26.78L33.34 26.78L33.34 33.55L46.51 33.55L46.51 51.34L31.25 51.34L31.25 58.10L46.51 58.10L46.51 89.21L53.50 89.21L53.50 58.10L69.12 58.10Z"/></svg>
