<svg xmlns="http://www.w3.org/2000/svg" xmlns:xlink="http://www.w3.org/1999/xlink" width="72.00000000000001" height="106.56000000000002"><path fill="red" stroke="red" d="M13.32 44.21C15.70 46.58 18.29 49.54 19.66 51.34L22.10 49.25L22.10 55.73C18.79 57.96 15.55 60.05 13.10 61.63C13.25 57.82 13.32 54.22 13.32 51.05ZM22.10 31.18L22.10 45.86C20.38 43.92 18.14 41.83 16.06 40.10L13.32 42.19L13.32 31.18ZM28.30 25.06L7.27 25.06L7.27 51.12C7.27 61.70 6.98 76.25 2.52 86.26C4.10 86.83 6.77 88.34 7.99 89.35C11.09 82.30 12.38 72.94 12.96 64.01L15.12 67.75L22.10 61.70L22.10 80.78C22.10 81.79 21.74 82.15 20.81 82.15C19.87 82.15 17.06 82.22 14.11 82.08C14.98 83.74 15.77 86.76 15.98 88.56C20.66 88.56 23.62 88.34 25.70 87.19C27.65 86.18 28.30 84.17 28.30 80.86ZM46.80 32.69L46.80 51.70L39.46 51.70L39.46 32.69ZM59.69 51.70L52.42 51.70L52.42 32.69L59.69 32.69ZM44.21 81.58C40.18 81.58 39.46 80.78 39.46 76.68L39.46 58.03L59.69 58.03L59.69 61.78L66.10 61.78L66.10 26.35L33.05 26.35L33.05 76.61C33.05 85.68 35.64 87.91 43.63 87.91L58.39 87.91C66.31 87.91 68.26 83.59 69.19 71.71C67.39 71.28 64.73 70.13 63.14 69.05C62.57 79.06 61.92 81.58 57.96 81.58Z"/></svg>
