<svg xmlns="http://www.w3.org/2000/svg" xmlns:xlink="http://www.w3.org/1999/xlink" width="72.00000000000001" height="106.56000000000002"><path fill="red" stroke="red" d="M12.46 43.99C14.47 46.37 16.63 49.25 17.78 51.12L20.38 49.32L20.38 57.02C17.28 58.97 14.47 60.84 12.17 62.14C12.38 58.18 12.46 54.43 12.46 51.12ZM20.38 31.82L20.38 46.37C18.86 44.42 16.85 42.19 15.12 40.32L12.46 42.05L12.46 31.82ZM67.10 32.26L39.31 32.26C40.39 29.81 41.26 27.14 41.98 24.55L35.50 23.18C33.48 30.46 30.17 37.44 25.85 42.41L25.85 25.70L6.98 25.70L6.98 51.12C6.98 61.49 6.62 75.60 2.38 85.61C3.60 86.26 5.98 88.27 6.91 89.42C10.15 82.15 11.52 72.36 12.10 63.43L14.11 67.82L20.38 62.64L20.38 81.86C20.38 82.80 20.09 83.09 19.22 83.16C18.36 83.16 15.77 83.23 12.89 83.09C13.68 84.60 14.40 87.26 14.54 88.78C19.01 88.78 21.74 88.63 23.54 87.62C25.27 86.69 25.85 84.89 25.85 81.94L25.85 45.43C27.07 46.30 28.37 47.52 29.23 48.31L29.23 78.26L57.10 78.26L57.10 47.38L51.98 47.38L51.98 73.01L34.34 73.01L34.34 68.47C35.57 69.19 37.15 70.27 37.94 70.92C39.74 68.18 41.62 64.94 43.34 61.34C45.00 64.73 46.51 67.90 47.52 70.56L51.70 68.40C50.40 65.02 48.24 60.70 45.79 56.23C47.59 52.34 49.25 48.24 50.62 44.28L46.08 42.98C45.14 45.72 44.21 48.53 42.98 51.19C41.47 48.53 39.82 45.86 38.30 43.42L34.34 45.29C36.36 48.60 38.66 52.49 40.75 56.38C38.74 60.55 36.58 64.37 34.34 67.54L34.34 47.59L30.38 47.59C32.62 45.00 34.70 41.83 36.58 38.30L61.06 38.30C61.06 68.83 60.91 79.99 59.40 82.08C58.75 83.09 58.10 83.30 56.88 83.30C55.37 83.30 51.70 83.30 47.66 83.02C48.74 84.74 49.54 87.34 49.61 89.06C53.21 89.21 57.17 89.28 59.62 88.99C61.99 88.63 63.50 87.91 65.02 85.61C67.10 82.37 67.10 71.06 67.10 35.50Z"/></svg>
