<svg xmlns="http://www.w3.org/2000/svg" xmlns:xlink="http://www.w3.org/1999/xlink" width="72.00000000000001" height="106.56000000000002"><path fill="red" stroke="red" d="M35.21 37.80L61.70 37.80L61.70 45.72L67.90 45.72L67.90 31.90L52.27 31.90C51.48 29.16 50.18 25.78 48.89 23.04L42.62 24.41C43.49 26.64 44.50 29.45 45.22 31.90L29.30 31.90L29.30 45.72L35.21 45.72ZM12.53 43.85C14.47 45.94 16.63 48.31 17.71 49.97L19.94 48.10L19.94 56.88C17.14 58.90 14.40 60.62 12.31 61.92C12.46 58.32 12.53 54.94 12.53 51.91ZM19.94 32.62L19.94 44.21C18.58 42.84 16.99 41.18 15.48 39.96L12.53 42.05L12.53 32.62ZM26.06 26.57L6.62 26.57L6.62 51.91C6.62 62.21 6.41 76.39 2.45 86.33C3.89 86.90 6.62 88.34 7.78 89.35C10.66 82.08 11.81 72.22 12.24 63.22L14.76 67.75L19.94 63.14L19.94 81.36C19.94 82.22 19.66 82.44 18.86 82.44C18.14 82.51 15.91 82.51 13.61 82.44C14.40 84.02 15.12 86.90 15.34 88.56C19.30 88.56 21.82 88.42 23.69 87.34C25.49 86.33 26.06 84.46 26.06 81.43ZM54.29 57.89C53.14 63.07 51.41 67.32 48.89 70.78C46.08 69.19 43.34 67.75 40.68 66.38C41.90 63.79 43.06 60.84 44.28 57.89ZM68.98 57.89L68.98 51.91L62.35 51.91C62.57 50.33 62.78 48.53 63.00 46.80L55.94 46.58C55.80 48.46 55.58 50.26 55.37 51.91L46.51 51.91C47.88 48.24 49.03 44.64 49.90 41.18L43.34 40.39C42.41 43.92 41.18 47.95 39.67 51.91L27.86 51.91L27.86 57.89L37.37 57.89C35.64 61.92 33.91 65.74 32.26 68.69C36.14 70.63 40.39 72.94 44.57 75.46C40.32 78.98 34.63 81.50 27.22 83.30C28.30 84.74 30.02 87.62 30.46 89.28C39.02 86.90 45.58 83.59 50.40 78.98C55.80 82.44 60.62 85.97 63.79 88.85L68.33 83.66C65.02 80.78 59.98 77.40 54.58 74.09C57.67 69.77 59.83 64.37 61.20 57.89Z"/></svg>
