<svg xmlns="http://www.w3.org/2000/svg" xmlns:xlink="http://www.w3.org/1999/xlink" width="72.00000000000001" height="106.56000000000002"><path fill="red" stroke="red" d="M12.67 44.21C14.76 46.37 16.92 48.89 18.14 50.54L20.59 48.60L20.59 56.45C17.57 58.46 14.76 60.48 12.46 61.78C12.60 58.03 12.67 54.50 12.67 51.34ZM20.59 31.82L20.59 45.14C19.01 43.49 17.06 41.54 15.34 39.96L12.67 41.83L12.67 31.82ZM26.50 25.70L6.98 25.70L6.98 51.34C6.98 61.85 6.62 76.18 2.38 86.26C3.89 86.76 6.41 88.13 7.56 89.14C10.58 82.08 11.81 72.50 12.31 63.72L14.69 67.75C16.63 66.10 18.58 64.37 20.59 62.57L20.59 81.14C20.59 82.08 20.30 82.44 19.44 82.44C18.58 82.44 16.06 82.44 13.32 82.37C14.11 84.02 14.90 86.90 15.05 88.56C19.51 88.56 22.18 88.34 24.12 87.26C25.99 86.26 26.50 84.38 26.50 81.29ZM68.47 67.10L51.62 67.10L51.62 64.94C55.80 62.42 60.05 59.33 63.43 56.38L59.26 52.78L57.82 53.14L35.14 53.14L35.14 47.95L61.92 47.95L61.92 54.86L68.11 54.86L68.11 42.26L51.62 42.26L51.62 35.64L67.46 35.64L67.46 29.81L51.62 29.81L51.62 23.18L45.00 23.18L45.00 29.81L29.59 29.81L29.59 35.64L45.00 35.64L45.00 42.26L29.23 42.26L29.23 54.86L34.34 54.86L34.34 58.61L51.48 58.61C49.46 60.34 47.09 61.92 45.00 63.07L45.00 67.10L28.37 67.10L28.37 73.01L45.00 73.01L45.00 82.30C45.00 83.16 44.71 83.38 43.70 83.45C42.77 83.45 39.38 83.45 36.07 83.30C36.86 85.03 37.80 87.55 38.09 89.35C42.84 89.35 46.22 89.28 48.60 88.34C50.98 87.41 51.62 85.75 51.62 82.51L51.62 73.01L68.47 73.01Z"/></svg>
