<svg xmlns="http://www.w3.org/2000/svg" xmlns:xlink="http://www.w3.org/1999/xlink" width="72.00000000000001" height="106.56000000000002"><path fill="red" stroke="red" d="M41.33 51.62C40.90 56.16 40.25 60.19 39.46 63.72C37.58 62.14 35.42 60.48 33.19 58.90C34.13 56.66 34.92 54.14 35.64 51.62ZM11.95 44.06C13.97 46.44 16.13 49.25 17.28 51.12L19.80 49.32L19.80 57.02C16.78 58.97 13.90 60.84 11.74 62.14C11.88 58.18 11.95 54.43 11.95 51.12ZM19.80 31.82L19.80 46.44C18.29 44.42 16.34 42.19 14.54 40.39L11.95 42.05L11.95 31.82ZM42.77 46.01L37.01 46.01C37.37 44.35 37.66 42.70 37.94 41.04L34.06 40.39L34.06 35.78L62.35 35.78L62.35 42.48L68.26 42.48L68.26 29.95L52.85 29.95C52.13 27.79 50.90 24.98 49.82 22.90L43.42 24.62C44.14 26.21 44.93 28.15 45.50 29.95L28.44 29.95L28.44 42.62L32.26 42.62C30.89 50.40 28.73 57.82 25.27 62.93L25.27 25.70L6.48 25.70L6.48 51.12C6.48 61.34 6.19 75.60 2.74 85.61C3.96 86.26 6.34 88.27 7.27 89.42C10.01 82.15 11.16 72.43 11.66 63.50L13.61 67.90L19.80 62.64L19.80 81.86C19.80 82.80 19.51 83.09 18.65 83.16C17.86 83.16 15.19 83.23 12.38 83.09C13.18 84.60 13.90 87.26 13.97 88.78C18.43 88.78 21.17 88.63 22.90 87.62C24.70 86.69 25.27 84.89 25.27 81.94L25.27 64.22C26.35 65.45 27.65 67.39 28.22 68.40C29.23 67.03 30.02 65.59 30.89 64.01C33.26 65.88 35.78 68.11 37.58 69.91C34.99 77.11 31.25 81.94 26.21 85.18C27.43 86.04 29.52 88.20 30.31 89.57C40.03 83.02 45.72 69.70 47.30 46.51L43.85 45.86ZM57.10 83.30C56.30 83.30 55.66 83.23 55.22 82.94C54.72 82.66 54.58 81.58 54.58 79.78L54.58 50.26L61.06 50.26L61.06 65.88C61.06 66.53 60.91 66.67 60.19 66.74C59.47 66.74 57.38 66.74 54.94 66.67C55.66 68.18 56.30 70.34 56.52 71.86C60.19 71.86 62.64 71.78 64.37 70.92C66.02 69.98 66.46 68.47 66.46 65.88L66.46 44.78L49.18 44.78L49.18 79.34C49.18 84.60 49.82 85.82 51.05 86.83C52.34 87.77 54.36 88.20 56.02 88.20L60.98 88.20C62.50 88.20 64.22 87.98 65.38 87.48C66.67 87.05 67.61 86.18 68.11 84.74C68.62 83.38 68.98 79.92 69.12 76.90C67.39 76.39 65.38 75.46 64.15 74.38C64.08 77.62 63.94 80.14 63.72 81.29C63.50 82.30 63.07 82.80 62.57 83.02C62.14 83.16 61.27 83.30 60.41 83.30Z"/></svg>
