<svg xmlns="http://www.w3.org/2000/svg" xmlns:xlink="http://www.w3.org/1999/xlink" width="72.00000000000001" height="106.56000000000002"><path fill="red" stroke="red" d="M41.40 69.34L56.16 69.34C54.29 71.78 51.91 74.02 49.18 75.89C46.08 74.09 43.27 72.14 40.82 69.98ZM27.00 41.54C28.51 42.70 30.46 44.28 31.39 45.22C32.04 44.64 32.76 43.92 33.41 43.13L33.41 60.34L40.90 60.34C39.67 62.21 38.23 64.01 36.65 65.74C35.57 64.44 34.70 63.22 33.84 61.92L28.94 63.65C30.10 65.59 31.32 67.46 32.76 69.26C30.89 70.70 29.02 72.00 27.00 73.15ZM39.46 51.77L58.61 51.77L58.61 56.02L39.46 56.02ZM39.46 43.63L58.61 43.63L58.61 47.66L39.46 47.66ZM13.10 44.42C15.19 46.66 17.42 49.18 18.72 50.90L20.88 49.10L20.88 56.45C17.93 58.46 15.05 60.41 12.89 61.63C13.03 58.10 13.10 54.58 13.10 51.48ZM20.88 31.82L20.88 45.22C19.30 43.56 17.35 41.54 15.48 39.96L13.10 41.69L13.10 31.82ZM61.06 64.01L59.90 64.30L45.43 64.30C46.30 63.07 47.16 61.70 47.88 60.41L47.59 60.34L64.94 60.34L64.94 39.31L36.50 39.31C37.37 37.94 38.38 36.58 39.31 35.06L67.90 35.06L67.90 29.38L42.41 29.38C43.13 27.79 43.78 26.28 44.42 24.70L37.80 22.97C35.50 29.38 31.54 35.71 27.00 39.96L27.00 25.70L7.20 25.70L7.20 51.48C7.20 61.99 6.91 76.32 2.38 86.40C3.89 86.98 6.48 88.42 7.70 89.42C10.87 82.37 12.17 72.79 12.74 63.86L14.90 67.68C16.85 66.02 18.86 64.22 20.88 62.50L20.88 81.65C20.88 82.51 20.59 82.80 19.66 82.87C18.94 82.87 16.27 82.94 13.46 82.80C14.33 84.46 15.05 87.48 15.19 89.14C19.73 89.14 22.54 88.92 24.48 87.84C26.35 86.83 27.00 84.82 27.00 81.65L27.00 74.16C28.44 75.31 30.10 77.04 30.96 78.05C32.90 76.82 34.92 75.38 36.79 73.80C38.81 75.74 40.90 77.54 43.20 79.20C38.38 81.50 32.76 83.16 27.14 84.10C28.22 85.32 29.59 87.70 30.24 89.35C36.86 87.91 43.27 85.82 48.96 82.80C53.93 85.54 59.62 87.62 65.59 88.99C66.60 87.26 68.33 84.53 69.84 83.16C64.51 82.22 59.54 80.71 55.01 78.77C59.26 75.38 62.78 71.21 65.09 65.95Z"/></svg>
