<svg xmlns="http://www.w3.org/2000/svg" xmlns:xlink="http://www.w3.org/1999/xlink" width="72.00000000000001" height="106.56000000000002"><path fill="red" stroke="red" d="M68.40 30.60L51.05 30.60C50.26 28.44 48.89 25.49 47.59 23.26L41.90 24.77C42.84 26.50 43.78 28.73 44.57 30.60L25.99 30.60L25.99 36.36L68.40 36.36ZM12.17 44.78C13.68 46.94 15.12 49.32 15.91 50.90L18.29 49.32L18.29 57.02C15.91 59.04 13.68 60.77 11.88 62.14C12.10 58.18 12.17 54.43 12.17 51.12ZM18.29 31.32L18.29 46.44C17.06 44.57 15.55 42.48 14.11 40.75L12.17 41.90L12.17 31.32ZM23.47 25.70L6.84 25.70L6.84 51.19C6.84 61.49 6.55 75.60 2.81 85.61C4.03 86.26 6.34 88.20 7.27 89.35C10.15 82.01 11.30 72.36 11.81 63.36L13.97 67.75C15.41 66.31 16.85 64.87 18.29 63.36L18.29 82.37C18.29 83.23 18.00 83.45 17.35 83.45C16.63 83.52 14.40 83.52 12.02 83.45C12.74 84.82 13.46 87.41 13.61 88.78C17.28 88.78 19.73 88.63 21.38 87.70C23.04 86.76 23.47 85.10 23.47 82.37ZM50.26 72.43L56.02 72.43L56.02 79.63L50.26 79.63ZM56.02 56.81L50.26 56.81L50.26 50.54L56.02 50.54ZM56.02 67.75L50.26 67.75L50.26 61.49L56.02 61.49ZM68.83 79.63L61.13 79.63L61.13 72.43L67.25 72.43L67.25 67.75L61.13 67.75L61.13 61.49L67.25 61.49L67.25 56.81L61.13 56.81L61.13 50.54L68.54 50.54L68.54 45.36L62.71 45.36C61.99 43.20 60.70 40.18 59.47 38.02L54.94 39.46C55.80 41.18 56.74 43.42 57.46 45.36L51.19 45.36C52.13 43.20 52.99 40.97 53.78 38.81L48.67 37.22C46.94 42.77 44.06 48.17 40.82 52.20C41.62 50.83 42.34 49.32 43.06 47.88L38.30 45.14C37.73 46.73 37.08 48.31 36.36 49.90L31.03 50.33C33.48 47.02 35.93 42.98 37.58 39.17L32.54 36.65C30.89 41.90 27.72 47.45 26.71 48.89C25.78 50.40 24.84 51.41 23.90 51.62C24.55 52.99 25.42 55.58 25.63 56.74C26.57 56.23 28.08 55.87 33.77 55.15C31.54 59.40 29.30 62.93 28.44 64.15C26.86 66.31 25.63 67.90 24.41 68.18C25.06 69.62 25.78 72.14 26.06 73.22C27.14 72.58 28.87 72.07 36.22 70.42C33.48 76.32 29.30 81.00 23.69 84.24C24.84 85.10 26.57 87.12 27.36 88.20C36.43 82.66 41.76 73.51 44.06 61.34L39.24 60.48C38.95 61.99 38.66 63.36 38.30 64.73L32.62 65.74C35.14 62.28 37.51 58.39 39.67 54.43C40.61 55.87 41.98 58.39 42.34 59.33C43.20 58.39 44.06 57.31 44.93 56.16L44.93 88.34L50.26 88.34L50.26 84.82L68.83 84.82Z"/></svg>
