<svg xmlns="http://www.w3.org/2000/svg" xmlns:xlink="http://www.w3.org/1999/xlink" width="72.00000000000001" height="106.56000000000002"><path fill="red" stroke="red" d="M63.79 26.06L37.51 26.06L37.51 30.60L57.53 30.60L57.53 33.55L37.80 33.55L37.80 37.66L57.53 37.66L57.53 40.75L14.62 40.75L14.62 37.58L33.34 37.58L33.34 33.48L14.62 33.48L14.62 30.89C21.38 30.10 28.51 29.02 33.77 27.50L30.02 23.83C24.91 25.42 15.91 26.78 8.28 27.50L8.28 45.22L63.79 45.22ZM16.13 59.69L32.76 59.69L32.76 63.36L16.13 63.36ZM16.13 52.27L32.76 52.27L32.76 55.87L16.13 55.87ZM56.16 55.87L38.95 55.87L38.95 52.27L56.16 52.27ZM56.16 63.36L38.95 63.36L38.95 59.69L56.16 59.69ZM37.44 70.92C37.66 69.77 37.94 68.62 38.16 67.39L62.78 67.39L62.78 48.24L9.79 48.24L9.79 67.39L31.82 67.39C31.61 68.69 31.25 69.77 30.96 70.92L6.26 70.92L6.26 76.18L28.01 76.18C24.41 80.35 17.64 82.94 4.39 84.46C5.40 85.68 6.77 88.06 7.20 89.57C23.83 87.34 31.54 83.16 35.35 76.18L57.24 76.18C56.52 80.35 55.73 82.44 54.72 83.16C54.22 83.74 53.42 83.81 51.98 83.81C50.54 83.81 46.37 83.74 42.41 83.38C43.42 84.96 44.14 87.19 44.14 88.92C48.38 89.21 52.34 89.21 54.43 89.06C56.74 88.85 58.25 88.49 59.76 87.12C61.56 85.54 62.78 81.72 63.94 73.58C64.08 72.65 64.22 70.92 64.22 70.92Z"/></svg>
