<svg xmlns="http://www.w3.org/2000/svg" xmlns:xlink="http://www.w3.org/1999/xlink" width="72.00000000000001" height="106.56000000000002"><path fill="red" stroke="red" d="M23.90 72.94C19.30 76.68 10.66 81.36 3.89 84.02C5.18 85.39 6.84 87.70 7.70 89.06C14.69 86.11 23.40 81.43 29.45 77.18ZM42.34 77.11C49.82 80.64 57.67 85.32 62.42 88.63L66.74 83.59C61.85 80.35 53.57 75.89 46.08 72.43ZM33.77 48.89L38.16 48.89L38.16 57.02L33.77 57.02ZM30.74 61.13L41.26 61.13L41.26 44.78L30.74 44.78ZM30.02 36.22L30.02 40.61L41.62 40.61L41.62 36.22ZM28.15 31.82L43.56 31.82L43.56 66.17L28.15 66.17ZM62.86 66.17C63.50 55.08 64.01 38.81 64.15 26.21L50.54 26.21L50.54 31.75L58.25 31.75C58.25 34.42 58.18 37.22 58.18 40.03L50.90 40.03L50.90 45.43L58.03 45.43C57.96 48.02 57.89 50.62 57.82 53.14L50.40 53.14L50.40 58.54L57.53 58.54C57.46 61.20 57.31 63.86 57.17 66.17L48.60 66.17L48.60 26.64L23.33 26.64L23.33 66.17L14.83 66.17L14.62 58.39L21.60 58.39L21.60 52.99L14.47 52.99L14.18 45.29L21.31 45.29L21.31 39.89L14.04 39.89L13.82 32.26C16.92 31.46 20.16 30.53 23.04 29.52L20.02 23.83C16.85 25.34 12.02 27.07 7.99 28.30L9.07 66.17L3.60 66.17L3.60 72.36L68.26 72.36L68.26 66.17Z"/></svg>
