<svg xmlns="http://www.w3.org/2000/svg" xmlns:xlink="http://www.w3.org/1999/xlink" width="72.00000000000001" height="106.56000000000002"><path fill="red" stroke="red" d="M10.37 47.16L61.42 47.16L61.42 53.57L67.61 53.57L67.61 41.62L53.64 41.62C55.73 38.74 58.10 35.21 60.12 31.97L53.64 29.59C52.06 33.19 49.25 38.23 46.87 41.62L35.71 41.62L40.61 39.96C39.82 37.44 37.94 33.62 36.29 30.74L30.67 32.54C32.26 35.35 33.91 39.17 34.56 41.62L19.66 41.62L24.70 39.89C23.90 37.37 21.82 33.70 19.80 30.96C35.57 30.74 52.42 29.81 64.22 27.94L60.05 22.97C47.81 24.77 25.99 25.70 7.99 25.70C8.50 27.00 9.14 29.45 9.22 30.96C12.60 30.96 16.06 30.96 19.66 30.96L14.26 32.76C16.06 35.50 18.00 39.17 18.79 41.62L4.39 41.62L4.39 54.79L10.37 54.79ZM29.23 59.04C27.94 64.01 25.99 68.18 23.47 71.57C21.17 69.12 18.07 66.24 15.19 64.01C16.34 62.42 17.50 60.77 18.58 59.04ZM32.54 53.64L31.39 53.78L21.53 53.78C22.18 52.34 22.82 50.90 23.33 49.46L17.71 47.81C14.76 55.87 9.22 62.93 2.74 67.39C3.82 68.76 5.54 71.78 6.05 73.15C8.06 71.64 9.94 69.98 11.74 68.04C14.62 70.49 17.57 73.51 19.58 75.96C15.48 79.70 10.37 82.22 4.46 83.88C5.69 85.03 7.49 87.70 8.21 89.21C22.54 84.60 32.76 74.66 36.43 54.94ZM43.42 72.14C44.35 68.76 45.22 64.87 46.01 61.34L50.76 61.34L50.76 72.14ZM67.75 72.14L56.74 72.14L56.74 61.34L66.10 61.34L66.10 55.66L56.74 55.66L56.74 49.82L50.76 49.82L50.76 55.66L37.58 55.66L37.58 61.34L40.03 61.34C38.95 66.96 37.37 73.58 36.00 77.90L38.23 77.90L38.23 77.98L50.76 77.98L50.76 89.28L56.74 89.28L56.74 77.98L67.75 77.98Z"/></svg>
