<svg xmlns="http://www.w3.org/2000/svg" xmlns:xlink="http://www.w3.org/1999/xlink" width="72.00000000000001" height="106.56000000000002"><path fill="red" stroke="red" d="M14.40 42.41C16.13 45.36 17.71 49.39 18.14 51.98L22.39 50.18C21.82 47.59 20.23 43.70 18.36 40.75ZM13.25 37.15L24.34 37.15L24.34 53.93C20.52 54.36 16.70 54.65 13.25 55.01ZM31.75 53.21L29.88 53.42L29.88 31.82L20.45 31.82C21.31 29.59 22.10 26.86 22.97 24.26L16.42 23.04C15.98 25.63 15.19 29.09 14.40 31.82L7.70 31.82L7.70 55.44C5.90 55.58 4.18 55.73 2.59 55.80L3.31 61.34L7.70 60.84C7.56 69.34 6.84 79.27 2.38 86.33C3.82 86.98 6.26 88.63 7.27 89.64C12.10 81.86 13.10 69.77 13.25 60.26L24.34 59.18L24.34 81.94C24.34 82.80 24.05 83.09 23.18 83.16C22.39 83.16 19.80 83.16 16.92 83.09C17.78 84.53 18.50 87.12 18.72 88.70C22.97 88.70 25.70 88.56 27.50 87.55C29.30 86.62 29.88 84.89 29.88 81.94L29.88 58.61L31.90 58.39ZM22.54 72.22C22.03 69.62 20.38 65.74 18.58 62.86L14.62 64.44C16.34 67.39 17.93 71.35 18.36 74.09ZM39.60 79.34L39.60 63.50L60.41 63.50L60.41 79.34ZM60.41 41.76L60.41 57.53L39.60 57.53L39.60 41.76ZM50.98 35.50C52.06 32.04 53.28 27.79 54.36 23.90L47.23 23.11C46.66 26.71 45.58 31.54 44.57 35.50L33.34 35.50L33.34 89.28L39.60 89.28L39.60 85.54L60.41 85.54L60.41 88.78L66.96 88.78L66.96 35.50Z"/></svg>
