<svg xmlns="http://www.w3.org/2000/svg" xmlns:xlink="http://www.w3.org/1999/xlink" width="72.00000000000001" height="106.56000000000002"><path fill="red" stroke="red" d="M14.26 41.26C15.91 44.50 17.57 48.82 18.29 51.62L22.68 49.75C21.89 46.94 20.16 42.77 18.43 39.60ZM13.68 54.14L13.68 37.15L23.98 37.15L23.98 52.99ZM32.69 57.31L32.40 51.98L29.81 52.27L29.81 31.82L20.02 31.82C20.88 29.52 21.82 26.71 22.75 24.12L15.98 22.97C15.62 25.56 14.83 29.02 13.97 31.82L7.85 31.82L7.85 54.79C5.90 55.01 4.03 55.22 2.45 55.37L3.46 61.13L7.85 60.55C7.78 69.12 7.06 79.20 2.52 86.33C4.03 86.98 6.55 88.63 7.63 89.71C12.67 81.72 13.61 69.41 13.68 59.83L23.98 58.54L23.98 81.79C23.98 82.66 23.69 82.87 22.82 82.94C22.03 82.94 19.44 83.02 16.63 82.87C17.50 84.38 18.36 87.05 18.50 88.56C22.82 88.56 25.49 88.49 27.43 87.41C29.23 86.47 29.81 84.74 29.81 81.79L29.81 57.67ZM23.33 72.22C22.32 69.34 20.23 64.87 18.22 61.56L14.11 63.36C16.06 66.67 18.07 71.21 18.94 74.16ZM69.48 86.18C68.04 81.07 63.94 73.37 59.98 67.54L54.43 69.62C56.09 72.22 57.67 75.02 59.11 77.83L42.19 79.27C50.11 70.78 58.10 60.12 64.87 48.89L59.04 45.65C57.17 49.10 55.08 52.56 52.85 55.87L42.05 56.45C45.50 51.84 48.89 46.30 51.77 40.68L68.83 40.68L68.83 34.56L51.62 34.56L55.37 32.62C54.14 29.88 51.77 25.85 49.61 22.75L44.14 25.34C45.86 28.08 47.95 31.82 49.18 34.56L31.82 34.56L31.82 40.68L44.64 40.68C41.90 46.66 38.45 52.06 37.22 53.71C35.64 55.80 34.49 57.24 33.12 57.60C33.84 59.18 34.85 62.28 35.06 63.65C36.50 63.07 38.52 62.71 48.82 61.92C44.50 68.04 40.54 72.72 38.74 74.66C35.71 78.05 33.70 80.14 31.68 80.64C32.54 82.37 33.62 85.54 33.98 86.90C36.07 85.97 39.17 85.61 61.63 83.45C62.42 85.39 63.07 87.19 63.36 88.63Z"/></svg>
