<svg xmlns="http://www.w3.org/2000/svg" xmlns:xlink="http://www.w3.org/1999/xlink" width="72.00000000000001" height="106.56000000000002"><path fill="red" stroke="red" d="M17.35 42.34L23.98 42.34L23.98 35.93L34.56 35.93L34.56 30.02L23.98 30.02L23.98 23.11L17.35 23.11L17.35 30.02L4.46 30.02L4.46 35.93L17.35 35.93ZM32.04 40.10C33.34 42.34 34.63 45.22 35.57 47.66L5.11 47.66L5.11 53.93L23.47 53.93C22.25 66.02 19.22 77.62 2.88 83.66C4.39 84.96 6.26 87.48 7.06 89.21C19.37 84.38 25.13 76.61 28.08 67.46L52.56 67.46C51.62 76.75 50.54 81.00 49.03 82.22C48.24 82.87 47.30 83.02 45.86 83.02C43.99 83.02 39.53 82.94 34.99 82.51C36.22 84.31 37.08 86.90 37.22 88.78C41.69 89.06 46.15 89.06 48.46 88.85C51.12 88.70 52.92 88.20 54.65 86.54C57.10 84.17 58.39 78.19 59.69 64.30C59.83 63.29 59.98 61.42 59.98 61.42L29.52 61.42C30.02 58.97 30.38 56.45 30.67 53.93L67.10 53.93L67.10 47.66L42.12 47.66C41.11 44.93 39.46 41.40 37.73 38.59ZM54.65 30.02L54.65 23.11L48.02 23.11L48.02 30.02L37.37 30.02L37.37 35.93L48.02 35.93L48.02 42.41L54.65 42.41L54.65 35.93L67.75 35.93L67.75 30.02Z"/></svg>
