<svg xmlns="http://www.w3.org/2000/svg" xmlns:xlink="http://www.w3.org/1999/xlink" width="72.00000000000001" height="106.56000000000002"><path fill="red" stroke="red" d="M47.52 35.06L54.14 35.06L54.14 32.33L67.75 32.33L67.75 27.07L54.14 27.07L54.14 23.11L47.52 23.11L47.52 27.07L37.37 27.07L37.37 32.33L47.52 32.33ZM18.22 36.58L24.77 36.58L24.77 32.33L34.42 32.33L34.42 27.07L24.77 27.07L24.77 23.11L18.22 23.11L18.22 27.07L4.46 27.07L4.46 32.33L18.22 32.33ZM17.78 66.96L17.78 63.36L32.40 63.36L32.40 66.96ZM17.78 56.38L32.40 56.38L32.40 59.90L17.78 59.90ZM54.22 56.38L54.22 59.90L39.02 59.90L39.02 56.38ZM54.22 66.96L39.02 66.96L39.02 63.36L54.22 63.36ZM39.02 82.08L39.02 78.41L62.71 78.41L62.71 73.94L39.02 73.94L39.02 70.78L60.77 70.78L60.77 52.56L39.02 52.56L39.02 49.61L67.54 49.61L67.54 44.93L39.02 44.93L39.02 41.54C47.45 41.11 55.37 40.54 61.85 39.82L57.96 35.64C46.44 37.01 26.21 37.87 9.07 37.94C9.50 39.02 10.01 40.97 10.15 42.19C17.28 42.19 24.91 42.05 32.40 41.76L32.40 44.93L4.61 44.93L4.61 49.61L32.40 49.61L32.40 52.56L11.52 52.56L11.52 70.78L32.40 70.78L32.40 73.94L9.58 73.94L9.58 78.41L32.40 78.41L32.40 82.08L3.96 82.08L3.96 86.98L68.11 86.98L68.11 82.08Z"/></svg>
