<svg xmlns="http://www.w3.org/2000/svg" xmlns:xlink="http://www.w3.org/1999/xlink" width="72.00000000000001" height="106.56000000000002"><path fill="red" stroke="red" d="M45.72 37.15L52.42 37.15L52.42 32.54L67.46 32.54L67.46 27.14L52.42 27.14L52.42 23.11L45.72 23.11L45.72 27.14L37.15 27.14L37.15 32.54L45.72 32.54ZM19.51 37.15L26.14 37.15L26.14 32.54L34.63 32.54L34.63 27.14L26.14 27.14L26.14 23.11L19.51 23.11L19.51 27.14L4.39 27.14L4.39 32.54L19.51 32.54ZM51.34 43.20L51.34 47.16L33.62 47.16C34.06 46.01 34.49 44.57 34.99 43.20ZM67.54 47.16L57.67 47.16L57.67 38.81L36.29 38.81C36.58 37.80 36.79 36.79 37.08 35.86L30.74 35.06C30.46 36.29 30.10 37.51 29.74 38.81L13.18 38.81L13.18 43.20L28.51 43.20C28.08 44.57 27.65 45.94 27.22 47.16L4.54 47.16L4.54 51.77L67.54 51.77ZM18.43 78.98C18.79 77.62 19.22 76.10 19.66 74.66L34.70 74.66L34.70 78.98ZM20.09 58.75L52.42 58.75L52.42 62.64L20.09 62.64ZM67.61 78.98L41.33 78.98L41.33 74.66L64.87 74.66L64.87 70.13L41.33 70.13L41.33 66.67L59.04 66.67L59.04 54.72L13.82 54.72L13.82 66.67L34.70 66.67L34.70 70.13L6.70 70.13L6.70 74.66L13.54 74.66C12.60 77.83 11.59 81.07 10.66 83.52L34.70 83.52L34.70 89.14L41.33 89.14L41.33 83.52L67.61 83.52Z"/></svg>
