<svg xmlns="http://www.w3.org/2000/svg" xmlns:xlink="http://www.w3.org/1999/xlink" width="72.00000000000001" height="106.56000000000002"><path fill="red" stroke="red" d="M48.02 37.51L54.65 37.51L54.65 33.05L67.68 33.05L67.68 27.58L54.65 27.58L54.65 23.04L48.02 23.04L48.02 27.58L37.37 27.58L37.37 33.05L48.02 33.05ZM6.62 40.25L6.62 52.63L12.82 52.63L12.82 45.58L59.33 45.58L59.33 52.63L65.88 52.63L65.88 40.25L39.96 40.25C39.17 38.23 38.02 35.86 36.79 33.91L30.38 35.28C31.25 36.72 32.11 38.59 32.76 40.25ZM43.20 49.97C48.60 52.99 55.22 57.74 58.61 61.06L63.50 57.31C59.98 54.29 53.42 49.68 47.95 46.80ZM22.75 47.09C19.44 50.98 13.75 54.65 8.14 57.10C9.50 58.18 11.66 60.41 12.60 61.63C18.29 58.68 24.70 53.93 28.66 48.96ZM17.35 37.44L23.98 37.44L23.98 33.12L34.42 33.12L34.42 27.58L23.98 27.58L23.98 23.04L17.35 23.04L17.35 27.58L4.46 27.58L4.46 33.12L17.35 33.12ZM25.99 67.18C29.59 64.66 32.90 61.78 35.86 58.75C39.38 61.99 43.06 64.80 46.94 67.18ZM22.61 81.50L22.61 72.65L49.61 72.65L49.61 81.50ZM34.92 50.26C28.15 59.90 15.62 67.46 2.81 71.50C4.32 73.01 6.05 75.31 6.91 76.97C10.08 75.74 13.25 74.45 16.27 72.94L16.27 89.21L22.61 89.21L22.61 86.98L49.61 86.98L49.61 89.21L56.23 89.21L56.23 72.14C59.04 73.51 61.99 74.74 65.09 75.89C65.88 73.94 67.68 71.64 69.26 70.27C58.03 66.60 47.88 62.14 39.53 54.50C39.96 53.93 40.39 53.42 40.75 52.85Z"/></svg>
