<svg xmlns="http://www.w3.org/2000/svg" xmlns:xlink="http://www.w3.org/1999/xlink" width="72.00000000000001" height="106.56000000000002"><path fill="red" stroke="red" d="M47.66 36.43L54.14 36.43L54.14 32.40L67.82 32.40L67.82 26.93L54.14 26.93L54.14 23.11L47.66 23.11L47.66 26.93L37.80 26.93L37.80 32.40L47.66 32.40ZM18.50 36.43L24.98 36.43L24.98 32.40L34.06 32.40L34.06 27.00L24.98 27.00L24.98 23.11L18.50 23.11L18.50 27.00L4.25 27.00L4.25 32.40L18.50 32.40ZM21.82 38.38L20.88 38.59L6.62 38.59L6.62 89.21L12.38 89.21L12.38 43.92L18.86 43.92C17.78 47.95 16.20 52.92 14.62 57.02C18.72 61.70 19.73 65.81 19.80 69.05C19.80 70.99 19.44 72.50 18.58 73.15C18.14 73.51 17.57 73.66 16.92 73.73C16.13 73.73 15.05 73.73 13.97 73.58C14.76 75.10 15.26 77.47 15.26 78.98C16.70 79.06 18.22 78.98 19.37 78.84C20.66 78.70 21.74 78.26 22.75 77.54C24.70 76.10 25.49 73.37 25.49 69.62C25.42 65.81 24.34 61.34 20.16 56.38C22.18 51.48 24.26 45.58 26.06 40.54ZM38.23 55.37C41.98 54.58 45.86 53.64 49.61 52.56C52.70 53.42 55.58 54.43 58.03 55.37ZM57.02 46.01C55.15 46.94 52.85 47.74 50.33 48.53C46.73 47.59 43.06 46.73 39.67 46.01ZM53.57 83.16L53.57 78.34L64.22 78.34L64.22 74.02L53.57 74.02L53.57 69.77L66.02 69.77L66.02 65.45L53.57 65.45L53.57 61.78L47.74 61.78L47.74 65.45L42.41 65.45C42.91 64.30 43.34 63.14 43.70 61.99L38.81 60.98C37.58 65.02 35.57 69.12 32.90 72.14C33.26 69.55 33.34 67.10 33.34 64.80L33.34 60.19L67.97 60.19L67.97 55.37L61.85 55.37L64.30 52.99C62.14 52.13 59.33 51.12 56.30 50.26C58.82 49.25 60.98 48.17 62.78 47.09L60.48 46.01L67.18 46.01L67.18 41.18L51.91 41.18C51.19 39.67 50.04 38.02 49.03 36.72L43.27 38.23C43.85 39.17 44.50 40.10 45.07 41.18L28.44 41.18L28.44 46.01L36.22 46.01L33.48 48.38C36.29 48.96 39.38 49.75 42.48 50.62C38.59 51.41 34.49 52.06 30.67 52.56C31.39 53.21 32.40 54.36 33.19 55.37L27.72 55.37L27.72 64.73C27.72 71.06 26.93 79.63 21.46 85.97C22.75 86.54 25.34 88.20 26.28 89.21C30.38 84.46 32.11 78.19 32.90 72.36C34.20 72.79 36.22 73.80 37.30 74.45C38.38 73.15 39.38 71.57 40.32 69.77L47.74 69.77L47.74 74.02L37.87 74.02L37.87 78.34L47.74 78.34L47.74 83.16L33.05 83.16L33.05 87.84L68.18 87.84L68.18 83.16Z"/></svg>
