<svg xmlns="http://www.w3.org/2000/svg" xmlns:xlink="http://www.w3.org/1999/xlink" width="72.00000000000001" height="106.56000000000002"><path fill="red" stroke="red" d="M32.26 40.25L32.26 43.34L18.29 43.99L18.43 47.52L32.26 46.87C32.40 51.05 33.84 53.14 40.03 53.14L56.88 53.14C59.98 53.14 63.50 53.06 64.94 52.63C64.73 51.41 64.66 50.18 64.51 48.38C62.86 48.82 58.54 48.89 56.09 48.89L41.18 48.89C38.66 48.89 38.23 48.24 38.23 46.58L55.30 45.79L55.15 42.34L38.23 43.13L38.23 40.25L58.90 40.25C58.25 41.90 57.60 43.63 57.02 44.86L62.35 46.66C63.94 44.06 65.59 40.03 66.89 36.43L62.21 35.14L61.13 35.35L37.51 35.35L37.51 31.75L62.50 31.75L62.50 26.93L37.51 26.93L37.51 23.11L30.82 23.11L30.82 35.35L8.93 35.35L8.93 53.50C8.93 63.00 8.50 76.39 2.88 85.75C4.39 86.40 7.27 88.13 8.50 89.21C14.47 79.20 15.48 64.01 15.48 53.57L15.48 40.25ZM42.70 74.81C42.77 74.02 42.91 73.22 42.98 72.43L37.15 72.43C37.01 73.22 36.86 74.02 36.65 74.81L16.78 74.81L16.78 79.13L34.49 79.13C31.75 82.15 26.42 83.66 15.77 84.60C16.78 85.68 18.00 87.84 18.36 89.28C32.40 87.77 38.52 84.82 41.26 79.13L58.32 79.13C57.67 82.08 56.88 83.59 56.16 84.31C55.58 84.74 54.94 84.82 53.78 84.82C52.63 84.89 49.68 84.82 46.58 84.46C47.38 85.82 47.95 87.70 48.02 89.14C51.41 89.35 54.65 89.35 56.38 89.21C58.32 89.14 59.76 88.85 61.06 87.77C62.78 86.40 63.94 83.38 64.94 77.18C65.16 76.39 65.23 74.81 65.23 74.81ZM44.71 67.90L44.71 64.73L56.88 64.73L56.88 67.90ZM26.42 64.73L38.66 64.73L38.66 67.90L26.42 67.90ZM38.66 58.25L38.66 61.49L26.42 61.49L26.42 58.25ZM56.88 61.49L44.71 61.49L44.71 58.25L56.88 58.25ZM62.50 60.34L62.50 54.72L21.10 54.72L21.10 60.34L16.63 60.34L16.63 65.81L21.10 65.81L21.10 71.35L62.50 71.35L62.50 65.81L68.26 65.81L68.26 60.34Z"/></svg>
