<svg xmlns="http://www.w3.org/2000/svg" xmlns:xlink="http://www.w3.org/1999/xlink" width="72.00000000000001" height="106.56000000000002"><path fill="red" stroke="red" d="M68.98 37.08C67.39 33.98 64.01 29.02 61.34 25.42L56.52 27.58C59.18 31.32 62.35 36.43 63.72 39.60ZM9.79 41.33L13.68 41.33L13.68 57.96L9.79 57.96ZM21.82 57.96L17.78 57.96L17.78 41.33L21.82 41.33ZM29.81 81.86C29.02 77.76 27.14 71.57 25.20 66.67L20.81 68.18C21.60 70.20 22.39 72.50 23.11 74.95L18.50 75.74L18.50 63.43L26.93 63.43L26.93 35.78L18.58 35.78L18.58 23.40L12.96 23.40L12.96 35.78L4.90 35.78L4.90 66.96L9.79 66.96L9.79 63.43L12.96 63.43L12.96 76.82C9.22 77.54 5.83 78.12 3.10 78.62L4.18 84.67C10.01 83.45 17.28 81.94 24.48 80.35C24.77 81.50 24.98 82.58 25.13 83.52ZM41.26 44.06L41.26 32.54C43.92 31.61 46.44 30.53 48.74 29.52C48.82 34.49 48.96 39.38 49.10 44.06ZM62.78 52.56C61.13 57.24 59.18 61.63 56.74 65.59C56.16 61.13 55.66 55.94 55.30 50.11L68.62 50.11L68.62 44.06L55.08 44.06C54.79 37.58 54.72 30.53 54.79 23.26L48.67 23.26L48.74 27.94L44.71 24.34C40.61 26.86 33.55 29.52 27.14 31.32C27.94 32.62 28.87 34.78 29.30 36.07C31.25 35.57 33.34 35.06 35.35 34.49L35.35 44.06L28.30 44.06L28.30 50.11L35.35 50.11L35.35 61.85C32.40 62.50 29.74 63.00 27.43 63.50L28.80 69.77L35.35 68.04L35.35 81.58C35.35 82.51 35.06 82.80 34.20 82.80C33.26 82.87 30.53 82.87 27.58 82.73C28.37 84.46 29.23 87.19 29.45 88.78C33.77 88.78 36.86 88.56 38.74 87.48C40.61 86.54 41.26 84.82 41.26 81.58L41.26 66.46C43.70 65.88 46.08 65.23 48.46 64.58L47.81 58.97L41.26 60.41L41.26 50.11L49.32 50.11C49.82 58.68 50.69 66.31 51.91 72.58C48.74 76.39 45.22 79.70 41.33 82.37C42.48 83.66 44.28 86.33 45.07 87.62C48.17 85.39 51.05 82.73 53.78 79.70C55.80 85.54 58.54 88.92 62.42 88.92C67.25 88.92 68.90 85.97 69.77 76.25C68.47 75.60 66.53 74.30 65.30 72.94C65.02 80.06 64.37 82.94 63.14 82.94C61.27 82.94 59.54 79.70 58.25 74.09C62.57 68.26 66.02 61.49 68.62 54.14Z"/></svg>
