<svg xmlns="http://www.w3.org/2000/svg" xmlns:xlink="http://www.w3.org/1999/xlink" width="72.00000000000001" height="106.56000000000002"><path fill="red" stroke="red" d="M61.49 26.57C60.26 28.94 57.89 32.47 56.16 34.78L60.26 36.58C62.28 34.56 64.94 31.54 67.32 28.58ZM44.71 34.85C43.92 32.62 42.19 28.87 40.82 26.06L36.07 27.50C37.44 30.31 39.02 34.27 39.74 36.58ZM29.88 26.71C28.73 29.02 26.50 32.47 24.91 34.78L28.87 36.36C30.67 34.49 33.12 31.54 35.28 28.58ZM14.47 34.78C13.61 32.62 11.74 28.94 10.22 26.35L5.62 27.86C7.13 30.60 8.78 34.34 9.65 36.65ZM37.94 47.59C43.85 45.79 47.74 43.27 50.18 39.96C54.29 42.48 58.97 45.50 61.78 47.59ZM6.12 60.34L12.53 60.34L12.53 53.21L59.47 53.21L59.47 60.34L66.17 60.34L66.17 47.59L63.00 47.59L66.67 43.63C63.50 41.33 57.46 37.80 52.85 35.14C54.00 31.75 54.50 27.86 54.79 23.11L48.74 23.11C48.10 33.98 46.22 39.60 34.13 42.77C35.21 43.92 36.86 46.08 37.44 47.59L7.06 47.59C13.39 45.79 17.28 43.42 19.80 40.03C23.11 42.26 26.78 44.86 28.87 46.51L33.19 42.34C30.67 40.39 26.06 37.37 22.39 35.21C23.47 31.90 23.90 28.01 24.12 23.18L18.29 23.18C17.78 34.63 15.91 39.89 3.53 42.84C4.68 43.92 6.19 46.08 6.77 47.59L6.12 47.59ZM39.17 75.02L52.99 75.02L49.03 76.82C50.47 77.98 52.13 79.34 53.64 80.64L39.17 81.00ZM20.30 70.06L20.30 63.65L32.62 63.65L32.62 70.06ZM51.84 63.65L51.84 70.06L39.17 70.06L39.17 63.65ZM68.33 86.62C65.59 83.38 60.41 78.55 55.73 75.02L58.46 75.02L58.46 58.68L39.17 58.68L39.17 53.50L32.62 53.50L32.62 58.68L14.04 58.68L14.04 75.02L32.62 75.02L32.62 81.14C22.61 81.29 13.61 81.43 6.77 81.50L7.34 87.55C20.38 87.34 40.32 86.69 59.26 86.04C60.48 87.41 61.63 88.63 62.50 89.71Z"/></svg>
