<svg xmlns="http://www.w3.org/2000/svg" xmlns:xlink="http://www.w3.org/1999/xlink" width="72.00000000000001" height="106.56000000000002"><path fill="red" stroke="red" d="M39.10 42.41L50.26 42.41L47.52 43.99C48.96 44.93 50.54 46.08 52.13 47.23L39.10 47.38ZM18.00 37.58L18.00 32.26L32.47 32.26L32.47 37.58ZM54.14 32.26L54.14 37.58L39.10 37.58L39.10 32.26ZM7.42 53.06C20.30 52.99 39.74 52.56 58.10 51.98C59.62 53.35 60.98 54.58 62.06 55.66L66.74 52.49C63.86 49.75 58.54 45.58 53.78 42.41L60.77 42.41L60.77 27.43L39.10 27.43L39.10 22.97L32.47 22.97L32.47 27.43L11.81 27.43L11.81 42.41L32.47 42.41L32.47 47.45C22.68 47.52 13.75 47.59 7.06 47.52ZM10.73 69.48L10.73 63.22L16.63 63.22L16.63 69.48ZM28.01 63.22L28.01 69.48L22.18 69.48L22.18 63.22ZM25.49 76.68C26.14 77.76 26.86 78.91 27.50 80.14L22.18 80.42L22.18 74.45L33.34 74.45L33.34 58.18L22.18 58.18L22.18 53.35L16.63 53.35L16.63 58.18L5.76 58.18L5.76 74.45L16.63 74.45L16.63 80.64L2.81 81.22L3.24 86.98C10.44 86.47 20.30 85.97 29.95 85.25C30.53 86.69 31.10 88.13 31.39 89.28L36.29 87.12C35.21 83.74 32.62 78.55 30.10 74.74ZM42.26 69.41L42.26 63.14L48.46 63.14L48.46 69.41ZM60.55 63.14L60.55 69.41L54.14 69.41L54.14 63.14ZM69.77 86.76C68.47 83.38 65.45 78.26 62.50 74.45L57.74 76.68C58.54 77.76 59.33 78.98 60.12 80.21L54.14 80.50L54.14 74.38L65.88 74.38L65.88 58.10L54.14 58.10L54.14 53.35L48.46 53.35L48.46 58.10L37.30 58.10L37.30 74.38L48.46 74.38L48.46 80.71C43.63 80.93 39.24 81.14 35.71 81.22L36.29 87.12C43.56 86.62 53.35 86.04 63.00 85.32C63.72 86.76 64.37 88.13 64.80 89.28Z"/></svg>
