<svg xmlns="http://www.w3.org/2000/svg" xmlns:xlink="http://www.w3.org/1999/xlink" width="72.00000000000001" height="106.56000000000002"><path fill="red" stroke="red" d="M13.54 41.47L13.54 56.95L9.65 56.95L9.65 41.47ZM21.67 56.95L17.50 56.95L17.50 41.47L21.67 41.47ZM20.38 67.32C21.02 69.70 21.67 72.36 22.32 75.02L18.29 75.67L18.29 62.42L26.57 62.42L26.57 35.93L18.29 35.93L18.29 23.33L12.96 23.33L12.96 35.93L4.90 35.93L4.90 66.24L9.07 66.24L9.07 62.42L12.82 62.42L12.82 76.54C9.07 77.11 5.62 77.62 2.81 77.98L3.82 84.38C9.43 83.52 16.49 82.22 23.40 81.00C23.69 82.58 23.98 84.24 24.12 85.54L28.80 84.24C28.15 79.34 26.42 71.93 24.77 66.10ZM34.49 71.06L34.49 64.01L40.68 64.01L40.68 71.06ZM40.68 52.20L40.68 58.97L34.49 58.97L34.49 52.20ZM35.42 37.01L35.42 31.18L40.68 31.18L40.68 37.01ZM60.55 37.01L55.01 37.01L55.01 31.18L60.55 31.18ZM61.49 52.13L61.49 58.97L55.01 58.97L55.01 52.13ZM55.01 71.06L55.01 64.01L61.49 64.01L61.49 71.06ZM49.82 83.30C46.44 83.30 45.94 82.66 45.94 79.56L45.94 31.18L49.75 31.18L49.75 76.25L66.96 76.25L66.96 46.94L55.01 46.94L55.01 41.98L66.02 41.98L66.02 26.21L30.10 26.21L30.10 41.98L40.68 41.98L40.68 46.94L29.16 46.94L29.16 76.32L40.68 76.32L40.68 79.49C40.68 86.40 42.48 88.20 49.25 88.20L62.06 88.20C67.32 88.20 68.90 86.26 69.55 80.42C68.04 80.14 65.95 79.34 64.80 78.48C64.44 82.30 63.94 83.30 61.70 83.30Z"/></svg>
