<svg xmlns="http://www.w3.org/2000/svg" xmlns:xlink="http://www.w3.org/1999/xlink" width="72.00000000000001" height="106.56000000000002"><path fill="red" stroke="red" d="M64.15 39.46C63.22 44.42 61.99 49.75 60.77 53.28L64.80 54.79C66.60 49.90 68.40 42.12 69.77 35.50L66.38 34.27L65.59 34.56L55.80 34.56C56.45 31.18 57.02 27.58 57.38 23.98L52.56 23.18C51.48 33.70 49.46 43.92 45.65 50.33C46.80 51.05 49.03 52.42 49.97 53.35C51.91 49.61 53.57 44.86 54.79 39.46ZM19.58 57.82L16.27 57.82L16.27 41.33L19.58 41.33ZM9.07 41.33L12.24 41.33L12.24 57.82L9.07 57.82ZM31.75 39.24L41.18 39.24L41.18 44.28L31.75 44.28ZM31.75 30.10L41.18 30.10L41.18 35.14L31.75 35.14ZM33.84 53.06C34.49 51.55 35.06 50.11 35.57 48.53L45.72 48.53L45.72 25.78L27.36 25.78L27.36 48.53L30.89 48.53C29.38 53.06 26.71 57.24 23.76 60.26L23.76 35.78L16.63 35.78L16.63 23.40L11.81 23.40L11.81 35.78L4.90 35.78L4.90 66.96L9.07 66.96L9.07 63.36L11.88 63.36L11.88 77.04C8.50 77.69 5.40 78.26 2.95 78.62L3.60 84.02C8.64 83.02 15.12 81.79 21.46 80.35C21.82 82.44 22.10 84.24 22.32 85.90L26.50 84.60C25.92 79.78 24.34 72.58 22.61 66.96L18.58 68.11C19.22 70.34 19.87 72.86 20.45 75.53L16.70 76.18L16.70 63.36L23.76 63.36L23.76 61.78C24.55 62.86 25.27 64.44 25.63 65.23L26.21 64.66L26.21 73.15C26.21 77.90 27.22 79.49 31.68 79.49L37.66 79.49C39.10 79.49 40.61 79.42 41.40 79.13C41.33 78.12 41.18 76.25 41.04 75.17C40.10 75.38 38.52 75.46 37.58 75.46L31.68 75.46C30.74 75.46 30.53 74.95 30.53 73.22L30.53 64.37L26.50 64.37C28.37 62.50 30.17 60.05 31.68 57.46L43.56 57.46C43.34 63.00 43.20 67.54 42.98 70.99C41.90 69.12 39.89 66.31 38.23 64.08C38.52 62.71 38.81 61.34 39.02 59.90L35.28 59.26C34.63 64.15 33.41 68.69 30.96 71.78C31.75 72.36 33.19 73.58 33.77 74.16C34.99 72.58 36.07 70.56 36.94 68.33C38.09 70.06 39.24 71.86 39.96 73.22L42.91 71.28C42.48 78.41 41.98 81.58 41.26 82.58C40.75 83.38 40.25 83.52 39.38 83.52C38.45 83.52 36.58 83.45 34.27 83.30C34.92 84.38 35.35 86.18 35.50 87.34C37.66 87.48 39.96 87.55 41.33 87.34C43.06 87.19 44.28 86.69 45.29 85.32C46.94 83.02 47.59 76.25 48.24 55.30C48.24 54.65 48.31 53.06 48.31 53.06ZM59.47 44.14L54.86 44.14L54.86 49.32C54.86 59.26 54.22 73.73 46.15 85.46C47.30 86.33 49.03 88.27 49.75 89.42C53.86 83.30 56.30 76.54 57.60 69.91C59.47 77.26 62.06 83.23 66.31 88.99C66.96 87.55 68.33 85.82 69.55 84.89C63.58 77.18 60.98 68.62 59.33 55.58C59.47 53.42 59.47 51.26 59.47 49.39Z"/></svg>
