<svg xmlns="http://www.w3.org/2000/svg" xmlns:xlink="http://www.w3.org/1999/xlink" width="72.00000000000001" height="106.56000000000002"><path fill="red" stroke="red" d="M7.78 26.42C10.22 29.45 12.60 33.55 13.61 36.36L18.43 33.70C17.35 30.96 14.83 27.00 12.24 24.05ZM26.06 65.66C25.27 64.66 23.33 62.14 21.17 59.69C22.75 57.74 24.48 55.37 26.14 53.14L22.25 50.18C21.38 51.98 19.94 54.50 18.65 56.59C18.07 55.87 17.50 55.22 17.06 54.72C19.80 49.54 22.18 43.85 23.90 38.30L20.74 36.22L19.58 36.43L4.32 36.43L4.32 41.98L17.06 41.98C13.75 51.05 7.85 60.48 2.23 66.02C3.17 67.10 4.82 70.06 5.40 71.64C7.27 69.62 9.22 67.25 11.09 64.51L11.09 89.28L16.63 89.28L16.63 61.27C18.94 64.37 21.53 68.04 22.68 70.13ZM33.19 34.78L68.54 34.78L68.54 29.09L53.06 29.09C52.13 27.14 50.62 24.77 49.25 22.97L44.14 25.13C45.00 26.35 45.79 27.65 46.58 29.09L27.43 29.09L27.43 51.70C27.43 61.92 26.93 75.82 21.46 85.46C22.75 86.18 25.34 88.06 26.35 89.14C32.33 78.84 33.19 62.86 33.19 51.70ZM42.41 66.89L42.41 62.21L48.31 62.21L48.31 66.89ZM42.41 53.57L48.31 53.57L48.31 58.10L42.41 58.10ZM59.33 53.57L59.33 58.10L53.64 58.10L53.64 53.57ZM59.33 66.89L53.64 66.89L53.64 62.21L59.33 62.21ZM69.05 75.60L53.64 75.60L53.64 71.21L64.58 71.21L64.58 49.25L53.64 49.25L53.64 45.14L66.74 45.14L66.74 39.96L53.64 39.96L53.64 36.29L48.31 36.29L48.31 39.96L35.35 39.96L35.35 45.14L48.31 45.14L48.31 49.25L37.30 49.25L37.30 71.21L48.31 71.21L48.31 75.60L33.05 75.60L33.05 81.07L48.31 81.07L48.31 89.21L53.64 89.21L53.64 81.07L69.05 81.07Z"/></svg>
