<svg xmlns="http://www.w3.org/2000/svg" xmlns:xlink="http://www.w3.org/1999/xlink" width="72.00000000000001" height="106.56000000000002"><path fill="red" stroke="red" d="M27.94 44.71L6.55 44.71L6.55 49.97L28.01 49.97L28.01 48.24C29.23 49.39 31.25 51.70 32.04 52.99C40.75 47.95 42.70 40.18 42.70 33.55L42.70 31.82L53.14 31.82L53.14 41.62C53.14 47.81 54.29 50.18 59.83 50.18L64.08 50.18C65.45 50.18 66.96 50.11 67.82 49.75C67.61 48.24 67.46 45.86 67.32 44.14C66.46 44.42 64.94 44.57 64.08 44.57L60.41 44.57C59.47 44.57 59.33 43.85 59.33 41.83L59.33 25.63L36.58 25.63L36.58 33.41C36.58 38.23 35.42 43.70 27.94 47.88ZM6.55 59.47L28.08 59.47L28.08 54.29L6.55 54.29ZM30.96 35.14L16.34 35.14L21.60 32.18C20.59 29.59 18.22 25.78 16.27 22.75L11.02 25.42C12.96 28.37 15.12 32.47 16.20 35.14L3.46 35.14L3.46 40.46L30.96 40.46ZM57.10 60.62C54.86 65.38 51.77 69.41 48.02 72.79C43.99 69.34 40.82 65.30 38.59 60.62ZM22.18 79.63L12.31 79.63L12.31 69.34L22.18 69.34ZM61.42 54.14L60.26 54.36L30.02 54.36L30.02 60.62L36.50 60.62L32.62 61.99C35.21 67.68 38.66 72.65 42.84 76.75C38.38 79.63 33.34 81.72 28.01 83.09L28.01 63.94L6.55 63.94L6.55 88.27L12.31 88.27L12.31 85.03L28.01 85.03L28.01 84.02C29.09 85.61 30.17 87.70 30.74 89.21C37.01 87.34 42.91 84.74 48.02 81.14C52.99 84.67 58.68 87.34 65.23 88.99C66.17 87.12 68.04 84.31 69.41 82.94C63.43 81.65 58.03 79.56 53.42 76.75C58.82 71.42 63.07 64.66 65.52 55.94Z"/></svg>
