<svg xmlns="http://www.w3.org/2000/svg" xmlns:xlink="http://www.w3.org/1999/xlink" width="72.00000000000001" height="106.56000000000002"><path fill="red" stroke="red" d="M31.61 34.99L16.34 34.99L20.74 33.19C20.30 30.53 18.79 26.35 17.06 23.40L12.17 25.27C13.68 28.22 15.05 32.18 15.41 34.99L2.95 34.99L2.95 40.32L31.61 40.32ZM22.68 69.48L22.68 79.92L12.02 79.92L12.02 69.48ZM28.66 64.15L6.19 64.15L6.19 88.34L12.02 88.34L12.02 85.32L28.66 85.32ZM6.34 59.62L28.87 59.62L28.87 54.36L6.34 54.36ZM69.19 55.22L53.64 55.22L53.64 39.60L67.61 39.60L67.61 33.48L43.20 33.48C44.28 30.53 45.14 27.43 45.86 24.34L39.17 22.97C37.30 32.04 33.70 41.04 28.87 46.87L28.87 44.78L6.34 44.78L6.34 50.04L28.87 50.04L28.87 47.52C30.53 48.46 33.19 50.11 34.34 51.12C36.79 47.95 38.95 43.99 40.90 39.60L46.94 39.60L46.94 55.22L30.96 55.22L30.96 61.63L46.94 61.63L46.94 89.21L53.64 89.21L53.64 61.63L69.19 61.63Z"/></svg>
