<svg xmlns="http://www.w3.org/2000/svg" xmlns:xlink="http://www.w3.org/1999/xlink" width="72.00000000000001" height="106.56000000000002"><path fill="red" stroke="red" d="M30.02 35.14L16.49 35.14L21.82 32.18C20.66 29.59 18.43 25.78 16.42 22.82L11.23 25.42C13.18 28.37 15.34 32.47 16.34 35.14L3.38 35.14L3.38 40.46L30.02 40.46ZM27.65 44.71L6.34 44.71L6.34 49.97L27.65 49.97ZM6.34 59.40L27.65 59.40L27.65 54.22L6.34 54.22ZM22.25 69.34L22.25 79.63L12.02 79.63L12.02 69.34ZM28.08 63.94L6.26 63.94L6.26 88.27L12.02 88.27L12.02 85.03L28.08 85.03ZM41.83 68.69L56.45 68.69L56.45 81.36L41.83 81.36ZM56.45 32.26L56.45 44.35L41.83 44.35L41.83 32.26ZM56.45 62.71L41.83 62.71L41.83 50.40L56.45 50.40ZM63.07 81.36L63.07 25.99L35.50 25.99L35.50 81.36L29.38 81.36L29.38 87.62L69.48 87.62L69.48 81.36Z"/></svg>
