<svg xmlns="http://www.w3.org/2000/svg" xmlns:xlink="http://www.w3.org/1999/xlink" width="72.00000000000001" height="106.56000000000002"><path fill="red" stroke="red" d="M29.66 35.14L16.13 35.14L20.88 31.97C19.73 29.38 17.42 25.56 15.41 22.68L10.66 25.42C12.60 28.37 14.83 32.47 15.98 35.14L3.53 35.14L3.53 40.46L29.66 40.46ZM26.64 49.97L26.64 44.71L6.34 44.71L6.34 49.97ZM21.31 69.34L21.31 79.63L11.59 79.63L11.59 69.34ZM26.71 63.94L6.34 63.94L6.34 88.27L11.59 88.27L11.59 85.03L26.71 85.03ZM6.34 59.40L26.71 59.40L26.71 54.22L6.34 54.22ZM48.31 51.26L48.31 57.74L38.88 57.74L38.88 51.26ZM38.88 69.48L38.88 63.00L48.31 63.00L48.31 69.48ZM42.55 33.62C43.78 30.82 44.86 27.86 45.72 24.77L39.02 23.33C36.65 32.18 32.33 40.75 26.93 46.22C28.51 47.23 31.39 49.18 32.62 50.26L33.55 49.25L33.55 78.12L38.88 78.12L38.88 74.81L53.78 74.81L53.78 45.94L36.00 45.94C37.30 44.06 38.52 41.90 39.74 39.67L61.42 39.67C60.70 68.11 59.76 78.98 57.74 81.43C57.02 82.37 56.23 82.66 55.01 82.66C53.42 82.66 49.82 82.66 45.94 82.30C47.09 84.17 47.88 87.05 48.02 88.92C51.70 89.14 55.51 89.14 57.82 88.85C60.26 88.49 61.92 87.77 63.50 85.46C66.24 81.94 66.96 70.34 67.90 36.86C67.90 36.00 67.97 33.62 67.97 33.62Z"/></svg>
