<svg xmlns="http://www.w3.org/2000/svg" xmlns:xlink="http://www.w3.org/1999/xlink" width="72.00000000000001" height="106.56000000000002"><path fill="red" stroke="red" d="M29.95 35.14L16.42 35.14L21.67 32.18C20.52 29.59 18.29 25.78 16.34 22.82L11.09 25.42C13.03 28.37 15.19 32.47 16.27 35.14L3.24 35.14L3.24 40.46L29.95 40.46ZM27.43 44.71L6.19 44.71L6.19 49.97L27.43 49.97ZM6.19 59.40L27.43 59.40L27.43 54.29L6.19 54.29ZM22.10 69.34L22.10 79.63L11.88 79.63L11.88 69.34ZM27.94 63.94L6.12 63.94L6.12 88.27L11.88 88.27L11.88 85.03L27.94 85.03ZM58.46 68.83L58.46 80.50L39.10 80.50L39.10 68.83ZM32.90 89.21L39.10 89.21L39.10 86.33L58.46 86.33L58.46 88.92L64.94 88.92L64.94 63.00L32.90 63.00ZM56.45 43.49L56.45 53.06L44.64 53.06C45.22 50.26 45.86 46.94 46.51 43.49ZM62.64 53.06L62.64 38.02L47.59 38.02C47.88 35.86 48.31 33.62 48.67 31.61L67.46 31.61L67.46 25.99L30.89 25.99L30.89 31.61L42.05 31.61C41.76 33.62 41.40 35.86 40.97 38.02L32.62 38.02L32.62 43.49L40.03 43.49C39.38 46.94 38.74 50.26 38.09 53.06L29.02 53.06L29.02 58.61L69.05 58.61L69.05 53.06Z"/></svg>
