<svg xmlns="http://www.w3.org/2000/svg" xmlns:xlink="http://www.w3.org/1999/xlink" width="72.00000000000001" height="106.56000000000002"><path fill="red" stroke="red" d="M20.88 32.33C19.94 29.74 17.93 25.92 16.06 22.90L10.80 25.13C12.60 28.08 14.62 32.26 15.55 34.92ZM21.89 69.34L21.89 79.63L12.17 79.63L12.17 69.34ZM27.29 63.94L6.41 63.94L6.41 88.27L12.17 88.27L12.17 85.03L27.29 85.03ZM6.41 59.47L27.14 59.47L27.14 54.22L6.41 54.22ZM6.41 44.71L6.41 49.97L27.07 49.97L27.07 44.71ZM3.53 40.54L29.74 40.54L29.74 35.14L3.53 35.14ZM38.74 47.59L38.74 37.87L47.52 37.87L47.52 32.47L38.74 32.47L38.74 23.62L32.47 23.62L32.47 46.44C32.47 48.82 31.32 49.39 30.17 49.75C31.03 51.19 31.90 54.14 32.11 55.80C33.48 54.94 35.64 54.22 48.31 51.05C48.02 49.82 47.66 47.45 47.66 45.86ZM58.90 70.99L40.32 70.99L40.32 65.59L58.90 65.59ZM40.32 81.58L40.32 76.03L58.90 76.03L58.90 81.58ZM45.65 53.42C45.14 55.37 44.21 57.96 43.20 60.34L33.98 60.34L33.98 89.21L40.32 89.21L40.32 86.83L58.90 86.83L58.90 88.92L65.45 88.92L65.45 60.34L49.68 60.34C50.62 58.54 51.55 56.66 52.49 54.65ZM57.82 49.54C56.45 49.54 56.23 49.18 56.23 47.30L56.23 37.87L67.54 37.87L67.54 32.47L56.23 32.47L56.23 23.11L49.97 23.11L49.97 47.38C49.97 53.14 51.26 54.86 56.74 54.86L62.71 54.86C66.96 54.86 68.62 52.78 69.19 45.79C67.46 45.36 65.02 44.42 63.79 43.56C63.58 48.53 63.29 49.54 61.99 49.54Z"/></svg>
