<svg xmlns="http://www.w3.org/2000/svg" xmlns:xlink="http://www.w3.org/1999/xlink" width="72.00000000000001" height="106.56000000000002"><path fill="red" stroke="red" d="M42.77 32.47L49.82 32.47L49.82 36.72L42.77 36.72ZM61.27 36.72L54.22 36.72L54.22 32.47L61.27 32.47ZM49.10 43.27L36.14 43.27L36.14 48.02L68.54 48.02L68.54 43.27L54.94 43.27L54.94 40.75L66.38 40.75L66.38 28.37L54.94 28.37L54.94 23.54L49.10 23.54L49.10 28.37L37.87 28.37L37.87 40.75L49.10 40.75ZM61.13 69.48L61.13 73.58L46.01 73.58L46.01 69.48ZM59.76 55.01L59.76 58.82L46.01 58.82L46.01 55.01ZM65.09 63.07L65.09 50.69L40.68 50.69L40.68 77.98L66.53 77.98L66.53 65.16L46.01 65.16L46.01 63.07ZM34.06 34.85C33.05 31.90 31.39 27.22 30.02 23.62L25.13 25.13C26.35 28.80 28.15 33.70 28.94 36.79ZM18.79 32.90C18.22 30.38 16.27 26.42 14.54 23.47L9.22 25.27C10.80 28.30 12.53 32.40 13.10 34.99ZM17.35 79.92L11.09 79.92L11.09 69.41L17.35 69.41ZM35.35 55.94L34.49 56.16L31.82 56.16C33.34 51.12 34.99 45.22 36.29 40.10L25.06 40.10L25.06 35.14L3.24 35.14L3.24 40.54L24.84 40.54L24.84 46.22L29.45 46.22C28.01 51.77 26.28 57.67 24.84 61.92L31.90 61.92C30.89 67.10 29.23 72.65 27.29 76.61C25.85 77.90 24.41 79.92 22.75 82.37L22.75 64.15L5.69 64.15L5.69 88.34L11.09 88.34L11.09 85.18L22.75 85.18L22.75 83.45L26.64 88.56C27.72 84.67 29.45 80.06 30.67 80.06C32.04 80.06 34.13 82.15 36.79 83.88C40.90 86.54 45.36 87.70 51.91 87.70C56.66 87.70 64.37 87.41 68.04 87.12C68.11 85.61 68.98 82.66 69.55 81.07C64.51 81.72 56.95 82.08 52.06 82.08C46.01 82.08 41.54 81.29 37.73 78.77C35.78 77.47 34.34 76.18 33.12 75.46C35.42 70.06 37.30 63.29 38.30 57.02ZM5.69 59.62L22.61 59.62L22.61 54.36L5.69 54.36ZM22.61 44.78L5.69 44.78L5.69 50.04L22.61 50.04Z"/></svg>
