<svg xmlns="http://www.w3.org/2000/svg" xmlns:xlink="http://www.w3.org/1999/xlink" width="72.00000000000001" height="106.56000000000002"><path fill="red" stroke="red" d="M44.28 34.13L30.60 34.13L30.60 38.30L65.95 38.30L65.95 34.13L50.76 34.13L50.76 31.10L67.82 31.10L67.82 26.71L50.76 26.71L50.76 23.11L44.28 23.11L44.28 26.71L28.22 26.71L28.22 31.10L44.28 31.10ZM33.91 44.35L40.03 44.35L40.03 51.77L33.91 51.77ZM61.78 51.77L55.51 51.77L55.51 44.35L61.78 44.35ZM44.35 51.77L44.35 44.35L51.19 44.35L51.19 51.77ZM28.58 55.37L67.39 55.37L67.39 40.75L28.58 40.75ZM26.14 34.99L15.91 34.99L20.66 32.83C19.44 30.17 16.78 26.35 14.18 23.54L8.57 25.85C10.80 28.58 13.25 32.33 14.62 34.99L2.95 34.99L2.95 40.32L26.14 40.32ZM24.34 50.04L24.34 44.78L5.83 44.78L5.83 50.04ZM24.91 54.36L5.18 54.36L5.18 59.62L24.91 59.62ZM18.86 69.48L18.86 79.92L11.02 79.92L11.02 69.48ZM24.26 64.15L5.69 64.15L5.69 88.34L11.02 88.34L11.02 85.18L24.26 85.18ZM36.79 72.29L59.33 72.29L59.33 75.17L36.79 75.17ZM36.79 66.82L59.33 66.82L59.33 69.48L36.79 69.48ZM36.79 61.42L59.33 61.42L59.33 64.01L36.79 64.01ZM65.52 78.84L65.52 57.67L30.89 57.67L30.89 78.84L39.02 78.84C35.78 81.14 29.81 83.81 24.62 85.18C25.92 86.26 27.86 88.13 28.87 89.28C34.27 87.70 40.90 84.60 44.93 81.58L40.32 78.84L53.64 78.84L50.98 82.37C56.23 84.60 62.06 87.48 65.59 89.42L69.19 84.96C65.74 83.30 60.34 80.86 55.22 78.84Z"/></svg>
