<svg xmlns="http://www.w3.org/2000/svg" xmlns:xlink="http://www.w3.org/1999/xlink" width="72.00000000000001" height="106.56000000000002"><path fill="red" stroke="red" d="M12.53 46.01L19.44 46.01L19.44 49.90L12.53 49.90ZM19.44 30.02L19.44 33.84L12.53 33.84L12.53 30.02ZM29.16 42.12L12.53 42.12L12.53 37.80L29.16 37.80ZM58.61 31.61C57.02 35.57 54.72 38.95 51.91 41.76C49.18 38.81 47.02 35.42 45.50 31.61ZM36.22 51.48C37.30 52.78 38.45 54.79 39.10 56.16C43.70 54.58 47.95 52.42 51.77 49.61C55.30 52.63 59.54 54.94 64.37 56.52C65.23 54.94 66.89 52.63 68.33 51.41C63.72 50.18 59.69 48.17 56.23 45.58C60.70 40.97 64.08 34.92 65.95 27.29L62.35 25.99L61.27 26.21L37.80 26.21L37.80 31.61L44.21 31.61L40.10 32.62C41.98 37.51 44.42 41.83 47.59 45.50C44.21 47.95 40.32 49.75 36.22 50.98L36.22 49.90L25.13 49.90L25.13 46.01L35.14 46.01L35.14 33.84L25.13 33.84L25.13 30.02L35.42 30.02L35.42 25.49L6.41 25.49L6.41 54.36L36.22 54.36ZM7.27 61.92L65.16 61.92L65.16 57.38L7.27 57.38ZM45.50 77.54C44.57 79.27 43.27 81.29 42.19 82.80L42.62 82.94L28.66 82.94L29.74 82.58C29.23 81.22 28.15 79.20 27.00 77.54ZM20.09 68.69L51.84 68.69L51.84 73.44L20.09 73.44ZM51.34 77.54L58.75 77.54L58.75 64.58L13.54 64.58L13.54 77.54L22.32 77.54L20.52 78.05C21.53 79.49 22.54 81.36 23.18 82.94L4.18 82.94L4.18 87.91L67.97 87.91L67.97 82.94L48.82 82.94C49.90 81.43 51.12 79.70 52.27 77.83Z"/></svg>
