<svg xmlns="http://www.w3.org/2000/svg" xmlns:xlink="http://www.w3.org/1999/xlink" width="72.00000000000001" height="106.56000000000002"><path fill="red" stroke="red" d="M24.91 78.48C19.94 81.00 11.30 83.23 3.89 84.53C5.40 85.61 7.70 88.13 8.78 89.42C15.98 87.62 25.06 84.53 30.89 81.22ZM53.21 59.11L19.58 59.11L19.58 55.44L53.21 55.44ZM53.21 66.74L19.58 66.74L19.58 63.00L53.21 63.00ZM53.21 74.38L19.58 74.38L19.58 70.63L53.21 70.63ZM59.98 51.34L13.03 51.34L13.03 78.41L59.98 78.41ZM41.04 81.94C48.53 84.24 56.02 87.12 60.19 89.21L68.11 85.97C63.00 83.88 54.36 80.93 46.73 78.62ZM12.74 42.05L20.09 42.05L20.09 45.07L12.74 45.07ZM20.09 29.09L20.09 31.90L12.74 31.90L12.74 29.09ZM29.38 38.66L12.74 38.66L12.74 35.35L29.38 35.35ZM62.78 25.49L61.78 25.70L37.94 25.70L37.94 30.74L58.68 30.74C56.88 33.84 54.50 36.43 51.62 38.52C48.82 36.29 46.58 33.70 45.00 30.82L39.89 32.33C41.62 35.71 43.85 38.74 46.58 41.40C43.34 42.91 39.74 44.06 35.78 44.86L36.00 45.07L25.34 45.07L25.34 42.05L34.63 42.05L34.63 31.90L25.34 31.90L25.34 29.09L35.86 29.09L35.86 25.13L7.13 25.13L7.13 49.03L36.29 49.03L36.29 45.36C37.44 46.58 38.81 48.53 39.38 49.75C43.70 48.67 47.66 47.23 51.26 45.22C55.44 48.10 60.26 50.26 65.59 51.62C66.38 49.97 68.18 47.59 69.48 46.37C64.73 45.43 60.34 43.85 56.52 41.76C60.91 38.16 64.30 33.41 66.38 27.22Z"/></svg>
