<svg xmlns="http://www.w3.org/2000/svg" xmlns:xlink="http://www.w3.org/1999/xlink" width="72.00000000000001" height="106.56000000000002"><path fill="red" stroke="red" d="M69.55 34.92C68.47 32.26 65.81 28.37 63.29 25.56L58.82 27.72C61.20 30.60 63.72 34.70 64.80 37.37ZM49.10 28.30L30.38 28.30L30.38 33.62L49.10 33.62ZM20.23 39.24L11.59 39.24L11.59 31.25L20.23 31.25ZM20.23 52.49L11.59 52.49L11.59 44.35L20.23 44.35ZM20.23 65.74L11.59 65.74L11.59 57.53L20.23 57.53ZM26.06 25.78L5.98 25.78L5.98 71.14L26.06 71.14ZM9.36 72.22C7.92 77.33 5.40 82.44 2.23 85.82C3.60 86.62 6.05 88.27 7.27 89.28C10.51 85.46 13.54 79.49 15.26 73.58ZM45.07 77.26L45.07 63.79L51.55 63.79L51.55 58.61L45.07 58.61L45.07 46.66L39.89 46.66L39.89 78.26L35.42 79.13L35.42 52.06L30.38 52.06L30.38 80.14L26.93 80.78C25.92 78.12 24.19 74.88 22.54 72.29L17.71 74.16C19.66 77.54 21.74 82.08 22.54 84.96L26.71 83.16L28.22 86.69C35.21 85.10 44.57 83.02 53.35 80.93L52.78 75.67ZM69.12 45.29L69.12 39.67L58.18 39.67C58.03 34.49 58.03 29.02 58.03 23.40L51.91 23.40C51.98 29.09 52.06 34.49 52.20 39.67L27.58 39.67L27.58 45.29L52.42 45.29C53.35 71.57 55.87 88.85 63.50 88.99C65.88 89.06 68.83 86.33 70.34 74.74C69.41 74.16 66.82 72.43 65.88 71.06C65.52 77.26 64.73 81.00 63.79 81.00C60.84 80.93 59.04 65.88 58.32 45.29Z"/></svg>
