<svg xmlns="http://www.w3.org/2000/svg" xmlns:xlink="http://www.w3.org/1999/xlink" width="72.00000000000001" height="106.56000000000002"><path fill="red" stroke="red" d="M39.24 68.26L62.57 68.26L62.57 62.21L39.24 62.21L39.24 52.06L67.32 52.06L67.32 45.86L39.17 45.86L39.17 37.22L61.99 37.22L61.99 31.03L39.17 31.03L39.17 23.18L32.33 23.18L32.33 31.03L10.87 31.03L10.87 37.22L32.33 37.22L32.33 45.86L4.61 45.86L4.61 52.06L32.40 52.06L32.40 78.84C27.22 76.54 23.11 72.65 20.23 66.31C21.10 63.07 21.74 59.83 22.25 56.66L15.26 55.80C14.18 66.10 10.80 78.48 2.45 84.96C3.96 85.97 6.26 88.06 7.42 89.35C12.17 85.54 15.48 80.06 17.78 74.02C25.13 85.75 36.65 88.27 51.48 88.27L66.89 88.27C67.25 86.47 68.33 83.38 69.26 81.79C65.74 81.86 54.50 81.94 51.77 81.86C47.38 81.86 43.13 81.65 39.24 80.86Z"/></svg>
