<svg xmlns="http://www.w3.org/2000/svg" xmlns:xlink="http://www.w3.org/1999/xlink" width="72.00000000000001" height="106.56000000000002"><path fill="red" stroke="red" d="M54.22 31.61L54.22 42.55C54.22 48.38 55.37 50.69 60.98 50.69L65.30 50.69C66.60 50.69 68.04 50.62 68.98 50.26C68.76 48.89 68.54 46.58 68.47 44.93C67.61 45.22 66.10 45.36 65.23 45.36L61.56 45.36C60.62 45.36 60.55 44.64 60.55 42.70L60.55 25.70L37.66 25.70L37.66 31.39C37.66 36.79 36.50 43.85 29.38 49.18C30.74 49.90 33.34 52.20 34.34 53.35C42.12 47.38 43.92 38.45 43.92 31.61ZM11.38 31.82L22.18 31.82L22.18 42.91L11.38 42.91ZM28.22 71.06C25.78 71.93 23.18 72.79 20.74 73.66L20.74 63.36L28.08 63.36L28.08 57.38L20.74 57.38L20.74 48.60L27.94 48.60L27.94 26.06L5.83 26.06L5.83 48.60L15.05 48.60L15.05 75.53L11.09 76.90L11.09 54.65L5.90 54.65L5.90 78.48L2.52 79.56L4.18 85.97C11.30 83.45 20.66 80.06 29.38 76.82ZM36.65 64.87C34.70 70.49 31.75 76.61 28.87 80.78C30.31 81.72 32.83 83.88 33.84 84.96C36.86 80.28 40.39 73.01 42.77 66.67ZM67.82 61.78L67.82 55.73L52.13 55.73L52.13 49.03L45.50 49.03L45.50 55.73L30.60 55.73L30.60 61.78L45.50 61.78L45.50 89.28L52.13 89.28L52.13 61.78ZM54.65 67.39C58.10 72.72 61.85 79.63 63.36 84.10L69.05 81.14C67.54 76.75 63.58 69.98 60.05 64.87Z"/></svg>
