<svg xmlns="http://www.w3.org/2000/svg" xmlns:xlink="http://www.w3.org/1999/xlink" width="72.00000000000001" height="106.56000000000002"><path fill="red" stroke="red" d="M66.60 26.93L60.62 26.93L60.62 35.42L50.40 35.42L50.40 23.54L44.50 23.54L44.50 35.42L34.13 35.42L34.13 26.93L28.37 26.93L28.37 41.11L66.60 41.11ZM10.80 31.54L19.30 31.54L19.30 42.55L10.80 42.55ZM24.84 74.88L19.30 76.18L19.30 63.79L25.42 63.79L25.42 58.18L19.30 58.18L19.30 48.02L24.84 48.02L24.84 26.06L5.47 26.06L5.47 48.02L13.90 48.02L13.90 77.47L10.15 78.41L10.15 54.65L4.97 54.65L4.97 79.49L2.88 79.92L4.03 85.68C10.22 84.10 18.00 82.15 25.56 80.06ZM32.98 68.11C33.12 66.31 33.12 64.66 33.12 63.00L33.12 61.27L39.96 61.27L39.96 68.11ZM39.96 50.26L39.96 55.87L33.12 55.87L33.12 50.26ZM45.36 44.86L27.79 44.86L27.79 63.00C27.79 70.20 27.29 79.49 22.82 86.11C24.12 86.76 26.42 88.49 27.36 89.57C30.38 85.10 31.82 79.27 32.54 73.51L39.96 73.51L39.96 82.22C39.96 82.87 39.74 83.09 39.10 83.16C38.45 83.16 36.58 83.16 34.49 83.09C35.21 84.60 36.00 87.05 36.14 88.56C39.38 88.56 41.62 88.49 43.34 87.48C44.93 86.54 45.36 84.89 45.36 82.30ZM54.65 68.33C54.72 66.67 54.72 65.02 54.72 63.58L54.72 61.34L61.92 61.34L61.92 68.33ZM61.92 50.26L61.92 56.02L54.72 56.02L54.72 50.26ZM64.66 44.93L64.66 44.86L49.25 44.86L49.25 63.58C49.25 70.63 48.89 79.78 44.93 86.26C46.15 86.90 48.60 88.56 49.61 89.57C52.27 85.18 53.57 79.49 54.22 73.73L61.92 73.73L61.92 82.37C61.92 83.09 61.78 83.30 61.06 83.30C60.41 83.30 58.39 83.30 56.30 83.23C57.02 84.74 57.82 87.34 57.96 88.92C61.34 88.92 63.65 88.85 65.45 87.84C67.03 86.90 67.54 85.18 67.54 82.44L67.54 44.93Z"/></svg>
