<svg xmlns="http://www.w3.org/2000/svg" xmlns:xlink="http://www.w3.org/1999/xlink" width="72.00000000000001" height="106.56000000000002"><path fill="red" stroke="red" d="M12.31 32.33L59.69 32.33L59.69 41.18L66.38 41.18L66.38 26.64L5.83 26.64L5.83 41.18L12.31 41.18ZM18.79 65.66L18.79 60.70L32.69 60.70L32.69 65.66ZM18.79 51.19L32.69 51.19L32.69 56.09L18.79 56.09ZM53.86 51.19L53.86 56.09L39.24 56.09L39.24 51.19ZM53.86 65.66L39.24 65.66L39.24 60.70L53.86 60.70ZM67.46 74.95L39.24 74.95L39.24 70.49L60.48 70.49L60.48 46.37L39.24 46.37L39.24 42.12L56.45 42.12L56.45 37.01L39.24 37.01L39.24 33.12L32.69 33.12L32.69 37.01L15.41 37.01L15.41 42.12L32.69 42.12L32.69 46.37L12.46 46.37L12.46 70.49L32.69 70.49L32.69 74.95L4.90 74.95L4.90 81.00L32.69 81.00L32.69 89.21L39.24 89.21L39.24 81.00L67.46 81.00Z"/></svg>
