<svg xmlns="http://www.w3.org/2000/svg" xmlns:xlink="http://www.w3.org/1999/xlink" width="72.00000000000001" height="106.56000000000002"><path fill="red" stroke="red" d="M61.20 42.19C60.41 46.94 59.40 52.06 58.54 55.37L63.86 56.81C65.45 51.84 67.18 43.85 68.47 37.08L64.01 35.93L62.93 36.14L46.66 36.14C47.59 32.26 48.24 28.15 48.82 23.98L42.26 23.11C41.04 34.27 38.38 44.86 33.70 51.55C35.21 52.49 38.02 54.36 39.17 55.44C41.54 51.84 43.49 47.23 45.00 42.19ZM10.51 55.87L16.92 55.87L16.92 61.34L10.51 61.34ZM10.51 45.86L16.92 45.86L16.92 51.26L10.51 51.26ZM27.94 51.26L21.74 51.26L21.74 45.86L27.94 45.86ZM27.94 61.34L21.74 61.34L21.74 55.87L27.94 55.87ZM35.50 77.33L35.50 71.35L22.18 71.35L22.18 66.24L32.98 66.24L32.98 40.97L22.18 40.97L22.18 36.29L34.56 36.29L34.56 30.38L22.18 30.38L22.18 23.04L16.56 23.04L16.56 30.38L3.89 30.38L3.89 36.29L16.56 36.29L16.56 40.97L5.69 40.97L5.69 66.24L16.56 66.24L16.56 71.35L3.24 71.35L3.24 77.33L16.56 77.33L16.56 89.21L22.18 89.21L22.18 77.33ZM53.64 55.87C53.71 54.00 53.78 52.20 53.78 50.54L53.78 47.16L47.16 47.16L47.16 50.47C47.16 59.69 45.94 73.80 30.38 84.17C31.97 85.32 34.42 87.48 35.42 89.06C44.06 83.02 48.67 75.89 51.12 68.83C54.14 77.90 58.68 85.10 65.52 89.14C66.46 87.34 68.54 84.82 70.06 83.45C61.13 78.91 56.02 68.11 53.64 55.87Z"/></svg>
