<svg xmlns="http://www.w3.org/2000/svg" xmlns:xlink="http://www.w3.org/1999/xlink" width="72.00000000000001" height="106.56000000000002"><path fill="red" stroke="red" d="M31.61 63.07L31.61 33.55C35.93 32.04 40.39 30.17 44.06 28.15L44.06 79.34L50.18 79.34L50.18 33.70L59.98 33.70L59.98 64.58C59.98 65.38 59.69 65.66 58.82 65.66C58.10 65.74 55.37 65.74 52.56 65.66C53.42 67.18 54.29 69.77 54.58 71.35C58.75 71.35 61.63 71.28 63.65 70.27C65.59 69.26 66.17 67.61 66.17 64.66L66.17 28.01L44.28 28.01L39.53 23.04C36.22 25.49 30.46 28.30 25.42 30.10L25.42 61.78C25.42 64.80 23.76 66.38 22.54 67.10C23.54 68.26 24.70 70.85 25.13 72.36C26.50 71.35 28.73 70.34 41.98 66.24C41.76 64.73 41.62 62.06 41.62 60.26ZM16.99 34.99C16.13 31.90 14.40 27.07 13.10 23.33L7.20 25.13C8.35 28.94 10.08 33.98 10.94 37.15ZM18.65 55.87L17.64 56.16L13.61 56.16C15.41 51.19 17.42 45.29 19.01 40.18L3.46 40.18L3.46 46.22L10.73 46.22C8.93 51.84 6.77 57.67 5.04 61.92L14.26 61.92C13.10 66.89 11.45 72.00 9.58 75.89C7.27 77.33 4.75 80.14 2.30 83.38L6.77 89.57C8.78 85.18 11.23 80.57 12.89 80.57C14.40 80.57 16.99 83.02 19.94 84.67C25.13 87.70 31.32 88.49 40.82 88.49C49.18 88.49 62.35 88.06 67.97 87.70C68.04 85.90 69.12 82.58 69.91 80.78C61.92 81.79 49.82 82.44 41.11 82.44C32.62 82.44 26.06 82.01 21.02 78.98C18.72 77.54 17.14 76.39 15.84 75.60C18.36 70.20 20.30 63.43 21.67 57.02Z"/></svg>
