<svg xmlns="http://www.w3.org/2000/svg" xmlns:xlink="http://www.w3.org/1999/xlink" width="72.00000000000001" height="106.56000000000002"><path fill="red" stroke="red" d="M57.89 52.34L48.24 52.34L48.24 40.97L57.89 40.97ZM57.89 69.41L48.24 69.41L48.24 57.82L57.89 57.82ZM32.47 57.82L41.76 57.82L41.76 69.41L32.47 69.41ZM32.47 40.97L41.76 40.97L41.76 52.34L32.47 52.34ZM64.30 35.21L48.24 35.21L48.24 23.76L41.76 23.76L41.76 35.21L26.35 35.21L26.35 75.24L64.30 75.24ZM17.78 35.42C16.92 32.40 15.12 27.72 13.90 24.05L7.70 25.78C8.93 29.52 10.66 34.42 11.52 37.51ZM20.52 55.51L19.51 55.80L14.33 55.80C16.27 50.90 18.36 45.14 20.09 40.18L3.31 40.18L3.31 46.22L11.88 46.22C10.01 51.70 7.78 57.46 6.05 61.63L15.84 61.63C14.54 66.46 12.74 71.42 10.73 75.17C8.14 76.32 5.18 79.42 2.23 83.30L6.77 89.57C8.64 85.18 11.09 80.50 12.74 80.50C14.18 80.50 16.85 83.02 19.73 84.67C24.91 87.70 31.03 88.49 40.46 88.49C48.89 88.49 61.99 88.06 67.54 87.70C67.61 85.90 68.76 82.66 69.48 80.78C61.56 81.79 49.46 82.44 40.75 82.44C32.33 82.44 25.78 82.01 20.88 78.98C19.01 77.83 17.64 76.82 16.56 76.10C19.44 70.63 21.82 63.58 23.54 56.81Z"/></svg>
