<svg xmlns="http://www.w3.org/2000/svg" xmlns:xlink="http://www.w3.org/1999/xlink" width="72.00000000000001" height="106.56000000000002"><path fill="red" stroke="red" d="M17.71 51.19L17.71 33.70L26.93 33.70L26.93 51.19ZM33.34 33.70L39.82 33.70L39.82 27.29L4.68 27.29L4.68 33.70L11.38 33.70L11.38 51.19L3.74 51.19L3.74 57.67L11.30 57.67C10.94 67.75 9.36 77.47 2.45 85.46C4.03 86.18 6.70 88.20 7.99 89.50C15.70 80.57 17.35 69.19 17.64 57.67L26.93 57.67L26.93 88.56L33.34 88.56L33.34 57.67L41.04 57.67L41.04 51.19L33.34 51.19ZM64.08 27.14L63.07 27.43L43.06 27.43L43.06 89.21L49.54 89.21L49.54 33.70L60.19 33.70C58.10 39.24 55.15 46.73 52.34 52.42C59.40 58.39 61.49 63.65 61.49 67.82C61.49 70.42 60.98 72.29 59.47 73.15C58.61 73.66 57.46 73.87 56.23 73.94C54.94 74.02 52.99 74.02 50.98 73.80C51.98 75.60 52.70 78.48 52.78 80.28C55.01 80.35 57.31 80.35 59.18 80.14C61.06 79.92 62.71 79.34 64.08 78.48C66.74 76.75 67.90 73.30 67.90 68.62C67.90 63.72 66.24 58.03 59.18 51.48C62.42 45.14 66.10 37.01 68.98 30.24Z"/></svg>
