<svg xmlns="http://www.w3.org/2000/svg" xmlns:xlink="http://www.w3.org/1999/xlink" width="72.00000000000001" height="106.56000000000002"><path fill="red" stroke="red" d="M59.69 36.14L42.77 36.14L42.77 31.10L59.69 31.10ZM59.69 46.08L42.77 46.08L42.77 40.90L59.69 40.90ZM65.74 25.92L37.01 25.92L37.01 51.26L65.74 51.26ZM12.53 72.50L25.13 72.50L25.13 67.68L12.53 67.68ZM27.00 58.25C26.86 58.32 26.64 58.32 26.21 58.32L24.48 58.32C23.83 58.32 23.76 58.18 23.76 57.24L23.76 44.57L27.00 44.57ZM10.58 78.84L10.58 62.14C11.30 62.71 12.17 63.50 12.53 63.94C16.56 60.12 17.50 54.58 17.50 50.33L17.50 44.57L20.30 44.57L20.30 57.31C20.30 61.06 21.24 61.92 24.05 61.92L26.86 61.92L27.00 61.92L27.00 78.84ZM14.04 44.57L14.04 50.26C14.04 53.57 13.54 57.60 10.58 60.91L10.58 44.57ZM17.28 31.46L20.52 31.46L20.52 38.95L17.28 38.95ZM25.20 31.46L34.13 31.46L34.13 25.85L3.89 25.85L3.89 31.46L12.74 31.46L12.74 38.95L5.54 38.95L5.54 88.92L10.58 88.92L10.58 84.17L27.00 84.17L27.00 87.91L32.26 87.91L32.26 38.95L25.20 38.95ZM55.08 82.01L55.08 74.88L66.17 74.88L66.17 69.62L55.08 69.62L55.08 63.65L67.32 63.65L67.32 58.32L55.08 58.32L55.08 52.63L48.89 52.63L48.89 58.32L43.34 58.32C43.92 56.66 44.50 55.08 44.93 53.35L39.24 52.06C37.87 57.46 35.50 62.78 32.33 66.38C33.70 67.18 36.22 68.62 37.22 69.55C38.59 67.97 39.89 65.88 40.97 63.65L48.89 63.65L48.89 69.62L37.87 69.62L37.87 74.88L48.89 74.88L48.89 82.01L34.56 82.01L34.56 87.55L69.05 87.55L69.05 82.01Z"/></svg>
