<svg xmlns="http://www.w3.org/2000/svg" xmlns:xlink="http://www.w3.org/1999/xlink" width="72.00000000000001" height="106.56000000000002"><path fill="red" stroke="red" d="M43.70 66.46L45.72 65.45C45.22 63.79 44.14 61.27 42.98 59.26L56.81 59.26C56.02 61.49 54.72 64.37 53.57 66.46ZM42.41 37.44L37.73 37.44L37.73 30.38L42.41 30.38ZM46.87 30.38L51.70 30.38L51.70 37.44L46.87 37.44ZM56.16 30.38L61.13 30.38L61.13 37.44L56.16 37.44ZM68.90 54.36L52.78 54.36L52.78 50.54L64.58 50.54L64.58 45.65L52.78 45.65L52.78 42.12L66.74 42.12L66.74 25.63L32.33 25.63L32.33 42.12L46.51 42.12L46.51 45.65L34.63 45.65L34.63 50.54L46.51 50.54L46.51 54.36L30.96 54.36L30.96 49.25L20.30 49.25L20.30 30.53C24.19 29.74 27.86 28.73 30.82 27.58L26.42 23.26C21.17 25.49 11.38 27.14 3.10 28.01C3.82 29.30 4.61 31.32 4.82 32.62C7.92 32.33 11.30 32.04 14.62 31.54L14.62 49.25L3.02 49.25L3.02 54.72L13.10 54.72C10.73 62.06 6.34 70.56 2.45 75.46C3.46 77.04 4.90 79.56 5.54 81.36C8.78 77.18 12.02 70.56 14.62 63.94L14.62 89.28L20.30 89.28L20.30 63.50C22.68 66.10 25.27 69.12 26.64 70.92L30.17 66.31C28.66 64.73 22.75 59.18 20.30 57.17L20.30 54.72L30.24 54.72L30.24 59.26L40.75 59.26L38.09 60.48C39.02 62.28 40.10 64.66 40.68 66.46L34.06 66.46L34.06 71.42L46.51 71.42L46.51 75.60L32.11 75.60L32.11 80.64L46.51 80.64L46.51 89.28L52.78 89.28L52.78 80.64L67.61 80.64L67.61 75.60L52.78 75.60L52.78 71.42L65.45 71.42L65.45 66.46L58.75 66.46C59.90 64.66 61.13 62.42 62.35 60.41L59.62 59.26L68.90 59.26ZM4.61 35.71C5.98 39.46 7.34 44.57 7.70 47.88L12.53 46.08C12.10 42.84 10.73 38.02 9.22 34.20ZM25.85 48.10C27.50 44.78 29.38 39.38 31.32 34.99L25.78 32.76C24.98 36.79 23.26 42.62 21.82 46.30Z"/></svg>
