<svg xmlns="http://www.w3.org/2000/svg" xmlns:xlink="http://www.w3.org/1999/xlink" width="72.00000000000001" height="106.56000000000002"><path fill="red" stroke="red" d="M18.86 59.33L27.29 59.33L27.29 53.64L18.86 53.64L18.86 46.80L25.13 46.80L25.13 41.18L10.08 41.18C12.17 38.59 14.26 35.71 16.20 32.62C20.16 35.64 24.34 39.24 26.78 42.05L29.45 36.50C27.00 33.91 22.90 30.60 18.86 27.86C19.37 26.86 19.80 25.92 20.23 24.98L15.55 22.68C12.53 29.45 7.27 35.86 2.23 39.96C3.10 41.62 4.32 45.29 4.75 46.73C5.76 45.79 6.77 44.86 7.85 43.70L7.85 46.80L13.61 46.80L13.61 53.64L4.25 53.64L4.25 59.33L13.61 59.33L13.61 78.84C9.72 79.63 6.19 80.35 3.38 80.93L4.68 86.90C11.02 85.39 19.58 83.30 27.58 81.29L27.29 75.89C24.48 76.54 21.60 77.18 18.86 77.76ZM5.11 63.72C6.19 67.90 7.13 73.15 7.42 76.68L11.66 75.38C11.30 71.93 10.22 66.60 9.14 62.57ZM23.62 75.82C24.70 72.58 25.99 67.61 27.22 63.29L22.61 61.85C22.03 65.59 20.88 71.06 19.94 74.52ZM45.72 50.62C46.37 52.63 46.94 55.15 47.23 57.17L31.03 57.17L31.03 62.57L42.70 62.57C41.76 73.01 39.24 80.35 27.86 84.38C29.09 85.54 30.67 87.84 31.25 89.42C40.03 85.97 44.35 80.71 46.66 73.66L59.04 73.66C58.54 79.70 57.82 82.37 56.95 83.30C56.45 83.88 55.87 83.95 54.79 83.95C53.71 83.95 50.90 83.88 47.95 83.59C48.82 85.18 49.54 87.41 49.61 89.14C52.78 89.28 55.87 89.28 57.46 89.14C59.40 88.92 60.77 88.49 61.99 87.19C63.65 85.39 64.44 81.00 65.16 70.85C65.30 69.98 65.38 68.40 65.38 68.40L47.88 68.40C48.17 66.53 48.46 64.66 48.60 62.57L68.90 62.57L68.90 57.17L53.35 57.17C52.99 55.01 52.13 52.06 51.34 49.68ZM57.02 35.21C56.23 37.66 55.08 40.68 54.07 42.98L41.18 42.98L45.07 42.12C44.71 40.25 43.70 37.44 42.55 35.21ZM60.19 42.98C61.34 40.75 62.57 37.94 63.79 35.21L67.46 35.21L67.46 29.81L53.28 29.81C52.85 27.65 52.13 24.84 51.41 22.68L45.72 23.54C46.30 25.42 46.80 27.79 47.16 29.81L31.82 29.81L31.82 35.21L39.10 35.21L36.58 35.71C37.80 37.87 38.74 40.90 39.17 42.98L31.03 42.98L31.03 54.72L36.58 54.72L36.58 48.17L63.07 48.17L63.07 54.72L68.90 54.72L68.90 42.98Z"/></svg>
