<svg xmlns="http://www.w3.org/2000/svg" xmlns:xlink="http://www.w3.org/1999/xlink" width="72.00000000000001" height="106.56000000000002"><path fill="red" stroke="red" d="M42.77 50.62C37.30 51.62 32.18 52.49 28.30 53.06L30.10 57.96C34.13 56.88 38.38 55.58 42.98 54.36ZM44.71 65.66L44.71 71.28L35.78 71.28L35.78 65.66ZM59.40 71.28L50.40 71.28L50.40 65.66L59.40 65.66ZM50.40 81.72L50.40 75.96L59.40 75.96L59.40 81.72ZM35.78 75.96L44.71 75.96L44.71 81.72L35.78 81.72ZM30.31 89.14L35.78 89.14L35.78 86.62L59.40 86.62L59.40 89.06L65.09 89.06L65.09 60.70L30.31 60.70ZM51.34 53.78C55.87 54.94 61.99 56.74 65.16 58.03L67.03 54.00C63.72 52.78 57.60 51.12 53.21 50.18ZM50.11 36.00L50.11 31.32L66.02 31.32L66.02 26.28L29.02 26.28L29.02 31.32L44.35 31.32L44.35 36.00L27.36 36.00C25.13 33.62 21.53 30.10 18.50 27.36C18.94 26.50 19.30 25.63 19.66 24.77L14.47 22.97C11.81 29.38 7.34 35.57 2.74 39.60C3.60 41.18 4.82 44.71 5.11 46.08C6.12 45.22 7.13 44.21 8.06 43.06L8.06 46.80L12.67 46.80L12.67 53.50L4.32 53.50L4.32 59.18L12.67 59.18L12.67 79.20C9.22 79.85 6.12 80.42 3.60 80.86L5.04 86.83C11.30 85.46 19.37 83.59 27.00 81.86L26.57 76.54C23.69 77.11 20.81 77.69 18.07 78.19L18.07 59.18L25.92 59.18L25.92 53.50L18.07 53.50L18.07 46.80L24.34 46.80L24.34 41.18L9.79 41.18C12.02 38.52 14.11 35.28 16.06 32.04C19.15 35.06 22.54 38.59 24.41 40.97L27.22 37.66L27.22 47.23L32.54 47.23L32.54 46.15C35.57 46.87 39.31 48.24 41.40 49.32L43.56 45.65C41.40 44.64 37.51 43.34 34.56 42.77L32.54 45.86L32.54 41.04L44.35 41.04L44.35 58.54L50.11 58.54L50.11 41.04L62.50 41.04L62.50 45.65L59.90 42.41C57.60 43.42 53.57 45.22 50.98 45.94L53.06 48.96C55.80 48.31 59.62 47.30 62.50 45.86L62.50 47.23L68.04 47.23L68.04 36.00ZM22.82 75.60C23.90 72.43 25.27 67.39 26.50 63.07L21.96 61.85C21.38 65.59 20.16 71.06 19.15 74.45ZM4.54 63.79C5.62 67.82 6.84 73.22 7.27 76.75L11.30 75.67C10.87 72.14 9.50 66.96 8.35 62.86Z"/></svg>
