<svg xmlns="http://www.w3.org/2000/svg" xmlns:xlink="http://www.w3.org/1999/xlink" width="72.00000000000001" height="106.56000000000002"><path fill="red" stroke="red" d="M69.12 35.71C68.11 32.62 65.52 28.08 62.93 24.70L58.10 26.86C60.55 30.38 62.93 35.14 63.94 38.16ZM22.90 75.89C23.98 72.65 25.13 67.61 26.42 63.29L21.96 61.92C21.46 65.66 20.23 71.06 19.30 74.52ZM33.62 52.20L43.56 52.20L43.56 56.95L33.62 56.95ZM28.58 61.27L48.74 61.27L48.74 47.88L28.58 47.88ZM49.25 77.98L41.40 79.06L41.40 76.03L48.24 76.03L48.24 71.42L41.40 71.42L41.40 67.46C44.57 67.03 47.52 66.53 50.11 65.95L46.22 62.06C41.69 63.29 33.55 64.15 26.57 64.44C27.14 65.59 27.79 67.32 27.94 68.40C30.46 68.33 33.12 68.26 35.78 68.04L35.78 71.42L28.30 71.42L28.30 76.03L35.78 76.03L35.78 79.70C32.40 80.14 29.30 80.57 26.64 80.86L26.35 76.10L18.36 77.83L18.36 59.33L26.21 59.33L26.21 53.64L18.36 53.64L18.36 46.80L24.19 46.80L24.19 41.18L9.58 41.18C11.81 38.59 13.82 35.71 15.77 32.69C19.44 35.50 23.26 39.02 25.56 41.76L26.06 40.82L26.06 45.00L51.05 45.00C51.48 57.38 52.27 67.32 53.64 74.59C52.34 76.75 50.90 78.70 49.32 80.57ZM62.50 51.26C61.49 56.38 60.05 61.20 58.25 65.66C57.67 60.12 57.24 53.28 57.02 45.00L69.19 45.00L69.19 39.67L56.88 39.67C56.88 34.56 56.88 29.02 56.95 23.11L50.62 23.11C50.69 28.94 50.76 34.49 50.90 39.67L41.76 39.67L41.76 34.34L48.67 34.34L48.67 29.09L41.76 29.09L41.76 23.11L35.78 23.11L35.78 29.09L28.58 29.09L28.58 34.34L35.78 34.34L35.78 39.67L26.64 39.67L28.22 36.29C25.99 33.70 22.25 30.46 18.43 27.72C18.94 26.86 19.37 25.85 19.80 24.91L15.19 22.68C12.24 29.23 7.27 35.42 2.45 39.38C3.24 40.97 4.46 44.71 4.75 46.15C5.76 45.29 6.77 44.28 7.78 43.20L7.78 46.80L13.25 46.80L13.25 53.64L4.18 53.64L4.18 59.33L13.25 59.33L13.25 78.98C9.50 79.70 6.05 80.42 3.38 80.93L4.61 86.90C10.58 85.54 18.50 83.52 26.06 81.58L26.71 85.97C32.47 85.10 39.67 84.17 46.87 83.02C46.01 83.88 45.07 84.60 44.14 85.39C45.43 86.40 47.59 88.49 48.53 89.64C51.05 87.41 53.50 84.82 55.58 81.94C57.31 86.62 59.69 88.99 62.78 88.99C67.39 88.99 69.19 86.90 69.98 75.38C68.54 74.81 66.67 73.51 65.45 72.14C65.16 80.28 64.44 82.73 63.36 82.73C61.99 82.73 60.70 80.35 59.69 75.53C63.43 68.90 66.24 61.06 68.18 52.42ZM5.11 63.72C6.12 67.82 7.06 73.22 7.34 76.75L11.52 75.38C11.16 71.93 10.08 66.67 9.00 62.64Z"/></svg>
