<svg xmlns="http://www.w3.org/2000/svg" xmlns:xlink="http://www.w3.org/1999/xlink" width="72.00000000000001" height="106.56000000000002"><path fill="red" stroke="red" d="M25.20 63.50C29.02 62.06 32.47 60.41 35.71 58.54C39.31 60.55 43.06 62.14 46.87 63.50ZM43.49 47.16L47.16 47.16L47.16 51.91L43.49 51.91ZM50.98 47.16L54.72 47.16L54.72 51.91L50.98 51.91ZM58.54 47.16L62.35 47.16L62.35 51.91L58.54 51.91ZM12.02 47.16L20.16 47.16L20.16 51.26L12.02 51.26ZM20.16 30.46L20.16 34.27L12.02 34.27L12.02 30.46ZM28.30 42.77L12.02 42.77L12.02 38.66L28.30 38.66ZM50.76 67.82L50.76 64.87C55.94 66.38 61.20 67.61 66.53 68.62C67.25 66.82 68.62 64.73 69.98 63.36C59.76 61.92 49.39 60.12 40.75 56.02L67.39 56.02L67.39 43.06L38.66 43.06L38.66 52.70L36.50 51.55C35.93 52.06 35.28 52.49 34.56 52.99L34.56 51.26L25.70 51.26L25.70 47.16L33.91 47.16L33.91 37.30C35.28 38.16 37.37 39.74 38.30 40.61C40.32 38.52 42.26 35.86 43.92 32.90L68.47 32.90L68.47 28.08L46.30 28.08C46.80 26.78 47.30 25.56 47.74 24.26L42.19 23.04C40.61 28.22 37.58 33.34 33.91 36.86L33.91 34.27L25.70 34.27L25.70 30.46L34.49 30.46L34.49 25.85L6.19 25.85L6.19 55.80L29.52 55.80C21.82 59.47 11.66 62.21 2.38 63.72C3.67 65.23 5.04 67.46 5.76 69.05C11.02 67.97 16.42 66.53 21.53 64.87L21.53 67.82L32.69 67.82L32.69 71.50L11.38 71.50L11.38 75.96L32.69 75.96L32.69 83.23L27.00 83.23C26.28 81.14 24.77 78.12 23.26 75.96L17.78 77.40C18.86 79.20 20.02 81.36 20.66 83.23L5.90 83.23L5.90 87.55L66.10 87.55L66.10 83.23L51.05 83.23C52.06 81.58 53.21 79.63 54.36 77.47L48.74 76.10C47.95 78.12 46.44 81.07 45.07 83.23L39.17 83.23L39.17 75.96L60.70 75.96L60.70 71.50L39.17 71.50L39.17 67.82ZM64.58 40.10L64.58 35.86L42.48 35.86L42.48 40.10Z"/></svg>
