<svg xmlns="http://www.w3.org/2000/svg" xmlns:xlink="http://www.w3.org/1999/xlink" width="72.00000000000001" height="106.56000000000002"><path fill="red" stroke="red" d="M26.86 30.74L26.86 35.21L12.74 35.21L12.74 30.74ZM12.74 43.78L12.74 39.46L26.86 39.46L26.86 43.78ZM33.12 48.46L33.12 25.99L6.34 25.99L6.34 89.21L12.74 89.21L12.74 48.46ZM17.28 52.99C20.09 54.50 23.26 56.95 24.70 58.82L28.22 55.37C26.71 53.57 23.47 51.34 20.66 49.90ZM25.56 65.02C23.83 63.22 20.45 60.98 17.50 59.76L14.26 63.00C17.14 64.44 20.52 66.82 22.18 68.54ZM19.87 86.98C22.68 82.87 25.70 78.05 28.08 73.94L24.84 69.98C21.89 74.59 18.36 79.56 15.91 82.66ZM45.07 43.78L45.07 39.46L59.62 39.46L59.62 43.78ZM59.62 30.74L59.62 35.21L45.07 35.21L45.07 30.74ZM47.30 80.78L36.07 80.78L36.07 74.52L47.30 74.52ZM66.02 25.99L38.74 25.99L38.74 48.46L59.62 48.46L59.62 81.07C59.62 82.08 59.26 82.37 58.32 82.44C57.46 82.44 55.08 82.44 52.49 82.37L52.49 70.13L44.50 70.13L44.50 65.81L55.87 65.81L55.87 61.13L44.50 61.13L44.50 55.94C47.95 55.44 51.19 54.79 53.93 54.07L50.40 50.04C45.29 51.55 36.43 52.78 29.02 53.28C29.66 54.50 30.31 56.30 30.53 57.38C33.19 57.24 36.00 57.02 38.88 56.66L38.88 61.13L27.72 61.13L27.72 65.81L38.88 65.81L38.88 70.13L30.89 70.13L30.89 87.41L36.07 87.41L36.07 85.25L52.13 85.25C52.56 86.54 52.92 87.91 53.06 88.92C57.89 88.92 61.13 88.78 63.29 87.70C65.52 86.62 66.02 84.67 66.02 81.14Z"/></svg>
