<svg xmlns="http://www.w3.org/2000/svg" xmlns:xlink="http://www.w3.org/1999/xlink" width="72.00000000000001" height="106.56000000000002"><path fill="red" stroke="red" d="M25.85 64.37C27.14 66.10 28.30 68.40 28.51 69.91L31.61 68.76C31.32 67.25 30.10 64.94 28.80 63.36ZM42.55 69.98C43.56 68.54 45.00 66.60 46.37 64.58L43.13 63.22C42.41 64.73 40.97 67.25 39.96 68.83ZM45.07 43.78L45.07 39.53L59.62 39.53L59.62 43.78ZM12.74 43.78L12.74 39.53L26.86 39.53L26.86 43.78ZM26.86 30.74L26.86 35.21L12.74 35.21L12.74 30.74ZM59.62 30.74L59.62 35.21L45.07 35.21L45.07 30.74ZM47.52 70.49L38.30 70.49L38.30 62.57L47.52 62.57ZM24.48 62.57L33.48 62.57L33.48 70.49L24.48 70.49ZM66.02 25.99L38.74 25.99L38.74 48.38L33.12 48.38L33.12 25.99L6.41 25.99L6.41 89.28L12.74 89.28L12.74 48.46L32.83 48.46L32.83 51.84L17.78 51.84L17.78 55.94L32.83 55.94L32.83 58.90L19.80 58.90L19.80 74.16L28.73 74.16C24.91 77.76 19.44 81.00 14.47 82.80C15.62 83.81 17.28 85.68 18.00 87.05C23.18 84.74 28.94 80.64 32.98 76.25L32.98 87.62L38.74 87.62L38.74 74.16L41.90 74.16L39.17 77.18C43.34 79.34 48.17 82.80 50.47 85.39L53.57 81.94C51.34 79.49 46.51 76.25 42.34 74.16L52.34 74.16L52.34 58.90L38.88 58.90L38.88 55.94L54.43 55.94L54.43 51.84L38.88 51.84L38.88 48.46L59.62 48.46L59.62 81.29C59.62 82.15 59.33 82.44 58.61 82.51C57.82 82.51 55.58 82.51 53.28 82.44C54.07 84.17 54.79 87.19 55.01 88.99C58.97 88.99 61.70 88.85 63.72 87.70C65.59 86.62 66.02 84.60 66.02 81.36Z"/></svg>
