<svg xmlns="http://www.w3.org/2000/svg" xmlns:xlink="http://www.w3.org/1999/xlink" width="72.00000000000001" height="106.56000000000002"><path fill="red" stroke="red" d="M19.44 55.58L53.06 55.58L53.06 61.49L19.44 61.49ZM50.83 35.14L50.83 40.54L19.44 40.54L19.44 35.14ZM68.11 71.78L39.46 71.78L39.46 66.67L59.83 66.67L59.83 50.33L19.44 50.33L19.44 45.72L57.60 45.72L57.60 29.88L35.57 29.88C36.86 28.08 38.16 25.85 39.46 23.62L31.32 22.90C30.74 24.84 29.59 27.65 28.44 29.88L12.60 29.88L12.60 66.67L32.47 66.67L32.47 71.78L4.03 71.78L4.03 77.83L32.47 77.83L32.47 89.28L39.46 89.28L39.46 77.83L68.11 77.83Z"/></svg>
