<svg xmlns="http://www.w3.org/2000/svg" xmlns:xlink="http://www.w3.org/1999/xlink" width="72.00000000000001" height="106.56000000000002"><path fill="red" stroke="red" d="M24.48 25.78L23.54 26.06L5.69 26.06L5.69 89.06L12.24 89.06L12.24 32.04L20.88 32.04C19.30 36.86 17.06 42.91 14.90 47.66C20.52 52.99 22.03 57.82 22.10 61.49C22.10 63.65 21.60 65.30 20.45 66.10C19.80 66.53 18.94 66.74 18.00 66.74C16.85 66.82 15.34 66.82 13.68 66.60C14.62 68.33 15.26 70.92 15.34 72.65C17.14 72.72 19.15 72.72 20.66 72.50C22.32 72.29 23.69 71.78 24.91 71.06C27.22 69.48 28.22 66.31 28.22 62.06C28.22 57.82 26.86 52.63 21.24 46.87C23.76 41.33 26.71 34.42 29.09 28.51ZM61.70 46.94L67.82 46.94L67.82 33.55L48.17 33.55L52.70 31.90C51.77 29.52 49.82 25.70 48.02 22.90L41.69 24.77C43.20 27.50 44.86 31.03 45.79 33.55L28.22 33.55L28.22 46.94L34.13 46.94L34.13 39.38L61.70 39.38ZM46.22 82.08C42.62 82.08 42.05 81.58 42.05 78.55L42.05 66.02C50.18 63.22 59.04 59.47 65.45 55.44L59.83 50.54C55.66 53.71 48.82 57.31 42.05 59.98L42.05 45.29L35.42 45.29L35.42 78.55C35.42 86.18 37.58 88.34 45.58 88.34L58.68 88.34C65.88 88.34 67.68 85.03 68.54 74.02C66.67 73.66 63.94 72.43 62.42 71.28C61.99 80.28 61.49 82.08 58.18 82.08Z"/></svg>
