<svg xmlns="http://www.w3.org/2000/svg" xmlns:xlink="http://www.w3.org/1999/xlink" width="72.00000000000001" height="106.56000000000002"><path fill="red" stroke="red" d="M62.57 56.74C67.10 56.74 68.69 54.58 69.26 46.66C67.68 46.30 65.23 45.29 64.01 44.28C63.79 50.11 63.50 51.12 62.06 51.12L56.59 51.12C54.94 51.12 54.65 50.76 54.65 48.82L54.65 39.31L66.17 39.31L66.17 33.98L54.65 33.98L54.65 24.05L48.67 24.05L48.67 48.82C48.67 54.94 50.04 56.74 55.66 56.74ZM35.50 50.40L35.50 39.31L46.37 39.31L46.37 33.98L35.50 33.98L35.50 24.26L29.81 24.26L29.81 47.74C29.81 50.69 27.65 52.49 26.21 53.21C27.22 54.50 28.58 57.02 29.16 58.39C30.38 57.53 32.54 56.74 45.79 52.78C45.58 51.55 45.43 49.25 45.50 47.66ZM22.39 25.78L21.53 25.99L6.41 25.99L6.41 89.06L11.95 89.06L11.95 32.04L19.30 32.04C18.00 36.79 16.20 42.84 14.40 47.59C19.01 52.99 20.16 57.82 20.16 61.49C20.16 63.58 19.73 65.38 18.79 66.10C18.14 66.53 17.57 66.67 16.78 66.74C15.77 66.82 14.54 66.74 13.10 66.67C13.97 68.26 14.54 70.85 14.62 72.43C16.20 72.50 17.86 72.50 19.15 72.36C20.66 72.07 21.89 71.64 22.90 70.92C24.84 69.34 25.70 66.31 25.70 62.06C25.70 57.82 24.62 52.63 20.02 46.87C22.18 41.26 24.55 34.20 26.57 28.30ZM49.97 71.78L64.87 71.78L64.87 65.81L49.97 65.81L49.97 56.95L43.49 56.95L43.49 65.81L29.23 65.81L29.23 71.78L43.49 71.78L43.49 81.36L24.41 81.36L24.41 87.41L68.98 87.41L68.98 81.36L49.97 81.36Z"/></svg>
