<svg xmlns="http://www.w3.org/2000/svg" xmlns:xlink="http://www.w3.org/1999/xlink" width="72.00000000000001" height="106.56000000000002"><path fill="red" stroke="red" d="M14.40 65.45C19.58 60.05 24.62 53.57 28.94 47.09L23.69 43.70C22.39 46.01 20.95 48.31 19.44 50.47L11.81 51.05C14.98 47.38 18.07 42.91 20.45 38.52L14.98 36.22L67.68 36.22L67.68 30.10L41.83 30.10C40.68 27.94 38.59 24.77 36.79 22.54L30.60 24.19C31.90 25.92 33.26 28.22 34.42 30.10L4.54 30.10L4.54 36.22L14.54 36.22C12.46 41.62 8.64 47.30 7.49 48.82C6.34 50.33 5.26 51.41 4.18 51.70C4.90 53.28 5.83 56.16 6.12 57.31C7.13 56.81 8.71 56.45 15.55 55.87C13.03 59.18 10.73 61.78 9.58 62.86C7.49 65.09 5.90 66.53 4.32 66.89C5.04 68.47 5.98 71.35 6.26 72.65C7.56 71.86 9.58 71.42 21.38 69.62C17.35 76.10 11.30 81.07 3.46 84.17C4.75 85.25 6.70 87.62 7.49 89.06C20.02 83.59 28.22 74.23 31.75 60.55L25.70 59.26C25.27 60.91 24.77 62.64 24.12 64.15ZM40.90 73.66L50.18 73.66L50.18 79.92L40.90 79.92ZM50.18 57.10L40.90 57.10L40.90 51.19L50.18 51.19ZM50.18 68.40L40.90 68.40L40.90 62.35L50.18 62.35ZM68.47 79.92L55.87 79.92L55.87 73.66L65.30 73.66L65.30 68.40L55.87 68.40L55.87 62.35L65.30 62.35L65.30 57.10L55.87 57.10L55.87 51.19L66.96 51.19L66.96 45.79L57.46 45.79C56.59 43.49 54.72 39.82 53.14 37.15L47.88 38.52C49.10 40.75 50.40 43.56 51.34 45.79L42.26 45.79C43.63 43.20 44.86 40.54 45.94 37.94L39.60 36.43C37.22 43.34 32.33 51.70 26.50 56.95C27.94 57.74 30.24 59.40 31.46 60.41C32.62 59.40 33.62 58.25 34.70 57.02L34.70 89.28L40.90 89.28L40.90 85.61L68.47 85.61Z"/></svg>
