<svg xmlns="http://www.w3.org/2000/svg" xmlns:xlink="http://www.w3.org/1999/xlink" width="72.00000000000001" height="106.56000000000002"><path fill="red" stroke="red" d="M21.74 38.88L14.90 38.88L14.90 35.35L21.74 35.35ZM21.74 46.58L14.90 46.58L14.90 43.06L21.74 43.06ZM21.74 54.36L14.90 54.36L14.90 50.83L21.74 50.83ZM52.13 38.95L45.50 38.95L45.50 35.42L52.13 35.42ZM52.13 46.66L45.50 46.66L45.50 43.13L52.13 43.13ZM52.13 54.36L45.50 54.36L45.50 50.83L52.13 50.83ZM9.22 58.75L36.00 58.75L36.00 54.36L27.14 54.36L27.14 50.83L33.77 50.83L33.77 46.58L27.14 46.58L27.14 43.06L33.77 43.06L33.84 42.05C34.78 43.20 36.00 44.64 36.50 45.50C37.66 44.35 38.74 43.06 39.82 41.54L39.82 58.82L67.90 58.82L67.90 54.36L57.53 54.36L57.53 50.83L65.30 50.83L65.30 46.66L57.53 46.66L57.53 43.13L65.30 43.13L65.30 38.95L57.53 38.95L57.53 35.42L66.89 35.42L66.89 30.96L59.54 30.96C58.82 28.87 57.38 25.92 56.16 23.69L50.69 25.20C51.62 26.93 52.56 29.09 53.28 30.96L46.22 30.96C47.23 28.94 48.17 26.78 48.96 24.70L43.56 23.18C41.47 29.30 37.80 35.50 33.77 39.89L33.77 38.88L27.14 38.88L27.14 35.35L35.28 35.35L35.28 30.96L29.09 30.96C28.30 28.73 26.86 25.70 25.56 23.40L20.09 24.98C21.10 26.78 22.03 29.02 22.75 30.96L15.62 30.96C16.63 28.94 17.50 26.71 18.29 24.62L13.10 23.18C10.80 29.74 7.06 36.14 2.66 40.39C3.74 41.40 5.47 43.92 6.12 45.00C7.20 43.99 8.21 42.77 9.22 41.47ZM49.90 67.90C46.51 71.06 42.19 73.66 37.22 75.82C31.75 73.66 27.07 70.99 23.54 67.90ZM56.30 62.14L55.08 62.42L7.56 62.42L7.56 67.90L17.64 67.90L15.70 68.83C19.22 72.79 23.54 76.10 28.58 78.84C20.81 81.07 12.17 82.44 3.60 83.16C4.68 84.74 5.83 87.41 6.34 89.21C16.85 88.06 27.43 86.04 36.72 82.58C44.86 85.61 54.00 87.55 63.94 88.63C64.80 86.83 66.60 83.81 68.11 82.30C60.05 81.58 52.49 80.35 45.58 78.48C51.91 75.02 57.17 70.56 60.84 64.87Z"/></svg>
