<svg xmlns="http://www.w3.org/2000/svg" xmlns:xlink="http://www.w3.org/1999/xlink" width="72.00000000000001" height="106.56000000000002"><path fill="red" stroke="red" d="M17.78 83.45C21.96 80.14 26.86 76.10 31.25 72.14L28.94 67.46C23.62 71.42 18.07 75.46 14.47 77.76ZM15.41 55.37C19.44 58.32 24.70 62.64 27.29 65.38L31.32 61.06C28.66 58.46 23.26 54.36 19.22 51.55ZM57.02 77.40C54.29 74.81 48.89 70.49 44.78 67.61L40.75 71.14C44.93 74.23 50.26 78.70 52.85 81.43ZM53.78 51.77C50.47 54.79 44.78 59.04 40.90 61.34L43.92 65.52C47.95 63.22 53.50 59.62 57.53 56.38ZM68.04 33.98L68.04 27.43L3.96 27.43L3.96 33.98L32.90 33.98L32.90 42.26L7.20 42.26L7.20 89.14L13.61 89.14L13.61 48.53L32.90 48.53L32.90 88.34L39.53 88.34L39.53 48.53L58.54 48.53L58.54 81.36C58.54 82.51 58.18 82.87 56.95 82.94C55.80 82.94 51.55 83.02 47.38 82.87C48.38 84.46 49.32 87.12 49.61 88.78C55.37 88.78 59.40 88.70 61.85 87.70C64.30 86.76 65.16 84.96 65.16 81.43L65.16 42.26L39.53 42.26L39.53 33.98Z"/></svg>
