<svg xmlns="http://www.w3.org/2000/svg" xmlns:xlink="http://www.w3.org/1999/xlink" width="72.00000000000001" height="106.56000000000002"><path fill="red" stroke="red" d="M6.70 84.89C7.92 80.64 8.86 73.58 9.50 68.76L5.69 67.54C5.18 72.29 4.03 79.20 2.66 83.38ZM10.80 68.69C11.45 72.94 11.74 78.34 11.52 81.94L15.12 81.50C15.19 77.98 14.83 72.58 14.11 68.33ZM40.75 63.00C44.35 60.84 47.74 58.18 50.83 55.08C53.93 58.25 57.46 60.91 61.34 63.00ZM43.78 80.57L43.78 68.69L58.39 68.69L58.39 80.57ZM45.00 35.93L57.17 35.93C55.51 39.82 53.35 43.34 50.83 46.51C48.38 43.42 46.22 39.96 44.78 36.36ZM18.50 31.46L18.50 36.86L11.81 36.86L11.81 31.46ZM18.50 47.81L11.81 47.81L11.81 42.12L18.50 42.12ZM18.50 58.75L11.81 58.75L11.81 53.06L18.50 53.06ZM61.06 30.02L59.98 30.24L47.45 30.24C48.31 28.15 48.89 26.06 49.54 24.05L43.42 23.18C41.62 30.02 37.87 38.52 31.61 44.86C32.98 45.65 35.06 47.52 36.00 48.89C38.02 46.73 39.89 44.42 41.40 42.05C43.06 45.14 44.93 48.02 46.94 50.69C42.77 54.79 37.87 58.10 32.69 60.48C32.69 59.69 32.69 58.75 32.69 58.75L23.90 58.75L23.90 53.06L30.82 53.06L30.82 47.81L23.90 47.81L23.90 42.12L30.82 42.12L30.82 36.86L23.90 36.86L23.90 31.46L32.69 31.46L32.69 25.99L6.12 25.99L6.12 64.01L9.29 64.01L9.29 64.08L27.07 64.08C26.86 68.04 26.57 71.21 26.35 73.87C25.56 71.50 24.26 68.47 22.90 66.02L19.94 67.03C21.46 69.98 22.90 73.80 23.47 76.32L26.21 75.24C25.70 79.99 25.13 82.22 24.41 83.09C23.90 83.81 23.33 83.88 22.39 83.88C21.38 83.88 19.30 83.88 16.85 83.66C17.64 85.10 18.22 87.26 18.29 88.85C20.88 88.99 23.40 88.99 24.91 88.78C26.78 88.63 28.01 88.13 29.16 86.69C30.96 84.53 31.75 78.34 32.62 61.78C33.77 62.93 35.14 64.58 35.78 65.66C36.43 65.30 37.22 64.94 37.94 64.58L37.94 89.21L43.78 89.21L43.78 86.26L58.39 86.26L58.39 89.06L64.51 89.06L64.51 64.51L65.38 64.87C66.31 63.29 68.11 60.98 69.55 59.76C63.94 57.82 59.04 54.65 54.79 50.76C59.11 45.50 62.64 39.17 64.87 31.90ZM21.31 78.84C21.02 75.82 19.94 71.06 18.72 67.46L15.55 68.11C16.70 71.78 17.71 76.54 17.93 79.63Z"/></svg>
