<svg xmlns="http://www.w3.org/2000/svg" xmlns:xlink="http://www.w3.org/1999/xlink" width="72.00000000000001" height="106.56000000000002"><path fill="red" stroke="red" d="M6.12 84.46C7.42 80.28 8.35 73.37 8.86 68.69L5.47 67.46C4.97 72.22 3.82 78.98 2.45 83.09ZM10.01 68.90C10.44 73.01 10.73 78.34 10.66 81.86L13.82 81.50C13.82 77.98 13.54 72.72 12.96 68.54ZM14.26 68.18C15.19 71.93 16.20 76.75 16.56 79.92L19.51 79.27C19.15 76.18 18.07 71.35 17.06 67.68ZM11.30 53.14L16.63 53.14L16.63 58.82L11.30 58.82ZM16.63 31.68L16.63 37.44L11.30 37.44L11.30 31.68ZM16.63 47.95L11.30 47.95L11.30 42.55L16.63 42.55ZM21.74 58.82L21.74 53.14L28.94 53.14L28.94 47.95L21.74 47.95L21.74 42.55L28.73 42.55L28.73 37.44L21.74 37.44L21.74 31.68L29.74 31.68L29.74 26.21L6.05 26.21L6.05 64.37L24.98 64.37C24.84 68.98 24.70 72.50 24.55 75.17C23.83 72.79 22.39 69.19 21.02 66.31L18.50 67.25C19.73 70.13 21.24 74.09 21.96 76.61L24.48 75.60C24.19 80.35 23.83 82.51 23.33 83.30C22.97 83.95 22.46 84.10 21.67 84.10C20.81 84.10 19.15 84.10 17.21 83.81C18.00 85.25 18.50 87.41 18.58 88.99C20.74 89.06 22.90 89.06 24.19 88.85C25.78 88.63 26.86 88.13 27.86 86.76C29.30 84.74 29.74 78.55 30.24 61.13C30.24 60.41 30.31 58.82 30.31 58.82ZM53.64 72.00L53.64 76.82L46.80 76.82L46.80 72.00ZM58.03 80.78L58.03 67.97L42.41 67.97L42.41 83.16L46.80 83.16L46.80 80.78ZM67.46 59.83L33.19 59.83L33.19 89.21L38.81 89.21L38.81 64.80L61.78 64.80L61.78 83.30C61.78 84.02 61.56 84.24 60.77 84.31C59.90 84.38 57.46 84.38 54.65 84.24C55.44 85.68 56.09 87.77 56.38 89.28C60.41 89.28 63.29 89.28 65.16 88.42C67.03 87.48 67.46 86.11 67.46 83.30ZM55.58 52.78L44.64 52.78L44.64 48.24L55.58 48.24ZM53.14 40.39C53.86 41.62 54.72 42.84 55.66 43.99L44.78 43.99C45.65 42.91 46.44 41.62 47.23 40.39ZM68.98 40.39L68.98 35.14L49.68 35.14C50.33 33.62 50.83 32.04 51.34 30.38C56.52 29.74 61.34 28.80 65.23 27.58L60.48 23.47C54.29 25.42 42.62 26.71 32.76 27.36C33.41 28.51 34.13 30.60 34.34 31.82C37.66 31.68 41.18 31.46 44.71 31.18C44.21 32.54 43.70 33.84 43.20 35.14L31.61 35.14L31.61 40.39L40.18 40.39C37.44 43.99 34.06 47.02 29.95 49.25C31.18 50.33 33.34 52.70 34.06 53.93C35.86 52.85 37.44 51.62 39.02 50.33L39.02 56.95L61.49 56.95L61.49 50.26C62.86 51.34 64.22 52.34 65.74 53.14C66.67 51.62 68.40 49.54 69.70 48.46C65.88 46.80 62.06 43.78 59.40 40.39Z"/></svg>
