<svg xmlns="http://www.w3.org/2000/svg" xmlns:xlink="http://www.w3.org/1999/xlink" width="72.00000000000001" height="106.56000000000002"><path fill="red" stroke="red" d="M19.08 52.78L11.45 52.78L11.45 39.96L19.08 39.96ZM11.45 70.92L11.45 58.61L19.08 58.61L19.08 70.92ZM24.91 76.75L24.91 34.06L16.49 34.06C17.35 31.18 18.36 27.72 19.30 24.55L12.60 23.47C12.31 26.57 11.59 30.74 10.87 34.06L5.62 34.06L5.62 82.73L11.45 82.73L11.45 76.75ZM69.05 76.46C68.18 73.80 66.17 69.26 64.44 65.88L61.27 67.18C62.06 68.83 62.86 70.70 63.65 72.50L57.31 73.08C58.97 70.20 60.77 66.46 61.99 62.78L57.74 61.42C56.88 65.81 54.65 70.42 53.93 71.57C53.35 72.65 52.63 73.51 51.84 73.66C52.42 74.74 53.06 76.82 53.35 77.76C54.29 77.33 55.87 77.04 65.02 75.89C65.30 76.68 65.52 77.47 65.74 78.12ZM34.06 47.66L44.06 47.66L44.06 54.58L34.06 54.58ZM34.06 35.71L44.06 35.71L44.06 42.48L34.06 42.48ZM59.90 42.48L49.97 42.48L49.97 35.71L59.90 35.71ZM59.90 54.58L49.97 54.58L49.97 47.66L59.90 47.66ZM54.65 82.94C52.27 82.94 51.84 82.66 51.84 80.57L51.84 59.98L66.02 59.98L66.02 30.31L41.90 30.31C42.84 28.44 43.85 26.14 44.71 23.98L37.58 22.97C37.15 25.13 36.29 27.94 35.50 30.31L28.15 30.31L28.15 59.98L36.07 59.98C35.21 70.85 33.12 79.63 23.18 84.31C24.48 85.46 26.35 87.77 27.07 89.35C38.45 83.45 41.11 73.08 42.12 59.98L46.15 59.98L46.15 80.64C46.15 86.69 47.66 88.34 54.00 88.34L63.29 88.34C67.97 88.34 69.70 86.54 70.27 79.99C68.69 79.63 66.38 78.70 65.16 77.76C64.94 82.15 64.51 82.94 62.78 82.94Z"/></svg>
