<svg xmlns="http://www.w3.org/2000/svg" xmlns:xlink="http://www.w3.org/1999/xlink" width="72.00000000000001" height="106.56000000000002"><path fill="red" stroke="red" d="M33.84 39.02L22.82 39.02L22.82 34.13L31.46 34.13L31.46 29.09L22.82 29.09L22.82 23.18L17.50 23.18L17.50 39.02L12.38 39.02L12.38 27.14L7.27 27.14L7.27 39.02L3.02 39.02L3.02 44.21L33.91 44.21ZM10.08 80.86L10.08 77.76C10.87 78.48 11.74 79.42 12.10 79.99C13.18 78.70 14.11 76.97 14.90 75.17C15.55 76.18 16.20 77.26 16.63 78.05L17.42 77.26C18.29 77.90 19.30 79.13 19.66 79.63C20.81 78.41 21.74 76.82 22.46 75.02C23.47 76.61 24.48 78.34 25.13 79.49L27.50 76.82C26.64 75.38 25.13 73.08 23.54 71.14C23.98 69.55 24.19 67.75 24.41 66.02L21.10 65.52C20.81 69.19 20.16 72.36 18.79 74.95C18.07 73.80 16.99 72.50 15.98 71.28C16.34 69.55 16.63 67.75 16.85 65.88L13.54 65.45C13.10 69.98 12.31 74.02 10.08 76.90L10.08 64.80L27.58 64.80L27.58 80.86ZM27.58 46.22L27.58 59.98L10.08 59.98L10.08 56.81C10.87 57.46 11.81 58.54 12.17 59.11C13.25 57.89 14.18 56.23 14.83 54.50C15.48 55.51 16.06 56.59 16.42 57.38L17.35 56.59C18.07 57.24 19.08 58.39 19.58 59.04C20.74 57.74 21.67 56.30 22.32 54.50C23.47 56.16 24.55 57.82 25.20 59.04L27.58 56.45C26.71 54.94 25.20 52.70 23.62 50.69C23.98 49.10 24.26 47.52 24.41 45.79L21.17 45.36C20.81 48.89 20.16 52.06 18.72 54.50C18.00 53.35 16.99 51.84 15.98 50.54C16.34 49.03 16.63 47.45 16.78 45.72L13.54 45.29C13.10 49.75 12.31 53.50 10.08 56.23L10.08 46.15L5.18 46.15L5.18 85.68L27.58 85.68L27.58 88.13L32.26 88.13L32.26 46.22ZM42.12 49.46L42.12 42.05L48.31 42.05L48.31 49.46ZM60.05 42.05L60.05 49.46L53.57 49.46L53.57 42.05ZM67.18 59.90L53.57 59.90L53.57 54.79L65.74 54.79L65.74 36.72L53.57 36.72L53.57 30.53C58.39 29.81 62.93 29.09 66.74 28.01L62.14 23.40C55.66 25.27 44.35 26.57 34.63 27.29C35.21 28.51 36.00 30.82 36.22 32.11C40.10 31.90 44.21 31.61 48.31 31.18L48.31 36.72L36.65 36.72L36.65 54.79L48.31 54.79L48.31 59.90L40.61 59.90L40.61 57.24L35.21 57.24L35.21 59.90L33.26 59.90L33.26 65.30L35.21 65.30L35.21 89.21L40.61 89.21L40.61 65.30L48.31 65.30L48.31 73.58L41.98 73.87L42.70 78.98C47.30 78.48 52.49 78.05 58.03 77.40C58.32 78.48 58.46 79.49 58.61 80.35L61.56 79.27C61.13 76.18 59.76 71.35 58.25 67.75L55.51 68.69C56.02 70.06 56.52 71.57 56.95 73.15L53.57 73.30L53.57 65.30L61.70 65.30L61.70 83.66C61.70 84.46 61.42 84.67 60.55 84.67C59.83 84.67 57.02 84.67 54.14 84.60C54.86 85.97 55.58 87.84 55.80 89.28C60.12 89.28 63.00 89.21 64.80 88.42C66.67 87.62 67.18 86.33 67.18 83.66Z"/></svg>
