<svg xmlns="http://www.w3.org/2000/svg" xmlns:xlink="http://www.w3.org/1999/xlink" width="72.00000000000001" height="106.56000000000002"><path fill="red" stroke="red" d="M20.52 23.54C16.27 34.49 9.07 45.22 1.58 51.98C2.88 53.57 4.82 57.17 5.54 58.75C8.14 56.30 10.73 53.28 13.10 50.11L13.10 88.99L19.73 88.99L19.73 40.18C22.46 35.57 24.91 30.53 27.00 25.56ZM68.90 44.35L68.90 37.94L54.07 37.94L54.07 23.62L47.38 23.62L47.38 37.94L24.05 37.94L24.05 44.35L47.38 44.35C47.30 51.62 46.58 59.62 42.26 67.03C38.52 61.85 35.86 55.66 34.13 48.38L28.01 49.68C30.31 58.90 33.55 66.53 38.30 72.65C34.56 76.75 29.30 80.64 22.03 83.88C23.47 85.03 25.78 87.84 26.71 89.35C33.84 86.04 39.10 82.15 43.06 77.90C48.74 83.23 56.02 87.05 65.52 89.28C66.38 87.48 68.26 84.82 69.77 83.30C60.19 81.36 52.78 77.76 47.23 72.50C52.92 63.58 54.00 53.50 54.07 44.35Z"/></svg>
