<svg xmlns="http://www.w3.org/2000/svg" xmlns:xlink="http://www.w3.org/1999/xlink" width="72.00000000000001" height="106.56000000000002"><path fill="red" stroke="red" d="M18.58 23.33C14.90 33.91 8.86 44.28 2.30 51.05C3.46 52.63 5.40 56.23 6.05 57.82C7.85 55.80 9.65 53.57 11.45 51.12L11.45 89.21L17.86 89.21L17.86 40.82C20.59 35.78 23.04 30.53 24.91 25.27ZM59.26 39.46L59.26 78.70L48.96 78.70L48.96 24.34L42.26 24.34L42.26 78.70L32.33 78.70L32.33 39.82L25.78 39.82L25.78 84.96L59.26 84.96L59.26 89.14L65.95 89.14L65.95 39.46Z"/></svg>
