<svg xmlns="http://www.w3.org/2000/svg" xmlns:xlink="http://www.w3.org/1999/xlink" width="72.00000000000001" height="106.56000000000002"><path fill="red" stroke="red" d="M20.52 23.62C16.27 34.56 9.07 45.22 1.58 51.98C2.88 53.64 4.90 57.31 5.62 58.90C8.14 56.45 10.73 53.57 13.10 50.40L13.10 88.99L19.73 88.99L19.73 40.54C22.54 35.78 25.06 30.74 27.14 25.70ZM69.34 60.12L69.34 53.64L49.97 53.64L49.97 36.14L66.46 36.14L66.46 29.81L28.01 29.81L28.01 36.14L43.20 36.14L43.20 53.64L23.54 53.64L23.54 60.12L43.20 60.12L43.20 80.14L25.70 80.14L25.70 86.54L67.75 86.54L67.75 80.14L49.97 80.14L49.97 60.12Z"/></svg>
