<svg xmlns="http://www.w3.org/2000/svg" xmlns:xlink="http://www.w3.org/1999/xlink" width="72.00000000000001" height="106.56000000000002"><path fill="red" stroke="red" d="M52.27 48.89C50.98 44.35 47.23 37.44 43.70 32.18L38.02 34.56C41.40 39.96 44.93 47.09 46.30 51.62ZM18.43 23.40C14.54 33.91 8.14 44.42 1.37 51.12C2.45 52.70 4.39 56.30 5.04 57.89C7.13 55.66 9.22 53.14 11.23 50.40L11.23 89.06L17.57 89.06L17.57 40.46C20.30 35.57 22.75 30.38 24.70 25.27ZM45.36 62.35C41.62 63.72 37.80 65.16 34.13 66.46L33.70 27.14L27.14 27.22L27.58 68.76C24.84 69.70 22.32 70.56 20.16 71.21L22.97 77.76C29.81 75.17 38.45 71.57 46.66 68.18ZM70.27 84.46C67.75 80.28 62.57 73.94 58.10 68.69C63.43 58.39 65.38 44.71 66.10 26.28L59.33 26.06C58.32 59.11 53.42 75.82 28.08 83.88C29.52 85.25 31.68 88.27 32.40 89.71C42.41 85.97 49.46 81.07 54.50 74.45C58.46 79.56 62.86 85.39 65.02 89.28Z"/></svg>
