<svg xmlns="http://www.w3.org/2000/svg" xmlns:xlink="http://www.w3.org/1999/xlink" width="72.00000000000001" height="106.56000000000002"><path fill="red" stroke="red" d="M18.94 68.69C15.34 73.73 9.50 78.98 4.03 82.30C5.47 83.38 8.06 85.61 9.14 86.83C14.62 83.02 21.02 76.82 25.20 71.06ZM45.94 71.86C51.26 76.25 57.74 82.58 60.77 86.69L66.74 82.87C63.43 78.77 56.66 72.72 51.41 68.47ZM19.66 44.78C25.56 40.82 31.10 36.22 35.93 31.32C41.40 36.86 46.87 41.18 52.63 44.78ZM36.00 22.39C28.15 32.47 14.33 41.62 1.80 46.80C3.53 48.46 5.26 50.69 6.41 52.49C10.01 50.69 13.68 48.67 17.35 46.30L17.35 50.83L32.69 50.83L32.69 58.82L7.49 58.82L7.49 65.16L32.69 65.16L32.69 81.58C32.69 82.58 32.26 82.87 31.10 82.94C29.95 82.94 25.92 83.02 21.82 82.87C22.90 84.53 24.19 87.48 24.55 89.28C30.10 89.35 33.84 89.14 36.29 88.06C38.88 87.05 39.74 85.25 39.74 81.65L39.74 65.16L65.23 65.16L65.23 58.82L39.74 58.82L39.74 50.83L54.36 50.83L54.36 45.86C58.10 48.02 61.92 49.97 65.88 51.77C66.82 49.68 68.76 47.38 70.34 45.94C59.18 41.69 48.89 36.07 39.89 26.86C40.32 26.28 40.75 25.78 41.18 25.27Z"/></svg>
