<svg xmlns="http://www.w3.org/2000/svg" xmlns:xlink="http://www.w3.org/1999/xlink" width="72.00000000000001" height="106.56000000000002"><path fill="red" stroke="red" d="M17.35 23.47C14.04 34.27 8.57 44.86 2.52 51.84C3.60 53.50 5.33 57.24 5.90 58.90C7.85 56.52 9.79 53.93 11.59 51.05L11.59 89.14L18.07 89.14L18.07 39.10C20.16 34.63 22.03 29.88 23.47 25.20ZM68.90 66.60L49.39 66.60L49.39 57.53L65.88 57.53L65.88 51.34L49.39 51.34L49.39 42.84L67.90 42.84L67.90 36.72L57.31 36.72C59.54 33.26 61.99 29.02 64.22 25.06L57.24 23.04C55.66 27.22 52.92 32.76 50.47 36.72L36.43 36.72L41.26 34.56C40.18 31.39 37.30 26.86 34.63 23.47L29.02 25.78C31.39 29.09 33.91 33.62 35.06 36.72L24.19 36.72L24.19 42.84L42.70 42.84L42.70 51.34L26.14 51.34L26.14 57.53L42.70 57.53L42.70 66.60L21.89 66.60L21.89 72.86L42.70 72.86L42.70 89.14L49.39 89.14L49.39 72.86L68.90 72.86Z"/></svg>
