<svg xmlns="http://www.w3.org/2000/svg" xmlns:xlink="http://www.w3.org/1999/xlink" width="72.00000000000001" height="106.56000000000002"><path fill="red" stroke="red" d="M18.43 23.40C14.54 33.91 8.14 44.42 1.37 51.12C2.45 52.70 4.39 56.30 5.04 57.89C7.13 55.66 9.22 53.14 11.23 50.40L11.23 89.06L17.57 89.06L17.57 40.46C20.30 35.57 22.75 30.38 24.70 25.27ZM69.48 61.92C67.46 59.18 63.58 55.01 60.19 51.48C60.84 49.03 61.27 46.37 61.56 43.56L55.66 42.98C55.08 50.69 53.06 57.17 48.96 61.42C48.31 59.26 48.10 57.24 48.10 55.73L48.10 40.46L68.04 40.46L68.04 34.27L48.10 34.27L48.10 23.47L41.33 23.47L41.33 34.27L22.68 34.27L22.68 40.46L41.33 40.46L41.33 55.73C41.33 57.31 41.04 59.33 40.46 61.56C38.95 58.75 36.14 54.50 33.62 51.26C34.34 48.89 34.85 46.37 35.21 43.70L29.52 43.06C28.30 52.06 25.27 59.47 19.58 64.01C20.88 64.80 23.40 66.67 24.34 67.54C27.29 64.80 29.74 61.34 31.54 57.17C33.34 59.90 35.06 62.78 35.93 64.80L40.32 62.14C38.23 69.12 32.54 78.12 19.87 83.30C21.10 84.82 22.97 87.62 23.76 89.21C37.58 83.52 43.42 72.14 44.71 66.60C46.08 72.07 51.77 83.52 65.52 89.21C66.38 87.41 68.18 84.60 69.48 83.02C57.46 78.12 51.77 69.84 49.46 63.14C50.76 64.01 52.20 65.02 52.99 65.66C55.22 63.43 56.95 60.62 58.32 57.38C61.13 60.55 63.94 63.94 65.52 66.24Z"/></svg>
