<svg xmlns="http://www.w3.org/2000/svg" xmlns:xlink="http://www.w3.org/1999/xlink" width="72.00000000000001" height="106.56000000000002"><path fill="red" stroke="red" d="M18.07 23.40C14.54 33.91 8.64 44.35 2.23 51.12C3.38 52.70 5.33 56.30 5.98 57.96C7.63 56.09 9.22 54.07 10.80 51.84L10.80 89.14L17.14 89.14L17.14 41.54C19.94 36.36 22.46 30.74 24.41 25.34ZM52.63 68.11L52.63 59.54L58.46 59.54L58.46 68.11ZM41.69 68.11L41.69 59.54L47.45 59.54L47.45 68.11ZM30.74 68.11L30.74 59.54L36.50 59.54L36.50 68.11ZM64.51 53.86L24.77 53.86L24.77 89.21L30.74 89.21L30.74 73.66L36.50 73.66L36.50 88.06L41.69 88.06L41.69 73.66L47.45 73.66L47.45 87.98L52.63 87.98L52.63 73.66L58.46 73.66L58.46 81.86C58.46 82.51 58.25 82.66 57.74 82.66L54.14 82.66C54.86 84.24 55.58 86.76 55.73 88.42C58.82 88.42 60.98 88.34 62.64 87.34C64.15 86.33 64.51 84.67 64.51 82.01ZM34.34 42.77C38.23 39.74 41.90 36.29 44.93 32.69C47.81 36.29 51.34 39.82 55.08 42.77ZM44.35 22.68C39.24 31.10 28.87 39.89 19.30 43.85C21.02 45.29 22.97 47.66 24.05 49.54C26.28 48.38 28.44 47.02 30.60 45.50L30.60 48.38L58.61 48.38L58.61 45.36C60.77 46.87 63.00 48.17 65.09 49.18C66.17 47.45 68.33 44.78 69.91 43.49C62.06 40.54 53.57 34.13 48.60 27.86C48.96 27.29 49.39 26.71 49.75 26.14Z"/></svg>
