<svg xmlns="http://www.w3.org/2000/svg" xmlns:xlink="http://www.w3.org/1999/xlink" width="72.00000000000001" height="106.56000000000002"><path fill="red" stroke="red" d="M68.18 25.99L22.75 25.99L22.75 30.82L68.18 30.82ZM32.33 43.92L42.19 43.92L42.19 47.45L32.33 47.45ZM32.33 37.15L42.19 37.15L42.19 40.54L32.33 40.54ZM57.67 40.54L48.24 40.54L48.24 37.15L57.67 37.15ZM57.67 47.45L48.24 47.45L48.24 43.92L57.67 43.92ZM64.08 51.19L64.08 33.41L26.21 33.41L26.21 51.19ZM68.33 53.86L22.10 53.86L22.10 58.54L68.33 58.54ZM31.97 72.14L42.19 72.14L42.19 75.89L31.97 75.89ZM31.97 65.09L42.19 65.09L42.19 68.69L31.97 68.69ZM57.96 68.69L48.24 68.69L48.24 65.09L57.96 65.09ZM57.96 75.89L48.24 75.89L48.24 72.14L57.96 72.14ZM64.37 79.63L64.37 61.34L25.85 61.34L25.85 79.63ZM16.27 23.40C13.18 34.06 8.21 44.71 2.45 51.70C3.53 53.21 5.18 56.66 5.62 58.18C7.34 56.02 9.00 53.57 10.66 50.90L10.66 89.21L16.92 89.21L16.92 38.59C18.94 34.20 20.59 29.59 22.03 24.98ZM20.02 82.58L20.02 87.84L68.69 87.84L68.69 82.58Z"/></svg>
