<svg xmlns="http://www.w3.org/2000/svg" xmlns:xlink="http://www.w3.org/1999/xlink" width="72.00000000000001" height="106.56000000000002"><path fill="red" stroke="red" d="M38.88 76.25L51.70 76.25L51.70 71.35L38.88 71.35L38.88 66.96L53.21 66.96L53.21 61.92L18.29 61.92L18.29 66.96L32.54 66.96L32.54 71.35L20.23 71.35L20.23 76.25L32.54 76.25L32.54 81.07L14.90 81.07L14.90 86.40L56.52 86.40L56.52 81.07L38.88 81.07ZM45.14 45.86L26.42 45.86L26.42 41.90L45.14 41.90ZM45.14 54.07L26.42 54.07L26.42 50.04L45.14 50.04ZM32.90 32.26C32.62 33.70 31.97 35.71 31.39 37.51L20.59 37.51L20.59 58.46L51.26 58.46L51.26 37.51L38.02 37.51C38.59 36.22 39.31 34.78 39.96 33.26ZM10.30 26.50L10.30 45.72C10.30 57.38 9.65 73.87 2.45 85.46C4.03 86.18 6.77 88.06 7.92 89.14C15.48 76.90 16.63 58.25 16.63 45.72L16.63 32.18L55.01 32.18C55.15 61.99 54.94 88.63 64.08 88.63C67.97 88.63 69.19 84.89 69.91 75.96C68.69 74.81 67.18 72.79 66.02 70.92C65.95 76.97 65.52 81.58 64.87 81.58C61.27 81.58 61.27 52.34 61.56 26.50Z"/></svg>
