<svg xmlns="http://www.w3.org/2000/svg" xmlns:xlink="http://www.w3.org/1999/xlink" width="72.00000000000001" height="106.56000000000002"><path fill="red" stroke="red" d="M32.76 54.72C25.78 58.97 18.50 63.43 13.82 66.02L17.06 71.50C21.60 68.40 27.29 64.51 32.76 60.55L32.76 70.13C32.76 70.99 32.47 71.28 31.54 71.35C30.60 71.35 27.43 71.35 24.26 71.21C25.13 72.94 25.92 75.46 26.21 77.11C30.96 77.11 34.34 77.04 36.50 76.10C38.74 75.24 39.38 73.51 39.38 70.27L39.38 58.68C44.71 63.36 50.11 68.83 53.14 72.50L57.38 67.90C54.79 64.87 50.69 60.91 46.15 57.02C49.68 53.50 53.71 48.74 57.10 44.64L51.48 41.62C49.25 45.29 45.58 50.11 42.34 53.78C41.33 52.99 40.39 52.13 39.38 51.48L39.38 42.34C46.08 38.81 53.06 33.91 58.03 29.16L53.64 25.70L52.13 26.06L13.39 26.06L13.39 32.18L45.00 32.18C41.33 34.99 36.79 37.87 32.76 39.82ZM29.02 51.98C27.07 49.32 23.04 45.22 19.44 42.19L15.19 45.72C18.58 48.82 22.68 53.28 24.55 56.16ZM59.26 39.17L59.26 79.70L12.82 79.70L12.82 39.38L6.12 39.38L6.12 85.75L59.26 85.75L59.26 89.21L65.88 89.21L65.88 39.17Z"/></svg>
