<svg xmlns="http://www.w3.org/2000/svg" xmlns:xlink="http://www.w3.org/1999/xlink" width="72.00000000000001" height="106.56000000000002"><path fill="red" stroke="red" d="M17.86 51.05L17.86 33.26L27.43 33.26L27.43 51.05ZM33.91 33.26L39.96 33.26L39.96 27.00L4.82 27.00L4.82 33.26L11.52 33.26L11.52 51.05L3.24 51.05L3.24 57.53L11.45 57.53C11.23 67.25 9.72 76.97 2.52 85.03C4.10 86.18 6.19 87.91 7.27 89.42C15.62 80.28 17.57 69.34 17.78 57.53L27.43 57.53L27.43 88.34L33.91 88.34L33.91 57.53L41.83 57.53L41.83 51.05L33.91 51.05ZM51.48 30.96L45.22 30.96L45.22 70.56L51.48 70.56ZM59.33 24.41L59.33 80.71C59.33 82.01 58.82 82.44 57.53 82.44C56.30 82.44 52.20 82.51 47.81 82.37C48.74 84.24 49.75 87.34 49.97 89.14C56.23 89.14 60.19 88.99 62.57 87.84C64.94 86.76 65.88 84.74 65.88 80.71L65.88 24.41Z"/></svg>
