<svg xmlns="http://www.w3.org/2000/svg" xmlns:xlink="http://www.w3.org/1999/xlink" width="72.00000000000001" height="106.56000000000002"><path fill="red" stroke="red" d="M26.86 66.02L40.46 66.02L40.46 60.19L26.86 60.19L26.86 53.06L20.52 53.06L20.52 60.19L6.91 60.19L6.91 66.02L20.52 66.02L20.52 77.11C14.47 78.19 8.78 79.13 4.46 79.70L5.90 86.04C15.41 84.24 28.94 81.72 41.62 79.27L41.26 73.44C36.43 74.30 31.61 75.17 26.86 75.96ZM5.11 33.41L15.41 33.41C13.39 37.94 10.94 41.83 10.08 43.06C8.86 44.78 7.78 46.01 6.62 46.30C7.42 47.95 8.35 51.05 8.78 52.42C10.73 51.62 13.46 51.26 34.70 49.46C35.57 50.83 36.22 52.27 36.79 53.42L41.98 50.11C39.89 45.94 35.35 39.46 31.46 34.78L26.64 37.58C28.22 39.53 29.81 41.83 31.39 44.14L15.48 45.36C18.14 41.83 20.74 37.58 22.82 33.41L42.05 33.41L42.05 27.58L5.11 27.58ZM51.70 29.45L45.43 29.45L45.43 72.65L51.70 72.65ZM59.33 24.12L59.33 79.85C59.33 81.07 58.97 81.43 57.74 81.43C56.59 81.50 52.63 81.50 48.60 81.36C49.61 83.09 50.69 86.11 50.98 87.84C56.38 87.84 60.26 87.70 62.71 86.62C65.02 85.61 65.88 83.66 65.88 79.85L65.88 24.12Z"/></svg>
