<svg xmlns="http://www.w3.org/2000/svg" xmlns:xlink="http://www.w3.org/1999/xlink" width="72.00000000000001" height="106.56000000000002"><path fill="red" stroke="red" d="M13.61 62.42L25.34 62.42L25.34 70.78C21.24 71.64 17.28 72.43 13.61 73.22ZM25.34 32.47L25.34 41.54L13.61 41.54L13.61 32.47ZM25.34 56.52L13.61 56.52L13.61 47.38L25.34 47.38ZM35.06 68.62L31.54 69.41L31.54 26.42L7.63 26.42L7.63 74.45C5.83 74.81 4.10 75.10 2.52 75.38L3.74 82.30C12.38 80.28 24.41 77.40 35.71 74.66ZM50.98 38.95C51.12 33.91 51.12 28.58 51.12 23.18L44.57 23.18C44.57 28.58 44.57 33.91 44.42 38.95L33.70 38.95L33.70 45.29L44.21 45.29C43.20 62.14 39.74 75.96 26.71 84.24C28.30 85.46 30.38 87.70 31.39 89.35C45.72 79.85 49.54 64.08 50.69 45.29L60.26 45.29C59.69 69.98 58.90 79.34 57.31 81.43C56.59 82.37 55.87 82.58 54.65 82.51C53.14 82.51 49.61 82.51 45.86 82.22C46.94 84.02 47.66 86.76 47.81 88.63C51.55 88.78 55.37 88.85 57.60 88.56C59.98 88.20 61.56 87.55 63.07 85.39C65.38 82.30 66.02 71.93 66.74 42.12C66.74 41.26 66.82 38.95 66.82 38.95Z"/></svg>
