<svg xmlns="http://www.w3.org/2000/svg" xmlns:xlink="http://www.w3.org/1999/xlink" width="72.00000000000001" height="106.56000000000002"><path fill="red" stroke="red" d="M13.46 80.78L13.46 32.54L66.53 32.54L66.53 26.14L6.41 26.14L6.41 87.19L67.39 87.19L67.39 80.78ZM51.84 79.13L51.84 57.67L64.66 57.67L64.66 51.77L28.94 51.77L28.94 44.14C39.67 43.85 51.48 42.84 60.05 41.11L56.23 35.64C47.88 37.37 33.98 38.45 22.32 38.88L22.32 53.42C22.32 60.34 21.74 69.41 15.84 75.74C17.50 76.46 20.30 78.55 21.53 79.63C26.86 73.73 28.44 65.09 28.87 57.67L45.29 57.67L45.29 79.13Z"/></svg>
