<svg xmlns="http://www.w3.org/2000/svg" xmlns:xlink="http://www.w3.org/1999/xlink" width="72.00000000000001" height="106.56000000000002"><path fill="red" stroke="red" d="M58.97 37.22C58.90 56.59 58.75 63.65 57.74 65.09C57.24 65.88 56.59 66.10 55.66 66.10C55.08 66.10 54.14 66.10 53.06 66.02L53.06 43.85L34.85 43.85C36.22 41.76 37.51 39.53 38.74 37.22ZM47.09 60.70L38.16 60.70L38.16 49.46L47.09 49.46ZM18.79 64.22L11.52 64.22L11.52 35.86L18.79 35.86ZM43.49 81.86C38.88 81.86 38.16 81.22 38.16 78.05L38.16 66.24L49.10 66.24C50.04 67.82 50.62 70.20 50.69 71.78C53.86 71.86 56.81 71.93 58.75 71.64C60.77 71.35 62.28 70.70 63.50 68.90C65.16 66.46 65.16 58.18 65.30 33.98L65.30 31.10L41.76 31.10C42.62 29.16 43.49 27.07 44.21 25.06L37.94 23.26C35.14 31.82 30.38 40.10 24.84 45.72L24.84 29.66L5.40 29.66L5.40 77.04L11.52 77.04L11.52 70.42L24.84 70.42L24.84 48.31C25.99 49.82 27.14 51.55 27.72 52.56C29.16 51.19 30.53 49.61 31.90 47.88L31.90 78.05C31.90 85.61 34.34 87.55 43.06 87.55L59.33 87.55C66.74 87.55 68.62 84.96 69.55 75.96C67.82 75.53 65.23 74.59 63.79 73.51C63.29 80.42 62.64 81.86 58.90 81.86Z"/></svg>
