<svg xmlns="http://www.w3.org/2000/svg" xmlns:xlink="http://www.w3.org/1999/xlink" width="72.00000000000001" height="106.56000000000002"><path fill="red" stroke="red" d="M19.37 35.86L19.37 64.22L11.38 64.22L11.38 35.86ZM25.27 29.66L5.40 29.66L5.40 77.04L11.38 77.04L11.38 70.42L25.27 70.42ZM33.91 62.42C38.95 60.41 43.85 57.74 48.24 54.65C52.56 57.74 57.46 60.41 62.71 62.42ZM38.59 79.49L38.59 68.33L57.17 68.33L57.17 79.49ZM40.10 36.86L57.31 36.86C55.01 40.68 51.84 44.14 48.17 47.02C44.78 44.14 41.98 40.75 40.03 37.01ZM62.35 30.60L61.20 30.82L43.56 30.82C44.50 28.87 45.43 26.86 46.22 24.91L40.18 23.11C37.15 31.03 31.97 38.59 26.21 43.42C27.43 44.71 29.52 47.59 30.31 48.89C32.40 46.94 34.42 44.71 36.36 42.26C38.30 45.29 40.61 48.02 43.34 50.54C37.94 53.93 31.75 56.59 25.42 58.25C26.35 59.62 27.58 62.71 28.01 64.51C29.52 64.01 30.89 63.58 32.40 63.00L32.40 88.99L38.59 88.99L38.59 85.39L57.17 85.39L57.17 88.85L63.65 88.85L63.65 62.78C64.94 63.22 66.17 63.65 67.54 64.01C67.90 62.28 68.98 59.40 69.91 57.82C63.79 56.30 58.10 53.86 53.21 50.76C58.75 45.94 63.29 39.96 66.24 32.98Z"/></svg>
