<svg xmlns="http://www.w3.org/2000/svg" xmlns:xlink="http://www.w3.org/1999/xlink" width="72.00000000000001" height="106.56000000000002"><path fill="red" stroke="red" d="M18.94 36.50L18.94 65.52L11.66 65.52L11.66 36.50ZM25.13 72.07L25.13 30.02L5.54 30.02L5.54 77.62L11.66 77.62L11.66 72.07ZM60.12 61.27C58.10 65.30 55.22 68.76 51.91 71.71C49.61 69.26 46.37 66.46 43.34 64.22C44.50 63.29 45.65 62.28 46.73 61.27ZM55.94 35.35C53.71 38.38 50.90 40.97 47.59 43.34C45.43 41.18 42.48 38.88 39.82 37.01C40.54 36.43 41.11 35.93 41.83 35.35ZM64.66 55.22L63.43 55.51L51.91 55.51C53.28 53.86 54.43 52.13 55.44 50.47L49.32 49.32C56.23 45.00 61.92 39.31 65.38 31.75L60.98 29.59L59.83 29.88L47.52 29.88C49.03 28.08 50.47 26.35 51.70 24.55L45.00 23.18C41.47 28.44 34.85 34.42 25.70 38.74C27.07 39.67 29.16 41.76 30.10 43.20C31.90 42.26 33.62 41.26 35.21 40.25C37.73 42.19 40.46 44.50 42.34 46.51C37.44 49.10 31.90 50.98 26.42 52.20C27.58 53.50 29.16 55.80 29.88 57.38C36.29 55.73 42.62 53.35 48.17 50.04C44.42 56.23 37.22 62.86 26.71 67.39C28.08 68.40 30.02 70.63 30.89 72.14C33.77 70.70 36.29 69.26 38.66 67.68C41.76 70.13 44.93 73.15 46.94 75.53C40.61 79.70 32.90 82.51 24.84 84.10C26.06 85.46 27.58 87.91 28.30 89.64C46.66 85.32 62.57 76.25 69.12 57.31Z"/></svg>
