<svg xmlns="http://www.w3.org/2000/svg" xmlns:xlink="http://www.w3.org/1999/xlink" width="72.00000000000001" height="106.56000000000002"><path fill="red" stroke="red" d="M55.37 65.45L55.37 79.70L38.09 79.70L38.09 65.45ZM31.61 89.35L38.09 89.35L38.09 85.68L55.37 85.68L55.37 89.21L62.21 89.21L62.21 59.54L31.61 59.54ZM38.16 46.37C41.76 42.48 44.78 38.09 47.38 33.48C50.04 38.09 53.21 42.62 56.81 46.37ZM18.65 64.22L11.52 64.22L11.52 35.86L18.65 35.86ZM44.86 23.18C41.33 33.05 34.06 42.91 24.84 49.03L24.84 29.66L5.40 29.66L5.40 77.04L11.52 77.04L11.52 70.42L24.84 70.42L24.84 49.18C26.35 50.33 28.44 52.63 29.52 54.00C31.54 52.49 33.48 50.98 35.35 49.18L35.35 52.49L58.97 52.49L58.97 48.53C60.84 50.40 62.78 51.91 64.73 53.28C65.81 51.55 67.97 49.03 69.55 47.81C62.06 43.63 54.65 35.35 50.40 27.22C50.69 26.42 50.98 25.70 51.26 24.91Z"/></svg>
