<svg xmlns="http://www.w3.org/2000/svg" xmlns:xlink="http://www.w3.org/1999/xlink" width="72.00000000000001" height="106.56000000000002"><path fill="red" stroke="red" d="M26.71 31.32L26.71 36.36L13.18 36.36L13.18 31.32ZM13.18 46.51L13.18 41.11L26.71 41.11L26.71 46.51ZM33.05 51.77L33.05 25.99L6.55 25.99L6.55 89.21L13.18 89.21L13.18 51.77ZM43.06 63.14L43.06 73.58L28.37 73.58L28.37 63.14ZM49.32 79.13L49.32 57.53L22.18 57.53L22.18 83.30L28.37 83.30L28.37 79.13ZM45.14 46.58L45.14 41.11L59.04 41.11L59.04 46.58ZM59.04 31.25L59.04 36.36L45.14 36.36L45.14 31.25ZM65.88 25.99L38.74 25.99L38.74 51.84L59.04 51.84L59.04 80.64C59.04 81.94 58.68 82.37 57.31 82.44C55.87 82.44 51.19 82.51 46.66 82.30C47.66 84.17 48.74 87.26 48.96 89.14C55.44 89.14 59.69 89.06 62.35 87.98C64.94 86.83 65.88 84.74 65.88 80.71Z"/></svg>
