<svg xmlns="http://www.w3.org/2000/svg" xmlns:xlink="http://www.w3.org/1999/xlink" width="72.00000000000001" height="106.56000000000002"><path fill="red" stroke="red" d="M56.52 50.69C54.50 48.53 50.40 45.22 47.09 42.77L47.38 41.83L55.94 41.83L55.94 37.15L48.31 37.15C48.53 35.64 48.67 34.20 48.82 32.62L44.06 32.62C43.92 34.20 43.78 35.71 43.56 37.15L35.35 37.15L35.35 41.83L42.41 41.83C41.11 45.94 38.59 49.25 34.27 51.48C35.28 52.27 36.79 54.07 37.37 55.15C41.11 53.14 43.63 50.40 45.36 47.09C48.31 49.54 51.55 52.42 53.28 54.36ZM58.32 55.87L33.05 55.87L33.05 30.82L58.32 30.82ZM64.58 25.42L27.07 25.42L27.07 61.34L64.58 61.34ZM53.71 73.37C52.78 70.34 49.97 65.81 47.23 62.50L42.55 65.16C45.22 68.62 47.81 73.30 48.82 76.32ZM17.28 35.86L17.28 64.22L10.73 64.22L10.73 35.86ZM22.68 70.42L22.68 29.66L5.40 29.66L5.40 77.04L10.73 77.04L10.73 70.42ZM25.20 84.96C27.94 79.92 30.02 72.50 31.32 66.89L26.21 65.02C25.06 70.56 22.82 77.40 20.16 81.72ZM42.55 81.79C39.89 81.79 39.46 81.50 39.46 79.63L39.46 65.74L33.19 65.74L33.19 79.70C33.19 85.61 34.85 87.41 41.76 87.41L51.70 87.41C57.31 87.41 58.97 85.10 59.62 75.74C58.03 75.31 55.44 74.38 54.14 73.30C53.86 80.71 53.42 81.79 51.05 81.79ZM56.52 66.17C59.62 71.71 62.93 78.91 64.08 83.45L69.26 80.64C68.04 76.18 64.58 69.12 61.34 63.86Z"/></svg>
