<svg xmlns="http://www.w3.org/2000/svg" xmlns:xlink="http://www.w3.org/1999/xlink" width="72.00000000000001" height="106.56000000000002"><path fill="red" stroke="red" d="M61.92 41.11L61.92 44.57L30.38 44.57L30.38 41.11ZM57.46 51.41L48.60 51.41L48.60 48.24L57.46 48.24ZM57.46 58.18L48.60 58.18L48.60 54.94L57.46 54.94ZM34.70 51.41L34.70 48.24L43.06 48.24L43.06 51.41ZM43.06 54.94L43.06 58.18L34.70 58.18L34.70 54.94ZM29.09 61.85L63.22 61.85L63.22 45.79L67.68 45.79L67.68 36.50L49.03 36.50L49.03 32.69L67.68 32.69L67.68 27.86L49.03 27.86L49.03 23.11L42.62 23.11L42.62 27.86L25.27 27.86L25.27 32.69L42.62 32.69L42.62 36.50L24.91 36.50L24.91 45.79L29.09 45.79ZM16.49 36.14L16.49 63.07L10.37 63.07L10.37 36.14ZM21.74 69.12L21.74 30.17L5.18 30.17L5.18 75.24L10.37 75.24L10.37 69.12ZM61.56 69.12C61.20 70.63 60.70 72.07 60.19 73.30L48.89 73.30L48.89 69.12ZM48.89 77.90L60.48 77.90L60.48 74.52L64.73 75.60C66.10 73.01 67.61 68.90 68.62 65.38L64.51 64.30L63.50 64.51L24.19 64.51L24.19 69.12L42.91 69.12L42.91 82.37C39.10 81.65 36.43 79.99 34.56 76.61C35.28 74.95 35.78 73.08 36.14 71.14L30.17 70.49C29.02 77.33 25.27 82.01 19.15 84.89C20.45 85.90 22.61 88.13 23.47 89.28C27.07 87.26 30.02 84.67 32.18 81.36C36.07 86.83 41.76 88.13 51.19 88.13L67.61 88.13C67.90 86.62 68.54 84.17 69.41 82.94C66.24 83.02 53.64 83.02 51.48 83.02C50.62 83.02 49.75 83.02 48.89 82.94Z"/></svg>
