<svg xmlns="http://www.w3.org/2000/svg" xmlns:xlink="http://www.w3.org/1999/xlink" width="72.00000000000001" height="106.56000000000002"><path fill="red" stroke="red" d="M49.32 62.64L64.66 62.64L64.66 56.45L49.32 56.45L49.32 43.49L42.55 43.49L42.55 56.45L27.14 56.45L27.14 62.64L42.55 62.64L42.55 81.22L24.41 81.22L24.41 87.48L67.39 87.48L67.39 81.22L49.32 81.22ZM31.46 33.62C32.62 30.67 33.62 27.72 34.56 24.77L27.58 23.04C26.64 26.57 25.56 30.10 24.05 33.62L4.61 33.62L4.61 40.03L21.17 40.03C16.70 48.82 10.58 56.88 2.66 62.28C3.74 63.86 5.26 66.74 5.98 68.54C8.64 66.67 11.16 64.51 13.46 62.28L13.46 89.06L20.16 89.06L20.16 54.50C23.47 50.04 26.28 45.14 28.73 40.03L67.46 40.03L67.46 33.62Z"/></svg>
