<svg xmlns="http://www.w3.org/2000/svg" xmlns:xlink="http://www.w3.org/1999/xlink" width="72.00000000000001" height="106.56000000000002"><path fill="red" stroke="red" d="M57.24 46.80L36.29 46.80L36.29 34.20L57.24 34.20ZM57.24 65.81L36.29 65.81L36.29 52.99L57.24 52.99ZM64.22 28.01L29.66 28.01L29.66 72.00L64.22 72.00ZM26.06 65.09C23.54 66.02 20.88 67.03 18.36 67.90L18.36 46.73L26.50 46.73L26.50 40.39L18.36 40.39L18.36 23.98L11.95 23.98L11.95 40.39L3.60 40.39L3.60 46.73L11.95 46.73L11.95 70.27C8.50 71.42 5.33 72.58 2.74 73.37L4.90 80.21C11.38 77.69 19.66 74.30 27.43 71.14ZM25.34 80.28L25.34 86.47L68.47 86.47L68.47 80.28Z"/></svg>
