<svg xmlns="http://www.w3.org/2000/svg" xmlns:xlink="http://www.w3.org/1999/xlink" width="72.00000000000001" height="106.56000000000002"><path fill="red" stroke="red" d="M25.20 64.87L18.22 67.54L18.22 46.66L25.63 46.66L25.63 40.32L18.22 40.32L18.22 24.05L11.81 24.05L11.81 40.32L3.82 40.32L3.82 46.66L11.81 46.66L11.81 69.91C8.42 71.21 5.40 72.22 2.95 73.08L5.18 79.92C11.30 77.40 19.22 74.16 26.57 71.06ZM59.18 62.93L59.18 77.69L43.49 77.69L43.49 62.93ZM37.37 88.27L43.49 88.27L43.49 83.81L59.18 83.81L59.18 87.98L65.66 87.98L65.66 56.88L37.37 56.88ZM35.50 42.34L35.50 33.19C46.22 32.54 57.89 31.32 66.46 29.30L62.28 23.62C54.07 25.56 40.68 27.00 29.02 27.72L29.02 52.27C29.02 62.93 28.08 76.75 20.38 85.75C22.03 86.62 24.55 88.56 25.78 89.71C34.27 79.70 35.50 64.58 35.50 52.27L35.50 48.53L68.90 48.53L68.90 42.34Z"/></svg>
