<svg xmlns="http://www.w3.org/2000/svg" xmlns:xlink="http://www.w3.org/1999/xlink" width="72.00000000000001" height="106.56000000000002"><path fill="red" stroke="red" d="M17.14 46.37L23.62 46.37L23.62 40.03L17.14 40.03L17.14 23.98L10.80 23.98L10.80 40.03L3.10 40.03L3.10 46.37L10.80 46.37L10.80 70.27C7.70 71.35 4.82 72.36 2.45 73.01L4.90 79.70C10.80 77.40 18.36 74.38 25.34 71.42L24.19 65.38C21.89 66.24 19.44 67.18 17.14 68.04ZM58.46 68.54L41.04 68.54L41.04 62.21L58.46 62.21ZM41.04 80.57L41.04 73.94L58.46 73.94L58.46 80.57ZM69.05 50.33L69.05 44.28L57.53 44.28C61.85 39.17 65.66 33.62 68.83 27.65L62.71 25.34C59.18 32.26 54.50 38.66 49.03 44.28L46.37 44.28L46.37 36.43L55.37 36.43L55.37 30.53L46.37 30.53L46.37 23.11L39.74 23.11L39.74 30.53L28.44 30.53L28.44 36.43L39.74 36.43L39.74 44.28L25.70 44.28L25.70 50.33L42.41 50.33C36.43 55.22 29.74 59.33 22.61 62.42C23.90 63.79 26.06 66.67 26.93 68.11C29.52 66.74 32.11 65.38 34.63 63.79L34.63 88.99L41.04 88.99L41.04 86.11L58.46 86.11L58.46 88.85L65.16 88.85L65.16 56.66L44.71 56.66C47.23 54.72 49.61 52.56 51.91 50.33Z"/></svg>
