<svg xmlns="http://www.w3.org/2000/svg" xmlns:xlink="http://www.w3.org/1999/xlink" width="72.00000000000001" height="106.56000000000002"><path fill="red" stroke="red" d="M17.93 46.51C17.93 47.38 17.86 48.31 17.78 49.25L11.45 49.25L11.45 40.90L6.05 40.90L6.05 54.65L16.13 54.65C14.47 57.53 11.52 60.34 6.12 62.57C7.34 63.43 9.50 65.81 10.30 67.10C17.57 63.94 21.10 59.40 22.68 54.65L30.60 54.65L30.60 56.52L36.14 56.52L36.14 40.90L30.60 40.90L30.60 49.25L23.83 49.25C23.90 48.38 23.90 47.45 23.90 46.66L23.90 38.02L38.38 38.02L38.38 32.62L29.38 32.62C30.82 30.53 32.18 28.01 33.70 25.49L27.94 23.76C26.93 26.35 24.98 30.02 23.33 32.62L15.91 32.62L18.50 31.25C17.57 29.16 15.48 25.99 13.46 23.69L8.86 25.85C10.37 27.79 12.10 30.53 13.03 32.62L3.67 32.62L3.67 38.02L17.93 38.02ZM59.62 31.46L59.62 36.36L47.38 36.36L47.38 31.46ZM46.73 46.66C47.02 44.86 47.16 43.06 47.30 41.40L59.62 41.40L59.62 46.66ZM39.24 80.93L39.24 74.23L61.06 74.23L61.06 68.62L39.24 68.62L39.24 64.37L38.81 64.37C42.41 60.84 44.50 56.38 45.72 51.77L59.62 51.77L59.62 58.75C59.62 59.62 59.33 59.90 58.39 59.90C57.60 59.90 54.65 59.90 51.70 59.76C52.42 61.42 53.28 64.01 53.50 65.74C58.10 65.74 61.13 65.66 63.22 64.66C65.30 63.65 65.88 61.92 65.88 58.82L65.88 26.06L41.47 26.06L41.47 37.73C41.47 45.00 40.54 54.65 33.26 61.63C34.56 62.21 36.94 63.50 38.16 64.37L32.40 64.37L32.40 68.62L10.94 68.62L10.94 74.23L32.40 74.23L32.40 80.93L3.67 80.93L3.67 86.76L68.33 86.76L68.33 80.93Z"/></svg>
