<svg xmlns="http://www.w3.org/2000/svg" xmlns:xlink="http://www.w3.org/1999/xlink" width="72.00000000000001" height="106.56000000000002"><path fill="red" stroke="red" d="M17.28 68.40L17.28 46.58L24.19 46.58L24.19 40.39L17.28 40.39L17.28 23.98L11.16 23.98L11.16 40.39L3.96 40.39L3.96 46.58L11.16 46.58L11.16 70.56C8.06 71.64 5.33 72.65 2.95 73.37L5.11 79.99C10.94 77.69 18.36 74.74 25.20 71.86L24.05 65.95ZM55.94 66.38L55.94 71.35L36.50 71.35L36.50 66.38ZM36.50 80.64L36.50 76.18L55.94 76.18L55.94 80.64ZM30.46 89.14L36.50 89.14L36.50 85.68L55.94 85.68L55.94 89.14L62.28 89.14L62.28 61.34L30.46 61.34ZM33.84 40.97C35.78 44.14 37.73 48.38 38.23 51.19L42.12 49.61C41.47 46.87 39.46 42.70 37.44 39.67ZM52.92 51.26C54.65 48.67 56.95 44.78 58.90 41.26L54.58 39.74C53.57 42.70 51.34 47.16 49.61 49.82ZM59.83 52.99L48.67 52.99L48.67 38.02L59.83 38.02ZM32.26 38.02L43.56 38.02L43.56 52.99L32.26 52.99ZM56.45 33.41C58.32 31.03 60.26 28.01 62.21 25.20L55.30 22.90C54.07 26.06 51.62 30.46 49.68 33.41L37.58 33.41L42.26 31.18C41.26 28.94 39.10 25.56 37.08 23.11L31.39 25.49C33.19 27.94 35.06 31.10 36.14 33.41L26.86 33.41L26.86 57.60L65.52 57.60L65.52 33.41Z"/></svg>
