<svg xmlns="http://www.w3.org/2000/svg" xmlns:xlink="http://www.w3.org/1999/xlink" width="72.00000000000001" height="106.56000000000002"><path fill="red" stroke="red" d="M39.53 61.42L39.53 55.30L32.76 55.30L32.76 61.42L21.17 61.42C23.76 58.97 26.14 56.16 28.15 53.28L44.71 53.28C46.51 56.16 48.74 58.97 51.34 61.42ZM66.53 53.28L66.53 47.88L31.54 47.88C32.40 46.37 33.12 44.86 33.91 43.27L60.26 43.27L60.26 38.23L35.93 38.23C36.50 36.79 37.01 35.42 37.51 33.91L63.29 33.91L63.29 28.58L39.02 28.58C39.38 27.14 39.74 25.78 40.10 24.26L33.26 22.97C32.90 24.84 32.47 26.78 31.97 28.58L8.78 28.58L8.78 33.91L30.46 33.91C29.95 35.42 29.45 36.79 28.80 38.23L11.16 38.23L11.16 43.27L26.57 43.27C25.70 44.86 24.84 46.37 23.83 47.88L5.47 47.88L5.47 53.28L19.80 53.28C15.34 58.54 9.58 62.86 2.30 66.02C3.82 67.25 5.90 69.55 6.91 71.06C12.02 68.62 16.49 65.59 20.30 62.21L20.30 66.96L32.76 66.96L32.76 72.58L10.01 72.58L10.01 78.48L32.76 78.48L32.76 89.14L39.53 89.14L39.53 78.48L61.63 78.48L61.63 72.58L39.53 72.58L39.53 66.96L51.55 66.96L51.55 61.63C55.51 65.52 60.34 68.62 65.38 70.70C66.31 69.05 68.33 66.67 69.70 65.45C62.78 63.07 56.16 58.61 51.84 53.28Z"/></svg>
