<svg xmlns="http://www.w3.org/2000/svg" xmlns:xlink="http://www.w3.org/1999/xlink" width="72.00000000000001" height="106.56000000000002"><path fill="red" stroke="red" d="M21.82 57.74L50.18 57.74L50.18 54.22L21.82 54.22ZM16.85 44.21L27.14 44.21C26.28 46.73 23.76 49.18 17.35 50.62C18.50 51.34 20.38 52.92 21.31 53.86C29.23 51.77 31.90 48.10 32.62 44.21L39.38 44.21L39.38 46.66C39.38 50.54 40.68 51.41 46.08 51.41L54.07 51.41L54.86 51.41L54.86 61.13L16.85 61.13ZM32.90 35.71L39.38 35.71L39.38 39.82L32.90 39.82ZM54.86 44.21L54.86 48.17C54.65 48.24 54.22 48.31 53.35 48.31L46.73 48.31C44.93 48.31 44.57 48.10 44.57 46.66L44.57 44.21ZM68.33 74.81L68.33 69.55L38.66 69.55C39.02 68.26 39.24 67.03 39.46 65.59L61.42 65.59L61.42 39.82L44.57 39.82L44.57 35.71L65.88 35.71L65.88 30.46L49.25 30.46C51.05 28.73 52.99 26.86 54.72 24.98L48.53 22.75C46.94 25.06 44.42 28.08 41.98 30.46L26.78 30.46L29.66 29.52C28.44 27.65 25.78 24.77 23.76 22.68L17.86 24.48C19.51 26.21 21.60 28.66 22.90 30.46L5.98 30.46L5.98 35.71L27.65 35.71L27.65 39.82L10.66 39.82L10.66 65.59L32.62 65.59C32.40 67.03 32.18 68.33 31.82 69.55L3.46 69.55L3.46 74.81L29.30 74.81C25.63 79.78 18.29 82.37 2.88 83.74C3.96 85.03 5.33 87.55 5.76 89.21C24.91 87.12 33.12 82.80 36.94 74.81L40.68 74.81L36.43 77.98C45.79 81.07 58.18 86.04 64.30 89.21L69.34 85.18C62.64 82.01 50.76 77.62 41.98 74.81Z"/></svg>
