<svg xmlns="http://www.w3.org/2000/svg" xmlns:xlink="http://www.w3.org/1999/xlink" width="72.00000000000001" height="106.56000000000002"><path fill="red" stroke="red" d="M20.74 43.42L12.10 43.42L12.10 26.28L6.05 26.28L6.05 49.25L20.74 49.25L20.74 58.46L3.31 58.46L3.31 64.51L8.35 64.51L8.35 66.31C8.35 71.35 7.63 79.78 2.66 85.32C4.10 86.04 6.55 87.48 7.78 88.49C13.39 82.15 14.40 72.43 14.40 66.46L14.40 64.51L20.74 64.51L20.74 89.14L27.00 89.14L27.00 23.11L20.74 23.11ZM57.74 44.14C56.30 54.50 53.71 62.64 49.18 68.98C46.08 67.03 43.06 65.23 40.10 63.50C41.76 57.82 43.42 51.05 44.93 44.14ZM69.34 83.02C65.81 80.06 60.48 76.32 54.72 72.58C59.83 65.23 62.78 56.02 64.51 44.14L68.62 44.14L68.62 37.73L65.30 37.73C65.52 35.93 65.66 34.13 65.81 32.33L59.04 31.97C58.90 33.91 58.75 35.93 58.54 37.73L46.22 37.73C47.02 33.05 47.81 28.51 48.31 24.26L41.26 23.76C40.82 28.15 40.03 32.90 39.17 37.73L29.38 37.73L29.38 44.14L37.94 44.14C36.22 52.27 34.13 59.98 32.26 65.74C36.14 68.11 40.61 70.85 44.93 73.73C40.75 77.69 35.28 80.78 28.37 83.16C29.59 84.53 31.54 87.55 32.18 89.14C39.96 86.11 46.01 82.37 50.62 77.54C56.38 81.50 61.63 85.46 65.09 88.56Z"/></svg>
