<svg xmlns="http://www.w3.org/2000/svg" xmlns:xlink="http://www.w3.org/1999/xlink" width="72.00000000000001" height="106.56000000000002"><path fill="red" stroke="red" d="M19.58 43.92C19.51 50.47 18.86 58.25 15.98 65.95C14.11 64.15 12.10 62.35 10.22 60.70C11.30 55.87 12.53 50.18 13.54 44.28ZM25.34 76.03C24.12 74.38 22.39 72.43 20.45 70.34C24.34 61.06 25.13 51.48 25.20 43.56L28.44 43.27L28.44 37.51L25.20 37.73L25.20 33.26L19.58 33.26L19.58 38.02L14.47 38.30C15.19 33.26 15.84 28.22 16.27 23.76L10.58 23.54C10.22 28.15 9.58 33.41 8.78 38.59C6.55 38.66 4.54 38.74 2.66 38.81L3.31 44.93L7.78 44.64C6.62 51.41 5.26 57.82 3.96 62.50C6.91 65.30 10.22 68.47 13.32 71.64C10.80 76.25 7.27 80.64 2.30 84.67C3.67 85.54 5.69 87.48 6.62 88.78C11.38 84.82 14.83 80.50 17.50 76.10C19.15 77.83 20.52 79.56 21.53 81.00ZM60.62 32.11L60.62 38.74L36.94 38.74L36.94 32.11ZM36.94 44.42L67.10 44.42L67.10 26.42L30.67 26.42L30.67 49.10C30.67 60.12 30.10 75.24 23.26 85.75C24.84 86.33 27.58 87.84 28.73 88.92C35.86 77.76 36.94 60.91 36.94 49.10ZM55.58 82.30C53.64 82.30 53.35 82.01 53.35 79.78L53.35 74.30L69.34 71.71L68.40 66.46L53.35 68.90L53.35 63.58L66.82 61.27L65.74 56.09L53.35 58.10L53.35 52.70C57.31 51.62 61.13 50.40 64.30 49.10L59.40 44.86C54.43 47.23 45.50 49.75 37.58 51.19C38.30 52.42 39.10 54.43 39.31 55.73C41.98 55.30 44.64 54.72 47.38 54.14L47.38 59.11L37.80 60.77L38.74 66.02L47.38 64.58L47.38 69.84L36.00 71.71L37.01 76.97L47.38 75.31L47.38 79.85C47.38 86.33 48.96 87.98 54.72 87.98L62.21 87.98C66.96 87.98 68.62 85.75 69.19 77.83C67.54 77.40 65.16 76.46 63.86 75.53C63.65 81.22 63.29 82.30 61.63 82.30Z"/></svg>
