<svg xmlns="http://www.w3.org/2000/svg" xmlns:xlink="http://www.w3.org/1999/xlink" width="72.00000000000001" height="106.56000000000002"><path fill="red" stroke="red" d="M58.10 39.10L39.74 39.10L39.74 30.89L58.10 30.89ZM64.51 25.63L33.70 25.63L33.70 44.35L64.51 44.35ZM21.10 44.14C21.10 50.47 20.52 58.10 17.64 65.59C15.55 63.72 13.25 61.78 11.23 60.12C12.31 55.51 13.54 50.11 14.62 44.57ZM29.02 76.82C27.43 74.81 25.13 72.50 22.61 70.13C26.50 60.91 27.14 51.48 27.14 43.63L30.31 43.42L30.31 37.80L27.14 37.94L27.14 33.26L21.10 33.26L21.10 38.38L15.70 38.66C16.49 33.48 17.28 28.44 17.78 23.83L11.59 23.47C11.16 28.22 10.44 33.55 9.65 38.88L2.74 39.17L3.31 45.22L8.50 44.86C7.27 51.34 5.83 57.46 4.46 62.06C7.70 64.80 11.38 68.11 14.83 71.35C12.10 76.10 8.06 80.71 2.38 84.67C3.74 85.68 5.90 87.77 6.84 89.21C12.53 85.18 16.49 80.71 19.44 75.96C21.67 78.12 23.47 80.21 24.84 81.94ZM40.10 62.50C45.43 63.65 52.27 65.95 55.80 67.90L58.46 62.86C54.79 60.91 47.88 58.90 42.62 57.96ZM39.10 54.72L59.98 54.72L59.98 68.76C51.91 70.56 43.85 72.36 38.30 73.37C38.95 69.26 39.10 65.30 39.10 61.92ZM66.46 49.03L32.47 49.03L32.47 61.85C32.47 69.12 31.82 79.13 26.06 86.18C27.65 86.90 30.53 88.85 31.68 90.07C35.35 85.46 37.30 79.56 38.23 73.73L40.39 79.70C46.08 78.26 53.06 76.39 59.98 74.38L59.98 81.86C59.98 82.80 59.62 83.02 58.61 83.09C57.67 83.16 54.29 83.16 50.90 83.02C51.70 84.60 52.70 87.19 53.06 88.85C57.96 88.92 61.34 88.78 63.50 87.77C65.81 86.83 66.46 85.03 66.46 81.94Z"/></svg>
