<svg xmlns="http://www.w3.org/2000/svg" xmlns:xlink="http://www.w3.org/1999/xlink" width="72.00000000000001" height="106.56000000000002"><path fill="red" stroke="red" d="M47.38 72.14C44.86 74.59 41.90 76.61 38.38 78.19C33.55 77.26 28.51 76.25 23.47 75.31C24.62 74.30 25.78 73.30 26.93 72.14ZM15.77 54.72L32.47 54.72L32.47 58.46L15.77 58.46ZM55.87 54.72L55.87 58.46L38.88 58.46L38.88 54.72ZM17.71 42.77L17.71 39.46L32.47 39.46L32.47 42.77ZM32.47 32.18L32.47 35.42L17.71 35.42L17.71 32.18ZM54.50 32.18L54.50 35.42L38.88 35.42L38.88 32.18ZM38.88 42.77L38.88 39.46L54.50 39.46L54.50 42.77ZM68.40 72.14L68.40 66.89L57.74 66.89C58.03 66.31 58.32 65.66 58.61 65.02L52.99 63.36C52.56 64.66 51.98 65.74 51.34 66.89L32.04 66.89C33.34 65.45 34.49 64.08 35.57 62.64L62.14 62.64L62.14 50.54L38.88 50.54L38.88 47.52L60.91 47.52L60.91 40.10L67.97 40.10L67.97 34.85L60.91 34.85L60.91 27.50L38.88 27.50L38.88 23.04L32.47 23.04L32.47 27.50L11.66 27.50L11.66 34.85L3.96 34.85L3.96 40.10L11.66 40.10L11.66 47.52L32.47 47.52L32.47 50.54L9.79 50.54L9.79 62.64L27.79 62.64C26.64 64.08 25.42 65.45 24.12 66.89L3.60 66.89L3.60 72.14L19.01 72.14C16.78 74.30 14.47 76.39 12.38 78.05C18.29 79.06 24.05 80.06 29.45 81.14C22.82 82.73 14.83 83.59 5.26 84.02C6.19 85.39 7.06 87.34 7.49 89.06C20.81 88.20 31.32 86.54 39.46 83.30C48.24 85.39 55.73 87.48 61.13 89.50L67.97 85.61C62.21 83.74 54.65 81.79 46.30 79.85C49.61 77.76 52.42 75.24 54.65 72.14Z"/></svg>
