<svg xmlns="http://www.w3.org/2000/svg" xmlns:xlink="http://www.w3.org/1999/xlink" width="72.00000000000001" height="106.56000000000002"><path fill="red" stroke="red" d="M13.32 37.37L58.46 37.37L58.46 46.22L65.59 46.22L65.59 31.10L41.18 31.10C40.10 28.58 38.38 25.20 37.01 22.54L29.66 24.34C30.60 26.35 31.75 28.94 32.69 31.10L6.55 31.10L6.55 46.22L13.32 46.22ZM45.29 58.03C43.70 62.78 41.54 66.67 38.52 69.84C33.77 67.97 28.87 66.24 24.19 64.66C25.49 62.64 26.78 60.41 28.15 58.03ZM67.32 58.03L67.32 51.70L55.01 51.70C55.44 49.75 55.80 47.66 56.16 45.50L48.02 44.86C47.74 47.23 47.38 49.61 46.94 51.70L31.61 51.70C33.41 48.17 35.06 44.57 36.36 41.18L28.73 39.74C27.36 43.49 25.49 47.66 23.33 51.70L4.90 51.70L4.90 58.03L19.73 58.03C17.64 61.63 15.41 64.94 13.46 67.68C19.51 69.62 26.21 72.00 32.76 74.66C26.14 78.91 17.14 81.29 5.26 82.66C6.70 84.38 8.78 87.62 9.43 89.35C22.97 87.26 33.05 83.88 40.39 77.98C48.89 81.72 56.52 85.75 61.56 89.21L66.60 83.30C61.34 79.99 53.78 76.25 45.65 72.79C48.96 68.76 51.41 63.94 53.28 58.03Z"/></svg>
