<svg xmlns="http://www.w3.org/2000/svg" xmlns:xlink="http://www.w3.org/1999/xlink" width="72.00000000000001" height="106.56000000000002"><path fill="red" stroke="red" d="M58.82 49.68L49.82 49.68C51.84 47.09 54.14 43.56 56.16 40.18L50.11 37.94C48.60 41.26 45.72 46.01 43.56 48.89L45.65 49.68L39.02 49.68L39.02 36.94L32.54 36.94L32.54 49.68L21.46 49.68L26.71 47.45C25.92 44.71 23.54 40.82 21.24 37.94L15.98 40.10C18.14 43.06 20.30 47.09 21.02 49.68L13.75 49.68L13.75 62.57C13.75 69.48 13.25 78.98 7.99 85.82C9.50 86.54 12.31 88.63 13.46 89.78C19.30 82.22 20.30 70.78 20.30 62.64L20.30 55.22L51.98 55.22L51.98 67.90C40.18 69.98 28.08 72.07 20.23 73.22L22.32 79.20C30.53 77.54 41.40 75.46 51.98 73.15L51.98 81.86C51.98 82.87 51.62 83.16 50.47 83.23C49.39 83.30 45.29 83.30 41.54 83.16C42.41 84.74 43.34 87.34 43.63 89.06C49.18 89.06 53.06 88.92 55.58 88.06C58.03 87.05 58.82 85.39 58.82 81.94ZM21.53 62.14C29.66 63.36 40.10 66.17 45.50 68.62L47.74 63.58C42.19 61.20 31.75 58.68 23.69 57.67ZM41.47 29.38C40.68 27.29 39.31 24.48 38.02 22.39L30.96 24.41C31.75 25.92 32.62 27.65 33.26 29.38L5.98 29.38L5.98 43.92L12.53 43.92L12.53 35.42L59.26 35.42L59.26 43.92L66.10 43.92L66.10 29.38Z"/></svg>
