<svg xmlns="http://www.w3.org/2000/svg" xmlns:xlink="http://www.w3.org/1999/xlink" width="72.00000000000001" height="106.56000000000002"><path fill="red" stroke="red" d="M12.38 34.85L59.40 34.85L59.40 43.06L66.24 43.06L66.24 28.80L40.54 28.80C39.74 26.86 38.66 24.48 37.73 22.61L30.82 23.69C31.54 25.20 32.26 27.07 32.90 28.80L5.83 28.80L5.83 43.06L12.38 43.06ZM19.30 65.74L32.62 65.74L32.62 71.14L19.30 71.14ZM19.30 55.58L32.62 55.58L32.62 60.77L19.30 60.77ZM52.85 55.58L52.85 60.77L39.17 60.77L39.17 55.58ZM52.85 71.14L39.17 71.14L39.17 65.74L52.85 65.74ZM59.54 76.39L59.54 50.33L39.17 50.33L39.17 45.29L55.66 45.29L55.66 39.82L15.98 39.82L15.98 45.29L32.62 45.29L32.62 50.33L12.82 50.33L12.82 76.39L24.34 76.39C19.73 79.34 10.87 82.66 3.53 84.31C4.75 85.68 6.48 87.98 7.42 89.35C15.41 87.48 24.91 83.88 30.74 79.99L25.63 76.39L45.07 76.39L41.54 80.28C49.54 83.23 57.82 86.90 62.78 89.35L67.82 84.60C62.78 82.30 54.72 79.06 47.23 76.39Z"/></svg>
