<svg xmlns="http://www.w3.org/2000/svg" xmlns:xlink="http://www.w3.org/1999/xlink" width="72.00000000000001" height="106.56000000000002"><path fill="red" stroke="red" d="M12.02 34.49L59.83 34.49L59.83 41.04L66.17 41.04L66.17 29.16L39.89 29.16C38.95 27.07 37.51 24.48 36.00 22.61L30.24 24.26C31.10 25.70 32.11 27.43 32.90 29.16L5.98 29.16L5.98 41.04L12.02 41.04ZM19.73 72.86L52.42 72.86L52.42 75.74L19.73 75.74ZM19.73 66.53L52.42 66.53L52.42 69.34L19.73 69.34ZM19.73 60.34L52.42 60.34L52.42 63.07L19.73 63.07ZM59.18 79.42L59.18 56.66L13.25 56.66L13.25 79.42L25.56 79.42C20.59 81.58 11.95 83.88 4.97 84.82C6.12 86.11 7.78 88.20 8.57 89.42C16.63 88.20 26.42 85.46 32.33 82.30L28.08 79.42L42.70 79.42L39.89 82.51C48.10 84.74 56.59 87.55 61.63 89.50L66.17 85.25C61.27 83.59 53.78 81.29 46.44 79.42ZM38.09 50.47C38.16 49.46 38.30 48.46 38.45 47.38L50.04 47.38L49.75 50.47ZM21.10 47.38L32.83 47.38C32.76 48.46 32.62 49.46 32.47 50.47L20.74 50.47ZM33.48 41.04L33.26 43.78L21.60 43.78L21.96 41.04ZM50.33 43.78L38.81 43.78L39.10 41.04L50.54 41.04ZM56.52 43.13L57.10 37.37L16.49 37.37L15.77 43.13L3.74 43.13L3.74 48.02L15.12 48.02L14.33 54.07L55.51 54.07L56.09 48.02L68.47 48.02L68.47 43.13Z"/></svg>
