<svg xmlns="http://www.w3.org/2000/svg" xmlns:xlink="http://www.w3.org/1999/xlink" width="72.00000000000001" height="106.56000000000002"><path fill="red" stroke="red" d="M31.32 36.50L20.88 36.50L20.88 23.18L14.69 23.18L14.69 36.50L4.61 36.50L4.61 74.59L9.86 74.59L9.86 42.41L14.69 42.41L14.69 89.21L20.88 89.21L20.88 42.41L26.06 42.41L26.06 67.82C26.06 68.40 25.92 68.62 25.42 68.62L21.96 68.62C22.68 70.20 23.40 72.86 23.47 74.45C26.21 74.45 28.08 74.30 29.52 73.22C31.03 72.29 31.32 70.42 31.32 67.97ZM41.40 79.34L41.40 63.50L59.18 63.50L59.18 79.34ZM59.18 42.26L59.18 57.53L41.40 57.53L41.40 42.26ZM51.05 36.07C52.13 32.47 53.14 28.08 54.14 23.90L47.38 23.11C46.80 26.93 45.72 32.11 44.64 36.07L35.28 36.07L35.28 89.28L41.40 89.28L41.40 85.54L59.18 85.54L59.18 88.78L65.59 88.78L65.59 36.07Z"/></svg>
