<svg xmlns="http://www.w3.org/2000/svg" xmlns:xlink="http://www.w3.org/1999/xlink" width="72.00000000000001" height="106.56000000000002"><path fill="red" stroke="red" d="M18.50 45.29L53.86 45.29L53.86 50.83L18.50 50.83ZM18.50 34.92L53.86 34.92L53.86 40.39L18.50 40.39ZM64.01 61.85L39.31 61.85L39.31 56.09L60.48 56.09L60.48 29.66L38.23 29.66C39.10 27.86 40.03 25.78 40.97 23.54L32.76 22.82C32.33 24.77 31.54 27.43 30.67 29.66L12.17 29.66L12.17 56.09L32.40 56.09L32.40 61.85L8.64 61.85L8.64 85.82L15.26 85.82L15.26 68.04L32.40 68.04L32.40 89.14L39.31 89.14L39.31 68.04L57.38 68.04L57.38 78.62C57.38 79.56 57.02 79.85 55.87 79.85C54.86 79.92 50.69 79.99 46.73 79.78C47.52 81.43 48.38 83.88 48.67 85.61C54.43 85.61 58.32 85.61 60.77 84.67C63.29 83.74 64.01 82.01 64.01 78.77Z"/></svg>
