<svg xmlns="http://www.w3.org/2000/svg" xmlns:xlink="http://www.w3.org/1999/xlink" width="72.00000000000001" height="106.56000000000002"><path fill="red" stroke="red" d="M50.04 55.22L33.55 55.22L33.55 49.39L50.04 49.39ZM56.52 38.02L50.04 38.02L50.04 43.92L33.55 43.92L33.55 38.02L27.36 38.02L27.36 43.92L17.21 43.92L17.21 49.39L27.36 49.39L27.36 60.55L38.66 60.55L38.66 65.38L20.45 65.38L20.45 85.90L26.93 85.90L26.93 71.14L38.66 71.14L38.66 89.28L45.22 89.28L45.22 71.14L57.60 71.14L57.60 79.34C57.60 80.14 57.31 80.42 56.38 80.42C55.51 80.42 52.27 80.42 49.03 80.28C49.82 81.94 50.62 84.31 50.90 86.04C55.73 86.04 59.18 86.11 61.34 85.10C63.58 84.24 64.15 82.51 64.15 79.42L64.15 65.38L45.22 65.38L45.22 60.55L56.52 60.55L56.52 49.39L67.82 49.39L67.82 43.92L56.52 43.92ZM43.49 30.17C42.48 27.79 41.04 24.84 39.67 22.46L33.19 24.41C34.20 26.14 35.06 28.22 35.86 30.17L8.71 30.17L8.71 50.47C8.71 60.91 8.21 75.53 2.38 85.61C3.82 86.33 6.70 88.20 7.85 89.35C14.11 78.48 15.12 61.78 15.12 50.47L15.12 36.14L68.47 36.14L68.47 30.17Z"/></svg>
