<svg xmlns="http://www.w3.org/2000/svg" xmlns:xlink="http://www.w3.org/1999/xlink" width="72.00000000000001" height="106.56000000000002"><path fill="red" stroke="red" d="M60.05 34.85L38.45 34.85L38.45 30.24L60.05 30.24ZM60.05 44.06L38.45 44.06L38.45 39.31L60.05 39.31ZM66.24 25.49L32.54 25.49L32.54 48.74L66.24 48.74ZM60.84 62.71C62.64 60.12 64.80 56.09 66.82 52.42L61.13 50.40C59.90 53.57 57.60 58.03 55.87 60.91ZM42.41 60.77C41.62 58.03 39.53 53.78 37.44 50.62L32.40 52.42C34.27 55.66 36.36 60.05 37.01 62.86ZM28.66 36.43L19.58 36.43L19.58 23.11L13.90 23.11L13.90 36.43L4.61 36.43L4.61 74.38L9.65 74.38L9.65 42.34L13.90 42.34L13.90 89.14L19.58 89.14L19.58 42.34L23.76 42.34L23.76 67.25C23.76 67.90 23.62 68.04 23.11 68.04L19.87 68.04C20.74 69.48 21.46 72.07 21.60 73.66C24.05 73.66 25.70 73.51 27.00 72.43C28.37 71.50 28.66 69.62 28.66 67.39ZM59.62 83.02C59.04 83.02 58.54 82.94 58.32 82.66C57.96 82.44 57.89 81.79 57.89 80.71L57.89 68.76L67.97 68.76L67.97 63.07L52.42 63.07L52.42 50.04L46.08 50.04L46.08 63.07L30.53 63.07L30.53 68.76L39.82 68.76C38.95 76.90 36.43 81.58 26.35 84.24C27.58 85.46 29.16 87.77 29.81 89.35C41.62 85.68 44.86 79.27 45.86 68.76L51.70 68.76L51.70 80.28C51.70 84.53 52.13 85.75 53.35 86.76C54.43 87.77 56.38 88.27 58.03 88.27L62.14 88.27C63.36 88.27 65.16 88.06 66.17 87.55C67.18 87.12 68.04 86.26 68.54 85.03C69.05 83.88 69.34 80.86 69.41 78.05C67.90 77.62 65.74 76.54 64.66 75.53C64.58 78.19 64.51 80.35 64.37 81.22C64.15 82.15 63.79 82.58 63.43 82.73C63.14 82.94 62.42 83.02 61.85 83.02Z"/></svg>
