<svg xmlns="http://www.w3.org/2000/svg" xmlns:xlink="http://www.w3.org/1999/xlink" width="72.00000000000001" height="106.56000000000002"><path fill="red" stroke="red" d="M30.89 53.28L39.10 53.28L39.10 47.59L30.89 47.59L30.89 38.02L24.91 38.02L24.91 47.59L16.20 47.59L16.20 53.28L24.05 53.28C21.89 60.77 17.78 69.05 13.61 73.66C14.69 75.24 16.06 77.62 16.63 79.42C19.73 75.96 22.68 70.56 24.91 64.87L24.91 89.35L30.89 89.35L30.89 64.01C33.19 67.18 35.78 70.92 36.94 73.08L40.25 67.39C38.88 65.74 33.34 59.11 30.89 56.52ZM60.26 45.79L60.26 53.50L47.38 53.50L47.38 45.79ZM47.38 66.67L47.38 58.75L60.26 58.75L60.26 66.67ZM47.38 79.99L47.38 71.93L60.26 71.93L60.26 79.99ZM41.40 88.63L47.38 88.63L47.38 85.54L60.26 85.54L60.26 88.42L66.53 88.42L66.53 40.25L41.40 40.25ZM42.91 29.52C42.34 27.43 41.11 24.84 39.67 23.04L33.19 24.48C34.20 25.99 35.06 27.79 35.57 29.52L7.70 29.52L7.70 51.55C7.70 61.63 7.34 75.74 2.09 85.61C3.53 86.33 6.34 88.20 7.49 89.35C13.25 78.77 14.11 62.50 14.11 51.55L14.11 35.42L68.26 35.42L68.26 29.52Z"/></svg>
