<svg xmlns="http://www.w3.org/2000/svg" xmlns:xlink="http://www.w3.org/1999/xlink" width="72.00000000000001" height="106.56000000000002"><path fill="red" stroke="red" d="M68.26 34.63L68.26 28.94L42.41 28.94C41.62 27.00 40.39 24.62 39.31 22.75L32.83 24.55C33.55 25.92 34.34 27.43 34.85 28.94L7.78 28.94L7.78 50.76C7.78 61.13 7.42 75.46 2.45 85.61C3.82 86.26 6.48 88.27 7.56 89.50C13.10 78.55 13.97 61.92 13.97 50.76L13.97 34.63ZM44.06 40.54L34.42 40.54C33.70 38.74 32.47 36.43 31.46 34.70L25.27 36.43C25.92 37.66 26.64 39.10 27.29 40.54L16.27 40.54L16.27 45.43L44.06 45.43ZM24.12 51.91L36.43 51.91L36.43 56.38L24.12 56.38ZM41.76 59.98L41.76 48.17L18.94 48.17L18.94 59.98ZM33.19 71.86C36.86 70.13 40.39 67.90 43.20 65.52L39.82 62.57L38.52 62.93L17.50 62.93L17.50 67.39L32.76 67.39C31.10 68.54 29.23 69.62 27.50 70.42L27.50 73.01C22.54 73.22 18.07 73.44 14.47 73.58L14.98 78.70L27.50 77.90L27.50 82.94C27.50 83.74 27.29 83.95 26.42 83.95C25.63 84.02 22.68 84.02 19.73 83.88C20.45 85.32 21.24 87.12 21.46 88.56C25.78 88.56 28.73 88.56 30.74 87.84C32.69 87.05 33.19 85.82 33.19 83.16L33.19 77.62L44.64 76.82L44.71 72.07C40.82 72.29 36.94 72.50 33.19 72.72ZM64.30 38.30L63.29 38.59L46.58 38.59L46.58 89.35L52.34 89.35L52.34 43.99L60.84 43.99C59.40 48.17 57.46 53.42 55.51 57.74C60.55 62.71 61.92 66.96 61.92 70.27C61.92 72.36 61.56 73.87 60.48 74.59C59.90 74.95 59.11 75.17 58.25 75.17C57.10 75.24 55.66 75.17 54.00 75.02C55.01 76.61 55.66 79.20 55.73 80.86C57.46 80.93 59.47 80.93 60.91 80.71C62.50 80.50 63.79 80.06 64.94 79.34C67.18 77.69 68.11 74.88 68.11 70.85C68.04 66.89 66.67 62.28 61.63 57.10C64.01 52.06 66.67 45.94 68.76 40.75Z"/></svg>
