<svg xmlns="http://www.w3.org/2000/svg" xmlns:xlink="http://www.w3.org/1999/xlink" width="72.00000000000001" height="106.56000000000002"><path fill="red" stroke="red" d="M57.31 34.27L57.31 38.59L47.66 38.59L47.66 34.27ZM57.31 48.24L47.66 48.24L47.66 43.85L57.31 43.85ZM41.40 38.59L24.05 38.59L24.05 43.85L41.40 43.85L41.40 48.24L27.94 48.24L27.94 53.50L41.40 53.50L41.40 57.96L27.43 57.96L27.43 63.00L41.40 63.00L41.40 67.82L24.55 67.82L24.55 73.22L41.40 73.22L41.40 79.34L47.66 79.34L47.66 73.22L66.82 73.22L66.82 67.82L47.66 67.82L47.66 63.00L64.37 63.00L64.37 57.96L47.66 57.96L47.66 53.50L63.29 53.50L63.29 43.85L67.75 43.85L67.75 38.59L63.29 38.59L63.29 29.02L47.66 29.02L47.66 23.40L41.40 23.40L41.40 29.02L28.37 29.02L28.37 34.27L41.40 34.27ZM20.95 47.23L19.73 47.45L16.13 47.45C19.22 41.26 22.82 33.70 25.70 27.36L4.68 27.36L4.68 33.19L16.42 33.19C13.32 40.25 9.50 48.02 6.48 53.28L18.00 53.28C17.21 58.97 15.98 64.01 14.40 68.33C12.74 65.59 11.45 62.42 10.30 58.61L5.33 60.48C7.06 66.10 9.14 70.63 11.66 74.23C9.29 78.62 6.26 82.01 2.74 84.46C4.18 85.39 6.62 87.62 7.56 88.92C10.80 86.40 13.61 83.23 15.98 79.20C23.47 85.97 33.55 87.62 46.30 87.62L66.67 87.62C67.03 85.82 68.18 82.94 69.12 81.50C64.94 81.58 49.82 81.58 46.44 81.58C35.06 81.58 25.56 80.14 18.72 73.73C21.67 66.96 23.62 58.46 24.70 48.24Z"/></svg>
