<svg xmlns="http://www.w3.org/2000/svg" xmlns:xlink="http://www.w3.org/1999/xlink" width="72.00000000000001" height="106.56000000000002"><path fill="red" stroke="red" d="M10.94 58.18C11.09 55.01 11.23 51.48 11.30 48.02L25.34 48.02L25.34 26.42L4.46 26.42L4.46 32.40L18.94 32.40L18.94 41.98L5.62 41.98C5.62 49.10 5.33 58.25 4.75 64.01L18.94 64.01C18.29 75.60 17.57 80.28 16.42 81.50C15.70 82.15 15.05 82.37 13.82 82.37C12.53 82.37 9.29 82.30 5.98 81.94C7.06 83.81 7.85 86.47 7.99 88.49C11.45 88.63 14.83 88.56 16.70 88.42C18.86 88.13 20.23 87.62 21.60 86.04C23.62 83.74 24.41 77.18 25.20 60.84C25.27 59.98 25.34 58.18 25.34 58.18ZM42.48 81.72C37.87 81.72 37.08 80.93 37.08 76.90L37.08 53.28L45.14 49.82L45.14 73.01L51.41 73.01L51.41 47.09L59.76 43.49C59.69 52.27 59.33 62.06 58.61 68.26L64.22 69.70C65.45 61.34 66.10 47.95 66.24 37.94L66.53 36.86L61.49 35.21L59.11 37.01L51.41 40.32L51.41 23.18L45.14 23.18L45.14 42.98L37.08 46.37L37.08 29.95L30.74 29.95L30.74 49.03L23.26 52.20L25.78 58.18L30.74 56.02L30.74 76.82C30.74 85.46 33.26 87.70 42.12 87.70L58.61 87.70C66.46 87.70 68.47 84.46 69.41 74.52C67.61 74.16 65.02 73.08 63.50 72.07C62.93 79.92 62.21 81.72 58.25 81.72Z"/></svg>
