<svg xmlns="http://www.w3.org/2000/svg" xmlns:xlink="http://www.w3.org/1999/xlink" width="72.00000000000001" height="106.56000000000002"><path fill="red" stroke="red" d="M28.94 36.43L28.94 64.15L31.97 64.15L29.45 66.53C33.62 69.70 39.10 74.16 41.69 76.82L46.22 72.14C43.85 69.98 39.38 66.46 35.64 63.79L35.64 58.32L64.58 58.32L64.58 52.78L35.64 52.78L35.64 47.16L62.71 47.16L62.71 41.83L35.64 41.83L35.64 36.43L66.53 36.43L66.53 30.67L23.98 30.67C24.77 28.73 25.56 26.64 26.28 24.55L19.44 22.90C16.56 32.62 11.02 41.76 4.32 47.38C5.90 48.53 8.64 50.83 9.86 52.06C14.11 48.02 18.00 42.70 21.24 36.43ZM10.37 86.62C12.67 81.79 14.90 74.52 16.49 69.34L10.66 66.96C9.14 72.22 6.70 79.20 4.10 83.74ZM31.46 82.22C27.00 82.22 26.14 81.86 26.14 79.78L26.14 67.61L19.51 67.61L19.51 79.85C19.51 86.40 21.89 88.20 30.96 88.20L46.58 88.20C53.86 88.20 55.87 86.11 56.81 77.26C54.94 76.90 52.20 75.89 50.76 74.88C50.33 81.29 49.75 82.22 46.08 82.22ZM53.78 67.82C56.81 73.80 60.48 81.72 62.14 86.40L68.98 84.17C67.10 79.56 63.14 71.78 60.12 66.10Z"/></svg>
