<svg xmlns="http://www.w3.org/2000/svg" xmlns:xlink="http://www.w3.org/1999/xlink" width="72.00000000000001" height="106.56000000000002"><path fill="red" stroke="red" d="M59.54 26.86C58.03 32.47 54.94 40.32 52.42 45.14L58.03 47.16C60.70 42.48 63.94 35.21 66.53 28.94ZM39.24 44.64C38.23 39.74 35.42 32.62 32.26 27.22L26.42 29.23C29.45 34.63 32.18 41.98 32.98 46.80ZM7.34 57.10C8.93 51.77 10.01 43.49 10.30 37.73L5.76 37.08C5.33 42.77 4.18 50.69 2.52 55.51ZM11.30 23.18L11.30 89.21L17.64 89.21L17.64 23.18ZM17.64 35.42C19.08 39.89 20.38 45.65 20.81 49.18L25.85 47.38C25.27 44.06 23.76 38.38 22.39 34.06ZM57.38 82.51C55.87 82.51 55.58 82.15 55.58 79.99L55.58 56.45L68.69 56.45L68.69 50.04L49.32 50.04L49.32 23.18L42.55 23.18L42.55 50.04L24.48 50.04L24.48 56.45L35.78 56.45C35.14 69.62 33.34 78.98 20.95 84.17C22.54 85.46 24.34 87.84 25.13 89.50C39.02 83.09 41.47 72.07 42.48 56.45L48.96 56.45L48.96 79.99C48.96 86.26 50.40 88.20 56.30 88.20L62.64 88.20C67.90 88.20 69.34 85.25 69.91 74.59C68.26 74.16 65.59 73.15 64.15 72.00C64.01 80.86 63.72 82.51 61.99 82.51Z"/></svg>
