<svg xmlns="http://www.w3.org/2000/svg" xmlns:xlink="http://www.w3.org/1999/xlink" width="72.00000000000001" height="106.56000000000002"><path fill="red" stroke="red" d="M7.78 57.31C9.72 51.98 10.87 43.78 11.02 37.66L6.19 37.01C5.83 42.91 4.68 50.83 2.81 55.44ZM27.00 48.60C26.50 45.00 24.48 39.24 22.32 34.85L18.07 36.29L18.07 23.18L11.88 23.18L11.88 89.21L18.07 89.21L18.07 37.30C19.87 41.69 21.53 47.23 21.96 50.69ZM45.00 65.95C44.64 61.56 43.63 53.78 42.55 47.88L37.80 48.53C38.38 45.65 38.95 42.70 39.38 39.60L67.82 39.60L67.82 33.62L40.32 33.62C40.61 30.38 40.97 27.07 41.33 23.62L35.06 23.04C34.85 26.64 34.49 30.17 34.06 33.62L25.34 33.62L25.34 39.60L33.26 39.60C31.03 54.22 27.07 66.46 19.80 74.81C21.17 75.82 23.76 78.19 24.62 79.42C30.96 71.57 34.99 61.20 37.73 48.96C38.66 55.01 39.53 62.57 39.67 67.10ZM62.28 48.24C60.91 54.07 58.75 60.70 56.38 65.16C57.67 65.74 60.12 66.67 61.13 67.39C63.43 62.86 65.88 55.66 67.46 49.39ZM49.32 41.76C48.96 64.80 48.24 77.33 30.67 84.02C32.04 85.18 33.84 87.48 34.49 89.06C43.63 85.25 48.67 79.92 51.48 72.50C54.58 79.78 59.11 85.54 65.23 88.85C66.17 87.26 67.97 85.03 69.41 83.81C61.63 80.35 56.45 72.65 53.78 63.43C54.72 57.31 55.01 50.11 55.15 41.76Z"/></svg>
