<svg xmlns="http://www.w3.org/2000/svg" xmlns:xlink="http://www.w3.org/1999/xlink" width="72.00000000000001" height="106.56000000000002"><path fill="red" stroke="red" d="M58.90 40.39L35.35 40.39L35.35 35.35L58.90 35.35ZM58.90 50.33L35.35 50.33L35.35 45.22L58.90 45.22ZM65.52 30.24L46.87 30.24C48.02 28.30 49.18 25.99 50.26 23.76L42.34 23.11C41.90 25.13 41.18 27.86 40.25 30.24L29.02 30.24L29.02 55.44L65.52 55.44ZM7.56 57.38C9.29 51.98 10.30 43.78 10.30 37.66L5.33 37.01C5.11 42.91 4.10 50.83 2.38 55.51ZM27.72 48.31C26.86 44.93 24.55 39.24 22.54 34.85L18.36 36.58L18.36 23.11L11.88 23.11L11.88 89.21L18.36 89.21L18.36 37.44C20.16 41.83 22.18 47.30 22.97 50.69ZM50.40 81.94L50.40 76.03L64.80 76.03L64.80 70.70L50.40 70.70L50.40 65.02L67.25 65.02L67.25 59.62L26.71 59.62L26.71 65.02L43.63 65.02L43.63 70.70L29.02 70.70L29.02 76.03L43.63 76.03L43.63 81.94L23.47 81.94L23.47 87.48L69.05 87.48L69.05 81.94Z"/></svg>
