<svg xmlns="http://www.w3.org/2000/svg" xmlns:xlink="http://www.w3.org/1999/xlink" width="72.00000000000001" height="106.56000000000002"><path fill="red" stroke="red" d="M59.90 44.71C62.21 44.71 64.94 44.64 66.10 44.28C65.88 42.84 65.66 40.61 65.52 38.88C64.15 39.24 61.34 39.38 59.62 39.38L48.60 39.38C46.66 39.38 46.30 38.66 46.30 36.58L46.30 33.62L63.50 33.62L63.50 28.51L46.30 28.51L46.30 23.62L40.10 23.62L40.10 36.50C40.10 42.48 41.76 44.71 48.31 44.71ZM59.83 69.05C65.09 69.05 66.82 67.54 67.54 61.49C65.81 61.13 63.36 60.19 62.06 59.33C61.78 63.07 61.27 63.65 59.18 63.65L49.68 63.65C46.80 63.65 46.30 63.43 46.30 61.56L46.30 57.24L63.58 57.24L63.58 52.06L46.30 52.06L46.30 46.87L40.10 46.87L40.10 61.63C40.10 67.46 41.83 69.05 49.03 69.05ZM14.04 50.90C17.57 52.34 22.25 54.43 24.62 55.73L27.22 52.13C24.62 50.83 20.02 49.03 16.56 47.81ZM13.75 46.37L27.58 46.37L27.58 55.30C22.18 56.74 17.14 58.18 13.39 59.04C13.68 56.88 13.75 54.72 13.75 52.78ZM33.34 41.54L8.14 41.54L8.14 52.63C8.14 57.24 7.78 62.78 4.18 66.96C5.47 67.54 7.92 69.48 8.93 70.56C11.45 67.61 12.60 63.79 13.25 60.05L14.90 63.94C18.79 62.57 23.11 60.84 27.58 59.26L27.58 64.15C27.58 64.87 27.29 65.09 26.50 65.09C25.78 65.16 23.26 65.16 20.66 65.09C21.24 66.38 22.10 68.18 22.39 69.62C26.35 69.62 29.16 69.62 30.96 68.83C32.83 67.97 33.34 66.82 33.34 64.15ZM43.42 76.39C41.76 74.23 38.59 70.63 36.14 67.97L31.54 70.92C33.98 73.66 37.01 77.47 38.59 79.70ZM37.87 38.02C36.00 34.85 31.97 29.81 28.73 26.21L24.12 28.66C25.27 29.88 26.42 31.32 27.58 32.69L13.97 33.70C17.06 31.18 20.30 28.08 22.97 24.84L16.92 22.90C13.82 27.29 9.22 31.46 7.78 32.54C6.34 33.62 5.11 34.42 3.96 34.56C4.68 36.14 5.54 38.88 5.90 40.03C7.56 39.38 10.22 39.02 30.89 37.15C31.75 38.52 32.47 39.74 33.05 40.68ZM9.72 87.19C12.10 83.59 13.90 78.05 15.26 73.58L9.50 71.42C8.42 75.60 6.34 80.93 3.89 84.24ZM30.89 82.66C26.78 82.66 26.06 82.37 26.06 80.57L26.06 72.43L19.58 72.43L19.58 80.64C19.58 86.47 21.82 88.06 30.38 88.06L44.86 88.06C51.62 88.06 53.50 86.04 54.22 77.54C52.56 77.18 49.97 76.32 48.53 75.31C48.17 81.72 47.59 82.66 44.28 82.66ZM55.73 72.86C57.67 77.11 59.98 82.73 60.98 86.11L67.10 84.02C66.10 80.78 63.50 75.24 61.49 71.21Z"/></svg>
