<svg xmlns="http://www.w3.org/2000/svg" xmlns:xlink="http://www.w3.org/1999/xlink" width="72.00000000000001" height="106.56000000000002"><path fill="red" stroke="red" d="M33.26 45.94L43.27 45.94L43.27 49.46L33.26 49.46ZM43.27 30.89L43.27 34.20L33.26 34.20L33.26 30.89ZM43.27 41.83L33.26 41.83L33.26 38.38L43.27 38.38ZM49.32 49.46L49.32 45.94L62.28 45.94L62.28 41.83L49.32 41.83L49.32 38.38L62.28 38.38L62.28 34.20L49.32 34.20L49.32 30.89L64.94 30.89L64.94 25.92L26.86 25.92L26.86 54.36L60.62 54.36C60.05 60.77 59.40 63.43 58.68 64.30C58.18 64.80 57.67 64.94 56.74 64.94C55.94 64.94 54.07 64.87 51.84 64.66C52.56 66.02 53.06 68.11 53.21 69.62C55.80 69.77 58.39 69.77 59.69 69.62C61.34 69.48 62.50 68.98 63.58 67.75C65.16 66.10 65.95 61.92 66.67 51.77C66.82 50.98 66.89 49.46 66.89 49.46ZM48.96 56.66C50.62 58.61 52.34 61.20 53.06 63.00L56.95 61.20C56.16 59.47 54.36 56.88 52.63 55.15ZM44.78 75.17C42.62 72.43 38.16 69.05 34.34 66.89L38.45 65.95C38.16 63.58 37.30 59.76 36.22 56.88L31.46 57.82C32.47 60.70 33.34 64.51 33.48 67.10L33.62 67.10L29.59 70.06C33.55 72.43 37.94 76.10 40.03 78.77ZM40.54 57.67C41.90 60.19 43.34 63.58 43.78 65.74L48.38 64.30C47.95 62.14 46.37 58.82 44.86 56.45ZM21.46 32.33C18.72 30.02 13.10 26.93 8.86 24.98L4.82 29.74C9.22 31.82 14.69 35.21 17.21 37.66ZM18.29 43.78C13.68 50.11 7.99 56.95 4.03 61.06L9.22 65.81C13.54 60.34 18.36 53.93 22.39 48.10ZM8.64 87.84C13.39 84.10 16.42 78.12 18.36 72.65L12.74 70.49C10.94 75.53 7.70 80.93 3.24 84.10ZM24.55 55.15C23.47 59.04 21.31 63.43 18.43 65.95L23.18 68.83C26.28 65.88 28.15 61.27 29.45 56.95ZM32.62 82.66C28.87 82.66 28.30 82.37 28.30 80.57L28.30 71.57L21.67 71.57L21.67 80.64C21.67 86.69 23.62 88.42 31.97 88.42L45.29 88.42C51.70 88.42 53.57 86.47 54.43 78.34C52.56 78.05 49.82 77.11 48.46 76.10C48.24 81.86 47.66 82.66 44.71 82.66ZM52.56 73.87C57.02 77.90 61.78 83.74 63.65 87.62L69.41 84.31C67.32 80.28 62.35 74.66 57.96 70.78Z"/></svg>
