<svg xmlns="http://www.w3.org/2000/svg" xmlns:xlink="http://www.w3.org/1999/xlink" width="72.00000000000001" height="106.56000000000002"><path fill="red" stroke="red" d="M56.30 22.68C51.55 25.99 42.91 29.74 35.35 32.33C36.00 33.41 36.79 35.06 37.15 36.14C45.07 33.48 54.07 30.02 60.41 26.42ZM41.26 56.45C39.74 59.04 37.44 61.85 35.06 64.01C33.70 62.06 31.03 59.33 28.87 57.38L25.27 59.90C27.65 62.06 30.38 65.09 31.68 67.10L34.78 64.58C35.93 65.38 37.66 67.03 38.38 67.90C40.97 65.38 44.06 61.34 46.01 58.03ZM30.46 70.34C32.90 73.15 35.86 77.11 37.15 79.63L42.19 76.54C40.75 74.16 37.66 70.34 35.06 67.68ZM8.57 86.33C11.74 82.87 14.26 77.40 16.06 72.86L10.66 70.70C9.14 75.02 6.34 80.21 3.10 83.52ZM9.29 57.24C7.49 60.34 4.82 63.50 2.02 65.81C3.24 66.53 5.26 67.90 6.05 68.69C8.78 66.10 11.95 62.14 14.04 58.68ZM12.46 47.95L27.65 47.95L27.65 51.19L12.46 51.19ZM27.65 29.59L27.65 32.76L12.46 32.76L12.46 29.59ZM27.65 38.81L12.46 38.81L12.46 35.86L27.65 35.86ZM12.46 41.90L27.65 41.90L27.65 45.00L12.46 45.00ZM22.54 69.34L22.54 55.66L36.00 55.66L36.00 51.19L33.05 51.19L33.05 25.27L7.20 25.27L7.20 51.19L3.82 51.19L3.82 55.66L17.21 55.66L17.21 69.34ZM31.39 82.08C27.50 82.08 26.86 81.79 26.86 79.92L26.86 70.56L20.23 70.56L20.23 79.99C20.23 85.97 22.39 87.70 30.74 87.70L44.14 87.70C51.05 87.70 52.92 85.39 53.71 75.67C51.98 75.31 49.32 74.38 47.88 73.30C47.52 81.00 47.02 82.08 43.63 82.08ZM63.22 52.78C64.08 53.93 64.80 54.94 65.30 55.87L69.19 53.57C67.61 50.83 64.22 46.87 61.20 44.21L57.53 46.22C58.46 47.09 59.33 48.10 60.19 49.03L48.02 49.90C53.71 46.66 59.54 42.62 64.94 38.16L60.41 35.28C58.75 36.86 56.88 38.38 55.15 39.82L46.51 40.39C49.54 38.38 52.63 36.00 55.51 33.41L50.90 31.10C47.59 34.78 42.62 38.23 41.26 39.10C39.82 40.03 38.59 40.54 37.44 40.68C38.09 42.05 38.81 44.35 39.02 45.36C39.96 45.00 41.47 44.71 49.39 43.99C46.73 45.86 44.42 47.30 43.27 47.88C40.97 49.25 39.10 50.18 37.44 50.33C38.02 51.70 38.81 54.29 39.02 55.30C40.03 54.86 41.54 54.65 48.74 54.00L48.74 69.48L54.29 69.48L54.29 53.50ZM55.51 72.00C57.67 76.25 59.98 82.01 60.91 85.39L67.18 83.38C66.17 79.85 63.58 74.38 61.34 70.27ZM56.38 58.25C59.47 60.98 63.00 64.80 64.58 67.25L68.62 64.30C66.89 61.85 63.22 58.18 60.19 55.51Z"/></svg>
