<svg xmlns="http://www.w3.org/2000/svg" xmlns:xlink="http://www.w3.org/1999/xlink" width="72.00000000000001" height="106.56000000000002"><path fill="red" stroke="red" d="M26.42 54.14L19.01 56.09L19.01 43.42L26.57 43.42L26.57 37.15L19.01 37.15L19.01 23.11L12.46 23.11L12.46 37.22L3.60 37.22L3.60 43.42L12.46 43.42L12.46 57.89C8.86 58.75 5.54 59.54 2.81 60.19L4.54 66.60C7.06 65.95 9.65 65.23 12.46 64.44L12.46 81.50C12.46 82.51 12.10 82.87 11.02 82.87C10.15 82.94 7.13 82.94 3.96 82.87C4.82 84.53 5.69 87.34 5.98 88.92C10.87 88.99 14.11 88.78 16.20 87.77C18.29 86.76 19.01 84.96 19.01 81.50L19.01 62.57C21.74 61.78 24.48 60.98 27.22 60.19ZM57.53 56.02C55.08 61.78 51.48 66.74 47.02 70.85C42.84 66.60 39.67 61.63 37.37 56.02ZM61.70 49.68L60.55 49.90L50.33 49.90L50.33 40.03L66.96 40.03L66.96 33.91L50.33 33.91L50.33 23.11L43.70 23.11L43.70 33.91L27.58 33.91L27.58 40.03L43.70 40.03L43.70 49.90L28.87 49.90L28.87 56.02L31.75 56.02L30.82 56.30C33.55 63.50 37.22 69.70 41.98 74.95C36.43 78.70 30.17 81.43 23.47 83.09C24.70 84.53 26.35 87.41 27.07 89.14C34.27 87.05 40.97 83.88 46.73 79.56C51.98 83.95 58.10 87.19 65.38 89.28C66.31 87.55 68.18 84.89 69.70 83.59C62.86 81.79 56.95 78.98 51.98 75.24C58.32 69.19 63.14 61.34 66.02 51.41Z"/></svg>
