<svg xmlns="http://www.w3.org/2000/svg" xmlns:xlink="http://www.w3.org/1999/xlink" width="72.00000000000001" height="106.56000000000002"><path fill="red" stroke="red" d="M58.97 37.15C58.90 56.30 58.75 63.65 57.53 65.09C56.88 65.95 56.23 66.10 55.15 66.10C54.14 66.10 52.27 66.10 50.04 65.95L52.85 65.95L52.85 43.85L33.26 43.85C34.78 41.76 36.14 39.53 37.44 37.15ZM36.58 49.32L46.94 49.32L46.94 60.48L36.58 60.48ZM41.83 81.94C37.30 81.94 36.58 81.36 36.58 78.19L36.58 65.95L46.80 65.95C47.88 67.61 48.53 70.13 48.67 71.71C52.20 71.86 55.80 71.93 57.89 71.71C60.26 71.42 61.85 70.78 63.29 68.83C65.02 66.31 65.16 58.18 65.30 34.06L65.30 31.10L40.46 31.10C41.40 29.09 42.19 26.93 42.98 24.84L36.94 23.04C34.34 30.67 30.10 37.94 25.20 43.06L25.20 37.15L17.86 37.15L17.86 23.26L11.74 23.26L11.74 37.15L3.24 37.15L3.24 43.34L11.74 43.34L11.74 57.67C8.14 58.75 4.90 59.54 2.23 60.26L3.74 66.74L11.74 64.30L11.74 81.14C11.74 82.15 11.38 82.44 10.44 82.44C9.65 82.44 6.98 82.44 4.10 82.37C4.97 84.10 5.76 86.98 5.98 88.56C10.44 88.56 13.32 88.34 15.26 87.26C17.21 86.26 17.86 84.46 17.86 81.14L17.86 62.35C20.59 61.56 23.40 60.62 26.06 59.76L25.20 53.71C22.75 54.43 20.23 55.22 17.86 55.87L17.86 43.34L24.91 43.34C24.48 43.85 24.05 44.28 23.62 44.71C24.70 46.22 26.50 49.68 27.07 51.19C28.22 50.11 29.23 48.89 30.31 47.74L30.31 78.19C30.31 85.82 32.69 87.77 41.54 87.77L57.60 87.77C65.02 87.77 66.96 85.10 67.90 75.96C66.17 75.67 63.58 74.66 62.14 73.58C61.56 80.57 60.91 81.94 57.17 81.94Z"/></svg>
