<svg xmlns="http://www.w3.org/2000/svg" xmlns:xlink="http://www.w3.org/1999/xlink" width="72.00000000000001" height="106.56000000000002"><path fill="red" stroke="red" d="M25.06 53.78L18.36 55.80L18.36 43.34L25.78 43.34L25.78 37.15L18.36 37.15L18.36 23.26L12.02 23.26L12.02 37.15L3.24 37.15L3.24 43.34L12.02 43.34L12.02 57.67C8.35 58.68 4.97 59.62 2.23 60.26L3.82 66.74L12.02 64.30L12.02 81.14C12.02 82.15 11.59 82.44 10.73 82.44C9.86 82.44 7.13 82.44 4.18 82.37C5.04 84.10 5.90 86.98 6.12 88.56C10.73 88.56 13.68 88.34 15.70 87.26C17.64 86.26 18.36 84.46 18.36 81.14L18.36 62.28C20.88 61.49 23.47 60.77 25.99 59.90ZM61.34 56.30L60.26 56.66L30.10 56.66L30.10 62.42L56.52 62.42C53.35 66.82 48.96 71.78 45.14 75.24C42.77 73.15 40.46 71.21 38.38 69.55L33.98 73.30C39.67 78.19 47.52 85.32 51.26 89.50L56.16 85.03C54.58 83.45 52.34 81.43 50.04 79.42C55.44 73.94 62.06 66.10 65.74 59.18ZM36.79 44.71C40.39 41.04 43.56 36.86 46.22 32.54C49.25 36.79 52.92 41.04 56.59 44.71ZM44.28 23.04C40.32 31.97 32.54 41.47 23.54 47.52C25.06 48.53 27.22 50.83 28.22 52.20C30.82 50.26 33.34 48.17 35.64 45.86L35.64 50.40L57.67 50.40L57.67 45.72C60.12 48.10 62.64 50.18 64.94 51.84C66.02 50.18 68.11 47.81 69.62 46.58C62.64 42.48 54.22 34.63 49.18 27.43C49.61 26.64 49.97 25.85 50.33 25.13Z"/></svg>
