<svg xmlns="http://www.w3.org/2000/svg" xmlns:xlink="http://www.w3.org/1999/xlink" width="72.00000000000001" height="106.56000000000002"><path fill="red" stroke="red" d="M24.62 59.26L23.69 53.14C21.60 53.78 19.44 54.43 17.35 55.08L17.35 43.27L23.54 43.27L23.54 37.08L17.35 37.08L17.35 23.11L11.38 23.11L11.38 37.08L3.24 37.08L3.24 43.27L11.38 43.27L11.38 56.81C7.92 57.82 4.68 58.75 2.09 59.40L3.67 65.81L11.38 63.43L11.38 81.94C11.38 82.87 11.02 83.16 10.08 83.16C9.29 83.23 6.62 83.23 3.74 83.09C4.61 84.89 5.33 87.62 5.54 89.21C10.01 89.21 12.96 88.99 14.83 88.06C16.70 86.98 17.35 85.18 17.35 81.94L17.35 61.56ZM30.96 31.03L40.03 31.03L40.03 45.14L30.96 45.14ZM34.92 57.89C35.14 55.51 35.21 53.06 35.35 50.62L45.86 50.62L45.86 25.42L25.27 25.42L25.27 50.62L29.59 50.62C29.16 64.94 27.65 77.83 18.72 84.96C20.16 85.97 21.96 87.98 22.82 89.35C29.95 83.38 32.98 74.30 34.34 63.65L40.32 63.65C39.74 76.82 39.02 81.65 38.09 83.02C37.58 83.74 37.08 83.81 36.14 83.81C35.21 83.81 33.34 83.81 31.03 83.59C31.97 85.03 32.47 87.41 32.54 89.06C34.99 89.06 37.44 89.06 38.81 88.92C40.54 88.70 41.69 88.20 42.84 86.76C44.57 84.67 45.22 78.05 46.01 60.34C46.01 59.62 46.08 57.89 46.08 57.89ZM55.08 30.38L49.61 30.38L49.61 73.73L55.08 73.73ZM60.91 23.04L60.91 82.01C60.91 83.09 60.48 83.38 59.47 83.45C58.54 83.52 55.37 83.52 51.91 83.38C52.70 84.96 53.50 87.62 53.71 89.06C58.82 89.14 61.99 88.99 64.01 88.06C65.95 87.05 66.74 85.39 66.74 82.01L66.74 23.04Z"/></svg>
