<svg xmlns="http://www.w3.org/2000/svg" xmlns:xlink="http://www.w3.org/1999/xlink" width="72.00000000000001" height="106.56000000000002"><path fill="red" stroke="red" d="M57.89 39.17L38.95 39.17L38.95 30.89L57.89 30.89ZM64.44 25.49L32.69 25.49L32.69 44.57L64.44 44.57ZM27.86 53.57C25.20 54.36 22.39 55.15 19.73 55.87L19.73 43.42L28.58 43.42L28.58 37.22L19.73 37.22L19.73 23.18L13.18 23.18L13.18 37.22L3.74 37.22L3.74 43.42L13.18 43.42L13.18 57.60C9.29 58.61 5.76 59.54 2.81 60.19L4.61 66.60L13.18 64.22L13.18 81.72C13.18 82.73 12.82 83.09 11.81 83.09C10.94 83.16 7.85 83.16 4.75 83.02C5.54 84.74 6.48 87.48 6.70 89.06C11.59 89.14 14.83 88.92 16.92 87.91C19.01 86.90 19.73 85.18 19.73 81.65L19.73 62.35C22.75 61.49 25.78 60.70 28.73 59.83ZM38.59 63.00C44.21 64.15 51.41 66.46 55.15 68.40L57.82 63.29C53.93 61.34 46.73 59.33 41.11 58.32ZM37.58 54.94L59.76 54.94L59.76 69.12C51.19 70.99 42.62 72.86 36.65 73.87C37.37 69.70 37.58 65.52 37.58 61.99ZM66.53 49.25L31.03 49.25L31.03 61.92C31.03 69.12 30.38 78.91 24.70 85.90C26.28 86.62 29.16 88.63 30.24 89.78C33.84 85.32 35.78 79.63 36.65 73.94L38.95 80.21C44.93 78.70 52.42 76.75 59.76 74.81L59.76 81.86C59.76 82.80 59.40 83.09 58.39 83.09C57.46 83.16 54.07 83.16 50.76 83.02C51.55 84.74 52.49 87.41 52.70 89.21C57.82 89.21 61.34 89.14 63.58 88.13C65.81 87.12 66.53 85.32 66.53 81.94Z"/></svg>
