<svg xmlns="http://www.w3.org/2000/svg" xmlns:xlink="http://www.w3.org/1999/xlink" width="72.00000000000001" height="106.56000000000002"><path fill="red" stroke="red" d="M25.99 59.90L25.27 53.64C22.90 54.36 20.52 55.15 18.22 55.80L18.22 43.20L25.56 43.20L25.56 37.01L18.22 37.01L18.22 23.18L11.59 23.18L11.59 37.01L3.31 37.01L3.31 43.20L11.59 43.20L11.59 57.74C8.28 58.68 5.33 59.54 2.74 60.12L4.39 66.60C6.55 65.95 9.07 65.16 11.59 64.37L11.59 81.36C11.59 82.44 11.16 82.73 10.15 82.80C9.29 82.80 6.26 82.80 3.10 82.73C3.96 84.38 4.82 87.19 5.11 88.85C10.01 88.92 13.25 88.70 15.41 87.70C17.42 86.69 18.22 84.89 18.22 81.36L18.22 62.35ZM33.91 55.66L58.03 55.66L58.03 61.27L33.91 61.27ZM33.91 45.22L58.03 45.22L58.03 50.69L33.91 50.69ZM68.90 71.93L49.39 71.93L49.39 66.53L64.66 66.53L64.66 39.96L49.32 39.96L49.32 34.49L67.97 34.49L67.97 28.80L49.32 28.80L49.32 23.18L42.77 23.18L42.77 39.96L27.58 39.96L27.58 66.53L42.77 66.53L42.77 71.93L23.62 71.93L23.62 77.83L42.77 77.83L42.77 89.28L49.39 89.28L49.39 77.83L68.90 77.83Z"/></svg>
