<svg xmlns="http://www.w3.org/2000/svg" xmlns:xlink="http://www.w3.org/1999/xlink" width="72.00000000000001" height="106.56000000000002"><path fill="red" stroke="red" d="M25.27 54.36L18.50 56.16L18.50 43.42L25.20 43.42L25.20 37.22L18.50 37.22L18.50 23.18L12.10 23.18L12.10 37.22L3.46 37.22L3.46 43.42L12.10 43.42L12.10 57.89C8.57 58.75 5.33 59.54 2.59 60.19L4.39 66.60C6.77 65.95 9.36 65.30 12.10 64.51L12.10 81.22C12.10 82.30 11.74 82.58 10.73 82.66C9.86 82.66 6.77 82.66 3.67 82.58C4.46 84.17 5.33 86.90 5.62 88.56C10.51 88.56 13.68 88.34 15.70 87.34C17.71 86.40 18.50 84.67 18.50 81.29L18.50 62.64C21.02 61.92 23.62 61.20 26.06 60.48ZM58.03 62.78L58.03 69.12L38.74 69.12L38.74 62.78ZM38.74 80.78L38.74 74.45L58.03 74.45L58.03 80.78ZM32.26 89.14L38.74 89.14L38.74 86.18L58.03 86.18L58.03 88.99L64.80 88.99L64.80 57.24L32.26 57.24ZM42.91 37.94L52.70 37.94L52.70 46.22L42.91 46.22ZM59.18 46.22L59.18 37.94L67.54 37.94L67.54 32.04L59.18 32.04L59.18 23.18L52.70 23.18L52.70 32.04L42.91 32.04L42.91 23.18L36.50 23.18L36.50 32.04L28.51 32.04L28.51 37.94L36.50 37.94L36.50 46.22L26.71 46.22L26.71 52.20L68.90 52.20L68.90 46.22Z"/></svg>
