<svg xmlns="http://www.w3.org/2000/svg" xmlns:xlink="http://www.w3.org/1999/xlink" width="72.00000000000001" height="106.56000000000002"><path fill="red" stroke="red" d="M24.26 53.21L17.71 55.15L17.71 43.27L24.91 43.27L24.91 37.08L17.71 37.08L17.71 23.18L11.59 23.18L11.59 37.08L3.24 37.08L3.24 43.27L11.59 43.27L11.59 56.95C8.06 57.96 4.82 58.90 2.23 59.54L3.74 66.02C6.12 65.23 8.78 64.44 11.59 63.58L11.59 81.79C11.59 82.80 11.23 83.02 10.30 83.02C9.50 83.09 6.84 83.09 3.96 83.02C4.82 84.74 5.62 87.62 5.76 89.21C10.37 89.21 13.18 88.99 15.12 87.98C17.06 86.90 17.71 85.10 17.71 81.79L17.71 61.70C20.16 60.91 22.68 60.12 25.13 59.33ZM68.26 58.97L68.26 53.35L50.11 53.35L50.11 48.24L65.23 48.24L65.23 42.91L50.11 42.91L50.11 37.94L66.67 37.94L66.67 32.40L58.82 32.40C60.19 30.10 61.63 27.36 62.93 24.70L56.81 23.11C55.87 25.78 54.22 29.66 52.70 32.40L41.98 32.40L42.70 32.11C41.90 29.81 39.96 26.06 38.23 23.40L32.83 25.13C34.13 27.29 35.50 30.10 36.36 32.40L27.58 32.40L27.58 37.94L43.85 37.94L43.85 42.91L29.09 42.91L29.09 48.24L43.85 48.24L43.85 53.35L25.63 53.35L25.63 58.97L32.69 58.97C30.74 69.19 27.00 77.90 20.66 83.38C22.10 84.31 24.70 86.40 25.70 87.48C32.47 81.00 36.79 71.06 39.02 58.97ZM54.58 81.86L54.58 70.34L65.59 70.34L65.59 64.73L38.66 64.73L38.66 70.34L48.31 70.34L48.31 81.86L34.06 81.86L34.06 87.48L68.62 87.48L68.62 81.86Z"/></svg>
