<svg xmlns="http://www.w3.org/2000/svg" xmlns:xlink="http://www.w3.org/1999/xlink" width="72.00000000000001" height="106.56000000000002"><path fill="red" stroke="red" d="M24.55 52.99L17.71 55.01L17.71 43.34L25.06 43.34L25.06 37.15L17.71 37.15L17.71 23.18L11.59 23.18L11.59 37.15L3.24 37.15L3.24 43.34L11.59 43.34L11.59 56.81C8.06 57.89 4.82 58.68 2.23 59.40L3.74 65.88C6.19 65.16 8.86 64.37 11.59 63.50L11.59 81.79C11.59 82.80 11.23 83.02 10.30 83.02C9.50 83.09 6.84 83.09 3.96 83.02C4.82 84.74 5.62 87.62 5.76 89.21C10.37 89.21 13.18 88.99 15.12 87.91C17.06 86.90 17.71 85.10 17.71 81.79L17.71 61.63C20.23 60.77 22.90 59.98 25.42 59.11ZM56.95 34.13L56.95 38.30L34.20 38.30L34.20 34.13ZM34.20 47.09L34.20 42.91L56.95 42.91L56.95 47.09ZM68.98 60.26L68.98 55.58L34.20 55.58L34.20 51.91L63.14 51.91L63.14 29.30L46.94 29.30C47.66 27.72 48.38 25.99 49.10 24.19L41.98 23.04C41.54 24.84 40.90 27.22 40.25 29.30L28.08 29.30L28.08 69.19L61.06 69.19C60.55 78.48 60.05 82.15 59.18 83.16C58.68 83.74 58.03 83.88 56.95 83.88C56.45 83.88 55.58 83.88 54.50 83.88L54.50 71.21L49.10 71.21L49.10 78.70L41.98 78.70L41.98 69.41L36.43 69.41L36.43 78.70L29.16 78.70L29.16 71.28L23.76 71.28L23.76 83.88L49.10 83.88L49.10 85.68L51.12 85.68C51.48 86.90 51.77 88.06 51.84 89.14C55.08 89.28 58.32 89.21 59.98 89.06C61.99 88.85 63.29 88.34 64.51 86.98C66.17 85.03 66.82 79.78 67.32 66.74C67.39 65.95 67.39 64.30 67.39 64.30L34.20 64.30L34.20 60.26Z"/></svg>
