<svg xmlns="http://www.w3.org/2000/svg" xmlns:xlink="http://www.w3.org/1999/xlink" width="72.00000000000001" height="106.56000000000002"><path fill="red" stroke="red" d="M68.26 34.20L68.26 28.66L42.62 28.66C41.83 26.71 40.90 24.41 39.96 22.54L33.34 24.12C33.91 25.49 34.56 27.07 35.14 28.66L8.14 28.66L8.14 51.05C8.14 61.34 7.63 75.53 2.23 85.39C3.53 86.11 6.26 88.20 7.27 89.50C13.39 78.77 14.33 62.21 14.33 51.05L14.33 34.20ZM55.30 55.37L55.30 43.34L65.95 43.34L65.95 38.38L55.30 38.38L55.30 35.14L50.04 35.14L50.04 38.38L41.11 38.38L41.11 43.34L50.04 43.34L50.04 55.37ZM47.09 44.93L43.20 44.93L43.20 47.52C43.20 49.68 42.77 52.63 40.75 54.22C41.69 54.72 43.42 56.09 44.14 56.95C46.58 54.36 47.09 50.83 47.09 47.66ZM64.58 55.66C65.59 55.66 66.89 55.58 67.39 55.44C67.25 54.43 67.25 53.35 67.18 52.34C66.53 52.56 65.09 52.63 64.44 52.63L62.78 52.63C61.99 52.63 61.85 52.27 61.85 51.05L61.85 44.93L57.82 44.93L57.82 51.05C57.82 54.22 58.39 55.66 61.70 55.66ZM30.82 57.10L30.82 43.34L39.17 43.34L39.17 38.38L30.82 38.38L30.82 35.14L25.63 35.14L25.63 38.38L17.06 38.38L17.06 43.34L25.63 43.34L25.63 57.10ZM22.54 45.00L18.58 45.00L18.58 47.66C18.58 49.97 18.07 53.06 15.05 54.86C16.06 55.37 17.71 56.66 18.43 57.60C21.96 55.01 22.54 51.19 22.54 47.88ZM38.23 55.22C39.02 55.22 40.10 55.15 40.61 55.01C40.54 54.00 40.54 52.99 40.46 52.13C39.74 52.27 38.66 52.34 38.09 52.34L38.02 52.34L37.94 52.34L37.87 52.34C37.22 52.34 37.08 51.98 37.08 50.83L37.08 45.14L33.26 45.14L33.26 50.76C33.26 53.78 33.77 55.22 36.79 55.22ZM68.54 74.30L45.00 74.30L45.00 70.42L65.23 70.42L65.23 65.95L45.00 65.95L45.00 61.92C51.41 61.34 57.38 60.62 62.21 59.62L58.10 55.94C49.46 57.67 33.05 58.68 19.44 58.97C19.94 60.05 20.59 61.85 20.74 63.00C26.35 62.93 32.47 62.71 38.45 62.35L38.45 65.95L18.43 65.95L18.43 70.42L38.45 70.42L38.45 74.30L14.76 74.30L14.76 78.77L38.45 78.77L38.45 82.94C38.45 83.95 38.02 84.24 36.79 84.31C35.64 84.31 30.89 84.31 26.64 84.17C27.50 85.68 28.37 87.77 28.73 89.35C34.85 89.35 38.88 89.35 41.54 88.56C44.14 87.77 45.00 86.40 45.00 83.02L45.00 78.77L68.47 78.77Z"/></svg>
