<svg xmlns="http://www.w3.org/2000/svg" xmlns:xlink="http://www.w3.org/1999/xlink" width="72.00000000000001" height="106.56000000000002"><path fill="red" stroke="red" d="M34.92 29.88L57.82 29.88L57.82 46.66L63.72 46.66L63.72 25.06L29.23 25.06L29.23 46.66L34.92 46.66ZM55.01 33.48L37.80 33.48L37.80 37.66L55.01 37.66ZM37.80 45.29L55.01 45.29L55.01 41.11L37.80 41.11ZM23.11 59.98L22.10 53.93L16.99 55.66L16.99 43.34L22.75 43.34L22.75 37.15L16.99 37.15L16.99 23.18L10.80 23.18L10.80 37.15L3.60 37.15L3.60 43.34L10.80 43.34L10.80 57.74C7.78 58.82 5.04 59.69 2.74 60.41L4.46 66.82L10.80 64.51L10.80 81.65C10.80 82.58 10.51 82.80 9.65 82.80C8.86 82.87 6.34 82.87 3.67 82.73C4.54 84.53 5.33 87.34 5.47 88.99C9.79 88.99 12.53 88.78 14.47 87.70C16.34 86.69 16.99 84.82 16.99 81.58L16.99 62.21ZM40.18 59.11L32.33 59.11L32.33 54.86L40.18 54.86ZM32.33 77.04L32.33 72.29L40.18 72.29L40.18 75.82ZM40.18 67.90L32.33 67.90L32.33 63.50L40.18 63.50ZM69.12 54.86L69.12 49.61L23.40 49.61L23.40 54.86L27.29 54.86L27.29 77.76C25.56 77.98 23.98 78.19 22.54 78.41L23.47 84.10C28.44 83.23 34.27 82.08 40.18 81.07L40.18 89.21L45.29 89.21L45.29 54.86ZM60.98 63.65C60.19 66.96 59.04 69.91 57.60 72.50C56.02 69.77 54.65 66.82 53.71 63.65ZM64.01 58.32L62.93 58.46L47.09 58.46L47.09 63.65L48.46 63.65C49.90 68.76 51.84 73.37 54.36 77.47C51.84 80.57 48.74 82.87 45.29 84.46C46.44 85.61 47.81 87.77 48.53 89.14C52.06 87.41 55.15 85.10 57.74 82.15C60.26 85.03 63.07 87.34 66.24 89.14C67.10 87.62 68.76 85.54 70.06 84.46C66.67 82.80 63.72 80.50 61.20 77.54C64.22 72.72 66.31 66.60 67.46 59.04Z"/></svg>
