<svg xmlns="http://www.w3.org/2000/svg" xmlns:xlink="http://www.w3.org/1999/xlink" width="72.00000000000001" height="106.56000000000002"><path fill="red" stroke="red" d="M33.26 26.50C31.39 31.25 28.73 36.86 26.42 40.68C27.94 41.18 30.60 42.12 31.82 42.84C33.91 39.02 36.79 32.90 38.88 28.08ZM15.91 40.18C14.69 36.72 12.10 31.18 9.86 26.93L4.61 28.80C6.77 33.12 9.22 38.88 10.22 42.41ZM14.04 54.58C13.54 61.34 12.74 68.69 11.16 73.73C12.17 74.23 13.90 75.10 14.62 75.60C16.13 70.42 17.35 62.57 18.00 55.37ZM37.58 55.94C39.02 57.24 40.75 58.97 41.54 59.98C42.84 58.10 43.92 55.87 45.00 53.64C46.44 60.12 48.24 66.02 50.62 71.28C47.38 76.39 43.13 80.57 37.51 83.74C37.58 83.23 37.58 82.73 37.58 82.08ZM59.11 42.48C58.10 50.90 56.59 58.25 54.00 64.44C51.62 58.25 49.90 51.19 48.74 43.63L49.10 42.48ZM69.05 42.48L69.05 36.29L50.69 36.29C51.62 32.33 52.34 28.15 52.99 23.98L46.66 23.11C45.07 34.85 42.34 46.30 37.58 54.00L37.58 43.99L24.48 43.99L24.48 23.26L18.29 23.26L18.29 43.99L5.47 43.99L5.47 89.06L10.87 89.06L10.87 49.46L19.01 49.46L19.01 88.27L23.83 88.27L23.83 49.46L32.11 49.46L32.11 81.94C32.11 82.66 31.82 82.80 31.18 82.87C30.60 82.87 28.58 82.87 26.50 82.80C27.22 84.31 27.94 86.62 28.08 88.13C31.54 88.13 33.84 88.06 35.50 87.12C36.50 86.47 37.15 85.61 37.37 84.31C38.59 85.61 40.25 88.13 40.75 89.35C46.22 86.04 50.40 82.08 53.86 77.40C56.88 82.15 60.48 86.18 64.94 89.14C65.95 87.41 67.82 85.18 69.19 84.02C64.30 81.22 60.48 76.90 57.38 71.57C61.49 63.72 63.86 54.14 65.23 42.48ZM31.39 72.86C30.82 68.47 29.38 60.62 27.79 54.58L24.41 55.37C25.78 61.49 27.22 69.48 27.72 74.16Z"/></svg>
