<svg xmlns="http://www.w3.org/2000/svg" xmlns:xlink="http://www.w3.org/1999/xlink" width="72.00000000000001" height="106.56000000000002"><path fill="red" stroke="red" d="M48.02 27.58L30.10 27.58L30.10 33.41L48.02 33.41ZM21.60 32.47C20.23 29.81 17.28 25.99 14.47 23.11L9.22 26.42C11.95 29.30 14.90 33.41 16.06 36.22ZM26.35 74.09C25.06 70.85 22.82 67.03 20.16 63.07C21.82 56.88 22.97 50.04 23.83 42.55L27.07 42.55L27.07 36.36L2.95 36.36L2.95 42.55L17.64 42.55C17.06 47.52 16.34 52.27 15.48 56.74C12.89 53.42 10.08 50.18 7.27 47.30L3.24 51.62C6.77 55.37 10.37 59.90 13.54 64.30C11.02 72.50 7.42 79.27 2.02 84.17C3.46 85.18 5.98 87.48 6.91 88.63C11.59 83.81 15.12 77.83 17.71 70.85C19.44 73.73 20.88 76.61 21.82 78.98ZM44.06 77.69L44.06 64.37L50.33 64.37L50.33 58.46L44.06 58.46L44.06 48.46L38.59 48.46L38.59 78.62L33.84 79.42L33.84 53.50L28.73 53.50L28.73 80.21L24.12 80.86L25.20 87.12C32.62 85.68 42.70 83.88 52.34 82.08L52.06 76.39ZM69.19 45.86L69.19 39.60L56.95 39.60C56.88 35.78 56.88 31.75 56.88 27.58C59.76 30.82 62.71 35.06 63.79 37.87L69.05 35.35C67.68 32.18 64.44 27.94 61.34 24.84L56.88 26.93L56.88 23.11L50.69 23.11C50.76 28.94 50.83 34.42 50.90 39.60L27.65 39.60L27.65 45.86L51.12 45.86C51.98 72.29 54.58 88.92 63.00 89.21C65.59 89.21 68.54 86.54 70.06 75.02C69.05 74.52 66.31 72.79 65.38 71.42C64.94 77.40 64.30 81.00 63.22 80.93C59.69 80.71 57.74 66.38 57.10 45.86Z"/></svg>
