<svg xmlns="http://www.w3.org/2000/svg" xmlns:xlink="http://www.w3.org/1999/xlink" width="72.00000000000001" height="106.56000000000002"><path fill="red" stroke="red" d="M60.55 36.22L54.65 36.22L54.65 30.17L60.55 30.17ZM49.68 36.22L43.92 36.22L43.92 30.17L49.68 30.17ZM38.95 36.22L33.34 36.22L33.34 30.17L38.95 30.17ZM66.46 25.42L27.65 25.42L27.65 40.90L66.46 40.90ZM45.43 50.33L54.50 50.33C52.85 51.84 51.19 53.42 49.39 54.79L45.43 54.79ZM57.89 73.30L40.39 73.30L40.39 69.05L57.89 69.05ZM40.39 82.15L40.39 77.62L57.89 77.62L57.89 82.15ZM11.30 69.12L11.30 54.07L18.50 54.07L18.50 69.12ZM18.50 33.84L18.50 48.24L11.30 48.24L11.30 33.84ZM68.90 60.05L68.90 54.79L58.03 54.79C61.49 51.48 64.66 47.88 67.25 43.92L61.63 41.69C60.05 44.14 58.10 46.58 56.02 48.82L56.02 45.22L45.43 45.22L45.43 41.62L39.02 41.62L39.02 45.22L28.73 45.22L28.73 50.33L39.02 50.33L39.02 54.79L25.92 54.79L25.92 60.05L41.90 60.05C39.46 61.56 36.94 62.93 34.34 64.22C31.18 65.81 27.86 67.10 24.48 68.33L24.48 28.01L5.40 28.01L5.40 80.57L11.30 80.57L11.30 75.02L24.48 75.02L24.48 70.27C25.49 71.50 26.57 73.08 27.14 73.87C29.52 73.01 31.97 71.93 34.34 70.78L34.34 89.06L40.39 89.06L40.39 86.98L57.89 86.98L57.89 88.99L64.22 88.99L64.22 64.22L46.08 64.22C48.17 62.86 50.04 61.56 51.98 60.05Z"/></svg>
