<svg xmlns="http://www.w3.org/2000/svg" xmlns:xlink="http://www.w3.org/1999/xlink" width="72.00000000000001" height="106.56000000000002"><path fill="red" stroke="red" d="M68.40 25.49L47.09 25.49L47.09 30.10L68.40 30.10ZM44.50 25.49L24.12 25.49L24.12 30.10L44.50 30.10ZM16.92 33.98L16.92 48.74L10.73 48.74L10.73 33.98ZM10.73 69.55L10.73 54.50L16.92 54.50L16.92 69.55ZM22.39 75.46L22.39 28.15L5.40 28.15L5.40 81.22L10.73 81.22L10.73 75.46ZM37.30 60.70L37.30 65.38L30.74 65.38C30.89 63.79 30.96 62.14 30.96 60.70ZM37.30 52.78L37.30 56.52L30.96 56.52L30.96 52.78ZM49.18 56.52L42.77 56.52L42.77 52.78L49.18 52.78ZM49.18 65.38L42.77 65.38L42.77 60.70L49.18 60.70ZM61.13 60.70L61.13 65.38L54.65 65.38L54.65 60.70ZM57.31 83.30C55.51 83.30 55.30 83.09 55.30 81.58L55.30 77.18L66.60 77.18L66.60 73.01L55.30 73.01L55.30 69.55L66.82 69.55L66.82 56.52L54.65 56.52L54.65 52.78L68.69 52.78L68.69 48.31L49.82 48.31C49.54 47.52 49.18 46.66 48.74 45.72L52.70 45.72L52.70 36.79L61.92 36.79L61.92 45.58L66.89 45.58L66.89 32.98L48.02 32.98L48.02 44.06L47.30 42.62L43.63 43.85L43.63 32.98L25.63 32.98L25.63 45.72L30.24 45.72L30.24 36.79L38.81 36.79L38.81 45.58L42.48 45.58C42.84 46.51 43.20 47.38 43.56 48.31L25.34 48.31L25.34 59.11C25.34 66.89 24.70 77.90 19.37 85.97C20.74 86.40 23.40 87.98 24.34 88.85C27.94 83.38 29.66 76.25 30.46 69.55L32.98 69.55L32.98 81.07C32.98 83.38 31.90 83.74 30.89 84.10C31.61 85.54 32.33 88.20 32.54 89.78C33.77 89.06 35.86 88.42 47.45 86.18C47.30 85.10 47.09 82.94 47.16 81.50L38.45 82.80L38.45 77.18L46.94 77.18L46.94 73.01L38.45 73.01L38.45 69.55L49.68 69.55L49.68 81.65C49.68 86.83 50.98 88.34 56.45 88.34L63.43 88.34C67.39 88.34 68.90 86.83 69.55 81.50C67.97 81.14 65.66 80.35 64.66 79.49C64.44 82.80 64.15 83.30 62.78 83.30ZM31.68 38.95C32.62 40.90 33.62 43.42 34.06 45.14L37.66 43.85C37.22 42.34 36.22 39.74 35.21 37.87ZM60.70 43.70C60.19 42.12 59.04 39.53 57.89 37.66L54.29 38.81C55.30 40.68 56.38 43.34 56.88 45.07Z"/></svg>
