<svg xmlns="http://www.w3.org/2000/svg" xmlns:xlink="http://www.w3.org/1999/xlink" width="72.00000000000001" height="106.56000000000002"><path fill="red" stroke="red" d="M14.90 58.75C15.05 56.45 15.05 54.22 15.05 52.20L15.05 48.67L26.42 48.67L26.42 58.75ZM26.42 32.76L26.42 42.70L15.05 42.70L15.05 32.76ZM32.69 26.71L8.86 26.71L8.86 52.27C8.86 62.64 8.35 76.46 2.23 85.97C3.74 86.62 6.48 88.34 7.56 89.35C11.88 82.73 13.75 73.51 14.54 64.80L26.42 64.80L26.42 80.64C26.42 81.58 26.06 81.94 25.13 81.94C24.26 81.94 21.24 81.94 18.22 81.86C19.08 83.45 19.94 86.26 20.23 87.84C24.84 87.91 28.01 87.77 30.02 86.69C32.04 85.68 32.69 83.88 32.69 80.64ZM45.94 58.75C46.08 56.09 46.15 53.50 46.15 51.05L46.15 48.67L58.97 48.67L58.97 58.75ZM58.97 32.76L58.97 42.70L46.15 42.70L46.15 32.76ZM65.38 26.71L39.82 26.71L39.82 51.05C39.82 61.78 39.17 76.10 31.90 85.97C33.48 86.62 36.29 88.42 37.44 89.50C42.34 82.73 44.57 73.58 45.50 64.80L58.97 64.80L58.97 80.64C58.97 81.72 58.54 82.08 57.46 82.15C56.45 82.22 52.78 82.22 49.18 82.08C50.11 83.74 50.98 86.83 51.19 88.63C56.66 88.63 60.19 88.49 62.42 87.41C64.73 86.33 65.38 84.31 65.38 80.71Z"/></svg>
