<svg xmlns="http://www.w3.org/2000/svg" xmlns:xlink="http://www.w3.org/1999/xlink" width="72.00000000000001" height="106.56000000000002"><path fill="red" stroke="red" d="M45.94 25.13L45.94 30.74L52.27 30.74C54.58 40.75 58.39 50.98 63.22 57.60C64.37 56.02 66.74 53.50 68.18 52.42C63.29 46.37 59.26 35.57 57.24 25.13ZM37.51 25.63C35.86 36.00 32.98 46.08 28.37 52.56C29.66 53.78 32.04 56.45 32.83 57.74C38.16 50.18 41.83 38.66 43.92 26.78ZM19.80 43.99L28.58 43.99L28.58 37.80L19.80 37.80L19.80 23.18L13.68 23.18L13.68 37.80L3.60 37.80L3.60 43.99L13.18 43.99C11.09 53.28 6.84 64.08 2.30 69.84C3.46 71.57 4.97 74.52 5.62 76.46C8.57 72.14 11.45 65.59 13.68 58.54L13.68 89.14L19.80 89.14L19.80 54.86C21.67 58.32 23.69 62.21 24.70 64.51L28.58 59.83C27.36 57.82 21.82 49.68 19.80 47.02ZM52.42 65.38C53.93 68.62 55.58 72.36 57.17 76.03L38.09 78.19C42.62 69.62 47.02 58.75 50.26 48.10L43.49 46.30C40.61 58.03 35.14 70.63 33.34 73.94C31.61 77.40 30.31 79.56 28.66 79.99C29.52 81.72 30.60 84.96 30.89 86.33C33.12 85.32 36.29 84.82 59.62 81.65C60.48 84.02 61.34 86.18 61.92 87.98L68.04 85.03C66.02 79.56 61.56 70.13 58.10 63.07Z"/></svg>
