<svg xmlns="http://www.w3.org/2000/svg" xmlns:xlink="http://www.w3.org/1999/xlink" width="72.00000000000001" height="106.56000000000002"><path fill="red" stroke="red" d="M18.43 49.82L18.43 43.56L32.54 43.56L32.54 49.82ZM18.43 32.18L32.54 32.18L32.54 38.30L18.43 38.30ZM53.78 38.30L39.60 38.30L39.60 32.18L53.78 32.18ZM53.78 49.82L39.60 49.82L39.60 43.56L53.78 43.56ZM67.54 66.96L67.54 60.84L39.60 60.84L39.60 55.51L60.98 55.51L60.98 26.57L11.52 26.57L11.52 55.51L32.54 55.51L32.54 60.84L4.54 60.84L4.54 66.96L27.36 66.96C21.10 73.15 11.52 78.70 2.66 81.50C4.10 82.87 6.19 85.46 7.13 87.05C16.20 83.66 25.78 77.47 32.54 70.20L32.54 89.21L39.60 89.21L39.60 69.84C46.51 76.90 56.16 83.23 64.94 86.69C66.02 84.96 68.04 82.44 69.55 81.00C60.84 78.26 51.26 72.86 44.78 66.96Z"/></svg>
