<svg xmlns="http://www.w3.org/2000/svg" xmlns:xlink="http://www.w3.org/1999/xlink" width="72.00000000000001" height="106.56000000000002"><path fill="red" stroke="red" d="M29.02 59.04C27.72 56.81 21.46 47.74 19.44 45.07L19.44 42.91L27.72 42.91L27.72 36.72L19.44 36.72L19.44 23.18L12.89 23.18L12.89 36.72L3.67 36.72L3.67 42.91L12.67 42.91C10.58 52.20 6.34 63.00 1.80 68.69C2.95 70.49 4.46 73.44 5.11 75.38C7.99 71.28 10.73 65.02 12.89 58.25L12.89 89.21L19.44 89.21L19.44 53.28C21.53 57.10 23.83 61.42 24.84 64.01ZM57.46 56.02C55.15 61.70 51.70 66.60 47.52 70.70C43.49 66.46 40.39 61.49 38.23 56.02ZM61.56 49.68L60.41 49.90L50.76 49.90L50.76 40.03L67.10 40.03L67.10 33.91L50.76 33.91L50.76 23.11L44.14 23.11L44.14 33.91L29.38 33.91L29.38 40.03L44.14 40.03L44.14 49.90L30.38 49.90L30.38 56.02L33.98 56.02L31.82 56.66C34.56 63.65 38.09 69.70 42.62 74.81C37.22 78.84 30.89 81.65 24.19 83.38C25.42 84.82 27.07 87.55 27.72 89.35C34.85 87.05 41.54 83.81 47.30 79.34C52.49 83.66 58.61 86.98 65.74 89.21C66.60 87.34 68.47 84.82 69.98 83.38C63.14 81.65 57.24 78.77 52.34 74.95C58.39 68.90 63.07 61.20 65.74 51.41Z"/></svg>
