<svg xmlns="http://www.w3.org/2000/svg" xmlns:xlink="http://www.w3.org/1999/xlink" width="72.00000000000001" height="106.56000000000002"><path fill="red" stroke="red" d="M24.70 58.54C23.62 56.66 18.58 48.46 16.85 45.94L16.85 43.99L22.68 43.99L22.68 37.94L16.85 37.94L16.85 23.11L10.94 23.11L10.94 37.94L3.82 37.94L3.82 43.99L10.87 43.99C9.29 53.35 5.90 64.30 2.23 70.49C3.24 72.00 4.82 74.52 5.47 76.32C7.49 72.86 9.36 68.04 10.94 62.64L10.94 89.21L16.85 89.21L16.85 54.72C18.50 58.03 20.23 61.70 21.17 64.08ZM46.01 37.73L35.64 37.73C35.71 33.19 35.78 28.51 35.78 23.62L30.02 23.62C30.02 28.51 30.02 33.19 29.95 37.73L24.41 37.73L24.41 43.63L29.81 43.63C29.30 61.42 27.43 76.03 19.66 85.10C21.24 86.04 23.33 87.98 24.26 89.35C32.76 79.13 34.92 63.14 35.50 43.63L40.18 43.63C39.53 69.55 38.95 78.70 37.66 80.64C37.08 81.65 36.50 81.86 35.64 81.86C34.49 81.86 32.62 81.86 30.53 81.65C31.39 83.30 31.97 85.82 32.11 87.55C34.49 87.62 36.86 87.70 38.52 87.34C40.39 87.05 41.62 86.40 42.77 84.53C44.78 81.58 45.29 71.35 46.01 40.68ZM54.00 75.46L54.00 37.30L61.13 37.30L61.13 75.46ZM48.46 31.32L48.46 87.34L54.00 87.34L54.00 81.36L61.13 81.36L61.13 86.76L66.82 86.76L66.82 31.32Z"/></svg>
