<svg xmlns="http://www.w3.org/2000/svg" xmlns:xlink="http://www.w3.org/1999/xlink" width="72.00000000000001" height="106.56000000000002"><path fill="red" stroke="red" d="M29.66 59.90C28.37 57.74 22.54 49.39 20.16 46.37L20.16 42.98L28.58 42.98L28.58 36.79L20.16 36.79L20.16 23.18L13.68 23.18L13.68 36.79L3.82 36.79L3.82 42.98L13.39 42.98C11.23 52.20 6.98 63.00 2.45 68.76C3.67 70.49 5.18 73.44 5.83 75.38C8.71 71.21 11.52 64.87 13.68 57.96L13.68 89.14L20.16 89.14L20.16 54.58C22.25 58.18 24.48 62.21 25.56 64.73ZM52.92 80.93L52.92 63.65L66.38 63.65L66.38 57.67L52.92 57.67L52.92 42.70L67.82 42.70L67.82 36.58L48.02 36.58L54.22 34.34C53.28 31.25 51.05 26.64 48.82 23.18L42.84 25.20C44.86 28.80 47.09 33.55 47.81 36.58L30.02 36.58L30.02 42.70L45.86 42.70L45.86 57.67L31.46 57.67L31.46 63.65L45.86 63.65L45.86 80.93L27.65 80.93L27.65 87.05L69.05 87.05L69.05 80.93Z"/></svg>
