<svg xmlns="http://www.w3.org/2000/svg" xmlns:xlink="http://www.w3.org/1999/xlink" width="72.00000000000001" height="106.56000000000002"><path fill="red" stroke="red" d="M53.64 46.87L18.14 46.87L18.14 42.41L53.64 42.41ZM53.64 56.16L18.14 56.16L18.14 51.62L53.64 51.62ZM60.55 37.44L38.66 37.44L38.66 33.19L64.87 33.19L64.87 27.79L38.66 27.79L38.66 23.11L31.75 23.11L31.75 37.44L11.52 37.44L11.52 61.13L60.55 61.13ZM23.83 74.59C19.30 77.76 10.44 80.57 2.95 81.72C4.39 83.09 6.34 85.54 7.34 87.12C14.90 85.39 23.98 81.36 29.16 77.11ZM68.04 71.78L68.04 66.24L39.24 66.24L39.24 62.06L32.47 62.06L32.47 66.24L4.10 66.24L4.10 71.78L32.47 71.78L32.47 89.06L39.24 89.06L39.24 71.78ZM42.70 77.98C49.82 80.35 59.33 84.17 64.15 86.83L68.26 82.08C63.14 79.49 53.50 75.96 46.51 73.80Z"/></svg>
