<svg xmlns="http://www.w3.org/2000/svg" xmlns:xlink="http://www.w3.org/1999/xlink" width="72.00000000000001" height="106.56000000000002"><path fill="red" stroke="red" d="M27.94 58.32C26.71 56.30 21.53 48.31 19.58 45.58L19.58 42.91L26.93 42.91L26.93 36.72L19.58 36.72L19.58 23.18L13.46 23.18L13.46 36.72L3.67 36.72L3.67 42.91L12.96 42.91C10.94 52.20 6.77 63.00 2.30 68.69C3.46 70.49 4.97 73.44 5.62 75.31C8.50 71.14 11.30 64.66 13.46 57.67L13.46 89.14L19.58 89.14L19.58 53.86C21.31 57.17 23.11 60.77 23.98 62.93ZM44.50 53.57L44.50 60.48L35.50 60.48C35.78 58.32 36.07 55.87 36.36 53.57ZM50.76 40.32L59.98 40.32L59.98 48.02L50.76 48.02ZM50.76 60.48L50.76 53.57L66.10 53.57L66.10 34.70L58.39 34.70C60.05 31.82 61.92 28.30 63.58 24.98L57.10 23.11C55.87 26.57 53.71 31.39 51.84 34.70L41.26 34.70L43.63 33.62C42.70 30.74 40.54 26.50 38.30 23.33L32.98 25.49C34.85 28.22 36.65 31.90 37.66 34.70L28.73 34.70L28.73 40.32L44.50 40.32L44.50 48.02L31.10 48.02C30.60 53.86 29.74 61.27 28.87 66.02L41.90 66.02C37.51 72.29 30.74 78.19 24.05 81.14C25.34 82.30 27.36 84.60 28.30 86.11C34.20 83.02 39.96 77.83 44.50 71.78L44.50 89.14L50.76 89.14L50.76 66.02L61.92 66.02C61.56 73.08 61.06 75.74 60.41 76.68C59.98 77.26 59.47 77.40 58.54 77.40C57.74 77.40 55.94 77.33 53.78 77.11C54.72 78.84 55.30 81.36 55.44 83.30C57.96 83.38 60.34 83.30 61.70 83.09C63.36 82.87 64.37 82.37 65.52 81.07C66.96 79.27 67.54 74.38 68.04 62.86C68.11 62.06 68.18 60.48 68.18 60.48Z"/></svg>
