<svg xmlns="http://www.w3.org/2000/svg" xmlns:xlink="http://www.w3.org/1999/xlink" width="72.00000000000001" height="106.56000000000002"><path fill="red" stroke="red" d="M26.78 58.32C25.63 56.38 20.59 48.53 18.58 45.79L18.58 42.91L25.42 42.91L25.42 36.72L18.58 36.72L18.58 23.18L12.31 23.18L12.31 36.72L3.53 36.72L3.53 42.91L12.24 42.91C10.22 52.20 6.19 63.00 1.87 68.69C3.02 70.42 4.54 73.44 5.18 75.31C7.78 71.42 10.30 65.52 12.31 59.11L12.31 89.21L18.58 89.21L18.58 54.36C20.23 57.67 21.89 61.06 22.68 63.22ZM35.93 76.46L56.38 76.46L56.38 81.79L35.93 81.79ZM56.38 46.73L56.38 51.77L35.93 51.77L35.93 46.73ZM56.38 66.46L56.38 71.64L35.93 71.64L35.93 66.46ZM56.38 61.70L35.93 61.70L35.93 56.59L56.38 56.59ZM62.78 81.79L62.78 41.62L45.79 41.62C46.15 39.96 46.58 38.23 47.02 36.36L66.67 36.36L66.67 30.74L48.10 30.74C48.67 28.15 49.10 25.56 49.54 23.11L42.77 22.82C42.55 25.27 42.19 27.94 41.83 30.74L27.00 30.74L27.00 36.36L41.04 36.36C40.68 38.23 40.39 40.03 40.03 41.62L29.81 41.62L29.81 81.79L23.54 81.79L23.54 87.48L68.83 87.48L68.83 81.79Z"/></svg>
