<svg xmlns="http://www.w3.org/2000/svg" xmlns:xlink="http://www.w3.org/1999/xlink" width="72.00000000000001" height="106.56000000000002"><path fill="red" stroke="red" d="M57.74 35.35L39.31 35.35L39.31 30.46L57.74 30.46ZM57.74 44.86L39.31 44.86L39.31 39.82L57.74 39.82ZM64.30 25.63L32.98 25.63L32.98 49.61L64.30 49.61ZM28.58 61.13C27.43 59.26 21.89 51.41 20.02 48.89L20.02 44.35L28.30 44.35L28.30 38.16L20.02 38.16L20.02 23.11L13.75 23.11L13.75 38.16L3.89 38.16L3.89 44.35L13.18 44.35C11.02 53.57 6.77 64.22 2.38 70.20C3.46 71.71 4.97 74.30 5.62 76.18C8.64 71.93 11.45 65.45 13.75 58.46L13.75 89.14L20.02 89.14L20.02 56.95C21.96 60.26 23.98 64.08 24.91 66.24ZM69.12 58.39L69.12 52.92L28.08 52.92L28.08 58.39L36.00 58.39C32.90 63.29 28.58 67.75 24.05 70.78C25.34 71.71 27.36 73.87 28.22 74.81C30.74 72.94 33.19 70.63 35.57 68.04L40.75 68.04C37.08 73.80 31.54 79.49 26.42 82.51C27.86 83.59 29.59 85.39 30.60 86.76C36.50 82.51 42.98 74.95 46.58 68.04L51.55 68.04C48.89 75.10 44.28 81.94 39.38 85.46C40.97 86.47 42.77 88.13 43.78 89.42C49.18 84.82 54.36 76.10 57.02 68.04L61.27 68.04C60.41 77.76 59.47 81.65 58.46 82.87C57.82 83.52 57.31 83.66 56.30 83.59C55.37 83.59 53.42 83.59 51.12 83.38C51.98 84.89 52.56 87.34 52.63 89.06C55.37 89.14 57.96 89.14 59.33 88.99C61.13 88.78 62.35 88.27 63.50 86.90C65.45 84.82 66.53 79.20 67.61 65.30C67.75 64.44 67.82 62.78 67.82 62.78L39.67 62.78C40.68 61.34 41.62 59.90 42.41 58.39Z"/></svg>
