<svg xmlns="http://www.w3.org/2000/svg" xmlns:xlink="http://www.w3.org/1999/xlink" width="72.00000000000001" height="106.56000000000002"><path fill="red" stroke="red" d="M49.68 58.18L39.38 58.18L39.38 52.34L49.68 52.34ZM49.68 69.34L39.38 69.34L39.38 63.22L49.68 63.22ZM49.68 80.86L39.38 80.86L39.38 74.38L49.68 74.38ZM68.83 43.34L68.83 30.89L48.46 30.89C49.10 28.73 49.75 26.42 50.26 24.12L43.78 22.97C43.20 25.70 42.55 28.37 41.76 30.89L27.65 30.89L27.65 43.42L33.41 43.42L33.41 36.58L39.82 36.58C36.79 44.21 32.69 50.69 27.43 55.58C25.70 53.06 21.17 46.58 19.58 44.71L19.58 42.91L25.92 42.91L25.92 36.72L19.58 36.72L19.58 23.18L13.46 23.18L13.46 36.72L4.18 36.72L4.18 42.91L12.96 42.91C10.87 52.20 6.62 63.00 2.09 68.69C3.24 70.49 4.75 73.44 5.40 75.38C8.35 71.06 11.23 64.51 13.46 57.38L13.46 89.14L19.58 89.14L19.58 52.92C21.24 55.87 22.82 59.04 23.62 60.98L24.77 59.62C26.06 60.98 27.58 63.00 28.08 64.08C29.81 62.71 31.39 61.20 32.98 59.69L32.98 89.14L39.38 89.14L39.38 86.40L68.76 86.40L68.76 80.86L55.80 80.86L55.80 74.38L66.24 74.38L66.24 69.34L55.80 69.34L55.80 63.22L66.10 63.22L66.10 58.18L55.80 58.18L55.80 52.34L67.32 52.34L67.32 46.73L56.66 46.73C55.87 44.42 54.65 41.40 53.57 39.17L47.95 40.32C48.82 42.26 49.75 44.64 50.40 46.73L42.19 46.73C43.92 43.56 45.36 40.18 46.66 36.58L62.86 36.58L62.86 43.34Z"/></svg>
