<svg xmlns="http://www.w3.org/2000/svg" xmlns:xlink="http://www.w3.org/1999/xlink" width="72.00000000000001" height="106.56000000000002"><path fill="red" stroke="red" d="M16.99 43.99L23.11 43.99L23.11 37.94L16.99 37.94L16.99 23.18L11.09 23.18L11.09 37.94L3.60 37.94L3.60 43.99L10.94 43.99C9.36 53.28 5.98 64.30 2.23 70.49C3.31 72.00 4.82 74.52 5.54 76.25C7.56 72.79 9.43 67.90 11.09 62.42L11.09 89.21L16.99 89.21L16.99 55.37C18.58 58.75 20.16 62.50 20.95 64.87L24.55 59.33C23.54 57.31 18.65 48.60 16.99 46.01ZM57.67 68.98L57.67 73.01L34.56 73.01L34.56 68.98ZM34.56 81.86L34.56 77.62L57.67 77.62L57.67 81.86ZM28.51 89.21L34.56 89.21L34.56 86.69L57.67 86.69L57.67 89.14L64.08 89.14L64.08 64.15L28.51 64.15ZM49.39 38.66L43.56 38.66L43.56 34.63L49.39 34.63ZM60.41 47.66L54.79 47.66L54.79 43.27L60.41 43.27ZM60.41 56.52L54.79 56.52L54.79 51.98L60.41 51.98ZM31.75 51.98L38.30 51.98L38.30 56.52L31.75 56.52ZM31.75 43.27L38.30 43.27L38.30 47.66L31.75 47.66ZM49.68 51.98L49.68 56.52L43.20 56.52L43.20 51.98ZM49.68 43.27L49.68 47.66L43.20 47.66L43.20 43.27ZM68.47 34.63L68.47 29.23L55.01 29.23L55.01 23.11L49.39 23.11L49.39 29.23L43.56 29.23L43.56 23.18L38.02 23.18L38.02 29.23L24.26 29.23L24.26 34.63L38.02 34.63L38.02 38.66L26.21 38.66L26.21 61.06L66.10 61.06L66.10 38.66L55.01 38.66L55.01 34.63Z"/></svg>
