<svg xmlns="http://www.w3.org/2000/svg" xmlns:xlink="http://www.w3.org/1999/xlink" width="72.00000000000001" height="106.56000000000002"><path fill="red" stroke="red" d="M19.01 44.50L26.42 44.50L26.42 38.30L19.01 38.30L19.01 23.11L12.89 23.11L12.89 38.30L3.89 38.30L3.89 44.50L12.38 44.50C10.37 53.64 6.41 64.30 2.30 70.20C3.31 71.64 4.82 74.23 5.47 76.03C8.28 71.93 10.80 65.66 12.89 58.97L12.89 89.14L19.01 89.14L19.01 56.95C20.81 60.34 22.75 64.22 23.62 66.46L27.14 61.63C25.99 59.76 21.02 52.06 19.01 49.25ZM51.62 73.01L51.62 78.41L43.34 78.41L43.34 73.01ZM56.59 82.44L56.59 68.98L38.38 68.98L38.38 85.46L43.34 85.46L43.34 82.44ZM67.18 60.41L27.94 60.41L27.94 89.21L34.06 89.21L34.06 65.59L60.91 65.59L60.91 82.58C60.91 83.38 60.70 83.59 59.76 83.66C58.90 83.66 55.94 83.66 52.99 83.59C53.78 85.03 54.72 87.48 55.01 89.06C59.40 89.06 62.42 89.06 64.51 88.20C66.60 87.19 67.18 85.54 67.18 82.66ZM53.21 53.35L41.47 53.35L41.47 48.17L53.21 48.17ZM51.19 40.10C51.91 41.40 52.78 42.70 53.78 43.99L41.26 43.99C42.19 42.70 43.06 41.40 43.78 40.10ZM68.18 40.10L68.18 34.85L46.37 34.85C46.94 33.41 47.38 32.04 47.81 30.60C53.93 30.10 59.69 29.30 64.22 28.30L60.34 23.90C52.99 25.56 39.46 26.57 28.44 26.93C29.02 28.15 29.74 30.17 29.88 31.46C33.55 31.39 37.44 31.25 41.33 31.03C40.97 32.33 40.46 33.55 39.89 34.85L27.14 34.85L27.14 40.10L36.79 40.10C33.98 43.99 30.02 47.66 24.70 50.47C26.14 51.34 27.94 53.42 28.80 54.94C31.46 53.42 33.77 51.70 35.86 49.82L35.86 57.53L59.11 57.53L59.11 49.90C61.27 51.91 63.58 53.64 65.95 54.86C66.82 53.28 68.69 51.12 69.98 50.04C65.30 48.02 60.62 44.28 57.38 40.10Z"/></svg>
