<svg xmlns="http://www.w3.org/2000/svg" xmlns:xlink="http://www.w3.org/1999/xlink" width="72.00000000000001" height="106.56000000000002"><path fill="red" stroke="red" d="M36.43 39.17C39.53 36.79 42.41 34.13 44.93 31.25C48.02 33.98 51.77 36.79 55.73 39.17ZM25.13 58.46C24.12 56.66 19.66 49.54 17.86 46.94L17.86 42.91L23.90 42.91L23.90 41.11C25.20 42.19 26.71 43.92 27.58 45.00C30.10 43.56 32.62 41.98 34.99 40.25L34.99 44.42L56.23 44.42L56.23 39.46C59.69 41.62 63.22 43.42 66.60 44.93C67.10 43.13 68.33 40.25 69.41 38.66C62.21 36.22 53.71 31.61 48.38 26.93C48.89 26.21 49.39 25.42 49.90 24.62L43.42 22.46C39.53 28.87 32.11 35.57 23.90 40.03L23.90 36.72L17.86 36.72L17.86 23.18L12.53 23.18L12.53 36.72L4.54 36.72L4.54 42.91L11.59 42.91C9.94 51.77 6.55 61.92 3.02 67.46C3.89 69.12 5.26 72.07 5.76 74.09C8.28 69.70 10.73 62.86 12.53 55.66L12.53 89.21L17.86 89.21L17.86 54.29C19.51 57.46 21.31 61.06 22.10 63.22ZM52.63 53.57L59.33 53.57L59.33 61.78L52.63 61.78ZM47.59 66.46L64.58 66.46L64.58 48.89L47.59 48.89ZM32.11 53.57L38.52 53.57L38.52 61.78L32.11 61.78ZM27.14 66.46L43.70 66.46L43.70 48.89L27.14 48.89ZM33.05 67.75C30.82 75.24 25.99 81.36 19.66 85.10C21.02 86.11 23.18 88.27 24.05 89.42C28.15 86.62 31.75 82.87 34.56 78.41C37.08 80.21 39.74 82.37 41.11 83.95L44.71 79.49C42.98 77.83 39.89 75.53 37.08 73.80C37.80 72.22 38.45 70.63 38.95 68.90ZM52.92 67.68C51.41 75.24 47.74 81.29 42.05 84.96C43.42 85.90 45.58 88.20 46.44 89.28C49.82 86.76 52.70 83.52 54.79 79.63C58.75 82.44 62.78 85.82 65.09 88.20L69.12 83.59C66.46 81.00 61.56 77.40 57.24 74.52C57.89 72.58 58.46 70.63 58.90 68.47Z"/></svg>
