<svg xmlns="http://www.w3.org/2000/svg" xmlns:xlink="http://www.w3.org/1999/xlink" width="72.00000000000001" height="106.56000000000002"><path fill="red" stroke="red" d="M62.14 39.74C61.13 44.35 59.90 49.10 58.75 52.34L63.94 54.07C65.95 49.10 67.97 41.40 69.48 34.70L65.09 33.41L64.01 33.62L48.10 33.62C48.89 30.53 49.54 27.36 49.97 24.12L43.78 23.11C42.19 33.84 39.24 44.21 34.34 50.62C35.86 51.34 38.59 53.21 39.82 54.14C42.41 50.33 44.64 45.29 46.37 39.74ZM33.77 80.28C32.18 78.41 25.63 72.14 22.54 69.41L22.68 68.76L36.43 68.76L36.43 62.86L23.47 62.86C23.54 62.06 23.54 61.34 23.54 60.70L23.54 55.66L33.70 55.66L33.70 49.82L14.83 49.82C15.34 48.17 15.77 46.58 16.13 44.86L10.44 43.85C13.54 43.49 19.08 43.06 29.74 42.26C30.46 43.56 31.10 44.71 31.54 45.79L37.01 42.55C35.28 38.74 31.10 32.98 27.43 28.73L22.39 31.61C23.69 33.12 25.06 34.92 26.21 36.65L13.25 37.44C16.13 33.70 19.08 29.16 21.46 24.77L15.12 23.04C12.74 28.66 8.78 34.49 7.56 35.86C6.41 37.51 5.26 38.59 4.18 38.81C4.82 40.32 5.83 43.42 6.12 44.64C6.91 44.35 7.85 44.14 10.08 43.85C8.78 49.90 6.34 55.73 2.81 59.62C4.39 60.26 7.13 61.56 8.42 62.42C9.94 60.62 11.30 58.25 12.46 55.66L17.14 55.66L17.14 60.62C17.14 61.27 17.14 62.06 17.06 62.86L3.24 62.86L3.24 68.76L16.20 68.76C14.90 74.09 11.38 79.85 2.74 84.53C4.25 85.61 6.26 87.70 7.20 89.06C14.33 84.74 18.43 79.78 20.74 74.74C23.76 78.05 27.58 82.44 29.30 84.74ZM54.14 43.63L48.02 43.63L48.02 48.74C48.02 58.54 46.73 73.80 33.12 84.60C34.49 85.75 36.58 88.13 37.51 89.71C45.36 83.23 49.54 75.38 51.77 67.82C54.79 76.68 59.11 83.16 65.88 89.14C66.67 87.41 68.47 85.32 69.98 84.17C61.20 77.04 56.81 68.62 54.00 54.50C54.07 52.56 54.14 50.69 54.14 48.89Z"/></svg>
