<svg xmlns="http://www.w3.org/2000/svg" xmlns:xlink="http://www.w3.org/1999/xlink" width="72.00000000000001" height="106.56000000000002"><path fill="red" stroke="red" d="M62.50 39.82C61.56 44.42 60.41 49.03 59.33 52.27L64.22 53.86C66.10 49.03 67.97 41.40 69.34 34.78L65.23 33.48L64.22 33.77L49.32 33.77C49.90 30.60 50.40 27.36 50.83 24.05L44.64 23.04C43.34 34.42 40.90 45.50 36.50 52.42C37.94 53.35 40.61 55.44 41.76 56.52C44.28 52.13 46.30 46.30 47.95 39.82ZM30.82 32.11L40.25 32.11L40.25 27.22L30.82 27.22L30.82 23.04L25.06 23.04L25.06 36.14L30.82 36.14ZM33.26 46.80L27.43 46.80L27.43 41.18L33.26 41.18ZM37.51 37.44L23.33 37.44L23.33 50.54L37.51 50.54ZM12.38 36.14L18.07 36.14L18.07 23.04L12.38 23.04L12.38 27.22L2.81 27.22L2.81 32.18L12.38 32.18ZM14.04 76.82L22.18 76.82L22.18 81.07L14.04 81.07ZM22.18 64.22L14.04 64.22L14.04 60.62L22.18 60.62ZM22.18 72.43L14.04 72.43L14.04 68.69L22.18 68.69ZM9.72 41.11L15.55 41.11L15.55 46.87L9.72 46.87ZM55.51 42.62L49.61 42.62L49.61 46.80C49.61 57.10 48.74 72.29 37.37 84.38L37.37 81.07L27.65 81.07L27.65 76.82L36.86 76.82L36.86 72.43L27.65 72.43L27.65 68.69L36.43 68.69L36.43 64.22L27.65 64.22L27.65 60.62L37.87 60.62L37.87 55.94L28.01 55.94C27.43 54.36 26.28 52.27 25.13 50.69L20.81 52.42C21.46 53.50 22.10 54.72 22.68 55.94L14.83 55.94C15.55 54.58 16.13 53.28 16.70 51.91L12.24 50.54L19.87 50.54L19.87 37.44L5.54 37.44L5.54 50.54L11.95 50.54C9.79 56.16 6.12 61.70 2.30 65.52C3.24 66.53 4.75 69.05 5.33 70.06C6.48 68.90 7.63 67.39 8.78 65.88L8.78 89.21L14.04 89.21L14.04 85.82L37.37 85.82L37.37 85.61C38.88 86.62 40.68 88.34 41.47 89.57C47.66 83.23 51.12 75.89 53.06 68.76C55.73 77.76 59.69 85.18 65.45 89.57C66.38 87.70 68.33 85.25 69.77 83.95C61.99 78.91 57.46 67.82 55.22 55.44C55.44 52.34 55.51 49.54 55.51 46.94Z"/></svg>
