<svg xmlns="http://www.w3.org/2000/svg" xmlns:xlink="http://www.w3.org/1999/xlink" width="72.00000000000001" height="106.56000000000002"><path fill="red" stroke="red" d="M25.20 62.57L30.82 62.57L30.82 54.36C32.62 55.80 34.42 57.53 35.35 58.61L38.59 54.43C37.37 53.42 32.69 50.18 30.82 49.03L30.82 48.96L38.74 48.96L38.74 44.14L30.82 44.14L30.82 38.88C33.48 38.38 36.00 37.73 38.02 36.86L33.70 33.48C29.88 34.99 22.68 36.14 16.49 36.72C17.06 37.87 17.71 39.60 18.00 40.68C20.30 40.54 22.75 40.25 25.20 39.89L25.20 44.14L16.63 44.14L16.63 48.96L22.97 48.96C20.66 52.34 17.57 55.66 14.54 57.74C14.69 54.14 14.76 50.76 14.76 47.66L14.76 32.26L67.90 32.26L67.90 26.21L8.50 26.21L8.50 47.59C8.50 58.90 7.99 74.81 2.38 85.97C3.96 86.47 6.77 88.06 7.99 89.06C12.24 80.64 13.82 69.26 14.47 58.97C15.55 59.98 16.63 61.42 17.35 62.42C20.09 60.34 22.97 57.02 25.20 53.50ZM44.50 74.09L61.42 74.09L61.42 68.83L44.50 68.83L44.50 62.28L40.97 62.28C44.21 59.90 47.45 56.09 49.90 51.98L49.90 62.57L55.51 62.57L55.51 54.14C58.82 56.66 63.14 60.26 65.09 62.21L68.18 57.74C66.17 56.23 58.03 50.54 55.58 49.10L55.51 49.18L55.51 48.96L66.60 48.96L66.60 44.14L55.51 44.14L55.51 38.81C58.54 38.30 61.34 37.58 63.72 36.65L59.40 33.19C55.22 34.78 47.23 36.00 40.39 36.58C41.04 37.66 41.69 39.38 41.90 40.54C44.42 40.39 47.23 40.10 49.90 39.74L49.90 44.14L40.75 44.14L40.75 48.96L46.73 48.96C44.14 52.70 40.54 56.30 37.01 58.25C38.16 59.11 39.74 60.98 40.68 62.28L38.02 62.28L38.02 81.72L28.51 81.72L28.51 67.39L22.10 67.39L22.10 81.72L13.61 81.72L13.61 87.34L67.97 87.34L67.97 81.72L44.50 81.72Z"/></svg>
