<svg xmlns="http://www.w3.org/2000/svg" xmlns:xlink="http://www.w3.org/1999/xlink" width="72.00000000000001" height="106.56000000000002"><path fill="red" stroke="red" d="M58.97 43.78C56.02 48.02 51.19 53.35 46.94 57.31C43.78 52.49 41.18 47.23 39.24 41.76L39.24 41.04L67.46 41.04L67.46 34.56L59.11 34.56L62.14 31.10C59.18 28.80 53.35 25.49 48.96 23.33L45.00 27.58C48.67 29.45 53.28 32.26 56.30 34.56L39.24 34.56L39.24 23.26L32.40 23.26L32.40 34.56L4.82 34.56L4.82 41.04L32.40 41.04L32.40 59.83C21.74 65.95 10.01 72.58 2.95 76.10L7.27 82.15C14.40 77.98 23.62 72.43 32.40 66.82L32.40 80.57C32.40 81.94 31.90 82.37 30.60 82.37C29.16 82.44 24.55 82.44 19.94 82.30C20.88 84.24 21.96 87.41 22.32 89.35C28.58 89.35 33.05 89.14 35.64 87.98C38.23 86.90 39.24 84.89 39.24 80.57L39.24 55.94C45.29 67.90 53.71 77.69 64.58 83.16C65.66 81.29 67.82 78.62 69.41 77.18C62.14 74.09 55.73 68.83 50.54 62.21C55.08 58.25 60.62 52.78 64.87 47.88ZM25.06 57.82C22.75 53.93 17.50 48.38 13.03 44.57L7.99 48.17C12.46 52.20 17.42 57.96 19.58 61.78Z"/></svg>
