<svg xmlns="http://www.w3.org/2000/svg" xmlns:xlink="http://www.w3.org/1999/xlink" width="72.00000000000001" height="106.56000000000002"><path fill="red" stroke="red" d="M19.80 49.97C16.85 47.59 10.94 44.50 6.34 42.70L2.81 47.74C7.49 49.68 13.25 52.99 16.06 55.51ZM10.94 88.20C14.98 81.50 19.51 72.94 23.04 65.45L18.00 61.06C14.04 69.26 8.86 78.34 5.18 83.88ZM6.84 28.44C11.45 30.53 17.06 34.06 19.87 36.65L23.69 31.18C20.88 28.58 15.05 25.42 10.51 23.54ZM69.26 50.54L50.90 50.54L50.90 34.27L67.68 34.27L67.68 27.86L27.14 27.86L27.14 34.27L43.85 34.27L43.85 50.54L24.55 50.54L24.55 57.02L43.85 57.02L43.85 80.21C43.85 81.36 43.34 81.72 42.05 81.79C40.75 81.86 36.00 81.86 31.68 81.65C32.69 83.66 33.84 87.05 34.13 89.06C40.32 89.06 44.64 88.99 47.30 87.77C50.04 86.62 50.90 84.46 50.90 80.28L50.90 57.02L69.26 57.02Z"/></svg>
