<svg xmlns="http://www.w3.org/2000/svg" xmlns:xlink="http://www.w3.org/1999/xlink" width="72.00000000000001" height="106.56000000000002"><path fill="red" stroke="red" d="M19.66 50.76C16.85 48.31 11.16 45.29 6.91 43.56L3.24 48.46C7.63 50.47 13.25 53.71 15.84 56.16ZM11.52 87.91C15.26 81.14 19.44 72.65 22.75 65.16L17.64 61.06C13.97 69.19 9.14 78.34 5.69 83.88ZM7.20 28.87C11.74 30.82 17.35 34.20 20.02 36.79L23.98 31.39C21.10 28.87 15.48 25.85 10.94 23.98ZM32.98 79.20L32.98 63.36L58.46 63.36L58.46 79.20ZM58.46 42.26L58.46 57.17L32.98 57.17L32.98 42.26ZM45.22 35.86C46.37 32.40 47.59 28.30 48.74 24.34L40.97 23.47C40.46 27.07 39.38 31.97 38.38 35.86L26.42 35.86L26.42 89.21L32.98 89.21L32.98 85.68L58.46 85.68L58.46 88.63L65.30 88.63L65.30 35.86Z"/></svg>
