<svg xmlns="http://www.w3.org/2000/svg" xmlns:xlink="http://www.w3.org/1999/xlink" width="72.00000000000001" height="106.56000000000002"><path fill="red" stroke="red" d="M24.55 31.25C21.53 28.87 15.55 25.70 10.94 23.90L7.27 28.87C11.95 30.89 17.78 34.27 20.59 36.79ZM20.09 50.69C17.14 48.24 11.23 45.29 6.70 43.49L3.17 48.46C7.78 50.54 13.61 53.86 16.42 56.23ZM11.16 88.27C15.48 81.43 20.23 72.86 23.98 65.30L19.15 61.06C14.98 69.19 9.43 78.41 5.62 83.81ZM48.24 49.25L48.24 60.41L34.78 60.41L34.78 49.25ZM40.90 81.79C35.71 81.79 34.78 81.07 34.78 77.69L34.78 66.02L54.07 66.02L54.07 43.63L31.25 43.63C32.54 41.47 33.77 39.24 34.92 36.86L59.69 36.86C59.62 56.81 59.40 63.79 58.54 65.23C58.03 66.10 57.46 66.31 56.52 66.31C55.44 66.31 52.99 66.24 50.33 66.02C51.26 67.68 52.06 70.27 52.13 72.07C55.08 72.22 57.96 72.14 59.76 71.93C61.70 71.57 63.07 70.99 64.30 69.12C65.88 66.74 65.95 58.32 66.02 33.77L66.02 30.82L37.66 30.82C38.52 28.80 39.24 26.71 39.96 24.62L33.48 22.97C30.67 32.33 25.78 41.47 19.87 47.30C21.24 48.46 23.62 51.12 24.62 52.42C25.99 50.98 27.22 49.39 28.51 47.74L28.51 77.69C28.51 85.39 31.18 87.41 40.54 87.41L58.82 87.41C66.67 87.41 68.76 84.89 69.70 76.25C67.90 75.89 65.30 74.95 63.86 74.02C63.29 80.42 62.57 81.79 58.54 81.79Z"/></svg>
