<svg xmlns="http://www.w3.org/2000/svg" xmlns:xlink="http://www.w3.org/1999/xlink" width="72.00000000000001" height="106.56000000000002"><path fill="red" stroke="red" d="M62.21 23.11C52.99 25.70 37.30 27.29 23.83 28.08C24.55 29.52 25.42 31.97 25.56 33.55C39.17 32.98 55.37 31.46 66.24 28.58ZM57.17 47.66C59.47 44.28 62.28 39.02 64.73 34.49L58.46 31.97C57.02 36.07 54.14 41.83 51.91 45.43ZM48.60 44.71C47.88 41.69 46.30 36.94 44.78 33.41L39.10 35.21C40.54 38.81 42.05 43.63 42.70 46.80ZM36.29 45.14C35.28 42.34 33.19 37.87 31.18 34.63L25.78 36.65C27.58 40.03 29.74 44.64 30.53 47.59ZM23.11 31.03C20.16 29.02 14.33 25.85 10.30 23.69L6.55 28.51C10.73 30.89 16.42 34.34 19.30 36.43ZM19.58 49.82C16.56 47.88 10.58 44.86 6.48 42.91L2.74 47.81C6.98 50.04 12.82 53.35 15.84 55.44ZM10.37 88.13C14.26 81.43 18.65 72.72 22.10 65.16L16.92 60.98C13.10 69.34 8.06 78.55 4.54 84.10ZM67.75 64.73L48.82 64.73L48.82 63.36C53.93 59.90 59.11 55.37 63.00 51.12L58.61 47.66L57.24 48.10L26.21 48.10L26.21 54.14L51.12 54.14C48.46 56.81 45.22 59.40 42.34 61.20L42.34 64.73L22.61 64.73L22.61 70.85L42.34 70.85L42.34 82.30C42.34 83.16 41.98 83.38 40.82 83.45C39.74 83.45 35.64 83.45 31.90 83.30C32.83 84.89 33.84 87.41 34.20 89.14C39.38 89.14 42.98 89.06 45.50 88.20C48.02 87.34 48.82 85.75 48.82 82.44L48.82 70.85L67.75 70.85Z"/></svg>
