<svg xmlns="http://www.w3.org/2000/svg" xmlns:xlink="http://www.w3.org/1999/xlink" width="72.00000000000001" height="106.56000000000002"><path fill="red" stroke="red" d="M22.10 30.60C19.51 28.58 14.33 25.85 10.58 24.26L6.48 28.87C10.30 30.82 15.34 33.77 17.78 35.71ZM17.64 49.32C15.12 47.59 10.08 45.07 6.55 43.56L2.59 48.24C6.26 49.97 11.16 52.78 13.54 54.58ZM10.58 87.70C13.97 81.00 17.57 72.50 20.38 65.02L15.05 60.84C11.88 68.90 7.63 77.98 4.61 83.45ZM25.27 65.45L25.27 78.98L54.43 78.98L54.43 65.45L48.74 65.45L48.74 73.87L42.62 73.87L42.62 62.78L56.52 62.78L56.52 57.53L42.62 57.53L42.62 51.55L53.71 51.55L53.71 46.30L35.28 46.30C36.14 44.71 36.86 43.20 37.51 41.69L31.97 40.25C29.88 45.29 26.64 50.69 23.18 54.29C24.55 54.86 27.07 56.02 28.37 56.81C29.59 55.37 30.96 53.50 32.26 51.55L36.86 51.55L36.86 57.53L22.32 57.53L22.32 62.78L36.86 62.78L36.86 73.87L30.74 73.87L30.74 65.45ZM66.60 33.55L32.18 33.55C33.70 30.74 34.99 27.79 36.22 24.77L29.95 23.11C26.78 31.75 21.46 40.25 15.55 45.65C17.06 46.58 19.73 48.46 20.88 49.54C23.54 46.80 26.28 43.34 28.66 39.46L60.26 39.46C59.90 68.47 59.47 79.78 57.53 82.01C56.81 82.94 56.02 83.23 54.79 83.23C52.99 83.23 49.03 83.16 44.57 82.80C45.72 84.60 46.44 87.26 46.58 88.99C50.62 89.14 54.94 89.28 57.46 88.92C60.05 88.56 61.78 87.84 63.36 85.54C65.81 82.08 66.24 70.85 66.60 36.86Z"/></svg>
