<svg xmlns="http://www.w3.org/2000/svg" xmlns:xlink="http://www.w3.org/1999/xlink" width="72.00000000000001" height="106.56000000000002"><path fill="red" stroke="red" d="M18.50 32.40C16.42 29.88 12.10 26.35 8.71 24.05L5.04 27.65C8.50 30.17 12.53 33.91 14.54 36.58ZM16.78 50.90C14.54 48.74 9.94 45.72 6.55 43.85L3.10 47.74C6.55 49.82 11.02 53.06 13.18 55.22ZM9.14 88.13C12.02 81.65 15.26 73.22 17.71 65.88L13.18 62.64C10.44 70.56 6.70 79.49 4.03 84.89ZM58.90 70.27C57.82 72.43 56.52 74.45 54.94 76.10C52.34 74.09 49.61 72.00 47.16 70.27ZM62.57 65.30L61.49 65.45L42.98 65.45L42.98 70.27L46.01 70.27L42.77 72.86C45.43 74.88 48.31 77.18 51.12 79.49C48.02 81.86 44.35 83.52 40.32 84.60C41.40 85.75 42.77 87.91 43.34 89.35C47.88 87.91 51.98 85.90 55.44 83.09C58.10 85.39 60.48 87.48 62.21 89.21L66.17 85.46C64.37 83.81 61.92 81.72 59.26 79.49C62.28 76.03 64.66 71.71 66.10 66.31ZM64.80 33.19C63.14 34.85 60.26 37.30 58.03 38.95C56.95 37.73 56.09 36.58 55.22 35.21C57.38 33.62 60.05 31.46 62.42 29.30L58.32 25.85C56.95 27.36 54.86 29.52 52.99 31.18C51.91 28.87 51.05 26.42 50.33 23.76L44.71 24.77C47.02 33.77 50.76 41.04 56.66 46.30L44.78 46.30L44.78 52.56C44.78 55.51 44.28 58.54 40.54 61.20L40.54 46.30L31.82 46.30C37.08 41.54 41.18 35.06 43.42 26.93L39.60 25.63L38.66 25.85L23.90 25.85L23.90 31.10L35.93 31.10C34.92 33.41 33.55 35.64 32.11 37.58C30.38 36.14 28.15 34.49 26.28 33.26L22.75 36.86C24.62 38.23 26.78 40.03 28.44 41.62C25.49 44.42 22.10 46.58 18.58 48.02C19.80 49.10 21.31 51.34 22.03 52.70C23.33 52.13 24.62 51.48 25.85 50.76L25.85 51.34L34.92 51.34L34.92 57.38L24.19 57.38C23.62 62.57 22.61 69.05 21.74 73.30L34.42 73.30C33.84 79.42 33.19 82.01 32.40 82.94C31.82 83.45 31.18 83.52 30.24 83.52C29.09 83.52 26.50 83.52 23.76 83.23C24.70 84.74 25.34 86.90 25.49 88.56C28.30 88.70 31.10 88.70 32.69 88.56C34.56 88.42 35.93 87.98 37.08 86.69C38.81 85.03 39.60 80.71 40.39 70.78L40.61 68.40L28.01 68.40C28.37 66.53 28.66 64.51 28.94 62.50L40.54 62.50L40.54 61.49C41.76 62.21 43.78 64.15 44.42 65.09C49.18 61.85 50.11 56.88 50.11 52.70L50.11 51.12L55.66 51.12L55.66 56.38C55.66 60.91 56.52 62.78 60.98 62.78L63.36 62.78C64.51 62.78 65.66 62.71 66.38 62.42C66.24 61.20 66.10 59.40 66.02 58.03C65.30 58.32 64.01 58.39 63.29 58.39L61.78 58.39C61.06 58.39 60.98 57.89 60.98 56.45L60.98 49.54C62.64 50.47 64.30 51.41 66.17 52.13C67.03 50.54 68.83 48.24 70.13 47.02C66.74 45.94 63.79 44.21 61.27 42.12C63.65 40.54 66.38 38.59 68.83 36.58Z"/></svg>
