<svg xmlns="http://www.w3.org/2000/svg" xmlns:xlink="http://www.w3.org/1999/xlink" width="72.00000000000001" height="106.56000000000002"><path fill="red" stroke="red" d="M9.86 88.27C12.96 81.58 16.34 73.08 18.86 65.52L13.46 61.99C10.58 70.20 6.62 79.27 3.82 84.82ZM18.14 49.32C15.70 47.09 10.58 44.42 6.48 42.84L2.74 47.74C6.84 49.54 11.88 52.56 14.26 54.72ZM5.47 28.58C9.43 30.60 14.33 33.84 16.56 36.14L20.59 30.82C18.14 28.44 13.18 25.56 9.29 23.83ZM35.86 31.03L35.86 35.78L27.43 35.78L27.43 31.03ZM27.43 45.58L27.43 40.46L35.86 40.46L35.86 45.58ZM41.33 50.62L41.33 25.92L21.46 25.92L21.46 89.14L27.43 89.14L27.43 50.62ZM48.74 60.05L48.74 64.58L38.59 64.58L38.59 60.05ZM38.59 74.16L38.59 69.19L48.74 69.19L48.74 74.16ZM54.14 78.91L54.14 55.37L33.34 55.37L33.34 82.44L38.59 82.44L38.59 78.91ZM51.41 45.58L51.41 40.46L60.26 40.46L60.26 45.58ZM60.26 31.03L60.26 35.78L51.41 35.78L51.41 31.03ZM66.31 25.92L45.65 25.92L45.65 50.62L60.26 50.62L60.26 81.65C60.26 82.80 59.83 83.16 58.75 83.16C57.60 83.23 53.78 83.30 50.11 83.09C50.98 84.67 51.84 87.55 52.06 89.21C57.60 89.21 61.13 89.14 63.36 88.13C65.59 87.05 66.31 85.18 66.31 81.65Z"/></svg>
