<svg xmlns="http://www.w3.org/2000/svg" xmlns:xlink="http://www.w3.org/1999/xlink" width="72.00000000000001" height="106.56000000000002"><path fill="red" stroke="red" d="M10.22 55.94C9.86 50.98 8.71 42.34 7.42 35.57L2.59 36.36C3.74 43.13 4.75 52.06 5.04 57.24ZM50.90 44.78L50.90 67.18L42.55 67.18L42.55 44.78ZM55.58 71.86L55.58 40.03L37.73 40.03L37.73 76.25L42.55 76.25L42.55 71.86ZM17.93 48.46L17.93 23.98L12.17 23.98L12.17 48.46C12.17 61.20 11.23 74.52 2.88 84.89C4.18 85.90 6.34 87.98 7.20 89.50C11.95 83.81 14.54 77.33 16.13 70.63C18.22 73.94 20.52 77.83 21.74 80.28L26.14 75.74C24.84 73.80 19.37 65.88 17.28 63.29C17.71 59.04 17.86 54.79 17.93 50.54L21.53 52.06C23.40 48.24 25.42 41.98 27.43 36.86L21.89 34.99C21.02 39.24 19.44 45.58 17.93 49.68ZM66.24 26.28L27.43 26.28L27.43 89.21L33.55 89.21L33.55 32.47L60.05 32.47L60.05 81.22C60.05 82.22 59.69 82.58 58.82 82.58C57.82 82.58 54.65 82.66 51.55 82.51C52.42 84.24 53.28 87.34 53.42 89.06C58.18 89.06 61.49 88.92 63.58 87.77C65.59 86.69 66.24 84.74 66.24 81.29Z"/></svg>
