<svg xmlns="http://www.w3.org/2000/svg" xmlns:xlink="http://www.w3.org/1999/xlink" width="72.00000000000001" height="106.56000000000002"><path fill="red" stroke="red" d="M10.01 89.35C13.39 85.68 16.56 79.78 18.36 74.66L11.88 73.01C10.08 78.05 6.91 83.52 3.74 86.62ZM37.66 43.56L20.09 43.56L20.09 38.30L37.66 38.30ZM37.66 54.00L20.09 54.00L20.09 48.82L37.66 48.82ZM37.66 65.02L20.09 65.02L20.09 59.33L37.66 59.33ZM65.81 70.56L65.81 65.02L44.28 65.02L44.28 59.33L62.42 59.33L62.42 54.00L44.28 54.00L44.28 48.82L62.28 48.82L62.28 43.56L44.28 43.56L44.28 38.30L66.24 38.30L66.24 32.62L45.86 32.62C44.93 30.02 42.98 25.92 41.11 22.82L35.06 24.98C36.36 27.29 37.73 30.24 38.66 32.62L22.90 32.62C24.41 30.10 25.78 27.43 27.00 24.84L20.38 22.90C16.42 32.18 9.58 41.11 2.23 46.73C3.82 47.81 6.48 50.26 7.63 51.48C9.58 49.75 11.59 47.74 13.54 45.58L13.54 73.01L20.09 73.01L20.09 70.56ZM24.26 75.38C25.06 79.70 25.63 85.39 25.70 88.78L32.26 87.84C32.18 84.53 31.39 78.98 30.53 74.74ZM39.02 75.24C40.75 79.49 42.48 85.18 42.98 88.63L49.61 87.26C49.03 83.81 47.09 78.34 45.29 74.16ZM53.28 74.81C56.74 79.34 60.62 85.54 62.28 89.35L68.90 87.05C67.10 83.16 63.00 77.11 59.54 72.79Z"/></svg>
