<svg xmlns="http://www.w3.org/2000/svg" xmlns:xlink="http://www.w3.org/1999/xlink" width="72.00000000000001" height="106.56000000000002"><path fill="red" stroke="red" d="M58.10 32.04L58.10 37.58L16.78 37.58L16.78 32.04ZM16.78 43.06L25.06 43.06L20.74 45.65C23.47 47.45 26.93 50.04 28.66 51.84L33.34 48.74C31.46 47.02 28.08 44.64 25.34 43.06L58.75 43.06C56.59 45.00 53.21 47.81 50.62 49.46L55.22 51.84C57.82 50.11 61.27 47.88 64.01 45.29L59.40 43.06L64.87 43.06L64.87 26.57L10.08 26.57L10.08 47.16C10.08 58.46 9.43 74.30 2.16 85.18C3.89 85.82 6.84 87.55 8.14 88.70C15.70 77.11 16.78 59.33 16.78 47.16ZM47.23 54.72C53.06 56.81 59.26 59.83 63.00 62.06L66.74 58.03C62.78 55.80 56.16 53.06 50.18 50.98ZM45.58 58.46L45.58 44.21L39.02 44.21L39.02 58.46ZM19.66 60.70C24.70 59.11 30.82 57.02 36.79 55.08L36.07 50.69C29.30 52.78 22.46 54.72 17.71 55.94ZM67.82 74.95L45.50 74.95L45.50 69.77L64.22 69.77L64.22 64.51L45.50 64.51L45.50 59.47L38.95 59.47L38.95 64.51L29.95 64.51C30.60 63.29 31.25 62.06 31.82 60.77L26.06 59.40C23.98 63.94 20.38 68.54 16.34 71.64C17.86 72.29 20.52 73.66 21.74 74.52C23.26 73.15 24.84 71.64 26.35 69.77L38.95 69.77L38.95 74.95L16.34 74.95L16.34 80.42L38.95 80.42L38.95 88.78L45.50 88.78L45.50 80.42L67.82 80.42Z"/></svg>
