<svg xmlns="http://www.w3.org/2000/svg" xmlns:xlink="http://www.w3.org/1999/xlink" width="72.00000000000001" height="106.56000000000002"><path fill="red" stroke="red" d="M64.87 23.83L58.54 23.83L58.54 49.90C58.54 50.83 58.18 51.05 57.17 51.05C56.23 51.12 52.63 51.12 49.18 51.05C50.04 52.56 51.05 54.94 51.34 56.59C56.30 56.59 59.69 56.59 61.92 55.66C64.22 54.79 64.87 53.21 64.87 50.04ZM49.68 25.63L43.49 25.63L43.49 48.53L49.68 48.53ZM18.65 55.94L25.20 55.94L25.20 45.94C28.08 48.31 31.39 51.19 33.05 52.78L36.36 48.10C34.56 46.73 27.79 42.05 25.20 40.46L25.20 40.39L38.66 40.39L38.66 35.28L25.20 35.28L25.20 29.66C29.52 29.02 33.48 28.30 36.79 27.29L31.90 23.26C25.99 25.06 14.69 26.28 5.11 26.78C5.83 28.01 6.48 30.02 6.70 31.25C10.51 31.10 14.62 30.82 18.65 30.46L18.65 35.28L4.18 35.28L4.18 40.39L16.63 40.39C13.10 44.86 7.92 49.18 3.31 51.48C4.61 52.49 6.41 54.50 7.34 55.80C11.16 53.50 15.26 49.75 18.65 45.72ZM12.02 72.79C13.82 71.21 15.77 69.19 17.42 66.96L32.54 66.96L32.54 72.79ZM68.04 72.79L39.38 72.79L39.38 66.96L61.63 66.96L61.63 61.34L39.38 61.34L39.38 54.72L32.54 54.72L32.54 61.34L21.24 61.34C22.03 60.12 22.68 58.90 23.26 57.60L16.85 55.87C14.54 60.98 10.58 66.02 6.26 69.26C7.85 70.13 10.51 71.71 11.88 72.79L3.89 72.79L3.89 78.55L32.54 78.55L32.54 89.14L39.38 89.14L39.38 78.55L68.04 78.55Z"/></svg>
