<svg xmlns="http://www.w3.org/2000/svg" xmlns:xlink="http://www.w3.org/1999/xlink" width="72.00000000000001" height="106.56000000000002"><path fill="red" stroke="red" d="M63.65 36.22C60.70 32.76 54.50 27.94 49.54 24.77L44.93 28.80C49.97 32.18 55.94 37.30 58.68 40.75ZM67.97 50.62L67.97 43.70L38.74 43.70C39.53 36.58 39.60 29.52 39.67 23.18L32.40 23.18C32.33 29.52 32.40 36.58 31.54 43.70L4.03 43.70L4.03 50.62L30.38 50.62C27.58 63.58 20.59 75.96 3.10 83.16C5.11 84.60 7.20 87.12 8.28 88.99C24.91 81.58 32.69 69.62 36.29 56.66C41.90 71.78 50.76 83.09 64.58 89.06C65.66 87.12 67.97 84.17 69.55 82.80C55.30 77.33 46.08 65.59 41.04 50.62Z"/></svg>
