<svg xmlns="http://www.w3.org/2000/svg" xmlns:xlink="http://www.w3.org/1999/xlink" width="72.00000000000001" height="106.56000000000002"><path fill="red" stroke="red" d="M21.24 24.62C20.09 26.64 18.50 28.73 16.78 30.89C15.12 28.73 13.10 26.64 10.66 24.62L5.98 28.22C8.71 30.60 10.80 33.05 12.60 35.57C9.36 38.81 5.76 41.83 2.52 43.78C3.89 45.29 5.62 48.02 6.48 49.75C9.43 47.52 12.67 44.64 15.70 41.40C16.85 43.92 17.50 46.58 18.00 49.25C14.69 55.94 8.64 62.93 3.02 66.46C4.39 67.82 6.12 70.42 6.91 72.07C11.02 68.98 15.34 64.15 18.86 59.11L18.86 61.34C18.86 70.20 18.29 78.26 16.63 80.35C16.06 81.07 15.41 81.43 14.33 81.58C12.82 81.72 10.15 81.79 6.77 81.50C7.92 83.38 8.64 85.90 8.71 87.98C11.88 88.13 14.83 88.13 17.28 87.55C19.08 87.19 20.45 86.40 21.46 85.10C24.48 81.00 25.27 71.50 25.27 61.56C25.27 52.63 24.55 44.14 20.30 36.22C22.61 33.34 24.62 30.46 26.28 27.79ZM38.30 68.40L55.87 68.40L55.87 80.71L38.30 80.71ZM55.87 33.12L55.87 44.42L38.30 44.42L38.30 33.12ZM55.87 62.35L38.30 62.35L38.30 50.47L55.87 50.47ZM62.64 80.71L62.64 26.93L31.82 26.93L31.82 80.71L24.12 80.71L24.12 86.90L69.05 86.90L69.05 80.71Z"/></svg>
