<svg xmlns="http://www.w3.org/2000/svg" xmlns:xlink="http://www.w3.org/1999/xlink" width="72.00000000000001" height="106.56000000000002"><path fill="red" stroke="red" d="M20.88 24.48C19.51 27.00 17.78 29.66 15.77 32.18C13.90 29.52 11.45 26.86 8.35 24.26L3.60 27.86C7.13 30.89 9.72 33.98 11.74 37.22C8.86 40.39 5.76 43.20 2.59 45.43C4.03 46.51 6.19 48.46 7.20 49.82C9.72 47.88 12.17 45.65 14.62 43.27C15.62 46.08 16.20 48.96 16.56 51.98C13.25 57.89 7.49 64.30 2.38 67.54C4.03 68.76 5.83 70.92 6.91 72.58C10.30 69.84 13.97 65.88 17.14 61.70L17.14 61.85C17.14 70.85 16.49 79.13 14.83 81.36C14.26 82.15 13.61 82.44 12.53 82.58C10.94 82.80 8.28 82.80 4.90 82.58C5.98 84.38 6.62 86.83 6.70 88.99C9.86 89.14 12.82 89.06 15.41 88.56C17.21 88.13 18.65 87.26 19.66 85.97C22.68 81.86 23.47 72.14 23.47 61.99C23.47 53.71 22.82 45.65 19.22 38.09C22.10 34.70 24.70 31.10 26.71 27.43ZM34.70 45.86L43.92 45.86L43.92 53.71L34.70 53.71ZM34.70 32.62L43.92 32.62L43.92 40.46L34.70 40.46ZM59.26 40.46L50.04 40.46L50.04 32.62L59.26 32.62ZM59.26 53.71L50.04 53.71L50.04 45.86L59.26 45.86ZM50.62 80.78L50.62 72.22L66.31 72.22L66.31 66.17L50.62 66.17L50.62 59.40L65.66 59.40L65.66 26.93L28.66 26.93L28.66 59.40L43.42 59.40L43.42 66.17L27.79 66.17L27.79 72.22L43.42 72.22L43.42 80.78L23.76 80.78L23.76 86.98L69.12 86.98L69.12 80.78Z"/></svg>
