<svg xmlns="http://www.w3.org/2000/svg" xmlns:xlink="http://www.w3.org/1999/xlink" width="72.00000000000001" height="106.56000000000002"><path fill="red" stroke="red" d="M61.42 23.76C53.21 26.21 38.88 28.08 26.50 29.02C27.14 30.38 28.01 32.69 28.15 34.13C40.90 33.34 55.87 31.54 65.95 28.58ZM59.26 43.92C61.27 41.26 63.58 37.15 65.66 33.34L59.47 31.54C58.18 34.78 55.66 39.38 53.78 42.26ZM50.04 43.06C49.54 40.39 48.24 36.36 46.73 33.41L41.62 34.63C43.06 37.73 44.28 41.90 44.64 44.50ZM20.59 24.55C19.30 26.86 17.71 29.23 15.84 31.54C14.11 29.16 12.02 26.86 9.36 24.55L5.18 28.15C7.99 30.74 10.22 33.34 11.95 36.07C9.00 39.24 5.83 41.98 2.95 43.78C4.25 45.29 5.69 48.10 6.55 49.75C9.22 47.66 12.10 44.93 14.90 41.83C15.91 44.50 16.49 47.16 16.99 49.97C13.82 56.45 8.42 63.07 3.38 66.46C4.61 67.90 6.12 70.42 6.84 72.07C10.58 69.05 14.54 64.51 17.71 59.62L17.71 61.42C17.71 70.34 17.14 78.05 15.55 80.28C15.05 81.07 14.40 81.43 13.39 81.58C11.88 81.72 9.22 81.79 5.83 81.50C6.98 83.38 7.63 85.90 7.63 87.98C10.73 88.13 13.61 88.13 16.06 87.55C17.71 87.19 19.08 86.40 20.02 84.96C22.82 80.78 23.54 71.57 23.54 61.56C23.54 52.99 22.90 44.64 19.08 36.86C21.46 33.84 23.54 30.67 25.20 27.72ZM57.67 67.32L48.96 67.32L48.96 61.42L57.67 61.42ZM48.96 50.69L57.67 50.69L57.67 55.66L48.96 55.66ZM68.83 55.66L63.65 55.66L63.65 45.36L33.41 45.36L37.73 43.34C37.01 40.75 34.99 37.01 32.90 34.34L28.15 36.36C30.10 39.10 31.82 42.77 32.62 45.36L28.66 45.36L28.66 50.69L42.70 50.69L42.70 55.66L26.06 55.66L26.06 61.42L42.70 61.42L42.70 67.32L28.15 67.32L28.15 72.65L42.70 72.65L42.70 81.50C42.70 82.51 42.34 82.80 41.26 82.87C40.18 82.87 36.36 82.87 32.54 82.73C33.41 84.46 34.20 87.05 34.49 88.78C39.89 88.78 43.56 88.70 45.94 87.70C48.31 86.83 48.96 85.10 48.96 81.58L48.96 72.65L63.65 72.65L63.65 61.42L68.83 61.42Z"/></svg>
