<svg xmlns="http://www.w3.org/2000/svg" xmlns:xlink="http://www.w3.org/1999/xlink" width="72.00000000000001" height="106.56000000000002"><path fill="red" stroke="red" d="M17.78 23.33C16.63 25.70 15.26 28.22 13.61 30.67C12.17 28.22 10.37 25.85 8.28 23.54L3.74 26.71C6.34 29.66 8.28 32.62 9.72 35.71C7.42 38.52 4.82 41.18 2.16 43.27C3.60 44.28 5.47 46.01 6.48 47.30C8.42 45.65 10.30 43.92 12.17 41.98C12.89 44.71 13.39 47.45 13.68 50.40C11.30 56.38 6.70 63.07 2.52 66.53C3.82 67.75 5.40 70.27 6.19 71.78C8.86 69.12 11.81 65.23 14.18 61.13C14.18 70.06 13.75 79.34 12.24 81.36C11.74 82.01 11.16 82.30 10.30 82.37C9.07 82.51 7.27 82.51 4.90 82.37C5.83 84.10 6.34 86.47 6.41 88.42C8.86 88.56 11.30 88.42 13.10 88.06C14.76 87.77 15.98 86.98 16.85 85.75C19.58 81.86 20.16 71.35 20.16 61.20C20.16 52.49 19.58 44.42 16.56 36.65C19.01 33.41 21.24 29.95 23.04 26.42ZM34.85 65.30L34.85 76.82L28.01 76.82L28.01 65.30ZM34.20 47.88L28.01 47.88L28.01 38.38L34.20 38.38ZM28.01 53.57L39.53 53.57L39.53 32.69L31.82 32.69C32.83 30.17 33.84 27.29 34.85 24.55L28.66 23.47C28.15 26.14 27.14 29.74 26.21 32.69L22.68 32.69L22.68 87.84L28.01 87.84L28.01 82.51L40.18 82.51L40.18 59.62L28.01 59.62ZM68.83 32.40L68.83 26.71L41.90 26.71L41.90 32.40L52.34 32.40L52.34 40.54L42.84 40.54L42.84 78.98L47.88 78.98L47.88 46.22L52.34 46.22L52.34 89.06L57.82 89.06L57.82 46.22L62.42 46.22L62.42 72.79C62.42 73.37 62.28 73.51 61.70 73.51C61.20 73.58 59.90 73.58 58.25 73.51C59.04 74.95 59.83 77.33 60.05 78.77C62.64 78.77 64.44 78.62 65.81 77.69C67.25 76.75 67.61 75.17 67.61 72.86L67.61 40.54L57.82 40.54L57.82 32.40Z"/></svg>
