<svg xmlns="http://www.w3.org/2000/svg" xmlns:xlink="http://www.w3.org/1999/xlink" width="72.00000000000001" height="106.56000000000002"><path fill="red" stroke="red" d="M30.53 33.84L43.27 33.84L40.61 36.36C42.98 38.38 46.30 41.33 48.10 43.27L51.05 40.03C49.39 38.38 46.37 35.78 43.92 33.84L61.70 33.84L61.70 39.53L67.75 39.53L67.75 28.73L50.83 28.73C50.11 26.93 48.96 24.70 47.95 22.82L42.05 24.26C42.70 25.63 43.42 27.22 44.06 28.73L24.77 28.73L24.77 39.53L30.53 39.53ZM36.00 38.45L36.00 43.06C36.00 47.66 37.30 48.96 42.98 48.96L51.84 48.96C55.66 48.96 57.10 47.66 57.60 42.84C56.30 42.62 54.36 41.90 53.42 41.18C53.21 44.21 52.85 44.64 51.26 44.64L43.49 44.64C41.18 44.64 40.75 44.42 40.75 42.98L40.75 38.45ZM66.10 45.79C64.58 43.56 61.63 39.89 59.47 37.22L55.01 39.02C57.31 41.83 60.12 45.65 61.49 48.02ZM29.52 48.89C31.82 46.73 33.91 43.49 35.42 40.90L31.10 38.59C29.74 41.11 27.43 44.21 25.20 46.01ZM18.58 24.62C17.42 26.86 15.91 29.30 14.18 31.68C12.46 29.23 10.44 26.78 7.78 24.48L3.53 28.22C6.48 30.82 8.64 33.55 10.37 36.43C7.70 39.38 4.90 41.98 2.38 43.85C3.53 45.29 5.04 48.02 5.76 49.82C8.14 47.81 10.66 45.14 13.18 42.19C14.04 44.71 14.69 47.30 15.12 49.97C12.17 56.38 6.91 63.07 2.09 66.46C3.31 67.90 4.75 70.42 5.47 72.14C9.00 69.05 12.82 64.51 15.84 59.54L15.84 61.34C15.84 70.27 15.19 77.90 13.75 80.06C13.25 80.86 12.60 81.29 11.59 81.36C10.15 81.58 7.56 81.58 4.25 81.29C5.40 83.23 6.05 85.75 6.05 87.98C9.07 88.13 11.88 88.13 14.26 87.55C15.84 87.12 17.21 86.33 18.07 84.96C20.88 80.71 21.60 71.50 21.60 61.49C21.60 52.99 20.95 44.64 17.28 36.86C19.51 33.84 21.46 30.67 23.04 27.79ZM24.91 74.74L43.92 74.74L43.92 82.30C43.92 83.09 43.63 83.30 42.70 83.30C41.76 83.38 38.45 83.38 35.28 83.23C36.00 84.82 36.79 87.12 37.01 88.78C41.69 88.78 44.93 88.78 47.09 87.84C49.32 87.05 49.82 85.46 49.82 82.51L49.82 74.74L67.18 74.74L67.18 69.70L24.91 69.70ZM33.98 55.66L39.24 55.66L39.24 61.49L33.98 61.49ZM49.03 55.66L49.03 61.49L43.70 61.49L43.70 55.66ZM58.90 55.66L58.90 61.49L53.50 61.49L53.50 55.66ZM64.44 61.49L64.44 51.26L28.66 51.26L28.66 61.49L23.11 61.49L23.11 66.53L68.98 66.53L68.98 61.49Z"/></svg>
