<svg xmlns="http://www.w3.org/2000/svg" xmlns:xlink="http://www.w3.org/1999/xlink" width="72.00000000000001" height="106.56000000000002"><path fill="red" stroke="red" d="M16.99 23.90C15.91 26.28 14.54 28.80 12.96 31.25C11.52 28.80 9.79 26.35 7.63 23.90L3.10 27.07C5.76 30.17 7.70 33.34 9.22 36.58C6.98 39.38 4.54 41.98 2.09 44.14C3.46 45.14 5.54 46.94 6.55 48.17C8.21 46.66 9.86 45.00 11.45 43.20C12.10 45.79 12.53 48.38 12.82 51.19C10.37 57.02 6.05 63.36 2.16 66.74C3.46 67.90 5.18 70.20 6.05 71.71C8.50 69.26 11.02 65.88 13.25 62.21C13.25 70.99 12.89 80.14 11.38 82.08C10.87 82.66 10.30 83.02 9.50 83.09C8.35 83.16 6.48 83.16 4.25 83.02C5.26 84.74 5.76 87.12 5.76 89.06C8.06 89.21 10.44 89.14 12.31 88.70C13.90 88.42 15.19 87.70 16.06 86.54C18.79 82.58 19.30 71.93 19.30 61.85C19.30 53.21 18.79 45.22 15.98 37.58C18.58 34.13 20.88 30.38 22.75 26.64ZM26.78 47.30L30.67 47.30L30.67 56.88L26.78 56.88ZM35.86 36.43L45.07 36.43L45.07 30.82L50.40 30.82C49.54 35.93 47.59 39.89 43.99 42.70L43.99 42.12L35.86 42.12ZM39.17 56.88L35.06 56.88L35.06 47.30L39.17 47.30ZM45.22 73.73C43.85 72.29 38.52 67.18 35.93 64.94L35.93 62.06L43.99 62.06L43.99 44.35C45.14 45.29 46.44 46.58 47.02 47.38C52.06 43.56 54.86 38.16 55.94 30.82L62.28 30.82C62.14 36.86 61.85 39.31 61.27 40.03C60.91 40.61 60.34 40.68 59.62 40.68C58.82 40.68 57.10 40.68 55.08 40.46C55.80 41.83 56.30 43.99 56.45 45.58C58.82 45.65 60.98 45.65 62.35 45.43C63.86 45.29 64.94 44.78 65.95 43.63C67.10 42.19 67.46 37.87 67.75 27.50L67.75 25.34L45.07 25.34L45.07 30.60L35.86 30.60L35.86 23.04L29.88 23.04L29.88 30.60L21.10 30.60L21.10 36.43L29.88 36.43L29.88 42.12L22.18 42.12L22.18 62.06L28.73 62.06C26.42 67.97 22.61 74.38 18.79 77.90C19.87 79.63 21.17 82.37 21.74 84.31C24.77 81.14 27.58 76.32 29.88 71.14L29.88 89.14L35.93 89.14L35.93 71.28C38.09 73.94 40.46 76.97 41.47 78.77ZM51.84 68.54L61.20 68.54L61.20 72.72L51.84 72.72ZM51.84 60.19L61.20 60.19L61.20 64.37L51.84 64.37ZM51.84 51.98L61.20 51.98L61.20 56.09L51.84 56.09ZM66.67 77.11L66.67 47.59L46.51 47.59L46.51 77.11L49.39 77.11C47.16 80.06 43.34 83.52 39.89 85.46C41.18 86.47 43.13 88.20 44.14 89.21C47.95 86.90 52.49 82.80 55.30 79.13L51.62 77.11L60.77 77.11L57.89 78.77C60.48 81.94 63.50 86.40 64.87 89.21L69.62 86.11C68.33 83.66 65.74 80.06 63.22 77.11Z"/></svg>
