<svg xmlns="http://www.w3.org/2000/svg" xmlns:xlink="http://www.w3.org/1999/xlink" width="72.00000000000001" height="106.56000000000002"><path fill="red" stroke="red" d="M5.33 50.90C13.18 50.40 23.69 49.54 33.84 48.60L33.91 43.49L22.82 44.14L22.82 40.46L32.54 40.46L32.54 35.57L22.82 35.57L22.82 30.96L33.84 30.96L33.84 25.70L4.90 25.70L4.90 30.96L16.56 30.96L16.56 35.57L6.55 35.57L6.55 40.46L16.56 40.46L16.56 44.50C11.95 44.71 7.85 44.93 4.46 45.07ZM52.56 70.34L12.89 70.34L12.89 75.74L47.09 75.74C43.99 79.06 40.25 82.80 36.94 86.04L42.98 89.57C48.38 84.31 54.29 78.12 58.90 73.01L53.71 69.98ZM24.98 62.42C28.66 60.48 32.04 58.25 35.14 55.94C38.30 58.03 42.41 60.34 47.09 62.42ZM40.54 51.19L38.23 50.11L68.90 50.11L68.90 44.86L56.38 44.86L56.38 40.39L66.10 40.39L66.10 35.42L56.38 35.42L56.38 30.96L67.61 30.96L67.61 25.70L37.15 25.70L37.15 30.96L49.90 30.96L49.90 35.42L39.67 35.42L39.67 40.39L49.90 40.39L49.90 44.86L38.02 44.86L38.02 49.97L34.99 48.53C28.37 54.86 15.62 60.62 2.74 64.01C4.18 65.30 6.48 68.18 7.42 69.77C12.31 68.26 17.06 66.38 21.38 64.30L21.38 67.46L48.38 67.46L48.38 63.00C53.78 65.38 59.69 67.54 65.30 68.90C66.31 67.25 68.40 64.58 69.84 63.14C58.61 60.98 46.30 56.45 39.38 52.27Z"/></svg>
