<svg xmlns="http://www.w3.org/2000/svg" xmlns:xlink="http://www.w3.org/1999/xlink" width="72.00000000000001" height="106.56000000000002"><path fill="red" stroke="red" d="M33.91 47.52L22.90 48.46L22.90 42.98L32.83 42.98L32.83 37.66L22.90 37.66L22.90 31.46L33.84 31.46L33.84 26.06L4.90 26.06L4.90 31.46L15.98 31.46L15.98 37.66L6.55 37.66L6.55 42.98L15.98 42.98L15.98 49.03C11.16 49.39 6.91 49.68 3.46 49.90L3.96 55.66C12.10 54.86 23.18 53.86 33.84 52.70ZM17.78 80.64L17.78 70.20L34.99 70.20L34.99 64.37L17.78 64.37L17.78 57.96L10.58 57.96L10.58 78.41C10.58 81.14 8.50 82.22 6.98 82.73C7.99 84.24 9.00 87.26 9.36 89.06C11.38 88.06 14.33 87.55 35.93 83.59C35.64 82.15 35.42 79.49 35.42 77.62ZM68.54 49.75L55.66 49.75L55.66 43.06L66.31 43.06L66.31 37.73L55.66 37.73L55.66 31.46L67.61 31.46L67.61 26.06L37.15 26.06L37.15 31.46L48.74 31.46L48.74 37.73L38.45 37.73L38.45 43.06L48.74 43.06L48.74 49.75L36.29 49.75L36.29 55.22L68.54 55.22ZM49.61 82.01C46.58 82.01 46.01 81.58 46.01 79.20L46.01 70.13L64.51 70.13L64.51 64.30L46.01 64.30L46.01 57.46L38.88 57.46L38.88 79.27C38.88 86.18 40.82 88.27 48.67 88.27L60.05 88.27C66.67 88.27 68.62 85.61 69.41 75.96C67.46 75.53 64.58 74.45 63.00 73.30C62.64 80.64 62.14 82.01 59.47 82.01Z"/></svg>
