<svg xmlns="http://www.w3.org/2000/svg" xmlns:xlink="http://www.w3.org/1999/xlink" width="72.00000000000001" height="106.56000000000002"><path fill="red" stroke="red" d="M26.57 65.16L18.94 67.25L18.94 53.42L26.93 53.42L26.93 47.23L18.94 47.23L18.94 33.48L27.58 33.48L27.58 27.29L3.74 27.29L3.74 33.48L12.53 33.48L12.53 47.23L4.18 47.23L4.18 53.42L12.53 53.42L12.53 68.98C8.71 69.98 5.18 70.92 2.30 71.57L3.67 77.98C10.30 76.18 19.08 73.66 27.22 71.21ZM27.94 86.40C31.82 82.51 33.48 75.96 34.27 69.55L29.02 68.18C28.22 74.16 26.57 80.21 22.97 83.74ZM36.72 70.49C37.51 74.59 37.94 80.14 37.80 83.74L42.77 82.87C42.77 79.34 42.19 73.94 41.26 69.70ZM44.78 69.84C46.08 73.44 47.45 78.05 47.81 81.14L52.27 79.70C51.84 76.75 50.47 72.14 48.96 68.69ZM60.55 75.10C59.76 72.86 57.89 69.41 55.87 66.89L52.20 68.40C54.07 70.99 55.87 74.52 56.66 76.90ZM36.58 53.35L46.66 53.35L46.66 59.11L36.58 59.11ZM46.66 31.82L46.66 37.15L36.58 37.15L36.58 31.82ZM46.66 48.02L36.58 48.02L36.58 42.41L46.66 42.41ZM52.63 59.11L52.63 53.35L64.80 53.35L64.80 48.02L52.63 48.02L52.63 42.41L64.66 42.41L64.66 37.15L52.63 37.15L52.63 31.82L67.18 31.82L67.18 25.92L30.38 25.92L30.38 64.94L62.21 64.94C61.56 76.82 60.84 81.43 59.76 82.80C59.11 83.45 58.54 83.59 57.46 83.59C56.30 83.59 53.78 83.52 50.90 83.23C51.84 84.82 52.49 87.41 52.56 89.14C55.73 89.28 58.82 89.28 60.48 89.06C62.42 88.85 63.79 88.27 65.09 86.76C66.96 84.60 67.75 78.19 68.62 61.78C68.69 60.91 68.69 59.11 68.69 59.11Z"/></svg>
