<svg xmlns="http://www.w3.org/2000/svg" xmlns:xlink="http://www.w3.org/1999/xlink" width="72.00000000000001" height="106.56000000000002"><path fill="red" stroke="red" d="M21.67 35.50L17.78 35.50L17.78 31.32L21.67 31.32ZM29.95 40.03L29.95 47.88L26.06 47.88L26.06 40.03ZM17.78 40.03L21.67 40.03L21.67 47.88L17.78 47.88ZM9.65 40.03L13.39 40.03L13.39 47.88L9.65 47.88ZM13.39 35.50L4.90 35.50L4.90 52.49L34.99 52.49L34.99 35.50L26.06 35.50L26.06 31.32L36.14 31.32L36.14 26.14L3.74 26.14L3.74 31.32L13.39 31.32ZM32.54 60.62L32.54 55.44L7.49 55.44L7.49 60.62ZM8.93 71.42C7.56 75.67 5.40 80.14 2.74 83.23C3.96 83.88 6.26 85.25 7.27 86.11C9.86 82.73 12.46 77.54 14.04 72.65ZM34.99 69.77L34.99 64.51L4.18 64.51L4.18 69.77L17.42 69.77L17.42 88.56L22.82 88.56L22.82 69.77ZM25.34 73.08C27.07 76.25 28.80 80.57 29.38 83.38L34.13 81.29C33.41 78.62 31.61 74.38 29.81 71.28ZM44.06 33.34C52.20 32.54 61.20 31.10 67.82 29.30L64.44 24.05C58.10 26.06 47.81 27.65 38.95 28.66L38.95 42.12C38.95 54.00 38.52 71.86 33.77 84.96C34.70 85.54 37.08 87.70 37.80 88.85C43.20 74.95 44.06 54.58 44.06 42.12ZM52.99 67.61C54.07 70.78 55.08 74.45 55.87 78.05L49.75 79.49C52.99 70.42 53.21 59.83 53.21 51.91L53.21 36.07L48.53 36.07L48.53 51.77C48.53 61.42 48.46 74.16 42.55 83.16C43.49 83.88 45.36 85.90 46.01 86.90C47.02 86.18 48.67 85.46 57.02 83.02C57.38 84.82 57.60 86.40 57.82 87.84L61.63 86.69C60.91 81.29 58.82 72.94 56.59 66.60ZM59.11 35.78C59.76 56.45 61.06 77.11 65.38 88.85C66.46 87.34 68.54 85.39 69.91 84.38C65.88 74.30 64.58 54.36 63.86 35.28Z"/></svg>
