<svg xmlns="http://www.w3.org/2000/svg" xmlns:xlink="http://www.w3.org/1999/xlink" width="72.00000000000001" height="106.56000000000002"><path fill="red" stroke="red" d="M30.82 69.48C27.86 70.20 24.84 70.92 21.89 71.57L21.89 59.40L29.45 59.40L29.45 53.50L21.89 53.50L21.89 43.13L29.59 43.13L29.59 37.30L21.89 37.30L21.89 25.78L15.77 25.78L15.77 37.30L11.66 37.30C12.24 34.63 12.74 31.82 13.10 29.02L7.42 28.01C6.55 35.50 4.97 43.06 2.38 48.10C3.67 48.82 6.12 50.26 7.13 51.12C8.28 48.89 9.36 46.15 10.22 43.13L15.77 43.13L15.77 53.57L6.55 53.57L6.55 59.40L15.77 59.40L15.77 72.86C11.09 73.94 6.84 74.88 3.38 75.46L4.39 81.79C11.95 79.92 21.96 77.54 31.46 75.24ZM37.80 42.98L45.79 42.98L45.79 49.46L37.80 49.46ZM37.80 31.46L45.79 31.46L45.79 37.87L37.80 37.87ZM59.98 37.87L51.55 37.87L51.55 31.46L59.98 31.46ZM59.98 49.46L51.55 49.46L51.55 42.98L59.98 42.98ZM50.04 60.84C50.33 58.90 50.47 56.88 50.62 54.79L66.17 54.79L66.17 26.06L31.82 26.06L31.82 54.79L44.06 54.79C43.92 56.95 43.78 58.90 43.56 60.84L30.53 60.84L30.53 66.74L42.41 66.74C40.46 74.52 36.00 80.14 25.06 83.59C26.42 84.82 28.08 87.19 28.80 88.85C41.76 84.38 46.87 76.90 49.10 66.74L60.34 66.74C59.90 76.54 59.33 80.57 58.25 81.72C57.60 82.37 56.88 82.44 55.58 82.44C54.22 82.44 50.69 82.44 47.02 82.08C48.02 83.81 48.89 86.47 49.03 88.34C52.92 88.49 56.59 88.49 58.61 88.27C60.91 88.06 62.35 87.55 63.79 85.97C65.59 83.88 66.31 77.98 66.89 63.50C66.96 62.64 67.03 60.84 67.03 60.84Z"/></svg>
