<svg xmlns="http://www.w3.org/2000/svg" xmlns:xlink="http://www.w3.org/1999/xlink" width="72.00000000000001" height="106.56000000000002"><path fill="red" stroke="red" d="M39.24 61.56L39.24 49.75C45.79 53.14 53.42 57.60 59.18 61.56ZM39.17 81.79L39.17 76.32L52.63 76.32L52.63 81.79ZM19.51 76.32L32.69 76.32L32.69 81.79L19.51 81.79ZM32.47 61.56L14.54 61.56C21.24 58.46 27.72 54.22 32.47 49.39ZM32.69 66.74L32.69 71.71L19.51 71.71L19.51 66.74ZM52.63 71.71L39.17 71.71L39.17 66.74L52.63 66.74ZM68.69 60.34C64.30 56.88 56.38 52.27 49.03 48.31L67.68 48.31L67.68 42.55L52.42 42.55C54.36 39.96 56.59 36.94 58.61 34.06L52.06 31.03C50.54 34.56 47.59 39.31 45.29 42.55L39.24 42.55L39.24 31.68C47.74 30.96 55.80 29.81 61.99 28.30L57.60 23.40C46.58 26.06 25.78 27.43 8.93 27.72C9.50 29.09 10.22 31.46 10.37 32.98C17.35 32.90 24.91 32.62 32.47 32.11L32.47 42.55L22.10 42.55L25.85 40.97C24.62 38.88 22.18 35.35 20.38 32.76L14.62 34.99C16.20 37.30 18.14 40.32 19.37 42.55L4.46 42.55L4.46 48.31L25.20 48.31C19.37 53.06 11.02 57.10 3.17 59.26C4.46 60.48 6.41 62.93 7.34 64.44C9.14 63.86 11.09 63.14 12.89 62.35L12.89 89.42L19.51 89.42L19.51 86.98L52.63 86.98L52.63 89.14L59.62 89.14L59.62 61.85C61.49 63.22 63.22 64.37 64.58 65.52Z"/></svg>
