<svg xmlns="http://www.w3.org/2000/svg" xmlns:xlink="http://www.w3.org/1999/xlink" width="72.00000000000001" height="106.56000000000002"><path fill="red" stroke="red" d="M20.88 36.94L68.18 36.94L68.18 30.67L46.01 30.67C45.22 28.30 43.99 25.20 42.91 22.75L36.07 24.05C36.86 25.99 37.80 28.51 38.52 30.67L13.97 30.67L13.97 47.88C12.53 44.57 10.15 40.18 8.14 36.79L2.81 38.88C5.11 42.91 7.85 48.31 8.86 51.62L13.97 49.54L13.97 52.34C13.97 54.00 13.97 55.58 13.90 57.38C9.58 60.05 5.40 62.64 2.45 64.30L4.90 70.56C7.63 68.69 10.44 66.74 13.32 64.66C12.38 72.07 10.15 79.70 4.90 85.68C6.62 86.40 9.50 88.56 10.80 89.78C19.51 79.70 20.88 63.72 20.88 52.34ZM53.28 46.08L52.06 46.37L40.39 46.37C41.33 44.21 42.12 41.98 42.84 39.67L36.22 38.23C33.48 47.52 28.58 56.09 22.25 61.42C23.83 62.42 26.57 64.58 27.79 65.66C31.46 62.21 34.78 57.60 37.58 52.34L49.46 52.34C44.35 67.18 33.12 78.55 20.45 83.66C21.96 85.03 23.83 87.77 24.70 89.42C34.06 85.10 42.55 78.26 48.82 68.69C52.34 77.69 57.67 84.82 65.23 88.78C66.24 86.98 68.26 84.46 69.70 83.16C61.42 79.49 55.73 71.50 52.78 61.85C54.79 57.60 56.52 53.06 57.82 48.02Z"/></svg>
