<svg xmlns="http://www.w3.org/2000/svg" xmlns:xlink="http://www.w3.org/1999/xlink" width="72.00000000000001" height="106.56000000000002"><path fill="red" stroke="red" d="M12.10 49.39C11.59 45.86 9.65 40.39 7.63 36.07L3.10 38.09C5.11 42.48 6.77 48.17 7.20 51.84ZM18.50 34.85L69.05 34.85L69.05 29.30L45.72 29.30C44.86 27.22 43.63 24.62 42.48 22.54L35.86 24.62C36.58 26.06 37.37 27.65 38.09 29.30L12.53 29.30L12.53 52.06C12.53 54.00 12.53 56.02 12.38 58.10C8.57 60.12 5.04 61.99 2.38 63.22L4.39 69.05C6.91 67.54 9.36 66.10 11.88 64.51C10.94 71.71 8.78 79.13 3.67 84.96C4.97 85.75 7.34 87.98 8.28 89.28C17.14 79.13 18.50 63.29 18.50 52.06ZM22.61 37.22L22.61 47.38C22.61 52.42 23.76 54.36 28.94 54.36L36.07 54.36C37.80 54.36 39.53 54.29 40.54 53.93C40.39 52.70 40.25 50.83 40.03 49.39C39.02 49.68 37.15 49.75 35.93 49.75L29.38 49.75C28.15 49.75 27.86 49.18 27.86 47.45L27.86 45.14L40.10 45.14L40.10 40.97L27.86 40.97L27.86 37.22ZM41.69 73.44L41.69 68.54L34.42 68.54L34.42 68.33L34.42 63.29L40.75 63.29L40.75 58.75L28.08 58.75C28.37 57.67 28.58 56.66 28.80 55.58L24.19 54.65C23.33 58.68 21.89 62.78 19.73 65.81C20.88 66.38 23.04 67.46 23.90 68.18C24.84 66.89 25.70 65.16 26.50 63.29L29.02 63.29L29.02 68.26L29.02 68.54L20.16 68.54L20.16 73.44L28.51 73.44C27.65 77.62 25.06 82.15 18.00 85.61C19.30 86.54 20.88 88.27 21.74 89.50C26.86 86.69 29.95 83.30 31.75 79.92C33.62 81.65 35.57 83.66 36.58 85.03L39.89 81.22C38.52 79.63 35.93 77.26 33.55 75.24C33.77 74.66 33.91 74.09 33.98 73.44ZM62.06 83.16C60.41 83.16 58.82 83.02 57.24 82.66L57.24 73.22L66.74 73.22L66.74 68.33L57.24 68.33L57.24 60.26L62.06 60.26C61.56 62.14 61.06 63.94 60.55 65.30L64.73 66.38C65.95 63.79 67.10 59.62 68.04 56.02L64.58 55.22L63.72 55.44L60.62 55.44L62.64 52.99C61.56 52.13 60.05 51.19 58.39 50.11C61.49 47.52 64.73 44.21 67.03 41.04L63.50 38.38L62.35 38.66L43.27 38.66L43.27 43.20L58.46 43.20C57.10 44.78 55.58 46.37 54.14 47.74C52.20 46.66 50.33 45.65 48.67 44.86L45.50 48.31C49.32 50.33 54.07 53.06 57.31 55.44L42.12 55.44L42.12 60.26L52.13 60.26L52.13 80.14C50.54 78.77 49.25 76.75 48.17 73.87C48.60 70.78 48.82 67.61 48.96 64.22L44.14 64.22C43.85 73.44 42.84 81.29 38.02 85.75C39.24 86.47 40.68 88.27 41.40 89.42C43.85 87.05 45.58 84.10 46.66 80.57C50.33 86.76 55.44 88.34 61.70 88.34L67.61 88.34C67.90 86.83 68.62 84.38 69.26 83.16Z"/></svg>
