<svg xmlns="http://www.w3.org/2000/svg" xmlns:xlink="http://www.w3.org/1999/xlink" width="72.00000000000001" height="106.56000000000002"><path fill="red" stroke="red" d="M54.36 69.84C52.78 72.29 50.83 74.45 48.60 76.39C44.57 74.02 40.39 71.78 36.79 69.84ZM58.46 64.94L57.46 65.09L33.55 65.09L33.55 69.84L36.07 69.84L33.05 73.30C36.36 75.17 40.10 77.33 43.78 79.56C39.67 81.79 34.99 83.45 29.88 84.38C30.96 85.61 32.26 87.77 32.83 89.28C38.88 87.84 44.35 85.75 49.03 82.73C53.06 85.18 56.66 87.48 59.18 89.35L62.64 84.96C60.34 83.38 57.10 81.36 53.57 79.27C57.31 75.89 60.26 71.64 62.21 66.31ZM62.57 30.74C60.34 33.05 56.66 36.36 53.57 38.66C51.91 37.44 50.40 36.22 48.96 34.78C51.98 32.69 55.58 29.88 58.61 27.07L53.78 23.62C51.84 25.92 48.53 28.94 45.65 31.18C43.78 28.73 42.19 26.14 40.90 23.40L35.57 24.98C39.17 32.90 44.50 39.46 51.41 44.42L36.43 44.42L36.43 49.82C36.43 53.21 35.64 56.95 30.31 59.90L30.31 44.71L20.16 44.71C26.21 40.39 31.32 34.78 34.42 27.72L30.17 25.70L29.09 25.92L10.01 25.92L10.01 31.25L25.56 31.25C23.98 33.48 22.10 35.64 19.87 37.51C17.71 35.71 14.40 33.48 11.74 31.97L7.92 35.57C10.37 37.08 13.32 39.17 15.34 40.97C11.30 43.63 6.70 45.79 2.16 47.16C3.38 48.31 4.97 50.69 5.76 52.13C8.21 51.26 10.73 50.18 13.18 48.96L13.18 49.97L24.34 49.97L24.34 56.45L10.80 56.45C10.22 61.78 9.14 68.40 8.21 72.79L23.98 72.79C23.40 78.84 22.68 81.58 21.74 82.44C21.10 83.02 20.38 83.09 19.15 83.09C17.71 83.09 13.97 83.02 10.15 82.66C11.23 84.24 12.02 86.62 12.17 88.34C16.06 88.49 19.73 88.56 21.67 88.34C23.90 88.20 25.42 87.77 26.78 86.40C28.58 84.53 29.38 80.21 30.24 70.34C30.38 69.48 30.46 67.75 30.46 67.75L14.69 67.75C15.05 65.81 15.34 63.65 15.62 61.56L30.31 61.56L30.31 60.41C31.61 61.34 33.55 63.22 34.34 64.30C40.68 60.55 42.12 54.79 42.12 49.97L42.12 49.68L50.54 49.68L50.54 55.37C50.54 60.34 51.55 62.35 56.59 62.35L61.85 62.35C63.29 62.35 64.87 62.28 65.66 61.99C65.45 60.62 65.30 58.68 65.23 57.31C64.44 57.53 62.71 57.60 61.70 57.60L57.24 57.60C56.23 57.60 56.02 57.10 56.02 55.44L56.02 47.30C58.90 48.96 62.06 50.33 65.38 51.34C66.31 49.75 68.11 47.30 69.41 46.08C65.30 45.00 61.49 43.42 58.03 41.54C61.06 39.46 64.58 36.72 67.46 34.13Z"/></svg>
