<svg xmlns="http://www.w3.org/2000/svg" xmlns:xlink="http://www.w3.org/1999/xlink" width="72.00000000000001" height="106.56000000000002"><path fill="red" stroke="red" d="M53.93 64.01L25.13 64.01L25.13 59.90L53.93 59.90ZM25.13 81.43L25.13 77.04L53.93 77.04L53.93 81.43ZM25.13 68.47L53.93 68.47L53.93 72.58L25.13 72.58ZM67.54 50.54L67.54 45.22L30.89 45.22C31.54 43.85 32.18 42.34 32.76 40.90L63.50 40.90L63.50 35.64L34.56 35.64C35.06 34.13 35.57 32.69 36.00 31.18C46.01 30.60 55.58 29.66 63.00 28.37L58.97 23.54C47.30 25.70 26.06 26.71 8.64 26.78C9.29 28.15 9.86 30.38 9.94 31.90C15.91 31.90 22.25 31.75 28.58 31.54C28.22 32.90 27.86 34.27 27.36 35.64L9.58 35.64L9.58 40.90L25.56 40.90C24.91 42.34 24.26 43.85 23.54 45.22L4.46 45.22L4.46 50.54L20.66 50.54C16.27 57.82 10.30 64.15 2.52 68.54C3.82 69.77 5.76 72.22 6.62 73.80C11.23 71.14 15.26 67.82 18.72 64.15L18.72 89.42L25.13 89.42L25.13 86.69L53.93 86.69L53.93 89.42L60.62 89.42L60.62 54.72L25.92 54.72C26.78 53.35 27.50 51.98 28.30 50.54Z"/></svg>
