<svg xmlns="http://www.w3.org/2000/svg" xmlns:xlink="http://www.w3.org/1999/xlink" width="72.00000000000001" height="106.56000000000002"><path fill="red" stroke="red" d="M53.93 33.77C53.28 35.57 52.13 38.09 51.19 40.18L41.26 40.18C40.90 38.38 39.82 35.71 38.59 33.77ZM69.05 40.18L57.67 40.18C58.68 38.59 59.76 36.65 60.70 34.78L54.36 33.77L67.10 33.77L67.10 28.58L50.54 28.58C49.90 26.78 48.89 24.55 47.81 22.82L41.69 24.34C42.34 25.63 42.98 27.14 43.56 28.58L26.42 28.58L26.42 33.77L37.66 33.77L32.62 34.63C33.41 36.29 34.27 38.45 34.78 40.18L24.77 40.18L24.77 45.43L69.05 45.43ZM17.42 33.19L17.42 42.05L10.51 42.05L10.51 33.19ZM10.51 56.74L10.51 47.74L17.42 47.74L17.42 56.74ZM10.51 71.64L10.51 62.42L17.42 62.42L17.42 71.64ZM22.90 77.62L22.90 27.36L5.26 27.36L5.26 83.59L10.51 83.59L10.51 77.62ZM34.27 60.55L43.34 60.55L43.34 64.66L34.27 64.66ZM34.27 52.70L43.34 52.70L43.34 56.74L34.27 56.74ZM58.90 56.74L49.25 56.74L49.25 52.70L58.90 52.70ZM58.90 64.66L49.25 64.66L49.25 60.55L58.90 60.55ZM49.61 82.15L49.61 77.54L66.38 77.54L66.38 72.50L49.61 72.50L49.61 68.62L65.09 68.62L65.09 48.67L28.37 48.67L28.37 68.62L42.98 68.62L42.98 72.50L26.93 72.50L26.93 77.54L42.98 77.54L42.98 82.15L22.54 82.15L22.54 87.41L69.12 87.41L69.12 82.15Z"/></svg>
