<svg xmlns="http://www.w3.org/2000/svg" xmlns:xlink="http://www.w3.org/1999/xlink" width="72.00000000000001" height="106.56000000000002"><path fill="red" stroke="red" d="M18.07 74.95L12.96 74.95L12.96 53.71L18.07 53.71ZM23.26 80.28L23.26 48.46L13.25 48.46C14.47 43.42 15.48 38.02 16.34 32.54L24.48 32.54L24.48 26.93L3.38 26.93L3.38 32.54L10.51 32.54C9.07 44.14 6.62 55.15 2.02 62.42C2.95 63.94 4.39 67.39 4.75 68.90C5.90 67.32 6.91 65.52 7.85 63.65L7.85 85.90L12.96 85.90L12.96 80.28ZM32.47 59.18C32.62 56.95 32.62 54.79 32.62 52.78L32.62 48.02L38.81 48.02L38.81 59.18ZM38.81 31.61L38.81 42.34L32.62 42.34L32.62 31.61ZM44.35 25.70L27.07 25.70L27.07 52.78C27.07 63.00 26.64 76.32 21.02 85.54C22.25 86.26 24.70 88.06 25.56 89.14C29.66 82.58 31.39 73.58 32.11 65.02L38.81 65.02L38.81 80.86C38.81 81.79 38.59 82.08 37.73 82.08C37.15 82.08 34.78 82.08 32.40 82.01C33.12 83.52 33.91 86.33 34.06 87.84C37.94 87.84 40.39 87.77 42.19 86.69C43.85 85.68 44.35 83.88 44.35 81.00ZM53.93 59.18C53.93 57.96 53.93 56.88 53.93 55.80L53.93 48.10L60.70 48.10L60.70 59.18ZM60.70 31.61L60.70 42.34L53.93 42.34L53.93 31.61ZM66.38 25.70L48.31 25.70L48.31 55.80C48.31 65.23 48.02 77.40 43.63 85.68C44.93 86.40 47.30 88.34 48.24 89.42C51.84 83.02 53.14 73.66 53.64 65.09L60.70 65.09L60.70 81.43C60.70 82.30 60.41 82.58 59.62 82.66C58.90 82.66 56.52 82.66 54.00 82.51C54.79 84.17 55.51 87.05 55.73 88.63C59.76 88.63 62.28 88.49 64.15 87.41C65.88 86.40 66.38 84.46 66.38 81.50Z"/></svg>
