<svg xmlns="http://www.w3.org/2000/svg" xmlns:xlink="http://www.w3.org/1999/xlink" width="72.00000000000001" height="106.56000000000002"><path fill="red" stroke="red" d="M20.52 74.45L13.82 74.45L13.82 54.58L20.52 54.58ZM3.74 32.76L12.10 32.76C10.15 42.98 6.98 52.56 2.23 58.97C3.17 60.77 4.61 64.80 4.90 66.53C6.12 65.02 7.20 63.43 8.28 61.63L8.28 85.90L13.82 85.90L13.82 80.35L26.06 80.35L26.06 48.67L14.11 48.67C15.91 43.63 17.28 38.23 18.36 32.76L27.65 32.76L27.65 26.71L3.74 26.71ZM37.22 52.63L37.22 46.37L44.71 46.37C44.35 48.38 43.85 50.54 42.84 52.63ZM37.22 35.21L45.29 35.21L45.29 39.82L45.29 41.33L37.22 41.33ZM59.62 41.33L51.41 41.33L51.41 39.96L51.41 35.21L59.62 35.21ZM59.62 52.63L49.54 52.63C50.18 50.54 50.69 48.38 50.98 46.37L59.62 46.37ZM68.54 69.41L55.94 69.41L55.94 58.97L49.54 58.97L49.54 69.41L35.71 69.41C41.18 66.02 44.78 62.06 47.09 57.96L65.95 57.96L65.95 29.88L48.67 29.88C49.61 28.08 50.54 25.99 51.26 23.98L43.63 23.18C43.27 25.13 42.62 27.65 41.90 29.88L31.10 29.88L31.10 57.96L39.60 57.96C37.37 60.77 34.27 63.58 29.95 65.95C31.25 66.82 33.05 68.26 34.27 69.41L27.86 69.41L27.86 75.17L49.54 75.17L49.54 89.21L55.94 89.21L55.94 75.17L68.54 75.17Z"/></svg>
