<svg xmlns="http://www.w3.org/2000/svg" xmlns:xlink="http://www.w3.org/1999/xlink" width="72.00000000000001" height="106.56000000000002"><path fill="red" stroke="red" d="M19.15 74.45L12.67 74.45L12.67 54.58L19.15 54.58ZM69.05 56.66L69.05 52.06L33.55 52.06L33.55 33.34L68.83 33.34L68.83 28.37L53.93 28.37C53.35 26.64 52.42 24.41 51.55 22.68L45.22 24.19C45.79 25.49 46.30 26.93 46.87 28.37L27.65 28.37L27.65 55.01C27.65 62.57 27.29 71.64 24.19 79.27L24.19 48.67L12.96 48.67C14.47 43.63 15.77 38.23 16.78 32.76L25.49 32.76L25.49 26.71L3.53 26.71L3.53 32.76L11.02 32.76C9.36 42.98 6.48 52.56 2.23 58.97C3.02 60.77 4.25 64.80 4.61 66.53C5.69 65.02 6.70 63.43 7.63 61.63L7.63 85.90L12.67 85.90L12.67 80.35L23.69 80.35C22.82 82.15 21.82 83.88 20.66 85.54C21.89 86.18 24.34 88.34 25.20 89.50C32.04 80.78 33.41 67.18 33.55 56.66ZM56.30 42.55L56.30 45.79L45.72 45.79L45.72 42.55ZM62.06 49.68L62.06 42.55L67.75 42.55L67.75 38.59L62.06 38.59L62.06 34.92L56.30 34.92L56.30 38.59L45.72 38.59L45.72 34.92L40.18 34.92L40.18 38.59L35.21 38.59L35.21 42.55L40.18 42.55L40.18 49.68ZM40.90 70.42L48.17 70.42L48.17 74.23L40.90 74.23ZM40.90 63.00L48.17 63.00L48.17 66.74L40.90 66.74ZM61.63 66.74L54.00 66.74L54.00 63.00L61.63 63.00ZM61.63 74.23L54.00 74.23L54.00 70.42L61.63 70.42ZM66.89 78.26L66.89 58.97L35.78 58.97L35.78 78.26ZM43.85 78.91C40.82 80.78 35.42 83.45 31.82 85.03C32.83 86.26 34.13 88.06 34.85 89.28C38.66 87.48 44.06 84.96 48.38 82.66ZM54.22 82.66C58.32 84.74 63.14 87.55 66.02 89.42L69.41 85.32C66.38 83.59 61.42 80.93 57.10 78.84Z"/></svg>
