<svg xmlns="http://www.w3.org/2000/svg" xmlns:xlink="http://www.w3.org/1999/xlink" width="72.00000000000001" height="106.56000000000002"><path fill="red" stroke="red" d="M31.18 62.14C29.74 60.70 24.34 55.37 21.46 52.78C24.98 48.10 27.94 42.91 30.10 37.51L26.50 34.99L25.27 35.28L18.58 35.28L23.26 32.47C22.03 29.88 19.15 26.06 16.49 23.18L11.23 26.21C13.68 28.94 16.20 32.62 17.50 35.28L4.32 35.28L4.32 41.33L21.74 41.33C17.28 49.68 9.79 57.53 2.38 61.92C3.24 63.22 4.68 66.74 5.04 68.54C8.06 66.67 11.02 64.22 13.90 61.42L13.90 89.21L20.38 89.21L20.38 59.62C22.82 62.42 25.56 65.66 27.00 67.75ZM68.83 45.94L41.04 45.94L41.04 35.71C50.26 34.06 60.05 31.82 67.46 28.94L61.78 23.40C55.15 26.35 44.14 29.09 34.13 30.67L34.13 49.97C34.13 60.48 33.55 75.02 27.14 85.32C28.80 85.90 31.82 87.77 33.12 88.99C39.46 78.77 40.90 63.72 41.04 52.42L52.70 52.42L52.70 89.06L59.54 89.06L59.54 52.42L68.83 52.42Z"/></svg>
