<svg xmlns="http://www.w3.org/2000/svg" xmlns:xlink="http://www.w3.org/1999/xlink" width="72.00000000000001" height="106.56000000000002"><path fill="red" stroke="red" d="M39.10 57.24L39.10 46.58C48.24 51.05 58.97 57.10 64.44 61.13L69.70 56.88C64.37 53.21 55.15 48.17 46.87 44.21L67.03 44.21L67.03 38.23L39.10 38.23L39.10 31.61C46.87 30.82 54.22 29.74 60.26 28.51L55.30 23.26C44.28 25.78 24.84 27.36 8.28 27.94C8.93 29.30 9.72 31.90 9.86 33.34C17.06 33.12 24.84 32.69 32.47 32.11L32.47 38.23L4.75 38.23L4.75 44.21L25.06 44.21C19.15 49.82 10.51 54.72 2.30 57.31C3.74 58.61 5.62 61.06 6.62 62.71C8.93 61.85 11.30 60.77 13.61 59.62L13.61 64.66L23.47 64.66C21.74 72.94 17.78 79.92 4.75 83.74C6.12 85.03 7.92 87.62 8.64 89.42C23.69 84.38 28.37 75.53 30.46 64.66L41.40 64.66C40.68 67.54 39.74 70.34 38.95 72.58L55.22 72.58C54.43 78.48 53.64 81.22 52.56 82.22C51.84 82.80 50.98 82.87 49.68 82.87C48.02 82.87 43.78 82.80 39.67 82.44C40.82 84.17 41.69 86.69 41.76 88.56C46.01 88.78 50.04 88.78 52.20 88.63C54.72 88.49 56.45 87.98 57.96 86.47C60.05 84.53 61.13 79.92 62.21 69.55C62.35 68.69 62.57 66.89 62.57 66.89L47.02 66.89C47.74 64.30 48.53 61.49 49.25 58.97L14.83 58.97C21.53 55.37 27.79 50.40 32.47 45.00L32.47 57.24Z"/></svg>
