<svg xmlns="http://www.w3.org/2000/svg" xmlns:xlink="http://www.w3.org/1999/xlink" width="72.00000000000001" height="106.56000000000002"><path fill="red" stroke="red" d="M39.60 59.69L54.65 59.69L54.65 63.94L39.60 63.94ZM39.60 49.90L54.65 49.90L54.65 54.14L39.60 54.14ZM61.34 68.76L61.34 59.69L68.47 59.69L68.47 54.14L61.34 54.14L61.34 45.07L39.60 45.07L39.60 41.04L66.96 41.04L66.96 35.35L39.60 35.35L39.60 30.89C48.17 30.38 56.23 29.52 62.78 28.30L58.75 23.04C46.66 25.13 25.70 26.28 8.21 26.50C8.78 27.86 9.50 30.38 9.65 31.90C16.85 31.90 24.84 31.68 32.62 31.32L32.62 35.35L5.18 35.35L5.18 41.04L32.62 41.04L32.62 45.07L10.80 45.07L10.80 49.90L32.62 49.90L32.62 54.14L3.82 54.14L3.82 59.69L32.62 59.69L32.62 63.94L10.08 63.94L10.08 68.76L27.14 68.76C20.88 74.09 11.59 78.55 2.88 80.86C4.32 82.22 6.19 84.67 7.20 86.33C16.34 83.45 25.99 77.98 32.62 71.42L32.62 89.35L39.60 89.35L39.60 71.28C46.15 77.90 55.80 83.38 65.16 86.11C66.10 84.53 67.90 81.94 69.41 80.71C60.34 78.48 51.05 74.09 45.00 68.76Z"/></svg>
