<svg xmlns="http://www.w3.org/2000/svg" xmlns:xlink="http://www.w3.org/1999/xlink" width="72.00000000000001" height="106.56000000000002"><path fill="red" stroke="red" d="M27.94 61.63C26.64 59.90 20.81 53.42 18.72 51.26L18.72 49.68L27.36 49.68L27.36 43.49L18.72 43.49L18.72 31.90C21.89 31.03 24.98 30.17 27.58 29.02L23.54 23.62C18.65 25.92 10.58 28.01 3.53 29.30C4.25 30.74 5.11 33.05 5.47 34.49C7.78 34.13 10.30 33.77 12.82 33.26L12.82 43.49L3.53 43.49L3.53 49.68L11.16 49.68C9.07 57.17 5.33 65.81 1.80 70.78C2.88 72.43 4.46 75.31 5.11 77.40C7.92 73.15 10.66 66.82 12.82 60.26L12.82 89.28L18.72 89.28L18.72 58.25C20.74 61.42 22.97 65.02 23.90 67.03ZM52.99 64.80L52.99 72.14L43.42 72.14L43.42 64.80ZM57.89 76.97L57.89 59.90L38.52 59.90L38.52 80.21L43.42 80.21L43.42 76.97ZM50.98 50.33L50.98 43.99L60.91 43.99L60.91 50.33ZM35.86 43.99L45.79 43.99L45.79 50.33L35.86 50.33ZM45.79 32.18L45.79 38.74L35.86 38.74L35.86 32.18ZM60.91 32.18L60.91 38.74L50.98 38.74L50.98 32.18ZM66.60 26.28L30.10 26.28L30.10 53.21C30.10 63.50 29.45 76.68 22.54 85.61C23.90 86.26 26.28 88.13 27.29 89.21C34.34 80.28 35.71 66.38 35.86 55.58L60.91 55.58L60.91 81.86C60.91 82.94 60.55 83.30 59.47 83.30C58.61 83.38 55.37 83.38 51.91 83.23C52.70 84.74 53.64 87.48 53.86 88.99C58.82 89.06 61.92 88.85 63.94 87.84C65.95 86.90 66.60 85.10 66.60 81.94Z"/></svg>
