<svg xmlns="http://www.w3.org/2000/svg" xmlns:xlink="http://www.w3.org/1999/xlink" width="72.00000000000001" height="106.56000000000002"><path fill="red" stroke="red" d="M60.26 48.74L42.84 48.74L42.84 42.91L60.26 42.91ZM60.26 59.40L42.84 59.40L42.84 53.57L60.26 53.57ZM60.26 70.27L42.84 70.27L42.84 64.22L60.26 64.22ZM36.79 37.80L36.79 75.38L66.60 75.38L66.60 37.80L52.70 37.80C53.35 36.00 54.07 33.98 54.79 32.04L68.18 32.04L68.18 26.28L34.49 26.28L34.49 32.04L47.59 32.04C47.23 33.91 46.80 36.00 46.30 37.80ZM25.99 45.79C28.30 45.79 30.89 45.65 32.04 45.29C31.75 43.99 31.54 41.40 31.39 39.82C30.10 40.18 27.58 40.32 25.85 40.32L14.47 40.32C12.60 40.32 12.17 39.60 12.17 37.37L12.17 34.92L31.25 34.92L31.25 29.52L12.17 29.52L12.17 23.54L6.41 23.54L6.41 37.30C6.41 43.70 8.14 45.79 14.76 45.79ZM33.62 76.18C32.11 74.74 25.92 69.41 23.04 67.18L34.27 67.18L34.27 61.63L22.39 61.63L22.39 55.51C26.28 55.01 29.95 54.36 33.05 53.57L29.95 48.17C23.76 49.97 13.54 51.19 4.82 51.84C5.47 53.35 6.26 55.44 6.48 56.95C9.65 56.81 13.03 56.59 16.42 56.23L16.42 61.63L4.10 61.63L4.10 67.18L14.33 67.18C11.16 71.64 6.70 76.03 2.52 78.62C3.53 80.21 4.75 82.80 5.26 84.53C9.22 81.79 13.25 77.33 16.42 72.50L16.42 89.14L22.39 89.14L22.39 72.50C25.13 75.60 28.37 79.34 29.81 81.36ZM43.27 76.10C40.54 79.27 34.70 82.94 29.66 84.96C31.10 86.18 33.05 88.06 34.06 89.42C39.24 87.12 45.29 83.23 48.89 79.49ZM53.50 79.78C57.60 82.58 62.86 86.62 65.23 89.35L70.34 85.68C67.68 83.02 62.35 79.13 58.32 76.46Z"/></svg>
