<svg xmlns="http://www.w3.org/2000/svg" xmlns:xlink="http://www.w3.org/1999/xlink" width="72.00000000000001" height="106.56000000000002"><path fill="red" stroke="red" d="M46.66 33.84C45.94 35.86 44.71 38.30 43.63 40.39L28.37 40.39C27.58 38.38 26.42 35.78 25.06 33.84ZM68.18 40.39L50.90 40.39C51.77 38.74 52.78 36.94 53.86 34.92L48.24 33.84L63.79 33.84L63.79 28.51L40.54 28.51C39.67 26.50 38.45 24.05 37.37 22.18L30.67 23.62C31.46 25.13 32.33 26.78 33.05 28.51L8.50 28.51L8.50 33.84L24.34 33.84L18.65 35.14C19.51 36.72 20.38 38.59 21.10 40.39L3.82 40.39L3.82 45.72L68.18 45.72ZM18.22 62.35L53.57 62.35L53.57 66.74L18.22 66.74ZM18.22 53.64L53.57 53.64L53.57 57.96L18.22 57.96ZM68.26 75.67L39.38 75.67L39.38 71.42L60.41 71.42L60.41 49.03L11.66 49.03L11.66 71.42L32.33 71.42L32.33 75.67L3.67 75.67L3.67 81.14L32.33 81.14L32.33 89.21L39.38 89.21L39.38 81.14L68.26 81.14Z"/></svg>
