<svg xmlns="http://www.w3.org/2000/svg" xmlns:xlink="http://www.w3.org/1999/xlink" width="72.00000000000001" height="106.56000000000002"><path fill="red" stroke="red" d="M21.31 32.33L17.71 34.92C19.94 37.08 22.61 40.10 23.76 42.05L28.30 38.45C27.14 36.79 24.70 34.20 22.68 32.33L35.42 32.33L35.42 27.14L18.29 27.14C18.86 26.21 19.37 25.27 19.87 24.34L13.90 22.46C11.52 27.43 7.42 32.33 3.02 35.57C4.39 36.65 6.62 38.95 7.63 40.10C10.08 38.02 12.60 35.28 14.83 32.33ZM54.00 60.12L39.17 60.12L39.17 56.30L54.00 56.30ZM39.17 47.88L54.00 47.88L54.00 51.26L39.17 51.26ZM60.84 43.06L39.17 43.06L39.17 39.31L32.40 39.31L32.40 43.06L12.31 43.06L12.31 47.88L32.40 47.88L32.40 51.26L3.74 51.26L3.74 56.30L32.40 56.30L32.40 60.12L11.66 60.12L11.66 65.02L32.40 65.02L32.40 68.40L9.58 68.40L9.58 73.51L32.40 73.51L32.40 77.11L5.04 77.11L5.04 82.37L32.40 82.37L32.40 89.21L39.17 89.21L39.17 82.37L67.10 82.37L67.10 77.11L39.17 77.11L39.17 73.51L62.57 73.51L62.57 68.40L39.17 68.40L39.17 65.02L60.84 65.02L60.84 56.30L68.33 56.30L68.33 51.26L60.84 51.26ZM47.45 27.22C47.95 26.21 48.46 25.20 48.82 24.12L42.70 22.54C40.82 27.43 37.22 32.11 33.12 35.14C34.49 36.14 37.08 38.09 38.09 39.17C40.25 37.44 42.34 34.99 44.28 32.40L52.34 32.40L48.82 34.70C51.12 36.86 53.78 39.89 55.01 41.76L59.76 38.30C58.61 36.65 56.23 34.20 54.22 32.40L68.69 32.40L68.69 27.22Z"/></svg>
