<svg xmlns="http://www.w3.org/2000/svg" xmlns:xlink="http://www.w3.org/1999/xlink" width="72.00000000000001" height="106.56000000000002"><path fill="red" stroke="red" d="M21.74 33.62L17.57 36.94C19.51 38.81 21.89 41.54 23.18 43.49L8.28 43.49C10.94 40.82 13.61 37.37 15.84 33.62ZM28.73 53.64L14.04 53.64L14.04 48.67L28.73 48.67ZM14.04 63.00L14.04 58.54L28.73 58.54L28.73 63.00ZM22.25 71.57C23.33 73.08 24.55 74.88 25.78 76.68L14.04 79.27L14.04 68.18L35.06 68.18L35.06 43.49L24.05 43.49L28.37 39.82C27.14 38.16 24.77 35.50 22.75 33.62L35.71 33.62L35.71 27.94L19.01 27.94C19.51 26.78 19.94 25.78 20.38 24.62L13.90 22.61C11.59 28.80 7.42 34.78 2.95 38.59C4.32 39.96 6.55 42.98 7.42 44.35L7.92 43.85L7.92 76.54C7.92 79.63 6.26 81.43 5.11 82.30C6.12 83.45 7.63 86.11 8.14 87.55C9.58 86.62 12.17 85.97 29.02 81.79C30.31 83.81 31.39 85.82 32.18 87.34L37.73 84.38C35.57 80.35 31.18 73.94 27.50 69.12ZM68.54 27.94L47.88 27.94C48.31 26.71 48.67 25.63 49.03 24.41L42.26 22.68C40.54 29.45 37.30 36.00 33.19 40.18C34.63 41.33 37.37 43.85 38.38 45.00C41.11 42.05 43.56 38.09 45.58 33.62L52.13 33.62L48.60 36.50C50.90 38.59 53.50 41.54 54.58 43.49L39.74 43.49L39.74 89.06L46.01 89.06L46.01 49.54L59.40 49.54L59.40 73.44C59.40 74.38 59.11 74.66 57.96 74.74C56.95 74.74 53.21 74.74 49.39 74.66C50.26 76.32 51.05 79.06 51.34 80.78C56.81 80.78 60.41 80.71 62.78 79.70C65.16 78.70 65.81 76.82 65.81 73.51L65.81 43.49L54.72 43.49L59.54 39.46C58.32 37.87 56.09 35.42 54.07 33.62L68.54 33.62Z"/></svg>
