<svg xmlns="http://www.w3.org/2000/svg" xmlns:xlink="http://www.w3.org/1999/xlink" width="72.00000000000001" height="106.56000000000002"><path fill="red" stroke="red" d="M39.10 37.73L39.10 34.70C39.60 35.14 40.10 35.57 40.39 35.93C41.90 34.63 43.42 33.05 44.78 31.32L52.06 31.32L48.96 33.70C50.33 34.85 51.77 36.43 52.92 37.73ZM39.10 50.62L39.10 47.59L53.28 47.59L53.28 50.62ZM19.08 50.62L19.08 47.59L32.69 47.59L32.69 50.62ZM53.28 44.21L39.10 44.21L39.10 41.40L53.28 41.40ZM32.69 41.40L32.69 44.21L19.08 44.21L19.08 41.40ZM54.50 60.48L54.50 63.50L39.10 63.50L39.10 60.48ZM17.35 60.48L32.69 60.48L32.69 63.50L17.35 63.50ZM24.26 75.60L46.37 75.60C44.57 77.33 42.26 78.70 39.60 79.85C34.06 78.70 28.30 77.62 22.97 76.82ZM68.90 27.00L47.74 27.00C48.31 25.99 48.74 25.06 49.18 24.05L43.49 22.54C41.83 26.21 39.02 29.74 35.71 32.26C36.65 32.83 37.94 33.77 39.02 34.70L32.69 34.70L32.69 37.73L23.62 37.73L26.78 34.99C25.85 33.91 24.19 32.54 22.68 31.32L35.71 31.32L35.71 26.93L17.64 26.93C18.29 25.99 18.86 25.13 19.37 24.19L13.90 22.46C11.52 26.64 7.56 30.74 3.46 33.48C4.61 34.49 6.77 36.58 7.56 37.66C9.86 36.00 12.17 33.77 14.40 31.32L20.38 31.32L17.64 33.48C19.15 34.70 21.02 36.36 22.25 37.73L12.89 37.73L12.89 43.56L3.96 43.56L3.96 48.24L12.89 48.24L12.89 54.36L32.69 54.36L32.69 56.95L11.16 56.95L11.16 67.03L24.62 67.03C23.62 68.40 22.54 69.62 21.31 70.99L3.46 70.99L3.46 75.60L16.78 75.60C15.41 76.97 13.97 78.19 12.67 79.34C18.58 80.14 24.91 81.22 31.18 82.37C23.90 83.95 15.26 84.46 5.98 84.60C6.98 85.75 8.78 88.06 9.29 89.35C20.59 88.70 31.68 87.48 40.39 84.24C48.24 85.97 55.44 87.70 60.62 89.28L65.74 85.82C60.48 84.38 53.86 82.80 46.66 81.29C49.25 79.70 51.55 77.83 53.35 75.60L68.47 75.60L68.47 70.99L56.23 70.99C56.52 70.42 56.74 69.84 56.95 69.26L50.76 68.83C50.54 69.55 50.18 70.27 49.82 70.99L28.73 70.99C29.95 69.70 31.03 68.40 32.04 67.03L60.98 67.03L60.98 56.95L39.10 56.95L39.10 54.36L59.76 54.36L59.76 48.24L68.18 48.24L68.18 43.56L59.76 43.56L59.76 37.73L55.01 37.73L57.89 35.35C57.02 34.20 55.37 32.62 53.86 31.32L68.83 31.32Z"/></svg>
