<svg xmlns="http://www.w3.org/2000/svg" xmlns:xlink="http://www.w3.org/1999/xlink" width="72.00000000000001" height="106.56000000000002"><path fill="red" stroke="red" d="M20.23 33.26L18.65 34.99C21.17 36.79 24.55 39.24 26.28 40.75L29.38 37.08C28.08 36.00 26.06 34.63 24.05 33.26L35.50 33.26L35.50 28.01L17.71 28.01C18.43 26.78 19.08 25.56 19.66 24.26L13.68 22.54C11.38 27.79 7.27 32.90 2.88 36.36C4.25 37.37 6.48 39.67 7.49 40.82C9.79 38.81 12.24 36.14 14.33 33.26ZM38.52 41.69L23.69 41.69C23.18 40.32 22.39 38.88 21.67 37.66L16.70 38.66C17.21 39.60 17.64 40.61 18.07 41.69L3.53 41.69L3.53 46.22L38.52 46.22ZM29.38 55.73C28.22 54.72 26.50 53.57 24.70 52.49C26.06 51.12 27.36 49.82 28.44 48.31L24.34 47.23C23.47 48.38 22.39 49.46 21.24 50.47C19.58 49.68 17.93 48.82 16.34 48.17L13.46 50.54C14.90 51.19 16.49 52.06 18.00 52.92C16.20 54.14 14.26 55.22 12.17 56.23C13.25 56.74 14.98 58.03 15.77 58.68C17.71 57.60 19.73 56.38 21.60 54.94C23.54 56.16 25.13 57.38 26.35 58.39ZM46.58 74.66L53.93 74.66L53.93 81.14L46.58 81.14ZM53.93 57.89L46.58 57.89L46.58 51.84L53.93 51.84ZM53.93 69.41L46.58 69.41L46.58 63.14L53.93 63.14ZM69.05 81.14L59.40 81.14L59.40 74.66L66.82 74.66L66.82 69.41L59.40 69.41L59.40 63.14L66.67 63.14L66.67 57.89L59.40 57.89L59.40 51.84L68.04 51.84L68.04 46.58L60.55 46.58C59.90 44.57 58.75 42.12 57.60 40.03L59.76 36.72C58.39 35.71 56.09 34.42 53.86 33.19L68.62 33.19L68.62 28.01L46.80 28.01C47.38 26.71 47.95 25.49 48.38 24.19L42.70 22.61C41.11 27.43 38.23 32.47 35.21 35.86C36.50 36.72 38.95 38.52 39.96 39.46C41.40 37.73 42.84 35.57 44.21 33.19L50.33 33.19L48.67 35.50C50.83 36.65 53.42 38.23 55.37 39.53L51.70 40.10C52.78 42.12 53.86 44.50 54.65 46.58L47.02 46.58C48.10 44.14 49.03 41.69 49.90 39.17L44.28 37.58C42.26 44.21 38.88 50.76 34.99 55.51L34.99 47.52L29.95 47.52L29.95 59.33L12.17 59.33L12.17 47.52L7.34 47.52L7.34 63.43L18.22 63.43L17.57 66.60L11.38 66.60L11.38 64.80L6.48 64.80L6.48 66.60L4.54 66.60L4.54 70.99L6.48 70.99L6.48 89.06L11.38 89.06L11.38 70.99L16.56 70.99C15.98 73.58 15.34 76.18 14.76 78.19L12.74 78.55L14.04 82.73L26.06 80.14C26.35 80.86 26.57 81.58 26.78 82.22L30.31 80.57C29.52 78.05 27.58 74.23 25.78 71.35L22.46 72.79C23.11 73.87 23.76 75.17 24.41 76.54L19.51 77.40C19.94 75.53 20.52 73.30 21.02 70.99L31.61 70.99L31.61 83.59C31.61 84.24 31.39 84.46 30.67 84.46C29.95 84.53 27.86 84.53 25.34 84.46C26.06 85.82 26.64 87.70 26.86 89.14C30.38 89.14 32.90 89.14 34.56 88.27C36.36 87.41 36.72 86.11 36.72 83.66L36.72 66.60L22.03 66.60L22.75 63.43L34.99 63.43L34.99 58.03C36.00 59.33 37.08 61.06 37.58 61.85C38.74 60.62 39.74 59.26 40.82 57.74L40.82 89.14L46.58 89.14L46.58 86.47L69.12 86.47Z"/></svg>
