<svg xmlns="http://www.w3.org/2000/svg" xmlns:xlink="http://www.w3.org/1999/xlink" width="72.00000000000001" height="106.56000000000002"><path fill="red" stroke="red" d="M30.96 64.58C30.02 60.84 27.79 54.65 25.78 50.04L20.66 51.70C21.46 53.57 22.25 55.66 22.97 57.82L13.18 59.11C18.65 52.92 24.12 45.29 28.51 37.58L22.97 34.20C21.46 37.22 19.73 40.32 17.86 43.13L11.23 43.70C15.19 38.38 19.15 31.75 22.18 25.34L16.13 22.82C13.25 30.46 8.28 38.59 6.70 40.75C5.18 42.84 3.96 44.28 2.59 44.64C3.31 46.22 4.25 49.18 4.61 50.47C5.69 49.97 7.34 49.61 14.04 48.82C11.66 52.27 9.58 54.94 8.50 56.09C6.34 58.61 4.68 60.34 3.10 60.70C3.82 62.35 4.75 65.45 5.11 66.74C6.62 65.95 9.07 65.38 24.48 62.86C24.91 64.30 25.20 65.52 25.42 66.67ZM5.98 69.41C5.40 75.24 4.39 81.58 2.74 85.90C4.18 86.33 6.98 87.19 8.21 87.84C9.72 83.52 11.02 76.68 11.59 70.42ZM14.26 70.20C15.05 75.24 15.91 81.94 16.06 86.26L21.53 85.18C21.31 80.78 20.45 74.30 19.51 69.19ZM22.10 68.54C23.54 72.79 25.27 78.55 25.85 82.15L31.10 80.35C30.38 76.75 28.66 71.28 27.07 67.03ZM55.30 82.22C54.36 82.22 53.71 82.08 53.06 81.86C52.42 81.43 52.20 80.14 52.20 78.26L52.20 69.55L59.83 69.55L59.83 72.86L65.74 72.86L65.74 44.42L59.83 44.42L59.83 63.36L52.20 63.36L52.20 38.45L68.76 38.45L68.76 32.26L52.20 32.26L52.20 23.26L46.01 23.26L46.01 32.26L31.32 32.26L31.32 38.45L46.01 38.45L46.01 63.36L38.66 63.36L38.66 44.42L32.83 44.42L32.83 69.55L46.01 69.55L46.01 77.83C46.01 83.95 46.80 85.39 48.38 86.54C49.90 87.55 52.13 87.98 54.00 87.98L60.05 87.98C61.70 87.98 63.72 87.77 65.02 87.34C66.53 86.83 67.54 86.04 68.11 84.60C68.76 83.30 69.26 80.14 69.41 77.33C67.39 76.82 65.23 75.82 63.79 74.52C63.72 77.33 63.50 79.63 63.29 80.50C63.00 81.43 62.42 81.86 61.92 82.01C61.34 82.15 60.41 82.22 59.40 82.22Z"/></svg>
