<svg xmlns="http://www.w3.org/2000/svg" xmlns:xlink="http://www.w3.org/1999/xlink" width="72.00000000000001" height="106.56000000000002"><path fill="red" stroke="red" d="M19.51 74.30C15.48 77.69 9.00 81.22 3.24 83.45C4.68 84.46 7.20 86.62 8.35 87.84C13.90 85.18 20.88 80.86 25.63 76.90ZM16.27 40.46L32.54 40.46L32.54 45.43L16.27 45.43ZM16.27 30.67L32.54 30.67L32.54 35.57L16.27 35.57ZM55.87 35.57L39.02 35.57L39.02 30.67L55.87 30.67ZM55.87 45.43L39.02 45.43L39.02 40.46L55.87 40.46ZM57.24 70.63C58.61 72.22 59.83 73.58 60.77 74.88L65.74 71.06C62.93 67.32 57.17 61.85 51.98 58.18L47.23 61.42C48.82 62.64 50.62 64.15 52.27 65.66L26.78 66.67C35.14 63.50 43.63 59.54 51.91 54.72L46.94 50.83C44.28 52.42 41.54 54.07 38.74 55.51L24.34 56.23C27.50 54.58 30.60 52.70 33.70 50.62L62.50 50.62L62.50 25.42L10.01 25.42L10.01 50.62L23.90 50.62C20.38 52.92 16.99 54.65 15.55 55.22C13.68 56.16 12.02 56.81 10.66 56.95C11.23 58.54 12.10 61.49 12.38 62.64C13.75 62.14 15.84 61.78 27.65 60.98C22.82 63.14 18.79 64.73 16.70 65.38C12.53 66.89 9.65 67.82 7.20 67.97C7.78 69.62 8.57 72.65 8.78 73.73C11.09 72.94 14.04 72.72 32.76 71.86L32.76 82.22C32.76 83.02 32.47 83.23 31.46 83.23C30.53 83.30 27.00 83.30 23.69 83.23C24.62 84.82 25.70 87.41 26.06 89.21C30.74 89.21 34.20 89.21 36.58 88.20C39.02 87.26 39.67 85.68 39.67 82.44L39.67 71.50ZM44.42 77.76C50.33 80.71 57.82 85.10 61.49 88.13L66.67 84.31C62.64 81.22 55.01 76.97 49.25 74.30Z"/></svg>
