<svg xmlns="http://www.w3.org/2000/svg" xmlns:xlink="http://www.w3.org/1999/xlink" width="72.00000000000001" height="106.56000000000002"><path fill="red" stroke="red" d="M62.06 23.26C54.22 25.42 40.46 26.86 28.80 27.58C29.52 29.02 30.31 31.25 30.60 32.76C42.55 32.26 56.95 30.74 66.60 28.22ZM52.06 40.68C51.48 38.45 49.97 34.63 48.67 31.90L43.27 33.62C44.50 36.43 45.79 40.39 46.37 42.70ZM29.45 64.30C28.73 60.55 26.64 54.65 24.48 50.04L20.02 51.62C20.95 53.71 21.74 56.02 22.54 58.25L11.95 59.69C17.50 53.06 22.90 44.78 27.29 36.65L22.18 33.48C20.66 36.79 18.79 40.25 16.99 43.49L10.44 43.99C14.18 38.66 17.86 31.90 20.74 25.49L15.26 23.18C12.53 30.89 7.85 38.88 6.41 41.04C4.97 43.13 3.74 44.57 2.59 44.93C3.24 46.44 4.03 49.25 4.39 50.47C5.40 49.97 6.98 49.61 13.61 48.82C11.30 52.34 9.29 55.08 8.21 56.30C6.12 58.97 4.54 60.77 3.02 61.13C3.67 62.64 4.61 65.59 4.90 66.74C6.26 65.95 8.50 65.45 23.98 62.93C24.26 64.15 24.55 65.30 24.70 66.17ZM5.40 69.48C4.90 75.24 3.96 81.58 2.30 85.90C3.60 86.26 6.05 87.12 7.20 87.77C8.57 83.30 9.86 76.61 10.51 70.34ZM13.10 70.20C13.90 74.95 14.62 81.22 14.76 85.39L19.66 84.17C19.44 80.06 18.65 73.87 17.71 69.12ZM20.88 68.62C22.32 72.86 23.98 78.41 24.62 82.08L29.16 80.42C28.44 76.90 26.78 71.42 25.20 67.18ZM31.54 34.85C33.05 37.37 34.70 40.90 35.28 42.98L40.90 40.61C40.18 38.52 38.45 35.21 36.94 32.76ZM34.63 84.74C37.51 81.22 39.67 77.26 41.47 72.65C42.98 74.95 44.78 77.18 46.87 79.06C43.20 81.50 39.02 83.45 34.63 84.74ZM56.88 68.47C55.37 71.06 53.57 73.44 51.41 75.46C48.89 73.44 46.80 71.06 45.14 68.47ZM61.27 63.00L60.12 63.22L44.14 63.22C44.42 61.85 44.64 60.48 44.93 58.97L68.62 58.97L68.62 53.50L45.72 53.50C45.86 51.84 46.08 50.26 46.22 48.53L66.96 48.53L66.96 43.06L59.54 43.06C61.49 40.03 63.58 36.14 65.45 32.62L59.26 30.74C57.96 34.42 55.58 39.60 53.57 43.06L30.96 43.06L30.96 48.53L39.96 48.53C39.82 50.26 39.67 51.84 39.53 53.50L29.38 53.50L29.38 58.97L38.74 58.97C36.86 70.20 33.05 78.84 25.56 84.67C27.14 85.54 29.88 87.55 30.96 88.49C32.18 87.41 33.41 86.11 34.56 84.82C35.86 85.82 38.02 88.13 38.81 89.50C43.42 87.84 47.74 85.75 51.55 82.87C55.66 85.68 60.41 87.84 65.59 89.21C66.53 87.55 68.47 85.10 69.77 83.88C64.87 82.80 60.26 81.07 56.30 78.84C60.12 75.10 63.14 70.42 65.23 64.80Z"/></svg>
