<svg xmlns="http://www.w3.org/2000/svg" xmlns:xlink="http://www.w3.org/1999/xlink" width="72.00000000000001" height="106.56000000000002"><path fill="red" stroke="red" d="M38.81 48.53C43.92 46.51 50.26 43.92 56.23 41.33L55.30 37.01L51.55 38.45L53.64 34.42C50.98 33.26 46.01 31.68 42.19 30.60L57.96 30.60L57.96 44.35C57.96 45.07 57.74 45.29 56.88 45.36C56.02 45.43 53.28 45.43 50.40 45.29C51.12 46.66 51.91 48.53 52.13 49.97C56.52 49.97 59.54 49.97 61.56 49.18C63.50 48.38 64.15 47.16 64.15 44.28L64.15 25.34L37.01 25.34L37.01 30.60L41.26 30.60L39.24 33.98C43.20 35.28 48.53 37.15 51.41 38.45C45.86 40.46 40.46 42.41 36.72 43.56ZM68.11 73.80L39.24 73.80L39.24 71.14C39.74 71.50 40.18 71.93 40.46 72.22C43.13 70.70 45.72 68.69 47.88 66.38C51.55 68.40 55.51 70.78 57.60 72.50L61.49 68.47C59.11 66.74 54.79 64.22 50.90 62.35C51.62 61.13 52.20 59.98 52.63 58.61L48.82 57.89L65.38 57.89L65.38 52.63L40.10 52.63C39.38 51.05 38.30 49.10 37.30 47.52L31.82 48.60C33.48 47.81 33.98 46.58 33.98 43.92L33.98 25.34L6.98 25.34L6.98 30.60L11.09 30.60L8.93 33.98C13.03 35.28 18.36 37.22 21.10 38.52C15.55 40.46 10.22 42.41 6.41 43.56L8.50 48.53C13.54 46.51 19.73 43.92 25.70 41.47L24.70 37.15L21.24 38.45L23.33 34.42C20.74 33.26 15.77 31.68 12.02 30.60L27.86 30.60L27.86 43.92C27.86 44.64 27.58 44.93 26.71 45.00C25.99 45.00 23.11 45.00 20.30 44.86C21.02 46.22 21.74 48.10 22.10 49.54C26.06 49.54 29.09 49.54 30.96 48.89C31.61 50.04 32.33 51.34 32.83 52.63L6.91 52.63L6.91 57.89L21.74 57.89C19.22 62.93 14.11 66.89 8.21 69.34C9.50 70.27 11.88 72.14 12.74 73.08C16.27 71.28 19.73 68.83 22.54 65.95C25.42 67.68 28.37 69.77 30.02 71.28L34.06 67.54C32.18 65.95 28.73 63.72 25.78 62.06C26.42 60.91 27.07 59.76 27.65 58.54L24.70 57.89L46.80 57.89C44.93 62.57 40.90 66.17 35.86 68.47C36.58 68.98 37.58 69.70 38.52 70.49L32.47 70.49L32.47 73.80L3.82 73.80L3.82 79.27L32.47 79.27L32.47 89.06L39.24 89.06L39.24 79.27L68.11 79.27Z"/></svg>
