<svg xmlns="http://www.w3.org/2000/svg" xmlns:xlink="http://www.w3.org/1999/xlink" width="72.00000000000001" height="106.56000000000002"><path fill="red" stroke="red" d="M33.70 82.73C33.70 83.38 33.48 83.59 32.90 83.59C32.40 83.59 30.96 83.59 29.30 83.52L29.30 47.30L33.70 47.30ZM3.67 33.19L18.00 33.19C17.35 36.00 16.49 39.02 15.70 41.54L5.54 41.54L5.54 88.92L11.02 88.92L11.02 47.30L15.84 47.30L15.84 83.88L20.45 83.88L20.45 47.30L24.77 47.30L24.77 83.88L28.94 83.88C29.66 85.32 30.31 87.55 30.53 88.85C33.55 88.85 35.64 88.70 37.30 87.77C38.81 86.90 39.24 85.32 39.24 82.80L39.24 41.54L21.82 41.54C22.75 39.02 23.69 36.07 24.62 33.19L40.61 33.19L40.61 26.78L3.67 26.78ZM69.05 38.88L63.65 38.88L63.65 23.47L57.24 23.47L57.24 38.88L41.26 38.88L41.26 45.14L57.24 45.14L57.24 81.43C57.24 82.58 56.81 82.94 55.73 82.94C54.72 83.02 51.41 83.02 47.88 82.87C48.74 84.53 49.82 87.41 50.11 89.14C55.30 89.21 58.54 88.92 60.70 87.84C62.78 86.83 63.65 85.03 63.65 81.43L63.65 45.14L69.05 45.14ZM54.07 67.18C53.28 62.93 50.47 56.45 47.52 51.48L42.05 53.35C44.86 58.39 47.52 65.16 48.24 69.41Z"/></svg>
