<svg xmlns="http://www.w3.org/2000/svg" xmlns:xlink="http://www.w3.org/1999/xlink" width="72.00000000000001" height="106.56000000000002"><path fill="red" stroke="red" d="M51.19 82.22C48.53 82.22 48.10 81.58 48.10 78.34L48.10 67.10L69.26 63.50L68.40 57.60L48.10 60.98L48.10 50.83L66.38 47.52L65.45 41.69L48.10 44.64L48.10 33.70C54.07 32.11 59.69 30.24 64.37 28.22L58.75 23.33C52.06 26.78 40.10 30.10 29.30 32.33L30.67 31.82L25.92 27.14C24.26 27.94 22.18 28.66 19.94 29.30L19.94 23.04L13.90 23.04L13.90 30.82C10.30 31.61 6.48 32.33 2.95 32.90C3.67 34.13 4.46 36.36 4.82 37.73C7.70 37.37 10.80 36.86 13.90 36.36L13.90 42.19L4.61 42.19L4.61 47.88L13.90 47.88L13.90 54.65L3.31 54.65L3.31 60.34L12.46 60.34C10.15 66.53 6.19 73.51 2.52 77.47C3.46 79.13 4.90 81.72 5.47 83.59C8.57 80.21 11.52 75.02 13.90 69.48L13.90 89.14L19.94 89.14L19.94 69.26C22.39 71.93 25.20 74.95 26.50 76.75L30.17 72.22C28.58 70.70 22.68 65.09 19.94 62.71L19.94 60.34L29.74 60.34L29.74 54.65L19.94 54.65L19.94 47.88L28.08 47.88L28.08 42.19L19.94 42.19L19.94 35.06C23.11 34.27 26.14 33.41 28.80 32.54C29.59 33.84 30.60 36.22 30.82 37.58C34.27 36.94 37.87 36.29 41.40 35.42L41.40 45.79L31.10 47.52L32.11 53.64L41.40 51.98L41.40 62.14L30.10 64.01L30.89 70.06L41.40 68.33L41.40 78.26C41.40 86.26 43.27 88.42 50.33 88.42L60.62 88.42C66.82 88.42 68.54 85.10 69.34 75.02C67.46 74.59 64.73 73.44 63.22 72.29C62.93 80.28 62.42 82.22 60.05 82.22Z"/></svg>
