<svg xmlns="http://www.w3.org/2000/svg" xmlns:xlink="http://www.w3.org/1999/xlink" width="72.00000000000001" height="106.56000000000002"><path fill="red" stroke="red" d="M30.60 60.12L30.60 54.43L20.95 54.43L20.95 48.02L28.87 48.02L28.87 42.34L20.95 42.34L20.95 35.42C24.70 34.78 28.22 34.06 31.25 33.19L27.14 28.08C25.42 28.58 23.26 29.09 20.95 29.59L20.95 23.11L14.62 23.11L14.62 30.74C10.87 31.32 6.98 31.75 3.38 32.11C4.03 33.55 4.90 35.78 5.11 37.22C8.14 37.01 11.38 36.72 14.62 36.29L14.62 42.34L6.05 42.34L6.05 48.02L14.62 48.02L14.62 54.43L3.82 54.43L3.82 60.12L13.25 60.12C10.58 66.38 6.19 73.30 2.23 77.26C3.31 78.84 4.75 81.50 5.33 83.30C8.64 79.85 11.95 74.52 14.62 68.90L14.62 89.21L20.95 89.21L20.95 66.74C23.40 69.91 26.28 73.80 27.58 76.03L31.32 70.99C29.88 69.19 23.98 62.64 21.46 60.12ZM46.30 33.84L46.30 55.37L38.95 55.37L38.95 33.84ZM59.62 55.37L52.42 55.37L52.42 33.84L59.62 33.84ZM43.99 81.86C39.67 81.86 38.95 81.07 38.95 77.04L38.95 61.42L59.62 61.42L59.62 65.88L66.10 65.88L66.10 27.65L32.54 27.65L32.54 76.97C32.54 85.75 35.06 87.91 43.49 87.91L59.18 87.91C66.74 87.91 68.76 84.53 69.70 74.74C67.90 74.38 65.30 73.22 63.79 72.14C63.22 79.99 62.50 81.86 58.68 81.86Z"/></svg>
