<svg xmlns="http://www.w3.org/2000/svg" xmlns:xlink="http://www.w3.org/1999/xlink" width="72.00000000000001" height="106.56000000000002"><path fill="red" stroke="red" d="M23.47 47.45C28.51 47.45 30.24 45.72 30.96 38.66C29.30 38.30 26.78 37.30 25.56 36.43C25.27 41.18 24.91 41.90 22.90 41.90L14.40 41.90C11.81 41.90 11.38 41.54 11.38 39.74L11.38 34.70L28.44 34.70L28.44 29.74L11.38 29.74L11.38 23.62L5.40 23.62L5.40 39.74C5.40 45.79 6.98 47.45 13.68 47.45ZM7.20 65.23C8.64 63.43 9.94 61.27 11.16 58.75L15.55 58.75L15.55 63.07C15.55 63.72 15.55 64.44 15.48 65.23ZM32.04 70.85L32.04 65.23L21.67 65.23C21.74 64.51 21.74 63.79 21.74 63.14L21.74 58.75L30.96 58.75L30.96 53.21L13.39 53.21C13.82 51.77 14.26 50.40 14.62 48.96L8.93 47.88C7.70 53.35 5.33 58.75 1.94 62.35C3.38 63.00 5.62 64.37 6.84 65.23L3.53 65.23L3.53 70.85L14.62 70.85C13.25 75.67 10.01 80.93 2.23 85.10C3.74 86.11 5.62 88.06 6.55 89.42C12.31 85.97 15.91 81.94 18.14 77.90C21.96 81.14 25.92 84.89 28.01 87.41L32.11 82.94C29.59 80.06 24.62 75.96 20.38 72.58C20.59 72.00 20.74 71.42 20.88 70.85ZM52.06 45.79L59.18 45.79L59.18 51.12L52.06 51.12ZM52.06 35.06L59.18 35.06L59.18 40.39L52.06 40.39ZM65.09 56.45L65.09 45.79L69.26 45.79L69.26 40.39L65.09 40.39L65.09 29.81L52.06 29.81L52.06 23.40L45.79 23.40L45.79 29.81L34.42 29.81L34.42 35.06L45.79 35.06L45.79 40.39L31.75 40.39L31.75 45.79L45.79 45.79L45.79 51.12L34.13 51.12L34.13 56.45L45.79 56.45L45.79 61.27L34.06 61.27L34.06 66.82L45.79 66.82L45.79 72.00L32.04 72.00L32.04 77.69L45.79 77.69L45.79 89.06L52.06 89.06L52.06 77.69L68.04 77.69L68.04 72.00L52.06 72.00L52.06 66.82L65.74 66.82L65.74 61.27L52.06 61.27L52.06 56.45Z"/></svg>
