<svg xmlns="http://www.w3.org/2000/svg" xmlns:xlink="http://www.w3.org/1999/xlink" width="72.00000000000001" height="106.56000000000002"><path fill="red" stroke="red" d="M60.26 26.21C58.90 31.03 56.30 37.87 54.22 42.12L59.47 44.14C61.70 40.10 64.51 33.77 66.89 28.44ZM42.55 41.83C41.62 37.87 38.95 31.75 36.29 27.07L30.67 29.30C33.26 34.13 35.78 40.54 36.50 44.57ZM13.10 44.14C15.19 46.30 17.50 48.89 18.72 50.62L21.31 48.46L21.31 56.30C18.22 58.46 15.12 60.48 12.89 61.85C13.03 58.10 13.10 54.58 13.10 51.41ZM21.31 31.90L21.31 45.36C19.73 43.70 17.71 41.62 15.84 39.96L13.10 41.90L13.10 31.90ZM27.50 25.70L7.06 25.70L7.06 51.41C7.06 61.85 6.77 76.18 2.38 86.26C3.96 86.83 6.70 88.34 7.85 89.35C11.02 82.22 12.24 72.43 12.82 63.50L15.12 67.75C17.14 66.02 19.22 64.22 21.31 62.35L21.31 80.93C21.31 81.86 20.95 82.22 20.09 82.30C19.22 82.30 16.34 82.30 13.39 82.15C14.26 83.88 15.12 86.90 15.26 88.63C19.94 88.63 22.90 88.49 24.91 87.34C26.93 86.33 27.50 84.31 27.50 81.00ZM68.54 63.14L51.91 63.14L51.91 52.56L66.17 52.56L66.17 46.37L51.91 46.37L51.91 23.18L45.43 23.18L45.43 46.37L31.25 46.37L31.25 52.56L45.43 52.56L45.43 63.14L29.30 63.14L29.30 69.34L45.43 69.34L45.43 89.21L51.91 89.21L51.91 69.34L68.54 69.34Z"/></svg>
