<svg xmlns="http://www.w3.org/2000/svg" xmlns:xlink="http://www.w3.org/1999/xlink" width="72.00000000000001" height="106.56000000000002"><path fill="red" stroke="red" d="M62.86 24.77C58.18 26.35 50.69 28.66 45.79 29.52L47.74 34.34C52.63 33.48 60.26 31.61 65.02 29.59ZM27.29 30.24C23.54 28.44 16.27 25.99 11.02 24.70L8.57 29.09C14.04 30.67 21.17 33.34 24.84 35.28ZM24.34 51.70C29.16 48.46 32.98 44.42 35.86 39.24C39.31 44.14 43.63 48.38 48.67 51.70ZM66.10 39.74C61.13 38.16 52.34 36.14 45.58 35.14L43.63 39.46C41.69 37.51 40.10 35.35 38.74 32.90C39.82 30.24 40.68 27.29 41.26 24.05L34.42 23.04C33.26 30.02 30.96 35.57 27.58 39.96L27.14 35.28C19.30 36.86 11.45 38.52 6.19 39.38L8.14 45.22C13.75 43.92 20.59 42.26 27.14 40.61C21.74 47.30 13.61 51.34 2.38 53.64C3.67 55.01 5.76 57.89 6.41 59.33C9.79 58.46 12.96 57.46 15.84 56.23L15.84 62.57C15.84 69.48 15.19 78.84 9.58 85.61C11.16 86.47 14.11 88.34 15.26 89.57C21.46 82.08 22.61 70.70 22.61 62.64L22.61 57.02L49.32 57.02L49.32 70.06C39.31 71.71 29.30 73.44 22.46 74.38L24.41 80.14C31.39 78.84 40.39 77.26 49.32 75.53L49.32 82.01C49.32 83.02 48.96 83.30 47.81 83.38C46.73 83.38 42.62 83.45 38.88 83.30C39.74 84.74 40.68 87.12 40.97 88.70C46.58 88.70 50.47 88.70 52.92 87.84C55.30 86.98 56.16 85.39 56.16 82.01L56.16 55.73C59.11 56.95 62.21 58.03 65.52 58.82C66.46 57.10 68.33 54.43 69.77 53.06C59.33 50.98 50.69 46.51 44.42 40.39C51.05 41.62 59.26 43.63 63.94 45.36ZM24.12 64.80C31.39 65.45 40.97 67.39 45.94 69.34L47.74 64.22C42.70 62.42 33.19 60.62 25.92 60.19Z"/></svg>
