<svg xmlns="http://www.w3.org/2000/svg" xmlns:xlink="http://www.w3.org/1999/xlink" width="72.00000000000001" height="106.56000000000002"><path fill="red" stroke="red" d="M55.51 34.06C54.58 36.07 53.28 38.59 52.20 40.54L42.19 40.54L43.92 39.96C43.42 38.38 42.34 35.93 41.18 34.06ZM68.69 40.54L58.39 40.54C59.54 38.88 60.62 36.86 61.78 34.99L58.82 34.06L66.46 34.06L66.46 28.87L51.41 28.87C50.69 27.00 49.68 24.70 48.67 22.97L42.98 23.90C43.70 25.42 44.35 27.22 44.93 28.87L29.52 28.87L29.52 34.06L39.53 34.06L35.78 35.21C36.65 36.79 37.51 38.88 38.09 40.54L27.22 40.54L27.22 45.79L68.69 45.79ZM59.04 57.24L37.66 57.24L37.66 53.06L59.04 53.06ZM59.04 65.16L37.66 65.16L37.66 61.06L59.04 61.06ZM65.30 49.10L31.61 49.10L31.61 69.19L46.01 69.19L42.98 71.42C46.08 73.87 50.11 77.62 52.13 80.14L56.23 76.82C54.36 74.66 50.90 71.50 47.74 69.19L65.30 69.19ZM12.46 42.34C14.76 45.22 17.21 48.74 18.43 51.05L20.02 50.04L20.02 56.81C17.06 59.04 14.33 60.98 12.17 62.35C12.38 58.39 12.46 54.58 12.46 51.12ZM20.02 31.46L20.02 44.50C18.58 42.62 16.85 40.46 15.34 38.74L12.46 40.32L12.46 31.46ZM25.49 25.70L6.98 25.70L6.98 51.12C6.98 61.49 6.62 75.67 2.38 85.54C3.60 86.18 5.98 88.20 6.91 89.35C10.01 82.37 11.38 73.22 12.02 64.58L13.97 68.54C15.98 66.74 17.93 64.87 20.02 63.00L20.02 82.30C20.02 83.16 19.66 83.45 18.79 83.52C18.00 83.52 15.48 83.52 12.60 83.45C13.39 84.96 14.11 87.55 14.33 89.06C18.65 89.06 21.31 88.92 23.11 87.91C24.91 86.98 25.49 85.25 25.49 82.30ZM31.03 86.90C32.47 83.30 33.98 77.76 35.06 74.09L30.38 72.00C29.45 75.74 27.65 81.22 26.14 84.60ZM69.77 84.02C68.33 80.50 65.16 75.38 62.06 71.42L57.38 73.58C58.68 75.31 59.98 77.26 61.20 79.27C59.69 78.91 57.46 78.19 56.38 77.33C56.09 82.58 55.73 83.30 53.57 83.30L44.71 83.30C42.05 83.30 41.62 83.02 41.62 81.50L41.62 72.58L36.22 72.58L36.22 81.50C36.22 86.76 37.73 88.27 44.14 88.27L54.14 88.27C59.04 88.27 60.70 86.54 61.27 79.34C62.78 81.86 64.01 84.46 64.80 86.40Z"/></svg>
