<svg xmlns="http://www.w3.org/2000/svg" xmlns:xlink="http://www.w3.org/1999/xlink" width="72.00000000000001" height="106.56000000000002"><path fill="red" stroke="red" d="M47.02 41.76L53.64 41.76L53.64 35.14L67.18 35.14L67.18 28.94L53.64 28.94L53.64 23.18L47.02 23.18L47.02 28.94L38.66 28.94L38.66 35.14L47.02 35.14ZM18.36 41.76L24.91 41.76L24.91 35.21L33.12 35.21L33.12 29.02L24.91 29.02L24.91 23.18L18.36 23.18L18.36 29.02L4.54 29.02L4.54 35.21L18.36 35.21ZM32.54 49.82L32.54 60.91L16.49 60.91L16.49 49.82ZM56.30 60.91L39.31 60.91L39.31 49.82L56.30 49.82ZM25.92 81.79C17.86 81.79 16.49 80.86 16.49 76.54L16.49 67.10L56.30 67.10L56.30 69.55L63.00 69.55L63.00 43.63L9.65 43.63L9.65 76.54C9.65 85.97 13.46 88.20 26.21 88.20L52.99 88.20C64.15 88.20 66.74 85.25 68.11 74.95C66.10 74.52 63.14 73.51 61.42 72.50C60.55 80.21 59.40 81.79 52.63 81.79Z"/></svg>
