<svg xmlns="http://www.w3.org/2000/svg" xmlns:xlink="http://www.w3.org/1999/xlink" width="72.00000000000001" height="106.56000000000002"><path fill="red" stroke="red" d="M17.35 41.62L23.98 41.62L23.98 35.35L34.56 35.35L34.56 29.23L23.98 29.23L23.98 23.11L17.35 23.11L17.35 29.23L4.46 29.23L4.46 35.35L17.35 35.35ZM54.22 80.21L18.72 80.21L18.72 67.32L54.22 67.32ZM38.66 38.95L31.97 38.95L31.97 61.20L12.31 61.20L12.31 89.14L18.72 89.14L18.72 86.26L54.22 86.26L54.22 89.06L60.84 89.06L60.84 61.20L38.66 61.20L38.66 53.42L67.18 53.42L67.18 47.23L38.66 47.23ZM54.65 29.23L54.65 23.11L48.02 23.11L48.02 29.23L37.30 29.23L37.30 35.35L48.02 35.35L48.02 41.69L54.65 41.69L54.65 35.35L67.75 35.35L67.75 29.23Z"/></svg>
