<svg xmlns="http://www.w3.org/2000/svg" xmlns:xlink="http://www.w3.org/1999/xlink" width="72.00000000000001" height="106.56000000000002"><path fill="red" stroke="red" d="M13.10 70.70L13.10 83.30L49.75 83.30L49.75 70.70L43.56 70.70L43.56 78.34L34.42 78.34L34.42 68.40L53.57 68.40L53.57 63.22L34.42 63.22L34.42 57.10L50.98 57.10L50.98 52.20L23.83 52.20C24.41 51.05 24.98 49.90 25.49 48.89L20.09 47.38C18.14 51.77 15.19 56.38 12.02 59.54C13.39 60.19 15.77 61.49 16.99 62.28C18.29 60.91 19.66 59.04 20.95 57.10L28.44 57.10L28.44 63.22L8.35 63.22L8.35 68.40L28.44 68.40L28.44 78.34L19.01 78.34L19.01 70.70ZM65.02 41.18L19.80 41.18C20.30 40.18 20.74 39.17 21.24 38.16L25.42 38.16L25.42 33.55L34.56 33.55L34.56 27.79L25.42 27.79L25.42 23.04L18.79 23.04L18.79 27.79L4.46 27.79L4.46 33.55L18.79 33.55L18.79 37.51L14.83 36.79C12.53 42.34 8.28 49.25 2.30 54.58C3.67 55.44 5.76 57.60 6.70 58.97C10.73 55.22 13.97 50.98 16.70 46.73L58.32 46.73C57.67 71.71 56.88 80.86 55.30 82.87C54.72 83.88 54.07 84.10 52.99 84.10C51.77 84.10 49.25 84.10 46.37 83.81C47.23 85.25 47.88 87.55 47.95 89.06C51.05 89.21 54.14 89.28 56.16 88.99C58.25 88.70 59.90 87.98 61.27 86.04C63.36 82.94 64.22 73.66 65.02 44.28ZM53.35 27.79L53.35 23.04L46.80 23.04L46.80 27.79L37.30 27.79L37.30 33.55L46.80 33.55L46.80 38.59L53.35 38.59L53.35 33.55L67.75 33.55L67.75 27.79Z"/></svg>
