<svg xmlns="http://www.w3.org/2000/svg" xmlns:xlink="http://www.w3.org/1999/xlink" width="72.00000000000001" height="106.56000000000002"><path fill="red" stroke="red" d="M47.52 38.45L54.14 38.45L54.14 33.41L67.75 33.41L67.75 27.58L54.14 27.58L54.14 23.04L47.52 23.04L47.52 27.58L37.30 27.58L37.30 33.41L47.52 33.41ZM18.22 38.38L24.77 38.38L24.77 33.41L34.42 33.41L34.42 27.58L24.77 27.58L24.77 23.04L18.22 23.04L18.22 27.58L4.46 27.58L4.46 33.41L18.22 33.41ZM54.65 72.58L24.77 72.58L24.77 67.82L54.65 67.82ZM24.77 81.86L24.77 77.04L54.65 77.04L54.65 81.86ZM67.90 57.74L67.90 51.98L53.64 51.98C58.32 48.96 62.64 45.72 66.31 42.12L61.27 38.88C56.38 43.92 49.90 48.24 42.62 51.98L34.70 51.98L34.70 46.58L51.48 46.58L51.48 41.04L34.70 41.04L34.70 36.29L28.08 36.29L28.08 41.04L10.37 41.04L10.37 46.58L28.08 46.58L28.08 51.98L4.39 51.98L4.39 57.74L29.59 57.74C21.02 60.98 11.88 63.58 2.66 65.38C3.67 66.67 5.26 69.41 5.83 70.85C9.94 69.84 14.11 68.76 18.22 67.54L18.22 89.06L24.77 89.06L24.77 87.12L54.65 87.12L54.65 89.06L61.49 89.06L61.49 62.57L32.47 62.57C36.22 61.06 39.82 59.54 43.34 57.74Z"/></svg>
