<svg xmlns="http://www.w3.org/2000/svg" xmlns:xlink="http://www.w3.org/1999/xlink" width="72.00000000000001" height="106.56000000000002"><path fill="red" stroke="red" d="M46.87 40.18L53.71 40.18L53.71 34.70L67.68 34.70L67.68 28.66L53.71 28.66L53.71 23.18L46.87 23.18L46.87 28.66L37.58 28.66L37.58 34.70L46.87 34.70ZM38.81 48.10L65.16 48.10L65.16 42.12L38.81 42.12ZM18.50 40.18L25.27 40.18L25.27 34.70L33.91 34.70L33.91 28.73L25.27 28.73L25.27 23.18L18.50 23.18L18.50 28.73L4.03 28.73L4.03 34.70L18.50 34.70ZM7.13 47.88L32.11 47.88L32.11 41.98L7.13 41.98ZM7.99 64.08C6.91 70.06 4.97 76.32 2.45 80.57C3.96 81.22 6.48 82.51 7.70 83.30C10.15 78.84 12.38 71.86 13.75 65.30ZM34.06 60.41L34.06 54.50L3.96 54.50L3.96 60.41L16.70 60.41L16.70 89.06L23.04 89.06L23.04 60.41ZM25.27 65.59C27.14 69.41 28.94 74.59 29.52 77.98L34.85 75.89C34.13 72.58 32.26 67.54 30.24 63.72ZM39.82 64.22C38.52 70.20 36.14 76.32 32.98 80.42C34.42 81.07 37.01 82.51 38.30 83.30C41.40 78.91 44.06 72.14 45.65 65.38ZM68.33 60.70L68.33 54.72L36.07 54.72L36.07 60.70L48.74 60.70L48.74 89.06L55.08 89.06L55.08 60.70ZM58.03 65.88C60.48 70.99 63.07 77.90 63.94 82.37L69.62 80.28C68.62 75.82 66.10 69.12 63.43 63.94Z"/></svg>
