<svg xmlns="http://www.w3.org/2000/svg" xmlns:xlink="http://www.w3.org/1999/xlink" width="72.00000000000001" height="106.56000000000002"><path fill="red" stroke="red" d="M20.02 37.44L26.50 37.44L26.50 33.12L35.14 33.12L35.14 27.58L26.50 27.58L26.50 23.11L20.02 23.11L20.02 27.58L4.68 27.58L4.68 33.12L20.02 33.12ZM18.86 47.52C15.48 55.37 9.50 62.71 3.31 67.32C4.46 68.76 6.55 71.71 7.34 73.08C9.29 71.42 11.38 69.48 13.25 67.32L13.25 89.21L19.51 89.21L19.51 59.26C21.60 56.09 23.47 52.78 24.98 49.46ZM55.73 70.78L34.63 70.78L34.63 65.45L55.73 65.45ZM34.63 81.36L34.63 75.74L55.73 75.74L55.73 81.36ZM31.25 36.50C31.82 37.73 32.47 39.10 32.98 40.46L6.26 40.46L6.26 51.48L12.31 51.48L12.31 45.86L59.83 45.86L59.83 50.26L26.42 50.26L26.42 55.51L41.11 55.51C40.82 57.17 40.46 58.75 40.10 60.34L28.51 60.34L28.51 89.14L34.63 89.14L34.63 86.47L55.73 86.47L55.73 88.99L62.14 88.99L62.14 60.34L46.66 60.34C47.16 58.82 47.74 57.24 48.31 55.51L63.43 55.51L63.43 51.41L66.17 51.41L66.17 40.46L40.54 40.46C39.82 38.66 38.95 36.65 38.02 34.92ZM51.62 27.58L51.62 23.11L45.07 23.11L45.07 27.58L37.30 27.58L37.30 33.12L45.07 33.12L45.07 37.30L51.62 37.30L51.62 33.12L67.61 33.12L67.61 27.58Z"/></svg>
