<svg xmlns="http://www.w3.org/2000/svg" xmlns:xlink="http://www.w3.org/1999/xlink" width="72.00000000000001" height="106.56000000000002"><path fill="red" stroke="red" d="M47.66 37.01L53.78 37.01L53.78 32.40L67.68 32.40L67.68 27.00L53.78 27.00L53.78 23.11L47.66 23.11L47.66 27.00L37.58 27.00L37.58 32.40L47.66 32.40ZM18.50 36.58L24.70 36.58L24.70 32.47L33.98 32.47L33.98 27.00L24.70 27.00L24.70 23.11L18.50 23.11L18.50 27.00L4.10 27.00L4.10 32.47L18.50 32.47ZM19.08 52.99L12.38 52.99L12.38 40.82L6.62 40.82L6.62 58.54L19.08 58.54L19.08 64.15L3.53 64.15L3.53 69.91L8.35 69.91C7.99 76.68 6.70 81.79 2.52 84.96C3.82 85.90 5.47 87.91 6.19 89.21C11.88 85.10 13.46 78.48 14.04 69.91L19.08 69.91L19.08 89.14L25.42 89.14L25.42 38.30L19.08 38.30ZM31.18 73.37C34.42 76.18 38.16 80.28 39.82 83.02L45.00 79.70C43.27 76.97 39.38 73.08 36.14 70.42ZM56.88 45.00C55.22 47.16 53.28 49.18 50.98 50.98C49.32 49.25 46.51 46.94 43.63 45.00ZM68.47 64.30L58.90 64.30L58.90 57.38L52.42 57.38L52.42 64.30L34.49 64.30C47.30 60.84 59.40 54.07 64.80 42.26L61.06 40.39L60.05 40.61L46.22 40.61C46.94 39.74 47.59 38.88 48.24 38.02L42.41 36.94C39.67 40.68 34.56 44.57 27.43 47.45C28.66 48.24 30.46 50.33 31.10 51.55C34.06 50.18 36.72 48.67 39.02 47.02C41.90 49.03 45.00 51.62 47.09 53.71C41.62 57.02 35.14 59.33 28.66 60.62C29.59 61.56 30.60 63.00 31.32 64.30L27.79 64.30L27.79 69.98L52.42 69.98L52.42 82.15C52.42 83.09 52.13 83.30 51.12 83.38C50.18 83.38 46.94 83.38 43.49 83.23C44.28 84.96 45.22 87.48 45.50 89.14C50.54 89.21 53.86 89.14 56.09 88.13C58.32 87.19 58.90 85.46 58.90 82.30L58.90 69.98L68.47 69.98ZM41.33 50.40C36.14 51.62 31.32 52.92 27.72 53.71L28.80 57.89C32.76 56.74 37.30 55.51 41.90 54.29Z"/></svg>
