<svg xmlns="http://www.w3.org/2000/svg" xmlns:xlink="http://www.w3.org/1999/xlink" width="72.00000000000001" height="106.56000000000002"><path fill="red" stroke="red" d="M25.56 38.02L26.64 38.02L26.64 34.20L35.14 34.20L35.14 28.51L26.64 28.51L26.64 23.18L20.02 23.18L20.02 28.51L4.68 28.51L4.68 34.20L20.02 34.20L20.02 38.02L23.54 38.02C18.79 41.18 10.44 44.06 3.38 45.14C4.39 46.30 5.69 48.46 6.26 49.82C14.04 47.95 23.47 43.92 28.44 39.89ZM29.52 46.73C28.51 47.81 27.22 48.82 25.78 49.82C24.70 48.10 23.11 46.30 21.67 44.93L17.42 47.23C18.86 48.74 20.45 50.62 21.46 52.42C20.09 53.14 18.65 53.86 17.21 54.50C16.06 52.63 14.33 50.54 12.60 48.96L8.21 50.90C9.86 52.56 11.38 54.58 12.46 56.38C9.58 57.46 6.70 58.32 3.96 58.90C5.04 60.19 6.41 62.28 7.06 63.79C10.80 62.71 14.83 61.13 18.72 59.26C19.37 60.05 20.02 60.91 20.59 61.70C16.49 64.87 9.36 68.11 3.82 69.62C4.82 70.63 6.05 72.65 6.70 73.94C11.74 72.00 18.07 68.69 22.54 65.45C22.97 66.46 23.33 67.46 23.62 68.47C18.72 72.86 10.08 77.33 3.10 79.27C4.10 80.50 5.33 82.66 5.90 84.02C11.95 81.72 19.08 77.83 24.41 73.73C24.70 77.62 23.90 80.86 22.61 82.01C21.74 83.23 20.59 83.38 19.15 83.38C17.93 83.38 15.98 83.38 13.90 83.09C14.98 84.74 15.41 87.12 15.55 88.56C17.28 88.70 19.08 88.78 20.38 88.70C23.26 88.70 25.20 88.13 27.07 86.04C31.61 81.86 31.90 66.46 23.26 56.88C27.29 54.65 30.96 52.13 33.62 49.61ZM40.32 58.46L58.82 58.46L58.82 63.72L40.32 63.72ZM40.32 48.74L58.82 48.74L58.82 53.93L40.32 53.93ZM59.40 83.02C58.18 83.02 58.10 82.80 58.10 81.22L58.10 68.54L65.23 68.54L65.23 43.92L51.48 43.92C52.20 42.41 52.92 40.75 53.64 39.02L47.02 38.16L52.06 38.16L52.06 34.20L67.61 34.20L67.61 28.51L52.06 28.51L52.06 23.18L45.36 23.18L45.36 28.51L37.37 28.51L37.37 34.20L45.36 34.20L45.36 38.16L46.51 38.16C46.15 39.74 45.50 41.98 44.86 43.92L34.20 43.92L34.20 68.54L41.40 68.54C40.82 76.39 38.81 81.36 29.74 84.17C30.96 85.18 32.69 87.48 33.34 88.92C43.92 85.25 46.58 78.62 47.45 68.54L52.13 68.54L52.13 81.29C52.13 86.76 53.21 88.42 58.32 88.42L63.29 88.42C67.25 88.42 68.76 86.62 69.34 79.63C67.68 79.20 65.30 78.26 64.08 77.47C63.94 82.37 63.65 83.02 62.57 83.02Z"/></svg>
