<svg xmlns="http://www.w3.org/2000/svg" xmlns:xlink="http://www.w3.org/1999/xlink" width="72.00000000000001" height="106.56000000000002"><path fill="red" stroke="red" d="M59.18 39.89L39.24 39.89L39.24 35.06L59.18 35.06ZM59.18 49.54L39.24 49.54L39.24 44.57L59.18 44.57ZM65.52 30.02L49.90 30.02C50.76 28.22 51.55 26.14 52.42 24.05L45.07 23.04C44.71 25.06 43.99 27.72 43.20 30.02L33.12 30.02L33.12 54.58L65.52 54.58ZM10.51 41.54L15.12 41.54L15.12 57.02L10.51 57.02ZM24.41 57.02L19.73 57.02L19.73 41.54L24.41 41.54ZM52.99 81.22L52.99 75.17L65.38 75.17L65.38 69.62L52.99 69.62L52.99 64.30L67.25 64.30L67.25 58.61L31.54 58.61L31.54 64.30L46.30 64.30L46.30 69.62L33.34 69.62L33.34 75.17L46.30 75.17L46.30 81.22L31.68 81.22C30.96 76.61 29.16 70.13 27.00 65.23L22.46 66.46C23.40 68.90 24.34 71.71 25.13 74.52L20.30 75.31L20.30 62.64L29.66 62.64L29.66 36.07L20.38 36.07L20.38 23.47L14.40 23.47L14.40 36.07L5.26 36.07L5.26 65.66L10.51 65.66L10.51 62.57L14.47 62.57L14.47 76.25C10.01 76.97 6.05 77.54 2.81 78.05L3.89 84.46C10.22 83.30 18.43 81.86 26.42 80.28C26.64 81.43 26.86 82.51 26.93 83.38L29.23 82.73L29.23 87.19L68.76 87.19L68.76 81.22Z"/></svg>
