<svg xmlns="http://www.w3.org/2000/svg" xmlns:xlink="http://www.w3.org/1999/xlink" width="72.00000000000001" height="106.56000000000002"><path fill="red" stroke="red" d="M67.97 28.73L50.98 28.73L50.98 34.63L67.97 34.63ZM50.33 36.00C49.10 33.48 46.51 29.66 44.06 26.93L39.89 29.16C42.26 32.04 44.78 36.07 45.94 38.59ZM15.05 23.18C12.53 27.94 7.56 33.77 2.88 37.37C4.03 38.59 5.62 40.97 6.48 42.34C11.81 38.09 17.50 31.39 21.17 25.34ZM24.12 50.69C24.05 62.93 23.54 70.49 19.22 75.17C20.45 76.03 22.03 77.98 22.61 79.13C28.15 73.58 28.94 64.37 29.02 50.69ZM46.94 72.22C46.37 72.22 46.30 71.64 46.30 69.84L46.30 50.69L41.40 50.69L41.40 69.70C41.40 75.10 42.26 76.97 47.09 76.97L49.10 76.97C50.18 76.97 51.19 76.90 51.98 76.61C51.84 75.46 51.62 73.15 51.48 71.86C50.83 72.07 49.82 72.22 49.18 72.22ZM69.05 45.58L49.39 45.58L49.39 40.25L38.02 40.25L38.02 23.62L32.11 23.62L32.11 40.25L22.32 40.25L22.54 39.74L16.49 37.80C13.10 45.50 7.42 53.06 1.58 58.03C2.74 59.40 4.75 62.64 5.33 64.08C7.13 62.42 8.93 60.62 10.66 58.61L10.66 89.28L16.85 89.28L16.85 50.11C18.79 47.09 20.52 43.92 22.03 40.82L22.03 46.44L32.11 46.44L32.11 88.99L38.02 88.99L38.02 46.44L49.25 46.44L49.25 51.62L56.59 51.62L56.59 80.93C56.59 81.79 56.30 82.01 55.30 82.08C54.36 82.08 51.12 82.08 47.81 82.01C48.67 83.88 49.54 86.69 49.75 88.49C54.65 88.49 57.96 88.42 60.19 87.26C62.35 86.26 62.93 84.38 62.93 80.93L62.93 51.62L68.98 51.62Z"/></svg>
