<svg xmlns="http://www.w3.org/2000/svg" xmlns:xlink="http://www.w3.org/1999/xlink" width="72.00000000000001" height="106.56000000000002"><path fill="red" stroke="red" d="M42.19 31.54C41.40 30.74 40.32 29.81 39.02 28.87C40.46 27.58 41.69 26.14 42.70 24.70L38.88 23.62C38.09 24.70 37.08 25.78 35.93 26.78C34.56 25.99 33.26 25.20 31.97 24.55L29.38 26.93C30.53 27.58 31.75 28.22 32.98 29.02C31.25 30.24 29.45 31.25 27.58 32.04C28.51 32.69 30.02 34.20 30.60 34.85C32.40 33.91 34.42 32.69 36.14 31.25C37.51 32.33 38.66 33.34 39.53 34.20ZM11.38 50.18L60.48 50.18L60.48 56.16L66.60 56.16L66.60 45.79L59.62 45.79C60.12 40.18 60.48 32.11 60.70 25.63L45.00 25.63L45.00 29.88L54.58 29.88L54.43 32.62L45.79 32.62L45.79 36.43L54.29 36.43L54.07 39.17L45.50 39.17L45.50 42.98L53.78 42.98L53.57 45.79L31.68 45.79C33.41 44.78 35.14 43.63 36.79 42.34C38.23 43.49 39.60 44.64 40.54 45.65L43.34 42.98C42.41 42.05 41.11 40.97 39.60 39.82C41.11 38.38 42.34 36.94 43.42 35.35L39.53 34.34C38.66 35.42 37.73 36.58 36.50 37.73C35.06 36.79 33.70 35.93 32.33 35.21L29.66 37.66C30.89 38.30 32.26 39.17 33.55 40.03C31.61 41.40 29.59 42.62 27.43 43.63C28.15 44.14 29.16 45.00 29.95 45.79L18.79 45.79L18.65 42.98L26.78 42.98L26.78 39.17L18.43 39.17L18.22 36.43L26.50 36.43L26.50 32.62L18.00 32.62L17.86 30.31C21.24 29.16 25.13 27.65 28.15 25.99L24.48 23.18C21.31 24.84 15.77 27.29 11.81 28.58L11.88 28.66L12.89 45.79L5.47 45.79L5.47 56.16L11.38 56.16ZM21.89 69.98L49.54 69.98L49.54 73.08L21.89 73.08ZM21.89 63.36L49.54 63.36L49.54 66.38L21.89 66.38ZM21.89 56.81L49.54 56.81L49.54 59.83L21.89 59.83ZM49.90 83.09C46.80 83.09 46.22 82.94 46.22 81.29L46.22 76.75L56.16 76.75L56.16 53.06L15.55 53.06L15.55 76.75L23.62 76.75C21.53 81.14 16.63 83.09 2.95 84.10C3.96 85.39 5.40 87.70 5.83 89.21C21.96 87.48 27.86 83.95 30.38 76.75L39.74 76.75L39.74 81.29C39.74 86.83 41.62 88.34 49.18 88.34L60.70 88.34C66.46 88.34 68.18 86.40 68.90 78.62C67.25 78.34 64.66 77.54 63.36 76.61C63.00 82.30 62.57 83.09 59.98 83.09Z"/></svg>
