<svg xmlns="http://www.w3.org/2000/svg" xmlns:xlink="http://www.w3.org/1999/xlink" width="72.00000000000001" height="106.56000000000002"><path fill="red" stroke="red" d="M27.65 34.99L17.50 34.99L20.95 32.54C19.58 29.88 16.70 26.14 13.90 23.26L9.79 25.99C12.24 28.66 14.83 32.33 16.27 34.99L2.95 34.99L2.95 40.32L27.65 40.32ZM25.49 44.78L6.05 44.78L6.05 50.04L25.49 50.04ZM6.05 59.62L25.49 59.62L25.49 54.36L6.05 54.36ZM20.02 69.48L20.02 79.92L11.38 79.92L11.38 69.48ZM25.56 64.15L5.90 64.15L5.90 88.34L11.38 88.34L11.38 85.18L25.56 85.18ZM67.54 67.18L57.24 67.18C57.89 64.30 58.54 61.13 59.11 58.25L30.74 58.25L30.74 64.01L38.09 64.01C37.30 73.73 35.21 80.57 26.28 84.53C27.65 85.61 29.30 87.91 30.02 89.35C40.61 84.46 43.34 75.96 44.35 64.01L51.84 64.01C51.19 67.10 50.47 70.13 49.82 72.50L60.98 72.50C60.41 79.42 59.83 82.37 58.90 83.30C58.32 83.88 57.67 83.95 56.59 83.95C55.37 83.95 52.42 83.95 49.39 83.59C50.26 85.25 50.90 87.55 51.05 89.21C54.43 89.42 57.67 89.42 59.40 89.28C61.34 89.06 62.71 88.56 63.94 87.26C65.74 85.39 66.60 80.71 67.32 69.55ZM68.54 42.48L68.54 36.79L51.70 36.79L51.70 30.82C56.74 30.17 61.42 29.45 65.30 28.37L60.91 23.47C53.64 25.42 40.75 26.64 29.88 27.22C30.53 28.58 31.39 30.89 31.54 32.33C36.00 32.18 40.75 31.90 45.50 31.46L45.50 36.72L29.09 36.72L29.09 42.48L40.46 42.48C36.72 47.09 31.25 51.19 25.92 53.35C27.22 54.58 29.16 56.74 30.02 58.25C35.71 55.37 41.40 50.47 45.50 44.86L45.50 56.52L51.70 56.52L51.70 44.64C55.37 50.04 60.55 55.08 65.52 58.03C66.53 56.52 68.47 54.29 69.84 53.14C65.09 50.98 60.12 46.87 56.59 42.48Z"/></svg>
