<svg xmlns="http://www.w3.org/2000/svg" xmlns:xlink="http://www.w3.org/1999/xlink" width="72.00000000000001" height="106.56000000000002"><path fill="red" stroke="red" d="M27.86 35.06L15.84 35.06L20.66 32.69C19.58 30.24 17.35 26.28 15.41 23.33L10.44 25.49C12.17 28.44 14.26 32.47 15.34 35.06L3.02 35.06L3.02 40.46L27.86 40.46ZM25.63 44.71L5.98 44.71L5.98 49.97L25.63 49.97ZM5.90 59.40L25.56 59.40L25.56 54.22L5.90 54.22ZM20.38 69.34L20.38 79.63L11.16 79.63L11.16 69.34ZM25.78 85.10L25.78 63.94L5.83 63.94L5.83 88.13L11.16 88.13L11.16 85.10ZM52.92 64.44L52.92 71.86L44.06 71.86L44.06 64.44ZM58.03 76.75L58.03 59.54L39.24 59.54L39.24 79.99L44.06 79.99L44.06 76.75ZM51.62 50.18L51.62 43.85L61.27 43.85L61.27 50.18ZM36.72 43.85L46.08 43.85L46.08 50.18L36.72 50.18ZM46.08 31.97L46.08 38.52L36.72 38.52L36.72 31.97ZM61.27 38.52L51.62 38.52L51.62 31.97L61.27 31.97ZM66.82 26.14L31.25 26.14L31.25 53.35C31.25 63.50 30.82 76.90 25.63 86.11C26.78 86.69 29.23 88.42 30.17 89.42C35.50 80.28 36.58 66.10 36.72 55.44L61.27 55.44L61.27 81.58C61.27 82.66 60.91 82.94 59.90 82.94C58.97 83.02 55.87 83.02 52.56 82.87C53.35 84.38 54.14 87.05 54.36 88.56C59.18 88.56 62.28 88.42 64.22 87.41C66.17 86.47 66.82 84.74 66.82 81.65Z"/></svg>
