<svg xmlns="http://www.w3.org/2000/svg" xmlns:xlink="http://www.w3.org/1999/xlink" width="72.00000000000001" height="106.56000000000002"><path fill="red" stroke="red" d="M19.94 32.83C19.15 30.38 17.42 26.42 15.77 23.54L10.15 25.34C11.66 28.30 13.39 32.33 14.04 34.92ZM19.37 69.26L19.37 79.70L10.87 79.70L10.87 69.26ZM24.98 63.94L5.47 63.94L5.47 88.27L10.87 88.27L10.87 85.03L24.98 85.03ZM5.62 59.47L24.62 59.47L24.62 54.22L5.62 54.22ZM24.77 44.71L5.54 44.71L5.54 49.97L24.77 49.97ZM2.95 40.54L26.78 40.54L26.86 35.14L2.95 35.14ZM57.31 33.12L57.31 38.45L44.06 38.45C44.50 36.86 44.93 34.99 45.43 33.12ZM68.69 38.45L63.36 38.45L63.36 28.08L46.58 28.08C46.94 26.50 47.30 24.98 47.59 23.54L41.54 22.90C41.18 24.55 40.82 26.28 40.39 28.08L30.38 28.08L30.38 33.12L39.17 33.12C38.74 34.99 38.30 36.86 37.80 38.45L27.86 38.45L27.86 43.70L68.69 43.70ZM36.79 76.54C37.30 74.66 37.73 72.58 38.16 70.63L46.37 70.63L46.37 76.54ZM36.72 51.62L59.33 51.62L59.33 57.10L36.72 57.10ZM68.83 76.54L52.56 76.54L52.56 70.63L67.25 70.63L67.25 65.74L52.56 65.74L52.56 61.92L65.52 61.92L65.52 46.80L30.74 46.80L30.74 61.92L46.37 61.92L46.37 65.74L28.08 65.74L28.08 70.63L32.26 70.63C31.46 74.45 30.31 78.77 29.38 81.79L46.37 81.79L46.37 89.21L52.56 89.21L52.56 81.79L68.83 81.79Z"/></svg>
