<svg xmlns="http://www.w3.org/2000/svg" xmlns:xlink="http://www.w3.org/1999/xlink" width="72.00000000000001" height="106.56000000000002"><path fill="red" stroke="red" d="M25.63 35.14L16.20 35.14L20.02 33.05C18.94 30.38 16.70 26.57 14.54 23.62L9.43 26.28C11.09 28.87 13.10 32.47 14.18 35.14L3.10 35.14L3.10 40.46L25.63 40.46ZM24.34 44.71L5.98 44.71L5.98 49.97L24.34 49.97ZM5.90 59.40L24.26 59.40L24.26 54.22L5.90 54.22ZM41.69 64.08L41.69 58.82L47.81 58.82L47.81 64.08ZM41.69 48.89L47.81 48.89L47.81 53.71L41.69 53.71ZM41.69 39.24L47.81 39.24L47.81 43.92L41.69 43.92ZM59.40 48.89L59.40 53.71L53.42 53.71L53.42 48.89ZM59.40 64.08L53.42 64.08L53.42 58.82L59.40 58.82ZM18.58 79.63L11.59 79.63L11.59 69.34L18.58 69.34ZM64.87 68.98L64.87 58.82L68.76 58.82L68.76 53.71L64.87 53.71L64.87 43.92L53.42 43.92L53.42 39.24L67.54 39.24L67.54 34.20L55.08 34.20C57.10 31.68 59.40 28.66 61.42 25.78L55.22 23.18C53.64 26.50 50.90 30.96 48.53 34.20L37.80 34.20L42.48 32.11C41.47 29.74 39.31 25.99 37.51 23.18L31.82 25.49C33.48 28.22 35.35 31.82 36.36 34.20L26.50 34.20L26.50 39.24L36.22 39.24L36.22 43.92L27.22 43.92L27.22 48.89L36.22 48.89L36.22 53.71L25.34 53.71L25.34 58.82L36.22 58.82L36.22 64.08L26.93 64.08L26.93 68.98L33.91 68.98C31.39 73.73 27.94 78.19 24.41 81.29L24.41 63.94L5.90 63.94L5.90 88.27L11.59 88.27L11.59 85.03L24.41 85.03L24.41 84.24C25.34 85.25 26.28 86.40 26.78 87.26C30.24 84.38 33.55 79.99 36.22 74.95L36.22 89.14L41.69 89.14L41.69 68.98L47.81 68.98L47.81 89.14L53.42 89.14L53.42 74.23C56.95 79.42 61.27 84.31 65.38 87.26C66.31 85.75 68.11 83.66 69.41 82.58C64.66 79.70 59.40 74.38 55.73 68.98Z"/></svg>
