<svg xmlns="http://www.w3.org/2000/svg" xmlns:xlink="http://www.w3.org/1999/xlink" width="72.00000000000001" height="106.56000000000002"><path fill="red" stroke="red" d="M20.52 32.40C19.51 29.81 17.35 25.99 15.41 22.97L9.94 25.06C11.74 28.01 13.82 32.18 14.83 34.85ZM19.15 69.34L19.15 79.63L11.52 79.63L11.52 69.34ZM24.70 63.94L5.83 63.94L5.83 88.34L11.52 88.34L11.52 85.10L24.70 85.10ZM5.83 59.62L24.41 59.62L24.41 54.29L5.83 54.29ZM24.48 44.78L5.83 44.78L5.83 50.18L24.48 50.18ZM58.25 33.62C56.52 36.43 54.29 38.81 51.62 40.82C49.90 38.66 47.23 36.00 44.57 33.62ZM52.34 72.07L68.62 72.07L68.62 66.53L52.34 66.53L52.34 60.12L64.87 60.12L64.87 54.65L42.55 54.65C42.98 53.93 43.34 53.14 43.70 52.42L43.06 52.27C53.93 48.10 62.42 41.11 66.53 29.74L62.71 28.37L61.56 28.58L46.66 28.58C47.88 27.07 49.03 25.63 50.11 24.05L43.92 22.90C40.82 27.22 35.35 31.90 27.36 35.35L27.36 35.14L3.38 35.14L3.38 40.68L27.36 40.68L27.36 37.22C28.30 38.30 29.16 39.53 29.66 40.46C33.34 38.81 36.58 36.94 39.38 34.99C42.41 37.66 45.58 40.97 47.52 43.56C41.62 47.02 34.27 49.10 26.35 50.18C27.43 51.62 28.66 54.36 29.09 55.94C31.46 55.58 33.77 55.08 36.00 54.50C34.13 57.67 31.75 60.70 29.23 62.93C30.60 63.65 33.19 65.09 34.34 66.02C35.93 64.44 37.58 62.35 39.17 60.12L45.86 60.12L45.86 66.53L28.44 66.53L28.44 72.07L45.86 72.07L45.86 81.00L37.44 81.00L37.44 74.23L31.46 74.23L31.46 86.54L59.90 86.54L59.90 89.21L66.02 89.21L66.02 74.16L59.90 74.16L59.90 81.00L52.34 81.00ZM41.47 41.04L29.74 42.19L29.95 45.94L41.69 44.50Z"/></svg>
