<svg xmlns="http://www.w3.org/2000/svg" xmlns:xlink="http://www.w3.org/1999/xlink" width="72.00000000000001" height="106.56000000000002"><path fill="red" stroke="red" d="M5.33 62.64L11.16 62.64L11.16 55.37L60.77 55.37L60.77 62.21L66.89 62.21L66.89 50.76L5.33 50.76ZM51.41 43.99L20.81 43.99L20.81 39.82L51.41 39.82ZM14.18 35.93L14.18 47.81L58.46 47.81L58.46 35.93ZM58.03 63.36C53.71 65.45 47.16 68.04 41.47 69.98C40.10 67.68 38.09 65.30 35.50 63.36C35.93 63.14 36.29 62.93 36.65 62.71L57.10 62.71L57.10 58.39L14.76 58.39L14.76 62.71L27.79 62.71C21.89 64.80 14.62 66.38 8.28 67.39C9.14 68.26 10.37 70.42 10.80 71.35C17.14 69.98 24.41 68.04 30.53 65.59C31.25 66.10 31.90 66.60 32.54 67.18C26.71 71.06 16.06 74.30 6.98 75.67C7.92 76.61 9.22 78.26 9.79 79.27C18.43 77.69 28.58 74.09 34.85 69.62C35.50 70.42 36.00 71.14 36.43 71.86C29.66 77.76 17.14 82.22 5.47 84.17C6.55 85.10 7.85 87.05 8.57 88.27C19.22 86.18 30.60 81.79 38.02 75.67C38.88 78.98 38.23 81.72 36.72 82.80C35.78 83.59 34.63 83.66 33.12 83.66C31.82 83.66 29.74 83.66 27.58 83.45C28.58 84.96 29.23 87.34 29.30 88.85C31.10 88.92 32.90 88.92 34.27 88.92C37.01 88.92 38.88 88.42 40.97 86.76C43.99 84.53 45.07 79.56 43.42 74.30C44.71 73.87 46.08 73.44 47.45 73.01C50.69 80.14 56.16 85.39 63.86 87.91C64.66 86.40 66.24 84.24 67.54 83.02C60.48 81.22 55.30 76.97 52.42 71.35C55.80 70.13 59.18 68.76 62.06 67.39ZM40.82 27.86C40.10 26.06 39.02 24.05 37.94 22.46L31.32 24.05C31.97 25.20 32.69 26.50 33.19 27.86L4.46 27.86L4.46 32.98L67.75 32.98L67.75 27.86Z"/></svg>
