<svg xmlns="http://www.w3.org/2000/svg" xmlns:xlink="http://www.w3.org/1999/xlink" width="72.00000000000001" height="106.56000000000002"><path fill="red" stroke="red" d="M21.82 39.53L11.74 39.53L11.74 31.90L21.82 31.90ZM21.82 52.56L11.74 52.56L11.74 44.71L21.82 44.71ZM21.82 65.59L11.74 65.59L11.74 57.67L21.82 57.67ZM27.72 26.50L5.98 26.50L5.98 70.99L27.72 70.99ZM9.79 72.79C8.14 76.97 5.54 81.79 3.17 85.10C4.54 85.82 7.06 87.34 8.14 88.27C10.58 84.74 13.54 79.20 15.55 74.45ZM18.29 75.17C20.52 78.62 23.26 83.30 24.48 86.40L29.66 83.38C28.37 80.57 25.63 76.10 23.26 72.65ZM59.76 51.41L59.76 57.31L43.56 57.31L43.56 51.41ZM43.49 68.62C43.56 67.25 43.56 65.95 43.56 64.73L43.56 62.78L59.76 62.78L59.76 68.62ZM68.40 38.95L68.40 32.76L47.66 32.76C48.46 30.10 49.18 27.29 49.82 24.41L43.63 23.18C42.91 26.50 42.12 29.66 41.18 32.76L30.82 32.76L30.82 38.95L38.88 38.95C36.22 45.29 32.83 50.69 28.58 54.79C29.81 56.23 31.68 59.47 32.26 60.98C34.06 59.18 35.64 57.24 37.22 55.08L37.22 64.66C37.22 71.21 36.79 79.06 32.40 84.82C33.77 85.61 36.22 88.13 37.15 89.57C40.54 85.39 42.19 79.78 42.98 74.16L59.76 74.16L59.76 82.30C59.76 83.16 59.47 83.38 58.61 83.45C57.89 83.45 55.08 83.45 52.42 83.30C53.21 84.82 54.00 87.26 54.29 88.85C58.39 88.85 61.34 88.70 63.36 87.77C65.23 86.90 65.88 85.32 65.88 82.37L65.88 45.79L42.62 45.79C43.70 43.63 44.71 41.33 45.58 38.95Z"/></svg>
