<svg xmlns="http://www.w3.org/2000/svg" xmlns:xlink="http://www.w3.org/1999/xlink" width="72.00000000000001" height="106.56000000000002"><path fill="red" stroke="red" d="M10.15 72.94C8.42 77.33 5.54 82.08 2.59 85.25C4.03 86.04 6.48 87.55 7.63 88.56C10.51 85.03 13.82 79.56 15.91 74.59ZM17.57 74.95C20.16 78.48 23.11 83.30 24.34 86.40L29.45 83.66C28.01 80.57 25.06 76.03 22.32 72.58ZM35.64 66.38C33.91 71.42 31.32 77.04 28.51 80.86C29.95 81.50 32.62 83.02 33.77 83.95C36.43 79.92 39.46 73.51 41.47 67.97ZM67.54 62.57L67.54 56.81L30.10 56.81L30.10 62.57L45.58 62.57L45.58 89.21L51.91 89.21L51.91 62.57ZM55.37 68.18C58.18 73.08 61.34 79.49 62.50 83.45L68.54 81.29C67.18 77.33 63.94 71.14 60.98 66.38ZM37.80 45.07C41.76 41.54 45.29 37.30 48.24 32.62C51.12 37.08 54.86 41.54 58.82 45.07ZM21.67 39.74L11.88 39.74L11.88 31.75L21.67 31.75ZM21.67 52.99L11.88 52.99L11.88 44.86L21.67 44.86ZM21.67 66.24L11.88 66.24L11.88 58.10L21.67 58.10ZM46.66 22.39C42.84 31.61 35.57 39.67 27.58 44.35L27.58 26.35L6.19 26.35L6.19 71.64L27.58 71.64L27.58 44.64C29.23 46.01 30.96 48.02 31.97 49.54C33.41 48.67 34.70 47.66 36.07 46.51L36.07 50.69L60.26 50.69L60.26 46.30C61.85 47.52 63.36 48.67 64.94 49.54C65.88 47.95 68.11 45.50 69.55 44.14C62.64 40.75 55.22 33.62 51.34 26.93C51.77 26.06 52.20 25.27 52.56 24.41Z"/></svg>
