<svg xmlns="http://www.w3.org/2000/svg" xmlns:xlink="http://www.w3.org/1999/xlink" width="72.00000000000001" height="106.56000000000002"><path fill="red" stroke="red" d="M21.82 38.88L21.82 46.94L27.72 46.94L27.72 38.88L35.28 38.88L35.28 33.77L14.98 33.77C15.05 33.12 15.05 32.54 15.05 32.04L15.05 30.60C21.82 30.10 29.09 29.02 34.13 27.36L30.17 23.33C25.42 24.91 16.70 25.99 9.22 26.50L9.22 31.97C9.22 36.00 8.42 41.04 3.24 45.00C4.39 45.79 6.84 48.10 7.63 49.32C11.30 46.37 13.32 42.62 14.18 38.88ZM19.80 69.12L51.98 69.12L51.98 73.44L19.80 73.44ZM19.80 60.84L51.98 60.84L51.98 65.02L19.80 65.02ZM19.80 52.56L51.98 52.56L51.98 56.81L19.80 56.81ZM58.75 77.69L58.75 48.31L13.32 48.31L13.32 77.69L24.91 77.69C19.51 80.14 11.02 82.51 4.32 83.95C5.26 85.25 6.98 88.34 7.56 89.64C14.76 87.48 24.19 83.81 30.17 80.42L25.34 77.69L45.22 77.69L42.70 81.72C50.76 84.02 59.11 87.12 64.22 89.50L67.39 84.67C62.21 82.58 54.07 79.78 46.37 77.69ZM43.92 33.77C43.99 33.05 43.99 32.40 43.99 31.82L43.99 30.46C51.34 29.95 59.40 28.87 64.87 27.14L60.55 23.33C55.58 24.91 46.22 25.92 38.38 26.35L38.38 31.68C38.38 35.64 37.66 40.75 33.26 44.93C34.63 45.50 37.15 47.23 38.16 48.24C40.97 45.58 42.48 42.26 43.20 38.88L51.26 38.88L51.26 47.09L57.24 47.16L57.24 38.88L67.97 38.88L67.97 33.77Z"/></svg>
