<svg xmlns="http://www.w3.org/2000/svg" xmlns:xlink="http://www.w3.org/1999/xlink" width="72.00000000000001" height="106.56000000000002"><path fill="red" stroke="red" d="M11.59 32.90C11.59 38.02 13.61 39.82 21.53 39.82L52.27 39.82C57.17 39.82 62.21 39.74 64.30 39.31C64.08 38.16 63.86 36.65 63.58 34.92C61.27 35.35 55.01 35.57 51.34 35.57L21.46 35.57C17.71 35.57 17.14 34.99 17.14 32.98L17.14 31.82L68.76 31.82L68.76 27.22L40.90 27.22C40.18 25.78 39.31 24.12 38.30 22.68L31.39 24.05C31.97 24.98 32.54 26.06 33.05 27.22L3.02 27.22L3.02 31.82L11.59 31.82ZM18.14 46.15L53.86 46.15L53.86 49.46L18.14 49.46ZM12.17 53.50L60.12 53.50L60.12 42.12L12.17 42.12ZM38.09 62.57L31.18 62.57L31.18 59.83L38.09 59.83ZM38.09 68.90L31.18 68.90L31.18 66.10L38.09 66.10ZM38.09 75.38L31.18 75.38L31.18 72.36L38.09 72.36ZM11.52 67.32C13.25 68.04 15.34 69.26 16.56 70.13L18.29 67.10L18.29 73.30C15.62 73.80 13.32 74.23 11.23 74.52C11.45 72.29 11.52 70.20 11.52 68.26ZM18.29 60.55L18.29 66.60C16.99 65.74 14.83 64.73 13.18 64.15L11.52 66.60L11.52 60.55ZM42.77 79.06L42.77 56.16L26.64 56.16L26.64 79.06L29.38 79.06C28.15 81.14 25.63 83.74 23.18 85.46C23.26 84.96 23.33 84.24 23.33 83.52L23.33 56.16L6.91 56.16L6.91 68.26C6.91 73.73 6.48 80.93 2.45 86.26C3.53 86.69 5.54 88.06 6.34 88.85C9.14 85.25 10.44 80.50 11.09 75.89L12.17 78.55C14.18 77.98 16.20 77.47 18.29 76.90L18.29 83.52C18.29 84.17 18.07 84.38 17.35 84.38C16.63 84.46 14.47 84.46 12.02 84.38C12.67 85.68 13.32 87.62 13.46 88.99C17.14 89.06 19.66 88.99 21.17 88.13C22.03 87.77 22.54 87.19 22.90 86.54C23.98 87.19 25.27 88.27 26.06 88.92C28.66 87.19 31.97 83.88 33.91 81.07L29.59 79.06L38.81 79.06L35.50 81.07C37.01 82.80 38.95 85.10 39.89 86.69L43.70 84.10C42.77 82.73 40.82 80.57 39.38 79.06ZM63.14 84.53C62.71 84.53 62.50 84.46 62.35 84.24C62.21 83.95 62.14 82.94 62.14 81.50L62.14 56.16L45.07 56.16L45.07 60.84L48.31 60.84L48.31 67.10C47.38 66.31 46.51 65.59 45.65 64.87L43.63 67.82C45.14 69.12 46.66 70.56 48.24 72.07C47.95 76.97 46.80 82.51 43.06 86.76C44.06 87.26 46.15 88.63 46.87 89.42C50.11 85.82 51.55 80.93 52.27 76.25C53.35 77.40 54.22 78.55 54.94 79.49L57.17 76.10C56.09 74.74 54.58 72.94 52.70 71.21C52.78 70.49 52.78 69.77 52.78 69.12L52.78 60.84L57.31 60.84L57.31 81.07C57.31 85.54 57.60 86.69 58.46 87.55C59.33 88.42 60.62 88.78 61.85 88.78L64.44 88.78C65.38 88.78 66.53 88.63 67.18 88.13C67.90 87.70 68.47 86.98 68.90 85.90C69.19 84.82 69.41 81.94 69.48 79.49C68.33 79.06 66.82 78.34 65.88 77.54C65.88 79.99 65.81 82.01 65.66 82.87C65.52 83.66 65.30 84.10 65.09 84.31C64.94 84.53 64.51 84.53 64.15 84.53Z"/></svg>
