<svg xmlns="http://www.w3.org/2000/svg" xmlns:xlink="http://www.w3.org/1999/xlink" width="72.00000000000001" height="106.56000000000002"><path fill="red" stroke="red" d="M11.59 31.75L23.83 31.75L23.83 42.84L11.59 42.84ZM30.46 72.22C27.36 73.01 24.19 73.87 21.02 74.74L21.02 63.43L29.81 63.43L29.81 57.60L21.02 57.60L21.02 48.60L29.66 48.60L29.66 26.06L6.05 26.06L6.05 48.60L15.34 48.60L15.34 76.25L11.23 77.33L11.23 54.72L5.90 54.72L5.90 78.70L2.52 79.49L4.10 85.82C11.52 83.66 21.67 80.71 31.18 77.98ZM38.38 28.58C37.94 46.08 36.86 71.64 27.94 85.54C29.38 86.40 31.75 88.56 32.90 89.78C42.84 74.81 44.35 47.81 45.07 28.94ZM48.60 26.93L48.60 33.34L53.06 33.34C53.86 56.74 55.80 77.33 63.43 89.64C65.02 88.13 68.04 86.04 69.84 85.03C61.85 73.73 60.05 51.26 59.33 26.93Z"/></svg>
