<svg xmlns="http://www.w3.org/2000/svg" xmlns:xlink="http://www.w3.org/1999/xlink" width="72.00000000000001" height="106.56000000000002"><path fill="red" stroke="red" d="M11.81 31.75L24.19 31.75L24.19 42.84L11.81 42.84ZM30.67 72.22C27.86 73.01 25.06 73.73 22.32 74.52L22.32 63.22L30.24 63.22L30.24 57.38L22.32 57.38L22.32 48.60L30.24 48.60L30.24 26.06L6.12 26.06L6.12 48.60L16.42 48.60L16.42 76.03L11.45 77.33L11.45 54.72L5.98 54.72L5.98 78.70L2.52 79.49L4.10 85.75C11.66 83.66 21.89 80.78 31.46 78.05ZM55.15 80.93L55.15 54.79L67.03 54.79L67.03 48.46L55.15 48.46L55.15 23.33L48.60 23.33L48.60 80.93L41.69 80.93L41.69 39.67L35.50 39.67L35.50 80.93L27.72 80.93L27.72 87.26L69.05 87.26L69.05 80.93Z"/></svg>
