<svg xmlns="http://www.w3.org/2000/svg" xmlns:xlink="http://www.w3.org/1999/xlink" width="72.00000000000001" height="106.56000000000002"><path fill="red" stroke="red" d="M11.81 31.61L22.18 31.61L22.18 43.27L11.81 43.27ZM29.02 72.86L21.02 74.81L21.02 63.50L28.58 63.50L28.58 57.82L21.02 57.82L21.02 48.82L28.08 48.82L28.08 25.99L6.19 25.99L6.19 48.82L15.34 48.82L15.34 76.18L11.23 77.11L11.23 54.79L5.98 54.79L5.98 78.34L2.30 79.13L3.60 85.25C10.73 83.45 20.45 80.93 29.66 78.48ZM33.12 48.89C31.97 56.52 29.88 63.94 26.50 68.90C27.79 69.48 30.38 71.14 31.39 72.00C34.85 66.60 37.44 58.39 38.88 49.97ZM68.83 41.04L68.83 34.63L50.76 34.63L54.22 33.55C53.50 30.67 51.48 26.21 49.54 22.97L43.42 24.62C45.07 27.72 46.73 31.82 47.52 34.63L30.02 34.63L30.02 41.04L40.97 41.04L40.97 52.34C40.97 62.71 39.31 75.38 26.21 84.96C27.72 86.11 29.81 87.91 30.89 89.28C44.86 78.84 46.73 64.73 46.73 52.42L46.73 41.04L51.62 41.04L51.62 81.72C51.62 82.66 51.34 82.87 50.33 82.94C49.32 83.02 46.30 83.02 42.98 82.87C43.92 84.67 44.78 87.55 44.93 89.28C49.82 89.28 53.06 89.14 55.15 88.06C57.17 87.05 57.82 85.10 57.82 81.79L57.82 41.04ZM57.89 50.47C60.91 57.10 63.58 65.74 64.30 71.50L70.06 69.26C69.12 63.50 66.38 55.01 63.14 48.38Z"/></svg>
