<svg xmlns="http://www.w3.org/2000/svg" xmlns:xlink="http://www.w3.org/1999/xlink" width="72.00000000000001" height="106.56000000000002"><path fill="red" stroke="red" d="M11.81 32.40L21.67 32.40L21.67 43.56L11.81 43.56ZM28.66 72.58L20.45 74.59L20.45 63.07L27.65 63.07L27.65 57.24L20.45 57.24L20.45 49.18L27.36 49.18L27.36 26.71L6.34 26.71L6.34 49.18L14.98 49.18L14.98 76.03L11.16 76.90L11.16 54.36L6.34 54.36L6.34 78.05C4.97 78.41 3.74 78.62 2.59 78.91L4.03 85.03C11.16 83.16 20.52 80.64 29.45 78.19ZM38.52 44.93C37.22 41.04 35.21 36.43 32.90 32.69L27.65 34.99C30.38 39.74 32.98 46.15 33.62 50.40L38.52 48.17L38.52 53.35C38.52 54.79 38.52 56.23 38.45 57.74C33.62 60.77 28.80 63.65 25.56 65.30L29.23 71.50C31.97 69.26 34.99 66.96 37.94 64.58C36.94 72.58 33.98 80.28 25.85 84.46C27.22 85.61 29.23 87.98 30.10 89.35C43.13 81.43 44.64 66.38 44.64 53.35L44.64 23.11L38.52 23.11ZM57.74 82.22C56.23 82.22 56.02 81.72 56.02 78.84L56.02 61.63C59.54 64.73 63.29 68.26 65.38 70.70L69.70 65.88C67.03 62.93 61.49 58.25 57.24 55.01L56.02 56.16L56.02 48.38L59.90 50.54C62.64 46.58 65.88 40.39 68.69 35.06L62.50 32.11C61.13 36.43 58.32 42.34 56.02 46.51L56.02 23.11L49.75 23.11L49.75 78.84C49.75 86.26 51.26 88.20 56.59 88.20L62.86 88.20C67.61 88.20 69.12 85.10 69.70 76.68C67.97 76.39 65.59 75.24 64.15 74.09C63.94 80.35 63.72 82.22 62.42 82.22Z"/></svg>
