<svg xmlns="http://www.w3.org/2000/svg" xmlns:xlink="http://www.w3.org/1999/xlink" width="72.00000000000001" height="106.56000000000002"><path fill="red" stroke="red" d="M9.50 55.87L14.33 55.87L14.33 61.63L9.50 61.63ZM9.50 45.50L14.33 45.50L14.33 51.19L9.50 51.19ZM23.62 51.19L18.72 51.19L18.72 45.50L23.62 45.50ZM23.62 61.63L18.72 61.63L18.72 55.87L23.62 55.87ZM19.37 66.53L28.30 66.53L28.30 40.68L19.37 40.68L19.37 36.07L29.09 36.07L29.09 30.46L19.37 30.46L19.37 23.11L13.61 23.11L13.61 30.46L3.60 30.46L3.60 36.07L13.61 36.07L13.61 40.68L4.97 40.68L4.97 66.53L13.61 66.53L13.61 71.42L2.88 71.42L2.88 77.18L13.61 77.18L13.61 89.21L19.37 89.21L19.37 77.18L29.52 77.18L29.52 71.42L19.37 71.42ZM62.35 71.93C59.26 66.10 59.04 59.18 59.04 51.77L52.70 51.77L52.70 55.87L55.58 55.87C54.94 63.07 53.50 69.19 51.12 72.65L51.12 46.22L62.35 46.22ZM37.73 51.77L37.73 55.87L40.46 55.87C39.82 63.58 38.52 69.84 36.00 73.08L36.00 46.22L46.94 46.22L46.94 72.22C44.14 66.38 43.92 59.33 43.92 51.77ZM68.40 34.34L68.40 28.58L30.38 28.58L30.38 34.34L46.08 34.34L46.08 40.75L31.03 40.75L31.03 89.06L36.00 89.06L36.00 73.58C36.79 74.38 37.66 75.60 38.09 76.61C39.74 74.52 40.97 71.42 41.90 67.68C42.48 70.78 43.49 73.66 44.93 76.25C45.36 75.67 46.22 74.88 46.94 74.30L46.94 88.49L51.12 88.49L51.12 73.94C51.84 74.66 52.49 75.67 52.92 76.46C54.72 74.30 56.09 71.06 57.02 67.18C57.74 70.49 58.90 73.66 60.70 76.32C61.06 75.82 61.70 75.17 62.35 74.59L62.35 82.37C62.35 83.23 62.06 83.52 61.13 83.52C60.19 83.59 57.24 83.59 54.14 83.52C54.86 84.96 55.58 87.48 55.87 88.92C60.26 88.92 63.22 88.85 65.23 87.98C67.10 87.05 67.61 85.39 67.61 82.44L67.61 40.75L51.91 40.75L51.91 34.34Z"/></svg>
