<svg xmlns="http://www.w3.org/2000/svg" xmlns:xlink="http://www.w3.org/1999/xlink" width="72.00000000000001" height="106.56000000000002"><path fill="red" stroke="red" d="M41.76 69.91C41.76 70.92 41.33 71.28 40.18 71.28C39.10 71.35 35.28 71.35 31.32 71.21C32.33 72.86 33.41 75.60 33.77 77.40C39.38 77.40 42.84 77.26 45.22 76.25C47.66 75.24 48.53 73.44 48.53 69.91L48.53 52.70L68.11 52.70L68.11 46.44L48.53 46.44L48.53 33.48L65.45 33.48L65.45 27.29L25.42 27.29L25.42 33.48L41.76 33.48L41.76 46.44L22.46 46.44L22.46 52.70L41.76 52.70ZM17.78 35.35C16.78 32.33 15.12 27.65 13.75 23.98L7.56 25.70C8.71 29.45 10.51 34.42 11.38 37.51ZM19.15 55.58L18.22 55.80L14.62 55.80C16.49 50.90 18.65 45.14 20.30 40.18L3.24 40.18L3.24 46.22L12.10 46.22C10.22 51.70 8.06 57.46 6.19 61.63L15.62 61.63C14.76 66.24 13.32 71.14 11.74 74.88C8.93 75.82 5.62 79.06 2.38 83.30L6.98 89.57C8.86 85.18 11.38 80.50 12.96 80.50C14.54 80.50 17.14 83.02 20.02 84.67C25.27 87.70 31.32 88.49 40.75 88.49C49.18 88.49 62.21 88.06 67.82 87.70C67.90 85.90 68.98 82.66 69.77 80.78C61.85 81.79 49.75 82.44 40.97 82.44C32.62 82.44 26.06 82.01 21.17 78.98C19.37 77.90 18.14 76.97 17.06 76.25C19.51 70.85 21.60 63.43 22.75 56.66Z"/></svg>
