<svg xmlns="http://www.w3.org/2000/svg" xmlns:xlink="http://www.w3.org/1999/xlink" width="72.00000000000001" height="106.56000000000002"><path fill="red" stroke="red" d="M59.54 26.06C57.96 30.38 55.01 36.65 52.63 40.46L57.82 42.70C60.34 39.02 63.43 33.34 66.10 28.44ZM37.94 40.25C36.43 36.65 33.05 30.74 30.38 26.42L24.77 28.73C27.36 33.19 30.53 39.24 31.97 42.84ZM41.40 78.84L48.02 78.84L48.02 51.70L67.61 51.70L67.61 45.58L48.02 45.58L48.02 24.19L41.40 24.19L41.40 45.58L22.46 45.58L22.46 51.70L41.40 51.70ZM50.62 56.16C55.08 61.78 60.62 69.62 63.22 74.38L68.26 70.63C65.66 66.02 59.90 58.46 55.37 52.99ZM32.83 53.28C30.02 59.26 24.91 65.95 20.30 69.62C21.89 70.85 23.98 73.08 25.13 74.66C29.81 70.20 35.21 62.35 38.30 55.22ZM17.57 34.99C16.56 31.90 14.76 27.07 13.39 23.33L7.27 25.13C8.42 28.94 10.22 33.98 11.09 37.15ZM18.65 55.87L17.71 56.16L13.90 56.16C15.77 51.19 17.86 45.29 19.51 40.18L3.53 40.18L3.53 46.22L10.80 46.22C8.93 51.84 6.77 57.67 4.97 61.92L14.33 61.92C13.18 66.82 11.45 72.00 9.58 75.89C7.34 77.33 4.75 80.14 2.30 83.38L6.84 89.57C8.78 85.18 11.30 80.50 12.89 80.50C14.47 80.50 17.06 83.02 19.94 84.67C25.20 87.70 31.39 88.49 40.82 88.49C49.25 88.49 62.42 88.06 67.97 87.70C68.11 85.90 69.19 82.58 69.98 80.78C61.99 81.79 49.82 82.44 41.11 82.44C32.62 82.44 26.06 82.01 21.10 78.98C18.72 77.54 17.21 76.32 15.84 75.60C18.43 70.20 20.38 63.43 21.74 57.02Z"/></svg>
