<svg xmlns="http://www.w3.org/2000/svg" xmlns:xlink="http://www.w3.org/1999/xlink" width="72.00000000000001" height="106.56000000000002"><path fill="red" stroke="red" d="M31.68 34.56L31.68 30.89L40.39 30.89L40.39 34.56ZM56.09 30.89L56.09 34.56L46.80 34.56L46.80 30.89ZM67.75 41.54L46.80 41.54L46.80 38.45L62.57 38.45L62.57 27.00L46.80 27.00L46.80 23.11L40.39 23.11L40.39 27.00L25.56 27.00L25.56 38.45L40.39 38.45L40.39 41.54L22.10 41.54L22.10 46.44L67.75 46.44ZM54.43 53.42L54.43 56.95L33.26 56.95L33.26 53.42ZM56.81 68.76L56.81 72.50L33.26 72.50L33.26 68.76ZM60.84 61.13L60.84 49.25L27.00 49.25L27.00 76.90L63.14 76.90L63.14 64.37L33.26 64.37L33.26 61.13ZM17.06 34.99C16.13 31.90 14.47 27.07 13.10 23.40L7.27 25.13C8.35 28.94 10.15 34.06 11.02 37.22ZM18.65 55.87L17.71 56.16L13.68 56.16C15.41 51.19 17.50 45.29 19.01 40.18L3.53 40.18L3.53 46.22L10.80 46.22C8.93 51.84 6.84 57.67 5.04 61.92L14.33 61.92C13.18 66.82 11.45 72.00 9.58 75.89C7.34 77.33 4.75 80.14 2.30 83.38L6.84 89.57C8.78 85.18 11.23 80.50 12.89 80.50C14.47 80.50 17.06 83.02 19.94 84.67C25.20 87.70 31.39 88.49 40.82 88.49C49.18 88.49 62.42 88.06 67.97 87.70C68.11 85.90 69.19 82.58 69.98 80.78C61.99 81.79 49.82 82.44 41.11 82.44C32.62 82.44 26.06 82.01 21.10 78.98C18.72 77.54 17.21 76.32 15.84 75.60C18.36 70.20 20.38 63.43 21.67 57.02Z"/></svg>
