<svg xmlns="http://www.w3.org/2000/svg" xmlns:xlink="http://www.w3.org/1999/xlink" width="72.00000000000001" height="106.56000000000002"><path fill="red" stroke="red" d="M54.86 55.51L48.82 55.51L48.82 51.48L54.86 51.48ZM54.86 64.15L48.82 64.15L48.82 60.05L54.86 60.05ZM54.86 72.79L48.82 72.79L48.82 68.62L54.86 68.62ZM67.90 51.48L67.90 46.87L61.20 46.87C60.48 44.57 59.40 41.47 58.46 39.02L53.93 40.18C54.65 42.26 55.44 44.71 56.09 46.87L49.75 46.87C50.69 44.64 51.62 42.34 52.27 40.03L47.09 38.74C45.43 44.57 42.41 50.47 38.95 54.43C40.10 55.30 42.12 57.31 42.91 58.25C43.20 57.89 43.49 57.60 43.78 57.24L43.78 79.85L48.82 79.85L48.82 77.40L68.33 77.40L68.33 72.79L59.62 72.79L59.62 68.62L66.60 68.62L66.60 64.15L59.62 64.15L59.62 60.05L66.60 60.05L66.60 55.51L59.62 55.51L59.62 51.48ZM28.51 29.45L35.28 29.45L35.28 34.42L28.51 34.42ZM40.46 29.45L47.45 29.45L47.45 34.42L40.46 34.42ZM52.63 29.45L59.69 29.45L59.69 34.42L52.63 34.42ZM34.70 67.32C36.07 70.56 37.66 74.95 38.30 77.83L42.19 76.75C41.54 73.94 39.89 69.77 38.45 66.38L37.94 66.53L41.98 65.30C41.47 62.71 40.03 58.32 38.74 55.01L34.85 55.94C35.28 57.17 35.71 58.54 36.07 59.83L29.02 60.77C33.26 56.38 37.44 51.12 40.75 45.79L35.86 43.85C34.85 45.86 33.55 48.02 32.26 49.97L27.43 50.18C29.95 47.16 32.47 43.49 34.27 39.89L30.53 38.66L65.81 38.66L65.81 25.13L22.61 25.13L22.61 38.66L28.80 38.66C27.07 43.13 23.98 47.66 22.97 48.74C21.96 50.04 21.10 50.76 20.09 50.98C20.66 51.98 21.46 54.07 21.82 54.94C22.75 54.65 24.05 54.43 29.45 53.93C27.43 56.45 25.78 58.39 24.91 59.18C23.26 60.98 21.96 62.21 20.59 62.42C21.17 63.50 22.03 65.52 22.32 66.31C23.54 65.74 25.63 65.30 37.15 63.50C37.44 64.66 37.73 65.74 37.87 66.53ZM34.34 78.41C34.13 75.38 33.48 70.92 32.62 67.46L28.73 68.18C29.45 71.57 30.10 76.10 30.24 79.13ZM22.68 67.32C22.10 70.92 21.24 74.95 20.09 77.90C21.24 78.12 23.18 78.55 24.12 78.91C25.06 76.18 26.14 71.78 26.86 68.04ZM15.77 35.28C14.90 32.18 13.39 27.43 12.17 23.69L6.98 25.13C7.99 28.94 9.58 34.06 10.37 37.22ZM16.85 55.94L15.91 56.16L12.53 56.16C14.11 51.19 15.84 45.29 17.28 40.18L3.53 40.18L3.53 46.22L10.01 46.22C8.42 51.84 6.62 57.67 5.04 61.92L12.89 61.92C11.66 67.25 9.94 72.86 7.92 77.04C6.12 78.55 4.10 80.93 2.23 83.74L6.62 89.71C8.21 85.39 10.44 80.78 11.81 80.78C13.39 80.78 16.06 83.16 19.01 84.82C24.41 87.91 30.67 88.70 40.25 88.70C48.82 88.70 62.35 88.20 67.90 87.84C68.04 86.11 69.12 82.94 69.84 81.22C61.78 82.22 49.68 82.87 40.46 82.87C31.97 82.87 25.13 82.44 20.16 79.42C17.35 77.69 15.62 76.32 14.11 75.60C16.42 70.13 18.29 63.29 19.51 56.95Z"/></svg>
