<svg xmlns="http://www.w3.org/2000/svg" xmlns:xlink="http://www.w3.org/1999/xlink" width="72.00000000000001" height="106.56000000000002"><path fill="red" stroke="red" d="M24.77 33.19L24.77 50.26L13.25 50.26C14.18 44.93 15.12 38.66 15.84 33.19ZM31.25 33.19L38.23 33.19L38.23 27.07L4.90 27.07L4.90 33.19L9.22 33.19C8.35 41.04 6.98 50.69 5.76 56.66L21.38 56.66C16.63 65.09 9.36 73.87 2.95 78.70C4.39 79.92 6.55 82.22 7.63 83.74C13.39 78.62 19.80 70.85 24.77 62.50L24.77 81.36C24.77 82.44 24.41 82.80 23.26 82.80C22.18 82.80 18.50 82.80 14.76 82.73C15.62 84.60 16.63 87.48 16.85 89.28C22.18 89.28 25.85 89.14 28.15 87.98C30.46 86.98 31.25 85.10 31.25 81.36L31.25 56.66L38.81 56.66L38.81 50.26L31.25 50.26ZM64.15 26.78L63.14 27.07L41.98 27.07L41.98 89.28L48.46 89.28L48.46 33.34L60.26 33.34C58.10 39.02 55.01 46.58 52.20 52.13C59.33 58.18 61.49 63.36 61.49 67.68C61.49 70.20 60.91 72.00 59.47 72.86C58.54 73.37 57.46 73.58 56.23 73.66C54.94 73.73 52.99 73.73 50.83 73.51C51.98 75.31 52.63 78.26 52.70 80.14C54.94 80.21 57.31 80.21 59.18 79.99C61.06 79.70 62.78 79.13 64.08 78.26C66.82 76.46 67.97 73.15 67.97 68.40C67.97 63.43 66.31 57.82 59.11 51.26C62.42 44.93 66.17 36.79 69.05 29.88Z"/></svg>
