<svg xmlns="http://www.w3.org/2000/svg" xmlns:xlink="http://www.w3.org/1999/xlink" width="72.00000000000001" height="106.56000000000002"><path fill="red" stroke="red" d="M14.69 50.83L26.42 50.83L26.42 74.30C22.32 74.88 18.36 75.46 14.69 76.03ZM32.47 73.37L32.47 50.83L38.88 50.83L38.88 44.64L14.69 44.64L14.69 33.84C22.39 32.98 30.82 31.68 37.01 29.95L33.62 24.12C27.14 25.99 16.99 27.86 8.42 28.80L8.42 76.97L2.95 77.69L4.03 84.53C13.61 82.94 27.58 80.71 40.39 78.41L40.10 72.14ZM64.44 26.42L63.36 26.71L42.55 26.71L42.55 89.14L48.67 89.14L48.67 32.98L60.48 32.98C58.18 38.59 55.08 45.94 52.13 51.55C59.47 57.53 61.78 62.78 61.78 67.03C61.78 69.55 61.20 71.42 59.62 72.29C58.54 72.72 57.24 72.94 55.87 73.01C54.29 73.15 51.91 73.08 49.46 72.79C50.54 74.66 51.26 77.47 51.34 79.27C53.93 79.42 56.81 79.42 58.97 79.20C60.91 78.91 62.78 78.41 64.08 77.54C66.96 75.74 68.18 72.29 68.18 67.61C68.18 62.78 66.46 57.24 59.04 50.62C62.50 44.14 66.31 36.22 69.26 29.52Z"/></svg>
