<svg xmlns="http://www.w3.org/2000/svg" xmlns:xlink="http://www.w3.org/1999/xlink" width="72.00000000000001" height="106.56000000000002"><path fill="red" stroke="red" d="M52.56 41.04L52.56 47.38C52.56 52.78 53.78 54.79 59.26 54.79L64.73 54.79C66.24 54.79 67.82 54.72 68.76 54.36C68.54 53.06 68.40 50.69 68.26 49.25C67.25 49.46 65.66 49.54 64.58 49.54L59.47 49.54C58.46 49.54 58.25 49.03 58.25 47.45L58.25 40.61L62.28 40.32C63.07 41.40 63.72 42.41 64.22 43.27L69.34 40.18C67.10 37.08 62.57 31.68 59.26 27.79L54.43 30.38C55.73 31.90 57.10 33.70 58.54 35.42L43.63 36.36C47.09 33.05 50.62 28.87 53.64 24.62L47.16 22.68C44.06 27.94 39.31 33.19 37.87 34.49C36.43 35.93 35.14 36.94 33.91 37.15C34.70 38.74 35.64 41.69 35.93 42.98C36.94 42.62 38.23 42.34 42.26 41.98C41.54 47.23 39.46 50.76 32.98 52.85C34.20 53.93 35.78 56.09 36.43 57.53C44.78 54.36 47.23 49.10 48.17 41.40ZM12.31 72.79L24.77 72.79L24.77 67.54L12.31 67.54ZM57.96 64.87C56.30 68.54 53.86 71.64 50.98 74.30C48.89 72.43 47.02 70.34 45.50 68.26C46.30 67.18 47.02 66.02 47.74 64.87ZM9.79 78.84L9.79 61.99C10.58 62.50 11.52 63.50 12.02 64.01C15.98 60.34 16.85 55.01 16.85 50.90L16.85 45.65L20.23 45.65L20.23 56.09C20.23 59.83 21.10 60.62 24.05 60.62L27.07 60.62L27.43 60.62L27.43 78.84ZM13.46 45.65L13.46 50.90C13.46 54.22 12.96 58.18 9.79 61.42L9.79 45.65ZM16.78 31.68L20.38 31.68L20.38 40.03L16.78 40.03ZM27.43 56.95C27.29 57.02 27.07 57.10 26.42 57.10L24.48 57.10C23.69 57.10 23.62 56.95 23.62 56.09L23.62 45.65L27.43 45.65ZM62.06 59.33L60.98 59.62L50.47 59.62C51.12 58.03 51.77 56.45 52.20 54.79L46.44 53.71C45.43 56.95 43.99 60.05 42.19 62.78C41.54 61.49 41.04 60.19 40.61 58.90L35.86 61.34C36.58 63.43 37.51 65.45 38.52 67.39C37.08 68.98 35.42 70.42 33.70 71.57C34.92 72.58 37.15 74.74 37.94 75.89C39.24 74.88 40.54 73.80 41.69 72.58C43.06 74.38 44.57 76.18 46.22 77.90C42.19 80.57 37.58 82.51 32.69 83.74L32.69 40.03L25.06 40.03L25.06 31.68L33.26 31.68L33.26 26.06L3.60 26.06L3.60 31.68L12.24 31.68L12.24 40.03L4.75 40.03L4.75 89.06L9.79 89.06L9.79 84.10L27.43 84.10L27.43 88.06L32.69 88.06L32.69 83.95C33.91 85.32 35.28 87.55 36.00 89.06C41.47 87.34 46.51 85.10 50.98 81.86C55.08 84.96 59.90 87.41 65.81 89.06C66.60 87.34 68.33 84.74 69.70 83.45C64.30 82.22 59.69 80.28 55.87 77.90C60.41 73.51 63.94 67.97 66.17 60.98Z"/></svg>
