<svg xmlns="http://www.w3.org/2000/svg" xmlns:xlink="http://www.w3.org/1999/xlink" width="72.00000000000001" height="106.56000000000002"><path fill="red" stroke="red" d="M68.76 29.95L53.71 29.95C52.99 27.94 51.91 25.27 50.69 23.33L45.14 24.98C45.94 26.50 46.73 28.22 47.38 29.95L32.40 29.95L32.40 35.42L68.76 35.42ZM41.98 43.70L58.75 43.70L58.75 49.61L41.98 49.61ZM65.09 54.50L65.09 38.81L36.00 38.81L36.00 54.50ZM11.66 67.39L11.66 72.36L23.76 72.36L23.76 67.39ZM25.49 57.02L24.98 57.02L23.33 57.02C22.75 57.02 22.61 56.95 22.61 56.02L22.61 45.00L25.49 45.00ZM9.94 78.70L9.94 62.71C10.73 63.29 11.59 64.15 12.02 64.73C15.70 60.91 16.42 55.37 16.42 51.19L16.42 45.00L19.15 45.00L19.15 56.09C19.15 59.90 20.02 60.77 22.97 60.77L25.49 60.77L25.49 78.70ZM12.89 45.00L12.89 51.12C12.89 54.43 12.53 58.39 9.94 61.63L9.94 45.00ZM16.42 31.54L19.08 31.54L19.08 39.46L16.42 39.46ZM23.62 31.54L31.75 31.54L31.75 26.21L3.74 26.21L3.74 31.54L11.95 31.54L11.95 39.46L5.18 39.46L5.18 89.06L9.94 89.06L9.94 84.02L25.49 84.02L25.49 87.91L30.38 87.91L30.38 39.46L23.62 39.46ZM69.05 70.49L54.29 70.49L54.29 68.83C58.61 66.60 63.07 63.72 66.31 60.70L62.64 57.60L61.42 57.96L34.42 57.96L34.42 63.14L54.94 63.14C52.63 64.73 50.04 66.17 47.74 67.25L47.74 70.49L31.75 70.49L31.75 75.96L47.74 75.96L47.74 82.22C47.74 83.02 47.45 83.23 46.44 83.30C45.50 83.38 41.98 83.38 38.52 83.23C39.24 84.89 40.10 87.26 40.39 88.99C45.43 88.99 48.89 89.06 51.26 88.13C53.71 87.26 54.29 85.61 54.29 82.37L54.29 75.96L69.05 75.96Z"/></svg>
