<svg xmlns="http://www.w3.org/2000/svg" xmlns:xlink="http://www.w3.org/1999/xlink" width="72.00000000000001" height="106.56000000000002"><path fill="red" stroke="red" d="M62.64 27.22C61.78 32.04 59.83 39.10 58.32 43.27L62.71 44.71C64.30 40.54 66.24 34.06 67.75 28.58ZM40.90 46.73L40.90 52.20L51.91 52.20L51.91 79.27L57.38 79.27L57.38 57.31C60.05 63.29 63.00 70.78 64.44 75.38L69.19 72.72C67.61 68.11 64.15 60.12 61.34 54.14L57.38 56.02L57.38 52.20L67.75 52.20L67.75 46.73L57.38 46.73L57.38 23.40L51.91 23.40L51.91 46.73ZM47.02 54.07C45.50 60.55 42.55 68.04 39.60 72.00C40.90 72.94 42.70 74.74 43.63 76.03C46.80 71.28 49.97 62.93 51.62 55.51ZM50.98 42.77C50.11 38.95 47.88 32.54 45.94 27.65L41.26 28.94C43.13 33.84 45.22 40.54 46.08 44.42ZM39.17 35.35C38.23 32.33 36.50 27.65 35.21 24.05L30.31 25.13C31.61 28.80 33.19 33.70 34.13 36.79ZM10.87 67.39L10.87 72.29L20.66 72.29L20.66 67.39ZM9.50 78.70L9.50 63.22C9.94 63.72 10.51 64.15 10.80 64.51C14.11 60.70 14.83 55.30 14.83 51.26L14.83 45.00L17.06 45.00L17.06 56.59C17.06 60.19 17.86 60.91 20.59 60.91L21.96 60.91L21.96 78.70ZM11.52 45.00L11.52 51.19C11.52 54.29 11.23 58.18 9.00 61.34L9.00 45.00ZM14.90 31.61L16.99 31.61L16.99 39.46L14.90 39.46ZM22.54 57.53L22.25 57.53L20.88 57.53C20.38 57.53 20.23 57.46 20.23 56.59L20.23 45.00L22.54 45.00ZM26.64 88.70L26.64 39.46L21.10 39.46L21.10 31.61L27.72 31.61L27.72 26.21L3.53 26.21L3.53 31.61L10.73 31.61L10.73 39.46L4.97 39.46L4.97 88.99L9.50 88.99L9.50 84.02L21.96 84.02L21.96 88.70ZM39.10 56.23L38.23 56.45L35.86 56.45C37.58 51.34 39.38 45.29 40.97 40.18L28.44 40.18L28.44 45.58L34.13 45.58C32.47 51.19 30.53 57.38 28.87 61.70L35.57 61.70C34.78 66.96 33.41 72.72 31.82 76.68C30.17 78.05 28.37 80.57 26.64 83.66L30.96 89.57C31.75 85.61 33.48 80.86 34.56 80.86C35.93 80.86 38.02 82.94 40.46 84.67C44.42 87.34 48.60 88.63 54.58 88.63C58.46 88.63 64.94 88.42 68.11 88.13C68.18 86.54 68.98 83.52 69.55 81.86C65.23 82.44 58.68 82.73 54.65 82.73C49.10 82.73 45.14 81.86 41.62 79.42C39.74 78.19 38.45 77.04 37.22 76.25C39.24 70.78 40.82 63.58 41.76 57.17Z"/></svg>
