<svg xmlns="http://www.w3.org/2000/svg" xmlns:xlink="http://www.w3.org/1999/xlink" width="72.00000000000001" height="106.56000000000002"><path fill="red" stroke="red" d="M34.85 36.58C31.97 33.98 27.22 30.67 22.54 27.79C23.11 26.93 23.62 25.99 24.05 24.98L18.72 22.75C15.12 29.52 8.93 35.93 2.95 39.96C3.89 41.62 5.33 45.29 5.76 46.73C7.06 45.72 8.28 44.71 9.58 43.56L9.58 46.80L16.49 46.80L16.49 53.64L5.26 53.64L5.26 59.33L16.49 59.33L16.49 78.84C11.74 79.70 7.56 80.35 4.25 80.93L5.76 86.98C13.10 85.39 23.18 83.38 32.54 81.29L32.18 75.96C28.87 76.54 25.56 77.18 22.32 77.76L22.32 59.33L32.26 59.33L32.26 53.64L22.32 53.64L22.32 46.80L29.81 46.80L29.81 41.18L12.10 41.18C14.69 38.59 17.21 35.71 19.37 32.69C23.98 35.57 28.87 39.17 31.82 42.05ZM28.01 75.82C29.30 72.58 30.74 67.61 32.18 63.22L27.00 61.85C26.42 65.59 24.98 71.06 23.83 74.52ZM6.41 63.72C7.63 67.90 8.78 73.15 9.07 76.68L13.90 75.38C13.46 72.00 12.24 66.67 10.94 62.57ZM69.05 29.23L33.84 29.23L33.84 35.64L50.54 35.64L50.54 80.06C50.54 81.29 50.04 81.65 48.82 81.65C47.59 81.65 43.42 81.72 38.88 81.50C39.96 83.45 41.11 86.76 41.47 88.70C47.45 88.70 51.41 88.49 53.93 87.26C56.45 86.11 57.31 84.02 57.31 80.06L57.31 35.64L69.05 35.64Z"/></svg>
