<svg xmlns="http://www.w3.org/2000/svg" xmlns:xlink="http://www.w3.org/1999/xlink" width="72.00000000000001" height="106.56000000000002"><path fill="red" stroke="red" d="M20.88 77.33L20.88 59.47L30.60 59.47L30.60 53.64L20.88 53.64L20.88 46.87L27.79 46.87L27.79 41.18L11.09 41.18C13.82 38.52 16.49 35.50 18.86 32.33C22.61 35.57 26.64 39.38 29.16 42.12L33.19 37.37C30.60 34.56 26.28 30.74 22.03 27.50C22.54 26.71 22.97 25.85 23.40 25.13L17.86 23.04C14.33 29.52 8.28 35.71 2.52 39.60C3.38 41.18 4.97 44.64 5.40 46.01C6.34 45.36 7.34 44.50 8.35 43.63L8.35 46.87L15.05 46.87L15.05 53.64L4.61 53.64L4.61 59.47L15.05 59.47L15.05 78.55C10.66 79.42 6.70 80.21 3.53 80.78L5.18 87.26C12.53 85.54 22.25 83.09 31.39 80.86L30.82 75.24ZM6.05 63.65C7.27 67.82 8.57 73.30 8.86 76.82L13.68 75.46C13.25 71.93 11.95 66.67 10.58 62.57ZM26.06 75.46C27.36 72.22 28.87 67.18 30.24 63.00L25.20 61.56C24.55 65.30 23.18 70.70 22.10 74.16ZM41.11 44.78L59.54 44.78L59.54 52.27L41.11 52.27ZM59.54 31.97L59.54 39.31L41.11 39.31L41.11 31.97ZM64.22 59.76C61.92 61.99 58.39 64.80 55.30 66.96C54.00 64.15 52.92 61.20 51.98 58.10L66.02 58.10L66.02 26.21L34.63 26.21L34.63 79.20C34.63 81.86 33.12 83.02 31.75 83.59C32.69 84.96 33.70 87.77 34.06 89.35C35.50 88.20 37.87 87.26 52.49 82.80C52.20 81.29 51.91 78.70 51.91 76.90L41.11 79.85L41.11 58.10L46.15 58.10C49.54 71.57 55.30 82.66 65.02 88.34C66.02 86.54 68.04 83.95 69.62 82.66C64.94 80.35 61.13 76.54 58.03 71.86C61.42 69.77 65.38 66.96 68.54 64.37Z"/></svg>
