<svg xmlns="http://www.w3.org/2000/svg" xmlns:xlink="http://www.w3.org/1999/xlink" width="72.00000000000001" height="106.56000000000002"><path fill="red" stroke="red" d="M32.47 35.93C30.02 33.34 24.98 29.66 20.81 27.07C21.24 26.21 21.67 25.42 22.03 24.55L16.49 22.68C13.25 29.66 7.78 36.43 2.23 40.82C3.10 42.34 4.61 45.86 4.97 47.23C5.98 46.44 6.84 45.50 7.85 44.64L7.85 46.44L15.12 46.44L15.12 53.06L4.82 53.06L4.82 58.75L15.12 58.75L15.12 79.49C10.73 80.21 6.77 80.86 3.60 81.29L5.04 87.34C12.46 85.97 22.54 84.24 31.97 82.37L31.61 76.68L20.95 78.48L20.95 58.75L30.82 58.75L30.82 53.06L20.95 53.06L20.95 46.44L29.16 46.44L29.16 40.82L11.52 40.82C13.90 38.02 16.20 34.92 18.14 31.75C22.10 34.42 26.50 38.02 28.73 40.46ZM27.29 75.38C28.44 72.14 29.81 67.10 31.18 62.86L25.99 61.49C25.42 65.23 24.19 70.63 23.18 74.02ZM5.26 63.43C6.55 67.46 7.70 72.79 7.92 76.32L12.74 74.95C12.38 71.57 11.16 66.31 9.79 62.28ZM40.46 44.42L60.19 44.42L60.19 49.54L40.46 49.54ZM40.46 34.85L60.19 34.85L60.19 39.74L40.46 39.74ZM67.82 59.33L53.14 59.33L53.14 54.58L66.53 54.58L66.53 29.81L51.91 29.81C52.78 28.01 53.64 25.92 54.50 23.90L47.30 22.90C46.94 24.84 46.30 27.50 45.58 29.81L34.42 29.81L34.42 54.58L46.94 54.58L46.94 59.33L33.34 59.33L33.34 83.59L39.31 83.59L39.31 65.16L46.94 65.16L46.94 89.21L53.14 89.21L53.14 65.16L61.78 65.16L61.78 77.33C61.78 78.05 61.56 78.19 60.91 78.19C60.19 78.26 58.25 78.26 55.94 78.19C56.74 79.78 57.67 82.22 57.89 83.88C61.42 83.88 63.79 83.81 65.59 82.80C67.39 81.94 67.82 80.21 67.82 77.47Z"/></svg>
