<svg xmlns="http://www.w3.org/2000/svg" xmlns:xlink="http://www.w3.org/1999/xlink" width="72.00000000000001" height="106.56000000000002"><path fill="red" stroke="red" d="M58.54 47.02L58.54 52.78L49.39 52.78L49.39 47.02ZM63.94 61.27L62.78 61.49L39.17 61.49L39.17 66.89L59.54 66.89C57.60 70.13 55.08 73.01 52.06 75.46C48.96 72.86 46.44 69.98 44.71 66.89L39.38 68.69C41.40 72.29 44.14 75.67 47.30 78.70C43.49 80.93 39.24 82.58 34.78 83.59C38.09 73.44 38.59 60.55 38.59 51.19L38.59 47.02L43.92 47.02L43.92 57.67L64.22 57.67L64.22 47.02L69.12 47.02L69.12 41.62L64.22 41.62L64.22 36.43L58.54 36.43L58.54 41.62L49.39 41.62L49.39 36.43L43.92 36.43L43.92 41.62L38.59 41.62L38.59 34.63L69.41 34.63L69.41 28.94L55.58 28.94C55.08 26.78 54.22 24.19 53.35 22.10L47.52 23.54C48.10 25.20 48.67 27.14 49.10 28.94L32.76 28.94L32.76 51.19C32.76 59.54 32.54 70.34 29.95 79.49L29.66 76.46C26.86 77.04 24.05 77.62 21.31 78.12L21.31 58.82L30.02 58.82L30.02 53.06L21.31 53.06L21.31 46.44L29.16 46.44L29.16 40.82L11.74 40.82C14.18 37.94 16.56 34.78 18.58 31.46C22.03 34.63 25.70 38.30 27.65 40.75L32.62 37.15C30.02 34.27 25.13 30.02 21.24 26.57C21.60 25.85 21.96 25.06 22.32 24.26L16.42 22.61C13.54 29.66 7.85 36.94 2.23 41.33C4.03 42.26 6.19 43.99 7.27 45.22C7.85 44.78 8.42 44.28 9.00 43.70L9.00 46.44L15.55 46.44L15.55 53.06L5.76 53.06L5.76 58.82L15.55 58.82L15.55 79.20C11.38 79.99 7.56 80.64 4.46 81.14L5.98 87.19C12.46 85.90 20.88 84.02 29.02 82.30C28.58 83.45 28.08 84.60 27.58 85.75C29.09 86.26 31.68 87.77 32.83 88.70C33.55 87.12 34.20 85.54 34.70 83.81C35.93 85.10 37.37 87.55 38.02 89.14C43.20 87.62 48.02 85.61 52.34 82.73C56.38 85.61 60.91 87.77 65.74 89.28C66.60 87.62 68.33 85.32 69.70 84.17C65.30 83.02 61.06 81.29 57.24 79.06C62.06 74.88 65.81 69.48 68.11 62.86ZM6.62 63.22C7.78 67.39 8.93 72.79 9.07 76.32L13.61 75.17C13.32 71.71 12.17 66.31 10.87 62.21ZM27.07 74.95C28.08 71.78 29.23 66.89 30.31 62.71L25.56 61.56C25.06 65.16 23.90 70.49 22.97 73.80Z"/></svg>
