<svg xmlns="http://www.w3.org/2000/svg" xmlns:xlink="http://www.w3.org/1999/xlink" width="72.00000000000001" height="106.56000000000002"><path fill="red" stroke="red" d="M32.69 78.62L32.69 83.38L26.64 83.38L27.22 83.09C26.64 81.86 25.42 80.06 24.19 78.62ZM47.74 78.62C47.09 80.06 46.15 81.94 45.14 83.38L39.17 83.38L39.17 78.62ZM28.22 68.04C31.10 67.10 33.77 66.02 36.22 64.94C38.74 66.10 41.33 67.10 43.99 68.04ZM26.78 32.98C26.28 34.06 25.49 35.50 24.84 36.72L17.71 36.72C17.35 35.71 16.56 34.13 15.77 32.98ZM50.76 78.62L59.47 78.62L59.47 74.45L39.17 74.45L39.17 71.78L49.75 71.78L49.75 69.77C55.44 71.21 61.20 72.29 66.89 73.15C67.54 71.57 68.76 69.77 69.98 68.54C59.90 67.46 49.32 66.02 40.46 62.64L41.33 62.06L41.47 62.35C45.65 61.27 49.61 59.76 53.14 57.74C57.24 60.05 60.77 62.50 63.29 64.51L67.18 61.06C64.73 59.26 61.20 57.02 57.38 54.79C60.91 51.84 63.79 48.24 65.59 43.56L62.21 42.19L61.20 42.41L42.12 42.41C48.02 39.38 49.32 35.06 49.32 30.89L49.32 29.74L55.94 29.74L55.94 33.84C55.94 38.59 56.95 40.46 61.56 40.46L64.58 40.46C65.66 40.46 66.82 40.39 67.61 40.03C67.46 38.88 67.32 36.79 67.25 35.57C66.53 35.71 65.23 35.78 64.44 35.78L61.99 35.78C61.27 35.78 61.20 35.42 61.20 33.84L61.20 25.06L44.14 25.06L44.14 30.74C44.14 33.77 43.20 36.65 37.15 38.95C38.16 39.82 40.03 41.90 40.68 43.06L40.75 43.06L40.75 47.09L57.89 47.09C56.52 48.96 54.72 50.69 52.63 52.13C49.82 50.69 46.87 49.25 44.28 48.17L40.46 51.19C42.91 52.20 45.43 53.50 47.95 54.86C45.07 56.16 41.90 57.24 38.66 57.89C39.46 58.82 40.46 60.41 41.18 61.63L37.22 59.47C36.79 59.76 36.29 60.05 35.71 60.41L35.71 47.88L24.41 47.88L24.41 51.55L30.96 51.55L30.96 53.57L25.27 53.57L25.27 56.88L30.96 56.88L30.96 58.90L23.26 58.90L23.26 46.22L34.49 46.22L34.49 42.48L23.26 42.48L23.26 40.46L36.65 40.46L36.65 36.72L29.16 36.72C29.74 35.78 30.38 34.92 31.10 33.91L28.30 32.98L38.95 32.98L38.95 28.94L34.06 28.94C34.85 27.79 35.64 26.50 36.58 25.20L32.62 23.54C31.97 24.98 30.82 27.22 29.81 28.94L27.65 28.94L27.65 23.18L23.11 23.18L23.11 28.94L19.66 28.94L19.66 23.18L15.12 23.18L15.12 28.94L12.96 28.94C12.53 27.36 11.23 25.20 10.01 23.62L6.48 24.98C7.27 26.21 8.06 27.58 8.57 28.94L3.60 28.94L3.60 32.98L13.90 32.98L11.59 33.91C12.17 34.70 12.67 35.78 13.10 36.72L5.33 36.72L5.33 40.46L18.22 40.46L18.22 42.48L6.62 42.48L6.62 46.22L18.22 46.22L18.22 58.90L10.66 58.90L10.66 56.66L16.42 56.66L16.42 53.35L10.66 53.35L10.66 51.41C12.96 50.90 15.34 50.18 17.35 49.32L14.47 46.37C12.53 47.38 9.00 48.31 6.05 49.03L6.05 62.57L30.67 62.57C22.82 65.52 12.17 67.54 2.59 68.62C3.74 69.84 4.82 71.71 5.40 73.08C11.16 72.29 17.06 71.14 22.75 69.70L22.75 71.78L32.69 71.78L32.69 74.45L13.10 74.45L13.10 78.62L21.24 78.62L18.36 79.85C19.22 80.93 20.09 82.22 20.74 83.38L5.04 83.38L5.04 87.77L67.03 87.77L67.03 83.38L51.19 83.38C52.13 82.22 53.06 80.93 54.07 79.63Z"/></svg>
