<svg xmlns="http://www.w3.org/2000/svg" xmlns:xlink="http://www.w3.org/1999/xlink" width="72.00000000000001" height="106.56000000000002"><path fill="red" stroke="red" d="M26.86 30.96L26.86 35.57L13.03 35.57L13.03 30.96ZM13.03 45.07L13.03 40.03L26.86 40.03L26.86 45.07ZM33.12 49.90L33.12 25.99L6.41 25.99L6.41 89.21L13.03 89.21L13.03 49.90ZM45.07 45.22L45.07 40.03L59.33 40.03L59.33 45.22ZM59.33 30.96L59.33 35.57L45.07 35.57L45.07 30.96ZM65.95 25.99L38.66 25.99L38.66 50.04L59.33 50.04L59.33 80.93C59.33 82.01 58.97 82.37 57.89 82.44L53.50 82.44L53.50 77.47L38.81 77.47L38.81 71.06L50.33 71.06L50.33 65.81L38.81 65.81L38.81 60.34L52.06 60.34L52.06 55.08L19.73 55.08L19.73 60.34L32.47 60.34L32.47 65.81L21.53 65.81L21.53 71.06L32.47 71.06L32.47 77.47L18.22 77.47L18.22 82.80L49.61 82.80C50.54 84.60 51.34 87.34 51.55 88.99C56.95 89.06 60.55 88.85 62.86 87.77C65.23 86.62 65.95 84.67 65.95 81.00Z"/></svg>
