<svg xmlns="http://www.w3.org/2000/svg" xmlns:xlink="http://www.w3.org/1999/xlink" width="72.00000000000001" height="106.56000000000002"><path fill="red" stroke="red" d="M26.86 30.82L26.86 35.35L12.74 35.35L12.74 30.82ZM12.74 44.42L12.74 39.74L26.86 39.74L26.86 44.42ZM33.12 49.25L33.12 25.99L6.41 25.99L6.41 89.28L12.74 89.28L12.74 49.25ZM41.76 56.74C40.39 58.32 38.81 59.90 37.37 61.06C38.38 61.78 40.18 63.29 40.90 64.22C44.14 61.78 47.88 57.89 50.40 54.29L46.58 52.13L45.50 52.42L32.83 52.42C33.34 51.70 33.70 51.05 34.13 50.40L28.51 49.46C26.42 53.35 22.32 57.67 16.56 60.77C17.78 61.56 19.51 63.29 20.45 64.44C24.19 62.14 27.22 59.54 29.66 56.74ZM37.22 69.19L45.07 69.19L45.07 72.65L37.58 72.65L37.58 76.68L45.07 76.68L45.07 80.64L26.28 80.64L26.28 76.68L33.77 76.68L33.77 72.65L26.28 72.65L26.28 68.54C29.38 67.75 32.54 66.82 35.35 65.81L31.82 61.92C29.02 63.22 24.55 64.80 20.66 65.81L20.66 85.10L50.54 85.10L50.54 64.73L37.22 64.73ZM45.07 44.42L45.07 39.74L59.62 39.74L59.62 44.42ZM59.62 30.82L59.62 35.35L45.07 35.35L45.07 30.82ZM66.02 25.99L38.74 25.99L38.74 49.25L59.62 49.25L59.62 81.22C59.62 82.15 59.33 82.44 58.39 82.51C57.60 82.51 54.94 82.51 52.27 82.44C53.14 84.17 53.93 87.19 54.14 88.99C58.46 88.99 61.42 88.85 63.50 87.70C65.52 86.62 66.02 84.60 66.02 81.29Z"/></svg>
