<svg xmlns="http://www.w3.org/2000/svg" xmlns:xlink="http://www.w3.org/1999/xlink" width="72.00000000000001" height="106.56000000000002"><path fill="red" stroke="red" d="M22.18 25.78L21.24 25.99L5.62 25.99L5.62 88.99L11.38 88.99L11.38 32.04L18.94 32.04C17.57 36.79 15.77 42.84 13.97 47.59C18.65 52.99 19.80 57.82 19.80 61.49C19.80 63.58 19.44 65.38 18.43 66.10C17.78 66.53 17.14 66.67 16.34 66.74C15.26 66.82 14.04 66.74 12.60 66.67C13.54 68.26 14.11 70.85 14.11 72.43C15.77 72.50 17.57 72.50 18.86 72.36C20.45 72.07 21.67 71.64 22.75 70.92C24.84 69.34 25.70 66.31 25.70 62.06C25.70 57.82 24.62 52.63 19.87 46.87C22.10 41.26 24.55 34.13 26.57 28.30ZM58.97 74.23L58.97 69.62L54.00 69.62C55.58 67.18 57.24 64.22 58.75 61.56L54.07 59.69C52.92 62.64 50.90 66.60 49.18 69.62L43.34 69.62L47.23 67.90C46.22 65.66 43.92 62.14 42.05 59.54L37.80 61.20C39.67 63.79 41.76 67.39 42.77 69.62L37.08 69.62L37.08 74.23L45.14 74.23L45.14 87.55L50.69 87.55L50.69 74.23ZM67.18 53.57L28.73 53.57L28.73 89.14L34.42 89.14L34.42 58.68L61.27 58.68L61.27 82.80C61.27 83.52 61.06 83.74 60.34 83.74C59.62 83.81 57.53 83.81 55.30 83.66C56.02 85.25 56.66 87.55 56.81 89.21C60.55 89.21 63.14 89.06 64.94 88.13C66.74 87.19 67.18 85.61 67.18 82.87ZM58.54 45.50L37.30 45.50L37.30 39.96L58.54 39.96ZM64.51 35.21L31.61 35.21L31.61 50.18L64.51 50.18ZM28.22 26.14L28.22 31.82L68.33 31.82L68.33 26.14Z"/></svg>
