<svg xmlns="http://www.w3.org/2000/svg" xmlns:xlink="http://www.w3.org/1999/xlink" width="72.00000000000001" height="106.56000000000002"><path fill="red" stroke="red" d="M34.06 35.35C33.26 32.33 31.90 27.58 30.82 23.98L25.63 25.13C26.64 28.80 28.01 33.70 28.73 36.79ZM35.35 56.23L34.49 56.45L31.54 56.45C32.83 52.56 34.20 47.95 35.35 43.85C36.14 44.78 36.86 45.86 37.22 46.44C40.61 43.85 43.56 40.46 45.94 36.43L45.94 40.39L52.20 40.39L52.20 44.50L41.26 44.50L41.26 48.46L67.90 48.46L67.90 44.50L57.96 44.50L57.96 40.39L66.24 40.39L66.24 36.43L45.94 36.43C46.73 35.14 47.45 33.84 48.10 32.47L68.40 32.47L68.40 28.01L49.90 28.01C50.33 26.64 50.76 25.34 51.12 23.98L45.72 22.90C45.29 24.70 44.78 26.35 44.14 28.01L36.22 28.01L36.22 32.47L42.05 32.47C40.39 35.42 38.38 38.09 36.00 40.18L23.69 40.18L23.69 45.65L29.81 45.65C28.30 50.98 26.57 56.81 25.06 60.98C24.77 56.88 23.47 52.13 19.15 46.87C21.46 41.11 23.83 33.84 25.78 27.94L21.96 25.78L21.10 25.99L5.62 25.99L5.62 89.06L10.94 89.06L10.94 32.04L18.79 32.04C17.50 36.79 15.70 42.62 14.04 47.38C18.65 53.06 19.80 57.96 19.80 61.78C19.80 63.94 19.44 65.88 18.43 66.60C17.93 67.03 17.14 67.18 16.34 67.25C15.34 67.32 14.18 67.25 12.67 67.18C13.54 68.69 14.04 70.85 14.11 72.29C15.55 72.36 17.28 72.36 18.58 72.22C20.02 72.00 21.24 71.57 22.25 70.78C24.19 69.41 25.06 66.24 25.06 62.35L25.06 61.70L31.61 61.70C30.60 66.74 28.94 72.36 27.07 76.32C24.70 77.69 22.03 80.50 19.37 83.88L23.54 89.57C25.78 85.25 28.30 80.93 30.02 80.93C31.46 80.93 33.70 83.02 36.29 84.74C40.39 87.48 45.00 88.63 51.77 88.63C56.59 88.63 64.44 88.34 68.04 88.06C68.11 86.47 68.98 83.45 69.62 81.72C64.44 82.44 56.81 82.80 51.84 82.80C45.65 82.80 41.18 82.01 37.30 79.49C35.21 78.12 33.84 76.90 32.47 76.10C34.92 70.70 36.79 63.58 38.02 57.17ZM56.52 65.59L59.04 61.70C57.02 60.26 53.35 58.39 50.04 56.81L47.59 60.12C50.69 61.63 54.43 64.01 56.52 65.59C52.63 66.10 49.03 66.67 46.08 67.03C46.15 65.23 46.22 63.43 46.22 61.92L46.22 55.73L60.12 55.73L60.12 65.02ZM65.88 51.70L40.82 51.70L40.82 61.85C40.82 66.02 40.68 71.57 38.66 75.89C39.82 76.46 42.26 78.12 43.34 79.06C45.00 75.82 45.72 71.42 46.01 67.32L47.74 72.14C51.48 71.21 55.73 70.13 60.12 69.12L60.12 73.94C60.12 74.66 59.90 74.81 59.11 74.88C58.54 74.88 56.09 74.95 53.64 74.81C54.29 76.03 55.01 77.76 55.30 79.13C59.11 79.13 61.78 79.13 63.58 78.41C65.30 77.62 65.88 76.54 65.88 73.94Z"/></svg>
