<svg xmlns="http://www.w3.org/2000/svg" xmlns:xlink="http://www.w3.org/1999/xlink" width="72.00000000000001" height="106.56000000000002"><path fill="red" stroke="red" d="M61.63 33.77C60.91 31.03 58.90 27.00 57.02 23.98L51.26 25.92C52.99 29.09 54.94 33.34 55.58 36.00ZM45.14 70.92L53.42 70.92L53.42 79.56L45.14 79.56ZM53.42 50.98L45.14 50.98L45.14 42.62L53.42 42.62ZM53.42 65.23L45.14 65.23L45.14 56.66L53.42 56.66ZM28.30 51.98L22.32 51.98L22.32 46.73L28.30 46.73ZM10.66 46.73L16.85 46.73L16.85 51.98L10.66 51.98ZM15.48 32.47L24.12 32.47L24.12 35.50L15.48 35.50ZM68.76 79.56L59.40 79.56L59.40 70.92L67.68 70.92L67.68 65.23L59.40 65.23L59.40 56.66L67.68 56.66L67.68 50.98L59.40 50.98L59.40 42.62L68.33 42.62L68.33 36.65L45.58 36.65C47.23 32.76 48.60 28.66 49.82 24.62L43.70 23.18C41.47 31.39 37.94 39.82 33.70 45.94L33.70 42.41L22.32 42.41L22.32 39.67L30.31 39.67L30.31 32.47L35.71 32.47L35.71 27.43L30.31 27.43L30.31 23.18L24.12 23.18L24.12 27.43L15.48 27.43L15.48 23.26L9.58 23.26L9.58 27.43L3.60 27.43L3.60 32.47L9.58 32.47L9.58 39.67L16.85 39.67L16.85 42.41L5.47 42.41L5.47 56.38L16.63 56.38L16.63 59.98L5.62 59.98L5.62 64.87L16.63 64.87C16.63 65.95 16.56 67.25 16.34 68.47L3.31 68.47L3.31 73.66L14.90 73.66C13.18 77.69 9.65 81.65 2.88 84.60C4.32 85.75 6.19 87.70 7.06 89.06C13.10 86.18 16.85 82.66 19.15 78.91C23.33 81.65 27.86 85.10 30.24 87.48L33.77 83.02C31.10 80.57 25.78 76.90 21.38 74.16L21.53 73.66L36.00 73.66L36.00 68.47L22.54 68.47C22.68 67.25 22.75 66.02 22.75 64.87L33.98 64.87L33.98 59.98L22.75 59.98L22.75 56.38L33.70 56.38L33.70 50.04C34.92 50.98 36.14 52.06 36.72 52.78C37.51 51.70 38.30 50.54 39.10 49.39L39.10 88.99L45.14 88.99L45.14 85.61L68.76 85.61Z"/></svg>
