<svg xmlns="http://www.w3.org/2000/svg" xmlns:xlink="http://www.w3.org/1999/xlink" width="72.00000000000001" height="106.56000000000002"><path fill="red" stroke="red" d="M11.45 39.60L32.40 39.60L32.40 57.60L38.95 57.60L38.95 39.60L60.34 39.60L60.34 51.19L66.60 51.19L66.60 34.63L38.95 34.63L38.95 30.31L62.42 30.31L62.42 25.06L9.29 25.06L9.29 30.31L32.40 30.31L32.40 34.63L5.47 34.63L5.47 51.19L11.45 51.19ZM60.26 54.65C56.23 52.85 48.60 50.62 42.91 49.46L41.26 53.14C47.09 54.50 54.72 56.95 58.68 58.75ZM55.15 41.33C51.84 42.55 46.08 44.64 42.19 45.50L44.42 48.74C48.38 48.02 54.00 46.66 57.96 45.00ZM14.18 58.68C18.86 57.24 24.41 55.44 29.95 53.71L29.45 49.75C23.11 51.41 16.70 52.99 12.24 53.93ZM14.18 45.00C18.65 45.86 24.34 47.59 27.36 48.89L29.23 45.00C26.14 43.78 20.30 42.34 16.06 41.54ZM67.39 71.28L59.04 71.28L59.04 60.48L13.75 60.48L13.75 65.88L52.42 65.88L52.42 71.28L5.54 71.28L5.54 76.46L52.42 76.46L52.42 82.01L13.97 82.01L13.97 87.41L59.04 87.41L59.04 76.46L67.39 76.46Z"/></svg>
