<svg xmlns="http://www.w3.org/2000/svg" xmlns:xlink="http://www.w3.org/1999/xlink" width="72.00000000000001" height="106.56000000000002"><path fill="red" stroke="red" d="M11.88 39.89L32.54 39.89L32.54 53.14L39.02 53.14L39.02 39.89L60.19 39.89L60.19 48.96L66.96 48.96L66.96 35.14L39.02 35.14L39.02 30.89L63.72 30.89L63.72 25.70L8.50 25.70L8.50 30.89L32.54 30.89L32.54 35.14L5.33 35.14L5.33 48.96L11.88 48.96ZM41.54 50.04C47.16 50.90 54.36 52.63 58.32 54.00L59.47 50.11C56.16 48.96 50.47 47.74 45.43 46.94C49.32 46.15 54.36 44.93 57.89 43.42L55.37 40.10C52.13 41.40 46.37 43.42 42.55 44.28L44.21 46.73L42.84 46.58ZM14.33 53.86C19.01 52.92 24.34 51.84 29.95 50.69L29.66 47.02C23.33 47.95 17.21 48.82 12.67 49.39ZM14.83 43.42C19.08 44.35 24.48 46.01 27.50 47.30L29.16 43.78C26.21 42.48 20.81 40.97 16.63 40.25ZM22.61 65.74L33.26 65.74L33.26 60.34L22.61 60.34L22.61 54.94L16.85 54.94L16.85 60.34L4.46 60.34L4.46 65.74L14.76 65.74C11.81 71.57 7.13 77.47 2.81 80.64C4.03 81.58 5.83 83.52 6.84 84.89C10.22 81.86 13.97 77.40 16.85 72.36L16.85 89.06L22.61 89.06L22.61 72.94C25.20 75.31 28.08 78.19 29.45 79.85L32.98 75.24C31.39 73.94 25.20 69.05 22.61 67.32ZM67.46 65.74L67.46 60.34L53.42 60.34L53.42 54.94L47.45 54.94L47.45 60.34L35.06 60.34L35.06 65.74L44.06 65.74C40.97 71.50 36.07 77.18 31.25 80.28C32.62 81.43 34.49 83.38 35.42 84.82C39.74 81.58 44.14 76.18 47.45 70.42L47.45 89.06L53.42 89.06L53.42 71.06C56.59 76.75 60.77 81.65 65.30 84.67C66.17 83.16 68.11 81.00 69.41 79.85C64.30 77.04 59.33 71.57 56.16 65.74Z"/></svg>
