<svg xmlns="http://www.w3.org/2000/svg" xmlns:xlink="http://www.w3.org/1999/xlink" width="72.00000000000001" height="106.56000000000002"><path fill="red" stroke="red" d="M11.88 37.66L32.54 37.66L32.54 52.06L39.02 52.06L39.02 37.66L60.19 37.66L60.19 47.38L66.96 47.38L66.96 33.48L39.02 33.48L39.02 30.10L63.72 30.10L63.72 25.78L8.50 25.78L8.50 30.10L32.54 30.10L32.54 33.48L5.33 33.48L5.33 47.38L11.88 47.38ZM41.54 47.88C47.16 48.74 54.36 50.40 58.32 51.84L59.47 47.88C56.16 46.73 50.47 45.58 45.58 44.78C49.39 43.99 54.36 42.77 57.89 41.18L55.44 37.94C52.20 39.24 46.37 41.18 42.55 42.12L44.21 44.57L42.84 44.42ZM14.33 51.62C19.01 50.76 24.34 49.68 29.95 48.46L29.66 44.78L27.43 45.14L29.16 41.62C26.21 40.25 20.74 38.81 16.63 38.02L14.83 41.18C19.08 42.19 24.48 43.85 27.43 45.14C21.89 46.01 16.70 46.73 12.67 47.16ZM27.29 75.96L27.29 81.65L17.06 81.65L17.06 75.96ZM27.00 58.03L27.00 62.86L13.97 62.86L13.97 61.49L13.97 58.03ZM33.26 71.14L13.18 71.14C13.39 69.84 13.61 68.62 13.75 67.32L33.12 67.32L33.12 53.57L7.92 53.57L7.92 61.34C7.92 67.18 7.27 74.95 2.38 80.93C3.46 81.72 5.83 84.46 6.55 85.82C8.64 83.45 10.08 80.64 11.23 77.83L11.23 88.99L17.06 88.99L17.06 86.47L33.26 86.47ZM56.81 60.19C56.23 61.85 55.37 64.22 54.50 66.17L48.17 66.17C47.88 64.51 46.94 61.99 46.01 60.19ZM68.47 71.06L68.47 66.17L60.12 66.17C60.91 64.66 61.78 62.86 62.64 61.13L57.24 60.19L66.60 60.19L66.60 55.51L54.94 55.51C54.50 54.14 53.86 52.56 53.21 51.34L47.16 52.34C47.59 53.35 47.95 54.43 48.31 55.51L36.22 55.51L36.22 60.19L44.42 60.19L40.61 60.98C41.33 62.57 41.98 64.58 42.34 66.17L34.63 66.17L34.63 71.06L48.31 71.06L48.31 75.38L35.78 75.38L35.78 80.14L48.31 80.14L48.31 89.21L54.36 89.21L54.36 80.14L67.25 80.14L67.25 75.38L54.36 75.38L54.36 71.06Z"/></svg>
