<svg xmlns="http://www.w3.org/2000/svg" xmlns:xlink="http://www.w3.org/1999/xlink" width="72.00000000000001" height="106.56000000000002"><path fill="red" stroke="red" d="M10.66 54.00L16.42 54.00L16.42 61.49L10.66 61.49ZM26.78 61.49L21.46 61.49L21.46 54.00L26.78 54.00ZM14.33 34.85L23.18 34.85L23.18 39.53L14.33 39.53ZM33.55 77.33L33.55 71.64L22.18 71.64L22.18 66.67L32.18 66.67L32.18 48.89L22.18 48.89L22.18 44.78L29.16 44.78L29.16 34.85L34.42 34.85L34.42 29.38L29.16 29.38L29.16 23.26L23.18 23.26L23.18 29.38L14.33 29.38L14.33 23.26L8.64 23.26L8.64 29.38L3.24 29.38L3.24 34.85L8.64 34.85L8.64 44.78L15.84 44.78L15.84 48.89L5.33 48.89L5.33 66.67L15.70 66.67L15.70 71.64L3.02 71.64L3.02 77.33L15.70 77.33L15.70 89.28L22.18 89.28L22.18 77.33ZM68.62 45.94L44.28 45.94L44.28 35.42C52.20 33.77 60.70 31.61 67.18 28.87L61.63 23.54C55.87 26.28 46.30 29.02 37.66 30.74L37.66 49.97C37.66 60.34 37.08 75.02 30.67 85.32C32.26 85.97 35.21 87.62 36.43 88.85C42.84 78.62 44.14 63.43 44.28 52.20L53.35 52.20L53.35 89.06L59.98 89.06L59.98 52.20L68.62 52.20Z"/></svg>
