<svg xmlns="http://www.w3.org/2000/svg" xmlns:xlink="http://www.w3.org/1999/xlink" width="72.00000000000001" height="106.56000000000002"><path fill="red" stroke="red" d="M9.43 54.00L13.97 54.00L13.97 61.49L9.43 61.49ZM22.75 61.49L18.58 61.49L18.58 54.00L22.75 54.00ZM13.10 34.85L19.44 34.85L19.44 39.53L13.10 39.53ZM19.37 66.67L27.29 66.67L27.29 48.89L19.08 48.89L19.08 44.78L24.84 44.78L24.84 34.85L29.74 34.85L29.74 29.38L24.84 29.38L24.84 23.26L19.44 23.26L19.44 29.38L13.10 29.38L13.10 23.26L7.85 23.26L7.85 29.38L3.17 29.38L3.17 34.85L7.85 34.85L7.85 44.78L13.54 44.78L13.54 48.89L4.97 48.89L4.97 66.67L13.25 66.67L13.25 71.64L3.02 71.64L3.02 77.33L13.25 77.33L13.25 89.28L19.37 89.28L19.37 77.33L29.09 77.33L29.09 71.64L19.37 71.64ZM35.42 24.12C33.77 33.34 30.96 42.26 26.71 48.02C27.72 49.46 29.45 52.49 30.02 53.86C30.74 52.85 31.54 51.70 32.26 50.54L32.26 88.85L37.66 88.85L37.66 38.52C39.10 34.34 40.25 29.81 41.11 25.34ZM46.37 53.71L52.13 53.71L52.13 59.90L46.37 59.90ZM46.37 42.98L52.13 42.98L52.13 49.10L46.37 49.10ZM62.14 49.10L56.81 49.10L56.81 42.98L62.14 42.98ZM62.14 59.90L56.81 59.90L56.81 53.71L62.14 53.71ZM67.18 64.80L67.18 38.02L57.24 38.02L57.24 32.18L68.33 32.18L68.33 26.50L41.33 26.50L41.33 32.18L51.77 32.18L51.77 38.02L41.54 38.02L41.54 64.80L51.55 64.80C51.26 68.33 50.69 71.35 49.75 74.02C48.02 72.07 46.58 69.70 45.43 66.74L40.61 67.68C42.34 72.22 44.50 75.74 47.09 78.62C45.07 81.14 42.12 83.16 37.80 84.67C38.95 85.68 40.46 87.70 40.97 89.14C45.58 87.41 48.82 85.03 51.12 82.22C55.30 85.25 60.34 87.26 66.46 88.85C66.96 87.12 68.18 85.18 69.34 84.02C62.93 82.58 57.89 80.86 53.78 77.90C55.51 74.23 56.30 69.91 56.74 64.80Z"/></svg>
