<svg xmlns="http://www.w3.org/2000/svg" xmlns:xlink="http://www.w3.org/1999/xlink" width="72.00000000000001" height="106.56000000000002"><path fill="red" stroke="red" d="M59.83 48.89L41.04 48.89L41.04 42.98L59.83 42.98ZM59.83 59.62L41.04 59.62L41.04 53.64L59.83 53.64ZM59.83 70.34L41.04 70.34L41.04 64.37L59.83 64.37ZM34.92 37.94L34.92 75.46L66.24 75.46L66.24 37.94L52.06 37.94C52.70 36.07 53.35 33.98 54.00 31.97L68.98 31.97L68.98 26.35L32.76 26.35L32.76 31.97L46.51 31.97C46.22 33.91 45.86 36.07 45.43 37.94ZM30.31 26.50L6.19 26.50L6.19 32.69L30.31 32.69ZM26.64 71.78L26.64 49.68L32.69 49.68L32.69 43.42L3.82 43.42L3.82 49.68L9.00 49.68L9.00 56.45C9.00 63.43 8.28 73.73 2.02 81.22C3.46 82.08 5.47 84.02 6.55 85.25C13.90 76.90 14.98 64.87 14.98 56.52L14.98 49.68L20.74 49.68L20.74 70.56C20.74 73.37 18.72 75.02 17.21 75.67C18.29 77.04 19.58 79.85 20.02 81.43C21.17 80.35 23.04 79.34 33.77 74.74C33.41 73.44 33.05 71.06 32.98 69.34ZM42.48 76.18C39.17 79.27 32.76 83.02 27.36 85.03C28.73 86.18 30.74 88.06 31.82 89.35C37.15 87.05 43.78 83.16 48.02 79.63ZM52.56 79.85C56.66 82.66 62.06 86.69 64.51 89.35L69.91 85.61C67.10 82.94 61.70 79.06 57.53 76.54Z"/></svg>
