<svg xmlns="http://www.w3.org/2000/svg" xmlns:xlink="http://www.w3.org/1999/xlink" width="72.00000000000001" height="106.56000000000002"><path fill="red" stroke="red" d="M65.23 24.55C57.10 26.78 43.06 28.22 31.18 29.02C31.82 30.38 32.54 32.54 32.69 33.98C44.71 33.48 59.18 32.04 68.83 29.59ZM61.63 49.54C63.50 46.01 65.74 40.46 67.68 35.64L61.63 34.27C60.55 38.38 58.32 44.35 56.38 48.17ZM54.29 46.15C53.71 43.13 51.91 38.45 50.26 34.85L45.29 36.00C46.94 39.67 48.38 44.64 48.96 47.59ZM43.20 48.10C42.48 44.93 40.39 39.96 38.23 36.22L33.26 37.73C35.28 41.62 37.22 46.73 37.87 49.90ZM12.53 41.33L24.77 41.33L24.77 36.72L13.61 36.72C15.19 34.99 16.78 33.19 18.22 31.32C22.10 33.62 26.64 36.58 29.09 38.52L31.97 33.48C29.52 31.61 24.98 29.02 21.17 26.93C21.67 26.06 22.18 25.13 22.61 24.34L17.06 22.39C13.82 28.37 7.99 34.06 2.38 37.66C3.31 39.10 4.75 42.55 5.26 43.92C7.70 42.26 10.22 40.10 12.53 37.80ZM56.66 61.13C55.22 65.66 53.35 69.55 50.69 72.72C47.81 71.14 44.78 69.70 41.83 68.40C43.13 66.31 44.50 63.72 45.86 61.13ZM22.97 49.68L22.97 54.50L12.82 54.50L12.82 49.68ZM12.82 64.44L12.82 59.33L22.97 59.33L22.97 64.44ZM69.05 61.13L69.05 55.66L64.15 55.66C64.30 54.79 64.44 54.00 64.58 53.06L58.68 52.06C58.46 53.35 58.25 54.50 58.03 55.66L48.60 55.66C49.46 53.71 50.33 51.62 51.05 49.82L45.14 48.74C44.42 50.98 43.42 53.28 42.26 55.66L31.46 55.66L31.46 61.13L39.53 61.13C37.66 64.73 35.57 68.11 33.77 70.85C37.87 72.43 42.26 74.59 46.51 76.75C42.55 79.85 37.51 82.08 30.82 83.66C29.59 80.06 27.07 74.38 24.91 69.98L20.23 71.71C20.88 73.22 21.60 74.81 22.32 76.54L12.82 79.92L12.82 69.41L28.44 69.41L28.44 44.71L7.06 44.71L7.06 79.27C7.06 82.01 5.26 83.16 4.03 83.74C4.97 85.10 5.90 87.62 6.26 89.06C7.70 87.91 9.86 86.83 24.26 81.36C24.91 83.23 25.56 85.03 25.99 86.40L30.46 84.46C31.54 85.68 32.69 87.48 33.26 88.78C41.26 86.69 47.30 83.81 51.98 79.78C56.88 82.73 61.34 85.75 64.44 88.42L68.62 83.95C65.45 81.43 60.91 78.48 56.02 75.60C59.18 71.64 61.34 66.89 62.93 61.13Z"/></svg>
