<svg xmlns="http://www.w3.org/2000/svg" xmlns:xlink="http://www.w3.org/1999/xlink" width="72.00000000000001" height="106.56000000000002"><path fill="red" stroke="red" d="M59.90 36.94L52.20 36.94L52.20 31.03L59.90 31.03ZM59.90 47.74L52.20 47.74L52.20 41.76L59.90 41.76ZM38.59 41.76L46.58 41.76L46.58 47.74L38.59 47.74ZM38.59 31.03L46.58 31.03L46.58 36.94L38.59 36.94ZM65.74 25.92L32.98 25.92L32.98 52.85L65.74 52.85ZM12.53 41.11L24.77 41.11L24.77 36.50L13.46 36.50C15.12 34.78 16.70 33.05 18.07 31.18C21.96 33.41 26.50 36.22 28.87 38.09L31.82 32.69C29.45 30.96 25.06 28.51 21.31 26.57C21.82 25.85 22.18 25.06 22.61 24.34L17.06 22.39C13.82 28.22 7.99 33.70 2.38 37.08C3.38 38.59 4.82 42.05 5.33 43.34C7.78 41.69 10.22 39.67 12.53 37.44ZM22.18 49.68L22.18 54.50L13.18 54.50L13.18 49.68ZM13.18 64.44L13.18 59.33L22.18 59.33L22.18 64.44ZM18.79 72.58C19.51 73.94 20.30 75.46 21.10 77.04L13.18 79.85L13.18 69.41L28.22 69.41L28.22 44.71L6.98 44.71L6.98 78.84C6.98 81.58 5.26 82.51 3.96 83.02C4.90 84.60 5.90 87.48 6.26 89.06C7.63 87.98 9.72 86.98 23.33 81.72C24.26 83.74 25.13 85.68 25.70 87.19L30.89 84.53C29.52 81.00 26.35 74.88 23.69 70.42ZM64.44 64.73C62.28 66.74 58.97 69.34 56.02 71.28C54.65 68.83 53.42 66.10 52.56 63.14L68.98 63.14L68.98 57.53L29.74 57.53L29.74 63.14L34.70 63.14L34.70 79.13C34.70 81.86 33.41 82.80 32.26 83.38C33.12 84.60 34.13 87.19 34.49 88.70C35.86 87.84 38.16 87.05 51.55 83.74C51.41 82.37 51.48 79.78 51.70 77.98L40.90 80.28L40.90 63.14L47.16 63.14C50.40 75.31 56.38 84.46 66.10 89.14C66.89 87.48 68.62 85.25 69.91 84.02C65.45 82.30 61.78 79.34 58.82 75.60C61.92 73.80 65.45 71.42 68.33 69.05Z"/></svg>
