<svg xmlns="http://www.w3.org/2000/svg" xmlns:xlink="http://www.w3.org/1999/xlink" width="72.00000000000001" height="106.56000000000002"><path fill="red" stroke="red" d="M6.34 84.53C7.56 80.35 8.57 73.37 9.14 68.62L5.54 67.39C5.04 72.14 3.89 78.91 2.45 83.02ZM10.30 68.90C10.66 73.01 10.94 78.34 10.94 81.86L14.11 81.50C14.11 77.98 13.82 72.72 13.32 68.54ZM11.45 53.14L16.85 53.14L16.85 58.82L11.45 58.82ZM16.85 31.68L16.85 37.44L11.45 37.44L11.45 31.68ZM16.85 47.95L11.45 47.95L11.45 42.55L16.85 42.55ZM22.10 58.82L22.10 53.14L28.94 53.14L28.94 47.95L22.10 47.95L22.10 42.55L28.73 42.55L28.73 37.44L22.10 37.44L22.10 31.68L29.74 31.68L29.74 26.14L6.19 26.14L6.19 64.37L24.84 64.37C24.77 67.97 24.62 70.92 24.48 73.44C23.69 71.21 22.61 68.47 21.53 66.31L18.86 67.18C20.23 70.13 21.74 74.09 22.46 76.61L24.34 75.82C24.05 80.42 23.69 82.51 23.26 83.30C22.75 83.95 22.25 84.10 21.46 84.10C20.59 84.10 18.94 84.10 16.92 83.81C17.64 85.25 18.22 87.41 18.29 88.99C20.52 89.06 22.75 89.06 24.05 88.85C25.70 88.63 26.71 88.13 27.79 86.76C29.23 84.74 29.74 78.48 30.24 61.13C30.31 60.41 30.31 58.82 30.31 58.82ZM20.02 79.27C19.58 76.18 18.50 71.35 17.50 67.68L14.62 68.18C15.48 71.93 16.56 76.68 16.92 79.92ZM37.30 74.09C35.21 77.69 32.11 81.72 29.23 84.53C30.46 85.32 32.76 86.90 33.77 87.84C36.58 84.82 40.18 79.92 42.70 75.82ZM38.02 40.39L46.22 40.39L46.22 45.22L38.02 45.22ZM38.02 30.96L46.22 30.96L46.22 35.78L38.02 35.78ZM60.12 35.78L51.84 35.78L51.84 30.96L60.12 30.96ZM60.12 45.22L51.84 45.22L51.84 40.39L60.12 40.39ZM62.35 70.70C63.36 72.29 64.22 73.73 64.73 74.88L69.48 72.07C67.68 68.76 63.79 63.36 60.91 59.33L56.38 61.78C57.31 63.07 58.25 64.51 59.33 65.95L43.70 67.03C49.68 63.50 55.66 59.33 61.13 54.72L57.17 50.90C55.15 52.70 53.06 54.58 50.83 56.23L42.12 56.45C44.64 54.65 47.30 52.42 49.61 50.11L66.10 50.11L66.10 26.14L32.26 26.14L32.26 50.11L42.34 50.11C39.89 52.49 37.44 54.36 36.50 55.01C35.14 55.94 33.98 56.59 32.90 56.74C33.55 58.25 34.20 60.98 34.49 62.21C35.50 61.85 36.94 61.56 44.21 61.20C41.18 63.14 38.81 64.66 37.51 65.30C34.85 66.96 32.90 67.90 31.03 68.18C31.61 69.70 32.40 72.58 32.62 73.73C34.06 73.08 36.00 72.79 46.80 71.93L46.80 82.30C46.80 83.02 46.58 83.23 45.72 83.23C44.93 83.30 42.26 83.30 39.46 83.23C40.18 84.82 40.90 86.98 41.11 88.63C45.36 88.63 48.31 88.63 50.33 87.77C52.34 86.90 52.85 85.32 52.85 82.44L52.85 71.42ZM55.58 76.32C58.39 79.92 62.06 84.82 63.86 87.77L68.69 84.82C66.74 82.01 63.00 77.18 60.12 73.73Z"/></svg>
