<svg xmlns="http://www.w3.org/2000/svg" xmlns:xlink="http://www.w3.org/1999/xlink" width="72.00000000000001" height="106.56000000000002"><path fill="red" stroke="red" d="M37.73 35.64C36.86 32.54 35.35 27.79 34.20 23.98L29.30 25.06C30.38 28.80 31.82 33.77 32.62 36.94ZM25.85 82.94L25.85 56.23L29.30 56.23L29.30 45.58L34.56 45.58C32.83 51.19 30.82 57.38 29.16 61.70L35.64 61.70C34.92 66.60 33.91 71.86 32.47 75.82C30.46 76.82 28.08 79.56 25.85 83.09ZM11.52 64.22C13.90 65.88 16.56 68.18 18.07 69.70L20.74 66.67L20.74 70.20C17.14 71.86 13.90 73.37 11.30 74.38C11.45 72.00 11.52 69.62 11.52 67.61ZM10.94 30.46L21.24 30.46L21.24 34.27L14.40 34.27L14.40 45.58L10.94 45.58ZM18.07 45.58L18.07 38.30L21.24 38.30L21.24 45.58ZM24.12 54.14L8.71 54.14L8.71 50.26L24.12 50.26ZM20.74 66.02C19.15 64.51 16.42 62.57 13.97 60.91L11.52 63.50L11.52 58.75L20.74 58.75ZM39.02 56.23L38.09 56.45L36.00 56.45C37.37 52.49 38.88 47.88 40.18 43.70C40.97 44.28 41.69 45.00 42.05 45.50C44.64 43.13 46.87 40.18 48.82 36.72L48.82 39.82L54.14 39.82L54.14 44.50L44.50 44.50L44.50 48.38L68.62 48.38L68.62 44.50L59.47 44.50L59.47 39.82L66.82 39.82L66.82 35.93L49.18 35.93C49.75 34.78 50.33 33.70 50.83 32.47L68.54 32.47L68.54 27.72L52.56 27.72C52.92 26.42 53.35 25.20 53.64 23.83L48.60 22.90C48.24 24.55 47.88 26.14 47.30 27.72L40.18 27.72L40.18 32.47L45.29 32.47C43.92 35.35 42.12 38.02 40.10 40.18L29.23 40.18L29.23 45.58L26.21 45.58L26.21 25.49L6.12 25.49L6.12 45.58L3.74 45.58L3.74 56.23L6.55 56.23L6.55 67.61C6.55 73.15 6.34 80.57 3.53 86.04C4.75 86.62 6.84 88.13 7.78 89.06C9.72 85.18 10.73 80.21 11.16 75.46L12.96 79.13C15.48 77.69 18.07 76.18 20.74 74.59L20.74 82.87C20.74 83.59 20.52 83.81 19.73 83.81C19.15 83.88 16.78 83.88 14.26 83.81C14.90 85.10 15.62 86.98 15.84 88.27C19.58 88.27 22.10 88.27 23.69 87.48C25.27 86.69 25.78 85.54 25.85 83.30L29.95 89.28C31.03 85.46 32.83 80.78 34.06 80.78C35.42 80.78 37.44 82.87 39.96 84.60C43.78 87.19 47.95 88.42 53.93 88.42C57.89 88.42 64.22 88.20 67.39 87.91C67.46 86.33 68.26 83.30 68.90 81.65C64.51 82.22 58.03 82.51 54.07 82.51C48.53 82.51 44.57 81.65 41.04 79.34C39.38 78.26 38.23 77.33 37.08 76.54C39.17 71.06 40.61 63.65 41.47 57.10ZM50.26 59.90C52.78 61.06 55.87 63.07 57.53 64.22L59.90 60.77C58.25 59.47 55.22 58.10 52.49 56.88ZM49.68 55.30L60.77 55.30L60.77 64.87C56.52 65.88 52.56 66.74 49.46 67.32C49.61 65.23 49.68 63.29 49.68 61.49ZM66.24 51.26L44.57 51.26L44.57 61.34C44.57 65.66 44.42 71.28 42.41 75.60C43.49 76.10 45.79 77.62 46.80 78.55C48.31 75.46 49.10 71.42 49.39 67.61L51.05 71.78C54.14 70.78 57.31 69.77 60.77 68.69L60.77 73.58C60.77 74.23 60.62 74.38 59.90 74.45C59.33 74.45 57.60 74.45 55.51 74.38C56.09 75.60 56.81 77.26 57.10 78.48C60.41 78.48 62.71 78.48 64.30 77.76C65.81 77.04 66.24 76.03 66.24 73.58Z"/></svg>
