<svg xmlns="http://www.w3.org/2000/svg" xmlns:xlink="http://www.w3.org/1999/xlink" width="72.00000000000001" height="106.56000000000002"><path fill="red" stroke="red" d="M33.41 59.83L38.52 59.83L38.52 73.51L33.41 73.51ZM33.41 38.30L38.52 38.30L38.52 55.22L33.41 55.22ZM17.50 43.27L17.50 38.30L27.72 38.30L27.72 43.27ZM18.94 34.27C20.30 33.05 21.67 31.90 22.97 30.60L38.74 30.60C37.87 31.90 36.94 33.12 35.93 34.27ZM55.22 43.27L44.21 43.27L44.21 38.30L55.22 38.30ZM58.97 59.83L58.97 73.51L48.10 73.51C49.54 72.22 50.90 70.78 52.27 69.12C53.71 70.34 54.86 71.50 55.73 72.43L58.32 69.48C57.46 68.47 56.09 67.32 54.58 66.10C55.73 64.44 56.74 62.64 57.60 60.91L53.86 59.90C53.21 61.27 52.42 62.57 51.55 63.94C50.18 63.00 48.89 62.06 47.52 61.42L45.07 64.08C46.44 64.94 47.95 65.81 49.39 66.89C47.88 68.54 46.30 70.13 44.64 71.50C45.29 71.93 46.30 72.86 47.02 73.51L44.21 73.51L44.21 59.83ZM39.53 83.95C34.20 83.95 33.41 83.09 33.41 79.42L33.41 78.12L64.30 78.12L64.30 55.22L44.21 55.22L44.21 47.30L61.56 47.30L61.56 34.27L42.70 34.27C44.21 32.54 45.72 30.67 46.73 28.87L42.84 26.28L41.98 26.50L26.71 26.50C27.43 25.63 28.08 24.84 28.73 24.05L22.18 22.68C18.50 27.72 12.10 33.48 3.46 37.73C4.90 38.66 6.77 40.68 7.70 42.05C9.00 41.33 10.15 40.68 11.30 39.96L11.30 47.38L27.72 47.38L27.72 55.22L22.82 55.22L22.82 49.90L8.06 49.90L8.06 53.21L17.86 53.21L17.86 55.73L4.82 55.73L4.82 59.18L17.86 59.18L17.86 61.70L8.06 61.70L8.06 65.16L22.82 65.16L22.82 59.83L27.72 59.83L27.72 73.51L22.82 73.51L22.82 68.11L8.06 68.11L8.06 71.50L17.86 71.50L17.86 74.09L4.75 74.09L4.75 77.54L17.86 77.54L17.86 80.14L8.06 80.14L8.06 83.59L22.82 83.59L22.82 78.12L27.72 78.12L27.72 79.34C27.72 86.98 30.31 88.85 39.38 88.85L58.97 88.85C66.17 88.85 68.04 86.83 68.90 80.42C67.25 80.06 65.02 79.34 63.58 78.48C63.14 82.94 62.28 83.95 58.54 83.95Z"/></svg>
