<svg xmlns="http://www.w3.org/2000/svg" xmlns:xlink="http://www.w3.org/1999/xlink" width="72.00000000000001" height="106.56000000000002"><path fill="red" stroke="red" d="M23.04 65.74C22.46 77.04 20.23 81.29 3.10 83.59C4.32 84.96 5.98 87.55 6.55 89.28C25.85 86.18 29.16 79.70 29.95 65.74ZM5.04 70.63L11.02 70.63L11.02 62.28L60.62 62.28L60.62 70.56L66.82 70.56L66.82 57.02L5.04 57.02ZM50.90 48.67L21.02 48.67L21.02 42.91L50.90 42.91ZM14.40 38.30L14.40 53.28L57.96 53.28L57.96 38.30ZM51.48 82.58C49.18 82.58 48.74 82.30 48.74 80.35L48.74 65.74L41.47 65.74L41.47 80.42C41.47 86.62 43.27 88.49 50.47 88.49L59.40 88.49C65.09 88.49 66.89 86.18 67.54 77.62C65.66 77.18 62.78 76.18 61.42 75.10C61.13 81.43 60.70 82.58 58.75 82.58ZM42.26 29.09C41.54 27.22 40.25 24.62 38.95 22.75L32.26 24.12C33.12 25.63 34.06 27.43 34.63 29.09L4.54 29.09L4.54 34.63L67.61 34.63L67.61 29.09Z"/></svg>
