<svg xmlns="http://www.w3.org/2000/svg" xmlns:xlink="http://www.w3.org/1999/xlink" width="72.00000000000001" height="106.56000000000002"><path fill="red" stroke="red" d="M18.65 23.18C14.98 33.77 8.86 44.14 2.38 50.98C3.53 52.56 5.47 56.16 6.05 57.82C7.85 55.87 9.50 53.71 11.23 51.41L11.23 89.21L17.57 89.21L17.57 41.26C20.38 36.14 22.97 30.60 24.91 25.20ZM69.05 53.93L49.61 53.93L49.61 46.58C56.02 42.41 62.93 36.50 67.61 31.03L63.00 27.72L61.70 28.15L27.29 28.15L27.29 34.34L55.66 34.34C51.91 37.80 47.23 41.40 42.91 43.85L42.91 53.93L22.90 53.93L22.90 60.34L42.91 60.34L42.91 80.71C42.91 81.94 42.48 82.30 41.11 82.30C39.74 82.37 34.85 82.37 30.10 82.22C31.03 84.02 32.11 87.05 32.40 88.99C38.81 88.99 43.27 88.85 46.01 87.77C48.74 86.76 49.61 84.82 49.61 80.86L49.61 60.34L69.05 60.34Z"/></svg>
