<svg xmlns="http://www.w3.org/2000/svg" xmlns:xlink="http://www.w3.org/1999/xlink" width="72.00000000000001" height="106.56000000000002"><path fill="red" stroke="red" d="M18.65 23.11C14.98 33.70 8.86 44.06 2.30 50.76C3.46 52.42 5.40 56.02 6.05 57.67C7.85 55.73 9.65 53.50 11.38 51.12L11.38 89.14L17.93 89.14L17.93 40.68C20.66 35.71 23.11 30.31 25.06 25.13ZM41.47 24.55C42.70 28.08 44.14 32.76 44.71 35.57L51.70 33.70C51.05 30.89 49.46 26.42 48.10 23.04ZM69.05 42.05L69.05 35.57L23.33 35.57L23.33 42.05L34.99 42.05C34.49 59.11 33.26 75.53 19.94 84.60C21.74 85.68 23.83 87.77 24.91 89.35C35.35 81.86 39.38 70.49 40.97 57.53L57.31 57.53C56.59 73.66 55.66 80.14 54.07 81.65C53.35 82.51 52.63 82.66 51.41 82.66C49.82 82.66 46.30 82.58 42.48 82.30C43.63 84.02 44.42 86.62 44.57 88.49C48.38 88.63 52.20 88.70 54.43 88.42C56.88 88.20 58.54 87.55 60.05 85.75C62.42 83.16 63.36 75.31 64.30 54.07C64.37 53.21 64.44 51.26 64.44 51.26L41.62 51.26C41.90 48.24 42.05 45.14 42.12 42.05Z"/></svg>
