<svg xmlns="http://www.w3.org/2000/svg" xmlns:xlink="http://www.w3.org/1999/xlink" width="72.00000000000001" height="106.56000000000002"><path fill="red" stroke="red" d="M58.03 27.14C56.16 32.26 53.21 38.30 50.62 42.41C52.20 43.06 54.94 44.28 56.30 45.07C58.68 40.97 61.92 34.34 64.08 28.87ZM38.52 42.05C36.50 38.09 32.47 31.82 29.02 27.14L23.62 29.66C27.00 34.49 31.10 41.11 32.90 45.14ZM16.27 23.47C13.18 34.20 7.99 44.93 2.23 51.84C3.31 53.57 5.04 57.31 5.54 58.90C7.34 56.74 9.07 54.36 10.73 51.62L10.73 89.14L17.14 89.14L17.14 39.38C19.15 34.70 21.02 29.95 22.54 25.20ZM68.11 62.64L47.81 62.64L47.81 52.99L65.23 52.99L65.23 46.73L47.81 46.73L47.81 23.18L41.11 23.18L41.11 46.73L24.12 46.73L24.12 52.99L41.11 52.99L41.11 62.64L21.17 62.64L21.17 68.90L41.11 68.90L41.11 89.14L47.81 89.14L47.81 68.90L68.11 68.90Z"/></svg>
