<svg xmlns="http://www.w3.org/2000/svg" xmlns:xlink="http://www.w3.org/1999/xlink" width="72.00000000000001" height="106.56000000000002"><path fill="red" stroke="red" d="M17.50 40.32C15.41 49.32 11.02 56.95 4.61 61.70C6.05 62.64 8.71 64.87 9.79 66.10C13.18 63.29 16.13 59.69 18.50 55.44C20.88 57.67 23.11 59.90 24.41 61.56L28.94 56.81C27.22 54.94 24.19 52.13 21.31 49.68C22.39 47.09 23.26 44.42 23.98 41.54ZM67.61 59.90C64.80 57.10 59.54 52.92 55.15 49.54C56.23 47.02 57.02 44.28 57.67 41.47L51.19 40.32C49.61 47.88 46.30 54.65 41.33 58.97C40.61 57.96 39.96 56.95 39.31 55.87L39.31 39.10L67.03 39.10L67.03 32.62L39.31 32.62L39.31 23.11L32.26 23.11L32.26 32.62L5.40 32.62L5.40 39.10L32.26 39.10L32.26 56.23C25.85 66.31 14.26 75.89 2.66 80.50C4.25 81.79 6.34 84.53 7.42 86.18C16.49 82.01 25.42 74.88 32.26 66.46L32.26 89.14L39.31 89.14L39.31 66.24C46.08 74.81 55.01 82.08 64.37 86.26C65.52 84.38 67.68 81.58 69.41 80.21C58.61 76.18 48.02 68.18 41.47 59.18C43.13 59.98 45.72 61.63 46.87 62.57C48.96 60.55 50.83 58.03 52.49 55.15C56.45 58.46 60.62 62.06 62.86 64.51Z"/></svg>
