<svg xmlns="http://www.w3.org/2000/svg" xmlns:xlink="http://www.w3.org/1999/xlink" width="72.00000000000001" height="106.56000000000002"><path fill="red" stroke="red" d="M15.98 23.40C12.89 34.13 7.78 44.86 1.94 51.84C3.10 53.57 4.82 57.31 5.33 58.90C7.13 56.74 8.86 54.22 10.58 51.41L10.58 89.21L16.92 89.21L16.92 39.24C18.94 34.63 20.74 29.81 22.25 25.20ZM66.96 36.79L66.96 30.82L35.57 30.82C36.43 28.80 37.22 26.71 37.87 24.70L31.54 23.04C29.02 31.25 24.62 39.53 19.66 44.71C21.24 45.58 23.98 47.30 25.27 48.38C27.79 45.29 30.38 41.26 32.69 36.79ZM47.59 72.86L50.54 70.78C49.03 68.47 46.01 65.52 43.06 63.36L57.31 63.36C57.10 67.18 56.81 70.34 56.52 72.86ZM41.33 63.36L38.45 65.30C41.33 67.46 44.35 70.49 46.01 72.86L32.11 72.86C32.62 69.98 33.05 66.74 33.55 63.36ZM42.84 48.60L40.32 50.40C42.84 52.27 45.65 55.08 47.16 57.24L34.34 57.24C34.63 54.36 34.99 51.41 35.35 48.60ZM58.10 48.60C57.96 51.70 57.82 54.65 57.67 57.24L48.96 57.24L51.55 55.30C50.26 53.28 47.59 50.62 44.93 48.60ZM69.34 63.36L69.34 57.24L63.86 57.24C64.01 53.86 64.22 50.04 64.37 45.79C64.44 44.93 64.51 42.84 64.51 42.84L29.74 42.84C29.30 47.16 28.73 52.20 28.15 57.24L20.81 57.24L20.81 63.36L27.29 63.36C26.42 69.05 25.56 74.45 24.70 78.62L55.66 78.62C55.22 80.50 54.72 81.65 54.22 82.22C53.50 83.23 52.85 83.38 51.62 83.38C50.18 83.38 47.09 83.38 43.63 83.02C44.64 84.60 45.29 87.05 45.43 88.63C48.89 88.78 52.34 88.85 54.43 88.56C56.66 88.34 58.25 87.70 59.69 85.75C60.70 84.60 61.42 82.44 61.99 78.62L67.39 78.62L67.39 72.86L62.78 72.86C63.00 70.20 63.29 67.10 63.50 63.36Z"/></svg>
