<svg xmlns="http://www.w3.org/2000/svg" xmlns:xlink="http://www.w3.org/1999/xlink" width="72.00000000000001" height="106.56000000000002"><path fill="red" stroke="red" d="M15.70 23.47C12.67 34.20 7.78 44.86 2.16 51.84C3.24 53.50 4.90 57.10 5.47 58.68C7.06 56.66 8.50 54.43 10.01 51.98L10.01 89.14L16.27 89.14L16.27 39.74C18.36 34.99 20.16 30.02 21.67 25.13ZM37.87 37.30C36.43 44.57 33.26 53.71 28.73 59.33C29.59 60.70 30.74 63.14 31.25 64.58C32.33 63.22 33.41 61.85 34.42 60.26L34.42 88.85L40.03 88.85L40.03 48.96C41.40 45.50 42.48 41.90 43.42 38.52ZM62.64 38.09L56.88 38.09L56.88 47.52L42.84 47.52L42.84 53.14L56.88 53.14L56.88 82.08C56.88 83.02 56.59 83.23 55.66 83.23C54.86 83.30 51.98 83.30 48.96 83.23C49.68 84.82 50.47 87.34 50.69 88.85C55.22 88.85 58.18 88.70 60.12 87.77C62.06 86.83 62.64 85.18 62.64 82.15L62.64 53.14L68.33 53.14L68.33 47.52L62.64 47.52ZM55.01 71.71C53.57 67.90 50.54 61.92 47.95 57.24L43.42 59.40C45.86 64.08 48.89 70.34 50.26 74.23ZM49.82 30.17C48.96 27.79 47.74 24.84 46.51 22.54L40.61 24.12C41.47 25.92 42.34 28.15 43.06 30.17L22.32 30.17L22.32 54.43C22.32 63.94 21.96 76.82 17.78 85.75C19.30 86.33 21.89 87.98 23.04 89.06C27.58 79.56 28.30 64.73 28.30 54.43L28.30 36.00L68.69 36.00L68.69 30.17Z"/></svg>
