<svg xmlns="http://www.w3.org/2000/svg" xmlns:xlink="http://www.w3.org/1999/xlink" width="72.00000000000001" height="106.56000000000002"><path fill="red" stroke="red" d="M50.47 50.40L50.47 54.07L21.24 54.07L21.24 50.40ZM20.95 61.99C21.10 60.70 21.17 59.40 21.17 58.25L50.47 58.25L50.47 61.99ZM52.20 74.95L52.20 82.30L25.92 82.30L25.92 74.95ZM56.88 66.67L56.88 45.79L14.47 45.79L14.47 55.66C14.47 64.22 13.18 75.60 3.31 83.66C4.82 84.60 7.56 87.05 8.57 88.42C14.69 83.30 17.93 76.54 19.66 69.91L19.66 89.28L25.92 89.28L25.92 87.41L52.20 87.41L52.20 88.92L58.75 88.92L58.75 69.70L19.73 69.70C19.94 68.69 20.16 67.68 20.38 66.67ZM28.44 37.66C31.46 35.57 34.34 33.19 36.94 30.74C39.24 33.19 41.98 35.57 44.86 37.66ZM35.86 22.46C29.09 31.68 15.77 38.81 2.95 42.55C4.54 44.06 6.26 46.51 7.20 48.24C13.61 46.08 19.94 43.13 25.63 39.53L25.63 42.26L46.51 42.26L46.51 38.81C52.13 42.62 58.46 45.72 64.66 47.52C65.66 45.79 67.61 43.20 69.12 41.76C58.32 39.24 47.02 33.26 40.61 26.71C40.97 26.28 41.33 25.78 41.69 25.34Z"/></svg>
