<svg xmlns="http://www.w3.org/2000/svg" xmlns:xlink="http://www.w3.org/1999/xlink" width="72.00000000000001" height="106.56000000000002"><path fill="red" stroke="red" d="M18.00 23.40C14.26 33.91 8.06 44.50 1.44 51.19C2.52 52.70 4.32 56.23 4.97 57.89C6.84 55.80 8.86 53.35 10.66 50.83L10.66 89.14L16.92 89.14L16.92 40.75C19.58 35.78 22.03 30.53 23.90 25.27ZM47.95 54.14L47.95 51.12L58.46 51.12L58.46 54.14ZM31.46 54.14L31.46 51.12L41.69 51.12L41.69 54.14ZM41.69 43.78L41.69 46.80L31.46 46.80L31.46 43.78ZM58.46 43.78L58.46 46.80L47.95 46.80L47.95 43.78ZM69.19 67.18L57.53 67.18L57.53 64.73C59.62 64.73 61.13 64.58 62.42 64.15C63.94 63.50 64.37 62.64 64.37 60.34L64.37 39.17L47.95 39.17L47.95 35.78L68.26 35.78L68.26 30.60L62.14 30.60L64.37 27.86C62.28 26.35 58.18 24.41 55.08 23.11L51.84 26.71C54.22 27.79 57.02 29.23 59.18 30.60L47.95 30.60L47.95 23.11L41.69 23.11L41.69 30.60L22.25 30.60L22.25 35.78L41.69 35.78L41.69 39.17L25.56 39.17L25.56 63.86L31.46 63.86L31.46 58.39L41.69 58.39L41.69 63.22L47.95 63.22L47.95 58.39L58.46 58.39L58.46 60.19C58.46 60.70 58.32 60.91 57.74 60.91C57.24 60.91 55.80 60.98 54.22 60.84C54.58 61.63 55.15 62.50 55.51 63.43L51.05 63.43L51.05 67.18L20.16 67.18L20.16 72.65L31.10 72.65L27.14 75.31C30.67 78.12 34.85 82.15 36.65 84.89L41.69 81.29C39.82 78.77 36.00 75.24 32.62 72.65L51.05 72.65L51.05 82.51C51.05 83.23 50.76 83.52 49.68 83.59C48.74 83.59 45.29 83.59 41.62 83.52C42.41 85.10 43.27 87.19 43.56 88.85C48.74 88.85 52.20 88.85 54.58 87.98C56.95 87.12 57.53 85.68 57.53 82.58L57.53 72.65L69.19 72.65Z"/></svg>
