<svg xmlns="http://www.w3.org/2000/svg" xmlns:xlink="http://www.w3.org/1999/xlink" width="72.00000000000001" height="106.56000000000002"><path fill="red" stroke="red" d="M68.04 31.61L60.05 31.61C59.47 29.09 58.39 25.70 57.31 23.04L51.48 24.26C52.34 26.42 53.14 29.23 53.64 31.61L44.06 31.61L44.06 37.44L68.04 37.44ZM53.86 49.03C53.42 46.30 52.20 41.83 50.98 38.30L46.22 39.67C47.45 43.20 48.53 47.88 48.82 50.69ZM15.48 23.11C12.53 33.91 7.70 44.64 2.30 51.70C3.31 53.42 4.90 57.24 5.40 58.82C7.06 56.74 8.57 54.36 10.08 51.77L10.08 89.14L15.84 89.14L15.84 39.89C17.86 35.06 19.66 29.95 21.10 24.98ZM37.30 63.50L37.30 77.62L30.60 77.62L30.60 63.50ZM36.22 32.47L36.22 44.35L27.72 44.35C27.79 42.98 27.79 41.62 27.79 40.46L27.79 32.47ZM42.91 57.89L27.00 57.89C27.29 55.15 27.43 52.34 27.58 49.82L41.83 49.82L41.83 26.93L22.25 26.93L22.25 40.46C22.25 51.55 21.74 68.47 16.20 80.50C17.28 81.14 19.87 83.45 20.66 84.67C22.75 80.35 24.19 75.24 25.27 70.06L25.27 88.56L30.60 88.56L30.60 83.23L42.91 83.23ZM68.90 57.02L68.90 51.19L61.92 51.19C63.50 47.81 65.09 43.42 66.67 39.60L60.91 38.16C60.05 41.98 58.32 47.38 56.74 51.19L42.98 51.19L42.98 57.02L53.06 57.02L53.06 65.81L44.64 65.81L44.64 71.57L53.06 71.57L53.06 89.14L59.18 89.14L59.18 71.57L67.97 71.57L67.97 65.81L59.18 65.81L59.18 57.02Z"/></svg>
