<svg xmlns="http://www.w3.org/2000/svg" xmlns:xlink="http://www.w3.org/1999/xlink" width="72.00000000000001" height="106.56000000000002"><path fill="red" stroke="red" d="M22.90 30.02L22.90 34.63L41.11 34.63L41.11 38.23L25.27 38.23L25.27 42.62L41.11 42.62L41.11 46.51L20.81 46.51L20.81 51.34L68.83 51.34L68.83 46.51L47.59 46.51L47.59 42.62L64.15 42.62L64.15 38.23L47.59 38.23L47.59 34.63L66.60 34.63L66.60 30.02L56.30 30.02C57.53 28.51 58.90 26.71 60.19 24.84L53.71 22.97C52.78 24.98 51.12 27.86 49.68 30.02L39.67 30.02C38.66 28.01 36.65 25.13 34.85 23.11L29.59 24.98C30.74 26.50 31.97 28.37 32.98 30.02ZM55.01 55.37C57.89 57.38 61.34 60.26 63.00 62.35L67.18 59.18C65.45 57.10 61.85 54.36 58.90 52.49ZM17.71 23.26C14.04 33.62 7.99 43.78 1.58 50.33C2.59 51.91 4.46 55.30 5.11 56.81C6.98 54.79 8.78 52.56 10.58 50.11L10.58 89.14L16.85 89.14L16.85 40.10C19.51 35.28 21.82 30.17 23.69 25.13ZM60.98 68.40C59.62 70.49 57.89 72.43 55.94 74.23C55.30 72.29 54.79 70.06 54.29 67.61L69.26 67.61L69.26 62.93L53.64 62.93C53.28 59.83 53.06 56.45 52.99 52.92L47.16 52.92C47.23 56.45 47.52 59.76 47.88 62.93L37.22 62.93L37.22 57.96C39.96 57.53 42.55 57.02 44.78 56.38L41.26 52.42C36.36 53.78 27.72 55.01 20.45 55.58C21.02 56.74 21.67 58.54 21.89 59.69C24.84 59.47 28.08 59.18 31.25 58.82L31.25 62.93L20.09 62.93L20.09 67.61L31.25 67.61L31.25 72.43C26.93 72.94 22.97 73.37 19.80 73.73L20.30 78.62C23.54 78.19 27.29 77.76 31.25 77.33L31.25 83.09C31.25 83.88 31.03 84.10 30.24 84.10C29.38 84.17 26.71 84.17 23.90 84.02C24.70 85.39 25.42 87.55 25.70 88.99C29.88 88.99 32.76 88.92 34.63 88.20C36.65 87.34 37.22 85.97 37.22 83.16L37.22 76.61C40.03 76.25 42.84 75.89 45.65 75.53L45.50 70.70L37.22 71.71L37.22 67.61L48.53 67.61C49.18 71.57 50.04 75.02 51.19 78.05C47.88 80.35 44.28 82.37 40.61 83.88C41.76 84.89 43.63 87.12 44.42 88.20C47.45 86.76 50.54 84.96 53.50 82.87C55.94 86.90 59.11 89.21 63.07 89.21C67.32 89.21 69.12 87.41 69.91 80.57C68.54 80.06 66.74 79.13 65.59 77.90C65.38 82.15 64.87 83.59 63.43 83.59C61.49 83.59 59.62 82.08 58.03 79.27C61.27 76.54 64.08 73.44 66.17 70.20Z"/></svg>
