<svg xmlns="http://www.w3.org/2000/svg" xmlns:xlink="http://www.w3.org/1999/xlink" width="72.00000000000001" height="106.56000000000002"><path fill="red" stroke="red" d="M50.47 81.43C47.59 81.43 47.09 80.93 47.09 78.26L47.09 52.78L55.01 52.06C56.59 54.43 57.96 56.45 58.97 58.25L64.94 54.07C61.20 48.17 53.21 38.45 47.66 31.39L42.12 34.78C44.86 38.23 47.95 42.34 50.90 46.37L19.37 48.53C25.42 41.90 31.61 33.62 36.86 24.98L29.45 22.61C24.48 32.47 16.56 42.62 14.04 45.22C11.59 47.95 9.94 49.61 8.14 50.04C8.93 51.84 10.15 55.30 10.51 56.66C12.31 55.94 14.54 55.58 23.69 54.79C22.75 69.77 19.87 78.84 2.38 83.74C3.89 85.10 5.69 87.77 6.48 89.57C25.92 83.45 29.52 72.14 30.67 54.14L40.25 53.35L40.25 78.26C40.25 85.68 42.19 87.84 49.54 87.84L59.90 87.84C66.89 87.84 68.69 84.17 69.41 71.21C67.61 70.70 64.73 69.55 63.14 68.33C62.78 79.49 62.28 81.43 59.33 81.43Z"/></svg>
