<svg xmlns="http://www.w3.org/2000/svg" xmlns:xlink="http://www.w3.org/1999/xlink" width="72.00000000000001" height="106.56000000000002"><path fill="red" stroke="red" d="M55.08 48.60C51.91 45.58 47.38 41.90 42.26 38.23C46.15 34.42 49.75 30.31 52.85 25.99L46.44 23.54C43.85 27.36 40.61 31.10 37.01 34.56C31.68 30.89 26.06 27.36 21.17 24.48L16.56 28.66C21.46 31.61 26.86 35.21 31.97 38.81C27.14 42.62 21.74 46.08 16.42 48.60C18.00 49.68 20.59 52.13 21.74 53.35C27.00 50.54 32.26 46.87 37.30 42.62C42.41 46.58 47.02 50.40 50.04 53.57ZM50.62 82.30C47.74 82.30 47.23 81.94 47.23 79.70L47.23 60.98L55.44 60.98L55.44 64.87L62.21 64.87L62.21 31.39L55.44 31.39L55.44 54.86L16.06 54.86L16.06 31.32L9.58 31.32L9.58 60.98L22.68 60.98C21.53 72.29 18.94 79.56 2.66 83.30C4.18 84.74 5.90 87.48 6.62 89.28C24.84 84.46 28.51 75.10 29.88 60.98L40.46 60.98L40.46 79.70C40.46 86.54 42.26 88.63 49.75 88.63L60.12 88.63C66.53 88.63 68.33 85.75 69.12 74.45C67.32 74.02 64.37 72.94 63.00 71.78C62.64 80.86 62.21 82.30 59.47 82.30Z"/></svg>
