<svg xmlns="http://www.w3.org/2000/svg" xmlns:xlink="http://www.w3.org/1999/xlink" width="72.00000000000001" height="106.56000000000002"><path fill="red" stroke="red" d="M57.82 45.58L57.82 66.60C49.18 62.57 44.21 55.37 41.47 45.58ZM14.62 45.58L31.25 45.58C28.73 55.73 23.33 62.93 14.62 67.32ZM64.58 39.02L40.03 39.02C39.31 35.06 38.95 30.74 38.74 26.14L20.45 26.14L20.45 32.04L32.90 32.04C33.12 34.42 33.34 36.79 33.62 39.02L7.85 39.02L7.85 89.21L14.62 89.21L14.62 67.75C16.06 69.12 17.93 71.42 18.72 72.86C27.58 68.26 33.12 60.91 36.22 50.90C39.31 60.41 44.57 67.82 53.06 72.43C54.14 70.63 56.30 67.97 57.82 66.67L57.82 80.93C57.82 82.01 57.38 82.37 56.09 82.44C54.79 82.44 50.11 82.51 45.72 82.30C46.73 84.17 47.81 87.19 48.10 89.14C54.14 89.14 58.46 89.06 61.13 87.98C63.79 86.90 64.58 84.82 64.58 81.00Z"/></svg>
