<svg xmlns="http://www.w3.org/2000/svg" xmlns:xlink="http://www.w3.org/1999/xlink" width="72.00000000000001" height="106.56000000000002"><path fill="red" stroke="red" d="M15.26 79.13C27.07 81.72 43.34 86.62 51.55 89.93L54.65 83.59C46.08 80.35 29.52 75.96 18.22 73.73ZM24.34 66.60C32.40 68.90 43.78 72.58 49.46 74.81L52.42 68.83C46.44 66.60 34.92 63.29 27.22 61.42ZM48.24 35.86C45.00 40.03 40.68 43.78 35.71 46.94C31.54 44.21 27.94 41.04 25.20 37.58C25.63 37.01 26.06 36.43 26.57 35.86ZM53.86 29.74L52.78 30.02L30.96 30.02C32.26 28.15 33.41 26.28 34.49 24.41L27.29 22.97C23.40 30.38 15.98 39.24 5.69 45.65C7.20 46.73 9.22 49.18 10.22 50.83C14.33 48.02 18.00 44.93 21.24 41.69C23.76 44.78 26.64 47.74 29.88 50.26C21.89 54.43 12.60 57.38 3.53 59.04C4.75 60.62 6.19 63.50 6.77 65.38C16.85 63.14 27.07 59.54 36.00 54.43C44.21 59.47 54.00 63.00 64.73 64.94C65.59 63.00 67.46 60.12 69.05 58.54C59.04 57.10 49.82 54.43 42.05 50.54C48.89 45.58 54.58 39.60 58.39 32.33Z"/></svg>
