<svg xmlns="http://www.w3.org/2000/svg" xmlns:xlink="http://www.w3.org/1999/xlink" width="72.00000000000001" height="106.56000000000002"><path fill="red" stroke="red" d="M31.61 65.66C30.74 64.66 28.30 62.06 25.78 59.47C27.86 57.67 30.31 55.37 32.76 53.06L28.30 49.39C27.00 51.41 24.70 54.29 22.75 56.38C22.03 55.66 21.38 55.08 20.81 54.50L20.81 53.86C24.26 48.82 27.22 43.42 29.38 37.87L25.63 35.21L24.62 35.50L18.00 35.50L22.82 32.40C21.53 29.88 18.86 25.92 16.42 22.97L11.30 25.92C13.46 28.80 15.98 32.83 17.28 35.50L4.18 35.50L4.18 41.54L20.95 41.54C16.70 50.26 9.36 58.97 2.45 63.94C3.53 65.23 5.18 68.69 5.83 70.49C8.57 68.40 11.23 65.74 13.90 62.71L13.90 89.21L20.81 89.21L20.81 61.92C23.40 65.16 26.28 68.76 27.65 70.92ZM30.38 29.02L30.38 35.42L40.97 35.42C40.25 58.10 37.37 74.52 24.91 84.02C26.50 85.18 29.23 87.91 30.17 89.21C43.27 77.98 46.66 60.55 47.74 35.42L59.69 35.42C58.97 66.82 58.10 78.77 55.87 81.29C55.22 82.30 54.43 82.58 53.06 82.58C51.41 82.58 47.81 82.58 43.63 82.22C44.78 84.02 45.58 86.83 45.65 88.63C49.61 88.78 53.57 88.85 56.02 88.49C58.54 88.13 60.26 87.41 61.92 84.96C64.58 81.29 65.38 68.98 66.24 32.47C66.24 31.54 66.31 29.02 66.31 29.02Z"/></svg>
