<svg xmlns="http://www.w3.org/2000/svg" xmlns:xlink="http://www.w3.org/1999/xlink" width="72.00000000000001" height="106.56000000000002"><path fill="red" stroke="red" d="M10.51 64.44C8.71 70.27 6.05 76.82 3.38 81.29C4.82 82.30 7.27 84.38 8.35 85.54C11.23 80.50 14.47 72.79 16.70 66.17ZM42.55 61.70L42.55 55.73L26.28 55.73L26.28 48.96L19.66 48.96L19.66 55.73L4.46 55.73L4.46 61.70L19.66 61.70L19.66 89.06L26.28 89.06L26.28 61.70ZM28.87 66.82C32.11 72.43 35.57 79.92 36.86 84.53L42.70 81.65C41.40 77.11 37.73 69.91 34.34 64.37ZM35.78 45.00C34.85 45.00 34.70 44.28 34.70 42.34L34.70 26.06L12.10 26.06L12.10 33.05C12.10 37.94 10.94 43.92 3.67 48.46C4.97 49.25 7.42 51.91 8.21 53.21C16.56 47.88 18.43 39.74 18.43 33.19L18.43 31.82L28.37 31.82L28.37 42.26C28.37 48.02 29.52 50.33 35.14 50.33L39.24 50.33C40.61 50.33 42.12 50.26 42.98 49.90C42.77 48.46 42.62 46.22 42.48 44.57C41.62 44.78 40.18 45.00 39.17 45.00ZM53.14 30.82L46.94 30.82L46.94 70.42L53.14 70.42ZM59.76 23.54L59.76 80.93C59.76 82.08 59.33 82.44 58.10 82.51C57.02 82.51 53.35 82.51 49.39 82.37C50.33 84.24 51.26 87.19 51.55 88.99C57.24 88.99 60.84 88.78 63.14 87.70C65.38 86.62 66.24 84.74 66.24 80.93L66.24 23.54Z"/></svg>
