<svg xmlns="http://www.w3.org/2000/svg" xmlns:xlink="http://www.w3.org/1999/xlink" width="72.00000000000001" height="106.56000000000002"><path fill="red" stroke="red" d="M16.85 39.82C17.42 37.80 18.14 35.64 18.86 33.41L31.97 33.41C31.46 35.42 30.96 37.51 30.38 39.82ZM44.06 55.73L44.06 49.82L34.13 49.82C36.14 42.91 38.16 34.92 39.46 28.66L34.78 27.72L33.77 28.01L20.52 28.01L21.74 24.05L15.19 23.11C13.32 30.17 10.30 39.46 8.06 45.14L13.90 45.14L13.90 45.22L29.02 45.22C28.58 46.80 28.15 48.31 27.72 49.82L3.74 49.82L3.74 55.73L22.32 55.73L22.32 70.49L21.74 68.11C14.98 71.28 7.92 74.59 3.17 76.46L6.34 81.72C10.87 79.42 16.85 76.39 22.32 73.51L22.32 81.94C22.32 82.87 22.03 83.23 20.81 83.23C19.80 83.30 15.77 83.30 11.88 83.16C12.74 84.82 13.68 87.48 13.97 89.21C19.30 89.21 22.97 89.14 25.34 88.13C27.72 87.19 28.51 85.46 28.51 82.01L28.51 55.73ZM7.20 59.76C9.79 62.64 12.60 66.67 13.68 69.34L18.86 66.24C17.57 63.72 14.62 59.83 12.10 57.02ZM35.21 68.62C37.51 66.46 40.54 63.14 43.13 60.05L38.16 56.23C36.58 59.04 33.55 63.07 31.39 65.45ZM28.66 72.43C33.19 75.60 38.95 80.21 41.69 83.23L45.58 79.06C42.77 76.10 36.94 71.71 32.33 68.76ZM52.63 30.82L46.58 30.82L46.58 70.42L52.63 70.42ZM59.98 23.40L59.98 80.71C59.98 82.01 59.47 82.37 58.25 82.37C57.17 82.44 53.35 82.44 49.32 82.30C50.18 84.10 51.12 87.12 51.34 88.85C57.24 88.92 60.91 88.70 63.22 87.55C65.45 86.54 66.31 84.60 66.31 80.78L66.31 23.47Z"/></svg>
