<svg xmlns="http://www.w3.org/2000/svg" xmlns:xlink="http://www.w3.org/1999/xlink" width="72.00000000000001" height="106.56000000000002"><path fill="red" stroke="red" d="M15.77 38.45C18.79 36.22 21.53 33.62 23.90 30.96C27.58 33.12 31.61 35.93 34.92 38.45ZM13.46 43.70L35.14 43.70L35.14 38.59C37.08 40.10 38.81 41.40 39.96 42.62L43.34 37.58C39.89 34.42 33.05 30.02 27.36 26.64C27.79 25.99 28.30 25.27 28.73 24.55L22.82 22.46C18.79 28.94 10.94 35.64 2.45 39.89C3.82 40.90 5.83 43.06 6.84 44.35C9.07 43.13 11.38 41.69 13.46 40.25ZM29.88 52.27L36.43 52.27L36.43 60.77L29.88 60.77ZM25.34 65.45L41.18 65.45L41.18 47.52L25.34 47.52ZM11.16 52.27L17.21 52.27L17.21 60.84L11.16 60.84ZM6.55 65.45L21.96 65.45L21.96 47.59L6.55 47.59ZM13.10 67.03C11.30 74.16 7.63 80.42 2.59 84.46C3.89 85.25 6.05 87.19 6.98 88.06C9.72 85.61 12.24 82.44 14.33 78.70C16.49 80.50 18.79 82.51 19.94 84.02L23.18 79.49C21.74 77.90 19.08 75.74 16.56 74.02C17.35 72.14 18.07 70.20 18.65 68.11ZM31.10 67.18C29.45 74.30 26.21 80.86 21.53 85.03C22.82 85.82 25.13 87.62 26.14 88.49C28.51 86.04 30.74 82.87 32.54 79.27C35.28 81.72 38.23 84.60 39.67 86.54L43.49 82.30C41.69 80.06 37.87 76.75 34.78 74.23C35.42 72.36 36.07 70.34 36.58 68.18ZM52.20 30.53L46.37 30.53L46.37 70.42L52.20 70.42ZM60.26 24.55L60.26 81.43C60.26 82.66 59.83 83.09 58.68 83.09C57.60 83.09 53.86 83.16 49.97 83.02C50.76 84.74 51.62 87.48 51.91 89.21C57.60 89.28 61.06 89.06 63.29 88.06C65.45 87.05 66.31 85.18 66.31 81.43L66.31 24.55Z"/></svg>
