<svg xmlns="http://www.w3.org/2000/svg" xmlns:xlink="http://www.w3.org/1999/xlink" width="72.00000000000001" height="106.56000000000002"><path fill="red" stroke="red" d="M36.14 51.41L36.14 44.14C40.03 43.20 44.21 41.83 47.30 40.25L43.56 36.86C40.97 38.45 36.14 40.10 31.97 41.18L31.90 41.18L31.90 49.25C31.90 51.77 31.18 52.49 30.38 52.92C31.03 53.93 31.90 55.94 32.11 57.10C32.98 56.52 34.42 56.02 40.82 54.36C40.68 53.42 40.46 51.77 40.46 50.62ZM29.95 34.85C28.37 37.22 25.63 40.90 23.40 43.20L23.40 57.53L28.01 57.53L28.01 43.20C30.02 41.26 32.40 38.88 34.34 36.58ZM15.48 43.42C15.26 48.96 15.05 51.05 14.62 51.70C14.26 52.20 13.90 52.34 13.39 52.27C12.82 52.27 11.81 52.27 10.37 52.13C10.94 53.28 11.30 55.08 11.38 56.45C12.89 56.52 14.40 56.45 15.26 56.30C16.63 56.23 17.50 55.80 18.22 54.79C19.22 53.42 19.51 49.82 19.80 40.97L19.80 39.17C20.59 40.39 21.24 41.54 21.53 42.55L25.06 40.32C24.34 38.66 22.75 36.43 21.24 34.56L46.51 34.56L46.51 29.30L29.09 29.30C28.44 27.29 27.14 24.48 25.92 22.46L21.10 24.12C21.82 25.70 22.68 27.58 23.40 29.30L4.25 29.30L4.25 34.56L20.52 34.56L17.71 36.22C18.36 37.01 19.08 38.02 19.73 39.02L4.39 39.02L4.39 43.42L8.21 43.42C7.56 47.81 6.19 51.19 3.10 53.42C3.96 54.22 5.26 56.09 5.76 57.02C9.65 54.07 11.66 49.39 12.53 43.42ZM14.83 73.37C15.05 71.57 15.12 69.91 15.12 68.33L15.12 68.18L35.28 68.18L35.28 73.37ZM35.28 62.93L15.12 62.93L15.12 58.82L9.72 58.82L9.72 68.26C9.72 73.51 8.78 80.64 2.45 85.32C3.67 86.18 5.62 87.98 6.55 89.14C10.44 86.26 12.60 82.51 13.75 78.62L35.28 78.62L35.28 88.99L41.04 88.99L41.04 58.82L35.28 58.82ZM39.60 45.86C41.62 48.74 43.78 52.78 44.78 55.37L48.60 52.92C47.59 50.47 45.29 46.66 43.20 43.78ZM55.22 30.96L49.82 30.96L49.82 71.35L55.22 71.35ZM60.84 24.05L60.84 82.15C60.84 83.16 60.48 83.45 59.54 83.45C58.54 83.52 55.66 83.52 52.49 83.45C53.28 85.03 53.93 87.70 54.22 89.21C58.90 89.21 61.99 89.06 63.86 87.98C65.74 87.05 66.38 85.32 66.38 82.15L66.38 24.05Z"/></svg>
