<svg xmlns="http://www.w3.org/2000/svg" xmlns:xlink="http://www.w3.org/1999/xlink" width="72.00000000000001" height="106.56000000000002"><path fill="red" stroke="red" d="M67.90 41.33C64.87 36.79 58.25 30.53 52.63 26.14L47.45 29.38C52.99 33.98 59.40 40.61 62.21 45.00ZM18.79 26.71C15.91 32.69 10.87 38.66 5.62 42.48C7.20 43.34 9.94 45.29 11.23 46.44C16.49 42.05 21.89 35.35 25.27 28.44ZM49.46 36.14C47.02 39.24 43.34 41.83 38.95 43.85L38.95 23.18L32.33 23.18L32.33 44.71L37.08 44.71C27.94 48.60 15.98 50.69 3.89 51.62C4.97 53.21 6.62 56.23 7.27 57.89C26.71 55.37 46.37 50.54 56.09 38.59ZM37.01 61.34C37.44 58.97 37.73 56.30 37.94 53.64L31.32 53.64C31.10 56.38 30.82 58.97 30.38 61.34L8.42 61.34L8.42 67.32L28.80 67.32C25.78 75.24 19.08 80.50 2.95 83.59C4.32 84.96 5.83 87.55 6.41 89.35C25.20 85.39 32.54 77.98 35.71 67.32L56.09 67.32C55.30 76.32 54.29 80.35 52.85 81.58C52.06 82.22 51.26 82.37 49.75 82.37C48.02 82.37 43.56 82.30 39.24 81.86C40.39 83.74 41.33 86.40 41.47 88.34C45.94 88.56 50.26 88.56 52.56 88.42C55.15 88.20 57.02 87.70 58.68 86.04C60.98 83.66 62.21 77.83 63.36 64.22C63.50 63.22 63.58 61.34 63.58 61.34Z"/></svg>
