<svg xmlns="http://www.w3.org/2000/svg" xmlns:xlink="http://www.w3.org/1999/xlink" width="72.00000000000001" height="106.56000000000002"><path fill="red" stroke="red" d="M13.39 80.86L13.39 32.62L66.89 32.62L66.89 26.21L6.70 26.21L6.70 87.26L68.47 87.26L68.47 80.86ZM43.70 60.34L43.70 53.86L55.30 53.86L55.30 60.34ZM25.70 60.34L25.70 53.86L37.30 53.86L37.30 60.34ZM37.30 42.70L37.30 48.96L25.70 48.96L25.70 42.70ZM55.30 48.96L43.70 48.96L43.70 42.70L55.30 42.70ZM61.78 68.11L61.78 37.37L19.44 37.37L19.44 68.11L25.70 68.11L25.70 65.59L37.30 65.59L37.30 79.13L43.70 79.13L43.70 65.59L55.30 65.59L55.30 68.11Z"/></svg>
