<svg xmlns="http://www.w3.org/2000/svg" xmlns:xlink="http://www.w3.org/1999/xlink" width="72.00000000000001" height="106.56000000000002"><path fill="red" stroke="red" d="M26.57 36.43L38.74 36.43L38.74 30.53L16.78 30.53C17.50 28.51 18.22 26.35 18.86 24.26L12.67 22.90C10.87 29.88 7.56 36.65 3.38 41.11C4.82 41.98 7.42 43.78 8.50 44.86C10.44 42.55 12.24 39.60 13.97 36.43L20.30 36.43L20.30 45.72L3.38 45.72L3.38 51.62L20.30 51.62L20.30 76.54L13.68 77.26L13.68 56.23L7.78 56.23L7.78 75.96C7.78 78.55 6.19 79.42 4.97 79.78C5.83 81.07 6.77 83.66 6.98 85.18C9.29 84.17 12.74 83.66 39.31 80.50C39.24 79.13 39.24 76.32 39.46 74.45L26.57 75.89L26.57 64.87L38.88 64.87L38.88 59.18L26.57 59.18L26.57 51.62L40.32 51.62L40.32 45.72L26.57 45.72ZM65.66 27.36L42.98 27.36L42.98 89.21L49.46 89.21L49.46 33.62L59.18 33.62L59.18 70.20C59.18 71.14 58.90 71.42 57.96 71.50C57.02 71.50 54.00 71.50 50.83 71.35C51.77 73.22 52.70 76.39 52.99 78.34C57.53 78.34 60.77 78.19 62.93 76.97C65.09 75.82 65.66 73.66 65.66 70.34Z"/></svg>
