<svg xmlns="http://www.w3.org/2000/svg" xmlns:xlink="http://www.w3.org/1999/xlink" width="72.00000000000001" height="106.56000000000002"><path fill="red" stroke="red" d="M15.98 33.05L67.82 33.05L67.82 26.78L9.29 26.78L9.29 48.31C9.29 59.26 8.78 74.45 2.59 85.10C4.25 85.75 7.20 87.41 8.42 88.56C14.98 77.26 15.98 60.05 15.98 48.31ZM26.93 53.28L38.81 53.28L38.81 58.97L26.93 58.97ZM26.93 42.70L38.81 42.70L38.81 48.24L26.93 48.24ZM56.52 48.24L44.71 48.24L44.71 42.70L56.52 42.70ZM56.52 58.97L44.71 58.97L44.71 53.28L56.52 53.28ZM45.22 81.36L45.22 75.17L63.94 75.17L63.94 69.48L45.22 69.48L45.22 64.22L63.00 64.22L63.00 37.44L20.74 37.44L20.74 64.22L38.30 64.22L38.30 69.48L19.73 69.48L19.73 75.17L38.30 75.17L38.30 81.36L14.83 81.36L14.83 87.26L68.62 87.26L68.62 81.36Z"/></svg>
