<svg xmlns="http://www.w3.org/2000/svg" xmlns:xlink="http://www.w3.org/1999/xlink" width="72.00000000000001" height="106.56000000000002"><path fill="red" stroke="red" d="M55.51 84.17L57.02 83.59C55.94 80.78 53.28 76.54 50.76 73.44L47.02 74.74C47.74 75.67 48.38 76.75 49.10 77.76L43.99 77.98L43.99 72.65L58.46 72.65L58.46 83.23C58.46 83.95 58.25 84.10 57.46 84.17ZM27.65 60.91L27.65 57.38L38.45 57.38L38.45 60.91ZM27.65 50.47L38.45 50.47L38.45 53.86L27.65 53.86ZM55.08 53.86L43.99 53.86L43.99 50.47L55.08 50.47ZM55.08 60.91L43.99 60.91L43.99 57.38L55.08 57.38ZM64.66 67.75L43.99 67.75L43.99 64.80L61.20 64.80L61.20 46.58L21.82 46.58L21.82 64.80L38.45 64.80L38.45 67.75L24.34 67.75L24.34 66.02L19.01 66.02L19.01 67.75L16.78 67.75L16.78 72.65L19.01 72.65L19.01 88.56L24.34 88.56L24.34 72.65L38.45 72.65L38.45 78.19C34.06 78.41 30.02 78.55 26.71 78.62L27.14 83.30C33.84 82.94 42.70 82.51 51.41 81.94C51.84 82.73 52.20 83.45 52.49 84.10L51.34 84.10C52.06 85.61 52.85 87.62 53.06 89.28C57.31 89.28 60.19 89.21 62.21 88.34C64.15 87.48 64.66 86.11 64.66 83.23ZM27.00 33.05L27.00 36.58L17.42 36.58L17.42 41.69L27.00 41.69L27.00 44.78L33.05 44.78L33.05 41.69L40.25 41.69L40.25 36.58L33.05 36.58L33.05 33.05ZM55.22 33.05L49.18 33.05L49.18 36.58L42.41 36.58L42.41 41.69L49.18 41.69L49.18 44.86L55.22 44.86L55.22 41.69L65.66 41.69L65.66 36.58L55.22 36.58ZM67.90 26.21L9.00 26.21L9.00 47.59C9.00 58.90 8.50 74.81 2.45 85.90C4.10 86.54 7.06 88.13 8.28 89.28C14.62 77.47 15.55 59.69 15.55 47.66L15.55 31.90L67.90 31.90Z"/></svg>
