<svg xmlns="http://www.w3.org/2000/svg" xmlns:xlink="http://www.w3.org/1999/xlink" width="72.00000000000001" height="106.56000000000002"><path fill="red" stroke="red" d="M58.75 22.75C46.22 25.42 24.48 27.22 5.98 27.94C6.62 29.38 7.34 31.97 7.42 33.62C26.14 32.98 48.31 31.25 63.43 28.22ZM11.52 49.54L60.26 49.54L60.26 58.54L66.82 58.54L66.82 43.63L55.51 43.63C57.53 40.75 59.62 37.15 61.49 33.91L54.50 32.04C53.14 35.57 50.83 40.25 48.74 43.63L34.42 43.63L40.46 42.12C40.03 39.46 38.45 35.35 36.86 32.18L30.89 33.48C32.40 36.72 33.77 40.97 34.13 43.63L18.58 43.63L22.46 42.41C21.67 39.96 19.80 36.14 17.86 33.41L12.02 35.06C13.61 37.66 15.26 41.11 16.13 43.63L5.26 43.63L5.26 58.54L11.52 58.54ZM48.10 62.64C45.07 66.96 41.04 70.42 36.14 73.22C30.96 70.34 26.71 66.82 23.54 62.64ZM53.64 56.23L52.42 56.45L14.62 56.45L14.62 62.64L17.71 62.64L16.42 63.22C19.87 68.40 24.26 72.86 29.52 76.46C21.96 79.63 13.18 81.65 3.67 82.80C5.11 84.24 6.91 87.12 7.56 88.85C17.78 87.19 27.58 84.60 36.00 80.42C43.99 84.53 53.42 87.26 64.08 88.78C65.02 86.83 66.74 83.95 68.18 82.44C58.68 81.43 50.18 79.42 42.84 76.46C49.32 72.00 54.72 66.31 58.18 58.97Z"/></svg>
