<svg xmlns="http://www.w3.org/2000/svg" xmlns:xlink="http://www.w3.org/1999/xlink" width="72.00000000000001" height="106.56000000000002"><path fill="red" stroke="red" d="M27.86 64.87L16.06 64.87L16.06 61.63L27.86 61.63ZM16.06 79.70L16.06 75.82L27.86 75.82L27.86 78.91ZM16.06 68.76L27.86 68.76L27.86 71.93L16.06 71.93ZM45.58 37.30C44.78 38.88 43.78 40.68 42.91 42.12L28.01 42.12L29.09 41.83C28.66 40.46 27.72 38.81 26.64 37.30ZM67.90 61.63L67.90 56.88L39.10 56.88L39.10 53.64L60.91 53.64L60.91 49.61L39.10 49.61L39.10 46.37L64.37 46.37L64.37 42.12L49.75 42.12C50.83 40.75 52.06 39.10 53.21 37.30L67.68 37.30L67.68 32.47L56.45 32.47C58.18 30.53 60.19 27.86 62.14 25.06L55.30 23.47C54.14 25.92 51.98 29.38 50.40 31.82L52.78 32.47L45.72 32.47L45.72 23.04L39.53 23.04L39.53 32.47L32.33 32.47L32.33 23.04L26.21 23.04L26.21 32.47L18.00 32.47L21.38 31.46C20.52 29.16 18.43 25.85 16.56 23.47L10.94 25.06C12.60 27.29 14.33 30.31 15.26 32.47L4.46 32.47L4.46 37.30L21.17 37.30L19.87 37.66C20.81 38.95 21.89 40.68 22.54 42.12L7.99 42.12L7.99 46.37L32.54 46.37L32.54 49.61L11.66 49.61L11.66 53.64L32.54 53.64L32.54 56.88L4.18 56.88L4.18 61.63L10.01 61.63L10.01 80.14C7.49 80.35 5.11 80.50 3.10 80.57L4.10 85.75C10.66 85.18 19.22 84.38 27.86 83.59L27.86 89.14L33.91 89.14L33.91 61.63ZM56.66 69.41C55.01 72.14 52.78 74.59 50.18 76.68C47.38 74.59 45.14 72.14 43.56 69.41ZM60.70 64.30L59.62 64.51L36.00 64.51L36.00 69.41L42.19 69.41L38.16 70.63C40.03 74.16 42.48 77.18 45.50 79.78C42.12 81.72 38.38 83.16 34.49 84.17C35.64 85.25 37.15 87.55 37.73 88.92C42.19 87.62 46.44 85.75 50.26 83.30C54.58 85.97 59.54 87.91 65.16 89.14C65.95 87.55 67.61 85.18 68.98 84.02C63.79 83.16 59.11 81.72 55.08 79.70C59.18 76.10 62.42 71.57 64.44 65.88Z"/></svg>
