<svg xmlns="http://www.w3.org/2000/svg" xmlns:xlink="http://www.w3.org/1999/xlink" width="72.00000000000001" height="106.56000000000002"><path fill="red" stroke="red" d="M32.47 59.76L39.31 59.76L39.31 38.52C41.04 36.79 42.77 35.06 44.35 33.19L67.10 33.19L67.10 26.93L4.97 26.93L4.97 33.19L35.06 33.19C27.07 41.40 14.69 47.81 2.52 51.70C3.89 53.14 6.19 56.23 7.27 57.82C15.91 54.50 24.77 49.97 32.47 44.21ZM52.70 67.61L52.70 80.21L19.51 80.21L19.51 67.61ZM12.60 89.14L19.51 89.14L19.51 86.04L52.70 86.04L52.70 89.06L59.98 89.06L59.98 61.78L12.60 61.78ZM41.69 43.85C49.61 47.23 59.18 52.85 64.30 56.95L69.12 51.91C63.86 48.02 54.36 42.70 46.51 39.38Z"/></svg>
