<svg xmlns="http://www.w3.org/2000/svg" xmlns:xlink="http://www.w3.org/1999/xlink" width="72.00000000000001" height="106.56000000000002"><path fill="red" stroke="red" d="M20.52 36.00L20.52 65.09L11.59 65.09L11.59 36.00ZM26.64 71.57L26.64 29.52L5.40 29.52L5.40 77.18L11.59 77.18L11.59 71.57ZM53.64 32.47L53.64 50.26L37.73 50.26C38.74 44.78 39.89 38.16 40.75 32.47ZM69.05 50.26L60.19 50.26L60.19 32.47L67.75 32.47L67.75 26.21L29.52 26.21L29.52 32.47L34.34 32.47C33.12 40.54 31.39 50.47 29.88 56.66L48.60 56.66C42.55 65.52 33.05 74.30 24.41 79.06C25.92 80.42 28.22 83.02 29.30 84.74C37.94 79.34 47.09 70.20 53.64 60.55L53.64 80.78C53.64 82.08 53.14 82.44 51.98 82.44C50.62 82.51 46.30 82.51 41.83 82.37C42.77 84.31 43.78 87.41 44.06 89.28C50.18 89.28 54.29 89.06 56.88 87.98C59.33 86.83 60.19 84.89 60.19 80.78L60.19 56.66L69.05 56.66Z"/></svg>
