<svg xmlns="http://www.w3.org/2000/svg" xmlns:xlink="http://www.w3.org/1999/xlink" width="72.00000000000001" height="106.56000000000002"><path fill="red" stroke="red" d="M17.78 36.50L17.78 63.58L11.38 63.58L11.38 36.50ZM23.76 30.31L5.47 30.31L5.47 76.18L11.38 76.18L11.38 69.77L23.76 69.77ZM68.76 57.74L50.54 57.74L50.54 32.83C56.38 31.97 61.99 30.96 66.53 29.66L61.99 24.26C53.50 26.71 38.95 28.51 26.42 29.52C27.14 30.96 28.08 33.48 28.30 34.99C33.34 34.78 38.59 34.27 43.92 33.70L43.92 57.74L26.42 57.74L26.42 64.08L43.92 64.08L43.92 81.07C43.92 82.30 43.42 82.73 42.12 82.73C40.97 82.73 36.86 82.80 32.54 82.58C33.62 84.31 34.63 87.26 34.92 89.06C40.97 89.06 44.78 88.92 47.23 87.77C49.68 86.76 50.54 84.96 50.54 81.14L50.54 64.08L68.76 64.08ZM28.44 39.24C30.89 44.35 33.12 51.34 33.62 55.73L39.60 53.78C38.88 49.25 36.65 42.55 33.98 37.37ZM59.11 55.87C61.49 51.41 64.37 44.28 66.67 38.23L60.12 36.29C58.82 41.83 55.94 49.39 53.71 54.14Z"/></svg>
