<svg xmlns="http://www.w3.org/2000/svg" xmlns:xlink="http://www.w3.org/1999/xlink" width="72.00000000000001" height="106.56000000000002"><path fill="red" stroke="red" d="M20.52 64.22L12.31 64.22L12.31 35.86L20.52 35.86ZM69.05 40.75L69.05 34.56L41.18 34.56C42.62 31.32 43.85 27.94 44.86 24.48L38.16 22.90C35.78 31.61 31.75 40.18 26.86 46.15L26.86 29.66L6.05 29.66L6.05 77.04L12.31 77.04L12.31 70.42L26.86 70.42L26.86 48.96C28.37 50.04 30.02 51.26 30.89 52.13C33.48 49.03 36.07 45.14 38.30 40.75L42.70 40.75L42.70 89.21L49.39 89.21L49.39 71.50L68.18 71.50L68.18 65.45L49.39 65.45L49.39 55.73L67.54 55.73L67.54 49.68L49.39 49.68L49.39 40.75Z"/></svg>
