<svg xmlns="http://www.w3.org/2000/svg" xmlns:xlink="http://www.w3.org/1999/xlink" width="72.00000000000001" height="106.56000000000002"><path fill="red" stroke="red" d="M37.15 60.91L14.18 60.91C14.40 58.90 14.54 57.02 14.69 55.08L36.00 55.08L35.93 55.22C37.44 56.38 40.03 58.82 41.04 60.12C42.41 58.18 43.56 56.02 44.64 53.64C46.08 59.69 47.95 65.38 50.26 70.49C46.87 75.82 42.55 80.06 37.15 82.87ZM19.01 76.18L19.01 66.31L31.18 66.31L31.18 76.18ZM31.10 42.41L31.10 49.61L14.90 49.61C14.90 48.60 14.90 47.66 14.90 46.73L14.90 42.41ZM59.47 42.91C58.25 50.47 56.52 57.38 53.93 63.29C51.48 57.38 49.54 50.76 48.24 43.85L48.53 42.91ZM69.12 42.91L69.12 36.65L50.04 36.65C50.98 32.62 51.70 28.44 52.27 24.19L45.58 23.26C44.21 34.85 41.69 46.08 37.08 53.57L37.08 37.01L14.90 37.01L14.90 33.05C23.04 32.11 31.90 30.67 38.38 28.58L33.26 23.76C27.50 25.70 17.35 27.36 8.71 28.30L8.71 46.73C8.71 57.17 8.14 71.78 2.16 82.15C3.60 82.80 6.19 84.82 7.27 86.04C10.22 80.93 12.10 74.66 13.25 68.33L13.25 85.97L19.01 85.97L19.01 81.58L31.18 81.58L31.18 84.60L36.72 84.60C38.23 86.04 39.67 87.77 40.54 89.21C45.94 86.33 50.26 82.22 53.78 77.26C56.74 82.08 60.26 86.18 64.51 89.21C65.66 87.26 67.90 84.60 69.55 83.23C64.80 80.28 60.84 76.03 57.67 70.63C61.56 62.78 64.08 53.35 65.45 42.91Z"/></svg>
