<svg xmlns="http://www.w3.org/2000/svg" xmlns:xlink="http://www.w3.org/1999/xlink" width="72.00000000000001" height="106.56000000000002"><path fill="red" stroke="red" d="M59.54 36.86L50.33 36.86L50.33 30.89L59.54 30.89ZM59.54 47.66L50.33 47.66L50.33 41.62L59.54 41.62ZM35.64 41.62L44.57 41.62L44.57 47.66L35.64 47.66ZM35.64 30.89L44.57 30.89L44.57 36.86L35.64 36.86ZM65.59 25.78L29.81 25.78L29.81 52.78L65.59 52.78ZM18.07 35.86L18.07 64.22L11.88 64.22L11.88 35.86ZM24.05 29.66L5.90 29.66L5.90 77.04L11.88 77.04L11.88 70.42L24.05 70.42ZM63.94 65.59C61.63 67.46 57.96 69.98 54.86 71.93C53.35 69.34 52.06 66.53 51.05 63.58L69.05 63.58L69.05 57.74L26.35 57.74L26.35 63.58L31.75 63.58L31.75 77.98C31.75 81.07 30.10 82.51 28.87 83.09C29.81 84.60 30.89 87.70 31.25 89.57C32.76 88.56 35.14 87.84 48.96 84.53C48.82 83.09 48.89 80.50 49.10 78.70L38.02 81.00L38.02 63.58L45.07 63.58C48.67 75.89 55.15 85.25 65.74 89.78C66.67 88.06 68.47 85.61 69.98 84.38C65.16 82.66 61.13 79.78 57.96 76.10C61.13 74.38 64.87 72.22 67.97 69.91Z"/></svg>
