<svg xmlns="http://www.w3.org/2000/svg" xmlns:xlink="http://www.w3.org/1999/xlink" width="72.00000000000001" height="106.56000000000002"><path fill="red" stroke="red" d="M43.34 79.34L28.66 79.34L28.66 74.23L43.34 74.23ZM63.72 61.06L8.86 61.06L8.86 89.06L15.26 89.06L15.26 66.31L57.10 66.31L57.10 81.94C57.10 82.87 56.81 83.09 55.80 83.16C55.01 83.23 52.56 83.23 49.75 83.16L49.75 70.13L22.61 70.13L22.61 83.45L47.81 83.45C48.46 85.03 49.32 87.12 49.68 88.63C54.79 88.63 58.32 88.63 60.70 87.70C63.00 86.83 63.72 85.18 63.72 82.01ZM26.64 44.78C28.01 43.56 29.23 42.41 30.38 41.04L42.77 41.04C43.85 42.34 44.93 43.56 46.30 44.78ZM46.22 53.78L26.35 53.78L26.35 48.82L46.22 48.82ZM66.89 41.04L66.89 35.71L34.56 35.71C35.50 34.20 36.36 32.69 37.22 31.03C45.86 30.46 54.22 29.59 60.70 28.37L56.23 23.62C45.50 25.63 25.99 26.64 9.86 26.78C10.44 28.15 11.09 30.46 11.23 31.90C17.14 31.90 23.40 31.75 29.66 31.46C28.80 32.98 27.86 34.34 26.78 35.71L5.26 35.71L5.26 41.04L21.67 41.04C16.49 45.58 10.01 48.96 2.95 51.34C4.32 52.49 6.77 55.08 7.78 56.30C12.17 54.58 16.42 52.34 20.30 49.75L20.30 57.89L52.63 57.89L52.63 49.90C56.45 52.42 60.62 54.58 64.80 55.94C65.66 54.36 67.61 51.98 69.05 50.83C62.06 48.89 54.94 45.36 50.11 41.04Z"/></svg>
