<svg xmlns="http://www.w3.org/2000/svg" xmlns:xlink="http://www.w3.org/1999/xlink" width="72.00000000000001" height="106.56000000000002"><path fill="red" stroke="red" d="M18.22 46.37L25.63 46.37L25.63 40.03L18.22 40.03L18.22 24.05L11.95 24.05L11.95 40.03L3.89 40.03L3.89 46.37L11.95 46.37L11.95 67.18C8.42 68.69 5.18 69.91 2.59 70.85L5.26 77.54C11.52 74.74 19.51 71.06 27.00 67.46L25.42 61.56C23.04 62.64 20.59 63.58 18.22 64.66ZM34.49 70.85L56.88 70.85L56.88 65.02L34.49 65.02ZM37.80 50.54L37.80 56.38L55.22 56.38L55.22 50.54ZM41.40 34.27C42.62 31.18 43.78 27.86 44.78 24.62L38.45 23.11C35.93 32.54 31.54 42.12 26.42 48.17C27.94 49.03 30.82 50.76 31.97 51.77C34.34 48.60 36.65 44.71 38.74 40.32L61.42 40.32C60.77 67.90 59.76 79.42 57.60 81.79C56.74 82.73 56.02 82.94 54.58 82.94C52.70 82.94 48.46 82.94 43.70 82.51C44.93 84.38 45.79 87.26 45.86 89.06C49.90 89.28 54.36 89.35 56.95 89.06C59.69 88.70 61.63 87.98 63.29 85.54C66.17 81.79 67.03 70.78 67.82 37.66C67.90 36.72 67.90 34.27 67.90 34.27Z"/></svg>
