<svg xmlns="http://www.w3.org/2000/svg" xmlns:xlink="http://www.w3.org/1999/xlink" width="72.00000000000001" height="106.56000000000002"><path fill="red" stroke="red" d="M53.06 33.26C52.42 30.53 50.76 26.06 49.54 22.68L43.20 24.05C44.42 27.58 45.94 32.26 46.44 35.06ZM44.64 41.83L68.98 41.83L68.98 35.42L26.64 35.42L26.64 40.68L19.01 40.68L19.01 24.26L12.53 24.26L12.53 40.68L3.89 40.68L3.89 47.02L12.53 47.02L12.53 68.54C8.78 69.84 5.40 71.06 2.66 71.93L4.25 78.84C11.23 76.25 20.30 72.72 28.73 69.48L27.50 63.22C24.70 64.22 21.82 65.23 19.01 66.31L19.01 47.02L26.86 47.02L26.86 41.83L37.94 41.83L37.94 51.19C37.94 61.20 36.07 74.59 20.81 84.67C22.46 85.90 24.70 87.77 25.85 89.28C39.31 80.42 43.27 68.69 44.35 58.18L58.46 58.18C57.74 73.66 56.88 79.92 55.51 81.43C54.79 82.15 54.00 82.37 52.70 82.37C51.19 82.37 47.52 82.30 43.63 81.94C44.86 83.81 45.72 86.54 45.79 88.56C49.75 88.70 53.57 88.70 55.73 88.49C58.18 88.27 59.83 87.62 61.27 85.75C63.58 83.16 64.37 75.38 65.23 54.86C65.30 53.93 65.38 51.91 65.38 51.91L44.64 51.91L44.64 51.34Z"/></svg>
