<svg xmlns="http://www.w3.org/2000/svg" xmlns:xlink="http://www.w3.org/1999/xlink" width="72.00000000000001" height="106.56000000000002"><path fill="red" stroke="red" d="M18.50 67.90L18.50 46.73L25.92 46.73L25.92 40.39L18.50 40.39L18.50 24.05L12.02 24.05L12.02 40.39L3.89 40.39L3.89 46.73L12.02 46.73L12.02 70.20C8.50 71.50 5.33 72.58 2.74 73.44L4.90 80.21C10.94 77.83 18.72 74.74 25.99 71.78L24.62 65.66ZM39.74 53.57L55.66 53.57L55.66 58.25L39.74 58.25ZM55.66 35.06L55.66 39.46L39.74 39.46L39.74 35.06ZM39.74 44.28L55.66 44.28L55.66 48.67L39.74 48.67ZM69.05 63.94L69.05 58.25L61.99 58.25L61.99 35.06L68.04 35.06L68.04 29.38L61.99 29.38L61.99 23.18L55.66 23.18L55.66 29.38L39.74 29.38L39.74 23.18L33.55 23.18L33.55 29.38L27.94 29.38L27.94 35.06L33.55 35.06L33.55 58.25L26.06 58.25L26.06 63.94L29.45 63.94L29.45 77.11C29.45 84.38 32.04 86.62 40.18 86.62L59.69 86.62C63.29 86.62 67.10 86.54 68.69 86.11C68.47 84.67 68.18 82.01 67.97 80.35C66.10 80.71 62.21 80.86 59.62 80.86L39.60 80.86C36.29 80.86 35.50 79.85 35.50 77.26L35.50 63.94L42.98 63.94C42.48 68.90 41.04 71.86 36.14 73.73C37.22 74.52 38.52 76.32 39.10 77.40C45.36 74.81 47.38 70.56 48.02 63.94L52.20 63.94L52.20 68.83C52.20 74.23 53.35 76.03 58.68 76.03L64.22 76.03C65.66 76.03 67.18 75.96 68.11 75.67C67.97 74.45 67.68 72.07 67.61 70.70C66.67 70.99 65.16 71.06 64.15 71.06L58.61 71.06C57.67 71.06 57.46 70.56 57.46 68.90L57.46 63.94Z"/></svg>
