<svg xmlns="http://www.w3.org/2000/svg" xmlns:xlink="http://www.w3.org/1999/xlink" width="72.00000000000001" height="106.56000000000002"><path fill="red" stroke="red" d="M20.59 43.85C20.52 50.40 19.87 58.18 16.92 65.81C14.90 64.01 12.74 62.21 10.80 60.48C11.88 55.66 13.03 50.11 14.11 44.28ZM29.38 78.41C27.58 76.18 24.91 73.30 21.82 70.42C25.78 61.06 26.57 51.48 26.64 43.42L31.03 43.13L31.10 37.44L26.64 37.66L26.64 33.12L20.59 33.12L20.59 38.02L15.05 38.23C15.77 33.19 16.42 28.15 16.85 23.54L10.58 23.26C10.22 28.01 9.58 33.34 8.78 38.52L2.74 38.81L3.46 44.93L7.85 44.64C6.62 51.48 5.26 57.82 3.96 62.50C7.06 65.30 10.58 68.54 13.97 71.86C11.45 76.32 7.85 80.64 2.81 84.53C4.32 85.61 6.48 87.70 7.49 89.06C12.24 85.18 15.91 80.93 18.65 76.46C21.38 79.27 23.76 81.94 25.34 84.10ZM67.68 56.95L67.68 50.62L52.27 50.62C52.42 48.60 52.49 46.73 52.49 44.93L52.49 33.98C57.74 32.98 62.57 31.68 66.60 30.02L61.85 24.77C54.65 27.79 41.90 30.02 30.82 31.18C31.54 32.76 32.47 35.21 32.76 36.79C37.01 36.43 41.40 35.86 45.79 35.21L45.79 44.86C45.79 46.66 45.79 48.60 45.65 50.62L29.95 50.62L29.95 56.95L45.07 56.95C43.63 66.17 39.46 76.39 27.07 84.74C28.58 85.82 31.03 88.06 32.04 89.42C41.62 82.22 46.87 73.58 49.61 65.23C52.56 75.96 57.38 84.31 65.09 89.06C66.02 87.34 68.04 84.89 69.48 83.59C60.84 79.06 55.94 68.98 53.42 56.95Z"/></svg>
