<svg xmlns="http://www.w3.org/2000/svg" xmlns:xlink="http://www.w3.org/1999/xlink" width="72.00000000000001" height="106.56000000000002"><path fill="red" stroke="red" d="M68.83 53.50C67.61 48.10 64.37 40.18 60.98 34.06L55.22 36.00C58.39 42.12 61.49 50.26 62.64 55.66ZM51.98 23.11L45.65 23.11L45.65 64.94L51.98 64.94ZM35.35 35.35C34.34 42.98 32.62 51.12 30.10 56.45C31.68 57.10 34.49 58.32 35.78 59.18C38.16 53.57 40.25 44.71 41.47 36.50ZM21.67 44.06C21.53 50.33 20.88 57.82 17.86 65.30C15.70 63.50 13.39 61.63 11.30 59.98C12.60 55.44 13.82 50.04 15.05 44.50ZM30.24 43.42L30.31 37.80L27.65 37.94L27.65 33.19L21.67 33.19L21.67 38.30L16.27 38.52C17.21 33.41 18.07 28.44 18.65 23.83L12.46 23.40C11.95 28.15 11.09 33.55 10.15 38.81L2.74 39.17L3.38 45.22L8.93 44.86C7.49 51.34 5.98 57.46 4.46 62.06C7.78 64.66 11.52 67.90 15.12 71.06C12.24 75.82 8.14 80.50 2.38 84.67C3.82 85.61 5.98 87.70 6.98 89.06C12.67 84.96 16.85 80.21 19.87 75.31C22.39 77.83 24.70 80.14 26.28 82.08L30.38 76.82C28.58 74.74 25.92 72.14 22.90 69.48C26.71 60.48 27.58 51.26 27.65 43.63ZM59.76 58.03C54.86 71.93 44.50 79.42 28.01 82.94C29.38 84.38 30.96 86.98 31.61 88.92C49.54 84.24 60.62 75.74 66.02 59.83Z"/></svg>
