<svg xmlns="http://www.w3.org/2000/svg" xmlns:xlink="http://www.w3.org/1999/xlink" width="72.00000000000001" height="106.56000000000002"><path fill="red" stroke="red" d="M19.73 44.14C19.58 50.54 18.79 58.10 16.06 65.59C14.33 63.86 12.46 62.14 10.80 60.55C11.88 55.87 13.10 50.26 14.18 44.50ZM26.21 77.04C24.84 75.17 22.90 72.79 20.66 70.42C24.48 61.13 25.42 51.70 25.63 43.78L29.23 43.49L29.23 37.87L25.63 38.09L25.63 33.26L19.80 33.26L19.80 38.38L15.12 38.59C15.98 33.41 16.70 28.22 17.14 23.62L11.09 23.33C10.73 28.08 10.01 33.48 9.22 38.88L2.66 39.17L3.31 45.22L8.14 44.93C6.91 51.41 5.62 57.46 4.25 62.06C7.13 64.80 10.37 68.11 13.39 71.35C10.87 76.03 7.42 80.57 2.52 84.67C3.96 85.61 6.05 87.55 7.06 88.99C11.66 85.03 15.12 80.71 17.71 76.18C19.44 78.26 20.88 80.06 21.96 81.72ZM59.76 32.33L59.76 40.90L36.79 40.90L36.79 32.33ZM66.02 46.73L66.02 26.57L30.53 26.57L30.53 51.05C30.53 61.56 29.88 75.53 22.75 85.18C24.26 85.90 27.00 87.70 28.08 88.78C35.71 78.55 36.79 62.42 36.79 51.05L36.79 46.73ZM50.47 81.86C47.52 81.86 47.02 81.43 47.02 78.84L47.02 64.94L67.61 64.94L67.61 59.26L47.02 59.26L47.02 49.68L40.82 49.68L40.82 78.84C40.82 85.82 42.62 87.77 49.75 87.77L60.84 87.77C67.03 87.77 68.69 84.96 69.48 75.10C67.75 74.66 65.16 73.58 63.79 72.50C63.43 80.42 63.00 81.86 60.41 81.86Z"/></svg>
