<svg xmlns="http://www.w3.org/2000/svg" xmlns:xlink="http://www.w3.org/1999/xlink" width="72.00000000000001" height="106.56000000000002"><path fill="red" stroke="red" d="M21.67 44.06C21.53 50.33 20.88 57.82 17.86 65.23C15.70 63.36 13.39 61.63 11.30 59.90C12.60 55.44 13.82 50.04 15.05 44.50ZM30.24 43.42L30.31 37.80L27.65 37.94L27.65 33.19L21.67 33.19L21.67 38.30L16.27 38.52C17.21 33.41 18.07 28.44 18.65 23.83L12.46 23.40C11.95 28.15 11.09 33.55 10.15 38.81L2.74 39.17L3.38 45.22L8.93 44.86C7.49 51.34 5.98 57.46 4.46 62.06C7.78 64.66 11.59 67.82 15.05 70.99C12.24 75.82 8.14 80.50 2.38 84.60C3.82 85.61 5.98 87.62 6.98 89.06C12.67 84.89 16.78 80.28 19.80 75.38C21.60 77.11 23.18 78.84 24.41 80.35L28.44 75.10C27.00 73.44 25.06 71.57 22.82 69.55C26.71 60.48 27.58 51.26 27.65 43.63ZM68.76 57.53L68.76 51.48L52.20 51.48L52.20 40.97L66.89 40.97L66.89 34.92L52.20 34.92L52.20 23.40L45.50 23.40L45.50 34.92L32.33 34.92L32.33 40.97L45.50 40.97L45.50 51.48L30.24 51.48L30.24 57.53L43.85 57.53C40.10 66.31 33.48 75.31 26.93 79.92C28.44 81.14 30.53 83.52 31.68 85.10C36.72 80.86 41.69 74.02 45.50 66.46L45.50 89.06L52.20 89.06L52.20 65.59C55.73 73.01 60.34 79.85 65.02 83.95C66.17 82.37 68.18 80.14 69.62 78.98C63.65 74.52 57.53 65.95 54.00 57.53Z"/></svg>
