<svg xmlns="http://www.w3.org/2000/svg" xmlns:xlink="http://www.w3.org/1999/xlink" width="72.00000000000001" height="106.56000000000002"><path fill="red" stroke="red" d="M11.95 36.58L59.83 36.58L59.83 44.50L66.60 44.50L66.60 30.46L41.76 30.46C40.97 28.30 39.31 24.91 37.94 22.46L31.03 24.41C32.04 26.21 33.05 28.51 33.77 30.46L5.40 30.46L5.40 44.50L11.95 44.50ZM46.15 68.69C48.46 71.71 51.12 75.17 53.57 78.62L31.10 80.35C35.93 74.38 40.90 66.96 44.93 59.40L37.94 57.10C33.84 65.95 27.58 74.81 25.49 77.26C23.54 79.63 22.03 81.14 20.52 81.58C21.24 83.38 22.32 86.54 22.68 87.98C25.13 86.98 28.66 86.62 57.46 84.17C58.61 85.97 59.69 87.77 60.55 89.14L66.60 85.39C63.36 80.28 56.59 71.78 51.70 65.66ZM32.47 48.38C33.48 45.58 34.42 42.70 35.28 39.74L28.30 38.16C27.36 41.69 26.28 45.07 24.98 48.38L4.61 48.38L4.61 54.72L22.32 54.72C17.42 65.30 10.94 74.23 3.02 80.50C4.61 81.65 7.49 84.24 8.64 85.54C17.35 77.98 24.48 67.32 29.95 54.72L67.39 54.72L67.39 48.38Z"/></svg>
