<svg xmlns="http://www.w3.org/2000/svg" xmlns:xlink="http://www.w3.org/1999/xlink" width="72.00000000000001" height="106.56000000000002"><path fill="red" stroke="red" d="M35.64 54.58L18.79 54.58L18.79 47.66L35.64 47.66ZM52.20 68.40L18.79 68.40L18.79 60.34L52.20 60.34ZM35.64 81.58L18.79 81.58L18.79 74.16L35.64 74.16ZM59.47 35.50L59.47 41.69L12.02 41.69L12.02 35.50ZM61.20 47.66L61.20 43.06L66.67 43.06L66.67 29.45L40.97 29.45C40.10 27.29 38.81 24.70 37.58 22.68L30.53 24.48C31.25 25.99 32.11 27.72 32.76 29.45L5.11 29.45L5.11 43.06L11.88 43.06L11.88 87.62L64.22 87.62L64.22 81.58L42.55 81.58L42.55 74.16L58.82 74.16L58.82 54.58L42.55 54.58L42.55 47.66Z"/></svg>
