<svg xmlns="http://www.w3.org/2000/svg" xmlns:xlink="http://www.w3.org/1999/xlink" width="72.00000000000001" height="106.56000000000002"><path fill="red" stroke="red" d="M53.78 80.35L18.79 80.35L18.79 71.21L53.78 71.21ZM23.76 46.37L47.81 46.37L47.81 54.43L23.76 54.43ZM54.50 59.83L54.50 40.97L17.42 40.97L17.42 59.83L31.18 59.83C30.60 61.70 29.81 63.65 29.09 65.45L12.17 65.45L12.17 88.99L18.79 88.99L18.79 86.18L53.78 86.18L53.78 88.78L60.70 88.78L60.70 65.45L36.22 65.45C37.22 63.65 38.16 61.78 39.10 59.83ZM40.25 29.59C39.31 27.36 38.02 24.70 36.72 22.61L29.95 24.55C30.82 26.14 31.61 27.86 32.33 29.59L5.90 29.59L5.90 46.51L12.46 46.51L12.46 35.71L59.47 35.71L59.47 46.51L66.31 46.51L66.31 29.59Z"/></svg>
