<svg xmlns="http://www.w3.org/2000/svg" xmlns:xlink="http://www.w3.org/1999/xlink" width="72.00000000000001" height="106.56000000000002"><path fill="red" stroke="red" d="M59.98 35.71L59.98 42.48L40.46 42.48C39.67 40.61 38.30 38.09 36.86 36.22L31.39 38.30C32.18 39.53 33.05 41.04 33.70 42.48L11.74 42.48L11.74 35.71ZM67.82 64.44L67.82 58.25L49.10 58.25C50.69 55.80 52.34 52.70 53.93 49.97L47.88 48.38L60.98 48.38L60.98 43.42L66.82 43.42L66.82 29.59L40.25 29.59C39.38 27.36 37.94 24.62 36.65 22.54L29.66 24.55C30.53 26.14 31.32 27.86 31.97 29.59L5.18 29.59L5.18 43.42L11.30 43.42L11.30 48.38L47.30 48.38C46.22 51.19 44.50 55.30 42.91 58.25L28.08 58.25L29.09 57.96C28.51 55.44 26.86 51.41 25.13 48.53L19.08 50.11C20.38 52.56 21.60 55.80 22.39 58.25L4.25 58.25L4.25 64.44L32.40 64.44L32.40 71.42L9.43 71.42L9.43 77.47L32.40 77.47L32.40 89.28L39.24 89.28L39.24 77.47L62.64 77.47L62.64 71.42L39.24 71.42L39.24 64.44Z"/></svg>
