<svg xmlns="http://www.w3.org/2000/svg" xmlns:xlink="http://www.w3.org/1999/xlink" width="72.00000000000001" height="106.56000000000002"><path fill="red" stroke="red" d="M51.70 74.02L51.70 81.50L20.95 81.50L20.95 74.02ZM14.47 89.14L20.95 89.14L20.95 86.83L51.70 86.83L51.70 88.99L58.46 88.99L58.46 68.69L14.47 68.69ZM12.82 35.64L59.11 35.64L59.11 40.90L57.67 39.31C52.99 40.18 46.44 40.90 39.24 41.40L39.24 36.94L32.98 36.94L32.98 41.76C26.35 42.12 19.30 42.34 12.82 42.41ZM39.24 59.54L39.24 55.22L61.27 55.22L61.27 50.11L39.24 50.11L39.24 46.22C47.66 45.65 55.51 44.78 61.56 43.63L61.20 43.27L65.95 43.27L65.95 29.81L41.40 29.81C40.39 27.58 38.59 24.55 37.30 22.46L30.89 24.34C31.82 25.92 32.90 28.01 33.84 29.81L6.26 29.81L6.26 43.27L10.58 43.27C11.02 44.42 11.30 45.94 11.45 47.02C18.29 47.02 25.70 46.87 32.98 46.51L32.98 50.11L11.45 50.11L11.45 55.22L32.98 55.22L32.98 59.54L4.46 59.54L4.46 65.02L67.82 65.02L67.82 59.54Z"/></svg>
