<svg xmlns="http://www.w3.org/2000/svg" xmlns:xlink="http://www.w3.org/1999/xlink" width="72.00000000000001" height="106.56000000000002"><path fill="red" stroke="red" d="M12.53 35.42L59.26 35.42L59.26 43.34L66.02 43.34L66.02 29.38L41.04 29.38C40.18 27.22 38.81 24.55 37.58 22.54L30.67 24.05C31.54 25.70 32.40 27.58 33.12 29.38L5.98 29.38L5.98 43.34L12.53 43.34ZM41.33 41.83C47.81 45.86 55.73 51.91 59.47 55.87L64.30 51.55C60.34 47.52 52.20 41.76 45.94 38.02ZM23.62 37.94C19.73 43.06 13.18 47.95 6.84 50.98C8.21 52.13 10.51 54.79 11.45 56.02C18.00 52.34 25.27 46.37 29.88 40.10ZM23.18 65.09C28.01 61.70 32.47 57.74 36.22 53.42C40.61 58.10 45.14 61.85 50.18 65.09ZM22.32 81.07L22.32 70.99L49.54 70.99L49.54 81.07ZM35.14 44.42C28.44 55.08 15.98 63.65 2.81 68.33C4.32 69.77 6.12 72.07 7.06 73.73C10.01 72.58 12.96 71.14 15.77 69.62L15.77 89.21L22.32 89.21L22.32 86.98L49.54 86.98L49.54 88.99L56.38 88.99L56.38 68.76C59.04 70.13 61.85 71.57 64.73 72.79C65.66 70.92 67.46 68.69 69.05 67.25C57.67 63.00 47.81 57.53 39.74 48.74C40.18 48.17 40.61 47.59 40.97 46.94Z"/></svg>
