<svg xmlns="http://www.w3.org/2000/svg" xmlns:xlink="http://www.w3.org/1999/xlink" width="72.00000000000001" height="106.56000000000002"><path fill="red" stroke="red" d="M11.88 34.20L59.83 34.20L59.83 41.83L66.38 41.83L66.38 28.44L39.96 28.44C39.10 26.57 37.94 24.34 37.01 22.68L30.17 24.55C30.82 25.78 31.46 27.07 32.04 28.44L5.62 28.44L5.62 41.83L11.88 41.83ZM39.02 63.65L39.02 55.22L39.74 55.22C44.57 57.82 49.46 60.84 53.86 63.65ZM38.95 82.08L38.95 77.26L52.56 77.26L52.56 82.08ZM19.73 77.26L32.69 77.26L32.69 82.08L19.73 82.08ZM32.69 73.08L19.73 73.08L19.73 68.40L32.69 68.40ZM52.56 73.08L38.95 73.08L38.95 68.40L52.56 68.40ZM32.69 55.22L32.69 63.65L21.31 63.65C25.42 61.13 29.23 58.25 32.33 55.22ZM32.69 49.68L23.69 49.68L23.98 49.61C23.47 47.81 22.25 45.29 20.95 43.42C24.70 43.34 28.73 43.13 32.69 42.91ZM69.12 67.32C64.58 63.79 57.67 59.33 50.54 55.22L67.46 55.22L67.46 49.68L53.78 49.68C54.94 47.95 56.23 45.86 57.46 43.85L51.05 42.12C50.33 44.35 48.82 47.30 47.52 49.68L39.02 49.68L39.02 42.55C45.50 42.05 51.70 41.40 56.66 40.68L53.06 36.00C43.99 37.51 28.01 38.52 14.90 38.81C15.41 40.03 16.06 42.12 16.20 43.49L19.30 43.42L14.98 44.42C15.98 45.94 16.92 48.02 17.50 49.68L4.54 49.68L4.54 55.22L23.98 55.22C17.86 59.62 9.58 63.43 2.23 65.52C3.67 66.74 5.54 69.19 6.48 70.70C8.71 69.91 11.09 69.05 13.39 67.90L13.39 88.99L19.73 88.99L19.73 86.90L52.56 86.90L52.56 88.78L59.11 88.78L59.11 67.32C60.91 68.62 62.42 69.77 63.79 70.92Z"/></svg>
