<svg xmlns="http://www.w3.org/2000/svg" xmlns:xlink="http://www.w3.org/1999/xlink" width="72.00000000000001" height="106.56000000000002"><path fill="red" stroke="red" d="M19.15 43.49L11.81 43.49L11.81 25.99L5.98 25.99L5.98 49.32L19.15 49.32L19.15 58.68L2.95 58.68L2.95 64.51L6.70 64.51L6.70 65.30C6.70 70.70 6.12 79.78 2.30 86.11C3.74 86.83 6.12 88.34 7.27 89.35C11.81 82.15 12.53 71.57 12.53 65.52L12.53 64.51L19.15 64.51L19.15 89.21L25.34 89.21L25.34 23.18L19.15 23.18ZM32.18 69.48C35.57 73.01 39.38 77.98 40.97 81.22L46.44 77.83C44.78 74.59 40.82 69.84 37.37 66.46ZM58.54 33.77C56.95 36.79 54.79 39.53 52.13 41.98C50.18 39.31 47.16 36.29 44.14 33.77ZM68.76 59.69L59.98 59.69L59.98 50.26L53.64 50.26L53.64 59.69L31.32 59.69C46.44 55.22 60.62 46.37 66.74 30.82L62.64 28.80L61.56 29.02L48.89 29.02C50.18 27.65 51.48 26.28 52.49 24.84L46.01 23.11C41.98 28.73 34.20 34.70 25.92 38.02C27.14 39.02 29.16 40.97 30.02 42.12C33.34 40.61 36.72 38.74 39.82 36.58C42.91 39.31 46.08 42.70 48.02 45.50C42.05 49.97 34.78 53.14 27.43 54.86C28.51 56.09 30.02 58.18 30.74 59.69L27.58 59.69L27.58 65.59L53.64 65.59L53.64 80.86C53.64 81.86 53.28 82.08 52.13 82.15C51.12 82.15 47.38 82.15 43.42 82.01C44.35 83.88 45.14 86.62 45.36 88.49C50.98 88.49 54.58 88.34 56.95 87.34C59.33 86.33 59.98 84.38 59.98 80.93L59.98 65.59L68.76 65.59ZM42.19 42.41C36.58 43.20 31.46 43.99 27.50 44.42L28.58 49.25C32.83 48.53 37.58 47.81 42.55 46.94Z"/></svg>
