<svg xmlns="http://www.w3.org/2000/svg" xmlns:xlink="http://www.w3.org/1999/xlink" width="72.00000000000001" height="106.56000000000002"><path fill="red" stroke="red" d="M29.30 81.79L29.30 35.21L24.34 35.21L24.34 72.94L20.23 72.94L20.23 24.05L14.26 24.05L14.26 72.94L10.08 72.94L10.08 35.14L5.18 35.14L5.18 78.77L24.34 78.77L24.34 81.79ZM59.11 55.30C57.10 61.27 54.07 66.38 50.18 70.56C46.44 66.24 43.56 61.06 41.54 55.30ZM62.86 49.25L61.63 49.46L52.63 49.46L52.63 39.60L68.26 39.60L68.26 33.70L52.63 33.70L52.63 23.11L46.15 23.11L46.15 33.70L32.18 33.70L32.18 39.60L46.15 39.60L46.15 49.46L32.76 49.46L32.76 55.30L39.24 55.30L35.50 56.30C37.87 63.50 41.18 69.77 45.50 74.88C40.54 78.91 34.63 81.72 28.30 83.52C29.52 84.82 31.03 87.48 31.82 89.14C38.52 86.98 44.64 83.88 49.97 79.56C54.29 83.52 59.40 86.62 65.38 88.70C66.38 86.98 68.33 84.31 69.77 83.02C64.01 81.22 58.97 78.55 54.72 75.02C60.41 68.90 64.66 60.91 67.03 50.76Z"/></svg>
