<svg xmlns="http://www.w3.org/2000/svg" xmlns:xlink="http://www.w3.org/1999/xlink" width="72.00000000000001" height="106.56000000000002"><path fill="red" stroke="red" d="M20.45 74.74L38.38 74.74L38.38 80.50L20.45 80.50ZM38.38 58.75L20.45 58.75L20.45 53.21L38.38 53.21ZM38.38 69.48L20.45 69.48L20.45 64.01L38.38 64.01ZM68.18 80.50L45.07 80.50L45.07 74.74L61.99 74.74L61.99 69.48L45.07 69.48L45.07 64.01L61.85 64.01L61.85 58.75L45.07 58.75L45.07 53.21L66.17 53.21L66.17 47.66L46.08 47.66C45.29 45.58 44.14 43.06 42.98 41.04L36.58 42.62C37.30 44.14 38.16 45.94 38.81 47.66L23.90 47.66C24.98 45.94 25.92 44.21 26.78 42.41L22.25 40.97L64.22 40.97L64.22 25.85L57.24 25.85L57.24 34.99L39.31 34.99L39.31 23.04L32.47 23.04L32.47 34.99L14.62 34.99L14.62 25.85L7.92 25.85L7.92 40.97L19.94 40.97C16.06 48.96 9.43 56.38 2.52 60.98C3.96 62.21 6.41 65.02 7.49 66.31C9.65 64.66 11.81 62.71 13.90 60.55L13.90 89.28L20.45 89.28L20.45 85.90L68.18 85.90Z"/></svg>
