<svg xmlns="http://www.w3.org/2000/svg" xmlns:xlink="http://www.w3.org/1999/xlink" width="72.00000000000001" height="106.56000000000002"><path fill="red" stroke="red" d="M65.23 24.70L58.18 24.70L58.18 31.39L39.31 31.39L39.31 23.04L32.47 23.04L32.47 31.39L14.04 31.39L14.04 24.70L7.27 24.70L7.27 36.65L65.23 36.65ZM17.35 62.14L22.68 62.14L22.68 56.38C25.78 58.25 29.38 60.77 31.10 62.06L34.20 58.18C32.54 57.17 26.57 53.93 23.47 52.27L34.06 52.27L34.06 47.74L22.68 47.74L22.68 43.63C26.42 43.20 29.95 42.62 32.76 41.90L29.59 38.16C24.05 39.60 13.75 40.54 5.47 40.90C5.98 41.98 6.62 43.63 6.77 44.78C10.08 44.71 13.68 44.50 17.35 44.21L17.35 47.74L4.61 47.74L4.61 52.27L15.19 52.27C11.95 55.30 7.34 58.03 2.95 59.47C4.10 60.41 5.62 62.21 6.34 63.50C10.15 61.85 14.11 59.18 17.35 56.09ZM24.34 71.06C23.76 73.44 22.25 75.96 19.08 78.34C17.28 77.47 15.34 76.68 13.46 75.96C14.33 74.59 15.26 73.15 16.13 71.64ZM33.48 70.49L33.55 66.17L30.02 66.38L30.02 63.72L24.91 63.72L24.91 66.60L18.58 66.96C19.01 66.02 19.44 65.16 19.80 64.22L14.54 63.14C13.97 64.51 13.32 65.81 12.60 67.25C9.14 67.46 5.98 67.61 3.31 67.68L3.82 72.36L10.01 72.00C8.71 74.09 7.34 76.18 6.12 77.83C8.71 78.77 11.45 79.92 14.18 81.14C11.09 82.58 7.13 83.88 2.02 84.96C3.10 85.97 4.46 87.91 4.97 89.06C11.30 87.62 16.06 85.75 19.58 83.81C22.82 85.39 25.63 87.05 27.72 88.34L31.18 84.53C29.23 83.45 26.78 82.08 24.05 80.71C27.72 77.47 29.16 74.02 29.74 70.70ZM56.38 83.59C54.50 83.59 54.22 83.30 54.22 81.72L54.22 77.40C54.50 78.26 54.79 79.06 54.94 79.56C55.80 79.20 57.24 78.84 64.58 78.05C64.80 78.70 65.02 79.42 65.16 79.99C64.87 79.92 64.73 79.78 64.51 79.63C64.30 83.02 63.94 83.59 62.57 83.59ZM40.61 56.16L47.66 56.16L47.66 61.49L40.61 61.49ZM40.61 46.66L47.66 46.66L47.66 51.91L40.61 51.91ZM60.62 51.91L52.92 51.91L52.92 46.66L60.62 46.66ZM60.62 61.49L52.92 61.49L52.92 56.16L60.62 56.16ZM68.47 78.98C67.97 76.90 66.67 73.51 65.30 70.99L62.06 71.78C62.50 72.65 62.93 73.66 63.29 74.59L59.11 74.88C60.48 73.01 61.92 70.63 62.86 68.11L58.68 66.74C57.82 69.98 55.87 73.22 55.37 74.09C55.01 74.59 54.65 74.95 54.22 75.17L54.22 65.95L65.95 65.95L65.95 42.19L52.27 42.19C52.85 40.90 53.42 39.53 54.00 38.09L47.16 37.15C46.87 38.59 46.44 40.39 45.86 42.19L35.42 42.19L35.42 65.95L41.11 65.95L41.11 67.39C41.11 72.22 39.89 79.34 31.25 84.82C32.40 85.90 33.98 87.91 34.70 89.21C44.64 82.80 46.37 73.51 46.37 67.61L46.37 65.95L48.82 65.95L48.82 81.72C48.82 86.76 50.18 88.20 55.73 88.20L63.14 88.20C67.10 88.20 68.62 86.69 69.19 81.50C67.97 81.29 66.46 80.71 65.30 80.06Z"/></svg>
