<svg xmlns="http://www.w3.org/2000/svg" xmlns:xlink="http://www.w3.org/1999/xlink" width="72.00000000000001" height="106.56000000000002"><path fill="red" stroke="red" d="M67.68 74.16C65.38 67.82 60.19 57.53 55.22 49.32C58.61 42.12 62.64 34.34 65.30 26.35L58.90 24.70C56.88 31.10 52.49 41.40 48.53 49.32C54.00 58.82 59.18 69.70 61.20 76.82ZM53.78 74.09C51.70 67.82 46.87 57.53 42.26 49.25C45.43 42.12 48.96 34.27 51.48 26.28L45.14 24.70C43.27 31.10 39.31 41.40 35.78 49.25C40.82 58.75 45.50 69.62 47.30 76.68ZM39.89 74.38C38.09 67.97 33.62 57.74 29.23 49.39C32.26 42.12 35.50 34.20 37.73 26.21L31.32 24.70C29.66 31.10 26.14 41.47 22.82 49.39C27.65 58.97 31.90 69.91 33.41 76.90ZM17.64 35.42C16.63 32.40 14.90 27.79 13.61 24.12L7.56 25.78C8.71 29.52 10.51 34.49 11.30 37.58ZM20.02 55.58L18.86 55.80L14.76 55.80C16.70 50.90 18.79 45.14 20.52 40.18L3.24 40.18L3.24 46.22L11.95 46.22C10.15 51.70 7.92 57.46 6.12 61.63L15.55 61.63C14.26 66.53 12.31 71.78 10.15 75.67C7.70 76.97 4.97 79.85 2.38 83.30L6.98 89.57C8.86 85.18 11.30 80.50 12.96 80.50C14.54 80.50 17.14 83.02 20.02 84.67C25.27 87.70 31.32 88.49 40.75 88.49C49.18 88.49 62.21 88.06 67.82 87.70C67.97 85.90 68.98 82.66 69.77 80.78C61.85 81.79 49.75 82.44 40.97 82.44C32.54 82.44 26.06 82.01 21.17 78.98C19.08 77.69 17.71 76.61 16.42 75.89C19.30 70.49 21.82 63.43 23.33 56.74Z"/></svg>
