<svg xmlns="http://www.w3.org/2000/svg" xmlns:xlink="http://www.w3.org/1999/xlink" width="72.00000000000001" height="106.56000000000002"><path fill="red" stroke="red" d="M18.58 59.26L18.58 54.29L32.40 54.29L32.40 59.26ZM18.58 44.50L32.40 44.50L32.40 49.39L18.58 49.39ZM54.07 49.39L39.31 49.39L39.31 44.50L54.07 44.50ZM54.07 59.26L39.31 59.26L39.31 54.29L54.07 54.29ZM67.82 74.02L67.82 68.18L39.31 68.18L39.31 64.37L61.27 64.37L61.27 39.38L56.88 39.38L62.06 37.37C59.90 35.50 56.16 33.05 52.63 31.10C55.44 29.30 58.32 27.29 61.20 25.13L54.07 23.18C51.70 25.34 47.66 28.51 43.70 31.25C48.46 34.06 52.70 37.15 55.37 39.38L37.87 39.38L43.85 37.15C41.76 35.35 38.23 32.90 34.85 30.96C37.58 29.23 40.39 27.22 43.27 25.13L36.29 23.18C33.91 25.34 29.95 28.44 26.14 31.10C30.82 34.06 34.99 37.08 37.44 39.38L20.81 39.38L26.35 37.37C24.34 35.50 21.02 33.05 17.71 31.10C20.30 29.30 23.18 27.22 26.06 25.13L19.08 23.18C16.70 25.34 12.82 28.44 9.07 31.18C13.46 34.06 17.35 37.08 19.80 39.38L11.74 39.38L11.74 64.37L32.40 64.37L32.40 68.18L4.25 68.18L4.25 74.02L25.49 74.02C19.30 77.83 10.66 81.07 2.81 82.73C4.32 84.10 6.34 86.62 7.20 88.42C16.06 86.11 25.63 81.50 32.40 75.89L32.40 89.21L39.31 89.21L39.31 75.67C45.94 81.50 55.51 86.11 64.73 88.34C65.74 86.54 67.61 83.81 69.19 82.51C60.98 80.93 52.34 77.90 46.30 74.02Z"/></svg>
