<svg xmlns="http://www.w3.org/2000/svg" xmlns:xlink="http://www.w3.org/1999/xlink" width="72.00000000000001" height="106.56000000000002"><path fill="red" stroke="red" d="M30.17 36.43L20.09 36.43L20.09 23.11L14.40 23.11L14.40 36.43L4.68 36.43L4.68 74.38L9.79 74.38L9.79 42.34L14.40 42.34L14.40 89.14L20.09 89.14L20.09 42.34L25.13 42.34L25.13 67.25C25.13 67.82 24.98 68.04 24.41 68.04L20.95 68.04C21.82 69.55 22.54 72.14 22.61 73.73C25.27 73.73 27.00 73.58 28.44 72.50C29.88 71.50 30.17 69.70 30.17 67.39ZM40.39 46.37L40.39 31.61L54.58 31.61L54.58 62.93C52.70 58.18 48.74 50.26 45.58 44.21ZM61.92 81.07C61.56 81.07 61.13 80.86 60.91 80.57C60.70 80.35 60.55 79.78 60.55 79.27L60.55 25.34L34.20 25.34L34.20 56.45C34.20 66.60 33.26 78.05 23.69 85.82C25.20 86.54 27.79 88.70 28.80 89.86C39.02 81.50 40.39 67.61 40.39 56.52L40.39 46.51C43.49 52.78 47.23 60.98 49.03 65.88L54.58 63.14L54.58 79.06C54.58 83.30 54.86 84.60 55.94 85.82C57.02 86.98 58.54 87.41 60.12 87.41L63.36 87.41C64.73 87.41 66.10 87.05 67.03 86.33C67.97 85.61 68.62 84.46 68.90 82.58C69.26 80.93 69.55 76.54 69.62 72.94C67.97 72.43 66.17 71.50 64.94 70.42C65.02 74.09 64.87 77.33 64.80 78.70C64.73 79.49 64.44 80.28 64.15 80.71C63.94 81.00 63.50 81.07 63.07 81.07Z"/></svg>
