<svg xmlns="http://www.w3.org/2000/svg" xmlns:xlink="http://www.w3.org/1999/xlink" width="72.00000000000001" height="106.56000000000002"><path fill="red" stroke="red" d="M27.22 36.50L18.50 36.50L18.50 23.18L13.18 23.18L13.18 36.50L4.32 36.50L4.32 74.30L9.29 74.30L9.29 42.41L13.18 42.41L13.18 89.14L18.50 89.14L18.50 42.41L22.46 42.41L22.46 67.03C22.46 67.61 22.32 67.75 21.96 67.75L19.22 67.75C20.02 69.19 20.59 71.78 20.74 73.30C23.04 73.30 24.41 73.15 25.70 72.07C26.93 71.14 27.22 69.34 27.22 67.18ZM38.59 61.20L46.01 61.20L46.01 65.16L38.59 65.16ZM38.59 53.28L46.01 53.28L46.01 57.24L38.59 57.24ZM60.05 57.24L51.91 57.24L51.91 53.28L60.05 53.28ZM60.05 65.16L51.91 65.16L51.91 61.20L60.05 61.20ZM52.27 77.90L66.82 77.90L66.82 73.08L52.27 73.08L52.27 69.34L65.88 69.34L65.88 49.10L32.98 49.10L32.98 69.34L45.65 69.34L45.65 73.08L31.68 73.08L31.68 77.90L45.65 77.90L45.65 82.51L28.80 82.51L28.80 87.48L69.12 87.48L69.12 82.51L52.27 82.51ZM55.87 34.20C55.22 36.22 54.22 38.74 53.35 40.97L44.42 40.97L45.00 40.82C44.57 39.02 43.63 36.36 42.55 34.20ZM59.26 40.97C60.26 39.17 61.34 37.15 62.28 35.14L57.46 34.20L67.61 34.20L67.61 28.94L53.14 28.94C52.56 27.14 51.41 24.62 50.33 22.75L44.21 24.26C44.93 25.70 45.65 27.36 46.15 28.94L31.10 28.94L31.10 34.20L41.04 34.20L36.79 35.14C37.58 36.94 38.38 39.10 38.81 40.97L29.02 40.97L29.02 46.22L69.12 46.22L69.12 40.97Z"/></svg>
