<svg xmlns="http://www.w3.org/2000/svg" xmlns:xlink="http://www.w3.org/1999/xlink" width="72.00000000000001" height="106.56000000000002"><path fill="red" stroke="red" d="M11.59 59.04C12.02 56.02 12.46 52.56 12.82 49.25L29.88 49.25L29.88 26.71L5.62 26.71L5.62 32.83L23.47 32.83L23.47 43.06L7.34 43.06C6.77 50.18 5.54 59.26 4.46 65.09L22.82 65.09C21.60 75.31 20.23 79.99 18.58 81.43C17.86 82.08 17.06 82.22 15.70 82.22C14.11 82.22 10.37 82.15 6.55 81.79C7.63 83.66 8.42 86.33 8.57 88.27C12.38 88.49 16.06 88.56 18.14 88.27C20.66 88.13 22.32 87.62 23.90 85.90C26.35 83.45 28.01 76.97 29.52 61.99C29.74 60.98 29.88 59.04 29.88 59.04ZM68.83 85.39C67.03 77.18 61.99 63.94 57.24 53.71L51.05 56.09C53.57 61.78 56.16 68.40 58.25 74.66L39.82 77.18C44.86 62.64 49.46 44.06 52.42 26.57L45.07 25.27C42.41 43.56 36.72 64.01 34.85 69.55C32.83 75.24 31.54 78.77 29.59 79.49C30.38 81.36 31.61 84.82 31.82 86.18C34.13 85.03 37.37 84.38 60.12 80.78C60.98 83.59 61.63 86.11 62.06 88.27Z"/></svg>
