<svg xmlns="http://www.w3.org/2000/svg" xmlns:xlink="http://www.w3.org/1999/xlink" width="72.00000000000001" height="106.56000000000002"><path fill="red" stroke="red" d="M43.70 29.81L38.74 29.81L38.74 42.98L34.63 42.98L34.63 23.18L29.45 23.18L29.45 42.98L25.13 42.98L25.13 29.74L20.30 29.74L20.30 48.02L43.70 48.02ZM13.25 23.11C11.09 27.65 6.77 33.48 2.81 37.08C3.74 38.30 5.26 40.90 5.98 42.19C10.58 37.87 15.48 31.25 18.72 25.42ZM14.47 37.66C11.52 45.00 6.77 52.49 2.09 57.38C3.17 58.82 4.82 61.99 5.47 63.36C6.91 61.78 8.28 59.90 9.72 57.89L9.72 89.14L15.62 89.14L15.62 48.38C17.14 45.50 18.58 42.55 19.73 39.74ZM19.37 57.46L43.49 57.46L43.49 52.20L19.44 52.20ZM22.68 60.12C22.54 71.42 21.89 78.98 16.85 83.52C18.22 84.60 20.02 86.98 20.74 88.42C27.14 82.80 28.22 73.37 28.44 60.12ZM40.54 72.50L40.54 60.05L34.99 60.05L34.99 72.50C34.99 75.31 33.84 76.75 32.76 77.33C33.70 78.70 34.92 81.50 35.28 83.09C36.22 81.86 37.80 80.35 47.16 74.45C46.66 73.30 46.01 71.14 45.65 69.62ZM60.34 42.19C59.62 50.04 58.54 57.02 56.66 63.14C54.94 57.38 53.71 50.83 52.85 43.85C53.06 43.34 53.28 42.77 53.42 42.19ZM69.05 42.19L69.05 36.50L55.15 36.50C56.16 32.54 56.95 28.37 57.67 24.12L51.91 23.18C50.40 33.98 47.74 44.14 43.06 50.76C44.28 52.06 46.22 54.72 46.87 56.02C47.74 54.79 48.60 53.50 49.25 52.13C50.33 58.97 51.77 65.23 53.78 70.70C50.98 76.61 47.23 81.29 42.19 84.89C43.42 85.97 45.58 88.20 46.37 89.42C50.62 86.11 53.93 82.08 56.59 77.33C59.04 82.01 62.06 85.82 65.88 88.70C66.74 87.19 68.54 84.82 69.84 83.74C65.52 80.78 62.21 76.54 59.62 71.14C62.93 63.07 64.87 53.50 66.02 42.19Z"/></svg>
