<svg xmlns="http://www.w3.org/2000/svg" xmlns:xlink="http://www.w3.org/1999/xlink" width="72.00000000000001" height="106.56000000000002"><path fill="red" stroke="red" d="M8.14 58.61C9.86 53.28 11.16 44.86 11.45 38.95L6.34 38.23C5.83 44.14 4.54 51.91 2.81 56.66ZM29.88 49.25C29.09 45.79 26.57 40.18 24.34 35.86L19.87 37.73L19.87 23.18L13.39 23.18L13.39 89.21L19.87 89.21L19.87 38.45C21.89 42.84 24.05 48.31 24.84 51.70ZM66.96 29.02L28.37 29.02L28.37 35.42L39.82 35.42C38.95 58.61 35.64 74.88 21.89 84.10C23.47 85.25 26.21 88.06 27.14 89.42C41.62 78.41 45.43 61.13 46.66 35.42L60.05 35.42C59.33 66.67 58.39 78.55 56.23 81.14C55.44 82.22 54.72 82.44 53.35 82.44C51.70 82.44 48.10 82.44 43.92 82.08C45.00 84.02 45.86 86.90 45.94 88.78C50.04 88.99 54.00 89.06 56.52 88.70C59.11 88.27 60.77 87.48 62.42 85.03C65.23 81.29 66.02 68.90 66.96 32.62Z"/></svg>
