<svg xmlns="http://www.w3.org/2000/svg" xmlns:xlink="http://www.w3.org/1999/xlink" width="72.00000000000001" height="106.56000000000002"><path fill="red" stroke="red" d="M7.56 57.38C9.36 52.06 10.66 43.70 10.94 37.73L5.83 37.08C5.33 42.91 4.03 50.83 2.23 55.51ZM28.80 47.81C28.01 44.42 25.56 38.88 23.33 34.63L19.01 36.50L19.01 23.18L12.38 23.18L12.38 89.21L19.01 89.21L19.01 37.58C20.95 41.83 23.04 47.09 23.83 50.33ZM68.76 46.22L37.08 46.22L37.08 35.64C47.38 34.06 58.39 31.61 66.46 28.66L60.34 23.33C53.28 26.35 41.11 29.09 30.24 30.74L30.24 49.75C30.24 60.26 29.52 74.66 21.74 84.67C23.33 85.46 26.21 87.70 27.36 88.99C35.21 79.06 36.86 63.94 37.08 52.63L50.54 52.63L50.54 88.78L57.46 88.78L57.46 52.63L68.76 52.63Z"/></svg>
