<svg xmlns="http://www.w3.org/2000/svg" xmlns:xlink="http://www.w3.org/1999/xlink" width="72.00000000000001" height="106.56000000000002"><path fill="red" stroke="red" d="M47.16 55.73L67.46 55.73L67.46 50.04L47.16 50.04L47.16 44.64L64.15 44.64L64.15 39.02L47.16 39.02L47.16 33.98L66.67 33.98L66.67 28.30L47.16 28.30L47.16 22.54L40.32 22.54L40.32 62.50L47.16 62.50ZM46.15 73.30C43.92 70.20 39.38 65.02 36.07 61.34L30.74 64.37C34.06 68.26 38.45 73.51 40.61 76.68ZM4.18 55.58C9.14 55.08 15.41 54.50 21.89 53.86C19.66 56.45 16.34 58.68 11.23 60.55C12.60 61.56 14.98 63.86 15.98 65.09C30.38 59.83 32.54 50.47 32.54 40.97L32.54 23.04L25.85 23.04L25.85 28.37L5.62 28.37L5.62 34.13L25.85 34.13L25.85 38.95L7.63 38.95L7.63 44.64L25.63 44.64C25.49 45.94 25.27 47.16 24.91 48.46C16.85 49.10 9.00 49.61 3.53 49.97ZM9.72 85.46C12.60 80.64 15.55 73.44 17.71 68.40L11.81 65.88C9.94 71.06 6.77 77.83 3.67 82.44ZM32.04 81.65C28.01 81.65 27.29 81.29 27.29 79.20L27.29 64.94L20.66 64.94L20.66 79.27C20.66 85.82 22.82 87.62 31.46 87.62L45.36 87.62C52.34 87.62 54.29 85.46 55.15 76.32C53.42 75.96 50.62 74.95 49.18 73.87C48.74 80.64 48.17 81.65 44.86 81.65ZM51.77 66.46C55.58 72.29 60.34 80.14 62.50 84.82L68.83 82.22C66.46 77.54 61.49 69.98 57.74 64.37Z"/></svg>
