<svg xmlns="http://www.w3.org/2000/svg" xmlns:xlink="http://www.w3.org/1999/xlink" width="72.00000000000001" height="106.56000000000002"><path fill="red" stroke="red" d="M6.55 57.10C8.28 51.91 9.65 43.56 10.01 37.73L5.69 37.08C5.18 42.84 3.82 50.69 2.09 55.51ZM18.00 36.79L18.00 23.18L11.66 23.18L11.66 88.92L18.00 88.92L18.00 37.66C19.80 41.69 21.74 46.80 22.39 49.97L26.57 47.95C25.78 44.71 23.62 39.38 21.60 35.28ZM57.67 62.78L57.67 69.12L38.30 69.12L38.30 62.78ZM38.30 80.78L38.30 74.45L57.67 74.45L57.67 80.78ZM31.82 89.14L38.30 89.14L38.30 86.18L57.67 86.18L57.67 88.99L64.44 88.99L64.44 57.24L31.82 57.24ZM42.62 37.94L52.34 37.94L52.34 46.22L42.62 46.22ZM58.82 46.22L58.82 37.94L66.96 37.94L66.96 32.04L58.82 32.04L58.82 23.18L52.34 23.18L52.34 32.04L42.62 32.04L42.62 23.18L36.14 23.18L36.14 32.04L28.73 32.04L28.73 37.94L36.14 37.94L36.14 46.22L27.00 46.22L27.00 52.20L68.76 52.20L68.76 46.22Z"/></svg>
