<svg xmlns="http://www.w3.org/2000/svg" xmlns:xlink="http://www.w3.org/1999/xlink" width="72.00000000000001" height="106.56000000000002"><path fill="red" stroke="red" d="M58.75 37.73L42.84 37.73L42.84 32.26L58.75 32.26ZM58.75 48.46L42.84 48.46L42.84 42.84L58.75 42.84ZM58.75 59.18L42.84 59.18L42.84 53.50L58.75 53.50ZM65.16 26.86L36.72 26.86L36.72 64.51L65.16 64.51ZM29.66 66.96C32.90 70.20 37.22 74.66 39.24 77.33L44.14 73.22C41.90 70.63 37.51 66.38 34.27 63.36ZM9.29 85.39C11.95 81.36 14.26 74.95 15.70 69.98L9.79 67.61C8.42 72.58 6.05 78.55 3.24 82.37ZM22.97 65.30L22.97 48.96C25.92 51.48 29.38 54.65 31.10 56.45L34.70 50.98C32.83 49.61 25.70 44.42 22.97 42.77L22.97 39.31L33.77 39.31L33.77 33.62L22.97 33.62L22.97 23.33L16.63 23.33L16.63 33.62L4.18 33.62L4.18 39.31L15.55 39.31C12.53 46.15 7.49 53.06 2.45 56.66C3.82 57.82 5.83 59.90 6.84 61.42C10.37 58.39 13.82 53.71 16.63 48.53L16.63 65.38ZM31.32 81.72C27.22 81.72 26.50 81.43 26.50 79.49L26.50 68.83L19.87 68.83L19.87 79.56C19.87 85.90 22.10 87.70 30.74 87.70L44.78 87.70C51.84 87.70 53.71 85.46 54.65 75.96C52.78 75.53 50.04 74.59 48.60 73.51C48.17 80.71 47.66 81.72 44.28 81.72ZM54.29 69.26C57.17 73.87 60.98 80.21 62.71 83.95L68.90 80.78C67.03 77.11 63.07 70.99 60.12 66.53Z"/></svg>
