<svg xmlns="http://www.w3.org/2000/svg" xmlns:xlink="http://www.w3.org/1999/xlink" width="72.00000000000001" height="106.56000000000002"><path fill="red" stroke="red" d="M63.94 31.61C61.34 29.09 56.02 25.70 51.84 23.54L47.81 27.50C51.98 29.88 57.17 33.48 59.62 35.93ZM57.89 48.17C55.22 54.58 51.62 60.26 47.30 65.30C45.50 59.18 44.28 51.70 43.42 43.42L67.54 43.42L67.54 36.94L42.77 36.94C42.48 32.54 42.19 28.08 42.05 23.40L35.35 23.40C35.57 28.08 35.86 32.54 36.22 36.94L9.86 36.94L9.86 54.79C9.86 64.01 9.22 76.32 2.23 84.96C3.74 85.82 6.48 88.13 7.56 89.42C15.19 79.99 16.56 65.16 16.56 54.79L16.56 43.42L36.86 43.42C37.94 54.00 39.53 63.29 42.05 70.70C36.14 76.25 29.16 80.64 21.31 83.95C22.68 85.10 25.20 87.77 26.21 89.14C32.90 85.97 39.10 81.94 44.71 77.11C48.02 83.81 52.56 87.98 58.75 88.99C65.09 90.65 68.40 86.11 69.55 73.94C67.82 73.15 65.45 71.64 64.01 70.34C63.36 78.19 62.50 82.73 60.48 82.44C55.94 81.86 52.42 78.19 49.75 72.22C55.66 66.02 60.55 58.68 64.30 50.18Z"/></svg>
