<svg xmlns="http://www.w3.org/2000/svg" xmlns:xlink="http://www.w3.org/1999/xlink" width="72.00000000000001" height="106.56000000000002"><path fill="red" stroke="red" d="M56.81 41.90L56.81 47.74L17.57 47.74L17.57 41.90ZM68.11 64.30L68.11 58.97L45.50 58.97C44.64 57.02 43.49 54.72 42.19 52.99L35.71 54.50C36.58 55.80 37.37 57.46 38.09 58.97L17.35 58.97C17.50 56.88 17.57 54.86 17.57 52.99L63.36 52.99L63.36 36.65L17.57 36.65L17.57 33.48C32.98 32.62 49.90 30.89 61.92 28.22L56.81 23.18C46.01 25.70 27.14 27.58 11.02 28.51L10.94 28.51L10.94 51.19C10.94 61.63 10.30 75.46 2.74 84.96C4.03 85.75 6.70 88.34 7.63 89.71C13.25 82.87 15.84 73.37 16.85 64.30L30.96 64.30C29.59 73.73 26.21 80.42 12.67 84.10C14.04 85.25 15.77 87.77 16.34 89.28C26.93 86.04 32.33 81.07 35.14 74.38L53.93 74.38C53.28 79.78 52.56 82.30 51.62 83.23C50.98 83.74 50.33 83.81 49.10 83.81C47.81 83.81 44.42 83.81 40.97 83.45C41.90 85.03 42.62 87.34 42.77 89.06C46.51 89.21 50.04 89.28 51.98 89.06C54.14 88.92 55.73 88.49 57.10 87.19C58.97 85.32 59.90 81.14 60.84 71.64C60.91 70.85 60.98 69.12 60.98 69.12L36.79 69.12C37.15 67.54 37.44 66.02 37.66 64.30Z"/></svg>
