<svg xmlns="http://www.w3.org/2000/svg" xmlns:xlink="http://www.w3.org/1999/xlink" width="72.00000000000001" height="106.56000000000002"><path fill="red" stroke="red" d="M40.10 31.82L51.19 31.82L51.19 41.69C51.19 47.81 52.49 50.18 58.32 50.18L63.72 50.18C65.30 50.18 66.89 50.11 67.90 49.75C67.68 48.24 67.46 45.86 67.39 44.14C66.38 44.42 64.73 44.57 63.65 44.57L58.82 44.57C57.67 44.57 57.53 43.78 57.53 41.76L57.53 25.63L33.84 25.63L33.84 33.41C33.84 38.45 32.69 43.99 24.55 48.10C25.70 49.03 28.08 51.70 28.87 52.99C38.09 48.17 40.10 40.32 40.10 33.62ZM25.34 54.29L19.22 55.94L19.22 43.42L27.58 43.42L27.58 37.22L19.22 37.22L19.22 23.18L12.74 23.18L12.74 37.22L3.53 37.22L3.53 43.42L12.74 43.42L12.74 57.67C8.93 58.68 5.47 59.54 2.59 60.19L4.39 66.60L12.74 64.30L12.74 81.22C12.74 82.30 12.31 82.58 11.30 82.66C10.44 82.66 7.42 82.66 4.25 82.58C5.04 84.24 5.98 86.98 6.19 88.63C11.16 88.63 14.33 88.49 16.42 87.41C18.50 86.47 19.22 84.74 19.22 81.29L19.22 62.42C21.53 61.85 23.90 61.13 26.21 60.41ZM55.51 60.62C52.99 65.45 49.61 69.48 45.58 72.79C41.33 69.41 37.94 65.30 35.50 60.62ZM60.05 54.14L58.90 54.36L27.22 54.36L27.22 60.62L30.82 60.62L29.02 61.27C31.82 67.18 35.42 72.29 40.03 76.61C34.63 79.78 28.37 81.94 21.82 83.23C23.04 84.67 24.55 87.48 25.13 89.35C32.47 87.48 39.38 84.82 45.43 80.93C50.90 84.74 57.38 87.55 64.80 89.35C65.81 87.48 67.61 84.60 69.05 83.16C62.28 81.86 56.23 79.63 51.12 76.68C56.95 71.42 61.63 64.73 64.37 55.94Z"/></svg>
