<svg xmlns="http://www.w3.org/2000/svg" xmlns:xlink="http://www.w3.org/1999/xlink" width="72.00000000000001" height="106.56000000000002"><path fill="red" stroke="red" d="M27.79 60.12L26.93 54.00C24.55 54.65 21.96 55.30 19.58 55.94L19.58 43.42L27.58 43.42L27.58 37.22L19.58 37.22L19.58 23.18L12.89 23.18L12.89 37.22L3.89 37.22L3.89 43.42L12.89 43.42L12.89 57.74C9.14 58.68 5.76 59.54 2.95 60.19L4.75 66.60C7.27 65.95 10.01 65.23 12.89 64.37L12.89 81.29C12.89 82.30 12.53 82.58 11.59 82.58C10.80 82.66 7.92 82.66 5.11 82.51C5.98 84.31 6.91 87.12 7.13 88.85C11.66 88.85 14.69 88.63 16.85 87.55C18.86 86.54 19.58 84.82 19.58 81.36L19.58 62.50ZM56.09 52.27L67.46 52.27L67.46 46.01L36.86 46.01L36.86 34.92C46.94 33.41 57.89 31.25 65.81 28.37L59.76 23.18C52.85 25.92 40.75 28.37 30.10 29.95L30.10 54.14C30.10 63.86 29.45 76.39 22.54 84.96C24.05 85.82 26.93 88.06 28.08 89.35C35.71 79.99 36.86 64.94 36.86 54.14L36.86 52.27L49.46 52.27L49.46 89.21L56.09 89.21L56.09 67.39C59.26 70.49 62.28 73.58 64.15 75.82L68.33 71.06C65.59 68.04 60.41 63.36 56.09 59.47Z"/></svg>
