<svg xmlns="http://www.w3.org/2000/svg" xmlns:xlink="http://www.w3.org/1999/xlink" width="72.00000000000001" height="106.56000000000002"><path fill="red" stroke="red" d="M60.05 26.64C58.61 31.54 55.66 38.38 53.28 42.48L58.90 44.35C61.34 40.32 64.30 34.06 66.74 28.51ZM39.96 41.76C38.74 37.94 35.64 31.82 32.76 27.22L27.36 29.59C30.10 34.34 33.05 40.68 34.20 44.64ZM26.50 60.41L25.56 54.22L18.07 56.23L18.07 43.34L24.98 43.34L24.98 37.15L18.07 37.15L18.07 23.18L11.66 23.18L11.66 37.15L3.67 37.15L3.67 43.34L11.66 43.34L11.66 57.96C8.28 58.82 5.11 59.69 2.59 60.26L4.32 66.74L11.66 64.66L11.66 81.86C11.66 82.80 11.30 83.09 10.44 83.09C9.72 83.16 7.27 83.16 4.68 83.02C5.54 84.67 6.34 87.41 6.48 88.92C10.80 88.99 13.54 88.78 15.48 87.77C17.35 86.76 18.07 85.10 18.07 81.86L18.07 62.86ZM68.69 62.71L50.18 62.71L50.18 52.78L66.24 52.78L66.24 46.58L50.18 46.58L50.18 23.18L43.56 23.18L43.56 46.58L28.94 46.58L28.94 52.78L43.56 52.78L43.56 62.71L25.20 62.71L25.20 68.90L43.56 68.90L43.56 89.21L50.18 89.21L50.18 68.90L68.69 68.90Z"/></svg>
