<svg xmlns="http://www.w3.org/2000/svg" xmlns:xlink="http://www.w3.org/1999/xlink" width="72.00000000000001" height="106.56000000000002"><path fill="red" stroke="red" d="M24.98 58.68L23.76 52.63C21.74 53.42 19.66 54.14 17.71 54.94L17.71 43.34L24.26 43.34L24.26 37.15L17.71 37.15L17.71 23.26L11.59 23.26L11.59 37.15L3.10 37.15L3.10 43.34L11.59 43.34L11.59 57.10C8.06 58.39 4.82 59.47 2.23 60.26L3.89 66.67C6.26 65.88 8.86 64.87 11.59 63.79L11.59 81.79C11.59 82.80 11.23 83.02 10.30 83.02C9.50 83.09 6.84 83.09 3.96 83.02C4.82 84.74 5.62 87.62 5.76 89.21C10.37 89.21 13.18 88.99 15.12 87.91C17.06 86.90 17.71 85.10 17.71 81.79L17.71 61.49ZM35.71 44.50C34.20 40.68 31.68 35.78 29.09 32.04L24.05 34.78C27.00 39.38 30.10 45.58 31.18 49.68L35.71 47.09L35.71 55.01L35.71 56.95C30.38 60.55 25.06 64.15 21.46 66.24L24.98 71.86C28.08 69.62 31.68 66.89 35.21 64.22C33.98 72.43 30.46 79.27 20.66 84.24C22.18 85.25 24.34 87.55 25.34 88.99C39.96 81.29 41.83 69.26 41.83 55.08L41.83 23.83L35.71 23.83ZM56.30 82.44C54.65 82.44 54.36 81.94 54.36 78.84L54.36 60.12C58.54 64.01 62.78 68.62 65.16 71.64L69.48 66.89C66.60 63.36 60.91 57.96 56.02 53.93L54.36 55.66L54.36 47.09L58.97 49.61C61.70 45.65 65.09 39.53 68.04 34.34L62.06 31.25C60.26 36.07 56.95 42.77 54.36 46.87L54.36 23.83L48.02 23.83L48.02 78.77C48.02 86.47 49.61 88.49 55.37 88.49L62.28 88.49C67.39 88.49 68.90 84.96 69.55 75.31C67.75 74.95 65.30 73.73 63.86 72.65C63.65 80.35 63.36 82.44 61.78 82.44Z"/></svg>
