<svg xmlns="http://www.w3.org/2000/svg" xmlns:xlink="http://www.w3.org/1999/xlink" width="72.00000000000001" height="106.56000000000002"><path fill="red" stroke="red" d="M57.02 42.98L28.66 42.98L28.66 48.02L63.22 48.02L63.22 38.81L66.74 38.81L66.74 34.20L63.22 34.20L63.22 25.34L29.38 25.34L29.38 30.38L57.02 30.38L57.02 34.20L26.64 34.20L26.64 38.81L57.02 38.81ZM23.54 53.42L17.71 55.22L17.71 43.34L24.91 43.34L24.91 37.08L17.71 37.08L17.71 23.26L11.59 23.26L11.59 37.15L3.24 37.15L3.24 43.34L11.59 43.34L11.59 57.02C8.06 58.03 4.82 58.90 2.23 59.54L3.74 66.02L11.59 63.65L11.59 81.79C11.59 82.80 11.23 83.02 10.30 83.02C9.50 83.09 6.84 83.09 3.96 83.02C4.82 84.74 5.62 87.62 5.76 89.21C10.37 89.21 13.18 88.99 15.12 87.91C17.06 86.90 17.71 85.10 17.71 81.79L17.71 61.63C19.94 60.98 22.25 60.26 24.41 59.54ZM61.70 62.64L49.10 62.64L49.10 56.59L61.70 56.59ZM30.74 62.64L30.74 56.59L43.13 56.59L43.13 62.64ZM67.82 51.26L24.84 51.26L24.84 64.94L29.59 64.94L29.59 84.17L35.57 84.17L35.57 67.90L43.13 67.90L43.13 89.14L49.10 89.14L49.10 67.90L57.60 67.90L57.60 78.34C57.60 78.98 57.46 79.20 56.74 79.20C56.02 79.27 53.86 79.27 51.34 79.20C52.06 80.71 52.78 82.94 52.92 84.53C56.74 84.53 59.26 84.53 61.13 83.59C63.07 82.73 63.43 81.14 63.43 78.41L63.43 64.87L67.82 64.87Z"/></svg>
