<svg xmlns="http://www.w3.org/2000/svg" xmlns:xlink="http://www.w3.org/1999/xlink" width="72.00000000000001" height="106.56000000000002"><path fill="red" stroke="red" d="M53.57 67.75L53.57 59.33L59.33 59.33L59.33 67.75ZM42.91 67.75L42.91 59.33L48.53 59.33L48.53 67.75ZM32.33 67.75L32.33 59.33L37.87 59.33L37.87 67.75ZM65.30 53.86L26.42 53.86L26.42 89.21L32.33 89.21L32.33 73.30L37.87 73.30L37.87 87.48L42.91 87.48L42.91 73.30L48.53 73.30L48.53 87.41L53.57 87.41L53.57 73.30L59.33 73.30L59.33 82.94C59.33 83.59 59.18 83.74 58.61 83.74L55.01 83.74C55.73 85.32 56.38 87.84 56.52 89.42C59.54 89.42 61.70 89.35 63.36 88.42C64.94 87.34 65.30 85.68 65.30 83.02ZM36.00 42.91C39.38 40.03 42.70 36.86 45.43 33.48C47.88 36.94 50.90 40.18 54.14 42.91ZM45.22 22.82C40.90 30.24 32.83 37.80 24.48 42.34L24.48 37.51L17.28 37.51L17.28 23.11L11.09 23.11L11.09 37.51L2.81 37.51L2.81 43.70L11.09 43.70L11.09 57.67C7.99 58.54 5.11 59.40 2.66 59.98L4.25 66.38L11.09 64.30L11.09 81.79C11.09 82.80 10.73 83.02 9.79 83.02C9.00 83.09 6.34 83.09 3.46 83.02C4.32 84.74 5.11 87.62 5.33 89.21C9.86 89.21 12.74 89.06 14.69 87.91C16.56 86.98 17.28 85.10 17.28 81.72L17.28 62.28C19.80 61.49 22.39 60.77 24.84 59.90L23.90 53.78L17.28 55.87L17.28 43.70L21.82 43.70C21.31 43.99 20.88 44.21 20.38 44.35C21.89 46.01 23.62 48.74 24.55 50.62C27.36 49.18 30.31 47.23 33.12 45.14L33.12 48.60L57.96 48.60L57.96 45.86C60.26 47.45 62.64 48.82 65.16 49.90C66.24 48.02 68.47 45.29 69.98 43.85C61.92 41.11 53.86 34.92 49.25 28.44C49.68 27.72 50.18 27.07 50.62 26.35Z"/></svg>
