<svg xmlns="http://www.w3.org/2000/svg" xmlns:xlink="http://www.w3.org/1999/xlink" width="72.00000000000001" height="106.56000000000002"><path fill="red" stroke="red" d="M24.26 60.34L23.40 54.22L17.35 55.94L17.35 43.34L23.83 43.34L23.83 37.15L17.35 37.15L17.35 23.26L11.23 23.26L11.23 37.15L3.24 37.15L3.24 43.34L11.23 43.34L11.23 57.82C7.85 58.75 4.75 59.62 2.23 60.26L3.74 66.74L11.23 64.37L11.23 81.14C11.23 82.15 10.87 82.44 9.94 82.44C9.14 82.44 6.48 82.44 3.60 82.37C4.46 84.10 5.26 86.98 5.47 88.56C9.94 88.56 12.82 88.34 14.76 87.26C16.70 86.26 17.35 84.46 17.35 81.14L17.35 62.50ZM60.12 31.68L60.12 39.24L32.54 39.24L32.54 31.68ZM66.38 44.86L66.38 26.14L26.35 26.14L26.35 48.24C26.35 59.40 25.85 74.88 19.87 85.61C21.38 86.26 24.05 88.20 25.13 89.28C31.54 77.83 32.54 60.19 32.54 48.24L32.54 44.86ZM61.27 69.26L61.27 81.14L53.06 81.14L53.06 65.66L65.74 65.66L65.74 49.46L60.26 49.46L60.26 60.34L53.06 60.34L53.06 46.87L47.52 46.87L47.52 60.34L40.75 60.34L40.75 49.54L35.50 49.54L35.50 65.66L47.52 65.66L47.52 81.14L39.82 81.14L39.82 69.26L34.42 69.26L34.42 86.47L61.27 86.47L61.27 88.78L66.74 88.78L66.74 69.26Z"/></svg>
