<svg xmlns="http://www.w3.org/2000/svg" xmlns:xlink="http://www.w3.org/1999/xlink" width="72.00000000000001" height="106.56000000000002"><path fill="red" stroke="red" d="M31.39 36.79L38.66 36.79C38.16 45.79 36.29 50.26 25.99 52.70C27.14 53.86 28.73 56.09 29.23 57.53C41.47 54.29 44.06 48.10 44.71 36.79L49.68 36.79L49.68 47.81C49.68 53.57 51.05 55.73 56.95 55.73L63.94 55.73C65.74 55.73 67.54 55.66 68.54 55.22C68.33 53.93 68.18 51.55 68.04 49.97C66.96 50.26 65.09 50.33 63.86 50.33L57.17 50.33C55.94 50.33 55.66 49.68 55.66 47.88L55.66 36.79L62.35 36.79L62.35 43.56L68.47 43.56L68.47 31.18L50.62 31.18C49.61 28.58 47.95 25.27 46.51 22.61L40.32 24.55C41.33 26.50 42.48 29.02 43.34 31.18L25.56 31.18L25.56 43.92L31.39 43.92ZM25.92 61.85L24.84 55.80L17.71 57.96L17.71 43.42L24.34 43.42L24.34 37.30L17.71 37.30L17.71 23.18L11.59 23.18L11.59 37.30L3.31 37.30L3.31 43.42L11.59 43.42L11.59 59.69C8.14 60.70 5.04 61.63 2.52 62.28L3.82 68.83L11.59 66.31L11.59 81.79C11.59 82.80 11.23 83.02 10.30 83.02C9.50 83.09 6.84 83.09 3.96 83.02C4.82 84.74 5.62 87.62 5.76 89.21C10.37 89.21 13.18 88.99 15.12 87.91C17.06 86.90 17.71 85.10 17.71 81.79L17.71 64.44ZM49.75 81.07L49.75 67.54L65.52 67.54L65.52 61.49L28.22 61.49L28.22 67.54L43.13 67.54L43.13 81.07L23.83 81.07L23.83 87.19L69.05 87.19L69.05 81.07Z"/></svg>
