<svg xmlns="http://www.w3.org/2000/svg" xmlns:xlink="http://www.w3.org/1999/xlink" width="72.00000000000001" height="106.56000000000002"><path fill="red" stroke="red" d="M57.67 34.70L37.37 34.70L37.37 29.95L57.67 29.95ZM57.67 43.92L37.37 43.92L37.37 39.10L57.67 39.10ZM63.94 25.27L31.25 25.27L31.25 48.60L63.94 48.60ZM25.20 54.22L19.01 55.94L19.01 43.27L25.63 43.27L25.63 37.08L19.01 37.08L19.01 23.18L12.60 23.18L12.60 37.08L3.46 37.08L3.46 43.27L12.60 43.27L12.60 57.67C8.64 58.75 5.04 59.69 2.16 60.34L3.60 66.89L12.60 64.30L12.60 81.36C12.60 82.37 12.24 82.73 11.30 82.73C10.37 82.73 7.42 82.73 4.39 82.66C5.26 84.53 6.12 87.41 6.34 89.14C11.09 89.14 14.18 88.92 16.27 87.84C18.29 86.76 19.01 84.89 19.01 81.36L19.01 62.35C21.31 61.63 23.69 60.91 25.99 60.19ZM69.12 58.03L69.12 52.49L26.57 52.49L26.57 58.03L34.99 58.03C31.82 63.22 27.36 67.82 22.61 70.85C23.90 71.78 26.06 73.73 27.00 74.66C29.59 72.72 32.11 70.34 34.49 67.68L39.53 67.68C35.64 74.02 29.95 79.49 23.76 83.30C25.06 84.17 27.14 86.11 28.08 87.19C34.78 82.51 41.33 75.67 45.72 67.68L50.76 67.68C47.81 75.02 43.27 81.43 37.73 85.68C39.10 86.47 41.40 88.20 42.41 89.14C48.24 84.10 53.42 76.46 56.66 67.68L60.48 67.68C59.76 77.76 58.97 81.72 57.96 82.94C57.38 83.59 56.74 83.74 55.73 83.74C54.72 83.74 52.13 83.66 49.39 83.38C50.33 84.89 50.98 87.34 51.05 89.06C54.07 89.14 56.95 89.14 58.61 88.99C60.48 88.78 61.78 88.27 62.93 86.90C64.80 84.82 65.74 79.13 66.53 64.87C66.67 64.08 66.74 62.42 66.74 62.42L38.52 62.42C39.53 60.98 40.39 59.54 41.18 58.03Z"/></svg>
