<svg xmlns="http://www.w3.org/2000/svg" xmlns:xlink="http://www.w3.org/1999/xlink" width="72.00000000000001" height="106.56000000000002"><path fill="red" stroke="red" d="M32.47 31.32L61.20 31.32L61.20 37.22L67.25 37.22L67.25 25.99L26.64 25.99L26.64 37.22L32.47 37.22ZM24.26 53.21L17.71 55.15L17.71 43.27L24.91 43.27L24.91 37.08L17.71 37.08L17.71 23.18L11.59 23.18L11.59 37.08L3.24 37.08L3.24 43.27L11.59 43.27L11.59 56.95C8.06 57.96 4.82 58.90 2.23 59.54L3.74 66.02C6.12 65.23 8.78 64.44 11.59 63.58L11.59 81.79C11.59 82.80 11.23 83.02 10.30 83.02C9.50 83.09 6.84 83.09 3.96 83.02C4.82 84.74 5.62 87.62 5.76 89.21C10.37 89.21 13.18 88.99 15.12 87.98C17.06 86.90 17.71 85.10 17.71 81.79L17.71 61.70C20.16 60.91 22.68 60.12 25.13 59.33ZM34.99 65.81L34.99 61.27L43.63 61.27L43.63 65.81ZM34.99 52.63L43.63 52.63L43.63 57.02L34.99 57.02ZM58.82 52.63L58.82 57.02L49.82 57.02L49.82 52.63ZM58.82 65.81L49.82 65.81L49.82 61.27L58.82 61.27ZM68.83 74.38L49.82 74.38L49.82 70.42L64.94 70.42L64.94 48.02L49.82 48.02L49.82 43.99L65.95 43.99L65.95 38.74L49.82 38.74L49.82 33.19L43.63 33.19L43.63 38.74L28.15 38.74L28.15 43.99L43.63 43.99L43.63 48.02L29.16 48.02L29.16 70.42L43.63 70.42L43.63 74.38L24.26 74.38L24.26 79.92L43.63 79.92L43.63 89.28L49.82 89.28L49.82 79.92L68.83 79.92Z"/></svg>
