<svg xmlns="http://www.w3.org/2000/svg" xmlns:xlink="http://www.w3.org/1999/xlink" width="72.00000000000001" height="106.56000000000002"><path fill="red" stroke="red" d="M39.38 55.37L39.38 65.52L35.14 65.52L35.14 55.37ZM48.96 55.37L48.96 65.52L44.57 65.52L44.57 55.37ZM58.54 55.37L58.54 65.52L54.14 65.52L54.14 55.37ZM29.88 49.54L22.97 49.54L22.97 55.37L29.88 55.37L29.88 65.52L23.98 65.52L23.98 71.28L68.62 71.28L68.62 65.52L63.79 65.52L63.79 55.37L69.05 55.37L69.05 49.54L63.79 49.54L63.79 40.97L58.54 40.97L58.54 49.54L54.14 49.54L54.14 40.97L48.96 40.97L48.96 49.54L44.57 49.54L44.57 40.97L39.38 40.97L39.38 49.54L35.14 49.54L35.14 40.90L30.82 40.90C31.39 40.03 31.97 39.24 32.47 38.38L68.04 38.38L68.04 32.54L35.86 32.54C37.15 30.02 38.23 27.43 39.24 24.84L33.55 23.18C31.03 30.46 26.78 37.51 22.03 42.19C23.26 43.34 25.42 45.58 26.28 46.73C27.50 45.36 28.66 43.92 29.88 42.26ZM23.11 59.83L21.96 53.78L16.78 55.58L16.78 43.34L21.89 43.34L21.89 37.15L16.78 37.15L16.78 23.18L10.73 23.18L10.73 37.15L3.60 37.15L3.60 43.34L10.73 43.34L10.73 57.82C7.78 58.82 5.04 59.69 2.74 60.41L4.46 66.82L10.73 64.51L10.73 81.07C10.73 82.01 10.37 82.22 9.50 82.22C8.78 82.30 6.26 82.30 3.60 82.22C4.46 83.95 5.26 86.76 5.40 88.42C9.65 88.42 12.38 88.20 14.33 87.12C16.20 86.11 16.78 84.31 16.78 81.07L16.78 62.28ZM27.22 89.14C29.45 85.39 31.82 79.92 33.34 75.89L28.30 73.58C26.86 77.54 24.34 83.02 21.89 86.40ZM37.30 74.66C37.80 79.13 38.30 85.03 38.38 88.42L44.42 87.62C44.21 84.38 43.56 78.62 42.84 74.23ZM47.59 74.81C48.96 79.27 50.40 85.18 51.12 88.63L56.88 87.41C56.16 84.10 54.50 78.26 53.14 73.94ZM58.25 75.02C60.34 79.49 62.71 85.46 63.86 88.92L69.70 86.90C68.54 83.52 65.88 77.76 63.72 73.44Z"/></svg>
