<svg xmlns="http://www.w3.org/2000/svg" xmlns:xlink="http://www.w3.org/1999/xlink" width="72.00000000000001" height="106.56000000000002"><path fill="red" stroke="red" d="M48.82 81.43L48.82 75.53L58.46 75.53L58.46 81.43ZM34.34 75.53L43.20 75.53L43.20 81.43L34.34 81.43ZM43.13 60.26L32.62 60.26C36.65 57.53 40.32 54.00 43.13 50.18ZM49.18 60.26L49.18 50.33C53.57 53.35 58.46 57.10 62.06 60.26ZM43.20 65.52L43.20 70.63L34.34 70.63L34.34 65.52ZM58.46 70.63L48.82 70.63L48.82 65.52L58.46 65.52ZM69.12 59.04C65.88 55.87 59.98 51.48 54.50 47.81L67.97 47.81L67.97 42.26L58.68 42.26C60.12 39.38 61.85 35.78 63.29 32.47L57.53 30.82C56.45 34.20 54.50 39.02 52.78 42.26L49.18 42.26L49.18 30.82C55.08 30.17 60.70 29.38 65.16 28.37L61.56 23.47C52.99 25.42 38.16 26.71 25.78 27.36C26.42 28.66 27.07 30.82 27.22 32.26C32.26 32.11 37.73 31.82 43.13 31.39L43.13 42.26L34.63 42.26L39.67 40.54C38.81 38.38 36.94 34.78 35.50 32.18L30.17 33.84C31.54 36.43 33.19 40.03 33.98 42.26L25.20 42.26L25.20 47.81L38.09 47.81C34.70 51.84 29.74 55.51 24.62 57.96L23.76 52.99L17.71 55.15L17.71 43.34L24.91 43.34L24.91 37.15L17.71 37.15L17.71 23.18L11.59 23.18L11.59 37.15L3.24 37.15L3.24 43.34L11.59 43.34L11.59 57.31C8.06 58.46 4.75 59.54 2.16 60.34L3.46 66.82C5.98 65.95 8.71 64.94 11.59 63.94L11.59 81.79C11.59 82.80 11.23 83.02 10.30 83.02C9.50 83.09 6.84 83.09 3.96 83.02C4.82 84.74 5.62 87.62 5.76 89.21C10.37 89.21 13.18 88.99 15.12 87.91C17.06 86.90 17.71 85.10 17.71 81.79L17.71 61.63L23.04 59.69C24.26 60.91 25.63 62.57 26.35 63.79C27.00 63.50 27.72 63.14 28.44 62.78L28.44 89.21L34.34 89.21L34.34 86.40L58.46 86.40L58.46 88.85L64.66 88.85L64.66 62.71L65.23 63.22Z"/></svg>
