<svg xmlns="http://www.w3.org/2000/svg" xmlns:xlink="http://www.w3.org/1999/xlink" width="72.00000000000001" height="106.56000000000002"><path fill="red" stroke="red" d="M43.85 50.83L47.38 49.54C46.80 47.59 45.58 44.64 44.14 42.48L39.31 43.99C40.46 46.08 41.69 48.82 42.19 50.83L35.50 50.83L35.50 55.51L48.02 55.51L48.02 59.47L37.30 59.47L37.30 64.15L48.02 64.15L48.02 68.47L35.14 68.47L35.14 73.15L48.02 73.15L48.02 81.22L54.22 81.22L54.22 73.15L66.89 73.15L66.89 68.47L54.22 68.47L54.22 64.15L64.80 64.15L64.80 59.47L54.22 59.47L54.22 55.51L66.74 55.51L66.74 50.83L58.90 50.83C60.12 48.74 61.49 46.30 62.78 43.92L58.25 42.41L66.82 42.41L66.82 37.73L54.22 37.73L54.22 32.98L65.16 32.98L65.16 28.30L54.22 28.30L54.22 23.04L48.02 23.04L48.02 28.30L37.30 28.30L37.30 32.98L48.02 32.98L48.02 37.73L35.14 37.73L35.14 42.41L57.31 42.41C56.38 44.93 55.01 48.31 53.57 50.83ZM32.90 35.14C31.97 32.04 30.38 27.29 29.09 23.47L23.90 24.98C25.06 28.80 26.71 33.91 27.50 37.01ZM20.09 54.43L15.98 55.87L15.98 43.34L20.30 43.34L20.30 37.15L15.98 37.15L15.98 23.11L10.15 23.11L10.15 37.15L3.67 37.15L3.67 43.34L10.15 43.34L10.15 57.96C7.42 58.90 4.82 59.76 2.81 60.34L4.54 66.82L10.15 64.66L10.15 81.65C10.15 82.58 9.79 82.80 9.07 82.80C8.35 82.87 5.90 82.87 3.38 82.73C4.18 84.46 4.82 87.05 5.04 88.63C9.14 88.63 11.74 88.42 13.61 87.41C15.34 86.40 15.98 84.67 15.98 81.65L15.98 62.50C17.78 61.78 19.51 61.13 21.24 60.41ZM33.19 55.73L32.26 56.02L29.66 56.02C31.18 51.05 32.76 45.14 34.20 40.03L21.38 40.03L21.38 46.08L27.00 46.08C25.49 51.62 23.76 57.53 22.32 61.78L29.16 61.78C28.15 67.25 26.35 73.22 24.41 77.26C22.68 78.77 20.95 81.00 19.15 83.59L23.40 89.06C25.06 84.89 27.29 80.21 28.73 80.21C30.17 80.21 32.33 82.44 34.99 84.31C39.10 87.05 43.78 88.20 50.47 88.20C55.44 88.20 63.22 87.91 66.96 87.62C67.10 86.04 67.90 83.09 68.47 81.50C63.29 82.15 55.73 82.58 50.62 82.58C44.35 82.58 39.82 81.72 36.00 79.13C33.62 77.47 32.04 75.96 30.53 75.38C32.76 69.91 34.56 63.14 35.57 56.88Z"/></svg>
