<svg xmlns="http://www.w3.org/2000/svg" xmlns:xlink="http://www.w3.org/1999/xlink" width="72.00000000000001" height="106.56000000000002"><path fill="red" stroke="red" d="M48.96 32.40C48.31 33.84 47.52 35.50 46.87 36.72L34.63 36.72C35.64 35.35 36.65 33.84 37.51 32.40ZM33.41 41.54L42.12 41.54C41.40 45.43 39.46 47.59 33.41 48.74ZM53.21 41.54L53.21 45.36C53.21 49.46 54.00 51.55 58.39 51.55L64.01 51.55C65.30 51.55 67.03 51.55 67.75 51.19C67.61 49.82 67.61 48.46 67.46 47.09C66.60 47.30 64.73 47.38 63.79 47.38L59.98 47.38C58.82 47.38 58.75 46.87 58.75 45.43L58.75 41.54L67.75 41.54L67.75 36.72L53.21 36.72C54.58 34.63 55.80 32.33 56.81 30.24L52.63 27.50L51.62 27.79L40.10 27.79C40.68 26.50 41.26 25.34 41.76 24.05L35.64 23.04C33.70 28.15 30.10 34.20 24.98 39.17L24.98 37.15L17.71 37.15L17.71 23.18L11.59 23.18L11.59 37.15L3.24 37.15L3.24 43.34L11.59 43.34L11.59 57.02C8.06 58.03 4.82 58.90 2.23 59.54L3.74 66.02L11.59 63.65L11.59 81.79C11.59 82.80 11.23 83.02 10.30 83.02C9.50 83.09 6.84 83.09 3.96 83.02C4.82 84.74 5.62 87.62 5.76 89.21C10.37 89.21 13.18 88.99 15.12 87.91C17.06 86.90 17.71 85.10 17.71 81.79L17.71 61.63C20.16 60.91 22.68 60.12 25.13 59.33L24.34 53.28L17.71 55.15L17.71 43.34L23.11 43.34C24.19 44.28 25.20 45.29 25.78 46.15C26.42 45.65 27.00 45.14 27.58 44.64L27.58 51.34C27.58 61.34 26.93 75.67 20.59 85.97C22.10 86.47 24.77 88.06 25.78 89.06C32.26 78.19 33.41 62.14 33.41 51.34L33.41 50.11C34.20 51.12 34.92 52.27 35.14 53.21C44.21 51.41 47.02 47.81 47.81 41.54ZM59.69 78.98L59.69 82.80L41.76 82.80L41.76 78.98ZM35.86 89.21L41.76 89.21L41.76 86.54L59.69 86.54L59.69 89.06L65.81 89.06L65.81 75.31L35.86 75.31ZM36.50 72.43L65.23 72.43L65.23 68.62L36.50 68.62ZM65.23 62.21L36.50 62.21L36.50 65.95L65.23 65.95ZM53.86 55.37C53.14 53.57 51.98 51.12 51.05 49.32L45.86 50.90C46.51 52.27 47.16 53.86 47.74 55.37L33.55 55.37L33.55 59.47L68.47 59.47L68.47 55.37Z"/></svg>
