<svg xmlns="http://www.w3.org/2000/svg" xmlns:xlink="http://www.w3.org/1999/xlink" width="72.00000000000001" height="106.56000000000002"><path fill="red" stroke="red" d="M30.96 38.45L39.38 38.45L39.38 40.82L30.96 40.82ZM30.96 33.26L39.38 33.26L39.38 35.57L30.96 35.57ZM30.96 28.15L39.38 28.15L39.38 30.38L30.96 30.38ZM46.87 53.21L35.14 53.21L35.14 50.98L46.87 50.98ZM46.87 58.82L35.14 58.82L35.14 56.45L46.87 56.45ZM46.87 64.66L35.14 64.66L35.14 61.99L46.87 61.99ZM52.63 38.45L60.70 38.45L60.70 40.82L52.63 40.82ZM52.63 33.26L60.70 33.26L60.70 35.57L52.63 35.57ZM52.63 28.15L60.70 28.15L60.70 30.38L52.63 30.38ZM29.02 70.20L35.14 70.20L35.14 68.47L66.46 68.47L66.46 64.66L52.85 64.66L52.85 61.99L63.65 61.99L63.65 58.82L52.85 58.82L52.85 56.45L63.50 56.45L63.50 53.21L52.85 53.21L52.85 50.98L65.66 50.98L65.66 47.16L52.13 47.16C51.62 46.08 50.90 44.86 50.18 43.70L65.88 43.70L65.88 25.27L47.66 25.27L47.66 43.20L44.14 44.21C44.71 45.07 45.22 46.15 45.72 47.16L37.01 47.16C37.51 46.22 38.02 45.36 38.38 44.42L35.78 43.70L44.42 43.70L44.42 25.27L26.06 25.27L26.06 43.70L32.62 43.70C30.38 48.10 26.86 52.27 22.97 55.15C24.19 56.09 26.28 58.10 27.14 59.18C27.79 58.68 28.37 58.10 29.02 57.46ZM23.76 59.54L22.68 53.50L16.70 55.66L16.70 43.34L22.97 43.34L22.97 37.15L16.70 37.15L16.70 23.18L10.87 23.18L10.87 37.15L3.60 37.15L3.60 43.34L10.87 43.34L10.87 57.74C7.85 58.82 5.04 59.69 2.74 60.41L4.54 66.82L10.87 64.44L10.87 81.72C10.87 82.66 10.51 82.87 9.65 82.94C8.93 82.94 6.41 83.02 3.74 82.87C4.54 84.60 5.33 87.26 5.54 88.85C9.65 88.85 12.38 88.63 14.33 87.62C16.06 86.62 16.70 84.89 16.70 81.72L16.70 62.28ZM55.58 75.46C52.85 77.47 49.39 79.13 45.43 80.50C41.18 79.13 37.58 77.47 34.99 75.46ZM61.49 70.70L60.48 70.92L26.42 70.92L26.42 75.46L31.46 75.46L28.94 76.46C31.25 78.77 34.27 80.71 37.66 82.44C32.69 83.38 27.36 83.95 22.10 84.31C23.04 85.54 24.12 87.77 24.55 89.28C31.82 88.56 39.02 87.41 45.36 85.46C51.62 87.41 58.68 88.63 66.10 89.28C66.82 87.70 68.26 85.46 69.48 84.17C63.86 83.88 58.39 83.23 53.35 82.37C58.32 79.92 62.42 76.75 65.16 72.58Z"/></svg>
