<svg xmlns="http://www.w3.org/2000/svg" xmlns:xlink="http://www.w3.org/1999/xlink" width="72.00000000000001" height="106.56000000000002"><path fill="red" stroke="red" d="M19.73 42.91L26.71 42.91L26.71 36.72L19.73 36.72L19.73 23.18L13.54 23.18L13.54 36.72L3.60 36.72L3.60 42.91L12.96 42.91C10.87 52.20 6.62 63.00 2.09 68.69C3.24 70.42 4.75 73.44 5.47 75.31C8.42 70.99 11.30 64.30 13.54 57.17L13.54 89.14L19.73 89.14L19.73 54.00C21.46 57.31 23.18 60.91 24.05 63.14L28.15 58.54C27.00 56.52 21.74 48.31 19.73 45.65ZM58.32 79.78L36.36 79.78L36.36 64.73L58.32 64.73ZM68.76 44.78L68.76 38.30L50.90 38.30L50.90 23.04L43.92 23.04L43.92 38.30L28.15 38.30L28.15 44.78L43.92 44.78L43.92 58.39L29.74 58.39L29.74 89.14L36.36 89.14L36.36 86.11L58.32 86.11L58.32 88.85L65.23 88.85L65.23 58.39L50.90 58.39L50.90 44.78Z"/></svg>
