<svg xmlns="http://www.w3.org/2000/svg" xmlns:xlink="http://www.w3.org/1999/xlink" width="72.00000000000001" height="106.56000000000002"><path fill="red" stroke="red" d="M57.82 69.91L57.82 80.50L36.50 80.50L36.50 69.91ZM30.31 89.21L36.50 89.21L36.50 86.26L57.82 86.26L57.82 88.92L64.30 88.92L64.30 64.08L30.31 64.08ZM56.52 43.99C56.38 46.80 56.09 50.11 55.80 53.06L43.06 53.06C43.63 50.40 44.28 47.23 44.86 43.99ZM62.28 53.06C62.78 48.46 63.14 43.13 63.36 38.38L58.54 38.02L57.46 38.30L45.94 38.30C46.37 36.07 46.80 33.77 47.16 31.68L66.96 31.68L66.96 25.99L27.94 25.99L27.94 31.68L40.39 31.68C40.03 33.77 39.67 36.07 39.31 38.30L29.74 38.30L29.74 43.99L38.23 43.99C37.73 47.23 37.08 50.40 36.43 53.06L26.28 53.06L26.28 54.07C24.62 51.70 20.74 47.02 19.22 45.58L19.22 42.84L27.43 42.84L27.43 36.65L19.22 36.65L19.22 23.18L13.18 23.18L13.18 36.65L3.60 36.65L3.60 42.84L12.67 42.84C10.66 51.91 6.55 62.50 2.16 68.26C3.31 69.98 4.82 72.94 5.47 74.88C8.28 70.70 11.02 64.30 13.18 57.38L13.18 89.14L19.22 89.14L19.22 52.92C20.74 55.37 22.25 58.03 23.04 59.69L26.28 55.66L26.28 58.90L68.90 58.90L68.90 53.06Z"/></svg>
