<svg xmlns="http://www.w3.org/2000/svg" xmlns:xlink="http://www.w3.org/1999/xlink" width="72.00000000000001" height="106.56000000000002"><path fill="red" stroke="red" d="M33.19 40.61L24.91 40.61L24.91 45.94L47.23 45.94L47.23 40.61L39.02 40.61L39.02 35.35L48.82 35.35L48.82 29.88L39.02 29.88L39.02 23.11L33.19 23.11L33.19 29.88L23.62 29.88L23.62 35.35L33.19 35.35ZM40.97 60.91L31.03 60.91L31.03 54.00L40.97 54.00ZM46.66 49.25L25.63 49.25L25.63 65.74L46.66 65.74ZM34.34 77.83C34.06 75.17 32.69 70.63 31.32 67.10L26.21 68.47C27.43 72.00 28.58 76.68 28.87 79.49ZM24.70 60.26C23.69 58.32 19.30 50.54 17.57 47.81L17.57 44.42L23.62 44.42L23.62 38.30L17.57 38.30L17.57 23.11L11.66 23.11L11.66 38.30L3.82 38.30L3.82 44.42L11.38 44.42C9.65 53.64 6.12 64.51 2.38 70.42C3.31 71.71 4.75 74.16 5.33 75.82C7.70 71.93 9.86 65.95 11.66 59.54L11.66 89.14L17.57 89.14L17.57 55.58C19.08 58.97 20.74 62.78 21.53 65.02ZM42.77 78.98C44.06 75.89 45.36 71.86 46.73 68.26L40.61 66.82C39.82 70.56 38.16 76.03 36.86 79.49L37.66 79.70C31.68 80.64 26.06 81.43 21.82 81.94L23.40 87.77C30.67 86.54 40.61 84.96 49.97 83.38L49.68 77.90ZM57.74 68.33C57.24 63.86 55.44 56.52 53.50 50.76L48.53 52.20C50.40 57.96 51.98 65.59 52.42 70.20ZM69.12 38.95L64.87 38.95L64.87 23.33L58.68 23.33L58.68 38.95L48.82 38.95L48.82 45.07L58.68 45.07L58.68 81.79C58.68 82.73 58.39 83.02 57.46 83.09C56.52 83.16 53.71 83.16 50.76 83.02C51.62 84.74 52.49 87.62 52.70 89.21C57.17 89.21 60.19 88.99 62.21 87.98C64.15 86.90 64.87 85.10 64.87 81.72L64.87 45.07L69.12 45.07Z"/></svg>
