<svg xmlns="http://www.w3.org/2000/svg" xmlns:xlink="http://www.w3.org/1999/xlink" width="72.00000000000001" height="106.56000000000002"><path fill="red" stroke="red" d="M68.40 29.02L49.97 29.02C49.39 27.07 48.24 24.55 46.94 22.75L40.68 24.26C41.47 25.70 42.34 27.36 42.84 29.02L24.26 29.02L24.26 34.20L68.40 34.20ZM51.05 49.68L40.97 49.68L40.97 46.66L51.05 46.66ZM55.73 43.49L36.50 43.49L36.50 52.85L55.73 52.85ZM59.90 55.30L32.62 55.30L32.62 40.90L59.90 40.90ZM65.81 36.79L27.00 36.79L27.00 59.40L65.81 59.40ZM35.21 72.72L57.02 72.72L57.02 76.10L35.21 76.10ZM35.21 65.81L57.02 65.81L57.02 69.12L35.21 69.12ZM63.43 79.92L63.43 61.99L28.94 61.99L28.94 79.92ZM24.77 58.46C23.76 56.59 19.01 48.46 17.35 46.01L17.35 43.99L23.69 43.99L23.69 37.94L17.35 37.94L17.35 23.11L11.45 23.11L11.45 37.94L3.82 37.94L3.82 43.99L11.30 43.99C9.72 53.28 6.19 64.22 2.52 70.49C3.53 71.93 5.04 74.45 5.76 76.25C7.85 72.72 9.79 67.68 11.45 62.28L11.45 89.21L17.35 89.21L17.35 55.08C18.86 58.32 20.38 61.78 21.17 63.94ZM22.10 82.66L22.10 87.77L69.12 87.77L69.12 82.66Z"/></svg>
