<svg xmlns="http://www.w3.org/2000/svg" xmlns:xlink="http://www.w3.org/1999/xlink" width="72.00000000000001" height="106.56000000000002"><path fill="red" stroke="red" d="M62.06 40.03C61.34 44.71 60.34 49.61 59.40 52.92L64.73 54.50C66.38 49.61 68.11 41.76 69.26 35.06L64.73 33.84L63.79 34.13L48.96 34.13C49.82 30.89 50.47 27.50 50.98 24.12L44.64 23.04C43.13 33.55 40.10 43.85 35.64 50.33C37.08 51.19 39.96 52.78 41.18 53.78C43.63 50.11 45.65 45.36 47.30 40.03ZM19.44 69.05L19.44 75.17L11.95 75.17L11.95 69.05ZM24.70 79.99L24.70 64.22L6.48 64.22L6.48 82.87L11.95 82.87L11.95 79.99ZM55.37 43.92L49.32 43.92L49.32 49.03C49.32 58.82 48.17 73.58 35.06 84.60C35.14 84.02 35.14 83.45 35.14 82.80L35.14 60.41L41.76 60.41L41.76 54.65L34.78 54.65L34.78 32.04L39.60 32.04L39.60 26.35L3.67 26.35L3.67 32.04L28.80 32.04L28.80 54.65L2.88 54.65L2.88 60.41L29.23 60.41L29.23 82.73C29.23 83.52 28.94 83.81 28.01 83.81C27.22 83.88 24.19 83.88 21.17 83.74C21.89 85.18 22.75 87.19 23.04 88.63C27.58 88.63 30.53 88.63 32.54 87.77C34.06 87.26 34.78 86.33 34.99 84.74C36.43 85.82 38.38 87.98 39.31 89.50C46.73 83.09 50.76 75.60 52.92 68.40C55.80 76.90 59.90 83.30 66.46 89.21C67.32 87.41 69.12 85.39 70.78 84.17C62.06 76.97 57.89 68.69 55.22 54.79C55.30 52.78 55.37 50.90 55.37 49.10ZM19.01 46.22L11.88 46.22L11.88 40.10L19.01 40.10ZM6.91 35.50L6.91 50.76L24.19 50.76L24.19 35.50Z"/></svg>
