<svg xmlns="http://www.w3.org/2000/svg" xmlns:xlink="http://www.w3.org/1999/xlink" width="72.00000000000001" height="106.56000000000002"><path fill="red" stroke="red" d="M32.54 55.37L39.31 55.37L39.31 36.29C40.75 34.99 41.98 33.77 43.20 32.40L66.38 32.40L66.38 26.35L5.69 26.35L5.69 32.40L34.20 32.40C26.50 39.24 15.26 44.86 4.18 48.31C5.62 49.46 8.06 52.20 9.14 53.64C16.99 50.69 25.34 46.66 32.54 41.62ZM40.32 41.33C48.17 44.50 57.96 49.68 63.14 53.35L67.68 48.67C62.28 45.22 52.56 40.25 44.78 37.22ZM39.60 81.79L39.60 75.02L61.63 75.02L61.63 69.34L39.60 69.34L39.60 63.14L65.59 63.14L65.59 57.38L6.77 57.38L6.77 63.14L32.83 63.14L32.83 81.79L20.95 81.79L20.95 66.60L14.47 66.60L14.47 81.79L3.67 81.79L3.67 87.70L68.54 87.70L68.54 81.79Z"/></svg>
