<svg xmlns="http://www.w3.org/2000/svg" xmlns:xlink="http://www.w3.org/1999/xlink" width="72.00000000000001" height="106.56000000000002"><path fill="red" stroke="red" d="M68.98 38.59C67.68 35.28 64.94 30.38 62.35 26.71L57.67 28.66C60.12 32.40 62.78 37.58 63.94 40.82ZM39.02 33.55C38.09 32.62 36.43 31.39 34.78 30.31C35.35 28.30 35.78 26.28 36.14 24.12L31.03 23.33C30.17 29.59 28.22 35.28 24.55 39.02C25.85 39.67 28.01 41.11 28.87 41.83C30.60 39.89 32.11 37.44 33.34 34.63C34.56 35.57 35.64 36.58 36.36 37.30ZM18.50 47.66C18.07 51.62 17.57 55.30 16.92 58.75C14.98 57.02 12.53 55.15 10.08 53.71C10.80 51.77 11.45 49.75 12.02 47.66ZM20.88 41.54L19.94 41.62L13.46 41.62C14.11 38.66 14.69 35.57 15.12 32.40L25.06 32.40L25.06 26.35L3.38 26.35L3.38 32.40L9.86 32.40C8.50 42.70 6.12 52.34 2.02 58.90C3.10 60.05 4.68 62.71 5.18 63.94C6.19 62.35 7.20 60.55 8.06 58.68C10.80 60.62 13.46 63.00 15.34 64.94C12.60 74.30 8.42 80.93 2.74 85.25C3.89 86.04 5.76 87.98 6.62 89.21C16.34 81.50 22.25 66.38 24.12 42.26ZM50.18 77.33L45.29 77.90L45.29 73.73L50.76 73.73L50.76 69.34L45.29 69.34L45.29 65.38L50.33 65.38L50.33 61.06L45.29 61.06L45.29 57.10L50.54 57.10L50.54 52.70L45.29 52.70L45.29 48.74L51.98 48.74C52.34 59.33 53.06 68.18 54.36 74.95C53.14 77.04 51.70 78.98 50.26 80.64ZM37.15 48.74L40.46 48.74L40.46 78.41L37.15 78.77ZM51.70 39.10L51.77 43.20L39.38 43.20C41.18 41.40 42.70 39.10 44.06 36.58C46.01 38.59 47.88 40.82 48.89 42.41ZM62.71 52.49C61.78 57.38 60.41 61.85 58.82 66.02C58.32 61.13 57.96 55.30 57.74 48.74L68.62 48.74L68.62 43.20L57.53 43.20C57.46 37.08 57.38 30.38 57.46 23.33L51.48 23.33C51.55 28.51 51.55 33.62 51.70 38.30C50.33 36.50 48.17 34.20 46.01 32.11C46.80 29.66 47.52 26.93 48.02 24.05L43.06 23.40C41.98 30.31 39.53 36.22 35.21 40.10C36.43 40.82 38.30 42.34 39.24 43.20L25.13 43.20L25.13 48.74L32.33 48.74L32.33 52.63L26.50 52.63L26.50 57.02L32.33 57.02L32.33 61.06L26.78 61.06L26.78 65.38L32.33 65.38L32.33 69.34L26.35 69.34L26.35 73.73L32.33 73.73L32.33 79.27L23.26 80.06L23.98 85.32C30.74 84.53 39.82 83.45 48.74 82.37C47.23 83.88 45.65 85.32 43.92 86.62C45.14 87.41 46.73 88.85 47.52 89.86C50.62 87.48 53.42 84.67 56.02 81.29C57.82 86.33 60.26 89.14 63.72 89.28C66.10 89.35 68.62 86.98 70.20 78.19C69.26 77.40 67.03 75.60 66.17 74.02C65.81 78.84 65.02 81.86 64.01 81.86C62.42 81.72 61.20 79.27 60.19 74.88C63.36 69.12 65.88 62.42 67.46 54.79Z"/></svg>
