<svg xmlns="http://www.w3.org/2000/svg" xmlns:xlink="http://www.w3.org/1999/xlink" width="72.00000000000001" height="106.56000000000002"><path fill="red" stroke="red" d="M28.44 38.52C33.12 40.97 38.88 44.78 41.62 47.52L45.72 43.06C42.84 40.39 37.01 36.72 32.33 34.49ZM44.28 66.38C41.33 63.22 35.06 59.18 30.02 56.66L25.85 60.62C30.96 63.36 37.01 67.68 39.82 70.85ZM16.70 71.42C17.50 66.46 18.36 60.77 19.30 54.79L53.21 54.79C52.70 61.78 52.20 67.25 51.62 71.42ZM54.36 32.62C54.07 38.52 53.86 43.85 53.57 48.60L20.16 48.60C20.88 43.27 21.67 37.73 22.32 32.62ZM67.90 54.79L67.90 48.60L60.34 48.60C60.62 43.27 60.91 37.15 61.20 30.17C61.27 29.16 61.27 26.50 61.27 26.50L16.06 26.50C15.34 33.26 14.40 40.90 13.32 48.60L4.18 48.60L4.18 54.79L12.38 54.79C11.09 63.36 9.72 71.42 8.42 77.54L50.62 77.54C50.04 79.85 49.39 81.29 48.74 82.01C47.88 83.09 47.02 83.38 45.58 83.38C43.70 83.38 40.03 83.30 35.57 82.94C36.65 84.67 37.37 87.19 37.51 88.92C41.62 89.14 45.86 89.28 48.60 88.92C51.26 88.56 53.06 87.70 54.94 85.10C55.94 83.81 56.88 81.50 57.67 77.54L65.95 77.54L65.95 71.42L58.54 71.42C59.04 67.10 59.54 61.63 59.98 54.79Z"/></svg>
