<svg xmlns="http://www.w3.org/2000/svg" xmlns:xlink="http://www.w3.org/1999/xlink" width="72.00000000000001" height="106.56000000000002"><path fill="red" stroke="red" d="M25.20 64.58C23.98 75.67 20.52 81.65 3.17 84.67C4.25 85.82 5.69 87.98 6.19 89.42C15.70 87.55 21.53 84.67 25.20 80.64C32.98 83.23 42.26 86.69 47.16 89.14L50.76 84.46C45.43 82.01 35.71 78.62 28.15 76.39C29.74 73.01 30.67 69.19 31.18 64.58ZM47.95 64.44C43.27 62.28 35.21 59.54 28.44 57.89C29.81 55.44 30.53 52.56 31.03 49.25L25.13 49.25C23.90 57.89 20.30 62.35 5.11 64.66C6.26 65.74 7.56 67.97 8.06 69.34C16.78 67.75 22.18 65.38 25.63 61.85C32.40 63.79 40.39 66.67 44.71 68.76ZM8.64 53.50C10.73 55.73 13.32 58.90 14.69 60.84L18.94 57.89C17.64 56.09 14.90 53.14 12.82 50.90ZM40.46 50.47C38.95 52.70 36.22 55.94 34.20 57.96L38.23 60.05C40.39 58.25 43.13 55.58 45.72 52.92ZM37.58 78.98C40.10 76.90 43.27 73.94 46.08 71.06L40.68 68.62C38.95 71.06 35.86 74.59 33.48 76.75ZM19.30 76.32C17.93 74.45 15.05 71.57 12.89 69.34L8.78 71.86C10.94 74.09 13.75 77.33 15.05 79.27ZM12.96 43.63C15.48 40.75 17.93 37.37 20.02 33.70L66.89 33.70L66.89 29.16L22.39 29.16C23.11 27.65 23.76 26.21 24.41 24.70L17.93 23.11C14.76 31.39 9.22 39.46 2.88 44.42C4.46 45.29 7.27 47.16 8.57 48.24C9.65 47.23 10.73 46.08 11.81 44.93L11.81 48.46L50.54 48.46C51.12 71.28 52.92 88.85 63.22 88.85C67.82 88.85 69.19 85.10 69.70 75.53C68.40 74.74 66.67 73.08 65.38 71.64C65.30 78.12 64.87 82.37 63.58 82.37C58.46 82.44 57.10 63.86 56.95 43.63ZM61.56 40.61L61.56 36.50L19.80 36.50L19.80 40.61Z"/></svg>
