<svg xmlns="http://www.w3.org/2000/svg" xmlns:xlink="http://www.w3.org/1999/xlink" width="72.00000000000001" height="106.56000000000002"><path fill="red" stroke="red" d="M64.01 27.22L28.22 27.22L28.22 33.55L64.01 33.55ZM23.76 31.39C20.59 29.38 14.47 26.14 10.22 24.05L6.48 28.87C10.80 31.32 16.85 34.78 19.80 36.86ZM20.09 50.69C17.06 48.67 10.94 45.50 6.84 43.56L3.17 48.46C7.49 50.76 13.46 54.22 16.42 56.23ZM11.30 88.34C15.48 81.58 20.30 72.94 24.05 65.45L19.08 61.06C14.98 69.19 9.43 78.41 5.54 83.81ZM68.90 49.75L68.90 43.42L23.47 43.42L23.47 49.75L33.48 49.75C32.40 55.51 30.74 62.14 29.38 66.67L56.52 66.67C55.66 75.67 54.79 79.99 53.14 81.29C52.20 81.86 51.19 81.94 49.46 81.94C47.16 81.94 41.04 81.86 35.35 81.36C36.79 83.16 37.80 85.82 37.94 87.77C43.42 87.98 48.67 88.06 51.55 87.91C54.86 87.77 56.95 87.26 58.90 85.39C61.42 83.02 62.57 77.04 63.58 63.14C63.72 62.28 63.79 60.34 63.79 60.34L37.87 60.34C38.66 56.95 39.46 53.28 40.18 49.75Z"/></svg>
