<svg xmlns="http://www.w3.org/2000/svg" xmlns:xlink="http://www.w3.org/1999/xlink" width="72.00000000000001" height="106.56000000000002"><path fill="red" stroke="red" d="M23.40 30.82C20.52 28.58 14.69 25.49 10.44 23.69L6.70 28.58C11.16 30.67 16.78 33.98 19.51 36.29ZM19.58 50.62C16.56 48.46 10.66 45.36 6.26 43.56L2.74 48.60C7.20 50.69 13.03 53.93 15.84 56.23ZM18.14 61.27C14.18 69.34 8.86 78.55 5.11 83.95L10.94 88.34C14.98 81.58 19.58 73.01 23.18 65.59ZM68.62 56.81L68.62 50.26L47.95 50.26C48.02 48.96 48.02 47.74 48.02 46.51L48.02 33.48C54.50 32.33 60.62 30.89 65.59 29.02L59.98 23.83C51.91 27.14 37.08 29.45 24.34 30.67C25.13 32.04 25.99 34.63 26.28 36.22C31.03 35.78 36.07 35.28 41.11 34.49L41.11 46.44C41.11 47.66 41.11 48.89 41.04 50.26L22.25 50.26L22.25 56.81L40.46 56.81C39.02 65.95 34.49 76.39 20.23 84.53C21.96 85.68 24.26 87.98 25.27 89.42C37.15 82.01 42.84 72.94 45.65 64.30C49.54 75.67 55.51 84.31 64.87 89.28C65.88 87.48 67.90 85.03 69.41 83.74C59.26 79.13 52.92 69.12 49.68 56.81Z"/></svg>
