<svg xmlns="http://www.w3.org/2000/svg" xmlns:xlink="http://www.w3.org/1999/xlink" width="72.00000000000001" height="106.56000000000002"><path fill="red" stroke="red" d="M52.49 34.20C48.89 31.25 41.76 26.50 36.86 23.26L32.83 27.94C37.94 31.46 44.86 36.58 48.31 39.60ZM24.70 68.62C27.43 62.78 29.16 53.06 30.17 45.79L24.48 44.35C23.54 51.70 21.60 60.62 18.79 66.53ZM23.11 31.18C20.38 28.73 14.83 25.63 10.51 23.76L6.84 28.66C11.23 30.74 16.63 34.13 19.15 36.72ZM19.37 50.33C16.56 47.95 10.80 44.93 6.48 43.20L2.81 48.31C7.27 50.18 12.89 53.42 15.48 55.87ZM13.32 61.70C10.58 69.84 6.91 78.98 4.10 84.53L10.51 87.98C13.39 81.29 16.56 72.86 19.01 65.30ZM43.92 81.94C40.68 81.94 40.10 81.36 40.10 78.19L40.10 73.44C46.22 66.74 51.48 58.97 56.02 50.18C58.90 56.59 61.78 64.73 62.78 70.06L69.34 68.11C68.04 62.50 64.94 54.00 61.70 47.52L56.66 48.89C59.69 42.70 62.35 36.07 64.66 29.02L58.18 27.43C53.86 41.26 47.95 53.28 40.10 63.29L40.10 39.38L33.41 39.38L33.41 70.85C28.73 75.53 23.54 79.56 17.71 82.94C19.22 84.10 21.82 86.62 22.75 87.98C26.57 85.61 30.10 82.94 33.48 79.99C33.84 86.33 36.14 88.20 43.20 88.20L54.94 88.20C61.99 88.20 63.79 84.67 64.58 73.44C62.78 73.01 59.98 71.86 58.46 70.70C58.03 79.99 57.53 81.94 54.43 81.94Z"/></svg>
