<svg xmlns="http://www.w3.org/2000/svg" xmlns:xlink="http://www.w3.org/1999/xlink" width="72.00000000000001" height="106.56000000000002"><path fill="red" stroke="red" d="M24.26 31.32C21.24 29.16 15.12 25.99 10.73 24.05L6.98 28.87C11.52 31.10 17.50 34.56 20.38 36.86ZM20.09 50.83C17.06 48.67 11.09 45.58 6.77 43.70L3.17 48.60C7.63 50.83 13.54 54.14 16.42 56.38ZM18.72 61.27C14.54 69.34 9.00 78.62 5.18 83.95L10.80 88.49C15.05 81.72 19.80 73.15 23.62 65.66ZM49.68 80.64L49.68 63.94L64.80 63.94L64.80 57.53L49.68 57.53L49.68 42.98L67.32 42.98L67.32 36.65L45.14 36.65L51.48 34.27C50.40 31.18 47.81 26.42 45.50 22.82L39.38 24.98C41.62 28.66 43.99 33.55 44.93 36.65L24.62 36.65L24.62 42.98L42.70 42.98L42.70 57.53L27.36 57.53L27.36 63.94L42.70 63.94L42.70 80.64L22.39 80.64L22.39 87.05L69.12 87.05L69.12 80.64Z"/></svg>
