<svg xmlns="http://www.w3.org/2000/svg" xmlns:xlink="http://www.w3.org/1999/xlink" width="72.00000000000001" height="106.56000000000002"><path fill="red" stroke="red" d="M23.76 31.39C20.66 29.38 14.54 26.14 10.37 24.12L6.62 28.87C10.87 31.25 16.85 34.70 19.80 36.79ZM20.09 50.69C17.06 48.74 10.94 45.58 6.84 43.56L3.17 48.53C7.49 50.76 13.46 54.22 16.42 56.23ZM10.22 88.27C14.47 81.58 19.30 72.94 22.97 65.52L18.14 61.06C13.97 69.19 8.42 78.41 4.61 83.81ZM58.25 80.06L34.42 80.06L34.42 67.10L58.25 67.10ZM68.83 50.40L68.83 43.99L49.75 43.99L49.75 32.69C55.73 31.61 61.34 30.24 65.95 28.51L60.70 23.33C52.78 26.28 38.81 28.58 26.50 29.88C27.29 31.39 28.15 33.91 28.44 35.50C33.19 35.14 38.38 34.56 43.42 33.77L43.42 43.99L23.40 43.99L23.40 50.40L43.42 50.40L43.42 61.06L28.30 61.06L28.30 89.14L34.42 89.14L34.42 86.11L58.25 86.11L58.25 88.78L64.58 88.78L64.58 61.06L49.75 61.06L49.75 50.40Z"/></svg>
