<svg xmlns="http://www.w3.org/2000/svg" xmlns:xlink="http://www.w3.org/1999/xlink" width="72.00000000000001" height="106.56000000000002"><path fill="red" stroke="red" d="M68.40 40.25C65.02 35.78 57.96 28.80 52.92 23.83L47.59 27.29C52.85 32.47 59.62 39.74 62.78 44.28ZM35.50 23.90C31.97 30.17 26.35 36.86 21.02 41.11C22.61 42.12 25.27 44.14 26.57 45.29C31.75 40.46 37.80 32.98 41.90 26.06ZM23.83 32.33C20.95 29.95 15.05 26.35 11.02 23.98L6.98 28.58C11.16 31.18 16.92 35.06 19.66 37.58ZM19.44 50.54C16.63 48.60 10.94 45.58 6.91 43.56L3.24 48.46C7.34 50.62 12.96 53.93 15.62 56.09ZM11.52 87.98C14.76 81.86 18.29 74.30 21.24 67.68L15.98 63.58C12.74 70.78 8.64 78.84 5.62 83.81ZM28.73 62.06C34.70 57.74 39.82 52.42 43.92 46.08C48.46 52.92 53.42 57.82 59.40 62.06ZM33.62 80.35L33.62 68.04L54.72 68.04L54.72 80.35ZM42.26 35.64C37.51 46.51 28.51 55.58 18.00 60.55C19.66 62.06 21.60 64.30 22.46 66.02C24.05 65.16 25.56 64.22 27.07 63.29L27.07 89.21L33.62 89.21L33.62 86.33L54.72 86.33L54.72 88.70L61.56 88.70L61.56 63.58C63.00 64.44 64.37 65.38 65.88 66.24C66.82 64.30 68.69 62.06 70.34 60.62C60.91 55.94 53.28 50.04 47.23 40.18C47.66 39.38 48.02 38.66 48.38 37.80Z"/></svg>
