<svg xmlns="http://www.w3.org/2000/svg" xmlns:xlink="http://www.w3.org/1999/xlink" width="72.00000000000001" height="106.56000000000002"><path fill="red" stroke="red" d="M29.74 36.50L61.13 36.50L61.13 43.56L67.39 43.56L67.39 31.03L50.11 31.03C49.18 28.58 47.52 25.20 46.01 22.61L39.82 24.48C40.90 26.42 42.05 28.94 42.91 31.03L23.76 31.03L23.76 43.56L29.74 43.56ZM48.67 42.26C53.21 46.01 59.11 51.41 61.85 54.79L66.74 51.05C63.79 47.66 57.89 42.55 53.28 39.02ZM35.93 39.17C32.83 43.63 27.79 48.17 22.75 51.05C24.19 52.13 26.50 54.36 27.58 55.58C32.54 52.13 38.30 46.58 41.90 41.26ZM22.39 31.82C19.51 29.52 13.90 26.28 9.72 24.26L5.98 29.16C10.15 31.46 15.77 34.92 18.43 37.15ZM19.87 50.47C16.85 48.38 10.80 45.29 6.48 43.34L2.81 48.46C7.27 50.62 13.18 53.93 16.06 56.23ZM32.90 65.95C37.44 62.78 41.54 59.18 45.00 55.30C48.74 58.97 53.57 62.78 58.54 65.95ZM35.14 80.93L35.14 71.42L54.94 71.42L54.94 80.93ZM43.27 46.73C38.81 53.86 30.46 61.13 21.31 65.95L21.46 65.52L16.20 61.56C12.74 69.77 8.21 78.91 4.97 84.53L11.02 88.34C14.33 81.94 18.22 73.73 21.10 66.38C22.39 67.46 24.34 69.55 25.20 70.70C26.57 70.06 27.79 69.26 29.09 68.47L29.09 89.21L35.14 89.21L35.14 86.47L54.94 86.47L54.94 88.99L61.27 88.99L61.27 67.61C63.07 68.62 64.73 69.62 66.46 70.34C66.89 68.69 68.18 65.88 69.26 64.22C62.14 61.34 53.50 56.09 48.46 50.83C48.89 50.26 49.18 49.68 49.61 49.03Z"/></svg>
