<svg xmlns="http://www.w3.org/2000/svg" xmlns:xlink="http://www.w3.org/1999/xlink" width="72.00000000000001" height="106.56000000000002"><path fill="red" stroke="red" d="M9.43 87.91C12.46 81.29 15.91 72.65 18.50 65.09L13.54 61.78C10.66 69.91 6.70 79.06 3.74 84.67ZM17.64 49.97C15.26 47.74 10.51 45.07 6.77 43.42L2.95 47.95C6.77 49.82 11.45 52.78 13.68 55.01ZM4.97 28.22C8.50 30.17 12.82 33.34 14.83 35.57L18.94 30.67C16.85 28.51 12.46 25.63 8.86 23.83ZM41.18 66.02C39.60 71.50 36.86 77.04 33.41 80.93C34.78 81.58 37.15 83.02 38.09 83.88C41.47 79.78 44.57 73.44 46.51 67.25ZM67.39 61.85L67.39 56.38L55.01 56.38L55.01 49.10L63.65 49.10L63.65 43.70L40.39 43.70C44.57 40.75 48.60 37.01 52.06 32.76C56.16 37.66 60.55 41.54 65.66 45.07C66.60 43.34 68.47 41.33 70.06 39.96C64.51 36.94 59.54 33.26 55.37 28.22C56.09 27.14 56.74 26.14 57.31 24.98L51.91 22.97C48.17 29.74 41.26 36.36 34.27 40.32C35.35 35.86 36.43 31.25 37.30 27.36L33.34 25.13L32.47 25.34L19.58 25.34L19.58 89.28L25.06 89.28L25.06 30.67L30.89 30.67C29.95 35.93 28.51 43.34 27.14 48.74C30.60 54.58 31.18 59.69 31.18 63.65C31.18 65.88 30.89 67.97 30.17 68.69C29.74 69.12 29.16 69.34 28.58 69.34C27.94 69.34 27.07 69.34 26.06 69.26C26.93 70.85 27.29 73.15 27.36 74.66C28.58 74.66 29.88 74.66 30.89 74.52C32.18 74.38 33.19 73.87 34.06 73.22C35.78 71.78 36.50 68.62 36.50 64.37C36.50 59.76 35.78 54.36 32.26 48.24C32.76 46.15 33.41 43.70 34.06 41.26C35.42 42.41 36.86 44.14 37.80 45.36C38.52 44.93 39.24 44.42 40.03 43.92L40.03 49.10L49.32 49.10L49.32 56.38L37.01 56.38L37.01 61.85L49.32 61.85L49.32 82.66C49.32 83.52 49.03 83.66 48.24 83.74C47.52 83.74 45.14 83.74 42.55 83.66C43.34 85.18 44.21 87.62 44.42 89.14C48.24 89.14 50.83 89.06 52.70 88.06C54.43 87.19 55.01 85.54 55.01 82.73L55.01 61.85ZM57.02 67.39C59.83 72.50 62.78 79.34 63.86 83.59L69.12 81.43C67.90 77.26 64.80 70.63 61.92 65.52Z"/></svg>
