<svg xmlns="http://www.w3.org/2000/svg" xmlns:xlink="http://www.w3.org/1999/xlink" width="72.00000000000001" height="106.56000000000002"><path fill="red" stroke="red" d="M52.20 39.02L58.68 39.02L58.68 34.13L68.40 34.13L68.40 28.58L58.68 28.58L58.68 23.18L52.20 23.18L52.20 28.58L46.66 28.58L46.66 34.13L52.20 34.13ZM32.04 39.02L38.38 39.02L38.38 34.13L44.71 34.13L44.71 28.58L38.38 28.58L38.38 23.18L32.04 23.18L32.04 28.58L22.97 28.58L22.97 34.13L32.04 34.13ZM21.67 32.62C19.08 30.31 13.54 26.71 9.86 24.12L6.05 28.87C9.86 31.61 15.26 35.57 17.78 37.94ZM19.01 50.98C16.06 48.96 10.08 45.65 6.05 43.27L2.74 48.46C6.91 50.90 12.74 54.58 15.70 56.81ZM15.98 61.42C12.31 69.55 7.49 78.77 4.10 84.31L9.65 88.34C13.39 81.58 17.57 72.94 20.81 65.45ZM32.40 53.93L57.46 53.93L57.46 58.18L32.40 58.18ZM32.40 45.14L57.46 45.14L57.46 49.32L32.40 49.32ZM68.26 73.80L68.26 68.18L47.45 68.18C47.81 66.53 48.10 64.87 48.31 63.00L63.94 63.00L63.94 40.25L26.21 40.25L26.21 63.00L41.54 63.00C41.33 64.87 41.11 66.53 40.75 68.18L21.82 68.18L21.82 73.80L38.52 73.80C35.71 78.62 30.38 81.94 19.58 83.88C20.81 85.18 22.39 87.70 22.97 89.35C36.65 86.33 42.77 81.29 45.79 73.80L50.33 73.80L46.37 77.98C52.49 81.29 60.91 86.11 65.09 89.06L69.26 84.24C64.87 81.36 56.52 76.82 50.54 73.80Z"/></svg>
