<svg xmlns="http://www.w3.org/2000/svg" xmlns:xlink="http://www.w3.org/1999/xlink" width="72.00000000000001" height="106.56000000000002"><path fill="red" stroke="red" d="M21.96 33.48C19.66 30.74 14.69 26.86 10.94 24.34L6.77 28.22C10.58 31.03 15.34 35.14 17.57 37.80ZM18.79 51.19C16.13 48.82 10.87 45.50 6.84 43.27L3.10 47.59C7.13 49.97 12.31 53.57 14.83 56.02ZM16.56 62.14C13.10 69.91 8.57 78.62 5.26 83.88L10.94 87.77C14.47 81.36 18.50 73.22 21.53 66.02ZM46.58 81.00C52.92 83.16 61.20 86.83 65.38 89.28L68.40 84.17C64.08 81.79 55.66 78.41 49.54 76.46ZM30.89 53.78L30.89 48.96L41.40 48.96L41.40 53.78ZM58.18 48.96L58.18 53.78L47.81 53.78L47.81 48.96ZM36.94 33.12L51.77 33.12L51.77 37.15L36.94 37.15ZM47.02 71.14C47.30 69.77 47.52 68.47 47.66 67.03L65.59 67.03L65.59 61.92L47.81 61.92L47.81 58.32L64.51 58.32L64.51 44.42L47.81 44.42L47.81 41.62L58.46 41.62L58.46 33.12L67.25 33.12L67.25 27.86L58.46 27.86L58.46 22.97L51.77 22.97L51.77 27.86L36.94 27.86L36.94 22.97L30.53 22.97L30.53 27.86L22.10 27.86L22.10 33.12L30.53 33.12L30.53 41.62L41.40 41.62L41.40 44.42L24.84 44.42L24.84 58.32L41.40 58.32L41.40 61.92L24.41 61.92L24.41 67.03L41.26 67.03C41.04 68.47 40.82 69.77 40.39 71.14L21.24 71.14L21.24 76.25L37.51 76.25C34.49 79.70 29.38 82.51 20.45 84.31C21.82 85.54 23.47 88.06 24.26 89.42C36.00 86.62 42.12 81.86 45.14 76.25L68.47 76.25L68.47 71.14Z"/></svg>
