<svg xmlns="http://www.w3.org/2000/svg" xmlns:xlink="http://www.w3.org/1999/xlink" width="72.00000000000001" height="106.56000000000002"><path fill="red" stroke="red" d="M44.71 48.74C43.56 45.72 41.11 40.97 38.88 37.44L34.27 39.31C34.85 40.54 35.64 41.90 36.36 43.27L27.79 44.28C29.59 41.54 31.25 38.38 32.90 35.06L45.29 35.06L45.29 29.66L35.42 29.66C36.14 27.94 36.79 26.35 37.44 24.62L30.89 23.26C30.31 25.34 29.59 27.65 28.80 29.66L20.09 29.66L20.09 35.06L26.42 35.06C25.20 37.87 24.05 40.10 23.54 40.97C22.25 43.13 21.17 44.57 20.02 44.86C20.66 46.44 21.67 49.32 21.96 50.62C23.33 49.97 25.42 49.68 38.52 47.81C39.10 48.96 39.53 50.04 39.89 50.98ZM20.02 33.19C17.71 30.89 13.25 27.00 10.01 24.34L5.90 28.37C9.14 31.25 13.54 35.35 15.70 37.80ZM17.06 50.98C14.76 48.67 10.01 45.07 6.70 42.55L2.66 46.73C6.05 49.46 10.58 53.28 12.89 55.73ZM13.75 60.77C11.02 69.41 7.06 79.13 4.25 85.10L10.30 88.49C13.39 81.43 16.70 72.36 19.22 64.37ZM37.08 66.02L37.08 70.42C33.34 72.14 29.81 73.66 27.00 74.74C27.43 71.21 27.58 67.82 27.58 64.87C29.95 66.24 32.62 67.97 34.06 69.41ZM37.08 58.25L37.08 65.23C35.42 63.79 32.47 62.21 30.10 61.13L27.58 63.79L27.58 58.25ZM42.55 53.21L22.32 53.21L22.32 64.80C22.32 71.06 21.89 79.63 18.14 85.97C19.37 86.69 21.53 88.49 22.39 89.57C24.70 85.75 26.06 81.00 26.71 76.32L28.44 79.92C31.18 78.70 34.13 77.26 37.08 75.74L37.08 82.87C37.08 83.52 36.86 83.74 36.22 83.74C35.50 83.81 33.77 83.81 31.61 83.74C32.33 85.18 33.05 87.62 33.26 89.14C36.58 89.14 38.88 89.06 40.54 88.06C42.19 87.12 42.55 85.54 42.55 82.94ZM60.62 42.48C59.90 50.40 58.82 57.46 56.95 63.72C55.01 57.38 53.86 50.62 53.14 44.42C53.35 43.85 53.50 43.13 53.64 42.48ZM69.34 42.48L69.34 36.65L55.01 36.65C55.80 32.54 56.45 28.22 57.02 23.98L51.26 23.11C50.04 34.78 47.95 46.01 43.56 53.35C44.78 54.50 46.73 57.17 47.45 58.32C48.31 56.95 49.03 55.44 49.82 53.86C50.76 59.54 52.06 65.52 54.22 71.21C51.70 76.68 48.31 81.22 43.70 84.82C44.86 85.90 46.87 88.27 47.59 89.57C51.48 86.26 54.58 82.30 57.10 77.83C59.40 82.22 62.35 86.18 66.02 89.21C66.89 87.70 68.76 85.25 69.91 84.10C65.66 81.00 62.50 76.61 60.05 71.64C63.29 63.50 65.23 53.78 66.38 42.48Z"/></svg>
