<svg xmlns="http://www.w3.org/2000/svg" xmlns:xlink="http://www.w3.org/1999/xlink" width="72.00000000000001" height="106.56000000000002"><path fill="red" stroke="red" d="M21.60 30.82C19.15 28.44 13.97 25.49 9.94 23.69L6.12 28.44C10.22 30.53 15.26 33.77 17.57 36.14ZM18.50 49.54C15.91 47.23 10.66 44.50 6.48 42.84L2.74 47.81C6.98 49.61 12.10 52.70 14.54 55.01ZM10.30 88.27C13.54 81.50 17.14 73.01 19.94 65.45L14.54 61.78C11.52 69.91 7.27 79.06 4.32 84.67ZM56.95 81.65C55.73 79.13 53.06 75.31 50.54 72.65L46.01 74.74C46.66 75.53 47.38 76.39 48.02 77.33L42.84 77.69L42.84 72.58L54.43 72.58L54.43 58.18L42.84 58.18L42.84 53.28L37.15 53.28L37.15 58.18L27.00 58.18C28.37 56.59 29.66 54.86 30.96 53.06L60.77 53.06C60.26 74.02 59.76 81.29 58.61 82.94C58.03 83.88 57.46 84.10 56.45 84.10C55.73 84.10 54.36 84.10 52.70 83.95ZM42.84 62.57L48.89 62.57L48.89 68.18L42.84 68.18ZM31.25 68.18L31.25 62.57L37.15 62.57L37.15 68.18ZM29.59 30.82L36.00 30.82L36.00 37.51L29.59 37.51ZM41.18 30.82L47.74 30.82L47.74 37.51L41.18 37.51ZM52.85 30.82L59.54 30.82L59.54 37.51L52.85 37.51ZM66.96 47.38L34.49 47.38C35.35 45.86 36.14 44.28 36.79 42.70L65.81 42.70L65.81 25.49L23.69 25.49L23.69 42.70L29.74 42.70C26.86 48.74 22.39 54.43 17.50 58.25C19.01 59.26 21.53 61.49 22.61 62.64C23.76 61.63 24.91 60.48 26.06 59.26L26.06 72.58L37.15 72.58L37.15 78.05C31.68 78.34 26.64 78.62 22.68 78.84L23.40 84.46C30.82 83.81 41.04 82.94 51.05 82.08C51.41 82.73 51.77 83.30 51.98 83.88L50.26 83.74C51.12 85.18 51.77 87.48 51.84 88.99C54.94 89.21 57.82 89.14 59.62 88.92C61.56 88.63 62.93 88.13 64.08 86.33C65.95 83.74 66.46 75.31 66.96 50.18Z"/></svg>
