<svg xmlns="http://www.w3.org/2000/svg" xmlns:xlink="http://www.w3.org/1999/xlink" width="72.00000000000001" height="106.56000000000002"><path fill="red" stroke="red" d="M68.40 25.34L45.43 25.34L45.43 30.02L68.40 30.02ZM43.20 25.34L20.45 25.34L20.45 30.02L43.20 30.02ZM18.50 32.40C16.42 29.95 12.02 26.35 8.50 23.98L4.54 27.65C8.06 30.24 12.38 33.98 14.33 36.58ZM16.70 50.83C14.33 48.74 9.72 45.72 6.19 43.78L2.59 47.66C6.19 49.82 10.66 53.06 12.96 55.22ZM12.89 62.64C10.01 70.56 6.26 79.49 3.38 84.89L3.46 84.89L8.78 88.13C11.74 81.65 15.12 73.22 17.57 65.88ZM34.85 60.62L34.85 64.66L27.65 64.66C27.72 63.29 27.72 61.85 27.72 60.62ZM34.85 52.70L34.85 56.30L27.72 56.30L27.72 52.70ZM47.52 56.30L40.10 56.30L40.10 52.70L47.52 52.70ZM47.52 64.66L40.10 64.66L40.10 60.62L47.52 60.62ZM60.26 60.62L60.26 64.66L52.78 64.66L52.78 60.62ZM56.45 83.59C54.65 83.59 54.36 83.30 54.36 81.79L54.36 76.90L65.30 76.90L65.30 72.58L54.36 72.58L54.36 68.90L66.24 68.90L66.24 56.30L52.78 56.30L52.78 52.70L68.33 52.70L68.33 47.74L47.88 47.74C47.66 47.09 47.38 46.37 47.09 45.72L51.77 45.72L51.77 36.58L61.92 36.58L61.92 45.72L67.03 45.72L67.03 32.54L46.87 32.54L46.87 45.22C46.44 44.28 46.01 43.34 45.65 42.48L42.05 43.56L42.05 32.54L22.10 32.54L22.10 45.72L27.07 45.72L27.07 36.58L37.01 36.58L37.01 45.50L40.75 45.50C41.04 46.22 41.33 46.94 41.62 47.74L21.82 47.74L21.82 60.48C21.82 68.04 21.31 78.55 16.20 86.11C17.57 86.69 20.23 88.27 21.31 89.28C25.13 83.59 26.71 75.89 27.36 68.90L30.67 68.90L30.67 80.93C30.67 83.23 29.59 83.66 28.51 84.02C29.30 85.39 30.02 88.13 30.24 89.64C31.54 88.92 33.62 88.27 46.73 85.90C46.58 84.67 46.51 82.58 46.51 81.14L36.14 82.73L36.14 76.97L46.37 76.97L46.37 72.65L36.14 72.65L36.14 68.90L48.60 68.90L48.60 81.79C48.60 86.69 49.97 88.13 55.66 88.13L63.07 88.13C67.10 88.13 68.62 86.69 69.12 81.50C67.61 81.22 65.38 80.42 64.30 79.63C64.08 83.02 63.79 83.59 62.35 83.59ZM28.94 38.74C29.88 40.61 30.89 43.20 31.32 44.86L34.85 43.56C34.49 42.05 33.41 39.53 32.40 37.66ZM59.90 43.70C59.33 42.19 58.25 39.60 57.10 37.73L53.64 38.81C54.72 40.68 55.80 43.34 56.23 45.07Z"/></svg>
