<svg xmlns="http://www.w3.org/2000/svg" xmlns:xlink="http://www.w3.org/1999/xlink" width="72.00000000000001" height="106.56000000000002"><path fill="red" stroke="red" d="M65.66 48.17C63.14 44.93 58.46 40.10 53.93 36.29C57.31 32.90 61.27 28.94 64.37 25.13L57.53 23.11C54.94 26.64 50.11 32.04 45.65 36.43C51.34 41.40 56.66 47.02 59.26 50.90ZM54.65 70.78C57.74 66.96 61.63 61.20 64.80 55.87L57.60 53.93C55.44 58.61 51.70 64.87 48.67 68.83ZM44.64 47.09C42.48 44.06 38.16 39.46 34.13 35.78C37.30 32.47 40.90 28.66 43.78 24.91L36.94 23.11C34.49 26.50 30.17 31.68 26.14 35.86C31.18 40.61 35.93 46.01 38.23 49.68ZM24.41 48.02C22.32 44.86 18.14 40.03 14.18 36.14C17.21 32.76 20.74 28.80 23.40 24.91L16.63 23.11C14.40 26.57 10.22 31.90 6.34 36.29C11.16 41.26 15.70 46.80 17.93 50.62ZM8.78 55.87C11.38 60.98 14.69 67.75 16.13 71.78L22.75 68.76C21.10 64.87 17.57 58.25 14.83 53.35ZM31.75 50.33C30.53 67.46 28.37 78.26 3.17 83.16C4.61 84.60 6.26 87.48 6.91 89.21C24.62 85.39 32.33 78.48 35.93 68.69C40.61 80.64 48.89 87.05 65.59 89.50C66.38 87.55 68.11 84.60 69.48 83.16C49.03 81.00 41.62 72.43 38.74 55.15C38.88 53.57 39.02 51.98 39.17 50.33Z"/></svg>
