<svg xmlns="http://www.w3.org/2000/svg" xmlns:xlink="http://www.w3.org/1999/xlink" width="72.00000000000001" height="106.56000000000002"><path fill="red" stroke="red" d="M68.33 26.50L29.74 26.50L29.74 32.47L68.33 32.47ZM55.08 58.90C53.57 55.80 50.26 51.12 47.16 47.16C49.54 43.78 52.27 39.46 54.29 35.78L48.53 34.34C46.80 37.73 43.70 43.06 40.75 47.30C44.64 52.13 48.10 57.53 49.68 61.27ZM36.43 34.27C34.78 37.73 31.68 43.06 28.87 47.38C32.54 52.27 35.86 57.74 37.37 61.49L42.84 59.18C41.33 56.09 38.23 51.26 35.14 47.23C37.51 43.78 40.18 39.38 42.12 35.71ZM67.75 58.97C66.10 55.87 62.64 51.19 59.40 47.23C61.78 43.78 64.51 39.46 66.67 35.78L60.77 34.27C59.04 37.73 55.87 43.06 52.85 47.38C56.95 52.20 60.62 57.74 62.35 61.49ZM23.26 35.28C22.46 40.68 20.59 48.38 19.15 53.14L23.33 54.79C25.06 50.33 27.07 42.98 29.02 37.30ZM11.38 54.07C10.73 49.54 9.00 41.54 7.34 35.35L2.52 36.50C4.03 42.70 5.62 50.90 6.26 55.66ZM18.65 23.98L12.74 23.98L12.74 48.38C12.74 61.13 11.74 74.52 3.24 84.82C4.61 85.75 6.70 87.98 7.63 89.35C12.38 83.88 15.05 77.62 16.63 70.92C18.86 74.30 21.38 78.34 22.68 80.78L26.78 76.03C25.49 74.30 20.30 67.18 17.86 64.01C18.50 58.82 18.65 53.64 18.65 48.38ZM51.84 81.29L51.84 69.34L66.10 69.34L66.10 63.36L31.46 63.36L31.46 69.34L45.14 69.34L45.14 81.29L27.07 81.29L27.07 87.26L68.98 87.26L68.98 81.29Z"/></svg>
