<svg xmlns="http://www.w3.org/2000/svg" xmlns:xlink="http://www.w3.org/1999/xlink" width="72.00000000000001" height="106.56000000000002"><path fill="red" stroke="red" d="M54.72 35.42L38.81 35.42L38.81 29.95L54.72 29.95ZM60.91 24.98L32.98 24.98L32.98 40.39L60.91 40.39ZM21.89 35.28C21.17 40.54 19.44 48.02 17.93 52.70L22.10 54.36C23.83 50.04 25.85 42.84 27.72 37.22ZM11.09 54.07C10.44 49.61 8.71 41.69 7.06 35.42L2.52 36.50C4.03 42.70 5.62 50.83 6.26 55.66ZM25.20 76.25C24.05 74.52 19.37 67.46 16.99 64.22C17.64 59.04 17.78 53.64 17.78 48.46L17.78 23.90L12.02 23.90L12.02 48.46C12.02 61.13 11.09 74.45 2.95 84.82C4.25 85.75 6.34 87.91 7.27 89.28C11.59 83.88 14.18 77.83 15.70 71.50C17.71 74.81 19.80 78.55 20.95 80.86ZM35.28 71.71C32.26 75.82 27.65 80.42 23.47 83.45C24.84 84.46 27.14 86.54 28.15 87.62C32.33 84.17 37.44 78.62 41.11 73.73ZM39.17 54.65L32.26 54.65L32.26 48.17L39.17 48.17ZM54.22 48.17L61.42 48.17L61.42 54.65L54.22 54.65ZM68.54 70.78L68.54 65.23L49.90 65.23L49.90 59.40L67.10 59.40L67.10 43.49L48.67 43.49L48.67 58.97L44.93 58.97L44.93 43.49L26.86 43.49L26.86 59.40L43.49 59.40L43.49 65.23L25.13 65.23L25.13 70.78L43.49 70.78L43.49 89.21L49.90 89.21L49.90 70.78ZM52.20 75.17C56.66 78.84 61.99 84.10 64.37 87.55L68.90 83.52C66.31 80.14 60.91 75.17 56.45 71.71Z"/></svg>
