<svg xmlns="http://www.w3.org/2000/svg" xmlns:xlink="http://www.w3.org/1999/xlink" width="72.00000000000001" height="106.56000000000002"><path fill="red" stroke="red" d="M9.29 55.87C9.07 51.12 7.99 42.48 6.77 35.78L2.59 36.43C3.67 43.13 4.68 51.91 4.90 56.95ZM47.88 42.19L42.62 42.19L42.62 35.35L47.88 35.35ZM52.27 41.04C52.85 42.41 53.42 44.35 53.71 45.22C54.36 44.78 55.66 44.50 59.76 43.92C57.96 47.30 56.30 49.97 55.51 51.05C54.29 52.78 53.28 54.07 52.27 54.50ZM47.88 53.42L42.62 53.42L42.62 46.51L47.88 46.51ZM23.76 76.68C22.54 74.88 17.86 67.54 15.77 64.80C16.42 59.76 16.56 54.43 16.56 49.18L16.56 47.59L19.66 48.89C20.59 46.94 21.53 44.21 22.54 41.40C23.04 42.77 23.69 44.57 23.83 45.29C24.55 44.86 25.78 44.57 29.81 43.92C28.01 47.38 26.21 50.11 25.56 51.19C24.26 53.06 23.11 54.43 22.10 54.65C22.61 55.80 23.33 58.25 23.54 59.18C24.55 58.61 26.14 58.03 34.63 56.59C34.92 58.03 35.14 59.33 35.28 60.41L38.81 59.54C38.74 59.04 38.66 58.54 38.59 58.03L52.27 58.03L52.27 55.22C52.78 56.45 53.28 58.25 53.50 59.11C54.43 58.61 56.09 58.10 64.51 56.95C64.80 58.25 65.09 59.47 65.23 60.41L68.90 59.11C68.33 56.02 66.96 51.34 65.66 47.74L62.21 48.82C62.57 50.18 63.07 51.70 63.50 53.21L58.46 53.78C62.14 48.96 65.66 42.84 68.33 36.94L63.94 34.63C63.36 36.29 62.64 37.87 61.99 39.53L58.39 39.89C60.55 35.78 62.64 30.60 64.08 25.70L59.40 23.90C58.25 29.74 55.44 36.07 54.58 37.66C53.93 39.17 53.14 40.25 52.27 40.61L52.27 30.82L46.22 30.82C46.94 28.80 47.74 26.28 48.60 24.05L42.91 23.04C42.70 25.27 42.05 28.37 41.47 30.82L38.38 30.82L38.38 56.81C37.80 53.86 36.94 50.33 36.07 47.52L32.69 48.24C32.98 49.61 33.41 51.19 33.77 52.63L28.66 53.28C32.18 48.53 35.64 42.62 38.23 36.86L33.98 34.63C33.41 36.29 32.76 37.87 32.04 39.46L28.22 39.89C30.46 35.71 32.69 30.53 34.06 25.56L29.30 23.76C28.15 29.59 25.49 36.00 24.70 37.58C24.19 38.66 23.62 39.53 23.04 40.10C23.47 38.88 23.98 37.73 24.41 36.72L19.51 34.92C18.86 38.23 17.71 43.06 16.56 46.44L16.56 23.76L11.02 23.76L11.02 49.18C11.02 61.78 10.15 74.52 2.59 84.60C3.89 85.54 5.83 87.55 6.70 88.92C10.80 83.74 13.25 77.90 14.69 71.71C16.56 74.95 18.58 78.62 19.58 80.78ZM36.50 71.71C32.90 76.18 25.85 80.71 19.58 82.87C21.02 83.95 22.90 86.18 23.83 87.62C30.24 84.89 37.30 79.27 41.18 73.58ZM67.10 68.90L67.10 63.36L48.17 63.36L48.17 59.11L42.26 59.11L42.26 63.36L23.62 63.36L23.62 68.90L42.26 68.90L42.26 88.99L48.17 88.99L48.17 68.90ZM49.68 74.88C55.08 78.84 62.06 84.53 65.45 87.98L69.41 84.17C65.88 80.71 58.82 75.31 53.42 71.64Z"/></svg>
