<svg xmlns="http://www.w3.org/2000/svg" xmlns:xlink="http://www.w3.org/1999/xlink" width="72.00000000000001" height="106.56000000000002"><path fill="red" stroke="red" d="M67.68 45.14C63.65 38.95 54.79 29.81 47.81 23.40L41.98 27.07C49.10 33.84 57.60 43.34 61.27 49.46ZM23.04 23.69C18.58 31.32 11.30 39.17 4.54 44.06C6.05 45.50 8.64 48.46 9.72 49.82C16.70 44.06 24.70 34.99 29.88 26.28ZM47.59 42.84C44.93 51.05 41.18 57.89 36.22 63.50C31.25 57.89 27.43 51.19 24.77 43.56L18.07 45.50C21.38 54.43 25.56 62.28 31.10 68.76C23.62 75.24 14.11 79.85 2.45 82.87C3.89 84.46 5.98 87.70 6.84 89.42C18.43 85.82 28.15 80.78 36.00 73.87C43.49 80.86 52.92 85.90 64.66 88.92C65.81 86.90 67.82 83.81 69.55 82.15C58.03 79.63 48.74 74.95 41.33 68.54C47.02 62.14 51.48 54.29 54.79 44.86Z"/></svg>
