<svg xmlns="http://www.w3.org/2000/svg" xmlns:xlink="http://www.w3.org/1999/xlink" width="72.00000000000001" height="106.56000000000002"><path fill="red" stroke="red" d="M29.88 63.14L29.16 57.02L22.90 58.46L22.90 43.85L29.59 43.85L29.59 37.44L22.90 37.44L22.90 23.11L16.34 23.11L16.34 37.44L12.17 37.44C12.60 34.85 12.96 32.11 13.25 29.52L7.27 28.58C6.41 37.37 4.97 46.51 2.16 52.56C3.74 53.14 6.41 54.36 7.63 55.15C8.86 52.06 10.01 48.17 11.02 43.85L16.34 43.85L16.34 60.05C11.09 61.13 6.19 62.21 2.45 63.00L4.25 69.77C7.85 68.90 11.88 67.82 16.34 66.74L16.34 89.21L22.90 89.21L22.90 64.94ZM52.78 81.22L52.78 65.52L65.74 65.52L65.74 59.33L52.78 59.33L52.78 45.22L67.25 45.22L67.25 38.88L52.78 38.88L52.78 23.90L46.08 23.90L46.08 38.88L39.24 38.88C40.18 35.42 40.97 31.75 41.47 28.08L35.21 27.00C33.84 36.50 31.25 46.15 27.43 52.20C28.94 52.99 31.68 54.58 32.90 55.58C34.56 52.70 36.07 49.18 37.44 45.22L46.08 45.22L46.08 59.33L31.97 59.33L31.97 65.52L46.08 65.52L46.08 81.22L28.30 81.22L28.30 87.55L68.90 87.55L68.90 81.22Z"/></svg>
