<svg xmlns="http://www.w3.org/2000/svg" xmlns:xlink="http://www.w3.org/1999/xlink" width="72.00000000000001" height="106.56000000000002"><path fill="red" stroke="red" d="M68.54 37.73C67.75 35.14 65.59 30.96 63.65 27.86L59.33 29.66C61.20 32.83 63.22 37.15 63.94 39.82ZM38.09 33.26C37.15 30.82 35.35 27.07 33.62 24.26L28.51 26.35C30.17 29.16 31.97 33.12 32.83 35.57ZM18.22 23.98C17.06 26.42 15.70 28.94 13.97 31.32C12.46 28.73 10.58 26.14 8.28 23.47L3.74 26.71C6.55 29.88 8.64 33.12 10.08 36.43C7.70 39.31 4.97 41.83 2.09 43.92C3.46 44.93 5.33 46.80 6.26 48.02C8.42 46.44 10.37 44.57 12.31 42.62C12.96 45.14 13.39 47.66 13.68 50.26C11.23 56.30 6.55 62.86 2.23 66.38C3.60 67.68 5.18 70.13 5.98 71.64C8.86 68.98 11.74 65.09 14.18 60.91L14.18 61.13C14.18 70.06 13.75 79.34 12.24 81.36C11.74 82.01 11.16 82.30 10.30 82.37C9.07 82.51 7.27 82.51 4.90 82.37C5.83 84.10 6.34 86.47 6.41 88.42C8.86 88.56 11.30 88.42 13.10 88.06C14.76 87.77 15.98 86.98 16.85 85.75C19.58 81.86 20.16 71.35 20.16 61.20C20.16 52.78 19.66 44.93 16.85 37.44C19.37 34.20 21.60 30.67 23.33 27.07ZM46.01 35.78L21.67 35.78L21.67 41.18L46.01 41.18ZM43.34 50.98L43.34 45.65L24.05 45.65L24.05 50.98ZM43.34 55.30L24.05 55.30L24.05 60.62L43.34 60.62ZM38.09 78.55L29.45 78.55L29.45 69.70L38.09 69.70ZM68.11 47.81L68.11 42.19L58.10 42.19C58.32 36.58 58.39 30.67 58.39 24.77L52.49 24.77C52.49 30.67 52.49 36.58 52.27 42.19L45.50 42.19L45.50 47.81L52.13 47.81C51.41 61.85 49.25 74.23 43.13 82.87L43.13 64.80L24.19 64.80L24.19 87.34L29.45 87.34L29.45 83.52L42.70 83.52C42.26 84.10 41.76 84.67 41.33 85.18C42.98 85.97 45.00 87.91 46.01 89.28C51.34 83.09 54.29 74.74 56.09 65.30C57.74 75.10 60.48 83.45 65.16 88.92C66.17 87.19 68.26 84.60 69.77 83.45C63.07 76.68 60.19 62.78 58.82 47.81Z"/></svg>
