<svg xmlns="http://www.w3.org/2000/svg" xmlns:xlink="http://www.w3.org/1999/xlink" width="72.00000000000001" height="106.56000000000002"><path fill="red" stroke="red" d="M54.14 52.92L54.14 32.40L59.40 32.40L59.40 52.92ZM43.56 52.92L43.56 32.40L48.67 32.40L48.67 52.92ZM33.55 52.92L33.55 32.40L38.38 32.40L38.38 52.92ZM69.34 52.92L65.45 52.92L65.45 26.21L27.50 26.21L27.50 52.92L23.54 52.92L23.54 49.25L16.92 49.25L16.92 33.62L24.70 33.62L24.70 27.72L3.24 27.72L3.24 33.62L10.80 33.62L10.80 49.25L4.18 49.25L4.18 55.15L10.80 55.15L10.80 72.43C7.63 73.15 4.75 73.80 2.38 74.30L3.53 80.78C9.94 79.06 18.14 76.97 25.92 74.81L25.20 68.83L16.92 70.92L16.92 55.15L22.75 55.15L22.75 59.26L27.50 59.26L27.50 89.14L33.55 89.14L33.55 59.26L38.38 59.26L38.38 89.06L43.56 89.06L43.56 59.26L48.67 59.26L48.67 89.06L54.14 89.06L54.14 59.26L59.40 59.26L59.40 81.94C59.40 82.58 59.26 82.73 58.82 82.80C58.25 82.80 56.88 82.80 55.37 82.73C56.23 84.53 56.95 87.48 57.10 89.14C59.98 89.14 61.92 88.99 63.50 87.91C65.09 86.76 65.45 84.74 65.45 82.01L65.45 59.26L69.34 59.26Z"/></svg>
