<svg xmlns="http://www.w3.org/2000/svg" xmlns:xlink="http://www.w3.org/1999/xlink" width="72.00000000000001" height="106.56000000000002"><path fill="red" stroke="red" d="M68.47 32.18L62.57 32.18C62.06 29.45 61.27 25.99 60.48 23.26L54.72 23.90C55.44 26.42 56.09 29.52 56.52 32.18L48.24 32.18L48.24 37.73L68.47 37.73ZM57.10 50.11C56.95 47.02 55.87 42.19 54.50 38.59L50.04 39.74C51.26 43.49 52.27 48.38 52.34 51.48ZM23.33 32.40L17.42 32.40C16.63 29.66 15.41 26.14 14.11 23.40L8.71 24.70C9.65 27.07 10.58 29.95 11.30 32.40L3.60 32.40L3.60 37.87L23.33 37.87ZM12.02 50.11C11.95 47.02 11.09 42.34 9.86 38.81L5.33 39.89C6.55 43.56 7.34 48.31 7.27 51.34ZM22.75 69.70L22.75 64.22L16.49 64.22L16.49 57.10L23.62 57.10L23.62 51.62L18.65 51.62C19.80 48.10 21.02 43.56 22.10 39.60L16.99 38.52C16.42 42.34 15.19 47.88 14.04 51.62L3.17 51.62L3.17 57.10L10.58 57.10L10.58 64.22L3.96 64.22L3.96 69.70L10.51 69.70C10.15 75.02 8.71 81.29 3.38 85.10C4.75 86.04 6.55 88.13 7.34 89.35C13.82 84.24 15.91 76.46 16.34 69.70ZM30.31 32.90C36.43 31.68 43.06 29.81 48.02 27.72L43.42 23.54C39.31 25.63 32.11 27.86 25.70 29.16L25.70 42.77C25.70 54.72 25.20 72.72 19.94 85.90C21.02 86.33 23.18 87.77 23.98 88.70C29.45 74.88 30.31 55.22 30.31 42.77ZM37.51 69.84C38.16 72.50 38.81 75.53 39.31 78.55L34.06 79.78C37.66 68.83 37.80 56.30 37.80 47.16L37.80 35.64L33.34 35.64L33.34 47.02C33.34 57.82 33.26 72.72 27.43 83.45C28.37 84.17 30.31 85.97 30.96 86.98C31.82 86.26 33.34 85.54 40.18 83.66C40.39 85.18 40.54 86.47 40.68 87.70L44.28 86.90C43.78 82.01 42.34 74.81 40.97 69.12ZM39.74 35.42C42.48 50.90 45.00 71.35 45.72 82.66L50.04 81.36C49.18 70.27 46.51 50.26 43.56 34.63ZM69.12 57.17L69.12 51.70L63.79 51.70C64.87 48.10 66.10 43.42 67.10 39.38L61.92 38.30C61.42 42.19 60.12 47.88 59.11 51.70L48.46 51.70L48.46 57.17L56.02 57.17L56.02 65.66L49.97 65.66L49.97 71.14L56.02 71.14L56.02 89.21L61.70 89.21L61.70 71.14L68.18 71.14L68.18 65.66L61.70 65.66L61.70 57.17Z"/></svg>
