<svg xmlns="http://www.w3.org/2000/svg" xmlns:xlink="http://www.w3.org/1999/xlink" width="72.00000000000001" height="106.56000000000002"><path fill="red" stroke="red" d="M24.62 78.19L11.59 78.19L11.59 66.31L24.62 66.31ZM21.31 31.03L30.96 31.03L30.96 24.84L4.18 24.84L4.18 31.03L14.54 31.03L14.54 43.34L2.95 43.34L2.95 49.54L14.54 49.54L14.54 60.26L5.54 60.26L5.54 88.34L11.59 88.34L11.59 84.17L24.62 84.17L24.62 86.69L30.89 86.69L30.89 60.26L21.31 60.26L21.31 49.54L32.47 49.54L32.47 43.34L21.31 43.34ZM56.88 57.31L43.99 57.31L43.99 42.77L56.88 42.77ZM43.99 78.91L43.99 63.65L56.88 63.65L56.88 78.91ZM69.05 36.29L63.65 36.29L63.65 23.33L56.88 23.33L56.88 36.29L43.99 36.29L43.99 23.33L37.37 23.33L37.37 36.29L31.10 36.29L31.10 42.77L37.37 42.77L37.37 89.21L43.99 89.21L43.99 85.25L56.88 85.25L56.88 88.92L63.65 88.92L63.65 42.77L69.05 42.77Z"/></svg>
