<svg xmlns="http://www.w3.org/2000/svg" xmlns:xlink="http://www.w3.org/1999/xlink" width="72.00000000000001" height="106.56000000000002"><path fill="red" stroke="red" d="M53.71 37.01L39.17 37.01L39.17 31.46L53.71 31.46ZM53.71 47.66L39.17 47.66L39.17 42.05L53.71 42.05ZM18.00 42.05L32.62 42.05L32.62 47.66L18.00 47.66ZM18.00 31.46L32.62 31.46L32.62 37.01L18.00 37.01ZM60.41 26.21L11.59 26.21L11.59 52.99L60.41 52.99ZM59.18 64.22C55.94 66.74 50.83 69.84 46.30 72.29C43.78 69.77 41.62 66.96 39.96 63.86L67.46 63.86L67.46 57.89L4.46 57.89L4.46 63.86L14.98 63.86L14.98 77.54C14.98 80.71 12.89 82.44 11.45 83.23C12.46 84.60 13.61 87.62 13.97 89.35C15.70 88.34 18.29 87.77 37.73 83.45C37.58 82.08 37.51 79.34 37.58 77.54L21.24 80.93L21.24 63.86L33.41 63.86C39.38 76.90 49.54 85.25 65.30 88.70C66.17 86.98 67.90 84.31 69.26 83.09C61.92 81.72 55.73 79.27 50.76 75.82C55.22 73.66 60.34 70.85 64.51 68.18Z"/></svg>
