<svg xmlns="http://www.w3.org/2000/svg" xmlns:xlink="http://www.w3.org/1999/xlink" width="72.00000000000001" height="106.56000000000002"><path fill="red" stroke="red" d="M67.61 25.92L29.30 25.92L29.30 30.74L67.61 30.74ZM38.95 43.78L45.72 43.78L45.72 47.23L38.95 47.23ZM38.95 37.01L45.72 37.01L45.72 40.39L38.95 40.39ZM57.89 40.39L50.90 40.39L50.90 37.01L57.89 37.01ZM57.89 47.23L50.90 47.23L50.90 43.78L57.89 43.78ZM63.79 50.98L63.79 33.34L33.34 33.34L33.34 50.98ZM68.18 53.64L29.30 53.64L29.30 58.25L68.18 58.25ZM38.16 72.00L45.79 72.00L45.79 75.82L38.16 75.82ZM38.16 64.87L45.79 64.87L45.79 68.54L38.16 68.54ZM58.75 68.54L50.98 68.54L50.98 64.87L58.75 64.87ZM58.75 75.82L50.98 75.82L50.98 72.00L58.75 72.00ZM64.58 79.63L64.58 61.06L32.54 61.06L32.54 79.63ZM19.51 72.94L14.26 73.58L14.26 68.18L19.15 68.18L19.15 63.86L14.26 63.86L14.26 59.54L9.43 59.54L9.43 63.86L4.32 63.86L4.32 68.18L9.43 68.18L9.43 74.23C6.98 74.59 4.68 74.88 2.74 75.10L3.38 79.85C8.14 79.13 13.90 78.26 19.58 77.33ZM10.80 52.78C11.16 50.26 11.52 47.59 11.88 44.86L26.42 44.86L26.42 25.85L4.10 25.85L4.10 31.32L20.66 31.32L20.66 39.31L6.62 39.31C6.05 45.36 4.97 53.21 4.03 58.18L21.60 58.18C20.88 74.30 20.02 80.50 18.79 82.01C18.14 82.73 17.50 82.94 16.42 82.87C15.19 82.87 12.46 82.87 9.43 82.58C10.30 84.10 10.94 86.40 11.09 88.13C14.18 88.27 17.28 88.27 19.01 88.06C21.02 87.84 22.39 87.26 23.69 85.61C25.70 83.23 26.50 75.74 27.36 55.37C27.36 54.50 27.43 52.78 27.43 52.78ZM26.78 82.51L26.78 87.55L68.69 87.55L68.69 82.51Z"/></svg>
