<svg xmlns="http://www.w3.org/2000/svg" xmlns:xlink="http://www.w3.org/1999/xlink" width="72.00000000000001" height="106.56000000000002"><path fill="red" stroke="red" d="M13.25 49.39C12.60 45.86 10.22 40.39 7.85 36.22L3.02 38.45C5.26 42.84 7.49 48.46 8.14 52.06ZM50.54 72.14L39.10 72.14L39.10 66.02L50.54 66.02ZM42.12 61.85L34.56 61.85L34.56 76.32L55.30 76.32L55.30 61.85L47.30 61.85L47.30 56.88L56.95 56.88L56.95 52.56L47.30 52.56L47.30 47.30L42.12 47.30L42.12 52.56L32.47 52.56L32.47 56.88L42.12 56.88ZM59.62 45.65L59.62 79.85L29.95 79.85L29.95 45.65ZM24.12 89.06L29.95 89.06L29.95 85.18L59.62 85.18L59.62 88.63L65.66 88.63L65.66 40.32L24.12 40.32ZM45.86 29.95C45.22 27.72 44.28 24.98 43.34 22.82L36.29 24.34C36.86 25.99 37.58 28.08 38.09 29.95L13.75 29.95L13.75 52.49C13.75 54.29 13.75 56.16 13.61 58.10C9.29 60.34 5.11 62.42 2.16 63.72L4.32 69.91C7.13 68.18 10.08 66.46 13.03 64.66C12.02 71.86 9.79 79.27 4.54 85.03C5.83 85.82 8.35 88.20 9.22 89.57C18.50 79.63 20.02 63.72 20.02 52.49L20.02 35.71L68.69 35.71L68.69 29.95Z"/></svg>
