<svg xmlns="http://www.w3.org/2000/svg" xmlns:xlink="http://www.w3.org/1999/xlink" width="72.00000000000001" height="106.56000000000002"><path fill="red" stroke="red" d="M12.60 49.90C12.10 46.30 10.22 40.54 8.06 36.07L3.17 38.09C5.18 42.55 6.91 48.53 7.34 52.27ZM27.07 59.18L36.94 59.18L36.94 64.37L27.07 64.37ZM22.03 68.83L42.19 68.83L42.19 54.72L22.03 54.72ZM54.14 47.30L34.56 47.30L34.56 42.77L54.14 42.77ZM60.05 38.30L29.02 38.30L29.02 51.77L60.05 51.77ZM59.83 81.29L47.45 81.29L47.45 69.91L40.97 69.91L40.97 81.29L28.73 81.29L28.73 72.14L22.46 72.14L22.46 86.69L59.83 86.69L59.83 89.06L66.10 89.06L66.10 72.14L59.83 72.14ZM51.34 59.18L62.06 59.18L62.06 64.37L51.34 64.37ZM46.22 68.83L67.32 68.83L67.32 54.72L46.22 54.72ZM46.44 29.81C45.43 27.50 43.78 24.62 42.12 22.54L36.14 24.41C37.30 25.99 38.38 28.01 39.24 29.81L13.25 29.81L13.25 52.63C13.25 54.36 13.25 56.30 13.10 58.18C9.00 60.34 5.11 62.35 2.30 63.65L4.39 69.70C7.06 68.11 9.79 66.53 12.60 64.80C11.66 71.93 9.43 79.20 4.39 84.89C5.62 85.75 8.06 88.13 9.00 89.35C17.93 79.49 19.37 63.79 19.37 52.63L19.37 35.50L68.98 35.50L68.98 29.81Z"/></svg>
