<svg xmlns="http://www.w3.org/2000/svg" xmlns:xlink="http://www.w3.org/1999/xlink" width="72.00000000000001" height="106.56000000000002"><path fill="red" stroke="red" d="M33.19 53.86C33.19 54.94 32.83 55.22 31.61 55.30C30.31 55.30 26.14 55.37 21.74 55.15C22.68 56.81 23.76 59.33 24.05 61.06C29.95 61.13 33.91 61.06 36.58 60.12C39.24 59.26 40.10 57.60 40.10 54.07L40.10 47.45L67.32 47.45L67.32 41.47L40.10 41.47L40.10 32.54L60.34 32.54L60.34 26.71L12.02 26.71L12.02 32.54L33.19 32.54L33.19 41.47L4.82 41.47L4.82 47.45L33.19 47.45ZM17.93 68.62L25.70 68.62L25.70 81.36L17.93 81.36ZM39.82 68.62L39.82 81.36L31.90 81.36L31.90 68.62ZM53.93 68.62L53.93 81.36L45.94 81.36L45.94 68.62ZM60.62 81.36L60.62 63.29L11.52 63.29L11.52 81.36L3.53 81.36L3.53 87.19L68.54 87.19L68.54 81.36Z"/></svg>
