<svg xmlns="http://www.w3.org/2000/svg" xmlns:xlink="http://www.w3.org/1999/xlink" width="72.00000000000001" height="106.56000000000002"><path fill="red" stroke="red" d="M67.25 36.94L49.18 36.94C51.70 33.77 54.58 29.30 57.02 25.20L50.26 23.18C48.60 26.93 45.58 32.18 43.20 35.50L47.16 36.94L24.98 36.94L28.87 34.99C27.50 31.68 24.34 26.86 21.38 23.26L15.70 25.78C18.22 29.16 20.95 33.62 22.54 36.94L4.68 36.94L4.68 42.84L67.25 42.84ZM42.05 49.75C49.25 52.42 58.97 56.74 63.86 59.47L67.54 54.14C62.35 51.41 52.49 47.45 45.50 45.00ZM24.91 44.93C20.30 48.53 11.16 53.14 4.68 55.30C6.12 56.66 7.78 59.11 8.71 60.70C15.19 57.67 24.41 52.34 29.52 48.17ZM18.36 65.09L25.99 65.09L25.99 81.07L18.36 81.07ZM39.82 65.09L39.82 81.07L32.11 81.07L32.11 65.09ZM53.71 65.09L53.71 81.07L45.94 81.07L45.94 65.09ZM59.98 81.07L59.98 59.40L12.38 59.40L12.38 81.07L3.53 81.07L3.53 86.98L68.54 86.98L68.54 81.07Z"/></svg>
