<svg xmlns="http://www.w3.org/2000/svg" xmlns:xlink="http://www.w3.org/1999/xlink" width="72.00000000000001" height="106.56000000000002"><path fill="red" stroke="red" d="M21.31 44.50L30.96 44.50L30.96 38.16L21.31 38.16L21.31 23.11L14.90 23.11L14.90 38.16L3.89 38.16L3.89 44.50L14.04 44.50C11.74 53.71 7.06 64.30 2.23 70.20C3.24 71.71 4.82 74.45 5.54 76.32C9.00 71.86 12.31 64.80 14.90 57.38L14.90 89.14L21.31 89.14L21.31 57.60C23.76 61.06 26.42 65.02 27.65 67.39L31.68 61.99C30.24 60.12 23.83 52.56 21.31 49.97ZM40.32 78.26L40.32 67.25L59.90 67.25L59.90 78.26ZM59.90 33.48L59.90 44.06L40.32 44.06L40.32 33.48ZM40.32 50.18L59.90 50.18L59.90 61.13L40.32 61.13ZM33.91 27.14L33.91 88.63L40.32 88.63L40.32 84.38L59.90 84.38L59.90 88.27L66.60 88.27L66.60 27.14Z"/></svg>
