<svg xmlns="http://www.w3.org/2000/svg" xmlns:xlink="http://www.w3.org/1999/xlink" width="72.00000000000001" height="106.56000000000002"><path fill="red" stroke="red" d="M67.75 60.19L67.75 53.50L38.66 53.50C38.81 52.13 38.81 50.83 38.81 49.46L38.81 38.52L62.50 38.52L62.50 31.82L22.03 31.82C23.11 29.38 23.90 26.78 24.70 24.26L17.64 22.75C15.05 32.18 10.22 41.40 4.25 47.09C5.98 47.88 9.22 49.75 10.66 50.83C13.61 47.59 16.42 43.34 19.01 38.52L31.90 38.52L31.90 49.32C31.90 50.69 31.82 52.06 31.75 53.50L4.39 53.50L4.39 60.19L30.60 60.19C28.15 68.98 21.31 77.90 2.81 83.52C4.18 84.96 6.05 87.70 6.77 89.35C24.91 83.59 32.98 74.74 36.43 65.45C41.83 77.54 50.62 85.39 64.87 89.14C65.74 87.19 67.75 84.24 69.26 82.87C54.72 79.70 45.79 72.00 41.11 60.19Z"/></svg>
