<svg xmlns="http://www.w3.org/2000/svg" xmlns:xlink="http://www.w3.org/1999/xlink" width="72.00000000000001" height="106.56000000000002"><path fill="red" stroke="red" d="M68.11 26.21L32.26 26.21L32.26 32.40L68.11 32.40ZM59.18 56.45L40.61 56.45L40.61 44.93L59.18 44.93ZM65.66 39.02L34.42 39.02L34.42 62.35L65.66 62.35ZM46.51 78.70C45.86 74.81 43.85 68.90 41.69 64.44L36.07 65.95C38.09 70.42 39.96 76.46 40.54 80.28ZM30.74 75.46C29.16 73.30 23.11 65.23 20.45 62.06C20.66 60.48 20.88 58.97 21.02 57.38L30.60 57.38L30.60 51.34L21.46 51.34C21.46 50.47 21.46 49.61 21.46 48.82L21.46 38.52L29.95 38.52L29.95 32.54L13.68 32.54C14.26 29.88 14.76 27.07 15.19 24.26L9.14 23.26C8.06 31.54 6.12 40.03 2.81 45.43C4.25 46.22 6.84 48.10 7.92 49.03C9.58 46.08 10.94 42.48 12.17 38.52L15.26 38.52L15.26 48.67C15.26 49.46 15.26 50.40 15.26 51.34L3.17 51.34L3.17 57.38L14.83 57.38C13.97 66.31 11.09 76.18 2.74 83.74C4.03 84.60 6.41 86.98 7.34 88.27C13.25 82.94 16.78 76.10 18.86 69.19C21.53 73.08 24.70 77.98 26.28 80.86ZM57.60 81.07C59.69 76.54 61.92 70.63 63.86 65.45L57.17 63.94C55.87 69.19 53.50 76.10 51.19 81.07L29.23 81.07L29.23 87.26L68.90 87.26L68.90 81.07Z"/></svg>
