<svg xmlns="http://www.w3.org/2000/svg" xmlns:xlink="http://www.w3.org/1999/xlink" width="72.00000000000001" height="106.56000000000002"><path fill="red" stroke="red" d="M29.30 75.31C27.94 73.37 22.61 66.24 19.66 62.78C20.02 60.98 20.23 59.18 20.45 57.46L27.79 57.46L27.79 53.64C29.02 54.86 30.24 56.45 31.03 57.67C36.00 55.44 41.18 51.55 45.22 47.23L45.22 55.87L51.55 55.87L51.55 43.20L68.90 43.20L68.90 37.66L51.55 37.66L51.55 31.90C57.38 31.18 63.07 30.10 67.54 28.80L62.57 24.19C55.08 26.42 41.69 28.08 30.24 28.87C30.89 30.24 31.68 32.47 31.90 33.84C36.14 33.55 40.68 33.19 45.22 32.69L45.22 37.66L28.80 37.66L28.80 43.20L42.12 43.20C38.45 47.16 32.98 50.62 27.79 52.70L27.79 51.41L20.95 51.41C21.02 50.11 21.02 48.89 21.02 47.66L21.02 38.59L26.42 38.59L26.42 32.54L14.69 32.54C15.55 29.95 16.20 27.22 16.70 24.48L10.66 23.33C9.14 31.68 6.19 39.96 2.16 45.29C3.60 46.15 6.12 47.95 7.27 48.96C9.29 46.08 11.09 42.55 12.67 38.59L14.98 38.59L14.98 47.66C14.98 48.89 14.98 50.11 14.90 51.41L3.46 51.41L3.46 57.46L14.47 57.46C13.39 66.02 10.51 75.53 2.59 82.80C3.74 83.52 6.12 85.90 6.98 87.05C12.53 82.15 15.91 75.82 18.00 69.34C20.52 73.22 23.54 78.05 25.06 80.86ZM52.49 47.30C57.38 50.04 63.07 53.71 66.38 56.52L69.77 52.27C66.31 49.54 60.55 46.01 55.37 43.34ZM55.30 67.10C53.93 70.27 52.13 72.86 49.82 75.10C46.80 73.87 43.85 72.79 41.04 71.93C41.98 70.42 42.91 68.83 43.78 67.10ZM68.98 67.10L68.98 61.42L63.65 61.42C63.94 60.34 64.08 59.26 64.30 58.10L57.74 57.67C57.60 59.04 57.31 60.19 57.10 61.42L46.80 61.42C47.59 59.76 48.31 58.18 48.96 56.59L42.77 55.44C42.05 57.31 41.11 59.40 40.10 61.42L28.51 61.42L28.51 67.10L37.01 67.10C35.42 69.91 33.62 72.50 32.11 74.66C35.93 75.89 40.03 77.40 44.14 79.13C39.67 81.50 34.06 83.02 27.36 84.02C28.37 85.39 29.88 88.06 30.31 89.50C38.59 87.77 45.29 85.39 50.47 81.79C56.09 84.24 61.06 86.76 64.44 88.99L69.12 84.02C65.66 82.01 60.84 79.56 55.58 77.40C58.18 74.59 60.26 71.21 61.85 67.10Z"/></svg>
