<svg xmlns="http://www.w3.org/2000/svg" xmlns:xlink="http://www.w3.org/1999/xlink" width="72.00000000000001" height="106.56000000000002"><path fill="red" stroke="red" d="M19.08 74.45L13.18 74.45L13.18 54.58L19.08 54.58ZM36.65 64.51L36.65 46.58L44.42 44.86L43.49 38.95L36.65 40.46L36.65 24.98L30.82 24.98L30.82 41.76L23.11 43.42L23.90 48.67L13.10 48.67C14.76 43.56 15.98 38.23 16.99 32.76L25.92 32.76L25.92 26.64L3.38 26.64L3.38 32.76L10.66 32.76C9.00 42.98 6.19 52.70 1.73 59.18C2.66 61.06 4.10 65.09 4.39 66.82C5.62 65.16 6.70 63.43 7.78 61.49L7.78 85.90L13.18 85.90L13.18 80.35L24.41 80.35L24.41 49.32L30.82 47.88L30.82 64.87C30.82 67.75 29.38 68.98 28.15 69.62C29.16 71.14 30.38 74.02 30.82 75.67C31.82 74.45 33.84 73.08 45.14 66.31C44.64 64.87 44.06 62.35 43.78 60.55ZM67.10 28.01L41.69 28.01L41.69 34.20L48.60 34.20C48.38 57.67 47.74 74.88 33.84 84.46C35.35 85.46 37.37 87.62 38.23 89.14C53.06 78.48 54.14 59.47 54.43 34.20L61.13 34.20C60.62 67.25 59.98 78.70 58.46 81.07C57.82 82.15 57.17 82.51 56.16 82.44C55.01 82.44 52.63 82.44 49.90 82.22C50.90 84.02 51.55 86.83 51.62 88.63C54.50 88.78 57.17 88.78 59.18 88.49C61.20 88.13 62.57 87.41 63.86 85.18C66.10 81.79 66.46 69.26 67.10 31.25Z"/></svg>
