<svg xmlns="http://www.w3.org/2000/svg" xmlns:xlink="http://www.w3.org/1999/xlink" width="72.00000000000001" height="106.56000000000002"><path fill="red" stroke="red" d="M59.18 36.58L39.10 36.58L39.10 31.32L59.18 31.32ZM59.18 46.73L39.10 46.73L39.10 41.40L59.18 41.40ZM65.88 26.14L32.83 26.14L32.83 51.98L65.88 51.98ZM30.67 62.50C29.38 60.84 23.26 54.58 21.17 52.78L21.17 49.46L29.59 49.46L29.59 43.13L21.17 43.13L21.17 31.97C24.41 31.10 27.50 30.17 30.10 29.16L25.49 24.05C20.09 26.42 11.02 28.51 3.02 29.81C3.82 31.25 4.68 33.48 4.97 34.99C8.06 34.56 11.38 34.06 14.69 33.34L14.69 43.13L3.60 43.13L3.60 49.46L13.82 49.46C11.09 57.10 6.48 65.66 2.23 70.56C3.24 72.14 4.82 74.88 5.47 76.75C8.71 72.72 12.02 66.53 14.69 59.98L14.69 89.06L21.17 89.06L21.17 59.40C23.33 62.35 25.70 65.74 26.78 67.75ZM69.12 68.90L52.27 68.90L52.27 61.92L66.96 61.92L66.96 56.02L31.32 56.02L31.32 61.92L45.58 61.92L45.58 68.90L28.30 68.90L28.30 74.95L45.58 74.95L45.58 89.14L52.27 89.14L52.27 74.95L69.12 74.95Z"/></svg>
