<svg xmlns="http://www.w3.org/2000/svg" xmlns:xlink="http://www.w3.org/1999/xlink" width="72.00000000000001" height="106.56000000000002"><path fill="red" stroke="red" d="M62.57 23.90C54.72 26.42 40.68 28.37 28.94 29.38C29.52 30.67 30.31 32.83 30.53 34.27C42.55 33.34 57.10 31.54 66.53 28.58ZM60.91 31.68C58.97 35.57 56.23 39.74 53.06 42.70C54.65 43.34 57.24 44.78 58.39 45.72C61.34 42.62 64.58 37.73 66.74 33.19ZM52.63 42.34C52.06 39.82 50.26 36.14 48.38 33.55L43.06 35.35C44.78 38.09 46.51 41.90 47.02 44.35ZM41.47 43.49C40.39 40.90 38.16 37.08 35.86 34.34L30.53 36.50C32.54 39.46 34.85 43.34 35.71 46.08ZM28.66 61.85C27.29 60.26 21.53 54.29 19.58 52.56L19.58 49.68L28.44 49.68L28.44 43.70L19.58 43.70L19.58 32.11C22.75 31.32 25.70 30.38 28.30 29.30L23.33 24.55C18.58 26.86 10.30 28.87 2.88 30.17C3.60 31.46 4.39 33.70 4.75 35.06C7.56 34.70 10.37 34.20 13.25 33.62L13.25 43.70L3.38 43.70L3.38 49.75L12.24 49.75C10.01 57.38 6.12 66.02 2.38 70.99C3.46 72.58 4.97 75.31 5.62 77.26C8.35 73.30 11.09 67.39 13.25 61.20L13.25 89.28L19.58 89.28L19.58 59.18C21.60 61.92 23.83 65.16 24.84 66.96ZM51.12 70.06L51.12 64.30L59.62 64.30L59.62 70.06ZM37.15 64.30L45.07 64.30L45.07 70.06L37.15 70.06ZM45.07 53.64L45.07 59.26L37.15 59.26L37.15 53.64ZM59.62 53.64L59.62 59.26L51.12 59.26L51.12 53.64ZM69.62 70.06L65.81 70.06L65.81 48.38L51.12 48.38L51.12 44.86L45.07 44.86L45.07 48.38L31.03 48.38L31.03 70.06L25.92 70.06L25.92 75.53L31.03 75.53L31.03 89.06L37.15 89.06L37.15 75.53L59.62 75.53L59.62 82.22C59.62 83.09 59.26 83.30 58.32 83.38C57.46 83.38 54.36 83.38 51.26 83.23C52.13 84.82 53.14 87.41 53.42 89.14C57.96 89.14 60.98 89.06 63.07 87.98C65.16 87.05 65.81 85.32 65.81 82.30L65.81 75.53L69.62 75.53Z"/></svg>
