<svg xmlns="http://www.w3.org/2000/svg" xmlns:xlink="http://www.w3.org/1999/xlink" width="72.00000000000001" height="106.56000000000002"><path fill="red" stroke="red" d="M51.91 33.12L48.82 35.64C51.41 37.73 54.72 40.68 56.23 42.55L60.70 38.59C59.33 37.08 56.74 34.85 54.43 33.12L68.62 33.12L68.62 27.86L47.95 27.86C48.46 26.57 48.96 25.34 49.39 24.05L43.27 22.54C41.33 28.66 37.80 34.70 33.70 38.52C35.14 39.46 37.58 41.47 38.74 42.48C41.11 40.03 43.49 36.72 45.43 33.12ZM20.45 33.12L17.78 35.35C20.30 37.73 23.54 40.97 25.06 42.98L29.38 39.17C28.08 37.51 25.56 35.06 23.26 33.12L35.35 33.12L35.35 27.86L18.22 27.86C18.72 26.64 19.30 25.42 19.80 24.19L13.82 22.54C11.52 28.80 7.49 34.92 3.02 38.95C4.32 40.03 6.62 42.34 7.56 43.49C10.30 40.75 12.96 37.08 15.34 33.12ZM18.86 42.41C15.62 49.46 9.14 58.10 2.59 63.36C3.74 64.80 5.47 67.46 6.26 69.05C8.71 66.96 11.16 64.58 13.46 61.99L13.46 89.21L20.09 89.21L20.09 53.57C22.10 50.62 23.98 47.66 25.49 44.78ZM58.68 60.34C56.16 64.30 52.63 67.75 48.53 70.78C47.16 67.68 45.86 64.15 44.86 60.19L67.32 58.18L66.67 52.20L59.83 52.78L63.29 48.67C60.41 46.94 55.15 44.21 51.26 42.34L47.52 46.37C51.19 48.24 56.02 50.98 58.97 52.85L43.63 54.22C43.06 50.69 42.70 47.02 42.55 43.27L35.71 43.27C35.93 47.23 36.29 51.05 36.94 54.79L23.18 56.02L23.76 62.14L38.09 60.84C39.31 65.88 40.82 70.49 42.84 74.52C36.94 77.90 30.17 80.57 23.26 82.44C24.55 83.81 26.50 86.69 27.36 88.06C33.77 85.97 40.10 83.30 45.86 79.92C49.68 85.54 54.50 88.92 59.83 88.92C65.45 88.92 67.82 86.47 68.90 76.18C67.10 75.53 64.80 74.23 63.29 72.94C62.93 79.85 62.14 82.37 60.19 82.37C57.24 82.37 54.22 80.14 51.48 76.18C56.81 72.36 61.42 67.90 64.94 62.71Z"/></svg>
