<svg xmlns="http://www.w3.org/2000/svg" xmlns:xlink="http://www.w3.org/1999/xlink" width="72.00000000000001" height="106.56000000000002"><path fill="red" stroke="red" d="M45.86 37.80C44.86 39.24 42.98 41.40 41.54 42.91L44.78 44.14C46.37 42.84 48.24 41.18 50.18 39.17ZM33.26 44.14L27.14 44.14L29.81 42.70C29.16 41.62 27.86 40.10 26.57 38.81C28.80 38.74 31.03 38.66 33.26 38.52ZM33.26 56.88L38.30 56.88L38.30 50.98C42.55 52.70 47.23 54.86 50.04 56.30L52.63 53.21C49.61 51.62 44.28 49.46 39.89 47.74L53.14 47.74L53.14 44.14L38.30 44.14L38.30 38.23C43.27 37.87 47.88 37.30 51.55 36.72L48.67 33.05C41.90 34.27 29.59 34.99 19.66 35.21C20.09 36.29 20.66 37.80 20.81 38.88L23.83 38.88L22.03 39.82C23.26 40.97 24.77 42.84 25.70 44.14L18.86 44.14L18.86 47.74L31.03 47.74C27.65 49.90 22.82 51.70 18.36 52.63C19.30 53.42 20.66 55.08 21.38 56.16C25.49 55.01 29.88 52.92 33.26 50.47ZM55.30 57.24L16.63 57.24L16.63 32.62L55.30 32.62ZM61.49 28.08L37.08 28.08C38.09 26.71 39.10 25.27 40.03 23.69L32.04 22.90C31.61 24.41 30.89 26.28 30.10 28.08L10.73 28.08L10.73 61.70L61.49 61.70ZM67.75 69.34L67.75 64.37L4.25 64.37L4.25 69.34L18.14 69.34C16.92 72.65 15.55 76.10 14.33 78.77L51.98 78.77C51.41 81.29 50.76 82.66 49.97 83.30C49.32 83.74 48.53 83.81 47.02 83.81C45.43 83.81 40.97 83.74 36.79 83.38C37.80 84.96 38.59 87.19 38.74 88.92C43.13 89.21 47.16 89.21 49.39 89.06C51.91 88.99 53.57 88.63 55.08 87.26C56.88 85.82 57.96 82.58 59.11 76.25C59.26 75.38 59.40 73.66 59.40 73.66L23.47 73.66C24.05 72.22 24.55 70.85 25.06 69.34Z"/></svg>
