<svg xmlns="http://www.w3.org/2000/svg" xmlns:xlink="http://www.w3.org/1999/xlink" width="72.00000000000001" height="106.56000000000002"><path fill="red" stroke="red" d="M31.90 63.94C31.18 60.34 28.87 54.36 26.86 49.97L21.67 51.41C22.54 53.50 23.47 55.80 24.19 58.03L12.74 59.62C18.79 53.06 24.77 44.93 29.66 36.72L24.19 33.26C22.39 36.72 20.23 40.18 18.14 43.34L10.80 43.92C14.69 38.66 18.65 32.04 21.60 25.63L15.55 23.11C12.74 30.67 7.99 38.74 6.41 40.75C4.90 42.84 3.67 44.28 2.38 44.57C3.10 46.15 4.10 49.18 4.46 50.47C5.40 49.97 7.06 49.54 14.47 48.74C11.88 52.20 9.72 54.86 8.57 56.02C6.19 58.68 4.61 60.41 2.81 60.77C3.60 62.42 4.61 65.52 4.90 66.74C6.41 65.88 8.78 65.45 25.70 62.71C26.06 63.86 26.28 64.87 26.50 65.74ZM6.84 69.41C5.83 75.17 4.25 81.58 2.23 85.90C3.67 86.26 6.12 86.90 7.34 87.55C9.00 83.30 10.87 76.61 11.95 70.49ZM15.26 70.06C16.06 74.81 16.92 80.93 17.06 85.03L22.32 83.74C22.03 79.70 21.17 73.66 20.16 68.98ZM23.76 68.69C25.20 72.43 26.93 77.33 27.72 80.50L32.47 78.62C31.68 75.53 30.02 70.70 28.37 67.03ZM66.74 27.86L33.12 27.86L33.12 34.13L44.57 34.13C44.50 40.68 44.35 47.45 43.63 54.00C41.18 50.33 38.30 46.15 35.78 42.70L31.61 45.86C35.21 51.05 39.74 58.10 42.26 62.71C40.32 71.64 36.86 79.49 30.31 84.89C31.90 85.97 33.98 88.06 34.99 89.57C49.03 77.18 50.47 54.86 50.83 34.13L60.41 34.13C59.54 66.67 58.61 78.34 56.52 80.86C55.80 82.01 55.15 82.30 54.00 82.30C52.63 82.30 49.90 82.22 46.66 81.94C47.74 83.81 48.46 86.62 48.60 88.42C51.77 88.56 54.94 88.63 57.02 88.27C59.26 87.91 60.70 87.19 62.21 84.89C64.87 81.22 65.74 68.76 66.74 31.18Z"/></svg>
