<svg xmlns="http://www.w3.org/2000/svg" xmlns:xlink="http://www.w3.org/1999/xlink" width="72.00000000000001" height="106.56000000000002"><path fill="red" stroke="red" d="M5.47 69.41C4.90 75.24 3.96 81.58 2.30 85.82C3.67 86.18 6.12 87.05 7.34 87.70C8.78 83.23 10.01 76.54 10.73 70.34ZM13.10 70.13C13.97 74.88 14.69 81.00 14.83 85.10L19.73 83.88C19.51 79.85 18.65 73.80 17.78 69.12ZM20.30 68.54C21.67 72.43 23.26 77.62 23.83 80.93L28.51 79.34C27.86 75.96 26.21 70.99 24.70 67.18ZM19.80 51.62C20.66 53.64 21.53 55.87 22.32 58.03L12.60 59.40C18.07 52.99 23.54 45.00 27.79 37.15L22.32 33.77C20.88 36.94 19.08 40.25 17.28 43.27L10.94 43.85C14.69 38.45 18.50 31.68 21.38 25.20L15.34 22.75C12.67 30.46 7.92 38.59 6.34 40.75C4.90 42.91 3.67 44.35 2.38 44.64C3.17 46.22 4.03 49.18 4.39 50.47C5.47 49.97 7.06 49.61 13.68 48.82C11.38 52.27 9.29 54.94 8.28 56.09C6.12 58.75 4.54 60.48 2.88 60.84C3.67 62.42 4.61 65.45 4.90 66.74C6.41 65.95 8.71 65.38 23.83 63.00C24.19 64.15 24.41 65.23 24.55 66.17L29.23 64.37C28.44 60.77 26.28 54.72 24.19 50.18ZM43.42 81.14C43.99 75.02 44.64 67.25 45.29 59.11L55.15 59.11C54.94 67.18 54.58 74.88 54.14 81.14ZM55.66 32.98C55.66 39.31 55.51 46.15 55.37 52.92L45.72 52.92C46.22 46.15 46.66 39.24 47.02 32.98ZM68.69 59.11L68.69 52.92L61.85 52.92C62.06 43.92 62.21 34.78 62.21 26.78L31.46 26.78L31.46 32.98L40.54 32.98C40.18 39.17 39.74 46.15 39.24 52.92L28.58 52.92L28.58 59.11L38.74 59.11C38.09 67.25 37.30 74.95 36.65 81.14L29.45 81.14L29.45 87.34L67.61 87.34L67.61 81.14L60.91 81.14C61.27 74.95 61.49 67.25 61.70 59.11Z"/></svg>
