<svg xmlns="http://www.w3.org/2000/svg" xmlns:xlink="http://www.w3.org/1999/xlink" width="72.00000000000001" height="106.56000000000002"><path fill="red" stroke="red" d="M30.24 65.09C29.59 61.34 27.58 55.08 25.63 50.26L20.74 51.70C21.53 53.64 22.25 55.87 22.90 58.03L12.89 59.40C18.58 53.06 23.98 45.43 28.44 37.73L22.97 34.42C21.53 37.44 19.73 40.54 17.93 43.42L10.94 43.99C14.83 38.59 18.72 31.97 21.82 25.49L15.98 23.04C13.18 30.74 8.21 38.81 6.70 40.90C5.18 42.98 4.03 44.50 2.66 44.78C3.38 46.30 4.32 49.25 4.61 50.47C5.69 49.97 7.34 49.61 14.33 48.82C11.81 52.34 9.65 55.08 8.57 56.23C6.41 58.82 4.68 60.55 3.17 60.91C3.89 62.50 4.82 65.45 5.11 66.74C6.62 65.95 8.93 65.38 24.26 62.93C24.62 64.44 24.91 65.81 25.13 66.96ZM5.98 69.41C5.40 75.17 4.39 81.50 2.74 85.82C4.18 86.26 6.77 87.12 7.92 87.77C9.43 83.38 10.66 76.61 11.38 70.34ZM13.97 70.20C14.83 75.02 15.62 81.50 15.77 85.68L21.02 84.74C20.81 80.50 19.94 74.16 19.01 69.26ZM21.89 68.76C23.26 72.94 24.91 78.34 25.56 81.94L30.31 80.35C29.59 76.82 28.01 71.42 26.42 67.39ZM51.98 63.29L51.98 54.43L60.62 54.43L60.62 63.29ZM37.15 63.29L37.15 54.43L45.79 54.43L45.79 63.29ZM45.79 39.89L45.79 48.53L37.15 48.53L37.15 39.89ZM60.62 39.89L60.62 48.53L51.98 48.53L51.98 39.89ZM51.98 33.91L51.98 23.11L45.79 23.11L45.79 33.91L31.39 33.91L31.39 72.58L37.15 72.58L37.15 69.19L45.79 69.19L45.79 89.14L51.98 89.14L51.98 69.19L60.62 69.19L60.62 71.93L66.67 71.93L66.67 33.91Z"/></svg>
