<svg xmlns="http://www.w3.org/2000/svg" xmlns:xlink="http://www.w3.org/1999/xlink" width="72.00000000000001" height="106.56000000000002"><path fill="red" stroke="red" d="M5.98 69.41C5.33 75.31 4.39 81.86 2.74 86.18C4.18 86.62 6.77 87.48 7.92 88.06C9.43 83.66 10.66 76.75 11.38 70.34ZM14.04 70.20C14.83 75.31 15.62 82.01 15.84 86.40L21.02 85.39C20.74 81.00 19.87 74.38 18.86 69.26ZM21.46 68.83C23.04 73.22 24.70 79.06 25.34 82.87L30.24 81.29C29.52 77.47 27.72 71.78 26.06 67.39ZM20.88 51.70C21.60 53.57 22.32 55.80 23.04 57.96L12.96 59.26C18.58 52.92 24.19 45.14 28.66 37.37L23.11 33.98C21.60 37.08 19.73 40.25 17.93 43.13L11.16 43.70C15.12 38.38 19.01 31.82 22.10 25.42L16.06 22.90C13.18 30.53 8.21 38.66 6.62 40.82C5.11 42.91 3.82 44.35 2.59 44.64C3.24 46.22 4.18 49.18 4.54 50.47C5.62 49.97 7.20 49.61 14.04 48.82C11.66 52.27 9.58 55.01 8.50 56.09C6.26 58.75 4.61 60.41 3.02 60.70C3.67 62.42 4.75 65.52 5.04 66.74C6.55 65.95 9.00 65.45 24.41 63.14C24.77 64.58 25.06 65.81 25.27 66.96L30.53 65.16C29.81 61.42 27.72 55.08 25.85 50.33ZM58.03 67.32L58.03 79.99L39.96 79.99L39.96 67.32ZM33.70 89.14L39.96 89.14L39.96 86.04L58.03 86.04L58.03 88.85L64.51 88.85L64.51 61.27L33.70 61.27ZM68.26 38.52L68.26 32.33L52.20 32.33L52.20 23.11L45.29 23.11L45.29 32.33L30.24 32.33L30.24 38.52L45.29 38.52L45.29 48.46L32.26 48.46L32.26 54.58L66.38 54.58L66.38 48.46L52.20 48.46L52.20 38.52Z"/></svg>
