<svg xmlns="http://www.w3.org/2000/svg" xmlns:xlink="http://www.w3.org/1999/xlink" width="72.00000000000001" height="106.56000000000002"><path fill="red" stroke="red" d="M55.94 34.49C54.22 36.36 51.98 38.16 49.32 39.67C46.15 38.09 43.42 36.29 41.40 34.49ZM66.96 34.49L66.96 29.23L42.55 29.23C43.70 27.58 44.71 25.85 45.58 24.12L40.18 22.61C37.37 28.44 32.40 33.70 27.14 37.22C28.30 38.23 30.17 40.54 30.96 41.62C32.90 40.18 34.92 38.45 36.72 36.50C38.59 38.52 40.97 40.46 43.92 42.26C39.24 44.14 33.84 45.58 28.08 46.51C29.09 47.52 30.67 49.82 31.32 51.19C38.16 49.75 44.28 47.88 49.46 45.22C54.29 47.30 59.98 49.03 66.38 49.97C67.03 48.53 68.54 46.22 69.77 45.00C64.22 44.42 59.33 43.27 55.01 41.83C57.82 39.74 60.26 37.30 62.14 34.49ZM15.84 23.40C12.82 34.13 7.92 44.78 2.30 51.84C3.46 53.57 5.18 57.31 5.69 58.90C7.27 56.95 8.78 54.65 10.30 52.27L10.30 89.14L16.27 89.14L16.27 40.61C18.50 35.64 20.45 30.31 21.96 25.06ZM26.42 33.91L21.02 33.91L21.02 77.83L26.42 77.83ZM35.06 74.02C32.54 77.33 28.22 80.57 24.05 82.66C25.20 83.74 27.07 86.04 27.86 87.12C32.33 84.46 37.37 80.06 40.39 75.82ZM60.98 69.55C62.28 71.21 63.29 72.72 64.08 73.94L68.47 71.28C66.46 68.11 62.28 63.29 58.90 59.90L54.72 62.14C55.73 63.22 56.66 64.37 57.74 65.52L42.12 66.46C49.18 63.07 56.38 58.82 63.22 53.93L58.61 50.90C56.45 52.63 54.22 54.14 51.98 55.73L41.90 56.38C45.07 54.50 48.24 52.34 51.12 49.97L46.01 47.23C42.05 51.05 36.50 54.43 34.78 55.37C33.19 56.30 31.82 56.88 30.53 57.02C31.18 58.39 31.97 61.13 32.26 62.21C33.26 61.78 34.99 61.49 43.99 60.70C40.90 62.50 38.23 63.86 36.86 64.51C33.84 65.95 31.54 66.89 29.59 67.03C30.17 68.40 30.96 71.06 31.18 72.14C32.54 71.71 34.27 71.42 44.71 70.63L44.71 82.58C44.71 83.23 44.50 83.38 43.78 83.45C42.98 83.45 40.75 83.45 38.16 83.38C38.95 84.89 39.82 87.19 40.10 88.85C43.70 88.85 46.22 88.78 48.24 87.91C50.11 86.98 50.54 85.46 50.54 82.73L50.54 70.27ZM53.50 76.68C57.46 79.85 62.50 84.46 64.80 87.34L69.12 84.02C66.53 81.22 61.56 76.68 57.53 73.66Z"/></svg>
