<svg xmlns="http://www.w3.org/2000/svg" xmlns:xlink="http://www.w3.org/1999/xlink" width="72.00000000000001" height="106.56000000000002"><path fill="red" stroke="red" d="M56.59 22.32C51.41 26.14 42.34 29.88 34.20 32.47C34.99 33.77 35.93 35.93 36.29 37.22C44.78 34.85 54.36 31.46 61.06 27.29ZM8.28 68.54C6.91 73.37 4.75 78.77 2.45 82.37C3.74 82.94 6.12 84.31 7.20 85.10C9.50 81.22 12.02 75.24 13.61 69.84ZM11.88 56.09L26.14 56.09L26.14 60.41L11.88 60.41ZM26.14 30.53L26.14 34.99L11.88 34.99L11.88 30.53ZM11.88 47.81L26.14 47.81L26.14 51.77L11.88 51.77ZM26.14 43.56L11.88 43.56L11.88 39.31L26.14 39.31ZM34.78 65.74L34.78 60.41L31.82 60.41L31.82 25.56L6.41 25.56L6.41 60.41L3.31 60.41L3.31 65.74L16.63 65.74L16.63 88.63L22.25 88.63L22.25 65.74ZM24.48 70.06C26.42 73.51 28.51 78.12 29.38 81.07L34.06 78.91C33.12 75.96 30.96 71.50 28.94 68.11ZM39.96 66.96C38.59 71.93 35.93 78.34 32.76 82.58C34.06 83.23 36.22 84.60 37.37 85.46C40.75 80.93 43.70 74.09 45.72 68.40ZM62.93 63.22C63.50 64.44 63.94 65.52 64.30 66.53L69.19 64.01C67.68 60.26 64.30 54.22 61.34 49.82L56.81 51.98C58.03 53.86 59.33 56.09 60.48 58.32L46.51 59.04C53.28 53.86 60.12 47.59 66.31 40.75L61.63 37.51C60.05 39.38 58.39 41.26 56.66 43.06L46.73 43.56C50.11 41.26 53.50 38.38 56.59 35.42L51.70 32.90C47.74 37.51 41.98 41.69 40.10 42.84C38.52 43.92 37.08 44.64 35.86 44.86C36.43 46.22 37.22 48.82 37.44 49.97C38.74 49.46 40.68 49.10 51.41 48.31C47.30 52.20 43.63 55.22 41.98 56.45C39.17 58.54 37.08 59.98 35.28 60.26C35.93 61.70 36.72 64.51 37.01 65.59C38.30 65.16 40.03 64.87 48.38 64.22L48.38 83.88C48.38 84.53 48.24 84.74 47.52 84.74L42.84 84.74C43.42 85.97 44.14 87.62 44.42 89.06C47.81 89.06 50.18 88.99 51.91 88.27C53.64 87.62 54.07 86.54 54.07 84.02L54.07 63.86ZM56.16 68.54C58.82 73.44 61.99 80.21 63.43 84.17L68.69 81.65C67.18 77.90 63.79 71.35 61.13 66.38Z"/></svg>
