<svg xmlns="http://www.w3.org/2000/svg" xmlns:xlink="http://www.w3.org/1999/xlink" width="72.00000000000001" height="106.56000000000002"><path fill="red" stroke="red" d="M68.33 83.59C61.78 79.63 48.67 73.94 39.24 70.56L36.29 75.60C45.94 79.34 58.82 85.32 65.23 89.50ZM68.33 60.12L68.33 54.22L39.31 54.22L39.31 49.10L61.85 49.10L61.85 43.42L39.31 43.42L39.31 38.52L65.30 38.52L65.30 32.62L50.62 32.62C52.34 30.31 54.29 27.43 55.94 24.77L48.82 22.82C47.59 25.70 45.14 29.74 43.20 32.62L25.63 32.62L28.01 31.54C27.00 29.02 24.55 25.42 22.10 22.82L16.27 25.13C18.00 27.29 19.94 30.24 21.10 32.62L6.62 32.62L6.62 38.52L32.40 38.52L32.40 43.42L10.66 43.42L10.66 49.10L32.40 49.10L32.40 54.22L4.25 54.22L4.25 60.12L31.61 60.12C31.39 61.85 31.10 63.36 30.82 64.87L5.83 64.87L5.83 70.56L28.80 70.56C25.56 76.82 18.72 80.86 2.95 83.02C4.25 84.53 5.83 87.26 6.34 89.06C25.34 85.97 32.98 79.92 36.36 70.56L66.74 70.56L66.74 64.87L37.87 64.87C38.16 63.36 38.45 61.78 38.59 60.12Z"/></svg>
