<svg xmlns="http://www.w3.org/2000/svg" xmlns:xlink="http://www.w3.org/1999/xlink" width="72.00000000000001" height="106.56000000000002"><path fill="red" stroke="red" d="M2.88 65.95C7.06 66.96 12.17 69.05 14.69 70.92L17.86 66.24C15.19 64.37 10.01 62.50 5.90 61.70ZM23.62 58.10C21.02 56.23 15.98 54.00 11.95 52.99L8.78 57.10C12.89 58.39 17.86 60.70 20.30 62.71ZM17.93 70.13C13.97 75.74 9.22 81.65 5.83 85.25L10.73 89.35C14.40 84.74 18.65 79.20 22.10 74.09ZM48.02 64.15L58.03 64.15C57.02 67.03 55.80 69.84 54.79 71.78L60.34 72.94C62.28 69.55 64.51 64.22 66.24 59.47L61.63 58.54L60.62 58.75L36.79 58.75C37.58 57.10 38.30 55.37 38.88 53.64L34.34 52.56L67.18 52.56L67.18 47.45L39.31 47.45L39.31 43.42L61.13 43.42L61.13 38.66L39.31 38.66L39.31 34.78L64.37 34.78L64.37 29.66L51.34 29.66C52.56 28.15 53.86 26.42 55.15 24.62L47.88 22.97C47.02 24.91 45.50 27.65 44.14 29.66L28.30 29.66C27.36 27.72 25.49 24.98 23.62 23.11L17.78 25.06C18.94 26.42 20.09 28.08 20.95 29.66L7.78 29.66L7.78 34.78L32.47 34.78L32.47 38.66L11.23 38.66L11.23 43.42L32.47 43.42L32.47 47.45L5.04 47.45L5.04 52.56L32.40 52.56C30.31 58.90 26.50 64.87 21.89 68.83C23.40 69.70 26.14 71.50 27.29 72.58C29.66 70.27 31.90 67.39 33.91 64.15L41.18 64.15L41.18 66.89C41.18 70.27 37.87 79.99 20.52 84.02C21.74 85.32 23.47 87.77 24.05 89.14C37.37 85.82 43.20 78.05 44.64 73.80C46.08 78.12 51.77 85.90 65.23 89.21C66.02 87.77 67.75 85.10 68.90 83.74C50.98 79.70 48.02 70.20 48.02 66.89Z"/></svg>
