<svg xmlns="http://www.w3.org/2000/svg" xmlns:xlink="http://www.w3.org/1999/xlink" width="72.00000000000001" height="106.56000000000002"><path fill="red" stroke="red" d="M32.62 52.63C32.18 51.05 31.10 48.60 29.95 46.94L24.70 48.02C25.85 49.90 26.86 52.42 27.14 54.00ZM14.62 46.66L42.55 46.66L37.73 48.02C39.10 49.82 40.46 52.34 40.90 54.00L46.30 52.27C45.72 50.69 44.42 48.31 42.91 46.66L56.45 46.66L53.14 48.38C56.16 50.18 59.83 52.92 61.85 55.01L53.14 55.01C54.00 54.07 54.86 53.06 55.73 51.98L49.25 50.62C48.60 51.77 47.45 53.57 46.37 55.01L25.99 55.01C24.98 53.57 23.47 51.84 22.03 50.69L16.78 52.20C17.64 52.99 18.50 54.00 19.30 55.01L9.43 55.01C12.82 53.21 15.41 50.62 17.42 48.10ZM67.97 79.06L67.97 74.81L38.23 74.81C38.52 73.87 38.74 72.94 38.95 71.93L63.94 71.93L63.94 68.04L38.95 68.04L38.95 65.30L61.42 65.30L61.42 61.63L38.95 61.63L38.95 58.97L64.01 58.97L64.01 55.01L63.29 55.01L67.18 52.70C65.45 50.90 62.21 48.38 59.11 46.66L67.03 46.66L67.03 42.34L39.17 42.34L39.17 39.60L61.56 39.60L61.56 35.78L39.17 35.78L39.17 33.12L64.87 33.12L64.87 28.87L51.34 28.87C52.56 27.58 53.93 25.99 55.30 24.19L47.95 23.04C47.09 24.70 45.50 27.07 44.28 28.87L28.01 28.87L28.22 28.80C27.36 27.14 25.42 24.77 23.76 23.04L17.71 24.62C18.72 25.92 19.87 27.43 20.81 28.87L8.14 28.87L8.14 33.12L32.69 33.12L32.69 35.78L11.59 35.78L11.59 39.60L32.69 39.60L32.69 42.34L4.90 42.34L4.90 46.66L12.17 46.66C10.08 48.82 7.13 50.98 3.89 52.27L7.70 55.66L7.70 58.97L32.54 58.97L32.54 61.63L10.73 61.63L10.73 65.30L32.54 65.30L32.54 68.04L8.28 68.04L8.28 71.93L32.69 71.93C32.47 73.01 32.18 73.87 31.82 74.81L3.96 74.81L3.96 79.06L28.87 79.06C24.98 82.37 17.71 83.88 3.60 84.67C4.54 85.75 5.69 87.91 5.90 89.35C24.19 87.98 32.47 85.25 36.36 79.06L37.51 79.06L36.50 82.37C46.80 83.74 60.41 86.90 67.54 89.35L68.76 85.18C62.21 82.94 50.26 80.42 40.46 79.06Z"/></svg>
