<svg xmlns="http://www.w3.org/2000/svg" xmlns:xlink="http://www.w3.org/1999/xlink" width="72.00000000000001" height="106.56000000000002"><path fill="red" stroke="red" d="M13.61 44.21C16.06 46.66 18.65 49.61 20.02 51.55L23.18 48.96L23.18 55.51C19.58 58.03 15.98 60.34 13.32 61.92C13.54 58.18 13.61 54.65 13.61 51.41ZM23.18 31.90L23.18 47.02C21.31 44.78 18.65 42.12 16.27 39.96L13.61 41.83L13.61 31.90ZM29.30 25.70L7.56 25.70L7.56 51.41C7.56 61.99 7.20 76.32 2.45 86.26C4.03 86.83 6.77 88.34 7.92 89.35C11.30 82.22 12.67 72.50 13.25 63.43L15.77 67.75C18.07 65.74 20.66 63.58 23.18 61.42L23.18 80.93C23.18 81.86 22.82 82.22 21.89 82.30C20.95 82.30 18.07 82.30 15.12 82.15C15.98 83.88 16.78 86.90 16.99 88.63C21.74 88.63 24.70 88.49 26.78 87.34C28.73 86.26 29.30 84.31 29.30 81.00ZM68.47 39.10L60.19 39.10L60.19 23.54L53.50 23.54L53.50 39.10L31.32 39.10L31.32 45.94L53.50 45.94L53.50 80.64C53.50 82.01 52.92 82.37 51.62 82.44C50.33 82.51 45.94 82.51 41.33 82.30C42.26 84.24 43.27 87.41 43.63 89.28C50.04 89.35 54.22 89.14 56.66 87.91C59.18 86.83 60.19 84.89 60.19 80.64L60.19 45.94L68.47 45.94ZM48.24 68.33C46.94 63.65 43.63 56.88 40.10 51.62L34.49 54.00C37.87 59.11 41.04 66.24 42.19 70.85Z"/></svg>
