<svg xmlns="http://www.w3.org/2000/svg" xmlns:xlink="http://www.w3.org/1999/xlink" width="72.00000000000001" height="106.56000000000002"><path fill="red" stroke="red" d="M59.04 39.10L50.47 39.10L50.47 31.90L59.04 31.90ZM59.04 51.84L50.47 51.84L50.47 44.50L59.04 44.50ZM36.22 44.50L44.50 44.50L44.50 51.84L36.22 51.84ZM36.22 31.90L44.50 31.90L44.50 39.10L36.22 39.10ZM65.09 26.14L30.38 26.14L30.38 57.53L65.09 57.53ZM57.31 69.34C55.51 66.24 51.55 61.49 48.31 58.10L43.63 60.91C46.87 64.44 50.62 69.41 52.34 72.58ZM12.46 43.99C14.47 46.37 16.63 49.25 17.78 51.12L20.66 49.10L20.66 56.74C17.42 58.90 14.54 60.77 12.17 62.14C12.38 58.18 12.46 54.43 12.46 51.12ZM20.66 31.82L20.66 46.80C19.15 44.71 16.99 42.26 15.12 40.39L12.46 42.05L12.46 31.82ZM26.14 25.70L6.98 25.70L6.98 51.12C6.98 61.49 6.62 75.67 2.38 85.61C3.60 86.26 5.98 88.27 6.91 89.42C10.15 82.15 11.52 72.36 12.10 63.43L14.11 67.82C16.27 66.02 18.43 64.22 20.66 62.35L20.66 81.86C20.66 82.80 20.38 83.09 19.51 83.16C18.65 83.16 16.06 83.23 13.18 83.09C13.97 84.60 14.69 87.26 14.83 88.78C19.22 88.78 22.03 88.63 23.76 87.62C25.56 86.69 26.14 84.89 26.14 81.94L26.14 81.79L30.17 84.53C33.05 79.20 34.56 70.92 35.42 64.44L30.60 63.14C29.88 68.83 28.37 75.74 26.14 80.42ZM46.08 82.08C43.78 82.08 43.42 81.79 43.42 79.85L43.42 62.57L37.37 62.57L37.37 79.92C37.37 86.04 38.88 87.84 45.29 87.84L54.00 87.84C59.11 87.84 60.77 85.61 61.42 77.04C59.76 76.54 57.24 75.60 55.94 74.59C55.73 81.14 55.37 82.08 53.42 82.08ZM58.39 65.59C60.98 71.21 63.50 78.77 64.30 83.59L69.91 81.43C68.90 76.54 66.31 69.19 63.50 63.58Z"/></svg>
