<svg xmlns="http://www.w3.org/2000/svg" xmlns:xlink="http://www.w3.org/1999/xlink" width="72.00000000000001" height="106.56000000000002"><path fill="red" stroke="red" d="M19.30 43.63L25.92 43.63L25.92 35.71L34.63 35.71L34.63 29.45L25.92 29.45L25.92 23.18L19.30 23.18L19.30 29.45L4.39 29.45L4.39 35.71L19.30 35.71ZM42.41 51.19C40.97 48.67 38.30 44.93 35.93 41.98L30.31 45.00C31.90 47.23 33.84 50.04 35.21 52.34L6.84 52.34L6.84 58.61L13.54 58.61L13.54 74.38C13.54 82.66 17.06 85.32 26.64 85.32L51.34 85.32C55.87 85.32 61.06 85.18 62.93 84.74C62.64 83.09 62.28 80.28 62.06 78.41C59.54 78.84 54.50 79.06 51.05 79.06L25.99 79.06C21.53 79.06 20.30 77.76 20.30 74.52L20.30 58.61L64.73 58.61L64.73 52.34L40.54 52.34ZM52.63 29.45L52.63 23.18L45.94 23.18L45.94 29.45L37.15 29.45L37.15 35.71L45.94 35.71L45.94 43.63L52.63 43.63L52.63 35.71L67.46 35.71L67.46 29.45Z"/></svg>
