<svg xmlns="http://www.w3.org/2000/svg" xmlns:xlink="http://www.w3.org/1999/xlink" width="72.00000000000001" height="106.56000000000002"><path fill="red" stroke="red" d="M44.86 41.98L51.48 41.98L51.48 35.21L67.61 35.21L67.61 29.02L51.48 29.02L51.48 23.18L44.86 23.18L44.86 29.02L37.22 29.02L37.22 35.21L44.86 35.21ZM20.16 42.34L26.78 42.34L26.78 35.21L34.70 35.21L34.70 29.02L26.78 29.02L26.78 23.18L20.16 23.18L20.16 29.02L4.39 29.02L4.39 35.21L20.16 35.21ZM55.37 55.80C53.21 60.55 50.11 64.58 46.51 68.18C44.78 64.22 43.34 59.54 42.41 54.50L68.04 54.50L68.04 48.31L61.92 48.31L64.80 45.65C62.71 43.63 58.54 40.75 55.51 38.74L51.34 42.34C53.78 44.06 56.88 46.44 59.04 48.31L41.40 48.31C41.04 45.58 40.82 42.84 40.75 39.96L34.06 39.96C34.20 42.77 34.42 45.58 34.70 48.31L10.66 48.31L10.66 58.68C10.66 66.60 9.79 77.47 2.59 85.25C4.18 86.04 6.98 88.06 8.21 89.28C15.77 80.78 17.28 67.90 17.28 58.82L17.28 54.50L35.71 54.50C36.86 61.13 38.81 67.39 41.18 72.65C34.63 77.26 26.71 80.71 17.78 83.09C19.15 84.46 21.24 87.48 22.03 88.92C30.24 86.33 37.80 82.87 44.28 78.26C48.60 84.96 54.07 89.14 60.34 89.14C66.17 89.14 68.62 86.62 69.70 76.32C67.97 75.67 65.66 74.45 64.22 73.01C63.79 80.28 62.93 82.73 60.70 82.73C56.81 82.73 52.85 79.56 49.54 74.16C54.58 69.62 58.82 64.37 61.92 57.96Z"/></svg>
