<svg xmlns="http://www.w3.org/2000/svg" xmlns:xlink="http://www.w3.org/1999/xlink" width="72.00000000000001" height="106.56000000000002"><path fill="red" stroke="red" d="M44.86 39.38L51.34 39.38L51.34 33.91L67.61 33.91L67.61 28.08L51.34 28.08L51.34 23.11L44.86 23.11L44.86 28.08L37.30 28.08L37.30 33.91L44.86 33.91ZM20.23 39.38L26.78 39.38L26.78 33.91L35.06 33.91L35.06 28.08L26.78 28.08L26.78 23.11L20.23 23.11L20.23 28.08L4.68 28.08L4.68 33.91L20.23 33.91ZM63.14 57.82L61.92 58.18L47.95 58.18L48.02 58.10C46.66 57.17 45.00 56.23 43.13 55.30C49.18 52.13 55.22 48.02 59.83 43.99L55.30 40.46L53.86 40.82L10.58 40.82L10.58 46.37L47.09 46.37C44.06 48.46 40.46 50.69 37.01 52.34C32.98 50.54 28.51 48.82 24.77 47.66L20.23 51.62C25.06 53.28 30.60 55.80 35.42 58.18L4.25 58.18L4.25 64.08L28.08 64.08C21.53 70.56 11.88 76.32 2.95 79.27C4.39 80.71 6.48 83.23 7.49 84.89C17.21 81.00 27.50 73.87 34.49 65.66L34.49 81.94C34.49 82.87 34.13 83.16 32.90 83.23C31.68 83.23 27.29 83.23 22.97 83.09C23.90 84.74 25.06 87.41 25.34 89.14C31.18 89.14 34.99 89.06 37.66 88.13C40.32 87.26 41.11 85.46 41.11 82.08L41.11 64.08L57.89 64.08C55.37 68.11 52.34 72.07 49.68 74.81L55.58 77.40C59.83 73.01 64.66 66.17 68.40 59.76Z"/></svg>
