<svg xmlns="http://www.w3.org/2000/svg" xmlns:xlink="http://www.w3.org/1999/xlink" width="72.00000000000001" height="106.56000000000002"><path fill="red" stroke="red" d="M47.38 38.81L54.00 38.81L54.00 33.55L67.61 33.55L67.61 27.65L54.00 27.65L54.00 23.04L47.38 23.04L47.38 27.65L37.58 27.65L37.58 33.55L47.38 33.55ZM18.43 38.81L25.06 38.81L25.06 33.55L34.42 33.55L34.42 27.65L25.06 27.65L25.06 23.04L18.43 23.04L18.43 27.65L4.46 27.65L4.46 33.55L18.43 33.55ZM19.15 55.94L52.63 55.94L52.63 61.63L19.15 61.63ZM19.15 45.43L52.63 45.43L52.63 50.98L19.15 50.98ZM67.90 72.07L39.10 72.07L39.10 66.89L59.33 66.89L59.33 40.18L12.74 40.18L12.74 66.89L32.33 66.89L32.33 72.07L4.32 72.07L4.32 78.12L32.33 78.12L32.33 89.28L39.10 89.28L39.10 78.12L67.90 78.12Z"/></svg>
