<svg xmlns="http://www.w3.org/2000/svg" xmlns:xlink="http://www.w3.org/1999/xlink" width="72.00000000000001" height="106.56000000000002"><path fill="red" stroke="red" d="M45.79 39.10L52.20 39.10L52.20 33.84L67.54 33.84L67.54 28.01L52.20 28.01L52.20 23.11L45.79 23.11L45.79 28.01L38.16 28.01L38.16 33.84L45.79 33.84ZM19.51 38.59L25.85 38.59L25.85 33.84L33.77 33.84L33.77 27.94L25.85 27.94L25.85 23.11L19.51 23.11L19.51 27.94L4.75 27.94L4.75 33.84L19.51 33.84ZM18.50 40.10C14.76 48.10 8.42 55.87 1.80 60.70C3.17 62.06 5.40 65.16 6.19 66.60C8.28 64.80 10.44 62.86 12.46 60.55L12.46 89.21L18.94 89.21L18.94 52.42C21.17 49.18 23.26 45.72 24.84 42.26ZM42.77 60.98L42.77 70.49L31.90 70.49L31.90 60.98ZM48.74 76.03L48.74 55.51L26.06 55.51L26.06 80.21L31.90 80.21L31.90 76.03ZM68.18 43.49L25.56 43.49L25.56 49.68L55.15 49.68L55.15 81.43C55.15 82.51 54.72 82.87 53.35 82.94C52.06 82.94 47.45 82.94 42.91 82.80C43.92 84.53 44.93 87.26 45.29 89.06C51.48 89.06 55.58 88.99 58.25 87.98C60.91 86.98 61.78 85.18 61.78 81.50L61.78 49.68L68.18 49.68Z"/></svg>
