<svg xmlns="http://www.w3.org/2000/svg" xmlns:xlink="http://www.w3.org/1999/xlink" width="72.00000000000001" height="106.56000000000002"><path fill="red" stroke="red" d="M45.72 39.10L52.20 39.10L52.20 33.48L67.46 33.48L67.46 27.65L52.20 27.65L52.20 23.11L45.72 23.11L45.72 27.65L37.87 27.65L37.87 33.48L45.72 33.48ZM19.51 39.10L26.06 39.10L26.06 33.62L34.27 33.62L34.27 27.65L26.06 27.65L26.06 23.11L19.51 23.11L19.51 27.65L4.61 27.65L4.61 33.62L19.51 33.62ZM7.70 42.62C11.45 45.00 17.06 48.38 19.80 50.18L23.76 45.14C20.88 43.42 15.26 40.25 11.52 38.16ZM19.22 59.04C16.34 57.10 10.73 54.00 6.91 52.06L3.02 56.52C6.98 58.82 12.46 62.14 15.12 64.15ZM9.22 88.99C13.68 83.81 18.58 77.26 22.68 71.57L18.65 66.67C14.11 73.01 8.28 79.78 4.39 83.81ZM54.72 47.23C52.34 49.68 49.32 52.06 45.94 54.00C42.26 51.98 39.02 49.68 36.65 47.23ZM55.58 72.72L55.58 80.93L34.49 80.93L34.49 72.72ZM60.34 41.83L59.18 42.12L40.61 42.12C41.47 40.82 42.34 39.60 43.20 38.30L36.65 37.01C33.48 42.26 27.94 48.82 20.66 53.71C22.18 54.58 24.26 56.38 25.42 57.74C28.15 55.66 30.67 53.42 32.90 51.12C35.06 53.21 37.51 55.22 40.25 57.02C34.06 59.90 27.29 62.14 20.88 63.36C22.10 64.73 23.54 67.18 24.26 68.83C25.56 68.47 26.86 68.18 28.15 67.75L28.15 89.14L34.49 89.14L34.49 86.18L55.58 86.18L55.58 89.14L62.14 89.14L62.14 67.46L29.16 67.46C34.92 65.81 40.75 63.43 46.01 60.55C52.27 63.94 59.26 66.53 66.17 68.11C67.03 66.38 68.76 63.86 70.13 62.57C63.94 61.49 57.53 59.47 51.91 57.02C57.10 53.50 61.49 49.32 64.51 44.50Z"/></svg>
