<svg xmlns="http://www.w3.org/2000/svg" xmlns:xlink="http://www.w3.org/1999/xlink" width="72.00000000000001" height="106.56000000000002"><path fill="red" stroke="red" d="M20.74 37.94L27.29 37.94L27.29 33.48L34.63 33.48L34.63 27.72L27.29 27.72L27.29 23.11L20.66 23.11L20.66 27.72L4.39 27.72L4.39 33.48L20.74 33.48ZM26.28 67.75L26.28 76.68L13.25 76.68L13.25 67.75ZM32.54 82.51L32.54 61.92L23.04 61.92L23.04 52.99L34.78 52.99L34.78 47.16L23.04 47.16L23.04 39.38L16.63 39.38L16.63 47.16L4.25 47.16L4.25 52.99L16.63 52.99L16.63 61.92L6.98 61.92L6.98 87.05L13.25 87.05L13.25 82.51ZM45.14 55.87C48.74 58.03 52.92 60.84 55.15 62.78L58.46 59.69L58.46 64.30C53.21 66.38 48.17 68.54 44.50 69.84C45.00 66.31 45.14 62.93 45.14 59.76ZM58.46 46.51L58.46 58.25C55.87 56.23 51.77 53.71 48.38 51.98L45.14 54.86L45.14 46.51ZM64.94 40.82L38.81 40.82L38.81 59.69C38.81 67.90 37.94 78.05 30.38 85.10C31.90 85.90 34.49 88.06 35.57 89.28C40.97 84.17 43.42 77.18 44.42 70.20L47.02 75.89C50.47 74.30 54.43 72.58 58.46 70.63L58.46 81.58C58.46 82.51 58.10 82.80 57.10 82.87C56.16 82.94 52.78 82.94 49.39 82.80C50.33 84.46 51.26 87.34 51.55 89.06C56.45 89.06 59.83 88.92 62.06 87.91C64.22 86.83 64.94 84.96 64.94 81.65ZM51.19 27.72L51.19 23.11L44.50 23.11L44.50 27.72L37.22 27.72L37.22 33.48L44.50 33.48L44.50 38.66L51.19 38.66L51.19 33.48L67.46 33.48L67.46 27.72Z"/></svg>
