<svg xmlns="http://www.w3.org/2000/svg" xmlns:xlink="http://www.w3.org/1999/xlink" width="72.00000000000001" height="106.56000000000002"><path fill="red" stroke="red" d="M18.65 36.36L24.84 36.36L24.84 32.69L33.84 32.69L33.84 27.43L24.84 27.43L24.84 23.11L18.65 23.11L18.65 27.43L4.03 27.43L4.03 32.69L18.65 32.69ZM67.03 50.11L67.03 38.09L5.33 38.09L5.33 50.11L11.30 50.11L11.30 42.98L60.77 42.98L60.77 50.11ZM18.43 70.13L18.43 66.24L32.47 66.24L32.47 70.13ZM18.43 58.75L32.47 58.75L32.47 62.57L18.43 62.57ZM53.42 58.75L53.42 62.57L38.95 62.57L38.95 58.75ZM53.42 70.13L38.95 70.13L38.95 66.24L53.42 66.24ZM38.95 74.59L59.83 74.59L59.83 54.29L38.95 54.29L38.95 51.19L57.74 51.19L57.74 46.94L38.95 46.94L38.95 44.35L32.47 44.35L32.47 46.94L14.33 46.94L14.33 51.19L32.47 51.19L32.47 54.29L12.31 54.29L12.31 74.59L32.47 74.59L32.47 77.90L4.25 77.90L4.25 83.02L32.47 83.02L32.47 89.21L38.95 89.21L38.95 83.02L67.68 83.02L67.68 77.90L38.95 77.90ZM53.86 27.43L53.86 23.11L47.66 23.11L47.66 27.43L37.58 27.43L37.58 32.69L47.66 32.69L47.66 36.36L53.86 36.36L53.86 32.69L67.68 32.69L67.68 27.43Z"/></svg>
