<svg xmlns="http://www.w3.org/2000/svg" xmlns:xlink="http://www.w3.org/1999/xlink" width="72.00000000000001" height="106.56000000000002"><path fill="red" stroke="red" d="M18.50 37.22L24.70 37.22L24.70 32.90L33.91 32.90L33.91 27.65L24.70 27.65L24.70 23.11L18.50 23.11L18.50 27.65L4.03 27.65L4.03 32.90L18.50 32.90ZM54.22 62.86L28.08 62.86C32.83 61.20 37.01 59.18 40.75 57.10C44.35 58.97 47.52 60.98 49.82 62.71L52.92 59.11C50.83 57.60 48.17 56.02 45.07 54.43C48.31 52.20 51.12 49.82 53.42 47.38L47.81 46.15C45.94 48.10 43.49 50.18 40.46 52.06C38.88 51.26 37.15 50.62 35.42 49.82C37.37 48.53 39.10 47.16 40.68 45.58L35.78 44.57C34.56 45.79 32.90 46.94 30.96 48.02C27.79 46.80 24.70 45.72 21.74 44.78L18.94 47.88C21.17 48.60 23.54 49.46 25.99 50.47C23.83 51.26 21.46 52.13 18.86 52.85C19.94 53.57 21.31 54.94 22.10 56.09C25.34 54.94 28.22 53.78 30.82 52.42C32.54 53.14 34.27 53.93 35.86 54.65C31.68 56.88 26.64 58.75 21.02 60.41C21.82 60.98 22.75 61.92 23.47 62.86L17.71 62.86L17.71 44.35L54.22 44.35ZM32.33 34.42C31.90 35.93 31.10 37.94 30.24 39.74L11.59 39.74L11.59 67.46L33.84 67.46L30.31 70.20C33.91 72.79 38.23 76.46 40.32 78.91L44.93 75.10C42.91 72.94 39.10 69.77 35.71 67.46L60.70 67.46L60.70 39.74L36.72 39.74C37.51 38.38 38.45 36.94 39.24 35.42ZM10.15 86.90C13.25 83.23 15.62 77.40 17.28 72.72L11.66 70.49C10.15 75.10 7.56 80.64 4.46 84.10ZM32.26 82.80C28.80 82.80 28.15 82.44 28.15 80.64L28.15 70.06L21.74 70.06L21.74 80.71C21.74 86.69 23.69 88.34 31.61 88.34L44.21 88.34C50.26 88.34 52.13 86.47 52.92 78.55C51.12 78.19 48.53 77.40 47.16 76.32C46.87 81.94 46.37 82.80 43.56 82.80ZM53.06 72.94C56.30 77.04 60.05 82.73 61.63 86.18L67.39 83.38C65.52 79.85 61.70 74.38 58.32 70.42ZM53.71 27.58L53.71 23.11L47.45 23.11L47.45 27.58L37.51 27.58L37.51 32.83L47.45 32.83L47.45 37.22L53.71 37.22L53.71 32.83L67.68 32.83L67.68 27.58Z"/></svg>
