<svg xmlns="http://www.w3.org/2000/svg" xmlns:xlink="http://www.w3.org/1999/xlink" width="72.00000000000001" height="106.56000000000002"><path fill="red" stroke="red" d="M24.55 45.50C23.76 46.87 22.90 48.24 22.03 49.39L13.03 49.39C14.18 48.10 15.19 46.87 16.20 45.50ZM32.98 58.68L25.99 58.68L25.99 54.00L32.98 54.00ZM32.98 67.97L25.99 67.97L25.99 63.07L32.98 63.07ZM13.90 58.68L13.90 54.00L20.52 54.00L20.52 58.68ZM20.52 63.07L20.52 67.97L13.90 67.97L13.90 63.07ZM15.05 36.22C12.67 41.26 8.42 47.23 2.23 51.70C3.53 52.49 5.47 54.43 6.41 55.66C6.98 55.15 7.63 54.65 8.28 54.14L8.28 72.58L38.81 72.58L38.81 49.39L28.22 49.39C29.81 47.45 31.25 45.14 32.47 43.13L28.87 40.46L27.72 40.75L19.22 40.75C19.73 39.89 20.16 39.02 20.66 38.16L27.29 38.16L27.29 33.70L34.63 33.70L34.63 27.86L27.29 27.86L27.29 23.11L20.66 23.11L20.66 27.86L4.39 27.86L4.39 33.70L20.66 33.70L20.66 37.22ZM7.20 89.35C10.80 86.33 12.46 81.50 13.46 76.61L8.35 74.95C7.56 79.27 5.62 83.74 2.38 86.18ZM15.62 75.96C16.42 79.70 16.99 84.53 16.99 87.70L21.89 86.98C21.82 83.88 21.17 78.98 20.23 75.31ZM23.54 75.60C24.98 79.13 26.28 83.74 26.64 86.76L31.39 85.61C30.96 82.66 29.52 78.05 28.08 74.59ZM31.61 75.10C33.77 78.41 36.14 82.87 37.15 85.82L41.69 84.10C40.68 81.22 38.30 76.97 35.93 73.73ZM58.10 81.58C58.10 82.66 57.74 82.94 56.66 82.94C55.58 82.94 51.84 83.02 48.10 82.87C48.96 84.67 49.82 87.55 50.11 89.28C55.44 89.28 59.11 89.14 61.34 88.06C63.72 87.12 64.44 85.25 64.44 81.65L64.44 38.09L58.10 38.09ZM49.68 41.69L43.56 41.69L43.56 75.31L49.68 75.31ZM51.19 27.86L51.19 23.11L44.50 23.11L44.50 27.86L37.22 27.86L37.22 33.70L44.50 33.70L44.50 38.30L51.19 38.30L51.19 33.70L67.46 33.70L67.46 27.86Z"/></svg>
