<svg xmlns="http://www.w3.org/2000/svg" xmlns:xlink="http://www.w3.org/1999/xlink" width="72.00000000000001" height="106.56000000000002"><path fill="red" stroke="red" d="M46.44 38.02L53.06 38.02L53.06 33.77L67.90 33.77L67.90 28.37L53.06 28.37L53.06 23.04L46.44 23.04L46.44 28.37L37.51 28.37L37.51 33.77L46.44 33.77ZM9.58 71.50C8.28 75.46 5.98 79.70 3.31 82.58C4.54 83.38 6.77 84.96 7.70 85.82C10.44 82.51 13.25 77.54 14.83 72.72ZM36.50 42.05L24.91 42.05C24.12 40.18 23.04 38.16 22.18 36.50L25.78 36.50L25.78 33.77L34.56 33.77L34.56 28.37L25.78 28.37L25.78 23.04L19.15 23.04L19.15 28.37L4.61 28.37L4.61 33.77L19.15 33.77L19.15 36.50L21.24 36.50L15.62 38.02C16.27 39.24 16.92 40.61 17.42 42.05L4.90 42.05L4.90 47.09L36.50 47.09ZM36.79 70.13L36.79 64.87L24.12 64.87L24.12 60.48L37.51 60.48L37.51 55.37L28.94 55.37C29.88 53.35 31.03 50.90 32.11 48.53L26.21 47.02C25.63 49.46 24.19 52.85 23.04 55.37L16.78 55.37L18.14 54.86C17.71 52.70 16.27 49.46 14.76 47.09L9.65 48.74C10.87 50.69 11.95 53.28 12.46 55.37L3.89 55.37L3.89 60.48L17.86 60.48L17.86 64.87L4.90 64.87L4.90 70.13L17.86 70.13L17.86 88.85L24.12 88.85L24.12 70.13ZM26.35 73.15C28.22 76.10 30.31 80.21 31.32 82.87L36.00 80.14C34.99 77.62 32.83 73.73 30.82 70.78ZM68.47 56.09L46.58 56.09L46.58 47.09C53.86 46.01 61.70 44.35 67.54 42.34L62.50 37.51C57.31 39.60 48.46 41.54 40.54 42.70L40.54 61.63C40.54 68.90 40.10 78.19 35.71 84.82C37.01 85.61 39.46 87.98 40.39 89.14C45.58 81.72 46.58 70.34 46.58 61.92L54.22 61.92L54.22 88.92L60.55 88.92L60.55 61.92L68.47 61.92Z"/></svg>
