<svg xmlns="http://www.w3.org/2000/svg" xmlns:xlink="http://www.w3.org/1999/xlink" width="72.00000000000001" height="106.56000000000002"><path fill="red" stroke="red" d="M68.26 64.44C67.90 61.42 66.38 56.95 64.73 53.64L60.70 54.86C61.27 56.09 61.85 57.53 62.28 58.90L55.58 59.62C59.69 55.30 63.94 49.82 67.39 44.35L62.57 42.19C61.63 44.06 60.41 46.01 59.18 47.81L54.00 48.17C56.23 45.29 58.61 41.54 60.34 37.94L55.30 36.22C53.64 40.75 50.76 45.36 49.82 46.51C49.03 47.74 48.17 48.60 47.23 48.74C47.88 50.11 48.67 52.56 48.96 53.57C49.75 53.21 51.12 52.85 56.09 52.27C54.43 54.58 52.85 56.45 52.20 57.17C50.62 58.90 49.32 60.12 48.10 60.34C48.67 61.63 49.46 64.22 49.68 65.23C50.83 64.66 52.63 64.37 63.43 63.00C63.65 64.01 63.86 64.94 63.94 65.74ZM47.52 36.65L54.14 36.65L54.14 32.62L67.75 32.62L67.75 27.00L54.14 27.00L54.14 23.04L47.52 23.04L47.52 27.00L37.37 27.00L37.37 32.62L47.52 32.62ZM18.22 36.65L24.77 36.65L24.77 32.62L34.49 32.62L34.49 27.00L24.77 27.00L24.77 23.04L18.22 23.04L18.22 27.00L4.46 27.00L4.46 32.62L18.22 32.62ZM24.98 64.80C24.55 61.78 23.11 57.24 21.38 53.93L17.57 55.01C18.22 56.30 18.79 57.74 19.30 59.18L13.03 59.83C17.06 55.66 21.17 50.33 24.62 45.14L19.87 42.84C18.94 44.57 17.86 46.37 16.78 48.02L11.38 48.38C13.68 45.50 16.13 41.83 17.86 38.30L12.89 36.43C11.23 40.97 8.14 45.58 7.20 46.73C6.26 47.95 5.40 48.82 4.46 48.96C5.04 50.33 5.90 52.70 6.19 53.78C6.98 53.42 8.35 53.06 13.61 52.49C11.88 54.86 10.30 56.74 9.58 57.53C8.06 59.18 6.77 60.34 5.54 60.55C6.12 61.85 6.91 64.44 7.13 65.38C8.21 64.80 10.01 64.58 20.45 63.22C20.66 64.30 20.88 65.16 20.95 66.02ZM24.84 74.02C20.23 77.83 11.09 81.00 3.02 82.44C4.39 83.66 6.19 85.97 7.06 87.55C15.41 85.61 24.70 81.22 29.88 76.03ZM30.67 54.07L41.26 54.07L41.26 58.82L30.67 58.82ZM30.67 45.00L41.26 45.00L41.26 49.68L30.67 49.68ZM67.68 72.79L67.68 67.54L39.24 67.54L39.24 63.43L47.09 63.43L47.09 40.32L37.80 40.32C38.52 38.81 39.24 37.22 39.96 35.57L33.55 34.34C33.19 36.00 32.54 38.38 31.82 40.32L24.98 40.32L24.98 63.43L32.62 63.43L32.62 67.54L4.46 67.54L4.46 72.79L32.62 72.79L32.62 89.21L39.24 89.21L39.24 72.79ZM42.62 77.47C49.97 80.21 59.47 84.53 64.37 87.26L68.26 82.80C63.14 80.06 53.42 75.96 46.30 73.51Z"/></svg>
