<svg xmlns="http://www.w3.org/2000/svg" xmlns:xlink="http://www.w3.org/1999/xlink" width="72.00000000000001" height="106.56000000000002"><path fill="red" stroke="red" d="M31.75 41.33L31.75 46.80L18.36 47.59L18.65 52.56L31.75 51.70L31.75 52.34C31.75 58.03 33.55 60.55 40.61 60.55L56.16 60.55C59.11 60.55 62.50 60.41 64.01 60.05C63.72 58.61 63.58 56.66 63.36 54.94C61.70 55.30 57.82 55.44 55.58 55.44L41.33 55.44C38.74 55.44 38.16 54.58 38.16 52.42L38.16 51.41L55.73 50.26L55.37 45.43L38.16 46.44L38.16 41.33L59.76 41.33C59.04 43.63 58.18 46.01 57.38 47.66L62.93 49.25C64.58 46.15 66.46 41.33 67.90 37.08L63.14 35.86L61.99 36.14L36.22 36.14L36.22 32.40L62.28 32.40L62.28 27.29L36.22 27.29L36.22 23.11L29.52 23.11L29.52 36.14L9.00 36.14L9.00 53.35C9.00 62.71 8.42 75.96 2.81 85.32C4.10 86.04 6.91 88.20 7.92 89.35C14.26 79.20 15.34 63.72 15.34 53.35L15.34 41.33ZM29.52 68.83L63.22 68.83L63.22 63.79L23.04 63.79L23.04 72.86L17.35 72.86L17.35 77.90L23.04 77.90L23.04 87.26L64.37 87.26L64.37 82.22L29.52 82.22L29.52 77.90L67.18 77.90L67.18 72.86L29.52 72.86Z"/></svg>
