<svg xmlns="http://www.w3.org/2000/svg" xmlns:xlink="http://www.w3.org/1999/xlink" width="72.00000000000001" height="106.56000000000002"><path fill="red" stroke="red" d="M24.84 65.45L31.97 65.45C30.96 68.76 29.52 71.71 27.72 74.23C26.35 72.14 25.06 69.70 24.12 66.74ZM34.99 60.62L33.98 60.77L27.14 60.77C27.79 59.33 28.37 57.96 28.87 56.45L23.69 55.15C21.82 61.27 18.29 66.74 14.11 70.78C15.12 64.58 15.34 58.39 15.34 53.35L15.34 41.33L31.90 41.33L31.90 45.29L18.50 46.15L18.79 50.47L31.90 49.68L31.90 49.97C31.90 55.30 33.55 57.53 40.46 57.53L57.17 57.53C60.26 57.53 63.72 57.46 65.23 57.02C64.94 55.66 64.80 53.93 64.66 52.13C63.07 52.56 59.04 52.70 56.59 52.70L41.26 52.70C38.66 52.70 38.23 51.98 38.23 50.04L38.23 49.25L55.94 48.17L55.73 43.85L38.23 44.93L38.23 41.33L59.76 41.33C59.11 43.63 58.25 46.01 57.38 47.59L62.93 49.25C64.66 46.15 66.46 41.33 67.90 37.08L63.14 35.86L61.99 36.14L38.59 36.14L38.59 32.26L62.42 32.26L62.42 27.29L38.59 27.29L38.59 23.11L31.90 23.11L31.90 36.14L9.00 36.14L9.00 53.35C9.00 62.78 8.42 75.96 2.81 85.39C4.10 86.11 6.91 88.20 7.92 89.42C10.87 84.67 12.74 78.70 13.75 72.72C14.83 73.73 16.20 75.02 16.78 75.82C18.14 74.52 19.51 73.08 20.81 71.42C21.89 74.02 23.04 76.25 24.34 78.05C21.02 81.29 16.99 83.59 12.53 84.89C13.61 86.04 14.90 88.20 15.48 89.57C20.30 87.84 24.41 85.46 27.94 82.15C33.48 86.90 40.82 88.13 50.18 88.13L67.46 88.13C67.75 86.54 68.62 83.95 69.48 82.58C66.10 82.66 52.99 82.73 50.47 82.66C42.91 82.66 36.36 81.79 31.46 78.05C34.70 73.80 37.01 68.40 38.30 61.49ZM62.14 79.34C65.16 79.34 66.46 77.76 66.82 72.43C65.52 72.14 63.72 71.64 62.78 70.85C62.57 74.88 62.28 75.67 61.56 75.67L59.33 75.67C58.46 75.67 58.32 75.46 58.32 74.09L58.32 60.77L41.98 60.77L41.98 66.17C41.98 69.62 41.26 73.94 36.50 77.33C37.51 77.98 39.82 79.99 40.61 81.07C46.08 76.90 47.30 71.06 47.30 66.31L47.30 65.81L53.28 65.81L53.28 74.02C53.28 78.12 54.43 79.34 58.39 79.34Z"/></svg>
