<svg xmlns="http://www.w3.org/2000/svg" xmlns:xlink="http://www.w3.org/1999/xlink" width="72.00000000000001" height="106.56000000000002"><path fill="red" stroke="red" d="M10.30 41.62L14.76 41.62L14.76 56.38L10.30 56.38ZM24.12 56.38L19.44 56.38L19.44 41.62L24.12 41.62ZM22.90 66.67C23.47 69.12 24.05 71.93 24.55 74.66L19.94 75.38L19.94 61.78L29.16 61.78L29.16 36.14L19.94 36.14L19.94 23.40L14.26 23.40L14.26 36.14L5.26 36.14L5.26 65.23L10.30 65.23L10.30 61.78L14.18 61.78L14.18 76.18C9.86 76.82 5.83 77.40 2.59 77.76L3.60 84.17C9.72 83.16 17.64 81.86 25.42 80.50C25.63 82.15 25.85 83.88 25.92 85.32L31.03 84.02C30.53 78.91 29.23 71.42 27.79 65.45ZM52.20 65.23L45.94 65.23L45.94 45.86L52.20 45.86ZM41.69 41.26L41.69 69.84L56.59 69.84L56.59 41.26ZM37.73 78.91L37.73 32.54L60.62 32.54L60.62 78.91ZM32.11 26.86L32.11 89.21L37.73 89.21L37.73 84.60L60.62 84.60L60.62 88.85L66.46 88.85L66.46 26.86Z"/></svg>
