<svg xmlns="http://www.w3.org/2000/svg" xmlns:xlink="http://www.w3.org/1999/xlink" width="72.00000000000001" height="106.56000000000002"><path fill="red" stroke="red" d="M44.14 44.14C44.78 44.93 45.58 45.72 46.30 46.51L25.70 46.51C26.50 45.72 27.36 44.93 28.15 44.14ZM46.80 52.34L23.54 52.34L23.54 49.68L46.80 49.68ZM46.80 58.18L23.54 58.18L23.54 55.44L46.80 55.44ZM17.06 61.34L53.50 61.34L53.50 51.62C57.10 53.64 61.27 55.08 65.59 56.02C66.31 54.43 67.97 52.20 69.34 50.98C62.14 50.04 55.30 47.52 50.90 44.14L67.46 44.14L67.46 39.96L31.54 39.96C32.11 39.17 32.69 38.38 33.19 37.51L61.06 37.51L61.06 33.55L35.35 33.55C35.71 32.76 36.14 31.97 36.50 31.10L64.87 31.10L64.87 27.00L37.94 27.00C38.30 25.92 38.59 24.91 38.88 23.83L32.33 22.75C31.97 24.26 31.61 25.63 31.10 27.00L7.63 27.00L7.63 31.10L29.45 31.10C29.16 31.97 28.73 32.76 28.22 33.55L11.09 33.55L11.09 37.51L25.63 37.51C24.98 38.38 24.34 39.17 23.54 39.96L5.04 39.96L5.04 44.14L18.86 44.14C14.54 47.45 9.07 49.90 2.81 51.62C4.25 52.85 6.70 55.37 7.56 56.66C10.94 55.44 14.11 54.07 17.06 52.49ZM22.10 82.51L22.10 78.34L29.30 78.34L26.06 79.63C26.64 80.50 27.22 81.43 27.72 82.30ZM10.87 74.38L10.87 69.77L16.78 69.77L16.78 74.38ZM27.79 69.77L27.79 74.38L22.10 74.38L22.10 69.77ZM33.05 78.34L33.05 65.81L22.10 65.81L22.10 62.64L16.78 62.64L16.78 65.81L5.69 65.81L5.69 78.34L16.78 78.34L16.78 82.73C11.74 82.94 7.13 83.09 3.46 83.23L3.82 88.20C10.87 87.84 20.52 87.34 30.02 86.76C30.53 87.84 30.96 88.85 31.25 89.78L35.78 87.77C34.85 85.18 32.76 81.29 30.67 78.34ZM54.36 82.58L54.36 78.34L61.42 78.34L58.61 79.70C59.26 80.57 59.90 81.43 60.62 82.30ZM42.84 74.38L42.84 69.77L48.89 69.77L48.89 74.38ZM60.05 69.77L60.05 74.38L54.36 74.38L54.36 69.77ZM69.70 87.19C68.40 84.74 65.88 81.14 63.43 78.34L65.52 78.34L65.52 65.81L54.36 65.81L54.36 62.64L48.89 62.64L48.89 65.81L37.66 65.81L37.66 78.34L48.89 78.34L48.89 82.80C43.99 82.94 39.60 83.16 36.07 83.23L36.58 88.13C43.85 87.84 53.78 87.34 63.58 86.69C64.15 87.84 64.73 88.78 65.16 89.71Z"/></svg>
