<svg xmlns="http://www.w3.org/2000/svg" xmlns:xlink="http://www.w3.org/1999/xlink" width="72.00000000000001" height="106.56000000000002"><path fill="red" stroke="red" d="M56.23 23.90C50.98 30.17 41.11 36.00 32.54 39.24C34.20 40.61 36.22 42.77 37.30 44.28C46.58 40.32 56.45 33.98 62.78 26.71ZM59.33 42.84C53.86 50.04 43.42 56.45 33.77 59.98C35.57 61.34 37.44 63.65 38.52 65.23C48.96 60.91 59.40 53.93 65.88 45.58ZM31.61 65.81C30.67 64.87 28.44 62.64 26.06 60.26C28.08 58.32 30.17 56.02 32.40 53.86L28.01 50.26C26.78 52.20 24.77 54.94 22.90 57.17C22.03 56.30 21.24 55.51 20.59 54.94C24.34 49.61 27.65 43.63 29.95 37.73L26.14 35.28L25.06 35.57L19.22 35.57L23.76 32.11C22.18 29.59 19.08 26.06 16.13 23.33L11.16 26.78C13.75 29.45 16.63 32.98 18.14 35.57L4.18 35.57L4.18 41.62L21.60 41.62C17.06 50.62 9.36 59.83 2.02 65.02C3.17 66.17 4.97 69.34 5.69 71.06C8.28 68.98 11.02 66.46 13.61 63.58L13.61 89.21L20.23 89.21L20.23 61.85C22.97 65.09 25.99 68.76 27.58 70.99ZM61.56 62.57C55.30 72.50 42.98 79.78 29.09 83.59C30.74 85.18 32.54 87.48 33.41 89.21C48.38 84.46 60.84 76.54 68.26 65.16Z"/></svg>
