<svg xmlns="http://www.w3.org/2000/svg" xmlns:xlink="http://www.w3.org/1999/xlink" width="72.00000000000001" height="106.56000000000002"><path fill="red" stroke="red" d="M66.60 29.38L40.75 29.38C39.67 27.36 38.02 24.70 36.58 22.68L29.88 24.34C30.74 25.85 31.90 27.65 32.76 29.38L5.04 29.38L5.04 34.70L66.60 34.70ZM21.24 53.57L50.76 53.57L50.76 58.25L21.24 58.25ZM50.76 44.28L50.76 48.82L21.24 48.82L21.24 44.28ZM60.19 63.65C57.46 66.17 52.99 69.55 49.10 72.07C46.58 69.48 44.57 66.60 42.91 63.36L57.46 63.36L57.46 53.93L67.68 53.93L67.68 48.38L57.46 48.38L57.46 39.17L14.83 39.17L14.83 48.38L4.90 48.38L4.90 53.93L14.83 53.93L14.83 63.36L27.22 63.36C20.74 68.54 11.38 72.79 2.59 75.10C3.96 76.32 5.83 78.77 6.70 80.28C11.09 78.98 15.62 77.11 19.94 74.88L19.94 79.20C19.94 82.08 18.50 83.23 17.42 83.88C18.29 85.03 19.51 87.55 19.87 89.06C21.53 87.98 24.34 87.19 42.55 83.02C42.34 81.72 42.12 79.20 42.19 77.40L26.35 80.64L26.35 71.14C29.88 68.69 33.12 66.10 35.71 63.36L36.29 63.36C41.62 76.10 50.76 84.38 65.23 88.13C66.17 86.33 67.97 83.74 69.48 82.37C62.93 81.00 57.53 78.70 52.99 75.38C57.02 73.15 61.63 70.27 65.52 67.39Z"/></svg>
