<svg xmlns="http://www.w3.org/2000/svg" xmlns:xlink="http://www.w3.org/1999/xlink" width="72.00000000000001" height="106.56000000000002"><path fill="red" stroke="red" d="M63.36 56.45C62.93 58.39 62.14 58.90 60.34 58.90L48.82 58.90C45.65 58.90 45.07 58.54 45.07 56.52L45.07 56.45ZM60.98 62.50C66.24 62.50 67.90 60.91 68.40 55.22C66.89 55.01 65.02 54.36 63.72 53.71L63.72 53.64L45.07 53.64L45.07 51.41L62.21 51.41L62.21 48.74L45.07 48.74L45.07 46.66L62.57 46.66L62.57 43.85L45.07 43.85L45.07 41.62L64.37 41.62L64.37 32.40L45.07 32.40L45.07 29.95L66.24 29.95L66.24 26.42L45.07 26.42L45.07 23.11L39.10 23.11L39.10 35.78L58.54 35.78L58.54 38.23L39.10 38.23L39.10 56.59C39.10 61.42 41.33 62.50 48.17 62.50ZM25.78 30.82C25.34 32.18 24.55 33.91 23.90 35.42L16.99 35.42C16.70 34.13 15.98 32.33 15.34 30.82ZM36.65 35.42L29.16 35.42C29.66 34.27 30.31 33.05 31.10 31.61L27.22 30.82L35.50 30.82L35.50 26.78L23.98 26.78C23.40 25.42 22.61 23.90 21.89 22.68L15.70 23.69C16.20 24.62 16.78 25.70 17.21 26.78L5.83 26.78L5.83 30.82L14.54 30.82L10.44 31.61C10.94 32.76 11.38 34.20 11.66 35.42L3.96 35.42L3.96 39.60L36.65 39.60ZM14.69 49.10C18.22 49.82 22.75 50.90 25.27 51.70L26.78 48.24C24.34 47.45 19.73 46.58 16.27 46.01ZM13.68 45.14L27.86 45.14L27.86 51.98C22.39 53.28 17.21 54.36 13.25 55.08C13.61 53.21 13.68 51.34 13.68 49.68ZM33.84 41.76L8.42 41.76L8.42 49.46C8.42 53.06 8.06 57.17 4.82 60.55C6.05 61.13 8.35 62.93 9.29 63.94C11.59 61.42 12.67 58.25 13.25 55.08L14.90 59.18L27.86 55.30L27.86 57.96C27.86 58.68 27.65 58.90 26.93 58.90C26.21 58.97 24.05 58.97 21.67 58.90C22.25 59.98 22.90 61.27 23.26 62.57C27.00 62.57 29.74 62.64 31.54 61.99C33.26 61.34 33.84 60.48 33.84 57.96ZM58.46 70.99C55.73 72.79 51.70 75.10 48.10 76.68C45.65 75.10 43.49 73.15 41.76 70.99ZM59.62 70.99L68.04 70.99L68.04 66.10L40.75 66.10C40.18 64.58 39.31 62.93 38.38 61.56L32.33 62.57C32.90 63.65 33.55 64.87 34.06 66.10L3.96 66.10L3.96 70.99L28.66 70.99C21.60 74.02 11.88 76.25 3.17 77.26C4.32 78.41 5.69 80.35 6.48 81.72C10.87 81.00 15.55 79.99 20.09 78.77L20.09 81.50C20.09 84.10 18.72 84.89 17.57 85.32C18.29 86.26 19.30 88.34 19.51 89.64C21.17 88.85 23.62 88.34 41.69 85.82C41.62 84.60 41.62 82.44 41.76 80.93L25.92 82.94L25.92 76.82C29.74 75.46 33.26 73.80 36.14 72.07C42.19 81.22 52.34 86.62 65.95 88.85C66.67 87.19 68.26 84.89 69.55 83.59C63.29 82.87 57.74 81.43 53.06 79.34C56.45 77.83 60.19 76.03 63.22 74.16Z"/></svg>
