<svg xmlns="http://www.w3.org/2000/svg" xmlns:xlink="http://www.w3.org/1999/xlink" width="72.00000000000001" height="106.56000000000002"><path fill="red" stroke="red" d="M58.46 82.87C57.67 80.42 55.87 76.54 54.29 73.66L50.33 74.81C50.83 75.74 51.34 76.82 51.84 77.90L47.66 78.26L47.66 72.72L57.31 72.72L57.31 58.54L47.66 58.54L47.66 53.50L42.84 53.50L42.84 58.54L33.98 58.54C35.78 56.74 37.51 54.72 39.17 52.42L61.78 52.42C61.27 74.16 60.77 81.58 59.62 83.30C59.11 84.24 58.68 84.38 57.89 84.38C57.10 84.38 55.94 84.38 54.50 84.31ZM47.66 62.64L52.49 62.64L52.49 68.62L47.66 68.62ZM38.16 68.62L38.16 62.64L42.84 62.64L42.84 68.62ZM20.81 65.23L20.81 58.03L25.13 58.03L25.13 65.23ZM12.24 58.03L16.56 58.03L16.56 65.23L12.17 65.23C12.24 63.50 12.24 61.85 12.24 60.34ZM20.38 34.49C19.66 36.79 18.72 39.24 17.78 41.18L11.74 41.18C12.82 39.10 13.82 36.86 14.76 34.49ZM12.24 46.22L16.56 46.22L16.56 53.14L12.24 53.14ZM25.13 53.14L20.81 53.14L20.81 46.22L25.13 46.22ZM37.51 30.89L42.26 30.89L42.26 37.58L37.51 37.58ZM47.02 30.89L51.98 30.89L51.98 37.58L47.02 37.58ZM56.74 30.89L61.85 30.89L61.85 37.58L56.74 37.58ZM42.41 47.23C43.27 45.65 44.06 44.06 44.78 42.41L67.25 42.41L67.25 25.99L32.33 25.99L32.33 42.41L38.45 42.41C36.50 46.58 33.70 50.62 30.46 53.71L30.46 41.18L23.18 41.18C24.77 38.16 26.28 34.63 27.43 31.54L23.83 29.02L22.82 29.38L16.56 29.38C17.14 27.72 17.57 26.06 18.00 24.34L12.24 23.11C10.15 31.68 6.55 39.96 1.87 45.43C3.17 46.15 5.69 48.17 6.55 49.18L7.13 48.46L7.13 60.34C7.13 68.33 6.77 78.98 2.38 86.62C3.53 87.12 5.83 88.49 6.70 89.35C9.79 84.10 11.23 77.04 11.81 70.34L25.13 70.34L25.13 82.80C25.13 83.66 24.84 83.88 23.90 83.95C23.11 84.02 20.23 84.02 17.14 83.88C17.93 85.32 18.79 87.77 19.01 89.21C23.40 89.21 26.14 89.14 27.94 88.20C29.88 87.26 30.46 85.54 30.46 82.87L30.46 57.38C31.39 58.18 32.26 59.11 32.76 59.69L33.62 58.90L33.62 72.72L42.84 72.72L42.84 78.70C38.52 79.06 34.63 79.34 31.46 79.56L32.40 84.46L53.50 82.01C53.78 82.80 54.00 83.59 54.22 84.24L53.21 84.17C54.00 85.46 54.58 87.70 54.65 89.14C56.95 89.21 59.18 89.21 60.70 88.99C62.42 88.70 63.72 88.20 64.80 86.47C66.46 83.95 66.96 75.67 67.54 49.90C67.54 49.18 67.61 47.23 67.61 47.23Z"/></svg>
