<svg xmlns="http://www.w3.org/2000/svg" xmlns:xlink="http://www.w3.org/1999/xlink" width="72.00000000000001" height="106.56000000000002"><path fill="red" stroke="red" d="M34.49 35.14L18.22 35.14L23.54 32.18C22.46 29.59 20.16 25.78 18.14 22.75L12.89 25.42C14.83 28.37 16.99 32.47 18.07 35.14L4.75 35.14L4.75 40.46L34.49 40.46ZM31.46 49.97L31.46 44.71L7.85 44.71L7.85 49.97ZM31.25 54.22L7.85 54.22L7.85 59.40L31.25 59.40ZM25.70 69.34L25.70 79.63L14.04 79.63L14.04 69.34ZM31.54 63.94L8.28 63.94L8.28 88.27L14.04 88.27L14.04 85.03L31.54 85.03ZM68.69 47.45L54.58 47.45L54.58 24.48L47.66 24.48L47.66 47.45L34.34 47.45L34.34 54.00L47.66 54.00L47.66 89.21L54.58 89.21L54.58 54.00L68.69 54.00Z"/></svg>
