<svg xmlns="http://www.w3.org/2000/svg" xmlns:xlink="http://www.w3.org/1999/xlink" width="72.00000000000001" height="106.56000000000002"><path fill="red" stroke="red" d="M4.90 44.28C8.35 43.92 12.38 43.63 16.78 43.27L16.78 46.73C16.78 47.52 16.49 47.81 15.62 47.81C14.83 47.88 11.88 47.88 9.07 47.74C9.79 49.25 10.58 51.41 10.87 52.99C15.26 52.99 18.29 52.99 20.38 52.13C22.39 51.26 22.97 49.97 22.97 46.87L22.97 42.70C26.35 42.41 29.81 42.12 33.26 41.76L33.26 37.08L22.97 37.87L22.97 33.41L33.26 33.41L33.26 28.44L22.97 28.44L22.97 23.11L16.78 23.11L16.78 28.44L5.04 28.44L5.04 33.41L16.78 33.41L16.78 38.30C12.17 38.59 7.99 38.88 4.54 39.10ZM52.70 79.20L52.70 83.59L19.37 83.59L19.37 79.20ZM13.03 89.21L19.37 89.21L19.37 87.55L52.70 87.55L52.70 89.14L59.26 89.14L59.26 75.24L13.03 75.24ZM13.97 72.58L58.46 72.58L58.46 68.90L13.97 68.90ZM58.46 62.64L13.97 62.64L13.97 66.38L58.46 66.38ZM58.75 53.50L58.75 41.54L68.33 41.54L68.33 36.14L42.12 36.14L42.12 35.93L42.12 32.26C50.26 31.10 58.97 29.52 65.30 27.36L60.34 23.26C54.79 25.27 44.86 27.14 36.29 28.22L36.29 35.78C36.29 40.32 35.28 45.14 27.58 48.38C28.66 49.10 30.10 50.33 31.18 51.48L30.10 51.84C30.74 52.99 31.39 54.29 31.97 55.58L4.82 55.58L4.82 59.90L67.61 59.90L67.61 55.58L39.31 55.58C38.59 53.86 37.58 51.84 36.50 50.18C39.53 47.66 40.97 44.71 41.62 41.54L52.42 41.54L52.42 53.50Z"/></svg>
