<svg xmlns="http://www.w3.org/2000/svg" xmlns:xlink="http://www.w3.org/1999/xlink" width="72.00000000000001" height="106.56000000000002"><path fill="red" stroke="red" d="M20.09 69.34L20.09 79.63L10.73 79.63L10.73 69.34ZM25.27 63.94L5.62 63.94L5.62 88.27L10.73 88.27L10.73 85.03L25.27 85.03ZM5.69 59.40L24.77 59.40L24.77 54.22L5.69 54.22ZM24.77 44.71L5.69 44.71L5.69 49.97L24.77 49.97ZM21.24 31.82C19.94 29.38 17.21 25.49 14.90 22.61L9.86 25.49C12.02 28.37 14.76 32.47 15.91 35.14L3.02 35.14L3.02 40.46L27.00 40.46L27.00 35.14L16.20 35.14ZM50.98 72.65L50.98 68.11L58.68 68.11L58.68 72.65ZM37.37 68.11L44.86 68.11L44.86 72.65L37.37 72.65ZM44.86 59.40L44.86 63.72L37.37 63.72L37.37 59.40ZM58.68 59.40L58.68 63.72L50.98 63.72L50.98 59.40ZM43.20 41.98L52.56 41.98L52.56 46.08L43.20 46.08ZM43.20 33.62L52.56 33.62L52.56 37.30L43.20 37.30ZM68.98 72.65L65.09 72.65L65.09 54.43L50.98 54.43L50.98 51.05L68.83 51.05L68.83 46.08L58.82 46.08L58.82 41.98L66.10 41.98L66.10 37.30L58.82 37.30L58.82 33.62L67.32 33.62L67.32 28.73L58.82 28.73L58.82 23.18L52.56 23.18L52.56 28.73L43.20 28.73L43.20 23.18L37.15 23.18L37.15 28.73L28.66 28.73L28.66 33.62L37.15 33.62L37.15 37.30L30.53 37.30L30.53 41.98L37.15 41.98L37.15 46.08L27.14 46.08L27.14 51.05L44.86 51.05L44.86 54.43L31.18 54.43L31.18 72.65L27.14 72.65L27.14 77.54L31.18 77.54L31.18 89.28L37.37 89.28L37.37 77.54L58.68 77.54L58.68 82.66C58.68 83.52 58.39 83.81 57.38 83.81C56.52 83.88 53.06 83.88 49.75 83.74C50.54 85.25 51.34 87.62 51.55 89.14C56.74 89.14 60.12 89.14 62.28 88.20C64.44 87.26 65.09 85.68 65.09 82.73L65.09 77.54L68.98 77.54Z"/></svg>
