<svg xmlns="http://www.w3.org/2000/svg" xmlns:xlink="http://www.w3.org/1999/xlink" width="72.00000000000001" height="106.56000000000002"><path fill="red" stroke="red" d="M28.73 35.14L15.98 35.14L21.10 32.18C20.02 29.59 17.78 25.70 15.84 22.75L10.80 25.34C12.67 28.37 14.76 32.47 15.84 35.14L3.10 35.14L3.10 40.46L28.73 40.46ZM26.35 44.71L6.05 44.71L6.05 49.97L26.35 49.97ZM6.05 59.47L26.35 59.47L26.35 54.29L6.05 54.29ZM20.88 69.34L20.88 79.63L11.52 79.63L11.52 69.34ZM26.57 63.94L5.90 63.94L5.90 88.27L11.52 88.27L11.52 85.03L26.57 85.03ZM48.10 47.59L39.10 47.59L39.10 44.57L48.10 44.57ZM48.10 54.36L39.10 54.36L39.10 51.26L48.10 51.26ZM48.10 61.13L39.10 61.13L39.10 57.96L48.10 57.96ZM33.55 66.60L39.10 66.60L39.10 65.30L68.47 65.30L68.47 61.13L53.64 61.13L53.64 57.96L65.02 57.96L65.02 54.36L53.64 54.36L53.64 51.26L65.02 51.26L65.02 47.59L53.64 47.59L53.64 44.57L66.89 44.57L66.89 40.25L54.22 40.25C53.86 38.95 53.28 37.37 52.70 35.93L58.32 35.93L58.32 32.26L68.54 32.26L68.54 27.07L58.32 27.07L58.32 23.11L52.34 23.11L52.34 34.99L52.20 34.63L46.22 36.22C46.73 37.44 47.23 38.88 47.66 40.25L39.60 40.25C40.25 38.88 40.82 37.51 41.33 36.14L40.61 35.93L45.79 35.93L45.79 23.11L39.89 23.11L39.89 27.14L29.02 27.14L29.02 32.26L39.89 32.26L39.89 35.71L35.93 34.49C34.06 40.18 30.67 45.58 26.86 49.10C27.94 50.33 29.66 52.92 30.38 54.14C31.46 52.99 32.47 51.77 33.55 50.47ZM56.52 72.65C54.50 74.74 51.91 76.39 49.03 77.90C46.22 76.39 43.85 74.66 41.90 72.65ZM61.92 67.68L60.77 67.97L30.24 67.97L30.24 72.65L38.23 72.65L35.64 73.51C37.66 76.18 40.10 78.48 42.91 80.50C38.02 82.15 32.54 83.30 27.07 83.95C28.22 85.32 29.45 87.77 30.02 89.35C36.65 88.27 43.13 86.54 48.89 83.95C54.00 86.47 59.90 88.20 66.17 89.21C66.89 87.62 68.62 85.18 69.91 83.88C64.73 83.30 59.62 82.15 55.22 80.64C59.62 77.76 63.29 74.16 65.74 69.70Z"/></svg>
