<svg xmlns="http://www.w3.org/2000/svg" xmlns:xlink="http://www.w3.org/1999/xlink" width="72.00000000000001" height="106.56000000000002"><path fill="red" stroke="red" d="M25.13 23.40C20.02 26.64 10.80 29.88 2.81 31.68C3.89 32.83 5.26 34.99 5.98 36.43C14.26 34.49 23.40 31.39 28.94 27.50ZM28.15 35.93C27.14 37.08 25.92 38.16 24.55 39.24C23.62 37.37 22.18 35.06 20.88 33.41L16.34 35.64C17.71 37.80 19.30 40.46 20.30 42.55C18.86 43.56 17.35 44.50 15.77 45.43C14.47 42.98 12.53 39.89 10.66 37.51L6.05 39.74C7.85 42.19 9.86 45.50 10.94 48.02C8.42 49.32 5.83 50.54 3.24 51.55C4.39 52.63 5.83 54.65 6.70 55.94C10.80 54.14 15.05 52.13 18.94 49.75C19.80 50.98 20.52 52.27 21.02 53.50C16.85 57.53 9.14 62.06 3.31 64.30C4.46 65.52 5.98 67.61 6.70 69.05C11.81 66.46 18.22 62.28 22.90 58.32C23.33 59.83 23.62 61.27 23.90 62.71C19.01 68.40 10.01 74.81 2.66 77.83C3.82 79.06 5.33 81.22 6.05 82.66C12.10 79.63 19.15 74.52 24.48 69.34C24.55 74.95 23.69 79.63 22.25 81.07C21.10 82.58 20.09 82.73 18.29 82.73C16.92 82.73 14.54 82.73 12.17 82.44C13.18 84.17 13.68 86.69 13.82 88.42C15.91 88.56 18.07 88.56 19.58 88.56C22.97 88.49 25.06 87.70 27.29 85.25C32.11 80.28 32.54 58.90 23.62 46.87C26.86 44.64 29.81 42.26 32.26 39.67ZM37.15 62.06C41.90 60.12 46.51 57.46 50.62 54.36C54.65 57.46 59.33 60.12 64.37 62.06ZM41.98 79.06L41.98 67.90L59.18 67.90L59.18 79.06ZM59.18 36.36C56.95 40.18 53.93 43.63 50.47 46.58C47.16 43.63 44.42 40.18 42.55 36.36ZM64.01 30.10L62.86 30.31L45.79 30.31C46.87 28.37 47.81 26.35 48.53 24.34L42.84 22.68C39.82 30.53 34.70 38.16 28.94 42.91C30.10 44.21 32.04 46.87 32.76 48.10C34.85 46.15 36.86 43.92 38.81 41.47C40.68 44.57 43.06 47.52 45.72 50.18C40.82 53.42 35.35 55.94 29.66 57.60C30.60 59.04 31.90 62.14 32.26 63.86C33.55 63.50 34.78 63.00 36.07 62.50L36.07 88.56L41.98 88.56L41.98 84.96L59.18 84.96L59.18 88.42L65.38 88.42L65.38 62.42C66.31 62.78 67.18 63.14 68.18 63.43C68.33 61.56 69.12 58.54 69.91 56.81C64.51 55.51 59.69 53.21 55.37 50.40C60.77 45.50 65.02 39.53 67.82 32.47Z"/></svg>
