<svg xmlns="http://www.w3.org/2000/svg" xmlns:xlink="http://www.w3.org/1999/xlink" width="72.00000000000001" height="106.56000000000002"><path fill="red" stroke="red" d="M19.58 70.63L53.21 70.63L53.21 74.45L19.58 74.45ZM40.82 46.58L40.82 51.34L24.77 51.34C26.71 49.90 28.08 48.31 29.09 46.58ZM24.91 38.59C24.77 39.96 24.55 41.18 24.05 42.41L15.70 42.41C15.91 41.18 16.13 39.89 16.34 38.59ZM31.03 30.89L40.82 30.89L40.82 34.42L31.03 34.42ZM56.66 30.89L56.66 34.42L47.16 34.42L47.16 30.89ZM40.82 42.41L30.60 42.41C30.89 41.18 31.03 39.96 31.03 38.59L40.82 38.59ZM60.70 46.58C60.48 47.88 60.26 48.46 59.98 48.82C59.54 49.25 59.11 49.32 58.32 49.32C57.60 49.32 55.87 49.25 53.93 49.03C54.22 49.68 54.58 50.47 54.79 51.34L47.16 51.34L47.16 46.58ZM53.21 59.11L19.58 59.11L19.58 55.44L53.21 55.44ZM53.21 66.74L19.58 66.74L19.58 63.00L53.21 63.00ZM59.98 78.48L59.98 53.35C60.62 53.35 61.13 53.35 61.56 53.28C63.00 53.21 64.30 52.78 65.30 51.84C66.31 50.69 66.74 48.46 67.18 44.35C67.25 43.63 67.32 42.41 67.32 42.41L47.16 42.41L47.16 38.59L62.78 38.59L62.78 26.71L47.16 26.71L47.16 23.11L40.82 23.11L40.82 26.71L31.03 26.71L31.03 23.11L24.98 23.11L24.98 26.71L7.99 26.71L7.99 30.89L24.98 30.89L24.98 34.42L11.02 34.42C10.58 38.38 9.86 43.20 9.07 46.58L20.95 46.58C17.93 49.03 12.74 51.12 4.03 52.49C5.04 53.71 6.62 56.23 7.20 57.74C9.36 57.38 11.30 56.95 13.10 56.45L13.10 78.48L24.19 78.48C19.15 80.93 11.02 83.16 3.96 84.38C5.33 85.54 7.78 87.91 8.78 89.28C15.98 87.41 25.06 84.17 30.89 80.78L25.70 78.48L44.78 78.48L42.05 81.14C49.97 83.66 58.10 86.83 62.78 89.06L67.75 84.96C63.29 83.09 56.38 80.57 49.61 78.48Z"/></svg>
