<svg xmlns="http://www.w3.org/2000/svg" xmlns:xlink="http://www.w3.org/1999/xlink" width="72.00000000000001" height="106.56000000000002"><path fill="red" stroke="red" d="M33.77 45.22C34.63 46.37 35.57 47.81 36.00 48.82C45.94 45.43 49.46 39.74 50.83 31.54L59.11 31.54C58.61 37.66 58.03 40.25 57.31 41.11C56.74 41.69 56.16 41.76 55.15 41.76C54.14 41.76 51.70 41.76 48.96 41.47C49.90 42.98 50.54 45.36 50.69 47.02C53.71 47.09 56.66 47.09 58.18 46.94C60.05 46.73 61.27 46.30 62.50 45.00C64.08 43.27 64.87 38.95 65.59 28.66C65.66 27.86 65.74 26.28 65.74 26.28L35.71 26.28L35.71 31.54L44.86 31.54C43.78 36.94 41.26 40.75 34.56 43.20C32.98 39.96 29.95 35.64 27.29 32.47L22.10 34.20C23.18 35.57 24.26 37.08 25.34 38.66L15.98 40.97L15.98 31.32C21.96 30.67 28.30 29.74 33.19 28.37L30.17 23.40C24.98 24.91 16.63 26.35 9.58 27.07L9.58 27.14L9.58 39.31C9.58 42.12 7.99 43.56 6.84 44.28C7.78 45.36 9.14 47.74 9.58 49.10C11.02 48.17 13.32 47.38 28.15 43.27C28.80 44.57 29.38 45.72 29.74 46.66ZM19.44 69.41L53.21 69.41L53.21 73.44L19.44 73.44ZM19.44 61.42L53.21 61.42L53.21 65.30L19.44 65.30ZM19.44 53.42L53.21 53.42L53.21 57.38L19.44 57.38ZM12.96 77.69L59.90 77.69L59.90 49.18L12.96 49.18ZM24.91 78.41C19.94 80.93 11.30 83.09 3.96 84.46C5.40 85.61 7.70 87.98 8.78 89.35C15.98 87.55 25.06 84.38 30.96 81.14ZM42.84 81.86C50.11 84.10 57.67 87.05 61.99 89.14L67.46 85.25C62.57 83.16 54.36 80.28 46.94 78.12Z"/></svg>
