<svg xmlns="http://www.w3.org/2000/svg" xmlns:xlink="http://www.w3.org/1999/xlink" width="72.00000000000001" height="106.56000000000002"><path fill="red" stroke="red" d="M31.46 50.26L31.46 44.35L20.95 44.35L20.95 37.08L29.74 37.08C31.18 37.94 33.05 39.24 34.06 40.03L34.85 39.24L34.85 44.06L42.91 44.06C41.62 46.01 38.52 47.81 32.04 48.82C32.98 49.61 34.06 51.12 34.49 52.13C35.42 51.91 36.36 51.77 37.22 51.55C35.50 54.79 33.26 57.96 30.67 60.48L30.67 58.54L22.61 58.54L22.61 50.26ZM22.61 64.37L30.67 64.37L30.67 63.79C31.75 64.51 32.83 65.30 33.48 65.88L34.20 65.23L34.20 71.14L41.83 71.14C40.39 73.08 37.37 74.95 31.39 76.03C32.47 76.97 33.77 78.48 34.27 79.56C42.55 77.62 46.01 74.52 47.30 71.14L57.17 71.14L57.17 61.42L52.49 61.42L52.49 67.03L47.95 67.03L47.95 60.12L43.13 60.12L43.13 67.03L38.59 67.03L38.59 61.42L37.66 61.42C38.45 60.41 39.24 59.33 40.03 58.18L61.42 58.18C60.84 68.26 60.12 72.22 59.18 73.44C58.75 74.02 58.18 74.16 57.24 74.09C56.30 74.09 54.14 74.09 51.77 73.87C52.42 75.02 52.92 77.04 52.99 78.34C55.80 78.41 58.54 78.48 59.98 78.26C61.70 78.19 63.00 77.69 64.08 76.46C65.81 74.52 66.53 69.48 67.18 55.80C67.25 55.01 67.32 53.50 67.32 53.50L42.77 53.50C43.34 52.49 43.85 51.41 44.28 50.40L42.05 49.82C45.43 48.24 47.09 46.30 47.81 44.06L57.17 44.06L57.17 34.78L52.56 34.78L52.56 40.18L48.17 40.18L48.17 33.62L43.70 33.62L43.70 40.18L39.24 40.18L39.24 34.78L38.66 34.78C39.38 33.84 40.03 32.83 40.68 31.82L61.13 31.82C60.62 40.90 59.98 44.57 59.11 45.58C58.68 46.08 58.10 46.22 57.24 46.22C56.30 46.22 54.22 46.15 51.84 45.94C52.49 47.09 52.99 48.96 53.06 50.18C55.80 50.40 58.46 50.33 59.83 50.18C61.63 50.04 62.86 49.68 63.94 48.46C65.52 46.58 66.17 41.90 66.89 29.30C66.89 28.51 66.96 27.14 66.96 27.14L43.34 27.14C43.85 26.14 44.35 25.13 44.78 24.12L39.02 22.68C37.08 27.79 33.70 32.69 29.81 36.07L29.81 31.18L20.95 31.18L20.95 23.11L14.98 23.11L14.98 31.18L5.47 31.18L5.47 37.08L14.98 37.08L14.98 44.35L3.67 44.35L3.67 50.26L16.63 50.26L16.63 73.37C14.76 70.99 13.32 67.97 12.17 64.08C12.31 61.27 12.31 58.46 12.24 55.80L6.70 55.51C6.98 65.02 6.55 76.75 1.80 85.10C3.02 85.75 5.18 87.70 6.05 89.06C8.57 84.89 10.08 80.06 11.02 75.10C16.63 85.10 25.49 87.34 40.32 87.34L66.74 87.34C67.18 85.32 68.40 82.22 69.48 80.71C64.30 80.93 44.50 80.93 40.39 80.93C32.90 80.93 27.07 80.35 22.61 78.12Z"/></svg>
