<svg xmlns="http://www.w3.org/2000/svg" xmlns:xlink="http://www.w3.org/1999/xlink" width="72.00000000000001" height="106.56000000000002"><path fill="red" stroke="red" d="M55.37 38.74L61.34 38.74L61.34 33.98L68.69 33.98L68.69 28.66L61.34 28.66L61.34 23.18L55.37 23.18L55.37 28.66L49.82 28.66L49.82 33.98L55.37 33.98ZM10.94 31.90L20.38 31.90L20.38 42.98L10.94 42.98ZM19.22 74.74L19.22 63.43L26.21 63.43L26.21 57.53L19.22 57.53L19.22 48.82L25.85 48.82L25.85 26.06L5.76 26.06L5.76 48.82L13.97 48.82L13.97 76.32L10.58 77.26L10.58 54.65L5.62 54.65L5.62 78.70L2.45 79.49L3.82 85.82C10.37 83.74 19.22 80.93 27.43 78.26L26.71 72.50ZM47.52 47.45L55.44 47.45C53.71 49.39 51.84 51.26 49.90 53.06L47.52 53.06ZM58.61 73.73L42.19 73.73L42.19 69.55L58.61 69.55ZM42.19 82.30L42.19 78.12L58.61 78.12L58.61 82.30ZM68.98 58.39L68.98 53.06L58.03 53.06C61.63 49.25 64.87 45.14 67.61 40.82L62.14 38.59C60.55 40.97 58.90 43.34 56.95 45.58L56.95 42.26L47.52 42.26L47.52 36.79L42.19 36.79L42.19 33.98L47.52 33.98L47.52 28.66L42.19 28.66L42.19 23.18L36.29 23.18L36.29 28.66L28.80 28.66L28.80 33.98L36.29 33.98L36.29 38.74L41.40 38.74L41.40 42.26L30.82 42.26L30.82 47.45L41.40 47.45L41.40 53.06L27.72 53.06L27.72 58.39L43.56 58.39C37.87 62.86 31.61 66.60 25.13 69.48C26.35 70.70 28.30 73.22 29.16 74.52C31.54 73.37 33.91 72.00 36.22 70.63L36.22 89.21L42.19 89.21L42.19 87.19L58.61 87.19L58.61 88.99L64.80 88.99L64.80 64.73L44.86 64.73C47.52 62.78 50.11 60.62 52.49 58.39Z"/></svg>
