<svg xmlns="http://www.w3.org/2000/svg" xmlns:xlink="http://www.w3.org/1999/xlink" width="72.00000000000001" height="106.56000000000002"><path fill="red" stroke="red" d="M8.93 55.94L12.46 55.94L12.46 61.85L8.93 61.85ZM8.93 45.50L12.46 45.50L12.46 51.34L8.93 51.34ZM20.16 51.34L16.78 51.34L16.78 45.50L20.16 45.50ZM20.16 61.85L16.78 61.85L16.78 55.94L20.16 55.94ZM25.78 77.11L25.78 71.64L17.21 71.64L17.21 66.67L24.48 66.67L24.48 40.68L17.21 40.68L17.21 36.00L25.70 36.00L25.70 30.53L17.21 30.53L17.21 23.11L11.95 23.11L11.95 30.53L3.53 30.53L3.53 36.00L11.95 36.00L11.95 40.68L4.75 40.68L4.75 66.67L11.95 66.67L11.95 71.64L2.88 71.64L2.88 77.11L11.95 77.11L11.95 89.28L17.21 89.28L17.21 77.11ZM61.34 42.26C60.77 49.39 59.90 56.09 58.39 62.14C56.88 56.16 55.87 50.04 55.22 44.35C55.37 43.70 55.58 42.98 55.73 42.26ZM41.18 66.46L41.18 71.21C38.02 72.58 35.21 73.94 32.83 74.81C33.26 71.28 33.41 67.82 33.41 64.94C35.42 66.10 37.66 67.68 38.81 68.90ZM41.18 58.25L41.18 64.44C39.74 63.43 37.73 62.21 36.07 61.27L33.41 63.79L33.41 58.25ZM69.26 42.26L69.26 36.58L56.81 36.58C57.53 32.47 58.10 28.15 58.54 23.98L52.92 23.11C52.06 32.54 50.76 41.90 48.31 49.18C47.45 46.08 45.36 41.47 43.63 37.94L39.24 39.46C39.82 40.75 40.39 42.19 41.04 43.63L33.62 44.57C35.06 41.76 36.65 38.52 37.94 35.14L48.46 35.14L48.46 29.74L39.96 29.74C40.61 28.01 41.11 26.42 41.62 24.70L35.93 23.54C35.50 25.56 34.92 27.72 34.34 29.74L27.43 29.74L27.43 35.14L32.40 35.14C31.25 38.16 30.24 40.54 29.66 41.47C28.58 43.78 27.65 45.22 26.50 45.43C27.14 46.94 28.08 49.54 28.37 50.69C29.52 50.11 31.46 49.82 42.84 48.02C43.20 49.18 43.56 50.18 43.85 51.12L48.31 49.25C47.81 50.98 47.16 52.49 46.44 54.00L46.44 53.21L28.15 53.21L28.15 64.58C28.15 70.70 27.79 79.13 24.55 85.46C25.70 86.11 27.94 87.91 28.87 88.99C30.82 85.32 31.97 80.78 32.62 76.25L34.34 79.78C36.58 78.70 38.88 77.54 41.18 76.32L41.18 82.80C41.18 83.45 41.04 83.59 40.46 83.59C39.89 83.66 38.38 83.66 36.65 83.59C37.30 85.10 37.87 87.26 38.02 88.78C40.90 88.78 43.06 88.70 44.57 87.77C46.08 86.90 46.44 85.39 46.44 82.87L46.44 54.65C47.66 55.73 49.54 57.96 50.26 59.04C50.98 57.67 51.62 56.09 52.20 54.58C53.06 59.83 54.22 65.38 55.80 70.63C53.57 76.46 50.62 81.43 46.58 85.32C47.88 86.18 49.82 88.13 50.69 89.21C53.86 86.04 56.45 82.22 58.61 77.98C60.41 82.15 62.78 86.18 65.66 89.35C66.53 87.77 68.54 85.39 69.77 84.38C66.24 80.93 63.43 76.25 61.42 71.14C64.22 62.78 65.81 52.99 66.67 42.26Z"/></svg>
