<svg xmlns="http://www.w3.org/2000/svg" xmlns:xlink="http://www.w3.org/1999/xlink" width="72.00000000000001" height="106.56000000000002"><path fill="red" stroke="red" d="M67.90 56.52L67.90 50.18L50.47 50.18C51.98 47.02 53.71 43.06 55.22 39.46L48.89 37.94L63.72 37.94L63.72 31.82L40.82 31.82C39.67 29.02 37.87 25.49 36.29 22.68L30.10 24.62C31.18 26.78 32.40 29.45 33.41 31.82L9.00 31.82L9.00 37.94L48.17 37.94C47.23 41.62 45.36 46.58 43.78 50.18L25.34 50.18L28.51 49.10C27.79 46.15 25.70 41.47 23.69 37.94L17.57 39.89C19.22 43.06 20.88 47.23 21.74 50.18L4.18 50.18L4.18 56.52L32.33 56.52L32.33 66.74L7.56 66.74L7.56 73.08L32.33 73.08L32.33 89.14L39.31 89.14L39.31 73.08L64.94 73.08L64.94 66.74L39.31 66.74L39.31 56.52Z"/></svg>
