<svg xmlns="http://www.w3.org/2000/svg" xmlns:xlink="http://www.w3.org/1999/xlink" width="72.00000000000001" height="106.56000000000002"><path fill="red" stroke="red" d="M56.23 47.09C54.65 51.26 52.70 55.08 50.18 58.46C46.66 55.51 43.13 52.63 39.89 50.11L35.50 54.00C38.88 56.74 42.62 59.90 46.30 63.14C41.90 67.61 36.72 70.92 31.18 72.94C32.47 74.30 34.20 76.90 34.99 78.62C40.97 76.10 46.44 72.43 51.12 67.61C55.37 71.64 59.11 75.53 61.56 78.55L66.53 73.94C63.86 70.78 59.76 66.82 55.22 62.78C59.33 57.24 62.50 50.40 64.30 42.34L60.12 40.90L58.90 41.11L33.98 41.11L33.98 32.76L63.86 32.76L63.86 26.71L27.50 26.71L27.50 42.48C27.50 51.84 27.00 65.52 21.74 75.31C23.40 75.96 26.28 77.54 27.58 78.62C32.33 69.62 33.62 57.02 33.91 47.09ZM17.78 35.42C16.85 32.40 15.12 27.79 13.82 24.12L7.70 25.78C8.86 29.52 10.66 34.42 11.52 37.51ZM20.45 55.51L19.44 55.80L14.33 55.80C16.20 50.90 18.36 45.14 20.02 40.18L3.24 40.18L3.24 46.22L11.81 46.22C9.94 51.70 7.78 57.46 5.98 61.63L15.77 61.63C14.54 66.46 12.67 71.42 10.73 75.17C8.14 76.32 5.11 79.42 2.16 83.30L6.70 89.57C8.57 85.18 11.09 80.50 12.67 80.50C14.18 80.50 16.78 83.02 19.66 84.67C24.91 87.70 31.03 88.49 40.39 88.49C48.89 88.49 61.92 88.06 67.46 87.70C67.54 85.90 68.69 82.66 69.48 80.78C61.49 81.79 49.46 82.44 40.68 82.44C32.33 82.44 25.70 82.01 20.81 78.98C18.94 77.83 17.64 76.82 16.49 76.10C19.37 70.63 21.82 63.58 23.47 56.81Z"/></svg>
