<svg xmlns="http://www.w3.org/2000/svg" xmlns:xlink="http://www.w3.org/1999/xlink" width="72.00000000000001" height="106.56000000000002"><path fill="red" stroke="red" d="M55.30 35.93L55.30 44.14L34.49 44.14L34.49 35.93ZM57.82 60.91L57.82 71.14L34.49 71.14L34.49 60.91ZM34.49 76.75L64.37 76.68L64.37 55.37L34.49 55.37L34.49 49.68L61.78 49.68L61.78 30.46L46.73 30.46C47.66 28.58 48.60 26.28 49.46 24.12L41.62 22.97C41.26 25.13 40.54 28.01 39.67 30.46L28.01 30.46L28.01 76.75L34.49 76.75ZM17.78 35.42C16.85 32.40 15.12 27.79 13.82 24.12L7.70 25.78C8.86 29.52 10.66 34.49 11.52 37.58ZM20.45 55.51L19.44 55.80L14.33 55.80C16.20 50.90 18.36 45.14 20.02 40.18L3.24 40.18L3.24 46.22L11.88 46.22C9.94 51.70 7.78 57.46 5.98 61.63L15.77 61.63C14.54 66.46 12.67 71.42 10.73 75.17C8.14 76.32 5.11 79.42 2.16 83.30L6.70 89.57C8.64 85.18 11.09 80.50 12.67 80.50C14.18 80.50 16.78 83.02 19.66 84.67C24.91 87.70 31.03 88.49 40.39 88.49C48.89 88.49 61.99 88.06 67.54 87.70C67.61 85.90 68.76 82.66 69.55 80.78C61.56 81.79 49.46 82.44 40.68 82.44C32.33 82.44 25.78 82.01 20.81 78.98C19.01 77.83 17.64 76.82 16.49 76.03C19.37 70.63 21.82 63.58 23.47 56.81Z"/></svg>
