<svg xmlns="http://www.w3.org/2000/svg" xmlns:xlink="http://www.w3.org/1999/xlink" width="72.00000000000001" height="106.56000000000002"><path fill="red" stroke="red" d="M17.50 34.99C16.49 31.90 14.69 27.07 13.32 23.33L7.20 25.13C8.42 28.87 10.15 33.98 11.02 37.15ZM34.56 37.66C37.73 35.35 40.68 32.69 43.20 29.95C46.51 33.05 49.68 35.57 52.70 37.66ZM18.65 55.87L17.64 56.16L13.82 56.16C15.70 51.26 17.71 45.50 19.37 40.39C20.66 41.69 22.10 43.42 22.82 44.64C26.28 43.06 29.74 41.04 32.98 38.81L32.98 42.26L53.57 42.26L53.57 38.23C57.60 40.90 61.42 42.91 65.09 44.50C65.88 42.77 67.61 40.61 69.12 39.38C62.21 36.79 54.43 33.05 46.51 25.92C46.94 25.42 47.38 24.91 47.66 24.34L42.55 22.10C37.51 29.59 28.01 36.22 18.86 39.96L19.08 40.18L3.53 40.18L3.53 46.22L10.80 46.22C8.93 51.84 6.77 57.67 4.97 61.92L14.33 61.92C13.18 66.82 11.45 71.93 9.58 75.82C7.34 77.33 4.75 80.14 2.30 83.38L6.84 89.57C8.78 85.18 11.30 80.50 12.89 80.50C14.47 80.50 17.06 83.02 19.94 84.67C25.20 87.70 31.39 88.49 40.82 88.49C49.25 88.49 62.42 88.06 67.97 87.70C68.11 85.90 69.19 82.58 69.91 80.78C61.99 81.79 49.90 82.44 41.11 82.44C32.62 82.44 26.06 82.01 21.10 78.98C18.72 77.54 17.21 76.32 15.84 75.53C18.36 70.20 20.38 63.43 21.74 57.02ZM64.44 45.86L58.90 45.86L58.90 72.07C58.90 72.86 58.54 73.15 57.60 73.15C56.81 73.22 53.42 73.22 50.18 73.08C50.83 74.59 51.34 76.46 51.55 77.90C56.38 77.90 59.69 77.90 61.70 77.11C63.79 76.39 64.44 75.10 64.44 72.22ZM48.02 47.30L48.02 67.61L52.99 67.61L52.99 47.30ZM29.45 62.86C29.52 61.27 29.59 59.76 29.59 58.32L38.38 58.32L38.38 62.86ZM38.38 49.90L38.38 54.29L29.59 54.29L29.59 49.90ZM43.63 45.86L24.41 45.86L24.41 57.82C24.41 63.07 24.05 69.70 20.66 74.74C21.89 75.31 24.12 76.97 24.98 77.90C27.14 74.81 28.37 70.85 28.94 66.89L38.38 66.89L38.38 72.29C38.38 72.94 38.16 73.15 37.51 73.15C36.94 73.15 35.14 73.15 33.19 73.08C33.84 74.38 34.56 76.25 34.78 77.62C37.94 77.62 40.10 77.62 41.69 76.75C43.20 75.96 43.63 74.74 43.63 72.29Z"/></svg>
