<svg xmlns="http://www.w3.org/2000/svg" xmlns:xlink="http://www.w3.org/1999/xlink" width="72.00000000000001" height="106.56000000000002"><path fill="red" stroke="red" d="M51.62 49.39L37.01 49.39L39.46 48.82C39.10 47.02 37.87 44.50 36.65 42.48L52.42 42.48C51.62 44.42 50.54 47.02 49.68 48.82ZM30.38 43.06C31.54 45.00 32.62 47.52 33.12 49.39L23.26 49.39L23.26 54.36L41.54 54.36L41.54 58.39L25.78 58.39L25.78 63.22L41.54 63.22L41.54 67.68L22.75 67.68L22.75 72.72L41.54 72.72L41.54 79.34L48.10 79.34L48.10 72.72L67.46 72.72L67.46 67.68L48.10 67.68L48.10 63.22L64.58 63.22L64.58 58.39L48.10 58.39L48.10 54.36L67.25 54.36L67.25 49.39L55.73 49.39C56.81 47.66 58.03 45.36 59.26 43.13L56.74 42.48L68.11 42.48L68.11 37.44L48.10 37.44L48.10 32.90L63.58 32.90L63.58 28.01L48.10 28.01L48.10 23.11L41.54 23.11L41.54 28.01L26.35 28.01L26.35 32.90L41.54 32.90L41.54 37.44L21.96 37.44L21.96 42.48L32.83 42.48ZM16.99 34.99C16.06 31.90 14.40 27.07 13.03 23.33L7.20 25.13C8.28 28.94 10.08 34.06 10.94 37.15ZM18.65 55.87L17.64 56.16L13.61 56.16C15.34 51.19 17.42 45.29 18.94 40.10L3.46 40.10L3.46 46.22L10.73 46.22C8.86 51.84 6.77 57.67 4.97 61.92L14.26 61.92C13.10 66.82 11.45 72.00 9.50 75.89C7.27 77.40 4.68 80.14 2.23 83.38L6.77 89.57C8.71 85.18 11.23 80.57 12.82 80.57C14.40 80.57 16.99 83.02 19.87 84.67C25.13 87.70 31.32 88.49 40.75 88.49C49.18 88.49 62.35 88.06 67.90 87.70C68.04 85.90 69.12 82.58 69.91 80.86C61.92 81.79 49.82 82.44 41.04 82.44C32.62 82.44 25.99 82.01 21.02 78.98C18.65 77.62 17.14 76.39 15.77 75.60C18.36 70.20 20.30 63.43 21.67 57.02Z"/></svg>
