<svg xmlns="http://www.w3.org/2000/svg" xmlns:xlink="http://www.w3.org/1999/xlink" width="72.00000000000001" height="106.56000000000002"><path fill="red" stroke="red" d="M29.30 37.73L29.30 43.78L13.82 43.78L13.82 37.73ZM13.82 56.02L13.82 49.54L29.30 49.54L29.30 56.02ZM22.46 66.17C23.54 67.90 24.70 69.91 25.78 71.93L13.82 76.39L13.82 61.70L35.64 61.70L35.64 32.11L24.05 32.11L26.42 31.03C25.42 28.80 23.33 25.34 21.31 22.90L15.77 25.20C17.28 27.22 18.79 29.95 19.80 32.11L7.34 32.11L7.34 74.88C7.34 78.34 5.76 80.42 4.54 81.43C5.54 82.51 7.34 84.96 7.99 86.40C9.58 85.03 12.17 83.88 28.58 77.33C29.95 80.14 31.10 82.80 31.75 84.89L37.66 82.08C35.93 77.26 31.61 69.55 27.79 63.72ZM61.92 27.43L60.98 27.72L41.33 27.72L41.33 89.06L47.74 89.06L47.74 33.91L58.03 33.91C56.23 39.17 54.00 45.07 51.48 51.26C57.82 58.18 60.55 63.00 60.55 67.25C60.55 69.70 59.98 71.93 58.46 72.86C57.74 73.30 56.66 73.51 55.51 73.58C54.00 73.58 51.62 73.58 49.25 73.37C50.33 75.10 51.12 77.83 51.19 79.49C53.57 79.70 56.16 79.70 58.10 79.49C59.90 79.20 61.63 78.62 62.78 77.90C65.52 75.96 66.89 72.14 66.89 67.54C66.89 62.71 64.30 57.31 58.03 50.33C61.20 43.27 64.15 36.36 66.67 30.10Z"/></svg>
