<svg xmlns="http://www.w3.org/2000/svg" xmlns:xlink="http://www.w3.org/1999/xlink" width="72.00000000000001" height="106.56000000000002"><path fill="red" stroke="red" d="M55.66 66.02C53.42 61.70 48.17 55.58 43.56 51.19L38.88 54.72C43.42 59.26 48.53 65.66 50.54 70.06ZM12.60 72.50L26.50 72.50L26.50 67.68L12.60 67.68ZM10.66 78.84L10.66 61.85C11.45 62.42 12.46 63.36 12.89 63.94C16.92 60.05 17.86 54.50 17.86 50.26L17.86 44.57L21.10 44.57L21.10 57.24C21.10 60.98 21.96 61.85 24.91 61.85L27.86 61.85L28.37 61.85L28.37 78.84ZM14.40 44.57L14.40 50.18C14.40 53.64 13.90 57.82 10.66 61.13L10.66 44.57ZM17.64 31.46L21.31 31.46L21.31 38.95L17.64 38.95ZM28.37 58.10L28.30 58.03C28.15 58.18 27.94 58.25 27.22 58.25L25.27 58.25C24.55 58.25 24.55 58.10 24.55 57.17L24.55 44.57L28.37 44.57ZM67.10 34.85L47.30 34.85C48.60 31.46 49.68 28.01 50.54 24.41L44.35 23.11C42.26 32.47 38.59 41.47 33.70 47.23L33.70 38.95L25.99 38.95L25.99 31.46L35.42 31.46L35.42 25.85L4.03 25.85L4.03 31.46L13.10 31.46L13.10 38.95L5.54 38.95L5.54 88.92L10.66 88.92L10.66 84.17L28.37 84.17L28.37 87.91L33.70 87.91L33.70 47.66C35.28 48.53 37.73 50.33 38.81 51.26C41.04 48.46 43.06 44.93 44.93 40.97L60.84 40.97C60.26 68.76 59.40 79.34 57.53 81.58C56.88 82.51 56.09 82.80 54.86 82.80C53.28 82.80 49.61 82.80 45.58 82.44C46.73 84.24 47.52 86.98 47.66 88.70C51.41 88.92 55.22 88.99 57.53 88.70C59.98 88.34 61.63 87.62 63.22 85.39C65.74 82.01 66.38 70.92 67.10 38.02Z"/></svg>
