<svg xmlns="http://www.w3.org/2000/svg" xmlns:xlink="http://www.w3.org/1999/xlink" width="72.00000000000001" height="106.56000000000002"><path fill="red" stroke="red" d="M12.60 72.79L28.44 72.79L28.44 67.54L12.60 67.54ZM22.61 40.03L18.43 40.03L18.43 31.68L22.61 31.68ZM31.03 56.88C30.89 56.95 30.60 57.02 30.02 57.02L27.79 57.02C27.00 57.02 26.86 56.88 26.86 55.87L26.86 45.65L31.03 45.65ZM10.01 78.84L10.01 61.78C10.94 62.28 12.31 63.58 12.96 64.30C17.57 60.62 18.65 55.30 18.65 50.98L18.65 45.65L22.90 45.65L22.90 55.94C22.90 60.19 23.90 61.20 27.29 61.20L30.74 61.20L31.03 61.20L31.03 78.84ZM14.62 45.65L14.62 50.90C14.62 54.22 13.97 58.32 10.01 61.56L10.01 45.65ZM3.60 31.68L13.18 31.68L13.18 40.03L4.75 40.03L4.75 89.06L10.01 89.06L10.01 84.10L31.03 84.10L31.03 88.06L36.50 88.06L36.50 40.03L27.94 40.03L27.94 31.68L37.51 31.68L37.51 26.06L3.60 26.06ZM50.33 82.22C47.38 82.22 46.87 81.72 46.87 78.98L46.87 55.73L66.74 55.73L66.74 26.42L40.03 26.42L40.03 32.83L60.26 32.83L60.26 49.32L40.25 49.32L40.25 79.06C40.25 86.47 42.41 88.42 49.39 88.42L60.19 88.42C66.89 88.42 68.62 85.03 69.41 73.22C67.61 72.79 64.87 71.64 63.36 70.49C63.00 80.42 62.50 82.22 59.62 82.22Z"/></svg>
