<svg xmlns="http://www.w3.org/2000/svg" xmlns:xlink="http://www.w3.org/1999/xlink" width="72.00000000000001" height="106.56000000000002"><path fill="red" stroke="red" d="M34.49 70.85L56.88 70.85L56.88 65.02L34.49 65.02ZM37.87 50.54L37.87 56.38L55.22 56.38L55.22 50.54ZM9.58 41.26C12.60 38.66 15.55 35.64 18.14 32.33C22.32 35.28 27.00 38.81 30.02 41.26ZM44.64 35.42C46.22 31.97 47.66 28.22 48.82 24.55L42.12 22.97C39.53 31.39 35.35 40.10 30.31 45.79L30.31 41.47L32.83 35.93C30.02 33.62 25.56 30.60 21.38 27.79C21.89 26.93 22.46 26.06 22.97 25.13L18.14 22.75C14.62 28.66 8.64 34.13 3.02 37.66C3.89 39.31 5.26 42.91 5.54 44.42C6.48 43.78 7.42 43.06 8.35 42.34L8.35 46.94L16.06 46.94L16.06 53.50L4.25 53.50L4.25 59.33L16.06 59.33L16.06 79.42C11.23 80.21 6.84 80.86 3.31 81.36L4.46 87.55C12.60 86.18 23.76 84.31 34.34 82.44L34.06 76.54C30.10 77.18 25.99 77.90 22.03 78.55L22.03 59.33L32.69 59.33L32.69 53.50L22.03 53.50L22.03 46.94L30.31 46.94L30.31 46.73C31.97 47.74 34.34 49.54 35.50 50.47C37.58 47.95 39.60 44.93 41.54 41.47L61.27 41.47C60.26 68.76 59.04 79.34 56.81 81.72C56.09 82.73 55.30 82.94 53.93 82.94C52.34 82.94 48.67 82.94 44.50 82.51C45.65 84.31 46.30 86.98 46.44 88.78C50.33 88.92 54.29 89.06 56.66 88.78C59.26 88.42 60.91 87.70 62.57 85.54C65.45 81.94 66.53 70.78 67.75 38.66C67.75 37.73 67.82 35.42 67.82 35.42ZM28.51 75.60C29.81 72.50 31.32 67.68 32.69 63.50L27.29 62.14C26.64 65.74 25.13 71.06 23.98 74.30ZM5.76 63.86C6.77 67.97 8.06 73.30 8.50 76.68L13.46 75.31C12.89 71.93 11.66 66.74 10.44 62.71Z"/></svg>
