<svg xmlns="http://www.w3.org/2000/svg" xmlns:xlink="http://www.w3.org/1999/xlink" width="72.00000000000001" height="106.56000000000002"><path fill="red" stroke="red" d="M21.53 77.47L21.53 59.26L30.17 59.26L30.17 53.50L21.53 53.50L21.53 46.73L27.79 46.73L27.79 41.04L11.09 41.04C13.90 38.45 16.42 35.50 18.72 32.33C22.75 34.78 26.93 37.73 29.52 39.96L32.26 34.70C29.81 32.54 25.85 30.02 21.82 27.86C22.46 26.86 23.04 25.92 23.47 24.98L18.07 22.90C14.47 29.52 8.28 35.86 2.30 39.89C3.24 41.40 4.68 44.78 5.11 46.15C6.48 45.22 7.85 44.06 9.22 42.77L9.22 46.73L15.77 46.73L15.77 53.50L6.05 53.50L6.05 59.26L15.77 59.26L15.77 78.70C11.45 79.56 7.56 80.35 4.46 80.93L6.12 87.34C13.03 85.68 22.18 83.52 30.74 81.36L30.17 75.67ZM7.20 63.79C8.21 67.97 9.29 73.37 9.43 76.90L14.04 75.67C13.75 72.22 12.67 66.89 11.52 62.78ZM26.93 74.95C28.01 71.78 29.16 66.89 30.31 62.71L25.49 61.42C25.06 65.02 23.90 70.34 23.04 73.80ZM43.92 72.43L43.92 62.50L57.74 62.50L57.74 72.43ZM57.74 33.19L57.74 41.83L43.92 41.83L43.92 33.19ZM43.92 47.74L57.74 47.74L57.74 56.66L43.92 56.66ZM69.05 72.43L64.08 72.43L64.08 33.19L68.26 33.19L68.26 27.14L33.55 27.14L33.55 33.19L37.73 33.19L37.73 72.43L31.68 72.43L31.68 78.70L57.74 78.70L57.74 89.21L64.08 89.21L64.08 78.70L69.05 78.70Z"/></svg>
