<svg xmlns="http://www.w3.org/2000/svg" xmlns:xlink="http://www.w3.org/1999/xlink" width="72.00000000000001" height="106.56000000000002"><path fill="red" stroke="red" d="M19.87 59.33L29.09 59.33L29.09 53.64L19.87 53.64L19.87 46.80L26.78 46.80L26.78 41.18L10.58 41.18C12.96 38.59 15.19 35.64 17.14 32.62C21.46 35.50 25.85 39.10 28.51 42.05L31.39 36.50C28.73 33.91 24.41 30.60 20.02 27.86C20.52 26.86 21.02 25.92 21.46 24.98L16.56 22.68C13.32 29.45 7.70 35.86 2.38 39.96C3.17 41.62 4.46 45.29 4.90 46.73C6.05 45.79 7.13 44.78 8.28 43.63L8.28 46.80L14.47 46.80L14.47 53.64L4.39 53.64L4.39 59.33L14.47 59.33L14.47 78.84C10.30 79.63 6.48 80.35 3.53 80.93L4.90 86.90C11.66 85.32 20.74 83.30 29.38 81.29L29.09 75.89C25.99 76.54 22.90 77.18 19.87 77.76ZM5.40 63.72C6.48 67.82 7.56 73.15 7.85 76.68L12.24 75.31C11.88 71.93 10.73 66.67 9.50 62.57ZM24.98 75.74C26.21 72.58 27.58 67.54 28.87 63.22L24.12 61.85C23.54 65.59 22.25 70.99 21.24 74.52ZM39.82 62.93C43.56 60.77 47.09 58.10 50.47 55.08C53.57 57.96 57.02 60.77 60.91 62.93ZM41.40 80.71L41.40 68.83L58.46 68.83L58.46 80.71ZM43.92 36.07L57.67 36.07C55.80 39.82 53.21 43.34 50.33 46.58C47.45 43.42 45.07 40.18 43.42 37.01ZM61.78 30.17L60.62 30.46L47.23 30.46C48.10 28.58 49.03 26.64 49.82 24.70L43.92 22.90C40.90 31.03 35.57 38.59 29.45 43.42C30.74 44.50 33.05 46.87 33.98 48.10C36.00 46.22 38.02 44.14 39.96 41.69C41.69 44.64 43.78 47.66 46.30 50.62C41.33 55.08 35.78 58.61 30.31 60.84C31.46 62.06 33.12 64.44 33.91 66.02C34.49 65.74 35.06 65.45 35.71 65.16L35.71 88.92L41.40 88.92L41.40 86.62L58.46 86.62L58.46 88.85L64.44 88.85L64.44 64.73L65.59 65.23C66.38 63.58 68.18 60.98 69.48 59.62C63.86 57.60 58.90 54.50 54.65 50.76C59.33 45.50 63.14 39.38 65.74 32.33Z"/></svg>
