<svg xmlns="http://www.w3.org/2000/svg" xmlns:xlink="http://www.w3.org/1999/xlink" width="72.00000000000001" height="106.56000000000002"><path fill="red" stroke="red" d="M33.19 39.38L43.42 38.45C44.42 41.11 45.58 43.49 46.87 45.58C42.05 47.81 36.58 49.54 31.10 50.76C32.26 51.84 34.13 54.22 34.92 55.51C40.03 54.07 45.22 52.20 50.11 49.90C53.35 53.35 57.31 55.37 61.56 55.37C66.10 55.37 68.04 53.64 68.90 46.51C67.46 46.15 65.59 45.29 64.37 44.21C64.08 48.46 63.58 49.90 61.85 49.90C59.62 49.90 57.46 48.82 55.37 46.87C58.82 44.71 61.99 42.26 64.30 39.46L58.68 37.58C56.95 39.53 54.79 41.33 52.13 42.91C51.19 41.47 50.33 39.82 49.54 37.94L68.26 36.36L67.82 31.10L59.69 31.82L63.00 27.86C60.98 26.28 57.02 24.41 53.93 23.18L50.76 26.78C53.86 28.15 57.74 30.24 59.69 31.82L47.88 32.76C47.09 29.81 46.58 26.64 46.44 23.26L40.46 23.26C40.68 26.78 41.18 30.17 41.98 33.26L32.76 34.06ZM49.82 58.03C53.21 59.40 57.67 61.49 59.90 62.93L63.14 58.90C60.84 57.38 56.38 55.58 53.06 54.43ZM19.87 59.33L29.09 59.33L29.09 53.64L19.87 53.64L19.87 46.80L26.78 46.80L26.78 41.18L10.58 41.18C12.96 38.59 15.19 35.71 17.14 32.62C21.46 35.57 25.85 39.17 28.51 42.05L31.39 36.50C28.73 33.91 24.41 30.60 20.02 27.86C20.52 26.86 21.02 25.92 21.46 24.98L16.56 22.68C13.32 29.45 7.70 35.86 2.38 39.96C3.17 41.62 4.46 45.29 4.90 46.73C6.05 45.79 7.13 44.78 8.28 43.63L8.28 46.80L14.47 46.80L14.47 53.64L4.39 53.64L4.39 59.33L14.47 59.33L14.47 78.84C10.30 79.63 6.48 80.35 3.53 80.93L4.90 86.90C11.66 85.32 20.74 83.30 29.38 81.29L29.09 75.89C25.99 76.54 22.90 77.18 19.87 77.76ZM5.40 63.72C6.48 67.90 7.56 73.15 7.85 76.68L12.24 75.31C11.88 72.00 10.73 66.67 9.50 62.57ZM24.98 75.74C26.21 72.58 27.58 67.61 28.87 63.22L24.12 61.92C23.54 65.66 22.25 71.06 21.24 74.52ZM58.61 68.90C56.81 71.35 54.29 73.51 51.41 75.46C50.40 73.66 49.32 71.64 48.46 69.34L68.98 67.54L68.47 62.21L46.87 64.15C46.08 61.06 45.58 57.74 45.36 54.22L39.38 54.22C39.60 57.89 40.18 61.42 40.90 64.66L32.18 65.45L32.69 70.78L42.41 69.91C43.56 73.08 44.86 75.89 46.44 78.48C41.47 81.00 35.86 82.94 30.17 84.38C31.25 85.46 33.12 87.98 33.84 89.28C39.24 87.70 44.64 85.54 49.61 82.87C53.14 86.83 57.38 89.21 61.85 89.21C66.67 89.21 68.62 87.19 69.55 79.34C68.11 78.91 66.17 78.05 64.87 76.90C64.66 81.86 64.01 83.66 62.21 83.66C59.69 83.66 57.17 82.22 54.72 79.78C58.46 77.18 61.78 74.16 64.30 70.78Z"/></svg>
