<svg xmlns="http://www.w3.org/2000/svg" xmlns:xlink="http://www.w3.org/1999/xlink" width="72.00000000000001" height="106.56000000000002"><path fill="red" stroke="red" d="M52.06 32.04L57.74 32.04L57.74 43.27C57.74 48.24 58.75 50.26 63.58 50.26L67.39 50.26C68.62 50.26 69.98 50.18 70.85 49.90C70.63 48.67 70.56 46.73 70.42 45.36C69.62 45.65 68.18 45.72 67.32 45.72L64.15 45.72C63.22 45.72 63.14 45.22 63.14 43.42L63.14 26.50L46.80 26.50L46.80 36.36C46.80 40.82 46.30 46.22 41.90 50.33C43.13 50.90 45.36 52.49 46.30 53.42C51.12 48.96 52.06 41.98 52.06 36.50ZM18.65 77.76L18.65 59.33L27.07 59.33L27.07 53.64L18.65 53.64L18.65 46.80L24.91 46.80L24.91 41.18L9.79 41.18C11.88 38.59 13.97 35.71 15.84 32.62C19.80 35.57 23.83 39.24 26.28 42.05L28.94 36.43C26.57 33.84 22.54 30.53 18.50 27.79C18.94 26.78 19.37 25.85 19.80 24.98L15.19 22.68C12.17 29.45 7.06 35.86 2.09 39.96C2.88 41.62 4.18 45.36 4.54 46.73C5.54 45.72 6.70 44.71 7.78 43.56L7.78 46.80L13.39 46.80L13.39 53.64L4.25 53.64L4.25 59.33L13.39 59.33L13.39 78.84C9.58 79.63 6.12 80.42 3.38 80.93L4.54 86.90C10.73 85.46 19.01 83.38 26.78 81.43L26.50 76.03ZM5.04 63.65C6.05 67.75 7.06 73.15 7.34 76.68L11.59 75.24C11.23 71.86 10.15 66.53 9.07 62.57ZM23.26 75.82C24.34 72.65 25.56 67.61 26.78 63.29L22.18 61.85C21.67 65.59 20.45 70.99 19.51 74.45ZM44.93 68.26C41.76 68.90 38.66 69.55 35.71 70.06L35.71 60.98L43.85 60.98L43.85 55.15L35.71 55.15L35.71 46.87L43.85 46.87L43.85 40.97L35.71 40.97L35.71 33.48C39.02 31.68 42.41 29.59 45.14 27.43L39.96 23.04C37.58 25.63 33.62 28.66 29.88 30.74L29.88 71.14L26.06 71.86L27.29 77.83L29.88 77.18L29.88 88.99L35.71 88.99L35.71 75.96C38.88 75.17 42.19 74.45 45.50 73.66ZM60.77 60.19C59.54 64.30 58.03 67.90 56.02 70.92C54.14 67.68 52.63 64.08 51.62 60.19ZM64.15 54.50L63.00 54.65L45.65 54.65L45.65 60.19L49.32 60.19L46.01 60.98C47.52 66.53 49.54 71.57 52.13 75.89C48.60 79.56 44.28 82.37 39.46 84.24C40.61 85.32 42.55 87.77 43.34 89.28C47.95 87.19 52.06 84.46 55.66 80.78C58.61 84.24 62.14 87.05 66.24 89.14C67.18 87.55 69.05 85.25 70.34 84.10C66.10 82.30 62.50 79.56 59.62 76.03C63.36 70.78 66.17 64.08 67.82 55.87Z"/></svg>
