<svg xmlns="http://www.w3.org/2000/svg" xmlns:xlink="http://www.w3.org/1999/xlink" width="72.00000000000001" height="106.56000000000002"><path fill="red" stroke="red" d="M59.83 63.29C56.45 66.10 51.19 69.48 46.51 72.14C43.70 69.55 41.47 66.60 39.60 63.29ZM59.98 63.29L68.04 63.29L68.04 57.38L23.11 57.38L23.11 52.20L58.75 52.20L58.75 46.94L23.11 46.94L23.11 41.90L58.75 41.90L58.75 36.58L23.11 36.58L23.11 31.39L60.84 31.39L60.84 25.85L16.34 25.85L16.34 57.38L3.96 57.38L3.96 63.29L15.12 63.29L15.12 77.47C15.12 80.35 13.10 82.01 11.59 82.66C12.74 84.31 14.04 87.70 14.47 89.42L14.98 88.99C16.78 88.13 20.74 87.19 39.02 82.66C39.02 81.29 39.24 78.55 39.53 76.82L21.74 80.71L21.74 63.29L32.62 63.29C38.74 76.68 49.25 85.25 65.52 88.85C66.31 87.05 68.26 84.31 69.70 82.80C62.35 81.50 56.09 79.13 51.05 75.67C55.73 73.30 61.06 70.06 65.30 66.96Z"/></svg>
