<svg xmlns="http://www.w3.org/2000/svg" xmlns:xlink="http://www.w3.org/1999/xlink" width="72.00000000000001" height="106.56000000000002"><path fill="red" stroke="red" d="M26.71 31.32L26.71 36.36L13.18 36.36L13.18 31.32ZM13.18 46.51L13.18 41.11L26.71 41.11L26.71 46.51ZM33.05 51.77L33.05 25.99L6.55 25.99L6.55 89.28L13.18 89.28L13.18 51.77ZM54.07 76.25C50.62 71.71 43.42 65.52 37.15 61.20C37.87 58.54 38.38 55.87 38.74 53.14L32.62 53.14C31.32 62.64 28.30 71.93 14.83 76.68C16.06 77.76 17.86 80.21 18.58 81.65C27.50 78.12 32.40 72.79 35.21 66.46C40.82 70.92 46.73 76.46 49.61 80.35ZM45.14 46.58L45.14 41.11L59.04 41.11L59.04 46.58ZM59.04 31.25L59.04 36.36L45.14 36.36L45.14 31.25ZM65.81 25.99L38.74 25.99L38.74 51.84L59.04 51.84L59.04 80.64C59.04 82.01 58.61 82.44 57.31 82.51C55.87 82.51 51.12 82.58 46.66 82.37C47.59 84.17 48.74 87.34 48.96 89.21C55.44 89.21 59.69 89.14 62.28 87.98C64.87 86.90 65.81 84.82 65.81 80.71Z"/></svg>
