<svg xmlns="http://www.w3.org/2000/svg" xmlns:xlink="http://www.w3.org/1999/xlink" width="72.00000000000001" height="106.56000000000002"><path fill="red" stroke="red" d="M21.24 25.78L20.38 25.99L5.62 25.99L5.62 88.99L11.38 88.99L11.38 32.04L18.22 32.04C17.06 36.79 15.41 42.84 13.82 47.59C18.00 52.99 18.94 57.82 18.94 61.42C18.94 63.58 18.58 65.38 17.71 66.10C17.14 66.53 16.56 66.74 15.77 66.74C14.83 66.82 13.75 66.74 12.46 66.67C13.32 68.26 13.82 70.85 13.90 72.43C15.41 72.50 17.06 72.50 18.29 72.36C19.73 72.07 20.88 71.64 21.96 70.99C23.83 69.41 24.70 66.31 24.70 62.06C24.70 57.89 23.69 52.70 19.44 46.94C21.46 41.26 23.69 34.06 25.49 28.15ZM35.57 47.38L35.57 41.83L43.42 41.83L43.42 47.38ZM35.57 31.46L43.42 31.46L43.42 36.79L35.57 36.79ZM57.89 36.79L49.61 36.79L49.61 31.46L57.89 31.46ZM57.89 47.38L49.61 47.38L49.61 41.83L57.89 41.83ZM66.89 57.74L49.61 57.74L49.61 52.70L64.08 52.70L64.08 26.14L29.59 26.14L29.59 52.70L43.42 52.70L43.42 57.74L32.76 57.74L32.76 55.01L27.00 55.01L27.00 57.74L25.49 57.74L25.49 63.29L27.00 63.29L27.00 88.99L32.76 88.99L32.76 63.29L43.42 63.29L43.42 72.36C40.03 72.72 36.94 73.01 34.42 73.22L35.35 78.70C41.11 78.05 48.24 77.11 55.51 76.03C55.94 77.47 56.30 78.77 56.59 79.85L60.26 78.41C59.47 75.17 57.60 69.77 55.80 65.52L52.27 66.60C52.85 68.04 53.42 69.62 54.00 71.28L49.61 71.78L49.61 63.29L60.84 63.29L60.84 82.58C60.84 83.38 60.62 83.59 59.76 83.59C58.97 83.66 56.16 83.66 53.35 83.52C54.14 85.10 55.01 87.55 55.22 89.21C59.40 89.21 62.35 89.14 64.37 88.13C66.38 87.26 66.89 85.54 66.89 82.66Z"/></svg>
