<svg xmlns="http://www.w3.org/2000/svg" xmlns:xlink="http://www.w3.org/1999/xlink" width="72.00000000000001" height="106.56000000000002"><path fill="red" stroke="red" d="M11.88 37.66L32.54 37.66L32.54 52.06L39.02 52.06L39.02 37.66L60.19 37.66L60.19 47.38L66.96 47.38L66.96 33.48L39.02 33.48L39.02 30.10L63.72 30.10L63.72 25.78L8.50 25.78L8.50 30.10L32.54 30.10L32.54 33.48L5.33 33.48L5.33 47.38L11.88 47.38ZM41.54 47.88C47.16 48.74 54.36 50.40 58.32 51.84L59.47 47.88C56.16 46.73 50.47 45.58 45.50 44.78C49.32 43.99 54.36 42.77 57.89 41.18L55.37 37.94C52.13 39.24 46.37 41.18 42.55 42.12L44.21 44.57L42.84 44.42ZM14.33 51.62C19.01 50.76 24.34 49.68 29.95 48.46L29.66 44.78L27.43 45.14L29.16 41.62C26.21 40.25 20.74 38.81 16.63 38.02L14.83 41.18C19.08 42.19 24.48 43.85 27.43 45.14C21.89 46.01 16.70 46.73 12.67 47.16ZM41.76 73.37C44.71 72.22 47.66 70.92 50.40 69.26C53.14 70.92 56.23 72.29 59.47 73.37ZM44.14 83.23L44.14 77.54L56.59 77.54L56.59 83.23ZM23.11 71.28L23.11 67.18L31.61 67.18L31.61 61.99C32.83 62.71 34.34 64.22 35.21 65.30C37.22 64.15 39.10 62.86 40.75 61.49C42.26 63.22 43.92 64.87 45.79 66.24C41.40 68.54 36.65 70.20 31.82 71.28ZM13.82 57.60L25.92 57.60L25.92 62.78L13.82 62.78ZM56.52 58.25C54.79 60.19 52.70 62.06 50.26 63.65C47.81 62.14 45.79 60.41 44.06 58.54L44.42 58.25ZM60.84 53.78L59.90 54.07L47.88 54.07C48.53 53.21 49.10 52.34 49.61 51.48L44.35 50.62C42.12 54.58 37.73 58.82 31.61 61.92L31.61 53.21L8.42 53.21L8.42 67.18L17.42 67.18L17.42 82.30L12.89 82.73L12.89 69.34L7.78 69.34L7.78 83.16L4.10 83.45L4.68 88.63C12.46 87.91 23.33 86.90 33.77 85.75L33.70 80.86C30.17 81.22 26.64 81.58 23.11 81.86L23.11 75.96L31.97 75.96L31.97 72.36C32.83 73.51 33.70 74.81 34.13 75.89C35.57 75.53 37.01 75.10 38.45 74.59L38.45 89.28L44.14 89.28L44.14 87.55L56.59 87.55L56.59 89.14L62.50 89.14L62.50 74.30C63.79 74.66 65.09 74.95 66.46 75.24C67.18 73.66 68.69 71.57 69.91 70.42C64.51 69.62 59.47 68.18 55.08 66.17C58.97 63.22 62.21 59.83 64.37 55.73Z"/></svg>
