<svg xmlns="http://www.w3.org/2000/svg" xmlns:xlink="http://www.w3.org/1999/xlink" width="72.00000000000001" height="106.56000000000002"><path fill="red" stroke="red" d="M11.74 73.22L11.74 69.70L18.00 69.70L18.00 73.22ZM30.17 69.70L30.17 73.22L23.69 73.22L23.69 69.70ZM15.84 57.89L26.42 57.89L26.42 60.62L15.84 60.62ZM36.94 83.45L36.94 79.20L23.69 79.20L23.69 76.68L35.35 76.68L35.35 66.24L23.69 66.24L23.69 64.01L31.82 64.01L31.82 57.89L37.94 57.89L37.94 53.71L31.82 53.71L31.82 51.05L26.42 51.05L26.42 53.71L15.84 53.71L15.84 51.05L10.58 51.05L10.58 53.71L4.39 53.71L4.39 57.89L10.58 57.89L10.58 64.01L18.00 64.01L18.00 66.24L6.77 66.24L6.77 76.68L18.00 76.68L18.00 79.20L3.96 79.20L3.96 83.45L18.00 83.45L18.00 89.14L23.69 89.14L23.69 83.45ZM46.30 72.14C46.44 70.49 46.51 68.83 46.51 67.32L59.11 67.32L59.11 72.14ZM59.11 58.03L59.11 62.71L46.51 62.71L46.51 58.03ZM65.16 52.92L40.68 52.92L40.68 66.24C40.68 72.50 40.10 80.64 35.28 86.47C36.65 87.05 39.31 88.49 40.46 89.35C43.34 85.82 44.93 81.36 45.65 76.75L59.11 76.75L59.11 82.44C59.11 83.23 58.82 83.52 57.89 83.59C57.02 83.59 54.14 83.59 51.19 83.52C51.91 85.03 52.70 87.34 52.85 88.85C57.53 88.85 60.62 88.78 62.64 87.91C64.58 86.98 65.16 85.46 65.16 82.51ZM39.02 33.34L39.02 30.38L62.14 30.38L62.14 25.70L9.79 25.70L9.79 30.38L32.54 30.38L32.54 33.34L5.33 33.34L5.33 45.00L11.30 45.00L11.30 37.44L16.42 37.44L14.83 40.68C19.15 41.40 24.55 42.77 27.65 43.78C22.03 44.71 16.63 45.43 12.67 45.86L14.40 50.62C19.08 49.68 24.41 48.53 29.95 47.38L29.66 43.49L28.08 43.70L29.74 40.25C26.78 39.17 21.67 38.09 17.50 37.44L32.54 37.44L32.54 51.05L39.02 51.05L39.02 37.44L53.71 37.44C50.40 38.52 45.72 39.96 42.48 40.54L44.42 43.42L42.91 43.20L41.54 46.80C47.16 47.66 54.36 49.32 58.32 50.76L59.47 46.73C56.16 45.58 50.26 44.28 45.22 43.49C49.10 42.84 54.29 41.76 57.96 40.39L55.80 37.44L60.55 37.44L60.55 45.00L66.74 45.00L66.74 33.34Z"/></svg>
