<svg xmlns="http://www.w3.org/2000/svg" xmlns:xlink="http://www.w3.org/1999/xlink" width="72.00000000000001" height="106.56000000000002"><path fill="red" stroke="red" d="M11.88 37.66L32.54 37.66L32.54 49.03L39.02 49.03L39.02 37.66L55.08 37.66C51.77 38.95 46.22 40.82 42.55 41.69L44.35 44.14L42.91 43.99L41.69 47.16C47.30 48.10 54.50 49.82 58.46 51.12L59.47 47.45C56.16 46.37 50.26 45.07 45.22 44.28C49.03 43.56 54.14 42.26 57.82 40.68L55.58 37.66L60.19 37.66L60.19 45.58L66.96 45.58L66.96 33.48L39.02 33.48L39.02 30.10L63.72 30.10L63.72 25.78L8.50 25.78L8.50 30.10L32.54 30.10L32.54 33.48L5.33 33.48L5.33 45.58L11.88 45.58ZM52.06 54.65L59.18 54.65L59.18 59.33L52.06 59.33ZM47.38 62.78L64.15 62.78L64.15 51.26L47.38 51.26ZM29.74 44.42C23.33 45.43 17.28 46.30 12.74 46.80L14.26 50.69C18.86 49.82 24.34 48.74 29.88 47.59ZM12.74 54.58L19.44 54.58L19.44 59.26L12.74 59.26ZM8.06 62.71L24.41 62.71L24.41 51.19L8.06 51.19ZM14.83 40.82C19.08 41.76 24.55 43.42 27.43 44.71L28.94 41.47C26.06 40.18 20.59 38.74 16.49 37.87ZM39.17 59.33L32.26 59.33L32.26 54.65L39.17 54.65ZM44.14 51.26L27.50 51.26L27.50 62.78L44.14 62.78ZM43.63 82.37C46.22 81.00 48.60 79.27 50.33 77.18C53.86 78.62 57.82 80.71 59.98 82.37ZM60.12 82.37L62.35 78.55C60.19 77.04 56.23 75.02 52.78 73.66C53.28 72.65 53.64 71.64 54.00 70.63L49.03 69.91C47.74 74.02 44.35 76.90 39.89 78.77C40.90 79.63 42.34 81.29 43.06 82.37L38.81 82.37L38.81 69.55L64.01 69.55L64.01 65.09L7.99 65.09L7.99 69.55L32.40 69.55L32.40 82.37L12.31 82.37C15.05 81.00 17.57 79.27 19.73 77.18C22.82 78.70 25.99 80.78 27.79 82.30L30.31 78.70C28.51 77.33 25.34 75.46 22.39 74.09C23.11 73.08 23.62 72.00 24.12 70.92L19.22 69.98C17.42 73.87 13.32 76.97 8.64 78.84C9.58 79.63 11.23 81.36 11.95 82.37L3.74 82.37L3.74 86.98L68.04 86.98L68.04 82.37Z"/></svg>
