<svg xmlns="http://www.w3.org/2000/svg" xmlns:xlink="http://www.w3.org/1999/xlink" width="72.00000000000001" height="106.56000000000002"><path fill="red" stroke="red" d="M5.11 44.14C12.24 43.13 21.96 41.83 31.32 40.46L31.18 35.71L21.31 36.94L21.31 31.18L30.67 31.18L30.67 26.28L5.69 26.28L5.69 31.18L15.34 31.18L15.34 37.66C11.16 38.16 7.34 38.59 4.25 38.95ZM18.72 70.27L18.72 66.46L32.40 66.46L32.40 70.27ZM52.85 66.46L52.85 70.27L39.10 70.27L39.10 66.46ZM26.14 52.06L45.86 52.06L45.86 55.15L26.14 55.15ZM39.10 74.52L59.54 74.52L59.54 62.21L39.10 62.21L39.10 59.69L52.42 59.69L52.42 52.06L67.10 52.06L67.10 47.52L52.42 47.52L52.42 43.49L45.86 43.49L45.86 47.52L26.14 47.52L26.14 43.49L19.80 43.49L19.80 47.52L4.82 47.52L4.82 52.06L19.80 52.06L19.80 59.69L32.40 59.69L32.40 62.21L12.31 62.21L12.31 74.52L32.40 74.52L32.40 77.69L4.10 77.69L4.10 82.73L32.40 82.73L32.40 89.21L39.10 89.21L39.10 82.73L68.04 82.73L68.04 77.69L39.10 77.69ZM60.62 39.02C60.19 39.02 59.76 38.88 59.54 38.74C59.26 38.45 59.26 37.80 59.26 36.58L59.26 25.27L33.48 25.27L33.48 30.38L39.82 30.38L39.82 30.53C39.82 31.61 39.74 32.62 39.46 33.70C37.66 33.19 35.78 32.62 34.20 32.18L32.33 35.57C34.13 36.07 36.00 36.72 37.94 37.37C36.65 39.24 34.63 41.11 31.46 42.77C32.62 43.56 34.99 45.86 35.78 47.09C39.67 44.86 42.12 42.12 43.63 39.31C45.86 40.18 47.88 40.97 49.39 41.54L51.26 37.66C49.68 37.08 47.52 36.29 45.07 35.50C45.50 33.84 45.65 32.18 45.65 30.67L45.65 30.38L53.28 30.38L53.28 36.65C53.28 40.46 53.64 41.69 54.79 42.70C55.73 43.63 57.46 44.06 58.97 44.06L62.50 44.06C63.72 44.06 65.30 43.85 66.10 43.34C67.03 42.84 67.68 42.05 68.11 40.97C68.54 39.89 68.83 36.86 68.90 34.27C67.54 33.84 65.88 32.90 64.87 32.11C64.80 34.63 64.73 36.50 64.58 37.37C64.44 38.23 64.15 38.59 63.86 38.81C63.65 38.95 63.00 39.02 62.50 39.02Z"/></svg>
