<svg xmlns="http://www.w3.org/2000/svg" xmlns:xlink="http://www.w3.org/1999/xlink" width="72.00000000000001" height="106.56000000000002"><path fill="red" stroke="red" d="M59.90 49.10L38.30 49.10L38.30 43.20L59.90 43.20ZM59.90 59.76L38.30 59.76L38.30 53.78L59.90 53.78ZM59.90 70.49L38.30 70.49L38.30 64.44L59.90 64.44ZM32.11 38.16L32.11 75.53L66.46 75.53L66.46 38.16L50.47 38.16C51.12 36.22 51.91 34.06 52.56 31.97L69.19 31.97L69.19 26.28L28.80 26.28L28.80 31.97L44.93 31.97C44.57 33.98 44.14 36.14 43.70 38.16ZM29.09 60.98L19.44 64.15L19.44 37.37L28.30 37.37L28.30 31.18L3.89 31.18L3.89 37.37L12.74 37.37L12.74 66.31C8.78 67.61 5.18 68.69 2.30 69.55L4.97 75.96C12.10 73.51 21.38 70.13 30.24 66.89ZM39.74 76.10C36.14 79.06 28.87 82.66 22.82 84.60C24.12 85.75 26.06 87.91 27.00 89.21C33.26 87.19 40.68 83.45 45.29 79.85ZM51.12 79.99C55.80 82.66 62.14 86.69 65.09 89.28L70.42 85.25C67.10 82.58 60.77 78.77 56.09 76.39Z"/></svg>
