<svg xmlns="http://www.w3.org/2000/svg" xmlns:xlink="http://www.w3.org/1999/xlink" width="72.00000000000001" height="106.56000000000002"><path fill="red" stroke="red" d="M60.19 48.96L44.28 48.96L44.28 43.27L60.19 43.27ZM60.19 59.47L44.28 59.47L44.28 53.78L60.19 53.78ZM60.19 70.06L44.28 70.06L44.28 64.37L60.19 64.37ZM38.45 38.16L38.45 75.17L66.24 75.17L66.24 38.16L53.86 38.16C54.43 36.29 55.01 34.13 55.66 32.04L68.40 32.04L68.40 26.35L36.43 26.35L36.43 32.04L48.82 32.04C48.53 33.98 48.17 36.22 47.74 38.16ZM13.10 66.02L27.29 66.02L27.29 69.77L13.10 69.77ZM27.29 42.62L27.29 46.87L13.10 46.87L13.10 42.62ZM27.29 58.39L27.29 62.28L13.10 62.28L13.10 58.39ZM27.29 54.72L13.10 54.72L13.10 50.54L27.29 50.54ZM36.65 69.77L33.05 69.77L33.05 38.52L21.89 38.52C22.18 37.22 22.46 35.78 22.75 34.27L35.21 34.27L35.21 29.02L23.69 29.02C23.98 27.14 24.34 25.20 24.62 23.40L18.22 23.11C18.07 24.84 17.86 26.93 17.64 29.02L4.32 29.02L4.32 34.27L16.92 34.27C16.70 35.78 16.42 37.22 16.20 38.52L7.56 38.52L7.56 69.77L2.88 69.77L2.88 75.17L36.65 75.17ZM12.53 75.31C10.37 78.55 5.90 82.66 2.09 84.96C3.38 86.11 5.33 87.91 6.34 89.14C10.37 86.69 15.12 82.37 18.07 78.62ZM35.42 82.80C33.70 80.64 30.10 77.54 27.43 75.53L22.82 78.77C25.56 81.07 29.09 84.31 30.67 86.54L32.40 85.10C33.84 86.33 35.57 87.98 36.58 89.14C41.18 86.98 46.66 82.94 49.97 79.27L44.42 75.82C42.12 78.62 37.94 81.86 33.84 84.02ZM53.57 79.49C57.31 82.37 62.14 86.40 64.37 89.06L69.62 85.39C67.18 82.80 62.28 78.84 58.54 76.25Z"/></svg>
