<svg xmlns="http://www.w3.org/2000/svg" xmlns:xlink="http://www.w3.org/1999/xlink" width="72.00000000000001" height="106.56000000000002"><path fill="red" stroke="red" d="M59.76 48.82L43.85 48.82L43.85 43.06L59.76 43.06ZM59.76 59.47L43.85 59.47L43.85 53.64L59.76 53.64ZM59.76 70.20L43.85 70.20L43.85 64.30L59.76 64.30ZM37.80 37.94L37.80 75.38L66.10 75.38L66.10 37.94L52.63 37.94C53.35 36.14 54.07 34.06 54.79 32.04L68.62 32.04L68.62 26.28L35.28 26.28L35.28 32.04L47.59 32.04C47.23 33.91 46.80 36.07 46.30 37.94ZM22.82 48.67C24.98 50.54 30.10 55.44 31.90 57.74L35.64 53.42C34.13 52.06 28.08 47.30 26.21 46.15ZM28.22 25.92C27.43 28.51 25.85 32.47 24.48 34.92L28.94 36.43C30.38 34.13 32.11 30.74 33.84 27.50ZM13.75 34.20C13.18 31.90 11.45 28.37 9.65 25.70L5.04 27.50C6.77 30.24 8.35 33.77 8.86 36.22ZM16.49 57.10L22.32 57.10L22.32 43.99L34.49 43.99L34.49 38.59L22.32 38.59L22.32 23.47L16.49 23.47L16.49 38.59L3.74 38.59L3.74 43.99L16.49 43.99ZM11.16 45.79C9.29 49.54 5.76 53.64 2.30 55.73C3.60 56.66 5.33 58.61 6.26 59.98C9.86 57.24 13.39 52.06 15.26 47.30ZM33.55 81.43C30.74 79.13 25.42 75.60 21.17 72.94C21.38 72.14 21.53 71.21 21.60 70.34L34.99 70.34L34.99 64.80L30.89 64.80L33.19 63.14C32.18 61.56 30.02 59.11 28.15 57.46L24.41 59.90C25.85 61.42 27.50 63.22 28.58 64.80L21.89 64.80L21.89 58.54L16.06 58.54L16.06 64.80L3.67 64.80L3.67 70.34L15.70 70.34C14.69 75.17 11.66 80.06 2.52 83.88C3.67 85.10 5.33 87.34 5.98 88.78C12.96 85.82 16.92 82.08 19.15 78.12C23.11 80.78 27.43 83.95 29.88 86.11ZM44.86 76.32C42.34 79.34 37.30 83.09 32.69 85.18C34.13 86.26 36.00 88.27 37.08 89.50C41.69 87.34 47.23 83.38 50.54 79.70ZM53.06 79.78C57.17 82.58 62.42 86.62 64.87 89.35L69.98 85.68C67.25 82.94 61.99 79.13 57.96 76.46Z"/></svg>
