<svg xmlns="http://www.w3.org/2000/svg" xmlns:xlink="http://www.w3.org/1999/xlink" width="72.00000000000001" height="106.56000000000002"><path fill="red" stroke="red" d="M61.13 48.67L46.94 48.67L46.94 42.91L61.13 42.91ZM61.13 59.33L46.94 59.33L46.94 53.50L61.13 53.50ZM61.13 70.13L46.94 70.13L46.94 64.22L61.13 64.22ZM41.62 37.73L41.62 75.31L66.67 75.31L66.67 37.73L55.44 37.73C55.80 36.00 56.30 33.98 56.74 32.04L68.04 32.04L68.04 26.35L39.89 26.35L39.89 32.04L50.33 32.04C50.18 33.84 49.90 35.93 49.61 37.73ZM7.49 89.14C9.72 85.82 11.38 80.64 12.53 76.54L7.49 74.52C6.55 78.41 4.68 83.59 2.52 86.69ZM14.47 76.18C15.12 79.99 15.70 84.89 15.70 88.13L20.81 87.34C20.74 84.17 20.09 79.27 19.30 75.46ZM12.02 38.88L31.18 38.88L31.18 43.27L12.02 43.27ZM12.02 30.46L31.18 30.46L31.18 34.78L12.02 34.78ZM14.83 63.72C15.26 64.80 15.70 66.02 16.13 67.18L10.80 67.61C14.33 63.86 17.86 58.97 20.95 54.14L15.98 52.34C15.26 53.78 14.47 55.08 13.68 56.45L9.94 56.74C11.45 54.43 13.10 51.48 14.18 48.60L10.30 47.52L27.29 47.52C26.06 51.12 23.90 54.43 23.18 55.30C22.46 56.23 21.74 56.81 21.02 56.95C21.60 58.32 22.39 60.70 22.68 61.85C23.47 61.49 24.62 61.20 28.58 60.77C26.93 62.86 25.49 64.51 24.84 65.23C23.40 66.67 22.18 67.68 21.10 67.90C21.60 69.26 22.39 71.71 22.68 72.86C23.83 72.36 25.70 72.00 36.43 70.85C36.86 72.00 37.15 73.08 37.37 74.02L41.54 72.29C40.82 69.55 39.02 65.23 37.30 62.06L33.41 63.58C33.91 64.51 34.42 65.59 34.85 66.60L29.09 67.10C32.62 63.43 36.14 58.75 39.17 54.07L34.13 52.13C33.41 53.50 32.62 54.79 31.82 56.16L27.86 56.38C29.52 54.22 31.25 51.48 32.54 48.74L28.37 47.52L37.08 47.52L37.08 26.14L6.34 26.14L6.34 47.52L9.14 47.52C8.06 51.12 6.05 54.58 5.47 55.51C4.75 56.52 4.10 57.10 3.38 57.31C3.96 58.61 4.68 60.91 5.04 61.99C5.76 61.70 6.84 61.42 10.58 60.98C8.93 63.14 7.56 64.87 6.91 65.59C5.47 67.10 4.39 68.11 3.17 68.33C3.82 69.70 4.54 72.14 4.82 73.15C5.83 72.72 7.70 72.36 17.21 71.35C17.42 72.22 17.57 73.01 17.64 73.66L21.53 72.43C21.10 69.77 19.80 65.66 18.43 62.64ZM21.96 75.67C23.18 79.13 24.48 83.66 24.84 86.54L29.66 85.18C29.23 82.30 27.86 77.90 26.50 74.52ZM29.81 74.23C31.54 77.18 33.48 81.22 34.27 83.88L38.81 81.94C38.02 79.42 36.00 75.53 34.13 72.65ZM47.52 76.61C45.22 79.56 40.39 83.30 36.14 85.32C37.51 86.47 39.31 88.20 40.32 89.42C44.57 87.26 49.61 83.38 52.70 79.78ZM56.09 79.85C59.26 82.73 63.14 86.76 64.94 89.35L69.84 85.90C67.82 83.30 63.79 79.49 60.70 76.82Z"/></svg>
