<svg xmlns="http://www.w3.org/2000/svg" xmlns:xlink="http://www.w3.org/1999/xlink" width="72.00000000000001" height="106.56000000000002"><path fill="red" stroke="red" d="M19.58 35.57L15.84 35.57L15.84 30.96L19.58 30.96ZM27.43 48.31L23.33 48.31L23.33 40.32L27.43 40.32ZM8.64 40.32L12.17 40.32L12.17 48.31L8.64 48.31ZM19.66 40.32L19.66 48.31L15.84 48.31L15.84 40.32ZM11.09 35.57L4.61 35.57L4.61 52.99L31.61 52.99L31.61 35.57L24.26 35.57L24.26 30.96L32.47 30.96L32.47 25.92L3.31 25.92L3.31 30.96L11.09 30.96ZM29.38 60.91L29.38 56.02L6.12 56.02L6.12 60.91ZM7.42 72.36C6.41 76.18 4.68 80.35 2.52 83.30C3.74 83.88 5.83 85.18 6.84 85.82C8.86 82.73 10.94 77.98 12.24 73.58ZM32.40 69.62L32.40 64.58L2.88 64.58L2.88 69.62L15.26 69.62L15.26 88.99L20.52 88.99L20.52 69.62ZM22.97 73.51C24.62 76.39 26.28 80.28 26.78 82.80L31.32 80.86C30.67 78.48 29.02 74.66 27.14 71.78ZM44.14 49.97L47.23 49.97L47.23 64.37L44.14 64.37ZM53.78 64.37L50.47 64.37L50.47 49.97L53.78 49.97ZM53.06 72.79C53.57 74.38 54.00 76.18 54.43 77.90L50.54 78.55L50.54 68.62L57.17 68.62L57.17 45.79L50.98 45.79L50.98 39.67L58.03 39.67L58.03 34.63L40.03 34.63L40.03 39.67L46.73 39.67L46.73 45.79L40.82 45.79L40.82 68.62L46.37 68.62L46.37 79.27C43.06 79.78 40.10 80.28 37.51 80.57L39.17 85.68C43.92 84.74 49.54 83.59 55.22 82.44C55.58 84.31 55.80 86.04 55.94 87.48L59.47 86.54C59.04 82.58 57.74 76.61 56.45 71.86ZM33.70 25.70L33.70 64.80C33.70 72.72 33.41 81.00 29.09 86.47C30.17 87.05 32.18 88.56 33.05 89.42C37.87 83.59 38.45 73.37 38.45 64.80L38.45 31.32L59.40 31.32C59.47 63.43 58.18 88.99 65.23 88.99C68.33 88.92 69.19 85.97 69.77 78.70C68.83 77.90 67.61 76.32 66.74 74.95C66.67 79.78 66.38 83.59 65.74 83.59C63.07 83.59 64.08 52.27 64.44 25.70Z"/></svg>
