<svg xmlns="http://www.w3.org/2000/svg" xmlns:xlink="http://www.w3.org/1999/xlink" width="72.00000000000001" height="106.56000000000002"><path fill="red" stroke="red" d="M68.04 38.52C66.96 35.06 64.37 29.74 61.92 25.70L57.31 27.50C59.54 31.61 61.99 37.15 63.00 40.54ZM22.25 49.68L22.25 54.50L12.74 54.50L12.74 49.68ZM12.74 64.44L12.74 59.33L22.25 59.33L22.25 64.44ZM18.86 72.43C19.66 73.87 20.38 75.53 21.24 77.11L12.74 80.21L12.74 69.41L28.15 69.41L28.15 44.71L6.98 44.71L6.98 79.34C6.98 82.01 5.47 83.02 4.32 83.52C5.18 84.89 6.19 87.62 6.48 89.14C7.85 88.06 10.01 87.12 23.47 81.72C24.34 83.81 25.20 85.61 25.78 87.12L30.60 84.67C29.16 81.14 26.06 75.02 23.47 70.49ZM62.78 52.99C61.70 57.46 60.19 61.92 58.32 65.95C57.67 61.27 57.24 55.80 56.88 49.68L68.54 49.68L68.54 43.85L56.59 43.85C56.38 37.58 56.23 30.82 56.23 23.76L50.62 23.76C50.76 30.89 50.90 37.58 51.12 43.85L43.49 43.85L43.49 31.18C45.86 30.46 48.24 29.59 50.26 28.73L45.79 23.69C41.90 25.78 35.28 27.86 29.52 29.30C29.88 30.17 30.38 31.25 30.74 32.33C28.44 30.82 24.41 28.44 20.95 26.64C21.46 25.85 21.89 25.06 22.32 24.26L17.06 22.39C13.82 28.22 7.99 33.70 2.45 37.08C3.38 38.52 4.82 41.76 5.18 43.06C7.63 41.40 10.22 39.31 12.53 37.08L12.53 41.11L24.77 41.11L24.77 36.50L13.10 36.50C14.76 34.78 16.42 32.98 17.86 31.10C21.53 33.26 25.78 35.86 28.01 37.58L30.82 32.54C31.03 33.12 31.25 33.70 31.32 34.20C33.41 33.77 35.50 33.34 37.66 32.76L37.66 43.85L30.38 43.85L30.38 49.68L37.66 49.68L37.66 61.99C34.56 63.00 31.61 63.79 29.30 64.51L31.10 70.42C33.12 69.70 35.28 68.90 37.66 68.11L37.66 81.94C37.66 82.87 37.37 83.09 36.58 83.09C35.78 83.09 33.48 83.16 30.96 83.09C31.75 84.74 32.47 87.55 32.69 89.14C36.72 89.14 39.31 88.92 41.18 87.91C42.91 86.90 43.49 85.03 43.49 82.01L43.49 66.10C45.79 65.30 48.24 64.44 50.54 63.58L49.46 58.10C47.45 58.82 45.43 59.47 43.49 60.12L43.49 49.68L51.41 49.68C51.91 59.11 52.70 67.25 53.93 73.73C51.05 78.12 47.59 81.72 43.70 84.17C44.93 85.25 46.66 87.26 47.59 88.56C50.54 86.47 53.28 83.74 55.66 80.57C57.60 86.04 60.05 89.06 63.50 89.21C66.02 89.28 68.83 86.62 70.20 75.67C69.26 75.10 66.82 73.51 65.81 72.29C65.52 78.41 64.73 82.01 63.65 81.94C62.14 81.86 60.77 79.20 59.69 74.59C63.14 68.62 65.81 61.70 67.75 54.14Z"/></svg>
