<svg xmlns="http://www.w3.org/2000/svg" xmlns:xlink="http://www.w3.org/1999/xlink" width="72.00000000000001" height="106.56000000000002"><path fill="red" stroke="red" d="M22.25 49.68L22.25 54.50L12.74 54.50L12.74 49.68ZM12.74 64.44L12.74 59.33L22.25 59.33L22.25 64.44ZM18.86 72.43C19.66 73.87 20.38 75.46 21.24 77.11L12.74 80.14L12.74 69.41L28.15 69.41L28.15 44.71L6.98 44.71L6.98 79.27C6.98 81.94 5.47 82.94 4.32 83.45C5.18 84.89 6.19 87.55 6.48 89.06C7.85 88.06 10.01 87.05 23.47 81.72C24.34 83.74 25.20 85.54 25.78 87.05L30.60 84.67C29.16 81.14 26.06 74.95 23.47 70.49ZM56.30 47.74L56.30 55.58L40.82 55.58L40.82 47.74ZM59.33 71.78L59.33 80.57L40.82 80.57L40.82 71.78ZM68.04 43.49L68.04 31.32L51.70 31.32L54.00 30.17C53.14 28.15 51.55 24.98 50.11 22.54L44.28 24.98C45.29 26.78 46.51 29.38 47.30 31.32L30.89 31.32L30.89 32.40C28.58 30.89 24.48 28.58 21.02 26.64C21.53 25.92 21.96 25.13 22.32 24.34L17.06 22.46C13.82 28.22 7.99 33.70 2.45 37.08C3.38 38.52 4.82 41.76 5.18 43.06C7.63 41.40 10.22 39.31 12.53 37.08L12.53 41.11L24.84 41.11L24.84 36.50L13.10 36.50C14.76 34.85 16.34 32.98 17.86 31.10C21.53 33.26 25.78 35.86 28.01 37.58L30.82 32.62L30.82 43.49L34.99 43.49L34.99 89.06L40.82 89.06L40.82 86.26L59.33 86.26L59.33 88.78L65.23 88.78L65.23 66.24L40.82 66.24L40.82 60.91L61.99 60.91L61.99 42.34L36.36 42.34L36.36 36.65L62.28 36.65L62.28 43.49Z"/></svg>
