<svg xmlns="http://www.w3.org/2000/svg" xmlns:xlink="http://www.w3.org/1999/xlink" width="72.00000000000001" height="106.56000000000002"><path fill="red" stroke="red" d="M66.82 50.54L66.82 46.87L55.58 46.87L55.58 44.71L49.90 44.71L49.90 51.62C49.90 55.87 51.19 56.95 56.52 56.95L63.22 56.95C66.82 56.95 68.26 55.87 68.62 52.20C67.18 51.91 65.23 51.41 64.08 50.76C63.94 52.78 63.58 53.14 62.42 53.14L57.38 53.14C55.80 53.14 55.58 52.99 55.58 51.62L55.58 50.54ZM53.71 29.74C52.27 30.89 50.69 31.97 49.18 32.83L37.30 32.83C38.23 31.82 39.10 30.82 39.96 29.74ZM59.98 39.89L36.50 39.89L36.50 36.65L59.98 36.65ZM11.95 41.11L24.34 41.11L24.34 36.50L12.82 36.50C14.47 34.78 15.91 33.05 17.35 31.25C20.74 33.34 24.55 35.93 26.71 37.66L29.09 33.41C29.59 33.77 30.24 34.20 30.82 34.78L30.82 43.70L65.95 43.70L65.95 32.83L56.88 32.83C58.82 31.46 60.77 30.02 62.35 28.58L59.11 25.78L58.03 26.06L42.48 26.06C42.84 25.34 43.27 24.70 43.63 24.05L38.16 23.11C36.43 26.35 33.41 30.02 29.16 32.98C27.14 31.32 23.33 29.09 20.16 27.22C20.74 26.21 21.31 25.27 21.82 24.26L16.49 22.46C13.39 28.22 7.85 33.62 2.52 37.08C3.38 38.52 4.82 41.76 5.26 42.98C7.49 41.47 9.79 39.46 11.95 37.37ZM21.38 49.75L21.38 54.50L12.46 54.50L12.46 49.75ZM12.46 64.51L12.46 59.33L21.38 59.33L21.38 64.51ZM27.86 83.95C26.78 80.50 24.48 74.52 22.54 70.13L17.64 71.71C18.29 73.37 19.01 75.24 19.73 76.97L12.46 79.85L12.46 69.48L26.86 69.48L26.86 44.71L6.41 44.71L6.41 79.06C6.41 81.72 4.90 82.73 3.74 83.30C4.61 84.67 5.69 87.55 5.98 89.14C7.34 87.98 9.36 86.98 21.38 81.86C21.96 83.45 22.39 84.96 22.75 86.11ZM35.93 73.30L35.93 69.12L45.00 69.12C44.71 70.63 44.35 72.00 43.78 73.30ZM53.14 62.50C51.98 63.50 50.76 64.37 49.54 65.16L37.01 65.16C37.80 64.30 38.59 63.43 39.31 62.50ZM60.41 69.12L60.41 73.30L49.68 73.30C50.11 71.93 50.47 70.63 50.76 69.12ZM55.08 84.60C52.85 84.60 52.42 84.38 52.42 82.80L52.42 77.26L66.53 77.26L66.53 65.16L56.95 65.16C58.75 63.86 60.48 62.57 61.92 61.20L58.61 58.39L57.46 58.68L41.90 58.68C42.26 57.96 42.70 57.31 43.06 56.66L41.18 56.38L47.88 55.51C47.74 54.58 47.66 52.99 47.66 51.84L37.87 52.78L37.87 50.11L47.59 50.11L47.59 46.51L37.87 46.51L37.87 44.71L32.33 44.71L32.33 50.11C32.33 52.42 31.03 52.78 30.02 52.99C30.74 54.14 31.46 56.59 31.61 57.96C32.26 57.60 33.26 57.38 36.86 56.88C34.92 60.12 31.82 63.58 27.65 66.24C28.37 66.67 29.30 67.39 30.17 68.04L30.17 77.26L41.47 77.26C38.66 80.71 33.98 83.23 25.85 84.96C26.93 85.97 28.37 87.91 28.80 89.21C38.09 86.98 43.56 83.74 46.80 79.13L46.80 82.80C46.80 87.34 48.31 88.49 54.36 88.49L63.36 88.49C67.90 88.49 69.26 86.90 69.77 81.00C68.33 80.71 66.31 80.06 65.16 79.34C64.94 83.88 64.51 84.60 62.71 84.60ZM63.14 81.72C61.70 80.50 58.82 78.62 56.74 77.33L53.93 79.63C56.09 81.07 58.82 83.09 60.26 84.31Z"/></svg>
