<svg xmlns="http://www.w3.org/2000/svg" xmlns:xlink="http://www.w3.org/1999/xlink" width="72.00000000000001" height="106.56000000000002"><path fill="red" stroke="red" d="M8.06 88.56C12.89 84.38 14.98 77.40 16.34 70.56L10.44 68.90C9.36 75.17 6.91 81.36 2.52 85.18ZM20.66 71.71C21.89 76.39 22.90 82.37 22.90 86.26L28.94 85.25C28.73 81.29 27.72 75.38 26.35 70.85ZM32.98 71.35C34.78 75.53 36.50 81.07 37.01 84.46L42.62 82.87C41.98 79.56 40.18 74.16 38.16 70.20ZM18.43 54.65L33.55 54.65L33.55 60.55L18.43 60.55ZM33.55 32.11L33.55 38.09L18.43 38.09L18.43 32.11ZM33.55 49.32L18.43 49.32L18.43 43.42L33.55 43.42ZM40.18 60.55L40.18 54.65L59.98 54.65L59.98 49.32L40.18 49.32L40.18 43.42L59.98 43.42L59.98 38.09L40.18 38.09L40.18 32.11L62.42 32.11L62.42 26.28L11.88 26.28L11.88 66.46L60.26 66.46C59.47 76.90 58.75 81.14 57.46 82.44C56.81 83.09 56.16 83.23 55.01 83.23C53.71 83.23 50.69 83.23 47.45 82.87C48.38 84.67 49.10 87.19 49.25 89.06C52.85 89.21 56.30 89.21 58.25 88.99C60.26 88.78 61.85 88.20 63.14 86.69C65.23 84.46 66.17 78.34 67.10 63.36C67.25 62.42 67.32 60.55 67.32 60.55ZM55.22 78.26C54.22 75.53 51.70 71.42 49.25 68.47L44.42 70.27C46.66 73.37 49.03 77.62 50.04 80.35Z"/></svg>
