<svg xmlns="http://www.w3.org/2000/svg" xmlns:xlink="http://www.w3.org/1999/xlink" width="72.00000000000001" height="106.56000000000002"><path fill="red" stroke="red" d="M61.49 37.37L56.59 37.37L56.59 33.05L61.49 33.05ZM61.49 46.08L56.59 46.08L56.59 41.69L61.49 41.69ZM38.81 41.69L43.56 41.69L43.56 46.08L38.81 46.08ZM38.81 33.05L43.56 33.05L43.56 37.37L38.81 37.37ZM52.34 41.69L52.34 46.08L47.81 46.08L47.81 41.69ZM47.81 37.37L47.81 33.05L52.34 33.05L52.34 37.37ZM66.74 28.51L57.46 28.51L57.46 23.18L52.13 23.18L52.13 28.51L47.81 28.51L47.81 23.18L42.48 23.18L42.48 28.51L33.70 28.51L33.70 50.69L66.74 50.69ZM68.47 53.86L32.40 53.86L32.40 58.82L68.47 58.82ZM12.74 64.08C15.19 65.74 18.22 68.33 19.73 69.91L22.75 66.46C21.24 64.94 18.14 62.64 15.41 60.98L12.74 63.72L12.74 58.75L22.82 58.75L22.82 70.27C18.94 72.22 15.26 74.09 12.38 75.31C12.67 72.58 12.74 69.98 12.74 67.68ZM11.95 30.46L23.11 30.46L23.11 34.27L15.62 34.27L15.62 45.58L11.95 45.58ZM19.30 45.58L19.30 38.30L23.11 38.30L23.11 45.58ZM26.50 54.14L8.64 54.14L8.64 50.26L26.50 50.26ZM31.61 56.23L31.61 45.58L28.66 45.58L28.66 25.49L6.70 25.49L6.70 45.58L3.74 45.58L3.74 56.23L7.27 56.23L7.27 67.61C7.27 73.30 6.91 80.64 3.24 86.11C4.54 86.69 6.98 88.42 7.92 89.50C10.51 85.68 11.66 80.71 12.31 75.89L14.33 79.92C16.99 78.34 19.87 76.54 22.82 74.74L22.82 82.87C22.82 83.59 22.61 83.81 21.89 83.81C21.10 83.88 18.86 83.88 16.27 83.81C16.99 85.18 17.78 87.34 18.07 88.85C21.96 88.85 24.48 88.78 26.21 87.91C27.94 86.98 28.44 85.61 28.44 82.94L28.44 56.23ZM56.23 75.38C55.58 77.47 54.43 80.50 53.35 82.87L47.02 82.87C46.30 80.71 45.07 77.76 43.92 75.38ZM41.40 66.10L58.97 66.10L58.97 71.14L41.40 71.14ZM58.90 82.87C59.98 81.00 61.06 78.91 62.28 76.90L56.81 75.38L65.23 75.38L65.23 61.78L35.57 61.78L35.57 75.38L43.70 75.38L38.88 76.82C39.67 78.70 40.46 80.93 41.11 82.87L31.61 82.87L31.61 87.91L69.12 87.91L69.12 82.87Z"/></svg>
