<svg xmlns="http://www.w3.org/2000/svg" xmlns:xlink="http://www.w3.org/1999/xlink" width="72.00000000000001" height="106.56000000000002"><path fill="red" stroke="red" d="M44.93 71.57L44.93 77.11L26.50 77.11L26.50 71.57ZM50.83 81.94L50.83 66.74L20.30 66.74L20.30 85.25L26.50 85.25L26.50 81.94ZM65.30 57.67L6.77 57.67L6.77 89.21L13.32 89.21L13.32 63.22L58.54 63.22L58.54 82.58C58.54 83.45 58.18 83.74 57.24 83.74C56.45 83.81 52.85 83.81 49.82 83.66C50.62 85.10 51.55 87.12 51.91 88.63C56.74 88.70 60.05 88.63 62.28 87.84C64.51 86.98 65.30 85.75 65.30 82.58ZM50.90 49.46L21.38 49.46L21.38 44.14L50.90 44.14ZM14.76 39.46L14.76 54.22L57.96 54.22L57.96 39.46ZM40.61 30.31C39.89 28.01 38.74 25.13 37.80 22.82L31.03 24.41C31.68 26.21 32.40 28.37 33.05 30.31L4.46 30.31L4.46 36.00L67.25 36.00L67.25 30.31Z"/></svg>
