<svg xmlns="http://www.w3.org/2000/svg" xmlns:xlink="http://www.w3.org/1999/xlink" width="72.00000000000001" height="106.56000000000002"><path fill="red" stroke="red" d="M6.77 89.28C10.15 85.54 11.30 79.27 12.02 73.22L7.34 72.07C6.77 77.69 5.47 83.38 2.45 86.69ZM13.68 72.79C14.40 77.11 14.69 82.58 14.40 86.18L19.01 85.54C19.15 82.01 18.79 76.54 18.00 72.22ZM20.09 72.79C21.46 76.75 22.54 81.94 22.82 85.32L27.14 84.46C26.86 81.07 25.63 75.89 24.05 71.93ZM26.50 72.36C28.44 76.32 30.38 81.65 30.96 85.03L35.35 83.52C34.56 80.06 32.62 74.81 30.53 70.92ZM51.05 49.82L51.05 59.54L43.20 59.54L43.20 49.82ZM26.35 52.63L21.38 52.63L21.38 46.51L26.35 46.51ZM26.35 63.72L21.38 63.72L21.38 57.67L26.35 57.67ZM12.10 57.67L16.70 57.67L16.70 63.72L12.10 63.72ZM16.70 46.51L16.70 52.63L12.10 52.63L12.10 46.51ZM20.95 34.78C20.16 37.01 19.08 39.24 18.07 41.11L11.81 41.11C12.89 39.02 13.82 36.94 14.69 34.78ZM47.52 83.09C43.78 83.09 43.20 82.51 43.20 79.49L43.20 65.23L56.59 65.23L56.59 44.14L39.74 44.14C40.90 42.26 41.98 40.32 42.98 38.38L61.85 38.38C61.49 58.25 61.06 65.09 60.05 66.74C59.54 67.54 58.97 67.68 58.18 67.68C57.17 67.68 55.22 67.68 52.92 67.46C53.78 69.12 54.36 71.50 54.50 73.30C57.17 73.37 59.54 73.37 61.20 73.15C63.00 72.86 64.22 72.22 65.38 70.56C66.96 68.11 67.32 59.62 67.75 35.14L67.75 32.33L45.58 32.33C46.66 29.52 47.59 26.78 48.31 24.12L41.83 23.18C40.25 29.81 37.01 38.02 31.75 44.50L31.75 41.11L23.98 41.11C25.63 38.16 27.36 34.78 28.58 31.75L24.77 29.16L23.69 29.52L16.49 29.52C17.14 27.65 17.64 25.78 18.07 23.98L12.10 23.11C10.58 29.88 7.49 38.52 2.45 45.00C3.74 45.79 5.76 47.38 6.84 48.67L6.84 69.26L31.75 69.26L31.75 46.58C33.05 47.59 34.56 48.96 35.42 50.04C36.07 49.32 36.65 48.53 37.22 47.81L37.22 79.49C37.22 86.90 39.46 88.70 46.94 88.70L60.48 88.70C67.10 88.70 68.98 85.97 69.70 76.61C68.04 76.18 65.59 75.17 64.22 74.16C63.79 81.58 63.22 83.09 60.05 83.09Z"/></svg>
