<svg xmlns="http://www.w3.org/2000/svg" xmlns:xlink="http://www.w3.org/1999/xlink" width="72.00000000000001" height="106.56000000000002"><path fill="red" stroke="red" d="M8.35 88.85C12.38 85.10 14.69 78.98 16.20 73.51L10.58 71.50C9.29 76.61 6.70 82.22 2.95 85.61ZM20.38 73.87C21.53 77.98 22.18 83.45 21.96 86.90L27.79 85.97C27.86 82.51 27.14 77.18 25.99 73.08ZM32.04 73.66C33.62 77.40 34.99 82.30 35.35 85.32L40.90 83.88C40.46 80.86 38.88 76.03 37.22 72.43ZM51.62 33.48L51.62 37.80L19.51 37.80L19.51 33.48ZM19.51 46.73L19.51 42.12L51.62 42.12L51.62 46.73ZM68.26 60.34L68.26 55.58L19.51 55.58L19.51 51.48L58.18 51.48L58.18 28.66L37.08 28.66C38.02 27.07 38.95 25.34 39.82 23.54L31.90 22.68C31.54 24.41 30.82 26.64 30.02 28.66L12.89 28.66L12.89 69.48L59.69 69.48C58.97 78.55 58.18 82.15 57.10 83.30C56.52 83.88 55.87 84.02 54.79 84.02C53.57 84.02 50.76 84.02 47.74 83.74C48.60 85.18 49.25 87.55 49.32 89.14C52.78 89.35 55.94 89.28 57.74 89.14C59.69 88.92 61.13 88.42 62.42 87.12C64.22 85.10 65.23 79.85 66.17 67.10C66.24 66.24 66.31 64.58 66.31 64.58L19.51 64.58L19.51 60.34ZM52.99 79.92C52.13 77.47 49.97 73.58 48.02 70.70L43.20 72.50C45.14 75.38 47.16 79.34 48.02 81.86Z"/></svg>
