<svg xmlns="http://www.w3.org/2000/svg" xmlns:xlink="http://www.w3.org/1999/xlink" width="72.00000000000001" height="106.56000000000002"><path fill="red" stroke="red" d="M69.48 32.04C68.33 29.66 65.81 26.28 63.07 23.90L58.97 26.21C61.56 28.66 64.01 32.26 65.09 34.78ZM52.49 46.58L41.18 46.58L41.18 51.19L52.49 51.19ZM48.67 60.12L48.67 70.99L44.78 70.99L44.78 60.12ZM44.78 75.46L52.13 75.46L52.13 55.73L41.26 55.73L41.26 78.98L44.78 78.98ZM13.03 49.25C14.76 50.69 16.56 52.85 17.50 54.29L20.09 51.48C19.08 50.11 17.21 48.10 15.41 46.66ZM19.66 78.55L22.32 76.25C21.46 74.45 19.58 72.07 17.71 70.20L15.12 72.43C16.70 74.16 18.58 76.82 19.44 78.55L9.58 78.55L9.58 73.22C10.37 73.87 11.23 74.66 11.66 75.10C13.97 72.50 16.27 69.34 18.36 65.88C20.30 68.62 21.96 71.28 23.11 73.44L26.21 70.92C24.91 68.47 22.82 65.38 20.45 62.21C22.46 58.46 24.19 54.43 25.63 50.40L21.82 49.39C20.74 52.63 19.44 55.87 17.86 58.90C16.06 56.59 14.11 54.36 12.24 52.42L9.58 54.50L9.58 46.51L26.57 46.51L26.57 59.90C25.99 59.26 25.34 58.61 24.70 58.03L22.39 60.19C23.90 61.78 25.63 63.94 26.57 65.45L26.57 78.55ZM9.58 63.50C10.30 64.44 10.87 65.30 11.30 66.10L13.82 63.65C12.96 62.28 11.23 60.19 9.58 58.68L9.58 54.65C11.66 57.02 13.90 59.76 15.91 62.50C14.04 65.88 11.88 68.90 9.58 71.42ZM63.65 47.38C62.71 52.70 61.42 57.67 59.83 62.28C59.18 56.23 58.68 49.25 58.32 41.83L68.98 41.83L68.98 36.07L58.10 36.07C57.96 31.75 57.82 27.36 57.74 23.04L52.56 23.04C52.63 27.43 52.78 31.82 52.92 36.07L34.63 36.07L34.63 57.96C34.63 65.59 34.34 75.38 31.39 83.23L31.39 41.26L20.88 41.26L20.88 34.99L33.19 34.99L33.19 29.66L20.88 29.66L20.88 23.04L15.05 23.04L15.05 41.26L4.90 41.26L4.90 88.34L9.58 88.34L9.58 83.88L26.57 83.88L26.57 86.76L30.67 86.76C31.90 87.41 33.48 88.34 34.27 89.06C38.88 80.42 39.53 67.25 39.53 57.96L39.53 41.83L53.14 41.83C53.71 53.14 54.50 63.29 55.80 71.35C52.70 76.90 48.89 81.58 44.06 85.10C45.22 85.90 47.38 87.84 48.17 88.63C51.62 85.82 54.65 82.44 57.24 78.62C58.90 85.18 61.20 89.14 64.15 89.14C66.24 89.14 68.83 86.54 70.27 75.74C69.41 75.17 67.32 73.80 66.46 72.50C66.02 78.77 65.30 82.44 64.30 82.44C63.14 82.44 61.99 78.55 60.98 72.22C64.51 65.30 67.03 57.31 68.76 48.17Z"/></svg>
