<svg xmlns="http://www.w3.org/2000/svg" xmlns:xlink="http://www.w3.org/1999/xlink" width="72.00000000000001" height="106.56000000000002"><path fill="red" stroke="red" d="M45.43 52.78C44.57 52.06 42.98 51.05 41.76 50.47L39.96 52.13C41.26 52.85 42.77 53.86 43.70 54.65ZM41.90 48.38C44.06 49.46 46.30 50.83 48.53 52.27C46.37 54.22 44.06 56.02 41.76 57.53C42.48 57.96 43.85 59.04 44.42 59.54C46.58 57.96 48.96 56.09 51.12 54.00C53.42 55.58 55.37 57.17 56.74 58.46L58.97 56.38C57.53 55.01 55.44 53.50 53.14 51.91C54.94 49.97 56.52 48.02 57.89 46.01L54.72 45.14C53.57 46.87 52.13 48.60 50.54 50.18C48.46 48.89 46.15 47.59 44.06 46.51ZM47.52 32.62L47.52 41.04L37.15 41.04C39.17 38.38 40.82 35.50 42.19 32.62ZM61.13 51.84C60.26 50.98 58.97 50.18 57.74 49.61L55.80 51.05C57.17 51.84 58.82 52.99 59.54 53.86L61.13 52.42L61.13 59.62L53.06 59.62L54.43 58.39C53.64 57.60 51.98 56.45 50.76 55.73L48.82 57.24C49.82 57.82 51.05 58.75 51.91 59.62L39.82 59.62L39.82 44.71L48.53 44.71L46.80 46.15C48.10 46.80 49.61 47.88 50.47 48.74L52.20 46.87C51.62 46.22 50.18 45.29 48.96 44.71L61.13 44.71ZM34.78 63.29L66.31 63.29L66.31 41.04L53.35 41.04L53.35 38.81L65.59 38.81L65.59 35.14L53.35 35.14L53.35 32.62L69.05 32.62L69.05 28.22L44.14 28.22C44.71 26.71 45.22 25.34 45.65 23.90L39.82 23.04C38.16 28.30 35.28 34.85 30.67 39.89C31.97 40.46 33.62 41.62 34.78 42.77ZM17.78 30.89L17.78 36.65L11.23 36.65L11.23 30.89ZM25.20 46.94L11.23 46.94L11.23 41.33L25.20 41.33ZM17.78 58.03L11.23 58.03L11.23 51.70L17.78 51.70ZM6.19 63.29L31.97 63.29L31.97 58.03L22.39 58.03L22.39 51.70L30.10 51.70L30.10 36.65L22.39 36.65L22.39 30.89L31.75 30.89L31.75 25.70L6.19 25.70ZM17.28 71.93L25.85 71.93L25.85 81.79L17.28 81.79ZM40.61 71.93L40.61 81.79L31.97 81.79L31.97 71.93ZM55.44 71.93L55.44 81.79L46.73 81.79L46.73 71.93ZM61.99 81.79L61.99 66.67L11.02 66.67L11.02 81.79L2.95 81.79L2.95 87.12L69.19 87.12L69.19 81.79Z"/></svg>
