<svg xmlns="http://www.w3.org/2000/svg" xmlns:xlink="http://www.w3.org/1999/xlink" width="72.00000000000001" height="106.56000000000002"><path fill="red" stroke="red" d="M45.86 45.07C47.66 42.34 49.75 38.16 51.62 34.42L46.51 32.54C45.43 35.78 43.34 40.46 41.69 43.42ZM20.45 34.20C22.39 37.44 24.12 41.83 24.62 44.57L29.16 42.84C28.58 40.03 26.78 35.86 24.77 32.69ZM17.50 45.86L17.50 31.18L32.54 31.18L32.54 45.86ZM54.00 45.86L39.24 45.86L39.24 31.18L54.00 31.18ZM67.82 66.82L39.24 66.82L39.24 61.56L61.99 61.56L61.99 56.23L39.24 56.23L39.24 51.41L60.77 51.41L60.77 25.70L11.16 25.70L11.16 51.41L32.54 51.41L32.54 56.23L10.01 56.23L10.01 61.56L32.54 61.56L32.54 66.82L4.25 66.82L4.25 72.72L67.82 72.72ZM10.37 89.42C13.68 86.18 16.56 81.00 18.29 76.32L11.81 74.66C10.08 79.13 7.13 83.95 4.03 86.62ZM24.12 76.90C24.91 80.78 25.27 85.82 25.27 88.78L31.90 87.98C31.90 85.03 31.25 80.14 30.38 76.39ZM38.66 77.11C40.18 80.86 41.69 85.82 42.26 88.85L48.89 87.26C48.31 84.24 46.58 79.42 45.00 75.82ZM52.99 76.75C56.30 80.64 60.12 86.04 61.78 89.42L68.40 86.90C66.53 83.45 62.50 78.41 59.18 74.66Z"/></svg>
