<svg xmlns="http://www.w3.org/2000/svg" xmlns:xlink="http://www.w3.org/1999/xlink" width="72.00000000000001" height="106.56000000000002"><path fill="red" stroke="red" d="M47.02 26.35L42.05 26.35L42.05 34.20L36.36 34.20L36.36 24.26L30.96 24.26L30.96 34.20L25.42 34.20L25.42 26.35L20.59 26.35L20.59 38.45L47.02 38.45ZM46.22 45.79L46.22 41.33L20.88 41.33L20.88 45.79ZM13.46 23.04C11.16 27.65 6.41 33.41 2.23 37.01C3.31 38.23 4.90 40.75 5.69 42.12C10.66 37.87 15.98 31.18 19.44 25.34ZM14.76 37.66C11.66 44.86 6.62 52.34 1.66 57.24C2.81 58.61 4.75 61.85 5.40 63.22C6.91 61.63 8.35 59.83 9.86 57.89L9.86 89.21L15.62 89.21L15.62 49.32C17.50 46.15 19.22 42.91 20.66 39.74ZM21.82 88.85C23.83 86.33 24.84 82.51 25.56 78.98L21.60 77.76C21.02 80.86 19.66 84.60 17.93 86.69ZM27.72 78.70C28.30 81.58 28.58 85.32 28.58 87.62L32.54 86.98C32.54 84.89 32.11 81.14 31.46 78.34ZM34.34 78.84C35.35 81.22 36.29 84.53 36.65 86.54L40.18 85.32C39.82 83.45 38.81 80.35 37.80 77.90ZM25.85 53.57C26.71 55.44 27.50 58.03 27.79 59.62L30.60 58.75C30.24 57.17 29.38 54.65 28.44 52.85ZM38.74 59.76C39.60 58.18 40.46 55.80 41.40 53.57L38.38 52.56C37.94 54.29 37.01 57.10 36.29 58.90ZM60.70 42.77C60.12 50.47 59.18 57.46 57.53 63.36C55.66 56.88 54.79 50.04 54.14 43.99C54.29 43.56 54.43 43.20 54.58 42.77ZM42.41 60.19L35.21 60.19L35.21 51.98L42.41 51.98ZM24.62 51.98L31.75 51.98L31.75 60.19L24.62 60.19ZM68.90 42.77L68.90 37.08L56.02 37.08C57.02 32.90 57.82 28.51 58.39 24.12L52.34 23.11C51.34 32.98 49.39 42.34 45.72 48.89L20.74 48.89L20.74 63.29L30.96 63.29L30.96 65.74L20.88 65.74L20.88 69.48L30.96 69.48L30.96 72.79L19.08 73.58L19.08 77.54L47.52 75.60L47.52 71.64L36.14 72.43L36.14 69.48L46.44 69.48L46.44 65.74L36.14 65.74L36.14 63.29L46.51 63.29L46.51 52.49C47.38 53.78 48.24 55.15 48.53 55.94C49.32 54.86 50.04 53.64 50.69 52.34C51.48 58.32 52.63 64.73 54.72 70.99C52.70 75.02 50.18 78.62 46.87 81.58C46.08 80.14 44.78 78.34 43.78 77.04L40.61 78.41C41.76 80.14 43.13 82.22 43.99 83.88C43.56 84.17 43.13 84.46 42.70 84.74C43.85 85.75 45.72 88.27 46.37 89.42C50.98 86.18 54.58 82.30 57.31 77.76C59.40 82.15 62.14 86.18 65.59 89.42C66.53 87.91 68.40 85.46 69.55 84.46C65.59 81.22 62.64 76.75 60.41 71.64C63.65 63.79 65.45 54.29 66.38 42.77Z"/></svg>
