<svg xmlns="http://www.w3.org/2000/svg" xmlns:xlink="http://www.w3.org/1999/xlink" width="72.00000000000001" height="106.56000000000002"><path fill="red" stroke="red" d="M14.76 34.99L68.18 34.99L68.18 29.30L42.77 29.30C42.19 27.22 41.47 24.70 40.68 22.68L33.91 23.98C34.42 25.56 34.99 27.50 35.50 29.30L8.42 29.30L8.42 50.18C8.42 60.84 7.92 75.46 2.30 85.90C3.82 86.47 6.70 88.20 7.85 89.28C13.82 78.19 14.76 61.56 14.76 50.18ZM23.40 69.26C26.14 70.34 29.59 71.78 31.46 72.79L34.13 69.12C32.18 68.11 28.44 66.74 25.63 65.81L23.40 68.69L23.40 63.50L34.56 63.50L34.56 72.86C30.31 74.52 26.28 76.03 23.11 77.11C23.33 74.95 23.40 72.72 23.40 70.85ZM40.10 59.11L18.29 59.11L18.29 70.70C18.29 75.74 18.00 82.15 14.76 86.90C15.98 87.48 18.14 89.21 19.08 90.07C21.24 86.76 22.39 82.66 22.90 78.62L24.34 82.01C27.50 80.42 30.96 78.70 34.56 77.04L34.56 83.02C34.56 83.74 34.34 83.88 33.62 83.95C32.83 84.02 30.60 84.02 28.15 83.88C28.80 85.39 29.45 87.34 29.66 88.85C33.48 88.85 36.00 88.85 37.87 87.91C39.60 87.05 40.10 85.75 40.10 83.09ZM41.04 40.75L32.33 40.75C31.90 39.24 31.32 37.51 30.74 36.07L25.06 37.15C25.42 38.30 25.85 39.53 26.21 40.75L17.35 40.75L17.35 45.43L41.04 45.43ZM33.26 45.50C32.90 47.09 32.11 49.39 31.54 51.26L22.82 51.26L26.35 50.33C26.14 49.10 25.42 46.94 24.77 45.43L20.59 46.30C21.17 47.88 21.60 49.82 21.89 51.26L16.70 51.26L16.70 56.09L41.54 56.09L41.54 51.26L36.07 51.26C36.72 49.82 37.44 48.24 38.16 46.66ZM52.20 83.95C49.39 83.95 48.89 83.59 48.89 81.58L48.89 79.85L65.81 79.85L65.81 76.18L48.89 76.18L48.89 73.22L64.66 73.22L64.66 69.55L48.89 69.55L48.89 66.60L64.66 66.60L64.66 62.93L48.89 62.93L48.89 60.05L65.02 60.05L65.02 48.53L48.89 48.53L48.89 45.36L66.82 45.36L66.82 40.97L48.89 40.97L48.89 36.50L43.34 36.50L43.34 52.27L59.47 52.27L59.47 56.23L43.34 56.23L43.34 81.65C43.34 87.26 45.14 88.70 51.55 88.70L62.64 88.70C67.32 88.70 68.98 87.26 69.55 82.44C67.97 82.22 65.81 81.50 64.58 80.64C64.37 83.45 63.94 83.95 62.06 83.95Z"/></svg>
